<?xml version="1.0" encoding="utf-8" standalone="no"?>
<!DOCTYPE svg PUBLIC "-//W3C//DTD SVG 1.1//EN"
  "http://www.w3.org/Graphics/SVG/1.1/DTD/svg11.dtd">
<svg xmlns:xlink="http://www.w3.org/1999/xlink" width="460.8pt" height="345.6pt" viewBox="0 0 460.8 345.6" xmlns="http://www.w3.org/2000/svg" version="1.1">
 <metadata>
  <rdf:RDF xmlns:dc="http://purl.org/dc/elements/1.1/" xmlns:cc="http://creativecommons.org/ns#" xmlns:rdf="http://www.w3.org/1999/02/22-rdf-syntax-ns#">
   <cc:Work>
    <dc:type rdf:resource="http://purl.org/dc/dcmitype/StillImage"/>
    <dc:date>2025-01-23T17:18:08.400497</dc:date>
    <dc:format>image/svg+xml</dc:format>
    <dc:creator>
     <cc:Agent>
      <dc:title>Matplotlib v3.9.1, https://matplotlib.org/</dc:title>
     </cc:Agent>
    </dc:creator>
   </cc:Work>
  </rdf:RDF>
 </metadata>
 <defs>
  <style type="text/css">*{stroke-linejoin: round; stroke-linecap: butt}</style>
 </defs>
 <g id="figure_1">
  <g id="patch_1">
   <path d="M 0 345.6 
L 460.8 345.6 
L 460.8 0 
L 0 0 
z
" style="fill: #ffffff"/>
  </g>
  <g id="axes_1">
   <g id="patch_2">
    <path d="M 57.6 307.584 
L 414.72 307.584 
L 414.72 41.472 
L 57.6 41.472 
z
" style="fill: #ffffff"/>
   </g>
   <g id="matplotlib.axis_1">
    <g id="xtick_1">
     <g id="line2d_1">
      <defs>
       <path id="mb17c1b4356" d="M 0 0 
L 0 3.5 
" style="stroke: #000000; stroke-width: 0.8"/>
      </defs>
      <g>
       <use xlink:href="#mb17c1b4356" x="73.832727" y="307.584" style="stroke: #000000; stroke-width: 0.8"/>
      </g>
     </g>
     <g id="text_1">
      <!-- 1 -->
      <g transform="translate(70.651477 322.182437) scale(0.1 -0.1)">
       <defs>
        <path id="DejaVuSans-31" d="M 794 531 
L 1825 531 
L 1825 4091 
L 703 3866 
L 703 4441 
L 1819 4666 
L 2450 4666 
L 2450 531 
L 3481 531 
L 3481 0 
L 794 0 
L 794 531 
z
" transform="scale(0.015625)"/>
       </defs>
       <use xlink:href="#DejaVuSans-31"/>
      </g>
     </g>
    </g>
    <g id="xtick_2">
     <g id="line2d_2">
      <g>
       <use xlink:href="#mb17c1b4356" x="109.664165" y="307.584" style="stroke: #000000; stroke-width: 0.8"/>
      </g>
     </g>
     <g id="text_2">
      <!-- 34 -->
      <g transform="translate(103.301665 322.182437) scale(0.1 -0.1)">
       <defs>
        <path id="DejaVuSans-33" d="M 2597 2516 
Q 3050 2419 3304 2112 
Q 3559 1806 3559 1356 
Q 3559 666 3084 287 
Q 2609 -91 1734 -91 
Q 1441 -91 1130 -33 
Q 819 25 488 141 
L 488 750 
Q 750 597 1062 519 
Q 1375 441 1716 441 
Q 2309 441 2620 675 
Q 2931 909 2931 1356 
Q 2931 1769 2642 2001 
Q 2353 2234 1838 2234 
L 1294 2234 
L 1294 2753 
L 1863 2753 
Q 2328 2753 2575 2939 
Q 2822 3125 2822 3475 
Q 2822 3834 2567 4026 
Q 2313 4219 1838 4219 
Q 1578 4219 1281 4162 
Q 984 4106 628 3988 
L 628 4550 
Q 988 4650 1302 4700 
Q 1616 4750 1894 4750 
Q 2613 4750 3031 4423 
Q 3450 4097 3450 3541 
Q 3450 3153 3228 2886 
Q 3006 2619 2597 2516 
z
" transform="scale(0.015625)"/>
        <path id="DejaVuSans-34" d="M 2419 4116 
L 825 1625 
L 2419 1625 
L 2419 4116 
z
M 2253 4666 
L 3047 4666 
L 3047 1625 
L 3713 1625 
L 3713 1100 
L 3047 1100 
L 3047 0 
L 2419 0 
L 2419 1100 
L 313 1100 
L 313 1709 
L 2253 4666 
z
" transform="scale(0.015625)"/>
       </defs>
       <use xlink:href="#DejaVuSans-33"/>
       <use xlink:href="#DejaVuSans-34" x="63.623047"/>
      </g>
     </g>
    </g>
    <g id="xtick_3">
     <g id="line2d_3">
      <g>
       <use xlink:href="#mb17c1b4356" x="145.495604" y="307.584" style="stroke: #000000; stroke-width: 0.8"/>
      </g>
     </g>
     <g id="text_3">
      <!-- 67 -->
      <g transform="translate(139.133104 322.182437) scale(0.1 -0.1)">
       <defs>
        <path id="DejaVuSans-36" d="M 2113 2584 
Q 1688 2584 1439 2293 
Q 1191 2003 1191 1497 
Q 1191 994 1439 701 
Q 1688 409 2113 409 
Q 2538 409 2786 701 
Q 3034 994 3034 1497 
Q 3034 2003 2786 2293 
Q 2538 2584 2113 2584 
z
M 3366 4563 
L 3366 3988 
Q 3128 4100 2886 4159 
Q 2644 4219 2406 4219 
Q 1781 4219 1451 3797 
Q 1122 3375 1075 2522 
Q 1259 2794 1537 2939 
Q 1816 3084 2150 3084 
Q 2853 3084 3261 2657 
Q 3669 2231 3669 1497 
Q 3669 778 3244 343 
Q 2819 -91 2113 -91 
Q 1303 -91 875 529 
Q 447 1150 447 2328 
Q 447 3434 972 4092 
Q 1497 4750 2381 4750 
Q 2619 4750 2861 4703 
Q 3103 4656 3366 4563 
z
" transform="scale(0.015625)"/>
        <path id="DejaVuSans-37" d="M 525 4666 
L 3525 4666 
L 3525 4397 
L 1831 0 
L 1172 0 
L 2766 4134 
L 525 4134 
L 525 4666 
z
" transform="scale(0.015625)"/>
       </defs>
       <use xlink:href="#DejaVuSans-36"/>
       <use xlink:href="#DejaVuSans-37" x="63.623047"/>
      </g>
     </g>
    </g>
    <g id="xtick_4">
     <g id="line2d_4">
      <g>
       <use xlink:href="#mb17c1b4356" x="181.327042" y="307.584" style="stroke: #000000; stroke-width: 0.8"/>
      </g>
     </g>
     <g id="text_4">
      <!-- 100 -->
      <g transform="translate(171.783292 322.182437) scale(0.1 -0.1)">
       <defs>
        <path id="DejaVuSans-30" d="M 2034 4250 
Q 1547 4250 1301 3770 
Q 1056 3291 1056 2328 
Q 1056 1369 1301 889 
Q 1547 409 2034 409 
Q 2525 409 2770 889 
Q 3016 1369 3016 2328 
Q 3016 3291 2770 3770 
Q 2525 4250 2034 4250 
z
M 2034 4750 
Q 2819 4750 3233 4129 
Q 3647 3509 3647 2328 
Q 3647 1150 3233 529 
Q 2819 -91 2034 -91 
Q 1250 -91 836 529 
Q 422 1150 422 2328 
Q 422 3509 836 4129 
Q 1250 4750 2034 4750 
z
" transform="scale(0.015625)"/>
       </defs>
       <use xlink:href="#DejaVuSans-31"/>
       <use xlink:href="#DejaVuSans-30" x="63.623047"/>
       <use xlink:href="#DejaVuSans-30" x="127.246094"/>
      </g>
     </g>
    </g>
    <g id="xtick_5">
     <g id="line2d_5">
      <g>
       <use xlink:href="#mb17c1b4356" x="217.15848" y="307.584" style="stroke: #000000; stroke-width: 0.8"/>
      </g>
     </g>
     <g id="text_5">
      <!-- 133 -->
      <g transform="translate(207.61473 322.182437) scale(0.1 -0.1)">
       <use xlink:href="#DejaVuSans-31"/>
       <use xlink:href="#DejaVuSans-33" x="63.623047"/>
       <use xlink:href="#DejaVuSans-33" x="127.246094"/>
      </g>
     </g>
    </g>
    <g id="xtick_6">
     <g id="line2d_6">
      <g>
       <use xlink:href="#mb17c1b4356" x="254.075719" y="307.584" style="stroke: #000000; stroke-width: 0.8"/>
      </g>
     </g>
     <g id="text_6">
      <!-- 167 -->
      <g transform="translate(244.531969 322.182437) scale(0.1 -0.1)">
       <use xlink:href="#DejaVuSans-31"/>
       <use xlink:href="#DejaVuSans-36" x="63.623047"/>
       <use xlink:href="#DejaVuSans-37" x="127.246094"/>
      </g>
     </g>
    </g>
    <g id="xtick_7">
     <g id="line2d_7">
      <g>
       <use xlink:href="#mb17c1b4356" x="289.907157" y="307.584" style="stroke: #000000; stroke-width: 0.8"/>
      </g>
     </g>
     <g id="text_7">
      <!-- 200 -->
      <g transform="translate(280.363407 322.182437) scale(0.1 -0.1)">
       <defs>
        <path id="DejaVuSans-32" d="M 1228 531 
L 3431 531 
L 3431 0 
L 469 0 
L 469 531 
Q 828 903 1448 1529 
Q 2069 2156 2228 2338 
Q 2531 2678 2651 2914 
Q 2772 3150 2772 3378 
Q 2772 3750 2511 3984 
Q 2250 4219 1831 4219 
Q 1534 4219 1204 4116 
Q 875 4013 500 3803 
L 500 4441 
Q 881 4594 1212 4672 
Q 1544 4750 1819 4750 
Q 2544 4750 2975 4387 
Q 3406 4025 3406 3419 
Q 3406 3131 3298 2873 
Q 3191 2616 2906 2266 
Q 2828 2175 2409 1742 
Q 1991 1309 1228 531 
z
" transform="scale(0.015625)"/>
       </defs>
       <use xlink:href="#DejaVuSans-32"/>
       <use xlink:href="#DejaVuSans-30" x="63.623047"/>
       <use xlink:href="#DejaVuSans-30" x="127.246094"/>
      </g>
     </g>
    </g>
    <g id="xtick_8">
     <g id="line2d_8">
      <g>
       <use xlink:href="#mb17c1b4356" x="325.738595" y="307.584" style="stroke: #000000; stroke-width: 0.8"/>
      </g>
     </g>
     <g id="text_8">
      <!-- 233 -->
      <g transform="translate(316.194845 322.182437) scale(0.1 -0.1)">
       <use xlink:href="#DejaVuSans-32"/>
       <use xlink:href="#DejaVuSans-33" x="63.623047"/>
       <use xlink:href="#DejaVuSans-33" x="127.246094"/>
      </g>
     </g>
    </g>
    <g id="xtick_9">
     <g id="line2d_9">
      <g>
       <use xlink:href="#mb17c1b4356" x="361.570033" y="307.584" style="stroke: #000000; stroke-width: 0.8"/>
      </g>
     </g>
     <g id="text_9">
      <!-- 266 -->
      <g transform="translate(352.026283 322.182437) scale(0.1 -0.1)">
       <use xlink:href="#DejaVuSans-32"/>
       <use xlink:href="#DejaVuSans-36" x="63.623047"/>
       <use xlink:href="#DejaVuSans-36" x="127.246094"/>
      </g>
     </g>
    </g>
    <g id="xtick_10">
     <g id="line2d_10">
      <g>
       <use xlink:href="#mb17c1b4356" x="398.487273" y="307.584" style="stroke: #000000; stroke-width: 0.8"/>
      </g>
     </g>
     <g id="text_10">
      <!-- 300 -->
      <g transform="translate(388.943523 322.182437) scale(0.1 -0.1)">
       <use xlink:href="#DejaVuSans-33"/>
       <use xlink:href="#DejaVuSans-30" x="63.623047"/>
       <use xlink:href="#DejaVuSans-30" x="127.246094"/>
      </g>
     </g>
    </g>
    <g id="text_11">
     <!-- Epochs -->
     <g transform="translate(218.244375 335.860562) scale(0.1 -0.1)">
      <defs>
       <path id="DejaVuSans-45" d="M 628 4666 
L 3578 4666 
L 3578 4134 
L 1259 4134 
L 1259 2753 
L 3481 2753 
L 3481 2222 
L 1259 2222 
L 1259 531 
L 3634 531 
L 3634 0 
L 628 0 
L 628 4666 
z
" transform="scale(0.015625)"/>
       <path id="DejaVuSans-70" d="M 1159 525 
L 1159 -1331 
L 581 -1331 
L 581 3500 
L 1159 3500 
L 1159 2969 
Q 1341 3281 1617 3432 
Q 1894 3584 2278 3584 
Q 2916 3584 3314 3078 
Q 3713 2572 3713 1747 
Q 3713 922 3314 415 
Q 2916 -91 2278 -91 
Q 1894 -91 1617 61 
Q 1341 213 1159 525 
z
M 3116 1747 
Q 3116 2381 2855 2742 
Q 2594 3103 2138 3103 
Q 1681 3103 1420 2742 
Q 1159 2381 1159 1747 
Q 1159 1113 1420 752 
Q 1681 391 2138 391 
Q 2594 391 2855 752 
Q 3116 1113 3116 1747 
z
" transform="scale(0.015625)"/>
       <path id="DejaVuSans-6f" d="M 1959 3097 
Q 1497 3097 1228 2736 
Q 959 2375 959 1747 
Q 959 1119 1226 758 
Q 1494 397 1959 397 
Q 2419 397 2687 759 
Q 2956 1122 2956 1747 
Q 2956 2369 2687 2733 
Q 2419 3097 1959 3097 
z
M 1959 3584 
Q 2709 3584 3137 3096 
Q 3566 2609 3566 1747 
Q 3566 888 3137 398 
Q 2709 -91 1959 -91 
Q 1206 -91 779 398 
Q 353 888 353 1747 
Q 353 2609 779 3096 
Q 1206 3584 1959 3584 
z
" transform="scale(0.015625)"/>
       <path id="DejaVuSans-63" d="M 3122 3366 
L 3122 2828 
Q 2878 2963 2633 3030 
Q 2388 3097 2138 3097 
Q 1578 3097 1268 2742 
Q 959 2388 959 1747 
Q 959 1106 1268 751 
Q 1578 397 2138 397 
Q 2388 397 2633 464 
Q 2878 531 3122 666 
L 3122 134 
Q 2881 22 2623 -34 
Q 2366 -91 2075 -91 
Q 1284 -91 818 406 
Q 353 903 353 1747 
Q 353 2603 823 3093 
Q 1294 3584 2113 3584 
Q 2378 3584 2631 3529 
Q 2884 3475 3122 3366 
z
" transform="scale(0.015625)"/>
       <path id="DejaVuSans-68" d="M 3513 2113 
L 3513 0 
L 2938 0 
L 2938 2094 
Q 2938 2591 2744 2837 
Q 2550 3084 2163 3084 
Q 1697 3084 1428 2787 
Q 1159 2491 1159 1978 
L 1159 0 
L 581 0 
L 581 4863 
L 1159 4863 
L 1159 2956 
Q 1366 3272 1645 3428 
Q 1925 3584 2291 3584 
Q 2894 3584 3203 3211 
Q 3513 2838 3513 2113 
z
" transform="scale(0.015625)"/>
       <path id="DejaVuSans-73" d="M 2834 3397 
L 2834 2853 
Q 2591 2978 2328 3040 
Q 2066 3103 1784 3103 
Q 1356 3103 1142 2972 
Q 928 2841 928 2578 
Q 928 2378 1081 2264 
Q 1234 2150 1697 2047 
L 1894 2003 
Q 2506 1872 2764 1633 
Q 3022 1394 3022 966 
Q 3022 478 2636 193 
Q 2250 -91 1575 -91 
Q 1294 -91 989 -36 
Q 684 19 347 128 
L 347 722 
Q 666 556 975 473 
Q 1284 391 1588 391 
Q 1994 391 2212 530 
Q 2431 669 2431 922 
Q 2431 1156 2273 1281 
Q 2116 1406 1581 1522 
L 1381 1569 
Q 847 1681 609 1914 
Q 372 2147 372 2553 
Q 372 3047 722 3315 
Q 1072 3584 1716 3584 
Q 2034 3584 2315 3537 
Q 2597 3491 2834 3397 
z
" transform="scale(0.015625)"/>
      </defs>
      <use xlink:href="#DejaVuSans-45"/>
      <use xlink:href="#DejaVuSans-70" x="63.183594"/>
      <use xlink:href="#DejaVuSans-6f" x="126.660156"/>
      <use xlink:href="#DejaVuSans-63" x="187.841797"/>
      <use xlink:href="#DejaVuSans-68" x="242.822266"/>
      <use xlink:href="#DejaVuSans-73" x="306.201172"/>
     </g>
    </g>
   </g>
   <g id="matplotlib.axis_2">
    <g id="ytick_1">
     <g id="line2d_11">
      <defs>
       <path id="mf34838a006" d="M 0 0 
L -3.5 0 
" style="stroke: #000000; stroke-width: 0.8"/>
      </defs>
      <g>
       <use xlink:href="#mf34838a006" x="57.6" y="307.501033" style="stroke: #000000; stroke-width: 0.8"/>
      </g>
     </g>
     <g id="text_12">
      <!-- 30 -->
      <g transform="translate(37.875 311.300251) scale(0.1 -0.1)">
       <use xlink:href="#DejaVuSans-33"/>
       <use xlink:href="#DejaVuSans-30" x="63.623047"/>
      </g>
     </g>
    </g>
    <g id="ytick_2">
     <g id="line2d_12">
      <g>
       <use xlink:href="#mf34838a006" x="57.6" y="269.424405" style="stroke: #000000; stroke-width: 0.8"/>
      </g>
     </g>
     <g id="text_13">
      <!-- 40 -->
      <g transform="translate(37.875 273.223623) scale(0.1 -0.1)">
       <use xlink:href="#DejaVuSans-34"/>
       <use xlink:href="#DejaVuSans-30" x="63.623047"/>
      </g>
     </g>
    </g>
    <g id="ytick_3">
     <g id="line2d_13">
      <g>
       <use xlink:href="#mf34838a006" x="57.6" y="231.347777" style="stroke: #000000; stroke-width: 0.8"/>
      </g>
     </g>
     <g id="text_14">
      <!-- 50 -->
      <g transform="translate(37.875 235.146995) scale(0.1 -0.1)">
       <defs>
        <path id="DejaVuSans-35" d="M 691 4666 
L 3169 4666 
L 3169 4134 
L 1269 4134 
L 1269 2991 
Q 1406 3038 1543 3061 
Q 1681 3084 1819 3084 
Q 2600 3084 3056 2656 
Q 3513 2228 3513 1497 
Q 3513 744 3044 326 
Q 2575 -91 1722 -91 
Q 1428 -91 1123 -41 
Q 819 9 494 109 
L 494 744 
Q 775 591 1075 516 
Q 1375 441 1709 441 
Q 2250 441 2565 725 
Q 2881 1009 2881 1497 
Q 2881 1984 2565 2268 
Q 2250 2553 1709 2553 
Q 1456 2553 1204 2497 
Q 953 2441 691 2322 
L 691 4666 
z
" transform="scale(0.015625)"/>
       </defs>
       <use xlink:href="#DejaVuSans-35"/>
       <use xlink:href="#DejaVuSans-30" x="63.623047"/>
      </g>
     </g>
    </g>
    <g id="ytick_4">
     <g id="line2d_14">
      <g>
       <use xlink:href="#mf34838a006" x="57.6" y="193.271148" style="stroke: #000000; stroke-width: 0.8"/>
      </g>
     </g>
     <g id="text_15">
      <!-- 60 -->
      <g transform="translate(37.875 197.070367) scale(0.1 -0.1)">
       <use xlink:href="#DejaVuSans-36"/>
       <use xlink:href="#DejaVuSans-30" x="63.623047"/>
      </g>
     </g>
    </g>
    <g id="ytick_5">
     <g id="line2d_15">
      <g>
       <use xlink:href="#mf34838a006" x="57.6" y="155.19452" style="stroke: #000000; stroke-width: 0.8"/>
      </g>
     </g>
     <g id="text_16">
      <!-- 70 -->
      <g transform="translate(37.875 158.993739) scale(0.1 -0.1)">
       <use xlink:href="#DejaVuSans-37"/>
       <use xlink:href="#DejaVuSans-30" x="63.623047"/>
      </g>
     </g>
    </g>
    <g id="ytick_6">
     <g id="line2d_16">
      <g>
       <use xlink:href="#mf34838a006" x="57.6" y="117.117892" style="stroke: #000000; stroke-width: 0.8"/>
      </g>
     </g>
     <g id="text_17">
      <!-- 80 -->
      <g transform="translate(37.875 120.917111) scale(0.1 -0.1)">
       <defs>
        <path id="DejaVuSans-38" d="M 2034 2216 
Q 1584 2216 1326 1975 
Q 1069 1734 1069 1313 
Q 1069 891 1326 650 
Q 1584 409 2034 409 
Q 2484 409 2743 651 
Q 3003 894 3003 1313 
Q 3003 1734 2745 1975 
Q 2488 2216 2034 2216 
z
M 1403 2484 
Q 997 2584 770 2862 
Q 544 3141 544 3541 
Q 544 4100 942 4425 
Q 1341 4750 2034 4750 
Q 2731 4750 3128 4425 
Q 3525 4100 3525 3541 
Q 3525 3141 3298 2862 
Q 3072 2584 2669 2484 
Q 3125 2378 3379 2068 
Q 3634 1759 3634 1313 
Q 3634 634 3220 271 
Q 2806 -91 2034 -91 
Q 1263 -91 848 271 
Q 434 634 434 1313 
Q 434 1759 690 2068 
Q 947 2378 1403 2484 
z
M 1172 3481 
Q 1172 3119 1398 2916 
Q 1625 2713 2034 2713 
Q 2441 2713 2670 2916 
Q 2900 3119 2900 3481 
Q 2900 3844 2670 4047 
Q 2441 4250 2034 4250 
Q 1625 4250 1398 4047 
Q 1172 3844 1172 3481 
z
" transform="scale(0.015625)"/>
       </defs>
       <use xlink:href="#DejaVuSans-38"/>
       <use xlink:href="#DejaVuSans-30" x="63.623047"/>
      </g>
     </g>
    </g>
    <g id="ytick_7">
     <g id="line2d_17">
      <g>
       <use xlink:href="#mf34838a006" x="57.6" y="79.041264" style="stroke: #000000; stroke-width: 0.8"/>
      </g>
     </g>
     <g id="text_18">
      <!-- 90 -->
      <g transform="translate(37.875 82.840483) scale(0.1 -0.1)">
       <defs>
        <path id="DejaVuSans-39" d="M 703 97 
L 703 672 
Q 941 559 1184 500 
Q 1428 441 1663 441 
Q 2288 441 2617 861 
Q 2947 1281 2994 2138 
Q 2813 1869 2534 1725 
Q 2256 1581 1919 1581 
Q 1219 1581 811 2004 
Q 403 2428 403 3163 
Q 403 3881 828 4315 
Q 1253 4750 1959 4750 
Q 2769 4750 3195 4129 
Q 3622 3509 3622 2328 
Q 3622 1225 3098 567 
Q 2575 -91 1691 -91 
Q 1453 -91 1209 -44 
Q 966 3 703 97 
z
M 1959 2075 
Q 2384 2075 2632 2365 
Q 2881 2656 2881 3163 
Q 2881 3666 2632 3958 
Q 2384 4250 1959 4250 
Q 1534 4250 1286 3958 
Q 1038 3666 1038 3163 
Q 1038 2656 1286 2365 
Q 1534 2075 1959 2075 
z
" transform="scale(0.015625)"/>
       </defs>
       <use xlink:href="#DejaVuSans-39"/>
       <use xlink:href="#DejaVuSans-30" x="63.623047"/>
      </g>
     </g>
    </g>
    <g id="text_19">
     <!-- Accuracy -->
     <g transform="translate(31.795312 197.356125) rotate(-90) scale(0.1 -0.1)">
      <defs>
       <path id="DejaVuSans-41" d="M 2188 4044 
L 1331 1722 
L 3047 1722 
L 2188 4044 
z
M 1831 4666 
L 2547 4666 
L 4325 0 
L 3669 0 
L 3244 1197 
L 1141 1197 
L 716 0 
L 50 0 
L 1831 4666 
z
" transform="scale(0.015625)"/>
       <path id="DejaVuSans-75" d="M 544 1381 
L 544 3500 
L 1119 3500 
L 1119 1403 
Q 1119 906 1312 657 
Q 1506 409 1894 409 
Q 2359 409 2629 706 
Q 2900 1003 2900 1516 
L 2900 3500 
L 3475 3500 
L 3475 0 
L 2900 0 
L 2900 538 
Q 2691 219 2414 64 
Q 2138 -91 1772 -91 
Q 1169 -91 856 284 
Q 544 659 544 1381 
z
M 1991 3584 
L 1991 3584 
z
" transform="scale(0.015625)"/>
       <path id="DejaVuSans-72" d="M 2631 2963 
Q 2534 3019 2420 3045 
Q 2306 3072 2169 3072 
Q 1681 3072 1420 2755 
Q 1159 2438 1159 1844 
L 1159 0 
L 581 0 
L 581 3500 
L 1159 3500 
L 1159 2956 
Q 1341 3275 1631 3429 
Q 1922 3584 2338 3584 
Q 2397 3584 2469 3576 
Q 2541 3569 2628 3553 
L 2631 2963 
z
" transform="scale(0.015625)"/>
       <path id="DejaVuSans-61" d="M 2194 1759 
Q 1497 1759 1228 1600 
Q 959 1441 959 1056 
Q 959 750 1161 570 
Q 1363 391 1709 391 
Q 2188 391 2477 730 
Q 2766 1069 2766 1631 
L 2766 1759 
L 2194 1759 
z
M 3341 1997 
L 3341 0 
L 2766 0 
L 2766 531 
Q 2569 213 2275 61 
Q 1981 -91 1556 -91 
Q 1019 -91 701 211 
Q 384 513 384 1019 
Q 384 1609 779 1909 
Q 1175 2209 1959 2209 
L 2766 2209 
L 2766 2266 
Q 2766 2663 2505 2880 
Q 2244 3097 1772 3097 
Q 1472 3097 1187 3025 
Q 903 2953 641 2809 
L 641 3341 
Q 956 3463 1253 3523 
Q 1550 3584 1831 3584 
Q 2591 3584 2966 3190 
Q 3341 2797 3341 1997 
z
" transform="scale(0.015625)"/>
       <path id="DejaVuSans-79" d="M 2059 -325 
Q 1816 -950 1584 -1140 
Q 1353 -1331 966 -1331 
L 506 -1331 
L 506 -850 
L 844 -850 
Q 1081 -850 1212 -737 
Q 1344 -625 1503 -206 
L 1606 56 
L 191 3500 
L 800 3500 
L 1894 763 
L 2988 3500 
L 3597 3500 
L 2059 -325 
z
" transform="scale(0.015625)"/>
      </defs>
      <use xlink:href="#DejaVuSans-41"/>
      <use xlink:href="#DejaVuSans-63" x="66.658203"/>
      <use xlink:href="#DejaVuSans-63" x="121.638672"/>
      <use xlink:href="#DejaVuSans-75" x="176.619141"/>
      <use xlink:href="#DejaVuSans-72" x="239.998047"/>
      <use xlink:href="#DejaVuSans-61" x="281.111328"/>
      <use xlink:href="#DejaVuSans-63" x="342.390625"/>
      <use xlink:href="#DejaVuSans-79" x="397.371094"/>
     </g>
    </g>
   </g>
   <g id="line2d_18">
    <path d="M 73.832727 295.488 
L 74.918528 232.828229 
L 76.00433 207.149246 
L 77.090131 188.345973 
L 78.175932 176.853388 
L 79.261733 167.535695 
L 80.347534 161.812296 
L 81.433335 154.417664 
L 82.519137 150.037356 
L 83.604938 144.191858 
L 85.77654 137.758758 
L 86.862341 132.577174 
L 87.948142 130.035985 
L 89.033943 125.869351 
L 90.119745 123.434998 
L 91.205546 120.504618 
L 92.291347 118.818123 
L 93.377148 116.902692 
L 94.462949 117.024792 
L 95.54875 142.657987 
L 96.634552 143.489788 
L 97.720353 139.918387 
L 98.806154 137.606134 
L 99.891955 136.324093 
L 100.977756 133.88974 
L 102.063557 133.416606 
L 103.149358 128.670001 
L 104.23516 128.242653 
L 105.320961 127.235335 
L 106.406762 125.365692 
L 107.492563 123.908133 
L 108.578364 120.77171 
L 110.749967 120.138321 
L 111.835768 118.848648 
L 112.921569 116.620338 
L 114.00737 115.42224 
L 115.093171 113.468653 
L 116.178972 114.216511 
L 117.264773 112.178981 
L 118.350575 109.645423 
L 119.436376 110.286443 
L 120.522177 107.256858 
L 121.607978 105.204065 
L 122.693779 105.539838 
L 123.77958 102.914706 
L 124.865382 102.220267 
L 125.951183 100.495616 
L 127.036984 99.488297 
L 128.122785 98.03837 
L 129.208586 96.786853 
L 130.294387 96.535024 
L 131.380189 95.497181 
L 132.46599 95.245351 
L 133.551791 93.558856 
L 134.637592 93.719111 
L 135.723393 92.872048 
L 136.809194 93.253608 
L 137.894995 92.582063 
L 138.980797 117.215572 
L 140.066598 120.512249 
L 141.152399 120.023853 
L 142.2382 118.299202 
L 143.324001 118.520507 
L 145.495604 115.086467 
L 146.581405 114.918581 
L 147.667206 115.178042 
L 148.753007 113.026044 
L 149.838808 114.445447 
L 150.924609 112.484229 
L 152.01041 112.163718 
L 153.096212 111.66769 
L 154.182013 111.59901 
L 155.267814 110.431436 
L 157.439416 111.255606 
L 159.611019 107.852091 
L 160.69682 108.004715 
L 161.782621 107.21107 
L 162.868422 105.623781 
L 163.954223 108.012346 
L 165.040024 105.356689 
L 166.125825 106.753198 
L 167.211627 105.608519 
L 168.297428 104.120435 
L 169.383229 103.937286 
L 170.46903 104.456208 
L 171.554831 103.273372 
L 172.640632 102.693401 
L 173.726434 102.388153 
L 174.812235 100.831388 
L 175.898036 100.976381 
L 176.983837 100.129318 
L 178.069638 99.50356 
L 180.24124 97.366824 
L 181.327042 98.511504 
L 183.498644 96.183989 
L 184.584445 96.023733 
L 185.670246 94.909578 
L 186.756047 94.79511 
L 187.841849 95.230089 
L 188.92765 93.96331 
L 190.013451 93.635168 
L 193.270854 91.139766 
L 195.442457 90.903199 
L 196.528258 89.705101 
L 197.614059 89.056449 
L 198.69986 89.453271 
L 199.785661 88.377272 
L 200.871462 86.812877 
L 201.957264 86.942607 
L 203.043065 85.385843 
L 204.128866 85.927658 
L 205.214667 84.699035 
L 206.300468 84.019858 
L 207.386269 84.126695 
L 208.472071 84.85929 
L 209.557872 81.799179 
L 210.643673 83.52383 
L 211.729474 82.073902 
L 212.815275 81.753392 
L 213.901076 81.219208 
L 214.986877 81.089478 
L 216.072679 80.799492 
L 217.15848 81.211577 
L 218.244281 81.402357 
L 219.330082 80.196628 
L 220.415883 80.028741 
L 221.501684 79.654813 
L 222.587486 79.715862 
L 223.673287 79.433508 
L 224.759088 80.46372 
L 225.844889 105.974816 
L 226.93069 108.699154 
L 228.016491 107.707098 
L 229.102292 108.691523 
L 230.188094 108.683892 
L 231.273895 107.508687 
L 233.445497 107.478162 
L 234.531298 106.69978 
L 235.617099 105.585625 
L 237.788702 104.608832 
L 238.874503 104.067017 
L 239.960304 103.807556 
L 241.046105 104.440945 
L 242.131906 103.693088 
L 243.217708 103.883868 
L 244.303509 103.738875 
L 245.38931 102.418678 
L 246.475111 102.227898 
L 247.560912 102.571302 
L 248.646713 101.205317 
L 249.732514 101.22058 
L 250.818316 100.503247 
L 251.904117 101.182424 
L 252.989918 101.396097 
L 254.075719 101.48004 
L 255.16152 100.800864 
L 256.247321 101.472409 
L 257.333123 100.953488 
L 258.418924 99.244099 
L 259.504725 99.877489 
L 260.590526 99.228837 
L 261.676327 98.954114 
L 262.762128 99.175418 
L 263.847929 99.190681 
L 266.019532 99.053319 
L 267.105333 97.389718 
L 268.191134 98.702284 
L 269.276935 99.389092 
L 270.362736 98.763334 
L 271.448538 97.08447 
L 272.534339 97.359193 
L 273.62014 98.435192 
L 274.705941 96.351875 
L 275.791742 96.710541 
L 276.877543 97.252356 
L 277.963344 96.657123 
L 279.049146 95.771904 
L 280.134947 96.038996 
L 281.220748 96.649492 
L 282.306549 95.375081 
L 283.39235 94.901947 
L 284.478151 95.665067 
L 285.563953 94.367763 
L 286.649754 96.138201 
L 287.735555 94.749323 
L 288.821356 94.41355 
L 289.907157 94.4746 
L 290.992958 93.207821 
L 292.07876 93.383339 
L 293.164561 94.100671 
L 294.250362 94.245664 
L 295.336163 93.284133 
L 296.421964 92.910204 
L 297.507765 91.712106 
L 299.679368 92.574432 
L 300.765169 91.826574 
L 301.85097 92.078404 
L 302.936771 91.246603 
L 304.022572 91.765525 
L 305.108373 90.59032 
L 307.279976 90.796362 
L 308.365777 89.911143 
L 309.451578 90.567426 
L 310.537379 89.170917 
L 311.62318 89.804307 
L 312.708981 89.537215 
L 313.794783 88.186492 
L 314.880584 88.957244 
L 315.966385 88.400166 
L 317.052186 89.25486 
L 318.137987 87.652309 
L 319.223788 87.881245 
L 320.30959 87.064706 
L 321.395391 87.461529 
L 322.481192 87.286011 
L 325.738595 85.683459 
L 326.824396 86.355005 
L 327.910198 84.569304 
L 328.995999 86.202381 
L 330.0818 85.027176 
L 331.167601 84.683772 
L 332.253402 83.951177 
L 333.339203 84.752453 
L 334.425005 84.180113 
L 335.510806 83.218582 
L 336.596607 83.096483 
L 337.682408 82.356257 
L 338.768209 82.295207 
L 339.85401 82.943859 
L 342.025613 81.326045 
L 343.111414 80.860542 
L 344.197215 81.432882 
L 345.283016 80.349252 
L 346.368817 80.5324 
L 347.454618 80.21189 
L 348.54042 79.158785 
L 349.626221 80.105053 
L 350.712022 79.63955 
L 352.883624 78.067523 
L 353.969425 78.800118 
L 355.055227 78.349878 
L 356.141028 78.968005 
L 357.226829 77.7928 
L 358.31263 77.014418 
L 359.398431 76.983893 
L 360.484232 77.212829 
L 361.570033 76.571808 
L 362.655835 76.701539 
L 363.741636 76.190248 
L 364.827437 76.319979 
L 365.913238 75.533965 
L 366.999039 75.709483 
L 368.08484 76.281823 
L 369.170642 77.151779 
L 370.256443 77.136517 
L 372.428045 78.823012 
L 373.513846 79.151153 
L 375.685448 79.242728 
L 376.77125 78.49487 
L 377.857051 78.868799 
L 378.942852 80.044004 
L 380.028653 78.655126 
L 381.114454 78.23541 
L 382.200255 79.433508 
L 383.286057 79.051948 
L 384.371858 78.815381 
L 385.457659 78.93748 
L 386.54346 78.731438 
L 387.629261 79.25799 
L 388.715062 79.326671 
L 389.800863 78.464346 
L 390.886665 78.700913 
L 393.058267 78.380402 
L 394.144068 79.410614 
L 395.229869 78.61697 
L 396.31567 78.7467 
L 397.401472 79.738756 
L 398.487273 79.311409 
L 398.487273 79.311409 
" clip-path="url(#p0e3df1dd2a)" style="fill: none; stroke: #1f77b4; stroke-width: 1.5; stroke-linecap: square"/>
   </g>
   <g id="line2d_19">
    <path d="M 73.832727 243.95114 
L 74.918528 195.708053 
L 76.00433 184.285064 
L 77.090131 155.346827 
L 78.175932 132.95777 
L 79.261733 134.518911 
L 80.347534 119.478643 
L 81.433335 114.376375 
L 82.519137 106.494513 
L 83.604938 101.506475 
L 84.690739 101.354168 
L 85.77654 93.053463 
L 86.862341 99.907256 
L 87.948142 85.895057 
L 89.033943 89.93118 
L 90.119745 83.115463 
L 91.205546 81.440092 
L 93.377148 79.802797 
L 94.462949 78.317808 
L 95.54875 118.488651 
L 96.634552 100.973402 
L 97.720353 107.979502 
L 98.806154 95.528444 
L 99.891955 91.720781 
L 100.977756 91.873088 
L 102.063557 83.03931 
L 103.149358 92.406161 
L 104.23516 82.277778 
L 105.320961 94.766912 
L 106.406762 82.392007 
L 107.492563 85.057371 
L 108.578364 83.420076 
L 109.664165 78.432038 
L 110.749967 83.572383 
L 112.921569 77.251663 
L 114.00737 76.337824 
L 115.093171 76.756667 
L 116.178972 74.472069 
L 117.264773 73.596306 
L 118.350575 73.900919 
L 119.436376 73.824766 
L 120.522177 70.131333 
L 121.607978 68.722498 
L 122.693779 69.94095 
L 123.77958 68.608268 
L 124.865382 68.874804 
L 125.951183 67.199433 
L 127.036984 67.161356 
L 128.122785 65.295601 
L 129.208586 64.572146 
L 130.294387 63.429847 
L 131.380189 63.087157 
L 132.46599 62.896774 
L 133.551791 62.934851 
L 134.637592 62.439854 
L 135.723393 61.678322 
L 136.809194 62.249471 
L 137.894995 62.439854 
L 138.980797 80.564329 
L 140.066598 80.907019 
L 141.152399 79.269724 
L 142.2382 79.802797 
L 143.324001 79.955103 
L 144.409802 76.71859 
L 145.495604 80.945096 
L 146.581405 79.802797 
L 147.667206 75.918981 
L 148.753007 74.890912 
L 149.838808 74.814758 
L 150.924609 75.157448 
L 152.01041 77.403969 
L 153.096212 73.67246 
L 154.182013 78.203578 
L 155.267814 75.309755 
L 156.353615 74.967065 
L 157.439416 71.844781 
L 159.611019 74.967065 
L 160.69682 74.129379 
L 161.782621 70.28364 
L 162.868422 70.892866 
L 163.954223 72.492084 
L 166.125825 68.189425 
L 167.211627 72.187471 
L 168.297428 72.720544 
L 169.383229 70.969019 
L 170.46903 68.798651 
L 171.554831 72.301701 
L 172.640632 68.113272 
L 173.726434 67.542123 
L 174.812235 67.199433 
L 175.898036 70.28364 
L 176.983837 67.922889 
L 179.155439 64.610222 
L 180.24124 66.514054 
L 181.327042 66.171364 
L 182.412843 64.762529 
L 183.498644 62.972927 
L 184.584445 64.000996 
L 185.670246 64.381762 
L 186.756047 63.27754 
L 187.841849 62.858697 
L 188.92765 63.39177 
L 190.013451 62.554084 
L 191.099252 63.239464 
L 192.185053 63.04908 
L 193.270854 60.5741 
L 194.356656 62.477931 
L 195.442457 62.287548 
L 196.528258 60.5741 
L 197.614059 61.564092 
L 198.69986 59.964874 
L 199.785661 60.269487 
L 200.871462 60.079103 
L 201.957264 57.147203 
L 203.043065 58.022965 
L 204.128866 58.556038 
L 205.214667 57.261433 
L 206.300468 58.441808 
L 207.386269 57.109126 
L 208.472071 58.441808 
L 209.557872 57.375663 
L 210.643673 56.95682 
L 211.729474 56.994897 
L 212.815275 56.309517 
L 213.901076 56.347594 
L 214.986877 56.72836 
L 216.072679 56.042981 
L 217.15848 56.195287 
L 218.244281 55.776444 
L 219.330082 56.081057 
L 220.415883 56.119134 
L 221.501684 55.928751 
L 222.587486 55.890674 
L 223.673287 56.042981 
L 224.759088 56.081057 
L 225.844889 74.281686 
L 226.93069 74.510145 
L 228.016491 75.576291 
L 229.102292 69.179418 
L 230.188094 71.159402 
L 231.273895 74.091303 
L 232.359696 74.472069 
L 233.445497 71.197479 
L 234.531298 70.05518 
L 235.617099 71.920935 
L 236.702901 68.836728 
L 237.788702 72.492084 
L 238.874503 69.065188 
L 239.960304 69.94095 
L 241.046105 69.445954 
L 242.131906 67.351739 
L 243.217708 73.291693 
L 244.303509 68.950958 
L 245.38931 71.311709 
L 246.475111 70.39787 
L 247.560912 69.255571 
L 248.646713 70.05518 
L 249.732514 66.932896 
L 250.818316 69.179418 
L 251.904117 70.550176 
L 252.989918 67.808659 
L 254.075719 68.341732 
L 255.16152 66.704437 
L 256.247321 68.303655 
L 257.333123 67.047126 
L 258.418924 70.626329 
L 259.504725 65.942904 
L 260.590526 67.199433 
L 261.676327 65.447908 
L 262.762128 65.105218 
L 263.847929 66.704437 
L 264.933731 66.514054 
L 266.019532 68.494038 
L 267.105333 66.171364 
L 268.191134 67.580199 
L 269.276935 69.445954 
L 270.362736 65.790598 
L 271.448538 68.608268 
L 272.534339 67.656352 
L 273.62014 63.467923 
L 274.705941 63.27754 
L 275.791742 70.131333 
L 276.877543 66.32367 
L 277.963344 64.762529 
L 279.049146 64.191379 
L 280.134947 66.590207 
L 281.220748 66.590207 
L 282.306549 64.990988 
L 283.39235 64.610222 
L 284.478151 65.866751 
L 285.563953 64.572146 
L 286.649754 65.143295 
L 288.821356 64.000996 
L 289.907157 63.125234 
L 290.992958 63.886766 
L 292.07876 63.886766 
L 293.164561 67.465969 
L 294.250362 64.229456 
L 295.336163 64.381762 
L 296.421964 63.582153 
L 297.507765 64.077149 
L 298.593566 63.506 
L 299.679368 62.021011 
L 300.765169 63.011004 
L 301.85097 62.173318 
L 302.936771 63.544077 
L 304.022572 62.744467 
L 305.108373 63.886766 
L 306.194175 63.011004 
L 307.279976 60.5741 
L 308.365777 62.135241 
L 309.451578 61.069096 
L 310.537379 63.658306 
L 312.708981 59.88872 
L 313.794783 61.259479 
L 314.880584 59.736414 
L 315.966385 59.88872 
L 318.137987 61.411785 
L 319.223788 59.089111 
L 320.30959 58.632192 
L 321.395391 60.11718 
L 322.481192 59.584107 
L 323.566993 59.66026 
L 324.652794 59.546031 
L 325.738595 59.127188 
L 326.824396 59.317571 
L 327.910198 57.946812 
L 328.995999 57.984889 
L 330.0818 58.213349 
L 331.167601 59.203341 
L 332.253402 58.822575 
L 334.425005 57.032973 
L 335.510806 57.032973 
L 337.682408 57.680276 
L 338.768209 58.061042 
L 339.85401 56.423747 
L 340.939811 57.109126 
L 344.197215 57.489893 
L 345.283016 56.766437 
L 346.368817 55.700291 
L 347.454618 55.852598 
L 348.54042 56.195287 
L 349.626221 56.690284 
L 350.712022 55.205295 
L 351.797823 56.766437 
L 352.883624 55.547985 
L 353.969425 55.776444 
L 355.055227 55.586061 
L 356.141028 54.253379 
L 357.226829 55.662215 
L 358.31263 55.052988 
L 359.398431 54.824529 
L 360.484232 55.395678 
L 361.570033 54.824529 
L 362.655835 54.634146 
L 363.741636 55.014912 
L 364.827437 54.710299 
L 365.913238 54.101073 
L 366.999039 54.329533 
L 370.256443 55.471831 
L 371.342244 55.167218 
L 372.428045 55.700291 
L 373.513846 55.243372 
L 374.599647 55.281448 
L 375.685448 56.804513 
L 376.77125 56.081057 
L 377.857051 57.337586 
L 378.942852 55.738368 
L 380.028653 56.72836 
L 381.114454 56.119134 
L 382.200255 54.862605 
L 383.286057 54.253379 
L 384.371858 55.509908 
L 385.457659 55.814521 
L 386.54346 54.938759 
L 387.629261 56.4999 
L 388.715062 57.29951 
L 389.800863 56.38567 
L 391.972466 55.091065 
L 394.144068 56.004904 
L 395.229869 55.852598 
L 396.31567 55.357602 
L 397.401472 56.994897 
L 398.487273 56.081057 
L 398.487273 56.081057 
" clip-path="url(#p0e3df1dd2a)" style="fill: none; stroke: #ff7f0e; stroke-width: 1.5; stroke-linecap: square"/>
   </g>
   <g id="line2d_20">
    <path d="M 73.832727 264.80269 
L 74.918528 239.908453 
L 76.00433 241.484038 
L 77.090131 205.954605 
L 78.175932 182.924809 
L 79.261733 182.268316 
L 80.347534 171.60686 
L 82.519137 160.709066 
L 83.604938 159.684936 
L 84.690739 156.743845 
L 85.77654 131.980907 
L 86.862341 155.010702 
L 87.948142 135.893609 
L 89.033943 136.576362 
L 90.119745 135.78857 
L 91.205546 127.464231 
L 92.291347 128.540881 
L 93.377148 128.698439 
L 94.462949 128.173244 
L 95.54875 172.762289 
L 96.634552 165.278262 
L 97.720353 163.019924 
L 98.806154 153.277559 
L 99.891955 149.312338 
L 100.977756 148.288208 
L 102.063557 137.285375 
L 103.149358 137.574232 
L 104.23516 123.157633 
L 105.320961 168.56073 
L 106.406762 141.828311 
L 107.492563 133.162596 
L 108.578364 141.145558 
L 109.664165 130.6154 
L 110.749967 146.975221 
L 111.835768 135.237115 
L 112.921569 128.383322 
L 114.00737 122.895036 
L 115.093171 134.055427 
L 116.178972 133.792829 
L 117.264773 126.5714 
L 118.350575 124.234283 
L 119.436376 115.699866 
L 120.522177 115.489788 
L 121.607978 115.962464 
L 122.693779 127.54301 
L 123.77958 121.765867 
L 125.951183 119.796386 
L 127.036984 112.627476 
L 128.122785 120.085243 
L 129.208586 116.881555 
L 130.294387 110.736775 
L 131.380189 110.631736 
L 132.46599 115.909944 
L 133.551791 112.102281 
L 134.637592 114.071762 
L 135.723393 111.104411 
L 136.809194 113.992983 
L 137.894995 111.524567 
L 138.980797 130.536621 
L 140.066598 136.681401 
L 141.152399 125.678569 
L 142.2382 140.594103 
L 143.324001 132.794959 
L 144.409802 126.5714 
L 145.495604 134.344284 
L 146.581405 135.552232 
L 147.667206 138.178207 
L 148.753007 129.276154 
L 149.838808 124.181763 
L 150.924609 120.846776 
L 152.01041 135.315895 
L 153.096212 125.153374 
L 154.182013 126.860257 
L 155.267814 133.320154 
L 156.353615 127.674309 
L 157.439416 117.643087 
L 158.525217 126.151244 
L 159.611019 133.477712 
L 160.69682 130.247764 
L 161.782621 122.369841 
L 162.868422 130.799219 
L 163.954223 121.42449 
L 165.040024 121.713347 
L 166.125825 121.870906 
L 167.211627 125.100854 
L 168.297428 126.676439 
L 169.383229 123.892906 
L 170.46903 127.963166 
L 171.554831 129.538751 
L 172.640632 125.127114 
L 173.726434 122.947555 
L 174.812235 121.897166 
L 175.898036 122.133503 
L 176.983837 114.754515 
L 178.069638 111.419528 
L 179.155439 110.736775 
L 180.24124 126.046205 
L 181.327042 118.010724 
L 182.412843 107.769424 
L 183.498644 109.029891 
L 184.584445 116.776516 
L 185.670246 106.929112 
L 186.756047 104.276878 
L 187.841849 111.813424 
L 188.92765 108.16332 
L 190.013451 105.117189 
L 191.099252 106.272618 
L 192.185053 101.913501 
L 193.270854 105.721164 
L 194.356656 107.926982 
L 195.442457 103.620384 
L 196.528258 104.04054 
L 197.614059 101.572124 
L 198.69986 105.195969 
L 199.785661 100.495475 
L 200.871462 100.600514 
L 203.043065 98.709812 
L 204.128866 98.368435 
L 205.214667 102.01854 
L 206.300468 100.705553 
L 207.386269 98.788591 
L 208.472071 96.005058 
L 209.557872 96.635292 
L 210.643673 94.193136 
L 211.729474 95.794981 
L 212.815275 93.615422 
L 213.901076 93.77298 
L 214.986877 92.853889 
L 216.072679 92.643811 
L 217.15848 93.379084 
L 218.244281 92.696331 
L 219.330082 92.643811 
L 220.415883 94.508253 
L 221.501684 92.249915 
L 222.587486 91.278305 
L 223.673287 91.829759 
L 224.759088 91.593422 
L 225.844889 131.429452 
L 226.93069 129.197374 
L 228.016491 129.171115 
L 229.102292 124.838257 
L 230.188094 128.855998 
L 231.273895 135.683531 
L 232.359696 126.965296 
L 233.445497 129.013556 
L 234.531298 115.174671 
L 235.617099 117.144152 
L 236.702901 124.680698 
L 237.788702 110.342878 
L 238.874503 120.846776 
L 239.960304 117.695607 
L 241.046105 127.674309 
L 242.131906 114.439398 
L 243.217708 128.882257 
L 244.303509 118.299581 
L 245.38931 123.44649 
L 246.475111 123.288932 
L 247.560912 119.061113 
L 248.646713 129.118595 
L 249.732514 116.408879 
L 250.818316 110.631736 
L 251.904117 126.728958 
L 252.989918 112.548697 
L 254.075719 118.667217 
L 255.16152 115.647347 
L 256.247321 115.227191 
L 257.333123 123.000075 
L 258.418924 114.780775 
L 259.504725 115.358489 
L 260.590526 101.230747 
L 261.676327 109.896463 
L 262.762128 107.270488 
L 263.847929 110.789294 
L 264.933731 108.662255 
L 266.019532 113.520307 
L 267.105333 108.399657 
L 268.191134 116.513918 
L 269.276935 116.802775 
L 270.362736 111.813424 
L 271.448538 114.596957 
L 272.534339 111.865944 
L 273.62014 110.15906 
L 274.705941 106.430177 
L 275.791742 111.340749 
L 276.877543 114.465658 
L 277.963344 113.520307 
L 279.049146 103.751683 
L 280.134947 106.535216 
L 281.220748 118.614698 
L 282.306549 113.310229 
L 283.39235 110.526697 
L 284.478151 106.167579 
L 285.563953 111.340749 
L 286.649754 119.717607 
L 287.735555 103.147709 
L 288.821356 119.796386 
L 289.907157 105.773683 
L 290.992958 106.403917 
L 292.07876 112.469918 
L 293.164561 103.305267 
L 294.250362 112.916333 
L 295.336163 109.239969 
L 296.421964 108.005761 
L 298.593566 112.312359 
L 299.679368 102.569994 
L 300.765169 111.104411 
L 301.85097 103.515345 
L 302.936771 111.498307 
L 304.022572 99.471345 
L 305.108373 113.835424 
L 306.194175 107.900722 
L 307.279976 104.01428 
L 308.365777 113.835424 
L 309.451578 100.469215 
L 310.537379 103.699163 
L 311.62318 102.727553 
L 312.708981 91.041967 
L 313.794783 106.430177 
L 314.880584 99.287526 
L 315.966385 97.186747 
L 317.052186 103.436566 
L 318.137987 96.477734 
L 319.223788 99.786462 
L 320.30959 98.132098 
L 321.395391 93.037707 
L 322.481192 101.151968 
L 323.566993 96.556513 
L 324.652794 97.843241 
L 325.738595 97.974539 
L 326.824396 91.645941 
L 328.995999 94.87589 
L 330.0818 90.437993 
L 331.167601 95.716201 
L 332.253402 95.085967 
L 333.339203 100.600514 
L 334.425005 95.374825 
L 335.510806 101.598384 
L 336.596607 99.313786 
L 337.682408 98.736072 
L 338.768209 90.595551 
L 339.85401 91.514642 
L 340.939811 91.330824 
L 342.025613 94.219396 
L 343.111414 90.648071 
L 344.197215 94.928409 
L 345.283016 92.932669 
L 346.368817 87.260564 
L 348.54042 88.521032 
L 349.626221 92.565032 
L 350.712022 85.054745 
L 351.797823 86.288953 
L 352.883624 90.464253 
L 353.969425 89.203785 
L 355.055227 86.997966 
L 356.141028 81.877316 
L 357.226829 87.6282 
L 358.31263 90.648071 
L 359.398431 87.838278 
L 360.484232 88.258434 
L 361.570033 84.923447 
L 362.655835 86.183914 
L 363.741636 85.684979 
L 364.827437 81.851057 
L 365.913238 84.923447 
L 366.999039 86.60407 
L 368.08484 85.107265 
L 369.170642 89.308824 
L 370.256443 82.376252 
L 371.342244 89.545162 
L 372.428045 83.400382 
L 373.513846 90.543032 
L 374.599647 87.601941 
L 375.685448 89.177525 
L 376.77125 96.792851 
L 377.857051 87.6282 
L 378.942852 87.076746 
L 380.028653 91.383344 
L 381.114454 88.494772 
L 382.200255 89.912798 
L 383.286057 84.923447 
L 384.371858 85.474901 
L 385.457659 82.53381 
L 386.54346 86.577811 
L 387.629261 85.868798 
L 388.715062 85.343603 
L 389.800863 88.993707 
L 390.886665 90.332954 
L 391.972466 85.63246 
L 393.058267 89.965317 
L 394.144068 90.254175 
L 395.229869 84.477031 
L 396.31567 86.341473 
L 397.401472 87.260564 
L 398.487273 87.969577 
L 398.487273 87.969577 
" clip-path="url(#p0e3df1dd2a)" style="fill: none; stroke: #2ca02c; stroke-width: 1.5; stroke-linecap: square"/>
   </g>
   <g id="line2d_21">
    <path d="M 368.08484 54.062996 
L 369.170642 54.101073 
L 370.256443 54.291456 
L 371.342244 54.215303 
L 372.428045 54.329533 
L 373.513846 54.824529 
L 374.599647 54.405686 
L 375.685448 54.557992 
L 376.77125 53.568 
L 377.857051 54.02492 
L 378.942852 55.129142 
L 380.028653 53.606077 
L 381.114454 54.367609 
L 382.200255 54.177226 
L 383.286057 54.177226 
L 384.371858 53.606077 
L 385.457659 53.720307 
L 386.54346 53.568 
L 387.629261 54.786452 
L 388.715062 54.786452 
L 389.800863 54.367609 
L 390.886665 54.329533 
L 391.972466 55.471831 
L 393.058267 54.215303 
L 394.144068 54.329533 
L 395.229869 54.672222 
L 396.31567 55.395678 
L 397.401472 54.062996 
L 398.487273 54.367609 
L 398.487273 54.367609 
" clip-path="url(#p0e3df1dd2a)" style="fill: none; stroke: #d62728; stroke-width: 1.5; stroke-linecap: square"/>
   </g>
   <g id="line2d_22">
    <path d="M 368.08484 85.895057 
L 369.170642 86.814148 
L 370.256443 84.60833 
L 371.342244 82.980226 
L 372.428045 82.822667 
L 373.513846 82.061135 
L 374.599647 84.319473 
L 375.685448 79.671498 
L 376.77125 82.822667 
L 377.857051 80.826927 
L 378.942852 79.697758 
L 380.028653 79.015004 
L 381.114454 82.53381 
L 382.200255 85.238564 
L 383.286057 84.58207 
L 384.371858 82.113654 
L 385.457659 79.067524 
L 386.54346 81.220823 
L 387.629261 84.004356 
L 388.715062 82.402511 
L 389.800863 83.899317 
L 390.886665 80.45929 
L 391.972466 82.455031 
L 393.058267 81.168303 
L 394.144068 81.982355 
L 395.229869 80.51181 
L 396.31567 80.695628 
L 397.401472 79.697758 
L 398.487273 82.770148 
L 398.487273 82.770148 
" clip-path="url(#p0e3df1dd2a)" style="fill: none; stroke: #9467bd; stroke-width: 1.5; stroke-linecap: square"/>
   </g>
   <g id="patch_3">
    <path d="M 57.6 307.584 
L 57.6 41.472 
" style="fill: none; stroke: #000000; stroke-width: 0.8; stroke-linejoin: miter; stroke-linecap: square"/>
   </g>
   <g id="patch_4">
    <path d="M 414.72 307.584 
L 414.72 41.472 
" style="fill: none; stroke: #000000; stroke-width: 0.8; stroke-linejoin: miter; stroke-linecap: square"/>
   </g>
   <g id="patch_5">
    <path d="M 57.6 307.584 
L 414.72 307.584 
" style="fill: none; stroke: #000000; stroke-width: 0.8; stroke-linejoin: miter; stroke-linecap: square"/>
   </g>
   <g id="patch_6">
    <path d="M 57.6 41.472 
L 414.72 41.472 
" style="fill: none; stroke: #000000; stroke-width: 0.8; stroke-linejoin: miter; stroke-linecap: square"/>
   </g>
   <g id="text_20">
    <!-- Learning Curves -->
    <g transform="translate(187.37625 35.472) scale(0.12 -0.12)">
     <defs>
      <path id="DejaVuSans-4c" d="M 628 4666 
L 1259 4666 
L 1259 531 
L 3531 531 
L 3531 0 
L 628 0 
L 628 4666 
z
" transform="scale(0.015625)"/>
      <path id="DejaVuSans-65" d="M 3597 1894 
L 3597 1613 
L 953 1613 
Q 991 1019 1311 708 
Q 1631 397 2203 397 
Q 2534 397 2845 478 
Q 3156 559 3463 722 
L 3463 178 
Q 3153 47 2828 -22 
Q 2503 -91 2169 -91 
Q 1331 -91 842 396 
Q 353 884 353 1716 
Q 353 2575 817 3079 
Q 1281 3584 2069 3584 
Q 2775 3584 3186 3129 
Q 3597 2675 3597 1894 
z
M 3022 2063 
Q 3016 2534 2758 2815 
Q 2500 3097 2075 3097 
Q 1594 3097 1305 2825 
Q 1016 2553 972 2059 
L 3022 2063 
z
" transform="scale(0.015625)"/>
      <path id="DejaVuSans-6e" d="M 3513 2113 
L 3513 0 
L 2938 0 
L 2938 2094 
Q 2938 2591 2744 2837 
Q 2550 3084 2163 3084 
Q 1697 3084 1428 2787 
Q 1159 2491 1159 1978 
L 1159 0 
L 581 0 
L 581 3500 
L 1159 3500 
L 1159 2956 
Q 1366 3272 1645 3428 
Q 1925 3584 2291 3584 
Q 2894 3584 3203 3211 
Q 3513 2838 3513 2113 
z
" transform="scale(0.015625)"/>
      <path id="DejaVuSans-69" d="M 603 3500 
L 1178 3500 
L 1178 0 
L 603 0 
L 603 3500 
z
M 603 4863 
L 1178 4863 
L 1178 4134 
L 603 4134 
L 603 4863 
z
" transform="scale(0.015625)"/>
      <path id="DejaVuSans-67" d="M 2906 1791 
Q 2906 2416 2648 2759 
Q 2391 3103 1925 3103 
Q 1463 3103 1205 2759 
Q 947 2416 947 1791 
Q 947 1169 1205 825 
Q 1463 481 1925 481 
Q 2391 481 2648 825 
Q 2906 1169 2906 1791 
z
M 3481 434 
Q 3481 -459 3084 -895 
Q 2688 -1331 1869 -1331 
Q 1566 -1331 1297 -1286 
Q 1028 -1241 775 -1147 
L 775 -588 
Q 1028 -725 1275 -790 
Q 1522 -856 1778 -856 
Q 2344 -856 2625 -561 
Q 2906 -266 2906 331 
L 2906 616 
Q 2728 306 2450 153 
Q 2172 0 1784 0 
Q 1141 0 747 490 
Q 353 981 353 1791 
Q 353 2603 747 3093 
Q 1141 3584 1784 3584 
Q 2172 3584 2450 3431 
Q 2728 3278 2906 2969 
L 2906 3500 
L 3481 3500 
L 3481 434 
z
" transform="scale(0.015625)"/>
      <path id="DejaVuSans-20" transform="scale(0.015625)"/>
      <path id="DejaVuSans-43" d="M 4122 4306 
L 4122 3641 
Q 3803 3938 3442 4084 
Q 3081 4231 2675 4231 
Q 1875 4231 1450 3742 
Q 1025 3253 1025 2328 
Q 1025 1406 1450 917 
Q 1875 428 2675 428 
Q 3081 428 3442 575 
Q 3803 722 4122 1019 
L 4122 359 
Q 3791 134 3420 21 
Q 3050 -91 2638 -91 
Q 1578 -91 968 557 
Q 359 1206 359 2328 
Q 359 3453 968 4101 
Q 1578 4750 2638 4750 
Q 3056 4750 3426 4639 
Q 3797 4528 4122 4306 
z
" transform="scale(0.015625)"/>
      <path id="DejaVuSans-76" d="M 191 3500 
L 800 3500 
L 1894 563 
L 2988 3500 
L 3597 3500 
L 2284 0 
L 1503 0 
L 191 3500 
z
" transform="scale(0.015625)"/>
     </defs>
     <use xlink:href="#DejaVuSans-4c"/>
     <use xlink:href="#DejaVuSans-65" x="53.962891"/>
     <use xlink:href="#DejaVuSans-61" x="115.486328"/>
     <use xlink:href="#DejaVuSans-72" x="176.765625"/>
     <use xlink:href="#DejaVuSans-6e" x="216.128906"/>
     <use xlink:href="#DejaVuSans-69" x="279.507812"/>
     <use xlink:href="#DejaVuSans-6e" x="307.291016"/>
     <use xlink:href="#DejaVuSans-67" x="370.669922"/>
     <use xlink:href="#DejaVuSans-20" x="434.146484"/>
     <use xlink:href="#DejaVuSans-43" x="465.933594"/>
     <use xlink:href="#DejaVuSans-75" x="535.757812"/>
     <use xlink:href="#DejaVuSans-72" x="599.136719"/>
     <use xlink:href="#DejaVuSans-76" x="640.25"/>
     <use xlink:href="#DejaVuSans-65" x="699.429688"/>
     <use xlink:href="#DejaVuSans-73" x="760.953125"/>
    </g>
   </g>
   <g id="legend_1">
    <g id="patch_7">
     <path d="M 214.18875 302.584 
L 407.72 302.584 
Q 409.72 302.584 409.72 300.584 
L 409.72 228.193375 
Q 409.72 226.193375 407.72 226.193375 
L 214.18875 226.193375 
Q 212.18875 226.193375 212.18875 228.193375 
L 212.18875 300.584 
Q 212.18875 302.584 214.18875 302.584 
z
" style="fill: #ffffff; opacity: 0.8; stroke: #cccccc; stroke-linejoin: miter"/>
    </g>
    <g id="line2d_23">
     <path d="M 216.18875 234.291812 
L 226.18875 234.291812 
L 236.18875 234.291812 
" style="fill: none; stroke: #1f77b4; stroke-width: 1.5; stroke-linecap: square"/>
    </g>
    <g id="text_21">
     <!-- Train Accuracy -->
     <g transform="translate(244.18875 237.791812) scale(0.1 -0.1)">
      <defs>
       <path id="DejaVuSans-54" d="M -19 4666 
L 3928 4666 
L 3928 4134 
L 2272 4134 
L 2272 0 
L 1638 0 
L 1638 4134 
L -19 4134 
L -19 4666 
z
" transform="scale(0.015625)"/>
      </defs>
      <use xlink:href="#DejaVuSans-54"/>
      <use xlink:href="#DejaVuSans-72" x="46.333984"/>
      <use xlink:href="#DejaVuSans-61" x="87.447266"/>
      <use xlink:href="#DejaVuSans-69" x="148.726562"/>
      <use xlink:href="#DejaVuSans-6e" x="176.509766"/>
      <use xlink:href="#DejaVuSans-20" x="239.888672"/>
      <use xlink:href="#DejaVuSans-41" x="271.675781"/>
      <use xlink:href="#DejaVuSans-63" x="338.333984"/>
      <use xlink:href="#DejaVuSans-63" x="393.314453"/>
      <use xlink:href="#DejaVuSans-75" x="448.294922"/>
      <use xlink:href="#DejaVuSans-72" x="511.673828"/>
      <use xlink:href="#DejaVuSans-61" x="552.787109"/>
      <use xlink:href="#DejaVuSans-63" x="614.066406"/>
      <use xlink:href="#DejaVuSans-79" x="669.046875"/>
     </g>
    </g>
    <g id="line2d_24">
     <path d="M 216.18875 248.969937 
L 226.18875 248.969937 
L 236.18875 248.969937 
" style="fill: none; stroke: #ff7f0e; stroke-width: 1.5; stroke-linecap: square"/>
    </g>
    <g id="text_22">
     <!-- Validation Accuracy -->
     <g transform="translate(244.18875 252.469937) scale(0.1 -0.1)">
      <defs>
       <path id="DejaVuSans-56" d="M 1831 0 
L 50 4666 
L 709 4666 
L 2188 738 
L 3669 4666 
L 4325 4666 
L 2547 0 
L 1831 0 
z
" transform="scale(0.015625)"/>
       <path id="DejaVuSans-6c" d="M 603 4863 
L 1178 4863 
L 1178 0 
L 603 0 
L 603 4863 
z
" transform="scale(0.015625)"/>
       <path id="DejaVuSans-64" d="M 2906 2969 
L 2906 4863 
L 3481 4863 
L 3481 0 
L 2906 0 
L 2906 525 
Q 2725 213 2448 61 
Q 2172 -91 1784 -91 
Q 1150 -91 751 415 
Q 353 922 353 1747 
Q 353 2572 751 3078 
Q 1150 3584 1784 3584 
Q 2172 3584 2448 3432 
Q 2725 3281 2906 2969 
z
M 947 1747 
Q 947 1113 1208 752 
Q 1469 391 1925 391 
Q 2381 391 2643 752 
Q 2906 1113 2906 1747 
Q 2906 2381 2643 2742 
Q 2381 3103 1925 3103 
Q 1469 3103 1208 2742 
Q 947 2381 947 1747 
z
" transform="scale(0.015625)"/>
       <path id="DejaVuSans-74" d="M 1172 4494 
L 1172 3500 
L 2356 3500 
L 2356 3053 
L 1172 3053 
L 1172 1153 
Q 1172 725 1289 603 
Q 1406 481 1766 481 
L 2356 481 
L 2356 0 
L 1766 0 
Q 1100 0 847 248 
Q 594 497 594 1153 
L 594 3053 
L 172 3053 
L 172 3500 
L 594 3500 
L 594 4494 
L 1172 4494 
z
" transform="scale(0.015625)"/>
      </defs>
      <use xlink:href="#DejaVuSans-56"/>
      <use xlink:href="#DejaVuSans-61" x="60.658203"/>
      <use xlink:href="#DejaVuSans-6c" x="121.9375"/>
      <use xlink:href="#DejaVuSans-69" x="149.720703"/>
      <use xlink:href="#DejaVuSans-64" x="177.503906"/>
      <use xlink:href="#DejaVuSans-61" x="240.980469"/>
      <use xlink:href="#DejaVuSans-74" x="302.259766"/>
      <use xlink:href="#DejaVuSans-69" x="341.46875"/>
      <use xlink:href="#DejaVuSans-6f" x="369.251953"/>
      <use xlink:href="#DejaVuSans-6e" x="430.433594"/>
      <use xlink:href="#DejaVuSans-20" x="493.8125"/>
      <use xlink:href="#DejaVuSans-41" x="525.599609"/>
      <use xlink:href="#DejaVuSans-63" x="592.257812"/>
      <use xlink:href="#DejaVuSans-63" x="647.238281"/>
      <use xlink:href="#DejaVuSans-75" x="702.21875"/>
      <use xlink:href="#DejaVuSans-72" x="765.597656"/>
      <use xlink:href="#DejaVuSans-61" x="806.710938"/>
      <use xlink:href="#DejaVuSans-63" x="867.990234"/>
      <use xlink:href="#DejaVuSans-79" x="922.970703"/>
     </g>
    </g>
    <g id="line2d_25">
     <path d="M 216.18875 263.648062 
L 226.18875 263.648062 
L 236.18875 263.648062 
" style="fill: none; stroke: #2ca02c; stroke-width: 1.5; stroke-linecap: square"/>
    </g>
    <g id="text_23">
     <!-- Robust Validation Accuracy -->
     <g transform="translate(244.18875 267.148062) scale(0.1 -0.1)">
      <defs>
       <path id="DejaVuSans-52" d="M 2841 2188 
Q 3044 2119 3236 1894 
Q 3428 1669 3622 1275 
L 4263 0 
L 3584 0 
L 2988 1197 
Q 2756 1666 2539 1819 
Q 2322 1972 1947 1972 
L 1259 1972 
L 1259 0 
L 628 0 
L 628 4666 
L 2053 4666 
Q 2853 4666 3247 4331 
Q 3641 3997 3641 3322 
Q 3641 2881 3436 2590 
Q 3231 2300 2841 2188 
z
M 1259 4147 
L 1259 2491 
L 2053 2491 
Q 2509 2491 2742 2702 
Q 2975 2913 2975 3322 
Q 2975 3731 2742 3939 
Q 2509 4147 2053 4147 
L 1259 4147 
z
" transform="scale(0.015625)"/>
       <path id="DejaVuSans-62" d="M 3116 1747 
Q 3116 2381 2855 2742 
Q 2594 3103 2138 3103 
Q 1681 3103 1420 2742 
Q 1159 2381 1159 1747 
Q 1159 1113 1420 752 
Q 1681 391 2138 391 
Q 2594 391 2855 752 
Q 3116 1113 3116 1747 
z
M 1159 2969 
Q 1341 3281 1617 3432 
Q 1894 3584 2278 3584 
Q 2916 3584 3314 3078 
Q 3713 2572 3713 1747 
Q 3713 922 3314 415 
Q 2916 -91 2278 -91 
Q 1894 -91 1617 61 
Q 1341 213 1159 525 
L 1159 0 
L 581 0 
L 581 4863 
L 1159 4863 
L 1159 2969 
z
" transform="scale(0.015625)"/>
      </defs>
      <use xlink:href="#DejaVuSans-52"/>
      <use xlink:href="#DejaVuSans-6f" x="64.982422"/>
      <use xlink:href="#DejaVuSans-62" x="126.164062"/>
      <use xlink:href="#DejaVuSans-75" x="189.640625"/>
      <use xlink:href="#DejaVuSans-73" x="253.019531"/>
      <use xlink:href="#DejaVuSans-74" x="305.119141"/>
      <use xlink:href="#DejaVuSans-20" x="344.328125"/>
      <use xlink:href="#DejaVuSans-56" x="376.115234"/>
      <use xlink:href="#DejaVuSans-61" x="436.773438"/>
      <use xlink:href="#DejaVuSans-6c" x="498.052734"/>
      <use xlink:href="#DejaVuSans-69" x="525.835938"/>
      <use xlink:href="#DejaVuSans-64" x="553.619141"/>
      <use xlink:href="#DejaVuSans-61" x="617.095703"/>
      <use xlink:href="#DejaVuSans-74" x="678.375"/>
      <use xlink:href="#DejaVuSans-69" x="717.583984"/>
      <use xlink:href="#DejaVuSans-6f" x="745.367188"/>
      <use xlink:href="#DejaVuSans-6e" x="806.548828"/>
      <use xlink:href="#DejaVuSans-20" x="869.927734"/>
      <use xlink:href="#DejaVuSans-41" x="901.714844"/>
      <use xlink:href="#DejaVuSans-63" x="968.373047"/>
      <use xlink:href="#DejaVuSans-63" x="1023.353516"/>
      <use xlink:href="#DejaVuSans-75" x="1078.333984"/>
      <use xlink:href="#DejaVuSans-72" x="1141.712891"/>
      <use xlink:href="#DejaVuSans-61" x="1182.826172"/>
      <use xlink:href="#DejaVuSans-63" x="1244.105469"/>
      <use xlink:href="#DejaVuSans-79" x="1299.085938"/>
     </g>
    </g>
    <g id="line2d_26">
     <path d="M 216.18875 278.326188 
L 226.18875 278.326188 
L 236.18875 278.326188 
" style="fill: none; stroke: #d62728; stroke-width: 1.5; stroke-linecap: square"/>
    </g>
    <g id="text_24">
     <!-- SWA Validation Accuracy -->
     <g transform="translate(244.18875 281.826188) scale(0.1 -0.1)">
      <defs>
       <path id="DejaVuSans-53" d="M 3425 4513 
L 3425 3897 
Q 3066 4069 2747 4153 
Q 2428 4238 2131 4238 
Q 1616 4238 1336 4038 
Q 1056 3838 1056 3469 
Q 1056 3159 1242 3001 
Q 1428 2844 1947 2747 
L 2328 2669 
Q 3034 2534 3370 2195 
Q 3706 1856 3706 1288 
Q 3706 609 3251 259 
Q 2797 -91 1919 -91 
Q 1588 -91 1214 -16 
Q 841 59 441 206 
L 441 856 
Q 825 641 1194 531 
Q 1563 422 1919 422 
Q 2459 422 2753 634 
Q 3047 847 3047 1241 
Q 3047 1584 2836 1778 
Q 2625 1972 2144 2069 
L 1759 2144 
Q 1053 2284 737 2584 
Q 422 2884 422 3419 
Q 422 4038 858 4394 
Q 1294 4750 2059 4750 
Q 2388 4750 2728 4690 
Q 3069 4631 3425 4513 
z
" transform="scale(0.015625)"/>
       <path id="DejaVuSans-57" d="M 213 4666 
L 850 4666 
L 1831 722 
L 2809 4666 
L 3519 4666 
L 4500 722 
L 5478 4666 
L 6119 4666 
L 4947 0 
L 4153 0 
L 3169 4050 
L 2175 0 
L 1381 0 
L 213 4666 
z
" transform="scale(0.015625)"/>
      </defs>
      <use xlink:href="#DejaVuSans-53"/>
      <use xlink:href="#DejaVuSans-57" x="63.476562"/>
      <use xlink:href="#DejaVuSans-41" x="156.853516"/>
      <use xlink:href="#DejaVuSans-20" x="225.261719"/>
      <use xlink:href="#DejaVuSans-56" x="257.048828"/>
      <use xlink:href="#DejaVuSans-61" x="317.707031"/>
      <use xlink:href="#DejaVuSans-6c" x="378.986328"/>
      <use xlink:href="#DejaVuSans-69" x="406.769531"/>
      <use xlink:href="#DejaVuSans-64" x="434.552734"/>
      <use xlink:href="#DejaVuSans-61" x="498.029297"/>
      <use xlink:href="#DejaVuSans-74" x="559.308594"/>
      <use xlink:href="#DejaVuSans-69" x="598.517578"/>
      <use xlink:href="#DejaVuSans-6f" x="626.300781"/>
      <use xlink:href="#DejaVuSans-6e" x="687.482422"/>
      <use xlink:href="#DejaVuSans-20" x="750.861328"/>
      <use xlink:href="#DejaVuSans-41" x="782.648438"/>
      <use xlink:href="#DejaVuSans-63" x="849.306641"/>
      <use xlink:href="#DejaVuSans-63" x="904.287109"/>
      <use xlink:href="#DejaVuSans-75" x="959.267578"/>
      <use xlink:href="#DejaVuSans-72" x="1022.646484"/>
      <use xlink:href="#DejaVuSans-61" x="1063.759766"/>
      <use xlink:href="#DejaVuSans-63" x="1125.039062"/>
      <use xlink:href="#DejaVuSans-79" x="1180.019531"/>
     </g>
    </g>
    <g id="line2d_27">
     <path d="M 216.18875 293.004312 
L 226.18875 293.004312 
L 236.18875 293.004312 
" style="fill: none; stroke: #9467bd; stroke-width: 1.5; stroke-linecap: square"/>
    </g>
    <g id="text_25">
     <!-- SWA Robust Validation Accuracy -->
     <g transform="translate(244.18875 296.504312) scale(0.1 -0.1)">
      <use xlink:href="#DejaVuSans-53"/>
      <use xlink:href="#DejaVuSans-57" x="63.476562"/>
      <use xlink:href="#DejaVuSans-41" x="156.853516"/>
      <use xlink:href="#DejaVuSans-20" x="225.261719"/>
      <use xlink:href="#DejaVuSans-52" x="257.048828"/>
      <use xlink:href="#DejaVuSans-6f" x="322.03125"/>
      <use xlink:href="#DejaVuSans-62" x="383.212891"/>
      <use xlink:href="#DejaVuSans-75" x="446.689453"/>
      <use xlink:href="#DejaVuSans-73" x="510.068359"/>
      <use xlink:href="#DejaVuSans-74" x="562.167969"/>
      <use xlink:href="#DejaVuSans-20" x="601.376953"/>
      <use xlink:href="#DejaVuSans-56" x="633.164062"/>
      <use xlink:href="#DejaVuSans-61" x="693.822266"/>
      <use xlink:href="#DejaVuSans-6c" x="755.101562"/>
      <use xlink:href="#DejaVuSans-69" x="782.884766"/>
      <use xlink:href="#DejaVuSans-64" x="810.667969"/>
      <use xlink:href="#DejaVuSans-61" x="874.144531"/>
      <use xlink:href="#DejaVuSans-74" x="935.423828"/>
      <use xlink:href="#DejaVuSans-69" x="974.632812"/>
      <use xlink:href="#DejaVuSans-6f" x="1002.416016"/>
      <use xlink:href="#DejaVuSans-6e" x="1063.597656"/>
      <use xlink:href="#DejaVuSans-20" x="1126.976562"/>
      <use xlink:href="#DejaVuSans-41" x="1158.763672"/>
      <use xlink:href="#DejaVuSans-63" x="1225.421875"/>
      <use xlink:href="#DejaVuSans-63" x="1280.402344"/>
      <use xlink:href="#DejaVuSans-75" x="1335.382812"/>
      <use xlink:href="#DejaVuSans-72" x="1398.761719"/>
      <use xlink:href="#DejaVuSans-61" x="1439.875"/>
      <use xlink:href="#DejaVuSans-63" x="1501.154297"/>
      <use xlink:href="#DejaVuSans-79" x="1556.134766"/>
     </g>
    </g>
   </g>
  </g>
 </g>
 <defs>
  <clipPath id="p0e3df1dd2a">
   <rect x="57.6" y="41.472" width="357.12" height="266.112"/>
  </clipPath>
 </defs>
</svg>
