<?xml version="1.0" encoding="utf-8" standalone="no"?>
<!DOCTYPE svg PUBLIC "-//W3C//DTD SVG 1.1//EN"
  "http://www.w3.org/Graphics/SVG/1.1/DTD/svg11.dtd">
<svg xmlns:xlink="http://www.w3.org/1999/xlink" width="460.8pt" height="345.6pt" viewBox="0 0 460.8 345.6" xmlns="http://www.w3.org/2000/svg" version="1.1">
 <metadata>
  <rdf:RDF xmlns:dc="http://purl.org/dc/elements/1.1/" xmlns:cc="http://creativecommons.org/ns#" xmlns:rdf="http://www.w3.org/1999/02/22-rdf-syntax-ns#">
   <cc:Work>
    <dc:type rdf:resource="http://purl.org/dc/dcmitype/StillImage"/>
    <dc:date>2025-07-12T06:41:58.700129</dc:date>
    <dc:format>image/svg+xml</dc:format>
    <dc:creator>
     <cc:Agent>
      <dc:title>Matplotlib v3.9.1, https://matplotlib.org/</dc:title>
     </cc:Agent>
    </dc:creator>
   </cc:Work>
  </rdf:RDF>
 </metadata>
 <defs>
  <style type="text/css">*{stroke-linejoin: round; stroke-linecap: butt}</style>
 </defs>
 <g id="figure_1">
  <g id="patch_1">
   <path d="M 0 345.6 
L 460.8 345.6 
L 460.8 0 
L 0 0 
z
" style="fill: #ffffff"/>
  </g>
  <g id="axes_1">
   <g id="patch_2">
    <path d="M 57.6 307.584 
L 414.72 307.584 
L 414.72 41.472 
L 57.6 41.472 
z
" style="fill: #ffffff"/>
   </g>
   <g id="matplotlib.axis_1">
    <g id="xtick_1">
     <g id="line2d_1">
      <defs>
       <path id="mb343fd1a13" d="M 0 0 
L 0 3.5 
" style="stroke: #000000; stroke-width: 0.8"/>
      </defs>
      <g>
       <use xlink:href="#mb343fd1a13" x="73.832727" y="307.584" style="stroke: #000000; stroke-width: 0.8"/>
      </g>
     </g>
     <g id="text_1">
      <!-- 1 -->
      <g transform="translate(70.651477 322.182437) scale(0.1 -0.1)">
       <defs>
        <path id="DejaVuSans-31" d="M 794 531 
L 1825 531 
L 1825 4091 
L 703 3866 
L 703 4441 
L 1819 4666 
L 2450 4666 
L 2450 531 
L 3481 531 
L 3481 0 
L 794 0 
L 794 531 
z
" transform="scale(0.015625)"/>
       </defs>
       <use xlink:href="#DejaVuSans-31"/>
      </g>
     </g>
    </g>
    <g id="xtick_2">
     <g id="line2d_2">
      <g>
       <use xlink:href="#mb343fd1a13" x="109.664165" y="307.584" style="stroke: #000000; stroke-width: 0.8"/>
      </g>
     </g>
     <g id="text_2">
      <!-- 34 -->
      <g transform="translate(103.301665 322.182437) scale(0.1 -0.1)">
       <defs>
        <path id="DejaVuSans-33" d="M 2597 2516 
Q 3050 2419 3304 2112 
Q 3559 1806 3559 1356 
Q 3559 666 3084 287 
Q 2609 -91 1734 -91 
Q 1441 -91 1130 -33 
Q 819 25 488 141 
L 488 750 
Q 750 597 1062 519 
Q 1375 441 1716 441 
Q 2309 441 2620 675 
Q 2931 909 2931 1356 
Q 2931 1769 2642 2001 
Q 2353 2234 1838 2234 
L 1294 2234 
L 1294 2753 
L 1863 2753 
Q 2328 2753 2575 2939 
Q 2822 3125 2822 3475 
Q 2822 3834 2567 4026 
Q 2313 4219 1838 4219 
Q 1578 4219 1281 4162 
Q 984 4106 628 3988 
L 628 4550 
Q 988 4650 1302 4700 
Q 1616 4750 1894 4750 
Q 2613 4750 3031 4423 
Q 3450 4097 3450 3541 
Q 3450 3153 3228 2886 
Q 3006 2619 2597 2516 
z
" transform="scale(0.015625)"/>
        <path id="DejaVuSans-34" d="M 2419 4116 
L 825 1625 
L 2419 1625 
L 2419 4116 
z
M 2253 4666 
L 3047 4666 
L 3047 1625 
L 3713 1625 
L 3713 1100 
L 3047 1100 
L 3047 0 
L 2419 0 
L 2419 1100 
L 313 1100 
L 313 1709 
L 2253 4666 
z
" transform="scale(0.015625)"/>
       </defs>
       <use xlink:href="#DejaVuSans-33"/>
       <use xlink:href="#DejaVuSans-34" x="63.623047"/>
      </g>
     </g>
    </g>
    <g id="xtick_3">
     <g id="line2d_3">
      <g>
       <use xlink:href="#mb343fd1a13" x="145.495604" y="307.584" style="stroke: #000000; stroke-width: 0.8"/>
      </g>
     </g>
     <g id="text_3">
      <!-- 67 -->
      <g transform="translate(139.133104 322.182437) scale(0.1 -0.1)">
       <defs>
        <path id="DejaVuSans-36" d="M 2113 2584 
Q 1688 2584 1439 2293 
Q 1191 2003 1191 1497 
Q 1191 994 1439 701 
Q 1688 409 2113 409 
Q 2538 409 2786 701 
Q 3034 994 3034 1497 
Q 3034 2003 2786 2293 
Q 2538 2584 2113 2584 
z
M 3366 4563 
L 3366 3988 
Q 3128 4100 2886 4159 
Q 2644 4219 2406 4219 
Q 1781 4219 1451 3797 
Q 1122 3375 1075 2522 
Q 1259 2794 1537 2939 
Q 1816 3084 2150 3084 
Q 2853 3084 3261 2657 
Q 3669 2231 3669 1497 
Q 3669 778 3244 343 
Q 2819 -91 2113 -91 
Q 1303 -91 875 529 
Q 447 1150 447 2328 
Q 447 3434 972 4092 
Q 1497 4750 2381 4750 
Q 2619 4750 2861 4703 
Q 3103 4656 3366 4563 
z
" transform="scale(0.015625)"/>
        <path id="DejaVuSans-37" d="M 525 4666 
L 3525 4666 
L 3525 4397 
L 1831 0 
L 1172 0 
L 2766 4134 
L 525 4134 
L 525 4666 
z
" transform="scale(0.015625)"/>
       </defs>
       <use xlink:href="#DejaVuSans-36"/>
       <use xlink:href="#DejaVuSans-37" x="63.623047"/>
      </g>
     </g>
    </g>
    <g id="xtick_4">
     <g id="line2d_4">
      <g>
       <use xlink:href="#mb343fd1a13" x="181.327042" y="307.584" style="stroke: #000000; stroke-width: 0.8"/>
      </g>
     </g>
     <g id="text_4">
      <!-- 100 -->
      <g transform="translate(171.783292 322.182437) scale(0.1 -0.1)">
       <defs>
        <path id="DejaVuSans-30" d="M 2034 4250 
Q 1547 4250 1301 3770 
Q 1056 3291 1056 2328 
Q 1056 1369 1301 889 
Q 1547 409 2034 409 
Q 2525 409 2770 889 
Q 3016 1369 3016 2328 
Q 3016 3291 2770 3770 
Q 2525 4250 2034 4250 
z
M 2034 4750 
Q 2819 4750 3233 4129 
Q 3647 3509 3647 2328 
Q 3647 1150 3233 529 
Q 2819 -91 2034 -91 
Q 1250 -91 836 529 
Q 422 1150 422 2328 
Q 422 3509 836 4129 
Q 1250 4750 2034 4750 
z
" transform="scale(0.015625)"/>
       </defs>
       <use xlink:href="#DejaVuSans-31"/>
       <use xlink:href="#DejaVuSans-30" x="63.623047"/>
       <use xlink:href="#DejaVuSans-30" x="127.246094"/>
      </g>
     </g>
    </g>
    <g id="xtick_5">
     <g id="line2d_5">
      <g>
       <use xlink:href="#mb343fd1a13" x="217.15848" y="307.584" style="stroke: #000000; stroke-width: 0.8"/>
      </g>
     </g>
     <g id="text_5">
      <!-- 133 -->
      <g transform="translate(207.61473 322.182437) scale(0.1 -0.1)">
       <use xlink:href="#DejaVuSans-31"/>
       <use xlink:href="#DejaVuSans-33" x="63.623047"/>
       <use xlink:href="#DejaVuSans-33" x="127.246094"/>
      </g>
     </g>
    </g>
    <g id="xtick_6">
     <g id="line2d_6">
      <g>
       <use xlink:href="#mb343fd1a13" x="254.075719" y="307.584" style="stroke: #000000; stroke-width: 0.8"/>
      </g>
     </g>
     <g id="text_6">
      <!-- 167 -->
      <g transform="translate(244.531969 322.182437) scale(0.1 -0.1)">
       <use xlink:href="#DejaVuSans-31"/>
       <use xlink:href="#DejaVuSans-36" x="63.623047"/>
       <use xlink:href="#DejaVuSans-37" x="127.246094"/>
      </g>
     </g>
    </g>
    <g id="xtick_7">
     <g id="line2d_7">
      <g>
       <use xlink:href="#mb343fd1a13" x="289.907157" y="307.584" style="stroke: #000000; stroke-width: 0.8"/>
      </g>
     </g>
     <g id="text_7">
      <!-- 200 -->
      <g transform="translate(280.363407 322.182437) scale(0.1 -0.1)">
       <defs>
        <path id="DejaVuSans-32" d="M 1228 531 
L 3431 531 
L 3431 0 
L 469 0 
L 469 531 
Q 828 903 1448 1529 
Q 2069 2156 2228 2338 
Q 2531 2678 2651 2914 
Q 2772 3150 2772 3378 
Q 2772 3750 2511 3984 
Q 2250 4219 1831 4219 
Q 1534 4219 1204 4116 
Q 875 4013 500 3803 
L 500 4441 
Q 881 4594 1212 4672 
Q 1544 4750 1819 4750 
Q 2544 4750 2975 4387 
Q 3406 4025 3406 3419 
Q 3406 3131 3298 2873 
Q 3191 2616 2906 2266 
Q 2828 2175 2409 1742 
Q 1991 1309 1228 531 
z
" transform="scale(0.015625)"/>
       </defs>
       <use xlink:href="#DejaVuSans-32"/>
       <use xlink:href="#DejaVuSans-30" x="63.623047"/>
       <use xlink:href="#DejaVuSans-30" x="127.246094"/>
      </g>
     </g>
    </g>
    <g id="xtick_8">
     <g id="line2d_8">
      <g>
       <use xlink:href="#mb343fd1a13" x="325.738595" y="307.584" style="stroke: #000000; stroke-width: 0.8"/>
      </g>
     </g>
     <g id="text_8">
      <!-- 233 -->
      <g transform="translate(316.194845 322.182437) scale(0.1 -0.1)">
       <use xlink:href="#DejaVuSans-32"/>
       <use xlink:href="#DejaVuSans-33" x="63.623047"/>
       <use xlink:href="#DejaVuSans-33" x="127.246094"/>
      </g>
     </g>
    </g>
    <g id="xtick_9">
     <g id="line2d_9">
      <g>
       <use xlink:href="#mb343fd1a13" x="361.570033" y="307.584" style="stroke: #000000; stroke-width: 0.8"/>
      </g>
     </g>
     <g id="text_9">
      <!-- 266 -->
      <g transform="translate(352.026283 322.182437) scale(0.1 -0.1)">
       <use xlink:href="#DejaVuSans-32"/>
       <use xlink:href="#DejaVuSans-36" x="63.623047"/>
       <use xlink:href="#DejaVuSans-36" x="127.246094"/>
      </g>
     </g>
    </g>
    <g id="xtick_10">
     <g id="line2d_10">
      <g>
       <use xlink:href="#mb343fd1a13" x="398.487273" y="307.584" style="stroke: #000000; stroke-width: 0.8"/>
      </g>
     </g>
     <g id="text_10">
      <!-- 300 -->
      <g transform="translate(388.943523 322.182437) scale(0.1 -0.1)">
       <use xlink:href="#DejaVuSans-33"/>
       <use xlink:href="#DejaVuSans-30" x="63.623047"/>
       <use xlink:href="#DejaVuSans-30" x="127.246094"/>
      </g>
     </g>
    </g>
    <g id="text_11">
     <!-- Epochs -->
     <g transform="translate(218.244375 335.860562) scale(0.1 -0.1)">
      <defs>
       <path id="DejaVuSans-45" d="M 628 4666 
L 3578 4666 
L 3578 4134 
L 1259 4134 
L 1259 2753 
L 3481 2753 
L 3481 2222 
L 1259 2222 
L 1259 531 
L 3634 531 
L 3634 0 
L 628 0 
L 628 4666 
z
" transform="scale(0.015625)"/>
       <path id="DejaVuSans-70" d="M 1159 525 
L 1159 -1331 
L 581 -1331 
L 581 3500 
L 1159 3500 
L 1159 2969 
Q 1341 3281 1617 3432 
Q 1894 3584 2278 3584 
Q 2916 3584 3314 3078 
Q 3713 2572 3713 1747 
Q 3713 922 3314 415 
Q 2916 -91 2278 -91 
Q 1894 -91 1617 61 
Q 1341 213 1159 525 
z
M 3116 1747 
Q 3116 2381 2855 2742 
Q 2594 3103 2138 3103 
Q 1681 3103 1420 2742 
Q 1159 2381 1159 1747 
Q 1159 1113 1420 752 
Q 1681 391 2138 391 
Q 2594 391 2855 752 
Q 3116 1113 3116 1747 
z
" transform="scale(0.015625)"/>
       <path id="DejaVuSans-6f" d="M 1959 3097 
Q 1497 3097 1228 2736 
Q 959 2375 959 1747 
Q 959 1119 1226 758 
Q 1494 397 1959 397 
Q 2419 397 2687 759 
Q 2956 1122 2956 1747 
Q 2956 2369 2687 2733 
Q 2419 3097 1959 3097 
z
M 1959 3584 
Q 2709 3584 3137 3096 
Q 3566 2609 3566 1747 
Q 3566 888 3137 398 
Q 2709 -91 1959 -91 
Q 1206 -91 779 398 
Q 353 888 353 1747 
Q 353 2609 779 3096 
Q 1206 3584 1959 3584 
z
" transform="scale(0.015625)"/>
       <path id="DejaVuSans-63" d="M 3122 3366 
L 3122 2828 
Q 2878 2963 2633 3030 
Q 2388 3097 2138 3097 
Q 1578 3097 1268 2742 
Q 959 2388 959 1747 
Q 959 1106 1268 751 
Q 1578 397 2138 397 
Q 2388 397 2633 464 
Q 2878 531 3122 666 
L 3122 134 
Q 2881 22 2623 -34 
Q 2366 -91 2075 -91 
Q 1284 -91 818 406 
Q 353 903 353 1747 
Q 353 2603 823 3093 
Q 1294 3584 2113 3584 
Q 2378 3584 2631 3529 
Q 2884 3475 3122 3366 
z
" transform="scale(0.015625)"/>
       <path id="DejaVuSans-68" d="M 3513 2113 
L 3513 0 
L 2938 0 
L 2938 2094 
Q 2938 2591 2744 2837 
Q 2550 3084 2163 3084 
Q 1697 3084 1428 2787 
Q 1159 2491 1159 1978 
L 1159 0 
L 581 0 
L 581 4863 
L 1159 4863 
L 1159 2956 
Q 1366 3272 1645 3428 
Q 1925 3584 2291 3584 
Q 2894 3584 3203 3211 
Q 3513 2838 3513 2113 
z
" transform="scale(0.015625)"/>
       <path id="DejaVuSans-73" d="M 2834 3397 
L 2834 2853 
Q 2591 2978 2328 3040 
Q 2066 3103 1784 3103 
Q 1356 3103 1142 2972 
Q 928 2841 928 2578 
Q 928 2378 1081 2264 
Q 1234 2150 1697 2047 
L 1894 2003 
Q 2506 1872 2764 1633 
Q 3022 1394 3022 966 
Q 3022 478 2636 193 
Q 2250 -91 1575 -91 
Q 1294 -91 989 -36 
Q 684 19 347 128 
L 347 722 
Q 666 556 975 473 
Q 1284 391 1588 391 
Q 1994 391 2212 530 
Q 2431 669 2431 922 
Q 2431 1156 2273 1281 
Q 2116 1406 1581 1522 
L 1381 1569 
Q 847 1681 609 1914 
Q 372 2147 372 2553 
Q 372 3047 722 3315 
Q 1072 3584 1716 3584 
Q 2034 3584 2315 3537 
Q 2597 3491 2834 3397 
z
" transform="scale(0.015625)"/>
      </defs>
      <use xlink:href="#DejaVuSans-45"/>
      <use xlink:href="#DejaVuSans-70" x="63.183594"/>
      <use xlink:href="#DejaVuSans-6f" x="126.660156"/>
      <use xlink:href="#DejaVuSans-63" x="187.841797"/>
      <use xlink:href="#DejaVuSans-68" x="242.822266"/>
      <use xlink:href="#DejaVuSans-73" x="306.201172"/>
     </g>
    </g>
   </g>
   <g id="matplotlib.axis_2">
    <g id="ytick_1">
     <g id="line2d_11">
      <defs>
       <path id="mea78d473e1" d="M 0 0 
L -3.5 0 
" style="stroke: #000000; stroke-width: 0.8"/>
      </defs>
      <g>
       <use xlink:href="#mea78d473e1" x="57.6" y="295.751916" style="stroke: #000000; stroke-width: 0.8"/>
      </g>
     </g>
     <g id="text_12">
      <!-- 30 -->
      <g transform="translate(37.875 299.551135) scale(0.1 -0.1)">
       <use xlink:href="#DejaVuSans-33"/>
       <use xlink:href="#DejaVuSans-30" x="63.623047"/>
      </g>
     </g>
    </g>
    <g id="ytick_2">
     <g id="line2d_12">
      <g>
       <use xlink:href="#mea78d473e1" x="57.6" y="259.349704" style="stroke: #000000; stroke-width: 0.8"/>
      </g>
     </g>
     <g id="text_13">
      <!-- 40 -->
      <g transform="translate(37.875 263.148923) scale(0.1 -0.1)">
       <use xlink:href="#DejaVuSans-34"/>
       <use xlink:href="#DejaVuSans-30" x="63.623047"/>
      </g>
     </g>
    </g>
    <g id="ytick_3">
     <g id="line2d_13">
      <g>
       <use xlink:href="#mea78d473e1" x="57.6" y="222.947492" style="stroke: #000000; stroke-width: 0.8"/>
      </g>
     </g>
     <g id="text_14">
      <!-- 50 -->
      <g transform="translate(37.875 226.746711) scale(0.1 -0.1)">
       <defs>
        <path id="DejaVuSans-35" d="M 691 4666 
L 3169 4666 
L 3169 4134 
L 1269 4134 
L 1269 2991 
Q 1406 3038 1543 3061 
Q 1681 3084 1819 3084 
Q 2600 3084 3056 2656 
Q 3513 2228 3513 1497 
Q 3513 744 3044 326 
Q 2575 -91 1722 -91 
Q 1428 -91 1123 -41 
Q 819 9 494 109 
L 494 744 
Q 775 591 1075 516 
Q 1375 441 1709 441 
Q 2250 441 2565 725 
Q 2881 1009 2881 1497 
Q 2881 1984 2565 2268 
Q 2250 2553 1709 2553 
Q 1456 2553 1204 2497 
Q 953 2441 691 2322 
L 691 4666 
z
" transform="scale(0.015625)"/>
       </defs>
       <use xlink:href="#DejaVuSans-35"/>
       <use xlink:href="#DejaVuSans-30" x="63.623047"/>
      </g>
     </g>
    </g>
    <g id="ytick_4">
     <g id="line2d_14">
      <g>
       <use xlink:href="#mea78d473e1" x="57.6" y="186.54528" style="stroke: #000000; stroke-width: 0.8"/>
      </g>
     </g>
     <g id="text_15">
      <!-- 60 -->
      <g transform="translate(37.875 190.344499) scale(0.1 -0.1)">
       <use xlink:href="#DejaVuSans-36"/>
       <use xlink:href="#DejaVuSans-30" x="63.623047"/>
      </g>
     </g>
    </g>
    <g id="ytick_5">
     <g id="line2d_15">
      <g>
       <use xlink:href="#mea78d473e1" x="57.6" y="150.143068" style="stroke: #000000; stroke-width: 0.8"/>
      </g>
     </g>
     <g id="text_16">
      <!-- 70 -->
      <g transform="translate(37.875 153.942287) scale(0.1 -0.1)">
       <use xlink:href="#DejaVuSans-37"/>
       <use xlink:href="#DejaVuSans-30" x="63.623047"/>
      </g>
     </g>
    </g>
    <g id="ytick_6">
     <g id="line2d_16">
      <g>
       <use xlink:href="#mea78d473e1" x="57.6" y="113.740856" style="stroke: #000000; stroke-width: 0.8"/>
      </g>
     </g>
     <g id="text_17">
      <!-- 80 -->
      <g transform="translate(37.875 117.540075) scale(0.1 -0.1)">
       <defs>
        <path id="DejaVuSans-38" d="M 2034 2216 
Q 1584 2216 1326 1975 
Q 1069 1734 1069 1313 
Q 1069 891 1326 650 
Q 1584 409 2034 409 
Q 2484 409 2743 651 
Q 3003 894 3003 1313 
Q 3003 1734 2745 1975 
Q 2488 2216 2034 2216 
z
M 1403 2484 
Q 997 2584 770 2862 
Q 544 3141 544 3541 
Q 544 4100 942 4425 
Q 1341 4750 2034 4750 
Q 2731 4750 3128 4425 
Q 3525 4100 3525 3541 
Q 3525 3141 3298 2862 
Q 3072 2584 2669 2484 
Q 3125 2378 3379 2068 
Q 3634 1759 3634 1313 
Q 3634 634 3220 271 
Q 2806 -91 2034 -91 
Q 1263 -91 848 271 
Q 434 634 434 1313 
Q 434 1759 690 2068 
Q 947 2378 1403 2484 
z
M 1172 3481 
Q 1172 3119 1398 2916 
Q 1625 2713 2034 2713 
Q 2441 2713 2670 2916 
Q 2900 3119 2900 3481 
Q 2900 3844 2670 4047 
Q 2441 4250 2034 4250 
Q 1625 4250 1398 4047 
Q 1172 3844 1172 3481 
z
" transform="scale(0.015625)"/>
       </defs>
       <use xlink:href="#DejaVuSans-38"/>
       <use xlink:href="#DejaVuSans-30" x="63.623047"/>
      </g>
     </g>
    </g>
    <g id="ytick_7">
     <g id="line2d_17">
      <g>
       <use xlink:href="#mea78d473e1" x="57.6" y="77.338644" style="stroke: #000000; stroke-width: 0.8"/>
      </g>
     </g>
     <g id="text_18">
      <!-- 90 -->
      <g transform="translate(37.875 81.137863) scale(0.1 -0.1)">
       <defs>
        <path id="DejaVuSans-39" d="M 703 97 
L 703 672 
Q 941 559 1184 500 
Q 1428 441 1663 441 
Q 2288 441 2617 861 
Q 2947 1281 2994 2138 
Q 2813 1869 2534 1725 
Q 2256 1581 1919 1581 
Q 1219 1581 811 2004 
Q 403 2428 403 3163 
Q 403 3881 828 4315 
Q 1253 4750 1959 4750 
Q 2769 4750 3195 4129 
Q 3622 3509 3622 2328 
Q 3622 1225 3098 567 
Q 2575 -91 1691 -91 
Q 1453 -91 1209 -44 
Q 966 3 703 97 
z
M 1959 2075 
Q 2384 2075 2632 2365 
Q 2881 2656 2881 3163 
Q 2881 3666 2632 3958 
Q 2384 4250 1959 4250 
Q 1534 4250 1286 3958 
Q 1038 3666 1038 3163 
Q 1038 2656 1286 2365 
Q 1534 2075 1959 2075 
z
" transform="scale(0.015625)"/>
       </defs>
       <use xlink:href="#DejaVuSans-39"/>
       <use xlink:href="#DejaVuSans-30" x="63.623047"/>
      </g>
     </g>
    </g>
    <g id="text_19">
     <!-- Accuracy -->
     <g transform="translate(31.795312 197.356125) rotate(-90) scale(0.1 -0.1)">
      <defs>
       <path id="DejaVuSans-41" d="M 2188 4044 
L 1331 1722 
L 3047 1722 
L 2188 4044 
z
M 1831 4666 
L 2547 4666 
L 4325 0 
L 3669 0 
L 3244 1197 
L 1141 1197 
L 716 0 
L 50 0 
L 1831 4666 
z
" transform="scale(0.015625)"/>
       <path id="DejaVuSans-75" d="M 544 1381 
L 544 3500 
L 1119 3500 
L 1119 1403 
Q 1119 906 1312 657 
Q 1506 409 1894 409 
Q 2359 409 2629 706 
Q 2900 1003 2900 1516 
L 2900 3500 
L 3475 3500 
L 3475 0 
L 2900 0 
L 2900 538 
Q 2691 219 2414 64 
Q 2138 -91 1772 -91 
Q 1169 -91 856 284 
Q 544 659 544 1381 
z
M 1991 3584 
L 1991 3584 
z
" transform="scale(0.015625)"/>
       <path id="DejaVuSans-72" d="M 2631 2963 
Q 2534 3019 2420 3045 
Q 2306 3072 2169 3072 
Q 1681 3072 1420 2755 
Q 1159 2438 1159 1844 
L 1159 0 
L 581 0 
L 581 3500 
L 1159 3500 
L 1159 2956 
Q 1341 3275 1631 3429 
Q 1922 3584 2338 3584 
Q 2397 3584 2469 3576 
Q 2541 3569 2628 3553 
L 2631 2963 
z
" transform="scale(0.015625)"/>
       <path id="DejaVuSans-61" d="M 2194 1759 
Q 1497 1759 1228 1600 
Q 959 1441 959 1056 
Q 959 750 1161 570 
Q 1363 391 1709 391 
Q 2188 391 2477 730 
Q 2766 1069 2766 1631 
L 2766 1759 
L 2194 1759 
z
M 3341 1997 
L 3341 0 
L 2766 0 
L 2766 531 
Q 2569 213 2275 61 
Q 1981 -91 1556 -91 
Q 1019 -91 701 211 
Q 384 513 384 1019 
Q 384 1609 779 1909 
Q 1175 2209 1959 2209 
L 2766 2209 
L 2766 2266 
Q 2766 2663 2505 2880 
Q 2244 3097 1772 3097 
Q 1472 3097 1187 3025 
Q 903 2953 641 2809 
L 641 3341 
Q 956 3463 1253 3523 
Q 1550 3584 1831 3584 
Q 2591 3584 2966 3190 
Q 3341 2797 3341 1997 
z
" transform="scale(0.015625)"/>
       <path id="DejaVuSans-79" d="M 2059 -325 
Q 1816 -950 1584 -1140 
Q 1353 -1331 966 -1331 
L 506 -1331 
L 506 -850 
L 844 -850 
Q 1081 -850 1212 -737 
Q 1344 -625 1503 -206 
L 1606 56 
L 191 3500 
L 800 3500 
L 1894 763 
L 2988 3500 
L 3597 3500 
L 2059 -325 
z
" transform="scale(0.015625)"/>
      </defs>
      <use xlink:href="#DejaVuSans-41"/>
      <use xlink:href="#DejaVuSans-63" x="66.658203"/>
      <use xlink:href="#DejaVuSans-63" x="121.638672"/>
      <use xlink:href="#DejaVuSans-75" x="176.619141"/>
      <use xlink:href="#DejaVuSans-72" x="239.998047"/>
      <use xlink:href="#DejaVuSans-61" x="281.111328"/>
      <use xlink:href="#DejaVuSans-63" x="342.390625"/>
      <use xlink:href="#DejaVuSans-79" x="397.371094"/>
     </g>
    </g>
   </g>
   <g id="line2d_18">
    <path d="M 73.832727 295.488 
L 74.918528 233.240218 
L 76.00433 203.872733 
L 77.090131 183.815114 
L 78.175932 171.119843 
L 79.261733 164.385434 
L 80.347534 156.304143 
L 81.433335 149.360421 
L 82.519137 144.118502 
L 83.604938 140.723996 
L 85.77654 131.25032 
L 86.862341 128.574758 
L 87.948142 124.015381 
L 89.033943 121.995058 
L 90.119745 117.481184 
L 91.205546 115.224246 
L 92.291347 112.430377 
L 93.377148 112.084556 
L 94.462949 111.356511 
L 95.54875 136.737954 
L 96.634552 137.902825 
L 97.720353 136.255624 
L 98.806154 133.024928 
L 99.891955 128.993383 
L 100.977756 127.173273 
L 102.063557 126.263217 
L 103.149358 125.025542 
L 104.23516 122.222572 
L 105.320961 121.385321 
L 106.406762 121.0395 
L 107.492563 118.90087 
L 108.578364 117.644994 
L 109.664165 114.741917 
L 110.749967 114.068476 
L 111.835768 111.283707 
L 115.093171 109.481798 
L 116.178972 106.660626 
L 117.264773 105.350146 
L 118.350575 104.804113 
L 119.436376 103.193315 
L 120.522177 102.720087 
L 121.607978 100.617859 
L 122.693779 100.909077 
L 123.77958 98.406425 
L 124.865382 98.215313 
L 127.036984 94.948214 
L 128.122785 94.611494 
L 129.208586 92.982495 
L 130.294387 92.864188 
L 131.380189 91.735719 
L 132.46599 91.08958 
L 133.551791 89.988413 
L 134.637592 89.669894 
L 135.723393 89.569788 
L 136.809194 88.414017 
L 137.894995 89.105659 
L 138.980797 112.029952 
L 140.066598 114.141281 
L 141.152399 112.839902 
L 142.2382 112.066355 
L 143.324001 112.002651 
L 144.409802 112.940008 
L 145.495604 112.139159 
L 146.581405 110.228043 
L 147.667206 110.273546 
L 148.753007 109.754814 
L 149.838808 108.608144 
L 150.924609 108.36243 
L 152.01041 107.925603 
L 153.096212 105.950783 
L 154.182013 105.677766 
L 155.267814 106.478615 
L 156.353615 105.659565 
L 157.439416 105.759671 
L 158.525217 104.958823 
L 159.611019 103.220617 
L 160.69682 102.28326 
L 161.782621 102.301461 
L 162.868422 102.801992 
L 163.954223 100.745267 
L 165.040024 100.945479 
L 166.125825 100.663362 
L 167.211627 100.672462 
L 168.297428 100.526853 
L 169.383229 98.916056 
L 170.46903 99.225474 
L 171.554831 96.923034 
L 172.640632 97.496369 
L 173.726434 97.305258 
L 174.812235 97.487269 
L 175.898036 95.102924 
L 176.983837 95.03922 
L 178.069638 94.829907 
L 179.155439 94.848108 
L 180.24124 94.229271 
L 181.327042 94.129165 
L 182.412843 93.856148 
L 183.498644 92.764082 
L 185.670246 91.189686 
L 186.756047 91.307993 
L 187.841849 90.461642 
L 188.92765 90.452541 
L 190.013451 89.196665 
L 191.099252 88.195604 
L 192.185053 88.62333 
L 193.270854 87.79518 
L 194.356656 88.386716 
L 195.442457 87.267348 
L 196.528258 86.903326 
L 197.614059 84.8375 
L 198.69986 85.956868 
L 199.785661 84.992209 
L 200.871462 84.546282 
L 201.957264 82.935484 
L 203.043065 82.726172 
L 204.128866 83.254004 
L 205.214667 83.436015 
L 207.386269 80.71495 
L 208.472071 81.179078 
L 209.557872 80.132514 
L 210.643673 79.459073 
L 211.729474 80.414631 
L 212.815275 79.777593 
L 213.901076 79.713889 
L 214.986877 79.449973 
L 216.072679 78.612722 
L 217.15848 78.339705 
L 218.244281 78.694627 
L 219.330082 77.784571 
L 220.415883 78.112191 
L 221.501684 78.90394 
L 222.587486 77.129332 
L 223.673287 77.729968 
L 224.759088 79.222459 
L 225.844889 99.361983 
L 226.93069 102.073947 
L 228.016491 103.11141 
L 229.102292 103.193315 
L 230.188094 102.365165 
L 231.273895 103.020405 
L 232.359696 101.673523 
L 233.445497 100.790769 
L 234.531298 101.473311 
L 235.617099 99.744206 
L 236.702901 100.281138 
L 237.788702 100.47225 
L 238.874503 99.125368 
L 239.960304 98.906955 
L 241.046105 99.753306 
L 242.131906 98.49743 
L 243.217708 98.215313 
L 244.303509 97.742084 
L 245.38931 99.189072 
L 246.475111 97.077744 
L 247.560912 97.905894 
L 248.646713 97.450866 
L 249.732514 98.360922 
L 250.818316 97.004939 
L 251.904117 96.804727 
L 252.989918 96.886632 
L 254.075719 97.614676 
L 255.16152 95.812767 
L 256.247321 96.040281 
L 257.333123 97.259755 
L 258.418924 96.531711 
L 261.676327 95.157527 
L 263.847929 95.503348 
L 264.933731 95.021019 
L 266.019532 95.303136 
L 268.191134 94.165567 
L 269.276935 94.138265 
L 270.362736 94.438583 
L 271.448538 93.410221 
L 272.534339 93.246411 
L 273.62014 92.381858 
L 274.705941 93.801545 
L 275.791742 92.545668 
L 276.877543 92.591171 
L 277.963344 90.680055 
L 279.049146 91.990535 
L 280.134947 91.954132 
L 281.220748 90.989474 
L 282.306549 92.263551 
L 283.39235 90.043016 
L 284.478151 91.817624 
L 285.563953 91.398999 
L 286.649754 90.27053 
L 287.735555 91.053178 
L 288.821356 89.351374 
L 289.907157 90.552647 
L 292.07876 88.514123 
L 293.164561 89.405978 
L 294.250362 89.952011 
L 295.336163 88.068196 
L 296.421964 87.13994 
L 297.507765 89.260369 
L 298.593566 89.296771 
L 299.679368 89.032855 
L 300.765169 86.748616 
L 301.85097 88.104599 
L 302.936771 87.540364 
L 304.022572 86.111577 
L 305.108373 86.512002 
L 306.194175 87.176342 
L 307.279976 85.601947 
L 308.365777 86.967029 
L 309.451578 85.419935 
L 310.537379 86.64851 
L 311.62318 84.691891 
L 312.708981 86.020572 
L 313.794783 84.427975 
L 314.880584 85.947768 
L 315.966385 84.573584 
L 317.052186 84.000249 
L 318.137987 84.801098 
L 319.223788 83.863741 
L 320.30959 84.418875 
L 321.395391 83.436015 
L 322.481192 82.771675 
L 323.566993 83.153898 
L 324.652794 81.634105 
L 325.738595 81.770614 
L 326.824396 82.262044 
L 327.910198 81.916223 
L 328.995999 81.179078 
L 330.0818 81.260983 
L 331.167601 80.869659 
L 332.253402 81.406592 
L 333.339203 80.39643 
L 334.425005 80.851458 
L 335.510806 80.742251 
L 336.596607 80.178017 
L 337.682408 79.322565 
L 339.85401 78.867537 
L 342.025613 79.07685 
L 343.111414 78.57632 
L 344.197215 78.649124 
L 345.283016 77.76637 
L 346.368817 77.884678 
L 347.454618 76.719807 
L 349.626221 76.829013 
L 350.712022 77.238538 
L 351.797823 76.091869 
L 352.883624 75.12721 
L 353.969425 74.872395 
L 355.055227 75.509433 
L 356.141028 75.236417 
L 357.226829 75.509433 
L 358.31263 73.725725 
L 359.398431 75.036204 
L 360.484232 73.625619 
L 361.570033 73.789429 
L 362.655835 74.408266 
L 363.741636 73.325301 
L 364.827437 73.097787 
L 365.913238 74.29906 
L 366.999039 72.033022 
L 369.170642 74.744987 
L 370.256443 74.226255 
L 371.342244 75.163612 
L 374.599647 76.738008 
L 375.685448 76.255679 
L 376.77125 75.482132 
L 377.857051 76.719807 
L 378.942852 75.118109 
L 381.114454 77.065628 
L 382.200255 76.019064 
L 383.286057 75.345623 
L 384.371858 76.728907 
L 385.457659 76.246578 
L 386.54346 75.163612 
L 387.629261 77.375047 
L 388.715062 76.383086 
L 389.800863 75.564037 
L 390.886665 76.474092 
L 391.972466 75.764249 
L 393.058267 76.683405 
L 394.144068 76.76531 
L 395.229869 75.536735 
L 396.31567 75.272819 
L 398.487273 76.173774 
L 398.487273 76.173774 
" clip-path="url(#p37370dfa7e)" style="fill: none; stroke: #1f77b4; stroke-width: 1.5; stroke-linecap: square"/>
   </g>
   <g id="line2d_19">
    <path d="M 73.832727 242.49548 
L 74.918528 205.47443 
L 76.00433 151.781168 
L 77.090131 148.868991 
L 78.175932 121.712941 
L 79.261733 121.85855 
L 80.347534 109.991429 
L 81.433335 105.623163 
L 82.519137 99.070765 
L 83.604938 102.601779 
L 84.690739 94.229271 
L 85.77654 91.025876 
L 86.862341 90.006614 
L 87.948142 86.985231 
L 89.033943 82.216541 
L 90.119745 79.631984 
L 91.205546 80.214419 
L 92.291347 76.974622 
L 93.377148 76.537796 
L 94.462949 77.229438 
L 95.54875 94.447684 
L 96.634552 99.434787 
L 97.720353 94.010857 
L 98.806154 96.959437 
L 99.891955 90.297832 
L 100.977756 86.366393 
L 102.063557 93.39202 
L 103.149358 85.419935 
L 104.23516 82.471356 
L 105.320961 82.68977 
L 106.406762 80.796855 
L 107.492563 84.946707 
L 108.578364 80.323626 
L 109.664165 78.940342 
L 110.749967 78.721928 
L 111.835768 77.92108 
L 112.921569 76.428589 
L 114.00737 74.681283 
L 115.093171 72.679161 
L 116.178972 72.933977 
L 117.264773 72.133128 
L 118.350575 69.621375 
L 119.436376 69.439364 
L 120.522177 70.422224 
L 121.607978 67.655656 
L 122.693779 68.893331 
L 123.77958 66.745601 
L 124.865382 65.981154 
L 125.951183 65.944752 
L 127.036984 65.762741 
L 128.122785 65.071099 
L 129.208586 64.525066 
L 130.294387 64.670675 
L 132.46599 62.522944 
L 133.551791 63.178184 
L 134.637592 62.886966 
L 135.723393 62.959771 
L 137.894995 62.704955 
L 138.980797 80.432832 
L 140.066598 78.357906 
L 141.152399 77.59346 
L 142.2382 77.811873 
L 143.324001 80.141615 
L 144.409802 74.644881 
L 145.495604 74.208054 
L 146.581405 73.334401 
L 147.667206 70.822648 
L 148.753007 74.717685 
L 149.838808 74.13525 
L 150.924609 69.184549 
L 152.01041 73.552814 
L 153.096212 71.987519 
L 154.182013 72.933977 
L 155.267814 74.13525 
L 157.439416 70.67704 
L 158.525217 72.278737 
L 159.611019 69.36656 
L 160.69682 69.876191 
L 161.782621 69.148147 
L 162.868422 69.439364 
L 163.954223 69.257353 
L 166.125825 70.34942 
L 167.211627 67.874069 
L 168.297428 67.582852 
L 169.383229 69.36656 
L 170.46903 70.749844 
L 171.554831 68.128885 
L 172.640632 65.799143 
L 173.726434 66.672796 
L 174.812235 66.090361 
L 175.898036 66.672796 
L 176.983837 65.981154 
L 178.069638 64.488664 
L 179.155439 65.835545 
L 180.24124 65.398719 
L 181.327042 65.143903 
L 182.412843 65.362317 
L 183.498644 62.886966 
L 184.584445 65.835545 
L 185.670246 62.049715 
L 186.756047 64.379457 
L 187.841849 64.59787 
L 188.92765 62.304531 
L 190.013451 62.850564 
L 191.099252 61.976911 
L 192.185053 60.338811 
L 193.270854 60.957649 
L 194.356656 61.7949 
L 195.442457 62.814162 
L 196.528258 59.537963 
L 197.614059 60.047594 
L 198.69986 60.411616 
L 199.785661 60.593627 
L 200.871462 59.574365 
L 201.957264 60.229605 
L 203.043065 58.300288 
L 204.128866 59.319549 
L 205.214667 58.99193 
L 206.300468 58.045472 
L 207.386269 58.081874 
L 208.472071 57.972668 
L 209.557872 58.154679 
L 211.729474 57.499439 
L 212.815275 57.535841 
L 213.901076 56.625786 
L 214.986877 57.244623 
L 216.072679 56.662188 
L 217.15848 56.734992 
L 218.244281 57.208221 
L 219.330082 57.208221 
L 220.415883 56.625786 
L 221.501684 56.880601 
L 224.759088 56.69859 
L 225.844889 71.951117 
L 226.93069 71.987519 
L 228.016491 71.477888 
L 229.102292 69.03894 
L 230.188094 73.589217 
L 231.273895 68.201689 
L 232.359696 73.225194 
L 233.445497 68.638516 
L 234.531298 72.897575 
L 235.617099 68.602114 
L 236.702901 69.03894 
L 237.788702 69.876191 
L 238.874503 67.946874 
L 239.960304 69.512169 
L 241.046105 68.529309 
L 242.131906 68.456505 
L 243.217708 68.638516 
L 245.38931 65.835545 
L 246.475111 67.073221 
L 247.560912 69.730582 
L 248.646713 68.966136 
L 249.732514 69.439364 
L 250.818316 70.640637 
L 251.904117 66.345176 
L 254.075719 64.670675 
L 255.16152 70.203811 
L 256.247321 66.199568 
L 257.333123 66.818405 
L 258.418924 65.835545 
L 259.504725 63.906228 
L 260.590526 72.16953 
L 261.676327 66.490785 
L 262.762128 65.325914 
L 263.847929 68.929733 
L 264.933731 66.709199 
L 266.019532 63.578608 
L 267.105333 63.542206 
L 268.191134 66.053959 
L 269.276935 63.360195 
L 270.362736 66.308774 
L 271.448538 67.837667 
L 272.534339 63.10538 
L 273.62014 65.435121 
L 274.705941 66.417981 
L 275.791742 66.163165 
L 276.877543 63.869826 
L 277.963344 64.59787 
L 279.049146 66.56359 
L 280.134947 64.998295 
L 281.220748 64.415859 
L 282.306549 61.685693 
L 284.478151 65.944752 
L 285.563953 61.7949 
L 286.649754 62.195324 
L 287.735555 61.176062 
L 288.821356 63.542206 
L 290.992958 63.432999 
L 292.07876 62.559346 
L 293.164561 61.066856 
L 294.250362 62.77776 
L 295.336163 62.45014 
L 296.421964 61.394476 
L 297.507765 63.833424 
L 298.593566 60.775638 
L 299.679368 61.103258 
L 300.765169 61.685693 
L 301.85097 63.178184 
L 302.936771 60.302409 
L 304.022572 61.940509 
L 305.108373 60.120398 
L 306.194175 61.7949 
L 307.279976 61.13966 
L 308.365777 61.066856 
L 309.451578 59.647169 
L 310.537379 59.792778 
L 311.62318 59.719974 
L 312.708981 61.503682 
L 313.794783 60.047594 
L 314.880584 60.229605 
L 315.966385 59.537963 
L 317.052186 59.792778 
L 318.137987 58.809919 
L 319.223788 60.302409 
L 320.30959 59.574365 
L 321.395391 57.572243 
L 322.481192 58.591505 
L 323.566993 60.229605 
L 325.738595 59.865583 
L 326.824396 58.555103 
L 327.910198 59.283147 
L 328.995999 57.281026 
L 330.0818 58.882723 
L 332.253402 57.171819 
L 333.339203 58.409494 
L 334.425005 56.880601 
L 337.682408 57.645048 
L 338.768209 56.807797 
L 339.85401 57.02621 
L 340.939811 56.69859 
L 343.111414 56.844199 
L 344.197215 55.897742 
L 345.283016 57.572243 
L 346.368817 56.116155 
L 347.454618 56.516579 
L 348.54042 56.443775 
L 349.626221 56.953406 
L 350.712022 55.679328 
L 351.797823 55.024088 
L 352.883624 55.642926 
L 353.969425 55.169697 
L 355.055227 56.516579 
L 356.141028 55.096893 
L 357.226829 55.570122 
L 358.31263 54.478055 
L 359.398431 54.842077 
L 360.484232 54.332446 
L 361.570033 54.22324 
L 362.655835 54.805675 
L 363.741636 54.478055 
L 364.827437 55.024088 
L 365.913238 54.405251 
L 366.999039 54.332446 
L 368.08484 54.478055 
L 369.170642 54.769273 
L 370.256443 54.914882 
L 371.342244 56.152557 
L 373.513846 56.188959 
L 374.599647 55.897742 
L 375.685448 55.897742 
L 376.77125 55.606524 
L 377.857051 56.04335 
L 378.942852 55.824937 
L 380.028653 56.152557 
L 381.114454 55.2061 
L 382.200255 56.69859 
L 383.286057 56.625786 
L 384.371858 55.388111 
L 385.457659 56.079753 
L 386.54346 55.351708 
L 387.629261 55.388111 
L 388.715062 54.478055 
L 389.800863 55.242502 
L 390.886665 56.625786 
L 391.972466 56.006948 
L 393.058267 55.824937 
L 394.144068 55.133295 
L 395.229869 56.480177 
L 396.31567 55.388111 
L 397.401472 55.351708 
L 398.487273 56.407373 
L 398.487273 56.407373 
" clip-path="url(#p37370dfa7e)" style="fill: none; stroke: #ff7f0e; stroke-width: 1.5; stroke-linecap: square"/>
   </g>
   <g id="line2d_20">
    <path d="M 73.832727 271.400091 
L 76.00433 190.059977 
L 77.090131 199.725391 
L 78.175932 170.729147 
L 79.261733 165.457102 
L 80.347534 158.302185 
L 81.433335 151.900416 
L 82.519137 147.381521 
L 83.604938 145.624173 
L 85.77654 126.920968 
L 86.862341 127.046492 
L 87.948142 126.293343 
L 89.033943 118.887376 
L 90.119745 118.510801 
L 91.205546 116.753453 
L 92.291347 118.259752 
L 93.377148 115.749254 
L 94.462949 116.251354 
L 95.54875 139.473454 
L 96.634552 143.49025 
L 97.720353 139.34793 
L 98.806154 137.716106 
L 99.891955 132.318537 
L 100.977756 132.946161 
L 102.063557 141.356327 
L 103.149358 128.427266 
L 104.23516 124.41047 
L 105.320961 127.423067 
L 106.406762 123.155221 
L 107.492563 123.531796 
L 108.578364 129.431465 
L 109.664165 123.406271 
L 111.835768 119.515 
L 112.921569 121.397873 
L 114.00737 118.636326 
L 115.093171 111.983508 
L 116.178972 113.238757 
L 117.264773 112.485608 
L 118.350575 111.481409 
L 119.436376 113.740856 
L 120.522177 111.481409 
L 121.607978 108.845386 
L 122.693779 107.590138 
L 124.865382 102.945718 
L 125.951183 104.452016 
L 127.036984 99.807596 
L 128.122785 99.933121 
L 129.208586 103.322292 
L 130.294387 100.93732 
L 131.380189 99.305496 
L 132.46599 96.669474 
L 133.551791 100.560745 
L 134.637592 99.682071 
L 135.723393 98.050248 
L 136.809194 99.179972 
L 137.894995 98.426822 
L 138.980797 123.406271 
L 140.066598 115.498204 
L 141.152399 119.138426 
L 142.2382 119.640525 
L 143.324001 124.15942 
L 144.409802 115.37268 
L 145.495604 113.991906 
L 146.581405 116.000304 
L 147.667206 110.853784 
L 148.753007 116.125829 
L 149.838808 116.878978 
L 150.924609 109.724061 
L 152.01041 113.489807 
L 153.096212 115.623729 
L 154.182013 112.862182 
L 155.267814 119.263951 
L 156.353615 110.853784 
L 157.439416 107.339088 
L 158.525217 110.853784 
L 159.611019 111.230359 
L 160.69682 109.724061 
L 161.782621 111.606934 
L 162.868422 107.841188 
L 163.954223 110.100635 
L 165.040024 114.242956 
L 166.125825 111.732458 
L 168.297428 101.815994 
L 169.383229 107.213563 
L 170.46903 110.351685 
L 171.554831 108.217762 
L 172.640632 106.962513 
L 173.726434 106.083839 
L 174.812235 102.694668 
L 175.898036 105.958314 
L 176.983837 103.447817 
L 178.069638 102.945718 
L 179.155439 103.573342 
L 180.24124 104.954116 
L 181.327042 104.326491 
L 182.412843 102.318093 
L 183.498644 99.431021 
L 184.584445 102.443618 
L 185.670246 97.422623 
L 186.756047 101.313894 
L 187.841849 100.184171 
L 188.92765 97.924723 
L 190.013451 98.677872 
L 191.099252 95.916325 
L 192.185053 93.656877 
L 193.270854 96.418424 
L 195.442457 99.305496 
L 196.528258 94.912126 
L 197.614059 94.033452 
L 198.69986 92.903728 
L 199.785661 91.522955 
L 200.871462 94.912126 
L 201.957264 94.410027 
L 203.043065 91.14638 
L 204.128866 90.518756 
L 205.214667 90.769805 
L 206.300468 88.886932 
L 207.386269 88.886932 
L 208.472071 88.259308 
L 209.557872 89.640082 
L 210.643673 89.765606 
L 211.729474 87.380634 
L 212.815275 88.259308 
L 213.901076 85.874335 
L 214.986877 87.129584 
L 216.072679 88.133783 
L 217.15848 87.757209 
L 218.244281 87.004059 
L 219.330082 86.627485 
L 220.415883 85.497761 
L 222.587486 88.008258 
L 223.673287 86.50196 
L 224.759088 85.623286 
L 225.844889 112.862182 
L 226.93069 114.242956 
L 228.016491 111.732458 
L 229.102292 114.494006 
L 231.273895 113.364282 
L 232.359696 114.368481 
L 233.445497 109.97511 
L 234.531298 110.853784 
L 235.617099 110.351685 
L 236.702901 111.104834 
L 237.788702 108.970911 
L 238.874503 105.958314 
L 239.960304 110.100635 
L 241.046105 105.58174 
L 242.131906 105.707265 
L 243.217708 106.083839 
L 244.303509 108.970911 
L 245.38931 103.824392 
L 246.475111 109.849585 
L 247.560912 108.217762 
L 248.646713 108.343287 
L 249.732514 110.47721 
L 250.818316 110.853784 
L 251.904117 107.464613 
L 252.989918 105.58174 
L 254.075719 104.577541 
L 255.16152 106.585939 
L 256.247321 102.945718 
L 257.333123 107.590138 
L 258.418924 102.318093 
L 259.504725 99.933121 
L 260.590526 110.979309 
L 261.676327 107.966712 
L 262.762128 107.966712 
L 263.847929 109.849585 
L 264.933731 102.820193 
L 266.019532 100.93732 
L 268.191134 107.339088 
L 269.276935 105.456215 
L 270.362736 105.58174 
L 271.448538 106.585939 
L 272.534339 102.569143 
L 273.62014 99.556546 
L 274.705941 100.184171 
L 275.791742 99.431021 
L 276.877543 100.560745 
L 277.963344 103.949917 
L 279.049146 101.815994 
L 280.134947 101.815994 
L 281.220748 104.200966 
L 282.306549 98.301297 
L 283.39235 104.828591 
L 284.478151 106.962513 
L 285.563953 97.046049 
L 286.649754 96.04185 
L 287.735555 97.422623 
L 288.821356 101.313894 
L 289.907157 102.694668 
L 290.992958 98.301297 
L 292.07876 101.313894 
L 293.164561 97.548148 
L 294.250362 100.184171 
L 295.336163 97.548148 
L 296.421964 96.794999 
L 297.507765 101.815994 
L 298.593566 96.418424 
L 299.679368 98.050248 
L 300.765169 96.669474 
L 301.85097 101.564944 
L 302.936771 97.171574 
L 304.022572 98.175773 
L 305.108373 95.916325 
L 306.194175 98.928922 
L 307.279976 96.2929 
L 308.365777 99.179972 
L 309.451578 94.410027 
L 310.537379 92.150579 
L 311.62318 94.912126 
L 312.708981 99.807596 
L 313.794783 96.920524 
L 314.880584 90.769805 
L 315.966385 95.163176 
L 317.052186 98.552347 
L 318.137987 92.652678 
L 319.223788 93.029253 
L 320.30959 93.029253 
L 321.395391 88.635883 
L 322.481192 94.661076 
L 323.566993 94.158977 
L 324.652794 95.163176 
L 325.738595 95.037651 
L 326.824396 95.7908 
L 327.910198 94.535551 
L 328.995999 93.029253 
L 330.0818 88.635883 
L 331.167601 93.029253 
L 332.253402 91.020855 
L 333.339203 88.510358 
L 334.425005 90.142181 
L 335.510806 92.276104 
L 336.596607 91.899529 
L 337.682408 95.414225 
L 338.768209 91.648479 
L 339.85401 90.64428 
L 340.939811 93.280303 
L 342.025613 86.376435 
L 343.111414 89.765606 
L 344.197215 86.376435 
L 345.283016 90.142181 
L 346.368817 87.129584 
L 347.454618 88.761407 
L 348.54042 85.497761 
L 349.626221 88.761407 
L 351.797823 83.865938 
L 352.883624 84.116987 
L 353.969425 86.25091 
L 355.055227 86.125385 
L 356.141028 85.121186 
L 357.226829 86.75301 
L 358.31263 83.489363 
L 359.398431 84.995661 
L 360.484232 81.480965 
L 361.570033 81.983065 
L 362.655835 83.489363 
L 363.741636 82.987263 
L 364.827437 83.740413 
L 365.913238 81.732015 
L 366.999039 81.85754 
L 368.08484 81.85754 
L 369.170642 84.619087 
L 370.256443 83.991462 
L 371.342244 85.748811 
L 372.428045 86.75301 
L 373.513846 87.255109 
L 374.599647 84.995661 
L 375.685448 86.50196 
L 376.77125 84.870137 
L 377.857051 87.882733 
L 378.942852 87.882733 
L 380.028653 87.506159 
L 381.114454 88.510358 
L 382.200255 88.886932 
L 383.286057 84.744612 
L 384.371858 85.246711 
L 385.457659 84.619087 
L 386.54346 81.983065 
L 387.629261 84.995661 
L 388.715062 85.497761 
L 389.800863 86.75301 
L 390.886665 87.255109 
L 391.972466 87.129584 
L 393.058267 84.368037 
L 394.144068 85.121186 
L 395.229869 89.012457 
L 396.31567 83.238313 
L 397.401472 85.121186 
L 398.487273 88.008258 
L 398.487273 88.008258 
" clip-path="url(#p37370dfa7e)" style="fill: none; stroke: #2ca02c; stroke-width: 1.5; stroke-linecap: square"/>
   </g>
   <g id="line2d_21">
    <path d="M 368.08484 54.405251 
L 371.342244 54.186838 
L 372.428045 53.89562 
L 373.513846 54.150435 
L 374.599647 53.786413 
L 375.685448 54.368849 
L 378.942852 53.713609 
L 380.028653 53.822815 
L 381.114454 53.568 
L 383.286057 54.405251 
L 384.371858 54.405251 
L 385.457659 54.587262 
L 386.54346 55.096893 
L 387.629261 54.368849 
L 388.715062 54.732871 
L 389.800863 54.914882 
L 390.886665 54.186838 
L 391.972466 54.805675 
L 393.058267 55.133295 
L 394.144068 54.259642 
L 395.229869 55.169697 
L 396.31567 54.805675 
L 397.401472 54.805675 
L 398.487273 54.296044 
L 398.487273 54.296044 
" clip-path="url(#p37370dfa7e)" style="fill: none; stroke: #d62728; stroke-width: 1.5; stroke-linecap: square"/>
   </g>
   <g id="line2d_22">
    <path d="M 368.08484 80.853341 
L 369.170642 81.35544 
L 370.256443 82.359639 
L 371.342244 80.100192 
L 372.428045 80.225716 
L 373.513846 82.485164 
L 374.599647 79.849142 
L 375.685448 81.35544 
L 376.77125 83.740413 
L 377.857051 82.108589 
L 378.942852 82.234114 
L 380.028653 82.736214 
L 381.114454 82.736214 
L 382.200255 84.116987 
L 384.371858 81.480965 
L 386.54346 83.112788 
L 387.629261 81.60649 
L 388.715062 82.861739 
L 389.800863 84.368037 
L 390.886665 82.485164 
L 391.972466 83.740413 
L 393.058267 83.991462 
L 394.144068 82.861739 
L 395.229869 83.238313 
L 396.31567 81.60649 
L 397.401472 84.116987 
L 398.487273 81.85754 
L 398.487273 81.85754 
" clip-path="url(#p37370dfa7e)" style="fill: none; stroke: #9467bd; stroke-width: 1.5; stroke-linecap: square"/>
   </g>
   <g id="patch_3">
    <path d="M 57.6 307.584 
L 57.6 41.472 
" style="fill: none; stroke: #000000; stroke-width: 0.8; stroke-linejoin: miter; stroke-linecap: square"/>
   </g>
   <g id="patch_4">
    <path d="M 414.72 307.584 
L 414.72 41.472 
" style="fill: none; stroke: #000000; stroke-width: 0.8; stroke-linejoin: miter; stroke-linecap: square"/>
   </g>
   <g id="patch_5">
    <path d="M 57.6 307.584 
L 414.72 307.584 
" style="fill: none; stroke: #000000; stroke-width: 0.8; stroke-linejoin: miter; stroke-linecap: square"/>
   </g>
   <g id="patch_6">
    <path d="M 57.6 41.472 
L 414.72 41.472 
" style="fill: none; stroke: #000000; stroke-width: 0.8; stroke-linejoin: miter; stroke-linecap: square"/>
   </g>
   <g id="text_20">
    <!-- Learning Curves -->
    <g transform="translate(187.37625 35.472) scale(0.12 -0.12)">
     <defs>
      <path id="DejaVuSans-4c" d="M 628 4666 
L 1259 4666 
L 1259 531 
L 3531 531 
L 3531 0 
L 628 0 
L 628 4666 
z
" transform="scale(0.015625)"/>
      <path id="DejaVuSans-65" d="M 3597 1894 
L 3597 1613 
L 953 1613 
Q 991 1019 1311 708 
Q 1631 397 2203 397 
Q 2534 397 2845 478 
Q 3156 559 3463 722 
L 3463 178 
Q 3153 47 2828 -22 
Q 2503 -91 2169 -91 
Q 1331 -91 842 396 
Q 353 884 353 1716 
Q 353 2575 817 3079 
Q 1281 3584 2069 3584 
Q 2775 3584 3186 3129 
Q 3597 2675 3597 1894 
z
M 3022 2063 
Q 3016 2534 2758 2815 
Q 2500 3097 2075 3097 
Q 1594 3097 1305 2825 
Q 1016 2553 972 2059 
L 3022 2063 
z
" transform="scale(0.015625)"/>
      <path id="DejaVuSans-6e" d="M 3513 2113 
L 3513 0 
L 2938 0 
L 2938 2094 
Q 2938 2591 2744 2837 
Q 2550 3084 2163 3084 
Q 1697 3084 1428 2787 
Q 1159 2491 1159 1978 
L 1159 0 
L 581 0 
L 581 3500 
L 1159 3500 
L 1159 2956 
Q 1366 3272 1645 3428 
Q 1925 3584 2291 3584 
Q 2894 3584 3203 3211 
Q 3513 2838 3513 2113 
z
" transform="scale(0.015625)"/>
      <path id="DejaVuSans-69" d="M 603 3500 
L 1178 3500 
L 1178 0 
L 603 0 
L 603 3500 
z
M 603 4863 
L 1178 4863 
L 1178 4134 
L 603 4134 
L 603 4863 
z
" transform="scale(0.015625)"/>
      <path id="DejaVuSans-67" d="M 2906 1791 
Q 2906 2416 2648 2759 
Q 2391 3103 1925 3103 
Q 1463 3103 1205 2759 
Q 947 2416 947 1791 
Q 947 1169 1205 825 
Q 1463 481 1925 481 
Q 2391 481 2648 825 
Q 2906 1169 2906 1791 
z
M 3481 434 
Q 3481 -459 3084 -895 
Q 2688 -1331 1869 -1331 
Q 1566 -1331 1297 -1286 
Q 1028 -1241 775 -1147 
L 775 -588 
Q 1028 -725 1275 -790 
Q 1522 -856 1778 -856 
Q 2344 -856 2625 -561 
Q 2906 -266 2906 331 
L 2906 616 
Q 2728 306 2450 153 
Q 2172 0 1784 0 
Q 1141 0 747 490 
Q 353 981 353 1791 
Q 353 2603 747 3093 
Q 1141 3584 1784 3584 
Q 2172 3584 2450 3431 
Q 2728 3278 2906 2969 
L 2906 3500 
L 3481 3500 
L 3481 434 
z
" transform="scale(0.015625)"/>
      <path id="DejaVuSans-20" transform="scale(0.015625)"/>
      <path id="DejaVuSans-43" d="M 4122 4306 
L 4122 3641 
Q 3803 3938 3442 4084 
Q 3081 4231 2675 4231 
Q 1875 4231 1450 3742 
Q 1025 3253 1025 2328 
Q 1025 1406 1450 917 
Q 1875 428 2675 428 
Q 3081 428 3442 575 
Q 3803 722 4122 1019 
L 4122 359 
Q 3791 134 3420 21 
Q 3050 -91 2638 -91 
Q 1578 -91 968 557 
Q 359 1206 359 2328 
Q 359 3453 968 4101 
Q 1578 4750 2638 4750 
Q 3056 4750 3426 4639 
Q 3797 4528 4122 4306 
z
" transform="scale(0.015625)"/>
      <path id="DejaVuSans-76" d="M 191 3500 
L 800 3500 
L 1894 563 
L 2988 3500 
L 3597 3500 
L 2284 0 
L 1503 0 
L 191 3500 
z
" transform="scale(0.015625)"/>
     </defs>
     <use xlink:href="#DejaVuSans-4c"/>
     <use xlink:href="#DejaVuSans-65" x="53.962891"/>
     <use xlink:href="#DejaVuSans-61" x="115.486328"/>
     <use xlink:href="#DejaVuSans-72" x="176.765625"/>
     <use xlink:href="#DejaVuSans-6e" x="216.128906"/>
     <use xlink:href="#DejaVuSans-69" x="279.507812"/>
     <use xlink:href="#DejaVuSans-6e" x="307.291016"/>
     <use xlink:href="#DejaVuSans-67" x="370.669922"/>
     <use xlink:href="#DejaVuSans-20" x="434.146484"/>
     <use xlink:href="#DejaVuSans-43" x="465.933594"/>
     <use xlink:href="#DejaVuSans-75" x="535.757812"/>
     <use xlink:href="#DejaVuSans-72" x="599.136719"/>
     <use xlink:href="#DejaVuSans-76" x="640.25"/>
     <use xlink:href="#DejaVuSans-65" x="699.429688"/>
     <use xlink:href="#DejaVuSans-73" x="760.953125"/>
    </g>
   </g>
   <g id="legend_1">
    <g id="patch_7">
     <path d="M 214.18875 302.584 
L 407.72 302.584 
Q 409.72 302.584 409.72 300.584 
L 409.72 228.193375 
Q 409.72 226.193375 407.72 226.193375 
L 214.18875 226.193375 
Q 212.18875 226.193375 212.18875 228.193375 
L 212.18875 300.584 
Q 212.18875 302.584 214.18875 302.584 
z
" style="fill: #ffffff; opacity: 0.8; stroke: #cccccc; stroke-linejoin: miter"/>
    </g>
    <g id="line2d_23">
     <path d="M 216.18875 234.291812 
L 226.18875 234.291812 
L 236.18875 234.291812 
" style="fill: none; stroke: #1f77b4; stroke-width: 1.5; stroke-linecap: square"/>
    </g>
    <g id="text_21">
     <!-- Train Accuracy -->
     <g transform="translate(244.18875 237.791812) scale(0.1 -0.1)">
      <defs>
       <path id="DejaVuSans-54" d="M -19 4666 
L 3928 4666 
L 3928 4134 
L 2272 4134 
L 2272 0 
L 1638 0 
L 1638 4134 
L -19 4134 
L -19 4666 
z
" transform="scale(0.015625)"/>
      </defs>
      <use xlink:href="#DejaVuSans-54"/>
      <use xlink:href="#DejaVuSans-72" x="46.333984"/>
      <use xlink:href="#DejaVuSans-61" x="87.447266"/>
      <use xlink:href="#DejaVuSans-69" x="148.726562"/>
      <use xlink:href="#DejaVuSans-6e" x="176.509766"/>
      <use xlink:href="#DejaVuSans-20" x="239.888672"/>
      <use xlink:href="#DejaVuSans-41" x="271.675781"/>
      <use xlink:href="#DejaVuSans-63" x="338.333984"/>
      <use xlink:href="#DejaVuSans-63" x="393.314453"/>
      <use xlink:href="#DejaVuSans-75" x="448.294922"/>
      <use xlink:href="#DejaVuSans-72" x="511.673828"/>
      <use xlink:href="#DejaVuSans-61" x="552.787109"/>
      <use xlink:href="#DejaVuSans-63" x="614.066406"/>
      <use xlink:href="#DejaVuSans-79" x="669.046875"/>
     </g>
    </g>
    <g id="line2d_24">
     <path d="M 216.18875 248.969937 
L 226.18875 248.969937 
L 236.18875 248.969937 
" style="fill: none; stroke: #ff7f0e; stroke-width: 1.5; stroke-linecap: square"/>
    </g>
    <g id="text_22">
     <!-- Validation Accuracy -->
     <g transform="translate(244.18875 252.469937) scale(0.1 -0.1)">
      <defs>
       <path id="DejaVuSans-56" d="M 1831 0 
L 50 4666 
L 709 4666 
L 2188 738 
L 3669 4666 
L 4325 4666 
L 2547 0 
L 1831 0 
z
" transform="scale(0.015625)"/>
       <path id="DejaVuSans-6c" d="M 603 4863 
L 1178 4863 
L 1178 0 
L 603 0 
L 603 4863 
z
" transform="scale(0.015625)"/>
       <path id="DejaVuSans-64" d="M 2906 2969 
L 2906 4863 
L 3481 4863 
L 3481 0 
L 2906 0 
L 2906 525 
Q 2725 213 2448 61 
Q 2172 -91 1784 -91 
Q 1150 -91 751 415 
Q 353 922 353 1747 
Q 353 2572 751 3078 
Q 1150 3584 1784 3584 
Q 2172 3584 2448 3432 
Q 2725 3281 2906 2969 
z
M 947 1747 
Q 947 1113 1208 752 
Q 1469 391 1925 391 
Q 2381 391 2643 752 
Q 2906 1113 2906 1747 
Q 2906 2381 2643 2742 
Q 2381 3103 1925 3103 
Q 1469 3103 1208 2742 
Q 947 2381 947 1747 
z
" transform="scale(0.015625)"/>
       <path id="DejaVuSans-74" d="M 1172 4494 
L 1172 3500 
L 2356 3500 
L 2356 3053 
L 1172 3053 
L 1172 1153 
Q 1172 725 1289 603 
Q 1406 481 1766 481 
L 2356 481 
L 2356 0 
L 1766 0 
Q 1100 0 847 248 
Q 594 497 594 1153 
L 594 3053 
L 172 3053 
L 172 3500 
L 594 3500 
L 594 4494 
L 1172 4494 
z
" transform="scale(0.015625)"/>
      </defs>
      <use xlink:href="#DejaVuSans-56"/>
      <use xlink:href="#DejaVuSans-61" x="60.658203"/>
      <use xlink:href="#DejaVuSans-6c" x="121.9375"/>
      <use xlink:href="#DejaVuSans-69" x="149.720703"/>
      <use xlink:href="#DejaVuSans-64" x="177.503906"/>
      <use xlink:href="#DejaVuSans-61" x="240.980469"/>
      <use xlink:href="#DejaVuSans-74" x="302.259766"/>
      <use xlink:href="#DejaVuSans-69" x="341.46875"/>
      <use xlink:href="#DejaVuSans-6f" x="369.251953"/>
      <use xlink:href="#DejaVuSans-6e" x="430.433594"/>
      <use xlink:href="#DejaVuSans-20" x="493.8125"/>
      <use xlink:href="#DejaVuSans-41" x="525.599609"/>
      <use xlink:href="#DejaVuSans-63" x="592.257812"/>
      <use xlink:href="#DejaVuSans-63" x="647.238281"/>
      <use xlink:href="#DejaVuSans-75" x="702.21875"/>
      <use xlink:href="#DejaVuSans-72" x="765.597656"/>
      <use xlink:href="#DejaVuSans-61" x="806.710938"/>
      <use xlink:href="#DejaVuSans-63" x="867.990234"/>
      <use xlink:href="#DejaVuSans-79" x="922.970703"/>
     </g>
    </g>
    <g id="line2d_25">
     <path d="M 216.18875 263.648062 
L 226.18875 263.648062 
L 236.18875 263.648062 
" style="fill: none; stroke: #2ca02c; stroke-width: 1.5; stroke-linecap: square"/>
    </g>
    <g id="text_23">
     <!-- Robust Validation Accuracy -->
     <g transform="translate(244.18875 267.148062) scale(0.1 -0.1)">
      <defs>
       <path id="DejaVuSans-52" d="M 2841 2188 
Q 3044 2119 3236 1894 
Q 3428 1669 3622 1275 
L 4263 0 
L 3584 0 
L 2988 1197 
Q 2756 1666 2539 1819 
Q 2322 1972 1947 1972 
L 1259 1972 
L 1259 0 
L 628 0 
L 628 4666 
L 2053 4666 
Q 2853 4666 3247 4331 
Q 3641 3997 3641 3322 
Q 3641 2881 3436 2590 
Q 3231 2300 2841 2188 
z
M 1259 4147 
L 1259 2491 
L 2053 2491 
Q 2509 2491 2742 2702 
Q 2975 2913 2975 3322 
Q 2975 3731 2742 3939 
Q 2509 4147 2053 4147 
L 1259 4147 
z
" transform="scale(0.015625)"/>
       <path id="DejaVuSans-62" d="M 3116 1747 
Q 3116 2381 2855 2742 
Q 2594 3103 2138 3103 
Q 1681 3103 1420 2742 
Q 1159 2381 1159 1747 
Q 1159 1113 1420 752 
Q 1681 391 2138 391 
Q 2594 391 2855 752 
Q 3116 1113 3116 1747 
z
M 1159 2969 
Q 1341 3281 1617 3432 
Q 1894 3584 2278 3584 
Q 2916 3584 3314 3078 
Q 3713 2572 3713 1747 
Q 3713 922 3314 415 
Q 2916 -91 2278 -91 
Q 1894 -91 1617 61 
Q 1341 213 1159 525 
L 1159 0 
L 581 0 
L 581 4863 
L 1159 4863 
L 1159 2969 
z
" transform="scale(0.015625)"/>
      </defs>
      <use xlink:href="#DejaVuSans-52"/>
      <use xlink:href="#DejaVuSans-6f" x="64.982422"/>
      <use xlink:href="#DejaVuSans-62" x="126.164062"/>
      <use xlink:href="#DejaVuSans-75" x="189.640625"/>
      <use xlink:href="#DejaVuSans-73" x="253.019531"/>
      <use xlink:href="#DejaVuSans-74" x="305.119141"/>
      <use xlink:href="#DejaVuSans-20" x="344.328125"/>
      <use xlink:href="#DejaVuSans-56" x="376.115234"/>
      <use xlink:href="#DejaVuSans-61" x="436.773438"/>
      <use xlink:href="#DejaVuSans-6c" x="498.052734"/>
      <use xlink:href="#DejaVuSans-69" x="525.835938"/>
      <use xlink:href="#DejaVuSans-64" x="553.619141"/>
      <use xlink:href="#DejaVuSans-61" x="617.095703"/>
      <use xlink:href="#DejaVuSans-74" x="678.375"/>
      <use xlink:href="#DejaVuSans-69" x="717.583984"/>
      <use xlink:href="#DejaVuSans-6f" x="745.367188"/>
      <use xlink:href="#DejaVuSans-6e" x="806.548828"/>
      <use xlink:href="#DejaVuSans-20" x="869.927734"/>
      <use xlink:href="#DejaVuSans-41" x="901.714844"/>
      <use xlink:href="#DejaVuSans-63" x="968.373047"/>
      <use xlink:href="#DejaVuSans-63" x="1023.353516"/>
      <use xlink:href="#DejaVuSans-75" x="1078.333984"/>
      <use xlink:href="#DejaVuSans-72" x="1141.712891"/>
      <use xlink:href="#DejaVuSans-61" x="1182.826172"/>
      <use xlink:href="#DejaVuSans-63" x="1244.105469"/>
      <use xlink:href="#DejaVuSans-79" x="1299.085938"/>
     </g>
    </g>
    <g id="line2d_26">
     <path d="M 216.18875 278.326188 
L 226.18875 278.326188 
L 236.18875 278.326188 
" style="fill: none; stroke: #d62728; stroke-width: 1.5; stroke-linecap: square"/>
    </g>
    <g id="text_24">
     <!-- SWA Validation Accuracy -->
     <g transform="translate(244.18875 281.826188) scale(0.1 -0.1)">
      <defs>
       <path id="DejaVuSans-53" d="M 3425 4513 
L 3425 3897 
Q 3066 4069 2747 4153 
Q 2428 4238 2131 4238 
Q 1616 4238 1336 4038 
Q 1056 3838 1056 3469 
Q 1056 3159 1242 3001 
Q 1428 2844 1947 2747 
L 2328 2669 
Q 3034 2534 3370 2195 
Q 3706 1856 3706 1288 
Q 3706 609 3251 259 
Q 2797 -91 1919 -91 
Q 1588 -91 1214 -16 
Q 841 59 441 206 
L 441 856 
Q 825 641 1194 531 
Q 1563 422 1919 422 
Q 2459 422 2753 634 
Q 3047 847 3047 1241 
Q 3047 1584 2836 1778 
Q 2625 1972 2144 2069 
L 1759 2144 
Q 1053 2284 737 2584 
Q 422 2884 422 3419 
Q 422 4038 858 4394 
Q 1294 4750 2059 4750 
Q 2388 4750 2728 4690 
Q 3069 4631 3425 4513 
z
" transform="scale(0.015625)"/>
       <path id="DejaVuSans-57" d="M 213 4666 
L 850 4666 
L 1831 722 
L 2809 4666 
L 3519 4666 
L 4500 722 
L 5478 4666 
L 6119 4666 
L 4947 0 
L 4153 0 
L 3169 4050 
L 2175 0 
L 1381 0 
L 213 4666 
z
" transform="scale(0.015625)"/>
      </defs>
      <use xlink:href="#DejaVuSans-53"/>
      <use xlink:href="#DejaVuSans-57" x="63.476562"/>
      <use xlink:href="#DejaVuSans-41" x="156.853516"/>
      <use xlink:href="#DejaVuSans-20" x="225.261719"/>
      <use xlink:href="#DejaVuSans-56" x="257.048828"/>
      <use xlink:href="#DejaVuSans-61" x="317.707031"/>
      <use xlink:href="#DejaVuSans-6c" x="378.986328"/>
      <use xlink:href="#DejaVuSans-69" x="406.769531"/>
      <use xlink:href="#DejaVuSans-64" x="434.552734"/>
      <use xlink:href="#DejaVuSans-61" x="498.029297"/>
      <use xlink:href="#DejaVuSans-74" x="559.308594"/>
      <use xlink:href="#DejaVuSans-69" x="598.517578"/>
      <use xlink:href="#DejaVuSans-6f" x="626.300781"/>
      <use xlink:href="#DejaVuSans-6e" x="687.482422"/>
      <use xlink:href="#DejaVuSans-20" x="750.861328"/>
      <use xlink:href="#DejaVuSans-41" x="782.648438"/>
      <use xlink:href="#DejaVuSans-63" x="849.306641"/>
      <use xlink:href="#DejaVuSans-63" x="904.287109"/>
      <use xlink:href="#DejaVuSans-75" x="959.267578"/>
      <use xlink:href="#DejaVuSans-72" x="1022.646484"/>
      <use xlink:href="#DejaVuSans-61" x="1063.759766"/>
      <use xlink:href="#DejaVuSans-63" x="1125.039062"/>
      <use xlink:href="#DejaVuSans-79" x="1180.019531"/>
     </g>
    </g>
    <g id="line2d_27">
     <path d="M 216.18875 293.004312 
L 226.18875 293.004312 
L 236.18875 293.004312 
" style="fill: none; stroke: #9467bd; stroke-width: 1.5; stroke-linecap: square"/>
    </g>
    <g id="text_25">
     <!-- SWA Robust Validation Accuracy -->
     <g transform="translate(244.18875 296.504312) scale(0.1 -0.1)">
      <use xlink:href="#DejaVuSans-53"/>
      <use xlink:href="#DejaVuSans-57" x="63.476562"/>
      <use xlink:href="#DejaVuSans-41" x="156.853516"/>
      <use xlink:href="#DejaVuSans-20" x="225.261719"/>
      <use xlink:href="#DejaVuSans-52" x="257.048828"/>
      <use xlink:href="#DejaVuSans-6f" x="322.03125"/>
      <use xlink:href="#DejaVuSans-62" x="383.212891"/>
      <use xlink:href="#DejaVuSans-75" x="446.689453"/>
      <use xlink:href="#DejaVuSans-73" x="510.068359"/>
      <use xlink:href="#DejaVuSans-74" x="562.167969"/>
      <use xlink:href="#DejaVuSans-20" x="601.376953"/>
      <use xlink:href="#DejaVuSans-56" x="633.164062"/>
      <use xlink:href="#DejaVuSans-61" x="693.822266"/>
      <use xlink:href="#DejaVuSans-6c" x="755.101562"/>
      <use xlink:href="#DejaVuSans-69" x="782.884766"/>
      <use xlink:href="#DejaVuSans-64" x="810.667969"/>
      <use xlink:href="#DejaVuSans-61" x="874.144531"/>
      <use xlink:href="#DejaVuSans-74" x="935.423828"/>
      <use xlink:href="#DejaVuSans-69" x="974.632812"/>
      <use xlink:href="#DejaVuSans-6f" x="1002.416016"/>
      <use xlink:href="#DejaVuSans-6e" x="1063.597656"/>
      <use xlink:href="#DejaVuSans-20" x="1126.976562"/>
      <use xlink:href="#DejaVuSans-41" x="1158.763672"/>
      <use xlink:href="#DejaVuSans-63" x="1225.421875"/>
      <use xlink:href="#DejaVuSans-63" x="1280.402344"/>
      <use xlink:href="#DejaVuSans-75" x="1335.382812"/>
      <use xlink:href="#DejaVuSans-72" x="1398.761719"/>
      <use xlink:href="#DejaVuSans-61" x="1439.875"/>
      <use xlink:href="#DejaVuSans-63" x="1501.154297"/>
      <use xlink:href="#DejaVuSans-79" x="1556.134766"/>
     </g>
    </g>
   </g>
  </g>
 </g>
 <defs>
  <clipPath id="p37370dfa7e">
   <rect x="57.6" y="41.472" width="357.12" height="266.112"/>
  </clipPath>
 </defs>
</svg>
