<?xml version="1.0" encoding="utf-8" standalone="no"?>
<!DOCTYPE svg PUBLIC "-//W3C//DTD SVG 1.1//EN"
  "http://www.w3.org/Graphics/SVG/1.1/DTD/svg11.dtd">
<svg xmlns:xlink="http://www.w3.org/1999/xlink" width="460.8pt" height="345.6pt" viewBox="0 0 460.8 345.6" xmlns="http://www.w3.org/2000/svg" version="1.1">
 <metadata>
  <rdf:RDF xmlns:dc="http://purl.org/dc/elements/1.1/" xmlns:cc="http://creativecommons.org/ns#" xmlns:rdf="http://www.w3.org/1999/02/22-rdf-syntax-ns#">
   <cc:Work>
    <dc:type rdf:resource="http://purl.org/dc/dcmitype/StillImage"/>
    <dc:date>2025-07-05T14:18:40.358096</dc:date>
    <dc:format>image/svg+xml</dc:format>
    <dc:creator>
     <cc:Agent>
      <dc:title>Matplotlib v3.9.1, https://matplotlib.org/</dc:title>
     </cc:Agent>
    </dc:creator>
   </cc:Work>
  </rdf:RDF>
 </metadata>
 <defs>
  <style type="text/css">*{stroke-linejoin: round; stroke-linecap: butt}</style>
 </defs>
 <g id="figure_1">
  <g id="patch_1">
   <path d="M 0 345.6 
L 460.8 345.6 
L 460.8 0 
L 0 0 
z
" style="fill: #ffffff"/>
  </g>
  <g id="axes_1">
   <g id="patch_2">
    <path d="M 57.6 307.584 
L 414.72 307.584 
L 414.72 41.472 
L 57.6 41.472 
z
" style="fill: #ffffff"/>
   </g>
   <g id="matplotlib.axis_1">
    <g id="xtick_1">
     <g id="line2d_1">
      <defs>
       <path id="m0d7ea13a6b" d="M 0 0 
L 0 3.5 
" style="stroke: #000000; stroke-width: 0.8"/>
      </defs>
      <g>
       <use xlink:href="#m0d7ea13a6b" x="73.832727" y="307.584" style="stroke: #000000; stroke-width: 0.8"/>
      </g>
     </g>
     <g id="text_1">
      <!-- 1 -->
      <g transform="translate(70.651477 322.182437) scale(0.1 -0.1)">
       <defs>
        <path id="DejaVuSans-31" d="M 794 531 
L 1825 531 
L 1825 4091 
L 703 3866 
L 703 4441 
L 1819 4666 
L 2450 4666 
L 2450 531 
L 3481 531 
L 3481 0 
L 794 0 
L 794 531 
z
" transform="scale(0.015625)"/>
       </defs>
       <use xlink:href="#DejaVuSans-31"/>
      </g>
     </g>
    </g>
    <g id="xtick_2">
     <g id="line2d_2">
      <g>
       <use xlink:href="#m0d7ea13a6b" x="109.664165" y="307.584" style="stroke: #000000; stroke-width: 0.8"/>
      </g>
     </g>
     <g id="text_2">
      <!-- 34 -->
      <g transform="translate(103.301665 322.182437) scale(0.1 -0.1)">
       <defs>
        <path id="DejaVuSans-33" d="M 2597 2516 
Q 3050 2419 3304 2112 
Q 3559 1806 3559 1356 
Q 3559 666 3084 287 
Q 2609 -91 1734 -91 
Q 1441 -91 1130 -33 
Q 819 25 488 141 
L 488 750 
Q 750 597 1062 519 
Q 1375 441 1716 441 
Q 2309 441 2620 675 
Q 2931 909 2931 1356 
Q 2931 1769 2642 2001 
Q 2353 2234 1838 2234 
L 1294 2234 
L 1294 2753 
L 1863 2753 
Q 2328 2753 2575 2939 
Q 2822 3125 2822 3475 
Q 2822 3834 2567 4026 
Q 2313 4219 1838 4219 
Q 1578 4219 1281 4162 
Q 984 4106 628 3988 
L 628 4550 
Q 988 4650 1302 4700 
Q 1616 4750 1894 4750 
Q 2613 4750 3031 4423 
Q 3450 4097 3450 3541 
Q 3450 3153 3228 2886 
Q 3006 2619 2597 2516 
z
" transform="scale(0.015625)"/>
        <path id="DejaVuSans-34" d="M 2419 4116 
L 825 1625 
L 2419 1625 
L 2419 4116 
z
M 2253 4666 
L 3047 4666 
L 3047 1625 
L 3713 1625 
L 3713 1100 
L 3047 1100 
L 3047 0 
L 2419 0 
L 2419 1100 
L 313 1100 
L 313 1709 
L 2253 4666 
z
" transform="scale(0.015625)"/>
       </defs>
       <use xlink:href="#DejaVuSans-33"/>
       <use xlink:href="#DejaVuSans-34" x="63.623047"/>
      </g>
     </g>
    </g>
    <g id="xtick_3">
     <g id="line2d_3">
      <g>
       <use xlink:href="#m0d7ea13a6b" x="145.495604" y="307.584" style="stroke: #000000; stroke-width: 0.8"/>
      </g>
     </g>
     <g id="text_3">
      <!-- 67 -->
      <g transform="translate(139.133104 322.182437) scale(0.1 -0.1)">
       <defs>
        <path id="DejaVuSans-36" d="M 2113 2584 
Q 1688 2584 1439 2293 
Q 1191 2003 1191 1497 
Q 1191 994 1439 701 
Q 1688 409 2113 409 
Q 2538 409 2786 701 
Q 3034 994 3034 1497 
Q 3034 2003 2786 2293 
Q 2538 2584 2113 2584 
z
M 3366 4563 
L 3366 3988 
Q 3128 4100 2886 4159 
Q 2644 4219 2406 4219 
Q 1781 4219 1451 3797 
Q 1122 3375 1075 2522 
Q 1259 2794 1537 2939 
Q 1816 3084 2150 3084 
Q 2853 3084 3261 2657 
Q 3669 2231 3669 1497 
Q 3669 778 3244 343 
Q 2819 -91 2113 -91 
Q 1303 -91 875 529 
Q 447 1150 447 2328 
Q 447 3434 972 4092 
Q 1497 4750 2381 4750 
Q 2619 4750 2861 4703 
Q 3103 4656 3366 4563 
z
" transform="scale(0.015625)"/>
        <path id="DejaVuSans-37" d="M 525 4666 
L 3525 4666 
L 3525 4397 
L 1831 0 
L 1172 0 
L 2766 4134 
L 525 4134 
L 525 4666 
z
" transform="scale(0.015625)"/>
       </defs>
       <use xlink:href="#DejaVuSans-36"/>
       <use xlink:href="#DejaVuSans-37" x="63.623047"/>
      </g>
     </g>
    </g>
    <g id="xtick_4">
     <g id="line2d_4">
      <g>
       <use xlink:href="#m0d7ea13a6b" x="181.327042" y="307.584" style="stroke: #000000; stroke-width: 0.8"/>
      </g>
     </g>
     <g id="text_4">
      <!-- 100 -->
      <g transform="translate(171.783292 322.182437) scale(0.1 -0.1)">
       <defs>
        <path id="DejaVuSans-30" d="M 2034 4250 
Q 1547 4250 1301 3770 
Q 1056 3291 1056 2328 
Q 1056 1369 1301 889 
Q 1547 409 2034 409 
Q 2525 409 2770 889 
Q 3016 1369 3016 2328 
Q 3016 3291 2770 3770 
Q 2525 4250 2034 4250 
z
M 2034 4750 
Q 2819 4750 3233 4129 
Q 3647 3509 3647 2328 
Q 3647 1150 3233 529 
Q 2819 -91 2034 -91 
Q 1250 -91 836 529 
Q 422 1150 422 2328 
Q 422 3509 836 4129 
Q 1250 4750 2034 4750 
z
" transform="scale(0.015625)"/>
       </defs>
       <use xlink:href="#DejaVuSans-31"/>
       <use xlink:href="#DejaVuSans-30" x="63.623047"/>
       <use xlink:href="#DejaVuSans-30" x="127.246094"/>
      </g>
     </g>
    </g>
    <g id="xtick_5">
     <g id="line2d_5">
      <g>
       <use xlink:href="#m0d7ea13a6b" x="217.15848" y="307.584" style="stroke: #000000; stroke-width: 0.8"/>
      </g>
     </g>
     <g id="text_5">
      <!-- 133 -->
      <g transform="translate(207.61473 322.182437) scale(0.1 -0.1)">
       <use xlink:href="#DejaVuSans-31"/>
       <use xlink:href="#DejaVuSans-33" x="63.623047"/>
       <use xlink:href="#DejaVuSans-33" x="127.246094"/>
      </g>
     </g>
    </g>
    <g id="xtick_6">
     <g id="line2d_6">
      <g>
       <use xlink:href="#m0d7ea13a6b" x="254.075719" y="307.584" style="stroke: #000000; stroke-width: 0.8"/>
      </g>
     </g>
     <g id="text_6">
      <!-- 167 -->
      <g transform="translate(244.531969 322.182437) scale(0.1 -0.1)">
       <use xlink:href="#DejaVuSans-31"/>
       <use xlink:href="#DejaVuSans-36" x="63.623047"/>
       <use xlink:href="#DejaVuSans-37" x="127.246094"/>
      </g>
     </g>
    </g>
    <g id="xtick_7">
     <g id="line2d_7">
      <g>
       <use xlink:href="#m0d7ea13a6b" x="289.907157" y="307.584" style="stroke: #000000; stroke-width: 0.8"/>
      </g>
     </g>
     <g id="text_7">
      <!-- 200 -->
      <g transform="translate(280.363407 322.182437) scale(0.1 -0.1)">
       <defs>
        <path id="DejaVuSans-32" d="M 1228 531 
L 3431 531 
L 3431 0 
L 469 0 
L 469 531 
Q 828 903 1448 1529 
Q 2069 2156 2228 2338 
Q 2531 2678 2651 2914 
Q 2772 3150 2772 3378 
Q 2772 3750 2511 3984 
Q 2250 4219 1831 4219 
Q 1534 4219 1204 4116 
Q 875 4013 500 3803 
L 500 4441 
Q 881 4594 1212 4672 
Q 1544 4750 1819 4750 
Q 2544 4750 2975 4387 
Q 3406 4025 3406 3419 
Q 3406 3131 3298 2873 
Q 3191 2616 2906 2266 
Q 2828 2175 2409 1742 
Q 1991 1309 1228 531 
z
" transform="scale(0.015625)"/>
       </defs>
       <use xlink:href="#DejaVuSans-32"/>
       <use xlink:href="#DejaVuSans-30" x="63.623047"/>
       <use xlink:href="#DejaVuSans-30" x="127.246094"/>
      </g>
     </g>
    </g>
    <g id="xtick_8">
     <g id="line2d_8">
      <g>
       <use xlink:href="#m0d7ea13a6b" x="325.738595" y="307.584" style="stroke: #000000; stroke-width: 0.8"/>
      </g>
     </g>
     <g id="text_8">
      <!-- 233 -->
      <g transform="translate(316.194845 322.182437) scale(0.1 -0.1)">
       <use xlink:href="#DejaVuSans-32"/>
       <use xlink:href="#DejaVuSans-33" x="63.623047"/>
       <use xlink:href="#DejaVuSans-33" x="127.246094"/>
      </g>
     </g>
    </g>
    <g id="xtick_9">
     <g id="line2d_9">
      <g>
       <use xlink:href="#m0d7ea13a6b" x="361.570033" y="307.584" style="stroke: #000000; stroke-width: 0.8"/>
      </g>
     </g>
     <g id="text_9">
      <!-- 266 -->
      <g transform="translate(352.026283 322.182437) scale(0.1 -0.1)">
       <use xlink:href="#DejaVuSans-32"/>
       <use xlink:href="#DejaVuSans-36" x="63.623047"/>
       <use xlink:href="#DejaVuSans-36" x="127.246094"/>
      </g>
     </g>
    </g>
    <g id="xtick_10">
     <g id="line2d_10">
      <g>
       <use xlink:href="#m0d7ea13a6b" x="398.487273" y="307.584" style="stroke: #000000; stroke-width: 0.8"/>
      </g>
     </g>
     <g id="text_10">
      <!-- 300 -->
      <g transform="translate(388.943523 322.182437) scale(0.1 -0.1)">
       <use xlink:href="#DejaVuSans-33"/>
       <use xlink:href="#DejaVuSans-30" x="63.623047"/>
       <use xlink:href="#DejaVuSans-30" x="127.246094"/>
      </g>
     </g>
    </g>
    <g id="text_11">
     <!-- Epochs -->
     <g transform="translate(218.244375 335.860562) scale(0.1 -0.1)">
      <defs>
       <path id="DejaVuSans-45" d="M 628 4666 
L 3578 4666 
L 3578 4134 
L 1259 4134 
L 1259 2753 
L 3481 2753 
L 3481 2222 
L 1259 2222 
L 1259 531 
L 3634 531 
L 3634 0 
L 628 0 
L 628 4666 
z
" transform="scale(0.015625)"/>
       <path id="DejaVuSans-70" d="M 1159 525 
L 1159 -1331 
L 581 -1331 
L 581 3500 
L 1159 3500 
L 1159 2969 
Q 1341 3281 1617 3432 
Q 1894 3584 2278 3584 
Q 2916 3584 3314 3078 
Q 3713 2572 3713 1747 
Q 3713 922 3314 415 
Q 2916 -91 2278 -91 
Q 1894 -91 1617 61 
Q 1341 213 1159 525 
z
M 3116 1747 
Q 3116 2381 2855 2742 
Q 2594 3103 2138 3103 
Q 1681 3103 1420 2742 
Q 1159 2381 1159 1747 
Q 1159 1113 1420 752 
Q 1681 391 2138 391 
Q 2594 391 2855 752 
Q 3116 1113 3116 1747 
z
" transform="scale(0.015625)"/>
       <path id="DejaVuSans-6f" d="M 1959 3097 
Q 1497 3097 1228 2736 
Q 959 2375 959 1747 
Q 959 1119 1226 758 
Q 1494 397 1959 397 
Q 2419 397 2687 759 
Q 2956 1122 2956 1747 
Q 2956 2369 2687 2733 
Q 2419 3097 1959 3097 
z
M 1959 3584 
Q 2709 3584 3137 3096 
Q 3566 2609 3566 1747 
Q 3566 888 3137 398 
Q 2709 -91 1959 -91 
Q 1206 -91 779 398 
Q 353 888 353 1747 
Q 353 2609 779 3096 
Q 1206 3584 1959 3584 
z
" transform="scale(0.015625)"/>
       <path id="DejaVuSans-63" d="M 3122 3366 
L 3122 2828 
Q 2878 2963 2633 3030 
Q 2388 3097 2138 3097 
Q 1578 3097 1268 2742 
Q 959 2388 959 1747 
Q 959 1106 1268 751 
Q 1578 397 2138 397 
Q 2388 397 2633 464 
Q 2878 531 3122 666 
L 3122 134 
Q 2881 22 2623 -34 
Q 2366 -91 2075 -91 
Q 1284 -91 818 406 
Q 353 903 353 1747 
Q 353 2603 823 3093 
Q 1294 3584 2113 3584 
Q 2378 3584 2631 3529 
Q 2884 3475 3122 3366 
z
" transform="scale(0.015625)"/>
       <path id="DejaVuSans-68" d="M 3513 2113 
L 3513 0 
L 2938 0 
L 2938 2094 
Q 2938 2591 2744 2837 
Q 2550 3084 2163 3084 
Q 1697 3084 1428 2787 
Q 1159 2491 1159 1978 
L 1159 0 
L 581 0 
L 581 4863 
L 1159 4863 
L 1159 2956 
Q 1366 3272 1645 3428 
Q 1925 3584 2291 3584 
Q 2894 3584 3203 3211 
Q 3513 2838 3513 2113 
z
" transform="scale(0.015625)"/>
       <path id="DejaVuSans-73" d="M 2834 3397 
L 2834 2853 
Q 2591 2978 2328 3040 
Q 2066 3103 1784 3103 
Q 1356 3103 1142 2972 
Q 928 2841 928 2578 
Q 928 2378 1081 2264 
Q 1234 2150 1697 2047 
L 1894 2003 
Q 2506 1872 2764 1633 
Q 3022 1394 3022 966 
Q 3022 478 2636 193 
Q 2250 -91 1575 -91 
Q 1294 -91 989 -36 
Q 684 19 347 128 
L 347 722 
Q 666 556 975 473 
Q 1284 391 1588 391 
Q 1994 391 2212 530 
Q 2431 669 2431 922 
Q 2431 1156 2273 1281 
Q 2116 1406 1581 1522 
L 1381 1569 
Q 847 1681 609 1914 
Q 372 2147 372 2553 
Q 372 3047 722 3315 
Q 1072 3584 1716 3584 
Q 2034 3584 2315 3537 
Q 2597 3491 2834 3397 
z
" transform="scale(0.015625)"/>
      </defs>
      <use xlink:href="#DejaVuSans-45"/>
      <use xlink:href="#DejaVuSans-70" x="63.183594"/>
      <use xlink:href="#DejaVuSans-6f" x="126.660156"/>
      <use xlink:href="#DejaVuSans-63" x="187.841797"/>
      <use xlink:href="#DejaVuSans-68" x="242.822266"/>
      <use xlink:href="#DejaVuSans-73" x="306.201172"/>
     </g>
    </g>
   </g>
   <g id="matplotlib.axis_2">
    <g id="ytick_1">
     <g id="line2d_11">
      <defs>
       <path id="mb45278e7ef" d="M 0 0 
L -3.5 0 
" style="stroke: #000000; stroke-width: 0.8"/>
      </defs>
      <g>
       <use xlink:href="#mb45278e7ef" x="57.6" y="293.142765" style="stroke: #000000; stroke-width: 0.8"/>
      </g>
     </g>
     <g id="text_12">
      <!-- 30 -->
      <g transform="translate(37.875 296.941984) scale(0.1 -0.1)">
       <use xlink:href="#DejaVuSans-33"/>
       <use xlink:href="#DejaVuSans-30" x="63.623047"/>
      </g>
     </g>
    </g>
    <g id="ytick_2">
     <g id="line2d_12">
      <g>
       <use xlink:href="#mb45278e7ef" x="57.6" y="257.062228" style="stroke: #000000; stroke-width: 0.8"/>
      </g>
     </g>
     <g id="text_13">
      <!-- 40 -->
      <g transform="translate(37.875 260.861447) scale(0.1 -0.1)">
       <use xlink:href="#DejaVuSans-34"/>
       <use xlink:href="#DejaVuSans-30" x="63.623047"/>
      </g>
     </g>
    </g>
    <g id="ytick_3">
     <g id="line2d_13">
      <g>
       <use xlink:href="#mb45278e7ef" x="57.6" y="220.981691" style="stroke: #000000; stroke-width: 0.8"/>
      </g>
     </g>
     <g id="text_14">
      <!-- 50 -->
      <g transform="translate(37.875 224.78091) scale(0.1 -0.1)">
       <defs>
        <path id="DejaVuSans-35" d="M 691 4666 
L 3169 4666 
L 3169 4134 
L 1269 4134 
L 1269 2991 
Q 1406 3038 1543 3061 
Q 1681 3084 1819 3084 
Q 2600 3084 3056 2656 
Q 3513 2228 3513 1497 
Q 3513 744 3044 326 
Q 2575 -91 1722 -91 
Q 1428 -91 1123 -41 
Q 819 9 494 109 
L 494 744 
Q 775 591 1075 516 
Q 1375 441 1709 441 
Q 2250 441 2565 725 
Q 2881 1009 2881 1497 
Q 2881 1984 2565 2268 
Q 2250 2553 1709 2553 
Q 1456 2553 1204 2497 
Q 953 2441 691 2322 
L 691 4666 
z
" transform="scale(0.015625)"/>
       </defs>
       <use xlink:href="#DejaVuSans-35"/>
       <use xlink:href="#DejaVuSans-30" x="63.623047"/>
      </g>
     </g>
    </g>
    <g id="ytick_4">
     <g id="line2d_14">
      <g>
       <use xlink:href="#mb45278e7ef" x="57.6" y="184.901154" style="stroke: #000000; stroke-width: 0.8"/>
      </g>
     </g>
     <g id="text_15">
      <!-- 60 -->
      <g transform="translate(37.875 188.700373) scale(0.1 -0.1)">
       <use xlink:href="#DejaVuSans-36"/>
       <use xlink:href="#DejaVuSans-30" x="63.623047"/>
      </g>
     </g>
    </g>
    <g id="ytick_5">
     <g id="line2d_15">
      <g>
       <use xlink:href="#mb45278e7ef" x="57.6" y="148.820617" style="stroke: #000000; stroke-width: 0.8"/>
      </g>
     </g>
     <g id="text_16">
      <!-- 70 -->
      <g transform="translate(37.875 152.619836) scale(0.1 -0.1)">
       <use xlink:href="#DejaVuSans-37"/>
       <use xlink:href="#DejaVuSans-30" x="63.623047"/>
      </g>
     </g>
    </g>
    <g id="ytick_6">
     <g id="line2d_16">
      <g>
       <use xlink:href="#mb45278e7ef" x="57.6" y="112.740081" style="stroke: #000000; stroke-width: 0.8"/>
      </g>
     </g>
     <g id="text_17">
      <!-- 80 -->
      <g transform="translate(37.875 116.539299) scale(0.1 -0.1)">
       <defs>
        <path id="DejaVuSans-38" d="M 2034 2216 
Q 1584 2216 1326 1975 
Q 1069 1734 1069 1313 
Q 1069 891 1326 650 
Q 1584 409 2034 409 
Q 2484 409 2743 651 
Q 3003 894 3003 1313 
Q 3003 1734 2745 1975 
Q 2488 2216 2034 2216 
z
M 1403 2484 
Q 997 2584 770 2862 
Q 544 3141 544 3541 
Q 544 4100 942 4425 
Q 1341 4750 2034 4750 
Q 2731 4750 3128 4425 
Q 3525 4100 3525 3541 
Q 3525 3141 3298 2862 
Q 3072 2584 2669 2484 
Q 3125 2378 3379 2068 
Q 3634 1759 3634 1313 
Q 3634 634 3220 271 
Q 2806 -91 2034 -91 
Q 1263 -91 848 271 
Q 434 634 434 1313 
Q 434 1759 690 2068 
Q 947 2378 1403 2484 
z
M 1172 3481 
Q 1172 3119 1398 2916 
Q 1625 2713 2034 2713 
Q 2441 2713 2670 2916 
Q 2900 3119 2900 3481 
Q 2900 3844 2670 4047 
Q 2441 4250 2034 4250 
Q 1625 4250 1398 4047 
Q 1172 3844 1172 3481 
z
" transform="scale(0.015625)"/>
       </defs>
       <use xlink:href="#DejaVuSans-38"/>
       <use xlink:href="#DejaVuSans-30" x="63.623047"/>
      </g>
     </g>
    </g>
    <g id="ytick_7">
     <g id="line2d_17">
      <g>
       <use xlink:href="#mb45278e7ef" x="57.6" y="76.659544" style="stroke: #000000; stroke-width: 0.8"/>
      </g>
     </g>
     <g id="text_18">
      <!-- 90 -->
      <g transform="translate(37.875 80.458762) scale(0.1 -0.1)">
       <defs>
        <path id="DejaVuSans-39" d="M 703 97 
L 703 672 
Q 941 559 1184 500 
Q 1428 441 1663 441 
Q 2288 441 2617 861 
Q 2947 1281 2994 2138 
Q 2813 1869 2534 1725 
Q 2256 1581 1919 1581 
Q 1219 1581 811 2004 
Q 403 2428 403 3163 
Q 403 3881 828 4315 
Q 1253 4750 1959 4750 
Q 2769 4750 3195 4129 
Q 3622 3509 3622 2328 
Q 3622 1225 3098 567 
Q 2575 -91 1691 -91 
Q 1453 -91 1209 -44 
Q 966 3 703 97 
z
M 1959 2075 
Q 2384 2075 2632 2365 
Q 2881 2656 2881 3163 
Q 2881 3666 2632 3958 
Q 2384 4250 1959 4250 
Q 1534 4250 1286 3958 
Q 1038 3666 1038 3163 
Q 1038 2656 1286 2365 
Q 1534 2075 1959 2075 
z
" transform="scale(0.015625)"/>
       </defs>
       <use xlink:href="#DejaVuSans-39"/>
       <use xlink:href="#DejaVuSans-30" x="63.623047"/>
      </g>
     </g>
    </g>
    <g id="text_19">
     <!-- Accuracy -->
     <g transform="translate(31.795312 197.356125) rotate(-90) scale(0.1 -0.1)">
      <defs>
       <path id="DejaVuSans-41" d="M 2188 4044 
L 1331 1722 
L 3047 1722 
L 2188 4044 
z
M 1831 4666 
L 2547 4666 
L 4325 0 
L 3669 0 
L 3244 1197 
L 1141 1197 
L 716 0 
L 50 0 
L 1831 4666 
z
" transform="scale(0.015625)"/>
       <path id="DejaVuSans-75" d="M 544 1381 
L 544 3500 
L 1119 3500 
L 1119 1403 
Q 1119 906 1312 657 
Q 1506 409 1894 409 
Q 2359 409 2629 706 
Q 2900 1003 2900 1516 
L 2900 3500 
L 3475 3500 
L 3475 0 
L 2900 0 
L 2900 538 
Q 2691 219 2414 64 
Q 2138 -91 1772 -91 
Q 1169 -91 856 284 
Q 544 659 544 1381 
z
M 1991 3584 
L 1991 3584 
z
" transform="scale(0.015625)"/>
       <path id="DejaVuSans-72" d="M 2631 2963 
Q 2534 3019 2420 3045 
Q 2306 3072 2169 3072 
Q 1681 3072 1420 2755 
Q 1159 2438 1159 1844 
L 1159 0 
L 581 0 
L 581 3500 
L 1159 3500 
L 1159 2956 
Q 1341 3275 1631 3429 
Q 1922 3584 2338 3584 
Q 2397 3584 2469 3576 
Q 2541 3569 2628 3553 
L 2631 2963 
z
" transform="scale(0.015625)"/>
       <path id="DejaVuSans-61" d="M 2194 1759 
Q 1497 1759 1228 1600 
Q 959 1441 959 1056 
Q 959 750 1161 570 
Q 1363 391 1709 391 
Q 2188 391 2477 730 
Q 2766 1069 2766 1631 
L 2766 1759 
L 2194 1759 
z
M 3341 1997 
L 3341 0 
L 2766 0 
L 2766 531 
Q 2569 213 2275 61 
Q 1981 -91 1556 -91 
Q 1019 -91 701 211 
Q 384 513 384 1019 
Q 384 1609 779 1909 
Q 1175 2209 1959 2209 
L 2766 2209 
L 2766 2266 
Q 2766 2663 2505 2880 
Q 2244 3097 1772 3097 
Q 1472 3097 1187 3025 
Q 903 2953 641 2809 
L 641 3341 
Q 956 3463 1253 3523 
Q 1550 3584 1831 3584 
Q 2591 3584 2966 3190 
Q 3341 2797 3341 1997 
z
" transform="scale(0.015625)"/>
       <path id="DejaVuSans-79" d="M 2059 -325 
Q 1816 -950 1584 -1140 
Q 1353 -1331 966 -1331 
L 506 -1331 
L 506 -850 
L 844 -850 
Q 1081 -850 1212 -737 
Q 1344 -625 1503 -206 
L 1606 56 
L 191 3500 
L 800 3500 
L 1894 763 
L 2988 3500 
L 3597 3500 
L 2059 -325 
z
" transform="scale(0.015625)"/>
      </defs>
      <use xlink:href="#DejaVuSans-41"/>
      <use xlink:href="#DejaVuSans-63" x="66.658203"/>
      <use xlink:href="#DejaVuSans-63" x="121.638672"/>
      <use xlink:href="#DejaVuSans-75" x="176.619141"/>
      <use xlink:href="#DejaVuSans-72" x="239.998047"/>
      <use xlink:href="#DejaVuSans-61" x="281.111328"/>
      <use xlink:href="#DejaVuSans-63" x="342.390625"/>
      <use xlink:href="#DejaVuSans-79" x="397.371094"/>
     </g>
    </g>
   </g>
   <g id="line2d_18">
    <path d="M 73.832727 295.488 
L 74.918528 237.479517 
L 76.00433 208.984913 
L 77.090131 189.393181 
L 78.175932 179.101208 
L 79.261733 170.234416 
L 81.433335 157.69643 
L 83.604938 147.702121 
L 84.690739 142.605745 
L 85.77654 138.92553 
L 86.862341 135.831624 
L 87.948142 132.367893 
L 89.033943 130.672107 
L 90.119745 126.324403 
L 91.205546 123.086174 
L 92.291347 122.79753 
L 93.377148 121.940617 
L 94.462949 120.641718 
L 95.54875 144.599195 
L 96.634552 145.744752 
L 98.806154 140.891919 
L 99.891955 138.005477 
L 100.977756 136.553235 
L 102.063557 134.117799 
L 103.149358 133.829154 
L 104.23516 130.275221 
L 105.320961 129.382228 
L 107.492563 126.270282 
L 108.578364 126.098899 
L 109.664165 123.185396 
L 110.749967 123.014013 
L 111.835768 120.344054 
L 112.921569 120.09149 
L 114.00737 118.711409 
L 115.093171 119.41498 
L 117.264773 114.868832 
L 118.350575 114.850792 
L 119.436376 113.569933 
L 120.522177 111.675705 
L 121.607978 110.972134 
L 122.693779 109.014765 
L 123.77958 107.97745 
L 124.865382 106.498148 
L 125.951183 105.605154 
L 127.036984 105.875758 
L 128.122785 104.216054 
L 129.208586 105.018846 
L 130.294387 102.59243 
L 131.380189 101.230389 
L 133.551791 100.319356 
L 134.637592 99.218899 
L 135.723393 98.785933 
L 136.809194 99.796188 
L 137.894995 99.95855 
L 138.980797 121.237047 
L 140.066598 122.635168 
L 141.152399 122.481826 
L 142.2382 121.46255 
L 143.324001 119.685584 
L 145.495604 120.840161 
L 146.581405 119.360859 
L 147.667206 118.900832 
L 148.753007 117.755275 
L 150.924609 117.791356 
L 152.01041 116.384215 
L 153.096212 115.779866 
L 154.182013 115.843007 
L 155.267814 114.580188 
L 156.353615 114.06604 
L 157.439416 113.741315 
L 158.525217 113.966819 
L 159.611019 112.68596 
L 160.69682 111.675705 
L 161.782621 111.892188 
L 162.868422 111.296859 
L 163.954223 112.298094 
L 165.040024 110.71055 
L 166.125825 109.564993 
L 167.211627 109.790497 
L 168.297428 108.744161 
L 169.383229 108.870443 
L 170.46903 107.788027 
L 171.554831 107.661745 
L 172.640632 108.482577 
L 173.726434 107.824107 
L 174.812235 107.598604 
L 175.898036 105.388671 
L 176.983837 106.62443 
L 178.069638 105.054926 
L 179.155439 104.585879 
L 180.24124 104.261154 
L 181.327042 104.838443 
L 182.412843 101.97906 
L 183.498644 102.962255 
L 184.584445 102.069262 
L 185.670246 101.437852 
L 186.756047 100.644081 
L 187.841849 100.138953 
L 188.92765 101.004886 
L 190.013451 99.23694 
L 191.099252 98.740832 
L 193.270854 97.072107 
L 194.356656 97.631356 
L 195.442457 96.675221 
L 196.528258 95.93557 
L 197.614059 95.683007 
L 199.785661 94.862174 
L 200.871462 94.023302 
L 201.957264 92.55302 
L 203.043065 92.643221 
L 204.128866 92.55302 
L 205.214667 92.949906 
L 206.300468 90.902336 
L 207.386269 90.947436 
L 208.472071 90.54153 
L 209.557872 90.424268 
L 210.643673 89.901101 
L 211.729474 89.513235 
L 212.815275 89.639517 
L 213.901076 89.558336 
L 214.986877 89.21557 
L 216.072679 88.178255 
L 217.15848 89.341852 
L 218.244281 89.359893 
L 219.330082 86.978577 
L 220.415883 88.575141 
L 221.501684 87.979812 
L 222.587486 87.790389 
L 223.673287 88.169235 
L 224.759088 87.880591 
L 225.844889 109.429691 
L 226.93069 111.053315 
L 229.102292 112.090631 
L 230.188094 111.513342 
L 231.273895 110.385826 
L 232.359696 110.782711 
L 233.445497 110.881933 
L 234.531298 111.224698 
L 235.617099 109.862658 
L 236.702901 109.222228 
L 237.788702 109.168107 
L 238.874503 109.781477 
L 239.960304 108.852403 
L 241.046105 107.093477 
L 242.131906 107.742926 
L 243.217708 107.688805 
L 245.38931 108.311195 
L 246.475111 107.264859 
L 247.560912 106.435007 
L 248.646713 105.902819 
L 249.732514 108.049611 
L 250.818316 107.174658 
L 251.904117 106.119302 
L 252.989918 105.686336 
L 254.075719 106.913074 
L 255.16152 105.388671 
L 256.247321 105.072966 
L 258.418924 106.290685 
L 260.590526 105.352591 
L 261.676327 105.262389 
L 262.762128 103.404242 
L 264.933731 105.036886 
L 266.019532 104.62196 
L 267.105333 103.620725 
L 268.191134 103.32306 
L 269.276935 103.377181 
L 270.362736 102.59243 
L 271.448538 103.765047 
L 273.62014 102.989315 
L 274.705941 102.763812 
L 275.791742 101.789638 
L 276.877543 101.365691 
L 277.963344 102.051221 
L 279.049146 101.26647 
L 280.134947 102.114362 
L 281.220748 101.654336 
L 282.306549 100.761342 
L 283.39235 100.048752 
L 285.563953 101.798658 
L 286.649754 100.175034 
L 287.735555 101.500993 
L 289.907157 99.850309 
L 290.992958 99.96757 
L 292.07876 99.264 
L 293.164561 100.156993 
L 294.250362 99.182819 
L 295.336163 98.479248 
L 296.421964 98.118443 
L 297.507765 99.372242 
L 298.593566 97.036027 
L 299.679368 98.001181 
L 300.765169 97.613315 
L 301.85097 97.640376 
L 302.936771 96.449718 
L 304.022572 96.088913 
L 305.108373 96.774443 
L 306.194175 95.87243 
L 307.279976 97.23447 
L 308.365777 96.648161 
L 309.451578 96.891705 
L 310.537379 95.232 
L 311.62318 96.242255 
L 312.708981 96.070872 
L 313.794783 93.806819 
L 314.880584 94.041342 
L 315.966385 95.015517 
L 317.052186 93.166389 
L 318.137987 93.761718 
L 319.223788 93.509154 
L 320.30959 94.311946 
L 321.395391 93.500134 
L 323.566993 93.464054 
L 324.652794 92.850685 
L 325.738595 91.84945 
L 326.824396 91.957691 
L 327.910198 91.533745 
L 328.995999 91.587866 
L 330.0818 91.948671 
L 331.167601 90.180725 
L 332.253402 90.063463 
L 333.339203 90.956456 
L 334.425005 90.225826 
L 335.510806 90.55957 
L 336.596607 90.595651 
L 337.682408 89.477154 
L 338.768209 89.242631 
L 339.85401 89.314792 
L 340.939811 88.629262 
L 342.025613 87.763329 
L 343.111414 88.340617 
L 344.197215 87.510765 
L 345.283016 87.546846 
L 346.368817 87.240161 
L 347.454618 87.86255 
L 348.54042 86.554631 
L 349.626221 86.581691 
L 350.712022 86.112644 
L 351.797823 85.950282 
L 352.883624 85.327893 
L 353.969425 85.787919 
L 355.055227 85.544376 
L 356.141028 84.191356 
L 357.226829 84.443919 
L 358.31263 83.767409 
L 359.398431 84.191356 
L 360.484232 82.847356 
L 361.570033 83.433664 
L 362.655835 83.614067 
L 363.741636 83.460725 
L 364.827437 83.072859 
L 365.913238 83.199141 
L 366.999039 82.847356 
L 368.08484 82.748134 
L 369.170642 83.659168 
L 370.256443 84.001933 
L 371.342244 83.83957 
L 372.428045 84.976107 
L 373.513846 85.553396 
L 374.599647 84.552161 
L 375.685448 86.166765 
L 376.77125 85.490255 
L 377.857051 85.769879 
L 378.942852 84.885906 
L 380.028653 86.247946 
L 381.114454 86.265987 
L 382.200255 85.652617 
L 383.286057 85.652617 
L 384.371858 86.870336 
L 385.457659 84.876886 
L 386.54346 85.048268 
L 387.629261 85.634577 
L 389.800863 84.786685 
L 390.886665 86.455409 
L 391.972466 85.309852 
L 393.058267 86.302067 
L 394.144068 86.753074 
L 395.229869 85.327893 
L 396.31567 85.616537 
L 397.401472 84.119195 
L 398.487273 86.121664 
L 398.487273 86.121664 
" clip-path="url(#pa884f43fa4)" style="fill: none; stroke: #1f77b4; stroke-width: 1.5; stroke-linecap: square"/>
   </g>
   <g id="line2d_19">
    <path d="M 73.832727 238.444671 
L 74.918528 167.582497 
L 76.00433 144.021906 
L 77.090131 140.377772 
L 79.261733 119.018094 
L 80.347534 114.940993 
L 81.433335 115.121396 
L 82.519137 103.756027 
L 83.604938 104.477638 
L 84.690739 95.854389 
L 85.77654 92.895785 
L 86.862341 90.370148 
L 87.948142 89.540295 
L 89.033943 84.561181 
L 90.119745 86.112644 
L 91.205546 81.205691 
L 92.291347 80.448 
L 93.377148 80.520161 
L 94.462949 79.401664 
L 95.54875 104.116832 
L 96.634552 101.771597 
L 97.720353 92.390658 
L 98.806154 96.720322 
L 99.891955 93.18443 
L 100.977756 88.890846 
L 102.063557 93.725638 
L 103.149358 87.447624 
L 104.23516 82.035544 
L 105.320961 84.128215 
L 106.406762 89.792859 
L 107.492563 89.17949 
L 108.578364 80.303678 
L 109.664165 84.669423 
L 110.749967 79.726389 
L 111.835768 79.149101 
L 112.921569 83.190121 
L 114.00737 74.38647 
L 115.093171 74.530792 
L 116.178972 76.190497 
L 117.264773 73.159732 
L 118.350575 71.896913 
L 119.436376 70.34545 
L 120.522177 69.479517 
L 121.607978 70.561933 
L 122.693779 67.386846 
L 123.77958 69.118711 
L 124.865382 67.459007 
L 125.951183 68.577503 
L 127.036984 65.727141 
L 128.122785 65.907544 
L 129.208586 64.789047 
L 130.294387 64.392161 
L 131.380189 63.526228 
L 132.46599 64.428242 
L 133.551791 63.417987 
L 134.637592 63.273664 
L 135.723393 63.381906 
L 136.809194 62.840698 
L 137.894995 62.552054 
L 138.980797 78.716134 
L 141.152399 79.870711 
L 142.2382 79.545987 
L 143.324001 78.535732 
L 144.409802 80.339758 
L 145.495604 76.659544 
L 146.581405 80.087195 
L 147.667206 78.752215 
L 148.753007 78.968698 
L 149.838808 75.035919 
L 150.924609 75.829691 
L 152.01041 78.535732 
L 153.096212 73.340134 
L 154.182013 76.046174 
L 155.267814 72.907168 
L 156.353615 76.046174 
L 158.525217 75.504966 
L 159.611019 73.195812 
L 160.69682 71.319624 
L 161.782621 77.164671 
L 162.868422 74.350389 
L 163.954223 68.613584 
L 165.040024 72.798926 
L 166.125825 70.38153 
L 167.211627 69.840322 
L 168.297428 70.778416 
L 169.383229 71.355705 
L 170.46903 70.958819 
L 171.554831 69.371275 
L 172.640632 70.778416 
L 173.726434 66.593074 
L 174.812235 67.783732 
L 175.898036 67.639409 
L 176.983837 66.376591 
L 178.069638 66.701315 
L 179.155439 66.701315 
L 180.24124 64.96945 
L 181.327042 66.34051 
L 183.498644 66.556993 
L 184.584445 64.139597 
L 185.670246 64.861208 
L 186.756047 63.273664 
L 187.841849 64.392161 
L 188.92765 62.624215 
L 190.013451 64.861208 
L 191.099252 62.371651 
L 192.185053 62.732456 
L 193.270854 62.624215 
L 194.356656 64.139597 
L 195.442457 61.541799 
L 196.528258 60.711946 
L 197.614059 60.062497 
L 198.69986 61.65004 
L 199.785661 59.62953 
L 200.871462 60.96451 
L 201.957264 60.387221 
L 203.043065 60.062497 
L 205.214667 58.583195 
L 206.300468 58.547114 
L 207.386269 58.691436 
L 208.472071 58.29455 
L 209.557872 58.474953 
L 210.643673 57.681181 
L 211.729474 57.825503 
L 213.901076 57.392537 
L 216.072679 57.464698 
L 217.15848 56.995651 
L 219.330082 56.887409 
L 221.501684 56.95957 
L 222.587486 57.212134 
L 223.673287 57.031732 
L 224.759088 57.031732 
L 225.844889 73.05149 
L 226.93069 73.195812 
L 228.016491 72.618523 
L 229.102292 78.680054 
L 230.188094 72.474201 
L 231.273895 70.020725 
L 232.359696 73.773101 
L 233.445497 74.530792 
L 234.531298 69.768161 
L 235.617099 74.927678 
L 236.702901 69.876403 
L 237.788702 70.958819 
L 238.874503 71.139221 
L 239.960304 69.623839 
L 241.046105 69.912483 
L 242.131906 68.397101 
L 243.217708 67.531168 
L 244.303509 67.278604 
L 245.38931 70.34545 
L 246.475111 69.479517 
L 247.560912 69.804242 
L 248.646713 72.149477 
L 249.732514 68.108456 
L 250.818316 66.520913 
L 251.904117 71.247463 
L 252.989918 71.391785 
L 254.075719 69.623839 
L 255.16152 69.371275 
L 256.247321 67.386846 
L 257.333123 68.433181 
L 258.418924 69.263034 
L 259.504725 69.840322 
L 260.590526 67.134282 
L 261.676327 65.149852 
L 262.762128 67.71157 
L 263.847929 68.216698 
L 264.933731 65.438497 
L 266.019532 63.526228 
L 267.105333 68.000215 
L 268.191134 66.701315 
L 269.276935 67.314685 
L 270.362736 65.546738 
L 271.448538 68.072376 
L 272.534339 65.907544 
L 273.62014 65.69106 
L 274.705941 67.062121 
L 275.791742 64.103517 
L 276.877543 65.402416 
L 277.963344 69.299114 
L 279.049146 68.397101 
L 280.134947 64.392161 
L 281.220748 65.149852 
L 282.306549 67.134282 
L 283.39235 64.283919 
L 284.478151 64.103517 
L 285.563953 65.00553 
L 286.649754 67.928054 
L 287.735555 66.881718 
L 288.821356 63.814872 
L 289.907157 65.077691 
L 290.992958 63.526228 
L 292.07876 64.464322 
L 293.164561 63.598389 
L 294.250362 66.845638 
L 295.336163 62.588134 
L 296.421964 65.727141 
L 297.507765 62.588134 
L 299.679368 62.732456 
L 301.85097 62.804617 
L 302.936771 62.407732 
L 304.022572 61.686121 
L 305.108373 62.840698 
L 306.194175 65.113772 
L 307.279976 61.794362 
L 308.365777 61.108832 
L 309.451578 63.129342 
L 310.537379 63.814872 
L 311.62318 65.438497 
L 312.708981 61.433557 
L 313.794783 63.742711 
L 314.880584 63.309745 
L 315.966385 60.820188 
L 317.052186 61.397477 
L 318.137987 61.722201 
L 319.223788 60.639785 
L 320.30959 61.866523 
L 321.395391 59.557369 
L 322.481192 60.423302 
L 323.566993 59.340886 
L 324.652794 58.980081 
L 325.738595 61.072752 
L 326.824396 58.907919 
L 327.910198 60.242899 
L 328.995999 60.711946 
L 330.0818 58.402792 
L 331.167601 57.57294 
L 333.339203 58.944 
L 334.425005 59.160483 
L 335.510806 58.691436 
L 336.596607 58.078067 
L 337.682408 58.619275 
L 338.768209 57.356456 
L 339.85401 57.392537 
L 340.939811 57.57294 
L 342.025613 58.29455 
L 343.111414 58.114148 
L 344.197215 56.743087 
L 346.368817 57.428617 
L 348.54042 57.825503 
L 349.626221 56.851329 
L 350.712022 56.310121 
L 355.055227 56.95957 
L 356.141028 55.660671 
L 357.226829 55.372027 
L 358.31263 55.660671 
L 359.398431 56.815248 
L 360.484232 54.866899 
L 361.570033 56.093638 
L 362.655835 56.201879 
L 363.741636 56.129718 
L 364.827437 54.830819 
L 365.913238 55.408107 
L 366.999039 54.361772 
L 369.170642 56.382282 
L 370.256443 56.310121 
L 371.342244 55.913235 
L 372.428045 57.825503 
L 373.513846 56.454443 
L 374.599647 55.55243 
L 375.685448 57.57294 
L 376.77125 59.052242 
L 377.857051 56.093638 
L 378.942852 55.408107 
L 381.114454 56.021477 
L 382.200255 55.768913 
L 383.286057 55.119463 
L 384.371858 57.284295 
L 385.457659 56.27404 
L 386.54346 55.985396 
L 387.629261 56.057557 
L 388.715062 55.480268 
L 389.800863 56.093638 
L 390.886665 55.949315 
L 391.972466 57.139973 
L 393.058267 57.031732 
L 394.144068 56.129718 
L 395.229869 56.707007 
L 396.31567 56.598765 
L 397.401472 58.005906 
L 398.487273 58.186309 
L 398.487273 58.186309 
" clip-path="url(#pa884f43fa4)" style="fill: none; stroke: #ff7f0e; stroke-width: 1.5; stroke-linecap: square"/>
   </g>
   <g id="line2d_20">
    <path d="M 73.832727 260.048204 
L 74.918528 207.544802 
L 76.00433 182.537257 
L 77.090131 190.624274 
L 78.175932 175.569981 
L 79.261733 168.727121 
L 80.347534 165.616729 
L 81.433335 165.865561 
L 82.519137 141.60451 
L 83.604938 152.428671 
L 84.690739 143.097498 
L 85.77654 136.005806 
L 87.948142 131.402427 
L 89.033943 126.923464 
L 90.119745 132.646584 
L 91.205546 124.061904 
L 92.291347 124.808398 
L 93.377148 122.19567 
L 94.462949 121.32476 
L 95.54875 148.696202 
L 96.634552 154.916984 
L 97.720353 137.125547 
L 98.806154 145.959058 
L 100.977756 133.89074 
L 102.063557 144.217239 
L 103.149358 129.785024 
L 104.23516 123.937489 
L 105.320961 127.794374 
L 106.406762 133.393078 
L 107.492563 135.383728 
L 108.578364 124.683982 
L 109.664165 137.498794 
L 110.749967 121.573591 
L 111.835768 118.587616 
L 112.921569 127.545542 
L 114.00737 116.099303 
L 115.093171 116.47255 
L 116.178972 116.596966 
L 117.264773 116.845797 
L 118.350575 115.228393 
L 119.436376 108.509949 
L 120.522177 110.127352 
L 121.607978 109.754105 
L 122.693779 109.754105 
L 123.77958 109.380858 
L 124.865382 107.390208 
L 125.951183 107.016961 
L 127.036984 104.901895 
L 128.122785 101.915919 
L 129.208586 101.04501 
L 130.294387 99.552022 
L 131.380189 99.925269 
L 132.46599 101.915919 
L 133.551791 98.805528 
L 134.637592 99.303191 
L 135.723393 100.671763 
L 136.809194 98.805528 
L 137.894995 97.934619 
L 138.980797 120.578266 
L 140.066598 121.573591 
L 141.152399 126.17697 
L 142.2382 123.439826 
L 143.324001 124.310735 
L 144.409802 133.268662 
L 145.495604 117.094628 
L 146.581405 122.942163 
L 147.667206 121.822423 
L 148.753007 120.329435 
L 149.838808 115.726056 
L 150.924609 116.099303 
L 152.01041 116.348134 
L 153.096212 113.735406 
L 154.182013 123.813073 
L 155.267814 111.744755 
L 156.353615 122.071254 
L 157.439416 114.4819 
L 158.525217 115.850472 
L 159.611019 113.859821 
L 160.69682 113.486574 
L 161.782621 115.974887 
L 162.868422 116.223719 
L 163.954223 108.136702 
L 165.040024 118.089953 
L 166.125825 112.864496 
L 167.211627 113.362159 
L 168.297428 111.122677 
L 169.383229 114.233068 
L 170.46903 113.486574 
L 171.554831 111.247093 
L 172.640632 112.615665 
L 173.726434 108.261117 
L 174.812235 106.021636 
L 175.898036 107.016961 
L 176.983837 103.284492 
L 178.069638 106.892545 
L 179.155439 104.777479 
L 180.24124 105.523973 
L 181.327042 103.408907 
L 182.412843 104.155401 
L 183.498644 103.782154 
L 184.584445 100.920594 
L 185.670246 103.160076 
L 186.756047 102.289166 
L 187.841849 97.810203 
L 190.013451 103.284492 
L 191.099252 97.063709 
L 192.185053 100.049685 
L 193.270854 96.939294 
L 194.356656 103.284492 
L 195.442457 96.1928 
L 196.528258 97.934619 
L 197.614059 96.690462 
L 198.69986 94.450981 
L 199.785661 91.589421 
L 200.871462 92.46033 
L 201.957264 96.1928 
L 203.043065 95.446306 
L 204.128866 95.32189 
L 205.214667 90.842927 
L 206.300468 91.713837 
L 207.386269 91.962668 
L 208.472071 89.101108 
L 209.557872 90.220849 
L 210.643673 88.603445 
L 211.729474 92.833577 
L 212.815275 89.723186 
L 213.901076 89.225524 
L 214.986877 88.852277 
L 216.072679 89.349939 
L 217.15848 89.225524 
L 218.244281 88.727861 
L 219.330082 89.349939 
L 220.415883 88.230199 
L 221.501684 88.230199 
L 222.587486 87.856952 
L 223.673287 89.101108 
L 224.759088 89.723186 
L 225.844889 114.606315 
L 226.93069 112.740081 
L 228.016491 111.744755 
L 229.102292 121.32476 
L 230.188094 113.735406 
L 231.273895 108.75878 
L 232.359696 115.477225 
L 233.445497 118.587616 
L 234.531298 107.390208 
L 235.617099 121.822423 
L 236.702901 108.012286 
L 237.788702 116.099303 
L 238.874503 110.625015 
L 239.960304 113.362159 
L 241.046105 110.74943 
L 242.131906 111.122677 
L 243.217708 108.75878 
L 244.303509 110.998262 
L 245.38931 110.376183 
L 246.475111 109.505274 
L 247.560912 108.883196 
L 248.646713 106.021636 
L 249.732514 105.399558 
L 250.818316 101.542673 
L 252.989918 120.827097 
L 254.075719 111.62034 
L 255.16152 106.892545 
L 256.247321 104.777479 
L 257.333123 111.247093 
L 258.418924 105.89722 
L 259.504725 111.744755 
L 260.590526 110.625015 
L 261.676327 105.89722 
L 262.762128 112.740081 
L 263.847929 107.514623 
L 264.933731 100.920594 
L 266.019532 104.279817 
L 267.105333 111.744755 
L 268.191134 107.88787 
L 269.276935 99.925269 
L 270.362736 102.413582 
L 271.448538 106.394883 
L 272.534339 99.676438 
L 273.62014 104.030985 
L 274.705941 102.786829 
L 275.791742 100.298516 
L 276.877543 100.547347 
L 277.963344 108.012286 
L 279.049146 106.270467 
L 280.134947 101.667088 
L 281.220748 103.533323 
L 282.306549 108.012286 
L 283.39235 102.289166 
L 284.478151 99.178775 
L 285.563953 105.399558 
L 286.649754 105.275142 
L 287.735555 103.657738 
L 288.821356 105.026311 
L 289.907157 107.016961 
L 290.992958 99.05436 
L 292.07876 102.040335 
L 293.164561 100.920594 
L 294.250362 105.89722 
L 295.336163 100.671763 
L 296.421964 107.763455 
L 297.507765 100.671763 
L 298.593566 98.556697 
L 299.679368 96.814878 
L 300.765169 103.782154 
L 301.85097 96.939294 
L 302.936771 99.552022 
L 304.022572 96.690462 
L 305.108373 101.293841 
L 306.194175 97.436956 
L 307.279976 99.552022 
L 308.365777 97.188125 
L 309.451578 96.441631 
L 310.537379 96.690462 
L 311.62318 103.533323 
L 312.708981 97.561372 
L 313.794783 100.796179 
L 314.880584 98.681113 
L 315.966385 94.948643 
L 317.052186 96.939294 
L 318.137987 97.188125 
L 319.223788 92.211499 
L 320.30959 95.073059 
L 321.395391 94.20215 
L 322.481192 95.570722 
L 323.566993 90.967343 
L 324.652794 92.335915 
L 326.824396 90.345265 
L 327.910198 91.34059 
L 328.995999 93.704487 
L 330.0818 91.589421 
L 331.167601 91.713837 
L 332.253402 89.474355 
L 333.339203 93.082409 
L 334.425005 88.976692 
L 335.510806 90.842927 
L 336.596607 91.465005 
L 337.682408 90.594096 
L 338.768209 86.986042 
L 339.85401 87.60812 
L 340.939811 87.110458 
L 342.025613 90.345265 
L 343.111414 88.354614 
L 344.197215 87.359289 
L 346.368817 86.115133 
L 347.454618 89.225524 
L 348.54042 89.723186 
L 349.626221 84.870976 
L 350.712022 85.866301 
L 351.797823 84.622145 
L 352.883624 87.732536 
L 353.969425 84.622145 
L 355.055227 85.61747 
L 356.141028 85.866301 
L 357.226829 85.866301 
L 358.31263 86.115133 
L 359.398431 87.234873 
L 360.484232 85.368639 
L 361.570033 85.368639 
L 362.655835 84.995392 
L 363.741636 86.737211 
L 364.827437 83.004741 
L 365.913238 82.75591 
L 366.999039 80.143182 
L 368.08484 83.129157 
L 369.170642 85.493054 
L 370.256443 83.129157 
L 371.342244 85.61747 
L 372.428045 86.861626 
L 373.513846 86.363964 
L 374.599647 84.497729 
L 375.685448 87.110458 
L 376.77125 88.852277 
L 377.857051 84.622145 
L 378.942852 82.507079 
L 380.028653 87.483705 
L 381.114454 88.354614 
L 382.200255 83.875651 
L 383.286057 86.115133 
L 384.371858 89.225524 
L 385.457659 84.497729 
L 386.54346 86.363964 
L 387.629261 87.60812 
L 388.715062 85.61747 
L 389.800863 88.47903 
L 390.886665 87.60812 
L 391.972466 88.47903 
L 395.229869 86.239548 
L 396.31567 85.119807 
L 397.401472 89.474355 
L 398.487273 90.096433 
L 398.487273 90.096433 
" clip-path="url(#pa884f43fa4)" style="fill: none; stroke: #2ca02c; stroke-width: 1.5; stroke-linecap: square"/>
   </g>
   <g id="line2d_21">
    <path d="M 368.08484 54.073128 
L 369.170642 54.325691 
L 370.256443 54.325691 
L 371.342244 54.794738 
L 372.428045 55.444188 
L 373.513846 54.506094 
L 374.599647 54.145289 
L 375.685448 55.58851 
L 376.77125 54.90298 
L 377.857051 54.93906 
L 381.114454 54.325691 
L 382.200255 54.542174 
L 383.286057 54.289611 
L 384.371858 54.794738 
L 385.457659 54.758658 
L 386.54346 54.578255 
L 387.629261 55.696752 
L 388.715062 55.047302 
L 389.800863 55.191624 
L 390.886665 53.568 
L 391.972466 54.506094 
L 393.058267 54.758658 
L 394.144068 55.155544 
L 395.229869 54.181369 
L 396.31567 54.90298 
L 398.487273 53.784483 
L 398.487273 53.784483 
" clip-path="url(#pa884f43fa4)" style="fill: none; stroke: #d62728; stroke-width: 1.5; stroke-linecap: square"/>
   </g>
   <g id="line2d_22">
    <path d="M 368.08484 81.511754 
L 369.170642 82.133832 
L 370.256443 79.521103 
L 371.342244 81.014091 
L 372.428045 83.129157 
L 373.513846 82.631495 
L 374.599647 83.377988 
L 375.685448 84.995392 
L 376.77125 83.751235 
L 377.857051 81.262922 
L 378.942852 80.889676 
L 380.028653 80.640844 
L 381.114454 80.267597 
L 382.200255 82.009416 
L 383.286057 79.272272 
L 384.371858 85.368639 
L 385.457659 82.382663 
L 386.54346 82.258248 
L 387.629261 87.483705 
L 388.715062 82.880326 
L 389.800863 83.377988 
L 390.886665 81.138507 
L 391.972466 81.387338 
L 393.058267 82.133832 
L 394.144068 80.516429 
L 395.229869 80.889676 
L 396.31567 83.253573 
L 397.401472 82.009416 
L 398.487273 81.760585 
L 398.487273 81.760585 
" clip-path="url(#pa884f43fa4)" style="fill: none; stroke: #9467bd; stroke-width: 1.5; stroke-linecap: square"/>
   </g>
   <g id="patch_3">
    <path d="M 57.6 307.584 
L 57.6 41.472 
" style="fill: none; stroke: #000000; stroke-width: 0.8; stroke-linejoin: miter; stroke-linecap: square"/>
   </g>
   <g id="patch_4">
    <path d="M 414.72 307.584 
L 414.72 41.472 
" style="fill: none; stroke: #000000; stroke-width: 0.8; stroke-linejoin: miter; stroke-linecap: square"/>
   </g>
   <g id="patch_5">
    <path d="M 57.6 307.584 
L 414.72 307.584 
" style="fill: none; stroke: #000000; stroke-width: 0.8; stroke-linejoin: miter; stroke-linecap: square"/>
   </g>
   <g id="patch_6">
    <path d="M 57.6 41.472 
L 414.72 41.472 
" style="fill: none; stroke: #000000; stroke-width: 0.8; stroke-linejoin: miter; stroke-linecap: square"/>
   </g>
   <g id="text_20">
    <!-- Learning Curves -->
    <g transform="translate(187.37625 35.472) scale(0.12 -0.12)">
     <defs>
      <path id="DejaVuSans-4c" d="M 628 4666 
L 1259 4666 
L 1259 531 
L 3531 531 
L 3531 0 
L 628 0 
L 628 4666 
z
" transform="scale(0.015625)"/>
      <path id="DejaVuSans-65" d="M 3597 1894 
L 3597 1613 
L 953 1613 
Q 991 1019 1311 708 
Q 1631 397 2203 397 
Q 2534 397 2845 478 
Q 3156 559 3463 722 
L 3463 178 
Q 3153 47 2828 -22 
Q 2503 -91 2169 -91 
Q 1331 -91 842 396 
Q 353 884 353 1716 
Q 353 2575 817 3079 
Q 1281 3584 2069 3584 
Q 2775 3584 3186 3129 
Q 3597 2675 3597 1894 
z
M 3022 2063 
Q 3016 2534 2758 2815 
Q 2500 3097 2075 3097 
Q 1594 3097 1305 2825 
Q 1016 2553 972 2059 
L 3022 2063 
z
" transform="scale(0.015625)"/>
      <path id="DejaVuSans-6e" d="M 3513 2113 
L 3513 0 
L 2938 0 
L 2938 2094 
Q 2938 2591 2744 2837 
Q 2550 3084 2163 3084 
Q 1697 3084 1428 2787 
Q 1159 2491 1159 1978 
L 1159 0 
L 581 0 
L 581 3500 
L 1159 3500 
L 1159 2956 
Q 1366 3272 1645 3428 
Q 1925 3584 2291 3584 
Q 2894 3584 3203 3211 
Q 3513 2838 3513 2113 
z
" transform="scale(0.015625)"/>
      <path id="DejaVuSans-69" d="M 603 3500 
L 1178 3500 
L 1178 0 
L 603 0 
L 603 3500 
z
M 603 4863 
L 1178 4863 
L 1178 4134 
L 603 4134 
L 603 4863 
z
" transform="scale(0.015625)"/>
      <path id="DejaVuSans-67" d="M 2906 1791 
Q 2906 2416 2648 2759 
Q 2391 3103 1925 3103 
Q 1463 3103 1205 2759 
Q 947 2416 947 1791 
Q 947 1169 1205 825 
Q 1463 481 1925 481 
Q 2391 481 2648 825 
Q 2906 1169 2906 1791 
z
M 3481 434 
Q 3481 -459 3084 -895 
Q 2688 -1331 1869 -1331 
Q 1566 -1331 1297 -1286 
Q 1028 -1241 775 -1147 
L 775 -588 
Q 1028 -725 1275 -790 
Q 1522 -856 1778 -856 
Q 2344 -856 2625 -561 
Q 2906 -266 2906 331 
L 2906 616 
Q 2728 306 2450 153 
Q 2172 0 1784 0 
Q 1141 0 747 490 
Q 353 981 353 1791 
Q 353 2603 747 3093 
Q 1141 3584 1784 3584 
Q 2172 3584 2450 3431 
Q 2728 3278 2906 2969 
L 2906 3500 
L 3481 3500 
L 3481 434 
z
" transform="scale(0.015625)"/>
      <path id="DejaVuSans-20" transform="scale(0.015625)"/>
      <path id="DejaVuSans-43" d="M 4122 4306 
L 4122 3641 
Q 3803 3938 3442 4084 
Q 3081 4231 2675 4231 
Q 1875 4231 1450 3742 
Q 1025 3253 1025 2328 
Q 1025 1406 1450 917 
Q 1875 428 2675 428 
Q 3081 428 3442 575 
Q 3803 722 4122 1019 
L 4122 359 
Q 3791 134 3420 21 
Q 3050 -91 2638 -91 
Q 1578 -91 968 557 
Q 359 1206 359 2328 
Q 359 3453 968 4101 
Q 1578 4750 2638 4750 
Q 3056 4750 3426 4639 
Q 3797 4528 4122 4306 
z
" transform="scale(0.015625)"/>
      <path id="DejaVuSans-76" d="M 191 3500 
L 800 3500 
L 1894 563 
L 2988 3500 
L 3597 3500 
L 2284 0 
L 1503 0 
L 191 3500 
z
" transform="scale(0.015625)"/>
     </defs>
     <use xlink:href="#DejaVuSans-4c"/>
     <use xlink:href="#DejaVuSans-65" x="53.962891"/>
     <use xlink:href="#DejaVuSans-61" x="115.486328"/>
     <use xlink:href="#DejaVuSans-72" x="176.765625"/>
     <use xlink:href="#DejaVuSans-6e" x="216.128906"/>
     <use xlink:href="#DejaVuSans-69" x="279.507812"/>
     <use xlink:href="#DejaVuSans-6e" x="307.291016"/>
     <use xlink:href="#DejaVuSans-67" x="370.669922"/>
     <use xlink:href="#DejaVuSans-20" x="434.146484"/>
     <use xlink:href="#DejaVuSans-43" x="465.933594"/>
     <use xlink:href="#DejaVuSans-75" x="535.757812"/>
     <use xlink:href="#DejaVuSans-72" x="599.136719"/>
     <use xlink:href="#DejaVuSans-76" x="640.25"/>
     <use xlink:href="#DejaVuSans-65" x="699.429688"/>
     <use xlink:href="#DejaVuSans-73" x="760.953125"/>
    </g>
   </g>
   <g id="legend_1">
    <g id="patch_7">
     <path d="M 214.18875 302.584 
L 407.72 302.584 
Q 409.72 302.584 409.72 300.584 
L 409.72 228.193375 
Q 409.72 226.193375 407.72 226.193375 
L 214.18875 226.193375 
Q 212.18875 226.193375 212.18875 228.193375 
L 212.18875 300.584 
Q 212.18875 302.584 214.18875 302.584 
z
" style="fill: #ffffff; opacity: 0.8; stroke: #cccccc; stroke-linejoin: miter"/>
    </g>
    <g id="line2d_23">
     <path d="M 216.18875 234.291812 
L 226.18875 234.291812 
L 236.18875 234.291812 
" style="fill: none; stroke: #1f77b4; stroke-width: 1.5; stroke-linecap: square"/>
    </g>
    <g id="text_21">
     <!-- Train Accuracy -->
     <g transform="translate(244.18875 237.791812) scale(0.1 -0.1)">
      <defs>
       <path id="DejaVuSans-54" d="M -19 4666 
L 3928 4666 
L 3928 4134 
L 2272 4134 
L 2272 0 
L 1638 0 
L 1638 4134 
L -19 4134 
L -19 4666 
z
" transform="scale(0.015625)"/>
      </defs>
      <use xlink:href="#DejaVuSans-54"/>
      <use xlink:href="#DejaVuSans-72" x="46.333984"/>
      <use xlink:href="#DejaVuSans-61" x="87.447266"/>
      <use xlink:href="#DejaVuSans-69" x="148.726562"/>
      <use xlink:href="#DejaVuSans-6e" x="176.509766"/>
      <use xlink:href="#DejaVuSans-20" x="239.888672"/>
      <use xlink:href="#DejaVuSans-41" x="271.675781"/>
      <use xlink:href="#DejaVuSans-63" x="338.333984"/>
      <use xlink:href="#DejaVuSans-63" x="393.314453"/>
      <use xlink:href="#DejaVuSans-75" x="448.294922"/>
      <use xlink:href="#DejaVuSans-72" x="511.673828"/>
      <use xlink:href="#DejaVuSans-61" x="552.787109"/>
      <use xlink:href="#DejaVuSans-63" x="614.066406"/>
      <use xlink:href="#DejaVuSans-79" x="669.046875"/>
     </g>
    </g>
    <g id="line2d_24">
     <path d="M 216.18875 248.969937 
L 226.18875 248.969937 
L 236.18875 248.969937 
" style="fill: none; stroke: #ff7f0e; stroke-width: 1.5; stroke-linecap: square"/>
    </g>
    <g id="text_22">
     <!-- Validation Accuracy -->
     <g transform="translate(244.18875 252.469937) scale(0.1 -0.1)">
      <defs>
       <path id="DejaVuSans-56" d="M 1831 0 
L 50 4666 
L 709 4666 
L 2188 738 
L 3669 4666 
L 4325 4666 
L 2547 0 
L 1831 0 
z
" transform="scale(0.015625)"/>
       <path id="DejaVuSans-6c" d="M 603 4863 
L 1178 4863 
L 1178 0 
L 603 0 
L 603 4863 
z
" transform="scale(0.015625)"/>
       <path id="DejaVuSans-64" d="M 2906 2969 
L 2906 4863 
L 3481 4863 
L 3481 0 
L 2906 0 
L 2906 525 
Q 2725 213 2448 61 
Q 2172 -91 1784 -91 
Q 1150 -91 751 415 
Q 353 922 353 1747 
Q 353 2572 751 3078 
Q 1150 3584 1784 3584 
Q 2172 3584 2448 3432 
Q 2725 3281 2906 2969 
z
M 947 1747 
Q 947 1113 1208 752 
Q 1469 391 1925 391 
Q 2381 391 2643 752 
Q 2906 1113 2906 1747 
Q 2906 2381 2643 2742 
Q 2381 3103 1925 3103 
Q 1469 3103 1208 2742 
Q 947 2381 947 1747 
z
" transform="scale(0.015625)"/>
       <path id="DejaVuSans-74" d="M 1172 4494 
L 1172 3500 
L 2356 3500 
L 2356 3053 
L 1172 3053 
L 1172 1153 
Q 1172 725 1289 603 
Q 1406 481 1766 481 
L 2356 481 
L 2356 0 
L 1766 0 
Q 1100 0 847 248 
Q 594 497 594 1153 
L 594 3053 
L 172 3053 
L 172 3500 
L 594 3500 
L 594 4494 
L 1172 4494 
z
" transform="scale(0.015625)"/>
      </defs>
      <use xlink:href="#DejaVuSans-56"/>
      <use xlink:href="#DejaVuSans-61" x="60.658203"/>
      <use xlink:href="#DejaVuSans-6c" x="121.9375"/>
      <use xlink:href="#DejaVuSans-69" x="149.720703"/>
      <use xlink:href="#DejaVuSans-64" x="177.503906"/>
      <use xlink:href="#DejaVuSans-61" x="240.980469"/>
      <use xlink:href="#DejaVuSans-74" x="302.259766"/>
      <use xlink:href="#DejaVuSans-69" x="341.46875"/>
      <use xlink:href="#DejaVuSans-6f" x="369.251953"/>
      <use xlink:href="#DejaVuSans-6e" x="430.433594"/>
      <use xlink:href="#DejaVuSans-20" x="493.8125"/>
      <use xlink:href="#DejaVuSans-41" x="525.599609"/>
      <use xlink:href="#DejaVuSans-63" x="592.257812"/>
      <use xlink:href="#DejaVuSans-63" x="647.238281"/>
      <use xlink:href="#DejaVuSans-75" x="702.21875"/>
      <use xlink:href="#DejaVuSans-72" x="765.597656"/>
      <use xlink:href="#DejaVuSans-61" x="806.710938"/>
      <use xlink:href="#DejaVuSans-63" x="867.990234"/>
      <use xlink:href="#DejaVuSans-79" x="922.970703"/>
     </g>
    </g>
    <g id="line2d_25">
     <path d="M 216.18875 263.648062 
L 226.18875 263.648062 
L 236.18875 263.648062 
" style="fill: none; stroke: #2ca02c; stroke-width: 1.5; stroke-linecap: square"/>
    </g>
    <g id="text_23">
     <!-- Robust Validation Accuracy -->
     <g transform="translate(244.18875 267.148062) scale(0.1 -0.1)">
      <defs>
       <path id="DejaVuSans-52" d="M 2841 2188 
Q 3044 2119 3236 1894 
Q 3428 1669 3622 1275 
L 4263 0 
L 3584 0 
L 2988 1197 
Q 2756 1666 2539 1819 
Q 2322 1972 1947 1972 
L 1259 1972 
L 1259 0 
L 628 0 
L 628 4666 
L 2053 4666 
Q 2853 4666 3247 4331 
Q 3641 3997 3641 3322 
Q 3641 2881 3436 2590 
Q 3231 2300 2841 2188 
z
M 1259 4147 
L 1259 2491 
L 2053 2491 
Q 2509 2491 2742 2702 
Q 2975 2913 2975 3322 
Q 2975 3731 2742 3939 
Q 2509 4147 2053 4147 
L 1259 4147 
z
" transform="scale(0.015625)"/>
       <path id="DejaVuSans-62" d="M 3116 1747 
Q 3116 2381 2855 2742 
Q 2594 3103 2138 3103 
Q 1681 3103 1420 2742 
Q 1159 2381 1159 1747 
Q 1159 1113 1420 752 
Q 1681 391 2138 391 
Q 2594 391 2855 752 
Q 3116 1113 3116 1747 
z
M 1159 2969 
Q 1341 3281 1617 3432 
Q 1894 3584 2278 3584 
Q 2916 3584 3314 3078 
Q 3713 2572 3713 1747 
Q 3713 922 3314 415 
Q 2916 -91 2278 -91 
Q 1894 -91 1617 61 
Q 1341 213 1159 525 
L 1159 0 
L 581 0 
L 581 4863 
L 1159 4863 
L 1159 2969 
z
" transform="scale(0.015625)"/>
      </defs>
      <use xlink:href="#DejaVuSans-52"/>
      <use xlink:href="#DejaVuSans-6f" x="64.982422"/>
      <use xlink:href="#DejaVuSans-62" x="126.164062"/>
      <use xlink:href="#DejaVuSans-75" x="189.640625"/>
      <use xlink:href="#DejaVuSans-73" x="253.019531"/>
      <use xlink:href="#DejaVuSans-74" x="305.119141"/>
      <use xlink:href="#DejaVuSans-20" x="344.328125"/>
      <use xlink:href="#DejaVuSans-56" x="376.115234"/>
      <use xlink:href="#DejaVuSans-61" x="436.773438"/>
      <use xlink:href="#DejaVuSans-6c" x="498.052734"/>
      <use xlink:href="#DejaVuSans-69" x="525.835938"/>
      <use xlink:href="#DejaVuSans-64" x="553.619141"/>
      <use xlink:href="#DejaVuSans-61" x="617.095703"/>
      <use xlink:href="#DejaVuSans-74" x="678.375"/>
      <use xlink:href="#DejaVuSans-69" x="717.583984"/>
      <use xlink:href="#DejaVuSans-6f" x="745.367188"/>
      <use xlink:href="#DejaVuSans-6e" x="806.548828"/>
      <use xlink:href="#DejaVuSans-20" x="869.927734"/>
      <use xlink:href="#DejaVuSans-41" x="901.714844"/>
      <use xlink:href="#DejaVuSans-63" x="968.373047"/>
      <use xlink:href="#DejaVuSans-63" x="1023.353516"/>
      <use xlink:href="#DejaVuSans-75" x="1078.333984"/>
      <use xlink:href="#DejaVuSans-72" x="1141.712891"/>
      <use xlink:href="#DejaVuSans-61" x="1182.826172"/>
      <use xlink:href="#DejaVuSans-63" x="1244.105469"/>
      <use xlink:href="#DejaVuSans-79" x="1299.085938"/>
     </g>
    </g>
    <g id="line2d_26">
     <path d="M 216.18875 278.326188 
L 226.18875 278.326188 
L 236.18875 278.326188 
" style="fill: none; stroke: #d62728; stroke-width: 1.5; stroke-linecap: square"/>
    </g>
    <g id="text_24">
     <!-- SWA Validation Accuracy -->
     <g transform="translate(244.18875 281.826188) scale(0.1 -0.1)">
      <defs>
       <path id="DejaVuSans-53" d="M 3425 4513 
L 3425 3897 
Q 3066 4069 2747 4153 
Q 2428 4238 2131 4238 
Q 1616 4238 1336 4038 
Q 1056 3838 1056 3469 
Q 1056 3159 1242 3001 
Q 1428 2844 1947 2747 
L 2328 2669 
Q 3034 2534 3370 2195 
Q 3706 1856 3706 1288 
Q 3706 609 3251 259 
Q 2797 -91 1919 -91 
Q 1588 -91 1214 -16 
Q 841 59 441 206 
L 441 856 
Q 825 641 1194 531 
Q 1563 422 1919 422 
Q 2459 422 2753 634 
Q 3047 847 3047 1241 
Q 3047 1584 2836 1778 
Q 2625 1972 2144 2069 
L 1759 2144 
Q 1053 2284 737 2584 
Q 422 2884 422 3419 
Q 422 4038 858 4394 
Q 1294 4750 2059 4750 
Q 2388 4750 2728 4690 
Q 3069 4631 3425 4513 
z
" transform="scale(0.015625)"/>
       <path id="DejaVuSans-57" d="M 213 4666 
L 850 4666 
L 1831 722 
L 2809 4666 
L 3519 4666 
L 4500 722 
L 5478 4666 
L 6119 4666 
L 4947 0 
L 4153 0 
L 3169 4050 
L 2175 0 
L 1381 0 
L 213 4666 
z
" transform="scale(0.015625)"/>
      </defs>
      <use xlink:href="#DejaVuSans-53"/>
      <use xlink:href="#DejaVuSans-57" x="63.476562"/>
      <use xlink:href="#DejaVuSans-41" x="156.853516"/>
      <use xlink:href="#DejaVuSans-20" x="225.261719"/>
      <use xlink:href="#DejaVuSans-56" x="257.048828"/>
      <use xlink:href="#DejaVuSans-61" x="317.707031"/>
      <use xlink:href="#DejaVuSans-6c" x="378.986328"/>
      <use xlink:href="#DejaVuSans-69" x="406.769531"/>
      <use xlink:href="#DejaVuSans-64" x="434.552734"/>
      <use xlink:href="#DejaVuSans-61" x="498.029297"/>
      <use xlink:href="#DejaVuSans-74" x="559.308594"/>
      <use xlink:href="#DejaVuSans-69" x="598.517578"/>
      <use xlink:href="#DejaVuSans-6f" x="626.300781"/>
      <use xlink:href="#DejaVuSans-6e" x="687.482422"/>
      <use xlink:href="#DejaVuSans-20" x="750.861328"/>
      <use xlink:href="#DejaVuSans-41" x="782.648438"/>
      <use xlink:href="#DejaVuSans-63" x="849.306641"/>
      <use xlink:href="#DejaVuSans-63" x="904.287109"/>
      <use xlink:href="#DejaVuSans-75" x="959.267578"/>
      <use xlink:href="#DejaVuSans-72" x="1022.646484"/>
      <use xlink:href="#DejaVuSans-61" x="1063.759766"/>
      <use xlink:href="#DejaVuSans-63" x="1125.039062"/>
      <use xlink:href="#DejaVuSans-79" x="1180.019531"/>
     </g>
    </g>
    <g id="line2d_27">
     <path d="M 216.18875 293.004312 
L 226.18875 293.004312 
L 236.18875 293.004312 
" style="fill: none; stroke: #9467bd; stroke-width: 1.5; stroke-linecap: square"/>
    </g>
    <g id="text_25">
     <!-- SWA Robust Validation Accuracy -->
     <g transform="translate(244.18875 296.504312) scale(0.1 -0.1)">
      <use xlink:href="#DejaVuSans-53"/>
      <use xlink:href="#DejaVuSans-57" x="63.476562"/>
      <use xlink:href="#DejaVuSans-41" x="156.853516"/>
      <use xlink:href="#DejaVuSans-20" x="225.261719"/>
      <use xlink:href="#DejaVuSans-52" x="257.048828"/>
      <use xlink:href="#DejaVuSans-6f" x="322.03125"/>
      <use xlink:href="#DejaVuSans-62" x="383.212891"/>
      <use xlink:href="#DejaVuSans-75" x="446.689453"/>
      <use xlink:href="#DejaVuSans-73" x="510.068359"/>
      <use xlink:href="#DejaVuSans-74" x="562.167969"/>
      <use xlink:href="#DejaVuSans-20" x="601.376953"/>
      <use xlink:href="#DejaVuSans-56" x="633.164062"/>
      <use xlink:href="#DejaVuSans-61" x="693.822266"/>
      <use xlink:href="#DejaVuSans-6c" x="755.101562"/>
      <use xlink:href="#DejaVuSans-69" x="782.884766"/>
      <use xlink:href="#DejaVuSans-64" x="810.667969"/>
      <use xlink:href="#DejaVuSans-61" x="874.144531"/>
      <use xlink:href="#DejaVuSans-74" x="935.423828"/>
      <use xlink:href="#DejaVuSans-69" x="974.632812"/>
      <use xlink:href="#DejaVuSans-6f" x="1002.416016"/>
      <use xlink:href="#DejaVuSans-6e" x="1063.597656"/>
      <use xlink:href="#DejaVuSans-20" x="1126.976562"/>
      <use xlink:href="#DejaVuSans-41" x="1158.763672"/>
      <use xlink:href="#DejaVuSans-63" x="1225.421875"/>
      <use xlink:href="#DejaVuSans-63" x="1280.402344"/>
      <use xlink:href="#DejaVuSans-75" x="1335.382812"/>
      <use xlink:href="#DejaVuSans-72" x="1398.761719"/>
      <use xlink:href="#DejaVuSans-61" x="1439.875"/>
      <use xlink:href="#DejaVuSans-63" x="1501.154297"/>
      <use xlink:href="#DejaVuSans-79" x="1556.134766"/>
     </g>
    </g>
   </g>
  </g>
 </g>
 <defs>
  <clipPath id="pa884f43fa4">
   <rect x="57.6" y="41.472" width="357.12" height="266.112"/>
  </clipPath>
 </defs>
</svg>
