<?xml version="1.0" encoding="utf-8" standalone="no"?>
<!DOCTYPE svg PUBLIC "-//W3C//DTD SVG 1.1//EN"
  "http://www.w3.org/Graphics/SVG/1.1/DTD/svg11.dtd">
<svg xmlns:xlink="http://www.w3.org/1999/xlink" width="460.8pt" height="345.6pt" viewBox="0 0 460.8 345.6" xmlns="http://www.w3.org/2000/svg" version="1.1">
 <metadata>
  <rdf:RDF xmlns:dc="http://purl.org/dc/elements/1.1/" xmlns:cc="http://creativecommons.org/ns#" xmlns:rdf="http://www.w3.org/1999/02/22-rdf-syntax-ns#">
   <cc:Work>
    <dc:type rdf:resource="http://purl.org/dc/dcmitype/StillImage"/>
    <dc:date>2025-01-23T14:25:57.668358</dc:date>
    <dc:format>image/svg+xml</dc:format>
    <dc:creator>
     <cc:Agent>
      <dc:title>Matplotlib v3.9.1, https://matplotlib.org/</dc:title>
     </cc:Agent>
    </dc:creator>
   </cc:Work>
  </rdf:RDF>
 </metadata>
 <defs>
  <style type="text/css">*{stroke-linejoin: round; stroke-linecap: butt}</style>
 </defs>
 <g id="figure_1">
  <g id="patch_1">
   <path d="M 0 345.6 
L 460.8 345.6 
L 460.8 0 
L 0 0 
z
" style="fill: #ffffff"/>
  </g>
  <g id="axes_1">
   <g id="patch_2">
    <path d="M 57.6 307.584 
L 414.72 307.584 
L 414.72 41.472 
L 57.6 41.472 
z
" style="fill: #ffffff"/>
   </g>
   <g id="matplotlib.axis_1">
    <g id="xtick_1">
     <g id="line2d_1">
      <defs>
       <path id="m52bf3672cb" d="M 0 0 
L 0 3.5 
" style="stroke: #000000; stroke-width: 0.8"/>
      </defs>
      <g>
       <use xlink:href="#m52bf3672cb" x="73.832727" y="307.584" style="stroke: #000000; stroke-width: 0.8"/>
      </g>
     </g>
     <g id="text_1">
      <!-- 1 -->
      <g transform="translate(70.651477 322.182437) scale(0.1 -0.1)">
       <defs>
        <path id="DejaVuSans-31" d="M 794 531 
L 1825 531 
L 1825 4091 
L 703 3866 
L 703 4441 
L 1819 4666 
L 2450 4666 
L 2450 531 
L 3481 531 
L 3481 0 
L 794 0 
L 794 531 
z
" transform="scale(0.015625)"/>
       </defs>
       <use xlink:href="#DejaVuSans-31"/>
      </g>
     </g>
    </g>
    <g id="xtick_2">
     <g id="line2d_2">
      <g>
       <use xlink:href="#m52bf3672cb" x="109.664165" y="307.584" style="stroke: #000000; stroke-width: 0.8"/>
      </g>
     </g>
     <g id="text_2">
      <!-- 34 -->
      <g transform="translate(103.301665 322.182437) scale(0.1 -0.1)">
       <defs>
        <path id="DejaVuSans-33" d="M 2597 2516 
Q 3050 2419 3304 2112 
Q 3559 1806 3559 1356 
Q 3559 666 3084 287 
Q 2609 -91 1734 -91 
Q 1441 -91 1130 -33 
Q 819 25 488 141 
L 488 750 
Q 750 597 1062 519 
Q 1375 441 1716 441 
Q 2309 441 2620 675 
Q 2931 909 2931 1356 
Q 2931 1769 2642 2001 
Q 2353 2234 1838 2234 
L 1294 2234 
L 1294 2753 
L 1863 2753 
Q 2328 2753 2575 2939 
Q 2822 3125 2822 3475 
Q 2822 3834 2567 4026 
Q 2313 4219 1838 4219 
Q 1578 4219 1281 4162 
Q 984 4106 628 3988 
L 628 4550 
Q 988 4650 1302 4700 
Q 1616 4750 1894 4750 
Q 2613 4750 3031 4423 
Q 3450 4097 3450 3541 
Q 3450 3153 3228 2886 
Q 3006 2619 2597 2516 
z
" transform="scale(0.015625)"/>
        <path id="DejaVuSans-34" d="M 2419 4116 
L 825 1625 
L 2419 1625 
L 2419 4116 
z
M 2253 4666 
L 3047 4666 
L 3047 1625 
L 3713 1625 
L 3713 1100 
L 3047 1100 
L 3047 0 
L 2419 0 
L 2419 1100 
L 313 1100 
L 313 1709 
L 2253 4666 
z
" transform="scale(0.015625)"/>
       </defs>
       <use xlink:href="#DejaVuSans-33"/>
       <use xlink:href="#DejaVuSans-34" x="63.623047"/>
      </g>
     </g>
    </g>
    <g id="xtick_3">
     <g id="line2d_3">
      <g>
       <use xlink:href="#m52bf3672cb" x="145.495604" y="307.584" style="stroke: #000000; stroke-width: 0.8"/>
      </g>
     </g>
     <g id="text_3">
      <!-- 67 -->
      <g transform="translate(139.133104 322.182437) scale(0.1 -0.1)">
       <defs>
        <path id="DejaVuSans-36" d="M 2113 2584 
Q 1688 2584 1439 2293 
Q 1191 2003 1191 1497 
Q 1191 994 1439 701 
Q 1688 409 2113 409 
Q 2538 409 2786 701 
Q 3034 994 3034 1497 
Q 3034 2003 2786 2293 
Q 2538 2584 2113 2584 
z
M 3366 4563 
L 3366 3988 
Q 3128 4100 2886 4159 
Q 2644 4219 2406 4219 
Q 1781 4219 1451 3797 
Q 1122 3375 1075 2522 
Q 1259 2794 1537 2939 
Q 1816 3084 2150 3084 
Q 2853 3084 3261 2657 
Q 3669 2231 3669 1497 
Q 3669 778 3244 343 
Q 2819 -91 2113 -91 
Q 1303 -91 875 529 
Q 447 1150 447 2328 
Q 447 3434 972 4092 
Q 1497 4750 2381 4750 
Q 2619 4750 2861 4703 
Q 3103 4656 3366 4563 
z
" transform="scale(0.015625)"/>
        <path id="DejaVuSans-37" d="M 525 4666 
L 3525 4666 
L 3525 4397 
L 1831 0 
L 1172 0 
L 2766 4134 
L 525 4134 
L 525 4666 
z
" transform="scale(0.015625)"/>
       </defs>
       <use xlink:href="#DejaVuSans-36"/>
       <use xlink:href="#DejaVuSans-37" x="63.623047"/>
      </g>
     </g>
    </g>
    <g id="xtick_4">
     <g id="line2d_4">
      <g>
       <use xlink:href="#m52bf3672cb" x="181.327042" y="307.584" style="stroke: #000000; stroke-width: 0.8"/>
      </g>
     </g>
     <g id="text_4">
      <!-- 100 -->
      <g transform="translate(171.783292 322.182437) scale(0.1 -0.1)">
       <defs>
        <path id="DejaVuSans-30" d="M 2034 4250 
Q 1547 4250 1301 3770 
Q 1056 3291 1056 2328 
Q 1056 1369 1301 889 
Q 1547 409 2034 409 
Q 2525 409 2770 889 
Q 3016 1369 3016 2328 
Q 3016 3291 2770 3770 
Q 2525 4250 2034 4250 
z
M 2034 4750 
Q 2819 4750 3233 4129 
Q 3647 3509 3647 2328 
Q 3647 1150 3233 529 
Q 2819 -91 2034 -91 
Q 1250 -91 836 529 
Q 422 1150 422 2328 
Q 422 3509 836 4129 
Q 1250 4750 2034 4750 
z
" transform="scale(0.015625)"/>
       </defs>
       <use xlink:href="#DejaVuSans-31"/>
       <use xlink:href="#DejaVuSans-30" x="63.623047"/>
       <use xlink:href="#DejaVuSans-30" x="127.246094"/>
      </g>
     </g>
    </g>
    <g id="xtick_5">
     <g id="line2d_5">
      <g>
       <use xlink:href="#m52bf3672cb" x="217.15848" y="307.584" style="stroke: #000000; stroke-width: 0.8"/>
      </g>
     </g>
     <g id="text_5">
      <!-- 133 -->
      <g transform="translate(207.61473 322.182437) scale(0.1 -0.1)">
       <use xlink:href="#DejaVuSans-31"/>
       <use xlink:href="#DejaVuSans-33" x="63.623047"/>
       <use xlink:href="#DejaVuSans-33" x="127.246094"/>
      </g>
     </g>
    </g>
    <g id="xtick_6">
     <g id="line2d_6">
      <g>
       <use xlink:href="#m52bf3672cb" x="254.075719" y="307.584" style="stroke: #000000; stroke-width: 0.8"/>
      </g>
     </g>
     <g id="text_6">
      <!-- 167 -->
      <g transform="translate(244.531969 322.182437) scale(0.1 -0.1)">
       <use xlink:href="#DejaVuSans-31"/>
       <use xlink:href="#DejaVuSans-36" x="63.623047"/>
       <use xlink:href="#DejaVuSans-37" x="127.246094"/>
      </g>
     </g>
    </g>
    <g id="xtick_7">
     <g id="line2d_7">
      <g>
       <use xlink:href="#m52bf3672cb" x="289.907157" y="307.584" style="stroke: #000000; stroke-width: 0.8"/>
      </g>
     </g>
     <g id="text_7">
      <!-- 200 -->
      <g transform="translate(280.363407 322.182437) scale(0.1 -0.1)">
       <defs>
        <path id="DejaVuSans-32" d="M 1228 531 
L 3431 531 
L 3431 0 
L 469 0 
L 469 531 
Q 828 903 1448 1529 
Q 2069 2156 2228 2338 
Q 2531 2678 2651 2914 
Q 2772 3150 2772 3378 
Q 2772 3750 2511 3984 
Q 2250 4219 1831 4219 
Q 1534 4219 1204 4116 
Q 875 4013 500 3803 
L 500 4441 
Q 881 4594 1212 4672 
Q 1544 4750 1819 4750 
Q 2544 4750 2975 4387 
Q 3406 4025 3406 3419 
Q 3406 3131 3298 2873 
Q 3191 2616 2906 2266 
Q 2828 2175 2409 1742 
Q 1991 1309 1228 531 
z
" transform="scale(0.015625)"/>
       </defs>
       <use xlink:href="#DejaVuSans-32"/>
       <use xlink:href="#DejaVuSans-30" x="63.623047"/>
       <use xlink:href="#DejaVuSans-30" x="127.246094"/>
      </g>
     </g>
    </g>
    <g id="xtick_8">
     <g id="line2d_8">
      <g>
       <use xlink:href="#m52bf3672cb" x="325.738595" y="307.584" style="stroke: #000000; stroke-width: 0.8"/>
      </g>
     </g>
     <g id="text_8">
      <!-- 233 -->
      <g transform="translate(316.194845 322.182437) scale(0.1 -0.1)">
       <use xlink:href="#DejaVuSans-32"/>
       <use xlink:href="#DejaVuSans-33" x="63.623047"/>
       <use xlink:href="#DejaVuSans-33" x="127.246094"/>
      </g>
     </g>
    </g>
    <g id="xtick_9">
     <g id="line2d_9">
      <g>
       <use xlink:href="#m52bf3672cb" x="361.570033" y="307.584" style="stroke: #000000; stroke-width: 0.8"/>
      </g>
     </g>
     <g id="text_9">
      <!-- 266 -->
      <g transform="translate(352.026283 322.182437) scale(0.1 -0.1)">
       <use xlink:href="#DejaVuSans-32"/>
       <use xlink:href="#DejaVuSans-36" x="63.623047"/>
       <use xlink:href="#DejaVuSans-36" x="127.246094"/>
      </g>
     </g>
    </g>
    <g id="xtick_10">
     <g id="line2d_10">
      <g>
       <use xlink:href="#m52bf3672cb" x="398.487273" y="307.584" style="stroke: #000000; stroke-width: 0.8"/>
      </g>
     </g>
     <g id="text_10">
      <!-- 300 -->
      <g transform="translate(388.943523 322.182437) scale(0.1 -0.1)">
       <use xlink:href="#DejaVuSans-33"/>
       <use xlink:href="#DejaVuSans-30" x="63.623047"/>
       <use xlink:href="#DejaVuSans-30" x="127.246094"/>
      </g>
     </g>
    </g>
    <g id="text_11">
     <!-- Epochs -->
     <g transform="translate(218.244375 335.860562) scale(0.1 -0.1)">
      <defs>
       <path id="DejaVuSans-45" d="M 628 4666 
L 3578 4666 
L 3578 4134 
L 1259 4134 
L 1259 2753 
L 3481 2753 
L 3481 2222 
L 1259 2222 
L 1259 531 
L 3634 531 
L 3634 0 
L 628 0 
L 628 4666 
z
" transform="scale(0.015625)"/>
       <path id="DejaVuSans-70" d="M 1159 525 
L 1159 -1331 
L 581 -1331 
L 581 3500 
L 1159 3500 
L 1159 2969 
Q 1341 3281 1617 3432 
Q 1894 3584 2278 3584 
Q 2916 3584 3314 3078 
Q 3713 2572 3713 1747 
Q 3713 922 3314 415 
Q 2916 -91 2278 -91 
Q 1894 -91 1617 61 
Q 1341 213 1159 525 
z
M 3116 1747 
Q 3116 2381 2855 2742 
Q 2594 3103 2138 3103 
Q 1681 3103 1420 2742 
Q 1159 2381 1159 1747 
Q 1159 1113 1420 752 
Q 1681 391 2138 391 
Q 2594 391 2855 752 
Q 3116 1113 3116 1747 
z
" transform="scale(0.015625)"/>
       <path id="DejaVuSans-6f" d="M 1959 3097 
Q 1497 3097 1228 2736 
Q 959 2375 959 1747 
Q 959 1119 1226 758 
Q 1494 397 1959 397 
Q 2419 397 2687 759 
Q 2956 1122 2956 1747 
Q 2956 2369 2687 2733 
Q 2419 3097 1959 3097 
z
M 1959 3584 
Q 2709 3584 3137 3096 
Q 3566 2609 3566 1747 
Q 3566 888 3137 398 
Q 2709 -91 1959 -91 
Q 1206 -91 779 398 
Q 353 888 353 1747 
Q 353 2609 779 3096 
Q 1206 3584 1959 3584 
z
" transform="scale(0.015625)"/>
       <path id="DejaVuSans-63" d="M 3122 3366 
L 3122 2828 
Q 2878 2963 2633 3030 
Q 2388 3097 2138 3097 
Q 1578 3097 1268 2742 
Q 959 2388 959 1747 
Q 959 1106 1268 751 
Q 1578 397 2138 397 
Q 2388 397 2633 464 
Q 2878 531 3122 666 
L 3122 134 
Q 2881 22 2623 -34 
Q 2366 -91 2075 -91 
Q 1284 -91 818 406 
Q 353 903 353 1747 
Q 353 2603 823 3093 
Q 1294 3584 2113 3584 
Q 2378 3584 2631 3529 
Q 2884 3475 3122 3366 
z
" transform="scale(0.015625)"/>
       <path id="DejaVuSans-68" d="M 3513 2113 
L 3513 0 
L 2938 0 
L 2938 2094 
Q 2938 2591 2744 2837 
Q 2550 3084 2163 3084 
Q 1697 3084 1428 2787 
Q 1159 2491 1159 1978 
L 1159 0 
L 581 0 
L 581 4863 
L 1159 4863 
L 1159 2956 
Q 1366 3272 1645 3428 
Q 1925 3584 2291 3584 
Q 2894 3584 3203 3211 
Q 3513 2838 3513 2113 
z
" transform="scale(0.015625)"/>
       <path id="DejaVuSans-73" d="M 2834 3397 
L 2834 2853 
Q 2591 2978 2328 3040 
Q 2066 3103 1784 3103 
Q 1356 3103 1142 2972 
Q 928 2841 928 2578 
Q 928 2378 1081 2264 
Q 1234 2150 1697 2047 
L 1894 2003 
Q 2506 1872 2764 1633 
Q 3022 1394 3022 966 
Q 3022 478 2636 193 
Q 2250 -91 1575 -91 
Q 1294 -91 989 -36 
Q 684 19 347 128 
L 347 722 
Q 666 556 975 473 
Q 1284 391 1588 391 
Q 1994 391 2212 530 
Q 2431 669 2431 922 
Q 2431 1156 2273 1281 
Q 2116 1406 1581 1522 
L 1381 1569 
Q 847 1681 609 1914 
Q 372 2147 372 2553 
Q 372 3047 722 3315 
Q 1072 3584 1716 3584 
Q 2034 3584 2315 3537 
Q 2597 3491 2834 3397 
z
" transform="scale(0.015625)"/>
      </defs>
      <use xlink:href="#DejaVuSans-45"/>
      <use xlink:href="#DejaVuSans-70" x="63.183594"/>
      <use xlink:href="#DejaVuSans-6f" x="126.660156"/>
      <use xlink:href="#DejaVuSans-63" x="187.841797"/>
      <use xlink:href="#DejaVuSans-68" x="242.822266"/>
      <use xlink:href="#DejaVuSans-73" x="306.201172"/>
     </g>
    </g>
   </g>
   <g id="matplotlib.axis_2">
    <g id="ytick_1">
     <g id="line2d_11">
      <defs>
       <path id="m27a8fc0b17" d="M 0 0 
L -3.5 0 
" style="stroke: #000000; stroke-width: 0.8"/>
      </defs>
      <g>
       <use xlink:href="#m27a8fc0b17" x="57.6" y="303.268828" style="stroke: #000000; stroke-width: 0.8"/>
      </g>
     </g>
     <g id="text_12">
      <!-- 30 -->
      <g transform="translate(37.875 307.068047) scale(0.1 -0.1)">
       <use xlink:href="#DejaVuSans-33"/>
       <use xlink:href="#DejaVuSans-30" x="63.623047"/>
      </g>
     </g>
    </g>
    <g id="ytick_2">
     <g id="line2d_12">
      <g>
       <use xlink:href="#m27a8fc0b17" x="57.6" y="265.838034" style="stroke: #000000; stroke-width: 0.8"/>
      </g>
     </g>
     <g id="text_13">
      <!-- 40 -->
      <g transform="translate(37.875 269.637253) scale(0.1 -0.1)">
       <use xlink:href="#DejaVuSans-34"/>
       <use xlink:href="#DejaVuSans-30" x="63.623047"/>
      </g>
     </g>
    </g>
    <g id="ytick_3">
     <g id="line2d_13">
      <g>
       <use xlink:href="#m27a8fc0b17" x="57.6" y="228.40724" style="stroke: #000000; stroke-width: 0.8"/>
      </g>
     </g>
     <g id="text_14">
      <!-- 50 -->
      <g transform="translate(37.875 232.206458) scale(0.1 -0.1)">
       <defs>
        <path id="DejaVuSans-35" d="M 691 4666 
L 3169 4666 
L 3169 4134 
L 1269 4134 
L 1269 2991 
Q 1406 3038 1543 3061 
Q 1681 3084 1819 3084 
Q 2600 3084 3056 2656 
Q 3513 2228 3513 1497 
Q 3513 744 3044 326 
Q 2575 -91 1722 -91 
Q 1428 -91 1123 -41 
Q 819 9 494 109 
L 494 744 
Q 775 591 1075 516 
Q 1375 441 1709 441 
Q 2250 441 2565 725 
Q 2881 1009 2881 1497 
Q 2881 1984 2565 2268 
Q 2250 2553 1709 2553 
Q 1456 2553 1204 2497 
Q 953 2441 691 2322 
L 691 4666 
z
" transform="scale(0.015625)"/>
       </defs>
       <use xlink:href="#DejaVuSans-35"/>
       <use xlink:href="#DejaVuSans-30" x="63.623047"/>
      </g>
     </g>
    </g>
    <g id="ytick_4">
     <g id="line2d_14">
      <g>
       <use xlink:href="#m27a8fc0b17" x="57.6" y="190.976445" style="stroke: #000000; stroke-width: 0.8"/>
      </g>
     </g>
     <g id="text_15">
      <!-- 60 -->
      <g transform="translate(37.875 194.775664) scale(0.1 -0.1)">
       <use xlink:href="#DejaVuSans-36"/>
       <use xlink:href="#DejaVuSans-30" x="63.623047"/>
      </g>
     </g>
    </g>
    <g id="ytick_5">
     <g id="line2d_15">
      <g>
       <use xlink:href="#m27a8fc0b17" x="57.6" y="153.545651" style="stroke: #000000; stroke-width: 0.8"/>
      </g>
     </g>
     <g id="text_16">
      <!-- 70 -->
      <g transform="translate(37.875 157.34487) scale(0.1 -0.1)">
       <use xlink:href="#DejaVuSans-37"/>
       <use xlink:href="#DejaVuSans-30" x="63.623047"/>
      </g>
     </g>
    </g>
    <g id="ytick_6">
     <g id="line2d_16">
      <g>
       <use xlink:href="#m27a8fc0b17" x="57.6" y="116.114857" style="stroke: #000000; stroke-width: 0.8"/>
      </g>
     </g>
     <g id="text_17">
      <!-- 80 -->
      <g transform="translate(37.875 119.914076) scale(0.1 -0.1)">
       <defs>
        <path id="DejaVuSans-38" d="M 2034 2216 
Q 1584 2216 1326 1975 
Q 1069 1734 1069 1313 
Q 1069 891 1326 650 
Q 1584 409 2034 409 
Q 2484 409 2743 651 
Q 3003 894 3003 1313 
Q 3003 1734 2745 1975 
Q 2488 2216 2034 2216 
z
M 1403 2484 
Q 997 2584 770 2862 
Q 544 3141 544 3541 
Q 544 4100 942 4425 
Q 1341 4750 2034 4750 
Q 2731 4750 3128 4425 
Q 3525 4100 3525 3541 
Q 3525 3141 3298 2862 
Q 3072 2584 2669 2484 
Q 3125 2378 3379 2068 
Q 3634 1759 3634 1313 
Q 3634 634 3220 271 
Q 2806 -91 2034 -91 
Q 1263 -91 848 271 
Q 434 634 434 1313 
Q 434 1759 690 2068 
Q 947 2378 1403 2484 
z
M 1172 3481 
Q 1172 3119 1398 2916 
Q 1625 2713 2034 2713 
Q 2441 2713 2670 2916 
Q 2900 3119 2900 3481 
Q 2900 3844 2670 4047 
Q 2441 4250 2034 4250 
Q 1625 4250 1398 4047 
Q 1172 3844 1172 3481 
z
" transform="scale(0.015625)"/>
       </defs>
       <use xlink:href="#DejaVuSans-38"/>
       <use xlink:href="#DejaVuSans-30" x="63.623047"/>
      </g>
     </g>
    </g>
    <g id="ytick_7">
     <g id="line2d_17">
      <g>
       <use xlink:href="#m27a8fc0b17" x="57.6" y="78.684063" style="stroke: #000000; stroke-width: 0.8"/>
      </g>
     </g>
     <g id="text_18">
      <!-- 90 -->
      <g transform="translate(37.875 82.483282) scale(0.1 -0.1)">
       <defs>
        <path id="DejaVuSans-39" d="M 703 97 
L 703 672 
Q 941 559 1184 500 
Q 1428 441 1663 441 
Q 2288 441 2617 861 
Q 2947 1281 2994 2138 
Q 2813 1869 2534 1725 
Q 2256 1581 1919 1581 
Q 1219 1581 811 2004 
Q 403 2428 403 3163 
Q 403 3881 828 4315 
Q 1253 4750 1959 4750 
Q 2769 4750 3195 4129 
Q 3622 3509 3622 2328 
Q 3622 1225 3098 567 
Q 2575 -91 1691 -91 
Q 1453 -91 1209 -44 
Q 966 3 703 97 
z
M 1959 2075 
Q 2384 2075 2632 2365 
Q 2881 2656 2881 3163 
Q 2881 3666 2632 3958 
Q 2384 4250 1959 4250 
Q 1534 4250 1286 3958 
Q 1038 3666 1038 3163 
Q 1038 2656 1286 2365 
Q 1534 2075 1959 2075 
z
" transform="scale(0.015625)"/>
       </defs>
       <use xlink:href="#DejaVuSans-39"/>
       <use xlink:href="#DejaVuSans-30" x="63.623047"/>
      </g>
     </g>
    </g>
    <g id="text_19">
     <!-- Accuracy -->
     <g transform="translate(31.795312 197.356125) rotate(-90) scale(0.1 -0.1)">
      <defs>
       <path id="DejaVuSans-41" d="M 2188 4044 
L 1331 1722 
L 3047 1722 
L 2188 4044 
z
M 1831 4666 
L 2547 4666 
L 4325 0 
L 3669 0 
L 3244 1197 
L 1141 1197 
L 716 0 
L 50 0 
L 1831 4666 
z
" transform="scale(0.015625)"/>
       <path id="DejaVuSans-75" d="M 544 1381 
L 544 3500 
L 1119 3500 
L 1119 1403 
Q 1119 906 1312 657 
Q 1506 409 1894 409 
Q 2359 409 2629 706 
Q 2900 1003 2900 1516 
L 2900 3500 
L 3475 3500 
L 3475 0 
L 2900 0 
L 2900 538 
Q 2691 219 2414 64 
Q 2138 -91 1772 -91 
Q 1169 -91 856 284 
Q 544 659 544 1381 
z
M 1991 3584 
L 1991 3584 
z
" transform="scale(0.015625)"/>
       <path id="DejaVuSans-72" d="M 2631 2963 
Q 2534 3019 2420 3045 
Q 2306 3072 2169 3072 
Q 1681 3072 1420 2755 
Q 1159 2438 1159 1844 
L 1159 0 
L 581 0 
L 581 3500 
L 1159 3500 
L 1159 2956 
Q 1341 3275 1631 3429 
Q 1922 3584 2338 3584 
Q 2397 3584 2469 3576 
Q 2541 3569 2628 3553 
L 2631 2963 
z
" transform="scale(0.015625)"/>
       <path id="DejaVuSans-61" d="M 2194 1759 
Q 1497 1759 1228 1600 
Q 959 1441 959 1056 
Q 959 750 1161 570 
Q 1363 391 1709 391 
Q 2188 391 2477 730 
Q 2766 1069 2766 1631 
L 2766 1759 
L 2194 1759 
z
M 3341 1997 
L 3341 0 
L 2766 0 
L 2766 531 
Q 2569 213 2275 61 
Q 1981 -91 1556 -91 
Q 1019 -91 701 211 
Q 384 513 384 1019 
Q 384 1609 779 1909 
Q 1175 2209 1959 2209 
L 2766 2209 
L 2766 2266 
Q 2766 2663 2505 2880 
Q 2244 3097 1772 3097 
Q 1472 3097 1187 3025 
Q 903 2953 641 2809 
L 641 3341 
Q 956 3463 1253 3523 
Q 1550 3584 1831 3584 
Q 2591 3584 2966 3190 
Q 3341 2797 3341 1997 
z
" transform="scale(0.015625)"/>
       <path id="DejaVuSans-79" d="M 2059 -325 
Q 1816 -950 1584 -1140 
Q 1353 -1331 966 -1331 
L 506 -1331 
L 506 -850 
L 844 -850 
Q 1081 -850 1212 -737 
Q 1344 -625 1503 -206 
L 1606 56 
L 191 3500 
L 800 3500 
L 1894 763 
L 2988 3500 
L 3597 3500 
L 2059 -325 
z
" transform="scale(0.015625)"/>
      </defs>
      <use xlink:href="#DejaVuSans-41"/>
      <use xlink:href="#DejaVuSans-63" x="66.658203"/>
      <use xlink:href="#DejaVuSans-63" x="121.638672"/>
      <use xlink:href="#DejaVuSans-75" x="176.619141"/>
      <use xlink:href="#DejaVuSans-72" x="239.998047"/>
      <use xlink:href="#DejaVuSans-61" x="281.111328"/>
      <use xlink:href="#DejaVuSans-63" x="342.390625"/>
      <use xlink:href="#DejaVuSans-79" x="397.371094"/>
     </g>
    </g>
   </g>
   <g id="line2d_18">
    <path d="M 73.832727 295.488 
L 74.918528 233.568452 
L 76.00433 206.299546 
L 77.090131 189.390573 
L 78.175932 178.205445 
L 79.261733 168.295617 
L 80.347534 160.5613 
L 81.433335 155.557624 
L 83.604938 143.404769 
L 84.690739 140.291537 
L 87.948142 129.301455 
L 89.033943 126.758358 
L 90.119745 122.51236 
L 91.205546 120.366856 
L 92.291347 118.783984 
L 94.462949 116.248388 
L 95.54875 142.767119 
L 96.634552 141.716872 
L 97.720353 138.806188 
L 98.806154 138.333577 
L 102.063557 129.571519 
L 103.149358 128.588788 
L 104.23516 126.780863 
L 107.492563 123.345056 
L 108.578364 121.589643 
L 109.664165 119.241592 
L 110.749967 117.65872 
L 111.835768 117.688727 
L 112.921569 115.633244 
L 114.00737 115.115622 
L 115.093171 113.285192 
L 116.178972 112.08491 
L 117.264773 110.517042 
L 118.350575 110.824614 
L 119.436376 107.61386 
L 120.522177 106.818673 
L 121.607978 105.033254 
L 122.693779 105.483359 
L 123.77958 102.190086 
L 124.865382 101.35739 
L 125.951183 100.127101 
L 127.036984 97.726537 
L 128.122785 97.74154 
L 129.208586 97.298936 
L 130.294387 95.408492 
L 131.380189 94.448267 
L 132.46599 94.253221 
L 133.551791 93.165465 
L 134.637592 93.150462 
L 135.723393 91.702622 
L 137.894995 91.687618 
L 138.980797 117.44867 
L 140.066598 118.843998 
L 141.152399 117.40366 
L 142.2382 117.808755 
L 143.324001 116.195876 
L 144.409802 116.158367 
L 145.495604 115.355679 
L 147.667206 113.240182 
L 148.753007 113.712793 
L 149.838808 111.469766 
L 150.924609 111.754833 
L 153.096212 109.57182 
L 154.182013 111.027162 
L 155.267814 110.584558 
L 156.353615 109.099209 
L 157.439416 108.701615 
L 158.525217 107.951439 
L 159.611019 106.188525 
L 160.69682 107.013719 
L 161.782621 106.503599 
L 162.868422 106.698645 
L 163.954223 105.055759 
L 165.040024 104.073028 
L 166.125825 104.538137 
L 167.211627 103.525399 
L 168.297428 103.727947 
L 170.46903 101.702471 
L 171.554831 102.16758 
L 172.640632 100.704737 
L 173.726434 100.922288 
L 174.812235 100.299641 
L 175.898036 99.977066 
L 176.983837 100.29214 
L 178.069638 98.296671 
L 179.155439 97.246424 
L 180.24124 97.816558 
L 182.412843 95.761075 
L 183.498644 95.385987 
L 184.584445 96.001131 
L 185.670246 95.10092 
L 186.756047 93.323002 
L 187.841849 93.435529 
L 188.92765 92.467801 
L 190.013451 92.910405 
L 191.099252 91.185 
L 192.185053 91.117484 
L 193.270854 89.999721 
L 194.356656 89.519609 
L 195.442457 89.519609 
L 196.528258 88.371839 
L 197.614059 88.58939 
L 198.69986 88.266814 
L 199.785661 87.209066 
L 200.871462 86.316356 
L 201.957264 85.99378 
L 203.043065 84.688474 
L 204.128866 84.530937 
L 205.214667 83.788262 
L 206.300468 84.463421 
L 207.386269 83.675736 
L 208.472071 82.437945 
L 209.557872 82.047853 
L 210.643673 82.175383 
L 212.815275 81.050119 
L 213.901076 81.155143 
L 216.072679 80.705038 
L 218.244281 79.752314 
L 219.330082 80.292441 
L 220.415883 79.197183 
L 221.501684 80.052384 
L 222.587486 79.587275 
L 223.673287 78.62705 
L 224.759088 78.694565 
L 225.844889 104.485625 
L 226.93069 107.043726 
L 228.016491 106.143514 
L 229.102292 106.316055 
L 230.188094 105.925963 
L 231.273895 107.021221 
L 232.359696 104.770692 
L 233.445497 105.070762 
L 234.531298 103.99801 
L 236.702901 103.44288 
L 237.788702 103.44288 
L 238.874503 102.715209 
L 239.960304 104.305583 
L 241.046105 102.865244 
L 242.131906 102.205089 
L 243.217708 102.16758 
L 244.303509 101.319881 
L 245.38931 101.334885 
L 247.560912 100.944793 
L 248.646713 100.997305 
L 249.732514 100.584708 
L 250.818316 101.109832 
L 251.904117 100.757249 
L 252.989918 99.594476 
L 254.075719 99.857037 
L 255.16152 100.247129 
L 256.247321 99.31691 
L 257.333123 98.686762 
L 258.418924 99.549465 
L 260.590526 98.371688 
L 261.676327 98.289169 
L 262.762128 99.759514 
L 263.847929 97.644017 
L 264.933731 97.073884 
L 266.019532 98.371688 
L 267.105333 97.373954 
L 268.191134 96.878838 
L 269.276935 98.244158 
L 270.362736 96.023637 
L 271.448538 95.971124 
L 273.62014 96.608774 
L 274.705941 96.218683 
L 275.791742 96.42123 
L 276.877543 95.273461 
L 277.963344 96.338711 
L 279.049146 95.543524 
L 280.134947 96.061146 
L 281.220748 94.200708 
L 282.306549 94.71833 
L 284.478151 95.108422 
L 285.563953 93.360511 
L 286.649754 93.840624 
L 287.735555 92.895402 
L 288.821356 94.875867 
L 289.907157 93.187971 
L 290.992958 93.878133 
L 292.07876 92.152727 
L 293.164561 92.917907 
L 294.250362 92.512812 
L 295.336163 91.590095 
L 296.421964 92.63284 
L 297.507765 92.535317 
L 298.593566 91.215007 
L 300.765169 91.05747 
L 301.85097 91.387548 
L 302.936771 89.947209 
L 304.022572 89.917202 
L 305.108373 90.044732 
L 306.194175 88.859454 
L 307.279976 89.542114 
L 308.365777 89.707153 
L 309.451578 89.212036 
L 310.537379 89.347068 
L 311.62318 88.394344 
L 312.708981 87.734189 
L 313.794783 88.229306 
L 314.880584 87.486631 
L 315.966385 86.428883 
L 317.052186 87.239073 
L 318.137987 86.811472 
L 319.223788 87.284083 
L 320.30959 87.074034 
L 321.395391 85.243604 
L 323.566993 85.888756 
L 324.652794 86.58642 
L 325.738595 84.868516 
L 326.824396 84.16335 
L 327.910198 84.568445 
L 330.0818 83.195623 
L 331.167601 84.425912 
L 333.339203 83.105602 
L 334.425005 82.873047 
L 335.510806 81.90532 
L 336.596607 81.3952 
L 337.682408 81.897818 
L 338.768209 81.065122 
L 339.85401 81.792793 
L 340.939811 81.230161 
L 342.025613 81.875313 
L 343.111414 80.194918 
L 344.197215 79.60978 
L 345.283016 80.952596 
L 346.368817 78.987134 
L 347.454618 78.597042 
L 348.54042 79.789823 
L 349.626221 78.394495 
L 350.712022 78.54453 
L 351.797823 79.167176 
L 352.883624 77.509287 
L 353.969425 78.071919 
L 355.055227 76.796619 
L 356.141028 77.156704 
L 357.226829 77.291736 
L 358.31263 77.276732 
L 359.398431 76.631581 
L 360.484232 76.58657 
L 362.655835 76.023938 
L 363.741636 74.598603 
L 364.827437 75.461306 
L 366.999039 75.086218 
L 368.08484 76.2865 
L 369.170642 76.196478 
L 370.256443 77.074185 
L 372.428045 77.936887 
L 373.513846 78.732074 
L 374.599647 77.726838 
L 377.857051 79.189682 
L 378.942852 77.359252 
L 380.028653 77.839364 
L 381.114454 78.664558 
L 383.286057 78.409498 
L 384.371858 77.809357 
L 385.457659 77.974396 
L 386.54346 78.67206 
L 387.629261 78.867106 
L 388.715062 78.529527 
L 389.800863 79.18218 
L 390.886665 78.447007 
L 391.972466 77.966894 
L 393.058267 78.664558 
L 394.144068 78.03441 
L 395.229869 78.139435 
L 396.31567 77.86187 
L 397.401472 77.9894 
L 398.487273 77.216718 
L 398.487273 77.216718 
" clip-path="url(#p47c7b40c89)" style="fill: none; stroke: #1f77b4; stroke-width: 1.5; stroke-linecap: square"/>
   </g>
   <g id="line2d_19">
    <path d="M 73.832727 230.054195 
L 74.918528 189.067475 
L 76.00433 158.449085 
L 77.090131 169.229154 
L 78.175932 132.247529 
L 79.261733 118.809874 
L 80.347534 118.697582 
L 81.433335 107.206328 
L 82.519137 105.372219 
L 83.604938 102.265463 
L 84.690739 98.559815 
L 85.77654 92.084287 
L 86.862341 89.501562 
L 87.948142 88.565793 
L 89.033943 85.533898 
L 90.119745 81.266788 
L 91.205546 81.191926 
L 92.291347 80.143864 
L 93.377148 78.422047 
L 94.462949 79.095802 
L 95.54875 103.949849 
L 96.634552 99.607877 
L 97.720353 93.581519 
L 98.806154 94.966458 
L 99.891955 92.159149 
L 100.977756 92.945195 
L 102.063557 93.132349 
L 103.149358 90.063024 
L 104.23516 90.736779 
L 105.320961 83.100897 
L 106.406762 86.207653 
L 107.492563 82.165127 
L 108.578364 81.566234 
L 109.664165 82.651727 
L 110.749967 80.368449 
L 112.921569 78.272324 
L 114.00737 75.577307 
L 115.093171 77.037108 
L 116.178972 74.716399 
L 117.264773 73.069444 
L 119.436376 71.983951 
L 120.522177 72.545413 
L 121.607978 70.336996 
L 122.693779 68.952056 
L 123.77958 65.995024 
L 124.865382 69.10178 
L 125.951183 68.16601 
L 127.036984 66.219608 
L 128.122785 65.3587 
L 129.208586 64.797238 
L 130.294387 64.011192 
L 131.380189 63.824038 
L 132.46599 64.460361 
L 133.551791 62.813406 
L 136.809194 62.738545 
L 137.894995 62.663683 
L 138.980797 80.742757 
L 140.066598 82.726589 
L 141.152399 80.705326 
L 142.2382 83.999236 
L 143.324001 79.732125 
L 144.409802 76.21363 
L 145.495604 78.571771 
L 146.581405 84.598128 
L 147.667206 79.806987 
L 148.753007 76.587938 
L 149.838808 82.239988 
L 150.924609 75.577307 
L 152.01041 75.876753 
L 153.096212 73.743198 
L 154.182013 73.106875 
L 155.267814 74.604106 
L 156.353615 71.834228 
L 157.439416 77.037108 
L 158.525217 74.117506 
L 159.611019 74.566676 
L 160.69682 71.647074 
L 161.782621 75.202999 
L 162.868422 68.952056 
L 163.954223 68.839764 
L 165.040024 70.187273 
L 166.125825 68.278302 
L 167.211627 68.914626 
L 168.297428 70.112411 
L 169.383229 69.887826 
L 170.46903 69.064349 
L 171.554831 70.000119 
L 172.640632 67.791702 
L 173.726434 67.192809 
L 174.812235 65.583285 
L 175.898036 66.556486 
L 176.983837 65.470993 
L 178.069638 67.754271 
L 179.155439 66.968224 
L 180.24124 66.593916 
L 181.327042 64.722377 
L 182.412843 65.80787 
L 183.498644 65.396131 
L 184.584445 67.080517 
L 185.670246 63.674314 
L 186.756047 65.134115 
L 187.841849 62.51396 
L 188.92765 63.44973 
L 190.013451 62.813406 
L 191.099252 62.027359 
L 193.270854 62.326806 
L 194.356656 61.316174 
L 195.442457 60.118389 
L 196.528258 60.792143 
L 197.614059 60.792143 
L 198.69986 61.203882 
L 199.785661 59.70665 
L 200.871462 59.931235 
L 201.957264 58.808311 
L 203.043065 59.70665 
L 204.128866 58.845742 
L 205.214667 58.583726 
L 206.300468 58.097126 
L 209.557872 57.947403 
L 210.643673 57.423372 
L 211.729474 57.34851 
L 212.815275 57.573095 
L 214.986877 56.787048 
L 216.072679 56.712187 
L 217.15848 56.787048 
L 219.330082 56.150725 
L 220.415883 56.599894 
L 221.501684 56.075863 
L 222.587486 56.525033 
L 224.759088 56.038432 
L 225.844889 79.544971 
L 226.93069 75.24043 
L 228.016491 73.668336 
L 229.102292 70.898458 
L 231.273895 75.090707 
L 232.359696 75.090707 
L 233.445497 70.187273 
L 234.531298 72.88229 
L 235.617099 70.374427 
L 236.702901 70.299565 
L 237.788702 67.379963 
L 238.874503 72.320828 
L 239.960304 68.615179 
L 241.046105 69.064349 
L 242.131906 68.390595 
L 243.217708 68.16601 
L 244.303509 66.519055 
L 245.38931 72.807428 
L 246.475111 72.732567 
L 247.560912 68.540318 
L 248.646713 69.251503 
L 249.732514 68.428025 
L 250.818316 66.29447 
L 251.904117 66.631347 
L 252.989918 67.978856 
L 254.075719 67.641979 
L 255.16152 67.978856 
L 256.247321 67.679409 
L 257.333123 67.71684 
L 258.418924 67.155378 
L 259.504725 65.059254 
L 260.590526 67.080517 
L 261.676327 71.759366 
L 262.762128 67.604548 
L 263.847929 66.144747 
L 264.933731 66.893363 
L 266.019532 67.941425 
L 267.105333 65.283839 
L 268.191134 66.331901 
L 269.276935 66.78107 
L 270.362736 66.668778 
L 271.448538 67.529686 
L 272.534339 68.65261 
L 273.62014 66.74364 
L 274.705941 67.267671 
L 275.791742 65.508423 
L 276.877543 64.42293 
L 277.963344 66.331901 
L 279.049146 62.775975 
L 280.134947 64.460361 
L 282.306549 67.117947 
L 283.39235 63.262576 
L 284.478151 63.786607 
L 285.563953 63.973761 
L 286.649754 63.524591 
L 287.735555 62.401667 
L 288.821356 63.898899 
L 289.907157 65.8453 
L 290.992958 62.139652 
L 293.164561 63.674314 
L 294.250362 62.738545 
L 295.336163 62.401667 
L 296.421964 63.562022 
L 297.507765 63.225145 
L 298.593566 61.054159 
L 299.679368 62.214513 
L 300.765169 61.241313 
L 301.85097 62.850837 
L 302.936771 60.455266 
L 304.022572 61.241313 
L 305.108373 60.417835 
L 306.194175 61.765344 
L 307.279976 61.840206 
L 308.365777 61.540759 
L 309.451578 59.519496 
L 310.537379 62.551391 
L 311.62318 62.102221 
L 312.708981 60.717282 
L 313.794783 59.856373 
L 314.880584 60.080958 
L 315.966385 59.482065 
L 317.052186 60.64242 
L 318.137987 59.781512 
L 319.223788 59.631789 
L 320.30959 59.893804 
L 321.395391 59.631789 
L 322.481192 58.471434 
L 323.566993 59.744081 
L 324.652794 58.508865 
L 325.738595 59.444635 
L 326.824396 58.845742 
L 327.910198 59.744081 
L 328.995999 58.845742 
L 330.0818 59.294912 
L 331.167601 57.722818 
L 332.253402 57.573095 
L 333.339203 58.77088 
L 336.596607 58.396572 
L 337.682408 56.974202 
L 338.768209 57.049064 
L 339.85401 57.685387 
L 340.939811 55.738986 
L 342.025613 56.824479 
L 343.111414 55.963571 
L 344.197215 56.712187 
L 345.283016 56.113294 
L 346.368817 55.327247 
L 347.454618 56.150725 
L 348.54042 55.738986 
L 349.626221 55.626694 
L 350.712022 56.487602 
L 351.797823 55.327247 
L 353.969425 54.878078 
L 355.055227 54.803216 
L 356.141028 55.589263 
L 357.226829 55.214955 
L 358.31263 54.391477 
L 359.398431 55.140093 
L 360.484232 54.653493 
L 361.570033 54.840647 
L 362.655835 54.466339 
L 363.741636 54.765785 
L 364.827437 54.391477 
L 365.913238 53.680292 
L 366.999039 54.690924 
L 368.08484 54.279185 
L 369.170642 54.878078 
L 370.256443 55.327247 
L 371.342244 55.214955 
L 372.428045 55.476971 
L 373.513846 56.225586 
L 375.685448 56.038432 
L 376.77125 56.337879 
L 377.857051 56.038432 
L 378.942852 55.364678 
L 380.028653 55.776417 
L 381.114454 57.236218 
L 382.200255 55.327247 
L 383.286057 55.963571 
L 384.371858 57.049064 
L 385.457659 55.027801 
L 386.54346 55.364678 
L 387.629261 56.674756 
L 388.715062 54.915509 
L 390.886665 56.150725 
L 391.972466 56.038432 
L 393.058267 56.113294 
L 394.144068 55.402109 
L 395.229869 56.899341 
L 396.31567 56.712187 
L 397.401472 55.626694 
L 398.487273 54.765785 
L 398.487273 54.765785 
" clip-path="url(#p47c7b40c89)" style="fill: none; stroke: #ff7f0e; stroke-width: 1.5; stroke-linecap: square"/>
   </g>
   <g id="line2d_20">
    <path d="M 73.832727 257.422559 
L 74.918528 227.890953 
L 76.00433 190.098758 
L 77.090131 227.348852 
L 78.175932 189.350142 
L 79.261733 184.832632 
L 80.347534 177.269031 
L 81.433335 170.583116 
L 82.519137 169.447285 
L 83.604938 162.916257 
L 84.690739 149.183028 
L 85.77654 144.97529 
L 86.862341 147.453467 
L 87.948142 149.105585 
L 89.033943 140.974067 
L 90.119745 133.746052 
L 91.205546 129.564129 
L 92.291347 131.138803 
L 93.377148 129.770643 
L 94.462949 129.202728 
L 95.54875 165.523505 
L 96.634552 160.231566 
L 97.720353 144.02016 
L 98.806154 160.747852 
L 99.891955 142.445485 
L 100.977756 157.52106 
L 102.063557 150.009087 
L 103.149358 147.324395 
L 104.23516 146.885551 
L 105.320961 135.888642 
L 106.406762 150.912589 
L 107.492563 139.08962 
L 108.578364 136.301672 
L 109.664165 144.846218 
L 110.749967 130.390188 
L 111.835768 131.500204 
L 112.921569 127.447353 
L 114.00737 133.02325 
L 115.093171 134.520482 
L 116.178972 134.133267 
L 117.264773 132.945807 
L 118.350575 121.742383 
L 119.436376 125.382205 
L 120.522177 132.713478 
L 121.607978 128.505741 
L 122.693779 125.717792 
L 123.77958 113.714123 
L 124.865382 123.420316 
L 125.951183 124.272189 
L 127.036984 121.019582 
L 128.122785 121.226097 
L 129.208586 120.580738 
L 130.294387 114.927397 
L 131.380189 113.63668 
L 132.46599 114.617625 
L 134.637592 114.849954 
L 136.809194 115.546942 
L 137.894995 115.262984 
L 138.980797 136.327486 
L 140.066598 150.009087 
L 141.152399 152.951921 
L 142.2382 130.596702 
L 143.324001 147.350209 
L 144.409802 125.278948 
L 145.495604 145.852978 
L 146.581405 154.345896 
L 147.667206 147.453467 
L 148.753007 135.527241 
L 149.838808 138.366819 
L 150.924609 144.79459 
L 152.01041 132.868364 
L 153.096212 129.5125 
L 154.182013 135.75957 
L 155.267814 135.036769 
L 156.353615 131.035546 
L 157.439416 132.997436 
L 158.525217 128.505741 
L 159.611019 144.38156 
L 160.69682 130.002972 
L 161.782621 131.732533 
L 162.868422 117.224874 
L 163.954223 117.56046 
L 165.040024 137.644017 
L 167.211627 119.599793 
L 168.297428 131.448576 
L 169.383229 123.497759 
L 170.46903 125.924307 
L 171.554831 130.338559 
L 172.640632 122.413556 
L 173.726434 117.095802 
L 174.812235 123.007286 
L 175.898036 124.03986 
L 176.983837 113.998081 
L 178.069638 110.022673 
L 179.155439 123.44613 
L 180.24124 128.402483 
L 181.327042 115.546942 
L 182.412843 118.180004 
L 183.498644 114.152967 
L 184.584445 126.518036 
L 185.670246 117.483017 
L 186.756047 118.74792 
L 187.841849 113.559237 
L 188.92765 116.760216 
L 190.013451 114.411111 
L 191.099252 109.971044 
L 192.185053 107.647753 
L 193.270854 104.266075 
L 194.356656 112.604107 
L 195.442457 109.712901 
L 196.528258 111.855491 
L 197.614059 109.687086 
L 198.69986 111.881305 
L 199.785661 111.339204 
L 200.871462 108.912656 
L 201.957264 108.318926 
L 203.043065 112.604107 
L 204.128866 104.550032 
L 205.214667 107.931711 
L 206.300468 103.982117 
L 207.386269 100.755324 
L 208.472071 108.241483 
L 209.557872 104.369332 
L 210.643673 103.207687 
L 211.729474 106.02145 
L 212.815275 103.982117 
L 213.901076 106.382851 
L 214.986877 104.550032 
L 216.072679 101.839527 
L 217.15848 100.961839 
L 218.244281 101.116725 
L 219.330082 102.226742 
L 220.415883 102.304185 
L 221.501684 102.175113 
L 222.587486 101.607198 
L 223.673287 101.297425 
L 224.759088 101.787898 
L 225.844889 132.687664 
L 226.93069 134.572111 
L 228.016491 135.656313 
L 229.102292 123.368687 
L 230.188094 126.595479 
L 231.273895 122.052155 
L 232.359696 125.40802 
L 233.445497 113.765752 
L 234.531298 125.40802 
L 235.617099 125.795235 
L 236.702901 125.304762 
L 237.788702 114.64344 
L 238.874503 135.320727 
L 239.960304 116.682773 
L 241.046105 115.185541 
L 242.131906 125.278948 
L 243.217708 116.476258 
L 244.303509 118.799549 
L 245.38931 133.02325 
L 246.475111 127.498981 
L 247.560912 115.392056 
L 248.646713 124.22056 
L 249.732514 113.481794 
L 250.818316 126.285707 
L 251.904117 117.276502 
L 252.989918 123.394501 
L 254.075719 120.993768 
L 255.16152 128.91877 
L 256.247321 132.919993 
L 257.333123 115.108098 
L 258.418924 126.77618 
L 259.504725 112.888064 
L 260.590526 121.716569 
L 261.676327 127.240838 
L 262.762128 112.758993 
L 263.847929 113.998081 
L 264.933731 127.989454 
L 266.019532 113.585052 
L 267.105333 109.661272 
L 268.191134 119.677236 
L 269.276935 116.527887 
L 270.362736 124.63359 
L 271.448538 118.799549 
L 272.534339 120.348409 
L 273.62014 119.728865 
L 275.791742 104.343518 
L 276.877543 122.465185 
L 277.963344 108.396369 
L 279.049146 115.211355 
L 280.134947 120.245152 
L 281.220748 118.33489 
L 282.306549 109.971044 
L 283.39235 110.797103 
L 284.478151 107.828454 
L 285.563953 116.398815 
L 287.735555 103.517459 
L 288.821356 111.519904 
L 289.907157 118.205819 
L 290.992958 108.215669 
L 292.07876 109.738715 
L 293.164561 109.583829 
L 294.250362 112.939693 
L 295.336163 108.551255 
L 296.421964 110.90036 
L 297.507765 112.810621 
L 298.593566 107.98334 
L 299.679368 107.57031 
L 300.765169 111.519904 
L 301.85097 111.778048 
L 302.936771 105.117948 
L 304.022572 111.700605 
L 305.108373 104.679104 
L 306.194175 116.734401 
L 307.279976 107.286353 
L 308.365777 112.86225 
L 309.451578 106.279593 
L 310.537379 112.036191 
L 311.62318 112.010377 
L 312.708981 101.297425 
L 313.794783 103.233501 
L 314.880584 102.6914 
L 315.966385 110.022673 
L 317.052186 109.067542 
L 318.137987 105.634235 
L 319.223788 104.24026 
L 320.30959 101.116725 
L 321.395391 111.287575 
L 322.481192 102.484885 
L 323.566993 104.395146 
L 324.652794 102.768843 
L 325.738595 102.8721 
L 326.824396 103.156058 
L 327.910198 104.756547 
L 328.995999 95.385941 
L 330.0818 105.376091 
L 331.167601 105.092134 
L 332.253402 101.245797 
L 333.339203 107.957525 
L 334.425005 104.162817 
L 335.510806 99.387164 
L 336.596607 100.290666 
L 337.682408 103.078615 
L 338.768209 102.846286 
L 339.85401 95.644085 
L 340.939811 95.669899 
L 342.025613 95.334313 
L 343.111414 97.115502 
L 344.197215 91.694491 
L 345.283016 93.165908 
L 346.368817 93.062651 
L 347.454618 94.611511 
L 348.54042 90.274702 
L 349.626221 93.527309 
L 350.712022 95.43757 
L 351.797823 96.160372 
L 352.883624 92.597993 
L 353.969425 94.766397 
L 355.055227 93.011022 
L 356.141028 94.224296 
L 357.226829 95.876414 
L 358.31263 90.481217 
L 359.398431 92.468921 
L 360.484232 93.320794 
L 361.570033 93.372423 
L 362.655835 94.224296 
L 363.741636 92.365664 
L 364.827437 92.081706 
L 365.913238 91.539605 
L 366.999039 90.661917 
L 368.08484 88.700027 
L 369.170642 94.585697 
L 370.256443 91.565419 
L 371.342244 98.94832 
L 372.428045 91.255647 
L 373.513846 96.108743 
L 374.599647 96.263629 
L 375.685448 89.345386 
L 376.77125 94.224296 
L 377.857051 95.876414 
L 378.942852 93.837081 
L 380.028653 92.081706 
L 381.114454 93.140094 
L 382.200255 92.88195 
L 383.286057 91.617048 
L 384.371858 92.210777 
L 385.457659 89.319571 
L 386.54346 97.58016 
L 387.629261 92.055891 
L 388.715062 98.354591 
L 389.800863 97.760861 
L 390.886665 94.172667 
L 391.972466 95.205241 
L 393.058267 98.896692 
L 394.144068 97.089688 
L 395.229869 94.121039 
L 396.31567 94.456625 
L 397.401472 91.410533 
L 398.487273 90.55866 
L 398.487273 90.55866 
" clip-path="url(#p47c7b40c89)" style="fill: none; stroke: #2ca02c; stroke-width: 1.5; stroke-linecap: square"/>
   </g>
   <g id="line2d_21">
    <path d="M 368.08484 54.616062 
L 369.170642 53.979739 
L 371.342244 54.166893 
L 372.428045 54.0546 
L 373.513846 53.605431 
L 374.599647 54.316616 
L 375.685448 54.466339 
L 376.77125 53.904877 
L 377.857051 53.568 
L 378.942852 54.092031 
L 380.028653 54.0546 
L 381.114454 54.391477 
L 382.200255 54.466339 
L 383.286057 54.166893 
L 384.371858 54.915509 
L 385.457659 53.568 
L 387.629261 54.279185 
L 388.715062 55.214955 
L 389.800863 55.963571 
L 390.886665 54.878078 
L 393.058267 54.541201 
L 394.144068 54.616062 
L 395.229869 55.177524 
L 396.31567 54.241754 
L 398.487273 55.252386 
L 398.487273 55.252386 
" clip-path="url(#p47c7b40c89)" style="fill: none; stroke: #d62728; stroke-width: 1.5; stroke-linecap: square"/>
   </g>
   <g id="line2d_22">
    <path d="M 368.08484 88.803285 
L 369.170642 88.700027 
L 370.256443 86.376736 
L 371.342244 88.209555 
L 372.428045 87.176981 
L 373.513846 84.389032 
L 374.599647 86.479994 
L 375.685448 90.455402 
L 376.77125 89.061428 
L 377.857051 90.094002 
L 378.942852 87.925597 
L 380.028653 88.416069 
L 381.114454 87.280238 
L 382.200255 89.784229 
L 383.286057 86.893023 
L 384.371858 87.047909 
L 385.457659 86.996281 
L 386.54346 86.738137 
L 387.629261 86.066964 
L 388.715062 85.834635 
L 389.800863 83.924374 
L 390.886665 87.744897 
L 391.972466 89.216314 
L 393.058267 84.647176 
L 394.144068 86.170222 
L 395.229869 85.550678 
L 396.31567 87.719082 
L 397.401472 86.247665 
L 398.487273 88.700027 
L 398.487273 88.700027 
" clip-path="url(#p47c7b40c89)" style="fill: none; stroke: #9467bd; stroke-width: 1.5; stroke-linecap: square"/>
   </g>
   <g id="patch_3">
    <path d="M 57.6 307.584 
L 57.6 41.472 
" style="fill: none; stroke: #000000; stroke-width: 0.8; stroke-linejoin: miter; stroke-linecap: square"/>
   </g>
   <g id="patch_4">
    <path d="M 414.72 307.584 
L 414.72 41.472 
" style="fill: none; stroke: #000000; stroke-width: 0.8; stroke-linejoin: miter; stroke-linecap: square"/>
   </g>
   <g id="patch_5">
    <path d="M 57.6 307.584 
L 414.72 307.584 
" style="fill: none; stroke: #000000; stroke-width: 0.8; stroke-linejoin: miter; stroke-linecap: square"/>
   </g>
   <g id="patch_6">
    <path d="M 57.6 41.472 
L 414.72 41.472 
" style="fill: none; stroke: #000000; stroke-width: 0.8; stroke-linejoin: miter; stroke-linecap: square"/>
   </g>
   <g id="text_20">
    <!-- Learning Curves -->
    <g transform="translate(187.37625 35.472) scale(0.12 -0.12)">
     <defs>
      <path id="DejaVuSans-4c" d="M 628 4666 
L 1259 4666 
L 1259 531 
L 3531 531 
L 3531 0 
L 628 0 
L 628 4666 
z
" transform="scale(0.015625)"/>
      <path id="DejaVuSans-65" d="M 3597 1894 
L 3597 1613 
L 953 1613 
Q 991 1019 1311 708 
Q 1631 397 2203 397 
Q 2534 397 2845 478 
Q 3156 559 3463 722 
L 3463 178 
Q 3153 47 2828 -22 
Q 2503 -91 2169 -91 
Q 1331 -91 842 396 
Q 353 884 353 1716 
Q 353 2575 817 3079 
Q 1281 3584 2069 3584 
Q 2775 3584 3186 3129 
Q 3597 2675 3597 1894 
z
M 3022 2063 
Q 3016 2534 2758 2815 
Q 2500 3097 2075 3097 
Q 1594 3097 1305 2825 
Q 1016 2553 972 2059 
L 3022 2063 
z
" transform="scale(0.015625)"/>
      <path id="DejaVuSans-6e" d="M 3513 2113 
L 3513 0 
L 2938 0 
L 2938 2094 
Q 2938 2591 2744 2837 
Q 2550 3084 2163 3084 
Q 1697 3084 1428 2787 
Q 1159 2491 1159 1978 
L 1159 0 
L 581 0 
L 581 3500 
L 1159 3500 
L 1159 2956 
Q 1366 3272 1645 3428 
Q 1925 3584 2291 3584 
Q 2894 3584 3203 3211 
Q 3513 2838 3513 2113 
z
" transform="scale(0.015625)"/>
      <path id="DejaVuSans-69" d="M 603 3500 
L 1178 3500 
L 1178 0 
L 603 0 
L 603 3500 
z
M 603 4863 
L 1178 4863 
L 1178 4134 
L 603 4134 
L 603 4863 
z
" transform="scale(0.015625)"/>
      <path id="DejaVuSans-67" d="M 2906 1791 
Q 2906 2416 2648 2759 
Q 2391 3103 1925 3103 
Q 1463 3103 1205 2759 
Q 947 2416 947 1791 
Q 947 1169 1205 825 
Q 1463 481 1925 481 
Q 2391 481 2648 825 
Q 2906 1169 2906 1791 
z
M 3481 434 
Q 3481 -459 3084 -895 
Q 2688 -1331 1869 -1331 
Q 1566 -1331 1297 -1286 
Q 1028 -1241 775 -1147 
L 775 -588 
Q 1028 -725 1275 -790 
Q 1522 -856 1778 -856 
Q 2344 -856 2625 -561 
Q 2906 -266 2906 331 
L 2906 616 
Q 2728 306 2450 153 
Q 2172 0 1784 0 
Q 1141 0 747 490 
Q 353 981 353 1791 
Q 353 2603 747 3093 
Q 1141 3584 1784 3584 
Q 2172 3584 2450 3431 
Q 2728 3278 2906 2969 
L 2906 3500 
L 3481 3500 
L 3481 434 
z
" transform="scale(0.015625)"/>
      <path id="DejaVuSans-20" transform="scale(0.015625)"/>
      <path id="DejaVuSans-43" d="M 4122 4306 
L 4122 3641 
Q 3803 3938 3442 4084 
Q 3081 4231 2675 4231 
Q 1875 4231 1450 3742 
Q 1025 3253 1025 2328 
Q 1025 1406 1450 917 
Q 1875 428 2675 428 
Q 3081 428 3442 575 
Q 3803 722 4122 1019 
L 4122 359 
Q 3791 134 3420 21 
Q 3050 -91 2638 -91 
Q 1578 -91 968 557 
Q 359 1206 359 2328 
Q 359 3453 968 4101 
Q 1578 4750 2638 4750 
Q 3056 4750 3426 4639 
Q 3797 4528 4122 4306 
z
" transform="scale(0.015625)"/>
      <path id="DejaVuSans-76" d="M 191 3500 
L 800 3500 
L 1894 563 
L 2988 3500 
L 3597 3500 
L 2284 0 
L 1503 0 
L 191 3500 
z
" transform="scale(0.015625)"/>
     </defs>
     <use xlink:href="#DejaVuSans-4c"/>
     <use xlink:href="#DejaVuSans-65" x="53.962891"/>
     <use xlink:href="#DejaVuSans-61" x="115.486328"/>
     <use xlink:href="#DejaVuSans-72" x="176.765625"/>
     <use xlink:href="#DejaVuSans-6e" x="216.128906"/>
     <use xlink:href="#DejaVuSans-69" x="279.507812"/>
     <use xlink:href="#DejaVuSans-6e" x="307.291016"/>
     <use xlink:href="#DejaVuSans-67" x="370.669922"/>
     <use xlink:href="#DejaVuSans-20" x="434.146484"/>
     <use xlink:href="#DejaVuSans-43" x="465.933594"/>
     <use xlink:href="#DejaVuSans-75" x="535.757812"/>
     <use xlink:href="#DejaVuSans-72" x="599.136719"/>
     <use xlink:href="#DejaVuSans-76" x="640.25"/>
     <use xlink:href="#DejaVuSans-65" x="699.429688"/>
     <use xlink:href="#DejaVuSans-73" x="760.953125"/>
    </g>
   </g>
   <g id="legend_1">
    <g id="patch_7">
     <path d="M 214.18875 302.584 
L 407.72 302.584 
Q 409.72 302.584 409.72 300.584 
L 409.72 228.193375 
Q 409.72 226.193375 407.72 226.193375 
L 214.18875 226.193375 
Q 212.18875 226.193375 212.18875 228.193375 
L 212.18875 300.584 
Q 212.18875 302.584 214.18875 302.584 
z
" style="fill: #ffffff; opacity: 0.8; stroke: #cccccc; stroke-linejoin: miter"/>
    </g>
    <g id="line2d_23">
     <path d="M 216.18875 234.291812 
L 226.18875 234.291812 
L 236.18875 234.291812 
" style="fill: none; stroke: #1f77b4; stroke-width: 1.5; stroke-linecap: square"/>
    </g>
    <g id="text_21">
     <!-- Train Accuracy -->
     <g transform="translate(244.18875 237.791812) scale(0.1 -0.1)">
      <defs>
       <path id="DejaVuSans-54" d="M -19 4666 
L 3928 4666 
L 3928 4134 
L 2272 4134 
L 2272 0 
L 1638 0 
L 1638 4134 
L -19 4134 
L -19 4666 
z
" transform="scale(0.015625)"/>
      </defs>
      <use xlink:href="#DejaVuSans-54"/>
      <use xlink:href="#DejaVuSans-72" x="46.333984"/>
      <use xlink:href="#DejaVuSans-61" x="87.447266"/>
      <use xlink:href="#DejaVuSans-69" x="148.726562"/>
      <use xlink:href="#DejaVuSans-6e" x="176.509766"/>
      <use xlink:href="#DejaVuSans-20" x="239.888672"/>
      <use xlink:href="#DejaVuSans-41" x="271.675781"/>
      <use xlink:href="#DejaVuSans-63" x="338.333984"/>
      <use xlink:href="#DejaVuSans-63" x="393.314453"/>
      <use xlink:href="#DejaVuSans-75" x="448.294922"/>
      <use xlink:href="#DejaVuSans-72" x="511.673828"/>
      <use xlink:href="#DejaVuSans-61" x="552.787109"/>
      <use xlink:href="#DejaVuSans-63" x="614.066406"/>
      <use xlink:href="#DejaVuSans-79" x="669.046875"/>
     </g>
    </g>
    <g id="line2d_24">
     <path d="M 216.18875 248.969937 
L 226.18875 248.969937 
L 236.18875 248.969937 
" style="fill: none; stroke: #ff7f0e; stroke-width: 1.5; stroke-linecap: square"/>
    </g>
    <g id="text_22">
     <!-- Validation Accuracy -->
     <g transform="translate(244.18875 252.469937) scale(0.1 -0.1)">
      <defs>
       <path id="DejaVuSans-56" d="M 1831 0 
L 50 4666 
L 709 4666 
L 2188 738 
L 3669 4666 
L 4325 4666 
L 2547 0 
L 1831 0 
z
" transform="scale(0.015625)"/>
       <path id="DejaVuSans-6c" d="M 603 4863 
L 1178 4863 
L 1178 0 
L 603 0 
L 603 4863 
z
" transform="scale(0.015625)"/>
       <path id="DejaVuSans-64" d="M 2906 2969 
L 2906 4863 
L 3481 4863 
L 3481 0 
L 2906 0 
L 2906 525 
Q 2725 213 2448 61 
Q 2172 -91 1784 -91 
Q 1150 -91 751 415 
Q 353 922 353 1747 
Q 353 2572 751 3078 
Q 1150 3584 1784 3584 
Q 2172 3584 2448 3432 
Q 2725 3281 2906 2969 
z
M 947 1747 
Q 947 1113 1208 752 
Q 1469 391 1925 391 
Q 2381 391 2643 752 
Q 2906 1113 2906 1747 
Q 2906 2381 2643 2742 
Q 2381 3103 1925 3103 
Q 1469 3103 1208 2742 
Q 947 2381 947 1747 
z
" transform="scale(0.015625)"/>
       <path id="DejaVuSans-74" d="M 1172 4494 
L 1172 3500 
L 2356 3500 
L 2356 3053 
L 1172 3053 
L 1172 1153 
Q 1172 725 1289 603 
Q 1406 481 1766 481 
L 2356 481 
L 2356 0 
L 1766 0 
Q 1100 0 847 248 
Q 594 497 594 1153 
L 594 3053 
L 172 3053 
L 172 3500 
L 594 3500 
L 594 4494 
L 1172 4494 
z
" transform="scale(0.015625)"/>
      </defs>
      <use xlink:href="#DejaVuSans-56"/>
      <use xlink:href="#DejaVuSans-61" x="60.658203"/>
      <use xlink:href="#DejaVuSans-6c" x="121.9375"/>
      <use xlink:href="#DejaVuSans-69" x="149.720703"/>
      <use xlink:href="#DejaVuSans-64" x="177.503906"/>
      <use xlink:href="#DejaVuSans-61" x="240.980469"/>
      <use xlink:href="#DejaVuSans-74" x="302.259766"/>
      <use xlink:href="#DejaVuSans-69" x="341.46875"/>
      <use xlink:href="#DejaVuSans-6f" x="369.251953"/>
      <use xlink:href="#DejaVuSans-6e" x="430.433594"/>
      <use xlink:href="#DejaVuSans-20" x="493.8125"/>
      <use xlink:href="#DejaVuSans-41" x="525.599609"/>
      <use xlink:href="#DejaVuSans-63" x="592.257812"/>
      <use xlink:href="#DejaVuSans-63" x="647.238281"/>
      <use xlink:href="#DejaVuSans-75" x="702.21875"/>
      <use xlink:href="#DejaVuSans-72" x="765.597656"/>
      <use xlink:href="#DejaVuSans-61" x="806.710938"/>
      <use xlink:href="#DejaVuSans-63" x="867.990234"/>
      <use xlink:href="#DejaVuSans-79" x="922.970703"/>
     </g>
    </g>
    <g id="line2d_25">
     <path d="M 216.18875 263.648062 
L 226.18875 263.648062 
L 236.18875 263.648062 
" style="fill: none; stroke: #2ca02c; stroke-width: 1.5; stroke-linecap: square"/>
    </g>
    <g id="text_23">
     <!-- Robust Validation Accuracy -->
     <g transform="translate(244.18875 267.148062) scale(0.1 -0.1)">
      <defs>
       <path id="DejaVuSans-52" d="M 2841 2188 
Q 3044 2119 3236 1894 
Q 3428 1669 3622 1275 
L 4263 0 
L 3584 0 
L 2988 1197 
Q 2756 1666 2539 1819 
Q 2322 1972 1947 1972 
L 1259 1972 
L 1259 0 
L 628 0 
L 628 4666 
L 2053 4666 
Q 2853 4666 3247 4331 
Q 3641 3997 3641 3322 
Q 3641 2881 3436 2590 
Q 3231 2300 2841 2188 
z
M 1259 4147 
L 1259 2491 
L 2053 2491 
Q 2509 2491 2742 2702 
Q 2975 2913 2975 3322 
Q 2975 3731 2742 3939 
Q 2509 4147 2053 4147 
L 1259 4147 
z
" transform="scale(0.015625)"/>
       <path id="DejaVuSans-62" d="M 3116 1747 
Q 3116 2381 2855 2742 
Q 2594 3103 2138 3103 
Q 1681 3103 1420 2742 
Q 1159 2381 1159 1747 
Q 1159 1113 1420 752 
Q 1681 391 2138 391 
Q 2594 391 2855 752 
Q 3116 1113 3116 1747 
z
M 1159 2969 
Q 1341 3281 1617 3432 
Q 1894 3584 2278 3584 
Q 2916 3584 3314 3078 
Q 3713 2572 3713 1747 
Q 3713 922 3314 415 
Q 2916 -91 2278 -91 
Q 1894 -91 1617 61 
Q 1341 213 1159 525 
L 1159 0 
L 581 0 
L 581 4863 
L 1159 4863 
L 1159 2969 
z
" transform="scale(0.015625)"/>
      </defs>
      <use xlink:href="#DejaVuSans-52"/>
      <use xlink:href="#DejaVuSans-6f" x="64.982422"/>
      <use xlink:href="#DejaVuSans-62" x="126.164062"/>
      <use xlink:href="#DejaVuSans-75" x="189.640625"/>
      <use xlink:href="#DejaVuSans-73" x="253.019531"/>
      <use xlink:href="#DejaVuSans-74" x="305.119141"/>
      <use xlink:href="#DejaVuSans-20" x="344.328125"/>
      <use xlink:href="#DejaVuSans-56" x="376.115234"/>
      <use xlink:href="#DejaVuSans-61" x="436.773438"/>
      <use xlink:href="#DejaVuSans-6c" x="498.052734"/>
      <use xlink:href="#DejaVuSans-69" x="525.835938"/>
      <use xlink:href="#DejaVuSans-64" x="553.619141"/>
      <use xlink:href="#DejaVuSans-61" x="617.095703"/>
      <use xlink:href="#DejaVuSans-74" x="678.375"/>
      <use xlink:href="#DejaVuSans-69" x="717.583984"/>
      <use xlink:href="#DejaVuSans-6f" x="745.367188"/>
      <use xlink:href="#DejaVuSans-6e" x="806.548828"/>
      <use xlink:href="#DejaVuSans-20" x="869.927734"/>
      <use xlink:href="#DejaVuSans-41" x="901.714844"/>
      <use xlink:href="#DejaVuSans-63" x="968.373047"/>
      <use xlink:href="#DejaVuSans-63" x="1023.353516"/>
      <use xlink:href="#DejaVuSans-75" x="1078.333984"/>
      <use xlink:href="#DejaVuSans-72" x="1141.712891"/>
      <use xlink:href="#DejaVuSans-61" x="1182.826172"/>
      <use xlink:href="#DejaVuSans-63" x="1244.105469"/>
      <use xlink:href="#DejaVuSans-79" x="1299.085938"/>
     </g>
    </g>
    <g id="line2d_26">
     <path d="M 216.18875 278.326188 
L 226.18875 278.326188 
L 236.18875 278.326188 
" style="fill: none; stroke: #d62728; stroke-width: 1.5; stroke-linecap: square"/>
    </g>
    <g id="text_24">
     <!-- SWA Validation Accuracy -->
     <g transform="translate(244.18875 281.826188) scale(0.1 -0.1)">
      <defs>
       <path id="DejaVuSans-53" d="M 3425 4513 
L 3425 3897 
Q 3066 4069 2747 4153 
Q 2428 4238 2131 4238 
Q 1616 4238 1336 4038 
Q 1056 3838 1056 3469 
Q 1056 3159 1242 3001 
Q 1428 2844 1947 2747 
L 2328 2669 
Q 3034 2534 3370 2195 
Q 3706 1856 3706 1288 
Q 3706 609 3251 259 
Q 2797 -91 1919 -91 
Q 1588 -91 1214 -16 
Q 841 59 441 206 
L 441 856 
Q 825 641 1194 531 
Q 1563 422 1919 422 
Q 2459 422 2753 634 
Q 3047 847 3047 1241 
Q 3047 1584 2836 1778 
Q 2625 1972 2144 2069 
L 1759 2144 
Q 1053 2284 737 2584 
Q 422 2884 422 3419 
Q 422 4038 858 4394 
Q 1294 4750 2059 4750 
Q 2388 4750 2728 4690 
Q 3069 4631 3425 4513 
z
" transform="scale(0.015625)"/>
       <path id="DejaVuSans-57" d="M 213 4666 
L 850 4666 
L 1831 722 
L 2809 4666 
L 3519 4666 
L 4500 722 
L 5478 4666 
L 6119 4666 
L 4947 0 
L 4153 0 
L 3169 4050 
L 2175 0 
L 1381 0 
L 213 4666 
z
" transform="scale(0.015625)"/>
      </defs>
      <use xlink:href="#DejaVuSans-53"/>
      <use xlink:href="#DejaVuSans-57" x="63.476562"/>
      <use xlink:href="#DejaVuSans-41" x="156.853516"/>
      <use xlink:href="#DejaVuSans-20" x="225.261719"/>
      <use xlink:href="#DejaVuSans-56" x="257.048828"/>
      <use xlink:href="#DejaVuSans-61" x="317.707031"/>
      <use xlink:href="#DejaVuSans-6c" x="378.986328"/>
      <use xlink:href="#DejaVuSans-69" x="406.769531"/>
      <use xlink:href="#DejaVuSans-64" x="434.552734"/>
      <use xlink:href="#DejaVuSans-61" x="498.029297"/>
      <use xlink:href="#DejaVuSans-74" x="559.308594"/>
      <use xlink:href="#DejaVuSans-69" x="598.517578"/>
      <use xlink:href="#DejaVuSans-6f" x="626.300781"/>
      <use xlink:href="#DejaVuSans-6e" x="687.482422"/>
      <use xlink:href="#DejaVuSans-20" x="750.861328"/>
      <use xlink:href="#DejaVuSans-41" x="782.648438"/>
      <use xlink:href="#DejaVuSans-63" x="849.306641"/>
      <use xlink:href="#DejaVuSans-63" x="904.287109"/>
      <use xlink:href="#DejaVuSans-75" x="959.267578"/>
      <use xlink:href="#DejaVuSans-72" x="1022.646484"/>
      <use xlink:href="#DejaVuSans-61" x="1063.759766"/>
      <use xlink:href="#DejaVuSans-63" x="1125.039062"/>
      <use xlink:href="#DejaVuSans-79" x="1180.019531"/>
     </g>
    </g>
    <g id="line2d_27">
     <path d="M 216.18875 293.004312 
L 226.18875 293.004312 
L 236.18875 293.004312 
" style="fill: none; stroke: #9467bd; stroke-width: 1.5; stroke-linecap: square"/>
    </g>
    <g id="text_25">
     <!-- SWA Robust Validation Accuracy -->
     <g transform="translate(244.18875 296.504312) scale(0.1 -0.1)">
      <use xlink:href="#DejaVuSans-53"/>
      <use xlink:href="#DejaVuSans-57" x="63.476562"/>
      <use xlink:href="#DejaVuSans-41" x="156.853516"/>
      <use xlink:href="#DejaVuSans-20" x="225.261719"/>
      <use xlink:href="#DejaVuSans-52" x="257.048828"/>
      <use xlink:href="#DejaVuSans-6f" x="322.03125"/>
      <use xlink:href="#DejaVuSans-62" x="383.212891"/>
      <use xlink:href="#DejaVuSans-75" x="446.689453"/>
      <use xlink:href="#DejaVuSans-73" x="510.068359"/>
      <use xlink:href="#DejaVuSans-74" x="562.167969"/>
      <use xlink:href="#DejaVuSans-20" x="601.376953"/>
      <use xlink:href="#DejaVuSans-56" x="633.164062"/>
      <use xlink:href="#DejaVuSans-61" x="693.822266"/>
      <use xlink:href="#DejaVuSans-6c" x="755.101562"/>
      <use xlink:href="#DejaVuSans-69" x="782.884766"/>
      <use xlink:href="#DejaVuSans-64" x="810.667969"/>
      <use xlink:href="#DejaVuSans-61" x="874.144531"/>
      <use xlink:href="#DejaVuSans-74" x="935.423828"/>
      <use xlink:href="#DejaVuSans-69" x="974.632812"/>
      <use xlink:href="#DejaVuSans-6f" x="1002.416016"/>
      <use xlink:href="#DejaVuSans-6e" x="1063.597656"/>
      <use xlink:href="#DejaVuSans-20" x="1126.976562"/>
      <use xlink:href="#DejaVuSans-41" x="1158.763672"/>
      <use xlink:href="#DejaVuSans-63" x="1225.421875"/>
      <use xlink:href="#DejaVuSans-63" x="1280.402344"/>
      <use xlink:href="#DejaVuSans-75" x="1335.382812"/>
      <use xlink:href="#DejaVuSans-72" x="1398.761719"/>
      <use xlink:href="#DejaVuSans-61" x="1439.875"/>
      <use xlink:href="#DejaVuSans-63" x="1501.154297"/>
      <use xlink:href="#DejaVuSans-79" x="1556.134766"/>
     </g>
    </g>
   </g>
  </g>
 </g>
 <defs>
  <clipPath id="p47c7b40c89">
   <rect x="57.6" y="41.472" width="357.12" height="266.112"/>
  </clipPath>
 </defs>
</svg>
