<?xml version="1.0" encoding="utf-8" standalone="no"?>
<!DOCTYPE svg PUBLIC "-//W3C//DTD SVG 1.1//EN"
  "http://www.w3.org/Graphics/SVG/1.1/DTD/svg11.dtd">
<svg xmlns:xlink="http://www.w3.org/1999/xlink" width="460.8pt" height="345.6pt" viewBox="0 0 460.8 345.6" xmlns="http://www.w3.org/2000/svg" version="1.1">
 <metadata>
  <rdf:RDF xmlns:dc="http://purl.org/dc/elements/1.1/" xmlns:cc="http://creativecommons.org/ns#" xmlns:rdf="http://www.w3.org/1999/02/22-rdf-syntax-ns#">
   <cc:Work>
    <dc:type rdf:resource="http://purl.org/dc/dcmitype/StillImage"/>
    <dc:date>2025-10-12T12:28:07.855406</dc:date>
    <dc:format>image/svg+xml</dc:format>
    <dc:creator>
     <cc:Agent>
      <dc:title>Matplotlib v3.9.1, https://matplotlib.org/</dc:title>
     </cc:Agent>
    </dc:creator>
   </cc:Work>
  </rdf:RDF>
 </metadata>
 <defs>
  <style type="text/css">*{stroke-linejoin: round; stroke-linecap: butt}</style>
 </defs>
 <g id="figure_1">
  <g id="patch_1">
   <path d="M 0 345.6 
L 460.8 345.6 
L 460.8 0 
L 0 0 
z
" style="fill: #ffffff"/>
  </g>
  <g id="axes_1">
   <g id="patch_2">
    <path d="M 57.6 307.584 
L 414.72 307.584 
L 414.72 41.472 
L 57.6 41.472 
z
" style="fill: #ffffff"/>
   </g>
   <g id="matplotlib.axis_1">
    <g id="xtick_1">
     <g id="line2d_1">
      <defs>
       <path id="mc2f6e6eb27" d="M 0 0 
L 0 3.5 
" style="stroke: #000000; stroke-width: 0.8"/>
      </defs>
      <g>
       <use xlink:href="#mc2f6e6eb27" x="73.832727" y="307.584" style="stroke: #000000; stroke-width: 0.8"/>
      </g>
     </g>
     <g id="text_1">
      <!-- 1 -->
      <g transform="translate(70.651477 322.182437) scale(0.1 -0.1)">
       <defs>
        <path id="DejaVuSans-31" d="M 794 531 
L 1825 531 
L 1825 4091 
L 703 3866 
L 703 4441 
L 1819 4666 
L 2450 4666 
L 2450 531 
L 3481 531 
L 3481 0 
L 794 0 
L 794 531 
z
" transform="scale(0.015625)"/>
       </defs>
       <use xlink:href="#DejaVuSans-31"/>
      </g>
     </g>
    </g>
    <g id="xtick_2">
     <g id="line2d_2">
      <g>
       <use xlink:href="#mc2f6e6eb27" x="109.664165" y="307.584" style="stroke: #000000; stroke-width: 0.8"/>
      </g>
     </g>
     <g id="text_2">
      <!-- 34 -->
      <g transform="translate(103.301665 322.182437) scale(0.1 -0.1)">
       <defs>
        <path id="DejaVuSans-33" d="M 2597 2516 
Q 3050 2419 3304 2112 
Q 3559 1806 3559 1356 
Q 3559 666 3084 287 
Q 2609 -91 1734 -91 
Q 1441 -91 1130 -33 
Q 819 25 488 141 
L 488 750 
Q 750 597 1062 519 
Q 1375 441 1716 441 
Q 2309 441 2620 675 
Q 2931 909 2931 1356 
Q 2931 1769 2642 2001 
Q 2353 2234 1838 2234 
L 1294 2234 
L 1294 2753 
L 1863 2753 
Q 2328 2753 2575 2939 
Q 2822 3125 2822 3475 
Q 2822 3834 2567 4026 
Q 2313 4219 1838 4219 
Q 1578 4219 1281 4162 
Q 984 4106 628 3988 
L 628 4550 
Q 988 4650 1302 4700 
Q 1616 4750 1894 4750 
Q 2613 4750 3031 4423 
Q 3450 4097 3450 3541 
Q 3450 3153 3228 2886 
Q 3006 2619 2597 2516 
z
" transform="scale(0.015625)"/>
        <path id="DejaVuSans-34" d="M 2419 4116 
L 825 1625 
L 2419 1625 
L 2419 4116 
z
M 2253 4666 
L 3047 4666 
L 3047 1625 
L 3713 1625 
L 3713 1100 
L 3047 1100 
L 3047 0 
L 2419 0 
L 2419 1100 
L 313 1100 
L 313 1709 
L 2253 4666 
z
" transform="scale(0.015625)"/>
       </defs>
       <use xlink:href="#DejaVuSans-33"/>
       <use xlink:href="#DejaVuSans-34" x="63.623047"/>
      </g>
     </g>
    </g>
    <g id="xtick_3">
     <g id="line2d_3">
      <g>
       <use xlink:href="#mc2f6e6eb27" x="145.495604" y="307.584" style="stroke: #000000; stroke-width: 0.8"/>
      </g>
     </g>
     <g id="text_3">
      <!-- 67 -->
      <g transform="translate(139.133104 322.182437) scale(0.1 -0.1)">
       <defs>
        <path id="DejaVuSans-36" d="M 2113 2584 
Q 1688 2584 1439 2293 
Q 1191 2003 1191 1497 
Q 1191 994 1439 701 
Q 1688 409 2113 409 
Q 2538 409 2786 701 
Q 3034 994 3034 1497 
Q 3034 2003 2786 2293 
Q 2538 2584 2113 2584 
z
M 3366 4563 
L 3366 3988 
Q 3128 4100 2886 4159 
Q 2644 4219 2406 4219 
Q 1781 4219 1451 3797 
Q 1122 3375 1075 2522 
Q 1259 2794 1537 2939 
Q 1816 3084 2150 3084 
Q 2853 3084 3261 2657 
Q 3669 2231 3669 1497 
Q 3669 778 3244 343 
Q 2819 -91 2113 -91 
Q 1303 -91 875 529 
Q 447 1150 447 2328 
Q 447 3434 972 4092 
Q 1497 4750 2381 4750 
Q 2619 4750 2861 4703 
Q 3103 4656 3366 4563 
z
" transform="scale(0.015625)"/>
        <path id="DejaVuSans-37" d="M 525 4666 
L 3525 4666 
L 3525 4397 
L 1831 0 
L 1172 0 
L 2766 4134 
L 525 4134 
L 525 4666 
z
" transform="scale(0.015625)"/>
       </defs>
       <use xlink:href="#DejaVuSans-36"/>
       <use xlink:href="#DejaVuSans-37" x="63.623047"/>
      </g>
     </g>
    </g>
    <g id="xtick_4">
     <g id="line2d_4">
      <g>
       <use xlink:href="#mc2f6e6eb27" x="181.327042" y="307.584" style="stroke: #000000; stroke-width: 0.8"/>
      </g>
     </g>
     <g id="text_4">
      <!-- 100 -->
      <g transform="translate(171.783292 322.182437) scale(0.1 -0.1)">
       <defs>
        <path id="DejaVuSans-30" d="M 2034 4250 
Q 1547 4250 1301 3770 
Q 1056 3291 1056 2328 
Q 1056 1369 1301 889 
Q 1547 409 2034 409 
Q 2525 409 2770 889 
Q 3016 1369 3016 2328 
Q 3016 3291 2770 3770 
Q 2525 4250 2034 4250 
z
M 2034 4750 
Q 2819 4750 3233 4129 
Q 3647 3509 3647 2328 
Q 3647 1150 3233 529 
Q 2819 -91 2034 -91 
Q 1250 -91 836 529 
Q 422 1150 422 2328 
Q 422 3509 836 4129 
Q 1250 4750 2034 4750 
z
" transform="scale(0.015625)"/>
       </defs>
       <use xlink:href="#DejaVuSans-31"/>
       <use xlink:href="#DejaVuSans-30" x="63.623047"/>
       <use xlink:href="#DejaVuSans-30" x="127.246094"/>
      </g>
     </g>
    </g>
    <g id="xtick_5">
     <g id="line2d_5">
      <g>
       <use xlink:href="#mc2f6e6eb27" x="217.15848" y="307.584" style="stroke: #000000; stroke-width: 0.8"/>
      </g>
     </g>
     <g id="text_5">
      <!-- 133 -->
      <g transform="translate(207.61473 322.182437) scale(0.1 -0.1)">
       <use xlink:href="#DejaVuSans-31"/>
       <use xlink:href="#DejaVuSans-33" x="63.623047"/>
       <use xlink:href="#DejaVuSans-33" x="127.246094"/>
      </g>
     </g>
    </g>
    <g id="xtick_6">
     <g id="line2d_6">
      <g>
       <use xlink:href="#mc2f6e6eb27" x="254.075719" y="307.584" style="stroke: #000000; stroke-width: 0.8"/>
      </g>
     </g>
     <g id="text_6">
      <!-- 167 -->
      <g transform="translate(244.531969 322.182437) scale(0.1 -0.1)">
       <use xlink:href="#DejaVuSans-31"/>
       <use xlink:href="#DejaVuSans-36" x="63.623047"/>
       <use xlink:href="#DejaVuSans-37" x="127.246094"/>
      </g>
     </g>
    </g>
    <g id="xtick_7">
     <g id="line2d_7">
      <g>
       <use xlink:href="#mc2f6e6eb27" x="289.907157" y="307.584" style="stroke: #000000; stroke-width: 0.8"/>
      </g>
     </g>
     <g id="text_7">
      <!-- 200 -->
      <g transform="translate(280.363407 322.182437) scale(0.1 -0.1)">
       <defs>
        <path id="DejaVuSans-32" d="M 1228 531 
L 3431 531 
L 3431 0 
L 469 0 
L 469 531 
Q 828 903 1448 1529 
Q 2069 2156 2228 2338 
Q 2531 2678 2651 2914 
Q 2772 3150 2772 3378 
Q 2772 3750 2511 3984 
Q 2250 4219 1831 4219 
Q 1534 4219 1204 4116 
Q 875 4013 500 3803 
L 500 4441 
Q 881 4594 1212 4672 
Q 1544 4750 1819 4750 
Q 2544 4750 2975 4387 
Q 3406 4025 3406 3419 
Q 3406 3131 3298 2873 
Q 3191 2616 2906 2266 
Q 2828 2175 2409 1742 
Q 1991 1309 1228 531 
z
" transform="scale(0.015625)"/>
       </defs>
       <use xlink:href="#DejaVuSans-32"/>
       <use xlink:href="#DejaVuSans-30" x="63.623047"/>
       <use xlink:href="#DejaVuSans-30" x="127.246094"/>
      </g>
     </g>
    </g>
    <g id="xtick_8">
     <g id="line2d_8">
      <g>
       <use xlink:href="#mc2f6e6eb27" x="325.738595" y="307.584" style="stroke: #000000; stroke-width: 0.8"/>
      </g>
     </g>
     <g id="text_8">
      <!-- 233 -->
      <g transform="translate(316.194845 322.182437) scale(0.1 -0.1)">
       <use xlink:href="#DejaVuSans-32"/>
       <use xlink:href="#DejaVuSans-33" x="63.623047"/>
       <use xlink:href="#DejaVuSans-33" x="127.246094"/>
      </g>
     </g>
    </g>
    <g id="xtick_9">
     <g id="line2d_9">
      <g>
       <use xlink:href="#mc2f6e6eb27" x="361.570033" y="307.584" style="stroke: #000000; stroke-width: 0.8"/>
      </g>
     </g>
     <g id="text_9">
      <!-- 266 -->
      <g transform="translate(352.026283 322.182437) scale(0.1 -0.1)">
       <use xlink:href="#DejaVuSans-32"/>
       <use xlink:href="#DejaVuSans-36" x="63.623047"/>
       <use xlink:href="#DejaVuSans-36" x="127.246094"/>
      </g>
     </g>
    </g>
    <g id="xtick_10">
     <g id="line2d_10">
      <g>
       <use xlink:href="#mc2f6e6eb27" x="398.487273" y="307.584" style="stroke: #000000; stroke-width: 0.8"/>
      </g>
     </g>
     <g id="text_10">
      <!-- 300 -->
      <g transform="translate(388.943523 322.182437) scale(0.1 -0.1)">
       <use xlink:href="#DejaVuSans-33"/>
       <use xlink:href="#DejaVuSans-30" x="63.623047"/>
       <use xlink:href="#DejaVuSans-30" x="127.246094"/>
      </g>
     </g>
    </g>
    <g id="text_11">
     <!-- Epochs -->
     <g transform="translate(218.244375 335.860562) scale(0.1 -0.1)">
      <defs>
       <path id="DejaVuSans-45" d="M 628 4666 
L 3578 4666 
L 3578 4134 
L 1259 4134 
L 1259 2753 
L 3481 2753 
L 3481 2222 
L 1259 2222 
L 1259 531 
L 3634 531 
L 3634 0 
L 628 0 
L 628 4666 
z
" transform="scale(0.015625)"/>
       <path id="DejaVuSans-70" d="M 1159 525 
L 1159 -1331 
L 581 -1331 
L 581 3500 
L 1159 3500 
L 1159 2969 
Q 1341 3281 1617 3432 
Q 1894 3584 2278 3584 
Q 2916 3584 3314 3078 
Q 3713 2572 3713 1747 
Q 3713 922 3314 415 
Q 2916 -91 2278 -91 
Q 1894 -91 1617 61 
Q 1341 213 1159 525 
z
M 3116 1747 
Q 3116 2381 2855 2742 
Q 2594 3103 2138 3103 
Q 1681 3103 1420 2742 
Q 1159 2381 1159 1747 
Q 1159 1113 1420 752 
Q 1681 391 2138 391 
Q 2594 391 2855 752 
Q 3116 1113 3116 1747 
z
" transform="scale(0.015625)"/>
       <path id="DejaVuSans-6f" d="M 1959 3097 
Q 1497 3097 1228 2736 
Q 959 2375 959 1747 
Q 959 1119 1226 758 
Q 1494 397 1959 397 
Q 2419 397 2687 759 
Q 2956 1122 2956 1747 
Q 2956 2369 2687 2733 
Q 2419 3097 1959 3097 
z
M 1959 3584 
Q 2709 3584 3137 3096 
Q 3566 2609 3566 1747 
Q 3566 888 3137 398 
Q 2709 -91 1959 -91 
Q 1206 -91 779 398 
Q 353 888 353 1747 
Q 353 2609 779 3096 
Q 1206 3584 1959 3584 
z
" transform="scale(0.015625)"/>
       <path id="DejaVuSans-63" d="M 3122 3366 
L 3122 2828 
Q 2878 2963 2633 3030 
Q 2388 3097 2138 3097 
Q 1578 3097 1268 2742 
Q 959 2388 959 1747 
Q 959 1106 1268 751 
Q 1578 397 2138 397 
Q 2388 397 2633 464 
Q 2878 531 3122 666 
L 3122 134 
Q 2881 22 2623 -34 
Q 2366 -91 2075 -91 
Q 1284 -91 818 406 
Q 353 903 353 1747 
Q 353 2603 823 3093 
Q 1294 3584 2113 3584 
Q 2378 3584 2631 3529 
Q 2884 3475 3122 3366 
z
" transform="scale(0.015625)"/>
       <path id="DejaVuSans-68" d="M 3513 2113 
L 3513 0 
L 2938 0 
L 2938 2094 
Q 2938 2591 2744 2837 
Q 2550 3084 2163 3084 
Q 1697 3084 1428 2787 
Q 1159 2491 1159 1978 
L 1159 0 
L 581 0 
L 581 4863 
L 1159 4863 
L 1159 2956 
Q 1366 3272 1645 3428 
Q 1925 3584 2291 3584 
Q 2894 3584 3203 3211 
Q 3513 2838 3513 2113 
z
" transform="scale(0.015625)"/>
       <path id="DejaVuSans-73" d="M 2834 3397 
L 2834 2853 
Q 2591 2978 2328 3040 
Q 2066 3103 1784 3103 
Q 1356 3103 1142 2972 
Q 928 2841 928 2578 
Q 928 2378 1081 2264 
Q 1234 2150 1697 2047 
L 1894 2003 
Q 2506 1872 2764 1633 
Q 3022 1394 3022 966 
Q 3022 478 2636 193 
Q 2250 -91 1575 -91 
Q 1294 -91 989 -36 
Q 684 19 347 128 
L 347 722 
Q 666 556 975 473 
Q 1284 391 1588 391 
Q 1994 391 2212 530 
Q 2431 669 2431 922 
Q 2431 1156 2273 1281 
Q 2116 1406 1581 1522 
L 1381 1569 
Q 847 1681 609 1914 
Q 372 2147 372 2553 
Q 372 3047 722 3315 
Q 1072 3584 1716 3584 
Q 2034 3584 2315 3537 
Q 2597 3491 2834 3397 
z
" transform="scale(0.015625)"/>
      </defs>
      <use xlink:href="#DejaVuSans-45"/>
      <use xlink:href="#DejaVuSans-70" x="63.183594"/>
      <use xlink:href="#DejaVuSans-6f" x="126.660156"/>
      <use xlink:href="#DejaVuSans-63" x="187.841797"/>
      <use xlink:href="#DejaVuSans-68" x="242.822266"/>
      <use xlink:href="#DejaVuSans-73" x="306.201172"/>
     </g>
    </g>
   </g>
   <g id="matplotlib.axis_2">
    <g id="ytick_1">
     <g id="line2d_11">
      <defs>
       <path id="m8d7dd6b5b7" d="M 0 0 
L -3.5 0 
" style="stroke: #000000; stroke-width: 0.8"/>
      </defs>
      <g>
       <use xlink:href="#m8d7dd6b5b7" x="57.6" y="287.267247" style="stroke: #000000; stroke-width: 0.8"/>
      </g>
     </g>
     <g id="text_12">
      <!-- 50 -->
      <g transform="translate(37.875 291.066466) scale(0.1 -0.1)">
       <defs>
        <path id="DejaVuSans-35" d="M 691 4666 
L 3169 4666 
L 3169 4134 
L 1269 4134 
L 1269 2991 
Q 1406 3038 1543 3061 
Q 1681 3084 1819 3084 
Q 2600 3084 3056 2656 
Q 3513 2228 3513 1497 
Q 3513 744 3044 326 
Q 2575 -91 1722 -91 
Q 1428 -91 1123 -41 
Q 819 9 494 109 
L 494 744 
Q 775 591 1075 516 
Q 1375 441 1709 441 
Q 2250 441 2565 725 
Q 2881 1009 2881 1497 
Q 2881 1984 2565 2268 
Q 2250 2553 1709 2553 
Q 1456 2553 1204 2497 
Q 953 2441 691 2322 
L 691 4666 
z
" transform="scale(0.015625)"/>
       </defs>
       <use xlink:href="#DejaVuSans-35"/>
       <use xlink:href="#DejaVuSans-30" x="63.623047"/>
      </g>
     </g>
    </g>
    <g id="ytick_2">
     <g id="line2d_12">
      <g>
       <use xlink:href="#m8d7dd6b5b7" x="57.6" y="240.521788" style="stroke: #000000; stroke-width: 0.8"/>
      </g>
     </g>
     <g id="text_13">
      <!-- 60 -->
      <g transform="translate(37.875 244.321007) scale(0.1 -0.1)">
       <use xlink:href="#DejaVuSans-36"/>
       <use xlink:href="#DejaVuSans-30" x="63.623047"/>
      </g>
     </g>
    </g>
    <g id="ytick_3">
     <g id="line2d_13">
      <g>
       <use xlink:href="#m8d7dd6b5b7" x="57.6" y="193.776329" style="stroke: #000000; stroke-width: 0.8"/>
      </g>
     </g>
     <g id="text_14">
      <!-- 70 -->
      <g transform="translate(37.875 197.575548) scale(0.1 -0.1)">
       <use xlink:href="#DejaVuSans-37"/>
       <use xlink:href="#DejaVuSans-30" x="63.623047"/>
      </g>
     </g>
    </g>
    <g id="ytick_4">
     <g id="line2d_14">
      <g>
       <use xlink:href="#m8d7dd6b5b7" x="57.6" y="147.03087" style="stroke: #000000; stroke-width: 0.8"/>
      </g>
     </g>
     <g id="text_15">
      <!-- 80 -->
      <g transform="translate(37.875 150.830089) scale(0.1 -0.1)">
       <defs>
        <path id="DejaVuSans-38" d="M 2034 2216 
Q 1584 2216 1326 1975 
Q 1069 1734 1069 1313 
Q 1069 891 1326 650 
Q 1584 409 2034 409 
Q 2484 409 2743 651 
Q 3003 894 3003 1313 
Q 3003 1734 2745 1975 
Q 2488 2216 2034 2216 
z
M 1403 2484 
Q 997 2584 770 2862 
Q 544 3141 544 3541 
Q 544 4100 942 4425 
Q 1341 4750 2034 4750 
Q 2731 4750 3128 4425 
Q 3525 4100 3525 3541 
Q 3525 3141 3298 2862 
Q 3072 2584 2669 2484 
Q 3125 2378 3379 2068 
Q 3634 1759 3634 1313 
Q 3634 634 3220 271 
Q 2806 -91 2034 -91 
Q 1263 -91 848 271 
Q 434 634 434 1313 
Q 434 1759 690 2068 
Q 947 2378 1403 2484 
z
M 1172 3481 
Q 1172 3119 1398 2916 
Q 1625 2713 2034 2713 
Q 2441 2713 2670 2916 
Q 2900 3119 2900 3481 
Q 2900 3844 2670 4047 
Q 2441 4250 2034 4250 
Q 1625 4250 1398 4047 
Q 1172 3844 1172 3481 
z
" transform="scale(0.015625)"/>
       </defs>
       <use xlink:href="#DejaVuSans-38"/>
       <use xlink:href="#DejaVuSans-30" x="63.623047"/>
      </g>
     </g>
    </g>
    <g id="ytick_5">
     <g id="line2d_15">
      <g>
       <use xlink:href="#m8d7dd6b5b7" x="57.6" y="100.285412" style="stroke: #000000; stroke-width: 0.8"/>
      </g>
     </g>
     <g id="text_16">
      <!-- 90 -->
      <g transform="translate(37.875 104.08463) scale(0.1 -0.1)">
       <defs>
        <path id="DejaVuSans-39" d="M 703 97 
L 703 672 
Q 941 559 1184 500 
Q 1428 441 1663 441 
Q 2288 441 2617 861 
Q 2947 1281 2994 2138 
Q 2813 1869 2534 1725 
Q 2256 1581 1919 1581 
Q 1219 1581 811 2004 
Q 403 2428 403 3163 
Q 403 3881 828 4315 
Q 1253 4750 1959 4750 
Q 2769 4750 3195 4129 
Q 3622 3509 3622 2328 
Q 3622 1225 3098 567 
Q 2575 -91 1691 -91 
Q 1453 -91 1209 -44 
Q 966 3 703 97 
z
M 1959 2075 
Q 2384 2075 2632 2365 
Q 2881 2656 2881 3163 
Q 2881 3666 2632 3958 
Q 2384 4250 1959 4250 
Q 1534 4250 1286 3958 
Q 1038 3666 1038 3163 
Q 1038 2656 1286 2365 
Q 1534 2075 1959 2075 
z
" transform="scale(0.015625)"/>
       </defs>
       <use xlink:href="#DejaVuSans-39"/>
       <use xlink:href="#DejaVuSans-30" x="63.623047"/>
      </g>
     </g>
    </g>
    <g id="ytick_6">
     <g id="line2d_16">
      <g>
       <use xlink:href="#m8d7dd6b5b7" x="57.6" y="53.539953" style="stroke: #000000; stroke-width: 0.8"/>
      </g>
     </g>
     <g id="text_17">
      <!-- 100 -->
      <g transform="translate(31.5125 57.339171) scale(0.1 -0.1)">
       <use xlink:href="#DejaVuSans-31"/>
       <use xlink:href="#DejaVuSans-30" x="63.623047"/>
       <use xlink:href="#DejaVuSans-30" x="127.246094"/>
      </g>
     </g>
    </g>
    <g id="text_18">
     <!-- Accuracy -->
     <g transform="translate(25.432812 197.356125) rotate(-90) scale(0.1 -0.1)">
      <defs>
       <path id="DejaVuSans-41" d="M 2188 4044 
L 1331 1722 
L 3047 1722 
L 2188 4044 
z
M 1831 4666 
L 2547 4666 
L 4325 0 
L 3669 0 
L 3244 1197 
L 1141 1197 
L 716 0 
L 50 0 
L 1831 4666 
z
" transform="scale(0.015625)"/>
       <path id="DejaVuSans-75" d="M 544 1381 
L 544 3500 
L 1119 3500 
L 1119 1403 
Q 1119 906 1312 657 
Q 1506 409 1894 409 
Q 2359 409 2629 706 
Q 2900 1003 2900 1516 
L 2900 3500 
L 3475 3500 
L 3475 0 
L 2900 0 
L 2900 538 
Q 2691 219 2414 64 
Q 2138 -91 1772 -91 
Q 1169 -91 856 284 
Q 544 659 544 1381 
z
M 1991 3584 
L 1991 3584 
z
" transform="scale(0.015625)"/>
       <path id="DejaVuSans-72" d="M 2631 2963 
Q 2534 3019 2420 3045 
Q 2306 3072 2169 3072 
Q 1681 3072 1420 2755 
Q 1159 2438 1159 1844 
L 1159 0 
L 581 0 
L 581 3500 
L 1159 3500 
L 1159 2956 
Q 1341 3275 1631 3429 
Q 1922 3584 2338 3584 
Q 2397 3584 2469 3576 
Q 2541 3569 2628 3553 
L 2631 2963 
z
" transform="scale(0.015625)"/>
       <path id="DejaVuSans-61" d="M 2194 1759 
Q 1497 1759 1228 1600 
Q 959 1441 959 1056 
Q 959 750 1161 570 
Q 1363 391 1709 391 
Q 2188 391 2477 730 
Q 2766 1069 2766 1631 
L 2766 1759 
L 2194 1759 
z
M 3341 1997 
L 3341 0 
L 2766 0 
L 2766 531 
Q 2569 213 2275 61 
Q 1981 -91 1556 -91 
Q 1019 -91 701 211 
Q 384 513 384 1019 
Q 384 1609 779 1909 
Q 1175 2209 1959 2209 
L 2766 2209 
L 2766 2266 
Q 2766 2663 2505 2880 
Q 2244 3097 1772 3097 
Q 1472 3097 1187 3025 
Q 903 2953 641 2809 
L 641 3341 
Q 956 3463 1253 3523 
Q 1550 3584 1831 3584 
Q 2591 3584 2966 3190 
Q 3341 2797 3341 1997 
z
" transform="scale(0.015625)"/>
       <path id="DejaVuSans-79" d="M 2059 -325 
Q 1816 -950 1584 -1140 
Q 1353 -1331 966 -1331 
L 506 -1331 
L 506 -850 
L 844 -850 
Q 1081 -850 1212 -737 
Q 1344 -625 1503 -206 
L 1606 56 
L 191 3500 
L 800 3500 
L 1894 763 
L 2988 3500 
L 3597 3500 
L 2059 -325 
z
" transform="scale(0.015625)"/>
      </defs>
      <use xlink:href="#DejaVuSans-41"/>
      <use xlink:href="#DejaVuSans-63" x="66.658203"/>
      <use xlink:href="#DejaVuSans-63" x="121.638672"/>
      <use xlink:href="#DejaVuSans-75" x="176.619141"/>
      <use xlink:href="#DejaVuSans-72" x="239.998047"/>
      <use xlink:href="#DejaVuSans-61" x="281.111328"/>
      <use xlink:href="#DejaVuSans-63" x="342.390625"/>
      <use xlink:href="#DejaVuSans-79" x="397.371094"/>
     </g>
    </g>
   </g>
   <g id="line2d_17">
    <path d="M 73.832727 294.512793 
L 74.918528 197.88993 
L 76.00433 161.101254 
L 77.090131 143.440819 
L 78.175932 131.829247 
L 79.261733 121.778974 
L 81.433335 109.662551 
L 82.519137 104.716881 
L 83.604938 98.64932 
L 84.690739 94.311342 
L 85.77654 88.898218 
L 86.862341 85.57929 
L 87.948142 81.194566 
L 90.119745 74.528664 
L 92.291347 69.73258 
L 93.377148 67.97495 
L 94.462949 67.423354 
L 95.54875 98.76151 
L 96.634552 99.116775 
L 97.720353 95.283647 
L 98.806154 92.637854 
L 99.891955 89.683541 
L 102.063557 85.252072 
L 103.149358 84.513494 
L 104.23516 82.007937 
L 105.320961 80.652319 
L 107.492563 77.34274 
L 108.578364 75.276591 
L 109.664165 74.612806 
L 110.749967 72.958016 
L 111.835768 72.546656 
L 112.921569 70.545951 
L 114.00737 68.863114 
L 115.093171 67.395307 
L 116.178972 66.310812 
L 117.264773 64.562532 
L 118.350575 63.739812 
L 119.436376 63.122772 
L 121.607978 60.149761 
L 124.865382 57.307637 
L 125.951183 57.055211 
L 127.036984 56.101604 
L 129.208586 55.400422 
L 130.294387 55.269535 
L 132.46599 54.764684 
L 133.551791 54.652495 
L 134.637592 54.306578 
L 135.723393 54.418767 
L 136.809194 54.203738 
L 137.894995 54.325276 
L 138.980797 77.118362 
L 140.066598 79.736108 
L 141.152399 77.44558 
L 142.2382 77.211853 
L 143.324001 75.669253 
L 144.409802 73.930322 
L 145.495604 73.668547 
L 146.581405 72.481213 
L 147.667206 72.041805 
L 148.753007 71.247133 
L 149.838808 71.022754 
L 150.924609 70.265478 
L 152.01041 70.050449 
L 153.096212 69.265125 
L 154.182013 68.863114 
L 155.267814 67.731874 
L 156.353615 67.956252 
L 157.439416 67.900158 
L 158.525217 66.927852 
L 159.611019 66.656728 
L 160.69682 65.740517 
L 161.782621 65.086081 
L 162.868422 64.646674 
L 163.954223 64.394248 
L 165.040024 63.702415 
L 166.125825 64.16987 
L 167.211627 63.702415 
L 168.297428 63.674368 
L 169.383229 62.804903 
L 171.554831 61.608219 
L 172.640632 61.720408 
L 173.726434 61.094019 
L 174.812235 60.318044 
L 175.898036 60.318044 
L 178.069638 59.102662 
L 179.155439 59.485975 
L 180.24124 58.373433 
L 181.327042 58.261244 
L 182.412843 57.943375 
L 183.498644 57.335684 
L 185.670246 57.429175 
L 186.756047 56.821484 
L 188.92765 55.914622 
L 192.185053 55.334978 
L 193.270854 54.727287 
L 194.356656 54.792731 
L 195.442457 54.540306 
L 196.528258 54.437466 
L 197.614059 54.138295 
L 199.785661 54.054153 
L 203.043065 53.792378 
L 204.128866 53.867171 
L 206.300468 53.689538 
L 207.386269 53.754982 
L 209.557872 53.633444 
L 210.643673 53.736284 
L 211.729474 53.661491 
L 212.815275 53.708236 
L 213.901076 53.577349 
L 214.986877 53.689538 
L 217.15848 53.614745 
L 224.759088 53.642793 
L 225.844889 71.17234 
L 226.93069 75.940377 
L 228.016491 75.454224 
L 229.102292 73.191744 
L 230.188094 72.696242 
L 232.359696 70.181336 
L 233.445497 70.031751 
L 234.531298 68.470452 
L 235.617099 67.348561 
L 236.702901 67.853412 
L 237.788702 67.245721 
L 238.874503 67.928205 
L 239.960304 66.796965 
L 241.046105 66.666078 
L 242.131906 65.422648 
L 243.217708 65.768565 
L 244.303509 65.076732 
L 245.38931 65.572234 
L 246.475111 65.132827 
L 247.560912 64.207266 
L 248.646713 64.104426 
L 249.732514 64.179219 
L 251.904117 64.038983 
L 252.989918 63.580877 
L 254.075719 63.795906 
L 255.16152 63.178866 
L 256.247321 63.992237 
L 257.333123 63.234961 
L 258.418924 62.187863 
L 259.504725 62.851648 
L 260.590526 63.328452 
L 261.676327 62.561826 
L 263.847929 62.412241 
L 266.019532 61.467983 
L 267.105333 61.851295 
L 268.191134 62.000881 
L 269.276935 61.926088 
L 270.362736 61.243604 
L 271.448538 61.80455 
L 272.534339 61.224906 
L 273.62014 61.888692 
L 274.705941 61.178161 
L 275.791742 61.561473 
L 276.877543 61.206208 
L 277.963344 59.897335 
L 279.049146 60.589168 
L 280.134947 60.766801 
L 281.220748 59.934731 
L 282.306549 60.215204 
L 283.39235 60.308695 
L 284.478151 60.271299 
L 285.563953 59.813193 
L 287.735555 59.682306 
L 288.821356 59.672957 
L 290.992958 59.196153 
L 292.07876 59.23355 
L 293.164561 58.868935 
L 294.250362 58.999822 
L 296.421964 58.756746 
L 297.507765 58.457575 
L 298.593566 58.934379 
L 299.679368 58.523019 
L 300.765169 57.924677 
L 301.85097 58.579113 
L 302.936771 57.915328 
L 304.022572 58.317339 
L 305.108373 57.718997 
L 307.279976 57.345033 
L 308.365777 57.569411 
L 309.451578 56.774738 
L 311.62318 56.812135 
L 312.708981 56.372728 
L 313.794783 56.559709 
L 314.880584 56.96172 
L 317.052186 56.643851 
L 318.137987 55.895924 
L 319.223788 56.269888 
L 320.30959 55.961367 
L 321.395391 55.942669 
L 322.481192 55.578055 
L 323.566993 55.858527 
L 324.652794 55.447167 
L 325.738595 55.484564 
L 326.824396 55.00776 
L 327.910198 55.334978 
L 330.0818 54.736636 
L 331.167601 55.00776 
L 332.253402 54.512258 
L 333.339203 54.970364 
L 336.596607 54.521607 
L 337.682408 54.100898 
L 338.768209 54.362673 
L 339.85401 54.194389 
L 340.939811 54.18504 
L 342.025613 54.044804 
L 344.197215 53.97936 
L 345.283016 53.829775 
L 346.368817 53.913916 
L 347.454618 53.764331 
L 348.54042 53.87652 
L 349.626221 53.754982 
L 350.712022 53.783029 
L 351.797823 53.661491 
L 356.141028 53.67084 
L 370.256443 53.596047 
L 371.342244 53.680189 
L 372.428045 53.624095 
L 373.513846 53.783029 
L 374.599647 53.792378 
L 376.77125 53.951313 
L 377.857051 53.895218 
L 381.114454 54.166342 
L 383.286057 54.521607 
L 384.371858 54.372022 
L 385.457659 54.456164 
L 386.54346 54.343975 
L 389.800863 54.297229 
L 391.972466 54.820778 
L 393.058267 54.605749 
L 394.144068 54.559004 
L 395.229869 54.839476 
L 396.31567 54.998411 
L 397.401472 54.764684 
L 398.487273 54.839476 
L 398.487273 54.839476 
" clip-path="url(#p91a26ce821)" style="fill: none; stroke: #1f77b4; stroke-width: 1.5; stroke-linecap: square"/>
   </g>
   <g id="line2d_18">
    <path d="M 73.832727 237.343097 
L 74.918528 191.626038 
L 76.00433 183.071619 
L 77.090131 162.78409 
L 79.261733 128.846887 
L 80.347534 136.84036 
L 81.433335 118.562886 
L 82.519137 117.768213 
L 83.604938 109.494267 
L 84.690739 109.026812 
L 85.77654 101.687775 
L 89.033943 97.480684 
L 90.119745 95.04992 
L 91.205546 90.42212 
L 92.291347 90.515611 
L 93.377148 90.235138 
L 94.462949 90.235138 
L 95.54875 118.983595 
L 96.634552 110.662903 
L 97.720353 111.31734 
L 98.806154 116.833304 
L 99.891955 104.72623 
L 102.063557 107.343976 
L 103.149358 106.081848 
L 104.23516 103.791321 
L 105.320961 98.696066 
L 106.406762 98.789557 
L 107.492563 100.004939 
L 108.578364 93.554065 
L 109.664165 99.677721 
L 110.749967 102.996648 
L 111.835768 98.696066 
L 112.921569 99.864702 
L 114.00737 92.99312 
L 115.093171 93.039865 
L 116.178972 92.47892 
L 117.264773 89.861174 
L 118.350575 90.281883 
L 119.436376 88.131592 
L 120.522177 88.599047 
L 121.607978 88.36532 
L 122.693779 87.43041 
L 123.77958 87.757629 
L 124.865382 86.168283 
L 127.036984 85.607337 
L 128.122785 84.251719 
L 129.208586 84.017992 
L 130.294387 84.158228 
L 131.380189 82.615628 
L 132.46599 82.989592 
L 134.637592 82.568883 
L 136.809194 82.28841 
L 137.894995 82.522137 
L 138.980797 107.671194 
L 140.066598 103.744576 
L 141.152399 98.976539 
L 142.2382 99.210266 
L 143.324001 98.415593 
L 144.409802 98.368848 
L 145.495604 103.18363 
L 146.581405 102.061739 
L 147.667206 93.039865 
L 148.753007 99.771212 
L 149.838808 98.883048 
L 150.924609 99.303757 
L 152.01041 94.629211 
L 153.096212 99.630975 
L 154.182013 98.462339 
L 155.267814 96.732757 
L 156.353615 97.480684 
L 157.439416 95.143411 
L 158.525217 99.771212 
L 159.611019 92.245193 
L 160.69682 91.357029 
L 161.782621 95.517375 
L 162.868422 91.45052 
L 163.954223 91.777738 
L 165.040024 90.842829 
L 166.125825 96.59252 
L 167.211627 96.59252 
L 168.297428 94.161756 
L 169.383229 92.712647 
L 170.46903 92.011465 
L 171.554831 88.178338 
L 172.640632 92.852884 
L 173.726434 92.104956 
L 174.812235 88.225083 
L 175.898036 88.271829 
L 176.983837 88.87952 
L 178.069638 85.280119 
L 179.155439 87.664138 
L 180.24124 89.627447 
L 181.327042 86.121538 
L 182.412843 88.271829 
L 183.498644 86.121538 
L 184.584445 85.607337 
L 185.670246 84.34521 
L 186.756047 86.215028 
L 187.841849 84.672428 
L 188.92765 84.485446 
L 190.013451 87.149938 
L 191.099252 84.064737 
L 192.185053 85.747574 
L 193.270854 84.812665 
L 194.356656 84.485446 
L 195.442457 82.428646 
L 196.528258 82.662374 
L 197.614059 82.428646 
L 198.69986 82.80261 
L 199.785661 82.101428 
L 200.871462 79.810901 
L 201.957264 80.278355 
L 203.043065 81.353501 
L 204.128866 81.213264 
L 205.214667 80.23161 
L 206.300468 80.184864 
L 207.386269 80.605573 
L 208.472071 79.483682 
L 209.557872 80.605573 
L 210.643673 80.418592 
L 211.729474 79.670664 
L 212.815275 80.044628 
L 213.901076 80.605573 
L 214.986877 80.558828 
L 216.072679 81.213264 
L 217.15848 80.792555 
L 218.244281 79.764155 
L 219.330082 80.605573 
L 220.415883 79.577173 
L 221.501684 80.371846 
L 222.587486 80.184864 
L 223.673287 80.74581 
L 224.759088 80.138119 
L 225.844889 101.547539 
L 226.93069 96.732757 
L 228.016491 101.360557 
L 229.102292 96.358793 
L 230.188094 96.358793 
L 231.273895 96.732757 
L 232.359696 96.545775 
L 233.445497 99.443993 
L 234.531298 108.699594 
L 235.617099 95.330393 
L 236.702901 93.50732 
L 237.788702 95.096666 
L 238.874503 92.291938 
L 239.960304 97.246957 
L 241.046105 99.397248 
L 242.131906 94.348738 
L 243.217708 92.011465 
L 244.303509 96.265302 
L 245.38931 92.151702 
L 246.475111 91.637502 
L 247.560912 95.003175 
L 248.646713 92.99312 
L 249.732514 95.143411 
L 250.818316 95.003175 
L 251.904117 91.497265 
L 252.989918 91.684247 
L 254.075719 92.852884 
L 255.16152 91.216793 
L 256.247321 100.846357 
L 257.333123 93.180102 
L 258.418924 95.984829 
L 259.504725 94.629211 
L 260.590526 95.797848 
L 261.676327 94.909684 
L 262.762128 98.04163 
L 263.847929 94.208502 
L 264.933731 91.497265 
L 266.019532 90.609102 
L 267.105333 90.655847 
L 268.191134 91.637502 
L 269.276935 91.637502 
L 270.362736 95.04992 
L 271.448538 90.094902 
L 272.534339 91.684247 
L 273.62014 90.889574 
L 274.705941 92.198447 
L 276.877543 88.926265 
L 277.963344 92.47892 
L 279.049146 93.039865 
L 280.134947 89.113247 
L 281.220748 99.350502 
L 282.306549 89.533956 
L 283.39235 91.871229 
L 284.478151 88.131592 
L 285.563953 89.019756 
L 287.735555 92.759393 
L 288.821356 90.328629 
L 289.907157 90.001411 
L 290.992958 87.804374 
L 292.07876 88.412065 
L 293.164561 90.93632 
L 294.250362 89.90792 
L 295.336163 89.767683 
L 296.421964 97.433939 
L 297.507765 91.403774 
L 298.593566 89.300229 
L 299.679368 89.533956 
L 300.765169 87.290174 
L 301.85097 93.273593 
L 302.936771 87.664138 
L 304.022572 90.889574 
L 306.194175 87.570647 
L 307.279976 88.45881 
L 308.365777 87.85112 
L 309.451578 89.39372 
L 310.537379 90.702592 
L 311.62318 85.841065 
L 312.708981 85.88781 
L 313.794783 84.438701 
L 314.880584 87.570647 
L 315.966385 85.934556 
L 318.137987 85.934556 
L 319.223788 86.822719 
L 320.30959 89.113247 
L 321.395391 86.355265 
L 322.481192 86.729228 
L 323.566993 84.298465 
L 324.652794 84.906156 
L 325.738595 84.017992 
L 326.824396 84.064737 
L 327.910198 82.709119 
L 330.0818 83.31681 
L 331.167601 84.906156 
L 332.253402 85.186628 
L 333.339203 83.410301 
L 334.425005 83.784265 
L 335.510806 83.457046 
L 336.596607 82.568883 
L 337.682408 82.194919 
L 338.768209 83.129828 
L 339.85401 82.054683 
L 340.939811 81.914446 
L 342.025613 80.886046 
L 343.111414 81.400246 
L 344.197215 82.428646 
L 345.283016 81.727464 
L 346.368817 80.091373 
L 347.454618 81.119773 
L 348.54042 81.306755 
L 349.626221 80.278355 
L 350.712022 80.184864 
L 351.797823 79.20321 
L 353.969425 80.091373 
L 355.055227 80.932792 
L 356.141028 79.857646 
L 357.226829 79.857646 
L 358.31263 81.166519 
L 359.398431 79.390191 
L 360.484232 79.296701 
L 361.570033 80.184864 
L 362.655835 80.23161 
L 363.741636 79.951137 
L 364.827437 79.810901 
L 365.913238 79.857646 
L 366.999039 79.20321 
L 368.08484 79.483682 
L 369.170642 80.044628 
L 370.256443 80.371846 
L 371.342244 80.184864 
L 372.428045 80.325101 
L 373.513846 81.727464 
L 374.599647 82.80261 
L 375.685448 81.353501 
L 376.77125 83.129828 
L 377.857051 82.054683 
L 378.942852 81.914446 
L 380.028653 81.26001 
L 381.114454 83.036337 
L 382.200255 83.644028 
L 383.286057 82.709119 
L 384.371858 83.550537 
L 385.457659 84.765919 
L 386.54346 84.064737 
L 387.629261 82.989592 
L 388.715062 84.532192 
L 389.800863 82.381901 
L 390.886665 83.176574 
L 391.972466 85.280119 
L 393.058267 82.896101 
L 394.144068 83.971246 
L 395.229869 82.615628 
L 396.31567 83.877756 
L 397.401472 84.158228 
L 398.487273 84.251719 
L 398.487273 84.251719 
" clip-path="url(#p91a26ce821)" style="fill: none; stroke: #ff7f0e; stroke-width: 1.5; stroke-linecap: square"/>
   </g>
   <g id="line2d_19">
    <path d="M 73.832727 295.488 
L 74.918528 260.831884 
L 76.00433 275.951622 
L 77.090131 257.704774 
L 78.175932 236.169625 
L 79.261733 232.333273 
L 80.347534 241.198791 
L 81.433335 212.15213 
L 82.519137 241.005362 
L 83.604938 207.832205 
L 84.690739 210.636933 
L 85.77654 209.250688 
L 86.862341 207.251917 
L 87.948142 204.866286 
L 89.033943 205.414337 
L 90.119745 203.254374 
L 91.205546 188.908354 
L 92.291347 191.842034 
L 93.377148 191.777558 
L 94.462949 189.488642 
L 95.54875 224.241473 
L 96.634552 223.661185 
L 97.720353 225.917862 
L 98.806154 214.18314 
L 99.891955 218.277397 
L 100.977756 211.184983 
L 102.063557 224.402664 
L 103.149358 204.06033 
L 104.23516 212.829133 
L 105.320961 205.607766 
L 106.406762 203.028706 
L 107.492563 198.257446 
L 108.578364 197.838348 
L 109.664165 204.479427 
L 110.749967 204.834048 
L 111.835768 202.706324 
L 112.921569 215.085811 
L 114.00737 206.478199 
L 115.093171 204.189283 
L 116.178972 206.349246 
L 117.264773 201.48127 
L 118.350575 192.938135 
L 119.436376 193.808567 
L 120.522177 195.710624 
L 121.607978 192.551276 
L 122.693779 193.744091 
L 123.77958 187.715539 
L 124.865382 195.194812 
L 125.951183 189.746548 
L 127.036984 189.875501 
L 128.122785 190.713696 
L 129.208586 195.130336 
L 130.294387 195.484956 
L 131.380189 189.746548 
L 132.46599 190.004454 
L 133.551791 189.843263 
L 135.723393 187.489871 
L 136.809194 187.425394 
L 137.894995 188.714924 
L 138.980797 222.242702 
L 140.066598 213.409422 
L 141.152399 217.955015 
L 142.2382 211.990939 
L 143.324001 202.319465 
L 144.409802 216.633247 
L 145.495604 210.572456 
L 146.581405 215.537146 
L 147.667206 209.734262 
L 148.753007 211.765271 
L 149.838808 217.503679 
L 150.924609 206.897296 
L 152.01041 206.832819 
L 154.182013 212.474513 
L 155.267814 212.89361 
L 156.353615 211.410651 
L 157.439416 200.610838 
L 158.525217 211.410651 
L 159.611019 196.581057 
L 160.69682 196.355389 
L 161.782621 215.118049 
L 162.868422 202.158274 
L 163.954223 213.957472 
L 165.040024 209.798738 
L 166.125825 215.150287 
L 167.211627 216.149673 
L 168.297428 207.155202 
L 169.383229 207.73549 
L 170.46903 199.192355 
L 171.554831 196.871201 
L 172.640632 209.959929 
L 173.726434 208.283541 
L 174.812235 197.161345 
L 175.898036 201.449032 
L 176.983837 191.197269 
L 178.069638 185.104241 
L 179.155439 196.581057 
L 180.24124 201.835891 
L 181.327042 185.523338 
L 182.412843 199.160117 
L 184.584445 189.617595 
L 185.670246 191.906511 
L 186.756047 195.42048 
L 187.841849 189.617595 
L 188.92765 192.132179 
L 190.013451 193.099326 
L 191.099252 189.682072 
L 192.185053 194.517809 
L 193.270854 191.809796 
L 194.356656 192.970373 
L 195.442457 187.070774 
L 196.528258 193.453947 
L 197.614059 187.167488 
L 198.69986 193.744091 
L 199.785661 187.586586 
L 200.871462 182.235037 
L 201.957264 181.493557 
L 203.043065 181.332366 
L 204.128866 186.458247 
L 205.214667 184.362761 
L 206.300468 184.74962 
L 207.386269 182.460704 
L 208.472071 183.814711 
L 209.557872 187.13525 
L 210.643673 183.073231 
L 211.729474 182.396228 
L 212.815275 184.169331 
L 213.901076 186.812868 
L 214.986877 184.362761 
L 216.072679 183.073231 
L 217.15848 184.040378 
L 218.244281 182.815325 
L 219.330082 184.104855 
L 220.415883 185.716767 
L 221.501684 186.393771 
L 222.587486 181.267889 
L 223.673287 184.233808 
L 224.759088 185.4911 
L 225.844889 209.153973 
L 226.93069 210.50798 
L 228.016491 213.022563 
L 229.102292 198.934449 
L 230.188094 202.126035 
L 231.273895 199.611452 
L 233.445497 199.256831 
L 234.531298 227.916633 
L 235.617099 206.220293 
L 236.702901 202.738562 
L 237.788702 200.38517 
L 238.874503 206.994011 
L 239.960304 204.640619 
L 241.046105 212.410036 
L 242.131906 206.123578 
L 243.217708 200.578599 
L 244.303509 203.351089 
L 245.38931 190.133407 
L 246.475111 202.512894 
L 247.560912 211.668557 
L 248.646713 195.581671 
L 249.732514 210.282312 
L 250.818316 197.032392 
L 251.904117 192.519038 
L 252.989918 199.933834 
L 254.075719 205.54329 
L 255.16152 195.22705 
L 256.247321 206.832819 
L 257.333123 192.261132 
L 258.418924 217.278012 
L 259.504725 205.059716 
L 260.590526 220.179454 
L 261.676327 208.541447 
L 262.762128 204.866286 
L 263.847929 207.219678 
L 264.933731 198.579828 
L 266.019532 199.998311 
L 267.105333 193.679614 
L 268.191134 189.391928 
L 270.362736 208.734876 
L 271.448538 194.163188 
L 272.534339 195.22705 
L 273.62014 208.863829 
L 274.705941 211.958701 
L 275.791742 201.48127 
L 276.877543 210.346788 
L 277.963344 200.127264 
L 279.049146 202.480656 
L 280.134947 190.488028 
L 281.220748 213.215992 
L 282.306549 201.577985 
L 283.39235 194.356618 
L 284.478151 200.095026 
L 285.563953 201.191126 
L 286.649754 193.744091 
L 287.735555 208.928306 
L 288.821356 213.764043 
L 289.907157 209.186212 
L 290.992958 193.38947 
L 292.07876 198.644305 
L 293.164561 196.71001 
L 294.250362 199.514737 
L 295.336163 196.355389 
L 296.421964 211.442889 
L 297.507765 200.675314 
L 298.593566 202.899753 
L 299.679368 198.741019 
L 300.765169 194.066473 
L 301.85097 205.027478 
L 302.936771 199.482499 
L 304.022572 209.444117 
L 305.108373 200.127264 
L 306.194175 197.06463 
L 307.279976 189.778787 
L 308.365777 196.677771 
L 309.451578 204.318236 
L 310.537379 196.129721 
L 311.62318 190.649219 
L 312.708981 191.455175 
L 313.794783 187.457633 
L 314.880584 194.485571 
L 315.966385 189.101783 
L 317.052186 199.09564 
L 318.137987 192.196655 
L 319.223788 191.842034 
L 320.30959 195.678386 
L 321.395391 188.779401 
L 322.481192 193.453947 
L 323.566993 191.938749 
L 325.738595 200.514123 
L 326.824396 186.458247 
L 327.910198 184.620667 
L 328.995999 186.651677 
L 330.0818 184.685143 
L 331.167601 186.522724 
L 332.253402 185.265432 
L 333.339203 183.395614 
L 334.425005 186.909583 
L 335.510806 181.493557 
L 336.596607 185.652291 
L 337.682408 184.266046 
L 338.768209 184.233808 
L 340.939811 188.714924 
L 342.025613 180.784315 
L 343.111414 178.559876 
L 344.197215 181.235651 
L 345.283016 182.879802 
L 346.368817 183.782473 
L 347.454618 185.749006 
L 348.54042 180.913268 
L 349.626221 184.362761 
L 350.712022 181.267889 
L 351.797823 182.589657 
L 352.883624 182.91204 
L 353.969425 181.525795 
L 355.055227 184.20157 
L 356.141028 184.00814 
L 357.226829 182.557419 
L 358.31263 186.006912 
L 359.398431 180.139551 
L 360.484232 178.205256 
L 361.570033 180.236265 
L 362.655835 179.623739 
L 363.741636 179.23688 
L 365.913238 180.913268 
L 366.999039 181.07446 
L 368.08484 181.686986 
L 369.170642 184.523952 
L 370.256443 183.975902 
L 371.342244 182.815325 
L 372.428045 179.527024 
L 373.513846 189.778787 
L 374.599647 184.781858 
L 375.685448 182.041607 
L 376.77125 183.427852 
L 377.857051 186.812868 
L 378.942852 188.360304 
L 380.028653 181.364604 
L 381.114454 185.587814 
L 382.200255 191.132793 
L 383.286057 184.394999 
L 384.371858 191.455175 
L 385.457659 189.424166 
L 386.54346 190.101169 
L 387.629261 188.263589 
L 388.715062 195.065859 
L 389.800863 183.040993 
L 390.886665 193.260517 
L 391.972466 189.359689 
L 393.058267 185.877959 
L 394.144068 189.553119 
L 395.229869 187.715539 
L 396.31567 186.232579 
L 397.401472 187.522109 
L 398.487273 190.133407 
L 398.487273 190.133407 
" clip-path="url(#p91a26ce821)" style="fill: none; stroke: #2ca02c; stroke-width: 1.5; stroke-linecap: square"/>
   </g>
   <g id="line2d_20">
    <path d="M 368.08484 79.436937 
L 369.170642 79.249955 
L 370.256443 79.623919 
L 371.342244 79.249955 
L 372.428045 79.577173 
L 373.513846 80.325101 
L 374.599647 79.951137 
L 375.685448 80.699064 
L 376.77125 80.74581 
L 377.857051 80.652319 
L 378.942852 79.623919 
L 382.200255 79.810901 
L 383.286057 81.587228 
L 384.371858 80.091373 
L 385.457659 79.20321 
L 386.54346 80.091373 
L 387.629261 79.016228 
L 388.715062 79.20321 
L 389.800863 80.091373 
L 390.886665 78.642264 
L 391.972466 80.605573 
L 393.058267 80.23161 
L 394.144068 80.699064 
L 395.229869 79.577173 
L 396.31567 83.223319 
L 397.401472 80.512082 
L 398.487273 80.932792 
L 398.487273 80.932792 
" clip-path="url(#p91a26ce821)" style="fill: none; stroke: #d62728; stroke-width: 1.5; stroke-linecap: square"/>
   </g>
   <g id="line2d_21">
    <path d="M 368.08484 181.300127 
L 369.170642 182.235037 
L 370.256443 179.301356 
L 371.342244 179.527024 
L 372.428045 180.945507 
L 373.513846 180.848792 
L 374.599647 174.175475 
L 376.77125 176.980202 
L 377.857051 173.176089 
L 378.942852 175.013669 
L 380.028653 169.758835 
L 381.114454 171.209556 
L 382.200255 173.949807 
L 383.286057 173.176089 
L 384.371858 174.207713 
L 385.457659 174.014284 
L 386.54346 173.498472 
L 387.629261 171.757606 
L 388.715062 174.175475 
L 389.800863 172.305656 
L 391.972466 175.045907 
L 393.058267 173.466233 
L 394.144068 170.177932 
L 395.229869 173.401757 
L 396.31567 173.724139 
L 397.401472 171.564177 
L 398.487273 176.077531 
L 398.487273 176.077531 
" clip-path="url(#p91a26ce821)" style="fill: none; stroke: #9467bd; stroke-width: 1.5; stroke-linecap: square"/>
   </g>
   <g id="patch_3">
    <path d="M 57.6 307.584 
L 57.6 41.472 
" style="fill: none; stroke: #000000; stroke-width: 0.8; stroke-linejoin: miter; stroke-linecap: square"/>
   </g>
   <g id="patch_4">
    <path d="M 414.72 307.584 
L 414.72 41.472 
" style="fill: none; stroke: #000000; stroke-width: 0.8; stroke-linejoin: miter; stroke-linecap: square"/>
   </g>
   <g id="patch_5">
    <path d="M 57.6 307.584 
L 414.72 307.584 
" style="fill: none; stroke: #000000; stroke-width: 0.8; stroke-linejoin: miter; stroke-linecap: square"/>
   </g>
   <g id="patch_6">
    <path d="M 57.6 41.472 
L 414.72 41.472 
" style="fill: none; stroke: #000000; stroke-width: 0.8; stroke-linejoin: miter; stroke-linecap: square"/>
   </g>
   <g id="text_19">
    <!-- Learning Curves -->
    <g transform="translate(187.37625 35.472) scale(0.12 -0.12)">
     <defs>
      <path id="DejaVuSans-4c" d="M 628 4666 
L 1259 4666 
L 1259 531 
L 3531 531 
L 3531 0 
L 628 0 
L 628 4666 
z
" transform="scale(0.015625)"/>
      <path id="DejaVuSans-65" d="M 3597 1894 
L 3597 1613 
L 953 1613 
Q 991 1019 1311 708 
Q 1631 397 2203 397 
Q 2534 397 2845 478 
Q 3156 559 3463 722 
L 3463 178 
Q 3153 47 2828 -22 
Q 2503 -91 2169 -91 
Q 1331 -91 842 396 
Q 353 884 353 1716 
Q 353 2575 817 3079 
Q 1281 3584 2069 3584 
Q 2775 3584 3186 3129 
Q 3597 2675 3597 1894 
z
M 3022 2063 
Q 3016 2534 2758 2815 
Q 2500 3097 2075 3097 
Q 1594 3097 1305 2825 
Q 1016 2553 972 2059 
L 3022 2063 
z
" transform="scale(0.015625)"/>
      <path id="DejaVuSans-6e" d="M 3513 2113 
L 3513 0 
L 2938 0 
L 2938 2094 
Q 2938 2591 2744 2837 
Q 2550 3084 2163 3084 
Q 1697 3084 1428 2787 
Q 1159 2491 1159 1978 
L 1159 0 
L 581 0 
L 581 3500 
L 1159 3500 
L 1159 2956 
Q 1366 3272 1645 3428 
Q 1925 3584 2291 3584 
Q 2894 3584 3203 3211 
Q 3513 2838 3513 2113 
z
" transform="scale(0.015625)"/>
      <path id="DejaVuSans-69" d="M 603 3500 
L 1178 3500 
L 1178 0 
L 603 0 
L 603 3500 
z
M 603 4863 
L 1178 4863 
L 1178 4134 
L 603 4134 
L 603 4863 
z
" transform="scale(0.015625)"/>
      <path id="DejaVuSans-67" d="M 2906 1791 
Q 2906 2416 2648 2759 
Q 2391 3103 1925 3103 
Q 1463 3103 1205 2759 
Q 947 2416 947 1791 
Q 947 1169 1205 825 
Q 1463 481 1925 481 
Q 2391 481 2648 825 
Q 2906 1169 2906 1791 
z
M 3481 434 
Q 3481 -459 3084 -895 
Q 2688 -1331 1869 -1331 
Q 1566 -1331 1297 -1286 
Q 1028 -1241 775 -1147 
L 775 -588 
Q 1028 -725 1275 -790 
Q 1522 -856 1778 -856 
Q 2344 -856 2625 -561 
Q 2906 -266 2906 331 
L 2906 616 
Q 2728 306 2450 153 
Q 2172 0 1784 0 
Q 1141 0 747 490 
Q 353 981 353 1791 
Q 353 2603 747 3093 
Q 1141 3584 1784 3584 
Q 2172 3584 2450 3431 
Q 2728 3278 2906 2969 
L 2906 3500 
L 3481 3500 
L 3481 434 
z
" transform="scale(0.015625)"/>
      <path id="DejaVuSans-20" transform="scale(0.015625)"/>
      <path id="DejaVuSans-43" d="M 4122 4306 
L 4122 3641 
Q 3803 3938 3442 4084 
Q 3081 4231 2675 4231 
Q 1875 4231 1450 3742 
Q 1025 3253 1025 2328 
Q 1025 1406 1450 917 
Q 1875 428 2675 428 
Q 3081 428 3442 575 
Q 3803 722 4122 1019 
L 4122 359 
Q 3791 134 3420 21 
Q 3050 -91 2638 -91 
Q 1578 -91 968 557 
Q 359 1206 359 2328 
Q 359 3453 968 4101 
Q 1578 4750 2638 4750 
Q 3056 4750 3426 4639 
Q 3797 4528 4122 4306 
z
" transform="scale(0.015625)"/>
      <path id="DejaVuSans-76" d="M 191 3500 
L 800 3500 
L 1894 563 
L 2988 3500 
L 3597 3500 
L 2284 0 
L 1503 0 
L 191 3500 
z
" transform="scale(0.015625)"/>
     </defs>
     <use xlink:href="#DejaVuSans-4c"/>
     <use xlink:href="#DejaVuSans-65" x="53.962891"/>
     <use xlink:href="#DejaVuSans-61" x="115.486328"/>
     <use xlink:href="#DejaVuSans-72" x="176.765625"/>
     <use xlink:href="#DejaVuSans-6e" x="216.128906"/>
     <use xlink:href="#DejaVuSans-69" x="279.507812"/>
     <use xlink:href="#DejaVuSans-6e" x="307.291016"/>
     <use xlink:href="#DejaVuSans-67" x="370.669922"/>
     <use xlink:href="#DejaVuSans-20" x="434.146484"/>
     <use xlink:href="#DejaVuSans-43" x="465.933594"/>
     <use xlink:href="#DejaVuSans-75" x="535.757812"/>
     <use xlink:href="#DejaVuSans-72" x="599.136719"/>
     <use xlink:href="#DejaVuSans-76" x="640.25"/>
     <use xlink:href="#DejaVuSans-65" x="699.429688"/>
     <use xlink:href="#DejaVuSans-73" x="760.953125"/>
    </g>
   </g>
   <g id="legend_1">
    <g id="patch_7">
     <path d="M 214.18875 302.584 
L 407.72 302.584 
Q 409.72 302.584 409.72 300.584 
L 409.72 228.193375 
Q 409.72 226.193375 407.72 226.193375 
L 214.18875 226.193375 
Q 212.18875 226.193375 212.18875 228.193375 
L 212.18875 300.584 
Q 212.18875 302.584 214.18875 302.584 
z
" style="fill: #ffffff; opacity: 0.8; stroke: #cccccc; stroke-linejoin: miter"/>
    </g>
    <g id="line2d_22">
     <path d="M 216.18875 234.291812 
L 226.18875 234.291812 
L 236.18875 234.291812 
" style="fill: none; stroke: #1f77b4; stroke-width: 1.5; stroke-linecap: square"/>
    </g>
    <g id="text_20">
     <!-- Train Accuracy -->
     <g transform="translate(244.18875 237.791812) scale(0.1 -0.1)">
      <defs>
       <path id="DejaVuSans-54" d="M -19 4666 
L 3928 4666 
L 3928 4134 
L 2272 4134 
L 2272 0 
L 1638 0 
L 1638 4134 
L -19 4134 
L -19 4666 
z
" transform="scale(0.015625)"/>
      </defs>
      <use xlink:href="#DejaVuSans-54"/>
      <use xlink:href="#DejaVuSans-72" x="46.333984"/>
      <use xlink:href="#DejaVuSans-61" x="87.447266"/>
      <use xlink:href="#DejaVuSans-69" x="148.726562"/>
      <use xlink:href="#DejaVuSans-6e" x="176.509766"/>
      <use xlink:href="#DejaVuSans-20" x="239.888672"/>
      <use xlink:href="#DejaVuSans-41" x="271.675781"/>
      <use xlink:href="#DejaVuSans-63" x="338.333984"/>
      <use xlink:href="#DejaVuSans-63" x="393.314453"/>
      <use xlink:href="#DejaVuSans-75" x="448.294922"/>
      <use xlink:href="#DejaVuSans-72" x="511.673828"/>
      <use xlink:href="#DejaVuSans-61" x="552.787109"/>
      <use xlink:href="#DejaVuSans-63" x="614.066406"/>
      <use xlink:href="#DejaVuSans-79" x="669.046875"/>
     </g>
    </g>
    <g id="line2d_23">
     <path d="M 216.18875 248.969937 
L 226.18875 248.969937 
L 236.18875 248.969937 
" style="fill: none; stroke: #ff7f0e; stroke-width: 1.5; stroke-linecap: square"/>
    </g>
    <g id="text_21">
     <!-- Validation Accuracy -->
     <g transform="translate(244.18875 252.469937) scale(0.1 -0.1)">
      <defs>
       <path id="DejaVuSans-56" d="M 1831 0 
L 50 4666 
L 709 4666 
L 2188 738 
L 3669 4666 
L 4325 4666 
L 2547 0 
L 1831 0 
z
" transform="scale(0.015625)"/>
       <path id="DejaVuSans-6c" d="M 603 4863 
L 1178 4863 
L 1178 0 
L 603 0 
L 603 4863 
z
" transform="scale(0.015625)"/>
       <path id="DejaVuSans-64" d="M 2906 2969 
L 2906 4863 
L 3481 4863 
L 3481 0 
L 2906 0 
L 2906 525 
Q 2725 213 2448 61 
Q 2172 -91 1784 -91 
Q 1150 -91 751 415 
Q 353 922 353 1747 
Q 353 2572 751 3078 
Q 1150 3584 1784 3584 
Q 2172 3584 2448 3432 
Q 2725 3281 2906 2969 
z
M 947 1747 
Q 947 1113 1208 752 
Q 1469 391 1925 391 
Q 2381 391 2643 752 
Q 2906 1113 2906 1747 
Q 2906 2381 2643 2742 
Q 2381 3103 1925 3103 
Q 1469 3103 1208 2742 
Q 947 2381 947 1747 
z
" transform="scale(0.015625)"/>
       <path id="DejaVuSans-74" d="M 1172 4494 
L 1172 3500 
L 2356 3500 
L 2356 3053 
L 1172 3053 
L 1172 1153 
Q 1172 725 1289 603 
Q 1406 481 1766 481 
L 2356 481 
L 2356 0 
L 1766 0 
Q 1100 0 847 248 
Q 594 497 594 1153 
L 594 3053 
L 172 3053 
L 172 3500 
L 594 3500 
L 594 4494 
L 1172 4494 
z
" transform="scale(0.015625)"/>
      </defs>
      <use xlink:href="#DejaVuSans-56"/>
      <use xlink:href="#DejaVuSans-61" x="60.658203"/>
      <use xlink:href="#DejaVuSans-6c" x="121.9375"/>
      <use xlink:href="#DejaVuSans-69" x="149.720703"/>
      <use xlink:href="#DejaVuSans-64" x="177.503906"/>
      <use xlink:href="#DejaVuSans-61" x="240.980469"/>
      <use xlink:href="#DejaVuSans-74" x="302.259766"/>
      <use xlink:href="#DejaVuSans-69" x="341.46875"/>
      <use xlink:href="#DejaVuSans-6f" x="369.251953"/>
      <use xlink:href="#DejaVuSans-6e" x="430.433594"/>
      <use xlink:href="#DejaVuSans-20" x="493.8125"/>
      <use xlink:href="#DejaVuSans-41" x="525.599609"/>
      <use xlink:href="#DejaVuSans-63" x="592.257812"/>
      <use xlink:href="#DejaVuSans-63" x="647.238281"/>
      <use xlink:href="#DejaVuSans-75" x="702.21875"/>
      <use xlink:href="#DejaVuSans-72" x="765.597656"/>
      <use xlink:href="#DejaVuSans-61" x="806.710938"/>
      <use xlink:href="#DejaVuSans-63" x="867.990234"/>
      <use xlink:href="#DejaVuSans-79" x="922.970703"/>
     </g>
    </g>
    <g id="line2d_24">
     <path d="M 216.18875 263.648062 
L 226.18875 263.648062 
L 236.18875 263.648062 
" style="fill: none; stroke: #2ca02c; stroke-width: 1.5; stroke-linecap: square"/>
    </g>
    <g id="text_22">
     <!-- Robust Validation Accuracy -->
     <g transform="translate(244.18875 267.148062) scale(0.1 -0.1)">
      <defs>
       <path id="DejaVuSans-52" d="M 2841 2188 
Q 3044 2119 3236 1894 
Q 3428 1669 3622 1275 
L 4263 0 
L 3584 0 
L 2988 1197 
Q 2756 1666 2539 1819 
Q 2322 1972 1947 1972 
L 1259 1972 
L 1259 0 
L 628 0 
L 628 4666 
L 2053 4666 
Q 2853 4666 3247 4331 
Q 3641 3997 3641 3322 
Q 3641 2881 3436 2590 
Q 3231 2300 2841 2188 
z
M 1259 4147 
L 1259 2491 
L 2053 2491 
Q 2509 2491 2742 2702 
Q 2975 2913 2975 3322 
Q 2975 3731 2742 3939 
Q 2509 4147 2053 4147 
L 1259 4147 
z
" transform="scale(0.015625)"/>
       <path id="DejaVuSans-62" d="M 3116 1747 
Q 3116 2381 2855 2742 
Q 2594 3103 2138 3103 
Q 1681 3103 1420 2742 
Q 1159 2381 1159 1747 
Q 1159 1113 1420 752 
Q 1681 391 2138 391 
Q 2594 391 2855 752 
Q 3116 1113 3116 1747 
z
M 1159 2969 
Q 1341 3281 1617 3432 
Q 1894 3584 2278 3584 
Q 2916 3584 3314 3078 
Q 3713 2572 3713 1747 
Q 3713 922 3314 415 
Q 2916 -91 2278 -91 
Q 1894 -91 1617 61 
Q 1341 213 1159 525 
L 1159 0 
L 581 0 
L 581 4863 
L 1159 4863 
L 1159 2969 
z
" transform="scale(0.015625)"/>
      </defs>
      <use xlink:href="#DejaVuSans-52"/>
      <use xlink:href="#DejaVuSans-6f" x="64.982422"/>
      <use xlink:href="#DejaVuSans-62" x="126.164062"/>
      <use xlink:href="#DejaVuSans-75" x="189.640625"/>
      <use xlink:href="#DejaVuSans-73" x="253.019531"/>
      <use xlink:href="#DejaVuSans-74" x="305.119141"/>
      <use xlink:href="#DejaVuSans-20" x="344.328125"/>
      <use xlink:href="#DejaVuSans-56" x="376.115234"/>
      <use xlink:href="#DejaVuSans-61" x="436.773438"/>
      <use xlink:href="#DejaVuSans-6c" x="498.052734"/>
      <use xlink:href="#DejaVuSans-69" x="525.835938"/>
      <use xlink:href="#DejaVuSans-64" x="553.619141"/>
      <use xlink:href="#DejaVuSans-61" x="617.095703"/>
      <use xlink:href="#DejaVuSans-74" x="678.375"/>
      <use xlink:href="#DejaVuSans-69" x="717.583984"/>
      <use xlink:href="#DejaVuSans-6f" x="745.367188"/>
      <use xlink:href="#DejaVuSans-6e" x="806.548828"/>
      <use xlink:href="#DejaVuSans-20" x="869.927734"/>
      <use xlink:href="#DejaVuSans-41" x="901.714844"/>
      <use xlink:href="#DejaVuSans-63" x="968.373047"/>
      <use xlink:href="#DejaVuSans-63" x="1023.353516"/>
      <use xlink:href="#DejaVuSans-75" x="1078.333984"/>
      <use xlink:href="#DejaVuSans-72" x="1141.712891"/>
      <use xlink:href="#DejaVuSans-61" x="1182.826172"/>
      <use xlink:href="#DejaVuSans-63" x="1244.105469"/>
      <use xlink:href="#DejaVuSans-79" x="1299.085938"/>
     </g>
    </g>
    <g id="line2d_25">
     <path d="M 216.18875 278.326188 
L 226.18875 278.326188 
L 236.18875 278.326188 
" style="fill: none; stroke: #d62728; stroke-width: 1.5; stroke-linecap: square"/>
    </g>
    <g id="text_23">
     <!-- SWA Validation Accuracy -->
     <g transform="translate(244.18875 281.826188) scale(0.1 -0.1)">
      <defs>
       <path id="DejaVuSans-53" d="M 3425 4513 
L 3425 3897 
Q 3066 4069 2747 4153 
Q 2428 4238 2131 4238 
Q 1616 4238 1336 4038 
Q 1056 3838 1056 3469 
Q 1056 3159 1242 3001 
Q 1428 2844 1947 2747 
L 2328 2669 
Q 3034 2534 3370 2195 
Q 3706 1856 3706 1288 
Q 3706 609 3251 259 
Q 2797 -91 1919 -91 
Q 1588 -91 1214 -16 
Q 841 59 441 206 
L 441 856 
Q 825 641 1194 531 
Q 1563 422 1919 422 
Q 2459 422 2753 634 
Q 3047 847 3047 1241 
Q 3047 1584 2836 1778 
Q 2625 1972 2144 2069 
L 1759 2144 
Q 1053 2284 737 2584 
Q 422 2884 422 3419 
Q 422 4038 858 4394 
Q 1294 4750 2059 4750 
Q 2388 4750 2728 4690 
Q 3069 4631 3425 4513 
z
" transform="scale(0.015625)"/>
       <path id="DejaVuSans-57" d="M 213 4666 
L 850 4666 
L 1831 722 
L 2809 4666 
L 3519 4666 
L 4500 722 
L 5478 4666 
L 6119 4666 
L 4947 0 
L 4153 0 
L 3169 4050 
L 2175 0 
L 1381 0 
L 213 4666 
z
" transform="scale(0.015625)"/>
      </defs>
      <use xlink:href="#DejaVuSans-53"/>
      <use xlink:href="#DejaVuSans-57" x="63.476562"/>
      <use xlink:href="#DejaVuSans-41" x="156.853516"/>
      <use xlink:href="#DejaVuSans-20" x="225.261719"/>
      <use xlink:href="#DejaVuSans-56" x="257.048828"/>
      <use xlink:href="#DejaVuSans-61" x="317.707031"/>
      <use xlink:href="#DejaVuSans-6c" x="378.986328"/>
      <use xlink:href="#DejaVuSans-69" x="406.769531"/>
      <use xlink:href="#DejaVuSans-64" x="434.552734"/>
      <use xlink:href="#DejaVuSans-61" x="498.029297"/>
      <use xlink:href="#DejaVuSans-74" x="559.308594"/>
      <use xlink:href="#DejaVuSans-69" x="598.517578"/>
      <use xlink:href="#DejaVuSans-6f" x="626.300781"/>
      <use xlink:href="#DejaVuSans-6e" x="687.482422"/>
      <use xlink:href="#DejaVuSans-20" x="750.861328"/>
      <use xlink:href="#DejaVuSans-41" x="782.648438"/>
      <use xlink:href="#DejaVuSans-63" x="849.306641"/>
      <use xlink:href="#DejaVuSans-63" x="904.287109"/>
      <use xlink:href="#DejaVuSans-75" x="959.267578"/>
      <use xlink:href="#DejaVuSans-72" x="1022.646484"/>
      <use xlink:href="#DejaVuSans-61" x="1063.759766"/>
      <use xlink:href="#DejaVuSans-63" x="1125.039062"/>
      <use xlink:href="#DejaVuSans-79" x="1180.019531"/>
     </g>
    </g>
    <g id="line2d_26">
     <path d="M 216.18875 293.004312 
L 226.18875 293.004312 
L 236.18875 293.004312 
" style="fill: none; stroke: #9467bd; stroke-width: 1.5; stroke-linecap: square"/>
    </g>
    <g id="text_24">
     <!-- SWA Robust Validation Accuracy -->
     <g transform="translate(244.18875 296.504312) scale(0.1 -0.1)">
      <use xlink:href="#DejaVuSans-53"/>
      <use xlink:href="#DejaVuSans-57" x="63.476562"/>
      <use xlink:href="#DejaVuSans-41" x="156.853516"/>
      <use xlink:href="#DejaVuSans-20" x="225.261719"/>
      <use xlink:href="#DejaVuSans-52" x="257.048828"/>
      <use xlink:href="#DejaVuSans-6f" x="322.03125"/>
      <use xlink:href="#DejaVuSans-62" x="383.212891"/>
      <use xlink:href="#DejaVuSans-75" x="446.689453"/>
      <use xlink:href="#DejaVuSans-73" x="510.068359"/>
      <use xlink:href="#DejaVuSans-74" x="562.167969"/>
      <use xlink:href="#DejaVuSans-20" x="601.376953"/>
      <use xlink:href="#DejaVuSans-56" x="633.164062"/>
      <use xlink:href="#DejaVuSans-61" x="693.822266"/>
      <use xlink:href="#DejaVuSans-6c" x="755.101562"/>
      <use xlink:href="#DejaVuSans-69" x="782.884766"/>
      <use xlink:href="#DejaVuSans-64" x="810.667969"/>
      <use xlink:href="#DejaVuSans-61" x="874.144531"/>
      <use xlink:href="#DejaVuSans-74" x="935.423828"/>
      <use xlink:href="#DejaVuSans-69" x="974.632812"/>
      <use xlink:href="#DejaVuSans-6f" x="1002.416016"/>
      <use xlink:href="#DejaVuSans-6e" x="1063.597656"/>
      <use xlink:href="#DejaVuSans-20" x="1126.976562"/>
      <use xlink:href="#DejaVuSans-41" x="1158.763672"/>
      <use xlink:href="#DejaVuSans-63" x="1225.421875"/>
      <use xlink:href="#DejaVuSans-63" x="1280.402344"/>
      <use xlink:href="#DejaVuSans-75" x="1335.382812"/>
      <use xlink:href="#DejaVuSans-72" x="1398.761719"/>
      <use xlink:href="#DejaVuSans-61" x="1439.875"/>
      <use xlink:href="#DejaVuSans-63" x="1501.154297"/>
      <use xlink:href="#DejaVuSans-79" x="1556.134766"/>
     </g>
    </g>
   </g>
  </g>
 </g>
 <defs>
  <clipPath id="p91a26ce821">
   <rect x="57.6" y="41.472" width="357.12" height="266.112"/>
  </clipPath>
 </defs>
</svg>
