<?xml version="1.0" encoding="utf-8" standalone="no"?>
<!DOCTYPE svg PUBLIC "-//W3C//DTD SVG 1.1//EN"
  "http://www.w3.org/Graphics/SVG/1.1/DTD/svg11.dtd">
<svg xmlns:xlink="http://www.w3.org/1999/xlink" width="460.8pt" height="345.6pt" viewBox="0 0 460.8 345.6" xmlns="http://www.w3.org/2000/svg" version="1.1">
 <metadata>
  <rdf:RDF xmlns:dc="http://purl.org/dc/elements/1.1/" xmlns:cc="http://creativecommons.org/ns#" xmlns:rdf="http://www.w3.org/1999/02/22-rdf-syntax-ns#">
   <cc:Work>
    <dc:type rdf:resource="http://purl.org/dc/dcmitype/StillImage"/>
    <dc:date>2025-01-27T13:19:28.838877</dc:date>
    <dc:format>image/svg+xml</dc:format>
    <dc:creator>
     <cc:Agent>
      <dc:title>Matplotlib v3.9.1, https://matplotlib.org/</dc:title>
     </cc:Agent>
    </dc:creator>
   </cc:Work>
  </rdf:RDF>
 </metadata>
 <defs>
  <style type="text/css">*{stroke-linejoin: round; stroke-linecap: butt}</style>
 </defs>
 <g id="figure_1">
  <g id="patch_1">
   <path d="M 0 345.6 
L 460.8 345.6 
L 460.8 0 
L 0 0 
z
" style="fill: #ffffff"/>
  </g>
  <g id="axes_1">
   <g id="patch_2">
    <path d="M 57.6 307.584 
L 414.72 307.584 
L 414.72 41.472 
L 57.6 41.472 
z
" style="fill: #ffffff"/>
   </g>
   <g id="matplotlib.axis_1">
    <g id="xtick_1">
     <g id="line2d_1">
      <defs>
       <path id="m23beebb966" d="M 0 0 
L 0 3.5 
" style="stroke: #000000; stroke-width: 0.8"/>
      </defs>
      <g>
       <use xlink:href="#m23beebb966" x="73.832727" y="307.584" style="stroke: #000000; stroke-width: 0.8"/>
      </g>
     </g>
     <g id="text_1">
      <!-- 1 -->
      <g transform="translate(70.651477 322.182437) scale(0.1 -0.1)">
       <defs>
        <path id="DejaVuSans-31" d="M 794 531 
L 1825 531 
L 1825 4091 
L 703 3866 
L 703 4441 
L 1819 4666 
L 2450 4666 
L 2450 531 
L 3481 531 
L 3481 0 
L 794 0 
L 794 531 
z
" transform="scale(0.015625)"/>
       </defs>
       <use xlink:href="#DejaVuSans-31"/>
      </g>
     </g>
    </g>
    <g id="xtick_2">
     <g id="line2d_2">
      <g>
       <use xlink:href="#m23beebb966" x="109.664165" y="307.584" style="stroke: #000000; stroke-width: 0.8"/>
      </g>
     </g>
     <g id="text_2">
      <!-- 34 -->
      <g transform="translate(103.301665 322.182437) scale(0.1 -0.1)">
       <defs>
        <path id="DejaVuSans-33" d="M 2597 2516 
Q 3050 2419 3304 2112 
Q 3559 1806 3559 1356 
Q 3559 666 3084 287 
Q 2609 -91 1734 -91 
Q 1441 -91 1130 -33 
Q 819 25 488 141 
L 488 750 
Q 750 597 1062 519 
Q 1375 441 1716 441 
Q 2309 441 2620 675 
Q 2931 909 2931 1356 
Q 2931 1769 2642 2001 
Q 2353 2234 1838 2234 
L 1294 2234 
L 1294 2753 
L 1863 2753 
Q 2328 2753 2575 2939 
Q 2822 3125 2822 3475 
Q 2822 3834 2567 4026 
Q 2313 4219 1838 4219 
Q 1578 4219 1281 4162 
Q 984 4106 628 3988 
L 628 4550 
Q 988 4650 1302 4700 
Q 1616 4750 1894 4750 
Q 2613 4750 3031 4423 
Q 3450 4097 3450 3541 
Q 3450 3153 3228 2886 
Q 3006 2619 2597 2516 
z
" transform="scale(0.015625)"/>
        <path id="DejaVuSans-34" d="M 2419 4116 
L 825 1625 
L 2419 1625 
L 2419 4116 
z
M 2253 4666 
L 3047 4666 
L 3047 1625 
L 3713 1625 
L 3713 1100 
L 3047 1100 
L 3047 0 
L 2419 0 
L 2419 1100 
L 313 1100 
L 313 1709 
L 2253 4666 
z
" transform="scale(0.015625)"/>
       </defs>
       <use xlink:href="#DejaVuSans-33"/>
       <use xlink:href="#DejaVuSans-34" x="63.623047"/>
      </g>
     </g>
    </g>
    <g id="xtick_3">
     <g id="line2d_3">
      <g>
       <use xlink:href="#m23beebb966" x="145.495604" y="307.584" style="stroke: #000000; stroke-width: 0.8"/>
      </g>
     </g>
     <g id="text_3">
      <!-- 67 -->
      <g transform="translate(139.133104 322.182437) scale(0.1 -0.1)">
       <defs>
        <path id="DejaVuSans-36" d="M 2113 2584 
Q 1688 2584 1439 2293 
Q 1191 2003 1191 1497 
Q 1191 994 1439 701 
Q 1688 409 2113 409 
Q 2538 409 2786 701 
Q 3034 994 3034 1497 
Q 3034 2003 2786 2293 
Q 2538 2584 2113 2584 
z
M 3366 4563 
L 3366 3988 
Q 3128 4100 2886 4159 
Q 2644 4219 2406 4219 
Q 1781 4219 1451 3797 
Q 1122 3375 1075 2522 
Q 1259 2794 1537 2939 
Q 1816 3084 2150 3084 
Q 2853 3084 3261 2657 
Q 3669 2231 3669 1497 
Q 3669 778 3244 343 
Q 2819 -91 2113 -91 
Q 1303 -91 875 529 
Q 447 1150 447 2328 
Q 447 3434 972 4092 
Q 1497 4750 2381 4750 
Q 2619 4750 2861 4703 
Q 3103 4656 3366 4563 
z
" transform="scale(0.015625)"/>
        <path id="DejaVuSans-37" d="M 525 4666 
L 3525 4666 
L 3525 4397 
L 1831 0 
L 1172 0 
L 2766 4134 
L 525 4134 
L 525 4666 
z
" transform="scale(0.015625)"/>
       </defs>
       <use xlink:href="#DejaVuSans-36"/>
       <use xlink:href="#DejaVuSans-37" x="63.623047"/>
      </g>
     </g>
    </g>
    <g id="xtick_4">
     <g id="line2d_4">
      <g>
       <use xlink:href="#m23beebb966" x="181.327042" y="307.584" style="stroke: #000000; stroke-width: 0.8"/>
      </g>
     </g>
     <g id="text_4">
      <!-- 100 -->
      <g transform="translate(171.783292 322.182437) scale(0.1 -0.1)">
       <defs>
        <path id="DejaVuSans-30" d="M 2034 4250 
Q 1547 4250 1301 3770 
Q 1056 3291 1056 2328 
Q 1056 1369 1301 889 
Q 1547 409 2034 409 
Q 2525 409 2770 889 
Q 3016 1369 3016 2328 
Q 3016 3291 2770 3770 
Q 2525 4250 2034 4250 
z
M 2034 4750 
Q 2819 4750 3233 4129 
Q 3647 3509 3647 2328 
Q 3647 1150 3233 529 
Q 2819 -91 2034 -91 
Q 1250 -91 836 529 
Q 422 1150 422 2328 
Q 422 3509 836 4129 
Q 1250 4750 2034 4750 
z
" transform="scale(0.015625)"/>
       </defs>
       <use xlink:href="#DejaVuSans-31"/>
       <use xlink:href="#DejaVuSans-30" x="63.623047"/>
       <use xlink:href="#DejaVuSans-30" x="127.246094"/>
      </g>
     </g>
    </g>
    <g id="xtick_5">
     <g id="line2d_5">
      <g>
       <use xlink:href="#m23beebb966" x="217.15848" y="307.584" style="stroke: #000000; stroke-width: 0.8"/>
      </g>
     </g>
     <g id="text_5">
      <!-- 133 -->
      <g transform="translate(207.61473 322.182437) scale(0.1 -0.1)">
       <use xlink:href="#DejaVuSans-31"/>
       <use xlink:href="#DejaVuSans-33" x="63.623047"/>
       <use xlink:href="#DejaVuSans-33" x="127.246094"/>
      </g>
     </g>
    </g>
    <g id="xtick_6">
     <g id="line2d_6">
      <g>
       <use xlink:href="#m23beebb966" x="254.075719" y="307.584" style="stroke: #000000; stroke-width: 0.8"/>
      </g>
     </g>
     <g id="text_6">
      <!-- 167 -->
      <g transform="translate(244.531969 322.182437) scale(0.1 -0.1)">
       <use xlink:href="#DejaVuSans-31"/>
       <use xlink:href="#DejaVuSans-36" x="63.623047"/>
       <use xlink:href="#DejaVuSans-37" x="127.246094"/>
      </g>
     </g>
    </g>
    <g id="xtick_7">
     <g id="line2d_7">
      <g>
       <use xlink:href="#m23beebb966" x="289.907157" y="307.584" style="stroke: #000000; stroke-width: 0.8"/>
      </g>
     </g>
     <g id="text_7">
      <!-- 200 -->
      <g transform="translate(280.363407 322.182437) scale(0.1 -0.1)">
       <defs>
        <path id="DejaVuSans-32" d="M 1228 531 
L 3431 531 
L 3431 0 
L 469 0 
L 469 531 
Q 828 903 1448 1529 
Q 2069 2156 2228 2338 
Q 2531 2678 2651 2914 
Q 2772 3150 2772 3378 
Q 2772 3750 2511 3984 
Q 2250 4219 1831 4219 
Q 1534 4219 1204 4116 
Q 875 4013 500 3803 
L 500 4441 
Q 881 4594 1212 4672 
Q 1544 4750 1819 4750 
Q 2544 4750 2975 4387 
Q 3406 4025 3406 3419 
Q 3406 3131 3298 2873 
Q 3191 2616 2906 2266 
Q 2828 2175 2409 1742 
Q 1991 1309 1228 531 
z
" transform="scale(0.015625)"/>
       </defs>
       <use xlink:href="#DejaVuSans-32"/>
       <use xlink:href="#DejaVuSans-30" x="63.623047"/>
       <use xlink:href="#DejaVuSans-30" x="127.246094"/>
      </g>
     </g>
    </g>
    <g id="xtick_8">
     <g id="line2d_8">
      <g>
       <use xlink:href="#m23beebb966" x="325.738595" y="307.584" style="stroke: #000000; stroke-width: 0.8"/>
      </g>
     </g>
     <g id="text_8">
      <!-- 233 -->
      <g transform="translate(316.194845 322.182437) scale(0.1 -0.1)">
       <use xlink:href="#DejaVuSans-32"/>
       <use xlink:href="#DejaVuSans-33" x="63.623047"/>
       <use xlink:href="#DejaVuSans-33" x="127.246094"/>
      </g>
     </g>
    </g>
    <g id="xtick_9">
     <g id="line2d_9">
      <g>
       <use xlink:href="#m23beebb966" x="361.570033" y="307.584" style="stroke: #000000; stroke-width: 0.8"/>
      </g>
     </g>
     <g id="text_9">
      <!-- 266 -->
      <g transform="translate(352.026283 322.182437) scale(0.1 -0.1)">
       <use xlink:href="#DejaVuSans-32"/>
       <use xlink:href="#DejaVuSans-36" x="63.623047"/>
       <use xlink:href="#DejaVuSans-36" x="127.246094"/>
      </g>
     </g>
    </g>
    <g id="xtick_10">
     <g id="line2d_10">
      <g>
       <use xlink:href="#m23beebb966" x="398.487273" y="307.584" style="stroke: #000000; stroke-width: 0.8"/>
      </g>
     </g>
     <g id="text_10">
      <!-- 300 -->
      <g transform="translate(388.943523 322.182437) scale(0.1 -0.1)">
       <use xlink:href="#DejaVuSans-33"/>
       <use xlink:href="#DejaVuSans-30" x="63.623047"/>
       <use xlink:href="#DejaVuSans-30" x="127.246094"/>
      </g>
     </g>
    </g>
    <g id="text_11">
     <!-- Epochs -->
     <g transform="translate(218.244375 335.860562) scale(0.1 -0.1)">
      <defs>
       <path id="DejaVuSans-45" d="M 628 4666 
L 3578 4666 
L 3578 4134 
L 1259 4134 
L 1259 2753 
L 3481 2753 
L 3481 2222 
L 1259 2222 
L 1259 531 
L 3634 531 
L 3634 0 
L 628 0 
L 628 4666 
z
" transform="scale(0.015625)"/>
       <path id="DejaVuSans-70" d="M 1159 525 
L 1159 -1331 
L 581 -1331 
L 581 3500 
L 1159 3500 
L 1159 2969 
Q 1341 3281 1617 3432 
Q 1894 3584 2278 3584 
Q 2916 3584 3314 3078 
Q 3713 2572 3713 1747 
Q 3713 922 3314 415 
Q 2916 -91 2278 -91 
Q 1894 -91 1617 61 
Q 1341 213 1159 525 
z
M 3116 1747 
Q 3116 2381 2855 2742 
Q 2594 3103 2138 3103 
Q 1681 3103 1420 2742 
Q 1159 2381 1159 1747 
Q 1159 1113 1420 752 
Q 1681 391 2138 391 
Q 2594 391 2855 752 
Q 3116 1113 3116 1747 
z
" transform="scale(0.015625)"/>
       <path id="DejaVuSans-6f" d="M 1959 3097 
Q 1497 3097 1228 2736 
Q 959 2375 959 1747 
Q 959 1119 1226 758 
Q 1494 397 1959 397 
Q 2419 397 2687 759 
Q 2956 1122 2956 1747 
Q 2956 2369 2687 2733 
Q 2419 3097 1959 3097 
z
M 1959 3584 
Q 2709 3584 3137 3096 
Q 3566 2609 3566 1747 
Q 3566 888 3137 398 
Q 2709 -91 1959 -91 
Q 1206 -91 779 398 
Q 353 888 353 1747 
Q 353 2609 779 3096 
Q 1206 3584 1959 3584 
z
" transform="scale(0.015625)"/>
       <path id="DejaVuSans-63" d="M 3122 3366 
L 3122 2828 
Q 2878 2963 2633 3030 
Q 2388 3097 2138 3097 
Q 1578 3097 1268 2742 
Q 959 2388 959 1747 
Q 959 1106 1268 751 
Q 1578 397 2138 397 
Q 2388 397 2633 464 
Q 2878 531 3122 666 
L 3122 134 
Q 2881 22 2623 -34 
Q 2366 -91 2075 -91 
Q 1284 -91 818 406 
Q 353 903 353 1747 
Q 353 2603 823 3093 
Q 1294 3584 2113 3584 
Q 2378 3584 2631 3529 
Q 2884 3475 3122 3366 
z
" transform="scale(0.015625)"/>
       <path id="DejaVuSans-68" d="M 3513 2113 
L 3513 0 
L 2938 0 
L 2938 2094 
Q 2938 2591 2744 2837 
Q 2550 3084 2163 3084 
Q 1697 3084 1428 2787 
Q 1159 2491 1159 1978 
L 1159 0 
L 581 0 
L 581 4863 
L 1159 4863 
L 1159 2956 
Q 1366 3272 1645 3428 
Q 1925 3584 2291 3584 
Q 2894 3584 3203 3211 
Q 3513 2838 3513 2113 
z
" transform="scale(0.015625)"/>
       <path id="DejaVuSans-73" d="M 2834 3397 
L 2834 2853 
Q 2591 2978 2328 3040 
Q 2066 3103 1784 3103 
Q 1356 3103 1142 2972 
Q 928 2841 928 2578 
Q 928 2378 1081 2264 
Q 1234 2150 1697 2047 
L 1894 2003 
Q 2506 1872 2764 1633 
Q 3022 1394 3022 966 
Q 3022 478 2636 193 
Q 2250 -91 1575 -91 
Q 1294 -91 989 -36 
Q 684 19 347 128 
L 347 722 
Q 666 556 975 473 
Q 1284 391 1588 391 
Q 1994 391 2212 530 
Q 2431 669 2431 922 
Q 2431 1156 2273 1281 
Q 2116 1406 1581 1522 
L 1381 1569 
Q 847 1681 609 1914 
Q 372 2147 372 2553 
Q 372 3047 722 3315 
Q 1072 3584 1716 3584 
Q 2034 3584 2315 3537 
Q 2597 3491 2834 3397 
z
" transform="scale(0.015625)"/>
      </defs>
      <use xlink:href="#DejaVuSans-45"/>
      <use xlink:href="#DejaVuSans-70" x="63.183594"/>
      <use xlink:href="#DejaVuSans-6f" x="126.660156"/>
      <use xlink:href="#DejaVuSans-63" x="187.841797"/>
      <use xlink:href="#DejaVuSans-68" x="242.822266"/>
      <use xlink:href="#DejaVuSans-73" x="306.201172"/>
     </g>
    </g>
   </g>
   <g id="matplotlib.axis_2">
    <g id="ytick_1">
     <g id="line2d_11">
      <defs>
       <path id="me5838532a3" d="M 0 0 
L -3.5 0 
" style="stroke: #000000; stroke-width: 0.8"/>
      </defs>
      <g>
       <use xlink:href="#me5838532a3" x="57.6" y="307.140571" style="stroke: #000000; stroke-width: 0.8"/>
      </g>
     </g>
     <g id="text_12">
      <!-- 30 -->
      <g transform="translate(37.875 310.93979) scale(0.1 -0.1)">
       <use xlink:href="#DejaVuSans-33"/>
       <use xlink:href="#DejaVuSans-30" x="63.623047"/>
      </g>
     </g>
    </g>
    <g id="ytick_2">
     <g id="line2d_12">
      <g>
       <use xlink:href="#me5838532a3" x="57.6" y="269.117993" style="stroke: #000000; stroke-width: 0.8"/>
      </g>
     </g>
     <g id="text_13">
      <!-- 40 -->
      <g transform="translate(37.875 272.917212) scale(0.1 -0.1)">
       <use xlink:href="#DejaVuSans-34"/>
       <use xlink:href="#DejaVuSans-30" x="63.623047"/>
      </g>
     </g>
    </g>
    <g id="ytick_3">
     <g id="line2d_13">
      <g>
       <use xlink:href="#me5838532a3" x="57.6" y="231.095415" style="stroke: #000000; stroke-width: 0.8"/>
      </g>
     </g>
     <g id="text_14">
      <!-- 50 -->
      <g transform="translate(37.875 234.894634) scale(0.1 -0.1)">
       <defs>
        <path id="DejaVuSans-35" d="M 691 4666 
L 3169 4666 
L 3169 4134 
L 1269 4134 
L 1269 2991 
Q 1406 3038 1543 3061 
Q 1681 3084 1819 3084 
Q 2600 3084 3056 2656 
Q 3513 2228 3513 1497 
Q 3513 744 3044 326 
Q 2575 -91 1722 -91 
Q 1428 -91 1123 -41 
Q 819 9 494 109 
L 494 744 
Q 775 591 1075 516 
Q 1375 441 1709 441 
Q 2250 441 2565 725 
Q 2881 1009 2881 1497 
Q 2881 1984 2565 2268 
Q 2250 2553 1709 2553 
Q 1456 2553 1204 2497 
Q 953 2441 691 2322 
L 691 4666 
z
" transform="scale(0.015625)"/>
       </defs>
       <use xlink:href="#DejaVuSans-35"/>
       <use xlink:href="#DejaVuSans-30" x="63.623047"/>
      </g>
     </g>
    </g>
    <g id="ytick_4">
     <g id="line2d_14">
      <g>
       <use xlink:href="#me5838532a3" x="57.6" y="193.072838" style="stroke: #000000; stroke-width: 0.8"/>
      </g>
     </g>
     <g id="text_15">
      <!-- 60 -->
      <g transform="translate(37.875 196.872056) scale(0.1 -0.1)">
       <use xlink:href="#DejaVuSans-36"/>
       <use xlink:href="#DejaVuSans-30" x="63.623047"/>
      </g>
     </g>
    </g>
    <g id="ytick_5">
     <g id="line2d_15">
      <g>
       <use xlink:href="#me5838532a3" x="57.6" y="155.05026" style="stroke: #000000; stroke-width: 0.8"/>
      </g>
     </g>
     <g id="text_16">
      <!-- 70 -->
      <g transform="translate(37.875 158.849479) scale(0.1 -0.1)">
       <use xlink:href="#DejaVuSans-37"/>
       <use xlink:href="#DejaVuSans-30" x="63.623047"/>
      </g>
     </g>
    </g>
    <g id="ytick_6">
     <g id="line2d_16">
      <g>
       <use xlink:href="#me5838532a3" x="57.6" y="117.027682" style="stroke: #000000; stroke-width: 0.8"/>
      </g>
     </g>
     <g id="text_17">
      <!-- 80 -->
      <g transform="translate(37.875 120.826901) scale(0.1 -0.1)">
       <defs>
        <path id="DejaVuSans-38" d="M 2034 2216 
Q 1584 2216 1326 1975 
Q 1069 1734 1069 1313 
Q 1069 891 1326 650 
Q 1584 409 2034 409 
Q 2484 409 2743 651 
Q 3003 894 3003 1313 
Q 3003 1734 2745 1975 
Q 2488 2216 2034 2216 
z
M 1403 2484 
Q 997 2584 770 2862 
Q 544 3141 544 3541 
Q 544 4100 942 4425 
Q 1341 4750 2034 4750 
Q 2731 4750 3128 4425 
Q 3525 4100 3525 3541 
Q 3525 3141 3298 2862 
Q 3072 2584 2669 2484 
Q 3125 2378 3379 2068 
Q 3634 1759 3634 1313 
Q 3634 634 3220 271 
Q 2806 -91 2034 -91 
Q 1263 -91 848 271 
Q 434 634 434 1313 
Q 434 1759 690 2068 
Q 947 2378 1403 2484 
z
M 1172 3481 
Q 1172 3119 1398 2916 
Q 1625 2713 2034 2713 
Q 2441 2713 2670 2916 
Q 2900 3119 2900 3481 
Q 2900 3844 2670 4047 
Q 2441 4250 2034 4250 
Q 1625 4250 1398 4047 
Q 1172 3844 1172 3481 
z
" transform="scale(0.015625)"/>
       </defs>
       <use xlink:href="#DejaVuSans-38"/>
       <use xlink:href="#DejaVuSans-30" x="63.623047"/>
      </g>
     </g>
    </g>
    <g id="ytick_7">
     <g id="line2d_17">
      <g>
       <use xlink:href="#me5838532a3" x="57.6" y="79.005105" style="stroke: #000000; stroke-width: 0.8"/>
      </g>
     </g>
     <g id="text_18">
      <!-- 90 -->
      <g transform="translate(37.875 82.804323) scale(0.1 -0.1)">
       <defs>
        <path id="DejaVuSans-39" d="M 703 97 
L 703 672 
Q 941 559 1184 500 
Q 1428 441 1663 441 
Q 2288 441 2617 861 
Q 2947 1281 2994 2138 
Q 2813 1869 2534 1725 
Q 2256 1581 1919 1581 
Q 1219 1581 811 2004 
Q 403 2428 403 3163 
Q 403 3881 828 4315 
Q 1253 4750 1959 4750 
Q 2769 4750 3195 4129 
Q 3622 3509 3622 2328 
Q 3622 1225 3098 567 
Q 2575 -91 1691 -91 
Q 1453 -91 1209 -44 
Q 966 3 703 97 
z
M 1959 2075 
Q 2384 2075 2632 2365 
Q 2881 2656 2881 3163 
Q 2881 3666 2632 3958 
Q 2384 4250 1959 4250 
Q 1534 4250 1286 3958 
Q 1038 3666 1038 3163 
Q 1038 2656 1286 2365 
Q 1534 2075 1959 2075 
z
" transform="scale(0.015625)"/>
       </defs>
       <use xlink:href="#DejaVuSans-39"/>
       <use xlink:href="#DejaVuSans-30" x="63.623047"/>
      </g>
     </g>
    </g>
    <g id="text_19">
     <!-- Accuracy -->
     <g transform="translate(31.795312 197.356125) rotate(-90) scale(0.1 -0.1)">
      <defs>
       <path id="DejaVuSans-41" d="M 2188 4044 
L 1331 1722 
L 3047 1722 
L 2188 4044 
z
M 1831 4666 
L 2547 4666 
L 4325 0 
L 3669 0 
L 3244 1197 
L 1141 1197 
L 716 0 
L 50 0 
L 1831 4666 
z
" transform="scale(0.015625)"/>
       <path id="DejaVuSans-75" d="M 544 1381 
L 544 3500 
L 1119 3500 
L 1119 1403 
Q 1119 906 1312 657 
Q 1506 409 1894 409 
Q 2359 409 2629 706 
Q 2900 1003 2900 1516 
L 2900 3500 
L 3475 3500 
L 3475 0 
L 2900 0 
L 2900 538 
Q 2691 219 2414 64 
Q 2138 -91 1772 -91 
Q 1169 -91 856 284 
Q 544 659 544 1381 
z
M 1991 3584 
L 1991 3584 
z
" transform="scale(0.015625)"/>
       <path id="DejaVuSans-72" d="M 2631 2963 
Q 2534 3019 2420 3045 
Q 2306 3072 2169 3072 
Q 1681 3072 1420 2755 
Q 1159 2438 1159 1844 
L 1159 0 
L 581 0 
L 581 3500 
L 1159 3500 
L 1159 2956 
Q 1341 3275 1631 3429 
Q 1922 3584 2338 3584 
Q 2397 3584 2469 3576 
Q 2541 3569 2628 3553 
L 2631 2963 
z
" transform="scale(0.015625)"/>
       <path id="DejaVuSans-61" d="M 2194 1759 
Q 1497 1759 1228 1600 
Q 959 1441 959 1056 
Q 959 750 1161 570 
Q 1363 391 1709 391 
Q 2188 391 2477 730 
Q 2766 1069 2766 1631 
L 2766 1759 
L 2194 1759 
z
M 3341 1997 
L 3341 0 
L 2766 0 
L 2766 531 
Q 2569 213 2275 61 
Q 1981 -91 1556 -91 
Q 1019 -91 701 211 
Q 384 513 384 1019 
Q 384 1609 779 1909 
Q 1175 2209 1959 2209 
L 2766 2209 
L 2766 2266 
Q 2766 2663 2505 2880 
Q 2244 3097 1772 3097 
Q 1472 3097 1187 3025 
Q 903 2953 641 2809 
L 641 3341 
Q 956 3463 1253 3523 
Q 1550 3584 1831 3584 
Q 2591 3584 2966 3190 
Q 3341 2797 3341 1997 
z
" transform="scale(0.015625)"/>
       <path id="DejaVuSans-79" d="M 2059 -325 
Q 1816 -950 1584 -1140 
Q 1353 -1331 966 -1331 
L 506 -1331 
L 506 -850 
L 844 -850 
Q 1081 -850 1212 -737 
Q 1344 -625 1503 -206 
L 1606 56 
L 191 3500 
L 800 3500 
L 1894 763 
L 2988 3500 
L 3597 3500 
L 2059 -325 
z
" transform="scale(0.015625)"/>
      </defs>
      <use xlink:href="#DejaVuSans-41"/>
      <use xlink:href="#DejaVuSans-63" x="66.658203"/>
      <use xlink:href="#DejaVuSans-63" x="121.638672"/>
      <use xlink:href="#DejaVuSans-75" x="176.619141"/>
      <use xlink:href="#DejaVuSans-72" x="239.998047"/>
      <use xlink:href="#DejaVuSans-61" x="281.111328"/>
      <use xlink:href="#DejaVuSans-63" x="342.390625"/>
      <use xlink:href="#DejaVuSans-79" x="397.371094"/>
     </g>
    </g>
   </g>
   <g id="line2d_18">
    <path d="M 73.832727 295.488 
L 74.918528 235.818197 
L 76.00433 210.941837 
L 77.090131 191.358643 
L 78.175932 180.270372 
L 79.261733 172.383859 
L 81.433335 158.98363 
L 83.604938 147.096821 
L 84.690739 143.93309 
L 86.862341 135.293669 
L 87.948142 132.380906 
L 89.033943 128.608765 
L 91.205546 122.988578 
L 92.291347 122.17483 
L 93.377148 118.615632 
L 94.462949 118.242981 
L 95.54875 145.682268 
L 96.634552 145.142304 
L 98.806154 139.636195 
L 99.891955 137.765334 
L 100.977756 135.035095 
L 102.063557 133.453229 
L 103.149358 131.308584 
L 104.23516 131.072825 
L 105.320961 128.380611 
L 106.406762 127.871068 
L 107.492563 125.916551 
L 108.578364 123.239547 
L 109.664165 122.684373 
L 110.749967 120.030185 
L 111.835768 119.984554 
L 112.921569 117.55852 
L 114.00737 116.159177 
L 115.093171 115.216142 
L 116.178972 114.889121 
L 117.264773 114.250291 
L 118.350575 111.862282 
L 120.522177 108.067325 
L 121.607978 106.804875 
L 122.693779 106.485459 
L 123.77958 103.572697 
L 124.865382 103.610723 
L 125.951183 101.648601 
L 127.036984 100.553463 
L 128.122785 98.925966 
L 129.208586 98.21869 
L 130.294387 98.104613 
L 131.380189 96.09686 
L 132.46599 95.617737 
L 133.551791 94.606256 
L 134.637592 94.712728 
L 135.723393 94.705122 
L 136.809194 93.450277 
L 137.894995 92.925523 
L 138.980797 118.957863 
L 140.066598 121.056877 
L 141.152399 121.041667 
L 142.2382 120.227918 
L 143.324001 118.646053 
L 144.409802 118.417899 
L 145.495604 117.140238 
L 146.581405 117.041371 
L 147.667206 116.676326 
L 148.753007 114.934752 
L 149.838808 114.790255 
L 150.924609 113.679907 
L 152.01041 113.428938 
L 153.096212 112.425061 
L 154.182013 112.463087 
L 155.267814 112.387036 
L 156.353615 110.698698 
L 157.439416 111.299503 
L 158.525217 110.736724 
L 159.611019 109.656796 
L 160.69682 109.816504 
L 162.868422 107.953248 
L 163.954223 107.626228 
L 165.040024 105.884655 
L 166.125825 107.527361 
L 167.211627 106.706008 
L 168.297428 104.98725 
L 169.383229 104.089845 
L 170.46903 104.553758 
L 171.554831 103.527066 
L 172.640632 103.466225 
L 173.726434 102.55361 
L 174.812235 102.051672 
L 175.898036 101.701836 
L 176.983837 100.081945 
L 178.069638 99.830976 
L 179.155439 98.804284 
L 180.24124 98.606551 
L 181.327042 98.682602 
L 182.412843 96.67485 
L 183.498644 97.230024 
L 184.584445 96.826952 
L 185.670246 95.701394 
L 186.756047 95.663368 
L 187.841849 95.420004 
L 188.92765 94.446548 
L 191.099252 93.146072 
L 192.185053 91.944462 
L 193.270854 91.381683 
L 194.356656 92.096565 
L 195.442457 91.260001 
L 196.528258 89.586874 
L 197.614059 88.4385 
L 198.69986 88.963254 
L 199.785661 88.446105 
L 200.871462 86.90987 
L 203.043065 85.784312 
L 204.128866 86.438353 
L 205.214667 84.917328 
L 206.300468 84.4306 
L 207.386269 84.673964 
L 208.472071 83.943872 
L 209.557872 83.700508 
L 210.643673 83.145334 
L 211.729474 83.137729 
L 212.815275 82.209904 
L 214.986877 81.380945 
L 216.072679 81.472207 
L 217.15848 80.76493 
L 218.244281 81.266868 
L 219.330082 80.133705 
L 220.415883 80.430305 
L 222.587486 80.065259 
L 223.673287 80.536776 
L 224.759088 80.513961 
L 225.844889 106.242095 
L 226.93069 108.333505 
L 228.016491 110.964877 
L 229.102292 108.052115 
L 230.188094 108.516028 
L 231.273895 107.983669 
L 232.359696 106.553906 
L 233.445497 107.983669 
L 234.531298 107.215551 
L 235.617099 105.816209 
L 236.702901 105.648896 
L 237.788702 105.90747 
L 238.874503 105.861839 
L 239.960304 104.302789 
L 241.046105 105.31427 
L 243.217708 102.720923 
L 244.303509 105.169773 
L 245.38931 104.036609 
L 246.475111 104.105056 
L 247.560912 102.873026 
L 248.646713 103.047943 
L 249.732514 101.435657 
L 251.904117 101.542129 
L 252.989918 101.002165 
L 254.075719 101.952806 
L 255.16152 101.610575 
L 256.247321 101.070611 
L 257.333123 100.819642 
L 258.418924 99.534376 
L 259.504725 100.804432 
L 261.676327 99.176935 
L 262.762128 98.568525 
L 263.847929 99.412694 
L 264.933731 99.43551 
L 266.019532 99.176935 
L 267.105333 97.731962 
L 268.191134 99.100884 
L 269.276935 98.773864 
L 270.362736 98.804284 
L 271.448538 97.838433 
L 272.534339 97.982931 
L 273.62014 97.914485 
L 274.705941 97.161577 
L 275.791742 97.351706 
L 276.877543 96.842162 
L 277.963344 97.01708 
L 279.049146 96.469511 
L 280.134947 96.499932 
L 281.220748 95.937152 
L 282.306549 96.203332 
L 283.39235 95.328743 
L 284.478151 95.670973 
L 285.563953 95.336348 
L 286.649754 96.043624 
L 287.735555 94.446548 
L 288.821356 94.925671 
L 289.907157 95.062563 
L 292.07876 94.705122 
L 293.164561 95.876311 
L 294.250362 95.001722 
L 295.336163 92.218247 
L 296.421964 93.206913 
L 297.507765 92.826657 
L 298.593566 93.054811 
L 299.679368 92.735395 
L 300.765169 91.974883 
L 301.85097 92.362744 
L 302.936771 92.248667 
L 305.108373 90.225704 
L 306.194175 92.028119 
L 307.279976 91.837991 
L 308.365777 89.389141 
L 309.451578 90.925376 
L 310.537379 89.929105 
L 311.62318 89.320695 
L 312.708981 89.723766 
L 313.794783 88.544972 
L 314.880584 89.518428 
L 315.966385 88.575392 
L 317.052186 88.354844 
L 318.137987 87.495465 
L 319.223788 87.974588 
L 320.30959 87.792065 
L 321.395391 87.723619 
L 323.566993 86.856634 
L 324.652794 86.757768 
L 325.738595 86.042886 
L 326.824396 85.168297 
L 327.910198 85.746286 
L 328.995999 85.905994 
L 330.0818 83.457144 
L 331.167601 84.613123 
L 332.253402 83.951477 
L 333.339203 84.499046 
L 334.425005 84.042739 
L 335.510806 82.856339 
L 336.596607 83.365883 
L 338.768209 83.046467 
L 339.85401 82.156668 
L 340.939811 81.761201 
L 342.025613 81.860068 
L 343.111414 80.247782 
L 344.197215 80.475935 
L 345.283016 80.323833 
L 346.368817 80.475935 
L 347.454618 81.168002 
L 348.54042 79.783869 
L 349.626221 80.11089 
L 350.712022 80.004418 
L 352.883624 78.475788 
L 353.969425 77.943429 
L 355.055227 77.646829 
L 356.141028 77.798932 
L 357.226829 78.224819 
L 358.31263 76.817871 
L 359.398431 77.403465 
L 360.484232 76.985184 
L 361.570033 76.437615 
L 362.655835 76.232276 
L 363.741636 76.14862 
L 364.827437 75.380502 
L 365.913238 76.47564 
L 366.999039 74.574359 
L 368.08484 76.087779 
L 370.256443 76.749425 
L 371.342244 78.278055 
L 372.428045 78.475788 
L 373.513846 79.555715 
L 374.599647 78.741967 
L 375.685448 79.038567 
L 376.77125 78.620285 
L 378.942852 79.20588 
L 380.028653 78.871254 
L 381.114454 79.281931 
L 382.200255 78.947306 
L 383.286057 78.31608 
L 384.371858 79.464454 
L 385.457659 78.490998 
L 386.54346 78.338896 
L 387.629261 80.042443 
L 388.715062 79.403613 
L 389.800863 79.608951 
L 390.886665 79.2363 
L 391.972466 78.28566 
L 393.058267 78.92449 
L 394.144068 79.114618 
L 395.229869 78.369316 
L 396.31567 78.90928 
L 397.401472 79.738238 
L 398.487273 79.160249 
L 398.487273 79.160249 
" clip-path="url(#pebf1b37d73)" style="fill: none; stroke: #1f77b4; stroke-width: 1.5; stroke-linecap: square"/>
   </g>
   <g id="line2d_19">
    <path d="M 73.832727 254.897549 
L 74.918528 180.297252 
L 76.00433 165.620537 
L 77.090131 159.955173 
L 78.175932 126.457282 
L 79.261733 135.5827 
L 80.347534 117.940224 
L 81.433335 105.126615 
L 82.519137 106.533451 
L 83.604938 101.628538 
L 84.690739 98.472664 
L 85.77654 93.149503 
L 86.862341 88.776907 
L 89.033943 82.845385 
L 90.119745 82.084933 
L 91.205546 80.25985 
L 92.291347 79.119172 
L 93.377148 78.434766 
L 94.462949 77.978495 
L 95.54875 97.217919 
L 96.634552 94.442271 
L 97.720353 103.87187 
L 98.806154 92.465097 
L 99.891955 95.773061 
L 100.977756 91.020239 
L 102.063557 83.301656 
L 103.149358 90.373855 
L 104.23516 85.621033 
L 105.320961 83.263633 
L 106.406762 83.986062 
L 107.492563 81.970866 
L 108.578364 81.89482 
L 109.664165 82.122956 
L 110.749967 82.008888 
L 111.835768 79.271263 
L 112.921569 77.484201 
L 114.00737 76.799795 
L 115.093171 75.469005 
L 116.178972 72.427199 
L 117.264773 73.872057 
L 118.350575 73.605898 
L 119.436376 71.742792 
L 120.522177 70.52607 
L 121.607978 68.244715 
L 122.693779 68.586918 
L 123.77958 65.469067 
L 124.865382 66.001383 
L 125.951183 67.826467 
L 127.036984 65.088841 
L 128.122785 64.024209 
L 129.208586 64.062231 
L 130.294387 63.720028 
L 131.380189 62.921554 
L 132.46599 62.27517 
L 133.551791 62.959577 
L 134.637592 62.845509 
L 135.723393 62.237148 
L 136.809194 62.27517 
L 137.894995 62.047035 
L 138.980797 78.434766 
L 140.066598 80.221827 
L 141.152399 78.891037 
L 142.2382 79.043127 
L 143.324001 81.438549 
L 144.409802 81.324482 
L 145.495604 74.746576 
L 146.581405 75.849231 
L 147.667206 74.632508 
L 148.753007 75.469005 
L 149.838808 73.872057 
L 150.924609 72.921492 
L 152.01041 75.088779 
L 153.096212 73.491831 
L 154.182013 70.982341 
L 155.267814 73.073582 
L 156.353615 73.225673 
L 157.439416 73.681944 
L 158.525217 70.52607 
L 159.611019 70.982341 
L 160.69682 72.731379 
L 161.782621 72.161041 
L 162.868422 69.879686 
L 163.954223 74.670531 
L 165.040024 70.564092 
L 166.125825 69.157257 
L 167.211627 71.552679 
L 168.297428 69.613528 
L 169.383229 72.617311 
L 170.46903 68.929121 
L 171.554831 66.98997 
L 172.640632 70.450025 
L 173.726434 66.83788 
L 174.812235 71.020363 
L 175.898036 65.887315 
L 176.983837 67.902512 
L 178.069638 66.495676 
L 179.155439 67.370196 
L 180.24124 65.773247 
L 181.327042 65.126864 
L 182.412843 62.12308 
L 183.498644 62.693419 
L 184.584445 65.240931 
L 185.670246 62.769464 
L 186.756047 63.796073 
L 187.841849 62.503306 
L 188.92765 63.035622 
L 190.013451 62.845509 
L 191.099252 61.09647 
L 192.185053 62.655396 
L 193.270854 63.339802 
L 194.356656 61.590764 
L 196.528258 60.640199 
L 197.614059 60.488109 
L 199.785661 59.537545 
L 200.871462 60.069861 
L 201.957264 59.347432 
L 203.043065 59.4615 
L 204.128866 58.853138 
L 205.214667 58.777093 
L 206.300468 58.891161 
L 207.386269 58.206754 
L 208.472071 58.130709 
L 209.557872 57.788506 
L 210.643673 57.750484 
L 211.729474 58.168732 
L 212.815275 56.990032 
L 213.901076 57.522348 
L 214.986877 57.370258 
L 216.072679 57.40828 
L 217.15848 57.294213 
L 218.244281 57.332235 
L 219.330082 57.484326 
L 220.415883 57.142122 
L 221.501684 56.952009 
L 222.587486 57.142122 
L 224.759088 57.066077 
L 225.844889 74.670531 
L 226.93069 70.944318 
L 228.016491 76.837818 
L 229.102292 71.932905 
L 230.188094 71.438612 
L 231.273895 70.488047 
L 232.359696 73.567876 
L 233.445497 73.986124 
L 234.531298 76.837818 
L 235.617099 68.244715 
L 236.702901 72.769402 
L 237.788702 69.65155 
L 238.874503 71.020363 
L 239.960304 69.119234 
L 241.046105 67.560309 
L 242.131906 67.446241 
L 243.217708 67.598331 
L 244.303509 68.853076 
L 245.38931 67.864489 
L 246.475111 67.636354 
L 247.560912 68.32076 
L 248.646713 66.761834 
L 249.732514 66.609744 
L 250.818316 68.092625 
L 251.904117 67.446241 
L 252.989918 69.195279 
L 254.075719 69.65155 
L 255.16152 65.621157 
L 256.247321 65.96336 
L 257.333123 67.446241 
L 258.418924 67.256128 
L 259.504725 66.685789 
L 260.590526 67.560309 
L 261.676327 65.050818 
L 262.762128 66.457654 
L 263.847929 68.282738 
L 264.933731 67.750421 
L 266.019532 68.130647 
L 267.105333 65.126864 
L 268.191134 67.218105 
L 269.276935 64.936751 
L 270.362736 65.81127 
L 271.448538 64.518502 
L 272.534339 63.910141 
L 273.62014 62.883532 
L 274.705941 65.393022 
L 275.791742 65.088841 
L 276.877543 67.598331 
L 277.963344 63.45387 
L 279.049146 63.377825 
L 280.134947 65.507089 
L 281.220748 64.252344 
L 282.306549 64.860706 
L 283.39235 64.746638 
L 284.478151 62.845509 
L 285.563953 65.393022 
L 286.649754 65.012796 
L 287.735555 66.115451 
L 288.821356 62.845509 
L 289.907157 61.742854 
L 290.992958 61.210538 
L 292.07876 63.339802 
L 293.164561 64.100254 
L 294.250362 62.427261 
L 295.336163 64.290367 
L 296.421964 62.161103 
L 297.507765 62.313193 
L 298.593566 61.210538 
L 299.679368 63.491893 
L 300.765169 61.476696 
L 301.85097 61.134493 
L 302.936771 63.14969 
L 304.022572 61.286583 
L 305.108373 62.237148 
L 306.194175 61.172516 
L 307.279976 59.841725 
L 308.365777 62.237148 
L 309.451578 62.503306 
L 310.537379 62.389238 
L 311.62318 61.856922 
L 312.708981 59.993816 
L 313.794783 60.107883 
L 314.880584 58.815116 
L 315.966385 60.868335 
L 317.052186 59.347432 
L 318.137987 60.412064 
L 319.223788 58.891161 
L 320.30959 61.134493 
L 321.395391 60.564154 
L 322.481192 61.894945 
L 323.566993 59.651612 
L 324.652794 62.009012 
L 325.738595 58.244777 
L 326.824396 59.423477 
L 327.910198 60.069861 
L 328.995999 59.119296 
L 330.0818 58.625003 
L 331.167601 59.993816 
L 332.253402 59.005229 
L 335.510806 58.701048 
L 336.596607 57.446303 
L 337.682408 57.978619 
L 338.768209 59.309409 
L 339.85401 57.066077 
L 340.939811 57.40828 
L 342.025613 57.560371 
L 343.111414 57.902574 
L 344.197215 56.723874 
L 345.283016 57.484326 
L 347.454618 56.457716 
L 348.54042 56.191558 
L 349.626221 56.07749 
L 350.712022 56.533761 
L 351.797823 56.07749 
L 352.883624 55.355061 
L 353.969425 56.001445 
L 355.055227 54.708677 
L 356.141028 54.974835 
L 357.226829 54.784722 
L 358.31263 55.202971 
L 359.398431 54.404497 
L 360.484232 55.507151 
L 361.570033 55.317039 
L 362.655835 53.758113 
L 363.741636 54.404497 
L 364.827437 55.735287 
L 365.913238 54.59461 
L 366.999039 54.632632 
L 368.08484 55.393084 
L 369.170642 55.393084 
L 370.256443 56.191558 
L 371.342244 56.001445 
L 372.428045 56.381671 
L 373.513846 56.191558 
L 374.599647 56.343648 
L 375.685448 57.142122 
L 376.77125 56.533761 
L 377.857051 56.571784 
L 378.942852 56.343648 
L 380.028653 56.799919 
L 381.114454 56.571784 
L 382.200255 56.457716 
L 383.286057 56.685851 
L 384.371858 55.355061 
L 385.457659 56.609806 
L 386.54346 55.811332 
L 387.629261 56.153535 
L 388.715062 56.07749 
L 389.800863 56.305626 
L 390.886665 56.305626 
L 391.972466 55.583197 
L 393.058267 57.294213 
L 394.144068 55.887377 
L 395.229869 56.533761 
L 396.31567 56.571784 
L 397.401472 56.07749 
L 398.487273 55.735287 
L 398.487273 55.735287 
" clip-path="url(#pebf1b37d73)" style="fill: none; stroke: #ff7f0e; stroke-width: 1.5; stroke-linecap: square"/>
   </g>
   <g id="line2d_20">
    <path d="M 73.832727 285.244811 
L 74.918528 228.420724 
L 76.00433 211.979237 
L 77.090131 214.785041 
L 78.175932 172.357088 
L 79.261733 180.014049 
L 80.347534 167.26993 
L 81.433335 168.843278 
L 82.519137 153.975139 
L 83.604938 152.82135 
L 84.690739 152.270678 
L 85.77654 137.743431 
L 86.862341 139.238112 
L 87.948142 129.666912 
L 89.033943 127.202 
L 90.119745 129.142462 
L 91.205546 132.73494 
L 92.291347 130.689588 
L 93.377148 129.378464 
L 94.462949 126.756218 
L 95.54875 151.457782 
L 96.634552 149.517319 
L 97.720353 165.2508 
L 98.806154 139.972341 
L 99.891955 160.452088 
L 103.149358 129.719356 
L 104.23516 131.161592 
L 105.320961 136.98298 
L 106.406762 133.128277 
L 107.492563 125.445094 
L 108.578364 138.005656 
L 109.664165 140.391901 
L 110.749967 136.353641 
L 111.835768 127.621559 
L 112.921569 121.695281 
L 114.00737 120.331713 
L 115.093171 123.845524 
L 116.178972 123.609522 
L 117.264773 126.703773 
L 118.350575 125.104202 
L 119.436376 118.679698 
L 120.522177 120.489048 
L 121.607978 108.767605 
L 122.693779 115.952561 
L 123.77958 111.652076 
L 124.865382 119.256592 
L 125.951183 117.263684 
L 127.036984 111.416074 
L 128.122785 115.611669 
L 129.208586 113.671206 
L 130.294387 117.080127 
L 131.380189 103.732891 
L 132.46599 106.119136 
L 133.551791 104.99157 
L 134.637592 105.752021 
L 135.723393 103.680446 
L 136.809194 103.444444 
L 137.894995 104.231118 
L 138.980797 133.1545 
L 140.066598 131.712264 
L 141.152399 141.283465 
L 142.2382 135.593189 
L 143.324001 137.035425 
L 144.409802 129.981581 
L 145.495604 124.369973 
L 146.581405 129.090017 
L 147.667206 123.740634 
L 148.753007 137.690987 
L 149.838808 121.773949 
L 150.924609 119.571262 
L 152.01041 129.981581 
L 153.096212 128.513123 
L 154.182013 118.653475 
L 155.267814 121.616614 
L 156.353615 126.441548 
L 157.439416 118.863255 
L 158.525217 123.871746 
L 159.611019 119.492594 
L 160.69682 122.875292 
L 161.782621 119.990821 
L 162.868422 119.204147 
L 163.954223 121.354389 
L 165.040024 115.349444 
L 166.125825 115.559224 
L 167.211627 121.406834 
L 168.297428 128.827793 
L 169.383229 119.335259 
L 170.46903 121.642837 
L 171.554831 112.936977 
L 172.640632 122.508178 
L 173.726434 115.585447 
L 174.812235 126.074433 
L 175.898036 120.62016 
L 176.983837 113.985876 
L 178.069638 110.52451 
L 179.155439 112.64853 
L 180.24124 106.433805 
L 181.327042 106.512473 
L 182.412843 108.50538 
L 183.498644 107.194257 
L 185.670246 110.603178 
L 186.756047 108.190711 
L 187.841849 110.026283 
L 188.92765 104.283563 
L 190.013451 107.063145 
L 191.099252 106.014246 
L 192.185053 106.276471 
L 193.270854 105.673354 
L 194.356656 99.799521 
L 195.442457 103.234664 
L 196.528258 102.002208 
L 197.614059 97.911504 
L 198.69986 95.525259 
L 199.785661 92.011448 
L 200.871462 96.364378 
L 201.957264 98.82929 
L 203.043065 98.776845 
L 204.128866 95.708816 
L 205.214667 102.290656 
L 206.300468 98.304841 
L 207.386269 95.341702 
L 208.472071 93.663464 
L 209.557872 95.263034 
L 210.643673 95.656371 
L 211.729474 94.319025 
L 212.815275 92.66701 
L 213.901076 93.768354 
L 214.986877 94.292803 
L 216.072679 93.506129 
L 218.244281 93.558574 
L 219.330082 92.588343 
L 220.415883 92.273673 
L 221.501684 90.936327 
L 222.587486 90.4381 
L 223.673287 90.936327 
L 224.759088 90.202098 
L 225.844889 126.520215 
L 226.93069 119.518817 
L 228.016491 125.995766 
L 229.102292 120.882385 
L 230.188094 119.518817 
L 231.273895 122.377066 
L 232.359696 131.476262 
L 233.445497 128.932682 
L 234.531298 136.379863 
L 235.617099 109.108497 
L 236.702901 110.550733 
L 237.788702 127.359334 
L 238.874503 122.796625 
L 239.960304 120.567715 
L 241.046105 111.756966 
L 242.131906 122.167286 
L 243.217708 117.394797 
L 244.303509 122.193508 
L 245.38931 115.690336 
L 246.475111 115.559224 
L 247.560912 121.433057 
L 248.646713 115.480557 
L 249.732514 126.965997 
L 250.818316 110.445843 
L 251.904117 116.188563 
L 252.989918 117.525909 
L 254.075719 121.118387 
L 255.16152 111.520964 
L 256.247321 108.426713 
L 257.333123 117.080127 
L 258.418924 110.917847 
L 259.504725 115.559224 
L 260.590526 114.45788 
L 261.676327 118.548585 
L 262.762128 105.280017 
L 263.847929 116.949015 
L 264.933731 114.248101 
L 266.019532 128.408233 
L 267.105333 115.113442 
L 268.191134 118.155248 
L 269.276935 110.026283 
L 270.362736 111.625854 
L 271.448538 115.716559 
L 272.534339 114.143211 
L 273.62014 105.988023 
L 274.705941 102.946217 
L 275.791742 104.46712 
L 276.877543 116.031228 
L 277.963344 104.493343 
L 279.049146 107.0107 
L 280.134947 112.832087 
L 281.220748 111.730744 
L 282.306549 111.573409 
L 283.39235 106.59114 
L 284.478151 99.851966 
L 285.563953 109.606724 
L 287.735555 103.864004 
L 288.821356 106.250248 
L 289.907157 107.351592 
L 290.992958 100.087968 
L 293.164561 106.932032 
L 294.250362 104.283563 
L 295.336163 112.779643 
L 296.421964 106.48625 
L 297.507765 102.86755 
L 298.593566 102.474213 
L 299.679368 107.0107 
L 300.765169 103.628001 
L 301.85097 104.178673 
L 302.936771 110.000061 
L 304.022572 114.824995 
L 305.108373 100.323971 
L 306.194175 106.617363 
L 307.279976 95.027032 
L 308.365777 108.348046 
L 309.451578 115.323222 
L 310.537379 101.399092 
L 311.62318 105.09646 
L 312.708981 104.047561 
L 313.794783 108.557825 
L 314.880584 97.072385 
L 315.966385 97.570611 
L 317.052186 107.063145 
L 318.137987 102.736438 
L 319.223788 96.81016 
L 320.30959 101.582649 
L 321.395391 104.047561 
L 322.481192 105.122682 
L 323.566993 103.837781 
L 324.652794 106.460028 
L 325.738595 101.215534 
L 326.824396 106.119136 
L 327.910198 101.897319 
L 328.995999 101.582649 
L 330.0818 101.739984 
L 331.167601 106.853365 
L 332.253402 96.102153 
L 333.339203 94.68614 
L 334.425005 98.304841 
L 335.510806 94.004356 
L 336.596607 88.654973 
L 337.682408 93.689686 
L 338.768209 95.499037 
L 339.85401 89.126977 
L 340.939811 93.139014 
L 342.025613 95.367924 
L 343.111414 95.184367 
L 344.197215 98.488398 
L 345.283016 95.787484 
L 346.368817 91.06744 
L 347.454618 93.584796 
L 348.54042 88.261635 
L 349.626221 95.341702 
L 350.712022 91.565666 
L 351.797823 90.674103 
L 352.883624 95.184367 
L 353.969425 96.836382 
L 355.055227 87.579851 
L 356.141028 87.999411 
L 357.226829 90.516768 
L 358.31263 91.382109 
L 359.398431 88.078078 
L 360.484232 85.954058 
L 361.570033 89.887428 
L 362.655835 86.347395 
L 363.741636 85.455831 
L 364.827437 90.464323 
L 366.999039 85.324719 
L 368.08484 89.572759 
L 369.170642 90.070986 
L 370.256443 93.532351 
L 371.342244 88.969642 
L 372.428045 93.925688 
L 373.513846 92.116338 
L 374.599647 85.744279 
L 375.685448 90.149653 
L 376.77125 91.172329 
L 377.857051 98.016393 
L 378.942852 88.471415 
L 381.114454 92.693232 
L 382.200255 92.7719 
L 383.286057 89.126977 
L 384.371858 88.209191 
L 385.457659 94.37147 
L 386.54346 87.894521 
L 387.629261 85.534499 
L 388.715062 90.490545 
L 389.800863 88.261635 
L 390.886665 93.375017 
L 391.972466 89.966096 
L 393.058267 97.675501 
L 394.144068 90.64788 
L 395.229869 87.186514 
L 396.31567 86.71451 
L 397.401472 91.224774 
L 398.487273 87.973188 
L 398.487273 87.973188 
" clip-path="url(#pebf1b37d73)" style="fill: none; stroke: #2ca02c; stroke-width: 1.5; stroke-linecap: square"/>
   </g>
   <g id="line2d_21">
    <path d="M 368.08484 54.442519 
L 369.170642 54.252406 
L 370.256443 54.442519 
L 371.342244 55.317039 
L 372.428045 54.518564 
L 373.513846 55.469129 
L 374.599647 54.252406 
L 375.685448 54.480542 
L 376.77125 53.948226 
L 377.857051 54.138339 
L 378.942852 54.556587 
L 380.028653 53.948226 
L 381.114454 55.088903 
L 382.200255 55.279016 
L 383.286057 55.088903 
L 384.371858 54.556587 
L 385.457659 54.632632 
L 386.54346 53.568 
L 387.629261 54.784722 
L 388.715062 55.050881 
L 389.800863 54.404497 
L 393.058267 54.138339 
L 394.144068 55.317039 
L 395.229869 55.507151 
L 396.31567 55.088903 
L 397.401472 54.974835 
L 398.487273 55.355061 
L 398.487273 55.355061 
" clip-path="url(#pebf1b37d73)" style="fill: none; stroke: #d62728; stroke-width: 1.5; stroke-linecap: square"/>
   </g>
   <g id="line2d_22">
    <path d="M 368.08484 83.725149 
L 369.170642 84.328265 
L 370.256443 87.055402 
L 371.342244 87.186514 
L 372.428045 86.793177 
L 373.513846 91.486999 
L 374.599647 86.766955 
L 375.685448 86.871845 
L 376.77125 84.406933 
L 377.857051 83.489146 
L 378.942852 84.406933 
L 380.028653 84.249598 
L 381.114454 84.538045 
L 382.200255 85.272274 
L 383.286057 83.148254 
L 384.371858 82.88603 
L 385.457659 86.137616 
L 386.54346 79.975336 
L 387.629261 85.875391 
L 388.715062 85.246052 
L 389.800863 86.347395 
L 390.886665 86.111393 
L 391.972466 86.111393 
L 393.058267 82.67625 
L 394.144068 83.462924 
L 395.229869 85.770501 
L 396.31567 86.137616 
L 397.401472 83.148254 
L 398.487273 87.055402 
L 398.487273 87.055402 
" clip-path="url(#pebf1b37d73)" style="fill: none; stroke: #9467bd; stroke-width: 1.5; stroke-linecap: square"/>
   </g>
   <g id="patch_3">
    <path d="M 57.6 307.584 
L 57.6 41.472 
" style="fill: none; stroke: #000000; stroke-width: 0.8; stroke-linejoin: miter; stroke-linecap: square"/>
   </g>
   <g id="patch_4">
    <path d="M 414.72 307.584 
L 414.72 41.472 
" style="fill: none; stroke: #000000; stroke-width: 0.8; stroke-linejoin: miter; stroke-linecap: square"/>
   </g>
   <g id="patch_5">
    <path d="M 57.6 307.584 
L 414.72 307.584 
" style="fill: none; stroke: #000000; stroke-width: 0.8; stroke-linejoin: miter; stroke-linecap: square"/>
   </g>
   <g id="patch_6">
    <path d="M 57.6 41.472 
L 414.72 41.472 
" style="fill: none; stroke: #000000; stroke-width: 0.8; stroke-linejoin: miter; stroke-linecap: square"/>
   </g>
   <g id="text_20">
    <!-- Learning Curves -->
    <g transform="translate(187.37625 35.472) scale(0.12 -0.12)">
     <defs>
      <path id="DejaVuSans-4c" d="M 628 4666 
L 1259 4666 
L 1259 531 
L 3531 531 
L 3531 0 
L 628 0 
L 628 4666 
z
" transform="scale(0.015625)"/>
      <path id="DejaVuSans-65" d="M 3597 1894 
L 3597 1613 
L 953 1613 
Q 991 1019 1311 708 
Q 1631 397 2203 397 
Q 2534 397 2845 478 
Q 3156 559 3463 722 
L 3463 178 
Q 3153 47 2828 -22 
Q 2503 -91 2169 -91 
Q 1331 -91 842 396 
Q 353 884 353 1716 
Q 353 2575 817 3079 
Q 1281 3584 2069 3584 
Q 2775 3584 3186 3129 
Q 3597 2675 3597 1894 
z
M 3022 2063 
Q 3016 2534 2758 2815 
Q 2500 3097 2075 3097 
Q 1594 3097 1305 2825 
Q 1016 2553 972 2059 
L 3022 2063 
z
" transform="scale(0.015625)"/>
      <path id="DejaVuSans-6e" d="M 3513 2113 
L 3513 0 
L 2938 0 
L 2938 2094 
Q 2938 2591 2744 2837 
Q 2550 3084 2163 3084 
Q 1697 3084 1428 2787 
Q 1159 2491 1159 1978 
L 1159 0 
L 581 0 
L 581 3500 
L 1159 3500 
L 1159 2956 
Q 1366 3272 1645 3428 
Q 1925 3584 2291 3584 
Q 2894 3584 3203 3211 
Q 3513 2838 3513 2113 
z
" transform="scale(0.015625)"/>
      <path id="DejaVuSans-69" d="M 603 3500 
L 1178 3500 
L 1178 0 
L 603 0 
L 603 3500 
z
M 603 4863 
L 1178 4863 
L 1178 4134 
L 603 4134 
L 603 4863 
z
" transform="scale(0.015625)"/>
      <path id="DejaVuSans-67" d="M 2906 1791 
Q 2906 2416 2648 2759 
Q 2391 3103 1925 3103 
Q 1463 3103 1205 2759 
Q 947 2416 947 1791 
Q 947 1169 1205 825 
Q 1463 481 1925 481 
Q 2391 481 2648 825 
Q 2906 1169 2906 1791 
z
M 3481 434 
Q 3481 -459 3084 -895 
Q 2688 -1331 1869 -1331 
Q 1566 -1331 1297 -1286 
Q 1028 -1241 775 -1147 
L 775 -588 
Q 1028 -725 1275 -790 
Q 1522 -856 1778 -856 
Q 2344 -856 2625 -561 
Q 2906 -266 2906 331 
L 2906 616 
Q 2728 306 2450 153 
Q 2172 0 1784 0 
Q 1141 0 747 490 
Q 353 981 353 1791 
Q 353 2603 747 3093 
Q 1141 3584 1784 3584 
Q 2172 3584 2450 3431 
Q 2728 3278 2906 2969 
L 2906 3500 
L 3481 3500 
L 3481 434 
z
" transform="scale(0.015625)"/>
      <path id="DejaVuSans-20" transform="scale(0.015625)"/>
      <path id="DejaVuSans-43" d="M 4122 4306 
L 4122 3641 
Q 3803 3938 3442 4084 
Q 3081 4231 2675 4231 
Q 1875 4231 1450 3742 
Q 1025 3253 1025 2328 
Q 1025 1406 1450 917 
Q 1875 428 2675 428 
Q 3081 428 3442 575 
Q 3803 722 4122 1019 
L 4122 359 
Q 3791 134 3420 21 
Q 3050 -91 2638 -91 
Q 1578 -91 968 557 
Q 359 1206 359 2328 
Q 359 3453 968 4101 
Q 1578 4750 2638 4750 
Q 3056 4750 3426 4639 
Q 3797 4528 4122 4306 
z
" transform="scale(0.015625)"/>
      <path id="DejaVuSans-76" d="M 191 3500 
L 800 3500 
L 1894 563 
L 2988 3500 
L 3597 3500 
L 2284 0 
L 1503 0 
L 191 3500 
z
" transform="scale(0.015625)"/>
     </defs>
     <use xlink:href="#DejaVuSans-4c"/>
     <use xlink:href="#DejaVuSans-65" x="53.962891"/>
     <use xlink:href="#DejaVuSans-61" x="115.486328"/>
     <use xlink:href="#DejaVuSans-72" x="176.765625"/>
     <use xlink:href="#DejaVuSans-6e" x="216.128906"/>
     <use xlink:href="#DejaVuSans-69" x="279.507812"/>
     <use xlink:href="#DejaVuSans-6e" x="307.291016"/>
     <use xlink:href="#DejaVuSans-67" x="370.669922"/>
     <use xlink:href="#DejaVuSans-20" x="434.146484"/>
     <use xlink:href="#DejaVuSans-43" x="465.933594"/>
     <use xlink:href="#DejaVuSans-75" x="535.757812"/>
     <use xlink:href="#DejaVuSans-72" x="599.136719"/>
     <use xlink:href="#DejaVuSans-76" x="640.25"/>
     <use xlink:href="#DejaVuSans-65" x="699.429688"/>
     <use xlink:href="#DejaVuSans-73" x="760.953125"/>
    </g>
   </g>
   <g id="legend_1">
    <g id="patch_7">
     <path d="M 214.18875 302.584 
L 407.72 302.584 
Q 409.72 302.584 409.72 300.584 
L 409.72 228.193375 
Q 409.72 226.193375 407.72 226.193375 
L 214.18875 226.193375 
Q 212.18875 226.193375 212.18875 228.193375 
L 212.18875 300.584 
Q 212.18875 302.584 214.18875 302.584 
z
" style="fill: #ffffff; opacity: 0.8; stroke: #cccccc; stroke-linejoin: miter"/>
    </g>
    <g id="line2d_23">
     <path d="M 216.18875 234.291812 
L 226.18875 234.291812 
L 236.18875 234.291812 
" style="fill: none; stroke: #1f77b4; stroke-width: 1.5; stroke-linecap: square"/>
    </g>
    <g id="text_21">
     <!-- Train Accuracy -->
     <g transform="translate(244.18875 237.791812) scale(0.1 -0.1)">
      <defs>
       <path id="DejaVuSans-54" d="M -19 4666 
L 3928 4666 
L 3928 4134 
L 2272 4134 
L 2272 0 
L 1638 0 
L 1638 4134 
L -19 4134 
L -19 4666 
z
" transform="scale(0.015625)"/>
      </defs>
      <use xlink:href="#DejaVuSans-54"/>
      <use xlink:href="#DejaVuSans-72" x="46.333984"/>
      <use xlink:href="#DejaVuSans-61" x="87.447266"/>
      <use xlink:href="#DejaVuSans-69" x="148.726562"/>
      <use xlink:href="#DejaVuSans-6e" x="176.509766"/>
      <use xlink:href="#DejaVuSans-20" x="239.888672"/>
      <use xlink:href="#DejaVuSans-41" x="271.675781"/>
      <use xlink:href="#DejaVuSans-63" x="338.333984"/>
      <use xlink:href="#DejaVuSans-63" x="393.314453"/>
      <use xlink:href="#DejaVuSans-75" x="448.294922"/>
      <use xlink:href="#DejaVuSans-72" x="511.673828"/>
      <use xlink:href="#DejaVuSans-61" x="552.787109"/>
      <use xlink:href="#DejaVuSans-63" x="614.066406"/>
      <use xlink:href="#DejaVuSans-79" x="669.046875"/>
     </g>
    </g>
    <g id="line2d_24">
     <path d="M 216.18875 248.969937 
L 226.18875 248.969937 
L 236.18875 248.969937 
" style="fill: none; stroke: #ff7f0e; stroke-width: 1.5; stroke-linecap: square"/>
    </g>
    <g id="text_22">
     <!-- Validation Accuracy -->
     <g transform="translate(244.18875 252.469937) scale(0.1 -0.1)">
      <defs>
       <path id="DejaVuSans-56" d="M 1831 0 
L 50 4666 
L 709 4666 
L 2188 738 
L 3669 4666 
L 4325 4666 
L 2547 0 
L 1831 0 
z
" transform="scale(0.015625)"/>
       <path id="DejaVuSans-6c" d="M 603 4863 
L 1178 4863 
L 1178 0 
L 603 0 
L 603 4863 
z
" transform="scale(0.015625)"/>
       <path id="DejaVuSans-64" d="M 2906 2969 
L 2906 4863 
L 3481 4863 
L 3481 0 
L 2906 0 
L 2906 525 
Q 2725 213 2448 61 
Q 2172 -91 1784 -91 
Q 1150 -91 751 415 
Q 353 922 353 1747 
Q 353 2572 751 3078 
Q 1150 3584 1784 3584 
Q 2172 3584 2448 3432 
Q 2725 3281 2906 2969 
z
M 947 1747 
Q 947 1113 1208 752 
Q 1469 391 1925 391 
Q 2381 391 2643 752 
Q 2906 1113 2906 1747 
Q 2906 2381 2643 2742 
Q 2381 3103 1925 3103 
Q 1469 3103 1208 2742 
Q 947 2381 947 1747 
z
" transform="scale(0.015625)"/>
       <path id="DejaVuSans-74" d="M 1172 4494 
L 1172 3500 
L 2356 3500 
L 2356 3053 
L 1172 3053 
L 1172 1153 
Q 1172 725 1289 603 
Q 1406 481 1766 481 
L 2356 481 
L 2356 0 
L 1766 0 
Q 1100 0 847 248 
Q 594 497 594 1153 
L 594 3053 
L 172 3053 
L 172 3500 
L 594 3500 
L 594 4494 
L 1172 4494 
z
" transform="scale(0.015625)"/>
      </defs>
      <use xlink:href="#DejaVuSans-56"/>
      <use xlink:href="#DejaVuSans-61" x="60.658203"/>
      <use xlink:href="#DejaVuSans-6c" x="121.9375"/>
      <use xlink:href="#DejaVuSans-69" x="149.720703"/>
      <use xlink:href="#DejaVuSans-64" x="177.503906"/>
      <use xlink:href="#DejaVuSans-61" x="240.980469"/>
      <use xlink:href="#DejaVuSans-74" x="302.259766"/>
      <use xlink:href="#DejaVuSans-69" x="341.46875"/>
      <use xlink:href="#DejaVuSans-6f" x="369.251953"/>
      <use xlink:href="#DejaVuSans-6e" x="430.433594"/>
      <use xlink:href="#DejaVuSans-20" x="493.8125"/>
      <use xlink:href="#DejaVuSans-41" x="525.599609"/>
      <use xlink:href="#DejaVuSans-63" x="592.257812"/>
      <use xlink:href="#DejaVuSans-63" x="647.238281"/>
      <use xlink:href="#DejaVuSans-75" x="702.21875"/>
      <use xlink:href="#DejaVuSans-72" x="765.597656"/>
      <use xlink:href="#DejaVuSans-61" x="806.710938"/>
      <use xlink:href="#DejaVuSans-63" x="867.990234"/>
      <use xlink:href="#DejaVuSans-79" x="922.970703"/>
     </g>
    </g>
    <g id="line2d_25">
     <path d="M 216.18875 263.648062 
L 226.18875 263.648062 
L 236.18875 263.648062 
" style="fill: none; stroke: #2ca02c; stroke-width: 1.5; stroke-linecap: square"/>
    </g>
    <g id="text_23">
     <!-- Robust Validation Accuracy -->
     <g transform="translate(244.18875 267.148062) scale(0.1 -0.1)">
      <defs>
       <path id="DejaVuSans-52" d="M 2841 2188 
Q 3044 2119 3236 1894 
Q 3428 1669 3622 1275 
L 4263 0 
L 3584 0 
L 2988 1197 
Q 2756 1666 2539 1819 
Q 2322 1972 1947 1972 
L 1259 1972 
L 1259 0 
L 628 0 
L 628 4666 
L 2053 4666 
Q 2853 4666 3247 4331 
Q 3641 3997 3641 3322 
Q 3641 2881 3436 2590 
Q 3231 2300 2841 2188 
z
M 1259 4147 
L 1259 2491 
L 2053 2491 
Q 2509 2491 2742 2702 
Q 2975 2913 2975 3322 
Q 2975 3731 2742 3939 
Q 2509 4147 2053 4147 
L 1259 4147 
z
" transform="scale(0.015625)"/>
       <path id="DejaVuSans-62" d="M 3116 1747 
Q 3116 2381 2855 2742 
Q 2594 3103 2138 3103 
Q 1681 3103 1420 2742 
Q 1159 2381 1159 1747 
Q 1159 1113 1420 752 
Q 1681 391 2138 391 
Q 2594 391 2855 752 
Q 3116 1113 3116 1747 
z
M 1159 2969 
Q 1341 3281 1617 3432 
Q 1894 3584 2278 3584 
Q 2916 3584 3314 3078 
Q 3713 2572 3713 1747 
Q 3713 922 3314 415 
Q 2916 -91 2278 -91 
Q 1894 -91 1617 61 
Q 1341 213 1159 525 
L 1159 0 
L 581 0 
L 581 4863 
L 1159 4863 
L 1159 2969 
z
" transform="scale(0.015625)"/>
      </defs>
      <use xlink:href="#DejaVuSans-52"/>
      <use xlink:href="#DejaVuSans-6f" x="64.982422"/>
      <use xlink:href="#DejaVuSans-62" x="126.164062"/>
      <use xlink:href="#DejaVuSans-75" x="189.640625"/>
      <use xlink:href="#DejaVuSans-73" x="253.019531"/>
      <use xlink:href="#DejaVuSans-74" x="305.119141"/>
      <use xlink:href="#DejaVuSans-20" x="344.328125"/>
      <use xlink:href="#DejaVuSans-56" x="376.115234"/>
      <use xlink:href="#DejaVuSans-61" x="436.773438"/>
      <use xlink:href="#DejaVuSans-6c" x="498.052734"/>
      <use xlink:href="#DejaVuSans-69" x="525.835938"/>
      <use xlink:href="#DejaVuSans-64" x="553.619141"/>
      <use xlink:href="#DejaVuSans-61" x="617.095703"/>
      <use xlink:href="#DejaVuSans-74" x="678.375"/>
      <use xlink:href="#DejaVuSans-69" x="717.583984"/>
      <use xlink:href="#DejaVuSans-6f" x="745.367188"/>
      <use xlink:href="#DejaVuSans-6e" x="806.548828"/>
      <use xlink:href="#DejaVuSans-20" x="869.927734"/>
      <use xlink:href="#DejaVuSans-41" x="901.714844"/>
      <use xlink:href="#DejaVuSans-63" x="968.373047"/>
      <use xlink:href="#DejaVuSans-63" x="1023.353516"/>
      <use xlink:href="#DejaVuSans-75" x="1078.333984"/>
      <use xlink:href="#DejaVuSans-72" x="1141.712891"/>
      <use xlink:href="#DejaVuSans-61" x="1182.826172"/>
      <use xlink:href="#DejaVuSans-63" x="1244.105469"/>
      <use xlink:href="#DejaVuSans-79" x="1299.085938"/>
     </g>
    </g>
    <g id="line2d_26">
     <path d="M 216.18875 278.326188 
L 226.18875 278.326188 
L 236.18875 278.326188 
" style="fill: none; stroke: #d62728; stroke-width: 1.5; stroke-linecap: square"/>
    </g>
    <g id="text_24">
     <!-- SWA Validation Accuracy -->
     <g transform="translate(244.18875 281.826188) scale(0.1 -0.1)">
      <defs>
       <path id="DejaVuSans-53" d="M 3425 4513 
L 3425 3897 
Q 3066 4069 2747 4153 
Q 2428 4238 2131 4238 
Q 1616 4238 1336 4038 
Q 1056 3838 1056 3469 
Q 1056 3159 1242 3001 
Q 1428 2844 1947 2747 
L 2328 2669 
Q 3034 2534 3370 2195 
Q 3706 1856 3706 1288 
Q 3706 609 3251 259 
Q 2797 -91 1919 -91 
Q 1588 -91 1214 -16 
Q 841 59 441 206 
L 441 856 
Q 825 641 1194 531 
Q 1563 422 1919 422 
Q 2459 422 2753 634 
Q 3047 847 3047 1241 
Q 3047 1584 2836 1778 
Q 2625 1972 2144 2069 
L 1759 2144 
Q 1053 2284 737 2584 
Q 422 2884 422 3419 
Q 422 4038 858 4394 
Q 1294 4750 2059 4750 
Q 2388 4750 2728 4690 
Q 3069 4631 3425 4513 
z
" transform="scale(0.015625)"/>
       <path id="DejaVuSans-57" d="M 213 4666 
L 850 4666 
L 1831 722 
L 2809 4666 
L 3519 4666 
L 4500 722 
L 5478 4666 
L 6119 4666 
L 4947 0 
L 4153 0 
L 3169 4050 
L 2175 0 
L 1381 0 
L 213 4666 
z
" transform="scale(0.015625)"/>
      </defs>
      <use xlink:href="#DejaVuSans-53"/>
      <use xlink:href="#DejaVuSans-57" x="63.476562"/>
      <use xlink:href="#DejaVuSans-41" x="156.853516"/>
      <use xlink:href="#DejaVuSans-20" x="225.261719"/>
      <use xlink:href="#DejaVuSans-56" x="257.048828"/>
      <use xlink:href="#DejaVuSans-61" x="317.707031"/>
      <use xlink:href="#DejaVuSans-6c" x="378.986328"/>
      <use xlink:href="#DejaVuSans-69" x="406.769531"/>
      <use xlink:href="#DejaVuSans-64" x="434.552734"/>
      <use xlink:href="#DejaVuSans-61" x="498.029297"/>
      <use xlink:href="#DejaVuSans-74" x="559.308594"/>
      <use xlink:href="#DejaVuSans-69" x="598.517578"/>
      <use xlink:href="#DejaVuSans-6f" x="626.300781"/>
      <use xlink:href="#DejaVuSans-6e" x="687.482422"/>
      <use xlink:href="#DejaVuSans-20" x="750.861328"/>
      <use xlink:href="#DejaVuSans-41" x="782.648438"/>
      <use xlink:href="#DejaVuSans-63" x="849.306641"/>
      <use xlink:href="#DejaVuSans-63" x="904.287109"/>
      <use xlink:href="#DejaVuSans-75" x="959.267578"/>
      <use xlink:href="#DejaVuSans-72" x="1022.646484"/>
      <use xlink:href="#DejaVuSans-61" x="1063.759766"/>
      <use xlink:href="#DejaVuSans-63" x="1125.039062"/>
      <use xlink:href="#DejaVuSans-79" x="1180.019531"/>
     </g>
    </g>
    <g id="line2d_27">
     <path d="M 216.18875 293.004312 
L 226.18875 293.004312 
L 236.18875 293.004312 
" style="fill: none; stroke: #9467bd; stroke-width: 1.5; stroke-linecap: square"/>
    </g>
    <g id="text_25">
     <!-- SWA Robust Validation Accuracy -->
     <g transform="translate(244.18875 296.504312) scale(0.1 -0.1)">
      <use xlink:href="#DejaVuSans-53"/>
      <use xlink:href="#DejaVuSans-57" x="63.476562"/>
      <use xlink:href="#DejaVuSans-41" x="156.853516"/>
      <use xlink:href="#DejaVuSans-20" x="225.261719"/>
      <use xlink:href="#DejaVuSans-52" x="257.048828"/>
      <use xlink:href="#DejaVuSans-6f" x="322.03125"/>
      <use xlink:href="#DejaVuSans-62" x="383.212891"/>
      <use xlink:href="#DejaVuSans-75" x="446.689453"/>
      <use xlink:href="#DejaVuSans-73" x="510.068359"/>
      <use xlink:href="#DejaVuSans-74" x="562.167969"/>
      <use xlink:href="#DejaVuSans-20" x="601.376953"/>
      <use xlink:href="#DejaVuSans-56" x="633.164062"/>
      <use xlink:href="#DejaVuSans-61" x="693.822266"/>
      <use xlink:href="#DejaVuSans-6c" x="755.101562"/>
      <use xlink:href="#DejaVuSans-69" x="782.884766"/>
      <use xlink:href="#DejaVuSans-64" x="810.667969"/>
      <use xlink:href="#DejaVuSans-61" x="874.144531"/>
      <use xlink:href="#DejaVuSans-74" x="935.423828"/>
      <use xlink:href="#DejaVuSans-69" x="974.632812"/>
      <use xlink:href="#DejaVuSans-6f" x="1002.416016"/>
      <use xlink:href="#DejaVuSans-6e" x="1063.597656"/>
      <use xlink:href="#DejaVuSans-20" x="1126.976562"/>
      <use xlink:href="#DejaVuSans-41" x="1158.763672"/>
      <use xlink:href="#DejaVuSans-63" x="1225.421875"/>
      <use xlink:href="#DejaVuSans-63" x="1280.402344"/>
      <use xlink:href="#DejaVuSans-75" x="1335.382812"/>
      <use xlink:href="#DejaVuSans-72" x="1398.761719"/>
      <use xlink:href="#DejaVuSans-61" x="1439.875"/>
      <use xlink:href="#DejaVuSans-63" x="1501.154297"/>
      <use xlink:href="#DejaVuSans-79" x="1556.134766"/>
     </g>
    </g>
   </g>
  </g>
 </g>
 <defs>
  <clipPath id="pebf1b37d73">
   <rect x="57.6" y="41.472" width="357.12" height="266.112"/>
  </clipPath>
 </defs>
</svg>
