<?xml version="1.0" encoding="utf-8" standalone="no"?>
<!DOCTYPE svg PUBLIC "-//W3C//DTD SVG 1.1//EN"
  "http://www.w3.org/Graphics/SVG/1.1/DTD/svg11.dtd">
<svg xmlns:xlink="http://www.w3.org/1999/xlink" width="460.8pt" height="345.6pt" viewBox="0 0 460.8 345.6" xmlns="http://www.w3.org/2000/svg" version="1.1">
 <metadata>
  <rdf:RDF xmlns:dc="http://purl.org/dc/elements/1.1/" xmlns:cc="http://creativecommons.org/ns#" xmlns:rdf="http://www.w3.org/1999/02/22-rdf-syntax-ns#">
   <cc:Work>
    <dc:type rdf:resource="http://purl.org/dc/dcmitype/StillImage"/>
    <dc:date>2025-01-16T19:07:57.957402</dc:date>
    <dc:format>image/svg+xml</dc:format>
    <dc:creator>
     <cc:Agent>
      <dc:title>Matplotlib v3.9.1, https://matplotlib.org/</dc:title>
     </cc:Agent>
    </dc:creator>
   </cc:Work>
  </rdf:RDF>
 </metadata>
 <defs>
  <style type="text/css">*{stroke-linejoin: round; stroke-linecap: butt}</style>
 </defs>
 <g id="figure_1">
  <g id="patch_1">
   <path d="M 0 345.6 
L 460.8 345.6 
L 460.8 0 
L 0 0 
z
" style="fill: #ffffff"/>
  </g>
  <g id="axes_1">
   <g id="patch_2">
    <path d="M 57.6 307.584 
L 414.72 307.584 
L 414.72 41.472 
L 57.6 41.472 
z
" style="fill: #ffffff"/>
   </g>
   <g id="matplotlib.axis_1">
    <g id="xtick_1">
     <g id="line2d_1">
      <defs>
       <path id="med8ec84b33" d="M 0 0 
L 0 3.5 
" style="stroke: #000000; stroke-width: 0.8"/>
      </defs>
      <g>
       <use xlink:href="#med8ec84b33" x="73.832727" y="307.584" style="stroke: #000000; stroke-width: 0.8"/>
      </g>
     </g>
     <g id="text_1">
      <!-- 1 -->
      <g transform="translate(70.651477 322.182437) scale(0.1 -0.1)">
       <defs>
        <path id="DejaVuSans-31" d="M 794 531 
L 1825 531 
L 1825 4091 
L 703 3866 
L 703 4441 
L 1819 4666 
L 2450 4666 
L 2450 531 
L 3481 531 
L 3481 0 
L 794 0 
L 794 531 
z
" transform="scale(0.015625)"/>
       </defs>
       <use xlink:href="#DejaVuSans-31"/>
      </g>
     </g>
    </g>
    <g id="xtick_2">
     <g id="line2d_2">
      <g>
       <use xlink:href="#med8ec84b33" x="109.664165" y="307.584" style="stroke: #000000; stroke-width: 0.8"/>
      </g>
     </g>
     <g id="text_2">
      <!-- 34 -->
      <g transform="translate(103.301665 322.182437) scale(0.1 -0.1)">
       <defs>
        <path id="DejaVuSans-33" d="M 2597 2516 
Q 3050 2419 3304 2112 
Q 3559 1806 3559 1356 
Q 3559 666 3084 287 
Q 2609 -91 1734 -91 
Q 1441 -91 1130 -33 
Q 819 25 488 141 
L 488 750 
Q 750 597 1062 519 
Q 1375 441 1716 441 
Q 2309 441 2620 675 
Q 2931 909 2931 1356 
Q 2931 1769 2642 2001 
Q 2353 2234 1838 2234 
L 1294 2234 
L 1294 2753 
L 1863 2753 
Q 2328 2753 2575 2939 
Q 2822 3125 2822 3475 
Q 2822 3834 2567 4026 
Q 2313 4219 1838 4219 
Q 1578 4219 1281 4162 
Q 984 4106 628 3988 
L 628 4550 
Q 988 4650 1302 4700 
Q 1616 4750 1894 4750 
Q 2613 4750 3031 4423 
Q 3450 4097 3450 3541 
Q 3450 3153 3228 2886 
Q 3006 2619 2597 2516 
z
" transform="scale(0.015625)"/>
        <path id="DejaVuSans-34" d="M 2419 4116 
L 825 1625 
L 2419 1625 
L 2419 4116 
z
M 2253 4666 
L 3047 4666 
L 3047 1625 
L 3713 1625 
L 3713 1100 
L 3047 1100 
L 3047 0 
L 2419 0 
L 2419 1100 
L 313 1100 
L 313 1709 
L 2253 4666 
z
" transform="scale(0.015625)"/>
       </defs>
       <use xlink:href="#DejaVuSans-33"/>
       <use xlink:href="#DejaVuSans-34" x="63.623047"/>
      </g>
     </g>
    </g>
    <g id="xtick_3">
     <g id="line2d_3">
      <g>
       <use xlink:href="#med8ec84b33" x="145.495604" y="307.584" style="stroke: #000000; stroke-width: 0.8"/>
      </g>
     </g>
     <g id="text_3">
      <!-- 67 -->
      <g transform="translate(139.133104 322.182437) scale(0.1 -0.1)">
       <defs>
        <path id="DejaVuSans-36" d="M 2113 2584 
Q 1688 2584 1439 2293 
Q 1191 2003 1191 1497 
Q 1191 994 1439 701 
Q 1688 409 2113 409 
Q 2538 409 2786 701 
Q 3034 994 3034 1497 
Q 3034 2003 2786 2293 
Q 2538 2584 2113 2584 
z
M 3366 4563 
L 3366 3988 
Q 3128 4100 2886 4159 
Q 2644 4219 2406 4219 
Q 1781 4219 1451 3797 
Q 1122 3375 1075 2522 
Q 1259 2794 1537 2939 
Q 1816 3084 2150 3084 
Q 2853 3084 3261 2657 
Q 3669 2231 3669 1497 
Q 3669 778 3244 343 
Q 2819 -91 2113 -91 
Q 1303 -91 875 529 
Q 447 1150 447 2328 
Q 447 3434 972 4092 
Q 1497 4750 2381 4750 
Q 2619 4750 2861 4703 
Q 3103 4656 3366 4563 
z
" transform="scale(0.015625)"/>
        <path id="DejaVuSans-37" d="M 525 4666 
L 3525 4666 
L 3525 4397 
L 1831 0 
L 1172 0 
L 2766 4134 
L 525 4134 
L 525 4666 
z
" transform="scale(0.015625)"/>
       </defs>
       <use xlink:href="#DejaVuSans-36"/>
       <use xlink:href="#DejaVuSans-37" x="63.623047"/>
      </g>
     </g>
    </g>
    <g id="xtick_4">
     <g id="line2d_4">
      <g>
       <use xlink:href="#med8ec84b33" x="181.327042" y="307.584" style="stroke: #000000; stroke-width: 0.8"/>
      </g>
     </g>
     <g id="text_4">
      <!-- 100 -->
      <g transform="translate(171.783292 322.182437) scale(0.1 -0.1)">
       <defs>
        <path id="DejaVuSans-30" d="M 2034 4250 
Q 1547 4250 1301 3770 
Q 1056 3291 1056 2328 
Q 1056 1369 1301 889 
Q 1547 409 2034 409 
Q 2525 409 2770 889 
Q 3016 1369 3016 2328 
Q 3016 3291 2770 3770 
Q 2525 4250 2034 4250 
z
M 2034 4750 
Q 2819 4750 3233 4129 
Q 3647 3509 3647 2328 
Q 3647 1150 3233 529 
Q 2819 -91 2034 -91 
Q 1250 -91 836 529 
Q 422 1150 422 2328 
Q 422 3509 836 4129 
Q 1250 4750 2034 4750 
z
" transform="scale(0.015625)"/>
       </defs>
       <use xlink:href="#DejaVuSans-31"/>
       <use xlink:href="#DejaVuSans-30" x="63.623047"/>
       <use xlink:href="#DejaVuSans-30" x="127.246094"/>
      </g>
     </g>
    </g>
    <g id="xtick_5">
     <g id="line2d_5">
      <g>
       <use xlink:href="#med8ec84b33" x="217.15848" y="307.584" style="stroke: #000000; stroke-width: 0.8"/>
      </g>
     </g>
     <g id="text_5">
      <!-- 133 -->
      <g transform="translate(207.61473 322.182437) scale(0.1 -0.1)">
       <use xlink:href="#DejaVuSans-31"/>
       <use xlink:href="#DejaVuSans-33" x="63.623047"/>
       <use xlink:href="#DejaVuSans-33" x="127.246094"/>
      </g>
     </g>
    </g>
    <g id="xtick_6">
     <g id="line2d_6">
      <g>
       <use xlink:href="#med8ec84b33" x="254.075719" y="307.584" style="stroke: #000000; stroke-width: 0.8"/>
      </g>
     </g>
     <g id="text_6">
      <!-- 167 -->
      <g transform="translate(244.531969 322.182437) scale(0.1 -0.1)">
       <use xlink:href="#DejaVuSans-31"/>
       <use xlink:href="#DejaVuSans-36" x="63.623047"/>
       <use xlink:href="#DejaVuSans-37" x="127.246094"/>
      </g>
     </g>
    </g>
    <g id="xtick_7">
     <g id="line2d_7">
      <g>
       <use xlink:href="#med8ec84b33" x="289.907157" y="307.584" style="stroke: #000000; stroke-width: 0.8"/>
      </g>
     </g>
     <g id="text_7">
      <!-- 200 -->
      <g transform="translate(280.363407 322.182437) scale(0.1 -0.1)">
       <defs>
        <path id="DejaVuSans-32" d="M 1228 531 
L 3431 531 
L 3431 0 
L 469 0 
L 469 531 
Q 828 903 1448 1529 
Q 2069 2156 2228 2338 
Q 2531 2678 2651 2914 
Q 2772 3150 2772 3378 
Q 2772 3750 2511 3984 
Q 2250 4219 1831 4219 
Q 1534 4219 1204 4116 
Q 875 4013 500 3803 
L 500 4441 
Q 881 4594 1212 4672 
Q 1544 4750 1819 4750 
Q 2544 4750 2975 4387 
Q 3406 4025 3406 3419 
Q 3406 3131 3298 2873 
Q 3191 2616 2906 2266 
Q 2828 2175 2409 1742 
Q 1991 1309 1228 531 
z
" transform="scale(0.015625)"/>
       </defs>
       <use xlink:href="#DejaVuSans-32"/>
       <use xlink:href="#DejaVuSans-30" x="63.623047"/>
       <use xlink:href="#DejaVuSans-30" x="127.246094"/>
      </g>
     </g>
    </g>
    <g id="xtick_8">
     <g id="line2d_8">
      <g>
       <use xlink:href="#med8ec84b33" x="325.738595" y="307.584" style="stroke: #000000; stroke-width: 0.8"/>
      </g>
     </g>
     <g id="text_8">
      <!-- 233 -->
      <g transform="translate(316.194845 322.182437) scale(0.1 -0.1)">
       <use xlink:href="#DejaVuSans-32"/>
       <use xlink:href="#DejaVuSans-33" x="63.623047"/>
       <use xlink:href="#DejaVuSans-33" x="127.246094"/>
      </g>
     </g>
    </g>
    <g id="xtick_9">
     <g id="line2d_9">
      <g>
       <use xlink:href="#med8ec84b33" x="361.570033" y="307.584" style="stroke: #000000; stroke-width: 0.8"/>
      </g>
     </g>
     <g id="text_9">
      <!-- 266 -->
      <g transform="translate(352.026283 322.182437) scale(0.1 -0.1)">
       <use xlink:href="#DejaVuSans-32"/>
       <use xlink:href="#DejaVuSans-36" x="63.623047"/>
       <use xlink:href="#DejaVuSans-36" x="127.246094"/>
      </g>
     </g>
    </g>
    <g id="xtick_10">
     <g id="line2d_10">
      <g>
       <use xlink:href="#med8ec84b33" x="398.487273" y="307.584" style="stroke: #000000; stroke-width: 0.8"/>
      </g>
     </g>
     <g id="text_10">
      <!-- 300 -->
      <g transform="translate(388.943523 322.182437) scale(0.1 -0.1)">
       <use xlink:href="#DejaVuSans-33"/>
       <use xlink:href="#DejaVuSans-30" x="63.623047"/>
       <use xlink:href="#DejaVuSans-30" x="127.246094"/>
      </g>
     </g>
    </g>
    <g id="text_11">
     <!-- Epochs -->
     <g transform="translate(218.244375 335.860562) scale(0.1 -0.1)">
      <defs>
       <path id="DejaVuSans-45" d="M 628 4666 
L 3578 4666 
L 3578 4134 
L 1259 4134 
L 1259 2753 
L 3481 2753 
L 3481 2222 
L 1259 2222 
L 1259 531 
L 3634 531 
L 3634 0 
L 628 0 
L 628 4666 
z
" transform="scale(0.015625)"/>
       <path id="DejaVuSans-70" d="M 1159 525 
L 1159 -1331 
L 581 -1331 
L 581 3500 
L 1159 3500 
L 1159 2969 
Q 1341 3281 1617 3432 
Q 1894 3584 2278 3584 
Q 2916 3584 3314 3078 
Q 3713 2572 3713 1747 
Q 3713 922 3314 415 
Q 2916 -91 2278 -91 
Q 1894 -91 1617 61 
Q 1341 213 1159 525 
z
M 3116 1747 
Q 3116 2381 2855 2742 
Q 2594 3103 2138 3103 
Q 1681 3103 1420 2742 
Q 1159 2381 1159 1747 
Q 1159 1113 1420 752 
Q 1681 391 2138 391 
Q 2594 391 2855 752 
Q 3116 1113 3116 1747 
z
" transform="scale(0.015625)"/>
       <path id="DejaVuSans-6f" d="M 1959 3097 
Q 1497 3097 1228 2736 
Q 959 2375 959 1747 
Q 959 1119 1226 758 
Q 1494 397 1959 397 
Q 2419 397 2687 759 
Q 2956 1122 2956 1747 
Q 2956 2369 2687 2733 
Q 2419 3097 1959 3097 
z
M 1959 3584 
Q 2709 3584 3137 3096 
Q 3566 2609 3566 1747 
Q 3566 888 3137 398 
Q 2709 -91 1959 -91 
Q 1206 -91 779 398 
Q 353 888 353 1747 
Q 353 2609 779 3096 
Q 1206 3584 1959 3584 
z
" transform="scale(0.015625)"/>
       <path id="DejaVuSans-63" d="M 3122 3366 
L 3122 2828 
Q 2878 2963 2633 3030 
Q 2388 3097 2138 3097 
Q 1578 3097 1268 2742 
Q 959 2388 959 1747 
Q 959 1106 1268 751 
Q 1578 397 2138 397 
Q 2388 397 2633 464 
Q 2878 531 3122 666 
L 3122 134 
Q 2881 22 2623 -34 
Q 2366 -91 2075 -91 
Q 1284 -91 818 406 
Q 353 903 353 1747 
Q 353 2603 823 3093 
Q 1294 3584 2113 3584 
Q 2378 3584 2631 3529 
Q 2884 3475 3122 3366 
z
" transform="scale(0.015625)"/>
       <path id="DejaVuSans-68" d="M 3513 2113 
L 3513 0 
L 2938 0 
L 2938 2094 
Q 2938 2591 2744 2837 
Q 2550 3084 2163 3084 
Q 1697 3084 1428 2787 
Q 1159 2491 1159 1978 
L 1159 0 
L 581 0 
L 581 4863 
L 1159 4863 
L 1159 2956 
Q 1366 3272 1645 3428 
Q 1925 3584 2291 3584 
Q 2894 3584 3203 3211 
Q 3513 2838 3513 2113 
z
" transform="scale(0.015625)"/>
       <path id="DejaVuSans-73" d="M 2834 3397 
L 2834 2853 
Q 2591 2978 2328 3040 
Q 2066 3103 1784 3103 
Q 1356 3103 1142 2972 
Q 928 2841 928 2578 
Q 928 2378 1081 2264 
Q 1234 2150 1697 2047 
L 1894 2003 
Q 2506 1872 2764 1633 
Q 3022 1394 3022 966 
Q 3022 478 2636 193 
Q 2250 -91 1575 -91 
Q 1294 -91 989 -36 
Q 684 19 347 128 
L 347 722 
Q 666 556 975 473 
Q 1284 391 1588 391 
Q 1994 391 2212 530 
Q 2431 669 2431 922 
Q 2431 1156 2273 1281 
Q 2116 1406 1581 1522 
L 1381 1569 
Q 847 1681 609 1914 
Q 372 2147 372 2553 
Q 372 3047 722 3315 
Q 1072 3584 1716 3584 
Q 2034 3584 2315 3537 
Q 2597 3491 2834 3397 
z
" transform="scale(0.015625)"/>
      </defs>
      <use xlink:href="#DejaVuSans-45"/>
      <use xlink:href="#DejaVuSans-70" x="63.183594"/>
      <use xlink:href="#DejaVuSans-6f" x="126.660156"/>
      <use xlink:href="#DejaVuSans-63" x="187.841797"/>
      <use xlink:href="#DejaVuSans-68" x="242.822266"/>
      <use xlink:href="#DejaVuSans-73" x="306.201172"/>
     </g>
    </g>
   </g>
   <g id="matplotlib.axis_2">
    <g id="ytick_1">
     <g id="line2d_11">
      <defs>
       <path id="mb7f7222137" d="M 0 0 
L -3.5 0 
" style="stroke: #000000; stroke-width: 0.8"/>
      </defs>
      <g>
       <use xlink:href="#mb7f7222137" x="57.6" y="271.553151" style="stroke: #000000; stroke-width: 0.8"/>
      </g>
     </g>
     <g id="text_12">
      <!-- 40 -->
      <g transform="translate(37.875 275.35237) scale(0.1 -0.1)">
       <use xlink:href="#DejaVuSans-34"/>
       <use xlink:href="#DejaVuSans-30" x="63.623047"/>
      </g>
     </g>
    </g>
    <g id="ytick_2">
     <g id="line2d_12">
      <g>
       <use xlink:href="#mb7f7222137" x="57.6" y="231.991418" style="stroke: #000000; stroke-width: 0.8"/>
      </g>
     </g>
     <g id="text_13">
      <!-- 50 -->
      <g transform="translate(37.875 235.790637) scale(0.1 -0.1)">
       <defs>
        <path id="DejaVuSans-35" d="M 691 4666 
L 3169 4666 
L 3169 4134 
L 1269 4134 
L 1269 2991 
Q 1406 3038 1543 3061 
Q 1681 3084 1819 3084 
Q 2600 3084 3056 2656 
Q 3513 2228 3513 1497 
Q 3513 744 3044 326 
Q 2575 -91 1722 -91 
Q 1428 -91 1123 -41 
Q 819 9 494 109 
L 494 744 
Q 775 591 1075 516 
Q 1375 441 1709 441 
Q 2250 441 2565 725 
Q 2881 1009 2881 1497 
Q 2881 1984 2565 2268 
Q 2250 2553 1709 2553 
Q 1456 2553 1204 2497 
Q 953 2441 691 2322 
L 691 4666 
z
" transform="scale(0.015625)"/>
       </defs>
       <use xlink:href="#DejaVuSans-35"/>
       <use xlink:href="#DejaVuSans-30" x="63.623047"/>
      </g>
     </g>
    </g>
    <g id="ytick_3">
     <g id="line2d_13">
      <g>
       <use xlink:href="#mb7f7222137" x="57.6" y="192.429684" style="stroke: #000000; stroke-width: 0.8"/>
      </g>
     </g>
     <g id="text_14">
      <!-- 60 -->
      <g transform="translate(37.875 196.228903) scale(0.1 -0.1)">
       <use xlink:href="#DejaVuSans-36"/>
       <use xlink:href="#DejaVuSans-30" x="63.623047"/>
      </g>
     </g>
    </g>
    <g id="ytick_4">
     <g id="line2d_14">
      <g>
       <use xlink:href="#mb7f7222137" x="57.6" y="152.867951" style="stroke: #000000; stroke-width: 0.8"/>
      </g>
     </g>
     <g id="text_15">
      <!-- 70 -->
      <g transform="translate(37.875 156.66717) scale(0.1 -0.1)">
       <use xlink:href="#DejaVuSans-37"/>
       <use xlink:href="#DejaVuSans-30" x="63.623047"/>
      </g>
     </g>
    </g>
    <g id="ytick_5">
     <g id="line2d_15">
      <g>
       <use xlink:href="#mb7f7222137" x="57.6" y="113.306217" style="stroke: #000000; stroke-width: 0.8"/>
      </g>
     </g>
     <g id="text_16">
      <!-- 80 -->
      <g transform="translate(37.875 117.105436) scale(0.1 -0.1)">
       <defs>
        <path id="DejaVuSans-38" d="M 2034 2216 
Q 1584 2216 1326 1975 
Q 1069 1734 1069 1313 
Q 1069 891 1326 650 
Q 1584 409 2034 409 
Q 2484 409 2743 651 
Q 3003 894 3003 1313 
Q 3003 1734 2745 1975 
Q 2488 2216 2034 2216 
z
M 1403 2484 
Q 997 2584 770 2862 
Q 544 3141 544 3541 
Q 544 4100 942 4425 
Q 1341 4750 2034 4750 
Q 2731 4750 3128 4425 
Q 3525 4100 3525 3541 
Q 3525 3141 3298 2862 
Q 3072 2584 2669 2484 
Q 3125 2378 3379 2068 
Q 3634 1759 3634 1313 
Q 3634 634 3220 271 
Q 2806 -91 2034 -91 
Q 1263 -91 848 271 
Q 434 634 434 1313 
Q 434 1759 690 2068 
Q 947 2378 1403 2484 
z
M 1172 3481 
Q 1172 3119 1398 2916 
Q 1625 2713 2034 2713 
Q 2441 2713 2670 2916 
Q 2900 3119 2900 3481 
Q 2900 3844 2670 4047 
Q 2441 4250 2034 4250 
Q 1625 4250 1398 4047 
Q 1172 3844 1172 3481 
z
" transform="scale(0.015625)"/>
       </defs>
       <use xlink:href="#DejaVuSans-38"/>
       <use xlink:href="#DejaVuSans-30" x="63.623047"/>
      </g>
     </g>
    </g>
    <g id="ytick_6">
     <g id="line2d_16">
      <g>
       <use xlink:href="#mb7f7222137" x="57.6" y="73.744484" style="stroke: #000000; stroke-width: 0.8"/>
      </g>
     </g>
     <g id="text_17">
      <!-- 90 -->
      <g transform="translate(37.875 77.543703) scale(0.1 -0.1)">
       <defs>
        <path id="DejaVuSans-39" d="M 703 97 
L 703 672 
Q 941 559 1184 500 
Q 1428 441 1663 441 
Q 2288 441 2617 861 
Q 2947 1281 2994 2138 
Q 2813 1869 2534 1725 
Q 2256 1581 1919 1581 
Q 1219 1581 811 2004 
Q 403 2428 403 3163 
Q 403 3881 828 4315 
Q 1253 4750 1959 4750 
Q 2769 4750 3195 4129 
Q 3622 3509 3622 2328 
Q 3622 1225 3098 567 
Q 2575 -91 1691 -91 
Q 1453 -91 1209 -44 
Q 966 3 703 97 
z
M 1959 2075 
Q 2384 2075 2632 2365 
Q 2881 2656 2881 3163 
Q 2881 3666 2632 3958 
Q 2384 4250 1959 4250 
Q 1534 4250 1286 3958 
Q 1038 3666 1038 3163 
Q 1038 2656 1286 2365 
Q 1534 2075 1959 2075 
z
" transform="scale(0.015625)"/>
       </defs>
       <use xlink:href="#DejaVuSans-39"/>
       <use xlink:href="#DejaVuSans-30" x="63.623047"/>
      </g>
     </g>
    </g>
    <g id="text_18">
     <!-- Accuracy -->
     <g transform="translate(31.795312 197.356125) rotate(-90) scale(0.1 -0.1)">
      <defs>
       <path id="DejaVuSans-41" d="M 2188 4044 
L 1331 1722 
L 3047 1722 
L 2188 4044 
z
M 1831 4666 
L 2547 4666 
L 4325 0 
L 3669 0 
L 3244 1197 
L 1141 1197 
L 716 0 
L 50 0 
L 1831 4666 
z
" transform="scale(0.015625)"/>
       <path id="DejaVuSans-75" d="M 544 1381 
L 544 3500 
L 1119 3500 
L 1119 1403 
Q 1119 906 1312 657 
Q 1506 409 1894 409 
Q 2359 409 2629 706 
Q 2900 1003 2900 1516 
L 2900 3500 
L 3475 3500 
L 3475 0 
L 2900 0 
L 2900 538 
Q 2691 219 2414 64 
Q 2138 -91 1772 -91 
Q 1169 -91 856 284 
Q 544 659 544 1381 
z
M 1991 3584 
L 1991 3584 
z
" transform="scale(0.015625)"/>
       <path id="DejaVuSans-72" d="M 2631 2963 
Q 2534 3019 2420 3045 
Q 2306 3072 2169 3072 
Q 1681 3072 1420 2755 
Q 1159 2438 1159 1844 
L 1159 0 
L 581 0 
L 581 3500 
L 1159 3500 
L 1159 2956 
Q 1341 3275 1631 3429 
Q 1922 3584 2338 3584 
Q 2397 3584 2469 3576 
Q 2541 3569 2628 3553 
L 2631 2963 
z
" transform="scale(0.015625)"/>
       <path id="DejaVuSans-61" d="M 2194 1759 
Q 1497 1759 1228 1600 
Q 959 1441 959 1056 
Q 959 750 1161 570 
Q 1363 391 1709 391 
Q 2188 391 2477 730 
Q 2766 1069 2766 1631 
L 2766 1759 
L 2194 1759 
z
M 3341 1997 
L 3341 0 
L 2766 0 
L 2766 531 
Q 2569 213 2275 61 
Q 1981 -91 1556 -91 
Q 1019 -91 701 211 
Q 384 513 384 1019 
Q 384 1609 779 1909 
Q 1175 2209 1959 2209 
L 2766 2209 
L 2766 2266 
Q 2766 2663 2505 2880 
Q 2244 3097 1772 3097 
Q 1472 3097 1187 3025 
Q 903 2953 641 2809 
L 641 3341 
Q 956 3463 1253 3523 
Q 1550 3584 1831 3584 
Q 2591 3584 2966 3190 
Q 3341 2797 3341 1997 
z
" transform="scale(0.015625)"/>
       <path id="DejaVuSans-79" d="M 2059 -325 
Q 1816 -950 1584 -1140 
Q 1353 -1331 966 -1331 
L 506 -1331 
L 506 -850 
L 844 -850 
Q 1081 -850 1212 -737 
Q 1344 -625 1503 -206 
L 1606 56 
L 191 3500 
L 800 3500 
L 1894 763 
L 2988 3500 
L 3597 3500 
L 2059 -325 
z
" transform="scale(0.015625)"/>
      </defs>
      <use xlink:href="#DejaVuSans-41"/>
      <use xlink:href="#DejaVuSans-63" x="66.658203"/>
      <use xlink:href="#DejaVuSans-63" x="121.638672"/>
      <use xlink:href="#DejaVuSans-75" x="176.619141"/>
      <use xlink:href="#DejaVuSans-72" x="239.998047"/>
      <use xlink:href="#DejaVuSans-61" x="281.111328"/>
      <use xlink:href="#DejaVuSans-63" x="342.390625"/>
      <use xlink:href="#DejaVuSans-79" x="397.371094"/>
     </g>
    </g>
   </g>
   <g id="line2d_17">
    <path d="M 73.832727 295.488 
L 74.918528 218.754062 
L 76.00433 183.971386 
L 77.090131 164.499101 
L 78.175932 151.641537 
L 79.261733 141.656156 
L 80.347534 134.669554 
L 81.433335 129.985444 
L 82.519137 123.006755 
L 83.604938 119.818079 
L 84.690739 115.094408 
L 85.77654 111.098673 
L 86.862341 106.129719 
L 87.948142 103.581943 
L 89.033943 101.54847 
L 91.205546 95.305629 
L 92.291347 94.09504 
L 93.377148 92.314762 
L 94.462949 91.183296 
L 95.54875 116.724351 
L 96.634552 116.819299 
L 97.720353 116.028065 
L 98.806154 113.836345 
L 99.891955 110.220402 
L 100.977756 108.922777 
L 102.063557 107.142499 
L 103.149358 104.428565 
L 104.23516 104.420652 
L 105.320961 102.070685 
L 106.406762 100.883833 
L 107.492563 99.918527 
L 108.578364 98.328145 
L 109.664165 97.616034 
L 110.749967 95.598386 
L 111.835768 95.503437 
L 112.921569 92.844889 
L 114.00737 92.654993 
L 115.093171 90.945926 
L 116.178972 90.930101 
L 117.264773 89.149823 
L 118.350575 87.939234 
L 119.436376 85.731689 
L 120.522177 86.325115 
L 121.607978 83.935587 
L 122.693779 84.774295 
L 123.77958 81.205827 
L 124.865382 80.723174 
L 125.951183 79.528409 
L 127.036984 79.995238 
L 128.122785 78.151661 
L 129.208586 78.096275 
L 130.294387 76.046977 
L 131.380189 76.149837 
L 132.46599 75.081671 
L 133.551791 76.1261 
L 134.637592 74.424946 
L 135.723393 74.820563 
L 136.809194 73.594149 
L 137.894995 73.182707 
L 138.980797 95.099908 
L 140.066598 96.25511 
L 141.152399 97.758456 
L 142.2382 96.674465 
L 143.324001 96.128513 
L 144.409802 94.245374 
L 145.495604 93.683598 
L 146.581405 93.944705 
L 147.667206 92.623343 
L 148.753007 92.504658 
L 149.838808 91.578913 
L 150.924609 91.436491 
L 152.01041 90.930101 
L 153.096212 91.325718 
L 154.182013 89.355544 
L 155.267814 88.627608 
L 156.353615 90.138866 
L 157.439416 90.004357 
L 158.525217 87.551529 
L 159.611019 87.670214 
L 160.69682 86.871067 
L 162.868422 87.108438 
L 163.954223 85.486407 
L 165.040024 86.024446 
L 166.125825 84.085921 
L 167.211627 84.948367 
L 168.297428 84.79012 
L 169.383229 83.120615 
L 171.554831 84.354941 
L 173.726434 82.46389 
L 174.812235 82.004974 
L 175.898036 82.297731 
L 176.983837 80.920983 
L 178.069638 80.984281 
L 179.155439 80.058537 
L 180.24124 80.557015 
L 181.327042 79.726218 
L 182.412843 78.753 
L 183.498644 78.847948 
L 184.584445 77.510761 
L 185.670246 77.423725 
L 186.756047 76.877773 
L 187.841849 76.118188 
L 188.92765 75.659272 
L 190.013451 76.086539 
L 191.099252 74.725615 
L 192.185053 74.638579 
L 193.270854 74.219225 
L 194.356656 73.111496 
L 195.442457 73.079847 
L 197.614059 72.209489 
L 198.69986 70.508334 
L 199.785661 70.001944 
L 200.871462 69.851609 
L 201.957264 70.215577 
L 203.043065 69.543028 
L 204.128866 69.645888 
L 205.214667 69.432255 
L 206.300468 68.340351 
L 207.386269 67.659889 
L 208.472071 67.707364 
L 209.557872 67.430431 
L 210.643673 67.533292 
L 211.729474 66.298966 
L 212.815275 66.330615 
L 213.901076 65.531468 
L 214.986877 65.420695 
L 216.072679 65.927086 
L 217.15848 65.341572 
L 218.244281 65.824225 
L 219.330082 65.452345 
L 220.415883 64.273405 
L 221.501684 65.373221 
L 222.587486 64.502863 
L 223.673287 65.618504 
L 224.759088 64.629461 
L 225.844889 88.461449 
L 226.93069 88.461449 
L 228.016491 90.170516 
L 229.102292 88.651345 
L 232.359696 86.396326 
L 233.445497 86.98184 
L 234.531298 86.602047 
L 235.617099 85.826637 
L 237.788702 85.336072 
L 238.874503 84.916718 
L 239.960304 86.364677 
L 241.046105 84.228343 
L 242.131906 84.623961 
L 243.217708 84.639785 
L 244.303509 84.267905 
L 245.38931 84.695172 
L 247.560912 82.994017 
L 248.646713 84.038447 
L 249.732514 83.199738 
L 251.904117 82.400591 
L 252.989918 82.46389 
L 255.16152 81.538146 
L 256.247321 82.234432 
L 257.333123 81.854639 
L 258.418924 81.9575 
L 260.590526 81.039668 
L 261.676327 80.557015 
L 262.762128 81.150441 
L 263.847929 80.826034 
L 264.933731 79.971501 
L 266.019532 80.731086 
L 267.105333 81.087142 
L 269.276935 80.0348 
L 270.362736 79.251477 
L 272.534339 79.346426 
L 273.62014 79.86864 
L 274.705941 78.602665 
L 275.791742 78.056713 
L 276.877543 79.536322 
L 277.963344 78.262434 
L 279.049146 78.689701 
L 280.134947 78.21496 
L 281.220748 77.906378 
L 282.306549 78.301996 
L 283.39235 77.771869 
L 284.478151 78.222872 
L 285.563953 77.732307 
L 286.649754 78.072538 
L 287.735555 78.048801 
L 288.821356 77.613622 
L 289.907157 76.656228 
L 290.992958 75.469376 
L 292.07876 77.30504 
L 293.164561 76.189399 
L 294.250362 75.429814 
L 295.336163 75.920379 
L 297.507765 75.912467 
L 298.593566 75.413989 
L 299.679368 75.777957 
L 300.765169 74.686053 
L 301.85097 74.907599 
L 302.936771 74.195488 
L 304.022572 74.796826 
L 305.108373 75.793782 
L 306.194175 74.33791 
L 307.279976 74.290436 
L 308.365777 74.013504 
L 309.451578 74.108452 
L 310.537379 73.269743 
L 311.62318 72.668405 
L 312.708981 72.668405 
L 313.794783 72.082891 
L 314.880584 72.14619 
L 315.966385 72.533895 
L 317.052186 72.343999 
L 318.137987 71.74266 
L 319.223788 71.932557 
L 320.30959 71.481553 
L 321.395391 70.698231 
L 322.481192 71.465728 
L 323.566993 70.919776 
L 324.652794 70.611195 
L 325.738595 70.650757 
L 327.910198 69.55094 
L 328.995999 70.152279 
L 330.0818 69.922821 
L 331.167601 68.308702 
L 332.253402 68.704319 
L 333.339203 68.506511 
L 334.425005 67.62824 
L 335.510806 68.023857 
L 336.596607 67.145587 
L 337.682408 67.659889 
L 338.768209 67.770662 
L 339.85401 68.213754 
L 340.939811 66.623372 
L 342.025613 67.161412 
L 343.111414 66.528424 
L 344.197215 66.567986 
L 345.283016 66.781619 
L 346.368817 66.069508 
L 347.454618 66.022034 
L 348.54042 65.737189 
L 349.626221 65.025078 
L 350.712022 64.748146 
L 351.797823 64.858919 
L 352.883624 64.281317 
L 353.969425 64.186369 
L 355.055227 64.25758 
L 356.141028 64.115158 
L 357.226829 64.574074 
L 358.31263 63.806577 
L 359.398431 63.854051 
L 361.570033 62.714673 
L 362.655835 63.173589 
L 363.741636 61.741454 
L 364.827437 62.390267 
L 365.913238 62.137071 
L 366.999039 61.606944 
L 368.08484 61.330012 
L 369.170642 63.569206 
L 370.256443 63.727453 
L 371.342244 64.083509 
L 372.428045 64.866831 
L 373.513846 64.629461 
L 374.599647 64.708584 
L 375.685448 65.555205 
L 376.77125 64.771883 
L 377.857051 65.563118 
L 378.942852 65.048815 
L 380.028653 65.389046 
L 381.114454 64.669022 
L 382.200255 64.843094 
L 383.286057 66.34644 
L 384.371858 64.629461 
L 385.457659 65.507731 
L 386.54346 65.444432 
L 387.629261 64.463301 
L 388.715062 65.745102 
L 390.886665 66.148631 
L 391.972466 64.629461 
L 393.058267 65.491906 
L 395.229869 64.724409 
L 396.31567 64.906393 
L 397.401472 64.55825 
L 398.487273 64.447477 
L 398.487273 64.447477 
" clip-path="url(#pdc51f41394)" style="fill: none; stroke: #1f77b4; stroke-width: 1.5; stroke-linecap: square"/>
   </g>
   <g id="line2d_18">
    <path d="M 73.832727 223.762577 
L 74.918528 180.24467 
L 76.00433 150.533809 
L 77.090131 149.386518 
L 78.175932 132.335411 
L 79.261733 129.32872 
L 80.347534 111.249007 
L 81.433335 120.308644 
L 82.519137 107.846698 
L 83.604938 104.642198 
L 84.690739 94.277024 
L 85.77654 92.734116 
L 86.862341 90.756029 
L 87.948142 82.804121 
L 89.033943 85.336072 
L 90.119745 80.469979 
L 91.205546 79.718306 
L 92.291347 76.39512 
L 93.377148 76.869861 
L 94.462949 76.948984 
L 95.54875 104.286142 
L 96.634552 100.369531 
L 97.720353 102.782796 
L 98.806154 93.841845 
L 99.891955 95.463876 
L 100.977756 93.723159 
L 102.063557 91.547264 
L 103.149358 86.048183 
L 104.23516 89.450492 
L 105.320961 87.472406 
L 106.406762 80.193047 
L 107.492563 77.54241 
L 109.664165 82.764559 
L 110.749967 78.135836 
L 111.835768 75.722571 
L 112.921569 78.927071 
L 114.00737 74.258787 
L 115.093171 75.524762 
L 116.178972 74.654404 
L 117.264773 72.597194 
L 118.350575 72.992811 
L 119.436376 70.539984 
L 120.522177 71.014724 
L 121.607978 70.46086 
L 122.693779 70.183928 
L 123.77958 70.065243 
L 124.865382 68.284965 
L 125.951183 68.047594 
L 127.036984 67.651977 
L 128.122785 66.781619 
L 129.208586 64.922217 
L 130.294387 64.803532 
L 131.380189 65.080464 
L 133.551791 63.181501 
L 134.637592 63.656242 
L 135.723393 63.774927 
L 136.809194 63.339748 
L 137.894995 63.260625 
L 138.980797 82.645874 
L 140.066598 83.714041 
L 141.152399 78.887509 
L 142.2382 80.984281 
L 143.324001 76.988546 
L 144.409802 78.254522 
L 145.495604 76.948984 
L 146.581405 78.610577 
L 147.667206 79.995238 
L 148.753007 75.999503 
L 149.838808 75.445639 
L 150.924609 76.474244 
L 152.01041 75.366515 
L 154.182013 75.524762 
L 155.267814 76.830299 
L 156.353615 72.320262 
L 157.439416 76.672052 
L 158.525217 71.647712 
L 159.611019 76.039065 
L 161.782621 72.399385 
L 162.868422 73.309305 
L 163.954223 71.093848 
L 165.040024 71.331218 
L 166.125825 75.129145 
L 167.211627 72.359823 
L 168.297428 70.302613 
L 170.46903 71.37078 
L 171.554831 68.047594 
L 172.640632 67.731101 
L 173.726434 69.748749 
L 174.812235 66.662934 
L 175.898036 72.399385 
L 176.983837 70.183928 
L 178.069638 67.216798 
L 179.155439 67.454168 
L 180.24124 66.029946 
L 181.327042 64.091421 
L 182.412843 66.227755 
L 183.498644 65.159588 
L 184.584445 66.742057 
L 185.670246 65.001341 
L 186.756047 65.792576 
L 187.841849 64.684847 
L 188.92765 64.5266 
L 190.013451 63.300186 
L 191.099252 63.537557 
L 192.185053 63.300186 
L 193.270854 61.242976 
L 194.356656 60.768235 
L 195.442457 61.796841 
L 196.528258 60.847359 
L 197.614059 61.717717 
L 198.69986 61.045168 
L 199.785661 59.185766 
L 200.871462 58.869272 
L 201.957264 58.315408 
L 203.043065 59.304451 
L 204.128866 59.027519 
L 205.214667 58.35497 
L 206.300468 58.671464 
L 207.386269 57.365926 
L 208.472071 58.157161 
L 209.557872 57.049433 
L 210.643673 57.761544 
L 211.729474 57.840667 
L 213.901076 56.930747 
L 214.986877 57.128556 
L 216.072679 55.506525 
L 217.15848 56.139513 
L 218.244281 56.060389 
L 220.415883 56.218636 
L 222.587486 55.466963 
L 223.673287 56.020827 
L 224.759088 56.099951 
L 225.844889 75.445639 
L 226.93069 76.355558 
L 228.016491 76.276435 
L 229.102292 71.331218 
L 230.188094 72.557632 
L 231.273895 73.586237 
L 232.359696 73.863169 
L 233.445497 73.981854 
L 234.531298 72.597194 
L 235.617099 75.445639 
L 236.702901 72.755441 
L 237.788702 68.997076 
L 238.874503 70.104805 
L 239.960304 69.55094 
L 241.046105 69.234446 
L 242.131906 68.364088 
L 243.217708 70.619107 
L 244.303509 75.959941 
L 245.38931 68.245403 
L 246.475111 67.928909 
L 247.560912 68.720144 
L 248.646713 68.126718 
L 249.732514 68.324527 
L 250.818316 69.986119 
L 251.904117 68.838829 
L 252.989918 69.115761 
L 254.075719 68.799267 
L 255.16152 68.878391 
L 256.247321 72.636756 
L 257.333123 68.917953 
L 258.418924 70.777354 
L 259.504725 66.34644 
L 260.590526 70.183928 
L 261.676327 67.454168 
L 262.762128 67.968471 
L 263.847929 72.04333 
L 264.933731 73.546675 
L 266.019532 66.425563 
L 267.105333 71.568589 
L 268.191134 69.669626 
L 269.276935 72.597194 
L 270.362736 67.849786 
L 271.448538 69.986119 
L 272.534339 66.465125 
L 273.62014 66.069508 
L 274.705941 67.651977 
L 275.791742 68.443212 
L 276.877543 66.306878 
L 277.963344 66.227755 
L 279.049146 67.216798 
L 280.134947 65.278273 
L 281.220748 68.087156 
L 282.306549 64.487038 
L 283.39235 65.555205 
L 284.478151 66.425563 
L 285.563953 63.893612 
L 286.649754 65.634329 
L 287.735555 64.28923 
L 288.821356 66.227755 
L 289.907157 64.012298 
L 290.992958 64.328791 
L 292.07876 65.515643 
L 293.164561 63.695804 
L 294.250362 65.634329 
L 295.336163 66.029946 
L 296.421964 65.238711 
L 297.507765 66.979428 
L 298.593566 62.904569 
L 299.679368 66.939866 
L 300.765169 62.073773 
L 301.85097 64.091421 
L 302.936771 62.785884 
L 304.022572 63.933174 
L 305.108373 63.418872 
L 306.194175 65.317835 
L 307.279976 64.012298 
L 308.365777 66.029946 
L 309.451578 62.944131 
L 310.537379 61.55947 
L 311.62318 60.689112 
L 312.708981 63.181501 
L 313.794783 62.271581 
L 314.880584 64.130983 
L 315.966385 61.005606 
L 317.052186 60.41218 
L 318.137987 61.678155 
L 319.223788 61.005606 
L 320.30959 60.491303 
L 321.395391 59.027519 
L 322.481192 61.796841 
L 323.566993 59.779192 
L 325.738595 60.530865 
L 326.824396 60.056124 
L 330.0818 60.214371 
L 331.167601 58.869272 
L 332.253402 58.473655 
L 333.339203 59.027519 
L 334.425005 59.106643 
L 335.510806 58.473655 
L 336.596607 58.196723 
L 337.682408 58.552778 
L 338.768209 56.653815 
L 339.85401 60.333056 
L 340.939811 57.68242 
L 342.025613 57.168118 
L 343.111414 58.117599 
L 344.197215 58.711025 
L 345.283016 57.326365 
L 346.368817 56.456007 
L 347.454618 57.009871 
L 348.54042 56.732939 
L 349.626221 55.664772 
L 350.712022 57.247241 
L 351.797823 55.506525 
L 352.883624 55.308716 
L 353.969425 55.862581 
L 355.055227 54.992222 
L 356.141028 57.365926 
L 357.226829 55.981266 
L 358.31263 55.38784 
L 359.398431 55.585648 
L 360.484232 55.902142 
L 361.570033 55.743895 
L 362.655835 54.952661 
L 363.741636 55.110908 
L 365.913238 54.952661 
L 366.999039 55.348278 
L 368.08484 56.139513 
L 369.170642 55.269155 
L 370.256443 55.902142 
L 371.342244 54.913099 
L 372.428045 56.376883 
L 373.513846 56.7725 
L 374.599647 56.574692 
L 375.685448 56.614253 
L 376.77125 57.168118 
L 377.857051 57.998914 
L 378.942852 58.434093 
L 380.028653 56.653815 
L 381.114454 57.524173 
L 382.200255 56.614253 
L 383.286057 57.484612 
L 384.371858 56.7725 
L 386.54346 58.236285 
L 387.629261 58.315408 
L 388.715062 57.721982 
L 389.800863 58.157161 
L 390.886665 56.416445 
L 391.972466 56.851624 
L 393.058267 57.484612 
L 394.144068 57.919791 
L 395.229869 58.552778 
L 396.31567 58.513217 
L 397.401472 56.970309 
L 398.487273 56.29776 
L 398.487273 56.29776 
" clip-path="url(#pdc51f41394)" style="fill: none; stroke: #ff7f0e; stroke-width: 1.5; stroke-linecap: square"/>
   </g>
   <g id="line2d_19">
    <path d="M 73.832727 278.23772 
L 74.918528 247.952531 
L 76.00433 197.613636 
L 77.090131 201.296969 
L 78.175932 216.575984 
L 79.261733 209.564008 
L 80.347534 183.835239 
L 81.433335 191.802153 
L 84.690739 144.491777 
L 85.77654 154.668692 
L 86.862341 153.222642 
L 87.948142 143.864246 
L 89.033943 142.85474 
L 90.119745 131.068072 
L 91.205546 132.268566 
L 92.291347 129.703874 
L 93.377148 130.631528 
L 94.462949 132.650541 
L 95.54875 170.875361 
L 96.634552 166.046101 
L 97.720353 165.527706 
L 98.806154 154.805112 
L 99.891955 158.461162 
L 100.977756 149.239185 
L 102.063557 161.598816 
L 103.149358 151.176346 
L 104.23516 139.471529 
L 105.320961 146.674493 
L 106.406762 132.814245 
L 107.492563 126.375232 
L 108.578364 135.651776 
L 109.664165 133.114368 
L 110.749967 141.490542 
L 111.835768 128.6398 
L 112.921569 134.042023 
L 114.00737 124.956466 
L 115.093171 134.36943 
L 116.178972 140.481036 
L 117.264773 124.98375 
L 118.350575 127.548442 
L 119.436376 125.420293 
L 120.522177 118.872144 
L 121.607978 128.36696 
L 122.693779 128.830787 
L 123.77958 120.236342 
L 124.865382 117.80807 
L 125.951183 116.36202 
L 127.036984 119.035848 
L 128.122785 112.214859 
L 129.208586 112.460415 
L 130.294387 111.751032 
L 131.380189 113.11523 
L 133.551791 113.11523 
L 135.723393 113.851897 
L 136.809194 112.051156 
L 137.894995 113.306217 
L 138.980797 132.241282 
L 140.066598 144.355357 
L 141.152399 133.414492 
L 142.2382 146.292518 
L 143.324001 139.553381 
L 144.409802 126.920911 
L 145.495604 139.19869 
L 146.581405 142.71832 
L 147.667206 129.349183 
L 148.753007 141.654246 
L 149.838808 132.241282 
L 150.924609 148.120543 
L 152.01041 129.703874 
L 153.096212 124.056095 
L 154.182013 140.890295 
L 155.267814 121.273132 
L 156.353615 126.429799 
L 157.439416 140.562888 
L 158.525217 132.868813 
L 159.611019 127.766713 
L 160.69682 128.530664 
L 161.782621 131.75017 
L 162.868422 126.429799 
L 163.954223 133.278072 
L 165.040024 132.623257 
L 166.125825 129.158195 
L 167.211627 136.661282 
L 168.297428 127.221034 
L 169.383229 131.450047 
L 170.46903 134.614986 
L 171.554831 126.15696 
L 172.640632 120.045354 
L 173.726434 128.039553 
L 174.812235 119.254119 
L 175.898036 130.98622 
L 176.983837 116.962267 
L 178.069638 117.917206 
L 179.155439 118.435601 
L 180.24124 121.082144 
L 181.327042 118.817576 
L 182.412843 110.49597 
L 184.584445 119.717947 
L 185.670246 110.686958 
L 186.756047 114.588563 
L 187.841849 111.259921 
L 188.92765 121.436836 
L 190.013451 114.834119 
L 191.099252 111.396341 
L 192.185053 119.581527 
L 193.270854 110.76881 
L 194.356656 110.877946 
L 195.442457 108.968069 
L 196.528258 105.530291 
L 197.614059 106.621649 
L 198.69986 104.875476 
L 199.785661 101.683253 
L 200.871462 106.07597 
L 201.957264 102.992883 
L 203.043065 103.129303 
L 204.128866 106.021402 
L 205.214667 105.80313 
L 206.300468 108.968069 
L 207.386269 107.822143 
L 208.472071 104.166093 
L 209.557872 101.874241 
L 210.643673 102.338068 
L 211.729474 99.855228 
L 212.815275 101.137574 
L 214.986877 101.519549 
L 216.072679 100.100784 
L 217.15848 100.100784 
L 218.244281 99.582389 
L 219.330082 100.0735 
L 220.415883 99.473253 
L 221.501684 99.445969 
L 222.587486 100.482759 
L 223.673287 99.091277 
L 224.759088 99.555105 
L 225.844889 133.687331 
L 226.93069 134.23301 
L 228.016491 141.081283 
L 229.102292 128.285108 
L 230.188094 129.840294 
L 231.273895 125.338441 
L 232.359696 134.996961 
L 233.445497 125.802268 
L 234.531298 121.273132 
L 235.617099 131.859306 
L 236.702901 130.358689 
L 237.788702 133.168936 
L 238.874503 121.982515 
L 239.960304 124.247083 
L 241.046105 137.425233 
L 242.131906 119.690663 
L 243.217708 132.268566 
L 244.303509 130.98622 
L 245.38931 131.504615 
L 246.475111 122.828317 
L 247.560912 130.658812 
L 248.646713 129.376466 
L 249.732514 127.275602 
L 250.818316 113.25165 
L 251.904117 111.778316 
L 252.989918 125.365725 
L 254.075719 121.163996 
L 255.16152 118.98128 
L 256.247321 133.714615 
L 257.333123 117.780786 
L 258.418924 127.33017 
L 259.504725 129.731158 
L 260.590526 124.792762 
L 261.676327 121.655107 
L 262.762128 130.140417 
L 263.847929 135.106097 
L 264.933731 124.629058 
L 266.019532 126.457083 
L 267.105333 121.518688 
L 268.191134 130.140417 
L 269.276935 128.858071 
L 270.362736 111.778316 
L 271.448538 134.260294 
L 272.534339 128.339676 
L 273.62014 123.564984 
L 274.705941 118.135477 
L 275.791742 121.109428 
L 276.877543 125.011034 
L 277.963344 118.490169 
L 279.049146 124.056095 
L 280.134947 123.019305 
L 281.220748 129.240047 
L 282.306549 120.509181 
L 283.39235 119.88165 
L 284.478151 124.083379 
L 285.563953 113.197082 
L 286.649754 121.05486 
L 287.735555 111.287205 
L 288.821356 122.77375 
L 289.907157 119.745231 
L 290.992958 118.026342 
L 292.07876 126.511651 
L 293.164561 114.697699 
L 294.250362 119.417823 
L 295.336163 118.544737 
L 296.421964 111.341773 
L 297.507765 121.627823 
L 298.593566 108.995353 
L 299.679368 119.172268 
L 300.765169 108.204118 
L 301.85097 116.36202 
L 302.936771 110.523254 
L 304.022572 114.697699 
L 305.108373 125.092886 
L 306.194175 117.235107 
L 307.279976 115.379798 
L 308.365777 114.261156 
L 309.451578 114.233872 
L 310.537379 113.742761 
L 311.62318 113.742761 
L 312.708981 120.15449 
L 313.794783 113.060662 
L 314.880584 107.903995 
L 315.966385 113.961032 
L 317.052186 103.429426 
L 318.137987 106.676217 
L 319.223788 109.45918 
L 320.30959 118.572021 
L 321.395391 110.086711 
L 322.481192 118.217329 
L 323.566993 104.111525 
L 324.652794 111.123501 
L 325.738595 113.442637 
L 326.824396 107.713007 
L 327.910198 108.449674 
L 328.995999 102.55634 
L 330.0818 110.304983 
L 331.167601 112.405847 
L 332.253402 106.048686 
L 333.339203 107.085476 
L 334.425005 108.449674 
L 335.510806 108.995353 
L 336.596607 99.80066 
L 337.682408 104.76634 
L 338.768209 98.736586 
L 339.85401 106.949056 
L 340.939811 101.628685 
L 342.025613 104.029673 
L 343.111414 102.965599 
L 344.197215 93.03424 
L 345.283016 98.518314 
L 346.368817 107.140044 
L 347.454618 93.334363 
L 348.54042 96.744857 
L 349.626221 98.354611 
L 350.712022 106.403377 
L 351.797823 97.290536 
L 352.883624 101.792389 
L 353.969425 93.225227 
L 355.055227 105.966834 
L 356.141028 96.690289 
L 357.226829 101.464981 
L 358.31263 104.166093 
L 359.398431 100.591895 
L 360.484232 93.579919 
L 361.570033 98.409179 
L 362.655835 92.024733 
L 363.741636 95.708067 
L 364.827437 95.189672 
L 365.913238 100.264487 
L 366.999039 95.953623 
L 369.170642 98.76387 
L 370.256443 96.008191 
L 371.342244 99.227697 
L 372.428045 100.673747 
L 373.513846 105.284735 
L 374.599647 102.801895 
L 375.685448 104.711772 
L 376.77125 101.137574 
L 377.857051 101.901525 
L 378.942852 103.620414 
L 380.028653 95.708067 
L 381.114454 105.066463 
L 382.200255 99.527821 
L 383.286057 99.091277 
L 384.371858 102.065228 
L 385.457659 99.609673 
L 386.54346 99.445969 
L 387.629261 105.230167 
L 388.715062 96.14461 
L 389.800863 108.476958 
L 390.886665 99.66424 
L 391.972466 102.14708 
L 393.058267 100.83745 
L 394.144068 97.044981 
L 396.31567 107.985846 
L 397.401472 97.999919 
L 398.487273 93.661771 
L 398.487273 93.661771 
" clip-path="url(#pdc51f41394)" style="fill: none; stroke: #2ca02c; stroke-width: 1.5; stroke-linecap: square"/>
   </g>
   <g id="line2d_20">
    <path d="M 368.08484 55.071346 
L 369.170642 55.546087 
L 370.256443 54.992222 
L 371.342244 53.924056 
L 372.428045 54.952661 
L 373.513846 55.071346 
L 374.599647 55.743895 
L 375.685448 55.981266 
L 376.77125 55.585648 
L 377.857051 54.280111 
L 378.942852 54.675729 
L 380.028653 54.359235 
L 381.114454 55.071346 
L 382.200255 55.38784 
L 383.286057 54.675729 
L 384.371858 53.568 
L 385.457659 54.161426 
L 386.54346 54.280111 
L 387.629261 54.003179 
L 388.715062 54.794414 
L 389.800863 55.269155 
L 390.886665 55.190031 
L 391.972466 54.71529 
L 394.144068 55.110908 
L 395.229869 54.398796 
L 396.31567 55.704334 
L 397.401472 55.427401 
L 398.487273 54.754852 
L 398.487273 54.754852 
" clip-path="url(#pdc51f41394)" style="fill: none; stroke: #d62728; stroke-width: 1.5; stroke-linecap: square"/>
   </g>
   <g id="line2d_21">
    <path d="M 368.08484 95.571647 
L 369.170642 97.508808 
L 370.256443 96.444734 
L 371.342244 94.807697 
L 372.428045 99.691524 
L 373.513846 95.899055 
L 374.599647 96.935845 
L 375.685448 99.691524 
L 376.77125 99.173129 
L 377.857051 96.690289 
L 378.942852 96.990413 
L 380.028653 94.9714 
L 381.114454 99.391401 
L 382.200255 97.863499 
L 383.286057 96.608438 
L 384.371858 94.180166 
L 385.457659 95.135104 
L 386.54346 92.843252 
L 387.629261 91.560906 
L 388.715062 95.980907 
L 389.800863 97.972635 
L 390.886665 95.735351 
L 391.972466 91.342634 
L 393.058267 98.354611 
L 394.144068 91.642758 
L 395.229869 97.836216 
L 396.31567 101.083006 
L 397.401472 93.634487 
L 398.487273 97.999919 
L 398.487273 97.999919 
" clip-path="url(#pdc51f41394)" style="fill: none; stroke: #9467bd; stroke-width: 1.5; stroke-linecap: square"/>
   </g>
   <g id="patch_3">
    <path d="M 57.6 307.584 
L 57.6 41.472 
" style="fill: none; stroke: #000000; stroke-width: 0.8; stroke-linejoin: miter; stroke-linecap: square"/>
   </g>
   <g id="patch_4">
    <path d="M 414.72 307.584 
L 414.72 41.472 
" style="fill: none; stroke: #000000; stroke-width: 0.8; stroke-linejoin: miter; stroke-linecap: square"/>
   </g>
   <g id="patch_5">
    <path d="M 57.6 307.584 
L 414.72 307.584 
" style="fill: none; stroke: #000000; stroke-width: 0.8; stroke-linejoin: miter; stroke-linecap: square"/>
   </g>
   <g id="patch_6">
    <path d="M 57.6 41.472 
L 414.72 41.472 
" style="fill: none; stroke: #000000; stroke-width: 0.8; stroke-linejoin: miter; stroke-linecap: square"/>
   </g>
   <g id="text_19">
    <!-- Learning Curves -->
    <g transform="translate(187.37625 35.472) scale(0.12 -0.12)">
     <defs>
      <path id="DejaVuSans-4c" d="M 628 4666 
L 1259 4666 
L 1259 531 
L 3531 531 
L 3531 0 
L 628 0 
L 628 4666 
z
" transform="scale(0.015625)"/>
      <path id="DejaVuSans-65" d="M 3597 1894 
L 3597 1613 
L 953 1613 
Q 991 1019 1311 708 
Q 1631 397 2203 397 
Q 2534 397 2845 478 
Q 3156 559 3463 722 
L 3463 178 
Q 3153 47 2828 -22 
Q 2503 -91 2169 -91 
Q 1331 -91 842 396 
Q 353 884 353 1716 
Q 353 2575 817 3079 
Q 1281 3584 2069 3584 
Q 2775 3584 3186 3129 
Q 3597 2675 3597 1894 
z
M 3022 2063 
Q 3016 2534 2758 2815 
Q 2500 3097 2075 3097 
Q 1594 3097 1305 2825 
Q 1016 2553 972 2059 
L 3022 2063 
z
" transform="scale(0.015625)"/>
      <path id="DejaVuSans-6e" d="M 3513 2113 
L 3513 0 
L 2938 0 
L 2938 2094 
Q 2938 2591 2744 2837 
Q 2550 3084 2163 3084 
Q 1697 3084 1428 2787 
Q 1159 2491 1159 1978 
L 1159 0 
L 581 0 
L 581 3500 
L 1159 3500 
L 1159 2956 
Q 1366 3272 1645 3428 
Q 1925 3584 2291 3584 
Q 2894 3584 3203 3211 
Q 3513 2838 3513 2113 
z
" transform="scale(0.015625)"/>
      <path id="DejaVuSans-69" d="M 603 3500 
L 1178 3500 
L 1178 0 
L 603 0 
L 603 3500 
z
M 603 4863 
L 1178 4863 
L 1178 4134 
L 603 4134 
L 603 4863 
z
" transform="scale(0.015625)"/>
      <path id="DejaVuSans-67" d="M 2906 1791 
Q 2906 2416 2648 2759 
Q 2391 3103 1925 3103 
Q 1463 3103 1205 2759 
Q 947 2416 947 1791 
Q 947 1169 1205 825 
Q 1463 481 1925 481 
Q 2391 481 2648 825 
Q 2906 1169 2906 1791 
z
M 3481 434 
Q 3481 -459 3084 -895 
Q 2688 -1331 1869 -1331 
Q 1566 -1331 1297 -1286 
Q 1028 -1241 775 -1147 
L 775 -588 
Q 1028 -725 1275 -790 
Q 1522 -856 1778 -856 
Q 2344 -856 2625 -561 
Q 2906 -266 2906 331 
L 2906 616 
Q 2728 306 2450 153 
Q 2172 0 1784 0 
Q 1141 0 747 490 
Q 353 981 353 1791 
Q 353 2603 747 3093 
Q 1141 3584 1784 3584 
Q 2172 3584 2450 3431 
Q 2728 3278 2906 2969 
L 2906 3500 
L 3481 3500 
L 3481 434 
z
" transform="scale(0.015625)"/>
      <path id="DejaVuSans-20" transform="scale(0.015625)"/>
      <path id="DejaVuSans-43" d="M 4122 4306 
L 4122 3641 
Q 3803 3938 3442 4084 
Q 3081 4231 2675 4231 
Q 1875 4231 1450 3742 
Q 1025 3253 1025 2328 
Q 1025 1406 1450 917 
Q 1875 428 2675 428 
Q 3081 428 3442 575 
Q 3803 722 4122 1019 
L 4122 359 
Q 3791 134 3420 21 
Q 3050 -91 2638 -91 
Q 1578 -91 968 557 
Q 359 1206 359 2328 
Q 359 3453 968 4101 
Q 1578 4750 2638 4750 
Q 3056 4750 3426 4639 
Q 3797 4528 4122 4306 
z
" transform="scale(0.015625)"/>
      <path id="DejaVuSans-76" d="M 191 3500 
L 800 3500 
L 1894 563 
L 2988 3500 
L 3597 3500 
L 2284 0 
L 1503 0 
L 191 3500 
z
" transform="scale(0.015625)"/>
     </defs>
     <use xlink:href="#DejaVuSans-4c"/>
     <use xlink:href="#DejaVuSans-65" x="53.962891"/>
     <use xlink:href="#DejaVuSans-61" x="115.486328"/>
     <use xlink:href="#DejaVuSans-72" x="176.765625"/>
     <use xlink:href="#DejaVuSans-6e" x="216.128906"/>
     <use xlink:href="#DejaVuSans-69" x="279.507812"/>
     <use xlink:href="#DejaVuSans-6e" x="307.291016"/>
     <use xlink:href="#DejaVuSans-67" x="370.669922"/>
     <use xlink:href="#DejaVuSans-20" x="434.146484"/>
     <use xlink:href="#DejaVuSans-43" x="465.933594"/>
     <use xlink:href="#DejaVuSans-75" x="535.757812"/>
     <use xlink:href="#DejaVuSans-72" x="599.136719"/>
     <use xlink:href="#DejaVuSans-76" x="640.25"/>
     <use xlink:href="#DejaVuSans-65" x="699.429688"/>
     <use xlink:href="#DejaVuSans-73" x="760.953125"/>
    </g>
   </g>
   <g id="legend_1">
    <g id="patch_7">
     <path d="M 214.18875 302.584 
L 407.72 302.584 
Q 409.72 302.584 409.72 300.584 
L 409.72 228.193375 
Q 409.72 226.193375 407.72 226.193375 
L 214.18875 226.193375 
Q 212.18875 226.193375 212.18875 228.193375 
L 212.18875 300.584 
Q 212.18875 302.584 214.18875 302.584 
z
" style="fill: #ffffff; opacity: 0.8; stroke: #cccccc; stroke-linejoin: miter"/>
    </g>
    <g id="line2d_22">
     <path d="M 216.18875 234.291812 
L 226.18875 234.291812 
L 236.18875 234.291812 
" style="fill: none; stroke: #1f77b4; stroke-width: 1.5; stroke-linecap: square"/>
    </g>
    <g id="text_20">
     <!-- Train Accuracy -->
     <g transform="translate(244.18875 237.791812) scale(0.1 -0.1)">
      <defs>
       <path id="DejaVuSans-54" d="M -19 4666 
L 3928 4666 
L 3928 4134 
L 2272 4134 
L 2272 0 
L 1638 0 
L 1638 4134 
L -19 4134 
L -19 4666 
z
" transform="scale(0.015625)"/>
      </defs>
      <use xlink:href="#DejaVuSans-54"/>
      <use xlink:href="#DejaVuSans-72" x="46.333984"/>
      <use xlink:href="#DejaVuSans-61" x="87.447266"/>
      <use xlink:href="#DejaVuSans-69" x="148.726562"/>
      <use xlink:href="#DejaVuSans-6e" x="176.509766"/>
      <use xlink:href="#DejaVuSans-20" x="239.888672"/>
      <use xlink:href="#DejaVuSans-41" x="271.675781"/>
      <use xlink:href="#DejaVuSans-63" x="338.333984"/>
      <use xlink:href="#DejaVuSans-63" x="393.314453"/>
      <use xlink:href="#DejaVuSans-75" x="448.294922"/>
      <use xlink:href="#DejaVuSans-72" x="511.673828"/>
      <use xlink:href="#DejaVuSans-61" x="552.787109"/>
      <use xlink:href="#DejaVuSans-63" x="614.066406"/>
      <use xlink:href="#DejaVuSans-79" x="669.046875"/>
     </g>
    </g>
    <g id="line2d_23">
     <path d="M 216.18875 248.969937 
L 226.18875 248.969937 
L 236.18875 248.969937 
" style="fill: none; stroke: #ff7f0e; stroke-width: 1.5; stroke-linecap: square"/>
    </g>
    <g id="text_21">
     <!-- Validation Accuracy -->
     <g transform="translate(244.18875 252.469937) scale(0.1 -0.1)">
      <defs>
       <path id="DejaVuSans-56" d="M 1831 0 
L 50 4666 
L 709 4666 
L 2188 738 
L 3669 4666 
L 4325 4666 
L 2547 0 
L 1831 0 
z
" transform="scale(0.015625)"/>
       <path id="DejaVuSans-6c" d="M 603 4863 
L 1178 4863 
L 1178 0 
L 603 0 
L 603 4863 
z
" transform="scale(0.015625)"/>
       <path id="DejaVuSans-64" d="M 2906 2969 
L 2906 4863 
L 3481 4863 
L 3481 0 
L 2906 0 
L 2906 525 
Q 2725 213 2448 61 
Q 2172 -91 1784 -91 
Q 1150 -91 751 415 
Q 353 922 353 1747 
Q 353 2572 751 3078 
Q 1150 3584 1784 3584 
Q 2172 3584 2448 3432 
Q 2725 3281 2906 2969 
z
M 947 1747 
Q 947 1113 1208 752 
Q 1469 391 1925 391 
Q 2381 391 2643 752 
Q 2906 1113 2906 1747 
Q 2906 2381 2643 2742 
Q 2381 3103 1925 3103 
Q 1469 3103 1208 2742 
Q 947 2381 947 1747 
z
" transform="scale(0.015625)"/>
       <path id="DejaVuSans-74" d="M 1172 4494 
L 1172 3500 
L 2356 3500 
L 2356 3053 
L 1172 3053 
L 1172 1153 
Q 1172 725 1289 603 
Q 1406 481 1766 481 
L 2356 481 
L 2356 0 
L 1766 0 
Q 1100 0 847 248 
Q 594 497 594 1153 
L 594 3053 
L 172 3053 
L 172 3500 
L 594 3500 
L 594 4494 
L 1172 4494 
z
" transform="scale(0.015625)"/>
      </defs>
      <use xlink:href="#DejaVuSans-56"/>
      <use xlink:href="#DejaVuSans-61" x="60.658203"/>
      <use xlink:href="#DejaVuSans-6c" x="121.9375"/>
      <use xlink:href="#DejaVuSans-69" x="149.720703"/>
      <use xlink:href="#DejaVuSans-64" x="177.503906"/>
      <use xlink:href="#DejaVuSans-61" x="240.980469"/>
      <use xlink:href="#DejaVuSans-74" x="302.259766"/>
      <use xlink:href="#DejaVuSans-69" x="341.46875"/>
      <use xlink:href="#DejaVuSans-6f" x="369.251953"/>
      <use xlink:href="#DejaVuSans-6e" x="430.433594"/>
      <use xlink:href="#DejaVuSans-20" x="493.8125"/>
      <use xlink:href="#DejaVuSans-41" x="525.599609"/>
      <use xlink:href="#DejaVuSans-63" x="592.257812"/>
      <use xlink:href="#DejaVuSans-63" x="647.238281"/>
      <use xlink:href="#DejaVuSans-75" x="702.21875"/>
      <use xlink:href="#DejaVuSans-72" x="765.597656"/>
      <use xlink:href="#DejaVuSans-61" x="806.710938"/>
      <use xlink:href="#DejaVuSans-63" x="867.990234"/>
      <use xlink:href="#DejaVuSans-79" x="922.970703"/>
     </g>
    </g>
    <g id="line2d_24">
     <path d="M 216.18875 263.648062 
L 226.18875 263.648062 
L 236.18875 263.648062 
" style="fill: none; stroke: #2ca02c; stroke-width: 1.5; stroke-linecap: square"/>
    </g>
    <g id="text_22">
     <!-- Robust Validation Accuracy -->
     <g transform="translate(244.18875 267.148062) scale(0.1 -0.1)">
      <defs>
       <path id="DejaVuSans-52" d="M 2841 2188 
Q 3044 2119 3236 1894 
Q 3428 1669 3622 1275 
L 4263 0 
L 3584 0 
L 2988 1197 
Q 2756 1666 2539 1819 
Q 2322 1972 1947 1972 
L 1259 1972 
L 1259 0 
L 628 0 
L 628 4666 
L 2053 4666 
Q 2853 4666 3247 4331 
Q 3641 3997 3641 3322 
Q 3641 2881 3436 2590 
Q 3231 2300 2841 2188 
z
M 1259 4147 
L 1259 2491 
L 2053 2491 
Q 2509 2491 2742 2702 
Q 2975 2913 2975 3322 
Q 2975 3731 2742 3939 
Q 2509 4147 2053 4147 
L 1259 4147 
z
" transform="scale(0.015625)"/>
       <path id="DejaVuSans-62" d="M 3116 1747 
Q 3116 2381 2855 2742 
Q 2594 3103 2138 3103 
Q 1681 3103 1420 2742 
Q 1159 2381 1159 1747 
Q 1159 1113 1420 752 
Q 1681 391 2138 391 
Q 2594 391 2855 752 
Q 3116 1113 3116 1747 
z
M 1159 2969 
Q 1341 3281 1617 3432 
Q 1894 3584 2278 3584 
Q 2916 3584 3314 3078 
Q 3713 2572 3713 1747 
Q 3713 922 3314 415 
Q 2916 -91 2278 -91 
Q 1894 -91 1617 61 
Q 1341 213 1159 525 
L 1159 0 
L 581 0 
L 581 4863 
L 1159 4863 
L 1159 2969 
z
" transform="scale(0.015625)"/>
      </defs>
      <use xlink:href="#DejaVuSans-52"/>
      <use xlink:href="#DejaVuSans-6f" x="64.982422"/>
      <use xlink:href="#DejaVuSans-62" x="126.164062"/>
      <use xlink:href="#DejaVuSans-75" x="189.640625"/>
      <use xlink:href="#DejaVuSans-73" x="253.019531"/>
      <use xlink:href="#DejaVuSans-74" x="305.119141"/>
      <use xlink:href="#DejaVuSans-20" x="344.328125"/>
      <use xlink:href="#DejaVuSans-56" x="376.115234"/>
      <use xlink:href="#DejaVuSans-61" x="436.773438"/>
      <use xlink:href="#DejaVuSans-6c" x="498.052734"/>
      <use xlink:href="#DejaVuSans-69" x="525.835938"/>
      <use xlink:href="#DejaVuSans-64" x="553.619141"/>
      <use xlink:href="#DejaVuSans-61" x="617.095703"/>
      <use xlink:href="#DejaVuSans-74" x="678.375"/>
      <use xlink:href="#DejaVuSans-69" x="717.583984"/>
      <use xlink:href="#DejaVuSans-6f" x="745.367188"/>
      <use xlink:href="#DejaVuSans-6e" x="806.548828"/>
      <use xlink:href="#DejaVuSans-20" x="869.927734"/>
      <use xlink:href="#DejaVuSans-41" x="901.714844"/>
      <use xlink:href="#DejaVuSans-63" x="968.373047"/>
      <use xlink:href="#DejaVuSans-63" x="1023.353516"/>
      <use xlink:href="#DejaVuSans-75" x="1078.333984"/>
      <use xlink:href="#DejaVuSans-72" x="1141.712891"/>
      <use xlink:href="#DejaVuSans-61" x="1182.826172"/>
      <use xlink:href="#DejaVuSans-63" x="1244.105469"/>
      <use xlink:href="#DejaVuSans-79" x="1299.085938"/>
     </g>
    </g>
    <g id="line2d_25">
     <path d="M 216.18875 278.326188 
L 226.18875 278.326188 
L 236.18875 278.326188 
" style="fill: none; stroke: #d62728; stroke-width: 1.5; stroke-linecap: square"/>
    </g>
    <g id="text_23">
     <!-- SWA Validation Accuracy -->
     <g transform="translate(244.18875 281.826188) scale(0.1 -0.1)">
      <defs>
       <path id="DejaVuSans-53" d="M 3425 4513 
L 3425 3897 
Q 3066 4069 2747 4153 
Q 2428 4238 2131 4238 
Q 1616 4238 1336 4038 
Q 1056 3838 1056 3469 
Q 1056 3159 1242 3001 
Q 1428 2844 1947 2747 
L 2328 2669 
Q 3034 2534 3370 2195 
Q 3706 1856 3706 1288 
Q 3706 609 3251 259 
Q 2797 -91 1919 -91 
Q 1588 -91 1214 -16 
Q 841 59 441 206 
L 441 856 
Q 825 641 1194 531 
Q 1563 422 1919 422 
Q 2459 422 2753 634 
Q 3047 847 3047 1241 
Q 3047 1584 2836 1778 
Q 2625 1972 2144 2069 
L 1759 2144 
Q 1053 2284 737 2584 
Q 422 2884 422 3419 
Q 422 4038 858 4394 
Q 1294 4750 2059 4750 
Q 2388 4750 2728 4690 
Q 3069 4631 3425 4513 
z
" transform="scale(0.015625)"/>
       <path id="DejaVuSans-57" d="M 213 4666 
L 850 4666 
L 1831 722 
L 2809 4666 
L 3519 4666 
L 4500 722 
L 5478 4666 
L 6119 4666 
L 4947 0 
L 4153 0 
L 3169 4050 
L 2175 0 
L 1381 0 
L 213 4666 
z
" transform="scale(0.015625)"/>
      </defs>
      <use xlink:href="#DejaVuSans-53"/>
      <use xlink:href="#DejaVuSans-57" x="63.476562"/>
      <use xlink:href="#DejaVuSans-41" x="156.853516"/>
      <use xlink:href="#DejaVuSans-20" x="225.261719"/>
      <use xlink:href="#DejaVuSans-56" x="257.048828"/>
      <use xlink:href="#DejaVuSans-61" x="317.707031"/>
      <use xlink:href="#DejaVuSans-6c" x="378.986328"/>
      <use xlink:href="#DejaVuSans-69" x="406.769531"/>
      <use xlink:href="#DejaVuSans-64" x="434.552734"/>
      <use xlink:href="#DejaVuSans-61" x="498.029297"/>
      <use xlink:href="#DejaVuSans-74" x="559.308594"/>
      <use xlink:href="#DejaVuSans-69" x="598.517578"/>
      <use xlink:href="#DejaVuSans-6f" x="626.300781"/>
      <use xlink:href="#DejaVuSans-6e" x="687.482422"/>
      <use xlink:href="#DejaVuSans-20" x="750.861328"/>
      <use xlink:href="#DejaVuSans-41" x="782.648438"/>
      <use xlink:href="#DejaVuSans-63" x="849.306641"/>
      <use xlink:href="#DejaVuSans-63" x="904.287109"/>
      <use xlink:href="#DejaVuSans-75" x="959.267578"/>
      <use xlink:href="#DejaVuSans-72" x="1022.646484"/>
      <use xlink:href="#DejaVuSans-61" x="1063.759766"/>
      <use xlink:href="#DejaVuSans-63" x="1125.039062"/>
      <use xlink:href="#DejaVuSans-79" x="1180.019531"/>
     </g>
    </g>
    <g id="line2d_26">
     <path d="M 216.18875 293.004312 
L 226.18875 293.004312 
L 236.18875 293.004312 
" style="fill: none; stroke: #9467bd; stroke-width: 1.5; stroke-linecap: square"/>
    </g>
    <g id="text_24">
     <!-- SWA Robust Validation Accuracy -->
     <g transform="translate(244.18875 296.504312) scale(0.1 -0.1)">
      <use xlink:href="#DejaVuSans-53"/>
      <use xlink:href="#DejaVuSans-57" x="63.476562"/>
      <use xlink:href="#DejaVuSans-41" x="156.853516"/>
      <use xlink:href="#DejaVuSans-20" x="225.261719"/>
      <use xlink:href="#DejaVuSans-52" x="257.048828"/>
      <use xlink:href="#DejaVuSans-6f" x="322.03125"/>
      <use xlink:href="#DejaVuSans-62" x="383.212891"/>
      <use xlink:href="#DejaVuSans-75" x="446.689453"/>
      <use xlink:href="#DejaVuSans-73" x="510.068359"/>
      <use xlink:href="#DejaVuSans-74" x="562.167969"/>
      <use xlink:href="#DejaVuSans-20" x="601.376953"/>
      <use xlink:href="#DejaVuSans-56" x="633.164062"/>
      <use xlink:href="#DejaVuSans-61" x="693.822266"/>
      <use xlink:href="#DejaVuSans-6c" x="755.101562"/>
      <use xlink:href="#DejaVuSans-69" x="782.884766"/>
      <use xlink:href="#DejaVuSans-64" x="810.667969"/>
      <use xlink:href="#DejaVuSans-61" x="874.144531"/>
      <use xlink:href="#DejaVuSans-74" x="935.423828"/>
      <use xlink:href="#DejaVuSans-69" x="974.632812"/>
      <use xlink:href="#DejaVuSans-6f" x="1002.416016"/>
      <use xlink:href="#DejaVuSans-6e" x="1063.597656"/>
      <use xlink:href="#DejaVuSans-20" x="1126.976562"/>
      <use xlink:href="#DejaVuSans-41" x="1158.763672"/>
      <use xlink:href="#DejaVuSans-63" x="1225.421875"/>
      <use xlink:href="#DejaVuSans-63" x="1280.402344"/>
      <use xlink:href="#DejaVuSans-75" x="1335.382812"/>
      <use xlink:href="#DejaVuSans-72" x="1398.761719"/>
      <use xlink:href="#DejaVuSans-61" x="1439.875"/>
      <use xlink:href="#DejaVuSans-63" x="1501.154297"/>
      <use xlink:href="#DejaVuSans-79" x="1556.134766"/>
     </g>
    </g>
   </g>
  </g>
 </g>
 <defs>
  <clipPath id="pdc51f41394">
   <rect x="57.6" y="41.472" width="357.12" height="266.112"/>
  </clipPath>
 </defs>
</svg>
