<?xml version="1.0" encoding="utf-8" standalone="no"?>
<!DOCTYPE svg PUBLIC "-//W3C//DTD SVG 1.1//EN"
  "http://www.w3.org/Graphics/SVG/1.1/DTD/svg11.dtd">
<svg xmlns:xlink="http://www.w3.org/1999/xlink" width="460.8pt" height="345.6pt" viewBox="0 0 460.8 345.6" xmlns="http://www.w3.org/2000/svg" version="1.1">
 <metadata>
  <rdf:RDF xmlns:dc="http://purl.org/dc/elements/1.1/" xmlns:cc="http://creativecommons.org/ns#" xmlns:rdf="http://www.w3.org/1999/02/22-rdf-syntax-ns#">
   <cc:Work>
    <dc:type rdf:resource="http://purl.org/dc/dcmitype/StillImage"/>
    <dc:date>2025-06-20T04:35:59.409100</dc:date>
    <dc:format>image/svg+xml</dc:format>
    <dc:creator>
     <cc:Agent>
      <dc:title>Matplotlib v3.9.1, https://matplotlib.org/</dc:title>
     </cc:Agent>
    </dc:creator>
   </cc:Work>
  </rdf:RDF>
 </metadata>
 <defs>
  <style type="text/css">*{stroke-linejoin: round; stroke-linecap: butt}</style>
 </defs>
 <g id="figure_1">
  <g id="patch_1">
   <path d="M 0 345.6 
L 460.8 345.6 
L 460.8 0 
L 0 0 
z
" style="fill: #ffffff"/>
  </g>
  <g id="axes_1">
   <g id="patch_2">
    <path d="M 57.6 307.584 
L 414.72 307.584 
L 414.72 41.472 
L 57.6 41.472 
z
" style="fill: #ffffff"/>
   </g>
   <g id="matplotlib.axis_1">
    <g id="xtick_1">
     <g id="line2d_1">
      <defs>
       <path id="me746a862bb" d="M 0 0 
L 0 3.5 
" style="stroke: #000000; stroke-width: 0.8"/>
      </defs>
      <g>
       <use xlink:href="#me746a862bb" x="73.832727" y="307.584" style="stroke: #000000; stroke-width: 0.8"/>
      </g>
     </g>
     <g id="text_1">
      <!-- 1 -->
      <g transform="translate(70.651477 322.182437) scale(0.1 -0.1)">
       <defs>
        <path id="DejaVuSans-31" d="M 794 531 
L 1825 531 
L 1825 4091 
L 703 3866 
L 703 4441 
L 1819 4666 
L 2450 4666 
L 2450 531 
L 3481 531 
L 3481 0 
L 794 0 
L 794 531 
z
" transform="scale(0.015625)"/>
       </defs>
       <use xlink:href="#DejaVuSans-31"/>
      </g>
     </g>
    </g>
    <g id="xtick_2">
     <g id="line2d_2">
      <g>
       <use xlink:href="#me746a862bb" x="109.664165" y="307.584" style="stroke: #000000; stroke-width: 0.8"/>
      </g>
     </g>
     <g id="text_2">
      <!-- 34 -->
      <g transform="translate(103.301665 322.182437) scale(0.1 -0.1)">
       <defs>
        <path id="DejaVuSans-33" d="M 2597 2516 
Q 3050 2419 3304 2112 
Q 3559 1806 3559 1356 
Q 3559 666 3084 287 
Q 2609 -91 1734 -91 
Q 1441 -91 1130 -33 
Q 819 25 488 141 
L 488 750 
Q 750 597 1062 519 
Q 1375 441 1716 441 
Q 2309 441 2620 675 
Q 2931 909 2931 1356 
Q 2931 1769 2642 2001 
Q 2353 2234 1838 2234 
L 1294 2234 
L 1294 2753 
L 1863 2753 
Q 2328 2753 2575 2939 
Q 2822 3125 2822 3475 
Q 2822 3834 2567 4026 
Q 2313 4219 1838 4219 
Q 1578 4219 1281 4162 
Q 984 4106 628 3988 
L 628 4550 
Q 988 4650 1302 4700 
Q 1616 4750 1894 4750 
Q 2613 4750 3031 4423 
Q 3450 4097 3450 3541 
Q 3450 3153 3228 2886 
Q 3006 2619 2597 2516 
z
" transform="scale(0.015625)"/>
        <path id="DejaVuSans-34" d="M 2419 4116 
L 825 1625 
L 2419 1625 
L 2419 4116 
z
M 2253 4666 
L 3047 4666 
L 3047 1625 
L 3713 1625 
L 3713 1100 
L 3047 1100 
L 3047 0 
L 2419 0 
L 2419 1100 
L 313 1100 
L 313 1709 
L 2253 4666 
z
" transform="scale(0.015625)"/>
       </defs>
       <use xlink:href="#DejaVuSans-33"/>
       <use xlink:href="#DejaVuSans-34" x="63.623047"/>
      </g>
     </g>
    </g>
    <g id="xtick_3">
     <g id="line2d_3">
      <g>
       <use xlink:href="#me746a862bb" x="145.495604" y="307.584" style="stroke: #000000; stroke-width: 0.8"/>
      </g>
     </g>
     <g id="text_3">
      <!-- 67 -->
      <g transform="translate(139.133104 322.182437) scale(0.1 -0.1)">
       <defs>
        <path id="DejaVuSans-36" d="M 2113 2584 
Q 1688 2584 1439 2293 
Q 1191 2003 1191 1497 
Q 1191 994 1439 701 
Q 1688 409 2113 409 
Q 2538 409 2786 701 
Q 3034 994 3034 1497 
Q 3034 2003 2786 2293 
Q 2538 2584 2113 2584 
z
M 3366 4563 
L 3366 3988 
Q 3128 4100 2886 4159 
Q 2644 4219 2406 4219 
Q 1781 4219 1451 3797 
Q 1122 3375 1075 2522 
Q 1259 2794 1537 2939 
Q 1816 3084 2150 3084 
Q 2853 3084 3261 2657 
Q 3669 2231 3669 1497 
Q 3669 778 3244 343 
Q 2819 -91 2113 -91 
Q 1303 -91 875 529 
Q 447 1150 447 2328 
Q 447 3434 972 4092 
Q 1497 4750 2381 4750 
Q 2619 4750 2861 4703 
Q 3103 4656 3366 4563 
z
" transform="scale(0.015625)"/>
        <path id="DejaVuSans-37" d="M 525 4666 
L 3525 4666 
L 3525 4397 
L 1831 0 
L 1172 0 
L 2766 4134 
L 525 4134 
L 525 4666 
z
" transform="scale(0.015625)"/>
       </defs>
       <use xlink:href="#DejaVuSans-36"/>
       <use xlink:href="#DejaVuSans-37" x="63.623047"/>
      </g>
     </g>
    </g>
    <g id="xtick_4">
     <g id="line2d_4">
      <g>
       <use xlink:href="#me746a862bb" x="181.327042" y="307.584" style="stroke: #000000; stroke-width: 0.8"/>
      </g>
     </g>
     <g id="text_4">
      <!-- 100 -->
      <g transform="translate(171.783292 322.182437) scale(0.1 -0.1)">
       <defs>
        <path id="DejaVuSans-30" d="M 2034 4250 
Q 1547 4250 1301 3770 
Q 1056 3291 1056 2328 
Q 1056 1369 1301 889 
Q 1547 409 2034 409 
Q 2525 409 2770 889 
Q 3016 1369 3016 2328 
Q 3016 3291 2770 3770 
Q 2525 4250 2034 4250 
z
M 2034 4750 
Q 2819 4750 3233 4129 
Q 3647 3509 3647 2328 
Q 3647 1150 3233 529 
Q 2819 -91 2034 -91 
Q 1250 -91 836 529 
Q 422 1150 422 2328 
Q 422 3509 836 4129 
Q 1250 4750 2034 4750 
z
" transform="scale(0.015625)"/>
       </defs>
       <use xlink:href="#DejaVuSans-31"/>
       <use xlink:href="#DejaVuSans-30" x="63.623047"/>
       <use xlink:href="#DejaVuSans-30" x="127.246094"/>
      </g>
     </g>
    </g>
    <g id="xtick_5">
     <g id="line2d_5">
      <g>
       <use xlink:href="#me746a862bb" x="217.15848" y="307.584" style="stroke: #000000; stroke-width: 0.8"/>
      </g>
     </g>
     <g id="text_5">
      <!-- 133 -->
      <g transform="translate(207.61473 322.182437) scale(0.1 -0.1)">
       <use xlink:href="#DejaVuSans-31"/>
       <use xlink:href="#DejaVuSans-33" x="63.623047"/>
       <use xlink:href="#DejaVuSans-33" x="127.246094"/>
      </g>
     </g>
    </g>
    <g id="xtick_6">
     <g id="line2d_6">
      <g>
       <use xlink:href="#me746a862bb" x="254.075719" y="307.584" style="stroke: #000000; stroke-width: 0.8"/>
      </g>
     </g>
     <g id="text_6">
      <!-- 167 -->
      <g transform="translate(244.531969 322.182437) scale(0.1 -0.1)">
       <use xlink:href="#DejaVuSans-31"/>
       <use xlink:href="#DejaVuSans-36" x="63.623047"/>
       <use xlink:href="#DejaVuSans-37" x="127.246094"/>
      </g>
     </g>
    </g>
    <g id="xtick_7">
     <g id="line2d_7">
      <g>
       <use xlink:href="#me746a862bb" x="289.907157" y="307.584" style="stroke: #000000; stroke-width: 0.8"/>
      </g>
     </g>
     <g id="text_7">
      <!-- 200 -->
      <g transform="translate(280.363407 322.182437) scale(0.1 -0.1)">
       <defs>
        <path id="DejaVuSans-32" d="M 1228 531 
L 3431 531 
L 3431 0 
L 469 0 
L 469 531 
Q 828 903 1448 1529 
Q 2069 2156 2228 2338 
Q 2531 2678 2651 2914 
Q 2772 3150 2772 3378 
Q 2772 3750 2511 3984 
Q 2250 4219 1831 4219 
Q 1534 4219 1204 4116 
Q 875 4013 500 3803 
L 500 4441 
Q 881 4594 1212 4672 
Q 1544 4750 1819 4750 
Q 2544 4750 2975 4387 
Q 3406 4025 3406 3419 
Q 3406 3131 3298 2873 
Q 3191 2616 2906 2266 
Q 2828 2175 2409 1742 
Q 1991 1309 1228 531 
z
" transform="scale(0.015625)"/>
       </defs>
       <use xlink:href="#DejaVuSans-32"/>
       <use xlink:href="#DejaVuSans-30" x="63.623047"/>
       <use xlink:href="#DejaVuSans-30" x="127.246094"/>
      </g>
     </g>
    </g>
    <g id="xtick_8">
     <g id="line2d_8">
      <g>
       <use xlink:href="#me746a862bb" x="325.738595" y="307.584" style="stroke: #000000; stroke-width: 0.8"/>
      </g>
     </g>
     <g id="text_8">
      <!-- 233 -->
      <g transform="translate(316.194845 322.182437) scale(0.1 -0.1)">
       <use xlink:href="#DejaVuSans-32"/>
       <use xlink:href="#DejaVuSans-33" x="63.623047"/>
       <use xlink:href="#DejaVuSans-33" x="127.246094"/>
      </g>
     </g>
    </g>
    <g id="xtick_9">
     <g id="line2d_9">
      <g>
       <use xlink:href="#me746a862bb" x="361.570033" y="307.584" style="stroke: #000000; stroke-width: 0.8"/>
      </g>
     </g>
     <g id="text_9">
      <!-- 266 -->
      <g transform="translate(352.026283 322.182437) scale(0.1 -0.1)">
       <use xlink:href="#DejaVuSans-32"/>
       <use xlink:href="#DejaVuSans-36" x="63.623047"/>
       <use xlink:href="#DejaVuSans-36" x="127.246094"/>
      </g>
     </g>
    </g>
    <g id="xtick_10">
     <g id="line2d_10">
      <g>
       <use xlink:href="#me746a862bb" x="398.487273" y="307.584" style="stroke: #000000; stroke-width: 0.8"/>
      </g>
     </g>
     <g id="text_10">
      <!-- 300 -->
      <g transform="translate(388.943523 322.182437) scale(0.1 -0.1)">
       <use xlink:href="#DejaVuSans-33"/>
       <use xlink:href="#DejaVuSans-30" x="63.623047"/>
       <use xlink:href="#DejaVuSans-30" x="127.246094"/>
      </g>
     </g>
    </g>
    <g id="text_11">
     <!-- Epochs -->
     <g transform="translate(218.244375 335.860562) scale(0.1 -0.1)">
      <defs>
       <path id="DejaVuSans-45" d="M 628 4666 
L 3578 4666 
L 3578 4134 
L 1259 4134 
L 1259 2753 
L 3481 2753 
L 3481 2222 
L 1259 2222 
L 1259 531 
L 3634 531 
L 3634 0 
L 628 0 
L 628 4666 
z
" transform="scale(0.015625)"/>
       <path id="DejaVuSans-70" d="M 1159 525 
L 1159 -1331 
L 581 -1331 
L 581 3500 
L 1159 3500 
L 1159 2969 
Q 1341 3281 1617 3432 
Q 1894 3584 2278 3584 
Q 2916 3584 3314 3078 
Q 3713 2572 3713 1747 
Q 3713 922 3314 415 
Q 2916 -91 2278 -91 
Q 1894 -91 1617 61 
Q 1341 213 1159 525 
z
M 3116 1747 
Q 3116 2381 2855 2742 
Q 2594 3103 2138 3103 
Q 1681 3103 1420 2742 
Q 1159 2381 1159 1747 
Q 1159 1113 1420 752 
Q 1681 391 2138 391 
Q 2594 391 2855 752 
Q 3116 1113 3116 1747 
z
" transform="scale(0.015625)"/>
       <path id="DejaVuSans-6f" d="M 1959 3097 
Q 1497 3097 1228 2736 
Q 959 2375 959 1747 
Q 959 1119 1226 758 
Q 1494 397 1959 397 
Q 2419 397 2687 759 
Q 2956 1122 2956 1747 
Q 2956 2369 2687 2733 
Q 2419 3097 1959 3097 
z
M 1959 3584 
Q 2709 3584 3137 3096 
Q 3566 2609 3566 1747 
Q 3566 888 3137 398 
Q 2709 -91 1959 -91 
Q 1206 -91 779 398 
Q 353 888 353 1747 
Q 353 2609 779 3096 
Q 1206 3584 1959 3584 
z
" transform="scale(0.015625)"/>
       <path id="DejaVuSans-63" d="M 3122 3366 
L 3122 2828 
Q 2878 2963 2633 3030 
Q 2388 3097 2138 3097 
Q 1578 3097 1268 2742 
Q 959 2388 959 1747 
Q 959 1106 1268 751 
Q 1578 397 2138 397 
Q 2388 397 2633 464 
Q 2878 531 3122 666 
L 3122 134 
Q 2881 22 2623 -34 
Q 2366 -91 2075 -91 
Q 1284 -91 818 406 
Q 353 903 353 1747 
Q 353 2603 823 3093 
Q 1294 3584 2113 3584 
Q 2378 3584 2631 3529 
Q 2884 3475 3122 3366 
z
" transform="scale(0.015625)"/>
       <path id="DejaVuSans-68" d="M 3513 2113 
L 3513 0 
L 2938 0 
L 2938 2094 
Q 2938 2591 2744 2837 
Q 2550 3084 2163 3084 
Q 1697 3084 1428 2787 
Q 1159 2491 1159 1978 
L 1159 0 
L 581 0 
L 581 4863 
L 1159 4863 
L 1159 2956 
Q 1366 3272 1645 3428 
Q 1925 3584 2291 3584 
Q 2894 3584 3203 3211 
Q 3513 2838 3513 2113 
z
" transform="scale(0.015625)"/>
       <path id="DejaVuSans-73" d="M 2834 3397 
L 2834 2853 
Q 2591 2978 2328 3040 
Q 2066 3103 1784 3103 
Q 1356 3103 1142 2972 
Q 928 2841 928 2578 
Q 928 2378 1081 2264 
Q 1234 2150 1697 2047 
L 1894 2003 
Q 2506 1872 2764 1633 
Q 3022 1394 3022 966 
Q 3022 478 2636 193 
Q 2250 -91 1575 -91 
Q 1294 -91 989 -36 
Q 684 19 347 128 
L 347 722 
Q 666 556 975 473 
Q 1284 391 1588 391 
Q 1994 391 2212 530 
Q 2431 669 2431 922 
Q 2431 1156 2273 1281 
Q 2116 1406 1581 1522 
L 1381 1569 
Q 847 1681 609 1914 
Q 372 2147 372 2553 
Q 372 3047 722 3315 
Q 1072 3584 1716 3584 
Q 2034 3584 2315 3537 
Q 2597 3491 2834 3397 
z
" transform="scale(0.015625)"/>
      </defs>
      <use xlink:href="#DejaVuSans-45"/>
      <use xlink:href="#DejaVuSans-70" x="63.183594"/>
      <use xlink:href="#DejaVuSans-6f" x="126.660156"/>
      <use xlink:href="#DejaVuSans-63" x="187.841797"/>
      <use xlink:href="#DejaVuSans-68" x="242.822266"/>
      <use xlink:href="#DejaVuSans-73" x="306.201172"/>
     </g>
    </g>
   </g>
   <g id="matplotlib.axis_2">
    <g id="ytick_1">
     <g id="line2d_11">
      <defs>
       <path id="md6658b2dbd" d="M 0 0 
L -3.5 0 
" style="stroke: #000000; stroke-width: 0.8"/>
      </defs>
      <g>
       <use xlink:href="#md6658b2dbd" x="57.6" y="292.74811" style="stroke: #000000; stroke-width: 0.8"/>
      </g>
     </g>
     <g id="text_12">
      <!-- 30 -->
      <g transform="translate(37.875 296.547329) scale(0.1 -0.1)">
       <use xlink:href="#DejaVuSans-33"/>
       <use xlink:href="#DejaVuSans-30" x="63.623047"/>
      </g>
     </g>
    </g>
    <g id="ytick_2">
     <g id="line2d_12">
      <g>
       <use xlink:href="#md6658b2dbd" x="57.6" y="256.601803" style="stroke: #000000; stroke-width: 0.8"/>
      </g>
     </g>
     <g id="text_13">
      <!-- 40 -->
      <g transform="translate(37.875 260.401022) scale(0.1 -0.1)">
       <use xlink:href="#DejaVuSans-34"/>
       <use xlink:href="#DejaVuSans-30" x="63.623047"/>
      </g>
     </g>
    </g>
    <g id="ytick_3">
     <g id="line2d_13">
      <g>
       <use xlink:href="#md6658b2dbd" x="57.6" y="220.455497" style="stroke: #000000; stroke-width: 0.8"/>
      </g>
     </g>
     <g id="text_14">
      <!-- 50 -->
      <g transform="translate(37.875 224.254716) scale(0.1 -0.1)">
       <defs>
        <path id="DejaVuSans-35" d="M 691 4666 
L 3169 4666 
L 3169 4134 
L 1269 4134 
L 1269 2991 
Q 1406 3038 1543 3061 
Q 1681 3084 1819 3084 
Q 2600 3084 3056 2656 
Q 3513 2228 3513 1497 
Q 3513 744 3044 326 
Q 2575 -91 1722 -91 
Q 1428 -91 1123 -41 
Q 819 9 494 109 
L 494 744 
Q 775 591 1075 516 
Q 1375 441 1709 441 
Q 2250 441 2565 725 
Q 2881 1009 2881 1497 
Q 2881 1984 2565 2268 
Q 2250 2553 1709 2553 
Q 1456 2553 1204 2497 
Q 953 2441 691 2322 
L 691 4666 
z
" transform="scale(0.015625)"/>
       </defs>
       <use xlink:href="#DejaVuSans-35"/>
       <use xlink:href="#DejaVuSans-30" x="63.623047"/>
      </g>
     </g>
    </g>
    <g id="ytick_4">
     <g id="line2d_14">
      <g>
       <use xlink:href="#md6658b2dbd" x="57.6" y="184.309191" style="stroke: #000000; stroke-width: 0.8"/>
      </g>
     </g>
     <g id="text_15">
      <!-- 60 -->
      <g transform="translate(37.875 188.108409) scale(0.1 -0.1)">
       <use xlink:href="#DejaVuSans-36"/>
       <use xlink:href="#DejaVuSans-30" x="63.623047"/>
      </g>
     </g>
    </g>
    <g id="ytick_5">
     <g id="line2d_15">
      <g>
       <use xlink:href="#md6658b2dbd" x="57.6" y="148.162884" style="stroke: #000000; stroke-width: 0.8"/>
      </g>
     </g>
     <g id="text_16">
      <!-- 70 -->
      <g transform="translate(37.875 151.962103) scale(0.1 -0.1)">
       <use xlink:href="#DejaVuSans-37"/>
       <use xlink:href="#DejaVuSans-30" x="63.623047"/>
      </g>
     </g>
    </g>
    <g id="ytick_6">
     <g id="line2d_16">
      <g>
       <use xlink:href="#md6658b2dbd" x="57.6" y="112.016578" style="stroke: #000000; stroke-width: 0.8"/>
      </g>
     </g>
     <g id="text_17">
      <!-- 80 -->
      <g transform="translate(37.875 115.815796) scale(0.1 -0.1)">
       <defs>
        <path id="DejaVuSans-38" d="M 2034 2216 
Q 1584 2216 1326 1975 
Q 1069 1734 1069 1313 
Q 1069 891 1326 650 
Q 1584 409 2034 409 
Q 2484 409 2743 651 
Q 3003 894 3003 1313 
Q 3003 1734 2745 1975 
Q 2488 2216 2034 2216 
z
M 1403 2484 
Q 997 2584 770 2862 
Q 544 3141 544 3541 
Q 544 4100 942 4425 
Q 1341 4750 2034 4750 
Q 2731 4750 3128 4425 
Q 3525 4100 3525 3541 
Q 3525 3141 3298 2862 
Q 3072 2584 2669 2484 
Q 3125 2378 3379 2068 
Q 3634 1759 3634 1313 
Q 3634 634 3220 271 
Q 2806 -91 2034 -91 
Q 1263 -91 848 271 
Q 434 634 434 1313 
Q 434 1759 690 2068 
Q 947 2378 1403 2484 
z
M 1172 3481 
Q 1172 3119 1398 2916 
Q 1625 2713 2034 2713 
Q 2441 2713 2670 2916 
Q 2900 3119 2900 3481 
Q 2900 3844 2670 4047 
Q 2441 4250 2034 4250 
Q 1625 4250 1398 4047 
Q 1172 3844 1172 3481 
z
" transform="scale(0.015625)"/>
       </defs>
       <use xlink:href="#DejaVuSans-38"/>
       <use xlink:href="#DejaVuSans-30" x="63.623047"/>
      </g>
     </g>
    </g>
    <g id="ytick_7">
     <g id="line2d_17">
      <g>
       <use xlink:href="#md6658b2dbd" x="57.6" y="75.870271" style="stroke: #000000; stroke-width: 0.8"/>
      </g>
     </g>
     <g id="text_18">
      <!-- 90 -->
      <g transform="translate(37.875 79.66949) scale(0.1 -0.1)">
       <defs>
        <path id="DejaVuSans-39" d="M 703 97 
L 703 672 
Q 941 559 1184 500 
Q 1428 441 1663 441 
Q 2288 441 2617 861 
Q 2947 1281 2994 2138 
Q 2813 1869 2534 1725 
Q 2256 1581 1919 1581 
Q 1219 1581 811 2004 
Q 403 2428 403 3163 
Q 403 3881 828 4315 
Q 1253 4750 1959 4750 
Q 2769 4750 3195 4129 
Q 3622 3509 3622 2328 
Q 3622 1225 3098 567 
Q 2575 -91 1691 -91 
Q 1453 -91 1209 -44 
Q 966 3 703 97 
z
M 1959 2075 
Q 2384 2075 2632 2365 
Q 2881 2656 2881 3163 
Q 2881 3666 2632 3958 
Q 2384 4250 1959 4250 
Q 1534 4250 1286 3958 
Q 1038 3666 1038 3163 
Q 1038 2656 1286 2365 
Q 1534 2075 1959 2075 
z
" transform="scale(0.015625)"/>
       </defs>
       <use xlink:href="#DejaVuSans-39"/>
       <use xlink:href="#DejaVuSans-30" x="63.623047"/>
      </g>
     </g>
    </g>
    <g id="text_19">
     <!-- Accuracy -->
     <g transform="translate(31.795312 197.356125) rotate(-90) scale(0.1 -0.1)">
      <defs>
       <path id="DejaVuSans-41" d="M 2188 4044 
L 1331 1722 
L 3047 1722 
L 2188 4044 
z
M 1831 4666 
L 2547 4666 
L 4325 0 
L 3669 0 
L 3244 1197 
L 1141 1197 
L 716 0 
L 50 0 
L 1831 4666 
z
" transform="scale(0.015625)"/>
       <path id="DejaVuSans-75" d="M 544 1381 
L 544 3500 
L 1119 3500 
L 1119 1403 
Q 1119 906 1312 657 
Q 1506 409 1894 409 
Q 2359 409 2629 706 
Q 2900 1003 2900 1516 
L 2900 3500 
L 3475 3500 
L 3475 0 
L 2900 0 
L 2900 538 
Q 2691 219 2414 64 
Q 2138 -91 1772 -91 
Q 1169 -91 856 284 
Q 544 659 544 1381 
z
M 1991 3584 
L 1991 3584 
z
" transform="scale(0.015625)"/>
       <path id="DejaVuSans-72" d="M 2631 2963 
Q 2534 3019 2420 3045 
Q 2306 3072 2169 3072 
Q 1681 3072 1420 2755 
Q 1159 2438 1159 1844 
L 1159 0 
L 581 0 
L 581 3500 
L 1159 3500 
L 1159 2956 
Q 1341 3275 1631 3429 
Q 1922 3584 2338 3584 
Q 2397 3584 2469 3576 
Q 2541 3569 2628 3553 
L 2631 2963 
z
" transform="scale(0.015625)"/>
       <path id="DejaVuSans-61" d="M 2194 1759 
Q 1497 1759 1228 1600 
Q 959 1441 959 1056 
Q 959 750 1161 570 
Q 1363 391 1709 391 
Q 2188 391 2477 730 
Q 2766 1069 2766 1631 
L 2766 1759 
L 2194 1759 
z
M 3341 1997 
L 3341 0 
L 2766 0 
L 2766 531 
Q 2569 213 2275 61 
Q 1981 -91 1556 -91 
Q 1019 -91 701 211 
Q 384 513 384 1019 
Q 384 1609 779 1909 
Q 1175 2209 1959 2209 
L 2766 2209 
L 2766 2266 
Q 2766 2663 2505 2880 
Q 2244 3097 1772 3097 
Q 1472 3097 1187 3025 
Q 903 2953 641 2809 
L 641 3341 
Q 956 3463 1253 3523 
Q 1550 3584 1831 3584 
Q 2591 3584 2966 3190 
Q 3341 2797 3341 1997 
z
" transform="scale(0.015625)"/>
       <path id="DejaVuSans-79" d="M 2059 -325 
Q 1816 -950 1584 -1140 
Q 1353 -1331 966 -1331 
L 506 -1331 
L 506 -850 
L 844 -850 
Q 1081 -850 1212 -737 
Q 1344 -625 1503 -206 
L 1606 56 
L 191 3500 
L 800 3500 
L 1894 763 
L 2988 3500 
L 3597 3500 
L 2059 -325 
z
" transform="scale(0.015625)"/>
      </defs>
      <use xlink:href="#DejaVuSans-41"/>
      <use xlink:href="#DejaVuSans-63" x="66.658203"/>
      <use xlink:href="#DejaVuSans-63" x="121.638672"/>
      <use xlink:href="#DejaVuSans-75" x="176.619141"/>
      <use xlink:href="#DejaVuSans-72" x="239.998047"/>
      <use xlink:href="#DejaVuSans-61" x="281.111328"/>
      <use xlink:href="#DejaVuSans-63" x="342.390625"/>
      <use xlink:href="#DejaVuSans-79" x="397.371094"/>
     </g>
    </g>
   </g>
   <g id="line2d_18">
    <path d="M 73.832727 295.488 
L 74.918528 234.162176 
L 76.00433 201.83292 
L 77.090131 183.962186 
L 78.175932 171.448335 
L 79.261733 163.517835 
L 81.433335 151.148569 
L 82.519137 147.1291 
L 83.604938 140.86133 
L 84.690739 138.793761 
L 85.77654 135.923745 
L 86.862341 132.25128 
L 87.948142 127.971557 
L 89.033943 126.106408 
L 90.119745 124.002693 
L 91.205546 121.58812 
L 92.291347 118.103616 
L 93.377148 116.997539 
L 94.462949 117.481899 
L 95.54875 139.769712 
L 96.634552 139.791399 
L 97.720353 137.767206 
L 98.806154 136.053871 
L 99.891955 134.846585 
L 100.977756 131.983797 
L 103.149358 129.041488 
L 104.23516 128.065538 
L 105.320961 125.30396 
L 106.406762 124.595492 
L 107.492563 122.809865 
L 108.578364 121.891749 
L 109.664165 121.826685 
L 110.749967 119.412112 
L 111.835768 118.371098 
L 112.921569 117.655401 
L 115.093171 114.749238 
L 116.178972 112.544314 
L 117.264773 112.920235 
L 118.350575 111.676802 
L 119.436376 109.797194 
L 120.522177 108.423635 
L 121.607978 107.505519 
L 123.77958 105.23553 
L 124.865382 103.392069 
L 127.036984 101.490773 
L 128.122785 99.719604 
L 129.208586 99.336453 
L 130.294387 98.027957 
L 131.380189 98.078562 
L 132.46599 98.280981 
L 133.551791 96.770066 
L 134.637592 95.642301 
L 135.723393 95.092877 
L 136.809194 95.880866 
L 137.894995 96.133891 
L 138.980797 118.963898 
L 140.066598 120.474813 
L 141.152399 120.055516 
L 142.2382 118.392786 
L 144.409802 116.737285 
L 145.495604 117.987947 
L 146.581405 115.255287 
L 148.753007 114.655258 
L 149.838808 113.823893 
L 150.924609 113.245552 
L 152.01041 113.303386 
L 153.096212 112.139475 
L 154.182013 113.151572 
L 155.267814 113.129884 
L 156.353615 111.691261 
L 157.439416 111.076774 
L 158.525217 111.01894 
L 159.611019 109.500795 
L 160.69682 110.252638 
L 161.782621 108.185069 
L 162.868422 109.081497 
L 163.954223 107.751313 
L 165.040024 106.638007 
L 166.125825 107.454914 
L 167.211627 106.197022 
L 168.297428 106.291003 
L 169.383229 105.300594 
L 170.46903 104.787316 
L 171.554831 105.062028 
L 172.640632 103.898117 
L 173.726434 103.608947 
L 174.812235 102.510099 
L 175.898036 102.539016 
L 176.983837 103.587259 
L 178.069638 101.498002 
L 179.155439 102.351055 
L 180.24124 101.396793 
L 181.327042 100.073838 
L 182.412843 100.767847 
L 183.498644 100.355779 
L 184.584445 98.4834 
L 186.756047 97.652035 
L 187.841849 97.514679 
L 188.92765 96.350768 
L 190.013451 96.741148 
L 191.099252 95.967617 
L 192.185053 94.861541 
L 193.270854 94.96275 
L 194.356656 94.789248 
L 195.442457 92.90964 
L 196.528258 92.208402 
L 197.614059 92.591552 
L 198.69986 91.825251 
L 199.785661 91.326432 
L 200.871462 90.646881 
L 201.957264 90.126374 
L 203.043065 88.904629 
L 204.128866 88.760044 
L 205.214667 88.01543 
L 206.300468 88.340747 
L 207.386269 87.458777 
L 208.472071 87.422631 
L 209.557872 86.858748 
L 210.643673 86.605724 
L 211.729474 86.179198 
L 212.815275 85.232164 
L 213.901076 85.261082 
L 214.986877 85.17433 
L 216.072679 85.398437 
L 217.15848 84.502009 
L 218.244281 84.248985 
L 220.415883 83.424849 
L 221.501684 84.567072 
L 222.587486 84.704428 
L 223.673287 84.646594 
L 224.759088 84.408029 
L 225.844889 107.88144 
L 226.93069 109.64538 
L 228.016491 110.346618 
L 229.102292 108.503157 
L 230.188094 108.770639 
L 231.273895 108.626054 
L 232.359696 108.279049 
L 233.445497 107.368163 
L 234.531298 108.828473 
L 235.617099 107.324787 
L 236.702901 107.512748 
L 237.788702 106.442817 
L 238.874503 106.797051 
L 239.960304 105.690974 
L 241.046105 105.784954 
L 242.131906 105.343969 
L 243.217708 106.211481 
L 244.303509 104.396936 
L 245.38931 103.811366 
L 246.475111 104.433082 
L 247.560912 104.317414 
L 248.646713 103.804137 
L 249.732514 104.028244 
L 250.818316 104.433082 
L 251.904117 103.522196 
L 252.989918 103.016147 
L 254.075719 103.124586 
L 255.16152 102.20647 
L 256.247321 102.10526 
L 257.333123 102.524557 
L 258.418924 102.423348 
L 259.504725 102.755894 
L 260.590526 101.982363 
L 262.762128 101.447398 
L 263.847929 101.801631 
L 264.933731 101.396793 
L 266.019532 101.823319 
L 267.105333 100.673867 
L 268.191134 100.363008 
L 269.276935 100.991954 
L 270.362736 100.710013 
L 271.448538 99.849731 
L 272.534339 100.131672 
L 273.62014 99.820814 
L 274.705941 99.321995 
L 275.791742 100.240111 
L 276.877543 99.632853 
L 277.963344 99.668999 
L 279.049146 98.671361 
L 280.134947 99.061741 
L 281.220748 98.649673 
L 282.306549 98.67859 
L 283.39235 97.868913 
L 284.478151 97.594201 
L 285.563953 97.977352 
L 286.649754 97.377323 
L 287.735555 98.208689 
L 288.821356 97.052007 
L 289.907157 97.926747 
L 290.992958 97.131529 
L 292.07876 96.929109 
L 293.164561 95.808574 
L 294.250362 96.965256 
L 295.336163 96.2351 
L 296.421964 96.835129 
L 297.507765 95.924242 
L 298.593566 95.880866 
L 299.679368 94.362721 
L 300.765169 95.447111 
L 301.85097 94.051863 
L 302.936771 93.798839 
L 305.108373 94.290429 
L 306.194175 93.314479 
L 307.279976 93.314479 
L 308.365777 92.765055 
L 310.537379 93.777151 
L 311.62318 92.143338 
L 312.708981 92.649387 
L 313.794783 92.584323 
L 314.880584 90.993886 
L 315.966385 91.977065 
L 317.052186 91.53608 
L 318.137987 92.013212 
L 319.223788 90.842071 
L 320.30959 90.683027 
L 321.395391 91.391495 
L 322.481192 89.916726 
L 323.566993 90.408316 
L 324.652794 89.013068 
L 325.738595 89.295009 
L 326.824396 89.164883 
L 327.910198 89.555263 
L 328.995999 88.651605 
L 330.0818 87.91422 
L 331.167601 89.38176 
L 332.253402 88.000972 
L 333.339203 87.357567 
L 334.425005 87.400943 
L 335.510806 86.981646 
L 336.596607 87.53107 
L 337.682408 85.694837 
L 338.768209 85.66592 
L 339.85401 86.193656 
L 340.939811 85.188789 
L 342.025613 86.049071 
L 343.111414 85.890027 
L 344.197215 84.552614 
L 345.283016 84.682741 
L 346.368817 84.241756 
L 347.454618 83.460995 
L 348.54042 83.851376 
L 349.626221 83.844146 
L 350.712022 83.663415 
L 351.797823 82.983864 
L 352.883624 82.846508 
L 355.055227 81.668139 
L 356.141028 82.369377 
L 357.226829 81.971768 
L 358.31263 80.937983 
L 359.398431 80.952442 
L 360.484232 81.118715 
L 361.570033 80.309038 
L 362.655835 80.829544 
L 363.741636 79.868053 
L 364.827437 80.034326 
L 365.913238 79.853594 
L 368.08484 80.496998 
L 369.170642 79.882511 
L 370.256443 81.031964 
L 371.342244 81.733202 
L 372.428045 82.976635 
L 373.513846 83.034469 
L 374.599647 82.911572 
L 375.685448 83.280264 
L 376.77125 82.282626 
L 377.857051 82.43444 
L 378.942852 83.193513 
L 380.028653 81.84887 
L 381.114454 82.810362 
L 383.286057 82.448899 
L 384.371858 82.998323 
L 385.457659 83.374244 
L 387.629261 82.14527 
L 388.715062 82.92603 
L 389.800863 82.745299 
L 390.886665 82.680235 
L 391.972466 83.092303 
L 393.058267 83.381474 
L 394.144068 82.73084 
L 395.229869 83.945356 
L 396.31567 82.615172 
L 397.401472 81.906704 
L 398.487273 83.092303 
L 398.487273 83.092303 
" clip-path="url(#p9b524ae6dd)" style="fill: none; stroke: #1f77b4; stroke-width: 1.5; stroke-linecap: square"/>
   </g>
   <g id="line2d_19">
    <path d="M 73.832727 222.335105 
L 74.918528 176.646174 
L 76.00433 144.078351 
L 77.090131 134.029678 
L 78.175932 139.017869 
L 79.261733 115.197453 
L 80.347534 118.667498 
L 81.433335 103.77522 
L 82.519137 101.136539 
L 83.604938 95.425423 
L 84.690739 98.67859 
L 85.77654 96.437519 
L 86.862341 91.232451 
L 87.948142 84.328507 
L 89.033943 83.02724 
L 90.119745 82.521191 
L 91.205546 77.858318 
L 92.291347 78.436659 
L 93.377148 78.111342 
L 94.462949 78.219781 
L 95.54875 92.967474 
L 96.634552 92.678304 
L 97.720353 99.148492 
L 98.806154 96.365227 
L 99.891955 91.449329 
L 100.977756 88.593771 
L 102.063557 88.413039 
L 103.149358 89.533575 
L 104.23516 83.569434 
L 105.320961 85.702066 
L 107.492563 79.774072 
L 108.578364 84.364653 
L 109.664165 80.28012 
L 110.749967 76.66549 
L 111.835768 74.785882 
L 112.921569 75.29193 
L 114.00737 75.617247 
L 115.093171 73.448469 
L 117.264773 73.123152 
L 118.350575 70.954373 
L 119.436376 74.135248 
L 120.522177 71.243544 
L 121.607978 70.267594 
L 122.693779 69.074765 
L 123.77958 69.761545 
L 124.865382 68.821741 
L 125.951183 66.725256 
L 127.036984 66.797548 
L 128.122785 67.95423 
L 129.208586 64.809501 
L 130.294387 65.749305 
L 131.380189 64.881794 
L 132.46599 64.809501 
L 133.551791 63.905844 
L 134.637592 64.701062 
L 135.723393 63.399795 
L 136.809194 63.544381 
L 137.894995 64.050429 
L 138.980797 79.231878 
L 140.066598 80.930754 
L 141.152399 82.846508 
L 142.2382 75.544954 
L 143.324001 78.472805 
L 144.409802 78.834268 
L 145.495604 82.05129 
L 146.581405 74.569004 
L 147.667206 77.279977 
L 148.753007 75.97871 
L 149.838808 74.31598 
L 150.924609 73.195444 
L 152.01041 73.846078 
L 153.096212 75.834125 
L 154.182013 73.448469 
L 155.267814 74.099102 
L 156.353615 71.135105 
L 157.439416 74.31598 
L 158.525217 73.701493 
L 159.611019 69.689253 
L 160.69682 71.532714 
L 161.782621 70.773642 
L 162.868422 72.002616 
L 163.954223 70.629057 
L 165.040024 70.918227 
L 166.125825 67.990376 
L 167.211627 68.894034 
L 168.297428 70.701349 
L 169.383229 68.098815 
L 170.46903 68.171108 
L 171.554831 66.97828 
L 172.640632 68.171108 
L 173.726434 68.460278 
L 174.812235 66.472231 
L 175.898036 68.062669 
L 176.983837 67.556621 
L 178.069638 66.689109 
L 179.155439 68.279547 
L 180.24124 68.713302 
L 181.327042 65.966183 
L 182.412843 63.725112 
L 183.498644 66.652963 
L 184.584445 66.002329 
L 185.670246 67.809645 
L 186.756047 64.050429 
L 187.841849 63.002186 
L 188.92765 63.363649 
L 190.013451 64.267307 
L 191.099252 63.65282 
L 192.185053 62.857601 
L 193.270854 63.291356 
L 195.442457 61.990089 
L 196.528258 62.749162 
L 197.614059 61.990089 
L 198.69986 60.146628 
L 200.871462 60.363506 
L 201.957264 60.074335 
L 203.043065 58.736922 
L 204.128866 60.002043 
L 205.214667 58.989946 
L 206.300468 58.26702 
L 207.386269 59.495994 
L 208.472071 58.736922 
L 209.557872 58.194727 
L 211.729474 57.797118 
L 212.815275 57.29107 
L 213.901076 57.58024 
L 214.986877 57.363362 
L 216.072679 57.399508 
L 218.244281 57.038045 
L 219.330082 57.977849 
L 220.415883 57.110338 
L 221.501684 56.857314 
L 222.587486 56.857314 
L 223.673287 57.218777 
L 224.759088 56.748875 
L 225.844889 70.99052 
L 226.93069 70.882081 
L 228.016491 73.773785 
L 229.102292 70.59291 
L 230.188094 71.207398 
L 231.273895 71.243544 
L 232.359696 72.002616 
L 233.445497 73.484615 
L 234.531298 75.942564 
L 235.617099 71.171251 
L 236.702901 73.34003 
L 237.788702 72.147202 
L 238.874503 70.086862 
L 239.960304 69.32779 
L 241.046105 70.809788 
L 242.131906 68.966327 
L 243.217708 70.556764 
L 244.303509 68.604863 
L 245.38931 66.110768 
L 246.475111 67.881937 
L 247.560912 67.086719 
L 248.646713 69.689253 
L 249.732514 68.64101 
L 250.818316 68.171108 
L 254.075719 69.400082 
L 255.16152 70.050716 
L 256.247321 68.749449 
L 257.333123 67.231304 
L 258.418924 67.990376 
L 259.504725 67.195158 
L 260.590526 67.701206 
L 262.762128 65.098672 
L 263.847929 67.122865 
L 264.933731 67.556621 
L 266.019532 67.086719 
L 267.105333 67.050572 
L 268.191134 64.23116 
L 269.276935 69.147058 
L 270.362736 67.520474 
L 271.448538 67.881937 
L 272.534339 65.930037 
L 273.62014 66.761402 
L 274.705941 65.677013 
L 275.791742 66.689109 
L 276.877543 65.713159 
L 277.963344 65.423989 
L 279.049146 63.688966 
L 280.134947 66.2915 
L 281.220748 66.074622 
L 282.306549 66.942133 
L 283.39235 64.339599 
L 284.478151 64.375746 
L 285.563953 65.062525 
L 286.649754 64.086575 
L 287.735555 65.243257 
L 289.907157 66.58067 
L 290.992958 63.002186 
L 292.07876 62.459991 
L 293.164561 63.472088 
L 294.250362 65.785452 
L 295.336163 66.183061 
L 296.421964 61.953943 
L 297.507765 62.893747 
L 298.593566 64.701062 
L 299.679368 64.990233 
L 300.765169 63.146771 
L 301.85097 62.929893 
L 302.936771 64.809501 
L 304.022572 62.170821 
L 305.108373 62.387699 
L 306.194175 61.990089 
L 307.279976 61.050285 
L 308.365777 61.88165 
L 309.451578 62.243114 
L 310.537379 61.737065 
L 311.62318 60.110481 
L 312.708981 60.688822 
L 313.794783 61.628626 
L 314.880584 60.182774 
L 315.966385 61.447895 
L 317.052186 59.351409 
L 318.137987 60.435798 
L 319.223788 60.435798 
L 321.395391 60.110481 
L 322.481192 62.604577 
L 323.566993 60.435798 
L 324.652794 59.568287 
L 325.738595 59.351409 
L 326.824396 58.628483 
L 327.910198 59.640579 
L 330.0818 58.55619 
L 331.167601 59.604433 
L 332.253402 58.26702 
L 333.339203 58.664629 
L 334.425005 58.917653 
L 335.510806 58.845361 
L 336.596607 57.977849 
L 337.682408 57.471801 
L 338.768209 57.797118 
L 339.85401 58.447751 
L 340.939811 57.760972 
L 342.025613 57.616386 
L 343.111414 57.760972 
L 344.197215 56.712729 
L 345.283016 57.977849 
L 346.368817 55.881364 
L 347.454618 57.110338 
L 348.54042 56.965753 
L 349.626221 56.025949 
L 350.712022 55.700632 
L 351.797823 55.700632 
L 352.883624 56.098241 
L 353.969425 55.519901 
L 355.055227 55.736778 
L 356.141028 54.616243 
L 357.226829 55.881364 
L 358.31263 54.724682 
L 359.398431 54.833121 
L 360.484232 54.507804 
L 362.655835 55.086145 
L 363.741636 54.796974 
L 364.827437 54.218634 
L 365.913238 55.194584 
L 366.999039 55.122291 
L 368.08484 55.628339 
L 369.170642 55.339169 
L 370.256443 55.91751 
L 371.342244 55.772925 
L 372.428045 56.712729 
L 373.513846 56.278973 
L 374.599647 56.351266 
L 375.685448 56.89346 
L 376.77125 56.315119 
L 377.857051 56.20668 
L 378.942852 57.254923 
L 380.028653 56.134388 
L 381.114454 56.170534 
L 382.200255 55.736778 
L 383.286057 56.531997 
L 384.371858 56.278973 
L 385.457659 57.86941 
L 386.54346 56.242827 
L 387.629261 58.483898 
L 388.715062 57.182631 
L 389.800863 57.471801 
L 390.886665 55.519901 
L 391.972466 56.098241 
L 393.058267 57.074192 
L 394.144068 55.881364 
L 396.31567 55.447608 
L 397.401472 56.531997 
L 398.487273 56.459705 
L 398.487273 56.459705 
" clip-path="url(#p9b524ae6dd)" style="fill: none; stroke: #ff7f0e; stroke-width: 1.5; stroke-linecap: square"/>
   </g>
   <g id="line2d_20">
    <path d="M 73.832727 246.530695 
L 74.918528 208.838822 
L 76.00433 184.708046 
L 77.090131 173.963868 
L 78.175932 183.735835 
L 79.261733 155.093004 
L 80.347534 162.795906 
L 81.433335 148.187813 
L 82.519137 144.697824 
L 83.604938 142.155119 
L 84.690739 140.459982 
L 85.77654 140.011269 
L 86.862341 136.022711 
L 87.948142 122.935255 
L 89.033943 123.932394 
L 90.119745 122.735827 
L 91.205546 115.356995 
L 92.291347 117.525773 
L 93.377148 116.578491 
L 94.462949 116.204563 
L 95.54875 137.643062 
L 96.634552 137.244207 
L 97.720353 145.146537 
L 98.806154 139.014129 
L 99.891955 135.075428 
L 102.063557 125.128962 
L 103.149358 128.918092 
L 104.23516 122.68597 
L 105.320961 127.846167 
L 106.406762 121.314903 
L 107.492563 119.39541 
L 108.578364 124.381107 
L 110.749967 117.924629 
L 111.835768 113.412573 
L 112.921569 114.459569 
L 114.00737 113.936071 
L 115.093171 111.667579 
L 116.178972 112.96386 
L 118.350575 108.052948 
L 119.436376 112.664718 
L 120.522177 110.645511 
L 121.607978 105.585028 
L 122.693779 107.305093 
L 123.77958 104.612817 
L 125.951183 102.967537 
L 127.036984 101.222543 
L 128.122785 101.546613 
L 129.208586 98.605051 
L 130.294387 99.477549 
L 131.380189 97.48327 
L 132.46599 96.16206 
L 133.551791 94.192709 
L 134.637592 96.137131 
L 135.723393 94.641422 
L 136.809194 94.192709 
L 137.894995 94.541708 
L 138.980797 115.780779 
L 140.066598 126.599743 
L 141.152399 126.6496 
L 142.2382 114.983068 
L 143.324001 118.223771 
L 144.409802 117.002275 
L 145.495604 123.034969 
L 146.581405 113.711715 
L 147.667206 115.057853 
L 148.753007 115.157567 
L 149.838808 116.079921 
L 150.924609 111.193937 
L 152.01041 110.246655 
L 153.096212 118.348413 
L 154.182013 113.362716 
L 155.267814 112.290791 
L 156.353615 106.806524 
L 157.439416 118.423199 
L 158.525217 115.032925 
L 159.611019 110.296512 
L 160.69682 110.645511 
L 161.782621 107.85352 
L 162.868422 111.019438 
L 163.954223 110.196798 
L 165.040024 107.180451 
L 166.125825 104.687602 
L 167.211627 107.803663 
L 168.297428 110.570725 
L 169.383229 105.435457 
L 170.46903 107.629164 
L 171.554831 103.491035 
L 172.640632 103.491035 
L 173.726434 104.338604 
L 175.898036 105.759527 
L 176.983837 99.602191 
L 178.069638 102.369253 
L 179.155439 103.316536 
L 180.24124 106.133455 
L 181.327042 99.203335 
L 182.412843 95.289563 
L 183.498644 99.901333 
L 184.584445 100.549473 
L 185.670246 98.505337 
L 186.756047 95.389277 
L 187.841849 97.009628 
L 188.92765 96.710486 
L 190.013451 94.466923 
L 191.099252 97.258913 
L 192.185053 95.33942 
L 193.270854 95.040278 
L 194.356656 92.547429 
L 195.442457 91.650004 
L 196.528258 94.142852 
L 197.614059 93.494712 
L 198.69986 92.148573 
L 200.871462 92.173502 
L 201.957264 93.644282 
L 203.043065 91.500433 
L 204.128866 91.026791 
L 205.214667 91.251148 
L 206.300468 91.05172 
L 207.386269 88.234801 
L 208.472071 88.359443 
L 209.557872 87.711303 
L 210.643673 87.811016 
L 211.729474 88.259729 
L 212.815275 85.61731 
L 213.901076 86.739092 
L 214.986877 86.938519 
L 216.072679 86.464878 
L 217.15848 86.639378 
L 218.244281 85.866594 
L 219.330082 86.689235 
L 220.415883 85.61731 
L 221.501684 85.766881 
L 222.587486 85.368025 
L 223.673287 86.115879 
L 224.759088 85.766881 
L 225.844889 109.424015 
L 226.93069 108.252376 
L 228.016491 112.440362 
L 229.102292 110.620582 
L 230.188094 111.518008 
L 231.273895 109.523729 
L 232.359696 115.381923 
L 233.445497 111.343508 
L 234.531298 114.509426 
L 235.617099 105.136315 
L 236.702901 108.401947 
L 237.788702 112.914003 
L 238.874503 101.92054 
L 241.046105 108.302233 
L 242.131906 106.108526 
L 243.217708 107.579307 
L 244.303509 101.995326 
L 245.38931 101.048043 
L 246.475111 103.74032 
L 247.560912 99.726833 
L 248.646713 106.781595 
L 249.732514 105.011673 
L 250.818316 106.70681 
L 251.904117 104.662674 
L 252.989918 103.640606 
L 254.075719 106.307954 
L 255.16152 103.790177 
L 256.247321 106.233169 
L 257.333123 100.59933 
L 258.418924 103.540892 
L 259.504725 105.06153 
L 260.590526 103.491035 
L 261.676327 101.372114 
L 262.762128 100.699044 
L 263.847929 103.191893 
L 264.933731 106.20824 
L 266.019532 104.862102 
L 267.105333 101.222543 
L 268.191134 99.676976 
L 269.276935 105.011673 
L 270.362736 104.587888 
L 271.448538 102.992465 
L 272.534339 101.746041 
L 273.62014 101.92054 
L 274.705941 98.929122 
L 275.791742 104.762388 
L 276.877543 99.352906 
L 277.963344 98.904193 
L 279.049146 95.488991 
L 280.134947 100.848615 
L 281.220748 102.91768 
L 282.306549 104.039462 
L 283.39235 99.003907 
L 284.478151 98.006768 
L 285.563953 99.851476 
L 286.649754 98.031696 
L 287.735555 97.981839 
L 288.821356 99.228264 
L 289.907157 103.690463 
L 290.992958 96.062346 
L 292.07876 91.450576 
L 293.164561 98.480409 
L 294.250362 97.832268 
L 295.336163 101.397042 
L 296.421964 97.408484 
L 297.507765 96.959771 
L 298.593566 100.624259 
L 299.679368 99.552334 
L 300.765169 99.053764 
L 301.85097 97.533126 
L 302.936771 99.851476 
L 304.022572 95.862918 
L 305.108373 94.317352 
L 306.194175 91.949145 
L 307.279976 93.968353 
L 308.365777 95.638561 
L 309.451578 92.422787 
L 310.537379 94.965492 
L 311.62318 91.55029 
L 312.708981 92.522501 
L 313.794783 94.51678 
L 314.880584 92.622215 
L 315.966385 95.563776 
L 317.052186 89.680653 
L 318.137987 91.824503 
L 319.223788 93.569497 
L 320.30959 92.622215 
L 321.395391 90.353722 
L 322.481192 94.716207 
L 323.566993 92.048859 
L 324.652794 91.101577 
L 326.824396 90.752578 
L 327.910198 88.509014 
L 328.995999 89.680653 
L 330.0818 88.833084 
L 331.167601 89.531082 
L 332.253402 88.558871 
L 333.339203 88.035373 
L 334.425005 86.913591 
L 335.510806 91.525361 
L 336.596607 87.611589 
L 337.682408 89.23194 
L 338.768209 87.661446 
L 339.85401 88.633657 
L 340.939811 87.58666 
L 342.025613 86.340236 
L 343.111414 85.891523 
L 344.197215 86.115879 
L 345.283016 88.683514 
L 346.368817 84.844526 
L 347.454618 85.019026 
L 348.54042 85.068883 
L 349.626221 83.149389 
L 350.712022 84.2961 
L 351.797823 82.47632 
L 352.883624 82.501249 
L 353.969425 84.321028 
L 355.055227 83.348817 
L 358.31263 82.750534 
L 359.398431 81.628752 
L 360.484232 82.077464 
L 361.570033 81.454252 
L 362.655835 82.002679 
L 363.741636 81.254824 
L 364.827437 80.681469 
L 365.913238 79.808972 
L 369.170642 81.553966 
L 370.256443 82.47632 
L 371.342244 82.251964 
L 372.428045 85.467739 
L 373.513846 82.451392 
L 374.599647 86.26545 
L 375.685448 83.697816 
L 376.77125 84.595242 
L 377.857051 84.744813 
L 378.942852 87.113019 
L 380.028653 85.61731 
L 381.114454 82.526177 
L 382.200255 84.819598 
L 383.286057 86.165736 
L 384.371858 85.168597 
L 385.457659 86.813877 
L 386.54346 82.999818 
L 387.629261 89.531082 
L 388.715062 84.694956 
L 389.800863 85.243382 
L 390.886665 83.697816 
L 391.972466 86.190665 
L 393.058267 86.115879 
L 394.144068 84.171457 
L 395.229869 84.844526 
L 396.31567 84.894383 
L 397.401472 85.891523 
L 398.487273 84.420742 
L 398.487273 84.420742 
" clip-path="url(#p9b524ae6dd)" style="fill: none; stroke: #2ca02c; stroke-width: 1.5; stroke-linecap: square"/>
   </g>
   <g id="line2d_21">
    <path d="M 368.08484 54.146341 
L 369.170642 54.869267 
L 370.256443 53.568 
L 371.342244 54.290926 
L 372.428045 54.399365 
L 373.513846 54.327072 
L 374.599647 55.519901 
L 375.685448 54.110195 
L 378.942852 54.688536 
L 380.028653 54.760828 
L 381.114454 53.712585 
L 382.200255 53.748732 
L 383.286057 54.074048 
L 384.371858 55.23073 
L 385.457659 54.580097 
L 386.54346 54.399365 
L 387.629261 54.471658 
L 388.715062 54.724682 
L 389.800863 54.580097 
L 390.886665 54.25478 
L 391.972466 54.652389 
L 393.058267 53.85717 
L 394.144068 54.218634 
L 395.229869 55.086145 
L 396.31567 54.25478 
L 397.401472 54.037902 
L 398.487273 54.471658 
L 398.487273 54.471658 
" clip-path="url(#p9b524ae6dd)" style="fill: none; stroke: #d62728; stroke-width: 1.5; stroke-linecap: square"/>
   </g>
   <g id="line2d_22">
    <path d="M 368.08484 79.734187 
L 369.170642 79.110974 
L 370.256443 78.911547 
L 371.342244 80.232756 
L 372.428045 80.905826 
L 373.513846 80.157971 
L 374.599647 81.97775 
L 375.685448 79.659401 
L 376.77125 79.435045 
L 377.857051 78.512691 
L 378.942852 78.911547 
L 380.028653 80.058257 
L 381.114454 81.404395 
L 382.200255 80.207828 
L 383.286057 79.210688 
L 384.371858 81.404395 
L 385.457659 80.033328 
L 386.54346 81.878037 
L 387.629261 81.105253 
L 388.715062 80.806112 
L 389.800863 79.435045 
L 390.886665 79.235617 
L 391.972466 80.656541 
L 393.058267 79.858829 
L 394.144068 79.858829 
L 395.229869 82.97489 
L 396.31567 80.232756 
L 397.401472 80.033328 
L 398.487273 80.930754 
L 398.487273 80.930754 
" clip-path="url(#p9b524ae6dd)" style="fill: none; stroke: #9467bd; stroke-width: 1.5; stroke-linecap: square"/>
   </g>
   <g id="patch_3">
    <path d="M 57.6 307.584 
L 57.6 41.472 
" style="fill: none; stroke: #000000; stroke-width: 0.8; stroke-linejoin: miter; stroke-linecap: square"/>
   </g>
   <g id="patch_4">
    <path d="M 414.72 307.584 
L 414.72 41.472 
" style="fill: none; stroke: #000000; stroke-width: 0.8; stroke-linejoin: miter; stroke-linecap: square"/>
   </g>
   <g id="patch_5">
    <path d="M 57.6 307.584 
L 414.72 307.584 
" style="fill: none; stroke: #000000; stroke-width: 0.8; stroke-linejoin: miter; stroke-linecap: square"/>
   </g>
   <g id="patch_6">
    <path d="M 57.6 41.472 
L 414.72 41.472 
" style="fill: none; stroke: #000000; stroke-width: 0.8; stroke-linejoin: miter; stroke-linecap: square"/>
   </g>
   <g id="text_20">
    <!-- Learning Curves -->
    <g transform="translate(187.37625 35.472) scale(0.12 -0.12)">
     <defs>
      <path id="DejaVuSans-4c" d="M 628 4666 
L 1259 4666 
L 1259 531 
L 3531 531 
L 3531 0 
L 628 0 
L 628 4666 
z
" transform="scale(0.015625)"/>
      <path id="DejaVuSans-65" d="M 3597 1894 
L 3597 1613 
L 953 1613 
Q 991 1019 1311 708 
Q 1631 397 2203 397 
Q 2534 397 2845 478 
Q 3156 559 3463 722 
L 3463 178 
Q 3153 47 2828 -22 
Q 2503 -91 2169 -91 
Q 1331 -91 842 396 
Q 353 884 353 1716 
Q 353 2575 817 3079 
Q 1281 3584 2069 3584 
Q 2775 3584 3186 3129 
Q 3597 2675 3597 1894 
z
M 3022 2063 
Q 3016 2534 2758 2815 
Q 2500 3097 2075 3097 
Q 1594 3097 1305 2825 
Q 1016 2553 972 2059 
L 3022 2063 
z
" transform="scale(0.015625)"/>
      <path id="DejaVuSans-6e" d="M 3513 2113 
L 3513 0 
L 2938 0 
L 2938 2094 
Q 2938 2591 2744 2837 
Q 2550 3084 2163 3084 
Q 1697 3084 1428 2787 
Q 1159 2491 1159 1978 
L 1159 0 
L 581 0 
L 581 3500 
L 1159 3500 
L 1159 2956 
Q 1366 3272 1645 3428 
Q 1925 3584 2291 3584 
Q 2894 3584 3203 3211 
Q 3513 2838 3513 2113 
z
" transform="scale(0.015625)"/>
      <path id="DejaVuSans-69" d="M 603 3500 
L 1178 3500 
L 1178 0 
L 603 0 
L 603 3500 
z
M 603 4863 
L 1178 4863 
L 1178 4134 
L 603 4134 
L 603 4863 
z
" transform="scale(0.015625)"/>
      <path id="DejaVuSans-67" d="M 2906 1791 
Q 2906 2416 2648 2759 
Q 2391 3103 1925 3103 
Q 1463 3103 1205 2759 
Q 947 2416 947 1791 
Q 947 1169 1205 825 
Q 1463 481 1925 481 
Q 2391 481 2648 825 
Q 2906 1169 2906 1791 
z
M 3481 434 
Q 3481 -459 3084 -895 
Q 2688 -1331 1869 -1331 
Q 1566 -1331 1297 -1286 
Q 1028 -1241 775 -1147 
L 775 -588 
Q 1028 -725 1275 -790 
Q 1522 -856 1778 -856 
Q 2344 -856 2625 -561 
Q 2906 -266 2906 331 
L 2906 616 
Q 2728 306 2450 153 
Q 2172 0 1784 0 
Q 1141 0 747 490 
Q 353 981 353 1791 
Q 353 2603 747 3093 
Q 1141 3584 1784 3584 
Q 2172 3584 2450 3431 
Q 2728 3278 2906 2969 
L 2906 3500 
L 3481 3500 
L 3481 434 
z
" transform="scale(0.015625)"/>
      <path id="DejaVuSans-20" transform="scale(0.015625)"/>
      <path id="DejaVuSans-43" d="M 4122 4306 
L 4122 3641 
Q 3803 3938 3442 4084 
Q 3081 4231 2675 4231 
Q 1875 4231 1450 3742 
Q 1025 3253 1025 2328 
Q 1025 1406 1450 917 
Q 1875 428 2675 428 
Q 3081 428 3442 575 
Q 3803 722 4122 1019 
L 4122 359 
Q 3791 134 3420 21 
Q 3050 -91 2638 -91 
Q 1578 -91 968 557 
Q 359 1206 359 2328 
Q 359 3453 968 4101 
Q 1578 4750 2638 4750 
Q 3056 4750 3426 4639 
Q 3797 4528 4122 4306 
z
" transform="scale(0.015625)"/>
      <path id="DejaVuSans-76" d="M 191 3500 
L 800 3500 
L 1894 563 
L 2988 3500 
L 3597 3500 
L 2284 0 
L 1503 0 
L 191 3500 
z
" transform="scale(0.015625)"/>
     </defs>
     <use xlink:href="#DejaVuSans-4c"/>
     <use xlink:href="#DejaVuSans-65" x="53.962891"/>
     <use xlink:href="#DejaVuSans-61" x="115.486328"/>
     <use xlink:href="#DejaVuSans-72" x="176.765625"/>
     <use xlink:href="#DejaVuSans-6e" x="216.128906"/>
     <use xlink:href="#DejaVuSans-69" x="279.507812"/>
     <use xlink:href="#DejaVuSans-6e" x="307.291016"/>
     <use xlink:href="#DejaVuSans-67" x="370.669922"/>
     <use xlink:href="#DejaVuSans-20" x="434.146484"/>
     <use xlink:href="#DejaVuSans-43" x="465.933594"/>
     <use xlink:href="#DejaVuSans-75" x="535.757812"/>
     <use xlink:href="#DejaVuSans-72" x="599.136719"/>
     <use xlink:href="#DejaVuSans-76" x="640.25"/>
     <use xlink:href="#DejaVuSans-65" x="699.429688"/>
     <use xlink:href="#DejaVuSans-73" x="760.953125"/>
    </g>
   </g>
   <g id="legend_1">
    <g id="patch_7">
     <path d="M 214.18875 302.584 
L 407.72 302.584 
Q 409.72 302.584 409.72 300.584 
L 409.72 228.193375 
Q 409.72 226.193375 407.72 226.193375 
L 214.18875 226.193375 
Q 212.18875 226.193375 212.18875 228.193375 
L 212.18875 300.584 
Q 212.18875 302.584 214.18875 302.584 
z
" style="fill: #ffffff; opacity: 0.8; stroke: #cccccc; stroke-linejoin: miter"/>
    </g>
    <g id="line2d_23">
     <path d="M 216.18875 234.291812 
L 226.18875 234.291812 
L 236.18875 234.291812 
" style="fill: none; stroke: #1f77b4; stroke-width: 1.5; stroke-linecap: square"/>
    </g>
    <g id="text_21">
     <!-- Train Accuracy -->
     <g transform="translate(244.18875 237.791812) scale(0.1 -0.1)">
      <defs>
       <path id="DejaVuSans-54" d="M -19 4666 
L 3928 4666 
L 3928 4134 
L 2272 4134 
L 2272 0 
L 1638 0 
L 1638 4134 
L -19 4134 
L -19 4666 
z
" transform="scale(0.015625)"/>
      </defs>
      <use xlink:href="#DejaVuSans-54"/>
      <use xlink:href="#DejaVuSans-72" x="46.333984"/>
      <use xlink:href="#DejaVuSans-61" x="87.447266"/>
      <use xlink:href="#DejaVuSans-69" x="148.726562"/>
      <use xlink:href="#DejaVuSans-6e" x="176.509766"/>
      <use xlink:href="#DejaVuSans-20" x="239.888672"/>
      <use xlink:href="#DejaVuSans-41" x="271.675781"/>
      <use xlink:href="#DejaVuSans-63" x="338.333984"/>
      <use xlink:href="#DejaVuSans-63" x="393.314453"/>
      <use xlink:href="#DejaVuSans-75" x="448.294922"/>
      <use xlink:href="#DejaVuSans-72" x="511.673828"/>
      <use xlink:href="#DejaVuSans-61" x="552.787109"/>
      <use xlink:href="#DejaVuSans-63" x="614.066406"/>
      <use xlink:href="#DejaVuSans-79" x="669.046875"/>
     </g>
    </g>
    <g id="line2d_24">
     <path d="M 216.18875 248.969937 
L 226.18875 248.969937 
L 236.18875 248.969937 
" style="fill: none; stroke: #ff7f0e; stroke-width: 1.5; stroke-linecap: square"/>
    </g>
    <g id="text_22">
     <!-- Validation Accuracy -->
     <g transform="translate(244.18875 252.469937) scale(0.1 -0.1)">
      <defs>
       <path id="DejaVuSans-56" d="M 1831 0 
L 50 4666 
L 709 4666 
L 2188 738 
L 3669 4666 
L 4325 4666 
L 2547 0 
L 1831 0 
z
" transform="scale(0.015625)"/>
       <path id="DejaVuSans-6c" d="M 603 4863 
L 1178 4863 
L 1178 0 
L 603 0 
L 603 4863 
z
" transform="scale(0.015625)"/>
       <path id="DejaVuSans-64" d="M 2906 2969 
L 2906 4863 
L 3481 4863 
L 3481 0 
L 2906 0 
L 2906 525 
Q 2725 213 2448 61 
Q 2172 -91 1784 -91 
Q 1150 -91 751 415 
Q 353 922 353 1747 
Q 353 2572 751 3078 
Q 1150 3584 1784 3584 
Q 2172 3584 2448 3432 
Q 2725 3281 2906 2969 
z
M 947 1747 
Q 947 1113 1208 752 
Q 1469 391 1925 391 
Q 2381 391 2643 752 
Q 2906 1113 2906 1747 
Q 2906 2381 2643 2742 
Q 2381 3103 1925 3103 
Q 1469 3103 1208 2742 
Q 947 2381 947 1747 
z
" transform="scale(0.015625)"/>
       <path id="DejaVuSans-74" d="M 1172 4494 
L 1172 3500 
L 2356 3500 
L 2356 3053 
L 1172 3053 
L 1172 1153 
Q 1172 725 1289 603 
Q 1406 481 1766 481 
L 2356 481 
L 2356 0 
L 1766 0 
Q 1100 0 847 248 
Q 594 497 594 1153 
L 594 3053 
L 172 3053 
L 172 3500 
L 594 3500 
L 594 4494 
L 1172 4494 
z
" transform="scale(0.015625)"/>
      </defs>
      <use xlink:href="#DejaVuSans-56"/>
      <use xlink:href="#DejaVuSans-61" x="60.658203"/>
      <use xlink:href="#DejaVuSans-6c" x="121.9375"/>
      <use xlink:href="#DejaVuSans-69" x="149.720703"/>
      <use xlink:href="#DejaVuSans-64" x="177.503906"/>
      <use xlink:href="#DejaVuSans-61" x="240.980469"/>
      <use xlink:href="#DejaVuSans-74" x="302.259766"/>
      <use xlink:href="#DejaVuSans-69" x="341.46875"/>
      <use xlink:href="#DejaVuSans-6f" x="369.251953"/>
      <use xlink:href="#DejaVuSans-6e" x="430.433594"/>
      <use xlink:href="#DejaVuSans-20" x="493.8125"/>
      <use xlink:href="#DejaVuSans-41" x="525.599609"/>
      <use xlink:href="#DejaVuSans-63" x="592.257812"/>
      <use xlink:href="#DejaVuSans-63" x="647.238281"/>
      <use xlink:href="#DejaVuSans-75" x="702.21875"/>
      <use xlink:href="#DejaVuSans-72" x="765.597656"/>
      <use xlink:href="#DejaVuSans-61" x="806.710938"/>
      <use xlink:href="#DejaVuSans-63" x="867.990234"/>
      <use xlink:href="#DejaVuSans-79" x="922.970703"/>
     </g>
    </g>
    <g id="line2d_25">
     <path d="M 216.18875 263.648062 
L 226.18875 263.648062 
L 236.18875 263.648062 
" style="fill: none; stroke: #2ca02c; stroke-width: 1.5; stroke-linecap: square"/>
    </g>
    <g id="text_23">
     <!-- Robust Validation Accuracy -->
     <g transform="translate(244.18875 267.148062) scale(0.1 -0.1)">
      <defs>
       <path id="DejaVuSans-52" d="M 2841 2188 
Q 3044 2119 3236 1894 
Q 3428 1669 3622 1275 
L 4263 0 
L 3584 0 
L 2988 1197 
Q 2756 1666 2539 1819 
Q 2322 1972 1947 1972 
L 1259 1972 
L 1259 0 
L 628 0 
L 628 4666 
L 2053 4666 
Q 2853 4666 3247 4331 
Q 3641 3997 3641 3322 
Q 3641 2881 3436 2590 
Q 3231 2300 2841 2188 
z
M 1259 4147 
L 1259 2491 
L 2053 2491 
Q 2509 2491 2742 2702 
Q 2975 2913 2975 3322 
Q 2975 3731 2742 3939 
Q 2509 4147 2053 4147 
L 1259 4147 
z
" transform="scale(0.015625)"/>
       <path id="DejaVuSans-62" d="M 3116 1747 
Q 3116 2381 2855 2742 
Q 2594 3103 2138 3103 
Q 1681 3103 1420 2742 
Q 1159 2381 1159 1747 
Q 1159 1113 1420 752 
Q 1681 391 2138 391 
Q 2594 391 2855 752 
Q 3116 1113 3116 1747 
z
M 1159 2969 
Q 1341 3281 1617 3432 
Q 1894 3584 2278 3584 
Q 2916 3584 3314 3078 
Q 3713 2572 3713 1747 
Q 3713 922 3314 415 
Q 2916 -91 2278 -91 
Q 1894 -91 1617 61 
Q 1341 213 1159 525 
L 1159 0 
L 581 0 
L 581 4863 
L 1159 4863 
L 1159 2969 
z
" transform="scale(0.015625)"/>
      </defs>
      <use xlink:href="#DejaVuSans-52"/>
      <use xlink:href="#DejaVuSans-6f" x="64.982422"/>
      <use xlink:href="#DejaVuSans-62" x="126.164062"/>
      <use xlink:href="#DejaVuSans-75" x="189.640625"/>
      <use xlink:href="#DejaVuSans-73" x="253.019531"/>
      <use xlink:href="#DejaVuSans-74" x="305.119141"/>
      <use xlink:href="#DejaVuSans-20" x="344.328125"/>
      <use xlink:href="#DejaVuSans-56" x="376.115234"/>
      <use xlink:href="#DejaVuSans-61" x="436.773438"/>
      <use xlink:href="#DejaVuSans-6c" x="498.052734"/>
      <use xlink:href="#DejaVuSans-69" x="525.835938"/>
      <use xlink:href="#DejaVuSans-64" x="553.619141"/>
      <use xlink:href="#DejaVuSans-61" x="617.095703"/>
      <use xlink:href="#DejaVuSans-74" x="678.375"/>
      <use xlink:href="#DejaVuSans-69" x="717.583984"/>
      <use xlink:href="#DejaVuSans-6f" x="745.367188"/>
      <use xlink:href="#DejaVuSans-6e" x="806.548828"/>
      <use xlink:href="#DejaVuSans-20" x="869.927734"/>
      <use xlink:href="#DejaVuSans-41" x="901.714844"/>
      <use xlink:href="#DejaVuSans-63" x="968.373047"/>
      <use xlink:href="#DejaVuSans-63" x="1023.353516"/>
      <use xlink:href="#DejaVuSans-75" x="1078.333984"/>
      <use xlink:href="#DejaVuSans-72" x="1141.712891"/>
      <use xlink:href="#DejaVuSans-61" x="1182.826172"/>
      <use xlink:href="#DejaVuSans-63" x="1244.105469"/>
      <use xlink:href="#DejaVuSans-79" x="1299.085938"/>
     </g>
    </g>
    <g id="line2d_26">
     <path d="M 216.18875 278.326188 
L 226.18875 278.326188 
L 236.18875 278.326188 
" style="fill: none; stroke: #d62728; stroke-width: 1.5; stroke-linecap: square"/>
    </g>
    <g id="text_24">
     <!-- SWA Validation Accuracy -->
     <g transform="translate(244.18875 281.826188) scale(0.1 -0.1)">
      <defs>
       <path id="DejaVuSans-53" d="M 3425 4513 
L 3425 3897 
Q 3066 4069 2747 4153 
Q 2428 4238 2131 4238 
Q 1616 4238 1336 4038 
Q 1056 3838 1056 3469 
Q 1056 3159 1242 3001 
Q 1428 2844 1947 2747 
L 2328 2669 
Q 3034 2534 3370 2195 
Q 3706 1856 3706 1288 
Q 3706 609 3251 259 
Q 2797 -91 1919 -91 
Q 1588 -91 1214 -16 
Q 841 59 441 206 
L 441 856 
Q 825 641 1194 531 
Q 1563 422 1919 422 
Q 2459 422 2753 634 
Q 3047 847 3047 1241 
Q 3047 1584 2836 1778 
Q 2625 1972 2144 2069 
L 1759 2144 
Q 1053 2284 737 2584 
Q 422 2884 422 3419 
Q 422 4038 858 4394 
Q 1294 4750 2059 4750 
Q 2388 4750 2728 4690 
Q 3069 4631 3425 4513 
z
" transform="scale(0.015625)"/>
       <path id="DejaVuSans-57" d="M 213 4666 
L 850 4666 
L 1831 722 
L 2809 4666 
L 3519 4666 
L 4500 722 
L 5478 4666 
L 6119 4666 
L 4947 0 
L 4153 0 
L 3169 4050 
L 2175 0 
L 1381 0 
L 213 4666 
z
" transform="scale(0.015625)"/>
      </defs>
      <use xlink:href="#DejaVuSans-53"/>
      <use xlink:href="#DejaVuSans-57" x="63.476562"/>
      <use xlink:href="#DejaVuSans-41" x="156.853516"/>
      <use xlink:href="#DejaVuSans-20" x="225.261719"/>
      <use xlink:href="#DejaVuSans-56" x="257.048828"/>
      <use xlink:href="#DejaVuSans-61" x="317.707031"/>
      <use xlink:href="#DejaVuSans-6c" x="378.986328"/>
      <use xlink:href="#DejaVuSans-69" x="406.769531"/>
      <use xlink:href="#DejaVuSans-64" x="434.552734"/>
      <use xlink:href="#DejaVuSans-61" x="498.029297"/>
      <use xlink:href="#DejaVuSans-74" x="559.308594"/>
      <use xlink:href="#DejaVuSans-69" x="598.517578"/>
      <use xlink:href="#DejaVuSans-6f" x="626.300781"/>
      <use xlink:href="#DejaVuSans-6e" x="687.482422"/>
      <use xlink:href="#DejaVuSans-20" x="750.861328"/>
      <use xlink:href="#DejaVuSans-41" x="782.648438"/>
      <use xlink:href="#DejaVuSans-63" x="849.306641"/>
      <use xlink:href="#DejaVuSans-63" x="904.287109"/>
      <use xlink:href="#DejaVuSans-75" x="959.267578"/>
      <use xlink:href="#DejaVuSans-72" x="1022.646484"/>
      <use xlink:href="#DejaVuSans-61" x="1063.759766"/>
      <use xlink:href="#DejaVuSans-63" x="1125.039062"/>
      <use xlink:href="#DejaVuSans-79" x="1180.019531"/>
     </g>
    </g>
    <g id="line2d_27">
     <path d="M 216.18875 293.004312 
L 226.18875 293.004312 
L 236.18875 293.004312 
" style="fill: none; stroke: #9467bd; stroke-width: 1.5; stroke-linecap: square"/>
    </g>
    <g id="text_25">
     <!-- SWA Robust Validation Accuracy -->
     <g transform="translate(244.18875 296.504312) scale(0.1 -0.1)">
      <use xlink:href="#DejaVuSans-53"/>
      <use xlink:href="#DejaVuSans-57" x="63.476562"/>
      <use xlink:href="#DejaVuSans-41" x="156.853516"/>
      <use xlink:href="#DejaVuSans-20" x="225.261719"/>
      <use xlink:href="#DejaVuSans-52" x="257.048828"/>
      <use xlink:href="#DejaVuSans-6f" x="322.03125"/>
      <use xlink:href="#DejaVuSans-62" x="383.212891"/>
      <use xlink:href="#DejaVuSans-75" x="446.689453"/>
      <use xlink:href="#DejaVuSans-73" x="510.068359"/>
      <use xlink:href="#DejaVuSans-74" x="562.167969"/>
      <use xlink:href="#DejaVuSans-20" x="601.376953"/>
      <use xlink:href="#DejaVuSans-56" x="633.164062"/>
      <use xlink:href="#DejaVuSans-61" x="693.822266"/>
      <use xlink:href="#DejaVuSans-6c" x="755.101562"/>
      <use xlink:href="#DejaVuSans-69" x="782.884766"/>
      <use xlink:href="#DejaVuSans-64" x="810.667969"/>
      <use xlink:href="#DejaVuSans-61" x="874.144531"/>
      <use xlink:href="#DejaVuSans-74" x="935.423828"/>
      <use xlink:href="#DejaVuSans-69" x="974.632812"/>
      <use xlink:href="#DejaVuSans-6f" x="1002.416016"/>
      <use xlink:href="#DejaVuSans-6e" x="1063.597656"/>
      <use xlink:href="#DejaVuSans-20" x="1126.976562"/>
      <use xlink:href="#DejaVuSans-41" x="1158.763672"/>
      <use xlink:href="#DejaVuSans-63" x="1225.421875"/>
      <use xlink:href="#DejaVuSans-63" x="1280.402344"/>
      <use xlink:href="#DejaVuSans-75" x="1335.382812"/>
      <use xlink:href="#DejaVuSans-72" x="1398.761719"/>
      <use xlink:href="#DejaVuSans-61" x="1439.875"/>
      <use xlink:href="#DejaVuSans-63" x="1501.154297"/>
      <use xlink:href="#DejaVuSans-79" x="1556.134766"/>
     </g>
    </g>
   </g>
  </g>
 </g>
 <defs>
  <clipPath id="p9b524ae6dd">
   <rect x="57.6" y="41.472" width="357.12" height="266.112"/>
  </clipPath>
 </defs>
</svg>
