<?xml version="1.0" encoding="utf-8" standalone="no"?>
<!DOCTYPE svg PUBLIC "-//W3C//DTD SVG 1.1//EN"
  "http://www.w3.org/Graphics/SVG/1.1/DTD/svg11.dtd">
<svg xmlns:xlink="http://www.w3.org/1999/xlink" width="460.8pt" height="345.6pt" viewBox="0 0 460.8 345.6" xmlns="http://www.w3.org/2000/svg" version="1.1">
 <metadata>
  <rdf:RDF xmlns:dc="http://purl.org/dc/elements/1.1/" xmlns:cc="http://creativecommons.org/ns#" xmlns:rdf="http://www.w3.org/1999/02/22-rdf-syntax-ns#">
   <cc:Work>
    <dc:type rdf:resource="http://purl.org/dc/dcmitype/StillImage"/>
    <dc:date>2025-10-12T02:49:40.100832</dc:date>
    <dc:format>image/svg+xml</dc:format>
    <dc:creator>
     <cc:Agent>
      <dc:title>Matplotlib v3.9.1, https://matplotlib.org/</dc:title>
     </cc:Agent>
    </dc:creator>
   </cc:Work>
  </rdf:RDF>
 </metadata>
 <defs>
  <style type="text/css">*{stroke-linejoin: round; stroke-linecap: butt}</style>
 </defs>
 <g id="figure_1">
  <g id="patch_1">
   <path d="M 0 345.6 
L 460.8 345.6 
L 460.8 0 
L 0 0 
z
" style="fill: #ffffff"/>
  </g>
  <g id="axes_1">
   <g id="patch_2">
    <path d="M 57.6 307.584 
L 414.72 307.584 
L 414.72 41.472 
L 57.6 41.472 
z
" style="fill: #ffffff"/>
   </g>
   <g id="matplotlib.axis_1">
    <g id="xtick_1">
     <g id="line2d_1">
      <defs>
       <path id="m9834be8592" d="M 0 0 
L 0 3.5 
" style="stroke: #000000; stroke-width: 0.8"/>
      </defs>
      <g>
       <use xlink:href="#m9834be8592" x="73.832727" y="307.584" style="stroke: #000000; stroke-width: 0.8"/>
      </g>
     </g>
     <g id="text_1">
      <!-- 1 -->
      <g transform="translate(70.651477 322.182437) scale(0.1 -0.1)">
       <defs>
        <path id="DejaVuSans-31" d="M 794 531 
L 1825 531 
L 1825 4091 
L 703 3866 
L 703 4441 
L 1819 4666 
L 2450 4666 
L 2450 531 
L 3481 531 
L 3481 0 
L 794 0 
L 794 531 
z
" transform="scale(0.015625)"/>
       </defs>
       <use xlink:href="#DejaVuSans-31"/>
      </g>
     </g>
    </g>
    <g id="xtick_2">
     <g id="line2d_2">
      <g>
       <use xlink:href="#m9834be8592" x="109.664165" y="307.584" style="stroke: #000000; stroke-width: 0.8"/>
      </g>
     </g>
     <g id="text_2">
      <!-- 34 -->
      <g transform="translate(103.301665 322.182437) scale(0.1 -0.1)">
       <defs>
        <path id="DejaVuSans-33" d="M 2597 2516 
Q 3050 2419 3304 2112 
Q 3559 1806 3559 1356 
Q 3559 666 3084 287 
Q 2609 -91 1734 -91 
Q 1441 -91 1130 -33 
Q 819 25 488 141 
L 488 750 
Q 750 597 1062 519 
Q 1375 441 1716 441 
Q 2309 441 2620 675 
Q 2931 909 2931 1356 
Q 2931 1769 2642 2001 
Q 2353 2234 1838 2234 
L 1294 2234 
L 1294 2753 
L 1863 2753 
Q 2328 2753 2575 2939 
Q 2822 3125 2822 3475 
Q 2822 3834 2567 4026 
Q 2313 4219 1838 4219 
Q 1578 4219 1281 4162 
Q 984 4106 628 3988 
L 628 4550 
Q 988 4650 1302 4700 
Q 1616 4750 1894 4750 
Q 2613 4750 3031 4423 
Q 3450 4097 3450 3541 
Q 3450 3153 3228 2886 
Q 3006 2619 2597 2516 
z
" transform="scale(0.015625)"/>
        <path id="DejaVuSans-34" d="M 2419 4116 
L 825 1625 
L 2419 1625 
L 2419 4116 
z
M 2253 4666 
L 3047 4666 
L 3047 1625 
L 3713 1625 
L 3713 1100 
L 3047 1100 
L 3047 0 
L 2419 0 
L 2419 1100 
L 313 1100 
L 313 1709 
L 2253 4666 
z
" transform="scale(0.015625)"/>
       </defs>
       <use xlink:href="#DejaVuSans-33"/>
       <use xlink:href="#DejaVuSans-34" x="63.623047"/>
      </g>
     </g>
    </g>
    <g id="xtick_3">
     <g id="line2d_3">
      <g>
       <use xlink:href="#m9834be8592" x="145.495604" y="307.584" style="stroke: #000000; stroke-width: 0.8"/>
      </g>
     </g>
     <g id="text_3">
      <!-- 67 -->
      <g transform="translate(139.133104 322.182437) scale(0.1 -0.1)">
       <defs>
        <path id="DejaVuSans-36" d="M 2113 2584 
Q 1688 2584 1439 2293 
Q 1191 2003 1191 1497 
Q 1191 994 1439 701 
Q 1688 409 2113 409 
Q 2538 409 2786 701 
Q 3034 994 3034 1497 
Q 3034 2003 2786 2293 
Q 2538 2584 2113 2584 
z
M 3366 4563 
L 3366 3988 
Q 3128 4100 2886 4159 
Q 2644 4219 2406 4219 
Q 1781 4219 1451 3797 
Q 1122 3375 1075 2522 
Q 1259 2794 1537 2939 
Q 1816 3084 2150 3084 
Q 2853 3084 3261 2657 
Q 3669 2231 3669 1497 
Q 3669 778 3244 343 
Q 2819 -91 2113 -91 
Q 1303 -91 875 529 
Q 447 1150 447 2328 
Q 447 3434 972 4092 
Q 1497 4750 2381 4750 
Q 2619 4750 2861 4703 
Q 3103 4656 3366 4563 
z
" transform="scale(0.015625)"/>
        <path id="DejaVuSans-37" d="M 525 4666 
L 3525 4666 
L 3525 4397 
L 1831 0 
L 1172 0 
L 2766 4134 
L 525 4134 
L 525 4666 
z
" transform="scale(0.015625)"/>
       </defs>
       <use xlink:href="#DejaVuSans-36"/>
       <use xlink:href="#DejaVuSans-37" x="63.623047"/>
      </g>
     </g>
    </g>
    <g id="xtick_4">
     <g id="line2d_4">
      <g>
       <use xlink:href="#m9834be8592" x="181.327042" y="307.584" style="stroke: #000000; stroke-width: 0.8"/>
      </g>
     </g>
     <g id="text_4">
      <!-- 100 -->
      <g transform="translate(171.783292 322.182437) scale(0.1 -0.1)">
       <defs>
        <path id="DejaVuSans-30" d="M 2034 4250 
Q 1547 4250 1301 3770 
Q 1056 3291 1056 2328 
Q 1056 1369 1301 889 
Q 1547 409 2034 409 
Q 2525 409 2770 889 
Q 3016 1369 3016 2328 
Q 3016 3291 2770 3770 
Q 2525 4250 2034 4250 
z
M 2034 4750 
Q 2819 4750 3233 4129 
Q 3647 3509 3647 2328 
Q 3647 1150 3233 529 
Q 2819 -91 2034 -91 
Q 1250 -91 836 529 
Q 422 1150 422 2328 
Q 422 3509 836 4129 
Q 1250 4750 2034 4750 
z
" transform="scale(0.015625)"/>
       </defs>
       <use xlink:href="#DejaVuSans-31"/>
       <use xlink:href="#DejaVuSans-30" x="63.623047"/>
       <use xlink:href="#DejaVuSans-30" x="127.246094"/>
      </g>
     </g>
    </g>
    <g id="xtick_5">
     <g id="line2d_5">
      <g>
       <use xlink:href="#m9834be8592" x="217.15848" y="307.584" style="stroke: #000000; stroke-width: 0.8"/>
      </g>
     </g>
     <g id="text_5">
      <!-- 133 -->
      <g transform="translate(207.61473 322.182437) scale(0.1 -0.1)">
       <use xlink:href="#DejaVuSans-31"/>
       <use xlink:href="#DejaVuSans-33" x="63.623047"/>
       <use xlink:href="#DejaVuSans-33" x="127.246094"/>
      </g>
     </g>
    </g>
    <g id="xtick_6">
     <g id="line2d_6">
      <g>
       <use xlink:href="#m9834be8592" x="254.075719" y="307.584" style="stroke: #000000; stroke-width: 0.8"/>
      </g>
     </g>
     <g id="text_6">
      <!-- 167 -->
      <g transform="translate(244.531969 322.182437) scale(0.1 -0.1)">
       <use xlink:href="#DejaVuSans-31"/>
       <use xlink:href="#DejaVuSans-36" x="63.623047"/>
       <use xlink:href="#DejaVuSans-37" x="127.246094"/>
      </g>
     </g>
    </g>
    <g id="xtick_7">
     <g id="line2d_7">
      <g>
       <use xlink:href="#m9834be8592" x="289.907157" y="307.584" style="stroke: #000000; stroke-width: 0.8"/>
      </g>
     </g>
     <g id="text_7">
      <!-- 200 -->
      <g transform="translate(280.363407 322.182437) scale(0.1 -0.1)">
       <defs>
        <path id="DejaVuSans-32" d="M 1228 531 
L 3431 531 
L 3431 0 
L 469 0 
L 469 531 
Q 828 903 1448 1529 
Q 2069 2156 2228 2338 
Q 2531 2678 2651 2914 
Q 2772 3150 2772 3378 
Q 2772 3750 2511 3984 
Q 2250 4219 1831 4219 
Q 1534 4219 1204 4116 
Q 875 4013 500 3803 
L 500 4441 
Q 881 4594 1212 4672 
Q 1544 4750 1819 4750 
Q 2544 4750 2975 4387 
Q 3406 4025 3406 3419 
Q 3406 3131 3298 2873 
Q 3191 2616 2906 2266 
Q 2828 2175 2409 1742 
Q 1991 1309 1228 531 
z
" transform="scale(0.015625)"/>
       </defs>
       <use xlink:href="#DejaVuSans-32"/>
       <use xlink:href="#DejaVuSans-30" x="63.623047"/>
       <use xlink:href="#DejaVuSans-30" x="127.246094"/>
      </g>
     </g>
    </g>
    <g id="xtick_8">
     <g id="line2d_8">
      <g>
       <use xlink:href="#m9834be8592" x="325.738595" y="307.584" style="stroke: #000000; stroke-width: 0.8"/>
      </g>
     </g>
     <g id="text_8">
      <!-- 233 -->
      <g transform="translate(316.194845 322.182437) scale(0.1 -0.1)">
       <use xlink:href="#DejaVuSans-32"/>
       <use xlink:href="#DejaVuSans-33" x="63.623047"/>
       <use xlink:href="#DejaVuSans-33" x="127.246094"/>
      </g>
     </g>
    </g>
    <g id="xtick_9">
     <g id="line2d_9">
      <g>
       <use xlink:href="#m9834be8592" x="361.570033" y="307.584" style="stroke: #000000; stroke-width: 0.8"/>
      </g>
     </g>
     <g id="text_9">
      <!-- 266 -->
      <g transform="translate(352.026283 322.182437) scale(0.1 -0.1)">
       <use xlink:href="#DejaVuSans-32"/>
       <use xlink:href="#DejaVuSans-36" x="63.623047"/>
       <use xlink:href="#DejaVuSans-36" x="127.246094"/>
      </g>
     </g>
    </g>
    <g id="xtick_10">
     <g id="line2d_10">
      <g>
       <use xlink:href="#m9834be8592" x="398.487273" y="307.584" style="stroke: #000000; stroke-width: 0.8"/>
      </g>
     </g>
     <g id="text_10">
      <!-- 300 -->
      <g transform="translate(388.943523 322.182437) scale(0.1 -0.1)">
       <use xlink:href="#DejaVuSans-33"/>
       <use xlink:href="#DejaVuSans-30" x="63.623047"/>
       <use xlink:href="#DejaVuSans-30" x="127.246094"/>
      </g>
     </g>
    </g>
    <g id="text_11">
     <!-- Epochs -->
     <g transform="translate(218.244375 335.860562) scale(0.1 -0.1)">
      <defs>
       <path id="DejaVuSans-45" d="M 628 4666 
L 3578 4666 
L 3578 4134 
L 1259 4134 
L 1259 2753 
L 3481 2753 
L 3481 2222 
L 1259 2222 
L 1259 531 
L 3634 531 
L 3634 0 
L 628 0 
L 628 4666 
z
" transform="scale(0.015625)"/>
       <path id="DejaVuSans-70" d="M 1159 525 
L 1159 -1331 
L 581 -1331 
L 581 3500 
L 1159 3500 
L 1159 2969 
Q 1341 3281 1617 3432 
Q 1894 3584 2278 3584 
Q 2916 3584 3314 3078 
Q 3713 2572 3713 1747 
Q 3713 922 3314 415 
Q 2916 -91 2278 -91 
Q 1894 -91 1617 61 
Q 1341 213 1159 525 
z
M 3116 1747 
Q 3116 2381 2855 2742 
Q 2594 3103 2138 3103 
Q 1681 3103 1420 2742 
Q 1159 2381 1159 1747 
Q 1159 1113 1420 752 
Q 1681 391 2138 391 
Q 2594 391 2855 752 
Q 3116 1113 3116 1747 
z
" transform="scale(0.015625)"/>
       <path id="DejaVuSans-6f" d="M 1959 3097 
Q 1497 3097 1228 2736 
Q 959 2375 959 1747 
Q 959 1119 1226 758 
Q 1494 397 1959 397 
Q 2419 397 2687 759 
Q 2956 1122 2956 1747 
Q 2956 2369 2687 2733 
Q 2419 3097 1959 3097 
z
M 1959 3584 
Q 2709 3584 3137 3096 
Q 3566 2609 3566 1747 
Q 3566 888 3137 398 
Q 2709 -91 1959 -91 
Q 1206 -91 779 398 
Q 353 888 353 1747 
Q 353 2609 779 3096 
Q 1206 3584 1959 3584 
z
" transform="scale(0.015625)"/>
       <path id="DejaVuSans-63" d="M 3122 3366 
L 3122 2828 
Q 2878 2963 2633 3030 
Q 2388 3097 2138 3097 
Q 1578 3097 1268 2742 
Q 959 2388 959 1747 
Q 959 1106 1268 751 
Q 1578 397 2138 397 
Q 2388 397 2633 464 
Q 2878 531 3122 666 
L 3122 134 
Q 2881 22 2623 -34 
Q 2366 -91 2075 -91 
Q 1284 -91 818 406 
Q 353 903 353 1747 
Q 353 2603 823 3093 
Q 1294 3584 2113 3584 
Q 2378 3584 2631 3529 
Q 2884 3475 3122 3366 
z
" transform="scale(0.015625)"/>
       <path id="DejaVuSans-68" d="M 3513 2113 
L 3513 0 
L 2938 0 
L 2938 2094 
Q 2938 2591 2744 2837 
Q 2550 3084 2163 3084 
Q 1697 3084 1428 2787 
Q 1159 2491 1159 1978 
L 1159 0 
L 581 0 
L 581 4863 
L 1159 4863 
L 1159 2956 
Q 1366 3272 1645 3428 
Q 1925 3584 2291 3584 
Q 2894 3584 3203 3211 
Q 3513 2838 3513 2113 
z
" transform="scale(0.015625)"/>
       <path id="DejaVuSans-73" d="M 2834 3397 
L 2834 2853 
Q 2591 2978 2328 3040 
Q 2066 3103 1784 3103 
Q 1356 3103 1142 2972 
Q 928 2841 928 2578 
Q 928 2378 1081 2264 
Q 1234 2150 1697 2047 
L 1894 2003 
Q 2506 1872 2764 1633 
Q 3022 1394 3022 966 
Q 3022 478 2636 193 
Q 2250 -91 1575 -91 
Q 1294 -91 989 -36 
Q 684 19 347 128 
L 347 722 
Q 666 556 975 473 
Q 1284 391 1588 391 
Q 1994 391 2212 530 
Q 2431 669 2431 922 
Q 2431 1156 2273 1281 
Q 2116 1406 1581 1522 
L 1381 1569 
Q 847 1681 609 1914 
Q 372 2147 372 2553 
Q 372 3047 722 3315 
Q 1072 3584 1716 3584 
Q 2034 3584 2315 3537 
Q 2597 3491 2834 3397 
z
" transform="scale(0.015625)"/>
      </defs>
      <use xlink:href="#DejaVuSans-45"/>
      <use xlink:href="#DejaVuSans-70" x="63.183594"/>
      <use xlink:href="#DejaVuSans-6f" x="126.660156"/>
      <use xlink:href="#DejaVuSans-63" x="187.841797"/>
      <use xlink:href="#DejaVuSans-68" x="242.822266"/>
      <use xlink:href="#DejaVuSans-73" x="306.201172"/>
     </g>
    </g>
   </g>
   <g id="matplotlib.axis_2">
    <g id="ytick_1">
     <g id="line2d_11">
      <defs>
       <path id="m6b7ebd0461" d="M 0 0 
L -3.5 0 
" style="stroke: #000000; stroke-width: 0.8"/>
      </defs>
      <g>
       <use xlink:href="#m6b7ebd0461" x="57.6" y="269.878909" style="stroke: #000000; stroke-width: 0.8"/>
      </g>
     </g>
     <g id="text_12">
      <!-- 20 -->
      <g transform="translate(37.875 273.678128) scale(0.1 -0.1)">
       <use xlink:href="#DejaVuSans-32"/>
       <use xlink:href="#DejaVuSans-30" x="63.623047"/>
      </g>
     </g>
    </g>
    <g id="ytick_2">
     <g id="line2d_12">
      <g>
       <use xlink:href="#m6b7ebd0461" x="57.6" y="215.333455" style="stroke: #000000; stroke-width: 0.8"/>
      </g>
     </g>
     <g id="text_13">
      <!-- 40 -->
      <g transform="translate(37.875 219.132673) scale(0.1 -0.1)">
       <use xlink:href="#DejaVuSans-34"/>
       <use xlink:href="#DejaVuSans-30" x="63.623047"/>
      </g>
     </g>
    </g>
    <g id="ytick_3">
     <g id="line2d_13">
      <g>
       <use xlink:href="#m6b7ebd0461" x="57.6" y="160.788" style="stroke: #000000; stroke-width: 0.8"/>
      </g>
     </g>
     <g id="text_14">
      <!-- 60 -->
      <g transform="translate(37.875 164.587219) scale(0.1 -0.1)">
       <use xlink:href="#DejaVuSans-36"/>
       <use xlink:href="#DejaVuSans-30" x="63.623047"/>
      </g>
     </g>
    </g>
    <g id="ytick_4">
     <g id="line2d_14">
      <g>
       <use xlink:href="#m6b7ebd0461" x="57.6" y="106.242545" style="stroke: #000000; stroke-width: 0.8"/>
      </g>
     </g>
     <g id="text_15">
      <!-- 80 -->
      <g transform="translate(37.875 110.041764) scale(0.1 -0.1)">
       <defs>
        <path id="DejaVuSans-38" d="M 2034 2216 
Q 1584 2216 1326 1975 
Q 1069 1734 1069 1313 
Q 1069 891 1326 650 
Q 1584 409 2034 409 
Q 2484 409 2743 651 
Q 3003 894 3003 1313 
Q 3003 1734 2745 1975 
Q 2488 2216 2034 2216 
z
M 1403 2484 
Q 997 2584 770 2862 
Q 544 3141 544 3541 
Q 544 4100 942 4425 
Q 1341 4750 2034 4750 
Q 2731 4750 3128 4425 
Q 3525 4100 3525 3541 
Q 3525 3141 3298 2862 
Q 3072 2584 2669 2484 
Q 3125 2378 3379 2068 
Q 3634 1759 3634 1313 
Q 3634 634 3220 271 
Q 2806 -91 2034 -91 
Q 1263 -91 848 271 
Q 434 634 434 1313 
Q 434 1759 690 2068 
Q 947 2378 1403 2484 
z
M 1172 3481 
Q 1172 3119 1398 2916 
Q 1625 2713 2034 2713 
Q 2441 2713 2670 2916 
Q 2900 3119 2900 3481 
Q 2900 3844 2670 4047 
Q 2441 4250 2034 4250 
Q 1625 4250 1398 4047 
Q 1172 3844 1172 3481 
z
" transform="scale(0.015625)"/>
       </defs>
       <use xlink:href="#DejaVuSans-38"/>
       <use xlink:href="#DejaVuSans-30" x="63.623047"/>
      </g>
     </g>
    </g>
    <g id="ytick_5">
     <g id="line2d_15">
      <g>
       <use xlink:href="#m6b7ebd0461" x="57.6" y="51.697091" style="stroke: #000000; stroke-width: 0.8"/>
      </g>
     </g>
     <g id="text_16">
      <!-- 100 -->
      <g transform="translate(31.5125 55.49631) scale(0.1 -0.1)">
       <use xlink:href="#DejaVuSans-31"/>
       <use xlink:href="#DejaVuSans-30" x="63.623047"/>
       <use xlink:href="#DejaVuSans-30" x="127.246094"/>
      </g>
     </g>
    </g>
    <g id="text_17">
     <!-- Accuracy -->
     <g transform="translate(25.432812 197.356125) rotate(-90) scale(0.1 -0.1)">
      <defs>
       <path id="DejaVuSans-41" d="M 2188 4044 
L 1331 1722 
L 3047 1722 
L 2188 4044 
z
M 1831 4666 
L 2547 4666 
L 4325 0 
L 3669 0 
L 3244 1197 
L 1141 1197 
L 716 0 
L 50 0 
L 1831 4666 
z
" transform="scale(0.015625)"/>
       <path id="DejaVuSans-75" d="M 544 1381 
L 544 3500 
L 1119 3500 
L 1119 1403 
Q 1119 906 1312 657 
Q 1506 409 1894 409 
Q 2359 409 2629 706 
Q 2900 1003 2900 1516 
L 2900 3500 
L 3475 3500 
L 3475 0 
L 2900 0 
L 2900 538 
Q 2691 219 2414 64 
Q 2138 -91 1772 -91 
Q 1169 -91 856 284 
Q 544 659 544 1381 
z
M 1991 3584 
L 1991 3584 
z
" transform="scale(0.015625)"/>
       <path id="DejaVuSans-72" d="M 2631 2963 
Q 2534 3019 2420 3045 
Q 2306 3072 2169 3072 
Q 1681 3072 1420 2755 
Q 1159 2438 1159 1844 
L 1159 0 
L 581 0 
L 581 3500 
L 1159 3500 
L 1159 2956 
Q 1341 3275 1631 3429 
Q 1922 3584 2338 3584 
Q 2397 3584 2469 3576 
Q 2541 3569 2628 3553 
L 2631 2963 
z
" transform="scale(0.015625)"/>
       <path id="DejaVuSans-61" d="M 2194 1759 
Q 1497 1759 1228 1600 
Q 959 1441 959 1056 
Q 959 750 1161 570 
Q 1363 391 1709 391 
Q 2188 391 2477 730 
Q 2766 1069 2766 1631 
L 2766 1759 
L 2194 1759 
z
M 3341 1997 
L 3341 0 
L 2766 0 
L 2766 531 
Q 2569 213 2275 61 
Q 1981 -91 1556 -91 
Q 1019 -91 701 211 
Q 384 513 384 1019 
Q 384 1609 779 1909 
Q 1175 2209 1959 2209 
L 2766 2209 
L 2766 2266 
Q 2766 2663 2505 2880 
Q 2244 3097 1772 3097 
Q 1472 3097 1187 3025 
Q 903 2953 641 2809 
L 641 3341 
Q 956 3463 1253 3523 
Q 1550 3584 1831 3584 
Q 2591 3584 2966 3190 
Q 3341 2797 3341 1997 
z
" transform="scale(0.015625)"/>
       <path id="DejaVuSans-79" d="M 2059 -325 
Q 1816 -950 1584 -1140 
Q 1353 -1331 966 -1331 
L 506 -1331 
L 506 -850 
L 844 -850 
Q 1081 -850 1212 -737 
Q 1344 -625 1503 -206 
L 1606 56 
L 191 3500 
L 800 3500 
L 1894 763 
L 2988 3500 
L 3597 3500 
L 2059 -325 
z
" transform="scale(0.015625)"/>
      </defs>
      <use xlink:href="#DejaVuSans-41"/>
      <use xlink:href="#DejaVuSans-63" x="66.658203"/>
      <use xlink:href="#DejaVuSans-63" x="121.638672"/>
      <use xlink:href="#DejaVuSans-75" x="176.619141"/>
      <use xlink:href="#DejaVuSans-72" x="239.998047"/>
      <use xlink:href="#DejaVuSans-61" x="281.111328"/>
      <use xlink:href="#DejaVuSans-63" x="342.390625"/>
      <use xlink:href="#DejaVuSans-79" x="397.371094"/>
     </g>
    </g>
   </g>
   <g id="line2d_16">
    <path d="M 73.832727 295.488 
L 74.918528 260.197091 
L 76.00433 234.631636 
L 77.090131 215.497091 
L 78.175932 200.900727 
L 79.261733 188.688 
L 81.433335 170.398909 
L 85.77654 144.429818 
L 89.033943 129.146182 
L 90.119745 124.531636 
L 91.205546 121.635273 
L 92.291347 118.411636 
L 93.377148 116.169818 
L 94.462949 114.980727 
L 95.54875 149.988 
L 96.634552 149.862545 
L 97.720353 145.684364 
L 98.806154 142.755273 
L 99.891955 139.177091 
L 100.977756 136.760727 
L 102.063557 132.975273 
L 105.320961 124.215273 
L 107.492563 119.017091 
L 108.578364 114.937091 
L 109.664165 112.553455 
L 110.749967 110.551636 
L 112.921569 105.740727 
L 117.264773 94.608 
L 120.522177 87.266182 
L 121.607978 85.373455 
L 122.693779 82.935273 
L 123.77958 79.602545 
L 125.951183 76.422545 
L 127.036984 73.848 
L 129.208586 71.268 
L 131.380189 68.797091 
L 132.46599 67.864364 
L 133.551791 67.384364 
L 134.637592 66.718909 
L 135.723393 65.731636 
L 136.809194 65.251636 
L 137.894995 65.742545 
L 138.980797 101.720727 
L 140.066598 106.531636 
L 141.152399 105.926182 
L 142.2382 104.693455 
L 143.324001 103.711636 
L 144.409802 102.533455 
L 145.495604 100.897091 
L 146.581405 99.937091 
L 147.667206 97.984364 
L 148.753007 97.482545 
L 149.838808 95.884364 
L 150.924609 94.700727 
L 152.01041 93.768 
L 153.096212 92.371636 
L 154.182013 91.695273 
L 155.267814 90.386182 
L 156.353615 88.869818 
L 157.439416 87.997091 
L 158.525217 86.589818 
L 159.611019 85.689818 
L 160.69682 84.980727 
L 161.782621 83.006182 
L 162.868422 82.711636 
L 163.954223 81.833455 
L 165.040024 80.213455 
L 166.125825 79.711636 
L 168.297428 77.917091 
L 169.383229 76.275273 
L 170.46903 76.068 
L 171.554831 74.273455 
L 172.640632 74.044364 
L 173.726434 72.953455 
L 174.812235 72.129818 
L 175.898036 71.644364 
L 176.983837 70.422545 
L 179.155439 68.638909 
L 180.24124 67.646182 
L 181.327042 67.591636 
L 183.498644 65.878909 
L 184.584445 65.671636 
L 188.92765 62.469818 
L 192.185053 61.008 
L 195.442457 59.933455 
L 196.528258 59.273455 
L 197.614059 58.793455 
L 201.957264 57.386182 
L 203.043065 57.222545 
L 205.214667 56.311636 
L 206.300468 56.360727 
L 207.386269 56.137091 
L 208.472071 55.728 
L 211.729474 55.237091 
L 212.815275 55.226182 
L 213.901076 55.340727 
L 216.072679 54.588 
L 217.15848 54.718909 
L 218.244281 54.658909 
L 219.330082 54.877091 
L 220.415883 54.609818 
L 223.673287 54.729818 
L 224.759088 54.304364 
L 225.844889 77.568 
L 226.93069 82.378909 
L 228.016491 82.902545 
L 229.102292 82.766182 
L 230.188094 82.035273 
L 231.273895 81.898909 
L 232.359696 81.882545 
L 233.445497 80.889818 
L 236.702901 80.278909 
L 237.788702 78.997091 
L 238.874503 78.975273 
L 239.960304 78.222545 
L 241.046105 77.758909 
L 242.131906 77.535273 
L 243.217708 77.862545 
L 244.303509 76.368 
L 245.38931 75.833455 
L 246.475111 76.231636 
L 247.560912 75.451636 
L 248.646713 75.200727 
L 249.732514 74.573455 
L 250.818316 74.257091 
L 251.904117 74.088 
L 252.989918 73.340727 
L 254.075719 73.820727 
L 255.16152 73.302545 
L 256.247321 72.544364 
L 257.333123 71.938909 
L 258.418924 71.649818 
L 259.504725 71.938909 
L 260.590526 71.475273 
L 261.676327 71.382545 
L 262.762128 70.744364 
L 263.847929 69.948 
L 264.933731 70.209818 
L 266.019532 70.253455 
L 267.105333 69.735273 
L 268.191134 70.062545 
L 269.276935 69.015273 
L 270.362736 68.911636 
L 271.448538 68.191636 
L 272.534339 68.382545 
L 275.791742 67.466182 
L 276.877543 67.760727 
L 277.963344 67.258909 
L 279.049146 66.560727 
L 280.134947 66.926182 
L 283.39235 65.840727 
L 284.478151 65.644364 
L 285.563953 65.262545 
L 286.649754 65.328 
L 287.735555 64.493455 
L 288.821356 64.520727 
L 289.907157 64.422545 
L 290.992958 64.089818 
L 292.07876 64.575273 
L 293.164561 63.822545 
L 294.250362 63.577091 
L 295.336163 62.955273 
L 296.421964 63.598909 
L 297.507765 63.358909 
L 298.593566 62.753455 
L 299.679368 62.562545 
L 300.765169 61.946182 
L 301.85097 62.066182 
L 302.936771 61.684364 
L 305.108373 61.608 
L 306.194175 60.822545 
L 307.279976 61.128 
L 308.365777 60.664364 
L 310.537379 60.211636 
L 311.62318 60.364364 
L 312.708981 59.917091 
L 313.794783 60.048 
L 315.966385 59.551636 
L 317.052186 59.475273 
L 318.137987 58.771636 
L 319.223788 58.428 
L 320.30959 58.962545 
L 321.395391 58.689818 
L 322.481192 58.231636 
L 324.652794 58.029818 
L 326.824396 57.648 
L 327.910198 57.315273 
L 328.995999 57.222545 
L 331.167601 57.358909 
L 332.253402 56.862545 
L 333.339203 56.808 
L 336.596607 56.158909 
L 337.682408 56.229818 
L 339.85401 55.957091 
L 340.939811 55.826182 
L 342.025613 55.515273 
L 344.197215 55.804364 
L 345.283016 55.324364 
L 346.368817 55.106182 
L 347.454618 55.188 
L 348.54042 54.811636 
L 349.626221 54.942545 
L 350.712022 54.909818 
L 351.797823 54.495273 
L 352.883624 54.582545 
L 353.969425 54.495273 
L 355.055227 54.266182 
L 356.141028 54.320727 
L 357.226829 53.906182 
L 358.31263 54.053455 
L 363.741636 53.780727 
L 365.913238 53.568 
L 368.08484 53.628 
L 369.170642 53.868 
L 370.256443 54.326182 
L 371.342244 54.380727 
L 373.513846 54.942545 
L 374.599647 54.680727 
L 377.857051 55.264364 
L 378.942852 55.078909 
L 380.028653 54.593455 
L 381.114454 54.926182 
L 382.200255 54.997091 
L 383.286057 54.926182 
L 384.371858 55.057091 
L 385.457659 54.828 
L 387.629261 55.155273 
L 388.715062 54.909818 
L 389.800863 55.008 
L 390.886665 54.991636 
L 391.972466 55.313455 
L 393.058267 55.117091 
L 394.144068 54.686182 
L 395.229869 55.057091 
L 396.31567 55.078909 
L 397.401472 54.926182 
L 398.487273 55.078909 
L 398.487273 55.078909 
" clip-path="url(#p80996ed893)" style="fill: none; stroke: #1f77b4; stroke-width: 1.5; stroke-linecap: square"/>
   </g>
   <g id="line2d_17">
    <path d="M 73.832727 287.224364 
L 74.918528 253.897091 
L 77.090131 213.860727 
L 78.175932 199.188 
L 79.261733 192.997091 
L 80.347534 183.342545 
L 81.433335 179.360727 
L 82.519137 171.669818 
L 83.604938 169.488 
L 84.690739 163.324364 
L 86.862341 148.269818 
L 87.948142 152.415273 
L 89.033943 143.088 
L 90.119745 140.415273 
L 91.205546 142.624364 
L 92.291347 140.497091 
L 93.377148 139.951636 
L 94.462949 139.078909 
L 95.54875 161.715273 
L 96.634552 161.006182 
L 97.720353 156.806182 
L 98.806154 155.033455 
L 99.891955 152.960727 
L 100.977756 153.042545 
L 102.063557 150.942545 
L 103.149358 150.533455 
L 104.23516 153.206182 
L 105.320961 143.633455 
L 106.406762 144.778909 
L 107.492563 139.488 
L 109.664165 139.433455 
L 110.749967 139.024364 
L 111.835768 137.878909 
L 112.921569 134.006182 
L 114.00737 134.224364 
L 115.093171 134.851636 
L 116.178972 135.178909 
L 117.264773 130.597091 
L 118.350575 131.797091 
L 119.436376 132.178909 
L 120.522177 133.569818 
L 121.607978 128.006182 
L 122.693779 128.169818 
L 123.77958 127.706182 
L 124.865382 125.006182 
L 125.951183 127.978909 
L 127.036984 124.515273 
L 128.122785 122.715273 
L 129.208586 124.406182 
L 130.294387 123.615273 
L 131.380189 124.597091 
L 132.46599 122.115273 
L 133.551791 122.551636 
L 134.637592 122.742545 
L 135.723393 123.124364 
L 136.809194 122.360727 
L 137.894995 122.360727 
L 138.980797 141.015273 
L 140.066598 144.369818 
L 141.152399 140.960727 
L 142.2382 144.560727 
L 143.324001 137.224364 
L 144.409802 136.624364 
L 145.495604 137.606182 
L 146.581405 141.315273 
L 147.667206 134.660727 
L 148.753007 135.724364 
L 149.838808 135.042545 
L 150.924609 130.024364 
L 152.01041 135.151636 
L 153.096212 133.106182 
L 154.182013 133.760727 
L 155.267814 130.378909 
L 156.353615 134.169818 
L 157.439416 132.342545 
L 158.525217 131.060727 
L 159.611019 130.924364 
L 160.69682 130.024364 
L 162.868422 130.297091 
L 163.954223 129.588 
L 165.040024 126.697091 
L 166.125825 128.660727 
L 167.211627 128.360727 
L 168.297428 129.424364 
L 169.383229 129.560727 
L 170.46903 128.006182 
L 171.554831 126.178909 
L 172.640632 129.724364 
L 173.726434 123.424364 
L 174.812235 125.824364 
L 176.983837 125.769818 
L 178.069638 123.942545 
L 179.155439 123.233455 
L 180.24124 127.760727 
L 181.327042 123.506182 
L 182.412843 123.888 
L 183.498644 122.169818 
L 184.584445 124.160727 
L 185.670246 124.160727 
L 186.756047 123.097091 
L 187.841849 123.560727 
L 188.92765 119.742545 
L 190.013451 121.897091 
L 191.099252 124.597091 
L 192.185053 120.724364 
L 193.270854 120.942545 
L 194.356656 120.315273 
L 195.442457 119.851636 
L 196.528258 119.551636 
L 197.614059 119.742545 
L 198.69986 117.533455 
L 199.785661 118.788 
L 200.871462 119.088 
L 201.957264 116.442545 
L 203.043065 116.797091 
L 204.128866 118.133455 
L 205.214667 117.206182 
L 206.300468 115.651636 
L 207.386269 117.042545 
L 208.472071 116.960727 
L 209.557872 115.760727 
L 210.643673 116.578909 
L 211.729474 114.506182 
L 212.815275 114.506182 
L 213.901076 114.724364 
L 214.986877 114.424364 
L 216.072679 113.933455 
L 217.15848 114.560727 
L 218.244281 114.806182 
L 219.330082 114.342545 
L 220.415883 115.078909 
L 221.501684 114.506182 
L 222.587486 114.506182 
L 223.673287 114.806182 
L 224.759088 114.751636 
L 225.844889 142.406182 
L 226.93069 131.988 
L 228.016491 136.488 
L 229.102292 132.097091 
L 230.188094 138.506182 
L 231.273895 130.406182 
L 232.359696 135.833455 
L 233.445497 134.797091 
L 234.531298 135.778909 
L 235.617099 129.560727 
L 236.702901 132.342545 
L 237.788702 131.306182 
L 238.874503 132.124364 
L 239.960304 130.733455 
L 241.046105 131.469818 
L 242.131906 133.597091 
L 243.217708 131.797091 
L 244.303509 128.415273 
L 245.38931 130.351636 
L 246.475111 127.951636 
L 247.560912 132.778909 
L 248.646713 133.024364 
L 249.732514 128.769818 
L 250.818316 129.969818 
L 251.904117 129.233455 
L 252.989918 129.451636 
L 254.075719 128.197091 
L 255.16152 132.806182 
L 256.247321 127.678909 
L 257.333123 131.824364 
L 258.418924 133.815273 
L 259.504725 127.597091 
L 260.590526 128.224364 
L 261.676327 128.197091 
L 262.762128 130.406182 
L 263.847929 128.578909 
L 264.933731 126.478909 
L 266.019532 126.778909 
L 267.105333 130.133455 
L 268.191134 129.888 
L 269.276935 130.378909 
L 270.362736 126.233455 
L 271.448538 127.324364 
L 272.534339 130.951636 
L 273.62014 126.369818 
L 274.705941 127.051636 
L 275.791742 127.924364 
L 276.877543 126.315273 
L 277.963344 128.551636 
L 279.049146 127.788 
L 280.134947 128.960727 
L 281.220748 127.297091 
L 282.306549 126.697091 
L 283.39235 129.451636 
L 284.478151 126.915273 
L 285.563953 127.160727 
L 286.649754 128.933455 
L 287.735555 128.251636 
L 288.821356 125.115273 
L 289.907157 130.569818 
L 290.992958 123.097091 
L 292.07876 129.942545 
L 293.164561 125.251636 
L 294.250362 127.378909 
L 295.336163 127.378909 
L 296.421964 124.706182 
L 297.507765 125.306182 
L 298.593566 124.978909 
L 299.679368 125.769818 
L 300.765169 127.651636 
L 301.85097 125.606182 
L 302.936771 121.542545 
L 304.022572 126.942545 
L 305.108373 123.397091 
L 306.194175 122.278909 
L 307.279976 123.997091 
L 308.365777 122.088 
L 309.451578 123.533455 
L 310.537379 124.297091 
L 311.62318 120.533455 
L 312.708981 123.806182 
L 313.794783 123.669818 
L 314.880584 121.978909 
L 315.966385 125.933455 
L 317.052186 120.451636 
L 318.137987 119.824364 
L 319.223788 123.369818 
L 320.30959 119.824364 
L 321.395391 125.578909 
L 322.481192 122.769818 
L 323.566993 120.697091 
L 324.652794 121.897091 
L 325.738595 120.997091 
L 326.824396 123.888 
L 327.910198 117.833455 
L 328.995999 120.042545 
L 330.0818 120.888 
L 331.167601 118.678909 
L 332.253402 118.569818 
L 333.339203 119.060727 
L 334.425005 118.460727 
L 335.510806 119.688 
L 336.596607 117.260727 
L 337.682408 117.615273 
L 338.768209 117.451636 
L 339.85401 119.660727 
L 340.939811 116.469818 
L 342.025613 116.797091 
L 343.111414 117.669818 
L 344.197215 117.151636 
L 345.283016 117.478909 
L 346.368817 114.833455 
L 347.454618 116.224364 
L 348.54042 114.833455 
L 349.626221 115.378909 
L 350.712022 117.015273 
L 351.797823 114.315273 
L 353.969425 115.488 
L 355.055227 115.433455 
L 356.141028 115.133455 
L 357.226829 114.669818 
L 358.31263 114.478909 
L 359.398431 113.224364 
L 360.484232 114.288 
L 361.570033 114.042545 
L 362.655835 113.415273 
L 363.741636 114.151636 
L 364.827437 113.006182 
L 365.913238 112.269818 
L 366.999039 112.542545 
L 368.08484 111.997091 
L 369.170642 112.760727 
L 370.256443 115.624364 
L 371.342244 115.460727 
L 372.428045 115.951636 
L 373.513846 117.288 
L 374.599647 115.160727 
L 375.685448 116.551636 
L 376.77125 116.988 
L 377.857051 114.860727 
L 378.942852 117.342545 
L 380.028653 116.469818 
L 381.114454 116.360727 
L 382.200255 119.115273 
L 383.286057 116.578909 
L 384.371858 115.160727 
L 385.457659 116.306182 
L 386.54346 117.097091 
L 387.629261 113.769818 
L 388.715062 115.760727 
L 389.800863 115.433455 
L 390.886665 118.024364 
L 391.972466 116.797091 
L 393.058267 117.615273 
L 394.144068 116.469818 
L 395.229869 115.597091 
L 396.31567 118.406182 
L 398.487273 117.178909 
L 398.487273 117.178909 
" clip-path="url(#p80996ed893)" style="fill: none; stroke: #ff7f0e; stroke-width: 1.5; stroke-linecap: square"/>
   </g>
   <g id="line2d_18">
    <path d="M 73.832727 293.295837 
L 74.918528 265.440038 
L 76.00433 260.850696 
L 77.090131 241.139097 
L 79.261733 229.195524 
L 80.347534 221.220602 
L 81.433335 226.073266 
L 82.519137 218.455712 
L 83.604938 217.571699 
L 84.690739 209.502734 
L 85.77654 205.665743 
L 86.862341 203.521542 
L 87.948142 204.236276 
L 89.033943 199.195524 
L 90.119745 197.107749 
L 91.205546 196.731574 
L 92.291347 195.019975 
L 93.377148 193.816213 
L 94.462949 193.628125 
L 95.54875 215.070132 
L 96.634552 216.443172 
L 97.720353 208.092075 
L 98.806154 211.270759 
L 99.891955 207.584238 
L 100.977756 207.09521 
L 102.063557 203.897718 
L 103.149358 206.436903 
L 104.23516 207.621856 
L 105.320961 202.054458 
L 106.406762 198.518408 
L 107.492563 192.762922 
L 108.578364 198.706495 
L 109.664165 194.117154 
L 110.749967 194.756652 
L 111.835768 194.493329 
L 112.921569 189.791135 
L 114.00737 189.208063 
L 115.093171 193.910257 
L 116.178972 194.135962 
L 117.264773 190.355398 
L 118.350575 189.09521 
L 119.436376 189.86637 
L 120.522177 188.719034 
L 121.607978 182.606182 
L 122.693779 181.345994 
L 123.77958 186.386746 
L 124.865382 180.33032 
L 125.951183 184.092075 
L 127.036984 180.386746 
L 128.122785 179.465116 
L 129.208586 177.903987 
L 130.294387 178.092075 
L 131.380189 178.882044 
L 132.46599 176.211197 
L 133.551791 177.226871 
L 134.637592 177.734708 
L 135.723393 177.302107 
L 136.809194 177.132828 
L 137.894995 177.358533 
L 138.980797 197.164176 
L 140.066598 201.320915 
L 141.152399 197.935335 
L 142.2382 200.47452 
L 143.324001 191.784865 
L 144.409802 193.853831 
L 145.495604 192.988627 
L 146.581405 197.897718 
L 147.667206 192.668878 
L 148.753007 195.584238 
L 149.838808 194.079536 
L 150.924609 191.972953 
L 152.01041 192.499599 
L 153.096212 192.029379 
L 154.182013 192.424364 
L 155.267814 188.060727 
L 156.353615 193.007436 
L 157.439416 188.230006 
L 159.611019 187.778596 
L 160.69682 189.001166 
L 161.782621 186.63126 
L 162.868422 184.656339 
L 163.954223 189.283298 
L 165.040024 184.430633 
L 166.125825 185.502734 
L 167.211627 184.581103 
L 168.297428 188.117154 
L 169.383229 186.894583 
L 170.46903 186.687687 
L 171.554831 180.349129 
L 172.640632 181.966683 
L 173.726434 180.236276 
L 174.812235 181.966683 
L 175.898036 180.518408 
L 176.983837 180.800539 
L 178.069638 181.289567 
L 179.155439 181.327185 
L 180.24124 183.734708 
L 181.327042 178.750382 
L 182.412843 179.784865 
L 183.498644 175.458846 
L 184.584445 183.377342 
L 185.670246 181.797404 
L 186.756047 175.929066 
L 187.841849 176.624991 
L 188.92765 175.045053 
L 190.013451 173.972953 
L 191.099252 177.584238 
L 192.185053 172.919661 
L 193.270854 172.298972 
L 194.356656 174.443172 
L 195.442457 173.220602 
L 196.528258 172.449442 
L 197.614059 174.17985 
L 198.69986 168.875774 
L 199.785661 169.985492 
L 200.871462 170.530947 
L 201.957264 168.17985 
L 203.043065 167.916527 
L 204.128866 168.63126 
L 205.214667 168.085806 
L 206.300468 165.903987 
L 207.386269 167.897718 
L 208.472071 165.076401 
L 209.557872 165.734708 
L 210.643673 165.659473 
L 211.729474 165.772326 
L 212.815275 165.189254 
L 213.901076 164.079536 
L 214.986877 163.628125 
L 217.15848 163.496464 
L 218.244281 164.192389 
L 219.330082 163.026245 
L 220.415883 162.78173 
L 221.501684 163.327185 
L 222.587486 162.668878 
L 223.673287 163.496464 
L 224.759088 162.650069 
L 225.844889 198.518408 
L 226.93069 188.267624 
L 228.016491 190.524677 
L 229.102292 184.731574 
L 230.188094 194.907122 
L 231.273895 184.863235 
L 232.359696 194.041918 
L 233.445497 190.524677 
L 234.531298 193.910257 
L 235.617099 183.565429 
L 236.702901 190.280163 
L 237.788702 190.656339 
L 238.874503 188.248815 
L 239.960304 188.060727 
L 241.046105 187.571699 
L 242.131906 194.17358 
L 243.217708 184.693956 
L 244.303509 180.273893 
L 245.38931 188.493329 
L 246.475111 182.831887 
L 247.560912 185.55916 
L 248.646713 191.8601 
L 249.732514 184.054458 
L 250.818316 186.33032 
L 251.904117 183.038784 
L 252.989918 186.894583 
L 254.075719 186.856966 
L 255.16152 189.509003 
L 256.247321 180.48079 
L 257.333123 186.142232 
L 258.418924 187.308376 
L 259.504725 179.502734 
L 260.590526 179.389881 
L 261.676327 182.737843 
L 263.847929 188.342859 
L 264.933731 179.897718 
L 267.105333 185.672013 
L 268.191134 180.650069 
L 269.276935 182.869505 
L 270.362736 182.305241 
L 271.448538 180.969818 
L 272.534339 184.863235 
L 273.62014 180.367937 
L 274.705941 181.364803 
L 275.791742 181.740978 
L 276.877543 177.791135 
L 277.963344 182.624991 
L 279.049146 179.916527 
L 280.134947 180.650069 
L 281.220748 177.998031 
L 282.306549 180.029379 
L 283.39235 183.057592 
L 284.478151 182.117154 
L 285.563953 182.399285 
L 286.649754 181.759787 
L 287.735555 182.719034 
L 288.821356 181.308376 
L 289.907157 181.496464 
L 290.992958 172.976088 
L 292.07876 182.907122 
L 293.164561 178.788 
L 294.250362 177.998031 
L 295.336163 175.910257 
L 296.421964 178.223737 
L 297.507765 181.139097 
L 298.593566 179.164176 
L 299.679368 180.33032 
L 300.765169 181.007436 
L 302.936771 171.791135 
L 304.022572 180.762922 
L 305.108373 174.650069 
L 306.194175 173.389881 
L 307.279976 177.302107 
L 308.365777 172.148502 
L 309.451578 172.524677 
L 310.537379 175.157906 
L 311.62318 172.900853 
L 312.708981 175.007436 
L 313.794783 174.010571 
L 314.880584 171.734708 
L 315.966385 177.7159 
L 317.052186 170.041918 
L 318.137987 166.656339 
L 319.223788 176.361668 
L 320.30959 170.342859 
L 321.395391 173.935335 
L 322.481192 174.161041 
L 323.566993 171.659473 
L 324.652794 170.154771 
L 325.738595 170.436903 
L 326.824396 171.001166 
L 327.910198 170.568564 
L 328.995999 169.289567 
L 330.0818 171.697091 
L 331.167601 167.502734 
L 332.253402 167.521542 
L 333.339203 168.706495 
L 334.425005 168.142232 
L 335.510806 167.145367 
L 336.596607 168.687687 
L 337.682408 168.255085 
L 338.768209 167.40869 
L 339.85401 166.092075 
L 340.939811 164.02311 
L 342.025613 164.869505 
L 343.111414 166.562295 
L 344.197215 165.885179 
L 345.283016 165.057592 
L 347.454618 166.110884 
L 348.54042 160.543486 
L 349.626221 162.518408 
L 350.712022 166.599912 
L 351.797823 161.465116 
L 352.883624 163.759787 
L 353.969425 163.40242 
L 355.055227 163.55289 
L 356.141028 162.17985 
L 357.226829 162.311511 
L 358.31263 159.828752 
L 359.398431 159.847561 
L 360.484232 161.277028 
L 361.570033 160.261354 
L 362.655835 159.490194 
L 363.741636 159.076401 
L 364.827437 157.985492 
L 365.913238 158.305241 
L 366.999039 157.891448 
L 368.08484 158.399285 
L 369.170642 161.916527 
L 370.256443 162.612451 
L 371.342244 164.512138 
L 372.428045 165.7159 
L 373.513846 163.176715 
L 374.599647 161.40869 
L 375.685448 163.364803 
L 376.77125 166.110884 
L 377.857051 164.286433 
L 378.942852 166.223737 
L 380.028653 164.737843 
L 381.114454 163.534082 
L 382.200255 167.107749 
L 384.371858 162.988627 
L 385.457659 166.01684 
L 386.54346 165.471386 
L 387.629261 165.151636 
L 388.715062 162.461981 
L 389.800863 164.361668 
L 390.886665 165.903987 
L 391.972466 165.471386 
L 393.058267 165.678282 
L 394.144068 165.076401 
L 395.229869 164.211197 
L 396.31567 166.092075 
L 397.401472 164.530947 
L 398.487273 165.998031 
L 398.487273 165.998031 
" clip-path="url(#p80996ed893)" style="fill: none; stroke: #2ca02c; stroke-width: 1.5; stroke-linecap: square"/>
   </g>
   <g id="line2d_19">
    <path d="M 368.08484 112.188 
L 369.170642 112.242545 
L 370.256443 113.333455 
L 371.342244 113.824364 
L 372.428045 117.151636 
L 373.513846 114.615273 
L 374.599647 116.088 
L 375.685448 116.851636 
L 376.77125 118.324364 
L 377.857051 118.951636 
L 378.942852 116.769818 
L 380.028653 122.251636 
L 381.114454 118.651636 
L 382.200255 115.460727 
L 383.286057 119.524364 
L 384.371858 121.678909 
L 385.457659 120.997091 
L 386.54346 120.151636 
L 387.629261 122.278909 
L 388.715062 119.715273 
L 389.800863 119.197091 
L 390.886665 120.642545 
L 391.972466 119.933455 
L 393.058267 121.351636 
L 394.144068 119.251636 
L 395.229869 123.533455 
L 396.31567 121.515273 
L 397.401472 126.233455 
L 398.487273 125.360727 
L 398.487273 125.360727 
" clip-path="url(#p80996ed893)" style="fill: none; stroke: #d62728; stroke-width: 1.5; stroke-linecap: square"/>
   </g>
   <g id="line2d_20">
    <path d="M 368.08484 156.574834 
L 369.170642 159.452577 
L 370.256443 159.151636 
L 371.342244 159.471386 
L 372.428045 164.888313 
L 373.513846 161.916527 
L 374.599647 163.214332 
L 375.685448 161.8601 
L 376.77125 166.204928 
L 377.857051 165.377342 
L 378.942852 161.784865 
L 380.028653 167.502734 
L 381.114454 162.951009 
L 382.200255 159.584238 
L 383.286057 163.289567 
L 384.371858 165.7159 
L 385.457659 164.399285 
L 386.54346 164.831887 
L 387.629261 166.430633 
L 388.715062 164.436903 
L 389.800863 162.706495 
L 390.886665 164.399285 
L 391.972466 162.217467 
L 393.058267 164.925931 
L 394.144068 163.985492 
L 395.229869 167.483925 
L 396.31567 164.963549 
L 397.401472 166.712765 
L 398.487273 166.618721 
L 398.487273 166.618721 
" clip-path="url(#p80996ed893)" style="fill: none; stroke: #9467bd; stroke-width: 1.5; stroke-linecap: square"/>
   </g>
   <g id="patch_3">
    <path d="M 57.6 307.584 
L 57.6 41.472 
" style="fill: none; stroke: #000000; stroke-width: 0.8; stroke-linejoin: miter; stroke-linecap: square"/>
   </g>
   <g id="patch_4">
    <path d="M 414.72 307.584 
L 414.72 41.472 
" style="fill: none; stroke: #000000; stroke-width: 0.8; stroke-linejoin: miter; stroke-linecap: square"/>
   </g>
   <g id="patch_5">
    <path d="M 57.6 307.584 
L 414.72 307.584 
" style="fill: none; stroke: #000000; stroke-width: 0.8; stroke-linejoin: miter; stroke-linecap: square"/>
   </g>
   <g id="patch_6">
    <path d="M 57.6 41.472 
L 414.72 41.472 
" style="fill: none; stroke: #000000; stroke-width: 0.8; stroke-linejoin: miter; stroke-linecap: square"/>
   </g>
   <g id="text_18">
    <!-- Learning Curves -->
    <g transform="translate(187.37625 35.472) scale(0.12 -0.12)">
     <defs>
      <path id="DejaVuSans-4c" d="M 628 4666 
L 1259 4666 
L 1259 531 
L 3531 531 
L 3531 0 
L 628 0 
L 628 4666 
z
" transform="scale(0.015625)"/>
      <path id="DejaVuSans-65" d="M 3597 1894 
L 3597 1613 
L 953 1613 
Q 991 1019 1311 708 
Q 1631 397 2203 397 
Q 2534 397 2845 478 
Q 3156 559 3463 722 
L 3463 178 
Q 3153 47 2828 -22 
Q 2503 -91 2169 -91 
Q 1331 -91 842 396 
Q 353 884 353 1716 
Q 353 2575 817 3079 
Q 1281 3584 2069 3584 
Q 2775 3584 3186 3129 
Q 3597 2675 3597 1894 
z
M 3022 2063 
Q 3016 2534 2758 2815 
Q 2500 3097 2075 3097 
Q 1594 3097 1305 2825 
Q 1016 2553 972 2059 
L 3022 2063 
z
" transform="scale(0.015625)"/>
      <path id="DejaVuSans-6e" d="M 3513 2113 
L 3513 0 
L 2938 0 
L 2938 2094 
Q 2938 2591 2744 2837 
Q 2550 3084 2163 3084 
Q 1697 3084 1428 2787 
Q 1159 2491 1159 1978 
L 1159 0 
L 581 0 
L 581 3500 
L 1159 3500 
L 1159 2956 
Q 1366 3272 1645 3428 
Q 1925 3584 2291 3584 
Q 2894 3584 3203 3211 
Q 3513 2838 3513 2113 
z
" transform="scale(0.015625)"/>
      <path id="DejaVuSans-69" d="M 603 3500 
L 1178 3500 
L 1178 0 
L 603 0 
L 603 3500 
z
M 603 4863 
L 1178 4863 
L 1178 4134 
L 603 4134 
L 603 4863 
z
" transform="scale(0.015625)"/>
      <path id="DejaVuSans-67" d="M 2906 1791 
Q 2906 2416 2648 2759 
Q 2391 3103 1925 3103 
Q 1463 3103 1205 2759 
Q 947 2416 947 1791 
Q 947 1169 1205 825 
Q 1463 481 1925 481 
Q 2391 481 2648 825 
Q 2906 1169 2906 1791 
z
M 3481 434 
Q 3481 -459 3084 -895 
Q 2688 -1331 1869 -1331 
Q 1566 -1331 1297 -1286 
Q 1028 -1241 775 -1147 
L 775 -588 
Q 1028 -725 1275 -790 
Q 1522 -856 1778 -856 
Q 2344 -856 2625 -561 
Q 2906 -266 2906 331 
L 2906 616 
Q 2728 306 2450 153 
Q 2172 0 1784 0 
Q 1141 0 747 490 
Q 353 981 353 1791 
Q 353 2603 747 3093 
Q 1141 3584 1784 3584 
Q 2172 3584 2450 3431 
Q 2728 3278 2906 2969 
L 2906 3500 
L 3481 3500 
L 3481 434 
z
" transform="scale(0.015625)"/>
      <path id="DejaVuSans-20" transform="scale(0.015625)"/>
      <path id="DejaVuSans-43" d="M 4122 4306 
L 4122 3641 
Q 3803 3938 3442 4084 
Q 3081 4231 2675 4231 
Q 1875 4231 1450 3742 
Q 1025 3253 1025 2328 
Q 1025 1406 1450 917 
Q 1875 428 2675 428 
Q 3081 428 3442 575 
Q 3803 722 4122 1019 
L 4122 359 
Q 3791 134 3420 21 
Q 3050 -91 2638 -91 
Q 1578 -91 968 557 
Q 359 1206 359 2328 
Q 359 3453 968 4101 
Q 1578 4750 2638 4750 
Q 3056 4750 3426 4639 
Q 3797 4528 4122 4306 
z
" transform="scale(0.015625)"/>
      <path id="DejaVuSans-76" d="M 191 3500 
L 800 3500 
L 1894 563 
L 2988 3500 
L 3597 3500 
L 2284 0 
L 1503 0 
L 191 3500 
z
" transform="scale(0.015625)"/>
     </defs>
     <use xlink:href="#DejaVuSans-4c"/>
     <use xlink:href="#DejaVuSans-65" x="53.962891"/>
     <use xlink:href="#DejaVuSans-61" x="115.486328"/>
     <use xlink:href="#DejaVuSans-72" x="176.765625"/>
     <use xlink:href="#DejaVuSans-6e" x="216.128906"/>
     <use xlink:href="#DejaVuSans-69" x="279.507812"/>
     <use xlink:href="#DejaVuSans-6e" x="307.291016"/>
     <use xlink:href="#DejaVuSans-67" x="370.669922"/>
     <use xlink:href="#DejaVuSans-20" x="434.146484"/>
     <use xlink:href="#DejaVuSans-43" x="465.933594"/>
     <use xlink:href="#DejaVuSans-75" x="535.757812"/>
     <use xlink:href="#DejaVuSans-72" x="599.136719"/>
     <use xlink:href="#DejaVuSans-76" x="640.25"/>
     <use xlink:href="#DejaVuSans-65" x="699.429688"/>
     <use xlink:href="#DejaVuSans-73" x="760.953125"/>
    </g>
   </g>
   <g id="legend_1">
    <g id="patch_7">
     <path d="M 214.18875 302.584 
L 407.72 302.584 
Q 409.72 302.584 409.72 300.584 
L 409.72 228.193375 
Q 409.72 226.193375 407.72 226.193375 
L 214.18875 226.193375 
Q 212.18875 226.193375 212.18875 228.193375 
L 212.18875 300.584 
Q 212.18875 302.584 214.18875 302.584 
z
" style="fill: #ffffff; opacity: 0.8; stroke: #cccccc; stroke-linejoin: miter"/>
    </g>
    <g id="line2d_21">
     <path d="M 216.18875 234.291812 
L 226.18875 234.291812 
L 236.18875 234.291812 
" style="fill: none; stroke: #1f77b4; stroke-width: 1.5; stroke-linecap: square"/>
    </g>
    <g id="text_19">
     <!-- Train Accuracy -->
     <g transform="translate(244.18875 237.791812) scale(0.1 -0.1)">
      <defs>
       <path id="DejaVuSans-54" d="M -19 4666 
L 3928 4666 
L 3928 4134 
L 2272 4134 
L 2272 0 
L 1638 0 
L 1638 4134 
L -19 4134 
L -19 4666 
z
" transform="scale(0.015625)"/>
      </defs>
      <use xlink:href="#DejaVuSans-54"/>
      <use xlink:href="#DejaVuSans-72" x="46.333984"/>
      <use xlink:href="#DejaVuSans-61" x="87.447266"/>
      <use xlink:href="#DejaVuSans-69" x="148.726562"/>
      <use xlink:href="#DejaVuSans-6e" x="176.509766"/>
      <use xlink:href="#DejaVuSans-20" x="239.888672"/>
      <use xlink:href="#DejaVuSans-41" x="271.675781"/>
      <use xlink:href="#DejaVuSans-63" x="338.333984"/>
      <use xlink:href="#DejaVuSans-63" x="393.314453"/>
      <use xlink:href="#DejaVuSans-75" x="448.294922"/>
      <use xlink:href="#DejaVuSans-72" x="511.673828"/>
      <use xlink:href="#DejaVuSans-61" x="552.787109"/>
      <use xlink:href="#DejaVuSans-63" x="614.066406"/>
      <use xlink:href="#DejaVuSans-79" x="669.046875"/>
     </g>
    </g>
    <g id="line2d_22">
     <path d="M 216.18875 248.969937 
L 226.18875 248.969937 
L 236.18875 248.969937 
" style="fill: none; stroke: #ff7f0e; stroke-width: 1.5; stroke-linecap: square"/>
    </g>
    <g id="text_20">
     <!-- Validation Accuracy -->
     <g transform="translate(244.18875 252.469937) scale(0.1 -0.1)">
      <defs>
       <path id="DejaVuSans-56" d="M 1831 0 
L 50 4666 
L 709 4666 
L 2188 738 
L 3669 4666 
L 4325 4666 
L 2547 0 
L 1831 0 
z
" transform="scale(0.015625)"/>
       <path id="DejaVuSans-6c" d="M 603 4863 
L 1178 4863 
L 1178 0 
L 603 0 
L 603 4863 
z
" transform="scale(0.015625)"/>
       <path id="DejaVuSans-64" d="M 2906 2969 
L 2906 4863 
L 3481 4863 
L 3481 0 
L 2906 0 
L 2906 525 
Q 2725 213 2448 61 
Q 2172 -91 1784 -91 
Q 1150 -91 751 415 
Q 353 922 353 1747 
Q 353 2572 751 3078 
Q 1150 3584 1784 3584 
Q 2172 3584 2448 3432 
Q 2725 3281 2906 2969 
z
M 947 1747 
Q 947 1113 1208 752 
Q 1469 391 1925 391 
Q 2381 391 2643 752 
Q 2906 1113 2906 1747 
Q 2906 2381 2643 2742 
Q 2381 3103 1925 3103 
Q 1469 3103 1208 2742 
Q 947 2381 947 1747 
z
" transform="scale(0.015625)"/>
       <path id="DejaVuSans-74" d="M 1172 4494 
L 1172 3500 
L 2356 3500 
L 2356 3053 
L 1172 3053 
L 1172 1153 
Q 1172 725 1289 603 
Q 1406 481 1766 481 
L 2356 481 
L 2356 0 
L 1766 0 
Q 1100 0 847 248 
Q 594 497 594 1153 
L 594 3053 
L 172 3053 
L 172 3500 
L 594 3500 
L 594 4494 
L 1172 4494 
z
" transform="scale(0.015625)"/>
      </defs>
      <use xlink:href="#DejaVuSans-56"/>
      <use xlink:href="#DejaVuSans-61" x="60.658203"/>
      <use xlink:href="#DejaVuSans-6c" x="121.9375"/>
      <use xlink:href="#DejaVuSans-69" x="149.720703"/>
      <use xlink:href="#DejaVuSans-64" x="177.503906"/>
      <use xlink:href="#DejaVuSans-61" x="240.980469"/>
      <use xlink:href="#DejaVuSans-74" x="302.259766"/>
      <use xlink:href="#DejaVuSans-69" x="341.46875"/>
      <use xlink:href="#DejaVuSans-6f" x="369.251953"/>
      <use xlink:href="#DejaVuSans-6e" x="430.433594"/>
      <use xlink:href="#DejaVuSans-20" x="493.8125"/>
      <use xlink:href="#DejaVuSans-41" x="525.599609"/>
      <use xlink:href="#DejaVuSans-63" x="592.257812"/>
      <use xlink:href="#DejaVuSans-63" x="647.238281"/>
      <use xlink:href="#DejaVuSans-75" x="702.21875"/>
      <use xlink:href="#DejaVuSans-72" x="765.597656"/>
      <use xlink:href="#DejaVuSans-61" x="806.710938"/>
      <use xlink:href="#DejaVuSans-63" x="867.990234"/>
      <use xlink:href="#DejaVuSans-79" x="922.970703"/>
     </g>
    </g>
    <g id="line2d_23">
     <path d="M 216.18875 263.648062 
L 226.18875 263.648062 
L 236.18875 263.648062 
" style="fill: none; stroke: #2ca02c; stroke-width: 1.5; stroke-linecap: square"/>
    </g>
    <g id="text_21">
     <!-- Robust Validation Accuracy -->
     <g transform="translate(244.18875 267.148062) scale(0.1 -0.1)">
      <defs>
       <path id="DejaVuSans-52" d="M 2841 2188 
Q 3044 2119 3236 1894 
Q 3428 1669 3622 1275 
L 4263 0 
L 3584 0 
L 2988 1197 
Q 2756 1666 2539 1819 
Q 2322 1972 1947 1972 
L 1259 1972 
L 1259 0 
L 628 0 
L 628 4666 
L 2053 4666 
Q 2853 4666 3247 4331 
Q 3641 3997 3641 3322 
Q 3641 2881 3436 2590 
Q 3231 2300 2841 2188 
z
M 1259 4147 
L 1259 2491 
L 2053 2491 
Q 2509 2491 2742 2702 
Q 2975 2913 2975 3322 
Q 2975 3731 2742 3939 
Q 2509 4147 2053 4147 
L 1259 4147 
z
" transform="scale(0.015625)"/>
       <path id="DejaVuSans-62" d="M 3116 1747 
Q 3116 2381 2855 2742 
Q 2594 3103 2138 3103 
Q 1681 3103 1420 2742 
Q 1159 2381 1159 1747 
Q 1159 1113 1420 752 
Q 1681 391 2138 391 
Q 2594 391 2855 752 
Q 3116 1113 3116 1747 
z
M 1159 2969 
Q 1341 3281 1617 3432 
Q 1894 3584 2278 3584 
Q 2916 3584 3314 3078 
Q 3713 2572 3713 1747 
Q 3713 922 3314 415 
Q 2916 -91 2278 -91 
Q 1894 -91 1617 61 
Q 1341 213 1159 525 
L 1159 0 
L 581 0 
L 581 4863 
L 1159 4863 
L 1159 2969 
z
" transform="scale(0.015625)"/>
      </defs>
      <use xlink:href="#DejaVuSans-52"/>
      <use xlink:href="#DejaVuSans-6f" x="64.982422"/>
      <use xlink:href="#DejaVuSans-62" x="126.164062"/>
      <use xlink:href="#DejaVuSans-75" x="189.640625"/>
      <use xlink:href="#DejaVuSans-73" x="253.019531"/>
      <use xlink:href="#DejaVuSans-74" x="305.119141"/>
      <use xlink:href="#DejaVuSans-20" x="344.328125"/>
      <use xlink:href="#DejaVuSans-56" x="376.115234"/>
      <use xlink:href="#DejaVuSans-61" x="436.773438"/>
      <use xlink:href="#DejaVuSans-6c" x="498.052734"/>
      <use xlink:href="#DejaVuSans-69" x="525.835938"/>
      <use xlink:href="#DejaVuSans-64" x="553.619141"/>
      <use xlink:href="#DejaVuSans-61" x="617.095703"/>
      <use xlink:href="#DejaVuSans-74" x="678.375"/>
      <use xlink:href="#DejaVuSans-69" x="717.583984"/>
      <use xlink:href="#DejaVuSans-6f" x="745.367188"/>
      <use xlink:href="#DejaVuSans-6e" x="806.548828"/>
      <use xlink:href="#DejaVuSans-20" x="869.927734"/>
      <use xlink:href="#DejaVuSans-41" x="901.714844"/>
      <use xlink:href="#DejaVuSans-63" x="968.373047"/>
      <use xlink:href="#DejaVuSans-63" x="1023.353516"/>
      <use xlink:href="#DejaVuSans-75" x="1078.333984"/>
      <use xlink:href="#DejaVuSans-72" x="1141.712891"/>
      <use xlink:href="#DejaVuSans-61" x="1182.826172"/>
      <use xlink:href="#DejaVuSans-63" x="1244.105469"/>
      <use xlink:href="#DejaVuSans-79" x="1299.085938"/>
     </g>
    </g>
    <g id="line2d_24">
     <path d="M 216.18875 278.326188 
L 226.18875 278.326188 
L 236.18875 278.326188 
" style="fill: none; stroke: #d62728; stroke-width: 1.5; stroke-linecap: square"/>
    </g>
    <g id="text_22">
     <!-- SWA Validation Accuracy -->
     <g transform="translate(244.18875 281.826188) scale(0.1 -0.1)">
      <defs>
       <path id="DejaVuSans-53" d="M 3425 4513 
L 3425 3897 
Q 3066 4069 2747 4153 
Q 2428 4238 2131 4238 
Q 1616 4238 1336 4038 
Q 1056 3838 1056 3469 
Q 1056 3159 1242 3001 
Q 1428 2844 1947 2747 
L 2328 2669 
Q 3034 2534 3370 2195 
Q 3706 1856 3706 1288 
Q 3706 609 3251 259 
Q 2797 -91 1919 -91 
Q 1588 -91 1214 -16 
Q 841 59 441 206 
L 441 856 
Q 825 641 1194 531 
Q 1563 422 1919 422 
Q 2459 422 2753 634 
Q 3047 847 3047 1241 
Q 3047 1584 2836 1778 
Q 2625 1972 2144 2069 
L 1759 2144 
Q 1053 2284 737 2584 
Q 422 2884 422 3419 
Q 422 4038 858 4394 
Q 1294 4750 2059 4750 
Q 2388 4750 2728 4690 
Q 3069 4631 3425 4513 
z
" transform="scale(0.015625)"/>
       <path id="DejaVuSans-57" d="M 213 4666 
L 850 4666 
L 1831 722 
L 2809 4666 
L 3519 4666 
L 4500 722 
L 5478 4666 
L 6119 4666 
L 4947 0 
L 4153 0 
L 3169 4050 
L 2175 0 
L 1381 0 
L 213 4666 
z
" transform="scale(0.015625)"/>
      </defs>
      <use xlink:href="#DejaVuSans-53"/>
      <use xlink:href="#DejaVuSans-57" x="63.476562"/>
      <use xlink:href="#DejaVuSans-41" x="156.853516"/>
      <use xlink:href="#DejaVuSans-20" x="225.261719"/>
      <use xlink:href="#DejaVuSans-56" x="257.048828"/>
      <use xlink:href="#DejaVuSans-61" x="317.707031"/>
      <use xlink:href="#DejaVuSans-6c" x="378.986328"/>
      <use xlink:href="#DejaVuSans-69" x="406.769531"/>
      <use xlink:href="#DejaVuSans-64" x="434.552734"/>
      <use xlink:href="#DejaVuSans-61" x="498.029297"/>
      <use xlink:href="#DejaVuSans-74" x="559.308594"/>
      <use xlink:href="#DejaVuSans-69" x="598.517578"/>
      <use xlink:href="#DejaVuSans-6f" x="626.300781"/>
      <use xlink:href="#DejaVuSans-6e" x="687.482422"/>
      <use xlink:href="#DejaVuSans-20" x="750.861328"/>
      <use xlink:href="#DejaVuSans-41" x="782.648438"/>
      <use xlink:href="#DejaVuSans-63" x="849.306641"/>
      <use xlink:href="#DejaVuSans-63" x="904.287109"/>
      <use xlink:href="#DejaVuSans-75" x="959.267578"/>
      <use xlink:href="#DejaVuSans-72" x="1022.646484"/>
      <use xlink:href="#DejaVuSans-61" x="1063.759766"/>
      <use xlink:href="#DejaVuSans-63" x="1125.039062"/>
      <use xlink:href="#DejaVuSans-79" x="1180.019531"/>
     </g>
    </g>
    <g id="line2d_25">
     <path d="M 216.18875 293.004312 
L 226.18875 293.004312 
L 236.18875 293.004312 
" style="fill: none; stroke: #9467bd; stroke-width: 1.5; stroke-linecap: square"/>
    </g>
    <g id="text_23">
     <!-- SWA Robust Validation Accuracy -->
     <g transform="translate(244.18875 296.504312) scale(0.1 -0.1)">
      <use xlink:href="#DejaVuSans-53"/>
      <use xlink:href="#DejaVuSans-57" x="63.476562"/>
      <use xlink:href="#DejaVuSans-41" x="156.853516"/>
      <use xlink:href="#DejaVuSans-20" x="225.261719"/>
      <use xlink:href="#DejaVuSans-52" x="257.048828"/>
      <use xlink:href="#DejaVuSans-6f" x="322.03125"/>
      <use xlink:href="#DejaVuSans-62" x="383.212891"/>
      <use xlink:href="#DejaVuSans-75" x="446.689453"/>
      <use xlink:href="#DejaVuSans-73" x="510.068359"/>
      <use xlink:href="#DejaVuSans-74" x="562.167969"/>
      <use xlink:href="#DejaVuSans-20" x="601.376953"/>
      <use xlink:href="#DejaVuSans-56" x="633.164062"/>
      <use xlink:href="#DejaVuSans-61" x="693.822266"/>
      <use xlink:href="#DejaVuSans-6c" x="755.101562"/>
      <use xlink:href="#DejaVuSans-69" x="782.884766"/>
      <use xlink:href="#DejaVuSans-64" x="810.667969"/>
      <use xlink:href="#DejaVuSans-61" x="874.144531"/>
      <use xlink:href="#DejaVuSans-74" x="935.423828"/>
      <use xlink:href="#DejaVuSans-69" x="974.632812"/>
      <use xlink:href="#DejaVuSans-6f" x="1002.416016"/>
      <use xlink:href="#DejaVuSans-6e" x="1063.597656"/>
      <use xlink:href="#DejaVuSans-20" x="1126.976562"/>
      <use xlink:href="#DejaVuSans-41" x="1158.763672"/>
      <use xlink:href="#DejaVuSans-63" x="1225.421875"/>
      <use xlink:href="#DejaVuSans-63" x="1280.402344"/>
      <use xlink:href="#DejaVuSans-75" x="1335.382812"/>
      <use xlink:href="#DejaVuSans-72" x="1398.761719"/>
      <use xlink:href="#DejaVuSans-61" x="1439.875"/>
      <use xlink:href="#DejaVuSans-63" x="1501.154297"/>
      <use xlink:href="#DejaVuSans-79" x="1556.134766"/>
     </g>
    </g>
   </g>
  </g>
 </g>
 <defs>
  <clipPath id="p80996ed893">
   <rect x="57.6" y="41.472" width="357.12" height="266.112"/>
  </clipPath>
 </defs>
</svg>
