<?xml version="1.0" encoding="utf-8" standalone="no"?>
<!DOCTYPE svg PUBLIC "-//W3C//DTD SVG 1.1//EN"
  "http://www.w3.org/Graphics/SVG/1.1/DTD/svg11.dtd">
<svg xmlns:xlink="http://www.w3.org/1999/xlink" width="460.8pt" height="345.6pt" viewBox="0 0 460.8 345.6" xmlns="http://www.w3.org/2000/svg" version="1.1">
 <metadata>
  <rdf:RDF xmlns:dc="http://purl.org/dc/elements/1.1/" xmlns:cc="http://creativecommons.org/ns#" xmlns:rdf="http://www.w3.org/1999/02/22-rdf-syntax-ns#">
   <cc:Work>
    <dc:type rdf:resource="http://purl.org/dc/dcmitype/StillImage"/>
    <dc:date>2025-03-12T14:08:45.498648</dc:date>
    <dc:format>image/svg+xml</dc:format>
    <dc:creator>
     <cc:Agent>
      <dc:title>Matplotlib v3.9.1, https://matplotlib.org/</dc:title>
     </cc:Agent>
    </dc:creator>
   </cc:Work>
  </rdf:RDF>
 </metadata>
 <defs>
  <style type="text/css">*{stroke-linejoin: round; stroke-linecap: butt}</style>
 </defs>
 <g id="figure_1">
  <g id="patch_1">
   <path d="M 0 345.6 
L 460.8 345.6 
L 460.8 0 
L 0 0 
z
" style="fill: #ffffff"/>
  </g>
  <g id="axes_1">
   <g id="patch_2">
    <path d="M 57.6 307.584 
L 414.72 307.584 
L 414.72 41.472 
L 57.6 41.472 
z
" style="fill: #ffffff"/>
   </g>
   <g id="matplotlib.axis_1">
    <g id="xtick_1">
     <g id="line2d_1">
      <defs>
       <path id="mf42764d8ac" d="M 0 0 
L 0 3.5 
" style="stroke: #000000; stroke-width: 0.8"/>
      </defs>
      <g>
       <use xlink:href="#mf42764d8ac" x="73.832727" y="307.584" style="stroke: #000000; stroke-width: 0.8"/>
      </g>
     </g>
     <g id="text_1">
      <!-- 1 -->
      <g transform="translate(70.651477 322.182437) scale(0.1 -0.1)">
       <defs>
        <path id="DejaVuSans-31" d="M 794 531 
L 1825 531 
L 1825 4091 
L 703 3866 
L 703 4441 
L 1819 4666 
L 2450 4666 
L 2450 531 
L 3481 531 
L 3481 0 
L 794 0 
L 794 531 
z
" transform="scale(0.015625)"/>
       </defs>
       <use xlink:href="#DejaVuSans-31"/>
      </g>
     </g>
    </g>
    <g id="xtick_2">
     <g id="line2d_2">
      <g>
       <use xlink:href="#mf42764d8ac" x="109.664165" y="307.584" style="stroke: #000000; stroke-width: 0.8"/>
      </g>
     </g>
     <g id="text_2">
      <!-- 34 -->
      <g transform="translate(103.301665 322.182437) scale(0.1 -0.1)">
       <defs>
        <path id="DejaVuSans-33" d="M 2597 2516 
Q 3050 2419 3304 2112 
Q 3559 1806 3559 1356 
Q 3559 666 3084 287 
Q 2609 -91 1734 -91 
Q 1441 -91 1130 -33 
Q 819 25 488 141 
L 488 750 
Q 750 597 1062 519 
Q 1375 441 1716 441 
Q 2309 441 2620 675 
Q 2931 909 2931 1356 
Q 2931 1769 2642 2001 
Q 2353 2234 1838 2234 
L 1294 2234 
L 1294 2753 
L 1863 2753 
Q 2328 2753 2575 2939 
Q 2822 3125 2822 3475 
Q 2822 3834 2567 4026 
Q 2313 4219 1838 4219 
Q 1578 4219 1281 4162 
Q 984 4106 628 3988 
L 628 4550 
Q 988 4650 1302 4700 
Q 1616 4750 1894 4750 
Q 2613 4750 3031 4423 
Q 3450 4097 3450 3541 
Q 3450 3153 3228 2886 
Q 3006 2619 2597 2516 
z
" transform="scale(0.015625)"/>
        <path id="DejaVuSans-34" d="M 2419 4116 
L 825 1625 
L 2419 1625 
L 2419 4116 
z
M 2253 4666 
L 3047 4666 
L 3047 1625 
L 3713 1625 
L 3713 1100 
L 3047 1100 
L 3047 0 
L 2419 0 
L 2419 1100 
L 313 1100 
L 313 1709 
L 2253 4666 
z
" transform="scale(0.015625)"/>
       </defs>
       <use xlink:href="#DejaVuSans-33"/>
       <use xlink:href="#DejaVuSans-34" x="63.623047"/>
      </g>
     </g>
    </g>
    <g id="xtick_3">
     <g id="line2d_3">
      <g>
       <use xlink:href="#mf42764d8ac" x="145.495604" y="307.584" style="stroke: #000000; stroke-width: 0.8"/>
      </g>
     </g>
     <g id="text_3">
      <!-- 67 -->
      <g transform="translate(139.133104 322.182437) scale(0.1 -0.1)">
       <defs>
        <path id="DejaVuSans-36" d="M 2113 2584 
Q 1688 2584 1439 2293 
Q 1191 2003 1191 1497 
Q 1191 994 1439 701 
Q 1688 409 2113 409 
Q 2538 409 2786 701 
Q 3034 994 3034 1497 
Q 3034 2003 2786 2293 
Q 2538 2584 2113 2584 
z
M 3366 4563 
L 3366 3988 
Q 3128 4100 2886 4159 
Q 2644 4219 2406 4219 
Q 1781 4219 1451 3797 
Q 1122 3375 1075 2522 
Q 1259 2794 1537 2939 
Q 1816 3084 2150 3084 
Q 2853 3084 3261 2657 
Q 3669 2231 3669 1497 
Q 3669 778 3244 343 
Q 2819 -91 2113 -91 
Q 1303 -91 875 529 
Q 447 1150 447 2328 
Q 447 3434 972 4092 
Q 1497 4750 2381 4750 
Q 2619 4750 2861 4703 
Q 3103 4656 3366 4563 
z
" transform="scale(0.015625)"/>
        <path id="DejaVuSans-37" d="M 525 4666 
L 3525 4666 
L 3525 4397 
L 1831 0 
L 1172 0 
L 2766 4134 
L 525 4134 
L 525 4666 
z
" transform="scale(0.015625)"/>
       </defs>
       <use xlink:href="#DejaVuSans-36"/>
       <use xlink:href="#DejaVuSans-37" x="63.623047"/>
      </g>
     </g>
    </g>
    <g id="xtick_4">
     <g id="line2d_4">
      <g>
       <use xlink:href="#mf42764d8ac" x="181.327042" y="307.584" style="stroke: #000000; stroke-width: 0.8"/>
      </g>
     </g>
     <g id="text_4">
      <!-- 100 -->
      <g transform="translate(171.783292 322.182437) scale(0.1 -0.1)">
       <defs>
        <path id="DejaVuSans-30" d="M 2034 4250 
Q 1547 4250 1301 3770 
Q 1056 3291 1056 2328 
Q 1056 1369 1301 889 
Q 1547 409 2034 409 
Q 2525 409 2770 889 
Q 3016 1369 3016 2328 
Q 3016 3291 2770 3770 
Q 2525 4250 2034 4250 
z
M 2034 4750 
Q 2819 4750 3233 4129 
Q 3647 3509 3647 2328 
Q 3647 1150 3233 529 
Q 2819 -91 2034 -91 
Q 1250 -91 836 529 
Q 422 1150 422 2328 
Q 422 3509 836 4129 
Q 1250 4750 2034 4750 
z
" transform="scale(0.015625)"/>
       </defs>
       <use xlink:href="#DejaVuSans-31"/>
       <use xlink:href="#DejaVuSans-30" x="63.623047"/>
       <use xlink:href="#DejaVuSans-30" x="127.246094"/>
      </g>
     </g>
    </g>
    <g id="xtick_5">
     <g id="line2d_5">
      <g>
       <use xlink:href="#mf42764d8ac" x="217.15848" y="307.584" style="stroke: #000000; stroke-width: 0.8"/>
      </g>
     </g>
     <g id="text_5">
      <!-- 133 -->
      <g transform="translate(207.61473 322.182437) scale(0.1 -0.1)">
       <use xlink:href="#DejaVuSans-31"/>
       <use xlink:href="#DejaVuSans-33" x="63.623047"/>
       <use xlink:href="#DejaVuSans-33" x="127.246094"/>
      </g>
     </g>
    </g>
    <g id="xtick_6">
     <g id="line2d_6">
      <g>
       <use xlink:href="#mf42764d8ac" x="254.075719" y="307.584" style="stroke: #000000; stroke-width: 0.8"/>
      </g>
     </g>
     <g id="text_6">
      <!-- 167 -->
      <g transform="translate(244.531969 322.182437) scale(0.1 -0.1)">
       <use xlink:href="#DejaVuSans-31"/>
       <use xlink:href="#DejaVuSans-36" x="63.623047"/>
       <use xlink:href="#DejaVuSans-37" x="127.246094"/>
      </g>
     </g>
    </g>
    <g id="xtick_7">
     <g id="line2d_7">
      <g>
       <use xlink:href="#mf42764d8ac" x="289.907157" y="307.584" style="stroke: #000000; stroke-width: 0.8"/>
      </g>
     </g>
     <g id="text_7">
      <!-- 200 -->
      <g transform="translate(280.363407 322.182437) scale(0.1 -0.1)">
       <defs>
        <path id="DejaVuSans-32" d="M 1228 531 
L 3431 531 
L 3431 0 
L 469 0 
L 469 531 
Q 828 903 1448 1529 
Q 2069 2156 2228 2338 
Q 2531 2678 2651 2914 
Q 2772 3150 2772 3378 
Q 2772 3750 2511 3984 
Q 2250 4219 1831 4219 
Q 1534 4219 1204 4116 
Q 875 4013 500 3803 
L 500 4441 
Q 881 4594 1212 4672 
Q 1544 4750 1819 4750 
Q 2544 4750 2975 4387 
Q 3406 4025 3406 3419 
Q 3406 3131 3298 2873 
Q 3191 2616 2906 2266 
Q 2828 2175 2409 1742 
Q 1991 1309 1228 531 
z
" transform="scale(0.015625)"/>
       </defs>
       <use xlink:href="#DejaVuSans-32"/>
       <use xlink:href="#DejaVuSans-30" x="63.623047"/>
       <use xlink:href="#DejaVuSans-30" x="127.246094"/>
      </g>
     </g>
    </g>
    <g id="xtick_8">
     <g id="line2d_8">
      <g>
       <use xlink:href="#mf42764d8ac" x="325.738595" y="307.584" style="stroke: #000000; stroke-width: 0.8"/>
      </g>
     </g>
     <g id="text_8">
      <!-- 233 -->
      <g transform="translate(316.194845 322.182437) scale(0.1 -0.1)">
       <use xlink:href="#DejaVuSans-32"/>
       <use xlink:href="#DejaVuSans-33" x="63.623047"/>
       <use xlink:href="#DejaVuSans-33" x="127.246094"/>
      </g>
     </g>
    </g>
    <g id="xtick_9">
     <g id="line2d_9">
      <g>
       <use xlink:href="#mf42764d8ac" x="361.570033" y="307.584" style="stroke: #000000; stroke-width: 0.8"/>
      </g>
     </g>
     <g id="text_9">
      <!-- 266 -->
      <g transform="translate(352.026283 322.182437) scale(0.1 -0.1)">
       <use xlink:href="#DejaVuSans-32"/>
       <use xlink:href="#DejaVuSans-36" x="63.623047"/>
       <use xlink:href="#DejaVuSans-36" x="127.246094"/>
      </g>
     </g>
    </g>
    <g id="xtick_10">
     <g id="line2d_10">
      <g>
       <use xlink:href="#mf42764d8ac" x="398.487273" y="307.584" style="stroke: #000000; stroke-width: 0.8"/>
      </g>
     </g>
     <g id="text_10">
      <!-- 300 -->
      <g transform="translate(388.943523 322.182437) scale(0.1 -0.1)">
       <use xlink:href="#DejaVuSans-33"/>
       <use xlink:href="#DejaVuSans-30" x="63.623047"/>
       <use xlink:href="#DejaVuSans-30" x="127.246094"/>
      </g>
     </g>
    </g>
    <g id="text_11">
     <!-- Epochs -->
     <g transform="translate(218.244375 335.860562) scale(0.1 -0.1)">
      <defs>
       <path id="DejaVuSans-45" d="M 628 4666 
L 3578 4666 
L 3578 4134 
L 1259 4134 
L 1259 2753 
L 3481 2753 
L 3481 2222 
L 1259 2222 
L 1259 531 
L 3634 531 
L 3634 0 
L 628 0 
L 628 4666 
z
" transform="scale(0.015625)"/>
       <path id="DejaVuSans-70" d="M 1159 525 
L 1159 -1331 
L 581 -1331 
L 581 3500 
L 1159 3500 
L 1159 2969 
Q 1341 3281 1617 3432 
Q 1894 3584 2278 3584 
Q 2916 3584 3314 3078 
Q 3713 2572 3713 1747 
Q 3713 922 3314 415 
Q 2916 -91 2278 -91 
Q 1894 -91 1617 61 
Q 1341 213 1159 525 
z
M 3116 1747 
Q 3116 2381 2855 2742 
Q 2594 3103 2138 3103 
Q 1681 3103 1420 2742 
Q 1159 2381 1159 1747 
Q 1159 1113 1420 752 
Q 1681 391 2138 391 
Q 2594 391 2855 752 
Q 3116 1113 3116 1747 
z
" transform="scale(0.015625)"/>
       <path id="DejaVuSans-6f" d="M 1959 3097 
Q 1497 3097 1228 2736 
Q 959 2375 959 1747 
Q 959 1119 1226 758 
Q 1494 397 1959 397 
Q 2419 397 2687 759 
Q 2956 1122 2956 1747 
Q 2956 2369 2687 2733 
Q 2419 3097 1959 3097 
z
M 1959 3584 
Q 2709 3584 3137 3096 
Q 3566 2609 3566 1747 
Q 3566 888 3137 398 
Q 2709 -91 1959 -91 
Q 1206 -91 779 398 
Q 353 888 353 1747 
Q 353 2609 779 3096 
Q 1206 3584 1959 3584 
z
" transform="scale(0.015625)"/>
       <path id="DejaVuSans-63" d="M 3122 3366 
L 3122 2828 
Q 2878 2963 2633 3030 
Q 2388 3097 2138 3097 
Q 1578 3097 1268 2742 
Q 959 2388 959 1747 
Q 959 1106 1268 751 
Q 1578 397 2138 397 
Q 2388 397 2633 464 
Q 2878 531 3122 666 
L 3122 134 
Q 2881 22 2623 -34 
Q 2366 -91 2075 -91 
Q 1284 -91 818 406 
Q 353 903 353 1747 
Q 353 2603 823 3093 
Q 1294 3584 2113 3584 
Q 2378 3584 2631 3529 
Q 2884 3475 3122 3366 
z
" transform="scale(0.015625)"/>
       <path id="DejaVuSans-68" d="M 3513 2113 
L 3513 0 
L 2938 0 
L 2938 2094 
Q 2938 2591 2744 2837 
Q 2550 3084 2163 3084 
Q 1697 3084 1428 2787 
Q 1159 2491 1159 1978 
L 1159 0 
L 581 0 
L 581 4863 
L 1159 4863 
L 1159 2956 
Q 1366 3272 1645 3428 
Q 1925 3584 2291 3584 
Q 2894 3584 3203 3211 
Q 3513 2838 3513 2113 
z
" transform="scale(0.015625)"/>
       <path id="DejaVuSans-73" d="M 2834 3397 
L 2834 2853 
Q 2591 2978 2328 3040 
Q 2066 3103 1784 3103 
Q 1356 3103 1142 2972 
Q 928 2841 928 2578 
Q 928 2378 1081 2264 
Q 1234 2150 1697 2047 
L 1894 2003 
Q 2506 1872 2764 1633 
Q 3022 1394 3022 966 
Q 3022 478 2636 193 
Q 2250 -91 1575 -91 
Q 1294 -91 989 -36 
Q 684 19 347 128 
L 347 722 
Q 666 556 975 473 
Q 1284 391 1588 391 
Q 1994 391 2212 530 
Q 2431 669 2431 922 
Q 2431 1156 2273 1281 
Q 2116 1406 1581 1522 
L 1381 1569 
Q 847 1681 609 1914 
Q 372 2147 372 2553 
Q 372 3047 722 3315 
Q 1072 3584 1716 3584 
Q 2034 3584 2315 3537 
Q 2597 3491 2834 3397 
z
" transform="scale(0.015625)"/>
      </defs>
      <use xlink:href="#DejaVuSans-45"/>
      <use xlink:href="#DejaVuSans-70" x="63.183594"/>
      <use xlink:href="#DejaVuSans-6f" x="126.660156"/>
      <use xlink:href="#DejaVuSans-63" x="187.841797"/>
      <use xlink:href="#DejaVuSans-68" x="242.822266"/>
      <use xlink:href="#DejaVuSans-73" x="306.201172"/>
     </g>
    </g>
   </g>
   <g id="matplotlib.axis_2">
    <g id="ytick_1">
     <g id="line2d_11">
      <defs>
       <path id="mb8f9eb6ac5" d="M 0 0 
L -3.5 0 
" style="stroke: #000000; stroke-width: 0.8"/>
      </defs>
      <g>
       <use xlink:href="#mb8f9eb6ac5" x="57.6" y="266.21864" style="stroke: #000000; stroke-width: 0.8"/>
      </g>
     </g>
     <g id="text_12">
      <!-- 20 -->
      <g transform="translate(37.875 270.017858) scale(0.1 -0.1)">
       <use xlink:href="#DejaVuSans-32"/>
       <use xlink:href="#DejaVuSans-30" x="63.623047"/>
      </g>
     </g>
    </g>
    <g id="ytick_2">
     <g id="line2d_12">
      <g>
       <use xlink:href="#mb8f9eb6ac5" x="57.6" y="212.800575" style="stroke: #000000; stroke-width: 0.8"/>
      </g>
     </g>
     <g id="text_13">
      <!-- 40 -->
      <g transform="translate(37.875 216.599793) scale(0.1 -0.1)">
       <use xlink:href="#DejaVuSans-34"/>
       <use xlink:href="#DejaVuSans-30" x="63.623047"/>
      </g>
     </g>
    </g>
    <g id="ytick_3">
     <g id="line2d_13">
      <g>
       <use xlink:href="#mb8f9eb6ac5" x="57.6" y="159.38251" style="stroke: #000000; stroke-width: 0.8"/>
      </g>
     </g>
     <g id="text_14">
      <!-- 60 -->
      <g transform="translate(37.875 163.181728) scale(0.1 -0.1)">
       <use xlink:href="#DejaVuSans-36"/>
       <use xlink:href="#DejaVuSans-30" x="63.623047"/>
      </g>
     </g>
    </g>
    <g id="ytick_4">
     <g id="line2d_14">
      <g>
       <use xlink:href="#mb8f9eb6ac5" x="57.6" y="105.964445" style="stroke: #000000; stroke-width: 0.8"/>
      </g>
     </g>
     <g id="text_15">
      <!-- 80 -->
      <g transform="translate(37.875 109.763663) scale(0.1 -0.1)">
       <defs>
        <path id="DejaVuSans-38" d="M 2034 2216 
Q 1584 2216 1326 1975 
Q 1069 1734 1069 1313 
Q 1069 891 1326 650 
Q 1584 409 2034 409 
Q 2484 409 2743 651 
Q 3003 894 3003 1313 
Q 3003 1734 2745 1975 
Q 2488 2216 2034 2216 
z
M 1403 2484 
Q 997 2584 770 2862 
Q 544 3141 544 3541 
Q 544 4100 942 4425 
Q 1341 4750 2034 4750 
Q 2731 4750 3128 4425 
Q 3525 4100 3525 3541 
Q 3525 3141 3298 2862 
Q 3072 2584 2669 2484 
Q 3125 2378 3379 2068 
Q 3634 1759 3634 1313 
Q 3634 634 3220 271 
Q 2806 -91 2034 -91 
Q 1263 -91 848 271 
Q 434 634 434 1313 
Q 434 1759 690 2068 
Q 947 2378 1403 2484 
z
M 1172 3481 
Q 1172 3119 1398 2916 
Q 1625 2713 2034 2713 
Q 2441 2713 2670 2916 
Q 2900 3119 2900 3481 
Q 2900 3844 2670 4047 
Q 2441 4250 2034 4250 
Q 1625 4250 1398 4047 
Q 1172 3844 1172 3481 
z
" transform="scale(0.015625)"/>
       </defs>
       <use xlink:href="#DejaVuSans-38"/>
       <use xlink:href="#DejaVuSans-30" x="63.623047"/>
      </g>
     </g>
    </g>
    <g id="ytick_5">
     <g id="line2d_15">
      <g>
       <use xlink:href="#mb8f9eb6ac5" x="57.6" y="52.54638" style="stroke: #000000; stroke-width: 0.8"/>
      </g>
     </g>
     <g id="text_16">
      <!-- 100 -->
      <g transform="translate(31.5125 56.345598) scale(0.1 -0.1)">
       <use xlink:href="#DejaVuSans-31"/>
       <use xlink:href="#DejaVuSans-30" x="63.623047"/>
       <use xlink:href="#DejaVuSans-30" x="127.246094"/>
      </g>
     </g>
    </g>
    <g id="text_17">
     <!-- Accuracy -->
     <g transform="translate(25.432812 197.356125) rotate(-90) scale(0.1 -0.1)">
      <defs>
       <path id="DejaVuSans-41" d="M 2188 4044 
L 1331 1722 
L 3047 1722 
L 2188 4044 
z
M 1831 4666 
L 2547 4666 
L 4325 0 
L 3669 0 
L 3244 1197 
L 1141 1197 
L 716 0 
L 50 0 
L 1831 4666 
z
" transform="scale(0.015625)"/>
       <path id="DejaVuSans-75" d="M 544 1381 
L 544 3500 
L 1119 3500 
L 1119 1403 
Q 1119 906 1312 657 
Q 1506 409 1894 409 
Q 2359 409 2629 706 
Q 2900 1003 2900 1516 
L 2900 3500 
L 3475 3500 
L 3475 0 
L 2900 0 
L 2900 538 
Q 2691 219 2414 64 
Q 2138 -91 1772 -91 
Q 1169 -91 856 284 
Q 544 659 544 1381 
z
M 1991 3584 
L 1991 3584 
z
" transform="scale(0.015625)"/>
       <path id="DejaVuSans-72" d="M 2631 2963 
Q 2534 3019 2420 3045 
Q 2306 3072 2169 3072 
Q 1681 3072 1420 2755 
Q 1159 2438 1159 1844 
L 1159 0 
L 581 0 
L 581 3500 
L 1159 3500 
L 1159 2956 
Q 1341 3275 1631 3429 
Q 1922 3584 2338 3584 
Q 2397 3584 2469 3576 
Q 2541 3569 2628 3553 
L 2631 2963 
z
" transform="scale(0.015625)"/>
       <path id="DejaVuSans-61" d="M 2194 1759 
Q 1497 1759 1228 1600 
Q 959 1441 959 1056 
Q 959 750 1161 570 
Q 1363 391 1709 391 
Q 2188 391 2477 730 
Q 2766 1069 2766 1631 
L 2766 1759 
L 2194 1759 
z
M 3341 1997 
L 3341 0 
L 2766 0 
L 2766 531 
Q 2569 213 2275 61 
Q 1981 -91 1556 -91 
Q 1019 -91 701 211 
Q 384 513 384 1019 
Q 384 1609 779 1909 
Q 1175 2209 1959 2209 
L 2766 2209 
L 2766 2266 
Q 2766 2663 2505 2880 
Q 2244 3097 1772 3097 
Q 1472 3097 1187 3025 
Q 903 2953 641 2809 
L 641 3341 
Q 956 3463 1253 3523 
Q 1550 3584 1831 3584 
Q 2591 3584 2966 3190 
Q 3341 2797 3341 1997 
z
" transform="scale(0.015625)"/>
       <path id="DejaVuSans-79" d="M 2059 -325 
Q 1816 -950 1584 -1140 
Q 1353 -1331 966 -1331 
L 506 -1331 
L 506 -850 
L 844 -850 
Q 1081 -850 1212 -737 
Q 1344 -625 1503 -206 
L 1606 56 
L 191 3500 
L 800 3500 
L 1894 763 
L 2988 3500 
L 3597 3500 
L 2059 -325 
z
" transform="scale(0.015625)"/>
      </defs>
      <use xlink:href="#DejaVuSans-41"/>
      <use xlink:href="#DejaVuSans-63" x="66.658203"/>
      <use xlink:href="#DejaVuSans-63" x="121.638672"/>
      <use xlink:href="#DejaVuSans-75" x="176.619141"/>
      <use xlink:href="#DejaVuSans-72" x="239.998047"/>
      <use xlink:href="#DejaVuSans-61" x="281.111328"/>
      <use xlink:href="#DejaVuSans-63" x="342.390625"/>
      <use xlink:href="#DejaVuSans-79" x="397.371094"/>
     </g>
    </g>
   </g>
   <g id="line2d_16">
    <path d="M 73.832727 295.071072 
L 74.918528 269.109892 
L 76.00433 248.103238 
L 77.090131 232.304846 
L 78.175932 218.843493 
L 80.347534 198.03048 
L 81.433335 189.062922 
L 83.604938 175.140839 
L 85.77654 163.181869 
L 87.948142 152.284584 
L 90.119745 143.664244 
L 91.205546 139.611148 
L 92.291347 137.067113 
L 93.377148 134.109088 
L 94.462949 133.334526 
L 95.54875 166.553885 
L 96.634552 164.664221 
L 97.720353 160.838152 
L 100.977756 151.102709 
L 102.063557 147.890948 
L 107.492563 134.022283 
L 108.578364 130.122764 
L 109.664165 129.187948 
L 110.749967 125.14153 
L 112.921569 119.045193 
L 114.00737 117.195593 
L 115.093171 114.137408 
L 116.178972 111.827077 
L 118.350575 105.684 
L 119.436376 103.20006 
L 120.522177 101.023274 
L 121.607978 98.27892 
L 122.693779 95.160641 
L 123.77958 93.364458 
L 124.865382 90.519946 
L 125.951183 88.543478 
L 127.036984 86.820745 
L 128.122785 84.12981 
L 129.208586 82.420432 
L 130.294387 80.457318 
L 131.380189 79.52918 
L 132.46599 78.340628 
L 133.551791 76.818213 
L 134.637592 76.304064 
L 135.723393 75.275766 
L 136.809194 75.516147 
L 137.894995 75.31583 
L 138.980797 113.930413 
L 140.066598 118.684621 
L 141.152399 117.9568 
L 142.2382 115.800046 
L 143.324001 115.125643 
L 144.409802 113.596551 
L 145.495604 112.882084 
L 147.667206 109.470005 
L 148.753007 108.134553 
L 149.838808 107.239801 
L 150.924609 105.850931 
L 153.096212 102.705943 
L 154.182013 101.864608 
L 155.267814 100.175262 
L 156.353615 98.712942 
L 157.439416 97.74474 
L 158.525217 96.102134 
L 159.611019 95.661435 
L 160.69682 92.576542 
L 161.782621 91.962234 
L 163.954223 89.792125 
L 165.040024 88.049361 
L 166.125825 87.508503 
L 167.211627 86.667169 
L 168.297428 84.830923 
L 169.383229 83.488794 
L 171.554831 81.385457 
L 174.812235 78.133633 
L 175.898036 76.48435 
L 178.069638 75.142221 
L 179.155439 73.553034 
L 180.24124 73.058916 
L 181.327042 71.696756 
L 182.412843 71.202639 
L 183.498644 69.800415 
L 184.584445 69.606774 
L 185.670246 68.171164 
L 186.756047 67.523469 
L 187.841849 66.334918 
L 188.92765 65.72061 
L 190.013451 64.939371 
L 191.099252 64.578799 
L 192.185053 63.657337 
L 193.270854 63.296765 
L 194.356656 62.522203 
L 195.442457 61.934604 
L 196.528258 60.766084 
L 197.614059 61.01982 
L 198.69986 60.418867 
L 199.785661 59.564178 
L 200.871462 59.43731 
L 201.957264 58.836357 
L 205.214667 57.841445 
L 206.300468 57.29391 
L 209.557872 56.786438 
L 210.643673 56.512671 
L 211.729474 56.092004 
L 212.815275 56.232226 
L 213.901076 55.824913 
L 214.986877 55.951781 
L 216.072679 55.7114 
L 218.244281 55.838268 
L 219.330082 55.537791 
L 220.415883 55.571177 
L 221.501684 55.424278 
L 222.587486 55.624596 
L 224.759088 55.197251 
L 225.844889 81.211849 
L 226.93069 86.753973 
L 228.016491 87.989266 
L 229.102292 87.314863 
L 230.188094 86.900873 
L 231.273895 86.61375 
L 232.359696 85.218204 
L 233.445497 85.211526 
L 234.531298 84.8376 
L 237.788702 82.914549 
L 238.874503 82.113279 
L 239.960304 82.5473 
L 241.046105 81.973056 
L 242.131906 81.973056 
L 243.217708 80.871308 
L 244.303509 80.223614 
L 245.38931 80.170196 
L 246.475111 79.008353 
L 247.560912 79.348894 
L 248.646713 78.300564 
L 249.732514 78.62775 
L 250.818316 77.793092 
L 251.904117 77.252235 
L 254.075719 75.569566 
L 255.16152 75.85001 
L 257.333123 75.09548 
L 258.418924 75.075448 
L 259.504725 73.486261 
L 260.590526 73.800092 
L 261.676327 73.653192 
L 262.762128 72.698345 
L 263.847929 72.604863 
L 266.019532 71.970523 
L 267.105333 71.035707 
L 268.191134 71.736819 
L 269.276935 71.256057 
L 270.362736 70.574976 
L 271.448538 70.488172 
L 272.534339 69.546679 
L 273.62014 69.359715 
L 274.705941 69.433165 
L 276.877543 68.291354 
L 277.963344 67.837301 
L 279.049146 67.803914 
L 280.134947 68.030941 
L 281.220748 67.269734 
L 282.306549 66.909162 
L 283.39235 67.510115 
L 284.478151 66.041118 
L 285.563953 66.388336 
L 286.649754 65.466874 
L 287.735555 65.633805 
L 288.821356 64.845889 
L 289.907157 64.612185 
L 290.992958 64.739053 
L 292.07876 64.638894 
L 293.164561 64.118068 
L 294.250362 64.037941 
L 295.336163 64.25829 
L 297.507765 62.936193 
L 299.679368 62.789293 
L 300.765169 62.962902 
L 301.85097 62.101536 
L 304.022572 61.901218 
L 305.108373 61.306942 
L 306.194175 61.320297 
L 307.279976 60.919661 
L 308.365777 60.652571 
L 309.451578 60.993111 
L 310.537379 60.298676 
L 314.880584 59.277056 
L 315.966385 59.350506 
L 317.052186 59.21696 
L 318.137987 58.702812 
L 319.223788 59.029997 
L 320.30959 58.242081 
L 321.395391 57.968313 
L 322.481192 58.12189 
L 323.566993 58.088504 
L 324.652794 57.821413 
L 325.738595 57.701223 
L 326.824396 57.267201 
L 327.910198 57.374037 
L 328.995999 57.10027 
L 333.339203 56.472607 
L 334.425005 56.105358 
L 337.682408 55.691368 
L 338.768209 55.778172 
L 340.939811 55.504405 
L 344.197215 54.923483 
L 345.283016 55.063706 
L 346.368817 54.850034 
L 347.454618 54.95687 
L 348.54042 54.709811 
L 349.626221 54.703134 
L 353.969425 54.295821 
L 356.141028 54.188985 
L 360.484232 53.955281 
L 361.570033 54.002022 
L 362.655835 53.921895 
L 363.741636 53.568 
L 364.827437 53.98199 
L 365.913238 53.808381 
L 366.999039 53.881831 
L 368.08484 53.634773 
L 369.170642 53.808381 
L 370.256443 54.122212 
L 371.342244 54.309176 
L 372.428045 54.262435 
L 373.513846 54.409335 
L 374.599647 54.703134 
L 375.685448 54.683102 
L 376.77125 54.549557 
L 378.942852 54.569589 
L 380.028653 54.449398 
L 381.114454 54.462753 
L 382.200255 54.66307 
L 383.286057 54.562911 
L 384.371858 54.80997 
L 386.54346 54.723166 
L 387.629261 54.629684 
L 389.800863 54.729843 
L 390.886665 54.656393 
L 391.972466 54.863388 
L 393.058267 54.609652 
L 395.229869 54.936838 
L 397.401472 54.536202 
L 398.487273 54.696457 
L 398.487273 54.696457 
" clip-path="url(#p4c321806f9)" style="fill: none; stroke: #1f77b4; stroke-width: 1.5; stroke-linecap: square"/>
   </g>
   <g id="line2d_17">
    <path d="M 73.832727 288.30701 
L 74.918528 259.220873 
L 76.00433 250.406892 
L 77.090131 223.777987 
L 79.261733 207.432059 
L 80.347534 203.879758 
L 81.433335 197.977062 
L 82.519137 187.934465 
L 83.604938 182.806331 
L 84.690739 179.467702 
L 85.77654 171.561828 
L 86.862341 169.184725 
L 87.948142 167.10142 
L 89.033943 160.931633 
L 90.119745 159.08871 
L 91.205546 157.619713 
L 92.291347 154.094121 
L 93.377148 156.07059 
L 94.462949 154.841974 
L 95.54875 180.242264 
L 96.634552 181.203789 
L 97.720353 176.583127 
L 98.806154 167.128129 
L 99.891955 163.736082 
L 100.977756 170.840685 
L 102.063557 160.637834 
L 103.149358 164.35039 
L 104.23516 159.355801 
L 105.320961 160.050235 
L 106.406762 154.574884 
L 107.492563 151.770435 
L 108.578364 151.129419 
L 109.664165 151.797144 
L 110.749967 151.316382 
L 111.835768 150.301439 
L 112.921569 150.568529 
L 114.00737 142.983164 
L 115.093171 142.582528 
L 116.178972 144.74596 
L 117.264773 141.647712 
L 118.350575 141.888093 
L 119.436376 139.110354 
L 120.522177 138.309083 
L 121.607978 137.080467 
L 122.693779 139.056936 
L 123.77958 140.60606 
L 124.865382 137.988575 
L 125.951183 136.679832 
L 127.036984 135.664889 
L 128.122785 132.780313 
L 129.208586 134.035638 
L 130.294387 134.5164 
L 132.46599 131.872206 
L 133.551791 133.234367 
L 134.637592 131.845497 
L 135.723393 131.364734 
L 137.894995 132.139296 
L 138.980797 150.434984 
L 140.066598 151.663599 
L 141.152399 148.832442 
L 142.2382 144.318615 
L 143.324001 155.028937 
L 144.409802 148.244843 
L 146.581405 144.238488 
L 147.667206 147.844208 
L 148.753007 144.986341 
L 149.838808 141.380622 
L 150.924609 142.288729 
L 152.01041 144.398742 
L 153.096212 142.422274 
L 154.182013 141.594294 
L 155.267814 143.303672 
L 156.353615 141.327204 
L 157.439416 143.891271 
L 158.525217 141.113531 
L 159.611019 143.250254 
L 160.69682 138.736427 
L 161.782621 141.941511 
L 162.868422 137.82832 
L 163.954223 138.549464 
L 165.040024 141.487458 
L 166.125825 138.148829 
L 167.211627 136.038815 
L 168.297428 136.679832 
L 169.383229 137.961865 
L 170.46903 136.386033 
L 171.554831 135.798434 
L 172.640632 135.745016 
L 173.726434 133.68842 
L 174.812235 137.267431 
L 175.898036 137.027049 
L 176.983837 134.836909 
L 178.069638 133.955511 
L 179.155439 133.928802 
L 180.24124 133.100822 
L 181.327042 134.195892 
L 182.412843 132.700186 
L 183.498644 131.49828 
L 184.584445 132.539932 
L 185.670246 135.237544 
L 186.756047 130.349791 
L 187.841849 130.403209 
L 188.92765 130.857263 
L 190.013451 128.934212 
L 191.099252 130.323082 
L 192.185053 128.426741 
L 193.270854 130.189537 
L 194.356656 129.869029 
L 195.442457 128.987631 
L 196.528258 129.067758 
L 197.614059 126.717363 
L 198.69986 126.637236 
L 199.785661 128.132942 
L 200.871462 128.586995 
L 204.128866 126.557109 
L 205.214667 125.755838 
L 206.300468 126.904326 
L 207.386269 126.583818 
L 208.472071 125.889383 
L 209.557872 125.595583 
L 210.643673 124.634058 
L 211.729474 125.168239 
L 212.815275 125.114821 
L 213.901076 124.473804 
L 214.986877 124.87444 
L 216.072679 124.821021 
L 217.15848 124.500513 
L 218.244281 124.420386 
L 219.330082 123.645824 
L 220.415883 124.660767 
L 221.501684 124.073169 
L 222.587486 124.340259 
L 223.673287 123.592406 
L 224.759088 124.87444 
L 225.844889 141.914802 
L 226.93069 139.243899 
L 228.016491 143.463926 
L 229.102292 141.861384 
L 230.188094 139.430862 
L 231.273895 140.712896 
L 233.445497 140.846441 
L 234.531298 140.445806 
L 235.617099 142.689364 
L 236.702901 140.178715 
L 237.788702 138.576173 
L 238.874503 138.12212 
L 239.960304 139.190481 
L 241.046105 138.763136 
L 242.131906 140.899859 
L 243.217708 141.43404 
L 244.303509 140.979986 
L 245.38931 141.888093 
L 246.475111 142.075056 
L 247.560912 139.270608 
L 248.646713 138.869973 
L 249.732514 143.063291 
L 250.818316 143.170127 
L 251.904117 140.846441 
L 252.989918 140.31226 
L 254.075719 140.499224 
L 255.16152 138.068702 
L 256.247321 138.683009 
L 257.333123 138.549464 
L 258.418924 135.531344 
L 259.504725 137.374267 
L 260.590526 139.938334 
L 261.676327 138.9501 
L 262.762128 138.202247 
L 263.847929 138.843264 
L 264.933731 138.496046 
L 266.019532 136.439451 
L 267.105333 140.579351 
L 269.276935 139.697953 
L 270.362736 137.774902 
L 271.448538 135.050581 
L 272.534339 135.771725 
L 273.62014 135.931979 
L 274.705941 137.374267 
L 275.791742 135.664889 
L 276.877543 135.825143 
L 277.963344 136.946922 
L 279.049146 131.845497 
L 280.134947 137.347558 
L 281.220748 135.584762 
L 282.306549 137.374267 
L 283.39235 136.46616 
L 284.478151 136.305905 
L 285.563953 135.023872 
L 286.649754 131.311316 
L 287.735555 135.397798 
L 288.821356 136.626414 
L 289.907157 133.287785 
L 290.992958 132.940567 
L 292.07876 135.157417 
L 293.164561 134.489691 
L 294.250362 135.798434 
L 295.336163 133.661711 
L 296.421964 132.993985 
L 297.507765 137.481103 
L 298.593566 130.590173 
L 299.679368 133.207658 
L 300.765169 132.166005 
L 301.85097 133.474748 
L 302.936771 133.020694 
L 304.022572 132.379678 
L 305.108373 133.100822 
L 306.194175 130.456627 
L 307.279976 133.234367 
L 308.365777 130.3765 
L 309.451578 131.898915 
L 310.537379 132.166005 
L 311.62318 131.311316 
L 312.708981 129.922447 
L 313.794783 129.788902 
L 314.880584 134.863618 
L 315.966385 129.869029 
L 317.052186 130.242955 
L 318.137987 131.017517 
L 319.223788 129.815611 
L 320.30959 131.364734 
L 321.395391 130.910681 
L 322.481192 131.658534 
L 323.566993 129.094467 
L 324.652794 129.655356 
L 325.738595 129.201303 
L 326.824396 132.673477 
L 327.910198 127.999396 
L 328.995999 128.400032 
L 331.167601 128.266487 
L 332.253402 127.198125 
L 333.339203 128.45345 
L 334.425005 127.037871 
L 335.510806 126.79749 
L 336.596607 128.106232 
L 337.682408 127.865851 
L 338.768209 126.637236 
L 339.85401 126.610527 
L 340.939811 126.396854 
L 342.025613 126.423563 
L 343.111414 126.2366 
L 344.197215 124.847731 
L 345.283016 124.687476 
L 346.368817 125.462038 
L 347.454618 124.473804 
L 348.54042 124.714185 
L 349.626221 125.381911 
L 350.712022 126.2366 
L 351.797823 125.248366 
L 352.883624 124.927858 
L 353.969425 123.378734 
L 355.055227 123.779369 
L 356.141028 122.92468 
L 357.226829 122.951389 
L 358.31263 122.524045 
L 359.398431 123.058225 
L 360.484232 122.176827 
L 361.570033 122.951389 
L 362.655835 121.642647 
L 363.741636 121.53581 
L 364.827437 121.802901 
L 365.913238 122.978098 
L 366.999039 122.550754 
L 368.08484 121.455683 
L 369.170642 123.48557 
L 370.256443 123.058225 
L 371.342244 122.497336 
L 372.428045 124.714185 
L 373.513846 124.660767 
L 374.599647 125.649002 
L 375.685448 125.729129 
L 376.77125 124.180005 
L 377.857051 125.70242 
L 378.942852 124.847731 
L 380.028653 125.649002 
L 381.114454 125.061403 
L 382.200255 125.515456 
L 383.286057 124.901149 
L 384.371858 126.984453 
L 385.457659 125.488747 
L 386.54346 126.370145 
L 387.629261 124.981276 
L 388.715062 126.824199 
L 389.800863 127.278252 
L 390.886665 127.06458 
L 391.972466 126.263309 
L 393.058267 126.183182 
L 394.144068 126.770781 
L 395.229869 125.435329 
L 396.31567 126.610527 
L 397.401472 126.637236 
L 398.487273 126.263309 
L 398.487273 126.263309 
" clip-path="url(#p4c321806f9)" style="fill: none; stroke: #ff7f0e; stroke-width: 1.5; stroke-linecap: square"/>
   </g>
   <g id="line2d_18">
    <path d="M 73.832727 295.488 
L 74.918528 270.307793 
L 76.00433 265.647601 
L 77.090131 243.967345 
L 78.175932 238.183237 
L 79.261733 245.735483 
L 80.347534 241.425179 
L 81.433335 240.78069 
L 82.519137 226.118232 
L 83.604938 230.02336 
L 84.690739 215.65577 
L 85.77654 231.054863 
L 86.862341 221.402753 
L 87.948142 219.247601 
L 89.033943 213.961082 
L 90.119745 213.703073 
L 91.205546 213.592765 
L 92.291347 211.842789 
L 93.377148 212.689999 
L 94.462949 212.174248 
L 95.54875 220.628992 
L 96.634552 232.067936 
L 97.720353 230.410107 
L 98.806154 220.500254 
L 99.891955 223.299895 
L 100.977756 231.515327 
L 102.063557 220.094811 
L 103.149358 216.52141 
L 104.23516 226.504979 
L 105.320961 210.811286 
L 106.406762 211.621638 
L 107.492563 212.984867 
L 108.578364 217.147737 
L 109.664165 204.714148 
L 110.749967 216.484551 
L 111.835768 212.229535 
L 112.921569 221.347465 
L 114.00737 210.921861 
L 115.093171 215.508336 
L 116.178972 208.619276 
L 117.264773 207.053592 
L 118.350575 211.676926 
L 119.436376 207.274476 
L 120.522177 209.908521 
L 121.607978 205.708792 
L 122.693779 207.808656 
L 123.77958 204.235255 
L 124.865382 200.109244 
L 125.951183 200.20139 
L 127.036984 203.130035 
L 128.122785 201.36163 
L 129.208586 202.595855 
L 130.294387 200.440703 
L 131.380189 197.677653 
L 132.46599 200.790591 
L 133.551791 199.72223 
L 134.637592 198.046238 
L 135.723393 197.143473 
L 136.809194 196.977877 
L 137.894995 198.838161 
L 138.980797 212.469116 
L 140.066598 212.11896 
L 141.152399 215.084731 
L 142.2382 214.56898 
L 143.324001 225.694627 
L 144.409802 206.353548 
L 145.495604 214.439975 
L 146.581405 205.487909 
L 147.667206 214.918868 
L 148.753007 209.650778 
L 149.838808 206.961446 
L 150.924609 207.937661 
L 152.01041 209.61392 
L 153.096212 200.25641 
L 154.182013 211.695355 
L 155.267814 215.305615 
L 156.353615 207.624631 
L 157.439416 205.911514 
L 158.525217 202.301254 
L 159.611019 207.550914 
L 160.69682 198.285551 
L 161.782621 204.308972 
L 162.868422 195.283189 
L 163.954223 206.390407 
L 165.040024 201.435347 
L 166.125825 198.414556 
L 167.211627 201.951098 
L 168.297428 195.835798 
L 169.383229 200.901166 
L 170.46903 198.267122 
L 171.554831 196.830443 
L 172.640632 201.803932 
L 173.726434 192.225538 
L 174.812235 194.841154 
L 175.898036 200.366986 
L 176.983837 195.283189 
L 178.069638 193.680647 
L 179.155439 196.001394 
L 180.24124 198.727585 
L 181.327042 198.377697 
L 182.412843 192.114963 
L 183.498644 191.764808 
L 184.584445 192.317418 
L 185.670246 198.967165 
L 186.756047 192.759719 
L 187.841849 189.720231 
L 188.92765 190.751734 
L 190.013451 191.08346 
L 191.099252 188.873021 
L 192.185053 187.086186 
L 193.270854 191.08346 
L 194.356656 190.475563 
L 195.442457 191.065031 
L 196.528258 190.53085 
L 197.614059 187.528221 
L 198.69986 187.767801 
L 200.871462 191.193769 
L 201.957264 190.641159 
L 203.043065 189.830807 
L 204.128866 187.952093 
L 205.214667 186.938753 
L 206.300468 190.346558 
L 207.386269 186.349551 
L 208.472071 185.962537 
L 209.557872 187.472933 
L 210.643673 184.72858 
L 211.729474 186.14683 
L 212.815275 185.778512 
L 213.901076 185.944108 
L 214.986877 186.570435 
L 216.072679 186.331122 
L 217.15848 184.673292 
L 218.244281 185.90725 
L 219.330082 184.396854 
L 220.415883 185.815371 
L 221.501684 184.525859 
L 222.587486 184.654863 
L 223.673287 184.599576 
L 224.759088 186.165259 
L 225.844889 195.946374 
L 226.93069 202.964172 
L 228.016491 198.617277 
L 229.102292 204.179967 
L 230.188094 204.566714 
L 231.273895 203.130035 
L 232.359696 207.624631 
L 233.445497 199.298624 
L 234.531298 201.656498 
L 235.617099 203.682645 
L 236.702901 199.814376 
L 237.788702 197.327765 
L 238.874503 195.872657 
L 239.960304 204.050963 
L 241.046105 193.496354 
L 242.131906 203.664216 
L 243.217708 207.587773 
L 244.303509 206.8693 
L 245.38931 203.866937 
L 246.475111 205.285187 
L 247.560912 209.540203 
L 248.646713 201.932669 
L 249.732514 207.348193 
L 250.818316 205.045874 
L 252.989918 204.087821 
L 254.075719 209.61392 
L 255.16152 191.727949 
L 256.247321 199.777517 
L 257.333123 201.177605 
L 258.418924 192.833169 
L 259.504725 194.509428 
L 260.590526 203.203752 
L 261.676327 202.301254 
L 262.762128 197.272477 
L 263.847929 197.125043 
L 264.933731 199.759088 
L 266.019532 199.004024 
L 267.105333 198.617277 
L 268.191134 201.472206 
L 269.276935 199.667209 
L 270.362736 199.059312 
L 271.448538 196.848872 
L 272.534339 195.301618 
L 273.62014 199.390771 
L 274.705941 195.540931 
L 275.791742 197.806658 
L 276.877543 186.625723 
L 277.963344 202.043245 
L 279.049146 194.398852 
L 280.134947 199.4092 
L 281.220748 194.712149 
L 283.39235 198.967165 
L 284.478151 196.719867 
L 285.563953 197.419911 
L 286.649754 194.785866 
L 287.735555 198.451414 
L 288.821356 197.19876 
L 289.907157 190.420275 
L 290.992958 196.093541 
L 292.07876 190.015099 
L 293.164561 194.104252 
L 294.250362 193.05432 
L 295.336163 201.324772 
L 296.421964 195.725223 
L 297.507765 209.484915 
L 298.593566 193.643788 
L 299.679368 189.002025 
L 300.765169 194.933033 
L 301.85097 191.893812 
L 302.936771 195.485643 
L 304.022572 193.496354 
L 305.108373 198.985595 
L 306.194175 191.267485 
L 307.279976 192.225538 
L 308.365777 187.620367 
L 309.451578 192.207109 
L 310.537379 189.480918 
L 311.62318 196.075111 
L 312.708981 190.143836 
L 313.794783 191.63607 
L 314.880584 196.204116 
L 315.966385 189.793948 
L 317.052186 190.051957 
L 318.137987 196.222545 
L 319.223788 195.762081 
L 320.30959 193.551642 
L 321.395391 189.44406 
L 322.481192 189.75709 
L 323.566993 190.972885 
L 324.652794 189.057046 
L 325.738595 185.888821 
L 326.824396 193.643788 
L 328.995999 192.207109 
L 330.0818 190.383417 
L 332.253402 185.741654 
L 333.339203 192.078105 
L 335.510806 186.791586 
L 336.596607 185.575791 
L 337.682408 193.551642 
L 338.768209 188.117689 
L 339.85401 186.14683 
L 340.939811 185.502074 
L 342.025613 186.570435 
L 343.111414 190.586138 
L 344.197215 186.975611 
L 345.283016 190.954456 
L 346.368817 189.959811 
L 347.454618 188.412557 
L 348.54042 186.183688 
L 349.626221 183.40221 
L 350.712022 183.715239 
L 351.797823 185.796941 
L 352.883624 185.851962 
L 353.969425 184.120683 
L 355.055227 188.725587 
L 356.141028 187.159903 
L 357.226829 183.586502 
L 358.31263 186.128401 
L 359.398431 182.941746 
L 360.484232 184.1944 
L 361.570033 180.620731 
L 362.655835 182.720595 
L 363.741636 184.1944 
L 364.827437 184.747009 
L 365.913238 184.304708 
L 366.999039 181.781238 
L 368.08484 183.770527 
L 369.170642 183.254776 
L 370.256443 189.112426 
L 371.342244 187.288844 
L 372.428045 187.638824 
L 373.513846 193.017471 
L 374.599647 183.033818 
L 375.685448 186.588883 
L 376.77125 188.394045 
L 377.857051 183.881139 
L 378.942852 188.596665 
L 380.028653 188.486145 
L 381.114454 186.331002 
L 382.200255 190.788648 
L 383.286057 183.936399 
L 384.371858 187.933544 
L 385.457659 187.878284 
L 386.54346 183.254859 
L 387.629261 189.462406 
L 388.715062 183.770619 
L 389.800863 188.412465 
L 390.886665 186.680983 
L 391.972466 187.417784 
L 393.058267 188.983486 
L 394.144068 186.902023 
L 395.229869 187.344104 
L 396.31567 186.865183 
L 397.401472 185.317901 
L 398.487273 187.086223 
L 398.487273 187.086223 
" clip-path="url(#p4c321806f9)" style="fill: none; stroke: #2ca02c; stroke-width: 1.5; stroke-linecap: square"/>
   </g>
   <g id="line2d_19">
    <path d="M 368.08484 121.53581 
L 369.170642 122.711008 
L 370.256443 125.034694 
L 371.342244 123.725951 
L 372.428045 123.245189 
L 373.513846 124.286841 
L 374.599647 125.061403 
L 375.685448 125.034694 
L 376.77125 123.832787 
L 377.857051 126.263309 
L 378.942852 125.007985 
L 380.028653 125.194948 
L 381.114454 123.966332 
L 382.200255 123.352025 
L 383.286057 125.14153 
L 384.371858 125.835965 
L 385.457659 124.04646 
L 386.54346 126.690654 
L 387.629261 126.503691 
L 388.715062 130.082701 
L 389.800863 129.521811 
L 390.886665 130.002574 
L 391.972466 128.880794 
L 393.058267 129.067758 
L 394.144068 129.01434 
L 395.229869 128.480159 
L 396.31567 128.079523 
L 397.401472 131.471571 
L 398.487273 131.338025 
L 398.487273 131.338025 
" clip-path="url(#p4c321806f9)" style="fill: none; stroke: #d62728; stroke-width: 1.5; stroke-linecap: square"/>
   </g>
   <g id="line2d_20">
    <path d="M 368.08484 181.762809 
L 369.170642 182.628449 
L 370.256443 182.462798 
L 371.342244 188.080905 
L 372.428045 184.894241 
L 373.513846 183.862719 
L 374.599647 181.154976 
L 375.685448 186.552043 
L 376.77125 185.704722 
L 377.857051 186.478363 
L 378.942852 187.067803 
L 380.028653 189.149266 
L 381.114454 186.552043 
L 382.200255 188.025644 
L 383.286057 189.849227 
L 384.371858 186.183642 
L 385.457659 183.549579 
L 386.54346 184.65478 
L 387.629261 187.159903 
L 388.715062 188.246685 
L 389.800863 189.554506 
L 390.886665 187.473044 
L 391.972466 184.78372 
L 393.058267 187.491464 
L 394.144068 185.741562 
L 395.229869 186.423102 
L 396.31567 188.080905 
L 397.401472 191.064948 
L 398.487273 187.178323 
L 398.487273 187.178323 
" clip-path="url(#p4c321806f9)" style="fill: none; stroke: #9467bd; stroke-width: 1.5; stroke-linecap: square"/>
   </g>
   <g id="patch_3">
    <path d="M 57.6 307.584 
L 57.6 41.472 
" style="fill: none; stroke: #000000; stroke-width: 0.8; stroke-linejoin: miter; stroke-linecap: square"/>
   </g>
   <g id="patch_4">
    <path d="M 414.72 307.584 
L 414.72 41.472 
" style="fill: none; stroke: #000000; stroke-width: 0.8; stroke-linejoin: miter; stroke-linecap: square"/>
   </g>
   <g id="patch_5">
    <path d="M 57.6 307.584 
L 414.72 307.584 
" style="fill: none; stroke: #000000; stroke-width: 0.8; stroke-linejoin: miter; stroke-linecap: square"/>
   </g>
   <g id="patch_6">
    <path d="M 57.6 41.472 
L 414.72 41.472 
" style="fill: none; stroke: #000000; stroke-width: 0.8; stroke-linejoin: miter; stroke-linecap: square"/>
   </g>
   <g id="text_18">
    <!-- Learning Curves -->
    <g transform="translate(187.37625 35.472) scale(0.12 -0.12)">
     <defs>
      <path id="DejaVuSans-4c" d="M 628 4666 
L 1259 4666 
L 1259 531 
L 3531 531 
L 3531 0 
L 628 0 
L 628 4666 
z
" transform="scale(0.015625)"/>
      <path id="DejaVuSans-65" d="M 3597 1894 
L 3597 1613 
L 953 1613 
Q 991 1019 1311 708 
Q 1631 397 2203 397 
Q 2534 397 2845 478 
Q 3156 559 3463 722 
L 3463 178 
Q 3153 47 2828 -22 
Q 2503 -91 2169 -91 
Q 1331 -91 842 396 
Q 353 884 353 1716 
Q 353 2575 817 3079 
Q 1281 3584 2069 3584 
Q 2775 3584 3186 3129 
Q 3597 2675 3597 1894 
z
M 3022 2063 
Q 3016 2534 2758 2815 
Q 2500 3097 2075 3097 
Q 1594 3097 1305 2825 
Q 1016 2553 972 2059 
L 3022 2063 
z
" transform="scale(0.015625)"/>
      <path id="DejaVuSans-6e" d="M 3513 2113 
L 3513 0 
L 2938 0 
L 2938 2094 
Q 2938 2591 2744 2837 
Q 2550 3084 2163 3084 
Q 1697 3084 1428 2787 
Q 1159 2491 1159 1978 
L 1159 0 
L 581 0 
L 581 3500 
L 1159 3500 
L 1159 2956 
Q 1366 3272 1645 3428 
Q 1925 3584 2291 3584 
Q 2894 3584 3203 3211 
Q 3513 2838 3513 2113 
z
" transform="scale(0.015625)"/>
      <path id="DejaVuSans-69" d="M 603 3500 
L 1178 3500 
L 1178 0 
L 603 0 
L 603 3500 
z
M 603 4863 
L 1178 4863 
L 1178 4134 
L 603 4134 
L 603 4863 
z
" transform="scale(0.015625)"/>
      <path id="DejaVuSans-67" d="M 2906 1791 
Q 2906 2416 2648 2759 
Q 2391 3103 1925 3103 
Q 1463 3103 1205 2759 
Q 947 2416 947 1791 
Q 947 1169 1205 825 
Q 1463 481 1925 481 
Q 2391 481 2648 825 
Q 2906 1169 2906 1791 
z
M 3481 434 
Q 3481 -459 3084 -895 
Q 2688 -1331 1869 -1331 
Q 1566 -1331 1297 -1286 
Q 1028 -1241 775 -1147 
L 775 -588 
Q 1028 -725 1275 -790 
Q 1522 -856 1778 -856 
Q 2344 -856 2625 -561 
Q 2906 -266 2906 331 
L 2906 616 
Q 2728 306 2450 153 
Q 2172 0 1784 0 
Q 1141 0 747 490 
Q 353 981 353 1791 
Q 353 2603 747 3093 
Q 1141 3584 1784 3584 
Q 2172 3584 2450 3431 
Q 2728 3278 2906 2969 
L 2906 3500 
L 3481 3500 
L 3481 434 
z
" transform="scale(0.015625)"/>
      <path id="DejaVuSans-20" transform="scale(0.015625)"/>
      <path id="DejaVuSans-43" d="M 4122 4306 
L 4122 3641 
Q 3803 3938 3442 4084 
Q 3081 4231 2675 4231 
Q 1875 4231 1450 3742 
Q 1025 3253 1025 2328 
Q 1025 1406 1450 917 
Q 1875 428 2675 428 
Q 3081 428 3442 575 
Q 3803 722 4122 1019 
L 4122 359 
Q 3791 134 3420 21 
Q 3050 -91 2638 -91 
Q 1578 -91 968 557 
Q 359 1206 359 2328 
Q 359 3453 968 4101 
Q 1578 4750 2638 4750 
Q 3056 4750 3426 4639 
Q 3797 4528 4122 4306 
z
" transform="scale(0.015625)"/>
      <path id="DejaVuSans-76" d="M 191 3500 
L 800 3500 
L 1894 563 
L 2988 3500 
L 3597 3500 
L 2284 0 
L 1503 0 
L 191 3500 
z
" transform="scale(0.015625)"/>
     </defs>
     <use xlink:href="#DejaVuSans-4c"/>
     <use xlink:href="#DejaVuSans-65" x="53.962891"/>
     <use xlink:href="#DejaVuSans-61" x="115.486328"/>
     <use xlink:href="#DejaVuSans-72" x="176.765625"/>
     <use xlink:href="#DejaVuSans-6e" x="216.128906"/>
     <use xlink:href="#DejaVuSans-69" x="279.507812"/>
     <use xlink:href="#DejaVuSans-6e" x="307.291016"/>
     <use xlink:href="#DejaVuSans-67" x="370.669922"/>
     <use xlink:href="#DejaVuSans-20" x="434.146484"/>
     <use xlink:href="#DejaVuSans-43" x="465.933594"/>
     <use xlink:href="#DejaVuSans-75" x="535.757812"/>
     <use xlink:href="#DejaVuSans-72" x="599.136719"/>
     <use xlink:href="#DejaVuSans-76" x="640.25"/>
     <use xlink:href="#DejaVuSans-65" x="699.429688"/>
     <use xlink:href="#DejaVuSans-73" x="760.953125"/>
    </g>
   </g>
   <g id="legend_1">
    <g id="patch_7">
     <path d="M 214.18875 302.584 
L 407.72 302.584 
Q 409.72 302.584 409.72 300.584 
L 409.72 228.193375 
Q 409.72 226.193375 407.72 226.193375 
L 214.18875 226.193375 
Q 212.18875 226.193375 212.18875 228.193375 
L 212.18875 300.584 
Q 212.18875 302.584 214.18875 302.584 
z
" style="fill: #ffffff; opacity: 0.8; stroke: #cccccc; stroke-linejoin: miter"/>
    </g>
    <g id="line2d_21">
     <path d="M 216.18875 234.291812 
L 226.18875 234.291812 
L 236.18875 234.291812 
" style="fill: none; stroke: #1f77b4; stroke-width: 1.5; stroke-linecap: square"/>
    </g>
    <g id="text_19">
     <!-- Train Accuracy -->
     <g transform="translate(244.18875 237.791812) scale(0.1 -0.1)">
      <defs>
       <path id="DejaVuSans-54" d="M -19 4666 
L 3928 4666 
L 3928 4134 
L 2272 4134 
L 2272 0 
L 1638 0 
L 1638 4134 
L -19 4134 
L -19 4666 
z
" transform="scale(0.015625)"/>
      </defs>
      <use xlink:href="#DejaVuSans-54"/>
      <use xlink:href="#DejaVuSans-72" x="46.333984"/>
      <use xlink:href="#DejaVuSans-61" x="87.447266"/>
      <use xlink:href="#DejaVuSans-69" x="148.726562"/>
      <use xlink:href="#DejaVuSans-6e" x="176.509766"/>
      <use xlink:href="#DejaVuSans-20" x="239.888672"/>
      <use xlink:href="#DejaVuSans-41" x="271.675781"/>
      <use xlink:href="#DejaVuSans-63" x="338.333984"/>
      <use xlink:href="#DejaVuSans-63" x="393.314453"/>
      <use xlink:href="#DejaVuSans-75" x="448.294922"/>
      <use xlink:href="#DejaVuSans-72" x="511.673828"/>
      <use xlink:href="#DejaVuSans-61" x="552.787109"/>
      <use xlink:href="#DejaVuSans-63" x="614.066406"/>
      <use xlink:href="#DejaVuSans-79" x="669.046875"/>
     </g>
    </g>
    <g id="line2d_22">
     <path d="M 216.18875 248.969937 
L 226.18875 248.969937 
L 236.18875 248.969937 
" style="fill: none; stroke: #ff7f0e; stroke-width: 1.5; stroke-linecap: square"/>
    </g>
    <g id="text_20">
     <!-- Validation Accuracy -->
     <g transform="translate(244.18875 252.469937) scale(0.1 -0.1)">
      <defs>
       <path id="DejaVuSans-56" d="M 1831 0 
L 50 4666 
L 709 4666 
L 2188 738 
L 3669 4666 
L 4325 4666 
L 2547 0 
L 1831 0 
z
" transform="scale(0.015625)"/>
       <path id="DejaVuSans-6c" d="M 603 4863 
L 1178 4863 
L 1178 0 
L 603 0 
L 603 4863 
z
" transform="scale(0.015625)"/>
       <path id="DejaVuSans-64" d="M 2906 2969 
L 2906 4863 
L 3481 4863 
L 3481 0 
L 2906 0 
L 2906 525 
Q 2725 213 2448 61 
Q 2172 -91 1784 -91 
Q 1150 -91 751 415 
Q 353 922 353 1747 
Q 353 2572 751 3078 
Q 1150 3584 1784 3584 
Q 2172 3584 2448 3432 
Q 2725 3281 2906 2969 
z
M 947 1747 
Q 947 1113 1208 752 
Q 1469 391 1925 391 
Q 2381 391 2643 752 
Q 2906 1113 2906 1747 
Q 2906 2381 2643 2742 
Q 2381 3103 1925 3103 
Q 1469 3103 1208 2742 
Q 947 2381 947 1747 
z
" transform="scale(0.015625)"/>
       <path id="DejaVuSans-74" d="M 1172 4494 
L 1172 3500 
L 2356 3500 
L 2356 3053 
L 1172 3053 
L 1172 1153 
Q 1172 725 1289 603 
Q 1406 481 1766 481 
L 2356 481 
L 2356 0 
L 1766 0 
Q 1100 0 847 248 
Q 594 497 594 1153 
L 594 3053 
L 172 3053 
L 172 3500 
L 594 3500 
L 594 4494 
L 1172 4494 
z
" transform="scale(0.015625)"/>
      </defs>
      <use xlink:href="#DejaVuSans-56"/>
      <use xlink:href="#DejaVuSans-61" x="60.658203"/>
      <use xlink:href="#DejaVuSans-6c" x="121.9375"/>
      <use xlink:href="#DejaVuSans-69" x="149.720703"/>
      <use xlink:href="#DejaVuSans-64" x="177.503906"/>
      <use xlink:href="#DejaVuSans-61" x="240.980469"/>
      <use xlink:href="#DejaVuSans-74" x="302.259766"/>
      <use xlink:href="#DejaVuSans-69" x="341.46875"/>
      <use xlink:href="#DejaVuSans-6f" x="369.251953"/>
      <use xlink:href="#DejaVuSans-6e" x="430.433594"/>
      <use xlink:href="#DejaVuSans-20" x="493.8125"/>
      <use xlink:href="#DejaVuSans-41" x="525.599609"/>
      <use xlink:href="#DejaVuSans-63" x="592.257812"/>
      <use xlink:href="#DejaVuSans-63" x="647.238281"/>
      <use xlink:href="#DejaVuSans-75" x="702.21875"/>
      <use xlink:href="#DejaVuSans-72" x="765.597656"/>
      <use xlink:href="#DejaVuSans-61" x="806.710938"/>
      <use xlink:href="#DejaVuSans-63" x="867.990234"/>
      <use xlink:href="#DejaVuSans-79" x="922.970703"/>
     </g>
    </g>
    <g id="line2d_23">
     <path d="M 216.18875 263.648062 
L 226.18875 263.648062 
L 236.18875 263.648062 
" style="fill: none; stroke: #2ca02c; stroke-width: 1.5; stroke-linecap: square"/>
    </g>
    <g id="text_21">
     <!-- Robust Validation Accuracy -->
     <g transform="translate(244.18875 267.148062) scale(0.1 -0.1)">
      <defs>
       <path id="DejaVuSans-52" d="M 2841 2188 
Q 3044 2119 3236 1894 
Q 3428 1669 3622 1275 
L 4263 0 
L 3584 0 
L 2988 1197 
Q 2756 1666 2539 1819 
Q 2322 1972 1947 1972 
L 1259 1972 
L 1259 0 
L 628 0 
L 628 4666 
L 2053 4666 
Q 2853 4666 3247 4331 
Q 3641 3997 3641 3322 
Q 3641 2881 3436 2590 
Q 3231 2300 2841 2188 
z
M 1259 4147 
L 1259 2491 
L 2053 2491 
Q 2509 2491 2742 2702 
Q 2975 2913 2975 3322 
Q 2975 3731 2742 3939 
Q 2509 4147 2053 4147 
L 1259 4147 
z
" transform="scale(0.015625)"/>
       <path id="DejaVuSans-62" d="M 3116 1747 
Q 3116 2381 2855 2742 
Q 2594 3103 2138 3103 
Q 1681 3103 1420 2742 
Q 1159 2381 1159 1747 
Q 1159 1113 1420 752 
Q 1681 391 2138 391 
Q 2594 391 2855 752 
Q 3116 1113 3116 1747 
z
M 1159 2969 
Q 1341 3281 1617 3432 
Q 1894 3584 2278 3584 
Q 2916 3584 3314 3078 
Q 3713 2572 3713 1747 
Q 3713 922 3314 415 
Q 2916 -91 2278 -91 
Q 1894 -91 1617 61 
Q 1341 213 1159 525 
L 1159 0 
L 581 0 
L 581 4863 
L 1159 4863 
L 1159 2969 
z
" transform="scale(0.015625)"/>
      </defs>
      <use xlink:href="#DejaVuSans-52"/>
      <use xlink:href="#DejaVuSans-6f" x="64.982422"/>
      <use xlink:href="#DejaVuSans-62" x="126.164062"/>
      <use xlink:href="#DejaVuSans-75" x="189.640625"/>
      <use xlink:href="#DejaVuSans-73" x="253.019531"/>
      <use xlink:href="#DejaVuSans-74" x="305.119141"/>
      <use xlink:href="#DejaVuSans-20" x="344.328125"/>
      <use xlink:href="#DejaVuSans-56" x="376.115234"/>
      <use xlink:href="#DejaVuSans-61" x="436.773438"/>
      <use xlink:href="#DejaVuSans-6c" x="498.052734"/>
      <use xlink:href="#DejaVuSans-69" x="525.835938"/>
      <use xlink:href="#DejaVuSans-64" x="553.619141"/>
      <use xlink:href="#DejaVuSans-61" x="617.095703"/>
      <use xlink:href="#DejaVuSans-74" x="678.375"/>
      <use xlink:href="#DejaVuSans-69" x="717.583984"/>
      <use xlink:href="#DejaVuSans-6f" x="745.367188"/>
      <use xlink:href="#DejaVuSans-6e" x="806.548828"/>
      <use xlink:href="#DejaVuSans-20" x="869.927734"/>
      <use xlink:href="#DejaVuSans-41" x="901.714844"/>
      <use xlink:href="#DejaVuSans-63" x="968.373047"/>
      <use xlink:href="#DejaVuSans-63" x="1023.353516"/>
      <use xlink:href="#DejaVuSans-75" x="1078.333984"/>
      <use xlink:href="#DejaVuSans-72" x="1141.712891"/>
      <use xlink:href="#DejaVuSans-61" x="1182.826172"/>
      <use xlink:href="#DejaVuSans-63" x="1244.105469"/>
      <use xlink:href="#DejaVuSans-79" x="1299.085938"/>
     </g>
    </g>
    <g id="line2d_24">
     <path d="M 216.18875 278.326188 
L 226.18875 278.326188 
L 236.18875 278.326188 
" style="fill: none; stroke: #d62728; stroke-width: 1.5; stroke-linecap: square"/>
    </g>
    <g id="text_22">
     <!-- SWA Validation Accuracy -->
     <g transform="translate(244.18875 281.826188) scale(0.1 -0.1)">
      <defs>
       <path id="DejaVuSans-53" d="M 3425 4513 
L 3425 3897 
Q 3066 4069 2747 4153 
Q 2428 4238 2131 4238 
Q 1616 4238 1336 4038 
Q 1056 3838 1056 3469 
Q 1056 3159 1242 3001 
Q 1428 2844 1947 2747 
L 2328 2669 
Q 3034 2534 3370 2195 
Q 3706 1856 3706 1288 
Q 3706 609 3251 259 
Q 2797 -91 1919 -91 
Q 1588 -91 1214 -16 
Q 841 59 441 206 
L 441 856 
Q 825 641 1194 531 
Q 1563 422 1919 422 
Q 2459 422 2753 634 
Q 3047 847 3047 1241 
Q 3047 1584 2836 1778 
Q 2625 1972 2144 2069 
L 1759 2144 
Q 1053 2284 737 2584 
Q 422 2884 422 3419 
Q 422 4038 858 4394 
Q 1294 4750 2059 4750 
Q 2388 4750 2728 4690 
Q 3069 4631 3425 4513 
z
" transform="scale(0.015625)"/>
       <path id="DejaVuSans-57" d="M 213 4666 
L 850 4666 
L 1831 722 
L 2809 4666 
L 3519 4666 
L 4500 722 
L 5478 4666 
L 6119 4666 
L 4947 0 
L 4153 0 
L 3169 4050 
L 2175 0 
L 1381 0 
L 213 4666 
z
" transform="scale(0.015625)"/>
      </defs>
      <use xlink:href="#DejaVuSans-53"/>
      <use xlink:href="#DejaVuSans-57" x="63.476562"/>
      <use xlink:href="#DejaVuSans-41" x="156.853516"/>
      <use xlink:href="#DejaVuSans-20" x="225.261719"/>
      <use xlink:href="#DejaVuSans-56" x="257.048828"/>
      <use xlink:href="#DejaVuSans-61" x="317.707031"/>
      <use xlink:href="#DejaVuSans-6c" x="378.986328"/>
      <use xlink:href="#DejaVuSans-69" x="406.769531"/>
      <use xlink:href="#DejaVuSans-64" x="434.552734"/>
      <use xlink:href="#DejaVuSans-61" x="498.029297"/>
      <use xlink:href="#DejaVuSans-74" x="559.308594"/>
      <use xlink:href="#DejaVuSans-69" x="598.517578"/>
      <use xlink:href="#DejaVuSans-6f" x="626.300781"/>
      <use xlink:href="#DejaVuSans-6e" x="687.482422"/>
      <use xlink:href="#DejaVuSans-20" x="750.861328"/>
      <use xlink:href="#DejaVuSans-41" x="782.648438"/>
      <use xlink:href="#DejaVuSans-63" x="849.306641"/>
      <use xlink:href="#DejaVuSans-63" x="904.287109"/>
      <use xlink:href="#DejaVuSans-75" x="959.267578"/>
      <use xlink:href="#DejaVuSans-72" x="1022.646484"/>
      <use xlink:href="#DejaVuSans-61" x="1063.759766"/>
      <use xlink:href="#DejaVuSans-63" x="1125.039062"/>
      <use xlink:href="#DejaVuSans-79" x="1180.019531"/>
     </g>
    </g>
    <g id="line2d_25">
     <path d="M 216.18875 293.004312 
L 226.18875 293.004312 
L 236.18875 293.004312 
" style="fill: none; stroke: #9467bd; stroke-width: 1.5; stroke-linecap: square"/>
    </g>
    <g id="text_23">
     <!-- SWA Robust Validation Accuracy -->
     <g transform="translate(244.18875 296.504312) scale(0.1 -0.1)">
      <use xlink:href="#DejaVuSans-53"/>
      <use xlink:href="#DejaVuSans-57" x="63.476562"/>
      <use xlink:href="#DejaVuSans-41" x="156.853516"/>
      <use xlink:href="#DejaVuSans-20" x="225.261719"/>
      <use xlink:href="#DejaVuSans-52" x="257.048828"/>
      <use xlink:href="#DejaVuSans-6f" x="322.03125"/>
      <use xlink:href="#DejaVuSans-62" x="383.212891"/>
      <use xlink:href="#DejaVuSans-75" x="446.689453"/>
      <use xlink:href="#DejaVuSans-73" x="510.068359"/>
      <use xlink:href="#DejaVuSans-74" x="562.167969"/>
      <use xlink:href="#DejaVuSans-20" x="601.376953"/>
      <use xlink:href="#DejaVuSans-56" x="633.164062"/>
      <use xlink:href="#DejaVuSans-61" x="693.822266"/>
      <use xlink:href="#DejaVuSans-6c" x="755.101562"/>
      <use xlink:href="#DejaVuSans-69" x="782.884766"/>
      <use xlink:href="#DejaVuSans-64" x="810.667969"/>
      <use xlink:href="#DejaVuSans-61" x="874.144531"/>
      <use xlink:href="#DejaVuSans-74" x="935.423828"/>
      <use xlink:href="#DejaVuSans-69" x="974.632812"/>
      <use xlink:href="#DejaVuSans-6f" x="1002.416016"/>
      <use xlink:href="#DejaVuSans-6e" x="1063.597656"/>
      <use xlink:href="#DejaVuSans-20" x="1126.976562"/>
      <use xlink:href="#DejaVuSans-41" x="1158.763672"/>
      <use xlink:href="#DejaVuSans-63" x="1225.421875"/>
      <use xlink:href="#DejaVuSans-63" x="1280.402344"/>
      <use xlink:href="#DejaVuSans-75" x="1335.382812"/>
      <use xlink:href="#DejaVuSans-72" x="1398.761719"/>
      <use xlink:href="#DejaVuSans-61" x="1439.875"/>
      <use xlink:href="#DejaVuSans-63" x="1501.154297"/>
      <use xlink:href="#DejaVuSans-79" x="1556.134766"/>
     </g>
    </g>
   </g>
  </g>
 </g>
 <defs>
  <clipPath id="p4c321806f9">
   <rect x="57.6" y="41.472" width="357.12" height="266.112"/>
  </clipPath>
 </defs>
</svg>
