<?xml version="1.0" encoding="utf-8" standalone="no"?>
<!DOCTYPE svg PUBLIC "-//W3C//DTD SVG 1.1//EN"
  "http://www.w3.org/Graphics/SVG/1.1/DTD/svg11.dtd">
<svg xmlns:xlink="http://www.w3.org/1999/xlink" width="460.8pt" height="345.6pt" viewBox="0 0 460.8 345.6" xmlns="http://www.w3.org/2000/svg" version="1.1">
 <metadata>
  <rdf:RDF xmlns:dc="http://purl.org/dc/elements/1.1/" xmlns:cc="http://creativecommons.org/ns#" xmlns:rdf="http://www.w3.org/1999/02/22-rdf-syntax-ns#">
   <cc:Work>
    <dc:type rdf:resource="http://purl.org/dc/dcmitype/StillImage"/>
    <dc:date>2025-07-31T20:16:42.128556</dc:date>
    <dc:format>image/svg+xml</dc:format>
    <dc:creator>
     <cc:Agent>
      <dc:title>Matplotlib v3.9.1, https://matplotlib.org/</dc:title>
     </cc:Agent>
    </dc:creator>
   </cc:Work>
  </rdf:RDF>
 </metadata>
 <defs>
  <style type="text/css">*{stroke-linejoin: round; stroke-linecap: butt}</style>
 </defs>
 <g id="figure_1">
  <g id="patch_1">
   <path d="M 0 345.6 
L 460.8 345.6 
L 460.8 0 
L 0 0 
z
" style="fill: #ffffff"/>
  </g>
  <g id="axes_1">
   <g id="patch_2">
    <path d="M 57.6 307.584 
L 414.72 307.584 
L 414.72 41.472 
L 57.6 41.472 
z
" style="fill: #ffffff"/>
   </g>
   <g id="matplotlib.axis_1">
    <g id="xtick_1">
     <g id="line2d_1">
      <defs>
       <path id="m8858bc7d84" d="M 0 0 
L 0 3.5 
" style="stroke: #000000; stroke-width: 0.8"/>
      </defs>
      <g>
       <use xlink:href="#m8858bc7d84" x="73.832727" y="307.584" style="stroke: #000000; stroke-width: 0.8"/>
      </g>
     </g>
     <g id="text_1">
      <!-- 1 -->
      <g transform="translate(70.651477 322.182437) scale(0.1 -0.1)">
       <defs>
        <path id="DejaVuSans-31" d="M 794 531 
L 1825 531 
L 1825 4091 
L 703 3866 
L 703 4441 
L 1819 4666 
L 2450 4666 
L 2450 531 
L 3481 531 
L 3481 0 
L 794 0 
L 794 531 
z
" transform="scale(0.015625)"/>
       </defs>
       <use xlink:href="#DejaVuSans-31"/>
      </g>
     </g>
    </g>
    <g id="xtick_2">
     <g id="line2d_2">
      <g>
       <use xlink:href="#m8858bc7d84" x="109.664165" y="307.584" style="stroke: #000000; stroke-width: 0.8"/>
      </g>
     </g>
     <g id="text_2">
      <!-- 34 -->
      <g transform="translate(103.301665 322.182437) scale(0.1 -0.1)">
       <defs>
        <path id="DejaVuSans-33" d="M 2597 2516 
Q 3050 2419 3304 2112 
Q 3559 1806 3559 1356 
Q 3559 666 3084 287 
Q 2609 -91 1734 -91 
Q 1441 -91 1130 -33 
Q 819 25 488 141 
L 488 750 
Q 750 597 1062 519 
Q 1375 441 1716 441 
Q 2309 441 2620 675 
Q 2931 909 2931 1356 
Q 2931 1769 2642 2001 
Q 2353 2234 1838 2234 
L 1294 2234 
L 1294 2753 
L 1863 2753 
Q 2328 2753 2575 2939 
Q 2822 3125 2822 3475 
Q 2822 3834 2567 4026 
Q 2313 4219 1838 4219 
Q 1578 4219 1281 4162 
Q 984 4106 628 3988 
L 628 4550 
Q 988 4650 1302 4700 
Q 1616 4750 1894 4750 
Q 2613 4750 3031 4423 
Q 3450 4097 3450 3541 
Q 3450 3153 3228 2886 
Q 3006 2619 2597 2516 
z
" transform="scale(0.015625)"/>
        <path id="DejaVuSans-34" d="M 2419 4116 
L 825 1625 
L 2419 1625 
L 2419 4116 
z
M 2253 4666 
L 3047 4666 
L 3047 1625 
L 3713 1625 
L 3713 1100 
L 3047 1100 
L 3047 0 
L 2419 0 
L 2419 1100 
L 313 1100 
L 313 1709 
L 2253 4666 
z
" transform="scale(0.015625)"/>
       </defs>
       <use xlink:href="#DejaVuSans-33"/>
       <use xlink:href="#DejaVuSans-34" x="63.623047"/>
      </g>
     </g>
    </g>
    <g id="xtick_3">
     <g id="line2d_3">
      <g>
       <use xlink:href="#m8858bc7d84" x="145.495604" y="307.584" style="stroke: #000000; stroke-width: 0.8"/>
      </g>
     </g>
     <g id="text_3">
      <!-- 67 -->
      <g transform="translate(139.133104 322.182437) scale(0.1 -0.1)">
       <defs>
        <path id="DejaVuSans-36" d="M 2113 2584 
Q 1688 2584 1439 2293 
Q 1191 2003 1191 1497 
Q 1191 994 1439 701 
Q 1688 409 2113 409 
Q 2538 409 2786 701 
Q 3034 994 3034 1497 
Q 3034 2003 2786 2293 
Q 2538 2584 2113 2584 
z
M 3366 4563 
L 3366 3988 
Q 3128 4100 2886 4159 
Q 2644 4219 2406 4219 
Q 1781 4219 1451 3797 
Q 1122 3375 1075 2522 
Q 1259 2794 1537 2939 
Q 1816 3084 2150 3084 
Q 2853 3084 3261 2657 
Q 3669 2231 3669 1497 
Q 3669 778 3244 343 
Q 2819 -91 2113 -91 
Q 1303 -91 875 529 
Q 447 1150 447 2328 
Q 447 3434 972 4092 
Q 1497 4750 2381 4750 
Q 2619 4750 2861 4703 
Q 3103 4656 3366 4563 
z
" transform="scale(0.015625)"/>
        <path id="DejaVuSans-37" d="M 525 4666 
L 3525 4666 
L 3525 4397 
L 1831 0 
L 1172 0 
L 2766 4134 
L 525 4134 
L 525 4666 
z
" transform="scale(0.015625)"/>
       </defs>
       <use xlink:href="#DejaVuSans-36"/>
       <use xlink:href="#DejaVuSans-37" x="63.623047"/>
      </g>
     </g>
    </g>
    <g id="xtick_4">
     <g id="line2d_4">
      <g>
       <use xlink:href="#m8858bc7d84" x="181.327042" y="307.584" style="stroke: #000000; stroke-width: 0.8"/>
      </g>
     </g>
     <g id="text_4">
      <!-- 100 -->
      <g transform="translate(171.783292 322.182437) scale(0.1 -0.1)">
       <defs>
        <path id="DejaVuSans-30" d="M 2034 4250 
Q 1547 4250 1301 3770 
Q 1056 3291 1056 2328 
Q 1056 1369 1301 889 
Q 1547 409 2034 409 
Q 2525 409 2770 889 
Q 3016 1369 3016 2328 
Q 3016 3291 2770 3770 
Q 2525 4250 2034 4250 
z
M 2034 4750 
Q 2819 4750 3233 4129 
Q 3647 3509 3647 2328 
Q 3647 1150 3233 529 
Q 2819 -91 2034 -91 
Q 1250 -91 836 529 
Q 422 1150 422 2328 
Q 422 3509 836 4129 
Q 1250 4750 2034 4750 
z
" transform="scale(0.015625)"/>
       </defs>
       <use xlink:href="#DejaVuSans-31"/>
       <use xlink:href="#DejaVuSans-30" x="63.623047"/>
       <use xlink:href="#DejaVuSans-30" x="127.246094"/>
      </g>
     </g>
    </g>
    <g id="xtick_5">
     <g id="line2d_5">
      <g>
       <use xlink:href="#m8858bc7d84" x="217.15848" y="307.584" style="stroke: #000000; stroke-width: 0.8"/>
      </g>
     </g>
     <g id="text_5">
      <!-- 133 -->
      <g transform="translate(207.61473 322.182437) scale(0.1 -0.1)">
       <use xlink:href="#DejaVuSans-31"/>
       <use xlink:href="#DejaVuSans-33" x="63.623047"/>
       <use xlink:href="#DejaVuSans-33" x="127.246094"/>
      </g>
     </g>
    </g>
    <g id="xtick_6">
     <g id="line2d_6">
      <g>
       <use xlink:href="#m8858bc7d84" x="254.075719" y="307.584" style="stroke: #000000; stroke-width: 0.8"/>
      </g>
     </g>
     <g id="text_6">
      <!-- 167 -->
      <g transform="translate(244.531969 322.182437) scale(0.1 -0.1)">
       <use xlink:href="#DejaVuSans-31"/>
       <use xlink:href="#DejaVuSans-36" x="63.623047"/>
       <use xlink:href="#DejaVuSans-37" x="127.246094"/>
      </g>
     </g>
    </g>
    <g id="xtick_7">
     <g id="line2d_7">
      <g>
       <use xlink:href="#m8858bc7d84" x="289.907157" y="307.584" style="stroke: #000000; stroke-width: 0.8"/>
      </g>
     </g>
     <g id="text_7">
      <!-- 200 -->
      <g transform="translate(280.363407 322.182437) scale(0.1 -0.1)">
       <defs>
        <path id="DejaVuSans-32" d="M 1228 531 
L 3431 531 
L 3431 0 
L 469 0 
L 469 531 
Q 828 903 1448 1529 
Q 2069 2156 2228 2338 
Q 2531 2678 2651 2914 
Q 2772 3150 2772 3378 
Q 2772 3750 2511 3984 
Q 2250 4219 1831 4219 
Q 1534 4219 1204 4116 
Q 875 4013 500 3803 
L 500 4441 
Q 881 4594 1212 4672 
Q 1544 4750 1819 4750 
Q 2544 4750 2975 4387 
Q 3406 4025 3406 3419 
Q 3406 3131 3298 2873 
Q 3191 2616 2906 2266 
Q 2828 2175 2409 1742 
Q 1991 1309 1228 531 
z
" transform="scale(0.015625)"/>
       </defs>
       <use xlink:href="#DejaVuSans-32"/>
       <use xlink:href="#DejaVuSans-30" x="63.623047"/>
       <use xlink:href="#DejaVuSans-30" x="127.246094"/>
      </g>
     </g>
    </g>
    <g id="xtick_8">
     <g id="line2d_8">
      <g>
       <use xlink:href="#m8858bc7d84" x="325.738595" y="307.584" style="stroke: #000000; stroke-width: 0.8"/>
      </g>
     </g>
     <g id="text_8">
      <!-- 233 -->
      <g transform="translate(316.194845 322.182437) scale(0.1 -0.1)">
       <use xlink:href="#DejaVuSans-32"/>
       <use xlink:href="#DejaVuSans-33" x="63.623047"/>
       <use xlink:href="#DejaVuSans-33" x="127.246094"/>
      </g>
     </g>
    </g>
    <g id="xtick_9">
     <g id="line2d_9">
      <g>
       <use xlink:href="#m8858bc7d84" x="361.570033" y="307.584" style="stroke: #000000; stroke-width: 0.8"/>
      </g>
     </g>
     <g id="text_9">
      <!-- 266 -->
      <g transform="translate(352.026283 322.182437) scale(0.1 -0.1)">
       <use xlink:href="#DejaVuSans-32"/>
       <use xlink:href="#DejaVuSans-36" x="63.623047"/>
       <use xlink:href="#DejaVuSans-36" x="127.246094"/>
      </g>
     </g>
    </g>
    <g id="xtick_10">
     <g id="line2d_10">
      <g>
       <use xlink:href="#m8858bc7d84" x="398.487273" y="307.584" style="stroke: #000000; stroke-width: 0.8"/>
      </g>
     </g>
     <g id="text_10">
      <!-- 300 -->
      <g transform="translate(388.943523 322.182437) scale(0.1 -0.1)">
       <use xlink:href="#DejaVuSans-33"/>
       <use xlink:href="#DejaVuSans-30" x="63.623047"/>
       <use xlink:href="#DejaVuSans-30" x="127.246094"/>
      </g>
     </g>
    </g>
    <g id="text_11">
     <!-- Epochs -->
     <g transform="translate(218.244375 335.860562) scale(0.1 -0.1)">
      <defs>
       <path id="DejaVuSans-45" d="M 628 4666 
L 3578 4666 
L 3578 4134 
L 1259 4134 
L 1259 2753 
L 3481 2753 
L 3481 2222 
L 1259 2222 
L 1259 531 
L 3634 531 
L 3634 0 
L 628 0 
L 628 4666 
z
" transform="scale(0.015625)"/>
       <path id="DejaVuSans-70" d="M 1159 525 
L 1159 -1331 
L 581 -1331 
L 581 3500 
L 1159 3500 
L 1159 2969 
Q 1341 3281 1617 3432 
Q 1894 3584 2278 3584 
Q 2916 3584 3314 3078 
Q 3713 2572 3713 1747 
Q 3713 922 3314 415 
Q 2916 -91 2278 -91 
Q 1894 -91 1617 61 
Q 1341 213 1159 525 
z
M 3116 1747 
Q 3116 2381 2855 2742 
Q 2594 3103 2138 3103 
Q 1681 3103 1420 2742 
Q 1159 2381 1159 1747 
Q 1159 1113 1420 752 
Q 1681 391 2138 391 
Q 2594 391 2855 752 
Q 3116 1113 3116 1747 
z
" transform="scale(0.015625)"/>
       <path id="DejaVuSans-6f" d="M 1959 3097 
Q 1497 3097 1228 2736 
Q 959 2375 959 1747 
Q 959 1119 1226 758 
Q 1494 397 1959 397 
Q 2419 397 2687 759 
Q 2956 1122 2956 1747 
Q 2956 2369 2687 2733 
Q 2419 3097 1959 3097 
z
M 1959 3584 
Q 2709 3584 3137 3096 
Q 3566 2609 3566 1747 
Q 3566 888 3137 398 
Q 2709 -91 1959 -91 
Q 1206 -91 779 398 
Q 353 888 353 1747 
Q 353 2609 779 3096 
Q 1206 3584 1959 3584 
z
" transform="scale(0.015625)"/>
       <path id="DejaVuSans-63" d="M 3122 3366 
L 3122 2828 
Q 2878 2963 2633 3030 
Q 2388 3097 2138 3097 
Q 1578 3097 1268 2742 
Q 959 2388 959 1747 
Q 959 1106 1268 751 
Q 1578 397 2138 397 
Q 2388 397 2633 464 
Q 2878 531 3122 666 
L 3122 134 
Q 2881 22 2623 -34 
Q 2366 -91 2075 -91 
Q 1284 -91 818 406 
Q 353 903 353 1747 
Q 353 2603 823 3093 
Q 1294 3584 2113 3584 
Q 2378 3584 2631 3529 
Q 2884 3475 3122 3366 
z
" transform="scale(0.015625)"/>
       <path id="DejaVuSans-68" d="M 3513 2113 
L 3513 0 
L 2938 0 
L 2938 2094 
Q 2938 2591 2744 2837 
Q 2550 3084 2163 3084 
Q 1697 3084 1428 2787 
Q 1159 2491 1159 1978 
L 1159 0 
L 581 0 
L 581 4863 
L 1159 4863 
L 1159 2956 
Q 1366 3272 1645 3428 
Q 1925 3584 2291 3584 
Q 2894 3584 3203 3211 
Q 3513 2838 3513 2113 
z
" transform="scale(0.015625)"/>
       <path id="DejaVuSans-73" d="M 2834 3397 
L 2834 2853 
Q 2591 2978 2328 3040 
Q 2066 3103 1784 3103 
Q 1356 3103 1142 2972 
Q 928 2841 928 2578 
Q 928 2378 1081 2264 
Q 1234 2150 1697 2047 
L 1894 2003 
Q 2506 1872 2764 1633 
Q 3022 1394 3022 966 
Q 3022 478 2636 193 
Q 2250 -91 1575 -91 
Q 1294 -91 989 -36 
Q 684 19 347 128 
L 347 722 
Q 666 556 975 473 
Q 1284 391 1588 391 
Q 1994 391 2212 530 
Q 2431 669 2431 922 
Q 2431 1156 2273 1281 
Q 2116 1406 1581 1522 
L 1381 1569 
Q 847 1681 609 1914 
Q 372 2147 372 2553 
Q 372 3047 722 3315 
Q 1072 3584 1716 3584 
Q 2034 3584 2315 3537 
Q 2597 3491 2834 3397 
z
" transform="scale(0.015625)"/>
      </defs>
      <use xlink:href="#DejaVuSans-45"/>
      <use xlink:href="#DejaVuSans-70" x="63.183594"/>
      <use xlink:href="#DejaVuSans-6f" x="126.660156"/>
      <use xlink:href="#DejaVuSans-63" x="187.841797"/>
      <use xlink:href="#DejaVuSans-68" x="242.822266"/>
      <use xlink:href="#DejaVuSans-73" x="306.201172"/>
     </g>
    </g>
   </g>
   <g id="matplotlib.axis_2">
    <g id="ytick_1">
     <g id="line2d_11">
      <defs>
       <path id="mb9f01d6777" d="M 0 0 
L -3.5 0 
" style="stroke: #000000; stroke-width: 0.8"/>
      </defs>
      <g>
       <use xlink:href="#mb9f01d6777" x="57.6" y="287.565915" style="stroke: #000000; stroke-width: 0.8"/>
      </g>
     </g>
     <g id="text_12">
      <!-- 10 -->
      <g transform="translate(37.875 291.365134) scale(0.1 -0.1)">
       <use xlink:href="#DejaVuSans-31"/>
       <use xlink:href="#DejaVuSans-30" x="63.623047"/>
      </g>
     </g>
    </g>
    <g id="ytick_2">
     <g id="line2d_12">
      <g>
       <use xlink:href="#mb9f01d6777" x="57.6" y="256.770638" style="stroke: #000000; stroke-width: 0.8"/>
      </g>
     </g>
     <g id="text_13">
      <!-- 20 -->
      <g transform="translate(37.875 260.569856) scale(0.1 -0.1)">
       <use xlink:href="#DejaVuSans-32"/>
       <use xlink:href="#DejaVuSans-30" x="63.623047"/>
      </g>
     </g>
    </g>
    <g id="ytick_3">
     <g id="line2d_13">
      <g>
       <use xlink:href="#mb9f01d6777" x="57.6" y="225.97536" style="stroke: #000000; stroke-width: 0.8"/>
      </g>
     </g>
     <g id="text_14">
      <!-- 30 -->
      <g transform="translate(37.875 229.774579) scale(0.1 -0.1)">
       <use xlink:href="#DejaVuSans-33"/>
       <use xlink:href="#DejaVuSans-30" x="63.623047"/>
      </g>
     </g>
    </g>
    <g id="ytick_4">
     <g id="line2d_14">
      <g>
       <use xlink:href="#mb9f01d6777" x="57.6" y="195.180083" style="stroke: #000000; stroke-width: 0.8"/>
      </g>
     </g>
     <g id="text_15">
      <!-- 40 -->
      <g transform="translate(37.875 198.979302) scale(0.1 -0.1)">
       <use xlink:href="#DejaVuSans-34"/>
       <use xlink:href="#DejaVuSans-30" x="63.623047"/>
      </g>
     </g>
    </g>
    <g id="ytick_5">
     <g id="line2d_15">
      <g>
       <use xlink:href="#mb9f01d6777" x="57.6" y="164.384806" style="stroke: #000000; stroke-width: 0.8"/>
      </g>
     </g>
     <g id="text_16">
      <!-- 50 -->
      <g transform="translate(37.875 168.184024) scale(0.1 -0.1)">
       <defs>
        <path id="DejaVuSans-35" d="M 691 4666 
L 3169 4666 
L 3169 4134 
L 1269 4134 
L 1269 2991 
Q 1406 3038 1543 3061 
Q 1681 3084 1819 3084 
Q 2600 3084 3056 2656 
Q 3513 2228 3513 1497 
Q 3513 744 3044 326 
Q 2575 -91 1722 -91 
Q 1428 -91 1123 -41 
Q 819 9 494 109 
L 494 744 
Q 775 591 1075 516 
Q 1375 441 1709 441 
Q 2250 441 2565 725 
Q 2881 1009 2881 1497 
Q 2881 1984 2565 2268 
Q 2250 2553 1709 2553 
Q 1456 2553 1204 2497 
Q 953 2441 691 2322 
L 691 4666 
z
" transform="scale(0.015625)"/>
       </defs>
       <use xlink:href="#DejaVuSans-35"/>
       <use xlink:href="#DejaVuSans-30" x="63.623047"/>
      </g>
     </g>
    </g>
    <g id="ytick_6">
     <g id="line2d_16">
      <g>
       <use xlink:href="#mb9f01d6777" x="57.6" y="133.589528" style="stroke: #000000; stroke-width: 0.8"/>
      </g>
     </g>
     <g id="text_17">
      <!-- 60 -->
      <g transform="translate(37.875 137.388747) scale(0.1 -0.1)">
       <use xlink:href="#DejaVuSans-36"/>
       <use xlink:href="#DejaVuSans-30" x="63.623047"/>
      </g>
     </g>
    </g>
    <g id="ytick_7">
     <g id="line2d_17">
      <g>
       <use xlink:href="#mb9f01d6777" x="57.6" y="102.794251" style="stroke: #000000; stroke-width: 0.8"/>
      </g>
     </g>
     <g id="text_18">
      <!-- 70 -->
      <g transform="translate(37.875 106.59347) scale(0.1 -0.1)">
       <use xlink:href="#DejaVuSans-37"/>
       <use xlink:href="#DejaVuSans-30" x="63.623047"/>
      </g>
     </g>
    </g>
    <g id="ytick_8">
     <g id="line2d_18">
      <g>
       <use xlink:href="#mb9f01d6777" x="57.6" y="71.998973" style="stroke: #000000; stroke-width: 0.8"/>
      </g>
     </g>
     <g id="text_19">
      <!-- 80 -->
      <g transform="translate(37.875 75.798192) scale(0.1 -0.1)">
       <defs>
        <path id="DejaVuSans-38" d="M 2034 2216 
Q 1584 2216 1326 1975 
Q 1069 1734 1069 1313 
Q 1069 891 1326 650 
Q 1584 409 2034 409 
Q 2484 409 2743 651 
Q 3003 894 3003 1313 
Q 3003 1734 2745 1975 
Q 2488 2216 2034 2216 
z
M 1403 2484 
Q 997 2584 770 2862 
Q 544 3141 544 3541 
Q 544 4100 942 4425 
Q 1341 4750 2034 4750 
Q 2731 4750 3128 4425 
Q 3525 4100 3525 3541 
Q 3525 3141 3298 2862 
Q 3072 2584 2669 2484 
Q 3125 2378 3379 2068 
Q 3634 1759 3634 1313 
Q 3634 634 3220 271 
Q 2806 -91 2034 -91 
Q 1263 -91 848 271 
Q 434 634 434 1313 
Q 434 1759 690 2068 
Q 947 2378 1403 2484 
z
M 1172 3481 
Q 1172 3119 1398 2916 
Q 1625 2713 2034 2713 
Q 2441 2713 2670 2916 
Q 2900 3119 2900 3481 
Q 2900 3844 2670 4047 
Q 2441 4250 2034 4250 
Q 1625 4250 1398 4047 
Q 1172 3844 1172 3481 
z
" transform="scale(0.015625)"/>
       </defs>
       <use xlink:href="#DejaVuSans-38"/>
       <use xlink:href="#DejaVuSans-30" x="63.623047"/>
      </g>
     </g>
    </g>
    <g id="text_20">
     <!-- Accuracy -->
     <g transform="translate(31.795312 197.356125) rotate(-90) scale(0.1 -0.1)">
      <defs>
       <path id="DejaVuSans-41" d="M 2188 4044 
L 1331 1722 
L 3047 1722 
L 2188 4044 
z
M 1831 4666 
L 2547 4666 
L 4325 0 
L 3669 0 
L 3244 1197 
L 1141 1197 
L 716 0 
L 50 0 
L 1831 4666 
z
" transform="scale(0.015625)"/>
       <path id="DejaVuSans-75" d="M 544 1381 
L 544 3500 
L 1119 3500 
L 1119 1403 
Q 1119 906 1312 657 
Q 1506 409 1894 409 
Q 2359 409 2629 706 
Q 2900 1003 2900 1516 
L 2900 3500 
L 3475 3500 
L 3475 0 
L 2900 0 
L 2900 538 
Q 2691 219 2414 64 
Q 2138 -91 1772 -91 
Q 1169 -91 856 284 
Q 544 659 544 1381 
z
M 1991 3584 
L 1991 3584 
z
" transform="scale(0.015625)"/>
       <path id="DejaVuSans-72" d="M 2631 2963 
Q 2534 3019 2420 3045 
Q 2306 3072 2169 3072 
Q 1681 3072 1420 2755 
Q 1159 2438 1159 1844 
L 1159 0 
L 581 0 
L 581 3500 
L 1159 3500 
L 1159 2956 
Q 1341 3275 1631 3429 
Q 1922 3584 2338 3584 
Q 2397 3584 2469 3576 
Q 2541 3569 2628 3553 
L 2631 2963 
z
" transform="scale(0.015625)"/>
       <path id="DejaVuSans-61" d="M 2194 1759 
Q 1497 1759 1228 1600 
Q 959 1441 959 1056 
Q 959 750 1161 570 
Q 1363 391 1709 391 
Q 2188 391 2477 730 
Q 2766 1069 2766 1631 
L 2766 1759 
L 2194 1759 
z
M 3341 1997 
L 3341 0 
L 2766 0 
L 2766 531 
Q 2569 213 2275 61 
Q 1981 -91 1556 -91 
Q 1019 -91 701 211 
Q 384 513 384 1019 
Q 384 1609 779 1909 
Q 1175 2209 1959 2209 
L 2766 2209 
L 2766 2266 
Q 2766 2663 2505 2880 
Q 2244 3097 1772 3097 
Q 1472 3097 1187 3025 
Q 903 2953 641 2809 
L 641 3341 
Q 956 3463 1253 3523 
Q 1550 3584 1831 3584 
Q 2591 3584 2966 3190 
Q 3341 2797 3341 1997 
z
" transform="scale(0.015625)"/>
       <path id="DejaVuSans-79" d="M 2059 -325 
Q 1816 -950 1584 -1140 
Q 1353 -1331 966 -1331 
L 506 -1331 
L 506 -850 
L 844 -850 
Q 1081 -850 1212 -737 
Q 1344 -625 1503 -206 
L 1606 56 
L 191 3500 
L 800 3500 
L 1894 763 
L 2988 3500 
L 3597 3500 
L 2059 -325 
z
" transform="scale(0.015625)"/>
      </defs>
      <use xlink:href="#DejaVuSans-41"/>
      <use xlink:href="#DejaVuSans-63" x="66.658203"/>
      <use xlink:href="#DejaVuSans-63" x="121.638672"/>
      <use xlink:href="#DejaVuSans-75" x="176.619141"/>
      <use xlink:href="#DejaVuSans-72" x="239.998047"/>
      <use xlink:href="#DejaVuSans-61" x="281.111328"/>
      <use xlink:href="#DejaVuSans-63" x="342.390625"/>
      <use xlink:href="#DejaVuSans-79" x="397.371094"/>
     </g>
    </g>
   </g>
   <g id="line2d_19">
    <path d="M 73.832727 295.488 
L 77.090131 212.664102 
L 78.175932 194.063754 
L 79.261733 178.358163 
L 80.347534 167.202573 
L 82.519137 151.427693 
L 84.690739 138.285808 
L 85.77654 133.266178 
L 86.862341 129.093418 
L 87.948142 124.389439 
L 89.033943 121.171333 
L 90.119745 118.630722 
L 91.205546 114.47336 
L 92.291347 112.194509 
L 93.377148 112.309992 
L 94.462949 109.345946 
L 95.54875 138.832424 
L 97.720353 133.335467 
L 98.806154 132.257632 
L 99.891955 127.399677 
L 100.977756 124.412536 
L 102.063557 122.888169 
L 103.149358 119.800943 
L 104.23516 117.321923 
L 105.320961 116.398065 
L 106.406762 114.434866 
L 107.492563 112.132919 
L 108.578364 109.12268 
L 109.664165 107.659905 
L 110.749967 107.683001 
L 111.835768 104.803643 
L 112.921569 103.179192 
L 115.093171 98.228851 
L 116.178972 97.84391 
L 117.264773 95.642048 
L 118.350575 94.302453 
L 119.436376 93.486378 
L 120.522177 90.684008 
L 121.607978 90.222079 
L 122.693779 88.089506 
L 123.77958 86.911587 
L 124.865382 86.226392 
L 125.951183 84.986882 
L 127.036984 84.832905 
L 128.122785 81.252954 
L 129.208586 81.322244 
L 130.294387 79.851769 
L 131.380189 79.944155 
L 132.46599 79.297454 
L 133.551791 78.034848 
L 134.637592 77.241869 
L 135.723393 77.30346 
L 136.809194 77.557521 
L 137.894995 76.210228 
L 138.980797 100.700172 
L 140.066598 104.04146 
L 141.152399 103.363963 
L 142.2382 102.324623 
L 143.324001 102.67107 
L 144.409802 101.470054 
L 145.495604 99.876398 
L 146.581405 100.25364 
L 147.667206 98.767768 
L 148.753007 98.744672 
L 149.838808 98.844757 
L 150.924609 98.282743 
L 152.01041 95.549662 
L 153.096212 94.679695 
L 154.182013 96.311845 
L 155.267814 95.033841 
L 156.353615 94.333248 
L 157.439416 94.633502 
L 158.525217 92.608713 
L 159.611019 91.184431 
L 160.69682 91.731047 
L 161.782621 90.791791 
L 163.954223 87.835445 
L 165.040024 88.636122 
L 166.125825 87.365817 
L 167.211627 87.881638 
L 168.297428 87.258033 
L 169.383229 85.564293 
L 170.46903 85.949234 
L 171.554831 83.547202 
L 173.726434 82.900502 
L 174.812235 83.23925 
L 175.898036 82.800417 
L 176.983837 80.89111 
L 178.069638 80.983496 
L 179.155439 79.412937 
L 180.24124 78.951007 
L 181.327042 79.205068 
L 182.412843 77.326556 
L 183.498644 76.687554 
L 184.584445 76.749145 
L 185.670246 75.009212 
L 186.756047 75.617419 
L 187.841849 74.385607 
L 188.92765 73.600328 
L 190.013451 73.600328 
L 191.099252 72.4763 
L 192.185053 71.113609 
L 193.270854 71.30608 
L 194.356656 70.867247 
L 195.442457 70.805656 
L 197.614059 68.257347 
L 198.69986 68.080274 
L 199.785661 67.425875 
L 200.871462 67.418176 
L 201.957264 67.579851 
L 203.043065 65.82452 
L 204.128866 66.28645 
L 205.214667 65.231711 
L 206.300468 64.415636 
L 207.386269 64.223166 
L 208.472071 64.238564 
L 209.557872 62.775788 
L 210.643673 63.699646 
L 211.729474 62.968258 
L 212.815275 61.759544 
L 213.901076 62.213774 
L 214.986877 60.974264 
L 216.072679 62.467835 
L 217.15848 61.105144 
L 218.244281 60.250575 
L 219.330082 60.312166 
L 220.415883 61.667158 
L 221.501684 60.158189 
L 222.587486 59.657766 
L 223.673287 62.082894 
L 224.759088 60.989662 
L 225.844889 84.640435 
L 226.93069 88.420555 
L 228.016491 88.358965 
L 229.102292 89.321317 
L 230.188094 87.581384 
L 231.273895 87.93553 
L 232.359696 89.113449 
L 233.445497 87.535191 
L 234.531298 87.789252 
L 236.702901 86.003126 
L 237.788702 86.996274 
L 238.874503 86.103211 
L 239.960304 86.765309 
L 241.046105 84.124614 
L 242.131906 86.095512 
L 243.217708 86.118608 
L 244.303509 84.14771 
L 245.38931 83.924445 
L 246.475111 85.202449 
L 247.560912 84.732821 
L 248.646713 83.816661 
L 249.732514 85.425714 
L 250.818316 84.263193 
L 251.904117 81.322244 
L 252.989918 83.670384 
L 254.075719 83.023683 
L 255.16152 81.507015 
L 256.247321 82.346187 
L 257.333123 81.453124 
L 258.418924 79.666998 
L 259.504725 80.714037 
L 260.590526 79.97495 
L 261.676327 80.837218 
L 262.762128 79.143478 
L 263.847929 80.660145 
L 264.933731 79.412937 
L 267.105333 81.206761 
L 268.191134 77.388147 
L 269.276935 79.25896 
L 270.362736 78.581464 
L 271.448538 76.464289 
L 272.534339 78.196523 
L 273.62014 77.164881 
L 274.705941 76.826133 
L 275.791742 77.026303 
L 276.877543 76.633663 
L 277.963344 75.386454 
L 279.049146 77.095592 
L 280.134947 76.079348 
L 281.220748 76.787639 
L 282.306549 76.525879 
L 283.39235 75.109297 
L 284.478151 75.486539 
L 285.563953 75.471141 
L 287.735555 74.924525 
L 288.821356 74.277824 
L 289.907157 74.023763 
L 290.992958 73.538737 
L 292.07876 74.4318 
L 293.164561 72.768855 
L 294.250362 73.238483 
L 295.336163 73.869787 
L 296.421964 72.045166 
L 297.507765 72.714964 
L 298.593566 72.383914 
L 299.679368 70.78256 
L 300.765169 71.798804 
L 301.85097 70.559294 
L 302.936771 71.221393 
L 304.022572 70.182052 
L 305.108373 69.904895 
L 306.194175 70.205149 
L 307.279976 68.88865 
L 308.365777 69.473761 
L 309.451578 68.357432 
L 311.62318 68.82706 
L 312.708981 67.833912 
L 313.794783 67.39508 
L 314.880584 67.564454 
L 315.966385 66.971644 
L 318.137987 66.779174 
L 319.223788 65.701339 
L 320.30959 67.102524 
L 321.395391 64.946855 
L 322.481192 65.547363 
L 323.566993 65.424182 
L 324.652794 64.161575 
L 325.738595 63.922912 
L 326.824396 63.799731 
L 327.910198 63.330103 
L 328.995999 63.453284 
L 330.0818 63.245416 
L 331.167601 62.182979 
L 332.253402 63.099138 
L 333.339203 60.789493 
L 334.425005 62.182979 
L 335.510806 60.866481 
L 336.596607 61.559374 
L 337.682408 60.535431 
L 338.768209 60.858782 
L 339.85401 60.150491 
L 340.939811 60.67401 
L 342.025613 59.380609 
L 343.111414 60.28137 
L 345.283016 57.709965 
L 346.368817 58.880185 
L 347.454618 57.579085 
L 348.54042 57.987122 
L 349.626221 56.993975 
L 350.712022 56.339575 
L 351.797823 57.294229 
L 352.883624 57.140252 
L 355.055227 55.400319 
L 356.141028 55.369524 
L 357.226829 56.30878 
L 358.31263 55.762164 
L 359.398431 54.984583 
L 360.484232 55.538898 
L 361.570033 54.499557 
L 362.655835 54.784413 
L 363.741636 54.453364 
L 364.827437 53.568 
L 365.913238 54.322484 
L 366.999039 53.629591 
L 368.08484 54.892197 
L 369.170642 54.268593 
L 370.256443 54.822908 
L 371.342244 56.285683 
L 372.428045 57.540591 
L 373.513846 57.355819 
L 374.599647 56.870793 
L 375.685448 56.616732 
L 376.77125 56.639829 
L 377.857051 57.047866 
L 378.942852 56.524347 
L 380.028653 57.686868 
L 381.114454 56.662925 
L 382.200255 57.486699 
L 384.371858 56.216394 
L 385.457659 56.809203 
L 386.54346 56.424262 
L 387.629261 57.171047 
L 388.715062 57.525193 
L 389.800863 56.716817 
L 390.886665 56.662925 
L 391.972466 57.994821 
L 393.058267 57.294229 
L 394.144068 57.047866 
L 395.229869 57.54829 
L 396.31567 56.077815 
L 397.401472 55.846851 
L 398.487273 57.733061 
L 398.487273 57.733061 
" clip-path="url(#pbb03db1d02)" style="fill: none; stroke: #1f77b4; stroke-width: 1.5; stroke-linecap: square"/>
   </g>
   <g id="line2d_20">
    <path d="M 73.832727 281.499245 
L 76.00433 236.815298 
L 77.090131 210.97806 
L 78.175932 193.825091 
L 79.261733 194.533382 
L 80.347534 179.536082 
L 81.433335 176.48735 
L 82.519137 163.122199 
L 83.604938 154.930655 
L 84.690739 158.74927 
L 85.77654 146.400364 
L 86.862341 148.18649 
L 87.948142 137.777686 
L 89.033943 135.46804 
L 90.119745 130.325229 
L 91.205546 128.939441 
L 92.291347 127.214906 
L 93.377148 126.999339 
L 94.462949 126.53741 
L 95.54875 158.903246 
L 96.634552 153.236915 
L 97.720353 150.095797 
L 98.806154 149.849435 
L 99.891955 142.335387 
L 100.977756 143.320836 
L 102.063557 136.422694 
L 103.149358 133.127599 
L 104.23516 132.172945 
L 106.406762 127.553654 
L 107.492563 129.616937 
L 108.578364 124.504921 
L 109.664165 117.021669 
L 110.749967 119.115748 
L 112.921569 115.574291 
L 114.00737 119.208134 
L 115.093171 110.215913 
L 116.178972 114.896795 
L 117.264773 108.891716 
L 118.350575 106.828432 
L 119.436376 108.183424 
L 120.522177 106.274117 
L 121.607978 105.719802 
L 122.693779 101.03892 
L 123.77958 101.285282 
L 124.865382 98.975636 
L 125.951183 98.113369 
L 127.036984 97.743825 
L 128.122785 95.526565 
L 129.208586 96.635195 
L 130.294387 94.97225 
L 131.380189 94.109983 
L 132.46599 92.6934 
L 133.551791 92.816581 
L 134.637592 91.861927 
L 135.723393 91.707951 
L 136.809194 92.6934 
L 137.894995 91.800337 
L 138.980797 117.052464 
L 140.066598 119.978016 
L 141.152399 116.374968 
L 143.324001 114.558047 
L 144.409802 113.110669 
L 145.495604 120.563126 
L 146.581405 118.161094 
L 147.667206 112.895102 
L 148.753007 110.308299 
L 149.838808 111.54011 
L 150.924609 110.277503 
L 152.01041 112.494763 
L 153.096212 107.136385 
L 154.182013 107.813881 
L 155.267814 106.212527 
L 156.353615 105.966164 
L 157.439416 107.875472 
L 158.525217 109.199669 
L 159.611019 106.920818 
L 160.69682 104.056857 
L 161.782621 104.272424 
L 162.868422 103.225385 
L 163.954223 101.316078 
L 165.040024 101.03892 
L 166.125825 98.544503 
L 167.211627 100.176652 
L 169.383229 96.388833 
L 170.46903 97.466668 
L 171.554831 96.050085 
L 172.640632 97.066329 
L 173.726434 98.328936 
L 174.812235 96.696786 
L 175.898036 93.617258 
L 176.983837 96.173266 
L 178.069638 93.093738 
L 179.155439 93.86362 
L 180.24124 92.6934 
L 181.327042 92.724195 
L 183.498644 88.166494 
L 185.670246 89.644667 
L 186.756047 88.597628 
L 187.841849 85.548896 
L 188.92765 87.73536 
L 190.013451 85.733667 
L 191.099252 83.393226 
L 192.185053 84.902195 
L 193.270854 86.195596 
L 194.356656 84.40947 
L 195.442457 82.284596 
L 196.528258 82.869706 
L 197.614059 82.900502 
L 198.69986 80.067336 
L 199.785661 80.590856 
L 200.871462 79.728588 
L 201.957264 80.436879 
L 203.043065 79.081887 
L 204.128866 78.127234 
L 205.214667 79.112683 
L 206.300468 76.864627 
L 207.386269 76.00236 
L 208.472071 78.004053 
L 209.557872 76.957013 
L 210.643673 75.632816 
L 211.729474 76.341108 
L 212.815275 75.047706 
L 213.901076 75.417249 
L 214.986877 74.4318 
L 216.072679 75.170887 
L 217.15848 73.969871 
L 218.244281 74.493391 
L 220.415883 74.093052 
L 221.501684 73.877485 
L 222.587486 74.647367 
L 223.673287 73.32317 
L 224.759088 73.908281 
L 225.844889 99.683928 
L 226.93069 103.009818 
L 228.016491 102.917432 
L 229.102292 101.870393 
L 230.188094 101.069715 
L 231.273895 100.115062 
L 232.359696 104.765149 
L 233.445497 98.883251 
L 234.531298 100.45381 
L 235.617099 98.482912 
L 236.702901 102.209141 
L 237.788702 99.560747 
L 238.874503 100.546196 
L 239.960304 97.435873 
L 241.046105 95.834518 
L 242.131906 105.165487 
L 243.217708 98.359731 
L 244.303509 101.962778 
L 245.38931 98.359731 
L 246.475111 99.40677 
L 247.560912 95.803723 
L 248.646713 95.095431 
L 249.732514 99.653133 
L 250.818316 93.986802 
L 251.904117 99.191203 
L 252.989918 96.388833 
L 254.075719 95.649746 
L 255.16152 97.990188 
L 256.247321 96.450424 
L 257.333123 96.327243 
L 258.418924 95.280203 
L 259.504725 97.559054 
L 260.590526 94.510321 
L 261.676327 93.093738 
L 262.762128 92.724195 
L 263.847929 89.860234 
L 264.933731 91.092045 
L 266.019532 95.772928 
L 267.105333 90.722502 
L 268.191134 90.291368 
L 269.276935 92.6934 
L 270.362736 92.015904 
L 271.448538 94.171573 
L 272.534339 90.938069 
L 273.62014 89.798644 
L 274.705941 89.459896 
L 275.791742 91.492384 
L 276.877543 96.54281 
L 277.963344 90.198982 
L 279.049146 92.354652 
L 280.134947 92.323857 
L 281.220748 89.767849 
L 282.306549 87.67377 
L 283.39235 88.382061 
L 284.478151 91.184431 
L 285.563953 88.25888 
L 287.735555 88.289675 
L 288.821356 85.5181 
L 289.907157 86.811502 
L 292.07876 86.749911 
L 293.164561 87.396612 
L 294.250362 86.134006 
L 295.336163 85.579691 
L 296.421964 89.613872 
L 297.507765 85.394919 
L 298.593566 82.992888 
L 299.679368 83.82436 
L 300.765169 83.793565 
L 301.85097 85.764462 
L 302.936771 82.069029 
L 304.022572 84.317084 
L 305.108373 80.652446 
L 306.194175 84.070722 
L 307.279976 81.052785 
L 308.365777 81.976643 
L 309.451578 81.08358 
L 311.62318 80.49847 
L 312.708981 81.237557 
L 313.794783 81.668691 
L 314.880584 80.868013 
L 315.966385 79.543816 
L 317.052186 77.788486 
L 318.137987 78.773935 
L 319.223788 78.004053 
L 320.30959 78.650753 
L 321.395391 79.697793 
L 322.481192 78.558368 
L 323.566993 79.451431 
L 324.652794 76.957013 
L 325.738595 75.386454 
L 326.824396 77.418942 
L 327.910198 77.418942 
L 328.995999 75.047706 
L 330.0818 74.986115 
L 331.167601 75.386454 
L 332.253402 75.016911 
L 333.339203 76.217926 
L 334.425005 75.047706 
L 335.510806 74.093052 
L 336.596607 75.263273 
L 337.682408 74.216233 
L 339.85401 73.446352 
L 340.939811 71.56784 
L 342.025613 72.953627 
L 343.111414 72.430107 
L 344.197215 71.290682 
L 345.283016 73.415556 
L 346.368817 70.828753 
L 347.454618 70.797958 
L 348.54042 69.566147 
L 349.626221 69.011832 
L 350.712022 69.689328 
L 351.797823 68.88865 
L 352.883624 71.198296 
L 353.969425 70.212847 
L 356.141028 69.99728 
L 357.226829 68.272745 
L 358.31263 68.026383 
L 359.398431 69.011832 
L 360.484232 67.164115 
L 361.570033 68.026383 
L 362.655835 67.656839 
L 363.741636 67.595249 
L 364.827437 67.348887 
L 365.913238 66.640595 
L 366.999039 66.671391 
L 368.08484 67.102524 
L 369.170642 68.149564 
L 370.256443 68.796265 
L 371.342244 68.950241 
L 372.428045 70.182052 
L 373.513846 69.165808 
L 374.599647 68.488312 
L 375.685448 71.660225 
L 376.77125 70.890344 
L 377.857051 71.383068 
L 378.942852 70.797958 
L 380.028653 69.473761 
L 381.114454 70.089666 
L 382.200255 71.62943 
L 384.371858 71.229092 
L 385.457659 72.15295 
L 386.54346 69.843304 
L 387.629261 69.504556 
L 388.715062 70.182052 
L 389.800863 70.705572 
L 390.886665 70.490005 
L 391.972466 70.643981 
L 393.058267 70.643981 
L 394.144068 69.93569 
L 395.229869 67.841611 
L 396.31567 69.381375 
L 397.401472 71.62943 
L 398.487273 70.397619 
L 398.487273 70.397619 
" clip-path="url(#pbb03db1d02)" style="fill: none; stroke: #ff7f0e; stroke-width: 1.5; stroke-linecap: square"/>
   </g>
   <g id="line2d_21">
    <path d="M 73.832727 285.760675 
L 74.918528 271.637323 
L 76.00433 253.7973 
L 77.090131 240.842046 
L 78.175932 230.435366 
L 79.261733 224.382501 
L 80.347534 214.506774 
L 81.433335 211.002484 
L 82.519137 202.082473 
L 83.604938 199.746279 
L 84.690739 196.879133 
L 85.77654 193.587224 
L 86.862341 193.162461 
L 87.948142 186.260072 
L 89.033943 182.437209 
L 90.119745 179.251491 
L 91.205546 177.446251 
L 92.291347 174.685295 
L 93.377148 175.003867 
L 94.462949 174.154342 
L 95.54875 206.330097 
L 96.634552 194.330558 
L 97.720353 196.135798 
L 98.806154 191.994365 
L 99.891955 188.490074 
L 100.977756 186.472453 
L 102.063557 185.729118 
L 103.149358 177.658632 
L 105.320961 174.579104 
L 106.406762 176.702916 
L 107.492563 177.23387 
L 108.578364 173.623389 
L 109.664165 166.190046 
L 110.749967 171.181005 
L 111.835768 168.526239 
L 112.921569 167.995286 
L 114.00737 169.163383 
L 115.093171 161.305278 
L 116.178972 167.145761 
L 117.264773 161.62385 
L 118.350575 164.809568 
L 119.436376 163.110518 
L 120.522177 162.154803 
L 121.607978 157.800988 
L 122.693779 155.464794 
L 123.77958 151.535742 
L 124.865382 152.810029 
L 125.951183 145.589067 
L 127.036984 150.792407 
L 128.122785 148.562404 
L 130.294387 148.137642 
L 131.380189 145.907639 
L 132.46599 145.695258 
L 133.551791 144.951924 
L 134.637592 144.420971 
L 135.723393 144.951924 
L 136.809194 146.332402 
L 137.894995 144.208589 
L 138.980797 167.570524 
L 140.066598 169.694336 
L 141.152399 164.066234 
L 142.2382 171.074814 
L 143.324001 167.889096 
L 144.409802 161.199087 
L 145.495604 173.83577 
L 146.581405 169.481955 
L 147.667206 163.853852 
L 148.753007 160.561944 
L 149.838808 164.278615 
L 150.924609 160.137181 
L 152.01041 164.915759 
L 153.096212 162.367184 
L 154.182013 160.668134 
L 155.267814 158.650513 
L 156.353615 162.685756 
L 157.439416 158.438131 
L 158.525217 161.199087 
L 159.611019 165.23433 
L 160.69682 158.438131 
L 161.782621 159.181466 
L 162.868422 153.659554 
L 163.954223 157.482416 
L 165.040024 158.969084 
L 166.125825 150.686217 
L 167.211627 156.632891 
L 168.297428 150.473835 
L 169.383229 151.748123 
L 170.46903 155.464794 
L 171.554831 148.031451 
L 172.640632 153.234791 
L 173.726434 150.367645 
L 174.812235 150.049073 
L 175.898036 145.376686 
L 176.983837 149.305739 
L 178.069638 145.589067 
L 179.155439 145.907639 
L 180.24124 145.695258 
L 181.327042 144.633352 
L 182.412843 142.828111 
L 183.498644 141.447633 
L 184.584445 144.31478 
L 185.670246 138.792868 
L 186.756047 141.553824 
L 187.841849 139.005249 
L 188.92765 140.385727 
L 190.013451 138.049534 
L 191.099252 134.651434 
L 192.185053 136.881437 
L 193.270854 137.41239 
L 194.356656 133.9081 
L 195.442457 134.970006 
L 197.614059 135.500959 
L 198.69986 132.740003 
L 199.785661 136.138103 
L 200.871462 133.058575 
L 201.957264 132.846194 
L 203.043065 131.678097 
L 204.128866 128.386188 
L 205.214667 129.554285 
L 206.300468 127.642854 
L 207.386269 126.580948 
L 208.472071 130.085238 
L 209.557872 127.961426 
L 210.643673 128.279998 
L 211.729474 127.642854 
L 212.815275 128.279998 
L 213.901076 125.30666 
L 214.986877 124.457136 
L 218.244281 124.669517 
L 219.330082 125.837614 
L 220.415883 124.563326 
L 221.501684 124.350945 
L 222.587486 125.519042 
L 223.673287 124.669517 
L 224.759088 124.138564 
L 225.844889 153.553363 
L 226.93069 156.208128 
L 228.016491 155.146222 
L 229.102292 156.5267 
L 230.188094 154.72146 
L 231.273895 153.871935 
L 232.359696 164.384806 
L 233.445497 156.845272 
L 234.531298 152.385266 
L 235.617099 150.367645 
L 237.788702 157.270035 
L 238.874503 158.544322 
L 239.960304 150.792407 
L 241.046105 152.385266 
L 242.131906 154.296697 
L 243.217708 148.031451 
L 244.303509 158.544322 
L 245.38931 152.066695 
L 246.475111 155.040032 
L 247.560912 150.686217 
L 248.646713 148.562404 
L 249.732514 157.270035 
L 250.818316 145.589067 
L 251.904117 149.730501 
L 252.989918 147.925261 
L 254.075719 152.491457 
L 255.16152 152.491457 
L 256.247321 151.110979 
L 257.333123 150.155264 
L 258.418924 150.473835 
L 259.504725 151.960504 
L 260.590526 145.589067 
L 261.676327 151.748123 
L 262.762128 144.31478 
L 263.847929 146.863355 
L 264.933731 144.633352 
L 266.019532 148.031451 
L 267.105333 142.297158 
L 268.191134 143.996208 
L 269.276935 146.438592 
L 270.362736 149.942882 
L 271.448538 148.031451 
L 272.534339 145.589067 
L 273.62014 144.951924 
L 274.705941 141.022871 
L 275.791742 139.748584 
L 276.877543 155.995747 
L 277.963344 147.181926 
L 279.049146 143.571446 
L 280.134947 144.951924 
L 281.220748 145.482877 
L 282.306549 140.81049 
L 283.39235 141.872396 
L 284.478151 148.137642 
L 285.563953 140.067155 
L 286.649754 141.978586 
L 287.735555 141.766205 
L 288.821356 136.881437 
L 289.907157 140.598109 
L 290.992958 141.872396 
L 292.07876 142.403349 
L 293.164561 141.235252 
L 294.250362 142.297158 
L 295.336163 141.129062 
L 296.421964 140.279537 
L 297.507765 140.067155 
L 298.593566 132.10286 
L 299.679368 139.642393 
L 300.765169 136.031912 
L 301.85097 138.049534 
L 302.936771 134.863816 
L 304.022572 136.562865 
L 305.108373 134.651434 
L 306.194175 135.182387 
L 307.279976 129.766666 
L 308.365777 135.394769 
L 309.451578 133.483338 
L 310.537379 135.500959 
L 311.62318 132.315241 
L 313.794783 136.775247 
L 314.880584 127.430473 
L 315.966385 132.952385 
L 317.052186 129.979047 
L 318.137987 132.20905 
L 320.30959 131.678097 
L 321.395391 133.058575 
L 322.481192 134.863816 
L 323.566993 133.801909 
L 324.652794 130.616191 
L 325.738595 128.492379 
L 326.824396 129.660476 
L 330.0818 126.687138 
L 331.167601 128.492379 
L 332.253402 126.687138 
L 333.339203 127.324282 
L 334.425005 124.350945 
L 335.510806 125.412851 
L 336.596607 122.864276 
L 337.682408 124.138564 
L 338.768209 126.049995 
L 339.85401 123.926183 
L 340.939811 124.032373 
L 342.025613 124.350945 
L 343.111414 123.076658 
L 344.197215 119.678558 
L 345.283016 123.926183 
L 346.368817 120.740464 
L 347.454618 126.049995 
L 348.54042 121.377608 
L 349.626221 120.103321 
L 350.712022 120.952845 
L 351.797823 119.784749 
L 352.883624 124.032373 
L 353.969425 119.253796 
L 355.055227 119.147605 
L 356.141028 117.342365 
L 357.226829 120.421892 
L 358.31263 118.935224 
L 359.398431 120.421892 
L 360.484232 117.448555 
L 361.570033 116.280459 
L 362.655835 118.935224 
L 363.741636 116.280459 
L 364.827437 117.767127 
L 365.913238 116.49284 
L 366.999039 119.041414 
L 368.08484 119.678558 
L 369.170642 119.041414 
L 370.256443 119.784749 
L 371.342244 116.705221 
L 373.513846 119.359986 
L 374.599647 119.359986 
L 375.685448 124.881898 
L 376.77125 119.466177 
L 377.857051 120.952845 
L 378.942852 122.014752 
L 380.028653 124.138564 
L 381.114454 124.563326 
L 382.200255 121.377608 
L 383.286057 121.483798 
L 384.371858 117.660936 
L 385.457659 121.908561 
L 386.54346 121.589989 
L 387.629261 120.528083 
L 388.715062 119.890939 
L 389.800863 123.819992 
L 390.886665 118.510461 
L 391.972466 119.041414 
L 393.058267 119.890939 
L 394.144068 117.660936 
L 395.229869 114.899981 
L 396.31567 117.236174 
L 397.401472 121.908561 
L 398.487273 123.182848 
L 398.487273 123.182848 
" clip-path="url(#pbb03db1d02)" style="fill: none; stroke: #2ca02c; stroke-width: 1.5; stroke-linecap: square"/>
   </g>
   <g id="line2d_22">
    <path d="M 368.08484 66.917753 
L 369.170642 67.533658 
L 370.256443 67.19491 
L 371.342244 67.964792 
L 372.428045 67.903202 
L 373.513846 67.071729 
L 374.599647 67.595249 
L 375.685448 68.950241 
L 376.77125 69.627737 
L 377.857051 71.475454 
L 378.942852 68.734674 
L 380.028653 67.872406 
L 381.114454 69.781714 
L 382.200255 67.687635 
L 383.286057 66.455824 
L 384.371858 69.073422 
L 385.457659 68.365131 
L 386.54346 68.919446 
L 387.629261 71.04432 
L 388.715062 69.41217 
L 389.800863 71.259887 
L 390.886665 69.874099 
L 391.972466 71.660225 
L 393.058267 70.859548 
L 394.144068 78.897116 
L 395.229869 71.968178 
L 396.31567 72.922832 
L 397.401472 76.464289 
L 398.487273 77.11099 
L 398.487273 77.11099 
" clip-path="url(#pbb03db1d02)" style="fill: none; stroke: #d62728; stroke-width: 1.5; stroke-linecap: square"/>
   </g>
   <g id="line2d_23">
    <path d="M 368.08484 118.085699 
L 369.170642 117.554746 
L 370.256443 118.829033 
L 371.342244 118.616652 
L 372.428045 117.448555 
L 373.513846 116.49284 
L 374.599647 117.660936 
L 375.685448 115.643315 
L 376.77125 117.342365 
L 377.857051 123.182848 
L 378.942852 114.899981 
L 380.028653 116.068077 
L 381.114454 119.466177 
L 382.200255 115.537124 
L 383.286057 112.882359 
L 384.371858 113.944265 
L 385.457659 117.129983 
L 386.54346 116.705221 
L 387.629261 119.784749 
L 388.715062 117.129983 
L 389.800863 121.377608 
L 390.886665 118.404271 
L 391.972466 124.032373 
L 393.058267 120.528083 
L 394.144068 129.341904 
L 395.229869 120.846655 
L 396.31567 123.607611 
L 397.401472 127.111901 
L 398.487273 127.536663 
L 398.487273 127.536663 
" clip-path="url(#pbb03db1d02)" style="fill: none; stroke: #9467bd; stroke-width: 1.5; stroke-linecap: square"/>
   </g>
   <g id="patch_3">
    <path d="M 57.6 307.584 
L 57.6 41.472 
" style="fill: none; stroke: #000000; stroke-width: 0.8; stroke-linejoin: miter; stroke-linecap: square"/>
   </g>
   <g id="patch_4">
    <path d="M 414.72 307.584 
L 414.72 41.472 
" style="fill: none; stroke: #000000; stroke-width: 0.8; stroke-linejoin: miter; stroke-linecap: square"/>
   </g>
   <g id="patch_5">
    <path d="M 57.6 307.584 
L 414.72 307.584 
" style="fill: none; stroke: #000000; stroke-width: 0.8; stroke-linejoin: miter; stroke-linecap: square"/>
   </g>
   <g id="patch_6">
    <path d="M 57.6 41.472 
L 414.72 41.472 
" style="fill: none; stroke: #000000; stroke-width: 0.8; stroke-linejoin: miter; stroke-linecap: square"/>
   </g>
   <g id="text_21">
    <!-- Learning Curves -->
    <g transform="translate(187.37625 35.472) scale(0.12 -0.12)">
     <defs>
      <path id="DejaVuSans-4c" d="M 628 4666 
L 1259 4666 
L 1259 531 
L 3531 531 
L 3531 0 
L 628 0 
L 628 4666 
z
" transform="scale(0.015625)"/>
      <path id="DejaVuSans-65" d="M 3597 1894 
L 3597 1613 
L 953 1613 
Q 991 1019 1311 708 
Q 1631 397 2203 397 
Q 2534 397 2845 478 
Q 3156 559 3463 722 
L 3463 178 
Q 3153 47 2828 -22 
Q 2503 -91 2169 -91 
Q 1331 -91 842 396 
Q 353 884 353 1716 
Q 353 2575 817 3079 
Q 1281 3584 2069 3584 
Q 2775 3584 3186 3129 
Q 3597 2675 3597 1894 
z
M 3022 2063 
Q 3016 2534 2758 2815 
Q 2500 3097 2075 3097 
Q 1594 3097 1305 2825 
Q 1016 2553 972 2059 
L 3022 2063 
z
" transform="scale(0.015625)"/>
      <path id="DejaVuSans-6e" d="M 3513 2113 
L 3513 0 
L 2938 0 
L 2938 2094 
Q 2938 2591 2744 2837 
Q 2550 3084 2163 3084 
Q 1697 3084 1428 2787 
Q 1159 2491 1159 1978 
L 1159 0 
L 581 0 
L 581 3500 
L 1159 3500 
L 1159 2956 
Q 1366 3272 1645 3428 
Q 1925 3584 2291 3584 
Q 2894 3584 3203 3211 
Q 3513 2838 3513 2113 
z
" transform="scale(0.015625)"/>
      <path id="DejaVuSans-69" d="M 603 3500 
L 1178 3500 
L 1178 0 
L 603 0 
L 603 3500 
z
M 603 4863 
L 1178 4863 
L 1178 4134 
L 603 4134 
L 603 4863 
z
" transform="scale(0.015625)"/>
      <path id="DejaVuSans-67" d="M 2906 1791 
Q 2906 2416 2648 2759 
Q 2391 3103 1925 3103 
Q 1463 3103 1205 2759 
Q 947 2416 947 1791 
Q 947 1169 1205 825 
Q 1463 481 1925 481 
Q 2391 481 2648 825 
Q 2906 1169 2906 1791 
z
M 3481 434 
Q 3481 -459 3084 -895 
Q 2688 -1331 1869 -1331 
Q 1566 -1331 1297 -1286 
Q 1028 -1241 775 -1147 
L 775 -588 
Q 1028 -725 1275 -790 
Q 1522 -856 1778 -856 
Q 2344 -856 2625 -561 
Q 2906 -266 2906 331 
L 2906 616 
Q 2728 306 2450 153 
Q 2172 0 1784 0 
Q 1141 0 747 490 
Q 353 981 353 1791 
Q 353 2603 747 3093 
Q 1141 3584 1784 3584 
Q 2172 3584 2450 3431 
Q 2728 3278 2906 2969 
L 2906 3500 
L 3481 3500 
L 3481 434 
z
" transform="scale(0.015625)"/>
      <path id="DejaVuSans-20" transform="scale(0.015625)"/>
      <path id="DejaVuSans-43" d="M 4122 4306 
L 4122 3641 
Q 3803 3938 3442 4084 
Q 3081 4231 2675 4231 
Q 1875 4231 1450 3742 
Q 1025 3253 1025 2328 
Q 1025 1406 1450 917 
Q 1875 428 2675 428 
Q 3081 428 3442 575 
Q 3803 722 4122 1019 
L 4122 359 
Q 3791 134 3420 21 
Q 3050 -91 2638 -91 
Q 1578 -91 968 557 
Q 359 1206 359 2328 
Q 359 3453 968 4101 
Q 1578 4750 2638 4750 
Q 3056 4750 3426 4639 
Q 3797 4528 4122 4306 
z
" transform="scale(0.015625)"/>
      <path id="DejaVuSans-76" d="M 191 3500 
L 800 3500 
L 1894 563 
L 2988 3500 
L 3597 3500 
L 2284 0 
L 1503 0 
L 191 3500 
z
" transform="scale(0.015625)"/>
     </defs>
     <use xlink:href="#DejaVuSans-4c"/>
     <use xlink:href="#DejaVuSans-65" x="53.962891"/>
     <use xlink:href="#DejaVuSans-61" x="115.486328"/>
     <use xlink:href="#DejaVuSans-72" x="176.765625"/>
     <use xlink:href="#DejaVuSans-6e" x="216.128906"/>
     <use xlink:href="#DejaVuSans-69" x="279.507812"/>
     <use xlink:href="#DejaVuSans-6e" x="307.291016"/>
     <use xlink:href="#DejaVuSans-67" x="370.669922"/>
     <use xlink:href="#DejaVuSans-20" x="434.146484"/>
     <use xlink:href="#DejaVuSans-43" x="465.933594"/>
     <use xlink:href="#DejaVuSans-75" x="535.757812"/>
     <use xlink:href="#DejaVuSans-72" x="599.136719"/>
     <use xlink:href="#DejaVuSans-76" x="640.25"/>
     <use xlink:href="#DejaVuSans-65" x="699.429688"/>
     <use xlink:href="#DejaVuSans-73" x="760.953125"/>
    </g>
   </g>
   <g id="legend_1">
    <g id="patch_7">
     <path d="M 214.18875 302.584 
L 407.72 302.584 
Q 409.72 302.584 409.72 300.584 
L 409.72 228.193375 
Q 409.72 226.193375 407.72 226.193375 
L 214.18875 226.193375 
Q 212.18875 226.193375 212.18875 228.193375 
L 212.18875 300.584 
Q 212.18875 302.584 214.18875 302.584 
z
" style="fill: #ffffff; opacity: 0.8; stroke: #cccccc; stroke-linejoin: miter"/>
    </g>
    <g id="line2d_24">
     <path d="M 216.18875 234.291812 
L 226.18875 234.291812 
L 236.18875 234.291812 
" style="fill: none; stroke: #1f77b4; stroke-width: 1.5; stroke-linecap: square"/>
    </g>
    <g id="text_22">
     <!-- Train Accuracy -->
     <g transform="translate(244.18875 237.791812) scale(0.1 -0.1)">
      <defs>
       <path id="DejaVuSans-54" d="M -19 4666 
L 3928 4666 
L 3928 4134 
L 2272 4134 
L 2272 0 
L 1638 0 
L 1638 4134 
L -19 4134 
L -19 4666 
z
" transform="scale(0.015625)"/>
      </defs>
      <use xlink:href="#DejaVuSans-54"/>
      <use xlink:href="#DejaVuSans-72" x="46.333984"/>
      <use xlink:href="#DejaVuSans-61" x="87.447266"/>
      <use xlink:href="#DejaVuSans-69" x="148.726562"/>
      <use xlink:href="#DejaVuSans-6e" x="176.509766"/>
      <use xlink:href="#DejaVuSans-20" x="239.888672"/>
      <use xlink:href="#DejaVuSans-41" x="271.675781"/>
      <use xlink:href="#DejaVuSans-63" x="338.333984"/>
      <use xlink:href="#DejaVuSans-63" x="393.314453"/>
      <use xlink:href="#DejaVuSans-75" x="448.294922"/>
      <use xlink:href="#DejaVuSans-72" x="511.673828"/>
      <use xlink:href="#DejaVuSans-61" x="552.787109"/>
      <use xlink:href="#DejaVuSans-63" x="614.066406"/>
      <use xlink:href="#DejaVuSans-79" x="669.046875"/>
     </g>
    </g>
    <g id="line2d_25">
     <path d="M 216.18875 248.969937 
L 226.18875 248.969937 
L 236.18875 248.969937 
" style="fill: none; stroke: #ff7f0e; stroke-width: 1.5; stroke-linecap: square"/>
    </g>
    <g id="text_23">
     <!-- Validation Accuracy -->
     <g transform="translate(244.18875 252.469937) scale(0.1 -0.1)">
      <defs>
       <path id="DejaVuSans-56" d="M 1831 0 
L 50 4666 
L 709 4666 
L 2188 738 
L 3669 4666 
L 4325 4666 
L 2547 0 
L 1831 0 
z
" transform="scale(0.015625)"/>
       <path id="DejaVuSans-6c" d="M 603 4863 
L 1178 4863 
L 1178 0 
L 603 0 
L 603 4863 
z
" transform="scale(0.015625)"/>
       <path id="DejaVuSans-64" d="M 2906 2969 
L 2906 4863 
L 3481 4863 
L 3481 0 
L 2906 0 
L 2906 525 
Q 2725 213 2448 61 
Q 2172 -91 1784 -91 
Q 1150 -91 751 415 
Q 353 922 353 1747 
Q 353 2572 751 3078 
Q 1150 3584 1784 3584 
Q 2172 3584 2448 3432 
Q 2725 3281 2906 2969 
z
M 947 1747 
Q 947 1113 1208 752 
Q 1469 391 1925 391 
Q 2381 391 2643 752 
Q 2906 1113 2906 1747 
Q 2906 2381 2643 2742 
Q 2381 3103 1925 3103 
Q 1469 3103 1208 2742 
Q 947 2381 947 1747 
z
" transform="scale(0.015625)"/>
       <path id="DejaVuSans-74" d="M 1172 4494 
L 1172 3500 
L 2356 3500 
L 2356 3053 
L 1172 3053 
L 1172 1153 
Q 1172 725 1289 603 
Q 1406 481 1766 481 
L 2356 481 
L 2356 0 
L 1766 0 
Q 1100 0 847 248 
Q 594 497 594 1153 
L 594 3053 
L 172 3053 
L 172 3500 
L 594 3500 
L 594 4494 
L 1172 4494 
z
" transform="scale(0.015625)"/>
      </defs>
      <use xlink:href="#DejaVuSans-56"/>
      <use xlink:href="#DejaVuSans-61" x="60.658203"/>
      <use xlink:href="#DejaVuSans-6c" x="121.9375"/>
      <use xlink:href="#DejaVuSans-69" x="149.720703"/>
      <use xlink:href="#DejaVuSans-64" x="177.503906"/>
      <use xlink:href="#DejaVuSans-61" x="240.980469"/>
      <use xlink:href="#DejaVuSans-74" x="302.259766"/>
      <use xlink:href="#DejaVuSans-69" x="341.46875"/>
      <use xlink:href="#DejaVuSans-6f" x="369.251953"/>
      <use xlink:href="#DejaVuSans-6e" x="430.433594"/>
      <use xlink:href="#DejaVuSans-20" x="493.8125"/>
      <use xlink:href="#DejaVuSans-41" x="525.599609"/>
      <use xlink:href="#DejaVuSans-63" x="592.257812"/>
      <use xlink:href="#DejaVuSans-63" x="647.238281"/>
      <use xlink:href="#DejaVuSans-75" x="702.21875"/>
      <use xlink:href="#DejaVuSans-72" x="765.597656"/>
      <use xlink:href="#DejaVuSans-61" x="806.710938"/>
      <use xlink:href="#DejaVuSans-63" x="867.990234"/>
      <use xlink:href="#DejaVuSans-79" x="922.970703"/>
     </g>
    </g>
    <g id="line2d_26">
     <path d="M 216.18875 263.648062 
L 226.18875 263.648062 
L 236.18875 263.648062 
" style="fill: none; stroke: #2ca02c; stroke-width: 1.5; stroke-linecap: square"/>
    </g>
    <g id="text_24">
     <!-- Robust Validation Accuracy -->
     <g transform="translate(244.18875 267.148062) scale(0.1 -0.1)">
      <defs>
       <path id="DejaVuSans-52" d="M 2841 2188 
Q 3044 2119 3236 1894 
Q 3428 1669 3622 1275 
L 4263 0 
L 3584 0 
L 2988 1197 
Q 2756 1666 2539 1819 
Q 2322 1972 1947 1972 
L 1259 1972 
L 1259 0 
L 628 0 
L 628 4666 
L 2053 4666 
Q 2853 4666 3247 4331 
Q 3641 3997 3641 3322 
Q 3641 2881 3436 2590 
Q 3231 2300 2841 2188 
z
M 1259 4147 
L 1259 2491 
L 2053 2491 
Q 2509 2491 2742 2702 
Q 2975 2913 2975 3322 
Q 2975 3731 2742 3939 
Q 2509 4147 2053 4147 
L 1259 4147 
z
" transform="scale(0.015625)"/>
       <path id="DejaVuSans-62" d="M 3116 1747 
Q 3116 2381 2855 2742 
Q 2594 3103 2138 3103 
Q 1681 3103 1420 2742 
Q 1159 2381 1159 1747 
Q 1159 1113 1420 752 
Q 1681 391 2138 391 
Q 2594 391 2855 752 
Q 3116 1113 3116 1747 
z
M 1159 2969 
Q 1341 3281 1617 3432 
Q 1894 3584 2278 3584 
Q 2916 3584 3314 3078 
Q 3713 2572 3713 1747 
Q 3713 922 3314 415 
Q 2916 -91 2278 -91 
Q 1894 -91 1617 61 
Q 1341 213 1159 525 
L 1159 0 
L 581 0 
L 581 4863 
L 1159 4863 
L 1159 2969 
z
" transform="scale(0.015625)"/>
      </defs>
      <use xlink:href="#DejaVuSans-52"/>
      <use xlink:href="#DejaVuSans-6f" x="64.982422"/>
      <use xlink:href="#DejaVuSans-62" x="126.164062"/>
      <use xlink:href="#DejaVuSans-75" x="189.640625"/>
      <use xlink:href="#DejaVuSans-73" x="253.019531"/>
      <use xlink:href="#DejaVuSans-74" x="305.119141"/>
      <use xlink:href="#DejaVuSans-20" x="344.328125"/>
      <use xlink:href="#DejaVuSans-56" x="376.115234"/>
      <use xlink:href="#DejaVuSans-61" x="436.773438"/>
      <use xlink:href="#DejaVuSans-6c" x="498.052734"/>
      <use xlink:href="#DejaVuSans-69" x="525.835938"/>
      <use xlink:href="#DejaVuSans-64" x="553.619141"/>
      <use xlink:href="#DejaVuSans-61" x="617.095703"/>
      <use xlink:href="#DejaVuSans-74" x="678.375"/>
      <use xlink:href="#DejaVuSans-69" x="717.583984"/>
      <use xlink:href="#DejaVuSans-6f" x="745.367188"/>
      <use xlink:href="#DejaVuSans-6e" x="806.548828"/>
      <use xlink:href="#DejaVuSans-20" x="869.927734"/>
      <use xlink:href="#DejaVuSans-41" x="901.714844"/>
      <use xlink:href="#DejaVuSans-63" x="968.373047"/>
      <use xlink:href="#DejaVuSans-63" x="1023.353516"/>
      <use xlink:href="#DejaVuSans-75" x="1078.333984"/>
      <use xlink:href="#DejaVuSans-72" x="1141.712891"/>
      <use xlink:href="#DejaVuSans-61" x="1182.826172"/>
      <use xlink:href="#DejaVuSans-63" x="1244.105469"/>
      <use xlink:href="#DejaVuSans-79" x="1299.085938"/>
     </g>
    </g>
    <g id="line2d_27">
     <path d="M 216.18875 278.326188 
L 226.18875 278.326188 
L 236.18875 278.326188 
" style="fill: none; stroke: #d62728; stroke-width: 1.5; stroke-linecap: square"/>
    </g>
    <g id="text_25">
     <!-- SWA Validation Accuracy -->
     <g transform="translate(244.18875 281.826188) scale(0.1 -0.1)">
      <defs>
       <path id="DejaVuSans-53" d="M 3425 4513 
L 3425 3897 
Q 3066 4069 2747 4153 
Q 2428 4238 2131 4238 
Q 1616 4238 1336 4038 
Q 1056 3838 1056 3469 
Q 1056 3159 1242 3001 
Q 1428 2844 1947 2747 
L 2328 2669 
Q 3034 2534 3370 2195 
Q 3706 1856 3706 1288 
Q 3706 609 3251 259 
Q 2797 -91 1919 -91 
Q 1588 -91 1214 -16 
Q 841 59 441 206 
L 441 856 
Q 825 641 1194 531 
Q 1563 422 1919 422 
Q 2459 422 2753 634 
Q 3047 847 3047 1241 
Q 3047 1584 2836 1778 
Q 2625 1972 2144 2069 
L 1759 2144 
Q 1053 2284 737 2584 
Q 422 2884 422 3419 
Q 422 4038 858 4394 
Q 1294 4750 2059 4750 
Q 2388 4750 2728 4690 
Q 3069 4631 3425 4513 
z
" transform="scale(0.015625)"/>
       <path id="DejaVuSans-57" d="M 213 4666 
L 850 4666 
L 1831 722 
L 2809 4666 
L 3519 4666 
L 4500 722 
L 5478 4666 
L 6119 4666 
L 4947 0 
L 4153 0 
L 3169 4050 
L 2175 0 
L 1381 0 
L 213 4666 
z
" transform="scale(0.015625)"/>
      </defs>
      <use xlink:href="#DejaVuSans-53"/>
      <use xlink:href="#DejaVuSans-57" x="63.476562"/>
      <use xlink:href="#DejaVuSans-41" x="156.853516"/>
      <use xlink:href="#DejaVuSans-20" x="225.261719"/>
      <use xlink:href="#DejaVuSans-56" x="257.048828"/>
      <use xlink:href="#DejaVuSans-61" x="317.707031"/>
      <use xlink:href="#DejaVuSans-6c" x="378.986328"/>
      <use xlink:href="#DejaVuSans-69" x="406.769531"/>
      <use xlink:href="#DejaVuSans-64" x="434.552734"/>
      <use xlink:href="#DejaVuSans-61" x="498.029297"/>
      <use xlink:href="#DejaVuSans-74" x="559.308594"/>
      <use xlink:href="#DejaVuSans-69" x="598.517578"/>
      <use xlink:href="#DejaVuSans-6f" x="626.300781"/>
      <use xlink:href="#DejaVuSans-6e" x="687.482422"/>
      <use xlink:href="#DejaVuSans-20" x="750.861328"/>
      <use xlink:href="#DejaVuSans-41" x="782.648438"/>
      <use xlink:href="#DejaVuSans-63" x="849.306641"/>
      <use xlink:href="#DejaVuSans-63" x="904.287109"/>
      <use xlink:href="#DejaVuSans-75" x="959.267578"/>
      <use xlink:href="#DejaVuSans-72" x="1022.646484"/>
      <use xlink:href="#DejaVuSans-61" x="1063.759766"/>
      <use xlink:href="#DejaVuSans-63" x="1125.039062"/>
      <use xlink:href="#DejaVuSans-79" x="1180.019531"/>
     </g>
    </g>
    <g id="line2d_28">
     <path d="M 216.18875 293.004312 
L 226.18875 293.004312 
L 236.18875 293.004312 
" style="fill: none; stroke: #9467bd; stroke-width: 1.5; stroke-linecap: square"/>
    </g>
    <g id="text_26">
     <!-- SWA Robust Validation Accuracy -->
     <g transform="translate(244.18875 296.504312) scale(0.1 -0.1)">
      <use xlink:href="#DejaVuSans-53"/>
      <use xlink:href="#DejaVuSans-57" x="63.476562"/>
      <use xlink:href="#DejaVuSans-41" x="156.853516"/>
      <use xlink:href="#DejaVuSans-20" x="225.261719"/>
      <use xlink:href="#DejaVuSans-52" x="257.048828"/>
      <use xlink:href="#DejaVuSans-6f" x="322.03125"/>
      <use xlink:href="#DejaVuSans-62" x="383.212891"/>
      <use xlink:href="#DejaVuSans-75" x="446.689453"/>
      <use xlink:href="#DejaVuSans-73" x="510.068359"/>
      <use xlink:href="#DejaVuSans-74" x="562.167969"/>
      <use xlink:href="#DejaVuSans-20" x="601.376953"/>
      <use xlink:href="#DejaVuSans-56" x="633.164062"/>
      <use xlink:href="#DejaVuSans-61" x="693.822266"/>
      <use xlink:href="#DejaVuSans-6c" x="755.101562"/>
      <use xlink:href="#DejaVuSans-69" x="782.884766"/>
      <use xlink:href="#DejaVuSans-64" x="810.667969"/>
      <use xlink:href="#DejaVuSans-61" x="874.144531"/>
      <use xlink:href="#DejaVuSans-74" x="935.423828"/>
      <use xlink:href="#DejaVuSans-69" x="974.632812"/>
      <use xlink:href="#DejaVuSans-6f" x="1002.416016"/>
      <use xlink:href="#DejaVuSans-6e" x="1063.597656"/>
      <use xlink:href="#DejaVuSans-20" x="1126.976562"/>
      <use xlink:href="#DejaVuSans-41" x="1158.763672"/>
      <use xlink:href="#DejaVuSans-63" x="1225.421875"/>
      <use xlink:href="#DejaVuSans-63" x="1280.402344"/>
      <use xlink:href="#DejaVuSans-75" x="1335.382812"/>
      <use xlink:href="#DejaVuSans-72" x="1398.761719"/>
      <use xlink:href="#DejaVuSans-61" x="1439.875"/>
      <use xlink:href="#DejaVuSans-63" x="1501.154297"/>
      <use xlink:href="#DejaVuSans-79" x="1556.134766"/>
     </g>
    </g>
   </g>
  </g>
 </g>
 <defs>
  <clipPath id="pbb03db1d02">
   <rect x="57.6" y="41.472" width="357.12" height="266.112"/>
  </clipPath>
 </defs>
</svg>
