<?xml version="1.0" encoding="utf-8" standalone="no"?>
<!DOCTYPE svg PUBLIC "-//W3C//DTD SVG 1.1//EN"
  "http://www.w3.org/Graphics/SVG/1.1/DTD/svg11.dtd">
<svg xmlns:xlink="http://www.w3.org/1999/xlink" width="460.8pt" height="345.6pt" viewBox="0 0 460.8 345.6" xmlns="http://www.w3.org/2000/svg" version="1.1">
 <metadata>
  <rdf:RDF xmlns:dc="http://purl.org/dc/elements/1.1/" xmlns:cc="http://creativecommons.org/ns#" xmlns:rdf="http://www.w3.org/1999/02/22-rdf-syntax-ns#">
   <cc:Work>
    <dc:type rdf:resource="http://purl.org/dc/dcmitype/StillImage"/>
    <dc:date>2025-03-29T08:28:30.727430</dc:date>
    <dc:format>image/svg+xml</dc:format>
    <dc:creator>
     <cc:Agent>
      <dc:title>Matplotlib v3.9.1, https://matplotlib.org/</dc:title>
     </cc:Agent>
    </dc:creator>
   </cc:Work>
  </rdf:RDF>
 </metadata>
 <defs>
  <style type="text/css">*{stroke-linejoin: round; stroke-linecap: butt}</style>
 </defs>
 <g id="figure_1">
  <g id="patch_1">
   <path d="M 0 345.6 
L 460.8 345.6 
L 460.8 0 
L 0 0 
z
" style="fill: #ffffff"/>
  </g>
  <g id="axes_1">
   <g id="patch_2">
    <path d="M 57.6 307.584 
L 414.72 307.584 
L 414.72 41.472 
L 57.6 41.472 
z
" style="fill: #ffffff"/>
   </g>
   <g id="matplotlib.axis_1">
    <g id="xtick_1">
     <g id="line2d_1">
      <defs>
       <path id="m05d3b6162b" d="M 0 0 
L 0 3.5 
" style="stroke: #000000; stroke-width: 0.8"/>
      </defs>
      <g>
       <use xlink:href="#m05d3b6162b" x="73.832727" y="307.584" style="stroke: #000000; stroke-width: 0.8"/>
      </g>
     </g>
     <g id="text_1">
      <!-- 1 -->
      <g transform="translate(70.651477 322.182437) scale(0.1 -0.1)">
       <defs>
        <path id="DejaVuSans-31" d="M 794 531 
L 1825 531 
L 1825 4091 
L 703 3866 
L 703 4441 
L 1819 4666 
L 2450 4666 
L 2450 531 
L 3481 531 
L 3481 0 
L 794 0 
L 794 531 
z
" transform="scale(0.015625)"/>
       </defs>
       <use xlink:href="#DejaVuSans-31"/>
      </g>
     </g>
    </g>
    <g id="xtick_2">
     <g id="line2d_2">
      <g>
       <use xlink:href="#m05d3b6162b" x="109.664165" y="307.584" style="stroke: #000000; stroke-width: 0.8"/>
      </g>
     </g>
     <g id="text_2">
      <!-- 34 -->
      <g transform="translate(103.301665 322.182437) scale(0.1 -0.1)">
       <defs>
        <path id="DejaVuSans-33" d="M 2597 2516 
Q 3050 2419 3304 2112 
Q 3559 1806 3559 1356 
Q 3559 666 3084 287 
Q 2609 -91 1734 -91 
Q 1441 -91 1130 -33 
Q 819 25 488 141 
L 488 750 
Q 750 597 1062 519 
Q 1375 441 1716 441 
Q 2309 441 2620 675 
Q 2931 909 2931 1356 
Q 2931 1769 2642 2001 
Q 2353 2234 1838 2234 
L 1294 2234 
L 1294 2753 
L 1863 2753 
Q 2328 2753 2575 2939 
Q 2822 3125 2822 3475 
Q 2822 3834 2567 4026 
Q 2313 4219 1838 4219 
Q 1578 4219 1281 4162 
Q 984 4106 628 3988 
L 628 4550 
Q 988 4650 1302 4700 
Q 1616 4750 1894 4750 
Q 2613 4750 3031 4423 
Q 3450 4097 3450 3541 
Q 3450 3153 3228 2886 
Q 3006 2619 2597 2516 
z
" transform="scale(0.015625)"/>
        <path id="DejaVuSans-34" d="M 2419 4116 
L 825 1625 
L 2419 1625 
L 2419 4116 
z
M 2253 4666 
L 3047 4666 
L 3047 1625 
L 3713 1625 
L 3713 1100 
L 3047 1100 
L 3047 0 
L 2419 0 
L 2419 1100 
L 313 1100 
L 313 1709 
L 2253 4666 
z
" transform="scale(0.015625)"/>
       </defs>
       <use xlink:href="#DejaVuSans-33"/>
       <use xlink:href="#DejaVuSans-34" x="63.623047"/>
      </g>
     </g>
    </g>
    <g id="xtick_3">
     <g id="line2d_3">
      <g>
       <use xlink:href="#m05d3b6162b" x="145.495604" y="307.584" style="stroke: #000000; stroke-width: 0.8"/>
      </g>
     </g>
     <g id="text_3">
      <!-- 67 -->
      <g transform="translate(139.133104 322.182437) scale(0.1 -0.1)">
       <defs>
        <path id="DejaVuSans-36" d="M 2113 2584 
Q 1688 2584 1439 2293 
Q 1191 2003 1191 1497 
Q 1191 994 1439 701 
Q 1688 409 2113 409 
Q 2538 409 2786 701 
Q 3034 994 3034 1497 
Q 3034 2003 2786 2293 
Q 2538 2584 2113 2584 
z
M 3366 4563 
L 3366 3988 
Q 3128 4100 2886 4159 
Q 2644 4219 2406 4219 
Q 1781 4219 1451 3797 
Q 1122 3375 1075 2522 
Q 1259 2794 1537 2939 
Q 1816 3084 2150 3084 
Q 2853 3084 3261 2657 
Q 3669 2231 3669 1497 
Q 3669 778 3244 343 
Q 2819 -91 2113 -91 
Q 1303 -91 875 529 
Q 447 1150 447 2328 
Q 447 3434 972 4092 
Q 1497 4750 2381 4750 
Q 2619 4750 2861 4703 
Q 3103 4656 3366 4563 
z
" transform="scale(0.015625)"/>
        <path id="DejaVuSans-37" d="M 525 4666 
L 3525 4666 
L 3525 4397 
L 1831 0 
L 1172 0 
L 2766 4134 
L 525 4134 
L 525 4666 
z
" transform="scale(0.015625)"/>
       </defs>
       <use xlink:href="#DejaVuSans-36"/>
       <use xlink:href="#DejaVuSans-37" x="63.623047"/>
      </g>
     </g>
    </g>
    <g id="xtick_4">
     <g id="line2d_4">
      <g>
       <use xlink:href="#m05d3b6162b" x="181.327042" y="307.584" style="stroke: #000000; stroke-width: 0.8"/>
      </g>
     </g>
     <g id="text_4">
      <!-- 100 -->
      <g transform="translate(171.783292 322.182437) scale(0.1 -0.1)">
       <defs>
        <path id="DejaVuSans-30" d="M 2034 4250 
Q 1547 4250 1301 3770 
Q 1056 3291 1056 2328 
Q 1056 1369 1301 889 
Q 1547 409 2034 409 
Q 2525 409 2770 889 
Q 3016 1369 3016 2328 
Q 3016 3291 2770 3770 
Q 2525 4250 2034 4250 
z
M 2034 4750 
Q 2819 4750 3233 4129 
Q 3647 3509 3647 2328 
Q 3647 1150 3233 529 
Q 2819 -91 2034 -91 
Q 1250 -91 836 529 
Q 422 1150 422 2328 
Q 422 3509 836 4129 
Q 1250 4750 2034 4750 
z
" transform="scale(0.015625)"/>
       </defs>
       <use xlink:href="#DejaVuSans-31"/>
       <use xlink:href="#DejaVuSans-30" x="63.623047"/>
       <use xlink:href="#DejaVuSans-30" x="127.246094"/>
      </g>
     </g>
    </g>
    <g id="xtick_5">
     <g id="line2d_5">
      <g>
       <use xlink:href="#m05d3b6162b" x="217.15848" y="307.584" style="stroke: #000000; stroke-width: 0.8"/>
      </g>
     </g>
     <g id="text_5">
      <!-- 133 -->
      <g transform="translate(207.61473 322.182437) scale(0.1 -0.1)">
       <use xlink:href="#DejaVuSans-31"/>
       <use xlink:href="#DejaVuSans-33" x="63.623047"/>
       <use xlink:href="#DejaVuSans-33" x="127.246094"/>
      </g>
     </g>
    </g>
    <g id="xtick_6">
     <g id="line2d_6">
      <g>
       <use xlink:href="#m05d3b6162b" x="254.075719" y="307.584" style="stroke: #000000; stroke-width: 0.8"/>
      </g>
     </g>
     <g id="text_6">
      <!-- 167 -->
      <g transform="translate(244.531969 322.182437) scale(0.1 -0.1)">
       <use xlink:href="#DejaVuSans-31"/>
       <use xlink:href="#DejaVuSans-36" x="63.623047"/>
       <use xlink:href="#DejaVuSans-37" x="127.246094"/>
      </g>
     </g>
    </g>
    <g id="xtick_7">
     <g id="line2d_7">
      <g>
       <use xlink:href="#m05d3b6162b" x="289.907157" y="307.584" style="stroke: #000000; stroke-width: 0.8"/>
      </g>
     </g>
     <g id="text_7">
      <!-- 200 -->
      <g transform="translate(280.363407 322.182437) scale(0.1 -0.1)">
       <defs>
        <path id="DejaVuSans-32" d="M 1228 531 
L 3431 531 
L 3431 0 
L 469 0 
L 469 531 
Q 828 903 1448 1529 
Q 2069 2156 2228 2338 
Q 2531 2678 2651 2914 
Q 2772 3150 2772 3378 
Q 2772 3750 2511 3984 
Q 2250 4219 1831 4219 
Q 1534 4219 1204 4116 
Q 875 4013 500 3803 
L 500 4441 
Q 881 4594 1212 4672 
Q 1544 4750 1819 4750 
Q 2544 4750 2975 4387 
Q 3406 4025 3406 3419 
Q 3406 3131 3298 2873 
Q 3191 2616 2906 2266 
Q 2828 2175 2409 1742 
Q 1991 1309 1228 531 
z
" transform="scale(0.015625)"/>
       </defs>
       <use xlink:href="#DejaVuSans-32"/>
       <use xlink:href="#DejaVuSans-30" x="63.623047"/>
       <use xlink:href="#DejaVuSans-30" x="127.246094"/>
      </g>
     </g>
    </g>
    <g id="xtick_8">
     <g id="line2d_8">
      <g>
       <use xlink:href="#m05d3b6162b" x="325.738595" y="307.584" style="stroke: #000000; stroke-width: 0.8"/>
      </g>
     </g>
     <g id="text_8">
      <!-- 233 -->
      <g transform="translate(316.194845 322.182437) scale(0.1 -0.1)">
       <use xlink:href="#DejaVuSans-32"/>
       <use xlink:href="#DejaVuSans-33" x="63.623047"/>
       <use xlink:href="#DejaVuSans-33" x="127.246094"/>
      </g>
     </g>
    </g>
    <g id="xtick_9">
     <g id="line2d_9">
      <g>
       <use xlink:href="#m05d3b6162b" x="361.570033" y="307.584" style="stroke: #000000; stroke-width: 0.8"/>
      </g>
     </g>
     <g id="text_9">
      <!-- 266 -->
      <g transform="translate(352.026283 322.182437) scale(0.1 -0.1)">
       <use xlink:href="#DejaVuSans-32"/>
       <use xlink:href="#DejaVuSans-36" x="63.623047"/>
       <use xlink:href="#DejaVuSans-36" x="127.246094"/>
      </g>
     </g>
    </g>
    <g id="xtick_10">
     <g id="line2d_10">
      <g>
       <use xlink:href="#m05d3b6162b" x="398.487273" y="307.584" style="stroke: #000000; stroke-width: 0.8"/>
      </g>
     </g>
     <g id="text_10">
      <!-- 300 -->
      <g transform="translate(388.943523 322.182437) scale(0.1 -0.1)">
       <use xlink:href="#DejaVuSans-33"/>
       <use xlink:href="#DejaVuSans-30" x="63.623047"/>
       <use xlink:href="#DejaVuSans-30" x="127.246094"/>
      </g>
     </g>
    </g>
    <g id="text_11">
     <!-- Epochs -->
     <g transform="translate(218.244375 335.860562) scale(0.1 -0.1)">
      <defs>
       <path id="DejaVuSans-45" d="M 628 4666 
L 3578 4666 
L 3578 4134 
L 1259 4134 
L 1259 2753 
L 3481 2753 
L 3481 2222 
L 1259 2222 
L 1259 531 
L 3634 531 
L 3634 0 
L 628 0 
L 628 4666 
z
" transform="scale(0.015625)"/>
       <path id="DejaVuSans-70" d="M 1159 525 
L 1159 -1331 
L 581 -1331 
L 581 3500 
L 1159 3500 
L 1159 2969 
Q 1341 3281 1617 3432 
Q 1894 3584 2278 3584 
Q 2916 3584 3314 3078 
Q 3713 2572 3713 1747 
Q 3713 922 3314 415 
Q 2916 -91 2278 -91 
Q 1894 -91 1617 61 
Q 1341 213 1159 525 
z
M 3116 1747 
Q 3116 2381 2855 2742 
Q 2594 3103 2138 3103 
Q 1681 3103 1420 2742 
Q 1159 2381 1159 1747 
Q 1159 1113 1420 752 
Q 1681 391 2138 391 
Q 2594 391 2855 752 
Q 3116 1113 3116 1747 
z
" transform="scale(0.015625)"/>
       <path id="DejaVuSans-6f" d="M 1959 3097 
Q 1497 3097 1228 2736 
Q 959 2375 959 1747 
Q 959 1119 1226 758 
Q 1494 397 1959 397 
Q 2419 397 2687 759 
Q 2956 1122 2956 1747 
Q 2956 2369 2687 2733 
Q 2419 3097 1959 3097 
z
M 1959 3584 
Q 2709 3584 3137 3096 
Q 3566 2609 3566 1747 
Q 3566 888 3137 398 
Q 2709 -91 1959 -91 
Q 1206 -91 779 398 
Q 353 888 353 1747 
Q 353 2609 779 3096 
Q 1206 3584 1959 3584 
z
" transform="scale(0.015625)"/>
       <path id="DejaVuSans-63" d="M 3122 3366 
L 3122 2828 
Q 2878 2963 2633 3030 
Q 2388 3097 2138 3097 
Q 1578 3097 1268 2742 
Q 959 2388 959 1747 
Q 959 1106 1268 751 
Q 1578 397 2138 397 
Q 2388 397 2633 464 
Q 2878 531 3122 666 
L 3122 134 
Q 2881 22 2623 -34 
Q 2366 -91 2075 -91 
Q 1284 -91 818 406 
Q 353 903 353 1747 
Q 353 2603 823 3093 
Q 1294 3584 2113 3584 
Q 2378 3584 2631 3529 
Q 2884 3475 3122 3366 
z
" transform="scale(0.015625)"/>
       <path id="DejaVuSans-68" d="M 3513 2113 
L 3513 0 
L 2938 0 
L 2938 2094 
Q 2938 2591 2744 2837 
Q 2550 3084 2163 3084 
Q 1697 3084 1428 2787 
Q 1159 2491 1159 1978 
L 1159 0 
L 581 0 
L 581 4863 
L 1159 4863 
L 1159 2956 
Q 1366 3272 1645 3428 
Q 1925 3584 2291 3584 
Q 2894 3584 3203 3211 
Q 3513 2838 3513 2113 
z
" transform="scale(0.015625)"/>
       <path id="DejaVuSans-73" d="M 2834 3397 
L 2834 2853 
Q 2591 2978 2328 3040 
Q 2066 3103 1784 3103 
Q 1356 3103 1142 2972 
Q 928 2841 928 2578 
Q 928 2378 1081 2264 
Q 1234 2150 1697 2047 
L 1894 2003 
Q 2506 1872 2764 1633 
Q 3022 1394 3022 966 
Q 3022 478 2636 193 
Q 2250 -91 1575 -91 
Q 1294 -91 989 -36 
Q 684 19 347 128 
L 347 722 
Q 666 556 975 473 
Q 1284 391 1588 391 
Q 1994 391 2212 530 
Q 2431 669 2431 922 
Q 2431 1156 2273 1281 
Q 2116 1406 1581 1522 
L 1381 1569 
Q 847 1681 609 1914 
Q 372 2147 372 2553 
Q 372 3047 722 3315 
Q 1072 3584 1716 3584 
Q 2034 3584 2315 3537 
Q 2597 3491 2834 3397 
z
" transform="scale(0.015625)"/>
      </defs>
      <use xlink:href="#DejaVuSans-45"/>
      <use xlink:href="#DejaVuSans-70" x="63.183594"/>
      <use xlink:href="#DejaVuSans-6f" x="126.660156"/>
      <use xlink:href="#DejaVuSans-63" x="187.841797"/>
      <use xlink:href="#DejaVuSans-68" x="242.822266"/>
      <use xlink:href="#DejaVuSans-73" x="306.201172"/>
     </g>
    </g>
   </g>
   <g id="matplotlib.axis_2">
    <g id="ytick_1">
     <g id="line2d_11">
      <defs>
       <path id="m16cab32b20" d="M 0 0 
L -3.5 0 
" style="stroke: #000000; stroke-width: 0.8"/>
      </defs>
      <g>
       <use xlink:href="#m16cab32b20" x="57.6" y="260.915533" style="stroke: #000000; stroke-width: 0.8"/>
      </g>
     </g>
     <g id="text_12">
      <!-- 20 -->
      <g transform="translate(37.875 264.714752) scale(0.1 -0.1)">
       <use xlink:href="#DejaVuSans-32"/>
       <use xlink:href="#DejaVuSans-30" x="63.623047"/>
      </g>
     </g>
    </g>
    <g id="ytick_2">
     <g id="line2d_12">
      <g>
       <use xlink:href="#m16cab32b20" x="57.6" y="202.737213" style="stroke: #000000; stroke-width: 0.8"/>
      </g>
     </g>
     <g id="text_13">
      <!-- 40 -->
      <g transform="translate(37.875 206.536432) scale(0.1 -0.1)">
       <use xlink:href="#DejaVuSans-34"/>
       <use xlink:href="#DejaVuSans-30" x="63.623047"/>
      </g>
     </g>
    </g>
    <g id="ytick_3">
     <g id="line2d_13">
      <g>
       <use xlink:href="#m16cab32b20" x="57.6" y="144.558893" style="stroke: #000000; stroke-width: 0.8"/>
      </g>
     </g>
     <g id="text_14">
      <!-- 60 -->
      <g transform="translate(37.875 148.358112) scale(0.1 -0.1)">
       <use xlink:href="#DejaVuSans-36"/>
       <use xlink:href="#DejaVuSans-30" x="63.623047"/>
      </g>
     </g>
    </g>
    <g id="ytick_4">
     <g id="line2d_14">
      <g>
       <use xlink:href="#m16cab32b20" x="57.6" y="86.380573" style="stroke: #000000; stroke-width: 0.8"/>
      </g>
     </g>
     <g id="text_15">
      <!-- 80 -->
      <g transform="translate(37.875 90.179791) scale(0.1 -0.1)">
       <defs>
        <path id="DejaVuSans-38" d="M 2034 2216 
Q 1584 2216 1326 1975 
Q 1069 1734 1069 1313 
Q 1069 891 1326 650 
Q 1584 409 2034 409 
Q 2484 409 2743 651 
Q 3003 894 3003 1313 
Q 3003 1734 2745 1975 
Q 2488 2216 2034 2216 
z
M 1403 2484 
Q 997 2584 770 2862 
Q 544 3141 544 3541 
Q 544 4100 942 4425 
Q 1341 4750 2034 4750 
Q 2731 4750 3128 4425 
Q 3525 4100 3525 3541 
Q 3525 3141 3298 2862 
Q 3072 2584 2669 2484 
Q 3125 2378 3379 2068 
Q 3634 1759 3634 1313 
Q 3634 634 3220 271 
Q 2806 -91 2034 -91 
Q 1263 -91 848 271 
Q 434 634 434 1313 
Q 434 1759 690 2068 
Q 947 2378 1403 2484 
z
M 1172 3481 
Q 1172 3119 1398 2916 
Q 1625 2713 2034 2713 
Q 2441 2713 2670 2916 
Q 2900 3119 2900 3481 
Q 2900 3844 2670 4047 
Q 2441 4250 2034 4250 
Q 1625 4250 1398 4047 
Q 1172 3844 1172 3481 
z
" transform="scale(0.015625)"/>
       </defs>
       <use xlink:href="#DejaVuSans-38"/>
       <use xlink:href="#DejaVuSans-30" x="63.623047"/>
      </g>
     </g>
    </g>
    <g id="text_16">
     <!-- Accuracy -->
     <g transform="translate(31.795312 197.356125) rotate(-90) scale(0.1 -0.1)">
      <defs>
       <path id="DejaVuSans-41" d="M 2188 4044 
L 1331 1722 
L 3047 1722 
L 2188 4044 
z
M 1831 4666 
L 2547 4666 
L 4325 0 
L 3669 0 
L 3244 1197 
L 1141 1197 
L 716 0 
L 50 0 
L 1831 4666 
z
" transform="scale(0.015625)"/>
       <path id="DejaVuSans-75" d="M 544 1381 
L 544 3500 
L 1119 3500 
L 1119 1403 
Q 1119 906 1312 657 
Q 1506 409 1894 409 
Q 2359 409 2629 706 
Q 2900 1003 2900 1516 
L 2900 3500 
L 3475 3500 
L 3475 0 
L 2900 0 
L 2900 538 
Q 2691 219 2414 64 
Q 2138 -91 1772 -91 
Q 1169 -91 856 284 
Q 544 659 544 1381 
z
M 1991 3584 
L 1991 3584 
z
" transform="scale(0.015625)"/>
       <path id="DejaVuSans-72" d="M 2631 2963 
Q 2534 3019 2420 3045 
Q 2306 3072 2169 3072 
Q 1681 3072 1420 2755 
Q 1159 2438 1159 1844 
L 1159 0 
L 581 0 
L 581 3500 
L 1159 3500 
L 1159 2956 
Q 1341 3275 1631 3429 
Q 1922 3584 2338 3584 
Q 2397 3584 2469 3576 
Q 2541 3569 2628 3553 
L 2631 2963 
z
" transform="scale(0.015625)"/>
       <path id="DejaVuSans-61" d="M 2194 1759 
Q 1497 1759 1228 1600 
Q 959 1441 959 1056 
Q 959 750 1161 570 
Q 1363 391 1709 391 
Q 2188 391 2477 730 
Q 2766 1069 2766 1631 
L 2766 1759 
L 2194 1759 
z
M 3341 1997 
L 3341 0 
L 2766 0 
L 2766 531 
Q 2569 213 2275 61 
Q 1981 -91 1556 -91 
Q 1019 -91 701 211 
Q 384 513 384 1019 
Q 384 1609 779 1909 
Q 1175 2209 1959 2209 
L 2766 2209 
L 2766 2266 
Q 2766 2663 2505 2880 
Q 2244 3097 1772 3097 
Q 1472 3097 1187 3025 
Q 903 2953 641 2809 
L 641 3341 
Q 956 3463 1253 3523 
Q 1550 3584 1831 3584 
Q 2591 3584 2966 3190 
Q 3341 2797 3341 1997 
z
" transform="scale(0.015625)"/>
       <path id="DejaVuSans-79" d="M 2059 -325 
Q 1816 -950 1584 -1140 
Q 1353 -1331 966 -1331 
L 506 -1331 
L 506 -850 
L 844 -850 
Q 1081 -850 1212 -737 
Q 1344 -625 1503 -206 
L 1606 56 
L 191 3500 
L 800 3500 
L 1894 763 
L 2988 3500 
L 3597 3500 
L 2059 -325 
z
" transform="scale(0.015625)"/>
      </defs>
      <use xlink:href="#DejaVuSans-41"/>
      <use xlink:href="#DejaVuSans-63" x="66.658203"/>
      <use xlink:href="#DejaVuSans-63" x="121.638672"/>
      <use xlink:href="#DejaVuSans-75" x="176.619141"/>
      <use xlink:href="#DejaVuSans-72" x="239.998047"/>
      <use xlink:href="#DejaVuSans-61" x="281.111328"/>
      <use xlink:href="#DejaVuSans-63" x="342.390625"/>
      <use xlink:href="#DejaVuSans-79" x="397.371094"/>
     </g>
    </g>
   </g>
   <g id="line2d_15">
    <path d="M 73.832727 295.488 
L 74.918528 264.326237 
L 76.00433 228.89564 
L 77.090131 198.461106 
L 78.175932 178.84774 
L 79.261733 163.554114 
L 80.347534 151.445751 
L 82.519137 133.948622 
L 83.604938 129.461619 
L 84.690739 121.309382 
L 85.77654 118.073213 
L 87.948142 109.382826 
L 89.033943 104.328584 
L 90.119745 102.830493 
L 91.205546 100.139745 
L 92.291347 97.063567 
L 93.377148 95.449118 
L 94.462949 95.449118 
L 95.54875 121.571184 
L 96.634552 120.778504 
L 97.720353 117.476885 
L 98.806154 114.887949 
L 99.891955 113.469853 
L 100.977756 110.357313 
L 102.063557 108.713775 
L 103.149358 106.110295 
L 104.23516 102.874126 
L 105.320961 102.66323 
L 106.406762 99.754314 
L 107.492563 99.601596 
L 108.578364 96.5036 
L 109.664165 97.019933 
L 110.749967 94.474631 
L 112.921569 90.642135 
L 114.00737 87.304153 
L 115.093171 87.878664 
L 116.178972 85.813334 
L 118.350575 83.304394 
L 119.436376 82.955324 
L 120.522177 80.155492 
L 121.607978 79.181005 
L 122.693779 77.951988 
L 124.865382 76.293906 
L 125.951183 75.792118 
L 127.036984 72.905019 
L 128.122785 72.592311 
L 129.208586 71.145125 
L 130.294387 70.345173 
L 131.380189 69.719756 
L 132.46599 71.210576 
L 133.551791 68.199848 
L 134.637592 69.959742 
L 135.723393 69.879747 
L 136.809194 68.65073 
L 137.894995 67.967134 
L 138.980797 89.682192 
L 140.066598 94.409181 
L 141.152399 92.242038 
L 142.2382 89.376756 
L 143.324001 91.42027 
L 144.409802 89.791277 
L 145.495604 91.020294 
L 146.581405 87.907754 
L 147.667206 89.965812 
L 149.838808 86.02423 
L 150.924609 87.245975 
L 152.01041 86.853271 
L 153.096212 85.616982 
L 154.182013 85.238823 
L 156.353615 84.082529 
L 157.439416 81.966293 
L 158.525217 83.209854 
L 159.611019 80.75182 
L 160.69682 82.257184 
L 162.868422 81.580861 
L 165.040024 79.471897 
L 166.125825 78.701034 
L 167.211627 79.03556 
L 169.383229 77.115675 
L 170.46903 77.690186 
L 171.554831 76.722971 
L 172.640632 76.017559 
L 173.726434 75.632128 
L 174.812235 74.301299 
L 175.898036 74.424928 
L 176.983837 74.301299 
L 178.069638 73.98859 
L 179.155439 72.11234 
L 180.24124 71.865082 
L 181.327042 70.468802 
L 182.412843 70.359718 
L 183.498644 70.890595 
L 184.584445 69.6034 
L 185.670246 69.232513 
L 186.756047 70.265178 
L 187.841849 68.454378 
L 188.92765 68.01804 
L 190.013451 68.250754 
L 191.099252 67.138093 
L 192.185053 66.309052 
L 193.270854 66.279963 
L 194.356656 65.050946 
L 195.442457 65.240025 
L 196.528258 64.098276 
L 197.614059 64.447346 
L 198.69986 63.581943 
L 199.785661 63.196512 
L 200.871462 62.462011 
L 203.043065 62.592912 
L 204.128866 60.978464 
L 205.214667 61.567519 
L 206.300468 61.065731 
L 207.386269 61.894772 
L 208.472071 59.604001 
L 209.557872 59.414921 
L 210.643673 59.974888 
L 211.729474 59.080396 
L 212.815275 58.607697 
L 213.901076 58.927678 
L 214.986877 58.542246 
L 216.072679 58.811321 
L 217.15848 58.229538 
L 218.244281 57.916829 
L 219.330082 58.091364 
L 220.415883 58.49134 
L 221.501684 57.429586 
L 222.587486 57.618666 
L 223.673287 57.138694 
L 224.759088 57.480492 
L 225.844889 76.097555 
L 226.93069 79.740972 
L 228.016491 80.002774 
L 229.102292 80.977261 
L 230.188094 81.28997 
L 231.273895 80.010047 
L 232.359696 80.235488 
L 233.445497 80.162765 
L 234.531298 80.453656 
L 235.617099 79.333724 
L 237.788702 79.631887 
L 238.874503 78.904658 
L 239.960304 79.275545 
L 242.131906 77.944716 
L 243.217708 79.762789 
L 244.303509 77.755637 
L 245.38931 77.210215 
L 246.475111 76.817511 
L 247.560912 78.221063 
L 248.646713 76.722971 
L 250.818316 76.606615 
L 251.904117 76.264817 
L 252.989918 75.690306 
L 254.075719 77.028408 
L 255.16152 74.730364 
L 256.247321 75.137612 
L 257.333123 75.203063 
L 258.418924 75.581222 
L 259.504725 75.253969 
L 260.590526 74.228576 
L 261.676327 74.846721 
L 262.762128 74.039496 
L 263.847929 73.915867 
L 264.933731 73.06501 
L 266.019532 73.072282 
L 267.105333 73.799511 
L 268.191134 73.188638 
L 269.276935 73.399535 
L 270.362736 72.963197 
L 271.448538 71.13058 
L 272.534339 71.370566 
L 273.62014 72.817752 
L 274.705941 71.443289 
L 275.791742 71.726908 
L 276.877543 72.425048 
L 277.963344 70.825144 
L 279.049146 72.286875 
L 280.134947 70.585159 
L 281.220748 70.388807 
L 283.39235 69.174334 
L 284.478151 69.937925 
L 285.563953 69.457954 
L 286.649754 70.345173 
L 287.735555 69.036161 
L 288.821356 70.11246 
L 289.907157 68.876171 
L 290.992958 69.014344 
L 292.07876 68.614368 
L 293.164561 69.559766 
L 294.250362 67.479891 
L 295.336163 67.974407 
L 296.421964 68.294387 
L 297.507765 67.632609 
L 298.593566 67.167182 
L 299.679368 66.425409 
L 300.765169 68.308932 
L 301.85097 67.036281 
L 302.936771 67.574431 
L 304.022572 65.785447 
L 305.108373 66.018161 
L 306.194175 65.938165 
L 307.279976 64.352806 
L 308.365777 65.741814 
L 309.451578 64.600064 
L 310.537379 65.240025 
L 311.62318 65.501828 
L 312.708981 64.636425 
L 313.794783 63.923741 
L 314.880584 62.949254 
L 315.966385 64.061915 
L 317.052186 62.55655 
L 318.137987 63.305596 
L 319.223788 63.85829 
L 320.30959 62.716541 
L 323.566993 62.418377 
L 324.652794 61.909317 
L 326.824396 61.894772 
L 327.910198 60.353047 
L 328.995999 61.182088 
L 330.0818 60.083972 
L 331.167601 61.058459 
L 332.253402 60.825745 
L 333.339203 60.025794 
L 334.425005 61.727509 
L 335.510806 59.640362 
L 336.596607 60.113061 
L 337.682408 58.898589 
L 338.768209 59.371287 
L 339.85401 58.33135 
L 340.939811 59.989432 
L 343.111414 57.349591 
L 344.197215 57.945919 
L 345.283016 56.745991 
L 346.368817 57.916829 
L 347.454618 56.571456 
L 348.54042 56.847803 
L 349.626221 57.262323 
L 350.712022 56.607817 
L 351.797823 55.626058 
L 353.969425 56.324198 
L 355.055227 55.640603 
L 356.141028 56.404193 
L 357.226829 55.255171 
L 358.31263 55.080636 
L 359.398431 55.298805 
L 360.484232 53.568 
L 361.570033 54.273412 
L 362.655835 54.564304 
L 363.741636 53.975248 
L 365.913238 53.597089 
L 366.999039 54.375224 
L 368.08484 53.91707 
L 369.170642 54.397041 
L 370.256443 55.160632 
L 371.342244 55.087909 
L 372.428045 56.200569 
L 373.513846 55.676964 
L 374.599647 57.63321 
L 375.685448 56.549639 
L 376.77125 56.825986 
L 377.857051 55.858771 
L 378.942852 56.506005 
L 380.028653 56.651451 
L 381.114454 56.273292 
L 382.200255 56.964159 
L 383.286057 56.636906 
L 384.371858 55.793321 
L 385.457659 56.113302 
L 386.54346 56.018762 
L 387.629261 55.538791 
L 388.715062 56.956887 
L 389.800863 55.364256 
L 391.972466 57.240506 
L 393.058267 57.065972 
L 394.144068 57.022338 
L 395.229869 56.491461 
L 396.31567 56.644179 
L 397.401472 57.167784 
L 398.487273 56.316926 
L 398.487273 56.316926 
" clip-path="url(#p0e5ca51e5b)" style="fill: none; stroke: #1f77b4; stroke-width: 1.5; stroke-linecap: square"/>
   </g>
   <g id="line2d_16">
    <path d="M 73.832727 286.688529 
L 74.918528 256.639427 
L 76.00433 245.847348 
L 77.090131 229.17926 
L 78.175932 209.922236 
L 79.261733 199.595584 
L 81.433335 181.851196 
L 82.519137 174.637084 
L 83.604938 171.088207 
L 84.690739 166.8121 
L 85.77654 157.678104 
L 86.862341 152.936571 
L 89.033943 148.224127 
L 90.119745 144.878874 
L 91.205546 144.733428 
L 92.291347 144.384358 
L 93.377148 143.104435 
L 94.462949 142.988078 
L 95.54875 169.022876 
L 96.634552 168.964698 
L 97.720353 156.805429 
L 98.806154 158.259887 
L 99.891955 160.23795 
L 100.977756 155.990933 
L 102.063557 161.605141 
L 103.149358 149.271337 
L 104.23516 150.027655 
L 105.320961 145.257033 
L 106.406762 144.966141 
L 107.492563 141.446353 
L 108.578364 143.97711 
L 109.664165 141.242729 
L 110.749967 139.497379 
L 111.835768 137.432049 
L 114.00737 131.236057 
L 115.093171 130.683363 
L 116.178972 130.712453 
L 117.264773 130.857898 
L 119.436376 123.789232 
L 120.522177 123.8765 
L 121.607978 120.734871 
L 122.693779 119.687661 
L 123.77958 119.396769 
L 124.865382 119.804018 
L 125.951183 115.935159 
L 127.036984 116.778745 
L 128.122785 116.196962 
L 129.208586 116.749656 
L 130.294387 112.589906 
L 131.380189 112.182658 
L 132.46599 112.153568 
L 133.551791 113.229867 
L 134.637592 112.502638 
L 135.723393 111.600874 
L 136.809194 111.717231 
L 137.894995 112.037212 
L 138.980797 136.792087 
L 140.066598 138.188367 
L 141.152399 134.086795 
L 142.2382 134.435865 
L 143.324001 134.232241 
L 144.409802 134.930381 
L 145.495604 132.835961 
L 146.581405 131.468771 
L 147.667206 132.225089 
L 148.753007 130.857898 
L 149.838808 137.315692 
L 150.924609 125.94183 
L 152.01041 130.945166 
L 153.096212 128.181696 
L 154.182013 130.014313 
L 155.267814 129.257995 
L 156.353615 127.192664 
L 157.439416 129.08346 
L 158.525217 129.694332 
L 159.611019 124.196481 
L 160.69682 122.567488 
L 161.782621 126.581792 
L 162.868422 125.825474 
L 163.954223 126.203633 
L 165.040024 121.287565 
L 166.125825 121.4621 
L 167.211627 121.520278 
L 168.297428 119.01861 
L 169.383229 120.443979 
L 170.46903 122.363864 
L 171.554831 118.029579 
L 172.640632 119.571304 
L 173.726434 117.622331 
L 174.812235 118.844075 
L 176.983837 115.964248 
L 178.069638 113.317135 
L 179.155439 114.655236 
L 180.24124 113.229867 
L 181.327042 112.589906 
L 182.412843 111.804499 
L 184.584445 111.629964 
L 185.670246 109.768257 
L 186.756047 108.924672 
L 187.841849 110.670021 
L 188.92765 107.441125 
L 190.013451 109.535544 
L 191.099252 107.295679 
L 192.185053 106.772074 
L 193.270854 107.993819 
L 194.356656 104.881278 
L 195.442457 105.579418 
L 196.528258 103.630445 
L 197.614059 106.277558 
L 198.69986 103.135929 
L 199.785661 102.932305 
L 200.871462 101.681471 
L 201.957264 102.786859 
L 203.043065 101.565114 
L 204.128866 101.36149 
L 205.214667 99.848854 
L 206.300468 99.9943 
L 207.386269 100.517904 
L 208.472071 98.103504 
L 209.557872 98.656198 
L 211.729474 98.103504 
L 212.815275 99.354338 
L 213.901076 98.045326 
L 214.986877 98.045326 
L 216.072679 97.20174 
L 217.15848 97.347186 
L 218.244281 97.608988 
L 219.330082 97.434453 
L 220.415883 97.114473 
L 223.673287 96.969027 
L 224.759088 97.172651 
L 225.844889 123.294717 
L 226.93069 123.498341 
L 228.016491 122.014794 
L 229.102292 125.214601 
L 230.188094 122.48022 
L 231.273895 122.043883 
L 232.359696 120.996673 
L 233.445497 124.138302 
L 234.531298 120.153087 
L 235.617099 123.091093 
L 236.702901 120.06582 
L 237.788702 123.265628 
L 238.874503 122.567488 
L 239.960304 118.495005 
L 241.046105 119.833107 
L 242.131906 123.614698 
L 243.217708 124.458283 
L 244.303509 121.985705 
L 245.38931 120.589425 
L 246.475111 117.767776 
L 247.560912 120.473068 
L 248.646713 117.593241 
L 249.732514 119.745839 
L 250.818316 119.862196 
L 251.904117 115.469733 
L 252.989918 120.269444 
L 254.075719 119.745839 
L 255.16152 120.327622 
L 256.247321 117.447796 
L 257.333123 118.495005 
L 258.418924 113.578937 
L 259.504725 117.040547 
L 260.590526 118.756808 
L 261.676327 115.498822 
L 262.762128 113.869829 
L 263.847929 115.353376 
L 264.933731 114.16072 
L 266.019532 114.044364 
L 267.105333 114.480701 
L 268.191134 116.022427 
L 269.276935 113.869829 
L 270.362736 121.316654 
L 271.448538 115.964248 
L 272.534339 113.1426 
L 273.62014 112.735352 
L 274.705941 112.968065 
L 275.791742 111.571785 
L 276.877543 116.022427 
L 277.963344 113.898918 
L 279.049146 113.608026 
L 280.134947 111.07727 
L 281.220748 112.037212 
L 282.306549 118.00049 
L 283.39235 113.1426 
L 284.478151 113.869829 
L 285.563953 110.204595 
L 286.649754 111.74632 
L 287.735555 110.000971 
L 288.821356 110.088238 
L 289.907157 112.357193 
L 290.992958 107.993819 
L 292.07876 109.768257 
L 293.164561 110.69911 
L 294.250362 108.255621 
L 295.336163 109.739168 
L 296.421964 110.844556 
L 297.507765 106.161201 
L 298.593566 111.717231 
L 299.679368 110.553665 
L 300.765169 111.513607 
L 301.85097 105.928488 
L 302.936771 110.262773 
L 304.022572 108.546513 
L 305.108373 104.386763 
L 306.194175 108.226532 
L 307.279976 106.103023 
L 309.451578 105.201259 
L 310.537379 105.783042 
L 311.62318 105.17217 
L 312.708981 103.921336 
L 313.794783 105.783042 
L 314.880584 102.961394 
L 315.966385 103.543177 
L 317.052186 103.804979 
L 318.137987 103.77589 
L 319.223788 103.165018 
L 320.30959 105.288527 
L 321.395391 100.372459 
L 322.481192 99.819765 
L 323.566993 100.954242 
L 324.652794 100.925153 
L 325.738595 101.594203 
L 326.824396 100.517904 
L 327.910198 100.401548 
L 328.995999 99.237981 
L 330.0818 99.96521 
L 331.167601 99.703408 
L 332.253402 101.332401 
L 333.339203 100.837885 
L 334.425005 99.761586 
L 335.510806 100.517904 
L 336.596607 98.801644 
L 337.682408 98.888911 
L 338.768209 96.416333 
L 339.85401 97.55081 
L 340.939811 98.016237 
L 342.025613 94.554627 
L 343.111414 95.718193 
L 344.197215 95.863639 
L 345.283016 96.85267 
L 346.368817 96.096352 
L 347.454618 94.758251 
L 348.54042 94.874607 
L 349.626221 93.914665 
L 350.712022 93.216525 
L 351.797823 94.0892 
L 352.883624 93.798308 
L 353.969425 94.496448 
L 355.055227 93.39106 
L 356.141028 93.681952 
L 357.226829 93.623773 
L 358.31263 92.634742 
L 359.398431 92.256583 
L 360.484232 93.449239 
L 361.570033 91.442086 
L 362.655835 91.849335 
L 363.741636 92.605653 
L 364.827437 92.34385 
L 365.913238 90.249431 
L 366.999039 90.249431 
L 369.170642 91.732978 
L 370.256443 91.936602 
L 371.342244 93.158347 
L 372.428045 94.031022 
L 373.513846 95.456391 
L 374.599647 93.565595 
L 375.685448 96.474511 
L 376.77125 94.0892 
L 377.857051 94.321913 
L 378.942852 95.13641 
L 380.028653 96.823581 
L 381.114454 93.420149 
L 382.200255 94.700072 
L 383.286057 94.321913 
L 384.371858 94.816429 
L 385.457659 94.903697 
L 386.54346 94.380092 
L 387.629261 94.234646 
L 388.715062 93.914665 
L 389.800863 95.369123 
L 390.886665 94.903697 
L 391.972466 94.729162 
L 393.058267 96.619957 
L 394.144068 94.990964 
L 395.229869 94.583716 
L 396.31567 95.223677 
L 397.401472 95.543658 
L 398.487273 95.020053 
L 398.487273 95.020053 
" clip-path="url(#p0e5ca51e5b)" style="fill: none; stroke: #ff7f0e; stroke-width: 1.5; stroke-linecap: square"/>
   </g>
   <g id="line2d_17">
    <path d="M 73.832727 291.910535 
L 74.918528 267.836747 
L 77.090131 246.170338 
L 78.175932 237.142668 
L 79.261733 225.406696 
L 80.347534 221.093476 
L 81.433335 215.375952 
L 82.519137 201.633831 
L 83.604938 198.423993 
L 84.690739 201.433216 
L 85.77654 191.603086 
L 86.862341 187.791403 
L 87.948142 187.791403 
L 89.033943 185.985869 
L 90.119745 181.070804 
L 91.205546 181.572341 
L 92.291347 180.06773 
L 93.377148 181.772956 
L 94.462949 179.164963 
L 95.54875 207.351356 
L 97.720353 192.004316 
L 98.806154 190.700319 
L 99.891955 196.718766 
L 100.977756 191.803701 
L 102.063557 197.922455 
L 103.149358 188.593863 
L 104.23516 189.998167 
L 105.320961 184.78218 
L 106.406762 182.575416 
L 107.492563 181.772956 
L 108.578364 185.183409 
L 109.664165 184.882487 
L 110.749967 179.766807 
L 111.835768 175.453587 
L 112.921569 176.055432 
L 114.00737 172.344056 
L 115.093171 169.234525 
L 116.178972 174.249898 
L 117.264773 174.14959 
L 118.350575 170.939752 
L 119.436376 164.018538 
L 120.522177 161.410544 
L 121.607978 163.517001 
L 122.693779 163.015463 
L 123.77958 158.301013 
L 124.865382 160.106547 
L 125.951183 157.799476 
L 127.036984 160.00624 
L 128.122785 158.802551 
L 129.208586 160.00624 
L 130.294387 158.100398 
L 131.380189 155.392097 
L 132.46599 154.288715 
L 133.551791 154.89056 
L 134.637592 155.091175 
L 135.723393 152.081951 
L 136.809194 153.787178 
L 137.894995 153.486256 
L 138.980797 185.484332 
L 140.066598 179.867115 
L 141.152399 177.259121 
L 142.2382 174.14959 
L 143.324001 179.6665 
L 144.409802 176.857891 
L 145.495604 178.262196 
L 146.581405 172.243749 
L 147.667206 175.35328 
L 148.753007 169.635755 
L 149.838808 182.876338 
L 150.924609 169.83637 
L 152.01041 175.052357 
L 153.096212 170.438215 
L 154.182013 174.14959 
L 155.267814 173.447438 
L 156.353615 171.441289 
L 157.439416 171.742211 
L 158.525217 174.350205 
L 159.611019 167.228376 
L 160.69682 165.222227 
L 161.782621 170.2376 
L 162.868422 163.617308 
L 163.954223 170.2376 
L 165.040024 165.52315 
L 166.125825 164.620383 
L 167.211627 165.222227 
L 168.297428 161.310237 
L 169.383229 161.611159 
L 170.46903 165.12192 
L 171.554831 163.015463 
L 172.640632 161.711467 
L 174.812235 163.115771 
L 175.898036 160.206855 
L 176.983837 161.310237 
L 178.069638 158.401321 
L 179.155439 158.802551 
L 180.24124 156.495479 
L 181.327042 158.501628 
L 182.412843 157.097324 
L 183.498644 155.29179 
L 184.584445 156.294864 
L 185.670246 156.094249 
L 186.756047 156.495479 
L 187.841849 159.705318 
L 188.92765 153.285641 
L 190.013451 155.592712 
L 191.099252 152.884411 
L 192.185053 151.981644 
L 193.270854 152.884411 
L 194.356656 150.075802 
L 195.442457 150.376725 
L 196.528258 145.86289 
L 197.614059 153.185333 
L 198.69986 148.270268 
L 199.785661 149.173035 
L 200.871462 148.671498 
L 201.957264 150.878262 
L 203.043065 146.464734 
L 204.128866 146.063505 
L 205.214667 144.960123 
L 206.300468 144.157663 
L 207.386269 145.662275 
L 208.472071 145.46166 
L 209.557872 145.06043 
L 210.643673 145.261045 
L 211.729474 144.6592 
L 212.815275 144.859815 
L 213.901076 142.853666 
L 214.986877 141.248747 
L 216.072679 141.14844 
L 217.15848 141.248747 
L 218.244281 141.649977 
L 219.330082 142.352129 
L 220.415883 141.14844 
L 221.501684 141.248747 
L 222.587486 141.549669 
L 223.673287 142.452436 
L 224.759088 143.054281 
L 225.844889 167.328684 
L 226.93069 169.936677 
L 228.016491 167.027761 
L 229.102292 169.03391 
L 230.188094 171.541596 
L 231.273895 164.31946 
L 232.359696 171.140367 
L 233.445497 165.723764 
L 234.531298 164.419768 
L 235.617099 166.425917 
L 236.702901 164.520075 
L 237.788702 161.912081 
L 238.874503 169.334833 
L 239.960304 166.927454 
L 241.046105 160.708392 
L 242.131906 168.432066 
L 243.217708 167.729913 
L 244.303509 168.030836 
L 245.38931 163.115771 
L 246.475111 160.708392 
L 247.560912 165.723764 
L 248.646713 158.902858 
L 249.732514 165.723764 
L 250.818316 166.626532 
L 251.904117 159.504703 
L 252.989918 169.03391 
L 254.075719 161.009314 
L 255.16152 166.827146 
L 256.247321 162.012389 
L 257.333123 164.118845 
L 258.418924 160.507777 
L 259.504725 161.209929 
L 260.590526 160.00624 
L 261.676327 164.219153 
L 262.762128 159.60501 
L 263.847929 160.708392 
L 264.933731 157.197631 
L 266.019532 159.304088 
L 267.105333 155.993942 
L 268.191134 160.507777 
L 269.276935 161.209929 
L 270.362736 168.63268 
L 271.448538 163.717615 
L 272.534339 157.699169 
L 273.62014 156.294864 
L 274.705941 157.097324 
L 275.791742 159.304088 
L 276.877543 160.40747 
L 277.963344 161.310237 
L 279.049146 161.410544 
L 280.134947 156.395172 
L 281.220748 155.492405 
L 282.306549 160.909007 
L 283.39235 160.00624 
L 284.478151 158.501628 
L 285.563953 158.601936 
L 287.735555 154.188408 
L 288.821356 154.188408 
L 289.907157 159.20378 
L 290.992958 152.784104 
L 292.07876 152.683796 
L 293.164561 157.398246 
L 294.250362 150.075802 
L 295.336163 153.385948 
L 296.421964 158.601936 
L 297.507765 151.480107 
L 298.593566 161.209929 
L 299.679368 156.997016 
L 300.765169 158.100398 
L 301.85097 151.179184 
L 302.936771 155.592712 
L 304.022572 154.0881 
L 305.108373 149.574265 
L 306.194175 155.592712 
L 307.279976 150.376725 
L 308.365777 149.37365 
L 309.451578 154.89056 
L 310.537379 152.182259 
L 311.62318 152.483181 
L 312.708981 148.972421 
L 313.794783 151.881337 
L 314.880584 149.072728 
L 315.966385 150.878262 
L 317.052186 146.464734 
L 318.137987 152.282566 
L 319.223788 149.77488 
L 320.30959 152.081951 
L 321.395391 146.063505 
L 322.481192 145.86289 
L 323.566993 151.379799 
L 324.652794 149.574265 
L 325.738595 145.963197 
L 326.824396 143.355203 
L 327.910198 145.06043 
L 328.995999 142.953974 
L 330.0818 145.46166 
L 331.167601 141.850592 
L 332.253402 147.668424 
L 333.339203 141.549669 
L 334.425005 141.750284 
L 335.510806 146.364427 
L 336.596607 142.853666 
L 337.682408 142.653051 
L 338.768209 141.248747 
L 339.85401 140.74721 
L 340.939811 143.054281 
L 342.025613 139.844443 
L 343.111414 137.537371 
L 344.197215 137.938601 
L 345.283016 142.753359 
L 346.368817 140.34598 
L 347.454618 139.342905 
L 348.54042 140.446287 
L 349.626221 138.941676 
L 350.712022 136.333682 
L 351.797823 138.540446 
L 352.883624 138.941676 
L 353.969425 138.038909 
L 355.055227 133.525073 
L 356.141028 137.336757 
L 357.226829 136.03276 
L 358.31263 135.832145 
L 359.398431 137.437064 
L 360.484232 138.139216 
L 361.570033 135.531222 
L 362.655835 137.938601 
L 363.741636 136.734912 
L 364.827437 135.832145 
L 365.913238 134.126918 
L 366.999039 135.029685 
L 368.08484 135.731837 
L 369.170642 138.139216 
L 370.256443 137.236449 
L 371.342244 137.637679 
L 372.428045 135.129993 
L 373.513846 140.446287 
L 374.599647 137.637679 
L 375.685448 137.537371 
L 376.77125 138.139216 
L 377.857051 139.94475 
L 378.942852 139.844443 
L 380.028653 142.151514 
L 381.114454 138.741061 
L 382.200255 137.236449 
L 383.286057 136.634604 
L 384.371858 139.94475 
L 385.457659 137.838294 
L 386.54346 141.248747 
L 387.629261 140.045058 
L 388.715062 138.640753 
L 389.800863 142.051207 
L 390.886665 140.646902 
L 391.972466 142.051207 
L 393.058267 142.753359 
L 394.144068 139.94475 
L 395.229869 140.145365 
L 396.31567 144.859815 
L 397.401472 139.342905 
L 398.487273 140.145365 
L 398.487273 140.145365 
" clip-path="url(#p0e5ca51e5b)" style="fill: none; stroke: #2ca02c; stroke-width: 1.5; stroke-linecap: square"/>
   </g>
   <g id="line2d_18">
    <path d="M 368.08484 90.045807 
L 369.170642 89.900361 
L 371.342244 91.529354 
L 372.428045 91.034838 
L 373.513846 91.791156 
L 374.599647 93.303793 
L 375.685448 93.972843 
L 376.77125 93.129258 
L 377.857051 92.722009 
L 378.942852 91.587532 
L 380.028653 91.471176 
L 381.114454 91.732978 
L 382.200255 93.012901 
L 383.286057 93.274704 
L 384.371858 91.878424 
L 385.457659 90.074896 
L 386.54346 92.547475 
L 387.629261 91.500265 
L 388.715062 93.565595 
L 389.800863 91.151195 
L 390.886665 91.820246 
L 391.972466 93.652863 
L 393.058267 92.34385 
L 394.144068 90.453055 
L 395.229869 91.732978 
L 396.31567 93.652863 
L 397.401472 97.027205 
L 398.487273 92.983812 
L 398.487273 92.983812 
" clip-path="url(#p0e5ca51e5b)" style="fill: none; stroke: #d62728; stroke-width: 1.5; stroke-linecap: square"/>
   </g>
   <g id="line2d_19">
    <path d="M 368.08484 135.029685 
L 369.170642 135.129993 
L 370.256443 134.528148 
L 371.342244 135.731837 
L 373.513846 134.728763 
L 374.599647 139.142291 
L 375.685448 139.041983 
L 376.77125 137.637679 
L 377.857051 135.2303 
L 378.942852 135.029685 
L 380.028653 132.622306 
L 381.114454 131.31831 
L 382.200255 134.929378 
L 383.286057 136.935527 
L 384.371858 133.224151 
L 385.457659 133.725688 
L 386.54346 134.528148 
L 387.629261 133.525073 
L 388.715062 134.327533 
L 389.800863 133.224151 
L 390.886665 133.926303 
L 391.972466 136.835219 
L 393.058267 132.722614 
L 394.144068 130.51585 
L 395.229869 133.424766 
L 397.401472 136.634604 
L 398.487273 136.433989 
L 398.487273 136.433989 
" clip-path="url(#p0e5ca51e5b)" style="fill: none; stroke: #9467bd; stroke-width: 1.5; stroke-linecap: square"/>
   </g>
   <g id="patch_3">
    <path d="M 57.6 307.584 
L 57.6 41.472 
" style="fill: none; stroke: #000000; stroke-width: 0.8; stroke-linejoin: miter; stroke-linecap: square"/>
   </g>
   <g id="patch_4">
    <path d="M 414.72 307.584 
L 414.72 41.472 
" style="fill: none; stroke: #000000; stroke-width: 0.8; stroke-linejoin: miter; stroke-linecap: square"/>
   </g>
   <g id="patch_5">
    <path d="M 57.6 307.584 
L 414.72 307.584 
" style="fill: none; stroke: #000000; stroke-width: 0.8; stroke-linejoin: miter; stroke-linecap: square"/>
   </g>
   <g id="patch_6">
    <path d="M 57.6 41.472 
L 414.72 41.472 
" style="fill: none; stroke: #000000; stroke-width: 0.8; stroke-linejoin: miter; stroke-linecap: square"/>
   </g>
   <g id="text_17">
    <!-- Learning Curves -->
    <g transform="translate(187.37625 35.472) scale(0.12 -0.12)">
     <defs>
      <path id="DejaVuSans-4c" d="M 628 4666 
L 1259 4666 
L 1259 531 
L 3531 531 
L 3531 0 
L 628 0 
L 628 4666 
z
" transform="scale(0.015625)"/>
      <path id="DejaVuSans-65" d="M 3597 1894 
L 3597 1613 
L 953 1613 
Q 991 1019 1311 708 
Q 1631 397 2203 397 
Q 2534 397 2845 478 
Q 3156 559 3463 722 
L 3463 178 
Q 3153 47 2828 -22 
Q 2503 -91 2169 -91 
Q 1331 -91 842 396 
Q 353 884 353 1716 
Q 353 2575 817 3079 
Q 1281 3584 2069 3584 
Q 2775 3584 3186 3129 
Q 3597 2675 3597 1894 
z
M 3022 2063 
Q 3016 2534 2758 2815 
Q 2500 3097 2075 3097 
Q 1594 3097 1305 2825 
Q 1016 2553 972 2059 
L 3022 2063 
z
" transform="scale(0.015625)"/>
      <path id="DejaVuSans-6e" d="M 3513 2113 
L 3513 0 
L 2938 0 
L 2938 2094 
Q 2938 2591 2744 2837 
Q 2550 3084 2163 3084 
Q 1697 3084 1428 2787 
Q 1159 2491 1159 1978 
L 1159 0 
L 581 0 
L 581 3500 
L 1159 3500 
L 1159 2956 
Q 1366 3272 1645 3428 
Q 1925 3584 2291 3584 
Q 2894 3584 3203 3211 
Q 3513 2838 3513 2113 
z
" transform="scale(0.015625)"/>
      <path id="DejaVuSans-69" d="M 603 3500 
L 1178 3500 
L 1178 0 
L 603 0 
L 603 3500 
z
M 603 4863 
L 1178 4863 
L 1178 4134 
L 603 4134 
L 603 4863 
z
" transform="scale(0.015625)"/>
      <path id="DejaVuSans-67" d="M 2906 1791 
Q 2906 2416 2648 2759 
Q 2391 3103 1925 3103 
Q 1463 3103 1205 2759 
Q 947 2416 947 1791 
Q 947 1169 1205 825 
Q 1463 481 1925 481 
Q 2391 481 2648 825 
Q 2906 1169 2906 1791 
z
M 3481 434 
Q 3481 -459 3084 -895 
Q 2688 -1331 1869 -1331 
Q 1566 -1331 1297 -1286 
Q 1028 -1241 775 -1147 
L 775 -588 
Q 1028 -725 1275 -790 
Q 1522 -856 1778 -856 
Q 2344 -856 2625 -561 
Q 2906 -266 2906 331 
L 2906 616 
Q 2728 306 2450 153 
Q 2172 0 1784 0 
Q 1141 0 747 490 
Q 353 981 353 1791 
Q 353 2603 747 3093 
Q 1141 3584 1784 3584 
Q 2172 3584 2450 3431 
Q 2728 3278 2906 2969 
L 2906 3500 
L 3481 3500 
L 3481 434 
z
" transform="scale(0.015625)"/>
      <path id="DejaVuSans-20" transform="scale(0.015625)"/>
      <path id="DejaVuSans-43" d="M 4122 4306 
L 4122 3641 
Q 3803 3938 3442 4084 
Q 3081 4231 2675 4231 
Q 1875 4231 1450 3742 
Q 1025 3253 1025 2328 
Q 1025 1406 1450 917 
Q 1875 428 2675 428 
Q 3081 428 3442 575 
Q 3803 722 4122 1019 
L 4122 359 
Q 3791 134 3420 21 
Q 3050 -91 2638 -91 
Q 1578 -91 968 557 
Q 359 1206 359 2328 
Q 359 3453 968 4101 
Q 1578 4750 2638 4750 
Q 3056 4750 3426 4639 
Q 3797 4528 4122 4306 
z
" transform="scale(0.015625)"/>
      <path id="DejaVuSans-76" d="M 191 3500 
L 800 3500 
L 1894 563 
L 2988 3500 
L 3597 3500 
L 2284 0 
L 1503 0 
L 191 3500 
z
" transform="scale(0.015625)"/>
     </defs>
     <use xlink:href="#DejaVuSans-4c"/>
     <use xlink:href="#DejaVuSans-65" x="53.962891"/>
     <use xlink:href="#DejaVuSans-61" x="115.486328"/>
     <use xlink:href="#DejaVuSans-72" x="176.765625"/>
     <use xlink:href="#DejaVuSans-6e" x="216.128906"/>
     <use xlink:href="#DejaVuSans-69" x="279.507812"/>
     <use xlink:href="#DejaVuSans-6e" x="307.291016"/>
     <use xlink:href="#DejaVuSans-67" x="370.669922"/>
     <use xlink:href="#DejaVuSans-20" x="434.146484"/>
     <use xlink:href="#DejaVuSans-43" x="465.933594"/>
     <use xlink:href="#DejaVuSans-75" x="535.757812"/>
     <use xlink:href="#DejaVuSans-72" x="599.136719"/>
     <use xlink:href="#DejaVuSans-76" x="640.25"/>
     <use xlink:href="#DejaVuSans-65" x="699.429688"/>
     <use xlink:href="#DejaVuSans-73" x="760.953125"/>
    </g>
   </g>
   <g id="legend_1">
    <g id="patch_7">
     <path d="M 214.18875 302.584 
L 407.72 302.584 
Q 409.72 302.584 409.72 300.584 
L 409.72 228.193375 
Q 409.72 226.193375 407.72 226.193375 
L 214.18875 226.193375 
Q 212.18875 226.193375 212.18875 228.193375 
L 212.18875 300.584 
Q 212.18875 302.584 214.18875 302.584 
z
" style="fill: #ffffff; opacity: 0.8; stroke: #cccccc; stroke-linejoin: miter"/>
    </g>
    <g id="line2d_20">
     <path d="M 216.18875 234.291812 
L 226.18875 234.291812 
L 236.18875 234.291812 
" style="fill: none; stroke: #1f77b4; stroke-width: 1.5; stroke-linecap: square"/>
    </g>
    <g id="text_18">
     <!-- Train Accuracy -->
     <g transform="translate(244.18875 237.791812) scale(0.1 -0.1)">
      <defs>
       <path id="DejaVuSans-54" d="M -19 4666 
L 3928 4666 
L 3928 4134 
L 2272 4134 
L 2272 0 
L 1638 0 
L 1638 4134 
L -19 4134 
L -19 4666 
z
" transform="scale(0.015625)"/>
      </defs>
      <use xlink:href="#DejaVuSans-54"/>
      <use xlink:href="#DejaVuSans-72" x="46.333984"/>
      <use xlink:href="#DejaVuSans-61" x="87.447266"/>
      <use xlink:href="#DejaVuSans-69" x="148.726562"/>
      <use xlink:href="#DejaVuSans-6e" x="176.509766"/>
      <use xlink:href="#DejaVuSans-20" x="239.888672"/>
      <use xlink:href="#DejaVuSans-41" x="271.675781"/>
      <use xlink:href="#DejaVuSans-63" x="338.333984"/>
      <use xlink:href="#DejaVuSans-63" x="393.314453"/>
      <use xlink:href="#DejaVuSans-75" x="448.294922"/>
      <use xlink:href="#DejaVuSans-72" x="511.673828"/>
      <use xlink:href="#DejaVuSans-61" x="552.787109"/>
      <use xlink:href="#DejaVuSans-63" x="614.066406"/>
      <use xlink:href="#DejaVuSans-79" x="669.046875"/>
     </g>
    </g>
    <g id="line2d_21">
     <path d="M 216.18875 248.969937 
L 226.18875 248.969937 
L 236.18875 248.969937 
" style="fill: none; stroke: #ff7f0e; stroke-width: 1.5; stroke-linecap: square"/>
    </g>
    <g id="text_19">
     <!-- Validation Accuracy -->
     <g transform="translate(244.18875 252.469937) scale(0.1 -0.1)">
      <defs>
       <path id="DejaVuSans-56" d="M 1831 0 
L 50 4666 
L 709 4666 
L 2188 738 
L 3669 4666 
L 4325 4666 
L 2547 0 
L 1831 0 
z
" transform="scale(0.015625)"/>
       <path id="DejaVuSans-6c" d="M 603 4863 
L 1178 4863 
L 1178 0 
L 603 0 
L 603 4863 
z
" transform="scale(0.015625)"/>
       <path id="DejaVuSans-64" d="M 2906 2969 
L 2906 4863 
L 3481 4863 
L 3481 0 
L 2906 0 
L 2906 525 
Q 2725 213 2448 61 
Q 2172 -91 1784 -91 
Q 1150 -91 751 415 
Q 353 922 353 1747 
Q 353 2572 751 3078 
Q 1150 3584 1784 3584 
Q 2172 3584 2448 3432 
Q 2725 3281 2906 2969 
z
M 947 1747 
Q 947 1113 1208 752 
Q 1469 391 1925 391 
Q 2381 391 2643 752 
Q 2906 1113 2906 1747 
Q 2906 2381 2643 2742 
Q 2381 3103 1925 3103 
Q 1469 3103 1208 2742 
Q 947 2381 947 1747 
z
" transform="scale(0.015625)"/>
       <path id="DejaVuSans-74" d="M 1172 4494 
L 1172 3500 
L 2356 3500 
L 2356 3053 
L 1172 3053 
L 1172 1153 
Q 1172 725 1289 603 
Q 1406 481 1766 481 
L 2356 481 
L 2356 0 
L 1766 0 
Q 1100 0 847 248 
Q 594 497 594 1153 
L 594 3053 
L 172 3053 
L 172 3500 
L 594 3500 
L 594 4494 
L 1172 4494 
z
" transform="scale(0.015625)"/>
      </defs>
      <use xlink:href="#DejaVuSans-56"/>
      <use xlink:href="#DejaVuSans-61" x="60.658203"/>
      <use xlink:href="#DejaVuSans-6c" x="121.9375"/>
      <use xlink:href="#DejaVuSans-69" x="149.720703"/>
      <use xlink:href="#DejaVuSans-64" x="177.503906"/>
      <use xlink:href="#DejaVuSans-61" x="240.980469"/>
      <use xlink:href="#DejaVuSans-74" x="302.259766"/>
      <use xlink:href="#DejaVuSans-69" x="341.46875"/>
      <use xlink:href="#DejaVuSans-6f" x="369.251953"/>
      <use xlink:href="#DejaVuSans-6e" x="430.433594"/>
      <use xlink:href="#DejaVuSans-20" x="493.8125"/>
      <use xlink:href="#DejaVuSans-41" x="525.599609"/>
      <use xlink:href="#DejaVuSans-63" x="592.257812"/>
      <use xlink:href="#DejaVuSans-63" x="647.238281"/>
      <use xlink:href="#DejaVuSans-75" x="702.21875"/>
      <use xlink:href="#DejaVuSans-72" x="765.597656"/>
      <use xlink:href="#DejaVuSans-61" x="806.710938"/>
      <use xlink:href="#DejaVuSans-63" x="867.990234"/>
      <use xlink:href="#DejaVuSans-79" x="922.970703"/>
     </g>
    </g>
    <g id="line2d_22">
     <path d="M 216.18875 263.648062 
L 226.18875 263.648062 
L 236.18875 263.648062 
" style="fill: none; stroke: #2ca02c; stroke-width: 1.5; stroke-linecap: square"/>
    </g>
    <g id="text_20">
     <!-- Robust Validation Accuracy -->
     <g transform="translate(244.18875 267.148062) scale(0.1 -0.1)">
      <defs>
       <path id="DejaVuSans-52" d="M 2841 2188 
Q 3044 2119 3236 1894 
Q 3428 1669 3622 1275 
L 4263 0 
L 3584 0 
L 2988 1197 
Q 2756 1666 2539 1819 
Q 2322 1972 1947 1972 
L 1259 1972 
L 1259 0 
L 628 0 
L 628 4666 
L 2053 4666 
Q 2853 4666 3247 4331 
Q 3641 3997 3641 3322 
Q 3641 2881 3436 2590 
Q 3231 2300 2841 2188 
z
M 1259 4147 
L 1259 2491 
L 2053 2491 
Q 2509 2491 2742 2702 
Q 2975 2913 2975 3322 
Q 2975 3731 2742 3939 
Q 2509 4147 2053 4147 
L 1259 4147 
z
" transform="scale(0.015625)"/>
       <path id="DejaVuSans-62" d="M 3116 1747 
Q 3116 2381 2855 2742 
Q 2594 3103 2138 3103 
Q 1681 3103 1420 2742 
Q 1159 2381 1159 1747 
Q 1159 1113 1420 752 
Q 1681 391 2138 391 
Q 2594 391 2855 752 
Q 3116 1113 3116 1747 
z
M 1159 2969 
Q 1341 3281 1617 3432 
Q 1894 3584 2278 3584 
Q 2916 3584 3314 3078 
Q 3713 2572 3713 1747 
Q 3713 922 3314 415 
Q 2916 -91 2278 -91 
Q 1894 -91 1617 61 
Q 1341 213 1159 525 
L 1159 0 
L 581 0 
L 581 4863 
L 1159 4863 
L 1159 2969 
z
" transform="scale(0.015625)"/>
      </defs>
      <use xlink:href="#DejaVuSans-52"/>
      <use xlink:href="#DejaVuSans-6f" x="64.982422"/>
      <use xlink:href="#DejaVuSans-62" x="126.164062"/>
      <use xlink:href="#DejaVuSans-75" x="189.640625"/>
      <use xlink:href="#DejaVuSans-73" x="253.019531"/>
      <use xlink:href="#DejaVuSans-74" x="305.119141"/>
      <use xlink:href="#DejaVuSans-20" x="344.328125"/>
      <use xlink:href="#DejaVuSans-56" x="376.115234"/>
      <use xlink:href="#DejaVuSans-61" x="436.773438"/>
      <use xlink:href="#DejaVuSans-6c" x="498.052734"/>
      <use xlink:href="#DejaVuSans-69" x="525.835938"/>
      <use xlink:href="#DejaVuSans-64" x="553.619141"/>
      <use xlink:href="#DejaVuSans-61" x="617.095703"/>
      <use xlink:href="#DejaVuSans-74" x="678.375"/>
      <use xlink:href="#DejaVuSans-69" x="717.583984"/>
      <use xlink:href="#DejaVuSans-6f" x="745.367188"/>
      <use xlink:href="#DejaVuSans-6e" x="806.548828"/>
      <use xlink:href="#DejaVuSans-20" x="869.927734"/>
      <use xlink:href="#DejaVuSans-41" x="901.714844"/>
      <use xlink:href="#DejaVuSans-63" x="968.373047"/>
      <use xlink:href="#DejaVuSans-63" x="1023.353516"/>
      <use xlink:href="#DejaVuSans-75" x="1078.333984"/>
      <use xlink:href="#DejaVuSans-72" x="1141.712891"/>
      <use xlink:href="#DejaVuSans-61" x="1182.826172"/>
      <use xlink:href="#DejaVuSans-63" x="1244.105469"/>
      <use xlink:href="#DejaVuSans-79" x="1299.085938"/>
     </g>
    </g>
    <g id="line2d_23">
     <path d="M 216.18875 278.326188 
L 226.18875 278.326188 
L 236.18875 278.326188 
" style="fill: none; stroke: #d62728; stroke-width: 1.5; stroke-linecap: square"/>
    </g>
    <g id="text_21">
     <!-- SWA Validation Accuracy -->
     <g transform="translate(244.18875 281.826188) scale(0.1 -0.1)">
      <defs>
       <path id="DejaVuSans-53" d="M 3425 4513 
L 3425 3897 
Q 3066 4069 2747 4153 
Q 2428 4238 2131 4238 
Q 1616 4238 1336 4038 
Q 1056 3838 1056 3469 
Q 1056 3159 1242 3001 
Q 1428 2844 1947 2747 
L 2328 2669 
Q 3034 2534 3370 2195 
Q 3706 1856 3706 1288 
Q 3706 609 3251 259 
Q 2797 -91 1919 -91 
Q 1588 -91 1214 -16 
Q 841 59 441 206 
L 441 856 
Q 825 641 1194 531 
Q 1563 422 1919 422 
Q 2459 422 2753 634 
Q 3047 847 3047 1241 
Q 3047 1584 2836 1778 
Q 2625 1972 2144 2069 
L 1759 2144 
Q 1053 2284 737 2584 
Q 422 2884 422 3419 
Q 422 4038 858 4394 
Q 1294 4750 2059 4750 
Q 2388 4750 2728 4690 
Q 3069 4631 3425 4513 
z
" transform="scale(0.015625)"/>
       <path id="DejaVuSans-57" d="M 213 4666 
L 850 4666 
L 1831 722 
L 2809 4666 
L 3519 4666 
L 4500 722 
L 5478 4666 
L 6119 4666 
L 4947 0 
L 4153 0 
L 3169 4050 
L 2175 0 
L 1381 0 
L 213 4666 
z
" transform="scale(0.015625)"/>
      </defs>
      <use xlink:href="#DejaVuSans-53"/>
      <use xlink:href="#DejaVuSans-57" x="63.476562"/>
      <use xlink:href="#DejaVuSans-41" x="156.853516"/>
      <use xlink:href="#DejaVuSans-20" x="225.261719"/>
      <use xlink:href="#DejaVuSans-56" x="257.048828"/>
      <use xlink:href="#DejaVuSans-61" x="317.707031"/>
      <use xlink:href="#DejaVuSans-6c" x="378.986328"/>
      <use xlink:href="#DejaVuSans-69" x="406.769531"/>
      <use xlink:href="#DejaVuSans-64" x="434.552734"/>
      <use xlink:href="#DejaVuSans-61" x="498.029297"/>
      <use xlink:href="#DejaVuSans-74" x="559.308594"/>
      <use xlink:href="#DejaVuSans-69" x="598.517578"/>
      <use xlink:href="#DejaVuSans-6f" x="626.300781"/>
      <use xlink:href="#DejaVuSans-6e" x="687.482422"/>
      <use xlink:href="#DejaVuSans-20" x="750.861328"/>
      <use xlink:href="#DejaVuSans-41" x="782.648438"/>
      <use xlink:href="#DejaVuSans-63" x="849.306641"/>
      <use xlink:href="#DejaVuSans-63" x="904.287109"/>
      <use xlink:href="#DejaVuSans-75" x="959.267578"/>
      <use xlink:href="#DejaVuSans-72" x="1022.646484"/>
      <use xlink:href="#DejaVuSans-61" x="1063.759766"/>
      <use xlink:href="#DejaVuSans-63" x="1125.039062"/>
      <use xlink:href="#DejaVuSans-79" x="1180.019531"/>
     </g>
    </g>
    <g id="line2d_24">
     <path d="M 216.18875 293.004312 
L 226.18875 293.004312 
L 236.18875 293.004312 
" style="fill: none; stroke: #9467bd; stroke-width: 1.5; stroke-linecap: square"/>
    </g>
    <g id="text_22">
     <!-- SWA Robust Validation Accuracy -->
     <g transform="translate(244.18875 296.504312) scale(0.1 -0.1)">
      <use xlink:href="#DejaVuSans-53"/>
      <use xlink:href="#DejaVuSans-57" x="63.476562"/>
      <use xlink:href="#DejaVuSans-41" x="156.853516"/>
      <use xlink:href="#DejaVuSans-20" x="225.261719"/>
      <use xlink:href="#DejaVuSans-52" x="257.048828"/>
      <use xlink:href="#DejaVuSans-6f" x="322.03125"/>
      <use xlink:href="#DejaVuSans-62" x="383.212891"/>
      <use xlink:href="#DejaVuSans-75" x="446.689453"/>
      <use xlink:href="#DejaVuSans-73" x="510.068359"/>
      <use xlink:href="#DejaVuSans-74" x="562.167969"/>
      <use xlink:href="#DejaVuSans-20" x="601.376953"/>
      <use xlink:href="#DejaVuSans-56" x="633.164062"/>
      <use xlink:href="#DejaVuSans-61" x="693.822266"/>
      <use xlink:href="#DejaVuSans-6c" x="755.101562"/>
      <use xlink:href="#DejaVuSans-69" x="782.884766"/>
      <use xlink:href="#DejaVuSans-64" x="810.667969"/>
      <use xlink:href="#DejaVuSans-61" x="874.144531"/>
      <use xlink:href="#DejaVuSans-74" x="935.423828"/>
      <use xlink:href="#DejaVuSans-69" x="974.632812"/>
      <use xlink:href="#DejaVuSans-6f" x="1002.416016"/>
      <use xlink:href="#DejaVuSans-6e" x="1063.597656"/>
      <use xlink:href="#DejaVuSans-20" x="1126.976562"/>
      <use xlink:href="#DejaVuSans-41" x="1158.763672"/>
      <use xlink:href="#DejaVuSans-63" x="1225.421875"/>
      <use xlink:href="#DejaVuSans-63" x="1280.402344"/>
      <use xlink:href="#DejaVuSans-75" x="1335.382812"/>
      <use xlink:href="#DejaVuSans-72" x="1398.761719"/>
      <use xlink:href="#DejaVuSans-61" x="1439.875"/>
      <use xlink:href="#DejaVuSans-63" x="1501.154297"/>
      <use xlink:href="#DejaVuSans-79" x="1556.134766"/>
     </g>
    </g>
   </g>
  </g>
 </g>
 <defs>
  <clipPath id="p0e5ca51e5b">
   <rect x="57.6" y="41.472" width="357.12" height="266.112"/>
  </clipPath>
 </defs>
</svg>
