<?xml version="1.0" encoding="utf-8" standalone="no"?>
<!DOCTYPE svg PUBLIC "-//W3C//DTD SVG 1.1//EN"
  "http://www.w3.org/Graphics/SVG/1.1/DTD/svg11.dtd">
<svg xmlns:xlink="http://www.w3.org/1999/xlink" width="460.8pt" height="345.6pt" viewBox="0 0 460.8 345.6" xmlns="http://www.w3.org/2000/svg" version="1.1">
 <metadata>
  <rdf:RDF xmlns:dc="http://purl.org/dc/elements/1.1/" xmlns:cc="http://creativecommons.org/ns#" xmlns:rdf="http://www.w3.org/1999/02/22-rdf-syntax-ns#">
   <cc:Work>
    <dc:type rdf:resource="http://purl.org/dc/dcmitype/StillImage"/>
    <dc:date>2025-07-13T08:39:47.268027</dc:date>
    <dc:format>image/svg+xml</dc:format>
    <dc:creator>
     <cc:Agent>
      <dc:title>Matplotlib v3.9.1, https://matplotlib.org/</dc:title>
     </cc:Agent>
    </dc:creator>
   </cc:Work>
  </rdf:RDF>
 </metadata>
 <defs>
  <style type="text/css">*{stroke-linejoin: round; stroke-linecap: butt}</style>
 </defs>
 <g id="figure_1">
  <g id="patch_1">
   <path d="M 0 345.6 
L 460.8 345.6 
L 460.8 0 
L 0 0 
z
" style="fill: #ffffff"/>
  </g>
  <g id="axes_1">
   <g id="patch_2">
    <path d="M 57.6 307.584 
L 414.72 307.584 
L 414.72 41.472 
L 57.6 41.472 
z
" style="fill: #ffffff"/>
   </g>
   <g id="matplotlib.axis_1">
    <g id="xtick_1">
     <g id="line2d_1">
      <defs>
       <path id="m5e7571ea45" d="M 0 0 
L 0 3.5 
" style="stroke: #000000; stroke-width: 0.8"/>
      </defs>
      <g>
       <use xlink:href="#m5e7571ea45" x="73.832727" y="307.584" style="stroke: #000000; stroke-width: 0.8"/>
      </g>
     </g>
     <g id="text_1">
      <!-- 1 -->
      <g transform="translate(70.651477 322.182437) scale(0.1 -0.1)">
       <defs>
        <path id="DejaVuSans-31" d="M 794 531 
L 1825 531 
L 1825 4091 
L 703 3866 
L 703 4441 
L 1819 4666 
L 2450 4666 
L 2450 531 
L 3481 531 
L 3481 0 
L 794 0 
L 794 531 
z
" transform="scale(0.015625)"/>
       </defs>
       <use xlink:href="#DejaVuSans-31"/>
      </g>
     </g>
    </g>
    <g id="xtick_2">
     <g id="line2d_2">
      <g>
       <use xlink:href="#m5e7571ea45" x="109.664165" y="307.584" style="stroke: #000000; stroke-width: 0.8"/>
      </g>
     </g>
     <g id="text_2">
      <!-- 34 -->
      <g transform="translate(103.301665 322.182437) scale(0.1 -0.1)">
       <defs>
        <path id="DejaVuSans-33" d="M 2597 2516 
Q 3050 2419 3304 2112 
Q 3559 1806 3559 1356 
Q 3559 666 3084 287 
Q 2609 -91 1734 -91 
Q 1441 -91 1130 -33 
Q 819 25 488 141 
L 488 750 
Q 750 597 1062 519 
Q 1375 441 1716 441 
Q 2309 441 2620 675 
Q 2931 909 2931 1356 
Q 2931 1769 2642 2001 
Q 2353 2234 1838 2234 
L 1294 2234 
L 1294 2753 
L 1863 2753 
Q 2328 2753 2575 2939 
Q 2822 3125 2822 3475 
Q 2822 3834 2567 4026 
Q 2313 4219 1838 4219 
Q 1578 4219 1281 4162 
Q 984 4106 628 3988 
L 628 4550 
Q 988 4650 1302 4700 
Q 1616 4750 1894 4750 
Q 2613 4750 3031 4423 
Q 3450 4097 3450 3541 
Q 3450 3153 3228 2886 
Q 3006 2619 2597 2516 
z
" transform="scale(0.015625)"/>
        <path id="DejaVuSans-34" d="M 2419 4116 
L 825 1625 
L 2419 1625 
L 2419 4116 
z
M 2253 4666 
L 3047 4666 
L 3047 1625 
L 3713 1625 
L 3713 1100 
L 3047 1100 
L 3047 0 
L 2419 0 
L 2419 1100 
L 313 1100 
L 313 1709 
L 2253 4666 
z
" transform="scale(0.015625)"/>
       </defs>
       <use xlink:href="#DejaVuSans-33"/>
       <use xlink:href="#DejaVuSans-34" x="63.623047"/>
      </g>
     </g>
    </g>
    <g id="xtick_3">
     <g id="line2d_3">
      <g>
       <use xlink:href="#m5e7571ea45" x="145.495604" y="307.584" style="stroke: #000000; stroke-width: 0.8"/>
      </g>
     </g>
     <g id="text_3">
      <!-- 67 -->
      <g transform="translate(139.133104 322.182437) scale(0.1 -0.1)">
       <defs>
        <path id="DejaVuSans-36" d="M 2113 2584 
Q 1688 2584 1439 2293 
Q 1191 2003 1191 1497 
Q 1191 994 1439 701 
Q 1688 409 2113 409 
Q 2538 409 2786 701 
Q 3034 994 3034 1497 
Q 3034 2003 2786 2293 
Q 2538 2584 2113 2584 
z
M 3366 4563 
L 3366 3988 
Q 3128 4100 2886 4159 
Q 2644 4219 2406 4219 
Q 1781 4219 1451 3797 
Q 1122 3375 1075 2522 
Q 1259 2794 1537 2939 
Q 1816 3084 2150 3084 
Q 2853 3084 3261 2657 
Q 3669 2231 3669 1497 
Q 3669 778 3244 343 
Q 2819 -91 2113 -91 
Q 1303 -91 875 529 
Q 447 1150 447 2328 
Q 447 3434 972 4092 
Q 1497 4750 2381 4750 
Q 2619 4750 2861 4703 
Q 3103 4656 3366 4563 
z
" transform="scale(0.015625)"/>
        <path id="DejaVuSans-37" d="M 525 4666 
L 3525 4666 
L 3525 4397 
L 1831 0 
L 1172 0 
L 2766 4134 
L 525 4134 
L 525 4666 
z
" transform="scale(0.015625)"/>
       </defs>
       <use xlink:href="#DejaVuSans-36"/>
       <use xlink:href="#DejaVuSans-37" x="63.623047"/>
      </g>
     </g>
    </g>
    <g id="xtick_4">
     <g id="line2d_4">
      <g>
       <use xlink:href="#m5e7571ea45" x="181.327042" y="307.584" style="stroke: #000000; stroke-width: 0.8"/>
      </g>
     </g>
     <g id="text_4">
      <!-- 100 -->
      <g transform="translate(171.783292 322.182437) scale(0.1 -0.1)">
       <defs>
        <path id="DejaVuSans-30" d="M 2034 4250 
Q 1547 4250 1301 3770 
Q 1056 3291 1056 2328 
Q 1056 1369 1301 889 
Q 1547 409 2034 409 
Q 2525 409 2770 889 
Q 3016 1369 3016 2328 
Q 3016 3291 2770 3770 
Q 2525 4250 2034 4250 
z
M 2034 4750 
Q 2819 4750 3233 4129 
Q 3647 3509 3647 2328 
Q 3647 1150 3233 529 
Q 2819 -91 2034 -91 
Q 1250 -91 836 529 
Q 422 1150 422 2328 
Q 422 3509 836 4129 
Q 1250 4750 2034 4750 
z
" transform="scale(0.015625)"/>
       </defs>
       <use xlink:href="#DejaVuSans-31"/>
       <use xlink:href="#DejaVuSans-30" x="63.623047"/>
       <use xlink:href="#DejaVuSans-30" x="127.246094"/>
      </g>
     </g>
    </g>
    <g id="xtick_5">
     <g id="line2d_5">
      <g>
       <use xlink:href="#m5e7571ea45" x="217.15848" y="307.584" style="stroke: #000000; stroke-width: 0.8"/>
      </g>
     </g>
     <g id="text_5">
      <!-- 133 -->
      <g transform="translate(207.61473 322.182437) scale(0.1 -0.1)">
       <use xlink:href="#DejaVuSans-31"/>
       <use xlink:href="#DejaVuSans-33" x="63.623047"/>
       <use xlink:href="#DejaVuSans-33" x="127.246094"/>
      </g>
     </g>
    </g>
    <g id="xtick_6">
     <g id="line2d_6">
      <g>
       <use xlink:href="#m5e7571ea45" x="254.075719" y="307.584" style="stroke: #000000; stroke-width: 0.8"/>
      </g>
     </g>
     <g id="text_6">
      <!-- 167 -->
      <g transform="translate(244.531969 322.182437) scale(0.1 -0.1)">
       <use xlink:href="#DejaVuSans-31"/>
       <use xlink:href="#DejaVuSans-36" x="63.623047"/>
       <use xlink:href="#DejaVuSans-37" x="127.246094"/>
      </g>
     </g>
    </g>
    <g id="xtick_7">
     <g id="line2d_7">
      <g>
       <use xlink:href="#m5e7571ea45" x="289.907157" y="307.584" style="stroke: #000000; stroke-width: 0.8"/>
      </g>
     </g>
     <g id="text_7">
      <!-- 200 -->
      <g transform="translate(280.363407 322.182437) scale(0.1 -0.1)">
       <defs>
        <path id="DejaVuSans-32" d="M 1228 531 
L 3431 531 
L 3431 0 
L 469 0 
L 469 531 
Q 828 903 1448 1529 
Q 2069 2156 2228 2338 
Q 2531 2678 2651 2914 
Q 2772 3150 2772 3378 
Q 2772 3750 2511 3984 
Q 2250 4219 1831 4219 
Q 1534 4219 1204 4116 
Q 875 4013 500 3803 
L 500 4441 
Q 881 4594 1212 4672 
Q 1544 4750 1819 4750 
Q 2544 4750 2975 4387 
Q 3406 4025 3406 3419 
Q 3406 3131 3298 2873 
Q 3191 2616 2906 2266 
Q 2828 2175 2409 1742 
Q 1991 1309 1228 531 
z
" transform="scale(0.015625)"/>
       </defs>
       <use xlink:href="#DejaVuSans-32"/>
       <use xlink:href="#DejaVuSans-30" x="63.623047"/>
       <use xlink:href="#DejaVuSans-30" x="127.246094"/>
      </g>
     </g>
    </g>
    <g id="xtick_8">
     <g id="line2d_8">
      <g>
       <use xlink:href="#m5e7571ea45" x="325.738595" y="307.584" style="stroke: #000000; stroke-width: 0.8"/>
      </g>
     </g>
     <g id="text_8">
      <!-- 233 -->
      <g transform="translate(316.194845 322.182437) scale(0.1 -0.1)">
       <use xlink:href="#DejaVuSans-32"/>
       <use xlink:href="#DejaVuSans-33" x="63.623047"/>
       <use xlink:href="#DejaVuSans-33" x="127.246094"/>
      </g>
     </g>
    </g>
    <g id="xtick_9">
     <g id="line2d_9">
      <g>
       <use xlink:href="#m5e7571ea45" x="361.570033" y="307.584" style="stroke: #000000; stroke-width: 0.8"/>
      </g>
     </g>
     <g id="text_9">
      <!-- 266 -->
      <g transform="translate(352.026283 322.182437) scale(0.1 -0.1)">
       <use xlink:href="#DejaVuSans-32"/>
       <use xlink:href="#DejaVuSans-36" x="63.623047"/>
       <use xlink:href="#DejaVuSans-36" x="127.246094"/>
      </g>
     </g>
    </g>
    <g id="xtick_10">
     <g id="line2d_10">
      <g>
       <use xlink:href="#m5e7571ea45" x="398.487273" y="307.584" style="stroke: #000000; stroke-width: 0.8"/>
      </g>
     </g>
     <g id="text_10">
      <!-- 300 -->
      <g transform="translate(388.943523 322.182437) scale(0.1 -0.1)">
       <use xlink:href="#DejaVuSans-33"/>
       <use xlink:href="#DejaVuSans-30" x="63.623047"/>
       <use xlink:href="#DejaVuSans-30" x="127.246094"/>
      </g>
     </g>
    </g>
    <g id="text_11">
     <!-- Epochs -->
     <g transform="translate(218.244375 335.860562) scale(0.1 -0.1)">
      <defs>
       <path id="DejaVuSans-45" d="M 628 4666 
L 3578 4666 
L 3578 4134 
L 1259 4134 
L 1259 2753 
L 3481 2753 
L 3481 2222 
L 1259 2222 
L 1259 531 
L 3634 531 
L 3634 0 
L 628 0 
L 628 4666 
z
" transform="scale(0.015625)"/>
       <path id="DejaVuSans-70" d="M 1159 525 
L 1159 -1331 
L 581 -1331 
L 581 3500 
L 1159 3500 
L 1159 2969 
Q 1341 3281 1617 3432 
Q 1894 3584 2278 3584 
Q 2916 3584 3314 3078 
Q 3713 2572 3713 1747 
Q 3713 922 3314 415 
Q 2916 -91 2278 -91 
Q 1894 -91 1617 61 
Q 1341 213 1159 525 
z
M 3116 1747 
Q 3116 2381 2855 2742 
Q 2594 3103 2138 3103 
Q 1681 3103 1420 2742 
Q 1159 2381 1159 1747 
Q 1159 1113 1420 752 
Q 1681 391 2138 391 
Q 2594 391 2855 752 
Q 3116 1113 3116 1747 
z
" transform="scale(0.015625)"/>
       <path id="DejaVuSans-6f" d="M 1959 3097 
Q 1497 3097 1228 2736 
Q 959 2375 959 1747 
Q 959 1119 1226 758 
Q 1494 397 1959 397 
Q 2419 397 2687 759 
Q 2956 1122 2956 1747 
Q 2956 2369 2687 2733 
Q 2419 3097 1959 3097 
z
M 1959 3584 
Q 2709 3584 3137 3096 
Q 3566 2609 3566 1747 
Q 3566 888 3137 398 
Q 2709 -91 1959 -91 
Q 1206 -91 779 398 
Q 353 888 353 1747 
Q 353 2609 779 3096 
Q 1206 3584 1959 3584 
z
" transform="scale(0.015625)"/>
       <path id="DejaVuSans-63" d="M 3122 3366 
L 3122 2828 
Q 2878 2963 2633 3030 
Q 2388 3097 2138 3097 
Q 1578 3097 1268 2742 
Q 959 2388 959 1747 
Q 959 1106 1268 751 
Q 1578 397 2138 397 
Q 2388 397 2633 464 
Q 2878 531 3122 666 
L 3122 134 
Q 2881 22 2623 -34 
Q 2366 -91 2075 -91 
Q 1284 -91 818 406 
Q 353 903 353 1747 
Q 353 2603 823 3093 
Q 1294 3584 2113 3584 
Q 2378 3584 2631 3529 
Q 2884 3475 3122 3366 
z
" transform="scale(0.015625)"/>
       <path id="DejaVuSans-68" d="M 3513 2113 
L 3513 0 
L 2938 0 
L 2938 2094 
Q 2938 2591 2744 2837 
Q 2550 3084 2163 3084 
Q 1697 3084 1428 2787 
Q 1159 2491 1159 1978 
L 1159 0 
L 581 0 
L 581 4863 
L 1159 4863 
L 1159 2956 
Q 1366 3272 1645 3428 
Q 1925 3584 2291 3584 
Q 2894 3584 3203 3211 
Q 3513 2838 3513 2113 
z
" transform="scale(0.015625)"/>
       <path id="DejaVuSans-73" d="M 2834 3397 
L 2834 2853 
Q 2591 2978 2328 3040 
Q 2066 3103 1784 3103 
Q 1356 3103 1142 2972 
Q 928 2841 928 2578 
Q 928 2378 1081 2264 
Q 1234 2150 1697 2047 
L 1894 2003 
Q 2506 1872 2764 1633 
Q 3022 1394 3022 966 
Q 3022 478 2636 193 
Q 2250 -91 1575 -91 
Q 1294 -91 989 -36 
Q 684 19 347 128 
L 347 722 
Q 666 556 975 473 
Q 1284 391 1588 391 
Q 1994 391 2212 530 
Q 2431 669 2431 922 
Q 2431 1156 2273 1281 
Q 2116 1406 1581 1522 
L 1381 1569 
Q 847 1681 609 1914 
Q 372 2147 372 2553 
Q 372 3047 722 3315 
Q 1072 3584 1716 3584 
Q 2034 3584 2315 3537 
Q 2597 3491 2834 3397 
z
" transform="scale(0.015625)"/>
      </defs>
      <use xlink:href="#DejaVuSans-45"/>
      <use xlink:href="#DejaVuSans-70" x="63.183594"/>
      <use xlink:href="#DejaVuSans-6f" x="126.660156"/>
      <use xlink:href="#DejaVuSans-63" x="187.841797"/>
      <use xlink:href="#DejaVuSans-68" x="242.822266"/>
      <use xlink:href="#DejaVuSans-73" x="306.201172"/>
     </g>
    </g>
   </g>
   <g id="matplotlib.axis_2">
    <g id="ytick_1">
     <g id="line2d_11">
      <defs>
       <path id="mc475cb2e21" d="M 0 0 
L -3.5 0 
" style="stroke: #000000; stroke-width: 0.8"/>
      </defs>
      <g>
       <use xlink:href="#mc475cb2e21" x="57.6" y="282.700766" style="stroke: #000000; stroke-width: 0.8"/>
      </g>
     </g>
     <g id="text_12">
      <!-- 10 -->
      <g transform="translate(37.875 286.499985) scale(0.1 -0.1)">
       <use xlink:href="#DejaVuSans-31"/>
       <use xlink:href="#DejaVuSans-30" x="63.623047"/>
      </g>
     </g>
    </g>
    <g id="ytick_2">
     <g id="line2d_12">
      <g>
       <use xlink:href="#mc475cb2e21" x="57.6" y="251.263191" style="stroke: #000000; stroke-width: 0.8"/>
      </g>
     </g>
     <g id="text_13">
      <!-- 20 -->
      <g transform="translate(37.875 255.06241) scale(0.1 -0.1)">
       <use xlink:href="#DejaVuSans-32"/>
       <use xlink:href="#DejaVuSans-30" x="63.623047"/>
      </g>
     </g>
    </g>
    <g id="ytick_3">
     <g id="line2d_13">
      <g>
       <use xlink:href="#mc475cb2e21" x="57.6" y="219.825616" style="stroke: #000000; stroke-width: 0.8"/>
      </g>
     </g>
     <g id="text_14">
      <!-- 30 -->
      <g transform="translate(37.875 223.624835) scale(0.1 -0.1)">
       <use xlink:href="#DejaVuSans-33"/>
       <use xlink:href="#DejaVuSans-30" x="63.623047"/>
      </g>
     </g>
    </g>
    <g id="ytick_4">
     <g id="line2d_14">
      <g>
       <use xlink:href="#mc475cb2e21" x="57.6" y="188.388041" style="stroke: #000000; stroke-width: 0.8"/>
      </g>
     </g>
     <g id="text_15">
      <!-- 40 -->
      <g transform="translate(37.875 192.18726) scale(0.1 -0.1)">
       <use xlink:href="#DejaVuSans-34"/>
       <use xlink:href="#DejaVuSans-30" x="63.623047"/>
      </g>
     </g>
    </g>
    <g id="ytick_5">
     <g id="line2d_15">
      <g>
       <use xlink:href="#mc475cb2e21" x="57.6" y="156.950466" style="stroke: #000000; stroke-width: 0.8"/>
      </g>
     </g>
     <g id="text_16">
      <!-- 50 -->
      <g transform="translate(37.875 160.749685) scale(0.1 -0.1)">
       <defs>
        <path id="DejaVuSans-35" d="M 691 4666 
L 3169 4666 
L 3169 4134 
L 1269 4134 
L 1269 2991 
Q 1406 3038 1543 3061 
Q 1681 3084 1819 3084 
Q 2600 3084 3056 2656 
Q 3513 2228 3513 1497 
Q 3513 744 3044 326 
Q 2575 -91 1722 -91 
Q 1428 -91 1123 -41 
Q 819 9 494 109 
L 494 744 
Q 775 591 1075 516 
Q 1375 441 1709 441 
Q 2250 441 2565 725 
Q 2881 1009 2881 1497 
Q 2881 1984 2565 2268 
Q 2250 2553 1709 2553 
Q 1456 2553 1204 2497 
Q 953 2441 691 2322 
L 691 4666 
z
" transform="scale(0.015625)"/>
       </defs>
       <use xlink:href="#DejaVuSans-35"/>
       <use xlink:href="#DejaVuSans-30" x="63.623047"/>
      </g>
     </g>
    </g>
    <g id="ytick_6">
     <g id="line2d_16">
      <g>
       <use xlink:href="#mc475cb2e21" x="57.6" y="125.512891" style="stroke: #000000; stroke-width: 0.8"/>
      </g>
     </g>
     <g id="text_17">
      <!-- 60 -->
      <g transform="translate(37.875 129.312109) scale(0.1 -0.1)">
       <use xlink:href="#DejaVuSans-36"/>
       <use xlink:href="#DejaVuSans-30" x="63.623047"/>
      </g>
     </g>
    </g>
    <g id="ytick_7">
     <g id="line2d_17">
      <g>
       <use xlink:href="#mc475cb2e21" x="57.6" y="94.075316" style="stroke: #000000; stroke-width: 0.8"/>
      </g>
     </g>
     <g id="text_18">
      <!-- 70 -->
      <g transform="translate(37.875 97.874534) scale(0.1 -0.1)">
       <use xlink:href="#DejaVuSans-37"/>
       <use xlink:href="#DejaVuSans-30" x="63.623047"/>
      </g>
     </g>
    </g>
    <g id="ytick_8">
     <g id="line2d_18">
      <g>
       <use xlink:href="#mc475cb2e21" x="57.6" y="62.63774" style="stroke: #000000; stroke-width: 0.8"/>
      </g>
     </g>
     <g id="text_19">
      <!-- 80 -->
      <g transform="translate(37.875 66.436959) scale(0.1 -0.1)">
       <defs>
        <path id="DejaVuSans-38" d="M 2034 2216 
Q 1584 2216 1326 1975 
Q 1069 1734 1069 1313 
Q 1069 891 1326 650 
Q 1584 409 2034 409 
Q 2484 409 2743 651 
Q 3003 894 3003 1313 
Q 3003 1734 2745 1975 
Q 2488 2216 2034 2216 
z
M 1403 2484 
Q 997 2584 770 2862 
Q 544 3141 544 3541 
Q 544 4100 942 4425 
Q 1341 4750 2034 4750 
Q 2731 4750 3128 4425 
Q 3525 4100 3525 3541 
Q 3525 3141 3298 2862 
Q 3072 2584 2669 2484 
Q 3125 2378 3379 2068 
Q 3634 1759 3634 1313 
Q 3634 634 3220 271 
Q 2806 -91 2034 -91 
Q 1263 -91 848 271 
Q 434 634 434 1313 
Q 434 1759 690 2068 
Q 947 2378 1403 2484 
z
M 1172 3481 
Q 1172 3119 1398 2916 
Q 1625 2713 2034 2713 
Q 2441 2713 2670 2916 
Q 2900 3119 2900 3481 
Q 2900 3844 2670 4047 
Q 2441 4250 2034 4250 
Q 1625 4250 1398 4047 
Q 1172 3844 1172 3481 
z
" transform="scale(0.015625)"/>
       </defs>
       <use xlink:href="#DejaVuSans-38"/>
       <use xlink:href="#DejaVuSans-30" x="63.623047"/>
      </g>
     </g>
    </g>
    <g id="text_20">
     <!-- Accuracy -->
     <g transform="translate(31.795312 197.356125) rotate(-90) scale(0.1 -0.1)">
      <defs>
       <path id="DejaVuSans-41" d="M 2188 4044 
L 1331 1722 
L 3047 1722 
L 2188 4044 
z
M 1831 4666 
L 2547 4666 
L 4325 0 
L 3669 0 
L 3244 1197 
L 1141 1197 
L 716 0 
L 50 0 
L 1831 4666 
z
" transform="scale(0.015625)"/>
       <path id="DejaVuSans-75" d="M 544 1381 
L 544 3500 
L 1119 3500 
L 1119 1403 
Q 1119 906 1312 657 
Q 1506 409 1894 409 
Q 2359 409 2629 706 
Q 2900 1003 2900 1516 
L 2900 3500 
L 3475 3500 
L 3475 0 
L 2900 0 
L 2900 538 
Q 2691 219 2414 64 
Q 2138 -91 1772 -91 
Q 1169 -91 856 284 
Q 544 659 544 1381 
z
M 1991 3584 
L 1991 3584 
z
" transform="scale(0.015625)"/>
       <path id="DejaVuSans-72" d="M 2631 2963 
Q 2534 3019 2420 3045 
Q 2306 3072 2169 3072 
Q 1681 3072 1420 2755 
Q 1159 2438 1159 1844 
L 1159 0 
L 581 0 
L 581 3500 
L 1159 3500 
L 1159 2956 
Q 1341 3275 1631 3429 
Q 1922 3584 2338 3584 
Q 2397 3584 2469 3576 
Q 2541 3569 2628 3553 
L 2631 2963 
z
" transform="scale(0.015625)"/>
       <path id="DejaVuSans-61" d="M 2194 1759 
Q 1497 1759 1228 1600 
Q 959 1441 959 1056 
Q 959 750 1161 570 
Q 1363 391 1709 391 
Q 2188 391 2477 730 
Q 2766 1069 2766 1631 
L 2766 1759 
L 2194 1759 
z
M 3341 1997 
L 3341 0 
L 2766 0 
L 2766 531 
Q 2569 213 2275 61 
Q 1981 -91 1556 -91 
Q 1019 -91 701 211 
Q 384 513 384 1019 
Q 384 1609 779 1909 
Q 1175 2209 1959 2209 
L 2766 2209 
L 2766 2266 
Q 2766 2663 2505 2880 
Q 2244 3097 1772 3097 
Q 1472 3097 1187 3025 
Q 903 2953 641 2809 
L 641 3341 
Q 956 3463 1253 3523 
Q 1550 3584 1831 3584 
Q 2591 3584 2966 3190 
Q 3341 2797 3341 1997 
z
" transform="scale(0.015625)"/>
       <path id="DejaVuSans-79" d="M 2059 -325 
Q 1816 -950 1584 -1140 
Q 1353 -1331 966 -1331 
L 506 -1331 
L 506 -850 
L 844 -850 
Q 1081 -850 1212 -737 
Q 1344 -625 1503 -206 
L 1606 56 
L 191 3500 
L 800 3500 
L 1894 763 
L 2988 3500 
L 3597 3500 
L 2059 -325 
z
" transform="scale(0.015625)"/>
      </defs>
      <use xlink:href="#DejaVuSans-41"/>
      <use xlink:href="#DejaVuSans-63" x="66.658203"/>
      <use xlink:href="#DejaVuSans-63" x="121.638672"/>
      <use xlink:href="#DejaVuSans-75" x="176.619141"/>
      <use xlink:href="#DejaVuSans-72" x="239.998047"/>
      <use xlink:href="#DejaVuSans-61" x="281.111328"/>
      <use xlink:href="#DejaVuSans-63" x="342.390625"/>
      <use xlink:href="#DejaVuSans-79" x="397.371094"/>
     </g>
    </g>
   </g>
   <g id="line2d_19">
    <path d="M 73.832727 295.488 
L 77.090131 249.117577 
L 79.261733 225.067832 
L 82.519137 201.434635 
L 83.604938 194.392618 
L 84.690739 188.120822 
L 85.77654 181.039508 
L 86.862341 176.182402 
L 87.948142 172.299862 
L 89.033943 168.967479 
L 90.119745 163.780279 
L 92.291347 158.152953 
L 93.377148 155.920885 
L 94.462949 155.355009 
L 95.54875 183.326591 
L 96.634552 182.744996 
L 97.720353 180.002068 
L 98.806154 175.734417 
L 99.891955 172.96791 
L 102.063557 164.699828 
L 103.149358 163.2537 
L 104.23516 158.821002 
L 105.320961 158.074359 
L 107.492563 152.124798 
L 108.578364 149.50762 
L 109.664165 148.179382 
L 110.749967 143.605215 
L 111.835768 142.269118 
L 112.921569 139.659799 
L 114.00737 135.942306 
L 115.093171 134.7241 
L 116.178972 132.539189 
L 120.522177 122.298399 
L 121.607978 120.506457 
L 122.693779 117.700653 
L 123.77958 116.073759 
L 124.865382 114.053895 
L 125.951183 111.177356 
L 127.036984 108.937429 
L 128.122785 109.636915 
L 129.208586 107.011878 
L 130.294387 105.29853 
L 131.380189 102.712789 
L 132.46599 102.555601 
L 133.551791 101.761803 
L 134.637592 100.653628 
L 135.723393 98.853827 
L 136.809194 99.962001 
L 137.894995 99.364688 
L 138.980797 134.889147 
L 140.066598 137.45131 
L 141.152399 136.374573 
L 143.324001 136.41387 
L 144.409802 134.158224 
L 145.495604 132.719955 
L 146.581405 132.382001 
L 147.667206 130.904435 
L 148.753007 131.281686 
L 149.838808 128.75882 
L 152.01041 126.888285 
L 153.096212 125.379281 
L 154.182013 122.958588 
L 155.267814 122.887853 
L 156.353615 121.598913 
L 157.439416 121.001599 
L 158.525217 118.384421 
L 159.611019 118.541608 
L 160.69682 116.57676 
L 161.782621 116.097337 
L 162.868422 114.729802 
L 163.954223 115.727945 
L 165.040024 111.994733 
L 166.125825 111.020169 
L 167.211627 110.910137 
L 168.297428 109.243946 
L 169.383229 108.112193 
L 170.46903 106.100188 
L 171.554831 104.6462 
L 173.726434 103.687354 
L 174.812235 103.663776 
L 175.898036 102.139054 
L 176.983837 100.975863 
L 178.069638 98.94028 
L 180.24124 96.370259 
L 181.327042 96.032305 
L 182.412843 94.66477 
L 183.498644 93.485861 
L 184.584445 91.631044 
L 185.670246 90.239931 
L 186.756047 89.163194 
L 188.92765 88.322239 
L 190.013451 85.429982 
L 191.099252 85.697202 
L 192.185053 84.926981 
L 193.270854 82.364819 
L 194.356656 82.537725 
L 196.528258 79.056014 
L 197.614059 79.409687 
L 198.69986 79.087452 
L 199.785661 76.863243 
L 201.957264 75.495709 
L 203.043065 74.041721 
L 204.128866 74.811941 
L 205.214667 74.002424 
L 206.300468 71.943263 
L 207.386269 73.075015 
L 208.472071 71.133745 
L 209.557872 70.379243 
L 210.643673 69.836945 
L 211.729474 68.265066 
L 212.815275 69.758351 
L 213.901076 69.278928 
L 214.986877 68.288645 
L 216.072679 67.007563 
L 217.15848 68.0843 
L 218.244281 66.983985 
L 219.330082 67.266923 
L 221.501684 66.708906 
L 222.587486 66.732485 
L 223.673287 67.149032 
L 224.759088 66.504562 
L 225.844889 103.522307 
L 226.93069 108.701647 
L 228.016491 109.094617 
L 229.102292 108.92171 
L 230.188094 108.481584 
L 231.273895 108.5366 
L 232.359696 108.92171 
L 233.445497 107.805676 
L 234.531298 108.02574 
L 235.617099 106.72108 
L 236.702901 105.660062 
L 238.874503 105.243514 
L 241.046105 104.481153 
L 242.131906 103.74237 
L 243.217708 103.341541 
L 244.303509 102.657774 
L 245.38931 101.588896 
L 246.475111 101.431708 
L 247.560912 101.054457 
L 248.646713 99.663345 
L 249.732514 100.009158 
L 250.818316 99.671204 
L 251.904117 98.704498 
L 254.075719 98.743795 
L 255.16152 97.156198 
L 257.333123 96.637478 
L 258.418924 97.800668 
L 259.504725 95.859398 
L 260.590526 95.906554 
L 261.676327 93.784518 
L 262.762128 93.360111 
L 263.847929 94.389691 
L 264.933731 92.778516 
L 266.019532 92.731359 
L 267.105333 92.33053 
L 268.191134 91.764654 
L 269.276935 90.915839 
L 270.362736 89.422554 
L 271.448538 90.177056 
L 272.534339 89.681914 
L 273.62014 90.617182 
L 274.705941 88.668053 
L 275.791742 89.021725 
L 276.877543 87.66991 
L 277.963344 87.096174 
L 279.049146 87.386971 
L 280.134947 86.695345 
L 281.220748 86.483141 
L 282.306549 86.475282 
L 284.478151 85.469279 
L 285.563953 83.213633 
L 286.649754 83.763791 
L 287.735555 84.620465 
L 288.821356 82.48271 
L 289.907157 83.135039 
L 290.992958 82.333381 
L 292.07876 81.083738 
L 293.164561 81.405973 
L 294.250362 80.525721 
L 295.336163 79.040295 
L 296.421964 79.079592 
L 297.507765 80.219204 
L 298.593566 79.040295 
L 299.679368 78.914545 
L 300.765169 77.130463 
L 301.85097 77.664901 
L 302.936771 77.256213 
L 304.022572 75.597881 
L 305.108373 75.000567 
L 306.194175 76.234492 
L 307.279976 75.802225 
L 308.365777 74.3168 
L 309.451578 74.741207 
L 310.537379 74.788363 
L 311.62318 73.436547 
L 312.708981 73.853095 
L 313.794783 72.021857 
L 314.880584 71.518855 
L 315.966385 72.76064 
L 317.052186 70.300649 
L 318.137987 71.676043 
L 319.223788 69.624741 
L 320.30959 69.939117 
L 321.395391 68.422254 
L 322.481192 69.106022 
L 323.566993 69.12174 
L 324.652794 68.86238 
L 325.738595 67.895675 
L 326.824396 67.974269 
L 327.910198 66.370952 
L 328.995999 66.00942 
L 330.0818 65.938686 
L 332.253402 64.382526 
L 333.339203 64.885527 
L 334.425005 64.885527 
L 335.510806 63.777353 
L 336.596607 64.091728 
L 337.682408 63.80879 
L 338.768209 62.323365 
L 340.939811 61.623879 
L 342.025613 62.449115 
L 343.111414 61.757488 
L 344.197215 60.602157 
L 345.283016 59.195326 
L 346.368817 59.92625 
L 347.454618 59.808359 
L 348.54042 58.896669 
L 349.626221 59.01456 
L 350.712022 58.252199 
L 351.797823 58.7552 
L 352.883624 57.364087 
L 353.969425 57.544853 
L 355.055227 57.922104 
L 356.141028 56.29521 
L 357.226829 56.381663 
L 358.31263 56.617445 
L 359.398431 55.823646 
L 360.484232 55.501411 
L 361.570033 54.283205 
L 362.655835 54.8648 
L 363.741636 53.575859 
L 365.913238 54.982691 
L 366.999039 53.568 
L 368.08484 54.000267 
L 369.170642 54.959113 
L 370.256443 56.145881 
L 371.342244 55.941537 
L 372.428045 57.206899 
L 373.513846 57.536994 
L 374.599647 58.157886 
L 375.685448 57.678463 
L 376.77125 57.379806 
L 377.857051 57.812073 
L 378.942852 56.923961 
L 380.028653 58.142167 
L 381.114454 57.144024 
L 382.200255 57.513416 
L 383.286057 57.71776 
L 384.371858 58.542996 
L 385.457659 57.081149 
L 386.54346 57.812073 
L 388.715062 58.645168 
L 389.800863 57.269774 
L 390.886665 58.723762 
L 391.972466 57.340509 
L 393.058267 59.226764 
L 394.144068 58.425105 
L 395.229869 57.128305 
L 396.31567 57.128305 
L 397.401472 57.285493 
L 398.487273 57.725619 
L 398.487273 57.725619 
" clip-path="url(#p0d6528d864)" style="fill: none; stroke: #1f77b4; stroke-width: 1.5; stroke-linecap: square"/>
   </g>
   <g id="line2d_20">
    <path d="M 73.832727 281.380388 
L 74.918528 262.329218 
L 76.00433 251.326066 
L 77.090131 219.731303 
L 78.175932 214.386916 
L 80.347534 184.426906 
L 82.519137 163.552357 
L 83.604938 169.431183 
L 84.690739 148.33657 
L 85.77654 149.405448 
L 86.862341 142.080493 
L 87.948142 133.498035 
L 89.033943 134.032474 
L 90.119745 129.882714 
L 91.205546 127.46202 
L 92.291347 124.035325 
L 93.377148 123.595199 
L 94.462949 123.846699 
L 95.54875 157.767843 
L 96.634552 148.273695 
L 97.720353 154.466897 
L 98.806154 146.544628 
L 99.891955 141.483179 
L 100.977756 137.553482 
L 102.063557 134.4726 
L 103.149358 127.996459 
L 104.23516 126.959019 
L 105.320961 124.538326 
L 106.406762 120.640067 
L 107.492563 118.093623 
L 108.578364 120.231378 
L 109.664165 117.339121 
L 110.749967 114.981303 
L 111.835768 111.586045 
L 112.921569 111.114481 
L 114.00737 106.713221 
L 115.093171 101.368833 
L 116.178972 105.015592 
L 118.350575 97.250511 
L 119.436376 98.287951 
L 120.522177 94.609754 
L 121.607978 94.106753 
L 122.693779 92.409124 
L 123.77958 89.799805 
L 124.865382 89.925556 
L 125.951183 90.805808 
L 128.122785 85.964421 
L 129.208586 85.304232 
L 130.294387 86.090171 
L 131.380189 86.058734 
L 132.46599 84.361105 
L 133.551791 84.864106 
L 134.637592 85.115607 
L 135.723393 84.926981 
L 136.809194 84.29823 
L 137.894995 84.486855 
L 138.980797 114.88699 
L 140.066598 109.605478 
L 142.2382 103.066462 
L 143.324001 107.090472 
L 144.409802 100.677206 
L 145.495604 102.123335 
L 146.581405 104.041027 
L 147.667206 103.883839 
L 148.753007 102.626336 
L 149.838808 101.997584 
L 150.924609 103.380838 
L 152.01041 100.11133 
L 153.096212 100.928707 
L 154.182013 100.205643 
L 156.353615 93.603752 
L 157.439416 95.332819 
L 158.525217 93.792377 
L 159.611019 92.660625 
L 160.69682 97.627762 
L 161.782621 91.93756 
L 162.868422 91.308809 
L 163.954223 91.93756 
L 165.040024 87.819238 
L 166.125825 88.385114 
L 167.211627 89.799805 
L 168.297428 83.795228 
L 169.383229 87.976426 
L 170.46903 87.190487 
L 172.640632 87.913551 
L 173.726434 85.147044 
L 174.812235 83.449415 
L 175.898036 83.795228 
L 176.983837 83.480853 
L 178.069638 80.934409 
L 180.24124 82.663476 
L 181.327042 82.160475 
L 182.412843 79.676906 
L 183.498644 78.042152 
L 184.584445 77.853527 
L 185.670246 76.344523 
L 186.756047 77.727776 
L 187.841849 75.967272 
L 188.92765 77.193338 
L 190.013451 79.23678 
L 191.099252 75.652897 
L 192.185053 75.810084 
L 193.270854 74.17533 
L 194.356656 74.112455 
L 195.442457 74.332518 
L 196.528258 73.137891 
L 197.614059 75.904397 
L 198.69986 72.603452 
L 199.785661 72.540577 
L 200.871462 72.792077 
L 201.957264 71.786075 
L 203.043065 71.251636 
L 204.128866 71.597449 
L 205.214667 70.622885 
L 206.300468 71.534574 
L 207.386269 70.528572 
L 208.472071 70.654322 
L 209.557872 69.64832 
L 210.643673 70.088446 
L 211.729474 69.051006 
L 213.901076 69.051006 
L 214.986877 68.516567 
L 216.072679 68.485129 
L 217.15848 68.327942 
L 218.244281 67.950691 
L 219.330082 67.82494 
L 221.501684 68.296504 
L 222.587486 68.893818 
L 223.673287 67.69919 
L 224.759088 68.013566 
L 225.844889 95.427131 
L 226.93069 94.515442 
L 228.016491 95.081318 
L 229.102292 93.603752 
L 230.188094 95.175631 
L 231.273895 94.358254 
L 232.359696 92.566312 
L 233.445497 89.956993 
L 234.531298 92.786375 
L 235.617099 92.000436 
L 236.702901 91.56031 
L 237.788702 89.139616 
L 238.874503 88.44799 
L 239.960304 90.711495 
L 241.046105 92.189061 
L 242.131906 90.082744 
L 243.217708 88.919553 
L 244.303509 85.084169 
L 245.38931 85.33567 
L 246.475111 88.039301 
L 247.560912 85.58717 
L 248.646713 87.033299 
L 249.732514 86.090171 
L 250.818316 87.693488 
L 251.904117 82.47485 
L 252.989918 86.718923 
L 254.075719 85.524295 
L 255.16152 86.530298 
L 256.247321 82.537725 
L 257.333123 86.907548 
L 258.418924 83.606603 
L 259.504725 84.109604 
L 260.590526 83.166477 
L 261.676327 85.304232 
L 262.762128 80.054157 
L 263.847929 82.600601 
L 264.933731 84.455418 
L 266.019532 86.907548 
L 267.105333 85.46142 
L 269.276935 83.26079 
L 270.362736 80.651471 
L 271.448538 82.034724 
L 272.534339 84.109604 
L 273.62014 87.630613 
L 274.705941 85.555733 
L 275.791742 78.136465 
L 276.877543 80.620033 
L 277.963344 82.160475 
L 279.049146 79.802656 
L 280.134947 82.632038 
L 281.220748 80.117032 
L 282.306549 83.669478 
L 283.39235 78.702341 
L 284.478151 78.450841 
L 285.563953 80.777221 
L 286.649754 81.248785 
L 287.735555 79.299655 
L 288.821356 76.941837 
L 289.907157 82.066162 
L 290.992958 77.602026 
L 292.07876 77.539151 
L 293.164561 76.25021 
L 294.250362 78.230778 
L 295.336163 79.456843 
L 296.421964 76.564586 
L 297.507765 75.810084 
L 298.593566 76.155898 
L 299.679368 75.684334 
L 300.765169 77.94784 
L 301.85097 75.432834 
L 304.022572 74.741207 
L 305.108373 76.344523 
L 306.194175 75.464271 
L 307.279976 74.081018 
L 308.365777 72.949265 
L 309.451578 75.715772 
L 310.537379 74.804082 
L 311.62318 77.319088 
L 312.708981 74.678332 
L 313.794783 73.515141 
L 314.880584 71.84895 
L 315.966385 73.860955 
L 317.052186 72.037575 
L 318.137987 72.100451 
L 319.223788 70.402821 
L 320.30959 76.313086 
L 321.395391 70.245634 
L 322.481192 69.302506 
L 323.566993 70.68576 
L 324.652794 72.289076 
L 325.738595 71.9747 
L 326.824396 70.088446 
L 327.910198 69.994133 
L 328.995999 71.220198 
L 330.0818 69.333944 
L 331.167601 71.786075 
L 332.253402 69.868383 
L 333.339203 70.245634 
L 334.425005 72.351951 
L 335.510806 69.77407 
L 336.596607 68.548005 
L 337.682408 67.730628 
L 338.768209 67.447689 
L 339.85401 70.151321 
L 340.939811 68.988131 
L 342.025613 68.642317 
L 343.111414 69.711195 
L 345.283016 67.510565 
L 346.368817 68.579442 
L 347.454618 69.113881 
L 348.54042 67.007563 
L 349.626221 66.378812 
L 350.712022 67.416252 
L 351.797823 67.353377 
L 352.883624 65.404247 
L 353.969425 66.441687 
L 355.055227 64.366807 
L 356.141028 66.347374 
L 357.226829 65.907248 
L 358.31263 66.127311 
L 359.398431 65.309934 
L 361.570033 65.215622 
L 362.655835 64.178182 
L 363.741636 63.769493 
L 364.827437 63.800931 
L 365.913238 63.989556 
L 366.999039 63.360805 
L 368.08484 64.335369 
L 369.170642 64.398245 
L 370.256443 65.341372 
L 371.342244 65.938686 
L 372.428045 66.693188 
L 373.513846 66.032999 
L 374.599647 66.190186 
L 375.685448 65.907248 
L 376.77125 68.673755 
L 377.857051 66.66175 
L 378.942852 69.271069 
L 380.028653 66.504562 
L 381.114454 66.724625 
L 382.200255 67.57344 
L 383.286057 67.321939 
L 384.371858 66.473125 
L 385.457659 67.227626 
L 386.54346 68.579442 
L 387.629261 68.705192 
L 388.715062 67.039001 
L 389.800863 67.667752 
L 390.886665 65.372809 
L 391.972466 66.221624 
L 395.229869 66.190186 
L 396.31567 67.416252 
L 397.401472 66.724625 
L 398.487273 67.321939 
L 398.487273 67.321939 
" clip-path="url(#p0d6528d864)" style="fill: none; stroke: #ff7f0e; stroke-width: 1.5; stroke-linecap: square"/>
   </g>
   <g id="line2d_21">
    <path d="M 73.832727 283.784821 
L 74.918528 271.751818 
L 76.00433 265.139086 
L 77.090131 243.241189 
L 78.175932 243.458 
L 79.261733 231.641808 
L 80.347534 221.668508 
L 81.433335 217.874318 
L 82.519137 204.865667 
L 83.604938 210.611154 
L 84.690739 200.204233 
L 85.77654 196.735259 
L 86.862341 187.195581 
L 87.948142 185.5695 
L 89.033943 183.509797 
L 91.205546 181.016472 
L 92.291347 177.655903 
L 93.377148 175.270984 
L 94.462949 174.40374 
L 95.54875 202.914369 
L 96.634552 195.651205 
L 97.720353 206.274937 
L 98.806154 193.699907 
L 99.891955 192.832664 
L 100.977756 184.37704 
L 102.063557 184.37704 
L 103.149358 182.967769 
L 104.23516 176.680254 
L 105.320961 176.897065 
L 106.406762 175.379389 
L 107.492563 171.693604 
L 108.578364 172.777659 
L 109.664165 174.295335 
L 111.835768 165.406089 
L 112.921569 163.129575 
L 114.00737 163.888413 
L 115.093171 163.02117 
L 116.178972 158.684953 
L 117.264773 151.747005 
L 118.350575 155.758006 
L 119.436376 153.806708 
L 120.522177 152.289032 
L 121.607978 150.120924 
L 122.693779 149.362086 
L 123.77958 145.025868 
L 124.865382 147.410788 
L 125.951183 148.928464 
L 127.036984 140.689651 
L 128.122785 141.556895 
L 129.208586 141.882111 
L 130.294387 141.556895 
L 131.380189 139.388786 
L 132.46599 139.171975 
L 133.551791 139.171975 
L 134.637592 139.822408 
L 135.723393 140.256029 
L 136.809194 138.196326 
L 137.894995 139.171975 
L 138.980797 169.525496 
L 140.066598 167.140576 
L 141.152399 166.598549 
L 142.2382 161.503494 
L 143.324001 158.684953 
L 144.409802 158.359736 
L 145.495604 162.479143 
L 146.581405 161.720305 
L 147.667206 161.503494 
L 148.753007 157.167277 
L 149.838808 158.901764 
L 150.924609 155.974817 
L 152.01041 159.660602 
L 153.096212 157.817709 
L 154.182013 160.41944 
L 155.267814 154.565546 
L 156.353615 149.795707 
L 157.439416 151.313383 
L 158.525217 152.180627 
L 159.611019 155.215979 
L 160.69682 151.6386 
L 161.782621 150.44614 
L 162.868422 151.530194 
L 163.954223 150.012518 
L 165.040024 145.242679 
L 166.125825 147.519193 
L 167.211627 146.001517 
L 168.297428 140.798057 
L 169.383229 147.736004 
L 170.46903 146.001517 
L 171.554831 145.242679 
L 172.640632 146.760355 
L 173.726434 147.627599 
L 174.812235 143.182976 
L 175.898036 142.207327 
L 176.983837 141.6653 
L 178.069638 140.689651 
L 179.155439 144.917463 
L 180.24124 139.714002 
L 181.327042 142.966165 
L 182.412843 135.377785 
L 183.498644 135.919812 
L 184.584445 135.48619 
L 185.670246 136.353434 
L 186.756047 133.643298 
L 187.841849 133.534893 
L 188.92765 138.521542 
L 190.013451 138.413137 
L 191.099252 134.510541 
L 192.185053 133.426487 
L 193.270854 126.380134 
L 194.356656 130.607946 
L 195.442457 132.88446 
L 196.528258 128.873459 
L 197.614059 129.957513 
L 198.69986 128.223026 
L 199.785661 127.680999 
L 200.871462 127.89781 
L 201.957264 128.873459 
L 203.043065 129.09027 
L 204.128866 129.632297 
L 205.214667 128.439837 
L 206.300468 128.114621 
L 207.386269 126.596945 
L 208.472071 129.198675 
L 209.557872 127.247378 
L 210.643673 126.70535 
L 211.729474 125.729702 
L 212.815275 126.054918 
L 214.986877 125.512891 
L 216.072679 126.380134 
L 217.15848 124.862458 
L 218.244281 123.995215 
L 219.330082 122.91116 
L 220.415883 123.236377 
L 221.501684 121.068268 
L 222.587486 122.585944 
L 223.673287 122.585944 
L 224.759088 123.127971 
L 225.844889 157.167277 
L 228.016491 156.408439 
L 229.102292 153.373087 
L 230.188094 154.673952 
L 231.273895 152.505843 
L 232.359696 151.855411 
L 233.445497 147.84441 
L 234.531298 153.373087 
L 235.617099 147.519193 
L 236.702901 145.351085 
L 237.788702 150.44614 
L 238.874503 145.351085 
L 239.960304 150.879762 
L 241.046105 147.410788 
L 242.131906 146.760355 
L 243.217708 148.386437 
L 244.303509 147.627599 
L 245.38931 144.483841 
L 246.475111 139.171975 
L 247.560912 144.483841 
L 248.646713 145.025868 
L 249.732514 143.833409 
L 250.818316 141.448489 
L 251.904117 139.497191 
L 252.989918 145.45949 
L 254.075719 139.822408 
L 255.16152 144.050219 
L 256.247321 141.990516 
L 257.333123 145.351085 
L 258.418924 142.966165 
L 259.504725 147.085572 
L 260.590526 145.784706 
L 261.676327 147.085572 
L 262.762128 140.689651 
L 263.847929 141.340084 
L 264.933731 138.738353 
L 266.019532 148.06122 
L 267.105333 144.050219 
L 268.191134 144.375436 
L 269.276935 139.605597 
L 270.362736 137.545894 
L 271.448538 139.605597 
L 272.534339 143.399787 
L 273.62014 148.928464 
L 274.705941 146.435139 
L 275.791742 134.402136 
L 276.877543 141.231678 
L 277.963344 138.087921 
L 279.049146 138.304732 
L 280.134947 138.738353 
L 281.220748 132.234027 
L 282.306549 142.749354 
L 283.39235 137.87111 
L 284.478151 135.160974 
L 285.563953 140.364435 
L 286.649754 141.340084 
L 287.735555 138.413137 
L 288.821356 132.667649 
L 289.907157 140.364435 
L 290.992958 132.342433 
L 292.07876 138.304732 
L 293.164561 135.703001 
L 294.250362 131.583595 
L 295.336163 132.342433 
L 296.421964 127.572594 
L 297.507765 133.318082 
L 298.593566 129.957513 
L 299.679368 132.342433 
L 300.765169 136.461839 
L 301.85097 139.388786 
L 302.936771 129.307081 
L 304.022572 129.523892 
L 305.108373 134.835758 
L 306.194175 128.981864 
L 307.279976 129.740703 
L 308.365777 128.331432 
L 309.451578 130.824757 
L 310.537379 130.065919 
L 311.62318 134.727352 
L 312.708981 129.632297 
L 313.794783 131.908811 
L 314.880584 128.114621 
L 315.966385 134.944163 
L 317.052186 129.09027 
L 318.137987 128.873459 
L 319.223788 126.70535 
L 320.30959 130.607946 
L 321.395391 124.212026 
L 322.481192 125.187674 
L 323.566993 129.740703 
L 324.652794 126.813756 
L 325.738595 129.957513 
L 326.824396 128.981864 
L 327.910198 126.596945 
L 328.995999 125.29608 
L 330.0818 123.778404 
L 331.167601 128.223026 
L 332.253402 125.946512 
L 333.339203 127.355783 
L 334.425005 124.970864 
L 335.510806 124.212026 
L 336.596607 120.526241 
L 337.682408 120.634646 
L 338.768209 121.610295 
L 339.85401 127.138972 
L 340.939811 121.827106 
L 342.025613 124.862458 
L 343.111414 124.645647 
L 344.197215 122.694349 
L 345.283016 121.068268 
L 346.368817 120.30943 
L 347.454618 122.802755 
L 348.54042 121.176673 
L 349.626221 118.358132 
L 350.712022 120.417835 
L 351.797823 119.442187 
L 352.883624 117.165672 
L 353.969425 121.393484 
L 355.055227 119.550592 
L 356.141028 123.778404 
L 357.226829 114.021915 
L 358.31263 118.358132 
L 359.398431 116.190024 
L 360.484232 114.563942 
L 361.570033 116.190024 
L 362.655835 116.51524 
L 363.741636 117.382483 
L 364.827437 114.13032 
L 365.913238 116.190024 
L 366.999039 114.347131 
L 368.08484 114.021915 
L 369.170642 119.333781 
L 370.256443 117.816105 
L 371.342244 117.057267 
L 372.428045 122.369133 
L 373.513846 120.417835 
L 374.599647 119.875808 
L 375.685448 118.791754 
L 376.77125 122.585944 
L 377.857051 122.477539 
L 378.942852 124.862458 
L 381.114454 117.165672 
L 382.200255 117.382483 
L 383.286057 122.802755 
L 384.371858 119.442187 
L 385.457659 123.019566 
L 386.54346 122.585944 
L 387.629261 123.453187 
L 389.800863 124.645647 
L 390.886665 120.30943 
L 391.972466 118.466538 
L 393.058267 119.767403 
L 394.144068 122.694349 
L 395.229869 120.092619 
L 396.31567 118.249727 
L 397.401472 123.127971 
L 398.487273 124.970864 
L 398.487273 124.970864 
" clip-path="url(#p0d6528d864)" style="fill: none; stroke: #2ca02c; stroke-width: 1.5; stroke-linecap: square"/>
   </g>
   <g id="line2d_22">
    <path d="M 368.08484 63.29793 
L 369.170642 64.649745 
L 370.256443 64.146744 
L 371.342244 65.907248 
L 372.428045 66.190186 
M 374.599647 67.416252 
L 376.77125 66.253062 
L 377.857051 65.970123 
L 378.942852 65.121309 
L 380.028653 66.032999 
L 381.114454 68.830943 
L 382.200255 67.133314 
L 383.286057 68.893818 
L 384.371858 67.101876 
L 385.457659 70.528572 
L 386.54346 69.271069 
L 387.629261 67.164751 
L 388.715062 67.730628 
L 389.800863 68.579442 
L 391.972466 71.817512 
L 393.058267 68.642317 
L 395.229869 67.856378 
L 396.31567 72.257638 
L 398.487273 68.013566 
L 398.487273 68.013566 
" clip-path="url(#p0d6528d864)" style="fill: none; stroke: #d62728; stroke-width: 1.5; stroke-linecap: square"/>
   </g>
   <g id="line2d_23">
    <path d="M 368.08484 114.238726 
L 369.170642 115.32278 
L 370.256443 119.008565 
L 371.342244 116.51524 
L 372.428045 118.032916 
L 373.513846 118.249727 
L 374.599647 120.092619 
L 375.685448 116.406834 
L 376.77125 120.526241 
L 377.857051 114.238726 
L 378.942852 112.829455 
L 381.114454 121.935511 
L 382.200255 120.851457 
L 383.286057 120.959863 
L 384.371858 117.599294 
L 385.457659 122.585944 
L 386.54346 120.526241 
L 387.629261 120.092619 
L 388.715062 119.333781 
L 390.886665 120.526241 
L 391.972466 123.453187 
L 393.058267 117.490889 
L 394.144068 116.623645 
L 395.229869 118.032916 
L 396.31567 122.260728 
L 397.401472 118.900159 
L 398.487273 117.382483 
L 398.487273 117.382483 
" clip-path="url(#p0d6528d864)" style="fill: none; stroke: #9467bd; stroke-width: 1.5; stroke-linecap: square"/>
   </g>
   <g id="patch_3">
    <path d="M 57.6 307.584 
L 57.6 41.472 
" style="fill: none; stroke: #000000; stroke-width: 0.8; stroke-linejoin: miter; stroke-linecap: square"/>
   </g>
   <g id="patch_4">
    <path d="M 414.72 307.584 
L 414.72 41.472 
" style="fill: none; stroke: #000000; stroke-width: 0.8; stroke-linejoin: miter; stroke-linecap: square"/>
   </g>
   <g id="patch_5">
    <path d="M 57.6 307.584 
L 414.72 307.584 
" style="fill: none; stroke: #000000; stroke-width: 0.8; stroke-linejoin: miter; stroke-linecap: square"/>
   </g>
   <g id="patch_6">
    <path d="M 57.6 41.472 
L 414.72 41.472 
" style="fill: none; stroke: #000000; stroke-width: 0.8; stroke-linejoin: miter; stroke-linecap: square"/>
   </g>
   <g id="text_21">
    <!-- Learning Curves -->
    <g transform="translate(187.37625 35.472) scale(0.12 -0.12)">
     <defs>
      <path id="DejaVuSans-4c" d="M 628 4666 
L 1259 4666 
L 1259 531 
L 3531 531 
L 3531 0 
L 628 0 
L 628 4666 
z
" transform="scale(0.015625)"/>
      <path id="DejaVuSans-65" d="M 3597 1894 
L 3597 1613 
L 953 1613 
Q 991 1019 1311 708 
Q 1631 397 2203 397 
Q 2534 397 2845 478 
Q 3156 559 3463 722 
L 3463 178 
Q 3153 47 2828 -22 
Q 2503 -91 2169 -91 
Q 1331 -91 842 396 
Q 353 884 353 1716 
Q 353 2575 817 3079 
Q 1281 3584 2069 3584 
Q 2775 3584 3186 3129 
Q 3597 2675 3597 1894 
z
M 3022 2063 
Q 3016 2534 2758 2815 
Q 2500 3097 2075 3097 
Q 1594 3097 1305 2825 
Q 1016 2553 972 2059 
L 3022 2063 
z
" transform="scale(0.015625)"/>
      <path id="DejaVuSans-6e" d="M 3513 2113 
L 3513 0 
L 2938 0 
L 2938 2094 
Q 2938 2591 2744 2837 
Q 2550 3084 2163 3084 
Q 1697 3084 1428 2787 
Q 1159 2491 1159 1978 
L 1159 0 
L 581 0 
L 581 3500 
L 1159 3500 
L 1159 2956 
Q 1366 3272 1645 3428 
Q 1925 3584 2291 3584 
Q 2894 3584 3203 3211 
Q 3513 2838 3513 2113 
z
" transform="scale(0.015625)"/>
      <path id="DejaVuSans-69" d="M 603 3500 
L 1178 3500 
L 1178 0 
L 603 0 
L 603 3500 
z
M 603 4863 
L 1178 4863 
L 1178 4134 
L 603 4134 
L 603 4863 
z
" transform="scale(0.015625)"/>
      <path id="DejaVuSans-67" d="M 2906 1791 
Q 2906 2416 2648 2759 
Q 2391 3103 1925 3103 
Q 1463 3103 1205 2759 
Q 947 2416 947 1791 
Q 947 1169 1205 825 
Q 1463 481 1925 481 
Q 2391 481 2648 825 
Q 2906 1169 2906 1791 
z
M 3481 434 
Q 3481 -459 3084 -895 
Q 2688 -1331 1869 -1331 
Q 1566 -1331 1297 -1286 
Q 1028 -1241 775 -1147 
L 775 -588 
Q 1028 -725 1275 -790 
Q 1522 -856 1778 -856 
Q 2344 -856 2625 -561 
Q 2906 -266 2906 331 
L 2906 616 
Q 2728 306 2450 153 
Q 2172 0 1784 0 
Q 1141 0 747 490 
Q 353 981 353 1791 
Q 353 2603 747 3093 
Q 1141 3584 1784 3584 
Q 2172 3584 2450 3431 
Q 2728 3278 2906 2969 
L 2906 3500 
L 3481 3500 
L 3481 434 
z
" transform="scale(0.015625)"/>
      <path id="DejaVuSans-20" transform="scale(0.015625)"/>
      <path id="DejaVuSans-43" d="M 4122 4306 
L 4122 3641 
Q 3803 3938 3442 4084 
Q 3081 4231 2675 4231 
Q 1875 4231 1450 3742 
Q 1025 3253 1025 2328 
Q 1025 1406 1450 917 
Q 1875 428 2675 428 
Q 3081 428 3442 575 
Q 3803 722 4122 1019 
L 4122 359 
Q 3791 134 3420 21 
Q 3050 -91 2638 -91 
Q 1578 -91 968 557 
Q 359 1206 359 2328 
Q 359 3453 968 4101 
Q 1578 4750 2638 4750 
Q 3056 4750 3426 4639 
Q 3797 4528 4122 4306 
z
" transform="scale(0.015625)"/>
      <path id="DejaVuSans-76" d="M 191 3500 
L 800 3500 
L 1894 563 
L 2988 3500 
L 3597 3500 
L 2284 0 
L 1503 0 
L 191 3500 
z
" transform="scale(0.015625)"/>
     </defs>
     <use xlink:href="#DejaVuSans-4c"/>
     <use xlink:href="#DejaVuSans-65" x="53.962891"/>
     <use xlink:href="#DejaVuSans-61" x="115.486328"/>
     <use xlink:href="#DejaVuSans-72" x="176.765625"/>
     <use xlink:href="#DejaVuSans-6e" x="216.128906"/>
     <use xlink:href="#DejaVuSans-69" x="279.507812"/>
     <use xlink:href="#DejaVuSans-6e" x="307.291016"/>
     <use xlink:href="#DejaVuSans-67" x="370.669922"/>
     <use xlink:href="#DejaVuSans-20" x="434.146484"/>
     <use xlink:href="#DejaVuSans-43" x="465.933594"/>
     <use xlink:href="#DejaVuSans-75" x="535.757812"/>
     <use xlink:href="#DejaVuSans-72" x="599.136719"/>
     <use xlink:href="#DejaVuSans-76" x="640.25"/>
     <use xlink:href="#DejaVuSans-65" x="699.429688"/>
     <use xlink:href="#DejaVuSans-73" x="760.953125"/>
    </g>
   </g>
   <g id="legend_1">
    <g id="patch_7">
     <path d="M 214.18875 302.584 
L 407.72 302.584 
Q 409.72 302.584 409.72 300.584 
L 409.72 228.193375 
Q 409.72 226.193375 407.72 226.193375 
L 214.18875 226.193375 
Q 212.18875 226.193375 212.18875 228.193375 
L 212.18875 300.584 
Q 212.18875 302.584 214.18875 302.584 
z
" style="fill: #ffffff; opacity: 0.8; stroke: #cccccc; stroke-linejoin: miter"/>
    </g>
    <g id="line2d_24">
     <path d="M 216.18875 234.291812 
L 226.18875 234.291812 
L 236.18875 234.291812 
" style="fill: none; stroke: #1f77b4; stroke-width: 1.5; stroke-linecap: square"/>
    </g>
    <g id="text_22">
     <!-- Train Accuracy -->
     <g transform="translate(244.18875 237.791812) scale(0.1 -0.1)">
      <defs>
       <path id="DejaVuSans-54" d="M -19 4666 
L 3928 4666 
L 3928 4134 
L 2272 4134 
L 2272 0 
L 1638 0 
L 1638 4134 
L -19 4134 
L -19 4666 
z
" transform="scale(0.015625)"/>
      </defs>
      <use xlink:href="#DejaVuSans-54"/>
      <use xlink:href="#DejaVuSans-72" x="46.333984"/>
      <use xlink:href="#DejaVuSans-61" x="87.447266"/>
      <use xlink:href="#DejaVuSans-69" x="148.726562"/>
      <use xlink:href="#DejaVuSans-6e" x="176.509766"/>
      <use xlink:href="#DejaVuSans-20" x="239.888672"/>
      <use xlink:href="#DejaVuSans-41" x="271.675781"/>
      <use xlink:href="#DejaVuSans-63" x="338.333984"/>
      <use xlink:href="#DejaVuSans-63" x="393.314453"/>
      <use xlink:href="#DejaVuSans-75" x="448.294922"/>
      <use xlink:href="#DejaVuSans-72" x="511.673828"/>
      <use xlink:href="#DejaVuSans-61" x="552.787109"/>
      <use xlink:href="#DejaVuSans-63" x="614.066406"/>
      <use xlink:href="#DejaVuSans-79" x="669.046875"/>
     </g>
    </g>
    <g id="line2d_25">
     <path d="M 216.18875 248.969937 
L 226.18875 248.969937 
L 236.18875 248.969937 
" style="fill: none; stroke: #ff7f0e; stroke-width: 1.5; stroke-linecap: square"/>
    </g>
    <g id="text_23">
     <!-- Validation Accuracy -->
     <g transform="translate(244.18875 252.469937) scale(0.1 -0.1)">
      <defs>
       <path id="DejaVuSans-56" d="M 1831 0 
L 50 4666 
L 709 4666 
L 2188 738 
L 3669 4666 
L 4325 4666 
L 2547 0 
L 1831 0 
z
" transform="scale(0.015625)"/>
       <path id="DejaVuSans-6c" d="M 603 4863 
L 1178 4863 
L 1178 0 
L 603 0 
L 603 4863 
z
" transform="scale(0.015625)"/>
       <path id="DejaVuSans-64" d="M 2906 2969 
L 2906 4863 
L 3481 4863 
L 3481 0 
L 2906 0 
L 2906 525 
Q 2725 213 2448 61 
Q 2172 -91 1784 -91 
Q 1150 -91 751 415 
Q 353 922 353 1747 
Q 353 2572 751 3078 
Q 1150 3584 1784 3584 
Q 2172 3584 2448 3432 
Q 2725 3281 2906 2969 
z
M 947 1747 
Q 947 1113 1208 752 
Q 1469 391 1925 391 
Q 2381 391 2643 752 
Q 2906 1113 2906 1747 
Q 2906 2381 2643 2742 
Q 2381 3103 1925 3103 
Q 1469 3103 1208 2742 
Q 947 2381 947 1747 
z
" transform="scale(0.015625)"/>
       <path id="DejaVuSans-74" d="M 1172 4494 
L 1172 3500 
L 2356 3500 
L 2356 3053 
L 1172 3053 
L 1172 1153 
Q 1172 725 1289 603 
Q 1406 481 1766 481 
L 2356 481 
L 2356 0 
L 1766 0 
Q 1100 0 847 248 
Q 594 497 594 1153 
L 594 3053 
L 172 3053 
L 172 3500 
L 594 3500 
L 594 4494 
L 1172 4494 
z
" transform="scale(0.015625)"/>
      </defs>
      <use xlink:href="#DejaVuSans-56"/>
      <use xlink:href="#DejaVuSans-61" x="60.658203"/>
      <use xlink:href="#DejaVuSans-6c" x="121.9375"/>
      <use xlink:href="#DejaVuSans-69" x="149.720703"/>
      <use xlink:href="#DejaVuSans-64" x="177.503906"/>
      <use xlink:href="#DejaVuSans-61" x="240.980469"/>
      <use xlink:href="#DejaVuSans-74" x="302.259766"/>
      <use xlink:href="#DejaVuSans-69" x="341.46875"/>
      <use xlink:href="#DejaVuSans-6f" x="369.251953"/>
      <use xlink:href="#DejaVuSans-6e" x="430.433594"/>
      <use xlink:href="#DejaVuSans-20" x="493.8125"/>
      <use xlink:href="#DejaVuSans-41" x="525.599609"/>
      <use xlink:href="#DejaVuSans-63" x="592.257812"/>
      <use xlink:href="#DejaVuSans-63" x="647.238281"/>
      <use xlink:href="#DejaVuSans-75" x="702.21875"/>
      <use xlink:href="#DejaVuSans-72" x="765.597656"/>
      <use xlink:href="#DejaVuSans-61" x="806.710938"/>
      <use xlink:href="#DejaVuSans-63" x="867.990234"/>
      <use xlink:href="#DejaVuSans-79" x="922.970703"/>
     </g>
    </g>
    <g id="line2d_26">
     <path d="M 216.18875 263.648062 
L 226.18875 263.648062 
L 236.18875 263.648062 
" style="fill: none; stroke: #2ca02c; stroke-width: 1.5; stroke-linecap: square"/>
    </g>
    <g id="text_24">
     <!-- Robust Validation Accuracy -->
     <g transform="translate(244.18875 267.148062) scale(0.1 -0.1)">
      <defs>
       <path id="DejaVuSans-52" d="M 2841 2188 
Q 3044 2119 3236 1894 
Q 3428 1669 3622 1275 
L 4263 0 
L 3584 0 
L 2988 1197 
Q 2756 1666 2539 1819 
Q 2322 1972 1947 1972 
L 1259 1972 
L 1259 0 
L 628 0 
L 628 4666 
L 2053 4666 
Q 2853 4666 3247 4331 
Q 3641 3997 3641 3322 
Q 3641 2881 3436 2590 
Q 3231 2300 2841 2188 
z
M 1259 4147 
L 1259 2491 
L 2053 2491 
Q 2509 2491 2742 2702 
Q 2975 2913 2975 3322 
Q 2975 3731 2742 3939 
Q 2509 4147 2053 4147 
L 1259 4147 
z
" transform="scale(0.015625)"/>
       <path id="DejaVuSans-62" d="M 3116 1747 
Q 3116 2381 2855 2742 
Q 2594 3103 2138 3103 
Q 1681 3103 1420 2742 
Q 1159 2381 1159 1747 
Q 1159 1113 1420 752 
Q 1681 391 2138 391 
Q 2594 391 2855 752 
Q 3116 1113 3116 1747 
z
M 1159 2969 
Q 1341 3281 1617 3432 
Q 1894 3584 2278 3584 
Q 2916 3584 3314 3078 
Q 3713 2572 3713 1747 
Q 3713 922 3314 415 
Q 2916 -91 2278 -91 
Q 1894 -91 1617 61 
Q 1341 213 1159 525 
L 1159 0 
L 581 0 
L 581 4863 
L 1159 4863 
L 1159 2969 
z
" transform="scale(0.015625)"/>
      </defs>
      <use xlink:href="#DejaVuSans-52"/>
      <use xlink:href="#DejaVuSans-6f" x="64.982422"/>
      <use xlink:href="#DejaVuSans-62" x="126.164062"/>
      <use xlink:href="#DejaVuSans-75" x="189.640625"/>
      <use xlink:href="#DejaVuSans-73" x="253.019531"/>
      <use xlink:href="#DejaVuSans-74" x="305.119141"/>
      <use xlink:href="#DejaVuSans-20" x="344.328125"/>
      <use xlink:href="#DejaVuSans-56" x="376.115234"/>
      <use xlink:href="#DejaVuSans-61" x="436.773438"/>
      <use xlink:href="#DejaVuSans-6c" x="498.052734"/>
      <use xlink:href="#DejaVuSans-69" x="525.835938"/>
      <use xlink:href="#DejaVuSans-64" x="553.619141"/>
      <use xlink:href="#DejaVuSans-61" x="617.095703"/>
      <use xlink:href="#DejaVuSans-74" x="678.375"/>
      <use xlink:href="#DejaVuSans-69" x="717.583984"/>
      <use xlink:href="#DejaVuSans-6f" x="745.367188"/>
      <use xlink:href="#DejaVuSans-6e" x="806.548828"/>
      <use xlink:href="#DejaVuSans-20" x="869.927734"/>
      <use xlink:href="#DejaVuSans-41" x="901.714844"/>
      <use xlink:href="#DejaVuSans-63" x="968.373047"/>
      <use xlink:href="#DejaVuSans-63" x="1023.353516"/>
      <use xlink:href="#DejaVuSans-75" x="1078.333984"/>
      <use xlink:href="#DejaVuSans-72" x="1141.712891"/>
      <use xlink:href="#DejaVuSans-61" x="1182.826172"/>
      <use xlink:href="#DejaVuSans-63" x="1244.105469"/>
      <use xlink:href="#DejaVuSans-79" x="1299.085938"/>
     </g>
    </g>
    <g id="line2d_27">
     <path d="M 216.18875 278.326188 
L 226.18875 278.326188 
L 236.18875 278.326188 
" style="fill: none; stroke: #d62728; stroke-width: 1.5; stroke-linecap: square"/>
    </g>
    <g id="text_25">
     <!-- SWA Validation Accuracy -->
     <g transform="translate(244.18875 281.826188) scale(0.1 -0.1)">
      <defs>
       <path id="DejaVuSans-53" d="M 3425 4513 
L 3425 3897 
Q 3066 4069 2747 4153 
Q 2428 4238 2131 4238 
Q 1616 4238 1336 4038 
Q 1056 3838 1056 3469 
Q 1056 3159 1242 3001 
Q 1428 2844 1947 2747 
L 2328 2669 
Q 3034 2534 3370 2195 
Q 3706 1856 3706 1288 
Q 3706 609 3251 259 
Q 2797 -91 1919 -91 
Q 1588 -91 1214 -16 
Q 841 59 441 206 
L 441 856 
Q 825 641 1194 531 
Q 1563 422 1919 422 
Q 2459 422 2753 634 
Q 3047 847 3047 1241 
Q 3047 1584 2836 1778 
Q 2625 1972 2144 2069 
L 1759 2144 
Q 1053 2284 737 2584 
Q 422 2884 422 3419 
Q 422 4038 858 4394 
Q 1294 4750 2059 4750 
Q 2388 4750 2728 4690 
Q 3069 4631 3425 4513 
z
" transform="scale(0.015625)"/>
       <path id="DejaVuSans-57" d="M 213 4666 
L 850 4666 
L 1831 722 
L 2809 4666 
L 3519 4666 
L 4500 722 
L 5478 4666 
L 6119 4666 
L 4947 0 
L 4153 0 
L 3169 4050 
L 2175 0 
L 1381 0 
L 213 4666 
z
" transform="scale(0.015625)"/>
      </defs>
      <use xlink:href="#DejaVuSans-53"/>
      <use xlink:href="#DejaVuSans-57" x="63.476562"/>
      <use xlink:href="#DejaVuSans-41" x="156.853516"/>
      <use xlink:href="#DejaVuSans-20" x="225.261719"/>
      <use xlink:href="#DejaVuSans-56" x="257.048828"/>
      <use xlink:href="#DejaVuSans-61" x="317.707031"/>
      <use xlink:href="#DejaVuSans-6c" x="378.986328"/>
      <use xlink:href="#DejaVuSans-69" x="406.769531"/>
      <use xlink:href="#DejaVuSans-64" x="434.552734"/>
      <use xlink:href="#DejaVuSans-61" x="498.029297"/>
      <use xlink:href="#DejaVuSans-74" x="559.308594"/>
      <use xlink:href="#DejaVuSans-69" x="598.517578"/>
      <use xlink:href="#DejaVuSans-6f" x="626.300781"/>
      <use xlink:href="#DejaVuSans-6e" x="687.482422"/>
      <use xlink:href="#DejaVuSans-20" x="750.861328"/>
      <use xlink:href="#DejaVuSans-41" x="782.648438"/>
      <use xlink:href="#DejaVuSans-63" x="849.306641"/>
      <use xlink:href="#DejaVuSans-63" x="904.287109"/>
      <use xlink:href="#DejaVuSans-75" x="959.267578"/>
      <use xlink:href="#DejaVuSans-72" x="1022.646484"/>
      <use xlink:href="#DejaVuSans-61" x="1063.759766"/>
      <use xlink:href="#DejaVuSans-63" x="1125.039062"/>
      <use xlink:href="#DejaVuSans-79" x="1180.019531"/>
     </g>
    </g>
    <g id="line2d_28">
     <path d="M 216.18875 293.004312 
L 226.18875 293.004312 
L 236.18875 293.004312 
" style="fill: none; stroke: #9467bd; stroke-width: 1.5; stroke-linecap: square"/>
    </g>
    <g id="text_26">
     <!-- SWA Robust Validation Accuracy -->
     <g transform="translate(244.18875 296.504312) scale(0.1 -0.1)">
      <use xlink:href="#DejaVuSans-53"/>
      <use xlink:href="#DejaVuSans-57" x="63.476562"/>
      <use xlink:href="#DejaVuSans-41" x="156.853516"/>
      <use xlink:href="#DejaVuSans-20" x="225.261719"/>
      <use xlink:href="#DejaVuSans-52" x="257.048828"/>
      <use xlink:href="#DejaVuSans-6f" x="322.03125"/>
      <use xlink:href="#DejaVuSans-62" x="383.212891"/>
      <use xlink:href="#DejaVuSans-75" x="446.689453"/>
      <use xlink:href="#DejaVuSans-73" x="510.068359"/>
      <use xlink:href="#DejaVuSans-74" x="562.167969"/>
      <use xlink:href="#DejaVuSans-20" x="601.376953"/>
      <use xlink:href="#DejaVuSans-56" x="633.164062"/>
      <use xlink:href="#DejaVuSans-61" x="693.822266"/>
      <use xlink:href="#DejaVuSans-6c" x="755.101562"/>
      <use xlink:href="#DejaVuSans-69" x="782.884766"/>
      <use xlink:href="#DejaVuSans-64" x="810.667969"/>
      <use xlink:href="#DejaVuSans-61" x="874.144531"/>
      <use xlink:href="#DejaVuSans-74" x="935.423828"/>
      <use xlink:href="#DejaVuSans-69" x="974.632812"/>
      <use xlink:href="#DejaVuSans-6f" x="1002.416016"/>
      <use xlink:href="#DejaVuSans-6e" x="1063.597656"/>
      <use xlink:href="#DejaVuSans-20" x="1126.976562"/>
      <use xlink:href="#DejaVuSans-41" x="1158.763672"/>
      <use xlink:href="#DejaVuSans-63" x="1225.421875"/>
      <use xlink:href="#DejaVuSans-63" x="1280.402344"/>
      <use xlink:href="#DejaVuSans-75" x="1335.382812"/>
      <use xlink:href="#DejaVuSans-72" x="1398.761719"/>
      <use xlink:href="#DejaVuSans-61" x="1439.875"/>
      <use xlink:href="#DejaVuSans-63" x="1501.154297"/>
      <use xlink:href="#DejaVuSans-79" x="1556.134766"/>
     </g>
    </g>
   </g>
  </g>
 </g>
 <defs>
  <clipPath id="p0d6528d864">
   <rect x="57.6" y="41.472" width="357.12" height="266.112"/>
  </clipPath>
 </defs>
</svg>
