<?xml version="1.0" encoding="utf-8" standalone="no"?>
<!DOCTYPE svg PUBLIC "-//W3C//DTD SVG 1.1//EN"
  "http://www.w3.org/Graphics/SVG/1.1/DTD/svg11.dtd">
<svg xmlns:xlink="http://www.w3.org/1999/xlink" width="460.8pt" height="345.6pt" viewBox="0 0 460.8 345.6" xmlns="http://www.w3.org/2000/svg" version="1.1">
 <metadata>
  <rdf:RDF xmlns:dc="http://purl.org/dc/elements/1.1/" xmlns:cc="http://creativecommons.org/ns#" xmlns:rdf="http://www.w3.org/1999/02/22-rdf-syntax-ns#">
   <cc:Work>
    <dc:type rdf:resource="http://purl.org/dc/dcmitype/StillImage"/>
    <dc:date>2025-07-02T15:15:42.703482</dc:date>
    <dc:format>image/svg+xml</dc:format>
    <dc:creator>
     <cc:Agent>
      <dc:title>Matplotlib v3.9.1, https://matplotlib.org/</dc:title>
     </cc:Agent>
    </dc:creator>
   </cc:Work>
  </rdf:RDF>
 </metadata>
 <defs>
  <style type="text/css">*{stroke-linejoin: round; stroke-linecap: butt}</style>
 </defs>
 <g id="figure_1">
  <g id="patch_1">
   <path d="M 0 345.6 
L 460.8 345.6 
L 460.8 0 
L 0 0 
z
" style="fill: #ffffff"/>
  </g>
  <g id="axes_1">
   <g id="patch_2">
    <path d="M 57.6 307.584 
L 414.72 307.584 
L 414.72 41.472 
L 57.6 41.472 
z
" style="fill: #ffffff"/>
   </g>
   <g id="matplotlib.axis_1">
    <g id="xtick_1">
     <g id="line2d_1">
      <defs>
       <path id="mbf9dce7d92" d="M 0 0 
L 0 3.5 
" style="stroke: #000000; stroke-width: 0.8"/>
      </defs>
      <g>
       <use xlink:href="#mbf9dce7d92" x="73.832727" y="307.584" style="stroke: #000000; stroke-width: 0.8"/>
      </g>
     </g>
     <g id="text_1">
      <!-- 1 -->
      <g transform="translate(70.651477 322.182437) scale(0.1 -0.1)">
       <defs>
        <path id="DejaVuSans-31" d="M 794 531 
L 1825 531 
L 1825 4091 
L 703 3866 
L 703 4441 
L 1819 4666 
L 2450 4666 
L 2450 531 
L 3481 531 
L 3481 0 
L 794 0 
L 794 531 
z
" transform="scale(0.015625)"/>
       </defs>
       <use xlink:href="#DejaVuSans-31"/>
      </g>
     </g>
    </g>
    <g id="xtick_2">
     <g id="line2d_2">
      <g>
       <use xlink:href="#mbf9dce7d92" x="109.664165" y="307.584" style="stroke: #000000; stroke-width: 0.8"/>
      </g>
     </g>
     <g id="text_2">
      <!-- 34 -->
      <g transform="translate(103.301665 322.182437) scale(0.1 -0.1)">
       <defs>
        <path id="DejaVuSans-33" d="M 2597 2516 
Q 3050 2419 3304 2112 
Q 3559 1806 3559 1356 
Q 3559 666 3084 287 
Q 2609 -91 1734 -91 
Q 1441 -91 1130 -33 
Q 819 25 488 141 
L 488 750 
Q 750 597 1062 519 
Q 1375 441 1716 441 
Q 2309 441 2620 675 
Q 2931 909 2931 1356 
Q 2931 1769 2642 2001 
Q 2353 2234 1838 2234 
L 1294 2234 
L 1294 2753 
L 1863 2753 
Q 2328 2753 2575 2939 
Q 2822 3125 2822 3475 
Q 2822 3834 2567 4026 
Q 2313 4219 1838 4219 
Q 1578 4219 1281 4162 
Q 984 4106 628 3988 
L 628 4550 
Q 988 4650 1302 4700 
Q 1616 4750 1894 4750 
Q 2613 4750 3031 4423 
Q 3450 4097 3450 3541 
Q 3450 3153 3228 2886 
Q 3006 2619 2597 2516 
z
" transform="scale(0.015625)"/>
        <path id="DejaVuSans-34" d="M 2419 4116 
L 825 1625 
L 2419 1625 
L 2419 4116 
z
M 2253 4666 
L 3047 4666 
L 3047 1625 
L 3713 1625 
L 3713 1100 
L 3047 1100 
L 3047 0 
L 2419 0 
L 2419 1100 
L 313 1100 
L 313 1709 
L 2253 4666 
z
" transform="scale(0.015625)"/>
       </defs>
       <use xlink:href="#DejaVuSans-33"/>
       <use xlink:href="#DejaVuSans-34" x="63.623047"/>
      </g>
     </g>
    </g>
    <g id="xtick_3">
     <g id="line2d_3">
      <g>
       <use xlink:href="#mbf9dce7d92" x="145.495604" y="307.584" style="stroke: #000000; stroke-width: 0.8"/>
      </g>
     </g>
     <g id="text_3">
      <!-- 67 -->
      <g transform="translate(139.133104 322.182437) scale(0.1 -0.1)">
       <defs>
        <path id="DejaVuSans-36" d="M 2113 2584 
Q 1688 2584 1439 2293 
Q 1191 2003 1191 1497 
Q 1191 994 1439 701 
Q 1688 409 2113 409 
Q 2538 409 2786 701 
Q 3034 994 3034 1497 
Q 3034 2003 2786 2293 
Q 2538 2584 2113 2584 
z
M 3366 4563 
L 3366 3988 
Q 3128 4100 2886 4159 
Q 2644 4219 2406 4219 
Q 1781 4219 1451 3797 
Q 1122 3375 1075 2522 
Q 1259 2794 1537 2939 
Q 1816 3084 2150 3084 
Q 2853 3084 3261 2657 
Q 3669 2231 3669 1497 
Q 3669 778 3244 343 
Q 2819 -91 2113 -91 
Q 1303 -91 875 529 
Q 447 1150 447 2328 
Q 447 3434 972 4092 
Q 1497 4750 2381 4750 
Q 2619 4750 2861 4703 
Q 3103 4656 3366 4563 
z
" transform="scale(0.015625)"/>
        <path id="DejaVuSans-37" d="M 525 4666 
L 3525 4666 
L 3525 4397 
L 1831 0 
L 1172 0 
L 2766 4134 
L 525 4134 
L 525 4666 
z
" transform="scale(0.015625)"/>
       </defs>
       <use xlink:href="#DejaVuSans-36"/>
       <use xlink:href="#DejaVuSans-37" x="63.623047"/>
      </g>
     </g>
    </g>
    <g id="xtick_4">
     <g id="line2d_4">
      <g>
       <use xlink:href="#mbf9dce7d92" x="181.327042" y="307.584" style="stroke: #000000; stroke-width: 0.8"/>
      </g>
     </g>
     <g id="text_4">
      <!-- 100 -->
      <g transform="translate(171.783292 322.182437) scale(0.1 -0.1)">
       <defs>
        <path id="DejaVuSans-30" d="M 2034 4250 
Q 1547 4250 1301 3770 
Q 1056 3291 1056 2328 
Q 1056 1369 1301 889 
Q 1547 409 2034 409 
Q 2525 409 2770 889 
Q 3016 1369 3016 2328 
Q 3016 3291 2770 3770 
Q 2525 4250 2034 4250 
z
M 2034 4750 
Q 2819 4750 3233 4129 
Q 3647 3509 3647 2328 
Q 3647 1150 3233 529 
Q 2819 -91 2034 -91 
Q 1250 -91 836 529 
Q 422 1150 422 2328 
Q 422 3509 836 4129 
Q 1250 4750 2034 4750 
z
" transform="scale(0.015625)"/>
       </defs>
       <use xlink:href="#DejaVuSans-31"/>
       <use xlink:href="#DejaVuSans-30" x="63.623047"/>
       <use xlink:href="#DejaVuSans-30" x="127.246094"/>
      </g>
     </g>
    </g>
    <g id="xtick_5">
     <g id="line2d_5">
      <g>
       <use xlink:href="#mbf9dce7d92" x="217.15848" y="307.584" style="stroke: #000000; stroke-width: 0.8"/>
      </g>
     </g>
     <g id="text_5">
      <!-- 133 -->
      <g transform="translate(207.61473 322.182437) scale(0.1 -0.1)">
       <use xlink:href="#DejaVuSans-31"/>
       <use xlink:href="#DejaVuSans-33" x="63.623047"/>
       <use xlink:href="#DejaVuSans-33" x="127.246094"/>
      </g>
     </g>
    </g>
    <g id="xtick_6">
     <g id="line2d_6">
      <g>
       <use xlink:href="#mbf9dce7d92" x="254.075719" y="307.584" style="stroke: #000000; stroke-width: 0.8"/>
      </g>
     </g>
     <g id="text_6">
      <!-- 167 -->
      <g transform="translate(244.531969 322.182437) scale(0.1 -0.1)">
       <use xlink:href="#DejaVuSans-31"/>
       <use xlink:href="#DejaVuSans-36" x="63.623047"/>
       <use xlink:href="#DejaVuSans-37" x="127.246094"/>
      </g>
     </g>
    </g>
    <g id="xtick_7">
     <g id="line2d_7">
      <g>
       <use xlink:href="#mbf9dce7d92" x="289.907157" y="307.584" style="stroke: #000000; stroke-width: 0.8"/>
      </g>
     </g>
     <g id="text_7">
      <!-- 200 -->
      <g transform="translate(280.363407 322.182437) scale(0.1 -0.1)">
       <defs>
        <path id="DejaVuSans-32" d="M 1228 531 
L 3431 531 
L 3431 0 
L 469 0 
L 469 531 
Q 828 903 1448 1529 
Q 2069 2156 2228 2338 
Q 2531 2678 2651 2914 
Q 2772 3150 2772 3378 
Q 2772 3750 2511 3984 
Q 2250 4219 1831 4219 
Q 1534 4219 1204 4116 
Q 875 4013 500 3803 
L 500 4441 
Q 881 4594 1212 4672 
Q 1544 4750 1819 4750 
Q 2544 4750 2975 4387 
Q 3406 4025 3406 3419 
Q 3406 3131 3298 2873 
Q 3191 2616 2906 2266 
Q 2828 2175 2409 1742 
Q 1991 1309 1228 531 
z
" transform="scale(0.015625)"/>
       </defs>
       <use xlink:href="#DejaVuSans-32"/>
       <use xlink:href="#DejaVuSans-30" x="63.623047"/>
       <use xlink:href="#DejaVuSans-30" x="127.246094"/>
      </g>
     </g>
    </g>
    <g id="xtick_8">
     <g id="line2d_8">
      <g>
       <use xlink:href="#mbf9dce7d92" x="325.738595" y="307.584" style="stroke: #000000; stroke-width: 0.8"/>
      </g>
     </g>
     <g id="text_8">
      <!-- 233 -->
      <g transform="translate(316.194845 322.182437) scale(0.1 -0.1)">
       <use xlink:href="#DejaVuSans-32"/>
       <use xlink:href="#DejaVuSans-33" x="63.623047"/>
       <use xlink:href="#DejaVuSans-33" x="127.246094"/>
      </g>
     </g>
    </g>
    <g id="xtick_9">
     <g id="line2d_9">
      <g>
       <use xlink:href="#mbf9dce7d92" x="361.570033" y="307.584" style="stroke: #000000; stroke-width: 0.8"/>
      </g>
     </g>
     <g id="text_9">
      <!-- 266 -->
      <g transform="translate(352.026283 322.182437) scale(0.1 -0.1)">
       <use xlink:href="#DejaVuSans-32"/>
       <use xlink:href="#DejaVuSans-36" x="63.623047"/>
       <use xlink:href="#DejaVuSans-36" x="127.246094"/>
      </g>
     </g>
    </g>
    <g id="xtick_10">
     <g id="line2d_10">
      <g>
       <use xlink:href="#mbf9dce7d92" x="398.487273" y="307.584" style="stroke: #000000; stroke-width: 0.8"/>
      </g>
     </g>
     <g id="text_10">
      <!-- 300 -->
      <g transform="translate(388.943523 322.182437) scale(0.1 -0.1)">
       <use xlink:href="#DejaVuSans-33"/>
       <use xlink:href="#DejaVuSans-30" x="63.623047"/>
       <use xlink:href="#DejaVuSans-30" x="127.246094"/>
      </g>
     </g>
    </g>
    <g id="text_11">
     <!-- Epochs -->
     <g transform="translate(218.244375 335.860562) scale(0.1 -0.1)">
      <defs>
       <path id="DejaVuSans-45" d="M 628 4666 
L 3578 4666 
L 3578 4134 
L 1259 4134 
L 1259 2753 
L 3481 2753 
L 3481 2222 
L 1259 2222 
L 1259 531 
L 3634 531 
L 3634 0 
L 628 0 
L 628 4666 
z
" transform="scale(0.015625)"/>
       <path id="DejaVuSans-70" d="M 1159 525 
L 1159 -1331 
L 581 -1331 
L 581 3500 
L 1159 3500 
L 1159 2969 
Q 1341 3281 1617 3432 
Q 1894 3584 2278 3584 
Q 2916 3584 3314 3078 
Q 3713 2572 3713 1747 
Q 3713 922 3314 415 
Q 2916 -91 2278 -91 
Q 1894 -91 1617 61 
Q 1341 213 1159 525 
z
M 3116 1747 
Q 3116 2381 2855 2742 
Q 2594 3103 2138 3103 
Q 1681 3103 1420 2742 
Q 1159 2381 1159 1747 
Q 1159 1113 1420 752 
Q 1681 391 2138 391 
Q 2594 391 2855 752 
Q 3116 1113 3116 1747 
z
" transform="scale(0.015625)"/>
       <path id="DejaVuSans-6f" d="M 1959 3097 
Q 1497 3097 1228 2736 
Q 959 2375 959 1747 
Q 959 1119 1226 758 
Q 1494 397 1959 397 
Q 2419 397 2687 759 
Q 2956 1122 2956 1747 
Q 2956 2369 2687 2733 
Q 2419 3097 1959 3097 
z
M 1959 3584 
Q 2709 3584 3137 3096 
Q 3566 2609 3566 1747 
Q 3566 888 3137 398 
Q 2709 -91 1959 -91 
Q 1206 -91 779 398 
Q 353 888 353 1747 
Q 353 2609 779 3096 
Q 1206 3584 1959 3584 
z
" transform="scale(0.015625)"/>
       <path id="DejaVuSans-63" d="M 3122 3366 
L 3122 2828 
Q 2878 2963 2633 3030 
Q 2388 3097 2138 3097 
Q 1578 3097 1268 2742 
Q 959 2388 959 1747 
Q 959 1106 1268 751 
Q 1578 397 2138 397 
Q 2388 397 2633 464 
Q 2878 531 3122 666 
L 3122 134 
Q 2881 22 2623 -34 
Q 2366 -91 2075 -91 
Q 1284 -91 818 406 
Q 353 903 353 1747 
Q 353 2603 823 3093 
Q 1294 3584 2113 3584 
Q 2378 3584 2631 3529 
Q 2884 3475 3122 3366 
z
" transform="scale(0.015625)"/>
       <path id="DejaVuSans-68" d="M 3513 2113 
L 3513 0 
L 2938 0 
L 2938 2094 
Q 2938 2591 2744 2837 
Q 2550 3084 2163 3084 
Q 1697 3084 1428 2787 
Q 1159 2491 1159 1978 
L 1159 0 
L 581 0 
L 581 4863 
L 1159 4863 
L 1159 2956 
Q 1366 3272 1645 3428 
Q 1925 3584 2291 3584 
Q 2894 3584 3203 3211 
Q 3513 2838 3513 2113 
z
" transform="scale(0.015625)"/>
       <path id="DejaVuSans-73" d="M 2834 3397 
L 2834 2853 
Q 2591 2978 2328 3040 
Q 2066 3103 1784 3103 
Q 1356 3103 1142 2972 
Q 928 2841 928 2578 
Q 928 2378 1081 2264 
Q 1234 2150 1697 2047 
L 1894 2003 
Q 2506 1872 2764 1633 
Q 3022 1394 3022 966 
Q 3022 478 2636 193 
Q 2250 -91 1575 -91 
Q 1294 -91 989 -36 
Q 684 19 347 128 
L 347 722 
Q 666 556 975 473 
Q 1284 391 1588 391 
Q 1994 391 2212 530 
Q 2431 669 2431 922 
Q 2431 1156 2273 1281 
Q 2116 1406 1581 1522 
L 1381 1569 
Q 847 1681 609 1914 
Q 372 2147 372 2553 
Q 372 3047 722 3315 
Q 1072 3584 1716 3584 
Q 2034 3584 2315 3537 
Q 2597 3491 2834 3397 
z
" transform="scale(0.015625)"/>
      </defs>
      <use xlink:href="#DejaVuSans-45"/>
      <use xlink:href="#DejaVuSans-70" x="63.183594"/>
      <use xlink:href="#DejaVuSans-6f" x="126.660156"/>
      <use xlink:href="#DejaVuSans-63" x="187.841797"/>
      <use xlink:href="#DejaVuSans-68" x="242.822266"/>
      <use xlink:href="#DejaVuSans-73" x="306.201172"/>
     </g>
    </g>
   </g>
   <g id="matplotlib.axis_2">
    <g id="ytick_1">
     <g id="line2d_11">
      <defs>
       <path id="m173492d76e" d="M 0 0 
L -3.5 0 
" style="stroke: #000000; stroke-width: 0.8"/>
      </defs>
      <g>
       <use xlink:href="#m173492d76e" x="57.6" y="282.743586" style="stroke: #000000; stroke-width: 0.8"/>
      </g>
     </g>
     <g id="text_12">
      <!-- 10 -->
      <g transform="translate(37.875 286.542805) scale(0.1 -0.1)">
       <use xlink:href="#DejaVuSans-31"/>
       <use xlink:href="#DejaVuSans-30" x="63.623047"/>
      </g>
     </g>
    </g>
    <g id="ytick_2">
     <g id="line2d_12">
      <g>
       <use xlink:href="#m173492d76e" x="57.6" y="250.762622" style="stroke: #000000; stroke-width: 0.8"/>
      </g>
     </g>
     <g id="text_13">
      <!-- 20 -->
      <g transform="translate(37.875 254.561841) scale(0.1 -0.1)">
       <use xlink:href="#DejaVuSans-32"/>
       <use xlink:href="#DejaVuSans-30" x="63.623047"/>
      </g>
     </g>
    </g>
    <g id="ytick_3">
     <g id="line2d_13">
      <g>
       <use xlink:href="#m173492d76e" x="57.6" y="218.781659" style="stroke: #000000; stroke-width: 0.8"/>
      </g>
     </g>
     <g id="text_14">
      <!-- 30 -->
      <g transform="translate(37.875 222.580877) scale(0.1 -0.1)">
       <use xlink:href="#DejaVuSans-33"/>
       <use xlink:href="#DejaVuSans-30" x="63.623047"/>
      </g>
     </g>
    </g>
    <g id="ytick_4">
     <g id="line2d_14">
      <g>
       <use xlink:href="#m173492d76e" x="57.6" y="186.800695" style="stroke: #000000; stroke-width: 0.8"/>
      </g>
     </g>
     <g id="text_15">
      <!-- 40 -->
      <g transform="translate(37.875 190.599914) scale(0.1 -0.1)">
       <use xlink:href="#DejaVuSans-34"/>
       <use xlink:href="#DejaVuSans-30" x="63.623047"/>
      </g>
     </g>
    </g>
    <g id="ytick_5">
     <g id="line2d_15">
      <g>
       <use xlink:href="#m173492d76e" x="57.6" y="154.819731" style="stroke: #000000; stroke-width: 0.8"/>
      </g>
     </g>
     <g id="text_16">
      <!-- 50 -->
      <g transform="translate(37.875 158.61895) scale(0.1 -0.1)">
       <defs>
        <path id="DejaVuSans-35" d="M 691 4666 
L 3169 4666 
L 3169 4134 
L 1269 4134 
L 1269 2991 
Q 1406 3038 1543 3061 
Q 1681 3084 1819 3084 
Q 2600 3084 3056 2656 
Q 3513 2228 3513 1497 
Q 3513 744 3044 326 
Q 2575 -91 1722 -91 
Q 1428 -91 1123 -41 
Q 819 9 494 109 
L 494 744 
Q 775 591 1075 516 
Q 1375 441 1709 441 
Q 2250 441 2565 725 
Q 2881 1009 2881 1497 
Q 2881 1984 2565 2268 
Q 2250 2553 1709 2553 
Q 1456 2553 1204 2497 
Q 953 2441 691 2322 
L 691 4666 
z
" transform="scale(0.015625)"/>
       </defs>
       <use xlink:href="#DejaVuSans-35"/>
       <use xlink:href="#DejaVuSans-30" x="63.623047"/>
      </g>
     </g>
    </g>
    <g id="ytick_6">
     <g id="line2d_16">
      <g>
       <use xlink:href="#m173492d76e" x="57.6" y="122.838767" style="stroke: #000000; stroke-width: 0.8"/>
      </g>
     </g>
     <g id="text_17">
      <!-- 60 -->
      <g transform="translate(37.875 126.637986) scale(0.1 -0.1)">
       <use xlink:href="#DejaVuSans-36"/>
       <use xlink:href="#DejaVuSans-30" x="63.623047"/>
      </g>
     </g>
    </g>
    <g id="ytick_7">
     <g id="line2d_17">
      <g>
       <use xlink:href="#m173492d76e" x="57.6" y="90.857804" style="stroke: #000000; stroke-width: 0.8"/>
      </g>
     </g>
     <g id="text_18">
      <!-- 70 -->
      <g transform="translate(37.875 94.657022) scale(0.1 -0.1)">
       <use xlink:href="#DejaVuSans-37"/>
       <use xlink:href="#DejaVuSans-30" x="63.623047"/>
      </g>
     </g>
    </g>
    <g id="ytick_8">
     <g id="line2d_18">
      <g>
       <use xlink:href="#m173492d76e" x="57.6" y="58.87684" style="stroke: #000000; stroke-width: 0.8"/>
      </g>
     </g>
     <g id="text_19">
      <!-- 80 -->
      <g transform="translate(37.875 62.676059) scale(0.1 -0.1)">
       <defs>
        <path id="DejaVuSans-38" d="M 2034 2216 
Q 1584 2216 1326 1975 
Q 1069 1734 1069 1313 
Q 1069 891 1326 650 
Q 1584 409 2034 409 
Q 2484 409 2743 651 
Q 3003 894 3003 1313 
Q 3003 1734 2745 1975 
Q 2488 2216 2034 2216 
z
M 1403 2484 
Q 997 2584 770 2862 
Q 544 3141 544 3541 
Q 544 4100 942 4425 
Q 1341 4750 2034 4750 
Q 2731 4750 3128 4425 
Q 3525 4100 3525 3541 
Q 3525 3141 3298 2862 
Q 3072 2584 2669 2484 
Q 3125 2378 3379 2068 
Q 3634 1759 3634 1313 
Q 3634 634 3220 271 
Q 2806 -91 2034 -91 
Q 1263 -91 848 271 
Q 434 634 434 1313 
Q 434 1759 690 2068 
Q 947 2378 1403 2484 
z
M 1172 3481 
Q 1172 3119 1398 2916 
Q 1625 2713 2034 2713 
Q 2441 2713 2670 2916 
Q 2900 3119 2900 3481 
Q 2900 3844 2670 4047 
Q 2441 4250 2034 4250 
Q 1625 4250 1398 4047 
Q 1172 3844 1172 3481 
z
" transform="scale(0.015625)"/>
       </defs>
       <use xlink:href="#DejaVuSans-38"/>
       <use xlink:href="#DejaVuSans-30" x="63.623047"/>
      </g>
     </g>
    </g>
    <g id="text_20">
     <!-- Accuracy -->
     <g transform="translate(31.795312 197.356125) rotate(-90) scale(0.1 -0.1)">
      <defs>
       <path id="DejaVuSans-41" d="M 2188 4044 
L 1331 1722 
L 3047 1722 
L 2188 4044 
z
M 1831 4666 
L 2547 4666 
L 4325 0 
L 3669 0 
L 3244 1197 
L 1141 1197 
L 716 0 
L 50 0 
L 1831 4666 
z
" transform="scale(0.015625)"/>
       <path id="DejaVuSans-75" d="M 544 1381 
L 544 3500 
L 1119 3500 
L 1119 1403 
Q 1119 906 1312 657 
Q 1506 409 1894 409 
Q 2359 409 2629 706 
Q 2900 1003 2900 1516 
L 2900 3500 
L 3475 3500 
L 3475 0 
L 2900 0 
L 2900 538 
Q 2691 219 2414 64 
Q 2138 -91 1772 -91 
Q 1169 -91 856 284 
Q 544 659 544 1381 
z
M 1991 3584 
L 1991 3584 
z
" transform="scale(0.015625)"/>
       <path id="DejaVuSans-72" d="M 2631 2963 
Q 2534 3019 2420 3045 
Q 2306 3072 2169 3072 
Q 1681 3072 1420 2755 
Q 1159 2438 1159 1844 
L 1159 0 
L 581 0 
L 581 3500 
L 1159 3500 
L 1159 2956 
Q 1341 3275 1631 3429 
Q 1922 3584 2338 3584 
Q 2397 3584 2469 3576 
Q 2541 3569 2628 3553 
L 2631 2963 
z
" transform="scale(0.015625)"/>
       <path id="DejaVuSans-61" d="M 2194 1759 
Q 1497 1759 1228 1600 
Q 959 1441 959 1056 
Q 959 750 1161 570 
Q 1363 391 1709 391 
Q 2188 391 2477 730 
Q 2766 1069 2766 1631 
L 2766 1759 
L 2194 1759 
z
M 3341 1997 
L 3341 0 
L 2766 0 
L 2766 531 
Q 2569 213 2275 61 
Q 1981 -91 1556 -91 
Q 1019 -91 701 211 
Q 384 513 384 1019 
Q 384 1609 779 1909 
Q 1175 2209 1959 2209 
L 2766 2209 
L 2766 2266 
Q 2766 2663 2505 2880 
Q 2244 3097 1772 3097 
Q 1472 3097 1187 3025 
Q 903 2953 641 2809 
L 641 3341 
Q 956 3463 1253 3523 
Q 1550 3584 1831 3584 
Q 2591 3584 2966 3190 
Q 3341 2797 3341 1997 
z
" transform="scale(0.015625)"/>
       <path id="DejaVuSans-79" d="M 2059 -325 
Q 1816 -950 1584 -1140 
Q 1353 -1331 966 -1331 
L 506 -1331 
L 506 -850 
L 844 -850 
Q 1081 -850 1212 -737 
Q 1344 -625 1503 -206 
L 1606 56 
L 191 3500 
L 800 3500 
L 1894 763 
L 2988 3500 
L 3597 3500 
L 2059 -325 
z
" transform="scale(0.015625)"/>
      </defs>
      <use xlink:href="#DejaVuSans-41"/>
      <use xlink:href="#DejaVuSans-63" x="66.658203"/>
      <use xlink:href="#DejaVuSans-63" x="121.638672"/>
      <use xlink:href="#DejaVuSans-75" x="176.619141"/>
      <use xlink:href="#DejaVuSans-72" x="239.998047"/>
      <use xlink:href="#DejaVuSans-61" x="281.111328"/>
      <use xlink:href="#DejaVuSans-63" x="342.390625"/>
      <use xlink:href="#DejaVuSans-79" x="397.371094"/>
     </g>
    </g>
   </g>
   <g id="line2d_19">
    <path d="M 73.832727 295.488 
L 74.918528 276.179493 
L 77.090131 229.847072 
L 78.175932 211.242146 
L 79.261733 198.361813 
L 80.347534 187.64819 
L 81.433335 178.733497 
L 82.519137 171.018089 
L 83.604938 166.604716 
L 84.690739 158.801361 
L 85.77654 152.597054 
L 86.862341 147.9838 
L 89.033943 140.580207 
L 90.119745 137.438077 
L 91.205546 133.840219 
L 93.377148 130.937946 
L 94.462949 131.177804 
L 95.54875 156.378803 
L 97.720353 152.389178 
L 98.806154 149.175091 
L 102.063557 141.195841 
L 103.149358 138.485454 
L 104.23516 135.247381 
L 105.320961 134.327929 
L 106.406762 133.640338 
L 108.578364 126.252735 
L 109.664165 125.653092 
L 110.749967 125.285311 
L 111.835768 122.43101 
L 112.921569 122.75082 
L 114.00737 117.513937 
L 115.093171 116.698422 
L 116.178972 116.146751 
L 117.264773 113.108559 
L 118.350575 111.62944 
L 119.436376 109.918458 
L 120.522177 107.943634 
L 121.607978 109.382777 
L 122.693779 105.105323 
L 123.77958 105.401147 
L 124.865382 102.155079 
L 125.951183 101.283598 
L 127.036984 100.699945 
L 128.122785 98.972973 
L 129.208586 97.789678 
L 130.294387 96.398506 
L 131.380189 95.295162 
L 132.46599 93.704109 
L 133.551791 95.447072 
L 134.637592 94.439672 
L 135.723393 92.696709 
L 136.809194 93.160433 
L 137.894995 92.584776 
L 138.980797 117.234104 
L 140.066598 122.670867 
L 141.152399 120.887929 
L 142.2382 120.296281 
L 143.324001 120.672057 
L 144.409802 119.296876 
L 145.495604 118.905109 
L 146.581405 117.465965 
L 147.667206 117.282075 
L 148.753007 116.178732 
L 149.838808 116.082789 
L 152.01041 113.820136 
L 153.096212 114.155936 
L 154.182013 111.837316 
L 155.267814 110.630035 
L 156.353615 111.013806 
L 157.439416 109.98242 
L 158.525217 107.272033 
L 159.611019 108.071557 
L 160.69682 108.567262 
L 161.782621 107.096138 
L 162.868422 107.543872 
L 163.954223 104.897447 
L 165.040024 105.920838 
L 166.125825 103.554246 
L 167.211627 102.682765 
L 168.297428 101.987179 
L 169.383229 102.179065 
L 171.554831 99.724526 
L 172.640632 99.372735 
L 173.726434 99.340754 
L 174.812235 98.917007 
L 175.898036 97.981563 
L 176.983837 95.710915 
L 178.069638 95.415091 
L 179.155439 94.343729 
L 181.327042 93.448262 
L 182.412843 93.176424 
L 183.498644 90.657923 
L 184.584445 90.202194 
L 185.670246 91.937161 
L 186.756047 90.082265 
L 187.841849 88.595151 
L 188.92765 88.651117 
L 190.013451 87.955531 
L 191.099252 87.092045 
L 192.185053 85.245145 
L 193.270854 85.093235 
L 194.356656 85.676888 
L 196.528258 83.070439 
L 197.614059 82.710653 
L 198.69986 83.27032 
L 199.785661 81.135591 
L 200.871462 81.407429 
L 201.957264 80.511962 
L 203.043065 80.687857 
L 205.214667 78.689047 
L 206.300468 78.912914 
L 207.386269 76.378422 
L 208.472071 75.45897 
L 209.557872 75.97866 
L 210.643673 75.666846 
L 211.729474 75.019231 
L 212.815275 74.963265 
L 213.901076 75.211117 
L 214.986877 73.891902 
L 216.072679 72.996435 
L 217.15848 74.891308 
L 218.244281 73.564098 
L 219.330082 73.771974 
L 221.501684 73.532117 
L 222.587486 72.252878 
L 223.673287 74.563503 
L 224.759088 73.684026 
L 225.844889 99.540635 
L 226.93069 104.201861 
L 228.016491 103.946013 
L 229.102292 103.546251 
L 230.188094 104.881456 
L 231.273895 102.235032 
L 232.359696 103.074532 
L 233.445497 102.994579 
L 234.531298 102.362955 
L 235.617099 102.346965 
L 236.702901 101.203645 
L 237.788702 101.68336 
L 239.960304 100.84386 
L 241.046105 100.971783 
L 242.131906 101.36355 
L 243.217708 99.804478 
L 244.303509 99.116888 
L 245.38931 99.70054 
L 246.475111 98.725121 
L 247.560912 98.69314 
L 248.646713 97.837649 
L 249.732514 98.629178 
L 250.818316 98.813068 
L 251.904117 97.38192 
L 252.989918 97.03013 
L 254.075719 96.926192 
L 256.247321 95.678934 
L 257.333123 95.487048 
L 258.418924 95.53502 
L 259.504725 94.863419 
L 261.676327 95.431081 
L 263.847929 93.632152 
L 266.019532 94.359719 
L 267.105333 93.256376 
L 268.191134 93.0485 
L 269.276935 93.480243 
L 270.362736 92.624752 
L 271.448538 90.809832 
L 272.534339 91.921171 
L 273.62014 91.441456 
L 274.705941 91.88919 
L 275.791742 90.857804 
L 276.877543 90.961742 
L 277.963344 90.426061 
L 279.049146 89.57057 
L 280.134947 91.793247 
L 281.220748 89.146822 
L 282.306549 88.643122 
L 283.39235 88.843003 
L 284.478151 87.58775 
L 285.563953 88.803027 
L 286.649754 87.443836 
L 287.735555 88.699089 
L 288.821356 87.723669 
L 289.907157 85.636911 
L 290.992958 87.41985 
L 292.07876 87.020088 
L 293.164561 85.133211 
L 294.250362 85.293116 
L 295.336163 86.09264 
L 296.421964 85.804811 
L 297.507765 84.925335 
L 298.593566 84.789416 
L 300.765169 82.854568 
L 301.85097 83.302301 
L 302.936771 83.462206 
L 304.022572 82.470796 
L 305.108373 83.142396 
L 306.194175 82.574734 
L 307.279976 81.7912 
L 308.365777 82.103015 
L 309.451578 81.591319 
L 310.537379 79.816376 
L 311.62318 80.535948 
L 312.708981 80.064228 
L 313.794783 80.703848 
L 314.880584 78.928904 
L 315.966385 78.96888 
L 317.052186 76.986061 
L 318.137987 78.521147 
L 319.223788 77.697637 
L 320.30959 77.833556 
L 321.395391 77.066013 
L 322.481192 76.442384 
L 323.566993 76.242503 
L 324.652794 75.658851 
L 325.738595 75.586894 
L 326.824396 76.14656 
L 327.910198 74.939279 
L 328.995999 75.434984 
L 330.0818 74.187726 
L 331.167601 74.835341 
L 332.253402 72.748583 
L 333.339203 73.97985 
L 335.510806 72.780564 
L 336.596607 72.252878 
L 337.682408 72.684621 
L 338.768209 70.885692 
L 339.85401 71.837126 
L 340.939811 70.925668 
L 342.025613 69.078767 
L 343.111414 69.670415 
L 344.197215 70.685811 
L 345.283016 69.086763 
L 346.368817 69.318625 
L 347.454618 67.247857 
L 348.54042 67.551676 
L 349.626221 66.976019 
L 350.712022 66.928048 
L 351.797823 68.119338 
L 353.969425 66.736162 
L 355.055227 67.191891 
L 356.141028 65.241052 
L 358.31263 65.201076 
L 360.484232 64.409547 
L 361.570033 64.681385 
L 362.655835 63.881861 
L 363.741636 63.610023 
L 364.827437 62.826489 
L 365.913238 62.85847 
L 366.999039 62.258827 
L 368.08484 63.665989 
L 369.170642 63.897851 
L 370.256443 65.241052 
L 371.342244 65.105133 
L 372.428045 65.576852 
L 373.513846 67.055971 
L 374.599647 66.848095 
L 375.685448 67.799529 
L 376.77125 67.767548 
L 377.857051 67.543681 
L 378.942852 66.408357 
L 380.028653 66.344395 
L 381.114454 67.759553 
L 382.200255 67.231867 
L 383.286057 67.335805 
L 384.371858 66.704181 
L 385.457659 66.312414 
L 386.54346 66.576257 
L 387.629261 66.176495 
L 388.715062 67.207881 
L 389.800863 66.608238 
L 390.886665 67.455733 
L 391.972466 67.735567 
L 393.058267 66.640219 
L 394.144068 67.000005 
L 395.229869 66.5043 
L 396.31567 66.232462 
L 397.401472 66.432343 
L 398.487273 65.920647 
L 398.487273 65.920647 
" clip-path="url(#pf068344b66)" style="fill: none; stroke: #1f77b4; stroke-width: 1.5; stroke-linecap: square"/>
   </g>
   <g id="line2d_20">
    <path d="M 73.832727 286.165549 
L 74.918528 258.502015 
L 76.00433 234.644217 
L 77.090131 230.838482 
L 78.175932 198.377804 
L 79.261733 183.602598 
L 80.347534 177.046501 
L 81.433335 165.949106 
L 83.604938 153.316626 
L 84.690739 140.428297 
L 85.77654 140.044526 
L 86.862341 133.424466 
L 89.033943 126.90035 
L 90.119745 123.094615 
L 92.291347 118.681242 
L 93.377148 117.94568 
L 94.462949 118.041623 
L 95.54875 150.822111 
L 96.634552 144.48988 
L 97.720353 142.634984 
L 98.806154 135.631153 
L 99.891955 133.392485 
L 100.977756 131.601551 
L 102.063557 128.595341 
L 103.149358 124.24593 
L 104.23516 127.156198 
L 105.320961 119.800576 
L 106.406762 121.207738 
L 107.492563 116.474556 
L 108.578364 115.738993 
L 109.664165 111.32562 
L 110.749967 114.779565 
L 111.835768 107.104133 
L 112.921569 108.127524 
L 114.00737 108.127524 
L 115.093171 106.464514 
L 116.178972 101.507465 
L 117.264773 98.437292 
L 118.350575 101.123693 
L 119.436376 95.750891 
L 120.522177 94.631557 
L 121.607978 94.7275 
L 122.693779 94.567595 
L 123.77958 89.098851 
L 124.865382 89.962337 
L 125.951183 87.883574 
L 127.036984 86.956126 
L 128.122785 84.365668 
L 129.208586 84.333687 
L 130.294387 84.493592 
L 131.380189 83.502182 
L 134.637592 80.943705 
L 135.723393 81.679267 
L 136.809194 81.487381 
L 137.894995 81.10361 
L 138.980797 106.560457 
L 140.066598 109.502706 
L 141.152399 105.920838 
L 142.2382 109.022991 
L 143.324001 106.208666 
L 144.409802 107.00819 
L 145.495604 105.313199 
L 146.581405 103.138494 
L 147.667206 107.296019 
L 148.753007 105.856876 
L 149.838808 99.04493 
L 150.924609 99.588607 
L 152.01041 98.469273 
L 153.096212 95.782872 
L 154.182013 94.887405 
L 155.267814 95.782872 
L 156.353615 98.02154 
L 157.439416 96.006739 
L 158.525217 96.326548 
L 159.611019 94.279767 
L 160.69682 89.706489 
L 161.782621 90.506013 
L 162.868422 95.846834 
L 163.954223 89.770451 
L 165.040024 93.224395 
L 166.125825 88.523193 
L 167.211627 87.627726 
L 168.297428 88.011498 
L 169.383229 86.508393 
L 170.46903 87.148012 
L 171.554831 84.10982 
L 172.640632 85.069249 
L 173.726434 83.662087 
L 174.812235 85.453021 
L 175.898036 84.589535 
L 176.983837 84.237744 
L 178.069638 79.696447 
L 179.155439 80.719838 
L 180.24124 80.751819 
L 181.327042 81.039648 
L 182.412843 81.839172 
L 183.498644 77.45778 
L 184.584445 77.329856 
L 185.670246 76.402408 
L 186.756047 77.553723 
L 187.841849 74.643455 
L 188.92765 73.396198 
L 190.013451 74.931284 
L 191.099252 72.500731 
L 192.185053 74.643455 
L 193.270854 72.724597 
L 194.356656 71.797149 
L 195.442457 70.48593 
L 196.528258 71.253473 
L 197.614059 71.381397 
L 198.69986 70.198101 
L 199.785661 70.038196 
L 201.957264 67.895472 
L 203.043065 68.82292 
L 204.128866 67.415757 
L 205.214667 66.936043 
L 207.386269 66.360385 
L 208.472071 66.360385 
L 210.643673 65.624823 
L 211.729474 64.281623 
L 213.901076 63.737946 
L 217.15848 63.769927 
L 218.244281 62.682575 
L 219.330082 63.578042 
L 220.415883 63.098327 
L 221.501684 63.130308 
L 222.587486 63.961813 
L 224.759088 62.938422 
L 225.844889 90.921766 
L 226.93069 96.166644 
L 228.016491 93.288357 
L 229.102292 94.823443 
L 231.273895 85.485002 
L 232.359696 88.523193 
L 233.445497 86.796221 
L 234.531298 89.706489 
L 235.617099 88.555174 
L 236.702901 90.41007 
L 237.788702 89.002908 
L 238.874503 88.715079 
L 239.960304 92.232985 
L 241.046105 89.962337 
L 242.131906 85.740849 
L 243.217708 84.013877 
L 244.303509 86.540374 
L 245.38931 87.371879 
L 246.475111 86.828202 
L 247.560912 88.74706 
L 248.646713 87.659707 
L 249.732514 84.74944 
L 250.818316 84.013877 
L 251.904117 83.853973 
L 252.989918 84.941325 
L 254.075719 86.892164 
L 255.16152 84.333687 
L 256.247321 82.926525 
L 257.333123 82.063039 
L 258.418924 82.414829 
L 260.590526 85.261135 
L 261.676327 85.069249 
L 262.762128 83.662087 
L 263.847929 86.572355 
L 264.933731 82.350867 
L 266.019532 82.894544 
L 267.105333 78.673057 
L 268.191134 82.414829 
L 269.276935 82.44681 
L 271.448538 79.856352 
L 272.534339 84.493592 
L 273.62014 81.007667 
L 274.705941 77.969475 
L 275.791742 76.658256 
L 276.877543 80.527952 
L 277.963344 77.361837 
L 280.134947 79.79239 
L 281.220748 75.954675 
L 282.306549 74.579493 
L 283.39235 75.986656 
L 284.478151 75.890713 
L 285.563953 78.289285 
L 286.649754 77.074008 
L 287.735555 75.47496 
L 288.821356 72.884502 
L 289.907157 77.905513 
L 290.992958 78.001456 
L 292.07876 75.506941 
L 293.164561 75.155151 
L 294.250362 74.579493 
L 295.336163 73.620064 
L 296.421964 74.80336 
L 297.507765 73.684026 
L 298.593566 71.637244 
L 299.679368 71.82913 
L 300.765169 69.81433 
L 301.85097 71.15753 
L 302.936771 73.49214 
L 304.022572 74.003836 
L 305.108373 70.358006 
L 306.194175 70.421968 
L 307.279976 71.573283 
L 308.365777 69.49452 
L 309.451578 69.462539 
L 310.537379 68.82292 
L 311.62318 67.287833 
L 312.708981 67.255852 
L 313.794783 70.741778 
L 314.880584 65.656804 
L 315.966385 66.872081 
L 317.052186 67.575662 
L 318.137987 66.808119 
L 320.30959 67.799529 
L 321.395391 66.936043 
L 322.481192 65.656804 
L 323.566993 65.656804 
L 324.652794 63.482099 
L 325.738595 65.400957 
L 326.824396 66.008595 
L 327.910198 64.569452 
L 328.995999 65.944633 
L 330.0818 63.482099 
L 331.167601 65.305014 
L 332.253402 63.610023 
L 333.339203 62.554651 
L 334.425005 60.827679 
L 335.510806 63.418137 
L 336.596607 60.827679 
L 337.682408 62.426727 
L 339.85401 60.443907 
L 340.939811 60.475888 
L 342.025613 60.827679 
L 343.111414 59.996174 
L 344.197215 60.124098 
L 345.283016 58.620992 
L 346.368817 59.388535 
L 347.454618 59.068726 
L 348.54042 59.644383 
L 350.712022 59.484478 
L 351.797823 57.821468 
L 352.883624 58.397126 
L 353.969425 56.798077 
L 356.141028 56.830058 
L 357.226829 56.254401 
L 358.31263 56.094496 
L 359.398431 55.678744 
L 360.484232 55.934591 
L 361.570033 55.518839 
L 362.655835 55.294972 
L 363.741636 57.405716 
L 364.827437 55.23101 
L 365.913238 53.568 
L 366.999039 55.582801 
L 368.08484 56.702134 
L 369.170642 55.294972 
L 370.256443 56.638173 
L 371.342244 58.365145 
L 372.428045 57.245811 
L 373.513846 58.652973 
L 374.599647 58.077316 
L 375.685448 58.652973 
L 376.77125 59.004764 
L 377.857051 57.56562 
L 378.942852 57.309773 
L 380.028653 58.013354 
L 381.114454 57.789487 
L 382.200255 58.972783 
L 383.286057 59.836269 
L 385.457659 57.693544 
L 386.54346 57.405716 
L 387.629261 57.373735 
L 388.715062 58.55703 
L 389.800863 57.181849 
L 390.886665 58.620992 
L 391.972466 60.635793 
L 393.058267 58.461087 
L 394.144068 59.516459 
L 395.229869 58.525049 
L 396.31567 59.356554 
L 397.401472 59.388535 
L 398.487273 57.437697 
L 398.487273 57.437697 
" clip-path="url(#pf068344b66)" style="fill: none; stroke: #ff7f0e; stroke-width: 1.5; stroke-linecap: square"/>
   </g>
   <g id="line2d_21">
    <path d="M 73.832727 290.904246 
L 74.918528 269.510084 
L 76.00433 253.078485 
L 77.090131 250.542064 
L 78.175932 223.192826 
L 79.261733 216.245237 
L 80.347534 213.488258 
L 81.433335 201.467826 
L 82.519137 195.843588 
L 84.690739 188.013766 
L 85.77654 182.940923 
L 86.862341 181.397015 
L 87.948142 174.669984 
L 89.033943 171.802726 
L 90.119745 170.038259 
L 91.205546 170.920492 
L 92.291347 168.163513 
L 93.377148 168.053233 
L 94.462949 166.288766 
L 95.54875 195.181913 
L 96.634552 186.469857 
L 97.720353 189.226837 
L 98.806154 179.30171 
L 99.891955 182.279248 
L 100.977756 182.940923 
L 102.063557 177.97836 
L 103.149358 170.148538 
L 104.23516 173.236355 
L 105.320961 169.597142 
L 106.406762 172.464401 
L 107.492563 170.038259 
L 108.578364 170.369096 
L 109.664165 163.642066 
L 110.749967 163.200949 
L 111.835768 159.230899 
L 112.921569 160.554249 
L 114.00737 162.098157 
L 115.093171 157.245873 
L 116.178972 157.356152 
L 117.264773 150.629122 
L 118.350575 155.040289 
L 119.436376 148.092701 
L 120.522177 146.769351 
L 121.607978 146.107675 
L 122.693779 149.085213 
L 123.77958 145.887117 
L 124.865382 145.776838 
L 125.951183 143.460975 
L 127.036984 142.578742 
L 128.122785 138.057295 
L 129.208586 139.711483 
L 130.294387 140.373158 
L 131.380189 140.04232 
L 132.46599 137.836737 
L 133.551791 136.623666 
L 134.637592 136.623666 
L 135.723393 136.844224 
L 136.809194 135.96199 
L 137.894995 135.851711 
L 138.980797 159.672015 
L 140.066598 160.664528 
L 141.152399 161.436482 
L 142.2382 160.223411 
L 143.324001 156.143081 
L 144.409802 159.01034 
L 145.495604 155.371127 
L 146.581405 154.709452 
L 147.667206 164.303741 
L 148.753007 152.834706 
L 149.838808 160.113132 
L 150.924609 152.062751 
L 152.01041 151.180518 
L 153.096212 147.982422 
L 154.182013 149.305772 
L 155.267814 148.864655 
L 156.353615 153.937498 
L 157.439416 151.070239 
L 158.525217 149.636609 
L 159.611019 150.408564 
L 160.69682 143.791813 
L 161.782621 139.049808 
L 162.868422 148.092701 
L 163.954223 144.012371 
L 165.040024 148.864655 
L 166.125825 146.217955 
L 167.211627 144.453488 
L 168.297428 138.167574 
L 169.383229 140.373158 
L 170.46903 141.806787 
L 171.554831 141.586229 
L 172.640632 141.917066 
L 173.726434 137.726457 
L 174.812235 141.034833 
L 176.983837 141.034833 
L 178.069638 131.330265 
L 179.155439 138.167574 
L 180.24124 137.175061 
L 181.327042 132.322777 
L 182.412843 140.04232 
L 183.498644 133.425569 
L 185.670246 129.23496 
L 186.756047 134.63864 
L 187.841849 131.219985 
L 188.92765 129.565798 
L 190.013451 126.58826 
L 191.099252 125.706026 
L 192.185053 130.778869 
L 193.270854 129.676077 
L 194.356656 130.55831 
L 195.442457 124.492955 
L 196.528258 126.036864 
L 197.614059 125.816305 
L 198.69986 124.823793 
L 199.785661 125.485468 
L 201.957264 122.949047 
L 203.043065 124.934072 
L 204.128866 119.75095 
L 205.214667 119.309833 
L 206.300468 120.192067 
L 207.386269 119.420113 
L 209.557872 118.868717 
L 210.643673 119.861229 
L 211.729474 119.420113 
L 213.901076 118.096762 
L 214.986877 119.640671 
L 216.072679 119.640671 
L 217.15848 118.978996 
L 218.244281 115.560341 
L 219.330082 118.537879 
L 220.415883 116.883691 
L 221.501684 118.096762 
L 222.587486 117.986483 
L 224.759088 116.773412 
L 225.844889 147.872142 
L 226.93069 153.60666 
L 228.016491 151.290797 
L 230.188094 143.240417 
L 231.273895 142.468462 
L 232.359696 139.270366 
L 233.445497 142.247904 
L 234.531298 147.982422 
L 235.617099 141.586229 
L 236.702901 139.270366 
L 237.788702 144.343209 
L 238.874503 142.578742 
L 239.960304 143.350696 
L 241.046105 145.776838 
L 242.131906 144.453488 
L 243.217708 137.836737 
L 244.303509 140.593716 
L 245.38931 140.483437 
L 246.475111 137.836737 
L 247.560912 142.468462 
L 248.646713 141.696508 
L 249.732514 136.07227 
L 250.818316 135.410595 
L 251.904117 137.616178 
L 252.989918 136.513386 
L 254.075719 140.924554 
L 255.16152 139.821762 
L 257.333123 133.976965 
L 259.504725 144.232929 
L 260.590526 134.197523 
L 261.676327 141.255391 
L 262.762128 140.703995 
L 263.847929 139.932041 
L 264.933731 132.212498 
L 266.019532 134.418082 
L 267.105333 131.99194 
L 268.191134 136.292828 
L 269.276935 131.440544 
L 270.362736 130.889148 
L 271.448538 131.440544 
L 273.62014 136.07227 
L 274.705941 131.881661 
L 275.791742 132.322777 
L 276.877543 133.535848 
L 277.963344 134.528361 
L 279.049146 131.330265 
L 280.134947 129.345239 
L 281.220748 134.63864 
L 282.306549 125.706026 
L 283.39235 129.676077 
L 284.478151 129.345239 
L 285.563953 129.23496 
L 286.649754 131.219985 
L 287.735555 128.904123 
L 288.821356 128.904123 
L 289.907157 132.984452 
L 290.992958 130.006914 
L 292.07876 128.683564 
L 293.164561 131.881661 
L 294.250362 128.683564 
L 295.336163 130.66859 
L 296.421964 128.021889 
L 297.507765 129.676077 
L 298.593566 120.633184 
L 299.679368 122.618209 
L 300.765169 128.132168 
L 301.85097 121.956534 
L 302.936771 128.352727 
L 304.022572 123.390163 
L 305.108373 123.279884 
L 306.194175 125.926585 
L 307.279976 129.345239 
L 308.365777 125.15463 
L 309.451578 124.162118 
L 310.537379 123.83128 
L 311.62318 121.735976 
L 312.708981 120.743463 
L 313.794783 118.648158 
L 314.880584 117.214529 
L 315.966385 120.522905 
L 318.137987 118.537879 
L 319.223788 121.625696 
L 320.30959 122.066813 
L 321.395391 120.522905 
L 322.481192 118.317321 
L 323.566993 118.537879 
L 324.652794 116.883691 
L 325.738595 120.081788 
L 326.824396 121.846255 
L 327.910198 116.663133 
L 328.995999 120.964021 
L 330.0818 115.119224 
L 331.167601 120.412625 
L 332.253402 118.4276 
L 333.339203 115.560341 
L 334.425005 111.480011 
L 335.510806 115.119224 
L 336.596607 112.582803 
L 337.682408 113.02392 
L 338.768209 111.038895 
L 339.85401 113.134199 
L 340.939811 109.715544 
L 342.025613 113.685595 
L 343.111414 113.244478 
L 344.197215 111.810849 
L 345.283016 113.244478 
L 346.368817 113.134199 
L 347.454618 112.031407 
L 348.54042 112.251966 
L 349.626221 111.921128 
L 350.712022 110.046382 
L 351.797823 109.274428 
L 353.969425 109.825824 
L 355.055227 110.708057 
L 356.141028 112.693082 
L 357.226829 109.494986 
L 358.31263 104.752981 
L 359.398431 107.509961 
L 360.484232 106.848286 
L 361.570033 107.730519 
L 362.655835 105.966052 
L 363.741636 107.068844 
L 364.827437 106.627727 
L 366.999039 107.951077 
L 368.08484 107.62024 
L 369.170642 108.723032 
L 370.256443 108.281915 
L 371.342244 111.038895 
L 373.513846 107.509961 
L 374.599647 111.259453 
L 375.685448 107.62024 
L 376.77125 111.149174 
L 377.857051 108.833311 
L 378.942852 111.480011 
L 380.028653 108.833311 
L 381.114454 111.149174 
L 382.200255 110.26694 
L 383.286057 112.362245 
L 384.371858 111.810849 
L 385.457659 106.848286 
L 386.54346 108.833311 
L 387.629261 109.384707 
L 388.715062 111.810849 
L 389.800863 108.171636 
L 390.886665 109.384707 
L 391.972466 114.898666 
L 393.058267 111.369732 
L 394.144068 109.053869 
L 395.229869 107.62024 
L 396.31567 107.509961 
L 397.401472 105.635215 
L 398.487273 104.642702 
L 398.487273 104.642702 
" clip-path="url(#pf068344b66)" style="fill: none; stroke: #2ca02c; stroke-width: 1.5; stroke-linecap: square"/>
   </g>
   <g id="line2d_22">
    <path d="M 368.08484 55.678744 
L 369.170642 55.486858 
L 371.342244 54.751296 
L 372.428045 55.294972 
L 373.513846 55.710725 
L 374.599647 56.286382 
L 375.685448 55.646763 
L 376.77125 56.734115 
L 377.857051 55.646763 
M 380.028653 56.190439 
L 381.114454 57.341754 
L 382.200255 55.678744 
L 383.286057 55.518839 
L 384.371858 57.629582 
L 385.457659 56.030534 
L 386.54346 56.158458 
L 387.629261 58.493068 
L 388.715062 54.9112 
L 389.800863 58.748916 
L 390.886665 58.940802 
L 391.972466 55.199029 
L 393.058267 56.862039 
L 394.144068 60.379945 
L 395.229869 59.324573 
L 396.31567 56.350344 
L 397.401472 60.635793 
L 398.487273 58.20524 
L 398.487273 58.20524 
" clip-path="url(#pf068344b66)" style="fill: none; stroke: #d62728; stroke-width: 1.5; stroke-linecap: square"/>
   </g>
   <g id="line2d_23">
    <path d="M 368.08484 108.94359 
L 369.170642 105.855773 
L 370.256443 105.304377 
L 371.342244 105.966052 
L 372.428045 107.509961 
L 374.599647 106.517448 
L 375.685448 103.870748 
L 376.77125 106.18661 
L 377.857051 105.304377 
L 378.942852 107.179123 
L 380.028653 107.399681 
L 381.114454 104.973539 
L 382.200255 104.422143 
L 383.286057 103.650189 
L 384.371858 107.951077 
L 385.457659 105.635215 
L 386.54346 104.642702 
L 387.629261 105.635215 
L 388.715062 105.855773 
L 389.800863 111.149174 
L 390.886665 108.612753 
L 391.972466 104.422143 
L 393.058267 108.281915 
L 394.144068 111.480011 
L 395.229869 111.149174 
L 396.31567 108.171636 
L 397.401472 110.818336 
L 398.487273 111.70057 
L 398.487273 111.70057 
" clip-path="url(#pf068344b66)" style="fill: none; stroke: #9467bd; stroke-width: 1.5; stroke-linecap: square"/>
   </g>
   <g id="patch_3">
    <path d="M 57.6 307.584 
L 57.6 41.472 
" style="fill: none; stroke: #000000; stroke-width: 0.8; stroke-linejoin: miter; stroke-linecap: square"/>
   </g>
   <g id="patch_4">
    <path d="M 414.72 307.584 
L 414.72 41.472 
" style="fill: none; stroke: #000000; stroke-width: 0.8; stroke-linejoin: miter; stroke-linecap: square"/>
   </g>
   <g id="patch_5">
    <path d="M 57.6 307.584 
L 414.72 307.584 
" style="fill: none; stroke: #000000; stroke-width: 0.8; stroke-linejoin: miter; stroke-linecap: square"/>
   </g>
   <g id="patch_6">
    <path d="M 57.6 41.472 
L 414.72 41.472 
" style="fill: none; stroke: #000000; stroke-width: 0.8; stroke-linejoin: miter; stroke-linecap: square"/>
   </g>
   <g id="text_21">
    <!-- Learning Curves -->
    <g transform="translate(187.37625 35.472) scale(0.12 -0.12)">
     <defs>
      <path id="DejaVuSans-4c" d="M 628 4666 
L 1259 4666 
L 1259 531 
L 3531 531 
L 3531 0 
L 628 0 
L 628 4666 
z
" transform="scale(0.015625)"/>
      <path id="DejaVuSans-65" d="M 3597 1894 
L 3597 1613 
L 953 1613 
Q 991 1019 1311 708 
Q 1631 397 2203 397 
Q 2534 397 2845 478 
Q 3156 559 3463 722 
L 3463 178 
Q 3153 47 2828 -22 
Q 2503 -91 2169 -91 
Q 1331 -91 842 396 
Q 353 884 353 1716 
Q 353 2575 817 3079 
Q 1281 3584 2069 3584 
Q 2775 3584 3186 3129 
Q 3597 2675 3597 1894 
z
M 3022 2063 
Q 3016 2534 2758 2815 
Q 2500 3097 2075 3097 
Q 1594 3097 1305 2825 
Q 1016 2553 972 2059 
L 3022 2063 
z
" transform="scale(0.015625)"/>
      <path id="DejaVuSans-6e" d="M 3513 2113 
L 3513 0 
L 2938 0 
L 2938 2094 
Q 2938 2591 2744 2837 
Q 2550 3084 2163 3084 
Q 1697 3084 1428 2787 
Q 1159 2491 1159 1978 
L 1159 0 
L 581 0 
L 581 3500 
L 1159 3500 
L 1159 2956 
Q 1366 3272 1645 3428 
Q 1925 3584 2291 3584 
Q 2894 3584 3203 3211 
Q 3513 2838 3513 2113 
z
" transform="scale(0.015625)"/>
      <path id="DejaVuSans-69" d="M 603 3500 
L 1178 3500 
L 1178 0 
L 603 0 
L 603 3500 
z
M 603 4863 
L 1178 4863 
L 1178 4134 
L 603 4134 
L 603 4863 
z
" transform="scale(0.015625)"/>
      <path id="DejaVuSans-67" d="M 2906 1791 
Q 2906 2416 2648 2759 
Q 2391 3103 1925 3103 
Q 1463 3103 1205 2759 
Q 947 2416 947 1791 
Q 947 1169 1205 825 
Q 1463 481 1925 481 
Q 2391 481 2648 825 
Q 2906 1169 2906 1791 
z
M 3481 434 
Q 3481 -459 3084 -895 
Q 2688 -1331 1869 -1331 
Q 1566 -1331 1297 -1286 
Q 1028 -1241 775 -1147 
L 775 -588 
Q 1028 -725 1275 -790 
Q 1522 -856 1778 -856 
Q 2344 -856 2625 -561 
Q 2906 -266 2906 331 
L 2906 616 
Q 2728 306 2450 153 
Q 2172 0 1784 0 
Q 1141 0 747 490 
Q 353 981 353 1791 
Q 353 2603 747 3093 
Q 1141 3584 1784 3584 
Q 2172 3584 2450 3431 
Q 2728 3278 2906 2969 
L 2906 3500 
L 3481 3500 
L 3481 434 
z
" transform="scale(0.015625)"/>
      <path id="DejaVuSans-20" transform="scale(0.015625)"/>
      <path id="DejaVuSans-43" d="M 4122 4306 
L 4122 3641 
Q 3803 3938 3442 4084 
Q 3081 4231 2675 4231 
Q 1875 4231 1450 3742 
Q 1025 3253 1025 2328 
Q 1025 1406 1450 917 
Q 1875 428 2675 428 
Q 3081 428 3442 575 
Q 3803 722 4122 1019 
L 4122 359 
Q 3791 134 3420 21 
Q 3050 -91 2638 -91 
Q 1578 -91 968 557 
Q 359 1206 359 2328 
Q 359 3453 968 4101 
Q 1578 4750 2638 4750 
Q 3056 4750 3426 4639 
Q 3797 4528 4122 4306 
z
" transform="scale(0.015625)"/>
      <path id="DejaVuSans-76" d="M 191 3500 
L 800 3500 
L 1894 563 
L 2988 3500 
L 3597 3500 
L 2284 0 
L 1503 0 
L 191 3500 
z
" transform="scale(0.015625)"/>
     </defs>
     <use xlink:href="#DejaVuSans-4c"/>
     <use xlink:href="#DejaVuSans-65" x="53.962891"/>
     <use xlink:href="#DejaVuSans-61" x="115.486328"/>
     <use xlink:href="#DejaVuSans-72" x="176.765625"/>
     <use xlink:href="#DejaVuSans-6e" x="216.128906"/>
     <use xlink:href="#DejaVuSans-69" x="279.507812"/>
     <use xlink:href="#DejaVuSans-6e" x="307.291016"/>
     <use xlink:href="#DejaVuSans-67" x="370.669922"/>
     <use xlink:href="#DejaVuSans-20" x="434.146484"/>
     <use xlink:href="#DejaVuSans-43" x="465.933594"/>
     <use xlink:href="#DejaVuSans-75" x="535.757812"/>
     <use xlink:href="#DejaVuSans-72" x="599.136719"/>
     <use xlink:href="#DejaVuSans-76" x="640.25"/>
     <use xlink:href="#DejaVuSans-65" x="699.429688"/>
     <use xlink:href="#DejaVuSans-73" x="760.953125"/>
    </g>
   </g>
   <g id="legend_1">
    <g id="patch_7">
     <path d="M 214.18875 302.584 
L 407.72 302.584 
Q 409.72 302.584 409.72 300.584 
L 409.72 228.193375 
Q 409.72 226.193375 407.72 226.193375 
L 214.18875 226.193375 
Q 212.18875 226.193375 212.18875 228.193375 
L 212.18875 300.584 
Q 212.18875 302.584 214.18875 302.584 
z
" style="fill: #ffffff; opacity: 0.8; stroke: #cccccc; stroke-linejoin: miter"/>
    </g>
    <g id="line2d_24">
     <path d="M 216.18875 234.291812 
L 226.18875 234.291812 
L 236.18875 234.291812 
" style="fill: none; stroke: #1f77b4; stroke-width: 1.5; stroke-linecap: square"/>
    </g>
    <g id="text_22">
     <!-- Train Accuracy -->
     <g transform="translate(244.18875 237.791812) scale(0.1 -0.1)">
      <defs>
       <path id="DejaVuSans-54" d="M -19 4666 
L 3928 4666 
L 3928 4134 
L 2272 4134 
L 2272 0 
L 1638 0 
L 1638 4134 
L -19 4134 
L -19 4666 
z
" transform="scale(0.015625)"/>
      </defs>
      <use xlink:href="#DejaVuSans-54"/>
      <use xlink:href="#DejaVuSans-72" x="46.333984"/>
      <use xlink:href="#DejaVuSans-61" x="87.447266"/>
      <use xlink:href="#DejaVuSans-69" x="148.726562"/>
      <use xlink:href="#DejaVuSans-6e" x="176.509766"/>
      <use xlink:href="#DejaVuSans-20" x="239.888672"/>
      <use xlink:href="#DejaVuSans-41" x="271.675781"/>
      <use xlink:href="#DejaVuSans-63" x="338.333984"/>
      <use xlink:href="#DejaVuSans-63" x="393.314453"/>
      <use xlink:href="#DejaVuSans-75" x="448.294922"/>
      <use xlink:href="#DejaVuSans-72" x="511.673828"/>
      <use xlink:href="#DejaVuSans-61" x="552.787109"/>
      <use xlink:href="#DejaVuSans-63" x="614.066406"/>
      <use xlink:href="#DejaVuSans-79" x="669.046875"/>
     </g>
    </g>
    <g id="line2d_25">
     <path d="M 216.18875 248.969937 
L 226.18875 248.969937 
L 236.18875 248.969937 
" style="fill: none; stroke: #ff7f0e; stroke-width: 1.5; stroke-linecap: square"/>
    </g>
    <g id="text_23">
     <!-- Validation Accuracy -->
     <g transform="translate(244.18875 252.469937) scale(0.1 -0.1)">
      <defs>
       <path id="DejaVuSans-56" d="M 1831 0 
L 50 4666 
L 709 4666 
L 2188 738 
L 3669 4666 
L 4325 4666 
L 2547 0 
L 1831 0 
z
" transform="scale(0.015625)"/>
       <path id="DejaVuSans-6c" d="M 603 4863 
L 1178 4863 
L 1178 0 
L 603 0 
L 603 4863 
z
" transform="scale(0.015625)"/>
       <path id="DejaVuSans-64" d="M 2906 2969 
L 2906 4863 
L 3481 4863 
L 3481 0 
L 2906 0 
L 2906 525 
Q 2725 213 2448 61 
Q 2172 -91 1784 -91 
Q 1150 -91 751 415 
Q 353 922 353 1747 
Q 353 2572 751 3078 
Q 1150 3584 1784 3584 
Q 2172 3584 2448 3432 
Q 2725 3281 2906 2969 
z
M 947 1747 
Q 947 1113 1208 752 
Q 1469 391 1925 391 
Q 2381 391 2643 752 
Q 2906 1113 2906 1747 
Q 2906 2381 2643 2742 
Q 2381 3103 1925 3103 
Q 1469 3103 1208 2742 
Q 947 2381 947 1747 
z
" transform="scale(0.015625)"/>
       <path id="DejaVuSans-74" d="M 1172 4494 
L 1172 3500 
L 2356 3500 
L 2356 3053 
L 1172 3053 
L 1172 1153 
Q 1172 725 1289 603 
Q 1406 481 1766 481 
L 2356 481 
L 2356 0 
L 1766 0 
Q 1100 0 847 248 
Q 594 497 594 1153 
L 594 3053 
L 172 3053 
L 172 3500 
L 594 3500 
L 594 4494 
L 1172 4494 
z
" transform="scale(0.015625)"/>
      </defs>
      <use xlink:href="#DejaVuSans-56"/>
      <use xlink:href="#DejaVuSans-61" x="60.658203"/>
      <use xlink:href="#DejaVuSans-6c" x="121.9375"/>
      <use xlink:href="#DejaVuSans-69" x="149.720703"/>
      <use xlink:href="#DejaVuSans-64" x="177.503906"/>
      <use xlink:href="#DejaVuSans-61" x="240.980469"/>
      <use xlink:href="#DejaVuSans-74" x="302.259766"/>
      <use xlink:href="#DejaVuSans-69" x="341.46875"/>
      <use xlink:href="#DejaVuSans-6f" x="369.251953"/>
      <use xlink:href="#DejaVuSans-6e" x="430.433594"/>
      <use xlink:href="#DejaVuSans-20" x="493.8125"/>
      <use xlink:href="#DejaVuSans-41" x="525.599609"/>
      <use xlink:href="#DejaVuSans-63" x="592.257812"/>
      <use xlink:href="#DejaVuSans-63" x="647.238281"/>
      <use xlink:href="#DejaVuSans-75" x="702.21875"/>
      <use xlink:href="#DejaVuSans-72" x="765.597656"/>
      <use xlink:href="#DejaVuSans-61" x="806.710938"/>
      <use xlink:href="#DejaVuSans-63" x="867.990234"/>
      <use xlink:href="#DejaVuSans-79" x="922.970703"/>
     </g>
    </g>
    <g id="line2d_26">
     <path d="M 216.18875 263.648062 
L 226.18875 263.648062 
L 236.18875 263.648062 
" style="fill: none; stroke: #2ca02c; stroke-width: 1.5; stroke-linecap: square"/>
    </g>
    <g id="text_24">
     <!-- Robust Validation Accuracy -->
     <g transform="translate(244.18875 267.148062) scale(0.1 -0.1)">
      <defs>
       <path id="DejaVuSans-52" d="M 2841 2188 
Q 3044 2119 3236 1894 
Q 3428 1669 3622 1275 
L 4263 0 
L 3584 0 
L 2988 1197 
Q 2756 1666 2539 1819 
Q 2322 1972 1947 1972 
L 1259 1972 
L 1259 0 
L 628 0 
L 628 4666 
L 2053 4666 
Q 2853 4666 3247 4331 
Q 3641 3997 3641 3322 
Q 3641 2881 3436 2590 
Q 3231 2300 2841 2188 
z
M 1259 4147 
L 1259 2491 
L 2053 2491 
Q 2509 2491 2742 2702 
Q 2975 2913 2975 3322 
Q 2975 3731 2742 3939 
Q 2509 4147 2053 4147 
L 1259 4147 
z
" transform="scale(0.015625)"/>
       <path id="DejaVuSans-62" d="M 3116 1747 
Q 3116 2381 2855 2742 
Q 2594 3103 2138 3103 
Q 1681 3103 1420 2742 
Q 1159 2381 1159 1747 
Q 1159 1113 1420 752 
Q 1681 391 2138 391 
Q 2594 391 2855 752 
Q 3116 1113 3116 1747 
z
M 1159 2969 
Q 1341 3281 1617 3432 
Q 1894 3584 2278 3584 
Q 2916 3584 3314 3078 
Q 3713 2572 3713 1747 
Q 3713 922 3314 415 
Q 2916 -91 2278 -91 
Q 1894 -91 1617 61 
Q 1341 213 1159 525 
L 1159 0 
L 581 0 
L 581 4863 
L 1159 4863 
L 1159 2969 
z
" transform="scale(0.015625)"/>
      </defs>
      <use xlink:href="#DejaVuSans-52"/>
      <use xlink:href="#DejaVuSans-6f" x="64.982422"/>
      <use xlink:href="#DejaVuSans-62" x="126.164062"/>
      <use xlink:href="#DejaVuSans-75" x="189.640625"/>
      <use xlink:href="#DejaVuSans-73" x="253.019531"/>
      <use xlink:href="#DejaVuSans-74" x="305.119141"/>
      <use xlink:href="#DejaVuSans-20" x="344.328125"/>
      <use xlink:href="#DejaVuSans-56" x="376.115234"/>
      <use xlink:href="#DejaVuSans-61" x="436.773438"/>
      <use xlink:href="#DejaVuSans-6c" x="498.052734"/>
      <use xlink:href="#DejaVuSans-69" x="525.835938"/>
      <use xlink:href="#DejaVuSans-64" x="553.619141"/>
      <use xlink:href="#DejaVuSans-61" x="617.095703"/>
      <use xlink:href="#DejaVuSans-74" x="678.375"/>
      <use xlink:href="#DejaVuSans-69" x="717.583984"/>
      <use xlink:href="#DejaVuSans-6f" x="745.367188"/>
      <use xlink:href="#DejaVuSans-6e" x="806.548828"/>
      <use xlink:href="#DejaVuSans-20" x="869.927734"/>
      <use xlink:href="#DejaVuSans-41" x="901.714844"/>
      <use xlink:href="#DejaVuSans-63" x="968.373047"/>
      <use xlink:href="#DejaVuSans-63" x="1023.353516"/>
      <use xlink:href="#DejaVuSans-75" x="1078.333984"/>
      <use xlink:href="#DejaVuSans-72" x="1141.712891"/>
      <use xlink:href="#DejaVuSans-61" x="1182.826172"/>
      <use xlink:href="#DejaVuSans-63" x="1244.105469"/>
      <use xlink:href="#DejaVuSans-79" x="1299.085938"/>
     </g>
    </g>
    <g id="line2d_27">
     <path d="M 216.18875 278.326188 
L 226.18875 278.326188 
L 236.18875 278.326188 
" style="fill: none; stroke: #d62728; stroke-width: 1.5; stroke-linecap: square"/>
    </g>
    <g id="text_25">
     <!-- SWA Validation Accuracy -->
     <g transform="translate(244.18875 281.826188) scale(0.1 -0.1)">
      <defs>
       <path id="DejaVuSans-53" d="M 3425 4513 
L 3425 3897 
Q 3066 4069 2747 4153 
Q 2428 4238 2131 4238 
Q 1616 4238 1336 4038 
Q 1056 3838 1056 3469 
Q 1056 3159 1242 3001 
Q 1428 2844 1947 2747 
L 2328 2669 
Q 3034 2534 3370 2195 
Q 3706 1856 3706 1288 
Q 3706 609 3251 259 
Q 2797 -91 1919 -91 
Q 1588 -91 1214 -16 
Q 841 59 441 206 
L 441 856 
Q 825 641 1194 531 
Q 1563 422 1919 422 
Q 2459 422 2753 634 
Q 3047 847 3047 1241 
Q 3047 1584 2836 1778 
Q 2625 1972 2144 2069 
L 1759 2144 
Q 1053 2284 737 2584 
Q 422 2884 422 3419 
Q 422 4038 858 4394 
Q 1294 4750 2059 4750 
Q 2388 4750 2728 4690 
Q 3069 4631 3425 4513 
z
" transform="scale(0.015625)"/>
       <path id="DejaVuSans-57" d="M 213 4666 
L 850 4666 
L 1831 722 
L 2809 4666 
L 3519 4666 
L 4500 722 
L 5478 4666 
L 6119 4666 
L 4947 0 
L 4153 0 
L 3169 4050 
L 2175 0 
L 1381 0 
L 213 4666 
z
" transform="scale(0.015625)"/>
      </defs>
      <use xlink:href="#DejaVuSans-53"/>
      <use xlink:href="#DejaVuSans-57" x="63.476562"/>
      <use xlink:href="#DejaVuSans-41" x="156.853516"/>
      <use xlink:href="#DejaVuSans-20" x="225.261719"/>
      <use xlink:href="#DejaVuSans-56" x="257.048828"/>
      <use xlink:href="#DejaVuSans-61" x="317.707031"/>
      <use xlink:href="#DejaVuSans-6c" x="378.986328"/>
      <use xlink:href="#DejaVuSans-69" x="406.769531"/>
      <use xlink:href="#DejaVuSans-64" x="434.552734"/>
      <use xlink:href="#DejaVuSans-61" x="498.029297"/>
      <use xlink:href="#DejaVuSans-74" x="559.308594"/>
      <use xlink:href="#DejaVuSans-69" x="598.517578"/>
      <use xlink:href="#DejaVuSans-6f" x="626.300781"/>
      <use xlink:href="#DejaVuSans-6e" x="687.482422"/>
      <use xlink:href="#DejaVuSans-20" x="750.861328"/>
      <use xlink:href="#DejaVuSans-41" x="782.648438"/>
      <use xlink:href="#DejaVuSans-63" x="849.306641"/>
      <use xlink:href="#DejaVuSans-63" x="904.287109"/>
      <use xlink:href="#DejaVuSans-75" x="959.267578"/>
      <use xlink:href="#DejaVuSans-72" x="1022.646484"/>
      <use xlink:href="#DejaVuSans-61" x="1063.759766"/>
      <use xlink:href="#DejaVuSans-63" x="1125.039062"/>
      <use xlink:href="#DejaVuSans-79" x="1180.019531"/>
     </g>
    </g>
    <g id="line2d_28">
     <path d="M 216.18875 293.004312 
L 226.18875 293.004312 
L 236.18875 293.004312 
" style="fill: none; stroke: #9467bd; stroke-width: 1.5; stroke-linecap: square"/>
    </g>
    <g id="text_26">
     <!-- SWA Robust Validation Accuracy -->
     <g transform="translate(244.18875 296.504312) scale(0.1 -0.1)">
      <use xlink:href="#DejaVuSans-53"/>
      <use xlink:href="#DejaVuSans-57" x="63.476562"/>
      <use xlink:href="#DejaVuSans-41" x="156.853516"/>
      <use xlink:href="#DejaVuSans-20" x="225.261719"/>
      <use xlink:href="#DejaVuSans-52" x="257.048828"/>
      <use xlink:href="#DejaVuSans-6f" x="322.03125"/>
      <use xlink:href="#DejaVuSans-62" x="383.212891"/>
      <use xlink:href="#DejaVuSans-75" x="446.689453"/>
      <use xlink:href="#DejaVuSans-73" x="510.068359"/>
      <use xlink:href="#DejaVuSans-74" x="562.167969"/>
      <use xlink:href="#DejaVuSans-20" x="601.376953"/>
      <use xlink:href="#DejaVuSans-56" x="633.164062"/>
      <use xlink:href="#DejaVuSans-61" x="693.822266"/>
      <use xlink:href="#DejaVuSans-6c" x="755.101562"/>
      <use xlink:href="#DejaVuSans-69" x="782.884766"/>
      <use xlink:href="#DejaVuSans-64" x="810.667969"/>
      <use xlink:href="#DejaVuSans-61" x="874.144531"/>
      <use xlink:href="#DejaVuSans-74" x="935.423828"/>
      <use xlink:href="#DejaVuSans-69" x="974.632812"/>
      <use xlink:href="#DejaVuSans-6f" x="1002.416016"/>
      <use xlink:href="#DejaVuSans-6e" x="1063.597656"/>
      <use xlink:href="#DejaVuSans-20" x="1126.976562"/>
      <use xlink:href="#DejaVuSans-41" x="1158.763672"/>
      <use xlink:href="#DejaVuSans-63" x="1225.421875"/>
      <use xlink:href="#DejaVuSans-63" x="1280.402344"/>
      <use xlink:href="#DejaVuSans-75" x="1335.382812"/>
      <use xlink:href="#DejaVuSans-72" x="1398.761719"/>
      <use xlink:href="#DejaVuSans-61" x="1439.875"/>
      <use xlink:href="#DejaVuSans-63" x="1501.154297"/>
      <use xlink:href="#DejaVuSans-79" x="1556.134766"/>
     </g>
    </g>
   </g>
  </g>
 </g>
 <defs>
  <clipPath id="pf068344b66">
   <rect x="57.6" y="41.472" width="357.12" height="266.112"/>
  </clipPath>
 </defs>
</svg>
