<?xml version="1.0" encoding="utf-8" standalone="no"?>
<!DOCTYPE svg PUBLIC "-//W3C//DTD SVG 1.1//EN"
  "http://www.w3.org/Graphics/SVG/1.1/DTD/svg11.dtd">
<svg xmlns:xlink="http://www.w3.org/1999/xlink" width="460.8pt" height="345.6pt" viewBox="0 0 460.8 345.6" xmlns="http://www.w3.org/2000/svg" version="1.1">
 <metadata>
  <rdf:RDF xmlns:dc="http://purl.org/dc/elements/1.1/" xmlns:cc="http://creativecommons.org/ns#" xmlns:rdf="http://www.w3.org/1999/02/22-rdf-syntax-ns#">
   <cc:Work>
    <dc:type rdf:resource="http://purl.org/dc/dcmitype/StillImage"/>
    <dc:date>2025-10-11T14:20:47.852089</dc:date>
    <dc:format>image/svg+xml</dc:format>
    <dc:creator>
     <cc:Agent>
      <dc:title>Matplotlib v3.9.1, https://matplotlib.org/</dc:title>
     </cc:Agent>
    </dc:creator>
   </cc:Work>
  </rdf:RDF>
 </metadata>
 <defs>
  <style type="text/css">*{stroke-linejoin: round; stroke-linecap: butt}</style>
 </defs>
 <g id="figure_1">
  <g id="patch_1">
   <path d="M 0 345.6 
L 460.8 345.6 
L 460.8 0 
L 0 0 
z
" style="fill: #ffffff"/>
  </g>
  <g id="axes_1">
   <g id="patch_2">
    <path d="M 57.6 307.584 
L 414.72 307.584 
L 414.72 41.472 
L 57.6 41.472 
z
" style="fill: #ffffff"/>
   </g>
   <g id="matplotlib.axis_1">
    <g id="xtick_1">
     <g id="line2d_1">
      <defs>
       <path id="mb223903fce" d="M 0 0 
L 0 3.5 
" style="stroke: #000000; stroke-width: 0.8"/>
      </defs>
      <g>
       <use xlink:href="#mb223903fce" x="73.832727" y="307.584" style="stroke: #000000; stroke-width: 0.8"/>
      </g>
     </g>
     <g id="text_1">
      <!-- 1 -->
      <g transform="translate(70.651477 322.182437) scale(0.1 -0.1)">
       <defs>
        <path id="DejaVuSans-31" d="M 794 531 
L 1825 531 
L 1825 4091 
L 703 3866 
L 703 4441 
L 1819 4666 
L 2450 4666 
L 2450 531 
L 3481 531 
L 3481 0 
L 794 0 
L 794 531 
z
" transform="scale(0.015625)"/>
       </defs>
       <use xlink:href="#DejaVuSans-31"/>
      </g>
     </g>
    </g>
    <g id="xtick_2">
     <g id="line2d_2">
      <g>
       <use xlink:href="#mb223903fce" x="109.664165" y="307.584" style="stroke: #000000; stroke-width: 0.8"/>
      </g>
     </g>
     <g id="text_2">
      <!-- 34 -->
      <g transform="translate(103.301665 322.182437) scale(0.1 -0.1)">
       <defs>
        <path id="DejaVuSans-33" d="M 2597 2516 
Q 3050 2419 3304 2112 
Q 3559 1806 3559 1356 
Q 3559 666 3084 287 
Q 2609 -91 1734 -91 
Q 1441 -91 1130 -33 
Q 819 25 488 141 
L 488 750 
Q 750 597 1062 519 
Q 1375 441 1716 441 
Q 2309 441 2620 675 
Q 2931 909 2931 1356 
Q 2931 1769 2642 2001 
Q 2353 2234 1838 2234 
L 1294 2234 
L 1294 2753 
L 1863 2753 
Q 2328 2753 2575 2939 
Q 2822 3125 2822 3475 
Q 2822 3834 2567 4026 
Q 2313 4219 1838 4219 
Q 1578 4219 1281 4162 
Q 984 4106 628 3988 
L 628 4550 
Q 988 4650 1302 4700 
Q 1616 4750 1894 4750 
Q 2613 4750 3031 4423 
Q 3450 4097 3450 3541 
Q 3450 3153 3228 2886 
Q 3006 2619 2597 2516 
z
" transform="scale(0.015625)"/>
        <path id="DejaVuSans-34" d="M 2419 4116 
L 825 1625 
L 2419 1625 
L 2419 4116 
z
M 2253 4666 
L 3047 4666 
L 3047 1625 
L 3713 1625 
L 3713 1100 
L 3047 1100 
L 3047 0 
L 2419 0 
L 2419 1100 
L 313 1100 
L 313 1709 
L 2253 4666 
z
" transform="scale(0.015625)"/>
       </defs>
       <use xlink:href="#DejaVuSans-33"/>
       <use xlink:href="#DejaVuSans-34" x="63.623047"/>
      </g>
     </g>
    </g>
    <g id="xtick_3">
     <g id="line2d_3">
      <g>
       <use xlink:href="#mb223903fce" x="145.495604" y="307.584" style="stroke: #000000; stroke-width: 0.8"/>
      </g>
     </g>
     <g id="text_3">
      <!-- 67 -->
      <g transform="translate(139.133104 322.182437) scale(0.1 -0.1)">
       <defs>
        <path id="DejaVuSans-36" d="M 2113 2584 
Q 1688 2584 1439 2293 
Q 1191 2003 1191 1497 
Q 1191 994 1439 701 
Q 1688 409 2113 409 
Q 2538 409 2786 701 
Q 3034 994 3034 1497 
Q 3034 2003 2786 2293 
Q 2538 2584 2113 2584 
z
M 3366 4563 
L 3366 3988 
Q 3128 4100 2886 4159 
Q 2644 4219 2406 4219 
Q 1781 4219 1451 3797 
Q 1122 3375 1075 2522 
Q 1259 2794 1537 2939 
Q 1816 3084 2150 3084 
Q 2853 3084 3261 2657 
Q 3669 2231 3669 1497 
Q 3669 778 3244 343 
Q 2819 -91 2113 -91 
Q 1303 -91 875 529 
Q 447 1150 447 2328 
Q 447 3434 972 4092 
Q 1497 4750 2381 4750 
Q 2619 4750 2861 4703 
Q 3103 4656 3366 4563 
z
" transform="scale(0.015625)"/>
        <path id="DejaVuSans-37" d="M 525 4666 
L 3525 4666 
L 3525 4397 
L 1831 0 
L 1172 0 
L 2766 4134 
L 525 4134 
L 525 4666 
z
" transform="scale(0.015625)"/>
       </defs>
       <use xlink:href="#DejaVuSans-36"/>
       <use xlink:href="#DejaVuSans-37" x="63.623047"/>
      </g>
     </g>
    </g>
    <g id="xtick_4">
     <g id="line2d_4">
      <g>
       <use xlink:href="#mb223903fce" x="181.327042" y="307.584" style="stroke: #000000; stroke-width: 0.8"/>
      </g>
     </g>
     <g id="text_4">
      <!-- 100 -->
      <g transform="translate(171.783292 322.182437) scale(0.1 -0.1)">
       <defs>
        <path id="DejaVuSans-30" d="M 2034 4250 
Q 1547 4250 1301 3770 
Q 1056 3291 1056 2328 
Q 1056 1369 1301 889 
Q 1547 409 2034 409 
Q 2525 409 2770 889 
Q 3016 1369 3016 2328 
Q 3016 3291 2770 3770 
Q 2525 4250 2034 4250 
z
M 2034 4750 
Q 2819 4750 3233 4129 
Q 3647 3509 3647 2328 
Q 3647 1150 3233 529 
Q 2819 -91 2034 -91 
Q 1250 -91 836 529 
Q 422 1150 422 2328 
Q 422 3509 836 4129 
Q 1250 4750 2034 4750 
z
" transform="scale(0.015625)"/>
       </defs>
       <use xlink:href="#DejaVuSans-31"/>
       <use xlink:href="#DejaVuSans-30" x="63.623047"/>
       <use xlink:href="#DejaVuSans-30" x="127.246094"/>
      </g>
     </g>
    </g>
    <g id="xtick_5">
     <g id="line2d_5">
      <g>
       <use xlink:href="#mb223903fce" x="217.15848" y="307.584" style="stroke: #000000; stroke-width: 0.8"/>
      </g>
     </g>
     <g id="text_5">
      <!-- 133 -->
      <g transform="translate(207.61473 322.182437) scale(0.1 -0.1)">
       <use xlink:href="#DejaVuSans-31"/>
       <use xlink:href="#DejaVuSans-33" x="63.623047"/>
       <use xlink:href="#DejaVuSans-33" x="127.246094"/>
      </g>
     </g>
    </g>
    <g id="xtick_6">
     <g id="line2d_6">
      <g>
       <use xlink:href="#mb223903fce" x="254.075719" y="307.584" style="stroke: #000000; stroke-width: 0.8"/>
      </g>
     </g>
     <g id="text_6">
      <!-- 167 -->
      <g transform="translate(244.531969 322.182437) scale(0.1 -0.1)">
       <use xlink:href="#DejaVuSans-31"/>
       <use xlink:href="#DejaVuSans-36" x="63.623047"/>
       <use xlink:href="#DejaVuSans-37" x="127.246094"/>
      </g>
     </g>
    </g>
    <g id="xtick_7">
     <g id="line2d_7">
      <g>
       <use xlink:href="#mb223903fce" x="289.907157" y="307.584" style="stroke: #000000; stroke-width: 0.8"/>
      </g>
     </g>
     <g id="text_7">
      <!-- 200 -->
      <g transform="translate(280.363407 322.182437) scale(0.1 -0.1)">
       <defs>
        <path id="DejaVuSans-32" d="M 1228 531 
L 3431 531 
L 3431 0 
L 469 0 
L 469 531 
Q 828 903 1448 1529 
Q 2069 2156 2228 2338 
Q 2531 2678 2651 2914 
Q 2772 3150 2772 3378 
Q 2772 3750 2511 3984 
Q 2250 4219 1831 4219 
Q 1534 4219 1204 4116 
Q 875 4013 500 3803 
L 500 4441 
Q 881 4594 1212 4672 
Q 1544 4750 1819 4750 
Q 2544 4750 2975 4387 
Q 3406 4025 3406 3419 
Q 3406 3131 3298 2873 
Q 3191 2616 2906 2266 
Q 2828 2175 2409 1742 
Q 1991 1309 1228 531 
z
" transform="scale(0.015625)"/>
       </defs>
       <use xlink:href="#DejaVuSans-32"/>
       <use xlink:href="#DejaVuSans-30" x="63.623047"/>
       <use xlink:href="#DejaVuSans-30" x="127.246094"/>
      </g>
     </g>
    </g>
    <g id="xtick_8">
     <g id="line2d_8">
      <g>
       <use xlink:href="#mb223903fce" x="325.738595" y="307.584" style="stroke: #000000; stroke-width: 0.8"/>
      </g>
     </g>
     <g id="text_8">
      <!-- 233 -->
      <g transform="translate(316.194845 322.182437) scale(0.1 -0.1)">
       <use xlink:href="#DejaVuSans-32"/>
       <use xlink:href="#DejaVuSans-33" x="63.623047"/>
       <use xlink:href="#DejaVuSans-33" x="127.246094"/>
      </g>
     </g>
    </g>
    <g id="xtick_9">
     <g id="line2d_9">
      <g>
       <use xlink:href="#mb223903fce" x="361.570033" y="307.584" style="stroke: #000000; stroke-width: 0.8"/>
      </g>
     </g>
     <g id="text_9">
      <!-- 266 -->
      <g transform="translate(352.026283 322.182437) scale(0.1 -0.1)">
       <use xlink:href="#DejaVuSans-32"/>
       <use xlink:href="#DejaVuSans-36" x="63.623047"/>
       <use xlink:href="#DejaVuSans-36" x="127.246094"/>
      </g>
     </g>
    </g>
    <g id="xtick_10">
     <g id="line2d_10">
      <g>
       <use xlink:href="#mb223903fce" x="398.487273" y="307.584" style="stroke: #000000; stroke-width: 0.8"/>
      </g>
     </g>
     <g id="text_10">
      <!-- 300 -->
      <g transform="translate(388.943523 322.182437) scale(0.1 -0.1)">
       <use xlink:href="#DejaVuSans-33"/>
       <use xlink:href="#DejaVuSans-30" x="63.623047"/>
       <use xlink:href="#DejaVuSans-30" x="127.246094"/>
      </g>
     </g>
    </g>
    <g id="text_11">
     <!-- Epochs -->
     <g transform="translate(218.244375 335.860562) scale(0.1 -0.1)">
      <defs>
       <path id="DejaVuSans-45" d="M 628 4666 
L 3578 4666 
L 3578 4134 
L 1259 4134 
L 1259 2753 
L 3481 2753 
L 3481 2222 
L 1259 2222 
L 1259 531 
L 3634 531 
L 3634 0 
L 628 0 
L 628 4666 
z
" transform="scale(0.015625)"/>
       <path id="DejaVuSans-70" d="M 1159 525 
L 1159 -1331 
L 581 -1331 
L 581 3500 
L 1159 3500 
L 1159 2969 
Q 1341 3281 1617 3432 
Q 1894 3584 2278 3584 
Q 2916 3584 3314 3078 
Q 3713 2572 3713 1747 
Q 3713 922 3314 415 
Q 2916 -91 2278 -91 
Q 1894 -91 1617 61 
Q 1341 213 1159 525 
z
M 3116 1747 
Q 3116 2381 2855 2742 
Q 2594 3103 2138 3103 
Q 1681 3103 1420 2742 
Q 1159 2381 1159 1747 
Q 1159 1113 1420 752 
Q 1681 391 2138 391 
Q 2594 391 2855 752 
Q 3116 1113 3116 1747 
z
" transform="scale(0.015625)"/>
       <path id="DejaVuSans-6f" d="M 1959 3097 
Q 1497 3097 1228 2736 
Q 959 2375 959 1747 
Q 959 1119 1226 758 
Q 1494 397 1959 397 
Q 2419 397 2687 759 
Q 2956 1122 2956 1747 
Q 2956 2369 2687 2733 
Q 2419 3097 1959 3097 
z
M 1959 3584 
Q 2709 3584 3137 3096 
Q 3566 2609 3566 1747 
Q 3566 888 3137 398 
Q 2709 -91 1959 -91 
Q 1206 -91 779 398 
Q 353 888 353 1747 
Q 353 2609 779 3096 
Q 1206 3584 1959 3584 
z
" transform="scale(0.015625)"/>
       <path id="DejaVuSans-63" d="M 3122 3366 
L 3122 2828 
Q 2878 2963 2633 3030 
Q 2388 3097 2138 3097 
Q 1578 3097 1268 2742 
Q 959 2388 959 1747 
Q 959 1106 1268 751 
Q 1578 397 2138 397 
Q 2388 397 2633 464 
Q 2878 531 3122 666 
L 3122 134 
Q 2881 22 2623 -34 
Q 2366 -91 2075 -91 
Q 1284 -91 818 406 
Q 353 903 353 1747 
Q 353 2603 823 3093 
Q 1294 3584 2113 3584 
Q 2378 3584 2631 3529 
Q 2884 3475 3122 3366 
z
" transform="scale(0.015625)"/>
       <path id="DejaVuSans-68" d="M 3513 2113 
L 3513 0 
L 2938 0 
L 2938 2094 
Q 2938 2591 2744 2837 
Q 2550 3084 2163 3084 
Q 1697 3084 1428 2787 
Q 1159 2491 1159 1978 
L 1159 0 
L 581 0 
L 581 4863 
L 1159 4863 
L 1159 2956 
Q 1366 3272 1645 3428 
Q 1925 3584 2291 3584 
Q 2894 3584 3203 3211 
Q 3513 2838 3513 2113 
z
" transform="scale(0.015625)"/>
       <path id="DejaVuSans-73" d="M 2834 3397 
L 2834 2853 
Q 2591 2978 2328 3040 
Q 2066 3103 1784 3103 
Q 1356 3103 1142 2972 
Q 928 2841 928 2578 
Q 928 2378 1081 2264 
Q 1234 2150 1697 2047 
L 1894 2003 
Q 2506 1872 2764 1633 
Q 3022 1394 3022 966 
Q 3022 478 2636 193 
Q 2250 -91 1575 -91 
Q 1294 -91 989 -36 
Q 684 19 347 128 
L 347 722 
Q 666 556 975 473 
Q 1284 391 1588 391 
Q 1994 391 2212 530 
Q 2431 669 2431 922 
Q 2431 1156 2273 1281 
Q 2116 1406 1581 1522 
L 1381 1569 
Q 847 1681 609 1914 
Q 372 2147 372 2553 
Q 372 3047 722 3315 
Q 1072 3584 1716 3584 
Q 2034 3584 2315 3537 
Q 2597 3491 2834 3397 
z
" transform="scale(0.015625)"/>
      </defs>
      <use xlink:href="#DejaVuSans-45"/>
      <use xlink:href="#DejaVuSans-70" x="63.183594"/>
      <use xlink:href="#DejaVuSans-6f" x="126.660156"/>
      <use xlink:href="#DejaVuSans-63" x="187.841797"/>
      <use xlink:href="#DejaVuSans-68" x="242.822266"/>
      <use xlink:href="#DejaVuSans-73" x="306.201172"/>
     </g>
    </g>
   </g>
   <g id="matplotlib.axis_2">
    <g id="ytick_1">
     <g id="line2d_11">
      <defs>
       <path id="m3091db1079" d="M 0 0 
L -3.5 0 
" style="stroke: #000000; stroke-width: 0.8"/>
      </defs>
      <g>
       <use xlink:href="#m3091db1079" x="57.6" y="268.782285" style="stroke: #000000; stroke-width: 0.8"/>
      </g>
     </g>
     <g id="text_12">
      <!-- 20 -->
      <g transform="translate(37.875 272.581504) scale(0.1 -0.1)">
       <use xlink:href="#DejaVuSans-32"/>
       <use xlink:href="#DejaVuSans-30" x="63.623047"/>
      </g>
     </g>
    </g>
    <g id="ytick_2">
     <g id="line2d_12">
      <g>
       <use xlink:href="#m3091db1079" x="57.6" y="214.962568" style="stroke: #000000; stroke-width: 0.8"/>
      </g>
     </g>
     <g id="text_13">
      <!-- 40 -->
      <g transform="translate(37.875 218.761787) scale(0.1 -0.1)">
       <use xlink:href="#DejaVuSans-34"/>
       <use xlink:href="#DejaVuSans-30" x="63.623047"/>
      </g>
     </g>
    </g>
    <g id="ytick_3">
     <g id="line2d_13">
      <g>
       <use xlink:href="#m3091db1079" x="57.6" y="161.142851" style="stroke: #000000; stroke-width: 0.8"/>
      </g>
     </g>
     <g id="text_14">
      <!-- 60 -->
      <g transform="translate(37.875 164.942069) scale(0.1 -0.1)">
       <use xlink:href="#DejaVuSans-36"/>
       <use xlink:href="#DejaVuSans-30" x="63.623047"/>
      </g>
     </g>
    </g>
    <g id="ytick_4">
     <g id="line2d_14">
      <g>
       <use xlink:href="#m3091db1079" x="57.6" y="107.323134" style="stroke: #000000; stroke-width: 0.8"/>
      </g>
     </g>
     <g id="text_15">
      <!-- 80 -->
      <g transform="translate(37.875 111.122352) scale(0.1 -0.1)">
       <defs>
        <path id="DejaVuSans-38" d="M 2034 2216 
Q 1584 2216 1326 1975 
Q 1069 1734 1069 1313 
Q 1069 891 1326 650 
Q 1584 409 2034 409 
Q 2484 409 2743 651 
Q 3003 894 3003 1313 
Q 3003 1734 2745 1975 
Q 2488 2216 2034 2216 
z
M 1403 2484 
Q 997 2584 770 2862 
Q 544 3141 544 3541 
Q 544 4100 942 4425 
Q 1341 4750 2034 4750 
Q 2731 4750 3128 4425 
Q 3525 4100 3525 3541 
Q 3525 3141 3298 2862 
Q 3072 2584 2669 2484 
Q 3125 2378 3379 2068 
Q 3634 1759 3634 1313 
Q 3634 634 3220 271 
Q 2806 -91 2034 -91 
Q 1263 -91 848 271 
Q 434 634 434 1313 
Q 434 1759 690 2068 
Q 947 2378 1403 2484 
z
M 1172 3481 
Q 1172 3119 1398 2916 
Q 1625 2713 2034 2713 
Q 2441 2713 2670 2916 
Q 2900 3119 2900 3481 
Q 2900 3844 2670 4047 
Q 2441 4250 2034 4250 
Q 1625 4250 1398 4047 
Q 1172 3844 1172 3481 
z
" transform="scale(0.015625)"/>
       </defs>
       <use xlink:href="#DejaVuSans-38"/>
       <use xlink:href="#DejaVuSans-30" x="63.623047"/>
      </g>
     </g>
    </g>
    <g id="ytick_5">
     <g id="line2d_15">
      <g>
       <use xlink:href="#m3091db1079" x="57.6" y="53.503416" style="stroke: #000000; stroke-width: 0.8"/>
      </g>
     </g>
     <g id="text_16">
      <!-- 100 -->
      <g transform="translate(31.5125 57.302635) scale(0.1 -0.1)">
       <use xlink:href="#DejaVuSans-31"/>
       <use xlink:href="#DejaVuSans-30" x="63.623047"/>
       <use xlink:href="#DejaVuSans-30" x="127.246094"/>
      </g>
     </g>
    </g>
    <g id="text_17">
     <!-- Accuracy -->
     <g transform="translate(25.432812 197.356125) rotate(-90) scale(0.1 -0.1)">
      <defs>
       <path id="DejaVuSans-41" d="M 2188 4044 
L 1331 1722 
L 3047 1722 
L 2188 4044 
z
M 1831 4666 
L 2547 4666 
L 4325 0 
L 3669 0 
L 3244 1197 
L 1141 1197 
L 716 0 
L 50 0 
L 1831 4666 
z
" transform="scale(0.015625)"/>
       <path id="DejaVuSans-75" d="M 544 1381 
L 544 3500 
L 1119 3500 
L 1119 1403 
Q 1119 906 1312 657 
Q 1506 409 1894 409 
Q 2359 409 2629 706 
Q 2900 1003 2900 1516 
L 2900 3500 
L 3475 3500 
L 3475 0 
L 2900 0 
L 2900 538 
Q 2691 219 2414 64 
Q 2138 -91 1772 -91 
Q 1169 -91 856 284 
Q 544 659 544 1381 
z
M 1991 3584 
L 1991 3584 
z
" transform="scale(0.015625)"/>
       <path id="DejaVuSans-72" d="M 2631 2963 
Q 2534 3019 2420 3045 
Q 2306 3072 2169 3072 
Q 1681 3072 1420 2755 
Q 1159 2438 1159 1844 
L 1159 0 
L 581 0 
L 581 3500 
L 1159 3500 
L 1159 2956 
Q 1341 3275 1631 3429 
Q 1922 3584 2338 3584 
Q 2397 3584 2469 3576 
Q 2541 3569 2628 3553 
L 2631 2963 
z
" transform="scale(0.015625)"/>
       <path id="DejaVuSans-61" d="M 2194 1759 
Q 1497 1759 1228 1600 
Q 959 1441 959 1056 
Q 959 750 1161 570 
Q 1363 391 1709 391 
Q 2188 391 2477 730 
Q 2766 1069 2766 1631 
L 2766 1759 
L 2194 1759 
z
M 3341 1997 
L 3341 0 
L 2766 0 
L 2766 531 
Q 2569 213 2275 61 
Q 1981 -91 1556 -91 
Q 1019 -91 701 211 
Q 384 513 384 1019 
Q 384 1609 779 1909 
Q 1175 2209 1959 2209 
L 2766 2209 
L 2766 2266 
Q 2766 2663 2505 2880 
Q 2244 3097 1772 3097 
Q 1472 3097 1187 3025 
Q 903 2953 641 2809 
L 641 3341 
Q 956 3463 1253 3523 
Q 1550 3584 1831 3584 
Q 2591 3584 2966 3190 
Q 3341 2797 3341 1997 
z
" transform="scale(0.015625)"/>
       <path id="DejaVuSans-79" d="M 2059 -325 
Q 1816 -950 1584 -1140 
Q 1353 -1331 966 -1331 
L 506 -1331 
L 506 -850 
L 844 -850 
Q 1081 -850 1212 -737 
Q 1344 -625 1503 -206 
L 1606 56 
L 191 3500 
L 800 3500 
L 1894 763 
L 2988 3500 
L 3597 3500 
L 2059 -325 
z
" transform="scale(0.015625)"/>
      </defs>
      <use xlink:href="#DejaVuSans-41"/>
      <use xlink:href="#DejaVuSans-63" x="66.658203"/>
      <use xlink:href="#DejaVuSans-63" x="121.638672"/>
      <use xlink:href="#DejaVuSans-75" x="176.619141"/>
      <use xlink:href="#DejaVuSans-72" x="239.998047"/>
      <use xlink:href="#DejaVuSans-61" x="281.111328"/>
      <use xlink:href="#DejaVuSans-63" x="342.390625"/>
      <use xlink:href="#DejaVuSans-79" x="397.371094"/>
     </g>
    </g>
   </g>
   <g id="line2d_16">
    <path d="M 73.832727 291.957055 
L 74.918528 257.668514 
L 76.00433 230.93626 
L 77.090131 212.072449 
L 78.175932 196.459349 
L 80.347534 173.55906 
L 81.433335 164.452763 
L 82.519137 156.293694 
L 83.604938 149.517792 
L 84.690739 141.584766 
L 89.033943 118.183952 
L 90.119745 113.507019 
L 92.291347 105.73007 
L 93.377148 104.088569 
L 94.462949 101.736647 
L 95.54875 140.718268 
L 96.634552 139.975556 
L 97.720353 135.734562 
L 98.806154 132.284718 
L 100.977756 124.157941 
L 102.063557 121.520775 
L 103.149358 117.710339 
L 105.320961 111.957011 
L 107.492563 105.304894 
L 108.578364 101.768939 
L 109.664165 100.261987 
L 110.749967 95.299809 
L 111.835768 93.469938 
L 112.921569 90.337631 
L 114.00737 87.662791 
L 115.093171 84.126835 
L 116.178972 81.850261 
L 120.522177 71.376944 
L 121.607978 69.821555 
L 122.693779 67.464251 
L 125.951183 62.415962 
L 127.036984 61.447207 
L 128.122785 59.509697 
L 129.208586 58.933826 
L 130.294387 58.164204 
L 134.637592 56.151346 
L 136.809194 55.742317 
L 137.894995 55.86072 
L 138.980797 88.330155 
L 140.066598 91.866111 
L 141.152399 91.268712 
L 142.2382 89.799434 
L 143.324001 89.099777 
L 144.409802 87.280671 
L 145.495604 86.591778 
L 146.581405 84.858784 
L 147.667206 83.846973 
L 148.753007 82.523008 
L 149.838808 81.785678 
L 150.924609 79.901988 
L 152.01041 79.03549 
L 154.182013 76.839646 
L 155.267814 75.079741 
L 157.439416 74.003347 
L 158.525217 72.991536 
L 159.611019 71.489966 
L 160.69682 70.908713 
L 161.782621 69.826937 
L 163.954223 68.330748 
L 165.040024 67.308174 
L 166.125825 66.985255 
L 167.211627 66.280217 
L 168.297428 65.785076 
L 169.383229 64.853995 
L 170.46903 63.486974 
L 171.554831 63.018742 
L 172.640632 63.255549 
L 173.726434 62.265266 
L 174.812235 61.522554 
L 176.983837 60.33852 
L 178.069638 59.940255 
L 180.24124 58.933826 
L 181.327042 58.573234 
L 182.412843 58.067328 
L 183.498644 57.399964 
L 184.584445 57.545277 
L 185.670246 56.92635 
L 186.756047 56.528084 
L 187.841849 56.355861 
L 190.013451 55.435544 
L 191.099252 55.311759 
L 192.185053 54.940403 
L 195.442457 54.391442 
L 196.528258 54.165399 
L 197.614059 54.154635 
L 199.785661 53.960884 
L 201.957264 53.853245 
L 205.214667 53.761751 
L 224.759088 53.584146 
L 225.844889 67.62571 
L 226.93069 73.292926 
L 228.016491 72.89466 
L 229.102292 73.126085 
L 230.188094 72.571742 
L 231.273895 72.496395 
L 232.359696 71.177811 
L 233.445497 71.247777 
L 234.531298 70.515829 
L 236.702901 69.99916 
L 237.788702 69.251066 
L 238.874503 68.965821 
L 239.960304 68.298457 
L 241.046105 68.395332 
L 242.131906 67.905573 
L 243.217708 67.878663 
L 244.303509 66.985255 
L 245.38931 66.931436 
L 246.475111 66.700011 
L 247.560912 65.989591 
L 248.646713 66.156432 
L 249.732514 65.951917 
L 250.818316 65.435248 
L 251.904117 65.198441 
L 252.989918 65.316844 
L 254.075719 64.767883 
L 255.16152 64.579514 
L 256.247321 63.826038 
L 257.333123 64.466493 
L 258.418924 63.793746 
L 259.504725 63.427772 
L 260.590526 63.637669 
L 262.762128 62.911103 
L 264.933731 62.518219 
L 266.019532 62.211447 
L 267.105333 62.453635 
L 268.191134 61.570992 
L 270.362736 61.936966 
L 271.448538 61.651722 
L 272.534339 61.043559 
L 273.62014 61.350331 
L 274.705941 60.903627 
L 275.791742 60.591473 
L 276.877543 60.726022 
L 277.963344 60.381576 
L 279.049146 60.526889 
L 283.39235 59.541989 
L 286.649754 59.19216 
L 287.735555 59.052229 
L 288.821356 58.799277 
L 289.907157 58.949972 
L 290.992958 58.906916 
L 292.07876 58.261079 
L 293.164561 58.352573 
L 294.250362 58.056564 
L 296.421964 58.174968 
L 298.593566 57.669062 
L 300.765169 57.163157 
L 301.85097 57.147011 
L 304.022572 56.958642 
L 306.194175 56.829475 
L 307.279976 56.404299 
L 309.451578 56.447355 
L 310.537379 56.135201 
L 311.62318 55.704643 
L 312.708981 55.86072 
L 313.794783 55.785372 
L 314.880584 55.521656 
L 315.966385 55.602385 
L 317.052186 55.510892 
L 318.137987 55.107244 
L 319.223788 55.220265 
L 320.30959 54.988841 
L 323.566993 54.805853 
L 324.652794 54.542137 
L 325.738595 54.542137 
L 326.824396 54.235364 
L 327.910198 54.133107 
L 330.0818 54.208455 
L 331.167601 53.960884 
L 332.253402 54.116961 
L 334.425005 53.885536 
L 335.510806 53.987794 
L 338.768209 53.783279 
L 340.939811 53.820953 
L 343.111414 53.745605 
L 346.368817 53.664875 
L 349.626221 53.681021 
L 352.883624 53.632584 
L 353.969425 53.659494 
L 355.055227 53.568 
L 358.31263 53.62182 
L 360.484232 53.605674 
L 373.513846 53.707931 
L 374.599647 53.837099 
L 377.857051 53.734841 
L 384.371858 53.960884 
L 386.54346 53.890918 
L 388.715062 53.960884 
L 391.972466 54.068523 
L 393.058267 53.885536 
L 396.31567 54.116961 
L 397.401472 54.235364 
L 398.487273 54.181545 
L 398.487273 54.181545 
" clip-path="url(#pbc312465a5)" style="fill: none; stroke: #1f77b4; stroke-width: 1.5; stroke-linecap: square"/>
   </g>
   <g id="line2d_17">
    <path d="M 73.832727 282.533223 
L 74.918528 248.680621 
L 76.00433 249.703195 
L 77.090131 232.615435 
L 78.175932 202.933861 
L 79.261733 195.883478 
L 80.347534 183.800952 
L 81.433335 179.253186 
L 82.519137 175.701084 
L 83.604938 173.117738 
L 84.690739 158.424955 
L 85.77654 159.555169 
L 86.862341 156.621995 
L 87.948142 146.799896 
L 90.119745 148.575947 
L 91.205546 143.140155 
L 92.291347 144.18964 
L 93.377148 141.444834 
L 94.462949 141.444834 
L 95.54875 167.06302 
L 96.634552 170.588211 
L 97.720353 160.900662 
L 98.806154 158.613324 
L 99.891955 153.177533 
L 100.977756 151.83204 
L 102.063557 151.939679 
L 103.149358 149.437062 
L 104.23516 145.938781 
L 106.406762 143.516893 
L 107.492563 139.157496 
L 108.578364 142.871057 
L 109.664165 143.678353 
L 110.749967 139.534234 
L 111.835768 138.323291 
L 112.921569 140.476079 
L 114.00737 134.905739 
L 115.093171 136.062863 
L 116.178972 134.71737 
L 117.264773 132.72604 
L 118.350575 130.250333 
L 119.436376 130.89617 
L 120.522177 129.819775 
L 121.607978 129.739046 
L 122.693779 129.416127 
L 123.77958 126.590592 
L 124.865382 127.263339 
L 125.951183 126.96733 
L 127.036984 126.482953 
L 128.122785 126.805871 
L 129.208586 124.868361 
L 130.294387 124.760722 
L 132.46599 124.895271 
L 133.551791 124.572353 
L 135.723393 122.930852 
L 136.809194 123.765057 
L 137.894995 123.845787 
L 138.980797 143.785992 
L 140.066598 141.256465 
L 141.152399 144.593288 
L 142.2382 140.045522 
L 143.324001 137.166167 
L 144.409802 139.292046 
L 145.495604 139.292046 
L 146.581405 140.153161 
L 147.667206 137.758184 
L 148.753007 137.650544 
L 149.838808 136.816339 
L 150.924609 136.950888 
L 152.01041 135.470846 
L 153.096212 134.798099 
L 154.182013 135.739944 
L 155.267814 136.923978 
L 156.353615 134.744279 
L 157.439416 136.950888 
L 158.525217 137.892733 
L 159.611019 134.529001 
L 160.69682 132.67222 
L 161.782621 134.825009 
L 162.868422 131.838015 
L 163.954223 131.434367 
L 165.040024 133.775525 
L 166.125825 131.245998 
L 167.211627 129.147029 
L 168.297428 132.160933 
L 169.383229 132.295482 
L 170.46903 130.331063 
L 171.554831 131.622736 
L 172.640632 131.272908 
L 173.726434 131.165268 
L 174.812235 130.357973 
L 175.898036 127.424798 
L 176.983837 127.07497 
L 178.069638 128.95866 
L 179.155439 127.263339 
L 180.24124 127.451708 
L 181.327042 125.05673 
L 182.412843 126.671322 
L 183.498644 125.13746 
L 184.584445 123.22686 
L 185.670246 126.402223 
L 186.756047 126.429133 
L 187.841849 124.303254 
L 188.92765 125.002911 
L 190.013451 123.926516 
L 191.099252 123.549778 
L 192.185053 122.823212 
L 193.270854 121.854457 
L 194.356656 122.446474 
L 195.442457 122.769392 
L 196.528258 120.374415 
L 197.614059 121.692998 
L 198.69986 120.374415 
L 199.785661 120.508964 
L 200.871462 119.028922 
L 201.957264 118.732914 
L 203.043065 119.620939 
L 204.128866 118.436905 
L 205.214667 118.975102 
L 206.300468 118.652184 
L 207.386269 117.656519 
L 208.472071 117.791069 
L 209.557872 118.248536 
L 210.643673 117.710339 
L 211.729474 117.898708 
L 212.815275 117.817978 
L 213.901076 117.172142 
L 214.986877 117.49506 
L 216.072679 116.633945 
L 217.15848 116.391756 
L 218.244281 116.687764 
L 219.330082 117.199052 
L 220.415883 117.360511 
L 223.673287 116.714674 
L 224.759088 116.795404 
L 225.844889 138.081102 
L 226.93069 142.601958 
L 228.016491 134.421361 
L 229.102292 136.062863 
L 230.188094 138.37711 
L 232.359696 136.358871 
L 233.445497 134.529001 
L 234.531298 133.587156 
L 235.617099 137.812003 
L 236.702901 135.013378 
L 237.788702 137.812003 
L 238.874503 138.45784 
L 239.960304 137.004708 
L 241.046105 136.089772 
L 242.131906 135.497755 
L 243.217708 133.614065 
L 244.303509 135.067198 
L 245.38931 137.193077 
L 246.475111 137.085437 
L 247.560912 133.102778 
L 248.646713 133.667885 
L 249.732514 137.542905 
L 251.904117 130.627071 
L 252.989918 134.502091 
L 254.075719 135.470846 
L 255.16152 136.251232 
L 256.247321 132.187843 
L 257.333123 132.214753 
L 258.418924 134.313722 
L 259.504725 132.968229 
L 260.590526 134.313722 
L 261.676327 132.510761 
L 262.762128 141.552474 
L 263.847929 132.564581 
L 264.933731 133.775525 
L 266.019532 136.897068 
L 267.105333 138.969127 
L 268.191134 133.802434 
L 269.276935 135.982133 
L 270.362736 131.999474 
L 271.448538 129.577587 
L 273.62014 133.829344 
L 274.705941 132.80677 
L 275.791742 132.376212 
L 276.877543 136.116682 
L 277.963344 133.963894 
L 279.049146 133.183508 
L 280.134947 136.035953 
L 281.220748 132.376212 
L 282.306549 134.259902 
L 283.39235 133.990803 
L 284.478151 130.84235 
L 285.563953 129.308488 
L 286.649754 130.088874 
L 287.735555 131.811105 
L 288.821356 132.618401 
L 289.907157 131.568916 
L 290.992958 132.995139 
L 292.07876 129.981234 
L 293.164561 134.259902 
L 294.250362 128.581922 
L 295.336163 130.707801 
L 296.421964 126.698232 
L 297.507765 130.653981 
L 298.593566 131.192178 
L 299.679368 130.78853 
L 300.765169 128.312823 
L 301.85097 129.658316 
L 302.936771 127.909175 
L 304.022572 131.326727 
L 305.108373 128.447373 
L 306.194175 128.743381 
L 307.279976 127.962995 
L 308.365777 129.739046 
L 309.451578 126.079305 
L 310.537379 128.151364 
L 311.62318 127.07497 
L 312.708981 126.240764 
L 313.794783 124.491623 
L 314.880584 128.635742 
L 315.966385 125.756387 
L 317.052186 125.864026 
L 318.137987 124.222525 
L 319.223788 126.536773 
L 320.30959 125.729477 
L 321.395391 125.729477 
L 322.481192 124.706902 
L 324.652794 123.738147 
L 325.738595 120.966432 
L 326.824396 122.392654 
L 328.995999 122.769392 
L 330.0818 121.37008 
L 331.167601 122.715573 
L 332.253402 120.831883 
L 333.339203 120.670423 
L 334.425005 117.925618 
L 335.510806 120.401325 
L 336.596607 121.100981 
L 338.768209 119.513299 
L 339.85401 120.132226 
L 340.939811 119.836218 
L 342.025613 120.051497 
L 343.111414 118.894373 
L 345.283016 118.679094 
L 346.368817 118.275446 
L 347.454618 117.172142 
L 348.54042 118.140897 
L 350.712022 117.710339 
L 351.797823 117.656519 
L 352.883624 117.306691 
L 353.969425 116.149567 
L 355.055227 117.333601 
L 356.141028 116.391756 
L 357.226829 116.741584 
L 358.31263 116.741584 
L 359.398431 115.853559 
L 361.570033 117.145232 
L 362.655835 116.876133 
L 363.741636 116.068838 
L 364.827437 115.853559 
L 365.913238 116.607035 
L 366.999039 116.391756 
L 368.08484 116.337936 
L 369.170642 116.445576 
L 370.256443 117.871798 
L 371.342244 117.360511 
L 372.428045 120.078407 
L 373.513846 120.455145 
L 374.599647 120.024587 
L 375.685448 120.212956 
L 376.77125 120.562784 
L 377.857051 120.266776 
L 378.942852 119.755488 
L 380.028653 120.266776 
L 381.114454 121.208621 
L 382.200255 122.419564 
L 383.286057 121.854457 
L 384.371858 119.755488 
L 385.457659 121.881367 
L 386.54346 122.419564 
L 387.629261 120.616604 
L 388.715062 120.697333 
L 389.800863 121.612268 
L 390.886665 120.993342 
L 391.972466 121.692998 
L 394.144068 120.293685 
L 395.229869 124.437804 
L 396.31567 121.773728 
L 397.401472 120.912612 
L 398.487273 122.527204 
L 398.487273 122.527204 
" clip-path="url(#pbc312465a5)" style="fill: none; stroke: #ff7f0e; stroke-width: 1.5; stroke-linecap: square"/>
   </g>
   <g id="line2d_18">
    <path d="M 73.832727 295.488 
L 74.918528 274.591103 
L 76.00433 273.180655 
L 77.090131 268.837961 
L 78.175932 251.040337 
L 79.261733 248.924665 
L 80.347534 240.963059 
L 81.433335 234.022171 
L 82.519137 235.005773 
L 83.604938 233.651001 
L 84.690739 225.039846 
L 85.77654 229.549567 
L 86.862341 227.433896 
L 87.948142 217.486527 
L 89.033943 217.57932 
L 90.119745 218.692831 
L 91.205546 215.352297 
L 92.291347 214.572839 
L 93.377148 213.218067 
L 94.462949 213.125274 
L 95.54875 234.4119 
L 96.634552 238.847387 
L 97.720353 229.085604 
L 99.891955 226.209033 
L 100.977756 223.313903 
L 102.063557 225.485251 
L 103.149358 225.726511 
L 104.23516 222.553004 
L 105.320961 218.340219 
L 106.406762 217.690671 
L 107.492563 211.900412 
L 108.578364 219.620757 
L 109.664165 218.525804 
L 110.749967 214.869775 
L 111.835768 215.18527 
L 112.921569 221.253907 
L 114.00737 208.596995 
L 115.093171 211.974646 
L 116.178972 210.953927 
L 117.264773 210.675549 
L 118.350575 204.12439 
L 119.436376 210.749783 
L 120.522177 208.541319 
L 121.607978 208.170148 
L 122.693779 207.427808 
L 123.77958 206.51844 
L 124.865382 206.908169 
L 125.951183 206.147269 
L 127.036984 204.569795 
L 128.122785 206.685467 
L 129.208586 204.180066 
L 130.294387 204.439885 
L 131.380189 202.843852 
L 132.46599 204.328534 
L 133.551791 204.272859 
L 134.637592 203.641869 
L 135.723393 203.140789 
L 136.809194 203.901688 
L 137.894995 203.864571 
L 138.980797 217.746346 
L 140.066598 216.669952 
L 141.152399 219.58364 
L 142.2382 214.999685 
L 143.324001 213.960408 
L 144.409802 214.888334 
L 145.495604 214.387254 
L 146.581405 218.896975 
L 147.667206 216.094638 
L 148.753007 213.719147 
L 149.838808 215.649233 
L 150.924609 215.779143 
L 152.01041 212.624194 
L 153.096212 210.638432 
L 154.182013 215.81626 
L 155.267814 213.18095 
L 156.353615 213.904732 
L 157.439416 215.44509 
L 158.525217 219.490848 
L 159.611019 211.028161 
L 160.69682 214.424371 
L 161.782621 212.271582 
L 162.868422 210.694108 
L 163.954223 210.044559 
L 165.040024 212.271582 
L 166.125825 212.141672 
L 167.211627 212.512843 
L 168.297428 210.712666 
L 169.383229 213.68203 
L 170.46903 210.007442 
L 171.554831 213.255184 
L 172.640632 213.923291 
L 174.812235 210.861134 
L 175.898036 206.982403 
L 176.983837 207.39069 
L 178.069638 210.397171 
L 179.155439 207.279339 
L 180.24124 207.409249 
L 181.327042 206.295738 
L 182.412843 208.485643 
L 183.498644 206.592674 
L 184.584445 206.277179 
L 185.670246 208.318617 
L 186.756047 207.483483 
L 187.841849 205.0152 
L 188.92765 207.056637 
L 191.099252 203.938805 
L 192.185053 203.530518 
L 193.270854 200.765298 
L 194.356656 202.509799 
L 195.442457 201.860251 
L 196.528258 199.818813 
L 197.614059 200.969441 
L 199.785661 199.837372 
L 200.871462 201.61899 
L 201.957264 200.301335 
L 203.043065 200.338452 
L 204.128866 200.820973 
L 205.214667 199.076472 
L 206.300468 198.928004 
L 207.386269 200.078632 
L 208.472071 199.206382 
L 209.557872 198.705302 
L 210.643673 199.206382 
L 211.729474 198.983679 
L 212.815275 199.373408 
L 213.901076 198.835211 
L 216.072679 198.482599 
L 217.15848 197.85161 
L 218.244281 199.132148 
L 219.330082 199.447643 
L 220.415883 198.668185 
L 221.501684 198.315573 
L 222.587486 199.410526 
L 223.673287 198.334131 
L 224.759088 198.426924 
L 225.844889 213.18095 
L 226.93069 223.35102 
L 228.016491 214.071759 
L 229.102292 214.517163 
L 230.188094 216.428691 
L 231.273895 213.700588 
L 232.359696 218.265985 
L 233.445497 212.958247 
L 234.531298 213.960408 
L 235.617099 216.280223 
L 236.702901 213.273742 
L 237.788702 211.714826 
L 238.874503 217.189591 
L 239.960304 215.463648 
L 241.046105 216.150313 
L 242.131906 213.05104 
L 243.217708 210.322937 
L 244.303509 214.238786 
L 245.38931 216.502925 
L 246.475111 216.131755 
L 247.560912 210.304379 
L 248.646713 213.422211 
L 249.732514 215.983287 
L 250.818316 211.492124 
L 251.904117 213.385093 
L 252.989918 214.164551 
L 254.075719 216.243106 
L 255.16152 212.67987 
L 256.247321 213.55212 
L 257.333123 214.702749 
L 258.418924 215.649233 
L 259.504725 215.333738 
L 260.590526 208.225824 
L 261.676327 211.826178 
L 262.762128 220.5858 
L 263.847929 214.832658 
L 264.933731 214.18311 
L 266.019532 214.220227 
L 267.105333 218.006166 
L 268.191134 216.150313 
L 269.276935 216.298782 
L 270.362736 210.193027 
L 271.448538 210.063118 
L 272.534339 210.28582 
L 273.62014 215.500765 
L 274.705941 210.601315 
L 275.791742 211.473566 
L 276.877543 213.607796 
L 277.963344 214.758424 
L 279.049146 209.376452 
L 280.134947 217.690671 
L 281.220748 211.120954 
L 282.306549 215.407973 
L 283.39235 212.624194 
L 284.478151 214.461488 
L 285.563953 212.382933 
L 286.649754 208.615553 
L 287.735555 213.05104 
L 288.821356 214.480046 
L 290.992958 210.91681 
L 292.07876 210.953927 
L 293.164561 217.171032 
L 294.250362 211.28798 
L 295.336163 212.568518 
L 296.421964 208.875372 
L 297.507765 211.863295 
L 298.593566 213.05104 
L 299.679368 210.972485 
L 300.765169 207.966005 
L 301.85097 209.78474 
L 302.936771 206.481323 
L 304.022572 210.935368 
L 305.108373 207.446366 
L 306.194175 206.796818 
L 307.279976 208.411409 
L 308.365777 211.009603 
L 309.451578 209.302218 
L 310.537379 204.291417 
L 311.62318 204.829614 
L 312.708981 209.524921 
L 313.794783 205.070875 
L 314.880584 208.374292 
L 315.966385 208.188707 
L 317.052186 206.332855 
L 318.137987 208.541319 
L 319.223788 206.073035 
L 320.30959 208.095914 
L 321.395391 204.272859 
L 322.481192 206.147269 
L 323.566993 203.159347 
L 324.652794 202.472682 
L 325.738595 202.788177 
L 326.824396 204.031598 
L 327.910198 203.307815 
L 328.995999 203.846013 
L 330.0818 202.101511 
L 331.167601 203.790337 
L 332.253402 200.635388 
L 333.339203 202.546916 
L 334.425005 197.758817 
L 335.510806 204.551236 
L 336.596607 202.287097 
L 337.682408 200.839532 
L 338.768209 198.649626 
L 339.85401 201.915926 
L 340.939811 200.653947 
L 342.025613 201.860251 
L 343.111414 199.72602 
L 344.197215 199.020797 
L 345.283016 199.558994 
L 346.368817 200.301335 
L 347.454618 198.389807 
L 348.54042 201.006559 
L 349.626221 197.758817 
L 350.712022 198.018636 
L 351.797823 198.612509 
L 352.883624 198.760977 
L 353.969425 195.45756 
L 355.055227 197.703141 
L 356.141028 195.531794 
L 357.226829 197.183503 
L 358.31263 197.313412 
L 359.398431 196.144225 
L 360.484232 197.016476 
L 361.570033 197.22062 
L 363.741636 196.385486 
L 364.827437 196.255577 
L 365.913238 197.313412 
L 366.999039 195.95864 
L 368.08484 196.886566 
L 369.170642 195.847289 
L 371.342244 199.48476 
L 372.428045 202.565474 
L 373.513846 202.62115 
L 374.599647 200.245659 
L 375.685448 201.377729 
L 376.77125 201.860251 
L 377.857051 202.713943 
L 378.942852 199.113589 
L 380.028653 199.262057 
L 381.114454 202.825294 
L 382.200255 204.681146 
L 383.286057 202.899528 
L 384.371858 201.61899 
L 385.457659 201.711782 
L 386.54346 206.035918 
L 387.629261 201.507639 
L 388.715062 202.287097 
L 389.800863 204.978082 
L 390.886665 201.748899 
L 391.972466 201.266378 
L 393.058267 202.918086 
L 394.144068 201.35917 
L 395.229869 203.660427 
L 396.31567 205.293577 
L 397.401472 203.103672 
L 398.487273 204.88529 
L 398.487273 204.88529 
" clip-path="url(#pbc312465a5)" style="fill: none; stroke: #2ca02c; stroke-width: 1.5; stroke-linecap: square"/>
   </g>
   <g id="line2d_19">
    <path d="M 368.08484 115.961198 
L 369.170642 116.203387 
L 370.256443 116.903043 
L 371.342244 118.275446 
L 372.428045 119.109652 
L 373.513846 117.871798 
L 374.599647 118.221626 
L 375.685448 121.450809 
L 376.77125 121.28935 
L 377.857051 123.038491 
L 378.942852 125.13746 
L 380.028653 127.962995 
L 381.114454 126.402223 
L 382.200255 125.325829 
L 383.286057 131.730375 
L 384.371858 128.285913 
L 385.457659 128.95866 
L 386.54346 131.622736 
L 387.629261 132.268572 
L 388.715062 138.215651 
L 389.800863 136.843248 
L 390.886665 133.452606 
L 391.972466 136.897068 
L 393.058267 143.032516 
L 394.144068 141.687023 
L 395.229869 163.322549 
L 396.31567 150.405817 
L 397.401472 166.524822 
L 398.487273 146.692257 
L 398.487273 146.692257 
" clip-path="url(#pbc312465a5)" style="fill: none; stroke: #d62728; stroke-width: 1.5; stroke-linecap: square"/>
   </g>
   <g id="line2d_20">
    <path d="M 368.08484 196.404045 
L 369.170642 195.216299 
L 370.256443 195.067831 
L 371.342244 195.754496 
L 372.428045 197.610349 
L 373.513846 197.684583 
L 374.599647 196.9608 
L 375.685448 199.72602 
L 376.77125 198.556833 
L 377.857051 201.767458 
L 378.942852 204.068715 
L 380.028653 205.275019 
L 381.114454 204.402768 
L 382.200255 203.957364 
L 383.286057 209.506362 
L 384.371858 205.998801 
L 385.457659 207.056637 
L 386.54346 209.098075 
L 387.629261 207.669068 
L 388.715062 212.772662 
L 389.800863 212.141672 
L 390.886665 210.41573 
L 391.972466 211.41789 
L 393.058267 215.68635 
L 394.144068 215.092478 
L 395.229869 228.157678 
L 396.31567 219.249587 
L 397.401472 230.718754 
L 398.487273 217.189591 
L 398.487273 217.189591 
" clip-path="url(#pbc312465a5)" style="fill: none; stroke: #9467bd; stroke-width: 1.5; stroke-linecap: square"/>
   </g>
   <g id="patch_3">
    <path d="M 57.6 307.584 
L 57.6 41.472 
" style="fill: none; stroke: #000000; stroke-width: 0.8; stroke-linejoin: miter; stroke-linecap: square"/>
   </g>
   <g id="patch_4">
    <path d="M 414.72 307.584 
L 414.72 41.472 
" style="fill: none; stroke: #000000; stroke-width: 0.8; stroke-linejoin: miter; stroke-linecap: square"/>
   </g>
   <g id="patch_5">
    <path d="M 57.6 307.584 
L 414.72 307.584 
" style="fill: none; stroke: #000000; stroke-width: 0.8; stroke-linejoin: miter; stroke-linecap: square"/>
   </g>
   <g id="patch_6">
    <path d="M 57.6 41.472 
L 414.72 41.472 
" style="fill: none; stroke: #000000; stroke-width: 0.8; stroke-linejoin: miter; stroke-linecap: square"/>
   </g>
   <g id="text_18">
    <!-- Learning Curves -->
    <g transform="translate(187.37625 35.472) scale(0.12 -0.12)">
     <defs>
      <path id="DejaVuSans-4c" d="M 628 4666 
L 1259 4666 
L 1259 531 
L 3531 531 
L 3531 0 
L 628 0 
L 628 4666 
z
" transform="scale(0.015625)"/>
      <path id="DejaVuSans-65" d="M 3597 1894 
L 3597 1613 
L 953 1613 
Q 991 1019 1311 708 
Q 1631 397 2203 397 
Q 2534 397 2845 478 
Q 3156 559 3463 722 
L 3463 178 
Q 3153 47 2828 -22 
Q 2503 -91 2169 -91 
Q 1331 -91 842 396 
Q 353 884 353 1716 
Q 353 2575 817 3079 
Q 1281 3584 2069 3584 
Q 2775 3584 3186 3129 
Q 3597 2675 3597 1894 
z
M 3022 2063 
Q 3016 2534 2758 2815 
Q 2500 3097 2075 3097 
Q 1594 3097 1305 2825 
Q 1016 2553 972 2059 
L 3022 2063 
z
" transform="scale(0.015625)"/>
      <path id="DejaVuSans-6e" d="M 3513 2113 
L 3513 0 
L 2938 0 
L 2938 2094 
Q 2938 2591 2744 2837 
Q 2550 3084 2163 3084 
Q 1697 3084 1428 2787 
Q 1159 2491 1159 1978 
L 1159 0 
L 581 0 
L 581 3500 
L 1159 3500 
L 1159 2956 
Q 1366 3272 1645 3428 
Q 1925 3584 2291 3584 
Q 2894 3584 3203 3211 
Q 3513 2838 3513 2113 
z
" transform="scale(0.015625)"/>
      <path id="DejaVuSans-69" d="M 603 3500 
L 1178 3500 
L 1178 0 
L 603 0 
L 603 3500 
z
M 603 4863 
L 1178 4863 
L 1178 4134 
L 603 4134 
L 603 4863 
z
" transform="scale(0.015625)"/>
      <path id="DejaVuSans-67" d="M 2906 1791 
Q 2906 2416 2648 2759 
Q 2391 3103 1925 3103 
Q 1463 3103 1205 2759 
Q 947 2416 947 1791 
Q 947 1169 1205 825 
Q 1463 481 1925 481 
Q 2391 481 2648 825 
Q 2906 1169 2906 1791 
z
M 3481 434 
Q 3481 -459 3084 -895 
Q 2688 -1331 1869 -1331 
Q 1566 -1331 1297 -1286 
Q 1028 -1241 775 -1147 
L 775 -588 
Q 1028 -725 1275 -790 
Q 1522 -856 1778 -856 
Q 2344 -856 2625 -561 
Q 2906 -266 2906 331 
L 2906 616 
Q 2728 306 2450 153 
Q 2172 0 1784 0 
Q 1141 0 747 490 
Q 353 981 353 1791 
Q 353 2603 747 3093 
Q 1141 3584 1784 3584 
Q 2172 3584 2450 3431 
Q 2728 3278 2906 2969 
L 2906 3500 
L 3481 3500 
L 3481 434 
z
" transform="scale(0.015625)"/>
      <path id="DejaVuSans-20" transform="scale(0.015625)"/>
      <path id="DejaVuSans-43" d="M 4122 4306 
L 4122 3641 
Q 3803 3938 3442 4084 
Q 3081 4231 2675 4231 
Q 1875 4231 1450 3742 
Q 1025 3253 1025 2328 
Q 1025 1406 1450 917 
Q 1875 428 2675 428 
Q 3081 428 3442 575 
Q 3803 722 4122 1019 
L 4122 359 
Q 3791 134 3420 21 
Q 3050 -91 2638 -91 
Q 1578 -91 968 557 
Q 359 1206 359 2328 
Q 359 3453 968 4101 
Q 1578 4750 2638 4750 
Q 3056 4750 3426 4639 
Q 3797 4528 4122 4306 
z
" transform="scale(0.015625)"/>
      <path id="DejaVuSans-76" d="M 191 3500 
L 800 3500 
L 1894 563 
L 2988 3500 
L 3597 3500 
L 2284 0 
L 1503 0 
L 191 3500 
z
" transform="scale(0.015625)"/>
     </defs>
     <use xlink:href="#DejaVuSans-4c"/>
     <use xlink:href="#DejaVuSans-65" x="53.962891"/>
     <use xlink:href="#DejaVuSans-61" x="115.486328"/>
     <use xlink:href="#DejaVuSans-72" x="176.765625"/>
     <use xlink:href="#DejaVuSans-6e" x="216.128906"/>
     <use xlink:href="#DejaVuSans-69" x="279.507812"/>
     <use xlink:href="#DejaVuSans-6e" x="307.291016"/>
     <use xlink:href="#DejaVuSans-67" x="370.669922"/>
     <use xlink:href="#DejaVuSans-20" x="434.146484"/>
     <use xlink:href="#DejaVuSans-43" x="465.933594"/>
     <use xlink:href="#DejaVuSans-75" x="535.757812"/>
     <use xlink:href="#DejaVuSans-72" x="599.136719"/>
     <use xlink:href="#DejaVuSans-76" x="640.25"/>
     <use xlink:href="#DejaVuSans-65" x="699.429688"/>
     <use xlink:href="#DejaVuSans-73" x="760.953125"/>
    </g>
   </g>
   <g id="legend_1">
    <g id="patch_7">
     <path d="M 139.394375 302.584 
L 332.925625 302.584 
Q 334.925625 302.584 334.925625 300.584 
L 334.925625 228.193375 
Q 334.925625 226.193375 332.925625 226.193375 
L 139.394375 226.193375 
Q 137.394375 226.193375 137.394375 228.193375 
L 137.394375 300.584 
Q 137.394375 302.584 139.394375 302.584 
z
" style="fill: #ffffff; opacity: 0.8; stroke: #cccccc; stroke-linejoin: miter"/>
    </g>
    <g id="line2d_21">
     <path d="M 141.394375 234.291812 
L 151.394375 234.291812 
L 161.394375 234.291812 
" style="fill: none; stroke: #1f77b4; stroke-width: 1.5; stroke-linecap: square"/>
    </g>
    <g id="text_19">
     <!-- Train Accuracy -->
     <g transform="translate(169.394375 237.791812) scale(0.1 -0.1)">
      <defs>
       <path id="DejaVuSans-54" d="M -19 4666 
L 3928 4666 
L 3928 4134 
L 2272 4134 
L 2272 0 
L 1638 0 
L 1638 4134 
L -19 4134 
L -19 4666 
z
" transform="scale(0.015625)"/>
      </defs>
      <use xlink:href="#DejaVuSans-54"/>
      <use xlink:href="#DejaVuSans-72" x="46.333984"/>
      <use xlink:href="#DejaVuSans-61" x="87.447266"/>
      <use xlink:href="#DejaVuSans-69" x="148.726562"/>
      <use xlink:href="#DejaVuSans-6e" x="176.509766"/>
      <use xlink:href="#DejaVuSans-20" x="239.888672"/>
      <use xlink:href="#DejaVuSans-41" x="271.675781"/>
      <use xlink:href="#DejaVuSans-63" x="338.333984"/>
      <use xlink:href="#DejaVuSans-63" x="393.314453"/>
      <use xlink:href="#DejaVuSans-75" x="448.294922"/>
      <use xlink:href="#DejaVuSans-72" x="511.673828"/>
      <use xlink:href="#DejaVuSans-61" x="552.787109"/>
      <use xlink:href="#DejaVuSans-63" x="614.066406"/>
      <use xlink:href="#DejaVuSans-79" x="669.046875"/>
     </g>
    </g>
    <g id="line2d_22">
     <path d="M 141.394375 248.969937 
L 151.394375 248.969937 
L 161.394375 248.969937 
" style="fill: none; stroke: #ff7f0e; stroke-width: 1.5; stroke-linecap: square"/>
    </g>
    <g id="text_20">
     <!-- Validation Accuracy -->
     <g transform="translate(169.394375 252.469937) scale(0.1 -0.1)">
      <defs>
       <path id="DejaVuSans-56" d="M 1831 0 
L 50 4666 
L 709 4666 
L 2188 738 
L 3669 4666 
L 4325 4666 
L 2547 0 
L 1831 0 
z
" transform="scale(0.015625)"/>
       <path id="DejaVuSans-6c" d="M 603 4863 
L 1178 4863 
L 1178 0 
L 603 0 
L 603 4863 
z
" transform="scale(0.015625)"/>
       <path id="DejaVuSans-64" d="M 2906 2969 
L 2906 4863 
L 3481 4863 
L 3481 0 
L 2906 0 
L 2906 525 
Q 2725 213 2448 61 
Q 2172 -91 1784 -91 
Q 1150 -91 751 415 
Q 353 922 353 1747 
Q 353 2572 751 3078 
Q 1150 3584 1784 3584 
Q 2172 3584 2448 3432 
Q 2725 3281 2906 2969 
z
M 947 1747 
Q 947 1113 1208 752 
Q 1469 391 1925 391 
Q 2381 391 2643 752 
Q 2906 1113 2906 1747 
Q 2906 2381 2643 2742 
Q 2381 3103 1925 3103 
Q 1469 3103 1208 2742 
Q 947 2381 947 1747 
z
" transform="scale(0.015625)"/>
       <path id="DejaVuSans-74" d="M 1172 4494 
L 1172 3500 
L 2356 3500 
L 2356 3053 
L 1172 3053 
L 1172 1153 
Q 1172 725 1289 603 
Q 1406 481 1766 481 
L 2356 481 
L 2356 0 
L 1766 0 
Q 1100 0 847 248 
Q 594 497 594 1153 
L 594 3053 
L 172 3053 
L 172 3500 
L 594 3500 
L 594 4494 
L 1172 4494 
z
" transform="scale(0.015625)"/>
      </defs>
      <use xlink:href="#DejaVuSans-56"/>
      <use xlink:href="#DejaVuSans-61" x="60.658203"/>
      <use xlink:href="#DejaVuSans-6c" x="121.9375"/>
      <use xlink:href="#DejaVuSans-69" x="149.720703"/>
      <use xlink:href="#DejaVuSans-64" x="177.503906"/>
      <use xlink:href="#DejaVuSans-61" x="240.980469"/>
      <use xlink:href="#DejaVuSans-74" x="302.259766"/>
      <use xlink:href="#DejaVuSans-69" x="341.46875"/>
      <use xlink:href="#DejaVuSans-6f" x="369.251953"/>
      <use xlink:href="#DejaVuSans-6e" x="430.433594"/>
      <use xlink:href="#DejaVuSans-20" x="493.8125"/>
      <use xlink:href="#DejaVuSans-41" x="525.599609"/>
      <use xlink:href="#DejaVuSans-63" x="592.257812"/>
      <use xlink:href="#DejaVuSans-63" x="647.238281"/>
      <use xlink:href="#DejaVuSans-75" x="702.21875"/>
      <use xlink:href="#DejaVuSans-72" x="765.597656"/>
      <use xlink:href="#DejaVuSans-61" x="806.710938"/>
      <use xlink:href="#DejaVuSans-63" x="867.990234"/>
      <use xlink:href="#DejaVuSans-79" x="922.970703"/>
     </g>
    </g>
    <g id="line2d_23">
     <path d="M 141.394375 263.648062 
L 151.394375 263.648062 
L 161.394375 263.648062 
" style="fill: none; stroke: #2ca02c; stroke-width: 1.5; stroke-linecap: square"/>
    </g>
    <g id="text_21">
     <!-- Robust Validation Accuracy -->
     <g transform="translate(169.394375 267.148062) scale(0.1 -0.1)">
      <defs>
       <path id="DejaVuSans-52" d="M 2841 2188 
Q 3044 2119 3236 1894 
Q 3428 1669 3622 1275 
L 4263 0 
L 3584 0 
L 2988 1197 
Q 2756 1666 2539 1819 
Q 2322 1972 1947 1972 
L 1259 1972 
L 1259 0 
L 628 0 
L 628 4666 
L 2053 4666 
Q 2853 4666 3247 4331 
Q 3641 3997 3641 3322 
Q 3641 2881 3436 2590 
Q 3231 2300 2841 2188 
z
M 1259 4147 
L 1259 2491 
L 2053 2491 
Q 2509 2491 2742 2702 
Q 2975 2913 2975 3322 
Q 2975 3731 2742 3939 
Q 2509 4147 2053 4147 
L 1259 4147 
z
" transform="scale(0.015625)"/>
       <path id="DejaVuSans-62" d="M 3116 1747 
Q 3116 2381 2855 2742 
Q 2594 3103 2138 3103 
Q 1681 3103 1420 2742 
Q 1159 2381 1159 1747 
Q 1159 1113 1420 752 
Q 1681 391 2138 391 
Q 2594 391 2855 752 
Q 3116 1113 3116 1747 
z
M 1159 2969 
Q 1341 3281 1617 3432 
Q 1894 3584 2278 3584 
Q 2916 3584 3314 3078 
Q 3713 2572 3713 1747 
Q 3713 922 3314 415 
Q 2916 -91 2278 -91 
Q 1894 -91 1617 61 
Q 1341 213 1159 525 
L 1159 0 
L 581 0 
L 581 4863 
L 1159 4863 
L 1159 2969 
z
" transform="scale(0.015625)"/>
      </defs>
      <use xlink:href="#DejaVuSans-52"/>
      <use xlink:href="#DejaVuSans-6f" x="64.982422"/>
      <use xlink:href="#DejaVuSans-62" x="126.164062"/>
      <use xlink:href="#DejaVuSans-75" x="189.640625"/>
      <use xlink:href="#DejaVuSans-73" x="253.019531"/>
      <use xlink:href="#DejaVuSans-74" x="305.119141"/>
      <use xlink:href="#DejaVuSans-20" x="344.328125"/>
      <use xlink:href="#DejaVuSans-56" x="376.115234"/>
      <use xlink:href="#DejaVuSans-61" x="436.773438"/>
      <use xlink:href="#DejaVuSans-6c" x="498.052734"/>
      <use xlink:href="#DejaVuSans-69" x="525.835938"/>
      <use xlink:href="#DejaVuSans-64" x="553.619141"/>
      <use xlink:href="#DejaVuSans-61" x="617.095703"/>
      <use xlink:href="#DejaVuSans-74" x="678.375"/>
      <use xlink:href="#DejaVuSans-69" x="717.583984"/>
      <use xlink:href="#DejaVuSans-6f" x="745.367188"/>
      <use xlink:href="#DejaVuSans-6e" x="806.548828"/>
      <use xlink:href="#DejaVuSans-20" x="869.927734"/>
      <use xlink:href="#DejaVuSans-41" x="901.714844"/>
      <use xlink:href="#DejaVuSans-63" x="968.373047"/>
      <use xlink:href="#DejaVuSans-63" x="1023.353516"/>
      <use xlink:href="#DejaVuSans-75" x="1078.333984"/>
      <use xlink:href="#DejaVuSans-72" x="1141.712891"/>
      <use xlink:href="#DejaVuSans-61" x="1182.826172"/>
      <use xlink:href="#DejaVuSans-63" x="1244.105469"/>
      <use xlink:href="#DejaVuSans-79" x="1299.085938"/>
     </g>
    </g>
    <g id="line2d_24">
     <path d="M 141.394375 278.326188 
L 151.394375 278.326188 
L 161.394375 278.326188 
" style="fill: none; stroke: #d62728; stroke-width: 1.5; stroke-linecap: square"/>
    </g>
    <g id="text_22">
     <!-- SWA Validation Accuracy -->
     <g transform="translate(169.394375 281.826188) scale(0.1 -0.1)">
      <defs>
       <path id="DejaVuSans-53" d="M 3425 4513 
L 3425 3897 
Q 3066 4069 2747 4153 
Q 2428 4238 2131 4238 
Q 1616 4238 1336 4038 
Q 1056 3838 1056 3469 
Q 1056 3159 1242 3001 
Q 1428 2844 1947 2747 
L 2328 2669 
Q 3034 2534 3370 2195 
Q 3706 1856 3706 1288 
Q 3706 609 3251 259 
Q 2797 -91 1919 -91 
Q 1588 -91 1214 -16 
Q 841 59 441 206 
L 441 856 
Q 825 641 1194 531 
Q 1563 422 1919 422 
Q 2459 422 2753 634 
Q 3047 847 3047 1241 
Q 3047 1584 2836 1778 
Q 2625 1972 2144 2069 
L 1759 2144 
Q 1053 2284 737 2584 
Q 422 2884 422 3419 
Q 422 4038 858 4394 
Q 1294 4750 2059 4750 
Q 2388 4750 2728 4690 
Q 3069 4631 3425 4513 
z
" transform="scale(0.015625)"/>
       <path id="DejaVuSans-57" d="M 213 4666 
L 850 4666 
L 1831 722 
L 2809 4666 
L 3519 4666 
L 4500 722 
L 5478 4666 
L 6119 4666 
L 4947 0 
L 4153 0 
L 3169 4050 
L 2175 0 
L 1381 0 
L 213 4666 
z
" transform="scale(0.015625)"/>
      </defs>
      <use xlink:href="#DejaVuSans-53"/>
      <use xlink:href="#DejaVuSans-57" x="63.476562"/>
      <use xlink:href="#DejaVuSans-41" x="156.853516"/>
      <use xlink:href="#DejaVuSans-20" x="225.261719"/>
      <use xlink:href="#DejaVuSans-56" x="257.048828"/>
      <use xlink:href="#DejaVuSans-61" x="317.707031"/>
      <use xlink:href="#DejaVuSans-6c" x="378.986328"/>
      <use xlink:href="#DejaVuSans-69" x="406.769531"/>
      <use xlink:href="#DejaVuSans-64" x="434.552734"/>
      <use xlink:href="#DejaVuSans-61" x="498.029297"/>
      <use xlink:href="#DejaVuSans-74" x="559.308594"/>
      <use xlink:href="#DejaVuSans-69" x="598.517578"/>
      <use xlink:href="#DejaVuSans-6f" x="626.300781"/>
      <use xlink:href="#DejaVuSans-6e" x="687.482422"/>
      <use xlink:href="#DejaVuSans-20" x="750.861328"/>
      <use xlink:href="#DejaVuSans-41" x="782.648438"/>
      <use xlink:href="#DejaVuSans-63" x="849.306641"/>
      <use xlink:href="#DejaVuSans-63" x="904.287109"/>
      <use xlink:href="#DejaVuSans-75" x="959.267578"/>
      <use xlink:href="#DejaVuSans-72" x="1022.646484"/>
      <use xlink:href="#DejaVuSans-61" x="1063.759766"/>
      <use xlink:href="#DejaVuSans-63" x="1125.039062"/>
      <use xlink:href="#DejaVuSans-79" x="1180.019531"/>
     </g>
    </g>
    <g id="line2d_25">
     <path d="M 141.394375 293.004312 
L 151.394375 293.004312 
L 161.394375 293.004312 
" style="fill: none; stroke: #9467bd; stroke-width: 1.5; stroke-linecap: square"/>
    </g>
    <g id="text_23">
     <!-- SWA Robust Validation Accuracy -->
     <g transform="translate(169.394375 296.504312) scale(0.1 -0.1)">
      <use xlink:href="#DejaVuSans-53"/>
      <use xlink:href="#DejaVuSans-57" x="63.476562"/>
      <use xlink:href="#DejaVuSans-41" x="156.853516"/>
      <use xlink:href="#DejaVuSans-20" x="225.261719"/>
      <use xlink:href="#DejaVuSans-52" x="257.048828"/>
      <use xlink:href="#DejaVuSans-6f" x="322.03125"/>
      <use xlink:href="#DejaVuSans-62" x="383.212891"/>
      <use xlink:href="#DejaVuSans-75" x="446.689453"/>
      <use xlink:href="#DejaVuSans-73" x="510.068359"/>
      <use xlink:href="#DejaVuSans-74" x="562.167969"/>
      <use xlink:href="#DejaVuSans-20" x="601.376953"/>
      <use xlink:href="#DejaVuSans-56" x="633.164062"/>
      <use xlink:href="#DejaVuSans-61" x="693.822266"/>
      <use xlink:href="#DejaVuSans-6c" x="755.101562"/>
      <use xlink:href="#DejaVuSans-69" x="782.884766"/>
      <use xlink:href="#DejaVuSans-64" x="810.667969"/>
      <use xlink:href="#DejaVuSans-61" x="874.144531"/>
      <use xlink:href="#DejaVuSans-74" x="935.423828"/>
      <use xlink:href="#DejaVuSans-69" x="974.632812"/>
      <use xlink:href="#DejaVuSans-6f" x="1002.416016"/>
      <use xlink:href="#DejaVuSans-6e" x="1063.597656"/>
      <use xlink:href="#DejaVuSans-20" x="1126.976562"/>
      <use xlink:href="#DejaVuSans-41" x="1158.763672"/>
      <use xlink:href="#DejaVuSans-63" x="1225.421875"/>
      <use xlink:href="#DejaVuSans-63" x="1280.402344"/>
      <use xlink:href="#DejaVuSans-75" x="1335.382812"/>
      <use xlink:href="#DejaVuSans-72" x="1398.761719"/>
      <use xlink:href="#DejaVuSans-61" x="1439.875"/>
      <use xlink:href="#DejaVuSans-63" x="1501.154297"/>
      <use xlink:href="#DejaVuSans-79" x="1556.134766"/>
     </g>
    </g>
   </g>
  </g>
 </g>
 <defs>
  <clipPath id="pbc312465a5">
   <rect x="57.6" y="41.472" width="357.12" height="266.112"/>
  </clipPath>
 </defs>
</svg>
