<?xml version="1.0" encoding="utf-8" standalone="no"?>
<!DOCTYPE svg PUBLIC "-//W3C//DTD SVG 1.1//EN"
  "http://www.w3.org/Graphics/SVG/1.1/DTD/svg11.dtd">
<svg xmlns:xlink="http://www.w3.org/1999/xlink" width="460.8pt" height="345.6pt" viewBox="0 0 460.8 345.6" xmlns="http://www.w3.org/2000/svg" version="1.1">
 <metadata>
  <rdf:RDF xmlns:dc="http://purl.org/dc/elements/1.1/" xmlns:cc="http://creativecommons.org/ns#" xmlns:rdf="http://www.w3.org/1999/02/22-rdf-syntax-ns#">
   <cc:Work>
    <dc:type rdf:resource="http://purl.org/dc/dcmitype/StillImage"/>
    <dc:date>2025-06-28T17:23:25.305249</dc:date>
    <dc:format>image/svg+xml</dc:format>
    <dc:creator>
     <cc:Agent>
      <dc:title>Matplotlib v3.9.1, https://matplotlib.org/</dc:title>
     </cc:Agent>
    </dc:creator>
   </cc:Work>
  </rdf:RDF>
 </metadata>
 <defs>
  <style type="text/css">*{stroke-linejoin: round; stroke-linecap: butt}</style>
 </defs>
 <g id="figure_1">
  <g id="patch_1">
   <path d="M 0 345.6 
L 460.8 345.6 
L 460.8 0 
L 0 0 
z
" style="fill: #ffffff"/>
  </g>
  <g id="axes_1">
   <g id="patch_2">
    <path d="M 57.6 307.584 
L 414.72 307.584 
L 414.72 41.472 
L 57.6 41.472 
z
" style="fill: #ffffff"/>
   </g>
   <g id="matplotlib.axis_1">
    <g id="xtick_1">
     <g id="line2d_1">
      <defs>
       <path id="md574bb7582" d="M 0 0 
L 0 3.5 
" style="stroke: #000000; stroke-width: 0.8"/>
      </defs>
      <g>
       <use xlink:href="#md574bb7582" x="73.832727" y="307.584" style="stroke: #000000; stroke-width: 0.8"/>
      </g>
     </g>
     <g id="text_1">
      <!-- 1 -->
      <g transform="translate(70.651477 322.182437) scale(0.1 -0.1)">
       <defs>
        <path id="DejaVuSans-31" d="M 794 531 
L 1825 531 
L 1825 4091 
L 703 3866 
L 703 4441 
L 1819 4666 
L 2450 4666 
L 2450 531 
L 3481 531 
L 3481 0 
L 794 0 
L 794 531 
z
" transform="scale(0.015625)"/>
       </defs>
       <use xlink:href="#DejaVuSans-31"/>
      </g>
     </g>
    </g>
    <g id="xtick_2">
     <g id="line2d_2">
      <g>
       <use xlink:href="#md574bb7582" x="109.664165" y="307.584" style="stroke: #000000; stroke-width: 0.8"/>
      </g>
     </g>
     <g id="text_2">
      <!-- 34 -->
      <g transform="translate(103.301665 322.182437) scale(0.1 -0.1)">
       <defs>
        <path id="DejaVuSans-33" d="M 2597 2516 
Q 3050 2419 3304 2112 
Q 3559 1806 3559 1356 
Q 3559 666 3084 287 
Q 2609 -91 1734 -91 
Q 1441 -91 1130 -33 
Q 819 25 488 141 
L 488 750 
Q 750 597 1062 519 
Q 1375 441 1716 441 
Q 2309 441 2620 675 
Q 2931 909 2931 1356 
Q 2931 1769 2642 2001 
Q 2353 2234 1838 2234 
L 1294 2234 
L 1294 2753 
L 1863 2753 
Q 2328 2753 2575 2939 
Q 2822 3125 2822 3475 
Q 2822 3834 2567 4026 
Q 2313 4219 1838 4219 
Q 1578 4219 1281 4162 
Q 984 4106 628 3988 
L 628 4550 
Q 988 4650 1302 4700 
Q 1616 4750 1894 4750 
Q 2613 4750 3031 4423 
Q 3450 4097 3450 3541 
Q 3450 3153 3228 2886 
Q 3006 2619 2597 2516 
z
" transform="scale(0.015625)"/>
        <path id="DejaVuSans-34" d="M 2419 4116 
L 825 1625 
L 2419 1625 
L 2419 4116 
z
M 2253 4666 
L 3047 4666 
L 3047 1625 
L 3713 1625 
L 3713 1100 
L 3047 1100 
L 3047 0 
L 2419 0 
L 2419 1100 
L 313 1100 
L 313 1709 
L 2253 4666 
z
" transform="scale(0.015625)"/>
       </defs>
       <use xlink:href="#DejaVuSans-33"/>
       <use xlink:href="#DejaVuSans-34" x="63.623047"/>
      </g>
     </g>
    </g>
    <g id="xtick_3">
     <g id="line2d_3">
      <g>
       <use xlink:href="#md574bb7582" x="145.495604" y="307.584" style="stroke: #000000; stroke-width: 0.8"/>
      </g>
     </g>
     <g id="text_3">
      <!-- 67 -->
      <g transform="translate(139.133104 322.182437) scale(0.1 -0.1)">
       <defs>
        <path id="DejaVuSans-36" d="M 2113 2584 
Q 1688 2584 1439 2293 
Q 1191 2003 1191 1497 
Q 1191 994 1439 701 
Q 1688 409 2113 409 
Q 2538 409 2786 701 
Q 3034 994 3034 1497 
Q 3034 2003 2786 2293 
Q 2538 2584 2113 2584 
z
M 3366 4563 
L 3366 3988 
Q 3128 4100 2886 4159 
Q 2644 4219 2406 4219 
Q 1781 4219 1451 3797 
Q 1122 3375 1075 2522 
Q 1259 2794 1537 2939 
Q 1816 3084 2150 3084 
Q 2853 3084 3261 2657 
Q 3669 2231 3669 1497 
Q 3669 778 3244 343 
Q 2819 -91 2113 -91 
Q 1303 -91 875 529 
Q 447 1150 447 2328 
Q 447 3434 972 4092 
Q 1497 4750 2381 4750 
Q 2619 4750 2861 4703 
Q 3103 4656 3366 4563 
z
" transform="scale(0.015625)"/>
        <path id="DejaVuSans-37" d="M 525 4666 
L 3525 4666 
L 3525 4397 
L 1831 0 
L 1172 0 
L 2766 4134 
L 525 4134 
L 525 4666 
z
" transform="scale(0.015625)"/>
       </defs>
       <use xlink:href="#DejaVuSans-36"/>
       <use xlink:href="#DejaVuSans-37" x="63.623047"/>
      </g>
     </g>
    </g>
    <g id="xtick_4">
     <g id="line2d_4">
      <g>
       <use xlink:href="#md574bb7582" x="181.327042" y="307.584" style="stroke: #000000; stroke-width: 0.8"/>
      </g>
     </g>
     <g id="text_4">
      <!-- 100 -->
      <g transform="translate(171.783292 322.182437) scale(0.1 -0.1)">
       <defs>
        <path id="DejaVuSans-30" d="M 2034 4250 
Q 1547 4250 1301 3770 
Q 1056 3291 1056 2328 
Q 1056 1369 1301 889 
Q 1547 409 2034 409 
Q 2525 409 2770 889 
Q 3016 1369 3016 2328 
Q 3016 3291 2770 3770 
Q 2525 4250 2034 4250 
z
M 2034 4750 
Q 2819 4750 3233 4129 
Q 3647 3509 3647 2328 
Q 3647 1150 3233 529 
Q 2819 -91 2034 -91 
Q 1250 -91 836 529 
Q 422 1150 422 2328 
Q 422 3509 836 4129 
Q 1250 4750 2034 4750 
z
" transform="scale(0.015625)"/>
       </defs>
       <use xlink:href="#DejaVuSans-31"/>
       <use xlink:href="#DejaVuSans-30" x="63.623047"/>
       <use xlink:href="#DejaVuSans-30" x="127.246094"/>
      </g>
     </g>
    </g>
    <g id="xtick_5">
     <g id="line2d_5">
      <g>
       <use xlink:href="#md574bb7582" x="217.15848" y="307.584" style="stroke: #000000; stroke-width: 0.8"/>
      </g>
     </g>
     <g id="text_5">
      <!-- 133 -->
      <g transform="translate(207.61473 322.182437) scale(0.1 -0.1)">
       <use xlink:href="#DejaVuSans-31"/>
       <use xlink:href="#DejaVuSans-33" x="63.623047"/>
       <use xlink:href="#DejaVuSans-33" x="127.246094"/>
      </g>
     </g>
    </g>
    <g id="xtick_6">
     <g id="line2d_6">
      <g>
       <use xlink:href="#md574bb7582" x="254.075719" y="307.584" style="stroke: #000000; stroke-width: 0.8"/>
      </g>
     </g>
     <g id="text_6">
      <!-- 167 -->
      <g transform="translate(244.531969 322.182437) scale(0.1 -0.1)">
       <use xlink:href="#DejaVuSans-31"/>
       <use xlink:href="#DejaVuSans-36" x="63.623047"/>
       <use xlink:href="#DejaVuSans-37" x="127.246094"/>
      </g>
     </g>
    </g>
    <g id="xtick_7">
     <g id="line2d_7">
      <g>
       <use xlink:href="#md574bb7582" x="289.907157" y="307.584" style="stroke: #000000; stroke-width: 0.8"/>
      </g>
     </g>
     <g id="text_7">
      <!-- 200 -->
      <g transform="translate(280.363407 322.182437) scale(0.1 -0.1)">
       <defs>
        <path id="DejaVuSans-32" d="M 1228 531 
L 3431 531 
L 3431 0 
L 469 0 
L 469 531 
Q 828 903 1448 1529 
Q 2069 2156 2228 2338 
Q 2531 2678 2651 2914 
Q 2772 3150 2772 3378 
Q 2772 3750 2511 3984 
Q 2250 4219 1831 4219 
Q 1534 4219 1204 4116 
Q 875 4013 500 3803 
L 500 4441 
Q 881 4594 1212 4672 
Q 1544 4750 1819 4750 
Q 2544 4750 2975 4387 
Q 3406 4025 3406 3419 
Q 3406 3131 3298 2873 
Q 3191 2616 2906 2266 
Q 2828 2175 2409 1742 
Q 1991 1309 1228 531 
z
" transform="scale(0.015625)"/>
       </defs>
       <use xlink:href="#DejaVuSans-32"/>
       <use xlink:href="#DejaVuSans-30" x="63.623047"/>
       <use xlink:href="#DejaVuSans-30" x="127.246094"/>
      </g>
     </g>
    </g>
    <g id="xtick_8">
     <g id="line2d_8">
      <g>
       <use xlink:href="#md574bb7582" x="325.738595" y="307.584" style="stroke: #000000; stroke-width: 0.8"/>
      </g>
     </g>
     <g id="text_8">
      <!-- 233 -->
      <g transform="translate(316.194845 322.182437) scale(0.1 -0.1)">
       <use xlink:href="#DejaVuSans-32"/>
       <use xlink:href="#DejaVuSans-33" x="63.623047"/>
       <use xlink:href="#DejaVuSans-33" x="127.246094"/>
      </g>
     </g>
    </g>
    <g id="xtick_9">
     <g id="line2d_9">
      <g>
       <use xlink:href="#md574bb7582" x="361.570033" y="307.584" style="stroke: #000000; stroke-width: 0.8"/>
      </g>
     </g>
     <g id="text_9">
      <!-- 266 -->
      <g transform="translate(352.026283 322.182437) scale(0.1 -0.1)">
       <use xlink:href="#DejaVuSans-32"/>
       <use xlink:href="#DejaVuSans-36" x="63.623047"/>
       <use xlink:href="#DejaVuSans-36" x="127.246094"/>
      </g>
     </g>
    </g>
    <g id="xtick_10">
     <g id="line2d_10">
      <g>
       <use xlink:href="#md574bb7582" x="398.487273" y="307.584" style="stroke: #000000; stroke-width: 0.8"/>
      </g>
     </g>
     <g id="text_10">
      <!-- 300 -->
      <g transform="translate(388.943523 322.182437) scale(0.1 -0.1)">
       <use xlink:href="#DejaVuSans-33"/>
       <use xlink:href="#DejaVuSans-30" x="63.623047"/>
       <use xlink:href="#DejaVuSans-30" x="127.246094"/>
      </g>
     </g>
    </g>
    <g id="text_11">
     <!-- Epochs -->
     <g transform="translate(218.244375 335.860562) scale(0.1 -0.1)">
      <defs>
       <path id="DejaVuSans-45" d="M 628 4666 
L 3578 4666 
L 3578 4134 
L 1259 4134 
L 1259 2753 
L 3481 2753 
L 3481 2222 
L 1259 2222 
L 1259 531 
L 3634 531 
L 3634 0 
L 628 0 
L 628 4666 
z
" transform="scale(0.015625)"/>
       <path id="DejaVuSans-70" d="M 1159 525 
L 1159 -1331 
L 581 -1331 
L 581 3500 
L 1159 3500 
L 1159 2969 
Q 1341 3281 1617 3432 
Q 1894 3584 2278 3584 
Q 2916 3584 3314 3078 
Q 3713 2572 3713 1747 
Q 3713 922 3314 415 
Q 2916 -91 2278 -91 
Q 1894 -91 1617 61 
Q 1341 213 1159 525 
z
M 3116 1747 
Q 3116 2381 2855 2742 
Q 2594 3103 2138 3103 
Q 1681 3103 1420 2742 
Q 1159 2381 1159 1747 
Q 1159 1113 1420 752 
Q 1681 391 2138 391 
Q 2594 391 2855 752 
Q 3116 1113 3116 1747 
z
" transform="scale(0.015625)"/>
       <path id="DejaVuSans-6f" d="M 1959 3097 
Q 1497 3097 1228 2736 
Q 959 2375 959 1747 
Q 959 1119 1226 758 
Q 1494 397 1959 397 
Q 2419 397 2687 759 
Q 2956 1122 2956 1747 
Q 2956 2369 2687 2733 
Q 2419 3097 1959 3097 
z
M 1959 3584 
Q 2709 3584 3137 3096 
Q 3566 2609 3566 1747 
Q 3566 888 3137 398 
Q 2709 -91 1959 -91 
Q 1206 -91 779 398 
Q 353 888 353 1747 
Q 353 2609 779 3096 
Q 1206 3584 1959 3584 
z
" transform="scale(0.015625)"/>
       <path id="DejaVuSans-63" d="M 3122 3366 
L 3122 2828 
Q 2878 2963 2633 3030 
Q 2388 3097 2138 3097 
Q 1578 3097 1268 2742 
Q 959 2388 959 1747 
Q 959 1106 1268 751 
Q 1578 397 2138 397 
Q 2388 397 2633 464 
Q 2878 531 3122 666 
L 3122 134 
Q 2881 22 2623 -34 
Q 2366 -91 2075 -91 
Q 1284 -91 818 406 
Q 353 903 353 1747 
Q 353 2603 823 3093 
Q 1294 3584 2113 3584 
Q 2378 3584 2631 3529 
Q 2884 3475 3122 3366 
z
" transform="scale(0.015625)"/>
       <path id="DejaVuSans-68" d="M 3513 2113 
L 3513 0 
L 2938 0 
L 2938 2094 
Q 2938 2591 2744 2837 
Q 2550 3084 2163 3084 
Q 1697 3084 1428 2787 
Q 1159 2491 1159 1978 
L 1159 0 
L 581 0 
L 581 4863 
L 1159 4863 
L 1159 2956 
Q 1366 3272 1645 3428 
Q 1925 3584 2291 3584 
Q 2894 3584 3203 3211 
Q 3513 2838 3513 2113 
z
" transform="scale(0.015625)"/>
       <path id="DejaVuSans-73" d="M 2834 3397 
L 2834 2853 
Q 2591 2978 2328 3040 
Q 2066 3103 1784 3103 
Q 1356 3103 1142 2972 
Q 928 2841 928 2578 
Q 928 2378 1081 2264 
Q 1234 2150 1697 2047 
L 1894 2003 
Q 2506 1872 2764 1633 
Q 3022 1394 3022 966 
Q 3022 478 2636 193 
Q 2250 -91 1575 -91 
Q 1294 -91 989 -36 
Q 684 19 347 128 
L 347 722 
Q 666 556 975 473 
Q 1284 391 1588 391 
Q 1994 391 2212 530 
Q 2431 669 2431 922 
Q 2431 1156 2273 1281 
Q 2116 1406 1581 1522 
L 1381 1569 
Q 847 1681 609 1914 
Q 372 2147 372 2553 
Q 372 3047 722 3315 
Q 1072 3584 1716 3584 
Q 2034 3584 2315 3537 
Q 2597 3491 2834 3397 
z
" transform="scale(0.015625)"/>
      </defs>
      <use xlink:href="#DejaVuSans-45"/>
      <use xlink:href="#DejaVuSans-70" x="63.183594"/>
      <use xlink:href="#DejaVuSans-6f" x="126.660156"/>
      <use xlink:href="#DejaVuSans-63" x="187.841797"/>
      <use xlink:href="#DejaVuSans-68" x="242.822266"/>
      <use xlink:href="#DejaVuSans-73" x="306.201172"/>
     </g>
    </g>
   </g>
   <g id="matplotlib.axis_2">
    <g id="ytick_1">
     <g id="line2d_11">
      <defs>
       <path id="me205d6ef43" d="M 0 0 
L -3.5 0 
" style="stroke: #000000; stroke-width: 0.8"/>
      </defs>
      <g>
       <use xlink:href="#me205d6ef43" x="57.6" y="287.24055" style="stroke: #000000; stroke-width: 0.8"/>
      </g>
     </g>
     <g id="text_12">
      <!-- 10 -->
      <g transform="translate(37.875 291.039769) scale(0.1 -0.1)">
       <use xlink:href="#DejaVuSans-31"/>
       <use xlink:href="#DejaVuSans-30" x="63.623047"/>
      </g>
     </g>
    </g>
    <g id="ytick_2">
     <g id="line2d_12">
      <g>
       <use xlink:href="#me205d6ef43" x="57.6" y="256.059265" style="stroke: #000000; stroke-width: 0.8"/>
      </g>
     </g>
     <g id="text_13">
      <!-- 20 -->
      <g transform="translate(37.875 259.858484) scale(0.1 -0.1)">
       <use xlink:href="#DejaVuSans-32"/>
       <use xlink:href="#DejaVuSans-30" x="63.623047"/>
      </g>
     </g>
    </g>
    <g id="ytick_3">
     <g id="line2d_13">
      <g>
       <use xlink:href="#me205d6ef43" x="57.6" y="224.87798" style="stroke: #000000; stroke-width: 0.8"/>
      </g>
     </g>
     <g id="text_14">
      <!-- 30 -->
      <g transform="translate(37.875 228.677199) scale(0.1 -0.1)">
       <use xlink:href="#DejaVuSans-33"/>
       <use xlink:href="#DejaVuSans-30" x="63.623047"/>
      </g>
     </g>
    </g>
    <g id="ytick_4">
     <g id="line2d_14">
      <g>
       <use xlink:href="#me205d6ef43" x="57.6" y="193.696695" style="stroke: #000000; stroke-width: 0.8"/>
      </g>
     </g>
     <g id="text_15">
      <!-- 40 -->
      <g transform="translate(37.875 197.495914) scale(0.1 -0.1)">
       <use xlink:href="#DejaVuSans-34"/>
       <use xlink:href="#DejaVuSans-30" x="63.623047"/>
      </g>
     </g>
    </g>
    <g id="ytick_5">
     <g id="line2d_15">
      <g>
       <use xlink:href="#me205d6ef43" x="57.6" y="162.51541" style="stroke: #000000; stroke-width: 0.8"/>
      </g>
     </g>
     <g id="text_16">
      <!-- 50 -->
      <g transform="translate(37.875 166.314629) scale(0.1 -0.1)">
       <defs>
        <path id="DejaVuSans-35" d="M 691 4666 
L 3169 4666 
L 3169 4134 
L 1269 4134 
L 1269 2991 
Q 1406 3038 1543 3061 
Q 1681 3084 1819 3084 
Q 2600 3084 3056 2656 
Q 3513 2228 3513 1497 
Q 3513 744 3044 326 
Q 2575 -91 1722 -91 
Q 1428 -91 1123 -41 
Q 819 9 494 109 
L 494 744 
Q 775 591 1075 516 
Q 1375 441 1709 441 
Q 2250 441 2565 725 
Q 2881 1009 2881 1497 
Q 2881 1984 2565 2268 
Q 2250 2553 1709 2553 
Q 1456 2553 1204 2497 
Q 953 2441 691 2322 
L 691 4666 
z
" transform="scale(0.015625)"/>
       </defs>
       <use xlink:href="#DejaVuSans-35"/>
       <use xlink:href="#DejaVuSans-30" x="63.623047"/>
      </g>
     </g>
    </g>
    <g id="ytick_6">
     <g id="line2d_16">
      <g>
       <use xlink:href="#me205d6ef43" x="57.6" y="131.334125" style="stroke: #000000; stroke-width: 0.8"/>
      </g>
     </g>
     <g id="text_17">
      <!-- 60 -->
      <g transform="translate(37.875 135.133344) scale(0.1 -0.1)">
       <use xlink:href="#DejaVuSans-36"/>
       <use xlink:href="#DejaVuSans-30" x="63.623047"/>
      </g>
     </g>
    </g>
    <g id="ytick_7">
     <g id="line2d_17">
      <g>
       <use xlink:href="#me205d6ef43" x="57.6" y="100.15284" style="stroke: #000000; stroke-width: 0.8"/>
      </g>
     </g>
     <g id="text_18">
      <!-- 70 -->
      <g transform="translate(37.875 103.952059) scale(0.1 -0.1)">
       <use xlink:href="#DejaVuSans-37"/>
       <use xlink:href="#DejaVuSans-30" x="63.623047"/>
      </g>
     </g>
    </g>
    <g id="ytick_8">
     <g id="line2d_18">
      <g>
       <use xlink:href="#me205d6ef43" x="57.6" y="68.971555" style="stroke: #000000; stroke-width: 0.8"/>
      </g>
     </g>
     <g id="text_19">
      <!-- 80 -->
      <g transform="translate(37.875 72.770774) scale(0.1 -0.1)">
       <defs>
        <path id="DejaVuSans-38" d="M 2034 2216 
Q 1584 2216 1326 1975 
Q 1069 1734 1069 1313 
Q 1069 891 1326 650 
Q 1584 409 2034 409 
Q 2484 409 2743 651 
Q 3003 894 3003 1313 
Q 3003 1734 2745 1975 
Q 2488 2216 2034 2216 
z
M 1403 2484 
Q 997 2584 770 2862 
Q 544 3141 544 3541 
Q 544 4100 942 4425 
Q 1341 4750 2034 4750 
Q 2731 4750 3128 4425 
Q 3525 4100 3525 3541 
Q 3525 3141 3298 2862 
Q 3072 2584 2669 2484 
Q 3125 2378 3379 2068 
Q 3634 1759 3634 1313 
Q 3634 634 3220 271 
Q 2806 -91 2034 -91 
Q 1263 -91 848 271 
Q 434 634 434 1313 
Q 434 1759 690 2068 
Q 947 2378 1403 2484 
z
M 1172 3481 
Q 1172 3119 1398 2916 
Q 1625 2713 2034 2713 
Q 2441 2713 2670 2916 
Q 2900 3119 2900 3481 
Q 2900 3844 2670 4047 
Q 2441 4250 2034 4250 
Q 1625 4250 1398 4047 
Q 1172 3844 1172 3481 
z
" transform="scale(0.015625)"/>
       </defs>
       <use xlink:href="#DejaVuSans-38"/>
       <use xlink:href="#DejaVuSans-30" x="63.623047"/>
      </g>
     </g>
    </g>
    <g id="text_20">
     <!-- Accuracy -->
     <g transform="translate(31.795312 197.356125) rotate(-90) scale(0.1 -0.1)">
      <defs>
       <path id="DejaVuSans-41" d="M 2188 4044 
L 1331 1722 
L 3047 1722 
L 2188 4044 
z
M 1831 4666 
L 2547 4666 
L 4325 0 
L 3669 0 
L 3244 1197 
L 1141 1197 
L 716 0 
L 50 0 
L 1831 4666 
z
" transform="scale(0.015625)"/>
       <path id="DejaVuSans-75" d="M 544 1381 
L 544 3500 
L 1119 3500 
L 1119 1403 
Q 1119 906 1312 657 
Q 1506 409 1894 409 
Q 2359 409 2629 706 
Q 2900 1003 2900 1516 
L 2900 3500 
L 3475 3500 
L 3475 0 
L 2900 0 
L 2900 538 
Q 2691 219 2414 64 
Q 2138 -91 1772 -91 
Q 1169 -91 856 284 
Q 544 659 544 1381 
z
M 1991 3584 
L 1991 3584 
z
" transform="scale(0.015625)"/>
       <path id="DejaVuSans-72" d="M 2631 2963 
Q 2534 3019 2420 3045 
Q 2306 3072 2169 3072 
Q 1681 3072 1420 2755 
Q 1159 2438 1159 1844 
L 1159 0 
L 581 0 
L 581 3500 
L 1159 3500 
L 1159 2956 
Q 1341 3275 1631 3429 
Q 1922 3584 2338 3584 
Q 2397 3584 2469 3576 
Q 2541 3569 2628 3553 
L 2631 2963 
z
" transform="scale(0.015625)"/>
       <path id="DejaVuSans-61" d="M 2194 1759 
Q 1497 1759 1228 1600 
Q 959 1441 959 1056 
Q 959 750 1161 570 
Q 1363 391 1709 391 
Q 2188 391 2477 730 
Q 2766 1069 2766 1631 
L 2766 1759 
L 2194 1759 
z
M 3341 1997 
L 3341 0 
L 2766 0 
L 2766 531 
Q 2569 213 2275 61 
Q 1981 -91 1556 -91 
Q 1019 -91 701 211 
Q 384 513 384 1019 
Q 384 1609 779 1909 
Q 1175 2209 1959 2209 
L 2766 2209 
L 2766 2266 
Q 2766 2663 2505 2880 
Q 2244 3097 1772 3097 
Q 1472 3097 1187 3025 
Q 903 2953 641 2809 
L 641 3341 
Q 956 3463 1253 3523 
Q 1550 3584 1831 3584 
Q 2591 3584 2966 3190 
Q 3341 2797 3341 1997 
z
" transform="scale(0.015625)"/>
       <path id="DejaVuSans-79" d="M 2059 -325 
Q 1816 -950 1584 -1140 
Q 1353 -1331 966 -1331 
L 506 -1331 
L 506 -850 
L 844 -850 
Q 1081 -850 1212 -737 
Q 1344 -625 1503 -206 
L 1606 56 
L 191 3500 
L 800 3500 
L 1894 763 
L 2988 3500 
L 3597 3500 
L 2059 -325 
z
" transform="scale(0.015625)"/>
      </defs>
      <use xlink:href="#DejaVuSans-41"/>
      <use xlink:href="#DejaVuSans-63" x="66.658203"/>
      <use xlink:href="#DejaVuSans-63" x="121.638672"/>
      <use xlink:href="#DejaVuSans-75" x="176.619141"/>
      <use xlink:href="#DejaVuSans-72" x="239.998047"/>
      <use xlink:href="#DejaVuSans-61" x="281.111328"/>
      <use xlink:href="#DejaVuSans-63" x="342.390625"/>
      <use xlink:href="#DejaVuSans-79" x="397.371094"/>
     </g>
    </g>
   </g>
   <g id="line2d_19">
    <path d="M 73.832727 295.488 
L 77.090131 224.589553 
L 78.175932 206.403069 
L 80.347534 180.335514 
L 82.519137 162.39848 
L 85.77654 144.024908 
L 86.862341 139.667323 
L 87.948142 137.539201 
L 89.033943 132.19161 
L 91.205546 124.41188 
L 94.462949 120.903985 
L 95.54875 148.515013 
L 96.634552 147.891387 
L 97.720353 143.876797 
L 98.806154 139.386692 
L 99.891955 137.702902 
L 100.977756 135.216195 
L 103.149358 128.574581 
L 104.23516 129.003324 
L 105.320961 125.425271 
L 106.406762 123.476441 
L 107.492563 120.077681 
L 108.578364 119.376102 
L 109.664165 117.544202 
L 110.749967 115.345921 
L 111.835768 113.99733 
L 112.921569 111.993933 
L 114.00737 111.097471 
L 115.093171 108.337927 
L 116.178972 107.698711 
L 117.264773 103.980343 
L 118.350575 103.060495 
L 119.436376 100.480243 
L 120.522177 99.887799 
L 121.607978 99.108267 
L 122.693779 95.148244 
L 123.77958 95.000132 
L 124.865382 92.739489 
L 125.951183 93.098074 
L 127.036984 91.546805 
L 128.122785 89.021121 
L 129.208586 89.660337 
L 130.294387 87.914185 
L 131.380189 85.185823 
L 132.46599 85.115665 
L 133.551791 84.312747 
L 134.637592 84.188022 
L 135.723393 82.995338 
L 136.809194 84.071092 
L 137.894995 83.790461 
L 138.980797 109.218798 
L 140.066598 111.089676 
L 141.152399 113.233389 
L 142.2382 112.508424 
L 143.324001 110.325734 
L 144.409802 110.707705 
L 145.495604 109.670927 
L 146.581405 109.881401 
L 147.667206 106.771068 
L 148.753007 106.755477 
L 149.838808 106.537208 
L 150.924609 104.416881 
L 152.01041 104.214202 
L 153.096212 102.748682 
L 154.182013 103.231992 
L 155.267814 102.062694 
L 156.353615 101.797653 
L 157.439416 100.721898 
L 158.525217 101.290957 
L 159.611019 99.43567 
L 160.69682 98.547004 
L 161.782621 98.126056 
L 162.868422 98.055898 
L 163.954223 95.849823 
L 165.040024 94.727296 
L 166.125825 95.452261 
L 167.211627 94.875407 
L 168.297428 93.495635 
L 170.46903 91.913185 
L 171.554831 90.57239 
L 172.640632 89.964355 
L 173.726434 88.358519 
L 174.812235 89.262776 
L 175.898036 89.371911 
L 176.983837 86.791659 
L 178.069638 86.019922 
L 179.155439 86.518823 
L 180.24124 85.521022 
L 181.327042 83.884004 
L 182.412843 85.84063 
L 183.498644 82.122262 
L 184.584445 82.184624 
L 186.756047 81.818244 
L 187.841849 78.746888 
L 188.92765 79.978548 
L 190.013451 78.021923 
L 191.099252 76.548607 
L 192.185053 77.031917 
L 193.270854 76.14325 
L 194.356656 76.267976 
L 195.442457 75.184426 
L 196.528258 75.067496 
L 197.614059 73.500636 
L 198.69986 73.165438 
L 200.871462 71.154245 
L 201.957264 71.052906 
L 203.043065 68.207613 
L 204.128866 69.844631 
L 205.214667 67.747689 
L 206.300468 68.971555 
L 207.386269 69.680929 
L 208.472071 67.771075 
L 209.557872 67.622964 
L 210.643673 66.383508 
L 211.729474 66.360122 
L 212.815275 65.533818 
L 213.901076 64.871216 
L 214.986877 66.43028 
L 216.072679 64.645152 
L 217.15848 65.393502 
L 218.244281 64.36452 
L 219.330082 64.122865 
L 220.415883 64.208614 
L 221.501684 63.195222 
L 222.587486 63.499239 
L 223.673287 64.286567 
L 224.759088 64.59838 
L 225.844889 90.190419 
L 226.93069 93.939969 
L 228.016491 93.495635 
L 229.102292 94.45446 
L 230.188094 95.015723 
L 231.273895 94.968951 
L 232.359696 93.503431 
L 233.445497 93.090279 
L 234.531298 93.784062 
L 235.617099 93.386501 
L 236.702901 94.064694 
L 237.788702 92.123659 
L 238.874503 91.874209 
L 239.960304 90.798454 
L 241.046105 91.118063 
L 242.131906 91.858618 
L 243.217708 90.845226 
L 244.303509 91.390899 
L 245.38931 91.110267 
L 246.475111 91.273969 
L 247.560912 88.522221 
L 248.646713 90.385302 
L 249.732514 89.769472 
L 250.818316 89.714905 
L 251.904117 87.641349 
L 252.989918 87.984343 
L 254.075719 88.187022 
L 255.16152 86.791659 
L 256.247321 87.345127 
L 257.333123 87.766074 
L 258.418924 87.836232 
L 259.504725 86.121262 
L 260.590526 85.902993 
L 261.676327 85.006531 
L 263.847929 85.131256 
L 264.933731 85.645747 
L 266.019532 84.897396 
L 267.105333 83.813846 
L 268.191134 84.289361 
L 269.276935 83.852823 
L 270.362736 83.096677 
L 271.448538 82.683525 
L 272.534339 82.402893 
L 273.62014 81.966355 
L 274.705941 83.049905 
L 275.791742 81.132256 
L 276.877543 81.101075 
L 277.963344 81.974151 
L 279.049146 81.670133 
L 280.134947 80.890601 
L 281.220748 80.890601 
L 282.306549 79.050905 
L 283.39235 79.612168 
L 284.478151 78.723502 
L 285.563953 80.033116 
L 286.649754 77.873812 
L 287.735555 79.027519 
L 288.821356 78.092081 
L 289.907157 77.382706 
L 290.992958 77.421683 
L 292.07876 76.62656 
L 293.164561 76.361519 
L 294.250362 76.657742 
L 295.336163 76.306952 
L 296.421964 75.340332 
L 297.507765 76.821443 
L 298.593566 74.802455 
L 299.679368 73.726701 
L 300.765169 75.215607 
L 301.85097 74.553005 
L 302.936771 75.457262 
L 304.022572 74.046309 
L 305.108373 72.440473 
L 306.194175 72.448268 
L 307.279976 72.908192 
L 308.365777 72.284566 
L 309.451578 71.466058 
L 310.537379 71.918186 
L 312.708981 71.816847 
L 313.794783 70.530619 
L 314.880584 69.517227 
L 315.966385 70.187625 
L 317.052186 68.503836 
L 318.137987 69.938175 
L 319.223788 67.708713 
L 320.30959 68.527221 
L 321.395391 67.014929 
L 323.566993 66.820046 
L 324.652794 67.194222 
L 325.738595 66.235397 
L 326.824396 65.46366 
L 327.910198 65.744292 
L 328.995999 65.276573 
L 330.0818 65.409093 
L 331.167601 65.759882 
L 332.253402 63.530421 
L 333.339203 64.076093 
L 334.425005 64.216409 
L 335.510806 62.251988 
L 336.596607 63.351128 
L 338.768209 62.891204 
L 339.85401 62.727502 
L 340.939811 60.7319 
L 342.025613 62.213011 
L 343.111414 61.191824 
L 344.197215 61.347731 
L 345.283016 60.256386 
L 346.368817 60.708514 
L 347.454618 58.408895 
L 348.54042 58.650549 
L 349.626221 58.440076 
L 350.712022 58.408895 
L 351.797823 58.128263 
L 352.883624 58.557006 
L 353.969425 56.678333 
L 355.055227 57.442275 
L 356.141028 57.528023 
L 357.226829 56.927783 
L 358.31263 55.735099 
L 359.398431 56.304158 
L 361.570033 55.049111 
L 362.655835 55.314152 
L 363.741636 55.929982 
L 364.827437 54.480053 
L 365.913238 55.025725 
L 366.999039 53.568 
L 369.170642 55.548012 
L 370.256443 55.38431 
L 371.342244 57.107076 
L 372.428045 56.919988 
L 373.513846 57.886608 
L 374.599647 57.722906 
L 375.685448 58.089286 
L 376.77125 58.104877 
L 377.857051 58.829842 
L 378.942852 56.7329 
L 380.028653 58.011333 
L 381.114454 57.722906 
L 382.200255 57.754088 
L 383.286057 57.138257 
L 384.371858 56.818649 
L 385.457659 57.769678 
L 386.54346 57.839836 
L 387.629261 57.621567 
L 388.715062 56.686129 
L 389.800863 57.411093 
L 390.886665 57.543614 
L 391.972466 58.18283 
L 393.058267 58.034719 
L 394.144068 57.418889 
L 395.229869 57.45007 
L 396.31567 57.941175 
L 397.401472 57.036918 
L 398.487273 57.956766 
L 398.487273 57.956766 
" clip-path="url(#p54bf0335a9)" style="fill: none; stroke: #1f77b4; stroke-width: 1.5; stroke-linecap: square"/>
   </g>
   <g id="line2d_20">
    <path d="M 73.832727 289.204971 
L 76.00433 235.386073 
L 77.090131 221.697489 
L 78.175932 203.643525 
L 79.261733 198.249163 
L 80.347534 178.106052 
L 82.519137 160.550989 
L 83.604938 157.308135 
L 84.690739 147.673118 
L 85.77654 147.111855 
L 86.862341 138.318733 
L 87.948142 135.075879 
L 89.033943 132.394289 
L 90.119745 128.590172 
L 91.205546 127.841821 
L 92.291347 124.100067 
L 93.377148 124.692511 
L 94.462949 124.224792 
L 95.54875 160.956346 
L 96.634552 147.23658 
L 97.720353 144.773259 
L 98.806154 145.240978 
L 99.891955 135.138242 
L 100.977756 137.0403 
L 102.063557 132.487832 
L 103.149358 136.79085 
L 104.23516 127.81064 
L 105.320961 128.371903 
L 106.406762 123.102266 
L 107.492563 120.108862 
L 108.578364 120.108862 
L 109.664165 113.342523 
L 110.749967 116.89719 
L 111.835768 112.78126 
L 112.921569 106.70091 
L 114.00737 109.070687 
L 115.093171 104.580582 
L 116.178972 107.418079 
L 118.350575 98.188419 
L 119.436376 100.277565 
L 120.522177 97.627156 
L 121.607978 97.190618 
L 122.693779 95.475647 
L 123.77958 94.976747 
L 124.865382 91.141448 
L 125.951183 91.453261 
L 127.036984 88.802852 
L 128.122785 89.925378 
L 129.208586 88.366314 
L 130.294387 88.459858 
L 131.380189 87.243788 
L 132.46599 85.84063 
L 133.551791 86.963156 
L 134.637592 85.653542 
L 135.723393 85.029917 
L 136.809194 85.934174 
L 137.894995 84.936373 
L 138.980797 116.554196 
L 140.066598 117.021915 
L 141.152399 110.224395 
L 142.2382 108.478243 
L 143.324001 109.444863 
L 144.409802 108.665331 
L 145.495604 108.945962 
L 146.581405 106.046103 
L 147.667206 105.01712 
L 148.753007 104.892395 
L 149.838808 108.041705 
L 150.924609 102.366711 
L 152.01041 105.297752 
L 153.096212 104.642945 
L 154.182013 103.115062 
L 155.267814 102.210805 
L 156.353615 99.996933 
L 157.439416 101.774267 
L 158.525217 97.471249 
L 159.611019 95.631554 
L 160.69682 99.092676 
L 161.782621 97.845425 
L 162.868422 98.46905 
L 163.954223 96.005729 
L 165.040024 96.192817 
L 166.125825 91.328536 
L 167.211627 91.640349 
L 168.297428 90.767273 
L 169.383229 91.016723 
L 170.46903 92.949963 
L 171.554831 87.992139 
L 172.640632 91.141448 
L 173.726434 88.241589 
L 174.812235 88.896396 
L 175.898036 88.179226 
L 176.983837 86.5578 
L 178.069638 86.09008 
L 179.155439 85.248186 
L 180.24124 85.217004 
L 181.327042 82.753683 
L 182.412843 83.470852 
L 183.498644 82.878408 
L 184.584445 84.188022 
L 185.670246 79.978548 
L 186.756047 81.381706 
L 187.841849 78.762478 
L 188.92765 80.477449 
L 190.013451 79.510829 
L 191.099252 78.32594 
L 192.185053 78.700116 
L 193.270854 79.635554 
L 194.356656 76.455063 
L 195.442457 76.267976 
L 196.528258 78.232396 
L 197.614059 75.64435 
L 198.69986 74.958362 
L 199.785661 74.615367 
L 201.957264 72.962759 
L 203.043065 71.341332 
L 204.128866 71.77787 
L 205.214667 70.468256 
L 206.300468 72.682128 
L 207.386269 71.154245 
L 208.472071 70.904794 
L 209.557872 69.657543 
L 210.643673 69.719906 
L 211.729474 70.187625 
L 212.815275 70.249987 
L 213.901076 69.065099 
L 214.986877 70.156444 
L 216.072679 69.688724 
L 217.15848 69.532818 
L 218.244281 69.81345 
L 219.330082 69.501637 
L 220.415883 69.657543 
L 221.501684 69.002736 
L 222.587486 69.439274 
L 223.673287 69.532818 
L 224.759088 68.628561 
L 225.844889 89.23939 
L 226.93069 92.825238 
L 228.016491 94.477846 
L 229.102292 92.981144 
L 230.188094 95.382103 
L 231.273895 93.698314 
L 232.359696 95.07029 
L 233.445497 96.816442 
L 234.531298 93.947764 
L 235.617099 94.166033 
L 236.702901 100.495834 
L 237.788702 93.35532 
L 238.874503 96.535811 
L 239.960304 92.63815 
L 241.046105 92.13925 
L 242.131906 91.110267 
L 243.217708 88.553402 
L 244.303509 88.27277 
L 245.38931 87.805051 
L 246.475111 93.324138 
L 247.560912 88.210408 
L 248.646713 88.802852 
L 249.732514 88.366314 
L 250.818316 88.958759 
L 251.904117 89.800653 
L 252.989918 85.217004 
L 254.075719 87.898595 
L 255.16152 86.80725 
L 256.247321 88.584583 
L 257.333123 88.771671 
L 258.418924 85.747086 
L 259.504725 83.65794 
L 260.590526 84.842829 
L 261.676327 87.742688 
L 262.762128 87.711507 
L 263.847929 86.277168 
L 264.933731 86.121262 
L 266.019532 86.713706 
L 267.105333 87.836232 
L 268.191134 88.179226 
L 269.276935 85.715905 
L 270.362736 85.497636 
L 271.448538 83.283765 
L 272.534339 85.684724 
L 274.705941 84.032115 
L 275.791742 84.967554 
L 276.877543 84.37511 
L 277.963344 82.660139 
L 279.049146 84.655741 
L 280.134947 81.7247 
L 281.220748 81.599975 
L 282.306549 85.372911 
L 283.39235 81.974151 
L 284.478151 82.223601 
L 285.563953 79.54201 
L 286.649754 80.570993 
L 287.735555 83.689121 
L 288.821356 81.2258 
L 289.907157 79.853823 
L 290.992958 79.978548 
L 292.07876 83.252583 
L 293.164561 81.662338 
L 294.250362 79.167835 
L 295.336163 81.568794 
L 296.421964 79.199016 
L 297.507765 79.448467 
L 298.593566 78.637753 
L 299.679368 75.924981 
L 300.765169 75.270174 
L 301.85097 81.381706 
L 302.936771 79.167835 
L 304.022572 77.82704 
L 306.194175 77.608771 
L 307.279976 77.172233 
L 308.365777 75.020724 
L 309.451578 75.426081 
L 310.537379 72.931578 
L 311.62318 75.426081 
L 312.708981 73.71111 
L 313.794783 75.083087 
L 314.880584 75.332537 
L 315.966385 74.646549 
L 317.052186 73.274572 
L 318.137987 73.243391 
L 319.223788 73.773473 
L 320.30959 73.835835 
L 322.481192 72.276771 
L 323.566993 73.742291 
L 324.652794 73.991742 
L 325.738595 71.216607 
L 327.910198 70.5618 
L 328.995999 71.590783 
L 330.0818 70.187625 
L 331.167601 70.686525 
L 332.253402 68.597379 
L 333.339203 68.254385 
L 334.425005 70.967157 
L 335.510806 68.535017 
L 336.596607 70.31235 
L 337.682408 68.753286 
L 338.768209 67.786666 
L 339.85401 68.535017 
L 340.939811 67.786666 
L 342.025613 68.347929 
L 343.111414 67.817847 
L 344.197215 67.007134 
L 345.283016 65.541613 
L 346.368817 65.416888 
L 347.454618 68.472654 
L 348.54042 65.603976 
L 349.626221 66.040514 
L 350.712022 65.978151 
L 351.797823 65.385707 
L 352.883624 64.200818 
L 353.969425 65.94697 
L 355.055227 64.200818 
L 356.141028 65.44807 
L 357.226829 63.951368 
L 358.31263 63.577192 
L 359.398431 63.483649 
L 360.484232 65.260982 
L 361.570033 63.015929 
L 363.741636 63.951368 
L 364.827437 63.109473 
L 365.913238 63.327742 
L 366.999039 62.392304 
L 368.08484 63.390105 
L 370.256443 64.200818 
L 371.342244 64.917988 
L 372.428045 65.073894 
L 373.513846 65.354526 
L 374.599647 66.695321 
L 375.685448 65.385707 
L 376.77125 66.726502 
L 377.857051 64.294362 
L 378.942852 65.011532 
L 380.028653 65.042713 
L 381.114454 66.757684 
L 382.200255 67.506034 
L 383.286057 65.44807 
L 384.371858 65.354526 
L 385.457659 65.884608 
L 386.54346 65.822245 
L 387.629261 64.762081 
L 388.715062 66.040514 
L 389.800863 66.040514 
L 390.886665 65.385707 
L 391.972466 66.134058 
L 393.058267 66.071695 
L 395.229869 64.637356 
L 396.31567 66.66414 
L 397.401472 66.289964 
L 398.487273 65.136257 
L 398.487273 65.136257 
" clip-path="url(#p54bf0335a9)" style="fill: none; stroke: #ff7f0e; stroke-width: 1.5; stroke-linecap: square"/>
   </g>
   <g id="line2d_21">
    <path d="M 73.832727 292.294069 
L 74.918528 272.187516 
L 76.00433 256.596873 
L 77.090131 247.35001 
L 78.175932 233.157149 
L 79.261733 229.608934 
L 80.347534 215.201029 
L 82.519137 205.309036 
L 83.604938 202.190907 
L 84.690739 192.191392 
L 85.77654 198.320127 
L 86.862341 189.395828 
L 87.948142 186.2777 
L 89.033943 176.708271 
L 90.119745 181.761789 
L 91.205546 178.858704 
L 92.291347 173.912707 
L 93.377148 174.235272 
L 94.462949 173.912707 
L 95.54875 207.782034 
L 96.634552 197.459954 
L 97.720353 188.965741 
L 98.806154 193.051565 
L 99.891955 187.245395 
L 100.977756 187.890525 
L 102.063557 181.654268 
L 103.149358 187.460438 
L 104.23516 181.439224 
L 105.320961 179.181269 
L 106.406762 178.213574 
L 107.492563 165.74106 
L 108.578364 176.278184 
L 109.664165 165.526017 
L 110.749967 172.19236 
L 111.835768 171.762274 
L 112.921569 161.010107 
L 114.00737 166.816277 
L 115.093171 157.139326 
L 116.178972 160.58002 
L 117.264773 160.364976 
L 118.350575 148.967679 
L 119.436376 156.386675 
L 120.522177 150.472983 
L 121.607978 150.580504 
L 122.693779 147.892462 
L 123.77958 149.397766 
L 124.865382 146.064594 
L 125.951183 143.591596 
L 128.122785 145.742029 
L 129.208586 142.301335 
L 130.294387 140.150902 
L 131.380189 140.580989 
L 132.46599 141.33364 
L 133.551791 139.828337 
L 134.637592 137.355339 
L 135.723393 137.677904 
L 136.809194 139.075685 
L 137.894995 138.968164 
L 138.980797 168.106537 
L 140.066598 174.557837 
L 141.152399 161.22515 
L 142.2382 167.999015 
L 143.324001 163.590627 
L 144.409802 163.268062 
L 145.495604 161.655237 
L 146.581405 162.622932 
L 147.667206 160.257455 
L 148.753007 164.128235 
L 149.838808 161.655237 
L 150.924609 153.591111 
L 152.01041 160.795063 
L 153.096212 161.332672 
L 154.182013 156.70924 
L 155.267814 153.806154 
L 156.353615 152.515894 
L 157.439416 155.41898 
L 158.525217 156.279153 
L 159.611019 154.021198 
L 160.69682 155.634023 
L 161.782621 152.838459 
L 162.868422 154.988893 
L 163.954223 152.623416 
L 165.040024 149.827853 
L 166.125825 148.860158 
L 167.211627 146.387159 
L 168.297428 151.118113 
L 169.383229 147.677419 
L 170.46903 152.515894 
L 171.554831 143.484074 
L 172.640632 144.451769 
L 173.726434 139.290729 
L 174.812235 142.946466 
L 175.898036 139.935859 
L 176.983837 141.656205 
L 178.069638 141.871249 
L 179.155439 139.39825 
L 181.327042 138.430555 
L 182.412843 138.000469 
L 183.498644 140.04338 
L 184.584445 136.1726 
L 185.670246 134.344732 
L 186.756047 134.022167 
L 187.841849 133.914645 
L 188.92765 136.387644 
L 190.013451 135.634992 
L 191.099252 131.226603 
L 192.185053 131.871733 
L 193.270854 131.441647 
L 194.356656 131.65669 
L 195.442457 128.861126 
L 196.528258 128.646083 
L 197.614059 127.678388 
L 198.69986 128.861126 
L 199.785661 126.710693 
L 200.871462 129.613778 
L 203.043065 126.065563 
L 204.128866 121.979739 
L 205.214667 123.485043 
L 206.300468 124.667781 
L 207.386269 124.667781 
L 208.472071 123.700086 
L 209.557872 123.269999 
L 210.643673 122.087261 
L 211.729474 120.581958 
L 212.815275 121.119566 
L 213.901076 120.689479 
L 214.986877 121.657174 
L 216.072679 121.119566 
L 217.15848 121.549653 
L 219.330082 121.227088 
L 220.415883 120.689479 
L 221.501684 120.366914 
L 222.587486 121.872218 
L 223.673287 119.614263 
L 224.759088 120.366914 
L 225.844889 148.430071 
L 226.93069 150.257939 
L 228.016491 154.666328 
L 229.102292 149.720331 
L 230.188094 146.817246 
L 231.273895 147.677419 
L 232.359696 153.591111 
L 233.445497 156.816761 
L 234.531298 150.257939 
L 235.617099 148.967679 
L 236.702901 161.332672 
L 237.788702 148.860158 
L 238.874503 152.408373 
L 239.960304 148.645114 
L 241.046105 150.365461 
L 242.131906 147.677419 
L 243.217708 147.032289 
L 244.303509 143.699117 
L 245.38931 147.677419 
L 246.475111 153.483589 
L 247.560912 147.462376 
L 248.646713 148.322549 
L 249.732514 150.795548 
L 250.818316 144.129204 
L 252.989918 142.946466 
L 254.075719 145.849551 
L 255.16152 143.914161 
L 256.247321 147.139811 
L 257.333123 145.634507 
L 259.504725 138.860642 
L 260.590526 139.828337 
L 261.676327 141.763727 
L 262.762128 142.946466 
L 263.847929 144.451769 
L 264.933731 147.569897 
L 266.019532 142.086292 
L 267.105333 145.742029 
L 268.191134 150.580504 
L 269.276935 145.849551 
L 270.362736 142.408857 
L 271.448538 141.548684 
L 272.534339 148.860158 
L 273.62014 139.935859 
L 274.705941 141.011075 
L 275.791742 141.011075 
L 276.877543 138.323034 
L 277.963344 138.215512 
L 279.049146 141.871249 
L 280.134947 141.871249 
L 281.220748 138.75312 
L 282.306549 140.68851 
L 283.39235 133.699602 
L 284.478151 134.667297 
L 285.563953 131.979255 
L 286.649754 133.269515 
L 287.735555 138.000469 
L 288.821356 134.667297 
L 289.907157 132.30182 
L 290.992958 136.925252 
L 292.07876 134.022167 
L 293.164561 136.495165 
L 294.250362 133.914645 
L 295.336163 134.23721 
L 296.421964 136.387644 
L 297.507765 133.699602 
L 298.593566 135.204905 
L 299.679368 129.936343 
L 300.765169 135.742513 
L 301.85097 137.785425 
L 302.936771 127.033258 
L 304.022572 135.204905 
L 305.108373 129.506256 
L 306.194175 131.119082 
L 307.279976 132.516863 
L 308.365777 129.506256 
L 309.451578 130.151386 
L 310.537379 124.667781 
L 311.62318 131.334125 
L 312.708981 127.463345 
L 313.794783 127.893431 
L 314.880584 132.086777 
L 315.966385 127.355823 
L 317.052186 128.323518 
L 318.137987 124.990346 
L 319.223788 126.280606 
L 320.30959 123.269999 
L 321.395391 128.323518 
L 322.481192 123.700086 
L 323.566993 125.527955 
L 325.738595 124.990346 
L 326.824396 122.732391 
L 327.910198 124.882825 
L 328.995999 122.409826 
L 330.0818 121.549653 
L 331.167601 122.409826 
L 332.253402 123.700086 
L 333.339203 119.291698 
L 334.425005 124.667781 
L 335.510806 121.442131 
L 336.596607 121.227088 
L 337.682408 120.151871 
L 338.768209 118.539046 
L 339.85401 119.721784 
L 340.939811 118.646568 
L 342.025613 120.474436 
L 343.111414 117.033742 
L 344.197215 118.754089 
L 345.283016 121.012044 
L 346.368817 117.571351 
L 347.454618 119.936828 
L 348.54042 114.345701 
L 349.626221 115.528439 
L 350.712022 119.184176 
L 351.797823 115.743482 
L 352.883624 114.560744 
L 353.969425 114.345701 
L 355.055227 114.453222 
L 356.141028 114.130657 
L 357.226829 116.066047 
L 358.31263 113.055441 
L 359.398431 113.808092 
L 360.484232 113.915614 
L 361.570033 114.345701 
L 362.655835 116.603656 
L 363.741636 115.958526 
L 364.827437 113.055441 
L 365.913238 112.625354 
L 366.999039 113.485527 
L 368.08484 114.560744 
L 369.170642 110.905007 
L 370.256443 117.248786 
L 371.342244 114.560744 
L 373.513846 116.818699 
L 374.599647 119.076654 
L 375.685448 116.926221 
L 376.77125 118.539046 
L 377.857051 117.571351 
L 378.942852 116.818699 
L 380.028653 120.151871 
L 381.114454 122.732391 
L 382.200255 118.861611 
L 383.286057 114.453222 
L 384.371858 116.926221 
L 385.457659 118.861611 
L 386.54346 115.420917 
L 388.715062 116.388612 
L 389.800863 118.108959 
L 390.886665 116.173569 
L 391.972466 115.635961 
L 393.058267 115.958526 
L 394.144068 113.162962 
L 395.229869 114.883309 
L 396.31567 118.001437 
L 397.401472 118.861611 
L 398.487273 116.496134 
L 398.487273 116.496134 
" clip-path="url(#p54bf0335a9)" style="fill: none; stroke: #2ca02c; stroke-width: 1.5; stroke-linecap: square"/>
   </g>
   <g id="line2d_22">
    <path d="M 368.08484 62.267579 
L 369.170642 62.704117 
L 370.256443 62.423485 
M 372.428045 64.668537 
L 373.513846 64.48145 
L 374.599647 64.48145 
L 375.685448 62.392304 
L 376.77125 65.042713 
L 378.942852 63.421286 
L 380.028653 64.387906 
L 381.114454 63.421286 
L 382.200255 65.915789 
L 383.286057 64.356725 
L 384.371858 64.356725 
L 385.457659 64.855625 
L 386.54346 67.038315 
L 387.629261 67.693122 
L 388.715062 68.753286 
L 389.800863 66.539415 
L 390.886665 66.414689 
L 391.972466 65.978151 
L 394.144068 67.038315 
L 395.229869 68.254385 
L 396.31567 67.506034 
L 397.401472 70.748888 
L 398.487273 66.695321 
L 398.487273 66.695321 
" clip-path="url(#p54bf0335a9)" style="fill: none; stroke: #d62728; stroke-width: 1.5; stroke-linecap: square"/>
   </g>
   <g id="line2d_23">
    <path d="M 368.08484 114.345701 
L 369.170642 112.840397 
L 370.256443 113.485527 
L 371.342244 110.152355 
L 372.428045 112.840397 
L 373.513846 115.851004 
L 374.599647 116.711177 
L 375.685448 111.76518 
L 376.77125 114.990831 
L 377.857051 110.797485 
L 378.942852 111.550137 
L 380.028653 114.023136 
L 381.114454 110.367399 
L 382.200255 114.238179 
L 383.286057 112.625354 
L 384.371858 114.990831 
L 385.457659 114.668266 
L 386.54346 113.915614 
L 387.629261 117.893916 
L 388.715062 119.399219 
L 390.886665 112.410311 
L 391.972466 115.313396 
L 393.058267 113.485527 
L 394.144068 116.066047 
L 395.229869 119.291698 
L 396.31567 118.216481 
L 397.401472 116.926221 
L 398.487273 113.593049 
L 398.487273 113.593049 
" clip-path="url(#p54bf0335a9)" style="fill: none; stroke: #9467bd; stroke-width: 1.5; stroke-linecap: square"/>
   </g>
   <g id="patch_3">
    <path d="M 57.6 307.584 
L 57.6 41.472 
" style="fill: none; stroke: #000000; stroke-width: 0.8; stroke-linejoin: miter; stroke-linecap: square"/>
   </g>
   <g id="patch_4">
    <path d="M 414.72 307.584 
L 414.72 41.472 
" style="fill: none; stroke: #000000; stroke-width: 0.8; stroke-linejoin: miter; stroke-linecap: square"/>
   </g>
   <g id="patch_5">
    <path d="M 57.6 307.584 
L 414.72 307.584 
" style="fill: none; stroke: #000000; stroke-width: 0.8; stroke-linejoin: miter; stroke-linecap: square"/>
   </g>
   <g id="patch_6">
    <path d="M 57.6 41.472 
L 414.72 41.472 
" style="fill: none; stroke: #000000; stroke-width: 0.8; stroke-linejoin: miter; stroke-linecap: square"/>
   </g>
   <g id="text_21">
    <!-- Learning Curves -->
    <g transform="translate(187.37625 35.472) scale(0.12 -0.12)">
     <defs>
      <path id="DejaVuSans-4c" d="M 628 4666 
L 1259 4666 
L 1259 531 
L 3531 531 
L 3531 0 
L 628 0 
L 628 4666 
z
" transform="scale(0.015625)"/>
      <path id="DejaVuSans-65" d="M 3597 1894 
L 3597 1613 
L 953 1613 
Q 991 1019 1311 708 
Q 1631 397 2203 397 
Q 2534 397 2845 478 
Q 3156 559 3463 722 
L 3463 178 
Q 3153 47 2828 -22 
Q 2503 -91 2169 -91 
Q 1331 -91 842 396 
Q 353 884 353 1716 
Q 353 2575 817 3079 
Q 1281 3584 2069 3584 
Q 2775 3584 3186 3129 
Q 3597 2675 3597 1894 
z
M 3022 2063 
Q 3016 2534 2758 2815 
Q 2500 3097 2075 3097 
Q 1594 3097 1305 2825 
Q 1016 2553 972 2059 
L 3022 2063 
z
" transform="scale(0.015625)"/>
      <path id="DejaVuSans-6e" d="M 3513 2113 
L 3513 0 
L 2938 0 
L 2938 2094 
Q 2938 2591 2744 2837 
Q 2550 3084 2163 3084 
Q 1697 3084 1428 2787 
Q 1159 2491 1159 1978 
L 1159 0 
L 581 0 
L 581 3500 
L 1159 3500 
L 1159 2956 
Q 1366 3272 1645 3428 
Q 1925 3584 2291 3584 
Q 2894 3584 3203 3211 
Q 3513 2838 3513 2113 
z
" transform="scale(0.015625)"/>
      <path id="DejaVuSans-69" d="M 603 3500 
L 1178 3500 
L 1178 0 
L 603 0 
L 603 3500 
z
M 603 4863 
L 1178 4863 
L 1178 4134 
L 603 4134 
L 603 4863 
z
" transform="scale(0.015625)"/>
      <path id="DejaVuSans-67" d="M 2906 1791 
Q 2906 2416 2648 2759 
Q 2391 3103 1925 3103 
Q 1463 3103 1205 2759 
Q 947 2416 947 1791 
Q 947 1169 1205 825 
Q 1463 481 1925 481 
Q 2391 481 2648 825 
Q 2906 1169 2906 1791 
z
M 3481 434 
Q 3481 -459 3084 -895 
Q 2688 -1331 1869 -1331 
Q 1566 -1331 1297 -1286 
Q 1028 -1241 775 -1147 
L 775 -588 
Q 1028 -725 1275 -790 
Q 1522 -856 1778 -856 
Q 2344 -856 2625 -561 
Q 2906 -266 2906 331 
L 2906 616 
Q 2728 306 2450 153 
Q 2172 0 1784 0 
Q 1141 0 747 490 
Q 353 981 353 1791 
Q 353 2603 747 3093 
Q 1141 3584 1784 3584 
Q 2172 3584 2450 3431 
Q 2728 3278 2906 2969 
L 2906 3500 
L 3481 3500 
L 3481 434 
z
" transform="scale(0.015625)"/>
      <path id="DejaVuSans-20" transform="scale(0.015625)"/>
      <path id="DejaVuSans-43" d="M 4122 4306 
L 4122 3641 
Q 3803 3938 3442 4084 
Q 3081 4231 2675 4231 
Q 1875 4231 1450 3742 
Q 1025 3253 1025 2328 
Q 1025 1406 1450 917 
Q 1875 428 2675 428 
Q 3081 428 3442 575 
Q 3803 722 4122 1019 
L 4122 359 
Q 3791 134 3420 21 
Q 3050 -91 2638 -91 
Q 1578 -91 968 557 
Q 359 1206 359 2328 
Q 359 3453 968 4101 
Q 1578 4750 2638 4750 
Q 3056 4750 3426 4639 
Q 3797 4528 4122 4306 
z
" transform="scale(0.015625)"/>
      <path id="DejaVuSans-76" d="M 191 3500 
L 800 3500 
L 1894 563 
L 2988 3500 
L 3597 3500 
L 2284 0 
L 1503 0 
L 191 3500 
z
" transform="scale(0.015625)"/>
     </defs>
     <use xlink:href="#DejaVuSans-4c"/>
     <use xlink:href="#DejaVuSans-65" x="53.962891"/>
     <use xlink:href="#DejaVuSans-61" x="115.486328"/>
     <use xlink:href="#DejaVuSans-72" x="176.765625"/>
     <use xlink:href="#DejaVuSans-6e" x="216.128906"/>
     <use xlink:href="#DejaVuSans-69" x="279.507812"/>
     <use xlink:href="#DejaVuSans-6e" x="307.291016"/>
     <use xlink:href="#DejaVuSans-67" x="370.669922"/>
     <use xlink:href="#DejaVuSans-20" x="434.146484"/>
     <use xlink:href="#DejaVuSans-43" x="465.933594"/>
     <use xlink:href="#DejaVuSans-75" x="535.757812"/>
     <use xlink:href="#DejaVuSans-72" x="599.136719"/>
     <use xlink:href="#DejaVuSans-76" x="640.25"/>
     <use xlink:href="#DejaVuSans-65" x="699.429688"/>
     <use xlink:href="#DejaVuSans-73" x="760.953125"/>
    </g>
   </g>
   <g id="legend_1">
    <g id="patch_7">
     <path d="M 214.18875 302.584 
L 407.72 302.584 
Q 409.72 302.584 409.72 300.584 
L 409.72 228.193375 
Q 409.72 226.193375 407.72 226.193375 
L 214.18875 226.193375 
Q 212.18875 226.193375 212.18875 228.193375 
L 212.18875 300.584 
Q 212.18875 302.584 214.18875 302.584 
z
" style="fill: #ffffff; opacity: 0.8; stroke: #cccccc; stroke-linejoin: miter"/>
    </g>
    <g id="line2d_24">
     <path d="M 216.18875 234.291812 
L 226.18875 234.291812 
L 236.18875 234.291812 
" style="fill: none; stroke: #1f77b4; stroke-width: 1.5; stroke-linecap: square"/>
    </g>
    <g id="text_22">
     <!-- Train Accuracy -->
     <g transform="translate(244.18875 237.791812) scale(0.1 -0.1)">
      <defs>
       <path id="DejaVuSans-54" d="M -19 4666 
L 3928 4666 
L 3928 4134 
L 2272 4134 
L 2272 0 
L 1638 0 
L 1638 4134 
L -19 4134 
L -19 4666 
z
" transform="scale(0.015625)"/>
      </defs>
      <use xlink:href="#DejaVuSans-54"/>
      <use xlink:href="#DejaVuSans-72" x="46.333984"/>
      <use xlink:href="#DejaVuSans-61" x="87.447266"/>
      <use xlink:href="#DejaVuSans-69" x="148.726562"/>
      <use xlink:href="#DejaVuSans-6e" x="176.509766"/>
      <use xlink:href="#DejaVuSans-20" x="239.888672"/>
      <use xlink:href="#DejaVuSans-41" x="271.675781"/>
      <use xlink:href="#DejaVuSans-63" x="338.333984"/>
      <use xlink:href="#DejaVuSans-63" x="393.314453"/>
      <use xlink:href="#DejaVuSans-75" x="448.294922"/>
      <use xlink:href="#DejaVuSans-72" x="511.673828"/>
      <use xlink:href="#DejaVuSans-61" x="552.787109"/>
      <use xlink:href="#DejaVuSans-63" x="614.066406"/>
      <use xlink:href="#DejaVuSans-79" x="669.046875"/>
     </g>
    </g>
    <g id="line2d_25">
     <path d="M 216.18875 248.969937 
L 226.18875 248.969937 
L 236.18875 248.969937 
" style="fill: none; stroke: #ff7f0e; stroke-width: 1.5; stroke-linecap: square"/>
    </g>
    <g id="text_23">
     <!-- Validation Accuracy -->
     <g transform="translate(244.18875 252.469937) scale(0.1 -0.1)">
      <defs>
       <path id="DejaVuSans-56" d="M 1831 0 
L 50 4666 
L 709 4666 
L 2188 738 
L 3669 4666 
L 4325 4666 
L 2547 0 
L 1831 0 
z
" transform="scale(0.015625)"/>
       <path id="DejaVuSans-6c" d="M 603 4863 
L 1178 4863 
L 1178 0 
L 603 0 
L 603 4863 
z
" transform="scale(0.015625)"/>
       <path id="DejaVuSans-64" d="M 2906 2969 
L 2906 4863 
L 3481 4863 
L 3481 0 
L 2906 0 
L 2906 525 
Q 2725 213 2448 61 
Q 2172 -91 1784 -91 
Q 1150 -91 751 415 
Q 353 922 353 1747 
Q 353 2572 751 3078 
Q 1150 3584 1784 3584 
Q 2172 3584 2448 3432 
Q 2725 3281 2906 2969 
z
M 947 1747 
Q 947 1113 1208 752 
Q 1469 391 1925 391 
Q 2381 391 2643 752 
Q 2906 1113 2906 1747 
Q 2906 2381 2643 2742 
Q 2381 3103 1925 3103 
Q 1469 3103 1208 2742 
Q 947 2381 947 1747 
z
" transform="scale(0.015625)"/>
       <path id="DejaVuSans-74" d="M 1172 4494 
L 1172 3500 
L 2356 3500 
L 2356 3053 
L 1172 3053 
L 1172 1153 
Q 1172 725 1289 603 
Q 1406 481 1766 481 
L 2356 481 
L 2356 0 
L 1766 0 
Q 1100 0 847 248 
Q 594 497 594 1153 
L 594 3053 
L 172 3053 
L 172 3500 
L 594 3500 
L 594 4494 
L 1172 4494 
z
" transform="scale(0.015625)"/>
      </defs>
      <use xlink:href="#DejaVuSans-56"/>
      <use xlink:href="#DejaVuSans-61" x="60.658203"/>
      <use xlink:href="#DejaVuSans-6c" x="121.9375"/>
      <use xlink:href="#DejaVuSans-69" x="149.720703"/>
      <use xlink:href="#DejaVuSans-64" x="177.503906"/>
      <use xlink:href="#DejaVuSans-61" x="240.980469"/>
      <use xlink:href="#DejaVuSans-74" x="302.259766"/>
      <use xlink:href="#DejaVuSans-69" x="341.46875"/>
      <use xlink:href="#DejaVuSans-6f" x="369.251953"/>
      <use xlink:href="#DejaVuSans-6e" x="430.433594"/>
      <use xlink:href="#DejaVuSans-20" x="493.8125"/>
      <use xlink:href="#DejaVuSans-41" x="525.599609"/>
      <use xlink:href="#DejaVuSans-63" x="592.257812"/>
      <use xlink:href="#DejaVuSans-63" x="647.238281"/>
      <use xlink:href="#DejaVuSans-75" x="702.21875"/>
      <use xlink:href="#DejaVuSans-72" x="765.597656"/>
      <use xlink:href="#DejaVuSans-61" x="806.710938"/>
      <use xlink:href="#DejaVuSans-63" x="867.990234"/>
      <use xlink:href="#DejaVuSans-79" x="922.970703"/>
     </g>
    </g>
    <g id="line2d_26">
     <path d="M 216.18875 263.648062 
L 226.18875 263.648062 
L 236.18875 263.648062 
" style="fill: none; stroke: #2ca02c; stroke-width: 1.5; stroke-linecap: square"/>
    </g>
    <g id="text_24">
     <!-- Robust Validation Accuracy -->
     <g transform="translate(244.18875 267.148062) scale(0.1 -0.1)">
      <defs>
       <path id="DejaVuSans-52" d="M 2841 2188 
Q 3044 2119 3236 1894 
Q 3428 1669 3622 1275 
L 4263 0 
L 3584 0 
L 2988 1197 
Q 2756 1666 2539 1819 
Q 2322 1972 1947 1972 
L 1259 1972 
L 1259 0 
L 628 0 
L 628 4666 
L 2053 4666 
Q 2853 4666 3247 4331 
Q 3641 3997 3641 3322 
Q 3641 2881 3436 2590 
Q 3231 2300 2841 2188 
z
M 1259 4147 
L 1259 2491 
L 2053 2491 
Q 2509 2491 2742 2702 
Q 2975 2913 2975 3322 
Q 2975 3731 2742 3939 
Q 2509 4147 2053 4147 
L 1259 4147 
z
" transform="scale(0.015625)"/>
       <path id="DejaVuSans-62" d="M 3116 1747 
Q 3116 2381 2855 2742 
Q 2594 3103 2138 3103 
Q 1681 3103 1420 2742 
Q 1159 2381 1159 1747 
Q 1159 1113 1420 752 
Q 1681 391 2138 391 
Q 2594 391 2855 752 
Q 3116 1113 3116 1747 
z
M 1159 2969 
Q 1341 3281 1617 3432 
Q 1894 3584 2278 3584 
Q 2916 3584 3314 3078 
Q 3713 2572 3713 1747 
Q 3713 922 3314 415 
Q 2916 -91 2278 -91 
Q 1894 -91 1617 61 
Q 1341 213 1159 525 
L 1159 0 
L 581 0 
L 581 4863 
L 1159 4863 
L 1159 2969 
z
" transform="scale(0.015625)"/>
      </defs>
      <use xlink:href="#DejaVuSans-52"/>
      <use xlink:href="#DejaVuSans-6f" x="64.982422"/>
      <use xlink:href="#DejaVuSans-62" x="126.164062"/>
      <use xlink:href="#DejaVuSans-75" x="189.640625"/>
      <use xlink:href="#DejaVuSans-73" x="253.019531"/>
      <use xlink:href="#DejaVuSans-74" x="305.119141"/>
      <use xlink:href="#DejaVuSans-20" x="344.328125"/>
      <use xlink:href="#DejaVuSans-56" x="376.115234"/>
      <use xlink:href="#DejaVuSans-61" x="436.773438"/>
      <use xlink:href="#DejaVuSans-6c" x="498.052734"/>
      <use xlink:href="#DejaVuSans-69" x="525.835938"/>
      <use xlink:href="#DejaVuSans-64" x="553.619141"/>
      <use xlink:href="#DejaVuSans-61" x="617.095703"/>
      <use xlink:href="#DejaVuSans-74" x="678.375"/>
      <use xlink:href="#DejaVuSans-69" x="717.583984"/>
      <use xlink:href="#DejaVuSans-6f" x="745.367188"/>
      <use xlink:href="#DejaVuSans-6e" x="806.548828"/>
      <use xlink:href="#DejaVuSans-20" x="869.927734"/>
      <use xlink:href="#DejaVuSans-41" x="901.714844"/>
      <use xlink:href="#DejaVuSans-63" x="968.373047"/>
      <use xlink:href="#DejaVuSans-63" x="1023.353516"/>
      <use xlink:href="#DejaVuSans-75" x="1078.333984"/>
      <use xlink:href="#DejaVuSans-72" x="1141.712891"/>
      <use xlink:href="#DejaVuSans-61" x="1182.826172"/>
      <use xlink:href="#DejaVuSans-63" x="1244.105469"/>
      <use xlink:href="#DejaVuSans-79" x="1299.085938"/>
     </g>
    </g>
    <g id="line2d_27">
     <path d="M 216.18875 278.326188 
L 226.18875 278.326188 
L 236.18875 278.326188 
" style="fill: none; stroke: #d62728; stroke-width: 1.5; stroke-linecap: square"/>
    </g>
    <g id="text_25">
     <!-- SWA Validation Accuracy -->
     <g transform="translate(244.18875 281.826188) scale(0.1 -0.1)">
      <defs>
       <path id="DejaVuSans-53" d="M 3425 4513 
L 3425 3897 
Q 3066 4069 2747 4153 
Q 2428 4238 2131 4238 
Q 1616 4238 1336 4038 
Q 1056 3838 1056 3469 
Q 1056 3159 1242 3001 
Q 1428 2844 1947 2747 
L 2328 2669 
Q 3034 2534 3370 2195 
Q 3706 1856 3706 1288 
Q 3706 609 3251 259 
Q 2797 -91 1919 -91 
Q 1588 -91 1214 -16 
Q 841 59 441 206 
L 441 856 
Q 825 641 1194 531 
Q 1563 422 1919 422 
Q 2459 422 2753 634 
Q 3047 847 3047 1241 
Q 3047 1584 2836 1778 
Q 2625 1972 2144 2069 
L 1759 2144 
Q 1053 2284 737 2584 
Q 422 2884 422 3419 
Q 422 4038 858 4394 
Q 1294 4750 2059 4750 
Q 2388 4750 2728 4690 
Q 3069 4631 3425 4513 
z
" transform="scale(0.015625)"/>
       <path id="DejaVuSans-57" d="M 213 4666 
L 850 4666 
L 1831 722 
L 2809 4666 
L 3519 4666 
L 4500 722 
L 5478 4666 
L 6119 4666 
L 4947 0 
L 4153 0 
L 3169 4050 
L 2175 0 
L 1381 0 
L 213 4666 
z
" transform="scale(0.015625)"/>
      </defs>
      <use xlink:href="#DejaVuSans-53"/>
      <use xlink:href="#DejaVuSans-57" x="63.476562"/>
      <use xlink:href="#DejaVuSans-41" x="156.853516"/>
      <use xlink:href="#DejaVuSans-20" x="225.261719"/>
      <use xlink:href="#DejaVuSans-56" x="257.048828"/>
      <use xlink:href="#DejaVuSans-61" x="317.707031"/>
      <use xlink:href="#DejaVuSans-6c" x="378.986328"/>
      <use xlink:href="#DejaVuSans-69" x="406.769531"/>
      <use xlink:href="#DejaVuSans-64" x="434.552734"/>
      <use xlink:href="#DejaVuSans-61" x="498.029297"/>
      <use xlink:href="#DejaVuSans-74" x="559.308594"/>
      <use xlink:href="#DejaVuSans-69" x="598.517578"/>
      <use xlink:href="#DejaVuSans-6f" x="626.300781"/>
      <use xlink:href="#DejaVuSans-6e" x="687.482422"/>
      <use xlink:href="#DejaVuSans-20" x="750.861328"/>
      <use xlink:href="#DejaVuSans-41" x="782.648438"/>
      <use xlink:href="#DejaVuSans-63" x="849.306641"/>
      <use xlink:href="#DejaVuSans-63" x="904.287109"/>
      <use xlink:href="#DejaVuSans-75" x="959.267578"/>
      <use xlink:href="#DejaVuSans-72" x="1022.646484"/>
      <use xlink:href="#DejaVuSans-61" x="1063.759766"/>
      <use xlink:href="#DejaVuSans-63" x="1125.039062"/>
      <use xlink:href="#DejaVuSans-79" x="1180.019531"/>
     </g>
    </g>
    <g id="line2d_28">
     <path d="M 216.18875 293.004312 
L 226.18875 293.004312 
L 236.18875 293.004312 
" style="fill: none; stroke: #9467bd; stroke-width: 1.5; stroke-linecap: square"/>
    </g>
    <g id="text_26">
     <!-- SWA Robust Validation Accuracy -->
     <g transform="translate(244.18875 296.504312) scale(0.1 -0.1)">
      <use xlink:href="#DejaVuSans-53"/>
      <use xlink:href="#DejaVuSans-57" x="63.476562"/>
      <use xlink:href="#DejaVuSans-41" x="156.853516"/>
      <use xlink:href="#DejaVuSans-20" x="225.261719"/>
      <use xlink:href="#DejaVuSans-52" x="257.048828"/>
      <use xlink:href="#DejaVuSans-6f" x="322.03125"/>
      <use xlink:href="#DejaVuSans-62" x="383.212891"/>
      <use xlink:href="#DejaVuSans-75" x="446.689453"/>
      <use xlink:href="#DejaVuSans-73" x="510.068359"/>
      <use xlink:href="#DejaVuSans-74" x="562.167969"/>
      <use xlink:href="#DejaVuSans-20" x="601.376953"/>
      <use xlink:href="#DejaVuSans-56" x="633.164062"/>
      <use xlink:href="#DejaVuSans-61" x="693.822266"/>
      <use xlink:href="#DejaVuSans-6c" x="755.101562"/>
      <use xlink:href="#DejaVuSans-69" x="782.884766"/>
      <use xlink:href="#DejaVuSans-64" x="810.667969"/>
      <use xlink:href="#DejaVuSans-61" x="874.144531"/>
      <use xlink:href="#DejaVuSans-74" x="935.423828"/>
      <use xlink:href="#DejaVuSans-69" x="974.632812"/>
      <use xlink:href="#DejaVuSans-6f" x="1002.416016"/>
      <use xlink:href="#DejaVuSans-6e" x="1063.597656"/>
      <use xlink:href="#DejaVuSans-20" x="1126.976562"/>
      <use xlink:href="#DejaVuSans-41" x="1158.763672"/>
      <use xlink:href="#DejaVuSans-63" x="1225.421875"/>
      <use xlink:href="#DejaVuSans-63" x="1280.402344"/>
      <use xlink:href="#DejaVuSans-75" x="1335.382812"/>
      <use xlink:href="#DejaVuSans-72" x="1398.761719"/>
      <use xlink:href="#DejaVuSans-61" x="1439.875"/>
      <use xlink:href="#DejaVuSans-63" x="1501.154297"/>
      <use xlink:href="#DejaVuSans-79" x="1556.134766"/>
     </g>
    </g>
   </g>
  </g>
 </g>
 <defs>
  <clipPath id="p54bf0335a9">
   <rect x="57.6" y="41.472" width="357.12" height="266.112"/>
  </clipPath>
 </defs>
</svg>
