<?xml version="1.0" encoding="utf-8" standalone="no"?>
<!DOCTYPE svg PUBLIC "-//W3C//DTD SVG 1.1//EN"
  "http://www.w3.org/Graphics/SVG/1.1/DTD/svg11.dtd">
<svg xmlns:xlink="http://www.w3.org/1999/xlink" width="460.8pt" height="345.6pt" viewBox="0 0 460.8 345.6" xmlns="http://www.w3.org/2000/svg" version="1.1">
 <metadata>
  <rdf:RDF xmlns:dc="http://purl.org/dc/elements/1.1/" xmlns:cc="http://creativecommons.org/ns#" xmlns:rdf="http://www.w3.org/1999/02/22-rdf-syntax-ns#">
   <cc:Work>
    <dc:type rdf:resource="http://purl.org/dc/dcmitype/StillImage"/>
    <dc:date>2025-06-30T13:35:46.534607</dc:date>
    <dc:format>image/svg+xml</dc:format>
    <dc:creator>
     <cc:Agent>
      <dc:title>Matplotlib v3.9.1, https://matplotlib.org/</dc:title>
     </cc:Agent>
    </dc:creator>
   </cc:Work>
  </rdf:RDF>
 </metadata>
 <defs>
  <style type="text/css">*{stroke-linejoin: round; stroke-linecap: butt}</style>
 </defs>
 <g id="figure_1">
  <g id="patch_1">
   <path d="M 0 345.6 
L 460.8 345.6 
L 460.8 0 
L 0 0 
z
" style="fill: #ffffff"/>
  </g>
  <g id="axes_1">
   <g id="patch_2">
    <path d="M 57.6 307.584 
L 414.72 307.584 
L 414.72 41.472 
L 57.6 41.472 
z
" style="fill: #ffffff"/>
   </g>
   <g id="matplotlib.axis_1">
    <g id="xtick_1">
     <g id="line2d_1">
      <defs>
       <path id="m0765bde32d" d="M 0 0 
L 0 3.5 
" style="stroke: #000000; stroke-width: 0.8"/>
      </defs>
      <g>
       <use xlink:href="#m0765bde32d" x="73.832727" y="307.584" style="stroke: #000000; stroke-width: 0.8"/>
      </g>
     </g>
     <g id="text_1">
      <!-- 1 -->
      <g transform="translate(70.651477 322.182437) scale(0.1 -0.1)">
       <defs>
        <path id="DejaVuSans-31" d="M 794 531 
L 1825 531 
L 1825 4091 
L 703 3866 
L 703 4441 
L 1819 4666 
L 2450 4666 
L 2450 531 
L 3481 531 
L 3481 0 
L 794 0 
L 794 531 
z
" transform="scale(0.015625)"/>
       </defs>
       <use xlink:href="#DejaVuSans-31"/>
      </g>
     </g>
    </g>
    <g id="xtick_2">
     <g id="line2d_2">
      <g>
       <use xlink:href="#m0765bde32d" x="109.664165" y="307.584" style="stroke: #000000; stroke-width: 0.8"/>
      </g>
     </g>
     <g id="text_2">
      <!-- 34 -->
      <g transform="translate(103.301665 322.182437) scale(0.1 -0.1)">
       <defs>
        <path id="DejaVuSans-33" d="M 2597 2516 
Q 3050 2419 3304 2112 
Q 3559 1806 3559 1356 
Q 3559 666 3084 287 
Q 2609 -91 1734 -91 
Q 1441 -91 1130 -33 
Q 819 25 488 141 
L 488 750 
Q 750 597 1062 519 
Q 1375 441 1716 441 
Q 2309 441 2620 675 
Q 2931 909 2931 1356 
Q 2931 1769 2642 2001 
Q 2353 2234 1838 2234 
L 1294 2234 
L 1294 2753 
L 1863 2753 
Q 2328 2753 2575 2939 
Q 2822 3125 2822 3475 
Q 2822 3834 2567 4026 
Q 2313 4219 1838 4219 
Q 1578 4219 1281 4162 
Q 984 4106 628 3988 
L 628 4550 
Q 988 4650 1302 4700 
Q 1616 4750 1894 4750 
Q 2613 4750 3031 4423 
Q 3450 4097 3450 3541 
Q 3450 3153 3228 2886 
Q 3006 2619 2597 2516 
z
" transform="scale(0.015625)"/>
        <path id="DejaVuSans-34" d="M 2419 4116 
L 825 1625 
L 2419 1625 
L 2419 4116 
z
M 2253 4666 
L 3047 4666 
L 3047 1625 
L 3713 1625 
L 3713 1100 
L 3047 1100 
L 3047 0 
L 2419 0 
L 2419 1100 
L 313 1100 
L 313 1709 
L 2253 4666 
z
" transform="scale(0.015625)"/>
       </defs>
       <use xlink:href="#DejaVuSans-33"/>
       <use xlink:href="#DejaVuSans-34" x="63.623047"/>
      </g>
     </g>
    </g>
    <g id="xtick_3">
     <g id="line2d_3">
      <g>
       <use xlink:href="#m0765bde32d" x="145.495604" y="307.584" style="stroke: #000000; stroke-width: 0.8"/>
      </g>
     </g>
     <g id="text_3">
      <!-- 67 -->
      <g transform="translate(139.133104 322.182437) scale(0.1 -0.1)">
       <defs>
        <path id="DejaVuSans-36" d="M 2113 2584 
Q 1688 2584 1439 2293 
Q 1191 2003 1191 1497 
Q 1191 994 1439 701 
Q 1688 409 2113 409 
Q 2538 409 2786 701 
Q 3034 994 3034 1497 
Q 3034 2003 2786 2293 
Q 2538 2584 2113 2584 
z
M 3366 4563 
L 3366 3988 
Q 3128 4100 2886 4159 
Q 2644 4219 2406 4219 
Q 1781 4219 1451 3797 
Q 1122 3375 1075 2522 
Q 1259 2794 1537 2939 
Q 1816 3084 2150 3084 
Q 2853 3084 3261 2657 
Q 3669 2231 3669 1497 
Q 3669 778 3244 343 
Q 2819 -91 2113 -91 
Q 1303 -91 875 529 
Q 447 1150 447 2328 
Q 447 3434 972 4092 
Q 1497 4750 2381 4750 
Q 2619 4750 2861 4703 
Q 3103 4656 3366 4563 
z
" transform="scale(0.015625)"/>
        <path id="DejaVuSans-37" d="M 525 4666 
L 3525 4666 
L 3525 4397 
L 1831 0 
L 1172 0 
L 2766 4134 
L 525 4134 
L 525 4666 
z
" transform="scale(0.015625)"/>
       </defs>
       <use xlink:href="#DejaVuSans-36"/>
       <use xlink:href="#DejaVuSans-37" x="63.623047"/>
      </g>
     </g>
    </g>
    <g id="xtick_4">
     <g id="line2d_4">
      <g>
       <use xlink:href="#m0765bde32d" x="181.327042" y="307.584" style="stroke: #000000; stroke-width: 0.8"/>
      </g>
     </g>
     <g id="text_4">
      <!-- 100 -->
      <g transform="translate(171.783292 322.182437) scale(0.1 -0.1)">
       <defs>
        <path id="DejaVuSans-30" d="M 2034 4250 
Q 1547 4250 1301 3770 
Q 1056 3291 1056 2328 
Q 1056 1369 1301 889 
Q 1547 409 2034 409 
Q 2525 409 2770 889 
Q 3016 1369 3016 2328 
Q 3016 3291 2770 3770 
Q 2525 4250 2034 4250 
z
M 2034 4750 
Q 2819 4750 3233 4129 
Q 3647 3509 3647 2328 
Q 3647 1150 3233 529 
Q 2819 -91 2034 -91 
Q 1250 -91 836 529 
Q 422 1150 422 2328 
Q 422 3509 836 4129 
Q 1250 4750 2034 4750 
z
" transform="scale(0.015625)"/>
       </defs>
       <use xlink:href="#DejaVuSans-31"/>
       <use xlink:href="#DejaVuSans-30" x="63.623047"/>
       <use xlink:href="#DejaVuSans-30" x="127.246094"/>
      </g>
     </g>
    </g>
    <g id="xtick_5">
     <g id="line2d_5">
      <g>
       <use xlink:href="#m0765bde32d" x="217.15848" y="307.584" style="stroke: #000000; stroke-width: 0.8"/>
      </g>
     </g>
     <g id="text_5">
      <!-- 133 -->
      <g transform="translate(207.61473 322.182437) scale(0.1 -0.1)">
       <use xlink:href="#DejaVuSans-31"/>
       <use xlink:href="#DejaVuSans-33" x="63.623047"/>
       <use xlink:href="#DejaVuSans-33" x="127.246094"/>
      </g>
     </g>
    </g>
    <g id="xtick_6">
     <g id="line2d_6">
      <g>
       <use xlink:href="#m0765bde32d" x="254.075719" y="307.584" style="stroke: #000000; stroke-width: 0.8"/>
      </g>
     </g>
     <g id="text_6">
      <!-- 167 -->
      <g transform="translate(244.531969 322.182437) scale(0.1 -0.1)">
       <use xlink:href="#DejaVuSans-31"/>
       <use xlink:href="#DejaVuSans-36" x="63.623047"/>
       <use xlink:href="#DejaVuSans-37" x="127.246094"/>
      </g>
     </g>
    </g>
    <g id="xtick_7">
     <g id="line2d_7">
      <g>
       <use xlink:href="#m0765bde32d" x="289.907157" y="307.584" style="stroke: #000000; stroke-width: 0.8"/>
      </g>
     </g>
     <g id="text_7">
      <!-- 200 -->
      <g transform="translate(280.363407 322.182437) scale(0.1 -0.1)">
       <defs>
        <path id="DejaVuSans-32" d="M 1228 531 
L 3431 531 
L 3431 0 
L 469 0 
L 469 531 
Q 828 903 1448 1529 
Q 2069 2156 2228 2338 
Q 2531 2678 2651 2914 
Q 2772 3150 2772 3378 
Q 2772 3750 2511 3984 
Q 2250 4219 1831 4219 
Q 1534 4219 1204 4116 
Q 875 4013 500 3803 
L 500 4441 
Q 881 4594 1212 4672 
Q 1544 4750 1819 4750 
Q 2544 4750 2975 4387 
Q 3406 4025 3406 3419 
Q 3406 3131 3298 2873 
Q 3191 2616 2906 2266 
Q 2828 2175 2409 1742 
Q 1991 1309 1228 531 
z
" transform="scale(0.015625)"/>
       </defs>
       <use xlink:href="#DejaVuSans-32"/>
       <use xlink:href="#DejaVuSans-30" x="63.623047"/>
       <use xlink:href="#DejaVuSans-30" x="127.246094"/>
      </g>
     </g>
    </g>
    <g id="xtick_8">
     <g id="line2d_8">
      <g>
       <use xlink:href="#m0765bde32d" x="325.738595" y="307.584" style="stroke: #000000; stroke-width: 0.8"/>
      </g>
     </g>
     <g id="text_8">
      <!-- 233 -->
      <g transform="translate(316.194845 322.182437) scale(0.1 -0.1)">
       <use xlink:href="#DejaVuSans-32"/>
       <use xlink:href="#DejaVuSans-33" x="63.623047"/>
       <use xlink:href="#DejaVuSans-33" x="127.246094"/>
      </g>
     </g>
    </g>
    <g id="xtick_9">
     <g id="line2d_9">
      <g>
       <use xlink:href="#m0765bde32d" x="361.570033" y="307.584" style="stroke: #000000; stroke-width: 0.8"/>
      </g>
     </g>
     <g id="text_9">
      <!-- 266 -->
      <g transform="translate(352.026283 322.182437) scale(0.1 -0.1)">
       <use xlink:href="#DejaVuSans-32"/>
       <use xlink:href="#DejaVuSans-36" x="63.623047"/>
       <use xlink:href="#DejaVuSans-36" x="127.246094"/>
      </g>
     </g>
    </g>
    <g id="xtick_10">
     <g id="line2d_10">
      <g>
       <use xlink:href="#m0765bde32d" x="398.487273" y="307.584" style="stroke: #000000; stroke-width: 0.8"/>
      </g>
     </g>
     <g id="text_10">
      <!-- 300 -->
      <g transform="translate(388.943523 322.182437) scale(0.1 -0.1)">
       <use xlink:href="#DejaVuSans-33"/>
       <use xlink:href="#DejaVuSans-30" x="63.623047"/>
       <use xlink:href="#DejaVuSans-30" x="127.246094"/>
      </g>
     </g>
    </g>
    <g id="text_11">
     <!-- Epochs -->
     <g transform="translate(218.244375 335.860562) scale(0.1 -0.1)">
      <defs>
       <path id="DejaVuSans-45" d="M 628 4666 
L 3578 4666 
L 3578 4134 
L 1259 4134 
L 1259 2753 
L 3481 2753 
L 3481 2222 
L 1259 2222 
L 1259 531 
L 3634 531 
L 3634 0 
L 628 0 
L 628 4666 
z
" transform="scale(0.015625)"/>
       <path id="DejaVuSans-70" d="M 1159 525 
L 1159 -1331 
L 581 -1331 
L 581 3500 
L 1159 3500 
L 1159 2969 
Q 1341 3281 1617 3432 
Q 1894 3584 2278 3584 
Q 2916 3584 3314 3078 
Q 3713 2572 3713 1747 
Q 3713 922 3314 415 
Q 2916 -91 2278 -91 
Q 1894 -91 1617 61 
Q 1341 213 1159 525 
z
M 3116 1747 
Q 3116 2381 2855 2742 
Q 2594 3103 2138 3103 
Q 1681 3103 1420 2742 
Q 1159 2381 1159 1747 
Q 1159 1113 1420 752 
Q 1681 391 2138 391 
Q 2594 391 2855 752 
Q 3116 1113 3116 1747 
z
" transform="scale(0.015625)"/>
       <path id="DejaVuSans-6f" d="M 1959 3097 
Q 1497 3097 1228 2736 
Q 959 2375 959 1747 
Q 959 1119 1226 758 
Q 1494 397 1959 397 
Q 2419 397 2687 759 
Q 2956 1122 2956 1747 
Q 2956 2369 2687 2733 
Q 2419 3097 1959 3097 
z
M 1959 3584 
Q 2709 3584 3137 3096 
Q 3566 2609 3566 1747 
Q 3566 888 3137 398 
Q 2709 -91 1959 -91 
Q 1206 -91 779 398 
Q 353 888 353 1747 
Q 353 2609 779 3096 
Q 1206 3584 1959 3584 
z
" transform="scale(0.015625)"/>
       <path id="DejaVuSans-63" d="M 3122 3366 
L 3122 2828 
Q 2878 2963 2633 3030 
Q 2388 3097 2138 3097 
Q 1578 3097 1268 2742 
Q 959 2388 959 1747 
Q 959 1106 1268 751 
Q 1578 397 2138 397 
Q 2388 397 2633 464 
Q 2878 531 3122 666 
L 3122 134 
Q 2881 22 2623 -34 
Q 2366 -91 2075 -91 
Q 1284 -91 818 406 
Q 353 903 353 1747 
Q 353 2603 823 3093 
Q 1294 3584 2113 3584 
Q 2378 3584 2631 3529 
Q 2884 3475 3122 3366 
z
" transform="scale(0.015625)"/>
       <path id="DejaVuSans-68" d="M 3513 2113 
L 3513 0 
L 2938 0 
L 2938 2094 
Q 2938 2591 2744 2837 
Q 2550 3084 2163 3084 
Q 1697 3084 1428 2787 
Q 1159 2491 1159 1978 
L 1159 0 
L 581 0 
L 581 4863 
L 1159 4863 
L 1159 2956 
Q 1366 3272 1645 3428 
Q 1925 3584 2291 3584 
Q 2894 3584 3203 3211 
Q 3513 2838 3513 2113 
z
" transform="scale(0.015625)"/>
       <path id="DejaVuSans-73" d="M 2834 3397 
L 2834 2853 
Q 2591 2978 2328 3040 
Q 2066 3103 1784 3103 
Q 1356 3103 1142 2972 
Q 928 2841 928 2578 
Q 928 2378 1081 2264 
Q 1234 2150 1697 2047 
L 1894 2003 
Q 2506 1872 2764 1633 
Q 3022 1394 3022 966 
Q 3022 478 2636 193 
Q 2250 -91 1575 -91 
Q 1294 -91 989 -36 
Q 684 19 347 128 
L 347 722 
Q 666 556 975 473 
Q 1284 391 1588 391 
Q 1994 391 2212 530 
Q 2431 669 2431 922 
Q 2431 1156 2273 1281 
Q 2116 1406 1581 1522 
L 1381 1569 
Q 847 1681 609 1914 
Q 372 2147 372 2553 
Q 372 3047 722 3315 
Q 1072 3584 1716 3584 
Q 2034 3584 2315 3537 
Q 2597 3491 2834 3397 
z
" transform="scale(0.015625)"/>
      </defs>
      <use xlink:href="#DejaVuSans-45"/>
      <use xlink:href="#DejaVuSans-70" x="63.183594"/>
      <use xlink:href="#DejaVuSans-6f" x="126.660156"/>
      <use xlink:href="#DejaVuSans-63" x="187.841797"/>
      <use xlink:href="#DejaVuSans-68" x="242.822266"/>
      <use xlink:href="#DejaVuSans-73" x="306.201172"/>
     </g>
    </g>
   </g>
   <g id="matplotlib.axis_2">
    <g id="ytick_1">
     <g id="line2d_11">
      <defs>
       <path id="m71dbdd5847" d="M 0 0 
L -3.5 0 
" style="stroke: #000000; stroke-width: 0.8"/>
      </defs>
      <g>
       <use xlink:href="#m71dbdd5847" x="57.6" y="286.198692" style="stroke: #000000; stroke-width: 0.8"/>
      </g>
     </g>
     <g id="text_12">
      <!-- 10 -->
      <g transform="translate(37.875 289.997911) scale(0.1 -0.1)">
       <use xlink:href="#DejaVuSans-31"/>
       <use xlink:href="#DejaVuSans-30" x="63.623047"/>
      </g>
     </g>
    </g>
    <g id="ytick_2">
     <g id="line2d_12">
      <g>
       <use xlink:href="#m71dbdd5847" x="57.6" y="254.358734" style="stroke: #000000; stroke-width: 0.8"/>
      </g>
     </g>
     <g id="text_13">
      <!-- 20 -->
      <g transform="translate(37.875 258.157953) scale(0.1 -0.1)">
       <use xlink:href="#DejaVuSans-32"/>
       <use xlink:href="#DejaVuSans-30" x="63.623047"/>
      </g>
     </g>
    </g>
    <g id="ytick_3">
     <g id="line2d_13">
      <g>
       <use xlink:href="#m71dbdd5847" x="57.6" y="222.518777" style="stroke: #000000; stroke-width: 0.8"/>
      </g>
     </g>
     <g id="text_14">
      <!-- 30 -->
      <g transform="translate(37.875 226.317995) scale(0.1 -0.1)">
       <use xlink:href="#DejaVuSans-33"/>
       <use xlink:href="#DejaVuSans-30" x="63.623047"/>
      </g>
     </g>
    </g>
    <g id="ytick_4">
     <g id="line2d_14">
      <g>
       <use xlink:href="#m71dbdd5847" x="57.6" y="190.678819" style="stroke: #000000; stroke-width: 0.8"/>
      </g>
     </g>
     <g id="text_15">
      <!-- 40 -->
      <g transform="translate(37.875 194.478037) scale(0.1 -0.1)">
       <use xlink:href="#DejaVuSans-34"/>
       <use xlink:href="#DejaVuSans-30" x="63.623047"/>
      </g>
     </g>
    </g>
    <g id="ytick_5">
     <g id="line2d_15">
      <g>
       <use xlink:href="#m71dbdd5847" x="57.6" y="158.838861" style="stroke: #000000; stroke-width: 0.8"/>
      </g>
     </g>
     <g id="text_16">
      <!-- 50 -->
      <g transform="translate(37.875 162.63808) scale(0.1 -0.1)">
       <defs>
        <path id="DejaVuSans-35" d="M 691 4666 
L 3169 4666 
L 3169 4134 
L 1269 4134 
L 1269 2991 
Q 1406 3038 1543 3061 
Q 1681 3084 1819 3084 
Q 2600 3084 3056 2656 
Q 3513 2228 3513 1497 
Q 3513 744 3044 326 
Q 2575 -91 1722 -91 
Q 1428 -91 1123 -41 
Q 819 9 494 109 
L 494 744 
Q 775 591 1075 516 
Q 1375 441 1709 441 
Q 2250 441 2565 725 
Q 2881 1009 2881 1497 
Q 2881 1984 2565 2268 
Q 2250 2553 1709 2553 
Q 1456 2553 1204 2497 
Q 953 2441 691 2322 
L 691 4666 
z
" transform="scale(0.015625)"/>
       </defs>
       <use xlink:href="#DejaVuSans-35"/>
       <use xlink:href="#DejaVuSans-30" x="63.623047"/>
      </g>
     </g>
    </g>
    <g id="ytick_6">
     <g id="line2d_16">
      <g>
       <use xlink:href="#m71dbdd5847" x="57.6" y="126.998903" style="stroke: #000000; stroke-width: 0.8"/>
      </g>
     </g>
     <g id="text_17">
      <!-- 60 -->
      <g transform="translate(37.875 130.798122) scale(0.1 -0.1)">
       <use xlink:href="#DejaVuSans-36"/>
       <use xlink:href="#DejaVuSans-30" x="63.623047"/>
      </g>
     </g>
    </g>
    <g id="ytick_7">
     <g id="line2d_17">
      <g>
       <use xlink:href="#m71dbdd5847" x="57.6" y="95.158945" style="stroke: #000000; stroke-width: 0.8"/>
      </g>
     </g>
     <g id="text_18">
      <!-- 70 -->
      <g transform="translate(37.875 98.958164) scale(0.1 -0.1)">
       <use xlink:href="#DejaVuSans-37"/>
       <use xlink:href="#DejaVuSans-30" x="63.623047"/>
      </g>
     </g>
    </g>
    <g id="ytick_8">
     <g id="line2d_18">
      <g>
       <use xlink:href="#m71dbdd5847" x="57.6" y="63.318987" style="stroke: #000000; stroke-width: 0.8"/>
      </g>
     </g>
     <g id="text_19">
      <!-- 80 -->
      <g transform="translate(37.875 67.118206) scale(0.1 -0.1)">
       <defs>
        <path id="DejaVuSans-38" d="M 2034 2216 
Q 1584 2216 1326 1975 
Q 1069 1734 1069 1313 
Q 1069 891 1326 650 
Q 1584 409 2034 409 
Q 2484 409 2743 651 
Q 3003 894 3003 1313 
Q 3003 1734 2745 1975 
Q 2488 2216 2034 2216 
z
M 1403 2484 
Q 997 2584 770 2862 
Q 544 3141 544 3541 
Q 544 4100 942 4425 
Q 1341 4750 2034 4750 
Q 2731 4750 3128 4425 
Q 3525 4100 3525 3541 
Q 3525 3141 3298 2862 
Q 3072 2584 2669 2484 
Q 3125 2378 3379 2068 
Q 3634 1759 3634 1313 
Q 3634 634 3220 271 
Q 2806 -91 2034 -91 
Q 1263 -91 848 271 
Q 434 634 434 1313 
Q 434 1759 690 2068 
Q 947 2378 1403 2484 
z
M 1172 3481 
Q 1172 3119 1398 2916 
Q 1625 2713 2034 2713 
Q 2441 2713 2670 2916 
Q 2900 3119 2900 3481 
Q 2900 3844 2670 4047 
Q 2441 4250 2034 4250 
Q 1625 4250 1398 4047 
Q 1172 3844 1172 3481 
z
" transform="scale(0.015625)"/>
       </defs>
       <use xlink:href="#DejaVuSans-38"/>
       <use xlink:href="#DejaVuSans-30" x="63.623047"/>
      </g>
     </g>
    </g>
    <g id="text_20">
     <!-- Accuracy -->
     <g transform="translate(31.795312 197.356125) rotate(-90) scale(0.1 -0.1)">
      <defs>
       <path id="DejaVuSans-41" d="M 2188 4044 
L 1331 1722 
L 3047 1722 
L 2188 4044 
z
M 1831 4666 
L 2547 4666 
L 4325 0 
L 3669 0 
L 3244 1197 
L 1141 1197 
L 716 0 
L 50 0 
L 1831 4666 
z
" transform="scale(0.015625)"/>
       <path id="DejaVuSans-75" d="M 544 1381 
L 544 3500 
L 1119 3500 
L 1119 1403 
Q 1119 906 1312 657 
Q 1506 409 1894 409 
Q 2359 409 2629 706 
Q 2900 1003 2900 1516 
L 2900 3500 
L 3475 3500 
L 3475 0 
L 2900 0 
L 2900 538 
Q 2691 219 2414 64 
Q 2138 -91 1772 -91 
Q 1169 -91 856 284 
Q 544 659 544 1381 
z
M 1991 3584 
L 1991 3584 
z
" transform="scale(0.015625)"/>
       <path id="DejaVuSans-72" d="M 2631 2963 
Q 2534 3019 2420 3045 
Q 2306 3072 2169 3072 
Q 1681 3072 1420 2755 
Q 1159 2438 1159 1844 
L 1159 0 
L 581 0 
L 581 3500 
L 1159 3500 
L 1159 2956 
Q 1341 3275 1631 3429 
Q 1922 3584 2338 3584 
Q 2397 3584 2469 3576 
Q 2541 3569 2628 3553 
L 2631 2963 
z
" transform="scale(0.015625)"/>
       <path id="DejaVuSans-61" d="M 2194 1759 
Q 1497 1759 1228 1600 
Q 959 1441 959 1056 
Q 959 750 1161 570 
Q 1363 391 1709 391 
Q 2188 391 2477 730 
Q 2766 1069 2766 1631 
L 2766 1759 
L 2194 1759 
z
M 3341 1997 
L 3341 0 
L 2766 0 
L 2766 531 
Q 2569 213 2275 61 
Q 1981 -91 1556 -91 
Q 1019 -91 701 211 
Q 384 513 384 1019 
Q 384 1609 779 1909 
Q 1175 2209 1959 2209 
L 2766 2209 
L 2766 2266 
Q 2766 2663 2505 2880 
Q 2244 3097 1772 3097 
Q 1472 3097 1187 3025 
Q 903 2953 641 2809 
L 641 3341 
Q 956 3463 1253 3523 
Q 1550 3584 1831 3584 
Q 2591 3584 2966 3190 
Q 3341 2797 3341 1997 
z
" transform="scale(0.015625)"/>
       <path id="DejaVuSans-79" d="M 2059 -325 
Q 1816 -950 1584 -1140 
Q 1353 -1331 966 -1331 
L 506 -1331 
L 506 -850 
L 844 -850 
Q 1081 -850 1212 -737 
Q 1344 -625 1503 -206 
L 1606 56 
L 191 3500 
L 800 3500 
L 1894 763 
L 2988 3500 
L 3597 3500 
L 2059 -325 
z
" transform="scale(0.015625)"/>
      </defs>
      <use xlink:href="#DejaVuSans-41"/>
      <use xlink:href="#DejaVuSans-63" x="66.658203"/>
      <use xlink:href="#DejaVuSans-63" x="121.638672"/>
      <use xlink:href="#DejaVuSans-75" x="176.619141"/>
      <use xlink:href="#DejaVuSans-72" x="239.998047"/>
      <use xlink:href="#DejaVuSans-61" x="281.111328"/>
      <use xlink:href="#DejaVuSans-63" x="342.390625"/>
      <use xlink:href="#DejaVuSans-79" x="397.371094"/>
     </g>
    </g>
   </g>
   <g id="line2d_19">
    <path d="M 73.832727 295.488 
L 77.090131 224.572454 
L 79.261733 191.212138 
L 80.347534 183.084989 
L 81.433335 172.147963 
L 82.519137 166.297371 
L 83.604938 158.520461 
L 84.690739 152.13655 
L 85.77654 146.835197 
L 86.862341 142.576602 
L 87.948142 137.545889 
L 90.119745 129.1481 
L 91.205546 127.333222 
L 92.291347 123.615907 
L 93.377148 123.846747 
L 94.462949 123.679587 
L 95.54875 151.245031 
L 96.634552 151.125631 
L 97.720353 146.198397 
L 98.806154 142.019403 
L 99.891955 140.069206 
L 100.977756 136.84541 
L 103.149358 133.844494 
L 104.23516 130.978898 
L 105.320961 127.595902 
L 106.406762 127.070543 
L 109.664165 119.015033 
L 110.749967 117.001156 
L 112.921569 113.78532 
L 114.00737 110.434165 
L 115.093171 110.306805 
L 116.178972 108.651127 
L 117.264773 107.512849 
L 118.350575 105.029332 
L 120.522177 101.725936 
L 121.607978 101.184657 
L 122.693779 98.056381 
L 123.77958 98.93198 
L 124.865382 95.453465 
L 125.951183 94.084346 
L 127.036984 92.197829 
L 128.122785 91.847589 
L 129.208586 89.284473 
L 130.294387 88.989953 
L 131.380189 87.493475 
L 132.46599 86.753196 
L 133.551791 86.705436 
L 134.637592 85.750237 
L 135.723393 85.392038 
L 136.809194 85.630838 
L 137.894995 86.609916 
L 138.980797 111.453043 
L 140.066598 115.440998 
L 142.2382 113.180361 
L 143.324001 113.005241 
L 144.409802 112.161482 
L 145.495604 110.768484 
L 146.581405 112.145563 
L 147.667206 109.526726 
L 148.753007 107.815328 
L 149.838808 108.667047 
L 150.924609 108.229248 
L 152.01041 107.075049 
L 153.096212 106.85217 
L 154.182013 104.798492 
L 156.353615 104.177613 
L 157.439416 102.601535 
L 158.525217 100.436418 
L 159.611019 101.097097 
L 160.69682 100.547858 
L 161.782621 99.17078 
L 162.868422 99.624499 
L 163.954223 97.475302 
L 165.040024 96.782783 
L 166.125825 97.284262 
L 167.211627 96.464383 
L 168.297428 95.453465 
L 169.383229 94.928105 
L 170.46903 92.635628 
L 171.554831 92.540108 
L 172.640632 90.876471 
L 173.726434 91.68043 
L 174.812235 91.42571 
L 175.898036 88.886473 
L 178.069638 88.034754 
L 179.155439 88.162114 
L 180.24124 87.565115 
L 181.327042 85.989037 
L 182.412843 84.627879 
L 183.498644 85.105478 
L 184.584445 83.330401 
L 185.670246 83.059761 
L 186.756047 82.924441 
L 187.841849 81.189163 
L 188.92765 81.141404 
L 192.185053 78.283767 
L 193.270854 78.076808 
L 194.356656 77.702688 
L 195.442457 77.599208 
L 196.528258 76.07089 
L 197.614059 74.319693 
L 198.69986 74.598292 
L 199.785661 72.409295 
L 200.871462 72.751575 
L 201.957264 73.404294 
L 203.043065 71.398376 
L 204.128866 71.645136 
L 205.214667 70.236218 
L 206.300468 70.761577 
L 207.386269 68.95466 
L 208.472071 68.41338 
L 209.557872 67.712901 
L 210.643673 68.4691 
L 212.815275 66.701983 
L 213.901076 66.924862 
L 214.986877 66.550743 
L 217.15848 66.240303 
L 218.244281 66.574623 
L 219.330082 66.033344 
L 220.415883 65.977624 
L 221.501684 65.054265 
L 223.673287 65.221425 
L 224.759088 66.120903 
L 225.844889 91.70431 
L 226.93069 95.939024 
L 228.016491 94.896265 
L 229.102292 96.384783 
L 230.188094 97.053422 
L 231.273895 97.140982 
L 232.359696 95.962904 
L 233.445497 95.644504 
L 234.531298 95.994744 
L 236.702901 94.951985 
L 237.788702 95.063425 
L 238.874503 94.498266 
L 239.960304 93.527147 
L 241.046105 93.097308 
L 242.131906 91.855549 
L 243.217708 93.224668 
L 244.303509 93.160988 
L 245.38931 92.595828 
L 246.475111 92.325189 
L 247.560912 91.903309 
L 248.646713 91.25059 
L 249.732514 91.04363 
L 251.904117 91.990869 
L 252.989918 91.982909 
L 254.075719 89.196913 
L 255.16152 88.870553 
L 256.247321 89.475513 
L 257.333123 89.061593 
L 258.418924 87.748195 
L 259.504725 87.923315 
L 261.676327 88.727273 
L 263.847929 85.829837 
L 264.933731 86.140277 
L 266.019532 86.116397 
L 267.105333 86.243757 
L 268.191134 86.211917 
L 269.276935 86.562156 
L 271.448538 84.492559 
L 272.534339 84.0866 
L 273.62014 84.253759 
L 274.705941 84.858719 
L 275.791742 84.237839 
L 276.877543 83.378161 
L 277.963344 82.661762 
L 279.049146 81.579203 
L 280.134947 82.948321 
L 281.220748 82.080682 
L 282.306549 81.045884 
L 283.39235 81.937402 
L 284.478151 81.141404 
L 285.563953 81.666763 
L 286.649754 80.608084 
L 287.735555 80.393165 
L 288.821356 79.875765 
L 289.907157 79.231006 
L 290.992958 79.039966 
L 292.07876 79.231006 
L 293.164561 78.920566 
L 294.250362 79.063846 
L 295.336163 78.514607 
L 296.421964 77.169369 
L 297.507765 76.683809 
L 298.593566 76.787289 
L 299.679368 76.13457 
L 300.765169 76.771369 
L 301.85097 76.20621 
L 302.936771 76.21417 
L 304.022572 75.95945 
L 305.108373 75.243051 
L 306.194175 74.972412 
L 307.279976 75.394291 
L 308.365777 74.876892 
L 309.451578 73.396334 
L 310.537379 72.982414 
L 311.62318 73.006294 
L 312.708981 71.462056 
L 313.794783 72.831175 
L 314.880584 73.396334 
L 315.966385 71.231217 
L 317.052186 70.276018 
L 318.137987 69.615339 
L 319.223788 70.084978 
L 320.30959 70.084978 
L 321.395391 70.228258 
L 323.566993 68.89894 
L 325.738595 68.230301 
L 326.824396 67.537782 
L 327.910198 66.311943 
L 328.995999 66.638303 
L 330.0818 66.686063 
L 331.167601 66.566663 
L 332.253402 66.128863 
L 333.339203 66.367663 
L 336.596607 64.767705 
L 337.682408 65.062225 
L 338.768209 63.446347 
L 339.85401 63.525947 
L 340.939811 63.470227 
L 342.025613 62.658308 
L 343.111414 62.013549 
L 344.197215 62.546868 
L 345.283016 61.862309 
L 346.368817 62.029469 
L 347.454618 60.469311 
L 348.54042 61.01855 
L 349.626221 60.86731 
L 350.712022 59.593712 
L 351.797823 59.824552 
L 352.883624 58.614633 
L 355.055227 59.649432 
L 356.141028 57.850474 
L 357.226829 57.269395 
L 358.31263 58.216634 
L 359.398431 57.627595 
L 360.484232 55.669437 
L 361.570033 55.932117 
L 362.655835 56.537076 
L 364.827437 55.764957 
L 365.913238 55.406758 
L 366.999039 53.568 
L 368.08484 55.916197 
L 369.170642 55.828637 
L 370.256443 56.728116 
L 371.342244 57.898234 
L 372.428045 58.646473 
L 373.513846 58.980793 
L 374.599647 58.614633 
L 375.685448 59.935992 
L 376.77125 59.609632 
L 377.857051 58.622593 
L 378.942852 58.829553 
L 380.028653 59.155913 
L 381.114454 60.007631 
L 382.200255 59.824552 
L 383.286057 58.566873 
L 384.371858 59.163873 
L 385.457659 59.418592 
L 386.54346 58.312154 
L 387.629261 59.442472 
L 388.715062 58.765873 
L 390.886665 59.315112 
L 391.972466 59.872312 
L 393.058267 59.052433 
L 394.144068 58.678313 
L 395.229869 59.959872 
L 396.31567 59.474312 
L 397.401472 59.195713 
L 398.487273 58.678313 
L 398.487273 58.678313 
" clip-path="url(#pc0f6cae419)" style="fill: none; stroke: #1f77b4; stroke-width: 1.5; stroke-linecap: square"/>
   </g>
   <g id="line2d_20">
    <path d="M 73.832727 283.619656 
L 74.918528 277.283504 
L 76.00433 233.057803 
L 77.090131 213.667268 
L 79.261733 190.519619 
L 80.347534 174.34492 
L 81.433335 169.218687 
L 82.519137 160.908458 
L 83.604938 148.681914 
L 84.690739 148.236155 
L 85.77654 143.014402 
L 86.862341 133.175855 
L 87.948142 132.379856 
L 89.033943 134.895212 
L 90.119745 131.456497 
L 91.205546 127.158103 
L 92.291347 125.215865 
L 93.377148 125.406905 
L 94.462949 124.515386 
L 95.54875 150.815191 
L 96.634552 147.280956 
L 97.720353 150.528632 
L 98.806154 139.225447 
L 99.891955 143.364641 
L 100.977756 132.570895 
L 102.063557 137.474249 
L 103.149358 138.206568 
L 104.23516 126.298424 
L 105.320961 124.674586 
L 106.406762 121.33139 
L 107.492563 117.032996 
L 108.578364 116.045957 
L 109.664165 117.287716 
L 110.749967 111.078924 
L 111.835768 112.384362 
L 112.921569 110.187405 
L 114.00737 109.359566 
L 115.093171 109.646126 
L 116.178972 103.405494 
L 117.264773 102.705015 
L 118.350575 100.125978 
L 119.436376 101.208537 
L 120.522177 99.616539 
L 121.607978 94.904225 
L 122.693779 94.171906 
L 123.77958 94.553986 
L 124.865382 94.044546 
L 125.951183 91.815749 
L 127.036984 90.191912 
L 128.122785 87.103436 
L 129.208586 86.275597 
L 130.294387 86.307437 
L 131.380189 87.103436 
L 132.46599 87.007916 
L 133.551791 85.543278 
L 134.637592 84.269679 
L 135.723393 85.415918 
L 136.809194 85.511438 
L 137.894995 84.492559 
L 138.980797 111.397324 
L 140.066598 111.588363 
L 141.152399 112.830122 
L 142.2382 108.818287 
L 143.324001 106.39845 
L 144.409802 111.588363 
L 145.495604 105.570611 
L 146.581405 107.353649 
L 147.667206 105.602451 
L 148.753007 105.475091 
L 149.838808 103.246294 
L 150.924609 103.501014 
L 152.01041 107.385489 
L 153.096212 101.208537 
L 154.182013 99.775739 
L 155.267814 100.317018 
L 156.353615 107.990448 
L 157.439416 101.558777 
L 158.525217 97.642462 
L 159.611019 97.769822 
L 160.69682 94.426626 
L 161.782621 99.552859 
L 162.868422 91.46551 
L 163.954223 91.847589 
L 165.040024 96.305183 
L 166.125825 93.089348 
L 167.211627 92.579908 
L 168.297428 93.280387 
L 169.383229 89.523272 
L 170.46903 86.657676 
L 171.554831 86.084557 
L 172.640632 86.339277 
L 173.726434 89.841672 
L 174.812235 86.657676 
L 175.898036 81.977202 
L 176.983837 84.970158 
L 178.069638 84.365199 
L 179.155439 81.626963 
L 180.24124 81.849843 
L 181.327042 81.658803 
L 182.412843 79.907605 
L 183.498644 78.761367 
L 184.584445 79.780245 
L 185.670246 79.493686 
L 186.756047 80.003125 
L 187.841849 80.353365 
L 188.92765 77.137529 
L 190.013451 79.843925 
L 191.099252 76.21417 
L 192.185053 77.997208 
L 193.270854 73.539614 
L 194.356656 73.444094 
L 195.442457 72.552575 
L 196.528258 73.953533 
L 198.69986 71.533696 
L 199.785661 73.380414 
L 200.871462 71.756576 
L 201.957264 68.63626 
L 203.043065 68.92282 
L 204.128866 71.692896 
L 205.214667 69.464099 
L 206.300468 69.655139 
L 207.386269 68.73178 
L 208.472071 68.286021 
L 209.557872 68.76362 
L 210.643673 68.89098 
L 211.729474 67.808421 
L 212.815275 68.158661 
L 213.901076 66.280103 
L 214.986877 66.757703 
L 216.072679 66.534823 
L 217.15848 65.993544 
L 219.330082 66.471143 
L 220.415883 66.821382 
L 221.501684 65.993544 
L 222.587486 65.611464 
L 223.673287 65.102025 
L 224.759088 65.770664 
L 225.844889 96.050464 
L 226.93069 97.642462 
L 228.016491 98.69318 
L 229.102292 96.114144 
L 230.188094 91.783909 
L 231.273895 96.814623 
L 232.359696 95.732064 
L 233.445497 92.452549 
L 234.531298 89.650632 
L 235.617099 91.36999 
L 236.702901 88.313354 
L 237.788702 91.36999 
L 238.874503 90.032712 
L 239.960304 93.184868 
L 241.046105 88.727273 
L 242.131906 90.987911 
L 243.217708 87.644715 
L 244.303509 87.453675 
L 245.38931 87.071596 
L 246.475111 87.963115 
L 247.560912 88.281514 
L 248.646713 84.01496 
L 250.818316 89.459593 
L 251.904117 90.287431 
L 252.989918 87.676555 
L 254.075719 85.861677 
L 255.16152 88.790953 
L 256.247321 86.084557 
L 257.333123 83.76024 
L 258.418924 84.205999 
L 259.504725 86.339277 
L 260.590526 86.148237 
L 261.676327 82.677681 
L 262.762128 83.98312 
L 263.847929 83.5692 
L 264.933731 84.460719 
L 266.019532 87.230795 
L 267.105333 81.404083 
L 268.191134 83.8876 
L 269.276935 80.226005 
L 270.362736 84.301519 
L 271.448538 85.352238 
L 272.534339 83.155281 
L 273.62014 81.818003 
L 274.705941 81.658803 
L 275.791742 79.589206 
L 276.877543 80.767284 
L 277.963344 79.843925 
L 279.049146 80.194165 
L 280.134947 82.327442 
L 281.220748 81.085684 
L 282.306549 80.098645 
L 283.39235 77.583288 
L 284.478151 78.697687 
L 285.563953 80.894644 
L 286.649754 77.678808 
L 287.735555 80.671764 
L 288.821356 82.327442 
L 289.907157 76.850969 
L 290.992958 75.545531 
L 292.07876 77.360409 
L 293.164561 75.641051 
L 294.250362 76.56441 
L 295.336163 78.188247 
L 296.421964 74.399292 
L 297.507765 77.965368 
L 298.593566 76.659929 
L 299.679368 75.131611 
L 300.765169 75.322651 
L 301.85097 76.755449 
L 302.936771 74.367452 
L 304.022572 76.50073 
L 305.108373 73.921693 
L 306.194175 73.666973 
L 307.279976 74.781372 
L 308.365777 72.170495 
L 309.451578 75.386331 
L 310.537379 70.960577 
L 311.62318 73.475934 
L 312.708981 70.769537 
L 313.794783 70.228258 
L 314.880584 70.610337 
L 315.966385 71.788416 
L 317.052186 72.297855 
L 318.137987 71.947616 
L 319.223788 69.241219 
L 320.30959 69.241219 
L 321.395391 70.132738 
L 322.481192 66.343783 
L 323.566993 68.95466 
L 324.652794 66.853222 
L 325.738595 69.973538 
L 326.824396 68.89098 
L 327.910198 66.439303 
L 330.0818 67.044262 
L 331.167601 67.012422 
L 332.253402 66.694023 
L 333.339203 65.547784 
L 334.425005 64.656265 
L 335.510806 65.356744 
L 336.596607 64.751785 
L 337.682408 62.745868 
L 338.768209 63.096107 
L 340.939811 63.318987 
L 342.025613 61.535949 
L 343.111414 62.395628 
L 344.197215 63.796586 
L 345.283016 61.535949 
L 346.368817 63.000588 
L 347.454618 61.981709 
L 348.54042 63.159787 
L 349.626221 61.981709 
L 350.712022 61.790669 
L 351.797823 62.109069 
L 352.883624 62.013549 
L 353.969425 59.943952 
L 355.055227 59.657392 
L 356.141028 59.657392 
L 357.226829 61.21755 
L 358.31263 61.18571 
L 359.398431 58.479314 
L 360.484232 58.383794 
L 361.570033 58.606673 
L 362.655835 59.084273 
L 363.741636 58.606673 
L 364.827437 58.479314 
L 365.913238 60.326031 
L 366.999039 59.402672 
L 368.08484 59.338992 
L 369.170642 58.702193 
L 370.256443 59.593712 
L 372.428045 60.453391 
L 373.513846 61.567789 
L 374.599647 60.262351 
L 375.685448 61.886189 
L 376.77125 61.918029 
L 377.857051 60.007631 
L 378.942852 62.714028 
L 380.028653 59.912112 
L 381.114454 60.421551 
L 382.200255 60.77179 
L 383.286057 60.99467 
L 384.371858 60.739951 
L 385.457659 60.96283 
L 386.54346 59.848432 
L 387.629261 58.511153 
L 388.715062 62.554828 
L 389.800863 61.40859 
L 390.886665 61.21755 
L 391.972466 61.599629 
L 393.058267 60.676271 
L 394.144068 60.166831 
L 395.229869 61.37675 
L 397.401472 61.28123 
L 398.487273 63.764747 
L 398.487273 63.764747 
" clip-path="url(#pc0f6cae419)" style="fill: none; stroke: #ff7f0e; stroke-width: 1.5; stroke-linecap: square"/>
   </g>
   <g id="line2d_21">
    <path d="M 73.832727 290.261032 
L 74.918528 282.795111 
L 76.00433 253.699977 
L 77.090131 241.512958 
L 78.175932 233.607865 
L 81.433335 205.720454 
L 82.519137 203.524595 
L 83.604938 194.411779 
L 84.690739 191.008198 
L 85.77654 187.165444 
L 86.862341 173.551117 
L 87.948142 176.844906 
L 89.033943 175.856769 
L 90.119745 178.4918 
L 91.205546 175.307804 
L 92.291347 173.002152 
L 93.377148 173.221738 
L 94.462949 171.465051 
L 95.54875 197.595775 
L 96.634552 192.435506 
L 97.720353 194.192193 
L 98.806154 188.373167 
L 99.891955 186.067514 
L 100.977756 178.930972 
L 102.063557 186.836065 
L 103.149358 179.58973 
L 104.23516 174.539254 
L 105.320961 172.672773 
L 106.406762 175.198012 
L 107.492563 168.610434 
L 108.578364 169.159399 
L 109.664165 169.488778 
L 111.835768 160.705341 
L 112.921569 161.803271 
L 114.00737 163.230579 
L 115.093171 169.269192 
L 116.178972 163.230579 
L 117.264773 158.509482 
L 118.350575 158.07031 
L 119.436376 158.180103 
L 120.522177 156.094037 
L 121.607978 151.702318 
L 122.693779 150.494596 
L 123.77958 155.654865 
L 125.951183 150.384803 
L 127.036984 149.17708 
L 128.122785 147.639979 
L 129.208586 146.322464 
L 130.294387 145.334327 
L 131.380189 146.542049 
L 132.46599 144.895155 
L 133.551791 145.334327 
L 134.637592 142.260124 
L 135.723393 142.918882 
L 136.809194 143.797225 
L 137.894995 142.809089 
L 138.980797 167.512504 
L 140.066598 168.83002 
L 141.152399 170.586707 
L 142.2382 165.755817 
L 143.324001 164.987266 
L 144.409802 164.76768 
L 145.495604 161.473892 
L 146.581405 159.497619 
L 147.667206 161.803271 
L 148.753007 166.96354 
L 149.838808 161.03472 
L 150.924609 157.411552 
L 152.01041 163.889337 
L 153.096212 156.752795 
L 154.182013 154.117764 
L 155.267814 160.156376 
L 156.353615 162.681614 
L 157.439416 158.399689 
L 158.525217 157.301759 
L 159.611019 156.643002 
L 160.69682 150.604389 
L 161.782621 154.556935 
L 162.868422 150.27501 
L 163.954223 149.726045 
L 165.040024 150.714182 
L 166.125825 154.886314 
L 167.211627 149.726045 
L 168.297428 150.27501 
L 169.383229 148.518323 
L 170.46903 148.518323 
L 171.554831 144.455983 
L 172.640632 143.028675 
L 173.726434 147.420393 
L 174.812235 143.028675 
L 175.898036 141.930745 
L 176.983837 141.711159 
L 178.069638 140.832816 
L 179.155439 139.734886 
L 180.24124 143.687433 
L 181.327042 147.200807 
L 182.412843 137.539027 
L 183.498644 136.111718 
L 184.584445 138.197785 
L 185.670246 138.636956 
L 186.756047 138.527163 
L 187.841849 140.832816 
L 188.92765 137.978199 
L 190.013451 140.942609 
L 191.099252 135.78234 
L 192.185053 137.539027 
L 194.356656 133.037516 
L 195.442457 130.182899 
L 196.528258 133.257101 
L 197.614059 129.194762 
L 198.69986 130.951449 
L 199.785661 133.915859 
L 200.871462 129.633934 
L 201.957264 131.171035 
L 203.043065 129.743727 
L 204.128866 129.633934 
L 205.214667 127.987039 
L 206.300468 128.206625 
L 207.386269 125.79118 
L 208.472071 126.340145 
L 209.557872 124.693251 
L 210.643673 125.900973 
L 211.729474 126.340145 
L 212.815275 128.096832 
L 213.901076 124.583458 
L 214.986877 123.265942 
L 216.072679 124.363872 
L 217.15848 124.363872 
L 218.244281 123.265942 
L 219.330082 123.705114 
L 220.415883 122.936563 
L 221.501684 125.242216 
L 222.587486 123.375735 
L 223.673287 123.156149 
L 224.759088 123.9247 
L 225.844889 156.423416 
L 226.93069 156.20383 
L 228.016491 153.459006 
L 229.102292 156.313623 
L 230.188094 153.349213 
L 231.273895 157.960517 
L 232.359696 156.423416 
L 233.445497 146.761635 
L 234.531298 148.957495 
L 235.617099 147.420393 
L 236.702901 143.358054 
L 237.788702 153.129627 
L 238.874503 146.651842 
L 239.960304 152.14149 
L 241.046105 145.114741 
L 242.131906 156.643002 
L 243.217708 146.102878 
L 244.303509 144.785362 
L 245.38931 141.930745 
L 246.475111 147.200807 
L 247.560912 147.200807 
L 248.646713 145.553913 
L 249.732514 141.38178 
L 250.818316 144.016811 
L 251.904117 147.749772 
L 252.989918 140.503437 
L 254.075719 146.651842 
L 255.16152 149.726045 
L 256.247321 149.286873 
L 257.333123 141.162194 
L 258.418924 149.616252 
L 259.504725 142.040538 
L 260.590526 142.150331 
L 261.676327 145.993085 
L 262.762128 140.064265 
L 263.847929 143.907018 
L 264.933731 139.844679 
L 266.019532 142.699296 
L 267.105333 141.711159 
L 268.191134 141.711159 
L 269.276935 135.343168 
L 270.362736 142.150331 
L 271.448538 145.553913 
L 272.534339 141.162194 
L 273.62014 132.598344 
L 274.705941 137.539027 
L 275.791742 136.111718 
L 276.877543 140.393644 
L 277.963344 140.723023 
L 279.049146 134.794203 
L 280.134947 138.197785 
L 281.220748 138.636956 
L 282.306549 135.343168 
L 283.39235 136.111718 
L 284.478151 138.966335 
L 285.563953 140.503437 
L 286.649754 136.331304 
L 287.735555 137.319441 
L 288.821356 141.601366 
L 289.907157 136.441097 
L 290.992958 133.58648 
L 292.07876 129.414348 
L 293.164561 131.610207 
L 294.250362 133.147309 
L 295.336163 134.903996 
L 296.421964 131.610207 
L 297.507765 136.441097 
L 298.593566 132.159172 
L 299.679368 136.001925 
L 300.765169 130.402485 
L 301.85097 131.171035 
L 302.936771 130.073106 
L 304.022572 134.464824 
L 305.108373 133.696273 
L 306.194175 135.78234 
L 307.279976 133.58648 
L 308.365777 128.096832 
L 309.451578 133.915859 
L 310.537379 131.390621 
L 311.62318 127.108696 
L 312.708981 129.85352 
L 313.794783 133.037516 
L 314.880584 126.669524 
L 315.966385 127.877247 
L 317.052186 130.841656 
L 318.137987 128.645797 
L 319.223788 125.681387 
L 320.30959 125.79118 
L 321.395391 122.936563 
L 322.481192 123.814907 
L 323.566993 128.75559 
L 324.652794 119.972154 
L 325.738595 123.485528 
L 326.824396 128.975176 
L 327.910198 125.681387 
L 328.995999 121.838634 
L 330.0818 123.046356 
L 331.167601 122.82677 
L 332.253402 121.619048 
L 334.425005 116.458779 
L 335.510806 121.838634 
L 336.596607 120.521118 
L 337.682408 117.446916 
L 338.768209 117.886087 
L 339.85401 120.521118 
L 340.939811 119.752568 
L 342.025613 117.446916 
L 343.111414 117.666501 
L 344.197215 120.850497 
L 345.283016 113.494369 
L 346.368817 117.22733 
L 347.454618 118.215466 
L 348.54042 118.435052 
L 349.626221 117.007744 
L 350.712022 118.544845 
L 351.797823 115.909814 
L 352.883624 119.972154 
L 353.969425 116.788158 
L 355.055227 114.043334 
L 356.141028 114.482506 
L 357.226829 114.592299 
L 358.31263 116.678365 
L 359.398431 113.713955 
L 360.484232 113.16499 
L 361.570033 113.055197 
L 362.655835 113.16499 
L 363.741636 112.067061 
L 364.827437 112.176854 
L 365.913238 115.141263 
L 366.999039 114.482506 
L 368.08484 112.945404 
L 369.170642 115.360849 
L 370.256443 113.933541 
L 371.342244 117.99588 
L 372.428045 116.568572 
L 373.513846 118.764431 
L 374.599647 117.776294 
L 375.685448 116.1294 
L 376.77125 117.22733 
L 377.857051 115.251056 
L 378.942852 117.22733 
L 380.028653 116.239193 
L 381.114454 120.630911 
L 382.200255 121.070083 
L 383.286057 121.179876 
L 385.457659 115.141263 
L 386.54346 113.823748 
L 387.629261 114.811885 
L 388.715062 117.556708 
L 389.800863 117.556708 
L 390.886665 115.800021 
L 391.972466 116.678365 
L 393.058267 112.725818 
L 394.144068 112.616025 
L 395.229869 119.09381 
L 396.31567 117.117537 
L 397.401472 112.396439 
L 398.487273 120.411325 
L 398.487273 120.411325 
" clip-path="url(#pc0f6cae419)" style="fill: none; stroke: #2ca02c; stroke-width: 1.5; stroke-linecap: square"/>
   </g>
   <g id="line2d_22">
    <path d="M 368.08484 59.243472 
L 369.170642 57.269395 
L 370.256443 57.651475 
L 372.428045 59.593712 
L 374.599647 58.415634 
L 376.77125 60.485231 
L 377.857051 58.383794 
L 378.942852 58.542993 
L 380.028653 59.243472 
L 381.114454 59.179793 
L 383.286057 59.370832 
L 384.371858 60.708111 
L 385.457659 60.708111 
L 386.54346 60.548911 
L 387.629261 62.714028 
L 388.715062 61.567789 
L 389.800863 59.784752 
L 390.886665 58.511153 
L 391.972466 60.421551 
L 394.144068 63.191627 
L 395.229869 64.242346 
L 396.31567 68.031301 
L 397.401472 65.261225 
L 398.487273 63.637387 
L 398.487273 63.637387 
" clip-path="url(#pc0f6cae419)" style="fill: none; stroke: #d62728; stroke-width: 1.5; stroke-linecap: square"/>
   </g>
   <g id="line2d_23">
    <path d="M 368.08484 114.921677 
L 369.170642 110.969131 
L 370.256443 112.286646 
L 371.342244 111.957268 
L 372.428045 113.055197 
L 373.513846 116.1294 
L 374.599647 114.372713 
L 375.685448 114.153127 
L 376.77125 115.251056 
L 377.857051 111.188717 
L 378.942852 111.957268 
L 380.028653 113.494369 
L 381.114454 110.090787 
L 382.200255 109.761408 
L 383.286057 114.592299 
L 384.371858 112.835611 
M 386.54346 112.945404 
L 387.629261 116.678365 
L 388.715062 118.215466 
L 389.800863 114.811885 
L 390.886665 112.616025 
L 391.972466 114.043334 
L 393.058267 116.1294 
L 394.144068 118.764431 
L 395.229869 117.886087 
L 396.31567 123.485528 
L 397.401472 122.387599 
L 398.487273 116.897951 
L 398.487273 116.897951 
" clip-path="url(#pc0f6cae419)" style="fill: none; stroke: #9467bd; stroke-width: 1.5; stroke-linecap: square"/>
   </g>
   <g id="patch_3">
    <path d="M 57.6 307.584 
L 57.6 41.472 
" style="fill: none; stroke: #000000; stroke-width: 0.8; stroke-linejoin: miter; stroke-linecap: square"/>
   </g>
   <g id="patch_4">
    <path d="M 414.72 307.584 
L 414.72 41.472 
" style="fill: none; stroke: #000000; stroke-width: 0.8; stroke-linejoin: miter; stroke-linecap: square"/>
   </g>
   <g id="patch_5">
    <path d="M 57.6 307.584 
L 414.72 307.584 
" style="fill: none; stroke: #000000; stroke-width: 0.8; stroke-linejoin: miter; stroke-linecap: square"/>
   </g>
   <g id="patch_6">
    <path d="M 57.6 41.472 
L 414.72 41.472 
" style="fill: none; stroke: #000000; stroke-width: 0.8; stroke-linejoin: miter; stroke-linecap: square"/>
   </g>
   <g id="text_21">
    <!-- Learning Curves -->
    <g transform="translate(187.37625 35.472) scale(0.12 -0.12)">
     <defs>
      <path id="DejaVuSans-4c" d="M 628 4666 
L 1259 4666 
L 1259 531 
L 3531 531 
L 3531 0 
L 628 0 
L 628 4666 
z
" transform="scale(0.015625)"/>
      <path id="DejaVuSans-65" d="M 3597 1894 
L 3597 1613 
L 953 1613 
Q 991 1019 1311 708 
Q 1631 397 2203 397 
Q 2534 397 2845 478 
Q 3156 559 3463 722 
L 3463 178 
Q 3153 47 2828 -22 
Q 2503 -91 2169 -91 
Q 1331 -91 842 396 
Q 353 884 353 1716 
Q 353 2575 817 3079 
Q 1281 3584 2069 3584 
Q 2775 3584 3186 3129 
Q 3597 2675 3597 1894 
z
M 3022 2063 
Q 3016 2534 2758 2815 
Q 2500 3097 2075 3097 
Q 1594 3097 1305 2825 
Q 1016 2553 972 2059 
L 3022 2063 
z
" transform="scale(0.015625)"/>
      <path id="DejaVuSans-6e" d="M 3513 2113 
L 3513 0 
L 2938 0 
L 2938 2094 
Q 2938 2591 2744 2837 
Q 2550 3084 2163 3084 
Q 1697 3084 1428 2787 
Q 1159 2491 1159 1978 
L 1159 0 
L 581 0 
L 581 3500 
L 1159 3500 
L 1159 2956 
Q 1366 3272 1645 3428 
Q 1925 3584 2291 3584 
Q 2894 3584 3203 3211 
Q 3513 2838 3513 2113 
z
" transform="scale(0.015625)"/>
      <path id="DejaVuSans-69" d="M 603 3500 
L 1178 3500 
L 1178 0 
L 603 0 
L 603 3500 
z
M 603 4863 
L 1178 4863 
L 1178 4134 
L 603 4134 
L 603 4863 
z
" transform="scale(0.015625)"/>
      <path id="DejaVuSans-67" d="M 2906 1791 
Q 2906 2416 2648 2759 
Q 2391 3103 1925 3103 
Q 1463 3103 1205 2759 
Q 947 2416 947 1791 
Q 947 1169 1205 825 
Q 1463 481 1925 481 
Q 2391 481 2648 825 
Q 2906 1169 2906 1791 
z
M 3481 434 
Q 3481 -459 3084 -895 
Q 2688 -1331 1869 -1331 
Q 1566 -1331 1297 -1286 
Q 1028 -1241 775 -1147 
L 775 -588 
Q 1028 -725 1275 -790 
Q 1522 -856 1778 -856 
Q 2344 -856 2625 -561 
Q 2906 -266 2906 331 
L 2906 616 
Q 2728 306 2450 153 
Q 2172 0 1784 0 
Q 1141 0 747 490 
Q 353 981 353 1791 
Q 353 2603 747 3093 
Q 1141 3584 1784 3584 
Q 2172 3584 2450 3431 
Q 2728 3278 2906 2969 
L 2906 3500 
L 3481 3500 
L 3481 434 
z
" transform="scale(0.015625)"/>
      <path id="DejaVuSans-20" transform="scale(0.015625)"/>
      <path id="DejaVuSans-43" d="M 4122 4306 
L 4122 3641 
Q 3803 3938 3442 4084 
Q 3081 4231 2675 4231 
Q 1875 4231 1450 3742 
Q 1025 3253 1025 2328 
Q 1025 1406 1450 917 
Q 1875 428 2675 428 
Q 3081 428 3442 575 
Q 3803 722 4122 1019 
L 4122 359 
Q 3791 134 3420 21 
Q 3050 -91 2638 -91 
Q 1578 -91 968 557 
Q 359 1206 359 2328 
Q 359 3453 968 4101 
Q 1578 4750 2638 4750 
Q 3056 4750 3426 4639 
Q 3797 4528 4122 4306 
z
" transform="scale(0.015625)"/>
      <path id="DejaVuSans-76" d="M 191 3500 
L 800 3500 
L 1894 563 
L 2988 3500 
L 3597 3500 
L 2284 0 
L 1503 0 
L 191 3500 
z
" transform="scale(0.015625)"/>
     </defs>
     <use xlink:href="#DejaVuSans-4c"/>
     <use xlink:href="#DejaVuSans-65" x="53.962891"/>
     <use xlink:href="#DejaVuSans-61" x="115.486328"/>
     <use xlink:href="#DejaVuSans-72" x="176.765625"/>
     <use xlink:href="#DejaVuSans-6e" x="216.128906"/>
     <use xlink:href="#DejaVuSans-69" x="279.507812"/>
     <use xlink:href="#DejaVuSans-6e" x="307.291016"/>
     <use xlink:href="#DejaVuSans-67" x="370.669922"/>
     <use xlink:href="#DejaVuSans-20" x="434.146484"/>
     <use xlink:href="#DejaVuSans-43" x="465.933594"/>
     <use xlink:href="#DejaVuSans-75" x="535.757812"/>
     <use xlink:href="#DejaVuSans-72" x="599.136719"/>
     <use xlink:href="#DejaVuSans-76" x="640.25"/>
     <use xlink:href="#DejaVuSans-65" x="699.429688"/>
     <use xlink:href="#DejaVuSans-73" x="760.953125"/>
    </g>
   </g>
   <g id="legend_1">
    <g id="patch_7">
     <path d="M 214.18875 302.584 
L 407.72 302.584 
Q 409.72 302.584 409.72 300.584 
L 409.72 228.193375 
Q 409.72 226.193375 407.72 226.193375 
L 214.18875 226.193375 
Q 212.18875 226.193375 212.18875 228.193375 
L 212.18875 300.584 
Q 212.18875 302.584 214.18875 302.584 
z
" style="fill: #ffffff; opacity: 0.8; stroke: #cccccc; stroke-linejoin: miter"/>
    </g>
    <g id="line2d_24">
     <path d="M 216.18875 234.291812 
L 226.18875 234.291812 
L 236.18875 234.291812 
" style="fill: none; stroke: #1f77b4; stroke-width: 1.5; stroke-linecap: square"/>
    </g>
    <g id="text_22">
     <!-- Train Accuracy -->
     <g transform="translate(244.18875 237.791812) scale(0.1 -0.1)">
      <defs>
       <path id="DejaVuSans-54" d="M -19 4666 
L 3928 4666 
L 3928 4134 
L 2272 4134 
L 2272 0 
L 1638 0 
L 1638 4134 
L -19 4134 
L -19 4666 
z
" transform="scale(0.015625)"/>
      </defs>
      <use xlink:href="#DejaVuSans-54"/>
      <use xlink:href="#DejaVuSans-72" x="46.333984"/>
      <use xlink:href="#DejaVuSans-61" x="87.447266"/>
      <use xlink:href="#DejaVuSans-69" x="148.726562"/>
      <use xlink:href="#DejaVuSans-6e" x="176.509766"/>
      <use xlink:href="#DejaVuSans-20" x="239.888672"/>
      <use xlink:href="#DejaVuSans-41" x="271.675781"/>
      <use xlink:href="#DejaVuSans-63" x="338.333984"/>
      <use xlink:href="#DejaVuSans-63" x="393.314453"/>
      <use xlink:href="#DejaVuSans-75" x="448.294922"/>
      <use xlink:href="#DejaVuSans-72" x="511.673828"/>
      <use xlink:href="#DejaVuSans-61" x="552.787109"/>
      <use xlink:href="#DejaVuSans-63" x="614.066406"/>
      <use xlink:href="#DejaVuSans-79" x="669.046875"/>
     </g>
    </g>
    <g id="line2d_25">
     <path d="M 216.18875 248.969937 
L 226.18875 248.969937 
L 236.18875 248.969937 
" style="fill: none; stroke: #ff7f0e; stroke-width: 1.5; stroke-linecap: square"/>
    </g>
    <g id="text_23">
     <!-- Validation Accuracy -->
     <g transform="translate(244.18875 252.469937) scale(0.1 -0.1)">
      <defs>
       <path id="DejaVuSans-56" d="M 1831 0 
L 50 4666 
L 709 4666 
L 2188 738 
L 3669 4666 
L 4325 4666 
L 2547 0 
L 1831 0 
z
" transform="scale(0.015625)"/>
       <path id="DejaVuSans-6c" d="M 603 4863 
L 1178 4863 
L 1178 0 
L 603 0 
L 603 4863 
z
" transform="scale(0.015625)"/>
       <path id="DejaVuSans-64" d="M 2906 2969 
L 2906 4863 
L 3481 4863 
L 3481 0 
L 2906 0 
L 2906 525 
Q 2725 213 2448 61 
Q 2172 -91 1784 -91 
Q 1150 -91 751 415 
Q 353 922 353 1747 
Q 353 2572 751 3078 
Q 1150 3584 1784 3584 
Q 2172 3584 2448 3432 
Q 2725 3281 2906 2969 
z
M 947 1747 
Q 947 1113 1208 752 
Q 1469 391 1925 391 
Q 2381 391 2643 752 
Q 2906 1113 2906 1747 
Q 2906 2381 2643 2742 
Q 2381 3103 1925 3103 
Q 1469 3103 1208 2742 
Q 947 2381 947 1747 
z
" transform="scale(0.015625)"/>
       <path id="DejaVuSans-74" d="M 1172 4494 
L 1172 3500 
L 2356 3500 
L 2356 3053 
L 1172 3053 
L 1172 1153 
Q 1172 725 1289 603 
Q 1406 481 1766 481 
L 2356 481 
L 2356 0 
L 1766 0 
Q 1100 0 847 248 
Q 594 497 594 1153 
L 594 3053 
L 172 3053 
L 172 3500 
L 594 3500 
L 594 4494 
L 1172 4494 
z
" transform="scale(0.015625)"/>
      </defs>
      <use xlink:href="#DejaVuSans-56"/>
      <use xlink:href="#DejaVuSans-61" x="60.658203"/>
      <use xlink:href="#DejaVuSans-6c" x="121.9375"/>
      <use xlink:href="#DejaVuSans-69" x="149.720703"/>
      <use xlink:href="#DejaVuSans-64" x="177.503906"/>
      <use xlink:href="#DejaVuSans-61" x="240.980469"/>
      <use xlink:href="#DejaVuSans-74" x="302.259766"/>
      <use xlink:href="#DejaVuSans-69" x="341.46875"/>
      <use xlink:href="#DejaVuSans-6f" x="369.251953"/>
      <use xlink:href="#DejaVuSans-6e" x="430.433594"/>
      <use xlink:href="#DejaVuSans-20" x="493.8125"/>
      <use xlink:href="#DejaVuSans-41" x="525.599609"/>
      <use xlink:href="#DejaVuSans-63" x="592.257812"/>
      <use xlink:href="#DejaVuSans-63" x="647.238281"/>
      <use xlink:href="#DejaVuSans-75" x="702.21875"/>
      <use xlink:href="#DejaVuSans-72" x="765.597656"/>
      <use xlink:href="#DejaVuSans-61" x="806.710938"/>
      <use xlink:href="#DejaVuSans-63" x="867.990234"/>
      <use xlink:href="#DejaVuSans-79" x="922.970703"/>
     </g>
    </g>
    <g id="line2d_26">
     <path d="M 216.18875 263.648062 
L 226.18875 263.648062 
L 236.18875 263.648062 
" style="fill: none; stroke: #2ca02c; stroke-width: 1.5; stroke-linecap: square"/>
    </g>
    <g id="text_24">
     <!-- Robust Validation Accuracy -->
     <g transform="translate(244.18875 267.148062) scale(0.1 -0.1)">
      <defs>
       <path id="DejaVuSans-52" d="M 2841 2188 
Q 3044 2119 3236 1894 
Q 3428 1669 3622 1275 
L 4263 0 
L 3584 0 
L 2988 1197 
Q 2756 1666 2539 1819 
Q 2322 1972 1947 1972 
L 1259 1972 
L 1259 0 
L 628 0 
L 628 4666 
L 2053 4666 
Q 2853 4666 3247 4331 
Q 3641 3997 3641 3322 
Q 3641 2881 3436 2590 
Q 3231 2300 2841 2188 
z
M 1259 4147 
L 1259 2491 
L 2053 2491 
Q 2509 2491 2742 2702 
Q 2975 2913 2975 3322 
Q 2975 3731 2742 3939 
Q 2509 4147 2053 4147 
L 1259 4147 
z
" transform="scale(0.015625)"/>
       <path id="DejaVuSans-62" d="M 3116 1747 
Q 3116 2381 2855 2742 
Q 2594 3103 2138 3103 
Q 1681 3103 1420 2742 
Q 1159 2381 1159 1747 
Q 1159 1113 1420 752 
Q 1681 391 2138 391 
Q 2594 391 2855 752 
Q 3116 1113 3116 1747 
z
M 1159 2969 
Q 1341 3281 1617 3432 
Q 1894 3584 2278 3584 
Q 2916 3584 3314 3078 
Q 3713 2572 3713 1747 
Q 3713 922 3314 415 
Q 2916 -91 2278 -91 
Q 1894 -91 1617 61 
Q 1341 213 1159 525 
L 1159 0 
L 581 0 
L 581 4863 
L 1159 4863 
L 1159 2969 
z
" transform="scale(0.015625)"/>
      </defs>
      <use xlink:href="#DejaVuSans-52"/>
      <use xlink:href="#DejaVuSans-6f" x="64.982422"/>
      <use xlink:href="#DejaVuSans-62" x="126.164062"/>
      <use xlink:href="#DejaVuSans-75" x="189.640625"/>
      <use xlink:href="#DejaVuSans-73" x="253.019531"/>
      <use xlink:href="#DejaVuSans-74" x="305.119141"/>
      <use xlink:href="#DejaVuSans-20" x="344.328125"/>
      <use xlink:href="#DejaVuSans-56" x="376.115234"/>
      <use xlink:href="#DejaVuSans-61" x="436.773438"/>
      <use xlink:href="#DejaVuSans-6c" x="498.052734"/>
      <use xlink:href="#DejaVuSans-69" x="525.835938"/>
      <use xlink:href="#DejaVuSans-64" x="553.619141"/>
      <use xlink:href="#DejaVuSans-61" x="617.095703"/>
      <use xlink:href="#DejaVuSans-74" x="678.375"/>
      <use xlink:href="#DejaVuSans-69" x="717.583984"/>
      <use xlink:href="#DejaVuSans-6f" x="745.367188"/>
      <use xlink:href="#DejaVuSans-6e" x="806.548828"/>
      <use xlink:href="#DejaVuSans-20" x="869.927734"/>
      <use xlink:href="#DejaVuSans-41" x="901.714844"/>
      <use xlink:href="#DejaVuSans-63" x="968.373047"/>
      <use xlink:href="#DejaVuSans-63" x="1023.353516"/>
      <use xlink:href="#DejaVuSans-75" x="1078.333984"/>
      <use xlink:href="#DejaVuSans-72" x="1141.712891"/>
      <use xlink:href="#DejaVuSans-61" x="1182.826172"/>
      <use xlink:href="#DejaVuSans-63" x="1244.105469"/>
      <use xlink:href="#DejaVuSans-79" x="1299.085938"/>
     </g>
    </g>
    <g id="line2d_27">
     <path d="M 216.18875 278.326188 
L 226.18875 278.326188 
L 236.18875 278.326188 
" style="fill: none; stroke: #d62728; stroke-width: 1.5; stroke-linecap: square"/>
    </g>
    <g id="text_25">
     <!-- SWA Validation Accuracy -->
     <g transform="translate(244.18875 281.826188) scale(0.1 -0.1)">
      <defs>
       <path id="DejaVuSans-53" d="M 3425 4513 
L 3425 3897 
Q 3066 4069 2747 4153 
Q 2428 4238 2131 4238 
Q 1616 4238 1336 4038 
Q 1056 3838 1056 3469 
Q 1056 3159 1242 3001 
Q 1428 2844 1947 2747 
L 2328 2669 
Q 3034 2534 3370 2195 
Q 3706 1856 3706 1288 
Q 3706 609 3251 259 
Q 2797 -91 1919 -91 
Q 1588 -91 1214 -16 
Q 841 59 441 206 
L 441 856 
Q 825 641 1194 531 
Q 1563 422 1919 422 
Q 2459 422 2753 634 
Q 3047 847 3047 1241 
Q 3047 1584 2836 1778 
Q 2625 1972 2144 2069 
L 1759 2144 
Q 1053 2284 737 2584 
Q 422 2884 422 3419 
Q 422 4038 858 4394 
Q 1294 4750 2059 4750 
Q 2388 4750 2728 4690 
Q 3069 4631 3425 4513 
z
" transform="scale(0.015625)"/>
       <path id="DejaVuSans-57" d="M 213 4666 
L 850 4666 
L 1831 722 
L 2809 4666 
L 3519 4666 
L 4500 722 
L 5478 4666 
L 6119 4666 
L 4947 0 
L 4153 0 
L 3169 4050 
L 2175 0 
L 1381 0 
L 213 4666 
z
" transform="scale(0.015625)"/>
      </defs>
      <use xlink:href="#DejaVuSans-53"/>
      <use xlink:href="#DejaVuSans-57" x="63.476562"/>
      <use xlink:href="#DejaVuSans-41" x="156.853516"/>
      <use xlink:href="#DejaVuSans-20" x="225.261719"/>
      <use xlink:href="#DejaVuSans-56" x="257.048828"/>
      <use xlink:href="#DejaVuSans-61" x="317.707031"/>
      <use xlink:href="#DejaVuSans-6c" x="378.986328"/>
      <use xlink:href="#DejaVuSans-69" x="406.769531"/>
      <use xlink:href="#DejaVuSans-64" x="434.552734"/>
      <use xlink:href="#DejaVuSans-61" x="498.029297"/>
      <use xlink:href="#DejaVuSans-74" x="559.308594"/>
      <use xlink:href="#DejaVuSans-69" x="598.517578"/>
      <use xlink:href="#DejaVuSans-6f" x="626.300781"/>
      <use xlink:href="#DejaVuSans-6e" x="687.482422"/>
      <use xlink:href="#DejaVuSans-20" x="750.861328"/>
      <use xlink:href="#DejaVuSans-41" x="782.648438"/>
      <use xlink:href="#DejaVuSans-63" x="849.306641"/>
      <use xlink:href="#DejaVuSans-63" x="904.287109"/>
      <use xlink:href="#DejaVuSans-75" x="959.267578"/>
      <use xlink:href="#DejaVuSans-72" x="1022.646484"/>
      <use xlink:href="#DejaVuSans-61" x="1063.759766"/>
      <use xlink:href="#DejaVuSans-63" x="1125.039062"/>
      <use xlink:href="#DejaVuSans-79" x="1180.019531"/>
     </g>
    </g>
    <g id="line2d_28">
     <path d="M 216.18875 293.004312 
L 226.18875 293.004312 
L 236.18875 293.004312 
" style="fill: none; stroke: #9467bd; stroke-width: 1.5; stroke-linecap: square"/>
    </g>
    <g id="text_26">
     <!-- SWA Robust Validation Accuracy -->
     <g transform="translate(244.18875 296.504312) scale(0.1 -0.1)">
      <use xlink:href="#DejaVuSans-53"/>
      <use xlink:href="#DejaVuSans-57" x="63.476562"/>
      <use xlink:href="#DejaVuSans-41" x="156.853516"/>
      <use xlink:href="#DejaVuSans-20" x="225.261719"/>
      <use xlink:href="#DejaVuSans-52" x="257.048828"/>
      <use xlink:href="#DejaVuSans-6f" x="322.03125"/>
      <use xlink:href="#DejaVuSans-62" x="383.212891"/>
      <use xlink:href="#DejaVuSans-75" x="446.689453"/>
      <use xlink:href="#DejaVuSans-73" x="510.068359"/>
      <use xlink:href="#DejaVuSans-74" x="562.167969"/>
      <use xlink:href="#DejaVuSans-20" x="601.376953"/>
      <use xlink:href="#DejaVuSans-56" x="633.164062"/>
      <use xlink:href="#DejaVuSans-61" x="693.822266"/>
      <use xlink:href="#DejaVuSans-6c" x="755.101562"/>
      <use xlink:href="#DejaVuSans-69" x="782.884766"/>
      <use xlink:href="#DejaVuSans-64" x="810.667969"/>
      <use xlink:href="#DejaVuSans-61" x="874.144531"/>
      <use xlink:href="#DejaVuSans-74" x="935.423828"/>
      <use xlink:href="#DejaVuSans-69" x="974.632812"/>
      <use xlink:href="#DejaVuSans-6f" x="1002.416016"/>
      <use xlink:href="#DejaVuSans-6e" x="1063.597656"/>
      <use xlink:href="#DejaVuSans-20" x="1126.976562"/>
      <use xlink:href="#DejaVuSans-41" x="1158.763672"/>
      <use xlink:href="#DejaVuSans-63" x="1225.421875"/>
      <use xlink:href="#DejaVuSans-63" x="1280.402344"/>
      <use xlink:href="#DejaVuSans-75" x="1335.382812"/>
      <use xlink:href="#DejaVuSans-72" x="1398.761719"/>
      <use xlink:href="#DejaVuSans-61" x="1439.875"/>
      <use xlink:href="#DejaVuSans-63" x="1501.154297"/>
      <use xlink:href="#DejaVuSans-79" x="1556.134766"/>
     </g>
    </g>
   </g>
  </g>
 </g>
 <defs>
  <clipPath id="pc0f6cae419">
   <rect x="57.6" y="41.472" width="357.12" height="266.112"/>
  </clipPath>
 </defs>
</svg>
