<?xml version="1.0" encoding="utf-8" standalone="no"?>
<!DOCTYPE svg PUBLIC "-//W3C//DTD SVG 1.1//EN"
  "http://www.w3.org/Graphics/SVG/1.1/DTD/svg11.dtd">
<svg xmlns:xlink="http://www.w3.org/1999/xlink" width="460.8pt" height="345.6pt" viewBox="0 0 460.8 345.6" xmlns="http://www.w3.org/2000/svg" version="1.1">
 <metadata>
  <rdf:RDF xmlns:dc="http://purl.org/dc/elements/1.1/" xmlns:cc="http://creativecommons.org/ns#" xmlns:rdf="http://www.w3.org/1999/02/22-rdf-syntax-ns#">
   <cc:Work>
    <dc:type rdf:resource="http://purl.org/dc/dcmitype/StillImage"/>
    <dc:date>2025-08-12T18:04:56.507608</dc:date>
    <dc:format>image/svg+xml</dc:format>
    <dc:creator>
     <cc:Agent>
      <dc:title>Matplotlib v3.9.1, https://matplotlib.org/</dc:title>
     </cc:Agent>
    </dc:creator>
   </cc:Work>
  </rdf:RDF>
 </metadata>
 <defs>
  <style type="text/css">*{stroke-linejoin: round; stroke-linecap: butt}</style>
 </defs>
 <g id="figure_1">
  <g id="patch_1">
   <path d="M 0 345.6 
L 460.8 345.6 
L 460.8 0 
L 0 0 
z
" style="fill: #ffffff"/>
  </g>
  <g id="axes_1">
   <g id="patch_2">
    <path d="M 57.6 307.584 
L 414.72 307.584 
L 414.72 41.472 
L 57.6 41.472 
z
" style="fill: #ffffff"/>
   </g>
   <g id="matplotlib.axis_1">
    <g id="xtick_1">
     <g id="line2d_1">
      <defs>
       <path id="m09d5438e0f" d="M 0 0 
L 0 3.5 
" style="stroke: #000000; stroke-width: 0.8"/>
      </defs>
      <g>
       <use xlink:href="#m09d5438e0f" x="73.832727" y="307.584" style="stroke: #000000; stroke-width: 0.8"/>
      </g>
     </g>
     <g id="text_1">
      <!-- 1 -->
      <g transform="translate(70.651477 322.182437) scale(0.1 -0.1)">
       <defs>
        <path id="DejaVuSans-31" d="M 794 531 
L 1825 531 
L 1825 4091 
L 703 3866 
L 703 4441 
L 1819 4666 
L 2450 4666 
L 2450 531 
L 3481 531 
L 3481 0 
L 794 0 
L 794 531 
z
" transform="scale(0.015625)"/>
       </defs>
       <use xlink:href="#DejaVuSans-31"/>
      </g>
     </g>
    </g>
    <g id="xtick_2">
     <g id="line2d_2">
      <g>
       <use xlink:href="#m09d5438e0f" x="108.69496" y="307.584" style="stroke: #000000; stroke-width: 0.8"/>
      </g>
     </g>
     <g id="text_2">
      <!-- 17 -->
      <g transform="translate(102.33246 322.182437) scale(0.1 -0.1)">
       <defs>
        <path id="DejaVuSans-37" d="M 525 4666 
L 3525 4666 
L 3525 4397 
L 1831 0 
L 1172 0 
L 2766 4134 
L 525 4134 
L 525 4666 
z
" transform="scale(0.015625)"/>
       </defs>
       <use xlink:href="#DejaVuSans-31"/>
       <use xlink:href="#DejaVuSans-37" x="63.623047"/>
      </g>
     </g>
    </g>
    <g id="xtick_3">
     <g id="line2d_3">
      <g>
       <use xlink:href="#m09d5438e0f" x="145.736083" y="307.584" style="stroke: #000000; stroke-width: 0.8"/>
      </g>
     </g>
     <g id="text_3">
      <!-- 34 -->
      <g transform="translate(139.373583 322.182437) scale(0.1 -0.1)">
       <defs>
        <path id="DejaVuSans-33" d="M 2597 2516 
Q 3050 2419 3304 2112 
Q 3559 1806 3559 1356 
Q 3559 666 3084 287 
Q 2609 -91 1734 -91 
Q 1441 -91 1130 -33 
Q 819 25 488 141 
L 488 750 
Q 750 597 1062 519 
Q 1375 441 1716 441 
Q 2309 441 2620 675 
Q 2931 909 2931 1356 
Q 2931 1769 2642 2001 
Q 2353 2234 1838 2234 
L 1294 2234 
L 1294 2753 
L 1863 2753 
Q 2328 2753 2575 2939 
Q 2822 3125 2822 3475 
Q 2822 3834 2567 4026 
Q 2313 4219 1838 4219 
Q 1578 4219 1281 4162 
Q 984 4106 628 3988 
L 628 4550 
Q 988 4650 1302 4700 
Q 1616 4750 1894 4750 
Q 2613 4750 3031 4423 
Q 3450 4097 3450 3541 
Q 3450 3153 3228 2886 
Q 3006 2619 2597 2516 
z
" transform="scale(0.015625)"/>
        <path id="DejaVuSans-34" d="M 2419 4116 
L 825 1625 
L 2419 1625 
L 2419 4116 
z
M 2253 4666 
L 3047 4666 
L 3047 1625 
L 3713 1625 
L 3713 1100 
L 3047 1100 
L 3047 0 
L 2419 0 
L 2419 1100 
L 313 1100 
L 313 1709 
L 2253 4666 
z
" transform="scale(0.015625)"/>
       </defs>
       <use xlink:href="#DejaVuSans-33"/>
       <use xlink:href="#DejaVuSans-34" x="63.623047"/>
      </g>
     </g>
    </g>
    <g id="xtick_4">
     <g id="line2d_4">
      <g>
       <use xlink:href="#m09d5438e0f" x="180.598316" y="307.584" style="stroke: #000000; stroke-width: 0.8"/>
      </g>
     </g>
     <g id="text_4">
      <!-- 50 -->
      <g transform="translate(174.235816 322.182437) scale(0.1 -0.1)">
       <defs>
        <path id="DejaVuSans-35" d="M 691 4666 
L 3169 4666 
L 3169 4134 
L 1269 4134 
L 1269 2991 
Q 1406 3038 1543 3061 
Q 1681 3084 1819 3084 
Q 2600 3084 3056 2656 
Q 3513 2228 3513 1497 
Q 3513 744 3044 326 
Q 2575 -91 1722 -91 
Q 1428 -91 1123 -41 
Q 819 9 494 109 
L 494 744 
Q 775 591 1075 516 
Q 1375 441 1709 441 
Q 2250 441 2565 725 
Q 2881 1009 2881 1497 
Q 2881 1984 2565 2268 
Q 2250 2553 1709 2553 
Q 1456 2553 1204 2497 
Q 953 2441 691 2322 
L 691 4666 
z
" transform="scale(0.015625)"/>
        <path id="DejaVuSans-30" d="M 2034 4250 
Q 1547 4250 1301 3770 
Q 1056 3291 1056 2328 
Q 1056 1369 1301 889 
Q 1547 409 2034 409 
Q 2525 409 2770 889 
Q 3016 1369 3016 2328 
Q 3016 3291 2770 3770 
Q 2525 4250 2034 4250 
z
M 2034 4750 
Q 2819 4750 3233 4129 
Q 3647 3509 3647 2328 
Q 3647 1150 3233 529 
Q 2819 -91 2034 -91 
Q 1250 -91 836 529 
Q 422 1150 422 2328 
Q 422 3509 836 4129 
Q 1250 4750 2034 4750 
z
" transform="scale(0.015625)"/>
       </defs>
       <use xlink:href="#DejaVuSans-35"/>
       <use xlink:href="#DejaVuSans-30" x="63.623047"/>
      </g>
     </g>
    </g>
    <g id="xtick_5">
     <g id="line2d_5">
      <g>
       <use xlink:href="#m09d5438e0f" x="217.639439" y="307.584" style="stroke: #000000; stroke-width: 0.8"/>
      </g>
     </g>
     <g id="text_5">
      <!-- 67 -->
      <g transform="translate(211.276939 322.182437) scale(0.1 -0.1)">
       <defs>
        <path id="DejaVuSans-36" d="M 2113 2584 
Q 1688 2584 1439 2293 
Q 1191 2003 1191 1497 
Q 1191 994 1439 701 
Q 1688 409 2113 409 
Q 2538 409 2786 701 
Q 3034 994 3034 1497 
Q 3034 2003 2786 2293 
Q 2538 2584 2113 2584 
z
M 3366 4563 
L 3366 3988 
Q 3128 4100 2886 4159 
Q 2644 4219 2406 4219 
Q 1781 4219 1451 3797 
Q 1122 3375 1075 2522 
Q 1259 2794 1537 2939 
Q 1816 3084 2150 3084 
Q 2853 3084 3261 2657 
Q 3669 2231 3669 1497 
Q 3669 778 3244 343 
Q 2819 -91 2113 -91 
Q 1303 -91 875 529 
Q 447 1150 447 2328 
Q 447 3434 972 4092 
Q 1497 4750 2381 4750 
Q 2619 4750 2861 4703 
Q 3103 4656 3366 4563 
z
" transform="scale(0.015625)"/>
       </defs>
       <use xlink:href="#DejaVuSans-36"/>
       <use xlink:href="#DejaVuSans-37" x="63.623047"/>
      </g>
     </g>
    </g>
    <g id="xtick_6">
     <g id="line2d_6">
      <g>
       <use xlink:href="#m09d5438e0f" x="252.501672" y="307.584" style="stroke: #000000; stroke-width: 0.8"/>
      </g>
     </g>
     <g id="text_6">
      <!-- 83 -->
      <g transform="translate(246.139172 322.182437) scale(0.1 -0.1)">
       <defs>
        <path id="DejaVuSans-38" d="M 2034 2216 
Q 1584 2216 1326 1975 
Q 1069 1734 1069 1313 
Q 1069 891 1326 650 
Q 1584 409 2034 409 
Q 2484 409 2743 651 
Q 3003 894 3003 1313 
Q 3003 1734 2745 1975 
Q 2488 2216 2034 2216 
z
M 1403 2484 
Q 997 2584 770 2862 
Q 544 3141 544 3541 
Q 544 4100 942 4425 
Q 1341 4750 2034 4750 
Q 2731 4750 3128 4425 
Q 3525 4100 3525 3541 
Q 3525 3141 3298 2862 
Q 3072 2584 2669 2484 
Q 3125 2378 3379 2068 
Q 3634 1759 3634 1313 
Q 3634 634 3220 271 
Q 2806 -91 2034 -91 
Q 1263 -91 848 271 
Q 434 634 434 1313 
Q 434 1759 690 2068 
Q 947 2378 1403 2484 
z
M 1172 3481 
Q 1172 3119 1398 2916 
Q 1625 2713 2034 2713 
Q 2441 2713 2670 2916 
Q 2900 3119 2900 3481 
Q 2900 3844 2670 4047 
Q 2441 4250 2034 4250 
Q 1625 4250 1398 4047 
Q 1172 3844 1172 3481 
z
" transform="scale(0.015625)"/>
       </defs>
       <use xlink:href="#DejaVuSans-38"/>
       <use xlink:href="#DejaVuSans-33" x="63.623047"/>
      </g>
     </g>
    </g>
    <g id="xtick_7">
     <g id="line2d_7">
      <g>
       <use xlink:href="#m09d5438e0f" x="289.542794" y="307.584" style="stroke: #000000; stroke-width: 0.8"/>
      </g>
     </g>
     <g id="text_7">
      <!-- 100 -->
      <g transform="translate(279.999044 322.182437) scale(0.1 -0.1)">
       <use xlink:href="#DejaVuSans-31"/>
       <use xlink:href="#DejaVuSans-30" x="63.623047"/>
       <use xlink:href="#DejaVuSans-30" x="127.246094"/>
      </g>
     </g>
    </g>
    <g id="xtick_8">
     <g id="line2d_8">
      <g>
       <use xlink:href="#m09d5438e0f" x="324.405027" y="307.584" style="stroke: #000000; stroke-width: 0.8"/>
      </g>
     </g>
     <g id="text_8">
      <!-- 116 -->
      <g transform="translate(314.861277 322.182437) scale(0.1 -0.1)">
       <use xlink:href="#DejaVuSans-31"/>
       <use xlink:href="#DejaVuSans-31" x="63.623047"/>
       <use xlink:href="#DejaVuSans-36" x="127.246094"/>
      </g>
     </g>
    </g>
    <g id="xtick_9">
     <g id="line2d_9">
      <g>
       <use xlink:href="#m09d5438e0f" x="361.44615" y="307.584" style="stroke: #000000; stroke-width: 0.8"/>
      </g>
     </g>
     <g id="text_9">
      <!-- 133 -->
      <g transform="translate(351.9024 322.182437) scale(0.1 -0.1)">
       <use xlink:href="#DejaVuSans-31"/>
       <use xlink:href="#DejaVuSans-33" x="63.623047"/>
       <use xlink:href="#DejaVuSans-33" x="127.246094"/>
      </g>
     </g>
    </g>
    <g id="xtick_10">
     <g id="line2d_10">
      <g>
       <use xlink:href="#m09d5438e0f" x="398.487273" y="307.584" style="stroke: #000000; stroke-width: 0.8"/>
      </g>
     </g>
     <g id="text_10">
      <!-- 150 -->
      <g transform="translate(388.943523 322.182437) scale(0.1 -0.1)">
       <use xlink:href="#DejaVuSans-31"/>
       <use xlink:href="#DejaVuSans-35" x="63.623047"/>
       <use xlink:href="#DejaVuSans-30" x="127.246094"/>
      </g>
     </g>
    </g>
    <g id="text_11">
     <!-- Epochs -->
     <g transform="translate(218.244375 335.860562) scale(0.1 -0.1)">
      <defs>
       <path id="DejaVuSans-45" d="M 628 4666 
L 3578 4666 
L 3578 4134 
L 1259 4134 
L 1259 2753 
L 3481 2753 
L 3481 2222 
L 1259 2222 
L 1259 531 
L 3634 531 
L 3634 0 
L 628 0 
L 628 4666 
z
" transform="scale(0.015625)"/>
       <path id="DejaVuSans-70" d="M 1159 525 
L 1159 -1331 
L 581 -1331 
L 581 3500 
L 1159 3500 
L 1159 2969 
Q 1341 3281 1617 3432 
Q 1894 3584 2278 3584 
Q 2916 3584 3314 3078 
Q 3713 2572 3713 1747 
Q 3713 922 3314 415 
Q 2916 -91 2278 -91 
Q 1894 -91 1617 61 
Q 1341 213 1159 525 
z
M 3116 1747 
Q 3116 2381 2855 2742 
Q 2594 3103 2138 3103 
Q 1681 3103 1420 2742 
Q 1159 2381 1159 1747 
Q 1159 1113 1420 752 
Q 1681 391 2138 391 
Q 2594 391 2855 752 
Q 3116 1113 3116 1747 
z
" transform="scale(0.015625)"/>
       <path id="DejaVuSans-6f" d="M 1959 3097 
Q 1497 3097 1228 2736 
Q 959 2375 959 1747 
Q 959 1119 1226 758 
Q 1494 397 1959 397 
Q 2419 397 2687 759 
Q 2956 1122 2956 1747 
Q 2956 2369 2687 2733 
Q 2419 3097 1959 3097 
z
M 1959 3584 
Q 2709 3584 3137 3096 
Q 3566 2609 3566 1747 
Q 3566 888 3137 398 
Q 2709 -91 1959 -91 
Q 1206 -91 779 398 
Q 353 888 353 1747 
Q 353 2609 779 3096 
Q 1206 3584 1959 3584 
z
" transform="scale(0.015625)"/>
       <path id="DejaVuSans-63" d="M 3122 3366 
L 3122 2828 
Q 2878 2963 2633 3030 
Q 2388 3097 2138 3097 
Q 1578 3097 1268 2742 
Q 959 2388 959 1747 
Q 959 1106 1268 751 
Q 1578 397 2138 397 
Q 2388 397 2633 464 
Q 2878 531 3122 666 
L 3122 134 
Q 2881 22 2623 -34 
Q 2366 -91 2075 -91 
Q 1284 -91 818 406 
Q 353 903 353 1747 
Q 353 2603 823 3093 
Q 1294 3584 2113 3584 
Q 2378 3584 2631 3529 
Q 2884 3475 3122 3366 
z
" transform="scale(0.015625)"/>
       <path id="DejaVuSans-68" d="M 3513 2113 
L 3513 0 
L 2938 0 
L 2938 2094 
Q 2938 2591 2744 2837 
Q 2550 3084 2163 3084 
Q 1697 3084 1428 2787 
Q 1159 2491 1159 1978 
L 1159 0 
L 581 0 
L 581 4863 
L 1159 4863 
L 1159 2956 
Q 1366 3272 1645 3428 
Q 1925 3584 2291 3584 
Q 2894 3584 3203 3211 
Q 3513 2838 3513 2113 
z
" transform="scale(0.015625)"/>
       <path id="DejaVuSans-73" d="M 2834 3397 
L 2834 2853 
Q 2591 2978 2328 3040 
Q 2066 3103 1784 3103 
Q 1356 3103 1142 2972 
Q 928 2841 928 2578 
Q 928 2378 1081 2264 
Q 1234 2150 1697 2047 
L 1894 2003 
Q 2506 1872 2764 1633 
Q 3022 1394 3022 966 
Q 3022 478 2636 193 
Q 2250 -91 1575 -91 
Q 1294 -91 989 -36 
Q 684 19 347 128 
L 347 722 
Q 666 556 975 473 
Q 1284 391 1588 391 
Q 1994 391 2212 530 
Q 2431 669 2431 922 
Q 2431 1156 2273 1281 
Q 2116 1406 1581 1522 
L 1381 1569 
Q 847 1681 609 1914 
Q 372 2147 372 2553 
Q 372 3047 722 3315 
Q 1072 3584 1716 3584 
Q 2034 3584 2315 3537 
Q 2597 3491 2834 3397 
z
" transform="scale(0.015625)"/>
      </defs>
      <use xlink:href="#DejaVuSans-45"/>
      <use xlink:href="#DejaVuSans-70" x="63.183594"/>
      <use xlink:href="#DejaVuSans-6f" x="126.660156"/>
      <use xlink:href="#DejaVuSans-63" x="187.841797"/>
      <use xlink:href="#DejaVuSans-68" x="242.822266"/>
      <use xlink:href="#DejaVuSans-73" x="306.201172"/>
     </g>
    </g>
   </g>
   <g id="matplotlib.axis_2">
    <g id="ytick_1">
     <g id="line2d_11">
      <defs>
       <path id="m1f7a71a8af" d="M 0 0 
L -3.5 0 
" style="stroke: #000000; stroke-width: 0.8"/>
      </defs>
      <g>
       <use xlink:href="#m1f7a71a8af" x="57.6" y="295.724182" style="stroke: #000000; stroke-width: 0.8"/>
      </g>
     </g>
     <g id="text_12">
      <!-- 10 -->
      <g transform="translate(37.875 299.5234) scale(0.1 -0.1)">
       <use xlink:href="#DejaVuSans-31"/>
       <use xlink:href="#DejaVuSans-30" x="63.623047"/>
      </g>
     </g>
    </g>
    <g id="ytick_2">
     <g id="line2d_12">
      <g>
       <use xlink:href="#m1f7a71a8af" x="57.6" y="264.606708" style="stroke: #000000; stroke-width: 0.8"/>
      </g>
     </g>
     <g id="text_13">
      <!-- 20 -->
      <g transform="translate(37.875 268.405927) scale(0.1 -0.1)">
       <defs>
        <path id="DejaVuSans-32" d="M 1228 531 
L 3431 531 
L 3431 0 
L 469 0 
L 469 531 
Q 828 903 1448 1529 
Q 2069 2156 2228 2338 
Q 2531 2678 2651 2914 
Q 2772 3150 2772 3378 
Q 2772 3750 2511 3984 
Q 2250 4219 1831 4219 
Q 1534 4219 1204 4116 
Q 875 4013 500 3803 
L 500 4441 
Q 881 4594 1212 4672 
Q 1544 4750 1819 4750 
Q 2544 4750 2975 4387 
Q 3406 4025 3406 3419 
Q 3406 3131 3298 2873 
Q 3191 2616 2906 2266 
Q 2828 2175 2409 1742 
Q 1991 1309 1228 531 
z
" transform="scale(0.015625)"/>
       </defs>
       <use xlink:href="#DejaVuSans-32"/>
       <use xlink:href="#DejaVuSans-30" x="63.623047"/>
      </g>
     </g>
    </g>
    <g id="ytick_3">
     <g id="line2d_13">
      <g>
       <use xlink:href="#m1f7a71a8af" x="57.6" y="233.489234" style="stroke: #000000; stroke-width: 0.8"/>
      </g>
     </g>
     <g id="text_14">
      <!-- 30 -->
      <g transform="translate(37.875 237.288453) scale(0.1 -0.1)">
       <use xlink:href="#DejaVuSans-33"/>
       <use xlink:href="#DejaVuSans-30" x="63.623047"/>
      </g>
     </g>
    </g>
    <g id="ytick_4">
     <g id="line2d_14">
      <g>
       <use xlink:href="#m1f7a71a8af" x="57.6" y="202.37176" style="stroke: #000000; stroke-width: 0.8"/>
      </g>
     </g>
     <g id="text_15">
      <!-- 40 -->
      <g transform="translate(37.875 206.170979) scale(0.1 -0.1)">
       <use xlink:href="#DejaVuSans-34"/>
       <use xlink:href="#DejaVuSans-30" x="63.623047"/>
      </g>
     </g>
    </g>
    <g id="ytick_5">
     <g id="line2d_15">
      <g>
       <use xlink:href="#m1f7a71a8af" x="57.6" y="171.254286" style="stroke: #000000; stroke-width: 0.8"/>
      </g>
     </g>
     <g id="text_16">
      <!-- 50 -->
      <g transform="translate(37.875 175.053505) scale(0.1 -0.1)">
       <use xlink:href="#DejaVuSans-35"/>
       <use xlink:href="#DejaVuSans-30" x="63.623047"/>
      </g>
     </g>
    </g>
    <g id="ytick_6">
     <g id="line2d_16">
      <g>
       <use xlink:href="#m1f7a71a8af" x="57.6" y="140.136812" style="stroke: #000000; stroke-width: 0.8"/>
      </g>
     </g>
     <g id="text_17">
      <!-- 60 -->
      <g transform="translate(37.875 143.936031) scale(0.1 -0.1)">
       <use xlink:href="#DejaVuSans-36"/>
       <use xlink:href="#DejaVuSans-30" x="63.623047"/>
      </g>
     </g>
    </g>
    <g id="ytick_7">
     <g id="line2d_17">
      <g>
       <use xlink:href="#m1f7a71a8af" x="57.6" y="109.019338" style="stroke: #000000; stroke-width: 0.8"/>
      </g>
     </g>
     <g id="text_18">
      <!-- 70 -->
      <g transform="translate(37.875 112.818557) scale(0.1 -0.1)">
       <use xlink:href="#DejaVuSans-37"/>
       <use xlink:href="#DejaVuSans-30" x="63.623047"/>
      </g>
     </g>
    </g>
    <g id="ytick_8">
     <g id="line2d_18">
      <g>
       <use xlink:href="#m1f7a71a8af" x="57.6" y="77.901865" style="stroke: #000000; stroke-width: 0.8"/>
      </g>
     </g>
     <g id="text_19">
      <!-- 80 -->
      <g transform="translate(37.875 81.701083) scale(0.1 -0.1)">
       <use xlink:href="#DejaVuSans-38"/>
       <use xlink:href="#DejaVuSans-30" x="63.623047"/>
      </g>
     </g>
    </g>
    <g id="ytick_9">
     <g id="line2d_19">
      <g>
       <use xlink:href="#m1f7a71a8af" x="57.6" y="46.784391" style="stroke: #000000; stroke-width: 0.8"/>
      </g>
     </g>
     <g id="text_20">
      <!-- 90 -->
      <g transform="translate(37.875 50.583609) scale(0.1 -0.1)">
       <defs>
        <path id="DejaVuSans-39" d="M 703 97 
L 703 672 
Q 941 559 1184 500 
Q 1428 441 1663 441 
Q 2288 441 2617 861 
Q 2947 1281 2994 2138 
Q 2813 1869 2534 1725 
Q 2256 1581 1919 1581 
Q 1219 1581 811 2004 
Q 403 2428 403 3163 
Q 403 3881 828 4315 
Q 1253 4750 1959 4750 
Q 2769 4750 3195 4129 
Q 3622 3509 3622 2328 
Q 3622 1225 3098 567 
Q 2575 -91 1691 -91 
Q 1453 -91 1209 -44 
Q 966 3 703 97 
z
M 1959 2075 
Q 2384 2075 2632 2365 
Q 2881 2656 2881 3163 
Q 2881 3666 2632 3958 
Q 2384 4250 1959 4250 
Q 1534 4250 1286 3958 
Q 1038 3666 1038 3163 
Q 1038 2656 1286 2365 
Q 1534 2075 1959 2075 
z
" transform="scale(0.015625)"/>
       </defs>
       <use xlink:href="#DejaVuSans-39"/>
       <use xlink:href="#DejaVuSans-30" x="63.623047"/>
      </g>
     </g>
    </g>
    <g id="text_21">
     <!-- Accuracy -->
     <g transform="translate(31.795312 197.356125) rotate(-90) scale(0.1 -0.1)">
      <defs>
       <path id="DejaVuSans-41" d="M 2188 4044 
L 1331 1722 
L 3047 1722 
L 2188 4044 
z
M 1831 4666 
L 2547 4666 
L 4325 0 
L 3669 0 
L 3244 1197 
L 1141 1197 
L 716 0 
L 50 0 
L 1831 4666 
z
" transform="scale(0.015625)"/>
       <path id="DejaVuSans-75" d="M 544 1381 
L 544 3500 
L 1119 3500 
L 1119 1403 
Q 1119 906 1312 657 
Q 1506 409 1894 409 
Q 2359 409 2629 706 
Q 2900 1003 2900 1516 
L 2900 3500 
L 3475 3500 
L 3475 0 
L 2900 0 
L 2900 538 
Q 2691 219 2414 64 
Q 2138 -91 1772 -91 
Q 1169 -91 856 284 
Q 544 659 544 1381 
z
M 1991 3584 
L 1991 3584 
z
" transform="scale(0.015625)"/>
       <path id="DejaVuSans-72" d="M 2631 2963 
Q 2534 3019 2420 3045 
Q 2306 3072 2169 3072 
Q 1681 3072 1420 2755 
Q 1159 2438 1159 1844 
L 1159 0 
L 581 0 
L 581 3500 
L 1159 3500 
L 1159 2956 
Q 1341 3275 1631 3429 
Q 1922 3584 2338 3584 
Q 2397 3584 2469 3576 
Q 2541 3569 2628 3553 
L 2631 2963 
z
" transform="scale(0.015625)"/>
       <path id="DejaVuSans-61" d="M 2194 1759 
Q 1497 1759 1228 1600 
Q 959 1441 959 1056 
Q 959 750 1161 570 
Q 1363 391 1709 391 
Q 2188 391 2477 730 
Q 2766 1069 2766 1631 
L 2766 1759 
L 2194 1759 
z
M 3341 1997 
L 3341 0 
L 2766 0 
L 2766 531 
Q 2569 213 2275 61 
Q 1981 -91 1556 -91 
Q 1019 -91 701 211 
Q 384 513 384 1019 
Q 384 1609 779 1909 
Q 1175 2209 1959 2209 
L 2766 2209 
L 2766 2266 
Q 2766 2663 2505 2880 
Q 2244 3097 1772 3097 
Q 1472 3097 1187 3025 
Q 903 2953 641 2809 
L 641 3341 
Q 956 3463 1253 3523 
Q 1550 3584 1831 3584 
Q 2591 3584 2966 3190 
Q 3341 2797 3341 1997 
z
" transform="scale(0.015625)"/>
       <path id="DejaVuSans-79" d="M 2059 -325 
Q 1816 -950 1584 -1140 
Q 1353 -1331 966 -1331 
L 506 -1331 
L 506 -850 
L 844 -850 
Q 1081 -850 1212 -737 
Q 1344 -625 1503 -206 
L 1606 56 
L 191 3500 
L 800 3500 
L 1894 763 
L 2988 3500 
L 3597 3500 
L 2059 -325 
z
" transform="scale(0.015625)"/>
      </defs>
      <use xlink:href="#DejaVuSans-41"/>
      <use xlink:href="#DejaVuSans-63" x="66.658203"/>
      <use xlink:href="#DejaVuSans-63" x="121.638672"/>
      <use xlink:href="#DejaVuSans-75" x="176.619141"/>
      <use xlink:href="#DejaVuSans-72" x="239.998047"/>
      <use xlink:href="#DejaVuSans-61" x="281.111328"/>
      <use xlink:href="#DejaVuSans-63" x="342.390625"/>
      <use xlink:href="#DejaVuSans-79" x="397.371094"/>
     </g>
    </g>
   </g>
   <g id="line2d_20">
    <path d="M 73.832727 295.269867 
L 76.011617 265.054799 
L 78.190506 246.676819 
L 80.369396 233.209177 
L 82.548286 222.585671 
L 84.727175 213.642509 
L 89.084954 198.139784 
L 91.263844 192.339486 
L 93.442733 189.501573 
L 95.621623 210.132458 
L 99.979402 199.857468 
L 104.337181 189.38955 
L 106.516071 185.076668 
L 115.231629 168.752441 
L 117.410519 164.5827 
L 119.589408 160.885944 
L 123.947187 152.577578 
L 126.126077 149.708547 
L 128.304966 145.962003 
L 130.483856 143.3917 
L 132.662746 141.537099 
L 134.841635 139.358875 
L 137.020525 138.730302 
L 139.199414 167.283696 
L 141.378304 167.924716 
L 143.557193 164.694723 
L 145.736083 163.636729 
L 147.914973 160.842379 
L 150.093862 159.249165 
L 152.272752 157.151847 
L 154.451641 153.691584 
L 156.630531 151.24575 
L 158.80942 149.608971 
L 160.98831 147.524101 
L 163.1672 144.412353 
L 165.346089 142.302588 
L 167.524979 139.483345 
L 169.703868 137.242887 
L 171.882758 134.809501 
L 174.061647 132.046269 
L 176.240537 129.780917 
L 178.419426 126.532253 
L 180.598316 123.681892 
L 182.777206 119.76109 
L 184.956095 117.825584 
L 189.313874 112.877905 
L 193.671653 106.822445 
L 195.850543 105.403488 
L 198.029433 101.999236 
L 200.208322 100.654961 
L 202.387212 97.817048 
L 204.566101 94.549713 
L 206.744991 93.466825 
L 208.92388 92.116327 
L 211.10277 90.423536 
L 213.28166 89.552247 
L 215.460549 87.037955 
L 217.639439 87.641634 
L 219.818328 86.988167 
L 221.997218 85.948843 
L 224.176107 85.861714 
L 226.354997 128.760264 
L 228.533887 130.726888 
L 230.712776 130.415713 
L 232.891666 129.581765 
L 235.070555 127.808069 
L 237.249445 127.017685 
L 239.428334 125.318671 
L 241.607224 124.385147 
L 245.965003 120.669721 
L 248.143893 120.470569 
L 250.322782 118.198993 
L 252.501672 117.140999 
L 254.680561 119.437469 
L 256.859451 115.946088 
L 259.03834 114.259521 
L 261.21723 113.811429 
L 263.39612 110.705906 
L 265.575009 110.12712 
L 267.753899 109.865734 
L 269.932788 108.359648 
L 272.111678 106.206319 
L 274.290567 105.546628 
L 276.469457 103.853838 
L 278.648347 102.609139 
L 280.827236 102.497116 
L 283.006126 101.015924 
L 285.185015 98.439397 
L 287.363905 97.312945 
L 289.542794 96.528784 
L 291.721684 95.458343 
L 293.900574 94.54349 
L 296.079463 92.558195 
L 300.437242 90.977427 
L 302.616132 87.834562 
L 304.795021 87.187319 
L 306.973911 86.278689 
L 309.1528 84.380523 
L 311.33169 84.100465 
L 313.51058 82.034265 
L 315.689469 81.430586 
L 317.868359 79.53242 
L 320.047248 77.939206 
L 322.226138 76.657166 
L 324.405027 74.964375 
L 326.583917 74.267344 
L 328.762807 72.593224 
L 330.941696 71.192937 
L 333.120586 70.041591 
L 335.299475 68.467046 
L 339.657254 67.079207 
L 341.836144 65.243276 
L 344.015034 63.96746 
L 346.193923 62.841007 
L 348.372813 61.266463 
L 350.551702 60.538314 
L 354.909481 58.521902 
L 357.088371 57.090498 
L 359.267261 56.854005 
L 361.44615 55.75867 
L 363.62504 55.534624 
L 365.803929 54.383278 
L 367.982819 53.580447 
L 370.161708 53.568 
L 372.340598 54.507748 
L 374.519487 55.895587 
L 376.698377 56.082292 
L 378.877267 57.395449 
L 381.056156 57.644389 
L 383.235046 57.395449 
L 385.413935 57.874658 
L 387.592825 57.121616 
L 391.950604 57.439014 
L 394.129494 56.978475 
L 396.308383 56.717088 
L 398.487273 56.903793 
L 398.487273 56.903793 
" clip-path="url(#pb9a1d6e283)" style="fill: none; stroke: #1f77b4; stroke-width: 1.5; stroke-linecap: square"/>
   </g>
   <g id="line2d_21">
    <path d="M 73.832727 288.442693 
L 76.011617 262.055075 
L 78.190506 242.388831 
L 80.369396 231.622185 
L 82.548286 224.371814 
L 84.727175 216.561328 
L 86.906065 206.012504 
L 89.084954 204.985628 
L 91.263844 197.081789 
L 93.442733 197.828609 
L 95.621623 217.090325 
L 99.979402 211.61365 
L 102.158292 200.909239 
L 104.337181 195.214741 
L 106.516071 195.650386 
L 108.69496 189.240186 
L 110.87385 183.234514 
L 113.052739 184.51033 
L 115.231629 182.612164 
L 117.410519 175.237323 
L 119.589408 176.606492 
L 121.768298 175.14397 
L 123.947187 173.525862 
L 126.126077 169.076063 
L 128.304966 171.005346 
L 130.483856 167.14678 
L 132.662746 168.515948 
L 134.841635 169.23165 
L 137.020525 164.035032 
L 139.199414 186.003969 
L 141.378304 184.790387 
L 143.557193 182.083167 
L 145.736083 177.042136 
L 147.914973 180.682881 
L 150.093862 177.384429 
L 152.272752 173.121335 
L 154.451641 174.085976 
L 156.630531 173.245804 
L 158.80942 170.10294 
L 160.98831 168.515948 
L 165.346089 170.009587 
L 167.524979 165.061909 
L 169.703868 167.986951 
L 171.882758 165.933198 
L 174.061647 165.061909 
L 176.240537 163.879445 
L 178.419426 163.599388 
L 180.598316 160.643228 
L 182.777206 161.390047 
L 184.956095 160.456523 
L 187.134985 159.989761 
L 191.492764 161.950161 
L 193.671653 160.86105 
L 195.850543 156.193429 
L 198.029433 156.068959 
L 200.208322 155.32214 
L 202.387212 154.82426 
L 206.744991 154.637555 
L 208.92388 157.313658 
L 211.10277 156.349016 
L 213.28166 156.535721 
L 215.460549 152.521567 
L 217.639439 153.921853 
L 219.818328 152.428214 
L 221.997218 152.24151 
L 224.176107 152.521567 
L 226.354997 167.893599 
L 228.533887 170.165175 
L 230.712776 171.565461 
L 232.891666 166.6489 
L 235.070555 168.733771 
L 237.249445 163.599388 
L 239.428334 164.377324 
L 241.607224 168.764888 
L 243.786113 168.920476 
L 245.965003 167.520189 
L 248.143893 165.528671 
L 250.322782 165.466436 
L 252.501672 169.449473 
L 254.680561 163.723857 
L 256.859451 165.155261 
L 259.03834 167.115662 
L 261.21723 167.769129 
L 263.39612 163.070391 
L 265.575009 167.14678 
L 267.753899 162.043514 
L 272.111678 162.323571 
L 274.290567 164.346207 
L 276.469457 164.003915 
L 278.648347 165.030791 
L 280.827236 161.483399 
L 283.006126 162.448041 
L 285.185015 164.719617 
L 287.363905 162.167984 
L 289.542794 162.074631 
L 291.721684 163.81721 
L 296.079463 160.923285 
L 298.258353 161.483399 
L 300.437242 160.207583 
L 302.616132 160.051996 
L 304.795021 158.962884 
L 306.973911 161.638987 
L 309.1528 159.274059 
L 311.33169 158.184947 
L 313.51058 158.651709 
L 315.689469 157.500363 
L 317.868359 158.216065 
L 320.047248 161.016637 
L 322.226138 158.060477 
L 324.405027 157.438128 
L 326.583917 156.411251 
L 328.762807 156.878013 
L 330.941696 156.100076 
L 333.120586 158.589474 
L 337.478365 154.233028 
L 339.657254 156.815778 
L 341.836144 155.788902 
L 344.015034 156.380134 
L 346.193923 154.793142 
L 348.372813 156.224546 
L 350.551702 154.762025 
L 352.730592 153.859618 
L 354.909481 155.010965 
L 357.088371 153.859618 
L 359.267261 153.890736 
L 361.44615 155.384374 
L 363.62504 155.259905 
L 365.803929 154.357498 
L 367.982819 155.228787 
L 370.161708 154.357498 
L 372.340598 155.228787 
L 374.519487 156.442369 
L 376.698377 153.859618 
L 378.877267 154.233028 
L 381.056156 155.664432 
L 383.235046 155.508844 
L 385.413935 154.419733 
L 389.771714 153.952971 
L 391.950604 153.486209 
L 394.129494 155.135435 
L 396.308383 154.419733 
L 398.487273 154.513085 
L 398.487273 154.513085 
" clip-path="url(#pb9a1d6e283)" style="fill: none; stroke: #ff7f0e; stroke-width: 1.5; stroke-linecap: square"/>
   </g>
   <g id="line2d_22">
    <path d="M 73.832727 295.488 
L 76.011617 271.989017 
L 78.190506 254.949711 
L 80.369396 249.927973 
L 82.548286 240.463904 
L 84.727175 233.253052 
L 86.906065 224.819283 
L 89.084954 224.282818 
L 91.263844 216.836095 
L 93.442733 217.329619 
L 95.621623 231.557772 
L 97.800513 236.472155 
L 99.979402 232.094238 
L 102.158292 219.325493 
L 104.337181 218.18815 
L 106.516071 217.930497 
L 108.69496 213.273456 
L 110.87385 209.904367 
L 113.052739 209.990251 
L 115.231629 208.402015 
L 117.410519 200.612067 
L 119.589408 202.672355 
L 121.768298 200.290001 
L 123.947187 198.337068 
L 126.126077 195.933555 
L 128.304966 197.822074 
L 130.483856 193.830636 
L 132.662746 196.362976 
L 134.841635 195.912084 
L 137.020525 192.070943 
L 139.199414 210.912884 
L 141.378304 210.934355 
L 145.736083 203.423316 
L 147.914973 205.826873 
L 150.093862 206.406301 
L 152.272752 201.663569 
L 154.451641 201.513347 
L 156.630531 202.221538 
L 158.80942 196.813535 
L 160.98831 198.530362 
L 163.1672 196.792075 
L 165.346089 198.659123 
L 167.524979 194.066614 
L 169.703868 196.792075 
L 171.882758 197.13544 
L 174.061647 196.792075 
L 176.240537 196.620392 
L 178.419426 195.461535 
L 180.598316 191.641597 
L 182.777206 190.997787 
L 184.956095 192.027883 
L 187.134985 190.826104 
L 189.313874 192.843375 
L 193.671653 192.950677 
L 195.850543 188.465468 
L 198.029433 189.21658 
L 200.208322 189.345342 
L 204.566101 186.834483 
L 206.744991 188.315246 
L 208.92388 188.658611 
L 211.10277 188.615691 
L 213.28166 188.293786 
L 215.460549 185.482483 
L 217.639439 187.220769 
L 219.818328 185.139118 
L 221.997218 185.010356 
L 224.176107 185.224959 
L 226.354997 196.770615 
L 228.533887 199.367314 
L 230.712776 200.354489 
L 232.891666 198.294298 
L 235.070555 199.581918 
L 237.249445 196.684773 
L 239.428334 196.556011 
L 241.607224 199.302933 
L 243.786113 201.234363 
L 245.965003 200.268648 
L 248.143893 194.388518 
L 250.322782 199.860902 
L 252.501672 199.538997 
L 254.680561 193.83055 
L 256.859451 195.525916 
L 259.03834 199.152711 
L 261.21723 199.260013 
L 263.39612 195.16109 
L 265.575009 199.217092 
L 267.753899 195.225471 
L 269.932788 196.126805 
L 272.111678 198.272838 
L 274.290567 198.122615 
L 276.469457 197.350044 
L 278.648347 197.80071 
L 280.827236 196.598932 
L 283.006126 193.122359 
L 285.185015 196.319948 
L 287.363905 192.778994 
L 289.542794 193.401343 
L 291.721684 196.834996 
L 293.900574 195.204011 
L 296.079463 192.607311 
L 298.258353 194.109534 
L 300.437242 194.195376 
L 302.616132 192.54293 
L 304.795021 192.306867 
L 306.973911 194.710423 
L 309.1528 191.21239 
L 311.33169 193.465724 
L 313.51058 190.890485 
L 315.689469 191.426993 
L 317.868359 193.637407 
L 320.047248 192.54293 
L 322.226138 190.268136 
L 324.405027 190.654422 
L 326.583917 191.727438 
L 328.762807 189.92477 
L 330.941696 190.225215 
L 333.120586 192.156644 
L 335.299475 190.697342 
L 337.478365 188.57277 
L 339.657254 191.942041 
L 341.836144 189.23804 
L 344.015034 190.439818 
L 346.193923 190.56858 
L 348.372813 189.796009 
L 350.551702 188.787373 
L 352.730592 188.293786 
L 354.909481 189.431183 
L 357.088371 187.585595 
L 359.267261 186.984706 
L 361.44615 188.722992 
L 363.62504 188.379627 
L 365.803929 189.366802 
L 372.340598 189.431183 
L 374.519487 189.280961 
L 376.698377 187.220769 
L 378.877267 188.143563 
L 381.056156 188.315246 
L 383.235046 188.315246 
L 385.413935 186.898864 
L 387.592825 187.607055 
L 389.771714 189.946231 
L 391.950604 189.688707 
L 394.129494 188.722992 
L 396.308383 186.834483 
L 398.487273 187.628516 
L 398.487273 187.628516 
" clip-path="url(#pb9a1d6e283)" style="fill: none; stroke: #2ca02c; stroke-width: 1.5; stroke-linecap: square"/>
   </g>
   <g id="line2d_23">
    <path d="M 370.161708 155.19767 
L 372.340598 154.108558 
L 374.519487 153.579561 
L 376.698377 150.125521 
L 378.877267 153.704031 
L 381.056156 152.894977 
L 383.235046 152.24151 
L 385.413935 150.716753 
L 387.592825 150.872341 
L 389.771714 151.556925 
L 391.950604 150.965693 
L 394.129494 152.303745 
L 396.308383 154.139676 
L 398.487273 152.334862 
L 398.487273 152.334862 
" clip-path="url(#pb9a1d6e283)" style="fill: none; stroke: #d62728; stroke-width: 1.5; stroke-linecap: square"/>
   </g>
   <g id="line2d_24">
    <path d="M 370.161708 189.023437 
L 372.340598 189.023437 
L 374.519487 187.692896 
L 376.698377 185.332261 
L 378.877267 188.830294 
L 381.056156 185.568324 
L 383.235046 186.212134 
L 385.413935 186.662801 
L 387.592825 186.920325 
L 391.950604 188.529849 
L 394.129494 188.55131 
L 396.308383 191.040707 
L 398.487273 188.873214 
L 398.487273 188.873214 
" clip-path="url(#pb9a1d6e283)" style="fill: none; stroke: #9467bd; stroke-width: 1.5; stroke-linecap: square"/>
   </g>
   <g id="patch_3">
    <path d="M 57.6 307.584 
L 57.6 41.472 
" style="fill: none; stroke: #000000; stroke-width: 0.8; stroke-linejoin: miter; stroke-linecap: square"/>
   </g>
   <g id="patch_4">
    <path d="M 414.72 307.584 
L 414.72 41.472 
" style="fill: none; stroke: #000000; stroke-width: 0.8; stroke-linejoin: miter; stroke-linecap: square"/>
   </g>
   <g id="patch_5">
    <path d="M 57.6 307.584 
L 414.72 307.584 
" style="fill: none; stroke: #000000; stroke-width: 0.8; stroke-linejoin: miter; stroke-linecap: square"/>
   </g>
   <g id="patch_6">
    <path d="M 57.6 41.472 
L 414.72 41.472 
" style="fill: none; stroke: #000000; stroke-width: 0.8; stroke-linejoin: miter; stroke-linecap: square"/>
   </g>
   <g id="text_22">
    <!-- Learning Curves -->
    <g transform="translate(187.37625 35.472) scale(0.12 -0.12)">
     <defs>
      <path id="DejaVuSans-4c" d="M 628 4666 
L 1259 4666 
L 1259 531 
L 3531 531 
L 3531 0 
L 628 0 
L 628 4666 
z
" transform="scale(0.015625)"/>
      <path id="DejaVuSans-65" d="M 3597 1894 
L 3597 1613 
L 953 1613 
Q 991 1019 1311 708 
Q 1631 397 2203 397 
Q 2534 397 2845 478 
Q 3156 559 3463 722 
L 3463 178 
Q 3153 47 2828 -22 
Q 2503 -91 2169 -91 
Q 1331 -91 842 396 
Q 353 884 353 1716 
Q 353 2575 817 3079 
Q 1281 3584 2069 3584 
Q 2775 3584 3186 3129 
Q 3597 2675 3597 1894 
z
M 3022 2063 
Q 3016 2534 2758 2815 
Q 2500 3097 2075 3097 
Q 1594 3097 1305 2825 
Q 1016 2553 972 2059 
L 3022 2063 
z
" transform="scale(0.015625)"/>
      <path id="DejaVuSans-6e" d="M 3513 2113 
L 3513 0 
L 2938 0 
L 2938 2094 
Q 2938 2591 2744 2837 
Q 2550 3084 2163 3084 
Q 1697 3084 1428 2787 
Q 1159 2491 1159 1978 
L 1159 0 
L 581 0 
L 581 3500 
L 1159 3500 
L 1159 2956 
Q 1366 3272 1645 3428 
Q 1925 3584 2291 3584 
Q 2894 3584 3203 3211 
Q 3513 2838 3513 2113 
z
" transform="scale(0.015625)"/>
      <path id="DejaVuSans-69" d="M 603 3500 
L 1178 3500 
L 1178 0 
L 603 0 
L 603 3500 
z
M 603 4863 
L 1178 4863 
L 1178 4134 
L 603 4134 
L 603 4863 
z
" transform="scale(0.015625)"/>
      <path id="DejaVuSans-67" d="M 2906 1791 
Q 2906 2416 2648 2759 
Q 2391 3103 1925 3103 
Q 1463 3103 1205 2759 
Q 947 2416 947 1791 
Q 947 1169 1205 825 
Q 1463 481 1925 481 
Q 2391 481 2648 825 
Q 2906 1169 2906 1791 
z
M 3481 434 
Q 3481 -459 3084 -895 
Q 2688 -1331 1869 -1331 
Q 1566 -1331 1297 -1286 
Q 1028 -1241 775 -1147 
L 775 -588 
Q 1028 -725 1275 -790 
Q 1522 -856 1778 -856 
Q 2344 -856 2625 -561 
Q 2906 -266 2906 331 
L 2906 616 
Q 2728 306 2450 153 
Q 2172 0 1784 0 
Q 1141 0 747 490 
Q 353 981 353 1791 
Q 353 2603 747 3093 
Q 1141 3584 1784 3584 
Q 2172 3584 2450 3431 
Q 2728 3278 2906 2969 
L 2906 3500 
L 3481 3500 
L 3481 434 
z
" transform="scale(0.015625)"/>
      <path id="DejaVuSans-20" transform="scale(0.015625)"/>
      <path id="DejaVuSans-43" d="M 4122 4306 
L 4122 3641 
Q 3803 3938 3442 4084 
Q 3081 4231 2675 4231 
Q 1875 4231 1450 3742 
Q 1025 3253 1025 2328 
Q 1025 1406 1450 917 
Q 1875 428 2675 428 
Q 3081 428 3442 575 
Q 3803 722 4122 1019 
L 4122 359 
Q 3791 134 3420 21 
Q 3050 -91 2638 -91 
Q 1578 -91 968 557 
Q 359 1206 359 2328 
Q 359 3453 968 4101 
Q 1578 4750 2638 4750 
Q 3056 4750 3426 4639 
Q 3797 4528 4122 4306 
z
" transform="scale(0.015625)"/>
      <path id="DejaVuSans-76" d="M 191 3500 
L 800 3500 
L 1894 563 
L 2988 3500 
L 3597 3500 
L 2284 0 
L 1503 0 
L 191 3500 
z
" transform="scale(0.015625)"/>
     </defs>
     <use xlink:href="#DejaVuSans-4c"/>
     <use xlink:href="#DejaVuSans-65" x="53.962891"/>
     <use xlink:href="#DejaVuSans-61" x="115.486328"/>
     <use xlink:href="#DejaVuSans-72" x="176.765625"/>
     <use xlink:href="#DejaVuSans-6e" x="216.128906"/>
     <use xlink:href="#DejaVuSans-69" x="279.507812"/>
     <use xlink:href="#DejaVuSans-6e" x="307.291016"/>
     <use xlink:href="#DejaVuSans-67" x="370.669922"/>
     <use xlink:href="#DejaVuSans-20" x="434.146484"/>
     <use xlink:href="#DejaVuSans-43" x="465.933594"/>
     <use xlink:href="#DejaVuSans-75" x="535.757812"/>
     <use xlink:href="#DejaVuSans-72" x="599.136719"/>
     <use xlink:href="#DejaVuSans-76" x="640.25"/>
     <use xlink:href="#DejaVuSans-65" x="699.429688"/>
     <use xlink:href="#DejaVuSans-73" x="760.953125"/>
    </g>
   </g>
   <g id="legend_1">
    <g id="patch_7">
     <path d="M 214.18875 302.584 
L 407.72 302.584 
Q 409.72 302.584 409.72 300.584 
L 409.72 228.193375 
Q 409.72 226.193375 407.72 226.193375 
L 214.18875 226.193375 
Q 212.18875 226.193375 212.18875 228.193375 
L 212.18875 300.584 
Q 212.18875 302.584 214.18875 302.584 
z
" style="fill: #ffffff; opacity: 0.8; stroke: #cccccc; stroke-linejoin: miter"/>
    </g>
    <g id="line2d_25">
     <path d="M 216.18875 234.291812 
L 226.18875 234.291812 
L 236.18875 234.291812 
" style="fill: none; stroke: #1f77b4; stroke-width: 1.5; stroke-linecap: square"/>
    </g>
    <g id="text_23">
     <!-- Train Accuracy -->
     <g transform="translate(244.18875 237.791812) scale(0.1 -0.1)">
      <defs>
       <path id="DejaVuSans-54" d="M -19 4666 
L 3928 4666 
L 3928 4134 
L 2272 4134 
L 2272 0 
L 1638 0 
L 1638 4134 
L -19 4134 
L -19 4666 
z
" transform="scale(0.015625)"/>
      </defs>
      <use xlink:href="#DejaVuSans-54"/>
      <use xlink:href="#DejaVuSans-72" x="46.333984"/>
      <use xlink:href="#DejaVuSans-61" x="87.447266"/>
      <use xlink:href="#DejaVuSans-69" x="148.726562"/>
      <use xlink:href="#DejaVuSans-6e" x="176.509766"/>
      <use xlink:href="#DejaVuSans-20" x="239.888672"/>
      <use xlink:href="#DejaVuSans-41" x="271.675781"/>
      <use xlink:href="#DejaVuSans-63" x="338.333984"/>
      <use xlink:href="#DejaVuSans-63" x="393.314453"/>
      <use xlink:href="#DejaVuSans-75" x="448.294922"/>
      <use xlink:href="#DejaVuSans-72" x="511.673828"/>
      <use xlink:href="#DejaVuSans-61" x="552.787109"/>
      <use xlink:href="#DejaVuSans-63" x="614.066406"/>
      <use xlink:href="#DejaVuSans-79" x="669.046875"/>
     </g>
    </g>
    <g id="line2d_26">
     <path d="M 216.18875 248.969937 
L 226.18875 248.969937 
L 236.18875 248.969937 
" style="fill: none; stroke: #ff7f0e; stroke-width: 1.5; stroke-linecap: square"/>
    </g>
    <g id="text_24">
     <!-- Validation Accuracy -->
     <g transform="translate(244.18875 252.469937) scale(0.1 -0.1)">
      <defs>
       <path id="DejaVuSans-56" d="M 1831 0 
L 50 4666 
L 709 4666 
L 2188 738 
L 3669 4666 
L 4325 4666 
L 2547 0 
L 1831 0 
z
" transform="scale(0.015625)"/>
       <path id="DejaVuSans-6c" d="M 603 4863 
L 1178 4863 
L 1178 0 
L 603 0 
L 603 4863 
z
" transform="scale(0.015625)"/>
       <path id="DejaVuSans-64" d="M 2906 2969 
L 2906 4863 
L 3481 4863 
L 3481 0 
L 2906 0 
L 2906 525 
Q 2725 213 2448 61 
Q 2172 -91 1784 -91 
Q 1150 -91 751 415 
Q 353 922 353 1747 
Q 353 2572 751 3078 
Q 1150 3584 1784 3584 
Q 2172 3584 2448 3432 
Q 2725 3281 2906 2969 
z
M 947 1747 
Q 947 1113 1208 752 
Q 1469 391 1925 391 
Q 2381 391 2643 752 
Q 2906 1113 2906 1747 
Q 2906 2381 2643 2742 
Q 2381 3103 1925 3103 
Q 1469 3103 1208 2742 
Q 947 2381 947 1747 
z
" transform="scale(0.015625)"/>
       <path id="DejaVuSans-74" d="M 1172 4494 
L 1172 3500 
L 2356 3500 
L 2356 3053 
L 1172 3053 
L 1172 1153 
Q 1172 725 1289 603 
Q 1406 481 1766 481 
L 2356 481 
L 2356 0 
L 1766 0 
Q 1100 0 847 248 
Q 594 497 594 1153 
L 594 3053 
L 172 3053 
L 172 3500 
L 594 3500 
L 594 4494 
L 1172 4494 
z
" transform="scale(0.015625)"/>
      </defs>
      <use xlink:href="#DejaVuSans-56"/>
      <use xlink:href="#DejaVuSans-61" x="60.658203"/>
      <use xlink:href="#DejaVuSans-6c" x="121.9375"/>
      <use xlink:href="#DejaVuSans-69" x="149.720703"/>
      <use xlink:href="#DejaVuSans-64" x="177.503906"/>
      <use xlink:href="#DejaVuSans-61" x="240.980469"/>
      <use xlink:href="#DejaVuSans-74" x="302.259766"/>
      <use xlink:href="#DejaVuSans-69" x="341.46875"/>
      <use xlink:href="#DejaVuSans-6f" x="369.251953"/>
      <use xlink:href="#DejaVuSans-6e" x="430.433594"/>
      <use xlink:href="#DejaVuSans-20" x="493.8125"/>
      <use xlink:href="#DejaVuSans-41" x="525.599609"/>
      <use xlink:href="#DejaVuSans-63" x="592.257812"/>
      <use xlink:href="#DejaVuSans-63" x="647.238281"/>
      <use xlink:href="#DejaVuSans-75" x="702.21875"/>
      <use xlink:href="#DejaVuSans-72" x="765.597656"/>
      <use xlink:href="#DejaVuSans-61" x="806.710938"/>
      <use xlink:href="#DejaVuSans-63" x="867.990234"/>
      <use xlink:href="#DejaVuSans-79" x="922.970703"/>
     </g>
    </g>
    <g id="line2d_27">
     <path d="M 216.18875 263.648062 
L 226.18875 263.648062 
L 236.18875 263.648062 
" style="fill: none; stroke: #2ca02c; stroke-width: 1.5; stroke-linecap: square"/>
    </g>
    <g id="text_25">
     <!-- Robust Validation Accuracy -->
     <g transform="translate(244.18875 267.148062) scale(0.1 -0.1)">
      <defs>
       <path id="DejaVuSans-52" d="M 2841 2188 
Q 3044 2119 3236 1894 
Q 3428 1669 3622 1275 
L 4263 0 
L 3584 0 
L 2988 1197 
Q 2756 1666 2539 1819 
Q 2322 1972 1947 1972 
L 1259 1972 
L 1259 0 
L 628 0 
L 628 4666 
L 2053 4666 
Q 2853 4666 3247 4331 
Q 3641 3997 3641 3322 
Q 3641 2881 3436 2590 
Q 3231 2300 2841 2188 
z
M 1259 4147 
L 1259 2491 
L 2053 2491 
Q 2509 2491 2742 2702 
Q 2975 2913 2975 3322 
Q 2975 3731 2742 3939 
Q 2509 4147 2053 4147 
L 1259 4147 
z
" transform="scale(0.015625)"/>
       <path id="DejaVuSans-62" d="M 3116 1747 
Q 3116 2381 2855 2742 
Q 2594 3103 2138 3103 
Q 1681 3103 1420 2742 
Q 1159 2381 1159 1747 
Q 1159 1113 1420 752 
Q 1681 391 2138 391 
Q 2594 391 2855 752 
Q 3116 1113 3116 1747 
z
M 1159 2969 
Q 1341 3281 1617 3432 
Q 1894 3584 2278 3584 
Q 2916 3584 3314 3078 
Q 3713 2572 3713 1747 
Q 3713 922 3314 415 
Q 2916 -91 2278 -91 
Q 1894 -91 1617 61 
Q 1341 213 1159 525 
L 1159 0 
L 581 0 
L 581 4863 
L 1159 4863 
L 1159 2969 
z
" transform="scale(0.015625)"/>
      </defs>
      <use xlink:href="#DejaVuSans-52"/>
      <use xlink:href="#DejaVuSans-6f" x="64.982422"/>
      <use xlink:href="#DejaVuSans-62" x="126.164062"/>
      <use xlink:href="#DejaVuSans-75" x="189.640625"/>
      <use xlink:href="#DejaVuSans-73" x="253.019531"/>
      <use xlink:href="#DejaVuSans-74" x="305.119141"/>
      <use xlink:href="#DejaVuSans-20" x="344.328125"/>
      <use xlink:href="#DejaVuSans-56" x="376.115234"/>
      <use xlink:href="#DejaVuSans-61" x="436.773438"/>
      <use xlink:href="#DejaVuSans-6c" x="498.052734"/>
      <use xlink:href="#DejaVuSans-69" x="525.835938"/>
      <use xlink:href="#DejaVuSans-64" x="553.619141"/>
      <use xlink:href="#DejaVuSans-61" x="617.095703"/>
      <use xlink:href="#DejaVuSans-74" x="678.375"/>
      <use xlink:href="#DejaVuSans-69" x="717.583984"/>
      <use xlink:href="#DejaVuSans-6f" x="745.367188"/>
      <use xlink:href="#DejaVuSans-6e" x="806.548828"/>
      <use xlink:href="#DejaVuSans-20" x="869.927734"/>
      <use xlink:href="#DejaVuSans-41" x="901.714844"/>
      <use xlink:href="#DejaVuSans-63" x="968.373047"/>
      <use xlink:href="#DejaVuSans-63" x="1023.353516"/>
      <use xlink:href="#DejaVuSans-75" x="1078.333984"/>
      <use xlink:href="#DejaVuSans-72" x="1141.712891"/>
      <use xlink:href="#DejaVuSans-61" x="1182.826172"/>
      <use xlink:href="#DejaVuSans-63" x="1244.105469"/>
      <use xlink:href="#DejaVuSans-79" x="1299.085938"/>
     </g>
    </g>
    <g id="line2d_28">
     <path d="M 216.18875 278.326188 
L 226.18875 278.326188 
L 236.18875 278.326188 
" style="fill: none; stroke: #d62728; stroke-width: 1.5; stroke-linecap: square"/>
    </g>
    <g id="text_26">
     <!-- SWA Validation Accuracy -->
     <g transform="translate(244.18875 281.826188) scale(0.1 -0.1)">
      <defs>
       <path id="DejaVuSans-53" d="M 3425 4513 
L 3425 3897 
Q 3066 4069 2747 4153 
Q 2428 4238 2131 4238 
Q 1616 4238 1336 4038 
Q 1056 3838 1056 3469 
Q 1056 3159 1242 3001 
Q 1428 2844 1947 2747 
L 2328 2669 
Q 3034 2534 3370 2195 
Q 3706 1856 3706 1288 
Q 3706 609 3251 259 
Q 2797 -91 1919 -91 
Q 1588 -91 1214 -16 
Q 841 59 441 206 
L 441 856 
Q 825 641 1194 531 
Q 1563 422 1919 422 
Q 2459 422 2753 634 
Q 3047 847 3047 1241 
Q 3047 1584 2836 1778 
Q 2625 1972 2144 2069 
L 1759 2144 
Q 1053 2284 737 2584 
Q 422 2884 422 3419 
Q 422 4038 858 4394 
Q 1294 4750 2059 4750 
Q 2388 4750 2728 4690 
Q 3069 4631 3425 4513 
z
" transform="scale(0.015625)"/>
       <path id="DejaVuSans-57" d="M 213 4666 
L 850 4666 
L 1831 722 
L 2809 4666 
L 3519 4666 
L 4500 722 
L 5478 4666 
L 6119 4666 
L 4947 0 
L 4153 0 
L 3169 4050 
L 2175 0 
L 1381 0 
L 213 4666 
z
" transform="scale(0.015625)"/>
      </defs>
      <use xlink:href="#DejaVuSans-53"/>
      <use xlink:href="#DejaVuSans-57" x="63.476562"/>
      <use xlink:href="#DejaVuSans-41" x="156.853516"/>
      <use xlink:href="#DejaVuSans-20" x="225.261719"/>
      <use xlink:href="#DejaVuSans-56" x="257.048828"/>
      <use xlink:href="#DejaVuSans-61" x="317.707031"/>
      <use xlink:href="#DejaVuSans-6c" x="378.986328"/>
      <use xlink:href="#DejaVuSans-69" x="406.769531"/>
      <use xlink:href="#DejaVuSans-64" x="434.552734"/>
      <use xlink:href="#DejaVuSans-61" x="498.029297"/>
      <use xlink:href="#DejaVuSans-74" x="559.308594"/>
      <use xlink:href="#DejaVuSans-69" x="598.517578"/>
      <use xlink:href="#DejaVuSans-6f" x="626.300781"/>
      <use xlink:href="#DejaVuSans-6e" x="687.482422"/>
      <use xlink:href="#DejaVuSans-20" x="750.861328"/>
      <use xlink:href="#DejaVuSans-41" x="782.648438"/>
      <use xlink:href="#DejaVuSans-63" x="849.306641"/>
      <use xlink:href="#DejaVuSans-63" x="904.287109"/>
      <use xlink:href="#DejaVuSans-75" x="959.267578"/>
      <use xlink:href="#DejaVuSans-72" x="1022.646484"/>
      <use xlink:href="#DejaVuSans-61" x="1063.759766"/>
      <use xlink:href="#DejaVuSans-63" x="1125.039062"/>
      <use xlink:href="#DejaVuSans-79" x="1180.019531"/>
     </g>
    </g>
    <g id="line2d_29">
     <path d="M 216.18875 293.004312 
L 226.18875 293.004312 
L 236.18875 293.004312 
" style="fill: none; stroke: #9467bd; stroke-width: 1.5; stroke-linecap: square"/>
    </g>
    <g id="text_27">
     <!-- SWA Robust Validation Accuracy -->
     <g transform="translate(244.18875 296.504312) scale(0.1 -0.1)">
      <use xlink:href="#DejaVuSans-53"/>
      <use xlink:href="#DejaVuSans-57" x="63.476562"/>
      <use xlink:href="#DejaVuSans-41" x="156.853516"/>
      <use xlink:href="#DejaVuSans-20" x="225.261719"/>
      <use xlink:href="#DejaVuSans-52" x="257.048828"/>
      <use xlink:href="#DejaVuSans-6f" x="322.03125"/>
      <use xlink:href="#DejaVuSans-62" x="383.212891"/>
      <use xlink:href="#DejaVuSans-75" x="446.689453"/>
      <use xlink:href="#DejaVuSans-73" x="510.068359"/>
      <use xlink:href="#DejaVuSans-74" x="562.167969"/>
      <use xlink:href="#DejaVuSans-20" x="601.376953"/>
      <use xlink:href="#DejaVuSans-56" x="633.164062"/>
      <use xlink:href="#DejaVuSans-61" x="693.822266"/>
      <use xlink:href="#DejaVuSans-6c" x="755.101562"/>
      <use xlink:href="#DejaVuSans-69" x="782.884766"/>
      <use xlink:href="#DejaVuSans-64" x="810.667969"/>
      <use xlink:href="#DejaVuSans-61" x="874.144531"/>
      <use xlink:href="#DejaVuSans-74" x="935.423828"/>
      <use xlink:href="#DejaVuSans-69" x="974.632812"/>
      <use xlink:href="#DejaVuSans-6f" x="1002.416016"/>
      <use xlink:href="#DejaVuSans-6e" x="1063.597656"/>
      <use xlink:href="#DejaVuSans-20" x="1126.976562"/>
      <use xlink:href="#DejaVuSans-41" x="1158.763672"/>
      <use xlink:href="#DejaVuSans-63" x="1225.421875"/>
      <use xlink:href="#DejaVuSans-63" x="1280.402344"/>
      <use xlink:href="#DejaVuSans-75" x="1335.382812"/>
      <use xlink:href="#DejaVuSans-72" x="1398.761719"/>
      <use xlink:href="#DejaVuSans-61" x="1439.875"/>
      <use xlink:href="#DejaVuSans-63" x="1501.154297"/>
      <use xlink:href="#DejaVuSans-79" x="1556.134766"/>
     </g>
    </g>
   </g>
  </g>
 </g>
 <defs>
  <clipPath id="pb9a1d6e283">
   <rect x="57.6" y="41.472" width="357.12" height="266.112"/>
  </clipPath>
 </defs>
</svg>
