<?xml version="1.0" encoding="utf-8" standalone="no"?>
<!DOCTYPE svg PUBLIC "-//W3C//DTD SVG 1.1//EN"
  "http://www.w3.org/Graphics/SVG/1.1/DTD/svg11.dtd">
<svg xmlns:xlink="http://www.w3.org/1999/xlink" width="460.8pt" height="345.6pt" viewBox="0 0 460.8 345.6" xmlns="http://www.w3.org/2000/svg" version="1.1">
 <metadata>
  <rdf:RDF xmlns:dc="http://purl.org/dc/elements/1.1/" xmlns:cc="http://creativecommons.org/ns#" xmlns:rdf="http://www.w3.org/1999/02/22-rdf-syntax-ns#">
   <cc:Work>
    <dc:type rdf:resource="http://purl.org/dc/dcmitype/StillImage"/>
    <dc:date>2025-02-26T15:11:32.851698</dc:date>
    <dc:format>image/svg+xml</dc:format>
    <dc:creator>
     <cc:Agent>
      <dc:title>Matplotlib v3.9.1, https://matplotlib.org/</dc:title>
     </cc:Agent>
    </dc:creator>
   </cc:Work>
  </rdf:RDF>
 </metadata>
 <defs>
  <style type="text/css">*{stroke-linejoin: round; stroke-linecap: butt}</style>
 </defs>
 <g id="figure_1">
  <g id="patch_1">
   <path d="M 0 345.6 
L 460.8 345.6 
L 460.8 0 
L 0 0 
z
" style="fill: #ffffff"/>
  </g>
  <g id="axes_1">
   <g id="patch_2">
    <path d="M 57.6 307.584 
L 414.72 307.584 
L 414.72 41.472 
L 57.6 41.472 
z
" style="fill: #ffffff"/>
   </g>
   <g id="matplotlib.axis_1">
    <g id="xtick_1">
     <g id="line2d_1">
      <defs>
       <path id="m61639e5e67" d="M 0 0 
L 0 3.5 
" style="stroke: #000000; stroke-width: 0.8"/>
      </defs>
      <g>
       <use xlink:href="#m61639e5e67" x="73.832727" y="307.584" style="stroke: #000000; stroke-width: 0.8"/>
      </g>
     </g>
     <g id="text_1">
      <!-- 1 -->
      <g transform="translate(70.651477 322.182437) scale(0.1 -0.1)">
       <defs>
        <path id="DejaVuSans-31" d="M 794 531 
L 1825 531 
L 1825 4091 
L 703 3866 
L 703 4441 
L 1819 4666 
L 2450 4666 
L 2450 531 
L 3481 531 
L 3481 0 
L 794 0 
L 794 531 
z
" transform="scale(0.015625)"/>
       </defs>
       <use xlink:href="#DejaVuSans-31"/>
      </g>
     </g>
    </g>
    <g id="xtick_2">
     <g id="line2d_2">
      <g>
       <use xlink:href="#m61639e5e67" x="109.664165" y="307.584" style="stroke: #000000; stroke-width: 0.8"/>
      </g>
     </g>
     <g id="text_2">
      <!-- 34 -->
      <g transform="translate(103.301665 322.182437) scale(0.1 -0.1)">
       <defs>
        <path id="DejaVuSans-33" d="M 2597 2516 
Q 3050 2419 3304 2112 
Q 3559 1806 3559 1356 
Q 3559 666 3084 287 
Q 2609 -91 1734 -91 
Q 1441 -91 1130 -33 
Q 819 25 488 141 
L 488 750 
Q 750 597 1062 519 
Q 1375 441 1716 441 
Q 2309 441 2620 675 
Q 2931 909 2931 1356 
Q 2931 1769 2642 2001 
Q 2353 2234 1838 2234 
L 1294 2234 
L 1294 2753 
L 1863 2753 
Q 2328 2753 2575 2939 
Q 2822 3125 2822 3475 
Q 2822 3834 2567 4026 
Q 2313 4219 1838 4219 
Q 1578 4219 1281 4162 
Q 984 4106 628 3988 
L 628 4550 
Q 988 4650 1302 4700 
Q 1616 4750 1894 4750 
Q 2613 4750 3031 4423 
Q 3450 4097 3450 3541 
Q 3450 3153 3228 2886 
Q 3006 2619 2597 2516 
z
" transform="scale(0.015625)"/>
        <path id="DejaVuSans-34" d="M 2419 4116 
L 825 1625 
L 2419 1625 
L 2419 4116 
z
M 2253 4666 
L 3047 4666 
L 3047 1625 
L 3713 1625 
L 3713 1100 
L 3047 1100 
L 3047 0 
L 2419 0 
L 2419 1100 
L 313 1100 
L 313 1709 
L 2253 4666 
z
" transform="scale(0.015625)"/>
       </defs>
       <use xlink:href="#DejaVuSans-33"/>
       <use xlink:href="#DejaVuSans-34" x="63.623047"/>
      </g>
     </g>
    </g>
    <g id="xtick_3">
     <g id="line2d_3">
      <g>
       <use xlink:href="#m61639e5e67" x="145.495604" y="307.584" style="stroke: #000000; stroke-width: 0.8"/>
      </g>
     </g>
     <g id="text_3">
      <!-- 67 -->
      <g transform="translate(139.133104 322.182437) scale(0.1 -0.1)">
       <defs>
        <path id="DejaVuSans-36" d="M 2113 2584 
Q 1688 2584 1439 2293 
Q 1191 2003 1191 1497 
Q 1191 994 1439 701 
Q 1688 409 2113 409 
Q 2538 409 2786 701 
Q 3034 994 3034 1497 
Q 3034 2003 2786 2293 
Q 2538 2584 2113 2584 
z
M 3366 4563 
L 3366 3988 
Q 3128 4100 2886 4159 
Q 2644 4219 2406 4219 
Q 1781 4219 1451 3797 
Q 1122 3375 1075 2522 
Q 1259 2794 1537 2939 
Q 1816 3084 2150 3084 
Q 2853 3084 3261 2657 
Q 3669 2231 3669 1497 
Q 3669 778 3244 343 
Q 2819 -91 2113 -91 
Q 1303 -91 875 529 
Q 447 1150 447 2328 
Q 447 3434 972 4092 
Q 1497 4750 2381 4750 
Q 2619 4750 2861 4703 
Q 3103 4656 3366 4563 
z
" transform="scale(0.015625)"/>
        <path id="DejaVuSans-37" d="M 525 4666 
L 3525 4666 
L 3525 4397 
L 1831 0 
L 1172 0 
L 2766 4134 
L 525 4134 
L 525 4666 
z
" transform="scale(0.015625)"/>
       </defs>
       <use xlink:href="#DejaVuSans-36"/>
       <use xlink:href="#DejaVuSans-37" x="63.623047"/>
      </g>
     </g>
    </g>
    <g id="xtick_4">
     <g id="line2d_4">
      <g>
       <use xlink:href="#m61639e5e67" x="181.327042" y="307.584" style="stroke: #000000; stroke-width: 0.8"/>
      </g>
     </g>
     <g id="text_4">
      <!-- 100 -->
      <g transform="translate(171.783292 322.182437) scale(0.1 -0.1)">
       <defs>
        <path id="DejaVuSans-30" d="M 2034 4250 
Q 1547 4250 1301 3770 
Q 1056 3291 1056 2328 
Q 1056 1369 1301 889 
Q 1547 409 2034 409 
Q 2525 409 2770 889 
Q 3016 1369 3016 2328 
Q 3016 3291 2770 3770 
Q 2525 4250 2034 4250 
z
M 2034 4750 
Q 2819 4750 3233 4129 
Q 3647 3509 3647 2328 
Q 3647 1150 3233 529 
Q 2819 -91 2034 -91 
Q 1250 -91 836 529 
Q 422 1150 422 2328 
Q 422 3509 836 4129 
Q 1250 4750 2034 4750 
z
" transform="scale(0.015625)"/>
       </defs>
       <use xlink:href="#DejaVuSans-31"/>
       <use xlink:href="#DejaVuSans-30" x="63.623047"/>
       <use xlink:href="#DejaVuSans-30" x="127.246094"/>
      </g>
     </g>
    </g>
    <g id="xtick_5">
     <g id="line2d_5">
      <g>
       <use xlink:href="#m61639e5e67" x="217.15848" y="307.584" style="stroke: #000000; stroke-width: 0.8"/>
      </g>
     </g>
     <g id="text_5">
      <!-- 133 -->
      <g transform="translate(207.61473 322.182437) scale(0.1 -0.1)">
       <use xlink:href="#DejaVuSans-31"/>
       <use xlink:href="#DejaVuSans-33" x="63.623047"/>
       <use xlink:href="#DejaVuSans-33" x="127.246094"/>
      </g>
     </g>
    </g>
    <g id="xtick_6">
     <g id="line2d_6">
      <g>
       <use xlink:href="#m61639e5e67" x="254.075719" y="307.584" style="stroke: #000000; stroke-width: 0.8"/>
      </g>
     </g>
     <g id="text_6">
      <!-- 167 -->
      <g transform="translate(244.531969 322.182437) scale(0.1 -0.1)">
       <use xlink:href="#DejaVuSans-31"/>
       <use xlink:href="#DejaVuSans-36" x="63.623047"/>
       <use xlink:href="#DejaVuSans-37" x="127.246094"/>
      </g>
     </g>
    </g>
    <g id="xtick_7">
     <g id="line2d_7">
      <g>
       <use xlink:href="#m61639e5e67" x="289.907157" y="307.584" style="stroke: #000000; stroke-width: 0.8"/>
      </g>
     </g>
     <g id="text_7">
      <!-- 200 -->
      <g transform="translate(280.363407 322.182437) scale(0.1 -0.1)">
       <defs>
        <path id="DejaVuSans-32" d="M 1228 531 
L 3431 531 
L 3431 0 
L 469 0 
L 469 531 
Q 828 903 1448 1529 
Q 2069 2156 2228 2338 
Q 2531 2678 2651 2914 
Q 2772 3150 2772 3378 
Q 2772 3750 2511 3984 
Q 2250 4219 1831 4219 
Q 1534 4219 1204 4116 
Q 875 4013 500 3803 
L 500 4441 
Q 881 4594 1212 4672 
Q 1544 4750 1819 4750 
Q 2544 4750 2975 4387 
Q 3406 4025 3406 3419 
Q 3406 3131 3298 2873 
Q 3191 2616 2906 2266 
Q 2828 2175 2409 1742 
Q 1991 1309 1228 531 
z
" transform="scale(0.015625)"/>
       </defs>
       <use xlink:href="#DejaVuSans-32"/>
       <use xlink:href="#DejaVuSans-30" x="63.623047"/>
       <use xlink:href="#DejaVuSans-30" x="127.246094"/>
      </g>
     </g>
    </g>
    <g id="xtick_8">
     <g id="line2d_8">
      <g>
       <use xlink:href="#m61639e5e67" x="325.738595" y="307.584" style="stroke: #000000; stroke-width: 0.8"/>
      </g>
     </g>
     <g id="text_8">
      <!-- 233 -->
      <g transform="translate(316.194845 322.182437) scale(0.1 -0.1)">
       <use xlink:href="#DejaVuSans-32"/>
       <use xlink:href="#DejaVuSans-33" x="63.623047"/>
       <use xlink:href="#DejaVuSans-33" x="127.246094"/>
      </g>
     </g>
    </g>
    <g id="xtick_9">
     <g id="line2d_9">
      <g>
       <use xlink:href="#m61639e5e67" x="361.570033" y="307.584" style="stroke: #000000; stroke-width: 0.8"/>
      </g>
     </g>
     <g id="text_9">
      <!-- 266 -->
      <g transform="translate(352.026283 322.182437) scale(0.1 -0.1)">
       <use xlink:href="#DejaVuSans-32"/>
       <use xlink:href="#DejaVuSans-36" x="63.623047"/>
       <use xlink:href="#DejaVuSans-36" x="127.246094"/>
      </g>
     </g>
    </g>
    <g id="xtick_10">
     <g id="line2d_10">
      <g>
       <use xlink:href="#m61639e5e67" x="398.487273" y="307.584" style="stroke: #000000; stroke-width: 0.8"/>
      </g>
     </g>
     <g id="text_10">
      <!-- 300 -->
      <g transform="translate(388.943523 322.182437) scale(0.1 -0.1)">
       <use xlink:href="#DejaVuSans-33"/>
       <use xlink:href="#DejaVuSans-30" x="63.623047"/>
       <use xlink:href="#DejaVuSans-30" x="127.246094"/>
      </g>
     </g>
    </g>
    <g id="text_11">
     <!-- Epochs -->
     <g transform="translate(218.244375 335.860562) scale(0.1 -0.1)">
      <defs>
       <path id="DejaVuSans-45" d="M 628 4666 
L 3578 4666 
L 3578 4134 
L 1259 4134 
L 1259 2753 
L 3481 2753 
L 3481 2222 
L 1259 2222 
L 1259 531 
L 3634 531 
L 3634 0 
L 628 0 
L 628 4666 
z
" transform="scale(0.015625)"/>
       <path id="DejaVuSans-70" d="M 1159 525 
L 1159 -1331 
L 581 -1331 
L 581 3500 
L 1159 3500 
L 1159 2969 
Q 1341 3281 1617 3432 
Q 1894 3584 2278 3584 
Q 2916 3584 3314 3078 
Q 3713 2572 3713 1747 
Q 3713 922 3314 415 
Q 2916 -91 2278 -91 
Q 1894 -91 1617 61 
Q 1341 213 1159 525 
z
M 3116 1747 
Q 3116 2381 2855 2742 
Q 2594 3103 2138 3103 
Q 1681 3103 1420 2742 
Q 1159 2381 1159 1747 
Q 1159 1113 1420 752 
Q 1681 391 2138 391 
Q 2594 391 2855 752 
Q 3116 1113 3116 1747 
z
" transform="scale(0.015625)"/>
       <path id="DejaVuSans-6f" d="M 1959 3097 
Q 1497 3097 1228 2736 
Q 959 2375 959 1747 
Q 959 1119 1226 758 
Q 1494 397 1959 397 
Q 2419 397 2687 759 
Q 2956 1122 2956 1747 
Q 2956 2369 2687 2733 
Q 2419 3097 1959 3097 
z
M 1959 3584 
Q 2709 3584 3137 3096 
Q 3566 2609 3566 1747 
Q 3566 888 3137 398 
Q 2709 -91 1959 -91 
Q 1206 -91 779 398 
Q 353 888 353 1747 
Q 353 2609 779 3096 
Q 1206 3584 1959 3584 
z
" transform="scale(0.015625)"/>
       <path id="DejaVuSans-63" d="M 3122 3366 
L 3122 2828 
Q 2878 2963 2633 3030 
Q 2388 3097 2138 3097 
Q 1578 3097 1268 2742 
Q 959 2388 959 1747 
Q 959 1106 1268 751 
Q 1578 397 2138 397 
Q 2388 397 2633 464 
Q 2878 531 3122 666 
L 3122 134 
Q 2881 22 2623 -34 
Q 2366 -91 2075 -91 
Q 1284 -91 818 406 
Q 353 903 353 1747 
Q 353 2603 823 3093 
Q 1294 3584 2113 3584 
Q 2378 3584 2631 3529 
Q 2884 3475 3122 3366 
z
" transform="scale(0.015625)"/>
       <path id="DejaVuSans-68" d="M 3513 2113 
L 3513 0 
L 2938 0 
L 2938 2094 
Q 2938 2591 2744 2837 
Q 2550 3084 2163 3084 
Q 1697 3084 1428 2787 
Q 1159 2491 1159 1978 
L 1159 0 
L 581 0 
L 581 4863 
L 1159 4863 
L 1159 2956 
Q 1366 3272 1645 3428 
Q 1925 3584 2291 3584 
Q 2894 3584 3203 3211 
Q 3513 2838 3513 2113 
z
" transform="scale(0.015625)"/>
       <path id="DejaVuSans-73" d="M 2834 3397 
L 2834 2853 
Q 2591 2978 2328 3040 
Q 2066 3103 1784 3103 
Q 1356 3103 1142 2972 
Q 928 2841 928 2578 
Q 928 2378 1081 2264 
Q 1234 2150 1697 2047 
L 1894 2003 
Q 2506 1872 2764 1633 
Q 3022 1394 3022 966 
Q 3022 478 2636 193 
Q 2250 -91 1575 -91 
Q 1294 -91 989 -36 
Q 684 19 347 128 
L 347 722 
Q 666 556 975 473 
Q 1284 391 1588 391 
Q 1994 391 2212 530 
Q 2431 669 2431 922 
Q 2431 1156 2273 1281 
Q 2116 1406 1581 1522 
L 1381 1569 
Q 847 1681 609 1914 
Q 372 2147 372 2553 
Q 372 3047 722 3315 
Q 1072 3584 1716 3584 
Q 2034 3584 2315 3537 
Q 2597 3491 2834 3397 
z
" transform="scale(0.015625)"/>
      </defs>
      <use xlink:href="#DejaVuSans-45"/>
      <use xlink:href="#DejaVuSans-70" x="63.183594"/>
      <use xlink:href="#DejaVuSans-6f" x="126.660156"/>
      <use xlink:href="#DejaVuSans-63" x="187.841797"/>
      <use xlink:href="#DejaVuSans-68" x="242.822266"/>
      <use xlink:href="#DejaVuSans-73" x="306.201172"/>
     </g>
    </g>
   </g>
   <g id="matplotlib.axis_2">
    <g id="ytick_1">
     <g id="line2d_11">
      <defs>
       <path id="mcbe7d55479" d="M 0 0 
L -3.5 0 
" style="stroke: #000000; stroke-width: 0.8"/>
      </defs>
      <g>
       <use xlink:href="#mcbe7d55479" x="57.6" y="286.987056" style="stroke: #000000; stroke-width: 0.8"/>
      </g>
     </g>
     <g id="text_12">
      <!-- 10 -->
      <g transform="translate(37.875 290.786274) scale(0.1 -0.1)">
       <use xlink:href="#DejaVuSans-31"/>
       <use xlink:href="#DejaVuSans-30" x="63.623047"/>
      </g>
     </g>
    </g>
    <g id="ytick_2">
     <g id="line2d_12">
      <g>
       <use xlink:href="#mcbe7d55479" x="57.6" y="257.141125" style="stroke: #000000; stroke-width: 0.8"/>
      </g>
     </g>
     <g id="text_13">
      <!-- 20 -->
      <g transform="translate(37.875 260.940344) scale(0.1 -0.1)">
       <use xlink:href="#DejaVuSans-32"/>
       <use xlink:href="#DejaVuSans-30" x="63.623047"/>
      </g>
     </g>
    </g>
    <g id="ytick_3">
     <g id="line2d_13">
      <g>
       <use xlink:href="#mcbe7d55479" x="57.6" y="227.295194" style="stroke: #000000; stroke-width: 0.8"/>
      </g>
     </g>
     <g id="text_14">
      <!-- 30 -->
      <g transform="translate(37.875 231.094413) scale(0.1 -0.1)">
       <use xlink:href="#DejaVuSans-33"/>
       <use xlink:href="#DejaVuSans-30" x="63.623047"/>
      </g>
     </g>
    </g>
    <g id="ytick_4">
     <g id="line2d_14">
      <g>
       <use xlink:href="#mcbe7d55479" x="57.6" y="197.449263" style="stroke: #000000; stroke-width: 0.8"/>
      </g>
     </g>
     <g id="text_15">
      <!-- 40 -->
      <g transform="translate(37.875 201.248482) scale(0.1 -0.1)">
       <use xlink:href="#DejaVuSans-34"/>
       <use xlink:href="#DejaVuSans-30" x="63.623047"/>
      </g>
     </g>
    </g>
    <g id="ytick_5">
     <g id="line2d_15">
      <g>
       <use xlink:href="#mcbe7d55479" x="57.6" y="167.603332" style="stroke: #000000; stroke-width: 0.8"/>
      </g>
     </g>
     <g id="text_16">
      <!-- 50 -->
      <g transform="translate(37.875 171.402551) scale(0.1 -0.1)">
       <defs>
        <path id="DejaVuSans-35" d="M 691 4666 
L 3169 4666 
L 3169 4134 
L 1269 4134 
L 1269 2991 
Q 1406 3038 1543 3061 
Q 1681 3084 1819 3084 
Q 2600 3084 3056 2656 
Q 3513 2228 3513 1497 
Q 3513 744 3044 326 
Q 2575 -91 1722 -91 
Q 1428 -91 1123 -41 
Q 819 9 494 109 
L 494 744 
Q 775 591 1075 516 
Q 1375 441 1709 441 
Q 2250 441 2565 725 
Q 2881 1009 2881 1497 
Q 2881 1984 2565 2268 
Q 2250 2553 1709 2553 
Q 1456 2553 1204 2497 
Q 953 2441 691 2322 
L 691 4666 
z
" transform="scale(0.015625)"/>
       </defs>
       <use xlink:href="#DejaVuSans-35"/>
       <use xlink:href="#DejaVuSans-30" x="63.623047"/>
      </g>
     </g>
    </g>
    <g id="ytick_6">
     <g id="line2d_16">
      <g>
       <use xlink:href="#mcbe7d55479" x="57.6" y="137.757402" style="stroke: #000000; stroke-width: 0.8"/>
      </g>
     </g>
     <g id="text_17">
      <!-- 60 -->
      <g transform="translate(37.875 141.55662) scale(0.1 -0.1)">
       <use xlink:href="#DejaVuSans-36"/>
       <use xlink:href="#DejaVuSans-30" x="63.623047"/>
      </g>
     </g>
    </g>
    <g id="ytick_7">
     <g id="line2d_17">
      <g>
       <use xlink:href="#mcbe7d55479" x="57.6" y="107.911471" style="stroke: #000000; stroke-width: 0.8"/>
      </g>
     </g>
     <g id="text_18">
      <!-- 70 -->
      <g transform="translate(37.875 111.71069) scale(0.1 -0.1)">
       <use xlink:href="#DejaVuSans-37"/>
       <use xlink:href="#DejaVuSans-30" x="63.623047"/>
      </g>
     </g>
    </g>
    <g id="ytick_8">
     <g id="line2d_18">
      <g>
       <use xlink:href="#mcbe7d55479" x="57.6" y="78.06554" style="stroke: #000000; stroke-width: 0.8"/>
      </g>
     </g>
     <g id="text_19">
      <!-- 80 -->
      <g transform="translate(37.875 81.864759) scale(0.1 -0.1)">
       <defs>
        <path id="DejaVuSans-38" d="M 2034 2216 
Q 1584 2216 1326 1975 
Q 1069 1734 1069 1313 
Q 1069 891 1326 650 
Q 1584 409 2034 409 
Q 2484 409 2743 651 
Q 3003 894 3003 1313 
Q 3003 1734 2745 1975 
Q 2488 2216 2034 2216 
z
M 1403 2484 
Q 997 2584 770 2862 
Q 544 3141 544 3541 
Q 544 4100 942 4425 
Q 1341 4750 2034 4750 
Q 2731 4750 3128 4425 
Q 3525 4100 3525 3541 
Q 3525 3141 3298 2862 
Q 3072 2584 2669 2484 
Q 3125 2378 3379 2068 
Q 3634 1759 3634 1313 
Q 3634 634 3220 271 
Q 2806 -91 2034 -91 
Q 1263 -91 848 271 
Q 434 634 434 1313 
Q 434 1759 690 2068 
Q 947 2378 1403 2484 
z
M 1172 3481 
Q 1172 3119 1398 2916 
Q 1625 2713 2034 2713 
Q 2441 2713 2670 2916 
Q 2900 3119 2900 3481 
Q 2900 3844 2670 4047 
Q 2441 4250 2034 4250 
Q 1625 4250 1398 4047 
Q 1172 3844 1172 3481 
z
" transform="scale(0.015625)"/>
       </defs>
       <use xlink:href="#DejaVuSans-38"/>
       <use xlink:href="#DejaVuSans-30" x="63.623047"/>
      </g>
     </g>
    </g>
    <g id="ytick_9">
     <g id="line2d_19">
      <g>
       <use xlink:href="#mcbe7d55479" x="57.6" y="48.219609" style="stroke: #000000; stroke-width: 0.8"/>
      </g>
     </g>
     <g id="text_20">
      <!-- 90 -->
      <g transform="translate(37.875 52.018828) scale(0.1 -0.1)">
       <defs>
        <path id="DejaVuSans-39" d="M 703 97 
L 703 672 
Q 941 559 1184 500 
Q 1428 441 1663 441 
Q 2288 441 2617 861 
Q 2947 1281 2994 2138 
Q 2813 1869 2534 1725 
Q 2256 1581 1919 1581 
Q 1219 1581 811 2004 
Q 403 2428 403 3163 
Q 403 3881 828 4315 
Q 1253 4750 1959 4750 
Q 2769 4750 3195 4129 
Q 3622 3509 3622 2328 
Q 3622 1225 3098 567 
Q 2575 -91 1691 -91 
Q 1453 -91 1209 -44 
Q 966 3 703 97 
z
M 1959 2075 
Q 2384 2075 2632 2365 
Q 2881 2656 2881 3163 
Q 2881 3666 2632 3958 
Q 2384 4250 1959 4250 
Q 1534 4250 1286 3958 
Q 1038 3666 1038 3163 
Q 1038 2656 1286 2365 
Q 1534 2075 1959 2075 
z
" transform="scale(0.015625)"/>
       </defs>
       <use xlink:href="#DejaVuSans-39"/>
       <use xlink:href="#DejaVuSans-30" x="63.623047"/>
      </g>
     </g>
    </g>
    <g id="text_21">
     <!-- Accuracy -->
     <g transform="translate(31.795312 197.356125) rotate(-90) scale(0.1 -0.1)">
      <defs>
       <path id="DejaVuSans-41" d="M 2188 4044 
L 1331 1722 
L 3047 1722 
L 2188 4044 
z
M 1831 4666 
L 2547 4666 
L 4325 0 
L 3669 0 
L 3244 1197 
L 1141 1197 
L 716 0 
L 50 0 
L 1831 4666 
z
" transform="scale(0.015625)"/>
       <path id="DejaVuSans-75" d="M 544 1381 
L 544 3500 
L 1119 3500 
L 1119 1403 
Q 1119 906 1312 657 
Q 1506 409 1894 409 
Q 2359 409 2629 706 
Q 2900 1003 2900 1516 
L 2900 3500 
L 3475 3500 
L 3475 0 
L 2900 0 
L 2900 538 
Q 2691 219 2414 64 
Q 2138 -91 1772 -91 
Q 1169 -91 856 284 
Q 544 659 544 1381 
z
M 1991 3584 
L 1991 3584 
z
" transform="scale(0.015625)"/>
       <path id="DejaVuSans-72" d="M 2631 2963 
Q 2534 3019 2420 3045 
Q 2306 3072 2169 3072 
Q 1681 3072 1420 2755 
Q 1159 2438 1159 1844 
L 1159 0 
L 581 0 
L 581 3500 
L 1159 3500 
L 1159 2956 
Q 1341 3275 1631 3429 
Q 1922 3584 2338 3584 
Q 2397 3584 2469 3576 
Q 2541 3569 2628 3553 
L 2631 2963 
z
" transform="scale(0.015625)"/>
       <path id="DejaVuSans-61" d="M 2194 1759 
Q 1497 1759 1228 1600 
Q 959 1441 959 1056 
Q 959 750 1161 570 
Q 1363 391 1709 391 
Q 2188 391 2477 730 
Q 2766 1069 2766 1631 
L 2766 1759 
L 2194 1759 
z
M 3341 1997 
L 3341 0 
L 2766 0 
L 2766 531 
Q 2569 213 2275 61 
Q 1981 -91 1556 -91 
Q 1019 -91 701 211 
Q 384 513 384 1019 
Q 384 1609 779 1909 
Q 1175 2209 1959 2209 
L 2766 2209 
L 2766 2266 
Q 2766 2663 2505 2880 
Q 2244 3097 1772 3097 
Q 1472 3097 1187 3025 
Q 903 2953 641 2809 
L 641 3341 
Q 956 3463 1253 3523 
Q 1550 3584 1831 3584 
Q 2591 3584 2966 3190 
Q 3341 2797 3341 1997 
z
" transform="scale(0.015625)"/>
       <path id="DejaVuSans-79" d="M 2059 -325 
Q 1816 -950 1584 -1140 
Q 1353 -1331 966 -1331 
L 506 -1331 
L 506 -850 
L 844 -850 
Q 1081 -850 1212 -737 
Q 1344 -625 1503 -206 
L 1606 56 
L 191 3500 
L 800 3500 
L 1894 763 
L 2988 3500 
L 3597 3500 
L 2059 -325 
z
" transform="scale(0.015625)"/>
      </defs>
      <use xlink:href="#DejaVuSans-41"/>
      <use xlink:href="#DejaVuSans-63" x="66.658203"/>
      <use xlink:href="#DejaVuSans-63" x="121.638672"/>
      <use xlink:href="#DejaVuSans-75" x="176.619141"/>
      <use xlink:href="#DejaVuSans-72" x="239.998047"/>
      <use xlink:href="#DejaVuSans-61" x="281.111328"/>
      <use xlink:href="#DejaVuSans-63" x="342.390625"/>
      <use xlink:href="#DejaVuSans-79" x="397.371094"/>
     </g>
    </g>
   </g>
   <g id="line2d_20">
    <path d="M 73.832727 294.758936 
L 76.00433 252.974633 
L 77.090131 237.221951 
L 78.175932 223.188394 
L 80.347534 203.179682 
L 81.433335 194.518393 
L 82.519137 187.13451 
L 83.604938 181.583166 
L 85.77654 168.433049 
L 87.948142 159.341979 
L 89.033943 155.772405 
L 90.119745 150.985118 
L 91.205546 148.167662 
L 92.291347 144.598089 
L 93.377148 143.792249 
L 94.462949 142.640196 
L 95.54875 172.24139 
L 96.634552 171.811609 
L 97.720353 166.833307 
L 99.891955 162.004236 
L 102.063557 154.662137 
L 103.149358 151.862588 
L 104.23516 149.451037 
L 105.320961 147.582682 
L 106.406762 143.386344 
L 107.492563 141.828387 
L 108.578364 140.055538 
L 109.664165 136.086029 
L 110.749967 134.265428 
L 111.835768 132.009075 
L 112.921569 128.887191 
L 114.00737 126.994959 
L 115.093171 125.6698 
L 116.178972 121.783859 
L 117.264773 120.643745 
L 118.350575 117.414415 
L 119.436376 116.071348 
L 121.607978 111.451198 
L 122.693779 108.472574 
L 124.865382 104.646326 
L 125.951183 103.082399 
L 128.122785 98.724893 
L 129.208586 98.026499 
L 130.294387 95.96116 
L 131.380189 95.638824 
L 132.46599 93.591393 
L 133.551791 93.042228 
L 134.637592 92.057312 
L 135.723393 91.687223 
L 136.809194 90.547108 
L 137.894995 90.362063 
L 138.980797 125.544447 
L 140.066598 130.260104 
L 141.152399 129.364726 
L 143.324001 126.893483 
L 144.409802 126.469671 
L 145.495604 124.34464 
L 146.581405 124.207349 
L 147.667206 123.473139 
L 148.753007 121.258571 
L 149.838808 121.169033 
L 150.924609 119.748367 
L 152.01041 117.396508 
L 153.096212 117.008511 
L 154.182013 117.432323 
L 155.267814 115.349077 
L 156.353615 113.78515 
L 157.439416 113.385215 
L 158.525217 111.504921 
L 159.611019 111.039324 
L 160.69682 109.176938 
L 161.782621 109.290353 
L 162.868422 106.634065 
L 163.954223 106.592281 
L 165.040024 105.852102 
L 166.125825 103.619626 
L 167.211627 103.876301 
L 168.297428 102.580988 
L 169.383229 100.557433 
L 170.46903 99.512826 
L 171.554831 100.330604 
L 172.640632 97.739978 
L 174.812235 95.119505 
L 175.898036 95.071751 
L 176.983837 93.603332 
L 178.069638 92.833307 
L 179.155439 91.245503 
L 180.24124 90.194926 
L 181.327042 89.747237 
L 182.412843 88.046019 
L 183.498644 87.96842 
L 185.670246 84.452569 
L 186.756047 84.130233 
L 187.841849 83.216948 
L 188.92765 81.921634 
L 190.013451 81.169517 
L 191.099252 80.256231 
L 192.185053 79.09224 
L 193.270854 78.555013 
L 195.442457 76.519521 
L 196.528258 75.194361 
L 198.69986 73.642373 
L 199.785661 72.597765 
L 200.871462 72.550012 
L 201.957264 70.890578 
L 203.043065 69.654957 
L 204.128866 69.535573 
L 205.214667 69.064007 
L 206.300468 67.983585 
L 207.386269 67.655279 
L 208.472071 67.022546 
L 209.557872 65.733201 
L 210.643673 65.190005 
L 212.815275 64.879608 
L 213.901076 64.288658 
L 214.986877 64.157336 
L 216.072679 63.602202 
L 217.15848 62.891869 
L 218.244281 63.005283 
L 219.330082 62.95753 
L 220.415883 62.145721 
L 221.501684 62.056183 
L 222.587486 61.7816 
L 223.673287 62.283012 
L 224.759088 62.51581 
L 225.844889 98.718924 
L 226.93069 104.371743 
L 228.016491 105.541704 
L 229.102292 104.652295 
L 230.188094 104.019561 
L 231.273895 104.091192 
L 232.359696 104.425466 
L 233.445497 102.78394 
L 234.531298 102.968985 
L 235.617099 102.210898 
L 236.702901 101.017061 
L 237.788702 101.500565 
L 238.874503 100.527588 
L 239.960304 100.461926 
L 241.046105 100.13959 
L 242.131906 98.706986 
L 243.217708 97.841454 
L 244.303509 98.462249 
L 245.38931 97.340042 
L 247.560912 96.934137 
L 248.646713 96.599863 
L 249.732514 97.089336 
L 250.818316 95.262765 
L 251.904117 94.242034 
L 256.247321 92.642293 
L 257.333123 92.80943 
L 258.418924 91.884206 
L 259.504725 91.937929 
L 260.590526 91.597685 
L 261.676327 90.857506 
L 262.762128 91.48427 
L 263.847929 89.192103 
L 264.933731 89.818868 
L 266.019532 89.048843 
L 267.105333 88.595184 
L 268.191134 87.849036 
L 269.276935 88.33254 
L 270.362736 87.962451 
L 271.448538 87.08498 
L 272.534339 86.852182 
L 273.62014 86.285109 
L 274.705941 86.422401 
L 275.791742 84.709244 
L 276.877543 84.876381 
L 277.963344 84.416754 
L 279.049146 84.315278 
L 280.134947 83.867589 
L 281.220748 83.801928 
L 282.306549 83.300516 
L 283.39235 82.631967 
L 284.478151 81.664959 
L 285.563953 81.676898 
L 286.649754 80.769581 
L 287.735555 80.984472 
L 288.821356 80.85315 
L 289.907157 81.050133 
L 290.992958 79.575744 
L 292.07876 78.889288 
L 293.164561 79.545898 
L 294.250362 78.94301 
L 295.336163 77.802896 
L 296.421964 77.140316 
L 297.507765 76.88961 
L 298.593566 76.949302 
L 300.765169 75.737557 
L 301.85097 75.64802 
L 302.936771 74.681011 
L 304.022572 74.519843 
L 305.108373 74.740703 
L 306.194175 74.131846 
L 307.279976 72.973824 
L 308.365777 73.218561 
L 309.451578 72.56195 
L 310.537379 71.774018 
L 311.62318 71.571065 
L 312.708981 72.514197 
L 313.794783 70.556304 
L 314.880584 70.490643 
L 317.052186 69.368436 
L 318.137987 69.416189 
L 319.223788 68.437243 
L 320.30959 68.699887 
L 321.395391 67.488142 
L 322.481192 68.126845 
L 323.566993 66.867347 
L 324.652794 66.437565 
L 325.738595 67.392635 
L 326.824396 65.798862 
L 327.910198 65.184036 
L 328.995999 65.554126 
L 330.0818 64.945269 
L 331.167601 64.610994 
L 332.253402 64.12749 
L 333.339203 63.387311 
L 334.425005 62.999314 
L 335.510806 63.196297 
L 336.596607 61.530894 
L 337.682408 61.823384 
L 338.768209 61.542833 
L 339.85401 61.107082 
L 340.939811 61.178712 
L 342.025613 60.456441 
L 343.111414 60.731023 
L 345.283016 59.298419 
L 346.368817 59.501371 
L 347.454618 59.101436 
L 348.54042 58.283657 
L 349.626221 58.635839 
L 350.712022 57.316649 
L 351.797823 57.638985 
L 352.883624 56.916713 
L 353.969425 57.370372 
L 355.055227 56.821206 
L 356.141028 55.860167 
L 357.226829 55.69303 
L 358.31263 55.102081 
L 359.398431 55.412479 
L 360.484232 55.03642 
L 361.570033 54.52307 
L 362.655835 54.720053 
L 363.741636 54.23058 
L 364.827437 54.290272 
L 365.913238 53.568 
L 366.999039 54.069412 
L 369.170642 53.967935 
L 370.256443 55.47217 
L 371.342244 56.558562 
L 372.428045 57.16145 
L 375.685448 57.841937 
L 376.77125 58.134427 
L 377.857051 58.080705 
L 378.942852 56.827176 
L 380.028653 57.955352 
L 381.114454 58.289626 
L 384.371858 57.45394 
L 385.457659 57.901629 
L 386.54346 57.286803 
L 387.629261 56.958498 
L 389.800863 57.340526 
L 390.886665 57.209204 
L 391.972466 57.483786 
L 393.058267 58.068766 
L 394.144068 58.110551 
L 395.229869 57.179358 
L 396.31567 58.140397 
L 397.401472 57.059974 
L 398.487273 57.680769 
L 398.487273 57.680769 
" clip-path="url(#p42ccd42959)" style="fill: none; stroke: #1f77b4; stroke-width: 1.5; stroke-linecap: square"/>
   </g>
   <g id="line2d_21">
    <path d="M 73.832727 280.86864 
L 74.918528 251.858395 
L 76.00433 232.60777 
L 77.090131 216.490967 
L 78.175932 203.657217 
L 79.261733 187.182263 
L 80.347534 183.481368 
L 81.433335 172.557757 
L 82.519137 171.125152 
L 83.604938 160.828306 
L 84.690739 148.979472 
L 85.77654 149.069009 
L 86.862341 144.801041 
L 87.948142 137.488788 
L 89.033943 132.444826 
L 90.119745 128.803622 
L 91.205546 129.639308 
L 93.377148 127.072558 
L 94.462949 125.222111 
L 95.54875 155.724652 
L 96.634552 161.186457 
L 97.720353 154.292047 
L 98.806154 138.772163 
L 99.891955 152.381908 
L 100.977756 133.280512 
L 102.063557 136.235259 
L 103.149358 132.444826 
L 104.23516 129.400541 
L 105.320961 132.832823 
L 106.406762 123.371663 
L 108.578364 118.745544 
L 109.664165 120.864605 
L 110.749967 114.95511 
L 111.835768 111.701904 
L 112.921569 115.044648 
L 114.00737 115.193878 
L 115.093171 106.59825 
L 116.178972 104.926878 
L 117.264773 106.389328 
L 118.350575 105.076107 
L 119.436376 104.150884 
L 120.522177 100.241067 
L 121.607978 98.420465 
L 122.693779 100.65891 
L 123.77958 97.346011 
L 124.865382 95.077721 
L 125.951183 94.809107 
L 127.036984 94.689723 
L 128.122785 94.450956 
L 129.208586 93.048197 
L 130.294387 91.257441 
L 131.380189 89.794991 
L 132.46599 90.362063 
L 133.551791 90.511293 
L 134.637592 90.302372 
L 135.723393 89.914375 
L 136.809194 89.645761 
L 137.894995 90.153142 
L 138.980797 120.058765 
L 140.066598 112.507744 
L 141.152399 115.850488 
L 142.2382 108.0607 
L 143.324001 109.01577 
L 144.409802 108.687465 
L 145.495604 109.702227 
L 146.581405 109.373921 
L 147.667206 111.522828 
L 148.753007 108.627773 
L 149.838808 106.926555 
L 150.924609 102.509357 
L 152.01041 104.568727 
L 153.096212 105.762564 
L 154.182013 102.001976 
L 155.267814 104.598572 
L 156.353615 101.31552 
L 157.439416 103.524119 
L 158.525217 101.405058 
L 159.611019 103.703195 
L 160.69682 99.614302 
L 161.782621 97.226628 
L 162.868422 96.540171 
L 163.954223 99.733686 
L 165.040024 99.882915 
L 166.125825 97.017706 
L 167.211627 95.137412 
L 168.297428 96.271558 
L 169.383229 97.614625 
L 170.46903 93.943575 
L 171.554831 91.675284 
L 172.640632 95.167258 
L 173.726434 91.764822 
L 174.812235 89.765145 
L 175.898036 91.257441 
L 176.983837 94.630032 
L 178.069638 90.09345 
L 179.155439 89.556223 
L 180.24124 90.421755 
L 181.327042 89.94422 
L 182.412843 89.675607 
L 183.498644 87.795313 
L 184.584445 87.735622 
L 185.670246 88.750383 
L 186.756047 87.407316 
L 188.92765 86.034404 
L 190.013451 85.944866 
L 191.099252 84.601799 
L 192.185053 84.840566 
L 193.270854 86.392555 
L 194.356656 84.601799 
L 195.442457 84.631645 
L 196.528258 83.019965 
L 197.614059 81.855973 
L 198.69986 82.333508 
L 199.785661 81.139671 
L 200.871462 80.542752 
L 201.957264 80.542752 
L 203.043065 79.82645 
L 204.128866 80.960595 
L 205.214667 79.617528 
L 206.300468 80.274139 
L 208.472071 77.707389 
L 209.557872 77.767081 
L 210.643673 78.692305 
L 211.729474 78.423691 
L 214.986877 76.573243 
L 216.072679 77.617851 
L 217.15848 76.632935 
L 218.244281 76.722473 
L 219.330082 77.11047 
L 220.415883 77.707389 
L 221.501684 77.617851 
L 222.587486 77.856618 
L 224.759088 76.841857 
L 225.844889 100.241067 
L 226.93069 104.389651 
L 228.016491 100.569372 
L 229.102292 101.106599 
L 230.188094 102.031822 
L 231.273895 105.49395 
L 232.359696 98.181697 
L 233.445497 101.076753 
L 234.531298 98.330927 
L 235.617099 101.613979 
L 236.702901 100.061991 
L 237.788702 97.763854 
L 238.874503 103.404735 
L 239.960304 97.077398 
L 241.046105 98.032468 
L 242.131906 101.31552 
L 243.217708 99.942607 
L 244.303509 93.794346 
L 245.38931 96.599863 
L 246.475111 95.495564 
L 247.560912 96.98786 
L 249.732514 93.7645 
L 250.818316 95.077721 
L 251.904117 95.704485 
L 252.989918 98.122005 
L 254.075719 98.74877 
L 255.16152 94.42111 
L 256.247321 99.524764 
L 257.333123 94.809107 
L 258.418924 93.167581 
L 259.504725 95.465718 
L 260.590526 94.450956 
L 261.676327 93.078043 
L 262.762128 96.450633 
L 263.847929 96.719247 
L 264.933731 93.794346 
L 266.019532 93.078043 
L 267.105333 91.346979 
L 268.191134 94.152497 
L 269.276935 95.167258 
L 270.362736 93.525732 
L 271.448538 92.361741 
L 272.534339 96.778939 
L 274.705941 92.242357 
L 275.791742 92.122973 
L 276.877543 91.496209 
L 277.963344 94.510648 
L 279.049146 92.451279 
L 280.134947 90.690369 
L 281.220748 91.914052 
L 282.306549 94.361418 
L 283.39235 91.794668 
L 284.478151 93.495886 
L 285.563953 90.89929 
L 286.649754 89.466686 
L 287.735555 90.421755 
L 288.821356 88.123619 
L 289.907157 88.48177 
L 290.992958 91.526055 
L 292.07876 89.078688 
L 293.164561 91.675284 
L 294.250362 87.884851 
L 295.336163 88.750383 
L 296.421964 87.855005 
L 297.507765 91.287287 
L 298.593566 89.048843 
L 299.679368 87.855005 
L 300.765169 90.362063 
L 301.85097 92.451279 
L 302.936771 89.526377 
L 304.022572 87.37747 
L 305.108373 87.884851 
L 306.194175 89.645761 
L 307.279976 87.67593 
L 308.365777 85.198717 
L 309.451578 88.392232 
L 310.537379 86.392555 
L 311.62318 87.855005 
L 312.708981 89.048843 
L 313.794783 88.33254 
L 314.880584 88.302694 
L 315.966385 84.601799 
L 317.052186 83.766113 
L 318.137987 85.019642 
L 319.223788 86.780552 
L 320.30959 82.124587 
L 321.395391 85.527023 
L 322.481192 82.094741 
L 323.566993 85.735944 
L 324.652794 84.691337 
L 325.738595 82.960273 
L 326.824396 84.243648 
L 327.910198 84.15411 
L 328.995999 83.228886 
L 330.0818 83.497499 
L 331.167601 83.646729 
L 332.253402 82.602121 
L 333.339203 81.736589 
L 334.425005 82.512584 
L 335.510806 82.214124 
L 336.596607 82.333508 
L 337.682408 83.169194 
L 338.768209 79.67722 
L 339.85401 78.87138 
L 340.939811 80.662136 
L 342.025613 80.512906 
L 343.111414 77.468621 
L 344.197215 78.543075 
L 345.283016 77.826773 
L 346.368817 78.513229 
L 347.454618 80.035371 
L 348.54042 78.811688 
L 349.626221 78.483383 
L 350.712022 80.214447 
L 351.797823 79.438453 
L 352.883624 79.050456 
L 353.969425 77.767081 
L 355.055227 77.349238 
L 356.141028 77.379084 
L 357.226829 75.976325 
L 358.31263 76.812011 
L 359.398431 76.991086 
L 360.484232 76.662781 
L 361.570033 76.662781 
L 362.655835 76.364322 
L 363.741636 76.901549 
L 364.827437 76.185246 
L 365.913238 75.767403 
L 366.999039 76.394168 
L 368.08484 75.707711 
L 369.170642 76.364322 
L 370.256443 77.498467 
L 371.342244 78.811688 
L 372.428045 79.617528 
L 373.513846 79.02061 
L 374.599647 79.736912 
L 375.685448 79.408607 
L 376.77125 80.512906 
L 377.857051 80.303985 
L 378.942852 79.766758 
L 380.028653 81.378438 
L 381.114454 78.841534 
L 382.200255 78.602767 
L 383.286057 80.154755 
L 384.371858 80.871057 
L 385.457659 80.214447 
L 386.54346 80.065217 
L 387.629261 78.06554 
L 388.715062 78.990764 
L 390.886665 79.796604 
L 391.972466 79.796604 
L 393.058267 78.334153 
L 394.144068 79.796604 
L 395.229869 79.736912 
L 396.31567 81.169517 
L 397.401472 81.706744 
L 398.487273 78.811688 
L 398.487273 78.811688 
" clip-path="url(#p42ccd42959)" style="fill: none; stroke: #ff7f0e; stroke-width: 1.5; stroke-linecap: square"/>
   </g>
   <g id="line2d_22">
    <path d="M 73.832727 295.488 
L 74.918528 269.491165 
L 76.00433 250.328019 
L 77.090131 252.118775 
L 78.175932 232.276377 
L 79.261733 228.427281 
L 80.347534 221.367175 
L 81.433335 221.94351 
L 82.519137 216.777076 
L 83.604938 213.792483 
L 84.690739 205.229789 
L 85.77654 202.57453 
L 86.862341 202.039362 
L 87.948142 194.917505 
L 89.033943 184.35822 
L 90.119745 189.895155 
L 91.205546 189.627571 
L 92.291347 186.41656 
L 93.377148 186.807645 
L 94.462949 186.375394 
L 95.54875 211.816477 
L 96.634552 200.557357 
L 97.720353 202.430446 
L 98.806154 203.809534 
L 99.891955 194.382337 
L 100.977756 189.833405 
L 102.063557 199.775187 
L 103.149358 193.620751 
L 104.23516 188.618984 
L 105.320961 186.766478 
L 106.406762 184.131803 
L 107.492563 186.35481 
L 108.578364 178.697785 
L 109.664165 186.251893 
L 110.749967 173.757769 
L 111.835768 173.922436 
L 112.921569 175.93961 
L 114.00737 177.298114 
L 115.093171 165.050991 
L 116.178972 168.117917 
L 117.264773 165.70966 
L 118.350575 163.630736 
L 119.436376 166.347745 
L 120.522177 166.121328 
L 121.607978 162.128148 
L 122.693779 167.315165 
L 123.77958 156.303045 
L 124.865382 152.45395 
L 125.951183 160.563809 
L 127.036984 156.714713 
L 128.122785 158.299635 
L 129.208586 155.520876 
L 130.294387 151.836448 
L 131.380189 154.965124 
L 132.46599 154.821041 
L 133.551791 153.73012 
L 134.637592 154.471123 
L 135.723393 153.586037 
L 136.809194 155.685543 
L 137.894995 154.244705 
L 138.980797 179.459371 
L 140.066598 174.91044 
L 141.152399 179.685789 
L 142.2382 172.563932 
L 143.324001 172.955017 
L 144.409802 179.294704 
L 145.495604 181.167793 
L 146.581405 172.728599 
L 147.667206 177.09228 
L 148.753007 180.920793 
L 149.838808 163.095568 
L 150.924609 163.568986 
L 152.01041 166.965247 
L 153.096212 171.205427 
L 154.182013 168.282585 
L 155.267814 170.97901 
L 156.353615 163.466069 
L 157.439416 167.809166 
L 158.525217 161.037228 
L 159.611019 169.394088 
L 160.69682 166.615329 
L 161.782621 161.613563 
L 162.868422 161.098978 
L 163.954223 168.426668 
L 165.040024 164.824573 
L 166.125825 167.479832 
L 167.211627 157.970301 
L 169.383229 168.159084 
L 170.46903 161.325395 
L 171.554831 156.591213 
L 172.640632 150.951361 
L 173.726434 158.361386 
L 174.812235 151.157195 
L 175.898036 164.145321 
L 176.983837 164.289405 
L 178.069638 158.937721 
L 179.155439 154.944541 
L 180.24124 158.773054 
L 181.327042 159.905141 
L 182.412843 154.923958 
L 184.584445 156.261879 
L 186.756047 148.934188 
L 187.841849 155.335626 
L 188.92765 151.54828 
L 190.013451 157.517466 
L 191.099252 153.874204 
L 192.185053 154.203539 
L 193.270854 153.503703 
L 194.356656 151.815864 
L 195.442457 144.40584 
L 196.528258 148.131435 
L 197.614059 143.294336 
L 198.69986 148.110852 
L 200.871462 148.296103 
L 201.957264 150.724944 
L 203.043065 145.249759 
L 204.128866 147.719767 
L 205.214667 150.724944 
L 206.300468 146.752348 
L 207.386269 146.937598 
L 208.472071 145.682011 
L 209.557872 146.484763 
L 210.643673 147.49335 
L 211.729474 148.049102 
L 212.815275 146.793514 
L 213.901076 146.731764 
L 216.072679 143.726588 
L 217.15848 144.920425 
L 218.244281 142.985585 
L 219.330082 146.031929 
L 220.415883 144.632257 
L 221.501684 145.620261 
L 222.587486 145.55851 
L 223.673287 146.52593 
L 224.759088 144.138256 
L 225.844889 165.627326 
L 226.93069 164.083571 
L 228.016491 162.148731 
L 229.102292 172.543349 
L 230.188094 168.303168 
L 231.273895 170.217424 
L 232.359696 173.510768 
L 233.445497 165.812577 
L 234.531298 162.8074 
L 235.617099 168.117917 
L 236.702901 167.376915 
L 237.788702 165.483242 
L 238.874503 167.973834 
L 239.960304 158.62897 
L 241.046105 168.961837 
L 242.131906 169.435255 
L 243.217708 166.059577 
L 244.303509 158.464303 
L 245.38931 165.112741 
L 246.475111 161.551813 
L 247.560912 157.229299 
L 248.646713 159.164138 
L 249.732514 162.560399 
L 250.818316 163.733653 
L 251.904117 163.939487 
L 252.989918 165.70966 
L 254.075719 178.677202 
L 255.16152 160.831394 
L 256.247321 159.555223 
L 257.333123 153.112618 
L 258.418924 164.062987 
L 259.504725 162.86915 
L 260.590526 162.169315 
L 261.676327 162.148731 
L 262.762128 167.644499 
L 264.933731 164.86574 
L 266.019532 162.827983 
L 267.105333 158.176135 
L 268.191134 151.651197 
L 269.276935 162.045814 
L 270.362736 168.879503 
L 271.448538 156.138378 
L 272.534339 161.304812 
L 273.62014 159.431722 
L 274.705941 160.213892 
L 275.791742 157.5998 
L 276.877543 152.433366 
L 277.963344 159.411139 
L 279.049146 163.815987 
L 280.134947 157.229299 
L 281.220748 160.440309 
L 283.39235 156.138378 
L 284.478151 163.71307 
L 285.563953 157.414549 
L 286.649754 160.213892 
L 287.735555 157.085215 
L 288.821356 152.248116 
L 289.907157 160.790227 
L 290.992958 166.080161 
L 292.07876 154.224122 
L 293.164561 163.507236 
L 294.250362 153.133202 
L 295.336163 155.767877 
L 296.421964 156.879381 
L 297.507765 159.102388 
L 298.593566 160.563809 
L 299.679368 154.779874 
L 300.765169 157.78505 
L 301.85097 159.308222 
L 302.936771 155.047458 
L 304.022572 157.929134 
L 305.108373 148.419603 
L 306.194175 154.532873 
L 307.279976 151.445363 
L 308.365777 142.368083 
L 309.451578 154.368206 
L 310.537379 152.783284 
L 311.62318 151.692364 
L 312.708981 159.534639 
L 313.794783 165.997827 
L 314.880584 154.491706 
L 315.966385 149.839858 
L 317.052186 144.179423 
L 318.137987 144.611674 
L 319.223788 148.954771 
L 320.30959 151.857031 
L 321.395391 153.66837 
L 322.481192 155.809044 
L 323.566993 159.267055 
L 324.652794 161.387145 
L 325.738595 148.707771 
L 326.824396 154.450539 
L 327.910198 149.983942 
L 328.995999 148.213769 
L 330.0818 155.479709 
L 331.167601 147.452183 
L 332.253402 146.752348 
L 333.339203 149.057688 
L 334.425005 145.414427 
L 335.510806 144.611674 
L 336.596607 148.39902 
L 337.682408 146.155429 
L 338.768209 142.553334 
L 339.85401 151.918781 
L 340.939811 152.57745 
L 342.025613 147.658017 
L 343.111414 149.901608 
L 344.197215 154.121205 
L 345.283016 150.869028 
L 346.368817 148.152019 
L 347.454618 148.893021 
L 348.54042 144.447007 
L 349.626221 142.738585 
L 350.712022 150.663194 
L 351.797823 145.332093 
L 352.883624 147.225766 
L 353.969425 144.055922 
L 355.055227 145.661427 
L 356.141028 141.38008 
L 357.226829 146.011345 
L 358.31263 145.764344 
L 359.398431 141.791748 
L 360.484232 148.604854 
L 361.570033 146.40243 
L 363.741636 144.52934 
L 364.827437 141.874082 
L 365.913238 142.635668 
L 366.999039 144.591091 
L 368.08484 140.968412 
L 369.170642 146.958182 
L 370.256443 145.476177 
L 371.342244 148.131435 
L 372.428045 147.164016 
L 373.513846 148.501937 
L 374.599647 150.148609 
L 375.685448 148.316686 
L 376.77125 153.935954 
L 377.857051 150.45736 
L 380.028653 140.186243 
L 381.114454 140.515577 
L 382.200255 144.735174 
L 383.286057 147.5551 
L 384.371858 157.702717 
L 385.457659 147.987352 
L 386.54346 144.838091 
L 387.629261 148.501937 
L 388.715062 150.086859 
L 389.800863 150.210359 
L 390.886665 146.567097 
L 391.972466 145.784928 
L 393.058267 141.31833 
L 394.144068 144.261756 
L 395.229869 143.006169 
L 396.31567 147.946185 
L 397.401472 148.254936 
L 398.487273 150.951361 
L 398.487273 150.951361 
" clip-path="url(#p42ccd42959)" style="fill: none; stroke: #2ca02c; stroke-width: 1.5; stroke-linecap: square"/>
   </g>
   <g id="line2d_23">
    <path d="M 368.08484 75.439098 
L 369.170642 77.677543 
L 371.342244 76.961241 
L 372.428045 76.394168 
L 374.599647 80.691982 
L 375.685448 79.229531 
L 376.77125 78.781842 
L 377.857051 82.661813 
L 378.942852 79.67722 
L 380.028653 81.676898 
L 381.114454 82.691659 
L 382.200255 80.244293 
L 383.286057 82.840889 
L 384.371858 80.333831 
L 385.457659 80.841212 
L 386.54346 78.06554 
L 387.629261 80.960595 
L 388.715062 84.691337 
L 389.800863 83.34827 
L 390.886665 82.661813 
L 391.972466 81.617206 
L 393.058267 82.303662 
L 394.144068 81.318746 
L 395.229869 82.721505 
L 396.31567 84.691337 
L 397.401472 82.512584 
L 398.487273 85.198717 
L 398.487273 85.198717 
" clip-path="url(#p42ccd42959)" style="fill: none; stroke: #d62728; stroke-width: 1.5; stroke-linecap: square"/>
   </g>
   <g id="line2d_24">
    <path d="M 368.08484 140.927245 
L 369.170642 147.308099 
L 370.256443 148.934188 
L 371.342244 145.846678 
L 372.428045 142.203416 
L 373.513846 141.215413 
L 374.599647 148.131435 
L 375.685448 146.217179 
L 376.77125 142.100499 
L 377.857051 155.891377 
L 378.942852 147.472767 
L 380.028653 147.246349 
L 381.114454 152.248116 
L 382.200255 151.383613 
L 383.286057 154.841624 
L 384.371858 144.117672 
L 385.457659 148.954771 
L 386.54346 150.724944 
L 388.715062 145.49676 
L 389.800863 143.706004 
L 390.886665 142.573917 
L 391.972466 139.980409 
L 393.058267 142.862085 
L 394.144068 140.247993 
L 395.229869 146.073095 
L 396.31567 147.760934 
L 397.401472 145.764344 
L 398.487273 149.675191 
L 398.487273 149.675191 
" clip-path="url(#p42ccd42959)" style="fill: none; stroke: #9467bd; stroke-width: 1.5; stroke-linecap: square"/>
   </g>
   <g id="patch_3">
    <path d="M 57.6 307.584 
L 57.6 41.472 
" style="fill: none; stroke: #000000; stroke-width: 0.8; stroke-linejoin: miter; stroke-linecap: square"/>
   </g>
   <g id="patch_4">
    <path d="M 414.72 307.584 
L 414.72 41.472 
" style="fill: none; stroke: #000000; stroke-width: 0.8; stroke-linejoin: miter; stroke-linecap: square"/>
   </g>
   <g id="patch_5">
    <path d="M 57.6 307.584 
L 414.72 307.584 
" style="fill: none; stroke: #000000; stroke-width: 0.8; stroke-linejoin: miter; stroke-linecap: square"/>
   </g>
   <g id="patch_6">
    <path d="M 57.6 41.472 
L 414.72 41.472 
" style="fill: none; stroke: #000000; stroke-width: 0.8; stroke-linejoin: miter; stroke-linecap: square"/>
   </g>
   <g id="text_22">
    <!-- Learning Curves -->
    <g transform="translate(187.37625 35.472) scale(0.12 -0.12)">
     <defs>
      <path id="DejaVuSans-4c" d="M 628 4666 
L 1259 4666 
L 1259 531 
L 3531 531 
L 3531 0 
L 628 0 
L 628 4666 
z
" transform="scale(0.015625)"/>
      <path id="DejaVuSans-65" d="M 3597 1894 
L 3597 1613 
L 953 1613 
Q 991 1019 1311 708 
Q 1631 397 2203 397 
Q 2534 397 2845 478 
Q 3156 559 3463 722 
L 3463 178 
Q 3153 47 2828 -22 
Q 2503 -91 2169 -91 
Q 1331 -91 842 396 
Q 353 884 353 1716 
Q 353 2575 817 3079 
Q 1281 3584 2069 3584 
Q 2775 3584 3186 3129 
Q 3597 2675 3597 1894 
z
M 3022 2063 
Q 3016 2534 2758 2815 
Q 2500 3097 2075 3097 
Q 1594 3097 1305 2825 
Q 1016 2553 972 2059 
L 3022 2063 
z
" transform="scale(0.015625)"/>
      <path id="DejaVuSans-6e" d="M 3513 2113 
L 3513 0 
L 2938 0 
L 2938 2094 
Q 2938 2591 2744 2837 
Q 2550 3084 2163 3084 
Q 1697 3084 1428 2787 
Q 1159 2491 1159 1978 
L 1159 0 
L 581 0 
L 581 3500 
L 1159 3500 
L 1159 2956 
Q 1366 3272 1645 3428 
Q 1925 3584 2291 3584 
Q 2894 3584 3203 3211 
Q 3513 2838 3513 2113 
z
" transform="scale(0.015625)"/>
      <path id="DejaVuSans-69" d="M 603 3500 
L 1178 3500 
L 1178 0 
L 603 0 
L 603 3500 
z
M 603 4863 
L 1178 4863 
L 1178 4134 
L 603 4134 
L 603 4863 
z
" transform="scale(0.015625)"/>
      <path id="DejaVuSans-67" d="M 2906 1791 
Q 2906 2416 2648 2759 
Q 2391 3103 1925 3103 
Q 1463 3103 1205 2759 
Q 947 2416 947 1791 
Q 947 1169 1205 825 
Q 1463 481 1925 481 
Q 2391 481 2648 825 
Q 2906 1169 2906 1791 
z
M 3481 434 
Q 3481 -459 3084 -895 
Q 2688 -1331 1869 -1331 
Q 1566 -1331 1297 -1286 
Q 1028 -1241 775 -1147 
L 775 -588 
Q 1028 -725 1275 -790 
Q 1522 -856 1778 -856 
Q 2344 -856 2625 -561 
Q 2906 -266 2906 331 
L 2906 616 
Q 2728 306 2450 153 
Q 2172 0 1784 0 
Q 1141 0 747 490 
Q 353 981 353 1791 
Q 353 2603 747 3093 
Q 1141 3584 1784 3584 
Q 2172 3584 2450 3431 
Q 2728 3278 2906 2969 
L 2906 3500 
L 3481 3500 
L 3481 434 
z
" transform="scale(0.015625)"/>
      <path id="DejaVuSans-20" transform="scale(0.015625)"/>
      <path id="DejaVuSans-43" d="M 4122 4306 
L 4122 3641 
Q 3803 3938 3442 4084 
Q 3081 4231 2675 4231 
Q 1875 4231 1450 3742 
Q 1025 3253 1025 2328 
Q 1025 1406 1450 917 
Q 1875 428 2675 428 
Q 3081 428 3442 575 
Q 3803 722 4122 1019 
L 4122 359 
Q 3791 134 3420 21 
Q 3050 -91 2638 -91 
Q 1578 -91 968 557 
Q 359 1206 359 2328 
Q 359 3453 968 4101 
Q 1578 4750 2638 4750 
Q 3056 4750 3426 4639 
Q 3797 4528 4122 4306 
z
" transform="scale(0.015625)"/>
      <path id="DejaVuSans-76" d="M 191 3500 
L 800 3500 
L 1894 563 
L 2988 3500 
L 3597 3500 
L 2284 0 
L 1503 0 
L 191 3500 
z
" transform="scale(0.015625)"/>
     </defs>
     <use xlink:href="#DejaVuSans-4c"/>
     <use xlink:href="#DejaVuSans-65" x="53.962891"/>
     <use xlink:href="#DejaVuSans-61" x="115.486328"/>
     <use xlink:href="#DejaVuSans-72" x="176.765625"/>
     <use xlink:href="#DejaVuSans-6e" x="216.128906"/>
     <use xlink:href="#DejaVuSans-69" x="279.507812"/>
     <use xlink:href="#DejaVuSans-6e" x="307.291016"/>
     <use xlink:href="#DejaVuSans-67" x="370.669922"/>
     <use xlink:href="#DejaVuSans-20" x="434.146484"/>
     <use xlink:href="#DejaVuSans-43" x="465.933594"/>
     <use xlink:href="#DejaVuSans-75" x="535.757812"/>
     <use xlink:href="#DejaVuSans-72" x="599.136719"/>
     <use xlink:href="#DejaVuSans-76" x="640.25"/>
     <use xlink:href="#DejaVuSans-65" x="699.429688"/>
     <use xlink:href="#DejaVuSans-73" x="760.953125"/>
    </g>
   </g>
   <g id="legend_1">
    <g id="patch_7">
     <path d="M 214.18875 302.584 
L 407.72 302.584 
Q 409.72 302.584 409.72 300.584 
L 409.72 228.193375 
Q 409.72 226.193375 407.72 226.193375 
L 214.18875 226.193375 
Q 212.18875 226.193375 212.18875 228.193375 
L 212.18875 300.584 
Q 212.18875 302.584 214.18875 302.584 
z
" style="fill: #ffffff; opacity: 0.8; stroke: #cccccc; stroke-linejoin: miter"/>
    </g>
    <g id="line2d_25">
     <path d="M 216.18875 234.291812 
L 226.18875 234.291812 
L 236.18875 234.291812 
" style="fill: none; stroke: #1f77b4; stroke-width: 1.5; stroke-linecap: square"/>
    </g>
    <g id="text_23">
     <!-- Train Accuracy -->
     <g transform="translate(244.18875 237.791812) scale(0.1 -0.1)">
      <defs>
       <path id="DejaVuSans-54" d="M -19 4666 
L 3928 4666 
L 3928 4134 
L 2272 4134 
L 2272 0 
L 1638 0 
L 1638 4134 
L -19 4134 
L -19 4666 
z
" transform="scale(0.015625)"/>
      </defs>
      <use xlink:href="#DejaVuSans-54"/>
      <use xlink:href="#DejaVuSans-72" x="46.333984"/>
      <use xlink:href="#DejaVuSans-61" x="87.447266"/>
      <use xlink:href="#DejaVuSans-69" x="148.726562"/>
      <use xlink:href="#DejaVuSans-6e" x="176.509766"/>
      <use xlink:href="#DejaVuSans-20" x="239.888672"/>
      <use xlink:href="#DejaVuSans-41" x="271.675781"/>
      <use xlink:href="#DejaVuSans-63" x="338.333984"/>
      <use xlink:href="#DejaVuSans-63" x="393.314453"/>
      <use xlink:href="#DejaVuSans-75" x="448.294922"/>
      <use xlink:href="#DejaVuSans-72" x="511.673828"/>
      <use xlink:href="#DejaVuSans-61" x="552.787109"/>
      <use xlink:href="#DejaVuSans-63" x="614.066406"/>
      <use xlink:href="#DejaVuSans-79" x="669.046875"/>
     </g>
    </g>
    <g id="line2d_26">
     <path d="M 216.18875 248.969937 
L 226.18875 248.969937 
L 236.18875 248.969937 
" style="fill: none; stroke: #ff7f0e; stroke-width: 1.5; stroke-linecap: square"/>
    </g>
    <g id="text_24">
     <!-- Validation Accuracy -->
     <g transform="translate(244.18875 252.469937) scale(0.1 -0.1)">
      <defs>
       <path id="DejaVuSans-56" d="M 1831 0 
L 50 4666 
L 709 4666 
L 2188 738 
L 3669 4666 
L 4325 4666 
L 2547 0 
L 1831 0 
z
" transform="scale(0.015625)"/>
       <path id="DejaVuSans-6c" d="M 603 4863 
L 1178 4863 
L 1178 0 
L 603 0 
L 603 4863 
z
" transform="scale(0.015625)"/>
       <path id="DejaVuSans-64" d="M 2906 2969 
L 2906 4863 
L 3481 4863 
L 3481 0 
L 2906 0 
L 2906 525 
Q 2725 213 2448 61 
Q 2172 -91 1784 -91 
Q 1150 -91 751 415 
Q 353 922 353 1747 
Q 353 2572 751 3078 
Q 1150 3584 1784 3584 
Q 2172 3584 2448 3432 
Q 2725 3281 2906 2969 
z
M 947 1747 
Q 947 1113 1208 752 
Q 1469 391 1925 391 
Q 2381 391 2643 752 
Q 2906 1113 2906 1747 
Q 2906 2381 2643 2742 
Q 2381 3103 1925 3103 
Q 1469 3103 1208 2742 
Q 947 2381 947 1747 
z
" transform="scale(0.015625)"/>
       <path id="DejaVuSans-74" d="M 1172 4494 
L 1172 3500 
L 2356 3500 
L 2356 3053 
L 1172 3053 
L 1172 1153 
Q 1172 725 1289 603 
Q 1406 481 1766 481 
L 2356 481 
L 2356 0 
L 1766 0 
Q 1100 0 847 248 
Q 594 497 594 1153 
L 594 3053 
L 172 3053 
L 172 3500 
L 594 3500 
L 594 4494 
L 1172 4494 
z
" transform="scale(0.015625)"/>
      </defs>
      <use xlink:href="#DejaVuSans-56"/>
      <use xlink:href="#DejaVuSans-61" x="60.658203"/>
      <use xlink:href="#DejaVuSans-6c" x="121.9375"/>
      <use xlink:href="#DejaVuSans-69" x="149.720703"/>
      <use xlink:href="#DejaVuSans-64" x="177.503906"/>
      <use xlink:href="#DejaVuSans-61" x="240.980469"/>
      <use xlink:href="#DejaVuSans-74" x="302.259766"/>
      <use xlink:href="#DejaVuSans-69" x="341.46875"/>
      <use xlink:href="#DejaVuSans-6f" x="369.251953"/>
      <use xlink:href="#DejaVuSans-6e" x="430.433594"/>
      <use xlink:href="#DejaVuSans-20" x="493.8125"/>
      <use xlink:href="#DejaVuSans-41" x="525.599609"/>
      <use xlink:href="#DejaVuSans-63" x="592.257812"/>
      <use xlink:href="#DejaVuSans-63" x="647.238281"/>
      <use xlink:href="#DejaVuSans-75" x="702.21875"/>
      <use xlink:href="#DejaVuSans-72" x="765.597656"/>
      <use xlink:href="#DejaVuSans-61" x="806.710938"/>
      <use xlink:href="#DejaVuSans-63" x="867.990234"/>
      <use xlink:href="#DejaVuSans-79" x="922.970703"/>
     </g>
    </g>
    <g id="line2d_27">
     <path d="M 216.18875 263.648062 
L 226.18875 263.648062 
L 236.18875 263.648062 
" style="fill: none; stroke: #2ca02c; stroke-width: 1.5; stroke-linecap: square"/>
    </g>
    <g id="text_25">
     <!-- Robust Validation Accuracy -->
     <g transform="translate(244.18875 267.148062) scale(0.1 -0.1)">
      <defs>
       <path id="DejaVuSans-52" d="M 2841 2188 
Q 3044 2119 3236 1894 
Q 3428 1669 3622 1275 
L 4263 0 
L 3584 0 
L 2988 1197 
Q 2756 1666 2539 1819 
Q 2322 1972 1947 1972 
L 1259 1972 
L 1259 0 
L 628 0 
L 628 4666 
L 2053 4666 
Q 2853 4666 3247 4331 
Q 3641 3997 3641 3322 
Q 3641 2881 3436 2590 
Q 3231 2300 2841 2188 
z
M 1259 4147 
L 1259 2491 
L 2053 2491 
Q 2509 2491 2742 2702 
Q 2975 2913 2975 3322 
Q 2975 3731 2742 3939 
Q 2509 4147 2053 4147 
L 1259 4147 
z
" transform="scale(0.015625)"/>
       <path id="DejaVuSans-62" d="M 3116 1747 
Q 3116 2381 2855 2742 
Q 2594 3103 2138 3103 
Q 1681 3103 1420 2742 
Q 1159 2381 1159 1747 
Q 1159 1113 1420 752 
Q 1681 391 2138 391 
Q 2594 391 2855 752 
Q 3116 1113 3116 1747 
z
M 1159 2969 
Q 1341 3281 1617 3432 
Q 1894 3584 2278 3584 
Q 2916 3584 3314 3078 
Q 3713 2572 3713 1747 
Q 3713 922 3314 415 
Q 2916 -91 2278 -91 
Q 1894 -91 1617 61 
Q 1341 213 1159 525 
L 1159 0 
L 581 0 
L 581 4863 
L 1159 4863 
L 1159 2969 
z
" transform="scale(0.015625)"/>
      </defs>
      <use xlink:href="#DejaVuSans-52"/>
      <use xlink:href="#DejaVuSans-6f" x="64.982422"/>
      <use xlink:href="#DejaVuSans-62" x="126.164062"/>
      <use xlink:href="#DejaVuSans-75" x="189.640625"/>
      <use xlink:href="#DejaVuSans-73" x="253.019531"/>
      <use xlink:href="#DejaVuSans-74" x="305.119141"/>
      <use xlink:href="#DejaVuSans-20" x="344.328125"/>
      <use xlink:href="#DejaVuSans-56" x="376.115234"/>
      <use xlink:href="#DejaVuSans-61" x="436.773438"/>
      <use xlink:href="#DejaVuSans-6c" x="498.052734"/>
      <use xlink:href="#DejaVuSans-69" x="525.835938"/>
      <use xlink:href="#DejaVuSans-64" x="553.619141"/>
      <use xlink:href="#DejaVuSans-61" x="617.095703"/>
      <use xlink:href="#DejaVuSans-74" x="678.375"/>
      <use xlink:href="#DejaVuSans-69" x="717.583984"/>
      <use xlink:href="#DejaVuSans-6f" x="745.367188"/>
      <use xlink:href="#DejaVuSans-6e" x="806.548828"/>
      <use xlink:href="#DejaVuSans-20" x="869.927734"/>
      <use xlink:href="#DejaVuSans-41" x="901.714844"/>
      <use xlink:href="#DejaVuSans-63" x="968.373047"/>
      <use xlink:href="#DejaVuSans-63" x="1023.353516"/>
      <use xlink:href="#DejaVuSans-75" x="1078.333984"/>
      <use xlink:href="#DejaVuSans-72" x="1141.712891"/>
      <use xlink:href="#DejaVuSans-61" x="1182.826172"/>
      <use xlink:href="#DejaVuSans-63" x="1244.105469"/>
      <use xlink:href="#DejaVuSans-79" x="1299.085938"/>
     </g>
    </g>
    <g id="line2d_28">
     <path d="M 216.18875 278.326188 
L 226.18875 278.326188 
L 236.18875 278.326188 
" style="fill: none; stroke: #d62728; stroke-width: 1.5; stroke-linecap: square"/>
    </g>
    <g id="text_26">
     <!-- SWA Validation Accuracy -->
     <g transform="translate(244.18875 281.826188) scale(0.1 -0.1)">
      <defs>
       <path id="DejaVuSans-53" d="M 3425 4513 
L 3425 3897 
Q 3066 4069 2747 4153 
Q 2428 4238 2131 4238 
Q 1616 4238 1336 4038 
Q 1056 3838 1056 3469 
Q 1056 3159 1242 3001 
Q 1428 2844 1947 2747 
L 2328 2669 
Q 3034 2534 3370 2195 
Q 3706 1856 3706 1288 
Q 3706 609 3251 259 
Q 2797 -91 1919 -91 
Q 1588 -91 1214 -16 
Q 841 59 441 206 
L 441 856 
Q 825 641 1194 531 
Q 1563 422 1919 422 
Q 2459 422 2753 634 
Q 3047 847 3047 1241 
Q 3047 1584 2836 1778 
Q 2625 1972 2144 2069 
L 1759 2144 
Q 1053 2284 737 2584 
Q 422 2884 422 3419 
Q 422 4038 858 4394 
Q 1294 4750 2059 4750 
Q 2388 4750 2728 4690 
Q 3069 4631 3425 4513 
z
" transform="scale(0.015625)"/>
       <path id="DejaVuSans-57" d="M 213 4666 
L 850 4666 
L 1831 722 
L 2809 4666 
L 3519 4666 
L 4500 722 
L 5478 4666 
L 6119 4666 
L 4947 0 
L 4153 0 
L 3169 4050 
L 2175 0 
L 1381 0 
L 213 4666 
z
" transform="scale(0.015625)"/>
      </defs>
      <use xlink:href="#DejaVuSans-53"/>
      <use xlink:href="#DejaVuSans-57" x="63.476562"/>
      <use xlink:href="#DejaVuSans-41" x="156.853516"/>
      <use xlink:href="#DejaVuSans-20" x="225.261719"/>
      <use xlink:href="#DejaVuSans-56" x="257.048828"/>
      <use xlink:href="#DejaVuSans-61" x="317.707031"/>
      <use xlink:href="#DejaVuSans-6c" x="378.986328"/>
      <use xlink:href="#DejaVuSans-69" x="406.769531"/>
      <use xlink:href="#DejaVuSans-64" x="434.552734"/>
      <use xlink:href="#DejaVuSans-61" x="498.029297"/>
      <use xlink:href="#DejaVuSans-74" x="559.308594"/>
      <use xlink:href="#DejaVuSans-69" x="598.517578"/>
      <use xlink:href="#DejaVuSans-6f" x="626.300781"/>
      <use xlink:href="#DejaVuSans-6e" x="687.482422"/>
      <use xlink:href="#DejaVuSans-20" x="750.861328"/>
      <use xlink:href="#DejaVuSans-41" x="782.648438"/>
      <use xlink:href="#DejaVuSans-63" x="849.306641"/>
      <use xlink:href="#DejaVuSans-63" x="904.287109"/>
      <use xlink:href="#DejaVuSans-75" x="959.267578"/>
      <use xlink:href="#DejaVuSans-72" x="1022.646484"/>
      <use xlink:href="#DejaVuSans-61" x="1063.759766"/>
      <use xlink:href="#DejaVuSans-63" x="1125.039062"/>
      <use xlink:href="#DejaVuSans-79" x="1180.019531"/>
     </g>
    </g>
    <g id="line2d_29">
     <path d="M 216.18875 293.004312 
L 226.18875 293.004312 
L 236.18875 293.004312 
" style="fill: none; stroke: #9467bd; stroke-width: 1.5; stroke-linecap: square"/>
    </g>
    <g id="text_27">
     <!-- SWA Robust Validation Accuracy -->
     <g transform="translate(244.18875 296.504312) scale(0.1 -0.1)">
      <use xlink:href="#DejaVuSans-53"/>
      <use xlink:href="#DejaVuSans-57" x="63.476562"/>
      <use xlink:href="#DejaVuSans-41" x="156.853516"/>
      <use xlink:href="#DejaVuSans-20" x="225.261719"/>
      <use xlink:href="#DejaVuSans-52" x="257.048828"/>
      <use xlink:href="#DejaVuSans-6f" x="322.03125"/>
      <use xlink:href="#DejaVuSans-62" x="383.212891"/>
      <use xlink:href="#DejaVuSans-75" x="446.689453"/>
      <use xlink:href="#DejaVuSans-73" x="510.068359"/>
      <use xlink:href="#DejaVuSans-74" x="562.167969"/>
      <use xlink:href="#DejaVuSans-20" x="601.376953"/>
      <use xlink:href="#DejaVuSans-56" x="633.164062"/>
      <use xlink:href="#DejaVuSans-61" x="693.822266"/>
      <use xlink:href="#DejaVuSans-6c" x="755.101562"/>
      <use xlink:href="#DejaVuSans-69" x="782.884766"/>
      <use xlink:href="#DejaVuSans-64" x="810.667969"/>
      <use xlink:href="#DejaVuSans-61" x="874.144531"/>
      <use xlink:href="#DejaVuSans-74" x="935.423828"/>
      <use xlink:href="#DejaVuSans-69" x="974.632812"/>
      <use xlink:href="#DejaVuSans-6f" x="1002.416016"/>
      <use xlink:href="#DejaVuSans-6e" x="1063.597656"/>
      <use xlink:href="#DejaVuSans-20" x="1126.976562"/>
      <use xlink:href="#DejaVuSans-41" x="1158.763672"/>
      <use xlink:href="#DejaVuSans-63" x="1225.421875"/>
      <use xlink:href="#DejaVuSans-63" x="1280.402344"/>
      <use xlink:href="#DejaVuSans-75" x="1335.382812"/>
      <use xlink:href="#DejaVuSans-72" x="1398.761719"/>
      <use xlink:href="#DejaVuSans-61" x="1439.875"/>
      <use xlink:href="#DejaVuSans-63" x="1501.154297"/>
      <use xlink:href="#DejaVuSans-79" x="1556.134766"/>
     </g>
    </g>
   </g>
  </g>
 </g>
 <defs>
  <clipPath id="p42ccd42959">
   <rect x="57.6" y="41.472" width="357.12" height="266.112"/>
  </clipPath>
 </defs>
</svg>
