<?xml version="1.0" encoding="utf-8" standalone="no"?>
<!DOCTYPE svg PUBLIC "-//W3C//DTD SVG 1.1//EN"
  "http://www.w3.org/Graphics/SVG/1.1/DTD/svg11.dtd">
<svg xmlns:xlink="http://www.w3.org/1999/xlink" width="460.8pt" height="345.6pt" viewBox="0 0 460.8 345.6" xmlns="http://www.w3.org/2000/svg" version="1.1">
 <metadata>
  <rdf:RDF xmlns:dc="http://purl.org/dc/elements/1.1/" xmlns:cc="http://creativecommons.org/ns#" xmlns:rdf="http://www.w3.org/1999/02/22-rdf-syntax-ns#">
   <cc:Work>
    <dc:type rdf:resource="http://purl.org/dc/dcmitype/StillImage"/>
    <dc:date>2025-06-13T01:30:31.319159</dc:date>
    <dc:format>image/svg+xml</dc:format>
    <dc:creator>
     <cc:Agent>
      <dc:title>Matplotlib v3.9.1, https://matplotlib.org/</dc:title>
     </cc:Agent>
    </dc:creator>
   </cc:Work>
  </rdf:RDF>
 </metadata>
 <defs>
  <style type="text/css">*{stroke-linejoin: round; stroke-linecap: butt}</style>
 </defs>
 <g id="figure_1">
  <g id="patch_1">
   <path d="M 0 345.6 
L 460.8 345.6 
L 460.8 0 
L 0 0 
z
" style="fill: #ffffff"/>
  </g>
  <g id="axes_1">
   <g id="patch_2">
    <path d="M 57.6 307.584 
L 414.72 307.584 
L 414.72 41.472 
L 57.6 41.472 
z
" style="fill: #ffffff"/>
   </g>
   <g id="matplotlib.axis_1">
    <g id="xtick_1">
     <g id="line2d_1">
      <defs>
       <path id="m6b3fd3c746" d="M 0 0 
L 0 3.5 
" style="stroke: #000000; stroke-width: 0.8"/>
      </defs>
      <g>
       <use xlink:href="#m6b3fd3c746" x="73.832727" y="307.584" style="stroke: #000000; stroke-width: 0.8"/>
      </g>
     </g>
     <g id="text_1">
      <!-- 1 -->
      <g transform="translate(70.651477 322.182437) scale(0.1 -0.1)">
       <defs>
        <path id="DejaVuSans-31" d="M 794 531 
L 1825 531 
L 1825 4091 
L 703 3866 
L 703 4441 
L 1819 4666 
L 2450 4666 
L 2450 531 
L 3481 531 
L 3481 0 
L 794 0 
L 794 531 
z
" transform="scale(0.015625)"/>
       </defs>
       <use xlink:href="#DejaVuSans-31"/>
      </g>
     </g>
    </g>
    <g id="xtick_2">
     <g id="line2d_2">
      <g>
       <use xlink:href="#m6b3fd3c746" x="109.664165" y="307.584" style="stroke: #000000; stroke-width: 0.8"/>
      </g>
     </g>
     <g id="text_2">
      <!-- 34 -->
      <g transform="translate(103.301665 322.182437) scale(0.1 -0.1)">
       <defs>
        <path id="DejaVuSans-33" d="M 2597 2516 
Q 3050 2419 3304 2112 
Q 3559 1806 3559 1356 
Q 3559 666 3084 287 
Q 2609 -91 1734 -91 
Q 1441 -91 1130 -33 
Q 819 25 488 141 
L 488 750 
Q 750 597 1062 519 
Q 1375 441 1716 441 
Q 2309 441 2620 675 
Q 2931 909 2931 1356 
Q 2931 1769 2642 2001 
Q 2353 2234 1838 2234 
L 1294 2234 
L 1294 2753 
L 1863 2753 
Q 2328 2753 2575 2939 
Q 2822 3125 2822 3475 
Q 2822 3834 2567 4026 
Q 2313 4219 1838 4219 
Q 1578 4219 1281 4162 
Q 984 4106 628 3988 
L 628 4550 
Q 988 4650 1302 4700 
Q 1616 4750 1894 4750 
Q 2613 4750 3031 4423 
Q 3450 4097 3450 3541 
Q 3450 3153 3228 2886 
Q 3006 2619 2597 2516 
z
" transform="scale(0.015625)"/>
        <path id="DejaVuSans-34" d="M 2419 4116 
L 825 1625 
L 2419 1625 
L 2419 4116 
z
M 2253 4666 
L 3047 4666 
L 3047 1625 
L 3713 1625 
L 3713 1100 
L 3047 1100 
L 3047 0 
L 2419 0 
L 2419 1100 
L 313 1100 
L 313 1709 
L 2253 4666 
z
" transform="scale(0.015625)"/>
       </defs>
       <use xlink:href="#DejaVuSans-33"/>
       <use xlink:href="#DejaVuSans-34" x="63.623047"/>
      </g>
     </g>
    </g>
    <g id="xtick_3">
     <g id="line2d_3">
      <g>
       <use xlink:href="#m6b3fd3c746" x="145.495604" y="307.584" style="stroke: #000000; stroke-width: 0.8"/>
      </g>
     </g>
     <g id="text_3">
      <!-- 67 -->
      <g transform="translate(139.133104 322.182437) scale(0.1 -0.1)">
       <defs>
        <path id="DejaVuSans-36" d="M 2113 2584 
Q 1688 2584 1439 2293 
Q 1191 2003 1191 1497 
Q 1191 994 1439 701 
Q 1688 409 2113 409 
Q 2538 409 2786 701 
Q 3034 994 3034 1497 
Q 3034 2003 2786 2293 
Q 2538 2584 2113 2584 
z
M 3366 4563 
L 3366 3988 
Q 3128 4100 2886 4159 
Q 2644 4219 2406 4219 
Q 1781 4219 1451 3797 
Q 1122 3375 1075 2522 
Q 1259 2794 1537 2939 
Q 1816 3084 2150 3084 
Q 2853 3084 3261 2657 
Q 3669 2231 3669 1497 
Q 3669 778 3244 343 
Q 2819 -91 2113 -91 
Q 1303 -91 875 529 
Q 447 1150 447 2328 
Q 447 3434 972 4092 
Q 1497 4750 2381 4750 
Q 2619 4750 2861 4703 
Q 3103 4656 3366 4563 
z
" transform="scale(0.015625)"/>
        <path id="DejaVuSans-37" d="M 525 4666 
L 3525 4666 
L 3525 4397 
L 1831 0 
L 1172 0 
L 2766 4134 
L 525 4134 
L 525 4666 
z
" transform="scale(0.015625)"/>
       </defs>
       <use xlink:href="#DejaVuSans-36"/>
       <use xlink:href="#DejaVuSans-37" x="63.623047"/>
      </g>
     </g>
    </g>
    <g id="xtick_4">
     <g id="line2d_4">
      <g>
       <use xlink:href="#m6b3fd3c746" x="181.327042" y="307.584" style="stroke: #000000; stroke-width: 0.8"/>
      </g>
     </g>
     <g id="text_4">
      <!-- 100 -->
      <g transform="translate(171.783292 322.182437) scale(0.1 -0.1)">
       <defs>
        <path id="DejaVuSans-30" d="M 2034 4250 
Q 1547 4250 1301 3770 
Q 1056 3291 1056 2328 
Q 1056 1369 1301 889 
Q 1547 409 2034 409 
Q 2525 409 2770 889 
Q 3016 1369 3016 2328 
Q 3016 3291 2770 3770 
Q 2525 4250 2034 4250 
z
M 2034 4750 
Q 2819 4750 3233 4129 
Q 3647 3509 3647 2328 
Q 3647 1150 3233 529 
Q 2819 -91 2034 -91 
Q 1250 -91 836 529 
Q 422 1150 422 2328 
Q 422 3509 836 4129 
Q 1250 4750 2034 4750 
z
" transform="scale(0.015625)"/>
       </defs>
       <use xlink:href="#DejaVuSans-31"/>
       <use xlink:href="#DejaVuSans-30" x="63.623047"/>
       <use xlink:href="#DejaVuSans-30" x="127.246094"/>
      </g>
     </g>
    </g>
    <g id="xtick_5">
     <g id="line2d_5">
      <g>
       <use xlink:href="#m6b3fd3c746" x="217.15848" y="307.584" style="stroke: #000000; stroke-width: 0.8"/>
      </g>
     </g>
     <g id="text_5">
      <!-- 133 -->
      <g transform="translate(207.61473 322.182437) scale(0.1 -0.1)">
       <use xlink:href="#DejaVuSans-31"/>
       <use xlink:href="#DejaVuSans-33" x="63.623047"/>
       <use xlink:href="#DejaVuSans-33" x="127.246094"/>
      </g>
     </g>
    </g>
    <g id="xtick_6">
     <g id="line2d_6">
      <g>
       <use xlink:href="#m6b3fd3c746" x="254.075719" y="307.584" style="stroke: #000000; stroke-width: 0.8"/>
      </g>
     </g>
     <g id="text_6">
      <!-- 167 -->
      <g transform="translate(244.531969 322.182437) scale(0.1 -0.1)">
       <use xlink:href="#DejaVuSans-31"/>
       <use xlink:href="#DejaVuSans-36" x="63.623047"/>
       <use xlink:href="#DejaVuSans-37" x="127.246094"/>
      </g>
     </g>
    </g>
    <g id="xtick_7">
     <g id="line2d_7">
      <g>
       <use xlink:href="#m6b3fd3c746" x="289.907157" y="307.584" style="stroke: #000000; stroke-width: 0.8"/>
      </g>
     </g>
     <g id="text_7">
      <!-- 200 -->
      <g transform="translate(280.363407 322.182437) scale(0.1 -0.1)">
       <defs>
        <path id="DejaVuSans-32" d="M 1228 531 
L 3431 531 
L 3431 0 
L 469 0 
L 469 531 
Q 828 903 1448 1529 
Q 2069 2156 2228 2338 
Q 2531 2678 2651 2914 
Q 2772 3150 2772 3378 
Q 2772 3750 2511 3984 
Q 2250 4219 1831 4219 
Q 1534 4219 1204 4116 
Q 875 4013 500 3803 
L 500 4441 
Q 881 4594 1212 4672 
Q 1544 4750 1819 4750 
Q 2544 4750 2975 4387 
Q 3406 4025 3406 3419 
Q 3406 3131 3298 2873 
Q 3191 2616 2906 2266 
Q 2828 2175 2409 1742 
Q 1991 1309 1228 531 
z
" transform="scale(0.015625)"/>
       </defs>
       <use xlink:href="#DejaVuSans-32"/>
       <use xlink:href="#DejaVuSans-30" x="63.623047"/>
       <use xlink:href="#DejaVuSans-30" x="127.246094"/>
      </g>
     </g>
    </g>
    <g id="xtick_8">
     <g id="line2d_8">
      <g>
       <use xlink:href="#m6b3fd3c746" x="325.738595" y="307.584" style="stroke: #000000; stroke-width: 0.8"/>
      </g>
     </g>
     <g id="text_8">
      <!-- 233 -->
      <g transform="translate(316.194845 322.182437) scale(0.1 -0.1)">
       <use xlink:href="#DejaVuSans-32"/>
       <use xlink:href="#DejaVuSans-33" x="63.623047"/>
       <use xlink:href="#DejaVuSans-33" x="127.246094"/>
      </g>
     </g>
    </g>
    <g id="xtick_9">
     <g id="line2d_9">
      <g>
       <use xlink:href="#m6b3fd3c746" x="361.570033" y="307.584" style="stroke: #000000; stroke-width: 0.8"/>
      </g>
     </g>
     <g id="text_9">
      <!-- 266 -->
      <g transform="translate(352.026283 322.182437) scale(0.1 -0.1)">
       <use xlink:href="#DejaVuSans-32"/>
       <use xlink:href="#DejaVuSans-36" x="63.623047"/>
       <use xlink:href="#DejaVuSans-36" x="127.246094"/>
      </g>
     </g>
    </g>
    <g id="xtick_10">
     <g id="line2d_10">
      <g>
       <use xlink:href="#m6b3fd3c746" x="398.487273" y="307.584" style="stroke: #000000; stroke-width: 0.8"/>
      </g>
     </g>
     <g id="text_10">
      <!-- 300 -->
      <g transform="translate(388.943523 322.182437) scale(0.1 -0.1)">
       <use xlink:href="#DejaVuSans-33"/>
       <use xlink:href="#DejaVuSans-30" x="63.623047"/>
       <use xlink:href="#DejaVuSans-30" x="127.246094"/>
      </g>
     </g>
    </g>
    <g id="text_11">
     <!-- Epochs -->
     <g transform="translate(218.244375 335.860562) scale(0.1 -0.1)">
      <defs>
       <path id="DejaVuSans-45" d="M 628 4666 
L 3578 4666 
L 3578 4134 
L 1259 4134 
L 1259 2753 
L 3481 2753 
L 3481 2222 
L 1259 2222 
L 1259 531 
L 3634 531 
L 3634 0 
L 628 0 
L 628 4666 
z
" transform="scale(0.015625)"/>
       <path id="DejaVuSans-70" d="M 1159 525 
L 1159 -1331 
L 581 -1331 
L 581 3500 
L 1159 3500 
L 1159 2969 
Q 1341 3281 1617 3432 
Q 1894 3584 2278 3584 
Q 2916 3584 3314 3078 
Q 3713 2572 3713 1747 
Q 3713 922 3314 415 
Q 2916 -91 2278 -91 
Q 1894 -91 1617 61 
Q 1341 213 1159 525 
z
M 3116 1747 
Q 3116 2381 2855 2742 
Q 2594 3103 2138 3103 
Q 1681 3103 1420 2742 
Q 1159 2381 1159 1747 
Q 1159 1113 1420 752 
Q 1681 391 2138 391 
Q 2594 391 2855 752 
Q 3116 1113 3116 1747 
z
" transform="scale(0.015625)"/>
       <path id="DejaVuSans-6f" d="M 1959 3097 
Q 1497 3097 1228 2736 
Q 959 2375 959 1747 
Q 959 1119 1226 758 
Q 1494 397 1959 397 
Q 2419 397 2687 759 
Q 2956 1122 2956 1747 
Q 2956 2369 2687 2733 
Q 2419 3097 1959 3097 
z
M 1959 3584 
Q 2709 3584 3137 3096 
Q 3566 2609 3566 1747 
Q 3566 888 3137 398 
Q 2709 -91 1959 -91 
Q 1206 -91 779 398 
Q 353 888 353 1747 
Q 353 2609 779 3096 
Q 1206 3584 1959 3584 
z
" transform="scale(0.015625)"/>
       <path id="DejaVuSans-63" d="M 3122 3366 
L 3122 2828 
Q 2878 2963 2633 3030 
Q 2388 3097 2138 3097 
Q 1578 3097 1268 2742 
Q 959 2388 959 1747 
Q 959 1106 1268 751 
Q 1578 397 2138 397 
Q 2388 397 2633 464 
Q 2878 531 3122 666 
L 3122 134 
Q 2881 22 2623 -34 
Q 2366 -91 2075 -91 
Q 1284 -91 818 406 
Q 353 903 353 1747 
Q 353 2603 823 3093 
Q 1294 3584 2113 3584 
Q 2378 3584 2631 3529 
Q 2884 3475 3122 3366 
z
" transform="scale(0.015625)"/>
       <path id="DejaVuSans-68" d="M 3513 2113 
L 3513 0 
L 2938 0 
L 2938 2094 
Q 2938 2591 2744 2837 
Q 2550 3084 2163 3084 
Q 1697 3084 1428 2787 
Q 1159 2491 1159 1978 
L 1159 0 
L 581 0 
L 581 4863 
L 1159 4863 
L 1159 2956 
Q 1366 3272 1645 3428 
Q 1925 3584 2291 3584 
Q 2894 3584 3203 3211 
Q 3513 2838 3513 2113 
z
" transform="scale(0.015625)"/>
       <path id="DejaVuSans-73" d="M 2834 3397 
L 2834 2853 
Q 2591 2978 2328 3040 
Q 2066 3103 1784 3103 
Q 1356 3103 1142 2972 
Q 928 2841 928 2578 
Q 928 2378 1081 2264 
Q 1234 2150 1697 2047 
L 1894 2003 
Q 2506 1872 2764 1633 
Q 3022 1394 3022 966 
Q 3022 478 2636 193 
Q 2250 -91 1575 -91 
Q 1294 -91 989 -36 
Q 684 19 347 128 
L 347 722 
Q 666 556 975 473 
Q 1284 391 1588 391 
Q 1994 391 2212 530 
Q 2431 669 2431 922 
Q 2431 1156 2273 1281 
Q 2116 1406 1581 1522 
L 1381 1569 
Q 847 1681 609 1914 
Q 372 2147 372 2553 
Q 372 3047 722 3315 
Q 1072 3584 1716 3584 
Q 2034 3584 2315 3537 
Q 2597 3491 2834 3397 
z
" transform="scale(0.015625)"/>
      </defs>
      <use xlink:href="#DejaVuSans-45"/>
      <use xlink:href="#DejaVuSans-70" x="63.183594"/>
      <use xlink:href="#DejaVuSans-6f" x="126.660156"/>
      <use xlink:href="#DejaVuSans-63" x="187.841797"/>
      <use xlink:href="#DejaVuSans-68" x="242.822266"/>
      <use xlink:href="#DejaVuSans-73" x="306.201172"/>
     </g>
    </g>
   </g>
   <g id="matplotlib.axis_2">
    <g id="ytick_1">
     <g id="line2d_11">
      <defs>
       <path id="me71c164232" d="M 0 0 
L -3.5 0 
" style="stroke: #000000; stroke-width: 0.8"/>
      </defs>
      <g>
       <use xlink:href="#me71c164232" x="57.6" y="286.030697" style="stroke: #000000; stroke-width: 0.8"/>
      </g>
     </g>
     <g id="text_12">
      <!-- 10 -->
      <g transform="translate(37.875 289.829915) scale(0.1 -0.1)">
       <use xlink:href="#DejaVuSans-31"/>
       <use xlink:href="#DejaVuSans-30" x="63.623047"/>
      </g>
     </g>
    </g>
    <g id="ytick_2">
     <g id="line2d_12">
      <g>
       <use xlink:href="#me71c164232" x="57.6" y="254.015451" style="stroke: #000000; stroke-width: 0.8"/>
      </g>
     </g>
     <g id="text_13">
      <!-- 20 -->
      <g transform="translate(37.875 257.81467) scale(0.1 -0.1)">
       <use xlink:href="#DejaVuSans-32"/>
       <use xlink:href="#DejaVuSans-30" x="63.623047"/>
      </g>
     </g>
    </g>
    <g id="ytick_3">
     <g id="line2d_13">
      <g>
       <use xlink:href="#me71c164232" x="57.6" y="222.000206" style="stroke: #000000; stroke-width: 0.8"/>
      </g>
     </g>
     <g id="text_14">
      <!-- 30 -->
      <g transform="translate(37.875 225.799425) scale(0.1 -0.1)">
       <use xlink:href="#DejaVuSans-33"/>
       <use xlink:href="#DejaVuSans-30" x="63.623047"/>
      </g>
     </g>
    </g>
    <g id="ytick_4">
     <g id="line2d_14">
      <g>
       <use xlink:href="#me71c164232" x="57.6" y="189.98496" style="stroke: #000000; stroke-width: 0.8"/>
      </g>
     </g>
     <g id="text_15">
      <!-- 40 -->
      <g transform="translate(37.875 193.784179) scale(0.1 -0.1)">
       <use xlink:href="#DejaVuSans-34"/>
       <use xlink:href="#DejaVuSans-30" x="63.623047"/>
      </g>
     </g>
    </g>
    <g id="ytick_5">
     <g id="line2d_15">
      <g>
       <use xlink:href="#me71c164232" x="57.6" y="157.969715" style="stroke: #000000; stroke-width: 0.8"/>
      </g>
     </g>
     <g id="text_16">
      <!-- 50 -->
      <g transform="translate(37.875 161.768934) scale(0.1 -0.1)">
       <defs>
        <path id="DejaVuSans-35" d="M 691 4666 
L 3169 4666 
L 3169 4134 
L 1269 4134 
L 1269 2991 
Q 1406 3038 1543 3061 
Q 1681 3084 1819 3084 
Q 2600 3084 3056 2656 
Q 3513 2228 3513 1497 
Q 3513 744 3044 326 
Q 2575 -91 1722 -91 
Q 1428 -91 1123 -41 
Q 819 9 494 109 
L 494 744 
Q 775 591 1075 516 
Q 1375 441 1709 441 
Q 2250 441 2565 725 
Q 2881 1009 2881 1497 
Q 2881 1984 2565 2268 
Q 2250 2553 1709 2553 
Q 1456 2553 1204 2497 
Q 953 2441 691 2322 
L 691 4666 
z
" transform="scale(0.015625)"/>
       </defs>
       <use xlink:href="#DejaVuSans-35"/>
       <use xlink:href="#DejaVuSans-30" x="63.623047"/>
      </g>
     </g>
    </g>
    <g id="ytick_6">
     <g id="line2d_16">
      <g>
       <use xlink:href="#me71c164232" x="57.6" y="125.95447" style="stroke: #000000; stroke-width: 0.8"/>
      </g>
     </g>
     <g id="text_17">
      <!-- 60 -->
      <g transform="translate(37.875 129.753688) scale(0.1 -0.1)">
       <use xlink:href="#DejaVuSans-36"/>
       <use xlink:href="#DejaVuSans-30" x="63.623047"/>
      </g>
     </g>
    </g>
    <g id="ytick_7">
     <g id="line2d_17">
      <g>
       <use xlink:href="#me71c164232" x="57.6" y="93.939224" style="stroke: #000000; stroke-width: 0.8"/>
      </g>
     </g>
     <g id="text_18">
      <!-- 70 -->
      <g transform="translate(37.875 97.738443) scale(0.1 -0.1)">
       <use xlink:href="#DejaVuSans-37"/>
       <use xlink:href="#DejaVuSans-30" x="63.623047"/>
      </g>
     </g>
    </g>
    <g id="ytick_8">
     <g id="line2d_18">
      <g>
       <use xlink:href="#me71c164232" x="57.6" y="61.923979" style="stroke: #000000; stroke-width: 0.8"/>
      </g>
     </g>
     <g id="text_19">
      <!-- 80 -->
      <g transform="translate(37.875 65.723198) scale(0.1 -0.1)">
       <defs>
        <path id="DejaVuSans-38" d="M 2034 2216 
Q 1584 2216 1326 1975 
Q 1069 1734 1069 1313 
Q 1069 891 1326 650 
Q 1584 409 2034 409 
Q 2484 409 2743 651 
Q 3003 894 3003 1313 
Q 3003 1734 2745 1975 
Q 2488 2216 2034 2216 
z
M 1403 2484 
Q 997 2584 770 2862 
Q 544 3141 544 3541 
Q 544 4100 942 4425 
Q 1341 4750 2034 4750 
Q 2731 4750 3128 4425 
Q 3525 4100 3525 3541 
Q 3525 3141 3298 2862 
Q 3072 2584 2669 2484 
Q 3125 2378 3379 2068 
Q 3634 1759 3634 1313 
Q 3634 634 3220 271 
Q 2806 -91 2034 -91 
Q 1263 -91 848 271 
Q 434 634 434 1313 
Q 434 1759 690 2068 
Q 947 2378 1403 2484 
z
M 1172 3481 
Q 1172 3119 1398 2916 
Q 1625 2713 2034 2713 
Q 2441 2713 2670 2916 
Q 2900 3119 2900 3481 
Q 2900 3844 2670 4047 
Q 2441 4250 2034 4250 
Q 1625 4250 1398 4047 
Q 1172 3844 1172 3481 
z
" transform="scale(0.015625)"/>
       </defs>
       <use xlink:href="#DejaVuSans-38"/>
       <use xlink:href="#DejaVuSans-30" x="63.623047"/>
      </g>
     </g>
    </g>
    <g id="text_20">
     <!-- Accuracy -->
     <g transform="translate(31.795312 197.356125) rotate(-90) scale(0.1 -0.1)">
      <defs>
       <path id="DejaVuSans-41" d="M 2188 4044 
L 1331 1722 
L 3047 1722 
L 2188 4044 
z
M 1831 4666 
L 2547 4666 
L 4325 0 
L 3669 0 
L 3244 1197 
L 1141 1197 
L 716 0 
L 50 0 
L 1831 4666 
z
" transform="scale(0.015625)"/>
       <path id="DejaVuSans-75" d="M 544 1381 
L 544 3500 
L 1119 3500 
L 1119 1403 
Q 1119 906 1312 657 
Q 1506 409 1894 409 
Q 2359 409 2629 706 
Q 2900 1003 2900 1516 
L 2900 3500 
L 3475 3500 
L 3475 0 
L 2900 0 
L 2900 538 
Q 2691 219 2414 64 
Q 2138 -91 1772 -91 
Q 1169 -91 856 284 
Q 544 659 544 1381 
z
M 1991 3584 
L 1991 3584 
z
" transform="scale(0.015625)"/>
       <path id="DejaVuSans-72" d="M 2631 2963 
Q 2534 3019 2420 3045 
Q 2306 3072 2169 3072 
Q 1681 3072 1420 2755 
Q 1159 2438 1159 1844 
L 1159 0 
L 581 0 
L 581 3500 
L 1159 3500 
L 1159 2956 
Q 1341 3275 1631 3429 
Q 1922 3584 2338 3584 
Q 2397 3584 2469 3576 
Q 2541 3569 2628 3553 
L 2631 2963 
z
" transform="scale(0.015625)"/>
       <path id="DejaVuSans-61" d="M 2194 1759 
Q 1497 1759 1228 1600 
Q 959 1441 959 1056 
Q 959 750 1161 570 
Q 1363 391 1709 391 
Q 2188 391 2477 730 
Q 2766 1069 2766 1631 
L 2766 1759 
L 2194 1759 
z
M 3341 1997 
L 3341 0 
L 2766 0 
L 2766 531 
Q 2569 213 2275 61 
Q 1981 -91 1556 -91 
Q 1019 -91 701 211 
Q 384 513 384 1019 
Q 384 1609 779 1909 
Q 1175 2209 1959 2209 
L 2766 2209 
L 2766 2266 
Q 2766 2663 2505 2880 
Q 2244 3097 1772 3097 
Q 1472 3097 1187 3025 
Q 903 2953 641 2809 
L 641 3341 
Q 956 3463 1253 3523 
Q 1550 3584 1831 3584 
Q 2591 3584 2966 3190 
Q 3341 2797 3341 1997 
z
" transform="scale(0.015625)"/>
       <path id="DejaVuSans-79" d="M 2059 -325 
Q 1816 -950 1584 -1140 
Q 1353 -1331 966 -1331 
L 506 -1331 
L 506 -850 
L 844 -850 
Q 1081 -850 1212 -737 
Q 1344 -625 1503 -206 
L 1606 56 
L 191 3500 
L 800 3500 
L 1894 763 
L 2988 3500 
L 3597 3500 
L 2059 -325 
z
" transform="scale(0.015625)"/>
      </defs>
      <use xlink:href="#DejaVuSans-41"/>
      <use xlink:href="#DejaVuSans-63" x="66.658203"/>
      <use xlink:href="#DejaVuSans-63" x="121.638672"/>
      <use xlink:href="#DejaVuSans-75" x="176.619141"/>
      <use xlink:href="#DejaVuSans-72" x="239.998047"/>
      <use xlink:href="#DejaVuSans-61" x="281.111328"/>
      <use xlink:href="#DejaVuSans-63" x="342.390625"/>
      <use xlink:href="#DejaVuSans-79" x="397.371094"/>
     </g>
    </g>
   </g>
   <g id="line2d_19">
    <path d="M 73.832727 295.488 
L 76.00433 238.968286 
L 77.090131 215.14254 
L 78.175932 197.278033 
L 79.261733 181.6674 
L 81.433335 163.674832 
L 82.519137 155.773469 
L 83.604938 150.27325 
L 84.690739 145.656652 
L 85.77654 138.741359 
L 86.862341 135.033993 
L 89.033943 125.986485 
L 90.119745 123.495699 
L 91.205546 120.185323 
L 92.291347 117.412802 
L 93.377148 115.991325 
L 94.462949 115.158929 
L 95.54875 142.852116 
L 96.634552 142.359081 
L 97.720353 139.074317 
L 98.806154 136.532307 
L 99.891955 132.985018 
L 100.977756 131.659586 
L 102.063557 128.816633 
L 103.149358 126.460311 
L 104.23516 124.597023 
L 105.320961 121.414708 
L 106.406762 119.80114 
L 108.578364 115.5175 
L 109.664165 114.448191 
L 110.749967 110.241387 
L 111.835768 112.258348 
L 112.921569 108.75588 
L 114.00737 108.153993 
L 115.093171 105.221397 
L 116.178972 103.703874 
L 117.264773 102.391249 
L 119.436376 97.243198 
L 120.522177 97.35205 
L 121.607978 95.962588 
L 122.693779 92.863512 
L 123.77958 93.029991 
L 124.865382 88.791173 
L 125.951183 89.572345 
L 127.036984 88.618291 
L 128.122785 87.344084 
L 129.208586 85.25669 
L 130.294387 83.700749 
L 131.380189 83.092459 
L 132.46599 82.733889 
L 133.551791 81.459682 
L 134.637592 81.26759 
L 136.809194 80.435194 
L 137.894995 79.346676 
L 138.980797 107.85305 
L 140.066598 111.944598 
L 141.152399 110.587152 
L 142.2382 110.170954 
L 143.324001 109.402588 
L 144.409802 108.979987 
L 145.495604 107.443255 
L 146.581405 105.266218 
L 147.667206 106.418767 
L 148.753007 104.734765 
L 149.838808 103.902369 
L 152.01041 102.890687 
L 153.096212 101.725332 
L 154.182013 100.169391 
L 155.267814 100.105361 
L 156.353615 99.926075 
L 157.439416 98.158834 
L 158.525217 98.491792 
L 160.69682 95.719272 
L 161.782621 95.911364 
L 165.040024 94.355423 
L 166.125825 93.638281 
L 167.211627 92.248819 
L 168.297428 91.512469 
L 169.383229 91.768591 
L 170.46903 90.327905 
L 171.554831 89.726018 
L 172.640632 89.60436 
L 173.726434 87.318472 
L 174.812235 87.299263 
L 175.898036 86.588524 
L 176.983837 85.493603 
L 178.069638 85.589648 
L 179.155439 84.597176 
L 180.24124 83.777586 
L 182.412843 81.382845 
L 183.498644 80.966647 
L 184.584445 81.209963 
L 185.670246 79.762874 
L 186.756047 79.417109 
L 187.841849 78.437443 
L 188.92765 78.110887 
L 190.013451 76.932726 
L 191.099252 76.727828 
L 192.185053 73.891278 
L 193.270854 74.070563 
L 194.356656 73.76962 
L 197.614059 72.092021 
L 198.69986 71.259625 
L 199.785661 71.022712 
L 200.871462 71.387686 
L 201.957264 69.383531 
L 203.043065 69.076185 
L 204.128866 67.07203 
L 205.214667 68.333431 
L 206.300468 67.200091 
L 207.386269 65.868257 
L 208.472071 66.18841 
L 209.557872 65.817033 
L 210.643673 65.221549 
L 211.729474 64.82456 
L 212.815275 63.742445 
L 214.986877 63.793669 
L 216.072679 62.717957 
L 217.15848 62.359386 
L 218.244281 63.140558 
L 219.330082 62.327371 
L 220.415883 62.256938 
L 221.501684 62.692345 
L 223.673287 62.410611 
L 224.759088 61.258062 
L 225.844889 90.225456 
L 226.93069 93.785551 
L 228.016491 93.375756 
L 229.102292 96.173889 
L 230.188094 94.240168 
L 231.273895 92.709839 
L 232.359696 94.566723 
L 234.531298 93.74073 
L 236.702901 94.176137 
L 237.788702 91.7878 
L 238.874503 91.435632 
L 239.960304 91.672545 
L 241.046105 92.389687 
L 242.131906 90.545608 
L 243.217708 91.922264 
L 244.303509 91.013031 
L 246.475111 89.591554 
L 247.560912 90.193441 
L 248.646713 89.264999 
L 249.732514 88.560663 
L 250.818316 87.472145 
L 251.904117 88.573469 
L 252.989918 87.920358 
L 254.075719 87.030334 
L 255.16152 87.292859 
L 256.247321 86.402836 
L 257.333123 86.889467 
L 258.418924 88.138062 
L 259.504725 85.365542 
L 260.590526 85.92901 
L 261.676327 85.711306 
L 262.762128 84.96215 
L 263.847929 84.50113 
L 264.933731 84.891716 
L 266.019532 85.429572 
L 267.105333 84.94294 
L 268.191134 83.97608 
L 269.276935 83.623912 
L 271.448538 82.394527 
L 273.62014 82.055165 
L 274.705941 83.07325 
L 275.791742 81.702998 
L 276.877543 81.818253 
L 277.963344 81.613355 
L 279.049146 82.138405 
L 280.134947 79.609201 
L 281.220748 80.844989 
L 283.39235 79.756471 
L 284.478151 80.319939 
L 285.563953 78.533488 
L 286.649754 80.441597 
L 287.735555 79.564379 
L 288.821356 78.238948 
L 289.907157 78.482264 
L 290.992958 76.657395 
L 292.07876 78.456652 
L 293.164561 77.188848 
L 294.250362 76.875099 
L 295.336163 75.927447 
L 296.421964 76.83668 
L 297.507765 74.999005 
L 298.593566 76.811068 
L 299.679368 74.941378 
L 300.765169 74.896556 
L 301.85097 74.06416 
L 302.936771 74.582807 
L 304.022572 75.338367 
L 305.108373 73.859263 
L 306.194175 73.500692 
L 307.279976 72.86679 
L 308.365777 72.95003 
L 309.451578 72.527428 
L 310.537379 71.835899 
L 311.62318 71.573374 
L 312.708981 71.88072 
L 313.794783 71.592583 
L 314.880584 70.331182 
L 315.966385 69.409143 
L 317.052186 70.664141 
L 318.137987 69.652459 
L 319.223788 69.351516 
L 320.30959 69.511592 
L 321.395391 67.757157 
L 322.481192 68.66639 
L 323.566993 67.712335 
L 324.652794 67.513841 
L 325.738595 66.578996 
L 326.824396 67.923636 
L 327.910198 66.310068 
L 328.995999 66.284455 
L 330.0818 65.317595 
L 331.167601 64.165046 
L 332.253402 64.747724 
L 333.339203 64.978233 
L 334.425005 63.652802 
L 335.510806 63.768057 
L 336.596607 63.255813 
L 337.682408 64.837366 
L 338.768209 63.236604 
L 339.85401 62.519463 
L 340.939811 62.039234 
L 342.025613 61.386123 
L 343.111414 61.520587 
L 344.197215 60.726609 
L 345.283016 60.361635 
L 347.454618 60.047886 
L 348.54042 59.625284 
L 349.626221 59.567657 
L 350.712022 59.72133 
L 351.797823 57.435442 
L 352.883624 57.461054 
L 353.969425 58.069343 
L 355.055227 56.80154 
L 357.226829 56.001159 
L 358.31263 56.103607 
L 359.398431 56.942407 
L 360.484232 55.52093 
L 361.570033 55.930725 
L 362.655835 55.508124 
L 363.741636 55.245599 
L 364.827437 54.022616 
L 365.913238 53.568 
L 366.999039 54.611697 
L 368.08484 54.272335 
L 369.170642 54.810192 
L 370.256443 56.206056 
L 371.342244 57.313784 
L 372.428045 57.646742 
L 373.513846 58.453526 
L 374.599647 58.459929 
L 375.685448 58.882531 
L 376.77125 58.568781 
L 377.857051 57.441845 
L 378.942852 58.6072 
L 380.028653 57.774803 
L 381.114454 57.902864 
L 382.200255 58.98498 
L 383.286057 57.973298 
L 384.371858 57.717176 
L 385.457659 58.152583 
L 386.54346 58.107762 
L 387.629261 58.178195 
L 388.715062 58.094956 
L 389.800863 58.274241 
L 390.886665 58.741664 
L 391.972466 58.094956 
L 393.058267 59.119444 
L 394.144068 58.434317 
L 395.229869 58.415108 
L 396.31567 57.787609 
L 397.401472 57.332993 
L 398.487273 58.370287 
L 398.487273 58.370287 
" clip-path="url(#p4942a624ad)" style="fill: none; stroke: #1f77b4; stroke-width: 1.5; stroke-linecap: square"/>
   </g>
   <g id="line2d_20">
    <path d="M 73.832727 278.859282 
L 74.918528 251.230125 
L 76.00433 218.798681 
L 77.090131 204.295775 
L 78.175932 186.943512 
L 79.261733 173.657185 
L 80.347534 163.444322 
L 82.519137 152.367047 
L 83.604938 139.400873 
L 84.690739 141.962092 
L 85.77654 134.310449 
L 86.862341 132.293488 
L 87.948142 125.250134 
L 89.033943 126.050515 
L 90.119745 121.696442 
L 91.205546 120.800015 
L 92.291347 115.805637 
L 93.377148 115.773622 
L 94.462949 115.037271 
L 95.54875 138.216309 
L 96.634552 145.835937 
L 97.720353 134.790677 
L 98.806154 132.54961 
L 99.891955 131.781244 
L 100.977756 127.843369 
L 102.063557 125.858424 
L 103.149358 119.103207 
L 104.23516 118.622979 
L 105.320961 119.135222 
L 106.406762 113.020311 
L 107.492563 110.363045 
L 108.578364 111.67567 
L 109.664165 109.562664 
L 110.749967 109.498634 
L 111.835768 108.98639 
L 112.921569 104.120072 
L 114.00737 101.975051 
L 115.093171 103.19163 
L 116.178972 98.709496 
L 117.264773 97.140749 
L 118.350575 96.084246 
L 119.436376 93.234889 
L 120.522177 91.794203 
L 121.607978 90.12941 
L 122.693779 89.040892 
L 123.77958 88.208495 
L 124.865382 86.383626 
L 125.951183 86.351611 
L 127.036984 85.871383 
L 128.122785 83.406209 
L 129.208586 83.054041 
L 130.294387 81.037081 
L 131.380189 82.061568 
L 132.46599 80.748943 
L 133.551791 79.69244 
L 134.637592 80.556852 
L 135.723393 79.02012 
L 136.809194 79.884532 
L 137.894995 79.212212 
L 138.980797 104.984484 
L 140.066598 106.905399 
L 141.152399 109.274527 
L 142.2382 101.814975 
L 143.324001 104.856423 
L 144.409802 103.959996 
L 145.495604 103.767905 
L 146.581405 101.975051 
L 147.667206 102.551325 
L 148.753007 99.573908 
L 149.838808 100.182197 
L 150.924609 99.605923 
L 152.01041 98.357328 
L 153.096212 96.436414 
L 154.182013 96.916642 
L 155.267814 99.253755 
L 156.353615 96.564475 
L 157.439416 95.796109 
L 158.525217 95.347895 
L 159.611019 95.892154 
L 160.69682 95.091773 
L 161.782621 92.210401 
L 162.868422 90.353517 
L 163.954223 91.570096 
L 165.040024 93.97124 
L 166.125825 88.816785 
L 167.211627 90.385532 
L 168.297428 89.681197 
L 169.383229 88.208495 
L 170.46903 89.649182 
L 171.554831 88.560663 
L 172.640632 84.20659 
L 173.726434 84.174575 
L 174.812235 83.502254 
L 175.898036 84.142559 
L 176.983837 83.022026 
L 178.069638 82.509782 
L 179.155439 81.709401 
L 180.24124 79.884532 
L 181.327042 82.605828 
L 182.412843 81.965523 
L 183.498644 80.716928 
L 184.584445 78.507876 
L 185.670246 75.690535 
L 186.756047 77.803541 
L 187.841849 75.914641 
L 188.92765 75.498443 
L 190.013451 76.779053 
L 192.185053 75.594489 
L 193.270854 73.545513 
L 194.356656 73.001254 
L 195.442457 73.577528 
L 196.528258 73.193345 
L 197.614059 70.440034 
L 198.69986 71.112354 
L 199.785661 72.008781 
L 200.871462 70.664141 
L 201.957264 68.999348 
L 203.043065 69.767714 
L 204.128866 68.967333 
L 205.214667 67.750754 
L 206.300468 67.558662 
L 207.386269 66.246037 
L 208.472071 67.462616 
L 209.557872 66.726266 
L 210.643673 66.822312 
L 211.729474 67.334556 
L 212.815275 65.445656 
L 213.901076 65.445656 
L 214.986877 64.421168 
L 216.072679 64.581244 
L 217.15848 64.869382 
L 218.244281 64.61326 
L 219.330082 63.33265 
L 220.415883 64.069 
L 223.673287 63.780863 
L 224.759088 64.61326 
L 225.844889 93.170859 
L 226.93069 94.739606 
L 228.016491 93.651087 
L 229.102292 93.330935 
L 230.188094 93.202874 
L 231.273895 90.80173 
L 232.359696 97.140749 
L 233.445497 93.330935 
L 234.531298 90.289486 
L 235.617099 93.138843 
L 236.702901 90.769715 
L 237.788702 93.394965 
L 241.046105 92.370477 
L 242.131906 87.312069 
L 243.217708 91.089868 
L 244.303509 90.12941 
L 247.560912 88.208495 
L 248.646713 94.163331 
L 249.732514 86.543703 
L 250.818316 92.050325 
L 251.904117 87.151992 
L 252.989918 89.969334 
L 254.075719 89.200968 
L 255.16152 90.417547 
L 256.247321 90.161425 
L 257.333123 85.263093 
L 258.418924 83.53427 
L 259.504725 83.694346 
L 260.590526 86.063474 
L 261.676327 84.718834 
L 262.762128 85.391154 
L 263.847929 83.566285 
L 264.933731 88.528648 
L 266.019532 83.950468 
L 267.105333 83.630315 
L 268.191134 82.157614 
L 269.276935 83.406209 
L 270.362736 81.453279 
L 271.448538 84.846895 
L 272.534339 84.20659 
L 273.62014 84.174575 
L 274.705941 82.413736 
L 275.791742 82.605828 
L 276.877543 78.379815 
L 277.963344 80.588867 
L 279.049146 81.933507 
L 280.134947 81.64537 
L 281.220748 81.101111 
L 282.306549 81.549324 
L 283.39235 77.835556 
L 284.478151 76.4589 
L 285.563953 78.41183 
L 286.649754 83.118071 
L 287.735555 78.731983 
L 288.821356 78.091678 
L 289.907157 79.596394 
L 290.992958 77.00316 
L 292.07876 77.643465 
L 293.164561 77.323312 
L 294.250362 82.829934 
L 295.336163 75.05023 
L 296.421964 75.530458 
L 297.507765 80.877004 
L 298.593566 76.554946 
L 299.679368 78.3478 
L 300.765169 77.195251 
L 301.85097 71.752659 
L 302.936771 73.417452 
L 304.022572 73.257376 
L 305.108373 75.242321 
L 306.194175 74.698062 
L 307.279976 73.513498 
L 308.365777 73.609544 
L 309.451578 73.193345 
L 310.537379 73.929696 
L 311.62318 72.969239 
L 312.708981 75.082245 
L 313.794783 73.385437 
L 314.880584 72.200873 
L 315.966385 69.92779 
L 317.052186 72.040797 
L 318.137987 69.479577 
L 319.223788 70.215928 
L 320.30959 70.343989 
L 322.481192 69.351516 
L 323.566993 70.504065 
L 324.652794 67.174479 
L 325.738595 70.055851 
L 326.824396 70.023836 
L 327.910198 68.679196 
L 328.995999 66.918357 
L 330.0818 68.038891 
L 331.167601 68.327028 
L 332.253402 65.733793 
L 333.339203 68.198967 
L 334.425005 65.029458 
L 335.510806 67.142464 
L 336.596607 65.765808 
L 337.682408 65.765808 
L 338.768209 64.997443 
L 339.85401 65.317595 
L 340.939811 64.389153 
L 342.025613 65.413641 
L 343.111414 64.453183 
L 344.197215 63.268619 
L 345.283016 63.652802 
L 346.368817 63.236604 
L 347.454618 61.98801 
L 348.54042 62.308162 
L 349.626221 61.123598 
L 350.712022 62.564284 
L 351.797823 60.995537 
L 352.883624 60.579339 
L 353.969425 61.98801 
L 355.055227 62.05204 
L 356.141028 61.187628 
L 357.226829 61.251659 
L 358.31263 59.810973 
L 359.398431 60.323217 
L 360.484232 59.618881 
L 361.570033 60.419263 
L 362.655835 58.242226 
L 363.741636 59.330744 
L 364.827437 58.434317 
L 366.999039 57.922073 
L 368.08484 58.338272 
L 369.170642 58.914546 
L 371.342244 61.539796 
L 372.428045 62.372192 
L 374.599647 62.340177 
L 375.685448 62.980482 
L 376.77125 62.212116 
L 377.857051 61.731888 
L 378.942852 63.076528 
L 380.028653 61.955994 
L 381.114454 64.165046 
L 382.200255 60.803445 
L 383.286057 62.66033 
L 384.371858 62.468238 
L 385.457659 62.756375 
L 387.629261 61.635842 
L 388.715062 62.116071 
L 389.800863 61.923979 
L 390.886665 64.036985 
L 391.972466 62.500253 
L 393.058267 63.172574 
L 394.144068 62.180101 
L 395.229869 63.620787 
L 396.31567 63.012497 
L 397.401472 62.788391 
L 398.487273 64.00497 
L 398.487273 64.00497 
" clip-path="url(#p4942a624ad)" style="fill: none; stroke: #ff7f0e; stroke-width: 1.5; stroke-linecap: square"/>
   </g>
   <g id="line2d_21">
    <path d="M 73.832727 282.89541 
L 76.00433 240.569048 
L 77.090131 228.359096 
L 78.175932 211.291658 
L 79.261733 204.778212 
L 80.347534 196.80752 
L 81.433335 191.70716 
L 82.519137 190.978537 
L 84.690739 178.680267 
L 85.77654 179.011459 
L 86.862341 171.34988 
L 87.948142 166.66903 
L 89.033943 168.921137 
L 90.119745 165.542977 
L 91.205546 165.189705 
L 92.291347 160.795888 
L 93.377148 159.780232 
L 94.462949 159.515279 
L 95.54875 178.54779 
L 96.634552 182.146745 
L 97.720353 183.471514 
L 98.806154 172.144741 
L 99.891955 176.604796 
L 100.977756 171.76939 
L 102.063557 169.892634 
L 103.149358 167.221017 
L 104.23516 166.470315 
L 105.320961 166.028725 
L 106.406762 158.146351 
L 107.492563 154.326601 
L 108.578364 161.215399 
L 109.664165 160.089345 
L 110.749967 154.37076 
L 111.835768 160.376378 
L 112.921569 154.260363 
L 114.00737 150.175659 
L 115.093171 150.727646 
L 116.178972 146.068876 
L 117.264773 148.43138 
L 118.350575 146.113035 
L 119.436376 146.090955 
L 120.522177 137.899468 
L 121.607978 139.709986 
L 122.693779 137.259163 
L 123.77958 138.804727 
L 124.865382 135.007056 
L 125.951183 134.675864 
L 127.036984 136.199348 
L 128.122785 132.821188 
L 129.208586 133.57189 
L 130.294387 131.098988 
L 131.380189 132.225042 
L 132.46599 130.436604 
L 133.551791 130.966512 
L 135.723393 130.061253 
L 136.809194 130.811955 
L 137.894995 129.420948 
L 138.980797 153.597978 
L 140.066598 161.944021 
L 141.152399 158.367146 
L 142.2382 148.100188 
L 143.324001 153.045991 
L 144.409802 150.815964 
L 145.495604 150.352295 
L 146.581405 155.033144 
L 148.753007 148.585936 
L 149.838808 147.526121 
L 150.924609 151.588746 
L 152.01041 145.538968 
L 153.096212 141.299708 
L 154.182013 148.056029 
L 155.267814 147.106611 
L 156.353615 146.620863 
L 157.439416 144.58955 
L 158.525217 143.286861 
L 159.611019 145.914319 
L 160.69682 146.245511 
L 161.782621 142.425761 
L 162.868422 142.889431 
L 163.954223 141.829616 
L 165.040024 144.766186 
L 166.125825 139.246316 
L 167.211627 138.981363 
L 168.297428 139.643747 
L 169.383229 133.726447 
L 170.46903 137.700753 
L 171.554831 138.363137 
L 172.640632 134.499228 
L 173.726434 133.064062 
L 174.812235 130.370366 
L 175.898036 134.940818 
L 176.983837 131.982168 
L 178.069638 130.745717 
L 179.155439 131.386022 
L 180.24124 128.802723 
L 181.327042 129.575504 
L 182.412843 128.802723 
L 183.498644 128.537769 
L 184.584445 129.35471 
L 185.670246 125.689516 
L 186.756047 125.645357 
L 187.841849 125.733675 
L 188.92765 127.63251 
L 190.013451 124.695939 
L 191.099252 125.336244 
L 192.185053 125.09337 
L 193.270854 119.728057 
L 194.356656 122.443832 
L 196.528258 122.13472 
L 197.614059 118.690321 
L 198.69986 120.213805 
L 199.785661 119.639739 
L 200.871462 119.705977 
L 201.957264 116.17326 
L 203.043065 116.438214 
L 204.128866 119.065672 
L 205.214667 116.946042 
L 206.300468 114.07571 
L 207.386269 115.422558 
L 208.472071 115.33424 
L 209.557872 115.113445 
L 210.643673 113.523723 
L 211.729474 112.596385 
L 212.815275 112.088557 
L 213.901076 111.315775 
L 214.986877 111.646967 
L 216.072679 113.015895 
L 217.15848 112.750941 
L 218.244281 110.65339 
L 219.330082 110.984583 
L 220.415883 111.492411 
L 221.501684 111.492411 
L 223.673287 111.072901 
L 224.759088 111.050821 
L 225.844889 144.677868 
L 226.93069 142.712795 
L 228.016491 148.188506 
L 229.102292 145.826001 
L 230.188094 140.549006 
L 231.273895 141.498423 
L 232.359696 147.923552 
L 233.445497 144.059643 
L 234.531298 138.915124 
L 235.617099 145.848081 
L 236.702901 136.088951 
L 237.788702 139.400873 
L 238.874503 141.520503 
L 239.960304 142.580318 
L 241.046105 142.756954 
L 242.131906 136.464302 
L 243.217708 140.813959 
L 244.303509 141.078913 
L 245.38931 135.183692 
L 246.475111 137.126686 
L 247.560912 138.296899 
L 248.646713 143.860928 
L 249.732514 137.524117 
L 250.818316 142.447841 
L 251.904117 132.379598 
L 252.989918 138.67225 
L 254.075719 133.240698 
L 255.16152 138.142342 
L 256.247321 141.034754 
L 257.333123 133.284857 
L 258.418924 133.461493 
L 259.504725 133.351095 
L 260.590526 135.559043 
L 261.676327 135.801918 
L 262.762128 137.39164 
L 263.847929 135.338249 
L 264.933731 140.813959 
L 266.019532 132.556234 
L 267.105333 136.707176 
L 268.191134 129.067676 
L 269.276935 132.754949 
L 270.362736 128.029941 
L 271.448538 134.212195 
L 272.534339 133.196539 
L 273.62014 131.187306 
L 274.705941 131.827611 
L 275.791742 137.744912 
L 276.877543 132.070486 
L 277.963344 130.392445 
L 280.134947 132.688711 
L 281.220748 128.361133 
L 282.306549 131.783452 
L 283.39235 131.673055 
L 284.478151 125.866152 
L 285.563953 123.658204 
L 286.649754 132.269201 
L 287.735555 128.91312 
L 288.821356 128.49361 
L 289.907157 130.105412 
L 290.992958 125.292085 
L 292.07876 130.105412 
L 293.164561 133.792685 
L 294.250362 129.133915 
L 295.336163 125.137529 
L 296.421964 123.923158 
L 297.507765 131.89385 
L 298.593566 124.872575 
L 299.679368 130.414525 
L 301.85097 121.229461 
L 302.936771 123.614045 
L 304.022572 122.090561 
L 305.108373 122.399674 
L 306.194175 122.863343 
L 307.279976 122.267197 
L 308.365777 124.166032 
L 309.451578 119.882613 
L 310.537379 123.768601 
L 311.62318 122.223038 
L 312.708981 124.453065 
L 313.794783 120.787872 
L 314.880584 120.324202 
L 315.966385 122.178879 
L 317.052186 123.724442 
L 318.137987 118.469526 
L 319.223788 118.226652 
L 320.30959 120.522918 
L 321.395391 116.349896 
L 322.481192 116.747327 
L 323.566993 117.630506 
L 324.652794 116.19534 
L 326.824396 116.946042 
L 327.910198 115.157604 
L 328.995999 118.469526 
L 330.0818 116.857724 
L 331.167601 118.248731 
L 332.253402 112.574305 
L 333.339203 113.435405 
L 334.425005 112.640544 
L 335.510806 114.274425 
L 336.596607 112.154795 
L 337.682408 115.864148 
L 338.768209 111.072901 
L 340.939811 115.687512 
L 342.025613 113.104213 
L 343.111414 111.691126 
L 344.197215 108.335045 
L 345.283016 111.492411 
L 346.368817 112.839259 
L 347.454618 108.710396 
L 348.54042 107.959694 
L 349.626221 109.306542 
L 350.712022 109.991006 
L 351.797823 107.451866 
L 352.883624 107.27523 
L 353.969425 109.085747 
L 355.055227 105.972541 
L 356.141028 107.186912 
L 357.226829 105.354315 
L 358.31263 107.054435 
L 359.398431 108.025932 
L 360.484232 106.811561 
L 361.570033 110.167642 
L 362.655835 107.120674 
L 363.741636 106.679084 
L 364.827437 105.310156 
L 365.913238 104.73609 
L 366.999039 103.720434 
L 368.08484 107.783058 
L 369.170642 105.99462 
L 371.342244 110.388437 
L 372.428045 108.909112 
L 373.513846 108.55584 
L 374.599647 107.672661 
L 375.685448 109.151986 
L 376.77125 109.151986 
L 377.857051 110.211801 
L 378.942852 110.101403 
L 380.028653 112.35351 
L 381.114454 109.107827 
L 382.200255 109.593575 
L 383.286057 111.624888 
L 384.371858 108.092171 
L 385.457659 111.382013 
L 386.54346 109.593575 
L 387.629261 109.196145 
L 388.715062 109.262383 
L 389.800863 112.728861 
L 390.886665 109.637734 
L 391.972466 109.240304 
L 393.058267 110.013086 
L 394.144068 109.085747 
L 395.229869 109.196145 
L 396.31567 112.441828 
L 397.401472 108.95327 
L 398.487273 111.050821 
L 398.487273 111.050821 
" clip-path="url(#p4942a624ad)" style="fill: none; stroke: #2ca02c; stroke-width: 1.5; stroke-linecap: square"/>
   </g>
   <g id="line2d_22">
    <path d="M 368.08484 58.914546 
L 369.170642 58.978576 
L 370.256443 59.458805 
L 371.342244 59.010592 
L 372.428045 61.091583 
L 373.513846 61.187628 
L 374.599647 60.09911 
L 375.685448 62.564284 
L 376.77125 59.458805 
L 377.857051 60.77143 
L 378.942852 60.515308 
L 380.028653 62.020025 
L 381.114454 63.204589 
L 382.200255 62.276147 
L 383.286057 63.076528 
L 384.371858 60.739415 
L 385.457659 59.42679 
L 386.54346 62.116071 
L 387.629261 60.387247 
L 388.715062 61.44375 
L 389.800863 60.003064 
L 390.886665 60.675384 
L 391.972466 63.940939 
L 393.058267 61.635842 
L 394.144068 68.262998 
L 395.229869 67.718738 
L 396.31567 69.319501 
L 397.401472 64.997443 
L 398.487273 66.758281 
L 398.487273 66.758281 
" clip-path="url(#p4942a624ad)" style="fill: none; stroke: #d62728; stroke-width: 1.5; stroke-linecap: square"/>
   </g>
   <g id="line2d_23">
    <path d="M 368.08484 107.142753 
L 369.170642 107.407707 
L 370.256443 104.515295 
L 371.342244 105.376395 
L 372.428045 108.268807 
L 373.513846 104.426977 
L 374.599647 105.685508 
L 375.685448 113.325007 
L 376.77125 105.972541 
L 377.857051 106.811561 
L 378.942852 105.685508 
L 380.028653 105.530951 
L 381.114454 109.593575 
L 383.286057 104.360739 
L 384.371858 106.259574 
L 385.457659 107.562263 
L 386.54346 107.760979 
L 387.629261 107.032356 
L 388.715062 107.915535 
L 389.800863 106.281653 
L 390.886665 106.811561 
L 391.972466 106.679084 
L 393.058267 105.773825 
L 394.144068 117.387632 
L 395.229869 111.845682 
L 396.31567 113.325007 
L 397.401472 110.609231 
L 398.487273 111.934 
L 398.487273 111.934 
" clip-path="url(#p4942a624ad)" style="fill: none; stroke: #9467bd; stroke-width: 1.5; stroke-linecap: square"/>
   </g>
   <g id="patch_3">
    <path d="M 57.6 307.584 
L 57.6 41.472 
" style="fill: none; stroke: #000000; stroke-width: 0.8; stroke-linejoin: miter; stroke-linecap: square"/>
   </g>
   <g id="patch_4">
    <path d="M 414.72 307.584 
L 414.72 41.472 
" style="fill: none; stroke: #000000; stroke-width: 0.8; stroke-linejoin: miter; stroke-linecap: square"/>
   </g>
   <g id="patch_5">
    <path d="M 57.6 307.584 
L 414.72 307.584 
" style="fill: none; stroke: #000000; stroke-width: 0.8; stroke-linejoin: miter; stroke-linecap: square"/>
   </g>
   <g id="patch_6">
    <path d="M 57.6 41.472 
L 414.72 41.472 
" style="fill: none; stroke: #000000; stroke-width: 0.8; stroke-linejoin: miter; stroke-linecap: square"/>
   </g>
   <g id="text_21">
    <!-- Learning Curves -->
    <g transform="translate(187.37625 35.472) scale(0.12 -0.12)">
     <defs>
      <path id="DejaVuSans-4c" d="M 628 4666 
L 1259 4666 
L 1259 531 
L 3531 531 
L 3531 0 
L 628 0 
L 628 4666 
z
" transform="scale(0.015625)"/>
      <path id="DejaVuSans-65" d="M 3597 1894 
L 3597 1613 
L 953 1613 
Q 991 1019 1311 708 
Q 1631 397 2203 397 
Q 2534 397 2845 478 
Q 3156 559 3463 722 
L 3463 178 
Q 3153 47 2828 -22 
Q 2503 -91 2169 -91 
Q 1331 -91 842 396 
Q 353 884 353 1716 
Q 353 2575 817 3079 
Q 1281 3584 2069 3584 
Q 2775 3584 3186 3129 
Q 3597 2675 3597 1894 
z
M 3022 2063 
Q 3016 2534 2758 2815 
Q 2500 3097 2075 3097 
Q 1594 3097 1305 2825 
Q 1016 2553 972 2059 
L 3022 2063 
z
" transform="scale(0.015625)"/>
      <path id="DejaVuSans-6e" d="M 3513 2113 
L 3513 0 
L 2938 0 
L 2938 2094 
Q 2938 2591 2744 2837 
Q 2550 3084 2163 3084 
Q 1697 3084 1428 2787 
Q 1159 2491 1159 1978 
L 1159 0 
L 581 0 
L 581 3500 
L 1159 3500 
L 1159 2956 
Q 1366 3272 1645 3428 
Q 1925 3584 2291 3584 
Q 2894 3584 3203 3211 
Q 3513 2838 3513 2113 
z
" transform="scale(0.015625)"/>
      <path id="DejaVuSans-69" d="M 603 3500 
L 1178 3500 
L 1178 0 
L 603 0 
L 603 3500 
z
M 603 4863 
L 1178 4863 
L 1178 4134 
L 603 4134 
L 603 4863 
z
" transform="scale(0.015625)"/>
      <path id="DejaVuSans-67" d="M 2906 1791 
Q 2906 2416 2648 2759 
Q 2391 3103 1925 3103 
Q 1463 3103 1205 2759 
Q 947 2416 947 1791 
Q 947 1169 1205 825 
Q 1463 481 1925 481 
Q 2391 481 2648 825 
Q 2906 1169 2906 1791 
z
M 3481 434 
Q 3481 -459 3084 -895 
Q 2688 -1331 1869 -1331 
Q 1566 -1331 1297 -1286 
Q 1028 -1241 775 -1147 
L 775 -588 
Q 1028 -725 1275 -790 
Q 1522 -856 1778 -856 
Q 2344 -856 2625 -561 
Q 2906 -266 2906 331 
L 2906 616 
Q 2728 306 2450 153 
Q 2172 0 1784 0 
Q 1141 0 747 490 
Q 353 981 353 1791 
Q 353 2603 747 3093 
Q 1141 3584 1784 3584 
Q 2172 3584 2450 3431 
Q 2728 3278 2906 2969 
L 2906 3500 
L 3481 3500 
L 3481 434 
z
" transform="scale(0.015625)"/>
      <path id="DejaVuSans-20" transform="scale(0.015625)"/>
      <path id="DejaVuSans-43" d="M 4122 4306 
L 4122 3641 
Q 3803 3938 3442 4084 
Q 3081 4231 2675 4231 
Q 1875 4231 1450 3742 
Q 1025 3253 1025 2328 
Q 1025 1406 1450 917 
Q 1875 428 2675 428 
Q 3081 428 3442 575 
Q 3803 722 4122 1019 
L 4122 359 
Q 3791 134 3420 21 
Q 3050 -91 2638 -91 
Q 1578 -91 968 557 
Q 359 1206 359 2328 
Q 359 3453 968 4101 
Q 1578 4750 2638 4750 
Q 3056 4750 3426 4639 
Q 3797 4528 4122 4306 
z
" transform="scale(0.015625)"/>
      <path id="DejaVuSans-76" d="M 191 3500 
L 800 3500 
L 1894 563 
L 2988 3500 
L 3597 3500 
L 2284 0 
L 1503 0 
L 191 3500 
z
" transform="scale(0.015625)"/>
     </defs>
     <use xlink:href="#DejaVuSans-4c"/>
     <use xlink:href="#DejaVuSans-65" x="53.962891"/>
     <use xlink:href="#DejaVuSans-61" x="115.486328"/>
     <use xlink:href="#DejaVuSans-72" x="176.765625"/>
     <use xlink:href="#DejaVuSans-6e" x="216.128906"/>
     <use xlink:href="#DejaVuSans-69" x="279.507812"/>
     <use xlink:href="#DejaVuSans-6e" x="307.291016"/>
     <use xlink:href="#DejaVuSans-67" x="370.669922"/>
     <use xlink:href="#DejaVuSans-20" x="434.146484"/>
     <use xlink:href="#DejaVuSans-43" x="465.933594"/>
     <use xlink:href="#DejaVuSans-75" x="535.757812"/>
     <use xlink:href="#DejaVuSans-72" x="599.136719"/>
     <use xlink:href="#DejaVuSans-76" x="640.25"/>
     <use xlink:href="#DejaVuSans-65" x="699.429688"/>
     <use xlink:href="#DejaVuSans-73" x="760.953125"/>
    </g>
   </g>
   <g id="legend_1">
    <g id="patch_7">
     <path d="M 214.18875 302.584 
L 407.72 302.584 
Q 409.72 302.584 409.72 300.584 
L 409.72 228.193375 
Q 409.72 226.193375 407.72 226.193375 
L 214.18875 226.193375 
Q 212.18875 226.193375 212.18875 228.193375 
L 212.18875 300.584 
Q 212.18875 302.584 214.18875 302.584 
z
" style="fill: #ffffff; opacity: 0.8; stroke: #cccccc; stroke-linejoin: miter"/>
    </g>
    <g id="line2d_24">
     <path d="M 216.18875 234.291812 
L 226.18875 234.291812 
L 236.18875 234.291812 
" style="fill: none; stroke: #1f77b4; stroke-width: 1.5; stroke-linecap: square"/>
    </g>
    <g id="text_22">
     <!-- Train Accuracy -->
     <g transform="translate(244.18875 237.791812) scale(0.1 -0.1)">
      <defs>
       <path id="DejaVuSans-54" d="M -19 4666 
L 3928 4666 
L 3928 4134 
L 2272 4134 
L 2272 0 
L 1638 0 
L 1638 4134 
L -19 4134 
L -19 4666 
z
" transform="scale(0.015625)"/>
      </defs>
      <use xlink:href="#DejaVuSans-54"/>
      <use xlink:href="#DejaVuSans-72" x="46.333984"/>
      <use xlink:href="#DejaVuSans-61" x="87.447266"/>
      <use xlink:href="#DejaVuSans-69" x="148.726562"/>
      <use xlink:href="#DejaVuSans-6e" x="176.509766"/>
      <use xlink:href="#DejaVuSans-20" x="239.888672"/>
      <use xlink:href="#DejaVuSans-41" x="271.675781"/>
      <use xlink:href="#DejaVuSans-63" x="338.333984"/>
      <use xlink:href="#DejaVuSans-63" x="393.314453"/>
      <use xlink:href="#DejaVuSans-75" x="448.294922"/>
      <use xlink:href="#DejaVuSans-72" x="511.673828"/>
      <use xlink:href="#DejaVuSans-61" x="552.787109"/>
      <use xlink:href="#DejaVuSans-63" x="614.066406"/>
      <use xlink:href="#DejaVuSans-79" x="669.046875"/>
     </g>
    </g>
    <g id="line2d_25">
     <path d="M 216.18875 248.969937 
L 226.18875 248.969937 
L 236.18875 248.969937 
" style="fill: none; stroke: #ff7f0e; stroke-width: 1.5; stroke-linecap: square"/>
    </g>
    <g id="text_23">
     <!-- Validation Accuracy -->
     <g transform="translate(244.18875 252.469937) scale(0.1 -0.1)">
      <defs>
       <path id="DejaVuSans-56" d="M 1831 0 
L 50 4666 
L 709 4666 
L 2188 738 
L 3669 4666 
L 4325 4666 
L 2547 0 
L 1831 0 
z
" transform="scale(0.015625)"/>
       <path id="DejaVuSans-6c" d="M 603 4863 
L 1178 4863 
L 1178 0 
L 603 0 
L 603 4863 
z
" transform="scale(0.015625)"/>
       <path id="DejaVuSans-64" d="M 2906 2969 
L 2906 4863 
L 3481 4863 
L 3481 0 
L 2906 0 
L 2906 525 
Q 2725 213 2448 61 
Q 2172 -91 1784 -91 
Q 1150 -91 751 415 
Q 353 922 353 1747 
Q 353 2572 751 3078 
Q 1150 3584 1784 3584 
Q 2172 3584 2448 3432 
Q 2725 3281 2906 2969 
z
M 947 1747 
Q 947 1113 1208 752 
Q 1469 391 1925 391 
Q 2381 391 2643 752 
Q 2906 1113 2906 1747 
Q 2906 2381 2643 2742 
Q 2381 3103 1925 3103 
Q 1469 3103 1208 2742 
Q 947 2381 947 1747 
z
" transform="scale(0.015625)"/>
       <path id="DejaVuSans-74" d="M 1172 4494 
L 1172 3500 
L 2356 3500 
L 2356 3053 
L 1172 3053 
L 1172 1153 
Q 1172 725 1289 603 
Q 1406 481 1766 481 
L 2356 481 
L 2356 0 
L 1766 0 
Q 1100 0 847 248 
Q 594 497 594 1153 
L 594 3053 
L 172 3053 
L 172 3500 
L 594 3500 
L 594 4494 
L 1172 4494 
z
" transform="scale(0.015625)"/>
      </defs>
      <use xlink:href="#DejaVuSans-56"/>
      <use xlink:href="#DejaVuSans-61" x="60.658203"/>
      <use xlink:href="#DejaVuSans-6c" x="121.9375"/>
      <use xlink:href="#DejaVuSans-69" x="149.720703"/>
      <use xlink:href="#DejaVuSans-64" x="177.503906"/>
      <use xlink:href="#DejaVuSans-61" x="240.980469"/>
      <use xlink:href="#DejaVuSans-74" x="302.259766"/>
      <use xlink:href="#DejaVuSans-69" x="341.46875"/>
      <use xlink:href="#DejaVuSans-6f" x="369.251953"/>
      <use xlink:href="#DejaVuSans-6e" x="430.433594"/>
      <use xlink:href="#DejaVuSans-20" x="493.8125"/>
      <use xlink:href="#DejaVuSans-41" x="525.599609"/>
      <use xlink:href="#DejaVuSans-63" x="592.257812"/>
      <use xlink:href="#DejaVuSans-63" x="647.238281"/>
      <use xlink:href="#DejaVuSans-75" x="702.21875"/>
      <use xlink:href="#DejaVuSans-72" x="765.597656"/>
      <use xlink:href="#DejaVuSans-61" x="806.710938"/>
      <use xlink:href="#DejaVuSans-63" x="867.990234"/>
      <use xlink:href="#DejaVuSans-79" x="922.970703"/>
     </g>
    </g>
    <g id="line2d_26">
     <path d="M 216.18875 263.648062 
L 226.18875 263.648062 
L 236.18875 263.648062 
" style="fill: none; stroke: #2ca02c; stroke-width: 1.5; stroke-linecap: square"/>
    </g>
    <g id="text_24">
     <!-- Robust Validation Accuracy -->
     <g transform="translate(244.18875 267.148062) scale(0.1 -0.1)">
      <defs>
       <path id="DejaVuSans-52" d="M 2841 2188 
Q 3044 2119 3236 1894 
Q 3428 1669 3622 1275 
L 4263 0 
L 3584 0 
L 2988 1197 
Q 2756 1666 2539 1819 
Q 2322 1972 1947 1972 
L 1259 1972 
L 1259 0 
L 628 0 
L 628 4666 
L 2053 4666 
Q 2853 4666 3247 4331 
Q 3641 3997 3641 3322 
Q 3641 2881 3436 2590 
Q 3231 2300 2841 2188 
z
M 1259 4147 
L 1259 2491 
L 2053 2491 
Q 2509 2491 2742 2702 
Q 2975 2913 2975 3322 
Q 2975 3731 2742 3939 
Q 2509 4147 2053 4147 
L 1259 4147 
z
" transform="scale(0.015625)"/>
       <path id="DejaVuSans-62" d="M 3116 1747 
Q 3116 2381 2855 2742 
Q 2594 3103 2138 3103 
Q 1681 3103 1420 2742 
Q 1159 2381 1159 1747 
Q 1159 1113 1420 752 
Q 1681 391 2138 391 
Q 2594 391 2855 752 
Q 3116 1113 3116 1747 
z
M 1159 2969 
Q 1341 3281 1617 3432 
Q 1894 3584 2278 3584 
Q 2916 3584 3314 3078 
Q 3713 2572 3713 1747 
Q 3713 922 3314 415 
Q 2916 -91 2278 -91 
Q 1894 -91 1617 61 
Q 1341 213 1159 525 
L 1159 0 
L 581 0 
L 581 4863 
L 1159 4863 
L 1159 2969 
z
" transform="scale(0.015625)"/>
      </defs>
      <use xlink:href="#DejaVuSans-52"/>
      <use xlink:href="#DejaVuSans-6f" x="64.982422"/>
      <use xlink:href="#DejaVuSans-62" x="126.164062"/>
      <use xlink:href="#DejaVuSans-75" x="189.640625"/>
      <use xlink:href="#DejaVuSans-73" x="253.019531"/>
      <use xlink:href="#DejaVuSans-74" x="305.119141"/>
      <use xlink:href="#DejaVuSans-20" x="344.328125"/>
      <use xlink:href="#DejaVuSans-56" x="376.115234"/>
      <use xlink:href="#DejaVuSans-61" x="436.773438"/>
      <use xlink:href="#DejaVuSans-6c" x="498.052734"/>
      <use xlink:href="#DejaVuSans-69" x="525.835938"/>
      <use xlink:href="#DejaVuSans-64" x="553.619141"/>
      <use xlink:href="#DejaVuSans-61" x="617.095703"/>
      <use xlink:href="#DejaVuSans-74" x="678.375"/>
      <use xlink:href="#DejaVuSans-69" x="717.583984"/>
      <use xlink:href="#DejaVuSans-6f" x="745.367188"/>
      <use xlink:href="#DejaVuSans-6e" x="806.548828"/>
      <use xlink:href="#DejaVuSans-20" x="869.927734"/>
      <use xlink:href="#DejaVuSans-41" x="901.714844"/>
      <use xlink:href="#DejaVuSans-63" x="968.373047"/>
      <use xlink:href="#DejaVuSans-63" x="1023.353516"/>
      <use xlink:href="#DejaVuSans-75" x="1078.333984"/>
      <use xlink:href="#DejaVuSans-72" x="1141.712891"/>
      <use xlink:href="#DejaVuSans-61" x="1182.826172"/>
      <use xlink:href="#DejaVuSans-63" x="1244.105469"/>
      <use xlink:href="#DejaVuSans-79" x="1299.085938"/>
     </g>
    </g>
    <g id="line2d_27">
     <path d="M 216.18875 278.326188 
L 226.18875 278.326188 
L 236.18875 278.326188 
" style="fill: none; stroke: #d62728; stroke-width: 1.5; stroke-linecap: square"/>
    </g>
    <g id="text_25">
     <!-- SWA Validation Accuracy -->
     <g transform="translate(244.18875 281.826188) scale(0.1 -0.1)">
      <defs>
       <path id="DejaVuSans-53" d="M 3425 4513 
L 3425 3897 
Q 3066 4069 2747 4153 
Q 2428 4238 2131 4238 
Q 1616 4238 1336 4038 
Q 1056 3838 1056 3469 
Q 1056 3159 1242 3001 
Q 1428 2844 1947 2747 
L 2328 2669 
Q 3034 2534 3370 2195 
Q 3706 1856 3706 1288 
Q 3706 609 3251 259 
Q 2797 -91 1919 -91 
Q 1588 -91 1214 -16 
Q 841 59 441 206 
L 441 856 
Q 825 641 1194 531 
Q 1563 422 1919 422 
Q 2459 422 2753 634 
Q 3047 847 3047 1241 
Q 3047 1584 2836 1778 
Q 2625 1972 2144 2069 
L 1759 2144 
Q 1053 2284 737 2584 
Q 422 2884 422 3419 
Q 422 4038 858 4394 
Q 1294 4750 2059 4750 
Q 2388 4750 2728 4690 
Q 3069 4631 3425 4513 
z
" transform="scale(0.015625)"/>
       <path id="DejaVuSans-57" d="M 213 4666 
L 850 4666 
L 1831 722 
L 2809 4666 
L 3519 4666 
L 4500 722 
L 5478 4666 
L 6119 4666 
L 4947 0 
L 4153 0 
L 3169 4050 
L 2175 0 
L 1381 0 
L 213 4666 
z
" transform="scale(0.015625)"/>
      </defs>
      <use xlink:href="#DejaVuSans-53"/>
      <use xlink:href="#DejaVuSans-57" x="63.476562"/>
      <use xlink:href="#DejaVuSans-41" x="156.853516"/>
      <use xlink:href="#DejaVuSans-20" x="225.261719"/>
      <use xlink:href="#DejaVuSans-56" x="257.048828"/>
      <use xlink:href="#DejaVuSans-61" x="317.707031"/>
      <use xlink:href="#DejaVuSans-6c" x="378.986328"/>
      <use xlink:href="#DejaVuSans-69" x="406.769531"/>
      <use xlink:href="#DejaVuSans-64" x="434.552734"/>
      <use xlink:href="#DejaVuSans-61" x="498.029297"/>
      <use xlink:href="#DejaVuSans-74" x="559.308594"/>
      <use xlink:href="#DejaVuSans-69" x="598.517578"/>
      <use xlink:href="#DejaVuSans-6f" x="626.300781"/>
      <use xlink:href="#DejaVuSans-6e" x="687.482422"/>
      <use xlink:href="#DejaVuSans-20" x="750.861328"/>
      <use xlink:href="#DejaVuSans-41" x="782.648438"/>
      <use xlink:href="#DejaVuSans-63" x="849.306641"/>
      <use xlink:href="#DejaVuSans-63" x="904.287109"/>
      <use xlink:href="#DejaVuSans-75" x="959.267578"/>
      <use xlink:href="#DejaVuSans-72" x="1022.646484"/>
      <use xlink:href="#DejaVuSans-61" x="1063.759766"/>
      <use xlink:href="#DejaVuSans-63" x="1125.039062"/>
      <use xlink:href="#DejaVuSans-79" x="1180.019531"/>
     </g>
    </g>
    <g id="line2d_28">
     <path d="M 216.18875 293.004312 
L 226.18875 293.004312 
L 236.18875 293.004312 
" style="fill: none; stroke: #9467bd; stroke-width: 1.5; stroke-linecap: square"/>
    </g>
    <g id="text_26">
     <!-- SWA Robust Validation Accuracy -->
     <g transform="translate(244.18875 296.504312) scale(0.1 -0.1)">
      <use xlink:href="#DejaVuSans-53"/>
      <use xlink:href="#DejaVuSans-57" x="63.476562"/>
      <use xlink:href="#DejaVuSans-41" x="156.853516"/>
      <use xlink:href="#DejaVuSans-20" x="225.261719"/>
      <use xlink:href="#DejaVuSans-52" x="257.048828"/>
      <use xlink:href="#DejaVuSans-6f" x="322.03125"/>
      <use xlink:href="#DejaVuSans-62" x="383.212891"/>
      <use xlink:href="#DejaVuSans-75" x="446.689453"/>
      <use xlink:href="#DejaVuSans-73" x="510.068359"/>
      <use xlink:href="#DejaVuSans-74" x="562.167969"/>
      <use xlink:href="#DejaVuSans-20" x="601.376953"/>
      <use xlink:href="#DejaVuSans-56" x="633.164062"/>
      <use xlink:href="#DejaVuSans-61" x="693.822266"/>
      <use xlink:href="#DejaVuSans-6c" x="755.101562"/>
      <use xlink:href="#DejaVuSans-69" x="782.884766"/>
      <use xlink:href="#DejaVuSans-64" x="810.667969"/>
      <use xlink:href="#DejaVuSans-61" x="874.144531"/>
      <use xlink:href="#DejaVuSans-74" x="935.423828"/>
      <use xlink:href="#DejaVuSans-69" x="974.632812"/>
      <use xlink:href="#DejaVuSans-6f" x="1002.416016"/>
      <use xlink:href="#DejaVuSans-6e" x="1063.597656"/>
      <use xlink:href="#DejaVuSans-20" x="1126.976562"/>
      <use xlink:href="#DejaVuSans-41" x="1158.763672"/>
      <use xlink:href="#DejaVuSans-63" x="1225.421875"/>
      <use xlink:href="#DejaVuSans-63" x="1280.402344"/>
      <use xlink:href="#DejaVuSans-75" x="1335.382812"/>
      <use xlink:href="#DejaVuSans-72" x="1398.761719"/>
      <use xlink:href="#DejaVuSans-61" x="1439.875"/>
      <use xlink:href="#DejaVuSans-63" x="1501.154297"/>
      <use xlink:href="#DejaVuSans-79" x="1556.134766"/>
     </g>
    </g>
   </g>
  </g>
 </g>
 <defs>
  <clipPath id="p4942a624ad">
   <rect x="57.6" y="41.472" width="357.12" height="266.112"/>
  </clipPath>
 </defs>
</svg>
