<?xml version="1.0" encoding="utf-8" standalone="no"?>
<!DOCTYPE svg PUBLIC "-//W3C//DTD SVG 1.1//EN"
  "http://www.w3.org/Graphics/SVG/1.1/DTD/svg11.dtd">
<svg xmlns:xlink="http://www.w3.org/1999/xlink" width="460.8pt" height="345.6pt" viewBox="0 0 460.8 345.6" xmlns="http://www.w3.org/2000/svg" version="1.1">
 <metadata>
  <rdf:RDF xmlns:dc="http://purl.org/dc/elements/1.1/" xmlns:cc="http://creativecommons.org/ns#" xmlns:rdf="http://www.w3.org/1999/02/22-rdf-syntax-ns#">
   <cc:Work>
    <dc:type rdf:resource="http://purl.org/dc/dcmitype/StillImage"/>
    <dc:date>2025-10-15T02:03:48.546140</dc:date>
    <dc:format>image/svg+xml</dc:format>
    <dc:creator>
     <cc:Agent>
      <dc:title>Matplotlib v3.9.1, https://matplotlib.org/</dc:title>
     </cc:Agent>
    </dc:creator>
   </cc:Work>
  </rdf:RDF>
 </metadata>
 <defs>
  <style type="text/css">*{stroke-linejoin: round; stroke-linecap: butt}</style>
 </defs>
 <g id="figure_1">
  <g id="patch_1">
   <path d="M 0 345.6 
L 460.8 345.6 
L 460.8 0 
L 0 0 
z
" style="fill: #ffffff"/>
  </g>
  <g id="axes_1">
   <g id="patch_2">
    <path d="M 57.6 307.584 
L 414.72 307.584 
L 414.72 41.472 
L 57.6 41.472 
z
" style="fill: #ffffff"/>
   </g>
   <g id="matplotlib.axis_1">
    <g id="xtick_1">
     <g id="line2d_1">
      <defs>
       <path id="m879928c090" d="M 0 0 
L 0 3.5 
" style="stroke: #000000; stroke-width: 0.8"/>
      </defs>
      <g>
       <use xlink:href="#m879928c090" x="73.832727" y="307.584" style="stroke: #000000; stroke-width: 0.8"/>
      </g>
     </g>
     <g id="text_1">
      <!-- 1 -->
      <g transform="translate(70.651477 322.182437) scale(0.1 -0.1)">
       <defs>
        <path id="DejaVuSans-31" d="M 794 531 
L 1825 531 
L 1825 4091 
L 703 3866 
L 703 4441 
L 1819 4666 
L 2450 4666 
L 2450 531 
L 3481 531 
L 3481 0 
L 794 0 
L 794 531 
z
" transform="scale(0.015625)"/>
       </defs>
       <use xlink:href="#DejaVuSans-31"/>
      </g>
     </g>
    </g>
    <g id="xtick_2">
     <g id="line2d_2">
      <g>
       <use xlink:href="#m879928c090" x="109.664165" y="307.584" style="stroke: #000000; stroke-width: 0.8"/>
      </g>
     </g>
     <g id="text_2">
      <!-- 34 -->
      <g transform="translate(103.301665 322.182437) scale(0.1 -0.1)">
       <defs>
        <path id="DejaVuSans-33" d="M 2597 2516 
Q 3050 2419 3304 2112 
Q 3559 1806 3559 1356 
Q 3559 666 3084 287 
Q 2609 -91 1734 -91 
Q 1441 -91 1130 -33 
Q 819 25 488 141 
L 488 750 
Q 750 597 1062 519 
Q 1375 441 1716 441 
Q 2309 441 2620 675 
Q 2931 909 2931 1356 
Q 2931 1769 2642 2001 
Q 2353 2234 1838 2234 
L 1294 2234 
L 1294 2753 
L 1863 2753 
Q 2328 2753 2575 2939 
Q 2822 3125 2822 3475 
Q 2822 3834 2567 4026 
Q 2313 4219 1838 4219 
Q 1578 4219 1281 4162 
Q 984 4106 628 3988 
L 628 4550 
Q 988 4650 1302 4700 
Q 1616 4750 1894 4750 
Q 2613 4750 3031 4423 
Q 3450 4097 3450 3541 
Q 3450 3153 3228 2886 
Q 3006 2619 2597 2516 
z
" transform="scale(0.015625)"/>
        <path id="DejaVuSans-34" d="M 2419 4116 
L 825 1625 
L 2419 1625 
L 2419 4116 
z
M 2253 4666 
L 3047 4666 
L 3047 1625 
L 3713 1625 
L 3713 1100 
L 3047 1100 
L 3047 0 
L 2419 0 
L 2419 1100 
L 313 1100 
L 313 1709 
L 2253 4666 
z
" transform="scale(0.015625)"/>
       </defs>
       <use xlink:href="#DejaVuSans-33"/>
       <use xlink:href="#DejaVuSans-34" x="63.623047"/>
      </g>
     </g>
    </g>
    <g id="xtick_3">
     <g id="line2d_3">
      <g>
       <use xlink:href="#m879928c090" x="145.495604" y="307.584" style="stroke: #000000; stroke-width: 0.8"/>
      </g>
     </g>
     <g id="text_3">
      <!-- 67 -->
      <g transform="translate(139.133104 322.182437) scale(0.1 -0.1)">
       <defs>
        <path id="DejaVuSans-36" d="M 2113 2584 
Q 1688 2584 1439 2293 
Q 1191 2003 1191 1497 
Q 1191 994 1439 701 
Q 1688 409 2113 409 
Q 2538 409 2786 701 
Q 3034 994 3034 1497 
Q 3034 2003 2786 2293 
Q 2538 2584 2113 2584 
z
M 3366 4563 
L 3366 3988 
Q 3128 4100 2886 4159 
Q 2644 4219 2406 4219 
Q 1781 4219 1451 3797 
Q 1122 3375 1075 2522 
Q 1259 2794 1537 2939 
Q 1816 3084 2150 3084 
Q 2853 3084 3261 2657 
Q 3669 2231 3669 1497 
Q 3669 778 3244 343 
Q 2819 -91 2113 -91 
Q 1303 -91 875 529 
Q 447 1150 447 2328 
Q 447 3434 972 4092 
Q 1497 4750 2381 4750 
Q 2619 4750 2861 4703 
Q 3103 4656 3366 4563 
z
" transform="scale(0.015625)"/>
        <path id="DejaVuSans-37" d="M 525 4666 
L 3525 4666 
L 3525 4397 
L 1831 0 
L 1172 0 
L 2766 4134 
L 525 4134 
L 525 4666 
z
" transform="scale(0.015625)"/>
       </defs>
       <use xlink:href="#DejaVuSans-36"/>
       <use xlink:href="#DejaVuSans-37" x="63.623047"/>
      </g>
     </g>
    </g>
    <g id="xtick_4">
     <g id="line2d_4">
      <g>
       <use xlink:href="#m879928c090" x="181.327042" y="307.584" style="stroke: #000000; stroke-width: 0.8"/>
      </g>
     </g>
     <g id="text_4">
      <!-- 100 -->
      <g transform="translate(171.783292 322.182437) scale(0.1 -0.1)">
       <defs>
        <path id="DejaVuSans-30" d="M 2034 4250 
Q 1547 4250 1301 3770 
Q 1056 3291 1056 2328 
Q 1056 1369 1301 889 
Q 1547 409 2034 409 
Q 2525 409 2770 889 
Q 3016 1369 3016 2328 
Q 3016 3291 2770 3770 
Q 2525 4250 2034 4250 
z
M 2034 4750 
Q 2819 4750 3233 4129 
Q 3647 3509 3647 2328 
Q 3647 1150 3233 529 
Q 2819 -91 2034 -91 
Q 1250 -91 836 529 
Q 422 1150 422 2328 
Q 422 3509 836 4129 
Q 1250 4750 2034 4750 
z
" transform="scale(0.015625)"/>
       </defs>
       <use xlink:href="#DejaVuSans-31"/>
       <use xlink:href="#DejaVuSans-30" x="63.623047"/>
       <use xlink:href="#DejaVuSans-30" x="127.246094"/>
      </g>
     </g>
    </g>
    <g id="xtick_5">
     <g id="line2d_5">
      <g>
       <use xlink:href="#m879928c090" x="217.15848" y="307.584" style="stroke: #000000; stroke-width: 0.8"/>
      </g>
     </g>
     <g id="text_5">
      <!-- 133 -->
      <g transform="translate(207.61473 322.182437) scale(0.1 -0.1)">
       <use xlink:href="#DejaVuSans-31"/>
       <use xlink:href="#DejaVuSans-33" x="63.623047"/>
       <use xlink:href="#DejaVuSans-33" x="127.246094"/>
      </g>
     </g>
    </g>
    <g id="xtick_6">
     <g id="line2d_6">
      <g>
       <use xlink:href="#m879928c090" x="254.075719" y="307.584" style="stroke: #000000; stroke-width: 0.8"/>
      </g>
     </g>
     <g id="text_6">
      <!-- 167 -->
      <g transform="translate(244.531969 322.182437) scale(0.1 -0.1)">
       <use xlink:href="#DejaVuSans-31"/>
       <use xlink:href="#DejaVuSans-36" x="63.623047"/>
       <use xlink:href="#DejaVuSans-37" x="127.246094"/>
      </g>
     </g>
    </g>
    <g id="xtick_7">
     <g id="line2d_7">
      <g>
       <use xlink:href="#m879928c090" x="289.907157" y="307.584" style="stroke: #000000; stroke-width: 0.8"/>
      </g>
     </g>
     <g id="text_7">
      <!-- 200 -->
      <g transform="translate(280.363407 322.182437) scale(0.1 -0.1)">
       <defs>
        <path id="DejaVuSans-32" d="M 1228 531 
L 3431 531 
L 3431 0 
L 469 0 
L 469 531 
Q 828 903 1448 1529 
Q 2069 2156 2228 2338 
Q 2531 2678 2651 2914 
Q 2772 3150 2772 3378 
Q 2772 3750 2511 3984 
Q 2250 4219 1831 4219 
Q 1534 4219 1204 4116 
Q 875 4013 500 3803 
L 500 4441 
Q 881 4594 1212 4672 
Q 1544 4750 1819 4750 
Q 2544 4750 2975 4387 
Q 3406 4025 3406 3419 
Q 3406 3131 3298 2873 
Q 3191 2616 2906 2266 
Q 2828 2175 2409 1742 
Q 1991 1309 1228 531 
z
" transform="scale(0.015625)"/>
       </defs>
       <use xlink:href="#DejaVuSans-32"/>
       <use xlink:href="#DejaVuSans-30" x="63.623047"/>
       <use xlink:href="#DejaVuSans-30" x="127.246094"/>
      </g>
     </g>
    </g>
    <g id="xtick_8">
     <g id="line2d_8">
      <g>
       <use xlink:href="#m879928c090" x="325.738595" y="307.584" style="stroke: #000000; stroke-width: 0.8"/>
      </g>
     </g>
     <g id="text_8">
      <!-- 233 -->
      <g transform="translate(316.194845 322.182437) scale(0.1 -0.1)">
       <use xlink:href="#DejaVuSans-32"/>
       <use xlink:href="#DejaVuSans-33" x="63.623047"/>
       <use xlink:href="#DejaVuSans-33" x="127.246094"/>
      </g>
     </g>
    </g>
    <g id="xtick_9">
     <g id="line2d_9">
      <g>
       <use xlink:href="#m879928c090" x="361.570033" y="307.584" style="stroke: #000000; stroke-width: 0.8"/>
      </g>
     </g>
     <g id="text_9">
      <!-- 266 -->
      <g transform="translate(352.026283 322.182437) scale(0.1 -0.1)">
       <use xlink:href="#DejaVuSans-32"/>
       <use xlink:href="#DejaVuSans-36" x="63.623047"/>
       <use xlink:href="#DejaVuSans-36" x="127.246094"/>
      </g>
     </g>
    </g>
    <g id="xtick_10">
     <g id="line2d_10">
      <g>
       <use xlink:href="#m879928c090" x="398.487273" y="307.584" style="stroke: #000000; stroke-width: 0.8"/>
      </g>
     </g>
     <g id="text_10">
      <!-- 300 -->
      <g transform="translate(388.943523 322.182437) scale(0.1 -0.1)">
       <use xlink:href="#DejaVuSans-33"/>
       <use xlink:href="#DejaVuSans-30" x="63.623047"/>
       <use xlink:href="#DejaVuSans-30" x="127.246094"/>
      </g>
     </g>
    </g>
    <g id="text_11">
     <!-- Epochs -->
     <g transform="translate(218.244375 335.860562) scale(0.1 -0.1)">
      <defs>
       <path id="DejaVuSans-45" d="M 628 4666 
L 3578 4666 
L 3578 4134 
L 1259 4134 
L 1259 2753 
L 3481 2753 
L 3481 2222 
L 1259 2222 
L 1259 531 
L 3634 531 
L 3634 0 
L 628 0 
L 628 4666 
z
" transform="scale(0.015625)"/>
       <path id="DejaVuSans-70" d="M 1159 525 
L 1159 -1331 
L 581 -1331 
L 581 3500 
L 1159 3500 
L 1159 2969 
Q 1341 3281 1617 3432 
Q 1894 3584 2278 3584 
Q 2916 3584 3314 3078 
Q 3713 2572 3713 1747 
Q 3713 922 3314 415 
Q 2916 -91 2278 -91 
Q 1894 -91 1617 61 
Q 1341 213 1159 525 
z
M 3116 1747 
Q 3116 2381 2855 2742 
Q 2594 3103 2138 3103 
Q 1681 3103 1420 2742 
Q 1159 2381 1159 1747 
Q 1159 1113 1420 752 
Q 1681 391 2138 391 
Q 2594 391 2855 752 
Q 3116 1113 3116 1747 
z
" transform="scale(0.015625)"/>
       <path id="DejaVuSans-6f" d="M 1959 3097 
Q 1497 3097 1228 2736 
Q 959 2375 959 1747 
Q 959 1119 1226 758 
Q 1494 397 1959 397 
Q 2419 397 2687 759 
Q 2956 1122 2956 1747 
Q 2956 2369 2687 2733 
Q 2419 3097 1959 3097 
z
M 1959 3584 
Q 2709 3584 3137 3096 
Q 3566 2609 3566 1747 
Q 3566 888 3137 398 
Q 2709 -91 1959 -91 
Q 1206 -91 779 398 
Q 353 888 353 1747 
Q 353 2609 779 3096 
Q 1206 3584 1959 3584 
z
" transform="scale(0.015625)"/>
       <path id="DejaVuSans-63" d="M 3122 3366 
L 3122 2828 
Q 2878 2963 2633 3030 
Q 2388 3097 2138 3097 
Q 1578 3097 1268 2742 
Q 959 2388 959 1747 
Q 959 1106 1268 751 
Q 1578 397 2138 397 
Q 2388 397 2633 464 
Q 2878 531 3122 666 
L 3122 134 
Q 2881 22 2623 -34 
Q 2366 -91 2075 -91 
Q 1284 -91 818 406 
Q 353 903 353 1747 
Q 353 2603 823 3093 
Q 1294 3584 2113 3584 
Q 2378 3584 2631 3529 
Q 2884 3475 3122 3366 
z
" transform="scale(0.015625)"/>
       <path id="DejaVuSans-68" d="M 3513 2113 
L 3513 0 
L 2938 0 
L 2938 2094 
Q 2938 2591 2744 2837 
Q 2550 3084 2163 3084 
Q 1697 3084 1428 2787 
Q 1159 2491 1159 1978 
L 1159 0 
L 581 0 
L 581 4863 
L 1159 4863 
L 1159 2956 
Q 1366 3272 1645 3428 
Q 1925 3584 2291 3584 
Q 2894 3584 3203 3211 
Q 3513 2838 3513 2113 
z
" transform="scale(0.015625)"/>
       <path id="DejaVuSans-73" d="M 2834 3397 
L 2834 2853 
Q 2591 2978 2328 3040 
Q 2066 3103 1784 3103 
Q 1356 3103 1142 2972 
Q 928 2841 928 2578 
Q 928 2378 1081 2264 
Q 1234 2150 1697 2047 
L 1894 2003 
Q 2506 1872 2764 1633 
Q 3022 1394 3022 966 
Q 3022 478 2636 193 
Q 2250 -91 1575 -91 
Q 1294 -91 989 -36 
Q 684 19 347 128 
L 347 722 
Q 666 556 975 473 
Q 1284 391 1588 391 
Q 1994 391 2212 530 
Q 2431 669 2431 922 
Q 2431 1156 2273 1281 
Q 2116 1406 1581 1522 
L 1381 1569 
Q 847 1681 609 1914 
Q 372 2147 372 2553 
Q 372 3047 722 3315 
Q 1072 3584 1716 3584 
Q 2034 3584 2315 3537 
Q 2597 3491 2834 3397 
z
" transform="scale(0.015625)"/>
      </defs>
      <use xlink:href="#DejaVuSans-45"/>
      <use xlink:href="#DejaVuSans-70" x="63.183594"/>
      <use xlink:href="#DejaVuSans-6f" x="126.660156"/>
      <use xlink:href="#DejaVuSans-63" x="187.841797"/>
      <use xlink:href="#DejaVuSans-68" x="242.822266"/>
      <use xlink:href="#DejaVuSans-73" x="306.201172"/>
     </g>
    </g>
   </g>
   <g id="matplotlib.axis_2">
    <g id="ytick_1">
     <g id="line2d_11">
      <defs>
       <path id="m6a9e7620ac" d="M 0 0 
L -3.5 0 
" style="stroke: #000000; stroke-width: 0.8"/>
      </defs>
      <g>
       <use xlink:href="#m6a9e7620ac" x="57.6" y="274.688451" style="stroke: #000000; stroke-width: 0.8"/>
      </g>
     </g>
     <g id="text_12">
      <!-- 20 -->
      <g transform="translate(37.875 278.487669) scale(0.1 -0.1)">
       <use xlink:href="#DejaVuSans-32"/>
       <use xlink:href="#DejaVuSans-30" x="63.623047"/>
      </g>
     </g>
    </g>
    <g id="ytick_2">
     <g id="line2d_12">
      <g>
       <use xlink:href="#m6a9e7620ac" x="57.6" y="219.197472" style="stroke: #000000; stroke-width: 0.8"/>
      </g>
     </g>
     <g id="text_13">
      <!-- 40 -->
      <g transform="translate(37.875 222.996691) scale(0.1 -0.1)">
       <use xlink:href="#DejaVuSans-34"/>
       <use xlink:href="#DejaVuSans-30" x="63.623047"/>
      </g>
     </g>
    </g>
    <g id="ytick_3">
     <g id="line2d_13">
      <g>
       <use xlink:href="#m6a9e7620ac" x="57.6" y="163.706494" style="stroke: #000000; stroke-width: 0.8"/>
      </g>
     </g>
     <g id="text_14">
      <!-- 60 -->
      <g transform="translate(37.875 167.505713) scale(0.1 -0.1)">
       <use xlink:href="#DejaVuSans-36"/>
       <use xlink:href="#DejaVuSans-30" x="63.623047"/>
      </g>
     </g>
    </g>
    <g id="ytick_4">
     <g id="line2d_14">
      <g>
       <use xlink:href="#m6a9e7620ac" x="57.6" y="108.215515" style="stroke: #000000; stroke-width: 0.8"/>
      </g>
     </g>
     <g id="text_15">
      <!-- 80 -->
      <g transform="translate(37.875 112.014734) scale(0.1 -0.1)">
       <defs>
        <path id="DejaVuSans-38" d="M 2034 2216 
Q 1584 2216 1326 1975 
Q 1069 1734 1069 1313 
Q 1069 891 1326 650 
Q 1584 409 2034 409 
Q 2484 409 2743 651 
Q 3003 894 3003 1313 
Q 3003 1734 2745 1975 
Q 2488 2216 2034 2216 
z
M 1403 2484 
Q 997 2584 770 2862 
Q 544 3141 544 3541 
Q 544 4100 942 4425 
Q 1341 4750 2034 4750 
Q 2731 4750 3128 4425 
Q 3525 4100 3525 3541 
Q 3525 3141 3298 2862 
Q 3072 2584 2669 2484 
Q 3125 2378 3379 2068 
Q 3634 1759 3634 1313 
Q 3634 634 3220 271 
Q 2806 -91 2034 -91 
Q 1263 -91 848 271 
Q 434 634 434 1313 
Q 434 1759 690 2068 
Q 947 2378 1403 2484 
z
M 1172 3481 
Q 1172 3119 1398 2916 
Q 1625 2713 2034 2713 
Q 2441 2713 2670 2916 
Q 2900 3119 2900 3481 
Q 2900 3844 2670 4047 
Q 2441 4250 2034 4250 
Q 1625 4250 1398 4047 
Q 1172 3844 1172 3481 
z
" transform="scale(0.015625)"/>
       </defs>
       <use xlink:href="#DejaVuSans-38"/>
       <use xlink:href="#DejaVuSans-30" x="63.623047"/>
      </g>
     </g>
    </g>
    <g id="ytick_5">
     <g id="line2d_15">
      <g>
       <use xlink:href="#m6a9e7620ac" x="57.6" y="52.724537" style="stroke: #000000; stroke-width: 0.8"/>
      </g>
     </g>
     <g id="text_16">
      <!-- 100 -->
      <g transform="translate(31.5125 56.523756) scale(0.1 -0.1)">
       <use xlink:href="#DejaVuSans-31"/>
       <use xlink:href="#DejaVuSans-30" x="63.623047"/>
       <use xlink:href="#DejaVuSans-30" x="127.246094"/>
      </g>
     </g>
    </g>
    <g id="text_17">
     <!-- Accuracy -->
     <g transform="translate(25.432812 197.356125) rotate(-90) scale(0.1 -0.1)">
      <defs>
       <path id="DejaVuSans-41" d="M 2188 4044 
L 1331 1722 
L 3047 1722 
L 2188 4044 
z
M 1831 4666 
L 2547 4666 
L 4325 0 
L 3669 0 
L 3244 1197 
L 1141 1197 
L 716 0 
L 50 0 
L 1831 4666 
z
" transform="scale(0.015625)"/>
       <path id="DejaVuSans-75" d="M 544 1381 
L 544 3500 
L 1119 3500 
L 1119 1403 
Q 1119 906 1312 657 
Q 1506 409 1894 409 
Q 2359 409 2629 706 
Q 2900 1003 2900 1516 
L 2900 3500 
L 3475 3500 
L 3475 0 
L 2900 0 
L 2900 538 
Q 2691 219 2414 64 
Q 2138 -91 1772 -91 
Q 1169 -91 856 284 
Q 544 659 544 1381 
z
M 1991 3584 
L 1991 3584 
z
" transform="scale(0.015625)"/>
       <path id="DejaVuSans-72" d="M 2631 2963 
Q 2534 3019 2420 3045 
Q 2306 3072 2169 3072 
Q 1681 3072 1420 2755 
Q 1159 2438 1159 1844 
L 1159 0 
L 581 0 
L 581 3500 
L 1159 3500 
L 1159 2956 
Q 1341 3275 1631 3429 
Q 1922 3584 2338 3584 
Q 2397 3584 2469 3576 
Q 2541 3569 2628 3553 
L 2631 2963 
z
" transform="scale(0.015625)"/>
       <path id="DejaVuSans-61" d="M 2194 1759 
Q 1497 1759 1228 1600 
Q 959 1441 959 1056 
Q 959 750 1161 570 
Q 1363 391 1709 391 
Q 2188 391 2477 730 
Q 2766 1069 2766 1631 
L 2766 1759 
L 2194 1759 
z
M 3341 1997 
L 3341 0 
L 2766 0 
L 2766 531 
Q 2569 213 2275 61 
Q 1981 -91 1556 -91 
Q 1019 -91 701 211 
Q 384 513 384 1019 
Q 384 1609 779 1909 
Q 1175 2209 1959 2209 
L 2766 2209 
L 2766 2266 
Q 2766 2663 2505 2880 
Q 2244 3097 1772 3097 
Q 1472 3097 1187 3025 
Q 903 2953 641 2809 
L 641 3341 
Q 956 3463 1253 3523 
Q 1550 3584 1831 3584 
Q 2591 3584 2966 3190 
Q 3341 2797 3341 1997 
z
" transform="scale(0.015625)"/>
       <path id="DejaVuSans-79" d="M 2059 -325 
Q 1816 -950 1584 -1140 
Q 1353 -1331 966 -1331 
L 506 -1331 
L 506 -850 
L 844 -850 
Q 1081 -850 1212 -737 
Q 1344 -625 1503 -206 
L 1606 56 
L 191 3500 
L 800 3500 
L 1894 763 
L 2988 3500 
L 3597 3500 
L 2059 -325 
z
" transform="scale(0.015625)"/>
      </defs>
      <use xlink:href="#DejaVuSans-41"/>
      <use xlink:href="#DejaVuSans-63" x="66.658203"/>
      <use xlink:href="#DejaVuSans-63" x="121.638672"/>
      <use xlink:href="#DejaVuSans-75" x="176.619141"/>
      <use xlink:href="#DejaVuSans-72" x="239.998047"/>
      <use xlink:href="#DejaVuSans-61" x="281.111328"/>
      <use xlink:href="#DejaVuSans-63" x="342.390625"/>
      <use xlink:href="#DejaVuSans-79" x="397.371094"/>
     </g>
    </g>
   </g>
   <g id="line2d_16">
    <path d="M 73.832727 286.374851 
L 74.918528 232.043634 
L 76.00433 193.272087 
L 77.090131 168.539758 
L 78.175932 152.41408 
L 79.261733 140.527912 
L 80.347534 131.427392 
L 81.433335 124.429979 
L 83.604938 113.78681 
L 86.862341 101.157063 
L 87.948142 98.482398 
L 89.033943 94.753404 
L 90.119745 91.956659 
L 92.291347 88.077839 
L 93.377148 86.379815 
L 94.462949 86.213343 
L 95.54875 110.690413 
L 96.634552 110.374115 
L 97.720353 108.221065 
L 98.806154 106.450902 
L 102.063557 100.158225 
L 103.149358 98.671067 
L 104.23516 96.273857 
L 105.320961 94.575833 
L 106.406762 93.954334 
L 107.492563 91.573771 
L 108.578364 90.59713 
L 109.664165 89.176561 
L 110.749967 87.373104 
L 111.835768 85.941437 
L 112.921569 84.293355 
L 114.00737 82.856138 
L 115.093171 82.506545 
L 116.178972 81.213605 
L 117.264773 79.104948 
L 118.350575 78.350271 
L 119.436376 76.297105 
L 120.522177 75.237227 
L 121.607978 73.98868 
L 122.693779 72.939901 
L 124.865382 69.976682 
L 125.951183 68.972296 
L 128.122785 66.563987 
L 129.208586 65.670582 
L 130.294387 64.599606 
L 131.380189 64.244464 
L 134.637592 62.130258 
L 135.723393 62.257887 
L 136.809194 61.813959 
L 137.894995 61.675232 
L 138.980797 84.526417 
L 140.066598 87.056805 
L 142.2382 86.16895 
L 144.409802 85.480862 
L 145.495604 84.837166 
L 146.581405 83.560874 
L 148.753007 82.267934 
L 149.838808 82.334523 
L 152.01041 80.492223 
L 153.096212 80.680892 
L 154.182013 79.615465 
L 156.353615 78.877435 
L 157.439416 77.723223 
L 158.525217 77.667732 
L 159.611019 76.935251 
L 160.69682 76.87976 
L 161.782621 75.714449 
L 162.868422 74.843241 
L 163.954223 74.793299 
L 165.040024 74.404862 
L 168.297428 71.780139 
L 169.383229 71.730197 
L 170.46903 71.547077 
L 171.554831 70.29853 
L 174.812235 68.655997 
L 175.898036 67.551727 
L 176.983837 67.368606 
L 178.069638 66.835893 
L 179.155439 66.464103 
L 180.24124 65.920292 
L 181.327042 65.615091 
L 182.412843 64.671745 
L 183.498644 64.738334 
L 184.584445 63.65626 
L 185.670246 63.079154 
L 186.756047 62.757306 
L 187.841849 62.1802 
L 188.92765 61.969334 
L 190.013451 60.903907 
L 191.099252 60.293507 
L 193.270854 59.755244 
L 194.356656 59.089352 
L 195.442457 58.623228 
L 196.528258 58.834094 
L 197.614059 57.840805 
L 198.69986 57.718725 
L 199.785661 57.208208 
L 200.871462 57.036186 
L 201.957264 56.414687 
L 203.043065 56.309254 
L 204.128866 55.959661 
L 205.214667 55.471341 
L 206.300468 55.254926 
L 207.386269 55.432497 
L 208.472071 55.149493 
L 209.557872 55.132846 
L 210.643673 54.944176 
L 211.729474 54.927529 
L 213.901076 54.577936 
L 216.072679 54.589034 
L 217.15848 54.361521 
L 218.244281 54.577936 
L 219.330082 54.24499 
L 221.501684 54.256088 
L 222.587486 54.106262 
L 224.759088 54.200597 
L 225.844889 72.113085 
L 226.93069 76.136181 
L 228.016491 76.352596 
L 229.102292 76.14173 
L 230.188094 75.58682 
L 231.273895 75.215031 
L 232.359696 76.430283 
L 233.445497 75.331562 
L 234.531298 75.120696 
L 235.617099 74.754456 
L 236.702901 74.693415 
L 237.788702 74.499197 
L 238.874503 73.999778 
L 239.960304 73.661283 
L 241.046105 72.795624 
L 242.131906 73.295043 
L 243.217708 72.473776 
L 244.303509 72.562562 
L 246.475111 72.063143 
L 247.560912 71.669157 
L 248.646713 71.463841 
L 249.732514 71.086502 
L 250.818316 71.308466 
L 251.904117 70.775752 
L 252.989918 70.614829 
L 254.075719 70.736909 
L 255.16152 70.714712 
L 256.247321 69.876799 
L 257.333123 70.304079 
L 258.418924 69.948937 
L 259.504725 69.283045 
L 260.590526 69.227554 
L 261.676327 68.772528 
L 262.762128 68.750332 
L 264.933731 68.101087 
L 266.019532 68.26756 
L 267.105333 67.812534 
L 268.191134 68.08444 
L 269.276935 67.318664 
L 270.362736 66.980169 
L 271.448538 67.063406 
L 273.62014 66.23659 
L 274.705941 66.708264 
L 275.791742 66.203296 
L 276.877543 65.848154 
L 277.963344 65.642837 
L 279.049146 65.642837 
L 280.134947 65.49856 
L 281.220748 64.910356 
L 282.306549 64.716138 
L 283.39235 64.716138 
L 284.478151 64.533017 
L 286.649754 63.939264 
L 287.735555 64.250013 
L 288.821356 63.628514 
L 290.992958 63.095801 
L 292.07876 63.251176 
L 294.250362 62.596382 
L 295.336163 62.690717 
L 296.421964 62.618579 
L 297.507765 61.863901 
L 299.679368 61.86945 
L 300.765169 61.447719 
L 301.85097 61.481014 
L 302.936771 60.981595 
L 304.022572 61.414424 
L 305.108373 60.637551 
L 306.194175 60.770729 
L 307.279976 59.988306 
L 309.451578 60.354547 
L 310.537379 60.127034 
L 311.62318 59.438946 
L 312.708981 59.47224 
L 313.794783 59.161491 
L 317.052186 58.906232 
L 318.137987 58.340224 
L 319.223788 58.295831 
L 320.30959 58.412362 
L 322.481192 57.679881 
L 323.566993 57.657685 
L 324.652794 57.352485 
L 325.738595 57.369132 
L 326.824396 57.230405 
L 327.910198 56.76428 
L 328.995999 57.091677 
L 330.0818 56.570062 
L 331.167601 56.747633 
L 332.253402 56.553415 
L 333.339203 56.209371 
L 334.425005 56.09284 
L 335.510806 55.78209 
L 336.596607 55.876425 
L 338.768209 55.393653 
L 339.85401 55.604519 
L 340.939811 55.210533 
L 342.025613 55.310417 
L 343.111414 54.933078 
L 344.197215 55.1051 
L 345.283016 55.060707 
L 347.454618 54.638976 
L 348.54042 54.783252 
L 349.626221 54.383717 
L 350.712022 54.433659 
L 351.797823 54.222794 
L 352.883624 54.189499 
L 353.969425 54.527994 
L 355.055227 54.139557 
L 358.31263 54.00083 
L 359.398431 53.823259 
L 360.484232 53.878749 
L 361.570033 53.695629 
L 362.655835 53.828808 
L 365.913238 53.579098 
L 368.08484 53.662335 
L 369.170642 53.734473 
L 371.342244 54.178401 
L 372.428045 54.655623 
L 376.77125 54.855391 
L 377.857051 54.722212 
L 378.942852 54.971922 
L 380.028653 54.711114 
L 382.200255 54.883136 
L 383.286057 54.899783 
L 384.371858 54.661172 
L 385.457659 55.027413 
L 386.54346 54.827645 
L 389.800863 55.160591 
L 390.886665 54.949725 
L 391.972466 55.032962 
L 393.058267 54.794351 
L 394.144068 55.321515 
L 396.31567 54.927529 
L 397.401472 55.149493 
L 398.487273 55.049609 
L 398.487273 55.049609 
" clip-path="url(#p97c598dbb2)" style="fill: none; stroke: #1f77b4; stroke-width: 1.5; stroke-linecap: square"/>
   </g>
   <g id="line2d_17">
    <path d="M 73.832727 283.788971 
L 74.918528 250.438893 
L 76.00433 230.600868 
L 77.090131 213.42641 
L 78.175932 203.549016 
L 79.261733 184.959539 
L 81.433335 177.135311 
L 82.519137 177.052074 
L 83.604938 166.148097 
L 84.690739 164.427877 
L 85.77654 157.713468 
L 86.862341 149.528549 
L 87.948142 149.02913 
L 89.033943 149.528549 
L 90.119745 143.61876 
L 91.205546 139.567918 
L 92.291347 140.178319 
L 93.377148 137.930934 
L 94.462949 137.653479 
L 95.54875 168.811664 
L 96.634552 164.511113 
L 97.720353 162.818638 
L 98.806154 162.679911 
L 99.891955 160.238308 
L 100.977756 161.708819 
L 102.063557 157.796705 
L 103.149358 150.860332 
L 104.23516 148.696184 
L 105.320961 148.973639 
L 106.406762 150.083459 
L 107.492563 148.640693 
L 108.578364 142.841886 
L 109.664165 143.591014 
L 110.749967 147.114691 
L 111.835768 138.707808 
L 112.921569 139.484682 
L 114.00737 135.961005 
L 115.093171 133.436165 
L 116.178972 134.129802 
L 117.264773 131.632708 
L 118.350575 132.714782 
L 119.436376 127.720594 
L 120.522177 131.549472 
L 121.607978 130.356416 
L 122.693779 126.02812 
L 123.77958 124.585354 
L 124.865382 125.47321 
L 125.951183 124.418881 
L 127.036984 122.199242 
L 128.122785 122.448951 
L 130.294387 121.283641 
L 131.380189 120.257058 
L 132.46599 120.257058 
L 133.551791 119.174984 
L 134.637592 118.425855 
L 135.723393 119.202729 
L 136.809194 118.620074 
L 137.894995 119.174984 
L 138.980797 145.505453 
L 140.066598 144.78407 
L 141.152399 144.284651 
L 142.2382 141.315884 
L 143.324001 137.376025 
L 144.409802 139.762137 
L 145.495604 136.293951 
L 146.581405 135.461586 
L 147.667206 140.095083 
L 149.838808 135.905514 
L 150.924609 136.071987 
L 153.096212 137.265043 
L 154.182013 138.208389 
L 155.267814 135.739041 
L 156.353615 136.293951 
L 157.439416 131.022308 
L 158.525217 132.270855 
L 159.611019 130.411907 
L 160.69682 132.437328 
L 161.782621 132.687037 
L 162.868422 132.243109 
L 163.954223 129.829252 
L 165.040024 130.57838 
L 167.211627 130.189943 
L 168.297428 128.192268 
L 169.383229 129.080123 
L 170.46903 125.389973 
L 171.554831 127.637358 
L 172.640632 124.890554 
L 173.726434 126.416556 
L 174.812235 127.581867 
L 175.898036 122.976116 
L 176.983837 126.860484 
L 178.069638 125.057027 
L 179.155439 122.976116 
L 180.24124 124.196917 
L 181.327042 122.199242 
L 182.412843 122.587679 
L 183.498644 123.281316 
L 184.584445 122.282478 
L 185.670246 119.896366 
L 186.756047 124.668591 
L 187.841849 118.481346 
L 188.92765 118.620074 
L 190.013451 121.53335 
L 191.099252 120.340294 
L 192.185053 119.979603 
L 193.270854 120.11833 
L 194.356656 118.647819 
L 195.442457 116.872108 
L 196.528258 116.372689 
L 197.614059 116.261707 
L 198.69986 116.98309 
L 199.785661 115.901016 
L 200.871462 115.290615 
L 201.957264 114.458251 
L 203.043065 114.458251 
L 204.128866 114.735705 
L 205.214667 114.40276 
L 206.300468 114.818942 
L 208.472071 112.571557 
L 209.557872 113.431667 
L 210.643673 112.044393 
L 211.729474 112.932249 
L 212.815275 112.18312 
L 213.901076 112.321848 
L 214.986877 112.627048 
L 218.244281 111.212028 
L 219.330082 112.044393 
L 221.501684 111.822429 
L 222.587486 112.127629 
L 223.673287 112.210866 
L 224.759088 111.517229 
L 225.844889 139.817628 
L 226.93069 141.426866 
L 228.016491 134.82344 
L 229.102292 137.930934 
L 230.188094 139.762137 
L 231.273895 137.431516 
L 232.359696 137.736716 
L 233.445497 136.959842 
L 234.531298 134.82344 
L 235.617099 133.71362 
L 236.702901 132.187618 
L 237.788702 133.769111 
L 238.874503 134.26853 
L 239.960304 130.495143 
L 241.046105 131.521726 
L 242.131906 134.26853 
L 243.217708 133.630384 
L 244.303509 134.102057 
L 245.38931 128.60845 
L 246.475111 134.490494 
L 247.560912 133.963329 
L 248.646713 130.717107 
L 249.732514 130.939071 
L 250.818316 132.909001 
L 251.904117 134.046566 
L 252.989918 134.989913 
L 254.075719 128.30325 
L 255.16152 128.497468 
L 256.247321 131.022308 
L 257.333123 129.135614 
L 258.418924 130.245434 
L 259.504725 136.488169 
L 260.590526 134.767949 
L 261.676327 128.996887 
L 262.762128 129.440815 
L 263.847929 130.245434 
L 264.933731 130.439652 
L 266.019532 128.969141 
L 267.105333 129.940234 
L 268.191134 124.446627 
L 269.276935 127.970304 
L 270.362736 128.025795 
L 271.448538 129.940234 
L 272.534339 123.725244 
L 273.62014 130.411907 
L 274.705941 129.274342 
L 275.791742 130.134452 
L 276.877543 127.165685 
L 277.963344 129.46856 
L 279.049146 127.359903 
L 280.134947 127.665103 
L 281.220748 127.137939 
L 282.306549 127.998049 
L 283.39235 125.168009 
L 284.478151 126.63852 
L 285.563953 123.50328 
L 286.649754 126.610775 
L 287.735555 128.552959 
L 288.821356 127.914813 
L 289.907157 129.191105 
L 290.992958 127.19343 
L 292.07876 127.609612 
L 293.164561 126.166847 
L 294.250362 125.47321 
L 295.336163 124.307899 
L 296.421964 124.585354 
L 297.507765 126.444302 
L 298.593566 121.672078 
L 299.679368 122.976116 
L 300.765169 121.200404 
L 301.85097 122.726406 
L 302.936771 129.440815 
L 304.022572 126.361065 
L 305.108373 124.030444 
L 306.194175 125.528701 
L 307.279976 122.226988 
L 308.365777 123.80848 
L 309.451578 119.036256 
L 310.537379 122.310224 
L 311.62318 123.50328 
L 312.708981 120.229312 
L 313.794783 120.562258 
L 314.880584 120.67324 
L 315.966385 124.030444 
L 317.052186 121.644332 
L 318.137987 121.117168 
L 319.223788 118.675565 
L 320.30959 119.452439 
L 321.395391 120.590004 
L 326.824396 118.731056 
L 327.910198 118.564583 
L 328.995999 116.483671 
L 330.0818 119.230475 
L 331.167601 117.205054 
L 332.253402 115.679052 
L 333.339203 115.928761 
L 334.425005 114.541487 
L 335.510806 118.065164 
L 336.596607 117.28829 
L 337.682408 115.540325 
L 338.768209 116.095234 
L 339.85401 115.179633 
L 340.939811 114.763451 
L 342.025613 115.290615 
L 343.111414 116.206216 
L 344.197215 114.485996 
L 345.283016 115.706798 
L 346.368817 114.375014 
L 347.454618 113.709122 
L 348.54042 113.181958 
L 349.626221 113.709122 
L 350.712022 113.126467 
L 351.797823 112.959994 
L 352.883624 111.794684 
L 353.969425 113.736868 
L 355.055227 112.765776 
L 356.141028 113.986577 
L 357.226829 112.044393 
L 358.31263 113.625886 
L 359.398431 112.155375 
L 360.484232 111.406247 
L 361.570033 112.099884 
L 362.655835 111.350756 
L 363.741636 111.01781 
L 364.827437 110.129954 
L 365.913238 110.074463 
L 366.999039 110.351918 
L 368.08484 111.156537 
L 369.170642 111.57272 
L 370.256443 112.516066 
L 371.342244 113.764613 
L 372.428045 114.569233 
L 373.513846 118.148401 
L 374.599647 113.986577 
L 375.685448 115.512579 
L 376.77125 114.652469 
L 377.857051 116.622399 
L 378.942852 115.651307 
L 380.028653 115.235124 
L 381.114454 114.957669 
L 382.200255 116.178471 
L 383.286057 114.069814 
L 384.371858 115.928761 
L 385.457659 116.067489 
L 386.54346 113.29294 
L 387.629261 114.180796 
L 388.715062 115.56807 
L 389.800863 116.539162 
L 390.886665 113.514904 
L 391.972466 113.986577 
L 393.058267 115.373852 
L 394.144068 116.150725 
L 396.31567 113.043231 
L 397.401472 116.566908 
L 398.487273 117.316036 
L 398.487273 117.316036 
" clip-path="url(#p97c598dbb2)" style="fill: none; stroke: #ff7f0e; stroke-width: 1.5; stroke-linecap: square"/>
   </g>
   <g id="line2d_18">
    <path d="M 73.832727 295.488 
L 74.918528 280.237548 
L 76.00433 266.977118 
L 77.090131 258.442988 
L 78.175932 251.458779 
L 79.261733 241.585212 
L 80.347534 240.532797 
L 81.433335 238.581045 
L 82.519137 240.284044 
L 83.604938 232.534442 
L 84.690739 232.668386 
L 85.77654 226.506973 
L 86.862341 223.139245 
L 87.948142 220.517775 
L 89.033943 222.335583 
L 91.205546 214.509441 
L 92.291347 216.595137 
L 93.377148 214.126745 
L 94.462949 213.763183 
L 95.54875 234.218306 
L 96.634552 232.496172 
L 97.720353 234.065227 
L 98.806154 234.715811 
L 99.891955 230.888847 
L 100.977756 232.24742 
L 102.063557 229.912971 
L 103.149358 223.942908 
L 104.23516 223.12011 
L 105.320961 224.765705 
L 106.406762 222.718279 
L 107.492563 224.287334 
L 108.578364 222.08683 
L 109.664165 223.177515 
L 110.749967 222.08683 
L 111.835768 217.934574 
L 112.921569 216.748215 
L 114.00737 211.639218 
L 115.093171 209.89795 
L 116.178972 216.365519 
L 117.264773 213.189139 
L 118.350575 213.514431 
L 119.436376 210.510264 
L 120.522177 211.103443 
L 121.607978 212.328072 
L 122.693779 208.520243 
L 123.77958 206.415412 
L 124.865382 206.415412 
L 125.951183 205.669154 
L 127.036984 203.832212 
L 128.122785 203.98529 
L 129.208586 203.124223 
L 130.294387 203.966155 
L 131.380189 200.579292 
L 132.46599 200.713236 
L 133.551791 199.813899 
L 134.637592 200.789775 
L 135.723393 200.560157 
L 136.809194 201.287281 
L 137.894995 199.73736 
L 138.980797 219.541899 
L 140.066598 225.473693 
L 141.152399 222.928762 
L 142.2382 219.675843 
L 143.324001 218.336405 
L 144.409802 221.474516 
L 145.495604 213.610105 
L 146.581405 212.194128 
L 147.667206 216.843889 
L 148.753007 217.188316 
L 149.838808 214.509441 
L 150.924609 217.054372 
L 152.01041 215.542722 
L 153.096212 217.207451 
L 154.182013 218.011113 
L 156.353615 215.887148 
L 157.439416 211.849701 
L 158.525217 213.342217 
L 159.611019 216.001957 
L 160.69682 210.816421 
L 161.782621 212.328072 
L 162.868422 212.729903 
L 163.954223 210.759017 
L 165.040024 209.170826 
L 166.125825 210.012759 
L 167.211627 217.590147 
L 168.297428 209.247366 
L 169.383229 210.567668 
L 170.46903 208.003602 
L 171.554831 210.452859 
L 172.640632 210.318916 
L 173.726434 209.34304 
L 174.812235 212.615094 
L 175.898036 206.338873 
L 176.983837 211.4096 
L 178.069638 205.152514 
L 179.155439 207.046861 
L 180.24124 205.420402 
L 181.327042 206.358008 
L 182.412843 205.57348 
L 183.498644 203.774807 
L 184.584445 204.903762 
L 185.670246 206.338873 
L 186.756047 211.428735 
L 187.841849 201.210741 
L 188.92765 200.579292 
L 190.013451 200.866315 
L 191.099252 203.717403 
L 192.185053 204.674144 
L 193.270854 202.110078 
L 194.356656 201.784786 
L 195.442457 199.584282 
L 196.528258 200.77064 
L 197.614059 201.708247 
L 198.69986 198.168305 
L 199.785661 199.354664 
L 200.871462 197.843013 
L 201.957264 196.04434 
L 203.043065 195.412891 
L 204.128866 197.268968 
L 205.214667 195.757318 
L 206.300468 196.59925 
L 207.386269 195.470295 
L 208.472071 196.063475 
L 209.557872 195.049329 
L 210.643673 193.786431 
L 211.729474 194.819711 
L 213.901076 193.90124 
L 214.986877 194.532689 
L 216.072679 193.977779 
L 217.15848 193.154982 
L 218.244281 193.480274 
L 219.330082 193.327195 
L 220.415883 193.595083 
L 221.501684 193.633352 
L 222.587486 193.327195 
L 223.673287 193.499409 
L 224.759088 193.461139 
L 225.844889 224.78484 
L 226.93069 224.057716 
L 228.016491 215.255699 
L 229.102292 219.407955 
L 230.188094 220.441235 
L 231.273895 219.790652 
L 232.359696 223.024436 
L 233.445497 217.972844 
L 234.531298 216.28898 
L 235.617099 215.561856 
L 236.702901 216.28898 
L 237.788702 214.719924 
L 238.874503 215.6958 
L 239.960304 213.016925 
L 241.046105 213.246543 
L 242.131906 213.973666 
L 243.217708 216.28898 
L 244.303509 215.198295 
L 245.38931 210.37632 
L 246.475111 214.700789 
L 247.560912 216.25071 
L 248.646713 212.194128 
L 249.732514 215.925418 
L 250.818316 213.284813 
L 251.904117 220.919606 
L 252.989918 219.733247 
L 254.075719 214.739059 
L 255.16152 208.78813 
L 256.247321 213.361352 
L 257.333123 210.146702 
L 258.418924 211.677488 
L 259.504725 218.661697 
L 260.590526 218.623428 
L 261.676327 209.802275 
L 262.762128 209.457849 
L 263.847929 217.475338 
L 264.933731 214.06934 
L 266.019532 212.691633 
L 267.105333 216.001957 
L 268.191134 206.243199 
L 269.276935 212.423746 
L 270.362736 210.816421 
L 271.448538 214.700789 
L 272.534339 207.582636 
L 273.62014 210.261511 
L 274.705941 211.926241 
L 276.877543 208.883804 
L 277.963344 209.744871 
L 279.049146 207.410423 
L 280.134947 207.16167 
L 281.220748 205.190784 
L 282.306549 211.275657 
L 283.39235 207.773985 
L 284.478151 210.280646 
L 285.563953 205.171649 
L 286.649754 206.549356 
L 287.735555 210.299781 
L 288.821356 212.423746 
L 289.907157 212.289802 
L 290.992958 205.248188 
L 292.07876 212.098454 
L 293.164561 206.185794 
L 294.250362 207.410423 
L 295.336163 210.701612 
L 296.421964 207.888793 
L 297.507765 206.798109 
L 298.593566 205.975311 
L 299.679368 203.46865 
L 301.85097 208.481973 
L 302.936771 216.116766 
L 304.022572 209.400444 
L 305.108373 205.458671 
L 306.194175 206.472817 
L 307.279976 203.793942 
L 308.365777 208.596782 
L 309.451578 202.684122 
L 310.537379 204.903762 
L 311.62318 205.229053 
L 312.708981 203.372976 
L 313.794783 202.071808 
L 314.880584 203.793942 
L 315.966385 208.080142 
L 317.052186 203.219897 
L 318.137987 204.980301 
L 319.223788 200.904584 
L 320.30959 202.664988 
L 321.395391 201.516898 
L 322.481192 202.110078 
L 323.566993 201.84219 
L 324.652794 201.84219 
L 325.738595 202.148347 
L 326.824396 202.129213 
L 327.910198 201.057663 
L 330.0818 199.718225 
L 331.167601 201.306415 
L 332.253402 200.215731 
L 333.339203 198.742349 
L 334.425005 197.555991 
L 335.510806 201.727381 
L 336.596607 201.153337 
L 337.682408 198.244844 
L 338.768209 198.015226 
L 339.85401 199.25899 
L 340.939811 196.981946 
L 342.025613 199.565147 
L 343.111414 200.043517 
L 344.197215 196.56098 
L 345.283016 196.197418 
L 346.368817 195.106734 
L 347.454618 196.120879 
L 348.54042 195.604239 
L 349.626221 196.59925 
L 350.712022 197.843013 
L 351.797823 193.920375 
L 352.883624 193.709892 
L 353.969425 193.748161 
L 355.055227 195.948666 
L 357.226829 196.427036 
L 358.31263 195.508565 
L 359.398431 193.786431 
L 360.484232 192.86796 
L 361.570033 194.915385 
L 362.655835 193.442004 
L 363.741636 192.446994 
L 364.827437 192.772286 
L 365.913238 192.31305 
L 366.999039 190.648321 
L 368.08484 193.116712 
L 369.170642 193.001903 
L 370.256443 191.853814 
L 371.342244 192.619207 
L 372.428045 197.498586 
L 373.513846 201.172472 
L 374.599647 195.336351 
L 375.685448 198.015226 
L 376.77125 193.958644 
L 377.857051 199.526877 
L 378.942852 199.77563 
L 380.028653 195.833857 
L 381.114454 196.388767 
L 382.200255 200.445348 
L 383.286057 193.690757 
L 384.371858 198.474462 
L 385.457659 200.005248 
L 386.54346 197.020216 
L 387.629261 197.154159 
L 388.715062 198.646675 
L 389.800863 199.660821 
L 390.886665 196.924542 
L 391.972466 196.905407 
L 393.058267 197.575125 
L 394.144068 197.575125 
L 395.229869 195.317217 
L 396.31567 196.063475 
L 397.401472 199.641686 
L 398.487273 199.69909 
L 398.487273 199.69909 
" clip-path="url(#p97c598dbb2)" style="fill: none; stroke: #2ca02c; stroke-width: 1.5; stroke-linecap: square"/>
   </g>
   <g id="line2d_19">
    <path d="M 368.08484 110.546137 
L 369.170642 111.350756 
L 370.256443 110.962319 
L 371.342244 111.433992 
L 372.428045 113.542649 
L 373.513846 113.986577 
L 374.599647 115.484834 
L 376.77125 113.931086 
L 377.857051 112.627048 
L 378.942852 117.094072 
L 380.028653 113.681377 
L 381.114454 112.793521 
L 382.200255 115.706798 
L 383.286057 117.038581 
L 384.371858 114.485996 
L 385.457659 114.458251 
L 386.54346 116.566908 
L 387.629261 121.866296 
L 388.715062 118.481346 
L 389.800863 117.981928 
L 390.886665 116.095234 
L 391.972466 116.261707 
L 393.058267 117.954182 
L 394.144068 118.869783 
L 395.229869 121.394623 
L 396.31567 118.786547 
L 398.487273 127.387648 
L 398.487273 127.387648 
" clip-path="url(#p97c598dbb2)" style="fill: none; stroke: #d62728; stroke-width: 1.5; stroke-linecap: square"/>
   </g>
   <g id="line2d_20">
    <path d="M 368.08484 190.342163 
L 369.170642 193.059308 
L 371.342244 190.093411 
L 372.428045 195.164138 
L 373.513846 196.254823 
L 374.599647 194.570959 
L 375.685448 197.268968 
L 376.77125 191.585927 
L 377.857051 191.27977 
L 378.942852 199.392933 
L 380.028653 194.724037 
L 381.114454 192.695746 
L 382.200255 194.322206 
L 383.286057 196.56098 
L 384.371858 192.446994 
L 385.457659 191.643331 
L 386.54346 195.814722 
L 387.629261 204.061829 
L 388.715062 198.455327 
L 389.800863 199.622551 
L 390.886665 193.231521 
L 391.972466 196.790598 
L 393.058267 195.623374 
L 394.144068 195.585104 
L 395.229869 200.234865 
L 396.31567 197.230699 
L 397.401472 201.172472 
L 398.487273 208.635051 
L 398.487273 208.635051 
" clip-path="url(#p97c598dbb2)" style="fill: none; stroke: #9467bd; stroke-width: 1.5; stroke-linecap: square"/>
   </g>
   <g id="patch_3">
    <path d="M 57.6 307.584 
L 57.6 41.472 
" style="fill: none; stroke: #000000; stroke-width: 0.8; stroke-linejoin: miter; stroke-linecap: square"/>
   </g>
   <g id="patch_4">
    <path d="M 414.72 307.584 
L 414.72 41.472 
" style="fill: none; stroke: #000000; stroke-width: 0.8; stroke-linejoin: miter; stroke-linecap: square"/>
   </g>
   <g id="patch_5">
    <path d="M 57.6 307.584 
L 414.72 307.584 
" style="fill: none; stroke: #000000; stroke-width: 0.8; stroke-linejoin: miter; stroke-linecap: square"/>
   </g>
   <g id="patch_6">
    <path d="M 57.6 41.472 
L 414.72 41.472 
" style="fill: none; stroke: #000000; stroke-width: 0.8; stroke-linejoin: miter; stroke-linecap: square"/>
   </g>
   <g id="text_18">
    <!-- Learning Curves -->
    <g transform="translate(187.37625 35.472) scale(0.12 -0.12)">
     <defs>
      <path id="DejaVuSans-4c" d="M 628 4666 
L 1259 4666 
L 1259 531 
L 3531 531 
L 3531 0 
L 628 0 
L 628 4666 
z
" transform="scale(0.015625)"/>
      <path id="DejaVuSans-65" d="M 3597 1894 
L 3597 1613 
L 953 1613 
Q 991 1019 1311 708 
Q 1631 397 2203 397 
Q 2534 397 2845 478 
Q 3156 559 3463 722 
L 3463 178 
Q 3153 47 2828 -22 
Q 2503 -91 2169 -91 
Q 1331 -91 842 396 
Q 353 884 353 1716 
Q 353 2575 817 3079 
Q 1281 3584 2069 3584 
Q 2775 3584 3186 3129 
Q 3597 2675 3597 1894 
z
M 3022 2063 
Q 3016 2534 2758 2815 
Q 2500 3097 2075 3097 
Q 1594 3097 1305 2825 
Q 1016 2553 972 2059 
L 3022 2063 
z
" transform="scale(0.015625)"/>
      <path id="DejaVuSans-6e" d="M 3513 2113 
L 3513 0 
L 2938 0 
L 2938 2094 
Q 2938 2591 2744 2837 
Q 2550 3084 2163 3084 
Q 1697 3084 1428 2787 
Q 1159 2491 1159 1978 
L 1159 0 
L 581 0 
L 581 3500 
L 1159 3500 
L 1159 2956 
Q 1366 3272 1645 3428 
Q 1925 3584 2291 3584 
Q 2894 3584 3203 3211 
Q 3513 2838 3513 2113 
z
" transform="scale(0.015625)"/>
      <path id="DejaVuSans-69" d="M 603 3500 
L 1178 3500 
L 1178 0 
L 603 0 
L 603 3500 
z
M 603 4863 
L 1178 4863 
L 1178 4134 
L 603 4134 
L 603 4863 
z
" transform="scale(0.015625)"/>
      <path id="DejaVuSans-67" d="M 2906 1791 
Q 2906 2416 2648 2759 
Q 2391 3103 1925 3103 
Q 1463 3103 1205 2759 
Q 947 2416 947 1791 
Q 947 1169 1205 825 
Q 1463 481 1925 481 
Q 2391 481 2648 825 
Q 2906 1169 2906 1791 
z
M 3481 434 
Q 3481 -459 3084 -895 
Q 2688 -1331 1869 -1331 
Q 1566 -1331 1297 -1286 
Q 1028 -1241 775 -1147 
L 775 -588 
Q 1028 -725 1275 -790 
Q 1522 -856 1778 -856 
Q 2344 -856 2625 -561 
Q 2906 -266 2906 331 
L 2906 616 
Q 2728 306 2450 153 
Q 2172 0 1784 0 
Q 1141 0 747 490 
Q 353 981 353 1791 
Q 353 2603 747 3093 
Q 1141 3584 1784 3584 
Q 2172 3584 2450 3431 
Q 2728 3278 2906 2969 
L 2906 3500 
L 3481 3500 
L 3481 434 
z
" transform="scale(0.015625)"/>
      <path id="DejaVuSans-20" transform="scale(0.015625)"/>
      <path id="DejaVuSans-43" d="M 4122 4306 
L 4122 3641 
Q 3803 3938 3442 4084 
Q 3081 4231 2675 4231 
Q 1875 4231 1450 3742 
Q 1025 3253 1025 2328 
Q 1025 1406 1450 917 
Q 1875 428 2675 428 
Q 3081 428 3442 575 
Q 3803 722 4122 1019 
L 4122 359 
Q 3791 134 3420 21 
Q 3050 -91 2638 -91 
Q 1578 -91 968 557 
Q 359 1206 359 2328 
Q 359 3453 968 4101 
Q 1578 4750 2638 4750 
Q 3056 4750 3426 4639 
Q 3797 4528 4122 4306 
z
" transform="scale(0.015625)"/>
      <path id="DejaVuSans-76" d="M 191 3500 
L 800 3500 
L 1894 563 
L 2988 3500 
L 3597 3500 
L 2284 0 
L 1503 0 
L 191 3500 
z
" transform="scale(0.015625)"/>
     </defs>
     <use xlink:href="#DejaVuSans-4c"/>
     <use xlink:href="#DejaVuSans-65" x="53.962891"/>
     <use xlink:href="#DejaVuSans-61" x="115.486328"/>
     <use xlink:href="#DejaVuSans-72" x="176.765625"/>
     <use xlink:href="#DejaVuSans-6e" x="216.128906"/>
     <use xlink:href="#DejaVuSans-69" x="279.507812"/>
     <use xlink:href="#DejaVuSans-6e" x="307.291016"/>
     <use xlink:href="#DejaVuSans-67" x="370.669922"/>
     <use xlink:href="#DejaVuSans-20" x="434.146484"/>
     <use xlink:href="#DejaVuSans-43" x="465.933594"/>
     <use xlink:href="#DejaVuSans-75" x="535.757812"/>
     <use xlink:href="#DejaVuSans-72" x="599.136719"/>
     <use xlink:href="#DejaVuSans-76" x="640.25"/>
     <use xlink:href="#DejaVuSans-65" x="699.429688"/>
     <use xlink:href="#DejaVuSans-73" x="760.953125"/>
    </g>
   </g>
   <g id="legend_1">
    <g id="patch_7">
     <path d="M 214.18875 302.584 
L 407.72 302.584 
Q 409.72 302.584 409.72 300.584 
L 409.72 228.193375 
Q 409.72 226.193375 407.72 226.193375 
L 214.18875 226.193375 
Q 212.18875 226.193375 212.18875 228.193375 
L 212.18875 300.584 
Q 212.18875 302.584 214.18875 302.584 
z
" style="fill: #ffffff; opacity: 0.8; stroke: #cccccc; stroke-linejoin: miter"/>
    </g>
    <g id="line2d_21">
     <path d="M 216.18875 234.291812 
L 226.18875 234.291812 
L 236.18875 234.291812 
" style="fill: none; stroke: #1f77b4; stroke-width: 1.5; stroke-linecap: square"/>
    </g>
    <g id="text_19">
     <!-- Train Accuracy -->
     <g transform="translate(244.18875 237.791812) scale(0.1 -0.1)">
      <defs>
       <path id="DejaVuSans-54" d="M -19 4666 
L 3928 4666 
L 3928 4134 
L 2272 4134 
L 2272 0 
L 1638 0 
L 1638 4134 
L -19 4134 
L -19 4666 
z
" transform="scale(0.015625)"/>
      </defs>
      <use xlink:href="#DejaVuSans-54"/>
      <use xlink:href="#DejaVuSans-72" x="46.333984"/>
      <use xlink:href="#DejaVuSans-61" x="87.447266"/>
      <use xlink:href="#DejaVuSans-69" x="148.726562"/>
      <use xlink:href="#DejaVuSans-6e" x="176.509766"/>
      <use xlink:href="#DejaVuSans-20" x="239.888672"/>
      <use xlink:href="#DejaVuSans-41" x="271.675781"/>
      <use xlink:href="#DejaVuSans-63" x="338.333984"/>
      <use xlink:href="#DejaVuSans-63" x="393.314453"/>
      <use xlink:href="#DejaVuSans-75" x="448.294922"/>
      <use xlink:href="#DejaVuSans-72" x="511.673828"/>
      <use xlink:href="#DejaVuSans-61" x="552.787109"/>
      <use xlink:href="#DejaVuSans-63" x="614.066406"/>
      <use xlink:href="#DejaVuSans-79" x="669.046875"/>
     </g>
    </g>
    <g id="line2d_22">
     <path d="M 216.18875 248.969937 
L 226.18875 248.969937 
L 236.18875 248.969937 
" style="fill: none; stroke: #ff7f0e; stroke-width: 1.5; stroke-linecap: square"/>
    </g>
    <g id="text_20">
     <!-- Validation Accuracy -->
     <g transform="translate(244.18875 252.469937) scale(0.1 -0.1)">
      <defs>
       <path id="DejaVuSans-56" d="M 1831 0 
L 50 4666 
L 709 4666 
L 2188 738 
L 3669 4666 
L 4325 4666 
L 2547 0 
L 1831 0 
z
" transform="scale(0.015625)"/>
       <path id="DejaVuSans-6c" d="M 603 4863 
L 1178 4863 
L 1178 0 
L 603 0 
L 603 4863 
z
" transform="scale(0.015625)"/>
       <path id="DejaVuSans-64" d="M 2906 2969 
L 2906 4863 
L 3481 4863 
L 3481 0 
L 2906 0 
L 2906 525 
Q 2725 213 2448 61 
Q 2172 -91 1784 -91 
Q 1150 -91 751 415 
Q 353 922 353 1747 
Q 353 2572 751 3078 
Q 1150 3584 1784 3584 
Q 2172 3584 2448 3432 
Q 2725 3281 2906 2969 
z
M 947 1747 
Q 947 1113 1208 752 
Q 1469 391 1925 391 
Q 2381 391 2643 752 
Q 2906 1113 2906 1747 
Q 2906 2381 2643 2742 
Q 2381 3103 1925 3103 
Q 1469 3103 1208 2742 
Q 947 2381 947 1747 
z
" transform="scale(0.015625)"/>
       <path id="DejaVuSans-74" d="M 1172 4494 
L 1172 3500 
L 2356 3500 
L 2356 3053 
L 1172 3053 
L 1172 1153 
Q 1172 725 1289 603 
Q 1406 481 1766 481 
L 2356 481 
L 2356 0 
L 1766 0 
Q 1100 0 847 248 
Q 594 497 594 1153 
L 594 3053 
L 172 3053 
L 172 3500 
L 594 3500 
L 594 4494 
L 1172 4494 
z
" transform="scale(0.015625)"/>
      </defs>
      <use xlink:href="#DejaVuSans-56"/>
      <use xlink:href="#DejaVuSans-61" x="60.658203"/>
      <use xlink:href="#DejaVuSans-6c" x="121.9375"/>
      <use xlink:href="#DejaVuSans-69" x="149.720703"/>
      <use xlink:href="#DejaVuSans-64" x="177.503906"/>
      <use xlink:href="#DejaVuSans-61" x="240.980469"/>
      <use xlink:href="#DejaVuSans-74" x="302.259766"/>
      <use xlink:href="#DejaVuSans-69" x="341.46875"/>
      <use xlink:href="#DejaVuSans-6f" x="369.251953"/>
      <use xlink:href="#DejaVuSans-6e" x="430.433594"/>
      <use xlink:href="#DejaVuSans-20" x="493.8125"/>
      <use xlink:href="#DejaVuSans-41" x="525.599609"/>
      <use xlink:href="#DejaVuSans-63" x="592.257812"/>
      <use xlink:href="#DejaVuSans-63" x="647.238281"/>
      <use xlink:href="#DejaVuSans-75" x="702.21875"/>
      <use xlink:href="#DejaVuSans-72" x="765.597656"/>
      <use xlink:href="#DejaVuSans-61" x="806.710938"/>
      <use xlink:href="#DejaVuSans-63" x="867.990234"/>
      <use xlink:href="#DejaVuSans-79" x="922.970703"/>
     </g>
    </g>
    <g id="line2d_23">
     <path d="M 216.18875 263.648062 
L 226.18875 263.648062 
L 236.18875 263.648062 
" style="fill: none; stroke: #2ca02c; stroke-width: 1.5; stroke-linecap: square"/>
    </g>
    <g id="text_21">
     <!-- Robust Validation Accuracy -->
     <g transform="translate(244.18875 267.148062) scale(0.1 -0.1)">
      <defs>
       <path id="DejaVuSans-52" d="M 2841 2188 
Q 3044 2119 3236 1894 
Q 3428 1669 3622 1275 
L 4263 0 
L 3584 0 
L 2988 1197 
Q 2756 1666 2539 1819 
Q 2322 1972 1947 1972 
L 1259 1972 
L 1259 0 
L 628 0 
L 628 4666 
L 2053 4666 
Q 2853 4666 3247 4331 
Q 3641 3997 3641 3322 
Q 3641 2881 3436 2590 
Q 3231 2300 2841 2188 
z
M 1259 4147 
L 1259 2491 
L 2053 2491 
Q 2509 2491 2742 2702 
Q 2975 2913 2975 3322 
Q 2975 3731 2742 3939 
Q 2509 4147 2053 4147 
L 1259 4147 
z
" transform="scale(0.015625)"/>
       <path id="DejaVuSans-62" d="M 3116 1747 
Q 3116 2381 2855 2742 
Q 2594 3103 2138 3103 
Q 1681 3103 1420 2742 
Q 1159 2381 1159 1747 
Q 1159 1113 1420 752 
Q 1681 391 2138 391 
Q 2594 391 2855 752 
Q 3116 1113 3116 1747 
z
M 1159 2969 
Q 1341 3281 1617 3432 
Q 1894 3584 2278 3584 
Q 2916 3584 3314 3078 
Q 3713 2572 3713 1747 
Q 3713 922 3314 415 
Q 2916 -91 2278 -91 
Q 1894 -91 1617 61 
Q 1341 213 1159 525 
L 1159 0 
L 581 0 
L 581 4863 
L 1159 4863 
L 1159 2969 
z
" transform="scale(0.015625)"/>
      </defs>
      <use xlink:href="#DejaVuSans-52"/>
      <use xlink:href="#DejaVuSans-6f" x="64.982422"/>
      <use xlink:href="#DejaVuSans-62" x="126.164062"/>
      <use xlink:href="#DejaVuSans-75" x="189.640625"/>
      <use xlink:href="#DejaVuSans-73" x="253.019531"/>
      <use xlink:href="#DejaVuSans-74" x="305.119141"/>
      <use xlink:href="#DejaVuSans-20" x="344.328125"/>
      <use xlink:href="#DejaVuSans-56" x="376.115234"/>
      <use xlink:href="#DejaVuSans-61" x="436.773438"/>
      <use xlink:href="#DejaVuSans-6c" x="498.052734"/>
      <use xlink:href="#DejaVuSans-69" x="525.835938"/>
      <use xlink:href="#DejaVuSans-64" x="553.619141"/>
      <use xlink:href="#DejaVuSans-61" x="617.095703"/>
      <use xlink:href="#DejaVuSans-74" x="678.375"/>
      <use xlink:href="#DejaVuSans-69" x="717.583984"/>
      <use xlink:href="#DejaVuSans-6f" x="745.367188"/>
      <use xlink:href="#DejaVuSans-6e" x="806.548828"/>
      <use xlink:href="#DejaVuSans-20" x="869.927734"/>
      <use xlink:href="#DejaVuSans-41" x="901.714844"/>
      <use xlink:href="#DejaVuSans-63" x="968.373047"/>
      <use xlink:href="#DejaVuSans-63" x="1023.353516"/>
      <use xlink:href="#DejaVuSans-75" x="1078.333984"/>
      <use xlink:href="#DejaVuSans-72" x="1141.712891"/>
      <use xlink:href="#DejaVuSans-61" x="1182.826172"/>
      <use xlink:href="#DejaVuSans-63" x="1244.105469"/>
      <use xlink:href="#DejaVuSans-79" x="1299.085938"/>
     </g>
    </g>
    <g id="line2d_24">
     <path d="M 216.18875 278.326188 
L 226.18875 278.326188 
L 236.18875 278.326188 
" style="fill: none; stroke: #d62728; stroke-width: 1.5; stroke-linecap: square"/>
    </g>
    <g id="text_22">
     <!-- SWA Validation Accuracy -->
     <g transform="translate(244.18875 281.826188) scale(0.1 -0.1)">
      <defs>
       <path id="DejaVuSans-53" d="M 3425 4513 
L 3425 3897 
Q 3066 4069 2747 4153 
Q 2428 4238 2131 4238 
Q 1616 4238 1336 4038 
Q 1056 3838 1056 3469 
Q 1056 3159 1242 3001 
Q 1428 2844 1947 2747 
L 2328 2669 
Q 3034 2534 3370 2195 
Q 3706 1856 3706 1288 
Q 3706 609 3251 259 
Q 2797 -91 1919 -91 
Q 1588 -91 1214 -16 
Q 841 59 441 206 
L 441 856 
Q 825 641 1194 531 
Q 1563 422 1919 422 
Q 2459 422 2753 634 
Q 3047 847 3047 1241 
Q 3047 1584 2836 1778 
Q 2625 1972 2144 2069 
L 1759 2144 
Q 1053 2284 737 2584 
Q 422 2884 422 3419 
Q 422 4038 858 4394 
Q 1294 4750 2059 4750 
Q 2388 4750 2728 4690 
Q 3069 4631 3425 4513 
z
" transform="scale(0.015625)"/>
       <path id="DejaVuSans-57" d="M 213 4666 
L 850 4666 
L 1831 722 
L 2809 4666 
L 3519 4666 
L 4500 722 
L 5478 4666 
L 6119 4666 
L 4947 0 
L 4153 0 
L 3169 4050 
L 2175 0 
L 1381 0 
L 213 4666 
z
" transform="scale(0.015625)"/>
      </defs>
      <use xlink:href="#DejaVuSans-53"/>
      <use xlink:href="#DejaVuSans-57" x="63.476562"/>
      <use xlink:href="#DejaVuSans-41" x="156.853516"/>
      <use xlink:href="#DejaVuSans-20" x="225.261719"/>
      <use xlink:href="#DejaVuSans-56" x="257.048828"/>
      <use xlink:href="#DejaVuSans-61" x="317.707031"/>
      <use xlink:href="#DejaVuSans-6c" x="378.986328"/>
      <use xlink:href="#DejaVuSans-69" x="406.769531"/>
      <use xlink:href="#DejaVuSans-64" x="434.552734"/>
      <use xlink:href="#DejaVuSans-61" x="498.029297"/>
      <use xlink:href="#DejaVuSans-74" x="559.308594"/>
      <use xlink:href="#DejaVuSans-69" x="598.517578"/>
      <use xlink:href="#DejaVuSans-6f" x="626.300781"/>
      <use xlink:href="#DejaVuSans-6e" x="687.482422"/>
      <use xlink:href="#DejaVuSans-20" x="750.861328"/>
      <use xlink:href="#DejaVuSans-41" x="782.648438"/>
      <use xlink:href="#DejaVuSans-63" x="849.306641"/>
      <use xlink:href="#DejaVuSans-63" x="904.287109"/>
      <use xlink:href="#DejaVuSans-75" x="959.267578"/>
      <use xlink:href="#DejaVuSans-72" x="1022.646484"/>
      <use xlink:href="#DejaVuSans-61" x="1063.759766"/>
      <use xlink:href="#DejaVuSans-63" x="1125.039062"/>
      <use xlink:href="#DejaVuSans-79" x="1180.019531"/>
     </g>
    </g>
    <g id="line2d_25">
     <path d="M 216.18875 293.004312 
L 226.18875 293.004312 
L 236.18875 293.004312 
" style="fill: none; stroke: #9467bd; stroke-width: 1.5; stroke-linecap: square"/>
    </g>
    <g id="text_23">
     <!-- SWA Robust Validation Accuracy -->
     <g transform="translate(244.18875 296.504312) scale(0.1 -0.1)">
      <use xlink:href="#DejaVuSans-53"/>
      <use xlink:href="#DejaVuSans-57" x="63.476562"/>
      <use xlink:href="#DejaVuSans-41" x="156.853516"/>
      <use xlink:href="#DejaVuSans-20" x="225.261719"/>
      <use xlink:href="#DejaVuSans-52" x="257.048828"/>
      <use xlink:href="#DejaVuSans-6f" x="322.03125"/>
      <use xlink:href="#DejaVuSans-62" x="383.212891"/>
      <use xlink:href="#DejaVuSans-75" x="446.689453"/>
      <use xlink:href="#DejaVuSans-73" x="510.068359"/>
      <use xlink:href="#DejaVuSans-74" x="562.167969"/>
      <use xlink:href="#DejaVuSans-20" x="601.376953"/>
      <use xlink:href="#DejaVuSans-56" x="633.164062"/>
      <use xlink:href="#DejaVuSans-61" x="693.822266"/>
      <use xlink:href="#DejaVuSans-6c" x="755.101562"/>
      <use xlink:href="#DejaVuSans-69" x="782.884766"/>
      <use xlink:href="#DejaVuSans-64" x="810.667969"/>
      <use xlink:href="#DejaVuSans-61" x="874.144531"/>
      <use xlink:href="#DejaVuSans-74" x="935.423828"/>
      <use xlink:href="#DejaVuSans-69" x="974.632812"/>
      <use xlink:href="#DejaVuSans-6f" x="1002.416016"/>
      <use xlink:href="#DejaVuSans-6e" x="1063.597656"/>
      <use xlink:href="#DejaVuSans-20" x="1126.976562"/>
      <use xlink:href="#DejaVuSans-41" x="1158.763672"/>
      <use xlink:href="#DejaVuSans-63" x="1225.421875"/>
      <use xlink:href="#DejaVuSans-63" x="1280.402344"/>
      <use xlink:href="#DejaVuSans-75" x="1335.382812"/>
      <use xlink:href="#DejaVuSans-72" x="1398.761719"/>
      <use xlink:href="#DejaVuSans-61" x="1439.875"/>
      <use xlink:href="#DejaVuSans-63" x="1501.154297"/>
      <use xlink:href="#DejaVuSans-79" x="1556.134766"/>
     </g>
    </g>
   </g>
  </g>
 </g>
 <defs>
  <clipPath id="p97c598dbb2">
   <rect x="57.6" y="41.472" width="357.12" height="266.112"/>
  </clipPath>
 </defs>
</svg>
