<?xml version="1.0" encoding="utf-8" standalone="no"?>
<!DOCTYPE svg PUBLIC "-//W3C//DTD SVG 1.1//EN"
  "http://www.w3.org/Graphics/SVG/1.1/DTD/svg11.dtd">
<svg xmlns:xlink="http://www.w3.org/1999/xlink" width="460.8pt" height="345.6pt" viewBox="0 0 460.8 345.6" xmlns="http://www.w3.org/2000/svg" version="1.1">
 <metadata>
  <rdf:RDF xmlns:dc="http://purl.org/dc/elements/1.1/" xmlns:cc="http://creativecommons.org/ns#" xmlns:rdf="http://www.w3.org/1999/02/22-rdf-syntax-ns#">
   <cc:Work>
    <dc:type rdf:resource="http://purl.org/dc/dcmitype/StillImage"/>
    <dc:date>2025-03-14T00:07:33.512317</dc:date>
    <dc:format>image/svg+xml</dc:format>
    <dc:creator>
     <cc:Agent>
      <dc:title>Matplotlib v3.9.1, https://matplotlib.org/</dc:title>
     </cc:Agent>
    </dc:creator>
   </cc:Work>
  </rdf:RDF>
 </metadata>
 <defs>
  <style type="text/css">*{stroke-linejoin: round; stroke-linecap: butt}</style>
 </defs>
 <g id="figure_1">
  <g id="patch_1">
   <path d="M 0 345.6 
L 460.8 345.6 
L 460.8 0 
L 0 0 
z
" style="fill: #ffffff"/>
  </g>
  <g id="axes_1">
   <g id="patch_2">
    <path d="M 57.6 307.584 
L 414.72 307.584 
L 414.72 41.472 
L 57.6 41.472 
z
" style="fill: #ffffff"/>
   </g>
   <g id="matplotlib.axis_1">
    <g id="xtick_1">
     <g id="line2d_1">
      <defs>
       <path id="mb87ea1aeec" d="M 0 0 
L 0 3.5 
" style="stroke: #000000; stroke-width: 0.8"/>
      </defs>
      <g>
       <use xlink:href="#mb87ea1aeec" x="73.832727" y="307.584" style="stroke: #000000; stroke-width: 0.8"/>
      </g>
     </g>
     <g id="text_1">
      <!-- 1 -->
      <g transform="translate(70.651477 322.182437) scale(0.1 -0.1)">
       <defs>
        <path id="DejaVuSans-31" d="M 794 531 
L 1825 531 
L 1825 4091 
L 703 3866 
L 703 4441 
L 1819 4666 
L 2450 4666 
L 2450 531 
L 3481 531 
L 3481 0 
L 794 0 
L 794 531 
z
" transform="scale(0.015625)"/>
       </defs>
       <use xlink:href="#DejaVuSans-31"/>
      </g>
     </g>
    </g>
    <g id="xtick_2">
     <g id="line2d_2">
      <g>
       <use xlink:href="#mb87ea1aeec" x="109.664165" y="307.584" style="stroke: #000000; stroke-width: 0.8"/>
      </g>
     </g>
     <g id="text_2">
      <!-- 34 -->
      <g transform="translate(103.301665 322.182437) scale(0.1 -0.1)">
       <defs>
        <path id="DejaVuSans-33" d="M 2597 2516 
Q 3050 2419 3304 2112 
Q 3559 1806 3559 1356 
Q 3559 666 3084 287 
Q 2609 -91 1734 -91 
Q 1441 -91 1130 -33 
Q 819 25 488 141 
L 488 750 
Q 750 597 1062 519 
Q 1375 441 1716 441 
Q 2309 441 2620 675 
Q 2931 909 2931 1356 
Q 2931 1769 2642 2001 
Q 2353 2234 1838 2234 
L 1294 2234 
L 1294 2753 
L 1863 2753 
Q 2328 2753 2575 2939 
Q 2822 3125 2822 3475 
Q 2822 3834 2567 4026 
Q 2313 4219 1838 4219 
Q 1578 4219 1281 4162 
Q 984 4106 628 3988 
L 628 4550 
Q 988 4650 1302 4700 
Q 1616 4750 1894 4750 
Q 2613 4750 3031 4423 
Q 3450 4097 3450 3541 
Q 3450 3153 3228 2886 
Q 3006 2619 2597 2516 
z
" transform="scale(0.015625)"/>
        <path id="DejaVuSans-34" d="M 2419 4116 
L 825 1625 
L 2419 1625 
L 2419 4116 
z
M 2253 4666 
L 3047 4666 
L 3047 1625 
L 3713 1625 
L 3713 1100 
L 3047 1100 
L 3047 0 
L 2419 0 
L 2419 1100 
L 313 1100 
L 313 1709 
L 2253 4666 
z
" transform="scale(0.015625)"/>
       </defs>
       <use xlink:href="#DejaVuSans-33"/>
       <use xlink:href="#DejaVuSans-34" x="63.623047"/>
      </g>
     </g>
    </g>
    <g id="xtick_3">
     <g id="line2d_3">
      <g>
       <use xlink:href="#mb87ea1aeec" x="145.495604" y="307.584" style="stroke: #000000; stroke-width: 0.8"/>
      </g>
     </g>
     <g id="text_3">
      <!-- 67 -->
      <g transform="translate(139.133104 322.182437) scale(0.1 -0.1)">
       <defs>
        <path id="DejaVuSans-36" d="M 2113 2584 
Q 1688 2584 1439 2293 
Q 1191 2003 1191 1497 
Q 1191 994 1439 701 
Q 1688 409 2113 409 
Q 2538 409 2786 701 
Q 3034 994 3034 1497 
Q 3034 2003 2786 2293 
Q 2538 2584 2113 2584 
z
M 3366 4563 
L 3366 3988 
Q 3128 4100 2886 4159 
Q 2644 4219 2406 4219 
Q 1781 4219 1451 3797 
Q 1122 3375 1075 2522 
Q 1259 2794 1537 2939 
Q 1816 3084 2150 3084 
Q 2853 3084 3261 2657 
Q 3669 2231 3669 1497 
Q 3669 778 3244 343 
Q 2819 -91 2113 -91 
Q 1303 -91 875 529 
Q 447 1150 447 2328 
Q 447 3434 972 4092 
Q 1497 4750 2381 4750 
Q 2619 4750 2861 4703 
Q 3103 4656 3366 4563 
z
" transform="scale(0.015625)"/>
        <path id="DejaVuSans-37" d="M 525 4666 
L 3525 4666 
L 3525 4397 
L 1831 0 
L 1172 0 
L 2766 4134 
L 525 4134 
L 525 4666 
z
" transform="scale(0.015625)"/>
       </defs>
       <use xlink:href="#DejaVuSans-36"/>
       <use xlink:href="#DejaVuSans-37" x="63.623047"/>
      </g>
     </g>
    </g>
    <g id="xtick_4">
     <g id="line2d_4">
      <g>
       <use xlink:href="#mb87ea1aeec" x="181.327042" y="307.584" style="stroke: #000000; stroke-width: 0.8"/>
      </g>
     </g>
     <g id="text_4">
      <!-- 100 -->
      <g transform="translate(171.783292 322.182437) scale(0.1 -0.1)">
       <defs>
        <path id="DejaVuSans-30" d="M 2034 4250 
Q 1547 4250 1301 3770 
Q 1056 3291 1056 2328 
Q 1056 1369 1301 889 
Q 1547 409 2034 409 
Q 2525 409 2770 889 
Q 3016 1369 3016 2328 
Q 3016 3291 2770 3770 
Q 2525 4250 2034 4250 
z
M 2034 4750 
Q 2819 4750 3233 4129 
Q 3647 3509 3647 2328 
Q 3647 1150 3233 529 
Q 2819 -91 2034 -91 
Q 1250 -91 836 529 
Q 422 1150 422 2328 
Q 422 3509 836 4129 
Q 1250 4750 2034 4750 
z
" transform="scale(0.015625)"/>
       </defs>
       <use xlink:href="#DejaVuSans-31"/>
       <use xlink:href="#DejaVuSans-30" x="63.623047"/>
       <use xlink:href="#DejaVuSans-30" x="127.246094"/>
      </g>
     </g>
    </g>
    <g id="xtick_5">
     <g id="line2d_5">
      <g>
       <use xlink:href="#mb87ea1aeec" x="217.15848" y="307.584" style="stroke: #000000; stroke-width: 0.8"/>
      </g>
     </g>
     <g id="text_5">
      <!-- 133 -->
      <g transform="translate(207.61473 322.182437) scale(0.1 -0.1)">
       <use xlink:href="#DejaVuSans-31"/>
       <use xlink:href="#DejaVuSans-33" x="63.623047"/>
       <use xlink:href="#DejaVuSans-33" x="127.246094"/>
      </g>
     </g>
    </g>
    <g id="xtick_6">
     <g id="line2d_6">
      <g>
       <use xlink:href="#mb87ea1aeec" x="254.075719" y="307.584" style="stroke: #000000; stroke-width: 0.8"/>
      </g>
     </g>
     <g id="text_6">
      <!-- 167 -->
      <g transform="translate(244.531969 322.182437) scale(0.1 -0.1)">
       <use xlink:href="#DejaVuSans-31"/>
       <use xlink:href="#DejaVuSans-36" x="63.623047"/>
       <use xlink:href="#DejaVuSans-37" x="127.246094"/>
      </g>
     </g>
    </g>
    <g id="xtick_7">
     <g id="line2d_7">
      <g>
       <use xlink:href="#mb87ea1aeec" x="289.907157" y="307.584" style="stroke: #000000; stroke-width: 0.8"/>
      </g>
     </g>
     <g id="text_7">
      <!-- 200 -->
      <g transform="translate(280.363407 322.182437) scale(0.1 -0.1)">
       <defs>
        <path id="DejaVuSans-32" d="M 1228 531 
L 3431 531 
L 3431 0 
L 469 0 
L 469 531 
Q 828 903 1448 1529 
Q 2069 2156 2228 2338 
Q 2531 2678 2651 2914 
Q 2772 3150 2772 3378 
Q 2772 3750 2511 3984 
Q 2250 4219 1831 4219 
Q 1534 4219 1204 4116 
Q 875 4013 500 3803 
L 500 4441 
Q 881 4594 1212 4672 
Q 1544 4750 1819 4750 
Q 2544 4750 2975 4387 
Q 3406 4025 3406 3419 
Q 3406 3131 3298 2873 
Q 3191 2616 2906 2266 
Q 2828 2175 2409 1742 
Q 1991 1309 1228 531 
z
" transform="scale(0.015625)"/>
       </defs>
       <use xlink:href="#DejaVuSans-32"/>
       <use xlink:href="#DejaVuSans-30" x="63.623047"/>
       <use xlink:href="#DejaVuSans-30" x="127.246094"/>
      </g>
     </g>
    </g>
    <g id="xtick_8">
     <g id="line2d_8">
      <g>
       <use xlink:href="#mb87ea1aeec" x="325.738595" y="307.584" style="stroke: #000000; stroke-width: 0.8"/>
      </g>
     </g>
     <g id="text_8">
      <!-- 233 -->
      <g transform="translate(316.194845 322.182437) scale(0.1 -0.1)">
       <use xlink:href="#DejaVuSans-32"/>
       <use xlink:href="#DejaVuSans-33" x="63.623047"/>
       <use xlink:href="#DejaVuSans-33" x="127.246094"/>
      </g>
     </g>
    </g>
    <g id="xtick_9">
     <g id="line2d_9">
      <g>
       <use xlink:href="#mb87ea1aeec" x="361.570033" y="307.584" style="stroke: #000000; stroke-width: 0.8"/>
      </g>
     </g>
     <g id="text_9">
      <!-- 266 -->
      <g transform="translate(352.026283 322.182437) scale(0.1 -0.1)">
       <use xlink:href="#DejaVuSans-32"/>
       <use xlink:href="#DejaVuSans-36" x="63.623047"/>
       <use xlink:href="#DejaVuSans-36" x="127.246094"/>
      </g>
     </g>
    </g>
    <g id="xtick_10">
     <g id="line2d_10">
      <g>
       <use xlink:href="#mb87ea1aeec" x="398.487273" y="307.584" style="stroke: #000000; stroke-width: 0.8"/>
      </g>
     </g>
     <g id="text_10">
      <!-- 300 -->
      <g transform="translate(388.943523 322.182437) scale(0.1 -0.1)">
       <use xlink:href="#DejaVuSans-33"/>
       <use xlink:href="#DejaVuSans-30" x="63.623047"/>
       <use xlink:href="#DejaVuSans-30" x="127.246094"/>
      </g>
     </g>
    </g>
    <g id="text_11">
     <!-- Epochs -->
     <g transform="translate(218.244375 335.860562) scale(0.1 -0.1)">
      <defs>
       <path id="DejaVuSans-45" d="M 628 4666 
L 3578 4666 
L 3578 4134 
L 1259 4134 
L 1259 2753 
L 3481 2753 
L 3481 2222 
L 1259 2222 
L 1259 531 
L 3634 531 
L 3634 0 
L 628 0 
L 628 4666 
z
" transform="scale(0.015625)"/>
       <path id="DejaVuSans-70" d="M 1159 525 
L 1159 -1331 
L 581 -1331 
L 581 3500 
L 1159 3500 
L 1159 2969 
Q 1341 3281 1617 3432 
Q 1894 3584 2278 3584 
Q 2916 3584 3314 3078 
Q 3713 2572 3713 1747 
Q 3713 922 3314 415 
Q 2916 -91 2278 -91 
Q 1894 -91 1617 61 
Q 1341 213 1159 525 
z
M 3116 1747 
Q 3116 2381 2855 2742 
Q 2594 3103 2138 3103 
Q 1681 3103 1420 2742 
Q 1159 2381 1159 1747 
Q 1159 1113 1420 752 
Q 1681 391 2138 391 
Q 2594 391 2855 752 
Q 3116 1113 3116 1747 
z
" transform="scale(0.015625)"/>
       <path id="DejaVuSans-6f" d="M 1959 3097 
Q 1497 3097 1228 2736 
Q 959 2375 959 1747 
Q 959 1119 1226 758 
Q 1494 397 1959 397 
Q 2419 397 2687 759 
Q 2956 1122 2956 1747 
Q 2956 2369 2687 2733 
Q 2419 3097 1959 3097 
z
M 1959 3584 
Q 2709 3584 3137 3096 
Q 3566 2609 3566 1747 
Q 3566 888 3137 398 
Q 2709 -91 1959 -91 
Q 1206 -91 779 398 
Q 353 888 353 1747 
Q 353 2609 779 3096 
Q 1206 3584 1959 3584 
z
" transform="scale(0.015625)"/>
       <path id="DejaVuSans-63" d="M 3122 3366 
L 3122 2828 
Q 2878 2963 2633 3030 
Q 2388 3097 2138 3097 
Q 1578 3097 1268 2742 
Q 959 2388 959 1747 
Q 959 1106 1268 751 
Q 1578 397 2138 397 
Q 2388 397 2633 464 
Q 2878 531 3122 666 
L 3122 134 
Q 2881 22 2623 -34 
Q 2366 -91 2075 -91 
Q 1284 -91 818 406 
Q 353 903 353 1747 
Q 353 2603 823 3093 
Q 1294 3584 2113 3584 
Q 2378 3584 2631 3529 
Q 2884 3475 3122 3366 
z
" transform="scale(0.015625)"/>
       <path id="DejaVuSans-68" d="M 3513 2113 
L 3513 0 
L 2938 0 
L 2938 2094 
Q 2938 2591 2744 2837 
Q 2550 3084 2163 3084 
Q 1697 3084 1428 2787 
Q 1159 2491 1159 1978 
L 1159 0 
L 581 0 
L 581 4863 
L 1159 4863 
L 1159 2956 
Q 1366 3272 1645 3428 
Q 1925 3584 2291 3584 
Q 2894 3584 3203 3211 
Q 3513 2838 3513 2113 
z
" transform="scale(0.015625)"/>
       <path id="DejaVuSans-73" d="M 2834 3397 
L 2834 2853 
Q 2591 2978 2328 3040 
Q 2066 3103 1784 3103 
Q 1356 3103 1142 2972 
Q 928 2841 928 2578 
Q 928 2378 1081 2264 
Q 1234 2150 1697 2047 
L 1894 2003 
Q 2506 1872 2764 1633 
Q 3022 1394 3022 966 
Q 3022 478 2636 193 
Q 2250 -91 1575 -91 
Q 1294 -91 989 -36 
Q 684 19 347 128 
L 347 722 
Q 666 556 975 473 
Q 1284 391 1588 391 
Q 1994 391 2212 530 
Q 2431 669 2431 922 
Q 2431 1156 2273 1281 
Q 2116 1406 1581 1522 
L 1381 1569 
Q 847 1681 609 1914 
Q 372 2147 372 2553 
Q 372 3047 722 3315 
Q 1072 3584 1716 3584 
Q 2034 3584 2315 3537 
Q 2597 3491 2834 3397 
z
" transform="scale(0.015625)"/>
      </defs>
      <use xlink:href="#DejaVuSans-45"/>
      <use xlink:href="#DejaVuSans-70" x="63.183594"/>
      <use xlink:href="#DejaVuSans-6f" x="126.660156"/>
      <use xlink:href="#DejaVuSans-63" x="187.841797"/>
      <use xlink:href="#DejaVuSans-68" x="242.822266"/>
      <use xlink:href="#DejaVuSans-73" x="306.201172"/>
     </g>
    </g>
   </g>
   <g id="matplotlib.axis_2">
    <g id="ytick_1">
     <g id="line2d_11">
      <defs>
       <path id="mbb6af8d12a" d="M 0 0 
L -3.5 0 
" style="stroke: #000000; stroke-width: 0.8"/>
      </defs>
      <g>
       <use xlink:href="#mbb6af8d12a" x="57.6" y="297.663839" style="stroke: #000000; stroke-width: 0.8"/>
      </g>
     </g>
     <g id="text_12">
      <!-- 0 -->
      <g transform="translate(44.2375 301.463058) scale(0.1 -0.1)">
       <use xlink:href="#DejaVuSans-30"/>
      </g>
     </g>
    </g>
    <g id="ytick_2">
     <g id="line2d_12">
      <g>
       <use xlink:href="#mbb6af8d12a" x="57.6" y="245.081059" style="stroke: #000000; stroke-width: 0.8"/>
      </g>
     </g>
     <g id="text_13">
      <!-- 20 -->
      <g transform="translate(37.875 248.880278) scale(0.1 -0.1)">
       <use xlink:href="#DejaVuSans-32"/>
       <use xlink:href="#DejaVuSans-30" x="63.623047"/>
      </g>
     </g>
    </g>
    <g id="ytick_3">
     <g id="line2d_13">
      <g>
       <use xlink:href="#mbb6af8d12a" x="57.6" y="192.498279" style="stroke: #000000; stroke-width: 0.8"/>
      </g>
     </g>
     <g id="text_14">
      <!-- 40 -->
      <g transform="translate(37.875 196.297497) scale(0.1 -0.1)">
       <use xlink:href="#DejaVuSans-34"/>
       <use xlink:href="#DejaVuSans-30" x="63.623047"/>
      </g>
     </g>
    </g>
    <g id="ytick_4">
     <g id="line2d_14">
      <g>
       <use xlink:href="#mbb6af8d12a" x="57.6" y="139.915498" style="stroke: #000000; stroke-width: 0.8"/>
      </g>
     </g>
     <g id="text_15">
      <!-- 60 -->
      <g transform="translate(37.875 143.714717) scale(0.1 -0.1)">
       <use xlink:href="#DejaVuSans-36"/>
       <use xlink:href="#DejaVuSans-30" x="63.623047"/>
      </g>
     </g>
    </g>
    <g id="ytick_5">
     <g id="line2d_15">
      <g>
       <use xlink:href="#mbb6af8d12a" x="57.6" y="87.332718" style="stroke: #000000; stroke-width: 0.8"/>
      </g>
     </g>
     <g id="text_16">
      <!-- 80 -->
      <g transform="translate(37.875 91.131937) scale(0.1 -0.1)">
       <defs>
        <path id="DejaVuSans-38" d="M 2034 2216 
Q 1584 2216 1326 1975 
Q 1069 1734 1069 1313 
Q 1069 891 1326 650 
Q 1584 409 2034 409 
Q 2484 409 2743 651 
Q 3003 894 3003 1313 
Q 3003 1734 2745 1975 
Q 2488 2216 2034 2216 
z
M 1403 2484 
Q 997 2584 770 2862 
Q 544 3141 544 3541 
Q 544 4100 942 4425 
Q 1341 4750 2034 4750 
Q 2731 4750 3128 4425 
Q 3525 4100 3525 3541 
Q 3525 3141 3298 2862 
Q 3072 2584 2669 2484 
Q 3125 2378 3379 2068 
Q 3634 1759 3634 1313 
Q 3634 634 3220 271 
Q 2806 -91 2034 -91 
Q 1263 -91 848 271 
Q 434 634 434 1313 
Q 434 1759 690 2068 
Q 947 2378 1403 2484 
z
M 1172 3481 
Q 1172 3119 1398 2916 
Q 1625 2713 2034 2713 
Q 2441 2713 2670 2916 
Q 2900 3119 2900 3481 
Q 2900 3844 2670 4047 
Q 2441 4250 2034 4250 
Q 1625 4250 1398 4047 
Q 1172 3844 1172 3481 
z
" transform="scale(0.015625)"/>
       </defs>
       <use xlink:href="#DejaVuSans-38"/>
       <use xlink:href="#DejaVuSans-30" x="63.623047"/>
      </g>
     </g>
    </g>
    <g id="text_17">
     <!-- Accuracy -->
     <g transform="translate(31.795312 197.356125) rotate(-90) scale(0.1 -0.1)">
      <defs>
       <path id="DejaVuSans-41" d="M 2188 4044 
L 1331 1722 
L 3047 1722 
L 2188 4044 
z
M 1831 4666 
L 2547 4666 
L 4325 0 
L 3669 0 
L 3244 1197 
L 1141 1197 
L 716 0 
L 50 0 
L 1831 4666 
z
" transform="scale(0.015625)"/>
       <path id="DejaVuSans-75" d="M 544 1381 
L 544 3500 
L 1119 3500 
L 1119 1403 
Q 1119 906 1312 657 
Q 1506 409 1894 409 
Q 2359 409 2629 706 
Q 2900 1003 2900 1516 
L 2900 3500 
L 3475 3500 
L 3475 0 
L 2900 0 
L 2900 538 
Q 2691 219 2414 64 
Q 2138 -91 1772 -91 
Q 1169 -91 856 284 
Q 544 659 544 1381 
z
M 1991 3584 
L 1991 3584 
z
" transform="scale(0.015625)"/>
       <path id="DejaVuSans-72" d="M 2631 2963 
Q 2534 3019 2420 3045 
Q 2306 3072 2169 3072 
Q 1681 3072 1420 2755 
Q 1159 2438 1159 1844 
L 1159 0 
L 581 0 
L 581 3500 
L 1159 3500 
L 1159 2956 
Q 1341 3275 1631 3429 
Q 1922 3584 2338 3584 
Q 2397 3584 2469 3576 
Q 2541 3569 2628 3553 
L 2631 2963 
z
" transform="scale(0.015625)"/>
       <path id="DejaVuSans-61" d="M 2194 1759 
Q 1497 1759 1228 1600 
Q 959 1441 959 1056 
Q 959 750 1161 570 
Q 1363 391 1709 391 
Q 2188 391 2477 730 
Q 2766 1069 2766 1631 
L 2766 1759 
L 2194 1759 
z
M 3341 1997 
L 3341 0 
L 2766 0 
L 2766 531 
Q 2569 213 2275 61 
Q 1981 -91 1556 -91 
Q 1019 -91 701 211 
Q 384 513 384 1019 
Q 384 1609 779 1909 
Q 1175 2209 1959 2209 
L 2766 2209 
L 2766 2266 
Q 2766 2663 2505 2880 
Q 2244 3097 1772 3097 
Q 1472 3097 1187 3025 
Q 903 2953 641 2809 
L 641 3341 
Q 956 3463 1253 3523 
Q 1550 3584 1831 3584 
Q 2591 3584 2966 3190 
Q 3341 2797 3341 1997 
z
" transform="scale(0.015625)"/>
       <path id="DejaVuSans-79" d="M 2059 -325 
Q 1816 -950 1584 -1140 
Q 1353 -1331 966 -1331 
L 506 -1331 
L 506 -850 
L 844 -850 
Q 1081 -850 1212 -737 
Q 1344 -625 1503 -206 
L 1606 56 
L 191 3500 
L 800 3500 
L 1894 763 
L 2988 3500 
L 3597 3500 
L 2059 -325 
z
" transform="scale(0.015625)"/>
      </defs>
      <use xlink:href="#DejaVuSans-41"/>
      <use xlink:href="#DejaVuSans-63" x="66.658203"/>
      <use xlink:href="#DejaVuSans-63" x="121.638672"/>
      <use xlink:href="#DejaVuSans-75" x="176.619141"/>
      <use xlink:href="#DejaVuSans-72" x="239.998047"/>
      <use xlink:href="#DejaVuSans-61" x="281.111328"/>
      <use xlink:href="#DejaVuSans-63" x="342.390625"/>
      <use xlink:href="#DejaVuSans-79" x="397.371094"/>
     </g>
    </g>
   </g>
   <g id="line2d_16">
    <path d="M 73.832727 285.017681 
L 77.090131 239.770198 
L 79.261733 217.041291 
L 81.433335 200.642037 
L 82.519137 194.1875 
L 85.77654 177.985431 
L 89.033943 165.543031 
L 90.119745 162.966474 
L 92.291347 157.287534 
L 93.377148 155.427418 
L 94.462949 154.914736 
L 95.54875 179.80611 
L 96.634552 178.616424 
L 97.720353 176.447385 
L 104.23516 158.996475 
L 105.320961 156.380481 
L 106.406762 153.370117 
L 107.492563 151.680895 
L 108.578364 149.446127 
L 109.664165 146.238578 
L 110.749967 144.792551 
L 111.835768 142.380316 
L 114.00737 138.272286 
L 115.093171 135.058164 
L 117.264773 130.628065 
L 118.350575 129.458098 
L 119.436376 127.505962 
L 120.522177 125.218611 
L 121.607978 122.333131 
L 123.77958 117.620399 
L 125.951183 115.181873 
L 127.036984 113.591244 
L 128.122785 110.193082 
L 129.208586 109.384621 
L 130.294387 107.241873 
L 131.380189 106.56487 
L 132.46599 104.974241 
L 133.551791 104.16578 
L 134.637592 104.645598 
L 135.723393 103.383612 
L 136.809194 102.982668 
L 137.894995 103.199572 
L 138.980797 135.636574 
L 140.066598 139.100465 
L 142.2382 137.687303 
L 143.324001 136.320151 
L 144.409802 135.781177 
L 145.495604 134.019654 
L 146.581405 133.907916 
L 147.667206 131.403661 
L 148.753007 131.015863 
L 149.838808 129.228048 
L 150.924609 128.511608 
L 152.01041 126.769803 
L 153.096212 127.170747 
L 155.267814 123.174455 
L 156.353615 123.338777 
L 157.439416 121.478661 
L 158.525217 120.985697 
L 159.611019 120.039207 
L 161.782621 117.226028 
L 162.868422 115.319903 
L 163.954223 115.135863 
L 165.040024 112.894522 
L 166.125825 112.579025 
L 167.211627 112.046625 
L 168.297428 110.870085 
L 169.383229 108.635317 
L 170.46903 107.853148 
L 172.640632 105.828711 
L 173.726434 105.953595 
L 174.812235 104.027751 
L 175.898036 102.811774 
L 176.983837 100.596724 
L 178.069638 100.432403 
L 179.155439 99.788264 
L 180.24124 97.244572 
L 181.327042 96.91593 
L 182.412843 96.041741 
L 183.498644 93.98444 
L 184.584445 94.030449 
L 185.670246 92.630433 
L 186.756047 90.783463 
L 187.841849 89.797536 
L 188.92765 87.759953 
L 190.013451 87.61535 
L 191.099252 87.687652 
L 192.185053 85.321426 
L 194.356656 84.210615 
L 195.442457 82.284771 
L 196.528258 81.522321 
L 197.614059 80.996493 
L 198.69986 79.543893 
L 199.785661 79.05093 
L 200.871462 77.420864 
L 201.957264 76.829307 
L 203.043065 76.467801 
L 204.128866 74.969192 
L 205.214667 75.113794 
L 206.300468 73.753215 
L 207.386269 73.115649 
L 208.472071 73.063066 
L 209.557872 72.294043 
L 210.643673 71.216096 
L 211.729474 70.598248 
L 212.815275 70.427354 
L 213.901076 69.737205 
L 214.986877 69.894953 
L 216.072679 69.632039 
L 217.15848 68.968182 
L 218.244281 69.30997 
L 219.330082 68.080847 
L 220.415883 67.640467 
L 221.501684 68.186013 
L 222.587486 67.877089 
L 223.673287 67.752205 
L 224.759088 68.856443 
L 225.844889 104.2578 
L 226.93069 109.226873 
L 228.016491 110.331111 
L 229.102292 109.871012 
L 230.188094 109.581807 
L 232.359696 108.346111 
L 233.445497 109.233446 
L 234.531298 108.359257 
L 235.617099 107.669108 
L 236.702901 106.801492 
L 237.788702 106.624025 
L 238.874503 105.690681 
L 239.960304 105.716972 
L 241.046105 105.38833 
L 242.131906 103.745118 
L 243.217708 103.817419 
L 244.303509 104.040896 
L 245.38931 103.639953 
L 246.475111 102.772337 
L 247.560912 101.431476 
L 248.646713 100.964804 
L 249.732514 100.991095 
L 251.904117 99.196708 
L 255.16152 97.980731 
L 256.247321 98.026741 
L 257.333123 97.336592 
L 258.418924 96.298082 
L 259.504725 95.614506 
L 260.590526 95.713098 
L 261.676327 95.522486 
L 262.762128 94.188198 
L 263.847929 93.89242 
L 264.933731 92.683016 
L 266.019532 93.688661 
L 267.105333 92.183479 
L 268.191134 91.388165 
L 269.276935 91.58535 
L 270.362736 90.441675 
L 271.448538 91.105532 
L 272.534339 90.389092 
L 273.62014 89.337436 
L 274.705941 89.363728 
L 275.791742 89.698943 
L 276.877543 88.51583 
L 277.963344 87.700797 
L 279.049146 87.089522 
L 280.134947 86.649142 
L 281.220748 86.011575 
L 282.306549 86.682006 
L 283.39235 85.650069 
L 284.478151 84.434092 
L 285.563953 84.585268 
L 286.649754 84.072585 
L 287.735555 84.10545 
L 288.821356 82.560831 
L 289.907157 81.739225 
L 290.992958 81.634059 
L 293.164561 81.732652 
L 294.250362 80.365499 
L 295.336163 80.030284 
L 296.421964 80.096013 
L 297.507765 79.169241 
L 298.593566 78.610549 
L 299.679368 78.360781 
L 300.765169 77.447155 
L 301.85097 76.763579 
L 302.936771 76.487519 
L 304.022572 76.053711 
L 305.108373 76.434937 
L 307.279976 75.12694 
L 308.365777 74.693132 
L 309.451578 73.260251 
L 312.708981 73.542884 
L 313.794783 72.221741 
L 314.880584 71.551311 
L 315.966385 71.163513 
L 317.052186 70.657404 
L 318.137987 70.374771 
L 323.566993 68.205731 
L 325.738595 66.746559 
L 326.824396 66.713695 
L 327.910198 66.227304 
L 328.995999 65.602884 
L 331.167601 65.004755 
L 332.253402 64.097702 
L 334.425005 63.53901 
L 335.510806 62.809424 
L 336.596607 63.065765 
L 337.682408 62.27045 
L 339.85401 62.191576 
L 340.939811 61.166212 
L 342.025613 61.678894 
L 343.111414 60.482636 
L 344.197215 59.720185 
L 345.283016 60.462917 
L 346.368817 59.049755 
L 347.454618 59.509854 
L 348.54042 58.497636 
L 349.626221 58.464771 
L 350.712022 58.129556 
L 351.797823 56.966162 
L 352.883624 57.058182 
L 353.969425 56.492917 
L 355.055227 56.072255 
L 356.141028 56.716394 
L 357.226829 55.822487 
L 358.31263 55.677884 
L 359.398431 55.270368 
L 360.484232 54.987735 
L 361.570033 55.060036 
L 362.655835 54.087255 
L 363.741636 53.745467 
L 364.827437 54.139838 
L 366.999039 53.568 
L 368.08484 53.863778 
L 369.170642 54.42247 
L 370.256443 55.145483 
L 371.342244 55.559573 
L 372.428045 56.690103 
L 373.513846 56.657238 
L 374.599647 57.117338 
L 375.685448 57.058182 
L 376.77125 57.419689 
L 377.857051 56.953016 
L 378.942852 57.590583 
L 380.028653 57.58401 
L 381.114454 56.972735 
L 382.200255 57.058182 
L 383.286057 56.808414 
L 384.371858 57.281659 
L 385.457659 57.097619 
L 386.54346 57.393397 
L 387.629261 57.314523 
L 388.715062 56.111692 
L 389.800863 56.36146 
L 390.886665 57.610301 
L 391.972466 57.222503 
L 394.144068 56.755831 
L 395.229869 57.097619 
L 396.31567 56.604656 
L 397.401472 57.163348 
L 398.487273 56.644093 
L 398.487273 56.644093 
" clip-path="url(#pccd709cff5)" style="fill: none; stroke: #1f77b4; stroke-width: 1.5; stroke-linecap: square"/>
   </g>
   <g id="line2d_17">
    <path d="M 73.832727 272.108608 
L 74.918528 249.655761 
L 76.00433 231.619867 
L 78.175932 208.378278 
L 79.261733 202.54159 
L 80.347534 201.936888 
L 81.433335 180.115034 
L 82.519137 172.779736 
L 83.604938 171.72808 
L 84.690739 165.602186 
L 85.77654 164.129869 
L 86.862341 157.846226 
L 87.948142 153.218942 
L 89.033943 150.905299 
L 90.119745 154.270597 
L 91.205546 153.324107 
L 92.291347 146.698677 
L 93.377148 145.883644 
L 94.462949 145.725895 
L 95.54875 164.708279 
L 96.634552 164.576822 
L 97.720353 163.39371 
L 98.806154 164.208743 
L 99.891955 154.349471 
L 100.977756 160.422782 
L 102.063557 153.955101 
L 103.149358 145.121193 
L 104.23516 143.54371 
L 105.320961 142.334306 
L 106.406762 143.675167 
L 107.492563 147.066756 
L 108.578364 136.655366 
L 109.664165 134.157684 
L 110.749967 136.5502 
L 111.835768 134.499472 
L 112.921569 129.793313 
L 114.00737 129.214902 
L 115.093171 129.767022 
L 116.178972 126.191392 
L 117.264773 127.874041 
L 118.350575 127.716293 
L 119.436376 124.009207 
L 120.522177 123.614836 
L 121.607978 120.722783 
L 122.693779 120.512452 
L 123.77958 121.695565 
L 124.865382 119.90775 
L 125.951183 116.752783 
L 127.036984 116.726492 
L 128.122785 119.066426 
L 129.208586 116.200664 
L 130.294387 116.332121 
L 131.380189 117.094571 
L 132.46599 115.149009 
L 133.551791 114.41285 
L 134.637592 114.123644 
L 136.809194 114.544307 
L 137.894995 113.913313 
L 138.980797 140.546492 
L 140.066598 129.530399 
L 141.152399 131.660002 
L 142.2382 134.552055 
L 143.324001 130.660929 
L 144.409802 131.0553 
L 145.495604 128.242121 
L 146.581405 127.348214 
L 147.667206 127.926624 
L 148.753007 129.530399 
L 149.838808 125.928479 
L 150.924609 126.270267 
L 152.01041 127.400796 
L 153.096212 127.243048 
L 154.182013 125.350068 
L 155.267814 124.035499 
L 156.353615 120.591326 
L 157.439416 124.088081 
L 158.525217 123.167883 
L 159.611019 120.617618 
L 160.69682 121.564108 
L 161.782621 119.802585 
L 162.868422 121.03828 
L 163.954223 119.460797 
L 165.040024 116.857949 
L 166.125825 117.357485 
L 167.211627 116.568744 
L 168.297428 117.173446 
L 169.383229 115.569671 
L 170.46903 116.279538 
L 171.554831 113.518942 
L 172.640632 116.910532 
L 173.726434 115.727419 
L 174.812235 114.99126 
L 175.898036 114.623181 
L 176.983837 115.990333 
L 178.069638 112.966823 
L 180.24124 113.597817 
L 181.327042 111.625962 
L 182.412843 113.571525 
L 183.498644 111.757419 
L 184.584445 110.679472 
L 185.670246 110.916095 
L 186.756047 112.309538 
L 187.841849 110.416558 
L 188.92765 111.179009 
L 190.013451 110.916095 
L 191.099252 109.864439 
L 192.185053 108.392121 
L 193.270854 109.049406 
L 194.356656 108.839075 
L 195.442457 107.182717 
L 196.528258 108.18179 
L 198.69986 106.315102 
L 199.785661 109.522651 
L 200.871462 106.788347 
L 201.957264 108.628744 
L 203.043065 108.812784 
L 204.128866 107.340466 
L 205.214667 106.262519 
L 206.300468 107.156426 
L 207.386269 107.287883 
L 208.472071 106.683181 
L 209.557872 105.894439 
L 210.643673 106.709472 
L 212.815275 105.473777 
L 213.901076 105.605234 
L 214.986877 106.630598 
L 216.072679 105.605234 
L 217.15848 105.684108 
L 218.244281 105.973313 
L 219.330082 104.842784 
L 220.415883 105.684108 
L 221.501684 105.394903 
L 222.587486 105.657817 
L 223.673287 105.473777 
L 224.759088 105.447486 
L 225.844889 121.80073 
L 226.93069 125.507816 
L 228.016491 123.167883 
L 229.102292 122.326558 
L 230.188094 123.535962 
L 231.273895 120.749075 
L 232.359696 123.325631 
L 233.445497 120.223247 
L 234.531298 120.065499 
L 235.617099 118.303975 
L 236.702901 119.592254 
L 237.788702 124.955697 
L 238.874503 118.882386 
L 239.960304 119.303048 
L 241.046105 119.040134 
L 242.131906 122.195101 
L 243.217708 117.962187 
L 244.303509 116.384704 
L 245.38931 121.537816 
L 246.475111 115.096426 
L 247.560912 118.146227 
L 248.646713 120.775366 
L 249.732514 118.172518 
L 250.818316 117.962187 
L 251.904117 118.330267 
L 252.989918 119.460797 
L 254.075719 119.434505 
L 255.16152 117.935896 
L 256.247321 115.780002 
L 257.333123 117.120863 
L 258.418924 116.963115 
L 259.504725 114.491724 
L 260.590526 118.330267 
L 262.762128 114.518015 
L 263.847929 119.671128 
L 264.933731 114.938678 
L 266.019532 116.779075 
L 267.105333 116.437287 
L 268.191134 113.860731 
L 269.276935 117.094571 
L 270.362736 115.096426 
L 271.448538 117.06828 
L 272.534339 117.699273 
L 273.62014 115.93775 
L 274.705941 116.410995 
L 275.791742 118.803512 
L 276.877543 113.09828 
L 277.963344 114.754638 
L 279.049146 116.831658 
L 280.134947 117.147154 
L 281.220748 116.516161 
L 282.306549 115.043843 
L 283.39235 113.913313 
L 284.478151 116.700201 
L 285.563953 114.754638 
L 286.649754 113.729274 
L 287.735555 116.410995 
L 288.821356 113.860731 
L 289.907157 114.176227 
L 290.992958 116.805366 
L 292.07876 115.701128 
L 293.164561 116.542452 
L 294.250362 112.493578 
L 295.336163 115.701128 
L 296.421964 114.964969 
L 297.507765 113.518942 
L 298.593566 114.281393 
L 299.679368 113.28232 
L 300.765169 111.38934 
L 301.85097 114.754638 
L 302.936771 114.912386 
L 304.022572 114.22881 
L 305.108373 112.598744 
L 306.194175 114.780929 
L 307.279976 111.96775 
L 309.451578 111.96775 
L 311.62318 112.861658 
L 312.708981 110.942386 
L 313.794783 113.834439 
L 314.880584 113.492651 
L 315.966385 109.811856 
L 317.052186 110.916095 
L 318.137987 110.390267 
L 319.223788 113.992187 
L 320.30959 112.940532 
L 321.395391 111.625962 
L 322.481192 109.601525 
L 323.566993 112.178082 
L 324.652794 110.548015 
L 325.738595 113.177154 
L 326.824396 110.469141 
L 327.910198 110.942386 
L 328.995999 110.521724 
L 330.0818 111.941459 
L 331.167601 111.810002 
L 332.253402 108.970532 
L 333.339203 109.101989 
L 334.425005 110.206227 
L 335.510806 108.497287 
L 336.596607 108.865366 
L 337.682408 108.812784 
L 338.768209 109.049406 
L 339.85401 107.866294 
L 340.939811 109.811856 
L 342.025613 108.36583 
L 343.111414 108.681327 
L 344.197215 108.208082 
L 345.283016 108.970532 
L 346.368817 108.286956 
L 347.454618 106.578015 
L 348.54042 108.339539 
L 349.626221 107.813711 
L 350.712022 106.919804 
L 351.797823 107.156426 
L 352.883624 106.551724 
L 353.969425 106.393976 
L 355.055227 106.393976 
L 356.141028 106.683181 
L 357.226829 107.261592 
L 358.31263 106.788347 
L 359.398431 105.552651 
L 360.484232 107.209009 
L 361.570033 106.10477 
L 362.655835 105.947022 
L 363.741636 105.920731 
L 364.827437 105.7104 
L 365.913238 105.868148 
L 366.999039 105.552651 
L 368.08484 107.156426 
L 369.170642 107.077552 
L 370.256443 107.918876 
L 371.342244 109.732982 
L 372.428045 108.760201 
L 373.513846 109.391194 
L 374.599647 107.734837 
L 375.685448 108.970532 
L 376.77125 107.892585 
L 377.857051 108.786492 
L 378.942852 108.339539 
L 380.028653 108.339539 
L 381.114454 110.469141 
L 382.200255 107.813711 
L 383.286057 108.707618 
L 384.371858 109.259737 
L 385.457659 107.682254 
L 386.54346 108.839075 
L 387.629261 108.944241 
L 388.715062 107.99775 
L 389.800863 108.812784 
L 390.886665 108.707618 
L 391.972466 109.838148 
L 393.058267 109.391194 
L 394.144068 109.838148 
L 395.229869 108.339539 
L 396.31567 108.418413 
L 397.401472 109.470068 
L 398.487273 109.890731 
L 398.487273 109.890731 
" clip-path="url(#pccd709cff5)" style="fill: none; stroke: #ff7f0e; stroke-width: 1.5; stroke-linecap: square"/>
   </g>
   <g id="line2d_18">
    <path d="M 73.832727 295.30668 
L 74.918528 294.599532 
L 76.00433 294.980304 
L 79.261733 295.288548 
L 80.347534 294.708324 
L 81.433335 294.94404 
L 82.519137 295.30668 
L 83.604938 295.488 
L 85.77654 295.052832 
L 86.862341 295.39734 
L 87.948142 295.342944 
L 89.033943 295.016568 
L 90.119745 295.21602 
L 91.205546 294.980304 
L 92.291347 295.12536 
L 93.377148 294.94404 
L 94.462949 295.089096 
L 96.634552 295.12536 
L 97.720353 295.12536 
L 98.806154 295.451736 
L 99.891955 295.252284 
L 100.977756 295.234152 
L 102.063557 294.835248 
L 103.149358 294.726456 
L 104.23516 294.962172 
L 105.320961 294.835248 
L 107.492563 295.252284 
L 108.578364 295.016568 
L 109.664165 295.0347 
L 110.749967 294.635796 
L 111.835768 295.252284 
L 112.921569 294.128101 
L 114.00737 295.016568 
L 115.093171 294.798984 
L 116.178972 294.76272 
L 118.350575 294.962172 
L 119.436376 294.889644 
L 120.522177 295.21602 
L 122.693779 294.726456 
L 123.77958 294.962172 
L 124.865382 294.980304 
L 125.951183 294.635796 
L 130.294387 294.708324 
L 131.380189 294.889644 
L 132.46599 294.690192 
L 133.551791 294.780852 
L 135.723393 294.708324 
L 136.809194 294.817116 
L 137.894995 294.780852 
L 138.980797 294.236892 
L 140.066598 294.817116 
L 141.152399 295.0347 
L 142.2382 295.052832 
L 143.324001 294.617664 
L 144.409802 295.107228 
L 145.495604 295.143492 
L 146.581405 294.817116 
L 148.753007 294.835248 
L 149.838808 294.962172 
L 150.924609 295.39734 
L 152.01041 294.871512 
L 153.096212 295.161624 
L 154.182013 294.563268 
L 155.267814 295.21602 
L 156.353615 294.925908 
L 157.439416 294.889644 
L 158.525217 295.016568 
L 159.611019 294.726456 
L 160.69682 294.744588 
L 161.782621 295.016568 
L 162.868422 294.653928 
L 163.954223 294.817116 
L 165.040024 295.12536 
L 166.125825 295.234152 
L 167.211627 294.998436 
L 168.297428 295.12536 
L 169.383229 294.726456 
L 171.554831 295.179756 
L 173.726434 294.798984 
L 174.812235 294.871512 
L 175.898036 294.798984 
L 180.24124 294.998436 
L 181.327042 295.270416 
L 182.412843 295.179756 
L 183.498644 294.85338 
L 185.670246 295.161624 
L 186.756047 295.107228 
L 187.841849 294.690192 
L 188.92765 294.871512 
L 190.013451 294.690192 
L 193.270854 295.12536 
L 194.356656 295.052832 
L 195.442457 295.197888 
L 197.614059 294.871512 
L 199.785661 295.052832 
L 204.128866 295.016568 
L 206.300468 295.252284 
L 211.729474 295.070964 
L 212.815275 295.143492 
L 213.901076 295.016568 
L 219.330082 295.179756 
L 223.673287 295.107228 
L 224.759088 295.161624 
L 225.844889 294.798984 
L 226.93069 295.30668 
L 228.016491 294.76272 
L 230.188094 294.85338 
L 231.273895 294.49074 
L 233.445497 295.234152 
L 234.531298 295.0347 
L 235.617099 295.197888 
L 236.702901 294.998436 
L 237.788702 295.070964 
L 239.960304 294.835248 
L 241.046105 294.563268 
L 242.131906 294.5814 
L 243.217708 295.052832 
L 244.303509 294.889644 
L 246.475111 294.889644 
L 247.560912 294.563268 
L 248.646713 295.21602 
L 252.989918 294.907776 
L 254.075719 295.016568 
L 255.16152 294.871512 
L 256.247321 295.016568 
L 257.333123 294.690192 
L 258.418924 294.527004 
L 259.504725 294.798984 
L 260.590526 295.288548 
L 261.676327 295.161624 
L 262.762128 295.30668 
L 263.847929 294.980304 
L 264.933731 294.817116 
L 267.105333 294.889644 
L 268.191134 295.179756 
L 269.276935 294.76272 
L 270.362736 295.21602 
L 272.534339 295.197888 
L 273.62014 294.780852 
L 274.705941 295.270416 
L 275.791742 295.30668 
L 276.877543 294.907776 
L 279.049146 294.744588 
L 281.220748 295.197888 
L 282.306549 294.780852 
L 285.563953 295.161624 
L 286.649754 295.234152 
L 287.735555 295.451736 
L 288.821356 295.30668 
L 289.907157 294.998436 
L 290.992958 295.288548 
L 292.07876 294.889644 
L 294.250362 295.143492 
L 295.336163 294.798984 
L 297.507765 295.107228 
L 298.593566 294.980304 
L 299.679368 295.12536 
L 300.765169 294.889644 
L 301.85097 294.998436 
L 302.936771 295.234152 
L 304.022572 295.143492 
L 305.108373 295.234152 
L 307.279976 295.016568 
L 314.880584 295.016568 
L 315.966385 294.871512 
L 319.223788 295.016568 
L 320.30959 294.67206 
L 321.395391 295.052832 
L 322.481192 295.089096 
L 324.652794 294.980304 
L 325.738595 295.107228 
L 326.824396 294.617664 
L 327.910198 295.143492 
L 330.0818 294.94404 
L 332.253402 295.252284 
L 333.339203 295.342944 
L 334.425005 295.107228 
L 335.510806 295.270416 
L 337.682408 294.907776 
L 338.768209 295.143492 
L 339.85401 294.835248 
L 340.939811 295.016568 
L 343.111414 294.962172 
L 344.197215 295.12536 
L 345.283016 295.016568 
L 346.368817 295.197888 
L 347.454618 294.998436 
L 352.883624 295.30668 
L 353.969425 295.234152 
L 355.055227 295.288548 
L 356.141028 294.889644 
L 357.226829 295.179756 
L 359.398431 295.21602 
L 360.484232 295.0347 
L 361.570033 295.143492 
L 364.827437 295.107228 
L 365.913238 295.197888 
L 366.999039 295.016568 
L 371.342244 294.998436 
L 372.428045 295.252284 
L 373.513846 295.252284 
L 374.599647 294.980304 
L 375.685448 295.324812 
L 376.77125 295.21602 
L 377.857051 295.379208 
L 380.028653 295.052832 
L 381.114454 295.234152 
L 386.54346 295.016568 
L 387.629261 295.252284 
L 388.715062 294.998436 
L 389.800863 294.980304 
L 390.886665 295.161624 
L 391.972466 295.016568 
L 393.058267 295.30668 
L 394.144068 295.161624 
L 395.229869 295.361076 
L 396.31567 295.161624 
L 397.401472 295.270416 
L 398.487273 295.252284 
L 398.487273 295.252284 
" clip-path="url(#pccd709cff5)" style="fill: none; stroke: #2ca02c; stroke-width: 1.5; stroke-linecap: square"/>
   </g>
   <g id="line2d_19">
    <path d="M 368.08484 105.15828 
L 369.170642 105.316029 
L 371.342244 108.576161 
L 372.428045 108.497287 
L 373.513846 108.129207 
L 374.599647 107.287883 
L 375.685448 108.865366 
L 376.77125 108.418413 
L 377.857051 109.417486 
L 378.942852 111.468214 
L 380.028653 110.469141 
L 381.114454 109.785565 
L 382.200255 109.548943 
L 383.286057 111.468214 
L 384.371858 108.891658 
L 385.457659 110.600598 
L 386.54346 110.758346 
L 387.629261 112.204373 
L 389.800863 112.15179 
L 390.886665 111.02126 
L 391.972466 113.150863 
L 393.058267 113.203446 
L 394.144068 114.22881 
L 395.229869 114.307684 
L 396.31567 113.28232 
L 397.401472 116.095499 
L 398.487273 116.30583 
L 398.487273 116.30583 
" clip-path="url(#pccd709cff5)" style="fill: none; stroke: #d62728; stroke-width: 1.5; stroke-linecap: square"/>
   </g>
   <g id="line2d_20">
    <path d="M 368.08484 295.016568 
L 369.170642 295.288548 
L 371.342244 295.197888 
L 372.428045 295.30668 
L 373.513846 294.726456 
M 375.685448 294.871512 
L 376.77125 294.708324 
L 377.857051 294.998436 
L 378.942852 294.925908 
L 380.028653 295.143492 
L 381.114454 295.197888 
L 382.200255 294.889644 
L 383.286057 295.252284 
L 384.371858 294.635796 
L 385.457659 294.94404 
L 386.54346 295.089096 
L 387.629261 295.016568 
L 388.715062 295.070964 
L 390.886665 294.85338 
L 391.972466 294.980304 
L 397.401472 294.962172 
L 398.487273 294.690192 
L 398.487273 294.690192 
" clip-path="url(#pccd709cff5)" style="fill: none; stroke: #9467bd; stroke-width: 1.5; stroke-linecap: square"/>
   </g>
   <g id="patch_3">
    <path d="M 57.6 307.584 
L 57.6 41.472 
" style="fill: none; stroke: #000000; stroke-width: 0.8; stroke-linejoin: miter; stroke-linecap: square"/>
   </g>
   <g id="patch_4">
    <path d="M 414.72 307.584 
L 414.72 41.472 
" style="fill: none; stroke: #000000; stroke-width: 0.8; stroke-linejoin: miter; stroke-linecap: square"/>
   </g>
   <g id="patch_5">
    <path d="M 57.6 307.584 
L 414.72 307.584 
" style="fill: none; stroke: #000000; stroke-width: 0.8; stroke-linejoin: miter; stroke-linecap: square"/>
   </g>
   <g id="patch_6">
    <path d="M 57.6 41.472 
L 414.72 41.472 
" style="fill: none; stroke: #000000; stroke-width: 0.8; stroke-linejoin: miter; stroke-linecap: square"/>
   </g>
   <g id="text_18">
    <!-- Learning Curves -->
    <g transform="translate(187.37625 35.472) scale(0.12 -0.12)">
     <defs>
      <path id="DejaVuSans-4c" d="M 628 4666 
L 1259 4666 
L 1259 531 
L 3531 531 
L 3531 0 
L 628 0 
L 628 4666 
z
" transform="scale(0.015625)"/>
      <path id="DejaVuSans-65" d="M 3597 1894 
L 3597 1613 
L 953 1613 
Q 991 1019 1311 708 
Q 1631 397 2203 397 
Q 2534 397 2845 478 
Q 3156 559 3463 722 
L 3463 178 
Q 3153 47 2828 -22 
Q 2503 -91 2169 -91 
Q 1331 -91 842 396 
Q 353 884 353 1716 
Q 353 2575 817 3079 
Q 1281 3584 2069 3584 
Q 2775 3584 3186 3129 
Q 3597 2675 3597 1894 
z
M 3022 2063 
Q 3016 2534 2758 2815 
Q 2500 3097 2075 3097 
Q 1594 3097 1305 2825 
Q 1016 2553 972 2059 
L 3022 2063 
z
" transform="scale(0.015625)"/>
      <path id="DejaVuSans-6e" d="M 3513 2113 
L 3513 0 
L 2938 0 
L 2938 2094 
Q 2938 2591 2744 2837 
Q 2550 3084 2163 3084 
Q 1697 3084 1428 2787 
Q 1159 2491 1159 1978 
L 1159 0 
L 581 0 
L 581 3500 
L 1159 3500 
L 1159 2956 
Q 1366 3272 1645 3428 
Q 1925 3584 2291 3584 
Q 2894 3584 3203 3211 
Q 3513 2838 3513 2113 
z
" transform="scale(0.015625)"/>
      <path id="DejaVuSans-69" d="M 603 3500 
L 1178 3500 
L 1178 0 
L 603 0 
L 603 3500 
z
M 603 4863 
L 1178 4863 
L 1178 4134 
L 603 4134 
L 603 4863 
z
" transform="scale(0.015625)"/>
      <path id="DejaVuSans-67" d="M 2906 1791 
Q 2906 2416 2648 2759 
Q 2391 3103 1925 3103 
Q 1463 3103 1205 2759 
Q 947 2416 947 1791 
Q 947 1169 1205 825 
Q 1463 481 1925 481 
Q 2391 481 2648 825 
Q 2906 1169 2906 1791 
z
M 3481 434 
Q 3481 -459 3084 -895 
Q 2688 -1331 1869 -1331 
Q 1566 -1331 1297 -1286 
Q 1028 -1241 775 -1147 
L 775 -588 
Q 1028 -725 1275 -790 
Q 1522 -856 1778 -856 
Q 2344 -856 2625 -561 
Q 2906 -266 2906 331 
L 2906 616 
Q 2728 306 2450 153 
Q 2172 0 1784 0 
Q 1141 0 747 490 
Q 353 981 353 1791 
Q 353 2603 747 3093 
Q 1141 3584 1784 3584 
Q 2172 3584 2450 3431 
Q 2728 3278 2906 2969 
L 2906 3500 
L 3481 3500 
L 3481 434 
z
" transform="scale(0.015625)"/>
      <path id="DejaVuSans-20" transform="scale(0.015625)"/>
      <path id="DejaVuSans-43" d="M 4122 4306 
L 4122 3641 
Q 3803 3938 3442 4084 
Q 3081 4231 2675 4231 
Q 1875 4231 1450 3742 
Q 1025 3253 1025 2328 
Q 1025 1406 1450 917 
Q 1875 428 2675 428 
Q 3081 428 3442 575 
Q 3803 722 4122 1019 
L 4122 359 
Q 3791 134 3420 21 
Q 3050 -91 2638 -91 
Q 1578 -91 968 557 
Q 359 1206 359 2328 
Q 359 3453 968 4101 
Q 1578 4750 2638 4750 
Q 3056 4750 3426 4639 
Q 3797 4528 4122 4306 
z
" transform="scale(0.015625)"/>
      <path id="DejaVuSans-76" d="M 191 3500 
L 800 3500 
L 1894 563 
L 2988 3500 
L 3597 3500 
L 2284 0 
L 1503 0 
L 191 3500 
z
" transform="scale(0.015625)"/>
     </defs>
     <use xlink:href="#DejaVuSans-4c"/>
     <use xlink:href="#DejaVuSans-65" x="53.962891"/>
     <use xlink:href="#DejaVuSans-61" x="115.486328"/>
     <use xlink:href="#DejaVuSans-72" x="176.765625"/>
     <use xlink:href="#DejaVuSans-6e" x="216.128906"/>
     <use xlink:href="#DejaVuSans-69" x="279.507812"/>
     <use xlink:href="#DejaVuSans-6e" x="307.291016"/>
     <use xlink:href="#DejaVuSans-67" x="370.669922"/>
     <use xlink:href="#DejaVuSans-20" x="434.146484"/>
     <use xlink:href="#DejaVuSans-43" x="465.933594"/>
     <use xlink:href="#DejaVuSans-75" x="535.757812"/>
     <use xlink:href="#DejaVuSans-72" x="599.136719"/>
     <use xlink:href="#DejaVuSans-76" x="640.25"/>
     <use xlink:href="#DejaVuSans-65" x="699.429688"/>
     <use xlink:href="#DejaVuSans-73" x="760.953125"/>
    </g>
   </g>
   <g id="legend_1">
    <g id="patch_7">
     <path d="M 214.18875 212.723313 
L 407.72 212.723313 
Q 409.72 212.723313 409.72 210.723313 
L 409.72 138.332688 
Q 409.72 136.332688 407.72 136.332688 
L 214.18875 136.332688 
Q 212.18875 136.332688 212.18875 138.332688 
L 212.18875 210.723313 
Q 212.18875 212.723313 214.18875 212.723313 
z
" style="fill: #ffffff; opacity: 0.8; stroke: #cccccc; stroke-linejoin: miter"/>
    </g>
    <g id="line2d_21">
     <path d="M 216.18875 144.431125 
L 226.18875 144.431125 
L 236.18875 144.431125 
" style="fill: none; stroke: #1f77b4; stroke-width: 1.5; stroke-linecap: square"/>
    </g>
    <g id="text_19">
     <!-- Train Accuracy -->
     <g transform="translate(244.18875 147.931125) scale(0.1 -0.1)">
      <defs>
       <path id="DejaVuSans-54" d="M -19 4666 
L 3928 4666 
L 3928 4134 
L 2272 4134 
L 2272 0 
L 1638 0 
L 1638 4134 
L -19 4134 
L -19 4666 
z
" transform="scale(0.015625)"/>
      </defs>
      <use xlink:href="#DejaVuSans-54"/>
      <use xlink:href="#DejaVuSans-72" x="46.333984"/>
      <use xlink:href="#DejaVuSans-61" x="87.447266"/>
      <use xlink:href="#DejaVuSans-69" x="148.726562"/>
      <use xlink:href="#DejaVuSans-6e" x="176.509766"/>
      <use xlink:href="#DejaVuSans-20" x="239.888672"/>
      <use xlink:href="#DejaVuSans-41" x="271.675781"/>
      <use xlink:href="#DejaVuSans-63" x="338.333984"/>
      <use xlink:href="#DejaVuSans-63" x="393.314453"/>
      <use xlink:href="#DejaVuSans-75" x="448.294922"/>
      <use xlink:href="#DejaVuSans-72" x="511.673828"/>
      <use xlink:href="#DejaVuSans-61" x="552.787109"/>
      <use xlink:href="#DejaVuSans-63" x="614.066406"/>
      <use xlink:href="#DejaVuSans-79" x="669.046875"/>
     </g>
    </g>
    <g id="line2d_22">
     <path d="M 216.18875 159.10925 
L 226.18875 159.10925 
L 236.18875 159.10925 
" style="fill: none; stroke: #ff7f0e; stroke-width: 1.5; stroke-linecap: square"/>
    </g>
    <g id="text_20">
     <!-- Validation Accuracy -->
     <g transform="translate(244.18875 162.60925) scale(0.1 -0.1)">
      <defs>
       <path id="DejaVuSans-56" d="M 1831 0 
L 50 4666 
L 709 4666 
L 2188 738 
L 3669 4666 
L 4325 4666 
L 2547 0 
L 1831 0 
z
" transform="scale(0.015625)"/>
       <path id="DejaVuSans-6c" d="M 603 4863 
L 1178 4863 
L 1178 0 
L 603 0 
L 603 4863 
z
" transform="scale(0.015625)"/>
       <path id="DejaVuSans-64" d="M 2906 2969 
L 2906 4863 
L 3481 4863 
L 3481 0 
L 2906 0 
L 2906 525 
Q 2725 213 2448 61 
Q 2172 -91 1784 -91 
Q 1150 -91 751 415 
Q 353 922 353 1747 
Q 353 2572 751 3078 
Q 1150 3584 1784 3584 
Q 2172 3584 2448 3432 
Q 2725 3281 2906 2969 
z
M 947 1747 
Q 947 1113 1208 752 
Q 1469 391 1925 391 
Q 2381 391 2643 752 
Q 2906 1113 2906 1747 
Q 2906 2381 2643 2742 
Q 2381 3103 1925 3103 
Q 1469 3103 1208 2742 
Q 947 2381 947 1747 
z
" transform="scale(0.015625)"/>
       <path id="DejaVuSans-74" d="M 1172 4494 
L 1172 3500 
L 2356 3500 
L 2356 3053 
L 1172 3053 
L 1172 1153 
Q 1172 725 1289 603 
Q 1406 481 1766 481 
L 2356 481 
L 2356 0 
L 1766 0 
Q 1100 0 847 248 
Q 594 497 594 1153 
L 594 3053 
L 172 3053 
L 172 3500 
L 594 3500 
L 594 4494 
L 1172 4494 
z
" transform="scale(0.015625)"/>
      </defs>
      <use xlink:href="#DejaVuSans-56"/>
      <use xlink:href="#DejaVuSans-61" x="60.658203"/>
      <use xlink:href="#DejaVuSans-6c" x="121.9375"/>
      <use xlink:href="#DejaVuSans-69" x="149.720703"/>
      <use xlink:href="#DejaVuSans-64" x="177.503906"/>
      <use xlink:href="#DejaVuSans-61" x="240.980469"/>
      <use xlink:href="#DejaVuSans-74" x="302.259766"/>
      <use xlink:href="#DejaVuSans-69" x="341.46875"/>
      <use xlink:href="#DejaVuSans-6f" x="369.251953"/>
      <use xlink:href="#DejaVuSans-6e" x="430.433594"/>
      <use xlink:href="#DejaVuSans-20" x="493.8125"/>
      <use xlink:href="#DejaVuSans-41" x="525.599609"/>
      <use xlink:href="#DejaVuSans-63" x="592.257812"/>
      <use xlink:href="#DejaVuSans-63" x="647.238281"/>
      <use xlink:href="#DejaVuSans-75" x="702.21875"/>
      <use xlink:href="#DejaVuSans-72" x="765.597656"/>
      <use xlink:href="#DejaVuSans-61" x="806.710938"/>
      <use xlink:href="#DejaVuSans-63" x="867.990234"/>
      <use xlink:href="#DejaVuSans-79" x="922.970703"/>
     </g>
    </g>
    <g id="line2d_23">
     <path d="M 216.18875 173.787375 
L 226.18875 173.787375 
L 236.18875 173.787375 
" style="fill: none; stroke: #2ca02c; stroke-width: 1.5; stroke-linecap: square"/>
    </g>
    <g id="text_21">
     <!-- Robust Validation Accuracy -->
     <g transform="translate(244.18875 177.287375) scale(0.1 -0.1)">
      <defs>
       <path id="DejaVuSans-52" d="M 2841 2188 
Q 3044 2119 3236 1894 
Q 3428 1669 3622 1275 
L 4263 0 
L 3584 0 
L 2988 1197 
Q 2756 1666 2539 1819 
Q 2322 1972 1947 1972 
L 1259 1972 
L 1259 0 
L 628 0 
L 628 4666 
L 2053 4666 
Q 2853 4666 3247 4331 
Q 3641 3997 3641 3322 
Q 3641 2881 3436 2590 
Q 3231 2300 2841 2188 
z
M 1259 4147 
L 1259 2491 
L 2053 2491 
Q 2509 2491 2742 2702 
Q 2975 2913 2975 3322 
Q 2975 3731 2742 3939 
Q 2509 4147 2053 4147 
L 1259 4147 
z
" transform="scale(0.015625)"/>
       <path id="DejaVuSans-62" d="M 3116 1747 
Q 3116 2381 2855 2742 
Q 2594 3103 2138 3103 
Q 1681 3103 1420 2742 
Q 1159 2381 1159 1747 
Q 1159 1113 1420 752 
Q 1681 391 2138 391 
Q 2594 391 2855 752 
Q 3116 1113 3116 1747 
z
M 1159 2969 
Q 1341 3281 1617 3432 
Q 1894 3584 2278 3584 
Q 2916 3584 3314 3078 
Q 3713 2572 3713 1747 
Q 3713 922 3314 415 
Q 2916 -91 2278 -91 
Q 1894 -91 1617 61 
Q 1341 213 1159 525 
L 1159 0 
L 581 0 
L 581 4863 
L 1159 4863 
L 1159 2969 
z
" transform="scale(0.015625)"/>
      </defs>
      <use xlink:href="#DejaVuSans-52"/>
      <use xlink:href="#DejaVuSans-6f" x="64.982422"/>
      <use xlink:href="#DejaVuSans-62" x="126.164062"/>
      <use xlink:href="#DejaVuSans-75" x="189.640625"/>
      <use xlink:href="#DejaVuSans-73" x="253.019531"/>
      <use xlink:href="#DejaVuSans-74" x="305.119141"/>
      <use xlink:href="#DejaVuSans-20" x="344.328125"/>
      <use xlink:href="#DejaVuSans-56" x="376.115234"/>
      <use xlink:href="#DejaVuSans-61" x="436.773438"/>
      <use xlink:href="#DejaVuSans-6c" x="498.052734"/>
      <use xlink:href="#DejaVuSans-69" x="525.835938"/>
      <use xlink:href="#DejaVuSans-64" x="553.619141"/>
      <use xlink:href="#DejaVuSans-61" x="617.095703"/>
      <use xlink:href="#DejaVuSans-74" x="678.375"/>
      <use xlink:href="#DejaVuSans-69" x="717.583984"/>
      <use xlink:href="#DejaVuSans-6f" x="745.367188"/>
      <use xlink:href="#DejaVuSans-6e" x="806.548828"/>
      <use xlink:href="#DejaVuSans-20" x="869.927734"/>
      <use xlink:href="#DejaVuSans-41" x="901.714844"/>
      <use xlink:href="#DejaVuSans-63" x="968.373047"/>
      <use xlink:href="#DejaVuSans-63" x="1023.353516"/>
      <use xlink:href="#DejaVuSans-75" x="1078.333984"/>
      <use xlink:href="#DejaVuSans-72" x="1141.712891"/>
      <use xlink:href="#DejaVuSans-61" x="1182.826172"/>
      <use xlink:href="#DejaVuSans-63" x="1244.105469"/>
      <use xlink:href="#DejaVuSans-79" x="1299.085938"/>
     </g>
    </g>
    <g id="line2d_24">
     <path d="M 216.18875 188.4655 
L 226.18875 188.4655 
L 236.18875 188.4655 
" style="fill: none; stroke: #d62728; stroke-width: 1.5; stroke-linecap: square"/>
    </g>
    <g id="text_22">
     <!-- SWA Validation Accuracy -->
     <g transform="translate(244.18875 191.9655) scale(0.1 -0.1)">
      <defs>
       <path id="DejaVuSans-53" d="M 3425 4513 
L 3425 3897 
Q 3066 4069 2747 4153 
Q 2428 4238 2131 4238 
Q 1616 4238 1336 4038 
Q 1056 3838 1056 3469 
Q 1056 3159 1242 3001 
Q 1428 2844 1947 2747 
L 2328 2669 
Q 3034 2534 3370 2195 
Q 3706 1856 3706 1288 
Q 3706 609 3251 259 
Q 2797 -91 1919 -91 
Q 1588 -91 1214 -16 
Q 841 59 441 206 
L 441 856 
Q 825 641 1194 531 
Q 1563 422 1919 422 
Q 2459 422 2753 634 
Q 3047 847 3047 1241 
Q 3047 1584 2836 1778 
Q 2625 1972 2144 2069 
L 1759 2144 
Q 1053 2284 737 2584 
Q 422 2884 422 3419 
Q 422 4038 858 4394 
Q 1294 4750 2059 4750 
Q 2388 4750 2728 4690 
Q 3069 4631 3425 4513 
z
" transform="scale(0.015625)"/>
       <path id="DejaVuSans-57" d="M 213 4666 
L 850 4666 
L 1831 722 
L 2809 4666 
L 3519 4666 
L 4500 722 
L 5478 4666 
L 6119 4666 
L 4947 0 
L 4153 0 
L 3169 4050 
L 2175 0 
L 1381 0 
L 213 4666 
z
" transform="scale(0.015625)"/>
      </defs>
      <use xlink:href="#DejaVuSans-53"/>
      <use xlink:href="#DejaVuSans-57" x="63.476562"/>
      <use xlink:href="#DejaVuSans-41" x="156.853516"/>
      <use xlink:href="#DejaVuSans-20" x="225.261719"/>
      <use xlink:href="#DejaVuSans-56" x="257.048828"/>
      <use xlink:href="#DejaVuSans-61" x="317.707031"/>
      <use xlink:href="#DejaVuSans-6c" x="378.986328"/>
      <use xlink:href="#DejaVuSans-69" x="406.769531"/>
      <use xlink:href="#DejaVuSans-64" x="434.552734"/>
      <use xlink:href="#DejaVuSans-61" x="498.029297"/>
      <use xlink:href="#DejaVuSans-74" x="559.308594"/>
      <use xlink:href="#DejaVuSans-69" x="598.517578"/>
      <use xlink:href="#DejaVuSans-6f" x="626.300781"/>
      <use xlink:href="#DejaVuSans-6e" x="687.482422"/>
      <use xlink:href="#DejaVuSans-20" x="750.861328"/>
      <use xlink:href="#DejaVuSans-41" x="782.648438"/>
      <use xlink:href="#DejaVuSans-63" x="849.306641"/>
      <use xlink:href="#DejaVuSans-63" x="904.287109"/>
      <use xlink:href="#DejaVuSans-75" x="959.267578"/>
      <use xlink:href="#DejaVuSans-72" x="1022.646484"/>
      <use xlink:href="#DejaVuSans-61" x="1063.759766"/>
      <use xlink:href="#DejaVuSans-63" x="1125.039062"/>
      <use xlink:href="#DejaVuSans-79" x="1180.019531"/>
     </g>
    </g>
    <g id="line2d_25">
     <path d="M 216.18875 203.143625 
L 226.18875 203.143625 
L 236.18875 203.143625 
" style="fill: none; stroke: #9467bd; stroke-width: 1.5; stroke-linecap: square"/>
    </g>
    <g id="text_23">
     <!-- SWA Robust Validation Accuracy -->
     <g transform="translate(244.18875 206.643625) scale(0.1 -0.1)">
      <use xlink:href="#DejaVuSans-53"/>
      <use xlink:href="#DejaVuSans-57" x="63.476562"/>
      <use xlink:href="#DejaVuSans-41" x="156.853516"/>
      <use xlink:href="#DejaVuSans-20" x="225.261719"/>
      <use xlink:href="#DejaVuSans-52" x="257.048828"/>
      <use xlink:href="#DejaVuSans-6f" x="322.03125"/>
      <use xlink:href="#DejaVuSans-62" x="383.212891"/>
      <use xlink:href="#DejaVuSans-75" x="446.689453"/>
      <use xlink:href="#DejaVuSans-73" x="510.068359"/>
      <use xlink:href="#DejaVuSans-74" x="562.167969"/>
      <use xlink:href="#DejaVuSans-20" x="601.376953"/>
      <use xlink:href="#DejaVuSans-56" x="633.164062"/>
      <use xlink:href="#DejaVuSans-61" x="693.822266"/>
      <use xlink:href="#DejaVuSans-6c" x="755.101562"/>
      <use xlink:href="#DejaVuSans-69" x="782.884766"/>
      <use xlink:href="#DejaVuSans-64" x="810.667969"/>
      <use xlink:href="#DejaVuSans-61" x="874.144531"/>
      <use xlink:href="#DejaVuSans-74" x="935.423828"/>
      <use xlink:href="#DejaVuSans-69" x="974.632812"/>
      <use xlink:href="#DejaVuSans-6f" x="1002.416016"/>
      <use xlink:href="#DejaVuSans-6e" x="1063.597656"/>
      <use xlink:href="#DejaVuSans-20" x="1126.976562"/>
      <use xlink:href="#DejaVuSans-41" x="1158.763672"/>
      <use xlink:href="#DejaVuSans-63" x="1225.421875"/>
      <use xlink:href="#DejaVuSans-63" x="1280.402344"/>
      <use xlink:href="#DejaVuSans-75" x="1335.382812"/>
      <use xlink:href="#DejaVuSans-72" x="1398.761719"/>
      <use xlink:href="#DejaVuSans-61" x="1439.875"/>
      <use xlink:href="#DejaVuSans-63" x="1501.154297"/>
      <use xlink:href="#DejaVuSans-79" x="1556.134766"/>
     </g>
    </g>
   </g>
  </g>
 </g>
 <defs>
  <clipPath id="pccd709cff5">
   <rect x="57.6" y="41.472" width="357.12" height="266.112"/>
  </clipPath>
 </defs>
</svg>
