<?xml version="1.0" encoding="utf-8" standalone="no"?>
<!DOCTYPE svg PUBLIC "-//W3C//DTD SVG 1.1//EN"
  "http://www.w3.org/Graphics/SVG/1.1/DTD/svg11.dtd">
<svg xmlns:xlink="http://www.w3.org/1999/xlink" width="460.8pt" height="345.6pt" viewBox="0 0 460.8 345.6" xmlns="http://www.w3.org/2000/svg" version="1.1">
 <metadata>
  <rdf:RDF xmlns:dc="http://purl.org/dc/elements/1.1/" xmlns:cc="http://creativecommons.org/ns#" xmlns:rdf="http://www.w3.org/1999/02/22-rdf-syntax-ns#">
   <cc:Work>
    <dc:type rdf:resource="http://purl.org/dc/dcmitype/StillImage"/>
    <dc:date>2025-10-14T10:52:02.791409</dc:date>
    <dc:format>image/svg+xml</dc:format>
    <dc:creator>
     <cc:Agent>
      <dc:title>Matplotlib v3.9.1, https://matplotlib.org/</dc:title>
     </cc:Agent>
    </dc:creator>
   </cc:Work>
  </rdf:RDF>
 </metadata>
 <defs>
  <style type="text/css">*{stroke-linejoin: round; stroke-linecap: butt}</style>
 </defs>
 <g id="figure_1">
  <g id="patch_1">
   <path d="M 0 345.6 
L 460.8 345.6 
L 460.8 0 
L 0 0 
z
" style="fill: #ffffff"/>
  </g>
  <g id="axes_1">
   <g id="patch_2">
    <path d="M 57.6 307.584 
L 414.72 307.584 
L 414.72 41.472 
L 57.6 41.472 
z
" style="fill: #ffffff"/>
   </g>
   <g id="matplotlib.axis_1">
    <g id="xtick_1">
     <g id="line2d_1">
      <defs>
       <path id="md4f40ceb51" d="M 0 0 
L 0 3.5 
" style="stroke: #000000; stroke-width: 0.8"/>
      </defs>
      <g>
       <use xlink:href="#md4f40ceb51" x="73.832727" y="307.584" style="stroke: #000000; stroke-width: 0.8"/>
      </g>
     </g>
     <g id="text_1">
      <!-- 1 -->
      <g transform="translate(70.651477 322.182437) scale(0.1 -0.1)">
       <defs>
        <path id="DejaVuSans-31" d="M 794 531 
L 1825 531 
L 1825 4091 
L 703 3866 
L 703 4441 
L 1819 4666 
L 2450 4666 
L 2450 531 
L 3481 531 
L 3481 0 
L 794 0 
L 794 531 
z
" transform="scale(0.015625)"/>
       </defs>
       <use xlink:href="#DejaVuSans-31"/>
      </g>
     </g>
    </g>
    <g id="xtick_2">
     <g id="line2d_2">
      <g>
       <use xlink:href="#md4f40ceb51" x="109.664165" y="307.584" style="stroke: #000000; stroke-width: 0.8"/>
      </g>
     </g>
     <g id="text_2">
      <!-- 34 -->
      <g transform="translate(103.301665 322.182437) scale(0.1 -0.1)">
       <defs>
        <path id="DejaVuSans-33" d="M 2597 2516 
Q 3050 2419 3304 2112 
Q 3559 1806 3559 1356 
Q 3559 666 3084 287 
Q 2609 -91 1734 -91 
Q 1441 -91 1130 -33 
Q 819 25 488 141 
L 488 750 
Q 750 597 1062 519 
Q 1375 441 1716 441 
Q 2309 441 2620 675 
Q 2931 909 2931 1356 
Q 2931 1769 2642 2001 
Q 2353 2234 1838 2234 
L 1294 2234 
L 1294 2753 
L 1863 2753 
Q 2328 2753 2575 2939 
Q 2822 3125 2822 3475 
Q 2822 3834 2567 4026 
Q 2313 4219 1838 4219 
Q 1578 4219 1281 4162 
Q 984 4106 628 3988 
L 628 4550 
Q 988 4650 1302 4700 
Q 1616 4750 1894 4750 
Q 2613 4750 3031 4423 
Q 3450 4097 3450 3541 
Q 3450 3153 3228 2886 
Q 3006 2619 2597 2516 
z
" transform="scale(0.015625)"/>
        <path id="DejaVuSans-34" d="M 2419 4116 
L 825 1625 
L 2419 1625 
L 2419 4116 
z
M 2253 4666 
L 3047 4666 
L 3047 1625 
L 3713 1625 
L 3713 1100 
L 3047 1100 
L 3047 0 
L 2419 0 
L 2419 1100 
L 313 1100 
L 313 1709 
L 2253 4666 
z
" transform="scale(0.015625)"/>
       </defs>
       <use xlink:href="#DejaVuSans-33"/>
       <use xlink:href="#DejaVuSans-34" x="63.623047"/>
      </g>
     </g>
    </g>
    <g id="xtick_3">
     <g id="line2d_3">
      <g>
       <use xlink:href="#md4f40ceb51" x="145.495604" y="307.584" style="stroke: #000000; stroke-width: 0.8"/>
      </g>
     </g>
     <g id="text_3">
      <!-- 67 -->
      <g transform="translate(139.133104 322.182437) scale(0.1 -0.1)">
       <defs>
        <path id="DejaVuSans-36" d="M 2113 2584 
Q 1688 2584 1439 2293 
Q 1191 2003 1191 1497 
Q 1191 994 1439 701 
Q 1688 409 2113 409 
Q 2538 409 2786 701 
Q 3034 994 3034 1497 
Q 3034 2003 2786 2293 
Q 2538 2584 2113 2584 
z
M 3366 4563 
L 3366 3988 
Q 3128 4100 2886 4159 
Q 2644 4219 2406 4219 
Q 1781 4219 1451 3797 
Q 1122 3375 1075 2522 
Q 1259 2794 1537 2939 
Q 1816 3084 2150 3084 
Q 2853 3084 3261 2657 
Q 3669 2231 3669 1497 
Q 3669 778 3244 343 
Q 2819 -91 2113 -91 
Q 1303 -91 875 529 
Q 447 1150 447 2328 
Q 447 3434 972 4092 
Q 1497 4750 2381 4750 
Q 2619 4750 2861 4703 
Q 3103 4656 3366 4563 
z
" transform="scale(0.015625)"/>
        <path id="DejaVuSans-37" d="M 525 4666 
L 3525 4666 
L 3525 4397 
L 1831 0 
L 1172 0 
L 2766 4134 
L 525 4134 
L 525 4666 
z
" transform="scale(0.015625)"/>
       </defs>
       <use xlink:href="#DejaVuSans-36"/>
       <use xlink:href="#DejaVuSans-37" x="63.623047"/>
      </g>
     </g>
    </g>
    <g id="xtick_4">
     <g id="line2d_4">
      <g>
       <use xlink:href="#md4f40ceb51" x="181.327042" y="307.584" style="stroke: #000000; stroke-width: 0.8"/>
      </g>
     </g>
     <g id="text_4">
      <!-- 100 -->
      <g transform="translate(171.783292 322.182437) scale(0.1 -0.1)">
       <defs>
        <path id="DejaVuSans-30" d="M 2034 4250 
Q 1547 4250 1301 3770 
Q 1056 3291 1056 2328 
Q 1056 1369 1301 889 
Q 1547 409 2034 409 
Q 2525 409 2770 889 
Q 3016 1369 3016 2328 
Q 3016 3291 2770 3770 
Q 2525 4250 2034 4250 
z
M 2034 4750 
Q 2819 4750 3233 4129 
Q 3647 3509 3647 2328 
Q 3647 1150 3233 529 
Q 2819 -91 2034 -91 
Q 1250 -91 836 529 
Q 422 1150 422 2328 
Q 422 3509 836 4129 
Q 1250 4750 2034 4750 
z
" transform="scale(0.015625)"/>
       </defs>
       <use xlink:href="#DejaVuSans-31"/>
       <use xlink:href="#DejaVuSans-30" x="63.623047"/>
       <use xlink:href="#DejaVuSans-30" x="127.246094"/>
      </g>
     </g>
    </g>
    <g id="xtick_5">
     <g id="line2d_5">
      <g>
       <use xlink:href="#md4f40ceb51" x="217.15848" y="307.584" style="stroke: #000000; stroke-width: 0.8"/>
      </g>
     </g>
     <g id="text_5">
      <!-- 133 -->
      <g transform="translate(207.61473 322.182437) scale(0.1 -0.1)">
       <use xlink:href="#DejaVuSans-31"/>
       <use xlink:href="#DejaVuSans-33" x="63.623047"/>
       <use xlink:href="#DejaVuSans-33" x="127.246094"/>
      </g>
     </g>
    </g>
    <g id="xtick_6">
     <g id="line2d_6">
      <g>
       <use xlink:href="#md4f40ceb51" x="254.075719" y="307.584" style="stroke: #000000; stroke-width: 0.8"/>
      </g>
     </g>
     <g id="text_6">
      <!-- 167 -->
      <g transform="translate(244.531969 322.182437) scale(0.1 -0.1)">
       <use xlink:href="#DejaVuSans-31"/>
       <use xlink:href="#DejaVuSans-36" x="63.623047"/>
       <use xlink:href="#DejaVuSans-37" x="127.246094"/>
      </g>
     </g>
    </g>
    <g id="xtick_7">
     <g id="line2d_7">
      <g>
       <use xlink:href="#md4f40ceb51" x="289.907157" y="307.584" style="stroke: #000000; stroke-width: 0.8"/>
      </g>
     </g>
     <g id="text_7">
      <!-- 200 -->
      <g transform="translate(280.363407 322.182437) scale(0.1 -0.1)">
       <defs>
        <path id="DejaVuSans-32" d="M 1228 531 
L 3431 531 
L 3431 0 
L 469 0 
L 469 531 
Q 828 903 1448 1529 
Q 2069 2156 2228 2338 
Q 2531 2678 2651 2914 
Q 2772 3150 2772 3378 
Q 2772 3750 2511 3984 
Q 2250 4219 1831 4219 
Q 1534 4219 1204 4116 
Q 875 4013 500 3803 
L 500 4441 
Q 881 4594 1212 4672 
Q 1544 4750 1819 4750 
Q 2544 4750 2975 4387 
Q 3406 4025 3406 3419 
Q 3406 3131 3298 2873 
Q 3191 2616 2906 2266 
Q 2828 2175 2409 1742 
Q 1991 1309 1228 531 
z
" transform="scale(0.015625)"/>
       </defs>
       <use xlink:href="#DejaVuSans-32"/>
       <use xlink:href="#DejaVuSans-30" x="63.623047"/>
       <use xlink:href="#DejaVuSans-30" x="127.246094"/>
      </g>
     </g>
    </g>
    <g id="xtick_8">
     <g id="line2d_8">
      <g>
       <use xlink:href="#md4f40ceb51" x="325.738595" y="307.584" style="stroke: #000000; stroke-width: 0.8"/>
      </g>
     </g>
     <g id="text_8">
      <!-- 233 -->
      <g transform="translate(316.194845 322.182437) scale(0.1 -0.1)">
       <use xlink:href="#DejaVuSans-32"/>
       <use xlink:href="#DejaVuSans-33" x="63.623047"/>
       <use xlink:href="#DejaVuSans-33" x="127.246094"/>
      </g>
     </g>
    </g>
    <g id="xtick_9">
     <g id="line2d_9">
      <g>
       <use xlink:href="#md4f40ceb51" x="361.570033" y="307.584" style="stroke: #000000; stroke-width: 0.8"/>
      </g>
     </g>
     <g id="text_9">
      <!-- 266 -->
      <g transform="translate(352.026283 322.182437) scale(0.1 -0.1)">
       <use xlink:href="#DejaVuSans-32"/>
       <use xlink:href="#DejaVuSans-36" x="63.623047"/>
       <use xlink:href="#DejaVuSans-36" x="127.246094"/>
      </g>
     </g>
    </g>
    <g id="xtick_10">
     <g id="line2d_10">
      <g>
       <use xlink:href="#md4f40ceb51" x="398.487273" y="307.584" style="stroke: #000000; stroke-width: 0.8"/>
      </g>
     </g>
     <g id="text_10">
      <!-- 300 -->
      <g transform="translate(388.943523 322.182437) scale(0.1 -0.1)">
       <use xlink:href="#DejaVuSans-33"/>
       <use xlink:href="#DejaVuSans-30" x="63.623047"/>
       <use xlink:href="#DejaVuSans-30" x="127.246094"/>
      </g>
     </g>
    </g>
    <g id="text_11">
     <!-- Epochs -->
     <g transform="translate(218.244375 335.860562) scale(0.1 -0.1)">
      <defs>
       <path id="DejaVuSans-45" d="M 628 4666 
L 3578 4666 
L 3578 4134 
L 1259 4134 
L 1259 2753 
L 3481 2753 
L 3481 2222 
L 1259 2222 
L 1259 531 
L 3634 531 
L 3634 0 
L 628 0 
L 628 4666 
z
" transform="scale(0.015625)"/>
       <path id="DejaVuSans-70" d="M 1159 525 
L 1159 -1331 
L 581 -1331 
L 581 3500 
L 1159 3500 
L 1159 2969 
Q 1341 3281 1617 3432 
Q 1894 3584 2278 3584 
Q 2916 3584 3314 3078 
Q 3713 2572 3713 1747 
Q 3713 922 3314 415 
Q 2916 -91 2278 -91 
Q 1894 -91 1617 61 
Q 1341 213 1159 525 
z
M 3116 1747 
Q 3116 2381 2855 2742 
Q 2594 3103 2138 3103 
Q 1681 3103 1420 2742 
Q 1159 2381 1159 1747 
Q 1159 1113 1420 752 
Q 1681 391 2138 391 
Q 2594 391 2855 752 
Q 3116 1113 3116 1747 
z
" transform="scale(0.015625)"/>
       <path id="DejaVuSans-6f" d="M 1959 3097 
Q 1497 3097 1228 2736 
Q 959 2375 959 1747 
Q 959 1119 1226 758 
Q 1494 397 1959 397 
Q 2419 397 2687 759 
Q 2956 1122 2956 1747 
Q 2956 2369 2687 2733 
Q 2419 3097 1959 3097 
z
M 1959 3584 
Q 2709 3584 3137 3096 
Q 3566 2609 3566 1747 
Q 3566 888 3137 398 
Q 2709 -91 1959 -91 
Q 1206 -91 779 398 
Q 353 888 353 1747 
Q 353 2609 779 3096 
Q 1206 3584 1959 3584 
z
" transform="scale(0.015625)"/>
       <path id="DejaVuSans-63" d="M 3122 3366 
L 3122 2828 
Q 2878 2963 2633 3030 
Q 2388 3097 2138 3097 
Q 1578 3097 1268 2742 
Q 959 2388 959 1747 
Q 959 1106 1268 751 
Q 1578 397 2138 397 
Q 2388 397 2633 464 
Q 2878 531 3122 666 
L 3122 134 
Q 2881 22 2623 -34 
Q 2366 -91 2075 -91 
Q 1284 -91 818 406 
Q 353 903 353 1747 
Q 353 2603 823 3093 
Q 1294 3584 2113 3584 
Q 2378 3584 2631 3529 
Q 2884 3475 3122 3366 
z
" transform="scale(0.015625)"/>
       <path id="DejaVuSans-68" d="M 3513 2113 
L 3513 0 
L 2938 0 
L 2938 2094 
Q 2938 2591 2744 2837 
Q 2550 3084 2163 3084 
Q 1697 3084 1428 2787 
Q 1159 2491 1159 1978 
L 1159 0 
L 581 0 
L 581 4863 
L 1159 4863 
L 1159 2956 
Q 1366 3272 1645 3428 
Q 1925 3584 2291 3584 
Q 2894 3584 3203 3211 
Q 3513 2838 3513 2113 
z
" transform="scale(0.015625)"/>
       <path id="DejaVuSans-73" d="M 2834 3397 
L 2834 2853 
Q 2591 2978 2328 3040 
Q 2066 3103 1784 3103 
Q 1356 3103 1142 2972 
Q 928 2841 928 2578 
Q 928 2378 1081 2264 
Q 1234 2150 1697 2047 
L 1894 2003 
Q 2506 1872 2764 1633 
Q 3022 1394 3022 966 
Q 3022 478 2636 193 
Q 2250 -91 1575 -91 
Q 1294 -91 989 -36 
Q 684 19 347 128 
L 347 722 
Q 666 556 975 473 
Q 1284 391 1588 391 
Q 1994 391 2212 530 
Q 2431 669 2431 922 
Q 2431 1156 2273 1281 
Q 2116 1406 1581 1522 
L 1381 1569 
Q 847 1681 609 1914 
Q 372 2147 372 2553 
Q 372 3047 722 3315 
Q 1072 3584 1716 3584 
Q 2034 3584 2315 3537 
Q 2597 3491 2834 3397 
z
" transform="scale(0.015625)"/>
      </defs>
      <use xlink:href="#DejaVuSans-45"/>
      <use xlink:href="#DejaVuSans-70" x="63.183594"/>
      <use xlink:href="#DejaVuSans-6f" x="126.660156"/>
      <use xlink:href="#DejaVuSans-63" x="187.841797"/>
      <use xlink:href="#DejaVuSans-68" x="242.822266"/>
      <use xlink:href="#DejaVuSans-73" x="306.201172"/>
     </g>
    </g>
   </g>
   <g id="matplotlib.axis_2">
    <g id="ytick_1">
     <g id="line2d_11">
      <defs>
       <path id="m1efd0db91b" d="M 0 0 
L -3.5 0 
" style="stroke: #000000; stroke-width: 0.8"/>
      </defs>
      <g>
       <use xlink:href="#m1efd0db91b" x="57.6" y="284.172693" style="stroke: #000000; stroke-width: 0.8"/>
      </g>
     </g>
     <g id="text_12">
      <!-- 10 -->
      <g transform="translate(37.875 287.971912) scale(0.1 -0.1)">
       <use xlink:href="#DejaVuSans-31"/>
       <use xlink:href="#DejaVuSans-30" x="63.623047"/>
      </g>
     </g>
    </g>
    <g id="ytick_2">
     <g id="line2d_12">
      <g>
       <use xlink:href="#m1efd0db91b" x="57.6" y="252.56569" style="stroke: #000000; stroke-width: 0.8"/>
      </g>
     </g>
     <g id="text_13">
      <!-- 20 -->
      <g transform="translate(37.875 256.364909) scale(0.1 -0.1)">
       <use xlink:href="#DejaVuSans-32"/>
       <use xlink:href="#DejaVuSans-30" x="63.623047"/>
      </g>
     </g>
    </g>
    <g id="ytick_3">
     <g id="line2d_13">
      <g>
       <use xlink:href="#m1efd0db91b" x="57.6" y="220.958687" style="stroke: #000000; stroke-width: 0.8"/>
      </g>
     </g>
     <g id="text_14">
      <!-- 30 -->
      <g transform="translate(37.875 224.757906) scale(0.1 -0.1)">
       <use xlink:href="#DejaVuSans-33"/>
       <use xlink:href="#DejaVuSans-30" x="63.623047"/>
      </g>
     </g>
    </g>
    <g id="ytick_4">
     <g id="line2d_14">
      <g>
       <use xlink:href="#m1efd0db91b" x="57.6" y="189.351684" style="stroke: #000000; stroke-width: 0.8"/>
      </g>
     </g>
     <g id="text_15">
      <!-- 40 -->
      <g transform="translate(37.875 193.150903) scale(0.1 -0.1)">
       <use xlink:href="#DejaVuSans-34"/>
       <use xlink:href="#DejaVuSans-30" x="63.623047"/>
      </g>
     </g>
    </g>
    <g id="ytick_5">
     <g id="line2d_15">
      <g>
       <use xlink:href="#m1efd0db91b" x="57.6" y="157.744681" style="stroke: #000000; stroke-width: 0.8"/>
      </g>
     </g>
     <g id="text_16">
      <!-- 50 -->
      <g transform="translate(37.875 161.5439) scale(0.1 -0.1)">
       <defs>
        <path id="DejaVuSans-35" d="M 691 4666 
L 3169 4666 
L 3169 4134 
L 1269 4134 
L 1269 2991 
Q 1406 3038 1543 3061 
Q 1681 3084 1819 3084 
Q 2600 3084 3056 2656 
Q 3513 2228 3513 1497 
Q 3513 744 3044 326 
Q 2575 -91 1722 -91 
Q 1428 -91 1123 -41 
Q 819 9 494 109 
L 494 744 
Q 775 591 1075 516 
Q 1375 441 1709 441 
Q 2250 441 2565 725 
Q 2881 1009 2881 1497 
Q 2881 1984 2565 2268 
Q 2250 2553 1709 2553 
Q 1456 2553 1204 2497 
Q 953 2441 691 2322 
L 691 4666 
z
" transform="scale(0.015625)"/>
       </defs>
       <use xlink:href="#DejaVuSans-35"/>
       <use xlink:href="#DejaVuSans-30" x="63.623047"/>
      </g>
     </g>
    </g>
    <g id="ytick_6">
     <g id="line2d_16">
      <g>
       <use xlink:href="#m1efd0db91b" x="57.6" y="126.137679" style="stroke: #000000; stroke-width: 0.8"/>
      </g>
     </g>
     <g id="text_17">
      <!-- 60 -->
      <g transform="translate(37.875 129.936897) scale(0.1 -0.1)">
       <use xlink:href="#DejaVuSans-36"/>
       <use xlink:href="#DejaVuSans-30" x="63.623047"/>
      </g>
     </g>
    </g>
    <g id="ytick_7">
     <g id="line2d_17">
      <g>
       <use xlink:href="#m1efd0db91b" x="57.6" y="94.530676" style="stroke: #000000; stroke-width: 0.8"/>
      </g>
     </g>
     <g id="text_18">
      <!-- 70 -->
      <g transform="translate(37.875 98.329894) scale(0.1 -0.1)">
       <use xlink:href="#DejaVuSans-37"/>
       <use xlink:href="#DejaVuSans-30" x="63.623047"/>
      </g>
     </g>
    </g>
    <g id="ytick_8">
     <g id="line2d_18">
      <g>
       <use xlink:href="#m1efd0db91b" x="57.6" y="62.923673" style="stroke: #000000; stroke-width: 0.8"/>
      </g>
     </g>
     <g id="text_19">
      <!-- 80 -->
      <g transform="translate(37.875 66.722892) scale(0.1 -0.1)">
       <defs>
        <path id="DejaVuSans-38" d="M 2034 2216 
Q 1584 2216 1326 1975 
Q 1069 1734 1069 1313 
Q 1069 891 1326 650 
Q 1584 409 2034 409 
Q 2484 409 2743 651 
Q 3003 894 3003 1313 
Q 3003 1734 2745 1975 
Q 2488 2216 2034 2216 
z
M 1403 2484 
Q 997 2584 770 2862 
Q 544 3141 544 3541 
Q 544 4100 942 4425 
Q 1341 4750 2034 4750 
Q 2731 4750 3128 4425 
Q 3525 4100 3525 3541 
Q 3525 3141 3298 2862 
Q 3072 2584 2669 2484 
Q 3125 2378 3379 2068 
Q 3634 1759 3634 1313 
Q 3634 634 3220 271 
Q 2806 -91 2034 -91 
Q 1263 -91 848 271 
Q 434 634 434 1313 
Q 434 1759 690 2068 
Q 947 2378 1403 2484 
z
M 1172 3481 
Q 1172 3119 1398 2916 
Q 1625 2713 2034 2713 
Q 2441 2713 2670 2916 
Q 2900 3119 2900 3481 
Q 2900 3844 2670 4047 
Q 2441 4250 2034 4250 
Q 1625 4250 1398 4047 
Q 1172 3844 1172 3481 
z
" transform="scale(0.015625)"/>
       </defs>
       <use xlink:href="#DejaVuSans-38"/>
       <use xlink:href="#DejaVuSans-30" x="63.623047"/>
      </g>
     </g>
    </g>
    <g id="text_20">
     <!-- Accuracy -->
     <g transform="translate(31.795312 197.356125) rotate(-90) scale(0.1 -0.1)">
      <defs>
       <path id="DejaVuSans-41" d="M 2188 4044 
L 1331 1722 
L 3047 1722 
L 2188 4044 
z
M 1831 4666 
L 2547 4666 
L 4325 0 
L 3669 0 
L 3244 1197 
L 1141 1197 
L 716 0 
L 50 0 
L 1831 4666 
z
" transform="scale(0.015625)"/>
       <path id="DejaVuSans-75" d="M 544 1381 
L 544 3500 
L 1119 3500 
L 1119 1403 
Q 1119 906 1312 657 
Q 1506 409 1894 409 
Q 2359 409 2629 706 
Q 2900 1003 2900 1516 
L 2900 3500 
L 3475 3500 
L 3475 0 
L 2900 0 
L 2900 538 
Q 2691 219 2414 64 
Q 2138 -91 1772 -91 
Q 1169 -91 856 284 
Q 544 659 544 1381 
z
M 1991 3584 
L 1991 3584 
z
" transform="scale(0.015625)"/>
       <path id="DejaVuSans-72" d="M 2631 2963 
Q 2534 3019 2420 3045 
Q 2306 3072 2169 3072 
Q 1681 3072 1420 2755 
Q 1159 2438 1159 1844 
L 1159 0 
L 581 0 
L 581 3500 
L 1159 3500 
L 1159 2956 
Q 1341 3275 1631 3429 
Q 1922 3584 2338 3584 
Q 2397 3584 2469 3576 
Q 2541 3569 2628 3553 
L 2631 2963 
z
" transform="scale(0.015625)"/>
       <path id="DejaVuSans-61" d="M 2194 1759 
Q 1497 1759 1228 1600 
Q 959 1441 959 1056 
Q 959 750 1161 570 
Q 1363 391 1709 391 
Q 2188 391 2477 730 
Q 2766 1069 2766 1631 
L 2766 1759 
L 2194 1759 
z
M 3341 1997 
L 3341 0 
L 2766 0 
L 2766 531 
Q 2569 213 2275 61 
Q 1981 -91 1556 -91 
Q 1019 -91 701 211 
Q 384 513 384 1019 
Q 384 1609 779 1909 
Q 1175 2209 1959 2209 
L 2766 2209 
L 2766 2266 
Q 2766 2663 2505 2880 
Q 2244 3097 1772 3097 
Q 1472 3097 1187 3025 
Q 903 2953 641 2809 
L 641 3341 
Q 956 3463 1253 3523 
Q 1550 3584 1831 3584 
Q 2591 3584 2966 3190 
Q 3341 2797 3341 1997 
z
" transform="scale(0.015625)"/>
       <path id="DejaVuSans-79" d="M 2059 -325 
Q 1816 -950 1584 -1140 
Q 1353 -1331 966 -1331 
L 506 -1331 
L 506 -850 
L 844 -850 
Q 1081 -850 1212 -737 
Q 1344 -625 1503 -206 
L 1606 56 
L 191 3500 
L 800 3500 
L 1894 763 
L 2988 3500 
L 3597 3500 
L 2059 -325 
z
" transform="scale(0.015625)"/>
      </defs>
      <use xlink:href="#DejaVuSans-41"/>
      <use xlink:href="#DejaVuSans-63" x="66.658203"/>
      <use xlink:href="#DejaVuSans-63" x="121.638672"/>
      <use xlink:href="#DejaVuSans-75" x="176.619141"/>
      <use xlink:href="#DejaVuSans-72" x="239.998047"/>
      <use xlink:href="#DejaVuSans-61" x="281.111328"/>
      <use xlink:href="#DejaVuSans-63" x="342.390625"/>
      <use xlink:href="#DejaVuSans-79" x="397.371094"/>
     </g>
    </g>
   </g>
   <g id="line2d_19">
    <path d="M 73.832727 295.488 
L 74.918528 277.465687 
L 76.00433 257.382597 
L 78.175932 228.335762 
L 79.261733 217.437667 
L 81.433335 199.061356 
L 84.690739 179.591442 
L 86.862341 168.66174 
L 89.033943 159.438817 
L 91.205546 151.935314 
L 92.291347 149.754431 
L 93.377148 148.262581 
L 94.462949 146.062733 
L 95.54875 177.01231 
L 96.634552 176.127314 
L 99.891955 165.791824 
L 100.977756 163.079944 
L 102.063557 159.141711 
L 103.149358 156.707972 
L 104.23516 154.596624 
L 105.320961 151.853136 
L 106.406762 148.540722 
L 107.492563 145.854127 
L 108.578364 143.692208 
L 109.664165 141.884287 
L 110.749967 139.785582 
L 111.835768 136.485811 
L 112.921569 133.99518 
L 114.00737 130.916657 
L 115.093171 129.336307 
L 116.178972 126.946818 
L 117.264773 126.017572 
L 118.350575 122.433338 
L 119.436376 119.512851 
L 120.522177 118.924961 
L 121.607978 116.055045 
L 123.77958 111.02321 
L 124.865382 109.525038 
L 125.951183 108.380864 
L 127.036984 106.642479 
L 128.122785 104.271954 
L 129.208586 102.912853 
L 130.294387 100.782541 
L 131.380189 99.701581 
L 132.46599 98.867157 
L 133.551791 97.173021 
L 134.637592 97.463806 
L 135.723393 96.521917 
L 136.809194 96.414453 
L 137.894995 95.605314 
L 138.980797 129.962126 
L 140.066598 134.962354 
L 141.152399 134.412392 
L 142.2382 133.400968 
L 144.409802 130.214982 
L 145.495604 130.758622 
L 146.581405 129.759841 
L 147.667206 127.736993 
L 148.753007 126.333642 
L 149.838808 125.290611 
L 150.924609 122.964336 
L 152.01041 123.141335 
L 153.096212 121.371343 
L 154.182013 120.922523 
L 155.267814 119.866849 
L 156.353615 119.133567 
L 157.439416 117.20554 
L 158.525217 115.979188 
L 159.611019 114.49998 
L 160.69682 114.285053 
L 161.782621 113.924733 
L 162.868422 112.097848 
L 163.954223 112.521382 
L 168.297428 105.845983 
L 169.383229 105.934482 
L 170.46903 104.031741 
L 171.554831 104.012777 
L 172.640632 103.178352 
L 173.726434 101.23136 
L 174.812235 100.965862 
L 175.898036 99.233798 
L 176.983837 97.79884 
L 178.069638 97.514377 
L 179.155439 96.275382 
L 180.24124 94.081856 
L 181.327042 93.424431 
L 183.498644 91.21194 
L 184.584445 90.699907 
L 185.670246 89.656876 
L 186.756047 88.114454 
L 187.841849 87.545528 
L 188.92765 86.312855 
L 190.013451 86.028392 
L 191.099252 84.416435 
L 192.185053 83.31019 
L 193.270854 82.387265 
L 195.442457 78.904174 
L 196.528258 79.839741 
L 197.614059 78.107677 
L 198.69986 77.456573 
L 199.785661 75.996329 
L 200.871462 75.825651 
L 201.957264 74.19473 
L 203.043065 74.10623 
L 205.214667 72.791379 
L 208.472071 69.257716 
L 209.557872 70.40189 
L 210.643673 68.271578 
L 211.729474 68.221007 
L 212.815275 66.982012 
L 213.901076 66.621692 
L 214.986877 67.215904 
L 216.072679 66.609049 
L 217.15848 65.540733 
L 218.244281 66.046445 
L 219.330082 65.660839 
L 220.415883 64.333345 
L 221.501684 64.478737 
L 222.587486 64.168989 
L 223.673287 65.591304 
L 224.759088 64.864343 
L 225.844889 103.064567 
L 226.93069 107.68551 
L 228.016491 108.222829 
L 229.102292 109.253218 
L 231.273895 107.666546 
L 232.359696 107.660225 
L 234.531298 106.155731 
L 235.617099 106.522373 
L 236.702901 105.574163 
L 237.788702 104.923058 
L 238.874503 104.625952 
L 239.960304 104.562738 
L 241.046105 104.328847 
L 242.131906 103.367994 
L 243.217708 101.629609 
L 244.303509 102.976067 
L 245.38931 101.616966 
L 246.475111 101.522145 
L 247.560912 100.219936 
L 248.646713 100.188329 
L 249.732514 99.012549 
L 250.818316 99.353904 
L 251.904117 98.487872 
L 252.989918 98.778657 
L 254.075719 98.146517 
L 255.16152 98.272945 
L 256.247321 96.509274 
L 257.333123 97.046593 
L 258.418924 97.1667 
L 259.504725 96.193204 
L 260.590526 95.415672 
L 262.762128 94.227248 
L 263.847929 94.284141 
L 264.933731 93.24111 
L 267.105333 93.361217 
L 268.191134 91.730295 
L 269.276935 92.842862 
L 270.362736 92.128544 
L 271.448538 90.864263 
L 272.534339 89.960303 
L 273.62014 89.296556 
L 274.705941 89.802268 
L 275.791742 89.599983 
L 276.877543 89.258628 
L 277.963344 88.234561 
L 279.049146 88.424203 
L 280.134947 88.329382 
L 281.220748 87.001888 
L 282.306549 86.894424 
L 283.39235 86.173784 
L 284.478151 84.44172 
L 285.563953 85.83875 
L 286.649754 85.408895 
L 287.735555 84.239436 
L 288.821356 82.791835 
L 289.907157 84.403792 
L 290.992958 82.115445 
L 292.07876 82.128088 
L 293.164561 81.104021 
L 294.250362 81.578126 
L 295.336163 81.755125 
L 296.421964 81.110342 
L 297.507765 79.669063 
L 298.593566 80.149489 
L 299.679368 79.315065 
L 300.765169 78.644996 
L 301.85097 78.531211 
L 302.936771 77.526108 
L 304.022572 77.80425 
L 305.108373 76.49572 
L 306.194175 76.735933 
L 307.279976 75.920472 
L 308.365777 75.825651 
L 309.451578 76.280792 
L 310.537379 73.493055 
L 311.62318 74.618264 
L 312.708981 74.182087 
L 313.794783 74.245301 
L 314.880584 73.83441 
L 315.966385 71.678813 
L 317.052186 71.862133 
L 318.137987 71.173101 
L 319.223788 71.98224 
L 320.30959 71.008744 
L 321.395391 70.395568 
L 322.481192 70.439818 
L 323.566993 69.763428 
L 324.652794 68.682469 
L 325.738595 69.042789 
L 326.824396 67.904937 
L 327.910198 68.543398 
L 328.995999 67.854365 
L 330.0818 67.449796 
L 331.167601 66.4763 
L 333.339203 65.616589 
L 335.510806 64.276453 
L 336.596607 64.49138 
L 337.682408 63.833955 
L 338.768209 63.751776 
L 339.85401 63.416742 
L 340.939811 62.961601 
L 342.025613 61.122074 
L 343.111414 61.337001 
L 344.197215 61.311716 
L 345.283016 61.431822 
L 347.454618 60.098007 
L 348.54042 60.38247 
L 350.712022 59.30151 
L 351.797823 59.592295 
L 352.883624 58.707299 
L 353.969425 58.252158 
L 355.055227 57.316591 
L 356.141028 56.147131 
L 357.226829 57.095342 
L 358.31263 55.55292 
L 359.398431 56.197703 
L 361.570033 55.059851 
L 362.655835 55.483384 
L 363.741636 54.124283 
L 364.827437 54.20014 
L 365.913238 54.016819 
L 366.999039 53.568 
L 368.08484 54.370818 
L 369.170642 54.535174 
L 370.256443 55.445456 
L 371.342244 56.899378 
L 372.428045 58.106766 
L 373.513846 58.283765 
L 374.599647 58.732584 
L 375.685448 59.010726 
L 376.77125 58.3533 
L 377.857051 58.66937 
L 378.942852 58.410193 
L 382.200255 59.39001 
L 383.286057 58.903262 
L 384.371858 59.048654 
L 385.457659 58.833727 
L 386.54346 59.080261 
L 387.629261 59.017047 
L 388.715062 59.314153 
L 389.800863 58.391229 
L 391.972466 58.75787 
L 393.058267 59.510117 
L 394.144068 58.410193 
L 395.229869 58.80212 
L 396.31567 58.454443 
L 397.401472 58.3533 
L 398.487273 58.593513 
L 398.487273 58.593513 
" clip-path="url(#p45c4e90fe2)" style="fill: none; stroke: #1f77b4; stroke-width: 1.5; stroke-linecap: square"/>
   </g>
   <g id="line2d_20">
    <path d="M 73.832727 281.138421 
L 74.918528 254.525324 
L 76.00433 239.638426 
L 77.090131 201.646808 
L 78.175932 195.420229 
L 79.261733 188.245439 
L 80.347534 185.590451 
L 81.433335 162.865016 
L 82.519137 154.963265 
L 83.604938 148.420616 
L 84.690739 142.668141 
L 85.77654 138.685659 
L 86.862341 134.13425 
L 87.948142 125.442325 
L 89.033943 121.965554 
L 90.119745 120.163955 
L 91.205546 119.247352 
L 92.291347 116.307901 
L 93.377148 114.664337 
L 94.462949 113.937375 
L 95.54875 154.457553 
L 96.634552 141.024577 
L 97.720353 139.949939 
L 98.806154 132.964791 
L 99.891955 139.317799 
L 100.977756 125.60036 
L 102.063557 122.787336 
L 103.149358 126.074465 
L 104.23516 118.077893 
L 105.320961 111.851313 
L 106.406762 112.736309 
L 107.492563 110.176142 
L 108.578364 105.814376 
L 109.664165 106.446516 
L 110.749967 105.687948 
L 111.835768 101.073325 
L 112.921569 98.860835 
L 114.00737 95.573707 
L 115.093171 99.998687 
L 116.178972 94.688711 
L 117.264773 92.286579 
L 118.350575 88.714987 
L 119.436376 88.651773 
L 120.522177 85.807143 
L 121.607978 85.901964 
L 122.693779 85.175003 
L 123.77958 82.583229 
L 124.865382 84.732505 
L 125.951183 81.034485 
L 127.036984 79.61217 
L 128.122785 80.307524 
L 129.208586 78.600746 
L 130.294387 77.747357 
L 132.46599 76.862361 
L 133.551791 77.146824 
L 134.637592 75.724509 
L 135.723393 76.1354 
L 136.809194 76.1354 
L 137.894995 75.123976 
L 138.980797 108.532578 
L 140.066598 105.529913 
L 141.152399 100.59922 
L 142.2382 104.075991 
L 143.324001 100.030294 
L 144.409802 99.398154 
L 145.495604 99.935473 
L 146.581405 94.90996 
L 147.667206 94.467462 
L 148.753007 98.165481 
L 149.838808 95.984598 
L 150.924609 97.154057 
L 152.01041 97.691376 
L 154.182013 91.117119 
L 155.267814 89.473555 
L 156.353615 91.622831 
L 157.439416 90.200516 
L 158.525217 88.209275 
L 160.69682 86.123213 
L 161.782621 86.312855 
L 162.868422 85.649108 
L 163.954223 87.261065 
L 165.040024 87.482314 
L 166.125825 83.62626 
L 167.211627 83.152155 
L 168.297428 85.396252 
L 169.383229 83.94233 
L 170.46903 83.246976 
L 171.554831 81.476984 
L 172.640632 78.821995 
L 173.726434 81.919482 
L 174.812235 80.181096 
L 175.898036 78.189855 
L 176.983837 79.327707 
L 178.069638 78.063427 
L 180.24124 76.577898 
L 181.327042 76.609505 
L 182.412843 78.379497 
L 183.498644 78.695567 
L 184.584445 76.356649 
L 185.670246 76.293435 
L 186.756047 73.29077 
L 187.841849 75.850937 
L 188.92765 74.017731 
L 190.013451 71.141494 
L 191.099252 70.604175 
L 192.185053 70.888638 
L 193.270854 69.90882 
L 194.356656 71.015066 
L 196.528258 68.581326 
L 197.614059 68.992217 
L 198.69986 67.095797 
L 199.785661 66.242408 
L 200.871462 66.653299 
L 201.957264 66.811334 
L 203.043065 65.989552 
L 204.128866 66.684906 
L 205.214667 66.305622 
L 206.300468 64.567237 
L 207.386269 64.978128 
L 208.472071 64.598844 
L 209.557872 64.693665 
L 210.643673 65.357412 
L 211.729474 64.124739 
L 212.815275 64.251167 
L 213.901076 63.650634 
L 214.986877 63.492599 
L 216.072679 63.966704 
L 218.244281 63.397778 
L 219.330082 62.892066 
L 221.501684 62.797245 
L 223.673287 63.650634 
L 224.759088 63.366171 
L 225.844889 89.157485 
L 226.93069 91.622831 
L 228.016491 86.47089 
L 229.102292 85.52268 
L 230.188094 91.717652 
L 231.273895 86.976602 
L 232.359696 89.94766 
L 233.445497 84.827326 
L 234.531298 86.818567 
L 235.617099 89.852839 
L 236.702901 85.870357 
L 237.788702 87.039816 
L 238.874503 87.292672 
L 239.960304 85.870357 
L 241.046105 84.827326 
L 242.131906 82.741264 
L 243.217708 84.57447 
L 244.303509 81.318949 
L 245.38931 83.689474 
L 246.475111 81.41377 
L 247.560912 84.353221 
L 248.646713 80.307524 
L 249.732514 84.005544 
L 250.818316 83.120548 
L 251.904117 81.224128 
L 252.989918 82.298766 
L 254.075719 84.542863 
L 255.16152 81.571805 
L 256.247321 80.117882 
L 257.333123 81.255735 
L 258.418924 82.836085 
L 259.504725 80.212703 
L 260.590526 81.224128 
L 261.676327 78.34789 
L 262.762128 77.431287 
L 263.847929 79.485742 
L 264.933731 81.255735 
L 266.019532 79.011637 
L 267.105333 81.698233 
L 268.191134 77.620929 
L 269.276935 82.488408 
L 270.362736 80.275917 
L 271.448538 82.456801 
L 273.62014 77.747357 
L 274.705941 73.60684 
L 275.791742 77.241645 
L 276.877543 78.569139 
L 277.963344 77.178431 
L 279.049146 74.333801 
L 280.134947 74.649871 
L 281.220748 78.505925 
L 282.306549 76.388256 
L 283.39235 73.195949 
L 284.478151 79.865026 
L 285.563953 77.304859 
L 286.649754 76.925575 
L 287.735555 75.977365 
L 288.821356 73.796482 
L 289.907157 76.230221 
L 290.992958 74.460229 
L 292.07876 75.408439 
L 293.164561 75.376832 
L 294.250362 74.839513 
L 296.421964 74.586657 
L 297.507765 75.81933 
L 298.593566 75.408439 
L 299.679368 71.994883 
L 300.765169 75.629688 
L 301.85097 70.983459 
L 302.936771 73.448805 
L 304.022572 74.017731 
L 305.108373 73.701661 
L 306.194175 72.121311 
L 307.279976 69.529536 
L 308.365777 71.868455 
L 309.451578 76.293435 
L 311.62318 69.497929 
L 312.708981 70.414533 
L 313.794783 72.563809 
L 314.880584 70.44614 
L 315.966385 71.109887 
L 317.052186 70.604175 
L 318.137987 68.992217 
L 319.223788 68.423291 
L 320.30959 70.13007 
L 321.395391 71.489171 
L 322.481192 70.035248 
L 323.566993 70.382926 
L 324.652794 68.929003 
L 325.738595 70.667389 
L 326.824396 69.308287 
L 327.910198 69.561143 
L 328.995999 69.339894 
L 330.0818 69.90882 
L 331.167601 67.854365 
L 332.253402 66.874548 
L 333.339203 66.179194 
L 334.425005 67.285439 
L 335.510806 67.601509 
L 336.596607 65.863124 
L 337.682408 64.630451 
L 338.768209 65.673482 
L 339.85401 64.061525 
L 340.939811 64.504023 
L 342.025613 65.104556 
L 343.111414 65.989552 
L 344.197215 65.673482 
L 345.283016 63.144922 
L 346.368817 62.449568 
L 347.454618 63.176529 
L 348.54042 63.208136 
L 349.626221 61.691 
L 350.712022 62.860459 
L 351.797823 63.555813 
L 352.883624 63.58742 
L 353.969425 62.512782 
L 355.055227 61.975463 
L 356.141028 62.291533 
L 357.226829 61.37493 
L 358.31263 62.196712 
L 359.398431 60.142257 
L 360.484232 61.216895 
L 361.570033 60.995646 
L 362.655835 61.912249 
L 363.741636 60.616362 
L 364.827437 60.42672 
L 365.913238 59.257261 
L 366.999039 59.604938 
L 368.08484 60.237078 
L 369.170642 60.616362 
L 370.256443 62.63921 
L 371.342244 63.998311 
L 372.428045 63.429385 
L 373.513846 63.840276 
L 374.599647 63.302957 
L 375.685448 64.53563 
L 376.77125 62.481175 
L 377.857051 64.377595 
L 378.942852 64.061525 
L 380.028653 62.449568 
L 381.114454 65.420626 
L 382.200255 62.101891 
L 383.286057 65.072949 
L 384.371858 64.251167 
L 385.457659 62.734031 
L 386.54346 64.914914 
L 387.629261 62.797245 
L 388.715062 63.081708 
L 389.800863 61.722607 
L 390.886665 63.302957 
L 391.972466 65.926338 
L 393.058267 64.124739 
L 394.144068 63.998311 
L 395.229869 62.860459 
L 396.31567 64.377595 
L 397.401472 63.808669 
L 398.487273 63.713848 
L 398.487273 63.713848 
" clip-path="url(#p45c4e90fe2)" style="fill: none; stroke: #ff7f0e; stroke-width: 1.5; stroke-linecap: square"/>
   </g>
   <g id="line2d_21">
    <path d="M 73.832727 287.137212 
L 74.918528 265.143097 
L 76.00433 254.505706 
L 77.090131 228.609762 
L 78.175932 227.476269 
L 79.261733 222.920501 
L 80.347534 225.514455 
L 81.433335 204.610237 
L 82.519137 201.73291 
L 83.604938 194.125432 
L 85.77654 185.842217 
L 86.862341 183.509838 
L 87.948142 175.444603 
L 89.033943 175.836966 
L 90.119745 173.569981 
L 91.205546 169.580959 
L 92.291347 168.273083 
L 93.377148 165.373958 
L 94.462949 164.763616 
L 95.54875 205.547549 
L 96.634552 188.566959 
L 97.720353 190.267198 
L 98.806154 184.774118 
L 99.891955 188.588757 
L 100.977756 181.373641 
L 102.063557 178.888677 
L 103.149358 177.450013 
L 104.23516 169.711747 
L 105.320961 167.422964 
L 106.406762 165.722725 
L 107.492563 169.057809 
L 108.578364 161.057967 
L 109.664165 161.232351 
L 110.749967 162.496631 
L 111.835768 157.744681 
L 112.921569 156.044443 
L 114.00737 153.712064 
L 115.093171 158.681993 
L 116.178972 151.445079 
L 117.264773 150.747545 
L 118.350575 144.447942 
L 119.436376 145.755818 
L 120.522177 146.387958 
L 121.607978 143.031077 
L 122.693779 143.597823 
L 123.77958 140.764092 
L 124.865382 141.810392 
L 125.951183 137.472604 
L 127.036984 139.761387 
L 128.122785 139.042055 
L 129.208586 135.554386 
L 130.294387 134.900448 
L 131.380189 135.183821 
L 132.46599 133.461784 
L 133.551791 134.311903 
L 134.637592 132.829644 
L 135.723393 133.069421 
L 136.809194 133.636168 
L 137.894995 132.87324 
L 138.980797 163.760911 
L 141.152399 160.404029 
L 142.2382 160.796392 
L 143.324001 153.472287 
L 144.409802 155.041738 
L 145.495604 159.270537 
L 146.581405 153.12352 
L 147.667206 154.213416 
L 148.753007 155.521292 
L 149.838808 154.540385 
L 150.924609 153.363297 
L 152.01041 154.562183 
L 153.096212 152.796551 
L 154.182013 151.837442 
L 155.267814 146.954705 
L 156.353615 150.812939 
L 157.439416 149.134498 
L 158.525217 146.823917 
L 159.611019 148.306176 
L 160.69682 141.396232 
L 161.782621 142.57332 
L 162.868422 145.516041 
L 163.954223 143.20546 
L 165.040024 146.169979 
L 166.125825 139.238236 
L 167.211627 138.388117 
L 168.297428 142.093766 
L 169.383229 143.728611 
L 170.46903 142.856693 
L 171.554831 136.971251 
L 172.640632 138.584298 
L 173.726434 141.178252 
L 174.812235 140.04476 
L 175.898036 135.663375 
L 176.983837 137.102039 
L 178.069638 133.352794 
L 179.155439 135.837759 
L 180.24124 135.4018 
L 181.327042 132.437281 
L 182.412843 133.832349 
L 183.498644 132.98223 
L 184.584445 132.960432 
L 185.670246 130.301084 
L 186.756047 126.682627 
L 187.841849 132.938634 
L 188.92765 131.783343 
L 190.013451 125.788912 
L 191.099252 124.699015 
L 192.185053 124.677217 
L 194.356656 126.639031 
L 195.442457 125.963295 
L 196.528258 121.930678 
L 197.614059 124.088673 
L 198.69986 123.543725 
L 199.785661 124.720813 
L 200.871462 121.996071 
L 201.957264 125.876103 
L 203.043065 123.325745 
L 204.128866 121.516517 
L 207.386269 119.68549 
L 208.472071 118.399412 
L 209.557872 118.987957 
L 210.643673 119.009755 
L 211.729474 118.072443 
L 212.815275 117.483899 
L 213.901076 116.263215 
L 214.986877 117.069738 
L 218.244281 116.742769 
L 219.330082 117.287718 
L 221.501684 116.52479 
L 222.587486 117.592889 
L 223.673287 116.938951 
L 224.759088 117.571091 
L 225.844889 146.453352 
L 226.93069 153.319701 
L 228.016491 139.063853 
L 229.102292 140.306335 
L 230.188094 152.099017 
L 231.273895 150.573162 
L 232.359696 146.300767 
L 233.445497 139.369024 
L 235.617099 150.246193 
L 236.702901 142.093766 
L 237.788702 144.600528 
L 238.874503 145.385253 
L 239.960304 141.41803 
L 241.046105 142.377139 
L 242.131906 137.734179 
L 243.217708 143.467035 
L 244.303509 137.603391 
L 245.38931 138.104744 
L 246.475111 141.221848 
L 247.560912 143.728611 
L 248.646713 131.020416 
L 249.732514 138.475309 
L 250.818316 141.091061 
L 251.904117 136.448101 
L 252.989918 139.281832 
L 254.075719 142.46433 
L 255.16152 139.107449 
L 256.247321 137.276422 
L 257.333123 139.020257 
L 258.418924 139.151045 
L 259.504725 137.559796 
L 260.590526 135.576184 
L 261.676327 139.063853 
L 262.762128 134.813256 
L 263.847929 135.750567 
L 264.933731 135.685173 
L 266.019532 136.88406 
L 267.105333 140.04476 
L 268.191134 133.309199 
L 269.276935 138.933065 
L 270.362736 140.458921 
L 271.448538 138.235531 
L 272.534339 139.151045 
L 273.62014 132.502675 
L 274.705941 128.906016 
L 275.791742 137.472604 
L 276.877543 135.837759 
L 277.963344 133.330996 
L 279.049146 130.475467 
L 280.134947 128.600845 
L 281.220748 133.919541 
L 282.306549 132.829644 
L 283.39235 126.944202 
L 284.478151 131.935929 
L 285.563953 133.527178 
L 286.649754 137.363614 
L 287.735555 130.23569 
L 288.821356 129.036804 
L 289.907157 131.478172 
L 290.992958 128.753431 
L 292.07876 131.042214 
L 293.164561 132.895038 
L 294.250362 126.813415 
L 295.336163 131.412778 
L 296.421964 132.611665 
L 297.507765 130.192094 
L 298.593566 125.832508 
L 299.679368 129.015006 
L 300.765169 132.87324 
L 301.85097 125.331155 
L 302.936771 128.622643 
L 304.022572 128.273876 
L 305.108373 128.906016 
L 306.194175 122.802595 
L 307.279976 122.148657 
L 308.365777 125.06958 
L 309.451578 135.053033 
L 310.537379 125.483741 
L 311.62318 125.876103 
L 312.708981 124.590025 
L 313.794783 129.385571 
L 314.880584 125.309357 
L 315.966385 127.70713 
L 318.137987 120.274035 
L 319.223788 122.453828 
L 320.30959 122.889787 
L 321.395391 126.726223 
L 322.481192 128.622643 
L 323.566993 126.551839 
L 324.652794 123.042372 
L 325.738595 122.083263 
L 326.824396 122.824393 
L 327.910198 123.260351 
L 328.995999 117.658283 
L 330.0818 120.012459 
L 331.167601 119.554703 
L 332.253402 121.538315 
L 333.339203 118.966159 
L 335.510806 122.95518 
L 336.596607 115.870852 
L 337.682408 116.067034 
L 338.768209 117.854464 
L 339.85401 118.028848 
L 340.939811 118.63919 
L 342.025613 118.551998 
L 343.111414 118.726381 
L 344.197215 121.538315 
L 345.283016 114.868147 
L 346.368817 115.827256 
L 347.454618 113.99623 
L 348.54042 117.505697 
L 349.626221 113.2551 
L 350.712022 119.140542 
L 351.797823 113.909038 
L 352.883624 115.107924 
L 353.969425 113.88724 
L 355.055227 113.189706 
L 356.141028 115.238712 
L 357.226829 112.143406 
L 359.398431 113.342292 
L 360.484232 110.944519 
L 361.570033 112.840939 
L 362.655835 111.816437 
L 364.827437 111.969022 
L 365.913238 110.944519 
L 366.999039 110.486763 
L 368.08484 112.165204 
L 369.170642 111.947224 
L 371.342244 117.418505 
L 372.428045 118.268625 
L 373.513846 114.344997 
L 374.599647 113.821846 
L 375.685448 116.851759 
L 376.77125 115.086127 
L 377.857051 114.279603 
L 378.942852 114.279603 
L 380.028653 112.971727 
L 381.114454 119.05335 
L 382.200255 114.889945 
L 383.286057 115.3695 
L 384.371858 113.233302 
L 385.457659 115.020733 
L 386.54346 115.064329 
L 387.629261 112.383183 
L 388.715062 116.699174 
L 389.800863 113.778251 
L 390.886665 115.805458 
L 391.972466 119.140542 
L 393.058267 116.132427 
L 394.144068 115.042531 
L 395.229869 114.889945 
L 396.31567 118.726381 
L 397.401472 118.181433 
L 398.487273 115.78366 
L 398.487273 115.78366 
" clip-path="url(#p45c4e90fe2)" style="fill: none; stroke: #2ca02c; stroke-width: 1.5; stroke-linecap: square"/>
   </g>
   <g id="line2d_22">
    <path d="M 368.08484 60.932432 
L 369.170642 59.099226 
L 370.256443 62.449568 
L 371.342244 61.027253 
L 372.428045 62.986887 
L 373.513846 62.63921 
L 374.599647 62.986887 
L 375.685448 62.95528 
L 376.77125 63.460992 
L 377.857051 64.8517 
L 378.942852 63.777062 
L 380.028653 64.8517 
L 381.114454 64.820093 
L 383.286057 67.253832 
L 384.371858 66.842941 
L 385.457659 64.914914 
L 387.629261 67.348653 
L 388.715062 67.06419 
L 389.800863 67.348653 
L 390.886665 65.736696 
L 391.972466 65.894731 
L 393.058267 68.454898 
L 394.144068 66.526871 
L 395.229869 68.233649 
L 396.31567 68.233649 
L 397.401472 72.121311 
L 398.487273 71.362743 
L 398.487273 71.362743 
" clip-path="url(#p45c4e90fe2)" style="fill: none; stroke: #d62728; stroke-width: 1.5; stroke-linecap: square"/>
   </g>
   <g id="line2d_23">
    <path d="M 368.08484 111.685649 
L 369.170642 110.573954 
L 370.256443 113.102515 
L 371.342244 113.385888 
L 372.428045 112.230597 
L 373.513846 114.780955 
L 374.599647 113.974432 
L 375.685448 112.51397 
L 376.77125 115.282308 
L 377.857051 115.652873 
L 378.942852 115.870852 
L 380.028653 118.660988 
L 382.200255 117.091536 
L 383.286057 117.353112 
L 384.371858 120.993366 
L 385.457659 115.805458 
L 386.54346 116.63378 
L 387.629261 117.985252 
L 388.715062 116.219619 
L 389.800863 115.129722 
L 390.886665 116.176023 
L 393.058267 118.704583 
L 394.144068 118.334019 
L 395.229869 120.404822 
L 396.31567 116.285013 
L 397.401472 122.54102 
L 398.487273 122.344838 
L 398.487273 122.344838 
" clip-path="url(#p45c4e90fe2)" style="fill: none; stroke: #9467bd; stroke-width: 1.5; stroke-linecap: square"/>
   </g>
   <g id="patch_3">
    <path d="M 57.6 307.584 
L 57.6 41.472 
" style="fill: none; stroke: #000000; stroke-width: 0.8; stroke-linejoin: miter; stroke-linecap: square"/>
   </g>
   <g id="patch_4">
    <path d="M 414.72 307.584 
L 414.72 41.472 
" style="fill: none; stroke: #000000; stroke-width: 0.8; stroke-linejoin: miter; stroke-linecap: square"/>
   </g>
   <g id="patch_5">
    <path d="M 57.6 307.584 
L 414.72 307.584 
" style="fill: none; stroke: #000000; stroke-width: 0.8; stroke-linejoin: miter; stroke-linecap: square"/>
   </g>
   <g id="patch_6">
    <path d="M 57.6 41.472 
L 414.72 41.472 
" style="fill: none; stroke: #000000; stroke-width: 0.8; stroke-linejoin: miter; stroke-linecap: square"/>
   </g>
   <g id="text_21">
    <!-- Learning Curves -->
    <g transform="translate(187.37625 35.472) scale(0.12 -0.12)">
     <defs>
      <path id="DejaVuSans-4c" d="M 628 4666 
L 1259 4666 
L 1259 531 
L 3531 531 
L 3531 0 
L 628 0 
L 628 4666 
z
" transform="scale(0.015625)"/>
      <path id="DejaVuSans-65" d="M 3597 1894 
L 3597 1613 
L 953 1613 
Q 991 1019 1311 708 
Q 1631 397 2203 397 
Q 2534 397 2845 478 
Q 3156 559 3463 722 
L 3463 178 
Q 3153 47 2828 -22 
Q 2503 -91 2169 -91 
Q 1331 -91 842 396 
Q 353 884 353 1716 
Q 353 2575 817 3079 
Q 1281 3584 2069 3584 
Q 2775 3584 3186 3129 
Q 3597 2675 3597 1894 
z
M 3022 2063 
Q 3016 2534 2758 2815 
Q 2500 3097 2075 3097 
Q 1594 3097 1305 2825 
Q 1016 2553 972 2059 
L 3022 2063 
z
" transform="scale(0.015625)"/>
      <path id="DejaVuSans-6e" d="M 3513 2113 
L 3513 0 
L 2938 0 
L 2938 2094 
Q 2938 2591 2744 2837 
Q 2550 3084 2163 3084 
Q 1697 3084 1428 2787 
Q 1159 2491 1159 1978 
L 1159 0 
L 581 0 
L 581 3500 
L 1159 3500 
L 1159 2956 
Q 1366 3272 1645 3428 
Q 1925 3584 2291 3584 
Q 2894 3584 3203 3211 
Q 3513 2838 3513 2113 
z
" transform="scale(0.015625)"/>
      <path id="DejaVuSans-69" d="M 603 3500 
L 1178 3500 
L 1178 0 
L 603 0 
L 603 3500 
z
M 603 4863 
L 1178 4863 
L 1178 4134 
L 603 4134 
L 603 4863 
z
" transform="scale(0.015625)"/>
      <path id="DejaVuSans-67" d="M 2906 1791 
Q 2906 2416 2648 2759 
Q 2391 3103 1925 3103 
Q 1463 3103 1205 2759 
Q 947 2416 947 1791 
Q 947 1169 1205 825 
Q 1463 481 1925 481 
Q 2391 481 2648 825 
Q 2906 1169 2906 1791 
z
M 3481 434 
Q 3481 -459 3084 -895 
Q 2688 -1331 1869 -1331 
Q 1566 -1331 1297 -1286 
Q 1028 -1241 775 -1147 
L 775 -588 
Q 1028 -725 1275 -790 
Q 1522 -856 1778 -856 
Q 2344 -856 2625 -561 
Q 2906 -266 2906 331 
L 2906 616 
Q 2728 306 2450 153 
Q 2172 0 1784 0 
Q 1141 0 747 490 
Q 353 981 353 1791 
Q 353 2603 747 3093 
Q 1141 3584 1784 3584 
Q 2172 3584 2450 3431 
Q 2728 3278 2906 2969 
L 2906 3500 
L 3481 3500 
L 3481 434 
z
" transform="scale(0.015625)"/>
      <path id="DejaVuSans-20" transform="scale(0.015625)"/>
      <path id="DejaVuSans-43" d="M 4122 4306 
L 4122 3641 
Q 3803 3938 3442 4084 
Q 3081 4231 2675 4231 
Q 1875 4231 1450 3742 
Q 1025 3253 1025 2328 
Q 1025 1406 1450 917 
Q 1875 428 2675 428 
Q 3081 428 3442 575 
Q 3803 722 4122 1019 
L 4122 359 
Q 3791 134 3420 21 
Q 3050 -91 2638 -91 
Q 1578 -91 968 557 
Q 359 1206 359 2328 
Q 359 3453 968 4101 
Q 1578 4750 2638 4750 
Q 3056 4750 3426 4639 
Q 3797 4528 4122 4306 
z
" transform="scale(0.015625)"/>
      <path id="DejaVuSans-76" d="M 191 3500 
L 800 3500 
L 1894 563 
L 2988 3500 
L 3597 3500 
L 2284 0 
L 1503 0 
L 191 3500 
z
" transform="scale(0.015625)"/>
     </defs>
     <use xlink:href="#DejaVuSans-4c"/>
     <use xlink:href="#DejaVuSans-65" x="53.962891"/>
     <use xlink:href="#DejaVuSans-61" x="115.486328"/>
     <use xlink:href="#DejaVuSans-72" x="176.765625"/>
     <use xlink:href="#DejaVuSans-6e" x="216.128906"/>
     <use xlink:href="#DejaVuSans-69" x="279.507812"/>
     <use xlink:href="#DejaVuSans-6e" x="307.291016"/>
     <use xlink:href="#DejaVuSans-67" x="370.669922"/>
     <use xlink:href="#DejaVuSans-20" x="434.146484"/>
     <use xlink:href="#DejaVuSans-43" x="465.933594"/>
     <use xlink:href="#DejaVuSans-75" x="535.757812"/>
     <use xlink:href="#DejaVuSans-72" x="599.136719"/>
     <use xlink:href="#DejaVuSans-76" x="640.25"/>
     <use xlink:href="#DejaVuSans-65" x="699.429688"/>
     <use xlink:href="#DejaVuSans-73" x="760.953125"/>
    </g>
   </g>
   <g id="legend_1">
    <g id="patch_7">
     <path d="M 214.18875 302.584 
L 407.72 302.584 
Q 409.72 302.584 409.72 300.584 
L 409.72 228.193375 
Q 409.72 226.193375 407.72 226.193375 
L 214.18875 226.193375 
Q 212.18875 226.193375 212.18875 228.193375 
L 212.18875 300.584 
Q 212.18875 302.584 214.18875 302.584 
z
" style="fill: #ffffff; opacity: 0.8; stroke: #cccccc; stroke-linejoin: miter"/>
    </g>
    <g id="line2d_24">
     <path d="M 216.18875 234.291812 
L 226.18875 234.291812 
L 236.18875 234.291812 
" style="fill: none; stroke: #1f77b4; stroke-width: 1.5; stroke-linecap: square"/>
    </g>
    <g id="text_22">
     <!-- Train Accuracy -->
     <g transform="translate(244.18875 237.791812) scale(0.1 -0.1)">
      <defs>
       <path id="DejaVuSans-54" d="M -19 4666 
L 3928 4666 
L 3928 4134 
L 2272 4134 
L 2272 0 
L 1638 0 
L 1638 4134 
L -19 4134 
L -19 4666 
z
" transform="scale(0.015625)"/>
      </defs>
      <use xlink:href="#DejaVuSans-54"/>
      <use xlink:href="#DejaVuSans-72" x="46.333984"/>
      <use xlink:href="#DejaVuSans-61" x="87.447266"/>
      <use xlink:href="#DejaVuSans-69" x="148.726562"/>
      <use xlink:href="#DejaVuSans-6e" x="176.509766"/>
      <use xlink:href="#DejaVuSans-20" x="239.888672"/>
      <use xlink:href="#DejaVuSans-41" x="271.675781"/>
      <use xlink:href="#DejaVuSans-63" x="338.333984"/>
      <use xlink:href="#DejaVuSans-63" x="393.314453"/>
      <use xlink:href="#DejaVuSans-75" x="448.294922"/>
      <use xlink:href="#DejaVuSans-72" x="511.673828"/>
      <use xlink:href="#DejaVuSans-61" x="552.787109"/>
      <use xlink:href="#DejaVuSans-63" x="614.066406"/>
      <use xlink:href="#DejaVuSans-79" x="669.046875"/>
     </g>
    </g>
    <g id="line2d_25">
     <path d="M 216.18875 248.969937 
L 226.18875 248.969937 
L 236.18875 248.969937 
" style="fill: none; stroke: #ff7f0e; stroke-width: 1.5; stroke-linecap: square"/>
    </g>
    <g id="text_23">
     <!-- Validation Accuracy -->
     <g transform="translate(244.18875 252.469937) scale(0.1 -0.1)">
      <defs>
       <path id="DejaVuSans-56" d="M 1831 0 
L 50 4666 
L 709 4666 
L 2188 738 
L 3669 4666 
L 4325 4666 
L 2547 0 
L 1831 0 
z
" transform="scale(0.015625)"/>
       <path id="DejaVuSans-6c" d="M 603 4863 
L 1178 4863 
L 1178 0 
L 603 0 
L 603 4863 
z
" transform="scale(0.015625)"/>
       <path id="DejaVuSans-64" d="M 2906 2969 
L 2906 4863 
L 3481 4863 
L 3481 0 
L 2906 0 
L 2906 525 
Q 2725 213 2448 61 
Q 2172 -91 1784 -91 
Q 1150 -91 751 415 
Q 353 922 353 1747 
Q 353 2572 751 3078 
Q 1150 3584 1784 3584 
Q 2172 3584 2448 3432 
Q 2725 3281 2906 2969 
z
M 947 1747 
Q 947 1113 1208 752 
Q 1469 391 1925 391 
Q 2381 391 2643 752 
Q 2906 1113 2906 1747 
Q 2906 2381 2643 2742 
Q 2381 3103 1925 3103 
Q 1469 3103 1208 2742 
Q 947 2381 947 1747 
z
" transform="scale(0.015625)"/>
       <path id="DejaVuSans-74" d="M 1172 4494 
L 1172 3500 
L 2356 3500 
L 2356 3053 
L 1172 3053 
L 1172 1153 
Q 1172 725 1289 603 
Q 1406 481 1766 481 
L 2356 481 
L 2356 0 
L 1766 0 
Q 1100 0 847 248 
Q 594 497 594 1153 
L 594 3053 
L 172 3053 
L 172 3500 
L 594 3500 
L 594 4494 
L 1172 4494 
z
" transform="scale(0.015625)"/>
      </defs>
      <use xlink:href="#DejaVuSans-56"/>
      <use xlink:href="#DejaVuSans-61" x="60.658203"/>
      <use xlink:href="#DejaVuSans-6c" x="121.9375"/>
      <use xlink:href="#DejaVuSans-69" x="149.720703"/>
      <use xlink:href="#DejaVuSans-64" x="177.503906"/>
      <use xlink:href="#DejaVuSans-61" x="240.980469"/>
      <use xlink:href="#DejaVuSans-74" x="302.259766"/>
      <use xlink:href="#DejaVuSans-69" x="341.46875"/>
      <use xlink:href="#DejaVuSans-6f" x="369.251953"/>
      <use xlink:href="#DejaVuSans-6e" x="430.433594"/>
      <use xlink:href="#DejaVuSans-20" x="493.8125"/>
      <use xlink:href="#DejaVuSans-41" x="525.599609"/>
      <use xlink:href="#DejaVuSans-63" x="592.257812"/>
      <use xlink:href="#DejaVuSans-63" x="647.238281"/>
      <use xlink:href="#DejaVuSans-75" x="702.21875"/>
      <use xlink:href="#DejaVuSans-72" x="765.597656"/>
      <use xlink:href="#DejaVuSans-61" x="806.710938"/>
      <use xlink:href="#DejaVuSans-63" x="867.990234"/>
      <use xlink:href="#DejaVuSans-79" x="922.970703"/>
     </g>
    </g>
    <g id="line2d_26">
     <path d="M 216.18875 263.648062 
L 226.18875 263.648062 
L 236.18875 263.648062 
" style="fill: none; stroke: #2ca02c; stroke-width: 1.5; stroke-linecap: square"/>
    </g>
    <g id="text_24">
     <!-- Robust Validation Accuracy -->
     <g transform="translate(244.18875 267.148062) scale(0.1 -0.1)">
      <defs>
       <path id="DejaVuSans-52" d="M 2841 2188 
Q 3044 2119 3236 1894 
Q 3428 1669 3622 1275 
L 4263 0 
L 3584 0 
L 2988 1197 
Q 2756 1666 2539 1819 
Q 2322 1972 1947 1972 
L 1259 1972 
L 1259 0 
L 628 0 
L 628 4666 
L 2053 4666 
Q 2853 4666 3247 4331 
Q 3641 3997 3641 3322 
Q 3641 2881 3436 2590 
Q 3231 2300 2841 2188 
z
M 1259 4147 
L 1259 2491 
L 2053 2491 
Q 2509 2491 2742 2702 
Q 2975 2913 2975 3322 
Q 2975 3731 2742 3939 
Q 2509 4147 2053 4147 
L 1259 4147 
z
" transform="scale(0.015625)"/>
       <path id="DejaVuSans-62" d="M 3116 1747 
Q 3116 2381 2855 2742 
Q 2594 3103 2138 3103 
Q 1681 3103 1420 2742 
Q 1159 2381 1159 1747 
Q 1159 1113 1420 752 
Q 1681 391 2138 391 
Q 2594 391 2855 752 
Q 3116 1113 3116 1747 
z
M 1159 2969 
Q 1341 3281 1617 3432 
Q 1894 3584 2278 3584 
Q 2916 3584 3314 3078 
Q 3713 2572 3713 1747 
Q 3713 922 3314 415 
Q 2916 -91 2278 -91 
Q 1894 -91 1617 61 
Q 1341 213 1159 525 
L 1159 0 
L 581 0 
L 581 4863 
L 1159 4863 
L 1159 2969 
z
" transform="scale(0.015625)"/>
      </defs>
      <use xlink:href="#DejaVuSans-52"/>
      <use xlink:href="#DejaVuSans-6f" x="64.982422"/>
      <use xlink:href="#DejaVuSans-62" x="126.164062"/>
      <use xlink:href="#DejaVuSans-75" x="189.640625"/>
      <use xlink:href="#DejaVuSans-73" x="253.019531"/>
      <use xlink:href="#DejaVuSans-74" x="305.119141"/>
      <use xlink:href="#DejaVuSans-20" x="344.328125"/>
      <use xlink:href="#DejaVuSans-56" x="376.115234"/>
      <use xlink:href="#DejaVuSans-61" x="436.773438"/>
      <use xlink:href="#DejaVuSans-6c" x="498.052734"/>
      <use xlink:href="#DejaVuSans-69" x="525.835938"/>
      <use xlink:href="#DejaVuSans-64" x="553.619141"/>
      <use xlink:href="#DejaVuSans-61" x="617.095703"/>
      <use xlink:href="#DejaVuSans-74" x="678.375"/>
      <use xlink:href="#DejaVuSans-69" x="717.583984"/>
      <use xlink:href="#DejaVuSans-6f" x="745.367188"/>
      <use xlink:href="#DejaVuSans-6e" x="806.548828"/>
      <use xlink:href="#DejaVuSans-20" x="869.927734"/>
      <use xlink:href="#DejaVuSans-41" x="901.714844"/>
      <use xlink:href="#DejaVuSans-63" x="968.373047"/>
      <use xlink:href="#DejaVuSans-63" x="1023.353516"/>
      <use xlink:href="#DejaVuSans-75" x="1078.333984"/>
      <use xlink:href="#DejaVuSans-72" x="1141.712891"/>
      <use xlink:href="#DejaVuSans-61" x="1182.826172"/>
      <use xlink:href="#DejaVuSans-63" x="1244.105469"/>
      <use xlink:href="#DejaVuSans-79" x="1299.085938"/>
     </g>
    </g>
    <g id="line2d_27">
     <path d="M 216.18875 278.326188 
L 226.18875 278.326188 
L 236.18875 278.326188 
" style="fill: none; stroke: #d62728; stroke-width: 1.5; stroke-linecap: square"/>
    </g>
    <g id="text_25">
     <!-- SWA Validation Accuracy -->
     <g transform="translate(244.18875 281.826188) scale(0.1 -0.1)">
      <defs>
       <path id="DejaVuSans-53" d="M 3425 4513 
L 3425 3897 
Q 3066 4069 2747 4153 
Q 2428 4238 2131 4238 
Q 1616 4238 1336 4038 
Q 1056 3838 1056 3469 
Q 1056 3159 1242 3001 
Q 1428 2844 1947 2747 
L 2328 2669 
Q 3034 2534 3370 2195 
Q 3706 1856 3706 1288 
Q 3706 609 3251 259 
Q 2797 -91 1919 -91 
Q 1588 -91 1214 -16 
Q 841 59 441 206 
L 441 856 
Q 825 641 1194 531 
Q 1563 422 1919 422 
Q 2459 422 2753 634 
Q 3047 847 3047 1241 
Q 3047 1584 2836 1778 
Q 2625 1972 2144 2069 
L 1759 2144 
Q 1053 2284 737 2584 
Q 422 2884 422 3419 
Q 422 4038 858 4394 
Q 1294 4750 2059 4750 
Q 2388 4750 2728 4690 
Q 3069 4631 3425 4513 
z
" transform="scale(0.015625)"/>
       <path id="DejaVuSans-57" d="M 213 4666 
L 850 4666 
L 1831 722 
L 2809 4666 
L 3519 4666 
L 4500 722 
L 5478 4666 
L 6119 4666 
L 4947 0 
L 4153 0 
L 3169 4050 
L 2175 0 
L 1381 0 
L 213 4666 
z
" transform="scale(0.015625)"/>
      </defs>
      <use xlink:href="#DejaVuSans-53"/>
      <use xlink:href="#DejaVuSans-57" x="63.476562"/>
      <use xlink:href="#DejaVuSans-41" x="156.853516"/>
      <use xlink:href="#DejaVuSans-20" x="225.261719"/>
      <use xlink:href="#DejaVuSans-56" x="257.048828"/>
      <use xlink:href="#DejaVuSans-61" x="317.707031"/>
      <use xlink:href="#DejaVuSans-6c" x="378.986328"/>
      <use xlink:href="#DejaVuSans-69" x="406.769531"/>
      <use xlink:href="#DejaVuSans-64" x="434.552734"/>
      <use xlink:href="#DejaVuSans-61" x="498.029297"/>
      <use xlink:href="#DejaVuSans-74" x="559.308594"/>
      <use xlink:href="#DejaVuSans-69" x="598.517578"/>
      <use xlink:href="#DejaVuSans-6f" x="626.300781"/>
      <use xlink:href="#DejaVuSans-6e" x="687.482422"/>
      <use xlink:href="#DejaVuSans-20" x="750.861328"/>
      <use xlink:href="#DejaVuSans-41" x="782.648438"/>
      <use xlink:href="#DejaVuSans-63" x="849.306641"/>
      <use xlink:href="#DejaVuSans-63" x="904.287109"/>
      <use xlink:href="#DejaVuSans-75" x="959.267578"/>
      <use xlink:href="#DejaVuSans-72" x="1022.646484"/>
      <use xlink:href="#DejaVuSans-61" x="1063.759766"/>
      <use xlink:href="#DejaVuSans-63" x="1125.039062"/>
      <use xlink:href="#DejaVuSans-79" x="1180.019531"/>
     </g>
    </g>
    <g id="line2d_28">
     <path d="M 216.18875 293.004312 
L 226.18875 293.004312 
L 236.18875 293.004312 
" style="fill: none; stroke: #9467bd; stroke-width: 1.5; stroke-linecap: square"/>
    </g>
    <g id="text_26">
     <!-- SWA Robust Validation Accuracy -->
     <g transform="translate(244.18875 296.504312) scale(0.1 -0.1)">
      <use xlink:href="#DejaVuSans-53"/>
      <use xlink:href="#DejaVuSans-57" x="63.476562"/>
      <use xlink:href="#DejaVuSans-41" x="156.853516"/>
      <use xlink:href="#DejaVuSans-20" x="225.261719"/>
      <use xlink:href="#DejaVuSans-52" x="257.048828"/>
      <use xlink:href="#DejaVuSans-6f" x="322.03125"/>
      <use xlink:href="#DejaVuSans-62" x="383.212891"/>
      <use xlink:href="#DejaVuSans-75" x="446.689453"/>
      <use xlink:href="#DejaVuSans-73" x="510.068359"/>
      <use xlink:href="#DejaVuSans-74" x="562.167969"/>
      <use xlink:href="#DejaVuSans-20" x="601.376953"/>
      <use xlink:href="#DejaVuSans-56" x="633.164062"/>
      <use xlink:href="#DejaVuSans-61" x="693.822266"/>
      <use xlink:href="#DejaVuSans-6c" x="755.101562"/>
      <use xlink:href="#DejaVuSans-69" x="782.884766"/>
      <use xlink:href="#DejaVuSans-64" x="810.667969"/>
      <use xlink:href="#DejaVuSans-61" x="874.144531"/>
      <use xlink:href="#DejaVuSans-74" x="935.423828"/>
      <use xlink:href="#DejaVuSans-69" x="974.632812"/>
      <use xlink:href="#DejaVuSans-6f" x="1002.416016"/>
      <use xlink:href="#DejaVuSans-6e" x="1063.597656"/>
      <use xlink:href="#DejaVuSans-20" x="1126.976562"/>
      <use xlink:href="#DejaVuSans-41" x="1158.763672"/>
      <use xlink:href="#DejaVuSans-63" x="1225.421875"/>
      <use xlink:href="#DejaVuSans-63" x="1280.402344"/>
      <use xlink:href="#DejaVuSans-75" x="1335.382812"/>
      <use xlink:href="#DejaVuSans-72" x="1398.761719"/>
      <use xlink:href="#DejaVuSans-61" x="1439.875"/>
      <use xlink:href="#DejaVuSans-63" x="1501.154297"/>
      <use xlink:href="#DejaVuSans-79" x="1556.134766"/>
     </g>
    </g>
   </g>
  </g>
 </g>
 <defs>
  <clipPath id="p45c4e90fe2">
   <rect x="57.6" y="41.472" width="357.12" height="266.112"/>
  </clipPath>
 </defs>
</svg>
