<?xml version="1.0" encoding="utf-8" standalone="no"?>
<!DOCTYPE svg PUBLIC "-//W3C//DTD SVG 1.1//EN"
  "http://www.w3.org/Graphics/SVG/1.1/DTD/svg11.dtd">
<svg xmlns:xlink="http://www.w3.org/1999/xlink" width="460.8pt" height="345.6pt" viewBox="0 0 460.8 345.6" xmlns="http://www.w3.org/2000/svg" version="1.1">
 <metadata>
  <rdf:RDF xmlns:dc="http://purl.org/dc/elements/1.1/" xmlns:cc="http://creativecommons.org/ns#" xmlns:rdf="http://www.w3.org/1999/02/22-rdf-syntax-ns#">
   <cc:Work>
    <dc:type rdf:resource="http://purl.org/dc/dcmitype/StillImage"/>
    <dc:date>2025-01-25T14:51:38.861787</dc:date>
    <dc:format>image/svg+xml</dc:format>
    <dc:creator>
     <cc:Agent>
      <dc:title>Matplotlib v3.9.1, https://matplotlib.org/</dc:title>
     </cc:Agent>
    </dc:creator>
   </cc:Work>
  </rdf:RDF>
 </metadata>
 <defs>
  <style type="text/css">*{stroke-linejoin: round; stroke-linecap: butt}</style>
 </defs>
 <g id="figure_1">
  <g id="patch_1">
   <path d="M 0 345.6 
L 460.8 345.6 
L 460.8 0 
L 0 0 
z
" style="fill: #ffffff"/>
  </g>
  <g id="axes_1">
   <g id="patch_2">
    <path d="M 57.6 307.584 
L 414.72 307.584 
L 414.72 41.472 
L 57.6 41.472 
z
" style="fill: #ffffff"/>
   </g>
   <g id="matplotlib.axis_1">
    <g id="xtick_1">
     <g id="line2d_1">
      <defs>
       <path id="m41ca6bd9a6" d="M 0 0 
L 0 3.5 
" style="stroke: #000000; stroke-width: 0.8"/>
      </defs>
      <g>
       <use xlink:href="#m41ca6bd9a6" x="73.832727" y="307.584" style="stroke: #000000; stroke-width: 0.8"/>
      </g>
     </g>
     <g id="text_1">
      <!-- 1 -->
      <g transform="translate(70.651477 322.182437) scale(0.1 -0.1)">
       <defs>
        <path id="DejaVuSans-31" d="M 794 531 
L 1825 531 
L 1825 4091 
L 703 3866 
L 703 4441 
L 1819 4666 
L 2450 4666 
L 2450 531 
L 3481 531 
L 3481 0 
L 794 0 
L 794 531 
z
" transform="scale(0.015625)"/>
       </defs>
       <use xlink:href="#DejaVuSans-31"/>
      </g>
     </g>
    </g>
    <g id="xtick_2">
     <g id="line2d_2">
      <g>
       <use xlink:href="#m41ca6bd9a6" x="109.664165" y="307.584" style="stroke: #000000; stroke-width: 0.8"/>
      </g>
     </g>
     <g id="text_2">
      <!-- 34 -->
      <g transform="translate(103.301665 322.182437) scale(0.1 -0.1)">
       <defs>
        <path id="DejaVuSans-33" d="M 2597 2516 
Q 3050 2419 3304 2112 
Q 3559 1806 3559 1356 
Q 3559 666 3084 287 
Q 2609 -91 1734 -91 
Q 1441 -91 1130 -33 
Q 819 25 488 141 
L 488 750 
Q 750 597 1062 519 
Q 1375 441 1716 441 
Q 2309 441 2620 675 
Q 2931 909 2931 1356 
Q 2931 1769 2642 2001 
Q 2353 2234 1838 2234 
L 1294 2234 
L 1294 2753 
L 1863 2753 
Q 2328 2753 2575 2939 
Q 2822 3125 2822 3475 
Q 2822 3834 2567 4026 
Q 2313 4219 1838 4219 
Q 1578 4219 1281 4162 
Q 984 4106 628 3988 
L 628 4550 
Q 988 4650 1302 4700 
Q 1616 4750 1894 4750 
Q 2613 4750 3031 4423 
Q 3450 4097 3450 3541 
Q 3450 3153 3228 2886 
Q 3006 2619 2597 2516 
z
" transform="scale(0.015625)"/>
        <path id="DejaVuSans-34" d="M 2419 4116 
L 825 1625 
L 2419 1625 
L 2419 4116 
z
M 2253 4666 
L 3047 4666 
L 3047 1625 
L 3713 1625 
L 3713 1100 
L 3047 1100 
L 3047 0 
L 2419 0 
L 2419 1100 
L 313 1100 
L 313 1709 
L 2253 4666 
z
" transform="scale(0.015625)"/>
       </defs>
       <use xlink:href="#DejaVuSans-33"/>
       <use xlink:href="#DejaVuSans-34" x="63.623047"/>
      </g>
     </g>
    </g>
    <g id="xtick_3">
     <g id="line2d_3">
      <g>
       <use xlink:href="#m41ca6bd9a6" x="145.495604" y="307.584" style="stroke: #000000; stroke-width: 0.8"/>
      </g>
     </g>
     <g id="text_3">
      <!-- 67 -->
      <g transform="translate(139.133104 322.182437) scale(0.1 -0.1)">
       <defs>
        <path id="DejaVuSans-36" d="M 2113 2584 
Q 1688 2584 1439 2293 
Q 1191 2003 1191 1497 
Q 1191 994 1439 701 
Q 1688 409 2113 409 
Q 2538 409 2786 701 
Q 3034 994 3034 1497 
Q 3034 2003 2786 2293 
Q 2538 2584 2113 2584 
z
M 3366 4563 
L 3366 3988 
Q 3128 4100 2886 4159 
Q 2644 4219 2406 4219 
Q 1781 4219 1451 3797 
Q 1122 3375 1075 2522 
Q 1259 2794 1537 2939 
Q 1816 3084 2150 3084 
Q 2853 3084 3261 2657 
Q 3669 2231 3669 1497 
Q 3669 778 3244 343 
Q 2819 -91 2113 -91 
Q 1303 -91 875 529 
Q 447 1150 447 2328 
Q 447 3434 972 4092 
Q 1497 4750 2381 4750 
Q 2619 4750 2861 4703 
Q 3103 4656 3366 4563 
z
" transform="scale(0.015625)"/>
        <path id="DejaVuSans-37" d="M 525 4666 
L 3525 4666 
L 3525 4397 
L 1831 0 
L 1172 0 
L 2766 4134 
L 525 4134 
L 525 4666 
z
" transform="scale(0.015625)"/>
       </defs>
       <use xlink:href="#DejaVuSans-36"/>
       <use xlink:href="#DejaVuSans-37" x="63.623047"/>
      </g>
     </g>
    </g>
    <g id="xtick_4">
     <g id="line2d_4">
      <g>
       <use xlink:href="#m41ca6bd9a6" x="181.327042" y="307.584" style="stroke: #000000; stroke-width: 0.8"/>
      </g>
     </g>
     <g id="text_4">
      <!-- 100 -->
      <g transform="translate(171.783292 322.182437) scale(0.1 -0.1)">
       <defs>
        <path id="DejaVuSans-30" d="M 2034 4250 
Q 1547 4250 1301 3770 
Q 1056 3291 1056 2328 
Q 1056 1369 1301 889 
Q 1547 409 2034 409 
Q 2525 409 2770 889 
Q 3016 1369 3016 2328 
Q 3016 3291 2770 3770 
Q 2525 4250 2034 4250 
z
M 2034 4750 
Q 2819 4750 3233 4129 
Q 3647 3509 3647 2328 
Q 3647 1150 3233 529 
Q 2819 -91 2034 -91 
Q 1250 -91 836 529 
Q 422 1150 422 2328 
Q 422 3509 836 4129 
Q 1250 4750 2034 4750 
z
" transform="scale(0.015625)"/>
       </defs>
       <use xlink:href="#DejaVuSans-31"/>
       <use xlink:href="#DejaVuSans-30" x="63.623047"/>
       <use xlink:href="#DejaVuSans-30" x="127.246094"/>
      </g>
     </g>
    </g>
    <g id="xtick_5">
     <g id="line2d_5">
      <g>
       <use xlink:href="#m41ca6bd9a6" x="217.15848" y="307.584" style="stroke: #000000; stroke-width: 0.8"/>
      </g>
     </g>
     <g id="text_5">
      <!-- 133 -->
      <g transform="translate(207.61473 322.182437) scale(0.1 -0.1)">
       <use xlink:href="#DejaVuSans-31"/>
       <use xlink:href="#DejaVuSans-33" x="63.623047"/>
       <use xlink:href="#DejaVuSans-33" x="127.246094"/>
      </g>
     </g>
    </g>
    <g id="xtick_6">
     <g id="line2d_6">
      <g>
       <use xlink:href="#m41ca6bd9a6" x="254.075719" y="307.584" style="stroke: #000000; stroke-width: 0.8"/>
      </g>
     </g>
     <g id="text_6">
      <!-- 167 -->
      <g transform="translate(244.531969 322.182437) scale(0.1 -0.1)">
       <use xlink:href="#DejaVuSans-31"/>
       <use xlink:href="#DejaVuSans-36" x="63.623047"/>
       <use xlink:href="#DejaVuSans-37" x="127.246094"/>
      </g>
     </g>
    </g>
    <g id="xtick_7">
     <g id="line2d_7">
      <g>
       <use xlink:href="#m41ca6bd9a6" x="289.907157" y="307.584" style="stroke: #000000; stroke-width: 0.8"/>
      </g>
     </g>
     <g id="text_7">
      <!-- 200 -->
      <g transform="translate(280.363407 322.182437) scale(0.1 -0.1)">
       <defs>
        <path id="DejaVuSans-32" d="M 1228 531 
L 3431 531 
L 3431 0 
L 469 0 
L 469 531 
Q 828 903 1448 1529 
Q 2069 2156 2228 2338 
Q 2531 2678 2651 2914 
Q 2772 3150 2772 3378 
Q 2772 3750 2511 3984 
Q 2250 4219 1831 4219 
Q 1534 4219 1204 4116 
Q 875 4013 500 3803 
L 500 4441 
Q 881 4594 1212 4672 
Q 1544 4750 1819 4750 
Q 2544 4750 2975 4387 
Q 3406 4025 3406 3419 
Q 3406 3131 3298 2873 
Q 3191 2616 2906 2266 
Q 2828 2175 2409 1742 
Q 1991 1309 1228 531 
z
" transform="scale(0.015625)"/>
       </defs>
       <use xlink:href="#DejaVuSans-32"/>
       <use xlink:href="#DejaVuSans-30" x="63.623047"/>
       <use xlink:href="#DejaVuSans-30" x="127.246094"/>
      </g>
     </g>
    </g>
    <g id="xtick_8">
     <g id="line2d_8">
      <g>
       <use xlink:href="#m41ca6bd9a6" x="325.738595" y="307.584" style="stroke: #000000; stroke-width: 0.8"/>
      </g>
     </g>
     <g id="text_8">
      <!-- 233 -->
      <g transform="translate(316.194845 322.182437) scale(0.1 -0.1)">
       <use xlink:href="#DejaVuSans-32"/>
       <use xlink:href="#DejaVuSans-33" x="63.623047"/>
       <use xlink:href="#DejaVuSans-33" x="127.246094"/>
      </g>
     </g>
    </g>
    <g id="xtick_9">
     <g id="line2d_9">
      <g>
       <use xlink:href="#m41ca6bd9a6" x="361.570033" y="307.584" style="stroke: #000000; stroke-width: 0.8"/>
      </g>
     </g>
     <g id="text_9">
      <!-- 266 -->
      <g transform="translate(352.026283 322.182437) scale(0.1 -0.1)">
       <use xlink:href="#DejaVuSans-32"/>
       <use xlink:href="#DejaVuSans-36" x="63.623047"/>
       <use xlink:href="#DejaVuSans-36" x="127.246094"/>
      </g>
     </g>
    </g>
    <g id="xtick_10">
     <g id="line2d_10">
      <g>
       <use xlink:href="#m41ca6bd9a6" x="398.487273" y="307.584" style="stroke: #000000; stroke-width: 0.8"/>
      </g>
     </g>
     <g id="text_10">
      <!-- 300 -->
      <g transform="translate(388.943523 322.182437) scale(0.1 -0.1)">
       <use xlink:href="#DejaVuSans-33"/>
       <use xlink:href="#DejaVuSans-30" x="63.623047"/>
       <use xlink:href="#DejaVuSans-30" x="127.246094"/>
      </g>
     </g>
    </g>
    <g id="text_11">
     <!-- Epochs -->
     <g transform="translate(218.244375 335.860562) scale(0.1 -0.1)">
      <defs>
       <path id="DejaVuSans-45" d="M 628 4666 
L 3578 4666 
L 3578 4134 
L 1259 4134 
L 1259 2753 
L 3481 2753 
L 3481 2222 
L 1259 2222 
L 1259 531 
L 3634 531 
L 3634 0 
L 628 0 
L 628 4666 
z
" transform="scale(0.015625)"/>
       <path id="DejaVuSans-70" d="M 1159 525 
L 1159 -1331 
L 581 -1331 
L 581 3500 
L 1159 3500 
L 1159 2969 
Q 1341 3281 1617 3432 
Q 1894 3584 2278 3584 
Q 2916 3584 3314 3078 
Q 3713 2572 3713 1747 
Q 3713 922 3314 415 
Q 2916 -91 2278 -91 
Q 1894 -91 1617 61 
Q 1341 213 1159 525 
z
M 3116 1747 
Q 3116 2381 2855 2742 
Q 2594 3103 2138 3103 
Q 1681 3103 1420 2742 
Q 1159 2381 1159 1747 
Q 1159 1113 1420 752 
Q 1681 391 2138 391 
Q 2594 391 2855 752 
Q 3116 1113 3116 1747 
z
" transform="scale(0.015625)"/>
       <path id="DejaVuSans-6f" d="M 1959 3097 
Q 1497 3097 1228 2736 
Q 959 2375 959 1747 
Q 959 1119 1226 758 
Q 1494 397 1959 397 
Q 2419 397 2687 759 
Q 2956 1122 2956 1747 
Q 2956 2369 2687 2733 
Q 2419 3097 1959 3097 
z
M 1959 3584 
Q 2709 3584 3137 3096 
Q 3566 2609 3566 1747 
Q 3566 888 3137 398 
Q 2709 -91 1959 -91 
Q 1206 -91 779 398 
Q 353 888 353 1747 
Q 353 2609 779 3096 
Q 1206 3584 1959 3584 
z
" transform="scale(0.015625)"/>
       <path id="DejaVuSans-63" d="M 3122 3366 
L 3122 2828 
Q 2878 2963 2633 3030 
Q 2388 3097 2138 3097 
Q 1578 3097 1268 2742 
Q 959 2388 959 1747 
Q 959 1106 1268 751 
Q 1578 397 2138 397 
Q 2388 397 2633 464 
Q 2878 531 3122 666 
L 3122 134 
Q 2881 22 2623 -34 
Q 2366 -91 2075 -91 
Q 1284 -91 818 406 
Q 353 903 353 1747 
Q 353 2603 823 3093 
Q 1294 3584 2113 3584 
Q 2378 3584 2631 3529 
Q 2884 3475 3122 3366 
z
" transform="scale(0.015625)"/>
       <path id="DejaVuSans-68" d="M 3513 2113 
L 3513 0 
L 2938 0 
L 2938 2094 
Q 2938 2591 2744 2837 
Q 2550 3084 2163 3084 
Q 1697 3084 1428 2787 
Q 1159 2491 1159 1978 
L 1159 0 
L 581 0 
L 581 4863 
L 1159 4863 
L 1159 2956 
Q 1366 3272 1645 3428 
Q 1925 3584 2291 3584 
Q 2894 3584 3203 3211 
Q 3513 2838 3513 2113 
z
" transform="scale(0.015625)"/>
       <path id="DejaVuSans-73" d="M 2834 3397 
L 2834 2853 
Q 2591 2978 2328 3040 
Q 2066 3103 1784 3103 
Q 1356 3103 1142 2972 
Q 928 2841 928 2578 
Q 928 2378 1081 2264 
Q 1234 2150 1697 2047 
L 1894 2003 
Q 2506 1872 2764 1633 
Q 3022 1394 3022 966 
Q 3022 478 2636 193 
Q 2250 -91 1575 -91 
Q 1294 -91 989 -36 
Q 684 19 347 128 
L 347 722 
Q 666 556 975 473 
Q 1284 391 1588 391 
Q 1994 391 2212 530 
Q 2431 669 2431 922 
Q 2431 1156 2273 1281 
Q 2116 1406 1581 1522 
L 1381 1569 
Q 847 1681 609 1914 
Q 372 2147 372 2553 
Q 372 3047 722 3315 
Q 1072 3584 1716 3584 
Q 2034 3584 2315 3537 
Q 2597 3491 2834 3397 
z
" transform="scale(0.015625)"/>
      </defs>
      <use xlink:href="#DejaVuSans-45"/>
      <use xlink:href="#DejaVuSans-70" x="63.183594"/>
      <use xlink:href="#DejaVuSans-6f" x="126.660156"/>
      <use xlink:href="#DejaVuSans-63" x="187.841797"/>
      <use xlink:href="#DejaVuSans-68" x="242.822266"/>
      <use xlink:href="#DejaVuSans-73" x="306.201172"/>
     </g>
    </g>
   </g>
   <g id="matplotlib.axis_2">
    <g id="ytick_1">
     <g id="line2d_11">
      <defs>
       <path id="me8378c0c71" d="M 0 0 
L -3.5 0 
" style="stroke: #000000; stroke-width: 0.8"/>
      </defs>
      <g>
       <use xlink:href="#me8378c0c71" x="57.6" y="278.942836" style="stroke: #000000; stroke-width: 0.8"/>
      </g>
     </g>
     <g id="text_12">
      <!-- 20 -->
      <g transform="translate(37.875 282.742055) scale(0.1 -0.1)">
       <use xlink:href="#DejaVuSans-32"/>
       <use xlink:href="#DejaVuSans-30" x="63.623047"/>
      </g>
     </g>
    </g>
    <g id="ytick_2">
     <g id="line2d_12">
      <g>
       <use xlink:href="#me8378c0c71" x="57.6" y="222.428143" style="stroke: #000000; stroke-width: 0.8"/>
      </g>
     </g>
     <g id="text_13">
      <!-- 40 -->
      <g transform="translate(37.875 226.227362) scale(0.1 -0.1)">
       <use xlink:href="#DejaVuSans-34"/>
       <use xlink:href="#DejaVuSans-30" x="63.623047"/>
      </g>
     </g>
    </g>
    <g id="ytick_3">
     <g id="line2d_13">
      <g>
       <use xlink:href="#me8378c0c71" x="57.6" y="165.91345" style="stroke: #000000; stroke-width: 0.8"/>
      </g>
     </g>
     <g id="text_14">
      <!-- 60 -->
      <g transform="translate(37.875 169.712668) scale(0.1 -0.1)">
       <use xlink:href="#DejaVuSans-36"/>
       <use xlink:href="#DejaVuSans-30" x="63.623047"/>
      </g>
     </g>
    </g>
    <g id="ytick_4">
     <g id="line2d_14">
      <g>
       <use xlink:href="#me8378c0c71" x="57.6" y="109.398756" style="stroke: #000000; stroke-width: 0.8"/>
      </g>
     </g>
     <g id="text_15">
      <!-- 80 -->
      <g transform="translate(37.875 113.197975) scale(0.1 -0.1)">
       <defs>
        <path id="DejaVuSans-38" d="M 2034 2216 
Q 1584 2216 1326 1975 
Q 1069 1734 1069 1313 
Q 1069 891 1326 650 
Q 1584 409 2034 409 
Q 2484 409 2743 651 
Q 3003 894 3003 1313 
Q 3003 1734 2745 1975 
Q 2488 2216 2034 2216 
z
M 1403 2484 
Q 997 2584 770 2862 
Q 544 3141 544 3541 
Q 544 4100 942 4425 
Q 1341 4750 2034 4750 
Q 2731 4750 3128 4425 
Q 3525 4100 3525 3541 
Q 3525 3141 3298 2862 
Q 3072 2584 2669 2484 
Q 3125 2378 3379 2068 
Q 3634 1759 3634 1313 
Q 3634 634 3220 271 
Q 2806 -91 2034 -91 
Q 1263 -91 848 271 
Q 434 634 434 1313 
Q 434 1759 690 2068 
Q 947 2378 1403 2484 
z
M 1172 3481 
Q 1172 3119 1398 2916 
Q 1625 2713 2034 2713 
Q 2441 2713 2670 2916 
Q 2900 3119 2900 3481 
Q 2900 3844 2670 4047 
Q 2441 4250 2034 4250 
Q 1625 4250 1398 4047 
Q 1172 3844 1172 3481 
z
" transform="scale(0.015625)"/>
       </defs>
       <use xlink:href="#DejaVuSans-38"/>
       <use xlink:href="#DejaVuSans-30" x="63.623047"/>
      </g>
     </g>
    </g>
    <g id="ytick_5">
     <g id="line2d_15">
      <g>
       <use xlink:href="#me8378c0c71" x="57.6" y="52.884063" style="stroke: #000000; stroke-width: 0.8"/>
      </g>
     </g>
     <g id="text_16">
      <!-- 100 -->
      <g transform="translate(31.5125 56.683282) scale(0.1 -0.1)">
       <use xlink:href="#DejaVuSans-31"/>
       <use xlink:href="#DejaVuSans-30" x="63.623047"/>
       <use xlink:href="#DejaVuSans-30" x="127.246094"/>
      </g>
     </g>
    </g>
    <g id="text_17">
     <!-- Accuracy -->
     <g transform="translate(25.432812 197.356125) rotate(-90) scale(0.1 -0.1)">
      <defs>
       <path id="DejaVuSans-41" d="M 2188 4044 
L 1331 1722 
L 3047 1722 
L 2188 4044 
z
M 1831 4666 
L 2547 4666 
L 4325 0 
L 3669 0 
L 3244 1197 
L 1141 1197 
L 716 0 
L 50 0 
L 1831 4666 
z
" transform="scale(0.015625)"/>
       <path id="DejaVuSans-75" d="M 544 1381 
L 544 3500 
L 1119 3500 
L 1119 1403 
Q 1119 906 1312 657 
Q 1506 409 1894 409 
Q 2359 409 2629 706 
Q 2900 1003 2900 1516 
L 2900 3500 
L 3475 3500 
L 3475 0 
L 2900 0 
L 2900 538 
Q 2691 219 2414 64 
Q 2138 -91 1772 -91 
Q 1169 -91 856 284 
Q 544 659 544 1381 
z
M 1991 3584 
L 1991 3584 
z
" transform="scale(0.015625)"/>
       <path id="DejaVuSans-72" d="M 2631 2963 
Q 2534 3019 2420 3045 
Q 2306 3072 2169 3072 
Q 1681 3072 1420 2755 
Q 1159 2438 1159 1844 
L 1159 0 
L 581 0 
L 581 3500 
L 1159 3500 
L 1159 2956 
Q 1341 3275 1631 3429 
Q 1922 3584 2338 3584 
Q 2397 3584 2469 3576 
Q 2541 3569 2628 3553 
L 2631 2963 
z
" transform="scale(0.015625)"/>
       <path id="DejaVuSans-61" d="M 2194 1759 
Q 1497 1759 1228 1600 
Q 959 1441 959 1056 
Q 959 750 1161 570 
Q 1363 391 1709 391 
Q 2188 391 2477 730 
Q 2766 1069 2766 1631 
L 2766 1759 
L 2194 1759 
z
M 3341 1997 
L 3341 0 
L 2766 0 
L 2766 531 
Q 2569 213 2275 61 
Q 1981 -91 1556 -91 
Q 1019 -91 701 211 
Q 384 513 384 1019 
Q 384 1609 779 1909 
Q 1175 2209 1959 2209 
L 2766 2209 
L 2766 2266 
Q 2766 2663 2505 2880 
Q 2244 3097 1772 3097 
Q 1472 3097 1187 3025 
Q 903 2953 641 2809 
L 641 3341 
Q 956 3463 1253 3523 
Q 1550 3584 1831 3584 
Q 2591 3584 2966 3190 
Q 3341 2797 3341 1997 
z
" transform="scale(0.015625)"/>
       <path id="DejaVuSans-79" d="M 2059 -325 
Q 1816 -950 1584 -1140 
Q 1353 -1331 966 -1331 
L 506 -1331 
L 506 -850 
L 844 -850 
Q 1081 -850 1212 -737 
Q 1344 -625 1503 -206 
L 1606 56 
L 191 3500 
L 800 3500 
L 1894 763 
L 2988 3500 
L 3597 3500 
L 2059 -325 
z
" transform="scale(0.015625)"/>
      </defs>
      <use xlink:href="#DejaVuSans-41"/>
      <use xlink:href="#DejaVuSans-63" x="66.658203"/>
      <use xlink:href="#DejaVuSans-63" x="121.638672"/>
      <use xlink:href="#DejaVuSans-75" x="176.619141"/>
      <use xlink:href="#DejaVuSans-72" x="239.998047"/>
      <use xlink:href="#DejaVuSans-61" x="281.111328"/>
      <use xlink:href="#DejaVuSans-63" x="342.390625"/>
      <use xlink:href="#DejaVuSans-79" x="397.371094"/>
     </g>
    </g>
   </g>
   <g id="line2d_16">
    <path d="M 73.832727 293.918235 
L 74.918528 242.01814 
L 76.00433 202.134991 
L 77.090131 177.196718 
L 78.175932 161.211805 
L 79.261733 148.584402 
L 80.347534 139.156243 
L 81.433335 132.865151 
L 82.519137 125.737508 
L 83.604938 121.238218 
L 84.690739 116.201953 
L 85.77654 112.369644 
L 86.862341 107.452079 
L 87.948142 104.343273 
L 89.033943 100.539226 
L 90.119745 97.390853 
L 91.205546 95.259909 
L 92.291347 92.73895 
L 93.377148 90.675833 
L 94.462949 90.568438 
L 95.54875 117.236338 
L 96.634552 116.874586 
L 97.720353 114.845383 
L 98.806154 112.52791 
L 99.891955 110.510013 
L 100.977756 107.497298 
L 102.063557 105.69419 
L 104.23516 101.364472 
L 105.320961 99.533103 
L 107.492563 96.52604 
L 109.664165 92.151103 
L 110.749967 91.450209 
L 111.835768 89.019688 
L 112.921569 87.431371 
L 114.00737 85.136507 
L 115.093171 84.68997 
L 116.178972 82.496849 
L 117.264773 80.806789 
L 118.350575 79.715881 
L 119.436376 77.986254 
L 120.522177 76.013576 
L 121.607978 74.606135 
L 123.77958 71.23732 
L 124.865382 70.095541 
L 127.036984 67.128045 
L 128.122785 65.805389 
L 130.294387 64.279248 
L 131.380189 63.30704 
L 132.46599 62.967897 
L 133.551791 62.142651 
L 134.637592 61.509585 
L 135.723393 61.221314 
L 137.894995 60.961305 
L 138.980797 86.702215 
L 140.066598 90.432781 
L 141.152399 89.341873 
L 142.2382 89.149693 
L 143.324001 88.437493 
L 145.495604 86.538296 
L 146.581405 85.588697 
L 147.667206 84.944327 
L 148.753007 84.774755 
L 149.838808 84.463875 
L 150.924609 82.954691 
L 152.01041 82.101183 
L 153.096212 81.756388 
L 154.182013 80.637218 
L 155.267814 79.913714 
L 156.353615 79.631095 
L 157.439416 78.811501 
L 159.611019 77.517107 
L 160.69682 76.369676 
L 161.782621 76.036186 
L 162.868422 75.420077 
L 163.954223 74.645702 
L 165.040024 73.69045 
L 166.125825 73.159127 
L 167.211627 72.068219 
L 168.297428 71.949519 
L 169.383229 71.276887 
L 171.554831 69.649003 
L 173.726434 68.637228 
L 174.812235 68.298086 
L 175.898036 67.201525 
L 176.983837 66.817164 
L 179.155439 65.291023 
L 181.327042 64.618391 
L 185.670246 61.922208 
L 186.756047 61.939165 
L 187.841849 61.040438 
L 188.92765 60.441286 
L 190.013451 59.491688 
L 191.099252 59.248636 
L 192.185053 59.356031 
L 193.270854 58.321646 
L 194.356656 57.965547 
L 195.442457 57.914675 
L 197.614059 56.671153 
L 198.69986 57.04421 
L 199.785661 56.241573 
L 203.043065 55.761121 
L 204.128866 55.212841 
L 205.214667 54.947179 
L 206.300468 55.099793 
L 207.386269 54.918917 
L 208.472071 54.873698 
L 209.557872 54.681518 
L 210.643673 54.698475 
L 211.729474 54.483685 
L 212.815275 54.56847 
L 214.986877 54.189761 
L 217.15848 54.071061 
L 218.244281 54.167152 
L 219.330082 54.048452 
L 221.501684 54.059757 
L 222.587486 54.082366 
L 223.673287 53.974971 
L 224.759088 54.048452 
L 225.844889 71.870386 
L 226.93069 76.211409 
L 228.016491 76.889694 
L 229.102292 76.765342 
L 230.188094 76.465766 
L 231.273895 75.974009 
L 232.359696 75.92879 
L 233.445497 75.697043 
L 234.531298 74.820925 
L 235.617099 74.758749 
L 236.702901 74.820925 
L 238.874503 73.83176 
L 239.960304 73.447398 
L 241.046105 73.47566 
L 242.131906 72.92738 
L 243.217708 72.526061 
L 245.38931 72.554323 
L 246.475111 71.497329 
L 248.646713 71.502982 
L 249.732514 71.005573 
L 250.818316 70.728607 
L 251.904117 69.90336 
L 252.989918 70.47425 
L 255.16152 69.535956 
L 256.247321 69.705527 
L 257.333123 69.479432 
L 258.418924 68.99898 
L 259.504725 68.931152 
L 261.676327 68.043729 
L 262.762128 67.840244 
L 263.847929 67.506754 
L 264.933731 67.314573 
L 267.105333 67.478492 
L 268.191134 67.393706 
L 269.276935 66.381931 
L 270.362736 66.268884 
L 271.448538 66.30845 
L 272.534339 66.150184 
L 273.62014 65.861913 
L 274.705941 65.726256 
L 276.877543 64.720133 
L 277.963344 65.087538 
L 279.049146 64.872747 
L 280.134947 65.087538 
L 281.220748 64.431862 
L 282.306549 64.222724 
L 283.39235 63.838363 
L 284.478151 64.09272 
L 286.649754 63.369216 
L 289.907157 62.787022 
L 290.992958 63.250516 
L 292.07876 61.763942 
L 294.250362 62.057865 
L 296.421964 62.120041 
L 297.507765 61.447409 
L 298.593566 61.549152 
L 299.679368 60.198234 
L 300.765169 60.814343 
L 302.936771 60.605205 
L 304.022572 60.26041 
L 305.108373 60.209539 
L 306.194175 59.83083 
L 307.279976 59.627345 
L 308.365777 59.73474 
L 310.537379 59.49734 
L 311.62318 58.643832 
L 313.794783 58.988626 
L 314.880584 58.451651 
L 315.966385 58.152075 
L 317.052186 58.293384 
L 319.223788 57.490747 
L 320.30959 57.535966 
L 321.395391 57.451181 
L 322.481192 57.68858 
L 323.566993 57.038557 
L 324.652794 57.213781 
L 325.738595 56.970729 
L 326.824396 56.953772 
L 327.910198 56.535496 
L 328.995999 56.462015 
L 330.0818 56.705067 
L 331.167601 55.970259 
L 332.253402 56.241573 
L 333.339203 55.71025 
L 334.425005 55.631116 
L 335.510806 55.681988 
L 336.596607 55.512417 
L 340.939811 55.195884 
L 342.025613 54.930222 
L 352.883624 54.093671 
L 353.969425 54.189761 
L 355.055227 54.008885 
L 357.226829 53.986276 
L 358.31263 53.833662 
L 359.398431 53.861923 
L 360.484232 53.681047 
L 361.570033 53.935404 
L 363.741636 53.709309 
L 364.827437 53.844966 
L 365.913238 53.590609 
L 366.999039 53.568 
L 368.08484 53.692352 
L 369.170642 53.681047 
L 370.256443 53.844966 
L 372.428045 54.585427 
L 373.513846 54.59108 
L 374.599647 54.721084 
L 375.685448 54.969789 
L 376.77125 54.438466 
L 377.857051 54.732389 
L 383.286057 54.715432 
L 384.371858 54.868046 
L 388.715062 54.709779 
L 394.144068 55.060227 
L 395.229869 54.800217 
L 397.401472 54.879351 
L 398.487273 55.031965 
L 398.487273 55.031965 
" clip-path="url(#p7000d528ae)" style="fill: none; stroke: #1f77b4; stroke-width: 1.5; stroke-linecap: square"/>
   </g>
   <g id="line2d_17">
    <path d="M 73.832727 286.544063 
L 74.918528 257.467253 
L 76.00433 231.470494 
L 78.175932 200.811273 
L 79.261733 189.225761 
L 80.347534 181.483248 
L 81.433335 178.064109 
L 84.690739 165.856935 
L 86.862341 156.192922 
L 87.948142 153.423702 
L 90.119745 149.72199 
L 91.205546 144.494381 
L 92.291347 142.572881 
L 93.377148 143.448859 
L 94.462949 143.816204 
L 95.54875 169.360846 
L 96.634552 164.104979 
L 97.720353 166.591626 
L 98.806154 166.676398 
L 99.891955 165.348303 
L 100.977756 160.346752 
L 102.063557 163.229002 
L 103.149358 157.803591 
L 104.23516 157.577532 
L 105.320961 156.701555 
L 106.406762 154.101879 
L 107.492563 143.2228 
L 108.578364 149.354644 
L 109.664165 148.987299 
L 110.749967 142.007734 
L 111.835768 140.594867 
L 112.921569 145.087785 
L 114.00737 143.731432 
L 115.093171 138.927683 
L 116.178972 137.147471 
L 117.264773 134.406508 
L 118.350575 140.538352 
L 119.436376 134.039162 
L 120.522177 132.004634 
L 121.607978 133.134927 
L 122.693779 129.461472 
L 123.77958 129.828818 
L 124.865382 129.48973 
L 125.951183 131.411229 
L 127.036984 126.748767 
L 128.122785 127.539973 
L 129.208586 127.14437 
L 130.294387 125.872789 
L 131.380189 124.262121 
L 132.46599 125.392414 
L 133.551791 124.262121 
L 134.637592 126.18362 
L 135.723393 124.177348 
L 136.809194 123.753488 
L 137.894995 124.431665 
L 138.980797 144.18355 
L 140.066598 146.41588 
L 141.152399 148.083064 
L 142.2382 144.268322 
L 143.324001 146.585424 
L 144.409802 143.420602 
L 145.495604 141.979477 
L 146.581405 137.966934 
L 147.667206 143.787947 
L 148.753007 143.109771 
L 149.838808 139.860176 
L 150.924609 140.199264 
L 152.01041 140.736154 
L 154.182013 138.532081 
L 155.267814 137.966934 
L 156.353615 135.649831 
L 157.439416 130.789568 
L 158.525217 135.621574 
L 159.611019 138.249507 
L 160.69682 134.576052 
L 161.782621 134.06742 
L 162.868422 136.667096 
L 163.954223 132.541523 
L 165.040024 134.265221 
L 166.125825 132.824097 
L 167.211627 133.700074 
L 168.297428 132.343722 
L 169.383229 128.839811 
L 170.46903 132.315464 
L 171.554831 128.839811 
L 172.640632 131.241685 
L 173.726434 131.382972 
L 174.812235 134.943398 
L 175.898036 128.133377 
L 176.983837 126.748767 
L 178.069638 131.213428 
L 179.155439 126.409679 
L 180.24124 127.624745 
L 181.327042 125.985819 
L 182.412843 123.894775 
L 183.498644 124.742495 
L 184.584445 123.047055 
L 185.670246 125.477186 
L 186.756047 124.516437 
L 187.841849 124.120834 
L 188.92765 125.618473 
L 190.013451 125.025069 
L 191.099252 123.273113 
L 192.185053 122.368878 
L 193.270854 122.312364 
L 194.356656 120.814724 
L 195.442457 122.255849 
L 196.528258 122.171077 
L 197.614059 120.871239 
L 198.69986 120.786467 
L 199.785661 119.006254 
L 200.871462 119.288828 
L 201.957264 118.525879 
L 203.043065 119.119283 
L 204.128866 118.667166 
L 205.214667 116.547865 
L 206.300468 117.678159 
L 207.386269 116.576122 
L 208.472071 116.293549 
L 209.557872 115.163255 
L 210.643673 116.632637 
L 211.729474 115.10674 
L 213.901076 115.64363 
L 214.986877 114.993711 
L 216.072679 114.654623 
L 217.15848 115.050226 
L 218.244281 114.513336 
L 219.330082 114.626365 
L 220.415883 115.191512 
L 221.501684 115.5306 
L 222.587486 114.400307 
L 223.673287 114.993711 
L 224.759088 114.795909 
L 225.844889 143.364087 
L 226.93069 133.10667 
L 228.016491 139.379801 
L 229.102292 144.889984 
L 230.188094 141.329558 
L 231.273895 140.114492 
L 232.359696 138.22125 
L 233.445497 139.60586 
L 234.531298 138.192992 
L 235.617099 133.95439 
L 236.702901 132.14592 
L 237.788702 138.616853 
L 238.874503 137.712618 
L 239.960304 135.141199 
L 241.046105 135.056427 
L 242.131906 137.627846 
L 243.217708 138.532081 
L 244.303509 138.419051 
L 245.38931 138.503823 
L 246.475111 136.186721 
L 247.560912 135.056427 
L 248.646713 134.999912 
L 249.732514 138.362537 
L 250.818316 129.998362 
L 251.904117 134.349993 
L 252.989918 135.621574 
L 254.075719 135.310743 
L 255.16152 135.932405 
L 256.247321 133.417501 
L 257.333123 136.469294 
L 258.418924 131.693803 
L 259.504725 134.547795 
L 260.590526 135.988919 
L 261.676327 134.660824 
L 262.762128 132.767582 
L 263.847929 135.395515 
L 264.933731 134.943398 
L 266.019532 133.360986 
L 267.105333 135.056427 
L 268.191134 132.14592 
L 269.276935 132.56978 
L 270.362736 130.704796 
L 271.448538 133.756589 
L 272.534339 131.015626 
L 273.62014 130.733053 
L 274.705941 134.265221 
L 275.791742 128.585495 
L 276.877543 133.558788 
L 277.963344 131.213428 
L 279.049146 130.535251 
L 280.134947 132.626295 
L 281.220748 130.817825 
L 282.306549 131.72206 
L 283.39235 131.552516 
L 284.478151 129.433215 
L 285.563953 128.783296 
L 286.649754 130.817825 
L 287.735555 128.670267 
L 288.821356 129.461472 
L 289.907157 127.087855 
L 290.992958 130.365707 
L 292.07876 126.60748 
L 293.164561 130.393965 
L 294.250362 129.178899 
L 295.336163 132.654552 
L 296.421964 131.18517 
L 297.507765 128.896325 
L 299.679368 127.935576 
L 300.765169 125.477186 
L 301.85097 126.748767 
L 302.936771 130.393965 
L 304.022572 128.020348 
L 305.108373 126.833539 
L 306.194175 123.810003 
L 308.365777 124.940297 
L 309.451578 128.218149 
L 310.537379 123.386143 
L 311.62318 125.3359 
L 313.794783 126.353164 
L 314.880584 124.714238 
L 315.966385 122.114562 
L 317.052186 122.594937 
L 318.137987 125.816275 
L 319.223788 124.318635 
L 320.30959 124.346893 
L 321.395391 122.934025 
L 322.481192 121.153812 
L 323.566993 121.012526 
L 324.652794 120.75821 
L 325.738595 125.166356 
L 326.824396 119.288828 
L 327.910198 121.379871 
L 328.995999 121.18207 
L 331.167601 122.425393 
L 332.253402 119.006254 
L 333.339203 119.882232 
L 334.425005 118.045504 
L 335.510806 119.288828 
L 336.596607 118.610651 
L 337.682408 117.02824 
L 338.768209 118.073762 
L 339.85401 116.717409 
L 340.939811 119.317085 
L 342.025613 117.621644 
L 343.111414 118.751938 
L 344.197215 115.841431 
L 345.283016 116.124005 
L 346.368817 115.813174 
L 347.454618 117.904218 
L 348.54042 116.293549 
L 349.626221 115.417571 
L 350.712022 114.202505 
L 351.797823 114.852424 
L 352.883624 114.315534 
L 353.969425 114.852424 
L 355.055227 114.089476 
L 356.141028 114.795909 
L 357.226829 112.45055 
L 358.31263 112.591836 
L 360.484232 113.83516 
L 361.570033 113.29827 
L 362.655835 113.128726 
L 363.741636 113.185241 
L 364.827437 112.45055 
L 365.913238 112.620094 
L 366.999039 112.281006 
L 368.08484 112.87441 
L 369.170642 112.676608 
L 370.256443 113.015697 
L 371.342244 115.10674 
L 372.428045 114.456821 
L 373.513846 116.321806 
L 374.599647 117.565129 
L 375.685448 118.441107 
L 376.77125 118.41285 
L 377.857051 118.497622 
L 378.942852 116.293549 
L 380.028653 117.282556 
L 381.114454 116.802181 
L 382.200255 115.954461 
L 383.286057 117.678159 
L 384.371858 117.056497 
L 385.457659 117.678159 
L 386.54346 118.723681 
L 387.629261 118.29982 
L 388.715062 117.367328 
L 389.800863 118.864967 
L 390.886665 118.045504 
L 391.972466 118.29982 
L 393.058267 119.68443 
L 394.144068 119.769202 
L 395.229869 116.689152 
L 396.31567 118.441107 
L 398.487273 117.904218 
L 398.487273 117.904218 
" clip-path="url(#p7000d528ae)" style="fill: none; stroke: #ff7f0e; stroke-width: 1.5; stroke-linecap: square"/>
   </g>
   <g id="line2d_18">
    <path d="M 73.832727 295.488 
L 74.918528 268.809167 
L 76.00433 253.764566 
L 77.090131 253.628151 
L 78.175932 254.992299 
L 79.261733 246.456632 
L 80.347534 242.44214 
L 81.433335 241.72109 
L 82.519137 236.108596 
L 83.604938 235.699352 
L 84.690739 230.574054 
L 85.77654 234.393668 
L 86.862341 222.038386 
L 87.948142 230.496103 
L 89.033943 224.104096 
L 90.119745 227.085733 
L 91.205546 221.102971 
L 92.291347 219.388042 
L 93.377148 219.076237 
L 94.462949 219.68036 
L 95.54875 236.537328 
L 96.634552 224.493852 
L 97.720353 240.590796 
L 98.806154 230.125834 
L 99.891955 236.34245 
L 100.977756 229.287857 
L 102.063557 226.364684 
L 103.149358 226.598538 
L 104.23516 232.347446 
L 105.320961 229.736077 
L 106.406762 229.755565 
L 107.492563 213.366304 
L 108.578364 226.481611 
L 109.664165 224.415901 
L 110.749967 223.149192 
L 111.835768 224.474365 
L 112.921569 218.433139 
L 114.00737 220.771678 
L 115.093171 220.12858 
L 116.178972 217.88748 
L 117.264773 218.06287 
L 118.350575 221.804533 
L 119.436376 215.432014 
L 120.522177 210.209276 
L 121.607978 214.126329 
L 122.693779 213.385792 
L 123.77958 211.729327 
L 124.865382 217.61465 
L 125.951183 214.944818 
L 127.036984 215.003281 
L 128.122785 214.92533 
L 129.208586 207.75381 
L 130.294387 210.26774 
L 131.380189 205.707589 
L 132.46599 207.30559 
L 133.551791 207.636884 
L 134.637592 208.47486 
L 135.723393 207.442005 
L 136.809194 209.312837 
L 137.894995 208.182543 
L 138.980797 220.654751 
L 140.066598 225.078487 
L 141.152399 226.013903 
L 142.2382 226.052878 
L 143.324001 225.896976 
L 144.409802 228.196539 
L 145.495604 227.417026 
L 146.581405 221.005532 
L 147.667206 227.826271 
L 148.753007 225.741073 
L 149.838808 226.520586 
L 150.924609 226.228269 
L 152.01041 218.569554 
L 153.096212 225.000536 
L 154.182013 219.992165 
L 155.267814 217.731577 
L 156.353615 218.433139 
L 157.439416 216.913088 
L 158.525217 220.401409 
L 159.611019 219.076237 
L 160.69682 218.608529 
L 161.782621 220.47936 
L 162.868422 220.947068 
L 163.954223 217.16643 
L 165.040024 215.237135 
L 166.125825 209.858496 
L 167.211627 222.856875 
L 168.297428 220.557312 
L 169.383229 214.47711 
L 170.46903 222.077362 
L 171.554831 217.517211 
L 172.640632 225.390292 
L 173.726434 220.635263 
L 174.812235 222.369679 
L 175.898036 209.3713 
L 176.983837 208.884104 
L 178.069638 222.447631 
L 179.155439 215.354062 
L 180.24124 213.950939 
L 181.327042 215.802282 
L 182.412843 206.623517 
L 183.498644 207.052249 
L 184.584445 211.963181 
L 185.670246 212.352937 
L 186.756047 214.379671 
L 187.841849 212.333449 
L 188.92765 212.450376 
L 190.013451 216.71821 
L 191.099252 213.892475 
L 192.185053 207.480981 
L 193.270854 212.918084 
L 194.356656 212.547816 
L 195.442457 209.234885 
L 196.528258 204.323953 
L 197.614059 207.519957 
L 198.69986 212.197035 
L 199.785661 212.547816 
L 200.871462 205.746564 
L 201.957264 210.871863 
L 203.043065 209.566178 
L 204.128866 210.209276 
L 205.214667 212.352937 
L 206.300468 206.974297 
L 207.386269 207.032761 
L 208.472071 206.292224 
L 209.557872 206.604029 
L 210.643673 204.772173 
L 211.729474 202.531073 
L 212.815275 207.325078 
L 213.901076 205.78554 
L 216.072679 204.674734 
L 217.15848 205.454247 
L 218.244281 205.629638 
L 219.330082 204.967051 
L 220.415883 205.16193 
L 221.501684 206.935322 
L 222.587486 204.908588 
L 223.673287 206.896346 
L 224.759088 203.856245 
L 225.844889 228.021149 
L 226.93069 220.635263 
L 228.016491 220.732702 
L 229.102292 226.013903 
L 230.188094 221.356313 
L 231.273895 224.182047 
L 232.359696 222.213777 
L 233.445497 226.111342 
L 234.531298 218.121334 
L 235.617099 222.408655 
L 237.788702 213.483231 
L 238.874503 224.981048 
L 239.960304 227.124709 
L 241.046105 219.115213 
L 242.131906 226.30622 
L 243.217708 221.882484 
L 244.303509 222.194289 
L 245.38931 225.312341 
L 246.475111 222.311216 
L 247.560912 226.676489 
L 248.646713 221.901972 
L 249.732514 222.135826 
L 250.818316 215.743819 
L 251.904117 227.709344 
L 252.989918 213.795036 
L 254.075719 226.462123 
L 255.16152 219.23214 
L 256.247321 222.837387 
L 257.333123 231.002786 
L 258.418924 222.642509 
L 259.504725 219.446506 
L 260.590526 229.248882 
L 261.676327 216.114088 
L 262.762128 226.832391 
L 263.847929 217.848504 
L 264.933731 214.905842 
L 266.019532 226.695977 
L 267.105333 221.239386 
L 268.191134 225.858 
L 269.276935 224.747194 
L 270.362736 212.547816 
L 271.448538 224.922585 
L 272.534339 218.3357 
L 273.62014 220.615775 
L 274.705941 220.518336 
L 275.791742 218.842383 
L 276.877543 226.618025 
L 277.963344 220.362433 
L 279.049146 216.26999 
L 280.134947 220.810653 
L 281.220748 201.30334 
L 282.306549 224.104096 
L 283.39235 216.54282 
L 284.478151 222.155313 
L 285.563953 215.139696 
L 286.649754 219.251627 
L 287.735555 218.452627 
L 288.821356 210.326203 
L 289.907157 215.977673 
L 290.992958 215.529453 
L 292.07876 217.926455 
L 293.164561 219.017774 
L 294.250362 220.362433 
L 295.336163 218.978798 
L 296.421964 215.178672 
L 297.507765 216.971552 
L 298.593566 217.322333 
L 299.679368 219.193164 
L 300.765169 219.563433 
L 301.85097 217.673114 
L 302.936771 228.566808 
L 304.022572 221.921459 
L 305.108373 216.523332 
L 306.194175 212.68423 
L 307.279976 213.8535 
L 308.365777 217.770553 
L 309.451578 225.312341 
L 310.537379 213.619646 
L 311.62318 216.211527 
L 312.708981 216.075112 
L 313.794783 211.105716 
L 314.880584 216.133575 
L 315.966385 212.138571 
L 317.052186 213.58067 
L 318.137987 214.438135 
L 319.223788 221.570679 
L 320.30959 214.944818 
L 321.395391 211.242131 
L 322.481192 212.041132 
L 323.566993 212.216522 
L 324.652794 208.182543 
L 325.738595 208.396909 
L 326.824396 208.416397 
L 327.910198 210.638009 
L 328.995999 208.143567 
L 330.0818 213.931451 
L 331.167601 210.910838 
L 332.253402 212.528328 
L 333.339203 205.902467 
L 334.425005 213.054499 
L 335.510806 209.215397 
L 336.596607 213.463743 
L 337.682408 204.772173 
L 338.768209 209.176422 
L 339.85401 205.668613 
L 340.939811 205.590662 
L 342.025613 208.533323 
L 343.111414 206.857371 
L 344.197215 204.791661 
L 345.283016 206.837883 
L 346.368817 210.150813 
L 347.454618 204.616271 
L 348.54042 210.599033 
L 349.626221 202.19978 
L 350.712022 202.180292 
L 351.797823 207.636884 
L 352.883624 205.668613 
L 353.969425 207.714835 
L 356.141028 208.007152 
L 357.226829 201.712585 
L 358.31263 202.063365 
L 359.398431 202.550561 
L 360.484232 202.102341 
L 361.570033 203.408025 
L 363.741636 203.213147 
L 364.827437 200.289973 
L 365.913238 200.601779 
L 366.999039 197.776044 
L 368.08484 200.056119 
L 369.170642 206.662492 
L 370.256443 201.57617 
L 371.342244 203.680855 
L 372.428045 201.654121 
L 373.513846 206.097345 
L 374.599647 211.437009 
L 375.685448 206.370175 
L 376.77125 208.767177 
L 377.857051 211.807278 
L 378.942852 203.739318 
L 380.028653 204.635758 
L 381.114454 207.247127 
L 382.200255 204.070611 
L 383.286057 206.974297 
L 384.371858 208.806153 
L 385.457659 206.623517 
L 386.54346 208.845129 
L 387.629261 210.365179 
L 388.715062 205.220393 
L 389.800863 210.521082 
L 390.886665 212.119083 
L 391.972466 209.81952 
L 393.058267 214.555062 
L 394.144068 208.455372 
L 395.229869 209.020519 
L 396.31567 210.832887 
L 397.401472 209.624642 
L 398.487273 211.066741 
L 398.487273 211.066741 
" clip-path="url(#p7000d528ae)" style="fill: none; stroke: #2ca02c; stroke-width: 1.5; stroke-linecap: square"/>
   </g>
   <g id="line2d_19">
    <path d="M 368.08484 112.309263 
L 369.170642 111.546315 
L 370.256443 112.111461 
L 371.342244 114.14599 
L 372.428045 115.671887 
L 373.513846 115.050226 
L 374.599647 116.350063 
L 375.685448 117.113012 
L 376.77125 114.795909 
L 377.857051 114.569851 
L 378.942852 116.717409 
L 380.028653 114.908939 
L 381.114454 119.514886 
L 382.200255 116.010975 
L 383.286057 119.288828 
M 385.457659 118.017247 
L 386.54346 122.764481 
L 387.629261 121.040783 
L 388.715062 122.227592 
L 389.800863 120.560408 
L 390.886665 124.431665 
L 391.972466 120.532151 
L 393.058267 122.679709 
L 394.144068 128.981097 
L 395.229869 124.431665 
L 396.31567 124.092576 
L 397.401472 127.257399 
L 398.487273 128.41595 
L 398.487273 128.41595 
" clip-path="url(#p7000d528ae)" style="fill: none; stroke: #d62728; stroke-width: 1.5; stroke-linecap: square"/>
   </g>
   <g id="line2d_20">
    <path d="M 368.08484 200.816145 
L 369.170642 196.879604 
L 371.342244 202.881854 
L 372.428045 202.453122 
L 373.513846 200.543315 
L 374.599647 202.706464 
L 375.685448 208.104591 
L 376.77125 208.046128 
L 377.857051 202.979293 
L 378.942852 203.583416 
L 380.028653 197.522702 
L 381.114454 201.634633 
L 382.200255 201.556682 
L 383.286057 202.842879 
L 384.371858 205.025515 
L 385.457659 204.694222 
L 386.54346 210.735448 
L 387.629261 209.449251 
L 388.715062 216.386917 
L 389.800863 211.6124 
L 390.886665 218.316212 
L 391.972466 207.948689 
L 393.058267 211.6124 
L 394.144068 217.809528 
L 395.229869 215.393038 
L 396.31567 216.874113 
L 397.401472 218.78392 
L 398.487273 214.983794 
L 398.487273 214.983794 
" clip-path="url(#p7000d528ae)" style="fill: none; stroke: #9467bd; stroke-width: 1.5; stroke-linecap: square"/>
   </g>
   <g id="patch_3">
    <path d="M 57.6 307.584 
L 57.6 41.472 
" style="fill: none; stroke: #000000; stroke-width: 0.8; stroke-linejoin: miter; stroke-linecap: square"/>
   </g>
   <g id="patch_4">
    <path d="M 414.72 307.584 
L 414.72 41.472 
" style="fill: none; stroke: #000000; stroke-width: 0.8; stroke-linejoin: miter; stroke-linecap: square"/>
   </g>
   <g id="patch_5">
    <path d="M 57.6 307.584 
L 414.72 307.584 
" style="fill: none; stroke: #000000; stroke-width: 0.8; stroke-linejoin: miter; stroke-linecap: square"/>
   </g>
   <g id="patch_6">
    <path d="M 57.6 41.472 
L 414.72 41.472 
" style="fill: none; stroke: #000000; stroke-width: 0.8; stroke-linejoin: miter; stroke-linecap: square"/>
   </g>
   <g id="text_18">
    <!-- Learning Curves -->
    <g transform="translate(187.37625 35.472) scale(0.12 -0.12)">
     <defs>
      <path id="DejaVuSans-4c" d="M 628 4666 
L 1259 4666 
L 1259 531 
L 3531 531 
L 3531 0 
L 628 0 
L 628 4666 
z
" transform="scale(0.015625)"/>
      <path id="DejaVuSans-65" d="M 3597 1894 
L 3597 1613 
L 953 1613 
Q 991 1019 1311 708 
Q 1631 397 2203 397 
Q 2534 397 2845 478 
Q 3156 559 3463 722 
L 3463 178 
Q 3153 47 2828 -22 
Q 2503 -91 2169 -91 
Q 1331 -91 842 396 
Q 353 884 353 1716 
Q 353 2575 817 3079 
Q 1281 3584 2069 3584 
Q 2775 3584 3186 3129 
Q 3597 2675 3597 1894 
z
M 3022 2063 
Q 3016 2534 2758 2815 
Q 2500 3097 2075 3097 
Q 1594 3097 1305 2825 
Q 1016 2553 972 2059 
L 3022 2063 
z
" transform="scale(0.015625)"/>
      <path id="DejaVuSans-6e" d="M 3513 2113 
L 3513 0 
L 2938 0 
L 2938 2094 
Q 2938 2591 2744 2837 
Q 2550 3084 2163 3084 
Q 1697 3084 1428 2787 
Q 1159 2491 1159 1978 
L 1159 0 
L 581 0 
L 581 3500 
L 1159 3500 
L 1159 2956 
Q 1366 3272 1645 3428 
Q 1925 3584 2291 3584 
Q 2894 3584 3203 3211 
Q 3513 2838 3513 2113 
z
" transform="scale(0.015625)"/>
      <path id="DejaVuSans-69" d="M 603 3500 
L 1178 3500 
L 1178 0 
L 603 0 
L 603 3500 
z
M 603 4863 
L 1178 4863 
L 1178 4134 
L 603 4134 
L 603 4863 
z
" transform="scale(0.015625)"/>
      <path id="DejaVuSans-67" d="M 2906 1791 
Q 2906 2416 2648 2759 
Q 2391 3103 1925 3103 
Q 1463 3103 1205 2759 
Q 947 2416 947 1791 
Q 947 1169 1205 825 
Q 1463 481 1925 481 
Q 2391 481 2648 825 
Q 2906 1169 2906 1791 
z
M 3481 434 
Q 3481 -459 3084 -895 
Q 2688 -1331 1869 -1331 
Q 1566 -1331 1297 -1286 
Q 1028 -1241 775 -1147 
L 775 -588 
Q 1028 -725 1275 -790 
Q 1522 -856 1778 -856 
Q 2344 -856 2625 -561 
Q 2906 -266 2906 331 
L 2906 616 
Q 2728 306 2450 153 
Q 2172 0 1784 0 
Q 1141 0 747 490 
Q 353 981 353 1791 
Q 353 2603 747 3093 
Q 1141 3584 1784 3584 
Q 2172 3584 2450 3431 
Q 2728 3278 2906 2969 
L 2906 3500 
L 3481 3500 
L 3481 434 
z
" transform="scale(0.015625)"/>
      <path id="DejaVuSans-20" transform="scale(0.015625)"/>
      <path id="DejaVuSans-43" d="M 4122 4306 
L 4122 3641 
Q 3803 3938 3442 4084 
Q 3081 4231 2675 4231 
Q 1875 4231 1450 3742 
Q 1025 3253 1025 2328 
Q 1025 1406 1450 917 
Q 1875 428 2675 428 
Q 3081 428 3442 575 
Q 3803 722 4122 1019 
L 4122 359 
Q 3791 134 3420 21 
Q 3050 -91 2638 -91 
Q 1578 -91 968 557 
Q 359 1206 359 2328 
Q 359 3453 968 4101 
Q 1578 4750 2638 4750 
Q 3056 4750 3426 4639 
Q 3797 4528 4122 4306 
z
" transform="scale(0.015625)"/>
      <path id="DejaVuSans-76" d="M 191 3500 
L 800 3500 
L 1894 563 
L 2988 3500 
L 3597 3500 
L 2284 0 
L 1503 0 
L 191 3500 
z
" transform="scale(0.015625)"/>
     </defs>
     <use xlink:href="#DejaVuSans-4c"/>
     <use xlink:href="#DejaVuSans-65" x="53.962891"/>
     <use xlink:href="#DejaVuSans-61" x="115.486328"/>
     <use xlink:href="#DejaVuSans-72" x="176.765625"/>
     <use xlink:href="#DejaVuSans-6e" x="216.128906"/>
     <use xlink:href="#DejaVuSans-69" x="279.507812"/>
     <use xlink:href="#DejaVuSans-6e" x="307.291016"/>
     <use xlink:href="#DejaVuSans-67" x="370.669922"/>
     <use xlink:href="#DejaVuSans-20" x="434.146484"/>
     <use xlink:href="#DejaVuSans-43" x="465.933594"/>
     <use xlink:href="#DejaVuSans-75" x="535.757812"/>
     <use xlink:href="#DejaVuSans-72" x="599.136719"/>
     <use xlink:href="#DejaVuSans-76" x="640.25"/>
     <use xlink:href="#DejaVuSans-65" x="699.429688"/>
     <use xlink:href="#DejaVuSans-73" x="760.953125"/>
    </g>
   </g>
   <g id="legend_1">
    <g id="patch_7">
     <path d="M 214.18875 302.584 
L 407.72 302.584 
Q 409.72 302.584 409.72 300.584 
L 409.72 228.193375 
Q 409.72 226.193375 407.72 226.193375 
L 214.18875 226.193375 
Q 212.18875 226.193375 212.18875 228.193375 
L 212.18875 300.584 
Q 212.18875 302.584 214.18875 302.584 
z
" style="fill: #ffffff; opacity: 0.8; stroke: #cccccc; stroke-linejoin: miter"/>
    </g>
    <g id="line2d_21">
     <path d="M 216.18875 234.291812 
L 226.18875 234.291812 
L 236.18875 234.291812 
" style="fill: none; stroke: #1f77b4; stroke-width: 1.5; stroke-linecap: square"/>
    </g>
    <g id="text_19">
     <!-- Train Accuracy -->
     <g transform="translate(244.18875 237.791812) scale(0.1 -0.1)">
      <defs>
       <path id="DejaVuSans-54" d="M -19 4666 
L 3928 4666 
L 3928 4134 
L 2272 4134 
L 2272 0 
L 1638 0 
L 1638 4134 
L -19 4134 
L -19 4666 
z
" transform="scale(0.015625)"/>
      </defs>
      <use xlink:href="#DejaVuSans-54"/>
      <use xlink:href="#DejaVuSans-72" x="46.333984"/>
      <use xlink:href="#DejaVuSans-61" x="87.447266"/>
      <use xlink:href="#DejaVuSans-69" x="148.726562"/>
      <use xlink:href="#DejaVuSans-6e" x="176.509766"/>
      <use xlink:href="#DejaVuSans-20" x="239.888672"/>
      <use xlink:href="#DejaVuSans-41" x="271.675781"/>
      <use xlink:href="#DejaVuSans-63" x="338.333984"/>
      <use xlink:href="#DejaVuSans-63" x="393.314453"/>
      <use xlink:href="#DejaVuSans-75" x="448.294922"/>
      <use xlink:href="#DejaVuSans-72" x="511.673828"/>
      <use xlink:href="#DejaVuSans-61" x="552.787109"/>
      <use xlink:href="#DejaVuSans-63" x="614.066406"/>
      <use xlink:href="#DejaVuSans-79" x="669.046875"/>
     </g>
    </g>
    <g id="line2d_22">
     <path d="M 216.18875 248.969937 
L 226.18875 248.969937 
L 236.18875 248.969937 
" style="fill: none; stroke: #ff7f0e; stroke-width: 1.5; stroke-linecap: square"/>
    </g>
    <g id="text_20">
     <!-- Validation Accuracy -->
     <g transform="translate(244.18875 252.469937) scale(0.1 -0.1)">
      <defs>
       <path id="DejaVuSans-56" d="M 1831 0 
L 50 4666 
L 709 4666 
L 2188 738 
L 3669 4666 
L 4325 4666 
L 2547 0 
L 1831 0 
z
" transform="scale(0.015625)"/>
       <path id="DejaVuSans-6c" d="M 603 4863 
L 1178 4863 
L 1178 0 
L 603 0 
L 603 4863 
z
" transform="scale(0.015625)"/>
       <path id="DejaVuSans-64" d="M 2906 2969 
L 2906 4863 
L 3481 4863 
L 3481 0 
L 2906 0 
L 2906 525 
Q 2725 213 2448 61 
Q 2172 -91 1784 -91 
Q 1150 -91 751 415 
Q 353 922 353 1747 
Q 353 2572 751 3078 
Q 1150 3584 1784 3584 
Q 2172 3584 2448 3432 
Q 2725 3281 2906 2969 
z
M 947 1747 
Q 947 1113 1208 752 
Q 1469 391 1925 391 
Q 2381 391 2643 752 
Q 2906 1113 2906 1747 
Q 2906 2381 2643 2742 
Q 2381 3103 1925 3103 
Q 1469 3103 1208 2742 
Q 947 2381 947 1747 
z
" transform="scale(0.015625)"/>
       <path id="DejaVuSans-74" d="M 1172 4494 
L 1172 3500 
L 2356 3500 
L 2356 3053 
L 1172 3053 
L 1172 1153 
Q 1172 725 1289 603 
Q 1406 481 1766 481 
L 2356 481 
L 2356 0 
L 1766 0 
Q 1100 0 847 248 
Q 594 497 594 1153 
L 594 3053 
L 172 3053 
L 172 3500 
L 594 3500 
L 594 4494 
L 1172 4494 
z
" transform="scale(0.015625)"/>
      </defs>
      <use xlink:href="#DejaVuSans-56"/>
      <use xlink:href="#DejaVuSans-61" x="60.658203"/>
      <use xlink:href="#DejaVuSans-6c" x="121.9375"/>
      <use xlink:href="#DejaVuSans-69" x="149.720703"/>
      <use xlink:href="#DejaVuSans-64" x="177.503906"/>
      <use xlink:href="#DejaVuSans-61" x="240.980469"/>
      <use xlink:href="#DejaVuSans-74" x="302.259766"/>
      <use xlink:href="#DejaVuSans-69" x="341.46875"/>
      <use xlink:href="#DejaVuSans-6f" x="369.251953"/>
      <use xlink:href="#DejaVuSans-6e" x="430.433594"/>
      <use xlink:href="#DejaVuSans-20" x="493.8125"/>
      <use xlink:href="#DejaVuSans-41" x="525.599609"/>
      <use xlink:href="#DejaVuSans-63" x="592.257812"/>
      <use xlink:href="#DejaVuSans-63" x="647.238281"/>
      <use xlink:href="#DejaVuSans-75" x="702.21875"/>
      <use xlink:href="#DejaVuSans-72" x="765.597656"/>
      <use xlink:href="#DejaVuSans-61" x="806.710938"/>
      <use xlink:href="#DejaVuSans-63" x="867.990234"/>
      <use xlink:href="#DejaVuSans-79" x="922.970703"/>
     </g>
    </g>
    <g id="line2d_23">
     <path d="M 216.18875 263.648062 
L 226.18875 263.648062 
L 236.18875 263.648062 
" style="fill: none; stroke: #2ca02c; stroke-width: 1.5; stroke-linecap: square"/>
    </g>
    <g id="text_21">
     <!-- Robust Validation Accuracy -->
     <g transform="translate(244.18875 267.148062) scale(0.1 -0.1)">
      <defs>
       <path id="DejaVuSans-52" d="M 2841 2188 
Q 3044 2119 3236 1894 
Q 3428 1669 3622 1275 
L 4263 0 
L 3584 0 
L 2988 1197 
Q 2756 1666 2539 1819 
Q 2322 1972 1947 1972 
L 1259 1972 
L 1259 0 
L 628 0 
L 628 4666 
L 2053 4666 
Q 2853 4666 3247 4331 
Q 3641 3997 3641 3322 
Q 3641 2881 3436 2590 
Q 3231 2300 2841 2188 
z
M 1259 4147 
L 1259 2491 
L 2053 2491 
Q 2509 2491 2742 2702 
Q 2975 2913 2975 3322 
Q 2975 3731 2742 3939 
Q 2509 4147 2053 4147 
L 1259 4147 
z
" transform="scale(0.015625)"/>
       <path id="DejaVuSans-62" d="M 3116 1747 
Q 3116 2381 2855 2742 
Q 2594 3103 2138 3103 
Q 1681 3103 1420 2742 
Q 1159 2381 1159 1747 
Q 1159 1113 1420 752 
Q 1681 391 2138 391 
Q 2594 391 2855 752 
Q 3116 1113 3116 1747 
z
M 1159 2969 
Q 1341 3281 1617 3432 
Q 1894 3584 2278 3584 
Q 2916 3584 3314 3078 
Q 3713 2572 3713 1747 
Q 3713 922 3314 415 
Q 2916 -91 2278 -91 
Q 1894 -91 1617 61 
Q 1341 213 1159 525 
L 1159 0 
L 581 0 
L 581 4863 
L 1159 4863 
L 1159 2969 
z
" transform="scale(0.015625)"/>
      </defs>
      <use xlink:href="#DejaVuSans-52"/>
      <use xlink:href="#DejaVuSans-6f" x="64.982422"/>
      <use xlink:href="#DejaVuSans-62" x="126.164062"/>
      <use xlink:href="#DejaVuSans-75" x="189.640625"/>
      <use xlink:href="#DejaVuSans-73" x="253.019531"/>
      <use xlink:href="#DejaVuSans-74" x="305.119141"/>
      <use xlink:href="#DejaVuSans-20" x="344.328125"/>
      <use xlink:href="#DejaVuSans-56" x="376.115234"/>
      <use xlink:href="#DejaVuSans-61" x="436.773438"/>
      <use xlink:href="#DejaVuSans-6c" x="498.052734"/>
      <use xlink:href="#DejaVuSans-69" x="525.835938"/>
      <use xlink:href="#DejaVuSans-64" x="553.619141"/>
      <use xlink:href="#DejaVuSans-61" x="617.095703"/>
      <use xlink:href="#DejaVuSans-74" x="678.375"/>
      <use xlink:href="#DejaVuSans-69" x="717.583984"/>
      <use xlink:href="#DejaVuSans-6f" x="745.367188"/>
      <use xlink:href="#DejaVuSans-6e" x="806.548828"/>
      <use xlink:href="#DejaVuSans-20" x="869.927734"/>
      <use xlink:href="#DejaVuSans-41" x="901.714844"/>
      <use xlink:href="#DejaVuSans-63" x="968.373047"/>
      <use xlink:href="#DejaVuSans-63" x="1023.353516"/>
      <use xlink:href="#DejaVuSans-75" x="1078.333984"/>
      <use xlink:href="#DejaVuSans-72" x="1141.712891"/>
      <use xlink:href="#DejaVuSans-61" x="1182.826172"/>
      <use xlink:href="#DejaVuSans-63" x="1244.105469"/>
      <use xlink:href="#DejaVuSans-79" x="1299.085938"/>
     </g>
    </g>
    <g id="line2d_24">
     <path d="M 216.18875 278.326188 
L 226.18875 278.326188 
L 236.18875 278.326188 
" style="fill: none; stroke: #d62728; stroke-width: 1.5; stroke-linecap: square"/>
    </g>
    <g id="text_22">
     <!-- SWA Validation Accuracy -->
     <g transform="translate(244.18875 281.826188) scale(0.1 -0.1)">
      <defs>
       <path id="DejaVuSans-53" d="M 3425 4513 
L 3425 3897 
Q 3066 4069 2747 4153 
Q 2428 4238 2131 4238 
Q 1616 4238 1336 4038 
Q 1056 3838 1056 3469 
Q 1056 3159 1242 3001 
Q 1428 2844 1947 2747 
L 2328 2669 
Q 3034 2534 3370 2195 
Q 3706 1856 3706 1288 
Q 3706 609 3251 259 
Q 2797 -91 1919 -91 
Q 1588 -91 1214 -16 
Q 841 59 441 206 
L 441 856 
Q 825 641 1194 531 
Q 1563 422 1919 422 
Q 2459 422 2753 634 
Q 3047 847 3047 1241 
Q 3047 1584 2836 1778 
Q 2625 1972 2144 2069 
L 1759 2144 
Q 1053 2284 737 2584 
Q 422 2884 422 3419 
Q 422 4038 858 4394 
Q 1294 4750 2059 4750 
Q 2388 4750 2728 4690 
Q 3069 4631 3425 4513 
z
" transform="scale(0.015625)"/>
       <path id="DejaVuSans-57" d="M 213 4666 
L 850 4666 
L 1831 722 
L 2809 4666 
L 3519 4666 
L 4500 722 
L 5478 4666 
L 6119 4666 
L 4947 0 
L 4153 0 
L 3169 4050 
L 2175 0 
L 1381 0 
L 213 4666 
z
" transform="scale(0.015625)"/>
      </defs>
      <use xlink:href="#DejaVuSans-53"/>
      <use xlink:href="#DejaVuSans-57" x="63.476562"/>
      <use xlink:href="#DejaVuSans-41" x="156.853516"/>
      <use xlink:href="#DejaVuSans-20" x="225.261719"/>
      <use xlink:href="#DejaVuSans-56" x="257.048828"/>
      <use xlink:href="#DejaVuSans-61" x="317.707031"/>
      <use xlink:href="#DejaVuSans-6c" x="378.986328"/>
      <use xlink:href="#DejaVuSans-69" x="406.769531"/>
      <use xlink:href="#DejaVuSans-64" x="434.552734"/>
      <use xlink:href="#DejaVuSans-61" x="498.029297"/>
      <use xlink:href="#DejaVuSans-74" x="559.308594"/>
      <use xlink:href="#DejaVuSans-69" x="598.517578"/>
      <use xlink:href="#DejaVuSans-6f" x="626.300781"/>
      <use xlink:href="#DejaVuSans-6e" x="687.482422"/>
      <use xlink:href="#DejaVuSans-20" x="750.861328"/>
      <use xlink:href="#DejaVuSans-41" x="782.648438"/>
      <use xlink:href="#DejaVuSans-63" x="849.306641"/>
      <use xlink:href="#DejaVuSans-63" x="904.287109"/>
      <use xlink:href="#DejaVuSans-75" x="959.267578"/>
      <use xlink:href="#DejaVuSans-72" x="1022.646484"/>
      <use xlink:href="#DejaVuSans-61" x="1063.759766"/>
      <use xlink:href="#DejaVuSans-63" x="1125.039062"/>
      <use xlink:href="#DejaVuSans-79" x="1180.019531"/>
     </g>
    </g>
    <g id="line2d_25">
     <path d="M 216.18875 293.004312 
L 226.18875 293.004312 
L 236.18875 293.004312 
" style="fill: none; stroke: #9467bd; stroke-width: 1.5; stroke-linecap: square"/>
    </g>
    <g id="text_23">
     <!-- SWA Robust Validation Accuracy -->
     <g transform="translate(244.18875 296.504312) scale(0.1 -0.1)">
      <use xlink:href="#DejaVuSans-53"/>
      <use xlink:href="#DejaVuSans-57" x="63.476562"/>
      <use xlink:href="#DejaVuSans-41" x="156.853516"/>
      <use xlink:href="#DejaVuSans-20" x="225.261719"/>
      <use xlink:href="#DejaVuSans-52" x="257.048828"/>
      <use xlink:href="#DejaVuSans-6f" x="322.03125"/>
      <use xlink:href="#DejaVuSans-62" x="383.212891"/>
      <use xlink:href="#DejaVuSans-75" x="446.689453"/>
      <use xlink:href="#DejaVuSans-73" x="510.068359"/>
      <use xlink:href="#DejaVuSans-74" x="562.167969"/>
      <use xlink:href="#DejaVuSans-20" x="601.376953"/>
      <use xlink:href="#DejaVuSans-56" x="633.164062"/>
      <use xlink:href="#DejaVuSans-61" x="693.822266"/>
      <use xlink:href="#DejaVuSans-6c" x="755.101562"/>
      <use xlink:href="#DejaVuSans-69" x="782.884766"/>
      <use xlink:href="#DejaVuSans-64" x="810.667969"/>
      <use xlink:href="#DejaVuSans-61" x="874.144531"/>
      <use xlink:href="#DejaVuSans-74" x="935.423828"/>
      <use xlink:href="#DejaVuSans-69" x="974.632812"/>
      <use xlink:href="#DejaVuSans-6f" x="1002.416016"/>
      <use xlink:href="#DejaVuSans-6e" x="1063.597656"/>
      <use xlink:href="#DejaVuSans-20" x="1126.976562"/>
      <use xlink:href="#DejaVuSans-41" x="1158.763672"/>
      <use xlink:href="#DejaVuSans-63" x="1225.421875"/>
      <use xlink:href="#DejaVuSans-63" x="1280.402344"/>
      <use xlink:href="#DejaVuSans-75" x="1335.382812"/>
      <use xlink:href="#DejaVuSans-72" x="1398.761719"/>
      <use xlink:href="#DejaVuSans-61" x="1439.875"/>
      <use xlink:href="#DejaVuSans-63" x="1501.154297"/>
      <use xlink:href="#DejaVuSans-79" x="1556.134766"/>
     </g>
    </g>
   </g>
  </g>
 </g>
 <defs>
  <clipPath id="p7000d528ae">
   <rect x="57.6" y="41.472" width="357.12" height="266.112"/>
  </clipPath>
 </defs>
</svg>
