<?xml version="1.0" encoding="utf-8" standalone="no"?>
<!DOCTYPE svg PUBLIC "-//W3C//DTD SVG 1.1//EN"
  "http://www.w3.org/Graphics/SVG/1.1/DTD/svg11.dtd">
<svg xmlns:xlink="http://www.w3.org/1999/xlink" width="460.8pt" height="345.6pt" viewBox="0 0 460.8 345.6" xmlns="http://www.w3.org/2000/svg" version="1.1">
 <metadata>
  <rdf:RDF xmlns:dc="http://purl.org/dc/elements/1.1/" xmlns:cc="http://creativecommons.org/ns#" xmlns:rdf="http://www.w3.org/1999/02/22-rdf-syntax-ns#">
   <cc:Work>
    <dc:type rdf:resource="http://purl.org/dc/dcmitype/StillImage"/>
    <dc:date>2025-01-18T19:26:12.940094</dc:date>
    <dc:format>image/svg+xml</dc:format>
    <dc:creator>
     <cc:Agent>
      <dc:title>Matplotlib v3.9.1, https://matplotlib.org/</dc:title>
     </cc:Agent>
    </dc:creator>
   </cc:Work>
  </rdf:RDF>
 </metadata>
 <defs>
  <style type="text/css">*{stroke-linejoin: round; stroke-linecap: butt}</style>
 </defs>
 <g id="figure_1">
  <g id="patch_1">
   <path d="M 0 345.6 
L 460.8 345.6 
L 460.8 0 
L 0 0 
z
" style="fill: #ffffff"/>
  </g>
  <g id="axes_1">
   <g id="patch_2">
    <path d="M 57.6 307.584 
L 414.72 307.584 
L 414.72 41.472 
L 57.6 41.472 
z
" style="fill: #ffffff"/>
   </g>
   <g id="matplotlib.axis_1">
    <g id="xtick_1">
     <g id="line2d_1">
      <defs>
       <path id="mcececa23d0" d="M 0 0 
L 0 3.5 
" style="stroke: #000000; stroke-width: 0.8"/>
      </defs>
      <g>
       <use xlink:href="#mcececa23d0" x="73.832727" y="307.584" style="stroke: #000000; stroke-width: 0.8"/>
      </g>
     </g>
     <g id="text_1">
      <!-- 1 -->
      <g transform="translate(70.651477 322.182437) scale(0.1 -0.1)">
       <defs>
        <path id="DejaVuSans-31" d="M 794 531 
L 1825 531 
L 1825 4091 
L 703 3866 
L 703 4441 
L 1819 4666 
L 2450 4666 
L 2450 531 
L 3481 531 
L 3481 0 
L 794 0 
L 794 531 
z
" transform="scale(0.015625)"/>
       </defs>
       <use xlink:href="#DejaVuSans-31"/>
      </g>
     </g>
    </g>
    <g id="xtick_2">
     <g id="line2d_2">
      <g>
       <use xlink:href="#mcececa23d0" x="109.664165" y="307.584" style="stroke: #000000; stroke-width: 0.8"/>
      </g>
     </g>
     <g id="text_2">
      <!-- 34 -->
      <g transform="translate(103.301665 322.182437) scale(0.1 -0.1)">
       <defs>
        <path id="DejaVuSans-33" d="M 2597 2516 
Q 3050 2419 3304 2112 
Q 3559 1806 3559 1356 
Q 3559 666 3084 287 
Q 2609 -91 1734 -91 
Q 1441 -91 1130 -33 
Q 819 25 488 141 
L 488 750 
Q 750 597 1062 519 
Q 1375 441 1716 441 
Q 2309 441 2620 675 
Q 2931 909 2931 1356 
Q 2931 1769 2642 2001 
Q 2353 2234 1838 2234 
L 1294 2234 
L 1294 2753 
L 1863 2753 
Q 2328 2753 2575 2939 
Q 2822 3125 2822 3475 
Q 2822 3834 2567 4026 
Q 2313 4219 1838 4219 
Q 1578 4219 1281 4162 
Q 984 4106 628 3988 
L 628 4550 
Q 988 4650 1302 4700 
Q 1616 4750 1894 4750 
Q 2613 4750 3031 4423 
Q 3450 4097 3450 3541 
Q 3450 3153 3228 2886 
Q 3006 2619 2597 2516 
z
" transform="scale(0.015625)"/>
        <path id="DejaVuSans-34" d="M 2419 4116 
L 825 1625 
L 2419 1625 
L 2419 4116 
z
M 2253 4666 
L 3047 4666 
L 3047 1625 
L 3713 1625 
L 3713 1100 
L 3047 1100 
L 3047 0 
L 2419 0 
L 2419 1100 
L 313 1100 
L 313 1709 
L 2253 4666 
z
" transform="scale(0.015625)"/>
       </defs>
       <use xlink:href="#DejaVuSans-33"/>
       <use xlink:href="#DejaVuSans-34" x="63.623047"/>
      </g>
     </g>
    </g>
    <g id="xtick_3">
     <g id="line2d_3">
      <g>
       <use xlink:href="#mcececa23d0" x="145.495604" y="307.584" style="stroke: #000000; stroke-width: 0.8"/>
      </g>
     </g>
     <g id="text_3">
      <!-- 67 -->
      <g transform="translate(139.133104 322.182437) scale(0.1 -0.1)">
       <defs>
        <path id="DejaVuSans-36" d="M 2113 2584 
Q 1688 2584 1439 2293 
Q 1191 2003 1191 1497 
Q 1191 994 1439 701 
Q 1688 409 2113 409 
Q 2538 409 2786 701 
Q 3034 994 3034 1497 
Q 3034 2003 2786 2293 
Q 2538 2584 2113 2584 
z
M 3366 4563 
L 3366 3988 
Q 3128 4100 2886 4159 
Q 2644 4219 2406 4219 
Q 1781 4219 1451 3797 
Q 1122 3375 1075 2522 
Q 1259 2794 1537 2939 
Q 1816 3084 2150 3084 
Q 2853 3084 3261 2657 
Q 3669 2231 3669 1497 
Q 3669 778 3244 343 
Q 2819 -91 2113 -91 
Q 1303 -91 875 529 
Q 447 1150 447 2328 
Q 447 3434 972 4092 
Q 1497 4750 2381 4750 
Q 2619 4750 2861 4703 
Q 3103 4656 3366 4563 
z
" transform="scale(0.015625)"/>
        <path id="DejaVuSans-37" d="M 525 4666 
L 3525 4666 
L 3525 4397 
L 1831 0 
L 1172 0 
L 2766 4134 
L 525 4134 
L 525 4666 
z
" transform="scale(0.015625)"/>
       </defs>
       <use xlink:href="#DejaVuSans-36"/>
       <use xlink:href="#DejaVuSans-37" x="63.623047"/>
      </g>
     </g>
    </g>
    <g id="xtick_4">
     <g id="line2d_4">
      <g>
       <use xlink:href="#mcececa23d0" x="181.327042" y="307.584" style="stroke: #000000; stroke-width: 0.8"/>
      </g>
     </g>
     <g id="text_4">
      <!-- 100 -->
      <g transform="translate(171.783292 322.182437) scale(0.1 -0.1)">
       <defs>
        <path id="DejaVuSans-30" d="M 2034 4250 
Q 1547 4250 1301 3770 
Q 1056 3291 1056 2328 
Q 1056 1369 1301 889 
Q 1547 409 2034 409 
Q 2525 409 2770 889 
Q 3016 1369 3016 2328 
Q 3016 3291 2770 3770 
Q 2525 4250 2034 4250 
z
M 2034 4750 
Q 2819 4750 3233 4129 
Q 3647 3509 3647 2328 
Q 3647 1150 3233 529 
Q 2819 -91 2034 -91 
Q 1250 -91 836 529 
Q 422 1150 422 2328 
Q 422 3509 836 4129 
Q 1250 4750 2034 4750 
z
" transform="scale(0.015625)"/>
       </defs>
       <use xlink:href="#DejaVuSans-31"/>
       <use xlink:href="#DejaVuSans-30" x="63.623047"/>
       <use xlink:href="#DejaVuSans-30" x="127.246094"/>
      </g>
     </g>
    </g>
    <g id="xtick_5">
     <g id="line2d_5">
      <g>
       <use xlink:href="#mcececa23d0" x="217.15848" y="307.584" style="stroke: #000000; stroke-width: 0.8"/>
      </g>
     </g>
     <g id="text_5">
      <!-- 133 -->
      <g transform="translate(207.61473 322.182437) scale(0.1 -0.1)">
       <use xlink:href="#DejaVuSans-31"/>
       <use xlink:href="#DejaVuSans-33" x="63.623047"/>
       <use xlink:href="#DejaVuSans-33" x="127.246094"/>
      </g>
     </g>
    </g>
    <g id="xtick_6">
     <g id="line2d_6">
      <g>
       <use xlink:href="#mcececa23d0" x="254.075719" y="307.584" style="stroke: #000000; stroke-width: 0.8"/>
      </g>
     </g>
     <g id="text_6">
      <!-- 167 -->
      <g transform="translate(244.531969 322.182437) scale(0.1 -0.1)">
       <use xlink:href="#DejaVuSans-31"/>
       <use xlink:href="#DejaVuSans-36" x="63.623047"/>
       <use xlink:href="#DejaVuSans-37" x="127.246094"/>
      </g>
     </g>
    </g>
    <g id="xtick_7">
     <g id="line2d_7">
      <g>
       <use xlink:href="#mcececa23d0" x="289.907157" y="307.584" style="stroke: #000000; stroke-width: 0.8"/>
      </g>
     </g>
     <g id="text_7">
      <!-- 200 -->
      <g transform="translate(280.363407 322.182437) scale(0.1 -0.1)">
       <defs>
        <path id="DejaVuSans-32" d="M 1228 531 
L 3431 531 
L 3431 0 
L 469 0 
L 469 531 
Q 828 903 1448 1529 
Q 2069 2156 2228 2338 
Q 2531 2678 2651 2914 
Q 2772 3150 2772 3378 
Q 2772 3750 2511 3984 
Q 2250 4219 1831 4219 
Q 1534 4219 1204 4116 
Q 875 4013 500 3803 
L 500 4441 
Q 881 4594 1212 4672 
Q 1544 4750 1819 4750 
Q 2544 4750 2975 4387 
Q 3406 4025 3406 3419 
Q 3406 3131 3298 2873 
Q 3191 2616 2906 2266 
Q 2828 2175 2409 1742 
Q 1991 1309 1228 531 
z
" transform="scale(0.015625)"/>
       </defs>
       <use xlink:href="#DejaVuSans-32"/>
       <use xlink:href="#DejaVuSans-30" x="63.623047"/>
       <use xlink:href="#DejaVuSans-30" x="127.246094"/>
      </g>
     </g>
    </g>
    <g id="xtick_8">
     <g id="line2d_8">
      <g>
       <use xlink:href="#mcececa23d0" x="325.738595" y="307.584" style="stroke: #000000; stroke-width: 0.8"/>
      </g>
     </g>
     <g id="text_8">
      <!-- 233 -->
      <g transform="translate(316.194845 322.182437) scale(0.1 -0.1)">
       <use xlink:href="#DejaVuSans-32"/>
       <use xlink:href="#DejaVuSans-33" x="63.623047"/>
       <use xlink:href="#DejaVuSans-33" x="127.246094"/>
      </g>
     </g>
    </g>
    <g id="xtick_9">
     <g id="line2d_9">
      <g>
       <use xlink:href="#mcececa23d0" x="361.570033" y="307.584" style="stroke: #000000; stroke-width: 0.8"/>
      </g>
     </g>
     <g id="text_9">
      <!-- 266 -->
      <g transform="translate(352.026283 322.182437) scale(0.1 -0.1)">
       <use xlink:href="#DejaVuSans-32"/>
       <use xlink:href="#DejaVuSans-36" x="63.623047"/>
       <use xlink:href="#DejaVuSans-36" x="127.246094"/>
      </g>
     </g>
    </g>
    <g id="xtick_10">
     <g id="line2d_10">
      <g>
       <use xlink:href="#mcececa23d0" x="398.487273" y="307.584" style="stroke: #000000; stroke-width: 0.8"/>
      </g>
     </g>
     <g id="text_10">
      <!-- 300 -->
      <g transform="translate(388.943523 322.182437) scale(0.1 -0.1)">
       <use xlink:href="#DejaVuSans-33"/>
       <use xlink:href="#DejaVuSans-30" x="63.623047"/>
       <use xlink:href="#DejaVuSans-30" x="127.246094"/>
      </g>
     </g>
    </g>
    <g id="text_11">
     <!-- Epochs -->
     <g transform="translate(218.244375 335.860562) scale(0.1 -0.1)">
      <defs>
       <path id="DejaVuSans-45" d="M 628 4666 
L 3578 4666 
L 3578 4134 
L 1259 4134 
L 1259 2753 
L 3481 2753 
L 3481 2222 
L 1259 2222 
L 1259 531 
L 3634 531 
L 3634 0 
L 628 0 
L 628 4666 
z
" transform="scale(0.015625)"/>
       <path id="DejaVuSans-70" d="M 1159 525 
L 1159 -1331 
L 581 -1331 
L 581 3500 
L 1159 3500 
L 1159 2969 
Q 1341 3281 1617 3432 
Q 1894 3584 2278 3584 
Q 2916 3584 3314 3078 
Q 3713 2572 3713 1747 
Q 3713 922 3314 415 
Q 2916 -91 2278 -91 
Q 1894 -91 1617 61 
Q 1341 213 1159 525 
z
M 3116 1747 
Q 3116 2381 2855 2742 
Q 2594 3103 2138 3103 
Q 1681 3103 1420 2742 
Q 1159 2381 1159 1747 
Q 1159 1113 1420 752 
Q 1681 391 2138 391 
Q 2594 391 2855 752 
Q 3116 1113 3116 1747 
z
" transform="scale(0.015625)"/>
       <path id="DejaVuSans-6f" d="M 1959 3097 
Q 1497 3097 1228 2736 
Q 959 2375 959 1747 
Q 959 1119 1226 758 
Q 1494 397 1959 397 
Q 2419 397 2687 759 
Q 2956 1122 2956 1747 
Q 2956 2369 2687 2733 
Q 2419 3097 1959 3097 
z
M 1959 3584 
Q 2709 3584 3137 3096 
Q 3566 2609 3566 1747 
Q 3566 888 3137 398 
Q 2709 -91 1959 -91 
Q 1206 -91 779 398 
Q 353 888 353 1747 
Q 353 2609 779 3096 
Q 1206 3584 1959 3584 
z
" transform="scale(0.015625)"/>
       <path id="DejaVuSans-63" d="M 3122 3366 
L 3122 2828 
Q 2878 2963 2633 3030 
Q 2388 3097 2138 3097 
Q 1578 3097 1268 2742 
Q 959 2388 959 1747 
Q 959 1106 1268 751 
Q 1578 397 2138 397 
Q 2388 397 2633 464 
Q 2878 531 3122 666 
L 3122 134 
Q 2881 22 2623 -34 
Q 2366 -91 2075 -91 
Q 1284 -91 818 406 
Q 353 903 353 1747 
Q 353 2603 823 3093 
Q 1294 3584 2113 3584 
Q 2378 3584 2631 3529 
Q 2884 3475 3122 3366 
z
" transform="scale(0.015625)"/>
       <path id="DejaVuSans-68" d="M 3513 2113 
L 3513 0 
L 2938 0 
L 2938 2094 
Q 2938 2591 2744 2837 
Q 2550 3084 2163 3084 
Q 1697 3084 1428 2787 
Q 1159 2491 1159 1978 
L 1159 0 
L 581 0 
L 581 4863 
L 1159 4863 
L 1159 2956 
Q 1366 3272 1645 3428 
Q 1925 3584 2291 3584 
Q 2894 3584 3203 3211 
Q 3513 2838 3513 2113 
z
" transform="scale(0.015625)"/>
       <path id="DejaVuSans-73" d="M 2834 3397 
L 2834 2853 
Q 2591 2978 2328 3040 
Q 2066 3103 1784 3103 
Q 1356 3103 1142 2972 
Q 928 2841 928 2578 
Q 928 2378 1081 2264 
Q 1234 2150 1697 2047 
L 1894 2003 
Q 2506 1872 2764 1633 
Q 3022 1394 3022 966 
Q 3022 478 2636 193 
Q 2250 -91 1575 -91 
Q 1294 -91 989 -36 
Q 684 19 347 128 
L 347 722 
Q 666 556 975 473 
Q 1284 391 1588 391 
Q 1994 391 2212 530 
Q 2431 669 2431 922 
Q 2431 1156 2273 1281 
Q 2116 1406 1581 1522 
L 1381 1569 
Q 847 1681 609 1914 
Q 372 2147 372 2553 
Q 372 3047 722 3315 
Q 1072 3584 1716 3584 
Q 2034 3584 2315 3537 
Q 2597 3491 2834 3397 
z
" transform="scale(0.015625)"/>
      </defs>
      <use xlink:href="#DejaVuSans-45"/>
      <use xlink:href="#DejaVuSans-70" x="63.183594"/>
      <use xlink:href="#DejaVuSans-6f" x="126.660156"/>
      <use xlink:href="#DejaVuSans-63" x="187.841797"/>
      <use xlink:href="#DejaVuSans-68" x="242.822266"/>
      <use xlink:href="#DejaVuSans-73" x="306.201172"/>
     </g>
    </g>
   </g>
   <g id="matplotlib.axis_2">
    <g id="ytick_1">
     <g id="line2d_11">
      <defs>
       <path id="m14a38fc4fe" d="M 0 0 
L -3.5 0 
" style="stroke: #000000; stroke-width: 0.8"/>
      </defs>
      <g>
       <use xlink:href="#m14a38fc4fe" x="57.6" y="268.496055" style="stroke: #000000; stroke-width: 0.8"/>
      </g>
     </g>
     <g id="text_12">
      <!-- 20 -->
      <g transform="translate(37.875 272.295274) scale(0.1 -0.1)">
       <use xlink:href="#DejaVuSans-32"/>
       <use xlink:href="#DejaVuSans-30" x="63.623047"/>
      </g>
     </g>
    </g>
    <g id="ytick_2">
     <g id="line2d_12">
      <g>
       <use xlink:href="#m14a38fc4fe" x="57.6" y="214.623681" style="stroke: #000000; stroke-width: 0.8"/>
      </g>
     </g>
     <g id="text_13">
      <!-- 40 -->
      <g transform="translate(37.875 218.4229) scale(0.1 -0.1)">
       <use xlink:href="#DejaVuSans-34"/>
       <use xlink:href="#DejaVuSans-30" x="63.623047"/>
      </g>
     </g>
    </g>
    <g id="ytick_3">
     <g id="line2d_13">
      <g>
       <use xlink:href="#m14a38fc4fe" x="57.6" y="160.751307" style="stroke: #000000; stroke-width: 0.8"/>
      </g>
     </g>
     <g id="text_14">
      <!-- 60 -->
      <g transform="translate(37.875 164.550526) scale(0.1 -0.1)">
       <use xlink:href="#DejaVuSans-36"/>
       <use xlink:href="#DejaVuSans-30" x="63.623047"/>
      </g>
     </g>
    </g>
    <g id="ytick_4">
     <g id="line2d_14">
      <g>
       <use xlink:href="#m14a38fc4fe" x="57.6" y="106.878933" style="stroke: #000000; stroke-width: 0.8"/>
      </g>
     </g>
     <g id="text_15">
      <!-- 80 -->
      <g transform="translate(37.875 110.678152) scale(0.1 -0.1)">
       <defs>
        <path id="DejaVuSans-38" d="M 2034 2216 
Q 1584 2216 1326 1975 
Q 1069 1734 1069 1313 
Q 1069 891 1326 650 
Q 1584 409 2034 409 
Q 2484 409 2743 651 
Q 3003 894 3003 1313 
Q 3003 1734 2745 1975 
Q 2488 2216 2034 2216 
z
M 1403 2484 
Q 997 2584 770 2862 
Q 544 3141 544 3541 
Q 544 4100 942 4425 
Q 1341 4750 2034 4750 
Q 2731 4750 3128 4425 
Q 3525 4100 3525 3541 
Q 3525 3141 3298 2862 
Q 3072 2584 2669 2484 
Q 3125 2378 3379 2068 
Q 3634 1759 3634 1313 
Q 3634 634 3220 271 
Q 2806 -91 2034 -91 
Q 1263 -91 848 271 
Q 434 634 434 1313 
Q 434 1759 690 2068 
Q 947 2378 1403 2484 
z
M 1172 3481 
Q 1172 3119 1398 2916 
Q 1625 2713 2034 2713 
Q 2441 2713 2670 2916 
Q 2900 3119 2900 3481 
Q 2900 3844 2670 4047 
Q 2441 4250 2034 4250 
Q 1625 4250 1398 4047 
Q 1172 3844 1172 3481 
z
" transform="scale(0.015625)"/>
       </defs>
       <use xlink:href="#DejaVuSans-38"/>
       <use xlink:href="#DejaVuSans-30" x="63.623047"/>
      </g>
     </g>
    </g>
    <g id="ytick_5">
     <g id="line2d_15">
      <g>
       <use xlink:href="#m14a38fc4fe" x="57.6" y="53.00656" style="stroke: #000000; stroke-width: 0.8"/>
      </g>
     </g>
     <g id="text_16">
      <!-- 100 -->
      <g transform="translate(31.5125 56.805778) scale(0.1 -0.1)">
       <use xlink:href="#DejaVuSans-31"/>
       <use xlink:href="#DejaVuSans-30" x="63.623047"/>
       <use xlink:href="#DejaVuSans-30" x="127.246094"/>
      </g>
     </g>
    </g>
    <g id="text_17">
     <!-- Accuracy -->
     <g transform="translate(25.432812 197.356125) rotate(-90) scale(0.1 -0.1)">
      <defs>
       <path id="DejaVuSans-41" d="M 2188 4044 
L 1331 1722 
L 3047 1722 
L 2188 4044 
z
M 1831 4666 
L 2547 4666 
L 4325 0 
L 3669 0 
L 3244 1197 
L 1141 1197 
L 716 0 
L 50 0 
L 1831 4666 
z
" transform="scale(0.015625)"/>
       <path id="DejaVuSans-75" d="M 544 1381 
L 544 3500 
L 1119 3500 
L 1119 1403 
Q 1119 906 1312 657 
Q 1506 409 1894 409 
Q 2359 409 2629 706 
Q 2900 1003 2900 1516 
L 2900 3500 
L 3475 3500 
L 3475 0 
L 2900 0 
L 2900 538 
Q 2691 219 2414 64 
Q 2138 -91 1772 -91 
Q 1169 -91 856 284 
Q 544 659 544 1381 
z
M 1991 3584 
L 1991 3584 
z
" transform="scale(0.015625)"/>
       <path id="DejaVuSans-72" d="M 2631 2963 
Q 2534 3019 2420 3045 
Q 2306 3072 2169 3072 
Q 1681 3072 1420 2755 
Q 1159 2438 1159 1844 
L 1159 0 
L 581 0 
L 581 3500 
L 1159 3500 
L 1159 2956 
Q 1341 3275 1631 3429 
Q 1922 3584 2338 3584 
Q 2397 3584 2469 3576 
Q 2541 3569 2628 3553 
L 2631 2963 
z
" transform="scale(0.015625)"/>
       <path id="DejaVuSans-61" d="M 2194 1759 
Q 1497 1759 1228 1600 
Q 959 1441 959 1056 
Q 959 750 1161 570 
Q 1363 391 1709 391 
Q 2188 391 2477 730 
Q 2766 1069 2766 1631 
L 2766 1759 
L 2194 1759 
z
M 3341 1997 
L 3341 0 
L 2766 0 
L 2766 531 
Q 2569 213 2275 61 
Q 1981 -91 1556 -91 
Q 1019 -91 701 211 
Q 384 513 384 1019 
Q 384 1609 779 1909 
Q 1175 2209 1959 2209 
L 2766 2209 
L 2766 2266 
Q 2766 2663 2505 2880 
Q 2244 3097 1772 3097 
Q 1472 3097 1187 3025 
Q 903 2953 641 2809 
L 641 3341 
Q 956 3463 1253 3523 
Q 1550 3584 1831 3584 
Q 2591 3584 2966 3190 
Q 3341 2797 3341 1997 
z
" transform="scale(0.015625)"/>
       <path id="DejaVuSans-79" d="M 2059 -325 
Q 1816 -950 1584 -1140 
Q 1353 -1331 966 -1331 
L 506 -1331 
L 506 -850 
L 844 -850 
Q 1081 -850 1212 -737 
Q 1344 -625 1503 -206 
L 1606 56 
L 191 3500 
L 800 3500 
L 1894 763 
L 2988 3500 
L 3597 3500 
L 2059 -325 
z
" transform="scale(0.015625)"/>
      </defs>
      <use xlink:href="#DejaVuSans-41"/>
      <use xlink:href="#DejaVuSans-63" x="66.658203"/>
      <use xlink:href="#DejaVuSans-63" x="121.638672"/>
      <use xlink:href="#DejaVuSans-75" x="176.619141"/>
      <use xlink:href="#DejaVuSans-72" x="239.998047"/>
      <use xlink:href="#DejaVuSans-61" x="281.111328"/>
      <use xlink:href="#DejaVuSans-63" x="342.390625"/>
      <use xlink:href="#DejaVuSans-79" x="397.371094"/>
     </g>
    </g>
   </g>
   <g id="line2d_16">
    <path d="M 73.832727 284.595275 
L 74.918528 236.041452 
L 76.00433 203.202738 
L 77.090131 180.793716 
L 78.175932 165.083993 
L 80.347534 144.526834 
L 81.433335 136.904162 
L 82.519137 130.129173 
L 83.604938 124.379643 
L 87.948142 106.446069 
L 89.033943 103.341943 
L 90.119745 99.422458 
L 91.205546 96.458939 
L 92.291347 94.256367 
L 93.377148 92.345244 
L 94.462949 91.924232 
L 95.54875 120.287767 
L 96.634552 121.065146 
L 97.720353 116.648958 
L 98.806154 115.083427 
L 99.891955 111.914654 
L 100.977756 110.154643 
L 103.149358 105.171987 
L 104.23516 103.881744 
L 105.320961 101.43082 
L 106.406762 99.373973 
L 107.492563 97.570865 
L 109.664165 93.430234 
L 110.749967 91.600189 
L 111.835768 90.099305 
L 112.921569 87.810537 
L 114.00737 86.072076 
L 115.093171 83.588829 
L 116.178972 82.476903 
L 118.350575 78.190278 
L 119.436376 76.830001 
L 120.522177 74.80009 
L 122.693779 71.16155 
L 124.865382 68.52719 
L 127.036984 65.428451 
L 128.122785 64.478412 
L 130.294387 62.23786 
L 131.380189 61.525398 
L 132.46599 60.963779 
L 133.551791 60.137915 
L 134.637592 60.197444 
L 135.723393 59.3336 
L 136.809194 59.004171 
L 137.894995 59.279459 
L 138.980797 86.255781 
L 140.066598 89.58644 
L 141.152399 89.651356 
L 142.2382 88.749802 
L 143.324001 87.276123 
L 144.409802 86.898209 
L 145.495604 86.320427 
L 146.581405 85.915577 
L 147.667206 84.646882 
L 148.753007 84.22587 
L 152.01041 81.272855 
L 154.182013 79.939514 
L 155.267814 79.032573 
L 156.353615 77.812633 
L 157.439416 77.445493 
L 159.611019 75.966157 
L 160.69682 74.487091 
L 161.782621 74.945814 
L 162.868422 73.148363 
L 163.954223 73.315636 
L 165.040024 72.003844 
L 167.211627 70.222285 
L 168.297428 70.000869 
L 169.383229 69.369216 
L 170.46903 68.213923 
L 171.554831 68.48948 
L 173.726434 66.621455 
L 175.898036 65.336599 
L 176.983837 65.336599 
L 178.069638 64.273158 
L 179.155439 63.609181 
L 180.24124 63.150189 
L 181.327042 62.324325 
L 182.412843 62.162439 
L 183.498644 61.698059 
L 184.584445 60.839603 
L 186.756047 59.819529 
L 187.841849 59.868014 
L 188.92765 59.036764 
L 190.013451 58.680398 
L 191.099252 58.140597 
L 192.185053 58.070293 
L 193.270854 57.163352 
L 195.442457 56.4886 
L 198.69986 55.905432 
L 199.785661 55.554723 
L 200.871462 55.522245 
L 201.957264 55.063375 
L 203.043065 54.831241 
L 205.214667 54.734069 
L 209.557872 54.145636 
L 210.643673 54.12944 
L 211.729474 53.95669 
L 212.815275 54.172628 
L 213.901076 53.999877 
L 214.986877 53.999877 
L 216.072679 53.854119 
L 217.15848 53.98908 
L 218.244281 54.010674 
L 219.330082 53.77854 
L 220.415883 53.962088 
L 221.501684 53.773142 
L 224.759088 53.837923 
L 225.844889 70.735123 
L 226.93069 75.550554 
L 228.016491 75.674719 
L 229.102292 75.971635 
L 230.188094 75.334616 
L 231.273895 74.454666 
L 232.359696 74.530244 
L 233.445497 74.038984 
L 234.531298 73.898624 
L 235.617099 73.391168 
L 236.702901 73.342582 
L 237.788702 72.624586 
L 238.874503 72.640781 
L 241.046105 72.019957 
L 242.131906 71.323555 
L 243.217708 70.945663 
L 244.303509 71.069827 
L 245.38931 70.583965 
L 246.475111 70.556973 
L 247.560912 69.704015 
L 248.646713 70.114299 
L 250.818316 68.797073 
L 251.904117 69.180364 
L 252.989918 68.494759 
L 254.075719 68.13846 
L 255.16152 68.203242 
L 256.247321 68.019694 
L 257.333123 67.582418 
L 258.418924 67.636403 
L 259.504725 67.150541 
L 260.590526 67.020978 
L 261.676327 67.431261 
L 262.762128 66.535116 
L 263.847929 66.383959 
L 264.933731 66.578304 
L 267.105333 65.601181 
L 269.276935 65.223289 
L 270.362736 65.687557 
L 271.448538 65.082928 
L 272.534339 64.953365 
L 273.62014 64.19758 
L 274.705941 64.359534 
L 275.791742 64.208377 
L 276.877543 63.911461 
L 277.963344 64.095009 
L 279.049146 63.24745 
L 280.134947 63.355419 
L 281.220748 63.350021 
L 282.306549 63.112488 
L 283.39235 62.642822 
L 284.478151 62.723799 
L 285.563953 62.545649 
L 287.735555 61.924826 
L 288.821356 61.892435 
L 293.164561 61.16904 
L 294.250362 60.785749 
L 295.336163 60.872125 
L 296.421964 60.526623 
L 298.593566 60.14873 
L 299.679368 60.251301 
L 301.85097 59.576493 
L 302.936771 59.598087 
L 304.022572 59.457727 
L 305.108373 59.139217 
L 306.194175 59.139217 
L 307.279976 58.723535 
L 308.365777 58.853098 
L 310.537379 58.442815 
L 312.708981 58.448213 
L 313.794783 57.870578 
L 314.880584 57.778804 
L 317.052186 57.341528 
L 318.137987 57.606053 
L 320.30959 56.882658 
L 322.481192 57.012221 
L 323.566993 56.439984 
L 324.652794 56.483172 
L 325.738595 56.672118 
L 327.910198 56.407593 
L 330.0818 55.921731 
L 331.167601 55.543839 
L 333.339203 55.60862 
L 334.425005 55.263118 
L 335.510806 55.128157 
L 338.768209 55.128157 
L 339.85401 54.858233 
L 342.025613 54.766459 
L 344.197215 54.485739 
L 345.283016 54.561318 
L 346.368817 54.393965 
L 347.454618 54.410161 
L 348.54042 54.113245 
L 351.797823 54.12944 
L 352.883624 53.967486 
L 356.141028 53.805533 
L 357.226829 53.670571 
L 359.398431 53.762345 
L 361.570033 53.773142 
L 364.827437 53.713759 
L 365.913238 53.724556 
L 366.999039 53.568 
L 368.08484 53.605789 
L 369.170642 53.827126 
L 371.342244 53.978283 
L 372.428045 54.30759 
L 373.513846 54.161831 
L 375.685448 54.58831 
L 376.77125 54.318387 
L 380.028653 54.669287 
L 381.114454 54.507333 
L 384.371858 54.372371 
L 385.457659 54.593709 
L 387.629261 54.491138 
L 388.715062 54.572115 
L 389.800863 54.890624 
L 390.886665 54.701678 
L 395.229869 54.674686 
L 397.401472 54.923015 
L 398.487273 54.615302 
L 398.487273 54.615302 
" clip-path="url(#p7595b72996)" style="fill: none; stroke: #1f77b4; stroke-width: 1.5; stroke-linecap: square"/>
   </g>
   <g id="line2d_17">
    <path d="M 73.832727 279.378275 
L 74.918528 253.681152 
L 77.090131 230.138925 
L 78.175932 221.142238 
L 79.261733 190.327241 
L 80.347534 182.946725 
L 81.433335 179.202595 
L 82.519137 170.717697 
L 83.604938 166.811949 
L 84.690739 165.653693 
L 85.77654 157.815263 
L 86.862341 158.057689 
L 87.948142 153.10143 
L 89.033943 147.417895 
L 90.119745 145.990277 
L 91.205546 142.003721 
L 92.291347 145.128319 
L 93.377148 143.296658 
L 94.462949 142.300019 
L 95.54875 167.215992 
L 96.634552 172.549357 
L 97.720353 166.892758 
L 98.806154 158.300114 
L 99.891955 161.774882 
L 100.977756 156.683943 
L 102.063557 160.643563 
L 103.149358 154.852282 
L 104.23516 144.805085 
L 105.320961 144.077808 
L 106.406762 145.397681 
L 107.492563 151.808493 
L 108.578364 144.023935 
L 109.664165 141.30338 
L 110.749967 142.730998 
L 111.835768 139.013804 
L 112.921569 140.764657 
L 116.178972 134.677078 
L 117.264773 133.976737 
L 118.350575 134.838695 
L 119.436376 131.579417 
L 121.607978 128.050776 
L 122.693779 129.855501 
L 123.77958 129.532267 
L 124.865382 126.784776 
L 125.951183 125.033923 
L 127.036984 124.387455 
L 128.122785 123.552433 
L 129.208586 122.151751 
L 130.294387 123.14839 
L 132.46599 122.124815 
L 133.551791 122.394177 
L 134.637592 120.481708 
L 135.723393 121.774645 
L 136.809194 121.262857 
L 137.894995 121.88239 
L 138.980797 144.589595 
L 140.066598 142.192275 
L 141.152399 143.539084 
L 142.2382 139.875762 
L 143.324001 142.192275 
L 144.409802 140.091252 
L 145.495604 144.158616 
L 146.581405 139.310103 
L 147.667206 137.182144 
L 148.753007 136.374058 
L 149.838808 138.636698 
L 150.924609 136.99359 
L 152.01041 137.882485 
L 153.096212 138.017166 
L 154.182013 136.99359 
L 155.267814 136.212441 
L 156.353615 137.478442 
L 157.439416 136.697292 
L 158.525217 133.788184 
L 159.611019 132.980099 
L 161.782621 132.252822 
L 162.868422 129.101288 
L 163.954223 136.481803 
L 165.040024 132.818481 
L 166.125825 131.067629 
L 167.211627 131.444736 
L 168.297428 129.586139 
L 169.383229 130.097927 
L 170.46903 130.448097 
L 171.554831 129.693884 
L 172.640632 128.347074 
L 173.726434 128.5895 
L 174.812235 129.047415 
L 175.898036 126.838648 
L 176.983837 129.909373 
L 178.069638 129.50533 
L 179.155439 125.437966 
L 180.24124 125.7612 
L 181.327042 125.545711 
L 182.412843 123.417752 
L 183.498644 124.468264 
L 184.584445 124.549072 
L 185.670246 121.613028 
L 186.756047 123.336944 
L 187.841849 122.286432 
L 188.92765 120.912687 
L 190.013451 120.993495 
L 191.099252 121.559155 
L 192.185053 120.831878 
L 193.270854 123.417752 
L 194.356656 120.454772 
L 195.442457 118.569239 
L 196.528258 119.61975 
L 197.614059 117.545663 
L 199.785661 118.299877 
L 200.871462 118.407621 
L 201.957264 118.165196 
L 203.043065 115.66013 
L 204.128866 116.926131 
L 205.214667 115.417705 
L 206.300468 114.798172 
L 207.386269 115.687067 
L 208.472071 115.606258 
L 209.557872 114.771236 
L 210.643673 115.390768 
L 211.729474 115.067534 
L 212.815275 115.09447 
L 213.901076 114.205576 
L 214.986877 114.609619 
L 216.072679 113.936214 
L 217.15848 114.097832 
L 218.244281 113.666853 
L 219.330082 113.963151 
L 220.415883 114.932853 
L 221.501684 113.532172 
L 222.587486 113.909278 
L 223.673287 113.424427 
L 224.759088 113.397491 
L 225.844889 142.030657 
L 226.93069 140.764657 
L 228.016491 140.899338 
L 229.102292 140.225933 
L 230.188094 139.202358 
L 231.273895 135.242738 
L 232.359696 132.953162 
L 233.445497 134.677078 
L 234.531298 132.683801 
L 235.617099 136.508739 
L 236.702901 137.909421 
L 237.788702 139.067677 
L 238.874503 135.916143 
L 239.960304 135.916143 
L 241.046105 135.350483 
L 242.131906 136.535675 
L 243.217708 135.996952 
L 244.303509 134.165291 
L 245.38931 138.502017 
L 246.475111 135.943079 
L 247.560912 132.145077 
L 248.646713 131.579417 
L 249.732514 135.835334 
L 250.818316 128.481755 
L 251.904117 134.59627 
L 252.989918 134.811759 
L 254.075719 128.077713 
L 255.16152 141.168699 
L 256.247321 136.670356 
L 257.333123 139.417847 
L 258.418924 131.76797 
L 259.504725 138.986868 
L 260.590526 136.751165 
L 261.676327 128.185457 
L 262.762128 129.316777 
L 263.847929 132.010396 
L 264.933731 128.454819 
L 266.019532 128.751117 
L 267.105333 131.121502 
L 268.191134 126.919457 
L 269.276935 133.303333 
L 270.362736 127.916095 
L 271.448538 136.239377 
L 272.534339 132.306694 
L 273.62014 127.835287 
L 274.705941 129.020479 
L 275.791742 130.906012 
L 276.877543 129.397586 
L 277.963344 128.320138 
L 279.049146 128.02384 
L 280.134947 135.242738 
L 281.220748 125.922818 
L 282.306549 128.751117 
L 283.39235 126.299924 
L 284.478151 128.427883 
L 285.563953 127.188818 
L 286.649754 131.929587 
L 287.735555 127.619797 
L 288.821356 128.02384 
L 289.907157 124.764562 
L 290.992958 126.407669 
L 292.07876 125.949754 
L 293.164561 130.367288 
L 294.250362 126.057499 
L 295.336163 128.939671 
L 296.421964 126.299924 
L 297.507765 125.464902 
L 298.593566 127.323499 
L 299.679368 124.091157 
L 300.765169 125.41103 
L 301.85097 127.538989 
L 302.936771 122.879028 
L 304.022572 126.811712 
L 305.108373 122.852092 
L 306.194175 127.943032 
L 307.279976 127.781414 
L 308.365777 124.737625 
L 309.451578 124.037285 
L 310.537379 122.259496 
L 311.62318 119.862176 
L 312.708981 123.202263 
L 313.794783 122.959837 
L 314.880584 121.747709 
L 315.966385 123.283071 
L 317.052186 125.168604 
L 318.137987 122.286432 
L 319.223788 119.996856 
L 320.30959 123.14839 
L 321.395391 120.427835 
L 322.481192 121.31673 
L 323.566993 120.912687 
L 324.652794 120.023793 
L 325.738595 122.124815 
L 326.824396 119.781367 
L 327.910198 120.75107 
L 328.995999 122.421113 
L 330.0818 118.111323 
L 331.167601 118.515366 
L 332.253402 119.161835 
L 333.339203 118.946345 
L 334.425005 117.788089 
L 335.510806 120.023793 
L 336.596607 117.815025 
L 337.682408 117.868898 
L 338.768209 117.491791 
L 339.85401 116.629833 
L 340.939811 115.579322 
L 342.025613 113.586044 
L 343.111414 116.953067 
L 344.197215 114.986726 
L 345.283016 116.387407 
L 346.368817 114.771236 
L 347.454618 115.336896 
L 348.54042 114.39413 
L 349.626221 114.771236 
L 350.712022 113.101193 
L 351.797823 114.528811 
L 352.883624 115.067534 
L 353.969425 112.589405 
L 355.055227 113.855406 
L 356.141028 113.936214 
L 357.226829 113.182001 
L 358.31263 114.798172 
L 359.398431 112.050681 
L 360.484232 112.562469 
L 361.570033 113.26281 
L 362.655835 111.054042 
L 363.741636 111.485021 
L 364.827437 111.592766 
L 365.913238 113.04732 
L 366.999039 112.912639 
L 368.08484 112.023745 
L 369.170642 112.966512 
L 370.256443 112.508596 
L 371.342244 115.283024 
L 372.428045 116.764514 
L 373.513846 114.474938 
L 374.599647 114.528811 
L 375.685448 115.956428 
L 376.77125 117.00694 
L 377.857051 114.124768 
L 378.942852 116.22579 
L 380.028653 117.303238 
L 381.114454 114.474938 
L 382.200255 117.464855 
L 383.286057 117.680344 
L 384.371858 116.818386 
L 385.457659 117.141621 
L 386.54346 115.175279 
L 387.629261 115.740939 
L 388.715062 117.599536 
L 389.800863 116.468216 
L 390.886665 114.017023 
L 391.972466 115.148343 
L 393.058267 117.384046 
L 394.144068 115.87562 
L 396.31567 114.7443 
L 397.401472 114.7443 
L 398.487273 116.818386 
L 398.487273 116.818386 
" clip-path="url(#p7595b72996)" style="fill: none; stroke: #ff7f0e; stroke-width: 1.5; stroke-linecap: square"/>
   </g>
   <g id="line2d_18">
    <path d="M 73.832727 295.488 
L 74.918528 271.319776 
L 76.00433 267.325678 
L 77.090131 256.88575 
L 78.175932 260.601059 
L 79.261733 249.139172 
L 80.347534 241.68997 
L 81.433335 242.767417 
L 82.519137 235.076597 
L 83.604938 234.277939 
L 84.690739 232.940288 
L 85.77654 225.621188 
L 86.862341 231.435633 
L 87.948142 222.871811 
L 89.033943 226.568533 
L 90.119745 223.874915 
L 91.205546 219.007815 
L 92.291347 223.299019 
L 93.377148 223.429121 
L 94.462949 222.426017 
L 95.54875 234.129252 
L 96.634552 240.463835 
L 97.720353 233.386082 
L 98.806154 243.714763 
L 99.891955 238.884835 
L 100.977756 231.509977 
L 102.063557 231.324117 
L 103.149358 224.339295 
L 104.23516 221.459816 
L 105.320961 222.444334 
L 106.406762 226.30833 
L 107.492563 232.382979 
L 108.578364 226.122739 
L 109.664165 225.84395 
L 110.749967 224.487982 
L 111.835768 212.933166 
L 112.921569 216.128337 
L 114.00737 224.35788 
L 115.093171 222.853225 
L 116.178972 219.342093 
L 117.264773 211.669859 
L 118.350575 214.103543 
L 119.436376 215.515269 
L 120.522177 213.230542 
L 121.607978 215.273921 
L 122.693779 212.561716 
L 123.77958 212.394442 
L 124.865382 208.567618 
L 125.951183 211.632956 
L 127.036984 208.474688 
L 128.122785 206.821345 
L 129.208586 208.23334 
L 130.294387 207.898793 
L 131.380189 206.301208 
L 132.46599 205.911172 
L 133.551791 208.474688 
L 134.637592 205.706995 
L 135.723393 206.803029 
L 137.894995 206.487067 
L 138.980797 224.339295 
L 140.066598 222.723123 
L 141.152399 217.87461 
L 142.2382 219.286335 
L 143.324001 222.017126 
L 144.409802 223.447707 
L 145.495604 223.707641 
L 146.581405 229.726532 
L 147.667206 217.001608 
L 148.753007 223.726227 
L 149.838808 223.837743 
L 150.924609 221.62709 
L 152.01041 211.242651 
L 153.096212 218.264646 
L 154.182013 223.949259 
L 155.267814 224.097677 
L 156.353615 223.633297 
L 157.439416 222.908983 
L 158.525217 218.989229 
L 159.611019 225.4725 
L 160.69682 215.106647 
L 161.782621 215.478097 
L 162.868422 215.663957 
L 163.954223 217.150026 
L 165.040024 223.949259 
L 166.125825 223.429121 
L 167.211627 215.719715 
L 168.297428 216.425712 
L 169.383229 214.177887 
L 170.46903 214.363478 
L 171.554831 215.273921 
L 172.640632 213.397546 
L 173.726434 216.94585 
L 174.812235 211.019889 
L 175.898036 207.731788 
L 176.983837 218.821955 
L 178.069638 220.178192 
L 179.155439 216.66706 
L 180.24124 210.982717 
L 181.327042 213.434718 
L 182.412843 212.91458 
L 183.498644 211.447097 
L 184.584445 208.177582 
L 185.670246 209.793754 
L 186.756047 215.533855 
L 187.841849 208.772064 
L 188.92765 208.066067 
L 190.013451 206.189961 
L 191.099252 209.53355 
L 192.185053 207.471585 
L 193.270854 213.750679 
L 194.356656 213.230542 
L 195.442457 209.1621 
L 196.528258 208.994826 
L 197.614059 205.428206 
L 198.69986 204.035066 
L 199.785661 208.251926 
L 200.871462 203.217599 
L 201.957264 207.750309 
L 203.043065 206.672862 
L 204.128866 203.403366 
L 205.214667 201.137011 
L 206.300468 204.27647 
L 207.386269 205.502531 
L 208.472071 207.193009 
L 209.557872 206.338482 
L 211.729474 203.589133 
L 212.815275 203.700593 
L 213.901076 204.239317 
L 214.986877 206.487095 
L 216.072679 204.648004 
L 218.244281 204.61085 
L 219.330082 203.031833 
L 220.415883 205.372494 
L 221.501684 203.421943 
L 222.587486 203.83063 
L 223.673287 203.310483 
L 224.759088 203.236176 
L 225.844889 230.060903 
L 226.93069 224.636512 
L 229.102292 220.345299 
L 230.188094 219.899459 
L 231.273895 219.918035 
L 232.359696 218.691974 
L 233.445497 221.18125 
L 234.531298 213.379044 
L 235.617099 216.481349 
L 236.702901 220.048072 
L 237.788702 226.698524 
L 238.874503 221.34844 
L 239.960304 219.676538 
L 241.046105 220.828293 
L 242.131906 219.657962 
L 243.217708 216.908613 
L 244.303509 217.465913 
L 245.38931 223.837715 
L 247.560912 217.503067 
L 248.646713 216.407043 
L 249.732514 219.750845 
L 250.818316 215.682552 
L 251.904117 213.137547 
L 252.989918 218.134674 
L 254.075719 212.72886 
L 255.16152 221.924317 
L 256.247321 222.593077 
L 257.333123 226.88429 
L 258.418924 214.307878 
L 259.504725 222.871727 
L 260.590526 223.057494 
L 261.676327 218.877741 
L 262.762128 215.385325 
L 263.847929 216.555656 
L 264.933731 210.165278 
L 266.019532 213.081817 
L 267.105333 215.088098 
L 268.191134 219.676538 
L 269.276935 214.437914 
L 270.362736 215.088098 
L 271.448538 225.806843 
L 272.534339 214.326454 
L 274.705941 219.305005 
L 275.791742 220.438182 
L 276.877543 215.088098 
L 277.963344 218.301864 
L 279.049146 218.208981 
L 280.134947 215.719705 
L 281.220748 214.363608 
L 282.306549 218.376171 
L 283.39235 219.379311 
L 284.478151 225.546769 
L 285.563953 215.924049 
L 286.649754 218.078944 
L 287.735555 215.236712 
L 288.821356 209.403634 
L 289.907157 205.298188 
L 290.992958 210.369621 
L 292.07876 217.09438 
L 293.164561 213.769154 
L 294.250362 209.533671 
L 295.336163 213.28616 
L 296.421964 212.357326 
L 297.507765 215.905472 
L 298.593566 213.00751 
L 299.679368 213.416197 
L 300.765169 210.945498 
L 301.85097 213.193277 
L 302.936771 205.855488 
L 304.022572 204.016397 
L 305.108373 216.778576 
L 306.194175 213.34189 
L 307.279976 210.536811 
L 308.365777 217.577373 
L 309.451578 207.397352 
L 310.537379 208.64199 
L 311.62318 205.985525 
L 312.708981 208.660567 
L 313.794783 214.159264 
L 314.880584 212.858897 
L 315.966385 209.868051 
L 317.052186 211.038382 
L 318.137987 204.183587 
L 320.30959 209.923781 
L 321.395391 207.583119 
L 322.481192 210.796885 
L 323.566993 208.660567 
L 324.652794 206.840052 
L 325.738595 214.865178 
L 326.824396 210.536811 
L 327.910198 210.332468 
L 328.995999 212.283019 
L 330.0818 213.954921 
L 331.167601 208.53053 
L 332.253402 208.734873 
L 333.339203 207.471659 
L 334.425005 208.53053 
L 335.510806 208.02896 
L 336.596607 210.239585 
L 337.682408 208.177573 
L 338.768209 205.483954 
L 339.85401 203.106139 
L 342.025613 201.192741 
L 343.111414 204.016397 
L 344.197215 203.310483 
L 345.283016 204.462237 
L 346.368817 204.369354 
L 347.454618 201.787195 
L 348.54042 204.257893 
L 349.626221 201.657158 
L 350.712022 203.031833 
L 351.797823 203.124716 
L 352.883624 202.418802 
L 353.969425 199.985257 
L 355.055227 204.05355 
L 356.141028 200.691171 
L 357.226829 196.882951 
L 358.31263 203.71917 
L 359.398431 199.316496 
L 360.484232 199.316496 
L 361.570033 200.263907 
L 362.655835 200.003834 
L 363.741636 202.808912 
L 364.827437 199.96668 
L 365.913238 200.1896 
L 366.999039 200.672594 
L 368.08484 202.381649 
L 369.170642 199.019269 
L 370.256443 200.505404 
L 371.342244 203.812053 
L 372.428045 201.787195 
L 373.513846 201.192741 
L 375.685448 200.802631 
L 376.77125 205.985525 
L 377.857051 200.523981 
L 378.942852 207.601696 
L 380.028653 210.481081 
L 381.114454 203.7749 
L 382.200255 203.106139 
L 383.286057 203.88636 
L 384.371858 206.747169 
L 385.457659 208.53053 
L 386.54346 204.072127 
L 387.629261 201.304201 
L 388.715062 206.301328 
L 389.800863 206.189868 
L 390.886665 201.898655 
L 391.972466 204.648004 
L 393.058267 204.852347 
L 394.144068 202.418802 
L 395.229869 198.666313 
L 396.31567 205.093844 
L 397.401472 202.474532 
L 398.487273 204.926654 
L 398.487273 204.926654 
" clip-path="url(#p7595b72996)" style="fill: none; stroke: #2ca02c; stroke-width: 1.5; stroke-linecap: square"/>
   </g>
   <g id="line2d_19">
    <path d="M 368.08484 112.373916 
L 369.170642 113.478299 
L 370.256443 113.182001 
L 371.342244 113.774597 
L 372.428045 115.148343 
L 373.513846 114.878981 
L 374.599647 116.22579 
L 376.77125 116.629833 
L 377.857051 120.158474 
L 378.942852 117.464855 
L 380.028653 116.656769 
L 381.114454 116.899195 
L 382.200255 113.990087 
L 383.286057 117.437919 
L 384.371858 117.033876 
L 386.54346 119.215707 
L 387.629261 117.5726 
L 388.715062 116.980004 
L 389.800863 119.161835 
L 390.886665 118.057451 
L 391.972466 112.158426 
L 393.058267 118.380685 
L 394.144068 123.256135 
L 395.229869 121.88239 
L 396.31567 121.720772 
L 397.401472 124.576008 
L 398.487273 123.660178 
L 398.487273 123.660178 
" clip-path="url(#p7595b72996)" style="fill: none; stroke: #d62728; stroke-width: 1.5; stroke-linecap: square"/>
   </g>
   <g id="line2d_20">
    <path d="M 368.08484 201.972962 
L 369.170642 197.310215 
L 370.256443 202.734606 
L 371.342244 204.870924 
L 372.428045 207.434506 
L 373.513846 205.168151 
L 374.599647 207.936076 
L 375.685448 203.199023 
L 376.77125 202.976102 
L 377.857051 208.19615 
L 378.942852 204.072127 
L 380.028653 204.295047 
L 381.114454 202.957526 
L 382.200255 202.400225 
L 383.286057 207.174432 
L 384.371858 206.189868 
L 385.457659 205.855488 
L 386.54346 209.255021 
L 387.629261 203.570556 
L 388.715062 202.233035 
L 389.800863 204.072127 
L 390.886665 205.688298 
L 391.972466 198.852079 
L 393.058267 206.078408 
L 394.144068 208.939217 
L 395.229869 208.270456 
L 396.31567 203.88636 
L 397.401472 208.36334 
L 398.487273 208.567683 
L 398.487273 208.567683 
" clip-path="url(#p7595b72996)" style="fill: none; stroke: #9467bd; stroke-width: 1.5; stroke-linecap: square"/>
   </g>
   <g id="patch_3">
    <path d="M 57.6 307.584 
L 57.6 41.472 
" style="fill: none; stroke: #000000; stroke-width: 0.8; stroke-linejoin: miter; stroke-linecap: square"/>
   </g>
   <g id="patch_4">
    <path d="M 414.72 307.584 
L 414.72 41.472 
" style="fill: none; stroke: #000000; stroke-width: 0.8; stroke-linejoin: miter; stroke-linecap: square"/>
   </g>
   <g id="patch_5">
    <path d="M 57.6 307.584 
L 414.72 307.584 
" style="fill: none; stroke: #000000; stroke-width: 0.8; stroke-linejoin: miter; stroke-linecap: square"/>
   </g>
   <g id="patch_6">
    <path d="M 57.6 41.472 
L 414.72 41.472 
" style="fill: none; stroke: #000000; stroke-width: 0.8; stroke-linejoin: miter; stroke-linecap: square"/>
   </g>
   <g id="text_18">
    <!-- Learning Curves -->
    <g transform="translate(187.37625 35.472) scale(0.12 -0.12)">
     <defs>
      <path id="DejaVuSans-4c" d="M 628 4666 
L 1259 4666 
L 1259 531 
L 3531 531 
L 3531 0 
L 628 0 
L 628 4666 
z
" transform="scale(0.015625)"/>
      <path id="DejaVuSans-65" d="M 3597 1894 
L 3597 1613 
L 953 1613 
Q 991 1019 1311 708 
Q 1631 397 2203 397 
Q 2534 397 2845 478 
Q 3156 559 3463 722 
L 3463 178 
Q 3153 47 2828 -22 
Q 2503 -91 2169 -91 
Q 1331 -91 842 396 
Q 353 884 353 1716 
Q 353 2575 817 3079 
Q 1281 3584 2069 3584 
Q 2775 3584 3186 3129 
Q 3597 2675 3597 1894 
z
M 3022 2063 
Q 3016 2534 2758 2815 
Q 2500 3097 2075 3097 
Q 1594 3097 1305 2825 
Q 1016 2553 972 2059 
L 3022 2063 
z
" transform="scale(0.015625)"/>
      <path id="DejaVuSans-6e" d="M 3513 2113 
L 3513 0 
L 2938 0 
L 2938 2094 
Q 2938 2591 2744 2837 
Q 2550 3084 2163 3084 
Q 1697 3084 1428 2787 
Q 1159 2491 1159 1978 
L 1159 0 
L 581 0 
L 581 3500 
L 1159 3500 
L 1159 2956 
Q 1366 3272 1645 3428 
Q 1925 3584 2291 3584 
Q 2894 3584 3203 3211 
Q 3513 2838 3513 2113 
z
" transform="scale(0.015625)"/>
      <path id="DejaVuSans-69" d="M 603 3500 
L 1178 3500 
L 1178 0 
L 603 0 
L 603 3500 
z
M 603 4863 
L 1178 4863 
L 1178 4134 
L 603 4134 
L 603 4863 
z
" transform="scale(0.015625)"/>
      <path id="DejaVuSans-67" d="M 2906 1791 
Q 2906 2416 2648 2759 
Q 2391 3103 1925 3103 
Q 1463 3103 1205 2759 
Q 947 2416 947 1791 
Q 947 1169 1205 825 
Q 1463 481 1925 481 
Q 2391 481 2648 825 
Q 2906 1169 2906 1791 
z
M 3481 434 
Q 3481 -459 3084 -895 
Q 2688 -1331 1869 -1331 
Q 1566 -1331 1297 -1286 
Q 1028 -1241 775 -1147 
L 775 -588 
Q 1028 -725 1275 -790 
Q 1522 -856 1778 -856 
Q 2344 -856 2625 -561 
Q 2906 -266 2906 331 
L 2906 616 
Q 2728 306 2450 153 
Q 2172 0 1784 0 
Q 1141 0 747 490 
Q 353 981 353 1791 
Q 353 2603 747 3093 
Q 1141 3584 1784 3584 
Q 2172 3584 2450 3431 
Q 2728 3278 2906 2969 
L 2906 3500 
L 3481 3500 
L 3481 434 
z
" transform="scale(0.015625)"/>
      <path id="DejaVuSans-20" transform="scale(0.015625)"/>
      <path id="DejaVuSans-43" d="M 4122 4306 
L 4122 3641 
Q 3803 3938 3442 4084 
Q 3081 4231 2675 4231 
Q 1875 4231 1450 3742 
Q 1025 3253 1025 2328 
Q 1025 1406 1450 917 
Q 1875 428 2675 428 
Q 3081 428 3442 575 
Q 3803 722 4122 1019 
L 4122 359 
Q 3791 134 3420 21 
Q 3050 -91 2638 -91 
Q 1578 -91 968 557 
Q 359 1206 359 2328 
Q 359 3453 968 4101 
Q 1578 4750 2638 4750 
Q 3056 4750 3426 4639 
Q 3797 4528 4122 4306 
z
" transform="scale(0.015625)"/>
      <path id="DejaVuSans-76" d="M 191 3500 
L 800 3500 
L 1894 563 
L 2988 3500 
L 3597 3500 
L 2284 0 
L 1503 0 
L 191 3500 
z
" transform="scale(0.015625)"/>
     </defs>
     <use xlink:href="#DejaVuSans-4c"/>
     <use xlink:href="#DejaVuSans-65" x="53.962891"/>
     <use xlink:href="#DejaVuSans-61" x="115.486328"/>
     <use xlink:href="#DejaVuSans-72" x="176.765625"/>
     <use xlink:href="#DejaVuSans-6e" x="216.128906"/>
     <use xlink:href="#DejaVuSans-69" x="279.507812"/>
     <use xlink:href="#DejaVuSans-6e" x="307.291016"/>
     <use xlink:href="#DejaVuSans-67" x="370.669922"/>
     <use xlink:href="#DejaVuSans-20" x="434.146484"/>
     <use xlink:href="#DejaVuSans-43" x="465.933594"/>
     <use xlink:href="#DejaVuSans-75" x="535.757812"/>
     <use xlink:href="#DejaVuSans-72" x="599.136719"/>
     <use xlink:href="#DejaVuSans-76" x="640.25"/>
     <use xlink:href="#DejaVuSans-65" x="699.429688"/>
     <use xlink:href="#DejaVuSans-73" x="760.953125"/>
    </g>
   </g>
   <g id="legend_1">
    <g id="patch_7">
     <path d="M 214.18875 302.584 
L 407.72 302.584 
Q 409.72 302.584 409.72 300.584 
L 409.72 228.193375 
Q 409.72 226.193375 407.72 226.193375 
L 214.18875 226.193375 
Q 212.18875 226.193375 212.18875 228.193375 
L 212.18875 300.584 
Q 212.18875 302.584 214.18875 302.584 
z
" style="fill: #ffffff; opacity: 0.8; stroke: #cccccc; stroke-linejoin: miter"/>
    </g>
    <g id="line2d_21">
     <path d="M 216.18875 234.291812 
L 226.18875 234.291812 
L 236.18875 234.291812 
" style="fill: none; stroke: #1f77b4; stroke-width: 1.5; stroke-linecap: square"/>
    </g>
    <g id="text_19">
     <!-- Train Accuracy -->
     <g transform="translate(244.18875 237.791812) scale(0.1 -0.1)">
      <defs>
       <path id="DejaVuSans-54" d="M -19 4666 
L 3928 4666 
L 3928 4134 
L 2272 4134 
L 2272 0 
L 1638 0 
L 1638 4134 
L -19 4134 
L -19 4666 
z
" transform="scale(0.015625)"/>
      </defs>
      <use xlink:href="#DejaVuSans-54"/>
      <use xlink:href="#DejaVuSans-72" x="46.333984"/>
      <use xlink:href="#DejaVuSans-61" x="87.447266"/>
      <use xlink:href="#DejaVuSans-69" x="148.726562"/>
      <use xlink:href="#DejaVuSans-6e" x="176.509766"/>
      <use xlink:href="#DejaVuSans-20" x="239.888672"/>
      <use xlink:href="#DejaVuSans-41" x="271.675781"/>
      <use xlink:href="#DejaVuSans-63" x="338.333984"/>
      <use xlink:href="#DejaVuSans-63" x="393.314453"/>
      <use xlink:href="#DejaVuSans-75" x="448.294922"/>
      <use xlink:href="#DejaVuSans-72" x="511.673828"/>
      <use xlink:href="#DejaVuSans-61" x="552.787109"/>
      <use xlink:href="#DejaVuSans-63" x="614.066406"/>
      <use xlink:href="#DejaVuSans-79" x="669.046875"/>
     </g>
    </g>
    <g id="line2d_22">
     <path d="M 216.18875 248.969937 
L 226.18875 248.969937 
L 236.18875 248.969937 
" style="fill: none; stroke: #ff7f0e; stroke-width: 1.5; stroke-linecap: square"/>
    </g>
    <g id="text_20">
     <!-- Validation Accuracy -->
     <g transform="translate(244.18875 252.469937) scale(0.1 -0.1)">
      <defs>
       <path id="DejaVuSans-56" d="M 1831 0 
L 50 4666 
L 709 4666 
L 2188 738 
L 3669 4666 
L 4325 4666 
L 2547 0 
L 1831 0 
z
" transform="scale(0.015625)"/>
       <path id="DejaVuSans-6c" d="M 603 4863 
L 1178 4863 
L 1178 0 
L 603 0 
L 603 4863 
z
" transform="scale(0.015625)"/>
       <path id="DejaVuSans-64" d="M 2906 2969 
L 2906 4863 
L 3481 4863 
L 3481 0 
L 2906 0 
L 2906 525 
Q 2725 213 2448 61 
Q 2172 -91 1784 -91 
Q 1150 -91 751 415 
Q 353 922 353 1747 
Q 353 2572 751 3078 
Q 1150 3584 1784 3584 
Q 2172 3584 2448 3432 
Q 2725 3281 2906 2969 
z
M 947 1747 
Q 947 1113 1208 752 
Q 1469 391 1925 391 
Q 2381 391 2643 752 
Q 2906 1113 2906 1747 
Q 2906 2381 2643 2742 
Q 2381 3103 1925 3103 
Q 1469 3103 1208 2742 
Q 947 2381 947 1747 
z
" transform="scale(0.015625)"/>
       <path id="DejaVuSans-74" d="M 1172 4494 
L 1172 3500 
L 2356 3500 
L 2356 3053 
L 1172 3053 
L 1172 1153 
Q 1172 725 1289 603 
Q 1406 481 1766 481 
L 2356 481 
L 2356 0 
L 1766 0 
Q 1100 0 847 248 
Q 594 497 594 1153 
L 594 3053 
L 172 3053 
L 172 3500 
L 594 3500 
L 594 4494 
L 1172 4494 
z
" transform="scale(0.015625)"/>
      </defs>
      <use xlink:href="#DejaVuSans-56"/>
      <use xlink:href="#DejaVuSans-61" x="60.658203"/>
      <use xlink:href="#DejaVuSans-6c" x="121.9375"/>
      <use xlink:href="#DejaVuSans-69" x="149.720703"/>
      <use xlink:href="#DejaVuSans-64" x="177.503906"/>
      <use xlink:href="#DejaVuSans-61" x="240.980469"/>
      <use xlink:href="#DejaVuSans-74" x="302.259766"/>
      <use xlink:href="#DejaVuSans-69" x="341.46875"/>
      <use xlink:href="#DejaVuSans-6f" x="369.251953"/>
      <use xlink:href="#DejaVuSans-6e" x="430.433594"/>
      <use xlink:href="#DejaVuSans-20" x="493.8125"/>
      <use xlink:href="#DejaVuSans-41" x="525.599609"/>
      <use xlink:href="#DejaVuSans-63" x="592.257812"/>
      <use xlink:href="#DejaVuSans-63" x="647.238281"/>
      <use xlink:href="#DejaVuSans-75" x="702.21875"/>
      <use xlink:href="#DejaVuSans-72" x="765.597656"/>
      <use xlink:href="#DejaVuSans-61" x="806.710938"/>
      <use xlink:href="#DejaVuSans-63" x="867.990234"/>
      <use xlink:href="#DejaVuSans-79" x="922.970703"/>
     </g>
    </g>
    <g id="line2d_23">
     <path d="M 216.18875 263.648062 
L 226.18875 263.648062 
L 236.18875 263.648062 
" style="fill: none; stroke: #2ca02c; stroke-width: 1.5; stroke-linecap: square"/>
    </g>
    <g id="text_21">
     <!-- Robust Validation Accuracy -->
     <g transform="translate(244.18875 267.148062) scale(0.1 -0.1)">
      <defs>
       <path id="DejaVuSans-52" d="M 2841 2188 
Q 3044 2119 3236 1894 
Q 3428 1669 3622 1275 
L 4263 0 
L 3584 0 
L 2988 1197 
Q 2756 1666 2539 1819 
Q 2322 1972 1947 1972 
L 1259 1972 
L 1259 0 
L 628 0 
L 628 4666 
L 2053 4666 
Q 2853 4666 3247 4331 
Q 3641 3997 3641 3322 
Q 3641 2881 3436 2590 
Q 3231 2300 2841 2188 
z
M 1259 4147 
L 1259 2491 
L 2053 2491 
Q 2509 2491 2742 2702 
Q 2975 2913 2975 3322 
Q 2975 3731 2742 3939 
Q 2509 4147 2053 4147 
L 1259 4147 
z
" transform="scale(0.015625)"/>
       <path id="DejaVuSans-62" d="M 3116 1747 
Q 3116 2381 2855 2742 
Q 2594 3103 2138 3103 
Q 1681 3103 1420 2742 
Q 1159 2381 1159 1747 
Q 1159 1113 1420 752 
Q 1681 391 2138 391 
Q 2594 391 2855 752 
Q 3116 1113 3116 1747 
z
M 1159 2969 
Q 1341 3281 1617 3432 
Q 1894 3584 2278 3584 
Q 2916 3584 3314 3078 
Q 3713 2572 3713 1747 
Q 3713 922 3314 415 
Q 2916 -91 2278 -91 
Q 1894 -91 1617 61 
Q 1341 213 1159 525 
L 1159 0 
L 581 0 
L 581 4863 
L 1159 4863 
L 1159 2969 
z
" transform="scale(0.015625)"/>
      </defs>
      <use xlink:href="#DejaVuSans-52"/>
      <use xlink:href="#DejaVuSans-6f" x="64.982422"/>
      <use xlink:href="#DejaVuSans-62" x="126.164062"/>
      <use xlink:href="#DejaVuSans-75" x="189.640625"/>
      <use xlink:href="#DejaVuSans-73" x="253.019531"/>
      <use xlink:href="#DejaVuSans-74" x="305.119141"/>
      <use xlink:href="#DejaVuSans-20" x="344.328125"/>
      <use xlink:href="#DejaVuSans-56" x="376.115234"/>
      <use xlink:href="#DejaVuSans-61" x="436.773438"/>
      <use xlink:href="#DejaVuSans-6c" x="498.052734"/>
      <use xlink:href="#DejaVuSans-69" x="525.835938"/>
      <use xlink:href="#DejaVuSans-64" x="553.619141"/>
      <use xlink:href="#DejaVuSans-61" x="617.095703"/>
      <use xlink:href="#DejaVuSans-74" x="678.375"/>
      <use xlink:href="#DejaVuSans-69" x="717.583984"/>
      <use xlink:href="#DejaVuSans-6f" x="745.367188"/>
      <use xlink:href="#DejaVuSans-6e" x="806.548828"/>
      <use xlink:href="#DejaVuSans-20" x="869.927734"/>
      <use xlink:href="#DejaVuSans-41" x="901.714844"/>
      <use xlink:href="#DejaVuSans-63" x="968.373047"/>
      <use xlink:href="#DejaVuSans-63" x="1023.353516"/>
      <use xlink:href="#DejaVuSans-75" x="1078.333984"/>
      <use xlink:href="#DejaVuSans-72" x="1141.712891"/>
      <use xlink:href="#DejaVuSans-61" x="1182.826172"/>
      <use xlink:href="#DejaVuSans-63" x="1244.105469"/>
      <use xlink:href="#DejaVuSans-79" x="1299.085938"/>
     </g>
    </g>
    <g id="line2d_24">
     <path d="M 216.18875 278.326188 
L 226.18875 278.326188 
L 236.18875 278.326188 
" style="fill: none; stroke: #d62728; stroke-width: 1.5; stroke-linecap: square"/>
    </g>
    <g id="text_22">
     <!-- SWA Validation Accuracy -->
     <g transform="translate(244.18875 281.826188) scale(0.1 -0.1)">
      <defs>
       <path id="DejaVuSans-53" d="M 3425 4513 
L 3425 3897 
Q 3066 4069 2747 4153 
Q 2428 4238 2131 4238 
Q 1616 4238 1336 4038 
Q 1056 3838 1056 3469 
Q 1056 3159 1242 3001 
Q 1428 2844 1947 2747 
L 2328 2669 
Q 3034 2534 3370 2195 
Q 3706 1856 3706 1288 
Q 3706 609 3251 259 
Q 2797 -91 1919 -91 
Q 1588 -91 1214 -16 
Q 841 59 441 206 
L 441 856 
Q 825 641 1194 531 
Q 1563 422 1919 422 
Q 2459 422 2753 634 
Q 3047 847 3047 1241 
Q 3047 1584 2836 1778 
Q 2625 1972 2144 2069 
L 1759 2144 
Q 1053 2284 737 2584 
Q 422 2884 422 3419 
Q 422 4038 858 4394 
Q 1294 4750 2059 4750 
Q 2388 4750 2728 4690 
Q 3069 4631 3425 4513 
z
" transform="scale(0.015625)"/>
       <path id="DejaVuSans-57" d="M 213 4666 
L 850 4666 
L 1831 722 
L 2809 4666 
L 3519 4666 
L 4500 722 
L 5478 4666 
L 6119 4666 
L 4947 0 
L 4153 0 
L 3169 4050 
L 2175 0 
L 1381 0 
L 213 4666 
z
" transform="scale(0.015625)"/>
      </defs>
      <use xlink:href="#DejaVuSans-53"/>
      <use xlink:href="#DejaVuSans-57" x="63.476562"/>
      <use xlink:href="#DejaVuSans-41" x="156.853516"/>
      <use xlink:href="#DejaVuSans-20" x="225.261719"/>
      <use xlink:href="#DejaVuSans-56" x="257.048828"/>
      <use xlink:href="#DejaVuSans-61" x="317.707031"/>
      <use xlink:href="#DejaVuSans-6c" x="378.986328"/>
      <use xlink:href="#DejaVuSans-69" x="406.769531"/>
      <use xlink:href="#DejaVuSans-64" x="434.552734"/>
      <use xlink:href="#DejaVuSans-61" x="498.029297"/>
      <use xlink:href="#DejaVuSans-74" x="559.308594"/>
      <use xlink:href="#DejaVuSans-69" x="598.517578"/>
      <use xlink:href="#DejaVuSans-6f" x="626.300781"/>
      <use xlink:href="#DejaVuSans-6e" x="687.482422"/>
      <use xlink:href="#DejaVuSans-20" x="750.861328"/>
      <use xlink:href="#DejaVuSans-41" x="782.648438"/>
      <use xlink:href="#DejaVuSans-63" x="849.306641"/>
      <use xlink:href="#DejaVuSans-63" x="904.287109"/>
      <use xlink:href="#DejaVuSans-75" x="959.267578"/>
      <use xlink:href="#DejaVuSans-72" x="1022.646484"/>
      <use xlink:href="#DejaVuSans-61" x="1063.759766"/>
      <use xlink:href="#DejaVuSans-63" x="1125.039062"/>
      <use xlink:href="#DejaVuSans-79" x="1180.019531"/>
     </g>
    </g>
    <g id="line2d_25">
     <path d="M 216.18875 293.004312 
L 226.18875 293.004312 
L 236.18875 293.004312 
" style="fill: none; stroke: #9467bd; stroke-width: 1.5; stroke-linecap: square"/>
    </g>
    <g id="text_23">
     <!-- SWA Robust Validation Accuracy -->
     <g transform="translate(244.18875 296.504312) scale(0.1 -0.1)">
      <use xlink:href="#DejaVuSans-53"/>
      <use xlink:href="#DejaVuSans-57" x="63.476562"/>
      <use xlink:href="#DejaVuSans-41" x="156.853516"/>
      <use xlink:href="#DejaVuSans-20" x="225.261719"/>
      <use xlink:href="#DejaVuSans-52" x="257.048828"/>
      <use xlink:href="#DejaVuSans-6f" x="322.03125"/>
      <use xlink:href="#DejaVuSans-62" x="383.212891"/>
      <use xlink:href="#DejaVuSans-75" x="446.689453"/>
      <use xlink:href="#DejaVuSans-73" x="510.068359"/>
      <use xlink:href="#DejaVuSans-74" x="562.167969"/>
      <use xlink:href="#DejaVuSans-20" x="601.376953"/>
      <use xlink:href="#DejaVuSans-56" x="633.164062"/>
      <use xlink:href="#DejaVuSans-61" x="693.822266"/>
      <use xlink:href="#DejaVuSans-6c" x="755.101562"/>
      <use xlink:href="#DejaVuSans-69" x="782.884766"/>
      <use xlink:href="#DejaVuSans-64" x="810.667969"/>
      <use xlink:href="#DejaVuSans-61" x="874.144531"/>
      <use xlink:href="#DejaVuSans-74" x="935.423828"/>
      <use xlink:href="#DejaVuSans-69" x="974.632812"/>
      <use xlink:href="#DejaVuSans-6f" x="1002.416016"/>
      <use xlink:href="#DejaVuSans-6e" x="1063.597656"/>
      <use xlink:href="#DejaVuSans-20" x="1126.976562"/>
      <use xlink:href="#DejaVuSans-41" x="1158.763672"/>
      <use xlink:href="#DejaVuSans-63" x="1225.421875"/>
      <use xlink:href="#DejaVuSans-63" x="1280.402344"/>
      <use xlink:href="#DejaVuSans-75" x="1335.382812"/>
      <use xlink:href="#DejaVuSans-72" x="1398.761719"/>
      <use xlink:href="#DejaVuSans-61" x="1439.875"/>
      <use xlink:href="#DejaVuSans-63" x="1501.154297"/>
      <use xlink:href="#DejaVuSans-79" x="1556.134766"/>
     </g>
    </g>
   </g>
  </g>
 </g>
 <defs>
  <clipPath id="p7595b72996">
   <rect x="57.6" y="41.472" width="357.12" height="266.112"/>
  </clipPath>
 </defs>
</svg>
