<?xml version="1.0" encoding="utf-8" standalone="no"?>
<!DOCTYPE svg PUBLIC "-//W3C//DTD SVG 1.1//EN"
  "http://www.w3.org/Graphics/SVG/1.1/DTD/svg11.dtd">
<svg xmlns:xlink="http://www.w3.org/1999/xlink" width="460.8pt" height="345.6pt" viewBox="0 0 460.8 345.6" xmlns="http://www.w3.org/2000/svg" version="1.1">
 <metadata>
  <rdf:RDF xmlns:dc="http://purl.org/dc/elements/1.1/" xmlns:cc="http://creativecommons.org/ns#" xmlns:rdf="http://www.w3.org/1999/02/22-rdf-syntax-ns#">
   <cc:Work>
    <dc:type rdf:resource="http://purl.org/dc/dcmitype/StillImage"/>
    <dc:date>2025-03-15T01:05:54.513294</dc:date>
    <dc:format>image/svg+xml</dc:format>
    <dc:creator>
     <cc:Agent>
      <dc:title>Matplotlib v3.9.1, https://matplotlib.org/</dc:title>
     </cc:Agent>
    </dc:creator>
   </cc:Work>
  </rdf:RDF>
 </metadata>
 <defs>
  <style type="text/css">*{stroke-linejoin: round; stroke-linecap: butt}</style>
 </defs>
 <g id="figure_1">
  <g id="patch_1">
   <path d="M 0 345.6 
L 460.8 345.6 
L 460.8 0 
L 0 0 
z
" style="fill: #ffffff"/>
  </g>
  <g id="axes_1">
   <g id="patch_2">
    <path d="M 57.6 307.584 
L 414.72 307.584 
L 414.72 41.472 
L 57.6 41.472 
z
" style="fill: #ffffff"/>
   </g>
   <g id="matplotlib.axis_1">
    <g id="xtick_1">
     <g id="line2d_1">
      <defs>
       <path id="mbb15cd1c71" d="M 0 0 
L 0 3.5 
" style="stroke: #000000; stroke-width: 0.8"/>
      </defs>
      <g>
       <use xlink:href="#mbb15cd1c71" x="73.832727" y="307.584" style="stroke: #000000; stroke-width: 0.8"/>
      </g>
     </g>
     <g id="text_1">
      <!-- 1 -->
      <g transform="translate(70.651477 322.182437) scale(0.1 -0.1)">
       <defs>
        <path id="DejaVuSans-31" d="M 794 531 
L 1825 531 
L 1825 4091 
L 703 3866 
L 703 4441 
L 1819 4666 
L 2450 4666 
L 2450 531 
L 3481 531 
L 3481 0 
L 794 0 
L 794 531 
z
" transform="scale(0.015625)"/>
       </defs>
       <use xlink:href="#DejaVuSans-31"/>
      </g>
     </g>
    </g>
    <g id="xtick_2">
     <g id="line2d_2">
      <g>
       <use xlink:href="#mbb15cd1c71" x="109.664165" y="307.584" style="stroke: #000000; stroke-width: 0.8"/>
      </g>
     </g>
     <g id="text_2">
      <!-- 34 -->
      <g transform="translate(103.301665 322.182437) scale(0.1 -0.1)">
       <defs>
        <path id="DejaVuSans-33" d="M 2597 2516 
Q 3050 2419 3304 2112 
Q 3559 1806 3559 1356 
Q 3559 666 3084 287 
Q 2609 -91 1734 -91 
Q 1441 -91 1130 -33 
Q 819 25 488 141 
L 488 750 
Q 750 597 1062 519 
Q 1375 441 1716 441 
Q 2309 441 2620 675 
Q 2931 909 2931 1356 
Q 2931 1769 2642 2001 
Q 2353 2234 1838 2234 
L 1294 2234 
L 1294 2753 
L 1863 2753 
Q 2328 2753 2575 2939 
Q 2822 3125 2822 3475 
Q 2822 3834 2567 4026 
Q 2313 4219 1838 4219 
Q 1578 4219 1281 4162 
Q 984 4106 628 3988 
L 628 4550 
Q 988 4650 1302 4700 
Q 1616 4750 1894 4750 
Q 2613 4750 3031 4423 
Q 3450 4097 3450 3541 
Q 3450 3153 3228 2886 
Q 3006 2619 2597 2516 
z
" transform="scale(0.015625)"/>
        <path id="DejaVuSans-34" d="M 2419 4116 
L 825 1625 
L 2419 1625 
L 2419 4116 
z
M 2253 4666 
L 3047 4666 
L 3047 1625 
L 3713 1625 
L 3713 1100 
L 3047 1100 
L 3047 0 
L 2419 0 
L 2419 1100 
L 313 1100 
L 313 1709 
L 2253 4666 
z
" transform="scale(0.015625)"/>
       </defs>
       <use xlink:href="#DejaVuSans-33"/>
       <use xlink:href="#DejaVuSans-34" x="63.623047"/>
      </g>
     </g>
    </g>
    <g id="xtick_3">
     <g id="line2d_3">
      <g>
       <use xlink:href="#mbb15cd1c71" x="145.495604" y="307.584" style="stroke: #000000; stroke-width: 0.8"/>
      </g>
     </g>
     <g id="text_3">
      <!-- 67 -->
      <g transform="translate(139.133104 322.182437) scale(0.1 -0.1)">
       <defs>
        <path id="DejaVuSans-36" d="M 2113 2584 
Q 1688 2584 1439 2293 
Q 1191 2003 1191 1497 
Q 1191 994 1439 701 
Q 1688 409 2113 409 
Q 2538 409 2786 701 
Q 3034 994 3034 1497 
Q 3034 2003 2786 2293 
Q 2538 2584 2113 2584 
z
M 3366 4563 
L 3366 3988 
Q 3128 4100 2886 4159 
Q 2644 4219 2406 4219 
Q 1781 4219 1451 3797 
Q 1122 3375 1075 2522 
Q 1259 2794 1537 2939 
Q 1816 3084 2150 3084 
Q 2853 3084 3261 2657 
Q 3669 2231 3669 1497 
Q 3669 778 3244 343 
Q 2819 -91 2113 -91 
Q 1303 -91 875 529 
Q 447 1150 447 2328 
Q 447 3434 972 4092 
Q 1497 4750 2381 4750 
Q 2619 4750 2861 4703 
Q 3103 4656 3366 4563 
z
" transform="scale(0.015625)"/>
        <path id="DejaVuSans-37" d="M 525 4666 
L 3525 4666 
L 3525 4397 
L 1831 0 
L 1172 0 
L 2766 4134 
L 525 4134 
L 525 4666 
z
" transform="scale(0.015625)"/>
       </defs>
       <use xlink:href="#DejaVuSans-36"/>
       <use xlink:href="#DejaVuSans-37" x="63.623047"/>
      </g>
     </g>
    </g>
    <g id="xtick_4">
     <g id="line2d_4">
      <g>
       <use xlink:href="#mbb15cd1c71" x="181.327042" y="307.584" style="stroke: #000000; stroke-width: 0.8"/>
      </g>
     </g>
     <g id="text_4">
      <!-- 100 -->
      <g transform="translate(171.783292 322.182437) scale(0.1 -0.1)">
       <defs>
        <path id="DejaVuSans-30" d="M 2034 4250 
Q 1547 4250 1301 3770 
Q 1056 3291 1056 2328 
Q 1056 1369 1301 889 
Q 1547 409 2034 409 
Q 2525 409 2770 889 
Q 3016 1369 3016 2328 
Q 3016 3291 2770 3770 
Q 2525 4250 2034 4250 
z
M 2034 4750 
Q 2819 4750 3233 4129 
Q 3647 3509 3647 2328 
Q 3647 1150 3233 529 
Q 2819 -91 2034 -91 
Q 1250 -91 836 529 
Q 422 1150 422 2328 
Q 422 3509 836 4129 
Q 1250 4750 2034 4750 
z
" transform="scale(0.015625)"/>
       </defs>
       <use xlink:href="#DejaVuSans-31"/>
       <use xlink:href="#DejaVuSans-30" x="63.623047"/>
       <use xlink:href="#DejaVuSans-30" x="127.246094"/>
      </g>
     </g>
    </g>
    <g id="xtick_5">
     <g id="line2d_5">
      <g>
       <use xlink:href="#mbb15cd1c71" x="217.15848" y="307.584" style="stroke: #000000; stroke-width: 0.8"/>
      </g>
     </g>
     <g id="text_5">
      <!-- 133 -->
      <g transform="translate(207.61473 322.182437) scale(0.1 -0.1)">
       <use xlink:href="#DejaVuSans-31"/>
       <use xlink:href="#DejaVuSans-33" x="63.623047"/>
       <use xlink:href="#DejaVuSans-33" x="127.246094"/>
      </g>
     </g>
    </g>
    <g id="xtick_6">
     <g id="line2d_6">
      <g>
       <use xlink:href="#mbb15cd1c71" x="254.075719" y="307.584" style="stroke: #000000; stroke-width: 0.8"/>
      </g>
     </g>
     <g id="text_6">
      <!-- 167 -->
      <g transform="translate(244.531969 322.182437) scale(0.1 -0.1)">
       <use xlink:href="#DejaVuSans-31"/>
       <use xlink:href="#DejaVuSans-36" x="63.623047"/>
       <use xlink:href="#DejaVuSans-37" x="127.246094"/>
      </g>
     </g>
    </g>
    <g id="xtick_7">
     <g id="line2d_7">
      <g>
       <use xlink:href="#mbb15cd1c71" x="289.907157" y="307.584" style="stroke: #000000; stroke-width: 0.8"/>
      </g>
     </g>
     <g id="text_7">
      <!-- 200 -->
      <g transform="translate(280.363407 322.182437) scale(0.1 -0.1)">
       <defs>
        <path id="DejaVuSans-32" d="M 1228 531 
L 3431 531 
L 3431 0 
L 469 0 
L 469 531 
Q 828 903 1448 1529 
Q 2069 2156 2228 2338 
Q 2531 2678 2651 2914 
Q 2772 3150 2772 3378 
Q 2772 3750 2511 3984 
Q 2250 4219 1831 4219 
Q 1534 4219 1204 4116 
Q 875 4013 500 3803 
L 500 4441 
Q 881 4594 1212 4672 
Q 1544 4750 1819 4750 
Q 2544 4750 2975 4387 
Q 3406 4025 3406 3419 
Q 3406 3131 3298 2873 
Q 3191 2616 2906 2266 
Q 2828 2175 2409 1742 
Q 1991 1309 1228 531 
z
" transform="scale(0.015625)"/>
       </defs>
       <use xlink:href="#DejaVuSans-32"/>
       <use xlink:href="#DejaVuSans-30" x="63.623047"/>
       <use xlink:href="#DejaVuSans-30" x="127.246094"/>
      </g>
     </g>
    </g>
    <g id="xtick_8">
     <g id="line2d_8">
      <g>
       <use xlink:href="#mbb15cd1c71" x="325.738595" y="307.584" style="stroke: #000000; stroke-width: 0.8"/>
      </g>
     </g>
     <g id="text_8">
      <!-- 233 -->
      <g transform="translate(316.194845 322.182437) scale(0.1 -0.1)">
       <use xlink:href="#DejaVuSans-32"/>
       <use xlink:href="#DejaVuSans-33" x="63.623047"/>
       <use xlink:href="#DejaVuSans-33" x="127.246094"/>
      </g>
     </g>
    </g>
    <g id="xtick_9">
     <g id="line2d_9">
      <g>
       <use xlink:href="#mbb15cd1c71" x="361.570033" y="307.584" style="stroke: #000000; stroke-width: 0.8"/>
      </g>
     </g>
     <g id="text_9">
      <!-- 266 -->
      <g transform="translate(352.026283 322.182437) scale(0.1 -0.1)">
       <use xlink:href="#DejaVuSans-32"/>
       <use xlink:href="#DejaVuSans-36" x="63.623047"/>
       <use xlink:href="#DejaVuSans-36" x="127.246094"/>
      </g>
     </g>
    </g>
    <g id="xtick_10">
     <g id="line2d_10">
      <g>
       <use xlink:href="#mbb15cd1c71" x="398.487273" y="307.584" style="stroke: #000000; stroke-width: 0.8"/>
      </g>
     </g>
     <g id="text_10">
      <!-- 300 -->
      <g transform="translate(388.943523 322.182437) scale(0.1 -0.1)">
       <use xlink:href="#DejaVuSans-33"/>
       <use xlink:href="#DejaVuSans-30" x="63.623047"/>
       <use xlink:href="#DejaVuSans-30" x="127.246094"/>
      </g>
     </g>
    </g>
    <g id="text_11">
     <!-- Epochs -->
     <g transform="translate(218.244375 335.860562) scale(0.1 -0.1)">
      <defs>
       <path id="DejaVuSans-45" d="M 628 4666 
L 3578 4666 
L 3578 4134 
L 1259 4134 
L 1259 2753 
L 3481 2753 
L 3481 2222 
L 1259 2222 
L 1259 531 
L 3634 531 
L 3634 0 
L 628 0 
L 628 4666 
z
" transform="scale(0.015625)"/>
       <path id="DejaVuSans-70" d="M 1159 525 
L 1159 -1331 
L 581 -1331 
L 581 3500 
L 1159 3500 
L 1159 2969 
Q 1341 3281 1617 3432 
Q 1894 3584 2278 3584 
Q 2916 3584 3314 3078 
Q 3713 2572 3713 1747 
Q 3713 922 3314 415 
Q 2916 -91 2278 -91 
Q 1894 -91 1617 61 
Q 1341 213 1159 525 
z
M 3116 1747 
Q 3116 2381 2855 2742 
Q 2594 3103 2138 3103 
Q 1681 3103 1420 2742 
Q 1159 2381 1159 1747 
Q 1159 1113 1420 752 
Q 1681 391 2138 391 
Q 2594 391 2855 752 
Q 3116 1113 3116 1747 
z
" transform="scale(0.015625)"/>
       <path id="DejaVuSans-6f" d="M 1959 3097 
Q 1497 3097 1228 2736 
Q 959 2375 959 1747 
Q 959 1119 1226 758 
Q 1494 397 1959 397 
Q 2419 397 2687 759 
Q 2956 1122 2956 1747 
Q 2956 2369 2687 2733 
Q 2419 3097 1959 3097 
z
M 1959 3584 
Q 2709 3584 3137 3096 
Q 3566 2609 3566 1747 
Q 3566 888 3137 398 
Q 2709 -91 1959 -91 
Q 1206 -91 779 398 
Q 353 888 353 1747 
Q 353 2609 779 3096 
Q 1206 3584 1959 3584 
z
" transform="scale(0.015625)"/>
       <path id="DejaVuSans-63" d="M 3122 3366 
L 3122 2828 
Q 2878 2963 2633 3030 
Q 2388 3097 2138 3097 
Q 1578 3097 1268 2742 
Q 959 2388 959 1747 
Q 959 1106 1268 751 
Q 1578 397 2138 397 
Q 2388 397 2633 464 
Q 2878 531 3122 666 
L 3122 134 
Q 2881 22 2623 -34 
Q 2366 -91 2075 -91 
Q 1284 -91 818 406 
Q 353 903 353 1747 
Q 353 2603 823 3093 
Q 1294 3584 2113 3584 
Q 2378 3584 2631 3529 
Q 2884 3475 3122 3366 
z
" transform="scale(0.015625)"/>
       <path id="DejaVuSans-68" d="M 3513 2113 
L 3513 0 
L 2938 0 
L 2938 2094 
Q 2938 2591 2744 2837 
Q 2550 3084 2163 3084 
Q 1697 3084 1428 2787 
Q 1159 2491 1159 1978 
L 1159 0 
L 581 0 
L 581 4863 
L 1159 4863 
L 1159 2956 
Q 1366 3272 1645 3428 
Q 1925 3584 2291 3584 
Q 2894 3584 3203 3211 
Q 3513 2838 3513 2113 
z
" transform="scale(0.015625)"/>
       <path id="DejaVuSans-73" d="M 2834 3397 
L 2834 2853 
Q 2591 2978 2328 3040 
Q 2066 3103 1784 3103 
Q 1356 3103 1142 2972 
Q 928 2841 928 2578 
Q 928 2378 1081 2264 
Q 1234 2150 1697 2047 
L 1894 2003 
Q 2506 1872 2764 1633 
Q 3022 1394 3022 966 
Q 3022 478 2636 193 
Q 2250 -91 1575 -91 
Q 1294 -91 989 -36 
Q 684 19 347 128 
L 347 722 
Q 666 556 975 473 
Q 1284 391 1588 391 
Q 1994 391 2212 530 
Q 2431 669 2431 922 
Q 2431 1156 2273 1281 
Q 2116 1406 1581 1522 
L 1381 1569 
Q 847 1681 609 1914 
Q 372 2147 372 2553 
Q 372 3047 722 3315 
Q 1072 3584 1716 3584 
Q 2034 3584 2315 3537 
Q 2597 3491 2834 3397 
z
" transform="scale(0.015625)"/>
      </defs>
      <use xlink:href="#DejaVuSans-45"/>
      <use xlink:href="#DejaVuSans-70" x="63.183594"/>
      <use xlink:href="#DejaVuSans-6f" x="126.660156"/>
      <use xlink:href="#DejaVuSans-63" x="187.841797"/>
      <use xlink:href="#DejaVuSans-68" x="242.822266"/>
      <use xlink:href="#DejaVuSans-73" x="306.201172"/>
     </g>
    </g>
   </g>
   <g id="matplotlib.axis_2">
    <g id="ytick_1">
     <g id="line2d_11">
      <defs>
       <path id="mf3ed4c4a90" d="M 0 0 
L -3.5 0 
" style="stroke: #000000; stroke-width: 0.8"/>
      </defs>
      <g>
       <use xlink:href="#mf3ed4c4a90" x="57.6" y="266.345901" style="stroke: #000000; stroke-width: 0.8"/>
      </g>
     </g>
     <g id="text_12">
      <!-- 20 -->
      <g transform="translate(37.875 270.14512) scale(0.1 -0.1)">
       <use xlink:href="#DejaVuSans-32"/>
       <use xlink:href="#DejaVuSans-30" x="63.623047"/>
      </g>
     </g>
    </g>
    <g id="ytick_2">
     <g id="line2d_12">
      <g>
       <use xlink:href="#mf3ed4c4a90" x="57.6" y="212.857238" style="stroke: #000000; stroke-width: 0.8"/>
      </g>
     </g>
     <g id="text_13">
      <!-- 40 -->
      <g transform="translate(37.875 216.656457) scale(0.1 -0.1)">
       <use xlink:href="#DejaVuSans-34"/>
       <use xlink:href="#DejaVuSans-30" x="63.623047"/>
      </g>
     </g>
    </g>
    <g id="ytick_3">
     <g id="line2d_13">
      <g>
       <use xlink:href="#mf3ed4c4a90" x="57.6" y="159.368575" style="stroke: #000000; stroke-width: 0.8"/>
      </g>
     </g>
     <g id="text_14">
      <!-- 60 -->
      <g transform="translate(37.875 163.167794) scale(0.1 -0.1)">
       <use xlink:href="#DejaVuSans-36"/>
       <use xlink:href="#DejaVuSans-30" x="63.623047"/>
      </g>
     </g>
    </g>
    <g id="ytick_4">
     <g id="line2d_14">
      <g>
       <use xlink:href="#mf3ed4c4a90" x="57.6" y="105.879912" style="stroke: #000000; stroke-width: 0.8"/>
      </g>
     </g>
     <g id="text_15">
      <!-- 80 -->
      <g transform="translate(37.875 109.679131) scale(0.1 -0.1)">
       <defs>
        <path id="DejaVuSans-38" d="M 2034 2216 
Q 1584 2216 1326 1975 
Q 1069 1734 1069 1313 
Q 1069 891 1326 650 
Q 1584 409 2034 409 
Q 2484 409 2743 651 
Q 3003 894 3003 1313 
Q 3003 1734 2745 1975 
Q 2488 2216 2034 2216 
z
M 1403 2484 
Q 997 2584 770 2862 
Q 544 3141 544 3541 
Q 544 4100 942 4425 
Q 1341 4750 2034 4750 
Q 2731 4750 3128 4425 
Q 3525 4100 3525 3541 
Q 3525 3141 3298 2862 
Q 3072 2584 2669 2484 
Q 3125 2378 3379 2068 
Q 3634 1759 3634 1313 
Q 3634 634 3220 271 
Q 2806 -91 2034 -91 
Q 1263 -91 848 271 
Q 434 634 434 1313 
Q 434 1759 690 2068 
Q 947 2378 1403 2484 
z
M 1172 3481 
Q 1172 3119 1398 2916 
Q 1625 2713 2034 2713 
Q 2441 2713 2670 2916 
Q 2900 3119 2900 3481 
Q 2900 3844 2670 4047 
Q 2441 4250 2034 4250 
Q 1625 4250 1398 4047 
Q 1172 3844 1172 3481 
z
" transform="scale(0.015625)"/>
       </defs>
       <use xlink:href="#DejaVuSans-38"/>
       <use xlink:href="#DejaVuSans-30" x="63.623047"/>
      </g>
     </g>
    </g>
    <g id="ytick_5">
     <g id="line2d_15">
      <g>
       <use xlink:href="#mf3ed4c4a90" x="57.6" y="52.391249" style="stroke: #000000; stroke-width: 0.8"/>
      </g>
     </g>
     <g id="text_16">
      <!-- 100 -->
      <g transform="translate(31.5125 56.190468) scale(0.1 -0.1)">
       <use xlink:href="#DejaVuSans-31"/>
       <use xlink:href="#DejaVuSans-30" x="63.623047"/>
       <use xlink:href="#DejaVuSans-30" x="127.246094"/>
      </g>
     </g>
    </g>
    <g id="text_17">
     <!-- Accuracy -->
     <g transform="translate(25.432812 197.356125) rotate(-90) scale(0.1 -0.1)">
      <defs>
       <path id="DejaVuSans-41" d="M 2188 4044 
L 1331 1722 
L 3047 1722 
L 2188 4044 
z
M 1831 4666 
L 2547 4666 
L 4325 0 
L 3669 0 
L 3244 1197 
L 1141 1197 
L 716 0 
L 50 0 
L 1831 4666 
z
" transform="scale(0.015625)"/>
       <path id="DejaVuSans-75" d="M 544 1381 
L 544 3500 
L 1119 3500 
L 1119 1403 
Q 1119 906 1312 657 
Q 1506 409 1894 409 
Q 2359 409 2629 706 
Q 2900 1003 2900 1516 
L 2900 3500 
L 3475 3500 
L 3475 0 
L 2900 0 
L 2900 538 
Q 2691 219 2414 64 
Q 2138 -91 1772 -91 
Q 1169 -91 856 284 
Q 544 659 544 1381 
z
M 1991 3584 
L 1991 3584 
z
" transform="scale(0.015625)"/>
       <path id="DejaVuSans-72" d="M 2631 2963 
Q 2534 3019 2420 3045 
Q 2306 3072 2169 3072 
Q 1681 3072 1420 2755 
Q 1159 2438 1159 1844 
L 1159 0 
L 581 0 
L 581 3500 
L 1159 3500 
L 1159 2956 
Q 1341 3275 1631 3429 
Q 1922 3584 2338 3584 
Q 2397 3584 2469 3576 
Q 2541 3569 2628 3553 
L 2631 2963 
z
" transform="scale(0.015625)"/>
       <path id="DejaVuSans-61" d="M 2194 1759 
Q 1497 1759 1228 1600 
Q 959 1441 959 1056 
Q 959 750 1161 570 
Q 1363 391 1709 391 
Q 2188 391 2477 730 
Q 2766 1069 2766 1631 
L 2766 1759 
L 2194 1759 
z
M 3341 1997 
L 3341 0 
L 2766 0 
L 2766 531 
Q 2569 213 2275 61 
Q 1981 -91 1556 -91 
Q 1019 -91 701 211 
Q 384 513 384 1019 
Q 384 1609 779 1909 
Q 1175 2209 1959 2209 
L 2766 2209 
L 2766 2266 
Q 2766 2663 2505 2880 
Q 2244 3097 1772 3097 
Q 1472 3097 1187 3025 
Q 903 2953 641 2809 
L 641 3341 
Q 956 3463 1253 3523 
Q 1550 3584 1831 3584 
Q 2591 3584 2966 3190 
Q 3341 2797 3341 1997 
z
" transform="scale(0.015625)"/>
       <path id="DejaVuSans-79" d="M 2059 -325 
Q 1816 -950 1584 -1140 
Q 1353 -1331 966 -1331 
L 506 -1331 
L 506 -850 
L 844 -850 
Q 1081 -850 1212 -737 
Q 1344 -625 1503 -206 
L 1606 56 
L 191 3500 
L 800 3500 
L 1894 763 
L 2988 3500 
L 3597 3500 
L 2059 -325 
z
" transform="scale(0.015625)"/>
      </defs>
      <use xlink:href="#DejaVuSans-41"/>
      <use xlink:href="#DejaVuSans-63" x="66.658203"/>
      <use xlink:href="#DejaVuSans-63" x="121.638672"/>
      <use xlink:href="#DejaVuSans-75" x="176.619141"/>
      <use xlink:href="#DejaVuSans-72" x="239.998047"/>
      <use xlink:href="#DejaVuSans-61" x="281.111328"/>
      <use xlink:href="#DejaVuSans-63" x="342.390625"/>
      <use xlink:href="#DejaVuSans-79" x="397.371094"/>
     </g>
    </g>
   </g>
   <g id="line2d_16">
    <path d="M 73.832727 281.643658 
L 74.918528 229.004128 
L 76.00433 188.152162 
L 77.090131 160.358115 
L 78.175932 140.393472 
L 79.261733 127.308808 
L 80.347534 118.984635 
L 81.433335 111.756979 
L 82.519137 107.310734 
L 83.604938 101.647622 
L 86.862341 91.010064 
L 87.948142 89.124589 
L 89.033943 85.647826 
L 90.119745 84.357412 
L 91.205546 82.184435 
L 92.291347 80.686752 
L 93.377148 79.744014 
L 94.462949 79.369594 
L 95.54875 98.465046 
L 96.634552 97.442076 
L 97.720353 96.63306 
L 99.891955 92.65484 
L 100.977756 91.518206 
L 102.063557 90.187676 
L 103.149358 88.596388 
L 104.23516 86.777774 
L 105.320961 85.413813 
L 106.406762 85.260033 
L 107.492563 82.886473 
L 108.578364 82.538797 
L 109.664165 82.00391 
L 110.749967 80.33239 
L 111.835768 79.603607 
L 112.921569 78.166099 
L 114.00737 77.203303 
L 115.093171 76.501264 
L 116.178972 75.170734 
L 117.264773 74.542242 
L 118.350575 73.646307 
L 119.436376 72.034961 
L 121.607978 70.677686 
L 122.693779 70.05588 
L 123.77958 68.491337 
L 124.865382 68.618373 
L 125.951183 67.689007 
L 127.036984 67.040457 
L 128.122785 65.803532 
L 129.208586 65.388994 
L 130.294387 64.854108 
L 131.380189 64.098581 
L 133.551791 63.169215 
L 136.809194 62.634328 
L 137.894995 62.634328 
L 138.980797 77.517549 
L 140.066598 79.309419 
L 141.152399 80.064946 
L 142.2382 78.981801 
L 143.324001 79.195756 
L 144.409802 78.955057 
L 145.495604 78.346623 
L 147.667206 78.065808 
L 148.753007 76.882371 
L 149.838808 76.882371 
L 150.924609 76.334112 
L 152.01041 75.505038 
L 153.096212 75.658818 
L 154.182013 75.431491 
L 156.353615 74.341659 
L 157.439416 73.927122 
L 158.525217 73.225084 
L 159.611019 73.024501 
L 160.69682 72.997757 
L 161.782621 72.61665 
L 162.868422 72.58322 
L 163.954223 71.480016 
L 165.040024 70.925071 
L 166.125825 70.610825 
L 167.211627 70.784663 
L 168.297428 69.828554 
L 169.383229 69.266923 
L 170.46903 68.839013 
L 171.554831 68.584942 
L 172.640632 68.839013 
L 173.726434 67.996567 
L 174.812235 67.889589 
L 176.983837 66.732897 
L 178.069638 66.672722 
L 179.155439 65.63638 
L 180.24124 65.576205 
L 181.327042 65.061376 
L 182.412843 65.014574 
L 183.498644 64.245674 
L 184.584445 63.824451 
L 185.670246 63.122412 
L 186.756047 62.620956 
L 187.841849 62.61427 
L 188.92765 62.453804 
L 190.013451 61.704963 
L 191.099252 61.571241 
L 192.185053 60.688678 
L 193.270854 61.036355 
L 195.442457 59.725882 
L 196.528258 59.973267 
L 197.614059 59.5253 
L 198.69986 58.789831 
L 200.871462 58.368607 
L 201.957264 58.529073 
L 203.043065 57.599708 
L 204.128866 57.586336 
L 207.386269 56.784006 
L 208.472071 56.750575 
L 209.557872 56.362783 
L 211.729474 55.861326 
L 212.815275 55.888071 
L 213.901076 55.640686 
L 216.072679 55.560453 
L 217.15848 55.493592 
L 218.244281 55.767721 
L 219.330082 55.252893 
L 220.415883 55.420045 
L 222.587486 55.313068 
L 224.759088 55.252893 
L 225.844889 69.781751 
L 226.93069 72.141938 
L 228.016491 72.523045 
L 229.102292 72.763744 
L 232.359696 72.409381 
L 233.445497 72.061705 
L 234.531298 71.533505 
L 235.617099 71.994844 
L 236.702901 72.055019 
L 237.788702 71.693971 
L 238.874503 71.546877 
L 239.960304 71.239317 
L 241.046105 71.105595 
L 243.217708 70.122741 
L 244.303509 70.249777 
L 245.38931 70.169544 
L 246.475111 69.788437 
L 247.560912 70.510534 
L 248.646713 69.22012 
L 249.732514 69.474191 
L 250.818316 69.226806 
L 251.904117 68.277382 
L 252.989918 68.859071 
L 254.075719 68.72535 
L 255.16152 68.370987 
L 256.247321 68.772152 
L 257.333123 67.842787 
L 258.418924 67.782612 
L 259.504725 68.043369 
L 260.590526 67.936392 
L 261.676327 67.588716 
L 262.762128 67.775926 
L 263.847929 67.027085 
L 264.933731 67.160806 
L 266.019532 67.160806 
L 267.105333 66.378535 
L 268.191134 67.100632 
L 269.276935 66.278244 
L 270.362736 66.004114 
L 271.448538 65.984056 
L 272.534339 66.532315 
L 273.62014 66.592489 
L 274.705941 65.315448 
L 275.791742 65.830276 
L 276.877543 64.546548 
L 277.963344 65.168354 
L 279.049146 65.261959 
L 281.220748 64.325907 
L 282.306549 64.118639 
L 283.39235 64.419512 
L 284.478151 64.40614 
L 285.563953 64.098581 
L 286.649754 63.998289 
L 287.735555 63.697416 
L 288.821356 63.60381 
L 289.907157 63.062238 
L 290.992958 63.45003 
L 292.07876 62.941888 
L 293.164561 63.102354 
L 294.250362 63.048865 
L 297.507765 62.279966 
L 298.593566 62.346827 
L 299.679368 62.239849 
L 300.765169 61.918917 
L 301.85097 61.718335 
L 302.936771 62.072697 
L 304.022572 61.029668 
L 305.108373 61.236937 
L 306.194175 60.996238 
L 307.279976 60.32763 
L 308.365777 60.97618 
L 310.537379 60.234025 
L 311.62318 59.933151 
L 312.708981 59.839546 
L 313.794783 59.86629 
L 314.880584 59.55873 
L 315.966385 59.578788 
L 317.052186 59.351462 
L 318.137987 59.291287 
L 319.223788 58.870064 
L 320.30959 59.084018 
L 321.395391 58.495643 
L 323.566993 58.208142 
L 324.652794 57.927326 
L 326.824396 57.720057 
L 327.910198 57.238659 
L 328.995999 57.499417 
L 330.0818 57.245346 
L 331.167601 57.338951 
L 332.253402 56.944472 
L 334.425005 56.556679 
L 336.596607 56.295922 
L 337.682408 56.048537 
L 338.768209 56.175572 
L 339.85401 56.00842 
L 340.939811 55.580511 
L 342.025613 55.961618 
L 343.111414 55.520336 
L 344.197215 55.48022 
L 345.283016 55.112485 
L 347.454618 55.099113 
L 348.54042 54.784867 
L 349.626221 55.145916 
L 351.797823 54.697948 
L 352.883624 54.363644 
L 355.055227 54.517424 
L 356.141028 54.116259 
L 357.226829 54.310155 
L 358.31263 54.102887 
L 359.398431 54.022654 
L 360.484232 54.129631 
L 362.655835 53.862188 
L 363.741636 54.015968 
L 365.913238 53.594744 
L 366.999039 53.568 
L 369.170642 53.942421 
L 370.256443 53.969165 
L 371.342244 54.256667 
L 372.428045 54.704634 
L 374.599647 54.718006 
L 375.685448 55.145916 
L 376.77125 55.239521 
L 377.857051 54.918589 
L 378.942852 55.333126 
L 380.028653 55.065683 
L 381.114454 55.246207 
L 382.200255 54.958705 
L 383.286057 55.132543 
L 384.371858 54.98545 
L 387.629261 55.05231 
L 388.715062 55.132543 
L 389.800863 54.818297 
L 390.886665 55.05231 
L 393.058267 55.145916 
L 394.144068 54.838356 
L 395.229869 54.992136 
L 396.31567 54.958705 
L 397.401472 55.119171 
L 398.487273 54.972077 
L 398.487273 54.972077 
" clip-path="url(#p4bb846e4ef)" style="fill: none; stroke: #1f77b4; stroke-width: 1.5; stroke-linecap: square"/>
   </g>
   <g id="line2d_17">
    <path d="M 73.832727 284.933211 
L 74.918528 250.299302 
L 76.00433 230.321286 
L 78.175932 198.36181 
L 79.261733 192.210614 
L 80.347534 192.932711 
L 81.433335 176.698902 
L 82.519137 171.831434 
L 83.604938 170.039563 
L 84.690739 158.084847 
L 85.77654 158.379035 
L 86.862341 159.047643 
L 87.948142 150.115036 
L 89.033943 142.573135 
L 90.119745 139.978935 
L 91.205546 143.509187 
L 92.291347 140.701032 
L 93.377148 138.614974 
L 94.462949 139.069628 
L 95.54875 171.644223 
L 96.634552 165.359305 
L 97.720353 171.350036 
L 98.806154 160.331371 
L 99.891955 159.529041 
L 100.977756 151.131321 
L 102.063557 153.5918 
L 103.149358 159.101132 
L 104.23516 155.57088 
L 105.320961 145.461523 
L 106.406762 147.948746 
L 107.492563 143.803374 
L 108.578364 142.225459 
L 109.664165 142.385925 
L 110.749967 137.999854 
L 111.835768 140.139401 
L 112.921569 137.97311 
L 115.093171 135.887052 
L 116.178972 133.640528 
L 117.264773 132.757965 
L 118.350575 128.826549 
L 119.436376 130.939351 
L 120.522177 129.923066 
L 121.607978 126.633513 
L 122.693779 125.135831 
L 123.77958 123.130006 
L 124.865382 123.210239 
L 125.951183 122.407909 
L 127.036984 119.947431 
L 128.122785 121.284647 
L 129.208586 119.706732 
L 130.294387 119.893942 
L 131.380189 118.15556 
L 132.46599 119.332311 
L 133.551791 115.748571 
L 134.637592 116.764855 
L 135.723393 115.534616 
L 136.809194 115.37415 
L 137.894995 116.336946 
L 138.980797 142.118481 
L 140.066598 142.252203 
L 141.152399 144.873148 
L 142.2382 140.406844 
L 143.324001 141.55685 
L 144.409802 138.641718 
L 145.495604 137.919621 
L 146.581405 137.518456 
L 147.667206 134.496347 
L 148.753007 135.619609 
L 149.838808 137.678922 
L 150.924609 137.839388 
L 152.01041 132.330056 
L 153.096212 133.881227 
L 154.182013 131.099817 
L 155.267814 130.725396 
L 156.353615 134.630069 
L 158.525217 130.217254 
L 159.611019 130.217254 
L 160.69682 130.725396 
L 161.782621 133.667273 
L 162.868422 130.511442 
L 163.954223 127.837008 
L 165.040024 126.954445 
L 166.125825 129.040503 
L 167.211627 126.55328 
L 168.297428 128.131196 
L 169.383229 121.070693 
L 170.46903 125.082342 
L 172.640632 123.477682 
L 173.726434 124.467223 
L 174.812235 121.204414 
L 175.898036 121.578835 
L 176.983837 120.535806 
L 178.069638 120.616039 
L 180.24124 117.513696 
L 181.327042 119.145101 
L 182.412843 118.690447 
L 183.498644 120.642783 
L 184.584445 118.209049 
L 185.670246 115.454383 
L 186.756047 116.604389 
L 187.841849 115.026474 
L 188.92765 114.491587 
L 190.013451 112.753205 
L 191.099252 112.16483 
L 192.185053 112.699717 
L 193.270854 112.806694 
L 194.356656 113.609024 
L 195.442457 111.522966 
L 196.528258 113.047393 
L 197.614059 109.971795 
L 198.69986 110.18575 
L 199.785661 109.436908 
L 200.871462 109.329931 
L 201.957264 108.688067 
L 203.043065 107.858993 
L 204.128866 108.447368 
L 205.214667 107.538061 
L 206.300468 108.126436 
L 207.386269 106.655498 
L 208.472071 106.521776 
L 209.557872 105.853168 
L 210.643673 106.521776 
L 211.729474 106.896197 
L 212.815275 105.55898 
L 213.901076 105.18456 
L 214.986877 105.37177 
L 216.072679 103.820599 
L 217.15848 104.917116 
L 218.244281 104.970605 
L 219.330082 104.435718 
L 220.415883 105.37177 
L 221.501684 104.38223 
L 222.587486 104.836883 
L 223.673287 104.56944 
L 224.759088 104.75665 
L 225.844889 136.421939 
L 226.93069 132.062613 
L 228.016491 130.003299 
L 229.102292 136.716126 
L 230.188094 129.093992 
L 231.273895 132.142846 
L 232.359696 134.121926 
L 233.445497 128.559105 
L 234.531298 133.613784 
L 235.617099 129.655623 
L 236.702901 132.249823 
L 237.788702 133.399829 
L 238.874503 136.207984 
L 239.960304 130.56493 
L 241.046105 127.649798 
L 242.131906 133.988205 
L 243.217708 129.816089 
L 244.303509 123.718381 
L 245.38931 124.226524 
L 246.475111 126.847468 
L 247.560912 128.211429 
L 248.646713 130.511442 
L 249.732514 125.483507 
L 250.818316 126.793979 
L 251.904117 127.328866 
L 252.989918 132.570755 
L 254.075719 125.938161 
L 255.16152 129.976555 
L 256.247321 132.303312 
L 257.333123 125.109087 
L 258.418924 128.050963 
L 259.504725 121.498602 
L 260.590526 122.78233 
L 261.676327 126.900957 
L 262.762128 121.017204 
L 263.847929 125.028854 
L 264.933731 127.489332 
L 266.019532 127.890497 
L 267.105333 124.921876 
L 268.191134 130.885862 
L 269.276935 121.98 
L 270.362736 122.220699 
L 271.448538 120.963715 
L 272.534339 122.247443 
L 273.62014 122.006744 
L 274.705941 121.926511 
L 275.791742 121.605579 
L 276.877543 124.280012 
L 277.963344 119.064868 
L 280.134947 120.616039 
L 281.220748 118.048583 
L 282.306549 121.043948 
L 283.39235 118.663703 
L 284.478151 121.043948 
L 285.563953 119.813709 
L 286.649754 122.916051 
L 287.735555 120.803249 
L 288.821356 118.209049 
L 289.907157 117.433463 
L 290.992958 118.663703 
L 292.07876 122.274187 
L 293.164561 120.18813 
L 294.250362 117.593929 
L 295.336163 117.406719 
L 296.421964 114.518331 
L 297.507765 120.883482 
L 298.593566 120.081152 
L 299.679368 116.604389 
L 300.765169 114.331121 
L 304.022572 117.861373 
L 305.108373 115.240428 
L 306.194175 115.240428 
L 307.279976 115.802059 
L 308.365777 114.063678 
L 309.451578 114.545076 
L 310.537379 115.347406 
L 311.62318 113.421814 
L 312.708981 113.074137 
L 313.794783 112.004364 
L 314.880584 112.218319 
L 315.966385 114.946241 
L 317.052186 115.053218 
L 318.137987 117.299742 
L 319.223788 113.15437 
L 320.30959 113.876467 
L 321.395391 114.464843 
L 322.481192 110.56017 
L 323.566993 109.303187 
L 324.652794 112.111342 
L 325.738595 109.998539 
L 326.824396 109.784585 
L 327.910198 108.179925 
L 328.995999 111.843898 
L 330.0818 108.420624 
L 331.167601 109.249698 
L 332.253402 109.784585 
L 333.339203 107.190385 
L 334.425005 108.58109 
L 335.510806 109.062488 
L 336.596607 107.16364 
L 337.682408 106.414799 
L 338.768209 108.527601 
L 339.85401 107.885737 
L 340.939811 106.495032 
L 342.025613 107.564805 
L 343.111414 105.18456 
L 344.197215 105.291537 
L 345.283016 106.682242 
L 346.368817 104.114786 
L 347.454618 104.970605 
L 348.54042 106.254333 
L 349.626221 104.408974 
L 350.712022 103.472922 
L 351.797823 105.318281 
L 352.883624 103.606644 
L 353.969425 104.38223 
L 355.055227 103.686877 
L 356.141028 103.258968 
L 357.226829 103.793854 
L 358.31263 102.16245 
L 360.484232 102.242683 
L 362.655835 101.868263 
L 363.741636 102.403149 
L 364.827437 101.627564 
L 365.913238 102.082217 
L 366.999039 101.921751 
L 369.170642 101.440353 
L 370.256443 103.205479 
L 371.342244 103.686877 
L 372.428045 105.050838 
L 373.513846 103.5799 
L 375.685448 105.55898 
L 376.77125 104.141531 
L 377.857051 106.334566 
L 378.942852 104.649673 
L 380.028653 105.853168 
L 381.114454 104.328741 
L 382.200255 106.441543 
L 383.286057 106.254333 
L 384.371858 105.505492 
L 385.457659 105.398514 
L 386.54346 105.612469 
L 387.629261 106.067123 
L 388.715062 106.227589 
L 390.886665 106.067123 
L 391.972466 106.896197 
L 393.058267 104.890372 
L 394.144068 105.906657 
L 395.229869 104.997349 
L 396.31567 106.548521 
L 397.401472 107.805504 
L 398.487273 105.853168 
L 398.487273 105.853168 
" clip-path="url(#p4bb846e4ef)" style="fill: none; stroke: #ff7f0e; stroke-width: 1.5; stroke-linecap: square"/>
   </g>
   <g id="line2d_18">
    <path d="M 73.832727 295.488 
L 74.918528 275.383641 
L 76.00433 260.25926 
L 77.090131 258.783711 
L 78.175932 246.794872 
L 79.261733 239.786013 
L 80.347534 242.368224 
L 81.433335 230.932717 
L 82.519137 230.010499 
L 83.604938 227.612731 
L 84.690739 218.206104 
L 85.77654 219.681654 
L 86.862341 220.419428 
L 87.948142 215.808337 
L 89.033943 211.93502 
L 90.119745 210.643914 
L 91.205546 213.041682 
L 92.291347 211.566132 
L 93.377148 206.586153 
L 94.462949 207.877259 
L 95.54875 228.350506 
L 96.634552 226.137182 
L 97.720353 238.679351 
L 98.806154 227.612731 
L 99.891955 224.846076 
L 100.977756 218.206104 
L 102.063557 221.710534 
L 103.149358 223.739414 
L 104.23516 226.506069 
L 105.320961 215.439449 
L 106.406762 219.49721 
L 108.578364 209.906139 
L 109.664165 212.857238 
L 110.749967 212.303907 
L 111.835768 213.779456 
L 112.921569 211.012801 
L 114.00737 211.197245 
L 115.093171 211.566132 
L 116.178972 206.955041 
L 117.264773 204.003942 
L 118.350575 206.586153 
L 119.436376 205.110604 
L 120.522177 201.421731 
L 121.607978 200.499512 
L 122.693779 204.003942 
L 123.77958 199.208407 
L 124.865382 204.188386 
L 125.951183 201.052843 
L 128.122785 197.179527 
L 129.208586 194.043984 
L 130.294387 195.888421 
L 131.380189 193.859541 
L 132.46599 193.859541 
L 133.551791 191.277329 
L 134.637592 193.675097 
L 135.723393 191.83066 
L 136.809194 192.752879 
L 137.894995 192.199548 
L 138.980797 212.857238 
L 140.066598 213.041682 
L 141.152399 212.857238 
L 142.2382 215.99278 
L 143.324001 217.283886 
L 144.409802 212.672794 
L 145.495604 210.643914 
L 146.581405 210.45947 
L 147.667206 208.983921 
L 148.753007 214.332787 
L 149.838808 213.041682 
L 150.924609 213.041682 
L 152.01041 204.372829 
L 153.096212 205.663935 
L 154.182013 209.537252 
L 155.267814 207.323928 
L 157.439416 211.012801 
L 158.525217 204.003942 
L 159.611019 205.295048 
L 160.69682 207.508372 
L 161.782621 208.246146 
L 162.868422 201.237287 
L 165.040024 205.295048 
L 166.125825 200.130625 
L 167.211627 203.819498 
L 168.297428 204.741717 
L 169.383229 202.528393 
L 170.46903 203.819498 
L 171.554831 205.295048 
L 172.640632 196.441752 
L 173.726434 203.081724 
L 174.812235 194.043984 
L 175.898036 200.315069 
L 176.983837 199.39285 
L 178.069638 198.286188 
L 179.155439 198.839519 
L 180.24124 192.383991 
L 181.327042 200.130625 
L 182.412843 194.043984 
L 183.498644 195.703977 
L 184.584445 198.839519 
L 185.670246 195.33509 
L 186.756047 192.752879 
L 187.841849 192.937322 
L 188.92765 193.30621 
L 190.013451 192.383991 
L 191.099252 190.355111 
L 192.185053 189.80178 
L 193.270854 191.092886 
L 194.356656 191.646217 
L 195.442457 190.355111 
L 196.528258 196.257308 
L 197.614059 191.83066 
L 198.69986 188.695118 
L 199.785661 187.219569 
L 200.871462 187.404012 
L 201.957264 186.850681 
L 203.043065 191.277329 
L 204.128866 187.035125 
L 205.214667 185.928463 
L 206.300468 187.957343 
L 207.386269 182.977364 
L 208.472071 186.666238 
L 209.557872 185.006245 
L 210.643673 183.899583 
L 211.729474 185.006245 
L 212.815275 185.190688 
L 213.901076 183.530695 
L 214.986877 183.161808 
L 216.072679 183.161808 
L 217.15848 180.579597 
L 218.244281 183.715139 
L 219.330082 181.317371 
L 220.415883 181.686259 
L 221.501684 181.501815 
L 223.673287 182.23959 
L 224.759088 183.161808 
L 225.844889 214.148344 
L 226.93069 208.43059 
L 228.016491 208.061703 
L 229.102292 204.557273 
L 230.188094 202.343949 
L 231.273895 204.003942 
L 232.359696 210.275027 
L 233.445497 206.770597 
L 234.531298 213.595013 
L 235.617099 200.8684 
L 236.702901 214.701675 
L 237.788702 212.857238 
L 238.874503 213.9639 
L 239.960304 211.750576 
L 241.046105 201.975062 
L 242.131906 206.586153 
L 243.217708 203.081724 
L 244.303509 201.790618 
L 245.38931 201.237287 
L 246.475111 203.450611 
L 247.560912 201.421731 
L 248.646713 203.819498 
L 249.732514 200.499512 
L 250.818316 207.139484 
L 251.904117 203.266167 
L 252.989918 213.226125 
L 254.075719 197.548414 
L 255.16152 212.119463 
L 256.247321 211.381689 
L 257.333123 204.557273 
L 258.418924 211.750576 
L 259.504725 202.528393 
L 260.590526 197.179527 
L 261.676327 204.188386 
L 262.762128 195.519534 
L 263.847929 203.081724 
L 264.933731 203.266167 
L 266.019532 200.315069 
L 267.105333 201.606174 
L 268.191134 208.246146 
L 269.276935 202.712836 
L 270.362736 200.683956 
L 271.448538 196.995083 
L 272.534339 202.343949 
L 273.62014 204.92616 
L 274.705941 197.36397 
L 275.791742 199.208407 
L 276.877543 198.655076 
L 277.963344 196.441752 
L 280.134947 199.208407 
L 281.220748 198.470632 
L 282.306549 206.032822 
L 283.39235 196.810639 
L 284.478151 204.372829 
L 285.563953 194.412872 
L 286.649754 198.655076 
L 287.735555 194.966203 
L 288.821356 197.179527 
L 289.907157 195.519534 
L 290.992958 200.130625 
L 292.07876 206.955041 
L 293.164561 198.101745 
L 294.250362 196.626196 
L 295.336163 200.130625 
L 296.421964 197.732858 
L 297.507765 200.130625 
L 298.593566 198.470632 
L 299.679368 192.568435 
L 300.765169 193.859541 
L 301.85097 203.635055 
L 302.936771 195.150646 
L 304.022572 199.577294 
L 305.108373 194.043984 
L 306.194175 190.908442 
L 307.279976 195.519534 
L 308.365777 192.937322 
L 309.451578 194.966203 
L 310.537379 190.539555 
L 311.62318 191.092886 
L 312.708981 189.80178 
L 313.794783 193.30621 
L 314.880584 195.888421 
L 315.966385 192.199548 
L 317.052186 193.490653 
L 318.137987 198.470632 
L 319.223788 191.461773 
L 320.30959 190.355111 
L 321.395391 200.683956 
L 322.481192 189.617336 
L 323.566993 192.937322 
L 325.738595 194.412872 
L 326.824396 194.228428 
L 327.910198 189.986224 
L 328.995999 194.597315 
L 330.0818 189.617336 
L 331.167601 191.461773 
L 332.253402 191.646217 
L 333.339203 190.355111 
L 334.425005 188.510674 
L 335.510806 188.141787 
L 336.596607 185.928463 
L 337.682408 187.219569 
L 338.768209 184.26847 
L 339.85401 186.112907 
L 340.939811 184.26847 
L 342.025613 188.695118 
L 343.111414 188.326231 
L 344.197215 185.559576 
L 345.283016 186.666238 
L 346.368817 184.26847 
L 347.454618 184.084026 
L 348.54042 186.29735 
L 349.626221 185.744019 
L 350.712022 185.928463 
L 351.797823 186.29735 
L 352.883624 185.744019 
L 353.969425 185.559576 
L 355.055227 182.424033 
L 356.141028 184.084026 
L 357.226829 186.666238 
L 358.31263 184.452914 
L 359.398431 180.210709 
L 360.484232 181.686259 
L 361.570033 185.190688 
L 362.655835 184.26847 
L 363.741636 183.899583 
L 364.827437 181.870702 
L 365.913238 183.161808 
L 366.999039 185.006245 
L 369.170642 183.530695 
L 370.256443 183.715139 
L 371.342244 183.530695 
L 372.428045 184.452914 
L 373.513846 184.084026 
L 374.599647 187.588456 
L 375.685448 186.850681 
L 376.77125 183.161808 
L 377.857051 185.375132 
L 378.942852 183.899583 
L 380.028653 188.141787 
L 381.114454 186.850681 
L 382.200255 185.744019 
L 383.286057 190.908442 
L 384.371858 189.617336 
L 385.457659 185.559576 
L 386.54346 189.248449 
L 387.629261 189.064005 
L 388.715062 190.723998 
L 389.800863 189.80178 
L 390.886665 187.404012 
L 391.972466 187.957343 
L 393.058267 184.821801 
L 394.144068 185.928463 
L 395.229869 189.986224 
L 396.31567 186.850681 
L 397.401472 188.141787 
L 398.487273 187.7729 
L 398.487273 187.7729 
" clip-path="url(#p4bb846e4ef)" style="fill: none; stroke: #2ca02c; stroke-width: 1.5; stroke-linecap: square"/>
   </g>
   <g id="line2d_19">
    <path d="M 368.08484 101.895007 
L 369.170642 101.707797 
L 370.256443 102.376405 
L 371.342244 101.199654 
L 372.428045 101.948496 
L 374.599647 102.483382 
L 375.685448 104.622929 
L 376.77125 105.104327 
L 377.857051 104.061298 
L 378.942852 103.499667 
L 380.028653 102.429894 
L 381.114454 103.95432 
L 382.200255 104.435718 
L 383.286057 104.596184 
L 384.371858 104.970605 
L 385.457659 105.024094 
L 386.54346 107.16364 
L 387.629261 108.15318 
L 388.715062 105.612469 
L 389.800863 105.425259 
L 390.886665 106.735731 
L 391.972466 109.998539 
L 393.058267 108.902022 
L 394.144068 106.36131 
L 395.229869 110.720636 
L 396.31567 105.505492 
L 398.487273 110.399704 
L 398.487273 110.399704 
" clip-path="url(#p4bb846e4ef)" style="fill: none; stroke: #d62728; stroke-width: 1.5; stroke-linecap: square"/>
   </g>
   <g id="line2d_20">
    <path d="M 366.999039 185.375132 
L 368.08484 183.715139 
L 369.170642 185.928463 
L 371.342244 180.210709 
L 372.428045 182.424033 
L 373.513846 185.559576 
L 374.599647 180.948484 
L 375.685448 184.637357 
L 376.77125 182.792921 
L 377.857051 183.899583 
L 378.942852 184.084026 
L 380.028653 180.579597 
L 381.114454 184.821801 
L 382.200255 183.899583 
L 383.286057 185.190688 
L 384.371858 185.375132 
L 385.457659 180.026266 
L 386.54346 184.821801 
L 387.629261 183.899583 
L 388.715062 183.899583 
L 389.800863 186.850681 
L 390.886665 183.530695 
L 391.972466 183.346252 
L 393.058267 187.035125 
L 394.144068 185.190688 
L 395.229869 186.850681 
L 396.31567 184.26847 
L 397.401472 187.404012 
L 398.487273 188.141787 
L 398.487273 188.141787 
" clip-path="url(#p4bb846e4ef)" style="fill: none; stroke: #9467bd; stroke-width: 1.5; stroke-linecap: square"/>
   </g>
   <g id="patch_3">
    <path d="M 57.6 307.584 
L 57.6 41.472 
" style="fill: none; stroke: #000000; stroke-width: 0.8; stroke-linejoin: miter; stroke-linecap: square"/>
   </g>
   <g id="patch_4">
    <path d="M 414.72 307.584 
L 414.72 41.472 
" style="fill: none; stroke: #000000; stroke-width: 0.8; stroke-linejoin: miter; stroke-linecap: square"/>
   </g>
   <g id="patch_5">
    <path d="M 57.6 307.584 
L 414.72 307.584 
" style="fill: none; stroke: #000000; stroke-width: 0.8; stroke-linejoin: miter; stroke-linecap: square"/>
   </g>
   <g id="patch_6">
    <path d="M 57.6 41.472 
L 414.72 41.472 
" style="fill: none; stroke: #000000; stroke-width: 0.8; stroke-linejoin: miter; stroke-linecap: square"/>
   </g>
   <g id="text_18">
    <!-- Learning Curves -->
    <g transform="translate(187.37625 35.472) scale(0.12 -0.12)">
     <defs>
      <path id="DejaVuSans-4c" d="M 628 4666 
L 1259 4666 
L 1259 531 
L 3531 531 
L 3531 0 
L 628 0 
L 628 4666 
z
" transform="scale(0.015625)"/>
      <path id="DejaVuSans-65" d="M 3597 1894 
L 3597 1613 
L 953 1613 
Q 991 1019 1311 708 
Q 1631 397 2203 397 
Q 2534 397 2845 478 
Q 3156 559 3463 722 
L 3463 178 
Q 3153 47 2828 -22 
Q 2503 -91 2169 -91 
Q 1331 -91 842 396 
Q 353 884 353 1716 
Q 353 2575 817 3079 
Q 1281 3584 2069 3584 
Q 2775 3584 3186 3129 
Q 3597 2675 3597 1894 
z
M 3022 2063 
Q 3016 2534 2758 2815 
Q 2500 3097 2075 3097 
Q 1594 3097 1305 2825 
Q 1016 2553 972 2059 
L 3022 2063 
z
" transform="scale(0.015625)"/>
      <path id="DejaVuSans-6e" d="M 3513 2113 
L 3513 0 
L 2938 0 
L 2938 2094 
Q 2938 2591 2744 2837 
Q 2550 3084 2163 3084 
Q 1697 3084 1428 2787 
Q 1159 2491 1159 1978 
L 1159 0 
L 581 0 
L 581 3500 
L 1159 3500 
L 1159 2956 
Q 1366 3272 1645 3428 
Q 1925 3584 2291 3584 
Q 2894 3584 3203 3211 
Q 3513 2838 3513 2113 
z
" transform="scale(0.015625)"/>
      <path id="DejaVuSans-69" d="M 603 3500 
L 1178 3500 
L 1178 0 
L 603 0 
L 603 3500 
z
M 603 4863 
L 1178 4863 
L 1178 4134 
L 603 4134 
L 603 4863 
z
" transform="scale(0.015625)"/>
      <path id="DejaVuSans-67" d="M 2906 1791 
Q 2906 2416 2648 2759 
Q 2391 3103 1925 3103 
Q 1463 3103 1205 2759 
Q 947 2416 947 1791 
Q 947 1169 1205 825 
Q 1463 481 1925 481 
Q 2391 481 2648 825 
Q 2906 1169 2906 1791 
z
M 3481 434 
Q 3481 -459 3084 -895 
Q 2688 -1331 1869 -1331 
Q 1566 -1331 1297 -1286 
Q 1028 -1241 775 -1147 
L 775 -588 
Q 1028 -725 1275 -790 
Q 1522 -856 1778 -856 
Q 2344 -856 2625 -561 
Q 2906 -266 2906 331 
L 2906 616 
Q 2728 306 2450 153 
Q 2172 0 1784 0 
Q 1141 0 747 490 
Q 353 981 353 1791 
Q 353 2603 747 3093 
Q 1141 3584 1784 3584 
Q 2172 3584 2450 3431 
Q 2728 3278 2906 2969 
L 2906 3500 
L 3481 3500 
L 3481 434 
z
" transform="scale(0.015625)"/>
      <path id="DejaVuSans-20" transform="scale(0.015625)"/>
      <path id="DejaVuSans-43" d="M 4122 4306 
L 4122 3641 
Q 3803 3938 3442 4084 
Q 3081 4231 2675 4231 
Q 1875 4231 1450 3742 
Q 1025 3253 1025 2328 
Q 1025 1406 1450 917 
Q 1875 428 2675 428 
Q 3081 428 3442 575 
Q 3803 722 4122 1019 
L 4122 359 
Q 3791 134 3420 21 
Q 3050 -91 2638 -91 
Q 1578 -91 968 557 
Q 359 1206 359 2328 
Q 359 3453 968 4101 
Q 1578 4750 2638 4750 
Q 3056 4750 3426 4639 
Q 3797 4528 4122 4306 
z
" transform="scale(0.015625)"/>
      <path id="DejaVuSans-76" d="M 191 3500 
L 800 3500 
L 1894 563 
L 2988 3500 
L 3597 3500 
L 2284 0 
L 1503 0 
L 191 3500 
z
" transform="scale(0.015625)"/>
     </defs>
     <use xlink:href="#DejaVuSans-4c"/>
     <use xlink:href="#DejaVuSans-65" x="53.962891"/>
     <use xlink:href="#DejaVuSans-61" x="115.486328"/>
     <use xlink:href="#DejaVuSans-72" x="176.765625"/>
     <use xlink:href="#DejaVuSans-6e" x="216.128906"/>
     <use xlink:href="#DejaVuSans-69" x="279.507812"/>
     <use xlink:href="#DejaVuSans-6e" x="307.291016"/>
     <use xlink:href="#DejaVuSans-67" x="370.669922"/>
     <use xlink:href="#DejaVuSans-20" x="434.146484"/>
     <use xlink:href="#DejaVuSans-43" x="465.933594"/>
     <use xlink:href="#DejaVuSans-75" x="535.757812"/>
     <use xlink:href="#DejaVuSans-72" x="599.136719"/>
     <use xlink:href="#DejaVuSans-76" x="640.25"/>
     <use xlink:href="#DejaVuSans-65" x="699.429688"/>
     <use xlink:href="#DejaVuSans-73" x="760.953125"/>
    </g>
   </g>
   <g id="legend_1">
    <g id="patch_7">
     <path d="M 214.18875 302.584 
L 407.72 302.584 
Q 409.72 302.584 409.72 300.584 
L 409.72 228.193375 
Q 409.72 226.193375 407.72 226.193375 
L 214.18875 226.193375 
Q 212.18875 226.193375 212.18875 228.193375 
L 212.18875 300.584 
Q 212.18875 302.584 214.18875 302.584 
z
" style="fill: #ffffff; opacity: 0.8; stroke: #cccccc; stroke-linejoin: miter"/>
    </g>
    <g id="line2d_21">
     <path d="M 216.18875 234.291812 
L 226.18875 234.291812 
L 236.18875 234.291812 
" style="fill: none; stroke: #1f77b4; stroke-width: 1.5; stroke-linecap: square"/>
    </g>
    <g id="text_19">
     <!-- Train Accuracy -->
     <g transform="translate(244.18875 237.791812) scale(0.1 -0.1)">
      <defs>
       <path id="DejaVuSans-54" d="M -19 4666 
L 3928 4666 
L 3928 4134 
L 2272 4134 
L 2272 0 
L 1638 0 
L 1638 4134 
L -19 4134 
L -19 4666 
z
" transform="scale(0.015625)"/>
      </defs>
      <use xlink:href="#DejaVuSans-54"/>
      <use xlink:href="#DejaVuSans-72" x="46.333984"/>
      <use xlink:href="#DejaVuSans-61" x="87.447266"/>
      <use xlink:href="#DejaVuSans-69" x="148.726562"/>
      <use xlink:href="#DejaVuSans-6e" x="176.509766"/>
      <use xlink:href="#DejaVuSans-20" x="239.888672"/>
      <use xlink:href="#DejaVuSans-41" x="271.675781"/>
      <use xlink:href="#DejaVuSans-63" x="338.333984"/>
      <use xlink:href="#DejaVuSans-63" x="393.314453"/>
      <use xlink:href="#DejaVuSans-75" x="448.294922"/>
      <use xlink:href="#DejaVuSans-72" x="511.673828"/>
      <use xlink:href="#DejaVuSans-61" x="552.787109"/>
      <use xlink:href="#DejaVuSans-63" x="614.066406"/>
      <use xlink:href="#DejaVuSans-79" x="669.046875"/>
     </g>
    </g>
    <g id="line2d_22">
     <path d="M 216.18875 248.969937 
L 226.18875 248.969937 
L 236.18875 248.969937 
" style="fill: none; stroke: #ff7f0e; stroke-width: 1.5; stroke-linecap: square"/>
    </g>
    <g id="text_20">
     <!-- Validation Accuracy -->
     <g transform="translate(244.18875 252.469937) scale(0.1 -0.1)">
      <defs>
       <path id="DejaVuSans-56" d="M 1831 0 
L 50 4666 
L 709 4666 
L 2188 738 
L 3669 4666 
L 4325 4666 
L 2547 0 
L 1831 0 
z
" transform="scale(0.015625)"/>
       <path id="DejaVuSans-6c" d="M 603 4863 
L 1178 4863 
L 1178 0 
L 603 0 
L 603 4863 
z
" transform="scale(0.015625)"/>
       <path id="DejaVuSans-64" d="M 2906 2969 
L 2906 4863 
L 3481 4863 
L 3481 0 
L 2906 0 
L 2906 525 
Q 2725 213 2448 61 
Q 2172 -91 1784 -91 
Q 1150 -91 751 415 
Q 353 922 353 1747 
Q 353 2572 751 3078 
Q 1150 3584 1784 3584 
Q 2172 3584 2448 3432 
Q 2725 3281 2906 2969 
z
M 947 1747 
Q 947 1113 1208 752 
Q 1469 391 1925 391 
Q 2381 391 2643 752 
Q 2906 1113 2906 1747 
Q 2906 2381 2643 2742 
Q 2381 3103 1925 3103 
Q 1469 3103 1208 2742 
Q 947 2381 947 1747 
z
" transform="scale(0.015625)"/>
       <path id="DejaVuSans-74" d="M 1172 4494 
L 1172 3500 
L 2356 3500 
L 2356 3053 
L 1172 3053 
L 1172 1153 
Q 1172 725 1289 603 
Q 1406 481 1766 481 
L 2356 481 
L 2356 0 
L 1766 0 
Q 1100 0 847 248 
Q 594 497 594 1153 
L 594 3053 
L 172 3053 
L 172 3500 
L 594 3500 
L 594 4494 
L 1172 4494 
z
" transform="scale(0.015625)"/>
      </defs>
      <use xlink:href="#DejaVuSans-56"/>
      <use xlink:href="#DejaVuSans-61" x="60.658203"/>
      <use xlink:href="#DejaVuSans-6c" x="121.9375"/>
      <use xlink:href="#DejaVuSans-69" x="149.720703"/>
      <use xlink:href="#DejaVuSans-64" x="177.503906"/>
      <use xlink:href="#DejaVuSans-61" x="240.980469"/>
      <use xlink:href="#DejaVuSans-74" x="302.259766"/>
      <use xlink:href="#DejaVuSans-69" x="341.46875"/>
      <use xlink:href="#DejaVuSans-6f" x="369.251953"/>
      <use xlink:href="#DejaVuSans-6e" x="430.433594"/>
      <use xlink:href="#DejaVuSans-20" x="493.8125"/>
      <use xlink:href="#DejaVuSans-41" x="525.599609"/>
      <use xlink:href="#DejaVuSans-63" x="592.257812"/>
      <use xlink:href="#DejaVuSans-63" x="647.238281"/>
      <use xlink:href="#DejaVuSans-75" x="702.21875"/>
      <use xlink:href="#DejaVuSans-72" x="765.597656"/>
      <use xlink:href="#DejaVuSans-61" x="806.710938"/>
      <use xlink:href="#DejaVuSans-63" x="867.990234"/>
      <use xlink:href="#DejaVuSans-79" x="922.970703"/>
     </g>
    </g>
    <g id="line2d_23">
     <path d="M 216.18875 263.648062 
L 226.18875 263.648062 
L 236.18875 263.648062 
" style="fill: none; stroke: #2ca02c; stroke-width: 1.5; stroke-linecap: square"/>
    </g>
    <g id="text_21">
     <!-- Robust Validation Accuracy -->
     <g transform="translate(244.18875 267.148062) scale(0.1 -0.1)">
      <defs>
       <path id="DejaVuSans-52" d="M 2841 2188 
Q 3044 2119 3236 1894 
Q 3428 1669 3622 1275 
L 4263 0 
L 3584 0 
L 2988 1197 
Q 2756 1666 2539 1819 
Q 2322 1972 1947 1972 
L 1259 1972 
L 1259 0 
L 628 0 
L 628 4666 
L 2053 4666 
Q 2853 4666 3247 4331 
Q 3641 3997 3641 3322 
Q 3641 2881 3436 2590 
Q 3231 2300 2841 2188 
z
M 1259 4147 
L 1259 2491 
L 2053 2491 
Q 2509 2491 2742 2702 
Q 2975 2913 2975 3322 
Q 2975 3731 2742 3939 
Q 2509 4147 2053 4147 
L 1259 4147 
z
" transform="scale(0.015625)"/>
       <path id="DejaVuSans-62" d="M 3116 1747 
Q 3116 2381 2855 2742 
Q 2594 3103 2138 3103 
Q 1681 3103 1420 2742 
Q 1159 2381 1159 1747 
Q 1159 1113 1420 752 
Q 1681 391 2138 391 
Q 2594 391 2855 752 
Q 3116 1113 3116 1747 
z
M 1159 2969 
Q 1341 3281 1617 3432 
Q 1894 3584 2278 3584 
Q 2916 3584 3314 3078 
Q 3713 2572 3713 1747 
Q 3713 922 3314 415 
Q 2916 -91 2278 -91 
Q 1894 -91 1617 61 
Q 1341 213 1159 525 
L 1159 0 
L 581 0 
L 581 4863 
L 1159 4863 
L 1159 2969 
z
" transform="scale(0.015625)"/>
      </defs>
      <use xlink:href="#DejaVuSans-52"/>
      <use xlink:href="#DejaVuSans-6f" x="64.982422"/>
      <use xlink:href="#DejaVuSans-62" x="126.164062"/>
      <use xlink:href="#DejaVuSans-75" x="189.640625"/>
      <use xlink:href="#DejaVuSans-73" x="253.019531"/>
      <use xlink:href="#DejaVuSans-74" x="305.119141"/>
      <use xlink:href="#DejaVuSans-20" x="344.328125"/>
      <use xlink:href="#DejaVuSans-56" x="376.115234"/>
      <use xlink:href="#DejaVuSans-61" x="436.773438"/>
      <use xlink:href="#DejaVuSans-6c" x="498.052734"/>
      <use xlink:href="#DejaVuSans-69" x="525.835938"/>
      <use xlink:href="#DejaVuSans-64" x="553.619141"/>
      <use xlink:href="#DejaVuSans-61" x="617.095703"/>
      <use xlink:href="#DejaVuSans-74" x="678.375"/>
      <use xlink:href="#DejaVuSans-69" x="717.583984"/>
      <use xlink:href="#DejaVuSans-6f" x="745.367188"/>
      <use xlink:href="#DejaVuSans-6e" x="806.548828"/>
      <use xlink:href="#DejaVuSans-20" x="869.927734"/>
      <use xlink:href="#DejaVuSans-41" x="901.714844"/>
      <use xlink:href="#DejaVuSans-63" x="968.373047"/>
      <use xlink:href="#DejaVuSans-63" x="1023.353516"/>
      <use xlink:href="#DejaVuSans-75" x="1078.333984"/>
      <use xlink:href="#DejaVuSans-72" x="1141.712891"/>
      <use xlink:href="#DejaVuSans-61" x="1182.826172"/>
      <use xlink:href="#DejaVuSans-63" x="1244.105469"/>
      <use xlink:href="#DejaVuSans-79" x="1299.085938"/>
     </g>
    </g>
    <g id="line2d_24">
     <path d="M 216.18875 278.326188 
L 226.18875 278.326188 
L 236.18875 278.326188 
" style="fill: none; stroke: #d62728; stroke-width: 1.5; stroke-linecap: square"/>
    </g>
    <g id="text_22">
     <!-- SWA Validation Accuracy -->
     <g transform="translate(244.18875 281.826188) scale(0.1 -0.1)">
      <defs>
       <path id="DejaVuSans-53" d="M 3425 4513 
L 3425 3897 
Q 3066 4069 2747 4153 
Q 2428 4238 2131 4238 
Q 1616 4238 1336 4038 
Q 1056 3838 1056 3469 
Q 1056 3159 1242 3001 
Q 1428 2844 1947 2747 
L 2328 2669 
Q 3034 2534 3370 2195 
Q 3706 1856 3706 1288 
Q 3706 609 3251 259 
Q 2797 -91 1919 -91 
Q 1588 -91 1214 -16 
Q 841 59 441 206 
L 441 856 
Q 825 641 1194 531 
Q 1563 422 1919 422 
Q 2459 422 2753 634 
Q 3047 847 3047 1241 
Q 3047 1584 2836 1778 
Q 2625 1972 2144 2069 
L 1759 2144 
Q 1053 2284 737 2584 
Q 422 2884 422 3419 
Q 422 4038 858 4394 
Q 1294 4750 2059 4750 
Q 2388 4750 2728 4690 
Q 3069 4631 3425 4513 
z
" transform="scale(0.015625)"/>
       <path id="DejaVuSans-57" d="M 213 4666 
L 850 4666 
L 1831 722 
L 2809 4666 
L 3519 4666 
L 4500 722 
L 5478 4666 
L 6119 4666 
L 4947 0 
L 4153 0 
L 3169 4050 
L 2175 0 
L 1381 0 
L 213 4666 
z
" transform="scale(0.015625)"/>
      </defs>
      <use xlink:href="#DejaVuSans-53"/>
      <use xlink:href="#DejaVuSans-57" x="63.476562"/>
      <use xlink:href="#DejaVuSans-41" x="156.853516"/>
      <use xlink:href="#DejaVuSans-20" x="225.261719"/>
      <use xlink:href="#DejaVuSans-56" x="257.048828"/>
      <use xlink:href="#DejaVuSans-61" x="317.707031"/>
      <use xlink:href="#DejaVuSans-6c" x="378.986328"/>
      <use xlink:href="#DejaVuSans-69" x="406.769531"/>
      <use xlink:href="#DejaVuSans-64" x="434.552734"/>
      <use xlink:href="#DejaVuSans-61" x="498.029297"/>
      <use xlink:href="#DejaVuSans-74" x="559.308594"/>
      <use xlink:href="#DejaVuSans-69" x="598.517578"/>
      <use xlink:href="#DejaVuSans-6f" x="626.300781"/>
      <use xlink:href="#DejaVuSans-6e" x="687.482422"/>
      <use xlink:href="#DejaVuSans-20" x="750.861328"/>
      <use xlink:href="#DejaVuSans-41" x="782.648438"/>
      <use xlink:href="#DejaVuSans-63" x="849.306641"/>
      <use xlink:href="#DejaVuSans-63" x="904.287109"/>
      <use xlink:href="#DejaVuSans-75" x="959.267578"/>
      <use xlink:href="#DejaVuSans-72" x="1022.646484"/>
      <use xlink:href="#DejaVuSans-61" x="1063.759766"/>
      <use xlink:href="#DejaVuSans-63" x="1125.039062"/>
      <use xlink:href="#DejaVuSans-79" x="1180.019531"/>
     </g>
    </g>
    <g id="line2d_25">
     <path d="M 216.18875 293.004312 
L 226.18875 293.004312 
L 236.18875 293.004312 
" style="fill: none; stroke: #9467bd; stroke-width: 1.5; stroke-linecap: square"/>
    </g>
    <g id="text_23">
     <!-- SWA Robust Validation Accuracy -->
     <g transform="translate(244.18875 296.504312) scale(0.1 -0.1)">
      <use xlink:href="#DejaVuSans-53"/>
      <use xlink:href="#DejaVuSans-57" x="63.476562"/>
      <use xlink:href="#DejaVuSans-41" x="156.853516"/>
      <use xlink:href="#DejaVuSans-20" x="225.261719"/>
      <use xlink:href="#DejaVuSans-52" x="257.048828"/>
      <use xlink:href="#DejaVuSans-6f" x="322.03125"/>
      <use xlink:href="#DejaVuSans-62" x="383.212891"/>
      <use xlink:href="#DejaVuSans-75" x="446.689453"/>
      <use xlink:href="#DejaVuSans-73" x="510.068359"/>
      <use xlink:href="#DejaVuSans-74" x="562.167969"/>
      <use xlink:href="#DejaVuSans-20" x="601.376953"/>
      <use xlink:href="#DejaVuSans-56" x="633.164062"/>
      <use xlink:href="#DejaVuSans-61" x="693.822266"/>
      <use xlink:href="#DejaVuSans-6c" x="755.101562"/>
      <use xlink:href="#DejaVuSans-69" x="782.884766"/>
      <use xlink:href="#DejaVuSans-64" x="810.667969"/>
      <use xlink:href="#DejaVuSans-61" x="874.144531"/>
      <use xlink:href="#DejaVuSans-74" x="935.423828"/>
      <use xlink:href="#DejaVuSans-69" x="974.632812"/>
      <use xlink:href="#DejaVuSans-6f" x="1002.416016"/>
      <use xlink:href="#DejaVuSans-6e" x="1063.597656"/>
      <use xlink:href="#DejaVuSans-20" x="1126.976562"/>
      <use xlink:href="#DejaVuSans-41" x="1158.763672"/>
      <use xlink:href="#DejaVuSans-63" x="1225.421875"/>
      <use xlink:href="#DejaVuSans-63" x="1280.402344"/>
      <use xlink:href="#DejaVuSans-75" x="1335.382812"/>
      <use xlink:href="#DejaVuSans-72" x="1398.761719"/>
      <use xlink:href="#DejaVuSans-61" x="1439.875"/>
      <use xlink:href="#DejaVuSans-63" x="1501.154297"/>
      <use xlink:href="#DejaVuSans-79" x="1556.134766"/>
     </g>
    </g>
   </g>
  </g>
 </g>
 <defs>
  <clipPath id="p4bb846e4ef">
   <rect x="57.6" y="41.472" width="357.12" height="266.112"/>
  </clipPath>
 </defs>
</svg>
