<?xml version="1.0" encoding="utf-8" standalone="no"?>
<!DOCTYPE svg PUBLIC "-//W3C//DTD SVG 1.1//EN"
  "http://www.w3.org/Graphics/SVG/1.1/DTD/svg11.dtd">
<svg xmlns:xlink="http://www.w3.org/1999/xlink" width="460.8pt" height="345.6pt" viewBox="0 0 460.8 345.6" xmlns="http://www.w3.org/2000/svg" version="1.1">
 <metadata>
  <rdf:RDF xmlns:dc="http://purl.org/dc/elements/1.1/" xmlns:cc="http://creativecommons.org/ns#" xmlns:rdf="http://www.w3.org/1999/02/22-rdf-syntax-ns#">
   <cc:Work>
    <dc:type rdf:resource="http://purl.org/dc/dcmitype/StillImage"/>
    <dc:date>2025-01-26T18:47:43.473153</dc:date>
    <dc:format>image/svg+xml</dc:format>
    <dc:creator>
     <cc:Agent>
      <dc:title>Matplotlib v3.9.1, https://matplotlib.org/</dc:title>
     </cc:Agent>
    </dc:creator>
   </cc:Work>
  </rdf:RDF>
 </metadata>
 <defs>
  <style type="text/css">*{stroke-linejoin: round; stroke-linecap: butt}</style>
 </defs>
 <g id="figure_1">
  <g id="patch_1">
   <path d="M 0 345.6 
L 460.8 345.6 
L 460.8 0 
L 0 0 
z
" style="fill: #ffffff"/>
  </g>
  <g id="axes_1">
   <g id="patch_2">
    <path d="M 57.6 307.584 
L 414.72 307.584 
L 414.72 41.472 
L 57.6 41.472 
z
" style="fill: #ffffff"/>
   </g>
   <g id="matplotlib.axis_1">
    <g id="xtick_1">
     <g id="line2d_1">
      <defs>
       <path id="m59a5485736" d="M 0 0 
L 0 3.5 
" style="stroke: #000000; stroke-width: 0.8"/>
      </defs>
      <g>
       <use xlink:href="#m59a5485736" x="73.832727" y="307.584" style="stroke: #000000; stroke-width: 0.8"/>
      </g>
     </g>
     <g id="text_1">
      <!-- 1 -->
      <g transform="translate(70.651477 322.182437) scale(0.1 -0.1)">
       <defs>
        <path id="DejaVuSans-31" d="M 794 531 
L 1825 531 
L 1825 4091 
L 703 3866 
L 703 4441 
L 1819 4666 
L 2450 4666 
L 2450 531 
L 3481 531 
L 3481 0 
L 794 0 
L 794 531 
z
" transform="scale(0.015625)"/>
       </defs>
       <use xlink:href="#DejaVuSans-31"/>
      </g>
     </g>
    </g>
    <g id="xtick_2">
     <g id="line2d_2">
      <g>
       <use xlink:href="#m59a5485736" x="109.664165" y="307.584" style="stroke: #000000; stroke-width: 0.8"/>
      </g>
     </g>
     <g id="text_2">
      <!-- 34 -->
      <g transform="translate(103.301665 322.182437) scale(0.1 -0.1)">
       <defs>
        <path id="DejaVuSans-33" d="M 2597 2516 
Q 3050 2419 3304 2112 
Q 3559 1806 3559 1356 
Q 3559 666 3084 287 
Q 2609 -91 1734 -91 
Q 1441 -91 1130 -33 
Q 819 25 488 141 
L 488 750 
Q 750 597 1062 519 
Q 1375 441 1716 441 
Q 2309 441 2620 675 
Q 2931 909 2931 1356 
Q 2931 1769 2642 2001 
Q 2353 2234 1838 2234 
L 1294 2234 
L 1294 2753 
L 1863 2753 
Q 2328 2753 2575 2939 
Q 2822 3125 2822 3475 
Q 2822 3834 2567 4026 
Q 2313 4219 1838 4219 
Q 1578 4219 1281 4162 
Q 984 4106 628 3988 
L 628 4550 
Q 988 4650 1302 4700 
Q 1616 4750 1894 4750 
Q 2613 4750 3031 4423 
Q 3450 4097 3450 3541 
Q 3450 3153 3228 2886 
Q 3006 2619 2597 2516 
z
" transform="scale(0.015625)"/>
        <path id="DejaVuSans-34" d="M 2419 4116 
L 825 1625 
L 2419 1625 
L 2419 4116 
z
M 2253 4666 
L 3047 4666 
L 3047 1625 
L 3713 1625 
L 3713 1100 
L 3047 1100 
L 3047 0 
L 2419 0 
L 2419 1100 
L 313 1100 
L 313 1709 
L 2253 4666 
z
" transform="scale(0.015625)"/>
       </defs>
       <use xlink:href="#DejaVuSans-33"/>
       <use xlink:href="#DejaVuSans-34" x="63.623047"/>
      </g>
     </g>
    </g>
    <g id="xtick_3">
     <g id="line2d_3">
      <g>
       <use xlink:href="#m59a5485736" x="145.495604" y="307.584" style="stroke: #000000; stroke-width: 0.8"/>
      </g>
     </g>
     <g id="text_3">
      <!-- 67 -->
      <g transform="translate(139.133104 322.182437) scale(0.1 -0.1)">
       <defs>
        <path id="DejaVuSans-36" d="M 2113 2584 
Q 1688 2584 1439 2293 
Q 1191 2003 1191 1497 
Q 1191 994 1439 701 
Q 1688 409 2113 409 
Q 2538 409 2786 701 
Q 3034 994 3034 1497 
Q 3034 2003 2786 2293 
Q 2538 2584 2113 2584 
z
M 3366 4563 
L 3366 3988 
Q 3128 4100 2886 4159 
Q 2644 4219 2406 4219 
Q 1781 4219 1451 3797 
Q 1122 3375 1075 2522 
Q 1259 2794 1537 2939 
Q 1816 3084 2150 3084 
Q 2853 3084 3261 2657 
Q 3669 2231 3669 1497 
Q 3669 778 3244 343 
Q 2819 -91 2113 -91 
Q 1303 -91 875 529 
Q 447 1150 447 2328 
Q 447 3434 972 4092 
Q 1497 4750 2381 4750 
Q 2619 4750 2861 4703 
Q 3103 4656 3366 4563 
z
" transform="scale(0.015625)"/>
        <path id="DejaVuSans-37" d="M 525 4666 
L 3525 4666 
L 3525 4397 
L 1831 0 
L 1172 0 
L 2766 4134 
L 525 4134 
L 525 4666 
z
" transform="scale(0.015625)"/>
       </defs>
       <use xlink:href="#DejaVuSans-36"/>
       <use xlink:href="#DejaVuSans-37" x="63.623047"/>
      </g>
     </g>
    </g>
    <g id="xtick_4">
     <g id="line2d_4">
      <g>
       <use xlink:href="#m59a5485736" x="181.327042" y="307.584" style="stroke: #000000; stroke-width: 0.8"/>
      </g>
     </g>
     <g id="text_4">
      <!-- 100 -->
      <g transform="translate(171.783292 322.182437) scale(0.1 -0.1)">
       <defs>
        <path id="DejaVuSans-30" d="M 2034 4250 
Q 1547 4250 1301 3770 
Q 1056 3291 1056 2328 
Q 1056 1369 1301 889 
Q 1547 409 2034 409 
Q 2525 409 2770 889 
Q 3016 1369 3016 2328 
Q 3016 3291 2770 3770 
Q 2525 4250 2034 4250 
z
M 2034 4750 
Q 2819 4750 3233 4129 
Q 3647 3509 3647 2328 
Q 3647 1150 3233 529 
Q 2819 -91 2034 -91 
Q 1250 -91 836 529 
Q 422 1150 422 2328 
Q 422 3509 836 4129 
Q 1250 4750 2034 4750 
z
" transform="scale(0.015625)"/>
       </defs>
       <use xlink:href="#DejaVuSans-31"/>
       <use xlink:href="#DejaVuSans-30" x="63.623047"/>
       <use xlink:href="#DejaVuSans-30" x="127.246094"/>
      </g>
     </g>
    </g>
    <g id="xtick_5">
     <g id="line2d_5">
      <g>
       <use xlink:href="#m59a5485736" x="217.15848" y="307.584" style="stroke: #000000; stroke-width: 0.8"/>
      </g>
     </g>
     <g id="text_5">
      <!-- 133 -->
      <g transform="translate(207.61473 322.182437) scale(0.1 -0.1)">
       <use xlink:href="#DejaVuSans-31"/>
       <use xlink:href="#DejaVuSans-33" x="63.623047"/>
       <use xlink:href="#DejaVuSans-33" x="127.246094"/>
      </g>
     </g>
    </g>
    <g id="xtick_6">
     <g id="line2d_6">
      <g>
       <use xlink:href="#m59a5485736" x="254.075719" y="307.584" style="stroke: #000000; stroke-width: 0.8"/>
      </g>
     </g>
     <g id="text_6">
      <!-- 167 -->
      <g transform="translate(244.531969 322.182437) scale(0.1 -0.1)">
       <use xlink:href="#DejaVuSans-31"/>
       <use xlink:href="#DejaVuSans-36" x="63.623047"/>
       <use xlink:href="#DejaVuSans-37" x="127.246094"/>
      </g>
     </g>
    </g>
    <g id="xtick_7">
     <g id="line2d_7">
      <g>
       <use xlink:href="#m59a5485736" x="289.907157" y="307.584" style="stroke: #000000; stroke-width: 0.8"/>
      </g>
     </g>
     <g id="text_7">
      <!-- 200 -->
      <g transform="translate(280.363407 322.182437) scale(0.1 -0.1)">
       <defs>
        <path id="DejaVuSans-32" d="M 1228 531 
L 3431 531 
L 3431 0 
L 469 0 
L 469 531 
Q 828 903 1448 1529 
Q 2069 2156 2228 2338 
Q 2531 2678 2651 2914 
Q 2772 3150 2772 3378 
Q 2772 3750 2511 3984 
Q 2250 4219 1831 4219 
Q 1534 4219 1204 4116 
Q 875 4013 500 3803 
L 500 4441 
Q 881 4594 1212 4672 
Q 1544 4750 1819 4750 
Q 2544 4750 2975 4387 
Q 3406 4025 3406 3419 
Q 3406 3131 3298 2873 
Q 3191 2616 2906 2266 
Q 2828 2175 2409 1742 
Q 1991 1309 1228 531 
z
" transform="scale(0.015625)"/>
       </defs>
       <use xlink:href="#DejaVuSans-32"/>
       <use xlink:href="#DejaVuSans-30" x="63.623047"/>
       <use xlink:href="#DejaVuSans-30" x="127.246094"/>
      </g>
     </g>
    </g>
    <g id="xtick_8">
     <g id="line2d_8">
      <g>
       <use xlink:href="#m59a5485736" x="325.738595" y="307.584" style="stroke: #000000; stroke-width: 0.8"/>
      </g>
     </g>
     <g id="text_8">
      <!-- 233 -->
      <g transform="translate(316.194845 322.182437) scale(0.1 -0.1)">
       <use xlink:href="#DejaVuSans-32"/>
       <use xlink:href="#DejaVuSans-33" x="63.623047"/>
       <use xlink:href="#DejaVuSans-33" x="127.246094"/>
      </g>
     </g>
    </g>
    <g id="xtick_9">
     <g id="line2d_9">
      <g>
       <use xlink:href="#m59a5485736" x="361.570033" y="307.584" style="stroke: #000000; stroke-width: 0.8"/>
      </g>
     </g>
     <g id="text_9">
      <!-- 266 -->
      <g transform="translate(352.026283 322.182437) scale(0.1 -0.1)">
       <use xlink:href="#DejaVuSans-32"/>
       <use xlink:href="#DejaVuSans-36" x="63.623047"/>
       <use xlink:href="#DejaVuSans-36" x="127.246094"/>
      </g>
     </g>
    </g>
    <g id="xtick_10">
     <g id="line2d_10">
      <g>
       <use xlink:href="#m59a5485736" x="398.487273" y="307.584" style="stroke: #000000; stroke-width: 0.8"/>
      </g>
     </g>
     <g id="text_10">
      <!-- 300 -->
      <g transform="translate(388.943523 322.182437) scale(0.1 -0.1)">
       <use xlink:href="#DejaVuSans-33"/>
       <use xlink:href="#DejaVuSans-30" x="63.623047"/>
       <use xlink:href="#DejaVuSans-30" x="127.246094"/>
      </g>
     </g>
    </g>
    <g id="text_11">
     <!-- Epochs -->
     <g transform="translate(218.244375 335.860562) scale(0.1 -0.1)">
      <defs>
       <path id="DejaVuSans-45" d="M 628 4666 
L 3578 4666 
L 3578 4134 
L 1259 4134 
L 1259 2753 
L 3481 2753 
L 3481 2222 
L 1259 2222 
L 1259 531 
L 3634 531 
L 3634 0 
L 628 0 
L 628 4666 
z
" transform="scale(0.015625)"/>
       <path id="DejaVuSans-70" d="M 1159 525 
L 1159 -1331 
L 581 -1331 
L 581 3500 
L 1159 3500 
L 1159 2969 
Q 1341 3281 1617 3432 
Q 1894 3584 2278 3584 
Q 2916 3584 3314 3078 
Q 3713 2572 3713 1747 
Q 3713 922 3314 415 
Q 2916 -91 2278 -91 
Q 1894 -91 1617 61 
Q 1341 213 1159 525 
z
M 3116 1747 
Q 3116 2381 2855 2742 
Q 2594 3103 2138 3103 
Q 1681 3103 1420 2742 
Q 1159 2381 1159 1747 
Q 1159 1113 1420 752 
Q 1681 391 2138 391 
Q 2594 391 2855 752 
Q 3116 1113 3116 1747 
z
" transform="scale(0.015625)"/>
       <path id="DejaVuSans-6f" d="M 1959 3097 
Q 1497 3097 1228 2736 
Q 959 2375 959 1747 
Q 959 1119 1226 758 
Q 1494 397 1959 397 
Q 2419 397 2687 759 
Q 2956 1122 2956 1747 
Q 2956 2369 2687 2733 
Q 2419 3097 1959 3097 
z
M 1959 3584 
Q 2709 3584 3137 3096 
Q 3566 2609 3566 1747 
Q 3566 888 3137 398 
Q 2709 -91 1959 -91 
Q 1206 -91 779 398 
Q 353 888 353 1747 
Q 353 2609 779 3096 
Q 1206 3584 1959 3584 
z
" transform="scale(0.015625)"/>
       <path id="DejaVuSans-63" d="M 3122 3366 
L 3122 2828 
Q 2878 2963 2633 3030 
Q 2388 3097 2138 3097 
Q 1578 3097 1268 2742 
Q 959 2388 959 1747 
Q 959 1106 1268 751 
Q 1578 397 2138 397 
Q 2388 397 2633 464 
Q 2878 531 3122 666 
L 3122 134 
Q 2881 22 2623 -34 
Q 2366 -91 2075 -91 
Q 1284 -91 818 406 
Q 353 903 353 1747 
Q 353 2603 823 3093 
Q 1294 3584 2113 3584 
Q 2378 3584 2631 3529 
Q 2884 3475 3122 3366 
z
" transform="scale(0.015625)"/>
       <path id="DejaVuSans-68" d="M 3513 2113 
L 3513 0 
L 2938 0 
L 2938 2094 
Q 2938 2591 2744 2837 
Q 2550 3084 2163 3084 
Q 1697 3084 1428 2787 
Q 1159 2491 1159 1978 
L 1159 0 
L 581 0 
L 581 4863 
L 1159 4863 
L 1159 2956 
Q 1366 3272 1645 3428 
Q 1925 3584 2291 3584 
Q 2894 3584 3203 3211 
Q 3513 2838 3513 2113 
z
" transform="scale(0.015625)"/>
       <path id="DejaVuSans-73" d="M 2834 3397 
L 2834 2853 
Q 2591 2978 2328 3040 
Q 2066 3103 1784 3103 
Q 1356 3103 1142 2972 
Q 928 2841 928 2578 
Q 928 2378 1081 2264 
Q 1234 2150 1697 2047 
L 1894 2003 
Q 2506 1872 2764 1633 
Q 3022 1394 3022 966 
Q 3022 478 2636 193 
Q 2250 -91 1575 -91 
Q 1294 -91 989 -36 
Q 684 19 347 128 
L 347 722 
Q 666 556 975 473 
Q 1284 391 1588 391 
Q 1994 391 2212 530 
Q 2431 669 2431 922 
Q 2431 1156 2273 1281 
Q 2116 1406 1581 1522 
L 1381 1569 
Q 847 1681 609 1914 
Q 372 2147 372 2553 
Q 372 3047 722 3315 
Q 1072 3584 1716 3584 
Q 2034 3584 2315 3537 
Q 2597 3491 2834 3397 
z
" transform="scale(0.015625)"/>
      </defs>
      <use xlink:href="#DejaVuSans-45"/>
      <use xlink:href="#DejaVuSans-70" x="63.183594"/>
      <use xlink:href="#DejaVuSans-6f" x="126.660156"/>
      <use xlink:href="#DejaVuSans-63" x="187.841797"/>
      <use xlink:href="#DejaVuSans-68" x="242.822266"/>
      <use xlink:href="#DejaVuSans-73" x="306.201172"/>
     </g>
    </g>
   </g>
   <g id="matplotlib.axis_2">
    <g id="ytick_1">
     <g id="line2d_11">
      <defs>
       <path id="mc6de0b0dcd" d="M 0 0 
L -3.5 0 
" style="stroke: #000000; stroke-width: 0.8"/>
      </defs>
      <g>
       <use xlink:href="#mc6de0b0dcd" x="57.6" y="285.391697" style="stroke: #000000; stroke-width: 0.8"/>
      </g>
     </g>
     <g id="text_12">
      <!-- 20 -->
      <g transform="translate(37.875 289.190915) scale(0.1 -0.1)">
       <use xlink:href="#DejaVuSans-32"/>
       <use xlink:href="#DejaVuSans-30" x="63.623047"/>
      </g>
     </g>
    </g>
    <g id="ytick_2">
     <g id="line2d_12">
      <g>
       <use xlink:href="#mc6de0b0dcd" x="57.6" y="226.597962" style="stroke: #000000; stroke-width: 0.8"/>
      </g>
     </g>
     <g id="text_13">
      <!-- 40 -->
      <g transform="translate(37.875 230.39718) scale(0.1 -0.1)">
       <use xlink:href="#DejaVuSans-34"/>
       <use xlink:href="#DejaVuSans-30" x="63.623047"/>
      </g>
     </g>
    </g>
    <g id="ytick_3">
     <g id="line2d_13">
      <g>
       <use xlink:href="#mc6de0b0dcd" x="57.6" y="167.804227" style="stroke: #000000; stroke-width: 0.8"/>
      </g>
     </g>
     <g id="text_14">
      <!-- 60 -->
      <g transform="translate(37.875 171.603446) scale(0.1 -0.1)">
       <use xlink:href="#DejaVuSans-36"/>
       <use xlink:href="#DejaVuSans-30" x="63.623047"/>
      </g>
     </g>
    </g>
    <g id="ytick_4">
     <g id="line2d_14">
      <g>
       <use xlink:href="#mc6de0b0dcd" x="57.6" y="109.010492" style="stroke: #000000; stroke-width: 0.8"/>
      </g>
     </g>
     <g id="text_15">
      <!-- 80 -->
      <g transform="translate(37.875 112.809711) scale(0.1 -0.1)">
       <defs>
        <path id="DejaVuSans-38" d="M 2034 2216 
Q 1584 2216 1326 1975 
Q 1069 1734 1069 1313 
Q 1069 891 1326 650 
Q 1584 409 2034 409 
Q 2484 409 2743 651 
Q 3003 894 3003 1313 
Q 3003 1734 2745 1975 
Q 2488 2216 2034 2216 
z
M 1403 2484 
Q 997 2584 770 2862 
Q 544 3141 544 3541 
Q 544 4100 942 4425 
Q 1341 4750 2034 4750 
Q 2731 4750 3128 4425 
Q 3525 4100 3525 3541 
Q 3525 3141 3298 2862 
Q 3072 2584 2669 2484 
Q 3125 2378 3379 2068 
Q 3634 1759 3634 1313 
Q 3634 634 3220 271 
Q 2806 -91 2034 -91 
Q 1263 -91 848 271 
Q 434 634 434 1313 
Q 434 1759 690 2068 
Q 947 2378 1403 2484 
z
M 1172 3481 
Q 1172 3119 1398 2916 
Q 1625 2713 2034 2713 
Q 2441 2713 2670 2916 
Q 2900 3119 2900 3481 
Q 2900 3844 2670 4047 
Q 2441 4250 2034 4250 
Q 1625 4250 1398 4047 
Q 1172 3844 1172 3481 
z
" transform="scale(0.015625)"/>
       </defs>
       <use xlink:href="#DejaVuSans-38"/>
       <use xlink:href="#DejaVuSans-30" x="63.623047"/>
      </g>
     </g>
    </g>
    <g id="ytick_5">
     <g id="line2d_15">
      <g>
       <use xlink:href="#mc6de0b0dcd" x="57.6" y="50.216757" style="stroke: #000000; stroke-width: 0.8"/>
      </g>
     </g>
     <g id="text_16">
      <!-- 100 -->
      <g transform="translate(31.5125 54.015976) scale(0.1 -0.1)">
       <use xlink:href="#DejaVuSans-31"/>
       <use xlink:href="#DejaVuSans-30" x="63.623047"/>
       <use xlink:href="#DejaVuSans-30" x="127.246094"/>
      </g>
     </g>
    </g>
    <g id="text_17">
     <!-- Accuracy -->
     <g transform="translate(25.432812 197.356125) rotate(-90) scale(0.1 -0.1)">
      <defs>
       <path id="DejaVuSans-41" d="M 2188 4044 
L 1331 1722 
L 3047 1722 
L 2188 4044 
z
M 1831 4666 
L 2547 4666 
L 4325 0 
L 3669 0 
L 3244 1197 
L 1141 1197 
L 716 0 
L 50 0 
L 1831 4666 
z
" transform="scale(0.015625)"/>
       <path id="DejaVuSans-75" d="M 544 1381 
L 544 3500 
L 1119 3500 
L 1119 1403 
Q 1119 906 1312 657 
Q 1506 409 1894 409 
Q 2359 409 2629 706 
Q 2900 1003 2900 1516 
L 2900 3500 
L 3475 3500 
L 3475 0 
L 2900 0 
L 2900 538 
Q 2691 219 2414 64 
Q 2138 -91 1772 -91 
Q 1169 -91 856 284 
Q 544 659 544 1381 
z
M 1991 3584 
L 1991 3584 
z
" transform="scale(0.015625)"/>
       <path id="DejaVuSans-72" d="M 2631 2963 
Q 2534 3019 2420 3045 
Q 2306 3072 2169 3072 
Q 1681 3072 1420 2755 
Q 1159 2438 1159 1844 
L 1159 0 
L 581 0 
L 581 3500 
L 1159 3500 
L 1159 2956 
Q 1341 3275 1631 3429 
Q 1922 3584 2338 3584 
Q 2397 3584 2469 3576 
Q 2541 3569 2628 3553 
L 2631 2963 
z
" transform="scale(0.015625)"/>
       <path id="DejaVuSans-61" d="M 2194 1759 
Q 1497 1759 1228 1600 
Q 959 1441 959 1056 
Q 959 750 1161 570 
Q 1363 391 1709 391 
Q 2188 391 2477 730 
Q 2766 1069 2766 1631 
L 2766 1759 
L 2194 1759 
z
M 3341 1997 
L 3341 0 
L 2766 0 
L 2766 531 
Q 2569 213 2275 61 
Q 1981 -91 1556 -91 
Q 1019 -91 701 211 
Q 384 513 384 1019 
Q 384 1609 779 1909 
Q 1175 2209 1959 2209 
L 2766 2209 
L 2766 2266 
Q 2766 2663 2505 2880 
Q 2244 3097 1772 3097 
Q 1472 3097 1187 3025 
Q 903 2953 641 2809 
L 641 3341 
Q 956 3463 1253 3523 
Q 1550 3584 1831 3584 
Q 2591 3584 2966 3190 
Q 3341 2797 3341 1997 
z
" transform="scale(0.015625)"/>
       <path id="DejaVuSans-79" d="M 2059 -325 
Q 1816 -950 1584 -1140 
Q 1353 -1331 966 -1331 
L 506 -1331 
L 506 -850 
L 844 -850 
Q 1081 -850 1212 -737 
Q 1344 -625 1503 -206 
L 1606 56 
L 191 3500 
L 800 3500 
L 1894 763 
L 2988 3500 
L 3597 3500 
L 2059 -325 
z
" transform="scale(0.015625)"/>
      </defs>
      <use xlink:href="#DejaVuSans-41"/>
      <use xlink:href="#DejaVuSans-63" x="66.658203"/>
      <use xlink:href="#DejaVuSans-63" x="121.638672"/>
      <use xlink:href="#DejaVuSans-75" x="176.619141"/>
      <use xlink:href="#DejaVuSans-72" x="239.998047"/>
      <use xlink:href="#DejaVuSans-61" x="281.111328"/>
      <use xlink:href="#DejaVuSans-63" x="342.390625"/>
      <use xlink:href="#DejaVuSans-79" x="397.371094"/>
     </g>
    </g>
   </g>
   <g id="line2d_16">
    <path d="M 73.832727 287.9845 
L 74.918528 207.695776 
L 76.00433 155.01659 
L 77.090131 126.819114 
L 78.175932 109.768931 
L 79.261733 100.015051 
L 80.347534 92.906888 
L 81.433335 87.715401 
L 83.604938 79.513675 
L 87.948142 70.000849 
L 89.033943 68.001862 
L 91.205546 65.644233 
L 92.291347 64.768206 
L 93.377148 64.08032 
L 94.462949 64.386047 
L 95.54875 79.343173 
L 96.634552 80.036939 
L 97.720353 77.59112 
L 98.806154 76.93263 
L 99.891955 75.474546 
L 100.977756 74.239877 
L 102.063557 73.375609 
L 103.149358 72.358478 
L 104.23516 71.153206 
L 105.320961 70.74165 
L 106.406762 69.342359 
L 107.492563 68.76618 
L 108.578364 67.696134 
L 110.749967 66.873022 
L 111.835768 65.95584 
L 112.921569 65.320868 
L 114.00737 65.026899 
L 115.093171 64.591825 
L 116.178972 63.280725 
L 117.264773 63.486503 
L 118.350575 62.681029 
L 120.522177 61.428722 
L 121.607978 61.140633 
L 123.77958 60.199933 
L 124.865382 59.611996 
L 125.951183 59.841292 
L 127.036984 59.065214 
L 129.208586 57.959892 
L 130.294387 57.983409 
L 131.380189 57.471904 
L 132.46599 57.501301 
L 133.551791 57.095624 
L 134.637592 57.125021 
L 135.723393 56.866329 
L 136.809194 56.989795 
L 137.894995 56.807535 
L 138.980797 68.078294 
L 140.066598 68.501609 
L 141.152399 69.695121 
L 142.2382 68.454574 
L 144.409802 67.214026 
L 145.495604 67.819601 
L 146.581405 66.743676 
L 147.667206 66.349758 
L 149.838808 65.908805 
L 150.924609 65.420817 
L 152.01041 65.838252 
L 153.096212 65.650113 
L 154.182013 65.256194 
L 155.267814 64.45072 
L 158.525217 64.45072 
L 159.611019 63.562935 
L 160.69682 63.539417 
L 161.782621 63.351277 
L 162.868422 63.004394 
L 163.954223 62.963239 
L 165.040024 63.386554 
L 166.125825 62.657511 
L 167.211627 63.022033 
L 168.297428 62.434095 
L 169.383229 62.251835 
L 170.46903 61.887313 
L 171.554831 61.975504 
L 172.640632 61.681535 
L 173.726434 62.122488 
L 175.898036 61.193547 
L 178.069638 60.582093 
L 179.155439 60.911337 
L 180.24124 60.393953 
L 181.327042 60.123501 
L 182.412843 60.199933 
L 183.498644 59.241595 
L 184.584445 59.400338 
L 185.670246 58.941747 
L 186.756047 59.118129 
L 187.841849 58.506674 
L 188.92765 58.183308 
L 190.013451 58.306775 
L 192.185053 58.253861 
L 193.270854 57.665923 
L 194.356656 57.454266 
L 195.442457 57.554215 
L 196.528258 57.389593 
L 199.785661 56.548842 
L 200.871462 56.348944 
L 201.957264 56.278391 
L 203.043065 55.831559 
L 205.214667 55.784524 
L 206.300468 55.302415 
L 207.386269 55.590504 
L 209.557872 54.890859 
L 211.729474 55.031964 
L 212.815275 54.808548 
L 216.072679 54.808548 
L 217.15848 54.614528 
L 218.244281 54.238249 
L 219.330082 54.432268 
L 220.415883 54.449906 
L 221.501684 54.214731 
L 222.587486 54.50282 
L 224.759088 54.267645 
L 225.844889 65.062175 
L 226.93069 67.08468 
L 229.102292 65.979357 
L 230.188094 66.091066 
L 231.273895 66.04991 
L 232.359696 65.714786 
L 233.445497 65.11509 
L 234.531298 64.909311 
L 235.617099 65.256194 
L 236.702901 64.838759 
L 238.874503 63.815748 
L 239.960304 64.36253 
L 242.131906 63.727557 
L 243.217708 63.815748 
L 244.303509 63.662884 
L 245.38931 63.351277 
L 246.475111 63.304242 
L 248.646713 63.557056 
L 249.732514 63.057309 
L 250.818316 62.992636 
L 251.904117 63.257208 
L 252.989918 63.063188 
L 254.075719 62.58108 
L 255.16152 62.780978 
L 257.333123 62.880928 
L 258.418924 62.128368 
L 259.504725 62.140127 
L 260.590526 62.29887 
L 261.676327 62.751581 
L 262.762128 62.539924 
L 264.933731 61.840278 
L 266.019532 62.193041 
L 267.105333 62.040177 
L 268.191134 62.051936 
L 269.276935 62.328266 
L 270.362736 61.82852 
L 271.448538 62.334146 
L 272.534339 61.699174 
L 273.62014 61.899072 
L 274.705941 61.458119 
L 275.791742 61.799123 
L 277.963344 60.952493 
L 280.134947 61.44636 
L 281.220748 60.976011 
L 283.39235 60.876061 
L 284.478151 60.129381 
L 285.563953 60.658524 
L 286.649754 60.69968 
L 287.735555 60.599731 
L 288.821356 59.911844 
L 289.907157 60.946614 
L 290.992958 60.199933 
L 293.164561 60.22933 
L 294.250362 59.782498 
L 295.336163 59.800136 
L 296.421964 60.058828 
L 297.507765 60.04119 
L 298.593566 59.376821 
L 299.679368 60.070587 
L 300.765169 59.905965 
L 301.85097 59.223957 
L 304.022572 59.112249 
L 305.108373 59.335665 
L 306.194175 59.270992 
L 307.279976 59.376821 
L 308.365777 58.841798 
L 309.451578 59.024059 
L 310.537379 58.741849 
L 312.708981 58.483156 
L 313.794783 58.688934 
L 314.880584 57.830546 
L 317.052186 58.124514 
L 318.137987 58.342051 
L 319.223788 57.79527 
L 320.30959 57.989289 
L 321.395391 57.765873 
L 323.566993 57.901098 
L 324.652794 57.454266 
L 325.738595 57.366075 
L 326.824396 57.483663 
L 327.910198 57.22497 
L 328.995999 56.813414 
L 330.0818 56.936881 
L 332.253402 56.531204 
L 333.339203 56.895725 
L 335.510806 56.172562 
L 337.682408 56.266632 
L 338.768209 56.049096 
L 339.85401 56.19608 
L 340.939811 56.172562 
L 342.025613 56.002061 
L 343.111414 55.666936 
L 344.197215 55.655178 
L 345.283016 55.361209 
L 346.368817 55.478796 
L 347.454618 55.402365 
L 348.54042 55.496435 
L 349.626221 54.832065 
L 350.712022 55.055481 
L 351.797823 54.685081 
L 352.883624 54.861462 
L 353.969425 54.849703 
L 355.055227 54.461665 
L 356.141028 54.40875 
L 357.226829 54.214731 
L 358.31263 54.297042 
L 359.398431 54.03835 
L 360.484232 54.279404 
L 361.570033 53.926642 
L 362.655835 54.12654 
L 363.741636 53.791416 
L 364.827437 53.767899 
L 365.913238 53.568 
L 366.999039 53.650311 
L 368.08484 53.579759 
L 370.256443 54.543976 
L 371.342244 54.396992 
L 372.428045 54.932015 
L 373.513846 54.79091 
L 374.599647 54.943773 
L 375.685448 55.243621 
L 378.942852 55.108396 
L 380.028653 55.431761 
L 381.114454 55.202466 
L 382.200255 55.143672 
L 384.371858 55.202466 
L 386.54346 54.849703 
L 387.629261 55.237742 
L 389.800863 55.043723 
L 391.972466 55.214225 
L 393.058267 55.555228 
L 395.229869 55.061361 
L 398.487273 55.308295 
L 398.487273 55.308295 
" clip-path="url(#pf4b6e19f2e)" style="fill: none; stroke: #1f77b4; stroke-width: 1.5; stroke-linecap: square"/>
   </g>
   <g id="line2d_17">
    <path d="M 73.832727 289.066305 
L 74.918528 247.35215 
L 76.00433 231.595429 
L 78.175932 204.462121 
L 79.261733 197.52446 
L 80.347534 193.144327 
L 81.433335 184.85441 
L 82.519137 180.650658 
L 83.604938 175.09465 
L 84.690739 166.481368 
L 85.77654 167.039908 
L 86.862341 162.218822 
L 89.033943 153.664334 
L 90.119745 150.754044 
L 91.205546 146.579689 
L 92.291347 147.461595 
L 93.377148 144.257336 
L 94.462949 144.080955 
L 95.54875 174.271538 
L 96.634552 173.977569 
L 97.720353 168.127592 
L 98.806154 165.775843 
L 99.891955 171.655216 
L 100.977756 160.601994 
L 102.063557 157.162561 
L 103.149358 161.542694 
L 105.320961 153.811318 
L 107.492563 160.690185 
L 108.578364 151.488965 
L 109.664165 154.428652 
L 110.749967 153.458556 
L 111.835768 150.842234 
L 112.921569 146.138736 
L 114.00737 143.37543 
L 115.093171 144.286733 
L 116.178972 139.201075 
L 117.264773 143.816383 
L 118.350575 142.493524 
L 119.436376 138.760122 
L 120.522177 137.848819 
L 121.607978 135.820435 
L 122.693779 135.291291 
L 123.77958 132.910145 
L 124.865382 132.763161 
L 125.951183 131.851858 
L 127.036984 129.76468 
L 128.122785 128.882774 
L 129.208586 128.618203 
L 130.294387 127.089565 
L 131.380189 126.678009 
L 132.46599 126.619216 
L 134.637592 124.620229 
L 135.723393 124.943594 
L 136.809194 124.561435 
L 137.894995 123.650132 
L 138.980797 154.54624 
L 140.066598 155.369352 
L 141.152399 152.66484 
L 142.2382 152.606046 
L 143.324001 148.931438 
L 144.409802 150.077916 
L 145.495604 149.372391 
L 146.581405 149.019629 
L 147.667206 150.989219 
L 148.753007 147.373404 
L 149.838808 148.755057 
L 150.924609 144.374923 
L 152.01041 145.374417 
L 153.096212 148.314104 
L 154.182013 143.93397 
L 155.267814 144.87467 
L 156.353615 146.873657 
L 157.439416 144.815877 
L 158.525217 145.198036 
L 159.611019 144.022161 
L 160.69682 144.139749 
L 161.782621 142.111365 
L 162.868422 141.611618 
L 163.954223 139.9066 
L 165.040024 144.257336 
L 166.125825 139.583234 
L 167.211627 140.171171 
L 168.297428 143.287239 
L 169.383229 140.670918 
L 170.46903 139.612631 
L 171.554831 140.024187 
L 172.640632 137.584247 
L 173.726434 142.758096 
L 174.812235 138.701328 
L 175.898036 135.908626 
L 176.983837 136.966913 
L 178.069638 135.49707 
L 179.155439 135.702848 
L 180.24124 133.498083 
L 181.327042 137.672438 
L 182.412843 134.350592 
L 183.498644 135.379482 
L 184.584445 130.293824 
L 185.670246 130.470205 
L 186.756047 128.970965 
L 187.841849 130.382015 
L 188.92765 128.765187 
L 190.013451 128.000868 
L 191.099252 126.942581 
L 192.185053 127.030772 
L 193.270854 126.060675 
L 194.356656 125.649119 
L 195.442457 126.119469 
L 196.528258 123.650132 
L 197.614059 123.650132 
L 198.69986 121.798129 
L 199.785661 120.828033 
L 200.871462 120.240095 
L 201.957264 121.856923 
L 203.043065 119.034824 
L 204.128866 118.740855 
L 205.214667 120.38708 
L 206.300468 119.44638 
L 207.386269 118.211711 
L 208.472071 116.330312 
L 209.557872 117.241615 
L 210.643673 117.653171 
L 211.729474 116.918249 
L 213.901076 116.389106 
L 214.986877 115.712978 
L 216.072679 114.860469 
L 217.15848 114.948659 
L 218.244281 115.154437 
L 219.330082 114.037356 
L 220.415883 114.860469 
L 221.501684 114.713484 
L 222.587486 114.331325 
L 223.673287 114.625294 
L 224.759088 114.301928 
L 225.844889 158.838182 
L 229.102292 145.139242 
L 230.188094 148.519882 
L 231.273895 148.431691 
L 232.359696 150.313091 
L 233.445497 143.640002 
L 234.531298 145.286226 
L 235.617099 143.904574 
L 236.702901 142.228952 
L 237.788702 144.845273 
L 238.874503 141.758602 
L 239.960304 142.405333 
L 241.046105 147.873151 
L 242.131906 147.255817 
L 243.217708 141.699809 
L 244.303509 143.316636 
L 246.475111 140.112378 
L 247.560912 142.170158 
L 248.646713 145.962354 
L 249.732514 138.348566 
L 251.904117 141.582221 
L 252.989918 138.436756 
L 254.075719 136.790532 
L 255.16152 140.788506 
L 256.247321 141.141268 
L 258.418924 138.348566 
L 259.504725 141.611618 
L 260.590526 139.024694 
L 261.676327 144.87467 
L 262.762128 141.611618 
L 263.847929 142.758096 
L 264.933731 139.43625 
L 266.019532 141.523427 
L 267.105333 140.670918 
L 268.191134 140.700315 
L 269.276935 139.142281 
L 270.362736 140.759109 
L 271.448538 137.290278 
L 273.62014 135.996816 
L 274.705941 137.701835 
L 275.791742 136.143801 
L 276.877543 141.082474 
L 277.963344 136.584754 
L 279.049146 137.172691 
L 280.134947 143.728192 
L 281.220748 136.290785 
L 282.306549 133.115923 
L 283.39235 133.233511 
L 284.478151 137.584247 
L 285.563953 133.233511 
L 286.649754 132.792558 
L 287.735555 135.967419 
L 288.821356 135.467673 
L 289.907157 131.587286 
L 290.992958 134.850338 
L 292.07876 132.733764 
L 293.164561 131.910652 
L 294.250362 132.527986 
L 295.336163 134.497576 
L 296.421964 134.64456 
L 297.507765 134.350592 
L 298.593566 133.027733 
L 299.679368 134.938529 
L 300.765169 129.882268 
L 301.85097 130.088046 
L 302.936771 129.176743 
L 304.022572 133.351098 
L 305.108373 127.354137 
L 306.194175 133.909639 
L 307.279976 131.822461 
L 308.365777 128.236043 
L 309.451578 131.793064 
L 310.537379 129.67649 
L 311.62318 130.205633 
L 312.708981 129.794077 
L 313.794783 127.295344 
L 314.880584 125.943088 
L 315.966385 131.734271 
L 317.052186 128.089059 
L 318.137987 126.29585 
L 319.223788 126.648612 
L 320.30959 127.177756 
L 321.395391 126.001881 
L 322.481192 125.766706 
L 323.566993 126.354644 
L 324.652794 124.502641 
L 325.738595 125.35515 
L 326.824396 124.296863 
L 327.910198 125.208166 
L 328.995999 121.268986 
L 330.0818 123.503148 
L 331.167601 124.620229 
L 333.339203 121.327779 
L 334.425005 123.826513 
L 335.510806 122.474257 
L 336.596607 121.357176 
L 337.682408 120.828033 
L 338.768209 120.622255 
L 339.85401 119.91673 
L 340.939811 123.003401 
L 342.025613 119.799142 
L 343.111414 119.416983 
L 344.197215 119.91673 
L 345.283016 120.269492 
L 346.368817 117.800155 
L 347.454618 118.005933 
L 348.54042 117.388599 
L 349.626221 116.477296 
L 350.712022 116.947646 
L 351.797823 116.830059 
L 352.883624 115.771771 
L 353.969425 117.741362 
L 355.055227 117.035837 
L 356.141028 116.918249 
L 357.226829 116.095137 
L 358.31263 116.330312 
L 359.398431 116.800662 
L 360.484232 115.242628 
L 361.570033 114.419516 
L 362.655835 113.243641 
L 363.741636 113.420022 
L 364.827437 113.361228 
L 365.913238 113.890372 
L 366.999039 113.037863 
L 368.08484 113.096657 
L 369.170642 114.625294 
L 370.256443 116.712471 
L 371.342244 116.53609 
L 372.428045 121.151398 
L 373.513846 118.152918 
L 374.599647 118.329299 
L 375.685448 118.03533 
L 376.77125 118.211711 
L 377.857051 122.033304 
L 378.942852 119.505174 
L 380.028653 119.946127 
L 381.114454 119.946127 
L 382.200255 119.299396 
L 383.286057 118.476283 
L 384.371858 119.328792 
L 385.457659 118.887839 
L 386.54346 120.063714 
L 387.629261 119.123014 
L 388.715062 119.710952 
L 389.800863 120.47527 
L 390.886665 119.652158 
L 391.972466 120.269492 
L 393.058267 118.770252 
L 394.144068 119.534571 
L 395.229869 119.593364 
L 396.31567 120.592858 
L 397.401472 121.210192 
L 398.487273 117.888346 
L 398.487273 117.888346 
" clip-path="url(#pf4b6e19f2e)" style="fill: none; stroke: #ff7f0e; stroke-width: 1.5; stroke-linecap: square"/>
   </g>
   <g id="line2d_18">
    <path d="M 73.832727 295.488 
L 74.918528 278.985207 
L 76.00433 280.526008 
L 77.090131 269.497114 
L 78.175932 256.075924 
L 79.261733 259.948201 
L 80.347534 254.474302 
L 81.433335 259.299443 
L 82.519137 249.466697 
L 83.604938 241.580227 
L 84.690739 237.890414 
L 85.77654 238.133698 
L 86.862341 236.653718 
L 87.948142 233.937042 
L 89.033943 233.288283 
L 90.119745 227.429183 
L 91.205546 225.259897 
L 92.291347 227.40891 
L 93.377148 226.293856 
L 94.462949 226.091119 
L 95.54875 245.797157 
L 96.634552 243.465681 
L 97.720353 241.884333 
L 98.806154 251.29133 
L 99.891955 241.661322 
L 100.977756 246.729747 
L 102.063557 237.971508 
L 103.149358 241.580227 
L 104.23516 235.984686 
L 105.320961 235.396748 
L 106.406762 244.580735 
L 107.492563 239.694773 
L 108.578364 230.024217 
L 109.664165 231.990766 
L 110.749967 232.659799 
L 111.835768 230.551334 
L 112.921569 234.342516 
L 114.00737 228.402321 
L 115.093171 236.93755 
L 116.178972 227.327815 
L 117.264773 226.293856 
L 118.350575 233.004451 
L 119.436376 223.070338 
L 120.522177 222.340484 
L 121.607978 223.556906 
L 122.693779 219.076418 
L 123.77958 224.144844 
L 124.865382 216.643574 
L 125.951183 220.110377 
L 127.036984 220.718588 
L 128.122785 215.508247 
L 129.208586 223.374443 
L 130.294387 215.163594 
L 131.380189 216.197553 
L 132.46599 216.157005 
L 133.551791 217.33288 
L 134.637592 217.88027 
L 135.723393 216.907132 
L 136.809194 215.771805 
L 137.894995 214.879762 
L 138.980797 243.648145 
L 140.066598 227.287268 
L 141.152399 243.121029 
L 142.2382 241.357217 
L 143.324001 231.950219 
L 144.409802 232.598977 
L 145.495604 231.037902 
L 146.581405 231.585292 
L 147.667206 234.524979 
L 148.753007 234.504705 
L 149.838808 229.578196 
L 150.924609 233.328831 
L 152.01041 230.956808 
L 153.096212 237.302476 
L 154.182013 230.145859 
L 155.267814 236.93755 
L 156.353615 231.686661 
L 157.439416 227.064257 
L 158.525217 234.261421 
L 159.611019 230.551334 
L 160.69682 229.922849 
L 161.782621 230.895986 
L 162.868422 229.05108 
L 163.954223 228.422595 
L 165.040024 225.361266 
L 166.125825 226.212761 
L 167.211627 230.855439 
L 168.297428 229.456554 
L 169.383229 222.624316 
L 170.46903 231.159545 
L 171.554831 227.185899 
L 172.640632 220.982146 
L 173.726434 223.110885 
L 174.812235 216.035363 
L 175.898036 224.894971 
L 176.983837 227.40891 
L 178.069638 219.035871 
L 179.155439 219.319703 
L 180.24124 218.123554 
L 181.327042 228.7267 
L 182.412843 220.414483 
L 183.498644 222.360758 
L 184.584445 220.414483 
L 185.670246 215.650163 
L 186.756047 223.394717 
L 187.841849 221.022694 
L 188.92765 216.055637 
L 190.013451 212.649655 
L 191.099252 211.331864 
L 192.185053 213.156497 
L 193.270854 211.007485 
L 194.356656 218.670944 
L 195.442457 218.346565 
L 196.528258 208.980115 
L 197.614059 212.751023 
L 198.69986 212.264455 
L 199.785661 214.798667 
L 200.871462 207.925882 
L 201.957264 213.886351 
L 203.043065 214.007993 
L 204.128866 209.345042 
L 205.214667 207.763693 
L 206.300468 208.919294 
L 207.386269 211.068306 
L 208.472071 205.716049 
L 209.557872 206.70946 
L 210.643673 208.797652 
L 211.729474 209.932979 
L 212.815275 207.58123 
L 213.901076 206.48645 
L 214.986877 206.628366 
L 216.072679 205.209206 
L 218.244281 205.634954 
L 219.330082 205.249754 
L 220.415883 205.168659 
L 221.501684 205.695775 
L 222.587486 205.918786 
L 223.673287 204.84428 
L 224.759088 204.824006 
L 225.844889 237.363297 
L 226.93069 234.342516 
L 228.016491 228.3415 
L 229.102292 229.841754 
L 230.188094 235.437296 
L 231.273895 235.112916 
L 232.359696 236.998371 
L 233.445497 219.684629 
L 234.531298 235.092643 
L 235.617099 224.307033 
L 236.702901 226.841246 
L 237.788702 232.619251 
L 238.874503 233.186915 
L 239.960304 232.01104 
L 241.046105 225.077434 
L 242.131906 228.88889 
L 243.217708 224.489497 
L 244.303509 226.902067 
L 245.38931 228.50369 
L 246.475111 229.497101 
L 247.560912 225.60455 
L 248.646713 225.401813 
L 249.732514 226.172214 
L 250.818316 218.853408 
L 251.904117 231.909672 
L 252.989918 224.144844 
L 254.075719 225.117981 
L 255.16152 230.855439 
L 256.247321 224.266486 
L 257.333123 223.759643 
L 258.418924 220.596946 
L 259.504725 224.104296 
L 260.590526 218.387113 
L 261.676327 234.342516 
L 262.762128 229.43628 
L 263.847929 229.578196 
L 264.933731 225.280171 
L 266.019532 233.186915 
L 267.105333 222.4824 
L 268.191134 234.261421 
L 269.276935 216.562479 
L 270.362736 216.684122 
L 271.448538 229.639017 
L 272.534339 222.847327 
L 273.62014 221.853916 
L 274.705941 223.435264 
L 275.791742 218.346565 
L 276.877543 217.819449 
L 277.963344 222.908148 
L 279.049146 225.645098 
L 280.134947 225.239624 
L 281.220748 220.150925 
L 282.306549 227.185899 
L 283.39235 217.799175 
L 284.478151 221.833642 
L 285.563953 213.805256 
L 286.649754 224.570592 
L 287.735555 227.125078 
L 289.907157 216.481385 
L 290.992958 219.035871 
L 292.07876 218.143828 
L 293.164561 228.037395 
L 294.250362 226.15194 
L 295.336163 224.83415 
L 296.421964 215.406878 
L 297.507765 224.773329 
L 298.593566 219.603535 
L 299.679368 219.542714 
L 300.765169 215.994816 
L 301.85097 218.610123 
L 302.936771 213.440329 
L 304.022572 219.116966 
L 305.108373 205.432217 
L 306.194175 219.745451 
L 307.279976 214.04854 
L 308.365777 217.109869 
L 309.451578 214.231004 
L 310.537379 211.818433 
L 311.62318 223.719096 
L 312.708981 217.961365 
L 313.794783 213.318687 
L 314.880584 218.285744 
L 315.966385 222.441853 
L 317.052186 222.158021 
L 318.137987 219.137239 
L 319.223788 215.548794 
L 320.30959 221.691726 
L 321.395391 214.21073 
L 322.481192 215.670436 
L 323.566993 210.520916 
L 324.652794 216.177279 
L 325.738595 211.656244 
L 326.824396 219.096692 
L 327.910198 207.540682 
L 328.995999 216.603027 
L 330.0818 209.689695 
L 331.167601 212.487465 
L 332.253402 219.258882 
L 333.339203 212.811845 
L 334.425005 213.095676 
L 335.510806 205.77687 
L 336.596607 215.183868 
L 337.682408 205.128112 
L 338.768209 213.176771 
L 339.85401 209.385589 
L 340.939811 219.380524 
L 342.025613 215.792079 
L 343.111414 212.852392 
L 344.197215 213.318687 
L 345.283016 213.521424 
L 346.368817 210.622285 
L 347.454618 215.873174 
L 348.54042 208.817925 
L 349.626221 211.08858 
L 350.712022 210.318179 
L 351.797823 208.939568 
L 352.883624 210.176263 
L 353.969425 208.757104 
L 355.055227 208.067798 
L 356.141028 209.263947 
L 357.226829 204.621269 
L 358.31263 208.311083 
L 359.398431 207.662324 
L 360.484232 207.155482 
L 361.570033 206.993292 
L 362.655835 205.675502 
L 363.741636 207.601503 
L 364.827437 207.25685 
L 365.913238 209.324768 
L 366.999039 206.243165 
L 368.08484 205.898512 
L 369.170642 205.817417 
L 370.256443 206.993292 
L 371.342244 213.318687 
L 372.428045 213.541698 
L 373.513846 213.095676 
L 374.599647 214.737846 
L 375.685448 206.912197 
L 376.77125 214.859488 
L 377.857051 214.92031 
L 378.942852 210.257358 
L 380.028653 214.981131 
L 381.114454 212.244181 
L 382.200255 213.11595 
L 383.286057 211.879254 
L 384.371858 214.149909 
L 385.457659 213.805256 
L 386.54346 210.257358 
L 387.629261 213.541698 
L 388.715062 212.710476 
L 389.800863 214.352646 
L 390.886665 217.839723 
L 391.972466 215.893447 
L 393.058267 210.622285 
L 394.144068 209.912705 
L 395.229869 213.886351 
L 396.31567 211.311591 
L 397.401472 209.953253 
L 398.487273 209.953253 
L 398.487273 209.953253 
" clip-path="url(#pf4b6e19f2e)" style="fill: none; stroke: #2ca02c; stroke-width: 1.5; stroke-linecap: square"/>
   </g>
   <g id="line2d_19">
    <path d="M 368.08484 112.302941 
L 369.170642 113.567006 
L 370.256443 113.567006 
L 371.342244 114.09615 
L 373.513846 116.153931 
L 374.599647 115.712978 
L 376.77125 117.124027 
L 378.942852 116.771265 
L 380.028653 118.03533 
L 381.114454 115.007453 
L 382.200255 116.095137 
L 383.286057 118.005933 
L 384.371858 116.271518 
L 385.457659 115.801168 
L 386.54346 118.682061 
L 387.629261 116.271518 
L 388.715062 120.504667 
L 389.800863 119.269999 
L 390.886665 119.475777 
L 391.972466 117.241615 
L 393.058267 115.330818 
L 394.144068 116.124534 
L 395.229869 115.654184 
L 396.31567 113.949166 
L 397.401472 118.005933 
L 398.487273 116.447899 
L 398.487273 116.447899 
" clip-path="url(#pf4b6e19f2e)" style="fill: none; stroke: #d62728; stroke-width: 1.5; stroke-linecap: square"/>
   </g>
   <g id="line2d_20">
    <path d="M 368.08484 204.560448 
L 369.170642 205.594407 
L 370.256443 206.364807 
L 371.342244 206.121523 
L 372.428045 206.810829 
L 374.599647 209.000389 
L 375.685448 207.946156 
L 376.77125 212.913213 
L 377.857051 212.244181 
L 378.942852 216.339469 
L 380.028653 213.27814 
L 381.114454 212.690202 
L 382.200255 211.230496 
L 383.286057 217.211238 
L 384.371858 212.081991 
L 385.457659 210.70338 
L 386.54346 212.406371 
L 387.629261 207.358219 
L 388.715062 209.142305 
L 389.800863 205.716049 
L 390.886665 208.189441 
L 391.972466 204.317164 
L 393.058267 208.371904 
L 394.144068 206.567544 
L 395.229869 206.587818 
L 396.31567 208.412451 
L 397.401472 212.325276 
L 398.487273 207.175755 
L 398.487273 207.175755 
" clip-path="url(#pf4b6e19f2e)" style="fill: none; stroke: #9467bd; stroke-width: 1.5; stroke-linecap: square"/>
   </g>
   <g id="patch_3">
    <path d="M 57.6 307.584 
L 57.6 41.472 
" style="fill: none; stroke: #000000; stroke-width: 0.8; stroke-linejoin: miter; stroke-linecap: square"/>
   </g>
   <g id="patch_4">
    <path d="M 414.72 307.584 
L 414.72 41.472 
" style="fill: none; stroke: #000000; stroke-width: 0.8; stroke-linejoin: miter; stroke-linecap: square"/>
   </g>
   <g id="patch_5">
    <path d="M 57.6 307.584 
L 414.72 307.584 
" style="fill: none; stroke: #000000; stroke-width: 0.8; stroke-linejoin: miter; stroke-linecap: square"/>
   </g>
   <g id="patch_6">
    <path d="M 57.6 41.472 
L 414.72 41.472 
" style="fill: none; stroke: #000000; stroke-width: 0.8; stroke-linejoin: miter; stroke-linecap: square"/>
   </g>
   <g id="text_18">
    <!-- Learning Curves -->
    <g transform="translate(187.37625 35.472) scale(0.12 -0.12)">
     <defs>
      <path id="DejaVuSans-4c" d="M 628 4666 
L 1259 4666 
L 1259 531 
L 3531 531 
L 3531 0 
L 628 0 
L 628 4666 
z
" transform="scale(0.015625)"/>
      <path id="DejaVuSans-65" d="M 3597 1894 
L 3597 1613 
L 953 1613 
Q 991 1019 1311 708 
Q 1631 397 2203 397 
Q 2534 397 2845 478 
Q 3156 559 3463 722 
L 3463 178 
Q 3153 47 2828 -22 
Q 2503 -91 2169 -91 
Q 1331 -91 842 396 
Q 353 884 353 1716 
Q 353 2575 817 3079 
Q 1281 3584 2069 3584 
Q 2775 3584 3186 3129 
Q 3597 2675 3597 1894 
z
M 3022 2063 
Q 3016 2534 2758 2815 
Q 2500 3097 2075 3097 
Q 1594 3097 1305 2825 
Q 1016 2553 972 2059 
L 3022 2063 
z
" transform="scale(0.015625)"/>
      <path id="DejaVuSans-6e" d="M 3513 2113 
L 3513 0 
L 2938 0 
L 2938 2094 
Q 2938 2591 2744 2837 
Q 2550 3084 2163 3084 
Q 1697 3084 1428 2787 
Q 1159 2491 1159 1978 
L 1159 0 
L 581 0 
L 581 3500 
L 1159 3500 
L 1159 2956 
Q 1366 3272 1645 3428 
Q 1925 3584 2291 3584 
Q 2894 3584 3203 3211 
Q 3513 2838 3513 2113 
z
" transform="scale(0.015625)"/>
      <path id="DejaVuSans-69" d="M 603 3500 
L 1178 3500 
L 1178 0 
L 603 0 
L 603 3500 
z
M 603 4863 
L 1178 4863 
L 1178 4134 
L 603 4134 
L 603 4863 
z
" transform="scale(0.015625)"/>
      <path id="DejaVuSans-67" d="M 2906 1791 
Q 2906 2416 2648 2759 
Q 2391 3103 1925 3103 
Q 1463 3103 1205 2759 
Q 947 2416 947 1791 
Q 947 1169 1205 825 
Q 1463 481 1925 481 
Q 2391 481 2648 825 
Q 2906 1169 2906 1791 
z
M 3481 434 
Q 3481 -459 3084 -895 
Q 2688 -1331 1869 -1331 
Q 1566 -1331 1297 -1286 
Q 1028 -1241 775 -1147 
L 775 -588 
Q 1028 -725 1275 -790 
Q 1522 -856 1778 -856 
Q 2344 -856 2625 -561 
Q 2906 -266 2906 331 
L 2906 616 
Q 2728 306 2450 153 
Q 2172 0 1784 0 
Q 1141 0 747 490 
Q 353 981 353 1791 
Q 353 2603 747 3093 
Q 1141 3584 1784 3584 
Q 2172 3584 2450 3431 
Q 2728 3278 2906 2969 
L 2906 3500 
L 3481 3500 
L 3481 434 
z
" transform="scale(0.015625)"/>
      <path id="DejaVuSans-20" transform="scale(0.015625)"/>
      <path id="DejaVuSans-43" d="M 4122 4306 
L 4122 3641 
Q 3803 3938 3442 4084 
Q 3081 4231 2675 4231 
Q 1875 4231 1450 3742 
Q 1025 3253 1025 2328 
Q 1025 1406 1450 917 
Q 1875 428 2675 428 
Q 3081 428 3442 575 
Q 3803 722 4122 1019 
L 4122 359 
Q 3791 134 3420 21 
Q 3050 -91 2638 -91 
Q 1578 -91 968 557 
Q 359 1206 359 2328 
Q 359 3453 968 4101 
Q 1578 4750 2638 4750 
Q 3056 4750 3426 4639 
Q 3797 4528 4122 4306 
z
" transform="scale(0.015625)"/>
      <path id="DejaVuSans-76" d="M 191 3500 
L 800 3500 
L 1894 563 
L 2988 3500 
L 3597 3500 
L 2284 0 
L 1503 0 
L 191 3500 
z
" transform="scale(0.015625)"/>
     </defs>
     <use xlink:href="#DejaVuSans-4c"/>
     <use xlink:href="#DejaVuSans-65" x="53.962891"/>
     <use xlink:href="#DejaVuSans-61" x="115.486328"/>
     <use xlink:href="#DejaVuSans-72" x="176.765625"/>
     <use xlink:href="#DejaVuSans-6e" x="216.128906"/>
     <use xlink:href="#DejaVuSans-69" x="279.507812"/>
     <use xlink:href="#DejaVuSans-6e" x="307.291016"/>
     <use xlink:href="#DejaVuSans-67" x="370.669922"/>
     <use xlink:href="#DejaVuSans-20" x="434.146484"/>
     <use xlink:href="#DejaVuSans-43" x="465.933594"/>
     <use xlink:href="#DejaVuSans-75" x="535.757812"/>
     <use xlink:href="#DejaVuSans-72" x="599.136719"/>
     <use xlink:href="#DejaVuSans-76" x="640.25"/>
     <use xlink:href="#DejaVuSans-65" x="699.429688"/>
     <use xlink:href="#DejaVuSans-73" x="760.953125"/>
    </g>
   </g>
   <g id="legend_1">
    <g id="patch_7">
     <path d="M 214.18875 302.584 
L 407.72 302.584 
Q 409.72 302.584 409.72 300.584 
L 409.72 228.193375 
Q 409.72 226.193375 407.72 226.193375 
L 214.18875 226.193375 
Q 212.18875 226.193375 212.18875 228.193375 
L 212.18875 300.584 
Q 212.18875 302.584 214.18875 302.584 
z
" style="fill: #ffffff; opacity: 0.8; stroke: #cccccc; stroke-linejoin: miter"/>
    </g>
    <g id="line2d_21">
     <path d="M 216.18875 234.291812 
L 226.18875 234.291812 
L 236.18875 234.291812 
" style="fill: none; stroke: #1f77b4; stroke-width: 1.5; stroke-linecap: square"/>
    </g>
    <g id="text_19">
     <!-- Train Accuracy -->
     <g transform="translate(244.18875 237.791812) scale(0.1 -0.1)">
      <defs>
       <path id="DejaVuSans-54" d="M -19 4666 
L 3928 4666 
L 3928 4134 
L 2272 4134 
L 2272 0 
L 1638 0 
L 1638 4134 
L -19 4134 
L -19 4666 
z
" transform="scale(0.015625)"/>
      </defs>
      <use xlink:href="#DejaVuSans-54"/>
      <use xlink:href="#DejaVuSans-72" x="46.333984"/>
      <use xlink:href="#DejaVuSans-61" x="87.447266"/>
      <use xlink:href="#DejaVuSans-69" x="148.726562"/>
      <use xlink:href="#DejaVuSans-6e" x="176.509766"/>
      <use xlink:href="#DejaVuSans-20" x="239.888672"/>
      <use xlink:href="#DejaVuSans-41" x="271.675781"/>
      <use xlink:href="#DejaVuSans-63" x="338.333984"/>
      <use xlink:href="#DejaVuSans-63" x="393.314453"/>
      <use xlink:href="#DejaVuSans-75" x="448.294922"/>
      <use xlink:href="#DejaVuSans-72" x="511.673828"/>
      <use xlink:href="#DejaVuSans-61" x="552.787109"/>
      <use xlink:href="#DejaVuSans-63" x="614.066406"/>
      <use xlink:href="#DejaVuSans-79" x="669.046875"/>
     </g>
    </g>
    <g id="line2d_22">
     <path d="M 216.18875 248.969937 
L 226.18875 248.969937 
L 236.18875 248.969937 
" style="fill: none; stroke: #ff7f0e; stroke-width: 1.5; stroke-linecap: square"/>
    </g>
    <g id="text_20">
     <!-- Validation Accuracy -->
     <g transform="translate(244.18875 252.469937) scale(0.1 -0.1)">
      <defs>
       <path id="DejaVuSans-56" d="M 1831 0 
L 50 4666 
L 709 4666 
L 2188 738 
L 3669 4666 
L 4325 4666 
L 2547 0 
L 1831 0 
z
" transform="scale(0.015625)"/>
       <path id="DejaVuSans-6c" d="M 603 4863 
L 1178 4863 
L 1178 0 
L 603 0 
L 603 4863 
z
" transform="scale(0.015625)"/>
       <path id="DejaVuSans-64" d="M 2906 2969 
L 2906 4863 
L 3481 4863 
L 3481 0 
L 2906 0 
L 2906 525 
Q 2725 213 2448 61 
Q 2172 -91 1784 -91 
Q 1150 -91 751 415 
Q 353 922 353 1747 
Q 353 2572 751 3078 
Q 1150 3584 1784 3584 
Q 2172 3584 2448 3432 
Q 2725 3281 2906 2969 
z
M 947 1747 
Q 947 1113 1208 752 
Q 1469 391 1925 391 
Q 2381 391 2643 752 
Q 2906 1113 2906 1747 
Q 2906 2381 2643 2742 
Q 2381 3103 1925 3103 
Q 1469 3103 1208 2742 
Q 947 2381 947 1747 
z
" transform="scale(0.015625)"/>
       <path id="DejaVuSans-74" d="M 1172 4494 
L 1172 3500 
L 2356 3500 
L 2356 3053 
L 1172 3053 
L 1172 1153 
Q 1172 725 1289 603 
Q 1406 481 1766 481 
L 2356 481 
L 2356 0 
L 1766 0 
Q 1100 0 847 248 
Q 594 497 594 1153 
L 594 3053 
L 172 3053 
L 172 3500 
L 594 3500 
L 594 4494 
L 1172 4494 
z
" transform="scale(0.015625)"/>
      </defs>
      <use xlink:href="#DejaVuSans-56"/>
      <use xlink:href="#DejaVuSans-61" x="60.658203"/>
      <use xlink:href="#DejaVuSans-6c" x="121.9375"/>
      <use xlink:href="#DejaVuSans-69" x="149.720703"/>
      <use xlink:href="#DejaVuSans-64" x="177.503906"/>
      <use xlink:href="#DejaVuSans-61" x="240.980469"/>
      <use xlink:href="#DejaVuSans-74" x="302.259766"/>
      <use xlink:href="#DejaVuSans-69" x="341.46875"/>
      <use xlink:href="#DejaVuSans-6f" x="369.251953"/>
      <use xlink:href="#DejaVuSans-6e" x="430.433594"/>
      <use xlink:href="#DejaVuSans-20" x="493.8125"/>
      <use xlink:href="#DejaVuSans-41" x="525.599609"/>
      <use xlink:href="#DejaVuSans-63" x="592.257812"/>
      <use xlink:href="#DejaVuSans-63" x="647.238281"/>
      <use xlink:href="#DejaVuSans-75" x="702.21875"/>
      <use xlink:href="#DejaVuSans-72" x="765.597656"/>
      <use xlink:href="#DejaVuSans-61" x="806.710938"/>
      <use xlink:href="#DejaVuSans-63" x="867.990234"/>
      <use xlink:href="#DejaVuSans-79" x="922.970703"/>
     </g>
    </g>
    <g id="line2d_23">
     <path d="M 216.18875 263.648062 
L 226.18875 263.648062 
L 236.18875 263.648062 
" style="fill: none; stroke: #2ca02c; stroke-width: 1.5; stroke-linecap: square"/>
    </g>
    <g id="text_21">
     <!-- Robust Validation Accuracy -->
     <g transform="translate(244.18875 267.148062) scale(0.1 -0.1)">
      <defs>
       <path id="DejaVuSans-52" d="M 2841 2188 
Q 3044 2119 3236 1894 
Q 3428 1669 3622 1275 
L 4263 0 
L 3584 0 
L 2988 1197 
Q 2756 1666 2539 1819 
Q 2322 1972 1947 1972 
L 1259 1972 
L 1259 0 
L 628 0 
L 628 4666 
L 2053 4666 
Q 2853 4666 3247 4331 
Q 3641 3997 3641 3322 
Q 3641 2881 3436 2590 
Q 3231 2300 2841 2188 
z
M 1259 4147 
L 1259 2491 
L 2053 2491 
Q 2509 2491 2742 2702 
Q 2975 2913 2975 3322 
Q 2975 3731 2742 3939 
Q 2509 4147 2053 4147 
L 1259 4147 
z
" transform="scale(0.015625)"/>
       <path id="DejaVuSans-62" d="M 3116 1747 
Q 3116 2381 2855 2742 
Q 2594 3103 2138 3103 
Q 1681 3103 1420 2742 
Q 1159 2381 1159 1747 
Q 1159 1113 1420 752 
Q 1681 391 2138 391 
Q 2594 391 2855 752 
Q 3116 1113 3116 1747 
z
M 1159 2969 
Q 1341 3281 1617 3432 
Q 1894 3584 2278 3584 
Q 2916 3584 3314 3078 
Q 3713 2572 3713 1747 
Q 3713 922 3314 415 
Q 2916 -91 2278 -91 
Q 1894 -91 1617 61 
Q 1341 213 1159 525 
L 1159 0 
L 581 0 
L 581 4863 
L 1159 4863 
L 1159 2969 
z
" transform="scale(0.015625)"/>
      </defs>
      <use xlink:href="#DejaVuSans-52"/>
      <use xlink:href="#DejaVuSans-6f" x="64.982422"/>
      <use xlink:href="#DejaVuSans-62" x="126.164062"/>
      <use xlink:href="#DejaVuSans-75" x="189.640625"/>
      <use xlink:href="#DejaVuSans-73" x="253.019531"/>
      <use xlink:href="#DejaVuSans-74" x="305.119141"/>
      <use xlink:href="#DejaVuSans-20" x="344.328125"/>
      <use xlink:href="#DejaVuSans-56" x="376.115234"/>
      <use xlink:href="#DejaVuSans-61" x="436.773438"/>
      <use xlink:href="#DejaVuSans-6c" x="498.052734"/>
      <use xlink:href="#DejaVuSans-69" x="525.835938"/>
      <use xlink:href="#DejaVuSans-64" x="553.619141"/>
      <use xlink:href="#DejaVuSans-61" x="617.095703"/>
      <use xlink:href="#DejaVuSans-74" x="678.375"/>
      <use xlink:href="#DejaVuSans-69" x="717.583984"/>
      <use xlink:href="#DejaVuSans-6f" x="745.367188"/>
      <use xlink:href="#DejaVuSans-6e" x="806.548828"/>
      <use xlink:href="#DejaVuSans-20" x="869.927734"/>
      <use xlink:href="#DejaVuSans-41" x="901.714844"/>
      <use xlink:href="#DejaVuSans-63" x="968.373047"/>
      <use xlink:href="#DejaVuSans-63" x="1023.353516"/>
      <use xlink:href="#DejaVuSans-75" x="1078.333984"/>
      <use xlink:href="#DejaVuSans-72" x="1141.712891"/>
      <use xlink:href="#DejaVuSans-61" x="1182.826172"/>
      <use xlink:href="#DejaVuSans-63" x="1244.105469"/>
      <use xlink:href="#DejaVuSans-79" x="1299.085938"/>
     </g>
    </g>
    <g id="line2d_24">
     <path d="M 216.18875 278.326188 
L 226.18875 278.326188 
L 236.18875 278.326188 
" style="fill: none; stroke: #d62728; stroke-width: 1.5; stroke-linecap: square"/>
    </g>
    <g id="text_22">
     <!-- SWA Validation Accuracy -->
     <g transform="translate(244.18875 281.826188) scale(0.1 -0.1)">
      <defs>
       <path id="DejaVuSans-53" d="M 3425 4513 
L 3425 3897 
Q 3066 4069 2747 4153 
Q 2428 4238 2131 4238 
Q 1616 4238 1336 4038 
Q 1056 3838 1056 3469 
Q 1056 3159 1242 3001 
Q 1428 2844 1947 2747 
L 2328 2669 
Q 3034 2534 3370 2195 
Q 3706 1856 3706 1288 
Q 3706 609 3251 259 
Q 2797 -91 1919 -91 
Q 1588 -91 1214 -16 
Q 841 59 441 206 
L 441 856 
Q 825 641 1194 531 
Q 1563 422 1919 422 
Q 2459 422 2753 634 
Q 3047 847 3047 1241 
Q 3047 1584 2836 1778 
Q 2625 1972 2144 2069 
L 1759 2144 
Q 1053 2284 737 2584 
Q 422 2884 422 3419 
Q 422 4038 858 4394 
Q 1294 4750 2059 4750 
Q 2388 4750 2728 4690 
Q 3069 4631 3425 4513 
z
" transform="scale(0.015625)"/>
       <path id="DejaVuSans-57" d="M 213 4666 
L 850 4666 
L 1831 722 
L 2809 4666 
L 3519 4666 
L 4500 722 
L 5478 4666 
L 6119 4666 
L 4947 0 
L 4153 0 
L 3169 4050 
L 2175 0 
L 1381 0 
L 213 4666 
z
" transform="scale(0.015625)"/>
      </defs>
      <use xlink:href="#DejaVuSans-53"/>
      <use xlink:href="#DejaVuSans-57" x="63.476562"/>
      <use xlink:href="#DejaVuSans-41" x="156.853516"/>
      <use xlink:href="#DejaVuSans-20" x="225.261719"/>
      <use xlink:href="#DejaVuSans-56" x="257.048828"/>
      <use xlink:href="#DejaVuSans-61" x="317.707031"/>
      <use xlink:href="#DejaVuSans-6c" x="378.986328"/>
      <use xlink:href="#DejaVuSans-69" x="406.769531"/>
      <use xlink:href="#DejaVuSans-64" x="434.552734"/>
      <use xlink:href="#DejaVuSans-61" x="498.029297"/>
      <use xlink:href="#DejaVuSans-74" x="559.308594"/>
      <use xlink:href="#DejaVuSans-69" x="598.517578"/>
      <use xlink:href="#DejaVuSans-6f" x="626.300781"/>
      <use xlink:href="#DejaVuSans-6e" x="687.482422"/>
      <use xlink:href="#DejaVuSans-20" x="750.861328"/>
      <use xlink:href="#DejaVuSans-41" x="782.648438"/>
      <use xlink:href="#DejaVuSans-63" x="849.306641"/>
      <use xlink:href="#DejaVuSans-63" x="904.287109"/>
      <use xlink:href="#DejaVuSans-75" x="959.267578"/>
      <use xlink:href="#DejaVuSans-72" x="1022.646484"/>
      <use xlink:href="#DejaVuSans-61" x="1063.759766"/>
      <use xlink:href="#DejaVuSans-63" x="1125.039062"/>
      <use xlink:href="#DejaVuSans-79" x="1180.019531"/>
     </g>
    </g>
    <g id="line2d_25">
     <path d="M 216.18875 293.004312 
L 226.18875 293.004312 
L 236.18875 293.004312 
" style="fill: none; stroke: #9467bd; stroke-width: 1.5; stroke-linecap: square"/>
    </g>
    <g id="text_23">
     <!-- SWA Robust Validation Accuracy -->
     <g transform="translate(244.18875 296.504312) scale(0.1 -0.1)">
      <use xlink:href="#DejaVuSans-53"/>
      <use xlink:href="#DejaVuSans-57" x="63.476562"/>
      <use xlink:href="#DejaVuSans-41" x="156.853516"/>
      <use xlink:href="#DejaVuSans-20" x="225.261719"/>
      <use xlink:href="#DejaVuSans-52" x="257.048828"/>
      <use xlink:href="#DejaVuSans-6f" x="322.03125"/>
      <use xlink:href="#DejaVuSans-62" x="383.212891"/>
      <use xlink:href="#DejaVuSans-75" x="446.689453"/>
      <use xlink:href="#DejaVuSans-73" x="510.068359"/>
      <use xlink:href="#DejaVuSans-74" x="562.167969"/>
      <use xlink:href="#DejaVuSans-20" x="601.376953"/>
      <use xlink:href="#DejaVuSans-56" x="633.164062"/>
      <use xlink:href="#DejaVuSans-61" x="693.822266"/>
      <use xlink:href="#DejaVuSans-6c" x="755.101562"/>
      <use xlink:href="#DejaVuSans-69" x="782.884766"/>
      <use xlink:href="#DejaVuSans-64" x="810.667969"/>
      <use xlink:href="#DejaVuSans-61" x="874.144531"/>
      <use xlink:href="#DejaVuSans-74" x="935.423828"/>
      <use xlink:href="#DejaVuSans-69" x="974.632812"/>
      <use xlink:href="#DejaVuSans-6f" x="1002.416016"/>
      <use xlink:href="#DejaVuSans-6e" x="1063.597656"/>
      <use xlink:href="#DejaVuSans-20" x="1126.976562"/>
      <use xlink:href="#DejaVuSans-41" x="1158.763672"/>
      <use xlink:href="#DejaVuSans-63" x="1225.421875"/>
      <use xlink:href="#DejaVuSans-63" x="1280.402344"/>
      <use xlink:href="#DejaVuSans-75" x="1335.382812"/>
      <use xlink:href="#DejaVuSans-72" x="1398.761719"/>
      <use xlink:href="#DejaVuSans-61" x="1439.875"/>
      <use xlink:href="#DejaVuSans-63" x="1501.154297"/>
      <use xlink:href="#DejaVuSans-79" x="1556.134766"/>
     </g>
    </g>
   </g>
  </g>
 </g>
 <defs>
  <clipPath id="pf4b6e19f2e">
   <rect x="57.6" y="41.472" width="357.12" height="266.112"/>
  </clipPath>
 </defs>
</svg>
