<?xml version="1.0" encoding="utf-8" standalone="no"?>
<!DOCTYPE svg PUBLIC "-//W3C//DTD SVG 1.1//EN"
  "http://www.w3.org/Graphics/SVG/1.1/DTD/svg11.dtd">
<svg xmlns:xlink="http://www.w3.org/1999/xlink" width="460.8pt" height="345.6pt" viewBox="0 0 460.8 345.6" xmlns="http://www.w3.org/2000/svg" version="1.1">
 <metadata>
  <rdf:RDF xmlns:dc="http://purl.org/dc/elements/1.1/" xmlns:cc="http://creativecommons.org/ns#" xmlns:rdf="http://www.w3.org/1999/02/22-rdf-syntax-ns#">
   <cc:Work>
    <dc:type rdf:resource="http://purl.org/dc/dcmitype/StillImage"/>
    <dc:date>2025-08-15T20:52:48.886396</dc:date>
    <dc:format>image/svg+xml</dc:format>
    <dc:creator>
     <cc:Agent>
      <dc:title>Matplotlib v3.9.1, https://matplotlib.org/</dc:title>
     </cc:Agent>
    </dc:creator>
   </cc:Work>
  </rdf:RDF>
 </metadata>
 <defs>
  <style type="text/css">*{stroke-linejoin: round; stroke-linecap: butt}</style>
 </defs>
 <g id="figure_1">
  <g id="patch_1">
   <path d="M 0 345.6 
L 460.8 345.6 
L 460.8 0 
L 0 0 
z
" style="fill: #ffffff"/>
  </g>
  <g id="axes_1">
   <g id="patch_2">
    <path d="M 57.6 307.584 
L 414.72 307.584 
L 414.72 41.472 
L 57.6 41.472 
z
" style="fill: #ffffff"/>
   </g>
   <g id="matplotlib.axis_1">
    <g id="xtick_1">
     <g id="line2d_1">
      <defs>
       <path id="mdfd5da5928" d="M 0 0 
L 0 3.5 
" style="stroke: #000000; stroke-width: 0.8"/>
      </defs>
      <g>
       <use xlink:href="#mdfd5da5928" x="73.832727" y="307.584" style="stroke: #000000; stroke-width: 0.8"/>
      </g>
     </g>
     <g id="text_1">
      <!-- 1 -->
      <g transform="translate(70.651477 322.182437) scale(0.1 -0.1)">
       <defs>
        <path id="DejaVuSans-31" d="M 794 531 
L 1825 531 
L 1825 4091 
L 703 3866 
L 703 4441 
L 1819 4666 
L 2450 4666 
L 2450 531 
L 3481 531 
L 3481 0 
L 794 0 
L 794 531 
z
" transform="scale(0.015625)"/>
       </defs>
       <use xlink:href="#DejaVuSans-31"/>
      </g>
     </g>
    </g>
    <g id="xtick_2">
     <g id="line2d_2">
      <g>
       <use xlink:href="#mdfd5da5928" x="109.664165" y="307.584" style="stroke: #000000; stroke-width: 0.8"/>
      </g>
     </g>
     <g id="text_2">
      <!-- 34 -->
      <g transform="translate(103.301665 322.182437) scale(0.1 -0.1)">
       <defs>
        <path id="DejaVuSans-33" d="M 2597 2516 
Q 3050 2419 3304 2112 
Q 3559 1806 3559 1356 
Q 3559 666 3084 287 
Q 2609 -91 1734 -91 
Q 1441 -91 1130 -33 
Q 819 25 488 141 
L 488 750 
Q 750 597 1062 519 
Q 1375 441 1716 441 
Q 2309 441 2620 675 
Q 2931 909 2931 1356 
Q 2931 1769 2642 2001 
Q 2353 2234 1838 2234 
L 1294 2234 
L 1294 2753 
L 1863 2753 
Q 2328 2753 2575 2939 
Q 2822 3125 2822 3475 
Q 2822 3834 2567 4026 
Q 2313 4219 1838 4219 
Q 1578 4219 1281 4162 
Q 984 4106 628 3988 
L 628 4550 
Q 988 4650 1302 4700 
Q 1616 4750 1894 4750 
Q 2613 4750 3031 4423 
Q 3450 4097 3450 3541 
Q 3450 3153 3228 2886 
Q 3006 2619 2597 2516 
z
" transform="scale(0.015625)"/>
        <path id="DejaVuSans-34" d="M 2419 4116 
L 825 1625 
L 2419 1625 
L 2419 4116 
z
M 2253 4666 
L 3047 4666 
L 3047 1625 
L 3713 1625 
L 3713 1100 
L 3047 1100 
L 3047 0 
L 2419 0 
L 2419 1100 
L 313 1100 
L 313 1709 
L 2253 4666 
z
" transform="scale(0.015625)"/>
       </defs>
       <use xlink:href="#DejaVuSans-33"/>
       <use xlink:href="#DejaVuSans-34" x="63.623047"/>
      </g>
     </g>
    </g>
    <g id="xtick_3">
     <g id="line2d_3">
      <g>
       <use xlink:href="#mdfd5da5928" x="145.495604" y="307.584" style="stroke: #000000; stroke-width: 0.8"/>
      </g>
     </g>
     <g id="text_3">
      <!-- 67 -->
      <g transform="translate(139.133104 322.182437) scale(0.1 -0.1)">
       <defs>
        <path id="DejaVuSans-36" d="M 2113 2584 
Q 1688 2584 1439 2293 
Q 1191 2003 1191 1497 
Q 1191 994 1439 701 
Q 1688 409 2113 409 
Q 2538 409 2786 701 
Q 3034 994 3034 1497 
Q 3034 2003 2786 2293 
Q 2538 2584 2113 2584 
z
M 3366 4563 
L 3366 3988 
Q 3128 4100 2886 4159 
Q 2644 4219 2406 4219 
Q 1781 4219 1451 3797 
Q 1122 3375 1075 2522 
Q 1259 2794 1537 2939 
Q 1816 3084 2150 3084 
Q 2853 3084 3261 2657 
Q 3669 2231 3669 1497 
Q 3669 778 3244 343 
Q 2819 -91 2113 -91 
Q 1303 -91 875 529 
Q 447 1150 447 2328 
Q 447 3434 972 4092 
Q 1497 4750 2381 4750 
Q 2619 4750 2861 4703 
Q 3103 4656 3366 4563 
z
" transform="scale(0.015625)"/>
        <path id="DejaVuSans-37" d="M 525 4666 
L 3525 4666 
L 3525 4397 
L 1831 0 
L 1172 0 
L 2766 4134 
L 525 4134 
L 525 4666 
z
" transform="scale(0.015625)"/>
       </defs>
       <use xlink:href="#DejaVuSans-36"/>
       <use xlink:href="#DejaVuSans-37" x="63.623047"/>
      </g>
     </g>
    </g>
    <g id="xtick_4">
     <g id="line2d_4">
      <g>
       <use xlink:href="#mdfd5da5928" x="181.327042" y="307.584" style="stroke: #000000; stroke-width: 0.8"/>
      </g>
     </g>
     <g id="text_4">
      <!-- 100 -->
      <g transform="translate(171.783292 322.182437) scale(0.1 -0.1)">
       <defs>
        <path id="DejaVuSans-30" d="M 2034 4250 
Q 1547 4250 1301 3770 
Q 1056 3291 1056 2328 
Q 1056 1369 1301 889 
Q 1547 409 2034 409 
Q 2525 409 2770 889 
Q 3016 1369 3016 2328 
Q 3016 3291 2770 3770 
Q 2525 4250 2034 4250 
z
M 2034 4750 
Q 2819 4750 3233 4129 
Q 3647 3509 3647 2328 
Q 3647 1150 3233 529 
Q 2819 -91 2034 -91 
Q 1250 -91 836 529 
Q 422 1150 422 2328 
Q 422 3509 836 4129 
Q 1250 4750 2034 4750 
z
" transform="scale(0.015625)"/>
       </defs>
       <use xlink:href="#DejaVuSans-31"/>
       <use xlink:href="#DejaVuSans-30" x="63.623047"/>
       <use xlink:href="#DejaVuSans-30" x="127.246094"/>
      </g>
     </g>
    </g>
    <g id="xtick_5">
     <g id="line2d_5">
      <g>
       <use xlink:href="#mdfd5da5928" x="217.15848" y="307.584" style="stroke: #000000; stroke-width: 0.8"/>
      </g>
     </g>
     <g id="text_5">
      <!-- 133 -->
      <g transform="translate(207.61473 322.182437) scale(0.1 -0.1)">
       <use xlink:href="#DejaVuSans-31"/>
       <use xlink:href="#DejaVuSans-33" x="63.623047"/>
       <use xlink:href="#DejaVuSans-33" x="127.246094"/>
      </g>
     </g>
    </g>
    <g id="xtick_6">
     <g id="line2d_6">
      <g>
       <use xlink:href="#mdfd5da5928" x="254.075719" y="307.584" style="stroke: #000000; stroke-width: 0.8"/>
      </g>
     </g>
     <g id="text_6">
      <!-- 167 -->
      <g transform="translate(244.531969 322.182437) scale(0.1 -0.1)">
       <use xlink:href="#DejaVuSans-31"/>
       <use xlink:href="#DejaVuSans-36" x="63.623047"/>
       <use xlink:href="#DejaVuSans-37" x="127.246094"/>
      </g>
     </g>
    </g>
    <g id="xtick_7">
     <g id="line2d_7">
      <g>
       <use xlink:href="#mdfd5da5928" x="289.907157" y="307.584" style="stroke: #000000; stroke-width: 0.8"/>
      </g>
     </g>
     <g id="text_7">
      <!-- 200 -->
      <g transform="translate(280.363407 322.182437) scale(0.1 -0.1)">
       <defs>
        <path id="DejaVuSans-32" d="M 1228 531 
L 3431 531 
L 3431 0 
L 469 0 
L 469 531 
Q 828 903 1448 1529 
Q 2069 2156 2228 2338 
Q 2531 2678 2651 2914 
Q 2772 3150 2772 3378 
Q 2772 3750 2511 3984 
Q 2250 4219 1831 4219 
Q 1534 4219 1204 4116 
Q 875 4013 500 3803 
L 500 4441 
Q 881 4594 1212 4672 
Q 1544 4750 1819 4750 
Q 2544 4750 2975 4387 
Q 3406 4025 3406 3419 
Q 3406 3131 3298 2873 
Q 3191 2616 2906 2266 
Q 2828 2175 2409 1742 
Q 1991 1309 1228 531 
z
" transform="scale(0.015625)"/>
       </defs>
       <use xlink:href="#DejaVuSans-32"/>
       <use xlink:href="#DejaVuSans-30" x="63.623047"/>
       <use xlink:href="#DejaVuSans-30" x="127.246094"/>
      </g>
     </g>
    </g>
    <g id="xtick_8">
     <g id="line2d_8">
      <g>
       <use xlink:href="#mdfd5da5928" x="325.738595" y="307.584" style="stroke: #000000; stroke-width: 0.8"/>
      </g>
     </g>
     <g id="text_8">
      <!-- 233 -->
      <g transform="translate(316.194845 322.182437) scale(0.1 -0.1)">
       <use xlink:href="#DejaVuSans-32"/>
       <use xlink:href="#DejaVuSans-33" x="63.623047"/>
       <use xlink:href="#DejaVuSans-33" x="127.246094"/>
      </g>
     </g>
    </g>
    <g id="xtick_9">
     <g id="line2d_9">
      <g>
       <use xlink:href="#mdfd5da5928" x="361.570033" y="307.584" style="stroke: #000000; stroke-width: 0.8"/>
      </g>
     </g>
     <g id="text_9">
      <!-- 266 -->
      <g transform="translate(352.026283 322.182437) scale(0.1 -0.1)">
       <use xlink:href="#DejaVuSans-32"/>
       <use xlink:href="#DejaVuSans-36" x="63.623047"/>
       <use xlink:href="#DejaVuSans-36" x="127.246094"/>
      </g>
     </g>
    </g>
    <g id="xtick_10">
     <g id="line2d_10">
      <g>
       <use xlink:href="#mdfd5da5928" x="398.487273" y="307.584" style="stroke: #000000; stroke-width: 0.8"/>
      </g>
     </g>
     <g id="text_10">
      <!-- 300 -->
      <g transform="translate(388.943523 322.182437) scale(0.1 -0.1)">
       <use xlink:href="#DejaVuSans-33"/>
       <use xlink:href="#DejaVuSans-30" x="63.623047"/>
       <use xlink:href="#DejaVuSans-30" x="127.246094"/>
      </g>
     </g>
    </g>
    <g id="text_11">
     <!-- Epochs -->
     <g transform="translate(218.244375 335.860562) scale(0.1 -0.1)">
      <defs>
       <path id="DejaVuSans-45" d="M 628 4666 
L 3578 4666 
L 3578 4134 
L 1259 4134 
L 1259 2753 
L 3481 2753 
L 3481 2222 
L 1259 2222 
L 1259 531 
L 3634 531 
L 3634 0 
L 628 0 
L 628 4666 
z
" transform="scale(0.015625)"/>
       <path id="DejaVuSans-70" d="M 1159 525 
L 1159 -1331 
L 581 -1331 
L 581 3500 
L 1159 3500 
L 1159 2969 
Q 1341 3281 1617 3432 
Q 1894 3584 2278 3584 
Q 2916 3584 3314 3078 
Q 3713 2572 3713 1747 
Q 3713 922 3314 415 
Q 2916 -91 2278 -91 
Q 1894 -91 1617 61 
Q 1341 213 1159 525 
z
M 3116 1747 
Q 3116 2381 2855 2742 
Q 2594 3103 2138 3103 
Q 1681 3103 1420 2742 
Q 1159 2381 1159 1747 
Q 1159 1113 1420 752 
Q 1681 391 2138 391 
Q 2594 391 2855 752 
Q 3116 1113 3116 1747 
z
" transform="scale(0.015625)"/>
       <path id="DejaVuSans-6f" d="M 1959 3097 
Q 1497 3097 1228 2736 
Q 959 2375 959 1747 
Q 959 1119 1226 758 
Q 1494 397 1959 397 
Q 2419 397 2687 759 
Q 2956 1122 2956 1747 
Q 2956 2369 2687 2733 
Q 2419 3097 1959 3097 
z
M 1959 3584 
Q 2709 3584 3137 3096 
Q 3566 2609 3566 1747 
Q 3566 888 3137 398 
Q 2709 -91 1959 -91 
Q 1206 -91 779 398 
Q 353 888 353 1747 
Q 353 2609 779 3096 
Q 1206 3584 1959 3584 
z
" transform="scale(0.015625)"/>
       <path id="DejaVuSans-63" d="M 3122 3366 
L 3122 2828 
Q 2878 2963 2633 3030 
Q 2388 3097 2138 3097 
Q 1578 3097 1268 2742 
Q 959 2388 959 1747 
Q 959 1106 1268 751 
Q 1578 397 2138 397 
Q 2388 397 2633 464 
Q 2878 531 3122 666 
L 3122 134 
Q 2881 22 2623 -34 
Q 2366 -91 2075 -91 
Q 1284 -91 818 406 
Q 353 903 353 1747 
Q 353 2603 823 3093 
Q 1294 3584 2113 3584 
Q 2378 3584 2631 3529 
Q 2884 3475 3122 3366 
z
" transform="scale(0.015625)"/>
       <path id="DejaVuSans-68" d="M 3513 2113 
L 3513 0 
L 2938 0 
L 2938 2094 
Q 2938 2591 2744 2837 
Q 2550 3084 2163 3084 
Q 1697 3084 1428 2787 
Q 1159 2491 1159 1978 
L 1159 0 
L 581 0 
L 581 4863 
L 1159 4863 
L 1159 2956 
Q 1366 3272 1645 3428 
Q 1925 3584 2291 3584 
Q 2894 3584 3203 3211 
Q 3513 2838 3513 2113 
z
" transform="scale(0.015625)"/>
       <path id="DejaVuSans-73" d="M 2834 3397 
L 2834 2853 
Q 2591 2978 2328 3040 
Q 2066 3103 1784 3103 
Q 1356 3103 1142 2972 
Q 928 2841 928 2578 
Q 928 2378 1081 2264 
Q 1234 2150 1697 2047 
L 1894 2003 
Q 2506 1872 2764 1633 
Q 3022 1394 3022 966 
Q 3022 478 2636 193 
Q 2250 -91 1575 -91 
Q 1294 -91 989 -36 
Q 684 19 347 128 
L 347 722 
Q 666 556 975 473 
Q 1284 391 1588 391 
Q 1994 391 2212 530 
Q 2431 669 2431 922 
Q 2431 1156 2273 1281 
Q 2116 1406 1581 1522 
L 1381 1569 
Q 847 1681 609 1914 
Q 372 2147 372 2553 
Q 372 3047 722 3315 
Q 1072 3584 1716 3584 
Q 2034 3584 2315 3537 
Q 2597 3491 2834 3397 
z
" transform="scale(0.015625)"/>
      </defs>
      <use xlink:href="#DejaVuSans-45"/>
      <use xlink:href="#DejaVuSans-70" x="63.183594"/>
      <use xlink:href="#DejaVuSans-6f" x="126.660156"/>
      <use xlink:href="#DejaVuSans-63" x="187.841797"/>
      <use xlink:href="#DejaVuSans-68" x="242.822266"/>
      <use xlink:href="#DejaVuSans-73" x="306.201172"/>
     </g>
    </g>
   </g>
   <g id="matplotlib.axis_2">
    <g id="ytick_1">
     <g id="line2d_11">
      <defs>
       <path id="m5038d754dd" d="M 0 0 
L -3.5 0 
" style="stroke: #000000; stroke-width: 0.8"/>
      </defs>
      <g>
       <use xlink:href="#m5038d754dd" x="57.6" y="268.848345" style="stroke: #000000; stroke-width: 0.8"/>
      </g>
     </g>
     <g id="text_12">
      <!-- 20 -->
      <g transform="translate(37.875 272.647564) scale(0.1 -0.1)">
       <use xlink:href="#DejaVuSans-32"/>
       <use xlink:href="#DejaVuSans-30" x="63.623047"/>
      </g>
     </g>
    </g>
    <g id="ytick_2">
     <g id="line2d_12">
      <g>
       <use xlink:href="#m5038d754dd" x="57.6" y="215.012108" style="stroke: #000000; stroke-width: 0.8"/>
      </g>
     </g>
     <g id="text_13">
      <!-- 40 -->
      <g transform="translate(37.875 218.811326) scale(0.1 -0.1)">
       <use xlink:href="#DejaVuSans-34"/>
       <use xlink:href="#DejaVuSans-30" x="63.623047"/>
      </g>
     </g>
    </g>
    <g id="ytick_3">
     <g id="line2d_13">
      <g>
       <use xlink:href="#m5038d754dd" x="57.6" y="161.175871" style="stroke: #000000; stroke-width: 0.8"/>
      </g>
     </g>
     <g id="text_14">
      <!-- 60 -->
      <g transform="translate(37.875 164.975089) scale(0.1 -0.1)">
       <use xlink:href="#DejaVuSans-36"/>
       <use xlink:href="#DejaVuSans-30" x="63.623047"/>
      </g>
     </g>
    </g>
    <g id="ytick_4">
     <g id="line2d_14">
      <g>
       <use xlink:href="#m5038d754dd" x="57.6" y="107.339634" style="stroke: #000000; stroke-width: 0.8"/>
      </g>
     </g>
     <g id="text_15">
      <!-- 80 -->
      <g transform="translate(37.875 111.138852) scale(0.1 -0.1)">
       <defs>
        <path id="DejaVuSans-38" d="M 2034 2216 
Q 1584 2216 1326 1975 
Q 1069 1734 1069 1313 
Q 1069 891 1326 650 
Q 1584 409 2034 409 
Q 2484 409 2743 651 
Q 3003 894 3003 1313 
Q 3003 1734 2745 1975 
Q 2488 2216 2034 2216 
z
M 1403 2484 
Q 997 2584 770 2862 
Q 544 3141 544 3541 
Q 544 4100 942 4425 
Q 1341 4750 2034 4750 
Q 2731 4750 3128 4425 
Q 3525 4100 3525 3541 
Q 3525 3141 3298 2862 
Q 3072 2584 2669 2484 
Q 3125 2378 3379 2068 
Q 3634 1759 3634 1313 
Q 3634 634 3220 271 
Q 2806 -91 2034 -91 
Q 1263 -91 848 271 
Q 434 634 434 1313 
Q 434 1759 690 2068 
Q 947 2378 1403 2484 
z
M 1172 3481 
Q 1172 3119 1398 2916 
Q 1625 2713 2034 2713 
Q 2441 2713 2670 2916 
Q 2900 3119 2900 3481 
Q 2900 3844 2670 4047 
Q 2441 4250 2034 4250 
Q 1625 4250 1398 4047 
Q 1172 3844 1172 3481 
z
" transform="scale(0.015625)"/>
       </defs>
       <use xlink:href="#DejaVuSans-38"/>
       <use xlink:href="#DejaVuSans-30" x="63.623047"/>
      </g>
     </g>
    </g>
    <g id="ytick_5">
     <g id="line2d_15">
      <g>
       <use xlink:href="#m5038d754dd" x="57.6" y="53.503397" style="stroke: #000000; stroke-width: 0.8"/>
      </g>
     </g>
     <g id="text_16">
      <!-- 100 -->
      <g transform="translate(31.5125 57.302615) scale(0.1 -0.1)">
       <use xlink:href="#DejaVuSans-31"/>
       <use xlink:href="#DejaVuSans-30" x="63.623047"/>
       <use xlink:href="#DejaVuSans-30" x="127.246094"/>
      </g>
     </g>
    </g>
    <g id="text_17">
     <!-- Accuracy -->
     <g transform="translate(25.432812 197.356125) rotate(-90) scale(0.1 -0.1)">
      <defs>
       <path id="DejaVuSans-41" d="M 2188 4044 
L 1331 1722 
L 3047 1722 
L 2188 4044 
z
M 1831 4666 
L 2547 4666 
L 4325 0 
L 3669 0 
L 3244 1197 
L 1141 1197 
L 716 0 
L 50 0 
L 1831 4666 
z
" transform="scale(0.015625)"/>
       <path id="DejaVuSans-75" d="M 544 1381 
L 544 3500 
L 1119 3500 
L 1119 1403 
Q 1119 906 1312 657 
Q 1506 409 1894 409 
Q 2359 409 2629 706 
Q 2900 1003 2900 1516 
L 2900 3500 
L 3475 3500 
L 3475 0 
L 2900 0 
L 2900 538 
Q 2691 219 2414 64 
Q 2138 -91 1772 -91 
Q 1169 -91 856 284 
Q 544 659 544 1381 
z
M 1991 3584 
L 1991 3584 
z
" transform="scale(0.015625)"/>
       <path id="DejaVuSans-72" d="M 2631 2963 
Q 2534 3019 2420 3045 
Q 2306 3072 2169 3072 
Q 1681 3072 1420 2755 
Q 1159 2438 1159 1844 
L 1159 0 
L 581 0 
L 581 3500 
L 1159 3500 
L 1159 2956 
Q 1341 3275 1631 3429 
Q 1922 3584 2338 3584 
Q 2397 3584 2469 3576 
Q 2541 3569 2628 3553 
L 2631 2963 
z
" transform="scale(0.015625)"/>
       <path id="DejaVuSans-61" d="M 2194 1759 
Q 1497 1759 1228 1600 
Q 959 1441 959 1056 
Q 959 750 1161 570 
Q 1363 391 1709 391 
Q 2188 391 2477 730 
Q 2766 1069 2766 1631 
L 2766 1759 
L 2194 1759 
z
M 3341 1997 
L 3341 0 
L 2766 0 
L 2766 531 
Q 2569 213 2275 61 
Q 1981 -91 1556 -91 
Q 1019 -91 701 211 
Q 384 513 384 1019 
Q 384 1609 779 1909 
Q 1175 2209 1959 2209 
L 2766 2209 
L 2766 2266 
Q 2766 2663 2505 2880 
Q 2244 3097 1772 3097 
Q 1472 3097 1187 3025 
Q 903 2953 641 2809 
L 641 3341 
Q 956 3463 1253 3523 
Q 1550 3584 1831 3584 
Q 2591 3584 2966 3190 
Q 3341 2797 3341 1997 
z
" transform="scale(0.015625)"/>
       <path id="DejaVuSans-79" d="M 2059 -325 
Q 1816 -950 1584 -1140 
Q 1353 -1331 966 -1331 
L 506 -1331 
L 506 -850 
L 844 -850 
Q 1081 -850 1212 -737 
Q 1344 -625 1503 -206 
L 1606 56 
L 191 3500 
L 800 3500 
L 1894 763 
L 2988 3500 
L 3597 3500 
L 2059 -325 
z
" transform="scale(0.015625)"/>
      </defs>
      <use xlink:href="#DejaVuSans-41"/>
      <use xlink:href="#DejaVuSans-63" x="66.658203"/>
      <use xlink:href="#DejaVuSans-63" x="121.638672"/>
      <use xlink:href="#DejaVuSans-75" x="176.619141"/>
      <use xlink:href="#DejaVuSans-72" x="239.998047"/>
      <use xlink:href="#DejaVuSans-61" x="281.111328"/>
      <use xlink:href="#DejaVuSans-63" x="342.390625"/>
      <use xlink:href="#DejaVuSans-79" x="397.371094"/>
     </g>
    </g>
   </g>
   <g id="line2d_16">
    <path d="M 73.832727 294.732808 
L 74.918528 264.48761 
L 76.00433 237.580258 
L 77.090131 219.01214 
L 78.175932 203.01201 
L 79.261733 190.721198 
L 81.433335 171.598566 
L 82.519137 162.457173 
L 86.862341 135.296791 
L 87.948142 129.843181 
L 89.033943 123.738151 
L 91.205546 115.555043 
L 92.291347 112.292567 
L 93.377148 109.756881 
L 94.462949 108.594018 
L 95.54875 145.660267 
L 96.634552 143.786766 
L 97.720353 139.915941 
L 99.891955 131.172936 
L 100.977756 127.038313 
L 102.063557 123.926578 
L 104.23516 115.883444 
L 105.320961 112.604818 
L 106.406762 109.719195 
L 107.492563 105.546887 
L 108.578364 102.456687 
L 109.664165 98.86581 
L 110.749967 96.383959 
L 111.835768 91.910168 
L 112.921569 89.288343 
L 114.00737 85.589794 
L 115.093171 82.488827 
L 117.264773 77.148272 
L 118.350575 74.833314 
L 119.436376 71.447014 
L 120.522177 69.535828 
L 121.607978 66.660973 
L 123.77958 63.048561 
L 125.951183 59.829154 
L 128.122785 57.928735 
L 129.208586 57.051205 
L 131.380189 55.850656 
L 132.46599 55.446885 
L 133.551791 55.279992 
L 134.637592 54.924673 
L 136.809194 54.703945 
L 137.894995 54.74163 
L 138.980797 83.624771 
L 140.066598 87.36639 
L 141.152399 86.81726 
L 142.2382 85.46597 
L 147.667206 79.807782 
L 148.753007 78.402656 
L 149.838808 77.422837 
L 150.924609 76.243823 
L 152.01041 75.565486 
L 153.096212 74.5749 
L 154.182013 73.153623 
L 155.267814 72.039213 
L 156.353615 71.646208 
L 157.439416 70.219548 
L 158.525217 70.079574 
L 159.611019 69.228961 
L 160.69682 68.076866 
L 161.782621 67.662327 
L 162.868422 66.817098 
L 163.954223 66.257201 
L 165.040024 65.196627 
L 166.125825 64.803623 
L 167.211627 63.856105 
L 169.383229 62.639406 
L 170.46903 62.364841 
L 171.554831 61.449625 
L 172.640632 61.395789 
L 173.726434 60.819741 
L 174.812235 60.006814 
L 175.898036 59.500753 
L 176.983837 59.344628 
L 178.069638 58.590921 
L 179.155439 58.488632 
L 180.24124 57.810295 
L 181.327042 57.352687 
L 182.412843 57.379606 
L 183.498644 57.051205 
L 186.756047 55.780669 
L 187.841849 55.888342 
L 188.92765 55.559941 
L 193.270854 54.730863 
L 194.356656 54.730863 
L 195.442457 54.364776 
L 197.614059 54.284022 
L 201.957264 53.842565 
L 207.386269 53.691823 
L 220.415883 53.568 
L 222.587486 53.616453 
L 224.759088 53.573384 
L 225.844889 65.341985 
L 226.93069 68.674448 
L 228.016491 69.62735 
L 229.102292 68.572159 
L 230.188094 69.051302 
L 231.273895 68.685215 
L 232.359696 68.125319 
L 233.445497 68.189922 
L 235.617099 67.4739 
L 236.702901 67.064745 
L 237.788702 66.806331 
L 238.874503 66.811714 
L 239.960304 66.337955 
L 241.046105 66.763262 
L 242.131906 66.127994 
L 243.217708 66.224899 
L 245.38931 64.916679 
L 246.475111 65.12664 
L 248.646713 65.094338 
L 251.904117 63.872256 
L 252.989918 63.904558 
L 254.075719 63.393113 
L 255.16152 63.258523 
L 256.247321 63.296208 
L 257.333123 62.8386 
L 258.418924 62.537117 
L 259.504725 62.564035 
L 260.590526 62.370225 
L 261.676327 62.429445 
L 264.933731 61.465776 
L 266.019532 61.616517 
L 267.105333 61.41194 
L 269.276935 60.545176 
L 270.362736 60.814358 
L 275.791742 59.893758 
L 276.877543 59.845305 
L 277.963344 59.37693 
L 279.049146 59.683797 
L 281.220748 59.070063 
L 282.306549 59.269258 
L 284.478151 58.69321 
L 286.649754 58.687826 
L 287.735555 57.977188 
L 288.821356 58.240985 
L 289.907157 57.896433 
L 290.992958 57.939502 
L 292.07876 57.611101 
L 294.250362 57.46036 
L 295.336163 57.185795 
L 296.421964 57.384989 
L 297.507765 56.900463 
L 298.593566 56.895079 
L 299.679368 56.507459 
L 300.765169 56.841243 
L 301.85097 56.620515 
L 302.936771 56.249045 
L 305.108373 56.372868 
L 306.194175 56.146756 
L 307.279976 56.09292 
L 308.365777 55.866807 
L 309.451578 55.834506 
L 310.537379 55.624544 
L 311.62318 55.66223 
L 313.794783 55.419967 
L 317.052186 55.188471 
L 323.566993 54.725479 
L 324.652794 54.795466 
L 325.738595 54.483216 
L 330.0818 54.397078 
L 331.167601 54.219418 
L 332.253402 54.386311 
L 333.339203 54.111746 
L 334.425005 54.224802 
L 335.510806 54.05791 
L 337.682408 54.036375 
L 338.768209 54.063293 
L 339.85401 53.923319 
L 344.197215 53.799496 
L 345.283016 53.724125 
L 347.454618 53.76181 
L 370.256443 53.643371 
L 387.629261 53.670289 
L 388.715062 53.621836 
L 390.886665 53.68644 
L 396.31567 53.648754 
L 398.487273 53.697207 
L 398.487273 53.697207 
" clip-path="url(#p084e1f7eda)" style="fill: none; stroke: #1f77b4; stroke-width: 1.5; stroke-linecap: square"/>
   </g>
   <g id="line2d_17">
    <path d="M 73.832727 290.355921 
L 76.00433 253.047409 
L 77.090131 229.224874 
L 78.175932 202.279838 
L 79.261733 207.609625 
L 81.433335 184.756142 
L 82.519137 183.867845 
L 83.604938 172.400726 
L 84.690739 172.158463 
L 85.77654 164.056109 
L 86.862341 159.937637 
L 87.948142 159.803047 
L 90.119745 149.17039 
L 91.205546 151.350757 
L 92.291347 148.443601 
L 93.377148 149.17039 
L 94.462949 146.532414 
L 95.54875 182.871874 
L 96.634552 172.266135 
L 97.720353 172.158463 
L 98.806154 163.813846 
L 99.891955 162.817876 
L 100.977756 159.856883 
L 102.063557 173.127515 
L 103.149358 153.692634 
L 104.23516 152.777418 
L 105.320961 152.02371 
L 106.406762 146.58625 
L 107.492563 147.070777 
L 109.664165 140.906527 
L 110.749967 142.521614 
L 111.835768 145.751789 
L 112.921569 139.076095 
L 114.00737 137.137991 
L 115.093171 136.088184 
L 116.178972 134.769196 
L 117.264773 133.638635 
L 118.350575 134.419261 
L 119.436376 134.849951 
L 120.522177 131.162168 
L 122.693779 130.946824 
L 123.77958 130.677642 
L 124.865382 131.539022 
L 125.951183 128.120421 
L 127.036984 129.547081 
L 128.122785 129.331736 
L 129.208586 129.600918 
L 130.294387 126.801433 
L 131.380189 128.228094 
L 132.46599 127.232123 
L 133.551791 127.528222 
L 134.637592 128.443439 
L 135.723393 128.255012 
L 137.894995 126.693761 
L 138.980797 142.279351 
L 140.066598 144.567392 
L 141.152399 143.598339 
L 142.2382 150.220196 
L 143.324001 142.360106 
L 144.409802 140.798855 
L 145.495604 138.133961 
L 146.581405 138.645405 
L 147.667206 138.779996 
L 148.753007 142.87155 
L 149.838808 139.883639 
L 150.924609 140.718101 
L 152.01041 136.707301 
L 153.096212 138.241634 
L 154.182013 142.064006 
L 155.267814 136.922646 
L 156.353615 136.303529 
L 157.439416 136.86881 
L 158.525217 139.15685 
L 159.611019 136.788055 
L 160.69682 136.788055 
L 161.782621 137.2995 
L 162.868422 138.806914 
L 163.954223 136.734219 
L 165.040024 133.934735 
L 166.125825 136.00743 
L 167.211627 135.011459 
L 168.297428 132.588829 
L 169.383229 134.15008 
L 170.46903 134.769196 
L 171.554831 133.42329 
L 172.640632 134.419261 
L 173.726434 131.754367 
L 174.812235 131.43135 
L 175.898036 130.812233 
L 176.983837 132.346566 
L 178.069638 132.077385 
L 179.155439 132.911846 
L 180.24124 130.812233 
L 181.327042 129.197146 
L 182.412843 131.027578 
L 183.498644 129.735508 
L 184.584445 129.466327 
L 185.670246 130.56997 
L 186.756047 129.197146 
L 187.841849 128.093503 
L 188.92765 127.42055 
L 190.013451 129.116391 
L 191.099252 129.493245 
L 192.185053 126.936024 
L 193.270854 128.093503 
L 194.356656 127.824322 
L 195.442457 126.478416 
L 196.528258 126.370743 
L 197.614059 126.12848 
L 198.69986 127.743567 
L 199.785661 128.28193 
L 200.871462 125.99389 
L 201.957264 125.240182 
L 203.043065 124.782574 
L 204.128866 124.70182 
L 205.214667 124.27113 
L 206.300468 124.944083 
L 207.386269 123.086733 
L 208.472071 124.917165 
L 209.557872 123.759686 
L 210.643673 123.382832 
L 211.729474 123.598177 
L 212.815275 123.059815 
L 214.986877 123.382832 
L 216.072679 122.682961 
L 217.15848 123.086733 
L 218.244281 122.198435 
L 219.330082 122.171517 
L 220.415883 122.709879 
L 222.587486 123.005979 
L 223.673287 123.517423 
L 224.759088 122.763715 
L 225.844889 139.856721 
L 226.93069 139.641376 
L 228.016491 138.806914 
L 229.102292 140.287411 
L 230.188094 139.264522 
L 231.273895 142.952304 
L 232.359696 138.618487 
L 233.445497 139.183768 
L 234.531298 139.345277 
L 235.617099 135.522904 
L 236.702901 138.618487 
L 237.788702 138.510815 
L 238.874503 136.922646 
L 239.960304 139.829803 
L 241.046105 140.314329 
L 242.131906 139.614458 
L 243.217708 139.641376 
L 244.303509 137.514844 
L 245.38931 137.487926 
L 246.475111 135.522904 
L 247.560912 136.384283 
L 248.646713 140.341247 
L 249.732514 137.164909 
L 251.904117 133.584799 
L 252.989918 136.357365 
L 254.075719 133.396372 
L 255.16152 137.111073 
L 256.247321 133.315618 
L 257.333123 133.42329 
L 258.418924 137.945534 
L 259.504725 134.365425 
L 260.590526 135.14605 
L 261.676327 136.14202 
L 262.762128 130.677642 
L 263.847929 135.065296 
L 264.933731 133.961653 
L 266.019532 134.930705 
L 267.105333 134.15008 
L 268.191134 134.500015 
L 269.276935 135.038378 
L 270.362736 139.022259 
L 271.448538 134.607688 
L 272.534339 138.672324 
L 273.62014 134.069325 
L 274.705941 132.642665 
L 275.791742 135.065296 
L 276.877543 135.495986 
L 277.963344 133.234864 
L 279.049146 134.796114 
L 280.134947 131.404432 
L 281.220748 134.661524 
L 282.306549 133.692472 
L 283.39235 132.400402 
L 284.478151 134.553851 
L 285.563953 132.265811 
L 286.649754 131.888958 
L 287.735555 135.495986 
L 288.821356 134.069325 
L 289.907157 130.354625 
L 290.992958 132.292729 
L 292.07876 132.804174 
L 293.164561 131.673613 
L 294.250362 132.85801 
L 295.336163 133.692472 
L 296.421964 132.104303 
L 297.507765 135.092214 
L 298.593566 130.56997 
L 299.679368 131.216005 
L 300.765169 132.965682 
L 301.85097 130.70456 
L 302.936771 131.350595 
L 304.022572 130.166198 
L 305.108373 132.373484 
L 306.194175 130.193116 
L 307.279976 130.516134 
L 308.365777 131.296759 
L 309.451578 129.735508 
L 310.537379 129.600918 
L 311.62318 130.031607 
L 312.708981 129.870099 
L 313.794783 129.493245 
L 314.880584 131.296759 
L 315.966385 130.273871 
L 317.052186 129.70859 
L 318.137987 128.631865 
L 319.223788 132.158139 
L 320.30959 130.004689 
L 321.395391 130.785315 
L 322.481192 127.151369 
L 323.566993 129.331736 
L 324.652794 129.385573 
L 325.738595 128.820292 
L 326.824396 130.246952 
L 327.910198 127.366714 
L 328.995999 128.066585 
L 330.0818 127.447468 
L 331.167601 129.735508 
L 332.253402 128.228094 
L 333.339203 127.097533 
L 334.425005 130.273871 
L 335.510806 128.578029 
L 336.596607 128.497275 
L 337.682408 126.42458 
L 338.768209 126.505334 
L 339.85401 126.828351 
L 340.939811 125.213264 
L 342.025613 126.505334 
L 344.197215 124.351884 
L 345.283016 125.320937 
L 346.368817 125.240182 
L 347.454618 125.590118 
L 348.54042 124.217294 
L 349.626221 123.732768 
L 350.712022 124.567229 
L 351.797823 123.355914 
L 352.883624 123.490505 
L 353.969425 123.355914 
L 355.055227 122.84447 
L 356.141028 120.475675 
L 357.226829 121.5524 
L 358.31263 121.390891 
L 359.398431 121.633155 
L 360.484232 122.440698 
L 361.570033 121.229383 
L 362.655835 121.256301 
L 363.741636 122.090763 
L 364.827437 121.067874 
L 365.913238 121.848499 
L 366.999039 121.094792 
L 368.08484 122.521452 
L 369.170642 122.602207 
L 370.256443 122.144599 
L 371.342244 123.894276 
L 372.428045 122.84447 
L 374.599647 123.113651 
L 375.685448 122.521452 
L 376.77125 123.40975 
L 377.857051 121.956172 
L 378.942852 122.817552 
L 380.028653 123.059815 
L 381.114454 123.517423 
L 382.200255 122.171517 
L 383.286057 122.790634 
L 384.371858 124.459557 
L 385.457659 124.028867 
L 386.54346 123.382832 
L 387.629261 124.70182 
L 390.886665 123.382832 
L 391.972466 124.244212 
L 393.058267 123.40975 
L 394.144068 124.13654 
L 395.229869 123.84044 
L 396.31567 123.40975 
L 398.487273 124.298048 
L 398.487273 124.298048 
" clip-path="url(#p084e1f7eda)" style="fill: none; stroke: #ff7f0e; stroke-width: 1.5; stroke-linecap: square"/>
   </g>
   <g id="line2d_18">
    <path d="M 73.832727 295.488 
L 74.918528 282.437354 
L 76.00433 273.192372 
L 77.090131 260.772909 
L 78.175932 242.747052 
L 79.261733 247.518056 
L 80.347534 240.89063 
L 81.433335 233.056529 
L 82.519137 238.885694 
L 83.604938 227.784291 
L 84.690739 227.413006 
L 85.77654 220.562809 
L 86.862341 220.859837 
L 87.948142 221.97369 
L 89.033943 218.242282 
L 90.119745 211.949011 
L 91.205546 215.030672 
L 92.291347 213.935383 
L 93.377148 213.025736 
L 94.462949 211.614856 
L 95.54875 236.676552 
L 96.634552 229.399378 
L 97.720353 231.701341 
L 98.806154 219.875933 
L 99.891955 226.410539 
L 100.977756 219.857369 
L 102.063557 238.73718 
L 103.149358 217.648227 
L 104.23516 217.536842 
L 105.320961 215.698984 
L 106.406762 212.524502 
L 107.492563 208.997301 
L 108.578364 212.46881 
L 109.664165 206.973801 
L 111.835768 216.163089 
L 112.921569 208.997301 
L 114.00737 203.05675 
L 115.093171 205.674305 
L 116.178972 204.541888 
L 117.264773 203.242392 
L 118.350575 205.43297 
L 119.436376 205.043122 
L 120.522177 201.51592 
L 121.607978 202.147103 
L 122.693779 201.99859 
L 123.77958 201.256021 
L 124.865382 201.924333 
L 125.951183 198.712723 
L 127.036984 201.423099 
L 128.122785 199.770883 
L 129.208586 201.924333 
L 130.294387 198.062975 
L 131.380189 199.808012 
L 132.46599 199.510984 
L 133.551791 197.394663 
L 134.637592 199.399599 
L 135.723393 199.733755 
L 136.809194 196.98625 
L 137.894995 198.30431 
L 138.980797 211.651984 
L 140.066598 212.33886 
L 141.152399 213.359892 
L 142.2382 219.263314 
L 143.324001 210.185411 
L 144.409802 211.429213 
L 145.495604 205.470099 
L 146.581405 208.384681 
L 147.667206 209.554227 
L 148.753007 209.758434 
L 149.838808 208.29186 
L 150.924609 211.243571 
L 152.01041 206.899544 
L 153.096212 211.651984 
L 154.182013 213.823998 
L 155.267814 206.713902 
L 156.353615 206.138411 
L 157.439416 208.087654 
L 158.525217 210.66808 
L 159.611019 210.742337 
L 160.69682 209.999768 
L 161.782621 208.848787 
L 162.868422 208.477502 
L 163.954223 209.034429 
L 165.040024 204.300553 
L 166.125825 208.960172 
L 168.297428 203.817883 
L 169.383229 206.658209 
L 170.46903 203.817883 
L 171.554831 205.043122 
L 172.640632 206.082718 
L 173.726434 206.379746 
L 174.812235 202.889672 
L 175.898036 201.812948 
L 176.983837 205.507227 
L 178.069638 203.075314 
L 179.155439 203.855012 
L 180.24124 200.643402 
L 181.327042 200.049347 
L 182.412843 199.789448 
L 183.498644 201.775819 
L 184.584445 198.545645 
L 185.670246 201.99859 
L 186.756047 201.64587 
L 187.841849 199.548113 
L 188.92765 200.402067 
L 190.013451 202.072847 
L 191.099252 199.826576 
L 192.185053 199.343906 
L 193.270854 201.1632 
L 194.356656 199.640934 
L 195.442457 196.837737 
L 196.528258 199.381035 
L 197.614059 197.933026 
L 198.69986 200.884737 
L 199.785661 199.529548 
L 201.957264 195.853833 
L 203.043065 196.336503 
L 204.128866 195.389728 
L 205.214667 195.612498 
L 206.300468 196.150861 
L 207.386269 195.204085 
L 208.472071 195.185521 
L 210.643673 194.090232 
L 211.729474 194.201617 
L 212.815275 193.811769 
L 213.901076 193.811769 
L 214.986877 194.313003 
L 216.072679 193.756076 
L 217.15848 194.108796 
L 218.244281 193.459049 
L 219.330082 193.143457 
L 220.415883 194.25731 
L 221.501684 193.459049 
L 222.587486 193.087764 
L 223.673287 194.572902 
L 224.759088 192.623659 
L 225.844889 211.0208 
L 226.93069 206.008461 
L 228.016491 211.911883 
L 229.102292 210.853722 
L 230.188094 212.078961 
L 231.273895 210.148282 
L 232.359696 207.790626 
L 233.445497 210.705209 
L 235.617099 207.80919 
L 236.702901 209.591356 
L 237.788702 210.148282 
L 238.874503 206.639645 
L 241.046105 212.914351 
L 242.131906 211.225007 
L 243.217708 208.013397 
L 244.303509 213.025736 
L 245.38931 209.015865 
L 246.475111 207.307957 
L 247.560912 207.902012 
L 248.646713 212.264603 
L 249.732514 208.143346 
L 250.818316 207.920576 
L 251.904117 204.02209 
L 252.989918 206.212668 
L 254.075719 204.690402 
L 255.16152 206.008461 
L 256.247321 205.08025 
L 257.333123 206.602516 
L 258.418924 210.259667 
L 259.504725 203.335214 
L 261.676327 205.303021 
L 262.762128 201.107507 
L 263.847929 204.634709 
L 264.933731 206.973801 
L 266.019532 210.593823 
L 267.105333 204.059218 
L 268.191134 205.674305 
L 269.276935 206.936672 
L 270.362736 213.953947 
L 271.448538 206.732466 
L 272.534339 213.248507 
L 273.62014 204.114911 
L 274.705941 209.944076 
L 275.791742 208.254732 
L 276.877543 203.799319 
L 277.963344 203.168136 
L 279.049146 209.294328 
L 280.134947 204.968865 
L 281.220748 207.920576 
L 282.306549 204.319117 
L 283.39235 204.114911 
L 284.478151 211.132186 
L 285.563953 207.196571 
L 286.649754 201.441663 
L 287.735555 209.015865 
L 288.821356 205.321585 
L 289.907157 205.08025 
L 290.992958 203.372342 
L 292.07876 205.117379 
L 293.164561 204.003525 
L 294.250362 203.446599 
L 295.336163 205.247328 
L 296.421964 201.348842 
L 297.507765 207.734934 
L 298.593566 201.256021 
L 299.679368 202.592645 
L 300.765169 205.08025 
L 301.85097 202.091411 
L 302.936771 204.263425 
L 304.022572 204.189168 
L 305.108373 204.579016 
L 306.194175 200.903301 
L 307.279976 201.553048 
L 308.365777 203.557984 
L 309.451578 203.075314 
L 310.537379 203.465163 
L 311.62318 202.778287 
L 312.708981 202.629773 
L 313.794783 200.606273 
L 314.880584 205.005993 
L 315.966385 202.555516 
L 317.052186 199.640934 
L 318.137987 200.754787 
L 319.223788 204.411938 
L 320.30959 202.017154 
L 321.395391 203.260957 
L 322.481192 198.527081 
L 323.566993 200.012218 
L 324.652794 200.32781 
L 325.738595 200.81048 
L 326.824396 202.444131 
L 327.910198 197.728819 
L 328.995999 200.791915 
L 330.0818 200.624837 
L 331.167601 202.314181 
L 332.253402 201.682998 
L 333.339203 202.369874 
L 334.425005 203.557984 
L 335.510806 201.497356 
L 336.596607 201.218892 
L 337.682408 198.415695 
L 338.768209 197.246149 
L 339.85401 201.03325 
L 340.939811 199.900833 
L 342.025613 196.63353 
L 343.111414 195.018443 
L 344.197215 196.63353 
L 345.283016 195.57537 
L 346.368817 198.972622 
L 347.454618 197.970154 
L 348.54042 197.283278 
L 350.712022 196.63353 
L 351.797823 195.22265 
L 352.883624 195.074136 
L 353.969425 192.438017 
L 355.055227 194.145925 
L 356.141028 194.832801 
L 357.226829 194.053104 
L 358.31263 194.053104 
L 359.398431 194.368695 
L 360.484232 195.593934 
L 361.570033 194.61003 
L 362.655835 194.424388 
L 363.741636 195.074136 
L 364.827437 193.978847 
L 365.913238 194.851365 
L 368.08484 195.612498 
L 369.170642 194.721416 
L 371.342244 194.61003 
L 372.428045 196.949122 
L 373.513846 194.777108 
L 374.599647 196.020911 
L 375.685448 194.442952 
L 376.77125 197.190457 
L 377.857051 195.241214 
L 378.942852 194.554338 
L 380.028653 197.710255 
L 381.114454 196.652094 
L 382.200255 194.96275 
L 383.286057 197.561741 
L 384.371858 197.357535 
L 386.54346 196.392195 
L 387.629261 197.153328 
L 388.715062 197.134764 
L 389.800863 198.007282 
L 390.886665 194.665723 
L 391.972466 193.607562 
L 393.058267 192.753608 
L 394.144068 196.447888 
L 395.229869 195.538241 
L 396.31567 194.888494 
L 397.401472 197.320406 
L 398.487273 197.301842 
L 398.487273 197.301842 
" clip-path="url(#p084e1f7eda)" style="fill: none; stroke: #2ca02c; stroke-width: 1.5; stroke-linecap: square"/>
   </g>
   <g id="line2d_19">
    <path d="M 368.08484 121.686991 
L 369.170642 121.848499 
L 370.256443 121.5524 
L 371.342244 121.767745 
L 372.428045 122.682961 
L 373.513846 122.198435 
L 374.599647 123.678932 
L 375.685448 122.41378 
L 376.77125 123.27516 
L 377.857051 123.40975 
L 378.942852 123.948113 
L 380.028653 122.898306 
L 381.114454 123.786604 
L 382.200255 123.302078 
L 383.286057 125.590118 
L 384.371858 125.590118 
L 385.457659 127.070614 
L 386.54346 126.478416 
L 387.629261 125.724709 
L 388.715062 125.13251 
L 389.800863 126.289989 
L 390.886665 124.405721 
L 391.972466 127.097533 
L 393.058267 128.901047 
L 394.144068 128.578029 
L 395.229869 128.066585 
L 396.31567 128.766456 
L 397.401472 131.269841 
L 398.487273 129.412491 
L 398.487273 129.412491 
" clip-path="url(#p084e1f7eda)" style="fill: none; stroke: #d62728; stroke-width: 1.5; stroke-linecap: square"/>
   </g>
   <g id="line2d_20">
    <path d="M 368.08484 194.591466 
L 369.170642 195.111264 
L 370.256443 194.851365 
L 371.342244 193.254842 
L 372.428045 195.334035 
L 373.513846 196.039475 
L 374.599647 197.283278 
L 375.685448 197.041943 
L 376.77125 198.137232 
L 377.857051 196.076604 
L 378.942852 197.580305 
L 380.028653 195.296906 
L 381.114454 195.742448 
L 382.200255 197.301842 
L 383.286057 198.43426 
L 385.457659 199.640934 
L 386.54346 198.694159 
L 387.629261 197.580305 
L 388.715062 199.585241 
L 389.800863 196.949122 
L 390.886665 195.779576 
L 391.972466 198.155796 
L 393.058267 198.267182 
L 394.144068 196.837737 
L 396.31567 201.293149 
L 397.401472 202.666902 
L 398.487273 200.234989 
L 398.487273 200.234989 
" clip-path="url(#p084e1f7eda)" style="fill: none; stroke: #9467bd; stroke-width: 1.5; stroke-linecap: square"/>
   </g>
   <g id="patch_3">
    <path d="M 57.6 307.584 
L 57.6 41.472 
" style="fill: none; stroke: #000000; stroke-width: 0.8; stroke-linejoin: miter; stroke-linecap: square"/>
   </g>
   <g id="patch_4">
    <path d="M 414.72 307.584 
L 414.72 41.472 
" style="fill: none; stroke: #000000; stroke-width: 0.8; stroke-linejoin: miter; stroke-linecap: square"/>
   </g>
   <g id="patch_5">
    <path d="M 57.6 307.584 
L 414.72 307.584 
" style="fill: none; stroke: #000000; stroke-width: 0.8; stroke-linejoin: miter; stroke-linecap: square"/>
   </g>
   <g id="patch_6">
    <path d="M 57.6 41.472 
L 414.72 41.472 
" style="fill: none; stroke: #000000; stroke-width: 0.8; stroke-linejoin: miter; stroke-linecap: square"/>
   </g>
   <g id="text_18">
    <!-- Learning Curves -->
    <g transform="translate(187.37625 35.472) scale(0.12 -0.12)">
     <defs>
      <path id="DejaVuSans-4c" d="M 628 4666 
L 1259 4666 
L 1259 531 
L 3531 531 
L 3531 0 
L 628 0 
L 628 4666 
z
" transform="scale(0.015625)"/>
      <path id="DejaVuSans-65" d="M 3597 1894 
L 3597 1613 
L 953 1613 
Q 991 1019 1311 708 
Q 1631 397 2203 397 
Q 2534 397 2845 478 
Q 3156 559 3463 722 
L 3463 178 
Q 3153 47 2828 -22 
Q 2503 -91 2169 -91 
Q 1331 -91 842 396 
Q 353 884 353 1716 
Q 353 2575 817 3079 
Q 1281 3584 2069 3584 
Q 2775 3584 3186 3129 
Q 3597 2675 3597 1894 
z
M 3022 2063 
Q 3016 2534 2758 2815 
Q 2500 3097 2075 3097 
Q 1594 3097 1305 2825 
Q 1016 2553 972 2059 
L 3022 2063 
z
" transform="scale(0.015625)"/>
      <path id="DejaVuSans-6e" d="M 3513 2113 
L 3513 0 
L 2938 0 
L 2938 2094 
Q 2938 2591 2744 2837 
Q 2550 3084 2163 3084 
Q 1697 3084 1428 2787 
Q 1159 2491 1159 1978 
L 1159 0 
L 581 0 
L 581 3500 
L 1159 3500 
L 1159 2956 
Q 1366 3272 1645 3428 
Q 1925 3584 2291 3584 
Q 2894 3584 3203 3211 
Q 3513 2838 3513 2113 
z
" transform="scale(0.015625)"/>
      <path id="DejaVuSans-69" d="M 603 3500 
L 1178 3500 
L 1178 0 
L 603 0 
L 603 3500 
z
M 603 4863 
L 1178 4863 
L 1178 4134 
L 603 4134 
L 603 4863 
z
" transform="scale(0.015625)"/>
      <path id="DejaVuSans-67" d="M 2906 1791 
Q 2906 2416 2648 2759 
Q 2391 3103 1925 3103 
Q 1463 3103 1205 2759 
Q 947 2416 947 1791 
Q 947 1169 1205 825 
Q 1463 481 1925 481 
Q 2391 481 2648 825 
Q 2906 1169 2906 1791 
z
M 3481 434 
Q 3481 -459 3084 -895 
Q 2688 -1331 1869 -1331 
Q 1566 -1331 1297 -1286 
Q 1028 -1241 775 -1147 
L 775 -588 
Q 1028 -725 1275 -790 
Q 1522 -856 1778 -856 
Q 2344 -856 2625 -561 
Q 2906 -266 2906 331 
L 2906 616 
Q 2728 306 2450 153 
Q 2172 0 1784 0 
Q 1141 0 747 490 
Q 353 981 353 1791 
Q 353 2603 747 3093 
Q 1141 3584 1784 3584 
Q 2172 3584 2450 3431 
Q 2728 3278 2906 2969 
L 2906 3500 
L 3481 3500 
L 3481 434 
z
" transform="scale(0.015625)"/>
      <path id="DejaVuSans-20" transform="scale(0.015625)"/>
      <path id="DejaVuSans-43" d="M 4122 4306 
L 4122 3641 
Q 3803 3938 3442 4084 
Q 3081 4231 2675 4231 
Q 1875 4231 1450 3742 
Q 1025 3253 1025 2328 
Q 1025 1406 1450 917 
Q 1875 428 2675 428 
Q 3081 428 3442 575 
Q 3803 722 4122 1019 
L 4122 359 
Q 3791 134 3420 21 
Q 3050 -91 2638 -91 
Q 1578 -91 968 557 
Q 359 1206 359 2328 
Q 359 3453 968 4101 
Q 1578 4750 2638 4750 
Q 3056 4750 3426 4639 
Q 3797 4528 4122 4306 
z
" transform="scale(0.015625)"/>
      <path id="DejaVuSans-76" d="M 191 3500 
L 800 3500 
L 1894 563 
L 2988 3500 
L 3597 3500 
L 2284 0 
L 1503 0 
L 191 3500 
z
" transform="scale(0.015625)"/>
     </defs>
     <use xlink:href="#DejaVuSans-4c"/>
     <use xlink:href="#DejaVuSans-65" x="53.962891"/>
     <use xlink:href="#DejaVuSans-61" x="115.486328"/>
     <use xlink:href="#DejaVuSans-72" x="176.765625"/>
     <use xlink:href="#DejaVuSans-6e" x="216.128906"/>
     <use xlink:href="#DejaVuSans-69" x="279.507812"/>
     <use xlink:href="#DejaVuSans-6e" x="307.291016"/>
     <use xlink:href="#DejaVuSans-67" x="370.669922"/>
     <use xlink:href="#DejaVuSans-20" x="434.146484"/>
     <use xlink:href="#DejaVuSans-43" x="465.933594"/>
     <use xlink:href="#DejaVuSans-75" x="535.757812"/>
     <use xlink:href="#DejaVuSans-72" x="599.136719"/>
     <use xlink:href="#DejaVuSans-76" x="640.25"/>
     <use xlink:href="#DejaVuSans-65" x="699.429688"/>
     <use xlink:href="#DejaVuSans-73" x="760.953125"/>
    </g>
   </g>
   <g id="legend_1">
    <g id="patch_7">
     <path d="M 214.18875 302.584 
L 407.72 302.584 
Q 409.72 302.584 409.72 300.584 
L 409.72 228.193375 
Q 409.72 226.193375 407.72 226.193375 
L 214.18875 226.193375 
Q 212.18875 226.193375 212.18875 228.193375 
L 212.18875 300.584 
Q 212.18875 302.584 214.18875 302.584 
z
" style="fill: #ffffff; opacity: 0.8; stroke: #cccccc; stroke-linejoin: miter"/>
    </g>
    <g id="line2d_21">
     <path d="M 216.18875 234.291812 
L 226.18875 234.291812 
L 236.18875 234.291812 
" style="fill: none; stroke: #1f77b4; stroke-width: 1.5; stroke-linecap: square"/>
    </g>
    <g id="text_19">
     <!-- Train Accuracy -->
     <g transform="translate(244.18875 237.791812) scale(0.1 -0.1)">
      <defs>
       <path id="DejaVuSans-54" d="M -19 4666 
L 3928 4666 
L 3928 4134 
L 2272 4134 
L 2272 0 
L 1638 0 
L 1638 4134 
L -19 4134 
L -19 4666 
z
" transform="scale(0.015625)"/>
      </defs>
      <use xlink:href="#DejaVuSans-54"/>
      <use xlink:href="#DejaVuSans-72" x="46.333984"/>
      <use xlink:href="#DejaVuSans-61" x="87.447266"/>
      <use xlink:href="#DejaVuSans-69" x="148.726562"/>
      <use xlink:href="#DejaVuSans-6e" x="176.509766"/>
      <use xlink:href="#DejaVuSans-20" x="239.888672"/>
      <use xlink:href="#DejaVuSans-41" x="271.675781"/>
      <use xlink:href="#DejaVuSans-63" x="338.333984"/>
      <use xlink:href="#DejaVuSans-63" x="393.314453"/>
      <use xlink:href="#DejaVuSans-75" x="448.294922"/>
      <use xlink:href="#DejaVuSans-72" x="511.673828"/>
      <use xlink:href="#DejaVuSans-61" x="552.787109"/>
      <use xlink:href="#DejaVuSans-63" x="614.066406"/>
      <use xlink:href="#DejaVuSans-79" x="669.046875"/>
     </g>
    </g>
    <g id="line2d_22">
     <path d="M 216.18875 248.969937 
L 226.18875 248.969937 
L 236.18875 248.969937 
" style="fill: none; stroke: #ff7f0e; stroke-width: 1.5; stroke-linecap: square"/>
    </g>
    <g id="text_20">
     <!-- Validation Accuracy -->
     <g transform="translate(244.18875 252.469937) scale(0.1 -0.1)">
      <defs>
       <path id="DejaVuSans-56" d="M 1831 0 
L 50 4666 
L 709 4666 
L 2188 738 
L 3669 4666 
L 4325 4666 
L 2547 0 
L 1831 0 
z
" transform="scale(0.015625)"/>
       <path id="DejaVuSans-6c" d="M 603 4863 
L 1178 4863 
L 1178 0 
L 603 0 
L 603 4863 
z
" transform="scale(0.015625)"/>
       <path id="DejaVuSans-64" d="M 2906 2969 
L 2906 4863 
L 3481 4863 
L 3481 0 
L 2906 0 
L 2906 525 
Q 2725 213 2448 61 
Q 2172 -91 1784 -91 
Q 1150 -91 751 415 
Q 353 922 353 1747 
Q 353 2572 751 3078 
Q 1150 3584 1784 3584 
Q 2172 3584 2448 3432 
Q 2725 3281 2906 2969 
z
M 947 1747 
Q 947 1113 1208 752 
Q 1469 391 1925 391 
Q 2381 391 2643 752 
Q 2906 1113 2906 1747 
Q 2906 2381 2643 2742 
Q 2381 3103 1925 3103 
Q 1469 3103 1208 2742 
Q 947 2381 947 1747 
z
" transform="scale(0.015625)"/>
       <path id="DejaVuSans-74" d="M 1172 4494 
L 1172 3500 
L 2356 3500 
L 2356 3053 
L 1172 3053 
L 1172 1153 
Q 1172 725 1289 603 
Q 1406 481 1766 481 
L 2356 481 
L 2356 0 
L 1766 0 
Q 1100 0 847 248 
Q 594 497 594 1153 
L 594 3053 
L 172 3053 
L 172 3500 
L 594 3500 
L 594 4494 
L 1172 4494 
z
" transform="scale(0.015625)"/>
      </defs>
      <use xlink:href="#DejaVuSans-56"/>
      <use xlink:href="#DejaVuSans-61" x="60.658203"/>
      <use xlink:href="#DejaVuSans-6c" x="121.9375"/>
      <use xlink:href="#DejaVuSans-69" x="149.720703"/>
      <use xlink:href="#DejaVuSans-64" x="177.503906"/>
      <use xlink:href="#DejaVuSans-61" x="240.980469"/>
      <use xlink:href="#DejaVuSans-74" x="302.259766"/>
      <use xlink:href="#DejaVuSans-69" x="341.46875"/>
      <use xlink:href="#DejaVuSans-6f" x="369.251953"/>
      <use xlink:href="#DejaVuSans-6e" x="430.433594"/>
      <use xlink:href="#DejaVuSans-20" x="493.8125"/>
      <use xlink:href="#DejaVuSans-41" x="525.599609"/>
      <use xlink:href="#DejaVuSans-63" x="592.257812"/>
      <use xlink:href="#DejaVuSans-63" x="647.238281"/>
      <use xlink:href="#DejaVuSans-75" x="702.21875"/>
      <use xlink:href="#DejaVuSans-72" x="765.597656"/>
      <use xlink:href="#DejaVuSans-61" x="806.710938"/>
      <use xlink:href="#DejaVuSans-63" x="867.990234"/>
      <use xlink:href="#DejaVuSans-79" x="922.970703"/>
     </g>
    </g>
    <g id="line2d_23">
     <path d="M 216.18875 263.648062 
L 226.18875 263.648062 
L 236.18875 263.648062 
" style="fill: none; stroke: #2ca02c; stroke-width: 1.5; stroke-linecap: square"/>
    </g>
    <g id="text_21">
     <!-- Robust Validation Accuracy -->
     <g transform="translate(244.18875 267.148062) scale(0.1 -0.1)">
      <defs>
       <path id="DejaVuSans-52" d="M 2841 2188 
Q 3044 2119 3236 1894 
Q 3428 1669 3622 1275 
L 4263 0 
L 3584 0 
L 2988 1197 
Q 2756 1666 2539 1819 
Q 2322 1972 1947 1972 
L 1259 1972 
L 1259 0 
L 628 0 
L 628 4666 
L 2053 4666 
Q 2853 4666 3247 4331 
Q 3641 3997 3641 3322 
Q 3641 2881 3436 2590 
Q 3231 2300 2841 2188 
z
M 1259 4147 
L 1259 2491 
L 2053 2491 
Q 2509 2491 2742 2702 
Q 2975 2913 2975 3322 
Q 2975 3731 2742 3939 
Q 2509 4147 2053 4147 
L 1259 4147 
z
" transform="scale(0.015625)"/>
       <path id="DejaVuSans-62" d="M 3116 1747 
Q 3116 2381 2855 2742 
Q 2594 3103 2138 3103 
Q 1681 3103 1420 2742 
Q 1159 2381 1159 1747 
Q 1159 1113 1420 752 
Q 1681 391 2138 391 
Q 2594 391 2855 752 
Q 3116 1113 3116 1747 
z
M 1159 2969 
Q 1341 3281 1617 3432 
Q 1894 3584 2278 3584 
Q 2916 3584 3314 3078 
Q 3713 2572 3713 1747 
Q 3713 922 3314 415 
Q 2916 -91 2278 -91 
Q 1894 -91 1617 61 
Q 1341 213 1159 525 
L 1159 0 
L 581 0 
L 581 4863 
L 1159 4863 
L 1159 2969 
z
" transform="scale(0.015625)"/>
      </defs>
      <use xlink:href="#DejaVuSans-52"/>
      <use xlink:href="#DejaVuSans-6f" x="64.982422"/>
      <use xlink:href="#DejaVuSans-62" x="126.164062"/>
      <use xlink:href="#DejaVuSans-75" x="189.640625"/>
      <use xlink:href="#DejaVuSans-73" x="253.019531"/>
      <use xlink:href="#DejaVuSans-74" x="305.119141"/>
      <use xlink:href="#DejaVuSans-20" x="344.328125"/>
      <use xlink:href="#DejaVuSans-56" x="376.115234"/>
      <use xlink:href="#DejaVuSans-61" x="436.773438"/>
      <use xlink:href="#DejaVuSans-6c" x="498.052734"/>
      <use xlink:href="#DejaVuSans-69" x="525.835938"/>
      <use xlink:href="#DejaVuSans-64" x="553.619141"/>
      <use xlink:href="#DejaVuSans-61" x="617.095703"/>
      <use xlink:href="#DejaVuSans-74" x="678.375"/>
      <use xlink:href="#DejaVuSans-69" x="717.583984"/>
      <use xlink:href="#DejaVuSans-6f" x="745.367188"/>
      <use xlink:href="#DejaVuSans-6e" x="806.548828"/>
      <use xlink:href="#DejaVuSans-20" x="869.927734"/>
      <use xlink:href="#DejaVuSans-41" x="901.714844"/>
      <use xlink:href="#DejaVuSans-63" x="968.373047"/>
      <use xlink:href="#DejaVuSans-63" x="1023.353516"/>
      <use xlink:href="#DejaVuSans-75" x="1078.333984"/>
      <use xlink:href="#DejaVuSans-72" x="1141.712891"/>
      <use xlink:href="#DejaVuSans-61" x="1182.826172"/>
      <use xlink:href="#DejaVuSans-63" x="1244.105469"/>
      <use xlink:href="#DejaVuSans-79" x="1299.085938"/>
     </g>
    </g>
    <g id="line2d_24">
     <path d="M 216.18875 278.326188 
L 226.18875 278.326188 
L 236.18875 278.326188 
" style="fill: none; stroke: #d62728; stroke-width: 1.5; stroke-linecap: square"/>
    </g>
    <g id="text_22">
     <!-- SWA Validation Accuracy -->
     <g transform="translate(244.18875 281.826188) scale(0.1 -0.1)">
      <defs>
       <path id="DejaVuSans-53" d="M 3425 4513 
L 3425 3897 
Q 3066 4069 2747 4153 
Q 2428 4238 2131 4238 
Q 1616 4238 1336 4038 
Q 1056 3838 1056 3469 
Q 1056 3159 1242 3001 
Q 1428 2844 1947 2747 
L 2328 2669 
Q 3034 2534 3370 2195 
Q 3706 1856 3706 1288 
Q 3706 609 3251 259 
Q 2797 -91 1919 -91 
Q 1588 -91 1214 -16 
Q 841 59 441 206 
L 441 856 
Q 825 641 1194 531 
Q 1563 422 1919 422 
Q 2459 422 2753 634 
Q 3047 847 3047 1241 
Q 3047 1584 2836 1778 
Q 2625 1972 2144 2069 
L 1759 2144 
Q 1053 2284 737 2584 
Q 422 2884 422 3419 
Q 422 4038 858 4394 
Q 1294 4750 2059 4750 
Q 2388 4750 2728 4690 
Q 3069 4631 3425 4513 
z
" transform="scale(0.015625)"/>
       <path id="DejaVuSans-57" d="M 213 4666 
L 850 4666 
L 1831 722 
L 2809 4666 
L 3519 4666 
L 4500 722 
L 5478 4666 
L 6119 4666 
L 4947 0 
L 4153 0 
L 3169 4050 
L 2175 0 
L 1381 0 
L 213 4666 
z
" transform="scale(0.015625)"/>
      </defs>
      <use xlink:href="#DejaVuSans-53"/>
      <use xlink:href="#DejaVuSans-57" x="63.476562"/>
      <use xlink:href="#DejaVuSans-41" x="156.853516"/>
      <use xlink:href="#DejaVuSans-20" x="225.261719"/>
      <use xlink:href="#DejaVuSans-56" x="257.048828"/>
      <use xlink:href="#DejaVuSans-61" x="317.707031"/>
      <use xlink:href="#DejaVuSans-6c" x="378.986328"/>
      <use xlink:href="#DejaVuSans-69" x="406.769531"/>
      <use xlink:href="#DejaVuSans-64" x="434.552734"/>
      <use xlink:href="#DejaVuSans-61" x="498.029297"/>
      <use xlink:href="#DejaVuSans-74" x="559.308594"/>
      <use xlink:href="#DejaVuSans-69" x="598.517578"/>
      <use xlink:href="#DejaVuSans-6f" x="626.300781"/>
      <use xlink:href="#DejaVuSans-6e" x="687.482422"/>
      <use xlink:href="#DejaVuSans-20" x="750.861328"/>
      <use xlink:href="#DejaVuSans-41" x="782.648438"/>
      <use xlink:href="#DejaVuSans-63" x="849.306641"/>
      <use xlink:href="#DejaVuSans-63" x="904.287109"/>
      <use xlink:href="#DejaVuSans-75" x="959.267578"/>
      <use xlink:href="#DejaVuSans-72" x="1022.646484"/>
      <use xlink:href="#DejaVuSans-61" x="1063.759766"/>
      <use xlink:href="#DejaVuSans-63" x="1125.039062"/>
      <use xlink:href="#DejaVuSans-79" x="1180.019531"/>
     </g>
    </g>
    <g id="line2d_25">
     <path d="M 216.18875 293.004312 
L 226.18875 293.004312 
L 236.18875 293.004312 
" style="fill: none; stroke: #9467bd; stroke-width: 1.5; stroke-linecap: square"/>
    </g>
    <g id="text_23">
     <!-- SWA Robust Validation Accuracy -->
     <g transform="translate(244.18875 296.504312) scale(0.1 -0.1)">
      <use xlink:href="#DejaVuSans-53"/>
      <use xlink:href="#DejaVuSans-57" x="63.476562"/>
      <use xlink:href="#DejaVuSans-41" x="156.853516"/>
      <use xlink:href="#DejaVuSans-20" x="225.261719"/>
      <use xlink:href="#DejaVuSans-52" x="257.048828"/>
      <use xlink:href="#DejaVuSans-6f" x="322.03125"/>
      <use xlink:href="#DejaVuSans-62" x="383.212891"/>
      <use xlink:href="#DejaVuSans-75" x="446.689453"/>
      <use xlink:href="#DejaVuSans-73" x="510.068359"/>
      <use xlink:href="#DejaVuSans-74" x="562.167969"/>
      <use xlink:href="#DejaVuSans-20" x="601.376953"/>
      <use xlink:href="#DejaVuSans-56" x="633.164062"/>
      <use xlink:href="#DejaVuSans-61" x="693.822266"/>
      <use xlink:href="#DejaVuSans-6c" x="755.101562"/>
      <use xlink:href="#DejaVuSans-69" x="782.884766"/>
      <use xlink:href="#DejaVuSans-64" x="810.667969"/>
      <use xlink:href="#DejaVuSans-61" x="874.144531"/>
      <use xlink:href="#DejaVuSans-74" x="935.423828"/>
      <use xlink:href="#DejaVuSans-69" x="974.632812"/>
      <use xlink:href="#DejaVuSans-6f" x="1002.416016"/>
      <use xlink:href="#DejaVuSans-6e" x="1063.597656"/>
      <use xlink:href="#DejaVuSans-20" x="1126.976562"/>
      <use xlink:href="#DejaVuSans-41" x="1158.763672"/>
      <use xlink:href="#DejaVuSans-63" x="1225.421875"/>
      <use xlink:href="#DejaVuSans-63" x="1280.402344"/>
      <use xlink:href="#DejaVuSans-75" x="1335.382812"/>
      <use xlink:href="#DejaVuSans-72" x="1398.761719"/>
      <use xlink:href="#DejaVuSans-61" x="1439.875"/>
      <use xlink:href="#DejaVuSans-63" x="1501.154297"/>
      <use xlink:href="#DejaVuSans-79" x="1556.134766"/>
     </g>
    </g>
   </g>
  </g>
 </g>
 <defs>
  <clipPath id="p084e1f7eda">
   <rect x="57.6" y="41.472" width="357.12" height="266.112"/>
  </clipPath>
 </defs>
</svg>
