<?xml version="1.0" encoding="utf-8" standalone="no"?>
<!DOCTYPE svg PUBLIC "-//W3C//DTD SVG 1.1//EN"
  "http://www.w3.org/Graphics/SVG/1.1/DTD/svg11.dtd">
<svg xmlns:xlink="http://www.w3.org/1999/xlink" width="460.8pt" height="345.6pt" viewBox="0 0 460.8 345.6" xmlns="http://www.w3.org/2000/svg" version="1.1">
 <metadata>
  <rdf:RDF xmlns:dc="http://purl.org/dc/elements/1.1/" xmlns:cc="http://creativecommons.org/ns#" xmlns:rdf="http://www.w3.org/1999/02/22-rdf-syntax-ns#">
   <cc:Work>
    <dc:type rdf:resource="http://purl.org/dc/dcmitype/StillImage"/>
    <dc:date>2025-02-27T00:59:05.430170</dc:date>
    <dc:format>image/svg+xml</dc:format>
    <dc:creator>
     <cc:Agent>
      <dc:title>Matplotlib v3.9.1, https://matplotlib.org/</dc:title>
     </cc:Agent>
    </dc:creator>
   </cc:Work>
  </rdf:RDF>
 </metadata>
 <defs>
  <style type="text/css">*{stroke-linejoin: round; stroke-linecap: butt}</style>
 </defs>
 <g id="figure_1">
  <g id="patch_1">
   <path d="M 0 345.6 
L 460.8 345.6 
L 460.8 0 
L 0 0 
z
" style="fill: #ffffff"/>
  </g>
  <g id="axes_1">
   <g id="patch_2">
    <path d="M 57.6 307.584 
L 414.72 307.584 
L 414.72 41.472 
L 57.6 41.472 
z
" style="fill: #ffffff"/>
   </g>
   <g id="matplotlib.axis_1">
    <g id="xtick_1">
     <g id="line2d_1">
      <defs>
       <path id="mbe4054ec52" d="M 0 0 
L 0 3.5 
" style="stroke: #000000; stroke-width: 0.8"/>
      </defs>
      <g>
       <use xlink:href="#mbe4054ec52" x="73.832727" y="307.584" style="stroke: #000000; stroke-width: 0.8"/>
      </g>
     </g>
     <g id="text_1">
      <!-- 1 -->
      <g transform="translate(70.651477 322.182437) scale(0.1 -0.1)">
       <defs>
        <path id="DejaVuSans-31" d="M 794 531 
L 1825 531 
L 1825 4091 
L 703 3866 
L 703 4441 
L 1819 4666 
L 2450 4666 
L 2450 531 
L 3481 531 
L 3481 0 
L 794 0 
L 794 531 
z
" transform="scale(0.015625)"/>
       </defs>
       <use xlink:href="#DejaVuSans-31"/>
      </g>
     </g>
    </g>
    <g id="xtick_2">
     <g id="line2d_2">
      <g>
       <use xlink:href="#mbe4054ec52" x="109.664165" y="307.584" style="stroke: #000000; stroke-width: 0.8"/>
      </g>
     </g>
     <g id="text_2">
      <!-- 34 -->
      <g transform="translate(103.301665 322.182437) scale(0.1 -0.1)">
       <defs>
        <path id="DejaVuSans-33" d="M 2597 2516 
Q 3050 2419 3304 2112 
Q 3559 1806 3559 1356 
Q 3559 666 3084 287 
Q 2609 -91 1734 -91 
Q 1441 -91 1130 -33 
Q 819 25 488 141 
L 488 750 
Q 750 597 1062 519 
Q 1375 441 1716 441 
Q 2309 441 2620 675 
Q 2931 909 2931 1356 
Q 2931 1769 2642 2001 
Q 2353 2234 1838 2234 
L 1294 2234 
L 1294 2753 
L 1863 2753 
Q 2328 2753 2575 2939 
Q 2822 3125 2822 3475 
Q 2822 3834 2567 4026 
Q 2313 4219 1838 4219 
Q 1578 4219 1281 4162 
Q 984 4106 628 3988 
L 628 4550 
Q 988 4650 1302 4700 
Q 1616 4750 1894 4750 
Q 2613 4750 3031 4423 
Q 3450 4097 3450 3541 
Q 3450 3153 3228 2886 
Q 3006 2619 2597 2516 
z
" transform="scale(0.015625)"/>
        <path id="DejaVuSans-34" d="M 2419 4116 
L 825 1625 
L 2419 1625 
L 2419 4116 
z
M 2253 4666 
L 3047 4666 
L 3047 1625 
L 3713 1625 
L 3713 1100 
L 3047 1100 
L 3047 0 
L 2419 0 
L 2419 1100 
L 313 1100 
L 313 1709 
L 2253 4666 
z
" transform="scale(0.015625)"/>
       </defs>
       <use xlink:href="#DejaVuSans-33"/>
       <use xlink:href="#DejaVuSans-34" x="63.623047"/>
      </g>
     </g>
    </g>
    <g id="xtick_3">
     <g id="line2d_3">
      <g>
       <use xlink:href="#mbe4054ec52" x="145.495604" y="307.584" style="stroke: #000000; stroke-width: 0.8"/>
      </g>
     </g>
     <g id="text_3">
      <!-- 67 -->
      <g transform="translate(139.133104 322.182437) scale(0.1 -0.1)">
       <defs>
        <path id="DejaVuSans-36" d="M 2113 2584 
Q 1688 2584 1439 2293 
Q 1191 2003 1191 1497 
Q 1191 994 1439 701 
Q 1688 409 2113 409 
Q 2538 409 2786 701 
Q 3034 994 3034 1497 
Q 3034 2003 2786 2293 
Q 2538 2584 2113 2584 
z
M 3366 4563 
L 3366 3988 
Q 3128 4100 2886 4159 
Q 2644 4219 2406 4219 
Q 1781 4219 1451 3797 
Q 1122 3375 1075 2522 
Q 1259 2794 1537 2939 
Q 1816 3084 2150 3084 
Q 2853 3084 3261 2657 
Q 3669 2231 3669 1497 
Q 3669 778 3244 343 
Q 2819 -91 2113 -91 
Q 1303 -91 875 529 
Q 447 1150 447 2328 
Q 447 3434 972 4092 
Q 1497 4750 2381 4750 
Q 2619 4750 2861 4703 
Q 3103 4656 3366 4563 
z
" transform="scale(0.015625)"/>
        <path id="DejaVuSans-37" d="M 525 4666 
L 3525 4666 
L 3525 4397 
L 1831 0 
L 1172 0 
L 2766 4134 
L 525 4134 
L 525 4666 
z
" transform="scale(0.015625)"/>
       </defs>
       <use xlink:href="#DejaVuSans-36"/>
       <use xlink:href="#DejaVuSans-37" x="63.623047"/>
      </g>
     </g>
    </g>
    <g id="xtick_4">
     <g id="line2d_4">
      <g>
       <use xlink:href="#mbe4054ec52" x="181.327042" y="307.584" style="stroke: #000000; stroke-width: 0.8"/>
      </g>
     </g>
     <g id="text_4">
      <!-- 100 -->
      <g transform="translate(171.783292 322.182437) scale(0.1 -0.1)">
       <defs>
        <path id="DejaVuSans-30" d="M 2034 4250 
Q 1547 4250 1301 3770 
Q 1056 3291 1056 2328 
Q 1056 1369 1301 889 
Q 1547 409 2034 409 
Q 2525 409 2770 889 
Q 3016 1369 3016 2328 
Q 3016 3291 2770 3770 
Q 2525 4250 2034 4250 
z
M 2034 4750 
Q 2819 4750 3233 4129 
Q 3647 3509 3647 2328 
Q 3647 1150 3233 529 
Q 2819 -91 2034 -91 
Q 1250 -91 836 529 
Q 422 1150 422 2328 
Q 422 3509 836 4129 
Q 1250 4750 2034 4750 
z
" transform="scale(0.015625)"/>
       </defs>
       <use xlink:href="#DejaVuSans-31"/>
       <use xlink:href="#DejaVuSans-30" x="63.623047"/>
       <use xlink:href="#DejaVuSans-30" x="127.246094"/>
      </g>
     </g>
    </g>
    <g id="xtick_5">
     <g id="line2d_5">
      <g>
       <use xlink:href="#mbe4054ec52" x="217.15848" y="307.584" style="stroke: #000000; stroke-width: 0.8"/>
      </g>
     </g>
     <g id="text_5">
      <!-- 133 -->
      <g transform="translate(207.61473 322.182437) scale(0.1 -0.1)">
       <use xlink:href="#DejaVuSans-31"/>
       <use xlink:href="#DejaVuSans-33" x="63.623047"/>
       <use xlink:href="#DejaVuSans-33" x="127.246094"/>
      </g>
     </g>
    </g>
    <g id="xtick_6">
     <g id="line2d_6">
      <g>
       <use xlink:href="#mbe4054ec52" x="254.075719" y="307.584" style="stroke: #000000; stroke-width: 0.8"/>
      </g>
     </g>
     <g id="text_6">
      <!-- 167 -->
      <g transform="translate(244.531969 322.182437) scale(0.1 -0.1)">
       <use xlink:href="#DejaVuSans-31"/>
       <use xlink:href="#DejaVuSans-36" x="63.623047"/>
       <use xlink:href="#DejaVuSans-37" x="127.246094"/>
      </g>
     </g>
    </g>
    <g id="xtick_7">
     <g id="line2d_7">
      <g>
       <use xlink:href="#mbe4054ec52" x="289.907157" y="307.584" style="stroke: #000000; stroke-width: 0.8"/>
      </g>
     </g>
     <g id="text_7">
      <!-- 200 -->
      <g transform="translate(280.363407 322.182437) scale(0.1 -0.1)">
       <defs>
        <path id="DejaVuSans-32" d="M 1228 531 
L 3431 531 
L 3431 0 
L 469 0 
L 469 531 
Q 828 903 1448 1529 
Q 2069 2156 2228 2338 
Q 2531 2678 2651 2914 
Q 2772 3150 2772 3378 
Q 2772 3750 2511 3984 
Q 2250 4219 1831 4219 
Q 1534 4219 1204 4116 
Q 875 4013 500 3803 
L 500 4441 
Q 881 4594 1212 4672 
Q 1544 4750 1819 4750 
Q 2544 4750 2975 4387 
Q 3406 4025 3406 3419 
Q 3406 3131 3298 2873 
Q 3191 2616 2906 2266 
Q 2828 2175 2409 1742 
Q 1991 1309 1228 531 
z
" transform="scale(0.015625)"/>
       </defs>
       <use xlink:href="#DejaVuSans-32"/>
       <use xlink:href="#DejaVuSans-30" x="63.623047"/>
       <use xlink:href="#DejaVuSans-30" x="127.246094"/>
      </g>
     </g>
    </g>
    <g id="xtick_8">
     <g id="line2d_8">
      <g>
       <use xlink:href="#mbe4054ec52" x="325.738595" y="307.584" style="stroke: #000000; stroke-width: 0.8"/>
      </g>
     </g>
     <g id="text_8">
      <!-- 233 -->
      <g transform="translate(316.194845 322.182437) scale(0.1 -0.1)">
       <use xlink:href="#DejaVuSans-32"/>
       <use xlink:href="#DejaVuSans-33" x="63.623047"/>
       <use xlink:href="#DejaVuSans-33" x="127.246094"/>
      </g>
     </g>
    </g>
    <g id="xtick_9">
     <g id="line2d_9">
      <g>
       <use xlink:href="#mbe4054ec52" x="361.570033" y="307.584" style="stroke: #000000; stroke-width: 0.8"/>
      </g>
     </g>
     <g id="text_9">
      <!-- 266 -->
      <g transform="translate(352.026283 322.182437) scale(0.1 -0.1)">
       <use xlink:href="#DejaVuSans-32"/>
       <use xlink:href="#DejaVuSans-36" x="63.623047"/>
       <use xlink:href="#DejaVuSans-36" x="127.246094"/>
      </g>
     </g>
    </g>
    <g id="xtick_10">
     <g id="line2d_10">
      <g>
       <use xlink:href="#mbe4054ec52" x="398.487273" y="307.584" style="stroke: #000000; stroke-width: 0.8"/>
      </g>
     </g>
     <g id="text_10">
      <!-- 300 -->
      <g transform="translate(388.943523 322.182437) scale(0.1 -0.1)">
       <use xlink:href="#DejaVuSans-33"/>
       <use xlink:href="#DejaVuSans-30" x="63.623047"/>
       <use xlink:href="#DejaVuSans-30" x="127.246094"/>
      </g>
     </g>
    </g>
    <g id="text_11">
     <!-- Epochs -->
     <g transform="translate(218.244375 335.860562) scale(0.1 -0.1)">
      <defs>
       <path id="DejaVuSans-45" d="M 628 4666 
L 3578 4666 
L 3578 4134 
L 1259 4134 
L 1259 2753 
L 3481 2753 
L 3481 2222 
L 1259 2222 
L 1259 531 
L 3634 531 
L 3634 0 
L 628 0 
L 628 4666 
z
" transform="scale(0.015625)"/>
       <path id="DejaVuSans-70" d="M 1159 525 
L 1159 -1331 
L 581 -1331 
L 581 3500 
L 1159 3500 
L 1159 2969 
Q 1341 3281 1617 3432 
Q 1894 3584 2278 3584 
Q 2916 3584 3314 3078 
Q 3713 2572 3713 1747 
Q 3713 922 3314 415 
Q 2916 -91 2278 -91 
Q 1894 -91 1617 61 
Q 1341 213 1159 525 
z
M 3116 1747 
Q 3116 2381 2855 2742 
Q 2594 3103 2138 3103 
Q 1681 3103 1420 2742 
Q 1159 2381 1159 1747 
Q 1159 1113 1420 752 
Q 1681 391 2138 391 
Q 2594 391 2855 752 
Q 3116 1113 3116 1747 
z
" transform="scale(0.015625)"/>
       <path id="DejaVuSans-6f" d="M 1959 3097 
Q 1497 3097 1228 2736 
Q 959 2375 959 1747 
Q 959 1119 1226 758 
Q 1494 397 1959 397 
Q 2419 397 2687 759 
Q 2956 1122 2956 1747 
Q 2956 2369 2687 2733 
Q 2419 3097 1959 3097 
z
M 1959 3584 
Q 2709 3584 3137 3096 
Q 3566 2609 3566 1747 
Q 3566 888 3137 398 
Q 2709 -91 1959 -91 
Q 1206 -91 779 398 
Q 353 888 353 1747 
Q 353 2609 779 3096 
Q 1206 3584 1959 3584 
z
" transform="scale(0.015625)"/>
       <path id="DejaVuSans-63" d="M 3122 3366 
L 3122 2828 
Q 2878 2963 2633 3030 
Q 2388 3097 2138 3097 
Q 1578 3097 1268 2742 
Q 959 2388 959 1747 
Q 959 1106 1268 751 
Q 1578 397 2138 397 
Q 2388 397 2633 464 
Q 2878 531 3122 666 
L 3122 134 
Q 2881 22 2623 -34 
Q 2366 -91 2075 -91 
Q 1284 -91 818 406 
Q 353 903 353 1747 
Q 353 2603 823 3093 
Q 1294 3584 2113 3584 
Q 2378 3584 2631 3529 
Q 2884 3475 3122 3366 
z
" transform="scale(0.015625)"/>
       <path id="DejaVuSans-68" d="M 3513 2113 
L 3513 0 
L 2938 0 
L 2938 2094 
Q 2938 2591 2744 2837 
Q 2550 3084 2163 3084 
Q 1697 3084 1428 2787 
Q 1159 2491 1159 1978 
L 1159 0 
L 581 0 
L 581 4863 
L 1159 4863 
L 1159 2956 
Q 1366 3272 1645 3428 
Q 1925 3584 2291 3584 
Q 2894 3584 3203 3211 
Q 3513 2838 3513 2113 
z
" transform="scale(0.015625)"/>
       <path id="DejaVuSans-73" d="M 2834 3397 
L 2834 2853 
Q 2591 2978 2328 3040 
Q 2066 3103 1784 3103 
Q 1356 3103 1142 2972 
Q 928 2841 928 2578 
Q 928 2378 1081 2264 
Q 1234 2150 1697 2047 
L 1894 2003 
Q 2506 1872 2764 1633 
Q 3022 1394 3022 966 
Q 3022 478 2636 193 
Q 2250 -91 1575 -91 
Q 1294 -91 989 -36 
Q 684 19 347 128 
L 347 722 
Q 666 556 975 473 
Q 1284 391 1588 391 
Q 1994 391 2212 530 
Q 2431 669 2431 922 
Q 2431 1156 2273 1281 
Q 2116 1406 1581 1522 
L 1381 1569 
Q 847 1681 609 1914 
Q 372 2147 372 2553 
Q 372 3047 722 3315 
Q 1072 3584 1716 3584 
Q 2034 3584 2315 3537 
Q 2597 3491 2834 3397 
z
" transform="scale(0.015625)"/>
      </defs>
      <use xlink:href="#DejaVuSans-45"/>
      <use xlink:href="#DejaVuSans-70" x="63.183594"/>
      <use xlink:href="#DejaVuSans-6f" x="126.660156"/>
      <use xlink:href="#DejaVuSans-63" x="187.841797"/>
      <use xlink:href="#DejaVuSans-68" x="242.822266"/>
      <use xlink:href="#DejaVuSans-73" x="306.201172"/>
     </g>
    </g>
   </g>
   <g id="matplotlib.axis_2">
    <g id="ytick_1">
     <g id="line2d_11">
      <defs>
       <path id="m0aba1afaf6" d="M 0 0 
L -3.5 0 
" style="stroke: #000000; stroke-width: 0.8"/>
      </defs>
      <g>
       <use xlink:href="#m0aba1afaf6" x="57.6" y="306.356533" style="stroke: #000000; stroke-width: 0.8"/>
      </g>
     </g>
     <g id="text_12">
      <!-- 0 -->
      <g transform="translate(44.2375 310.155752) scale(0.1 -0.1)">
       <use xlink:href="#DejaVuSans-30"/>
      </g>
     </g>
    </g>
    <g id="ytick_2">
     <g id="line2d_12">
      <g>
       <use xlink:href="#m0aba1afaf6" x="57.6" y="268.301445" style="stroke: #000000; stroke-width: 0.8"/>
      </g>
     </g>
     <g id="text_13">
      <!-- 10 -->
      <g transform="translate(37.875 272.100664) scale(0.1 -0.1)">
       <use xlink:href="#DejaVuSans-31"/>
       <use xlink:href="#DejaVuSans-30" x="63.623047"/>
      </g>
     </g>
    </g>
    <g id="ytick_3">
     <g id="line2d_13">
      <g>
       <use xlink:href="#m0aba1afaf6" x="57.6" y="230.246357" style="stroke: #000000; stroke-width: 0.8"/>
      </g>
     </g>
     <g id="text_14">
      <!-- 20 -->
      <g transform="translate(37.875 234.045576) scale(0.1 -0.1)">
       <use xlink:href="#DejaVuSans-32"/>
       <use xlink:href="#DejaVuSans-30" x="63.623047"/>
      </g>
     </g>
    </g>
    <g id="ytick_4">
     <g id="line2d_14">
      <g>
       <use xlink:href="#m0aba1afaf6" x="57.6" y="192.191269" style="stroke: #000000; stroke-width: 0.8"/>
      </g>
     </g>
     <g id="text_15">
      <!-- 30 -->
      <g transform="translate(37.875 195.990488) scale(0.1 -0.1)">
       <use xlink:href="#DejaVuSans-33"/>
       <use xlink:href="#DejaVuSans-30" x="63.623047"/>
      </g>
     </g>
    </g>
    <g id="ytick_5">
     <g id="line2d_15">
      <g>
       <use xlink:href="#m0aba1afaf6" x="57.6" y="154.136181" style="stroke: #000000; stroke-width: 0.8"/>
      </g>
     </g>
     <g id="text_16">
      <!-- 40 -->
      <g transform="translate(37.875 157.9354) scale(0.1 -0.1)">
       <use xlink:href="#DejaVuSans-34"/>
       <use xlink:href="#DejaVuSans-30" x="63.623047"/>
      </g>
     </g>
    </g>
    <g id="ytick_6">
     <g id="line2d_16">
      <g>
       <use xlink:href="#m0aba1afaf6" x="57.6" y="116.081093" style="stroke: #000000; stroke-width: 0.8"/>
      </g>
     </g>
     <g id="text_17">
      <!-- 50 -->
      <g transform="translate(37.875 119.880312) scale(0.1 -0.1)">
       <defs>
        <path id="DejaVuSans-35" d="M 691 4666 
L 3169 4666 
L 3169 4134 
L 1269 4134 
L 1269 2991 
Q 1406 3038 1543 3061 
Q 1681 3084 1819 3084 
Q 2600 3084 3056 2656 
Q 3513 2228 3513 1497 
Q 3513 744 3044 326 
Q 2575 -91 1722 -91 
Q 1428 -91 1123 -41 
Q 819 9 494 109 
L 494 744 
Q 775 591 1075 516 
Q 1375 441 1709 441 
Q 2250 441 2565 725 
Q 2881 1009 2881 1497 
Q 2881 1984 2565 2268 
Q 2250 2553 1709 2553 
Q 1456 2553 1204 2497 
Q 953 2441 691 2322 
L 691 4666 
z
" transform="scale(0.015625)"/>
       </defs>
       <use xlink:href="#DejaVuSans-35"/>
       <use xlink:href="#DejaVuSans-30" x="63.623047"/>
      </g>
     </g>
    </g>
    <g id="ytick_7">
     <g id="line2d_17">
      <g>
       <use xlink:href="#m0aba1afaf6" x="57.6" y="78.026005" style="stroke: #000000; stroke-width: 0.8"/>
      </g>
     </g>
     <g id="text_18">
      <!-- 60 -->
      <g transform="translate(37.875 81.825224) scale(0.1 -0.1)">
       <use xlink:href="#DejaVuSans-36"/>
       <use xlink:href="#DejaVuSans-30" x="63.623047"/>
      </g>
     </g>
    </g>
    <g id="text_19">
     <!-- Accuracy -->
     <g transform="translate(31.795312 197.356125) rotate(-90) scale(0.1 -0.1)">
      <defs>
       <path id="DejaVuSans-41" d="M 2188 4044 
L 1331 1722 
L 3047 1722 
L 2188 4044 
z
M 1831 4666 
L 2547 4666 
L 4325 0 
L 3669 0 
L 3244 1197 
L 1141 1197 
L 716 0 
L 50 0 
L 1831 4666 
z
" transform="scale(0.015625)"/>
       <path id="DejaVuSans-75" d="M 544 1381 
L 544 3500 
L 1119 3500 
L 1119 1403 
Q 1119 906 1312 657 
Q 1506 409 1894 409 
Q 2359 409 2629 706 
Q 2900 1003 2900 1516 
L 2900 3500 
L 3475 3500 
L 3475 0 
L 2900 0 
L 2900 538 
Q 2691 219 2414 64 
Q 2138 -91 1772 -91 
Q 1169 -91 856 284 
Q 544 659 544 1381 
z
M 1991 3584 
L 1991 3584 
z
" transform="scale(0.015625)"/>
       <path id="DejaVuSans-72" d="M 2631 2963 
Q 2534 3019 2420 3045 
Q 2306 3072 2169 3072 
Q 1681 3072 1420 2755 
Q 1159 2438 1159 1844 
L 1159 0 
L 581 0 
L 581 3500 
L 1159 3500 
L 1159 2956 
Q 1341 3275 1631 3429 
Q 1922 3584 2338 3584 
Q 2397 3584 2469 3576 
Q 2541 3569 2628 3553 
L 2631 2963 
z
" transform="scale(0.015625)"/>
       <path id="DejaVuSans-61" d="M 2194 1759 
Q 1497 1759 1228 1600 
Q 959 1441 959 1056 
Q 959 750 1161 570 
Q 1363 391 1709 391 
Q 2188 391 2477 730 
Q 2766 1069 2766 1631 
L 2766 1759 
L 2194 1759 
z
M 3341 1997 
L 3341 0 
L 2766 0 
L 2766 531 
Q 2569 213 2275 61 
Q 1981 -91 1556 -91 
Q 1019 -91 701 211 
Q 384 513 384 1019 
Q 384 1609 779 1909 
Q 1175 2209 1959 2209 
L 2766 2209 
L 2766 2266 
Q 2766 2663 2505 2880 
Q 2244 3097 1772 3097 
Q 1472 3097 1187 3025 
Q 903 2953 641 2809 
L 641 3341 
Q 956 3463 1253 3523 
Q 1550 3584 1831 3584 
Q 2591 3584 2966 3190 
Q 3341 2797 3341 1997 
z
" transform="scale(0.015625)"/>
       <path id="DejaVuSans-79" d="M 2059 -325 
Q 1816 -950 1584 -1140 
Q 1353 -1331 966 -1331 
L 506 -1331 
L 506 -850 
L 844 -850 
Q 1081 -850 1212 -737 
Q 1344 -625 1503 -206 
L 1606 56 
L 191 3500 
L 800 3500 
L 1894 763 
L 2988 3500 
L 3597 3500 
L 2059 -325 
z
" transform="scale(0.015625)"/>
      </defs>
      <use xlink:href="#DejaVuSans-41"/>
      <use xlink:href="#DejaVuSans-63" x="66.658203"/>
      <use xlink:href="#DejaVuSans-63" x="121.638672"/>
      <use xlink:href="#DejaVuSans-75" x="176.619141"/>
      <use xlink:href="#DejaVuSans-72" x="239.998047"/>
      <use xlink:href="#DejaVuSans-61" x="281.111328"/>
      <use xlink:href="#DejaVuSans-63" x="342.390625"/>
      <use xlink:href="#DejaVuSans-79" x="397.371094"/>
     </g>
    </g>
   </g>
   <g id="line2d_18">
    <path d="M 73.832727 295.488 
L 77.090131 255.06208 
L 78.175932 244.44471 
L 80.347534 226.783344 
L 83.604938 206.180319 
L 84.690739 200.220893 
L 85.77654 195.836947 
L 86.862341 190.642427 
L 87.948142 184.888498 
L 89.033943 180.710049 
L 91.205546 173.875355 
L 92.291347 170.823337 
L 94.462949 168.258424 
L 95.54875 200.696581 
L 96.634552 198.36761 
L 97.720353 195.170982 
L 98.806154 191.570971 
L 99.891955 188.412399 
L 100.977756 184.812388 
L 104.23516 177.144287 
L 106.406762 170.80431 
L 107.492563 169.225023 
L 108.578364 165.518458 
L 109.664165 163.920144 
L 110.749967 160.487575 
L 112.921569 155.58608 
L 114.00737 154.143792 
L 115.093171 150.045259 
L 116.178972 148.652443 
L 117.264773 144.942072 
L 118.350575 142.643545 
L 119.436376 139.816051 
L 120.522177 138.1226 
L 123.77958 129.879868 
L 124.865382 128.62405 
L 125.951183 125.298035 
L 127.036984 123.859553 
L 128.122785 121.153836 
L 129.208586 119.232054 
L 130.294387 116.739446 
L 131.380189 115.921262 
L 132.46599 113.908148 
L 133.551791 112.800744 
L 134.637592 111.990171 
L 135.723393 111.548732 
L 137.894995 109.722088 
L 138.980797 156.312932 
L 140.066598 159.642752 
L 141.152399 158.265158 
L 142.2382 157.169172 
L 145.495604 152.937446 
L 146.581405 151.616934 
L 147.667206 150.72264 
L 149.838808 147.815231 
L 152.01041 145.29979 
L 153.096212 144.439745 
L 154.182013 142.388575 
L 155.267814 142.137412 
L 156.353615 141.220284 
L 157.439416 140.06341 
L 158.525217 138.194905 
L 159.611019 136.843949 
L 160.69682 136.444371 
L 161.782621 135.500604 
L 162.868422 133.453241 
L 165.040024 131.980509 
L 166.125825 130.53061 
L 167.211627 128.703966 
L 168.297428 128.331026 
L 169.383229 126.588103 
L 170.46903 125.191481 
L 171.554831 124.594016 
L 172.640632 123.520863 
L 173.726434 121.340306 
L 174.812235 122.383016 
L 175.898036 119.985545 
L 178.069638 117.314078 
L 179.155439 115.746208 
L 180.24124 114.673055 
L 181.327042 114.319143 
L 182.412843 112.54197 
L 183.498644 109.980862 
L 184.584445 108.146607 
L 185.670246 108.028636 
L 186.756047 106.974511 
L 187.841849 104.911925 
L 188.92765 102.487816 
L 190.013451 102.248069 
L 191.099252 99.90007 
L 192.185053 99.78971 
L 193.270854 98.195202 
L 194.356656 96.912745 
L 195.442457 94.012948 
L 196.528258 92.467911 
L 197.614059 91.470868 
L 198.69986 91.34148 
L 199.785661 89.001092 
L 200.871462 87.307641 
L 201.957264 86.634066 
L 203.043065 84.670423 
L 205.214667 81.991345 
L 206.300468 81.53849 
L 207.386269 79.666179 
L 208.472071 79.080131 
L 209.557872 76.617967 
L 210.643673 76.975685 
L 211.729474 76.028113 
L 212.815275 74.422188 
L 213.901076 73.421339 
L 214.986877 72.858124 
L 216.072679 71.998079 
L 217.15848 70.860232 
L 218.244281 70.289406 
L 220.415883 70.277989 
L 221.501684 69.627247 
L 222.587486 69.239085 
L 223.673287 68.45515 
L 224.759088 68.664453 
L 225.844889 134.30948 
L 226.93069 139.340363 
L 228.016491 138.796175 
L 229.102292 137.612662 
L 230.188094 136.969531 
L 231.273895 135.588131 
L 232.359696 135.451133 
L 233.445497 134.632948 
L 234.531298 133.628294 
L 235.617099 132.947108 
L 237.788702 130.857884 
L 238.874503 130.477333 
L 239.960304 129.514539 
L 241.046105 129.179654 
L 242.131906 128.612634 
L 243.217708 127.547091 
L 244.303509 127.904809 
L 245.38931 127.394871 
L 246.475111 126.367383 
L 247.560912 126.470132 
L 248.646713 125.400784 
L 249.732514 125.10776 
L 250.818316 124.32002 
L 251.904117 123.935663 
L 252.989918 123.185978 
L 254.075719 123.490419 
L 255.16152 122.032909 
L 256.247321 122.394432 
L 257.333123 121.63333 
L 258.418924 121.351723 
L 259.504725 120.316624 
L 260.590526 119.787659 
L 261.676327 119.863769 
L 262.762128 118.547063 
L 263.847929 118.999918 
L 264.933731 118.189345 
L 266.019532 118.900975 
L 267.105333 116.773696 
L 268.191134 117.234162 
L 269.276935 116.336062 
L 270.362736 116.88025 
L 271.448538 114.029924 
L 272.534339 114.459946 
L 273.62014 113.911953 
L 274.705941 114.163117 
L 275.791742 113.824426 
L 276.877543 112.644719 
L 277.963344 112.553386 
L 279.049146 111.952116 
L 280.134947 111.632453 
L 281.220748 110.692493 
L 282.306549 110.418496 
L 283.39235 110.654438 
L 284.478151 109.444286 
L 285.563953 108.827793 
L 286.649754 107.861194 
L 287.735555 107.419755 
L 288.821356 107.256118 
L 289.907157 106.087827 
L 290.992958 105.711082 
L 292.07876 104.394376 
L 293.164561 105.44089 
L 294.250362 103.500081 
L 295.336163 103.888243 
L 296.421964 103.442998 
L 298.593566 101.616354 
L 299.679368 100.84003 
L 300.765169 100.843836 
L 301.85097 99.991402 
L 302.936771 99.75546 
L 304.022572 98.210424 
L 305.108373 97.319935 
L 306.194175 97.106826 
L 307.279976 96.185893 
L 308.365777 96.117394 
L 309.451578 94.659884 
L 310.537379 95.021407 
L 311.62318 93.518231 
L 312.708981 93.681868 
L 313.794783 93.476371 
L 314.880584 92.289052 
L 315.966385 91.988417 
L 317.052186 91.139788 
L 318.137987 90.074246 
L 319.223788 89.164729 
L 320.30959 88.411239 
L 321.395391 87.851829 
L 322.481192 87.684386 
L 323.566993 86.036601 
L 324.652794 85.043363 
L 326.824396 84.891143 
L 327.910198 83.616297 
L 328.995999 81.119884 
L 330.0818 82.143566 
L 331.167601 80.823054 
L 332.253402 80.49578 
L 333.339203 79.780345 
L 334.425005 78.334251 
L 335.510806 78.319029 
L 336.596607 75.902531 
L 337.682408 75.723672 
L 338.768209 75.780755 
L 339.85401 74.570603 
L 340.939811 74.083498 
L 342.025613 72.82768 
L 343.111414 72.272076 
L 344.197215 70.517736 
L 345.283016 70.62429 
L 346.368817 69.006949 
L 347.454618 68.531261 
L 348.54042 66.518146 
L 349.626221 66.704616 
L 350.712022 66.415398 
L 351.797823 65.726601 
L 352.883624 64.253869 
L 353.969425 64.109259 
L 355.055227 62.240755 
L 356.141028 61.395932 
L 357.226829 61.232295 
L 359.398431 59.466539 
L 360.484232 59.203959 
L 361.570033 57.693172 
L 362.655835 56.578157 
L 363.741636 56.37266 
L 365.913238 54.823818 
L 366.999039 53.568 
L 369.170642 57.240316 
L 370.256443 60.174363 
L 371.342244 62.415808 
L 372.428045 64.935055 
L 373.513846 65.494465 
L 374.599647 66.266983 
L 376.77125 66.700811 
L 377.857051 66.114763 
L 378.942852 66.811171 
L 380.028653 66.674172 
L 381.114454 67.317303 
L 382.200255 66.738866 
L 383.286057 67.869102 
L 384.371858 66.590451 
L 385.457659 66.742671 
L 386.54346 67.435274 
L 387.629261 67.214555 
L 389.800863 67.275443 
L 390.886665 68.280097 
L 391.972466 68.11646 
L 393.058267 67.146055 
L 394.144068 67.499968 
L 396.31567 67.804408 
L 397.401472 67.754937 
L 398.487273 68.801452 
L 398.487273 68.801452 
" clip-path="url(#p5c517bec97)" style="fill: none; stroke: #1f77b4; stroke-width: 1.5; stroke-linecap: square"/>
   </g>
   <g id="line2d_19">
    <path d="M 73.832727 280.897679 
L 74.918528 255.667156 
L 76.00433 244.32674 
L 78.175932 204.178622 
L 79.261733 202.998914 
L 80.347534 182.867773 
L 81.433335 181.72612 
L 83.604938 164.753551 
L 84.690739 150.520948 
L 85.77654 146.068502 
L 86.862341 141.121341 
L 87.948142 134.994472 
L 89.033943 131.227018 
L 90.119745 131.607569 
L 91.205546 126.165691 
L 92.291347 125.823196 
L 94.462949 124.262937 
L 95.54875 155.430054 
L 96.634552 150.787333 
L 97.720353 144.203803 
L 98.806154 138.305264 
L 99.891955 140.550515 
L 100.977756 139.332752 
L 102.063557 135.565298 
L 103.149358 128.525107 
L 104.23516 124.719598 
L 105.320961 123.53989 
L 106.406762 118.326343 
L 107.492563 114.825275 
L 108.578364 118.098013 
L 109.664165 115.015551 
L 111.835768 106.072605 
L 112.921569 103.370694 
L 114.00737 103.332639 
L 115.093171 101.962655 
L 116.178972 101.087388 
L 117.264773 96.064117 
L 118.350575 94.846354 
L 119.436376 91.649727 
L 120.522177 91.878057 
L 121.607978 86.017574 
L 122.693779 86.093684 
L 123.77958 85.218417 
L 124.865382 82.668726 
L 125.951183 81.641238 
L 127.036984 78.14017 
L 128.122785 76.275471 
L 129.208586 77.302958 
L 130.294387 76.427691 
L 131.380189 74.601047 
L 132.46599 73.57356 
L 133.551791 73.040789 
L 134.637592 72.926623 
L 135.723393 72.584127 
L 136.809194 72.469962 
L 137.894995 72.469962 
L 138.980797 110.829491 
L 140.066598 112.38975 
L 141.152399 109.725893 
L 142.2382 107.823139 
L 143.324001 104.740677 
L 144.409802 104.664567 
L 145.495604 100.136011 
L 146.581405 100.478507 
L 147.667206 102.419316 
L 148.753007 97.966871 
L 149.838808 98.233257 
L 150.924609 96.216337 
L 153.096212 99.52713 
L 154.182013 95.797731 
L 155.267814 101.353774 
L 156.353615 91.992222 
L 157.439416 96.711053 
L 158.525217 94.047197 
L 159.611019 98.689918 
L 160.69682 93.32415 
L 161.782621 88.871705 
L 162.868422 93.209985 
L 163.954223 87.691997 
L 165.040024 88.072548 
L 166.125825 85.751188 
L 167.211627 87.806163 
L 168.297428 82.820946 
L 169.383229 86.322014 
L 170.46903 88.300879 
L 171.554831 82.021789 
L 172.640632 78.749052 
L 173.726434 78.939327 
L 174.812235 82.744836 
L 175.898036 80.689861 
L 176.983837 79.053492 
L 178.069638 75.89492 
L 179.155439 78.520721 
L 180.24124 78.634886 
L 181.327042 75.932975 
L 182.412843 74.144386 
L 183.498644 74.486882 
L 184.584445 75.932975 
L 185.670246 74.220496 
L 186.756047 73.154954 
L 187.841849 69.768051 
L 188.92765 73.687725 
L 191.099252 66.419203 
L 192.185053 67.14225 
L 193.270854 68.892784 
L 194.356656 67.06614 
L 195.442457 63.907567 
L 196.528258 63.0323 
L 197.614059 67.979462 
L 198.69986 63.412851 
L 199.785661 63.831457 
L 200.871462 61.586207 
L 201.957264 63.641182 
L 204.128866 59.949838 
L 205.214667 58.960406 
L 206.300468 60.86316 
L 207.386269 58.770131 
L 208.472071 58.275414 
L 209.557872 60.406499 
L 210.643673 57.057652 
L 211.729474 56.410715 
L 212.815275 56.52488 
L 213.901076 56.44877 
L 214.986877 56.753211 
L 216.072679 56.29655 
L 217.15848 55.992109 
L 218.244281 56.52488 
L 219.330082 56.068219 
L 220.415883 56.144329 
L 222.587486 55.078787 
L 223.673287 55.573503 
L 224.759088 55.687668 
L 225.844889 105.045118 
L 226.93069 105.653999 
L 228.016491 103.86541 
L 229.102292 96.749108 
L 230.188094 100.326287 
L 231.273895 91.459451 
L 232.359696 93.32415 
L 233.445497 94.085252 
L 234.531298 90.660294 
L 235.617099 92.905544 
L 236.702901 101.277664 
L 237.788702 89.480587 
L 238.874503 87.768108 
L 239.960304 94.694134 
L 241.046105 87.615887 
L 242.131906 89.861137 
L 243.217708 92.791379 
L 244.303509 92.486939 
L 245.38931 90.888625 
L 246.475111 88.186714 
L 247.560912 86.322014 
L 248.646713 96.368557 
L 249.732514 89.594752 
L 250.818316 90.051413 
L 251.904117 89.176146 
L 252.989918 90.77446 
L 254.075719 86.017574 
L 255.16152 87.159226 
L 256.247321 91.383341 
L 257.333123 89.975303 
L 258.418924 81.108467 
L 259.504725 94.351638 
L 260.590526 86.245904 
L 261.676327 86.74062 
L 262.762128 82.021789 
L 263.847929 83.049277 
L 264.933731 86.968951 
L 266.019532 86.207849 
L 267.105333 80.765971 
L 268.191134 87.501722 
L 269.276935 86.51229 
L 270.362736 81.869569 
L 271.448538 78.406556 
L 273.62014 84.837866 
L 274.705941 86.81673 
L 275.791742 84.990086 
L 276.877543 76.579912 
L 277.963344 83.049277 
L 279.049146 81.374853 
L 280.134947 80.651806 
L 281.220748 82.059844 
L 282.306549 81.146522 
L 283.39235 79.966815 
L 284.478151 81.945679 
L 285.563953 79.738484 
L 286.649754 77.98795 
L 287.735555 74.867433 
L 288.821356 78.330446 
L 289.907157 84.64759 
L 290.992958 78.520721 
L 292.07876 81.527073 
L 293.164561 79.928759 
L 294.250362 76.503802 
L 295.336163 77.150738 
L 296.421964 74.486882 
L 297.507765 74.753267 
L 298.593566 75.171873 
L 299.679368 76.123251 
L 300.765169 73.992166 
L 301.85097 74.410772 
L 302.936771 74.334662 
L 304.022572 70.719428 
L 305.108373 71.899136 
L 306.194175 71.176089 
L 307.279976 72.355797 
L 308.365777 75.932975 
L 309.451578 72.469962 
L 310.537379 74.524937 
L 311.62318 73.193009 
L 312.708981 71.099979 
L 313.794783 71.252199 
L 314.880584 70.529153 
L 315.966385 71.823026 
L 317.052186 68.131682 
L 318.137987 70.453043 
L 319.223788 65.962542 
L 320.30959 70.072492 
L 321.395391 70.719428 
L 322.481192 65.543936 
L 323.566993 66.419203 
L 324.652794 65.277551 
L 325.738595 69.273335 
L 326.824396 66.305038 
L 327.910198 65.20144 
L 328.995999 66.152818 
L 330.0818 66.305038 
L 331.167601 63.679237 
L 332.253402 66.076707 
L 333.339203 63.222576 
L 334.425005 64.135898 
L 335.510806 64.592559 
L 336.596607 61.281766 
L 337.682408 62.65175 
L 338.768209 64.82089 
L 339.85401 64.326173 
L 340.939811 62.195088 
L 342.025613 61.281766 
L 344.197215 62.613694 
L 345.283016 63.450906 
L 346.368817 61.928703 
L 347.454618 61.243711 
L 348.54042 58.960406 
L 349.626221 61.433987 
L 350.712022 59.340957 
L 351.797823 58.5418 
L 352.883624 56.905431 
L 353.969425 58.161249 
L 355.055227 56.905431 
L 356.141028 58.351525 
L 357.226829 55.877944 
L 358.31263 57.095707 
L 359.398431 56.334605 
L 360.484232 56.486825 
L 361.570033 57.285982 
L 362.655835 56.677101 
L 363.741636 54.241575 
L 364.827437 56.639046 
L 365.913238 55.611558 
L 366.999039 54.089355 
L 368.08484 55.877944 
L 369.170642 57.438202 
L 370.256443 60.102059 
L 371.342244 59.645398 
L 372.428045 63.298686 
L 373.513846 62.423419 
L 374.599647 63.565072 
L 375.685448 62.80397 
L 376.77125 61.586207 
L 377.857051 60.901215 
L 378.942852 61.281766 
L 380.028653 63.222576 
L 381.114454 62.765915 
L 382.200255 60.025948 
L 384.371858 62.157033 
L 385.457659 61.510097 
L 386.54346 61.015381 
L 387.629261 61.738427 
L 388.715062 62.65175 
L 389.800863 62.918135 
L 390.886665 60.368444 
L 391.972466 63.298686 
L 393.058267 64.82089 
L 394.144068 63.983678 
L 395.229869 64.440339 
L 396.31567 61.205656 
L 397.401472 61.281766 
L 398.487273 61.814538 
L 398.487273 61.814538 
" clip-path="url(#p5c517bec97)" style="fill: none; stroke: #ff7f0e; stroke-width: 1.5; stroke-linecap: square"/>
   </g>
   <g id="line2d_20">
    <path d="M 73.832727 290.084558 
L 74.918528 276.673564 
L 76.00433 272.920572 
L 77.090131 265.440844 
L 78.175932 252.580888 
L 79.261733 256.360139 
L 80.347534 242.450243 
L 81.433335 240.53417 
L 82.519137 239.720932 
L 83.604938 237.647311 
L 84.690739 223.659021 
L 85.77654 228.304406 
L 86.862341 216.992531 
L 87.948142 214.447026 
L 89.033943 210.483969 
L 90.119745 210.352679 
L 92.291347 208.016858 
L 93.377148 207.045692 
L 94.462949 207.59711 
L 95.54875 226.15201 
L 96.634552 224.734839 
L 97.720353 214.552058 
L 98.806154 216.599041 
L 99.891955 218.042471 
L 100.977756 220.457066 
L 102.063557 214.105672 
L 103.149358 215.654134 
L 104.23516 206.652203 
L 105.320961 205.628521 
L 106.406762 201.665844 
L 107.492563 198.306341 
L 108.578364 199.933577 
L 109.664165 204.237607 
L 110.749967 201.429522 
L 111.835768 198.227567 
L 112.921569 190.590292 
L 114.00737 189.540352 
L 115.093171 194.842187 
L 116.178972 190.984162 
L 117.264773 188.306986 
L 118.350575 183.03179 
L 119.436376 179.567635 
L 120.522177 181.168232 
L 121.607978 173.006177 
L 122.693779 175.866778 
L 123.77958 171.720296 
L 124.865382 176.444454 
L 125.951183 176.418196 
L 127.036984 172.822371 
L 128.122785 171.457715 
L 129.208586 170.722872 
L 130.294387 170.854162 
L 131.380189 169.069378 
L 132.46599 169.935512 
L 133.551791 167.232459 
L 134.637592 167.206201 
L 135.723393 167.022395 
L 136.809194 166.418841 
L 137.894995 166.812331 
L 138.980797 194.553348 
L 140.066598 204.578961 
L 141.152399 200.799711 
L 142.2382 190.826614 
L 143.324001 193.608441 
L 144.409802 191.771521 
L 145.495604 187.992271 
L 146.581405 191.115071 
L 147.667206 191.692747 
L 148.753007 184.659026 
L 149.838808 185.630191 
L 150.924609 184.553993 
L 152.01041 189.56661 
L 153.096212 189.383184 
L 154.182013 184.764058 
L 155.267814 193.241209 
L 156.353615 184.999999 
L 157.439416 182.559526 
L 158.525217 185.997423 
L 159.611019 193.083661 
L 160.69682 185.708965 
L 161.782621 177.336846 
L 162.868422 180.223705 
L 163.954223 181.220748 
L 165.040024 178.72776 
L 166.125825 178.097948 
L 167.211627 181.614618 
L 168.297428 179.934867 
L 169.383229 186.181229 
L 170.46903 179.908609 
L 171.554831 174.344574 
L 172.640632 174.370832 
L 173.726434 173.609731 
L 174.812235 174.843477 
L 175.898036 177.992916 
L 178.069638 168.046077 
L 179.155439 170.906678 
L 180.24124 172.743977 
L 181.327042 173.924827 
L 182.412843 164.371858 
L 183.498644 172.979919 
L 184.584445 169.358216 
L 185.670246 173.767279 
L 186.756047 165.762772 
L 187.841849 164.47651 
L 188.92765 163.82044 
L 190.013451 158.178012 
L 191.099252 156.288196 
L 192.185053 160.723517 
L 193.270854 163.637014 
L 194.356656 162.5083 
L 195.442457 159.621441 
L 196.528258 154.792251 
L 197.614059 161.747199 
L 198.69986 156.655808 
L 199.785661 156.865492 
L 200.871462 155.763417 
L 201.957264 158.965372 
L 203.043065 157.652852 
L 204.128866 151.93165 
L 205.214667 154.792251 
L 206.300468 156.419486 
L 207.386269 154.241213 
L 208.472071 156.051874 
L 209.557872 156.209422 
L 210.643673 150.540736 
L 211.729474 152.089198 
L 212.815275 153.138757 
L 213.901076 152.141714 
L 214.986877 151.485264 
L 216.072679 151.721586 
L 217.15848 151.747844 
L 218.244281 150.855452 
L 220.415883 149.832151 
L 221.501684 150.514478 
L 222.587486 150.829194 
L 223.673287 150.435704 
L 224.759088 150.35693 
L 225.844889 189.96048 
L 226.93069 202.531598 
L 228.016491 199.408797 
L 229.102292 185.052515 
L 230.188094 182.585784 
L 231.273895 184.186762 
L 232.359696 189.068088 
L 233.445497 182.664558 
L 234.531298 180.748485 
L 235.617099 183.766634 
L 236.702901 194.500832 
L 237.788702 185.892391 
L 238.874503 185.105031 
L 239.960304 185.813617 
L 241.046105 181.352038 
L 242.131906 179.620151 
L 243.217708 185.288837 
L 244.303509 181.955592 
L 245.38931 179.672287 
L 246.475111 188.543308 
L 247.560912 180.695969 
L 248.646713 188.097067 
L 249.732514 173.058746 
L 250.818316 182.060742 
L 251.904117 174.922133 
L 252.989918 179.383764 
L 254.075719 175.55201 
L 255.16152 179.567478 
L 256.247321 176.523071 
L 257.333123 181.063436 
L 258.418924 170.460502 
L 259.504725 181.5096 
L 260.590526 177.231683 
L 261.676327 178.570172 
L 262.762128 174.869643 
L 263.847929 169.64691 
L 264.933731 172.402623 
L 266.019532 179.751192 
L 267.105333 164.87034 
L 268.191134 173.846092 
L 269.276935 175.132092 
L 270.362736 170.512991 
L 271.448538 166.864952 
L 272.534339 176.208132 
L 273.62014 173.504909 
L 274.705941 175.630745 
L 275.791742 179.305029 
L 276.877543 164.686626 
L 277.963344 175.630745 
L 279.049146 166.891197 
L 280.134947 169.253237 
L 281.220748 180.32858 
L 282.306549 172.350134 
L 283.39235 175.761969 
L 284.478151 175.788214 
L 285.563953 174.292255 
L 286.649754 165.972626 
L 287.735555 166.025115 
L 288.821356 166.759972 
L 289.907157 174.607194 
L 290.992958 173.399929 
L 292.07876 179.09507 
L 293.164561 167.731033 
L 294.250362 168.098462 
L 295.336163 177.257928 
L 296.421964 163.190668 
L 297.507765 168.387155 
L 298.593566 165.631442 
L 299.679368 171.221603 
L 300.765169 167.704788 
L 301.85097 162.56079 
L 302.936771 170.591726 
L 304.022572 164.529157 
L 305.108373 171.536542 
L 306.194175 168.019727 
L 307.279976 161.43226 
L 308.365777 169.6994 
L 309.451578 160.881117 
L 310.537379 172.06144 
L 311.62318 163.531851 
L 312.708981 159.647608 
L 313.794783 163.505606 
L 314.880584 163.820545 
L 315.966385 162.324586 
L 317.052186 163.453116 
L 318.137987 158.099159 
L 319.223788 163.74181 
L 320.30959 164.555402 
L 322.481192 155.658385 
L 323.566993 157.416792 
L 324.652794 155.080997 
L 325.738595 159.988791 
L 326.824396 160.933607 
L 327.910198 156.918139 
L 328.995999 156.996874 
L 330.0818 154.766058 
L 331.167601 157.810465 
L 332.253402 163.89928 
L 333.339203 158.466588 
L 334.425005 163.374382 
L 335.510806 158.781526 
L 336.596607 156.498221 
L 337.682408 158.860261 
L 338.768209 156.130793 
L 339.85401 159.857567 
L 340.939811 149.359611 
L 342.025613 152.482753 
L 343.111414 154.50361 
L 344.197215 156.025813 
L 345.283016 154.214916 
L 346.368817 155.054752 
L 347.454618 154.004957 
L 348.54042 147.31251 
L 349.626221 153.663773 
L 350.712022 151.9841 
L 351.797823 149.543326 
L 352.883624 151.905366 
L 353.969425 148.099857 
L 355.055227 149.805775 
L 356.141028 154.136181 
L 357.226829 155.737119 
L 358.31263 150.120713 
L 359.398431 148.834714 
L 360.484232 150.724346 
L 361.570033 148.467285 
L 362.655835 148.677244 
L 363.741636 146.393939 
L 364.827437 150.514387 
L 365.913238 147.522469 
L 366.999039 147.31251 
L 368.08484 145.921531 
L 369.170642 146.761367 
L 370.256443 155.57965 
L 372.428045 154.319895 
L 373.513846 154.109936 
L 374.599647 149.254632 
L 375.685448 152.115325 
L 376.77125 153.191365 
L 377.857051 150.199448 
L 378.942852 151.222998 
L 380.028653 151.222998 
L 381.114454 152.03659 
L 382.200255 158.676547 
L 383.286057 151.826631 
L 384.371858 154.871038 
L 385.457659 154.897283 
L 386.54346 153.952467 
L 387.629261 152.03659 
L 388.715062 153.952467 
L 390.886665 156.104548 
L 391.972466 156.786915 
L 393.058267 159.673853 
L 395.229869 149.359611 
L 396.31567 153.794998 
L 397.401472 152.955161 
L 398.487273 153.506304 
L 398.487273 153.506304 
" clip-path="url(#p5c517bec97)" style="fill: none; stroke: #2ca02c; stroke-width: 1.5; stroke-linecap: square"/>
   </g>
   <g id="line2d_21">
    <path d="M 368.08484 55.231007 
L 369.170642 59.607342 
L 370.256443 60.825105 
L 371.342244 64.782834 
L 372.428045 62.95619 
L 373.513846 66.533368 
L 374.599647 67.06614 
L 375.685448 63.298686 
L 376.77125 76.351581 
L 377.857051 70.148602 
L 378.942852 68.892784 
L 380.028653 70.643318 
L 381.114454 76.085196 
L 382.200255 78.406556 
L 384.371858 72.393852 
L 385.457659 68.740564 
L 386.54346 72.622183 
L 387.629261 71.937191 
L 388.715062 74.334662 
L 389.800863 77.341013 
L 390.886665 76.846297 
L 391.972466 81.146522 
L 393.058267 83.582048 
L 394.144068 83.163442 
L 395.229869 87.425612 
L 396.31567 86.968951 
L 397.401472 85.256472 
L 398.487273 92.220553 
L 398.487273 92.220553 
" clip-path="url(#p5c517bec97)" style="fill: none; stroke: #d62728; stroke-width: 1.5; stroke-linecap: square"/>
   </g>
   <g id="line2d_22">
    <path d="M 368.08484 148.336061 
L 369.170642 149.569571 
L 370.256443 154.39863 
L 371.342244 163.348137 
L 372.428045 160.513689 
L 373.513846 165.631442 
L 374.599647 156.366997 
L 375.685448 161.37977 
L 376.77125 168.360911 
L 377.857051 161.930913 
L 378.942852 161.589729 
L 380.028653 164.082994 
L 381.114454 165.447728 
L 382.200255 166.523768 
L 383.286057 164.97532 
L 384.371858 160.277485 
L 385.457659 158.440343 
L 386.54346 162.66577 
L 387.629261 160.723648 
L 388.715062 163.663076 
L 389.800863 168.124707 
L 390.886665 165.02781 
L 391.972466 172.560093 
L 393.058267 173.321194 
L 394.144068 169.095767 
L 395.229869 170.88042 
L 396.31567 174.554704 
L 397.401472 169.489441 
L 398.487273 183.451721 
L 398.487273 183.451721 
" clip-path="url(#p5c517bec97)" style="fill: none; stroke: #9467bd; stroke-width: 1.5; stroke-linecap: square"/>
   </g>
   <g id="patch_3">
    <path d="M 57.6 307.584 
L 57.6 41.472 
" style="fill: none; stroke: #000000; stroke-width: 0.8; stroke-linejoin: miter; stroke-linecap: square"/>
   </g>
   <g id="patch_4">
    <path d="M 414.72 307.584 
L 414.72 41.472 
" style="fill: none; stroke: #000000; stroke-width: 0.8; stroke-linejoin: miter; stroke-linecap: square"/>
   </g>
   <g id="patch_5">
    <path d="M 57.6 307.584 
L 414.72 307.584 
" style="fill: none; stroke: #000000; stroke-width: 0.8; stroke-linejoin: miter; stroke-linecap: square"/>
   </g>
   <g id="patch_6">
    <path d="M 57.6 41.472 
L 414.72 41.472 
" style="fill: none; stroke: #000000; stroke-width: 0.8; stroke-linejoin: miter; stroke-linecap: square"/>
   </g>
   <g id="text_20">
    <!-- Learning Curves -->
    <g transform="translate(187.37625 35.472) scale(0.12 -0.12)">
     <defs>
      <path id="DejaVuSans-4c" d="M 628 4666 
L 1259 4666 
L 1259 531 
L 3531 531 
L 3531 0 
L 628 0 
L 628 4666 
z
" transform="scale(0.015625)"/>
      <path id="DejaVuSans-65" d="M 3597 1894 
L 3597 1613 
L 953 1613 
Q 991 1019 1311 708 
Q 1631 397 2203 397 
Q 2534 397 2845 478 
Q 3156 559 3463 722 
L 3463 178 
Q 3153 47 2828 -22 
Q 2503 -91 2169 -91 
Q 1331 -91 842 396 
Q 353 884 353 1716 
Q 353 2575 817 3079 
Q 1281 3584 2069 3584 
Q 2775 3584 3186 3129 
Q 3597 2675 3597 1894 
z
M 3022 2063 
Q 3016 2534 2758 2815 
Q 2500 3097 2075 3097 
Q 1594 3097 1305 2825 
Q 1016 2553 972 2059 
L 3022 2063 
z
" transform="scale(0.015625)"/>
      <path id="DejaVuSans-6e" d="M 3513 2113 
L 3513 0 
L 2938 0 
L 2938 2094 
Q 2938 2591 2744 2837 
Q 2550 3084 2163 3084 
Q 1697 3084 1428 2787 
Q 1159 2491 1159 1978 
L 1159 0 
L 581 0 
L 581 3500 
L 1159 3500 
L 1159 2956 
Q 1366 3272 1645 3428 
Q 1925 3584 2291 3584 
Q 2894 3584 3203 3211 
Q 3513 2838 3513 2113 
z
" transform="scale(0.015625)"/>
      <path id="DejaVuSans-69" d="M 603 3500 
L 1178 3500 
L 1178 0 
L 603 0 
L 603 3500 
z
M 603 4863 
L 1178 4863 
L 1178 4134 
L 603 4134 
L 603 4863 
z
" transform="scale(0.015625)"/>
      <path id="DejaVuSans-67" d="M 2906 1791 
Q 2906 2416 2648 2759 
Q 2391 3103 1925 3103 
Q 1463 3103 1205 2759 
Q 947 2416 947 1791 
Q 947 1169 1205 825 
Q 1463 481 1925 481 
Q 2391 481 2648 825 
Q 2906 1169 2906 1791 
z
M 3481 434 
Q 3481 -459 3084 -895 
Q 2688 -1331 1869 -1331 
Q 1566 -1331 1297 -1286 
Q 1028 -1241 775 -1147 
L 775 -588 
Q 1028 -725 1275 -790 
Q 1522 -856 1778 -856 
Q 2344 -856 2625 -561 
Q 2906 -266 2906 331 
L 2906 616 
Q 2728 306 2450 153 
Q 2172 0 1784 0 
Q 1141 0 747 490 
Q 353 981 353 1791 
Q 353 2603 747 3093 
Q 1141 3584 1784 3584 
Q 2172 3584 2450 3431 
Q 2728 3278 2906 2969 
L 2906 3500 
L 3481 3500 
L 3481 434 
z
" transform="scale(0.015625)"/>
      <path id="DejaVuSans-20" transform="scale(0.015625)"/>
      <path id="DejaVuSans-43" d="M 4122 4306 
L 4122 3641 
Q 3803 3938 3442 4084 
Q 3081 4231 2675 4231 
Q 1875 4231 1450 3742 
Q 1025 3253 1025 2328 
Q 1025 1406 1450 917 
Q 1875 428 2675 428 
Q 3081 428 3442 575 
Q 3803 722 4122 1019 
L 4122 359 
Q 3791 134 3420 21 
Q 3050 -91 2638 -91 
Q 1578 -91 968 557 
Q 359 1206 359 2328 
Q 359 3453 968 4101 
Q 1578 4750 2638 4750 
Q 3056 4750 3426 4639 
Q 3797 4528 4122 4306 
z
" transform="scale(0.015625)"/>
      <path id="DejaVuSans-76" d="M 191 3500 
L 800 3500 
L 1894 563 
L 2988 3500 
L 3597 3500 
L 2284 0 
L 1503 0 
L 191 3500 
z
" transform="scale(0.015625)"/>
     </defs>
     <use xlink:href="#DejaVuSans-4c"/>
     <use xlink:href="#DejaVuSans-65" x="53.962891"/>
     <use xlink:href="#DejaVuSans-61" x="115.486328"/>
     <use xlink:href="#DejaVuSans-72" x="176.765625"/>
     <use xlink:href="#DejaVuSans-6e" x="216.128906"/>
     <use xlink:href="#DejaVuSans-69" x="279.507812"/>
     <use xlink:href="#DejaVuSans-6e" x="307.291016"/>
     <use xlink:href="#DejaVuSans-67" x="370.669922"/>
     <use xlink:href="#DejaVuSans-20" x="434.146484"/>
     <use xlink:href="#DejaVuSans-43" x="465.933594"/>
     <use xlink:href="#DejaVuSans-75" x="535.757812"/>
     <use xlink:href="#DejaVuSans-72" x="599.136719"/>
     <use xlink:href="#DejaVuSans-76" x="640.25"/>
     <use xlink:href="#DejaVuSans-65" x="699.429688"/>
     <use xlink:href="#DejaVuSans-73" x="760.953125"/>
    </g>
   </g>
   <g id="legend_1">
    <g id="patch_7">
     <path d="M 214.18875 302.584 
L 407.72 302.584 
Q 409.72 302.584 409.72 300.584 
L 409.72 228.193375 
Q 409.72 226.193375 407.72 226.193375 
L 214.18875 226.193375 
Q 212.18875 226.193375 212.18875 228.193375 
L 212.18875 300.584 
Q 212.18875 302.584 214.18875 302.584 
z
" style="fill: #ffffff; opacity: 0.8; stroke: #cccccc; stroke-linejoin: miter"/>
    </g>
    <g id="line2d_23">
     <path d="M 216.18875 234.291812 
L 226.18875 234.291812 
L 236.18875 234.291812 
" style="fill: none; stroke: #1f77b4; stroke-width: 1.5; stroke-linecap: square"/>
    </g>
    <g id="text_21">
     <!-- Train Accuracy -->
     <g transform="translate(244.18875 237.791812) scale(0.1 -0.1)">
      <defs>
       <path id="DejaVuSans-54" d="M -19 4666 
L 3928 4666 
L 3928 4134 
L 2272 4134 
L 2272 0 
L 1638 0 
L 1638 4134 
L -19 4134 
L -19 4666 
z
" transform="scale(0.015625)"/>
      </defs>
      <use xlink:href="#DejaVuSans-54"/>
      <use xlink:href="#DejaVuSans-72" x="46.333984"/>
      <use xlink:href="#DejaVuSans-61" x="87.447266"/>
      <use xlink:href="#DejaVuSans-69" x="148.726562"/>
      <use xlink:href="#DejaVuSans-6e" x="176.509766"/>
      <use xlink:href="#DejaVuSans-20" x="239.888672"/>
      <use xlink:href="#DejaVuSans-41" x="271.675781"/>
      <use xlink:href="#DejaVuSans-63" x="338.333984"/>
      <use xlink:href="#DejaVuSans-63" x="393.314453"/>
      <use xlink:href="#DejaVuSans-75" x="448.294922"/>
      <use xlink:href="#DejaVuSans-72" x="511.673828"/>
      <use xlink:href="#DejaVuSans-61" x="552.787109"/>
      <use xlink:href="#DejaVuSans-63" x="614.066406"/>
      <use xlink:href="#DejaVuSans-79" x="669.046875"/>
     </g>
    </g>
    <g id="line2d_24">
     <path d="M 216.18875 248.969937 
L 226.18875 248.969937 
L 236.18875 248.969937 
" style="fill: none; stroke: #ff7f0e; stroke-width: 1.5; stroke-linecap: square"/>
    </g>
    <g id="text_22">
     <!-- Validation Accuracy -->
     <g transform="translate(244.18875 252.469937) scale(0.1 -0.1)">
      <defs>
       <path id="DejaVuSans-56" d="M 1831 0 
L 50 4666 
L 709 4666 
L 2188 738 
L 3669 4666 
L 4325 4666 
L 2547 0 
L 1831 0 
z
" transform="scale(0.015625)"/>
       <path id="DejaVuSans-6c" d="M 603 4863 
L 1178 4863 
L 1178 0 
L 603 0 
L 603 4863 
z
" transform="scale(0.015625)"/>
       <path id="DejaVuSans-64" d="M 2906 2969 
L 2906 4863 
L 3481 4863 
L 3481 0 
L 2906 0 
L 2906 525 
Q 2725 213 2448 61 
Q 2172 -91 1784 -91 
Q 1150 -91 751 415 
Q 353 922 353 1747 
Q 353 2572 751 3078 
Q 1150 3584 1784 3584 
Q 2172 3584 2448 3432 
Q 2725 3281 2906 2969 
z
M 947 1747 
Q 947 1113 1208 752 
Q 1469 391 1925 391 
Q 2381 391 2643 752 
Q 2906 1113 2906 1747 
Q 2906 2381 2643 2742 
Q 2381 3103 1925 3103 
Q 1469 3103 1208 2742 
Q 947 2381 947 1747 
z
" transform="scale(0.015625)"/>
       <path id="DejaVuSans-74" d="M 1172 4494 
L 1172 3500 
L 2356 3500 
L 2356 3053 
L 1172 3053 
L 1172 1153 
Q 1172 725 1289 603 
Q 1406 481 1766 481 
L 2356 481 
L 2356 0 
L 1766 0 
Q 1100 0 847 248 
Q 594 497 594 1153 
L 594 3053 
L 172 3053 
L 172 3500 
L 594 3500 
L 594 4494 
L 1172 4494 
z
" transform="scale(0.015625)"/>
      </defs>
      <use xlink:href="#DejaVuSans-56"/>
      <use xlink:href="#DejaVuSans-61" x="60.658203"/>
      <use xlink:href="#DejaVuSans-6c" x="121.9375"/>
      <use xlink:href="#DejaVuSans-69" x="149.720703"/>
      <use xlink:href="#DejaVuSans-64" x="177.503906"/>
      <use xlink:href="#DejaVuSans-61" x="240.980469"/>
      <use xlink:href="#DejaVuSans-74" x="302.259766"/>
      <use xlink:href="#DejaVuSans-69" x="341.46875"/>
      <use xlink:href="#DejaVuSans-6f" x="369.251953"/>
      <use xlink:href="#DejaVuSans-6e" x="430.433594"/>
      <use xlink:href="#DejaVuSans-20" x="493.8125"/>
      <use xlink:href="#DejaVuSans-41" x="525.599609"/>
      <use xlink:href="#DejaVuSans-63" x="592.257812"/>
      <use xlink:href="#DejaVuSans-63" x="647.238281"/>
      <use xlink:href="#DejaVuSans-75" x="702.21875"/>
      <use xlink:href="#DejaVuSans-72" x="765.597656"/>
      <use xlink:href="#DejaVuSans-61" x="806.710938"/>
      <use xlink:href="#DejaVuSans-63" x="867.990234"/>
      <use xlink:href="#DejaVuSans-79" x="922.970703"/>
     </g>
    </g>
    <g id="line2d_25">
     <path d="M 216.18875 263.648062 
L 226.18875 263.648062 
L 236.18875 263.648062 
" style="fill: none; stroke: #2ca02c; stroke-width: 1.5; stroke-linecap: square"/>
    </g>
    <g id="text_23">
     <!-- Robust Validation Accuracy -->
     <g transform="translate(244.18875 267.148062) scale(0.1 -0.1)">
      <defs>
       <path id="DejaVuSans-52" d="M 2841 2188 
Q 3044 2119 3236 1894 
Q 3428 1669 3622 1275 
L 4263 0 
L 3584 0 
L 2988 1197 
Q 2756 1666 2539 1819 
Q 2322 1972 1947 1972 
L 1259 1972 
L 1259 0 
L 628 0 
L 628 4666 
L 2053 4666 
Q 2853 4666 3247 4331 
Q 3641 3997 3641 3322 
Q 3641 2881 3436 2590 
Q 3231 2300 2841 2188 
z
M 1259 4147 
L 1259 2491 
L 2053 2491 
Q 2509 2491 2742 2702 
Q 2975 2913 2975 3322 
Q 2975 3731 2742 3939 
Q 2509 4147 2053 4147 
L 1259 4147 
z
" transform="scale(0.015625)"/>
       <path id="DejaVuSans-62" d="M 3116 1747 
Q 3116 2381 2855 2742 
Q 2594 3103 2138 3103 
Q 1681 3103 1420 2742 
Q 1159 2381 1159 1747 
Q 1159 1113 1420 752 
Q 1681 391 2138 391 
Q 2594 391 2855 752 
Q 3116 1113 3116 1747 
z
M 1159 2969 
Q 1341 3281 1617 3432 
Q 1894 3584 2278 3584 
Q 2916 3584 3314 3078 
Q 3713 2572 3713 1747 
Q 3713 922 3314 415 
Q 2916 -91 2278 -91 
Q 1894 -91 1617 61 
Q 1341 213 1159 525 
L 1159 0 
L 581 0 
L 581 4863 
L 1159 4863 
L 1159 2969 
z
" transform="scale(0.015625)"/>
      </defs>
      <use xlink:href="#DejaVuSans-52"/>
      <use xlink:href="#DejaVuSans-6f" x="64.982422"/>
      <use xlink:href="#DejaVuSans-62" x="126.164062"/>
      <use xlink:href="#DejaVuSans-75" x="189.640625"/>
      <use xlink:href="#DejaVuSans-73" x="253.019531"/>
      <use xlink:href="#DejaVuSans-74" x="305.119141"/>
      <use xlink:href="#DejaVuSans-20" x="344.328125"/>
      <use xlink:href="#DejaVuSans-56" x="376.115234"/>
      <use xlink:href="#DejaVuSans-61" x="436.773438"/>
      <use xlink:href="#DejaVuSans-6c" x="498.052734"/>
      <use xlink:href="#DejaVuSans-69" x="525.835938"/>
      <use xlink:href="#DejaVuSans-64" x="553.619141"/>
      <use xlink:href="#DejaVuSans-61" x="617.095703"/>
      <use xlink:href="#DejaVuSans-74" x="678.375"/>
      <use xlink:href="#DejaVuSans-69" x="717.583984"/>
      <use xlink:href="#DejaVuSans-6f" x="745.367188"/>
      <use xlink:href="#DejaVuSans-6e" x="806.548828"/>
      <use xlink:href="#DejaVuSans-20" x="869.927734"/>
      <use xlink:href="#DejaVuSans-41" x="901.714844"/>
      <use xlink:href="#DejaVuSans-63" x="968.373047"/>
      <use xlink:href="#DejaVuSans-63" x="1023.353516"/>
      <use xlink:href="#DejaVuSans-75" x="1078.333984"/>
      <use xlink:href="#DejaVuSans-72" x="1141.712891"/>
      <use xlink:href="#DejaVuSans-61" x="1182.826172"/>
      <use xlink:href="#DejaVuSans-63" x="1244.105469"/>
      <use xlink:href="#DejaVuSans-79" x="1299.085938"/>
     </g>
    </g>
    <g id="line2d_26">
     <path d="M 216.18875 278.326188 
L 226.18875 278.326188 
L 236.18875 278.326188 
" style="fill: none; stroke: #d62728; stroke-width: 1.5; stroke-linecap: square"/>
    </g>
    <g id="text_24">
     <!-- SWA Validation Accuracy -->
     <g transform="translate(244.18875 281.826188) scale(0.1 -0.1)">
      <defs>
       <path id="DejaVuSans-53" d="M 3425 4513 
L 3425 3897 
Q 3066 4069 2747 4153 
Q 2428 4238 2131 4238 
Q 1616 4238 1336 4038 
Q 1056 3838 1056 3469 
Q 1056 3159 1242 3001 
Q 1428 2844 1947 2747 
L 2328 2669 
Q 3034 2534 3370 2195 
Q 3706 1856 3706 1288 
Q 3706 609 3251 259 
Q 2797 -91 1919 -91 
Q 1588 -91 1214 -16 
Q 841 59 441 206 
L 441 856 
Q 825 641 1194 531 
Q 1563 422 1919 422 
Q 2459 422 2753 634 
Q 3047 847 3047 1241 
Q 3047 1584 2836 1778 
Q 2625 1972 2144 2069 
L 1759 2144 
Q 1053 2284 737 2584 
Q 422 2884 422 3419 
Q 422 4038 858 4394 
Q 1294 4750 2059 4750 
Q 2388 4750 2728 4690 
Q 3069 4631 3425 4513 
z
" transform="scale(0.015625)"/>
       <path id="DejaVuSans-57" d="M 213 4666 
L 850 4666 
L 1831 722 
L 2809 4666 
L 3519 4666 
L 4500 722 
L 5478 4666 
L 6119 4666 
L 4947 0 
L 4153 0 
L 3169 4050 
L 2175 0 
L 1381 0 
L 213 4666 
z
" transform="scale(0.015625)"/>
      </defs>
      <use xlink:href="#DejaVuSans-53"/>
      <use xlink:href="#DejaVuSans-57" x="63.476562"/>
      <use xlink:href="#DejaVuSans-41" x="156.853516"/>
      <use xlink:href="#DejaVuSans-20" x="225.261719"/>
      <use xlink:href="#DejaVuSans-56" x="257.048828"/>
      <use xlink:href="#DejaVuSans-61" x="317.707031"/>
      <use xlink:href="#DejaVuSans-6c" x="378.986328"/>
      <use xlink:href="#DejaVuSans-69" x="406.769531"/>
      <use xlink:href="#DejaVuSans-64" x="434.552734"/>
      <use xlink:href="#DejaVuSans-61" x="498.029297"/>
      <use xlink:href="#DejaVuSans-74" x="559.308594"/>
      <use xlink:href="#DejaVuSans-69" x="598.517578"/>
      <use xlink:href="#DejaVuSans-6f" x="626.300781"/>
      <use xlink:href="#DejaVuSans-6e" x="687.482422"/>
      <use xlink:href="#DejaVuSans-20" x="750.861328"/>
      <use xlink:href="#DejaVuSans-41" x="782.648438"/>
      <use xlink:href="#DejaVuSans-63" x="849.306641"/>
      <use xlink:href="#DejaVuSans-63" x="904.287109"/>
      <use xlink:href="#DejaVuSans-75" x="959.267578"/>
      <use xlink:href="#DejaVuSans-72" x="1022.646484"/>
      <use xlink:href="#DejaVuSans-61" x="1063.759766"/>
      <use xlink:href="#DejaVuSans-63" x="1125.039062"/>
      <use xlink:href="#DejaVuSans-79" x="1180.019531"/>
     </g>
    </g>
    <g id="line2d_27">
     <path d="M 216.18875 293.004312 
L 226.18875 293.004312 
L 236.18875 293.004312 
" style="fill: none; stroke: #9467bd; stroke-width: 1.5; stroke-linecap: square"/>
    </g>
    <g id="text_25">
     <!-- SWA Robust Validation Accuracy -->
     <g transform="translate(244.18875 296.504312) scale(0.1 -0.1)">
      <use xlink:href="#DejaVuSans-53"/>
      <use xlink:href="#DejaVuSans-57" x="63.476562"/>
      <use xlink:href="#DejaVuSans-41" x="156.853516"/>
      <use xlink:href="#DejaVuSans-20" x="225.261719"/>
      <use xlink:href="#DejaVuSans-52" x="257.048828"/>
      <use xlink:href="#DejaVuSans-6f" x="322.03125"/>
      <use xlink:href="#DejaVuSans-62" x="383.212891"/>
      <use xlink:href="#DejaVuSans-75" x="446.689453"/>
      <use xlink:href="#DejaVuSans-73" x="510.068359"/>
      <use xlink:href="#DejaVuSans-74" x="562.167969"/>
      <use xlink:href="#DejaVuSans-20" x="601.376953"/>
      <use xlink:href="#DejaVuSans-56" x="633.164062"/>
      <use xlink:href="#DejaVuSans-61" x="693.822266"/>
      <use xlink:href="#DejaVuSans-6c" x="755.101562"/>
      <use xlink:href="#DejaVuSans-69" x="782.884766"/>
      <use xlink:href="#DejaVuSans-64" x="810.667969"/>
      <use xlink:href="#DejaVuSans-61" x="874.144531"/>
      <use xlink:href="#DejaVuSans-74" x="935.423828"/>
      <use xlink:href="#DejaVuSans-69" x="974.632812"/>
      <use xlink:href="#DejaVuSans-6f" x="1002.416016"/>
      <use xlink:href="#DejaVuSans-6e" x="1063.597656"/>
      <use xlink:href="#DejaVuSans-20" x="1126.976562"/>
      <use xlink:href="#DejaVuSans-41" x="1158.763672"/>
      <use xlink:href="#DejaVuSans-63" x="1225.421875"/>
      <use xlink:href="#DejaVuSans-63" x="1280.402344"/>
      <use xlink:href="#DejaVuSans-75" x="1335.382812"/>
      <use xlink:href="#DejaVuSans-72" x="1398.761719"/>
      <use xlink:href="#DejaVuSans-61" x="1439.875"/>
      <use xlink:href="#DejaVuSans-63" x="1501.154297"/>
      <use xlink:href="#DejaVuSans-79" x="1556.134766"/>
     </g>
    </g>
   </g>
  </g>
 </g>
 <defs>
  <clipPath id="p5c517bec97">
   <rect x="57.6" y="41.472" width="357.12" height="266.112"/>
  </clipPath>
 </defs>
</svg>
