<?xml version="1.0" encoding="utf-8" standalone="no"?>
<!DOCTYPE svg PUBLIC "-//W3C//DTD SVG 1.1//EN"
  "http://www.w3.org/Graphics/SVG/1.1/DTD/svg11.dtd">
<svg xmlns:xlink="http://www.w3.org/1999/xlink" width="460.8pt" height="345.6pt" viewBox="0 0 460.8 345.6" xmlns="http://www.w3.org/2000/svg" version="1.1">
 <metadata>
  <rdf:RDF xmlns:dc="http://purl.org/dc/elements/1.1/" xmlns:cc="http://creativecommons.org/ns#" xmlns:rdf="http://www.w3.org/1999/02/22-rdf-syntax-ns#">
   <cc:Work>
    <dc:type rdf:resource="http://purl.org/dc/dcmitype/StillImage"/>
    <dc:date>2025-02-26T19:29:34.638756</dc:date>
    <dc:format>image/svg+xml</dc:format>
    <dc:creator>
     <cc:Agent>
      <dc:title>Matplotlib v3.9.1, https://matplotlib.org/</dc:title>
     </cc:Agent>
    </dc:creator>
   </cc:Work>
  </rdf:RDF>
 </metadata>
 <defs>
  <style type="text/css">*{stroke-linejoin: round; stroke-linecap: butt}</style>
 </defs>
 <g id="figure_1">
  <g id="patch_1">
   <path d="M 0 345.6 
L 460.8 345.6 
L 460.8 0 
L 0 0 
z
" style="fill: #ffffff"/>
  </g>
  <g id="axes_1">
   <g id="patch_2">
    <path d="M 57.6 307.584 
L 414.72 307.584 
L 414.72 41.472 
L 57.6 41.472 
z
" style="fill: #ffffff"/>
   </g>
   <g id="matplotlib.axis_1">
    <g id="xtick_1">
     <g id="line2d_1">
      <defs>
       <path id="mfbc83cca36" d="M 0 0 
L 0 3.5 
" style="stroke: #000000; stroke-width: 0.8"/>
      </defs>
      <g>
       <use xlink:href="#mfbc83cca36" x="73.832727" y="307.584" style="stroke: #000000; stroke-width: 0.8"/>
      </g>
     </g>
     <g id="text_1">
      <!-- 1 -->
      <g transform="translate(70.651477 322.182437) scale(0.1 -0.1)">
       <defs>
        <path id="DejaVuSans-31" d="M 794 531 
L 1825 531 
L 1825 4091 
L 703 3866 
L 703 4441 
L 1819 4666 
L 2450 4666 
L 2450 531 
L 3481 531 
L 3481 0 
L 794 0 
L 794 531 
z
" transform="scale(0.015625)"/>
       </defs>
       <use xlink:href="#DejaVuSans-31"/>
      </g>
     </g>
    </g>
    <g id="xtick_2">
     <g id="line2d_2">
      <g>
       <use xlink:href="#mfbc83cca36" x="109.664165" y="307.584" style="stroke: #000000; stroke-width: 0.8"/>
      </g>
     </g>
     <g id="text_2">
      <!-- 34 -->
      <g transform="translate(103.301665 322.182437) scale(0.1 -0.1)">
       <defs>
        <path id="DejaVuSans-33" d="M 2597 2516 
Q 3050 2419 3304 2112 
Q 3559 1806 3559 1356 
Q 3559 666 3084 287 
Q 2609 -91 1734 -91 
Q 1441 -91 1130 -33 
Q 819 25 488 141 
L 488 750 
Q 750 597 1062 519 
Q 1375 441 1716 441 
Q 2309 441 2620 675 
Q 2931 909 2931 1356 
Q 2931 1769 2642 2001 
Q 2353 2234 1838 2234 
L 1294 2234 
L 1294 2753 
L 1863 2753 
Q 2328 2753 2575 2939 
Q 2822 3125 2822 3475 
Q 2822 3834 2567 4026 
Q 2313 4219 1838 4219 
Q 1578 4219 1281 4162 
Q 984 4106 628 3988 
L 628 4550 
Q 988 4650 1302 4700 
Q 1616 4750 1894 4750 
Q 2613 4750 3031 4423 
Q 3450 4097 3450 3541 
Q 3450 3153 3228 2886 
Q 3006 2619 2597 2516 
z
" transform="scale(0.015625)"/>
        <path id="DejaVuSans-34" d="M 2419 4116 
L 825 1625 
L 2419 1625 
L 2419 4116 
z
M 2253 4666 
L 3047 4666 
L 3047 1625 
L 3713 1625 
L 3713 1100 
L 3047 1100 
L 3047 0 
L 2419 0 
L 2419 1100 
L 313 1100 
L 313 1709 
L 2253 4666 
z
" transform="scale(0.015625)"/>
       </defs>
       <use xlink:href="#DejaVuSans-33"/>
       <use xlink:href="#DejaVuSans-34" x="63.623047"/>
      </g>
     </g>
    </g>
    <g id="xtick_3">
     <g id="line2d_3">
      <g>
       <use xlink:href="#mfbc83cca36" x="145.495604" y="307.584" style="stroke: #000000; stroke-width: 0.8"/>
      </g>
     </g>
     <g id="text_3">
      <!-- 67 -->
      <g transform="translate(139.133104 322.182437) scale(0.1 -0.1)">
       <defs>
        <path id="DejaVuSans-36" d="M 2113 2584 
Q 1688 2584 1439 2293 
Q 1191 2003 1191 1497 
Q 1191 994 1439 701 
Q 1688 409 2113 409 
Q 2538 409 2786 701 
Q 3034 994 3034 1497 
Q 3034 2003 2786 2293 
Q 2538 2584 2113 2584 
z
M 3366 4563 
L 3366 3988 
Q 3128 4100 2886 4159 
Q 2644 4219 2406 4219 
Q 1781 4219 1451 3797 
Q 1122 3375 1075 2522 
Q 1259 2794 1537 2939 
Q 1816 3084 2150 3084 
Q 2853 3084 3261 2657 
Q 3669 2231 3669 1497 
Q 3669 778 3244 343 
Q 2819 -91 2113 -91 
Q 1303 -91 875 529 
Q 447 1150 447 2328 
Q 447 3434 972 4092 
Q 1497 4750 2381 4750 
Q 2619 4750 2861 4703 
Q 3103 4656 3366 4563 
z
" transform="scale(0.015625)"/>
        <path id="DejaVuSans-37" d="M 525 4666 
L 3525 4666 
L 3525 4397 
L 1831 0 
L 1172 0 
L 2766 4134 
L 525 4134 
L 525 4666 
z
" transform="scale(0.015625)"/>
       </defs>
       <use xlink:href="#DejaVuSans-36"/>
       <use xlink:href="#DejaVuSans-37" x="63.623047"/>
      </g>
     </g>
    </g>
    <g id="xtick_4">
     <g id="line2d_4">
      <g>
       <use xlink:href="#mfbc83cca36" x="181.327042" y="307.584" style="stroke: #000000; stroke-width: 0.8"/>
      </g>
     </g>
     <g id="text_4">
      <!-- 100 -->
      <g transform="translate(171.783292 322.182437) scale(0.1 -0.1)">
       <defs>
        <path id="DejaVuSans-30" d="M 2034 4250 
Q 1547 4250 1301 3770 
Q 1056 3291 1056 2328 
Q 1056 1369 1301 889 
Q 1547 409 2034 409 
Q 2525 409 2770 889 
Q 3016 1369 3016 2328 
Q 3016 3291 2770 3770 
Q 2525 4250 2034 4250 
z
M 2034 4750 
Q 2819 4750 3233 4129 
Q 3647 3509 3647 2328 
Q 3647 1150 3233 529 
Q 2819 -91 2034 -91 
Q 1250 -91 836 529 
Q 422 1150 422 2328 
Q 422 3509 836 4129 
Q 1250 4750 2034 4750 
z
" transform="scale(0.015625)"/>
       </defs>
       <use xlink:href="#DejaVuSans-31"/>
       <use xlink:href="#DejaVuSans-30" x="63.623047"/>
       <use xlink:href="#DejaVuSans-30" x="127.246094"/>
      </g>
     </g>
    </g>
    <g id="xtick_5">
     <g id="line2d_5">
      <g>
       <use xlink:href="#mfbc83cca36" x="217.15848" y="307.584" style="stroke: #000000; stroke-width: 0.8"/>
      </g>
     </g>
     <g id="text_5">
      <!-- 133 -->
      <g transform="translate(207.61473 322.182437) scale(0.1 -0.1)">
       <use xlink:href="#DejaVuSans-31"/>
       <use xlink:href="#DejaVuSans-33" x="63.623047"/>
       <use xlink:href="#DejaVuSans-33" x="127.246094"/>
      </g>
     </g>
    </g>
    <g id="xtick_6">
     <g id="line2d_6">
      <g>
       <use xlink:href="#mfbc83cca36" x="254.075719" y="307.584" style="stroke: #000000; stroke-width: 0.8"/>
      </g>
     </g>
     <g id="text_6">
      <!-- 167 -->
      <g transform="translate(244.531969 322.182437) scale(0.1 -0.1)">
       <use xlink:href="#DejaVuSans-31"/>
       <use xlink:href="#DejaVuSans-36" x="63.623047"/>
       <use xlink:href="#DejaVuSans-37" x="127.246094"/>
      </g>
     </g>
    </g>
    <g id="xtick_7">
     <g id="line2d_7">
      <g>
       <use xlink:href="#mfbc83cca36" x="289.907157" y="307.584" style="stroke: #000000; stroke-width: 0.8"/>
      </g>
     </g>
     <g id="text_7">
      <!-- 200 -->
      <g transform="translate(280.363407 322.182437) scale(0.1 -0.1)">
       <defs>
        <path id="DejaVuSans-32" d="M 1228 531 
L 3431 531 
L 3431 0 
L 469 0 
L 469 531 
Q 828 903 1448 1529 
Q 2069 2156 2228 2338 
Q 2531 2678 2651 2914 
Q 2772 3150 2772 3378 
Q 2772 3750 2511 3984 
Q 2250 4219 1831 4219 
Q 1534 4219 1204 4116 
Q 875 4013 500 3803 
L 500 4441 
Q 881 4594 1212 4672 
Q 1544 4750 1819 4750 
Q 2544 4750 2975 4387 
Q 3406 4025 3406 3419 
Q 3406 3131 3298 2873 
Q 3191 2616 2906 2266 
Q 2828 2175 2409 1742 
Q 1991 1309 1228 531 
z
" transform="scale(0.015625)"/>
       </defs>
       <use xlink:href="#DejaVuSans-32"/>
       <use xlink:href="#DejaVuSans-30" x="63.623047"/>
       <use xlink:href="#DejaVuSans-30" x="127.246094"/>
      </g>
     </g>
    </g>
    <g id="xtick_8">
     <g id="line2d_8">
      <g>
       <use xlink:href="#mfbc83cca36" x="325.738595" y="307.584" style="stroke: #000000; stroke-width: 0.8"/>
      </g>
     </g>
     <g id="text_8">
      <!-- 233 -->
      <g transform="translate(316.194845 322.182437) scale(0.1 -0.1)">
       <use xlink:href="#DejaVuSans-32"/>
       <use xlink:href="#DejaVuSans-33" x="63.623047"/>
       <use xlink:href="#DejaVuSans-33" x="127.246094"/>
      </g>
     </g>
    </g>
    <g id="xtick_9">
     <g id="line2d_9">
      <g>
       <use xlink:href="#mfbc83cca36" x="361.570033" y="307.584" style="stroke: #000000; stroke-width: 0.8"/>
      </g>
     </g>
     <g id="text_9">
      <!-- 266 -->
      <g transform="translate(352.026283 322.182437) scale(0.1 -0.1)">
       <use xlink:href="#DejaVuSans-32"/>
       <use xlink:href="#DejaVuSans-36" x="63.623047"/>
       <use xlink:href="#DejaVuSans-36" x="127.246094"/>
      </g>
     </g>
    </g>
    <g id="xtick_10">
     <g id="line2d_10">
      <g>
       <use xlink:href="#mfbc83cca36" x="398.487273" y="307.584" style="stroke: #000000; stroke-width: 0.8"/>
      </g>
     </g>
     <g id="text_10">
      <!-- 300 -->
      <g transform="translate(388.943523 322.182437) scale(0.1 -0.1)">
       <use xlink:href="#DejaVuSans-33"/>
       <use xlink:href="#DejaVuSans-30" x="63.623047"/>
       <use xlink:href="#DejaVuSans-30" x="127.246094"/>
      </g>
     </g>
    </g>
    <g id="text_11">
     <!-- Epochs -->
     <g transform="translate(218.244375 335.860562) scale(0.1 -0.1)">
      <defs>
       <path id="DejaVuSans-45" d="M 628 4666 
L 3578 4666 
L 3578 4134 
L 1259 4134 
L 1259 2753 
L 3481 2753 
L 3481 2222 
L 1259 2222 
L 1259 531 
L 3634 531 
L 3634 0 
L 628 0 
L 628 4666 
z
" transform="scale(0.015625)"/>
       <path id="DejaVuSans-70" d="M 1159 525 
L 1159 -1331 
L 581 -1331 
L 581 3500 
L 1159 3500 
L 1159 2969 
Q 1341 3281 1617 3432 
Q 1894 3584 2278 3584 
Q 2916 3584 3314 3078 
Q 3713 2572 3713 1747 
Q 3713 922 3314 415 
Q 2916 -91 2278 -91 
Q 1894 -91 1617 61 
Q 1341 213 1159 525 
z
M 3116 1747 
Q 3116 2381 2855 2742 
Q 2594 3103 2138 3103 
Q 1681 3103 1420 2742 
Q 1159 2381 1159 1747 
Q 1159 1113 1420 752 
Q 1681 391 2138 391 
Q 2594 391 2855 752 
Q 3116 1113 3116 1747 
z
" transform="scale(0.015625)"/>
       <path id="DejaVuSans-6f" d="M 1959 3097 
Q 1497 3097 1228 2736 
Q 959 2375 959 1747 
Q 959 1119 1226 758 
Q 1494 397 1959 397 
Q 2419 397 2687 759 
Q 2956 1122 2956 1747 
Q 2956 2369 2687 2733 
Q 2419 3097 1959 3097 
z
M 1959 3584 
Q 2709 3584 3137 3096 
Q 3566 2609 3566 1747 
Q 3566 888 3137 398 
Q 2709 -91 1959 -91 
Q 1206 -91 779 398 
Q 353 888 353 1747 
Q 353 2609 779 3096 
Q 1206 3584 1959 3584 
z
" transform="scale(0.015625)"/>
       <path id="DejaVuSans-63" d="M 3122 3366 
L 3122 2828 
Q 2878 2963 2633 3030 
Q 2388 3097 2138 3097 
Q 1578 3097 1268 2742 
Q 959 2388 959 1747 
Q 959 1106 1268 751 
Q 1578 397 2138 397 
Q 2388 397 2633 464 
Q 2878 531 3122 666 
L 3122 134 
Q 2881 22 2623 -34 
Q 2366 -91 2075 -91 
Q 1284 -91 818 406 
Q 353 903 353 1747 
Q 353 2603 823 3093 
Q 1294 3584 2113 3584 
Q 2378 3584 2631 3529 
Q 2884 3475 3122 3366 
z
" transform="scale(0.015625)"/>
       <path id="DejaVuSans-68" d="M 3513 2113 
L 3513 0 
L 2938 0 
L 2938 2094 
Q 2938 2591 2744 2837 
Q 2550 3084 2163 3084 
Q 1697 3084 1428 2787 
Q 1159 2491 1159 1978 
L 1159 0 
L 581 0 
L 581 4863 
L 1159 4863 
L 1159 2956 
Q 1366 3272 1645 3428 
Q 1925 3584 2291 3584 
Q 2894 3584 3203 3211 
Q 3513 2838 3513 2113 
z
" transform="scale(0.015625)"/>
       <path id="DejaVuSans-73" d="M 2834 3397 
L 2834 2853 
Q 2591 2978 2328 3040 
Q 2066 3103 1784 3103 
Q 1356 3103 1142 2972 
Q 928 2841 928 2578 
Q 928 2378 1081 2264 
Q 1234 2150 1697 2047 
L 1894 2003 
Q 2506 1872 2764 1633 
Q 3022 1394 3022 966 
Q 3022 478 2636 193 
Q 2250 -91 1575 -91 
Q 1294 -91 989 -36 
Q 684 19 347 128 
L 347 722 
Q 666 556 975 473 
Q 1284 391 1588 391 
Q 1994 391 2212 530 
Q 2431 669 2431 922 
Q 2431 1156 2273 1281 
Q 2116 1406 1581 1522 
L 1381 1569 
Q 847 1681 609 1914 
Q 372 2147 372 2553 
Q 372 3047 722 3315 
Q 1072 3584 1716 3584 
Q 2034 3584 2315 3537 
Q 2597 3491 2834 3397 
z
" transform="scale(0.015625)"/>
      </defs>
      <use xlink:href="#DejaVuSans-45"/>
      <use xlink:href="#DejaVuSans-70" x="63.183594"/>
      <use xlink:href="#DejaVuSans-6f" x="126.660156"/>
      <use xlink:href="#DejaVuSans-63" x="187.841797"/>
      <use xlink:href="#DejaVuSans-68" x="242.822266"/>
      <use xlink:href="#DejaVuSans-73" x="306.201172"/>
     </g>
    </g>
   </g>
   <g id="matplotlib.axis_2">
    <g id="ytick_1">
     <g id="line2d_11">
      <defs>
       <path id="m420550e9cf" d="M 0 0 
L -3.5 0 
" style="stroke: #000000; stroke-width: 0.8"/>
      </defs>
      <g>
       <use xlink:href="#m420550e9cf" x="57.6" y="272.069197" style="stroke: #000000; stroke-width: 0.8"/>
      </g>
     </g>
     <g id="text_12">
      <!-- 10 -->
      <g transform="translate(37.875 275.868416) scale(0.1 -0.1)">
       <use xlink:href="#DejaVuSans-31"/>
       <use xlink:href="#DejaVuSans-30" x="63.623047"/>
      </g>
     </g>
    </g>
    <g id="ytick_2">
     <g id="line2d_12">
      <g>
       <use xlink:href="#m420550e9cf" x="57.6" y="235.528702" style="stroke: #000000; stroke-width: 0.8"/>
      </g>
     </g>
     <g id="text_13">
      <!-- 20 -->
      <g transform="translate(37.875 239.327921) scale(0.1 -0.1)">
       <use xlink:href="#DejaVuSans-32"/>
       <use xlink:href="#DejaVuSans-30" x="63.623047"/>
      </g>
     </g>
    </g>
    <g id="ytick_3">
     <g id="line2d_13">
      <g>
       <use xlink:href="#m420550e9cf" x="57.6" y="198.988207" style="stroke: #000000; stroke-width: 0.8"/>
      </g>
     </g>
     <g id="text_14">
      <!-- 30 -->
      <g transform="translate(37.875 202.787426) scale(0.1 -0.1)">
       <use xlink:href="#DejaVuSans-33"/>
       <use xlink:href="#DejaVuSans-30" x="63.623047"/>
      </g>
     </g>
    </g>
    <g id="ytick_4">
     <g id="line2d_14">
      <g>
       <use xlink:href="#m420550e9cf" x="57.6" y="162.447712" style="stroke: #000000; stroke-width: 0.8"/>
      </g>
     </g>
     <g id="text_15">
      <!-- 40 -->
      <g transform="translate(37.875 166.246931) scale(0.1 -0.1)">
       <use xlink:href="#DejaVuSans-34"/>
       <use xlink:href="#DejaVuSans-30" x="63.623047"/>
      </g>
     </g>
    </g>
    <g id="ytick_5">
     <g id="line2d_15">
      <g>
       <use xlink:href="#m420550e9cf" x="57.6" y="125.907218" style="stroke: #000000; stroke-width: 0.8"/>
      </g>
     </g>
     <g id="text_16">
      <!-- 50 -->
      <g transform="translate(37.875 129.706436) scale(0.1 -0.1)">
       <defs>
        <path id="DejaVuSans-35" d="M 691 4666 
L 3169 4666 
L 3169 4134 
L 1269 4134 
L 1269 2991 
Q 1406 3038 1543 3061 
Q 1681 3084 1819 3084 
Q 2600 3084 3056 2656 
Q 3513 2228 3513 1497 
Q 3513 744 3044 326 
Q 2575 -91 1722 -91 
Q 1428 -91 1123 -41 
Q 819 9 494 109 
L 494 744 
Q 775 591 1075 516 
Q 1375 441 1709 441 
Q 2250 441 2565 725 
Q 2881 1009 2881 1497 
Q 2881 1984 2565 2268 
Q 2250 2553 1709 2553 
Q 1456 2553 1204 2497 
Q 953 2441 691 2322 
L 691 4666 
z
" transform="scale(0.015625)"/>
       </defs>
       <use xlink:href="#DejaVuSans-35"/>
       <use xlink:href="#DejaVuSans-30" x="63.623047"/>
      </g>
     </g>
    </g>
    <g id="ytick_6">
     <g id="line2d_16">
      <g>
       <use xlink:href="#m420550e9cf" x="57.6" y="89.366723" style="stroke: #000000; stroke-width: 0.8"/>
      </g>
     </g>
     <g id="text_17">
      <!-- 60 -->
      <g transform="translate(37.875 93.165942) scale(0.1 -0.1)">
       <use xlink:href="#DejaVuSans-36"/>
       <use xlink:href="#DejaVuSans-30" x="63.623047"/>
      </g>
     </g>
    </g>
    <g id="ytick_7">
     <g id="line2d_17">
      <g>
       <use xlink:href="#m420550e9cf" x="57.6" y="52.826228" style="stroke: #000000; stroke-width: 0.8"/>
      </g>
     </g>
     <g id="text_18">
      <!-- 70 -->
      <g transform="translate(37.875 56.625447) scale(0.1 -0.1)">
       <use xlink:href="#DejaVuSans-37"/>
       <use xlink:href="#DejaVuSans-30" x="63.623047"/>
      </g>
     </g>
    </g>
    <g id="text_19">
     <!-- Accuracy -->
     <g transform="translate(31.795312 197.356125) rotate(-90) scale(0.1 -0.1)">
      <defs>
       <path id="DejaVuSans-41" d="M 2188 4044 
L 1331 1722 
L 3047 1722 
L 2188 4044 
z
M 1831 4666 
L 2547 4666 
L 4325 0 
L 3669 0 
L 3244 1197 
L 1141 1197 
L 716 0 
L 50 0 
L 1831 4666 
z
" transform="scale(0.015625)"/>
       <path id="DejaVuSans-75" d="M 544 1381 
L 544 3500 
L 1119 3500 
L 1119 1403 
Q 1119 906 1312 657 
Q 1506 409 1894 409 
Q 2359 409 2629 706 
Q 2900 1003 2900 1516 
L 2900 3500 
L 3475 3500 
L 3475 0 
L 2900 0 
L 2900 538 
Q 2691 219 2414 64 
Q 2138 -91 1772 -91 
Q 1169 -91 856 284 
Q 544 659 544 1381 
z
M 1991 3584 
L 1991 3584 
z
" transform="scale(0.015625)"/>
       <path id="DejaVuSans-72" d="M 2631 2963 
Q 2534 3019 2420 3045 
Q 2306 3072 2169 3072 
Q 1681 3072 1420 2755 
Q 1159 2438 1159 1844 
L 1159 0 
L 581 0 
L 581 3500 
L 1159 3500 
L 1159 2956 
Q 1341 3275 1631 3429 
Q 1922 3584 2338 3584 
Q 2397 3584 2469 3576 
Q 2541 3569 2628 3553 
L 2631 2963 
z
" transform="scale(0.015625)"/>
       <path id="DejaVuSans-61" d="M 2194 1759 
Q 1497 1759 1228 1600 
Q 959 1441 959 1056 
Q 959 750 1161 570 
Q 1363 391 1709 391 
Q 2188 391 2477 730 
Q 2766 1069 2766 1631 
L 2766 1759 
L 2194 1759 
z
M 3341 1997 
L 3341 0 
L 2766 0 
L 2766 531 
Q 2569 213 2275 61 
Q 1981 -91 1556 -91 
Q 1019 -91 701 211 
Q 384 513 384 1019 
Q 384 1609 779 1909 
Q 1175 2209 1959 2209 
L 2766 2209 
L 2766 2266 
Q 2766 2663 2505 2880 
Q 2244 3097 1772 3097 
Q 1472 3097 1187 3025 
Q 903 2953 641 2809 
L 641 3341 
Q 956 3463 1253 3523 
Q 1550 3584 1831 3584 
Q 2591 3584 2966 3190 
Q 3341 2797 3341 1997 
z
" transform="scale(0.015625)"/>
       <path id="DejaVuSans-79" d="M 2059 -325 
Q 1816 -950 1584 -1140 
Q 1353 -1331 966 -1331 
L 506 -1331 
L 506 -850 
L 844 -850 
Q 1081 -850 1212 -737 
Q 1344 -625 1503 -206 
L 1606 56 
L 191 3500 
L 800 3500 
L 1894 763 
L 2988 3500 
L 3597 3500 
L 2059 -325 
z
" transform="scale(0.015625)"/>
      </defs>
      <use xlink:href="#DejaVuSans-41"/>
      <use xlink:href="#DejaVuSans-63" x="66.658203"/>
      <use xlink:href="#DejaVuSans-63" x="121.638672"/>
      <use xlink:href="#DejaVuSans-75" x="176.619141"/>
      <use xlink:href="#DejaVuSans-72" x="239.998047"/>
      <use xlink:href="#DejaVuSans-61" x="281.111328"/>
      <use xlink:href="#DejaVuSans-63" x="342.390625"/>
      <use xlink:href="#DejaVuSans-79" x="397.371094"/>
     </g>
    </g>
   </g>
   <g id="line2d_18">
    <path d="M 73.832727 295.488 
L 74.918528 278.025298 
L 76.00433 262.875608 
L 77.090131 250.360489 
L 78.175932 239.445843 
L 80.347534 223.240134 
L 82.519137 208.868757 
L 84.690739 196.80674 
L 85.77654 191.24893 
L 86.862341 186.801952 
L 87.948142 181.298954 
L 89.033943 176.607154 
L 90.119745 173.855655 
L 91.205546 170.618167 
L 93.377148 165.641352 
L 94.462949 164.03357 
L 95.54875 196.82501 
L 96.634552 195.553401 
L 98.806154 188.417042 
L 99.891955 185.859207 
L 102.063557 178.784968 
L 103.149358 176.851975 
L 105.320961 169.880049 
L 106.406762 168.560937 
L 107.492563 165.988486 
L 108.578364 162.930047 
L 109.664165 160.299131 
L 110.749967 158.084777 
L 111.835768 155.526943 
L 112.921569 151.840007 
L 114.00737 150.257803 
L 115.093171 148.248076 
L 116.178972 145.372339 
L 117.264773 143.201834 
L 118.350575 140.618421 
L 119.436376 137.534403 
L 120.522177 134.790212 
L 122.693779 130.64652 
L 123.77958 128.958349 
L 124.865382 126.166655 
L 125.951183 123.035135 
L 128.122785 118.752589 
L 129.208586 116.731899 
L 130.294387 115.007188 
L 132.46599 111.30929 
L 133.551791 110.889074 
L 134.637592 109.946329 
L 135.723393 108.787996 
L 136.809194 108.38605 
L 137.894995 107.344646 
L 138.980797 154.295528 
L 140.066598 156.608541 
L 141.152399 156.129861 
L 142.2382 154.587852 
L 144.409802 152.022709 
L 145.495604 150.955727 
L 146.581405 150.075101 
L 147.667206 148.52213 
L 148.753007 147.268791 
L 149.838808 145.620815 
L 153.096212 142.116581 
L 154.182013 141.33096 
L 155.267814 139.270077 
L 156.353615 138.579461 
L 157.439416 138.071548 
L 158.525217 136.233561 
L 159.611019 134.965606 
L 160.69682 134.93272 
L 162.868422 132.634323 
L 163.954223 130.668444 
L 165.040024 130.251882 
L 166.125825 128.132534 
L 167.211627 127.990026 
L 168.297428 126.159347 
L 170.46903 123.68921 
L 171.554831 122.980324 
L 172.640632 121.909687 
L 173.726434 119.826879 
L 174.812235 119.70995 
L 176.983837 116.885369 
L 178.069638 116.030322 
L 180.24124 113.490757 
L 181.327042 111.031582 
L 182.412843 110.256924 
L 183.498644 108.747801 
L 184.584445 107.856213 
L 186.756047 104.867201 
L 187.841849 102.784392 
L 188.92765 102.218015 
L 190.013451 101.15834 
L 192.185053 97.679685 
L 193.270854 96.704054 
L 194.356656 95.538412 
L 195.442457 93.576188 
L 196.528258 92.041487 
L 197.614059 91.230288 
L 198.69986 89.604236 
L 199.785661 88.486097 
L 200.871462 85.961149 
L 201.957264 85.054944 
L 204.128866 82.281521 
L 207.386269 78.667666 
L 208.472071 78.145137 
L 209.557872 75.313248 
L 210.643673 74.940535 
L 212.815275 73.548343 
L 213.901076 72.506938 
L 214.986877 70.782227 
L 216.072679 70.9832 
L 217.15848 69.784672 
L 218.244281 70.28893 
L 219.330082 69.094056 
L 221.501684 68.735959 
L 222.587486 68.034382 
L 223.673287 68.038036 
L 224.759088 67.712826 
L 225.844889 133.054538 
L 226.93069 137.421128 
L 228.016491 137.216501 
L 229.102292 135.996048 
L 230.188094 134.983877 
L 231.273895 134.505196 
L 232.359696 133.635532 
L 233.445497 132.517393 
L 234.531298 132.765868 
L 235.617099 131.512529 
L 236.702901 129.944942 
L 237.788702 129.879169 
L 238.874503 128.845073 
L 239.960304 128.618522 
L 241.046105 127.288448 
L 242.131906 128.041182 
L 243.217708 127.540578 
L 244.303509 126.334741 
L 246.475111 124.697727 
L 247.560912 125.487002 
L 248.646713 124.354247 
L 249.732514 123.722096 
L 250.818316 122.892627 
L 251.904117 123.122832 
L 252.989918 122.07412 
L 255.16152 120.608846 
L 256.247321 121.394466 
L 257.333123 120.90117 
L 260.590526 117.78792 
L 261.676327 118.178903 
L 262.762128 117.729455 
L 263.847929 117.51752 
L 264.933731 116.772094 
L 266.019532 115.690495 
L 267.105333 116.505348 
L 268.191134 116.541889 
L 269.276935 114.619859 
L 270.362736 114.462735 
L 271.448538 114.016941 
L 272.534339 113.797698 
L 273.62014 112.759948 
L 274.705941 113.012077 
L 275.791742 111.276403 
L 276.877543 111.126587 
L 277.963344 110.322697 
L 279.049146 111.031582 
L 280.134947 109.467649 
L 281.220748 109.314179 
L 282.306549 108.92685 
L 283.39235 108.320277 
L 284.478151 108.33124 
L 285.563953 107.794094 
L 286.649754 106.727112 
L 287.735555 106.398247 
L 288.821356 105.755135 
L 289.907157 104.395828 
L 290.992958 105.166833 
L 292.07876 103.836759 
L 293.164561 103.858683 
L 294.250362 102.543225 
L 295.336163 103.336154 
L 296.421964 101.859918 
L 297.507765 101.713756 
L 298.593566 100.635811 
L 299.679368 100.153477 
L 300.765169 99.923272 
L 301.85097 99.163229 
L 304.022572 97.438518 
L 305.108373 96.736941 
L 306.194175 96.188833 
L 307.279976 95.911125 
L 308.365777 95.070694 
L 309.451578 95.04877 
L 310.537379 94.774716 
L 311.62318 92.403238 
L 312.708981 92.615173 
L 313.794783 92.315541 
L 314.880584 90.850267 
L 315.966385 90.309468 
L 317.052186 88.891696 
L 318.137987 88.72361 
L 319.223788 87.8576 
L 320.30959 87.247374 
L 321.395391 85.931916 
L 322.481192 86.984283 
L 324.652794 84.309518 
L 326.824396 82.34364 
L 327.910198 82.920979 
L 328.995999 81.327814 
L 330.0818 80.483728 
L 331.167601 79.785805 
L 332.253402 79.409438 
L 333.339203 78.115904 
L 335.510806 76.636014 
L 336.596607 75.755388 
L 337.682408 75.949053 
L 338.768209 74.257228 
L 340.939811 73.332754 
L 342.025613 71.428994 
L 343.111414 70.588562 
L 344.197215 70.128152 
L 346.368817 69.459461 
L 347.454618 67.380307 
L 348.54042 66.627573 
L 349.626221 66.510643 
L 350.712022 65.922341 
L 351.797823 65.019791 
L 352.883624 64.391295 
L 353.969425 62.330411 
L 355.055227 62.714086 
L 356.141028 60.762823 
L 357.226829 60.243948 
L 358.31263 59.933354 
L 359.398431 58.654437 
L 360.484232 57.744579 
L 361.570033 57.894395 
L 362.655835 56.743369 
L 363.741636 55.380409 
L 364.827437 55.088085 
L 365.913238 53.929751 
L 366.999039 53.568 
L 368.08484 55.20136 
L 369.170642 57.591108 
L 370.256443 59.46929 
L 372.428045 64.961326 
L 373.513846 65.173261 
L 374.599647 66.105044 
L 375.685448 66.368135 
L 377.857051 65.991768 
L 378.942852 66.203703 
L 381.114454 67.011248 
L 382.200255 67.340112 
L 383.286057 66.729886 
L 384.371858 65.889455 
L 385.457659 66.923551 
L 386.54346 66.638535 
L 390.886665 67.826101 
L 391.972466 67.471658 
L 393.058267 66.974708 
L 394.144068 66.828546 
L 395.229869 68.04169 
L 396.31567 67.530123 
L 397.401472 67.201259 
L 398.487273 67.668977 
L 398.487273 67.668977 
" clip-path="url(#p81c7684fa5)" style="fill: none; stroke: #1f77b4; stroke-width: 1.5; stroke-linecap: square"/>
   </g>
   <g id="line2d_19">
    <path d="M 73.832727 279.121512 
L 74.918528 252.410411 
L 76.00433 234.65173 
L 79.261733 194.05524 
L 81.433335 174.432995 
L 82.519137 171.14435 
L 83.604938 158.866744 
L 84.690739 153.166427 
L 85.77654 149.00081 
L 86.862341 143.738979 
L 87.948142 139.573363 
L 89.033943 132.082561 
L 90.119745 129.195862 
L 91.205546 125.834137 
L 92.291347 124.262895 
L 94.462949 123.89749 
L 95.54875 152.581779 
L 96.634552 158.428258 
L 97.720353 152.070212 
L 98.806154 149.914323 
L 99.891955 142.240819 
L 103.149358 130.255536 
L 104.23516 129.817051 
L 105.320961 130.949806 
L 106.406762 128.391971 
L 107.492563 123.13014 
L 108.578364 119.183767 
L 109.664165 117.722147 
L 110.749967 115.456636 
L 112.921569 112.350694 
L 114.00737 107.60043 
L 115.093171 108.550483 
L 116.178972 108.550483 
L 117.264773 104.019461 
L 118.350575 104.859893 
L 119.436376 96.419038 
L 120.522177 99.086494 
L 121.607978 95.322823 
L 122.693779 94.957418 
L 123.77958 93.203475 
L 124.865382 89.987911 
L 125.951183 87.466617 
L 127.036984 86.297321 
L 128.122785 86.991591 
L 129.208586 86.443483 
L 130.294387 80.852787 
L 131.380189 82.022083 
L 132.46599 81.985543 
L 133.551791 80.962409 
L 134.637592 81.03549 
L 135.723393 80.231599 
L 136.809194 80.523923 
L 137.894995 80.450842 
L 138.980797 119.951117 
L 140.066598 118.6722 
L 141.152399 113.410368 
L 142.2382 113.446909 
L 143.324001 111.948749 
L 144.409802 112.679558 
L 145.495604 120.316522 
L 146.581405 110.377507 
L 147.667206 107.161944 
L 148.753007 108.440861 
L 149.838808 107.161944 
L 150.924609 108.258159 
L 152.01041 104.384866 
L 153.096212 103.94638 
L 154.182013 108.294699 
L 155.267814 102.265517 
L 156.353615 102.44822 
L 157.439416 101.973193 
L 158.525217 106.723458 
L 159.611019 101.900112 
L 160.69682 96.5652 
L 162.868422 98.428765 
L 163.954223 96.053633 
L 165.040024 92.947691 
L 166.125825 94.884337 
L 167.211627 95.980552 
L 168.297428 90.755262 
L 169.383229 92.436124 
L 170.46903 91.814936 
L 171.554831 91.595693 
L 172.640632 91.888017 
L 173.726434 91.851476 
L 174.812235 93.715042 
L 175.898036 92.691908 
L 176.983837 91.120667 
L 178.069638 91.595693 
L 179.155439 86.297321 
L 180.24124 84.141432 
L 181.327042 83.885649 
L 182.412843 84.068351 
L 183.498644 81.656678 
L 184.584445 83.483703 
L 185.670246 80.925868 
L 186.756047 79.062303 
L 187.841849 78.989222 
L 188.92765 79.391168 
L 190.013451 77.125657 
L 191.099252 80.706626 
L 192.185053 75.554416 
L 193.270854 77.052576 
L 194.356656 76.906414 
L 195.442457 77.454521 
L 196.528258 73.946634 
L 197.614059 73.325446 
L 198.69986 72.88696 
L 199.785661 74.567822 
L 200.871462 70.840692 
L 201.957264 71.790745 
L 203.043065 71.717664 
L 205.214667 68.355938 
L 207.386269 67.223183 
L 208.472071 66.053887 
L 209.557872 66.126968 
L 210.643673 65.323077 
L 211.729474 66.675075 
L 212.815275 66.346211 
L 213.901076 65.359618 
L 214.986877 65.688482 
L 216.072679 65.286537 
L 217.15848 65.432699 
L 218.244281 64.994213 
L 219.330082 64.848051 
L 220.415883 63.34989 
L 221.501684 63.934538 
L 222.587486 64.0807 
L 223.673287 63.276809 
L 224.759088 64.04416 
L 225.844889 110.742912 
L 226.93069 105.261838 
L 228.016491 105.627243 
L 229.102292 106.248431 
L 230.188094 108.440861 
L 231.273895 102.521301 
L 232.359696 100.146169 
L 233.445497 102.923246 
L 234.531298 100.365412 
L 235.617099 102.594382 
L 236.702901 105.554162 
L 237.788702 100.511574 
L 238.874503 98.940332 
L 239.960304 98.867251 
L 241.046105 99.598061 
L 242.131906 105.44454 
L 243.217708 97.844118 
L 244.303509 93.678501 
L 245.38931 99.049954 
L 246.475111 98.684549 
L 247.560912 98.02682 
L 248.646713 96.492119 
L 249.732514 101.205843 
L 250.818316 95.688228 
L 251.904117 94.409311 
L 252.989918 93.313096 
L 254.075719 100.657736 
L 255.16152 96.090174 
L 256.247321 97.222929 
L 258.418924 95.79785 
L 259.504725 101.169303 
L 260.590526 92.691908 
L 261.676327 96.784443 
L 262.762128 108.660104 
L 263.847929 93.495799 
L 264.933731 93.824663 
L 266.019532 97.844118 
L 268.191134 94.518933 
L 269.276935 88.562832 
L 270.362736 96.492119 
L 271.448538 101.644329 
L 272.534339 93.020772 
L 273.62014 93.057313 
L 274.705941 88.233967 
L 275.791742 90.353316 
L 276.877543 99.269197 
L 277.963344 91.559152 
L 279.049146 94.884337 
L 280.134947 86.662726 
L 281.220748 89.074399 
L 282.306549 84.945323 
L 283.39235 88.45321 
L 284.478151 90.353316 
L 285.563953 87.539698 
L 286.649754 90.060992 
L 287.735555 90.060992 
L 288.821356 88.380129 
L 289.907157 92.83807 
L 290.992958 90.134073 
L 292.07876 86.22424 
L 293.164561 85.018404 
L 294.250362 85.054944 
L 295.336163 85.237647 
L 296.421964 85.639592 
L 297.507765 91.997638 
L 298.593566 86.881969 
L 299.679368 86.516564 
L 300.765169 84.214513 
L 302.936771 81.473976 
L 304.022572 82.789434 
L 305.108373 83.483703 
L 306.194175 83.410622 
L 307.279976 82.241326 
L 308.365777 89.110939 
L 309.451578 83.922189 
L 310.537379 84.068351 
L 311.62318 80.085437 
L 312.708981 79.098844 
L 313.794783 84.76262 
L 314.880584 83.26446 
L 315.966385 80.085437 
L 317.052186 79.318087 
L 319.223788 83.593325 
L 320.30959 80.085437 
L 321.395391 81.912462 
L 322.481192 79.098844 
L 323.566993 77.856467 
L 324.652794 74.458201 
L 325.738595 74.056255 
L 326.824396 81.949002 
L 327.910198 76.61409 
L 328.995999 77.527602 
L 330.0818 72.960041 
L 331.167601 75.335173 
L 332.253402 75.225551 
L 333.339203 74.604363 
L 334.425005 73.61777 
L 335.510806 73.106203 
L 336.596607 74.896687 
L 337.682408 75.737118 
L 338.768209 72.302312 
L 339.85401 72.119609 
L 340.939811 71.534961 
L 342.025613 72.9235 
L 343.111414 68.429019 
L 344.197215 70.292584 
L 345.283016 68.940586 
L 346.368817 72.19269 
L 347.454618 68.794424 
L 348.54042 68.867505 
L 349.626221 73.252365 
L 350.712022 69.671396 
L 351.797823 70.292584 
L 352.883624 67.478966 
L 353.969425 69.342532 
L 355.055227 67.990533 
L 356.141028 67.04048 
L 357.226829 66.857778 
L 359.398431 69.086748 
L 360.484232 69.379072 
L 361.570033 64.592267 
L 362.655835 65.798104 
L 363.741636 64.007619 
L 364.827437 65.359618 
L 366.999039 64.592267 
L 368.08484 67.625128 
L 369.170642 68.319398 
L 370.256443 68.392479 
L 371.342244 69.305991 
L 372.428045 74.238958 
L 373.513846 71.827285 
L 374.599647 71.096475 
L 375.685448 69.890639 
L 376.77125 71.900366 
L 377.857051 72.996581 
L 378.942852 71.498421 
L 380.028653 71.206097 
L 381.114454 73.508148 
L 382.200255 69.342532 
L 383.286057 73.65431 
L 384.371858 72.850419 
L 385.457659 71.242637 
L 386.54346 75.079389 
L 387.629261 74.969768 
L 388.715062 70.950313 
L 389.800863 73.763931 
L 390.886665 72.594636 
L 391.972466 72.960041 
L 393.058267 72.009988 
L 394.144068 72.375393 
L 395.229869 70.402206 
L 396.31567 71.681123 
L 397.401472 74.056255 
L 398.487273 73.61777 
L 398.487273 73.61777 
" clip-path="url(#p81c7684fa5)" style="fill: none; stroke: #ff7f0e; stroke-width: 1.5; stroke-linecap: square"/>
   </g>
   <g id="line2d_20">
    <path d="M 73.832727 293.439174 
L 74.918528 278.369144 
L 76.00433 275.269779 
L 77.090131 264.030288 
L 78.175932 263.57682 
L 79.261733 246.793406 
L 80.347534 244.85274 
L 81.433335 240.921714 
L 82.519137 239.787497 
L 83.604938 229.757862 
L 84.690739 231.068204 
L 85.77654 224.390063 
L 87.948142 221.139421 
L 89.033943 215.67077 
L 90.119745 212.772743 
L 91.205546 211.487614 
L 92.291347 209.748652 
L 93.377148 209.925143 
L 94.462949 210.882869 
L 95.54875 226.55728 
L 96.634552 231.093417 
L 97.720353 225.801257 
L 98.806154 225.423428 
L 99.891955 221.996295 
L 100.977756 216.880626 
L 102.063557 218.014477 
L 103.149358 208.91699 
L 104.23516 208.110907 
L 105.320961 216.074177 
L 106.406762 210.555101 
L 107.492563 208.841717 
L 108.578364 205.389006 
L 109.664165 200.525466 
L 110.749967 202.793534 
L 111.835768 209.471675 
L 112.921569 202.138363 
L 114.00737 193.998603 
L 115.093171 192.914812 
L 116.178972 196.795778 
L 117.264773 192.637835 
L 118.350575 196.291884 
L 119.436376 184.11988 
L 120.522177 186.866994 
L 121.607978 183.540348 
L 122.693779 189.765021 
L 123.77958 182.330782 
L 124.865382 183.6916 
L 125.951183 180.037551 
L 127.036984 177.467116 
L 128.122785 178.223126 
L 129.208586 175.173885 
L 130.294387 174.82108 
L 131.380189 174.165871 
L 132.46599 171.318233 
L 133.551791 171.343433 
L 134.637592 170.738625 
L 135.723393 172.225445 
L 136.809194 173.006655 
L 137.894995 172.855453 
L 138.980797 214.436016 
L 140.066598 204.910287 
L 141.152399 202.188651 
L 142.2382 200.70183 
L 143.324001 210.27796 
L 144.409802 189.815283 
L 145.495604 212.772794 
L 146.581405 193.444132 
L 147.667206 193.393731 
L 148.753007 194.502546 
L 149.838808 191.906911 
L 150.924609 196.417772 
L 152.01041 184.825615 
L 154.182013 197.954993 
L 155.267814 188.328463 
L 156.353615 188.252862 
L 157.439416 195.434959 
L 158.525217 193.040927 
L 159.611019 195.056954 
L 160.69682 184.775215 
L 161.782621 192.184115 
L 162.868422 187.950458 
L 163.954223 180.516357 
L 165.040024 190.142887 
L 166.125825 184.498011 
L 167.211627 185.808429 
L 168.297428 182.708787 
L 169.383229 191.402905 
L 170.46903 182.17958 
L 171.554831 184.220807 
L 172.640632 177.341114 
L 173.726434 175.400688 
L 174.812235 189.185274 
L 175.898036 183.439597 
L 176.983837 185.833629 
L 178.069638 180.062751 
L 180.24124 175.703092 
L 181.327042 174.191071 
L 182.412843 172.880654 
L 183.498644 170.41102 
L 184.584445 172.301046 
L 185.670246 176.837107 
L 186.756047 170.864626 
L 187.841849 175.299886 
L 188.92765 175.602291 
L 190.013451 171.797039 
L 191.099252 175.425888 
L 192.185053 166.73177 
L 193.270854 165.622955 
L 194.356656 170.965428 
L 196.528258 162.145308 
L 197.614059 164.186536 
L 198.69986 167.109776 
L 199.785661 174.342273 
L 200.871462 165.849758 
L 201.957264 166.026161 
L 203.043065 167.235777 
L 204.128866 163.178522 
L 205.214667 164.791344 
L 206.300468 159.34807 
L 207.386269 162.044507 
L 208.472071 159.549673 
L 209.557872 157.86125 
L 210.643673 157.584047 
L 211.729474 158.894464 
L 212.815275 158.617261 
L 213.901076 157.004439 
L 214.986877 157.987252 
L 216.072679 158.642461 
L 217.15848 158.818863 
L 218.244281 157.231242 
L 219.330082 157.936851 
L 220.415883 157.81085 
L 221.501684 158.163654 
L 222.587486 156.928838 
L 223.673287 156.475232 
L 224.759088 157.558846 
L 225.844889 201.155437 
L 226.93069 193.897738 
L 228.016491 194.930952 
L 229.102292 193.29293 
L 230.188094 198.055795 
L 231.273895 198.811805 
L 232.359696 190.420091 
L 233.445497 197.980194 
L 234.531298 195.989367 
L 235.617099 195.107355 
L 236.702901 189.286076 
L 237.788702 189.336477 
L 238.874503 183.036391 
L 239.960304 196.694976 
L 241.046105 195.434959 
L 242.131906 198.559801 
L 243.217708 186.110833 
L 244.303509 185.102819 
L 245.38931 186.312436 
L 246.475111 187.320449 
L 247.560912 189.56328 
L 248.646713 189.361677 
L 249.732514 184.850816 
L 250.818316 186.463638 
L 251.904117 190.218488 
L 252.989918 181.347968 
L 254.075719 188.12686 
L 255.16152 187.018045 
L 257.333123 180.843962 
L 258.418924 188.378864 
L 259.504725 184.346809 
L 260.590526 180.768361 
L 261.676327 196.26657 
L 262.762128 198.257397 
L 263.847929 178.878335 
L 264.933731 181.927576 
L 266.019532 178.399528 
L 267.105333 180.138352 
L 268.191134 186.110833 
L 269.276935 181.47397 
L 270.362736 183.868002 
L 271.448538 201.483041 
L 272.534339 181.952777 
L 273.62014 180.289554 
L 274.705941 177.542717 
L 275.791742 180.289554 
L 276.877543 193.620535 
L 277.963344 189.260876 
L 279.049146 193.393731 
L 280.134947 181.801574 
L 282.306549 181.776374 
L 283.39235 185.632026 
L 284.478151 175.451089 
L 285.563953 173.586263 
L 286.649754 188.10166 
L 287.735555 189.235675 
L 288.821356 175.904695 
L 289.907157 188.051259 
L 290.992958 182.809588 
L 292.07876 179.432742 
L 293.164561 176.736306 
L 294.250362 170.007815 
L 295.336163 168.319392 
L 297.507765 192.51172 
L 298.593566 177.366314 
L 299.679368 180.239153 
L 300.765169 179.911549 
L 301.85097 178.878335 
L 302.936771 174.317073 
L 304.022572 181.347968 
L 306.194175 170.915027 
L 307.279976 172.905854 
L 308.365777 186.413237 
L 309.451578 179.508343 
L 310.537379 171.192231 
L 311.62318 178.52553 
L 312.708981 172.754652 
L 313.794783 177.719119 
L 314.880584 180.667559 
L 315.966385 176.131498 
L 317.052186 172.729452 
L 318.137987 177.945922 
L 319.223788 168.218591 
L 320.30959 171.923041 
L 321.395391 175.047883 
L 322.481192 176.585104 
L 323.566993 169.554209 
L 324.652794 164.841745 
L 325.738595 169.327406 
L 326.824396 176.030696 
L 327.910198 169.957414 
L 328.995999 164.816544 
L 330.0818 164.362938 
L 331.167601 164.438539 
L 332.253402 170.688224 
L 333.339203 165.799358 
L 334.425005 169.478608 
L 335.510806 163.228923 
L 336.596607 165.900159 
L 337.682408 166.479767 
L 338.768209 163.077721 
L 339.85401 166.70657 
L 340.939811 162.724916 
L 342.025613 161.338897 
L 343.111414 164.186536 
L 344.197215 160.02848 
L 345.283016 157.83605 
L 346.368817 160.708889 
L 347.454618 156.702035 
L 348.54042 158.037653 
L 349.626221 162.397312 
L 350.712022 162.699716 
L 351.797823 160.003279 
L 352.883624 160.78449 
L 353.969425 159.549673 
L 355.055227 163.279324 
L 356.141028 155.971225 
L 357.226829 157.432845 
L 358.31263 156.399631 
L 359.398431 160.431685 
L 360.484232 164.035334 
L 361.570033 156.021625 
L 362.655835 153.37559 
L 363.741636 153.37559 
L 364.827437 154.786809 
L 365.913238 155.316016 
L 366.999039 153.098386 
L 368.08484 158.012452 
L 369.170642 158.818863 
L 370.256443 161.767303 
L 371.342244 161.666502 
L 372.428045 163.254123 
L 373.513846 157.962052 
L 374.599647 161.616101 
L 375.685448 161.137295 
L 376.77125 168.19339 
L 377.857051 165.169349 
L 378.942852 156.853237 
L 380.028653 163.178522 
L 381.114454 164.312538 
L 382.200255 160.07888 
L 383.286057 168.117789 
L 384.371858 162.346911 
L 385.457659 160.885291 
L 386.54346 159.801677 
L 387.629261 166.252964 
L 388.715062 159.726076 
L 389.800863 166.908173 
L 390.886665 159.675675 
L 391.972466 164.942546 
L 393.058267 160.582887 
L 394.144068 161.5405 
L 395.229869 161.490099 
L 396.31567 164.010134 
L 397.401472 162.447712 
L 398.487273 163.75813 
L 398.487273 163.75813 
" clip-path="url(#p81c7684fa5)" style="fill: none; stroke: #2ca02c; stroke-width: 1.5; stroke-linecap: square"/>
   </g>
   <g id="line2d_21">
    <path d="M 368.08484 67.223183 
L 369.170642 71.42534 
L 370.256443 73.325446 
L 371.342244 73.727391 
L 372.428045 78.039169 
L 373.513846 76.175604 
L 374.599647 75.079389 
L 375.685448 72.88696 
L 376.77125 79.683492 
L 377.857051 78.916141 
L 378.942852 78.696898 
L 380.028653 77.38144 
L 381.114454 82.935596 
L 382.200255 84.214513 
L 383.286057 87.210834 
L 384.371858 84.652999 
L 385.457659 85.895376 
L 386.54346 84.908782 
L 387.629261 92.801529 
L 388.715062 84.579918 
L 389.800863 85.237647 
L 390.886665 91.230288 
L 391.972466 94.738176 
L 393.058267 87.832022 
L 394.144068 87.247374 
L 395.229869 102.704003 
L 396.31567 94.080447 
L 398.487273 90.426397 
L 398.487273 90.426397 
" clip-path="url(#p81c7684fa5)" style="fill: none; stroke: #d62728; stroke-width: 1.5; stroke-linecap: square"/>
   </g>
   <g id="line2d_22">
    <path d="M 368.08484 153.098386 
L 369.170642 160.935692 
L 370.256443 164.51414 
L 371.342244 163.959733 
L 372.428045 164.690543 
L 373.513846 166.404166 
L 374.599647 171.393834 
L 375.685448 163.707729 
L 376.77125 167.46258 
L 377.857051 168.067389 
L 378.942852 166.404166 
L 380.028653 167.790185 
L 381.114454 174.745479 
L 382.200255 174.594277 
L 383.286057 181.247167 
L 384.371858 177.693919 
L 385.457659 175.022683 
L 386.54346 177.089111 
L 387.629261 180.289554 
L 388.715062 176.257499 
L 389.800863 168.546195 
L 390.886665 176.509503 
L 391.972466 175.879494 
L 393.058267 170.461421 
L 394.144068 175.073083 
L 395.229869 190.394891 
L 396.31567 178.223126 
L 397.401472 179.609145 
L 398.487273 176.711106 
L 398.487273 176.711106 
" clip-path="url(#p81c7684fa5)" style="fill: none; stroke: #9467bd; stroke-width: 1.5; stroke-linecap: square"/>
   </g>
   <g id="patch_3">
    <path d="M 57.6 307.584 
L 57.6 41.472 
" style="fill: none; stroke: #000000; stroke-width: 0.8; stroke-linejoin: miter; stroke-linecap: square"/>
   </g>
   <g id="patch_4">
    <path d="M 414.72 307.584 
L 414.72 41.472 
" style="fill: none; stroke: #000000; stroke-width: 0.8; stroke-linejoin: miter; stroke-linecap: square"/>
   </g>
   <g id="patch_5">
    <path d="M 57.6 307.584 
L 414.72 307.584 
" style="fill: none; stroke: #000000; stroke-width: 0.8; stroke-linejoin: miter; stroke-linecap: square"/>
   </g>
   <g id="patch_6">
    <path d="M 57.6 41.472 
L 414.72 41.472 
" style="fill: none; stroke: #000000; stroke-width: 0.8; stroke-linejoin: miter; stroke-linecap: square"/>
   </g>
   <g id="text_20">
    <!-- Learning Curves -->
    <g transform="translate(187.37625 35.472) scale(0.12 -0.12)">
     <defs>
      <path id="DejaVuSans-4c" d="M 628 4666 
L 1259 4666 
L 1259 531 
L 3531 531 
L 3531 0 
L 628 0 
L 628 4666 
z
" transform="scale(0.015625)"/>
      <path id="DejaVuSans-65" d="M 3597 1894 
L 3597 1613 
L 953 1613 
Q 991 1019 1311 708 
Q 1631 397 2203 397 
Q 2534 397 2845 478 
Q 3156 559 3463 722 
L 3463 178 
Q 3153 47 2828 -22 
Q 2503 -91 2169 -91 
Q 1331 -91 842 396 
Q 353 884 353 1716 
Q 353 2575 817 3079 
Q 1281 3584 2069 3584 
Q 2775 3584 3186 3129 
Q 3597 2675 3597 1894 
z
M 3022 2063 
Q 3016 2534 2758 2815 
Q 2500 3097 2075 3097 
Q 1594 3097 1305 2825 
Q 1016 2553 972 2059 
L 3022 2063 
z
" transform="scale(0.015625)"/>
      <path id="DejaVuSans-6e" d="M 3513 2113 
L 3513 0 
L 2938 0 
L 2938 2094 
Q 2938 2591 2744 2837 
Q 2550 3084 2163 3084 
Q 1697 3084 1428 2787 
Q 1159 2491 1159 1978 
L 1159 0 
L 581 0 
L 581 3500 
L 1159 3500 
L 1159 2956 
Q 1366 3272 1645 3428 
Q 1925 3584 2291 3584 
Q 2894 3584 3203 3211 
Q 3513 2838 3513 2113 
z
" transform="scale(0.015625)"/>
      <path id="DejaVuSans-69" d="M 603 3500 
L 1178 3500 
L 1178 0 
L 603 0 
L 603 3500 
z
M 603 4863 
L 1178 4863 
L 1178 4134 
L 603 4134 
L 603 4863 
z
" transform="scale(0.015625)"/>
      <path id="DejaVuSans-67" d="M 2906 1791 
Q 2906 2416 2648 2759 
Q 2391 3103 1925 3103 
Q 1463 3103 1205 2759 
Q 947 2416 947 1791 
Q 947 1169 1205 825 
Q 1463 481 1925 481 
Q 2391 481 2648 825 
Q 2906 1169 2906 1791 
z
M 3481 434 
Q 3481 -459 3084 -895 
Q 2688 -1331 1869 -1331 
Q 1566 -1331 1297 -1286 
Q 1028 -1241 775 -1147 
L 775 -588 
Q 1028 -725 1275 -790 
Q 1522 -856 1778 -856 
Q 2344 -856 2625 -561 
Q 2906 -266 2906 331 
L 2906 616 
Q 2728 306 2450 153 
Q 2172 0 1784 0 
Q 1141 0 747 490 
Q 353 981 353 1791 
Q 353 2603 747 3093 
Q 1141 3584 1784 3584 
Q 2172 3584 2450 3431 
Q 2728 3278 2906 2969 
L 2906 3500 
L 3481 3500 
L 3481 434 
z
" transform="scale(0.015625)"/>
      <path id="DejaVuSans-20" transform="scale(0.015625)"/>
      <path id="DejaVuSans-43" d="M 4122 4306 
L 4122 3641 
Q 3803 3938 3442 4084 
Q 3081 4231 2675 4231 
Q 1875 4231 1450 3742 
Q 1025 3253 1025 2328 
Q 1025 1406 1450 917 
Q 1875 428 2675 428 
Q 3081 428 3442 575 
Q 3803 722 4122 1019 
L 4122 359 
Q 3791 134 3420 21 
Q 3050 -91 2638 -91 
Q 1578 -91 968 557 
Q 359 1206 359 2328 
Q 359 3453 968 4101 
Q 1578 4750 2638 4750 
Q 3056 4750 3426 4639 
Q 3797 4528 4122 4306 
z
" transform="scale(0.015625)"/>
      <path id="DejaVuSans-76" d="M 191 3500 
L 800 3500 
L 1894 563 
L 2988 3500 
L 3597 3500 
L 2284 0 
L 1503 0 
L 191 3500 
z
" transform="scale(0.015625)"/>
     </defs>
     <use xlink:href="#DejaVuSans-4c"/>
     <use xlink:href="#DejaVuSans-65" x="53.962891"/>
     <use xlink:href="#DejaVuSans-61" x="115.486328"/>
     <use xlink:href="#DejaVuSans-72" x="176.765625"/>
     <use xlink:href="#DejaVuSans-6e" x="216.128906"/>
     <use xlink:href="#DejaVuSans-69" x="279.507812"/>
     <use xlink:href="#DejaVuSans-6e" x="307.291016"/>
     <use xlink:href="#DejaVuSans-67" x="370.669922"/>
     <use xlink:href="#DejaVuSans-20" x="434.146484"/>
     <use xlink:href="#DejaVuSans-43" x="465.933594"/>
     <use xlink:href="#DejaVuSans-75" x="535.757812"/>
     <use xlink:href="#DejaVuSans-72" x="599.136719"/>
     <use xlink:href="#DejaVuSans-76" x="640.25"/>
     <use xlink:href="#DejaVuSans-65" x="699.429688"/>
     <use xlink:href="#DejaVuSans-73" x="760.953125"/>
    </g>
   </g>
   <g id="legend_1">
    <g id="patch_7">
     <path d="M 214.18875 302.584 
L 407.72 302.584 
Q 409.72 302.584 409.72 300.584 
L 409.72 228.193375 
Q 409.72 226.193375 407.72 226.193375 
L 214.18875 226.193375 
Q 212.18875 226.193375 212.18875 228.193375 
L 212.18875 300.584 
Q 212.18875 302.584 214.18875 302.584 
z
" style="fill: #ffffff; opacity: 0.8; stroke: #cccccc; stroke-linejoin: miter"/>
    </g>
    <g id="line2d_23">
     <path d="M 216.18875 234.291812 
L 226.18875 234.291812 
L 236.18875 234.291812 
" style="fill: none; stroke: #1f77b4; stroke-width: 1.5; stroke-linecap: square"/>
    </g>
    <g id="text_21">
     <!-- Train Accuracy -->
     <g transform="translate(244.18875 237.791812) scale(0.1 -0.1)">
      <defs>
       <path id="DejaVuSans-54" d="M -19 4666 
L 3928 4666 
L 3928 4134 
L 2272 4134 
L 2272 0 
L 1638 0 
L 1638 4134 
L -19 4134 
L -19 4666 
z
" transform="scale(0.015625)"/>
      </defs>
      <use xlink:href="#DejaVuSans-54"/>
      <use xlink:href="#DejaVuSans-72" x="46.333984"/>
      <use xlink:href="#DejaVuSans-61" x="87.447266"/>
      <use xlink:href="#DejaVuSans-69" x="148.726562"/>
      <use xlink:href="#DejaVuSans-6e" x="176.509766"/>
      <use xlink:href="#DejaVuSans-20" x="239.888672"/>
      <use xlink:href="#DejaVuSans-41" x="271.675781"/>
      <use xlink:href="#DejaVuSans-63" x="338.333984"/>
      <use xlink:href="#DejaVuSans-63" x="393.314453"/>
      <use xlink:href="#DejaVuSans-75" x="448.294922"/>
      <use xlink:href="#DejaVuSans-72" x="511.673828"/>
      <use xlink:href="#DejaVuSans-61" x="552.787109"/>
      <use xlink:href="#DejaVuSans-63" x="614.066406"/>
      <use xlink:href="#DejaVuSans-79" x="669.046875"/>
     </g>
    </g>
    <g id="line2d_24">
     <path d="M 216.18875 248.969937 
L 226.18875 248.969937 
L 236.18875 248.969937 
" style="fill: none; stroke: #ff7f0e; stroke-width: 1.5; stroke-linecap: square"/>
    </g>
    <g id="text_22">
     <!-- Validation Accuracy -->
     <g transform="translate(244.18875 252.469937) scale(0.1 -0.1)">
      <defs>
       <path id="DejaVuSans-56" d="M 1831 0 
L 50 4666 
L 709 4666 
L 2188 738 
L 3669 4666 
L 4325 4666 
L 2547 0 
L 1831 0 
z
" transform="scale(0.015625)"/>
       <path id="DejaVuSans-6c" d="M 603 4863 
L 1178 4863 
L 1178 0 
L 603 0 
L 603 4863 
z
" transform="scale(0.015625)"/>
       <path id="DejaVuSans-64" d="M 2906 2969 
L 2906 4863 
L 3481 4863 
L 3481 0 
L 2906 0 
L 2906 525 
Q 2725 213 2448 61 
Q 2172 -91 1784 -91 
Q 1150 -91 751 415 
Q 353 922 353 1747 
Q 353 2572 751 3078 
Q 1150 3584 1784 3584 
Q 2172 3584 2448 3432 
Q 2725 3281 2906 2969 
z
M 947 1747 
Q 947 1113 1208 752 
Q 1469 391 1925 391 
Q 2381 391 2643 752 
Q 2906 1113 2906 1747 
Q 2906 2381 2643 2742 
Q 2381 3103 1925 3103 
Q 1469 3103 1208 2742 
Q 947 2381 947 1747 
z
" transform="scale(0.015625)"/>
       <path id="DejaVuSans-74" d="M 1172 4494 
L 1172 3500 
L 2356 3500 
L 2356 3053 
L 1172 3053 
L 1172 1153 
Q 1172 725 1289 603 
Q 1406 481 1766 481 
L 2356 481 
L 2356 0 
L 1766 0 
Q 1100 0 847 248 
Q 594 497 594 1153 
L 594 3053 
L 172 3053 
L 172 3500 
L 594 3500 
L 594 4494 
L 1172 4494 
z
" transform="scale(0.015625)"/>
      </defs>
      <use xlink:href="#DejaVuSans-56"/>
      <use xlink:href="#DejaVuSans-61" x="60.658203"/>
      <use xlink:href="#DejaVuSans-6c" x="121.9375"/>
      <use xlink:href="#DejaVuSans-69" x="149.720703"/>
      <use xlink:href="#DejaVuSans-64" x="177.503906"/>
      <use xlink:href="#DejaVuSans-61" x="240.980469"/>
      <use xlink:href="#DejaVuSans-74" x="302.259766"/>
      <use xlink:href="#DejaVuSans-69" x="341.46875"/>
      <use xlink:href="#DejaVuSans-6f" x="369.251953"/>
      <use xlink:href="#DejaVuSans-6e" x="430.433594"/>
      <use xlink:href="#DejaVuSans-20" x="493.8125"/>
      <use xlink:href="#DejaVuSans-41" x="525.599609"/>
      <use xlink:href="#DejaVuSans-63" x="592.257812"/>
      <use xlink:href="#DejaVuSans-63" x="647.238281"/>
      <use xlink:href="#DejaVuSans-75" x="702.21875"/>
      <use xlink:href="#DejaVuSans-72" x="765.597656"/>
      <use xlink:href="#DejaVuSans-61" x="806.710938"/>
      <use xlink:href="#DejaVuSans-63" x="867.990234"/>
      <use xlink:href="#DejaVuSans-79" x="922.970703"/>
     </g>
    </g>
    <g id="line2d_25">
     <path d="M 216.18875 263.648062 
L 226.18875 263.648062 
L 236.18875 263.648062 
" style="fill: none; stroke: #2ca02c; stroke-width: 1.5; stroke-linecap: square"/>
    </g>
    <g id="text_23">
     <!-- Robust Validation Accuracy -->
     <g transform="translate(244.18875 267.148062) scale(0.1 -0.1)">
      <defs>
       <path id="DejaVuSans-52" d="M 2841 2188 
Q 3044 2119 3236 1894 
Q 3428 1669 3622 1275 
L 4263 0 
L 3584 0 
L 2988 1197 
Q 2756 1666 2539 1819 
Q 2322 1972 1947 1972 
L 1259 1972 
L 1259 0 
L 628 0 
L 628 4666 
L 2053 4666 
Q 2853 4666 3247 4331 
Q 3641 3997 3641 3322 
Q 3641 2881 3436 2590 
Q 3231 2300 2841 2188 
z
M 1259 4147 
L 1259 2491 
L 2053 2491 
Q 2509 2491 2742 2702 
Q 2975 2913 2975 3322 
Q 2975 3731 2742 3939 
Q 2509 4147 2053 4147 
L 1259 4147 
z
" transform="scale(0.015625)"/>
       <path id="DejaVuSans-62" d="M 3116 1747 
Q 3116 2381 2855 2742 
Q 2594 3103 2138 3103 
Q 1681 3103 1420 2742 
Q 1159 2381 1159 1747 
Q 1159 1113 1420 752 
Q 1681 391 2138 391 
Q 2594 391 2855 752 
Q 3116 1113 3116 1747 
z
M 1159 2969 
Q 1341 3281 1617 3432 
Q 1894 3584 2278 3584 
Q 2916 3584 3314 3078 
Q 3713 2572 3713 1747 
Q 3713 922 3314 415 
Q 2916 -91 2278 -91 
Q 1894 -91 1617 61 
Q 1341 213 1159 525 
L 1159 0 
L 581 0 
L 581 4863 
L 1159 4863 
L 1159 2969 
z
" transform="scale(0.015625)"/>
      </defs>
      <use xlink:href="#DejaVuSans-52"/>
      <use xlink:href="#DejaVuSans-6f" x="64.982422"/>
      <use xlink:href="#DejaVuSans-62" x="126.164062"/>
      <use xlink:href="#DejaVuSans-75" x="189.640625"/>
      <use xlink:href="#DejaVuSans-73" x="253.019531"/>
      <use xlink:href="#DejaVuSans-74" x="305.119141"/>
      <use xlink:href="#DejaVuSans-20" x="344.328125"/>
      <use xlink:href="#DejaVuSans-56" x="376.115234"/>
      <use xlink:href="#DejaVuSans-61" x="436.773438"/>
      <use xlink:href="#DejaVuSans-6c" x="498.052734"/>
      <use xlink:href="#DejaVuSans-69" x="525.835938"/>
      <use xlink:href="#DejaVuSans-64" x="553.619141"/>
      <use xlink:href="#DejaVuSans-61" x="617.095703"/>
      <use xlink:href="#DejaVuSans-74" x="678.375"/>
      <use xlink:href="#DejaVuSans-69" x="717.583984"/>
      <use xlink:href="#DejaVuSans-6f" x="745.367188"/>
      <use xlink:href="#DejaVuSans-6e" x="806.548828"/>
      <use xlink:href="#DejaVuSans-20" x="869.927734"/>
      <use xlink:href="#DejaVuSans-41" x="901.714844"/>
      <use xlink:href="#DejaVuSans-63" x="968.373047"/>
      <use xlink:href="#DejaVuSans-63" x="1023.353516"/>
      <use xlink:href="#DejaVuSans-75" x="1078.333984"/>
      <use xlink:href="#DejaVuSans-72" x="1141.712891"/>
      <use xlink:href="#DejaVuSans-61" x="1182.826172"/>
      <use xlink:href="#DejaVuSans-63" x="1244.105469"/>
      <use xlink:href="#DejaVuSans-79" x="1299.085938"/>
     </g>
    </g>
    <g id="line2d_26">
     <path d="M 216.18875 278.326188 
L 226.18875 278.326188 
L 236.18875 278.326188 
" style="fill: none; stroke: #d62728; stroke-width: 1.5; stroke-linecap: square"/>
    </g>
    <g id="text_24">
     <!-- SWA Validation Accuracy -->
     <g transform="translate(244.18875 281.826188) scale(0.1 -0.1)">
      <defs>
       <path id="DejaVuSans-53" d="M 3425 4513 
L 3425 3897 
Q 3066 4069 2747 4153 
Q 2428 4238 2131 4238 
Q 1616 4238 1336 4038 
Q 1056 3838 1056 3469 
Q 1056 3159 1242 3001 
Q 1428 2844 1947 2747 
L 2328 2669 
Q 3034 2534 3370 2195 
Q 3706 1856 3706 1288 
Q 3706 609 3251 259 
Q 2797 -91 1919 -91 
Q 1588 -91 1214 -16 
Q 841 59 441 206 
L 441 856 
Q 825 641 1194 531 
Q 1563 422 1919 422 
Q 2459 422 2753 634 
Q 3047 847 3047 1241 
Q 3047 1584 2836 1778 
Q 2625 1972 2144 2069 
L 1759 2144 
Q 1053 2284 737 2584 
Q 422 2884 422 3419 
Q 422 4038 858 4394 
Q 1294 4750 2059 4750 
Q 2388 4750 2728 4690 
Q 3069 4631 3425 4513 
z
" transform="scale(0.015625)"/>
       <path id="DejaVuSans-57" d="M 213 4666 
L 850 4666 
L 1831 722 
L 2809 4666 
L 3519 4666 
L 4500 722 
L 5478 4666 
L 6119 4666 
L 4947 0 
L 4153 0 
L 3169 4050 
L 2175 0 
L 1381 0 
L 213 4666 
z
" transform="scale(0.015625)"/>
      </defs>
      <use xlink:href="#DejaVuSans-53"/>
      <use xlink:href="#DejaVuSans-57" x="63.476562"/>
      <use xlink:href="#DejaVuSans-41" x="156.853516"/>
      <use xlink:href="#DejaVuSans-20" x="225.261719"/>
      <use xlink:href="#DejaVuSans-56" x="257.048828"/>
      <use xlink:href="#DejaVuSans-61" x="317.707031"/>
      <use xlink:href="#DejaVuSans-6c" x="378.986328"/>
      <use xlink:href="#DejaVuSans-69" x="406.769531"/>
      <use xlink:href="#DejaVuSans-64" x="434.552734"/>
      <use xlink:href="#DejaVuSans-61" x="498.029297"/>
      <use xlink:href="#DejaVuSans-74" x="559.308594"/>
      <use xlink:href="#DejaVuSans-69" x="598.517578"/>
      <use xlink:href="#DejaVuSans-6f" x="626.300781"/>
      <use xlink:href="#DejaVuSans-6e" x="687.482422"/>
      <use xlink:href="#DejaVuSans-20" x="750.861328"/>
      <use xlink:href="#DejaVuSans-41" x="782.648438"/>
      <use xlink:href="#DejaVuSans-63" x="849.306641"/>
      <use xlink:href="#DejaVuSans-63" x="904.287109"/>
      <use xlink:href="#DejaVuSans-75" x="959.267578"/>
      <use xlink:href="#DejaVuSans-72" x="1022.646484"/>
      <use xlink:href="#DejaVuSans-61" x="1063.759766"/>
      <use xlink:href="#DejaVuSans-63" x="1125.039062"/>
      <use xlink:href="#DejaVuSans-79" x="1180.019531"/>
     </g>
    </g>
    <g id="line2d_27">
     <path d="M 216.18875 293.004312 
L 226.18875 293.004312 
L 236.18875 293.004312 
" style="fill: none; stroke: #9467bd; stroke-width: 1.5; stroke-linecap: square"/>
    </g>
    <g id="text_25">
     <!-- SWA Robust Validation Accuracy -->
     <g transform="translate(244.18875 296.504312) scale(0.1 -0.1)">
      <use xlink:href="#DejaVuSans-53"/>
      <use xlink:href="#DejaVuSans-57" x="63.476562"/>
      <use xlink:href="#DejaVuSans-41" x="156.853516"/>
      <use xlink:href="#DejaVuSans-20" x="225.261719"/>
      <use xlink:href="#DejaVuSans-52" x="257.048828"/>
      <use xlink:href="#DejaVuSans-6f" x="322.03125"/>
      <use xlink:href="#DejaVuSans-62" x="383.212891"/>
      <use xlink:href="#DejaVuSans-75" x="446.689453"/>
      <use xlink:href="#DejaVuSans-73" x="510.068359"/>
      <use xlink:href="#DejaVuSans-74" x="562.167969"/>
      <use xlink:href="#DejaVuSans-20" x="601.376953"/>
      <use xlink:href="#DejaVuSans-56" x="633.164062"/>
      <use xlink:href="#DejaVuSans-61" x="693.822266"/>
      <use xlink:href="#DejaVuSans-6c" x="755.101562"/>
      <use xlink:href="#DejaVuSans-69" x="782.884766"/>
      <use xlink:href="#DejaVuSans-64" x="810.667969"/>
      <use xlink:href="#DejaVuSans-61" x="874.144531"/>
      <use xlink:href="#DejaVuSans-74" x="935.423828"/>
      <use xlink:href="#DejaVuSans-69" x="974.632812"/>
      <use xlink:href="#DejaVuSans-6f" x="1002.416016"/>
      <use xlink:href="#DejaVuSans-6e" x="1063.597656"/>
      <use xlink:href="#DejaVuSans-20" x="1126.976562"/>
      <use xlink:href="#DejaVuSans-41" x="1158.763672"/>
      <use xlink:href="#DejaVuSans-63" x="1225.421875"/>
      <use xlink:href="#DejaVuSans-63" x="1280.402344"/>
      <use xlink:href="#DejaVuSans-75" x="1335.382812"/>
      <use xlink:href="#DejaVuSans-72" x="1398.761719"/>
      <use xlink:href="#DejaVuSans-61" x="1439.875"/>
      <use xlink:href="#DejaVuSans-63" x="1501.154297"/>
      <use xlink:href="#DejaVuSans-79" x="1556.134766"/>
     </g>
    </g>
   </g>
  </g>
 </g>
 <defs>
  <clipPath id="p81c7684fa5">
   <rect x="57.6" y="41.472" width="357.12" height="266.112"/>
  </clipPath>
 </defs>
</svg>
