<?xml version="1.0" encoding="utf-8" standalone="no"?>
<!DOCTYPE svg PUBLIC "-//W3C//DTD SVG 1.1//EN"
  "http://www.w3.org/Graphics/SVG/1.1/DTD/svg11.dtd">
<svg xmlns:xlink="http://www.w3.org/1999/xlink" width="460.8pt" height="345.6pt" viewBox="0 0 460.8 345.6" xmlns="http://www.w3.org/2000/svg" version="1.1">
 <metadata>
  <rdf:RDF xmlns:dc="http://purl.org/dc/elements/1.1/" xmlns:cc="http://creativecommons.org/ns#" xmlns:rdf="http://www.w3.org/1999/02/22-rdf-syntax-ns#">
   <cc:Work>
    <dc:type rdf:resource="http://purl.org/dc/dcmitype/StillImage"/>
    <dc:date>2025-03-04T09:12:50.873276</dc:date>
    <dc:format>image/svg+xml</dc:format>
    <dc:creator>
     <cc:Agent>
      <dc:title>Matplotlib v3.9.1, https://matplotlib.org/</dc:title>
     </cc:Agent>
    </dc:creator>
   </cc:Work>
  </rdf:RDF>
 </metadata>
 <defs>
  <style type="text/css">*{stroke-linejoin: round; stroke-linecap: butt}</style>
 </defs>
 <g id="figure_1">
  <g id="patch_1">
   <path d="M 0 345.6 
L 460.8 345.6 
L 460.8 0 
L 0 0 
z
" style="fill: #ffffff"/>
  </g>
  <g id="axes_1">
   <g id="patch_2">
    <path d="M 57.6 307.584 
L 414.72 307.584 
L 414.72 41.472 
L 57.6 41.472 
z
" style="fill: #ffffff"/>
   </g>
   <g id="matplotlib.axis_1">
    <g id="xtick_1">
     <g id="line2d_1">
      <defs>
       <path id="mf7321171b2" d="M 0 0 
L 0 3.5 
" style="stroke: #000000; stroke-width: 0.8"/>
      </defs>
      <g>
       <use xlink:href="#mf7321171b2" x="73.832727" y="307.584" style="stroke: #000000; stroke-width: 0.8"/>
      </g>
     </g>
     <g id="text_1">
      <!-- 1 -->
      <g transform="translate(70.651477 322.182437) scale(0.1 -0.1)">
       <defs>
        <path id="DejaVuSans-31" d="M 794 531 
L 1825 531 
L 1825 4091 
L 703 3866 
L 703 4441 
L 1819 4666 
L 2450 4666 
L 2450 531 
L 3481 531 
L 3481 0 
L 794 0 
L 794 531 
z
" transform="scale(0.015625)"/>
       </defs>
       <use xlink:href="#DejaVuSans-31"/>
      </g>
     </g>
    </g>
    <g id="xtick_2">
     <g id="line2d_2">
      <g>
       <use xlink:href="#mf7321171b2" x="109.664165" y="307.584" style="stroke: #000000; stroke-width: 0.8"/>
      </g>
     </g>
     <g id="text_2">
      <!-- 34 -->
      <g transform="translate(103.301665 322.182437) scale(0.1 -0.1)">
       <defs>
        <path id="DejaVuSans-33" d="M 2597 2516 
Q 3050 2419 3304 2112 
Q 3559 1806 3559 1356 
Q 3559 666 3084 287 
Q 2609 -91 1734 -91 
Q 1441 -91 1130 -33 
Q 819 25 488 141 
L 488 750 
Q 750 597 1062 519 
Q 1375 441 1716 441 
Q 2309 441 2620 675 
Q 2931 909 2931 1356 
Q 2931 1769 2642 2001 
Q 2353 2234 1838 2234 
L 1294 2234 
L 1294 2753 
L 1863 2753 
Q 2328 2753 2575 2939 
Q 2822 3125 2822 3475 
Q 2822 3834 2567 4026 
Q 2313 4219 1838 4219 
Q 1578 4219 1281 4162 
Q 984 4106 628 3988 
L 628 4550 
Q 988 4650 1302 4700 
Q 1616 4750 1894 4750 
Q 2613 4750 3031 4423 
Q 3450 4097 3450 3541 
Q 3450 3153 3228 2886 
Q 3006 2619 2597 2516 
z
" transform="scale(0.015625)"/>
        <path id="DejaVuSans-34" d="M 2419 4116 
L 825 1625 
L 2419 1625 
L 2419 4116 
z
M 2253 4666 
L 3047 4666 
L 3047 1625 
L 3713 1625 
L 3713 1100 
L 3047 1100 
L 3047 0 
L 2419 0 
L 2419 1100 
L 313 1100 
L 313 1709 
L 2253 4666 
z
" transform="scale(0.015625)"/>
       </defs>
       <use xlink:href="#DejaVuSans-33"/>
       <use xlink:href="#DejaVuSans-34" x="63.623047"/>
      </g>
     </g>
    </g>
    <g id="xtick_3">
     <g id="line2d_3">
      <g>
       <use xlink:href="#mf7321171b2" x="145.495604" y="307.584" style="stroke: #000000; stroke-width: 0.8"/>
      </g>
     </g>
     <g id="text_3">
      <!-- 67 -->
      <g transform="translate(139.133104 322.182437) scale(0.1 -0.1)">
       <defs>
        <path id="DejaVuSans-36" d="M 2113 2584 
Q 1688 2584 1439 2293 
Q 1191 2003 1191 1497 
Q 1191 994 1439 701 
Q 1688 409 2113 409 
Q 2538 409 2786 701 
Q 3034 994 3034 1497 
Q 3034 2003 2786 2293 
Q 2538 2584 2113 2584 
z
M 3366 4563 
L 3366 3988 
Q 3128 4100 2886 4159 
Q 2644 4219 2406 4219 
Q 1781 4219 1451 3797 
Q 1122 3375 1075 2522 
Q 1259 2794 1537 2939 
Q 1816 3084 2150 3084 
Q 2853 3084 3261 2657 
Q 3669 2231 3669 1497 
Q 3669 778 3244 343 
Q 2819 -91 2113 -91 
Q 1303 -91 875 529 
Q 447 1150 447 2328 
Q 447 3434 972 4092 
Q 1497 4750 2381 4750 
Q 2619 4750 2861 4703 
Q 3103 4656 3366 4563 
z
" transform="scale(0.015625)"/>
        <path id="DejaVuSans-37" d="M 525 4666 
L 3525 4666 
L 3525 4397 
L 1831 0 
L 1172 0 
L 2766 4134 
L 525 4134 
L 525 4666 
z
" transform="scale(0.015625)"/>
       </defs>
       <use xlink:href="#DejaVuSans-36"/>
       <use xlink:href="#DejaVuSans-37" x="63.623047"/>
      </g>
     </g>
    </g>
    <g id="xtick_4">
     <g id="line2d_4">
      <g>
       <use xlink:href="#mf7321171b2" x="181.327042" y="307.584" style="stroke: #000000; stroke-width: 0.8"/>
      </g>
     </g>
     <g id="text_4">
      <!-- 100 -->
      <g transform="translate(171.783292 322.182437) scale(0.1 -0.1)">
       <defs>
        <path id="DejaVuSans-30" d="M 2034 4250 
Q 1547 4250 1301 3770 
Q 1056 3291 1056 2328 
Q 1056 1369 1301 889 
Q 1547 409 2034 409 
Q 2525 409 2770 889 
Q 3016 1369 3016 2328 
Q 3016 3291 2770 3770 
Q 2525 4250 2034 4250 
z
M 2034 4750 
Q 2819 4750 3233 4129 
Q 3647 3509 3647 2328 
Q 3647 1150 3233 529 
Q 2819 -91 2034 -91 
Q 1250 -91 836 529 
Q 422 1150 422 2328 
Q 422 3509 836 4129 
Q 1250 4750 2034 4750 
z
" transform="scale(0.015625)"/>
       </defs>
       <use xlink:href="#DejaVuSans-31"/>
       <use xlink:href="#DejaVuSans-30" x="63.623047"/>
       <use xlink:href="#DejaVuSans-30" x="127.246094"/>
      </g>
     </g>
    </g>
    <g id="xtick_5">
     <g id="line2d_5">
      <g>
       <use xlink:href="#mf7321171b2" x="217.15848" y="307.584" style="stroke: #000000; stroke-width: 0.8"/>
      </g>
     </g>
     <g id="text_5">
      <!-- 133 -->
      <g transform="translate(207.61473 322.182437) scale(0.1 -0.1)">
       <use xlink:href="#DejaVuSans-31"/>
       <use xlink:href="#DejaVuSans-33" x="63.623047"/>
       <use xlink:href="#DejaVuSans-33" x="127.246094"/>
      </g>
     </g>
    </g>
    <g id="xtick_6">
     <g id="line2d_6">
      <g>
       <use xlink:href="#mf7321171b2" x="254.075719" y="307.584" style="stroke: #000000; stroke-width: 0.8"/>
      </g>
     </g>
     <g id="text_6">
      <!-- 167 -->
      <g transform="translate(244.531969 322.182437) scale(0.1 -0.1)">
       <use xlink:href="#DejaVuSans-31"/>
       <use xlink:href="#DejaVuSans-36" x="63.623047"/>
       <use xlink:href="#DejaVuSans-37" x="127.246094"/>
      </g>
     </g>
    </g>
    <g id="xtick_7">
     <g id="line2d_7">
      <g>
       <use xlink:href="#mf7321171b2" x="289.907157" y="307.584" style="stroke: #000000; stroke-width: 0.8"/>
      </g>
     </g>
     <g id="text_7">
      <!-- 200 -->
      <g transform="translate(280.363407 322.182437) scale(0.1 -0.1)">
       <defs>
        <path id="DejaVuSans-32" d="M 1228 531 
L 3431 531 
L 3431 0 
L 469 0 
L 469 531 
Q 828 903 1448 1529 
Q 2069 2156 2228 2338 
Q 2531 2678 2651 2914 
Q 2772 3150 2772 3378 
Q 2772 3750 2511 3984 
Q 2250 4219 1831 4219 
Q 1534 4219 1204 4116 
Q 875 4013 500 3803 
L 500 4441 
Q 881 4594 1212 4672 
Q 1544 4750 1819 4750 
Q 2544 4750 2975 4387 
Q 3406 4025 3406 3419 
Q 3406 3131 3298 2873 
Q 3191 2616 2906 2266 
Q 2828 2175 2409 1742 
Q 1991 1309 1228 531 
z
" transform="scale(0.015625)"/>
       </defs>
       <use xlink:href="#DejaVuSans-32"/>
       <use xlink:href="#DejaVuSans-30" x="63.623047"/>
       <use xlink:href="#DejaVuSans-30" x="127.246094"/>
      </g>
     </g>
    </g>
    <g id="xtick_8">
     <g id="line2d_8">
      <g>
       <use xlink:href="#mf7321171b2" x="325.738595" y="307.584" style="stroke: #000000; stroke-width: 0.8"/>
      </g>
     </g>
     <g id="text_8">
      <!-- 233 -->
      <g transform="translate(316.194845 322.182437) scale(0.1 -0.1)">
       <use xlink:href="#DejaVuSans-32"/>
       <use xlink:href="#DejaVuSans-33" x="63.623047"/>
       <use xlink:href="#DejaVuSans-33" x="127.246094"/>
      </g>
     </g>
    </g>
    <g id="xtick_9">
     <g id="line2d_9">
      <g>
       <use xlink:href="#mf7321171b2" x="361.570033" y="307.584" style="stroke: #000000; stroke-width: 0.8"/>
      </g>
     </g>
     <g id="text_9">
      <!-- 266 -->
      <g transform="translate(352.026283 322.182437) scale(0.1 -0.1)">
       <use xlink:href="#DejaVuSans-32"/>
       <use xlink:href="#DejaVuSans-36" x="63.623047"/>
       <use xlink:href="#DejaVuSans-36" x="127.246094"/>
      </g>
     </g>
    </g>
    <g id="xtick_10">
     <g id="line2d_10">
      <g>
       <use xlink:href="#mf7321171b2" x="398.487273" y="307.584" style="stroke: #000000; stroke-width: 0.8"/>
      </g>
     </g>
     <g id="text_10">
      <!-- 300 -->
      <g transform="translate(388.943523 322.182437) scale(0.1 -0.1)">
       <use xlink:href="#DejaVuSans-33"/>
       <use xlink:href="#DejaVuSans-30" x="63.623047"/>
       <use xlink:href="#DejaVuSans-30" x="127.246094"/>
      </g>
     </g>
    </g>
    <g id="text_11">
     <!-- Epochs -->
     <g transform="translate(218.244375 335.860562) scale(0.1 -0.1)">
      <defs>
       <path id="DejaVuSans-45" d="M 628 4666 
L 3578 4666 
L 3578 4134 
L 1259 4134 
L 1259 2753 
L 3481 2753 
L 3481 2222 
L 1259 2222 
L 1259 531 
L 3634 531 
L 3634 0 
L 628 0 
L 628 4666 
z
" transform="scale(0.015625)"/>
       <path id="DejaVuSans-70" d="M 1159 525 
L 1159 -1331 
L 581 -1331 
L 581 3500 
L 1159 3500 
L 1159 2969 
Q 1341 3281 1617 3432 
Q 1894 3584 2278 3584 
Q 2916 3584 3314 3078 
Q 3713 2572 3713 1747 
Q 3713 922 3314 415 
Q 2916 -91 2278 -91 
Q 1894 -91 1617 61 
Q 1341 213 1159 525 
z
M 3116 1747 
Q 3116 2381 2855 2742 
Q 2594 3103 2138 3103 
Q 1681 3103 1420 2742 
Q 1159 2381 1159 1747 
Q 1159 1113 1420 752 
Q 1681 391 2138 391 
Q 2594 391 2855 752 
Q 3116 1113 3116 1747 
z
" transform="scale(0.015625)"/>
       <path id="DejaVuSans-6f" d="M 1959 3097 
Q 1497 3097 1228 2736 
Q 959 2375 959 1747 
Q 959 1119 1226 758 
Q 1494 397 1959 397 
Q 2419 397 2687 759 
Q 2956 1122 2956 1747 
Q 2956 2369 2687 2733 
Q 2419 3097 1959 3097 
z
M 1959 3584 
Q 2709 3584 3137 3096 
Q 3566 2609 3566 1747 
Q 3566 888 3137 398 
Q 2709 -91 1959 -91 
Q 1206 -91 779 398 
Q 353 888 353 1747 
Q 353 2609 779 3096 
Q 1206 3584 1959 3584 
z
" transform="scale(0.015625)"/>
       <path id="DejaVuSans-63" d="M 3122 3366 
L 3122 2828 
Q 2878 2963 2633 3030 
Q 2388 3097 2138 3097 
Q 1578 3097 1268 2742 
Q 959 2388 959 1747 
Q 959 1106 1268 751 
Q 1578 397 2138 397 
Q 2388 397 2633 464 
Q 2878 531 3122 666 
L 3122 134 
Q 2881 22 2623 -34 
Q 2366 -91 2075 -91 
Q 1284 -91 818 406 
Q 353 903 353 1747 
Q 353 2603 823 3093 
Q 1294 3584 2113 3584 
Q 2378 3584 2631 3529 
Q 2884 3475 3122 3366 
z
" transform="scale(0.015625)"/>
       <path id="DejaVuSans-68" d="M 3513 2113 
L 3513 0 
L 2938 0 
L 2938 2094 
Q 2938 2591 2744 2837 
Q 2550 3084 2163 3084 
Q 1697 3084 1428 2787 
Q 1159 2491 1159 1978 
L 1159 0 
L 581 0 
L 581 4863 
L 1159 4863 
L 1159 2956 
Q 1366 3272 1645 3428 
Q 1925 3584 2291 3584 
Q 2894 3584 3203 3211 
Q 3513 2838 3513 2113 
z
" transform="scale(0.015625)"/>
       <path id="DejaVuSans-73" d="M 2834 3397 
L 2834 2853 
Q 2591 2978 2328 3040 
Q 2066 3103 1784 3103 
Q 1356 3103 1142 2972 
Q 928 2841 928 2578 
Q 928 2378 1081 2264 
Q 1234 2150 1697 2047 
L 1894 2003 
Q 2506 1872 2764 1633 
Q 3022 1394 3022 966 
Q 3022 478 2636 193 
Q 2250 -91 1575 -91 
Q 1294 -91 989 -36 
Q 684 19 347 128 
L 347 722 
Q 666 556 975 473 
Q 1284 391 1588 391 
Q 1994 391 2212 530 
Q 2431 669 2431 922 
Q 2431 1156 2273 1281 
Q 2116 1406 1581 1522 
L 1381 1569 
Q 847 1681 609 1914 
Q 372 2147 372 2553 
Q 372 3047 722 3315 
Q 1072 3584 1716 3584 
Q 2034 3584 2315 3537 
Q 2597 3491 2834 3397 
z
" transform="scale(0.015625)"/>
      </defs>
      <use xlink:href="#DejaVuSans-45"/>
      <use xlink:href="#DejaVuSans-70" x="63.183594"/>
      <use xlink:href="#DejaVuSans-6f" x="126.660156"/>
      <use xlink:href="#DejaVuSans-63" x="187.841797"/>
      <use xlink:href="#DejaVuSans-68" x="242.822266"/>
      <use xlink:href="#DejaVuSans-73" x="306.201172"/>
     </g>
    </g>
   </g>
   <g id="matplotlib.axis_2">
    <g id="ytick_1">
     <g id="line2d_11">
      <defs>
       <path id="mab4ab6c728" d="M 0 0 
L -3.5 0 
" style="stroke: #000000; stroke-width: 0.8"/>
      </defs>
      <g>
       <use xlink:href="#mab4ab6c728" x="57.6" y="274.393801" style="stroke: #000000; stroke-width: 0.8"/>
      </g>
     </g>
     <g id="text_12">
      <!-- 10 -->
      <g transform="translate(37.875 278.19302) scale(0.1 -0.1)">
       <use xlink:href="#DejaVuSans-31"/>
       <use xlink:href="#DejaVuSans-30" x="63.623047"/>
      </g>
     </g>
    </g>
    <g id="ytick_2">
     <g id="line2d_12">
      <g>
       <use xlink:href="#mab4ab6c728" x="57.6" y="235.830365" style="stroke: #000000; stroke-width: 0.8"/>
      </g>
     </g>
     <g id="text_13">
      <!-- 20 -->
      <g transform="translate(37.875 239.629584) scale(0.1 -0.1)">
       <use xlink:href="#DejaVuSans-32"/>
       <use xlink:href="#DejaVuSans-30" x="63.623047"/>
      </g>
     </g>
    </g>
    <g id="ytick_3">
     <g id="line2d_13">
      <g>
       <use xlink:href="#mab4ab6c728" x="57.6" y="197.26693" style="stroke: #000000; stroke-width: 0.8"/>
      </g>
     </g>
     <g id="text_14">
      <!-- 30 -->
      <g transform="translate(37.875 201.066148) scale(0.1 -0.1)">
       <use xlink:href="#DejaVuSans-33"/>
       <use xlink:href="#DejaVuSans-30" x="63.623047"/>
      </g>
     </g>
    </g>
    <g id="ytick_4">
     <g id="line2d_14">
      <g>
       <use xlink:href="#mab4ab6c728" x="57.6" y="158.703494" style="stroke: #000000; stroke-width: 0.8"/>
      </g>
     </g>
     <g id="text_15">
      <!-- 40 -->
      <g transform="translate(37.875 162.502713) scale(0.1 -0.1)">
       <use xlink:href="#DejaVuSans-34"/>
       <use xlink:href="#DejaVuSans-30" x="63.623047"/>
      </g>
     </g>
    </g>
    <g id="ytick_5">
     <g id="line2d_15">
      <g>
       <use xlink:href="#mab4ab6c728" x="57.6" y="120.140059" style="stroke: #000000; stroke-width: 0.8"/>
      </g>
     </g>
     <g id="text_16">
      <!-- 50 -->
      <g transform="translate(37.875 123.939277) scale(0.1 -0.1)">
       <defs>
        <path id="DejaVuSans-35" d="M 691 4666 
L 3169 4666 
L 3169 4134 
L 1269 4134 
L 1269 2991 
Q 1406 3038 1543 3061 
Q 1681 3084 1819 3084 
Q 2600 3084 3056 2656 
Q 3513 2228 3513 1497 
Q 3513 744 3044 326 
Q 2575 -91 1722 -91 
Q 1428 -91 1123 -41 
Q 819 9 494 109 
L 494 744 
Q 775 591 1075 516 
Q 1375 441 1709 441 
Q 2250 441 2565 725 
Q 2881 1009 2881 1497 
Q 2881 1984 2565 2268 
Q 2250 2553 1709 2553 
Q 1456 2553 1204 2497 
Q 953 2441 691 2322 
L 691 4666 
z
" transform="scale(0.015625)"/>
       </defs>
       <use xlink:href="#DejaVuSans-35"/>
       <use xlink:href="#DejaVuSans-30" x="63.623047"/>
      </g>
     </g>
    </g>
    <g id="ytick_6">
     <g id="line2d_16">
      <g>
       <use xlink:href="#mab4ab6c728" x="57.6" y="81.576623" style="stroke: #000000; stroke-width: 0.8"/>
      </g>
     </g>
     <g id="text_17">
      <!-- 60 -->
      <g transform="translate(37.875 85.375842) scale(0.1 -0.1)">
       <use xlink:href="#DejaVuSans-36"/>
       <use xlink:href="#DejaVuSans-30" x="63.623047"/>
      </g>
     </g>
    </g>
    <g id="ytick_7">
     <g id="line2d_17">
      <g>
       <use xlink:href="#mab4ab6c728" x="57.6" y="43.013188" style="stroke: #000000; stroke-width: 0.8"/>
      </g>
     </g>
     <g id="text_18">
      <!-- 70 -->
      <g transform="translate(37.875 46.812406) scale(0.1 -0.1)">
       <use xlink:href="#DejaVuSans-37"/>
       <use xlink:href="#DejaVuSans-30" x="63.623047"/>
      </g>
     </g>
    </g>
    <g id="text_19">
     <!-- Accuracy -->
     <g transform="translate(31.795312 197.356125) rotate(-90) scale(0.1 -0.1)">
      <defs>
       <path id="DejaVuSans-41" d="M 2188 4044 
L 1331 1722 
L 3047 1722 
L 2188 4044 
z
M 1831 4666 
L 2547 4666 
L 4325 0 
L 3669 0 
L 3244 1197 
L 1141 1197 
L 716 0 
L 50 0 
L 1831 4666 
z
" transform="scale(0.015625)"/>
       <path id="DejaVuSans-75" d="M 544 1381 
L 544 3500 
L 1119 3500 
L 1119 1403 
Q 1119 906 1312 657 
Q 1506 409 1894 409 
Q 2359 409 2629 706 
Q 2900 1003 2900 1516 
L 2900 3500 
L 3475 3500 
L 3475 0 
L 2900 0 
L 2900 538 
Q 2691 219 2414 64 
Q 2138 -91 1772 -91 
Q 1169 -91 856 284 
Q 544 659 544 1381 
z
M 1991 3584 
L 1991 3584 
z
" transform="scale(0.015625)"/>
       <path id="DejaVuSans-72" d="M 2631 2963 
Q 2534 3019 2420 3045 
Q 2306 3072 2169 3072 
Q 1681 3072 1420 2755 
Q 1159 2438 1159 1844 
L 1159 0 
L 581 0 
L 581 3500 
L 1159 3500 
L 1159 2956 
Q 1341 3275 1631 3429 
Q 1922 3584 2338 3584 
Q 2397 3584 2469 3576 
Q 2541 3569 2628 3553 
L 2631 2963 
z
" transform="scale(0.015625)"/>
       <path id="DejaVuSans-61" d="M 2194 1759 
Q 1497 1759 1228 1600 
Q 959 1441 959 1056 
Q 959 750 1161 570 
Q 1363 391 1709 391 
Q 2188 391 2477 730 
Q 2766 1069 2766 1631 
L 2766 1759 
L 2194 1759 
z
M 3341 1997 
L 3341 0 
L 2766 0 
L 2766 531 
Q 2569 213 2275 61 
Q 1981 -91 1556 -91 
Q 1019 -91 701 211 
Q 384 513 384 1019 
Q 384 1609 779 1909 
Q 1175 2209 1959 2209 
L 2766 2209 
L 2766 2266 
Q 2766 2663 2505 2880 
Q 2244 3097 1772 3097 
Q 1472 3097 1187 3025 
Q 903 2953 641 2809 
L 641 3341 
Q 956 3463 1253 3523 
Q 1550 3584 1831 3584 
Q 2591 3584 2966 3190 
Q 3341 2797 3341 1997 
z
" transform="scale(0.015625)"/>
       <path id="DejaVuSans-79" d="M 2059 -325 
Q 1816 -950 1584 -1140 
Q 1353 -1331 966 -1331 
L 506 -1331 
L 506 -850 
L 844 -850 
Q 1081 -850 1212 -737 
Q 1344 -625 1503 -206 
L 1606 56 
L 191 3500 
L 800 3500 
L 1894 763 
L 2988 3500 
L 3597 3500 
L 2059 -325 
z
" transform="scale(0.015625)"/>
      </defs>
      <use xlink:href="#DejaVuSans-41"/>
      <use xlink:href="#DejaVuSans-63" x="66.658203"/>
      <use xlink:href="#DejaVuSans-63" x="121.638672"/>
      <use xlink:href="#DejaVuSans-75" x="176.619141"/>
      <use xlink:href="#DejaVuSans-72" x="239.998047"/>
      <use xlink:href="#DejaVuSans-61" x="281.111328"/>
      <use xlink:href="#DejaVuSans-63" x="342.390625"/>
      <use xlink:href="#DejaVuSans-79" x="397.371094"/>
     </g>
    </g>
   </g>
   <g id="line2d_18">
    <path d="M 73.832727 295.488 
L 74.918528 269.638929 
L 76.00433 248.02798 
L 77.090131 232.097425 
L 78.175932 217.890655 
L 79.261733 206.460453 
L 81.433335 186.777675 
L 84.690739 165.263135 
L 85.77654 160.677942 
L 86.862341 153.042382 
L 87.948142 150.061428 
L 89.033943 144.901641 
L 90.119745 140.76764 
L 91.205546 138.106763 
L 92.291347 133.567847 
L 93.377148 133.162931 
L 94.462949 132.881418 
L 95.54875 165.347974 
L 96.634552 164.229635 
L 97.720353 160.920892 
L 98.806154 156.574793 
L 99.891955 155.032255 
L 100.977756 150.304378 
L 103.149358 143.613622 
L 104.23516 141.835848 
L 107.492563 133.093517 
L 108.578364 131.103643 
L 110.749967 125.072322 
L 111.835768 124.239352 
L 112.921569 121.782861 
L 114.00737 118.258163 
L 115.093171 116.812034 
L 116.178972 115.03426 
L 117.264773 112.168997 
L 118.350575 110.395079 
L 119.436376 107.502821 
L 120.522177 105.84845 
L 121.607978 102.917628 
L 122.693779 101.984393 
L 123.77958 99.612742 
L 124.865382 97.511035 
L 125.951183 95.690841 
L 127.036984 94.18301 
L 128.122785 90.920544 
L 129.208586 90.789428 
L 130.294387 89.219896 
L 131.380189 87.376564 
L 132.46599 88.105413 
L 133.551791 85.564082 
L 134.637592 84.711831 
L 135.723393 84.187368 
L 136.809194 83.153868 
L 137.894995 83.824872 
L 138.980797 123.194283 
L 140.066598 125.442531 
L 141.152399 126.109679 
L 142.2382 123.684038 
L 143.324001 123.410238 
L 144.409802 121.686452 
L 146.581405 120.282743 
L 147.667206 119.403497 
L 148.753007 117.772264 
L 149.838808 116.754189 
L 150.924609 116.333848 
L 152.01041 114.047036 
L 154.182013 113.271911 
L 155.267814 112.130433 
L 156.353615 111.598258 
L 157.439416 109.889898 
L 159.611019 107.927019 
L 160.69682 105.883157 
L 161.782621 107.711063 
L 165.040024 103.118158 
L 166.125825 103.353395 
L 167.211627 100.264464 
L 168.297428 100.896904 
L 169.383229 100.141061 
L 170.46903 98.409563 
L 171.554831 98.417276 
L 172.640632 97.76941 
L 173.726434 96.273148 
L 174.812235 96.080331 
L 175.898036 94.329551 
L 176.983837 93.774238 
L 178.069638 92.493932 
L 179.155439 92.00032 
L 180.24124 90.596611 
L 181.327042 90.403794 
L 182.412843 88.622163 
L 183.498644 87.762198 
L 185.670246 85.783894 
L 186.756047 84.345478 
L 187.841849 84.16423 
L 188.92765 82.320898 
L 190.013451 83.392961 
L 192.185053 79.096994 
L 193.270854 79.397789 
L 194.356656 78.495405 
L 195.442457 77.242093 
L 196.528258 76.96058 
L 197.614059 75.506738 
L 198.69986 74.912862 
L 199.785661 73.70197 
L 200.871462 71.438296 
L 201.957264 70.451072 
L 204.128866 69.178479 
L 205.214667 67.89046 
L 206.300468 67.238738 
L 207.386269 66.953368 
L 208.472071 65.796465 
L 209.557872 65.460964 
L 210.643673 63.694758 
L 211.729474 64.967352 
L 212.815275 63.212715 
L 213.901076 61.967116 
L 214.986877 61.141859 
L 216.072679 60.478568 
L 217.15848 60.868058 
L 218.244281 60.663672 
L 219.330082 60.964467 
L 220.415883 58.469413 
L 221.501684 60.073652 
L 222.587486 58.951456 
L 223.673287 59.45278 
L 224.759088 60.397584 
L 225.844889 107.664787 
L 226.93069 109.18033 
L 228.016491 109.658517 
L 229.102292 109.504263 
L 230.188094 108.216244 
L 231.273895 108.297228 
L 232.359696 108.185394 
L 233.445497 107.741914 
L 234.531298 107.171175 
L 235.617099 105.497522 
L 236.702901 105.798317 
L 237.788702 105.28928 
L 239.960304 104.074531 
L 241.046105 102.975474 
L 242.131906 104.375326 
L 243.217708 102.612977 
L 244.303509 102.154072 
L 245.38931 102.69396 
L 246.475111 100.943181 
L 247.560912 100.434143 
L 248.646713 100.715656 
L 249.732514 100.565259 
L 250.818316 99.709151 
L 251.904117 99.07671 
L 252.989918 98.637087 
L 254.075719 98.71807 
L 255.16152 97.541886 
L 256.247321 97.923664 
L 257.333123 97.341356 
L 258.418924 97.171677 
L 259.504725 96.049481 
L 260.590526 95.899083 
L 261.676327 96.431259 
L 262.762128 94.896434 
L 264.933731 95.035262 
L 266.019532 94.788456 
L 267.105333 94.769175 
L 268.191134 94.017188 
L 269.276935 94.830876 
L 270.362736 92.740738 
L 271.448538 93.758812 
L 272.534339 92.594197 
L 273.62014 92.571059 
L 274.705941 93.450305 
L 276.877543 91.464288 
L 277.963344 91.313891 
L 279.049146 91.375592 
L 280.134947 91.070941 
L 281.220748 91.016952 
L 283.39235 88.518042 
L 284.478151 90.037441 
L 285.563953 88.888251 
L 286.649754 88.14012 
L 287.735555 88.390782 
L 288.821356 87.796905 
L 289.907157 87.588663 
L 290.992958 87.550099 
L 292.07876 86.628433 
L 293.164561 85.382834 
L 295.336163 84.885366 
L 296.421964 84.842946 
L 297.507765 83.759314 
L 298.593566 85.783894 
L 299.679368 83.551071 
L 300.765169 83.408386 
L 301.85097 83.959844 
L 302.936771 82.853073 
L 304.022572 82.21292 
L 305.108373 81.946832 
L 306.194175 80.975034 
L 307.279976 81.268116 
L 308.365777 80.543123 
L 309.451578 79.675446 
L 310.537379 79.555899 
L 311.62318 79.571325 
L 312.708981 78.402852 
L 313.794783 78.291019 
L 314.880584 76.690636 
L 315.966385 76.810183 
L 317.052186 76.636647 
L 318.137987 76.621222 
L 319.223788 75.352485 
L 320.30959 75.402617 
L 321.395391 74.766321 
L 322.481192 75.460462 
L 323.566993 73.983483 
L 325.738595 72.194139 
L 326.824396 73.482158 
L 327.910198 72.587486 
L 330.0818 71.237766 
L 331.167601 70.852132 
L 332.253402 70.181128 
L 333.339203 70.285249 
L 334.425005 69.340445 
L 335.510806 68.758137 
L 336.596607 68.866115 
L 337.682408 67.543389 
L 339.85401 66.263083 
L 340.939811 66.266939 
L 342.025613 64.971208 
L 343.111414 64.666557 
L 344.197215 65.164025 
L 345.283016 63.359256 
L 346.368817 63.336118 
L 347.454618 62.668971 
L 348.54042 61.797437 
L 350.712022 61.650896 
L 351.797823 61.114864 
L 352.883624 59.992668 
L 353.969425 59.849984 
L 355.055227 59.225256 
L 356.141028 59.244538 
L 358.31263 57.516896 
L 359.398431 57.27009 
L 360.484232 56.113187 
L 362.655835 55.739121 
L 363.741636 55.037267 
L 364.827437 54.786605 
L 365.913238 54.782748 
L 366.999039 53.714541 
L 368.08484 53.568 
L 369.170642 56.930732 
L 370.256443 58.191756 
L 371.342244 57.86011 
L 372.428045 60.740799 
L 373.513846 62.55328 
L 374.599647 62.194641 
L 375.685448 63.278273 
L 376.77125 61.693316 
L 377.857051 62.105945 
L 378.942852 62.375889 
L 380.028653 63.023754 
L 381.114454 63.143301 
L 382.200255 62.379745 
L 383.286057 62.410596 
L 384.371858 63.663907 
L 385.457659 62.325756 
L 386.54346 63.405532 
L 387.629261 62.962053 
L 388.715062 62.372032 
L 389.800863 63.124019 
L 390.886665 63.336118 
L 391.972466 64.169088 
L 393.058267 62.927346 
L 394.144068 62.491579 
L 395.229869 63.336118 
L 396.31567 62.850219 
L 397.401472 62.695965 
L 398.487273 64.053398 
L 398.487273 64.053398 
" clip-path="url(#p59b303eb73)" style="fill: none; stroke: #1f77b4; stroke-width: 1.5; stroke-linecap: square"/>
   </g>
   <g id="line2d_19">
    <path d="M 73.832727 282.106488 
L 74.918528 258.351412 
L 76.00433 250.523034 
L 77.090131 243.581616 
L 78.175932 228.349059 
L 79.261733 215.777379 
L 80.347534 227.192156 
L 81.433335 205.982266 
L 82.519137 197.961072 
L 83.604938 193.179206 
L 84.690739 173.280473 
L 85.77654 178.717917 
L 86.862341 177.483887 
L 87.948142 175.015827 
L 89.033943 174.82301 
L 90.119745 170.426779 
L 91.205546 163.215416 
L 92.291347 163.986685 
L 93.377148 165.027898 
L 94.462949 165.760603 
L 95.54875 188.782974 
L 96.634552 192.793571 
L 97.720353 176.905436 
L 98.806154 182.844205 
L 99.891955 181.880119 
L 100.977756 180.607526 
L 102.063557 166.339054 
L 103.149358 165.529222 
L 104.23516 165.374969 
L 105.320961 177.098253 
L 106.406762 160.631666 
L 107.492563 152.918979 
L 108.578364 149.911031 
L 109.664165 156.891013 
L 110.749967 150.142412 
L 111.835768 145.437672 
L 112.921569 146.825956 
L 114.00737 154.808587 
L 115.093171 151.762076 
L 116.178972 146.671702 
L 117.264773 133.830078 
L 118.350575 126.734406 
L 119.436376 137.802112 
L 120.522177 128.816832 
L 121.607978 132.441795 
L 122.693779 132.518922 
L 123.77958 125.268996 
L 124.865382 125.616067 
L 125.951183 127.968436 
L 127.036984 128.624015 
L 128.122785 124.613417 
L 129.208586 119.561607 
L 130.294387 117.286364 
L 131.380189 120.410003 
L 132.46599 117.594872 
L 133.551791 120.988454 
L 134.637592 118.983156 
L 135.723393 118.327577 
L 136.809194 119.175973 
L 137.894995 118.906029 
L 138.980797 159.590453 
L 140.066598 152.996106 
L 141.152399 150.952244 
L 142.2382 142.275471 
L 143.324001 154.962841 
L 144.409802 142.121217 
L 145.495604 146.478885 
L 146.581405 147.288717 
L 147.667206 144.435023 
L 148.753007 148.21424 
L 149.838808 147.905732 
L 150.924609 145.244855 
L 153.096212 130.82213 
L 154.182013 143.933698 
L 155.267814 135.064108 
L 156.353615 134.562784 
L 157.439416 142.275471 
L 158.525217 143.432374 
L 159.611019 134.832728 
L 160.69682 135.64256 
L 161.782621 134.986981 
L 162.868422 136.953717 
L 163.954223 152.456218 
L 165.040024 133.907205 
L 166.125825 135.64256 
L 167.211627 132.05616 
L 168.297428 132.711739 
L 169.383229 139.498903 
L 170.46903 121.219835 
L 171.554831 123.803585 
L 172.640632 117.247801 
L 173.726434 127.505675 
L 174.812235 130.436496 
L 175.898036 120.757074 
L 176.983837 130.089425 
L 178.069638 120.71851 
L 179.155439 127.968436 
L 180.24124 123.032316 
L 182.412843 133.598698 
L 183.498644 117.170674 
L 185.670246 135.796814 
L 186.756047 111.540413 
L 187.841849 111.771793 
L 188.92765 118.13476 
L 190.013451 113.892782 
L 191.099252 124.844798 
L 192.185053 104.290487 
L 193.270854 115.705264 
L 194.356656 111.926047 
L 195.442457 112.041737 
L 196.528258 102.593696 
L 197.614059 101.359666 
L 198.69986 106.527166 
L 199.785661 108.532465 
L 200.871462 107.606942 
L 201.957264 106.218659 
L 203.043065 114.278417 
L 204.128866 110.653454 
L 205.214667 104.290487 
L 206.300468 110.61489 
L 207.386269 103.249274 
L 208.472071 101.475356 
L 209.557872 103.943416 
L 210.643673 97.580449 
L 211.729474 100.588397 
L 212.815275 101.398229 
L 213.901076 97.426195 
L 214.986877 95.883658 
L 216.072679 98.505971 
L 218.244281 101.783863 
L 219.330082 99.238677 
L 220.415883 99.894255 
L 222.587486 97.580449 
L 223.673287 99.238677 
L 224.759088 98.390281 
L 225.844889 147.288717 
L 226.93069 129.125339 
L 228.016491 146.98021 
L 229.102292 185.427955 
L 230.188094 150.026721 
L 231.273895 149.718214 
L 232.359696 153.574557 
L 233.445497 124.574854 
L 234.531298 143.740881 
L 235.617099 133.521571 
L 236.702901 130.243679 
L 237.788702 130.552186 
L 238.874503 140.92575 
L 239.960304 165.182151 
L 241.046105 150.103848 
L 242.131906 165.606349 
L 243.217708 156.042617 
L 244.303509 134.755601 
L 245.38931 127.042914 
L 246.475111 136.105321 
L 247.560912 135.179799 
L 248.646713 132.596048 
L 249.732514 144.242206 
L 250.818316 132.364668 
L 251.904117 123.572204 
L 252.989918 123.148007 
L 254.075719 135.411179 
L 255.16152 127.968436 
L 256.247321 127.235731 
L 258.418924 142.314034 
L 259.504725 116.129461 
L 260.590526 142.776795 
L 261.676327 119.600171 
L 262.762128 145.938997 
L 263.847929 125.731757 
L 264.933731 132.711739 
L 266.019532 132.557485 
L 267.105333 128.276944 
L 268.191134 143.470937 
L 269.276935 126.271645 
L 270.362736 128.701141 
L 271.448538 133.1745 
L 272.534339 121.644033 
L 273.62014 155.117095 
L 274.705941 138.689071 
L 275.791742 115.55101 
L 276.877543 123.340824 
L 277.963344 112.118864 
L 279.049146 126.155955 
L 280.134947 130.629313 
L 281.220748 139.807411 
L 282.306549 116.823603 
L 283.39235 126.425899 
L 284.478151 129.858044 
L 285.563953 120.410003 
L 286.649754 118.25045 
L 287.735555 127.351421 
L 288.821356 132.480358 
L 289.907157 134.254276 
L 290.992958 123.996402 
L 292.07876 130.475059 
L 293.164561 121.72116 
L 294.250362 130.59075 
L 295.336163 129.973735 
L 296.421964 145.283419 
L 297.507765 115.6667 
L 298.593566 104.946065 
L 299.679368 115.55101 
L 300.765169 117.093547 
L 301.85097 114.085599 
L 302.936771 117.941943 
L 304.022572 137.10797 
L 305.108373 112.774443 
L 306.194175 120.178622 
L 307.279976 112.928696 
L 308.365777 124.150656 
L 309.451578 114.085599 
L 310.537379 121.296962 
L 311.62318 112.928696 
L 312.708981 120.062932 
L 313.794783 111.84892 
L 314.880584 107.91545 
L 315.966385 108.763845 
L 319.223788 128.084126 
L 320.30959 114.278417 
L 321.395391 105.56308 
L 322.481192 107.298435 
L 323.566993 117.903379 
L 324.652794 106.604293 
L 325.738595 123.996402 
L 326.824396 106.411476 
L 327.910198 111.077651 
L 328.995999 111.386159 
L 330.0818 102.478005 
L 331.167601 103.056457 
L 332.253402 121.875413 
L 333.339203 102.439442 
L 334.425005 114.124163 
L 335.510806 117.440618 
L 336.596607 114.43267 
L 337.682408 112.465935 
L 338.768209 119.407353 
L 339.85401 102.902203 
L 340.939811 112.118864 
L 342.025613 93.145654 
L 343.111414 104.868938 
L 344.197215 96.69349 
L 345.283016 107.876886 
L 346.368817 102.555132 
L 347.454618 100.704087 
L 348.54042 101.899554 
L 349.626221 95.845094 
L 350.712022 104.560431 
L 352.883624 91.718807 
L 353.969425 96.346419 
L 355.055227 105.138882 
L 356.141028 92.644329 
L 357.226829 94.649628 
L 358.31263 98.467408 
L 359.398431 89.212183 
L 360.484232 96.037912 
L 362.655835 87.438265 
L 363.741636 95.305206 
L 364.827437 96.500673 
L 365.913238 98.467408 
L 366.999039 91.950187 
L 368.08484 98.930169 
L 369.170642 94.186867 
L 370.256443 97.194815 
L 371.342244 103.056457 
L 372.428045 103.904852 
L 373.513846 109.226606 
L 374.599647 98.737352 
L 375.685448 108.223957 
L 376.77125 94.958135 
L 377.857051 97.349068 
L 378.942852 108.686718 
L 380.028653 107.568379 
L 382.200255 98.698789 
L 383.286057 96.886307 
L 384.371858 98.390281 
L 385.457659 98.428845 
L 386.54346 96.847744 
L 387.629261 105.44739 
L 388.715062 102.478005 
L 389.800863 98.660225 
L 391.972466 100.125636 
L 393.058267 96.963434 
L 394.144068 109.997875 
L 395.229869 105.216009 
L 396.31567 121.335525 
L 397.401472 97.271941 
L 398.487273 106.9128 
L 398.487273 106.9128 
" clip-path="url(#p59b303eb73)" style="fill: none; stroke: #ff7f0e; stroke-width: 1.5; stroke-linecap: square"/>
   </g>
   <g id="line2d_20">
    <path d="M 73.832727 293.11712 
L 74.918528 281.813791 
L 77.090131 273.010916 
L 78.175932 269.20779 
L 79.261733 262.266372 
L 80.347534 265.165185 
L 81.433335 253.436502 
L 82.519137 246.681345 
L 83.604938 251.893964 
L 84.690739 240.644239 
L 85.77654 240.511195 
L 86.862341 244.367539 
L 87.948142 238.144171 
L 89.033943 237.266468 
L 91.205546 237.851475 
L 92.291347 234.101566 
L 93.377148 234.208002 
L 94.462949 234.128175 
L 95.54875 247.904577 
L 96.634552 245.803641 
L 97.720353 240.112064 
L 98.806154 238.090954 
L 99.891955 241.069594 
L 100.977756 243.037871 
L 102.063557 230.697572 
L 103.149358 235.910192 
L 104.23516 233.117813 
L 105.320961 240.856723 
L 106.406762 232.559029 
L 107.492563 226.734793 
L 108.578364 223.41024 
L 109.664165 222.905059 
L 110.749967 225.564393 
L 111.835768 223.516675 
L 112.921569 223.383631 
L 114.00737 228.436983 
L 115.093171 226.841228 
L 116.178972 225.85709 
L 117.264773 212.905174 
L 118.350575 207.426467 
L 119.436376 212.745521 
L 120.522177 212.851957 
L 121.607978 214.04858 
L 122.693779 212.187123 
L 123.77958 214.47432 
L 124.865382 210.883679 
L 125.951183 211.974253 
L 127.036984 210.378498 
L 128.122785 206.070191 
L 129.208586 203.782993 
L 130.294387 204.022087 
L 131.380189 203.835825 
L 132.46599 202.665811 
L 133.551791 205.35214 
L 134.637592 202.399723 
L 135.723393 202.745637 
L 136.809194 204.022087 
L 137.894995 202.798855 
L 138.980797 226.894446 
L 140.066598 223.330413 
L 141.152399 220.64447 
L 142.2382 220.697688 
L 143.324001 230.192005 
L 144.409802 219.314417 
L 145.495604 219.234976 
L 146.581405 223.596501 
L 147.667206 221.947528 
L 148.753007 223.888812 
L 149.838808 224.447596 
L 150.924609 221.149651 
L 152.01041 219.926419 
L 153.096212 206.043582 
L 154.182013 223.436848 
L 155.267814 220.856955 
L 156.353615 216.442212 
L 157.439416 225.670828 
L 158.525217 218.489931 
L 159.611019 207.87843 
L 161.782621 216.28256 
L 162.868422 228.942164 
L 163.954223 222.638971 
L 165.040024 214.607364 
L 166.125825 217.798488 
L 167.211627 208.569873 
L 168.297428 209.660447 
L 169.383229 213.862319 
L 170.46903 201.894542 
L 171.554831 206.468937 
L 172.640632 202.559376 
L 173.726434 208.569873 
L 174.812235 210.005975 
L 175.898036 202.426332 
L 176.983837 212.77213 
L 178.069638 203.756385 
L 179.155439 205.750886 
L 180.24124 200.644701 
L 181.327042 214.208233 
L 182.412843 208.410606 
L 183.498644 199.50091 
L 184.584445 208.729525 
L 185.670246 215.352024 
L 186.756047 199.793606 
L 187.841849 205.963756 
L 188.92765 201.2031 
L 190.013451 197.559626 
L 191.099252 204.474436 
L 192.185053 199.102164 
L 193.270854 201.575237 
L 194.356656 196.52227 
L 195.442457 195.77761 
L 196.528258 192.932014 
L 197.614059 186.655429 
L 198.69986 194.155246 
L 199.785661 190.298903 
L 200.871462 194.633818 
L 201.957264 192.266795 
L 203.043065 198.144634 
L 204.128866 197.187103 
L 205.214667 191.469303 
L 206.300468 193.277542 
L 207.386269 188.995844 
L 208.472071 188.995844 
L 209.557872 190.937127 
L 210.643673 186.362733 
L 211.729474 190.35212 
L 212.815275 188.729756 
L 213.901076 186.682038 
L 214.986877 187.213828 
L 216.072679 190.777475 
L 217.15848 188.836191 
L 218.244281 188.729756 
L 219.330082 187.054175 
L 220.415883 188.384228 
L 221.501684 188.091532 
L 222.587486 185.67129 
L 223.673287 187.90527 
L 224.759088 186.495777 
L 225.844889 221.894311 
L 226.93069 214.819849 
L 228.016491 219.287808 
L 229.102292 236.628243 
L 230.188094 224.447596 
L 231.273895 219.953028 
L 232.359696 229.926303 
L 233.445497 195.24582 
L 234.531298 215.75077 
L 235.617099 212.506043 
L 236.702901 212.532651 
L 237.788702 207.320032 
L 238.874503 220.325165 
L 239.960304 235.112314 
L 241.046105 227.346409 
L 242.131906 232.00063 
L 243.217708 237.160033 
L 244.303509 218.995497 
L 245.38931 206.655198 
L 246.475111 210.511542 
L 247.560912 207.745386 
L 248.646713 207.453076 
L 249.732514 213.064827 
L 250.818316 213.250703 
L 251.904117 202.000977 
L 252.989918 207.266814 
L 254.075719 215.591117 
L 255.16152 205.591233 
L 256.247321 211.681556 
L 257.333123 213.250703 
L 258.418924 222.372883 
L 259.504725 202.213847 
L 260.590526 219.793375 
L 261.676327 205.750886 
L 262.762128 221.123042 
L 263.847929 204.554262 
L 264.933731 211.974253 
L 266.019532 206.38911 
L 267.105333 203.862434 
L 268.191134 227.186757 
L 269.276935 205.298922 
L 271.448538 211.654948 
L 272.534339 205.724277 
L 273.62014 230.378267 
L 274.705941 215.591117 
L 275.791742 204.421218 
L 276.877543 206.522154 
L 277.963344 196.282791 
L 279.049146 211.867818 
L 280.134947 207.931648 
L 281.220748 218.304055 
L 282.306549 204.580871 
L 283.39235 215.165763 
L 284.478151 212.02747 
L 285.563953 207.107162 
L 286.649754 204.022087 
L 287.735555 209.128657 
L 288.821356 210.405107 
L 289.907157 216.335777 
L 290.992958 205.511407 
L 292.07876 221.787876 
L 293.164561 202.240456 
L 294.250362 216.655083 
L 295.336163 207.373249 
L 296.421964 224.234726 
L 297.507765 197.373365 
L 298.593566 191.09678 
L 299.679368 198.01159 
L 300.765169 201.894542 
L 301.85097 193.596848 
L 302.936771 201.043447 
L 304.022572 219.633722 
L 305.108373 200.618092 
L 306.194175 199.660562 
L 307.279976 193.197716 
L 308.365777 216.49543 
L 309.451578 194.341508 
L 310.537379 203.1976 
L 311.62318 205.245705 
L 312.708981 203.570123 
L 313.794783 195.272429 
L 314.880584 198.304286 
L 315.966385 193.889158 
L 317.052186 200.618092 
L 318.137987 208.357388 
L 319.223788 209.633838 
L 321.395391 192.612709 
L 322.481192 192.027701 
L 323.566993 206.868068 
L 324.652794 194.28829 
L 325.738595 210.697803 
L 326.824396 200.352005 
L 327.910198 202.585984 
L 328.995999 195.963871 
L 330.0818 192.772361 
L 331.167601 195.325646 
L 332.253402 205.112661 
L 333.339203 187.745618 
L 334.425005 203.383862 
L 335.510806 203.250818 
L 336.596607 198.251069 
L 337.682408 194.421334 
L 338.768209 205.484798 
L 339.85401 196.495661 
L 340.939811 196.362617 
L 342.025613 189.873548 
L 343.111414 198.171242 
L 344.197215 185.219327 
L 345.283016 194.28829 
L 346.368817 193.064672 
L 347.454618 189.102279 
L 348.54042 190.671425 
L 349.626221 183.277658 
L 350.712022 191.947875 
L 351.797823 187.37348 
L 352.883624 185.245936 
L 353.969425 184.820195 
L 355.055227 189.60746 
L 356.141028 181.868164 
L 357.226829 185.644682 
L 358.31263 183.942492 
L 359.398431 175.086399 
L 360.484232 179.767228 
L 361.570033 180.03293 
L 362.655835 181.921382 
L 363.741636 181.868164 
L 364.827437 186.017204 
L 366.999039 180.910634 
L 368.08484 189.421199 
L 369.170642 184.341623 
L 370.256443 186.123254 
L 371.342244 189.288155 
L 372.428045 189.208329 
L 373.513846 189.952989 
L 374.599647 187.267045 
L 375.685448 199.208213 
L 376.77125 181.814947 
L 377.857051 194.580601 
L 378.942852 193.517021 
L 380.028653 191.149998 
L 381.114454 195.99048 
L 382.200255 182.745868 
L 383.286057 179.634184 
L 384.371858 182.532998 
L 385.457659 191.149998 
L 386.54346 184.873413 
L 387.629261 198.569988 
L 388.715062 191.043563 
L 389.800863 184.900022 
L 390.886665 187.639182 
L 391.972466 189.580851 
L 393.058267 187.533133 
L 394.144068 199.048946 
L 395.229869 190.804084 
L 396.31567 203.862434 
L 397.401472 191.62869 
L 398.487273 190.857421 
L 398.487273 190.857421 
" clip-path="url(#p59b303eb73)" style="fill: none; stroke: #2ca02c; stroke-width: 1.5; stroke-linecap: square"/>
   </g>
   <g id="line2d_21">
    <path d="M 368.08484 91.024665 
L 369.170642 96.500673 
L 370.256443 107.606942 
L 371.342244 92.258695 
L 372.428045 96.924871 
L 373.513846 124.806234 
L 374.599647 93.569852 
L 375.685448 94.071176 
L 376.77125 109.766495 
L 377.857051 100.202763 
L 378.942852 111.386159 
L 380.028653 100.472707 
L 381.114454 114.625487 
L 382.200255 107.606942 
L 383.286057 112.504498 
L 384.371858 96.269292 
L 385.457659 132.634612 
L 386.54346 117.671999 
L 387.629261 121.219835 
L 388.715062 131.94047 
L 389.800863 137.493605 
L 390.886665 121.759723 
L 391.972466 132.827429 
L 393.058267 119.137409 
L 394.144068 115.281066 
L 395.229869 104.251923 
L 396.31567 117.556309 
L 397.401472 137.879239 
L 398.487273 119.523044 
L 398.487273 119.523044 
" clip-path="url(#p59b303eb73)" style="fill: none; stroke: #d62728; stroke-width: 1.5; stroke-linecap: square"/>
   </g>
   <g id="line2d_22">
    <path d="M 368.08484 179.900272 
L 369.170642 184.315014 
L 370.256443 190.857301 
L 371.342244 179.660793 
L 372.428045 176.362848 
L 373.513846 211.60173 
L 374.599647 180.511888 
L 375.685448 179.74062 
L 376.77125 189.580851 
L 377.857051 180.139366 
L 378.942852 195.378478 
L 380.028653 188.516886 
L 381.114454 197.05406 
L 382.200255 195.192603 
L 383.286057 193.703283 
L 384.371858 183.064788 
L 385.457659 208.995613 
L 386.54346 195.325646 
L 387.629261 200.564875 
L 388.715062 202.213847 
L 389.800863 202.90529 
L 390.886665 204.713529 
L 391.972466 210.085801 
L 393.058267 199.155381 
L 394.144068 197.905155 
L 395.229869 185.511638 
L 396.31567 192.293403 
L 397.401472 201.947733 
L 398.487273 191.362735 
L 398.487273 191.362735 
" clip-path="url(#p59b303eb73)" style="fill: none; stroke: #9467bd; stroke-width: 1.5; stroke-linecap: square"/>
   </g>
   <g id="patch_3">
    <path d="M 57.6 307.584 
L 57.6 41.472 
" style="fill: none; stroke: #000000; stroke-width: 0.8; stroke-linejoin: miter; stroke-linecap: square"/>
   </g>
   <g id="patch_4">
    <path d="M 414.72 307.584 
L 414.72 41.472 
" style="fill: none; stroke: #000000; stroke-width: 0.8; stroke-linejoin: miter; stroke-linecap: square"/>
   </g>
   <g id="patch_5">
    <path d="M 57.6 307.584 
L 414.72 307.584 
" style="fill: none; stroke: #000000; stroke-width: 0.8; stroke-linejoin: miter; stroke-linecap: square"/>
   </g>
   <g id="patch_6">
    <path d="M 57.6 41.472 
L 414.72 41.472 
" style="fill: none; stroke: #000000; stroke-width: 0.8; stroke-linejoin: miter; stroke-linecap: square"/>
   </g>
   <g id="text_20">
    <!-- Learning Curves -->
    <g transform="translate(187.37625 35.472) scale(0.12 -0.12)">
     <defs>
      <path id="DejaVuSans-4c" d="M 628 4666 
L 1259 4666 
L 1259 531 
L 3531 531 
L 3531 0 
L 628 0 
L 628 4666 
z
" transform="scale(0.015625)"/>
      <path id="DejaVuSans-65" d="M 3597 1894 
L 3597 1613 
L 953 1613 
Q 991 1019 1311 708 
Q 1631 397 2203 397 
Q 2534 397 2845 478 
Q 3156 559 3463 722 
L 3463 178 
Q 3153 47 2828 -22 
Q 2503 -91 2169 -91 
Q 1331 -91 842 396 
Q 353 884 353 1716 
Q 353 2575 817 3079 
Q 1281 3584 2069 3584 
Q 2775 3584 3186 3129 
Q 3597 2675 3597 1894 
z
M 3022 2063 
Q 3016 2534 2758 2815 
Q 2500 3097 2075 3097 
Q 1594 3097 1305 2825 
Q 1016 2553 972 2059 
L 3022 2063 
z
" transform="scale(0.015625)"/>
      <path id="DejaVuSans-6e" d="M 3513 2113 
L 3513 0 
L 2938 0 
L 2938 2094 
Q 2938 2591 2744 2837 
Q 2550 3084 2163 3084 
Q 1697 3084 1428 2787 
Q 1159 2491 1159 1978 
L 1159 0 
L 581 0 
L 581 3500 
L 1159 3500 
L 1159 2956 
Q 1366 3272 1645 3428 
Q 1925 3584 2291 3584 
Q 2894 3584 3203 3211 
Q 3513 2838 3513 2113 
z
" transform="scale(0.015625)"/>
      <path id="DejaVuSans-69" d="M 603 3500 
L 1178 3500 
L 1178 0 
L 603 0 
L 603 3500 
z
M 603 4863 
L 1178 4863 
L 1178 4134 
L 603 4134 
L 603 4863 
z
" transform="scale(0.015625)"/>
      <path id="DejaVuSans-67" d="M 2906 1791 
Q 2906 2416 2648 2759 
Q 2391 3103 1925 3103 
Q 1463 3103 1205 2759 
Q 947 2416 947 1791 
Q 947 1169 1205 825 
Q 1463 481 1925 481 
Q 2391 481 2648 825 
Q 2906 1169 2906 1791 
z
M 3481 434 
Q 3481 -459 3084 -895 
Q 2688 -1331 1869 -1331 
Q 1566 -1331 1297 -1286 
Q 1028 -1241 775 -1147 
L 775 -588 
Q 1028 -725 1275 -790 
Q 1522 -856 1778 -856 
Q 2344 -856 2625 -561 
Q 2906 -266 2906 331 
L 2906 616 
Q 2728 306 2450 153 
Q 2172 0 1784 0 
Q 1141 0 747 490 
Q 353 981 353 1791 
Q 353 2603 747 3093 
Q 1141 3584 1784 3584 
Q 2172 3584 2450 3431 
Q 2728 3278 2906 2969 
L 2906 3500 
L 3481 3500 
L 3481 434 
z
" transform="scale(0.015625)"/>
      <path id="DejaVuSans-20" transform="scale(0.015625)"/>
      <path id="DejaVuSans-43" d="M 4122 4306 
L 4122 3641 
Q 3803 3938 3442 4084 
Q 3081 4231 2675 4231 
Q 1875 4231 1450 3742 
Q 1025 3253 1025 2328 
Q 1025 1406 1450 917 
Q 1875 428 2675 428 
Q 3081 428 3442 575 
Q 3803 722 4122 1019 
L 4122 359 
Q 3791 134 3420 21 
Q 3050 -91 2638 -91 
Q 1578 -91 968 557 
Q 359 1206 359 2328 
Q 359 3453 968 4101 
Q 1578 4750 2638 4750 
Q 3056 4750 3426 4639 
Q 3797 4528 4122 4306 
z
" transform="scale(0.015625)"/>
      <path id="DejaVuSans-76" d="M 191 3500 
L 800 3500 
L 1894 563 
L 2988 3500 
L 3597 3500 
L 2284 0 
L 1503 0 
L 191 3500 
z
" transform="scale(0.015625)"/>
     </defs>
     <use xlink:href="#DejaVuSans-4c"/>
     <use xlink:href="#DejaVuSans-65" x="53.962891"/>
     <use xlink:href="#DejaVuSans-61" x="115.486328"/>
     <use xlink:href="#DejaVuSans-72" x="176.765625"/>
     <use xlink:href="#DejaVuSans-6e" x="216.128906"/>
     <use xlink:href="#DejaVuSans-69" x="279.507812"/>
     <use xlink:href="#DejaVuSans-6e" x="307.291016"/>
     <use xlink:href="#DejaVuSans-67" x="370.669922"/>
     <use xlink:href="#DejaVuSans-20" x="434.146484"/>
     <use xlink:href="#DejaVuSans-43" x="465.933594"/>
     <use xlink:href="#DejaVuSans-75" x="535.757812"/>
     <use xlink:href="#DejaVuSans-72" x="599.136719"/>
     <use xlink:href="#DejaVuSans-76" x="640.25"/>
     <use xlink:href="#DejaVuSans-65" x="699.429688"/>
     <use xlink:href="#DejaVuSans-73" x="760.953125"/>
    </g>
   </g>
   <g id="legend_1">
    <g id="patch_7">
     <path d="M 214.18875 302.584 
L 407.72 302.584 
Q 409.72 302.584 409.72 300.584 
L 409.72 228.193375 
Q 409.72 226.193375 407.72 226.193375 
L 214.18875 226.193375 
Q 212.18875 226.193375 212.18875 228.193375 
L 212.18875 300.584 
Q 212.18875 302.584 214.18875 302.584 
z
" style="fill: #ffffff; opacity: 0.8; stroke: #cccccc; stroke-linejoin: miter"/>
    </g>
    <g id="line2d_23">
     <path d="M 216.18875 234.291812 
L 226.18875 234.291812 
L 236.18875 234.291812 
" style="fill: none; stroke: #1f77b4; stroke-width: 1.5; stroke-linecap: square"/>
    </g>
    <g id="text_21">
     <!-- Train Accuracy -->
     <g transform="translate(244.18875 237.791812) scale(0.1 -0.1)">
      <defs>
       <path id="DejaVuSans-54" d="M -19 4666 
L 3928 4666 
L 3928 4134 
L 2272 4134 
L 2272 0 
L 1638 0 
L 1638 4134 
L -19 4134 
L -19 4666 
z
" transform="scale(0.015625)"/>
      </defs>
      <use xlink:href="#DejaVuSans-54"/>
      <use xlink:href="#DejaVuSans-72" x="46.333984"/>
      <use xlink:href="#DejaVuSans-61" x="87.447266"/>
      <use xlink:href="#DejaVuSans-69" x="148.726562"/>
      <use xlink:href="#DejaVuSans-6e" x="176.509766"/>
      <use xlink:href="#DejaVuSans-20" x="239.888672"/>
      <use xlink:href="#DejaVuSans-41" x="271.675781"/>
      <use xlink:href="#DejaVuSans-63" x="338.333984"/>
      <use xlink:href="#DejaVuSans-63" x="393.314453"/>
      <use xlink:href="#DejaVuSans-75" x="448.294922"/>
      <use xlink:href="#DejaVuSans-72" x="511.673828"/>
      <use xlink:href="#DejaVuSans-61" x="552.787109"/>
      <use xlink:href="#DejaVuSans-63" x="614.066406"/>
      <use xlink:href="#DejaVuSans-79" x="669.046875"/>
     </g>
    </g>
    <g id="line2d_24">
     <path d="M 216.18875 248.969937 
L 226.18875 248.969937 
L 236.18875 248.969937 
" style="fill: none; stroke: #ff7f0e; stroke-width: 1.5; stroke-linecap: square"/>
    </g>
    <g id="text_22">
     <!-- Validation Accuracy -->
     <g transform="translate(244.18875 252.469937) scale(0.1 -0.1)">
      <defs>
       <path id="DejaVuSans-56" d="M 1831 0 
L 50 4666 
L 709 4666 
L 2188 738 
L 3669 4666 
L 4325 4666 
L 2547 0 
L 1831 0 
z
" transform="scale(0.015625)"/>
       <path id="DejaVuSans-6c" d="M 603 4863 
L 1178 4863 
L 1178 0 
L 603 0 
L 603 4863 
z
" transform="scale(0.015625)"/>
       <path id="DejaVuSans-64" d="M 2906 2969 
L 2906 4863 
L 3481 4863 
L 3481 0 
L 2906 0 
L 2906 525 
Q 2725 213 2448 61 
Q 2172 -91 1784 -91 
Q 1150 -91 751 415 
Q 353 922 353 1747 
Q 353 2572 751 3078 
Q 1150 3584 1784 3584 
Q 2172 3584 2448 3432 
Q 2725 3281 2906 2969 
z
M 947 1747 
Q 947 1113 1208 752 
Q 1469 391 1925 391 
Q 2381 391 2643 752 
Q 2906 1113 2906 1747 
Q 2906 2381 2643 2742 
Q 2381 3103 1925 3103 
Q 1469 3103 1208 2742 
Q 947 2381 947 1747 
z
" transform="scale(0.015625)"/>
       <path id="DejaVuSans-74" d="M 1172 4494 
L 1172 3500 
L 2356 3500 
L 2356 3053 
L 1172 3053 
L 1172 1153 
Q 1172 725 1289 603 
Q 1406 481 1766 481 
L 2356 481 
L 2356 0 
L 1766 0 
Q 1100 0 847 248 
Q 594 497 594 1153 
L 594 3053 
L 172 3053 
L 172 3500 
L 594 3500 
L 594 4494 
L 1172 4494 
z
" transform="scale(0.015625)"/>
      </defs>
      <use xlink:href="#DejaVuSans-56"/>
      <use xlink:href="#DejaVuSans-61" x="60.658203"/>
      <use xlink:href="#DejaVuSans-6c" x="121.9375"/>
      <use xlink:href="#DejaVuSans-69" x="149.720703"/>
      <use xlink:href="#DejaVuSans-64" x="177.503906"/>
      <use xlink:href="#DejaVuSans-61" x="240.980469"/>
      <use xlink:href="#DejaVuSans-74" x="302.259766"/>
      <use xlink:href="#DejaVuSans-69" x="341.46875"/>
      <use xlink:href="#DejaVuSans-6f" x="369.251953"/>
      <use xlink:href="#DejaVuSans-6e" x="430.433594"/>
      <use xlink:href="#DejaVuSans-20" x="493.8125"/>
      <use xlink:href="#DejaVuSans-41" x="525.599609"/>
      <use xlink:href="#DejaVuSans-63" x="592.257812"/>
      <use xlink:href="#DejaVuSans-63" x="647.238281"/>
      <use xlink:href="#DejaVuSans-75" x="702.21875"/>
      <use xlink:href="#DejaVuSans-72" x="765.597656"/>
      <use xlink:href="#DejaVuSans-61" x="806.710938"/>
      <use xlink:href="#DejaVuSans-63" x="867.990234"/>
      <use xlink:href="#DejaVuSans-79" x="922.970703"/>
     </g>
    </g>
    <g id="line2d_25">
     <path d="M 216.18875 263.648062 
L 226.18875 263.648062 
L 236.18875 263.648062 
" style="fill: none; stroke: #2ca02c; stroke-width: 1.5; stroke-linecap: square"/>
    </g>
    <g id="text_23">
     <!-- Robust Validation Accuracy -->
     <g transform="translate(244.18875 267.148062) scale(0.1 -0.1)">
      <defs>
       <path id="DejaVuSans-52" d="M 2841 2188 
Q 3044 2119 3236 1894 
Q 3428 1669 3622 1275 
L 4263 0 
L 3584 0 
L 2988 1197 
Q 2756 1666 2539 1819 
Q 2322 1972 1947 1972 
L 1259 1972 
L 1259 0 
L 628 0 
L 628 4666 
L 2053 4666 
Q 2853 4666 3247 4331 
Q 3641 3997 3641 3322 
Q 3641 2881 3436 2590 
Q 3231 2300 2841 2188 
z
M 1259 4147 
L 1259 2491 
L 2053 2491 
Q 2509 2491 2742 2702 
Q 2975 2913 2975 3322 
Q 2975 3731 2742 3939 
Q 2509 4147 2053 4147 
L 1259 4147 
z
" transform="scale(0.015625)"/>
       <path id="DejaVuSans-62" d="M 3116 1747 
Q 3116 2381 2855 2742 
Q 2594 3103 2138 3103 
Q 1681 3103 1420 2742 
Q 1159 2381 1159 1747 
Q 1159 1113 1420 752 
Q 1681 391 2138 391 
Q 2594 391 2855 752 
Q 3116 1113 3116 1747 
z
M 1159 2969 
Q 1341 3281 1617 3432 
Q 1894 3584 2278 3584 
Q 2916 3584 3314 3078 
Q 3713 2572 3713 1747 
Q 3713 922 3314 415 
Q 2916 -91 2278 -91 
Q 1894 -91 1617 61 
Q 1341 213 1159 525 
L 1159 0 
L 581 0 
L 581 4863 
L 1159 4863 
L 1159 2969 
z
" transform="scale(0.015625)"/>
      </defs>
      <use xlink:href="#DejaVuSans-52"/>
      <use xlink:href="#DejaVuSans-6f" x="64.982422"/>
      <use xlink:href="#DejaVuSans-62" x="126.164062"/>
      <use xlink:href="#DejaVuSans-75" x="189.640625"/>
      <use xlink:href="#DejaVuSans-73" x="253.019531"/>
      <use xlink:href="#DejaVuSans-74" x="305.119141"/>
      <use xlink:href="#DejaVuSans-20" x="344.328125"/>
      <use xlink:href="#DejaVuSans-56" x="376.115234"/>
      <use xlink:href="#DejaVuSans-61" x="436.773438"/>
      <use xlink:href="#DejaVuSans-6c" x="498.052734"/>
      <use xlink:href="#DejaVuSans-69" x="525.835938"/>
      <use xlink:href="#DejaVuSans-64" x="553.619141"/>
      <use xlink:href="#DejaVuSans-61" x="617.095703"/>
      <use xlink:href="#DejaVuSans-74" x="678.375"/>
      <use xlink:href="#DejaVuSans-69" x="717.583984"/>
      <use xlink:href="#DejaVuSans-6f" x="745.367188"/>
      <use xlink:href="#DejaVuSans-6e" x="806.548828"/>
      <use xlink:href="#DejaVuSans-20" x="869.927734"/>
      <use xlink:href="#DejaVuSans-41" x="901.714844"/>
      <use xlink:href="#DejaVuSans-63" x="968.373047"/>
      <use xlink:href="#DejaVuSans-63" x="1023.353516"/>
      <use xlink:href="#DejaVuSans-75" x="1078.333984"/>
      <use xlink:href="#DejaVuSans-72" x="1141.712891"/>
      <use xlink:href="#DejaVuSans-61" x="1182.826172"/>
      <use xlink:href="#DejaVuSans-63" x="1244.105469"/>
      <use xlink:href="#DejaVuSans-79" x="1299.085938"/>
     </g>
    </g>
    <g id="line2d_26">
     <path d="M 216.18875 278.326188 
L 226.18875 278.326188 
L 236.18875 278.326188 
" style="fill: none; stroke: #d62728; stroke-width: 1.5; stroke-linecap: square"/>
    </g>
    <g id="text_24">
     <!-- SWA Validation Accuracy -->
     <g transform="translate(244.18875 281.826188) scale(0.1 -0.1)">
      <defs>
       <path id="DejaVuSans-53" d="M 3425 4513 
L 3425 3897 
Q 3066 4069 2747 4153 
Q 2428 4238 2131 4238 
Q 1616 4238 1336 4038 
Q 1056 3838 1056 3469 
Q 1056 3159 1242 3001 
Q 1428 2844 1947 2747 
L 2328 2669 
Q 3034 2534 3370 2195 
Q 3706 1856 3706 1288 
Q 3706 609 3251 259 
Q 2797 -91 1919 -91 
Q 1588 -91 1214 -16 
Q 841 59 441 206 
L 441 856 
Q 825 641 1194 531 
Q 1563 422 1919 422 
Q 2459 422 2753 634 
Q 3047 847 3047 1241 
Q 3047 1584 2836 1778 
Q 2625 1972 2144 2069 
L 1759 2144 
Q 1053 2284 737 2584 
Q 422 2884 422 3419 
Q 422 4038 858 4394 
Q 1294 4750 2059 4750 
Q 2388 4750 2728 4690 
Q 3069 4631 3425 4513 
z
" transform="scale(0.015625)"/>
       <path id="DejaVuSans-57" d="M 213 4666 
L 850 4666 
L 1831 722 
L 2809 4666 
L 3519 4666 
L 4500 722 
L 5478 4666 
L 6119 4666 
L 4947 0 
L 4153 0 
L 3169 4050 
L 2175 0 
L 1381 0 
L 213 4666 
z
" transform="scale(0.015625)"/>
      </defs>
      <use xlink:href="#DejaVuSans-53"/>
      <use xlink:href="#DejaVuSans-57" x="63.476562"/>
      <use xlink:href="#DejaVuSans-41" x="156.853516"/>
      <use xlink:href="#DejaVuSans-20" x="225.261719"/>
      <use xlink:href="#DejaVuSans-56" x="257.048828"/>
      <use xlink:href="#DejaVuSans-61" x="317.707031"/>
      <use xlink:href="#DejaVuSans-6c" x="378.986328"/>
      <use xlink:href="#DejaVuSans-69" x="406.769531"/>
      <use xlink:href="#DejaVuSans-64" x="434.552734"/>
      <use xlink:href="#DejaVuSans-61" x="498.029297"/>
      <use xlink:href="#DejaVuSans-74" x="559.308594"/>
      <use xlink:href="#DejaVuSans-69" x="598.517578"/>
      <use xlink:href="#DejaVuSans-6f" x="626.300781"/>
      <use xlink:href="#DejaVuSans-6e" x="687.482422"/>
      <use xlink:href="#DejaVuSans-20" x="750.861328"/>
      <use xlink:href="#DejaVuSans-41" x="782.648438"/>
      <use xlink:href="#DejaVuSans-63" x="849.306641"/>
      <use xlink:href="#DejaVuSans-63" x="904.287109"/>
      <use xlink:href="#DejaVuSans-75" x="959.267578"/>
      <use xlink:href="#DejaVuSans-72" x="1022.646484"/>
      <use xlink:href="#DejaVuSans-61" x="1063.759766"/>
      <use xlink:href="#DejaVuSans-63" x="1125.039062"/>
      <use xlink:href="#DejaVuSans-79" x="1180.019531"/>
     </g>
    </g>
    <g id="line2d_27">
     <path d="M 216.18875 293.004312 
L 226.18875 293.004312 
L 236.18875 293.004312 
" style="fill: none; stroke: #9467bd; stroke-width: 1.5; stroke-linecap: square"/>
    </g>
    <g id="text_25">
     <!-- SWA Robust Validation Accuracy -->
     <g transform="translate(244.18875 296.504312) scale(0.1 -0.1)">
      <use xlink:href="#DejaVuSans-53"/>
      <use xlink:href="#DejaVuSans-57" x="63.476562"/>
      <use xlink:href="#DejaVuSans-41" x="156.853516"/>
      <use xlink:href="#DejaVuSans-20" x="225.261719"/>
      <use xlink:href="#DejaVuSans-52" x="257.048828"/>
      <use xlink:href="#DejaVuSans-6f" x="322.03125"/>
      <use xlink:href="#DejaVuSans-62" x="383.212891"/>
      <use xlink:href="#DejaVuSans-75" x="446.689453"/>
      <use xlink:href="#DejaVuSans-73" x="510.068359"/>
      <use xlink:href="#DejaVuSans-74" x="562.167969"/>
      <use xlink:href="#DejaVuSans-20" x="601.376953"/>
      <use xlink:href="#DejaVuSans-56" x="633.164062"/>
      <use xlink:href="#DejaVuSans-61" x="693.822266"/>
      <use xlink:href="#DejaVuSans-6c" x="755.101562"/>
      <use xlink:href="#DejaVuSans-69" x="782.884766"/>
      <use xlink:href="#DejaVuSans-64" x="810.667969"/>
      <use xlink:href="#DejaVuSans-61" x="874.144531"/>
      <use xlink:href="#DejaVuSans-74" x="935.423828"/>
      <use xlink:href="#DejaVuSans-69" x="974.632812"/>
      <use xlink:href="#DejaVuSans-6f" x="1002.416016"/>
      <use xlink:href="#DejaVuSans-6e" x="1063.597656"/>
      <use xlink:href="#DejaVuSans-20" x="1126.976562"/>
      <use xlink:href="#DejaVuSans-41" x="1158.763672"/>
      <use xlink:href="#DejaVuSans-63" x="1225.421875"/>
      <use xlink:href="#DejaVuSans-63" x="1280.402344"/>
      <use xlink:href="#DejaVuSans-75" x="1335.382812"/>
      <use xlink:href="#DejaVuSans-72" x="1398.761719"/>
      <use xlink:href="#DejaVuSans-61" x="1439.875"/>
      <use xlink:href="#DejaVuSans-63" x="1501.154297"/>
      <use xlink:href="#DejaVuSans-79" x="1556.134766"/>
     </g>
    </g>
   </g>
  </g>
 </g>
 <defs>
  <clipPath id="p59b303eb73">
   <rect x="57.6" y="41.472" width="357.12" height="266.112"/>
  </clipPath>
 </defs>
</svg>
