<?xml version="1.0" encoding="utf-8" standalone="no"?>
<!DOCTYPE svg PUBLIC "-//W3C//DTD SVG 1.1//EN"
  "http://www.w3.org/Graphics/SVG/1.1/DTD/svg11.dtd">
<svg xmlns:xlink="http://www.w3.org/1999/xlink" width="460.8pt" height="345.6pt" viewBox="0 0 460.8 345.6" xmlns="http://www.w3.org/2000/svg" version="1.1">
 <metadata>
  <rdf:RDF xmlns:dc="http://purl.org/dc/elements/1.1/" xmlns:cc="http://creativecommons.org/ns#" xmlns:rdf="http://www.w3.org/1999/02/22-rdf-syntax-ns#">
   <cc:Work>
    <dc:type rdf:resource="http://purl.org/dc/dcmitype/StillImage"/>
    <dc:date>2025-03-08T07:15:37.835165</dc:date>
    <dc:format>image/svg+xml</dc:format>
    <dc:creator>
     <cc:Agent>
      <dc:title>Matplotlib v3.9.1, https://matplotlib.org/</dc:title>
     </cc:Agent>
    </dc:creator>
   </cc:Work>
  </rdf:RDF>
 </metadata>
 <defs>
  <style type="text/css">*{stroke-linejoin: round; stroke-linecap: butt}</style>
 </defs>
 <g id="figure_1">
  <g id="patch_1">
   <path d="M 0 345.6 
L 460.8 345.6 
L 460.8 0 
L 0 0 
z
" style="fill: #ffffff"/>
  </g>
  <g id="axes_1">
   <g id="patch_2">
    <path d="M 57.6 307.584 
L 414.72 307.584 
L 414.72 41.472 
L 57.6 41.472 
z
" style="fill: #ffffff"/>
   </g>
   <g id="matplotlib.axis_1">
    <g id="xtick_1">
     <g id="line2d_1">
      <defs>
       <path id="mec12f7321b" d="M 0 0 
L 0 3.5 
" style="stroke: #000000; stroke-width: 0.8"/>
      </defs>
      <g>
       <use xlink:href="#mec12f7321b" x="73.832727" y="307.584" style="stroke: #000000; stroke-width: 0.8"/>
      </g>
     </g>
     <g id="text_1">
      <!-- 1 -->
      <g transform="translate(70.651477 322.182437) scale(0.1 -0.1)">
       <defs>
        <path id="DejaVuSans-31" d="M 794 531 
L 1825 531 
L 1825 4091 
L 703 3866 
L 703 4441 
L 1819 4666 
L 2450 4666 
L 2450 531 
L 3481 531 
L 3481 0 
L 794 0 
L 794 531 
z
" transform="scale(0.015625)"/>
       </defs>
       <use xlink:href="#DejaVuSans-31"/>
      </g>
     </g>
    </g>
    <g id="xtick_2">
     <g id="line2d_2">
      <g>
       <use xlink:href="#mec12f7321b" x="109.664165" y="307.584" style="stroke: #000000; stroke-width: 0.8"/>
      </g>
     </g>
     <g id="text_2">
      <!-- 34 -->
      <g transform="translate(103.301665 322.182437) scale(0.1 -0.1)">
       <defs>
        <path id="DejaVuSans-33" d="M 2597 2516 
Q 3050 2419 3304 2112 
Q 3559 1806 3559 1356 
Q 3559 666 3084 287 
Q 2609 -91 1734 -91 
Q 1441 -91 1130 -33 
Q 819 25 488 141 
L 488 750 
Q 750 597 1062 519 
Q 1375 441 1716 441 
Q 2309 441 2620 675 
Q 2931 909 2931 1356 
Q 2931 1769 2642 2001 
Q 2353 2234 1838 2234 
L 1294 2234 
L 1294 2753 
L 1863 2753 
Q 2328 2753 2575 2939 
Q 2822 3125 2822 3475 
Q 2822 3834 2567 4026 
Q 2313 4219 1838 4219 
Q 1578 4219 1281 4162 
Q 984 4106 628 3988 
L 628 4550 
Q 988 4650 1302 4700 
Q 1616 4750 1894 4750 
Q 2613 4750 3031 4423 
Q 3450 4097 3450 3541 
Q 3450 3153 3228 2886 
Q 3006 2619 2597 2516 
z
" transform="scale(0.015625)"/>
        <path id="DejaVuSans-34" d="M 2419 4116 
L 825 1625 
L 2419 1625 
L 2419 4116 
z
M 2253 4666 
L 3047 4666 
L 3047 1625 
L 3713 1625 
L 3713 1100 
L 3047 1100 
L 3047 0 
L 2419 0 
L 2419 1100 
L 313 1100 
L 313 1709 
L 2253 4666 
z
" transform="scale(0.015625)"/>
       </defs>
       <use xlink:href="#DejaVuSans-33"/>
       <use xlink:href="#DejaVuSans-34" x="63.623047"/>
      </g>
     </g>
    </g>
    <g id="xtick_3">
     <g id="line2d_3">
      <g>
       <use xlink:href="#mec12f7321b" x="145.495604" y="307.584" style="stroke: #000000; stroke-width: 0.8"/>
      </g>
     </g>
     <g id="text_3">
      <!-- 67 -->
      <g transform="translate(139.133104 322.182437) scale(0.1 -0.1)">
       <defs>
        <path id="DejaVuSans-36" d="M 2113 2584 
Q 1688 2584 1439 2293 
Q 1191 2003 1191 1497 
Q 1191 994 1439 701 
Q 1688 409 2113 409 
Q 2538 409 2786 701 
Q 3034 994 3034 1497 
Q 3034 2003 2786 2293 
Q 2538 2584 2113 2584 
z
M 3366 4563 
L 3366 3988 
Q 3128 4100 2886 4159 
Q 2644 4219 2406 4219 
Q 1781 4219 1451 3797 
Q 1122 3375 1075 2522 
Q 1259 2794 1537 2939 
Q 1816 3084 2150 3084 
Q 2853 3084 3261 2657 
Q 3669 2231 3669 1497 
Q 3669 778 3244 343 
Q 2819 -91 2113 -91 
Q 1303 -91 875 529 
Q 447 1150 447 2328 
Q 447 3434 972 4092 
Q 1497 4750 2381 4750 
Q 2619 4750 2861 4703 
Q 3103 4656 3366 4563 
z
" transform="scale(0.015625)"/>
        <path id="DejaVuSans-37" d="M 525 4666 
L 3525 4666 
L 3525 4397 
L 1831 0 
L 1172 0 
L 2766 4134 
L 525 4134 
L 525 4666 
z
" transform="scale(0.015625)"/>
       </defs>
       <use xlink:href="#DejaVuSans-36"/>
       <use xlink:href="#DejaVuSans-37" x="63.623047"/>
      </g>
     </g>
    </g>
    <g id="xtick_4">
     <g id="line2d_4">
      <g>
       <use xlink:href="#mec12f7321b" x="181.327042" y="307.584" style="stroke: #000000; stroke-width: 0.8"/>
      </g>
     </g>
     <g id="text_4">
      <!-- 100 -->
      <g transform="translate(171.783292 322.182437) scale(0.1 -0.1)">
       <defs>
        <path id="DejaVuSans-30" d="M 2034 4250 
Q 1547 4250 1301 3770 
Q 1056 3291 1056 2328 
Q 1056 1369 1301 889 
Q 1547 409 2034 409 
Q 2525 409 2770 889 
Q 3016 1369 3016 2328 
Q 3016 3291 2770 3770 
Q 2525 4250 2034 4250 
z
M 2034 4750 
Q 2819 4750 3233 4129 
Q 3647 3509 3647 2328 
Q 3647 1150 3233 529 
Q 2819 -91 2034 -91 
Q 1250 -91 836 529 
Q 422 1150 422 2328 
Q 422 3509 836 4129 
Q 1250 4750 2034 4750 
z
" transform="scale(0.015625)"/>
       </defs>
       <use xlink:href="#DejaVuSans-31"/>
       <use xlink:href="#DejaVuSans-30" x="63.623047"/>
       <use xlink:href="#DejaVuSans-30" x="127.246094"/>
      </g>
     </g>
    </g>
    <g id="xtick_5">
     <g id="line2d_5">
      <g>
       <use xlink:href="#mec12f7321b" x="217.15848" y="307.584" style="stroke: #000000; stroke-width: 0.8"/>
      </g>
     </g>
     <g id="text_5">
      <!-- 133 -->
      <g transform="translate(207.61473 322.182437) scale(0.1 -0.1)">
       <use xlink:href="#DejaVuSans-31"/>
       <use xlink:href="#DejaVuSans-33" x="63.623047"/>
       <use xlink:href="#DejaVuSans-33" x="127.246094"/>
      </g>
     </g>
    </g>
    <g id="xtick_6">
     <g id="line2d_6">
      <g>
       <use xlink:href="#mec12f7321b" x="254.075719" y="307.584" style="stroke: #000000; stroke-width: 0.8"/>
      </g>
     </g>
     <g id="text_6">
      <!-- 167 -->
      <g transform="translate(244.531969 322.182437) scale(0.1 -0.1)">
       <use xlink:href="#DejaVuSans-31"/>
       <use xlink:href="#DejaVuSans-36" x="63.623047"/>
       <use xlink:href="#DejaVuSans-37" x="127.246094"/>
      </g>
     </g>
    </g>
    <g id="xtick_7">
     <g id="line2d_7">
      <g>
       <use xlink:href="#mec12f7321b" x="289.907157" y="307.584" style="stroke: #000000; stroke-width: 0.8"/>
      </g>
     </g>
     <g id="text_7">
      <!-- 200 -->
      <g transform="translate(280.363407 322.182437) scale(0.1 -0.1)">
       <defs>
        <path id="DejaVuSans-32" d="M 1228 531 
L 3431 531 
L 3431 0 
L 469 0 
L 469 531 
Q 828 903 1448 1529 
Q 2069 2156 2228 2338 
Q 2531 2678 2651 2914 
Q 2772 3150 2772 3378 
Q 2772 3750 2511 3984 
Q 2250 4219 1831 4219 
Q 1534 4219 1204 4116 
Q 875 4013 500 3803 
L 500 4441 
Q 881 4594 1212 4672 
Q 1544 4750 1819 4750 
Q 2544 4750 2975 4387 
Q 3406 4025 3406 3419 
Q 3406 3131 3298 2873 
Q 3191 2616 2906 2266 
Q 2828 2175 2409 1742 
Q 1991 1309 1228 531 
z
" transform="scale(0.015625)"/>
       </defs>
       <use xlink:href="#DejaVuSans-32"/>
       <use xlink:href="#DejaVuSans-30" x="63.623047"/>
       <use xlink:href="#DejaVuSans-30" x="127.246094"/>
      </g>
     </g>
    </g>
    <g id="xtick_8">
     <g id="line2d_8">
      <g>
       <use xlink:href="#mec12f7321b" x="325.738595" y="307.584" style="stroke: #000000; stroke-width: 0.8"/>
      </g>
     </g>
     <g id="text_8">
      <!-- 233 -->
      <g transform="translate(316.194845 322.182437) scale(0.1 -0.1)">
       <use xlink:href="#DejaVuSans-32"/>
       <use xlink:href="#DejaVuSans-33" x="63.623047"/>
       <use xlink:href="#DejaVuSans-33" x="127.246094"/>
      </g>
     </g>
    </g>
    <g id="xtick_9">
     <g id="line2d_9">
      <g>
       <use xlink:href="#mec12f7321b" x="361.570033" y="307.584" style="stroke: #000000; stroke-width: 0.8"/>
      </g>
     </g>
     <g id="text_9">
      <!-- 266 -->
      <g transform="translate(352.026283 322.182437) scale(0.1 -0.1)">
       <use xlink:href="#DejaVuSans-32"/>
       <use xlink:href="#DejaVuSans-36" x="63.623047"/>
       <use xlink:href="#DejaVuSans-36" x="127.246094"/>
      </g>
     </g>
    </g>
    <g id="xtick_10">
     <g id="line2d_10">
      <g>
       <use xlink:href="#mec12f7321b" x="398.487273" y="307.584" style="stroke: #000000; stroke-width: 0.8"/>
      </g>
     </g>
     <g id="text_10">
      <!-- 300 -->
      <g transform="translate(388.943523 322.182437) scale(0.1 -0.1)">
       <use xlink:href="#DejaVuSans-33"/>
       <use xlink:href="#DejaVuSans-30" x="63.623047"/>
       <use xlink:href="#DejaVuSans-30" x="127.246094"/>
      </g>
     </g>
    </g>
    <g id="text_11">
     <!-- Epochs -->
     <g transform="translate(218.244375 335.860562) scale(0.1 -0.1)">
      <defs>
       <path id="DejaVuSans-45" d="M 628 4666 
L 3578 4666 
L 3578 4134 
L 1259 4134 
L 1259 2753 
L 3481 2753 
L 3481 2222 
L 1259 2222 
L 1259 531 
L 3634 531 
L 3634 0 
L 628 0 
L 628 4666 
z
" transform="scale(0.015625)"/>
       <path id="DejaVuSans-70" d="M 1159 525 
L 1159 -1331 
L 581 -1331 
L 581 3500 
L 1159 3500 
L 1159 2969 
Q 1341 3281 1617 3432 
Q 1894 3584 2278 3584 
Q 2916 3584 3314 3078 
Q 3713 2572 3713 1747 
Q 3713 922 3314 415 
Q 2916 -91 2278 -91 
Q 1894 -91 1617 61 
Q 1341 213 1159 525 
z
M 3116 1747 
Q 3116 2381 2855 2742 
Q 2594 3103 2138 3103 
Q 1681 3103 1420 2742 
Q 1159 2381 1159 1747 
Q 1159 1113 1420 752 
Q 1681 391 2138 391 
Q 2594 391 2855 752 
Q 3116 1113 3116 1747 
z
" transform="scale(0.015625)"/>
       <path id="DejaVuSans-6f" d="M 1959 3097 
Q 1497 3097 1228 2736 
Q 959 2375 959 1747 
Q 959 1119 1226 758 
Q 1494 397 1959 397 
Q 2419 397 2687 759 
Q 2956 1122 2956 1747 
Q 2956 2369 2687 2733 
Q 2419 3097 1959 3097 
z
M 1959 3584 
Q 2709 3584 3137 3096 
Q 3566 2609 3566 1747 
Q 3566 888 3137 398 
Q 2709 -91 1959 -91 
Q 1206 -91 779 398 
Q 353 888 353 1747 
Q 353 2609 779 3096 
Q 1206 3584 1959 3584 
z
" transform="scale(0.015625)"/>
       <path id="DejaVuSans-63" d="M 3122 3366 
L 3122 2828 
Q 2878 2963 2633 3030 
Q 2388 3097 2138 3097 
Q 1578 3097 1268 2742 
Q 959 2388 959 1747 
Q 959 1106 1268 751 
Q 1578 397 2138 397 
Q 2388 397 2633 464 
Q 2878 531 3122 666 
L 3122 134 
Q 2881 22 2623 -34 
Q 2366 -91 2075 -91 
Q 1284 -91 818 406 
Q 353 903 353 1747 
Q 353 2603 823 3093 
Q 1294 3584 2113 3584 
Q 2378 3584 2631 3529 
Q 2884 3475 3122 3366 
z
" transform="scale(0.015625)"/>
       <path id="DejaVuSans-68" d="M 3513 2113 
L 3513 0 
L 2938 0 
L 2938 2094 
Q 2938 2591 2744 2837 
Q 2550 3084 2163 3084 
Q 1697 3084 1428 2787 
Q 1159 2491 1159 1978 
L 1159 0 
L 581 0 
L 581 4863 
L 1159 4863 
L 1159 2956 
Q 1366 3272 1645 3428 
Q 1925 3584 2291 3584 
Q 2894 3584 3203 3211 
Q 3513 2838 3513 2113 
z
" transform="scale(0.015625)"/>
       <path id="DejaVuSans-73" d="M 2834 3397 
L 2834 2853 
Q 2591 2978 2328 3040 
Q 2066 3103 1784 3103 
Q 1356 3103 1142 2972 
Q 928 2841 928 2578 
Q 928 2378 1081 2264 
Q 1234 2150 1697 2047 
L 1894 2003 
Q 2506 1872 2764 1633 
Q 3022 1394 3022 966 
Q 3022 478 2636 193 
Q 2250 -91 1575 -91 
Q 1294 -91 989 -36 
Q 684 19 347 128 
L 347 722 
Q 666 556 975 473 
Q 1284 391 1588 391 
Q 1994 391 2212 530 
Q 2431 669 2431 922 
Q 2431 1156 2273 1281 
Q 2116 1406 1581 1522 
L 1381 1569 
Q 847 1681 609 1914 
Q 372 2147 372 2553 
Q 372 3047 722 3315 
Q 1072 3584 1716 3584 
Q 2034 3584 2315 3537 
Q 2597 3491 2834 3397 
z
" transform="scale(0.015625)"/>
      </defs>
      <use xlink:href="#DejaVuSans-45"/>
      <use xlink:href="#DejaVuSans-70" x="63.183594"/>
      <use xlink:href="#DejaVuSans-6f" x="126.660156"/>
      <use xlink:href="#DejaVuSans-63" x="187.841797"/>
      <use xlink:href="#DejaVuSans-68" x="242.822266"/>
      <use xlink:href="#DejaVuSans-73" x="306.201172"/>
     </g>
    </g>
   </g>
   <g id="matplotlib.axis_2">
    <g id="ytick_1">
     <g id="line2d_11">
      <defs>
       <path id="m29b5c8e8d7" d="M 0 0 
L -3.5 0 
" style="stroke: #000000; stroke-width: 0.8"/>
      </defs>
      <g>
       <use xlink:href="#m29b5c8e8d7" x="57.6" y="279.079553" style="stroke: #000000; stroke-width: 0.8"/>
      </g>
     </g>
     <g id="text_12">
      <!-- 10 -->
      <g transform="translate(37.875 282.878772) scale(0.1 -0.1)">
       <use xlink:href="#DejaVuSans-31"/>
       <use xlink:href="#DejaVuSans-30" x="63.623047"/>
      </g>
     </g>
    </g>
    <g id="ytick_2">
     <g id="line2d_12">
      <g>
       <use xlink:href="#m29b5c8e8d7" x="57.6" y="246.393403" style="stroke: #000000; stroke-width: 0.8"/>
      </g>
     </g>
     <g id="text_13">
      <!-- 20 -->
      <g transform="translate(37.875 250.192622) scale(0.1 -0.1)">
       <use xlink:href="#DejaVuSans-32"/>
       <use xlink:href="#DejaVuSans-30" x="63.623047"/>
      </g>
     </g>
    </g>
    <g id="ytick_3">
     <g id="line2d_13">
      <g>
       <use xlink:href="#m29b5c8e8d7" x="57.6" y="213.707253" style="stroke: #000000; stroke-width: 0.8"/>
      </g>
     </g>
     <g id="text_14">
      <!-- 30 -->
      <g transform="translate(37.875 217.506472) scale(0.1 -0.1)">
       <use xlink:href="#DejaVuSans-33"/>
       <use xlink:href="#DejaVuSans-30" x="63.623047"/>
      </g>
     </g>
    </g>
    <g id="ytick_4">
     <g id="line2d_14">
      <g>
       <use xlink:href="#m29b5c8e8d7" x="57.6" y="181.021104" style="stroke: #000000; stroke-width: 0.8"/>
      </g>
     </g>
     <g id="text_15">
      <!-- 40 -->
      <g transform="translate(37.875 184.820322) scale(0.1 -0.1)">
       <use xlink:href="#DejaVuSans-34"/>
       <use xlink:href="#DejaVuSans-30" x="63.623047"/>
      </g>
     </g>
    </g>
    <g id="ytick_5">
     <g id="line2d_15">
      <g>
       <use xlink:href="#m29b5c8e8d7" x="57.6" y="148.334954" style="stroke: #000000; stroke-width: 0.8"/>
      </g>
     </g>
     <g id="text_16">
      <!-- 50 -->
      <g transform="translate(37.875 152.134173) scale(0.1 -0.1)">
       <defs>
        <path id="DejaVuSans-35" d="M 691 4666 
L 3169 4666 
L 3169 4134 
L 1269 4134 
L 1269 2991 
Q 1406 3038 1543 3061 
Q 1681 3084 1819 3084 
Q 2600 3084 3056 2656 
Q 3513 2228 3513 1497 
Q 3513 744 3044 326 
Q 2575 -91 1722 -91 
Q 1428 -91 1123 -41 
Q 819 9 494 109 
L 494 744 
Q 775 591 1075 516 
Q 1375 441 1709 441 
Q 2250 441 2565 725 
Q 2881 1009 2881 1497 
Q 2881 1984 2565 2268 
Q 2250 2553 1709 2553 
Q 1456 2553 1204 2497 
Q 953 2441 691 2322 
L 691 4666 
z
" transform="scale(0.015625)"/>
       </defs>
       <use xlink:href="#DejaVuSans-35"/>
       <use xlink:href="#DejaVuSans-30" x="63.623047"/>
      </g>
     </g>
    </g>
    <g id="ytick_6">
     <g id="line2d_16">
      <g>
       <use xlink:href="#m29b5c8e8d7" x="57.6" y="115.648804" style="stroke: #000000; stroke-width: 0.8"/>
      </g>
     </g>
     <g id="text_17">
      <!-- 60 -->
      <g transform="translate(37.875 119.448023) scale(0.1 -0.1)">
       <use xlink:href="#DejaVuSans-36"/>
       <use xlink:href="#DejaVuSans-30" x="63.623047"/>
      </g>
     </g>
    </g>
    <g id="ytick_7">
     <g id="line2d_17">
      <g>
       <use xlink:href="#m29b5c8e8d7" x="57.6" y="82.962654" style="stroke: #000000; stroke-width: 0.8"/>
      </g>
     </g>
     <g id="text_18">
      <!-- 70 -->
      <g transform="translate(37.875 86.761873) scale(0.1 -0.1)">
       <use xlink:href="#DejaVuSans-37"/>
       <use xlink:href="#DejaVuSans-30" x="63.623047"/>
      </g>
     </g>
    </g>
    <g id="ytick_8">
     <g id="line2d_18">
      <g>
       <use xlink:href="#m29b5c8e8d7" x="57.6" y="50.276505" style="stroke: #000000; stroke-width: 0.8"/>
      </g>
     </g>
     <g id="text_19">
      <!-- 80 -->
      <g transform="translate(37.875 54.075723) scale(0.1 -0.1)">
       <defs>
        <path id="DejaVuSans-38" d="M 2034 2216 
Q 1584 2216 1326 1975 
Q 1069 1734 1069 1313 
Q 1069 891 1326 650 
Q 1584 409 2034 409 
Q 2484 409 2743 651 
Q 3003 894 3003 1313 
Q 3003 1734 2745 1975 
Q 2488 2216 2034 2216 
z
M 1403 2484 
Q 997 2584 770 2862 
Q 544 3141 544 3541 
Q 544 4100 942 4425 
Q 1341 4750 2034 4750 
Q 2731 4750 3128 4425 
Q 3525 4100 3525 3541 
Q 3525 3141 3298 2862 
Q 3072 2584 2669 2484 
Q 3125 2378 3379 2068 
Q 3634 1759 3634 1313 
Q 3634 634 3220 271 
Q 2806 -91 2034 -91 
Q 1263 -91 848 271 
Q 434 634 434 1313 
Q 434 1759 690 2068 
Q 947 2378 1403 2484 
z
M 1172 3481 
Q 1172 3119 1398 2916 
Q 1625 2713 2034 2713 
Q 2441 2713 2670 2916 
Q 2900 3119 2900 3481 
Q 2900 3844 2670 4047 
Q 2441 4250 2034 4250 
Q 1625 4250 1398 4047 
Q 1172 3844 1172 3481 
z
" transform="scale(0.015625)"/>
       </defs>
       <use xlink:href="#DejaVuSans-38"/>
       <use xlink:href="#DejaVuSans-30" x="63.623047"/>
      </g>
     </g>
    </g>
    <g id="text_20">
     <!-- Accuracy -->
     <g transform="translate(31.795312 197.356125) rotate(-90) scale(0.1 -0.1)">
      <defs>
       <path id="DejaVuSans-41" d="M 2188 4044 
L 1331 1722 
L 3047 1722 
L 2188 4044 
z
M 1831 4666 
L 2547 4666 
L 4325 0 
L 3669 0 
L 3244 1197 
L 1141 1197 
L 716 0 
L 50 0 
L 1831 4666 
z
" transform="scale(0.015625)"/>
       <path id="DejaVuSans-75" d="M 544 1381 
L 544 3500 
L 1119 3500 
L 1119 1403 
Q 1119 906 1312 657 
Q 1506 409 1894 409 
Q 2359 409 2629 706 
Q 2900 1003 2900 1516 
L 2900 3500 
L 3475 3500 
L 3475 0 
L 2900 0 
L 2900 538 
Q 2691 219 2414 64 
Q 2138 -91 1772 -91 
Q 1169 -91 856 284 
Q 544 659 544 1381 
z
M 1991 3584 
L 1991 3584 
z
" transform="scale(0.015625)"/>
       <path id="DejaVuSans-72" d="M 2631 2963 
Q 2534 3019 2420 3045 
Q 2306 3072 2169 3072 
Q 1681 3072 1420 2755 
Q 1159 2438 1159 1844 
L 1159 0 
L 581 0 
L 581 3500 
L 1159 3500 
L 1159 2956 
Q 1341 3275 1631 3429 
Q 1922 3584 2338 3584 
Q 2397 3584 2469 3576 
Q 2541 3569 2628 3553 
L 2631 2963 
z
" transform="scale(0.015625)"/>
       <path id="DejaVuSans-61" d="M 2194 1759 
Q 1497 1759 1228 1600 
Q 959 1441 959 1056 
Q 959 750 1161 570 
Q 1363 391 1709 391 
Q 2188 391 2477 730 
Q 2766 1069 2766 1631 
L 2766 1759 
L 2194 1759 
z
M 3341 1997 
L 3341 0 
L 2766 0 
L 2766 531 
Q 2569 213 2275 61 
Q 1981 -91 1556 -91 
Q 1019 -91 701 211 
Q 384 513 384 1019 
Q 384 1609 779 1909 
Q 1175 2209 1959 2209 
L 2766 2209 
L 2766 2266 
Q 2766 2663 2505 2880 
Q 2244 3097 1772 3097 
Q 1472 3097 1187 3025 
Q 903 2953 641 2809 
L 641 3341 
Q 956 3463 1253 3523 
Q 1550 3584 1831 3584 
Q 2591 3584 2966 3190 
Q 3341 2797 3341 1997 
z
" transform="scale(0.015625)"/>
       <path id="DejaVuSans-79" d="M 2059 -325 
Q 1816 -950 1584 -1140 
Q 1353 -1331 966 -1331 
L 506 -1331 
L 506 -850 
L 844 -850 
Q 1081 -850 1212 -737 
Q 1344 -625 1503 -206 
L 1606 56 
L 191 3500 
L 800 3500 
L 1894 763 
L 2988 3500 
L 3597 3500 
L 2059 -325 
z
" transform="scale(0.015625)"/>
      </defs>
      <use xlink:href="#DejaVuSans-41"/>
      <use xlink:href="#DejaVuSans-63" x="66.658203"/>
      <use xlink:href="#DejaVuSans-63" x="121.638672"/>
      <use xlink:href="#DejaVuSans-75" x="176.619141"/>
      <use xlink:href="#DejaVuSans-72" x="239.998047"/>
      <use xlink:href="#DejaVuSans-61" x="281.111328"/>
      <use xlink:href="#DejaVuSans-63" x="342.390625"/>
      <use xlink:href="#DejaVuSans-79" x="397.371094"/>
     </g>
    </g>
   </g>
   <g id="line2d_19">
    <path d="M 73.832727 295.488 
L 74.918528 274.415239 
L 76.00433 257.392292 
L 77.090131 244.700261 
L 78.175932 234.168783 
L 80.347534 217.083733 
L 83.604938 197.527609 
L 86.862341 181.272787 
L 87.948142 177.317763 
L 89.033943 172.673061 
L 90.119745 168.531726 
L 91.205546 165.956057 
L 92.291347 162.608996 
L 93.377148 161.350579 
L 94.462949 159.441708 
L 95.54875 192.683522 
L 96.634552 191.144004 
L 97.720353 188.153222 
L 98.806154 184.240689 
L 100.977756 178.366988 
L 102.063557 176.00378 
L 103.149358 172.539048 
L 104.23516 170.352344 
L 105.320961 167.400785 
L 110.749967 154.381892 
L 112.921569 150.191527 
L 114.00737 146.736601 
L 116.178972 141.954617 
L 119.436376 134.943438 
L 122.693779 127.618472 
L 123.77958 125.222577 
L 124.865382 121.453864 
L 125.951183 119.996062 
L 127.036984 117.45308 
L 128.122785 115.42327 
L 129.208586 113.154851 
L 130.294387 112.180804 
L 131.380189 109.500539 
L 132.46599 107.996977 
L 133.551791 106.843155 
L 134.637592 106.097911 
L 136.809194 104.914673 
L 137.894995 104.07137 
L 138.980797 150.989069 
L 140.066598 153.568006 
L 141.152399 153.028685 
L 142.2382 151.757194 
L 143.324001 149.99541 
L 144.409802 148.877544 
L 145.495604 147.929646 
L 146.581405 146.262652 
L 147.667206 146.095953 
L 148.753007 143.958278 
L 152.01041 140.366071 
L 153.096212 140.369339 
L 154.182013 138.529109 
L 155.267814 137.662926 
L 156.353615 135.642922 
L 157.439416 135.263763 
L 158.525217 133.482367 
L 159.611019 133.090134 
L 160.69682 131.128965 
L 161.782621 130.945922 
L 162.868422 129.20375 
L 163.954223 128.275464 
L 165.040024 126.755558 
L 166.125825 126.108372 
L 167.211627 124.382543 
L 168.297428 123.231991 
L 169.383229 122.277555 
L 170.46903 120.509235 
L 171.554831 120.349073 
L 172.640632 118.155832 
L 173.726434 118.04143 
L 174.812235 115.645536 
L 175.898036 115.243496 
L 176.983837 113.873946 
L 178.069638 112.233102 
L 179.155439 112.027179 
L 180.24124 110.477855 
L 181.327042 108.15387 
L 182.412843 106.947751 
L 183.498644 106.362669 
L 184.584445 105.189236 
L 185.670246 102.826028 
L 186.756047 101.090393 
L 187.841849 100.825635 
L 188.92765 98.027701 
L 190.013451 96.520869 
L 191.099252 96.311678 
L 192.185053 95.095753 
L 193.270854 93.105167 
L 194.356656 92.402414 
L 195.442457 90.232054 
L 196.528258 87.744638 
L 197.614059 86.58428 
L 198.69986 86.113599 
L 199.785661 84.015148 
L 200.871462 83.168577 
L 201.957264 81.017829 
L 203.043065 80.203943 
L 204.128866 78.350639 
L 205.214667 77.821123 
L 207.386269 74.872832 
L 208.472071 73.764772 
L 209.557872 72.130464 
L 210.643673 71.600949 
L 211.729474 70.483082 
L 212.815275 70.934151 
L 213.901076 69.201785 
L 214.986877 68.427124 
L 216.072679 68.214664 
L 218.244281 66.684952 
L 219.330082 66.256763 
L 220.415883 65.531131 
L 221.501684 65.384043 
L 222.587486 65.406923 
L 223.673287 64.815304 
L 224.759088 65.089868 
L 225.844889 129.56003 
L 226.93069 134.829037 
L 228.016491 134.201463 
L 229.102292 134.149165 
L 230.188094 132.710974 
L 231.273895 132.256637 
L 232.359696 131.370842 
L 233.445497 129.602522 
L 234.531298 130.066665 
L 236.702901 127.490996 
L 237.788702 128.010706 
L 239.960304 125.611543 
L 241.046105 124.732285 
L 242.131906 124.859761 
L 243.217708 124.402155 
L 244.303509 123.111052 
L 245.38931 123.176424 
L 246.475111 122.300436 
L 247.560912 122.110856 
L 248.646713 121.378686 
L 249.732514 120.293506 
L 250.818316 120.231402 
L 251.904117 119.489427 
L 252.989918 119.002403 
L 254.075719 118.89127 
L 255.16152 118.610169 
L 256.247321 117.054309 
L 257.333123 116.998742 
L 258.418924 116.809162 
L 259.504725 115.671684 
L 260.590526 116.469227 
L 261.676327 115.014693 
L 262.762128 114.547281 
L 264.933731 113.154851 
L 266.019532 112.948928 
L 267.105333 112.589381 
L 268.191134 112.595918 
L 269.276935 111.432291 
L 270.362736 111.314621 
L 271.448538 110.785105 
L 272.534339 109.964683 
L 273.62014 108.863159 
L 274.705941 109.327303 
L 275.791742 108.392479 
L 276.877543 109.157335 
L 277.963344 107.761636 
L 280.134947 106.839887 
L 281.220748 106.117523 
L 282.306549 106.068494 
L 284.478151 105.078103 
L 285.563953 104.372083 
L 286.649754 102.848908 
L 287.735555 103.826224 
L 288.821356 102.273632 
L 289.907157 102.522046 
L 290.992958 101.417255 
L 292.07876 101.701624 
L 293.164561 99.619516 
L 294.250362 99.465891 
L 295.336163 99.070389 
L 296.421964 98.942913 
L 297.507765 98.357831 
L 298.593566 97.978672 
L 299.679368 96.632002 
L 300.765169 96.605853 
L 301.85097 96.292066 
L 302.936771 94.788503 
L 304.022572 94.74928 
L 305.108373 94.343972 
L 306.194175 92.503742 
L 307.279976 92.258595 
L 309.451578 91.248593 
L 310.537379 90.588333 
L 311.62318 89.104382 
L 312.708981 88.797132 
L 313.794783 87.989784 
L 314.880584 87.816548 
L 315.966385 86.960171 
L 317.052186 86.803277 
L 318.137987 85.698485 
L 320.30959 84.521784 
L 321.395391 83.384306 
L 322.481192 82.485437 
L 323.566993 81.776147 
L 324.652794 81.681357 
L 325.738595 80.622326 
L 326.824396 79.795367 
L 327.910198 78.553293 
L 328.995999 78.255849 
L 331.167601 76.386201 
L 332.253402 75.951475 
L 333.339203 75.134322 
L 334.425005 75.131053 
L 335.510806 73.951083 
L 336.596607 74.065484 
L 337.682408 72.679592 
L 338.768209 71.855901 
L 339.85401 71.62056 
L 342.025613 68.714762 
L 343.111414 69.061235 
L 344.197215 67.681879 
L 345.283016 67.603433 
L 346.368817 66.345016 
L 347.454618 65.348088 
L 348.54042 65.612846 
L 351.797823 62.429215 
L 352.883624 61.958535 
L 355.055227 59.938531 
L 356.141028 60.072544 
L 357.226829 59.543028 
L 358.31263 58.680114 
L 359.398431 56.951016 
L 360.484232 57.241923 
L 361.570033 55.911597 
L 362.655835 55.882179 
L 363.741636 55.509557 
L 364.827437 54.597614 
L 365.913238 54.280558 
L 366.999039 53.568 
L 368.08484 54.67606 
L 369.170642 56.428038 
L 370.256443 58.693188 
L 371.342244 61.278663 
L 372.428045 63.301935 
L 373.513846 64.338086 
L 374.599647 64.674754 
L 375.685448 65.308865 
L 376.77125 65.03757 
L 377.857051 65.230418 
L 378.942852 64.481905 
L 380.028653 64.648605 
L 381.114454 64.49498 
L 382.200255 64.988541 
L 383.286057 65.080062 
L 384.371858 65.596503 
L 385.457659 65.174852 
L 386.54346 65.452684 
L 387.629261 65.874335 
L 388.715062 66.799353 
L 389.800863 65.266373 
L 390.886665 66.397314 
L 391.972466 65.952782 
L 394.144068 65.717442 
L 395.229869 66.220809 
L 396.31567 65.998543 
L 397.401472 66.224077 
L 398.487273 66.655534 
L 398.487273 66.655534 
" clip-path="url(#pd81b22ebb0)" style="fill: none; stroke: #1f77b4; stroke-width: 1.5; stroke-linecap: square"/>
   </g>
   <g id="line2d_20">
    <path d="M 73.832727 276.137799 
L 74.918528 252.832575 
L 77.090131 222.957434 
L 78.175932 215.308875 
L 79.261733 221.159696 
L 80.347534 197.592982 
L 81.433335 184.714639 
L 82.519137 183.799426 
L 83.604938 176.673846 
L 84.690739 175.170283 
L 85.77654 165.593241 
L 86.862341 159.611676 
L 87.948142 158.761836 
L 89.033943 151.178649 
L 90.119745 153.172504 
L 91.205546 148.073465 
L 92.291347 145.850807 
L 93.377148 145.883493 
L 94.462949 145.523945 
L 95.54875 174.222385 
L 96.634552 164.318481 
L 97.720353 166.312336 
L 98.806154 168.633053 
L 99.891955 162.030451 
L 100.977756 157.944682 
L 102.063557 157.87931 
L 103.149358 150.263437 
L 104.23516 156.17963 
L 105.320961 144.96828 
L 106.406762 153.826227 
L 107.492563 142.059213 
L 108.578364 141.993841 
L 109.664165 135.750786 
L 110.749967 141.242059 
L 111.835768 133.332011 
L 112.921569 129.311615 
L 114.00737 129.148184 
L 115.093171 127.840738 
L 116.178972 129.899965 
L 117.264773 123.689597 
L 118.350575 122.774385 
L 119.436376 122.839757 
L 120.522177 120.649785 
L 121.607978 116.335213 
L 122.693779 116.694761 
L 123.77958 113.099285 
L 124.865382 112.96854 
L 125.951183 116.171783 
L 127.036984 110.353648 
L 128.122785 110.026786 
L 130.294387 107.70607 
L 133.551791 106.562055 
L 134.637592 105.875645 
L 135.723393 105.418039 
L 136.809194 105.908332 
L 137.894995 105.221922 
L 138.980797 134.770202 
L 140.066598 139.477007 
L 141.152399 134.247223 
L 142.2382 134.541399 
L 143.324001 134.966319 
L 144.409802 135.521983 
L 145.495604 136.469882 
L 146.581405 137.810014 
L 147.667206 133.00515 
L 148.753007 128.723264 
L 149.838808 131.272784 
L 150.924609 129.573104 
L 152.01041 128.821323 
L 153.096212 130.128769 
L 154.182013 127.48119 
L 155.267814 124.506751 
L 156.353615 122.251406 
L 157.439416 122.382151 
L 159.611019 125.062415 
L 160.69682 118.753988 
L 161.782621 122.284093 
L 162.868422 122.022603 
L 163.954223 119.865317 
L 165.040024 122.251406 
L 166.125825 117.152367 
L 167.211627 117.38117 
L 168.297428 118.067579 
L 169.383229 123.035874 
L 170.46903 116.792819 
L 171.554831 118.525185 
L 172.640632 113.099285 
L 173.726434 112.772423 
L 174.812235 117.609973 
L 175.898036 117.871462 
L 176.983837 116.498644 
L 178.069638 115.877607 
L 179.155439 111.007371 
L 180.24124 112.608992 
L 181.327042 114.766278 
L 182.412843 111.170802 
L 183.498644 111.072743 
L 184.584445 108.621282 
L 185.670246 108.752027 
L 186.756047 112.870481 
L 187.841849 108.196362 
L 188.92765 106.660113 
L 190.013451 105.875645 
L 191.099252 104.73163 
L 192.185053 106.333252 
L 193.270854 103.71836 
L 194.356656 104.30671 
L 195.442457 101.953307 
L 196.528258 101.234212 
L 197.614059 103.914476 
L 198.69986 101.103468 
L 199.785661 100.515117 
L 200.871462 101.364957 
L 201.957264 100.188255 
L 203.043065 98.782751 
L 204.128866 100.515117 
L 205.214667 99.46916 
L 206.300468 98.978868 
L 207.386269 96.886954 
L 208.472071 96.75621 
L 209.557872 97.18113 
L 210.643673 96.462034 
L 211.729474 95.416077 
L 212.815275 95.023844 
L 214.986877 95.187274 
L 217.15848 94.729668 
L 218.244281 93.977887 
L 219.330082 94.533551 
L 220.415883 93.879828 
L 221.501684 94.075945 
L 222.587486 94.533551 
L 223.673287 94.174004 
L 224.759088 93.651025 
L 225.844889 139.019401 
L 226.93069 132.057251 
L 228.016491 127.873424 
L 229.102292 135.489297 
L 230.188094 127.121643 
L 231.273895 126.010314 
L 232.359696 138.986715 
L 233.445497 126.762095 
L 234.531298 127.48119 
L 235.617099 123.526166 
L 236.702901 124.604809 
L 237.788702 120.35561 
L 238.874503 123.035874 
L 239.960304 121.728428 
L 241.046105 124.702868 
L 242.131906 123.199305 
L 243.217708 124.604809 
L 244.303509 126.533292 
L 245.38931 122.676326 
L 246.475111 122.970502 
L 247.560912 122.807071 
L 248.646713 120.51904 
L 249.732514 123.428108 
L 250.818316 120.551727 
L 251.904117 120.617099 
L 252.989918 119.93069 
L 254.075719 118.982791 
L 255.16152 121.238136 
L 256.247321 122.774385 
L 257.333123 126.369861 
L 258.418924 122.905129 
L 259.504725 117.838776 
L 260.590526 118.525185 
L 261.676327 121.042019 
L 262.762128 118.590558 
L 263.847929 118.198324 
L 264.933731 121.532311 
L 266.019532 126.598664 
L 267.105333 122.480209 
L 268.191134 121.728428 
L 269.276935 115.94298 
L 270.362736 118.361755 
L 271.448538 118.819361 
L 273.62014 115.51806 
L 274.705941 117.936835 
L 275.791742 121.074705 
L 276.877543 113.426146 
L 279.049146 117.38117 
L 280.134947 111.203488 
L 281.220748 117.283112 
L 282.306549 114.472103 
L 283.39235 123.722283 
L 284.478151 114.308672 
L 285.563953 114.40673 
L 286.649754 121.434253 
L 287.735555 113.981811 
L 288.821356 115.452687 
L 289.907157 120.976647 
L 290.992958 113.295401 
L 292.07876 118.590558 
L 293.164561 117.283112 
L 294.250362 118.950105 
L 295.336163 116.498644 
L 296.421964 117.054309 
L 297.507765 115.844921 
L 298.593566 113.131971 
L 299.679368 116.10641 
L 300.765169 110.647823 
L 301.85097 111.530349 
L 302.936771 113.949124 
L 304.022572 110.059473 
L 305.108373 108.948143 
L 306.194175 116.073724 
L 307.279976 110.745882 
L 308.365777 113.131971 
L 309.451578 111.628408 
L 310.537379 107.902187 
L 311.62318 106.692799 
L 312.708981 110.026786 
L 313.794783 107.934873 
L 314.880584 108.948143 
L 315.966385 111.497663 
L 317.052186 107.869501 
L 318.137987 108.55591 
L 319.223788 113.099285 
L 320.30959 108.29442 
L 321.395391 108.523224 
L 322.481192 106.463996 
L 323.566993 108.686654 
L 324.652794 107.934873 
L 325.738595 109.046202 
L 326.824396 107.804128 
L 327.910198 109.176947 
L 328.995999 106.562055 
L 330.0818 105.712215 
L 331.167601 106.888916 
L 332.253402 105.973704 
L 333.339203 102.280169 
L 334.425005 101.332271 
L 335.510806 103.326126 
L 336.596607 105.025806 
L 337.682408 105.352667 
L 338.768209 103.03195 
L 339.85401 104.045221 
L 340.939811 101.332271 
L 342.025613 103.391498 
L 343.111414 101.038095 
L 344.197215 101.430329 
L 345.283016 100.940037 
L 346.368817 102.4436 
L 347.454618 100.351686 
L 348.54042 101.855249 
L 349.626221 101.005409 
L 350.712022 98.782751 
L 351.797823 99.665277 
L 352.883624 97.442619 
L 353.969425 99.534532 
L 355.055227 99.46916 
L 356.141028 98.848123 
L 357.226829 97.965597 
L 358.31263 96.298604 
L 359.398431 96.985013 
L 360.484232 97.475305 
L 361.570033 97.115757 
L 362.655835 94.795041 
L 363.741636 96.265917 
L 364.827437 95.318019 
L 365.913238 95.90637 
L 366.999039 95.318019 
L 368.08484 97.377246 
L 369.170642 97.932911 
L 370.256443 97.050385 
L 371.342244 99.240357 
L 372.428045 101.038095 
L 373.513846 101.789877 
L 374.599647 102.933892 
L 375.685448 101.16884 
L 376.77125 103.064637 
L 377.857051 103.260753 
L 378.942852 104.012535 
L 380.028653 103.620301 
L 381.114454 104.241338 
L 382.200255 102.86852 
L 383.286057 103.554929 
L 384.371858 103.979849 
L 385.457659 104.208652 
L 386.54346 101.332271 
L 387.629261 103.947163 
L 388.715062 101.789877 
L 389.800863 104.045221 
L 390.886665 104.404769 
L 391.972466 102.737775 
L 393.058267 104.274024 
L 394.144068 102.4436 
L 395.229869 102.312855 
L 396.31567 102.410914 
L 397.401472 103.326126 
L 398.487273 102.835833 
L 398.487273 102.835833 
" clip-path="url(#pd81b22ebb0)" style="fill: none; stroke: #ff7f0e; stroke-width: 1.5; stroke-linecap: square"/>
   </g>
   <g id="line2d_21">
    <path d="M 73.832727 295.44517 
L 74.918528 285.27865 
L 76.00433 281.01818 
L 77.090131 275.901107 
L 78.175932 271.505383 
L 79.261733 275.653143 
L 81.433335 256.469754 
L 82.519137 259.467863 
L 83.604938 248.918126 
L 84.690739 253.809778 
L 85.77654 243.214957 
L 86.862341 238.233137 
L 87.948142 241.637005 
L 89.033943 230.658967 
L 90.119745 237.12857 
L 92.291347 231.763533 
L 93.377148 231.515569 
L 94.462949 233.093521 
L 95.54875 249.707102 
L 96.634552 236.136715 
L 97.720353 237.286366 
L 98.806154 246.235608 
L 99.891955 237.84992 
L 100.977756 232.823015 
L 102.063557 239.360245 
L 103.149358 231.290148 
L 104.23516 234.558763 
L 105.320961 229.599485 
L 106.406762 240.081595 
L 107.492563 223.42293 
L 108.578364 230.658967 
L 109.664165 219.816182 
L 110.749967 223.693436 
L 111.835768 216.68282 
L 112.921569 219.568218 
L 114.00737 217.381627 
L 115.093171 215.871302 
L 116.178972 219.658387 
L 117.264773 214.81182 
L 118.350575 213.25641 
L 119.436376 211.407952 
L 120.522177 213.910133 
L 121.607978 208.364759 
L 122.693779 203.450565 
L 123.77958 206.944602 
L 124.865382 201.061095 
L 125.951183 208.905771 
L 128.122785 202.819384 
L 129.208586 205.141228 
L 130.294387 201.241432 
L 131.380189 202.593962 
L 132.46599 202.436167 
L 133.551791 200.542625 
L 134.637592 200.429914 
L 135.723393 201.083637 
L 136.809194 200.069239 
L 137.894995 199.911444 
L 138.980797 223.039713 
L 140.066598 222.927002 
L 141.152399 215.713507 
L 142.2382 217.742302 
L 143.324001 226.33087 
L 144.409802 225.113593 
L 145.495604 221.574471 
L 146.581405 225.451725 
L 147.667206 216.389772 
L 148.753007 215.758591 
L 149.838808 212.129301 
L 150.924609 222.070399 
L 152.01041 212.332181 
L 153.096212 213.301494 
L 154.182013 215.037242 
L 155.267814 213.77488 
L 156.353615 209.649662 
L 157.439416 210.461181 
L 158.525217 214.541314 
L 159.611019 215.397916 
L 160.69682 206.245794 
L 161.782621 208.725433 
L 162.868422 216.705362 
L 163.954223 206.538843 
L 165.040024 206.786807 
L 166.125825 208.387301 
L 167.211627 206.358505 
L 168.297428 205.028517 
L 169.383229 209.62712 
L 170.46903 205.952746 
L 171.554831 214.29335 
L 172.640632 204.577674 
L 173.726434 211.475578 
L 174.812235 207.192566 
L 176.983837 204.081746 
L 178.069638 209.536952 
L 179.155439 200.046697 
L 180.24124 202.706673 
L 181.327042 204.149372 
L 182.412843 200.001613 
L 183.498644 208.454927 
L 184.584445 196.687913 
L 185.670246 195.763684 
L 186.756047 210.889482 
L 187.841849 203.180059 
L 188.92765 194.388612 
L 190.013451 196.913335 
L 191.099252 191.57084 
L 192.185053 192.990997 
L 193.270854 192.337274 
L 194.356656 192.540154 
L 195.442457 191.638467 
L 196.528258 193.396756 
L 197.614059 192.472527 
L 198.69986 189.609671 
L 199.785661 191.05237 
L 200.871462 185.123779 
L 201.957264 187.535791 
L 203.043065 187.175117 
L 204.128866 188.617816 
L 205.214667 187.220201 
L 206.300468 185.191406 
L 207.386269 188.257141 
L 208.472071 187.535791 
L 209.557872 185.191406 
L 210.643673 183.838875 
L 211.729474 187.400538 
L 212.815275 184.244634 
L 213.901076 182.599056 
L 214.986877 184.71802 
L 216.072679 184.222092 
L 217.15848 184.019213 
L 218.244281 182.937188 
L 219.330082 183.049899 
L 220.415883 183.388032 
L 221.501684 182.666682 
L 222.587486 183.072441 
L 223.673287 182.666682 
L 224.759088 182.576514 
L 225.844889 220.357194 
L 226.93069 222.633954 
L 228.016491 217.381627 
L 230.188094 215.172495 
L 231.273895 202.075493 
L 232.359696 233.38657 
L 233.445497 210.010337 
L 234.531298 215.781133 
L 235.617099 214.60894 
L 236.702901 208.387301 
L 237.788702 210.506265 
L 238.874503 213.098615 
L 239.960304 207.711036 
L 241.046105 203.225143 
L 242.131906 207.778662 
L 243.217708 214.992157 
L 244.303509 212.01659 
L 245.38931 210.506265 
L 246.475111 214.000302 
L 247.560912 207.598325 
L 248.646713 203.180059 
L 249.732514 211.272699 
L 250.818316 210.889482 
L 251.904117 211.340325 
L 252.989918 208.657807 
L 254.075719 205.276481 
L 255.16152 205.005975 
L 256.247321 210.573891 
L 257.333123 217.945182 
L 258.418924 210.686602 
L 259.504725 206.40359 
L 260.590526 203.788698 
L 261.676327 206.989686 
L 262.762128 204.284625 
L 263.847929 215.014699 
L 264.933731 219.568218 
L 266.019532 213.729796 
L 267.105333 210.438638 
L 268.191134 204.960891 
L 269.276935 208.454927 
L 270.362736 207.440529 
L 271.448538 208.297132 
L 272.534339 202.391083 
L 273.62014 204.825638 
L 274.705941 204.104288 
L 275.791742 211.024735 
L 276.877543 207.350361 
L 277.963344 201.42177 
L 279.049146 200.136866 
L 280.134947 197.882648 
L 281.220748 207.23765 
L 282.306549 198.153155 
L 283.39235 219.635845 
L 284.478151 199.888902 
L 285.563953 202.413625 
L 286.649754 212.828109 
L 287.735555 195.650973 
L 288.821356 210.032879 
L 289.907157 204.194457 
L 290.992958 195.808769 
L 292.07876 205.186312 
L 293.164561 204.284625 
L 294.250362 206.40359 
L 295.336163 201.940239 
L 296.421964 199.888902 
L 297.507765 207.23765 
L 298.593566 198.851962 
L 299.679368 213.301494 
L 300.765169 199.888902 
L 301.85097 197.07113 
L 302.936771 206.245794 
L 304.022572 196.620287 
L 305.108373 199.438058 
L 306.194175 206.155626 
L 307.279976 195.335383 
L 308.365777 202.075493 
L 309.451578 203.112432 
L 310.537379 191.25525 
L 311.62318 199.595854 
L 312.708981 198.671624 
L 313.794783 200.474998 
L 314.880584 198.536371 
L 315.966385 202.7743 
L 317.052186 195.245214 
L 318.137987 200.294661 
L 319.223788 195.177588 
L 320.30959 191.548298 
L 321.395391 196.55266 
L 322.481192 196.507576 
L 323.566993 199.438058 
L 324.652794 189.519503 
L 325.738595 192.472527 
L 326.824396 198.491287 
L 327.910198 197.386721 
L 328.995999 201.038553 
L 330.0818 185.912755 
L 331.167601 196.011648 
L 332.253402 198.423661 
L 333.339203 192.337274 
L 334.425005 195.042335 
L 335.510806 196.575202 
L 336.596607 195.357925 
L 337.682408 200.317203 
L 338.768209 197.657227 
L 339.85401 189.226454 
L 340.939811 189.587129 
L 342.025613 197.769938 
L 343.111414 194.140648 
L 344.197215 189.835093 
L 346.368817 185.980382 
L 347.454618 193.960311 
L 348.54042 193.12625 
L 349.626221 190.195768 
L 350.712022 191.706093 
L 351.797823 191.05237 
L 352.883624 188.121888 
L 353.969425 190.331021 
L 355.055227 184.853273 
L 356.141028 190.73678 
L 357.226829 188.009177 
L 358.31263 186.927153 
L 359.398431 187.039864 
L 360.484232 181.990417 
L 361.570033 185.304116 
L 362.655835 185.574622 
L 363.741636 181.742453 
L 364.827437 182.779393 
L 365.913238 182.779393 
L 366.999039 179.7362 
L 368.08484 187.423081 
L 369.170642 185.506996 
L 370.256443 189.474418 
L 371.342244 186.927153 
L 372.428045 191.165081 
L 373.513846 185.935297 
L 374.599647 200.429914 
L 375.685448 193.982853 
L 376.77125 189.880177 
L 377.857051 192.833202 
L 378.942852 192.202021 
L 380.028653 197.048588 
L 382.200255 190.624069 
L 383.286057 193.374214 
L 384.371858 191.277792 
L 385.457659 201.940239 
L 386.54346 189.767466 
L 387.629261 191.615925 
L 388.715062 193.193877 
L 389.800863 190.466274 
L 390.886665 192.562696 
L 391.972466 186.453767 
L 393.058267 195.966564 
L 394.144068 196.214528 
L 395.229869 194.298443 
L 396.31567 188.617816 
L 397.401472 189.69984 
L 398.487273 197.905191 
L 398.487273 197.905191 
" clip-path="url(#pd81b22ebb0)" style="fill: none; stroke: #2ca02c; stroke-width: 1.5; stroke-linecap: square"/>
   </g>
   <g id="line2d_22">
    <path d="M 368.08484 97.638736 
L 369.170642 102.410914 
L 370.256443 99.174985 
L 371.342244 103.358812 
L 372.428045 106.692799 
L 373.513846 112.576306 
L 374.599647 106.235193 
L 375.685448 114.897023 
L 376.77125 109.928728 
L 377.857051 108.817399 
L 378.942852 112.249445 
L 380.028653 107.934873 
L 381.114454 113.622263 
L 382.200255 117.315798 
L 383.286057 115.027767 
L 384.371858 114.275986 
L 385.457659 122.05529 
L 386.54346 117.479229 
L 387.629261 115.812235 
L 388.715062 120.911274 
L 389.800863 123.983772 
L 390.886665 122.414837 
L 391.972466 123.9184 
L 393.058267 131.370842 
L 394.144068 127.383132 
L 395.229869 128.102227 
L 396.31567 132.253368 
L 397.401472 130.03071 
L 398.487273 135.195122 
L 398.487273 135.195122 
" clip-path="url(#pd81b22ebb0)" style="fill: none; stroke: #d62728; stroke-width: 1.5; stroke-linecap: square"/>
   </g>
   <g id="line2d_23">
    <path d="M 368.08484 181.787537 
L 369.170642 189.046117 
L 370.256443 189.677298 
L 371.342244 197.251468 
L 372.428045 194.974708 
L 373.513846 195.763684 
L 374.599647 189.451876 
L 375.685448 203.946493 
L 376.77125 195.470636 
L 377.857051 193.306588 
L 378.942852 194.433696 
L 380.028653 195.064877 
L 381.114454 205.637156 
L 382.200255 205.005975 
L 383.286057 199.235179 
L 384.371858 206.268337 
L 385.457659 203.247685 
L 386.54346 207.508156 
L 387.629261 197.521974 
L 388.715062 208.297132 
L 389.800863 203.540734 
L 390.886665 207.575783 
L 391.972466 209.446783 
L 393.058267 215.285205 
L 394.144068 207.057313 
L 395.229869 207.485614 
L 396.31567 212.467434 
L 398.487273 209.83 
L 398.487273 209.83 
" clip-path="url(#pd81b22ebb0)" style="fill: none; stroke: #9467bd; stroke-width: 1.5; stroke-linecap: square"/>
   </g>
   <g id="patch_3">
    <path d="M 57.6 307.584 
L 57.6 41.472 
" style="fill: none; stroke: #000000; stroke-width: 0.8; stroke-linejoin: miter; stroke-linecap: square"/>
   </g>
   <g id="patch_4">
    <path d="M 414.72 307.584 
L 414.72 41.472 
" style="fill: none; stroke: #000000; stroke-width: 0.8; stroke-linejoin: miter; stroke-linecap: square"/>
   </g>
   <g id="patch_5">
    <path d="M 57.6 307.584 
L 414.72 307.584 
" style="fill: none; stroke: #000000; stroke-width: 0.8; stroke-linejoin: miter; stroke-linecap: square"/>
   </g>
   <g id="patch_6">
    <path d="M 57.6 41.472 
L 414.72 41.472 
" style="fill: none; stroke: #000000; stroke-width: 0.8; stroke-linejoin: miter; stroke-linecap: square"/>
   </g>
   <g id="text_21">
    <!-- Learning Curves -->
    <g transform="translate(187.37625 35.472) scale(0.12 -0.12)">
     <defs>
      <path id="DejaVuSans-4c" d="M 628 4666 
L 1259 4666 
L 1259 531 
L 3531 531 
L 3531 0 
L 628 0 
L 628 4666 
z
" transform="scale(0.015625)"/>
      <path id="DejaVuSans-65" d="M 3597 1894 
L 3597 1613 
L 953 1613 
Q 991 1019 1311 708 
Q 1631 397 2203 397 
Q 2534 397 2845 478 
Q 3156 559 3463 722 
L 3463 178 
Q 3153 47 2828 -22 
Q 2503 -91 2169 -91 
Q 1331 -91 842 396 
Q 353 884 353 1716 
Q 353 2575 817 3079 
Q 1281 3584 2069 3584 
Q 2775 3584 3186 3129 
Q 3597 2675 3597 1894 
z
M 3022 2063 
Q 3016 2534 2758 2815 
Q 2500 3097 2075 3097 
Q 1594 3097 1305 2825 
Q 1016 2553 972 2059 
L 3022 2063 
z
" transform="scale(0.015625)"/>
      <path id="DejaVuSans-6e" d="M 3513 2113 
L 3513 0 
L 2938 0 
L 2938 2094 
Q 2938 2591 2744 2837 
Q 2550 3084 2163 3084 
Q 1697 3084 1428 2787 
Q 1159 2491 1159 1978 
L 1159 0 
L 581 0 
L 581 3500 
L 1159 3500 
L 1159 2956 
Q 1366 3272 1645 3428 
Q 1925 3584 2291 3584 
Q 2894 3584 3203 3211 
Q 3513 2838 3513 2113 
z
" transform="scale(0.015625)"/>
      <path id="DejaVuSans-69" d="M 603 3500 
L 1178 3500 
L 1178 0 
L 603 0 
L 603 3500 
z
M 603 4863 
L 1178 4863 
L 1178 4134 
L 603 4134 
L 603 4863 
z
" transform="scale(0.015625)"/>
      <path id="DejaVuSans-67" d="M 2906 1791 
Q 2906 2416 2648 2759 
Q 2391 3103 1925 3103 
Q 1463 3103 1205 2759 
Q 947 2416 947 1791 
Q 947 1169 1205 825 
Q 1463 481 1925 481 
Q 2391 481 2648 825 
Q 2906 1169 2906 1791 
z
M 3481 434 
Q 3481 -459 3084 -895 
Q 2688 -1331 1869 -1331 
Q 1566 -1331 1297 -1286 
Q 1028 -1241 775 -1147 
L 775 -588 
Q 1028 -725 1275 -790 
Q 1522 -856 1778 -856 
Q 2344 -856 2625 -561 
Q 2906 -266 2906 331 
L 2906 616 
Q 2728 306 2450 153 
Q 2172 0 1784 0 
Q 1141 0 747 490 
Q 353 981 353 1791 
Q 353 2603 747 3093 
Q 1141 3584 1784 3584 
Q 2172 3584 2450 3431 
Q 2728 3278 2906 2969 
L 2906 3500 
L 3481 3500 
L 3481 434 
z
" transform="scale(0.015625)"/>
      <path id="DejaVuSans-20" transform="scale(0.015625)"/>
      <path id="DejaVuSans-43" d="M 4122 4306 
L 4122 3641 
Q 3803 3938 3442 4084 
Q 3081 4231 2675 4231 
Q 1875 4231 1450 3742 
Q 1025 3253 1025 2328 
Q 1025 1406 1450 917 
Q 1875 428 2675 428 
Q 3081 428 3442 575 
Q 3803 722 4122 1019 
L 4122 359 
Q 3791 134 3420 21 
Q 3050 -91 2638 -91 
Q 1578 -91 968 557 
Q 359 1206 359 2328 
Q 359 3453 968 4101 
Q 1578 4750 2638 4750 
Q 3056 4750 3426 4639 
Q 3797 4528 4122 4306 
z
" transform="scale(0.015625)"/>
      <path id="DejaVuSans-76" d="M 191 3500 
L 800 3500 
L 1894 563 
L 2988 3500 
L 3597 3500 
L 2284 0 
L 1503 0 
L 191 3500 
z
" transform="scale(0.015625)"/>
     </defs>
     <use xlink:href="#DejaVuSans-4c"/>
     <use xlink:href="#DejaVuSans-65" x="53.962891"/>
     <use xlink:href="#DejaVuSans-61" x="115.486328"/>
     <use xlink:href="#DejaVuSans-72" x="176.765625"/>
     <use xlink:href="#DejaVuSans-6e" x="216.128906"/>
     <use xlink:href="#DejaVuSans-69" x="279.507812"/>
     <use xlink:href="#DejaVuSans-6e" x="307.291016"/>
     <use xlink:href="#DejaVuSans-67" x="370.669922"/>
     <use xlink:href="#DejaVuSans-20" x="434.146484"/>
     <use xlink:href="#DejaVuSans-43" x="465.933594"/>
     <use xlink:href="#DejaVuSans-75" x="535.757812"/>
     <use xlink:href="#DejaVuSans-72" x="599.136719"/>
     <use xlink:href="#DejaVuSans-76" x="640.25"/>
     <use xlink:href="#DejaVuSans-65" x="699.429688"/>
     <use xlink:href="#DejaVuSans-73" x="760.953125"/>
    </g>
   </g>
   <g id="legend_1">
    <g id="patch_7">
     <path d="M 214.18875 302.584 
L 407.72 302.584 
Q 409.72 302.584 409.72 300.584 
L 409.72 228.193375 
Q 409.72 226.193375 407.72 226.193375 
L 214.18875 226.193375 
Q 212.18875 226.193375 212.18875 228.193375 
L 212.18875 300.584 
Q 212.18875 302.584 214.18875 302.584 
z
" style="fill: #ffffff; opacity: 0.8; stroke: #cccccc; stroke-linejoin: miter"/>
    </g>
    <g id="line2d_24">
     <path d="M 216.18875 234.291812 
L 226.18875 234.291812 
L 236.18875 234.291812 
" style="fill: none; stroke: #1f77b4; stroke-width: 1.5; stroke-linecap: square"/>
    </g>
    <g id="text_22">
     <!-- Train Accuracy -->
     <g transform="translate(244.18875 237.791812) scale(0.1 -0.1)">
      <defs>
       <path id="DejaVuSans-54" d="M -19 4666 
L 3928 4666 
L 3928 4134 
L 2272 4134 
L 2272 0 
L 1638 0 
L 1638 4134 
L -19 4134 
L -19 4666 
z
" transform="scale(0.015625)"/>
      </defs>
      <use xlink:href="#DejaVuSans-54"/>
      <use xlink:href="#DejaVuSans-72" x="46.333984"/>
      <use xlink:href="#DejaVuSans-61" x="87.447266"/>
      <use xlink:href="#DejaVuSans-69" x="148.726562"/>
      <use xlink:href="#DejaVuSans-6e" x="176.509766"/>
      <use xlink:href="#DejaVuSans-20" x="239.888672"/>
      <use xlink:href="#DejaVuSans-41" x="271.675781"/>
      <use xlink:href="#DejaVuSans-63" x="338.333984"/>
      <use xlink:href="#DejaVuSans-63" x="393.314453"/>
      <use xlink:href="#DejaVuSans-75" x="448.294922"/>
      <use xlink:href="#DejaVuSans-72" x="511.673828"/>
      <use xlink:href="#DejaVuSans-61" x="552.787109"/>
      <use xlink:href="#DejaVuSans-63" x="614.066406"/>
      <use xlink:href="#DejaVuSans-79" x="669.046875"/>
     </g>
    </g>
    <g id="line2d_25">
     <path d="M 216.18875 248.969937 
L 226.18875 248.969937 
L 236.18875 248.969937 
" style="fill: none; stroke: #ff7f0e; stroke-width: 1.5; stroke-linecap: square"/>
    </g>
    <g id="text_23">
     <!-- Validation Accuracy -->
     <g transform="translate(244.18875 252.469937) scale(0.1 -0.1)">
      <defs>
       <path id="DejaVuSans-56" d="M 1831 0 
L 50 4666 
L 709 4666 
L 2188 738 
L 3669 4666 
L 4325 4666 
L 2547 0 
L 1831 0 
z
" transform="scale(0.015625)"/>
       <path id="DejaVuSans-6c" d="M 603 4863 
L 1178 4863 
L 1178 0 
L 603 0 
L 603 4863 
z
" transform="scale(0.015625)"/>
       <path id="DejaVuSans-64" d="M 2906 2969 
L 2906 4863 
L 3481 4863 
L 3481 0 
L 2906 0 
L 2906 525 
Q 2725 213 2448 61 
Q 2172 -91 1784 -91 
Q 1150 -91 751 415 
Q 353 922 353 1747 
Q 353 2572 751 3078 
Q 1150 3584 1784 3584 
Q 2172 3584 2448 3432 
Q 2725 3281 2906 2969 
z
M 947 1747 
Q 947 1113 1208 752 
Q 1469 391 1925 391 
Q 2381 391 2643 752 
Q 2906 1113 2906 1747 
Q 2906 2381 2643 2742 
Q 2381 3103 1925 3103 
Q 1469 3103 1208 2742 
Q 947 2381 947 1747 
z
" transform="scale(0.015625)"/>
       <path id="DejaVuSans-74" d="M 1172 4494 
L 1172 3500 
L 2356 3500 
L 2356 3053 
L 1172 3053 
L 1172 1153 
Q 1172 725 1289 603 
Q 1406 481 1766 481 
L 2356 481 
L 2356 0 
L 1766 0 
Q 1100 0 847 248 
Q 594 497 594 1153 
L 594 3053 
L 172 3053 
L 172 3500 
L 594 3500 
L 594 4494 
L 1172 4494 
z
" transform="scale(0.015625)"/>
      </defs>
      <use xlink:href="#DejaVuSans-56"/>
      <use xlink:href="#DejaVuSans-61" x="60.658203"/>
      <use xlink:href="#DejaVuSans-6c" x="121.9375"/>
      <use xlink:href="#DejaVuSans-69" x="149.720703"/>
      <use xlink:href="#DejaVuSans-64" x="177.503906"/>
      <use xlink:href="#DejaVuSans-61" x="240.980469"/>
      <use xlink:href="#DejaVuSans-74" x="302.259766"/>
      <use xlink:href="#DejaVuSans-69" x="341.46875"/>
      <use xlink:href="#DejaVuSans-6f" x="369.251953"/>
      <use xlink:href="#DejaVuSans-6e" x="430.433594"/>
      <use xlink:href="#DejaVuSans-20" x="493.8125"/>
      <use xlink:href="#DejaVuSans-41" x="525.599609"/>
      <use xlink:href="#DejaVuSans-63" x="592.257812"/>
      <use xlink:href="#DejaVuSans-63" x="647.238281"/>
      <use xlink:href="#DejaVuSans-75" x="702.21875"/>
      <use xlink:href="#DejaVuSans-72" x="765.597656"/>
      <use xlink:href="#DejaVuSans-61" x="806.710938"/>
      <use xlink:href="#DejaVuSans-63" x="867.990234"/>
      <use xlink:href="#DejaVuSans-79" x="922.970703"/>
     </g>
    </g>
    <g id="line2d_26">
     <path d="M 216.18875 263.648062 
L 226.18875 263.648062 
L 236.18875 263.648062 
" style="fill: none; stroke: #2ca02c; stroke-width: 1.5; stroke-linecap: square"/>
    </g>
    <g id="text_24">
     <!-- Robust Validation Accuracy -->
     <g transform="translate(244.18875 267.148062) scale(0.1 -0.1)">
      <defs>
       <path id="DejaVuSans-52" d="M 2841 2188 
Q 3044 2119 3236 1894 
Q 3428 1669 3622 1275 
L 4263 0 
L 3584 0 
L 2988 1197 
Q 2756 1666 2539 1819 
Q 2322 1972 1947 1972 
L 1259 1972 
L 1259 0 
L 628 0 
L 628 4666 
L 2053 4666 
Q 2853 4666 3247 4331 
Q 3641 3997 3641 3322 
Q 3641 2881 3436 2590 
Q 3231 2300 2841 2188 
z
M 1259 4147 
L 1259 2491 
L 2053 2491 
Q 2509 2491 2742 2702 
Q 2975 2913 2975 3322 
Q 2975 3731 2742 3939 
Q 2509 4147 2053 4147 
L 1259 4147 
z
" transform="scale(0.015625)"/>
       <path id="DejaVuSans-62" d="M 3116 1747 
Q 3116 2381 2855 2742 
Q 2594 3103 2138 3103 
Q 1681 3103 1420 2742 
Q 1159 2381 1159 1747 
Q 1159 1113 1420 752 
Q 1681 391 2138 391 
Q 2594 391 2855 752 
Q 3116 1113 3116 1747 
z
M 1159 2969 
Q 1341 3281 1617 3432 
Q 1894 3584 2278 3584 
Q 2916 3584 3314 3078 
Q 3713 2572 3713 1747 
Q 3713 922 3314 415 
Q 2916 -91 2278 -91 
Q 1894 -91 1617 61 
Q 1341 213 1159 525 
L 1159 0 
L 581 0 
L 581 4863 
L 1159 4863 
L 1159 2969 
z
" transform="scale(0.015625)"/>
      </defs>
      <use xlink:href="#DejaVuSans-52"/>
      <use xlink:href="#DejaVuSans-6f" x="64.982422"/>
      <use xlink:href="#DejaVuSans-62" x="126.164062"/>
      <use xlink:href="#DejaVuSans-75" x="189.640625"/>
      <use xlink:href="#DejaVuSans-73" x="253.019531"/>
      <use xlink:href="#DejaVuSans-74" x="305.119141"/>
      <use xlink:href="#DejaVuSans-20" x="344.328125"/>
      <use xlink:href="#DejaVuSans-56" x="376.115234"/>
      <use xlink:href="#DejaVuSans-61" x="436.773438"/>
      <use xlink:href="#DejaVuSans-6c" x="498.052734"/>
      <use xlink:href="#DejaVuSans-69" x="525.835938"/>
      <use xlink:href="#DejaVuSans-64" x="553.619141"/>
      <use xlink:href="#DejaVuSans-61" x="617.095703"/>
      <use xlink:href="#DejaVuSans-74" x="678.375"/>
      <use xlink:href="#DejaVuSans-69" x="717.583984"/>
      <use xlink:href="#DejaVuSans-6f" x="745.367188"/>
      <use xlink:href="#DejaVuSans-6e" x="806.548828"/>
      <use xlink:href="#DejaVuSans-20" x="869.927734"/>
      <use xlink:href="#DejaVuSans-41" x="901.714844"/>
      <use xlink:href="#DejaVuSans-63" x="968.373047"/>
      <use xlink:href="#DejaVuSans-63" x="1023.353516"/>
      <use xlink:href="#DejaVuSans-75" x="1078.333984"/>
      <use xlink:href="#DejaVuSans-72" x="1141.712891"/>
      <use xlink:href="#DejaVuSans-61" x="1182.826172"/>
      <use xlink:href="#DejaVuSans-63" x="1244.105469"/>
      <use xlink:href="#DejaVuSans-79" x="1299.085938"/>
     </g>
    </g>
    <g id="line2d_27">
     <path d="M 216.18875 278.326188 
L 226.18875 278.326188 
L 236.18875 278.326188 
" style="fill: none; stroke: #d62728; stroke-width: 1.5; stroke-linecap: square"/>
    </g>
    <g id="text_25">
     <!-- SWA Validation Accuracy -->
     <g transform="translate(244.18875 281.826188) scale(0.1 -0.1)">
      <defs>
       <path id="DejaVuSans-53" d="M 3425 4513 
L 3425 3897 
Q 3066 4069 2747 4153 
Q 2428 4238 2131 4238 
Q 1616 4238 1336 4038 
Q 1056 3838 1056 3469 
Q 1056 3159 1242 3001 
Q 1428 2844 1947 2747 
L 2328 2669 
Q 3034 2534 3370 2195 
Q 3706 1856 3706 1288 
Q 3706 609 3251 259 
Q 2797 -91 1919 -91 
Q 1588 -91 1214 -16 
Q 841 59 441 206 
L 441 856 
Q 825 641 1194 531 
Q 1563 422 1919 422 
Q 2459 422 2753 634 
Q 3047 847 3047 1241 
Q 3047 1584 2836 1778 
Q 2625 1972 2144 2069 
L 1759 2144 
Q 1053 2284 737 2584 
Q 422 2884 422 3419 
Q 422 4038 858 4394 
Q 1294 4750 2059 4750 
Q 2388 4750 2728 4690 
Q 3069 4631 3425 4513 
z
" transform="scale(0.015625)"/>
       <path id="DejaVuSans-57" d="M 213 4666 
L 850 4666 
L 1831 722 
L 2809 4666 
L 3519 4666 
L 4500 722 
L 5478 4666 
L 6119 4666 
L 4947 0 
L 4153 0 
L 3169 4050 
L 2175 0 
L 1381 0 
L 213 4666 
z
" transform="scale(0.015625)"/>
      </defs>
      <use xlink:href="#DejaVuSans-53"/>
      <use xlink:href="#DejaVuSans-57" x="63.476562"/>
      <use xlink:href="#DejaVuSans-41" x="156.853516"/>
      <use xlink:href="#DejaVuSans-20" x="225.261719"/>
      <use xlink:href="#DejaVuSans-56" x="257.048828"/>
      <use xlink:href="#DejaVuSans-61" x="317.707031"/>
      <use xlink:href="#DejaVuSans-6c" x="378.986328"/>
      <use xlink:href="#DejaVuSans-69" x="406.769531"/>
      <use xlink:href="#DejaVuSans-64" x="434.552734"/>
      <use xlink:href="#DejaVuSans-61" x="498.029297"/>
      <use xlink:href="#DejaVuSans-74" x="559.308594"/>
      <use xlink:href="#DejaVuSans-69" x="598.517578"/>
      <use xlink:href="#DejaVuSans-6f" x="626.300781"/>
      <use xlink:href="#DejaVuSans-6e" x="687.482422"/>
      <use xlink:href="#DejaVuSans-20" x="750.861328"/>
      <use xlink:href="#DejaVuSans-41" x="782.648438"/>
      <use xlink:href="#DejaVuSans-63" x="849.306641"/>
      <use xlink:href="#DejaVuSans-63" x="904.287109"/>
      <use xlink:href="#DejaVuSans-75" x="959.267578"/>
      <use xlink:href="#DejaVuSans-72" x="1022.646484"/>
      <use xlink:href="#DejaVuSans-61" x="1063.759766"/>
      <use xlink:href="#DejaVuSans-63" x="1125.039062"/>
      <use xlink:href="#DejaVuSans-79" x="1180.019531"/>
     </g>
    </g>
    <g id="line2d_28">
     <path d="M 216.18875 293.004312 
L 226.18875 293.004312 
L 236.18875 293.004312 
" style="fill: none; stroke: #9467bd; stroke-width: 1.5; stroke-linecap: square"/>
    </g>
    <g id="text_26">
     <!-- SWA Robust Validation Accuracy -->
     <g transform="translate(244.18875 296.504312) scale(0.1 -0.1)">
      <use xlink:href="#DejaVuSans-53"/>
      <use xlink:href="#DejaVuSans-57" x="63.476562"/>
      <use xlink:href="#DejaVuSans-41" x="156.853516"/>
      <use xlink:href="#DejaVuSans-20" x="225.261719"/>
      <use xlink:href="#DejaVuSans-52" x="257.048828"/>
      <use xlink:href="#DejaVuSans-6f" x="322.03125"/>
      <use xlink:href="#DejaVuSans-62" x="383.212891"/>
      <use xlink:href="#DejaVuSans-75" x="446.689453"/>
      <use xlink:href="#DejaVuSans-73" x="510.068359"/>
      <use xlink:href="#DejaVuSans-74" x="562.167969"/>
      <use xlink:href="#DejaVuSans-20" x="601.376953"/>
      <use xlink:href="#DejaVuSans-56" x="633.164062"/>
      <use xlink:href="#DejaVuSans-61" x="693.822266"/>
      <use xlink:href="#DejaVuSans-6c" x="755.101562"/>
      <use xlink:href="#DejaVuSans-69" x="782.884766"/>
      <use xlink:href="#DejaVuSans-64" x="810.667969"/>
      <use xlink:href="#DejaVuSans-61" x="874.144531"/>
      <use xlink:href="#DejaVuSans-74" x="935.423828"/>
      <use xlink:href="#DejaVuSans-69" x="974.632812"/>
      <use xlink:href="#DejaVuSans-6f" x="1002.416016"/>
      <use xlink:href="#DejaVuSans-6e" x="1063.597656"/>
      <use xlink:href="#DejaVuSans-20" x="1126.976562"/>
      <use xlink:href="#DejaVuSans-41" x="1158.763672"/>
      <use xlink:href="#DejaVuSans-63" x="1225.421875"/>
      <use xlink:href="#DejaVuSans-63" x="1280.402344"/>
      <use xlink:href="#DejaVuSans-75" x="1335.382812"/>
      <use xlink:href="#DejaVuSans-72" x="1398.761719"/>
      <use xlink:href="#DejaVuSans-61" x="1439.875"/>
      <use xlink:href="#DejaVuSans-63" x="1501.154297"/>
      <use xlink:href="#DejaVuSans-79" x="1556.134766"/>
     </g>
    </g>
   </g>
  </g>
 </g>
 <defs>
  <clipPath id="pd81b22ebb0">
   <rect x="57.6" y="41.472" width="357.12" height="266.112"/>
  </clipPath>
 </defs>
</svg>
