<?xml version="1.0" encoding="utf-8" standalone="no"?>
<!DOCTYPE svg PUBLIC "-//W3C//DTD SVG 1.1//EN"
  "http://www.w3.org/Graphics/SVG/1.1/DTD/svg11.dtd">
<svg xmlns:xlink="http://www.w3.org/1999/xlink" width="460.8pt" height="345.6pt" viewBox="0 0 460.8 345.6" xmlns="http://www.w3.org/2000/svg" version="1.1">
 <metadata>
  <rdf:RDF xmlns:dc="http://purl.org/dc/elements/1.1/" xmlns:cc="http://creativecommons.org/ns#" xmlns:rdf="http://www.w3.org/1999/02/22-rdf-syntax-ns#">
   <cc:Work>
    <dc:type rdf:resource="http://purl.org/dc/dcmitype/StillImage"/>
    <dc:date>2025-02-24T02:01:15.118133</dc:date>
    <dc:format>image/svg+xml</dc:format>
    <dc:creator>
     <cc:Agent>
      <dc:title>Matplotlib v3.9.1, https://matplotlib.org/</dc:title>
     </cc:Agent>
    </dc:creator>
   </cc:Work>
  </rdf:RDF>
 </metadata>
 <defs>
  <style type="text/css">*{stroke-linejoin: round; stroke-linecap: butt}</style>
 </defs>
 <g id="figure_1">
  <g id="patch_1">
   <path d="M 0 345.6 
L 460.8 345.6 
L 460.8 0 
L 0 0 
z
" style="fill: #ffffff"/>
  </g>
  <g id="axes_1">
   <g id="patch_2">
    <path d="M 57.6 307.584 
L 414.72 307.584 
L 414.72 41.472 
L 57.6 41.472 
z
" style="fill: #ffffff"/>
   </g>
   <g id="matplotlib.axis_1">
    <g id="xtick_1">
     <g id="line2d_1">
      <defs>
       <path id="mab74b89532" d="M 0 0 
L 0 3.5 
" style="stroke: #000000; stroke-width: 0.8"/>
      </defs>
      <g>
       <use xlink:href="#mab74b89532" x="73.832727" y="307.584" style="stroke: #000000; stroke-width: 0.8"/>
      </g>
     </g>
     <g id="text_1">
      <!-- 1 -->
      <g transform="translate(70.651477 322.182437) scale(0.1 -0.1)">
       <defs>
        <path id="DejaVuSans-31" d="M 794 531 
L 1825 531 
L 1825 4091 
L 703 3866 
L 703 4441 
L 1819 4666 
L 2450 4666 
L 2450 531 
L 3481 531 
L 3481 0 
L 794 0 
L 794 531 
z
" transform="scale(0.015625)"/>
       </defs>
       <use xlink:href="#DejaVuSans-31"/>
      </g>
     </g>
    </g>
    <g id="xtick_2">
     <g id="line2d_2">
      <g>
       <use xlink:href="#mab74b89532" x="109.664165" y="307.584" style="stroke: #000000; stroke-width: 0.8"/>
      </g>
     </g>
     <g id="text_2">
      <!-- 34 -->
      <g transform="translate(103.301665 322.182437) scale(0.1 -0.1)">
       <defs>
        <path id="DejaVuSans-33" d="M 2597 2516 
Q 3050 2419 3304 2112 
Q 3559 1806 3559 1356 
Q 3559 666 3084 287 
Q 2609 -91 1734 -91 
Q 1441 -91 1130 -33 
Q 819 25 488 141 
L 488 750 
Q 750 597 1062 519 
Q 1375 441 1716 441 
Q 2309 441 2620 675 
Q 2931 909 2931 1356 
Q 2931 1769 2642 2001 
Q 2353 2234 1838 2234 
L 1294 2234 
L 1294 2753 
L 1863 2753 
Q 2328 2753 2575 2939 
Q 2822 3125 2822 3475 
Q 2822 3834 2567 4026 
Q 2313 4219 1838 4219 
Q 1578 4219 1281 4162 
Q 984 4106 628 3988 
L 628 4550 
Q 988 4650 1302 4700 
Q 1616 4750 1894 4750 
Q 2613 4750 3031 4423 
Q 3450 4097 3450 3541 
Q 3450 3153 3228 2886 
Q 3006 2619 2597 2516 
z
" transform="scale(0.015625)"/>
        <path id="DejaVuSans-34" d="M 2419 4116 
L 825 1625 
L 2419 1625 
L 2419 4116 
z
M 2253 4666 
L 3047 4666 
L 3047 1625 
L 3713 1625 
L 3713 1100 
L 3047 1100 
L 3047 0 
L 2419 0 
L 2419 1100 
L 313 1100 
L 313 1709 
L 2253 4666 
z
" transform="scale(0.015625)"/>
       </defs>
       <use xlink:href="#DejaVuSans-33"/>
       <use xlink:href="#DejaVuSans-34" x="63.623047"/>
      </g>
     </g>
    </g>
    <g id="xtick_3">
     <g id="line2d_3">
      <g>
       <use xlink:href="#mab74b89532" x="145.495604" y="307.584" style="stroke: #000000; stroke-width: 0.8"/>
      </g>
     </g>
     <g id="text_3">
      <!-- 67 -->
      <g transform="translate(139.133104 322.182437) scale(0.1 -0.1)">
       <defs>
        <path id="DejaVuSans-36" d="M 2113 2584 
Q 1688 2584 1439 2293 
Q 1191 2003 1191 1497 
Q 1191 994 1439 701 
Q 1688 409 2113 409 
Q 2538 409 2786 701 
Q 3034 994 3034 1497 
Q 3034 2003 2786 2293 
Q 2538 2584 2113 2584 
z
M 3366 4563 
L 3366 3988 
Q 3128 4100 2886 4159 
Q 2644 4219 2406 4219 
Q 1781 4219 1451 3797 
Q 1122 3375 1075 2522 
Q 1259 2794 1537 2939 
Q 1816 3084 2150 3084 
Q 2853 3084 3261 2657 
Q 3669 2231 3669 1497 
Q 3669 778 3244 343 
Q 2819 -91 2113 -91 
Q 1303 -91 875 529 
Q 447 1150 447 2328 
Q 447 3434 972 4092 
Q 1497 4750 2381 4750 
Q 2619 4750 2861 4703 
Q 3103 4656 3366 4563 
z
" transform="scale(0.015625)"/>
        <path id="DejaVuSans-37" d="M 525 4666 
L 3525 4666 
L 3525 4397 
L 1831 0 
L 1172 0 
L 2766 4134 
L 525 4134 
L 525 4666 
z
" transform="scale(0.015625)"/>
       </defs>
       <use xlink:href="#DejaVuSans-36"/>
       <use xlink:href="#DejaVuSans-37" x="63.623047"/>
      </g>
     </g>
    </g>
    <g id="xtick_4">
     <g id="line2d_4">
      <g>
       <use xlink:href="#mab74b89532" x="181.327042" y="307.584" style="stroke: #000000; stroke-width: 0.8"/>
      </g>
     </g>
     <g id="text_4">
      <!-- 100 -->
      <g transform="translate(171.783292 322.182437) scale(0.1 -0.1)">
       <defs>
        <path id="DejaVuSans-30" d="M 2034 4250 
Q 1547 4250 1301 3770 
Q 1056 3291 1056 2328 
Q 1056 1369 1301 889 
Q 1547 409 2034 409 
Q 2525 409 2770 889 
Q 3016 1369 3016 2328 
Q 3016 3291 2770 3770 
Q 2525 4250 2034 4250 
z
M 2034 4750 
Q 2819 4750 3233 4129 
Q 3647 3509 3647 2328 
Q 3647 1150 3233 529 
Q 2819 -91 2034 -91 
Q 1250 -91 836 529 
Q 422 1150 422 2328 
Q 422 3509 836 4129 
Q 1250 4750 2034 4750 
z
" transform="scale(0.015625)"/>
       </defs>
       <use xlink:href="#DejaVuSans-31"/>
       <use xlink:href="#DejaVuSans-30" x="63.623047"/>
       <use xlink:href="#DejaVuSans-30" x="127.246094"/>
      </g>
     </g>
    </g>
    <g id="xtick_5">
     <g id="line2d_5">
      <g>
       <use xlink:href="#mab74b89532" x="217.15848" y="307.584" style="stroke: #000000; stroke-width: 0.8"/>
      </g>
     </g>
     <g id="text_5">
      <!-- 133 -->
      <g transform="translate(207.61473 322.182437) scale(0.1 -0.1)">
       <use xlink:href="#DejaVuSans-31"/>
       <use xlink:href="#DejaVuSans-33" x="63.623047"/>
       <use xlink:href="#DejaVuSans-33" x="127.246094"/>
      </g>
     </g>
    </g>
    <g id="xtick_6">
     <g id="line2d_6">
      <g>
       <use xlink:href="#mab74b89532" x="254.075719" y="307.584" style="stroke: #000000; stroke-width: 0.8"/>
      </g>
     </g>
     <g id="text_6">
      <!-- 167 -->
      <g transform="translate(244.531969 322.182437) scale(0.1 -0.1)">
       <use xlink:href="#DejaVuSans-31"/>
       <use xlink:href="#DejaVuSans-36" x="63.623047"/>
       <use xlink:href="#DejaVuSans-37" x="127.246094"/>
      </g>
     </g>
    </g>
    <g id="xtick_7">
     <g id="line2d_7">
      <g>
       <use xlink:href="#mab74b89532" x="289.907157" y="307.584" style="stroke: #000000; stroke-width: 0.8"/>
      </g>
     </g>
     <g id="text_7">
      <!-- 200 -->
      <g transform="translate(280.363407 322.182437) scale(0.1 -0.1)">
       <defs>
        <path id="DejaVuSans-32" d="M 1228 531 
L 3431 531 
L 3431 0 
L 469 0 
L 469 531 
Q 828 903 1448 1529 
Q 2069 2156 2228 2338 
Q 2531 2678 2651 2914 
Q 2772 3150 2772 3378 
Q 2772 3750 2511 3984 
Q 2250 4219 1831 4219 
Q 1534 4219 1204 4116 
Q 875 4013 500 3803 
L 500 4441 
Q 881 4594 1212 4672 
Q 1544 4750 1819 4750 
Q 2544 4750 2975 4387 
Q 3406 4025 3406 3419 
Q 3406 3131 3298 2873 
Q 3191 2616 2906 2266 
Q 2828 2175 2409 1742 
Q 1991 1309 1228 531 
z
" transform="scale(0.015625)"/>
       </defs>
       <use xlink:href="#DejaVuSans-32"/>
       <use xlink:href="#DejaVuSans-30" x="63.623047"/>
       <use xlink:href="#DejaVuSans-30" x="127.246094"/>
      </g>
     </g>
    </g>
    <g id="xtick_8">
     <g id="line2d_8">
      <g>
       <use xlink:href="#mab74b89532" x="325.738595" y="307.584" style="stroke: #000000; stroke-width: 0.8"/>
      </g>
     </g>
     <g id="text_8">
      <!-- 233 -->
      <g transform="translate(316.194845 322.182437) scale(0.1 -0.1)">
       <use xlink:href="#DejaVuSans-32"/>
       <use xlink:href="#DejaVuSans-33" x="63.623047"/>
       <use xlink:href="#DejaVuSans-33" x="127.246094"/>
      </g>
     </g>
    </g>
    <g id="xtick_9">
     <g id="line2d_9">
      <g>
       <use xlink:href="#mab74b89532" x="361.570033" y="307.584" style="stroke: #000000; stroke-width: 0.8"/>
      </g>
     </g>
     <g id="text_9">
      <!-- 266 -->
      <g transform="translate(352.026283 322.182437) scale(0.1 -0.1)">
       <use xlink:href="#DejaVuSans-32"/>
       <use xlink:href="#DejaVuSans-36" x="63.623047"/>
       <use xlink:href="#DejaVuSans-36" x="127.246094"/>
      </g>
     </g>
    </g>
    <g id="xtick_10">
     <g id="line2d_10">
      <g>
       <use xlink:href="#mab74b89532" x="398.487273" y="307.584" style="stroke: #000000; stroke-width: 0.8"/>
      </g>
     </g>
     <g id="text_10">
      <!-- 300 -->
      <g transform="translate(388.943523 322.182437) scale(0.1 -0.1)">
       <use xlink:href="#DejaVuSans-33"/>
       <use xlink:href="#DejaVuSans-30" x="63.623047"/>
       <use xlink:href="#DejaVuSans-30" x="127.246094"/>
      </g>
     </g>
    </g>
    <g id="text_11">
     <!-- Epochs -->
     <g transform="translate(218.244375 335.860562) scale(0.1 -0.1)">
      <defs>
       <path id="DejaVuSans-45" d="M 628 4666 
L 3578 4666 
L 3578 4134 
L 1259 4134 
L 1259 2753 
L 3481 2753 
L 3481 2222 
L 1259 2222 
L 1259 531 
L 3634 531 
L 3634 0 
L 628 0 
L 628 4666 
z
" transform="scale(0.015625)"/>
       <path id="DejaVuSans-70" d="M 1159 525 
L 1159 -1331 
L 581 -1331 
L 581 3500 
L 1159 3500 
L 1159 2969 
Q 1341 3281 1617 3432 
Q 1894 3584 2278 3584 
Q 2916 3584 3314 3078 
Q 3713 2572 3713 1747 
Q 3713 922 3314 415 
Q 2916 -91 2278 -91 
Q 1894 -91 1617 61 
Q 1341 213 1159 525 
z
M 3116 1747 
Q 3116 2381 2855 2742 
Q 2594 3103 2138 3103 
Q 1681 3103 1420 2742 
Q 1159 2381 1159 1747 
Q 1159 1113 1420 752 
Q 1681 391 2138 391 
Q 2594 391 2855 752 
Q 3116 1113 3116 1747 
z
" transform="scale(0.015625)"/>
       <path id="DejaVuSans-6f" d="M 1959 3097 
Q 1497 3097 1228 2736 
Q 959 2375 959 1747 
Q 959 1119 1226 758 
Q 1494 397 1959 397 
Q 2419 397 2687 759 
Q 2956 1122 2956 1747 
Q 2956 2369 2687 2733 
Q 2419 3097 1959 3097 
z
M 1959 3584 
Q 2709 3584 3137 3096 
Q 3566 2609 3566 1747 
Q 3566 888 3137 398 
Q 2709 -91 1959 -91 
Q 1206 -91 779 398 
Q 353 888 353 1747 
Q 353 2609 779 3096 
Q 1206 3584 1959 3584 
z
" transform="scale(0.015625)"/>
       <path id="DejaVuSans-63" d="M 3122 3366 
L 3122 2828 
Q 2878 2963 2633 3030 
Q 2388 3097 2138 3097 
Q 1578 3097 1268 2742 
Q 959 2388 959 1747 
Q 959 1106 1268 751 
Q 1578 397 2138 397 
Q 2388 397 2633 464 
Q 2878 531 3122 666 
L 3122 134 
Q 2881 22 2623 -34 
Q 2366 -91 2075 -91 
Q 1284 -91 818 406 
Q 353 903 353 1747 
Q 353 2603 823 3093 
Q 1294 3584 2113 3584 
Q 2378 3584 2631 3529 
Q 2884 3475 3122 3366 
z
" transform="scale(0.015625)"/>
       <path id="DejaVuSans-68" d="M 3513 2113 
L 3513 0 
L 2938 0 
L 2938 2094 
Q 2938 2591 2744 2837 
Q 2550 3084 2163 3084 
Q 1697 3084 1428 2787 
Q 1159 2491 1159 1978 
L 1159 0 
L 581 0 
L 581 4863 
L 1159 4863 
L 1159 2956 
Q 1366 3272 1645 3428 
Q 1925 3584 2291 3584 
Q 2894 3584 3203 3211 
Q 3513 2838 3513 2113 
z
" transform="scale(0.015625)"/>
       <path id="DejaVuSans-73" d="M 2834 3397 
L 2834 2853 
Q 2591 2978 2328 3040 
Q 2066 3103 1784 3103 
Q 1356 3103 1142 2972 
Q 928 2841 928 2578 
Q 928 2378 1081 2264 
Q 1234 2150 1697 2047 
L 1894 2003 
Q 2506 1872 2764 1633 
Q 3022 1394 3022 966 
Q 3022 478 2636 193 
Q 2250 -91 1575 -91 
Q 1294 -91 989 -36 
Q 684 19 347 128 
L 347 722 
Q 666 556 975 473 
Q 1284 391 1588 391 
Q 1994 391 2212 530 
Q 2431 669 2431 922 
Q 2431 1156 2273 1281 
Q 2116 1406 1581 1522 
L 1381 1569 
Q 847 1681 609 1914 
Q 372 2147 372 2553 
Q 372 3047 722 3315 
Q 1072 3584 1716 3584 
Q 2034 3584 2315 3537 
Q 2597 3491 2834 3397 
z
" transform="scale(0.015625)"/>
      </defs>
      <use xlink:href="#DejaVuSans-45"/>
      <use xlink:href="#DejaVuSans-70" x="63.183594"/>
      <use xlink:href="#DejaVuSans-6f" x="126.660156"/>
      <use xlink:href="#DejaVuSans-63" x="187.841797"/>
      <use xlink:href="#DejaVuSans-68" x="242.822266"/>
      <use xlink:href="#DejaVuSans-73" x="306.201172"/>
     </g>
    </g>
   </g>
   <g id="matplotlib.axis_2">
    <g id="ytick_1">
     <g id="line2d_11">
      <defs>
       <path id="m59d492445e" d="M 0 0 
L -3.5 0 
" style="stroke: #000000; stroke-width: 0.8"/>
      </defs>
      <g>
       <use xlink:href="#m59d492445e" x="57.6" y="274.078955" style="stroke: #000000; stroke-width: 0.8"/>
      </g>
     </g>
     <g id="text_12">
      <!-- 10 -->
      <g transform="translate(37.875 277.878174) scale(0.1 -0.1)">
       <use xlink:href="#DejaVuSans-31"/>
       <use xlink:href="#DejaVuSans-30" x="63.623047"/>
      </g>
     </g>
    </g>
    <g id="ytick_2">
     <g id="line2d_12">
      <g>
       <use xlink:href="#m59d492445e" x="57.6" y="237.306291" style="stroke: #000000; stroke-width: 0.8"/>
      </g>
     </g>
     <g id="text_13">
      <!-- 20 -->
      <g transform="translate(37.875 241.10551) scale(0.1 -0.1)">
       <use xlink:href="#DejaVuSans-32"/>
       <use xlink:href="#DejaVuSans-30" x="63.623047"/>
      </g>
     </g>
    </g>
    <g id="ytick_3">
     <g id="line2d_13">
      <g>
       <use xlink:href="#m59d492445e" x="57.6" y="200.533628" style="stroke: #000000; stroke-width: 0.8"/>
      </g>
     </g>
     <g id="text_14">
      <!-- 30 -->
      <g transform="translate(37.875 204.332847) scale(0.1 -0.1)">
       <use xlink:href="#DejaVuSans-33"/>
       <use xlink:href="#DejaVuSans-30" x="63.623047"/>
      </g>
     </g>
    </g>
    <g id="ytick_4">
     <g id="line2d_14">
      <g>
       <use xlink:href="#m59d492445e" x="57.6" y="163.760964" style="stroke: #000000; stroke-width: 0.8"/>
      </g>
     </g>
     <g id="text_15">
      <!-- 40 -->
      <g transform="translate(37.875 167.560183) scale(0.1 -0.1)">
       <use xlink:href="#DejaVuSans-34"/>
       <use xlink:href="#DejaVuSans-30" x="63.623047"/>
      </g>
     </g>
    </g>
    <g id="ytick_5">
     <g id="line2d_15">
      <g>
       <use xlink:href="#m59d492445e" x="57.6" y="126.9883" style="stroke: #000000; stroke-width: 0.8"/>
      </g>
     </g>
     <g id="text_16">
      <!-- 50 -->
      <g transform="translate(37.875 130.787519) scale(0.1 -0.1)">
       <defs>
        <path id="DejaVuSans-35" d="M 691 4666 
L 3169 4666 
L 3169 4134 
L 1269 4134 
L 1269 2991 
Q 1406 3038 1543 3061 
Q 1681 3084 1819 3084 
Q 2600 3084 3056 2656 
Q 3513 2228 3513 1497 
Q 3513 744 3044 326 
Q 2575 -91 1722 -91 
Q 1428 -91 1123 -41 
Q 819 9 494 109 
L 494 744 
Q 775 591 1075 516 
Q 1375 441 1709 441 
Q 2250 441 2565 725 
Q 2881 1009 2881 1497 
Q 2881 1984 2565 2268 
Q 2250 2553 1709 2553 
Q 1456 2553 1204 2497 
Q 953 2441 691 2322 
L 691 4666 
z
" transform="scale(0.015625)"/>
       </defs>
       <use xlink:href="#DejaVuSans-35"/>
       <use xlink:href="#DejaVuSans-30" x="63.623047"/>
      </g>
     </g>
    </g>
    <g id="ytick_6">
     <g id="line2d_16">
      <g>
       <use xlink:href="#m59d492445e" x="57.6" y="90.215637" style="stroke: #000000; stroke-width: 0.8"/>
      </g>
     </g>
     <g id="text_17">
      <!-- 60 -->
      <g transform="translate(37.875 94.014855) scale(0.1 -0.1)">
       <use xlink:href="#DejaVuSans-36"/>
       <use xlink:href="#DejaVuSans-30" x="63.623047"/>
      </g>
     </g>
    </g>
    <g id="ytick_7">
     <g id="line2d_17">
      <g>
       <use xlink:href="#m59d492445e" x="57.6" y="53.442973" style="stroke: #000000; stroke-width: 0.8"/>
      </g>
     </g>
     <g id="text_18">
      <!-- 70 -->
      <g transform="translate(37.875 57.242192) scale(0.1 -0.1)">
       <use xlink:href="#DejaVuSans-37"/>
       <use xlink:href="#DejaVuSans-30" x="63.623047"/>
      </g>
     </g>
    </g>
    <g id="text_19">
     <!-- Accuracy -->
     <g transform="translate(31.795312 197.356125) rotate(-90) scale(0.1 -0.1)">
      <defs>
       <path id="DejaVuSans-41" d="M 2188 4044 
L 1331 1722 
L 3047 1722 
L 2188 4044 
z
M 1831 4666 
L 2547 4666 
L 4325 0 
L 3669 0 
L 3244 1197 
L 1141 1197 
L 716 0 
L 50 0 
L 1831 4666 
z
" transform="scale(0.015625)"/>
       <path id="DejaVuSans-75" d="M 544 1381 
L 544 3500 
L 1119 3500 
L 1119 1403 
Q 1119 906 1312 657 
Q 1506 409 1894 409 
Q 2359 409 2629 706 
Q 2900 1003 2900 1516 
L 2900 3500 
L 3475 3500 
L 3475 0 
L 2900 0 
L 2900 538 
Q 2691 219 2414 64 
Q 2138 -91 1772 -91 
Q 1169 -91 856 284 
Q 544 659 544 1381 
z
M 1991 3584 
L 1991 3584 
z
" transform="scale(0.015625)"/>
       <path id="DejaVuSans-72" d="M 2631 2963 
Q 2534 3019 2420 3045 
Q 2306 3072 2169 3072 
Q 1681 3072 1420 2755 
Q 1159 2438 1159 1844 
L 1159 0 
L 581 0 
L 581 3500 
L 1159 3500 
L 1159 2956 
Q 1341 3275 1631 3429 
Q 1922 3584 2338 3584 
Q 2397 3584 2469 3576 
Q 2541 3569 2628 3553 
L 2631 2963 
z
" transform="scale(0.015625)"/>
       <path id="DejaVuSans-61" d="M 2194 1759 
Q 1497 1759 1228 1600 
Q 959 1441 959 1056 
Q 959 750 1161 570 
Q 1363 391 1709 391 
Q 2188 391 2477 730 
Q 2766 1069 2766 1631 
L 2766 1759 
L 2194 1759 
z
M 3341 1997 
L 3341 0 
L 2766 0 
L 2766 531 
Q 2569 213 2275 61 
Q 1981 -91 1556 -91 
Q 1019 -91 701 211 
Q 384 513 384 1019 
Q 384 1609 779 1909 
Q 1175 2209 1959 2209 
L 2766 2209 
L 2766 2266 
Q 2766 2663 2505 2880 
Q 2244 3097 1772 3097 
Q 1472 3097 1187 3025 
Q 903 2953 641 2809 
L 641 3341 
Q 956 3463 1253 3523 
Q 1550 3584 1831 3584 
Q 2591 3584 2966 3190 
Q 3341 2797 3341 1997 
z
" transform="scale(0.015625)"/>
       <path id="DejaVuSans-79" d="M 2059 -325 
Q 1816 -950 1584 -1140 
Q 1353 -1331 966 -1331 
L 506 -1331 
L 506 -850 
L 844 -850 
Q 1081 -850 1212 -737 
Q 1344 -625 1503 -206 
L 1606 56 
L 191 3500 
L 800 3500 
L 1894 763 
L 2988 3500 
L 3597 3500 
L 2059 -325 
z
" transform="scale(0.015625)"/>
      </defs>
      <use xlink:href="#DejaVuSans-41"/>
      <use xlink:href="#DejaVuSans-63" x="66.658203"/>
      <use xlink:href="#DejaVuSans-63" x="121.638672"/>
      <use xlink:href="#DejaVuSans-75" x="176.619141"/>
      <use xlink:href="#DejaVuSans-72" x="239.998047"/>
      <use xlink:href="#DejaVuSans-61" x="281.111328"/>
      <use xlink:href="#DejaVuSans-63" x="342.390625"/>
      <use xlink:href="#DejaVuSans-79" x="397.371094"/>
     </g>
    </g>
   </g>
   <g id="line2d_18">
    <path d="M 73.832727 295.488 
L 74.918528 267.055376 
L 76.00433 243.097986 
L 77.090131 223.796015 
L 78.175932 208.469169 
L 80.347534 185.324454 
L 81.433335 176.561528 
L 82.519137 169.453372 
L 83.604938 161.539895 
L 84.690739 156.369659 
L 86.862341 144.54357 
L 87.948142 140.678763 
L 89.033943 135.376145 
L 90.119745 132.029833 
L 91.205546 129.757282 
L 92.291347 125.752739 
L 93.377148 124.355378 
L 94.462949 124.178869 
L 95.54875 157.671411 
L 96.634552 155.417247 
L 100.977756 141.951097 
L 102.063557 139.818283 
L 103.149358 135.041514 
L 104.23516 133.780211 
L 105.320961 132.165891 
L 106.406762 128.073094 
L 107.492563 126.234461 
L 109.664165 121.586396 
L 110.749967 120.475862 
L 111.835768 117.90913 
L 112.921569 116.125655 
L 114.00737 112.029181 
L 115.093171 110.85981 
L 116.178972 108.785832 
L 117.264773 106.17865 
L 118.350575 104.693034 
L 120.522177 99.989811 
L 121.607978 98.581418 
L 122.693779 95.856563 
L 123.77958 94.462879 
L 124.865382 92.142524 
L 125.951183 91.208499 
L 127.036984 89.395606 
L 128.122785 86.626625 
L 129.208586 84.890955 
L 130.294387 84.015766 
L 131.380189 82.809622 
L 132.46599 82.349964 
L 133.551791 80.224504 
L 135.723393 79.54421 
L 136.809194 79.65085 
L 137.894995 78.727857 
L 138.980797 117.056004 
L 140.066598 119.799245 
L 141.152399 118.776965 
L 142.2382 118.401883 
L 143.324001 117.648044 
L 144.409802 116.710341 
L 145.495604 115.206339 
L 146.581405 115.213693 
L 147.667206 113.139715 
L 149.838808 110.554597 
L 150.924609 110.436924 
L 152.01041 108.392364 
L 154.182013 107.307571 
L 155.267814 107.178866 
L 157.439416 105.693251 
L 158.525217 104.450335 
L 159.611019 103.475859 
L 160.69682 101.747544 
L 161.782621 101.949794 
L 162.868422 101.019445 
L 163.954223 99.445575 
L 165.040024 98.94179 
L 166.125825 97.731969 
L 167.211627 98.048214 
L 168.297428 96.066167 
L 169.383229 96.216935 
L 170.46903 94.679838 
L 171.554831 94.146634 
L 174.812235 91.554162 
L 176.983837 89.307352 
L 179.155439 89.237484 
L 180.24124 87.711418 
L 181.327042 85.979426 
L 182.412843 84.84315 
L 183.498644 84.84315 
L 184.584445 83.015549 
L 185.670246 82.555891 
L 186.756047 80.934216 
L 187.841849 81.044534 
L 188.92765 79.882518 
L 190.013451 79.364024 
L 191.099252 77.860022 
L 192.185053 77.286368 
L 193.270854 77.323141 
L 194.356656 74.392359 
L 195.442457 73.921669 
L 196.528258 73.572329 
L 197.614059 72.796426 
L 198.69986 70.593743 
L 199.785661 69.670749 
L 200.871462 70.123053 
L 201.957264 68.497701 
L 203.043065 67.449681 
L 204.128866 66.162637 
L 205.214667 65.747106 
L 206.300468 64.710117 
L 207.386269 64.38284 
L 208.472071 63.739319 
L 209.557872 62.632462 
L 210.643673 61.702113 
L 211.729474 61.521927 
L 212.815275 61.731531 
L 213.901076 60.852665 
L 214.986877 60.587902 
L 216.072679 60.124566 
L 217.15848 59.815676 
L 218.244281 57.98072 
L 219.330082 58.091038 
L 220.415883 56.833413 
L 221.501684 57.009921 
L 222.587486 57.49532 
L 223.673287 56.535554 
L 224.759088 57.749052 
L 225.844889 102.19617 
L 226.93069 106.77069 
L 228.016491 105.939628 
L 229.102292 105.954337 
L 230.188094 104.663616 
L 231.273895 104.413562 
L 232.359696 104.027449 
L 233.445497 102.482997 
L 235.617099 102.144689 
L 236.702901 101.045186 
L 237.788702 101.346722 
L 238.874503 100.409019 
L 239.960304 100.059679 
L 241.046105 98.574063 
L 242.131906 98.846181 
L 244.303509 97.518688 
L 245.38931 97.993055 
L 247.560912 95.948495 
L 248.646713 96.808975 
L 249.732514 95.566059 
L 250.818316 97.139929 
L 251.904117 95.720504 
L 252.989918 95.680054 
L 254.075719 94.668806 
L 255.16152 95.172592 
L 256.247321 94.076766 
L 257.333123 93.786262 
L 258.418924 94.518038 
L 259.504725 93.539885 
L 260.590526 94.183407 
L 261.676327 92.635278 
L 262.762128 91.348235 
L 263.847929 92.160911 
L 264.933731 91.318817 
L 266.019532 92.197683 
L 267.105333 90.263441 
L 268.191134 90.962122 
L 269.276935 91.197467 
L 270.362736 90.473045 
L 272.534339 88.55719 
L 273.62014 89.844233 
L 275.791742 86.953901 
L 277.963344 88.049727 
L 279.049146 88.160045 
L 280.134947 87.218665 
L 281.220748 87.626841 
L 282.306549 86.622947 
L 284.478151 85.560217 
L 285.563953 85.552863 
L 286.649754 84.633546 
L 287.735555 84.497487 
L 289.907157 85.527122 
L 290.992958 84.188597 
L 292.07876 84.056215 
L 293.164561 83.728939 
L 294.250362 82.28745 
L 295.336163 82.872136 
L 296.421964 82.239646 
L 297.507765 82.250678 
L 298.593566 82.004301 
L 299.679368 81.018793 
L 300.765169 81.412261 
L 302.936771 79.588337 
L 304.022572 79.400796 
L 305.108373 78.816111 
L 306.194175 78.573411 
L 307.279976 79.22061 
L 308.365777 78.657988 
L 309.451578 78.385871 
L 310.537379 76.815678 
L 311.62318 76.547238 
L 312.708981 75.697789 
L 313.794783 77.179727 
L 314.880584 75.429349 
L 315.966385 75.421994 
L 317.052186 75.260194 
L 318.137987 74.510032 
L 319.223788 72.33309 
L 320.30959 73.068544 
L 321.395391 72.667722 
L 322.481192 73.520847 
L 323.566993 72.288963 
L 324.652794 71.520414 
L 325.738595 69.733263 
L 326.824396 71.373324 
L 327.910198 69.115482 
L 328.995999 70.163503 
L 330.0818 70.137762 
L 331.167601 68.332224 
L 332.253402 68.442542 
L 333.339203 67.563676 
L 334.425005 67.030472 
L 335.510806 66.717905 
L 336.596607 65.33893 
L 337.682408 66.909122 
L 338.768209 65.026362 
L 339.85401 64.540963 
L 340.939811 65.401443 
L 342.025613 63.566487 
L 343.111414 63.919505 
L 344.197215 62.911934 
L 345.283016 61.3969 
L 346.368817 61.816108 
L 347.454618 61.202005 
L 348.54042 61.952167 
L 349.626221 59.289826 
L 350.712022 60.271657 
L 351.797823 59.047127 
L 352.883624 58.900036 
L 353.969425 58.267546 
L 355.055227 57.282039 
L 356.141028 57.293071 
L 357.226829 56.200923 
L 358.31263 56.95844 
L 359.398431 55.943514 
L 361.570033 54.395385 
L 362.655835 55.336765 
L 363.741636 54.182103 
L 364.827437 53.568 
L 365.913238 53.928372 
L 366.999039 54.130622 
L 368.08484 53.862181 
L 369.170642 56.362722 
L 370.256443 57.182753 
L 372.428045 60.165016 
L 374.599647 60.356234 
L 375.685448 59.918639 
L 376.77125 61.415286 
L 377.857051 61.452059 
L 378.942852 60.514356 
L 381.114454 60.867374 
L 382.200255 61.242455 
L 384.371858 60.64306 
L 385.457659 60.856342 
L 386.54346 60.117211 
L 387.629261 60.771765 
L 388.715062 62.051454 
L 389.800863 62.625107 
L 390.886665 61.933781 
L 391.972466 61.830818 
L 393.058267 63.32011 
L 394.144068 62.154417 
L 395.229869 62.202221 
L 396.31567 61.819786 
L 397.401472 62.393439 
L 398.487273 62.433889 
L 398.487273 62.433889 
" clip-path="url(#pfc1b8abc68)" style="fill: none; stroke: #1f77b4; stroke-width: 1.5; stroke-linecap: square"/>
   </g>
   <g id="line2d_19">
    <path d="M 73.832727 281.617351 
L 74.918528 252.235993 
L 77.090131 222.266272 
L 78.175932 215.095603 
L 79.261733 219.287686 
L 80.347534 199.32013 
L 81.433335 192.590732 
L 82.519137 198.106632 
L 83.604938 184.574292 
L 84.690739 189.207647 
L 85.77654 186.48647 
L 86.862341 180.676389 
L 87.948142 170.269726 
L 89.033943 169.4975 
L 90.119745 166.335051 
L 91.205546 164.496417 
L 92.291347 164.055145 
L 93.377148 160.451424 
L 94.462949 160.855924 
L 95.54875 182.367932 
L 96.634552 178.06553 
L 97.720353 189.906328 
L 98.806154 177.955212 
L 99.891955 175.454671 
L 100.977756 175.344353 
L 102.063557 177.256532 
L 103.149358 172.512858 
L 104.23516 173.910219 
L 105.320961 156.001932 
L 106.406762 163.393237 
L 107.492563 165.526052 
L 108.578364 165.526052 
L 109.664165 164.091918 
L 110.749967 151.074395 
L 112.921569 156.406431 
L 114.00737 156.958021 
L 115.093171 147.985491 
L 116.178972 154.310389 
L 117.264773 151.736303 
L 118.350575 151.662758 
L 119.436376 151.00085 
L 120.522177 145.962995 
L 121.607978 140.189687 
L 122.693779 140.814822 
L 123.77958 139.343915 
L 125.951183 140.851595 
L 127.036984 147.13972 
L 128.122785 139.564551 
L 129.208586 139.086507 
L 130.294387 132.5042 
L 131.380189 131.327475 
L 132.46599 133.349971 
L 133.551791 132.798381 
L 134.637592 135.850512 
L 135.723393 132.320337 
L 136.809194 132.173246 
L 137.894995 130.84943 
L 138.980797 158.428928 
L 140.066598 161.62815 
L 141.152399 157.76702 
L 142.2382 156.149023 
L 143.324001 149.640261 
L 144.409802 161.444286 
L 145.495604 149.824125 
L 146.581405 149.235762 
L 147.667206 154.016208 
L 148.753007 148.426763 
L 149.838808 154.531025 
L 150.924609 164.202236 
L 152.01041 145.705586 
L 153.096212 154.604571 
L 154.182013 159.274699 
L 155.267814 146.03654 
L 156.353615 159.348244 
L 157.439416 142.57991 
L 158.525217 152.949801 
L 159.611019 154.126526 
L 160.69682 163.834509 
L 161.782621 142.506364 
L 162.868422 140.814822 
L 163.954223 140.520641 
L 165.040024 132.871927 
L 166.125825 136.733056 
L 167.211627 131.989383 
L 168.297428 137.100783 
L 169.383229 138.351053 
L 170.46903 129.783023 
L 171.554831 147.029402 
L 172.640632 138.351053 
L 173.726434 133.166108 
L 174.812235 136.034376 
L 175.898036 140.667731 
L 176.983837 127.760526 
L 178.069638 137.174328 
L 179.155439 140.998685 
L 181.327042 135.629876 
L 182.412843 140.189687 
L 183.498644 131.658429 
L 184.584445 138.534917 
L 185.670246 132.651291 
L 186.756047 138.71878 
L 188.92765 125.039349 
L 190.013451 126.105756 
L 191.099252 122.832989 
L 192.185053 125.627712 
L 193.270854 110.955419 
L 194.356656 116.618409 
L 195.442457 113.014688 
L 196.528258 124.450987 
L 197.614059 118.126088 
L 198.69986 122.759444 
L 199.785661 117.537726 
L 200.871462 115.772638 
L 201.957264 116.581637 
L 203.043065 119.339586 
L 204.128866 117.280317 
L 205.214667 114.485595 
L 206.300468 111.139282 
L 207.386269 115.956501 
L 208.472071 110.992192 
L 209.557872 112.389553 
L 210.643673 111.470236 
L 211.729474 113.051461 
L 212.815275 110.072875 
L 213.901076 111.764418 
L 214.986877 108.638741 
L 216.072679 114.706231 
L 217.15848 110.14642 
L 218.244281 110.808328 
L 219.330082 110.918646 
L 220.415883 111.396691 
L 221.501684 110.771556 
L 222.587486 110.771556 
L 223.673287 112.389553 
L 224.759088 112.573416 
L 225.844889 146.404267 
L 226.93069 157.546384 
L 228.016491 156.700613 
L 229.102292 156.479977 
L 230.188094 145.779132 
L 231.273895 156.994794 
L 232.359696 152.545302 
L 233.445497 172.034813 
L 235.617099 133.791243 
L 236.702901 143.83018 
L 237.788702 147.985491 
L 238.874503 146.735221 
L 239.960304 132.283564 
L 241.046105 129.783023 
L 242.131906 140.630959 
L 243.217708 167.548548 
L 244.303509 134.747332 
L 245.38931 136.696284 
L 246.475111 151.993712 
L 247.560912 147.360356 
L 248.646713 137.211101 
L 249.732514 140.37355 
L 250.818316 133.092563 
L 251.904117 132.835154 
L 252.989918 135.629876 
L 254.075719 139.638097 
L 255.16152 137.689145 
L 256.247321 141.256094 
L 257.333123 127.098618 
L 258.418924 138.865871 
L 259.504725 143.68309 
L 260.590526 141.182549 
L 261.676327 142.101865 
L 262.762128 156.590295 
L 263.847929 135.151832 
L 264.933731 138.571689 
L 266.019532 128.974024 
L 267.105333 150.338942 
L 268.191134 137.983327 
L 269.276935 131.437793 
L 270.362736 137.799463 
L 271.448538 147.13972 
L 272.534339 143.499226 
L 273.62014 130.040431 
L 274.705941 137.211101 
L 275.791742 128.64307 
L 276.877543 133.092563 
L 277.963344 136.071148 
L 279.049146 137.689145 
L 280.134947 130.150749 
L 281.220748 137.211101 
L 282.306549 135.519558 
L 283.39235 129.893341 
L 284.478151 128.201798 
L 285.563953 134.011879 
L 286.649754 142.432819 
L 287.735555 138.939416 
L 288.821356 153.574936 
L 289.907157 128.49598 
L 290.992958 130.261067 
L 292.07876 130.077204 
L 293.164561 118.309952 
L 294.250362 130.371385 
L 295.336163 111.837963 
L 296.421964 131.474565 
L 297.507765 121.619491 
L 298.593566 126.326392 
L 299.679368 143.940498 
L 300.765169 128.201798 
L 301.85097 132.871927 
L 302.936771 128.790161 
L 304.022572 122.354945 
L 305.108373 112.021826 
L 306.194175 124.524532 
L 307.279976 126.43671 
L 309.451578 133.349971 
L 311.62318 119.082178 
L 312.708981 114.338504 
L 313.794783 131.070066 
L 314.880584 127.870844 
L 315.966385 124.193578 
L 317.052186 120.038267 
L 318.137987 124.671623 
L 319.223788 137.725918 
L 320.30959 130.922975 
L 321.395391 122.060763 
L 322.481192 110.367056 
L 323.566993 121.8769 
L 324.652794 118.309952 
L 325.738595 127.576663 
L 326.824396 112.132144 
L 327.910198 110.734783 
L 328.995999 129.415296 
L 330.0818 107.903288 
L 331.167601 113.970777 
L 332.253402 110.109648 
L 333.339203 132.430655 
L 334.425005 117.46418 
L 335.510806 122.722671 
L 336.596607 112.75728 
L 337.682408 106.174973 
L 338.768209 107.24138 
L 339.85401 110.403829 
L 340.939811 115.073957 
L 342.025613 108.197469 
L 343.111414 109.116786 
L 344.197215 115.846183 
L 345.283016 105.696928 
L 346.368817 98.048214 
L 347.454618 117.059681 
L 348.54042 105.58661 
L 349.626221 107.167835 
L 350.712022 101.100345 
L 351.797823 118.126088 
L 352.883624 106.174973 
L 353.969425 109.484512 
L 355.055227 106.800108 
L 356.141028 102.68157 
L 357.226829 103.269932 
L 358.31263 107.094289 
L 359.398431 104.299567 
L 360.484232 103.343478 
L 361.570033 106.101427 
L 362.655835 102.82866 
L 363.741636 103.711204 
L 364.827437 97.496624 
L 365.913238 105.292429 
L 366.999039 99.850075 
L 368.08484 109.741921 
L 369.170642 102.497706 
L 370.256443 99.114621 
L 371.342244 111.139282 
L 372.428045 112.35278 
L 373.513846 115.478457 
L 374.599647 116.21391 
L 375.685448 108.160697 
L 376.77125 108.087151 
L 377.857051 113.934005 
L 378.942852 111.470236 
L 380.028653 122.207854 
L 381.114454 112.499871 
L 382.200255 112.720507 
L 383.286057 114.779776 
L 384.371858 113.603051 
L 385.457659 105.218883 
L 386.54346 110.14642 
L 387.629261 111.065737 
L 388.715062 119.192496 
L 389.800863 105.292429 
L 390.886665 109.705148 
L 391.972466 115.625547 
L 393.058267 107.094289 
L 394.144068 112.389553 
L 395.229869 119.707313 
L 396.31567 103.858295 
L 397.401472 108.307787 
L 398.487273 106.910426 
L 398.487273 106.910426 
" clip-path="url(#pfc1b8abc68)" style="fill: none; stroke: #ff7f0e; stroke-width: 1.5; stroke-linecap: square"/>
   </g>
   <g id="line2d_20">
    <path d="M 73.832727 290.309673 
L 74.918528 273.698726 
L 76.00433 267.764353 
L 77.090131 260.79005 
L 78.175932 258.761302 
L 79.261733 258.431451 
L 80.347534 248.946678 
L 81.433335 245.142546 
L 82.519137 252.776183 
L 83.604938 246.258596 
L 85.77654 241.795131 
L 86.862341 244.483212 
L 87.948142 237.204799 
L 89.033943 237.331665 
L 90.119745 237.585396 
L 91.205546 233.42604 
L 92.291347 233.603652 
L 93.377148 233.096557 
L 94.462949 233.705145 
L 95.54875 244.00149 
L 96.634552 243.59552 
L 97.720353 249.12429 
L 99.891955 236.190609 
L 100.977756 239.030929 
L 102.063557 241.288036 
L 103.149358 246.791065 
L 104.23516 239.25892 
L 105.320961 234.896947 
L 106.406762 232.386477 
L 107.492563 236.494719 
L 108.578364 234.491344 
L 109.664165 236.266361 
L 110.749967 231.245053 
L 111.835768 234.262986 
L 112.921569 227.694653 
L 114.00737 226.781587 
L 115.093171 228.70921 
L 116.178972 227.009946 
L 117.264773 227.187558 
L 118.350575 225.970015 
L 119.436376 230.180117 
L 120.522177 227.415548 
L 121.607978 222.115504 
L 122.693779 224.042759 
L 123.77958 220.644598 
L 124.865382 219.807652 
L 127.036984 227.238304 
L 128.122785 221.658788 
L 129.208586 221.303931 
L 130.294387 218.945333 
L 131.380189 221.329305 
L 132.46599 219.148318 
L 133.551791 218.006894 
L 134.637592 220.213254 
L 135.723393 217.398307 
L 136.809194 217.829282 
L 137.894995 217.043451 
L 138.980797 232.71596 
L 140.066598 227.948384 
L 141.152399 233.071184 
L 142.2382 231.270426 
L 143.324001 227.314423 
L 144.409802 234.871573 
L 145.495604 219.858398 
L 146.581405 227.035319 
L 147.667206 232.386477 
L 148.753007 225.513666 
L 149.838808 229.267052 
L 150.924609 242.352972 
L 152.01041 228.125628 
L 153.096212 221.988638 
L 154.182013 228.480852 
L 155.267814 224.220371 
L 156.353615 241.237289 
L 157.439416 221.785653 
L 158.525217 226.680095 
L 159.611019 234.161493 
L 160.69682 231.092814 
L 161.782621 224.778213 
L 163.954223 220.796469 
L 165.040024 210.47475 
L 166.125825 217.195322 
L 167.211627 217.347561 
L 168.297428 215.622923 
L 169.383229 216.535988 
L 170.46903 218.996079 
L 171.554831 223.155067 
L 172.640632 212.833348 
L 173.726434 214.152016 
L 174.812235 221.709534 
L 175.898036 219.122945 
L 176.983837 210.246759 
L 178.069638 223.205814 
L 179.155439 219.807652 
L 180.24124 217.804277 
L 181.327042 224.803586 
L 182.412843 216.231878 
L 183.498644 212.960214 
L 184.584445 214.532613 
L 185.670246 211.235576 
L 186.756047 215.597917 
L 187.841849 218.412865 
L 188.92765 212.427746 
L 190.013451 216.206505 
L 191.099252 208.826599 
L 192.185053 211.666919 
L 193.270854 204.946347 
L 194.356656 206.975095 
L 195.442457 201.091469 
L 196.528258 213.543428 
L 197.614059 207.406439 
L 198.69986 207.837414 
L 199.785661 208.725106 
L 200.871462 203.85567 
L 203.043065 209.866162 
L 204.128866 212.072522 
L 205.214667 201.142215 
L 206.300468 202.689241 
L 207.386269 203.881043 
L 208.472071 204.439252 
L 209.557872 204.312387 
L 210.643673 202.537002 
L 211.729474 202.258266 
L 212.815275 199.443128 
L 213.901076 200.254663 
L 214.986877 196.628117 
L 216.072679 200.001058 
L 217.15848 199.062721 
L 218.244281 200.229302 
L 219.330082 198.682314 
L 220.415883 199.443128 
L 221.501684 199.646012 
L 222.587486 199.646012 
L 223.673287 200.457546 
L 224.759088 200.914035 
L 225.844889 232.208839 
L 226.93069 226.730981 
L 228.016491 223.35804 
L 229.102292 231.067619 
L 230.188094 225.513679 
L 231.273895 228.506213 
L 232.359696 225.818004 
L 233.445497 229.875677 
L 234.531298 218.336669 
L 235.617099 218.285948 
L 236.702901 222.952272 
L 237.788702 214.355077 
L 238.874503 230.103921 
L 239.960304 213.923949 
L 241.046105 217.880181 
L 242.131906 220.669831 
L 243.217708 231.448026 
L 244.303509 209.409788 
L 245.38931 217.930902 
L 246.475111 223.966691 
L 247.560912 223.129796 
L 248.646713 223.611644 
L 249.732514 218.006983 
L 250.818316 214.989089 
L 251.904117 211.514706 
L 252.989918 219.452529 
L 254.075719 218.793157 
L 255.16152 216.586798 
L 256.247321 221.050238 
L 257.333123 213.340659 
L 258.418924 226.223771 
L 259.504725 220.821994 
L 260.590526 217.499774 
L 261.676327 218.108425 
L 262.762128 225.310795 
L 263.847929 215.800623 
L 264.933731 218.996041 
L 266.019532 213.239217 
L 267.105333 227.846841 
L 268.191134 216.104949 
L 269.276935 214.963728 
L 271.448538 225.818004 
L 272.534339 226.249132 
L 273.62014 213.492822 
L 274.705941 217.905541 
L 275.791742 219.173564 
L 276.877543 210.703171 
L 277.963344 219.782215 
L 279.049146 213.315298 
L 280.134947 219.046762 
L 281.220748 211.540066 
L 282.306549 214.862286 
L 283.39235 220.390866 
L 284.478151 210.880695 
L 285.563953 205.377475 
L 286.649754 223.3834 
L 287.735555 221.100959 
L 288.821356 223.687726 
L 289.907157 213.289938 
L 290.992958 209.840916 
L 292.07876 216.434635 
L 293.164561 207.964242 
L 294.250362 213.467461 
L 295.336163 199.519209 
L 296.421964 208.851858 
L 297.507765 201.827011 
L 298.593566 205.504277 
L 299.679368 217.043286 
L 300.765169 214.228275 
L 301.85097 211.793671 
L 302.936771 207.786719 
L 304.022572 206.924463 
L 305.108373 204.844906 
L 306.194175 215.090531 
L 307.279976 214.253635 
L 308.365777 207.812079 
L 309.451578 215.6231 
L 310.537379 206.239731 
L 311.62318 207.228789 
L 312.708981 206.341173 
L 313.794783 209.485869 
L 314.880584 211.083578 
L 315.966385 208.801137 
L 317.052186 204.439138 
L 318.137987 203.855848 
L 319.223788 206.493335 
L 320.30959 212.199438 
L 321.395391 205.65644 
L 322.481192 202.055255 
L 323.566993 204.363057 
L 325.738595 214.025391 
L 326.824396 201.421244 
L 327.910198 198.149745 
L 328.995999 209.004021 
L 330.0818 195.157211 
L 331.167601 206.366533 
L 332.253402 194.244234 
L 333.339203 206.036847 
L 334.425005 201.421244 
L 335.510806 209.916997 
L 336.596607 200.66043 
L 337.682408 200.584349 
L 338.768209 194.396397 
L 339.85401 201.269081 
L 340.939811 204.286976 
L 342.025613 202.613185 
L 343.111414 205.808603 
L 344.197215 199.316326 
L 345.283016 194.650002 
L 346.368817 195.233292 
L 347.454618 204.413778 
L 348.54042 194.57392 
L 349.626221 197.642536 
L 350.712022 197.211408 
L 351.797823 200.939395 
L 352.883624 197.667896 
L 353.969425 197.160687 
L 355.055227 190.034398 
L 356.141028 191.936433 
L 357.226829 194.117432 
L 358.31263 189.096061 
L 359.398431 194.472478 
L 360.484232 187.92948 
L 361.570033 194.345676 
L 362.655835 195.182571 
L 363.741636 190.237282 
L 364.827437 189.704712 
L 365.913238 194.700722 
L 366.999039 190.465526 
L 368.08484 199.772814 
L 369.170642 189.01998 
L 370.256443 187.853399 
L 372.428045 208.725056 
L 373.513846 196.24771 
L 374.599647 202.942871 
L 375.685448 207.609195 
L 376.77125 198.276547 
L 377.857051 208.091044 
L 378.942852 199.493849 
L 380.028653 210.348125 
L 381.114454 202.182058 
L 382.200255 200.812593 
L 383.286057 206.417254 
L 384.371858 197.89614 
L 385.457659 202.283499 
L 386.54346 196.399873 
L 387.629261 198.606233 
L 388.715062 200.12786 
L 389.800863 188.741015 
L 390.886665 191.632107 
L 391.972466 202.993592 
L 393.058267 198.099024 
L 394.144068 200.66043 
L 395.229869 207.583835 
L 396.31567 199.290965 
L 397.401472 199.646012 
L 398.487273 193.838467 
L 398.487273 193.838467 
" clip-path="url(#pfc1b8abc68)" style="fill: none; stroke: #2ca02c; stroke-width: 1.5; stroke-linecap: square"/>
   </g>
   <g id="line2d_21">
    <path d="M 368.08484 109.006468 
L 369.170642 98.195305 
L 370.256443 104.005386 
L 371.342244 98.048214 
L 372.428045 106.763335 
L 373.513846 126.767664 
L 374.599647 116.361001 
L 375.685448 127.061846 
L 376.77125 114.00755 
L 377.857051 105.844019 
L 378.942852 136.218239 
L 380.028653 110.918646 
L 381.114454 157.877338 
L 382.200255 119.596995 
L 383.286057 109.962557 
L 384.371858 131.95261 
L 385.457659 150.927304 
L 386.54346 123.384579 
L 387.629261 138.939416 
L 388.715062 134.526696 
L 389.800863 125.811575 
L 391.972466 143.27859 
L 393.058267 139.086507 
L 394.144068 132.467427 
L 395.229869 141.623821 
L 397.401472 149.015126 
L 398.487273 160.708833 
L 398.487273 160.708833 
" clip-path="url(#pfc1b8abc68)" style="fill: none; stroke: #d62728; stroke-width: 1.5; stroke-linecap: square"/>
   </g>
   <g id="line2d_22">
    <path d="M 368.08484 198.935919 
L 369.170642 192.266119 
L 370.256443 188.791736 
L 371.342244 183.237796 
L 372.428045 196.044827 
L 373.513846 204.109452 
L 374.599647 193.686304 
L 375.685448 197.109966 
L 376.77125 196.399873 
L 377.857051 192.113956 
L 378.942852 210.474927 
L 380.028653 193.737025 
L 381.114454 228.93734 
L 382.200255 204.058731 
L 383.286057 196.298431 
L 385.457659 223.890609 
L 386.54346 203.297918 
L 387.629261 222.80011 
L 388.715062 211.108939 
L 390.886665 206.18901 
L 391.972466 222.977633 
L 393.058267 215.978147 
L 394.144068 206.036847 
L 395.229869 205.681801 
L 396.31567 215.825984 
L 397.401472 216.333193 
L 398.487273 215.293414 
L 398.487273 215.293414 
" clip-path="url(#pfc1b8abc68)" style="fill: none; stroke: #9467bd; stroke-width: 1.5; stroke-linecap: square"/>
   </g>
   <g id="patch_3">
    <path d="M 57.6 307.584 
L 57.6 41.472 
" style="fill: none; stroke: #000000; stroke-width: 0.8; stroke-linejoin: miter; stroke-linecap: square"/>
   </g>
   <g id="patch_4">
    <path d="M 414.72 307.584 
L 414.72 41.472 
" style="fill: none; stroke: #000000; stroke-width: 0.8; stroke-linejoin: miter; stroke-linecap: square"/>
   </g>
   <g id="patch_5">
    <path d="M 57.6 307.584 
L 414.72 307.584 
" style="fill: none; stroke: #000000; stroke-width: 0.8; stroke-linejoin: miter; stroke-linecap: square"/>
   </g>
   <g id="patch_6">
    <path d="M 57.6 41.472 
L 414.72 41.472 
" style="fill: none; stroke: #000000; stroke-width: 0.8; stroke-linejoin: miter; stroke-linecap: square"/>
   </g>
   <g id="text_20">
    <!-- Learning Curves -->
    <g transform="translate(187.37625 35.472) scale(0.12 -0.12)">
     <defs>
      <path id="DejaVuSans-4c" d="M 628 4666 
L 1259 4666 
L 1259 531 
L 3531 531 
L 3531 0 
L 628 0 
L 628 4666 
z
" transform="scale(0.015625)"/>
      <path id="DejaVuSans-65" d="M 3597 1894 
L 3597 1613 
L 953 1613 
Q 991 1019 1311 708 
Q 1631 397 2203 397 
Q 2534 397 2845 478 
Q 3156 559 3463 722 
L 3463 178 
Q 3153 47 2828 -22 
Q 2503 -91 2169 -91 
Q 1331 -91 842 396 
Q 353 884 353 1716 
Q 353 2575 817 3079 
Q 1281 3584 2069 3584 
Q 2775 3584 3186 3129 
Q 3597 2675 3597 1894 
z
M 3022 2063 
Q 3016 2534 2758 2815 
Q 2500 3097 2075 3097 
Q 1594 3097 1305 2825 
Q 1016 2553 972 2059 
L 3022 2063 
z
" transform="scale(0.015625)"/>
      <path id="DejaVuSans-6e" d="M 3513 2113 
L 3513 0 
L 2938 0 
L 2938 2094 
Q 2938 2591 2744 2837 
Q 2550 3084 2163 3084 
Q 1697 3084 1428 2787 
Q 1159 2491 1159 1978 
L 1159 0 
L 581 0 
L 581 3500 
L 1159 3500 
L 1159 2956 
Q 1366 3272 1645 3428 
Q 1925 3584 2291 3584 
Q 2894 3584 3203 3211 
Q 3513 2838 3513 2113 
z
" transform="scale(0.015625)"/>
      <path id="DejaVuSans-69" d="M 603 3500 
L 1178 3500 
L 1178 0 
L 603 0 
L 603 3500 
z
M 603 4863 
L 1178 4863 
L 1178 4134 
L 603 4134 
L 603 4863 
z
" transform="scale(0.015625)"/>
      <path id="DejaVuSans-67" d="M 2906 1791 
Q 2906 2416 2648 2759 
Q 2391 3103 1925 3103 
Q 1463 3103 1205 2759 
Q 947 2416 947 1791 
Q 947 1169 1205 825 
Q 1463 481 1925 481 
Q 2391 481 2648 825 
Q 2906 1169 2906 1791 
z
M 3481 434 
Q 3481 -459 3084 -895 
Q 2688 -1331 1869 -1331 
Q 1566 -1331 1297 -1286 
Q 1028 -1241 775 -1147 
L 775 -588 
Q 1028 -725 1275 -790 
Q 1522 -856 1778 -856 
Q 2344 -856 2625 -561 
Q 2906 -266 2906 331 
L 2906 616 
Q 2728 306 2450 153 
Q 2172 0 1784 0 
Q 1141 0 747 490 
Q 353 981 353 1791 
Q 353 2603 747 3093 
Q 1141 3584 1784 3584 
Q 2172 3584 2450 3431 
Q 2728 3278 2906 2969 
L 2906 3500 
L 3481 3500 
L 3481 434 
z
" transform="scale(0.015625)"/>
      <path id="DejaVuSans-20" transform="scale(0.015625)"/>
      <path id="DejaVuSans-43" d="M 4122 4306 
L 4122 3641 
Q 3803 3938 3442 4084 
Q 3081 4231 2675 4231 
Q 1875 4231 1450 3742 
Q 1025 3253 1025 2328 
Q 1025 1406 1450 917 
Q 1875 428 2675 428 
Q 3081 428 3442 575 
Q 3803 722 4122 1019 
L 4122 359 
Q 3791 134 3420 21 
Q 3050 -91 2638 -91 
Q 1578 -91 968 557 
Q 359 1206 359 2328 
Q 359 3453 968 4101 
Q 1578 4750 2638 4750 
Q 3056 4750 3426 4639 
Q 3797 4528 4122 4306 
z
" transform="scale(0.015625)"/>
      <path id="DejaVuSans-76" d="M 191 3500 
L 800 3500 
L 1894 563 
L 2988 3500 
L 3597 3500 
L 2284 0 
L 1503 0 
L 191 3500 
z
" transform="scale(0.015625)"/>
     </defs>
     <use xlink:href="#DejaVuSans-4c"/>
     <use xlink:href="#DejaVuSans-65" x="53.962891"/>
     <use xlink:href="#DejaVuSans-61" x="115.486328"/>
     <use xlink:href="#DejaVuSans-72" x="176.765625"/>
     <use xlink:href="#DejaVuSans-6e" x="216.128906"/>
     <use xlink:href="#DejaVuSans-69" x="279.507812"/>
     <use xlink:href="#DejaVuSans-6e" x="307.291016"/>
     <use xlink:href="#DejaVuSans-67" x="370.669922"/>
     <use xlink:href="#DejaVuSans-20" x="434.146484"/>
     <use xlink:href="#DejaVuSans-43" x="465.933594"/>
     <use xlink:href="#DejaVuSans-75" x="535.757812"/>
     <use xlink:href="#DejaVuSans-72" x="599.136719"/>
     <use xlink:href="#DejaVuSans-76" x="640.25"/>
     <use xlink:href="#DejaVuSans-65" x="699.429688"/>
     <use xlink:href="#DejaVuSans-73" x="760.953125"/>
    </g>
   </g>
   <g id="legend_1">
    <g id="patch_7">
     <path d="M 214.18875 302.584 
L 407.72 302.584 
Q 409.72 302.584 409.72 300.584 
L 409.72 228.193375 
Q 409.72 226.193375 407.72 226.193375 
L 214.18875 226.193375 
Q 212.18875 226.193375 212.18875 228.193375 
L 212.18875 300.584 
Q 212.18875 302.584 214.18875 302.584 
z
" style="fill: #ffffff; opacity: 0.8; stroke: #cccccc; stroke-linejoin: miter"/>
    </g>
    <g id="line2d_23">
     <path d="M 216.18875 234.291812 
L 226.18875 234.291812 
L 236.18875 234.291812 
" style="fill: none; stroke: #1f77b4; stroke-width: 1.5; stroke-linecap: square"/>
    </g>
    <g id="text_21">
     <!-- Train Accuracy -->
     <g transform="translate(244.18875 237.791812) scale(0.1 -0.1)">
      <defs>
       <path id="DejaVuSans-54" d="M -19 4666 
L 3928 4666 
L 3928 4134 
L 2272 4134 
L 2272 0 
L 1638 0 
L 1638 4134 
L -19 4134 
L -19 4666 
z
" transform="scale(0.015625)"/>
      </defs>
      <use xlink:href="#DejaVuSans-54"/>
      <use xlink:href="#DejaVuSans-72" x="46.333984"/>
      <use xlink:href="#DejaVuSans-61" x="87.447266"/>
      <use xlink:href="#DejaVuSans-69" x="148.726562"/>
      <use xlink:href="#DejaVuSans-6e" x="176.509766"/>
      <use xlink:href="#DejaVuSans-20" x="239.888672"/>
      <use xlink:href="#DejaVuSans-41" x="271.675781"/>
      <use xlink:href="#DejaVuSans-63" x="338.333984"/>
      <use xlink:href="#DejaVuSans-63" x="393.314453"/>
      <use xlink:href="#DejaVuSans-75" x="448.294922"/>
      <use xlink:href="#DejaVuSans-72" x="511.673828"/>
      <use xlink:href="#DejaVuSans-61" x="552.787109"/>
      <use xlink:href="#DejaVuSans-63" x="614.066406"/>
      <use xlink:href="#DejaVuSans-79" x="669.046875"/>
     </g>
    </g>
    <g id="line2d_24">
     <path d="M 216.18875 248.969937 
L 226.18875 248.969937 
L 236.18875 248.969937 
" style="fill: none; stroke: #ff7f0e; stroke-width: 1.5; stroke-linecap: square"/>
    </g>
    <g id="text_22">
     <!-- Validation Accuracy -->
     <g transform="translate(244.18875 252.469937) scale(0.1 -0.1)">
      <defs>
       <path id="DejaVuSans-56" d="M 1831 0 
L 50 4666 
L 709 4666 
L 2188 738 
L 3669 4666 
L 4325 4666 
L 2547 0 
L 1831 0 
z
" transform="scale(0.015625)"/>
       <path id="DejaVuSans-6c" d="M 603 4863 
L 1178 4863 
L 1178 0 
L 603 0 
L 603 4863 
z
" transform="scale(0.015625)"/>
       <path id="DejaVuSans-64" d="M 2906 2969 
L 2906 4863 
L 3481 4863 
L 3481 0 
L 2906 0 
L 2906 525 
Q 2725 213 2448 61 
Q 2172 -91 1784 -91 
Q 1150 -91 751 415 
Q 353 922 353 1747 
Q 353 2572 751 3078 
Q 1150 3584 1784 3584 
Q 2172 3584 2448 3432 
Q 2725 3281 2906 2969 
z
M 947 1747 
Q 947 1113 1208 752 
Q 1469 391 1925 391 
Q 2381 391 2643 752 
Q 2906 1113 2906 1747 
Q 2906 2381 2643 2742 
Q 2381 3103 1925 3103 
Q 1469 3103 1208 2742 
Q 947 2381 947 1747 
z
" transform="scale(0.015625)"/>
       <path id="DejaVuSans-74" d="M 1172 4494 
L 1172 3500 
L 2356 3500 
L 2356 3053 
L 1172 3053 
L 1172 1153 
Q 1172 725 1289 603 
Q 1406 481 1766 481 
L 2356 481 
L 2356 0 
L 1766 0 
Q 1100 0 847 248 
Q 594 497 594 1153 
L 594 3053 
L 172 3053 
L 172 3500 
L 594 3500 
L 594 4494 
L 1172 4494 
z
" transform="scale(0.015625)"/>
      </defs>
      <use xlink:href="#DejaVuSans-56"/>
      <use xlink:href="#DejaVuSans-61" x="60.658203"/>
      <use xlink:href="#DejaVuSans-6c" x="121.9375"/>
      <use xlink:href="#DejaVuSans-69" x="149.720703"/>
      <use xlink:href="#DejaVuSans-64" x="177.503906"/>
      <use xlink:href="#DejaVuSans-61" x="240.980469"/>
      <use xlink:href="#DejaVuSans-74" x="302.259766"/>
      <use xlink:href="#DejaVuSans-69" x="341.46875"/>
      <use xlink:href="#DejaVuSans-6f" x="369.251953"/>
      <use xlink:href="#DejaVuSans-6e" x="430.433594"/>
      <use xlink:href="#DejaVuSans-20" x="493.8125"/>
      <use xlink:href="#DejaVuSans-41" x="525.599609"/>
      <use xlink:href="#DejaVuSans-63" x="592.257812"/>
      <use xlink:href="#DejaVuSans-63" x="647.238281"/>
      <use xlink:href="#DejaVuSans-75" x="702.21875"/>
      <use xlink:href="#DejaVuSans-72" x="765.597656"/>
      <use xlink:href="#DejaVuSans-61" x="806.710938"/>
      <use xlink:href="#DejaVuSans-63" x="867.990234"/>
      <use xlink:href="#DejaVuSans-79" x="922.970703"/>
     </g>
    </g>
    <g id="line2d_25">
     <path d="M 216.18875 263.648062 
L 226.18875 263.648062 
L 236.18875 263.648062 
" style="fill: none; stroke: #2ca02c; stroke-width: 1.5; stroke-linecap: square"/>
    </g>
    <g id="text_23">
     <!-- Robust Validation Accuracy -->
     <g transform="translate(244.18875 267.148062) scale(0.1 -0.1)">
      <defs>
       <path id="DejaVuSans-52" d="M 2841 2188 
Q 3044 2119 3236 1894 
Q 3428 1669 3622 1275 
L 4263 0 
L 3584 0 
L 2988 1197 
Q 2756 1666 2539 1819 
Q 2322 1972 1947 1972 
L 1259 1972 
L 1259 0 
L 628 0 
L 628 4666 
L 2053 4666 
Q 2853 4666 3247 4331 
Q 3641 3997 3641 3322 
Q 3641 2881 3436 2590 
Q 3231 2300 2841 2188 
z
M 1259 4147 
L 1259 2491 
L 2053 2491 
Q 2509 2491 2742 2702 
Q 2975 2913 2975 3322 
Q 2975 3731 2742 3939 
Q 2509 4147 2053 4147 
L 1259 4147 
z
" transform="scale(0.015625)"/>
       <path id="DejaVuSans-62" d="M 3116 1747 
Q 3116 2381 2855 2742 
Q 2594 3103 2138 3103 
Q 1681 3103 1420 2742 
Q 1159 2381 1159 1747 
Q 1159 1113 1420 752 
Q 1681 391 2138 391 
Q 2594 391 2855 752 
Q 3116 1113 3116 1747 
z
M 1159 2969 
Q 1341 3281 1617 3432 
Q 1894 3584 2278 3584 
Q 2916 3584 3314 3078 
Q 3713 2572 3713 1747 
Q 3713 922 3314 415 
Q 2916 -91 2278 -91 
Q 1894 -91 1617 61 
Q 1341 213 1159 525 
L 1159 0 
L 581 0 
L 581 4863 
L 1159 4863 
L 1159 2969 
z
" transform="scale(0.015625)"/>
      </defs>
      <use xlink:href="#DejaVuSans-52"/>
      <use xlink:href="#DejaVuSans-6f" x="64.982422"/>
      <use xlink:href="#DejaVuSans-62" x="126.164062"/>
      <use xlink:href="#DejaVuSans-75" x="189.640625"/>
      <use xlink:href="#DejaVuSans-73" x="253.019531"/>
      <use xlink:href="#DejaVuSans-74" x="305.119141"/>
      <use xlink:href="#DejaVuSans-20" x="344.328125"/>
      <use xlink:href="#DejaVuSans-56" x="376.115234"/>
      <use xlink:href="#DejaVuSans-61" x="436.773438"/>
      <use xlink:href="#DejaVuSans-6c" x="498.052734"/>
      <use xlink:href="#DejaVuSans-69" x="525.835938"/>
      <use xlink:href="#DejaVuSans-64" x="553.619141"/>
      <use xlink:href="#DejaVuSans-61" x="617.095703"/>
      <use xlink:href="#DejaVuSans-74" x="678.375"/>
      <use xlink:href="#DejaVuSans-69" x="717.583984"/>
      <use xlink:href="#DejaVuSans-6f" x="745.367188"/>
      <use xlink:href="#DejaVuSans-6e" x="806.548828"/>
      <use xlink:href="#DejaVuSans-20" x="869.927734"/>
      <use xlink:href="#DejaVuSans-41" x="901.714844"/>
      <use xlink:href="#DejaVuSans-63" x="968.373047"/>
      <use xlink:href="#DejaVuSans-63" x="1023.353516"/>
      <use xlink:href="#DejaVuSans-75" x="1078.333984"/>
      <use xlink:href="#DejaVuSans-72" x="1141.712891"/>
      <use xlink:href="#DejaVuSans-61" x="1182.826172"/>
      <use xlink:href="#DejaVuSans-63" x="1244.105469"/>
      <use xlink:href="#DejaVuSans-79" x="1299.085938"/>
     </g>
    </g>
    <g id="line2d_26">
     <path d="M 216.18875 278.326188 
L 226.18875 278.326188 
L 236.18875 278.326188 
" style="fill: none; stroke: #d62728; stroke-width: 1.5; stroke-linecap: square"/>
    </g>
    <g id="text_24">
     <!-- SWA Validation Accuracy -->
     <g transform="translate(244.18875 281.826188) scale(0.1 -0.1)">
      <defs>
       <path id="DejaVuSans-53" d="M 3425 4513 
L 3425 3897 
Q 3066 4069 2747 4153 
Q 2428 4238 2131 4238 
Q 1616 4238 1336 4038 
Q 1056 3838 1056 3469 
Q 1056 3159 1242 3001 
Q 1428 2844 1947 2747 
L 2328 2669 
Q 3034 2534 3370 2195 
Q 3706 1856 3706 1288 
Q 3706 609 3251 259 
Q 2797 -91 1919 -91 
Q 1588 -91 1214 -16 
Q 841 59 441 206 
L 441 856 
Q 825 641 1194 531 
Q 1563 422 1919 422 
Q 2459 422 2753 634 
Q 3047 847 3047 1241 
Q 3047 1584 2836 1778 
Q 2625 1972 2144 2069 
L 1759 2144 
Q 1053 2284 737 2584 
Q 422 2884 422 3419 
Q 422 4038 858 4394 
Q 1294 4750 2059 4750 
Q 2388 4750 2728 4690 
Q 3069 4631 3425 4513 
z
" transform="scale(0.015625)"/>
       <path id="DejaVuSans-57" d="M 213 4666 
L 850 4666 
L 1831 722 
L 2809 4666 
L 3519 4666 
L 4500 722 
L 5478 4666 
L 6119 4666 
L 4947 0 
L 4153 0 
L 3169 4050 
L 2175 0 
L 1381 0 
L 213 4666 
z
" transform="scale(0.015625)"/>
      </defs>
      <use xlink:href="#DejaVuSans-53"/>
      <use xlink:href="#DejaVuSans-57" x="63.476562"/>
      <use xlink:href="#DejaVuSans-41" x="156.853516"/>
      <use xlink:href="#DejaVuSans-20" x="225.261719"/>
      <use xlink:href="#DejaVuSans-56" x="257.048828"/>
      <use xlink:href="#DejaVuSans-61" x="317.707031"/>
      <use xlink:href="#DejaVuSans-6c" x="378.986328"/>
      <use xlink:href="#DejaVuSans-69" x="406.769531"/>
      <use xlink:href="#DejaVuSans-64" x="434.552734"/>
      <use xlink:href="#DejaVuSans-61" x="498.029297"/>
      <use xlink:href="#DejaVuSans-74" x="559.308594"/>
      <use xlink:href="#DejaVuSans-69" x="598.517578"/>
      <use xlink:href="#DejaVuSans-6f" x="626.300781"/>
      <use xlink:href="#DejaVuSans-6e" x="687.482422"/>
      <use xlink:href="#DejaVuSans-20" x="750.861328"/>
      <use xlink:href="#DejaVuSans-41" x="782.648438"/>
      <use xlink:href="#DejaVuSans-63" x="849.306641"/>
      <use xlink:href="#DejaVuSans-63" x="904.287109"/>
      <use xlink:href="#DejaVuSans-75" x="959.267578"/>
      <use xlink:href="#DejaVuSans-72" x="1022.646484"/>
      <use xlink:href="#DejaVuSans-61" x="1063.759766"/>
      <use xlink:href="#DejaVuSans-63" x="1125.039062"/>
      <use xlink:href="#DejaVuSans-79" x="1180.019531"/>
     </g>
    </g>
    <g id="line2d_27">
     <path d="M 216.18875 293.004312 
L 226.18875 293.004312 
L 236.18875 293.004312 
" style="fill: none; stroke: #9467bd; stroke-width: 1.5; stroke-linecap: square"/>
    </g>
    <g id="text_25">
     <!-- SWA Robust Validation Accuracy -->
     <g transform="translate(244.18875 296.504312) scale(0.1 -0.1)">
      <use xlink:href="#DejaVuSans-53"/>
      <use xlink:href="#DejaVuSans-57" x="63.476562"/>
      <use xlink:href="#DejaVuSans-41" x="156.853516"/>
      <use xlink:href="#DejaVuSans-20" x="225.261719"/>
      <use xlink:href="#DejaVuSans-52" x="257.048828"/>
      <use xlink:href="#DejaVuSans-6f" x="322.03125"/>
      <use xlink:href="#DejaVuSans-62" x="383.212891"/>
      <use xlink:href="#DejaVuSans-75" x="446.689453"/>
      <use xlink:href="#DejaVuSans-73" x="510.068359"/>
      <use xlink:href="#DejaVuSans-74" x="562.167969"/>
      <use xlink:href="#DejaVuSans-20" x="601.376953"/>
      <use xlink:href="#DejaVuSans-56" x="633.164062"/>
      <use xlink:href="#DejaVuSans-61" x="693.822266"/>
      <use xlink:href="#DejaVuSans-6c" x="755.101562"/>
      <use xlink:href="#DejaVuSans-69" x="782.884766"/>
      <use xlink:href="#DejaVuSans-64" x="810.667969"/>
      <use xlink:href="#DejaVuSans-61" x="874.144531"/>
      <use xlink:href="#DejaVuSans-74" x="935.423828"/>
      <use xlink:href="#DejaVuSans-69" x="974.632812"/>
      <use xlink:href="#DejaVuSans-6f" x="1002.416016"/>
      <use xlink:href="#DejaVuSans-6e" x="1063.597656"/>
      <use xlink:href="#DejaVuSans-20" x="1126.976562"/>
      <use xlink:href="#DejaVuSans-41" x="1158.763672"/>
      <use xlink:href="#DejaVuSans-63" x="1225.421875"/>
      <use xlink:href="#DejaVuSans-63" x="1280.402344"/>
      <use xlink:href="#DejaVuSans-75" x="1335.382812"/>
      <use xlink:href="#DejaVuSans-72" x="1398.761719"/>
      <use xlink:href="#DejaVuSans-61" x="1439.875"/>
      <use xlink:href="#DejaVuSans-63" x="1501.154297"/>
      <use xlink:href="#DejaVuSans-79" x="1556.134766"/>
     </g>
    </g>
   </g>
  </g>
 </g>
 <defs>
  <clipPath id="pfc1b8abc68">
   <rect x="57.6" y="41.472" width="357.12" height="266.112"/>
  </clipPath>
 </defs>
</svg>
