<?xml version="1.0" encoding="utf-8" standalone="no"?>
<!DOCTYPE svg PUBLIC "-//W3C//DTD SVG 1.1//EN"
  "http://www.w3.org/Graphics/SVG/1.1/DTD/svg11.dtd">
<svg xmlns:xlink="http://www.w3.org/1999/xlink" width="460.8pt" height="345.6pt" viewBox="0 0 460.8 345.6" xmlns="http://www.w3.org/2000/svg" version="1.1">
 <metadata>
  <rdf:RDF xmlns:dc="http://purl.org/dc/elements/1.1/" xmlns:cc="http://creativecommons.org/ns#" xmlns:rdf="http://www.w3.org/1999/02/22-rdf-syntax-ns#">
   <cc:Work>
    <dc:type rdf:resource="http://purl.org/dc/dcmitype/StillImage"/>
    <dc:date>2025-03-08T07:35:18.349487</dc:date>
    <dc:format>image/svg+xml</dc:format>
    <dc:creator>
     <cc:Agent>
      <dc:title>Matplotlib v3.9.1, https://matplotlib.org/</dc:title>
     </cc:Agent>
    </dc:creator>
   </cc:Work>
  </rdf:RDF>
 </metadata>
 <defs>
  <style type="text/css">*{stroke-linejoin: round; stroke-linecap: butt}</style>
 </defs>
 <g id="figure_1">
  <g id="patch_1">
   <path d="M 0 345.6 
L 460.8 345.6 
L 460.8 0 
L 0 0 
z
" style="fill: #ffffff"/>
  </g>
  <g id="axes_1">
   <g id="patch_2">
    <path d="M 57.6 307.584 
L 414.72 307.584 
L 414.72 41.472 
L 57.6 41.472 
z
" style="fill: #ffffff"/>
   </g>
   <g id="matplotlib.axis_1">
    <g id="xtick_1">
     <g id="line2d_1">
      <defs>
       <path id="m7c2b54665d" d="M 0 0 
L 0 3.5 
" style="stroke: #000000; stroke-width: 0.8"/>
      </defs>
      <g>
       <use xlink:href="#m7c2b54665d" x="73.832727" y="307.584" style="stroke: #000000; stroke-width: 0.8"/>
      </g>
     </g>
     <g id="text_1">
      <!-- 1 -->
      <g transform="translate(70.651477 322.182437) scale(0.1 -0.1)">
       <defs>
        <path id="DejaVuSans-31" d="M 794 531 
L 1825 531 
L 1825 4091 
L 703 3866 
L 703 4441 
L 1819 4666 
L 2450 4666 
L 2450 531 
L 3481 531 
L 3481 0 
L 794 0 
L 794 531 
z
" transform="scale(0.015625)"/>
       </defs>
       <use xlink:href="#DejaVuSans-31"/>
      </g>
     </g>
    </g>
    <g id="xtick_2">
     <g id="line2d_2">
      <g>
       <use xlink:href="#m7c2b54665d" x="109.664165" y="307.584" style="stroke: #000000; stroke-width: 0.8"/>
      </g>
     </g>
     <g id="text_2">
      <!-- 34 -->
      <g transform="translate(103.301665 322.182437) scale(0.1 -0.1)">
       <defs>
        <path id="DejaVuSans-33" d="M 2597 2516 
Q 3050 2419 3304 2112 
Q 3559 1806 3559 1356 
Q 3559 666 3084 287 
Q 2609 -91 1734 -91 
Q 1441 -91 1130 -33 
Q 819 25 488 141 
L 488 750 
Q 750 597 1062 519 
Q 1375 441 1716 441 
Q 2309 441 2620 675 
Q 2931 909 2931 1356 
Q 2931 1769 2642 2001 
Q 2353 2234 1838 2234 
L 1294 2234 
L 1294 2753 
L 1863 2753 
Q 2328 2753 2575 2939 
Q 2822 3125 2822 3475 
Q 2822 3834 2567 4026 
Q 2313 4219 1838 4219 
Q 1578 4219 1281 4162 
Q 984 4106 628 3988 
L 628 4550 
Q 988 4650 1302 4700 
Q 1616 4750 1894 4750 
Q 2613 4750 3031 4423 
Q 3450 4097 3450 3541 
Q 3450 3153 3228 2886 
Q 3006 2619 2597 2516 
z
" transform="scale(0.015625)"/>
        <path id="DejaVuSans-34" d="M 2419 4116 
L 825 1625 
L 2419 1625 
L 2419 4116 
z
M 2253 4666 
L 3047 4666 
L 3047 1625 
L 3713 1625 
L 3713 1100 
L 3047 1100 
L 3047 0 
L 2419 0 
L 2419 1100 
L 313 1100 
L 313 1709 
L 2253 4666 
z
" transform="scale(0.015625)"/>
       </defs>
       <use xlink:href="#DejaVuSans-33"/>
       <use xlink:href="#DejaVuSans-34" x="63.623047"/>
      </g>
     </g>
    </g>
    <g id="xtick_3">
     <g id="line2d_3">
      <g>
       <use xlink:href="#m7c2b54665d" x="145.495604" y="307.584" style="stroke: #000000; stroke-width: 0.8"/>
      </g>
     </g>
     <g id="text_3">
      <!-- 67 -->
      <g transform="translate(139.133104 322.182437) scale(0.1 -0.1)">
       <defs>
        <path id="DejaVuSans-36" d="M 2113 2584 
Q 1688 2584 1439 2293 
Q 1191 2003 1191 1497 
Q 1191 994 1439 701 
Q 1688 409 2113 409 
Q 2538 409 2786 701 
Q 3034 994 3034 1497 
Q 3034 2003 2786 2293 
Q 2538 2584 2113 2584 
z
M 3366 4563 
L 3366 3988 
Q 3128 4100 2886 4159 
Q 2644 4219 2406 4219 
Q 1781 4219 1451 3797 
Q 1122 3375 1075 2522 
Q 1259 2794 1537 2939 
Q 1816 3084 2150 3084 
Q 2853 3084 3261 2657 
Q 3669 2231 3669 1497 
Q 3669 778 3244 343 
Q 2819 -91 2113 -91 
Q 1303 -91 875 529 
Q 447 1150 447 2328 
Q 447 3434 972 4092 
Q 1497 4750 2381 4750 
Q 2619 4750 2861 4703 
Q 3103 4656 3366 4563 
z
" transform="scale(0.015625)"/>
        <path id="DejaVuSans-37" d="M 525 4666 
L 3525 4666 
L 3525 4397 
L 1831 0 
L 1172 0 
L 2766 4134 
L 525 4134 
L 525 4666 
z
" transform="scale(0.015625)"/>
       </defs>
       <use xlink:href="#DejaVuSans-36"/>
       <use xlink:href="#DejaVuSans-37" x="63.623047"/>
      </g>
     </g>
    </g>
    <g id="xtick_4">
     <g id="line2d_4">
      <g>
       <use xlink:href="#m7c2b54665d" x="181.327042" y="307.584" style="stroke: #000000; stroke-width: 0.8"/>
      </g>
     </g>
     <g id="text_4">
      <!-- 100 -->
      <g transform="translate(171.783292 322.182437) scale(0.1 -0.1)">
       <defs>
        <path id="DejaVuSans-30" d="M 2034 4250 
Q 1547 4250 1301 3770 
Q 1056 3291 1056 2328 
Q 1056 1369 1301 889 
Q 1547 409 2034 409 
Q 2525 409 2770 889 
Q 3016 1369 3016 2328 
Q 3016 3291 2770 3770 
Q 2525 4250 2034 4250 
z
M 2034 4750 
Q 2819 4750 3233 4129 
Q 3647 3509 3647 2328 
Q 3647 1150 3233 529 
Q 2819 -91 2034 -91 
Q 1250 -91 836 529 
Q 422 1150 422 2328 
Q 422 3509 836 4129 
Q 1250 4750 2034 4750 
z
" transform="scale(0.015625)"/>
       </defs>
       <use xlink:href="#DejaVuSans-31"/>
       <use xlink:href="#DejaVuSans-30" x="63.623047"/>
       <use xlink:href="#DejaVuSans-30" x="127.246094"/>
      </g>
     </g>
    </g>
    <g id="xtick_5">
     <g id="line2d_5">
      <g>
       <use xlink:href="#m7c2b54665d" x="217.15848" y="307.584" style="stroke: #000000; stroke-width: 0.8"/>
      </g>
     </g>
     <g id="text_5">
      <!-- 133 -->
      <g transform="translate(207.61473 322.182437) scale(0.1 -0.1)">
       <use xlink:href="#DejaVuSans-31"/>
       <use xlink:href="#DejaVuSans-33" x="63.623047"/>
       <use xlink:href="#DejaVuSans-33" x="127.246094"/>
      </g>
     </g>
    </g>
    <g id="xtick_6">
     <g id="line2d_6">
      <g>
       <use xlink:href="#m7c2b54665d" x="254.075719" y="307.584" style="stroke: #000000; stroke-width: 0.8"/>
      </g>
     </g>
     <g id="text_6">
      <!-- 167 -->
      <g transform="translate(244.531969 322.182437) scale(0.1 -0.1)">
       <use xlink:href="#DejaVuSans-31"/>
       <use xlink:href="#DejaVuSans-36" x="63.623047"/>
       <use xlink:href="#DejaVuSans-37" x="127.246094"/>
      </g>
     </g>
    </g>
    <g id="xtick_7">
     <g id="line2d_7">
      <g>
       <use xlink:href="#m7c2b54665d" x="289.907157" y="307.584" style="stroke: #000000; stroke-width: 0.8"/>
      </g>
     </g>
     <g id="text_7">
      <!-- 200 -->
      <g transform="translate(280.363407 322.182437) scale(0.1 -0.1)">
       <defs>
        <path id="DejaVuSans-32" d="M 1228 531 
L 3431 531 
L 3431 0 
L 469 0 
L 469 531 
Q 828 903 1448 1529 
Q 2069 2156 2228 2338 
Q 2531 2678 2651 2914 
Q 2772 3150 2772 3378 
Q 2772 3750 2511 3984 
Q 2250 4219 1831 4219 
Q 1534 4219 1204 4116 
Q 875 4013 500 3803 
L 500 4441 
Q 881 4594 1212 4672 
Q 1544 4750 1819 4750 
Q 2544 4750 2975 4387 
Q 3406 4025 3406 3419 
Q 3406 3131 3298 2873 
Q 3191 2616 2906 2266 
Q 2828 2175 2409 1742 
Q 1991 1309 1228 531 
z
" transform="scale(0.015625)"/>
       </defs>
       <use xlink:href="#DejaVuSans-32"/>
       <use xlink:href="#DejaVuSans-30" x="63.623047"/>
       <use xlink:href="#DejaVuSans-30" x="127.246094"/>
      </g>
     </g>
    </g>
    <g id="xtick_8">
     <g id="line2d_8">
      <g>
       <use xlink:href="#m7c2b54665d" x="325.738595" y="307.584" style="stroke: #000000; stroke-width: 0.8"/>
      </g>
     </g>
     <g id="text_8">
      <!-- 233 -->
      <g transform="translate(316.194845 322.182437) scale(0.1 -0.1)">
       <use xlink:href="#DejaVuSans-32"/>
       <use xlink:href="#DejaVuSans-33" x="63.623047"/>
       <use xlink:href="#DejaVuSans-33" x="127.246094"/>
      </g>
     </g>
    </g>
    <g id="xtick_9">
     <g id="line2d_9">
      <g>
       <use xlink:href="#m7c2b54665d" x="361.570033" y="307.584" style="stroke: #000000; stroke-width: 0.8"/>
      </g>
     </g>
     <g id="text_9">
      <!-- 266 -->
      <g transform="translate(352.026283 322.182437) scale(0.1 -0.1)">
       <use xlink:href="#DejaVuSans-32"/>
       <use xlink:href="#DejaVuSans-36" x="63.623047"/>
       <use xlink:href="#DejaVuSans-36" x="127.246094"/>
      </g>
     </g>
    </g>
    <g id="xtick_10">
     <g id="line2d_10">
      <g>
       <use xlink:href="#m7c2b54665d" x="398.487273" y="307.584" style="stroke: #000000; stroke-width: 0.8"/>
      </g>
     </g>
     <g id="text_10">
      <!-- 300 -->
      <g transform="translate(388.943523 322.182437) scale(0.1 -0.1)">
       <use xlink:href="#DejaVuSans-33"/>
       <use xlink:href="#DejaVuSans-30" x="63.623047"/>
       <use xlink:href="#DejaVuSans-30" x="127.246094"/>
      </g>
     </g>
    </g>
    <g id="text_11">
     <!-- Epochs -->
     <g transform="translate(218.244375 335.860562) scale(0.1 -0.1)">
      <defs>
       <path id="DejaVuSans-45" d="M 628 4666 
L 3578 4666 
L 3578 4134 
L 1259 4134 
L 1259 2753 
L 3481 2753 
L 3481 2222 
L 1259 2222 
L 1259 531 
L 3634 531 
L 3634 0 
L 628 0 
L 628 4666 
z
" transform="scale(0.015625)"/>
       <path id="DejaVuSans-70" d="M 1159 525 
L 1159 -1331 
L 581 -1331 
L 581 3500 
L 1159 3500 
L 1159 2969 
Q 1341 3281 1617 3432 
Q 1894 3584 2278 3584 
Q 2916 3584 3314 3078 
Q 3713 2572 3713 1747 
Q 3713 922 3314 415 
Q 2916 -91 2278 -91 
Q 1894 -91 1617 61 
Q 1341 213 1159 525 
z
M 3116 1747 
Q 3116 2381 2855 2742 
Q 2594 3103 2138 3103 
Q 1681 3103 1420 2742 
Q 1159 2381 1159 1747 
Q 1159 1113 1420 752 
Q 1681 391 2138 391 
Q 2594 391 2855 752 
Q 3116 1113 3116 1747 
z
" transform="scale(0.015625)"/>
       <path id="DejaVuSans-6f" d="M 1959 3097 
Q 1497 3097 1228 2736 
Q 959 2375 959 1747 
Q 959 1119 1226 758 
Q 1494 397 1959 397 
Q 2419 397 2687 759 
Q 2956 1122 2956 1747 
Q 2956 2369 2687 2733 
Q 2419 3097 1959 3097 
z
M 1959 3584 
Q 2709 3584 3137 3096 
Q 3566 2609 3566 1747 
Q 3566 888 3137 398 
Q 2709 -91 1959 -91 
Q 1206 -91 779 398 
Q 353 888 353 1747 
Q 353 2609 779 3096 
Q 1206 3584 1959 3584 
z
" transform="scale(0.015625)"/>
       <path id="DejaVuSans-63" d="M 3122 3366 
L 3122 2828 
Q 2878 2963 2633 3030 
Q 2388 3097 2138 3097 
Q 1578 3097 1268 2742 
Q 959 2388 959 1747 
Q 959 1106 1268 751 
Q 1578 397 2138 397 
Q 2388 397 2633 464 
Q 2878 531 3122 666 
L 3122 134 
Q 2881 22 2623 -34 
Q 2366 -91 2075 -91 
Q 1284 -91 818 406 
Q 353 903 353 1747 
Q 353 2603 823 3093 
Q 1294 3584 2113 3584 
Q 2378 3584 2631 3529 
Q 2884 3475 3122 3366 
z
" transform="scale(0.015625)"/>
       <path id="DejaVuSans-68" d="M 3513 2113 
L 3513 0 
L 2938 0 
L 2938 2094 
Q 2938 2591 2744 2837 
Q 2550 3084 2163 3084 
Q 1697 3084 1428 2787 
Q 1159 2491 1159 1978 
L 1159 0 
L 581 0 
L 581 4863 
L 1159 4863 
L 1159 2956 
Q 1366 3272 1645 3428 
Q 1925 3584 2291 3584 
Q 2894 3584 3203 3211 
Q 3513 2838 3513 2113 
z
" transform="scale(0.015625)"/>
       <path id="DejaVuSans-73" d="M 2834 3397 
L 2834 2853 
Q 2591 2978 2328 3040 
Q 2066 3103 1784 3103 
Q 1356 3103 1142 2972 
Q 928 2841 928 2578 
Q 928 2378 1081 2264 
Q 1234 2150 1697 2047 
L 1894 2003 
Q 2506 1872 2764 1633 
Q 3022 1394 3022 966 
Q 3022 478 2636 193 
Q 2250 -91 1575 -91 
Q 1294 -91 989 -36 
Q 684 19 347 128 
L 347 722 
Q 666 556 975 473 
Q 1284 391 1588 391 
Q 1994 391 2212 530 
Q 2431 669 2431 922 
Q 2431 1156 2273 1281 
Q 2116 1406 1581 1522 
L 1381 1569 
Q 847 1681 609 1914 
Q 372 2147 372 2553 
Q 372 3047 722 3315 
Q 1072 3584 1716 3584 
Q 2034 3584 2315 3537 
Q 2597 3491 2834 3397 
z
" transform="scale(0.015625)"/>
      </defs>
      <use xlink:href="#DejaVuSans-45"/>
      <use xlink:href="#DejaVuSans-70" x="63.183594"/>
      <use xlink:href="#DejaVuSans-6f" x="126.660156"/>
      <use xlink:href="#DejaVuSans-63" x="187.841797"/>
      <use xlink:href="#DejaVuSans-68" x="242.822266"/>
      <use xlink:href="#DejaVuSans-73" x="306.201172"/>
     </g>
    </g>
   </g>
   <g id="matplotlib.axis_2">
    <g id="ytick_1">
     <g id="line2d_11">
      <defs>
       <path id="m77ca73dbf1" d="M 0 0 
L -3.5 0 
" style="stroke: #000000; stroke-width: 0.8"/>
      </defs>
      <g>
       <use xlink:href="#m77ca73dbf1" x="57.6" y="272.099151" style="stroke: #000000; stroke-width: 0.8"/>
      </g>
     </g>
     <g id="text_12">
      <!-- 10 -->
      <g transform="translate(37.875 275.89837) scale(0.1 -0.1)">
       <use xlink:href="#DejaVuSans-31"/>
       <use xlink:href="#DejaVuSans-30" x="63.623047"/>
      </g>
     </g>
    </g>
    <g id="ytick_2">
     <g id="line2d_12">
      <g>
       <use xlink:href="#m77ca73dbf1" x="57.6" y="233.111238" style="stroke: #000000; stroke-width: 0.8"/>
      </g>
     </g>
     <g id="text_13">
      <!-- 20 -->
      <g transform="translate(37.875 236.910457) scale(0.1 -0.1)">
       <use xlink:href="#DejaVuSans-32"/>
       <use xlink:href="#DejaVuSans-30" x="63.623047"/>
      </g>
     </g>
    </g>
    <g id="ytick_3">
     <g id="line2d_13">
      <g>
       <use xlink:href="#m77ca73dbf1" x="57.6" y="194.123325" style="stroke: #000000; stroke-width: 0.8"/>
      </g>
     </g>
     <g id="text_14">
      <!-- 30 -->
      <g transform="translate(37.875 197.922544) scale(0.1 -0.1)">
       <use xlink:href="#DejaVuSans-33"/>
       <use xlink:href="#DejaVuSans-30" x="63.623047"/>
      </g>
     </g>
    </g>
    <g id="ytick_4">
     <g id="line2d_14">
      <g>
       <use xlink:href="#m77ca73dbf1" x="57.6" y="155.135412" style="stroke: #000000; stroke-width: 0.8"/>
      </g>
     </g>
     <g id="text_15">
      <!-- 40 -->
      <g transform="translate(37.875 158.934631) scale(0.1 -0.1)">
       <use xlink:href="#DejaVuSans-34"/>
       <use xlink:href="#DejaVuSans-30" x="63.623047"/>
      </g>
     </g>
    </g>
    <g id="ytick_5">
     <g id="line2d_15">
      <g>
       <use xlink:href="#m77ca73dbf1" x="57.6" y="116.147499" style="stroke: #000000; stroke-width: 0.8"/>
      </g>
     </g>
     <g id="text_16">
      <!-- 50 -->
      <g transform="translate(37.875 119.946718) scale(0.1 -0.1)">
       <defs>
        <path id="DejaVuSans-35" d="M 691 4666 
L 3169 4666 
L 3169 4134 
L 1269 4134 
L 1269 2991 
Q 1406 3038 1543 3061 
Q 1681 3084 1819 3084 
Q 2600 3084 3056 2656 
Q 3513 2228 3513 1497 
Q 3513 744 3044 326 
Q 2575 -91 1722 -91 
Q 1428 -91 1123 -41 
Q 819 9 494 109 
L 494 744 
Q 775 591 1075 516 
Q 1375 441 1709 441 
Q 2250 441 2565 725 
Q 2881 1009 2881 1497 
Q 2881 1984 2565 2268 
Q 2250 2553 1709 2553 
Q 1456 2553 1204 2497 
Q 953 2441 691 2322 
L 691 4666 
z
" transform="scale(0.015625)"/>
       </defs>
       <use xlink:href="#DejaVuSans-35"/>
       <use xlink:href="#DejaVuSans-30" x="63.623047"/>
      </g>
     </g>
    </g>
    <g id="ytick_6">
     <g id="line2d_16">
      <g>
       <use xlink:href="#m77ca73dbf1" x="57.6" y="77.159586" style="stroke: #000000; stroke-width: 0.8"/>
      </g>
     </g>
     <g id="text_17">
      <!-- 60 -->
      <g transform="translate(37.875 80.958805) scale(0.1 -0.1)">
       <use xlink:href="#DejaVuSans-36"/>
       <use xlink:href="#DejaVuSans-30" x="63.623047"/>
      </g>
     </g>
    </g>
    <g id="text_18">
     <!-- Accuracy -->
     <g transform="translate(31.795312 197.356125) rotate(-90) scale(0.1 -0.1)">
      <defs>
       <path id="DejaVuSans-41" d="M 2188 4044 
L 1331 1722 
L 3047 1722 
L 2188 4044 
z
M 1831 4666 
L 2547 4666 
L 4325 0 
L 3669 0 
L 3244 1197 
L 1141 1197 
L 716 0 
L 50 0 
L 1831 4666 
z
" transform="scale(0.015625)"/>
       <path id="DejaVuSans-75" d="M 544 1381 
L 544 3500 
L 1119 3500 
L 1119 1403 
Q 1119 906 1312 657 
Q 1506 409 1894 409 
Q 2359 409 2629 706 
Q 2900 1003 2900 1516 
L 2900 3500 
L 3475 3500 
L 3475 0 
L 2900 0 
L 2900 538 
Q 2691 219 2414 64 
Q 2138 -91 1772 -91 
Q 1169 -91 856 284 
Q 544 659 544 1381 
z
M 1991 3584 
L 1991 3584 
z
" transform="scale(0.015625)"/>
       <path id="DejaVuSans-72" d="M 2631 2963 
Q 2534 3019 2420 3045 
Q 2306 3072 2169 3072 
Q 1681 3072 1420 2755 
Q 1159 2438 1159 1844 
L 1159 0 
L 581 0 
L 581 3500 
L 1159 3500 
L 1159 2956 
Q 1341 3275 1631 3429 
Q 1922 3584 2338 3584 
Q 2397 3584 2469 3576 
Q 2541 3569 2628 3553 
L 2631 2963 
z
" transform="scale(0.015625)"/>
       <path id="DejaVuSans-61" d="M 2194 1759 
Q 1497 1759 1228 1600 
Q 959 1441 959 1056 
Q 959 750 1161 570 
Q 1363 391 1709 391 
Q 2188 391 2477 730 
Q 2766 1069 2766 1631 
L 2766 1759 
L 2194 1759 
z
M 3341 1997 
L 3341 0 
L 2766 0 
L 2766 531 
Q 2569 213 2275 61 
Q 1981 -91 1556 -91 
Q 1019 -91 701 211 
Q 384 513 384 1019 
Q 384 1609 779 1909 
Q 1175 2209 1959 2209 
L 2766 2209 
L 2766 2266 
Q 2766 2663 2505 2880 
Q 2244 3097 1772 3097 
Q 1472 3097 1187 3025 
Q 903 2953 641 2809 
L 641 3341 
Q 956 3463 1253 3523 
Q 1550 3584 1831 3584 
Q 2591 3584 2966 3190 
Q 3341 2797 3341 1997 
z
" transform="scale(0.015625)"/>
       <path id="DejaVuSans-79" d="M 2059 -325 
Q 1816 -950 1584 -1140 
Q 1353 -1331 966 -1331 
L 506 -1331 
L 506 -850 
L 844 -850 
Q 1081 -850 1212 -737 
Q 1344 -625 1503 -206 
L 1606 56 
L 191 3500 
L 800 3500 
L 1894 763 
L 2988 3500 
L 3597 3500 
L 2059 -325 
z
" transform="scale(0.015625)"/>
      </defs>
      <use xlink:href="#DejaVuSans-41"/>
      <use xlink:href="#DejaVuSans-63" x="66.658203"/>
      <use xlink:href="#DejaVuSans-63" x="121.638672"/>
      <use xlink:href="#DejaVuSans-75" x="176.619141"/>
      <use xlink:href="#DejaVuSans-72" x="239.998047"/>
      <use xlink:href="#DejaVuSans-61" x="281.111328"/>
      <use xlink:href="#DejaVuSans-63" x="342.390625"/>
      <use xlink:href="#DejaVuSans-79" x="397.371094"/>
     </g>
    </g>
   </g>
   <g id="line2d_17">
    <path d="M 73.832727 295.488 
L 74.918528 270.648801 
L 76.00433 249.532947 
L 78.175932 219.16916 
L 79.261733 207.659928 
L 80.347534 197.4295 
L 81.433335 188.396001 
L 83.604938 172.800835 
L 84.690739 168.122286 
L 86.862341 155.52919 
L 90.119745 142.164133 
L 91.205546 140.140661 
L 92.291347 136.698028 
L 93.377148 135.512795 
L 94.462949 133.922089 
L 95.54875 168.504367 
L 96.634552 165.911671 
L 97.720353 161.697078 
L 98.806154 158.145279 
L 99.891955 156.589661 
L 102.063557 149.548444 
L 103.149358 145.415725 
L 104.23516 142.838624 
L 105.320961 141.201132 
L 106.406762 138.573347 
L 107.492563 135.204791 
L 109.664165 130.88493 
L 110.749967 126.830187 
L 111.835768 126.966645 
L 112.921569 124.249187 
L 114.00737 121.149648 
L 115.093171 118.841564 
L 117.264773 113.921289 
L 118.350575 112.36957 
L 120.522177 107.012631 
L 122.693779 103.230804 
L 123.77958 100.72778 
L 125.951183 97.257855 
L 127.036984 96.446907 
L 128.122785 92.774245 
L 129.208586 93.343469 
L 130.294387 90.680594 
L 131.380189 89.56554 
L 132.46599 89.097685 
L 134.637592 86.715524 
L 135.723393 86.04883 
L 136.809194 84.988359 
L 137.894995 85.042942 
L 138.980797 124.678054 
L 140.066598 128.327323 
L 141.152399 127.602148 
L 142.2382 126.350636 
L 143.324001 124.834006 
L 144.409802 124.619573 
L 145.495604 122.865117 
L 146.581405 121.738366 
L 147.667206 121.399171 
L 148.753007 119.383496 
L 149.838808 119.387395 
L 150.924609 117.85517 
L 152.01041 115.62896 
L 153.096212 115.687442 
L 154.182013 114.510007 
L 155.267814 114.077241 
L 156.353615 112.283797 
L 157.439416 111.808144 
L 158.525217 111.484545 
L 159.611019 109.874344 
L 160.69682 107.862568 
L 161.782621 109.051699 
L 163.954223 105.8235 
L 165.040024 104.731838 
L 166.125825 105.199693 
L 167.211627 102.595301 
L 168.297428 102.010482 
L 169.383229 101.608906 
L 170.46903 100.314508 
L 171.554831 100.470459 
L 172.640632 99.643916 
L 173.726434 98.427493 
L 174.812235 97.686722 
L 175.898036 95.4995 
L 176.983837 95.8231 
L 178.069638 93.526712 
L 179.155439 93.132934 
L 180.24124 92.205022 
L 181.327042 90.902825 
L 182.412843 90.879433 
L 183.498644 88.976823 
L 184.584445 88.423194 
L 186.756047 85.655052 
L 187.841849 85.573178 
L 188.92765 83.717353 
L 190.013451 84.134524 
L 192.185053 81.284507 
L 193.270854 81.066175 
L 195.442457 77.494882 
L 196.528258 76.656642 
L 197.614059 76.722922 
L 198.69986 75.63126 
L 199.785661 74.828109 
L 200.871462 72.870916 
L 201.957264 72.126247 
L 204.128866 69.794769 
L 205.214667 69.24504 
L 206.300468 68.313229 
L 207.386269 68.512067 
L 208.472071 65.408629 
L 210.643673 66.024638 
L 211.729474 65.681545 
L 212.815275 64.059647 
L 213.901076 63.408549 
L 214.986877 61.221327 
L 216.072679 61.591712 
L 217.15848 61.287607 
L 218.244281 61.724271 
L 219.330082 61.377279 
L 220.415883 60.199844 
L 221.501684 61.080971 
L 222.587486 59.891839 
L 223.673287 60.379188 
L 224.759088 60.659901 
L 225.844889 108.084799 
L 226.93069 111.207731 
L 228.016491 111.683383 
L 229.102292 111.578116 
L 230.188094 110.268122 
L 232.359696 109.328513 
L 233.445497 110.123867 
L 234.531298 108.385006 
L 235.617099 107.476587 
L 236.702901 107.418105 
L 237.788702 106.798198 
L 238.874503 104.603178 
L 239.960304 105.733828 
L 241.046105 104.926778 
L 242.131906 105.729929 
L 243.217708 103.569998 
L 244.303509 103.667468 
L 245.38931 102.552414 
L 246.475111 103.102143 
L 247.560912 101.640097 
L 248.646713 101.199533 
L 249.732514 102.002684 
L 250.818316 101.429562 
L 251.904117 100.579625 
L 252.989918 101.000695 
L 254.075719 100.158556 
L 255.16152 99.464571 
L 256.247321 99.729689 
L 257.333123 98.485975 
L 259.504725 98.302731 
L 260.590526 96.072623 
L 261.676327 97.82318 
L 262.762128 96.906964 
L 264.933731 95.830898 
L 266.019532 95.752922 
L 267.105333 95.24218 
L 268.191134 95.047241 
L 269.276935 95.557982 
L 270.362736 94.380547 
L 271.448538 94.489713 
L 272.534339 93.487724 
L 273.62014 94.095936 
L 274.705941 93.690461 
L 275.791742 92.891209 
L 276.877543 92.384366 
L 277.963344 92.376569 
L 279.049146 91.737167 
L 280.134947 90.462262 
L 281.220748 91.304401 
L 282.306549 89.842354 
L 285.563953 90.208841 
L 286.649754 89.121078 
L 287.735555 89.277029 
L 288.821356 89.269232 
L 289.907157 88.992418 
L 290.992958 88.571348 
L 292.07876 87.382217 
L 293.164561 87.128795 
L 294.250362 86.555673 
L 296.421964 86.933856 
L 297.507765 85.144311 
L 298.593566 85.023448 
L 299.679368 84.512707 
L 300.765169 84.325565 
L 301.85097 85.323655 
L 304.022572 84.013661 
L 305.108373 82.890809 
L 306.194175 82.013581 
L 307.279976 82.964886 
L 309.451578 79.978412 
L 310.537379 79.98621 
L 311.62318 80.142161 
L 312.708981 79.861449 
L 313.794783 79.432581 
L 314.880584 77.752202 
L 315.966385 78.329224 
L 317.052186 77.650834 
L 318.137987 77.522174 
L 319.223788 76.660541 
L 320.30959 75.989949 
L 321.395391 76.095216 
L 322.481192 76.563071 
L 323.566993 74.5357 
L 324.652794 74.481117 
L 325.738595 73.225706 
L 326.824396 73.37386 
L 327.910198 73.732549 
L 328.995999 72.087259 
L 330.0818 70.866937 
L 331.167601 71.288006 
L 332.253402 71.330893 
L 333.339203 71.038484 
L 334.425005 69.993608 
L 335.510806 68.332723 
L 336.596607 69.326914 
L 337.682408 67.849273 
L 338.768209 66.816093 
L 339.85401 67.927248 
L 340.939811 66.441809 
L 342.025613 65.432022 
L 343.111414 65.72833 
L 344.197215 65.47101 
L 345.283016 63.287687 
L 346.368817 63.767238 
L 347.454618 63.79453 
L 348.54042 63.272092 
L 349.626221 61.958199 
L 351.797823 61.385077 
L 352.883624 60.698889 
L 355.055227 59.884042 
L 356.141028 59.700799 
L 357.226829 58.749494 
L 358.31263 58.059408 
L 359.398431 57.080811 
L 360.484232 56.464802 
L 361.570033 56.215279 
L 362.655835 57.279649 
L 363.741636 56.074923 
L 364.827437 55.844894 
L 365.913238 55.267873 
L 366.999039 53.568 
L 368.08484 54.515406 
L 369.170642 57.01843 
L 370.256443 58.811874 
L 371.342244 59.182259 
L 372.428045 61.735968 
L 373.513846 63.98557 
L 374.599647 62.546916 
L 375.685448 63.704857 
L 376.77125 63.346169 
L 377.857051 62.624892 
L 378.942852 63.104444 
L 380.028653 63.205812 
L 381.114454 62.878314 
L 382.200255 63.303282 
L 383.286057 62.679475 
L 384.371858 63.650274 
L 385.457659 63.026468 
L 386.54346 62.847123 
L 387.629261 63.396853 
L 388.715062 63.279889 
L 389.800863 63.490424 
L 390.886665 64.067445 
L 391.972466 64.34036 
L 393.058267 63.322776 
L 394.144068 63.389055 
L 395.229869 63.650274 
L 396.31567 63.661971 
L 397.401472 63.431942 
L 398.487273 64.352057 
L 398.487273 64.352057 
" clip-path="url(#p05bdc3b7e3)" style="fill: none; stroke: #1f77b4; stroke-width: 1.5; stroke-linecap: square"/>
   </g>
   <g id="line2d_18">
    <path d="M 73.832727 279.039 
L 74.918528 257.127792 
L 76.00433 243.287083 
L 77.090131 230.966903 
L 78.175932 221.375876 
L 79.261733 205.195892 
L 80.347534 195.175999 
L 81.433335 181.608205 
L 82.519137 195.292962 
L 83.604938 176.773704 
L 84.690739 189.561739 
L 85.77654 168.508266 
L 86.862341 159.268131 
L 87.948142 159.385095 
L 89.033943 153.614883 
L 90.119745 153.653871 
L 91.205546 148.897346 
L 92.291347 149.599128 
L 93.377148 148.351515 
L 94.462949 146.090216 
L 95.54875 177.319535 
L 96.634552 182.933794 
L 97.720353 179.385894 
L 98.806154 172.485033 
L 99.891955 179.658809 
L 100.977756 162.582103 
L 102.063557 157.591651 
L 103.149358 165.857088 
L 104.23516 151.43156 
L 105.320961 151.197633 
L 106.406762 150.846742 
L 107.492563 149.872044 
L 108.578364 140.553933 
L 109.664165 135.212589 
L 110.749967 148.117588 
L 111.835768 135.134613 
L 112.921569 136.421214 
L 114.00737 129.754281 
L 115.093171 127.142091 
L 116.178972 132.678374 
L 117.264773 134.43283 
L 118.350575 127.453994 
L 119.436376 129.871244 
L 120.522177 123.867106 
L 121.607978 120.43617 
L 122.693779 117.590052 
L 123.77958 111.312998 
L 124.865382 120.397182 
L 125.951183 122.307589 
L 127.036984 120.085278 
L 128.122785 114.82191 
L 129.208586 115.250777 
L 130.294387 108.895747 
L 131.380189 109.59753 
L 132.46599 107.765098 
L 133.551791 113.106442 
L 134.637592 109.168663 
L 135.723393 110.416276 
L 136.809194 108.739796 
L 137.894995 108.973723 
L 138.980797 151.392572 
L 140.066598 149.677104 
L 141.152399 149.287225 
L 142.2382 143.205111 
L 143.324001 140.670896 
L 144.409802 139.774174 
L 145.495604 129.793269 
L 146.581405 142.269401 
L 147.667206 145.583373 
L 148.753007 126.674236 
L 149.838808 128.662619 
L 150.924609 143.750941 
L 153.096212 123.243299 
L 154.182013 140.826848 
L 155.267814 138.136682 
L 156.353615 138.448585 
L 157.439416 130.962906 
L 158.525217 147.532769 
L 160.69682 127.33703 
L 161.782621 127.453994 
L 162.868422 124.023058 
L 163.954223 138.37061 
L 165.040024 134.510806 
L 166.125825 133.146229 
L 167.211627 132.132543 
L 168.297428 126.479296 
L 169.383229 122.307589 
L 170.46903 130.923918 
L 171.554831 112.521623 
L 172.640632 118.525762 
L 173.726434 118.954629 
L 174.812235 117.551064 
L 175.898036 112.482635 
L 176.983837 140.164054 
L 178.069638 118.252846 
L 179.155439 118.759689 
L 180.24124 120.358194 
L 181.327042 119.851351 
L 182.412843 115.211789 
L 183.498644 106.907364 
L 184.584445 115.95256 
L 185.670246 114.548995 
L 186.756047 128.389704 
L 188.92765 106.322545 
L 190.013451 116.459402 
L 191.099252 108.427892 
L 192.185053 114.198103 
L 193.270854 98.641926 
L 194.356656 107.72611 
L 195.442457 100.903225 
L 196.528258 102.540717 
L 197.614059 109.129675 
L 198.69986 93.963377 
L 199.785661 101.449056 
L 200.871462 101.760959 
L 201.957264 105.191896 
L 203.043065 97.238361 
L 204.128866 109.324614 
L 205.214667 99.889539 
L 206.300468 106.04963 
L 207.386269 99.967515 
L 208.472071 108.544856 
L 209.557872 94.782123 
L 210.643673 100.162455 
L 211.729474 102.033875 
L 212.815275 96.965446 
L 213.901076 97.589253 
L 214.986877 100.942213 
L 216.072679 98.56395 
L 217.15848 103.593391 
L 218.244281 98.56395 
L 219.330082 98.75889 
L 220.415883 99.733588 
L 221.501684 98.524962 
L 222.587486 99.031805 
L 223.673287 97.394313 
L 224.759088 97.433301 
L 225.844889 146.791999 
L 226.93069 130.105172 
L 228.016491 134.861697 
L 229.102292 147.532769 
L 230.188094 131.898616 
L 231.273895 150.534838 
L 233.445497 124.841804 
L 234.531298 135.173601 
L 235.617099 154.901485 
L 236.702901 136.148298 
L 237.788702 135.407528 
L 238.874503 138.331622 
L 239.960304 142.230413 
L 241.046105 128.116788 
L 242.131906 135.602468 
L 243.217708 134.354854 
L 244.303509 124.179009 
L 245.38931 135.875383 
L 246.475111 145.895277 
L 247.560912 128.818571 
L 248.646713 127.687921 
L 249.732514 139.618223 
L 250.818316 126.206381 
L 251.904117 140.514945 
L 252.989918 129.325414 
L 254.075719 114.704946 
L 255.16152 151.743464 
L 256.247321 138.682513 
L 257.333123 152.523222 
L 258.418924 128.545655 
L 259.504725 117.590052 
L 260.590526 126.284356 
L 261.676327 118.915641 
L 262.762128 128.46768 
L 263.847929 124.217997 
L 264.933731 128.584643 
L 266.019532 129.247438 
L 267.105333 119.695399 
L 268.191134 130.845942 
L 269.276935 116.108511 
L 270.362736 121.956698 
L 271.448538 122.190626 
L 272.534339 138.682513 
L 273.62014 129.286426 
L 274.705941 115.835596 
L 275.791742 124.685852 
L 276.877543 114.899886 
L 277.963344 123.750142 
L 279.049146 119.890339 
L 280.134947 132.75635 
L 281.220748 127.025127 
L 282.306549 117.395112 
L 283.39235 119.812363 
L 284.478151 136.889069 
L 285.563953 113.418345 
L 286.649754 120.709085 
L 287.735555 125.036743 
L 288.821356 130.261124 
L 289.907157 126.284356 
L 290.992958 124.802816 
L 292.07876 122.424553 
L 293.164561 104.256186 
L 294.250362 119.734387 
L 295.336163 113.691261 
L 296.421964 110.065385 
L 297.507765 117.590052 
L 298.593566 120.982 
L 299.679368 136.850081 
L 300.765169 122.502529 
L 301.85097 124.91978 
L 302.936771 112.482635 
L 305.108373 119.344508 
L 306.194175 109.753481 
L 307.279976 125.153707 
L 308.365777 109.441578 
L 309.451578 114.626971 
L 310.537379 111.235022 
L 311.62318 124.5299 
L 312.708981 117.4341 
L 313.794783 124.607876 
L 315.966385 107.063315 
L 317.052186 114.548995 
L 318.137987 121.020988 
L 319.223788 115.75762 
L 320.30959 114.237091 
L 321.395391 121.683783 
L 322.481192 120.397182 
L 323.566993 114.938874 
L 324.652794 120.163254 
L 325.738595 107.375219 
L 326.824396 114.665958 
L 327.910198 103.203512 
L 328.995999 98.836866 
L 330.0818 102.11185 
L 331.167601 94.314268 
L 333.339203 111.27401 
L 334.425005 109.363602 
L 335.510806 99.733588 
L 336.596607 103.359464 
L 337.682408 101.760959 
L 338.768209 110.182348 
L 340.939811 88.85596 
L 342.025613 93.963377 
L 343.111414 110.845143 
L 344.197215 106.04963 
L 345.283016 99.6946 
L 346.368817 109.987409 
L 347.454618 96.536579 
L 348.54042 92.988679 
L 349.626221 100.43537 
L 350.712022 96.497591 
L 351.797823 95.795809 
L 352.883624 95.795809 
L 353.969425 95.522893 
L 355.055227 91.390174 
L 356.141028 95.133014 
L 357.226829 94.782123 
L 358.31263 94.782123 
L 359.398431 93.183618 
L 360.484232 95.288966 
L 361.570033 89.518755 
L 362.655835 98.096095 
L 363.741636 92.40386 
L 364.827437 94.27528 
L 365.913238 89.401791 
L 366.999039 81.643196 
L 368.08484 105.659751 
L 369.170642 95.95176 
L 370.256443 101.916911 
L 371.342244 95.405929 
L 372.428045 102.50173 
L 373.513846 92.793739 
L 374.599647 107.921049 
L 375.685448 90.025597 
L 376.77125 97.316337 
L 377.857051 105.620763 
L 378.942852 110.884131 
L 380.028653 99.187757 
L 381.114454 98.174071 
L 382.200255 100.123467 
L 383.286057 105.620763 
L 384.371858 103.749343 
L 385.457659 105.542787 
L 387.629261 95.873784 
L 388.715062 98.875854 
L 389.800863 107.687122 
L 390.886665 101.838935 
L 391.972466 97.511277 
L 393.058267 109.441578 
L 394.144068 94.899087 
L 395.229869 98.291035 
L 396.31567 103.593391 
L 397.401472 95.95176 
L 398.487273 113.340369 
L 398.487273 113.340369 
" clip-path="url(#p05bdc3b7e3)" style="fill: none; stroke: #ff7f0e; stroke-width: 1.5; stroke-linecap: square"/>
   </g>
   <g id="line2d_19">
    <path d="M 73.832727 290.598136 
L 74.918528 280.380574 
L 76.00433 273.604864 
L 77.090131 269.249135 
L 79.261733 256.826806 
L 80.347534 252.336178 
L 81.433335 244.323772 
L 82.519137 252.901113 
L 83.604938 246.340227 
L 84.690739 247.576923 
L 85.77654 242.495239 
L 86.862341 238.488841 
L 87.948142 236.391681 
L 89.033943 235.880549 
L 90.119745 234.616951 
L 91.205546 235.585021 
L 92.291347 233.648881 
L 93.377148 233.62198 
L 94.462949 232.97673 
L 95.54875 248.141858 
L 96.634552 251.71783 
L 97.720353 248.787108 
L 98.806154 240.505686 
L 99.891955 242.979079 
L 100.977756 236.418583 
L 102.063557 234.859066 
L 103.149358 238.650251 
L 104.23516 226.577254 
L 105.320961 227.706734 
L 106.406762 232.62725 
L 107.492563 226.335408 
L 108.578364 225.448097 
L 109.664165 212.13843 
L 110.749967 230.153534 
L 111.835768 214.665922 
L 112.921569 224.076798 
L 114.00737 208.051421 
L 115.093171 216.494321 
L 116.178972 216.35988 
L 117.264773 217.489185 
L 118.350575 215.311239 
L 119.436376 213.671058 
L 120.522177 213.375288 
L 121.607978 210.874684 
L 122.693779 204.609729 
L 123.77958 199.366527 
L 124.865382 202.673778 
L 125.951183 207.782539 
L 127.036984 210.444472 
L 128.122785 204.529065 
L 129.208586 201.894019 
L 130.294387 200.22695 
L 132.46599 198.022116 
L 133.551791 202.216678 
L 134.637592 199.984956 
L 135.723393 200.011844 
L 136.809194 200.388279 
L 137.894995 199.984956 
L 138.980797 234.079214 
L 140.066598 232.62725 
L 142.2382 217.973173 
L 143.324001 225.770755 
L 144.409802 223.834804 
L 145.495604 216.790091 
L 146.581405 220.8771 
L 147.667206 217.516073 
L 148.753007 208.992508 
L 149.838808 214.558369 
L 150.924609 221.092206 
L 152.01041 215.257463 
L 153.096212 206.653234 
L 154.182013 222.463505 
L 155.267814 217.70429 
L 156.353615 216.279215 
L 157.439416 211.68133 
L 158.525217 224.883444 
L 159.611019 219.129366 
L 160.69682 214.504593 
L 161.782621 207.594321 
L 162.868422 208.777403 
L 163.954223 216.494321 
L 165.040024 215.795227 
L 166.125825 216.171662 
L 167.211627 222.409728 
L 168.297428 220.581329 
L 169.383229 206.653234 
L 170.46903 223.243263 
L 171.554831 195.763506 
L 172.640632 209.799155 
L 173.726434 205.308823 
L 174.812235 199.689186 
L 175.898036 202.055349 
L 176.983837 223.754139 
L 178.069638 203.883747 
L 179.155439 205.577705 
L 180.24124 210.525137 
L 181.327042 211.520001 
L 182.412843 208.427856 
L 183.498644 204.663506 
L 184.584445 203.319095 
L 185.670246 201.517584 
L 186.756047 223.001269 
L 188.92765 195.25263 
L 190.013451 202.243566 
L 191.099252 198.828763 
L 192.185053 201.894019 
L 193.270854 190.547192 
L 194.356656 198.882539 
L 195.442457 194.419095 
L 196.528258 193.316679 
L 197.614059 196.785258 
L 198.69986 188.207918 
L 200.871462 191.918491 
L 201.957264 198.049005 
L 203.043065 190.896739 
L 204.128866 199.312751 
L 205.214667 193.047796 
L 206.300468 199.608521 
L 207.386269 189.52544 
L 208.472071 197.780122 
L 209.557872 189.417887 
L 210.643673 191.380727 
L 211.729474 194.311543 
L 212.815275 188.745682 
L 213.901076 190.036316 
L 214.986877 190.305198 
L 216.072679 190.762298 
L 217.15848 193.155349 
L 218.244281 189.552328 
L 219.330082 188.745682 
L 220.415883 190.385863 
L 221.501684 188.826347 
L 222.587486 189.767434 
L 223.673287 188.557464 
L 224.759088 189.149005 
L 225.844889 225.09855 
L 226.93069 209.960484 
L 228.016491 213.832387 
L 229.102292 218.188278 
L 230.188094 213.832387 
L 231.273895 219.129366 
L 232.359696 223.807915 
L 233.445497 207.45988 
L 234.531298 227.276495 
L 235.617099 236.687371 
L 236.702901 218.645378 
L 237.788702 213.079517 
L 238.874503 227.437824 
L 239.960304 218.860484 
L 241.046105 219.183142 
L 242.131906 213.402176 
L 243.217708 213.724834 
L 244.303509 212.514865 
L 245.38931 221.979517 
L 246.475111 224.856556 
L 248.646713 207.406104 
L 249.732514 219.747795 
L 250.818316 211.38556 
L 251.904117 224.238127 
L 254.075719 205.927252 
L 255.16152 231.067734 
L 256.247321 211.358671 
L 257.333123 230.718187 
L 258.418924 210.256255 
L 259.504725 200.926044 
L 260.590526 206.491904 
L 261.676327 205.20127 
L 262.762128 203.614865 
L 263.847929 208.105197 
L 264.933731 216.763203 
L 266.019532 212.165318 
L 267.105333 212.541753 
L 268.191134 230.745075 
L 269.276935 204.582841 
L 270.362736 208.024533 
L 271.448538 206.169246 
L 272.534339 220.796435 
L 273.62014 221.549305 
L 274.705941 205.120605 
L 275.791742 212.407312 
L 276.877543 199.904291 
L 277.963344 208.589185 
L 279.049146 219.37136 
L 280.134947 211.520001 
L 281.220748 207.701874 
L 282.306549 201.947796 
L 283.39235 202.781331 
L 284.478151 217.354744 
L 285.563953 191.918491 
L 286.649754 201.302479 
L 287.735555 214.961692 
L 288.821356 198.963204 
L 289.907157 211.170454 
L 290.992958 214.128158 
L 292.07876 198.344775 
L 293.164561 190.520304 
L 294.250362 217.919396 
L 295.336163 207.943868 
L 296.421964 193.639337 
L 297.507765 206.733898 
L 298.593566 209.691602 
L 299.679368 222.140846 
L 300.765169 209.987372 
L 301.85097 204.824835 
L 302.936771 198.586769 
L 304.022572 202.109125 
L 305.108373 206.626345 
L 306.194175 198.882539 
L 307.279976 210.390696 
L 308.365777 196.597041 
L 309.451578 208.078309 
L 310.537379 202.136013 
L 311.62318 203.776195 
L 312.708981 202.620001 
L 313.794783 207.728762 
L 314.880584 204.636617 
L 315.966385 192.214262 
L 317.052186 203.103989 
L 318.137987 204.15263 
L 319.223788 198.748098 
L 320.30959 197.000364 
L 321.395391 205.765923 
L 322.481192 201.73269 
L 323.566993 199.097645 
L 324.652794 209.046285 
L 325.738595 197.645681 
L 326.824396 202.18979 
L 327.910198 191.864715 
L 328.995999 192.052932 
L 330.0818 186.944171 
L 331.167601 186.137525 
L 332.253402 191.111845 
L 333.339203 202.378007 
L 335.510806 192.402479 
L 336.596607 189.041452 
L 337.682408 188.799458 
L 338.768209 200.388279 
L 339.85401 189.041452 
L 340.939811 184.71245 
L 342.025613 187.078613 
L 343.111414 197.807011 
L 344.197215 193.504896 
L 345.283016 187.508824 
L 346.368817 192.644473 
L 347.454618 185.599761 
L 348.54042 181.297646 
L 349.626221 194.338431 
L 350.712022 185.949307 
L 351.797823 187.078613 
L 353.969425 184.443567 
L 355.055227 183.556256 
L 356.141028 188.4768 
L 357.226829 188.530576 
L 359.398431 183.099157 
L 360.484232 194.553537 
L 361.570033 191.03118 
L 362.655835 186.702177 
L 363.741636 183.556256 
L 364.827437 189.686769 
L 365.913238 179.361695 
L 366.999039 177.291302 
L 368.08484 190.923627 
L 369.170642 187.858371 
L 370.256443 192.133597 
L 371.342244 181.136317 
L 372.428045 198.022116 
L 373.513846 183.986468 
L 374.599647 191.380727 
L 375.685448 177.103084 
L 376.77125 189.686769 
L 377.857051 185.035108 
L 378.942852 202.216678 
L 380.028653 192.99402 
L 381.114454 189.175893 
L 382.200255 193.45112 
L 383.286057 189.713658 
L 384.371858 195.70973 
L 385.457659 190.762298 
L 386.54346 192.69825 
L 387.629261 185.734202 
L 388.715062 191.300062 
L 389.800863 200.065621 
L 390.886665 191.864715 
L 391.972466 187.72393 
L 393.058267 197.914563 
L 394.144068 182.74961 
L 396.31567 195.387071 
L 397.401472 186.191301 
L 398.487273 194.553537 
L 398.487273 194.553537 
" clip-path="url(#p05bdc3b7e3)" style="fill: none; stroke: #2ca02c; stroke-width: 1.5; stroke-linecap: square"/>
   </g>
   <g id="line2d_20">
    <path d="M 368.08484 86.282758 
L 369.170642 102.384766 
L 370.256443 100.162455 
L 371.342244 95.288966 
L 372.428045 101.994887 
L 373.513846 102.150838 
L 374.599647 93.690461 
L 375.685448 90.649404 
L 376.77125 104.763029 
L 377.857051 94.626171 
L 378.942852 127.726909 
L 380.028653 101.527032 
L 381.114454 112.092756 
L 382.200255 109.207651 
L 383.286057 124.451925 
L 384.371858 103.710355 
L 385.457659 107.804086 
L 386.54346 118.798677 
L 387.629261 121.995686 
L 388.715062 108.349917 
L 389.800863 98.797878 
L 390.886665 141.567618 
L 391.972466 122.346577 
L 393.058267 106.634448 
L 394.144068 110.845143 
L 395.229869 124.256985 
L 396.31567 115.640656 
L 397.401472 168.001423 
L 398.487273 148.897346 
L 398.487273 148.897346 
" clip-path="url(#p05bdc3b7e3)" style="fill: none; stroke: #d62728; stroke-width: 1.5; stroke-linecap: square"/>
   </g>
   <g id="line2d_21">
    <path d="M 368.08484 177.587072 
L 369.170642 189.202782 
L 370.256443 186.433295 
L 371.342244 180.32967 
L 372.428045 192.456256 
L 373.513846 187.750818 
L 374.599647 186.433295 
L 375.685448 179.388583 
L 376.77125 187.697041 
L 377.857051 175.35535 
L 378.942852 204.932388 
L 380.028653 191.246286 
L 381.114454 192.99402 
L 382.200255 186.460184 
L 383.286057 202.915772 
L 384.371858 188.0197 
L 385.457659 189.310334 
L 386.54346 202.297343 
L 387.629261 204.636617 
L 388.715062 195.413959 
L 389.800863 188.396135 
L 390.886665 218.806707 
L 391.972466 202.297343 
L 393.058267 198.855651 
L 394.144068 189.417887 
L 395.229869 202.431784 
L 396.31567 196.032388 
L 397.401472 230.045981 
L 398.487273 217.139638 
L 398.487273 217.139638 
" clip-path="url(#p05bdc3b7e3)" style="fill: none; stroke: #9467bd; stroke-width: 1.5; stroke-linecap: square"/>
   </g>
   <g id="patch_3">
    <path d="M 57.6 307.584 
L 57.6 41.472 
" style="fill: none; stroke: #000000; stroke-width: 0.8; stroke-linejoin: miter; stroke-linecap: square"/>
   </g>
   <g id="patch_4">
    <path d="M 414.72 307.584 
L 414.72 41.472 
" style="fill: none; stroke: #000000; stroke-width: 0.8; stroke-linejoin: miter; stroke-linecap: square"/>
   </g>
   <g id="patch_5">
    <path d="M 57.6 307.584 
L 414.72 307.584 
" style="fill: none; stroke: #000000; stroke-width: 0.8; stroke-linejoin: miter; stroke-linecap: square"/>
   </g>
   <g id="patch_6">
    <path d="M 57.6 41.472 
L 414.72 41.472 
" style="fill: none; stroke: #000000; stroke-width: 0.8; stroke-linejoin: miter; stroke-linecap: square"/>
   </g>
   <g id="text_19">
    <!-- Learning Curves -->
    <g transform="translate(187.37625 35.472) scale(0.12 -0.12)">
     <defs>
      <path id="DejaVuSans-4c" d="M 628 4666 
L 1259 4666 
L 1259 531 
L 3531 531 
L 3531 0 
L 628 0 
L 628 4666 
z
" transform="scale(0.015625)"/>
      <path id="DejaVuSans-65" d="M 3597 1894 
L 3597 1613 
L 953 1613 
Q 991 1019 1311 708 
Q 1631 397 2203 397 
Q 2534 397 2845 478 
Q 3156 559 3463 722 
L 3463 178 
Q 3153 47 2828 -22 
Q 2503 -91 2169 -91 
Q 1331 -91 842 396 
Q 353 884 353 1716 
Q 353 2575 817 3079 
Q 1281 3584 2069 3584 
Q 2775 3584 3186 3129 
Q 3597 2675 3597 1894 
z
M 3022 2063 
Q 3016 2534 2758 2815 
Q 2500 3097 2075 3097 
Q 1594 3097 1305 2825 
Q 1016 2553 972 2059 
L 3022 2063 
z
" transform="scale(0.015625)"/>
      <path id="DejaVuSans-6e" d="M 3513 2113 
L 3513 0 
L 2938 0 
L 2938 2094 
Q 2938 2591 2744 2837 
Q 2550 3084 2163 3084 
Q 1697 3084 1428 2787 
Q 1159 2491 1159 1978 
L 1159 0 
L 581 0 
L 581 3500 
L 1159 3500 
L 1159 2956 
Q 1366 3272 1645 3428 
Q 1925 3584 2291 3584 
Q 2894 3584 3203 3211 
Q 3513 2838 3513 2113 
z
" transform="scale(0.015625)"/>
      <path id="DejaVuSans-69" d="M 603 3500 
L 1178 3500 
L 1178 0 
L 603 0 
L 603 3500 
z
M 603 4863 
L 1178 4863 
L 1178 4134 
L 603 4134 
L 603 4863 
z
" transform="scale(0.015625)"/>
      <path id="DejaVuSans-67" d="M 2906 1791 
Q 2906 2416 2648 2759 
Q 2391 3103 1925 3103 
Q 1463 3103 1205 2759 
Q 947 2416 947 1791 
Q 947 1169 1205 825 
Q 1463 481 1925 481 
Q 2391 481 2648 825 
Q 2906 1169 2906 1791 
z
M 3481 434 
Q 3481 -459 3084 -895 
Q 2688 -1331 1869 -1331 
Q 1566 -1331 1297 -1286 
Q 1028 -1241 775 -1147 
L 775 -588 
Q 1028 -725 1275 -790 
Q 1522 -856 1778 -856 
Q 2344 -856 2625 -561 
Q 2906 -266 2906 331 
L 2906 616 
Q 2728 306 2450 153 
Q 2172 0 1784 0 
Q 1141 0 747 490 
Q 353 981 353 1791 
Q 353 2603 747 3093 
Q 1141 3584 1784 3584 
Q 2172 3584 2450 3431 
Q 2728 3278 2906 2969 
L 2906 3500 
L 3481 3500 
L 3481 434 
z
" transform="scale(0.015625)"/>
      <path id="DejaVuSans-20" transform="scale(0.015625)"/>
      <path id="DejaVuSans-43" d="M 4122 4306 
L 4122 3641 
Q 3803 3938 3442 4084 
Q 3081 4231 2675 4231 
Q 1875 4231 1450 3742 
Q 1025 3253 1025 2328 
Q 1025 1406 1450 917 
Q 1875 428 2675 428 
Q 3081 428 3442 575 
Q 3803 722 4122 1019 
L 4122 359 
Q 3791 134 3420 21 
Q 3050 -91 2638 -91 
Q 1578 -91 968 557 
Q 359 1206 359 2328 
Q 359 3453 968 4101 
Q 1578 4750 2638 4750 
Q 3056 4750 3426 4639 
Q 3797 4528 4122 4306 
z
" transform="scale(0.015625)"/>
      <path id="DejaVuSans-76" d="M 191 3500 
L 800 3500 
L 1894 563 
L 2988 3500 
L 3597 3500 
L 2284 0 
L 1503 0 
L 191 3500 
z
" transform="scale(0.015625)"/>
     </defs>
     <use xlink:href="#DejaVuSans-4c"/>
     <use xlink:href="#DejaVuSans-65" x="53.962891"/>
     <use xlink:href="#DejaVuSans-61" x="115.486328"/>
     <use xlink:href="#DejaVuSans-72" x="176.765625"/>
     <use xlink:href="#DejaVuSans-6e" x="216.128906"/>
     <use xlink:href="#DejaVuSans-69" x="279.507812"/>
     <use xlink:href="#DejaVuSans-6e" x="307.291016"/>
     <use xlink:href="#DejaVuSans-67" x="370.669922"/>
     <use xlink:href="#DejaVuSans-20" x="434.146484"/>
     <use xlink:href="#DejaVuSans-43" x="465.933594"/>
     <use xlink:href="#DejaVuSans-75" x="535.757812"/>
     <use xlink:href="#DejaVuSans-72" x="599.136719"/>
     <use xlink:href="#DejaVuSans-76" x="640.25"/>
     <use xlink:href="#DejaVuSans-65" x="699.429688"/>
     <use xlink:href="#DejaVuSans-73" x="760.953125"/>
    </g>
   </g>
   <g id="legend_1">
    <g id="patch_7">
     <path d="M 214.18875 302.584 
L 407.72 302.584 
Q 409.72 302.584 409.72 300.584 
L 409.72 228.193375 
Q 409.72 226.193375 407.72 226.193375 
L 214.18875 226.193375 
Q 212.18875 226.193375 212.18875 228.193375 
L 212.18875 300.584 
Q 212.18875 302.584 214.18875 302.584 
z
" style="fill: #ffffff; opacity: 0.8; stroke: #cccccc; stroke-linejoin: miter"/>
    </g>
    <g id="line2d_22">
     <path d="M 216.18875 234.291812 
L 226.18875 234.291812 
L 236.18875 234.291812 
" style="fill: none; stroke: #1f77b4; stroke-width: 1.5; stroke-linecap: square"/>
    </g>
    <g id="text_20">
     <!-- Train Accuracy -->
     <g transform="translate(244.18875 237.791812) scale(0.1 -0.1)">
      <defs>
       <path id="DejaVuSans-54" d="M -19 4666 
L 3928 4666 
L 3928 4134 
L 2272 4134 
L 2272 0 
L 1638 0 
L 1638 4134 
L -19 4134 
L -19 4666 
z
" transform="scale(0.015625)"/>
      </defs>
      <use xlink:href="#DejaVuSans-54"/>
      <use xlink:href="#DejaVuSans-72" x="46.333984"/>
      <use xlink:href="#DejaVuSans-61" x="87.447266"/>
      <use xlink:href="#DejaVuSans-69" x="148.726562"/>
      <use xlink:href="#DejaVuSans-6e" x="176.509766"/>
      <use xlink:href="#DejaVuSans-20" x="239.888672"/>
      <use xlink:href="#DejaVuSans-41" x="271.675781"/>
      <use xlink:href="#DejaVuSans-63" x="338.333984"/>
      <use xlink:href="#DejaVuSans-63" x="393.314453"/>
      <use xlink:href="#DejaVuSans-75" x="448.294922"/>
      <use xlink:href="#DejaVuSans-72" x="511.673828"/>
      <use xlink:href="#DejaVuSans-61" x="552.787109"/>
      <use xlink:href="#DejaVuSans-63" x="614.066406"/>
      <use xlink:href="#DejaVuSans-79" x="669.046875"/>
     </g>
    </g>
    <g id="line2d_23">
     <path d="M 216.18875 248.969937 
L 226.18875 248.969937 
L 236.18875 248.969937 
" style="fill: none; stroke: #ff7f0e; stroke-width: 1.5; stroke-linecap: square"/>
    </g>
    <g id="text_21">
     <!-- Validation Accuracy -->
     <g transform="translate(244.18875 252.469937) scale(0.1 -0.1)">
      <defs>
       <path id="DejaVuSans-56" d="M 1831 0 
L 50 4666 
L 709 4666 
L 2188 738 
L 3669 4666 
L 4325 4666 
L 2547 0 
L 1831 0 
z
" transform="scale(0.015625)"/>
       <path id="DejaVuSans-6c" d="M 603 4863 
L 1178 4863 
L 1178 0 
L 603 0 
L 603 4863 
z
" transform="scale(0.015625)"/>
       <path id="DejaVuSans-64" d="M 2906 2969 
L 2906 4863 
L 3481 4863 
L 3481 0 
L 2906 0 
L 2906 525 
Q 2725 213 2448 61 
Q 2172 -91 1784 -91 
Q 1150 -91 751 415 
Q 353 922 353 1747 
Q 353 2572 751 3078 
Q 1150 3584 1784 3584 
Q 2172 3584 2448 3432 
Q 2725 3281 2906 2969 
z
M 947 1747 
Q 947 1113 1208 752 
Q 1469 391 1925 391 
Q 2381 391 2643 752 
Q 2906 1113 2906 1747 
Q 2906 2381 2643 2742 
Q 2381 3103 1925 3103 
Q 1469 3103 1208 2742 
Q 947 2381 947 1747 
z
" transform="scale(0.015625)"/>
       <path id="DejaVuSans-74" d="M 1172 4494 
L 1172 3500 
L 2356 3500 
L 2356 3053 
L 1172 3053 
L 1172 1153 
Q 1172 725 1289 603 
Q 1406 481 1766 481 
L 2356 481 
L 2356 0 
L 1766 0 
Q 1100 0 847 248 
Q 594 497 594 1153 
L 594 3053 
L 172 3053 
L 172 3500 
L 594 3500 
L 594 4494 
L 1172 4494 
z
" transform="scale(0.015625)"/>
      </defs>
      <use xlink:href="#DejaVuSans-56"/>
      <use xlink:href="#DejaVuSans-61" x="60.658203"/>
      <use xlink:href="#DejaVuSans-6c" x="121.9375"/>
      <use xlink:href="#DejaVuSans-69" x="149.720703"/>
      <use xlink:href="#DejaVuSans-64" x="177.503906"/>
      <use xlink:href="#DejaVuSans-61" x="240.980469"/>
      <use xlink:href="#DejaVuSans-74" x="302.259766"/>
      <use xlink:href="#DejaVuSans-69" x="341.46875"/>
      <use xlink:href="#DejaVuSans-6f" x="369.251953"/>
      <use xlink:href="#DejaVuSans-6e" x="430.433594"/>
      <use xlink:href="#DejaVuSans-20" x="493.8125"/>
      <use xlink:href="#DejaVuSans-41" x="525.599609"/>
      <use xlink:href="#DejaVuSans-63" x="592.257812"/>
      <use xlink:href="#DejaVuSans-63" x="647.238281"/>
      <use xlink:href="#DejaVuSans-75" x="702.21875"/>
      <use xlink:href="#DejaVuSans-72" x="765.597656"/>
      <use xlink:href="#DejaVuSans-61" x="806.710938"/>
      <use xlink:href="#DejaVuSans-63" x="867.990234"/>
      <use xlink:href="#DejaVuSans-79" x="922.970703"/>
     </g>
    </g>
    <g id="line2d_24">
     <path d="M 216.18875 263.648062 
L 226.18875 263.648062 
L 236.18875 263.648062 
" style="fill: none; stroke: #2ca02c; stroke-width: 1.5; stroke-linecap: square"/>
    </g>
    <g id="text_22">
     <!-- Robust Validation Accuracy -->
     <g transform="translate(244.18875 267.148062) scale(0.1 -0.1)">
      <defs>
       <path id="DejaVuSans-52" d="M 2841 2188 
Q 3044 2119 3236 1894 
Q 3428 1669 3622 1275 
L 4263 0 
L 3584 0 
L 2988 1197 
Q 2756 1666 2539 1819 
Q 2322 1972 1947 1972 
L 1259 1972 
L 1259 0 
L 628 0 
L 628 4666 
L 2053 4666 
Q 2853 4666 3247 4331 
Q 3641 3997 3641 3322 
Q 3641 2881 3436 2590 
Q 3231 2300 2841 2188 
z
M 1259 4147 
L 1259 2491 
L 2053 2491 
Q 2509 2491 2742 2702 
Q 2975 2913 2975 3322 
Q 2975 3731 2742 3939 
Q 2509 4147 2053 4147 
L 1259 4147 
z
" transform="scale(0.015625)"/>
       <path id="DejaVuSans-62" d="M 3116 1747 
Q 3116 2381 2855 2742 
Q 2594 3103 2138 3103 
Q 1681 3103 1420 2742 
Q 1159 2381 1159 1747 
Q 1159 1113 1420 752 
Q 1681 391 2138 391 
Q 2594 391 2855 752 
Q 3116 1113 3116 1747 
z
M 1159 2969 
Q 1341 3281 1617 3432 
Q 1894 3584 2278 3584 
Q 2916 3584 3314 3078 
Q 3713 2572 3713 1747 
Q 3713 922 3314 415 
Q 2916 -91 2278 -91 
Q 1894 -91 1617 61 
Q 1341 213 1159 525 
L 1159 0 
L 581 0 
L 581 4863 
L 1159 4863 
L 1159 2969 
z
" transform="scale(0.015625)"/>
      </defs>
      <use xlink:href="#DejaVuSans-52"/>
      <use xlink:href="#DejaVuSans-6f" x="64.982422"/>
      <use xlink:href="#DejaVuSans-62" x="126.164062"/>
      <use xlink:href="#DejaVuSans-75" x="189.640625"/>
      <use xlink:href="#DejaVuSans-73" x="253.019531"/>
      <use xlink:href="#DejaVuSans-74" x="305.119141"/>
      <use xlink:href="#DejaVuSans-20" x="344.328125"/>
      <use xlink:href="#DejaVuSans-56" x="376.115234"/>
      <use xlink:href="#DejaVuSans-61" x="436.773438"/>
      <use xlink:href="#DejaVuSans-6c" x="498.052734"/>
      <use xlink:href="#DejaVuSans-69" x="525.835938"/>
      <use xlink:href="#DejaVuSans-64" x="553.619141"/>
      <use xlink:href="#DejaVuSans-61" x="617.095703"/>
      <use xlink:href="#DejaVuSans-74" x="678.375"/>
      <use xlink:href="#DejaVuSans-69" x="717.583984"/>
      <use xlink:href="#DejaVuSans-6f" x="745.367188"/>
      <use xlink:href="#DejaVuSans-6e" x="806.548828"/>
      <use xlink:href="#DejaVuSans-20" x="869.927734"/>
      <use xlink:href="#DejaVuSans-41" x="901.714844"/>
      <use xlink:href="#DejaVuSans-63" x="968.373047"/>
      <use xlink:href="#DejaVuSans-63" x="1023.353516"/>
      <use xlink:href="#DejaVuSans-75" x="1078.333984"/>
      <use xlink:href="#DejaVuSans-72" x="1141.712891"/>
      <use xlink:href="#DejaVuSans-61" x="1182.826172"/>
      <use xlink:href="#DejaVuSans-63" x="1244.105469"/>
      <use xlink:href="#DejaVuSans-79" x="1299.085938"/>
     </g>
    </g>
    <g id="line2d_25">
     <path d="M 216.18875 278.326188 
L 226.18875 278.326188 
L 236.18875 278.326188 
" style="fill: none; stroke: #d62728; stroke-width: 1.5; stroke-linecap: square"/>
    </g>
    <g id="text_23">
     <!-- SWA Validation Accuracy -->
     <g transform="translate(244.18875 281.826188) scale(0.1 -0.1)">
      <defs>
       <path id="DejaVuSans-53" d="M 3425 4513 
L 3425 3897 
Q 3066 4069 2747 4153 
Q 2428 4238 2131 4238 
Q 1616 4238 1336 4038 
Q 1056 3838 1056 3469 
Q 1056 3159 1242 3001 
Q 1428 2844 1947 2747 
L 2328 2669 
Q 3034 2534 3370 2195 
Q 3706 1856 3706 1288 
Q 3706 609 3251 259 
Q 2797 -91 1919 -91 
Q 1588 -91 1214 -16 
Q 841 59 441 206 
L 441 856 
Q 825 641 1194 531 
Q 1563 422 1919 422 
Q 2459 422 2753 634 
Q 3047 847 3047 1241 
Q 3047 1584 2836 1778 
Q 2625 1972 2144 2069 
L 1759 2144 
Q 1053 2284 737 2584 
Q 422 2884 422 3419 
Q 422 4038 858 4394 
Q 1294 4750 2059 4750 
Q 2388 4750 2728 4690 
Q 3069 4631 3425 4513 
z
" transform="scale(0.015625)"/>
       <path id="DejaVuSans-57" d="M 213 4666 
L 850 4666 
L 1831 722 
L 2809 4666 
L 3519 4666 
L 4500 722 
L 5478 4666 
L 6119 4666 
L 4947 0 
L 4153 0 
L 3169 4050 
L 2175 0 
L 1381 0 
L 213 4666 
z
" transform="scale(0.015625)"/>
      </defs>
      <use xlink:href="#DejaVuSans-53"/>
      <use xlink:href="#DejaVuSans-57" x="63.476562"/>
      <use xlink:href="#DejaVuSans-41" x="156.853516"/>
      <use xlink:href="#DejaVuSans-20" x="225.261719"/>
      <use xlink:href="#DejaVuSans-56" x="257.048828"/>
      <use xlink:href="#DejaVuSans-61" x="317.707031"/>
      <use xlink:href="#DejaVuSans-6c" x="378.986328"/>
      <use xlink:href="#DejaVuSans-69" x="406.769531"/>
      <use xlink:href="#DejaVuSans-64" x="434.552734"/>
      <use xlink:href="#DejaVuSans-61" x="498.029297"/>
      <use xlink:href="#DejaVuSans-74" x="559.308594"/>
      <use xlink:href="#DejaVuSans-69" x="598.517578"/>
      <use xlink:href="#DejaVuSans-6f" x="626.300781"/>
      <use xlink:href="#DejaVuSans-6e" x="687.482422"/>
      <use xlink:href="#DejaVuSans-20" x="750.861328"/>
      <use xlink:href="#DejaVuSans-41" x="782.648438"/>
      <use xlink:href="#DejaVuSans-63" x="849.306641"/>
      <use xlink:href="#DejaVuSans-63" x="904.287109"/>
      <use xlink:href="#DejaVuSans-75" x="959.267578"/>
      <use xlink:href="#DejaVuSans-72" x="1022.646484"/>
      <use xlink:href="#DejaVuSans-61" x="1063.759766"/>
      <use xlink:href="#DejaVuSans-63" x="1125.039062"/>
      <use xlink:href="#DejaVuSans-79" x="1180.019531"/>
     </g>
    </g>
    <g id="line2d_26">
     <path d="M 216.18875 293.004312 
L 226.18875 293.004312 
L 236.18875 293.004312 
" style="fill: none; stroke: #9467bd; stroke-width: 1.5; stroke-linecap: square"/>
    </g>
    <g id="text_24">
     <!-- SWA Robust Validation Accuracy -->
     <g transform="translate(244.18875 296.504312) scale(0.1 -0.1)">
      <use xlink:href="#DejaVuSans-53"/>
      <use xlink:href="#DejaVuSans-57" x="63.476562"/>
      <use xlink:href="#DejaVuSans-41" x="156.853516"/>
      <use xlink:href="#DejaVuSans-20" x="225.261719"/>
      <use xlink:href="#DejaVuSans-52" x="257.048828"/>
      <use xlink:href="#DejaVuSans-6f" x="322.03125"/>
      <use xlink:href="#DejaVuSans-62" x="383.212891"/>
      <use xlink:href="#DejaVuSans-75" x="446.689453"/>
      <use xlink:href="#DejaVuSans-73" x="510.068359"/>
      <use xlink:href="#DejaVuSans-74" x="562.167969"/>
      <use xlink:href="#DejaVuSans-20" x="601.376953"/>
      <use xlink:href="#DejaVuSans-56" x="633.164062"/>
      <use xlink:href="#DejaVuSans-61" x="693.822266"/>
      <use xlink:href="#DejaVuSans-6c" x="755.101562"/>
      <use xlink:href="#DejaVuSans-69" x="782.884766"/>
      <use xlink:href="#DejaVuSans-64" x="810.667969"/>
      <use xlink:href="#DejaVuSans-61" x="874.144531"/>
      <use xlink:href="#DejaVuSans-74" x="935.423828"/>
      <use xlink:href="#DejaVuSans-69" x="974.632812"/>
      <use xlink:href="#DejaVuSans-6f" x="1002.416016"/>
      <use xlink:href="#DejaVuSans-6e" x="1063.597656"/>
      <use xlink:href="#DejaVuSans-20" x="1126.976562"/>
      <use xlink:href="#DejaVuSans-41" x="1158.763672"/>
      <use xlink:href="#DejaVuSans-63" x="1225.421875"/>
      <use xlink:href="#DejaVuSans-63" x="1280.402344"/>
      <use xlink:href="#DejaVuSans-75" x="1335.382812"/>
      <use xlink:href="#DejaVuSans-72" x="1398.761719"/>
      <use xlink:href="#DejaVuSans-61" x="1439.875"/>
      <use xlink:href="#DejaVuSans-63" x="1501.154297"/>
      <use xlink:href="#DejaVuSans-79" x="1556.134766"/>
     </g>
    </g>
   </g>
  </g>
 </g>
 <defs>
  <clipPath id="p05bdc3b7e3">
   <rect x="57.6" y="41.472" width="357.12" height="266.112"/>
  </clipPath>
 </defs>
</svg>
