<?xml version="1.0" encoding="utf-8" standalone="no"?>
<!DOCTYPE svg PUBLIC "-//W3C//DTD SVG 1.1//EN"
  "http://www.w3.org/Graphics/SVG/1.1/DTD/svg11.dtd">
<svg xmlns:xlink="http://www.w3.org/1999/xlink" width="460.8pt" height="345.6pt" viewBox="0 0 460.8 345.6" xmlns="http://www.w3.org/2000/svg" version="1.1">
 <metadata>
  <rdf:RDF xmlns:dc="http://purl.org/dc/elements/1.1/" xmlns:cc="http://creativecommons.org/ns#" xmlns:rdf="http://www.w3.org/1999/02/22-rdf-syntax-ns#">
   <cc:Work>
    <dc:type rdf:resource="http://purl.org/dc/dcmitype/StillImage"/>
    <dc:date>2025-06-25T01:51:29.034839</dc:date>
    <dc:format>image/svg+xml</dc:format>
    <dc:creator>
     <cc:Agent>
      <dc:title>Matplotlib v3.9.1, https://matplotlib.org/</dc:title>
     </cc:Agent>
    </dc:creator>
   </cc:Work>
  </rdf:RDF>
 </metadata>
 <defs>
  <style type="text/css">*{stroke-linejoin: round; stroke-linecap: butt}</style>
 </defs>
 <g id="figure_1">
  <g id="patch_1">
   <path d="M 0 345.6 
L 460.8 345.6 
L 460.8 0 
L 0 0 
z
" style="fill: #ffffff"/>
  </g>
  <g id="axes_1">
   <g id="patch_2">
    <path d="M 57.6 307.584 
L 414.72 307.584 
L 414.72 41.472 
L 57.6 41.472 
z
" style="fill: #ffffff"/>
   </g>
   <g id="matplotlib.axis_1">
    <g id="xtick_1">
     <g id="line2d_1">
      <defs>
       <path id="mda23cbda28" d="M 0 0 
L 0 3.5 
" style="stroke: #000000; stroke-width: 0.8"/>
      </defs>
      <g>
       <use xlink:href="#mda23cbda28" x="73.832727" y="307.584" style="stroke: #000000; stroke-width: 0.8"/>
      </g>
     </g>
     <g id="text_1">
      <!-- 1 -->
      <g transform="translate(70.651477 322.182437) scale(0.1 -0.1)">
       <defs>
        <path id="DejaVuSans-31" d="M 794 531 
L 1825 531 
L 1825 4091 
L 703 3866 
L 703 4441 
L 1819 4666 
L 2450 4666 
L 2450 531 
L 3481 531 
L 3481 0 
L 794 0 
L 794 531 
z
" transform="scale(0.015625)"/>
       </defs>
       <use xlink:href="#DejaVuSans-31"/>
      </g>
     </g>
    </g>
    <g id="xtick_2">
     <g id="line2d_2">
      <g>
       <use xlink:href="#mda23cbda28" x="109.664165" y="307.584" style="stroke: #000000; stroke-width: 0.8"/>
      </g>
     </g>
     <g id="text_2">
      <!-- 34 -->
      <g transform="translate(103.301665 322.182437) scale(0.1 -0.1)">
       <defs>
        <path id="DejaVuSans-33" d="M 2597 2516 
Q 3050 2419 3304 2112 
Q 3559 1806 3559 1356 
Q 3559 666 3084 287 
Q 2609 -91 1734 -91 
Q 1441 -91 1130 -33 
Q 819 25 488 141 
L 488 750 
Q 750 597 1062 519 
Q 1375 441 1716 441 
Q 2309 441 2620 675 
Q 2931 909 2931 1356 
Q 2931 1769 2642 2001 
Q 2353 2234 1838 2234 
L 1294 2234 
L 1294 2753 
L 1863 2753 
Q 2328 2753 2575 2939 
Q 2822 3125 2822 3475 
Q 2822 3834 2567 4026 
Q 2313 4219 1838 4219 
Q 1578 4219 1281 4162 
Q 984 4106 628 3988 
L 628 4550 
Q 988 4650 1302 4700 
Q 1616 4750 1894 4750 
Q 2613 4750 3031 4423 
Q 3450 4097 3450 3541 
Q 3450 3153 3228 2886 
Q 3006 2619 2597 2516 
z
" transform="scale(0.015625)"/>
        <path id="DejaVuSans-34" d="M 2419 4116 
L 825 1625 
L 2419 1625 
L 2419 4116 
z
M 2253 4666 
L 3047 4666 
L 3047 1625 
L 3713 1625 
L 3713 1100 
L 3047 1100 
L 3047 0 
L 2419 0 
L 2419 1100 
L 313 1100 
L 313 1709 
L 2253 4666 
z
" transform="scale(0.015625)"/>
       </defs>
       <use xlink:href="#DejaVuSans-33"/>
       <use xlink:href="#DejaVuSans-34" x="63.623047"/>
      </g>
     </g>
    </g>
    <g id="xtick_3">
     <g id="line2d_3">
      <g>
       <use xlink:href="#mda23cbda28" x="145.495604" y="307.584" style="stroke: #000000; stroke-width: 0.8"/>
      </g>
     </g>
     <g id="text_3">
      <!-- 67 -->
      <g transform="translate(139.133104 322.182437) scale(0.1 -0.1)">
       <defs>
        <path id="DejaVuSans-36" d="M 2113 2584 
Q 1688 2584 1439 2293 
Q 1191 2003 1191 1497 
Q 1191 994 1439 701 
Q 1688 409 2113 409 
Q 2538 409 2786 701 
Q 3034 994 3034 1497 
Q 3034 2003 2786 2293 
Q 2538 2584 2113 2584 
z
M 3366 4563 
L 3366 3988 
Q 3128 4100 2886 4159 
Q 2644 4219 2406 4219 
Q 1781 4219 1451 3797 
Q 1122 3375 1075 2522 
Q 1259 2794 1537 2939 
Q 1816 3084 2150 3084 
Q 2853 3084 3261 2657 
Q 3669 2231 3669 1497 
Q 3669 778 3244 343 
Q 2819 -91 2113 -91 
Q 1303 -91 875 529 
Q 447 1150 447 2328 
Q 447 3434 972 4092 
Q 1497 4750 2381 4750 
Q 2619 4750 2861 4703 
Q 3103 4656 3366 4563 
z
" transform="scale(0.015625)"/>
        <path id="DejaVuSans-37" d="M 525 4666 
L 3525 4666 
L 3525 4397 
L 1831 0 
L 1172 0 
L 2766 4134 
L 525 4134 
L 525 4666 
z
" transform="scale(0.015625)"/>
       </defs>
       <use xlink:href="#DejaVuSans-36"/>
       <use xlink:href="#DejaVuSans-37" x="63.623047"/>
      </g>
     </g>
    </g>
    <g id="xtick_4">
     <g id="line2d_4">
      <g>
       <use xlink:href="#mda23cbda28" x="181.327042" y="307.584" style="stroke: #000000; stroke-width: 0.8"/>
      </g>
     </g>
     <g id="text_4">
      <!-- 100 -->
      <g transform="translate(171.783292 322.182437) scale(0.1 -0.1)">
       <defs>
        <path id="DejaVuSans-30" d="M 2034 4250 
Q 1547 4250 1301 3770 
Q 1056 3291 1056 2328 
Q 1056 1369 1301 889 
Q 1547 409 2034 409 
Q 2525 409 2770 889 
Q 3016 1369 3016 2328 
Q 3016 3291 2770 3770 
Q 2525 4250 2034 4250 
z
M 2034 4750 
Q 2819 4750 3233 4129 
Q 3647 3509 3647 2328 
Q 3647 1150 3233 529 
Q 2819 -91 2034 -91 
Q 1250 -91 836 529 
Q 422 1150 422 2328 
Q 422 3509 836 4129 
Q 1250 4750 2034 4750 
z
" transform="scale(0.015625)"/>
       </defs>
       <use xlink:href="#DejaVuSans-31"/>
       <use xlink:href="#DejaVuSans-30" x="63.623047"/>
       <use xlink:href="#DejaVuSans-30" x="127.246094"/>
      </g>
     </g>
    </g>
    <g id="xtick_5">
     <g id="line2d_5">
      <g>
       <use xlink:href="#mda23cbda28" x="217.15848" y="307.584" style="stroke: #000000; stroke-width: 0.8"/>
      </g>
     </g>
     <g id="text_5">
      <!-- 133 -->
      <g transform="translate(207.61473 322.182437) scale(0.1 -0.1)">
       <use xlink:href="#DejaVuSans-31"/>
       <use xlink:href="#DejaVuSans-33" x="63.623047"/>
       <use xlink:href="#DejaVuSans-33" x="127.246094"/>
      </g>
     </g>
    </g>
    <g id="xtick_6">
     <g id="line2d_6">
      <g>
       <use xlink:href="#mda23cbda28" x="254.075719" y="307.584" style="stroke: #000000; stroke-width: 0.8"/>
      </g>
     </g>
     <g id="text_6">
      <!-- 167 -->
      <g transform="translate(244.531969 322.182437) scale(0.1 -0.1)">
       <use xlink:href="#DejaVuSans-31"/>
       <use xlink:href="#DejaVuSans-36" x="63.623047"/>
       <use xlink:href="#DejaVuSans-37" x="127.246094"/>
      </g>
     </g>
    </g>
    <g id="xtick_7">
     <g id="line2d_7">
      <g>
       <use xlink:href="#mda23cbda28" x="289.907157" y="307.584" style="stroke: #000000; stroke-width: 0.8"/>
      </g>
     </g>
     <g id="text_7">
      <!-- 200 -->
      <g transform="translate(280.363407 322.182437) scale(0.1 -0.1)">
       <defs>
        <path id="DejaVuSans-32" d="M 1228 531 
L 3431 531 
L 3431 0 
L 469 0 
L 469 531 
Q 828 903 1448 1529 
Q 2069 2156 2228 2338 
Q 2531 2678 2651 2914 
Q 2772 3150 2772 3378 
Q 2772 3750 2511 3984 
Q 2250 4219 1831 4219 
Q 1534 4219 1204 4116 
Q 875 4013 500 3803 
L 500 4441 
Q 881 4594 1212 4672 
Q 1544 4750 1819 4750 
Q 2544 4750 2975 4387 
Q 3406 4025 3406 3419 
Q 3406 3131 3298 2873 
Q 3191 2616 2906 2266 
Q 2828 2175 2409 1742 
Q 1991 1309 1228 531 
z
" transform="scale(0.015625)"/>
       </defs>
       <use xlink:href="#DejaVuSans-32"/>
       <use xlink:href="#DejaVuSans-30" x="63.623047"/>
       <use xlink:href="#DejaVuSans-30" x="127.246094"/>
      </g>
     </g>
    </g>
    <g id="xtick_8">
     <g id="line2d_8">
      <g>
       <use xlink:href="#mda23cbda28" x="325.738595" y="307.584" style="stroke: #000000; stroke-width: 0.8"/>
      </g>
     </g>
     <g id="text_8">
      <!-- 233 -->
      <g transform="translate(316.194845 322.182437) scale(0.1 -0.1)">
       <use xlink:href="#DejaVuSans-32"/>
       <use xlink:href="#DejaVuSans-33" x="63.623047"/>
       <use xlink:href="#DejaVuSans-33" x="127.246094"/>
      </g>
     </g>
    </g>
    <g id="xtick_9">
     <g id="line2d_9">
      <g>
       <use xlink:href="#mda23cbda28" x="361.570033" y="307.584" style="stroke: #000000; stroke-width: 0.8"/>
      </g>
     </g>
     <g id="text_9">
      <!-- 266 -->
      <g transform="translate(352.026283 322.182437) scale(0.1 -0.1)">
       <use xlink:href="#DejaVuSans-32"/>
       <use xlink:href="#DejaVuSans-36" x="63.623047"/>
       <use xlink:href="#DejaVuSans-36" x="127.246094"/>
      </g>
     </g>
    </g>
    <g id="xtick_10">
     <g id="line2d_10">
      <g>
       <use xlink:href="#mda23cbda28" x="398.487273" y="307.584" style="stroke: #000000; stroke-width: 0.8"/>
      </g>
     </g>
     <g id="text_10">
      <!-- 300 -->
      <g transform="translate(388.943523 322.182437) scale(0.1 -0.1)">
       <use xlink:href="#DejaVuSans-33"/>
       <use xlink:href="#DejaVuSans-30" x="63.623047"/>
       <use xlink:href="#DejaVuSans-30" x="127.246094"/>
      </g>
     </g>
    </g>
    <g id="text_11">
     <!-- Epochs -->
     <g transform="translate(218.244375 335.860562) scale(0.1 -0.1)">
      <defs>
       <path id="DejaVuSans-45" d="M 628 4666 
L 3578 4666 
L 3578 4134 
L 1259 4134 
L 1259 2753 
L 3481 2753 
L 3481 2222 
L 1259 2222 
L 1259 531 
L 3634 531 
L 3634 0 
L 628 0 
L 628 4666 
z
" transform="scale(0.015625)"/>
       <path id="DejaVuSans-70" d="M 1159 525 
L 1159 -1331 
L 581 -1331 
L 581 3500 
L 1159 3500 
L 1159 2969 
Q 1341 3281 1617 3432 
Q 1894 3584 2278 3584 
Q 2916 3584 3314 3078 
Q 3713 2572 3713 1747 
Q 3713 922 3314 415 
Q 2916 -91 2278 -91 
Q 1894 -91 1617 61 
Q 1341 213 1159 525 
z
M 3116 1747 
Q 3116 2381 2855 2742 
Q 2594 3103 2138 3103 
Q 1681 3103 1420 2742 
Q 1159 2381 1159 1747 
Q 1159 1113 1420 752 
Q 1681 391 2138 391 
Q 2594 391 2855 752 
Q 3116 1113 3116 1747 
z
" transform="scale(0.015625)"/>
       <path id="DejaVuSans-6f" d="M 1959 3097 
Q 1497 3097 1228 2736 
Q 959 2375 959 1747 
Q 959 1119 1226 758 
Q 1494 397 1959 397 
Q 2419 397 2687 759 
Q 2956 1122 2956 1747 
Q 2956 2369 2687 2733 
Q 2419 3097 1959 3097 
z
M 1959 3584 
Q 2709 3584 3137 3096 
Q 3566 2609 3566 1747 
Q 3566 888 3137 398 
Q 2709 -91 1959 -91 
Q 1206 -91 779 398 
Q 353 888 353 1747 
Q 353 2609 779 3096 
Q 1206 3584 1959 3584 
z
" transform="scale(0.015625)"/>
       <path id="DejaVuSans-63" d="M 3122 3366 
L 3122 2828 
Q 2878 2963 2633 3030 
Q 2388 3097 2138 3097 
Q 1578 3097 1268 2742 
Q 959 2388 959 1747 
Q 959 1106 1268 751 
Q 1578 397 2138 397 
Q 2388 397 2633 464 
Q 2878 531 3122 666 
L 3122 134 
Q 2881 22 2623 -34 
Q 2366 -91 2075 -91 
Q 1284 -91 818 406 
Q 353 903 353 1747 
Q 353 2603 823 3093 
Q 1294 3584 2113 3584 
Q 2378 3584 2631 3529 
Q 2884 3475 3122 3366 
z
" transform="scale(0.015625)"/>
       <path id="DejaVuSans-68" d="M 3513 2113 
L 3513 0 
L 2938 0 
L 2938 2094 
Q 2938 2591 2744 2837 
Q 2550 3084 2163 3084 
Q 1697 3084 1428 2787 
Q 1159 2491 1159 1978 
L 1159 0 
L 581 0 
L 581 4863 
L 1159 4863 
L 1159 2956 
Q 1366 3272 1645 3428 
Q 1925 3584 2291 3584 
Q 2894 3584 3203 3211 
Q 3513 2838 3513 2113 
z
" transform="scale(0.015625)"/>
       <path id="DejaVuSans-73" d="M 2834 3397 
L 2834 2853 
Q 2591 2978 2328 3040 
Q 2066 3103 1784 3103 
Q 1356 3103 1142 2972 
Q 928 2841 928 2578 
Q 928 2378 1081 2264 
Q 1234 2150 1697 2047 
L 1894 2003 
Q 2506 1872 2764 1633 
Q 3022 1394 3022 966 
Q 3022 478 2636 193 
Q 2250 -91 1575 -91 
Q 1294 -91 989 -36 
Q 684 19 347 128 
L 347 722 
Q 666 556 975 473 
Q 1284 391 1588 391 
Q 1994 391 2212 530 
Q 2431 669 2431 922 
Q 2431 1156 2273 1281 
Q 2116 1406 1581 1522 
L 1381 1569 
Q 847 1681 609 1914 
Q 372 2147 372 2553 
Q 372 3047 722 3315 
Q 1072 3584 1716 3584 
Q 2034 3584 2315 3537 
Q 2597 3491 2834 3397 
z
" transform="scale(0.015625)"/>
      </defs>
      <use xlink:href="#DejaVuSans-45"/>
      <use xlink:href="#DejaVuSans-70" x="63.183594"/>
      <use xlink:href="#DejaVuSans-6f" x="126.660156"/>
      <use xlink:href="#DejaVuSans-63" x="187.841797"/>
      <use xlink:href="#DejaVuSans-68" x="242.822266"/>
      <use xlink:href="#DejaVuSans-73" x="306.201172"/>
     </g>
    </g>
   </g>
   <g id="matplotlib.axis_2">
    <g id="ytick_1">
     <g id="line2d_11">
      <defs>
       <path id="m367c2c6f6e" d="M 0 0 
L -3.5 0 
" style="stroke: #000000; stroke-width: 0.8"/>
      </defs>
      <g>
       <use xlink:href="#m367c2c6f6e" x="57.6" y="294.918914" style="stroke: #000000; stroke-width: 0.8"/>
      </g>
     </g>
     <g id="text_12">
      <!-- 30 -->
      <g transform="translate(37.875 298.718133) scale(0.1 -0.1)">
       <use xlink:href="#DejaVuSans-33"/>
       <use xlink:href="#DejaVuSans-30" x="63.623047"/>
      </g>
     </g>
    </g>
    <g id="ytick_2">
     <g id="line2d_12">
      <g>
       <use xlink:href="#m367c2c6f6e" x="57.6" y="258.43903" style="stroke: #000000; stroke-width: 0.8"/>
      </g>
     </g>
     <g id="text_13">
      <!-- 40 -->
      <g transform="translate(37.875 262.238248) scale(0.1 -0.1)">
       <use xlink:href="#DejaVuSans-34"/>
       <use xlink:href="#DejaVuSans-30" x="63.623047"/>
      </g>
     </g>
    </g>
    <g id="ytick_3">
     <g id="line2d_13">
      <g>
       <use xlink:href="#m367c2c6f6e" x="57.6" y="221.959145" style="stroke: #000000; stroke-width: 0.8"/>
      </g>
     </g>
     <g id="text_14">
      <!-- 50 -->
      <g transform="translate(37.875 225.758364) scale(0.1 -0.1)">
       <defs>
        <path id="DejaVuSans-35" d="M 691 4666 
L 3169 4666 
L 3169 4134 
L 1269 4134 
L 1269 2991 
Q 1406 3038 1543 3061 
Q 1681 3084 1819 3084 
Q 2600 3084 3056 2656 
Q 3513 2228 3513 1497 
Q 3513 744 3044 326 
Q 2575 -91 1722 -91 
Q 1428 -91 1123 -41 
Q 819 9 494 109 
L 494 744 
Q 775 591 1075 516 
Q 1375 441 1709 441 
Q 2250 441 2565 725 
Q 2881 1009 2881 1497 
Q 2881 1984 2565 2268 
Q 2250 2553 1709 2553 
Q 1456 2553 1204 2497 
Q 953 2441 691 2322 
L 691 4666 
z
" transform="scale(0.015625)"/>
       </defs>
       <use xlink:href="#DejaVuSans-35"/>
       <use xlink:href="#DejaVuSans-30" x="63.623047"/>
      </g>
     </g>
    </g>
    <g id="ytick_4">
     <g id="line2d_14">
      <g>
       <use xlink:href="#m367c2c6f6e" x="57.6" y="185.479261" style="stroke: #000000; stroke-width: 0.8"/>
      </g>
     </g>
     <g id="text_15">
      <!-- 60 -->
      <g transform="translate(37.875 189.27848) scale(0.1 -0.1)">
       <use xlink:href="#DejaVuSans-36"/>
       <use xlink:href="#DejaVuSans-30" x="63.623047"/>
      </g>
     </g>
    </g>
    <g id="ytick_5">
     <g id="line2d_15">
      <g>
       <use xlink:href="#m367c2c6f6e" x="57.6" y="148.999377" style="stroke: #000000; stroke-width: 0.8"/>
      </g>
     </g>
     <g id="text_16">
      <!-- 70 -->
      <g transform="translate(37.875 152.798596) scale(0.1 -0.1)">
       <use xlink:href="#DejaVuSans-37"/>
       <use xlink:href="#DejaVuSans-30" x="63.623047"/>
      </g>
     </g>
    </g>
    <g id="ytick_6">
     <g id="line2d_16">
      <g>
       <use xlink:href="#m367c2c6f6e" x="57.6" y="112.519493" style="stroke: #000000; stroke-width: 0.8"/>
      </g>
     </g>
     <g id="text_17">
      <!-- 80 -->
      <g transform="translate(37.875 116.318712) scale(0.1 -0.1)">
       <defs>
        <path id="DejaVuSans-38" d="M 2034 2216 
Q 1584 2216 1326 1975 
Q 1069 1734 1069 1313 
Q 1069 891 1326 650 
Q 1584 409 2034 409 
Q 2484 409 2743 651 
Q 3003 894 3003 1313 
Q 3003 1734 2745 1975 
Q 2488 2216 2034 2216 
z
M 1403 2484 
Q 997 2584 770 2862 
Q 544 3141 544 3541 
Q 544 4100 942 4425 
Q 1341 4750 2034 4750 
Q 2731 4750 3128 4425 
Q 3525 4100 3525 3541 
Q 3525 3141 3298 2862 
Q 3072 2584 2669 2484 
Q 3125 2378 3379 2068 
Q 3634 1759 3634 1313 
Q 3634 634 3220 271 
Q 2806 -91 2034 -91 
Q 1263 -91 848 271 
Q 434 634 434 1313 
Q 434 1759 690 2068 
Q 947 2378 1403 2484 
z
M 1172 3481 
Q 1172 3119 1398 2916 
Q 1625 2713 2034 2713 
Q 2441 2713 2670 2916 
Q 2900 3119 2900 3481 
Q 2900 3844 2670 4047 
Q 2441 4250 2034 4250 
Q 1625 4250 1398 4047 
Q 1172 3844 1172 3481 
z
" transform="scale(0.015625)"/>
       </defs>
       <use xlink:href="#DejaVuSans-38"/>
       <use xlink:href="#DejaVuSans-30" x="63.623047"/>
      </g>
     </g>
    </g>
    <g id="ytick_7">
     <g id="line2d_17">
      <g>
       <use xlink:href="#m367c2c6f6e" x="57.6" y="76.039609" style="stroke: #000000; stroke-width: 0.8"/>
      </g>
     </g>
     <g id="text_18">
      <!-- 90 -->
      <g transform="translate(37.875 79.838827) scale(0.1 -0.1)">
       <defs>
        <path id="DejaVuSans-39" d="M 703 97 
L 703 672 
Q 941 559 1184 500 
Q 1428 441 1663 441 
Q 2288 441 2617 861 
Q 2947 1281 2994 2138 
Q 2813 1869 2534 1725 
Q 2256 1581 1919 1581 
Q 1219 1581 811 2004 
Q 403 2428 403 3163 
Q 403 3881 828 4315 
Q 1253 4750 1959 4750 
Q 2769 4750 3195 4129 
Q 3622 3509 3622 2328 
Q 3622 1225 3098 567 
Q 2575 -91 1691 -91 
Q 1453 -91 1209 -44 
Q 966 3 703 97 
z
M 1959 2075 
Q 2384 2075 2632 2365 
Q 2881 2656 2881 3163 
Q 2881 3666 2632 3958 
Q 2384 4250 1959 4250 
Q 1534 4250 1286 3958 
Q 1038 3666 1038 3163 
Q 1038 2656 1286 2365 
Q 1534 2075 1959 2075 
z
" transform="scale(0.015625)"/>
       </defs>
       <use xlink:href="#DejaVuSans-39"/>
       <use xlink:href="#DejaVuSans-30" x="63.623047"/>
      </g>
     </g>
    </g>
    <g id="text_19">
     <!-- Accuracy -->
     <g transform="translate(31.795312 197.356125) rotate(-90) scale(0.1 -0.1)">
      <defs>
       <path id="DejaVuSans-41" d="M 2188 4044 
L 1331 1722 
L 3047 1722 
L 2188 4044 
z
M 1831 4666 
L 2547 4666 
L 4325 0 
L 3669 0 
L 3244 1197 
L 1141 1197 
L 716 0 
L 50 0 
L 1831 4666 
z
" transform="scale(0.015625)"/>
       <path id="DejaVuSans-75" d="M 544 1381 
L 544 3500 
L 1119 3500 
L 1119 1403 
Q 1119 906 1312 657 
Q 1506 409 1894 409 
Q 2359 409 2629 706 
Q 2900 1003 2900 1516 
L 2900 3500 
L 3475 3500 
L 3475 0 
L 2900 0 
L 2900 538 
Q 2691 219 2414 64 
Q 2138 -91 1772 -91 
Q 1169 -91 856 284 
Q 544 659 544 1381 
z
M 1991 3584 
L 1991 3584 
z
" transform="scale(0.015625)"/>
       <path id="DejaVuSans-72" d="M 2631 2963 
Q 2534 3019 2420 3045 
Q 2306 3072 2169 3072 
Q 1681 3072 1420 2755 
Q 1159 2438 1159 1844 
L 1159 0 
L 581 0 
L 581 3500 
L 1159 3500 
L 1159 2956 
Q 1341 3275 1631 3429 
Q 1922 3584 2338 3584 
Q 2397 3584 2469 3576 
Q 2541 3569 2628 3553 
L 2631 2963 
z
" transform="scale(0.015625)"/>
       <path id="DejaVuSans-61" d="M 2194 1759 
Q 1497 1759 1228 1600 
Q 959 1441 959 1056 
Q 959 750 1161 570 
Q 1363 391 1709 391 
Q 2188 391 2477 730 
Q 2766 1069 2766 1631 
L 2766 1759 
L 2194 1759 
z
M 3341 1997 
L 3341 0 
L 2766 0 
L 2766 531 
Q 2569 213 2275 61 
Q 1981 -91 1556 -91 
Q 1019 -91 701 211 
Q 384 513 384 1019 
Q 384 1609 779 1909 
Q 1175 2209 1959 2209 
L 2766 2209 
L 2766 2266 
Q 2766 2663 2505 2880 
Q 2244 3097 1772 3097 
Q 1472 3097 1187 3025 
Q 903 2953 641 2809 
L 641 3341 
Q 956 3463 1253 3523 
Q 1550 3584 1831 3584 
Q 2591 3584 2966 3190 
Q 3341 2797 3341 1997 
z
" transform="scale(0.015625)"/>
       <path id="DejaVuSans-79" d="M 2059 -325 
Q 1816 -950 1584 -1140 
Q 1353 -1331 966 -1331 
L 506 -1331 
L 506 -850 
L 844 -850 
Q 1081 -850 1212 -737 
Q 1344 -625 1503 -206 
L 1606 56 
L 191 3500 
L 800 3500 
L 1894 763 
L 2988 3500 
L 3597 3500 
L 2059 -325 
z
" transform="scale(0.015625)"/>
      </defs>
      <use xlink:href="#DejaVuSans-41"/>
      <use xlink:href="#DejaVuSans-63" x="66.658203"/>
      <use xlink:href="#DejaVuSans-63" x="121.638672"/>
      <use xlink:href="#DejaVuSans-75" x="176.619141"/>
      <use xlink:href="#DejaVuSans-72" x="239.998047"/>
      <use xlink:href="#DejaVuSans-61" x="281.111328"/>
      <use xlink:href="#DejaVuSans-63" x="342.390625"/>
      <use xlink:href="#DejaVuSans-79" x="397.371094"/>
     </g>
    </g>
   </g>
   <g id="line2d_18">
    <path d="M 73.832727 295.488 
L 74.918528 231.378252 
L 76.00433 197.824054 
L 77.090131 182.225256 
L 78.175932 170.420365 
L 82.519137 145.307613 
L 83.604938 142.44759 
L 84.690739 138.048116 
L 85.77654 134.94003 
L 86.862341 131.284745 
L 87.948142 128.220435 
L 89.033943 126.600728 
L 90.119745 122.755748 
L 91.205546 119.961389 
L 92.291347 117.699636 
L 93.377148 116.71468 
L 94.462949 116.743863 
L 95.54875 140.878955 
L 96.634552 142.396518 
L 97.720353 138.106484 
L 98.806154 136.165754 
L 99.891955 135.012989 
L 100.977756 131.744392 
L 102.063557 130.963722 
L 103.149358 129.745294 
L 106.406762 123.529122 
L 107.492563 124.448415 
L 108.578364 122.35447 
L 109.664165 121.522728 
L 110.749967 119.888429 
L 111.835768 117.590197 
L 112.921569 119.253679 
L 114.00737 116.619832 
L 115.093171 114.576958 
L 116.178972 113.745217 
L 117.264773 112.205766 
L 118.350575 110.870602 
L 120.522177 107.820884 
L 121.607978 106.660823 
L 122.693779 105.894746 
L 123.77958 104.72739 
L 124.865382 103.224418 
L 125.951183 102.465637 
L 127.036984 102.494821 
L 128.122785 99.43051 
L 129.208586 99.029232 
L 130.294387 99.007344 
L 131.380189 98.182898 
L 132.46599 96.869623 
L 133.551791 96.577783 
L 134.637592 95.505275 
L 135.723393 95.906554 
L 136.809194 94.841341 
L 137.894995 95.476091 
L 138.980797 116.751159 
L 140.066598 121.004714 
L 141.152399 119.793582 
L 142.2382 117.619381 
L 143.324001 118.319794 
L 144.409802 116.670904 
L 145.495604 117.079478 
L 146.581405 115.430588 
L 147.667206 115.561915 
L 148.753007 114.255935 
L 149.838808 113.555522 
L 150.924609 114.248639 
L 152.01041 113.022915 
L 153.096212 113.745217 
L 154.182013 111.578312 
L 155.267814 112.27143 
L 156.353615 110.673611 
L 157.439416 111.257289 
L 158.525217 110.097229 
L 159.611019 108.747473 
L 160.69682 109.973197 
L 161.782621 108.35349 
L 163.954223 107.543637 
L 165.040024 107.521749 
L 166.125825 106.128217 
L 167.211627 107.332053 
L 168.297428 106.266841 
L 169.383229 104.851421 
L 170.46903 105.114076 
L 171.554831 104.216671 
L 172.640632 103.997792 
L 173.726434 104.085344 
L 174.812235 101.356648 
L 175.898036 103.042019 
L 178.069638 100.962666 
L 179.155439 101.101289 
L 180.24124 100.06526 
L 181.327042 100.590571 
L 182.412843 99.875565 
L 183.498644 98.627953 
L 184.584445 100.036076 
L 185.670246 98.226674 
L 186.756047 98.584177 
L 187.841849 95.84089 
L 188.92765 96.504824 
L 190.013451 96.008697 
L 191.099252 94.454654 
L 192.185053 94.958077 
L 193.270854 94.170111 
L 194.356656 93.703169 
L 195.442457 93.053827 
L 196.528258 91.718663 
L 197.614059 92.163717 
L 198.69986 91.95943 
L 199.785661 91.50708 
L 200.871462 90.83585 
L 201.957264 89.340174 
L 203.043065 88.588689 
L 204.128866 88.158226 
L 205.214667 88.231186 
L 206.300468 87.093014 
L 207.386269 87.290005 
L 208.472071 86.786583 
L 209.557872 86.626071 
L 210.643673 86.166425 
L 211.729474 85.064732 
L 212.815275 85.363867 
L 213.901076 85.531675 
L 214.986877 84.444574 
L 216.072679 85.035548 
L 217.15848 84.955292 
L 218.244281 84.276767 
L 219.330082 84.34243 
L 220.415883 83.933856 
L 221.501684 83.160482 
L 222.587486 83.058338 
L 223.673287 84.269471 
L 224.759088 83.445025 
L 225.844889 106.930775 
L 226.93069 110.3307 
L 228.016491 109.856461 
L 229.102292 109.65947 
L 230.188094 109.229007 
L 231.273895 108.265938 
L 232.359696 106.741079 
L 233.445497 107.441493 
L 234.531298 107.237206 
L 235.617099 108.258642 
L 236.702901 107.332053 
L 238.874503 105.953114 
L 241.046105 106.347096 
L 242.131906 105.909338 
L 243.217708 105.792602 
L 244.303509 105.829082 
L 245.38931 105.070301 
L 246.475111 104.829533 
L 248.646713 103.83728 
L 249.732514 103.114979 
L 250.818316 104.129119 
L 251.904117 101.422312 
L 252.989918 103.085795 
L 254.075719 103.443298 
L 255.16152 102.78666 
L 256.247321 101.4442 
L 257.333123 102.509413 
L 258.418924 102.961763 
L 259.504725 101.356648 
L 260.590526 101.458792 
L 261.676327 101.37124 
L 262.762128 102.560484 
L 263.847929 102.093542 
L 264.933731 101.050217 
L 266.019532 101.896551 
L 267.105333 101.013737 
L 268.191134 101.269097 
L 269.276935 101.239913 
L 270.362736 100.999145 
L 271.448538 99.707758 
L 272.534339 100.233068 
L 273.62014 99.788013 
L 274.705941 100.269548 
L 275.791742 98.927088 
L 276.877543 99.569134 
L 277.963344 99.094895 
L 279.049146 97.241717 
L 280.134947 98.292338 
L 281.220748 98.919792 
L 282.306549 97.978611 
L 283.39235 97.752436 
L 284.478151 97.927539 
L 285.563953 97.409525 
L 286.649754 97.752436 
L 287.735555 97.176054 
L 288.821356 96.264056 
L 289.907157 96.767479 
L 290.992958 97.591924 
L 292.07876 95.891962 
L 293.164561 94.848637 
L 294.250362 95.519867 
L 295.336163 94.870525 
L 296.421964 95.184252 
L 297.507765 95.082108 
L 298.593566 95.315579 
L 299.679368 94.002304 
L 300.765169 95.220732 
L 301.85097 94.374398 
L 302.936771 94.170111 
L 304.022572 93.841792 
L 305.108373 93.126786 
L 306.194175 93.593729 
L 307.279976 92.77658 
L 308.365777 92.426373 
L 309.451578 93.323778 
L 310.537379 92.353413 
L 311.62318 92.076166 
L 312.708981 90.813962 
L 313.794783 91.893766 
L 314.880584 91.915654 
L 315.966385 91.010953 
L 317.052186 90.376203 
L 318.137987 90.974473 
L 319.223788 90.923401 
L 320.30959 91.390344 
L 321.395391 90.339723 
L 322.481192 89.923853 
L 323.566993 90.157324 
L 324.652794 89.310991 
L 325.738595 89.52987 
L 326.824396 88.880528 
L 327.910198 88.566801 
L 328.995999 89.055631 
L 330.0818 88.625169 
L 331.167601 88.070674 
L 332.253402 87.786131 
L 333.339203 86.91791 
L 334.425005 87.384853 
L 335.510806 86.261272 
L 336.596607 87.654804 
L 337.682408 85.057436 
L 338.768209 86.567703 
L 339.85401 85.451419 
L 340.939811 85.341979 
L 343.111414 83.831712 
L 344.197215 84.831261 
L 345.283016 84.262175 
L 346.368817 84.393502 
L 347.454618 83.335585 
L 348.54042 83.102114 
L 349.626221 83.393953 
L 350.712022 83.313698 
L 351.797823 82.868643 
L 352.883624 82.671652 
L 353.969425 81.20516 
L 355.055227 81.971238 
L 356.141028 81.737767 
L 357.226829 81.066537 
L 359.398431 80.395307 
L 360.484232 80.220203 
L 361.570033 79.877292 
L 362.655835 81.154088 
L 363.741636 79.44683 
L 364.827437 80.548522 
L 365.913238 79.913772 
L 366.999039 78.899632 
L 368.08484 80.15454 
L 369.170642 80.0451 
L 370.256443 80.803882 
L 371.342244 81.890982 
L 372.428045 82.62058 
L 373.513846 82.722723 
L 374.599647 82.102565 
L 376.77125 82.934307 
L 377.857051 82.554916 
L 378.942852 82.343333 
L 380.028653 82.934307 
L 381.114454 81.98583 
L 382.200255 82.788387 
L 384.371858 82.554916 
L 385.457659 82.044198 
L 386.54346 82.219301 
L 387.629261 82.233893 
L 388.715062 82.671652 
L 389.800863 82.51114 
L 390.886665 82.095269 
L 393.058267 81.963942 
L 394.144068 82.372517 
L 395.229869 82.204709 
L 397.401472 83.452321 
L 398.487273 82.263077 
L 398.487273 82.263077 
" clip-path="url(#pdcca9168f7)" style="fill: none; stroke: #1f77b4; stroke-width: 1.5; stroke-linecap: square"/>
   </g>
   <g id="line2d_19">
    <path d="M 73.832727 231.808714 
L 74.918528 160.198701 
L 76.00433 147.503702 
L 77.090131 137.398774 
L 78.175932 124.047136 
L 79.261733 115.073085 
L 80.347534 107.521749 
L 81.433335 105.807194 
L 82.519137 104.931677 
L 83.604938 96.614263 
L 84.690739 95.592827 
L 85.77654 97.197941 
L 86.862341 85.305499 
L 87.948142 85.451419 
L 89.033943 84.429982 
L 90.119745 80.927913 
L 91.205546 79.176879 
L 92.291347 79.869997 
L 93.377148 78.374321 
L 94.462949 77.863603 
L 95.54875 112.884292 
L 96.634552 105.223516 
L 97.720353 91.178761 
L 98.806154 91.981318 
L 99.891955 92.200197 
L 100.977756 92.783876 
L 102.063557 91.36116 
L 103.149358 84.357022 
L 104.23516 85.889177 
L 105.320961 83.408545 
L 106.406762 82.824867 
L 107.492563 81.94935 
L 108.578364 79.687597 
L 109.664165 80.599594 
L 110.749967 79.286318 
L 111.835768 78.70264 
L 112.921569 76.440887 
L 114.00737 77.498804 
L 115.093171 74.398014 
L 116.178972 74.762813 
L 117.264773 73.449537 
L 118.350575 73.668416 
L 119.436376 72.282181 
L 120.522177 70.494666 
L 121.607978 70.056908 
L 122.693779 70.020428 
L 123.77958 68.342353 
L 124.865382 70.859465 
L 125.951183 67.685715 
L 127.036984 65.715801 
L 128.122785 65.679322 
L 129.208586 65.168603 
L 130.294387 64.876764 
L 131.380189 64.366046 
L 132.46599 63.527008 
L 133.551791 63.381089 
L 134.637592 63.05277 
L 135.723393 62.578531 
L 137.894995 62.615011 
L 138.980797 79.760557 
L 140.066598 83.043746 
L 141.152399 77.279925 
L 142.2382 78.92152 
L 143.324001 77.279925 
L 144.409802 75.966649 
L 145.495604 76.477367 
L 146.581405 75.74777 
L 147.667206 81.402152 
L 148.753007 74.543933 
L 149.838808 77.134005 
L 150.924609 76.842166 
L 152.01041 75.63833 
L 153.096212 75.56537 
L 154.182013 72.902339 
L 155.267814 79.687597 
L 156.353615 72.683459 
L 157.439416 73.084738 
L 158.525217 72.4281 
L 159.611019 73.741376 
L 160.69682 72.026821 
L 161.782621 73.923775 
L 162.868422 71.990342 
L 163.954223 69.071951 
L 165.040024 71.078344 
L 166.125825 70.275787 
L 167.211627 71.005385 
L 168.297428 69.21787 
L 169.383229 70.239307 
L 170.46903 70.677066 
L 171.554831 68.415313 
L 172.640632 68.707152 
L 173.726434 68.123474 
L 174.812235 68.342353 
L 175.898036 67.284436 
L 176.983837 69.108431 
L 178.069638 68.561232 
L 179.155439 67.102037 
L 181.327042 65.825241 
L 182.412843 64.511965 
L 183.498644 65.460442 
L 184.584445 65.898201 
L 185.670246 63.563488 
L 186.756047 64.256606 
L 187.841849 64.767324 
L 188.92765 63.745888 
L 190.013451 65.278043 
L 191.099252 62.505572 
L 192.185053 63.16221 
L 193.270854 62.177253 
L 194.356656 62.067813 
L 195.442457 62.94333 
L 196.528258 60.973416 
L 197.614059 61.958373 
L 198.69986 60.061419 
L 199.785661 62.104293 
L 200.871462 60.863977 
L 201.957264 60.389738 
L 203.043065 59.550701 
L 204.128866 59.149422 
L 205.214667 60.170859 
L 206.300468 60.389738 
L 207.386269 59.149422 
L 208.472071 58.456304 
L 209.557872 58.711664 
L 210.643673 58.711664 
L 211.729474 57.799667 
L 213.901076 58.200945 
L 214.986877 57.544307 
L 216.072679 58.055026 
L 217.15848 57.325428 
L 218.244281 57.653747 
L 219.330082 57.617267 
L 220.415883 57.909106 
L 222.587486 57.653747 
L 224.759088 57.398388 
L 225.844889 74.580413 
L 226.93069 72.282181 
L 228.016491 74.689853 
L 229.102292 70.421706 
L 230.188094 71.443143 
L 231.273895 72.719939 
L 232.359696 71.114824 
L 234.531298 71.807942 
L 235.617099 67.612755 
L 236.702901 69.108431 
L 237.788702 71.990342 
L 238.874503 70.895945 
L 239.960304 71.771462 
L 241.046105 68.926031 
L 242.131906 70.239307 
L 243.217708 69.509709 
L 244.303509 69.801548 
L 245.38931 69.29083 
L 246.475111 73.011778 
L 247.560912 69.765069 
L 248.646713 68.707152 
L 249.732514 67.868115 
L 250.818316 70.567626 
L 251.904117 71.406663 
L 252.989918 67.357396 
L 254.075719 67.758675 
L 255.16152 67.430356 
L 256.247321 71.078344 
L 257.333123 69.144911 
L 259.504725 66.773718 
L 260.590526 66.22652 
L 261.676327 66.591319 
L 262.762128 68.014034 
L 263.847929 66.408919 
L 266.019532 64.840284 
L 267.105333 64.548445 
L 268.191134 65.533402 
L 269.276935 66.810198 
L 270.362736 64.256606 
L 271.448538 67.539796 
L 272.534339 65.278043 
L 273.62014 67.649235 
L 274.705941 67.941074 
L 275.791742 63.271649 
L 276.877543 64.621405 
L 277.963344 65.022684 
L 279.049146 66.29948 
L 280.134947 65.205083 
L 281.220748 64.657885 
L 282.306549 65.861721 
L 283.39235 65.460442 
L 284.478151 64.402526 
L 286.649754 63.636448 
L 287.735555 62.833891 
L 288.821356 64.986204 
L 289.907157 63.855327 
L 290.992958 64.001247 
L 292.07876 63.672928 
L 293.164561 64.110687 
L 295.336163 62.177253 
L 297.507765 63.454049 
L 298.593566 62.359652 
L 299.679368 62.615011 
L 300.765169 62.067813 
L 301.85097 63.235169 
L 302.936771 61.119336 
L 304.022572 63.198689 
L 305.108373 63.599968 
L 306.194175 61.593575 
L 307.279976 61.885414 
L 308.365777 61.958373 
L 309.451578 61.739494 
L 310.537379 61.192296 
L 311.62318 62.067813 
L 312.708981 61.557095 
L 313.794783 60.754537 
L 314.880584 63.235169 
L 315.966385 62.140773 
L 317.052186 60.645098 
L 318.137987 60.645098 
L 319.223788 61.228776 
L 320.30959 60.02494 
L 321.395391 60.572138 
L 322.481192 59.9155 
L 323.566993 59.076463 
L 324.652794 58.638704 
L 325.738595 60.973416 
L 326.824396 59.222382 
L 327.910198 59.76958 
L 328.995999 58.164465 
L 330.0818 58.857583 
L 331.167601 58.346865 
L 332.253402 59.076463 
L 333.339203 59.623661 
L 334.425005 57.726707 
L 335.510806 56.924149 
L 336.596607 58.127986 
L 337.682408 57.909106 
L 338.768209 59.76958 
L 339.85401 56.74175 
L 340.939811 57.544307 
L 342.025613 56.559351 
L 344.197215 57.288948 
L 346.368817 57.070069 
L 347.454618 56.048632 
L 349.626221 55.902713 
L 350.712022 57.434868 
L 351.797823 55.501434 
L 353.969425 55.391994 
L 355.055227 56.267511 
L 356.141028 55.793273 
L 357.226829 55.793273 
L 358.31263 55.391994 
L 359.398431 55.610874 
L 360.484232 54.990715 
L 361.570033 56.048632 
L 362.655835 55.829753 
L 363.741636 56.085112 
L 364.827437 54.844796 
L 365.913238 55.173115 
L 366.999039 54.261118 
L 368.08484 54.516477 
L 369.170642 55.063675 
L 370.256443 56.048632 
L 371.342244 55.246075 
L 372.428045 56.924149 
L 374.599647 55.647353 
L 375.685448 56.449911 
L 376.77125 56.340471 
L 377.857051 55.391994 
L 378.942852 56.267511 
L 380.028653 55.610874 
L 381.114454 56.303991 
L 382.200255 56.012152 
L 383.286057 57.471348 
L 384.371858 55.537914 
L 385.457659 55.647353 
L 386.54346 56.887669 
L 387.629261 56.376951 
L 388.715062 55.647353 
L 389.800863 55.428474 
L 390.886665 56.231032 
L 391.972466 56.303991 
L 393.058267 55.501434 
L 394.144068 56.449911 
L 395.229869 55.647353 
L 396.31567 57.580787 
L 397.401472 56.413431 
L 398.487273 55.939192 
L 398.487273 55.939192 
" clip-path="url(#pdcca9168f7)" style="fill: none; stroke: #ff7f0e; stroke-width: 1.5; stroke-linecap: square"/>
   </g>
   <g id="line2d_20">
    <path d="M 73.832727 249.432272 
L 74.918528 194.209275 
L 76.00433 181.52937 
L 77.090131 172.296186 
L 78.175932 151.791975 
L 80.347534 144.194096 
L 81.433335 138.634058 
L 82.519137 137.376131 
L 83.604938 133.048862 
L 84.690739 133.929411 
L 85.77654 131.53935 
L 86.862341 120.545067 
L 87.948142 121.853311 
L 89.033943 119.085872 
L 90.119745 116.771286 
L 91.205546 113.77742 
L 92.291347 114.381225 
L 93.377148 112.972347 
L 94.462949 112.594968 
L 95.54875 142.785217 
L 96.634552 145.653291 
L 97.720353 126.054788 
L 98.806154 129.853727 
L 99.891955 128.193264 
L 100.977756 129.551825 
L 102.063557 128.444849 
L 103.149358 121.123714 
L 104.23516 120.872128 
L 105.320961 117.349933 
L 106.406762 119.035555 
L 107.492563 119.211665 
L 109.664165 114.154798 
L 110.749967 108.468968 
L 111.835768 114.406383 
L 112.921569 108.720553 
L 114.00737 110.406175 
L 115.093171 107.512943 
L 116.178972 109.12309 
L 117.264773 105.32415 
L 118.350575 109.550785 
L 119.436376 104.418443 
L 120.522177 102.129015 
L 121.607978 100.468552 
L 122.693779 104.418443 
L 123.77958 97.977856 
L 124.865382 101.902589 
L 125.951183 96.845722 
L 127.036984 96.896039 
L 128.122785 95.940014 
L 129.208586 95.914856 
L 130.294387 94.455661 
L 131.380189 94.98399 
L 132.46599 92.593929 
L 133.551791 91.738538 
L 134.637592 92.493294 
L 135.723393 92.115916 
L 136.809194 91.964965 
L 137.894995 91.512111 
L 138.980797 117.526042 
L 140.066598 124.746544 
L 141.152399 117.777628 
L 142.2382 118.155006 
L 143.324001 110.406175 
L 144.409802 112.56981 
L 145.495604 112.368542 
L 146.581405 110.230066 
L 147.667206 115.085664 
L 148.753007 107.437468 
L 149.838808 111.035139 
L 152.01041 113.299408 
L 153.096212 109.97848 
L 154.182013 109.424992 
L 155.267814 114.708286 
L 156.353615 106.70787 
L 158.525217 104.921614 
L 159.611019 109.399834 
L 160.69682 105.32415 
L 161.782621 107.814846 
L 162.868422 107.588419 
L 163.954223 103.839796 
L 165.040024 104.971931 
L 166.125825 103.43726 
L 167.211627 105.50026 
L 168.297428 102.556711 
L 169.383229 100.694979 
L 170.46903 106.53176 
L 171.554831 101.474893 
L 172.640632 101.751637 
L 173.726434 100.292442 
L 174.812235 100.166649 
L 175.898036 96.694771 
L 176.983837 102.129015 
L 178.069638 99.63832 
L 179.155439 102.129015 
L 180.24124 98.053332 
L 181.327042 94.958831 
L 182.412843 95.487161 
L 183.498644 96.166441 
L 184.584445 95.864539 
L 185.670246 95.814222 
L 186.756047 93.071941 
L 187.841849 93.323526 
L 188.92765 96.342551 
L 190.013451 95.009148 
L 191.099252 93.373843 
L 192.185053 94.204075 
L 193.270854 91.839172 
L 194.356656 94.027965 
L 195.442457 94.355026 
L 196.528258 92.39266 
L 198.69986 89.524587 
L 199.785661 89.071733 
L 200.871462 87.838964 
L 203.043065 89.348477 
L 204.128866 89.851648 
L 205.214667 88.115708 
L 206.300468 88.870464 
L 207.386269 85.926915 
L 208.472071 86.279135 
L 209.557872 85.750805 
L 210.643673 85.700488 
L 211.729474 84.367086 
L 212.815275 84.1155 
L 213.901076 84.090342 
L 214.986877 82.857573 
L 216.072679 84.090342 
L 217.15848 83.93939 
L 218.244281 83.285268 
L 219.330082 83.511695 
L 220.415883 84.140659 
L 221.501684 84.920574 
L 222.587486 83.159476 
L 223.673287 82.983366 
L 224.759088 82.656305 
L 225.844889 109.148248 
L 226.93069 109.424992 
L 228.016491 112.56981 
L 229.102292 106.255016 
L 230.188094 104.997089 
L 231.273895 106.104065 
L 232.359696 107.840004 
L 233.445497 104.670028 
L 234.531298 108.318017 
L 235.617099 102.129015 
L 236.702901 105.32415 
L 237.788702 107.160724 
L 238.874503 104.267491 
L 239.960304 109.752053 
L 241.046105 107.110407 
L 242.131906 103.185674 
L 243.217708 103.034723 
L 245.38931 101.927747 
L 246.475111 106.582077 
L 247.560912 105.525419 
L 248.646713 103.512735 
L 249.732514 104.46876 
L 250.818316 107.638736 
L 251.904117 105.50026 
L 252.989918 97.550161 
L 254.075719 104.519077 
L 255.16152 104.192016 
L 256.247321 109.097931 
L 257.333123 104.871296 
L 258.418924 102.028381 
L 259.504725 101.02204 
L 260.590526 98.732612 
L 261.676327 98.179125 
L 262.762128 100.191808 
L 263.847929 100.996881 
L 264.933731 99.537686 
L 266.019532 98.682295 
L 267.105333 97.072149 
L 268.191134 94.707246 
L 269.276935 99.864747 
L 270.362736 94.833039 
L 271.448538 99.411893 
L 272.534339 98.808088 
L 273.62014 100.191808 
L 274.705941 97.323734 
L 275.791742 97.449527 
L 276.877543 98.2546 
L 277.963344 95.1601 
L 279.049146 98.43071 
L 281.220748 95.663271 
L 282.306549 100.443393 
L 283.39235 98.757771 
L 284.478151 95.965173 
L 285.563953 99.688637 
L 286.649754 95.084624 
L 287.735555 95.562636 
L 288.821356 97.927539 
L 289.907157 95.512319 
L 290.992958 99.588003 
L 292.07876 97.625637 
L 293.164561 96.36771 
L 294.250362 97.248259 
L 295.336163 94.933673 
L 296.421964 93.42416 
L 297.507765 95.537478 
L 298.593566 94.380185 
L 299.679368 91.587587 
L 300.765169 93.499636 
L 301.85097 92.442977 
L 302.936771 91.562428 
L 304.022572 95.059466 
L 305.108373 94.656929 
L 306.194175 93.95249 
L 307.279976 92.442977 
L 308.365777 93.650587 
L 309.451578 91.411477 
L 310.537379 92.619087 
L 311.62318 91.53727 
L 312.708981 91.788855 
L 313.794783 92.266867 
L 314.880584 91.18505 
L 315.966385 91.864331 
L 317.052186 89.80133 
L 318.137987 91.00894 
L 319.223788 87.864123 
L 320.30959 88.870464 
L 321.395391 89.348477 
L 322.481192 90.229026 
L 323.566993 90.405135 
L 324.652794 90.430294 
L 325.738595 90.908306 
L 326.824396 88.241501 
L 327.910198 88.291818 
L 328.995999 85.297952 
L 330.0818 88.392452 
L 331.167601 86.656513 
L 332.253402 87.537062 
L 333.339203 90.052916 
L 334.425005 88.644038 
L 335.510806 85.096683 
L 336.596607 87.91444 
L 337.682408 85.826281 
L 338.768209 87.310635 
L 339.85401 83.209793 
L 340.939811 84.794781 
L 342.025613 82.580829 
L 343.111414 84.568354 
L 344.197215 84.970891 
L 345.283016 84.744464 
L 346.368817 85.272793 
L 347.454618 83.687805 
L 348.54042 84.140659 
L 349.626221 82.90789 
L 350.712022 83.43622 
L 351.797823 81.423536 
L 352.883624 81.675122 
L 353.969425 82.832415 
L 355.055227 82.505354 
L 356.141028 83.536854 
L 357.226829 83.788439 
L 358.31263 82.278927 
L 361.570033 82.455037 
L 362.655835 82.178293 
L 364.827437 82.756939 
L 365.913238 81.071317 
L 366.999039 80.115292 
L 368.08484 81.926707 
L 369.170642 80.140451 
L 370.256443 82.933049 
L 371.342244 83.712964 
L 372.428045 84.744464 
L 373.513846 84.593513 
L 374.599647 83.234951 
L 375.685448 82.077658 
L 376.77125 82.605988 
L 377.857051 81.901549 
L 378.942852 83.385903 
L 380.028653 83.26011 
L 381.114454 85.373427 
L 382.200255 81.750597 
L 383.286057 82.002183 
L 384.371858 81.599646 
L 385.457659 83.989708 
L 386.54346 83.813598 
L 387.629261 83.989708 
L 388.715062 82.605988 
L 389.800863 83.461378 
L 390.886665 82.102817 
L 391.972466 83.511695 
L 394.144068 82.983366 
L 395.229869 83.461378 
L 396.31567 83.385903 
L 397.401472 82.379561 
L 398.487273 85.448903 
L 398.487273 85.448903 
" clip-path="url(#pdcca9168f7)" style="fill: none; stroke: #2ca02c; stroke-width: 1.5; stroke-linecap: square"/>
   </g>
   <g id="line2d_21">
    <path d="M 368.08484 54.297598 
L 369.170642 54.917756 
L 371.342244 53.60448 
L 372.428045 55.027195 
L 373.513846 53.71392 
L 374.599647 54.078718 
L 375.685448 53.568 
L 376.77125 54.990715 
L 377.857051 54.370557 
L 378.942852 54.443517 
L 381.114454 55.866233 
L 382.200255 55.574394 
L 383.286057 54.954236 
L 384.371858 54.151678 
L 385.457659 53.786879 
L 386.54346 53.823359 
L 388.715062 54.552957 
L 390.886665 53.969279 
L 391.972466 54.844796 
L 393.058267 54.334078 
L 394.144068 54.188158 
L 395.229869 54.407037 
L 396.31567 54.151678 
L 397.401472 54.990715 
L 398.487273 55.428474 
L 398.487273 55.428474 
" clip-path="url(#pdcca9168f7)" style="fill: none; stroke: #d62728; stroke-width: 1.5; stroke-linecap: square"/>
   </g>
   <g id="line2d_22">
    <path d="M 368.08484 80.165609 
L 369.170642 79.159268 
L 370.256443 78.957999 
L 372.428045 80.744256 
L 373.513846 79.536646 
L 375.685448 76.744048 
L 376.77125 79.612121 
L 377.857051 78.42967 
L 378.942852 79.486329 
L 380.028653 78.379353 
L 381.114454 82.530512 
L 382.200255 81.574488 
L 383.286057 79.914024 
L 384.371858 77.700072 
L 385.457659 78.379353 
L 386.54346 77.976816 
L 387.629261 77.775548 
L 388.715062 78.152926 
L 389.800863 79.259902 
L 390.886665 77.876182 
L 391.972466 80.266244 
L 395.229869 76.266036 
L 396.31567 76.643414 
L 397.401472 79.385695 
L 398.487273 79.712756 
L 398.487273 79.712756 
" clip-path="url(#pdcca9168f7)" style="fill: none; stroke: #9467bd; stroke-width: 1.5; stroke-linecap: square"/>
   </g>
   <g id="patch_3">
    <path d="M 57.6 307.584 
L 57.6 41.472 
" style="fill: none; stroke: #000000; stroke-width: 0.8; stroke-linejoin: miter; stroke-linecap: square"/>
   </g>
   <g id="patch_4">
    <path d="M 414.72 307.584 
L 414.72 41.472 
" style="fill: none; stroke: #000000; stroke-width: 0.8; stroke-linejoin: miter; stroke-linecap: square"/>
   </g>
   <g id="patch_5">
    <path d="M 57.6 307.584 
L 414.72 307.584 
" style="fill: none; stroke: #000000; stroke-width: 0.8; stroke-linejoin: miter; stroke-linecap: square"/>
   </g>
   <g id="patch_6">
    <path d="M 57.6 41.472 
L 414.72 41.472 
" style="fill: none; stroke: #000000; stroke-width: 0.8; stroke-linejoin: miter; stroke-linecap: square"/>
   </g>
   <g id="text_20">
    <!-- Learning Curves -->
    <g transform="translate(187.37625 35.472) scale(0.12 -0.12)">
     <defs>
      <path id="DejaVuSans-4c" d="M 628 4666 
L 1259 4666 
L 1259 531 
L 3531 531 
L 3531 0 
L 628 0 
L 628 4666 
z
" transform="scale(0.015625)"/>
      <path id="DejaVuSans-65" d="M 3597 1894 
L 3597 1613 
L 953 1613 
Q 991 1019 1311 708 
Q 1631 397 2203 397 
Q 2534 397 2845 478 
Q 3156 559 3463 722 
L 3463 178 
Q 3153 47 2828 -22 
Q 2503 -91 2169 -91 
Q 1331 -91 842 396 
Q 353 884 353 1716 
Q 353 2575 817 3079 
Q 1281 3584 2069 3584 
Q 2775 3584 3186 3129 
Q 3597 2675 3597 1894 
z
M 3022 2063 
Q 3016 2534 2758 2815 
Q 2500 3097 2075 3097 
Q 1594 3097 1305 2825 
Q 1016 2553 972 2059 
L 3022 2063 
z
" transform="scale(0.015625)"/>
      <path id="DejaVuSans-6e" d="M 3513 2113 
L 3513 0 
L 2938 0 
L 2938 2094 
Q 2938 2591 2744 2837 
Q 2550 3084 2163 3084 
Q 1697 3084 1428 2787 
Q 1159 2491 1159 1978 
L 1159 0 
L 581 0 
L 581 3500 
L 1159 3500 
L 1159 2956 
Q 1366 3272 1645 3428 
Q 1925 3584 2291 3584 
Q 2894 3584 3203 3211 
Q 3513 2838 3513 2113 
z
" transform="scale(0.015625)"/>
      <path id="DejaVuSans-69" d="M 603 3500 
L 1178 3500 
L 1178 0 
L 603 0 
L 603 3500 
z
M 603 4863 
L 1178 4863 
L 1178 4134 
L 603 4134 
L 603 4863 
z
" transform="scale(0.015625)"/>
      <path id="DejaVuSans-67" d="M 2906 1791 
Q 2906 2416 2648 2759 
Q 2391 3103 1925 3103 
Q 1463 3103 1205 2759 
Q 947 2416 947 1791 
Q 947 1169 1205 825 
Q 1463 481 1925 481 
Q 2391 481 2648 825 
Q 2906 1169 2906 1791 
z
M 3481 434 
Q 3481 -459 3084 -895 
Q 2688 -1331 1869 -1331 
Q 1566 -1331 1297 -1286 
Q 1028 -1241 775 -1147 
L 775 -588 
Q 1028 -725 1275 -790 
Q 1522 -856 1778 -856 
Q 2344 -856 2625 -561 
Q 2906 -266 2906 331 
L 2906 616 
Q 2728 306 2450 153 
Q 2172 0 1784 0 
Q 1141 0 747 490 
Q 353 981 353 1791 
Q 353 2603 747 3093 
Q 1141 3584 1784 3584 
Q 2172 3584 2450 3431 
Q 2728 3278 2906 2969 
L 2906 3500 
L 3481 3500 
L 3481 434 
z
" transform="scale(0.015625)"/>
      <path id="DejaVuSans-20" transform="scale(0.015625)"/>
      <path id="DejaVuSans-43" d="M 4122 4306 
L 4122 3641 
Q 3803 3938 3442 4084 
Q 3081 4231 2675 4231 
Q 1875 4231 1450 3742 
Q 1025 3253 1025 2328 
Q 1025 1406 1450 917 
Q 1875 428 2675 428 
Q 3081 428 3442 575 
Q 3803 722 4122 1019 
L 4122 359 
Q 3791 134 3420 21 
Q 3050 -91 2638 -91 
Q 1578 -91 968 557 
Q 359 1206 359 2328 
Q 359 3453 968 4101 
Q 1578 4750 2638 4750 
Q 3056 4750 3426 4639 
Q 3797 4528 4122 4306 
z
" transform="scale(0.015625)"/>
      <path id="DejaVuSans-76" d="M 191 3500 
L 800 3500 
L 1894 563 
L 2988 3500 
L 3597 3500 
L 2284 0 
L 1503 0 
L 191 3500 
z
" transform="scale(0.015625)"/>
     </defs>
     <use xlink:href="#DejaVuSans-4c"/>
     <use xlink:href="#DejaVuSans-65" x="53.962891"/>
     <use xlink:href="#DejaVuSans-61" x="115.486328"/>
     <use xlink:href="#DejaVuSans-72" x="176.765625"/>
     <use xlink:href="#DejaVuSans-6e" x="216.128906"/>
     <use xlink:href="#DejaVuSans-69" x="279.507812"/>
     <use xlink:href="#DejaVuSans-6e" x="307.291016"/>
     <use xlink:href="#DejaVuSans-67" x="370.669922"/>
     <use xlink:href="#DejaVuSans-20" x="434.146484"/>
     <use xlink:href="#DejaVuSans-43" x="465.933594"/>
     <use xlink:href="#DejaVuSans-75" x="535.757812"/>
     <use xlink:href="#DejaVuSans-72" x="599.136719"/>
     <use xlink:href="#DejaVuSans-76" x="640.25"/>
     <use xlink:href="#DejaVuSans-65" x="699.429688"/>
     <use xlink:href="#DejaVuSans-73" x="760.953125"/>
    </g>
   </g>
   <g id="legend_1">
    <g id="patch_7">
     <path d="M 214.18875 302.584 
L 407.72 302.584 
Q 409.72 302.584 409.72 300.584 
L 409.72 228.193375 
Q 409.72 226.193375 407.72 226.193375 
L 214.18875 226.193375 
Q 212.18875 226.193375 212.18875 228.193375 
L 212.18875 300.584 
Q 212.18875 302.584 214.18875 302.584 
z
" style="fill: #ffffff; opacity: 0.8; stroke: #cccccc; stroke-linejoin: miter"/>
    </g>
    <g id="line2d_23">
     <path d="M 216.18875 234.291812 
L 226.18875 234.291812 
L 236.18875 234.291812 
" style="fill: none; stroke: #1f77b4; stroke-width: 1.5; stroke-linecap: square"/>
    </g>
    <g id="text_21">
     <!-- Train Accuracy -->
     <g transform="translate(244.18875 237.791812) scale(0.1 -0.1)">
      <defs>
       <path id="DejaVuSans-54" d="M -19 4666 
L 3928 4666 
L 3928 4134 
L 2272 4134 
L 2272 0 
L 1638 0 
L 1638 4134 
L -19 4134 
L -19 4666 
z
" transform="scale(0.015625)"/>
      </defs>
      <use xlink:href="#DejaVuSans-54"/>
      <use xlink:href="#DejaVuSans-72" x="46.333984"/>
      <use xlink:href="#DejaVuSans-61" x="87.447266"/>
      <use xlink:href="#DejaVuSans-69" x="148.726562"/>
      <use xlink:href="#DejaVuSans-6e" x="176.509766"/>
      <use xlink:href="#DejaVuSans-20" x="239.888672"/>
      <use xlink:href="#DejaVuSans-41" x="271.675781"/>
      <use xlink:href="#DejaVuSans-63" x="338.333984"/>
      <use xlink:href="#DejaVuSans-63" x="393.314453"/>
      <use xlink:href="#DejaVuSans-75" x="448.294922"/>
      <use xlink:href="#DejaVuSans-72" x="511.673828"/>
      <use xlink:href="#DejaVuSans-61" x="552.787109"/>
      <use xlink:href="#DejaVuSans-63" x="614.066406"/>
      <use xlink:href="#DejaVuSans-79" x="669.046875"/>
     </g>
    </g>
    <g id="line2d_24">
     <path d="M 216.18875 248.969937 
L 226.18875 248.969937 
L 236.18875 248.969937 
" style="fill: none; stroke: #ff7f0e; stroke-width: 1.5; stroke-linecap: square"/>
    </g>
    <g id="text_22">
     <!-- Validation Accuracy -->
     <g transform="translate(244.18875 252.469937) scale(0.1 -0.1)">
      <defs>
       <path id="DejaVuSans-56" d="M 1831 0 
L 50 4666 
L 709 4666 
L 2188 738 
L 3669 4666 
L 4325 4666 
L 2547 0 
L 1831 0 
z
" transform="scale(0.015625)"/>
       <path id="DejaVuSans-6c" d="M 603 4863 
L 1178 4863 
L 1178 0 
L 603 0 
L 603 4863 
z
" transform="scale(0.015625)"/>
       <path id="DejaVuSans-64" d="M 2906 2969 
L 2906 4863 
L 3481 4863 
L 3481 0 
L 2906 0 
L 2906 525 
Q 2725 213 2448 61 
Q 2172 -91 1784 -91 
Q 1150 -91 751 415 
Q 353 922 353 1747 
Q 353 2572 751 3078 
Q 1150 3584 1784 3584 
Q 2172 3584 2448 3432 
Q 2725 3281 2906 2969 
z
M 947 1747 
Q 947 1113 1208 752 
Q 1469 391 1925 391 
Q 2381 391 2643 752 
Q 2906 1113 2906 1747 
Q 2906 2381 2643 2742 
Q 2381 3103 1925 3103 
Q 1469 3103 1208 2742 
Q 947 2381 947 1747 
z
" transform="scale(0.015625)"/>
       <path id="DejaVuSans-74" d="M 1172 4494 
L 1172 3500 
L 2356 3500 
L 2356 3053 
L 1172 3053 
L 1172 1153 
Q 1172 725 1289 603 
Q 1406 481 1766 481 
L 2356 481 
L 2356 0 
L 1766 0 
Q 1100 0 847 248 
Q 594 497 594 1153 
L 594 3053 
L 172 3053 
L 172 3500 
L 594 3500 
L 594 4494 
L 1172 4494 
z
" transform="scale(0.015625)"/>
      </defs>
      <use xlink:href="#DejaVuSans-56"/>
      <use xlink:href="#DejaVuSans-61" x="60.658203"/>
      <use xlink:href="#DejaVuSans-6c" x="121.9375"/>
      <use xlink:href="#DejaVuSans-69" x="149.720703"/>
      <use xlink:href="#DejaVuSans-64" x="177.503906"/>
      <use xlink:href="#DejaVuSans-61" x="240.980469"/>
      <use xlink:href="#DejaVuSans-74" x="302.259766"/>
      <use xlink:href="#DejaVuSans-69" x="341.46875"/>
      <use xlink:href="#DejaVuSans-6f" x="369.251953"/>
      <use xlink:href="#DejaVuSans-6e" x="430.433594"/>
      <use xlink:href="#DejaVuSans-20" x="493.8125"/>
      <use xlink:href="#DejaVuSans-41" x="525.599609"/>
      <use xlink:href="#DejaVuSans-63" x="592.257812"/>
      <use xlink:href="#DejaVuSans-63" x="647.238281"/>
      <use xlink:href="#DejaVuSans-75" x="702.21875"/>
      <use xlink:href="#DejaVuSans-72" x="765.597656"/>
      <use xlink:href="#DejaVuSans-61" x="806.710938"/>
      <use xlink:href="#DejaVuSans-63" x="867.990234"/>
      <use xlink:href="#DejaVuSans-79" x="922.970703"/>
     </g>
    </g>
    <g id="line2d_25">
     <path d="M 216.18875 263.648062 
L 226.18875 263.648062 
L 236.18875 263.648062 
" style="fill: none; stroke: #2ca02c; stroke-width: 1.5; stroke-linecap: square"/>
    </g>
    <g id="text_23">
     <!-- Robust Validation Accuracy -->
     <g transform="translate(244.18875 267.148062) scale(0.1 -0.1)">
      <defs>
       <path id="DejaVuSans-52" d="M 2841 2188 
Q 3044 2119 3236 1894 
Q 3428 1669 3622 1275 
L 4263 0 
L 3584 0 
L 2988 1197 
Q 2756 1666 2539 1819 
Q 2322 1972 1947 1972 
L 1259 1972 
L 1259 0 
L 628 0 
L 628 4666 
L 2053 4666 
Q 2853 4666 3247 4331 
Q 3641 3997 3641 3322 
Q 3641 2881 3436 2590 
Q 3231 2300 2841 2188 
z
M 1259 4147 
L 1259 2491 
L 2053 2491 
Q 2509 2491 2742 2702 
Q 2975 2913 2975 3322 
Q 2975 3731 2742 3939 
Q 2509 4147 2053 4147 
L 1259 4147 
z
" transform="scale(0.015625)"/>
       <path id="DejaVuSans-62" d="M 3116 1747 
Q 3116 2381 2855 2742 
Q 2594 3103 2138 3103 
Q 1681 3103 1420 2742 
Q 1159 2381 1159 1747 
Q 1159 1113 1420 752 
Q 1681 391 2138 391 
Q 2594 391 2855 752 
Q 3116 1113 3116 1747 
z
M 1159 2969 
Q 1341 3281 1617 3432 
Q 1894 3584 2278 3584 
Q 2916 3584 3314 3078 
Q 3713 2572 3713 1747 
Q 3713 922 3314 415 
Q 2916 -91 2278 -91 
Q 1894 -91 1617 61 
Q 1341 213 1159 525 
L 1159 0 
L 581 0 
L 581 4863 
L 1159 4863 
L 1159 2969 
z
" transform="scale(0.015625)"/>
      </defs>
      <use xlink:href="#DejaVuSans-52"/>
      <use xlink:href="#DejaVuSans-6f" x="64.982422"/>
      <use xlink:href="#DejaVuSans-62" x="126.164062"/>
      <use xlink:href="#DejaVuSans-75" x="189.640625"/>
      <use xlink:href="#DejaVuSans-73" x="253.019531"/>
      <use xlink:href="#DejaVuSans-74" x="305.119141"/>
      <use xlink:href="#DejaVuSans-20" x="344.328125"/>
      <use xlink:href="#DejaVuSans-56" x="376.115234"/>
      <use xlink:href="#DejaVuSans-61" x="436.773438"/>
      <use xlink:href="#DejaVuSans-6c" x="498.052734"/>
      <use xlink:href="#DejaVuSans-69" x="525.835938"/>
      <use xlink:href="#DejaVuSans-64" x="553.619141"/>
      <use xlink:href="#DejaVuSans-61" x="617.095703"/>
      <use xlink:href="#DejaVuSans-74" x="678.375"/>
      <use xlink:href="#DejaVuSans-69" x="717.583984"/>
      <use xlink:href="#DejaVuSans-6f" x="745.367188"/>
      <use xlink:href="#DejaVuSans-6e" x="806.548828"/>
      <use xlink:href="#DejaVuSans-20" x="869.927734"/>
      <use xlink:href="#DejaVuSans-41" x="901.714844"/>
      <use xlink:href="#DejaVuSans-63" x="968.373047"/>
      <use xlink:href="#DejaVuSans-63" x="1023.353516"/>
      <use xlink:href="#DejaVuSans-75" x="1078.333984"/>
      <use xlink:href="#DejaVuSans-72" x="1141.712891"/>
      <use xlink:href="#DejaVuSans-61" x="1182.826172"/>
      <use xlink:href="#DejaVuSans-63" x="1244.105469"/>
      <use xlink:href="#DejaVuSans-79" x="1299.085938"/>
     </g>
    </g>
    <g id="line2d_26">
     <path d="M 216.18875 278.326188 
L 226.18875 278.326188 
L 236.18875 278.326188 
" style="fill: none; stroke: #d62728; stroke-width: 1.5; stroke-linecap: square"/>
    </g>
    <g id="text_24">
     <!-- SWA Validation Accuracy -->
     <g transform="translate(244.18875 281.826188) scale(0.1 -0.1)">
      <defs>
       <path id="DejaVuSans-53" d="M 3425 4513 
L 3425 3897 
Q 3066 4069 2747 4153 
Q 2428 4238 2131 4238 
Q 1616 4238 1336 4038 
Q 1056 3838 1056 3469 
Q 1056 3159 1242 3001 
Q 1428 2844 1947 2747 
L 2328 2669 
Q 3034 2534 3370 2195 
Q 3706 1856 3706 1288 
Q 3706 609 3251 259 
Q 2797 -91 1919 -91 
Q 1588 -91 1214 -16 
Q 841 59 441 206 
L 441 856 
Q 825 641 1194 531 
Q 1563 422 1919 422 
Q 2459 422 2753 634 
Q 3047 847 3047 1241 
Q 3047 1584 2836 1778 
Q 2625 1972 2144 2069 
L 1759 2144 
Q 1053 2284 737 2584 
Q 422 2884 422 3419 
Q 422 4038 858 4394 
Q 1294 4750 2059 4750 
Q 2388 4750 2728 4690 
Q 3069 4631 3425 4513 
z
" transform="scale(0.015625)"/>
       <path id="DejaVuSans-57" d="M 213 4666 
L 850 4666 
L 1831 722 
L 2809 4666 
L 3519 4666 
L 4500 722 
L 5478 4666 
L 6119 4666 
L 4947 0 
L 4153 0 
L 3169 4050 
L 2175 0 
L 1381 0 
L 213 4666 
z
" transform="scale(0.015625)"/>
      </defs>
      <use xlink:href="#DejaVuSans-53"/>
      <use xlink:href="#DejaVuSans-57" x="63.476562"/>
      <use xlink:href="#DejaVuSans-41" x="156.853516"/>
      <use xlink:href="#DejaVuSans-20" x="225.261719"/>
      <use xlink:href="#DejaVuSans-56" x="257.048828"/>
      <use xlink:href="#DejaVuSans-61" x="317.707031"/>
      <use xlink:href="#DejaVuSans-6c" x="378.986328"/>
      <use xlink:href="#DejaVuSans-69" x="406.769531"/>
      <use xlink:href="#DejaVuSans-64" x="434.552734"/>
      <use xlink:href="#DejaVuSans-61" x="498.029297"/>
      <use xlink:href="#DejaVuSans-74" x="559.308594"/>
      <use xlink:href="#DejaVuSans-69" x="598.517578"/>
      <use xlink:href="#DejaVuSans-6f" x="626.300781"/>
      <use xlink:href="#DejaVuSans-6e" x="687.482422"/>
      <use xlink:href="#DejaVuSans-20" x="750.861328"/>
      <use xlink:href="#DejaVuSans-41" x="782.648438"/>
      <use xlink:href="#DejaVuSans-63" x="849.306641"/>
      <use xlink:href="#DejaVuSans-63" x="904.287109"/>
      <use xlink:href="#DejaVuSans-75" x="959.267578"/>
      <use xlink:href="#DejaVuSans-72" x="1022.646484"/>
      <use xlink:href="#DejaVuSans-61" x="1063.759766"/>
      <use xlink:href="#DejaVuSans-63" x="1125.039062"/>
      <use xlink:href="#DejaVuSans-79" x="1180.019531"/>
     </g>
    </g>
    <g id="line2d_27">
     <path d="M 216.18875 293.004312 
L 226.18875 293.004312 
L 236.18875 293.004312 
" style="fill: none; stroke: #9467bd; stroke-width: 1.5; stroke-linecap: square"/>
    </g>
    <g id="text_25">
     <!-- SWA Robust Validation Accuracy -->
     <g transform="translate(244.18875 296.504312) scale(0.1 -0.1)">
      <use xlink:href="#DejaVuSans-53"/>
      <use xlink:href="#DejaVuSans-57" x="63.476562"/>
      <use xlink:href="#DejaVuSans-41" x="156.853516"/>
      <use xlink:href="#DejaVuSans-20" x="225.261719"/>
      <use xlink:href="#DejaVuSans-52" x="257.048828"/>
      <use xlink:href="#DejaVuSans-6f" x="322.03125"/>
      <use xlink:href="#DejaVuSans-62" x="383.212891"/>
      <use xlink:href="#DejaVuSans-75" x="446.689453"/>
      <use xlink:href="#DejaVuSans-73" x="510.068359"/>
      <use xlink:href="#DejaVuSans-74" x="562.167969"/>
      <use xlink:href="#DejaVuSans-20" x="601.376953"/>
      <use xlink:href="#DejaVuSans-56" x="633.164062"/>
      <use xlink:href="#DejaVuSans-61" x="693.822266"/>
      <use xlink:href="#DejaVuSans-6c" x="755.101562"/>
      <use xlink:href="#DejaVuSans-69" x="782.884766"/>
      <use xlink:href="#DejaVuSans-64" x="810.667969"/>
      <use xlink:href="#DejaVuSans-61" x="874.144531"/>
      <use xlink:href="#DejaVuSans-74" x="935.423828"/>
      <use xlink:href="#DejaVuSans-69" x="974.632812"/>
      <use xlink:href="#DejaVuSans-6f" x="1002.416016"/>
      <use xlink:href="#DejaVuSans-6e" x="1063.597656"/>
      <use xlink:href="#DejaVuSans-20" x="1126.976562"/>
      <use xlink:href="#DejaVuSans-41" x="1158.763672"/>
      <use xlink:href="#DejaVuSans-63" x="1225.421875"/>
      <use xlink:href="#DejaVuSans-63" x="1280.402344"/>
      <use xlink:href="#DejaVuSans-75" x="1335.382812"/>
      <use xlink:href="#DejaVuSans-72" x="1398.761719"/>
      <use xlink:href="#DejaVuSans-61" x="1439.875"/>
      <use xlink:href="#DejaVuSans-63" x="1501.154297"/>
      <use xlink:href="#DejaVuSans-79" x="1556.134766"/>
     </g>
    </g>
   </g>
  </g>
 </g>
 <defs>
  <clipPath id="pdcca9168f7">
   <rect x="57.6" y="41.472" width="357.12" height="266.112"/>
  </clipPath>
 </defs>
</svg>
