<?xml version="1.0" encoding="utf-8" standalone="no"?>
<!DOCTYPE svg PUBLIC "-//W3C//DTD SVG 1.1//EN"
  "http://www.w3.org/Graphics/SVG/1.1/DTD/svg11.dtd">
<svg xmlns:xlink="http://www.w3.org/1999/xlink" width="460.8pt" height="345.6pt" viewBox="0 0 460.8 345.6" xmlns="http://www.w3.org/2000/svg" version="1.1">
 <metadata>
  <rdf:RDF xmlns:dc="http://purl.org/dc/elements/1.1/" xmlns:cc="http://creativecommons.org/ns#" xmlns:rdf="http://www.w3.org/1999/02/22-rdf-syntax-ns#">
   <cc:Work>
    <dc:type rdf:resource="http://purl.org/dc/dcmitype/StillImage"/>
    <dc:date>2025-02-26T14:58:28.827272</dc:date>
    <dc:format>image/svg+xml</dc:format>
    <dc:creator>
     <cc:Agent>
      <dc:title>Matplotlib v3.9.1, https://matplotlib.org/</dc:title>
     </cc:Agent>
    </dc:creator>
   </cc:Work>
  </rdf:RDF>
 </metadata>
 <defs>
  <style type="text/css">*{stroke-linejoin: round; stroke-linecap: butt}</style>
 </defs>
 <g id="figure_1">
  <g id="patch_1">
   <path d="M 0 345.6 
L 460.8 345.6 
L 460.8 0 
L 0 0 
z
" style="fill: #ffffff"/>
  </g>
  <g id="axes_1">
   <g id="patch_2">
    <path d="M 57.6 307.584 
L 414.72 307.584 
L 414.72 41.472 
L 57.6 41.472 
z
" style="fill: #ffffff"/>
   </g>
   <g id="matplotlib.axis_1">
    <g id="xtick_1">
     <g id="line2d_1">
      <defs>
       <path id="ma18230b85a" d="M 0 0 
L 0 3.5 
" style="stroke: #000000; stroke-width: 0.8"/>
      </defs>
      <g>
       <use xlink:href="#ma18230b85a" x="73.832727" y="307.584" style="stroke: #000000; stroke-width: 0.8"/>
      </g>
     </g>
     <g id="text_1">
      <!-- 1 -->
      <g transform="translate(70.651477 322.182437) scale(0.1 -0.1)">
       <defs>
        <path id="DejaVuSans-31" d="M 794 531 
L 1825 531 
L 1825 4091 
L 703 3866 
L 703 4441 
L 1819 4666 
L 2450 4666 
L 2450 531 
L 3481 531 
L 3481 0 
L 794 0 
L 794 531 
z
" transform="scale(0.015625)"/>
       </defs>
       <use xlink:href="#DejaVuSans-31"/>
      </g>
     </g>
    </g>
    <g id="xtick_2">
     <g id="line2d_2">
      <g>
       <use xlink:href="#ma18230b85a" x="109.664165" y="307.584" style="stroke: #000000; stroke-width: 0.8"/>
      </g>
     </g>
     <g id="text_2">
      <!-- 34 -->
      <g transform="translate(103.301665 322.182437) scale(0.1 -0.1)">
       <defs>
        <path id="DejaVuSans-33" d="M 2597 2516 
Q 3050 2419 3304 2112 
Q 3559 1806 3559 1356 
Q 3559 666 3084 287 
Q 2609 -91 1734 -91 
Q 1441 -91 1130 -33 
Q 819 25 488 141 
L 488 750 
Q 750 597 1062 519 
Q 1375 441 1716 441 
Q 2309 441 2620 675 
Q 2931 909 2931 1356 
Q 2931 1769 2642 2001 
Q 2353 2234 1838 2234 
L 1294 2234 
L 1294 2753 
L 1863 2753 
Q 2328 2753 2575 2939 
Q 2822 3125 2822 3475 
Q 2822 3834 2567 4026 
Q 2313 4219 1838 4219 
Q 1578 4219 1281 4162 
Q 984 4106 628 3988 
L 628 4550 
Q 988 4650 1302 4700 
Q 1616 4750 1894 4750 
Q 2613 4750 3031 4423 
Q 3450 4097 3450 3541 
Q 3450 3153 3228 2886 
Q 3006 2619 2597 2516 
z
" transform="scale(0.015625)"/>
        <path id="DejaVuSans-34" d="M 2419 4116 
L 825 1625 
L 2419 1625 
L 2419 4116 
z
M 2253 4666 
L 3047 4666 
L 3047 1625 
L 3713 1625 
L 3713 1100 
L 3047 1100 
L 3047 0 
L 2419 0 
L 2419 1100 
L 313 1100 
L 313 1709 
L 2253 4666 
z
" transform="scale(0.015625)"/>
       </defs>
       <use xlink:href="#DejaVuSans-33"/>
       <use xlink:href="#DejaVuSans-34" x="63.623047"/>
      </g>
     </g>
    </g>
    <g id="xtick_3">
     <g id="line2d_3">
      <g>
       <use xlink:href="#ma18230b85a" x="145.495604" y="307.584" style="stroke: #000000; stroke-width: 0.8"/>
      </g>
     </g>
     <g id="text_3">
      <!-- 67 -->
      <g transform="translate(139.133104 322.182437) scale(0.1 -0.1)">
       <defs>
        <path id="DejaVuSans-36" d="M 2113 2584 
Q 1688 2584 1439 2293 
Q 1191 2003 1191 1497 
Q 1191 994 1439 701 
Q 1688 409 2113 409 
Q 2538 409 2786 701 
Q 3034 994 3034 1497 
Q 3034 2003 2786 2293 
Q 2538 2584 2113 2584 
z
M 3366 4563 
L 3366 3988 
Q 3128 4100 2886 4159 
Q 2644 4219 2406 4219 
Q 1781 4219 1451 3797 
Q 1122 3375 1075 2522 
Q 1259 2794 1537 2939 
Q 1816 3084 2150 3084 
Q 2853 3084 3261 2657 
Q 3669 2231 3669 1497 
Q 3669 778 3244 343 
Q 2819 -91 2113 -91 
Q 1303 -91 875 529 
Q 447 1150 447 2328 
Q 447 3434 972 4092 
Q 1497 4750 2381 4750 
Q 2619 4750 2861 4703 
Q 3103 4656 3366 4563 
z
" transform="scale(0.015625)"/>
        <path id="DejaVuSans-37" d="M 525 4666 
L 3525 4666 
L 3525 4397 
L 1831 0 
L 1172 0 
L 2766 4134 
L 525 4134 
L 525 4666 
z
" transform="scale(0.015625)"/>
       </defs>
       <use xlink:href="#DejaVuSans-36"/>
       <use xlink:href="#DejaVuSans-37" x="63.623047"/>
      </g>
     </g>
    </g>
    <g id="xtick_4">
     <g id="line2d_4">
      <g>
       <use xlink:href="#ma18230b85a" x="181.327042" y="307.584" style="stroke: #000000; stroke-width: 0.8"/>
      </g>
     </g>
     <g id="text_4">
      <!-- 100 -->
      <g transform="translate(171.783292 322.182437) scale(0.1 -0.1)">
       <defs>
        <path id="DejaVuSans-30" d="M 2034 4250 
Q 1547 4250 1301 3770 
Q 1056 3291 1056 2328 
Q 1056 1369 1301 889 
Q 1547 409 2034 409 
Q 2525 409 2770 889 
Q 3016 1369 3016 2328 
Q 3016 3291 2770 3770 
Q 2525 4250 2034 4250 
z
M 2034 4750 
Q 2819 4750 3233 4129 
Q 3647 3509 3647 2328 
Q 3647 1150 3233 529 
Q 2819 -91 2034 -91 
Q 1250 -91 836 529 
Q 422 1150 422 2328 
Q 422 3509 836 4129 
Q 1250 4750 2034 4750 
z
" transform="scale(0.015625)"/>
       </defs>
       <use xlink:href="#DejaVuSans-31"/>
       <use xlink:href="#DejaVuSans-30" x="63.623047"/>
       <use xlink:href="#DejaVuSans-30" x="127.246094"/>
      </g>
     </g>
    </g>
    <g id="xtick_5">
     <g id="line2d_5">
      <g>
       <use xlink:href="#ma18230b85a" x="217.15848" y="307.584" style="stroke: #000000; stroke-width: 0.8"/>
      </g>
     </g>
     <g id="text_5">
      <!-- 133 -->
      <g transform="translate(207.61473 322.182437) scale(0.1 -0.1)">
       <use xlink:href="#DejaVuSans-31"/>
       <use xlink:href="#DejaVuSans-33" x="63.623047"/>
       <use xlink:href="#DejaVuSans-33" x="127.246094"/>
      </g>
     </g>
    </g>
    <g id="xtick_6">
     <g id="line2d_6">
      <g>
       <use xlink:href="#ma18230b85a" x="254.075719" y="307.584" style="stroke: #000000; stroke-width: 0.8"/>
      </g>
     </g>
     <g id="text_6">
      <!-- 167 -->
      <g transform="translate(244.531969 322.182437) scale(0.1 -0.1)">
       <use xlink:href="#DejaVuSans-31"/>
       <use xlink:href="#DejaVuSans-36" x="63.623047"/>
       <use xlink:href="#DejaVuSans-37" x="127.246094"/>
      </g>
     </g>
    </g>
    <g id="xtick_7">
     <g id="line2d_7">
      <g>
       <use xlink:href="#ma18230b85a" x="289.907157" y="307.584" style="stroke: #000000; stroke-width: 0.8"/>
      </g>
     </g>
     <g id="text_7">
      <!-- 200 -->
      <g transform="translate(280.363407 322.182437) scale(0.1 -0.1)">
       <defs>
        <path id="DejaVuSans-32" d="M 1228 531 
L 3431 531 
L 3431 0 
L 469 0 
L 469 531 
Q 828 903 1448 1529 
Q 2069 2156 2228 2338 
Q 2531 2678 2651 2914 
Q 2772 3150 2772 3378 
Q 2772 3750 2511 3984 
Q 2250 4219 1831 4219 
Q 1534 4219 1204 4116 
Q 875 4013 500 3803 
L 500 4441 
Q 881 4594 1212 4672 
Q 1544 4750 1819 4750 
Q 2544 4750 2975 4387 
Q 3406 4025 3406 3419 
Q 3406 3131 3298 2873 
Q 3191 2616 2906 2266 
Q 2828 2175 2409 1742 
Q 1991 1309 1228 531 
z
" transform="scale(0.015625)"/>
       </defs>
       <use xlink:href="#DejaVuSans-32"/>
       <use xlink:href="#DejaVuSans-30" x="63.623047"/>
       <use xlink:href="#DejaVuSans-30" x="127.246094"/>
      </g>
     </g>
    </g>
    <g id="xtick_8">
     <g id="line2d_8">
      <g>
       <use xlink:href="#ma18230b85a" x="325.738595" y="307.584" style="stroke: #000000; stroke-width: 0.8"/>
      </g>
     </g>
     <g id="text_8">
      <!-- 233 -->
      <g transform="translate(316.194845 322.182437) scale(0.1 -0.1)">
       <use xlink:href="#DejaVuSans-32"/>
       <use xlink:href="#DejaVuSans-33" x="63.623047"/>
       <use xlink:href="#DejaVuSans-33" x="127.246094"/>
      </g>
     </g>
    </g>
    <g id="xtick_9">
     <g id="line2d_9">
      <g>
       <use xlink:href="#ma18230b85a" x="361.570033" y="307.584" style="stroke: #000000; stroke-width: 0.8"/>
      </g>
     </g>
     <g id="text_9">
      <!-- 266 -->
      <g transform="translate(352.026283 322.182437) scale(0.1 -0.1)">
       <use xlink:href="#DejaVuSans-32"/>
       <use xlink:href="#DejaVuSans-36" x="63.623047"/>
       <use xlink:href="#DejaVuSans-36" x="127.246094"/>
      </g>
     </g>
    </g>
    <g id="xtick_10">
     <g id="line2d_10">
      <g>
       <use xlink:href="#ma18230b85a" x="398.487273" y="307.584" style="stroke: #000000; stroke-width: 0.8"/>
      </g>
     </g>
     <g id="text_10">
      <!-- 300 -->
      <g transform="translate(388.943523 322.182437) scale(0.1 -0.1)">
       <use xlink:href="#DejaVuSans-33"/>
       <use xlink:href="#DejaVuSans-30" x="63.623047"/>
       <use xlink:href="#DejaVuSans-30" x="127.246094"/>
      </g>
     </g>
    </g>
    <g id="text_11">
     <!-- Epochs -->
     <g transform="translate(218.244375 335.860562) scale(0.1 -0.1)">
      <defs>
       <path id="DejaVuSans-45" d="M 628 4666 
L 3578 4666 
L 3578 4134 
L 1259 4134 
L 1259 2753 
L 3481 2753 
L 3481 2222 
L 1259 2222 
L 1259 531 
L 3634 531 
L 3634 0 
L 628 0 
L 628 4666 
z
" transform="scale(0.015625)"/>
       <path id="DejaVuSans-70" d="M 1159 525 
L 1159 -1331 
L 581 -1331 
L 581 3500 
L 1159 3500 
L 1159 2969 
Q 1341 3281 1617 3432 
Q 1894 3584 2278 3584 
Q 2916 3584 3314 3078 
Q 3713 2572 3713 1747 
Q 3713 922 3314 415 
Q 2916 -91 2278 -91 
Q 1894 -91 1617 61 
Q 1341 213 1159 525 
z
M 3116 1747 
Q 3116 2381 2855 2742 
Q 2594 3103 2138 3103 
Q 1681 3103 1420 2742 
Q 1159 2381 1159 1747 
Q 1159 1113 1420 752 
Q 1681 391 2138 391 
Q 2594 391 2855 752 
Q 3116 1113 3116 1747 
z
" transform="scale(0.015625)"/>
       <path id="DejaVuSans-6f" d="M 1959 3097 
Q 1497 3097 1228 2736 
Q 959 2375 959 1747 
Q 959 1119 1226 758 
Q 1494 397 1959 397 
Q 2419 397 2687 759 
Q 2956 1122 2956 1747 
Q 2956 2369 2687 2733 
Q 2419 3097 1959 3097 
z
M 1959 3584 
Q 2709 3584 3137 3096 
Q 3566 2609 3566 1747 
Q 3566 888 3137 398 
Q 2709 -91 1959 -91 
Q 1206 -91 779 398 
Q 353 888 353 1747 
Q 353 2609 779 3096 
Q 1206 3584 1959 3584 
z
" transform="scale(0.015625)"/>
       <path id="DejaVuSans-63" d="M 3122 3366 
L 3122 2828 
Q 2878 2963 2633 3030 
Q 2388 3097 2138 3097 
Q 1578 3097 1268 2742 
Q 959 2388 959 1747 
Q 959 1106 1268 751 
Q 1578 397 2138 397 
Q 2388 397 2633 464 
Q 2878 531 3122 666 
L 3122 134 
Q 2881 22 2623 -34 
Q 2366 -91 2075 -91 
Q 1284 -91 818 406 
Q 353 903 353 1747 
Q 353 2603 823 3093 
Q 1294 3584 2113 3584 
Q 2378 3584 2631 3529 
Q 2884 3475 3122 3366 
z
" transform="scale(0.015625)"/>
       <path id="DejaVuSans-68" d="M 3513 2113 
L 3513 0 
L 2938 0 
L 2938 2094 
Q 2938 2591 2744 2837 
Q 2550 3084 2163 3084 
Q 1697 3084 1428 2787 
Q 1159 2491 1159 1978 
L 1159 0 
L 581 0 
L 581 4863 
L 1159 4863 
L 1159 2956 
Q 1366 3272 1645 3428 
Q 1925 3584 2291 3584 
Q 2894 3584 3203 3211 
Q 3513 2838 3513 2113 
z
" transform="scale(0.015625)"/>
       <path id="DejaVuSans-73" d="M 2834 3397 
L 2834 2853 
Q 2591 2978 2328 3040 
Q 2066 3103 1784 3103 
Q 1356 3103 1142 2972 
Q 928 2841 928 2578 
Q 928 2378 1081 2264 
Q 1234 2150 1697 2047 
L 1894 2003 
Q 2506 1872 2764 1633 
Q 3022 1394 3022 966 
Q 3022 478 2636 193 
Q 2250 -91 1575 -91 
Q 1294 -91 989 -36 
Q 684 19 347 128 
L 347 722 
Q 666 556 975 473 
Q 1284 391 1588 391 
Q 1994 391 2212 530 
Q 2431 669 2431 922 
Q 2431 1156 2273 1281 
Q 2116 1406 1581 1522 
L 1381 1569 
Q 847 1681 609 1914 
Q 372 2147 372 2553 
Q 372 3047 722 3315 
Q 1072 3584 1716 3584 
Q 2034 3584 2315 3537 
Q 2597 3491 2834 3397 
z
" transform="scale(0.015625)"/>
      </defs>
      <use xlink:href="#DejaVuSans-45"/>
      <use xlink:href="#DejaVuSans-70" x="63.183594"/>
      <use xlink:href="#DejaVuSans-6f" x="126.660156"/>
      <use xlink:href="#DejaVuSans-63" x="187.841797"/>
      <use xlink:href="#DejaVuSans-68" x="242.822266"/>
      <use xlink:href="#DejaVuSans-73" x="306.201172"/>
     </g>
    </g>
   </g>
   <g id="matplotlib.axis_2">
    <g id="ytick_1">
     <g id="line2d_11">
      <defs>
       <path id="me7a6ed7254" d="M 0 0 
L -3.5 0 
" style="stroke: #000000; stroke-width: 0.8"/>
      </defs>
      <g>
       <use xlink:href="#me7a6ed7254" x="57.6" y="280.988874" style="stroke: #000000; stroke-width: 0.8"/>
      </g>
     </g>
     <g id="text_12">
      <!-- 10 -->
      <g transform="translate(37.875 284.788093) scale(0.1 -0.1)">
       <use xlink:href="#DejaVuSans-31"/>
       <use xlink:href="#DejaVuSans-30" x="63.623047"/>
      </g>
     </g>
    </g>
    <g id="ytick_2">
     <g id="line2d_12">
      <g>
       <use xlink:href="#me7a6ed7254" x="57.6" y="248.840037" style="stroke: #000000; stroke-width: 0.8"/>
      </g>
     </g>
     <g id="text_13">
      <!-- 20 -->
      <g transform="translate(37.875 252.639256) scale(0.1 -0.1)">
       <use xlink:href="#DejaVuSans-32"/>
       <use xlink:href="#DejaVuSans-30" x="63.623047"/>
      </g>
     </g>
    </g>
    <g id="ytick_3">
     <g id="line2d_13">
      <g>
       <use xlink:href="#me7a6ed7254" x="57.6" y="216.6912" style="stroke: #000000; stroke-width: 0.8"/>
      </g>
     </g>
     <g id="text_14">
      <!-- 30 -->
      <g transform="translate(37.875 220.490419) scale(0.1 -0.1)">
       <use xlink:href="#DejaVuSans-33"/>
       <use xlink:href="#DejaVuSans-30" x="63.623047"/>
      </g>
     </g>
    </g>
    <g id="ytick_4">
     <g id="line2d_14">
      <g>
       <use xlink:href="#me7a6ed7254" x="57.6" y="184.542363" style="stroke: #000000; stroke-width: 0.8"/>
      </g>
     </g>
     <g id="text_15">
      <!-- 40 -->
      <g transform="translate(37.875 188.341582) scale(0.1 -0.1)">
       <use xlink:href="#DejaVuSans-34"/>
       <use xlink:href="#DejaVuSans-30" x="63.623047"/>
      </g>
     </g>
    </g>
    <g id="ytick_5">
     <g id="line2d_15">
      <g>
       <use xlink:href="#me7a6ed7254" x="57.6" y="152.393526" style="stroke: #000000; stroke-width: 0.8"/>
      </g>
     </g>
     <g id="text_16">
      <!-- 50 -->
      <g transform="translate(37.875 156.192744) scale(0.1 -0.1)">
       <defs>
        <path id="DejaVuSans-35" d="M 691 4666 
L 3169 4666 
L 3169 4134 
L 1269 4134 
L 1269 2991 
Q 1406 3038 1543 3061 
Q 1681 3084 1819 3084 
Q 2600 3084 3056 2656 
Q 3513 2228 3513 1497 
Q 3513 744 3044 326 
Q 2575 -91 1722 -91 
Q 1428 -91 1123 -41 
Q 819 9 494 109 
L 494 744 
Q 775 591 1075 516 
Q 1375 441 1709 441 
Q 2250 441 2565 725 
Q 2881 1009 2881 1497 
Q 2881 1984 2565 2268 
Q 2250 2553 1709 2553 
Q 1456 2553 1204 2497 
Q 953 2441 691 2322 
L 691 4666 
z
" transform="scale(0.015625)"/>
       </defs>
       <use xlink:href="#DejaVuSans-35"/>
       <use xlink:href="#DejaVuSans-30" x="63.623047"/>
      </g>
     </g>
    </g>
    <g id="ytick_6">
     <g id="line2d_16">
      <g>
       <use xlink:href="#me7a6ed7254" x="57.6" y="120.244688" style="stroke: #000000; stroke-width: 0.8"/>
      </g>
     </g>
     <g id="text_17">
      <!-- 60 -->
      <g transform="translate(37.875 124.043907) scale(0.1 -0.1)">
       <use xlink:href="#DejaVuSans-36"/>
       <use xlink:href="#DejaVuSans-30" x="63.623047"/>
      </g>
     </g>
    </g>
    <g id="ytick_7">
     <g id="line2d_17">
      <g>
       <use xlink:href="#me7a6ed7254" x="57.6" y="88.095851" style="stroke: #000000; stroke-width: 0.8"/>
      </g>
     </g>
     <g id="text_18">
      <!-- 70 -->
      <g transform="translate(37.875 91.89507) scale(0.1 -0.1)">
       <use xlink:href="#DejaVuSans-37"/>
       <use xlink:href="#DejaVuSans-30" x="63.623047"/>
      </g>
     </g>
    </g>
    <g id="ytick_8">
     <g id="line2d_18">
      <g>
       <use xlink:href="#me7a6ed7254" x="57.6" y="55.947014" style="stroke: #000000; stroke-width: 0.8"/>
      </g>
     </g>
     <g id="text_19">
      <!-- 80 -->
      <g transform="translate(37.875 59.746233) scale(0.1 -0.1)">
       <defs>
        <path id="DejaVuSans-38" d="M 2034 2216 
Q 1584 2216 1326 1975 
Q 1069 1734 1069 1313 
Q 1069 891 1326 650 
Q 1584 409 2034 409 
Q 2484 409 2743 651 
Q 3003 894 3003 1313 
Q 3003 1734 2745 1975 
Q 2488 2216 2034 2216 
z
M 1403 2484 
Q 997 2584 770 2862 
Q 544 3141 544 3541 
Q 544 4100 942 4425 
Q 1341 4750 2034 4750 
Q 2731 4750 3128 4425 
Q 3525 4100 3525 3541 
Q 3525 3141 3298 2862 
Q 3072 2584 2669 2484 
Q 3125 2378 3379 2068 
Q 3634 1759 3634 1313 
Q 3634 634 3220 271 
Q 2806 -91 2034 -91 
Q 1263 -91 848 271 
Q 434 634 434 1313 
Q 434 1759 690 2068 
Q 947 2378 1403 2484 
z
M 1172 3481 
Q 1172 3119 1398 2916 
Q 1625 2713 2034 2713 
Q 2441 2713 2670 2916 
Q 2900 3119 2900 3481 
Q 2900 3844 2670 4047 
Q 2441 4250 2034 4250 
Q 1625 4250 1398 4047 
Q 1172 3844 1172 3481 
z
" transform="scale(0.015625)"/>
       </defs>
       <use xlink:href="#DejaVuSans-38"/>
       <use xlink:href="#DejaVuSans-30" x="63.623047"/>
      </g>
     </g>
    </g>
    <g id="text_20">
     <!-- Accuracy -->
     <g transform="translate(31.795312 197.356125) rotate(-90) scale(0.1 -0.1)">
      <defs>
       <path id="DejaVuSans-41" d="M 2188 4044 
L 1331 1722 
L 3047 1722 
L 2188 4044 
z
M 1831 4666 
L 2547 4666 
L 4325 0 
L 3669 0 
L 3244 1197 
L 1141 1197 
L 716 0 
L 50 0 
L 1831 4666 
z
" transform="scale(0.015625)"/>
       <path id="DejaVuSans-75" d="M 544 1381 
L 544 3500 
L 1119 3500 
L 1119 1403 
Q 1119 906 1312 657 
Q 1506 409 1894 409 
Q 2359 409 2629 706 
Q 2900 1003 2900 1516 
L 2900 3500 
L 3475 3500 
L 3475 0 
L 2900 0 
L 2900 538 
Q 2691 219 2414 64 
Q 2138 -91 1772 -91 
Q 1169 -91 856 284 
Q 544 659 544 1381 
z
M 1991 3584 
L 1991 3584 
z
" transform="scale(0.015625)"/>
       <path id="DejaVuSans-72" d="M 2631 2963 
Q 2534 3019 2420 3045 
Q 2306 3072 2169 3072 
Q 1681 3072 1420 2755 
Q 1159 2438 1159 1844 
L 1159 0 
L 581 0 
L 581 3500 
L 1159 3500 
L 1159 2956 
Q 1341 3275 1631 3429 
Q 1922 3584 2338 3584 
Q 2397 3584 2469 3576 
Q 2541 3569 2628 3553 
L 2631 2963 
z
" transform="scale(0.015625)"/>
       <path id="DejaVuSans-61" d="M 2194 1759 
Q 1497 1759 1228 1600 
Q 959 1441 959 1056 
Q 959 750 1161 570 
Q 1363 391 1709 391 
Q 2188 391 2477 730 
Q 2766 1069 2766 1631 
L 2766 1759 
L 2194 1759 
z
M 3341 1997 
L 3341 0 
L 2766 0 
L 2766 531 
Q 2569 213 2275 61 
Q 1981 -91 1556 -91 
Q 1019 -91 701 211 
Q 384 513 384 1019 
Q 384 1609 779 1909 
Q 1175 2209 1959 2209 
L 2766 2209 
L 2766 2266 
Q 2766 2663 2505 2880 
Q 2244 3097 1772 3097 
Q 1472 3097 1187 3025 
Q 903 2953 641 2809 
L 641 3341 
Q 956 3463 1253 3523 
Q 1550 3584 1831 3584 
Q 2591 3584 2966 3190 
Q 3341 2797 3341 1997 
z
" transform="scale(0.015625)"/>
       <path id="DejaVuSans-79" d="M 2059 -325 
Q 1816 -950 1584 -1140 
Q 1353 -1331 966 -1331 
L 506 -1331 
L 506 -850 
L 844 -850 
Q 1081 -850 1212 -737 
Q 1344 -625 1503 -206 
L 1606 56 
L 191 3500 
L 800 3500 
L 1894 763 
L 2988 3500 
L 3597 3500 
L 2059 -325 
z
" transform="scale(0.015625)"/>
      </defs>
      <use xlink:href="#DejaVuSans-41"/>
      <use xlink:href="#DejaVuSans-63" x="66.658203"/>
      <use xlink:href="#DejaVuSans-63" x="121.638672"/>
      <use xlink:href="#DejaVuSans-75" x="176.619141"/>
      <use xlink:href="#DejaVuSans-72" x="239.998047"/>
      <use xlink:href="#DejaVuSans-61" x="281.111328"/>
      <use xlink:href="#DejaVuSans-63" x="342.390625"/>
      <use xlink:href="#DejaVuSans-79" x="397.371094"/>
     </g>
    </g>
   </g>
   <g id="line2d_19">
    <path d="M 73.832727 295.488 
L 76.00433 259.764212 
L 77.090131 245.277946 
L 79.261733 220.819111 
L 80.347534 211.868874 
L 81.433335 205.207635 
L 82.519137 196.836078 
L 84.690739 185.45539 
L 85.77654 181.796852 
L 86.862341 175.309217 
L 87.948142 170.602627 
L 89.033943 167.246288 
L 90.119745 163.208394 
L 92.291347 156.68218 
L 93.377148 154.701812 
L 94.462949 155.081168 
L 95.54875 183.359286 
L 96.634552 182.69059 
L 97.720353 180.118683 
L 98.806154 176.421567 
L 99.891955 172.222928 
L 100.977756 169.773187 
L 102.063557 166.416848 
L 103.149358 163.999256 
L 104.23516 160.867959 
L 105.320961 158.450367 
L 106.406762 156.585734 
L 107.492563 154.380324 
L 108.578364 151.088283 
L 109.664165 148.239896 
L 110.749967 146.355974 
L 111.835768 143.475438 
L 112.921569 141.919434 
L 114.00737 139.804041 
L 115.093171 135.791866 
L 116.178972 133.779349 
L 117.264773 133.380703 
L 118.350575 130.378002 
L 119.436376 127.902541 
L 120.522177 126.185793 
L 121.607978 123.967524 
L 122.693779 122.250776 
L 123.77958 119.485976 
L 125.951183 115.120164 
L 127.036984 115.178032 
L 128.122785 111.474486 
L 129.208586 111.217295 
L 130.294387 109.867044 
L 131.380189 108.748264 
L 132.46599 107.970262 
L 133.551791 106.394969 
L 134.637592 106.356391 
L 136.809194 104.015955 
L 137.894995 103.964517 
L 138.980797 138.190169 
L 140.066598 141.237879 
L 142.2382 140.710638 
L 143.324001 138.691691 
L 144.409802 139.199643 
L 145.495604 137.244993 
L 147.667206 135.348212 
L 148.753007 133.637894 
L 149.838808 133.605745 
L 152.01041 130.448729 
L 153.096212 130.628763 
L 154.182013 129.458545 
L 155.267814 127.626061 
L 156.353615 127.555334 
L 158.525217 125.594255 
L 159.611019 124.34688 
L 160.69682 122.102891 
L 161.782621 122.848744 
L 162.868422 121.144856 
L 163.954223 118.135725 
L 165.040024 118.894437 
L 167.211627 115.460941 
L 168.297428 116.258233 
L 170.46903 113.782772 
L 171.554831 113.249101 
L 172.640632 111.519494 
L 173.726434 110.2464 
L 174.812235 107.957403 
L 175.898036 107.224409 
L 176.983837 107.668063 
L 178.069638 106.195647 
L 179.155439 105.5591 
L 180.24124 104.395312 
L 181.327042 102.78787 
L 182.412843 102.395654 
L 183.498644 99.110043 
L 184.584445 100.659617 
L 185.670246 98.37062 
L 186.756047 97.663345 
L 187.841849 97.303278 
L 192.185053 92.435944 
L 193.270854 91.490768 
L 194.356656 90.256253 
L 195.442457 89.960484 
L 196.528258 88.886713 
L 197.614059 87.465734 
L 198.69986 87.092807 
L 199.785661 85.575382 
L 200.871462 83.511427 
L 201.957264 83.453559 
L 203.043065 82.379788 
L 204.128866 81.891126 
L 205.214667 79.486393 
L 206.300468 79.994344 
L 208.472071 78.74054 
L 209.557872 78.45763 
L 210.643673 77.827513 
L 211.729474 77.62819 
L 213.901076 75.242746 
L 214.986877 75.352052 
L 216.072679 74.111107 
L 217.15848 74.644778 
L 218.244281 74.683356 
L 219.330082 73.140212 
L 220.415883 73.030906 
L 221.501684 73.937503 
L 222.587486 73.712461 
L 223.673287 73.165931 
L 224.759088 73.603155 
L 225.844889 112.027446 
L 226.93069 116.959077 
L 228.016491 116.708316 
L 229.102292 115.718132 
L 230.188094 117.319144 
L 231.273895 116.740465 
L 232.359696 118.058567 
L 233.445497 115.930314 
L 234.531298 115.178032 
L 235.617099 115.531669 
L 236.702901 115.081585 
L 237.788702 114.303583 
L 238.874503 112.400372 
L 239.960304 112.593265 
L 241.046105 114.033533 
L 242.131906 111.6288 
L 243.217708 111.783114 
L 244.303509 111.204435 
L 245.38931 111.313741 
L 246.475111 111.275163 
L 247.560912 110.53574 
L 248.646713 108.735405 
L 249.732514 110.002069 
L 250.818316 108.452495 
L 251.904117 108.626099 
L 252.989918 106.555713 
L 254.075719 107.545898 
L 255.16152 106.594292 
L 256.247321 106.11206 
L 257.333123 104.909693 
L 258.418924 105.038288 
L 259.504725 104.72966 
L 260.590526 104.99971 
L 262.762128 102.678564 
L 263.847929 103.122218 
L 264.933731 102.903606 
L 266.019532 101.759107 
L 267.105333 102.633555 
L 268.191134 100.441005 
L 269.276935 100.884659 
L 270.362736 100.055219 
L 271.448538 99.682292 
L 272.534339 100.228822 
L 273.62014 98.242024 
L 274.705941 99.013596 
L 275.791742 98.447777 
L 276.877543 98.126288 
L 277.963344 97.560469 
L 279.049146 97.599047 
L 280.134947 95.901589 
L 281.220748 95.104298 
L 283.39235 95.515803 
L 284.478151 94.075535 
L 286.649754 93.619021 
L 287.735555 93.638311 
L 288.821356 93.336112 
L 289.907157 93.175367 
L 290.992958 91.008536 
L 292.07876 91.786538 
L 293.164561 90.301261 
L 294.250362 89.593987 
L 295.336163 90.519873 
L 296.421964 89.825459 
L 297.507765 90.018352 
L 298.593566 89.028167 
L 299.679368 87.800082 
L 300.765169 87.626478 
L 301.85097 87.909388 
L 302.936771 86.250508 
L 304.022572 86.719881 
L 305.108373 85.684688 
L 306.194175 85.118869 
L 307.279976 85.09958 
L 308.365777 84.733083 
L 309.451578 83.71075 
L 311.62318 82.945607 
L 312.708981 82.174035 
L 313.794783 82.257622 
L 315.966385 80.611602 
L 317.052186 81.177421 
L 318.137987 80.515155 
L 319.223788 79.254921 
L 320.30959 78.869135 
L 321.395391 78.959152 
L 322.481192 78.091133 
L 323.566993 78.091133 
L 324.652794 76.644435 
L 325.738595 77.190966 
L 326.824396 75.667111 
L 327.910198 76.181492 
L 328.995999 74.477604 
L 330.0818 75.814995 
L 331.167601 74.426166 
L 332.253402 74.29757 
L 333.339203 73.963222 
L 334.425005 73.101633 
L 335.510806 71.892837 
L 336.596607 72.400789 
L 337.682408 70.941232 
L 339.85401 71.365596 
L 340.939811 70.021775 
L 342.025613 69.745295 
L 344.197215 68.50435 
L 345.283016 69.06374 
L 346.368817 67.482017 
L 347.454618 67.218396 
L 348.54042 67.141239 
L 349.626221 67.179818 
L 350.712022 65.790988 
L 351.797823 66.27322 
L 352.883624 65.373053 
L 353.969425 64.858672 
L 355.055227 64.601481 
L 356.141028 64.607911 
L 358.31263 63.553429 
L 359.398431 62.261046 
L 360.484232 62.884733 
L 361.570033 62.061723 
L 363.741636 61.463754 
L 364.827437 61.328729 
L 365.913238 60.242099 
L 366.999039 61.438035 
L 368.08484 61.264432 
L 369.170642 62.473228 
L 371.342244 63.990653 
L 372.428045 64.987267 
L 373.513846 64.993697 
L 374.599647 65.141581 
L 375.685448 66.588279 
L 376.77125 66.093187 
L 377.857051 65.373053 
L 378.942852 65.392342 
L 380.028653 66.144625 
L 381.114454 65.437351 
L 382.200255 64.492175 
L 383.286057 64.929399 
L 384.371858 65.103003 
L 385.457659 66.028889 
L 386.54346 65.340904 
L 387.629261 65.128722 
L 388.715062 65.835996 
L 389.800863 65.160871 
L 390.886665 65.752409 
L 391.972466 67.044793 
L 393.058267 65.951732 
L 395.229869 66.00317 
L 396.31567 65.533797 
L 397.401472 66.472543 
L 398.487273 65.418061 
L 398.487273 65.418061 
" clip-path="url(#pe0c6a318cc)" style="fill: none; stroke: #1f77b4; stroke-width: 1.5; stroke-linecap: square"/>
   </g>
   <g id="line2d_20">
    <path d="M 73.832727 277.613247 
L 74.918528 255.462698 
L 76.00433 230.675944 
L 78.175932 191.325767 
L 79.261733 177.791107 
L 80.347534 173.643907 
L 81.433335 155.640558 
L 82.519137 152.425674 
L 84.690739 142.0416 
L 85.77654 127.092391 
L 86.862341 135.033153 
L 87.948142 127.960409 
L 89.033943 119.698158 
L 90.119745 118.894437 
L 91.205546 113.461284 
L 92.291347 112.078884 
L 93.377148 111.853842 
L 94.462949 110.889377 
L 95.54875 147.249712 
L 96.634552 133.682902 
L 97.720353 139.019609 
L 98.806154 131.239591 
L 99.891955 127.285284 
L 100.977756 122.430809 
L 102.063557 125.356353 
L 103.149358 113.075498 
L 104.23516 115.004428 
L 105.320961 114.618642 
L 106.406762 111.532353 
L 107.492563 107.449451 
L 108.578364 105.616967 
L 109.664165 101.019684 
L 110.749967 102.948614 
L 111.835768 97.483312 
L 112.921569 96.615293 
L 114.00737 96.13306 
L 115.093171 96.100912 
L 116.178972 94.332726 
L 117.264773 86.906344 
L 118.350575 87.356428 
L 119.436376 84.977414 
L 120.522177 83.43427 
L 121.607978 82.984186 
L 122.693779 83.43427 
L 123.77958 79.222772 
L 124.865382 80.958809 
L 125.951183 78.194009 
L 127.036984 76.843758 
L 128.122785 76.425823 
L 129.208586 73.596726 
L 130.294387 74.175405 
L 131.380189 74.111107 
L 132.46599 73.178791 
L 133.551791 72.696558 
L 134.637592 72.600112 
L 135.723393 72.246474 
L 136.809194 72.278623 
L 137.894995 72.182177 
L 138.980797 102.24134 
L 140.066598 97.226121 
L 141.152399 102.916465 
L 142.2382 93.754047 
L 143.324001 95.779423 
L 145.495604 96.13306 
L 146.581405 96.358102 
L 147.667206 89.22106 
L 148.753007 90.442716 
L 149.838808 92.403795 
L 150.924609 88.513786 
L 152.01041 90.764205 
L 153.096212 86.970642 
L 154.182013 89.124614 
L 155.267814 88.899572 
L 156.353615 84.109395 
L 157.439416 84.623777 
L 158.525217 84.945265 
L 159.611019 84.720223 
L 160.69682 83.852205 
L 161.782621 85.395349 
L 162.868422 82.116167 
L 163.954223 80.315833 
L 165.040024 80.733767 
L 166.125825 81.50534 
L 167.211627 79.254921 
L 168.297428 77.90467 
L 169.383229 78.16186 
L 170.46903 80.412279 
L 171.554831 75.236316 
L 172.640632 74.239702 
L 173.726434 72.021433 
L 174.812235 72.182177 
L 175.898036 73.853916 
L 176.983837 71.314158 
L 178.069638 71.314158 
L 179.155439 75.011274 
L 180.24124 74.111107 
L 181.327042 74.271851 
L 182.412843 70.381842 
L 183.498644 69.192335 
L 184.584445 70.028205 
L 185.670246 70.70333 
L 186.756047 67.456298 
L 187.841849 68.356465 
L 188.92765 67.263405 
L 190.013451 68.22787 
L 191.099252 66.363237 
L 192.185053 64.016372 
L 193.270854 65.077284 
L 194.356656 63.469842 
L 195.442457 66.138195 
L 196.528258 64.820093 
L 197.614059 63.116205 
L 198.69986 61.8624 
L 199.785661 62.280335 
L 200.871462 62.087442 
L 201.957264 63.501991 
L 203.043065 61.283721 
L 204.128866 61.540912 
L 205.214667 61.380167 
L 206.300468 59.901321 
L 207.386269 59.065451 
L 208.472071 59.0976 
L 209.557872 59.419088 
L 210.643673 60.094214 
L 211.729474 59.579833 
L 212.815275 58.840409 
L 213.901076 59.290493 
L 214.986877 59.161898 
L 218.244281 57.42586 
L 219.330082 57.007926 
L 220.415883 57.297265 
L 221.501684 58.229581 
L 222.587486 57.7152 
L 223.673287 57.908093 
L 224.759088 57.42586 
L 225.844889 85.941879 
L 226.93069 86.649153 
L 228.016491 82.276912 
L 229.102292 82.694847 
L 230.188094 81.923274 
L 231.273895 86.584856 
L 232.359696 81.344595 
L 233.445497 85.781135 
L 234.531298 83.016335 
L 235.617099 82.855591 
L 236.702901 80.12294 
L 237.788702 76.683014 
L 238.874503 86.327665 
L 239.960304 80.476577 
L 241.046105 77.004502 
L 242.131906 80.830214 
L 243.217708 81.987572 
L 244.303509 77.454586 
L 245.38931 78.322605 
L 246.475111 77.100949 
L 247.560912 75.332763 
L 248.646713 78.836986 
L 249.732514 80.476577 
L 250.818316 76.425823 
L 251.904117 75.97574 
L 252.989918 78.965581 
L 254.075719 78.515498 
L 255.16152 73.435981 
L 256.247321 75.622102 
L 257.333123 76.586567 
L 258.418924 73.146642 
L 259.504725 76.77946 
L 260.590526 77.261693 
L 261.676327 73.628874 
L 262.762128 72.985898 
L 263.847929 75.300614 
L 264.933731 73.693172 
L 266.019532 75.750698 
L 267.105333 75.236316 
L 268.191134 71.764242 
L 269.276935 70.124651 
L 270.362736 71.603498 
L 271.448538 70.44614 
L 272.534339 71.860688 
L 273.62014 71.924986 
L 274.705941 74.432595 
L 275.791742 72.63226 
L 276.877543 78.097563 
L 277.963344 71.346307 
L 279.049146 71.764242 
L 280.134947 70.381842 
L 281.220748 69.642419 
L 282.306549 71.185563 
L 283.39235 69.578121 
L 284.478151 69.835312 
L 285.563953 71.860688 
L 286.649754 69.224484 
L 287.735555 69.738865 
L 288.821356 72.08573 
L 289.907157 68.452912 
L 292.07876 68.935144 
L 293.164561 69.996056 
L 294.250362 66.781172 
L 295.336163 65.077284 
L 296.421964 67.263405 
L 297.507765 64.562902 
L 298.593566 67.263405 
L 300.765169 68.999442 
L 301.85097 65.012986 
L 302.936771 67.520595 
L 306.194175 69.771014 
L 307.279976 67.649191 
L 308.365777 66.523981 
L 310.537379 64.755795 
L 311.62318 65.205879 
L 312.708981 63.727033 
L 313.794783 67.713488 
L 314.880584 63.180502 
L 315.966385 63.984223 
L 317.052186 62.633972 
L 318.137987 61.894549 
L 319.223788 66.138195 
L 320.30959 63.084056 
L 321.395391 61.444465 
L 324.652794 64.209265 
L 325.738595 63.437693 
L 326.824396 61.444465 
L 327.910198 61.283721 
L 328.995999 59.901321 
L 330.0818 62.280335 
L 331.167601 62.666121 
L 332.253402 60.544298 
L 333.339203 59.676279 
L 334.425005 60.351405 
L 335.510806 57.875944 
L 336.596607 61.122977 
L 337.682408 59.64413 
L 339.85401 58.518921 
L 340.939811 57.458009 
L 342.025613 57.940242 
L 343.111414 57.779498 
L 344.197215 57.490158 
L 345.283016 57.747349 
L 347.454618 57.618753 
L 348.54042 56.204205 
L 349.626221 55.078995 
L 350.712022 56.397098 
L 351.797823 55.336186 
L 352.883624 56.364949 
L 353.969425 56.300651 
L 355.055227 56.075609 
L 356.141028 54.564614 
L 358.31263 55.882716 
L 359.398431 55.271888 
L 360.484232 54.307423 
L 361.570033 54.178828 
L 362.655835 53.825191 
L 363.741636 54.564614 
L 364.827437 54.243126 
L 365.913238 54.339572 
L 366.999039 54.210977 
L 368.08484 54.9504 
L 369.170642 55.464781 
L 370.256443 57.265116 
L 371.342244 56.107758 
L 372.428045 57.458009 
L 373.513846 56.62214 
L 374.599647 56.911479 
L 375.685448 59.290493 
L 376.77125 56.911479 
L 377.857051 58.068837 
L 378.942852 57.16867 
L 380.028653 57.875944 
L 381.114454 56.268502 
L 382.200255 56.718586 
L 383.286057 57.458009 
L 384.371858 56.750735 
L 385.457659 57.908093 
L 386.54346 58.454623 
L 387.629261 59.38694 
L 388.715062 56.975777 
L 389.800863 57.265116 
L 390.886665 56.204205 
L 391.972466 58.00454 
L 393.058267 58.197433 
L 394.144068 57.908093 
L 395.229869 58.100986 
L 396.31567 57.554456 
L 397.401472 57.586605 
L 398.487273 58.293879 
L 398.487273 58.293879 
" clip-path="url(#pe0c6a318cc)" style="fill: none; stroke: #ff7f0e; stroke-width: 1.5; stroke-linecap: square"/>
   </g>
   <g id="line2d_21">
    <path d="M 73.832727 282.297 
L 74.918528 258.728576 
L 77.090131 233.585968 
L 78.175932 212.256878 
L 79.261733 214.717927 
L 80.347534 221.23638 
L 81.433335 197.224525 
L 82.519137 193.544037 
L 83.604938 200.151178 
L 84.690739 196.537205 
L 85.77654 181.017077 
L 86.862341 185.05231 
L 87.948142 181.283136 
L 89.033943 170.374703 
L 90.119745 179.841981 
L 91.205546 169.088749 
L 92.291347 167.492393 
L 93.377148 168.82269 
L 94.462949 167.159819 
L 95.54875 194.40873 
L 96.634552 188.887999 
L 97.720353 186.471293 
L 98.806154 164.14448 
L 99.891955 178.378655 
L 100.977756 171.305911 
L 102.063557 188.178507 
L 103.149358 180.484958 
L 104.23516 168.068855 
L 105.320961 173.567415 
L 106.406762 167.647595 
L 107.492563 165.718664 
L 108.578364 160.441821 
L 109.664165 162.570295 
L 110.749967 156.628303 
L 111.835768 157.204765 
L 112.921569 146.651078 
L 114.00737 153.568621 
L 115.093171 146.251989 
L 116.178972 153.768166 
L 117.264773 145.475983 
L 118.350575 149.688589 
L 119.436376 141.795495 
L 120.522177 143.458366 
L 121.607978 147.892688 
L 122.693779 142.349785 
L 123.77958 137.538546 
L 124.865382 143.170135 
L 125.951183 137.915463 
L 127.036984 133.281596 
L 128.122785 136.740368 
L 129.208586 133.991088 
L 130.294387 133.658514 
L 131.380189 130.687518 
L 132.46599 130.820547 
L 133.551791 128.825102 
L 134.637592 129.20202 
L 135.723393 128.780759 
L 136.809194 129.867168 
L 137.894995 130.598831 
L 138.980797 157.648198 
L 140.066598 159.155867 
L 141.152399 168.778347 
L 142.2382 147.161025 
L 143.324001 148.136576 
L 144.409802 156.805676 
L 145.495604 156.517445 
L 146.581405 158.978494 
L 147.667206 154.965433 
L 148.753007 137.73809 
L 149.838808 148.003546 
L 150.924609 150.66414 
L 152.01041 143.768769 
L 153.096212 155.34235 
L 154.182013 138.624955 
L 155.267814 150.198536 
L 156.353615 143.968313 
L 157.439416 135.653959 
L 159.611019 143.10362 
L 160.69682 142.948419 
L 161.782621 148.912583 
L 162.868422 139.93308 
L 163.954223 135.365728 
L 165.040024 141.130347 
L 166.125825 143.192307 
L 167.211627 140.35434 
L 168.297428 138.29238 
L 169.383229 141.263376 
L 170.46903 144.966036 
L 171.554831 125.432846 
L 172.640632 137.649404 
L 173.726434 131.840441 
L 174.812235 132.660791 
L 175.898036 128.736416 
L 176.983837 130.000198 
L 178.069638 126.009307 
L 179.155439 134.966639 
L 180.24124 139.910908 
L 181.327042 135.964361 
L 182.412843 126.563598 
L 183.498644 119.823428 
L 184.584445 122.750081 
L 185.670246 127.650007 
L 186.756047 118.027527 
L 187.841849 123.481744 
L 188.92765 122.350991 
L 190.013451 123.14917 
L 191.099252 122.772252 
L 192.185053 121.042866 
L 193.270854 117.273692 
L 194.356656 118.670504 
L 195.442457 121.619328 
L 196.528258 118.515303 
L 197.614059 118.448788 
L 198.69986 120.976352 
L 199.785661 113.704063 
L 200.871462 115.056531 
L 201.957264 112.661997 
L 203.043065 116.519858 
L 204.128866 115.810366 
L 205.214667 112.506796 
L 206.300468 115.58865 
L 207.386269 113.992294 
L 208.472071 113.216287 
L 209.557872 114.546584 
L 210.643673 113.947951 
L 211.729474 113.726234 
L 212.815275 113.105429 
L 213.901076 109.846202 
L 214.986877 111.287357 
L 216.072679 111.3317 
L 217.15848 110.511351 
L 218.244281 108.737622 
L 219.330082 111.309529 
L 220.415883 110.866097 
L 221.501684 112.484624 
L 222.587486 111.575588 
L 223.673287 111.420387 
L 224.759088 111.885991 
L 225.844889 145.98593 
L 226.93069 143.170135 
L 228.016491 141.884182 
L 229.102292 141.30772 
L 230.188094 138.891014 
L 231.273895 133.858058 
L 232.359696 139.66702 
L 233.445497 130.931405 
L 234.531298 146.806279 
L 235.617099 145.8529 
L 236.702901 136.49648 
L 237.788702 131.286151 
L 238.874503 142.926247 
L 239.960304 139.090558 
L 241.046105 138.225866 
L 243.217708 127.273089 
L 244.303509 130.99792 
L 245.38931 137.848948 
L 246.475111 124.701182 
L 247.560912 133.414626 
L 248.646713 126.519255 
L 249.732514 135.742645 
L 250.818316 135.232698 
L 251.904117 126.519255 
L 252.989918 140.598228 
L 254.075719 133.88023 
L 255.16152 133.503312 
L 256.247321 128.913789 
L 257.333123 139.090558 
L 258.418924 134.656236 
L 259.504725 133.569827 
L 260.590526 128.337327 
L 261.676327 138.314552 
L 262.762128 127.539149 
L 263.847929 133.702857 
L 264.933731 123.481744 
L 266.019532 136.075219 
L 267.105333 135.25487 
L 268.191134 135.94219 
L 269.276935 127.783036 
L 270.362736 132.860336 
L 271.448538 126.940515 
L 272.534339 129.822825 
L 273.62014 126.253195 
L 274.705941 132.062157 
L 275.791742 134.279319 
L 276.877543 133.325939 
L 277.963344 130.199742 
L 279.049146 123.969519 
L 280.134947 121.619328 
L 281.220748 125.676733 
L 282.306549 121.552813 
L 283.39235 123.126998 
L 284.478151 124.169064 
L 285.563953 123.082655 
L 286.649754 131.197465 
L 287.735555 123.70346 
L 288.821356 127.250918 
L 289.907157 136.053048 
L 290.992958 130.354943 
L 292.07876 135.343556 
L 293.164561 132.527761 
L 294.250362 126.829657 
L 295.336163 121.885388 
L 296.421964 119.535197 
L 297.507765 123.01614 
L 298.593566 122.727909 
L 299.679368 123.659117 
L 300.765169 128.603386 
L 301.85097 120.932008 
L 302.936771 121.153724 
L 304.022572 124.169064 
L 305.108373 122.639222 
L 306.194175 132.217359 
L 307.279976 124.590324 
L 308.365777 126.874 
L 309.451578 122.217962 
L 310.537379 127.184403 
L 311.62318 123.481744 
L 312.708981 121.619328 
L 313.794783 122.550536 
L 314.880584 119.956457 
L 315.966385 130.44363 
L 317.052186 123.481744 
L 318.137987 119.779085 
L 319.223788 125.166786 
L 320.30959 124.25775 
L 321.395391 117.273692 
L 322.481192 117.428894 
L 323.566993 112.728512 
L 324.652794 117.362379 
L 325.738595 118.75919 
L 326.824396 115.899052 
L 327.910198 126.940515 
L 328.995999 111.309529 
L 330.0818 122.262305 
L 331.167601 116.120769 
L 332.253402 115.278247 
L 333.339203 110.001404 
L 334.425005 118.781362 
L 335.510806 111.752961 
L 336.596607 114.723957 
L 337.682408 110.733067 
L 338.768209 118.249243 
L 339.85401 116.83026 
L 340.939811 113.748406 
L 342.025613 111.154328 
L 343.111414 110.666552 
L 344.197215 114.125323 
L 345.283016 110.954783 
L 346.368817 113.238459 
L 347.454618 109.513628 
L 348.54042 110.489179 
L 349.626221 113.238459 
L 350.712022 113.39366 
L 351.797823 112.085535 
L 352.883624 108.538077 
L 353.969425 114.590927 
L 355.055227 109.26974 
L 356.141028 111.198671 
L 357.226829 109.646658 
L 358.31263 113.65972 
L 359.398431 109.424942 
L 360.484232 108.138988 
L 361.570033 107.60687 
L 362.655835 110.023575 
L 363.741636 110.09009 
L 364.827437 110.755238 
L 365.913238 110.577866 
L 366.999039 108.493734 
L 368.08484 103.726838 
L 369.170642 111.442558 
L 370.256443 111.664275 
L 371.342244 114.036637 
L 372.428045 108.604592 
L 373.513846 112.174222 
L 374.599647 109.95706 
L 375.685448 112.639826 
L 376.77125 116.27597 
L 377.857051 114.236182 
L 378.942852 113.216287 
L 380.028653 113.947951 
L 381.114454 109.824031 
L 382.200255 115.544307 
L 383.286057 107.518183 
L 384.371858 113.460175 
L 385.457659 114.324868 
L 386.54346 109.890546 
L 387.629261 109.424942 
L 388.715062 103.460778 
L 389.800863 113.127601 
L 390.886665 110.333978 
L 391.972466 106.720005 
L 393.058267 115.300419 
L 394.144068 108.338533 
L 396.31567 113.970122 
L 397.401472 117.827983 
L 398.487273 113.925779 
L 398.487273 113.925779 
" clip-path="url(#pe0c6a318cc)" style="fill: none; stroke: #2ca02c; stroke-width: 1.5; stroke-linecap: square"/>
   </g>
   <g id="line2d_22">
    <path d="M 368.08484 54.757507 
L 369.170642 53.568 
L 370.256443 55.271888 
L 371.342244 57.940242 
L 372.428045 58.326028 
L 373.513846 55.111144 
L 374.599647 56.686437 
L 375.685448 56.268502 
L 376.77125 59.065451 
L 377.857051 57.104372 
L 378.942852 58.486772 
L 380.028653 57.329414 
L 381.114454 56.686437 
L 382.200255 60.576447 
L 383.286057 60.447851 
L 384.371858 60.512149 
L 385.457659 59.129749 
L 386.54346 59.804874 
L 387.629261 59.965619 
L 388.715062 59.676279 
L 389.800863 61.219423 
L 390.886665 60.512149 
L 391.972466 59.033302 
L 393.058267 61.637358 
L 395.229869 63.469842 
L 396.31567 60.608595 
L 397.401472 64.048521 
L 398.487273 64.691498 
L 398.487273 64.691498 
" clip-path="url(#pe0c6a318cc)" style="fill: none; stroke: #d62728; stroke-width: 1.5; stroke-linecap: square"/>
   </g>
   <g id="line2d_23">
    <path d="M 368.08484 103.106032 
L 369.170642 102.418712 
L 370.256443 107.34081 
L 371.342244 116.741574 
L 372.428045 108.515906 
L 373.513846 111.021298 
L 374.599647 104.835418 
L 375.685448 103.638151 
L 376.77125 104.901933 
L 377.857051 108.316361 
L 378.942852 105.54491 
L 380.028653 109.557971 
L 381.114454 103.771181 
L 382.200255 108.671107 
L 383.286057 111.486902 
L 384.371858 117.850154 
L 385.457659 104.569359 
L 386.54346 109.26974 
L 387.629261 105.057134 
L 388.715062 106.010514 
L 389.800863 107.828586 
L 390.886665 102.551742 
L 391.972466 103.261234 
L 393.058267 101.953109 
L 394.144068 107.917272 
L 395.229869 109.801859 
L 396.31567 104.85759 
L 397.401472 105.788797 
L 398.487273 108.050302 
L 398.487273 108.050302 
" clip-path="url(#pe0c6a318cc)" style="fill: none; stroke: #9467bd; stroke-width: 1.5; stroke-linecap: square"/>
   </g>
   <g id="patch_3">
    <path d="M 57.6 307.584 
L 57.6 41.472 
" style="fill: none; stroke: #000000; stroke-width: 0.8; stroke-linejoin: miter; stroke-linecap: square"/>
   </g>
   <g id="patch_4">
    <path d="M 414.72 307.584 
L 414.72 41.472 
" style="fill: none; stroke: #000000; stroke-width: 0.8; stroke-linejoin: miter; stroke-linecap: square"/>
   </g>
   <g id="patch_5">
    <path d="M 57.6 307.584 
L 414.72 307.584 
" style="fill: none; stroke: #000000; stroke-width: 0.8; stroke-linejoin: miter; stroke-linecap: square"/>
   </g>
   <g id="patch_6">
    <path d="M 57.6 41.472 
L 414.72 41.472 
" style="fill: none; stroke: #000000; stroke-width: 0.8; stroke-linejoin: miter; stroke-linecap: square"/>
   </g>
   <g id="text_21">
    <!-- Learning Curves -->
    <g transform="translate(187.37625 35.472) scale(0.12 -0.12)">
     <defs>
      <path id="DejaVuSans-4c" d="M 628 4666 
L 1259 4666 
L 1259 531 
L 3531 531 
L 3531 0 
L 628 0 
L 628 4666 
z
" transform="scale(0.015625)"/>
      <path id="DejaVuSans-65" d="M 3597 1894 
L 3597 1613 
L 953 1613 
Q 991 1019 1311 708 
Q 1631 397 2203 397 
Q 2534 397 2845 478 
Q 3156 559 3463 722 
L 3463 178 
Q 3153 47 2828 -22 
Q 2503 -91 2169 -91 
Q 1331 -91 842 396 
Q 353 884 353 1716 
Q 353 2575 817 3079 
Q 1281 3584 2069 3584 
Q 2775 3584 3186 3129 
Q 3597 2675 3597 1894 
z
M 3022 2063 
Q 3016 2534 2758 2815 
Q 2500 3097 2075 3097 
Q 1594 3097 1305 2825 
Q 1016 2553 972 2059 
L 3022 2063 
z
" transform="scale(0.015625)"/>
      <path id="DejaVuSans-6e" d="M 3513 2113 
L 3513 0 
L 2938 0 
L 2938 2094 
Q 2938 2591 2744 2837 
Q 2550 3084 2163 3084 
Q 1697 3084 1428 2787 
Q 1159 2491 1159 1978 
L 1159 0 
L 581 0 
L 581 3500 
L 1159 3500 
L 1159 2956 
Q 1366 3272 1645 3428 
Q 1925 3584 2291 3584 
Q 2894 3584 3203 3211 
Q 3513 2838 3513 2113 
z
" transform="scale(0.015625)"/>
      <path id="DejaVuSans-69" d="M 603 3500 
L 1178 3500 
L 1178 0 
L 603 0 
L 603 3500 
z
M 603 4863 
L 1178 4863 
L 1178 4134 
L 603 4134 
L 603 4863 
z
" transform="scale(0.015625)"/>
      <path id="DejaVuSans-67" d="M 2906 1791 
Q 2906 2416 2648 2759 
Q 2391 3103 1925 3103 
Q 1463 3103 1205 2759 
Q 947 2416 947 1791 
Q 947 1169 1205 825 
Q 1463 481 1925 481 
Q 2391 481 2648 825 
Q 2906 1169 2906 1791 
z
M 3481 434 
Q 3481 -459 3084 -895 
Q 2688 -1331 1869 -1331 
Q 1566 -1331 1297 -1286 
Q 1028 -1241 775 -1147 
L 775 -588 
Q 1028 -725 1275 -790 
Q 1522 -856 1778 -856 
Q 2344 -856 2625 -561 
Q 2906 -266 2906 331 
L 2906 616 
Q 2728 306 2450 153 
Q 2172 0 1784 0 
Q 1141 0 747 490 
Q 353 981 353 1791 
Q 353 2603 747 3093 
Q 1141 3584 1784 3584 
Q 2172 3584 2450 3431 
Q 2728 3278 2906 2969 
L 2906 3500 
L 3481 3500 
L 3481 434 
z
" transform="scale(0.015625)"/>
      <path id="DejaVuSans-20" transform="scale(0.015625)"/>
      <path id="DejaVuSans-43" d="M 4122 4306 
L 4122 3641 
Q 3803 3938 3442 4084 
Q 3081 4231 2675 4231 
Q 1875 4231 1450 3742 
Q 1025 3253 1025 2328 
Q 1025 1406 1450 917 
Q 1875 428 2675 428 
Q 3081 428 3442 575 
Q 3803 722 4122 1019 
L 4122 359 
Q 3791 134 3420 21 
Q 3050 -91 2638 -91 
Q 1578 -91 968 557 
Q 359 1206 359 2328 
Q 359 3453 968 4101 
Q 1578 4750 2638 4750 
Q 3056 4750 3426 4639 
Q 3797 4528 4122 4306 
z
" transform="scale(0.015625)"/>
      <path id="DejaVuSans-76" d="M 191 3500 
L 800 3500 
L 1894 563 
L 2988 3500 
L 3597 3500 
L 2284 0 
L 1503 0 
L 191 3500 
z
" transform="scale(0.015625)"/>
     </defs>
     <use xlink:href="#DejaVuSans-4c"/>
     <use xlink:href="#DejaVuSans-65" x="53.962891"/>
     <use xlink:href="#DejaVuSans-61" x="115.486328"/>
     <use xlink:href="#DejaVuSans-72" x="176.765625"/>
     <use xlink:href="#DejaVuSans-6e" x="216.128906"/>
     <use xlink:href="#DejaVuSans-69" x="279.507812"/>
     <use xlink:href="#DejaVuSans-6e" x="307.291016"/>
     <use xlink:href="#DejaVuSans-67" x="370.669922"/>
     <use xlink:href="#DejaVuSans-20" x="434.146484"/>
     <use xlink:href="#DejaVuSans-43" x="465.933594"/>
     <use xlink:href="#DejaVuSans-75" x="535.757812"/>
     <use xlink:href="#DejaVuSans-72" x="599.136719"/>
     <use xlink:href="#DejaVuSans-76" x="640.25"/>
     <use xlink:href="#DejaVuSans-65" x="699.429688"/>
     <use xlink:href="#DejaVuSans-73" x="760.953125"/>
    </g>
   </g>
   <g id="legend_1">
    <g id="patch_7">
     <path d="M 214.18875 302.584 
L 407.72 302.584 
Q 409.72 302.584 409.72 300.584 
L 409.72 228.193375 
Q 409.72 226.193375 407.72 226.193375 
L 214.18875 226.193375 
Q 212.18875 226.193375 212.18875 228.193375 
L 212.18875 300.584 
Q 212.18875 302.584 214.18875 302.584 
z
" style="fill: #ffffff; opacity: 0.8; stroke: #cccccc; stroke-linejoin: miter"/>
    </g>
    <g id="line2d_24">
     <path d="M 216.18875 234.291812 
L 226.18875 234.291812 
L 236.18875 234.291812 
" style="fill: none; stroke: #1f77b4; stroke-width: 1.5; stroke-linecap: square"/>
    </g>
    <g id="text_22">
     <!-- Train Accuracy -->
     <g transform="translate(244.18875 237.791812) scale(0.1 -0.1)">
      <defs>
       <path id="DejaVuSans-54" d="M -19 4666 
L 3928 4666 
L 3928 4134 
L 2272 4134 
L 2272 0 
L 1638 0 
L 1638 4134 
L -19 4134 
L -19 4666 
z
" transform="scale(0.015625)"/>
      </defs>
      <use xlink:href="#DejaVuSans-54"/>
      <use xlink:href="#DejaVuSans-72" x="46.333984"/>
      <use xlink:href="#DejaVuSans-61" x="87.447266"/>
      <use xlink:href="#DejaVuSans-69" x="148.726562"/>
      <use xlink:href="#DejaVuSans-6e" x="176.509766"/>
      <use xlink:href="#DejaVuSans-20" x="239.888672"/>
      <use xlink:href="#DejaVuSans-41" x="271.675781"/>
      <use xlink:href="#DejaVuSans-63" x="338.333984"/>
      <use xlink:href="#DejaVuSans-63" x="393.314453"/>
      <use xlink:href="#DejaVuSans-75" x="448.294922"/>
      <use xlink:href="#DejaVuSans-72" x="511.673828"/>
      <use xlink:href="#DejaVuSans-61" x="552.787109"/>
      <use xlink:href="#DejaVuSans-63" x="614.066406"/>
      <use xlink:href="#DejaVuSans-79" x="669.046875"/>
     </g>
    </g>
    <g id="line2d_25">
     <path d="M 216.18875 248.969937 
L 226.18875 248.969937 
L 236.18875 248.969937 
" style="fill: none; stroke: #ff7f0e; stroke-width: 1.5; stroke-linecap: square"/>
    </g>
    <g id="text_23">
     <!-- Validation Accuracy -->
     <g transform="translate(244.18875 252.469937) scale(0.1 -0.1)">
      <defs>
       <path id="DejaVuSans-56" d="M 1831 0 
L 50 4666 
L 709 4666 
L 2188 738 
L 3669 4666 
L 4325 4666 
L 2547 0 
L 1831 0 
z
" transform="scale(0.015625)"/>
       <path id="DejaVuSans-6c" d="M 603 4863 
L 1178 4863 
L 1178 0 
L 603 0 
L 603 4863 
z
" transform="scale(0.015625)"/>
       <path id="DejaVuSans-64" d="M 2906 2969 
L 2906 4863 
L 3481 4863 
L 3481 0 
L 2906 0 
L 2906 525 
Q 2725 213 2448 61 
Q 2172 -91 1784 -91 
Q 1150 -91 751 415 
Q 353 922 353 1747 
Q 353 2572 751 3078 
Q 1150 3584 1784 3584 
Q 2172 3584 2448 3432 
Q 2725 3281 2906 2969 
z
M 947 1747 
Q 947 1113 1208 752 
Q 1469 391 1925 391 
Q 2381 391 2643 752 
Q 2906 1113 2906 1747 
Q 2906 2381 2643 2742 
Q 2381 3103 1925 3103 
Q 1469 3103 1208 2742 
Q 947 2381 947 1747 
z
" transform="scale(0.015625)"/>
       <path id="DejaVuSans-74" d="M 1172 4494 
L 1172 3500 
L 2356 3500 
L 2356 3053 
L 1172 3053 
L 1172 1153 
Q 1172 725 1289 603 
Q 1406 481 1766 481 
L 2356 481 
L 2356 0 
L 1766 0 
Q 1100 0 847 248 
Q 594 497 594 1153 
L 594 3053 
L 172 3053 
L 172 3500 
L 594 3500 
L 594 4494 
L 1172 4494 
z
" transform="scale(0.015625)"/>
      </defs>
      <use xlink:href="#DejaVuSans-56"/>
      <use xlink:href="#DejaVuSans-61" x="60.658203"/>
      <use xlink:href="#DejaVuSans-6c" x="121.9375"/>
      <use xlink:href="#DejaVuSans-69" x="149.720703"/>
      <use xlink:href="#DejaVuSans-64" x="177.503906"/>
      <use xlink:href="#DejaVuSans-61" x="240.980469"/>
      <use xlink:href="#DejaVuSans-74" x="302.259766"/>
      <use xlink:href="#DejaVuSans-69" x="341.46875"/>
      <use xlink:href="#DejaVuSans-6f" x="369.251953"/>
      <use xlink:href="#DejaVuSans-6e" x="430.433594"/>
      <use xlink:href="#DejaVuSans-20" x="493.8125"/>
      <use xlink:href="#DejaVuSans-41" x="525.599609"/>
      <use xlink:href="#DejaVuSans-63" x="592.257812"/>
      <use xlink:href="#DejaVuSans-63" x="647.238281"/>
      <use xlink:href="#DejaVuSans-75" x="702.21875"/>
      <use xlink:href="#DejaVuSans-72" x="765.597656"/>
      <use xlink:href="#DejaVuSans-61" x="806.710938"/>
      <use xlink:href="#DejaVuSans-63" x="867.990234"/>
      <use xlink:href="#DejaVuSans-79" x="922.970703"/>
     </g>
    </g>
    <g id="line2d_26">
     <path d="M 216.18875 263.648062 
L 226.18875 263.648062 
L 236.18875 263.648062 
" style="fill: none; stroke: #2ca02c; stroke-width: 1.5; stroke-linecap: square"/>
    </g>
    <g id="text_24">
     <!-- Robust Validation Accuracy -->
     <g transform="translate(244.18875 267.148062) scale(0.1 -0.1)">
      <defs>
       <path id="DejaVuSans-52" d="M 2841 2188 
Q 3044 2119 3236 1894 
Q 3428 1669 3622 1275 
L 4263 0 
L 3584 0 
L 2988 1197 
Q 2756 1666 2539 1819 
Q 2322 1972 1947 1972 
L 1259 1972 
L 1259 0 
L 628 0 
L 628 4666 
L 2053 4666 
Q 2853 4666 3247 4331 
Q 3641 3997 3641 3322 
Q 3641 2881 3436 2590 
Q 3231 2300 2841 2188 
z
M 1259 4147 
L 1259 2491 
L 2053 2491 
Q 2509 2491 2742 2702 
Q 2975 2913 2975 3322 
Q 2975 3731 2742 3939 
Q 2509 4147 2053 4147 
L 1259 4147 
z
" transform="scale(0.015625)"/>
       <path id="DejaVuSans-62" d="M 3116 1747 
Q 3116 2381 2855 2742 
Q 2594 3103 2138 3103 
Q 1681 3103 1420 2742 
Q 1159 2381 1159 1747 
Q 1159 1113 1420 752 
Q 1681 391 2138 391 
Q 2594 391 2855 752 
Q 3116 1113 3116 1747 
z
M 1159 2969 
Q 1341 3281 1617 3432 
Q 1894 3584 2278 3584 
Q 2916 3584 3314 3078 
Q 3713 2572 3713 1747 
Q 3713 922 3314 415 
Q 2916 -91 2278 -91 
Q 1894 -91 1617 61 
Q 1341 213 1159 525 
L 1159 0 
L 581 0 
L 581 4863 
L 1159 4863 
L 1159 2969 
z
" transform="scale(0.015625)"/>
      </defs>
      <use xlink:href="#DejaVuSans-52"/>
      <use xlink:href="#DejaVuSans-6f" x="64.982422"/>
      <use xlink:href="#DejaVuSans-62" x="126.164062"/>
      <use xlink:href="#DejaVuSans-75" x="189.640625"/>
      <use xlink:href="#DejaVuSans-73" x="253.019531"/>
      <use xlink:href="#DejaVuSans-74" x="305.119141"/>
      <use xlink:href="#DejaVuSans-20" x="344.328125"/>
      <use xlink:href="#DejaVuSans-56" x="376.115234"/>
      <use xlink:href="#DejaVuSans-61" x="436.773438"/>
      <use xlink:href="#DejaVuSans-6c" x="498.052734"/>
      <use xlink:href="#DejaVuSans-69" x="525.835938"/>
      <use xlink:href="#DejaVuSans-64" x="553.619141"/>
      <use xlink:href="#DejaVuSans-61" x="617.095703"/>
      <use xlink:href="#DejaVuSans-74" x="678.375"/>
      <use xlink:href="#DejaVuSans-69" x="717.583984"/>
      <use xlink:href="#DejaVuSans-6f" x="745.367188"/>
      <use xlink:href="#DejaVuSans-6e" x="806.548828"/>
      <use xlink:href="#DejaVuSans-20" x="869.927734"/>
      <use xlink:href="#DejaVuSans-41" x="901.714844"/>
      <use xlink:href="#DejaVuSans-63" x="968.373047"/>
      <use xlink:href="#DejaVuSans-63" x="1023.353516"/>
      <use xlink:href="#DejaVuSans-75" x="1078.333984"/>
      <use xlink:href="#DejaVuSans-72" x="1141.712891"/>
      <use xlink:href="#DejaVuSans-61" x="1182.826172"/>
      <use xlink:href="#DejaVuSans-63" x="1244.105469"/>
      <use xlink:href="#DejaVuSans-79" x="1299.085938"/>
     </g>
    </g>
    <g id="line2d_27">
     <path d="M 216.18875 278.326188 
L 226.18875 278.326188 
L 236.18875 278.326188 
" style="fill: none; stroke: #d62728; stroke-width: 1.5; stroke-linecap: square"/>
    </g>
    <g id="text_25">
     <!-- SWA Validation Accuracy -->
     <g transform="translate(244.18875 281.826188) scale(0.1 -0.1)">
      <defs>
       <path id="DejaVuSans-53" d="M 3425 4513 
L 3425 3897 
Q 3066 4069 2747 4153 
Q 2428 4238 2131 4238 
Q 1616 4238 1336 4038 
Q 1056 3838 1056 3469 
Q 1056 3159 1242 3001 
Q 1428 2844 1947 2747 
L 2328 2669 
Q 3034 2534 3370 2195 
Q 3706 1856 3706 1288 
Q 3706 609 3251 259 
Q 2797 -91 1919 -91 
Q 1588 -91 1214 -16 
Q 841 59 441 206 
L 441 856 
Q 825 641 1194 531 
Q 1563 422 1919 422 
Q 2459 422 2753 634 
Q 3047 847 3047 1241 
Q 3047 1584 2836 1778 
Q 2625 1972 2144 2069 
L 1759 2144 
Q 1053 2284 737 2584 
Q 422 2884 422 3419 
Q 422 4038 858 4394 
Q 1294 4750 2059 4750 
Q 2388 4750 2728 4690 
Q 3069 4631 3425 4513 
z
" transform="scale(0.015625)"/>
       <path id="DejaVuSans-57" d="M 213 4666 
L 850 4666 
L 1831 722 
L 2809 4666 
L 3519 4666 
L 4500 722 
L 5478 4666 
L 6119 4666 
L 4947 0 
L 4153 0 
L 3169 4050 
L 2175 0 
L 1381 0 
L 213 4666 
z
" transform="scale(0.015625)"/>
      </defs>
      <use xlink:href="#DejaVuSans-53"/>
      <use xlink:href="#DejaVuSans-57" x="63.476562"/>
      <use xlink:href="#DejaVuSans-41" x="156.853516"/>
      <use xlink:href="#DejaVuSans-20" x="225.261719"/>
      <use xlink:href="#DejaVuSans-56" x="257.048828"/>
      <use xlink:href="#DejaVuSans-61" x="317.707031"/>
      <use xlink:href="#DejaVuSans-6c" x="378.986328"/>
      <use xlink:href="#DejaVuSans-69" x="406.769531"/>
      <use xlink:href="#DejaVuSans-64" x="434.552734"/>
      <use xlink:href="#DejaVuSans-61" x="498.029297"/>
      <use xlink:href="#DejaVuSans-74" x="559.308594"/>
      <use xlink:href="#DejaVuSans-69" x="598.517578"/>
      <use xlink:href="#DejaVuSans-6f" x="626.300781"/>
      <use xlink:href="#DejaVuSans-6e" x="687.482422"/>
      <use xlink:href="#DejaVuSans-20" x="750.861328"/>
      <use xlink:href="#DejaVuSans-41" x="782.648438"/>
      <use xlink:href="#DejaVuSans-63" x="849.306641"/>
      <use xlink:href="#DejaVuSans-63" x="904.287109"/>
      <use xlink:href="#DejaVuSans-75" x="959.267578"/>
      <use xlink:href="#DejaVuSans-72" x="1022.646484"/>
      <use xlink:href="#DejaVuSans-61" x="1063.759766"/>
      <use xlink:href="#DejaVuSans-63" x="1125.039062"/>
      <use xlink:href="#DejaVuSans-79" x="1180.019531"/>
     </g>
    </g>
    <g id="line2d_28">
     <path d="M 216.18875 293.004312 
L 226.18875 293.004312 
L 236.18875 293.004312 
" style="fill: none; stroke: #9467bd; stroke-width: 1.5; stroke-linecap: square"/>
    </g>
    <g id="text_26">
     <!-- SWA Robust Validation Accuracy -->
     <g transform="translate(244.18875 296.504312) scale(0.1 -0.1)">
      <use xlink:href="#DejaVuSans-53"/>
      <use xlink:href="#DejaVuSans-57" x="63.476562"/>
      <use xlink:href="#DejaVuSans-41" x="156.853516"/>
      <use xlink:href="#DejaVuSans-20" x="225.261719"/>
      <use xlink:href="#DejaVuSans-52" x="257.048828"/>
      <use xlink:href="#DejaVuSans-6f" x="322.03125"/>
      <use xlink:href="#DejaVuSans-62" x="383.212891"/>
      <use xlink:href="#DejaVuSans-75" x="446.689453"/>
      <use xlink:href="#DejaVuSans-73" x="510.068359"/>
      <use xlink:href="#DejaVuSans-74" x="562.167969"/>
      <use xlink:href="#DejaVuSans-20" x="601.376953"/>
      <use xlink:href="#DejaVuSans-56" x="633.164062"/>
      <use xlink:href="#DejaVuSans-61" x="693.822266"/>
      <use xlink:href="#DejaVuSans-6c" x="755.101562"/>
      <use xlink:href="#DejaVuSans-69" x="782.884766"/>
      <use xlink:href="#DejaVuSans-64" x="810.667969"/>
      <use xlink:href="#DejaVuSans-61" x="874.144531"/>
      <use xlink:href="#DejaVuSans-74" x="935.423828"/>
      <use xlink:href="#DejaVuSans-69" x="974.632812"/>
      <use xlink:href="#DejaVuSans-6f" x="1002.416016"/>
      <use xlink:href="#DejaVuSans-6e" x="1063.597656"/>
      <use xlink:href="#DejaVuSans-20" x="1126.976562"/>
      <use xlink:href="#DejaVuSans-41" x="1158.763672"/>
      <use xlink:href="#DejaVuSans-63" x="1225.421875"/>
      <use xlink:href="#DejaVuSans-63" x="1280.402344"/>
      <use xlink:href="#DejaVuSans-75" x="1335.382812"/>
      <use xlink:href="#DejaVuSans-72" x="1398.761719"/>
      <use xlink:href="#DejaVuSans-61" x="1439.875"/>
      <use xlink:href="#DejaVuSans-63" x="1501.154297"/>
      <use xlink:href="#DejaVuSans-79" x="1556.134766"/>
     </g>
    </g>
   </g>
  </g>
 </g>
 <defs>
  <clipPath id="pe0c6a318cc">
   <rect x="57.6" y="41.472" width="357.12" height="266.112"/>
  </clipPath>
 </defs>
</svg>
