<?xml version="1.0" encoding="utf-8" standalone="no"?>
<!DOCTYPE svg PUBLIC "-//W3C//DTD SVG 1.1//EN"
  "http://www.w3.org/Graphics/SVG/1.1/DTD/svg11.dtd">
<svg xmlns:xlink="http://www.w3.org/1999/xlink" width="460.8pt" height="345.6pt" viewBox="0 0 460.8 345.6" xmlns="http://www.w3.org/2000/svg" version="1.1">
 <metadata>
  <rdf:RDF xmlns:dc="http://purl.org/dc/elements/1.1/" xmlns:cc="http://creativecommons.org/ns#" xmlns:rdf="http://www.w3.org/1999/02/22-rdf-syntax-ns#">
   <cc:Work>
    <dc:type rdf:resource="http://purl.org/dc/dcmitype/StillImage"/>
    <dc:date>2025-10-12T16:03:38.516980</dc:date>
    <dc:format>image/svg+xml</dc:format>
    <dc:creator>
     <cc:Agent>
      <dc:title>Matplotlib v3.9.1, https://matplotlib.org/</dc:title>
     </cc:Agent>
    </dc:creator>
   </cc:Work>
  </rdf:RDF>
 </metadata>
 <defs>
  <style type="text/css">*{stroke-linejoin: round; stroke-linecap: butt}</style>
 </defs>
 <g id="figure_1">
  <g id="patch_1">
   <path d="M 0 345.6 
L 460.8 345.6 
L 460.8 0 
L 0 0 
z
" style="fill: #ffffff"/>
  </g>
  <g id="axes_1">
   <g id="patch_2">
    <path d="M 57.6 307.584 
L 414.72 307.584 
L 414.72 41.472 
L 57.6 41.472 
z
" style="fill: #ffffff"/>
   </g>
   <g id="matplotlib.axis_1">
    <g id="xtick_1">
     <g id="line2d_1">
      <defs>
       <path id="m02e586a7d9" d="M 0 0 
L 0 3.5 
" style="stroke: #000000; stroke-width: 0.8"/>
      </defs>
      <g>
       <use xlink:href="#m02e586a7d9" x="73.832727" y="307.584" style="stroke: #000000; stroke-width: 0.8"/>
      </g>
     </g>
     <g id="text_1">
      <!-- 1 -->
      <g transform="translate(70.651477 322.182437) scale(0.1 -0.1)">
       <defs>
        <path id="DejaVuSans-31" d="M 794 531 
L 1825 531 
L 1825 4091 
L 703 3866 
L 703 4441 
L 1819 4666 
L 2450 4666 
L 2450 531 
L 3481 531 
L 3481 0 
L 794 0 
L 794 531 
z
" transform="scale(0.015625)"/>
       </defs>
       <use xlink:href="#DejaVuSans-31"/>
      </g>
     </g>
    </g>
    <g id="xtick_2">
     <g id="line2d_2">
      <g>
       <use xlink:href="#m02e586a7d9" x="109.664165" y="307.584" style="stroke: #000000; stroke-width: 0.8"/>
      </g>
     </g>
     <g id="text_2">
      <!-- 34 -->
      <g transform="translate(103.301665 322.182437) scale(0.1 -0.1)">
       <defs>
        <path id="DejaVuSans-33" d="M 2597 2516 
Q 3050 2419 3304 2112 
Q 3559 1806 3559 1356 
Q 3559 666 3084 287 
Q 2609 -91 1734 -91 
Q 1441 -91 1130 -33 
Q 819 25 488 141 
L 488 750 
Q 750 597 1062 519 
Q 1375 441 1716 441 
Q 2309 441 2620 675 
Q 2931 909 2931 1356 
Q 2931 1769 2642 2001 
Q 2353 2234 1838 2234 
L 1294 2234 
L 1294 2753 
L 1863 2753 
Q 2328 2753 2575 2939 
Q 2822 3125 2822 3475 
Q 2822 3834 2567 4026 
Q 2313 4219 1838 4219 
Q 1578 4219 1281 4162 
Q 984 4106 628 3988 
L 628 4550 
Q 988 4650 1302 4700 
Q 1616 4750 1894 4750 
Q 2613 4750 3031 4423 
Q 3450 4097 3450 3541 
Q 3450 3153 3228 2886 
Q 3006 2619 2597 2516 
z
" transform="scale(0.015625)"/>
        <path id="DejaVuSans-34" d="M 2419 4116 
L 825 1625 
L 2419 1625 
L 2419 4116 
z
M 2253 4666 
L 3047 4666 
L 3047 1625 
L 3713 1625 
L 3713 1100 
L 3047 1100 
L 3047 0 
L 2419 0 
L 2419 1100 
L 313 1100 
L 313 1709 
L 2253 4666 
z
" transform="scale(0.015625)"/>
       </defs>
       <use xlink:href="#DejaVuSans-33"/>
       <use xlink:href="#DejaVuSans-34" x="63.623047"/>
      </g>
     </g>
    </g>
    <g id="xtick_3">
     <g id="line2d_3">
      <g>
       <use xlink:href="#m02e586a7d9" x="145.495604" y="307.584" style="stroke: #000000; stroke-width: 0.8"/>
      </g>
     </g>
     <g id="text_3">
      <!-- 67 -->
      <g transform="translate(139.133104 322.182437) scale(0.1 -0.1)">
       <defs>
        <path id="DejaVuSans-36" d="M 2113 2584 
Q 1688 2584 1439 2293 
Q 1191 2003 1191 1497 
Q 1191 994 1439 701 
Q 1688 409 2113 409 
Q 2538 409 2786 701 
Q 3034 994 3034 1497 
Q 3034 2003 2786 2293 
Q 2538 2584 2113 2584 
z
M 3366 4563 
L 3366 3988 
Q 3128 4100 2886 4159 
Q 2644 4219 2406 4219 
Q 1781 4219 1451 3797 
Q 1122 3375 1075 2522 
Q 1259 2794 1537 2939 
Q 1816 3084 2150 3084 
Q 2853 3084 3261 2657 
Q 3669 2231 3669 1497 
Q 3669 778 3244 343 
Q 2819 -91 2113 -91 
Q 1303 -91 875 529 
Q 447 1150 447 2328 
Q 447 3434 972 4092 
Q 1497 4750 2381 4750 
Q 2619 4750 2861 4703 
Q 3103 4656 3366 4563 
z
" transform="scale(0.015625)"/>
        <path id="DejaVuSans-37" d="M 525 4666 
L 3525 4666 
L 3525 4397 
L 1831 0 
L 1172 0 
L 2766 4134 
L 525 4134 
L 525 4666 
z
" transform="scale(0.015625)"/>
       </defs>
       <use xlink:href="#DejaVuSans-36"/>
       <use xlink:href="#DejaVuSans-37" x="63.623047"/>
      </g>
     </g>
    </g>
    <g id="xtick_4">
     <g id="line2d_4">
      <g>
       <use xlink:href="#m02e586a7d9" x="181.327042" y="307.584" style="stroke: #000000; stroke-width: 0.8"/>
      </g>
     </g>
     <g id="text_4">
      <!-- 100 -->
      <g transform="translate(171.783292 322.182437) scale(0.1 -0.1)">
       <defs>
        <path id="DejaVuSans-30" d="M 2034 4250 
Q 1547 4250 1301 3770 
Q 1056 3291 1056 2328 
Q 1056 1369 1301 889 
Q 1547 409 2034 409 
Q 2525 409 2770 889 
Q 3016 1369 3016 2328 
Q 3016 3291 2770 3770 
Q 2525 4250 2034 4250 
z
M 2034 4750 
Q 2819 4750 3233 4129 
Q 3647 3509 3647 2328 
Q 3647 1150 3233 529 
Q 2819 -91 2034 -91 
Q 1250 -91 836 529 
Q 422 1150 422 2328 
Q 422 3509 836 4129 
Q 1250 4750 2034 4750 
z
" transform="scale(0.015625)"/>
       </defs>
       <use xlink:href="#DejaVuSans-31"/>
       <use xlink:href="#DejaVuSans-30" x="63.623047"/>
       <use xlink:href="#DejaVuSans-30" x="127.246094"/>
      </g>
     </g>
    </g>
    <g id="xtick_5">
     <g id="line2d_5">
      <g>
       <use xlink:href="#m02e586a7d9" x="217.15848" y="307.584" style="stroke: #000000; stroke-width: 0.8"/>
      </g>
     </g>
     <g id="text_5">
      <!-- 133 -->
      <g transform="translate(207.61473 322.182437) scale(0.1 -0.1)">
       <use xlink:href="#DejaVuSans-31"/>
       <use xlink:href="#DejaVuSans-33" x="63.623047"/>
       <use xlink:href="#DejaVuSans-33" x="127.246094"/>
      </g>
     </g>
    </g>
    <g id="xtick_6">
     <g id="line2d_6">
      <g>
       <use xlink:href="#m02e586a7d9" x="254.075719" y="307.584" style="stroke: #000000; stroke-width: 0.8"/>
      </g>
     </g>
     <g id="text_6">
      <!-- 167 -->
      <g transform="translate(244.531969 322.182437) scale(0.1 -0.1)">
       <use xlink:href="#DejaVuSans-31"/>
       <use xlink:href="#DejaVuSans-36" x="63.623047"/>
       <use xlink:href="#DejaVuSans-37" x="127.246094"/>
      </g>
     </g>
    </g>
    <g id="xtick_7">
     <g id="line2d_7">
      <g>
       <use xlink:href="#m02e586a7d9" x="289.907157" y="307.584" style="stroke: #000000; stroke-width: 0.8"/>
      </g>
     </g>
     <g id="text_7">
      <!-- 200 -->
      <g transform="translate(280.363407 322.182437) scale(0.1 -0.1)">
       <defs>
        <path id="DejaVuSans-32" d="M 1228 531 
L 3431 531 
L 3431 0 
L 469 0 
L 469 531 
Q 828 903 1448 1529 
Q 2069 2156 2228 2338 
Q 2531 2678 2651 2914 
Q 2772 3150 2772 3378 
Q 2772 3750 2511 3984 
Q 2250 4219 1831 4219 
Q 1534 4219 1204 4116 
Q 875 4013 500 3803 
L 500 4441 
Q 881 4594 1212 4672 
Q 1544 4750 1819 4750 
Q 2544 4750 2975 4387 
Q 3406 4025 3406 3419 
Q 3406 3131 3298 2873 
Q 3191 2616 2906 2266 
Q 2828 2175 2409 1742 
Q 1991 1309 1228 531 
z
" transform="scale(0.015625)"/>
       </defs>
       <use xlink:href="#DejaVuSans-32"/>
       <use xlink:href="#DejaVuSans-30" x="63.623047"/>
       <use xlink:href="#DejaVuSans-30" x="127.246094"/>
      </g>
     </g>
    </g>
    <g id="xtick_8">
     <g id="line2d_8">
      <g>
       <use xlink:href="#m02e586a7d9" x="325.738595" y="307.584" style="stroke: #000000; stroke-width: 0.8"/>
      </g>
     </g>
     <g id="text_8">
      <!-- 233 -->
      <g transform="translate(316.194845 322.182437) scale(0.1 -0.1)">
       <use xlink:href="#DejaVuSans-32"/>
       <use xlink:href="#DejaVuSans-33" x="63.623047"/>
       <use xlink:href="#DejaVuSans-33" x="127.246094"/>
      </g>
     </g>
    </g>
    <g id="xtick_9">
     <g id="line2d_9">
      <g>
       <use xlink:href="#m02e586a7d9" x="361.570033" y="307.584" style="stroke: #000000; stroke-width: 0.8"/>
      </g>
     </g>
     <g id="text_9">
      <!-- 266 -->
      <g transform="translate(352.026283 322.182437) scale(0.1 -0.1)">
       <use xlink:href="#DejaVuSans-32"/>
       <use xlink:href="#DejaVuSans-36" x="63.623047"/>
       <use xlink:href="#DejaVuSans-36" x="127.246094"/>
      </g>
     </g>
    </g>
    <g id="xtick_10">
     <g id="line2d_10">
      <g>
       <use xlink:href="#m02e586a7d9" x="398.487273" y="307.584" style="stroke: #000000; stroke-width: 0.8"/>
      </g>
     </g>
     <g id="text_10">
      <!-- 300 -->
      <g transform="translate(388.943523 322.182437) scale(0.1 -0.1)">
       <use xlink:href="#DejaVuSans-33"/>
       <use xlink:href="#DejaVuSans-30" x="63.623047"/>
       <use xlink:href="#DejaVuSans-30" x="127.246094"/>
      </g>
     </g>
    </g>
    <g id="text_11">
     <!-- Epochs -->
     <g transform="translate(218.244375 335.860562) scale(0.1 -0.1)">
      <defs>
       <path id="DejaVuSans-45" d="M 628 4666 
L 3578 4666 
L 3578 4134 
L 1259 4134 
L 1259 2753 
L 3481 2753 
L 3481 2222 
L 1259 2222 
L 1259 531 
L 3634 531 
L 3634 0 
L 628 0 
L 628 4666 
z
" transform="scale(0.015625)"/>
       <path id="DejaVuSans-70" d="M 1159 525 
L 1159 -1331 
L 581 -1331 
L 581 3500 
L 1159 3500 
L 1159 2969 
Q 1341 3281 1617 3432 
Q 1894 3584 2278 3584 
Q 2916 3584 3314 3078 
Q 3713 2572 3713 1747 
Q 3713 922 3314 415 
Q 2916 -91 2278 -91 
Q 1894 -91 1617 61 
Q 1341 213 1159 525 
z
M 3116 1747 
Q 3116 2381 2855 2742 
Q 2594 3103 2138 3103 
Q 1681 3103 1420 2742 
Q 1159 2381 1159 1747 
Q 1159 1113 1420 752 
Q 1681 391 2138 391 
Q 2594 391 2855 752 
Q 3116 1113 3116 1747 
z
" transform="scale(0.015625)"/>
       <path id="DejaVuSans-6f" d="M 1959 3097 
Q 1497 3097 1228 2736 
Q 959 2375 959 1747 
Q 959 1119 1226 758 
Q 1494 397 1959 397 
Q 2419 397 2687 759 
Q 2956 1122 2956 1747 
Q 2956 2369 2687 2733 
Q 2419 3097 1959 3097 
z
M 1959 3584 
Q 2709 3584 3137 3096 
Q 3566 2609 3566 1747 
Q 3566 888 3137 398 
Q 2709 -91 1959 -91 
Q 1206 -91 779 398 
Q 353 888 353 1747 
Q 353 2609 779 3096 
Q 1206 3584 1959 3584 
z
" transform="scale(0.015625)"/>
       <path id="DejaVuSans-63" d="M 3122 3366 
L 3122 2828 
Q 2878 2963 2633 3030 
Q 2388 3097 2138 3097 
Q 1578 3097 1268 2742 
Q 959 2388 959 1747 
Q 959 1106 1268 751 
Q 1578 397 2138 397 
Q 2388 397 2633 464 
Q 2878 531 3122 666 
L 3122 134 
Q 2881 22 2623 -34 
Q 2366 -91 2075 -91 
Q 1284 -91 818 406 
Q 353 903 353 1747 
Q 353 2603 823 3093 
Q 1294 3584 2113 3584 
Q 2378 3584 2631 3529 
Q 2884 3475 3122 3366 
z
" transform="scale(0.015625)"/>
       <path id="DejaVuSans-68" d="M 3513 2113 
L 3513 0 
L 2938 0 
L 2938 2094 
Q 2938 2591 2744 2837 
Q 2550 3084 2163 3084 
Q 1697 3084 1428 2787 
Q 1159 2491 1159 1978 
L 1159 0 
L 581 0 
L 581 4863 
L 1159 4863 
L 1159 2956 
Q 1366 3272 1645 3428 
Q 1925 3584 2291 3584 
Q 2894 3584 3203 3211 
Q 3513 2838 3513 2113 
z
" transform="scale(0.015625)"/>
       <path id="DejaVuSans-73" d="M 2834 3397 
L 2834 2853 
Q 2591 2978 2328 3040 
Q 2066 3103 1784 3103 
Q 1356 3103 1142 2972 
Q 928 2841 928 2578 
Q 928 2378 1081 2264 
Q 1234 2150 1697 2047 
L 1894 2003 
Q 2506 1872 2764 1633 
Q 3022 1394 3022 966 
Q 3022 478 2636 193 
Q 2250 -91 1575 -91 
Q 1294 -91 989 -36 
Q 684 19 347 128 
L 347 722 
Q 666 556 975 473 
Q 1284 391 1588 391 
Q 1994 391 2212 530 
Q 2431 669 2431 922 
Q 2431 1156 2273 1281 
Q 2116 1406 1581 1522 
L 1381 1569 
Q 847 1681 609 1914 
Q 372 2147 372 2553 
Q 372 3047 722 3315 
Q 1072 3584 1716 3584 
Q 2034 3584 2315 3537 
Q 2597 3491 2834 3397 
z
" transform="scale(0.015625)"/>
      </defs>
      <use xlink:href="#DejaVuSans-45"/>
      <use xlink:href="#DejaVuSans-70" x="63.183594"/>
      <use xlink:href="#DejaVuSans-6f" x="126.660156"/>
      <use xlink:href="#DejaVuSans-63" x="187.841797"/>
      <use xlink:href="#DejaVuSans-68" x="242.822266"/>
      <use xlink:href="#DejaVuSans-73" x="306.201172"/>
     </g>
    </g>
   </g>
   <g id="matplotlib.axis_2">
    <g id="ytick_1">
     <g id="line2d_11">
      <defs>
       <path id="m18f94ffc83" d="M 0 0 
L -3.5 0 
" style="stroke: #000000; stroke-width: 0.8"/>
      </defs>
      <g>
       <use xlink:href="#m18f94ffc83" x="57.6" y="301.794145" style="stroke: #000000; stroke-width: 0.8"/>
      </g>
     </g>
     <g id="text_12">
      <!-- 40 -->
      <g transform="translate(37.875 305.593364) scale(0.1 -0.1)">
       <use xlink:href="#DejaVuSans-34"/>
       <use xlink:href="#DejaVuSans-30" x="63.623047"/>
      </g>
     </g>
    </g>
    <g id="ytick_2">
     <g id="line2d_12">
      <g>
       <use xlink:href="#m18f94ffc83" x="57.6" y="260.418984" style="stroke: #000000; stroke-width: 0.8"/>
      </g>
     </g>
     <g id="text_13">
      <!-- 50 -->
      <g transform="translate(37.875 264.218202) scale(0.1 -0.1)">
       <defs>
        <path id="DejaVuSans-35" d="M 691 4666 
L 3169 4666 
L 3169 4134 
L 1269 4134 
L 1269 2991 
Q 1406 3038 1543 3061 
Q 1681 3084 1819 3084 
Q 2600 3084 3056 2656 
Q 3513 2228 3513 1497 
Q 3513 744 3044 326 
Q 2575 -91 1722 -91 
Q 1428 -91 1123 -41 
Q 819 9 494 109 
L 494 744 
Q 775 591 1075 516 
Q 1375 441 1709 441 
Q 2250 441 2565 725 
Q 2881 1009 2881 1497 
Q 2881 1984 2565 2268 
Q 2250 2553 1709 2553 
Q 1456 2553 1204 2497 
Q 953 2441 691 2322 
L 691 4666 
z
" transform="scale(0.015625)"/>
       </defs>
       <use xlink:href="#DejaVuSans-35"/>
       <use xlink:href="#DejaVuSans-30" x="63.623047"/>
      </g>
     </g>
    </g>
    <g id="ytick_3">
     <g id="line2d_13">
      <g>
       <use xlink:href="#m18f94ffc83" x="57.6" y="219.043822" style="stroke: #000000; stroke-width: 0.8"/>
      </g>
     </g>
     <g id="text_14">
      <!-- 60 -->
      <g transform="translate(37.875 222.843041) scale(0.1 -0.1)">
       <use xlink:href="#DejaVuSans-36"/>
       <use xlink:href="#DejaVuSans-30" x="63.623047"/>
      </g>
     </g>
    </g>
    <g id="ytick_4">
     <g id="line2d_14">
      <g>
       <use xlink:href="#m18f94ffc83" x="57.6" y="177.66866" style="stroke: #000000; stroke-width: 0.8"/>
      </g>
     </g>
     <g id="text_15">
      <!-- 70 -->
      <g transform="translate(37.875 181.467879) scale(0.1 -0.1)">
       <use xlink:href="#DejaVuSans-37"/>
       <use xlink:href="#DejaVuSans-30" x="63.623047"/>
      </g>
     </g>
    </g>
    <g id="ytick_5">
     <g id="line2d_15">
      <g>
       <use xlink:href="#m18f94ffc83" x="57.6" y="136.293498" style="stroke: #000000; stroke-width: 0.8"/>
      </g>
     </g>
     <g id="text_16">
      <!-- 80 -->
      <g transform="translate(37.875 140.092717) scale(0.1 -0.1)">
       <defs>
        <path id="DejaVuSans-38" d="M 2034 2216 
Q 1584 2216 1326 1975 
Q 1069 1734 1069 1313 
Q 1069 891 1326 650 
Q 1584 409 2034 409 
Q 2484 409 2743 651 
Q 3003 894 3003 1313 
Q 3003 1734 2745 1975 
Q 2488 2216 2034 2216 
z
M 1403 2484 
Q 997 2584 770 2862 
Q 544 3141 544 3541 
Q 544 4100 942 4425 
Q 1341 4750 2034 4750 
Q 2731 4750 3128 4425 
Q 3525 4100 3525 3541 
Q 3525 3141 3298 2862 
Q 3072 2584 2669 2484 
Q 3125 2378 3379 2068 
Q 3634 1759 3634 1313 
Q 3634 634 3220 271 
Q 2806 -91 2034 -91 
Q 1263 -91 848 271 
Q 434 634 434 1313 
Q 434 1759 690 2068 
Q 947 2378 1403 2484 
z
M 1172 3481 
Q 1172 3119 1398 2916 
Q 1625 2713 2034 2713 
Q 2441 2713 2670 2916 
Q 2900 3119 2900 3481 
Q 2900 3844 2670 4047 
Q 2441 4250 2034 4250 
Q 1625 4250 1398 4047 
Q 1172 3844 1172 3481 
z
" transform="scale(0.015625)"/>
       </defs>
       <use xlink:href="#DejaVuSans-38"/>
       <use xlink:href="#DejaVuSans-30" x="63.623047"/>
      </g>
     </g>
    </g>
    <g id="ytick_6">
     <g id="line2d_16">
      <g>
       <use xlink:href="#m18f94ffc83" x="57.6" y="94.918337" style="stroke: #000000; stroke-width: 0.8"/>
      </g>
     </g>
     <g id="text_17">
      <!-- 90 -->
      <g transform="translate(37.875 98.717555) scale(0.1 -0.1)">
       <defs>
        <path id="DejaVuSans-39" d="M 703 97 
L 703 672 
Q 941 559 1184 500 
Q 1428 441 1663 441 
Q 2288 441 2617 861 
Q 2947 1281 2994 2138 
Q 2813 1869 2534 1725 
Q 2256 1581 1919 1581 
Q 1219 1581 811 2004 
Q 403 2428 403 3163 
Q 403 3881 828 4315 
Q 1253 4750 1959 4750 
Q 2769 4750 3195 4129 
Q 3622 3509 3622 2328 
Q 3622 1225 3098 567 
Q 2575 -91 1691 -91 
Q 1453 -91 1209 -44 
Q 966 3 703 97 
z
M 1959 2075 
Q 2384 2075 2632 2365 
Q 2881 2656 2881 3163 
Q 2881 3666 2632 3958 
Q 2384 4250 1959 4250 
Q 1534 4250 1286 3958 
Q 1038 3666 1038 3163 
Q 1038 2656 1286 2365 
Q 1534 2075 1959 2075 
z
" transform="scale(0.015625)"/>
       </defs>
       <use xlink:href="#DejaVuSans-39"/>
       <use xlink:href="#DejaVuSans-30" x="63.623047"/>
      </g>
     </g>
    </g>
    <g id="ytick_7">
     <g id="line2d_17">
      <g>
       <use xlink:href="#m18f94ffc83" x="57.6" y="53.543175" style="stroke: #000000; stroke-width: 0.8"/>
      </g>
     </g>
     <g id="text_18">
      <!-- 100 -->
      <g transform="translate(31.5125 57.342394) scale(0.1 -0.1)">
       <use xlink:href="#DejaVuSans-31"/>
       <use xlink:href="#DejaVuSans-30" x="63.623047"/>
       <use xlink:href="#DejaVuSans-30" x="127.246094"/>
      </g>
     </g>
    </g>
    <g id="text_19">
     <!-- Accuracy -->
     <g transform="translate(25.432812 197.356125) rotate(-90) scale(0.1 -0.1)">
      <defs>
       <path id="DejaVuSans-41" d="M 2188 4044 
L 1331 1722 
L 3047 1722 
L 2188 4044 
z
M 1831 4666 
L 2547 4666 
L 4325 0 
L 3669 0 
L 3244 1197 
L 1141 1197 
L 716 0 
L 50 0 
L 1831 4666 
z
" transform="scale(0.015625)"/>
       <path id="DejaVuSans-75" d="M 544 1381 
L 544 3500 
L 1119 3500 
L 1119 1403 
Q 1119 906 1312 657 
Q 1506 409 1894 409 
Q 2359 409 2629 706 
Q 2900 1003 2900 1516 
L 2900 3500 
L 3475 3500 
L 3475 0 
L 2900 0 
L 2900 538 
Q 2691 219 2414 64 
Q 2138 -91 1772 -91 
Q 1169 -91 856 284 
Q 544 659 544 1381 
z
M 1991 3584 
L 1991 3584 
z
" transform="scale(0.015625)"/>
       <path id="DejaVuSans-72" d="M 2631 2963 
Q 2534 3019 2420 3045 
Q 2306 3072 2169 3072 
Q 1681 3072 1420 2755 
Q 1159 2438 1159 1844 
L 1159 0 
L 581 0 
L 581 3500 
L 1159 3500 
L 1159 2956 
Q 1341 3275 1631 3429 
Q 1922 3584 2338 3584 
Q 2397 3584 2469 3576 
Q 2541 3569 2628 3553 
L 2631 2963 
z
" transform="scale(0.015625)"/>
       <path id="DejaVuSans-61" d="M 2194 1759 
Q 1497 1759 1228 1600 
Q 959 1441 959 1056 
Q 959 750 1161 570 
Q 1363 391 1709 391 
Q 2188 391 2477 730 
Q 2766 1069 2766 1631 
L 2766 1759 
L 2194 1759 
z
M 3341 1997 
L 3341 0 
L 2766 0 
L 2766 531 
Q 2569 213 2275 61 
Q 1981 -91 1556 -91 
Q 1019 -91 701 211 
Q 384 513 384 1019 
Q 384 1609 779 1909 
Q 1175 2209 1959 2209 
L 2766 2209 
L 2766 2266 
Q 2766 2663 2505 2880 
Q 2244 3097 1772 3097 
Q 1472 3097 1187 3025 
Q 903 2953 641 2809 
L 641 3341 
Q 956 3463 1253 3523 
Q 1550 3584 1831 3584 
Q 2591 3584 2966 3190 
Q 3341 2797 3341 1997 
z
" transform="scale(0.015625)"/>
       <path id="DejaVuSans-79" d="M 2059 -325 
Q 1816 -950 1584 -1140 
Q 1353 -1331 966 -1331 
L 506 -1331 
L 506 -850 
L 844 -850 
Q 1081 -850 1212 -737 
Q 1344 -625 1503 -206 
L 1606 56 
L 191 3500 
L 800 3500 
L 1894 763 
L 2988 3500 
L 3597 3500 
L 2059 -325 
z
" transform="scale(0.015625)"/>
      </defs>
      <use xlink:href="#DejaVuSans-41"/>
      <use xlink:href="#DejaVuSans-63" x="66.658203"/>
      <use xlink:href="#DejaVuSans-63" x="121.638672"/>
      <use xlink:href="#DejaVuSans-75" x="176.619141"/>
      <use xlink:href="#DejaVuSans-72" x="239.998047"/>
      <use xlink:href="#DejaVuSans-61" x="281.111328"/>
      <use xlink:href="#DejaVuSans-63" x="342.390625"/>
      <use xlink:href="#DejaVuSans-79" x="397.371094"/>
     </g>
    </g>
   </g>
   <g id="line2d_18">
    <path d="M 73.832727 263.580046 
L 74.918528 182.534379 
L 76.00433 150.807905 
L 77.090131 133.223461 
L 78.175932 122.805196 
L 79.261733 115.622468 
L 81.433335 103.218194 
L 83.604938 93.24678 
L 84.690739 89.705066 
L 85.77654 87.148081 
L 86.862341 82.340287 
L 89.033943 75.157559 
L 91.205546 70.25874 
L 92.291347 68.338933 
L 93.377148 66.774952 
L 94.462949 65.955723 
L 95.54875 94.719736 
L 96.634552 93.999808 
L 97.720353 91.285597 
L 98.806154 88.041785 
L 99.891955 86.006127 
L 100.977756 84.864172 
L 102.063557 81.852061 
L 103.149358 81.008007 
L 104.23516 78.997174 
L 105.320961 78.517223 
L 106.406762 76.150563 
L 107.492563 75.24031 
L 108.578364 74.098355 
L 109.664165 72.145448 
L 110.749967 70.697317 
L 111.835768 70.24219 
L 112.921569 68.951285 
L 114.00737 68.065857 
L 115.093171 66.576351 
L 116.178972 65.533697 
L 117.264773 64.011091 
L 118.350575 63.183588 
L 119.436376 61.925783 
L 120.522177 60.998979 
L 121.607978 59.765999 
L 122.693779 58.71507 
L 123.77958 57.821367 
L 128.122785 55.603658 
L 130.294387 54.892005 
L 131.380189 54.743055 
L 132.46599 54.776155 
L 133.551791 54.494804 
L 137.894995 54.345853 
L 138.980797 74.735533 
L 140.066598 76.57259 
L 141.152399 75.496836 
L 142.2382 74.131455 
L 143.324001 73.080526 
L 144.409802 72.476449 
L 145.495604 71.607571 
L 146.581405 70.904193 
L 147.667206 70.358041 
L 148.753007 68.595459 
L 149.838808 69.091961 
L 150.924609 68.984385 
L 152.01041 68.057582 
L 153.096212 68.189982 
L 154.182013 66.766677 
L 156.353615 66.005374 
L 157.439416 65.914348 
L 158.525217 64.96272 
L 159.611019 65.19442 
L 162.868422 63.423564 
L 163.954223 63.423564 
L 165.040024 63.183588 
L 167.211627 62.331259 
L 170.46903 61.636157 
L 171.554831 61.238955 
L 172.640632 60.138376 
L 173.726434 60.097001 
L 174.812235 59.459823 
L 175.898036 59.476373 
L 176.983837 59.377073 
L 178.069638 58.830921 
L 179.155439 58.607495 
L 180.24124 58.185468 
L 182.412843 57.738616 
L 184.584445 56.646312 
L 185.670246 57.018688 
L 186.756047 56.315311 
L 187.841849 55.802259 
L 188.92765 55.165081 
L 190.013451 55.413332 
L 191.099252 55.438157 
L 192.185053 54.83408 
L 193.270854 54.908555 
L 200.871462 53.890726 
L 201.957264 54.147252 
L 204.128866 53.758326 
L 212.815275 53.675575 
L 214.986877 53.6342 
L 224.759088 53.659025 
L 225.844889 70.19254 
L 226.93069 73.030876 
L 228.016491 72.435074 
L 229.102292 71.152444 
L 231.273895 69.315387 
L 232.359696 69.365037 
L 233.445497 68.272732 
L 234.531298 67.900356 
L 235.617099 67.114228 
L 236.702901 66.088124 
L 238.874503 66.146049 
L 239.960304 65.401296 
L 241.046105 64.400017 
L 242.131906 64.772394 
L 243.217708 64.805494 
L 244.303509 64.143491 
L 245.38931 63.71319 
L 246.475111 63.71319 
L 247.560912 63.886965 
L 249.732514 63.076012 
L 250.818316 63.572514 
L 251.904117 62.976712 
L 252.989918 62.149209 
L 254.075719 62.678811 
L 255.16152 62.405735 
L 256.247321 62.811211 
L 258.418924 61.942333 
L 259.504725 62.207134 
L 260.590526 62.215409 
L 261.676327 61.305155 
L 262.762128 61.34653 
L 263.847929 61.073454 
L 264.933731 60.916229 
L 266.019532 61.677532 
L 267.105333 60.883129 
L 268.191134 60.725903 
L 269.276935 60.866579 
L 270.362736 61.205855 
L 271.448538 60.618328 
L 272.534339 60.907954 
L 273.62014 60.750728 
L 274.705941 59.84875 
L 275.791742 60.287326 
L 276.877543 60.163201 
L 277.963344 59.112272 
L 279.049146 60.022525 
L 280.134947 59.633599 
L 283.39235 59.418448 
L 284.478151 59.741174 
L 285.563953 59.352248 
L 286.649754 59.426723 
L 287.735555 58.913671 
L 288.821356 58.68197 
L 289.907157 59.120547 
L 290.992958 59.046071 
L 292.07876 58.259943 
L 293.164561 58.425444 
L 294.250362 59.079172 
L 295.336163 58.400619 
L 296.421964 58.218568 
L 297.507765 58.508194 
L 299.679368 57.391065 
L 300.765169 57.680691 
L 301.85097 57.755166 
L 304.022572 57.581391 
L 305.108373 57.291765 
L 306.194175 57.275214 
L 307.279976 57.060064 
L 308.365777 57.051789 
L 309.451578 56.720787 
L 310.537379 57.142814 
L 311.62318 56.406336 
L 312.708981 56.712512 
L 313.794783 56.505636 
L 314.880584 56.042235 
L 315.966385 56.331861 
L 317.052186 56.505636 
L 318.137987 56.480811 
L 319.223788 55.934659 
L 320.30959 55.942934 
L 321.395391 55.686408 
L 322.481192 55.272657 
L 323.566993 55.214731 
L 325.738595 55.297482 
L 326.824396 54.90028 
L 327.910198 55.214731 
L 328.995999 55.206456 
L 330.0818 54.88373 
L 334.425005 54.428603 
L 335.510806 54.569279 
L 336.596607 54.321028 
L 337.682408 54.246553 
L 339.85401 54.428603 
L 340.939811 54.114152 
L 343.111414 54.014852 
L 344.197215 53.874176 
L 349.626221 53.807976 
L 350.712022 53.65075 
L 351.797823 53.799701 
L 356.141028 53.642475 
L 357.226829 53.700401 
L 359.398431 53.6011 
L 365.913238 53.576275 
L 373.513846 53.807976 
L 374.599647 53.65075 
L 375.685448 53.882451 
L 377.857051 54.006577 
L 380.028653 54.312753 
L 381.114454 54.271378 
L 383.286057 54.494804 
L 384.371858 54.287928 
L 385.457659 54.594104 
L 386.54346 54.453428 
L 387.629261 54.469979 
L 388.715062 54.90028 
L 389.800863 54.279653 
L 391.972466 54.494804 
L 393.058267 54.693404 
L 395.229869 54.76788 
L 396.31567 54.999581 
L 397.401472 54.569279 
L 398.487273 54.858905 
L 398.487273 54.858905 
" clip-path="url(#p239d3b5135)" style="fill: none; stroke: #1f77b4; stroke-width: 1.5; stroke-linecap: square"/>
   </g>
   <g id="line2d_19">
    <path d="M 73.832727 246.434179 
L 74.918528 182.178553 
L 76.00433 173.158767 
L 77.090131 148.664672 
L 78.175932 135.465995 
L 79.261733 139.934513 
L 80.347534 126.032458 
L 81.433335 124.749828 
L 82.519137 115.109416 
L 83.604938 122.019068 
L 84.690739 104.393249 
L 85.77654 105.882755 
L 86.862341 98.476601 
L 87.948142 95.952716 
L 89.033943 97.152595 
L 90.119745 93.925333 
L 91.205546 95.704465 
L 92.291347 92.353077 
L 93.377148 91.360073 
L 94.462949 92.890954 
L 95.54875 132.569734 
L 96.634552 108.075638 
L 97.720353 103.648496 
L 98.806154 112.378655 
L 99.891955 103.731246 
L 100.977756 102.862368 
L 102.063557 96.697469 
L 103.149358 101.000485 
L 104.23516 101.455612 
L 105.320961 94.670086 
L 106.406762 93.594331 
L 107.492563 105.717254 
L 108.578364 95.166588 
L 109.664165 94.421835 
L 110.749967 99.428229 
L 112.921569 92.06345 
L 114.00737 93.801207 
L 115.093171 93.511581 
L 116.178972 90.201568 
L 117.264773 92.435827 
L 118.350575 90.160193 
L 119.436376 91.484198 
L 120.522177 89.746441 
L 121.607978 86.188178 
L 122.693779 88.629312 
L 123.77958 86.726055 
L 124.865382 88.381061 
L 125.951183 85.774426 
L 127.036984 84.036669 
L 128.122785 87.222557 
L 129.208586 85.691676 
L 130.294387 85.774426 
L 131.380189 85.608925 
L 132.46599 84.20217 
L 134.637592 85.236549 
L 135.723393 84.036669 
L 136.809194 83.995294 
L 137.894995 83.747043 
L 138.980797 107.620511 
L 140.066598 102.986493 
L 141.152399 94.876961 
L 142.2382 104.186373 
L 143.324001 97.524972 
L 144.409802 99.59373 
L 145.495604 94.132209 
L 146.581405 92.311701 
L 147.667206 95.207963 
L 148.753007 94.752836 
L 149.838808 91.484198 
L 150.924609 93.139205 
L 152.01041 93.304705 
L 153.096212 96.366467 
L 154.182013 94.132209 
L 155.267814 97.814598 
L 156.353615 91.235947 
L 157.439416 86.643304 
L 158.525217 92.601328 
L 159.611019 92.725453 
L 160.69682 90.78082 
L 161.782621 98.145599 
L 162.868422 91.8152 
L 163.954223 94.38046 
L 165.040024 100.79361 
L 166.125825 87.884559 
L 167.211627 93.511581 
L 168.297428 91.442823 
L 169.383229 88.505187 
L 170.46903 91.939325 
L 171.554831 87.181181 
L 172.640632 89.33269 
L 173.726434 94.670086 
L 174.812235 90.491194 
L 175.898036 89.291315 
L 176.983837 89.663691 
L 178.069638 86.726055 
L 179.155439 89.249939 
L 180.24124 88.546562 
L 181.327042 85.6503 
L 184.584445 86.064052 
L 185.670246 84.28492 
L 186.756047 84.946923 
L 187.841849 86.022677 
L 188.92765 87.967309 
L 191.099252 85.112423 
L 192.185053 83.291916 
L 193.270854 84.20217 
L 194.356656 85.402049 
L 195.442457 82.91954 
L 196.528258 84.450421 
L 197.614059 83.498792 
L 198.69986 83.043665 
L 199.785661 79.775027 
L 200.871462 82.754039 
L 201.957264 83.457417 
L 203.043065 81.63691 
L 204.128866 82.092037 
L 205.214667 82.423038 
L 206.300468 83.167791 
L 207.386269 82.009286 
L 208.472071 82.960915 
L 209.557872 82.298912 
L 210.643673 81.80241 
L 211.729474 80.106029 
L 212.815275 81.181783 
L 213.901076 81.554159 
L 214.986877 80.850782 
L 216.072679 81.140408 
L 217.15848 81.80241 
L 218.244281 81.305908 
L 219.330082 81.016282 
L 220.415883 81.057657 
L 221.501684 81.678285 
L 222.587486 81.512784 
L 223.673287 81.843786 
L 224.759088 80.809406 
L 225.844889 103.482995 
L 226.93069 105.220752 
L 228.016491 100.048857 
L 229.102292 99.883356 
L 231.273895 90.656695 
L 232.359696 105.510378 
L 233.445497 101.207361 
L 234.531298 93.511581 
L 235.617099 93.015079 
L 236.702901 92.973704 
L 237.788702 91.360073 
L 238.874503 100.669484 
L 239.960304 93.470206 
L 241.046105 96.697469 
L 242.131906 94.835586 
L 243.217708 91.566949 
L 244.303509 91.153197 
L 245.38931 91.773824 
L 246.475111 90.118818 
L 247.560912 95.207963 
L 248.646713 90.656695 
L 250.818316 98.683476 
L 251.904117 91.194572 
L 252.989918 89.374065 
L 254.075719 95.207963 
L 255.16152 88.256936 
L 256.247321 93.18058 
L 257.333123 95.290713 
L 258.418924 88.174185 
L 259.504725 90.69807 
L 260.590526 88.670687 
L 261.676327 89.580941 
L 262.762128 93.552956 
L 263.847929 94.090833 
L 264.933731 89.001689 
L 266.019532 86.601929 
L 267.105333 86.105427 
L 268.191134 87.015681 
L 269.276935 88.422436 
L 270.362736 84.28492 
L 271.448538 88.753438 
L 272.534339 86.312303 
L 273.62014 91.939325 
L 274.705941 88.712062 
L 275.791742 93.34608 
L 276.877543 87.594933 
L 277.963344 85.6503 
L 279.049146 91.525573 
L 280.134947 89.705066 
L 281.220748 86.808805 
L 282.306549 88.587937 
L 283.39235 86.312303 
L 284.478151 86.395053 
L 285.563953 87.015681 
L 286.649754 87.801809 
L 287.735555 87.388057 
L 288.821356 86.270928 
L 289.907157 88.008685 
L 290.992958 90.160193 
L 292.07876 88.794813 
L 293.164561 90.987696 
L 294.250362 88.877563 
L 295.336163 87.594933 
L 296.421964 89.084439 
L 297.507765 88.918938 
L 299.679368 86.270928 
L 300.765169 88.670687 
L 301.85097 86.684679 
L 302.936771 84.326295 
L 304.022572 85.608925 
L 305.108373 86.395053 
L 306.194175 85.815801 
L 307.279976 85.691676 
L 308.365777 83.291916 
L 309.451578 84.20217 
L 310.537379 88.13281 
L 311.62318 89.539566 
L 312.708981 85.402049 
L 313.794783 85.112423 
L 314.880584 87.263932 
L 315.966385 83.995294 
L 317.052186 84.119419 
L 319.223788 85.56755 
L 320.30959 84.160795 
L 321.395391 83.705668 
L 322.481192 80.933532 
L 323.566993 80.850782 
L 324.652794 82.795414 
L 325.738595 81.80241 
L 326.824396 82.133412 
L 327.910198 81.843786 
L 328.995999 80.35428 
L 330.0818 80.809406 
L 331.167601 81.63691 
L 333.339203 80.643906 
L 334.425005 81.388659 
L 335.510806 81.595535 
L 336.596607 79.692277 
L 337.682408 81.80241 
L 338.768209 80.892157 
L 339.85401 80.188779 
L 340.939811 79.775027 
L 342.025613 78.740648 
L 343.111414 79.444026 
L 344.197215 78.078646 
L 345.283016 80.395655 
L 346.368817 77.706269 
L 347.454618 78.037271 
L 348.54042 77.623519 
L 349.626221 78.782024 
L 350.712022 78.657898 
L 351.797823 77.168392 
L 352.883624 77.085642 
L 353.969425 79.444026 
L 355.055227 78.533773 
L 356.141028 77.168392 
L 357.226829 78.078646 
L 358.31263 78.451022 
L 359.398431 77.333893 
L 360.484232 76.50639 
L 361.570033 77.87177 
L 362.655835 78.368272 
L 363.741636 77.623519 
L 364.827437 77.913145 
L 365.913238 76.754641 
L 366.999039 77.458018 
L 368.08484 77.747645 
L 369.170642 78.988899 
L 370.256443 78.078646 
L 371.342244 78.657898 
L 372.428045 78.409647 
L 373.513846 82.340287 
L 374.599647 80.271529 
L 375.685448 81.80241 
L 376.77125 79.775027 
L 377.857051 80.35428 
L 378.942852 80.023278 
L 380.028653 81.388659 
L 381.114454 82.174787 
L 382.200255 80.726656 
L 383.286057 80.35428 
L 384.371858 82.629914 
L 385.457659 80.933532 
L 386.54346 81.71966 
L 387.629261 81.926536 
L 388.715062 81.512784 
L 389.800863 80.064654 
L 390.886665 83.705668 
L 391.972466 83.167791 
L 393.058267 80.850782 
L 394.144068 82.878165 
L 396.31567 81.63691 
L 397.401472 82.381663 
L 398.487273 82.009286 
L 398.487273 82.009286 
" clip-path="url(#p239d3b5135)" style="fill: none; stroke: #ff7f0e; stroke-width: 1.5; stroke-linecap: square"/>
   </g>
   <g id="line2d_20">
    <path d="M 73.832727 295.488 
L 74.918528 259.990965 
L 76.00433 246.265825 
L 77.090131 234.224226 
L 78.175932 219.414772 
L 79.261733 228.602911 
L 80.347534 200.838751 
L 81.433335 221.383659 
L 82.519137 214.192941 
L 83.604938 224.351256 
L 84.690739 206.745412 
L 85.77654 218.416061 
L 86.862341 200.15392 
L 87.948142 193.334152 
L 89.033943 199.754436 
L 90.119745 198.755725 
L 91.205546 198.09943 
L 92.291347 198.869864 
L 93.377148 194.247259 
L 94.462949 195.645455 
L 95.54875 227.347389 
L 96.634552 210.454909 
L 97.720353 209.056714 
L 98.806154 216.247432 
L 99.891955 202.465223 
L 100.977756 204.148764 
L 102.063557 184.973516 
L 103.149358 198.955467 
L 104.23516 223.181338 
L 105.320961 196.330285 
L 106.406762 188.654479 
L 107.492563 223.409615 
L 108.578364 208.172141 
L 109.664165 201.067027 
L 110.749967 220.727363 
L 111.835768 207.715588 
L 112.921569 191.821819 
L 114.00737 205.575493 
L 115.093171 206.602739 
L 116.178972 197.414599 
L 117.264773 203.720745 
L 118.350575 204.491179 
L 119.436376 206.003512 
L 120.522177 201.723323 
L 121.607978 190.737504 
L 122.693779 197.842618 
L 123.77958 192.221303 
L 124.865382 196.587096 
L 125.951183 191.051385 
L 127.036984 193.220014 
L 128.122785 198.841329 
L 129.208586 190.33802 
L 130.294387 193.562429 
L 131.380189 193.847775 
L 132.46599 190.452158 
L 133.551791 194.332863 
L 134.637592 196.900977 
L 135.723393 192.306907 
L 136.809194 191.536473 
L 137.894995 192.249838 
L 138.980797 215.67674 
L 140.066598 223.780565 
L 141.152399 192.07863 
L 142.2382 216.447174 
L 143.324001 196.98658 
L 144.409802 198.356241 
L 145.495604 208.000934 
L 146.581405 199.297883 
L 147.667206 204.919198 
L 148.753007 201.865996 
L 149.838808 186.48585 
L 150.924609 195.98787 
L 152.01041 208.428953 
L 153.096212 204.662386 
L 154.182013 212.395261 
L 155.267814 212.13845 
L 156.353615 200.382197 
L 157.439416 196.387354 
L 158.525217 201.181166 
L 159.611019 205.261613 
L 160.69682 202.864707 
L 161.782621 220.242275 
L 162.868422 202.522292 
L 163.954223 203.806349 
L 165.040024 210.854393 
L 166.125825 191.850353 
L 167.211627 207.886795 
L 168.297428 204.034625 
L 169.383229 195.673989 
L 170.46903 206.574204 
L 171.554831 184.231617 
L 173.726434 196.130543 
L 175.898036 198.498914 
L 176.983837 195.902266 
L 178.069638 189.481982 
L 179.155439 187.199215 
L 180.24124 190.309485 
L 181.327042 191.308196 
L 182.412843 197.214857 
L 183.498644 189.995605 
L 184.584445 197.100719 
L 185.670246 179.837289 
L 186.756047 187.741372 
L 187.841849 188.825686 
L 188.92765 193.533895 
L 190.013451 187.398957 
L 191.099252 191.736215 
L 192.185053 198.898398 
L 193.270854 193.533895 
L 194.356656 194.047517 
L 195.442457 189.253705 
L 196.528258 197.015115 
L 197.614059 191.536473 
L 198.69986 186.79973 
L 199.785661 185.772485 
L 200.871462 190.851643 
L 201.957264 186.685592 
L 203.043065 184.146013 
L 204.128866 186.999472 
L 205.214667 186.229038 
L 206.300468 188.197925 
L 207.386269 189.424913 
L 208.472071 191.565008 
L 209.557872 187.427491 
L 210.643673 185.858089 
L 211.729474 183.917736 
L 212.815275 183.147302 
L 213.901076 187.912579 
L 214.986877 184.260151 
L 216.072679 186.286108 
L 217.15848 185.886623 
L 218.244281 186.257573 
L 219.330082 185.144724 
L 220.415883 185.144724 
L 221.501684 187.113611 
L 222.587486 186.856799 
L 223.673287 187.398957 
L 224.759088 184.973516 
L 225.844889 220.812967 
L 226.93069 205.43282 
L 228.016491 205.689632 
L 229.102292 194.247259 
L 230.188094 200.496336 
L 231.273895 193.362687 
L 232.359696 217.560023 
L 233.445497 212.395261 
L 235.617099 199.668832 
L 236.702901 206.831015 
L 237.788702 196.872442 
L 238.874503 206.85955 
L 239.960304 204.006091 
L 241.046105 200.753147 
L 242.131906 199.440556 
L 243.217708 189.424913 
L 244.303509 195.98787 
L 245.38931 201.780392 
L 246.475111 192.877599 
L 247.560912 203.521003 
L 248.646713 202.151342 
L 249.732514 209.627406 
L 250.818316 221.526332 
L 251.904117 203.32126 
L 252.989918 200.21099 
L 254.075719 205.43282 
L 255.16152 194.589675 
L 256.247321 212.081381 
L 257.333123 211.796035 
L 258.418924 204.491179 
L 259.504725 184.516963 
L 260.590526 198.926933 
L 261.676327 196.016404 
L 262.762128 193.81924 
L 263.847929 206.659808 
L 264.933731 193.562429 
L 266.019532 192.877599 
L 267.105333 187.826976 
L 268.191134 178.867113 
L 269.276935 196.159077 
L 270.362736 186.999472 
L 271.448538 190.823108 
L 272.534339 191.964492 
L 273.62014 205.290147 
L 274.705941 201.9516 
L 275.791742 200.696078 
L 276.877543 189.738794 
L 277.963344 186.970938 
L 279.049146 200.553405 
L 280.134947 193.220014 
L 281.220748 193.248549 
L 282.306549 188.654479 
L 283.39235 189.938536 
L 284.478151 192.164234 
L 285.563953 185.258862 
L 286.649754 194.332863 
L 287.735555 189.681724 
L 288.821356 192.07863 
L 289.907157 196.929511 
L 290.992958 191.935957 
L 292.07876 191.422335 
L 293.164561 208.200676 
L 294.250362 205.889374 
L 295.336163 188.711548 
L 296.421964 191.136989 
L 297.507765 189.453448 
L 298.593566 194.960624 
L 299.679368 192.306907 
L 300.765169 188.254995 
L 301.85097 182.804887 
L 302.936771 187.684303 
L 304.022572 182.861956 
L 305.108373 193.562429 
L 306.194175 193.590964 
L 307.279976 187.056542 
L 308.365777 184.916447 
L 309.451578 189.025429 
L 310.537379 202.779103 
L 311.62318 195.531316 
L 313.794783 189.624655 
L 314.880584 191.850353 
L 315.966385 182.890491 
L 317.052186 187.341888 
L 318.137987 195.274505 
L 319.223788 191.02285 
L 320.30959 190.70897 
L 321.395391 183.717994 
L 322.481192 187.056542 
L 323.566993 185.116189 
L 324.652794 191.02285 
L 325.738595 182.005918 
L 326.824396 188.283529 
L 327.910198 188.283529 
L 328.995999 178.867113 
L 330.0818 178.35349 
L 331.167601 188.312064 
L 332.253402 183.004629 
L 333.339203 181.948849 
L 334.425005 176.327534 
L 335.510806 179.266597 
L 336.596607 177.525987 
L 337.682408 191.079919 
L 338.768209 188.026718 
L 339.85401 179.694616 
L 340.939811 181.492296 
L 342.025613 179.295132 
L 343.111414 181.264019 
L 344.197215 175.072012 
L 345.283016 183.147302 
L 346.368817 177.29771 
L 347.454618 178.952717 
L 348.54042 175.100547 
L 349.626221 182.433937 
L 350.712022 180.607723 
L 351.797823 180.094101 
L 352.883624 179.723151 
L 353.969425 181.692038 
L 355.055227 182.804887 
L 356.141028 180.122635 
L 357.226829 181.349623 
L 358.31263 183.175837 
L 359.398431 179.380736 
L 360.484232 177.440383 
L 361.570033 179.066855 
L 362.655835 179.922893 
L 363.741636 177.754264 
L 364.827437 179.238063 
L 365.913238 176.498742 
L 366.999039 179.723151 
L 368.08484 181.606434 
L 369.170642 180.293843 
L 370.256443 179.666082 
L 371.342244 178.496163 
L 372.428045 179.666082 
L 373.513846 190.33802 
L 374.599647 180.807465 
L 375.685448 186.171969 
L 376.77125 182.091522 
L 377.857051 186.685592 
L 378.942852 170.306735 
L 380.028653 180.407981 
L 381.114454 184.859378 
L 382.200255 182.776353 
L 383.286057 177.183572 
L 384.371858 181.977384 
L 385.457659 183.974805 
L 386.54346 181.549365 
L 387.629261 184.345755 
L 388.715062 182.919025 
L 389.800863 181.264019 
L 390.886665 190.651901 
L 391.972466 190.252416 
L 393.058267 182.747818 
L 394.144068 190.737504 
L 395.229869 180.607723 
L 397.401472 183.033164 
L 398.487273 183.63239 
L 398.487273 183.63239 
" clip-path="url(#p239d3b5135)" style="fill: none; stroke: #2ca02c; stroke-width: 1.5; stroke-linecap: square"/>
   </g>
   <g id="line2d_21">
    <path d="M 368.08484 77.416643 
L 369.170642 76.878766 
L 371.342244 77.540769 
L 372.428045 77.251143 
L 373.513846 76.50639 
L 374.599647 76.67189 
L 375.685448 77.292518 
L 376.77125 78.285522 
L 377.857051 76.796016 
L 378.942852 77.95452 
L 380.028653 77.333893 
L 381.114454 79.733652 
L 382.200255 83.747043 
L 384.371858 78.161396 
L 385.457659 79.526776 
L 386.54346 79.899153 
L 387.629261 77.085642 
L 388.715062 81.63691 
L 389.800863 78.947524 
L 390.886665 80.974907 
L 391.972466 80.478405 
L 393.058267 78.409647 
L 394.144068 78.492397 
L 395.229869 81.181783 
L 396.31567 80.561156 
L 397.401472 83.788418 
L 398.487273 82.547163 
L 398.487273 82.547163 
" clip-path="url(#p239d3b5135)" style="fill: none; stroke: #d62728; stroke-width: 1.5; stroke-linecap: square"/>
   </g>
   <g id="line2d_22">
    <path d="M 368.08484 179.751686 
L 369.170642 177.697195 
L 370.256443 179.09539 
L 371.342244 179.979962 
L 372.428045 180.265308 
L 373.513846 173.502609 
L 374.599647 174.615459 
L 375.685448 179.038321 
L 376.77125 179.09539 
L 377.857051 176.184861 
L 378.942852 176.299 
L 380.028653 178.011075 
L 382.200255 189.053963 
L 383.286057 186.229038 
L 384.371858 181.549365 
L 385.457659 184.117478 
L 386.54346 179.494874 
L 387.629261 171.647861 
L 388.715062 178.895648 
L 389.800863 180.778931 
L 390.886665 178.382025 
L 391.972466 181.720573 
L 393.058267 176.812622 
L 394.144068 175.385893 
L 395.229869 176.98383 
L 396.31567 185.315931 
L 397.401472 185.915158 
L 398.487273 186.343177 
L 398.487273 186.343177 
" clip-path="url(#p239d3b5135)" style="fill: none; stroke: #9467bd; stroke-width: 1.5; stroke-linecap: square"/>
   </g>
   <g id="patch_3">
    <path d="M 57.6 307.584 
L 57.6 41.472 
" style="fill: none; stroke: #000000; stroke-width: 0.8; stroke-linejoin: miter; stroke-linecap: square"/>
   </g>
   <g id="patch_4">
    <path d="M 414.72 307.584 
L 414.72 41.472 
" style="fill: none; stroke: #000000; stroke-width: 0.8; stroke-linejoin: miter; stroke-linecap: square"/>
   </g>
   <g id="patch_5">
    <path d="M 57.6 307.584 
L 414.72 307.584 
" style="fill: none; stroke: #000000; stroke-width: 0.8; stroke-linejoin: miter; stroke-linecap: square"/>
   </g>
   <g id="patch_6">
    <path d="M 57.6 41.472 
L 414.72 41.472 
" style="fill: none; stroke: #000000; stroke-width: 0.8; stroke-linejoin: miter; stroke-linecap: square"/>
   </g>
   <g id="text_20">
    <!-- Learning Curves -->
    <g transform="translate(187.37625 35.472) scale(0.12 -0.12)">
     <defs>
      <path id="DejaVuSans-4c" d="M 628 4666 
L 1259 4666 
L 1259 531 
L 3531 531 
L 3531 0 
L 628 0 
L 628 4666 
z
" transform="scale(0.015625)"/>
      <path id="DejaVuSans-65" d="M 3597 1894 
L 3597 1613 
L 953 1613 
Q 991 1019 1311 708 
Q 1631 397 2203 397 
Q 2534 397 2845 478 
Q 3156 559 3463 722 
L 3463 178 
Q 3153 47 2828 -22 
Q 2503 -91 2169 -91 
Q 1331 -91 842 396 
Q 353 884 353 1716 
Q 353 2575 817 3079 
Q 1281 3584 2069 3584 
Q 2775 3584 3186 3129 
Q 3597 2675 3597 1894 
z
M 3022 2063 
Q 3016 2534 2758 2815 
Q 2500 3097 2075 3097 
Q 1594 3097 1305 2825 
Q 1016 2553 972 2059 
L 3022 2063 
z
" transform="scale(0.015625)"/>
      <path id="DejaVuSans-6e" d="M 3513 2113 
L 3513 0 
L 2938 0 
L 2938 2094 
Q 2938 2591 2744 2837 
Q 2550 3084 2163 3084 
Q 1697 3084 1428 2787 
Q 1159 2491 1159 1978 
L 1159 0 
L 581 0 
L 581 3500 
L 1159 3500 
L 1159 2956 
Q 1366 3272 1645 3428 
Q 1925 3584 2291 3584 
Q 2894 3584 3203 3211 
Q 3513 2838 3513 2113 
z
" transform="scale(0.015625)"/>
      <path id="DejaVuSans-69" d="M 603 3500 
L 1178 3500 
L 1178 0 
L 603 0 
L 603 3500 
z
M 603 4863 
L 1178 4863 
L 1178 4134 
L 603 4134 
L 603 4863 
z
" transform="scale(0.015625)"/>
      <path id="DejaVuSans-67" d="M 2906 1791 
Q 2906 2416 2648 2759 
Q 2391 3103 1925 3103 
Q 1463 3103 1205 2759 
Q 947 2416 947 1791 
Q 947 1169 1205 825 
Q 1463 481 1925 481 
Q 2391 481 2648 825 
Q 2906 1169 2906 1791 
z
M 3481 434 
Q 3481 -459 3084 -895 
Q 2688 -1331 1869 -1331 
Q 1566 -1331 1297 -1286 
Q 1028 -1241 775 -1147 
L 775 -588 
Q 1028 -725 1275 -790 
Q 1522 -856 1778 -856 
Q 2344 -856 2625 -561 
Q 2906 -266 2906 331 
L 2906 616 
Q 2728 306 2450 153 
Q 2172 0 1784 0 
Q 1141 0 747 490 
Q 353 981 353 1791 
Q 353 2603 747 3093 
Q 1141 3584 1784 3584 
Q 2172 3584 2450 3431 
Q 2728 3278 2906 2969 
L 2906 3500 
L 3481 3500 
L 3481 434 
z
" transform="scale(0.015625)"/>
      <path id="DejaVuSans-20" transform="scale(0.015625)"/>
      <path id="DejaVuSans-43" d="M 4122 4306 
L 4122 3641 
Q 3803 3938 3442 4084 
Q 3081 4231 2675 4231 
Q 1875 4231 1450 3742 
Q 1025 3253 1025 2328 
Q 1025 1406 1450 917 
Q 1875 428 2675 428 
Q 3081 428 3442 575 
Q 3803 722 4122 1019 
L 4122 359 
Q 3791 134 3420 21 
Q 3050 -91 2638 -91 
Q 1578 -91 968 557 
Q 359 1206 359 2328 
Q 359 3453 968 4101 
Q 1578 4750 2638 4750 
Q 3056 4750 3426 4639 
Q 3797 4528 4122 4306 
z
" transform="scale(0.015625)"/>
      <path id="DejaVuSans-76" d="M 191 3500 
L 800 3500 
L 1894 563 
L 2988 3500 
L 3597 3500 
L 2284 0 
L 1503 0 
L 191 3500 
z
" transform="scale(0.015625)"/>
     </defs>
     <use xlink:href="#DejaVuSans-4c"/>
     <use xlink:href="#DejaVuSans-65" x="53.962891"/>
     <use xlink:href="#DejaVuSans-61" x="115.486328"/>
     <use xlink:href="#DejaVuSans-72" x="176.765625"/>
     <use xlink:href="#DejaVuSans-6e" x="216.128906"/>
     <use xlink:href="#DejaVuSans-69" x="279.507812"/>
     <use xlink:href="#DejaVuSans-6e" x="307.291016"/>
     <use xlink:href="#DejaVuSans-67" x="370.669922"/>
     <use xlink:href="#DejaVuSans-20" x="434.146484"/>
     <use xlink:href="#DejaVuSans-43" x="465.933594"/>
     <use xlink:href="#DejaVuSans-75" x="535.757812"/>
     <use xlink:href="#DejaVuSans-72" x="599.136719"/>
     <use xlink:href="#DejaVuSans-76" x="640.25"/>
     <use xlink:href="#DejaVuSans-65" x="699.429688"/>
     <use xlink:href="#DejaVuSans-73" x="760.953125"/>
    </g>
   </g>
   <g id="legend_1">
    <g id="patch_7">
     <path d="M 214.18875 302.584 
L 407.72 302.584 
Q 409.72 302.584 409.72 300.584 
L 409.72 228.193375 
Q 409.72 226.193375 407.72 226.193375 
L 214.18875 226.193375 
Q 212.18875 226.193375 212.18875 228.193375 
L 212.18875 300.584 
Q 212.18875 302.584 214.18875 302.584 
z
" style="fill: #ffffff; opacity: 0.8; stroke: #cccccc; stroke-linejoin: miter"/>
    </g>
    <g id="line2d_23">
     <path d="M 216.18875 234.291812 
L 226.18875 234.291812 
L 236.18875 234.291812 
" style="fill: none; stroke: #1f77b4; stroke-width: 1.5; stroke-linecap: square"/>
    </g>
    <g id="text_21">
     <!-- Train Accuracy -->
     <g transform="translate(244.18875 237.791812) scale(0.1 -0.1)">
      <defs>
       <path id="DejaVuSans-54" d="M -19 4666 
L 3928 4666 
L 3928 4134 
L 2272 4134 
L 2272 0 
L 1638 0 
L 1638 4134 
L -19 4134 
L -19 4666 
z
" transform="scale(0.015625)"/>
      </defs>
      <use xlink:href="#DejaVuSans-54"/>
      <use xlink:href="#DejaVuSans-72" x="46.333984"/>
      <use xlink:href="#DejaVuSans-61" x="87.447266"/>
      <use xlink:href="#DejaVuSans-69" x="148.726562"/>
      <use xlink:href="#DejaVuSans-6e" x="176.509766"/>
      <use xlink:href="#DejaVuSans-20" x="239.888672"/>
      <use xlink:href="#DejaVuSans-41" x="271.675781"/>
      <use xlink:href="#DejaVuSans-63" x="338.333984"/>
      <use xlink:href="#DejaVuSans-63" x="393.314453"/>
      <use xlink:href="#DejaVuSans-75" x="448.294922"/>
      <use xlink:href="#DejaVuSans-72" x="511.673828"/>
      <use xlink:href="#DejaVuSans-61" x="552.787109"/>
      <use xlink:href="#DejaVuSans-63" x="614.066406"/>
      <use xlink:href="#DejaVuSans-79" x="669.046875"/>
     </g>
    </g>
    <g id="line2d_24">
     <path d="M 216.18875 248.969937 
L 226.18875 248.969937 
L 236.18875 248.969937 
" style="fill: none; stroke: #ff7f0e; stroke-width: 1.5; stroke-linecap: square"/>
    </g>
    <g id="text_22">
     <!-- Validation Accuracy -->
     <g transform="translate(244.18875 252.469937) scale(0.1 -0.1)">
      <defs>
       <path id="DejaVuSans-56" d="M 1831 0 
L 50 4666 
L 709 4666 
L 2188 738 
L 3669 4666 
L 4325 4666 
L 2547 0 
L 1831 0 
z
" transform="scale(0.015625)"/>
       <path id="DejaVuSans-6c" d="M 603 4863 
L 1178 4863 
L 1178 0 
L 603 0 
L 603 4863 
z
" transform="scale(0.015625)"/>
       <path id="DejaVuSans-64" d="M 2906 2969 
L 2906 4863 
L 3481 4863 
L 3481 0 
L 2906 0 
L 2906 525 
Q 2725 213 2448 61 
Q 2172 -91 1784 -91 
Q 1150 -91 751 415 
Q 353 922 353 1747 
Q 353 2572 751 3078 
Q 1150 3584 1784 3584 
Q 2172 3584 2448 3432 
Q 2725 3281 2906 2969 
z
M 947 1747 
Q 947 1113 1208 752 
Q 1469 391 1925 391 
Q 2381 391 2643 752 
Q 2906 1113 2906 1747 
Q 2906 2381 2643 2742 
Q 2381 3103 1925 3103 
Q 1469 3103 1208 2742 
Q 947 2381 947 1747 
z
" transform="scale(0.015625)"/>
       <path id="DejaVuSans-74" d="M 1172 4494 
L 1172 3500 
L 2356 3500 
L 2356 3053 
L 1172 3053 
L 1172 1153 
Q 1172 725 1289 603 
Q 1406 481 1766 481 
L 2356 481 
L 2356 0 
L 1766 0 
Q 1100 0 847 248 
Q 594 497 594 1153 
L 594 3053 
L 172 3053 
L 172 3500 
L 594 3500 
L 594 4494 
L 1172 4494 
z
" transform="scale(0.015625)"/>
      </defs>
      <use xlink:href="#DejaVuSans-56"/>
      <use xlink:href="#DejaVuSans-61" x="60.658203"/>
      <use xlink:href="#DejaVuSans-6c" x="121.9375"/>
      <use xlink:href="#DejaVuSans-69" x="149.720703"/>
      <use xlink:href="#DejaVuSans-64" x="177.503906"/>
      <use xlink:href="#DejaVuSans-61" x="240.980469"/>
      <use xlink:href="#DejaVuSans-74" x="302.259766"/>
      <use xlink:href="#DejaVuSans-69" x="341.46875"/>
      <use xlink:href="#DejaVuSans-6f" x="369.251953"/>
      <use xlink:href="#DejaVuSans-6e" x="430.433594"/>
      <use xlink:href="#DejaVuSans-20" x="493.8125"/>
      <use xlink:href="#DejaVuSans-41" x="525.599609"/>
      <use xlink:href="#DejaVuSans-63" x="592.257812"/>
      <use xlink:href="#DejaVuSans-63" x="647.238281"/>
      <use xlink:href="#DejaVuSans-75" x="702.21875"/>
      <use xlink:href="#DejaVuSans-72" x="765.597656"/>
      <use xlink:href="#DejaVuSans-61" x="806.710938"/>
      <use xlink:href="#DejaVuSans-63" x="867.990234"/>
      <use xlink:href="#DejaVuSans-79" x="922.970703"/>
     </g>
    </g>
    <g id="line2d_25">
     <path d="M 216.18875 263.648062 
L 226.18875 263.648062 
L 236.18875 263.648062 
" style="fill: none; stroke: #2ca02c; stroke-width: 1.5; stroke-linecap: square"/>
    </g>
    <g id="text_23">
     <!-- Robust Validation Accuracy -->
     <g transform="translate(244.18875 267.148062) scale(0.1 -0.1)">
      <defs>
       <path id="DejaVuSans-52" d="M 2841 2188 
Q 3044 2119 3236 1894 
Q 3428 1669 3622 1275 
L 4263 0 
L 3584 0 
L 2988 1197 
Q 2756 1666 2539 1819 
Q 2322 1972 1947 1972 
L 1259 1972 
L 1259 0 
L 628 0 
L 628 4666 
L 2053 4666 
Q 2853 4666 3247 4331 
Q 3641 3997 3641 3322 
Q 3641 2881 3436 2590 
Q 3231 2300 2841 2188 
z
M 1259 4147 
L 1259 2491 
L 2053 2491 
Q 2509 2491 2742 2702 
Q 2975 2913 2975 3322 
Q 2975 3731 2742 3939 
Q 2509 4147 2053 4147 
L 1259 4147 
z
" transform="scale(0.015625)"/>
       <path id="DejaVuSans-62" d="M 3116 1747 
Q 3116 2381 2855 2742 
Q 2594 3103 2138 3103 
Q 1681 3103 1420 2742 
Q 1159 2381 1159 1747 
Q 1159 1113 1420 752 
Q 1681 391 2138 391 
Q 2594 391 2855 752 
Q 3116 1113 3116 1747 
z
M 1159 2969 
Q 1341 3281 1617 3432 
Q 1894 3584 2278 3584 
Q 2916 3584 3314 3078 
Q 3713 2572 3713 1747 
Q 3713 922 3314 415 
Q 2916 -91 2278 -91 
Q 1894 -91 1617 61 
Q 1341 213 1159 525 
L 1159 0 
L 581 0 
L 581 4863 
L 1159 4863 
L 1159 2969 
z
" transform="scale(0.015625)"/>
      </defs>
      <use xlink:href="#DejaVuSans-52"/>
      <use xlink:href="#DejaVuSans-6f" x="64.982422"/>
      <use xlink:href="#DejaVuSans-62" x="126.164062"/>
      <use xlink:href="#DejaVuSans-75" x="189.640625"/>
      <use xlink:href="#DejaVuSans-73" x="253.019531"/>
      <use xlink:href="#DejaVuSans-74" x="305.119141"/>
      <use xlink:href="#DejaVuSans-20" x="344.328125"/>
      <use xlink:href="#DejaVuSans-56" x="376.115234"/>
      <use xlink:href="#DejaVuSans-61" x="436.773438"/>
      <use xlink:href="#DejaVuSans-6c" x="498.052734"/>
      <use xlink:href="#DejaVuSans-69" x="525.835938"/>
      <use xlink:href="#DejaVuSans-64" x="553.619141"/>
      <use xlink:href="#DejaVuSans-61" x="617.095703"/>
      <use xlink:href="#DejaVuSans-74" x="678.375"/>
      <use xlink:href="#DejaVuSans-69" x="717.583984"/>
      <use xlink:href="#DejaVuSans-6f" x="745.367188"/>
      <use xlink:href="#DejaVuSans-6e" x="806.548828"/>
      <use xlink:href="#DejaVuSans-20" x="869.927734"/>
      <use xlink:href="#DejaVuSans-41" x="901.714844"/>
      <use xlink:href="#DejaVuSans-63" x="968.373047"/>
      <use xlink:href="#DejaVuSans-63" x="1023.353516"/>
      <use xlink:href="#DejaVuSans-75" x="1078.333984"/>
      <use xlink:href="#DejaVuSans-72" x="1141.712891"/>
      <use xlink:href="#DejaVuSans-61" x="1182.826172"/>
      <use xlink:href="#DejaVuSans-63" x="1244.105469"/>
      <use xlink:href="#DejaVuSans-79" x="1299.085938"/>
     </g>
    </g>
    <g id="line2d_26">
     <path d="M 216.18875 278.326188 
L 226.18875 278.326188 
L 236.18875 278.326188 
" style="fill: none; stroke: #d62728; stroke-width: 1.5; stroke-linecap: square"/>
    </g>
    <g id="text_24">
     <!-- SWA Validation Accuracy -->
     <g transform="translate(244.18875 281.826188) scale(0.1 -0.1)">
      <defs>
       <path id="DejaVuSans-53" d="M 3425 4513 
L 3425 3897 
Q 3066 4069 2747 4153 
Q 2428 4238 2131 4238 
Q 1616 4238 1336 4038 
Q 1056 3838 1056 3469 
Q 1056 3159 1242 3001 
Q 1428 2844 1947 2747 
L 2328 2669 
Q 3034 2534 3370 2195 
Q 3706 1856 3706 1288 
Q 3706 609 3251 259 
Q 2797 -91 1919 -91 
Q 1588 -91 1214 -16 
Q 841 59 441 206 
L 441 856 
Q 825 641 1194 531 
Q 1563 422 1919 422 
Q 2459 422 2753 634 
Q 3047 847 3047 1241 
Q 3047 1584 2836 1778 
Q 2625 1972 2144 2069 
L 1759 2144 
Q 1053 2284 737 2584 
Q 422 2884 422 3419 
Q 422 4038 858 4394 
Q 1294 4750 2059 4750 
Q 2388 4750 2728 4690 
Q 3069 4631 3425 4513 
z
" transform="scale(0.015625)"/>
       <path id="DejaVuSans-57" d="M 213 4666 
L 850 4666 
L 1831 722 
L 2809 4666 
L 3519 4666 
L 4500 722 
L 5478 4666 
L 6119 4666 
L 4947 0 
L 4153 0 
L 3169 4050 
L 2175 0 
L 1381 0 
L 213 4666 
z
" transform="scale(0.015625)"/>
      </defs>
      <use xlink:href="#DejaVuSans-53"/>
      <use xlink:href="#DejaVuSans-57" x="63.476562"/>
      <use xlink:href="#DejaVuSans-41" x="156.853516"/>
      <use xlink:href="#DejaVuSans-20" x="225.261719"/>
      <use xlink:href="#DejaVuSans-56" x="257.048828"/>
      <use xlink:href="#DejaVuSans-61" x="317.707031"/>
      <use xlink:href="#DejaVuSans-6c" x="378.986328"/>
      <use xlink:href="#DejaVuSans-69" x="406.769531"/>
      <use xlink:href="#DejaVuSans-64" x="434.552734"/>
      <use xlink:href="#DejaVuSans-61" x="498.029297"/>
      <use xlink:href="#DejaVuSans-74" x="559.308594"/>
      <use xlink:href="#DejaVuSans-69" x="598.517578"/>
      <use xlink:href="#DejaVuSans-6f" x="626.300781"/>
      <use xlink:href="#DejaVuSans-6e" x="687.482422"/>
      <use xlink:href="#DejaVuSans-20" x="750.861328"/>
      <use xlink:href="#DejaVuSans-41" x="782.648438"/>
      <use xlink:href="#DejaVuSans-63" x="849.306641"/>
      <use xlink:href="#DejaVuSans-63" x="904.287109"/>
      <use xlink:href="#DejaVuSans-75" x="959.267578"/>
      <use xlink:href="#DejaVuSans-72" x="1022.646484"/>
      <use xlink:href="#DejaVuSans-61" x="1063.759766"/>
      <use xlink:href="#DejaVuSans-63" x="1125.039062"/>
      <use xlink:href="#DejaVuSans-79" x="1180.019531"/>
     </g>
    </g>
    <g id="line2d_27">
     <path d="M 216.18875 293.004312 
L 226.18875 293.004312 
L 236.18875 293.004312 
" style="fill: none; stroke: #9467bd; stroke-width: 1.5; stroke-linecap: square"/>
    </g>
    <g id="text_25">
     <!-- SWA Robust Validation Accuracy -->
     <g transform="translate(244.18875 296.504312) scale(0.1 -0.1)">
      <use xlink:href="#DejaVuSans-53"/>
      <use xlink:href="#DejaVuSans-57" x="63.476562"/>
      <use xlink:href="#DejaVuSans-41" x="156.853516"/>
      <use xlink:href="#DejaVuSans-20" x="225.261719"/>
      <use xlink:href="#DejaVuSans-52" x="257.048828"/>
      <use xlink:href="#DejaVuSans-6f" x="322.03125"/>
      <use xlink:href="#DejaVuSans-62" x="383.212891"/>
      <use xlink:href="#DejaVuSans-75" x="446.689453"/>
      <use xlink:href="#DejaVuSans-73" x="510.068359"/>
      <use xlink:href="#DejaVuSans-74" x="562.167969"/>
      <use xlink:href="#DejaVuSans-20" x="601.376953"/>
      <use xlink:href="#DejaVuSans-56" x="633.164062"/>
      <use xlink:href="#DejaVuSans-61" x="693.822266"/>
      <use xlink:href="#DejaVuSans-6c" x="755.101562"/>
      <use xlink:href="#DejaVuSans-69" x="782.884766"/>
      <use xlink:href="#DejaVuSans-64" x="810.667969"/>
      <use xlink:href="#DejaVuSans-61" x="874.144531"/>
      <use xlink:href="#DejaVuSans-74" x="935.423828"/>
      <use xlink:href="#DejaVuSans-69" x="974.632812"/>
      <use xlink:href="#DejaVuSans-6f" x="1002.416016"/>
      <use xlink:href="#DejaVuSans-6e" x="1063.597656"/>
      <use xlink:href="#DejaVuSans-20" x="1126.976562"/>
      <use xlink:href="#DejaVuSans-41" x="1158.763672"/>
      <use xlink:href="#DejaVuSans-63" x="1225.421875"/>
      <use xlink:href="#DejaVuSans-63" x="1280.402344"/>
      <use xlink:href="#DejaVuSans-75" x="1335.382812"/>
      <use xlink:href="#DejaVuSans-72" x="1398.761719"/>
      <use xlink:href="#DejaVuSans-61" x="1439.875"/>
      <use xlink:href="#DejaVuSans-63" x="1501.154297"/>
      <use xlink:href="#DejaVuSans-79" x="1556.134766"/>
     </g>
    </g>
   </g>
  </g>
 </g>
 <defs>
  <clipPath id="p239d3b5135">
   <rect x="57.6" y="41.472" width="357.12" height="266.112"/>
  </clipPath>
 </defs>
</svg>
