<?xml version="1.0" encoding="utf-8" standalone="no"?>
<!DOCTYPE svg PUBLIC "-//W3C//DTD SVG 1.1//EN"
  "http://www.w3.org/Graphics/SVG/1.1/DTD/svg11.dtd">
<svg xmlns:xlink="http://www.w3.org/1999/xlink" width="460.8pt" height="345.6pt" viewBox="0 0 460.8 345.6" xmlns="http://www.w3.org/2000/svg" version="1.1">
 <metadata>
  <rdf:RDF xmlns:dc="http://purl.org/dc/elements/1.1/" xmlns:cc="http://creativecommons.org/ns#" xmlns:rdf="http://www.w3.org/1999/02/22-rdf-syntax-ns#">
   <cc:Work>
    <dc:type rdf:resource="http://purl.org/dc/dcmitype/StillImage"/>
    <dc:date>2025-06-26T14:47:27.101147</dc:date>
    <dc:format>image/svg+xml</dc:format>
    <dc:creator>
     <cc:Agent>
      <dc:title>Matplotlib v3.9.1, https://matplotlib.org/</dc:title>
     </cc:Agent>
    </dc:creator>
   </cc:Work>
  </rdf:RDF>
 </metadata>
 <defs>
  <style type="text/css">*{stroke-linejoin: round; stroke-linecap: butt}</style>
 </defs>
 <g id="figure_1">
  <g id="patch_1">
   <path d="M 0 345.6 
L 460.8 345.6 
L 460.8 0 
L 0 0 
z
" style="fill: #ffffff"/>
  </g>
  <g id="axes_1">
   <g id="patch_2">
    <path d="M 57.6 307.584 
L 414.72 307.584 
L 414.72 41.472 
L 57.6 41.472 
z
" style="fill: #ffffff"/>
   </g>
   <g id="matplotlib.axis_1">
    <g id="xtick_1">
     <g id="line2d_1">
      <defs>
       <path id="mb756ab4047" d="M 0 0 
L 0 3.5 
" style="stroke: #000000; stroke-width: 0.8"/>
      </defs>
      <g>
       <use xlink:href="#mb756ab4047" x="73.832727" y="307.584" style="stroke: #000000; stroke-width: 0.8"/>
      </g>
     </g>
     <g id="text_1">
      <!-- 1 -->
      <g transform="translate(70.651477 322.182437) scale(0.1 -0.1)">
       <defs>
        <path id="DejaVuSans-31" d="M 794 531 
L 1825 531 
L 1825 4091 
L 703 3866 
L 703 4441 
L 1819 4666 
L 2450 4666 
L 2450 531 
L 3481 531 
L 3481 0 
L 794 0 
L 794 531 
z
" transform="scale(0.015625)"/>
       </defs>
       <use xlink:href="#DejaVuSans-31"/>
      </g>
     </g>
    </g>
    <g id="xtick_2">
     <g id="line2d_2">
      <g>
       <use xlink:href="#mb756ab4047" x="109.664165" y="307.584" style="stroke: #000000; stroke-width: 0.8"/>
      </g>
     </g>
     <g id="text_2">
      <!-- 34 -->
      <g transform="translate(103.301665 322.182437) scale(0.1 -0.1)">
       <defs>
        <path id="DejaVuSans-33" d="M 2597 2516 
Q 3050 2419 3304 2112 
Q 3559 1806 3559 1356 
Q 3559 666 3084 287 
Q 2609 -91 1734 -91 
Q 1441 -91 1130 -33 
Q 819 25 488 141 
L 488 750 
Q 750 597 1062 519 
Q 1375 441 1716 441 
Q 2309 441 2620 675 
Q 2931 909 2931 1356 
Q 2931 1769 2642 2001 
Q 2353 2234 1838 2234 
L 1294 2234 
L 1294 2753 
L 1863 2753 
Q 2328 2753 2575 2939 
Q 2822 3125 2822 3475 
Q 2822 3834 2567 4026 
Q 2313 4219 1838 4219 
Q 1578 4219 1281 4162 
Q 984 4106 628 3988 
L 628 4550 
Q 988 4650 1302 4700 
Q 1616 4750 1894 4750 
Q 2613 4750 3031 4423 
Q 3450 4097 3450 3541 
Q 3450 3153 3228 2886 
Q 3006 2619 2597 2516 
z
" transform="scale(0.015625)"/>
        <path id="DejaVuSans-34" d="M 2419 4116 
L 825 1625 
L 2419 1625 
L 2419 4116 
z
M 2253 4666 
L 3047 4666 
L 3047 1625 
L 3713 1625 
L 3713 1100 
L 3047 1100 
L 3047 0 
L 2419 0 
L 2419 1100 
L 313 1100 
L 313 1709 
L 2253 4666 
z
" transform="scale(0.015625)"/>
       </defs>
       <use xlink:href="#DejaVuSans-33"/>
       <use xlink:href="#DejaVuSans-34" x="63.623047"/>
      </g>
     </g>
    </g>
    <g id="xtick_3">
     <g id="line2d_3">
      <g>
       <use xlink:href="#mb756ab4047" x="145.495604" y="307.584" style="stroke: #000000; stroke-width: 0.8"/>
      </g>
     </g>
     <g id="text_3">
      <!-- 67 -->
      <g transform="translate(139.133104 322.182437) scale(0.1 -0.1)">
       <defs>
        <path id="DejaVuSans-36" d="M 2113 2584 
Q 1688 2584 1439 2293 
Q 1191 2003 1191 1497 
Q 1191 994 1439 701 
Q 1688 409 2113 409 
Q 2538 409 2786 701 
Q 3034 994 3034 1497 
Q 3034 2003 2786 2293 
Q 2538 2584 2113 2584 
z
M 3366 4563 
L 3366 3988 
Q 3128 4100 2886 4159 
Q 2644 4219 2406 4219 
Q 1781 4219 1451 3797 
Q 1122 3375 1075 2522 
Q 1259 2794 1537 2939 
Q 1816 3084 2150 3084 
Q 2853 3084 3261 2657 
Q 3669 2231 3669 1497 
Q 3669 778 3244 343 
Q 2819 -91 2113 -91 
Q 1303 -91 875 529 
Q 447 1150 447 2328 
Q 447 3434 972 4092 
Q 1497 4750 2381 4750 
Q 2619 4750 2861 4703 
Q 3103 4656 3366 4563 
z
" transform="scale(0.015625)"/>
        <path id="DejaVuSans-37" d="M 525 4666 
L 3525 4666 
L 3525 4397 
L 1831 0 
L 1172 0 
L 2766 4134 
L 525 4134 
L 525 4666 
z
" transform="scale(0.015625)"/>
       </defs>
       <use xlink:href="#DejaVuSans-36"/>
       <use xlink:href="#DejaVuSans-37" x="63.623047"/>
      </g>
     </g>
    </g>
    <g id="xtick_4">
     <g id="line2d_4">
      <g>
       <use xlink:href="#mb756ab4047" x="181.327042" y="307.584" style="stroke: #000000; stroke-width: 0.8"/>
      </g>
     </g>
     <g id="text_4">
      <!-- 100 -->
      <g transform="translate(171.783292 322.182437) scale(0.1 -0.1)">
       <defs>
        <path id="DejaVuSans-30" d="M 2034 4250 
Q 1547 4250 1301 3770 
Q 1056 3291 1056 2328 
Q 1056 1369 1301 889 
Q 1547 409 2034 409 
Q 2525 409 2770 889 
Q 3016 1369 3016 2328 
Q 3016 3291 2770 3770 
Q 2525 4250 2034 4250 
z
M 2034 4750 
Q 2819 4750 3233 4129 
Q 3647 3509 3647 2328 
Q 3647 1150 3233 529 
Q 2819 -91 2034 -91 
Q 1250 -91 836 529 
Q 422 1150 422 2328 
Q 422 3509 836 4129 
Q 1250 4750 2034 4750 
z
" transform="scale(0.015625)"/>
       </defs>
       <use xlink:href="#DejaVuSans-31"/>
       <use xlink:href="#DejaVuSans-30" x="63.623047"/>
       <use xlink:href="#DejaVuSans-30" x="127.246094"/>
      </g>
     </g>
    </g>
    <g id="xtick_5">
     <g id="line2d_5">
      <g>
       <use xlink:href="#mb756ab4047" x="217.15848" y="307.584" style="stroke: #000000; stroke-width: 0.8"/>
      </g>
     </g>
     <g id="text_5">
      <!-- 133 -->
      <g transform="translate(207.61473 322.182437) scale(0.1 -0.1)">
       <use xlink:href="#DejaVuSans-31"/>
       <use xlink:href="#DejaVuSans-33" x="63.623047"/>
       <use xlink:href="#DejaVuSans-33" x="127.246094"/>
      </g>
     </g>
    </g>
    <g id="xtick_6">
     <g id="line2d_6">
      <g>
       <use xlink:href="#mb756ab4047" x="254.075719" y="307.584" style="stroke: #000000; stroke-width: 0.8"/>
      </g>
     </g>
     <g id="text_6">
      <!-- 167 -->
      <g transform="translate(244.531969 322.182437) scale(0.1 -0.1)">
       <use xlink:href="#DejaVuSans-31"/>
       <use xlink:href="#DejaVuSans-36" x="63.623047"/>
       <use xlink:href="#DejaVuSans-37" x="127.246094"/>
      </g>
     </g>
    </g>
    <g id="xtick_7">
     <g id="line2d_7">
      <g>
       <use xlink:href="#mb756ab4047" x="289.907157" y="307.584" style="stroke: #000000; stroke-width: 0.8"/>
      </g>
     </g>
     <g id="text_7">
      <!-- 200 -->
      <g transform="translate(280.363407 322.182437) scale(0.1 -0.1)">
       <defs>
        <path id="DejaVuSans-32" d="M 1228 531 
L 3431 531 
L 3431 0 
L 469 0 
L 469 531 
Q 828 903 1448 1529 
Q 2069 2156 2228 2338 
Q 2531 2678 2651 2914 
Q 2772 3150 2772 3378 
Q 2772 3750 2511 3984 
Q 2250 4219 1831 4219 
Q 1534 4219 1204 4116 
Q 875 4013 500 3803 
L 500 4441 
Q 881 4594 1212 4672 
Q 1544 4750 1819 4750 
Q 2544 4750 2975 4387 
Q 3406 4025 3406 3419 
Q 3406 3131 3298 2873 
Q 3191 2616 2906 2266 
Q 2828 2175 2409 1742 
Q 1991 1309 1228 531 
z
" transform="scale(0.015625)"/>
       </defs>
       <use xlink:href="#DejaVuSans-32"/>
       <use xlink:href="#DejaVuSans-30" x="63.623047"/>
       <use xlink:href="#DejaVuSans-30" x="127.246094"/>
      </g>
     </g>
    </g>
    <g id="xtick_8">
     <g id="line2d_8">
      <g>
       <use xlink:href="#mb756ab4047" x="325.738595" y="307.584" style="stroke: #000000; stroke-width: 0.8"/>
      </g>
     </g>
     <g id="text_8">
      <!-- 233 -->
      <g transform="translate(316.194845 322.182437) scale(0.1 -0.1)">
       <use xlink:href="#DejaVuSans-32"/>
       <use xlink:href="#DejaVuSans-33" x="63.623047"/>
       <use xlink:href="#DejaVuSans-33" x="127.246094"/>
      </g>
     </g>
    </g>
    <g id="xtick_9">
     <g id="line2d_9">
      <g>
       <use xlink:href="#mb756ab4047" x="361.570033" y="307.584" style="stroke: #000000; stroke-width: 0.8"/>
      </g>
     </g>
     <g id="text_9">
      <!-- 266 -->
      <g transform="translate(352.026283 322.182437) scale(0.1 -0.1)">
       <use xlink:href="#DejaVuSans-32"/>
       <use xlink:href="#DejaVuSans-36" x="63.623047"/>
       <use xlink:href="#DejaVuSans-36" x="127.246094"/>
      </g>
     </g>
    </g>
    <g id="xtick_10">
     <g id="line2d_10">
      <g>
       <use xlink:href="#mb756ab4047" x="398.487273" y="307.584" style="stroke: #000000; stroke-width: 0.8"/>
      </g>
     </g>
     <g id="text_10">
      <!-- 300 -->
      <g transform="translate(388.943523 322.182437) scale(0.1 -0.1)">
       <use xlink:href="#DejaVuSans-33"/>
       <use xlink:href="#DejaVuSans-30" x="63.623047"/>
       <use xlink:href="#DejaVuSans-30" x="127.246094"/>
      </g>
     </g>
    </g>
    <g id="text_11">
     <!-- Epochs -->
     <g transform="translate(218.244375 335.860562) scale(0.1 -0.1)">
      <defs>
       <path id="DejaVuSans-45" d="M 628 4666 
L 3578 4666 
L 3578 4134 
L 1259 4134 
L 1259 2753 
L 3481 2753 
L 3481 2222 
L 1259 2222 
L 1259 531 
L 3634 531 
L 3634 0 
L 628 0 
L 628 4666 
z
" transform="scale(0.015625)"/>
       <path id="DejaVuSans-70" d="M 1159 525 
L 1159 -1331 
L 581 -1331 
L 581 3500 
L 1159 3500 
L 1159 2969 
Q 1341 3281 1617 3432 
Q 1894 3584 2278 3584 
Q 2916 3584 3314 3078 
Q 3713 2572 3713 1747 
Q 3713 922 3314 415 
Q 2916 -91 2278 -91 
Q 1894 -91 1617 61 
Q 1341 213 1159 525 
z
M 3116 1747 
Q 3116 2381 2855 2742 
Q 2594 3103 2138 3103 
Q 1681 3103 1420 2742 
Q 1159 2381 1159 1747 
Q 1159 1113 1420 752 
Q 1681 391 2138 391 
Q 2594 391 2855 752 
Q 3116 1113 3116 1747 
z
" transform="scale(0.015625)"/>
       <path id="DejaVuSans-6f" d="M 1959 3097 
Q 1497 3097 1228 2736 
Q 959 2375 959 1747 
Q 959 1119 1226 758 
Q 1494 397 1959 397 
Q 2419 397 2687 759 
Q 2956 1122 2956 1747 
Q 2956 2369 2687 2733 
Q 2419 3097 1959 3097 
z
M 1959 3584 
Q 2709 3584 3137 3096 
Q 3566 2609 3566 1747 
Q 3566 888 3137 398 
Q 2709 -91 1959 -91 
Q 1206 -91 779 398 
Q 353 888 353 1747 
Q 353 2609 779 3096 
Q 1206 3584 1959 3584 
z
" transform="scale(0.015625)"/>
       <path id="DejaVuSans-63" d="M 3122 3366 
L 3122 2828 
Q 2878 2963 2633 3030 
Q 2388 3097 2138 3097 
Q 1578 3097 1268 2742 
Q 959 2388 959 1747 
Q 959 1106 1268 751 
Q 1578 397 2138 397 
Q 2388 397 2633 464 
Q 2878 531 3122 666 
L 3122 134 
Q 2881 22 2623 -34 
Q 2366 -91 2075 -91 
Q 1284 -91 818 406 
Q 353 903 353 1747 
Q 353 2603 823 3093 
Q 1294 3584 2113 3584 
Q 2378 3584 2631 3529 
Q 2884 3475 3122 3366 
z
" transform="scale(0.015625)"/>
       <path id="DejaVuSans-68" d="M 3513 2113 
L 3513 0 
L 2938 0 
L 2938 2094 
Q 2938 2591 2744 2837 
Q 2550 3084 2163 3084 
Q 1697 3084 1428 2787 
Q 1159 2491 1159 1978 
L 1159 0 
L 581 0 
L 581 4863 
L 1159 4863 
L 1159 2956 
Q 1366 3272 1645 3428 
Q 1925 3584 2291 3584 
Q 2894 3584 3203 3211 
Q 3513 2838 3513 2113 
z
" transform="scale(0.015625)"/>
       <path id="DejaVuSans-73" d="M 2834 3397 
L 2834 2853 
Q 2591 2978 2328 3040 
Q 2066 3103 1784 3103 
Q 1356 3103 1142 2972 
Q 928 2841 928 2578 
Q 928 2378 1081 2264 
Q 1234 2150 1697 2047 
L 1894 2003 
Q 2506 1872 2764 1633 
Q 3022 1394 3022 966 
Q 3022 478 2636 193 
Q 2250 -91 1575 -91 
Q 1294 -91 989 -36 
Q 684 19 347 128 
L 347 722 
Q 666 556 975 473 
Q 1284 391 1588 391 
Q 1994 391 2212 530 
Q 2431 669 2431 922 
Q 2431 1156 2273 1281 
Q 2116 1406 1581 1522 
L 1381 1569 
Q 847 1681 609 1914 
Q 372 2147 372 2553 
Q 372 3047 722 3315 
Q 1072 3584 1716 3584 
Q 2034 3584 2315 3537 
Q 2597 3491 2834 3397 
z
" transform="scale(0.015625)"/>
      </defs>
      <use xlink:href="#DejaVuSans-45"/>
      <use xlink:href="#DejaVuSans-70" x="63.183594"/>
      <use xlink:href="#DejaVuSans-6f" x="126.660156"/>
      <use xlink:href="#DejaVuSans-63" x="187.841797"/>
      <use xlink:href="#DejaVuSans-68" x="242.822266"/>
      <use xlink:href="#DejaVuSans-73" x="306.201172"/>
     </g>
    </g>
   </g>
   <g id="matplotlib.axis_2">
    <g id="ytick_1">
     <g id="line2d_11">
      <defs>
       <path id="me384c1860a" d="M 0 0 
L -3.5 0 
" style="stroke: #000000; stroke-width: 0.8"/>
      </defs>
      <g>
       <use xlink:href="#me384c1860a" x="57.6" y="299.81196" style="stroke: #000000; stroke-width: 0.8"/>
      </g>
     </g>
     <g id="text_12">
      <!-- 30 -->
      <g transform="translate(37.875 303.611178) scale(0.1 -0.1)">
       <use xlink:href="#DejaVuSans-33"/>
       <use xlink:href="#DejaVuSans-30" x="63.623047"/>
      </g>
     </g>
    </g>
    <g id="ytick_2">
     <g id="line2d_12">
      <g>
       <use xlink:href="#me384c1860a" x="57.6" y="262.855039" style="stroke: #000000; stroke-width: 0.8"/>
      </g>
     </g>
     <g id="text_13">
      <!-- 40 -->
      <g transform="translate(37.875 266.654258) scale(0.1 -0.1)">
       <use xlink:href="#DejaVuSans-34"/>
       <use xlink:href="#DejaVuSans-30" x="63.623047"/>
      </g>
     </g>
    </g>
    <g id="ytick_3">
     <g id="line2d_13">
      <g>
       <use xlink:href="#me384c1860a" x="57.6" y="225.898119" style="stroke: #000000; stroke-width: 0.8"/>
      </g>
     </g>
     <g id="text_14">
      <!-- 50 -->
      <g transform="translate(37.875 229.697338) scale(0.1 -0.1)">
       <defs>
        <path id="DejaVuSans-35" d="M 691 4666 
L 3169 4666 
L 3169 4134 
L 1269 4134 
L 1269 2991 
Q 1406 3038 1543 3061 
Q 1681 3084 1819 3084 
Q 2600 3084 3056 2656 
Q 3513 2228 3513 1497 
Q 3513 744 3044 326 
Q 2575 -91 1722 -91 
Q 1428 -91 1123 -41 
Q 819 9 494 109 
L 494 744 
Q 775 591 1075 516 
Q 1375 441 1709 441 
Q 2250 441 2565 725 
Q 2881 1009 2881 1497 
Q 2881 1984 2565 2268 
Q 2250 2553 1709 2553 
Q 1456 2553 1204 2497 
Q 953 2441 691 2322 
L 691 4666 
z
" transform="scale(0.015625)"/>
       </defs>
       <use xlink:href="#DejaVuSans-35"/>
       <use xlink:href="#DejaVuSans-30" x="63.623047"/>
      </g>
     </g>
    </g>
    <g id="ytick_4">
     <g id="line2d_14">
      <g>
       <use xlink:href="#me384c1860a" x="57.6" y="188.941199" style="stroke: #000000; stroke-width: 0.8"/>
      </g>
     </g>
     <g id="text_15">
      <!-- 60 -->
      <g transform="translate(37.875 192.740418) scale(0.1 -0.1)">
       <use xlink:href="#DejaVuSans-36"/>
       <use xlink:href="#DejaVuSans-30" x="63.623047"/>
      </g>
     </g>
    </g>
    <g id="ytick_5">
     <g id="line2d_15">
      <g>
       <use xlink:href="#me384c1860a" x="57.6" y="151.984279" style="stroke: #000000; stroke-width: 0.8"/>
      </g>
     </g>
     <g id="text_16">
      <!-- 70 -->
      <g transform="translate(37.875 155.783497) scale(0.1 -0.1)">
       <use xlink:href="#DejaVuSans-37"/>
       <use xlink:href="#DejaVuSans-30" x="63.623047"/>
      </g>
     </g>
    </g>
    <g id="ytick_6">
     <g id="line2d_16">
      <g>
       <use xlink:href="#me384c1860a" x="57.6" y="115.027358" style="stroke: #000000; stroke-width: 0.8"/>
      </g>
     </g>
     <g id="text_17">
      <!-- 80 -->
      <g transform="translate(37.875 118.826577) scale(0.1 -0.1)">
       <defs>
        <path id="DejaVuSans-38" d="M 2034 2216 
Q 1584 2216 1326 1975 
Q 1069 1734 1069 1313 
Q 1069 891 1326 650 
Q 1584 409 2034 409 
Q 2484 409 2743 651 
Q 3003 894 3003 1313 
Q 3003 1734 2745 1975 
Q 2488 2216 2034 2216 
z
M 1403 2484 
Q 997 2584 770 2862 
Q 544 3141 544 3541 
Q 544 4100 942 4425 
Q 1341 4750 2034 4750 
Q 2731 4750 3128 4425 
Q 3525 4100 3525 3541 
Q 3525 3141 3298 2862 
Q 3072 2584 2669 2484 
Q 3125 2378 3379 2068 
Q 3634 1759 3634 1313 
Q 3634 634 3220 271 
Q 2806 -91 2034 -91 
Q 1263 -91 848 271 
Q 434 634 434 1313 
Q 434 1759 690 2068 
Q 947 2378 1403 2484 
z
M 1172 3481 
Q 1172 3119 1398 2916 
Q 1625 2713 2034 2713 
Q 2441 2713 2670 2916 
Q 2900 3119 2900 3481 
Q 2900 3844 2670 4047 
Q 2441 4250 2034 4250 
Q 1625 4250 1398 4047 
Q 1172 3844 1172 3481 
z
" transform="scale(0.015625)"/>
       </defs>
       <use xlink:href="#DejaVuSans-38"/>
       <use xlink:href="#DejaVuSans-30" x="63.623047"/>
      </g>
     </g>
    </g>
    <g id="ytick_7">
     <g id="line2d_17">
      <g>
       <use xlink:href="#me384c1860a" x="57.6" y="78.070438" style="stroke: #000000; stroke-width: 0.8"/>
      </g>
     </g>
     <g id="text_18">
      <!-- 90 -->
      <g transform="translate(37.875 81.869657) scale(0.1 -0.1)">
       <defs>
        <path id="DejaVuSans-39" d="M 703 97 
L 703 672 
Q 941 559 1184 500 
Q 1428 441 1663 441 
Q 2288 441 2617 861 
Q 2947 1281 2994 2138 
Q 2813 1869 2534 1725 
Q 2256 1581 1919 1581 
Q 1219 1581 811 2004 
Q 403 2428 403 3163 
Q 403 3881 828 4315 
Q 1253 4750 1959 4750 
Q 2769 4750 3195 4129 
Q 3622 3509 3622 2328 
Q 3622 1225 3098 567 
Q 2575 -91 1691 -91 
Q 1453 -91 1209 -44 
Q 966 3 703 97 
z
M 1959 2075 
Q 2384 2075 2632 2365 
Q 2881 2656 2881 3163 
Q 2881 3666 2632 3958 
Q 2384 4250 1959 4250 
Q 1534 4250 1286 3958 
Q 1038 3666 1038 3163 
Q 1038 2656 1286 2365 
Q 1534 2075 1959 2075 
z
" transform="scale(0.015625)"/>
       </defs>
       <use xlink:href="#DejaVuSans-39"/>
       <use xlink:href="#DejaVuSans-30" x="63.623047"/>
      </g>
     </g>
    </g>
    <g id="text_19">
     <!-- Accuracy -->
     <g transform="translate(31.795312 197.356125) rotate(-90) scale(0.1 -0.1)">
      <defs>
       <path id="DejaVuSans-41" d="M 2188 4044 
L 1331 1722 
L 3047 1722 
L 2188 4044 
z
M 1831 4666 
L 2547 4666 
L 4325 0 
L 3669 0 
L 3244 1197 
L 1141 1197 
L 716 0 
L 50 0 
L 1831 4666 
z
" transform="scale(0.015625)"/>
       <path id="DejaVuSans-75" d="M 544 1381 
L 544 3500 
L 1119 3500 
L 1119 1403 
Q 1119 906 1312 657 
Q 1506 409 1894 409 
Q 2359 409 2629 706 
Q 2900 1003 2900 1516 
L 2900 3500 
L 3475 3500 
L 3475 0 
L 2900 0 
L 2900 538 
Q 2691 219 2414 64 
Q 2138 -91 1772 -91 
Q 1169 -91 856 284 
Q 544 659 544 1381 
z
M 1991 3584 
L 1991 3584 
z
" transform="scale(0.015625)"/>
       <path id="DejaVuSans-72" d="M 2631 2963 
Q 2534 3019 2420 3045 
Q 2306 3072 2169 3072 
Q 1681 3072 1420 2755 
Q 1159 2438 1159 1844 
L 1159 0 
L 581 0 
L 581 3500 
L 1159 3500 
L 1159 2956 
Q 1341 3275 1631 3429 
Q 1922 3584 2338 3584 
Q 2397 3584 2469 3576 
Q 2541 3569 2628 3553 
L 2631 2963 
z
" transform="scale(0.015625)"/>
       <path id="DejaVuSans-61" d="M 2194 1759 
Q 1497 1759 1228 1600 
Q 959 1441 959 1056 
Q 959 750 1161 570 
Q 1363 391 1709 391 
Q 2188 391 2477 730 
Q 2766 1069 2766 1631 
L 2766 1759 
L 2194 1759 
z
M 3341 1997 
L 3341 0 
L 2766 0 
L 2766 531 
Q 2569 213 2275 61 
Q 1981 -91 1556 -91 
Q 1019 -91 701 211 
Q 384 513 384 1019 
Q 384 1609 779 1909 
Q 1175 2209 1959 2209 
L 2766 2209 
L 2766 2266 
Q 2766 2663 2505 2880 
Q 2244 3097 1772 3097 
Q 1472 3097 1187 3025 
Q 903 2953 641 2809 
L 641 3341 
Q 956 3463 1253 3523 
Q 1550 3584 1831 3584 
Q 2591 3584 2966 3190 
Q 3341 2797 3341 1997 
z
" transform="scale(0.015625)"/>
       <path id="DejaVuSans-79" d="M 2059 -325 
Q 1816 -950 1584 -1140 
Q 1353 -1331 966 -1331 
L 506 -1331 
L 506 -850 
L 844 -850 
Q 1081 -850 1212 -737 
Q 1344 -625 1503 -206 
L 1606 56 
L 191 3500 
L 800 3500 
L 1894 763 
L 2988 3500 
L 3597 3500 
L 2059 -325 
z
" transform="scale(0.015625)"/>
      </defs>
      <use xlink:href="#DejaVuSans-41"/>
      <use xlink:href="#DejaVuSans-63" x="66.658203"/>
      <use xlink:href="#DejaVuSans-63" x="121.638672"/>
      <use xlink:href="#DejaVuSans-75" x="176.619141"/>
      <use xlink:href="#DejaVuSans-72" x="239.998047"/>
      <use xlink:href="#DejaVuSans-61" x="281.111328"/>
      <use xlink:href="#DejaVuSans-63" x="342.390625"/>
      <use xlink:href="#DejaVuSans-79" x="397.371094"/>
     </g>
    </g>
   </g>
   <g id="line2d_18">
    <path d="M 73.832727 295.488 
L 74.918528 229.84327 
L 76.00433 198.808697 
L 77.090131 179.591098 
L 78.175932 164.80833 
L 79.261733 158.710438 
L 80.347534 148.815223 
L 81.433335 143.003747 
L 82.519137 137.996084 
L 83.604938 135.021052 
L 84.690739 130.115021 
L 85.77654 125.828018 
L 86.862341 121.014379 
L 87.948142 117.53119 
L 89.033943 116.727377 
L 90.119745 112.578962 
L 91.205546 108.957184 
L 92.291347 107.534343 
L 93.377148 107.987065 
L 94.462949 104.522354 
L 95.54875 129.348165 
L 96.634552 131.066662 
L 97.720353 129.274251 
L 98.806154 126.326937 
L 100.977756 121.337753 
L 102.063557 119.637734 
L 103.149358 117.6513 
L 104.23516 116.69042 
L 105.320961 114.537679 
L 106.406762 113.188752 
L 107.492563 110.943619 
L 108.578364 110.149045 
L 109.664165 110.09361 
L 110.749967 109.058816 
L 111.835768 105.575626 
L 114.00737 103.117991 
L 115.093171 103.746258 
L 116.178972 100.586442 
L 117.264773 100.558724 
L 118.350575 98.359787 
L 119.436376 97.435864 
L 120.522177 96.244004 
L 121.607978 95.920631 
L 122.693779 93.010273 
L 124.865382 91.301016 
L 125.951183 89.795021 
L 127.036984 89.591758 
L 128.122785 87.40206 
L 129.208586 87.235754 
L 130.294387 86.33031 
L 131.380189 85.822152 
L 132.46599 83.262885 
L 133.551791 85.526497 
L 134.637592 83.558541 
L 135.723393 82.643857 
L 136.809194 83.050383 
L 137.894995 82.874838 
L 138.980797 105.575626 
L 140.066598 107.663692 
L 141.152399 107.053903 
L 142.2382 105.982152 
L 143.324001 104.198981 
L 144.409802 104.522354 
L 145.495604 104.171263 
L 146.581405 104.32833 
L 147.667206 104.051153 
L 148.753007 102.434288 
L 149.838808 101.68591 
L 150.924609 101.852216 
L 152.01041 101.233188 
L 153.096212 99.579366 
L 154.182013 99.902739 
L 155.267814 98.461419 
L 156.353615 98.747835 
L 157.439416 97.666845 
L 158.525217 98.008697 
L 159.611019 98.073371 
L 160.69682 95.892913 
L 161.782621 95.865195 
L 162.868422 97.020099 
L 163.954223 95.393995 
L 165.040024 94.340722 
L 166.125825 95.264645 
L 167.211627 94.396158 
L 168.297428 94.137459 
L 169.383229 92.816249 
L 170.46903 93.518431 
L 171.554831 91.051556 
L 172.640632 90.912968 
L 173.726434 91.023839 
L 174.812235 91.402647 
L 175.898036 90.968403 
L 176.983837 88.917294 
L 178.069638 90.349375 
L 179.155439 88.630878 
L 180.24124 88.076524 
L 181.327042 87.383582 
L 182.412843 86.441181 
L 184.584445 86.431941 
L 185.670246 85.434104 
L 186.756047 85.295516 
L 188.92765 84.306918 
L 190.013451 84.279201 
L 191.099252 82.865599 
L 192.185053 82.597661 
L 193.270854 82.209613 
L 194.356656 81.4058 
L 195.442457 80.334049 
L 196.528258 79.807413 
L 198.69986 80.380246 
L 199.785661 77.479127 
L 200.871462 78.504682 
L 201.957264 78.04272 
L 203.043065 76.767707 
L 204.128866 76.934013 
L 205.214667 76.388898 
L 206.300468 75.658999 
L 207.386269 75.233995 
L 208.472071 76.37042 
L 209.557872 75.363344 
L 210.643673 74.735076 
L 211.729474 74.273115 
L 212.815275 73.376909 
L 213.901076 72.970383 
L 214.986877 73.561694 
L 216.072679 73.173646 
L 217.15848 73.081254 
L 218.244281 72.517661 
L 219.330082 72.489943 
L 220.415883 72.739402 
L 221.501684 72.332876 
L 222.587486 72.914948 
L 223.673287 72.055699 
L 224.759088 73.081254 
L 225.844889 94.793445 
L 226.93069 96.77064 
L 228.016491 97.020099 
L 229.102292 96.234764 
L 230.188094 96.391831 
L 231.273895 95.144535 
L 232.359696 95.32932 
L 233.445497 94.765727 
L 234.531298 95.976066 
L 235.617099 94.580942 
L 236.702901 94.294526 
L 237.788702 93.777129 
L 238.874503 94.423875 
L 239.960304 93.657019 
L 241.046105 93.028752 
L 242.131906 93.555388 
L 243.217708 92.539072 
L 244.303509 92.733096 
L 245.38931 93.684737 
L 247.560912 91.550475 
L 248.646713 90.866772 
L 249.732514 93.019512 
L 250.818316 91.273298 
L 251.904117 90.894489 
L 252.989918 90.829815 
L 254.075719 91.458082 
L 255.16152 90.099916 
L 256.247321 90.589595 
L 257.333123 89.055883 
L 258.418924 90.598834 
L 259.504725 89.259146 
L 260.590526 89.314581 
L 261.676327 88.566203 
L 262.762128 88.529247 
L 263.847929 88.714031 
L 264.933731 89.360777 
L 266.019532 88.298266 
L 267.105333 88.01185 
L 271.448538 87.753151 
L 272.534339 86.367267 
L 273.62014 86.099329 
L 275.791742 87.17108 
L 276.877543 85.554214 
L 277.963344 85.581932 
L 279.049146 86.09009 
L 280.134947 86.736836 
L 281.220748 85.720521 
L 282.306549 85.785195 
L 283.39235 85.12921 
L 284.478151 85.083014 
L 286.649754 83.909632 
L 287.735555 85.258559 
L 289.907157 83.456909 
L 290.992958 84.066698 
L 292.07876 83.586258 
L 293.164561 83.456909 
L 294.250362 82.856359 
L 295.336163 82.976469 
L 296.421964 82.6069 
L 297.507765 83.401474 
L 298.593566 82.551465 
L 299.679368 81.368843 
L 300.765169 82.089503 
L 301.85097 81.64602 
L 302.936771 81.498192 
L 304.022572 80.971556 
L 305.108373 80.657423 
L 306.194175 81.803087 
L 307.279976 80.971556 
L 308.365777 81.017753 
L 309.451578 80.140026 
L 310.537379 80.066112 
L 311.62318 80.2047 
L 312.708981 78.744902 
L 313.794783 78.273701 
L 314.880584 79.326973 
L 315.966385 79.354691 
L 317.052186 77.146515 
L 318.137987 79.326973 
L 319.223788 78.449247 
L 320.30959 78.098156 
L 321.395391 77.608477 
L 322.481192 77.44217 
L 323.566993 76.804664 
L 325.738595 77.054123 
L 326.824396 77.673151 
L 327.910198 77.100319 
L 328.995999 76.739989 
L 330.0818 75.150841 
L 331.167601 75.335626 
L 332.253402 76.185635 
L 335.510806 73.478541 
L 336.596607 74.171483 
L 337.682408 73.838871 
L 338.768209 74.005177 
L 339.85401 73.84811 
L 340.939811 72.138852 
L 342.025613 73.201364 
L 343.111414 73.219842 
L 344.197215 72.5269 
L 345.283016 72.730163 
L 347.454618 71.935589 
L 348.54042 72.027982 
L 349.626221 70.420356 
L 350.712022 71.713848 
L 351.797823 70.272528 
L 352.883624 70.549705 
L 353.969425 70.01383 
L 355.055227 70.050786 
L 357.226829 69.662739 
L 358.31263 68.480117 
L 359.398431 69.089907 
L 360.484232 69.514911 
L 361.570033 68.849687 
L 362.655835 69.080667 
L 363.741636 68.249137 
L 364.827437 68.129027 
L 365.913238 68.720337 
L 366.999039 67.833371 
L 368.08484 68.064352 
L 369.170642 69.302409 
L 370.256443 68.868165 
L 371.342244 70.050786 
L 372.428045 70.808403 
L 373.513846 71.104059 
L 374.599647 70.041547 
L 375.685448 70.910035 
L 376.77125 71.067102 
L 377.857051 70.789925 
L 378.942852 70.1247 
L 380.028653 70.743729 
L 382.200255 70.291006 
L 383.286057 70.993188 
L 384.371858 70.780686 
L 385.457659 69.88448 
L 386.54346 70.780686 
L 387.629261 71.371996 
L 388.715062 71.353518 
L 389.800863 70.309485 
L 390.886665 71.464389 
L 391.972466 70.96547 
L 393.058267 70.291006 
L 394.144068 71.168733 
L 395.229869 70.789925 
L 396.31567 70.808403 
L 397.401472 69.635021 
L 398.487273 71.08558 
L 398.487273 71.08558 
" clip-path="url(#p7c1b42e518)" style="fill: none; stroke: #1f77b4; stroke-width: 1.5; stroke-linecap: square"/>
   </g>
   <g id="line2d_19">
    <path d="M 73.832727 238.759127 
L 74.918528 182.288953 
L 76.00433 151.429925 
L 77.090131 150.579916 
L 78.175932 128.664462 
L 79.261733 126.631831 
L 80.347534 121.901346 
L 81.433335 106.231611 
L 82.519137 112.181676 
L 83.604938 105.381602 
L 84.690739 106.49031 
L 85.77654 95.32932 
L 86.862341 94.331483 
L 87.948142 89.046643 
L 89.033943 86.200961 
L 90.119745 81.729173 
L 91.205546 81.137863 
L 92.291347 80.80525 
L 93.377148 78.661749 
L 94.462949 78.513921 
L 95.54875 102.092436 
L 96.634552 98.32283 
L 97.720353 101.68591 
L 98.806154 91.818412 
L 99.891955 95.477148 
L 100.977756 96.401071 
L 102.063557 85.092253 
L 103.149358 89.859696 
L 104.23516 84.796598 
L 105.320961 89.194471 
L 106.406762 88.307505 
L 107.492563 82.098742 
L 108.578364 87.383582 
L 109.664165 82.24657 
L 110.749967 78.809577 
L 111.835768 82.763967 
L 112.921569 74.892143 
L 114.00737 74.781272 
L 115.093171 76.703032 
L 116.178972 76.518247 
L 117.264773 74.670401 
L 118.350575 73.709522 
L 119.436376 72.009503 
L 120.522177 69.385562 
L 121.607978 67.759457 
L 122.693779 69.16382 
L 124.865382 68.831208 
L 125.951183 68.313811 
L 127.036984 66.281181 
L 128.122785 65.135516 
L 129.208586 65.061602 
L 130.294387 64.839861 
L 131.380189 64.100722 
L 132.46599 63.509412 
L 133.551791 64.359421 
L 134.637592 63.509412 
L 135.723393 63.509412 
L 136.809194 63.878981 
L 137.894995 63.176799 
L 138.980797 80.990035 
L 140.066598 81.174819 
L 141.152399 75.631281 
L 143.324001 79.770456 
L 144.409802 82.948752 
L 145.495604 79.511758 
L 146.581405 74.559531 
L 147.667206 76.148678 
L 148.753007 73.561694 
L 149.838808 73.96822 
L 150.924609 75.483454 
L 152.01041 76.037808 
L 153.096212 77.774783 
L 154.182013 74.892143 
L 155.267814 76.333463 
L 156.353615 73.709522 
L 157.439416 74.042134 
L 158.525217 73.857349 
L 159.611019 70.494269 
L 160.69682 70.900796 
L 161.782621 68.609467 
L 162.868422 69.16382 
L 163.954223 72.305159 
L 165.040024 70.863839 
L 166.125825 67.833371 
L 167.211627 70.01383 
L 168.297428 68.09207 
L 169.383229 67.352931 
L 170.46903 69.311648 
L 171.554831 69.16382 
L 172.640632 68.387725 
L 173.726434 69.16382 
L 174.812235 67.13119 
L 175.898036 68.350768 
L 176.983837 66.244224 
L 178.069638 65.431171 
L 179.155439 66.946405 
L 180.24124 67.537716 
L 181.327042 64.470291 
L 182.412843 65.615956 
L 183.498644 64.24855 
L 184.584445 64.137679 
L 185.670246 65.172473 
L 186.756047 64.174636 
L 187.841849 64.765947 
L 188.92765 63.878981 
L 190.013451 65.394214 
L 191.099252 62.400704 
L 192.185053 64.174636 
L 193.270854 61.661566 
L 194.356656 61.291996 
L 195.442457 61.291996 
L 196.528258 60.811556 
L 197.614059 60.626772 
L 198.69986 59.591978 
L 199.785661 61.181126 
L 200.871462 59.591978 
L 201.957264 60.441987 
L 203.043065 59.296323 
L 204.128866 59.591978 
L 205.214667 58.557184 
L 206.300468 58.335443 
L 207.386269 59.555021 
L 208.472071 57.448477 
L 209.557872 58.594141 
L 210.643673 57.374563 
L 211.729474 58.631098 
L 212.815275 58.446313 
L 213.901076 57.670218 
L 214.986877 58.039787 
L 216.072679 57.300649 
L 217.15848 57.596304 
L 218.244281 57.485434 
L 219.330082 56.783252 
L 220.415883 57.263692 
L 221.501684 56.820209 
L 222.587486 57.115864 
L 224.759088 56.968037 
L 225.844889 68.720337 
L 228.016491 72.194288 
L 229.102292 75.298669 
L 231.273895 71.048623 
L 232.359696 72.04646 
L 233.445497 69.976873 
L 234.531298 69.718174 
L 235.617099 73.155168 
L 236.702901 67.020319 
L 237.788702 70.974709 
L 238.874503 69.16382 
L 239.960304 69.015993 
L 241.046105 67.352931 
L 242.131906 66.687707 
L 243.217708 71.196451 
L 244.303509 66.244224 
L 245.38931 68.609467 
L 246.475111 76.776946 
L 247.560912 68.165984 
L 248.646713 67.907285 
L 249.732514 69.16382 
L 250.818316 70.235571 
L 251.904117 66.687707 
L 252.989918 65.505085 
L 254.075719 67.24206 
L 255.16152 68.09207 
L 256.247321 65.061602 
L 257.333123 68.609467 
L 258.418924 70.420356 
L 259.504725 67.685544 
L 260.590526 67.537716 
L 261.676327 67.24206 
L 262.762128 66.465965 
L 263.847929 64.396378 
L 264.933731 65.246387 
L 266.019532 65.098559 
L 267.105333 66.983362 
L 268.191134 66.17031 
L 269.276935 64.322464 
L 270.362736 64.470291 
L 271.448538 66.798577 
L 272.534339 65.578999 
L 273.62014 68.57251 
L 274.705941 70.272528 
L 275.791742 65.20943 
L 276.877543 64.137679 
L 277.963344 64.765947 
L 279.049146 65.246387 
L 280.134947 68.720337 
L 281.220748 64.544205 
L 282.306549 65.985525 
L 283.39235 69.200777 
L 284.478151 65.652913 
L 285.563953 65.615956 
L 286.649754 61.513738 
L 287.735555 63.805067 
L 288.821356 64.950731 
L 289.907157 62.881144 
L 290.992958 61.84635 
L 292.07876 63.620282 
L 293.164561 67.981199 
L 294.250362 60.848513 
L 295.336163 63.805067 
L 296.421964 62.289833 
L 297.507765 65.20943 
L 298.593566 63.546368 
L 299.679368 63.694196 
L 300.765169 61.883307 
L 301.85097 64.950731 
L 302.936771 62.142005 
L 304.022572 61.36591 
L 305.108373 63.324627 
L 306.194175 61.402867 
L 307.279976 60.959384 
L 308.365777 62.437661 
L 309.451578 60.848513 
L 310.537379 61.033298 
L 311.62318 60.737643 
L 312.708981 59.037624 
L 313.794783 60.072418 
L 314.880584 62.031135 
L 315.966385 61.661566 
L 317.052186 61.994178 
L 318.137987 62.548532 
L 319.223788 61.107212 
L 320.30959 60.922427 
L 321.395391 60.88547 
L 322.481192 60.589815 
L 323.566993 58.557184 
L 325.738595 59.259366 
L 326.824396 60.811556 
L 328.995999 58.3724 
L 330.0818 60.700686 
L 331.167601 59.037624 
L 332.253402 60.183289 
L 333.339203 59.259366 
L 334.425005 60.441987 
L 335.510806 58.3724 
L 337.682408 57.374563 
L 339.85401 58.668055 
L 340.939811 58.446313 
L 342.025613 57.928917 
L 343.111414 57.818046 
L 344.197215 57.152821 
L 345.283016 56.709338 
L 346.368817 57.52239 
L 347.454618 57.559347 
L 348.54042 55.711501 
L 349.626221 57.448477 
L 350.712022 55.341932 
L 351.797823 57.078907 
L 352.883624 55.563674 
L 353.969425 56.413683 
L 355.055227 57.448477 
L 356.141028 55.48976 
L 357.226829 56.487597 
L 358.31263 54.861492 
L 359.398431 55.415846 
L 360.484232 55.822372 
L 361.570033 54.972363 
L 362.655835 55.563674 
L 363.741636 54.52888 
L 364.827437 54.454966 
L 365.913238 54.602794 
L 366.999039 54.122354 
L 368.08484 54.270181 
L 369.170642 55.00932 
L 370.256443 56.561511 
L 371.342244 55.046277 
L 372.428045 56.857166 
L 373.513846 56.894123 
L 374.599647 57.115864 
L 376.77125 56.339769 
L 377.857051 56.968037 
L 378.942852 56.783252 
L 380.028653 56.154984 
L 381.114454 57.115864 
L 382.200255 56.339769 
L 383.286057 56.376726 
L 384.371858 55.304975 
L 385.457659 56.487597 
L 386.54346 57.152821 
L 387.629261 57.226735 
L 388.715062 57.485434 
L 389.800863 56.93108 
L 390.886665 56.044114 
L 394.144068 56.228898 
L 395.229869 56.746295 
L 396.31567 56.044114 
L 397.401472 57.041951 
L 398.487273 55.637588 
L 398.487273 55.637588 
" clip-path="url(#p7c1b42e518)" style="fill: none; stroke: #ff7f0e; stroke-width: 1.5; stroke-linecap: square"/>
   </g>
   <g id="line2d_20">
    <path d="M 73.832727 262.345289 
L 76.00433 188.304011 
L 77.090131 200.538026 
L 78.175932 173.521243 
L 79.261733 167.786548 
L 80.347534 168.423736 
L 81.433335 154.023281 
L 82.519137 169.443238 
L 83.604938 153.386093 
L 84.690739 141.789266 
L 85.77654 135.544821 
L 86.862341 133.888131 
L 87.948142 127.388811 
L 89.033943 126.36931 
L 90.119745 124.075432 
L 91.205546 124.330307 
L 92.291347 122.418742 
L 93.377148 118.340737 
L 94.462949 118.595613 
L 95.54875 158.611037 
L 96.634552 142.936205 
L 97.720353 163.581105 
L 98.806154 147.651398 
L 99.891955 146.122146 
L 100.977756 142.68133 
L 103.149358 130.065002 
L 104.23516 130.319877 
L 105.320961 132.741193 
L 106.406762 134.015569 
L 107.492563 122.928493 
L 108.578364 140.005139 
L 109.664165 127.388811 
L 110.749967 123.820557 
L 111.835768 128.280875 
L 112.921569 115.537109 
L 114.00737 118.595613 
L 115.093171 117.830987 
L 116.178972 118.850488 
L 117.264773 116.174297 
L 118.350575 115.919422 
L 119.436376 114.772483 
L 120.522177 109.420102 
L 121.607978 110.821916 
L 122.693779 116.174297 
L 123.77958 109.420102 
L 124.865382 106.998786 
L 125.951183 104.959784 
L 127.036984 106.998786 
L 128.122785 107.635974 
L 129.208586 106.616473 
L 130.294387 105.342097 
L 131.380189 104.959784 
L 132.46599 102.41103 
L 133.551791 103.812845 
L 134.637592 102.283593 
L 135.723393 103.812845 
L 136.809194 105.851847 
L 137.894995 103.048219 
L 138.980797 134.652757 
L 141.152399 121.908992 
L 142.2382 124.20287 
L 143.324001 120.889491 
L 144.409802 133.505819 
L 145.495604 125.222371 
L 146.581405 114.772483 
L 147.667206 119.997427 
L 148.753007 123.438244 
L 149.838808 111.204229 
L 150.924609 120.252302 
L 152.01041 120.252302 
L 153.096212 121.399241 
L 154.182013 112.860918 
L 155.267814 116.938923 
L 156.353615 115.409671 
L 157.439416 117.830987 
L 158.525217 128.790625 
L 159.611019 113.625544 
L 160.69682 113.625544 
L 161.782621 109.420102 
L 162.868422 113.880419 
L 163.954223 122.928493 
L 165.040024 122.036429 
L 166.125825 116.301735 
L 167.211627 114.899921 
L 168.297428 119.997427 
L 169.383229 109.292664 
L 170.46903 114.517608 
L 171.554831 111.331666 
L 172.640632 111.713979 
L 173.726434 106.361598 
L 174.812235 107.89085 
L 175.898036 114.39017 
L 176.983837 106.616473 
L 178.069638 102.665906 
L 179.155439 110.05729 
L 180.24124 107.126224 
L 181.327042 110.694478 
L 182.412843 103.048219 
L 183.498644 104.704908 
L 184.584445 107.253661 
L 185.670246 104.577471 
L 186.756047 104.195158 
L 187.841849 106.106722 
L 188.92765 98.460463 
L 190.013451 105.596972 
L 191.099252 99.73484 
L 192.185053 109.420102 
L 193.270854 100.24459 
L 194.356656 102.156155 
L 195.442457 99.73484 
L 196.528258 101.009216 
L 197.614059 97.695837 
L 198.69986 95.401959 
L 199.785661 98.587901 
L 200.871462 94.637333 
L 201.957264 97.440962 
L 203.043065 96.039148 
L 204.128866 94.25502 
L 205.214667 93.617832 
L 207.386269 95.529397 
L 208.472071 94.764771 
L 209.557872 97.5684 
L 210.643673 92.725769 
L 211.729474 93.74527 
L 212.815275 95.529397 
L 213.901076 90.686766 
L 214.986877 94.127583 
L 216.072679 91.961143 
L 217.15848 90.686766 
L 218.244281 92.343456 
L 219.330082 91.069079 
L 220.415883 91.706267 
L 221.501684 90.814204 
L 222.587486 89.030077 
L 223.673287 91.706267 
L 224.759088 90.559328 
L 225.844889 115.027358 
L 226.93069 114.517608 
L 228.016491 118.595613 
L 229.102292 121.399241 
L 230.188094 121.016928 
L 231.273895 115.537109 
L 232.359696 116.04686 
L 233.445497 111.841417 
L 234.531298 114.517608 
L 235.617099 114.772483 
L 236.702901 106.871348 
L 237.788702 116.684048 
L 238.874503 114.772483 
L 239.960304 114.135295 
L 241.046105 111.331666 
L 242.131906 110.821916 
L 243.217708 116.174297 
L 244.303509 110.56704 
L 245.38931 114.39017 
L 246.475111 120.252302 
L 247.560912 111.968855 
L 248.646713 109.802414 
L 249.732514 107.253661 
L 250.818316 115.664547 
L 251.904117 105.469534 
L 252.989918 112.733481 
L 254.075719 109.420102 
L 256.247321 105.724409 
L 257.333123 112.733481 
L 258.418924 112.478605 
L 259.504725 107.253661 
L 260.590526 110.56704 
L 261.676327 106.23416 
L 262.762128 112.096292 
L 263.847929 102.793343 
L 264.933731 110.184727 
L 266.019532 104.06772 
L 267.105333 101.391529 
L 268.191134 104.195158 
L 269.276935 106.106722 
L 270.362736 104.450033 
L 271.448538 105.087221 
L 272.534339 106.743911 
L 273.62014 107.763412 
L 274.705941 115.282234 
L 275.791742 104.959784 
L 276.877543 101.391529 
L 277.963344 104.195158 
L 279.049146 105.596972 
L 281.220748 102.665906 
L 282.306549 106.489035 
L 283.39235 112.22373 
L 284.478151 101.646405 
L 285.563953 107.253661 
L 286.649754 99.352527 
L 287.735555 104.832346 
L 288.821356 103.430532 
L 289.907157 103.303094 
L 290.992958 99.097651 
L 292.07876 102.538468 
L 293.164561 110.56704 
L 294.250362 98.842776 
L 295.336163 103.048219 
L 296.421964 104.322595 
L 297.507765 104.06772 
L 298.593566 104.195158 
L 299.679368 101.90128 
L 300.765169 99.097651 
L 301.85097 102.283593 
L 302.936771 102.665906 
L 304.022572 100.372028 
L 305.108373 98.970214 
L 306.194175 94.637333 
L 307.279976 98.333025 
L 308.365777 100.754341 
L 309.451578 96.294023 
L 310.537379 99.989715 
L 311.62318 97.440962 
L 312.708981 97.950712 
L 313.794783 98.587901 
L 314.880584 100.499466 
L 315.966385 100.881779 
L 317.052186 102.920781 
L 318.137987 104.195158 
L 319.223788 93.235519 
L 320.30959 94.892209 
L 321.395391 98.587901 
L 322.481192 100.626903 
L 323.566993 89.794702 
L 324.652794 97.313524 
L 325.738595 96.039148 
L 326.824396 99.479964 
L 327.910198 94.000145 
L 328.995999 90.686766 
L 330.0818 101.264092 
L 331.167601 93.872707 
L 332.253402 99.607402 
L 333.339203 91.706267 
L 334.425005 96.548898 
L 335.510806 91.833705 
L 336.596607 93.490395 
L 337.682408 93.490395 
L 338.768209 91.833705 
L 339.85401 93.108082 
L 340.939811 95.529397 
L 342.025613 94.764771 
L 343.111414 89.667265 
L 344.197215 95.401959 
L 345.283016 93.617832 
L 346.368817 92.470893 
L 347.454618 92.08858 
L 348.54042 88.520326 
L 349.626221 94.25502 
L 350.712022 88.775201 
L 351.797823 92.470893 
L 352.883624 89.92214 
L 353.969425 92.343456 
L 355.055227 91.323954 
L 356.141028 86.991074 
L 357.226829 90.686766 
L 358.31263 87.118512 
L 359.398431 87.7557 
L 360.484232 89.92214 
L 361.570033 86.991074 
L 362.655835 85.971573 
L 363.741636 86.353886 
L 364.827437 85.206947 
L 365.913238 88.010575 
L 366.999039 86.991074 
L 368.08484 86.863636 
L 369.170642 87.628262 
L 370.256443 92.216018 
L 371.342244 87.245949 
L 372.428045 90.559328 
L 373.513846 88.647764 
L 374.599647 92.853206 
L 375.685448 88.647764 
L 376.77125 93.74527 
L 377.857051 90.304453 
L 378.942852 89.667265 
L 380.028653 86.353886 
L 381.114454 90.814204 
L 382.200255 87.883138 
L 383.286057 86.481323 
L 384.371858 88.775201 
L 385.457659 90.049578 
L 386.54346 91.706267 
L 387.629261 86.353886 
L 388.715062 90.049578 
L 389.800863 91.961143 
L 390.886665 84.697196 
L 391.972466 87.628262 
L 393.058267 89.030077 
L 394.144068 93.490395 
L 395.229869 92.470893 
L 396.31567 88.138013 
L 397.401472 88.775201 
L 398.487273 88.902639 
L 398.487273 88.902639 
" clip-path="url(#p7c1b42e518)" style="fill: none; stroke: #2ca02c; stroke-width: 1.5; stroke-linecap: square"/>
   </g>
   <g id="line2d_21">
    <path d="M 368.08484 54.122354 
L 369.170642 54.270181 
L 371.342244 54.085397 
L 372.428045 55.00932 
L 373.513846 54.935406 
L 374.599647 53.752785 
L 375.685448 54.196268 
L 376.77125 53.789742 
L 377.857051 54.418009 
L 378.942852 53.752785 
L 380.028653 54.750621 
L 381.114454 53.568 
L 382.200255 54.750621 
L 383.286057 54.344095 
L 384.371858 54.418009 
L 385.457659 54.972363 
L 386.54346 54.270181 
L 387.629261 54.418009 
L 388.715062 55.304975 
L 389.800863 55.563674 
L 390.886665 55.415846 
L 391.972466 54.454966 
L 393.058267 55.194104 
L 394.144068 53.715828 
L 395.229869 54.418009 
L 396.31567 54.085397 
L 397.401472 55.00932 
L 398.487273 53.863655 
L 398.487273 53.863655 
" clip-path="url(#p7c1b42e518)" style="fill: none; stroke: #d62728; stroke-width: 1.5; stroke-linecap: square"/>
   </g>
   <g id="line2d_22">
    <path d="M 368.08484 86.226448 
L 369.170642 86.09901 
L 370.256443 85.58926 
L 371.342244 83.550257 
L 372.428045 86.736199 
L 373.513846 87.118512 
L 374.599647 85.334385 
L 375.685448 85.716697 
L 376.77125 86.863636 
L 377.857051 88.647764 
L 378.942852 82.530756 
L 380.028653 85.971573 
L 381.114454 83.040507 
L 382.200255 86.226448 
L 383.286057 84.187446 
L 384.371858 82.530756 
L 385.457659 84.697196 
L 386.54346 82.913069 
L 387.629261 82.275881 
L 388.715062 84.569759 
L 389.800863 85.461822 
L 390.886665 87.245949 
L 391.972466 86.09901 
L 393.058267 85.334385 
L 394.144068 82.785631 
L 395.229869 82.658194 
L 396.31567 82.913069 
L 397.401472 84.824634 
L 398.487273 82.148443 
L 398.487273 82.148443 
" clip-path="url(#p7c1b42e518)" style="fill: none; stroke: #9467bd; stroke-width: 1.5; stroke-linecap: square"/>
   </g>
   <g id="patch_3">
    <path d="M 57.6 307.584 
L 57.6 41.472 
" style="fill: none; stroke: #000000; stroke-width: 0.8; stroke-linejoin: miter; stroke-linecap: square"/>
   </g>
   <g id="patch_4">
    <path d="M 414.72 307.584 
L 414.72 41.472 
" style="fill: none; stroke: #000000; stroke-width: 0.8; stroke-linejoin: miter; stroke-linecap: square"/>
   </g>
   <g id="patch_5">
    <path d="M 57.6 307.584 
L 414.72 307.584 
" style="fill: none; stroke: #000000; stroke-width: 0.8; stroke-linejoin: miter; stroke-linecap: square"/>
   </g>
   <g id="patch_6">
    <path d="M 57.6 41.472 
L 414.72 41.472 
" style="fill: none; stroke: #000000; stroke-width: 0.8; stroke-linejoin: miter; stroke-linecap: square"/>
   </g>
   <g id="text_20">
    <!-- Learning Curves -->
    <g transform="translate(187.37625 35.472) scale(0.12 -0.12)">
     <defs>
      <path id="DejaVuSans-4c" d="M 628 4666 
L 1259 4666 
L 1259 531 
L 3531 531 
L 3531 0 
L 628 0 
L 628 4666 
z
" transform="scale(0.015625)"/>
      <path id="DejaVuSans-65" d="M 3597 1894 
L 3597 1613 
L 953 1613 
Q 991 1019 1311 708 
Q 1631 397 2203 397 
Q 2534 397 2845 478 
Q 3156 559 3463 722 
L 3463 178 
Q 3153 47 2828 -22 
Q 2503 -91 2169 -91 
Q 1331 -91 842 396 
Q 353 884 353 1716 
Q 353 2575 817 3079 
Q 1281 3584 2069 3584 
Q 2775 3584 3186 3129 
Q 3597 2675 3597 1894 
z
M 3022 2063 
Q 3016 2534 2758 2815 
Q 2500 3097 2075 3097 
Q 1594 3097 1305 2825 
Q 1016 2553 972 2059 
L 3022 2063 
z
" transform="scale(0.015625)"/>
      <path id="DejaVuSans-6e" d="M 3513 2113 
L 3513 0 
L 2938 0 
L 2938 2094 
Q 2938 2591 2744 2837 
Q 2550 3084 2163 3084 
Q 1697 3084 1428 2787 
Q 1159 2491 1159 1978 
L 1159 0 
L 581 0 
L 581 3500 
L 1159 3500 
L 1159 2956 
Q 1366 3272 1645 3428 
Q 1925 3584 2291 3584 
Q 2894 3584 3203 3211 
Q 3513 2838 3513 2113 
z
" transform="scale(0.015625)"/>
      <path id="DejaVuSans-69" d="M 603 3500 
L 1178 3500 
L 1178 0 
L 603 0 
L 603 3500 
z
M 603 4863 
L 1178 4863 
L 1178 4134 
L 603 4134 
L 603 4863 
z
" transform="scale(0.015625)"/>
      <path id="DejaVuSans-67" d="M 2906 1791 
Q 2906 2416 2648 2759 
Q 2391 3103 1925 3103 
Q 1463 3103 1205 2759 
Q 947 2416 947 1791 
Q 947 1169 1205 825 
Q 1463 481 1925 481 
Q 2391 481 2648 825 
Q 2906 1169 2906 1791 
z
M 3481 434 
Q 3481 -459 3084 -895 
Q 2688 -1331 1869 -1331 
Q 1566 -1331 1297 -1286 
Q 1028 -1241 775 -1147 
L 775 -588 
Q 1028 -725 1275 -790 
Q 1522 -856 1778 -856 
Q 2344 -856 2625 -561 
Q 2906 -266 2906 331 
L 2906 616 
Q 2728 306 2450 153 
Q 2172 0 1784 0 
Q 1141 0 747 490 
Q 353 981 353 1791 
Q 353 2603 747 3093 
Q 1141 3584 1784 3584 
Q 2172 3584 2450 3431 
Q 2728 3278 2906 2969 
L 2906 3500 
L 3481 3500 
L 3481 434 
z
" transform="scale(0.015625)"/>
      <path id="DejaVuSans-20" transform="scale(0.015625)"/>
      <path id="DejaVuSans-43" d="M 4122 4306 
L 4122 3641 
Q 3803 3938 3442 4084 
Q 3081 4231 2675 4231 
Q 1875 4231 1450 3742 
Q 1025 3253 1025 2328 
Q 1025 1406 1450 917 
Q 1875 428 2675 428 
Q 3081 428 3442 575 
Q 3803 722 4122 1019 
L 4122 359 
Q 3791 134 3420 21 
Q 3050 -91 2638 -91 
Q 1578 -91 968 557 
Q 359 1206 359 2328 
Q 359 3453 968 4101 
Q 1578 4750 2638 4750 
Q 3056 4750 3426 4639 
Q 3797 4528 4122 4306 
z
" transform="scale(0.015625)"/>
      <path id="DejaVuSans-76" d="M 191 3500 
L 800 3500 
L 1894 563 
L 2988 3500 
L 3597 3500 
L 2284 0 
L 1503 0 
L 191 3500 
z
" transform="scale(0.015625)"/>
     </defs>
     <use xlink:href="#DejaVuSans-4c"/>
     <use xlink:href="#DejaVuSans-65" x="53.962891"/>
     <use xlink:href="#DejaVuSans-61" x="115.486328"/>
     <use xlink:href="#DejaVuSans-72" x="176.765625"/>
     <use xlink:href="#DejaVuSans-6e" x="216.128906"/>
     <use xlink:href="#DejaVuSans-69" x="279.507812"/>
     <use xlink:href="#DejaVuSans-6e" x="307.291016"/>
     <use xlink:href="#DejaVuSans-67" x="370.669922"/>
     <use xlink:href="#DejaVuSans-20" x="434.146484"/>
     <use xlink:href="#DejaVuSans-43" x="465.933594"/>
     <use xlink:href="#DejaVuSans-75" x="535.757812"/>
     <use xlink:href="#DejaVuSans-72" x="599.136719"/>
     <use xlink:href="#DejaVuSans-76" x="640.25"/>
     <use xlink:href="#DejaVuSans-65" x="699.429688"/>
     <use xlink:href="#DejaVuSans-73" x="760.953125"/>
    </g>
   </g>
   <g id="legend_1">
    <g id="patch_7">
     <path d="M 214.18875 302.584 
L 407.72 302.584 
Q 409.72 302.584 409.72 300.584 
L 409.72 228.193375 
Q 409.72 226.193375 407.72 226.193375 
L 214.18875 226.193375 
Q 212.18875 226.193375 212.18875 228.193375 
L 212.18875 300.584 
Q 212.18875 302.584 214.18875 302.584 
z
" style="fill: #ffffff; opacity: 0.8; stroke: #cccccc; stroke-linejoin: miter"/>
    </g>
    <g id="line2d_23">
     <path d="M 216.18875 234.291812 
L 226.18875 234.291812 
L 236.18875 234.291812 
" style="fill: none; stroke: #1f77b4; stroke-width: 1.5; stroke-linecap: square"/>
    </g>
    <g id="text_21">
     <!-- Train Accuracy -->
     <g transform="translate(244.18875 237.791812) scale(0.1 -0.1)">
      <defs>
       <path id="DejaVuSans-54" d="M -19 4666 
L 3928 4666 
L 3928 4134 
L 2272 4134 
L 2272 0 
L 1638 0 
L 1638 4134 
L -19 4134 
L -19 4666 
z
" transform="scale(0.015625)"/>
      </defs>
      <use xlink:href="#DejaVuSans-54"/>
      <use xlink:href="#DejaVuSans-72" x="46.333984"/>
      <use xlink:href="#DejaVuSans-61" x="87.447266"/>
      <use xlink:href="#DejaVuSans-69" x="148.726562"/>
      <use xlink:href="#DejaVuSans-6e" x="176.509766"/>
      <use xlink:href="#DejaVuSans-20" x="239.888672"/>
      <use xlink:href="#DejaVuSans-41" x="271.675781"/>
      <use xlink:href="#DejaVuSans-63" x="338.333984"/>
      <use xlink:href="#DejaVuSans-63" x="393.314453"/>
      <use xlink:href="#DejaVuSans-75" x="448.294922"/>
      <use xlink:href="#DejaVuSans-72" x="511.673828"/>
      <use xlink:href="#DejaVuSans-61" x="552.787109"/>
      <use xlink:href="#DejaVuSans-63" x="614.066406"/>
      <use xlink:href="#DejaVuSans-79" x="669.046875"/>
     </g>
    </g>
    <g id="line2d_24">
     <path d="M 216.18875 248.969937 
L 226.18875 248.969937 
L 236.18875 248.969937 
" style="fill: none; stroke: #ff7f0e; stroke-width: 1.5; stroke-linecap: square"/>
    </g>
    <g id="text_22">
     <!-- Validation Accuracy -->
     <g transform="translate(244.18875 252.469937) scale(0.1 -0.1)">
      <defs>
       <path id="DejaVuSans-56" d="M 1831 0 
L 50 4666 
L 709 4666 
L 2188 738 
L 3669 4666 
L 4325 4666 
L 2547 0 
L 1831 0 
z
" transform="scale(0.015625)"/>
       <path id="DejaVuSans-6c" d="M 603 4863 
L 1178 4863 
L 1178 0 
L 603 0 
L 603 4863 
z
" transform="scale(0.015625)"/>
       <path id="DejaVuSans-64" d="M 2906 2969 
L 2906 4863 
L 3481 4863 
L 3481 0 
L 2906 0 
L 2906 525 
Q 2725 213 2448 61 
Q 2172 -91 1784 -91 
Q 1150 -91 751 415 
Q 353 922 353 1747 
Q 353 2572 751 3078 
Q 1150 3584 1784 3584 
Q 2172 3584 2448 3432 
Q 2725 3281 2906 2969 
z
M 947 1747 
Q 947 1113 1208 752 
Q 1469 391 1925 391 
Q 2381 391 2643 752 
Q 2906 1113 2906 1747 
Q 2906 2381 2643 2742 
Q 2381 3103 1925 3103 
Q 1469 3103 1208 2742 
Q 947 2381 947 1747 
z
" transform="scale(0.015625)"/>
       <path id="DejaVuSans-74" d="M 1172 4494 
L 1172 3500 
L 2356 3500 
L 2356 3053 
L 1172 3053 
L 1172 1153 
Q 1172 725 1289 603 
Q 1406 481 1766 481 
L 2356 481 
L 2356 0 
L 1766 0 
Q 1100 0 847 248 
Q 594 497 594 1153 
L 594 3053 
L 172 3053 
L 172 3500 
L 594 3500 
L 594 4494 
L 1172 4494 
z
" transform="scale(0.015625)"/>
      </defs>
      <use xlink:href="#DejaVuSans-56"/>
      <use xlink:href="#DejaVuSans-61" x="60.658203"/>
      <use xlink:href="#DejaVuSans-6c" x="121.9375"/>
      <use xlink:href="#DejaVuSans-69" x="149.720703"/>
      <use xlink:href="#DejaVuSans-64" x="177.503906"/>
      <use xlink:href="#DejaVuSans-61" x="240.980469"/>
      <use xlink:href="#DejaVuSans-74" x="302.259766"/>
      <use xlink:href="#DejaVuSans-69" x="341.46875"/>
      <use xlink:href="#DejaVuSans-6f" x="369.251953"/>
      <use xlink:href="#DejaVuSans-6e" x="430.433594"/>
      <use xlink:href="#DejaVuSans-20" x="493.8125"/>
      <use xlink:href="#DejaVuSans-41" x="525.599609"/>
      <use xlink:href="#DejaVuSans-63" x="592.257812"/>
      <use xlink:href="#DejaVuSans-63" x="647.238281"/>
      <use xlink:href="#DejaVuSans-75" x="702.21875"/>
      <use xlink:href="#DejaVuSans-72" x="765.597656"/>
      <use xlink:href="#DejaVuSans-61" x="806.710938"/>
      <use xlink:href="#DejaVuSans-63" x="867.990234"/>
      <use xlink:href="#DejaVuSans-79" x="922.970703"/>
     </g>
    </g>
    <g id="line2d_25">
     <path d="M 216.18875 263.648062 
L 226.18875 263.648062 
L 236.18875 263.648062 
" style="fill: none; stroke: #2ca02c; stroke-width: 1.5; stroke-linecap: square"/>
    </g>
    <g id="text_23">
     <!-- Robust Validation Accuracy -->
     <g transform="translate(244.18875 267.148062) scale(0.1 -0.1)">
      <defs>
       <path id="DejaVuSans-52" d="M 2841 2188 
Q 3044 2119 3236 1894 
Q 3428 1669 3622 1275 
L 4263 0 
L 3584 0 
L 2988 1197 
Q 2756 1666 2539 1819 
Q 2322 1972 1947 1972 
L 1259 1972 
L 1259 0 
L 628 0 
L 628 4666 
L 2053 4666 
Q 2853 4666 3247 4331 
Q 3641 3997 3641 3322 
Q 3641 2881 3436 2590 
Q 3231 2300 2841 2188 
z
M 1259 4147 
L 1259 2491 
L 2053 2491 
Q 2509 2491 2742 2702 
Q 2975 2913 2975 3322 
Q 2975 3731 2742 3939 
Q 2509 4147 2053 4147 
L 1259 4147 
z
" transform="scale(0.015625)"/>
       <path id="DejaVuSans-62" d="M 3116 1747 
Q 3116 2381 2855 2742 
Q 2594 3103 2138 3103 
Q 1681 3103 1420 2742 
Q 1159 2381 1159 1747 
Q 1159 1113 1420 752 
Q 1681 391 2138 391 
Q 2594 391 2855 752 
Q 3116 1113 3116 1747 
z
M 1159 2969 
Q 1341 3281 1617 3432 
Q 1894 3584 2278 3584 
Q 2916 3584 3314 3078 
Q 3713 2572 3713 1747 
Q 3713 922 3314 415 
Q 2916 -91 2278 -91 
Q 1894 -91 1617 61 
Q 1341 213 1159 525 
L 1159 0 
L 581 0 
L 581 4863 
L 1159 4863 
L 1159 2969 
z
" transform="scale(0.015625)"/>
      </defs>
      <use xlink:href="#DejaVuSans-52"/>
      <use xlink:href="#DejaVuSans-6f" x="64.982422"/>
      <use xlink:href="#DejaVuSans-62" x="126.164062"/>
      <use xlink:href="#DejaVuSans-75" x="189.640625"/>
      <use xlink:href="#DejaVuSans-73" x="253.019531"/>
      <use xlink:href="#DejaVuSans-74" x="305.119141"/>
      <use xlink:href="#DejaVuSans-20" x="344.328125"/>
      <use xlink:href="#DejaVuSans-56" x="376.115234"/>
      <use xlink:href="#DejaVuSans-61" x="436.773438"/>
      <use xlink:href="#DejaVuSans-6c" x="498.052734"/>
      <use xlink:href="#DejaVuSans-69" x="525.835938"/>
      <use xlink:href="#DejaVuSans-64" x="553.619141"/>
      <use xlink:href="#DejaVuSans-61" x="617.095703"/>
      <use xlink:href="#DejaVuSans-74" x="678.375"/>
      <use xlink:href="#DejaVuSans-69" x="717.583984"/>
      <use xlink:href="#DejaVuSans-6f" x="745.367188"/>
      <use xlink:href="#DejaVuSans-6e" x="806.548828"/>
      <use xlink:href="#DejaVuSans-20" x="869.927734"/>
      <use xlink:href="#DejaVuSans-41" x="901.714844"/>
      <use xlink:href="#DejaVuSans-63" x="968.373047"/>
      <use xlink:href="#DejaVuSans-63" x="1023.353516"/>
      <use xlink:href="#DejaVuSans-75" x="1078.333984"/>
      <use xlink:href="#DejaVuSans-72" x="1141.712891"/>
      <use xlink:href="#DejaVuSans-61" x="1182.826172"/>
      <use xlink:href="#DejaVuSans-63" x="1244.105469"/>
      <use xlink:href="#DejaVuSans-79" x="1299.085938"/>
     </g>
    </g>
    <g id="line2d_26">
     <path d="M 216.18875 278.326188 
L 226.18875 278.326188 
L 236.18875 278.326188 
" style="fill: none; stroke: #d62728; stroke-width: 1.5; stroke-linecap: square"/>
    </g>
    <g id="text_24">
     <!-- SWA Validation Accuracy -->
     <g transform="translate(244.18875 281.826188) scale(0.1 -0.1)">
      <defs>
       <path id="DejaVuSans-53" d="M 3425 4513 
L 3425 3897 
Q 3066 4069 2747 4153 
Q 2428 4238 2131 4238 
Q 1616 4238 1336 4038 
Q 1056 3838 1056 3469 
Q 1056 3159 1242 3001 
Q 1428 2844 1947 2747 
L 2328 2669 
Q 3034 2534 3370 2195 
Q 3706 1856 3706 1288 
Q 3706 609 3251 259 
Q 2797 -91 1919 -91 
Q 1588 -91 1214 -16 
Q 841 59 441 206 
L 441 856 
Q 825 641 1194 531 
Q 1563 422 1919 422 
Q 2459 422 2753 634 
Q 3047 847 3047 1241 
Q 3047 1584 2836 1778 
Q 2625 1972 2144 2069 
L 1759 2144 
Q 1053 2284 737 2584 
Q 422 2884 422 3419 
Q 422 4038 858 4394 
Q 1294 4750 2059 4750 
Q 2388 4750 2728 4690 
Q 3069 4631 3425 4513 
z
" transform="scale(0.015625)"/>
       <path id="DejaVuSans-57" d="M 213 4666 
L 850 4666 
L 1831 722 
L 2809 4666 
L 3519 4666 
L 4500 722 
L 5478 4666 
L 6119 4666 
L 4947 0 
L 4153 0 
L 3169 4050 
L 2175 0 
L 1381 0 
L 213 4666 
z
" transform="scale(0.015625)"/>
      </defs>
      <use xlink:href="#DejaVuSans-53"/>
      <use xlink:href="#DejaVuSans-57" x="63.476562"/>
      <use xlink:href="#DejaVuSans-41" x="156.853516"/>
      <use xlink:href="#DejaVuSans-20" x="225.261719"/>
      <use xlink:href="#DejaVuSans-56" x="257.048828"/>
      <use xlink:href="#DejaVuSans-61" x="317.707031"/>
      <use xlink:href="#DejaVuSans-6c" x="378.986328"/>
      <use xlink:href="#DejaVuSans-69" x="406.769531"/>
      <use xlink:href="#DejaVuSans-64" x="434.552734"/>
      <use xlink:href="#DejaVuSans-61" x="498.029297"/>
      <use xlink:href="#DejaVuSans-74" x="559.308594"/>
      <use xlink:href="#DejaVuSans-69" x="598.517578"/>
      <use xlink:href="#DejaVuSans-6f" x="626.300781"/>
      <use xlink:href="#DejaVuSans-6e" x="687.482422"/>
      <use xlink:href="#DejaVuSans-20" x="750.861328"/>
      <use xlink:href="#DejaVuSans-41" x="782.648438"/>
      <use xlink:href="#DejaVuSans-63" x="849.306641"/>
      <use xlink:href="#DejaVuSans-63" x="904.287109"/>
      <use xlink:href="#DejaVuSans-75" x="959.267578"/>
      <use xlink:href="#DejaVuSans-72" x="1022.646484"/>
      <use xlink:href="#DejaVuSans-61" x="1063.759766"/>
      <use xlink:href="#DejaVuSans-63" x="1125.039062"/>
      <use xlink:href="#DejaVuSans-79" x="1180.019531"/>
     </g>
    </g>
    <g id="line2d_27">
     <path d="M 216.18875 293.004312 
L 226.18875 293.004312 
L 236.18875 293.004312 
" style="fill: none; stroke: #9467bd; stroke-width: 1.5; stroke-linecap: square"/>
    </g>
    <g id="text_25">
     <!-- SWA Robust Validation Accuracy -->
     <g transform="translate(244.18875 296.504312) scale(0.1 -0.1)">
      <use xlink:href="#DejaVuSans-53"/>
      <use xlink:href="#DejaVuSans-57" x="63.476562"/>
      <use xlink:href="#DejaVuSans-41" x="156.853516"/>
      <use xlink:href="#DejaVuSans-20" x="225.261719"/>
      <use xlink:href="#DejaVuSans-52" x="257.048828"/>
      <use xlink:href="#DejaVuSans-6f" x="322.03125"/>
      <use xlink:href="#DejaVuSans-62" x="383.212891"/>
      <use xlink:href="#DejaVuSans-75" x="446.689453"/>
      <use xlink:href="#DejaVuSans-73" x="510.068359"/>
      <use xlink:href="#DejaVuSans-74" x="562.167969"/>
      <use xlink:href="#DejaVuSans-20" x="601.376953"/>
      <use xlink:href="#DejaVuSans-56" x="633.164062"/>
      <use xlink:href="#DejaVuSans-61" x="693.822266"/>
      <use xlink:href="#DejaVuSans-6c" x="755.101562"/>
      <use xlink:href="#DejaVuSans-69" x="782.884766"/>
      <use xlink:href="#DejaVuSans-64" x="810.667969"/>
      <use xlink:href="#DejaVuSans-61" x="874.144531"/>
      <use xlink:href="#DejaVuSans-74" x="935.423828"/>
      <use xlink:href="#DejaVuSans-69" x="974.632812"/>
      <use xlink:href="#DejaVuSans-6f" x="1002.416016"/>
      <use xlink:href="#DejaVuSans-6e" x="1063.597656"/>
      <use xlink:href="#DejaVuSans-20" x="1126.976562"/>
      <use xlink:href="#DejaVuSans-41" x="1158.763672"/>
      <use xlink:href="#DejaVuSans-63" x="1225.421875"/>
      <use xlink:href="#DejaVuSans-63" x="1280.402344"/>
      <use xlink:href="#DejaVuSans-75" x="1335.382812"/>
      <use xlink:href="#DejaVuSans-72" x="1398.761719"/>
      <use xlink:href="#DejaVuSans-61" x="1439.875"/>
      <use xlink:href="#DejaVuSans-63" x="1501.154297"/>
      <use xlink:href="#DejaVuSans-79" x="1556.134766"/>
     </g>
    </g>
   </g>
  </g>
 </g>
 <defs>
  <clipPath id="p7c1b42e518">
   <rect x="57.6" y="41.472" width="357.12" height="266.112"/>
  </clipPath>
 </defs>
</svg>
