<?xml version="1.0" encoding="utf-8" standalone="no"?>
<!DOCTYPE svg PUBLIC "-//W3C//DTD SVG 1.1//EN"
  "http://www.w3.org/Graphics/SVG/1.1/DTD/svg11.dtd">
<svg xmlns:xlink="http://www.w3.org/1999/xlink" width="460.8pt" height="345.6pt" viewBox="0 0 460.8 345.6" xmlns="http://www.w3.org/2000/svg" version="1.1">
 <metadata>
  <rdf:RDF xmlns:dc="http://purl.org/dc/elements/1.1/" xmlns:cc="http://creativecommons.org/ns#" xmlns:rdf="http://www.w3.org/1999/02/22-rdf-syntax-ns#">
   <cc:Work>
    <dc:type rdf:resource="http://purl.org/dc/dcmitype/StillImage"/>
    <dc:date>2025-01-27T20:15:40.967045</dc:date>
    <dc:format>image/svg+xml</dc:format>
    <dc:creator>
     <cc:Agent>
      <dc:title>Matplotlib v3.9.1, https://matplotlib.org/</dc:title>
     </cc:Agent>
    </dc:creator>
   </cc:Work>
  </rdf:RDF>
 </metadata>
 <defs>
  <style type="text/css">*{stroke-linejoin: round; stroke-linecap: butt}</style>
 </defs>
 <g id="figure_1">
  <g id="patch_1">
   <path d="M 0 345.6 
L 460.8 345.6 
L 460.8 0 
L 0 0 
z
" style="fill: #ffffff"/>
  </g>
  <g id="axes_1">
   <g id="patch_2">
    <path d="M 57.6 307.584 
L 414.72 307.584 
L 414.72 41.472 
L 57.6 41.472 
z
" style="fill: #ffffff"/>
   </g>
   <g id="matplotlib.axis_1">
    <g id="xtick_1">
     <g id="line2d_1">
      <defs>
       <path id="m5d07610411" d="M 0 0 
L 0 3.5 
" style="stroke: #000000; stroke-width: 0.8"/>
      </defs>
      <g>
       <use xlink:href="#m5d07610411" x="73.832727" y="307.584" style="stroke: #000000; stroke-width: 0.8"/>
      </g>
     </g>
     <g id="text_1">
      <!-- 1 -->
      <g transform="translate(70.651477 322.182437) scale(0.1 -0.1)">
       <defs>
        <path id="DejaVuSans-31" d="M 794 531 
L 1825 531 
L 1825 4091 
L 703 3866 
L 703 4441 
L 1819 4666 
L 2450 4666 
L 2450 531 
L 3481 531 
L 3481 0 
L 794 0 
L 794 531 
z
" transform="scale(0.015625)"/>
       </defs>
       <use xlink:href="#DejaVuSans-31"/>
      </g>
     </g>
    </g>
    <g id="xtick_2">
     <g id="line2d_2">
      <g>
       <use xlink:href="#m5d07610411" x="109.664165" y="307.584" style="stroke: #000000; stroke-width: 0.8"/>
      </g>
     </g>
     <g id="text_2">
      <!-- 34 -->
      <g transform="translate(103.301665 322.182437) scale(0.1 -0.1)">
       <defs>
        <path id="DejaVuSans-33" d="M 2597 2516 
Q 3050 2419 3304 2112 
Q 3559 1806 3559 1356 
Q 3559 666 3084 287 
Q 2609 -91 1734 -91 
Q 1441 -91 1130 -33 
Q 819 25 488 141 
L 488 750 
Q 750 597 1062 519 
Q 1375 441 1716 441 
Q 2309 441 2620 675 
Q 2931 909 2931 1356 
Q 2931 1769 2642 2001 
Q 2353 2234 1838 2234 
L 1294 2234 
L 1294 2753 
L 1863 2753 
Q 2328 2753 2575 2939 
Q 2822 3125 2822 3475 
Q 2822 3834 2567 4026 
Q 2313 4219 1838 4219 
Q 1578 4219 1281 4162 
Q 984 4106 628 3988 
L 628 4550 
Q 988 4650 1302 4700 
Q 1616 4750 1894 4750 
Q 2613 4750 3031 4423 
Q 3450 4097 3450 3541 
Q 3450 3153 3228 2886 
Q 3006 2619 2597 2516 
z
" transform="scale(0.015625)"/>
        <path id="DejaVuSans-34" d="M 2419 4116 
L 825 1625 
L 2419 1625 
L 2419 4116 
z
M 2253 4666 
L 3047 4666 
L 3047 1625 
L 3713 1625 
L 3713 1100 
L 3047 1100 
L 3047 0 
L 2419 0 
L 2419 1100 
L 313 1100 
L 313 1709 
L 2253 4666 
z
" transform="scale(0.015625)"/>
       </defs>
       <use xlink:href="#DejaVuSans-33"/>
       <use xlink:href="#DejaVuSans-34" x="63.623047"/>
      </g>
     </g>
    </g>
    <g id="xtick_3">
     <g id="line2d_3">
      <g>
       <use xlink:href="#m5d07610411" x="145.495604" y="307.584" style="stroke: #000000; stroke-width: 0.8"/>
      </g>
     </g>
     <g id="text_3">
      <!-- 67 -->
      <g transform="translate(139.133104 322.182437) scale(0.1 -0.1)">
       <defs>
        <path id="DejaVuSans-36" d="M 2113 2584 
Q 1688 2584 1439 2293 
Q 1191 2003 1191 1497 
Q 1191 994 1439 701 
Q 1688 409 2113 409 
Q 2538 409 2786 701 
Q 3034 994 3034 1497 
Q 3034 2003 2786 2293 
Q 2538 2584 2113 2584 
z
M 3366 4563 
L 3366 3988 
Q 3128 4100 2886 4159 
Q 2644 4219 2406 4219 
Q 1781 4219 1451 3797 
Q 1122 3375 1075 2522 
Q 1259 2794 1537 2939 
Q 1816 3084 2150 3084 
Q 2853 3084 3261 2657 
Q 3669 2231 3669 1497 
Q 3669 778 3244 343 
Q 2819 -91 2113 -91 
Q 1303 -91 875 529 
Q 447 1150 447 2328 
Q 447 3434 972 4092 
Q 1497 4750 2381 4750 
Q 2619 4750 2861 4703 
Q 3103 4656 3366 4563 
z
" transform="scale(0.015625)"/>
        <path id="DejaVuSans-37" d="M 525 4666 
L 3525 4666 
L 3525 4397 
L 1831 0 
L 1172 0 
L 2766 4134 
L 525 4134 
L 525 4666 
z
" transform="scale(0.015625)"/>
       </defs>
       <use xlink:href="#DejaVuSans-36"/>
       <use xlink:href="#DejaVuSans-37" x="63.623047"/>
      </g>
     </g>
    </g>
    <g id="xtick_4">
     <g id="line2d_4">
      <g>
       <use xlink:href="#m5d07610411" x="181.327042" y="307.584" style="stroke: #000000; stroke-width: 0.8"/>
      </g>
     </g>
     <g id="text_4">
      <!-- 100 -->
      <g transform="translate(171.783292 322.182437) scale(0.1 -0.1)">
       <defs>
        <path id="DejaVuSans-30" d="M 2034 4250 
Q 1547 4250 1301 3770 
Q 1056 3291 1056 2328 
Q 1056 1369 1301 889 
Q 1547 409 2034 409 
Q 2525 409 2770 889 
Q 3016 1369 3016 2328 
Q 3016 3291 2770 3770 
Q 2525 4250 2034 4250 
z
M 2034 4750 
Q 2819 4750 3233 4129 
Q 3647 3509 3647 2328 
Q 3647 1150 3233 529 
Q 2819 -91 2034 -91 
Q 1250 -91 836 529 
Q 422 1150 422 2328 
Q 422 3509 836 4129 
Q 1250 4750 2034 4750 
z
" transform="scale(0.015625)"/>
       </defs>
       <use xlink:href="#DejaVuSans-31"/>
       <use xlink:href="#DejaVuSans-30" x="63.623047"/>
       <use xlink:href="#DejaVuSans-30" x="127.246094"/>
      </g>
     </g>
    </g>
    <g id="xtick_5">
     <g id="line2d_5">
      <g>
       <use xlink:href="#m5d07610411" x="217.15848" y="307.584" style="stroke: #000000; stroke-width: 0.8"/>
      </g>
     </g>
     <g id="text_5">
      <!-- 133 -->
      <g transform="translate(207.61473 322.182437) scale(0.1 -0.1)">
       <use xlink:href="#DejaVuSans-31"/>
       <use xlink:href="#DejaVuSans-33" x="63.623047"/>
       <use xlink:href="#DejaVuSans-33" x="127.246094"/>
      </g>
     </g>
    </g>
    <g id="xtick_6">
     <g id="line2d_6">
      <g>
       <use xlink:href="#m5d07610411" x="254.075719" y="307.584" style="stroke: #000000; stroke-width: 0.8"/>
      </g>
     </g>
     <g id="text_6">
      <!-- 167 -->
      <g transform="translate(244.531969 322.182437) scale(0.1 -0.1)">
       <use xlink:href="#DejaVuSans-31"/>
       <use xlink:href="#DejaVuSans-36" x="63.623047"/>
       <use xlink:href="#DejaVuSans-37" x="127.246094"/>
      </g>
     </g>
    </g>
    <g id="xtick_7">
     <g id="line2d_7">
      <g>
       <use xlink:href="#m5d07610411" x="289.907157" y="307.584" style="stroke: #000000; stroke-width: 0.8"/>
      </g>
     </g>
     <g id="text_7">
      <!-- 200 -->
      <g transform="translate(280.363407 322.182437) scale(0.1 -0.1)">
       <defs>
        <path id="DejaVuSans-32" d="M 1228 531 
L 3431 531 
L 3431 0 
L 469 0 
L 469 531 
Q 828 903 1448 1529 
Q 2069 2156 2228 2338 
Q 2531 2678 2651 2914 
Q 2772 3150 2772 3378 
Q 2772 3750 2511 3984 
Q 2250 4219 1831 4219 
Q 1534 4219 1204 4116 
Q 875 4013 500 3803 
L 500 4441 
Q 881 4594 1212 4672 
Q 1544 4750 1819 4750 
Q 2544 4750 2975 4387 
Q 3406 4025 3406 3419 
Q 3406 3131 3298 2873 
Q 3191 2616 2906 2266 
Q 2828 2175 2409 1742 
Q 1991 1309 1228 531 
z
" transform="scale(0.015625)"/>
       </defs>
       <use xlink:href="#DejaVuSans-32"/>
       <use xlink:href="#DejaVuSans-30" x="63.623047"/>
       <use xlink:href="#DejaVuSans-30" x="127.246094"/>
      </g>
     </g>
    </g>
    <g id="xtick_8">
     <g id="line2d_8">
      <g>
       <use xlink:href="#m5d07610411" x="325.738595" y="307.584" style="stroke: #000000; stroke-width: 0.8"/>
      </g>
     </g>
     <g id="text_8">
      <!-- 233 -->
      <g transform="translate(316.194845 322.182437) scale(0.1 -0.1)">
       <use xlink:href="#DejaVuSans-32"/>
       <use xlink:href="#DejaVuSans-33" x="63.623047"/>
       <use xlink:href="#DejaVuSans-33" x="127.246094"/>
      </g>
     </g>
    </g>
    <g id="xtick_9">
     <g id="line2d_9">
      <g>
       <use xlink:href="#m5d07610411" x="361.570033" y="307.584" style="stroke: #000000; stroke-width: 0.8"/>
      </g>
     </g>
     <g id="text_9">
      <!-- 266 -->
      <g transform="translate(352.026283 322.182437) scale(0.1 -0.1)">
       <use xlink:href="#DejaVuSans-32"/>
       <use xlink:href="#DejaVuSans-36" x="63.623047"/>
       <use xlink:href="#DejaVuSans-36" x="127.246094"/>
      </g>
     </g>
    </g>
    <g id="xtick_10">
     <g id="line2d_10">
      <g>
       <use xlink:href="#m5d07610411" x="398.487273" y="307.584" style="stroke: #000000; stroke-width: 0.8"/>
      </g>
     </g>
     <g id="text_10">
      <!-- 300 -->
      <g transform="translate(388.943523 322.182437) scale(0.1 -0.1)">
       <use xlink:href="#DejaVuSans-33"/>
       <use xlink:href="#DejaVuSans-30" x="63.623047"/>
       <use xlink:href="#DejaVuSans-30" x="127.246094"/>
      </g>
     </g>
    </g>
    <g id="text_11">
     <!-- Epochs -->
     <g transform="translate(218.244375 335.860562) scale(0.1 -0.1)">
      <defs>
       <path id="DejaVuSans-45" d="M 628 4666 
L 3578 4666 
L 3578 4134 
L 1259 4134 
L 1259 2753 
L 3481 2753 
L 3481 2222 
L 1259 2222 
L 1259 531 
L 3634 531 
L 3634 0 
L 628 0 
L 628 4666 
z
" transform="scale(0.015625)"/>
       <path id="DejaVuSans-70" d="M 1159 525 
L 1159 -1331 
L 581 -1331 
L 581 3500 
L 1159 3500 
L 1159 2969 
Q 1341 3281 1617 3432 
Q 1894 3584 2278 3584 
Q 2916 3584 3314 3078 
Q 3713 2572 3713 1747 
Q 3713 922 3314 415 
Q 2916 -91 2278 -91 
Q 1894 -91 1617 61 
Q 1341 213 1159 525 
z
M 3116 1747 
Q 3116 2381 2855 2742 
Q 2594 3103 2138 3103 
Q 1681 3103 1420 2742 
Q 1159 2381 1159 1747 
Q 1159 1113 1420 752 
Q 1681 391 2138 391 
Q 2594 391 2855 752 
Q 3116 1113 3116 1747 
z
" transform="scale(0.015625)"/>
       <path id="DejaVuSans-6f" d="M 1959 3097 
Q 1497 3097 1228 2736 
Q 959 2375 959 1747 
Q 959 1119 1226 758 
Q 1494 397 1959 397 
Q 2419 397 2687 759 
Q 2956 1122 2956 1747 
Q 2956 2369 2687 2733 
Q 2419 3097 1959 3097 
z
M 1959 3584 
Q 2709 3584 3137 3096 
Q 3566 2609 3566 1747 
Q 3566 888 3137 398 
Q 2709 -91 1959 -91 
Q 1206 -91 779 398 
Q 353 888 353 1747 
Q 353 2609 779 3096 
Q 1206 3584 1959 3584 
z
" transform="scale(0.015625)"/>
       <path id="DejaVuSans-63" d="M 3122 3366 
L 3122 2828 
Q 2878 2963 2633 3030 
Q 2388 3097 2138 3097 
Q 1578 3097 1268 2742 
Q 959 2388 959 1747 
Q 959 1106 1268 751 
Q 1578 397 2138 397 
Q 2388 397 2633 464 
Q 2878 531 3122 666 
L 3122 134 
Q 2881 22 2623 -34 
Q 2366 -91 2075 -91 
Q 1284 -91 818 406 
Q 353 903 353 1747 
Q 353 2603 823 3093 
Q 1294 3584 2113 3584 
Q 2378 3584 2631 3529 
Q 2884 3475 3122 3366 
z
" transform="scale(0.015625)"/>
       <path id="DejaVuSans-68" d="M 3513 2113 
L 3513 0 
L 2938 0 
L 2938 2094 
Q 2938 2591 2744 2837 
Q 2550 3084 2163 3084 
Q 1697 3084 1428 2787 
Q 1159 2491 1159 1978 
L 1159 0 
L 581 0 
L 581 4863 
L 1159 4863 
L 1159 2956 
Q 1366 3272 1645 3428 
Q 1925 3584 2291 3584 
Q 2894 3584 3203 3211 
Q 3513 2838 3513 2113 
z
" transform="scale(0.015625)"/>
       <path id="DejaVuSans-73" d="M 2834 3397 
L 2834 2853 
Q 2591 2978 2328 3040 
Q 2066 3103 1784 3103 
Q 1356 3103 1142 2972 
Q 928 2841 928 2578 
Q 928 2378 1081 2264 
Q 1234 2150 1697 2047 
L 1894 2003 
Q 2506 1872 2764 1633 
Q 3022 1394 3022 966 
Q 3022 478 2636 193 
Q 2250 -91 1575 -91 
Q 1294 -91 989 -36 
Q 684 19 347 128 
L 347 722 
Q 666 556 975 473 
Q 1284 391 1588 391 
Q 1994 391 2212 530 
Q 2431 669 2431 922 
Q 2431 1156 2273 1281 
Q 2116 1406 1581 1522 
L 1381 1569 
Q 847 1681 609 1914 
Q 372 2147 372 2553 
Q 372 3047 722 3315 
Q 1072 3584 1716 3584 
Q 2034 3584 2315 3537 
Q 2597 3491 2834 3397 
z
" transform="scale(0.015625)"/>
      </defs>
      <use xlink:href="#DejaVuSans-45"/>
      <use xlink:href="#DejaVuSans-70" x="63.183594"/>
      <use xlink:href="#DejaVuSans-6f" x="126.660156"/>
      <use xlink:href="#DejaVuSans-63" x="187.841797"/>
      <use xlink:href="#DejaVuSans-68" x="242.822266"/>
      <use xlink:href="#DejaVuSans-73" x="306.201172"/>
     </g>
    </g>
   </g>
   <g id="matplotlib.axis_2">
    <g id="ytick_1">
     <g id="line2d_11">
      <defs>
       <path id="m6320fd39cb" d="M 0 0 
L -3.5 0 
" style="stroke: #000000; stroke-width: 0.8"/>
      </defs>
      <g>
       <use xlink:href="#m6320fd39cb" x="57.6" y="275.213763" style="stroke: #000000; stroke-width: 0.8"/>
      </g>
     </g>
     <g id="text_12">
      <!-- 50 -->
      <g transform="translate(37.875 279.012982) scale(0.1 -0.1)">
       <defs>
        <path id="DejaVuSans-35" d="M 691 4666 
L 3169 4666 
L 3169 4134 
L 1269 4134 
L 1269 2991 
Q 1406 3038 1543 3061 
Q 1681 3084 1819 3084 
Q 2600 3084 3056 2656 
Q 3513 2228 3513 1497 
Q 3513 744 3044 326 
Q 2575 -91 1722 -91 
Q 1428 -91 1123 -41 
Q 819 9 494 109 
L 494 744 
Q 775 591 1075 516 
Q 1375 441 1709 441 
Q 2250 441 2565 725 
Q 2881 1009 2881 1497 
Q 2881 1984 2565 2268 
Q 2250 2553 1709 2553 
Q 1456 2553 1204 2497 
Q 953 2441 691 2322 
L 691 4666 
z
" transform="scale(0.015625)"/>
       </defs>
       <use xlink:href="#DejaVuSans-35"/>
       <use xlink:href="#DejaVuSans-30" x="63.623047"/>
      </g>
     </g>
    </g>
    <g id="ytick_2">
     <g id="line2d_12">
      <g>
       <use xlink:href="#m6320fd39cb" x="57.6" y="230.806448" style="stroke: #000000; stroke-width: 0.8"/>
      </g>
     </g>
     <g id="text_13">
      <!-- 60 -->
      <g transform="translate(37.875 234.605666) scale(0.1 -0.1)">
       <use xlink:href="#DejaVuSans-36"/>
       <use xlink:href="#DejaVuSans-30" x="63.623047"/>
      </g>
     </g>
    </g>
    <g id="ytick_3">
     <g id="line2d_13">
      <g>
       <use xlink:href="#m6320fd39cb" x="57.6" y="186.399132" style="stroke: #000000; stroke-width: 0.8"/>
      </g>
     </g>
     <g id="text_14">
      <!-- 70 -->
      <g transform="translate(37.875 190.198351) scale(0.1 -0.1)">
       <use xlink:href="#DejaVuSans-37"/>
       <use xlink:href="#DejaVuSans-30" x="63.623047"/>
      </g>
     </g>
    </g>
    <g id="ytick_4">
     <g id="line2d_14">
      <g>
       <use xlink:href="#m6320fd39cb" x="57.6" y="141.991816" style="stroke: #000000; stroke-width: 0.8"/>
      </g>
     </g>
     <g id="text_15">
      <!-- 80 -->
      <g transform="translate(37.875 145.791035) scale(0.1 -0.1)">
       <defs>
        <path id="DejaVuSans-38" d="M 2034 2216 
Q 1584 2216 1326 1975 
Q 1069 1734 1069 1313 
Q 1069 891 1326 650 
Q 1584 409 2034 409 
Q 2484 409 2743 651 
Q 3003 894 3003 1313 
Q 3003 1734 2745 1975 
Q 2488 2216 2034 2216 
z
M 1403 2484 
Q 997 2584 770 2862 
Q 544 3141 544 3541 
Q 544 4100 942 4425 
Q 1341 4750 2034 4750 
Q 2731 4750 3128 4425 
Q 3525 4100 3525 3541 
Q 3525 3141 3298 2862 
Q 3072 2584 2669 2484 
Q 3125 2378 3379 2068 
Q 3634 1759 3634 1313 
Q 3634 634 3220 271 
Q 2806 -91 2034 -91 
Q 1263 -91 848 271 
Q 434 634 434 1313 
Q 434 1759 690 2068 
Q 947 2378 1403 2484 
z
M 1172 3481 
Q 1172 3119 1398 2916 
Q 1625 2713 2034 2713 
Q 2441 2713 2670 2916 
Q 2900 3119 2900 3481 
Q 2900 3844 2670 4047 
Q 2441 4250 2034 4250 
Q 1625 4250 1398 4047 
Q 1172 3844 1172 3481 
z
" transform="scale(0.015625)"/>
       </defs>
       <use xlink:href="#DejaVuSans-38"/>
       <use xlink:href="#DejaVuSans-30" x="63.623047"/>
      </g>
     </g>
    </g>
    <g id="ytick_5">
     <g id="line2d_15">
      <g>
       <use xlink:href="#m6320fd39cb" x="57.6" y="97.5845" style="stroke: #000000; stroke-width: 0.8"/>
      </g>
     </g>
     <g id="text_16">
      <!-- 90 -->
      <g transform="translate(37.875 101.383719) scale(0.1 -0.1)">
       <defs>
        <path id="DejaVuSans-39" d="M 703 97 
L 703 672 
Q 941 559 1184 500 
Q 1428 441 1663 441 
Q 2288 441 2617 861 
Q 2947 1281 2994 2138 
Q 2813 1869 2534 1725 
Q 2256 1581 1919 1581 
Q 1219 1581 811 2004 
Q 403 2428 403 3163 
Q 403 3881 828 4315 
Q 1253 4750 1959 4750 
Q 2769 4750 3195 4129 
Q 3622 3509 3622 2328 
Q 3622 1225 3098 567 
Q 2575 -91 1691 -91 
Q 1453 -91 1209 -44 
Q 966 3 703 97 
z
M 1959 2075 
Q 2384 2075 2632 2365 
Q 2881 2656 2881 3163 
Q 2881 3666 2632 3958 
Q 2384 4250 1959 4250 
Q 1534 4250 1286 3958 
Q 1038 3666 1038 3163 
Q 1038 2656 1286 2365 
Q 1534 2075 1959 2075 
z
" transform="scale(0.015625)"/>
       </defs>
       <use xlink:href="#DejaVuSans-39"/>
       <use xlink:href="#DejaVuSans-30" x="63.623047"/>
      </g>
     </g>
    </g>
    <g id="ytick_6">
     <g id="line2d_16">
      <g>
       <use xlink:href="#m6320fd39cb" x="57.6" y="53.177184" style="stroke: #000000; stroke-width: 0.8"/>
      </g>
     </g>
     <g id="text_17">
      <!-- 100 -->
      <g transform="translate(31.5125 56.976403) scale(0.1 -0.1)">
       <use xlink:href="#DejaVuSans-31"/>
       <use xlink:href="#DejaVuSans-30" x="63.623047"/>
       <use xlink:href="#DejaVuSans-30" x="127.246094"/>
      </g>
     </g>
    </g>
    <g id="text_18">
     <!-- Accuracy -->
     <g transform="translate(25.432812 197.356125) rotate(-90) scale(0.1 -0.1)">
      <defs>
       <path id="DejaVuSans-41" d="M 2188 4044 
L 1331 1722 
L 3047 1722 
L 2188 4044 
z
M 1831 4666 
L 2547 4666 
L 4325 0 
L 3669 0 
L 3244 1197 
L 1141 1197 
L 716 0 
L 50 0 
L 1831 4666 
z
" transform="scale(0.015625)"/>
       <path id="DejaVuSans-75" d="M 544 1381 
L 544 3500 
L 1119 3500 
L 1119 1403 
Q 1119 906 1312 657 
Q 1506 409 1894 409 
Q 2359 409 2629 706 
Q 2900 1003 2900 1516 
L 2900 3500 
L 3475 3500 
L 3475 0 
L 2900 0 
L 2900 538 
Q 2691 219 2414 64 
Q 2138 -91 1772 -91 
Q 1169 -91 856 284 
Q 544 659 544 1381 
z
M 1991 3584 
L 1991 3584 
z
" transform="scale(0.015625)"/>
       <path id="DejaVuSans-72" d="M 2631 2963 
Q 2534 3019 2420 3045 
Q 2306 3072 2169 3072 
Q 1681 3072 1420 2755 
Q 1159 2438 1159 1844 
L 1159 0 
L 581 0 
L 581 3500 
L 1159 3500 
L 1159 2956 
Q 1341 3275 1631 3429 
Q 1922 3584 2338 3584 
Q 2397 3584 2469 3576 
Q 2541 3569 2628 3553 
L 2631 2963 
z
" transform="scale(0.015625)"/>
       <path id="DejaVuSans-61" d="M 2194 1759 
Q 1497 1759 1228 1600 
Q 959 1441 959 1056 
Q 959 750 1161 570 
Q 1363 391 1709 391 
Q 2188 391 2477 730 
Q 2766 1069 2766 1631 
L 2766 1759 
L 2194 1759 
z
M 3341 1997 
L 3341 0 
L 2766 0 
L 2766 531 
Q 2569 213 2275 61 
Q 1981 -91 1556 -91 
Q 1019 -91 701 211 
Q 384 513 384 1019 
Q 384 1609 779 1909 
Q 1175 2209 1959 2209 
L 2766 2209 
L 2766 2266 
Q 2766 2663 2505 2880 
Q 2244 3097 1772 3097 
Q 1472 3097 1187 3025 
Q 903 2953 641 2809 
L 641 3341 
Q 956 3463 1253 3523 
Q 1550 3584 1831 3584 
Q 2591 3584 2966 3190 
Q 3341 2797 3341 1997 
z
" transform="scale(0.015625)"/>
       <path id="DejaVuSans-79" d="M 2059 -325 
Q 1816 -950 1584 -1140 
Q 1353 -1331 966 -1331 
L 506 -1331 
L 506 -850 
L 844 -850 
Q 1081 -850 1212 -737 
Q 1344 -625 1503 -206 
L 1606 56 
L 191 3500 
L 800 3500 
L 1894 763 
L 2988 3500 
L 3597 3500 
L 2059 -325 
z
" transform="scale(0.015625)"/>
      </defs>
      <use xlink:href="#DejaVuSans-41"/>
      <use xlink:href="#DejaVuSans-63" x="66.658203"/>
      <use xlink:href="#DejaVuSans-63" x="121.638672"/>
      <use xlink:href="#DejaVuSans-75" x="176.619141"/>
      <use xlink:href="#DejaVuSans-72" x="239.998047"/>
      <use xlink:href="#DejaVuSans-61" x="281.111328"/>
      <use xlink:href="#DejaVuSans-63" x="342.390625"/>
      <use xlink:href="#DejaVuSans-79" x="397.371094"/>
     </g>
    </g>
   </g>
   <g id="line2d_17">
    <path d="M 73.832727 278.580107 
L 74.918528 184.873174 
L 76.00433 148.491791 
L 77.090131 133.161159 
L 78.175932 120.433004 
L 79.261733 111.914999 
L 80.347534 106.141586 
L 82.519137 96.726482 
L 84.690739 88.981227 
L 85.77654 85.108599 
L 87.948142 79.157543 
L 89.033943 75.622437 
L 90.119745 72.655791 
L 91.205546 70.701713 
L 92.291347 69.09404 
L 93.377148 67.948239 
L 94.462949 67.468602 
L 95.54875 93.973008 
L 96.634552 92.756151 
L 97.720353 90.029323 
L 98.806154 88.368357 
L 99.891955 85.392828 
L 100.977756 84.424672 
L 103.149358 80.960624 
L 105.320961 78.384793 
L 106.406762 76.999174 
L 107.492563 76.075428 
L 108.578364 74.307876 
L 109.664165 74.04141 
L 111.835768 71.492227 
L 112.921569 70.630656 
L 114.00737 68.987454 
L 115.093171 68.099236 
L 116.178972 67.495248 
L 117.264773 66.509327 
L 118.350575 64.386488 
L 119.436376 64.226608 
L 120.522177 62.601171 
L 121.607978 62.157062 
L 122.693779 60.709268 
L 123.77958 60.060869 
L 124.865382 59.252591 
L 125.951183 58.302199 
L 127.036984 57.511685 
L 128.122785 57.316277 
L 129.208586 56.658996 
L 132.46599 55.557607 
L 134.637592 55.184556 
L 135.723393 55.28226 
L 136.809194 54.91809 
L 137.894995 54.99803 
L 138.980797 76.377422 
L 140.066598 77.478812 
L 141.152399 75.657966 
L 143.324001 74.219054 
L 145.495604 72.56697 
L 146.581405 72.096214 
L 148.753007 70.85271 
L 149.838808 70.639538 
L 150.924609 70.159901 
L 152.01041 69.227272 
L 153.096212 69.662499 
L 154.182013 68.321291 
L 156.353615 68.07259 
L 162.868422 65.558935 
L 163.954223 65.558935 
L 166.125825 64.626306 
L 167.211627 63.942379 
L 168.297428 63.764735 
L 169.383229 64.022318 
L 170.46903 63.311745 
L 171.554831 63.160748 
L 172.640632 61.570839 
L 173.726434 61.65966 
L 174.812235 62.041594 
L 175.898036 61.86395 
L 176.983837 61.082319 
L 178.069638 59.758875 
L 180.24124 59.989812 
L 181.327042 59.758875 
L 182.412843 58.772954 
L 183.498644 59.279238 
L 184.584445 58.355492 
L 186.756047 57.840326 
L 187.841849 57.076459 
L 188.92765 57.138634 
L 191.099252 56.579057 
L 192.185053 56.436942 
L 194.356656 55.335553 
L 195.442457 55.53096 
L 196.528258 55.415492 
L 197.614059 54.953619 
L 198.69986 54.87368 
L 199.785661 54.553921 
L 200.871462 54.696036 
L 204.128866 54.038755 
L 206.300468 54.003227 
L 207.386269 54.047637 
L 210.643673 53.754526 
L 213.901076 53.674586 
L 216.072679 53.763408 
L 218.244281 53.710115 
L 221.501684 53.612411 
L 222.587486 53.718997 
L 223.673287 53.603529 
L 224.759088 53.621293 
L 225.844889 71.039236 
L 226.93069 74.378933 
L 228.016491 73.153193 
L 229.102292 72.131743 
L 230.188094 70.044432 
L 231.273895 70.417484 
L 232.359696 69.324976 
L 233.445497 68.525581 
L 234.531298 68.534463 
L 235.617099 68.356819 
L 236.702901 67.495248 
L 238.874503 66.829085 
L 239.960304 66.011925 
L 241.046105 66.003043 
L 242.131906 66.678088 
L 243.217708 65.319116 
L 244.303509 64.883889 
L 245.38931 66.091865 
L 246.475111 64.937182 
L 247.560912 64.830596 
L 248.646713 65.13259 
L 249.732514 64.688482 
L 250.818316 64.617424 
L 251.904117 63.595974 
L 254.075719 64.368723 
L 255.16152 64.457545 
L 256.247321 63.57821 
L 257.333123 63.675914 
L 258.418924 62.876518 
L 259.504725 63.400566 
L 260.590526 62.840989 
L 261.676327 63.08969 
L 262.762128 63.178512 
L 263.847929 62.894282 
L 264.933731 62.459056 
L 266.019532 62.521231 
L 267.105333 61.94389 
L 268.191134 61.712953 
L 269.276935 62.370234 
L 270.362736 62.086005 
L 271.448538 62.334705 
L 272.534339 61.375431 
L 273.62014 62.76105 
L 274.705941 61.86395 
L 275.791742 61.277727 
L 276.877543 61.473135 
L 277.963344 61.064555 
L 279.049146 61.375431 
L 283.39235 60.487213 
L 284.478151 60.824736 
L 285.563953 60.789207 
L 286.649754 60.30957 
L 287.735555 59.687818 
L 288.821356 60.158573 
L 289.907157 60.185219 
L 290.992958 59.758875 
L 292.07876 59.590114 
L 293.164561 59.270356 
L 294.250362 59.749993 
L 295.336163 59.048301 
L 296.421964 59.350295 
L 297.507765 59.350295 
L 298.593566 59.154887 
L 299.679368 58.568664 
L 300.765169 58.586428 
L 301.85097 58.399903 
L 302.936771 58.568664 
L 304.022572 58.417667 
L 305.108373 58.915069 
L 306.194175 58.639721 
L 307.279976 58.240023 
L 308.365777 57.6538 
L 309.451578 57.742622 
L 310.537379 58.009087 
L 311.62318 57.138634 
L 312.708981 57.707093 
L 313.794783 57.413981 
L 314.880584 56.854404 
L 315.966385 57.298513 
L 317.052186 57.147516 
L 318.137987 56.499117 
L 319.223788 56.641232 
L 320.30959 56.294827 
L 322.481192 56.365885 
L 323.566993 55.957305 
L 324.652794 56.117184 
L 325.738595 55.992833 
L 326.824396 56.108302 
L 328.995999 55.477667 
L 330.0818 55.761897 
L 331.167601 55.246731 
L 332.253402 55.353317 
L 334.425005 54.855915 
L 335.510806 54.962501 
L 336.596607 54.87368 
L 337.682408 54.429571 
L 338.768209 54.740447 
L 339.85401 54.473982 
L 342.025613 54.536157 
L 346.368817 54.30522 
L 348.54042 54.092048 
L 349.626221 54.118695 
L 351.797823 53.878876 
L 353.969425 53.985462 
L 356.141028 53.710115 
L 357.226829 53.807819 
L 358.31263 53.745643 
L 359.398431 53.807819 
L 360.484232 53.630175 
L 361.570033 53.798937 
L 365.913238 53.576882 
L 368.08484 53.612411 
L 371.342244 53.85223 
L 372.428045 54.18087 
L 373.513846 54.198634 
L 374.599647 54.38516 
L 376.77125 54.367396 
L 378.942852 54.767093 
L 380.028653 54.571686 
L 381.114454 54.607214 
L 382.200255 54.4651 
L 383.286057 54.749329 
L 384.371858 54.829269 
L 385.457659 55.07797 
L 386.54346 54.607214 
L 387.629261 54.882562 
L 388.715062 54.7138 
L 391.972466 54.971383 
L 394.144068 54.66939 
L 395.229869 55.07797 
L 396.31567 54.847033 
L 397.401472 55.157909 
L 398.487273 55.033559 
L 398.487273 55.033559 
" clip-path="url(#p53fddbede3)" style="fill: none; stroke: #1f77b4; stroke-width: 1.5; stroke-linecap: square"/>
   </g>
   <g id="line2d_18">
    <path d="M 73.832727 252.43281 
L 74.918528 195.946705 
L 76.00433 175.563747 
L 77.090131 148.075618 
L 78.175932 140.881633 
L 79.261733 121.608858 
L 80.347534 118.278309 
L 81.433335 123.473965 
L 82.519137 111.750434 
L 83.604938 124.806185 
L 84.690739 104.956115 
L 85.77654 107.975812 
L 86.862341 100.293346 
L 87.948142 99.4052 
L 89.033943 94.342766 
L 91.205546 91.63392 
L 92.291347 92.211215 
L 93.377148 91.056625 
L 94.462949 90.124071 
L 95.54875 114.992168 
L 96.634552 112.594173 
L 97.720353 118.411531 
L 98.806154 110.773473 
L 99.891955 113.659948 
L 100.977756 103.53508 
L 102.063557 99.138756 
L 103.149358 98.472646 
L 104.23516 96.873983 
L 105.320961 97.140427 
L 106.406762 97.229242 
L 107.492563 95.541764 
L 108.578364 96.341095 
L 109.664165 95.053283 
L 110.749967 95.27532 
L 111.835768 92.699695 
L 112.921569 94.253951 
L 114.00737 87.415225 
L 115.093171 90.079664 
L 116.178972 90.346108 
L 117.264773 88.925074 
L 118.350575 86.305042 
L 119.436376 89.14711 
L 120.522177 88.347778 
L 121.607978 91.678327 
L 122.693779 85.283674 
L 123.77958 84.262305 
L 124.865382 82.397198 
L 125.951183 83.818232 
L 127.036984 82.53042 
L 128.122785 82.219569 
L 129.208586 82.619235 
L 130.294387 82.04194 
L 131.380189 81.153793 
L 132.46599 80.576498 
L 133.551791 80.842942 
L 134.637592 80.887349 
L 136.809194 80.576498 
L 137.894995 81.153793 
L 138.980797 116.990497 
L 140.066598 101.492344 
L 141.152399 98.650276 
L 142.2382 99.538422 
L 143.324001 96.563132 
L 145.495604 93.765471 
L 146.581405 95.142098 
L 147.667206 91.323069 
L 148.753007 92.566473 
L 149.838808 96.030244 
L 150.924609 96.91839 
L 152.01041 97.5845 
L 153.096212 94.431581 
L 154.182013 90.568144 
L 155.267814 97.717722 
L 156.353615 89.990849 
L 157.439416 89.502369 
L 158.525217 90.434922 
L 159.611019 94.253951 
L 160.69682 93.010547 
L 161.782621 94.165137 
L 162.868422 88.036927 
L 163.954223 98.561461 
L 165.040024 90.568144 
L 166.125825 88.214557 
L 167.211627 91.500698 
L 168.297428 88.303371 
L 169.383229 88.836259 
L 170.46903 89.191517 
L 171.554831 84.617564 
L 172.640632 85.994191 
L 173.726434 86.971152 
L 174.812235 85.194859 
L 175.898036 86.749115 
L 176.983837 87.637261 
L 178.069638 87.015559 
L 179.155439 85.239266 
L 180.24124 85.772154 
L 181.327042 89.724405 
L 182.412843 82.974493 
L 183.498644 83.507381 
L 184.584445 84.928415 
L 185.670246 84.795193 
L 186.756047 84.972822 
L 187.841849 84.439935 
L 188.92765 82.086347 
L 190.013451 81.198201 
L 191.099252 80.088018 
L 193.270854 81.731088 
L 194.356656 79.865981 
L 195.442457 80.310054 
L 196.528258 79.55513 
L 197.614059 79.510723 
L 198.69986 78.755798 
L 199.785661 80.665313 
L 200.871462 78.977835 
L 201.957264 79.999203 
L 203.043065 79.599537 
L 204.128866 76.979506 
L 205.214667 77.423579 
L 206.300468 78.178503 
L 207.386269 77.334764 
L 208.472071 77.956467 
L 209.557872 76.846284 
L 210.643673 77.645615 
L 211.729474 76.801876 
L 212.815275 76.535432 
L 213.901076 77.112728 
L 214.986877 77.290357 
L 216.072679 77.06832 
L 217.15848 77.645615 
L 218.244281 76.890691 
L 219.330082 76.668654 
L 220.415883 77.556801 
L 221.501684 77.379171 
L 222.587486 77.956467 
L 223.673287 77.467986 
L 224.759088 77.379171 
L 225.844889 99.671644 
L 226.93069 100.426568 
L 228.016491 95.364134 
L 229.102292 94.253951 
L 230.188094 97.850944 
L 231.273895 98.73909 
L 232.359696 88.170149 
L 233.445497 93.543434 
L 234.531298 90.790181 
L 235.617099 90.3017 
L 236.702901 90.701366 
L 237.788702 88.836259 
L 238.874503 90.346108 
L 239.960304 88.65863 
L 241.046105 91.678327 
L 242.131906 101.669973 
L 243.217708 93.45462 
L 244.303509 91.767142 
L 245.38931 89.546776 
L 246.475111 86.882337 
L 247.560912 94.698025 
L 248.646713 89.679998 
L 249.732514 90.656959 
L 250.818316 88.081335 
L 251.904117 88.303371 
L 252.989918 89.058296 
L 254.075719 91.855956 
L 255.16152 89.591183 
L 256.247321 90.47933 
L 257.333123 86.127413 
L 258.418924 89.369147 
L 259.504725 88.65863 
L 260.590526 92.433252 
L 261.676327 88.569815 
L 262.762128 84.173491 
L 263.847929 88.125742 
L 264.933731 88.303371 
L 266.019532 89.369147 
L 267.105333 87.814891 
L 268.191134 89.591183 
L 269.276935 87.859298 
L 270.362736 91.012217 
L 271.448538 89.413554 
L 272.534339 86.571486 
L 273.62014 89.369147 
L 274.705941 84.573157 
L 275.791742 90.3017 
L 276.877543 85.68334 
L 277.963344 84.306713 
L 279.049146 89.946442 
L 280.134947 90.47933 
L 281.220748 86.083005 
L 282.306549 92.211215 
L 283.39235 86.749115 
L 284.478151 84.528749 
L 285.563953 87.104374 
L 286.649754 92.655288 
L 287.735555 85.194859 
L 288.821356 87.681669 
L 289.907157 84.661971 
L 290.992958 86.971152 
L 292.07876 86.482671 
L 293.164561 83.86264 
L 294.250362 86.216227 
L 295.336163 83.551788 
L 297.507765 84.484342 
L 298.593566 84.617564 
L 299.679368 83.68501 
L 300.765169 84.35112 
L 301.85097 81.686681 
L 302.936771 82.974493 
L 304.022572 89.058296 
L 305.108373 83.596196 
L 306.194175 88.481 
L 307.279976 82.219569 
L 308.365777 82.752457 
L 309.451578 86.971152 
L 310.537379 83.19653 
L 311.62318 80.887349 
L 313.794783 83.285344 
L 314.880584 83.018901 
L 315.966385 83.152123 
L 317.052186 81.420237 
L 318.137987 83.285344 
L 319.223788 80.754127 
L 320.30959 81.553459 
L 321.395391 84.040269 
L 322.481192 81.242608 
L 323.566993 82.841271 
L 324.652794 81.420237 
L 325.738595 82.086347 
L 326.824396 81.287015 
L 327.910198 79.865981 
L 328.995999 80.70972 
L 330.0818 82.930086 
L 331.167601 79.55513 
L 332.253402 80.088018 
L 333.339203 79.643945 
L 334.425005 79.777167 
L 335.510806 78.711391 
L 336.596607 78.844613 
L 337.682408 77.778837 
L 338.768209 77.601208 
L 339.85401 78.578169 
L 340.939811 77.423579 
L 344.197215 77.556801 
L 345.283016 78.40054 
L 346.368817 78.134096 
L 347.454618 77.24595 
L 348.54042 77.778837 
L 349.626221 78.444947 
L 350.712022 77.645615 
L 351.797823 77.112728 
L 353.969425 76.402211 
L 355.055227 76.268989 
L 356.141028 75.780508 
L 357.226829 76.979506 
L 358.31263 76.535432 
L 359.398431 76.57984 
L 360.484232 76.935098 
L 361.570033 76.668654 
L 362.655835 75.469657 
L 363.741636 76.046952 
L 365.913238 76.046952 
L 366.999039 75.602879 
L 368.08484 76.402211 
L 369.170642 76.535432 
L 370.256443 75.292028 
L 371.342244 77.690023 
L 373.513846 78.533762 
L 374.599647 77.956467 
L 375.685448 78.444947 
L 376.77125 78.178503 
L 377.857051 79.599537 
L 378.942852 77.512393 
L 380.028653 78.444947 
L 381.114454 78.755798 
L 382.200255 79.421908 
L 383.286057 80.487684 
L 384.371858 79.865981 
L 385.457659 79.688352 
L 386.54346 78.267318 
L 387.629261 80.620906 
L 388.715062 81.37583 
L 389.800863 81.509052 
L 390.886665 79.377501 
L 391.972466 79.421908 
L 393.058267 80.265647 
L 394.144068 80.620906 
L 395.229869 80.398869 
L 396.31567 78.533762 
L 397.401472 78.311725 
L 398.487273 79.288686 
L 398.487273 79.288686 
" clip-path="url(#p53fddbede3)" style="fill: none; stroke: #ff7f0e; stroke-width: 1.5; stroke-linecap: square"/>
   </g>
   <g id="line2d_19">
    <path d="M 73.832727 295.488 
L 74.918528 259.533387 
L 76.00433 248.079362 
L 77.090131 257.757094 
L 80.347534 212.492258 
L 81.433335 226.916979 
L 82.519137 210.164702 
L 83.604938 234.114027 
L 84.690739 225.661324 
L 85.77654 225.079435 
L 86.862341 202.56952 
L 89.033943 209.67469 
L 90.119745 201.099485 
L 91.205546 203.396415 
L 92.291347 195.096841 
L 93.377148 197.638777 
L 94.462949 196.444373 
L 95.54875 234.052776 
L 96.634552 233.501512 
L 97.720353 234.420284 
L 98.806154 233.348384 
L 99.891955 225.232564 
L 100.977756 215.034194 
L 102.063557 218.770534 
L 103.149358 221.496224 
L 104.23516 213.870416 
L 105.320961 204.100807 
L 106.406762 216.93299 
L 107.492563 207.102129 
L 108.578364 211.512235 
L 109.664165 221.588101 
L 110.749967 217.36175 
L 111.835768 209.490936 
L 112.921569 216.749235 
L 114.00737 193.626805 
L 115.093171 199.506946 
L 116.178972 201.283239 
L 117.264773 197.638777 
L 118.350575 205.203333 
L 119.436376 204.713321 
L 120.522177 200.670724 
L 121.607978 205.999602 
L 122.693779 205.723971 
L 123.77958 194.116817 
L 124.865382 193.381799 
L 125.951183 194.147443 
L 127.036984 197.393771 
L 128.122785 197.210016 
L 129.208586 189.308577 
L 131.380189 193.044916 
L 132.46599 192.340524 
L 133.551791 193.749308 
L 134.637592 193.81056 
L 136.809194 195.341846 
L 137.894995 195.158092 
L 138.980797 244.986163 
L 140.066598 223.088762 
L 141.152399 213.686662 
L 142.2382 210.930346 
L 143.324001 217.024867 
L 144.409802 210.287205 
L 145.495604 212.002246 
L 146.581405 218.923662 
L 147.667206 209.368433 
L 148.753007 205.356462 
L 149.838808 219.566803 
L 150.924609 204.835824 
L 152.01041 206.949 
L 153.096212 223.027511 
L 154.182013 205.570842 
L 155.267814 218.035516 
L 156.353615 208.174029 
L 157.439416 199.843829 
L 158.525217 221.833107 
L 159.611019 227.100734 
L 160.69682 224.068786 
L 161.782621 207.684018 
L 163.954223 213.962293 
L 165.040024 211.940995 
L 166.125825 201.466993 
L 167.211627 206.581491 
L 168.297428 200.91573 
L 169.383229 194.606829 
L 170.46903 202.906403 
L 171.554831 191.72801 
L 172.640632 196.934385 
L 173.726434 208.725293 
L 174.812235 204.529567 
L 176.983837 210.042199 
L 178.069638 207.469637 
L 179.155439 202.508268 
L 180.24124 208.174029 
L 181.327042 212.216626 
L 182.412843 185.48036 
L 183.498644 196.781256 
L 184.584445 199.170063 
L 185.670246 197.179391 
L 186.756047 193.565554 
L 187.841849 194.208694 
L 188.92765 201.436368 
L 190.013451 190.533606 
L 191.099252 194.790583 
L 192.185053 197.393771 
L 193.270854 199.353818 
L 195.442457 185.755991 
L 196.528258 191.084869 
L 197.614059 189.798588 
L 198.69986 196.842507 
L 199.785661 187.195401 
L 200.871462 187.34853 
L 201.957264 184.775968 
L 203.043065 189.369828 
L 204.128866 184.500336 
L 205.214667 185.48036 
L 206.300468 184.898471 
L 207.386269 187.042272 
L 208.472071 183.39781 
L 209.557872 187.317904 
L 210.643673 183.520313 
L 211.729474 187.869167 
L 212.815275 180.518991 
L 213.901076 184.010324 
L 214.986877 183.275307 
L 216.072679 184.990348 
L 217.15848 184.316582 
L 218.244281 183.214055 
L 219.330082 183.887822 
L 220.415883 186.950395 
L 221.501684 183.489687 
L 222.587486 185.939746 
L 223.673287 186.1235 
L 224.759088 185.082225 
L 225.844889 216.228598 
L 226.93069 230.193933 
L 228.016491 227.468242 
L 229.102292 223.731903 
L 230.188094 213.62541 
L 231.273895 225.783827 
L 232.359696 215.034194 
L 233.445497 227.590745 
L 234.531298 226.610722 
L 236.702901 207.408386 
L 237.788702 212.186001 
L 238.874503 218.035516 
L 239.960304 201.803877 
L 241.046105 207.439012 
L 242.131906 233.134003 
L 243.217708 223.670651 
L 244.303509 222.476248 
L 245.38931 211.818492 
L 246.475111 208.020901 
L 247.560912 211.971621 
L 248.646713 226.54947 
L 249.732514 222.353745 
L 251.904117 202.110134 
L 252.989918 213.686662 
L 254.075719 203.580169 
L 255.16152 214.574808 
L 256.247321 221.036838 
L 257.333123 210.072825 
L 258.418924 204.529567 
L 259.504725 220.148692 
L 260.590526 218.678657 
L 261.676327 201.313865 
L 262.762128 206.979626 
L 263.847929 200.180713 
L 264.933731 202.324514 
L 266.019532 196.995636 
L 267.105333 220.516201 
L 268.191134 204.192684 
L 269.276935 220.516201 
L 270.362736 224.558798 
L 272.534339 209.980948 
L 273.62014 206.122105 
L 274.705941 206.887749 
L 275.791742 210.348457 
L 276.877543 203.549543 
L 277.963344 191.483004 
L 279.049146 214.697311 
L 281.220748 200.976982 
L 282.306549 217.606756 
L 283.39235 201.711999 
L 284.478151 198.006285 
L 285.563953 208.327158 
L 286.649754 204.988953 
L 287.735555 204.376438 
L 288.821356 207.806521 
L 289.907157 203.518918 
L 290.992958 204.345813 
L 292.07876 196.658753 
L 293.164561 199.506946 
L 294.250362 194.269946 
L 295.336163 199.108812 
L 296.421964 201.038233 
L 297.507765 208.204655 
L 298.593566 204.345813 
L 299.679368 204.774573 
L 300.765169 195.525601 
L 301.85097 200.762602 
L 302.936771 196.291244 
L 304.022572 219.22992 
L 305.108373 206.489614 
L 306.194175 215.095446 
L 307.279976 198.281917 
L 308.365777 188.726688 
L 309.451578 216.841112 
L 310.537379 199.996958 
L 311.62318 186.1235 
L 312.708981 203.396415 
L 314.880584 192.646782 
L 315.966385 198.006285 
L 317.052186 202.202011 
L 318.137987 189.492331 
L 319.223788 199.108812 
L 320.30959 201.834502 
L 321.395391 207.37776 
L 322.481192 202.508268 
L 323.566993 205.356462 
L 324.652794 200.395093 
L 325.738595 192.769285 
L 326.824396 188.542933 
L 327.910198 194.698706 
L 328.995999 198.251291 
L 330.0818 188.512308 
L 331.167601 192.769285 
L 332.253402 195.556227 
L 333.339203 190.380477 
L 334.425005 190.012969 
L 335.510806 195.219343 
L 336.596607 189.063571 
L 337.682408 192.983665 
L 338.768209 188.083547 
L 339.85401 188.787939 
L 340.939811 194.514952 
L 342.025613 189.461705 
L 343.111414 190.043594 
L 344.197215 186.1235 
L 345.283016 188.083547 
L 346.368817 189.400454 
L 347.454618 194.576203 
L 348.54042 187.164775 
L 349.626221 185.878494 
L 350.712022 189.124822 
L 351.797823 184.561588 
L 352.883624 192.218021 
L 353.969425 183.918447 
L 355.055227 185.143477 
L 356.141028 180.978377 
L 357.226829 188.236676 
L 358.31263 188.696062 
L 359.398431 187.99167 
L 360.484232 186.429758 
L 361.570033 189.921091 
L 362.655835 186.1235 
L 363.741636 189.767963 
L 364.827437 190.043594 
L 365.913238 186.154126 
L 366.999039 189.032945 
L 368.08484 184.377833 
L 369.170642 188.696062 
L 370.256443 185.939746 
L 371.342244 189.308577 
L 372.428045 185.69474 
L 373.513846 191.054244 
L 374.599647 190.778612 
L 375.685448 199.660075 
L 376.77125 195.923735 
L 377.857051 190.411103 
L 378.942852 187.746664 
L 380.028653 187.164775 
L 381.114454 184.714716 
L 382.200255 201.405742 
L 383.286057 196.720004 
L 384.371858 203.917052 
L 385.457659 180.151482 
L 386.54346 193.504302 
L 387.629261 191.207372 
L 388.715062 181.621517 
L 389.800863 194.545577 
L 390.886665 193.994314 
L 391.972466 191.054244 
L 393.058267 196.444373 
L 394.144068 192.708033 
L 395.229869 183.581564 
L 396.31567 193.749308 
L 397.401472 190.104846 
L 398.487273 184.745342 
L 398.487273 184.745342 
" clip-path="url(#p53fddbede3)" style="fill: none; stroke: #2ca02c; stroke-width: 1.5; stroke-linecap: square"/>
   </g>
   <g id="line2d_20">
    <path d="M 368.08484 75.292028 
L 369.170642 75.069991 
L 370.256443 74.981176 
L 371.342244 74.181845 
L 372.428045 73.60455 
L 373.513846 75.336435 
L 374.599647 74.403881 
L 375.685448 73.648957 
L 376.77125 73.870994 
L 377.857051 75.514064 
L 378.942852 73.826586 
L 380.028653 76.846284 
L 381.114454 75.514064 
L 382.200255 75.780508 
L 383.286057 75.824915 
L 384.371858 75.203213 
L 385.457659 78.311725 
L 386.54346 78.311725 
L 387.629261 76.046952 
L 388.715062 77.112728 
L 389.800863 76.535432 
L 390.886665 77.512393 
L 391.972466 77.201542 
L 393.058267 77.379171 
L 394.144068 79.022242 
L 395.229869 77.823245 
L 396.31567 77.201542 
L 397.401472 77.06832 
L 398.487273 77.645615 
L 398.487273 77.645615 
" clip-path="url(#p53fddbede3)" style="fill: none; stroke: #d62728; stroke-width: 1.5; stroke-linecap: square"/>
   </g>
   <g id="line2d_21">
    <path d="M 368.08484 183.520313 
L 369.170642 185.602863 
L 370.256443 183.979699 
L 371.342244 179.998353 
L 372.428045 178.987704 
L 373.513846 178.558944 
L 374.599647 177.609546 
L 375.685448 178.589569 
L 376.77125 177.946429 
L 377.857051 178.191435 
L 378.942852 177.211411 
L 380.028653 178.834575 
L 381.114454 179.140833 
L 382.200255 175.312616 
L 383.286057 181.713394 
L 384.371858 178.467066 
L 385.457659 181.52964 
L 386.54346 188.941068 
L 387.629261 181.407137 
L 388.715062 182.050277 
L 389.800863 181.621517 
L 390.886665 179.048955 
L 391.972466 177.854552 
L 393.058267 175.465744 
L 394.144068 184.439085 
L 395.229869 177.15016 
L 396.31567 177.242037 
L 397.401472 179.66147 
L 398.487273 178.160809 
L 398.487273 178.160809 
" clip-path="url(#p53fddbede3)" style="fill: none; stroke: #9467bd; stroke-width: 1.5; stroke-linecap: square"/>
   </g>
   <g id="patch_3">
    <path d="M 57.6 307.584 
L 57.6 41.472 
" style="fill: none; stroke: #000000; stroke-width: 0.8; stroke-linejoin: miter; stroke-linecap: square"/>
   </g>
   <g id="patch_4">
    <path d="M 414.72 307.584 
L 414.72 41.472 
" style="fill: none; stroke: #000000; stroke-width: 0.8; stroke-linejoin: miter; stroke-linecap: square"/>
   </g>
   <g id="patch_5">
    <path d="M 57.6 307.584 
L 414.72 307.584 
" style="fill: none; stroke: #000000; stroke-width: 0.8; stroke-linejoin: miter; stroke-linecap: square"/>
   </g>
   <g id="patch_6">
    <path d="M 57.6 41.472 
L 414.72 41.472 
" style="fill: none; stroke: #000000; stroke-width: 0.8; stroke-linejoin: miter; stroke-linecap: square"/>
   </g>
   <g id="text_19">
    <!-- Learning Curves -->
    <g transform="translate(187.37625 35.472) scale(0.12 -0.12)">
     <defs>
      <path id="DejaVuSans-4c" d="M 628 4666 
L 1259 4666 
L 1259 531 
L 3531 531 
L 3531 0 
L 628 0 
L 628 4666 
z
" transform="scale(0.015625)"/>
      <path id="DejaVuSans-65" d="M 3597 1894 
L 3597 1613 
L 953 1613 
Q 991 1019 1311 708 
Q 1631 397 2203 397 
Q 2534 397 2845 478 
Q 3156 559 3463 722 
L 3463 178 
Q 3153 47 2828 -22 
Q 2503 -91 2169 -91 
Q 1331 -91 842 396 
Q 353 884 353 1716 
Q 353 2575 817 3079 
Q 1281 3584 2069 3584 
Q 2775 3584 3186 3129 
Q 3597 2675 3597 1894 
z
M 3022 2063 
Q 3016 2534 2758 2815 
Q 2500 3097 2075 3097 
Q 1594 3097 1305 2825 
Q 1016 2553 972 2059 
L 3022 2063 
z
" transform="scale(0.015625)"/>
      <path id="DejaVuSans-6e" d="M 3513 2113 
L 3513 0 
L 2938 0 
L 2938 2094 
Q 2938 2591 2744 2837 
Q 2550 3084 2163 3084 
Q 1697 3084 1428 2787 
Q 1159 2491 1159 1978 
L 1159 0 
L 581 0 
L 581 3500 
L 1159 3500 
L 1159 2956 
Q 1366 3272 1645 3428 
Q 1925 3584 2291 3584 
Q 2894 3584 3203 3211 
Q 3513 2838 3513 2113 
z
" transform="scale(0.015625)"/>
      <path id="DejaVuSans-69" d="M 603 3500 
L 1178 3500 
L 1178 0 
L 603 0 
L 603 3500 
z
M 603 4863 
L 1178 4863 
L 1178 4134 
L 603 4134 
L 603 4863 
z
" transform="scale(0.015625)"/>
      <path id="DejaVuSans-67" d="M 2906 1791 
Q 2906 2416 2648 2759 
Q 2391 3103 1925 3103 
Q 1463 3103 1205 2759 
Q 947 2416 947 1791 
Q 947 1169 1205 825 
Q 1463 481 1925 481 
Q 2391 481 2648 825 
Q 2906 1169 2906 1791 
z
M 3481 434 
Q 3481 -459 3084 -895 
Q 2688 -1331 1869 -1331 
Q 1566 -1331 1297 -1286 
Q 1028 -1241 775 -1147 
L 775 -588 
Q 1028 -725 1275 -790 
Q 1522 -856 1778 -856 
Q 2344 -856 2625 -561 
Q 2906 -266 2906 331 
L 2906 616 
Q 2728 306 2450 153 
Q 2172 0 1784 0 
Q 1141 0 747 490 
Q 353 981 353 1791 
Q 353 2603 747 3093 
Q 1141 3584 1784 3584 
Q 2172 3584 2450 3431 
Q 2728 3278 2906 2969 
L 2906 3500 
L 3481 3500 
L 3481 434 
z
" transform="scale(0.015625)"/>
      <path id="DejaVuSans-20" transform="scale(0.015625)"/>
      <path id="DejaVuSans-43" d="M 4122 4306 
L 4122 3641 
Q 3803 3938 3442 4084 
Q 3081 4231 2675 4231 
Q 1875 4231 1450 3742 
Q 1025 3253 1025 2328 
Q 1025 1406 1450 917 
Q 1875 428 2675 428 
Q 3081 428 3442 575 
Q 3803 722 4122 1019 
L 4122 359 
Q 3791 134 3420 21 
Q 3050 -91 2638 -91 
Q 1578 -91 968 557 
Q 359 1206 359 2328 
Q 359 3453 968 4101 
Q 1578 4750 2638 4750 
Q 3056 4750 3426 4639 
Q 3797 4528 4122 4306 
z
" transform="scale(0.015625)"/>
      <path id="DejaVuSans-76" d="M 191 3500 
L 800 3500 
L 1894 563 
L 2988 3500 
L 3597 3500 
L 2284 0 
L 1503 0 
L 191 3500 
z
" transform="scale(0.015625)"/>
     </defs>
     <use xlink:href="#DejaVuSans-4c"/>
     <use xlink:href="#DejaVuSans-65" x="53.962891"/>
     <use xlink:href="#DejaVuSans-61" x="115.486328"/>
     <use xlink:href="#DejaVuSans-72" x="176.765625"/>
     <use xlink:href="#DejaVuSans-6e" x="216.128906"/>
     <use xlink:href="#DejaVuSans-69" x="279.507812"/>
     <use xlink:href="#DejaVuSans-6e" x="307.291016"/>
     <use xlink:href="#DejaVuSans-67" x="370.669922"/>
     <use xlink:href="#DejaVuSans-20" x="434.146484"/>
     <use xlink:href="#DejaVuSans-43" x="465.933594"/>
     <use xlink:href="#DejaVuSans-75" x="535.757812"/>
     <use xlink:href="#DejaVuSans-72" x="599.136719"/>
     <use xlink:href="#DejaVuSans-76" x="640.25"/>
     <use xlink:href="#DejaVuSans-65" x="699.429688"/>
     <use xlink:href="#DejaVuSans-73" x="760.953125"/>
    </g>
   </g>
   <g id="legend_1">
    <g id="patch_7">
     <path d="M 214.18875 302.584 
L 407.72 302.584 
Q 409.72 302.584 409.72 300.584 
L 409.72 228.193375 
Q 409.72 226.193375 407.72 226.193375 
L 214.18875 226.193375 
Q 212.18875 226.193375 212.18875 228.193375 
L 212.18875 300.584 
Q 212.18875 302.584 214.18875 302.584 
z
" style="fill: #ffffff; opacity: 0.8; stroke: #cccccc; stroke-linejoin: miter"/>
    </g>
    <g id="line2d_22">
     <path d="M 216.18875 234.291812 
L 226.18875 234.291812 
L 236.18875 234.291812 
" style="fill: none; stroke: #1f77b4; stroke-width: 1.5; stroke-linecap: square"/>
    </g>
    <g id="text_20">
     <!-- Train Accuracy -->
     <g transform="translate(244.18875 237.791812) scale(0.1 -0.1)">
      <defs>
       <path id="DejaVuSans-54" d="M -19 4666 
L 3928 4666 
L 3928 4134 
L 2272 4134 
L 2272 0 
L 1638 0 
L 1638 4134 
L -19 4134 
L -19 4666 
z
" transform="scale(0.015625)"/>
      </defs>
      <use xlink:href="#DejaVuSans-54"/>
      <use xlink:href="#DejaVuSans-72" x="46.333984"/>
      <use xlink:href="#DejaVuSans-61" x="87.447266"/>
      <use xlink:href="#DejaVuSans-69" x="148.726562"/>
      <use xlink:href="#DejaVuSans-6e" x="176.509766"/>
      <use xlink:href="#DejaVuSans-20" x="239.888672"/>
      <use xlink:href="#DejaVuSans-41" x="271.675781"/>
      <use xlink:href="#DejaVuSans-63" x="338.333984"/>
      <use xlink:href="#DejaVuSans-63" x="393.314453"/>
      <use xlink:href="#DejaVuSans-75" x="448.294922"/>
      <use xlink:href="#DejaVuSans-72" x="511.673828"/>
      <use xlink:href="#DejaVuSans-61" x="552.787109"/>
      <use xlink:href="#DejaVuSans-63" x="614.066406"/>
      <use xlink:href="#DejaVuSans-79" x="669.046875"/>
     </g>
    </g>
    <g id="line2d_23">
     <path d="M 216.18875 248.969937 
L 226.18875 248.969937 
L 236.18875 248.969937 
" style="fill: none; stroke: #ff7f0e; stroke-width: 1.5; stroke-linecap: square"/>
    </g>
    <g id="text_21">
     <!-- Validation Accuracy -->
     <g transform="translate(244.18875 252.469937) scale(0.1 -0.1)">
      <defs>
       <path id="DejaVuSans-56" d="M 1831 0 
L 50 4666 
L 709 4666 
L 2188 738 
L 3669 4666 
L 4325 4666 
L 2547 0 
L 1831 0 
z
" transform="scale(0.015625)"/>
       <path id="DejaVuSans-6c" d="M 603 4863 
L 1178 4863 
L 1178 0 
L 603 0 
L 603 4863 
z
" transform="scale(0.015625)"/>
       <path id="DejaVuSans-64" d="M 2906 2969 
L 2906 4863 
L 3481 4863 
L 3481 0 
L 2906 0 
L 2906 525 
Q 2725 213 2448 61 
Q 2172 -91 1784 -91 
Q 1150 -91 751 415 
Q 353 922 353 1747 
Q 353 2572 751 3078 
Q 1150 3584 1784 3584 
Q 2172 3584 2448 3432 
Q 2725 3281 2906 2969 
z
M 947 1747 
Q 947 1113 1208 752 
Q 1469 391 1925 391 
Q 2381 391 2643 752 
Q 2906 1113 2906 1747 
Q 2906 2381 2643 2742 
Q 2381 3103 1925 3103 
Q 1469 3103 1208 2742 
Q 947 2381 947 1747 
z
" transform="scale(0.015625)"/>
       <path id="DejaVuSans-74" d="M 1172 4494 
L 1172 3500 
L 2356 3500 
L 2356 3053 
L 1172 3053 
L 1172 1153 
Q 1172 725 1289 603 
Q 1406 481 1766 481 
L 2356 481 
L 2356 0 
L 1766 0 
Q 1100 0 847 248 
Q 594 497 594 1153 
L 594 3053 
L 172 3053 
L 172 3500 
L 594 3500 
L 594 4494 
L 1172 4494 
z
" transform="scale(0.015625)"/>
      </defs>
      <use xlink:href="#DejaVuSans-56"/>
      <use xlink:href="#DejaVuSans-61" x="60.658203"/>
      <use xlink:href="#DejaVuSans-6c" x="121.9375"/>
      <use xlink:href="#DejaVuSans-69" x="149.720703"/>
      <use xlink:href="#DejaVuSans-64" x="177.503906"/>
      <use xlink:href="#DejaVuSans-61" x="240.980469"/>
      <use xlink:href="#DejaVuSans-74" x="302.259766"/>
      <use xlink:href="#DejaVuSans-69" x="341.46875"/>
      <use xlink:href="#DejaVuSans-6f" x="369.251953"/>
      <use xlink:href="#DejaVuSans-6e" x="430.433594"/>
      <use xlink:href="#DejaVuSans-20" x="493.8125"/>
      <use xlink:href="#DejaVuSans-41" x="525.599609"/>
      <use xlink:href="#DejaVuSans-63" x="592.257812"/>
      <use xlink:href="#DejaVuSans-63" x="647.238281"/>
      <use xlink:href="#DejaVuSans-75" x="702.21875"/>
      <use xlink:href="#DejaVuSans-72" x="765.597656"/>
      <use xlink:href="#DejaVuSans-61" x="806.710938"/>
      <use xlink:href="#DejaVuSans-63" x="867.990234"/>
      <use xlink:href="#DejaVuSans-79" x="922.970703"/>
     </g>
    </g>
    <g id="line2d_24">
     <path d="M 216.18875 263.648062 
L 226.18875 263.648062 
L 236.18875 263.648062 
" style="fill: none; stroke: #2ca02c; stroke-width: 1.5; stroke-linecap: square"/>
    </g>
    <g id="text_22">
     <!-- Robust Validation Accuracy -->
     <g transform="translate(244.18875 267.148062) scale(0.1 -0.1)">
      <defs>
       <path id="DejaVuSans-52" d="M 2841 2188 
Q 3044 2119 3236 1894 
Q 3428 1669 3622 1275 
L 4263 0 
L 3584 0 
L 2988 1197 
Q 2756 1666 2539 1819 
Q 2322 1972 1947 1972 
L 1259 1972 
L 1259 0 
L 628 0 
L 628 4666 
L 2053 4666 
Q 2853 4666 3247 4331 
Q 3641 3997 3641 3322 
Q 3641 2881 3436 2590 
Q 3231 2300 2841 2188 
z
M 1259 4147 
L 1259 2491 
L 2053 2491 
Q 2509 2491 2742 2702 
Q 2975 2913 2975 3322 
Q 2975 3731 2742 3939 
Q 2509 4147 2053 4147 
L 1259 4147 
z
" transform="scale(0.015625)"/>
       <path id="DejaVuSans-62" d="M 3116 1747 
Q 3116 2381 2855 2742 
Q 2594 3103 2138 3103 
Q 1681 3103 1420 2742 
Q 1159 2381 1159 1747 
Q 1159 1113 1420 752 
Q 1681 391 2138 391 
Q 2594 391 2855 752 
Q 3116 1113 3116 1747 
z
M 1159 2969 
Q 1341 3281 1617 3432 
Q 1894 3584 2278 3584 
Q 2916 3584 3314 3078 
Q 3713 2572 3713 1747 
Q 3713 922 3314 415 
Q 2916 -91 2278 -91 
Q 1894 -91 1617 61 
Q 1341 213 1159 525 
L 1159 0 
L 581 0 
L 581 4863 
L 1159 4863 
L 1159 2969 
z
" transform="scale(0.015625)"/>
      </defs>
      <use xlink:href="#DejaVuSans-52"/>
      <use xlink:href="#DejaVuSans-6f" x="64.982422"/>
      <use xlink:href="#DejaVuSans-62" x="126.164062"/>
      <use xlink:href="#DejaVuSans-75" x="189.640625"/>
      <use xlink:href="#DejaVuSans-73" x="253.019531"/>
      <use xlink:href="#DejaVuSans-74" x="305.119141"/>
      <use xlink:href="#DejaVuSans-20" x="344.328125"/>
      <use xlink:href="#DejaVuSans-56" x="376.115234"/>
      <use xlink:href="#DejaVuSans-61" x="436.773438"/>
      <use xlink:href="#DejaVuSans-6c" x="498.052734"/>
      <use xlink:href="#DejaVuSans-69" x="525.835938"/>
      <use xlink:href="#DejaVuSans-64" x="553.619141"/>
      <use xlink:href="#DejaVuSans-61" x="617.095703"/>
      <use xlink:href="#DejaVuSans-74" x="678.375"/>
      <use xlink:href="#DejaVuSans-69" x="717.583984"/>
      <use xlink:href="#DejaVuSans-6f" x="745.367188"/>
      <use xlink:href="#DejaVuSans-6e" x="806.548828"/>
      <use xlink:href="#DejaVuSans-20" x="869.927734"/>
      <use xlink:href="#DejaVuSans-41" x="901.714844"/>
      <use xlink:href="#DejaVuSans-63" x="968.373047"/>
      <use xlink:href="#DejaVuSans-63" x="1023.353516"/>
      <use xlink:href="#DejaVuSans-75" x="1078.333984"/>
      <use xlink:href="#DejaVuSans-72" x="1141.712891"/>
      <use xlink:href="#DejaVuSans-61" x="1182.826172"/>
      <use xlink:href="#DejaVuSans-63" x="1244.105469"/>
      <use xlink:href="#DejaVuSans-79" x="1299.085938"/>
     </g>
    </g>
    <g id="line2d_25">
     <path d="M 216.18875 278.326188 
L 226.18875 278.326188 
L 236.18875 278.326188 
" style="fill: none; stroke: #d62728; stroke-width: 1.5; stroke-linecap: square"/>
    </g>
    <g id="text_23">
     <!-- SWA Validation Accuracy -->
     <g transform="translate(244.18875 281.826188) scale(0.1 -0.1)">
      <defs>
       <path id="DejaVuSans-53" d="M 3425 4513 
L 3425 3897 
Q 3066 4069 2747 4153 
Q 2428 4238 2131 4238 
Q 1616 4238 1336 4038 
Q 1056 3838 1056 3469 
Q 1056 3159 1242 3001 
Q 1428 2844 1947 2747 
L 2328 2669 
Q 3034 2534 3370 2195 
Q 3706 1856 3706 1288 
Q 3706 609 3251 259 
Q 2797 -91 1919 -91 
Q 1588 -91 1214 -16 
Q 841 59 441 206 
L 441 856 
Q 825 641 1194 531 
Q 1563 422 1919 422 
Q 2459 422 2753 634 
Q 3047 847 3047 1241 
Q 3047 1584 2836 1778 
Q 2625 1972 2144 2069 
L 1759 2144 
Q 1053 2284 737 2584 
Q 422 2884 422 3419 
Q 422 4038 858 4394 
Q 1294 4750 2059 4750 
Q 2388 4750 2728 4690 
Q 3069 4631 3425 4513 
z
" transform="scale(0.015625)"/>
       <path id="DejaVuSans-57" d="M 213 4666 
L 850 4666 
L 1831 722 
L 2809 4666 
L 3519 4666 
L 4500 722 
L 5478 4666 
L 6119 4666 
L 4947 0 
L 4153 0 
L 3169 4050 
L 2175 0 
L 1381 0 
L 213 4666 
z
" transform="scale(0.015625)"/>
      </defs>
      <use xlink:href="#DejaVuSans-53"/>
      <use xlink:href="#DejaVuSans-57" x="63.476562"/>
      <use xlink:href="#DejaVuSans-41" x="156.853516"/>
      <use xlink:href="#DejaVuSans-20" x="225.261719"/>
      <use xlink:href="#DejaVuSans-56" x="257.048828"/>
      <use xlink:href="#DejaVuSans-61" x="317.707031"/>
      <use xlink:href="#DejaVuSans-6c" x="378.986328"/>
      <use xlink:href="#DejaVuSans-69" x="406.769531"/>
      <use xlink:href="#DejaVuSans-64" x="434.552734"/>
      <use xlink:href="#DejaVuSans-61" x="498.029297"/>
      <use xlink:href="#DejaVuSans-74" x="559.308594"/>
      <use xlink:href="#DejaVuSans-69" x="598.517578"/>
      <use xlink:href="#DejaVuSans-6f" x="626.300781"/>
      <use xlink:href="#DejaVuSans-6e" x="687.482422"/>
      <use xlink:href="#DejaVuSans-20" x="750.861328"/>
      <use xlink:href="#DejaVuSans-41" x="782.648438"/>
      <use xlink:href="#DejaVuSans-63" x="849.306641"/>
      <use xlink:href="#DejaVuSans-63" x="904.287109"/>
      <use xlink:href="#DejaVuSans-75" x="959.267578"/>
      <use xlink:href="#DejaVuSans-72" x="1022.646484"/>
      <use xlink:href="#DejaVuSans-61" x="1063.759766"/>
      <use xlink:href="#DejaVuSans-63" x="1125.039062"/>
      <use xlink:href="#DejaVuSans-79" x="1180.019531"/>
     </g>
    </g>
    <g id="line2d_26">
     <path d="M 216.18875 293.004312 
L 226.18875 293.004312 
L 236.18875 293.004312 
" style="fill: none; stroke: #9467bd; stroke-width: 1.5; stroke-linecap: square"/>
    </g>
    <g id="text_24">
     <!-- SWA Robust Validation Accuracy -->
     <g transform="translate(244.18875 296.504312) scale(0.1 -0.1)">
      <use xlink:href="#DejaVuSans-53"/>
      <use xlink:href="#DejaVuSans-57" x="63.476562"/>
      <use xlink:href="#DejaVuSans-41" x="156.853516"/>
      <use xlink:href="#DejaVuSans-20" x="225.261719"/>
      <use xlink:href="#DejaVuSans-52" x="257.048828"/>
      <use xlink:href="#DejaVuSans-6f" x="322.03125"/>
      <use xlink:href="#DejaVuSans-62" x="383.212891"/>
      <use xlink:href="#DejaVuSans-75" x="446.689453"/>
      <use xlink:href="#DejaVuSans-73" x="510.068359"/>
      <use xlink:href="#DejaVuSans-74" x="562.167969"/>
      <use xlink:href="#DejaVuSans-20" x="601.376953"/>
      <use xlink:href="#DejaVuSans-56" x="633.164062"/>
      <use xlink:href="#DejaVuSans-61" x="693.822266"/>
      <use xlink:href="#DejaVuSans-6c" x="755.101562"/>
      <use xlink:href="#DejaVuSans-69" x="782.884766"/>
      <use xlink:href="#DejaVuSans-64" x="810.667969"/>
      <use xlink:href="#DejaVuSans-61" x="874.144531"/>
      <use xlink:href="#DejaVuSans-74" x="935.423828"/>
      <use xlink:href="#DejaVuSans-69" x="974.632812"/>
      <use xlink:href="#DejaVuSans-6f" x="1002.416016"/>
      <use xlink:href="#DejaVuSans-6e" x="1063.597656"/>
      <use xlink:href="#DejaVuSans-20" x="1126.976562"/>
      <use xlink:href="#DejaVuSans-41" x="1158.763672"/>
      <use xlink:href="#DejaVuSans-63" x="1225.421875"/>
      <use xlink:href="#DejaVuSans-63" x="1280.402344"/>
      <use xlink:href="#DejaVuSans-75" x="1335.382812"/>
      <use xlink:href="#DejaVuSans-72" x="1398.761719"/>
      <use xlink:href="#DejaVuSans-61" x="1439.875"/>
      <use xlink:href="#DejaVuSans-63" x="1501.154297"/>
      <use xlink:href="#DejaVuSans-79" x="1556.134766"/>
     </g>
    </g>
   </g>
  </g>
 </g>
 <defs>
  <clipPath id="p53fddbede3">
   <rect x="57.6" y="41.472" width="357.12" height="266.112"/>
  </clipPath>
 </defs>
</svg>
