<?xml version="1.0" encoding="utf-8" standalone="no"?>
<!DOCTYPE svg PUBLIC "-//W3C//DTD SVG 1.1//EN"
  "http://www.w3.org/Graphics/SVG/1.1/DTD/svg11.dtd">
<svg xmlns:xlink="http://www.w3.org/1999/xlink" width="460.8pt" height="345.6pt" viewBox="0 0 460.8 345.6" xmlns="http://www.w3.org/2000/svg" version="1.1">
 <metadata>
  <rdf:RDF xmlns:dc="http://purl.org/dc/elements/1.1/" xmlns:cc="http://creativecommons.org/ns#" xmlns:rdf="http://www.w3.org/1999/02/22-rdf-syntax-ns#">
   <cc:Work>
    <dc:type rdf:resource="http://purl.org/dc/dcmitype/StillImage"/>
    <dc:date>2025-01-15T10:05:37.539317</dc:date>
    <dc:format>image/svg+xml</dc:format>
    <dc:creator>
     <cc:Agent>
      <dc:title>Matplotlib v3.9.1, https://matplotlib.org/</dc:title>
     </cc:Agent>
    </dc:creator>
   </cc:Work>
  </rdf:RDF>
 </metadata>
 <defs>
  <style type="text/css">*{stroke-linejoin: round; stroke-linecap: butt}</style>
 </defs>
 <g id="figure_1">
  <g id="patch_1">
   <path d="M 0 345.6 
L 460.8 345.6 
L 460.8 0 
L 0 0 
z
" style="fill: #ffffff"/>
  </g>
  <g id="axes_1">
   <g id="patch_2">
    <path d="M 57.6 307.584 
L 414.72 307.584 
L 414.72 41.472 
L 57.6 41.472 
z
" style="fill: #ffffff"/>
   </g>
   <g id="matplotlib.axis_1">
    <g id="xtick_1">
     <g id="line2d_1">
      <defs>
       <path id="me8ab3b0601" d="M 0 0 
L 0 3.5 
" style="stroke: #000000; stroke-width: 0.8"/>
      </defs>
      <g>
       <use xlink:href="#me8ab3b0601" x="73.832727" y="307.584" style="stroke: #000000; stroke-width: 0.8"/>
      </g>
     </g>
     <g id="text_1">
      <!-- 1 -->
      <g transform="translate(70.651477 322.182437) scale(0.1 -0.1)">
       <defs>
        <path id="DejaVuSans-31" d="M 794 531 
L 1825 531 
L 1825 4091 
L 703 3866 
L 703 4441 
L 1819 4666 
L 2450 4666 
L 2450 531 
L 3481 531 
L 3481 0 
L 794 0 
L 794 531 
z
" transform="scale(0.015625)"/>
       </defs>
       <use xlink:href="#DejaVuSans-31"/>
      </g>
     </g>
    </g>
    <g id="xtick_2">
     <g id="line2d_2">
      <g>
       <use xlink:href="#me8ab3b0601" x="109.664165" y="307.584" style="stroke: #000000; stroke-width: 0.8"/>
      </g>
     </g>
     <g id="text_2">
      <!-- 34 -->
      <g transform="translate(103.301665 322.182437) scale(0.1 -0.1)">
       <defs>
        <path id="DejaVuSans-33" d="M 2597 2516 
Q 3050 2419 3304 2112 
Q 3559 1806 3559 1356 
Q 3559 666 3084 287 
Q 2609 -91 1734 -91 
Q 1441 -91 1130 -33 
Q 819 25 488 141 
L 488 750 
Q 750 597 1062 519 
Q 1375 441 1716 441 
Q 2309 441 2620 675 
Q 2931 909 2931 1356 
Q 2931 1769 2642 2001 
Q 2353 2234 1838 2234 
L 1294 2234 
L 1294 2753 
L 1863 2753 
Q 2328 2753 2575 2939 
Q 2822 3125 2822 3475 
Q 2822 3834 2567 4026 
Q 2313 4219 1838 4219 
Q 1578 4219 1281 4162 
Q 984 4106 628 3988 
L 628 4550 
Q 988 4650 1302 4700 
Q 1616 4750 1894 4750 
Q 2613 4750 3031 4423 
Q 3450 4097 3450 3541 
Q 3450 3153 3228 2886 
Q 3006 2619 2597 2516 
z
" transform="scale(0.015625)"/>
        <path id="DejaVuSans-34" d="M 2419 4116 
L 825 1625 
L 2419 1625 
L 2419 4116 
z
M 2253 4666 
L 3047 4666 
L 3047 1625 
L 3713 1625 
L 3713 1100 
L 3047 1100 
L 3047 0 
L 2419 0 
L 2419 1100 
L 313 1100 
L 313 1709 
L 2253 4666 
z
" transform="scale(0.015625)"/>
       </defs>
       <use xlink:href="#DejaVuSans-33"/>
       <use xlink:href="#DejaVuSans-34" x="63.623047"/>
      </g>
     </g>
    </g>
    <g id="xtick_3">
     <g id="line2d_3">
      <g>
       <use xlink:href="#me8ab3b0601" x="145.495604" y="307.584" style="stroke: #000000; stroke-width: 0.8"/>
      </g>
     </g>
     <g id="text_3">
      <!-- 67 -->
      <g transform="translate(139.133104 322.182437) scale(0.1 -0.1)">
       <defs>
        <path id="DejaVuSans-36" d="M 2113 2584 
Q 1688 2584 1439 2293 
Q 1191 2003 1191 1497 
Q 1191 994 1439 701 
Q 1688 409 2113 409 
Q 2538 409 2786 701 
Q 3034 994 3034 1497 
Q 3034 2003 2786 2293 
Q 2538 2584 2113 2584 
z
M 3366 4563 
L 3366 3988 
Q 3128 4100 2886 4159 
Q 2644 4219 2406 4219 
Q 1781 4219 1451 3797 
Q 1122 3375 1075 2522 
Q 1259 2794 1537 2939 
Q 1816 3084 2150 3084 
Q 2853 3084 3261 2657 
Q 3669 2231 3669 1497 
Q 3669 778 3244 343 
Q 2819 -91 2113 -91 
Q 1303 -91 875 529 
Q 447 1150 447 2328 
Q 447 3434 972 4092 
Q 1497 4750 2381 4750 
Q 2619 4750 2861 4703 
Q 3103 4656 3366 4563 
z
" transform="scale(0.015625)"/>
        <path id="DejaVuSans-37" d="M 525 4666 
L 3525 4666 
L 3525 4397 
L 1831 0 
L 1172 0 
L 2766 4134 
L 525 4134 
L 525 4666 
z
" transform="scale(0.015625)"/>
       </defs>
       <use xlink:href="#DejaVuSans-36"/>
       <use xlink:href="#DejaVuSans-37" x="63.623047"/>
      </g>
     </g>
    </g>
    <g id="xtick_4">
     <g id="line2d_4">
      <g>
       <use xlink:href="#me8ab3b0601" x="181.327042" y="307.584" style="stroke: #000000; stroke-width: 0.8"/>
      </g>
     </g>
     <g id="text_4">
      <!-- 100 -->
      <g transform="translate(171.783292 322.182437) scale(0.1 -0.1)">
       <defs>
        <path id="DejaVuSans-30" d="M 2034 4250 
Q 1547 4250 1301 3770 
Q 1056 3291 1056 2328 
Q 1056 1369 1301 889 
Q 1547 409 2034 409 
Q 2525 409 2770 889 
Q 3016 1369 3016 2328 
Q 3016 3291 2770 3770 
Q 2525 4250 2034 4250 
z
M 2034 4750 
Q 2819 4750 3233 4129 
Q 3647 3509 3647 2328 
Q 3647 1150 3233 529 
Q 2819 -91 2034 -91 
Q 1250 -91 836 529 
Q 422 1150 422 2328 
Q 422 3509 836 4129 
Q 1250 4750 2034 4750 
z
" transform="scale(0.015625)"/>
       </defs>
       <use xlink:href="#DejaVuSans-31"/>
       <use xlink:href="#DejaVuSans-30" x="63.623047"/>
       <use xlink:href="#DejaVuSans-30" x="127.246094"/>
      </g>
     </g>
    </g>
    <g id="xtick_5">
     <g id="line2d_5">
      <g>
       <use xlink:href="#me8ab3b0601" x="217.15848" y="307.584" style="stroke: #000000; stroke-width: 0.8"/>
      </g>
     </g>
     <g id="text_5">
      <!-- 133 -->
      <g transform="translate(207.61473 322.182437) scale(0.1 -0.1)">
       <use xlink:href="#DejaVuSans-31"/>
       <use xlink:href="#DejaVuSans-33" x="63.623047"/>
       <use xlink:href="#DejaVuSans-33" x="127.246094"/>
      </g>
     </g>
    </g>
    <g id="xtick_6">
     <g id="line2d_6">
      <g>
       <use xlink:href="#me8ab3b0601" x="254.075719" y="307.584" style="stroke: #000000; stroke-width: 0.8"/>
      </g>
     </g>
     <g id="text_6">
      <!-- 167 -->
      <g transform="translate(244.531969 322.182437) scale(0.1 -0.1)">
       <use xlink:href="#DejaVuSans-31"/>
       <use xlink:href="#DejaVuSans-36" x="63.623047"/>
       <use xlink:href="#DejaVuSans-37" x="127.246094"/>
      </g>
     </g>
    </g>
    <g id="xtick_7">
     <g id="line2d_7">
      <g>
       <use xlink:href="#me8ab3b0601" x="289.907157" y="307.584" style="stroke: #000000; stroke-width: 0.8"/>
      </g>
     </g>
     <g id="text_7">
      <!-- 200 -->
      <g transform="translate(280.363407 322.182437) scale(0.1 -0.1)">
       <defs>
        <path id="DejaVuSans-32" d="M 1228 531 
L 3431 531 
L 3431 0 
L 469 0 
L 469 531 
Q 828 903 1448 1529 
Q 2069 2156 2228 2338 
Q 2531 2678 2651 2914 
Q 2772 3150 2772 3378 
Q 2772 3750 2511 3984 
Q 2250 4219 1831 4219 
Q 1534 4219 1204 4116 
Q 875 4013 500 3803 
L 500 4441 
Q 881 4594 1212 4672 
Q 1544 4750 1819 4750 
Q 2544 4750 2975 4387 
Q 3406 4025 3406 3419 
Q 3406 3131 3298 2873 
Q 3191 2616 2906 2266 
Q 2828 2175 2409 1742 
Q 1991 1309 1228 531 
z
" transform="scale(0.015625)"/>
       </defs>
       <use xlink:href="#DejaVuSans-32"/>
       <use xlink:href="#DejaVuSans-30" x="63.623047"/>
       <use xlink:href="#DejaVuSans-30" x="127.246094"/>
      </g>
     </g>
    </g>
    <g id="xtick_8">
     <g id="line2d_8">
      <g>
       <use xlink:href="#me8ab3b0601" x="325.738595" y="307.584" style="stroke: #000000; stroke-width: 0.8"/>
      </g>
     </g>
     <g id="text_8">
      <!-- 233 -->
      <g transform="translate(316.194845 322.182437) scale(0.1 -0.1)">
       <use xlink:href="#DejaVuSans-32"/>
       <use xlink:href="#DejaVuSans-33" x="63.623047"/>
       <use xlink:href="#DejaVuSans-33" x="127.246094"/>
      </g>
     </g>
    </g>
    <g id="xtick_9">
     <g id="line2d_9">
      <g>
       <use xlink:href="#me8ab3b0601" x="361.570033" y="307.584" style="stroke: #000000; stroke-width: 0.8"/>
      </g>
     </g>
     <g id="text_9">
      <!-- 266 -->
      <g transform="translate(352.026283 322.182437) scale(0.1 -0.1)">
       <use xlink:href="#DejaVuSans-32"/>
       <use xlink:href="#DejaVuSans-36" x="63.623047"/>
       <use xlink:href="#DejaVuSans-36" x="127.246094"/>
      </g>
     </g>
    </g>
    <g id="xtick_10">
     <g id="line2d_10">
      <g>
       <use xlink:href="#me8ab3b0601" x="398.487273" y="307.584" style="stroke: #000000; stroke-width: 0.8"/>
      </g>
     </g>
     <g id="text_10">
      <!-- 300 -->
      <g transform="translate(388.943523 322.182437) scale(0.1 -0.1)">
       <use xlink:href="#DejaVuSans-33"/>
       <use xlink:href="#DejaVuSans-30" x="63.623047"/>
       <use xlink:href="#DejaVuSans-30" x="127.246094"/>
      </g>
     </g>
    </g>
    <g id="text_11">
     <!-- Epochs -->
     <g transform="translate(218.244375 335.860562) scale(0.1 -0.1)">
      <defs>
       <path id="DejaVuSans-45" d="M 628 4666 
L 3578 4666 
L 3578 4134 
L 1259 4134 
L 1259 2753 
L 3481 2753 
L 3481 2222 
L 1259 2222 
L 1259 531 
L 3634 531 
L 3634 0 
L 628 0 
L 628 4666 
z
" transform="scale(0.015625)"/>
       <path id="DejaVuSans-70" d="M 1159 525 
L 1159 -1331 
L 581 -1331 
L 581 3500 
L 1159 3500 
L 1159 2969 
Q 1341 3281 1617 3432 
Q 1894 3584 2278 3584 
Q 2916 3584 3314 3078 
Q 3713 2572 3713 1747 
Q 3713 922 3314 415 
Q 2916 -91 2278 -91 
Q 1894 -91 1617 61 
Q 1341 213 1159 525 
z
M 3116 1747 
Q 3116 2381 2855 2742 
Q 2594 3103 2138 3103 
Q 1681 3103 1420 2742 
Q 1159 2381 1159 1747 
Q 1159 1113 1420 752 
Q 1681 391 2138 391 
Q 2594 391 2855 752 
Q 3116 1113 3116 1747 
z
" transform="scale(0.015625)"/>
       <path id="DejaVuSans-6f" d="M 1959 3097 
Q 1497 3097 1228 2736 
Q 959 2375 959 1747 
Q 959 1119 1226 758 
Q 1494 397 1959 397 
Q 2419 397 2687 759 
Q 2956 1122 2956 1747 
Q 2956 2369 2687 2733 
Q 2419 3097 1959 3097 
z
M 1959 3584 
Q 2709 3584 3137 3096 
Q 3566 2609 3566 1747 
Q 3566 888 3137 398 
Q 2709 -91 1959 -91 
Q 1206 -91 779 398 
Q 353 888 353 1747 
Q 353 2609 779 3096 
Q 1206 3584 1959 3584 
z
" transform="scale(0.015625)"/>
       <path id="DejaVuSans-63" d="M 3122 3366 
L 3122 2828 
Q 2878 2963 2633 3030 
Q 2388 3097 2138 3097 
Q 1578 3097 1268 2742 
Q 959 2388 959 1747 
Q 959 1106 1268 751 
Q 1578 397 2138 397 
Q 2388 397 2633 464 
Q 2878 531 3122 666 
L 3122 134 
Q 2881 22 2623 -34 
Q 2366 -91 2075 -91 
Q 1284 -91 818 406 
Q 353 903 353 1747 
Q 353 2603 823 3093 
Q 1294 3584 2113 3584 
Q 2378 3584 2631 3529 
Q 2884 3475 3122 3366 
z
" transform="scale(0.015625)"/>
       <path id="DejaVuSans-68" d="M 3513 2113 
L 3513 0 
L 2938 0 
L 2938 2094 
Q 2938 2591 2744 2837 
Q 2550 3084 2163 3084 
Q 1697 3084 1428 2787 
Q 1159 2491 1159 1978 
L 1159 0 
L 581 0 
L 581 4863 
L 1159 4863 
L 1159 2956 
Q 1366 3272 1645 3428 
Q 1925 3584 2291 3584 
Q 2894 3584 3203 3211 
Q 3513 2838 3513 2113 
z
" transform="scale(0.015625)"/>
       <path id="DejaVuSans-73" d="M 2834 3397 
L 2834 2853 
Q 2591 2978 2328 3040 
Q 2066 3103 1784 3103 
Q 1356 3103 1142 2972 
Q 928 2841 928 2578 
Q 928 2378 1081 2264 
Q 1234 2150 1697 2047 
L 1894 2003 
Q 2506 1872 2764 1633 
Q 3022 1394 3022 966 
Q 3022 478 2636 193 
Q 2250 -91 1575 -91 
Q 1294 -91 989 -36 
Q 684 19 347 128 
L 347 722 
Q 666 556 975 473 
Q 1284 391 1588 391 
Q 1994 391 2212 530 
Q 2431 669 2431 922 
Q 2431 1156 2273 1281 
Q 2116 1406 1581 1522 
L 1381 1569 
Q 847 1681 609 1914 
Q 372 2147 372 2553 
Q 372 3047 722 3315 
Q 1072 3584 1716 3584 
Q 2034 3584 2315 3537 
Q 2597 3491 2834 3397 
z
" transform="scale(0.015625)"/>
      </defs>
      <use xlink:href="#DejaVuSans-45"/>
      <use xlink:href="#DejaVuSans-70" x="63.183594"/>
      <use xlink:href="#DejaVuSans-6f" x="126.660156"/>
      <use xlink:href="#DejaVuSans-63" x="187.841797"/>
      <use xlink:href="#DejaVuSans-68" x="242.822266"/>
      <use xlink:href="#DejaVuSans-73" x="306.201172"/>
     </g>
    </g>
   </g>
   <g id="matplotlib.axis_2">
    <g id="ytick_1">
     <g id="line2d_11">
      <defs>
       <path id="m2c7a6aeda2" d="M 0 0 
L -3.5 0 
" style="stroke: #000000; stroke-width: 0.8"/>
      </defs>
      <g>
       <use xlink:href="#m2c7a6aeda2" x="57.6" y="306.594623" style="stroke: #000000; stroke-width: 0.8"/>
      </g>
     </g>
     <g id="text_12">
      <!-- 30 -->
      <g transform="translate(37.875 310.393842) scale(0.1 -0.1)">
       <use xlink:href="#DejaVuSans-33"/>
       <use xlink:href="#DejaVuSans-30" x="63.623047"/>
      </g>
     </g>
    </g>
    <g id="ytick_2">
     <g id="line2d_12">
      <g>
       <use xlink:href="#m2c7a6aeda2" x="57.6" y="268.522606" style="stroke: #000000; stroke-width: 0.8"/>
      </g>
     </g>
     <g id="text_13">
      <!-- 40 -->
      <g transform="translate(37.875 272.321825) scale(0.1 -0.1)">
       <use xlink:href="#DejaVuSans-34"/>
       <use xlink:href="#DejaVuSans-30" x="63.623047"/>
      </g>
     </g>
    </g>
    <g id="ytick_3">
     <g id="line2d_13">
      <g>
       <use xlink:href="#m2c7a6aeda2" x="57.6" y="230.45059" style="stroke: #000000; stroke-width: 0.8"/>
      </g>
     </g>
     <g id="text_14">
      <!-- 50 -->
      <g transform="translate(37.875 234.249808) scale(0.1 -0.1)">
       <defs>
        <path id="DejaVuSans-35" d="M 691 4666 
L 3169 4666 
L 3169 4134 
L 1269 4134 
L 1269 2991 
Q 1406 3038 1543 3061 
Q 1681 3084 1819 3084 
Q 2600 3084 3056 2656 
Q 3513 2228 3513 1497 
Q 3513 744 3044 326 
Q 2575 -91 1722 -91 
Q 1428 -91 1123 -41 
Q 819 9 494 109 
L 494 744 
Q 775 591 1075 516 
Q 1375 441 1709 441 
Q 2250 441 2565 725 
Q 2881 1009 2881 1497 
Q 2881 1984 2565 2268 
Q 2250 2553 1709 2553 
Q 1456 2553 1204 2497 
Q 953 2441 691 2322 
L 691 4666 
z
" transform="scale(0.015625)"/>
       </defs>
       <use xlink:href="#DejaVuSans-35"/>
       <use xlink:href="#DejaVuSans-30" x="63.623047"/>
      </g>
     </g>
    </g>
    <g id="ytick_4">
     <g id="line2d_14">
      <g>
       <use xlink:href="#m2c7a6aeda2" x="57.6" y="192.378573" style="stroke: #000000; stroke-width: 0.8"/>
      </g>
     </g>
     <g id="text_15">
      <!-- 60 -->
      <g transform="translate(37.875 196.177792) scale(0.1 -0.1)">
       <use xlink:href="#DejaVuSans-36"/>
       <use xlink:href="#DejaVuSans-30" x="63.623047"/>
      </g>
     </g>
    </g>
    <g id="ytick_5">
     <g id="line2d_15">
      <g>
       <use xlink:href="#m2c7a6aeda2" x="57.6" y="154.306556" style="stroke: #000000; stroke-width: 0.8"/>
      </g>
     </g>
     <g id="text_16">
      <!-- 70 -->
      <g transform="translate(37.875 158.105775) scale(0.1 -0.1)">
       <use xlink:href="#DejaVuSans-37"/>
       <use xlink:href="#DejaVuSans-30" x="63.623047"/>
      </g>
     </g>
    </g>
    <g id="ytick_6">
     <g id="line2d_16">
      <g>
       <use xlink:href="#m2c7a6aeda2" x="57.6" y="116.234539" style="stroke: #000000; stroke-width: 0.8"/>
      </g>
     </g>
     <g id="text_17">
      <!-- 80 -->
      <g transform="translate(37.875 120.033758) scale(0.1 -0.1)">
       <defs>
        <path id="DejaVuSans-38" d="M 2034 2216 
Q 1584 2216 1326 1975 
Q 1069 1734 1069 1313 
Q 1069 891 1326 650 
Q 1584 409 2034 409 
Q 2484 409 2743 651 
Q 3003 894 3003 1313 
Q 3003 1734 2745 1975 
Q 2488 2216 2034 2216 
z
M 1403 2484 
Q 997 2584 770 2862 
Q 544 3141 544 3541 
Q 544 4100 942 4425 
Q 1341 4750 2034 4750 
Q 2731 4750 3128 4425 
Q 3525 4100 3525 3541 
Q 3525 3141 3298 2862 
Q 3072 2584 2669 2484 
Q 3125 2378 3379 2068 
Q 3634 1759 3634 1313 
Q 3634 634 3220 271 
Q 2806 -91 2034 -91 
Q 1263 -91 848 271 
Q 434 634 434 1313 
Q 434 1759 690 2068 
Q 947 2378 1403 2484 
z
M 1172 3481 
Q 1172 3119 1398 2916 
Q 1625 2713 2034 2713 
Q 2441 2713 2670 2916 
Q 2900 3119 2900 3481 
Q 2900 3844 2670 4047 
Q 2441 4250 2034 4250 
Q 1625 4250 1398 4047 
Q 1172 3844 1172 3481 
z
" transform="scale(0.015625)"/>
       </defs>
       <use xlink:href="#DejaVuSans-38"/>
       <use xlink:href="#DejaVuSans-30" x="63.623047"/>
      </g>
     </g>
    </g>
    <g id="ytick_7">
     <g id="line2d_17">
      <g>
       <use xlink:href="#m2c7a6aeda2" x="57.6" y="78.162523" style="stroke: #000000; stroke-width: 0.8"/>
      </g>
     </g>
     <g id="text_18">
      <!-- 90 -->
      <g transform="translate(37.875 81.961742) scale(0.1 -0.1)">
       <defs>
        <path id="DejaVuSans-39" d="M 703 97 
L 703 672 
Q 941 559 1184 500 
Q 1428 441 1663 441 
Q 2288 441 2617 861 
Q 2947 1281 2994 2138 
Q 2813 1869 2534 1725 
Q 2256 1581 1919 1581 
Q 1219 1581 811 2004 
Q 403 2428 403 3163 
Q 403 3881 828 4315 
Q 1253 4750 1959 4750 
Q 2769 4750 3195 4129 
Q 3622 3509 3622 2328 
Q 3622 1225 3098 567 
Q 2575 -91 1691 -91 
Q 1453 -91 1209 -44 
Q 966 3 703 97 
z
M 1959 2075 
Q 2384 2075 2632 2365 
Q 2881 2656 2881 3163 
Q 2881 3666 2632 3958 
Q 2384 4250 1959 4250 
Q 1534 4250 1286 3958 
Q 1038 3666 1038 3163 
Q 1038 2656 1286 2365 
Q 1534 2075 1959 2075 
z
" transform="scale(0.015625)"/>
       </defs>
       <use xlink:href="#DejaVuSans-39"/>
       <use xlink:href="#DejaVuSans-30" x="63.623047"/>
      </g>
     </g>
    </g>
    <g id="text_19">
     <!-- Accuracy -->
     <g transform="translate(31.795312 197.356125) rotate(-90) scale(0.1 -0.1)">
      <defs>
       <path id="DejaVuSans-41" d="M 2188 4044 
L 1331 1722 
L 3047 1722 
L 2188 4044 
z
M 1831 4666 
L 2547 4666 
L 4325 0 
L 3669 0 
L 3244 1197 
L 1141 1197 
L 716 0 
L 50 0 
L 1831 4666 
z
" transform="scale(0.015625)"/>
       <path id="DejaVuSans-75" d="M 544 1381 
L 544 3500 
L 1119 3500 
L 1119 1403 
Q 1119 906 1312 657 
Q 1506 409 1894 409 
Q 2359 409 2629 706 
Q 2900 1003 2900 1516 
L 2900 3500 
L 3475 3500 
L 3475 0 
L 2900 0 
L 2900 538 
Q 2691 219 2414 64 
Q 2138 -91 1772 -91 
Q 1169 -91 856 284 
Q 544 659 544 1381 
z
M 1991 3584 
L 1991 3584 
z
" transform="scale(0.015625)"/>
       <path id="DejaVuSans-72" d="M 2631 2963 
Q 2534 3019 2420 3045 
Q 2306 3072 2169 3072 
Q 1681 3072 1420 2755 
Q 1159 2438 1159 1844 
L 1159 0 
L 581 0 
L 581 3500 
L 1159 3500 
L 1159 2956 
Q 1341 3275 1631 3429 
Q 1922 3584 2338 3584 
Q 2397 3584 2469 3576 
Q 2541 3569 2628 3553 
L 2631 2963 
z
" transform="scale(0.015625)"/>
       <path id="DejaVuSans-61" d="M 2194 1759 
Q 1497 1759 1228 1600 
Q 959 1441 959 1056 
Q 959 750 1161 570 
Q 1363 391 1709 391 
Q 2188 391 2477 730 
Q 2766 1069 2766 1631 
L 2766 1759 
L 2194 1759 
z
M 3341 1997 
L 3341 0 
L 2766 0 
L 2766 531 
Q 2569 213 2275 61 
Q 1981 -91 1556 -91 
Q 1019 -91 701 211 
Q 384 513 384 1019 
Q 384 1609 779 1909 
Q 1175 2209 1959 2209 
L 2766 2209 
L 2766 2266 
Q 2766 2663 2505 2880 
Q 2244 3097 1772 3097 
Q 1472 3097 1187 3025 
Q 903 2953 641 2809 
L 641 3341 
Q 956 3463 1253 3523 
Q 1550 3584 1831 3584 
Q 2591 3584 2966 3190 
Q 3341 2797 3341 1997 
z
" transform="scale(0.015625)"/>
       <path id="DejaVuSans-79" d="M 2059 -325 
Q 1816 -950 1584 -1140 
Q 1353 -1331 966 -1331 
L 506 -1331 
L 506 -850 
L 844 -850 
Q 1081 -850 1212 -737 
Q 1344 -625 1503 -206 
L 1606 56 
L 191 3500 
L 800 3500 
L 1894 763 
L 2988 3500 
L 3597 3500 
L 2059 -325 
z
" transform="scale(0.015625)"/>
      </defs>
      <use xlink:href="#DejaVuSans-41"/>
      <use xlink:href="#DejaVuSans-63" x="66.658203"/>
      <use xlink:href="#DejaVuSans-63" x="121.638672"/>
      <use xlink:href="#DejaVuSans-75" x="176.619141"/>
      <use xlink:href="#DejaVuSans-72" x="239.998047"/>
      <use xlink:href="#DejaVuSans-61" x="281.111328"/>
      <use xlink:href="#DejaVuSans-63" x="342.390625"/>
      <use xlink:href="#DejaVuSans-79" x="397.371094"/>
     </g>
    </g>
   </g>
   <g id="line2d_18">
    <path d="M 73.832727 295.488 
L 74.918528 232.255492 
L 76.00433 204.25285 
L 77.090131 185.899202 
L 78.175932 173.653282 
L 79.261733 163.95098 
L 80.347534 157.378698 
L 81.433335 152.146766 
L 82.519137 144.48545 
L 83.604938 142.360692 
L 84.690739 136.618513 
L 86.862341 129.269438 
L 89.033943 123.017012 
L 90.119745 119.308204 
L 91.205546 116.277187 
L 92.291347 114.586519 
L 93.377148 113.299479 
L 94.462949 112.682613 
L 95.54875 138.720424 
L 96.634552 140.890877 
L 98.806154 134.425214 
L 99.891955 133.33618 
L 100.977756 129.337978 
L 102.063557 128.203251 
L 103.149358 125.096077 
L 104.23516 124.304052 
L 105.320961 122.156447 
L 106.406762 119.536673 
L 107.492563 119.704217 
L 108.578364 119.323436 
L 109.664165 116.825512 
L 110.749967 116.406653 
L 111.835768 114.60175 
L 112.921569 113.208091 
L 114.00737 111.464114 
L 115.093171 110.710167 
L 116.178972 109.103271 
L 117.264773 108.296015 
L 118.350575 107.123209 
L 119.436376 104.853754 
L 121.607978 102.211133 
L 122.693779 102.789921 
L 123.77958 99.880753 
L 124.865382 98.487094 
L 125.951183 98.540404 
L 128.122785 95.410383 
L 129.208586 95.113374 
L 130.294387 93.590249 
L 131.380189 93.10285 
L 132.46599 91.846272 
L 133.551791 92.455522 
L 134.637592 91.191329 
L 135.723393 90.894319 
L 136.809194 89.927135 
L 137.894995 89.949982 
L 138.980797 115.629859 
L 140.066598 116.688431 
L 141.152399 116.231493 
L 142.2382 113.908729 
L 143.324001 114.883528 
L 144.409802 113.832572 
L 145.495604 112.446529 
L 146.581405 112.103826 
L 147.667206 110.664474 
L 148.753007 112.438914 
L 149.838808 109.925758 
L 150.924609 109.735368 
L 152.01041 108.768184 
L 153.096212 108.676796 
L 154.182013 107.5573 
L 155.267814 107.488759 
L 156.353615 106.544422 
L 157.439416 106.597732 
L 158.525217 105.607701 
L 160.69682 104.853754 
L 161.782621 103.543867 
L 162.868422 103.757105 
L 165.040024 102.195902 
L 166.125825 102.797536 
L 167.211627 102.789921 
L 168.297428 100.840321 
L 169.383229 101.738965 
L 170.46903 101.213487 
L 171.554831 99.545666 
L 172.640632 100.261534 
L 173.726434 98.677485 
L 174.812235 98.098698 
L 175.898036 98.555635 
L 176.983837 97.596067 
L 179.155439 97.687454 
L 180.24124 96.080558 
L 181.327042 96.23287 
L 182.412843 94.115727 
L 183.498644 95.060065 
L 184.584445 93.879643 
L 185.670246 92.904844 
L 187.841849 91.655882 
L 188.92765 92.379366 
L 190.013451 91.351257 
L 191.099252 90.818163 
L 192.185053 89.622511 
L 193.270854 88.99803 
L 194.356656 89.295039 
L 195.442457 88.38878 
L 196.528258 88.206005 
L 199.785661 85.654772 
L 200.871462 85.93655 
L 201.957264 85.190219 
L 203.043065 84.877978 
L 204.128866 83.377701 
L 205.214667 83.095923 
L 206.300468 82.128739 
L 207.386269 81.930732 
L 209.557872 81.230095 
L 210.643673 81.10063 
L 211.729474 80.506611 
L 213.901076 79.927824 
L 214.986877 79.775511 
L 216.072679 79.120568 
L 217.15848 78.701709 
L 218.244281 79.684124 
L 219.330082 77.810681 
L 220.415883 79.120568 
L 221.501684 77.536519 
L 222.587486 78.541781 
L 223.673287 78.290465 
L 224.759088 78.153384 
L 225.844889 102.607146 
L 226.93069 105.364001 
L 228.016491 106.70435 
L 229.102292 105.097454 
L 230.188094 104.952757 
L 231.273895 103.673333 
L 232.359696 104.442511 
L 234.531298 102.462449 
L 235.617099 103.338245 
L 236.702901 102.066437 
L 237.788702 101.700887 
L 238.874503 101.662809 
L 239.960304 101.327721 
L 241.046105 101.183024 
L 242.131906 101.228718 
L 244.303509 100.611853 
L 245.38931 101.959818 
L 246.475111 100.246303 
L 247.560912 99.492356 
L 248.646713 99.400969 
L 249.732514 100.071144 
L 251.904117 99.096344 
L 252.989918 97.847382 
L 254.075719 98.601329 
L 255.16152 98.540404 
L 256.247321 99.119191 
L 257.333123 97.801688 
L 258.418924 97.634145 
L 260.590526 97.710301 
L 261.676327 96.895429 
L 262.762128 97.557988 
L 263.847929 95.935861 
L 264.933731 96.910661 
L 266.019532 96.491801 
L 268.191134 96.080558 
L 269.276935 96.23287 
L 270.362736 95.143836 
L 271.448538 96.270948 
L 272.534339 95.692161 
L 273.62014 95.341843 
L 274.705941 94.161421 
L 275.791742 94.222346 
L 276.877543 93.483631 
L 277.963344 93.689253 
L 279.049146 94.930599 
L 280.134947 93.879643 
L 281.220748 94.14619 
L 282.306549 94.237577 
L 283.39235 93.04954 
L 284.478151 93.635943 
L 285.563953 92.173744 
L 286.649754 92.379366 
L 287.735555 91.983353 
L 288.821356 93.849181 
L 289.907157 91.633035 
L 290.992958 91.32841 
L 292.07876 91.747269 
L 293.164561 91.678728 
L 294.250362 91.404566 
L 295.336163 90.856241 
L 296.421964 91.549263 
L 298.593566 90.277454 
L 299.679368 90.224145 
L 300.765169 90.84101 
L 301.85097 89.493045 
L 302.936771 89.493045 
L 304.022572 89.721514 
L 305.108373 89.074186 
L 306.194175 89.569201 
L 307.279976 88.236467 
L 308.365777 88.571555 
L 309.451578 87.726221 
L 310.537379 87.482521 
L 311.62318 87.025583 
L 312.708981 87.650064 
L 313.794783 86.865655 
L 315.966385 87.010352 
L 317.052186 86.675265 
L 319.223788 85.578615 
L 320.30959 86.043168 
L 321.395391 85.807084 
L 322.481192 85.030291 
L 323.566993 86.081246 
L 324.652794 84.291575 
L 325.738595 84.025028 
L 326.824396 84.558122 
L 327.910198 83.202541 
L 330.0818 83.088307 
L 331.167601 82.623754 
L 332.253402 83.408163 
L 334.425005 81.709879 
L 335.510806 81.10063 
L 338.768209 81.458564 
L 339.85401 80.605614 
L 340.939811 81.595645 
L 342.025613 80.095368 
L 343.111414 79.745049 
L 344.197215 79.889746 
L 345.283016 79.874515 
L 346.368817 79.44804 
L 347.454618 79.425193 
L 348.54042 78.503703 
L 349.626221 78.458009 
L 350.712022 77.498441 
L 351.797823 77.574597 
L 352.883624 77.170969 
L 353.969425 77.346128 
L 355.055227 76.531257 
L 356.141028 75.89916 
L 357.226829 76.219016 
L 358.31263 75.480301 
L 359.398431 76.104782 
L 360.484232 75.609766 
L 361.570033 76.4551 
L 362.655835 75.190907 
L 363.741636 73.721092 
L 364.827437 75.000517 
L 365.913238 74.703507 
L 366.999039 73.530702 
L 368.08484 74.398882 
L 369.170642 74.398882 
L 370.256443 75.16806 
L 372.428045 77.277588 
L 373.513846 76.599797 
L 374.599647 77.140506 
L 375.685448 78.298081 
L 376.77125 77.125275 
L 377.857051 78.244771 
L 378.942852 78.336159 
L 381.114454 77.665984 
L 382.200255 77.894453 
L 383.286057 76.912038 
L 384.371858 76.957731 
L 385.457659 76.835881 
L 386.54346 77.688831 
L 387.629261 77.643137 
L 388.715062 77.962993 
L 389.800863 77.643137 
L 390.886665 78.008687 
L 391.972466 76.9425 
L 393.058267 78.084843 
L 395.229869 78.275234 
L 396.31567 77.087197 
L 397.401472 77.231894 
L 398.487273 77.231894 
L 398.487273 77.231894 
" clip-path="url(#pa19107e04e)" style="fill: none; stroke: #1f77b4; stroke-width: 1.5; stroke-linecap: square"/>
   </g>
   <g id="line2d_19">
    <path d="M 73.832727 230.298301 
L 74.918528 198.089375 
L 76.00433 152.707531 
L 77.090131 155.791365 
L 78.175932 130.435402 
L 80.347534 119.318373 
L 81.433335 114.140579 
L 82.519137 104.203782 
L 83.604938 98.226476 
L 84.690739 101.043805 
L 85.77654 91.601945 
L 86.862341 91.868449 
L 87.948142 89.165336 
L 89.033943 83.949469 
L 90.119745 81.550932 
L 91.205546 80.028052 
L 92.291347 81.589004 
L 93.377148 80.142268 
L 94.462949 79.685403 
L 95.54875 102.757046 
L 97.720353 95.218786 
L 98.806154 92.858321 
L 99.891955 94.266986 
L 100.977756 91.297369 
L 102.063557 90.38364 
L 103.149358 84.52055 
L 104.23516 81.855508 
L 105.320961 86.42415 
L 106.406762 82.274301 
L 107.492563 79.342755 
L 108.578364 85.624638 
L 109.664165 80.979852 
L 111.835768 79.951908 
L 112.921569 85.167774 
L 114.00737 74.736041 
L 115.093171 77.286866 
L 116.178972 74.812185 
L 117.264773 73.137017 
L 118.350575 73.098945 
L 119.436376 73.251233 
L 120.522177 68.187654 
L 121.607978 72.604008 
L 122.693779 68.949095 
L 123.77958 67.15971 
L 124.865382 68.644519 
L 125.951183 66.245982 
L 127.036984 67.997294 
L 128.122785 66.550558 
L 129.208586 65.636829 
L 130.294387 64.951533 
L 131.380189 65.560685 
L 132.46599 64.418525 
L 133.551791 63.657084 
L 134.637592 63.124076 
L 135.723393 63.619012 
L 137.894995 63.124076 
L 138.980797 85.66271 
L 140.066598 85.738854 
L 141.152399 76.335066 
L 142.2382 76.868074 
L 143.324001 80.789492 
L 144.409802 78.086379 
L 145.495604 75.802058 
L 146.581405 78.352883 
L 147.667206 72.946656 
L 148.753007 75.230977 
L 149.838808 72.413648 
L 150.924609 75.916274 
L 152.01041 74.203033 
L 153.096212 74.164961 
L 154.182013 72.413648 
L 155.267814 75.154833 
L 156.353615 72.984729 
L 157.439416 72.604008 
L 158.525217 72.83244 
L 159.611019 70.053183 
L 160.69682 73.631953 
L 161.782621 70.395831 
L 162.868422 70.319687 
L 163.954223 71.081128 
L 165.040024 70.662335 
L 166.125825 73.479665 
L 167.211627 70.966912 
L 168.297428 67.235854 
L 169.383229 69.634391 
L 171.554831 68.911023 
L 172.640632 69.558247 
L 173.726434 66.284054 
L 174.812235 68.987167 
L 175.898036 70.091255 
L 176.983837 66.817062 
L 178.069638 63.961661 
L 179.155439 64.608885 
L 180.24124 66.169838 
L 181.327042 65.903333 
L 182.412843 64.570813 
L 183.498644 65.256109 
L 184.584445 63.733228 
L 185.670246 64.723101 
L 186.756047 63.542868 
L 187.841849 64.456597 
L 188.92765 64.608885 
L 190.013451 63.047932 
L 191.099252 62.362636 
L 192.185053 62.743356 
L 193.270854 62.096132 
L 194.356656 61.791556 
L 195.442457 60.953971 
L 196.528258 61.334691 
L 197.614059 60.268675 
L 198.69986 59.773739 
L 199.785661 60.344819 
L 200.871462 58.09857 
L 201.957264 59.431091 
L 203.043065 59.545307 
L 204.128866 58.28893 
L 205.214667 58.47929 
L 206.300468 58.212786 
L 207.386269 58.212786 
L 208.472071 57.14677 
L 209.557872 57.641706 
L 210.643673 57.52749 
L 211.729474 56.994482 
L 212.815275 56.651833 
L 213.901076 56.575689 
L 214.986877 56.651833 
L 216.072679 56.080753 
L 218.244281 57.413274 
L 219.330082 56.233041 
L 220.415883 55.966537 
L 221.501684 56.309185 
L 222.587486 56.309185 
L 223.673287 55.966537 
L 224.759088 56.271113 
L 225.844889 75.002545 
L 226.93069 68.530303 
L 228.016491 75.116761 
L 229.102292 74.203033 
L 230.188094 78.923963 
L 231.273895 70.395831 
L 232.359696 74.317249 
L 233.445497 71.30956 
L 234.531298 69.025239 
L 235.617099 70.586191 
L 236.702901 68.187654 
L 237.788702 68.606447 
L 238.874503 67.616574 
L 241.046105 68.416087 
L 242.131906 70.167399 
L 243.217708 68.492231 
L 244.303509 68.720663 
L 245.38931 72.185216 
L 246.475111 67.73079 
L 247.560912 66.20791 
L 248.646713 67.959222 
L 249.732514 66.58863 
L 250.818316 66.626702 
L 251.904117 67.92115 
L 252.989918 67.54043 
L 254.075719 67.388142 
L 255.16152 65.636829 
L 256.247321 67.54043 
L 257.333123 66.093693 
L 258.418924 66.550558 
L 259.504725 70.548119 
L 260.590526 65.560685 
L 261.676327 65.141893 
L 262.762128 65.027677 
L 263.847929 67.654646 
L 264.933731 69.482103 
L 266.019532 65.484541 
L 267.105333 63.657084 
L 268.191134 65.332253 
L 269.276935 68.454159 
L 270.362736 67.654646 
L 271.448538 64.456597 
L 272.534339 65.903333 
L 273.62014 67.845006 
L 274.705941 65.598757 
L 275.791742 65.408397 
L 276.877543 67.806934 
L 277.963344 63.504796 
L 279.049146 65.827189 
L 281.220748 64.723101 
L 282.306549 65.218037 
L 283.39235 64.837317 
L 284.478151 61.943844 
L 285.563953 64.418525 
L 286.649754 64.570813 
L 287.735555 63.20022 
L 288.821356 64.989605 
L 289.907157 63.542868 
L 290.992958 65.370325 
L 292.07876 63.695156 
L 293.164561 62.62914 
L 294.250362 64.304309 
L 295.336163 62.400708 
L 296.421964 61.106259 
L 297.507765 61.220475 
L 298.593566 61.182403 
L 299.679368 60.611323 
L 300.765169 59.773739 
L 301.85097 62.933716 
L 302.936771 60.801683 
L 304.022572 61.486979 
L 305.108373 62.514924 
L 306.194175 61.030115 
L 307.279976 62.933716 
L 308.365777 60.687467 
L 310.537379 60.002171 
L 311.62318 60.459035 
L 312.708981 59.278803 
L 313.794783 62.324564 
L 314.880584 59.126514 
L 315.966385 60.382891 
L 317.052186 59.735667 
L 318.137987 60.116387 
L 319.223788 60.801683 
L 320.30959 61.068187 
L 321.395391 62.05806 
L 322.481192 60.344819 
L 323.566993 59.964099 
L 324.652794 60.535179 
L 325.738595 60.154459 
L 326.824396 60.763611 
L 327.910198 58.974226 
L 328.995999 59.393019 
L 330.0818 58.403146 
L 331.167601 58.09857 
L 332.253402 57.984354 
L 333.339203 57.33713 
L 334.425005 60.687467 
L 335.510806 56.347257 
L 336.596607 57.222914 
L 337.682408 57.260986 
L 338.768209 57.108698 
L 339.85401 57.90821 
L 340.939811 58.022426 
L 343.111414 57.184842 
L 344.197215 57.108698 
L 345.283016 56.651833 
L 346.368817 56.423401 
L 347.454618 55.776177 
L 348.54042 56.271113 
L 349.626221 56.042681 
L 350.712022 56.537617 
L 351.797823 55.814249 
L 353.969425 56.042681 
L 355.055227 56.271113 
L 356.141028 54.595944 
L 357.226829 56.271113 
L 358.31263 54.595944 
L 359.398431 54.710161 
L 360.484232 53.720288 
L 361.570033 54.32944 
L 362.655835 54.291368 
L 364.827437 54.786305 
L 365.913238 54.177152 
L 366.999039 54.253296 
L 368.08484 55.090881 
L 369.170642 55.395457 
L 370.256443 55.471601 
L 371.342244 54.786305 
L 372.428045 54.976665 
L 373.513846 54.786305 
L 374.599647 55.281241 
L 376.77125 55.052809 
L 377.857051 56.194969 
L 378.942852 57.565562 
L 380.028653 57.108698 
L 381.114454 55.623889 
L 382.200255 55.623889 
L 383.286057 56.842193 
L 384.371858 56.156897 
L 385.457659 56.613761 
L 386.54346 55.585817 
L 387.629261 55.433529 
L 388.715062 54.634016 
L 389.800863 56.156897 
L 390.886665 55.128953 
L 391.972466 56.842193 
L 393.058267 56.499545 
L 394.144068 55.585817 
L 395.229869 55.890393 
L 396.31567 56.689905 
L 397.401472 56.423401 
L 398.487273 56.918337 
L 398.487273 56.918337 
" clip-path="url(#pa19107e04e)" style="fill: none; stroke: #ff7f0e; stroke-width: 1.5; stroke-linecap: square"/>
   </g>
   <g id="line2d_20">
    <path d="M 73.832727 253.004977 
L 74.918528 238.69515 
L 76.00433 202.566119 
L 77.090131 198.023734 
L 79.261733 177.333562 
L 80.347534 163.417584 
L 81.433335 172.239789 
L 82.519137 153.335063 
L 83.604938 151.287051 
L 84.690739 166.830937 
L 85.77654 146.061995 
L 86.862341 150.84069 
L 87.948142 145.011733 
L 89.033943 143.488852 
L 90.119745 134.561621 
L 91.205546 133.537615 
L 92.291347 137.266047 
L 93.377148 134.351568 
L 94.462949 132.014734 
L 95.54875 166.542115 
L 96.634552 164.021485 
L 97.720353 160.109257 
L 98.806154 150.68315 
L 99.891955 152.179775 
L 100.977756 150.131763 
L 102.063557 142.543616 
L 103.149358 132.539865 
L 104.23516 134.377825 
L 105.320961 148.398829 
L 106.406762 146.665896 
L 107.492563 135.349317 
L 108.578364 142.412333 
L 109.664165 150.341815 
L 110.749967 130.491853 
L 111.835768 135.113008 
L 112.921569 157.010982 
L 114.00737 129.730413 
L 115.093171 127.603631 
L 116.178972 128.995229 
L 117.264773 130.203031 
L 118.350575 131.647142 
L 119.436376 121.013234 
L 120.522177 115.709408 
L 121.607978 121.879701 
L 122.693779 117.232289 
L 123.77958 118.282551 
L 124.865382 125.791928 
L 125.951183 115.394329 
L 127.036984 117.626137 
L 128.122785 118.623887 
L 129.208586 112.768673 
L 130.294387 112.112259 
L 131.380189 117.626137 
L 132.46599 110.904457 
L 134.637592 112.506107 
L 136.809194 111.193279 
L 137.894995 112.663647 
L 138.980797 147.40108 
L 140.066598 148.057494 
L 141.152399 136.215784 
L 142.2382 118.623887 
L 143.324001 127.551118 
L 144.409802 132.251043 
L 145.495604 127.944967 
L 146.581405 133.301306 
L 147.667206 120.750668 
L 148.753007 136.110758 
L 149.838808 121.013234 
L 152.01041 129.651643 
L 153.096212 120.934464 
L 154.182013 130.071748 
L 155.267814 127.524862 
L 156.353615 116.733414 
L 157.439416 125.896955 
L 158.525217 124.584127 
L 159.611019 121.748418 
L 160.69682 121.800931 
L 161.782621 125.975724 
L 162.868422 116.99598 
L 163.954223 118.019986 
L 165.040024 127.052244 
L 166.125825 119.43784 
L 167.211627 124.846692 
L 168.297428 112.899956 
L 169.383229 124.741666 
L 170.46903 113.162522 
L 171.554831 113.871449 
L 172.640632 121.722161 
L 173.726434 107.806183 
L 174.812235 119.201531 
L 175.898036 122.326062 
L 176.983837 114.869198 
L 178.069638 110.169273 
L 179.155439 111.560871 
L 180.24124 115.052994 
L 181.327042 108.698906 
L 182.412843 104.077751 
L 183.498644 105.863197 
L 184.584445 101.294555 
L 185.670246 106.650894 
L 186.756047 99.089004 
L 187.841849 105.705658 
L 188.92765 110.064247 
L 190.013451 110.221786 
L 191.099252 100.638141 
L 192.185053 108.567623 
L 194.356656 100.716911 
L 195.442457 101.399581 
L 196.528258 103.342567 
L 197.614059 101.320812 
L 198.69986 95.859446 
L 199.785661 101.268298 
L 201.957264 94.415335 
L 203.043065 94.047744 
L 204.128866 94.599131 
L 205.214667 102.161022 
L 206.300468 93.15502 
L 207.386269 99.089004 
L 208.472071 93.680152 
L 209.557872 95.596881 
L 210.643673 93.890204 
L 211.729474 94.257796 
L 212.815275 93.916461 
L 213.901076 91.159522 
L 214.986877 91.395831 
L 216.072679 91.973475 
L 217.15848 91.894705 
L 218.244281 94.179026 
L 219.330082 91.028239 
L 220.415883 90.608134 
L 221.501684 90.923213 
L 222.587486 91.028239 
L 223.673287 92.078501 
L 224.759088 91.343318 
L 225.844889 131.778425 
L 226.93069 116.444592 
L 228.016491 130.833189 
L 229.102292 133.747667 
L 230.188094 139.76042 
L 231.273895 120.960721 
L 232.359696 124.925462 
L 233.445497 120.724412 
L 234.531298 129.494104 
L 235.617099 130.019235 
L 236.702901 121.2758 
L 237.788702 115.840691 
L 238.874503 125.424337 
L 241.046105 127.288553 
L 242.131906 121.039491 
L 243.217708 120.986977 
L 244.303509 112.821186 
L 245.38931 120.855695 
L 246.475111 116.83844 
L 247.560912 123.875199 
L 248.646713 116.365822 
L 249.732514 116.864697 
L 250.818316 120.986977 
L 251.904117 117.91496 
L 252.989918 121.328313 
L 254.075719 115.525612 
L 255.16152 119.674149 
L 256.247321 116.260796 
L 257.333123 113.845192 
L 258.418924 112.296055 
L 259.504725 129.100255 
L 260.590526 116.339566 
L 261.676327 112.427338 
L 262.762128 112.427338 
L 263.847929 125.214284 
L 264.933731 118.282551 
L 266.019532 118.6764 
L 267.105333 103.368823 
L 268.191134 122.089753 
L 269.276935 113.372574 
L 270.362736 123.481351 
L 271.448538 126.264547 
L 272.534339 111.061997 
L 273.62014 118.019986 
L 274.705941 111.140766 
L 275.791742 118.938965 
L 276.877543 121.144517 
L 277.963344 105.416835 
L 279.049146 113.661396 
L 280.134947 115.368073 
L 281.220748 114.47535 
L 282.306549 109.381576 
L 283.39235 128.522611 
L 284.478151 110.589378 
L 285.563953 112.611134 
L 286.649754 118.072499 
L 287.735555 113.398831 
L 288.821356 112.296055 
L 289.907157 103.762672 
L 290.992958 126.894704 
L 292.07876 110.694405 
L 293.164561 106.440841 
L 294.250362 105.784427 
L 295.336163 111.272049 
L 296.421964 101.63589 
L 297.507765 103.39508 
L 298.593566 110.405582 
L 299.679368 101.819686 
L 300.765169 103.106258 
L 301.85097 101.452094 
L 302.936771 103.447593 
L 304.022572 103.211284 
L 305.108373 105.128013 
L 307.279976 114.554119 
L 308.365777 103.447593 
L 309.451578 102.082252 
L 310.537379 97.014735 
L 311.62318 102.896205 
L 312.708981 101.268298 
L 313.794783 109.959221 
L 314.880584 102.108508 
L 315.966385 119.070248 
L 317.052186 106.204532 
L 318.137987 99.089004 
L 319.223788 106.467098 
L 320.30959 110.221786 
L 321.395391 113.267548 
L 322.481192 107.307308 
L 323.566993 103.447593 
L 324.652794 104.970474 
L 325.738595 105.180526 
L 326.824396 104.576625 
L 327.910198 101.425838 
L 328.995999 106.939716 
L 330.0818 104.99673 
L 331.167601 101.63589 
L 332.253402 93.890204 
L 333.339203 104.15652 
L 334.425005 104.104007 
L 335.510806 102.764923 
L 336.596607 91.55337 
L 337.682408 101.452094 
L 338.768209 103.815185 
L 339.85401 99.19403 
L 340.939811 98.406333 
L 342.025613 96.043242 
L 343.111414 98.878951 
L 344.197215 98.563872 
L 345.283016 98.380076 
L 346.368817 94.809184 
L 347.454618 95.544368 
L 348.54042 93.758921 
L 350.712022 97.224788 
L 351.797823 95.544368 
L 352.883624 95.465598 
L 353.969425 88.743918 
L 355.055227 95.150519 
L 356.141028 91.159522 
L 357.226829 93.837691 
L 358.31263 89.321562 
L 359.398431 89.11151 
L 361.570033 89.584128 
L 362.655835 93.417586 
L 363.741636 93.23379 
L 364.827437 92.209784 
L 365.913238 90.030489 
L 366.999039 90.240542 
L 368.08484 86.800932 
L 369.170642 94.99298 
L 371.342244 97.461097 
L 372.428045 94.231539 
L 373.513846 95.360572 
L 374.599647 97.119761 
L 375.685448 88.612635 
L 376.77125 95.596881 
L 377.857051 97.59238 
L 378.942852 95.203032 
L 380.028653 98.747668 
L 381.114454 97.539866 
L 382.200255 90.450594 
L 383.286057 96.069499 
L 384.371858 92.078501 
L 385.457659 95.859446 
L 386.54346 97.566123 
L 387.629261 93.575125 
L 388.715062 94.887954 
L 389.800863 95.938216 
L 390.886665 99.11526 
L 391.972466 99.351569 
L 393.058267 96.095755 
L 394.144068 98.590129 
L 395.229869 91.920962 
L 397.401472 99.377826 
L 398.487273 92.524863 
L 398.487273 92.524863 
" clip-path="url(#pa19107e04e)" style="fill: none; stroke: #2ca02c; stroke-width: 1.5; stroke-linecap: square"/>
   </g>
   <g id="line2d_21">
    <path d="M 368.08484 54.634016 
L 369.170642 54.405584 
L 370.256443 54.062936 
L 371.342244 54.748233 
L 372.428045 54.32944 
L 373.513846 54.900521 
L 374.599647 54.557872 
L 375.685448 54.062936 
L 376.77125 53.796432 
L 377.857051 54.5198 
L 378.942852 53.872576 
L 380.028653 55.205097 
L 381.114454 55.890393 
L 382.200255 54.938593 
L 383.286057 53.606072 
L 384.371858 55.509673 
L 385.457659 55.052809 
M 387.629261 53.872576 
L 388.715062 56.004609 
L 389.800863 55.433529 
L 390.886665 53.986792 
L 391.972466 54.215224 
L 393.058267 53.720288 
L 394.144068 54.253296 
L 395.229869 53.682216 
L 396.31567 53.872576 
L 397.401472 53.568 
L 398.487273 55.433529 
L 398.487273 55.433529 
" clip-path="url(#pa19107e04e)" style="fill: none; stroke: #d62728; stroke-width: 1.5; stroke-linecap: square"/>
   </g>
   <g id="line2d_22">
    <path d="M 368.08484 87.194781 
L 369.170642 92.446093 
L 370.256443 89.741667 
L 371.342244 93.496356 
L 372.428045 94.284053 
L 373.513846 94.362822 
L 374.599647 92.839942 
L 375.685448 92.131014 
L 376.77125 90.371825 
L 377.857051 93.181277 
L 378.942852 91.238291 
L 380.028653 88.428839 
L 381.114454 97.014735 
L 382.200255 93.758921 
L 383.286057 94.074 
L 384.371858 95.885703 
L 385.457659 92.944968 
L 386.54346 92.104758 
L 387.629261 91.054495 
L 388.715062 88.428839 
L 389.800863 88.402582 
L 390.886665 87.247294 
L 391.972466 94.179026 
L 393.058267 90.739417 
L 394.144068 91.500857 
L 395.229869 88.717661 
L 396.31567 90.214285 
L 397.401472 88.11376 
L 398.487273 92.183528 
L 398.487273 92.183528 
" clip-path="url(#pa19107e04e)" style="fill: none; stroke: #9467bd; stroke-width: 1.5; stroke-linecap: square"/>
   </g>
   <g id="patch_3">
    <path d="M 57.6 307.584 
L 57.6 41.472 
" style="fill: none; stroke: #000000; stroke-width: 0.8; stroke-linejoin: miter; stroke-linecap: square"/>
   </g>
   <g id="patch_4">
    <path d="M 414.72 307.584 
L 414.72 41.472 
" style="fill: none; stroke: #000000; stroke-width: 0.8; stroke-linejoin: miter; stroke-linecap: square"/>
   </g>
   <g id="patch_5">
    <path d="M 57.6 307.584 
L 414.72 307.584 
" style="fill: none; stroke: #000000; stroke-width: 0.8; stroke-linejoin: miter; stroke-linecap: square"/>
   </g>
   <g id="patch_6">
    <path d="M 57.6 41.472 
L 414.72 41.472 
" style="fill: none; stroke: #000000; stroke-width: 0.8; stroke-linejoin: miter; stroke-linecap: square"/>
   </g>
   <g id="text_20">
    <!-- Learning Curves -->
    <g transform="translate(187.37625 35.472) scale(0.12 -0.12)">
     <defs>
      <path id="DejaVuSans-4c" d="M 628 4666 
L 1259 4666 
L 1259 531 
L 3531 531 
L 3531 0 
L 628 0 
L 628 4666 
z
" transform="scale(0.015625)"/>
      <path id="DejaVuSans-65" d="M 3597 1894 
L 3597 1613 
L 953 1613 
Q 991 1019 1311 708 
Q 1631 397 2203 397 
Q 2534 397 2845 478 
Q 3156 559 3463 722 
L 3463 178 
Q 3153 47 2828 -22 
Q 2503 -91 2169 -91 
Q 1331 -91 842 396 
Q 353 884 353 1716 
Q 353 2575 817 3079 
Q 1281 3584 2069 3584 
Q 2775 3584 3186 3129 
Q 3597 2675 3597 1894 
z
M 3022 2063 
Q 3016 2534 2758 2815 
Q 2500 3097 2075 3097 
Q 1594 3097 1305 2825 
Q 1016 2553 972 2059 
L 3022 2063 
z
" transform="scale(0.015625)"/>
      <path id="DejaVuSans-6e" d="M 3513 2113 
L 3513 0 
L 2938 0 
L 2938 2094 
Q 2938 2591 2744 2837 
Q 2550 3084 2163 3084 
Q 1697 3084 1428 2787 
Q 1159 2491 1159 1978 
L 1159 0 
L 581 0 
L 581 3500 
L 1159 3500 
L 1159 2956 
Q 1366 3272 1645 3428 
Q 1925 3584 2291 3584 
Q 2894 3584 3203 3211 
Q 3513 2838 3513 2113 
z
" transform="scale(0.015625)"/>
      <path id="DejaVuSans-69" d="M 603 3500 
L 1178 3500 
L 1178 0 
L 603 0 
L 603 3500 
z
M 603 4863 
L 1178 4863 
L 1178 4134 
L 603 4134 
L 603 4863 
z
" transform="scale(0.015625)"/>
      <path id="DejaVuSans-67" d="M 2906 1791 
Q 2906 2416 2648 2759 
Q 2391 3103 1925 3103 
Q 1463 3103 1205 2759 
Q 947 2416 947 1791 
Q 947 1169 1205 825 
Q 1463 481 1925 481 
Q 2391 481 2648 825 
Q 2906 1169 2906 1791 
z
M 3481 434 
Q 3481 -459 3084 -895 
Q 2688 -1331 1869 -1331 
Q 1566 -1331 1297 -1286 
Q 1028 -1241 775 -1147 
L 775 -588 
Q 1028 -725 1275 -790 
Q 1522 -856 1778 -856 
Q 2344 -856 2625 -561 
Q 2906 -266 2906 331 
L 2906 616 
Q 2728 306 2450 153 
Q 2172 0 1784 0 
Q 1141 0 747 490 
Q 353 981 353 1791 
Q 353 2603 747 3093 
Q 1141 3584 1784 3584 
Q 2172 3584 2450 3431 
Q 2728 3278 2906 2969 
L 2906 3500 
L 3481 3500 
L 3481 434 
z
" transform="scale(0.015625)"/>
      <path id="DejaVuSans-20" transform="scale(0.015625)"/>
      <path id="DejaVuSans-43" d="M 4122 4306 
L 4122 3641 
Q 3803 3938 3442 4084 
Q 3081 4231 2675 4231 
Q 1875 4231 1450 3742 
Q 1025 3253 1025 2328 
Q 1025 1406 1450 917 
Q 1875 428 2675 428 
Q 3081 428 3442 575 
Q 3803 722 4122 1019 
L 4122 359 
Q 3791 134 3420 21 
Q 3050 -91 2638 -91 
Q 1578 -91 968 557 
Q 359 1206 359 2328 
Q 359 3453 968 4101 
Q 1578 4750 2638 4750 
Q 3056 4750 3426 4639 
Q 3797 4528 4122 4306 
z
" transform="scale(0.015625)"/>
      <path id="DejaVuSans-76" d="M 191 3500 
L 800 3500 
L 1894 563 
L 2988 3500 
L 3597 3500 
L 2284 0 
L 1503 0 
L 191 3500 
z
" transform="scale(0.015625)"/>
     </defs>
     <use xlink:href="#DejaVuSans-4c"/>
     <use xlink:href="#DejaVuSans-65" x="53.962891"/>
     <use xlink:href="#DejaVuSans-61" x="115.486328"/>
     <use xlink:href="#DejaVuSans-72" x="176.765625"/>
     <use xlink:href="#DejaVuSans-6e" x="216.128906"/>
     <use xlink:href="#DejaVuSans-69" x="279.507812"/>
     <use xlink:href="#DejaVuSans-6e" x="307.291016"/>
     <use xlink:href="#DejaVuSans-67" x="370.669922"/>
     <use xlink:href="#DejaVuSans-20" x="434.146484"/>
     <use xlink:href="#DejaVuSans-43" x="465.933594"/>
     <use xlink:href="#DejaVuSans-75" x="535.757812"/>
     <use xlink:href="#DejaVuSans-72" x="599.136719"/>
     <use xlink:href="#DejaVuSans-76" x="640.25"/>
     <use xlink:href="#DejaVuSans-65" x="699.429688"/>
     <use xlink:href="#DejaVuSans-73" x="760.953125"/>
    </g>
   </g>
   <g id="legend_1">
    <g id="patch_7">
     <path d="M 214.18875 302.584 
L 407.72 302.584 
Q 409.72 302.584 409.72 300.584 
L 409.72 228.193375 
Q 409.72 226.193375 407.72 226.193375 
L 214.18875 226.193375 
Q 212.18875 226.193375 212.18875 228.193375 
L 212.18875 300.584 
Q 212.18875 302.584 214.18875 302.584 
z
" style="fill: #ffffff; opacity: 0.8; stroke: #cccccc; stroke-linejoin: miter"/>
    </g>
    <g id="line2d_23">
     <path d="M 216.18875 234.291812 
L 226.18875 234.291812 
L 236.18875 234.291812 
" style="fill: none; stroke: #1f77b4; stroke-width: 1.5; stroke-linecap: square"/>
    </g>
    <g id="text_21">
     <!-- Train Accuracy -->
     <g transform="translate(244.18875 237.791812) scale(0.1 -0.1)">
      <defs>
       <path id="DejaVuSans-54" d="M -19 4666 
L 3928 4666 
L 3928 4134 
L 2272 4134 
L 2272 0 
L 1638 0 
L 1638 4134 
L -19 4134 
L -19 4666 
z
" transform="scale(0.015625)"/>
      </defs>
      <use xlink:href="#DejaVuSans-54"/>
      <use xlink:href="#DejaVuSans-72" x="46.333984"/>
      <use xlink:href="#DejaVuSans-61" x="87.447266"/>
      <use xlink:href="#DejaVuSans-69" x="148.726562"/>
      <use xlink:href="#DejaVuSans-6e" x="176.509766"/>
      <use xlink:href="#DejaVuSans-20" x="239.888672"/>
      <use xlink:href="#DejaVuSans-41" x="271.675781"/>
      <use xlink:href="#DejaVuSans-63" x="338.333984"/>
      <use xlink:href="#DejaVuSans-63" x="393.314453"/>
      <use xlink:href="#DejaVuSans-75" x="448.294922"/>
      <use xlink:href="#DejaVuSans-72" x="511.673828"/>
      <use xlink:href="#DejaVuSans-61" x="552.787109"/>
      <use xlink:href="#DejaVuSans-63" x="614.066406"/>
      <use xlink:href="#DejaVuSans-79" x="669.046875"/>
     </g>
    </g>
    <g id="line2d_24">
     <path d="M 216.18875 248.969937 
L 226.18875 248.969937 
L 236.18875 248.969937 
" style="fill: none; stroke: #ff7f0e; stroke-width: 1.5; stroke-linecap: square"/>
    </g>
    <g id="text_22">
     <!-- Validation Accuracy -->
     <g transform="translate(244.18875 252.469937) scale(0.1 -0.1)">
      <defs>
       <path id="DejaVuSans-56" d="M 1831 0 
L 50 4666 
L 709 4666 
L 2188 738 
L 3669 4666 
L 4325 4666 
L 2547 0 
L 1831 0 
z
" transform="scale(0.015625)"/>
       <path id="DejaVuSans-6c" d="M 603 4863 
L 1178 4863 
L 1178 0 
L 603 0 
L 603 4863 
z
" transform="scale(0.015625)"/>
       <path id="DejaVuSans-64" d="M 2906 2969 
L 2906 4863 
L 3481 4863 
L 3481 0 
L 2906 0 
L 2906 525 
Q 2725 213 2448 61 
Q 2172 -91 1784 -91 
Q 1150 -91 751 415 
Q 353 922 353 1747 
Q 353 2572 751 3078 
Q 1150 3584 1784 3584 
Q 2172 3584 2448 3432 
Q 2725 3281 2906 2969 
z
M 947 1747 
Q 947 1113 1208 752 
Q 1469 391 1925 391 
Q 2381 391 2643 752 
Q 2906 1113 2906 1747 
Q 2906 2381 2643 2742 
Q 2381 3103 1925 3103 
Q 1469 3103 1208 2742 
Q 947 2381 947 1747 
z
" transform="scale(0.015625)"/>
       <path id="DejaVuSans-74" d="M 1172 4494 
L 1172 3500 
L 2356 3500 
L 2356 3053 
L 1172 3053 
L 1172 1153 
Q 1172 725 1289 603 
Q 1406 481 1766 481 
L 2356 481 
L 2356 0 
L 1766 0 
Q 1100 0 847 248 
Q 594 497 594 1153 
L 594 3053 
L 172 3053 
L 172 3500 
L 594 3500 
L 594 4494 
L 1172 4494 
z
" transform="scale(0.015625)"/>
      </defs>
      <use xlink:href="#DejaVuSans-56"/>
      <use xlink:href="#DejaVuSans-61" x="60.658203"/>
      <use xlink:href="#DejaVuSans-6c" x="121.9375"/>
      <use xlink:href="#DejaVuSans-69" x="149.720703"/>
      <use xlink:href="#DejaVuSans-64" x="177.503906"/>
      <use xlink:href="#DejaVuSans-61" x="240.980469"/>
      <use xlink:href="#DejaVuSans-74" x="302.259766"/>
      <use xlink:href="#DejaVuSans-69" x="341.46875"/>
      <use xlink:href="#DejaVuSans-6f" x="369.251953"/>
      <use xlink:href="#DejaVuSans-6e" x="430.433594"/>
      <use xlink:href="#DejaVuSans-20" x="493.8125"/>
      <use xlink:href="#DejaVuSans-41" x="525.599609"/>
      <use xlink:href="#DejaVuSans-63" x="592.257812"/>
      <use xlink:href="#DejaVuSans-63" x="647.238281"/>
      <use xlink:href="#DejaVuSans-75" x="702.21875"/>
      <use xlink:href="#DejaVuSans-72" x="765.597656"/>
      <use xlink:href="#DejaVuSans-61" x="806.710938"/>
      <use xlink:href="#DejaVuSans-63" x="867.990234"/>
      <use xlink:href="#DejaVuSans-79" x="922.970703"/>
     </g>
    </g>
    <g id="line2d_25">
     <path d="M 216.18875 263.648062 
L 226.18875 263.648062 
L 236.18875 263.648062 
" style="fill: none; stroke: #2ca02c; stroke-width: 1.5; stroke-linecap: square"/>
    </g>
    <g id="text_23">
     <!-- Robust Validation Accuracy -->
     <g transform="translate(244.18875 267.148062) scale(0.1 -0.1)">
      <defs>
       <path id="DejaVuSans-52" d="M 2841 2188 
Q 3044 2119 3236 1894 
Q 3428 1669 3622 1275 
L 4263 0 
L 3584 0 
L 2988 1197 
Q 2756 1666 2539 1819 
Q 2322 1972 1947 1972 
L 1259 1972 
L 1259 0 
L 628 0 
L 628 4666 
L 2053 4666 
Q 2853 4666 3247 4331 
Q 3641 3997 3641 3322 
Q 3641 2881 3436 2590 
Q 3231 2300 2841 2188 
z
M 1259 4147 
L 1259 2491 
L 2053 2491 
Q 2509 2491 2742 2702 
Q 2975 2913 2975 3322 
Q 2975 3731 2742 3939 
Q 2509 4147 2053 4147 
L 1259 4147 
z
" transform="scale(0.015625)"/>
       <path id="DejaVuSans-62" d="M 3116 1747 
Q 3116 2381 2855 2742 
Q 2594 3103 2138 3103 
Q 1681 3103 1420 2742 
Q 1159 2381 1159 1747 
Q 1159 1113 1420 752 
Q 1681 391 2138 391 
Q 2594 391 2855 752 
Q 3116 1113 3116 1747 
z
M 1159 2969 
Q 1341 3281 1617 3432 
Q 1894 3584 2278 3584 
Q 2916 3584 3314 3078 
Q 3713 2572 3713 1747 
Q 3713 922 3314 415 
Q 2916 -91 2278 -91 
Q 1894 -91 1617 61 
Q 1341 213 1159 525 
L 1159 0 
L 581 0 
L 581 4863 
L 1159 4863 
L 1159 2969 
z
" transform="scale(0.015625)"/>
      </defs>
      <use xlink:href="#DejaVuSans-52"/>
      <use xlink:href="#DejaVuSans-6f" x="64.982422"/>
      <use xlink:href="#DejaVuSans-62" x="126.164062"/>
      <use xlink:href="#DejaVuSans-75" x="189.640625"/>
      <use xlink:href="#DejaVuSans-73" x="253.019531"/>
      <use xlink:href="#DejaVuSans-74" x="305.119141"/>
      <use xlink:href="#DejaVuSans-20" x="344.328125"/>
      <use xlink:href="#DejaVuSans-56" x="376.115234"/>
      <use xlink:href="#DejaVuSans-61" x="436.773438"/>
      <use xlink:href="#DejaVuSans-6c" x="498.052734"/>
      <use xlink:href="#DejaVuSans-69" x="525.835938"/>
      <use xlink:href="#DejaVuSans-64" x="553.619141"/>
      <use xlink:href="#DejaVuSans-61" x="617.095703"/>
      <use xlink:href="#DejaVuSans-74" x="678.375"/>
      <use xlink:href="#DejaVuSans-69" x="717.583984"/>
      <use xlink:href="#DejaVuSans-6f" x="745.367188"/>
      <use xlink:href="#DejaVuSans-6e" x="806.548828"/>
      <use xlink:href="#DejaVuSans-20" x="869.927734"/>
      <use xlink:href="#DejaVuSans-41" x="901.714844"/>
      <use xlink:href="#DejaVuSans-63" x="968.373047"/>
      <use xlink:href="#DejaVuSans-63" x="1023.353516"/>
      <use xlink:href="#DejaVuSans-75" x="1078.333984"/>
      <use xlink:href="#DejaVuSans-72" x="1141.712891"/>
      <use xlink:href="#DejaVuSans-61" x="1182.826172"/>
      <use xlink:href="#DejaVuSans-63" x="1244.105469"/>
      <use xlink:href="#DejaVuSans-79" x="1299.085938"/>
     </g>
    </g>
    <g id="line2d_26">
     <path d="M 216.18875 278.326188 
L 226.18875 278.326188 
L 236.18875 278.326188 
" style="fill: none; stroke: #d62728; stroke-width: 1.5; stroke-linecap: square"/>
    </g>
    <g id="text_24">
     <!-- SWA Validation Accuracy -->
     <g transform="translate(244.18875 281.826188) scale(0.1 -0.1)">
      <defs>
       <path id="DejaVuSans-53" d="M 3425 4513 
L 3425 3897 
Q 3066 4069 2747 4153 
Q 2428 4238 2131 4238 
Q 1616 4238 1336 4038 
Q 1056 3838 1056 3469 
Q 1056 3159 1242 3001 
Q 1428 2844 1947 2747 
L 2328 2669 
Q 3034 2534 3370 2195 
Q 3706 1856 3706 1288 
Q 3706 609 3251 259 
Q 2797 -91 1919 -91 
Q 1588 -91 1214 -16 
Q 841 59 441 206 
L 441 856 
Q 825 641 1194 531 
Q 1563 422 1919 422 
Q 2459 422 2753 634 
Q 3047 847 3047 1241 
Q 3047 1584 2836 1778 
Q 2625 1972 2144 2069 
L 1759 2144 
Q 1053 2284 737 2584 
Q 422 2884 422 3419 
Q 422 4038 858 4394 
Q 1294 4750 2059 4750 
Q 2388 4750 2728 4690 
Q 3069 4631 3425 4513 
z
" transform="scale(0.015625)"/>
       <path id="DejaVuSans-57" d="M 213 4666 
L 850 4666 
L 1831 722 
L 2809 4666 
L 3519 4666 
L 4500 722 
L 5478 4666 
L 6119 4666 
L 4947 0 
L 4153 0 
L 3169 4050 
L 2175 0 
L 1381 0 
L 213 4666 
z
" transform="scale(0.015625)"/>
      </defs>
      <use xlink:href="#DejaVuSans-53"/>
      <use xlink:href="#DejaVuSans-57" x="63.476562"/>
      <use xlink:href="#DejaVuSans-41" x="156.853516"/>
      <use xlink:href="#DejaVuSans-20" x="225.261719"/>
      <use xlink:href="#DejaVuSans-56" x="257.048828"/>
      <use xlink:href="#DejaVuSans-61" x="317.707031"/>
      <use xlink:href="#DejaVuSans-6c" x="378.986328"/>
      <use xlink:href="#DejaVuSans-69" x="406.769531"/>
      <use xlink:href="#DejaVuSans-64" x="434.552734"/>
      <use xlink:href="#DejaVuSans-61" x="498.029297"/>
      <use xlink:href="#DejaVuSans-74" x="559.308594"/>
      <use xlink:href="#DejaVuSans-69" x="598.517578"/>
      <use xlink:href="#DejaVuSans-6f" x="626.300781"/>
      <use xlink:href="#DejaVuSans-6e" x="687.482422"/>
      <use xlink:href="#DejaVuSans-20" x="750.861328"/>
      <use xlink:href="#DejaVuSans-41" x="782.648438"/>
      <use xlink:href="#DejaVuSans-63" x="849.306641"/>
      <use xlink:href="#DejaVuSans-63" x="904.287109"/>
      <use xlink:href="#DejaVuSans-75" x="959.267578"/>
      <use xlink:href="#DejaVuSans-72" x="1022.646484"/>
      <use xlink:href="#DejaVuSans-61" x="1063.759766"/>
      <use xlink:href="#DejaVuSans-63" x="1125.039062"/>
      <use xlink:href="#DejaVuSans-79" x="1180.019531"/>
     </g>
    </g>
    <g id="line2d_27">
     <path d="M 216.18875 293.004312 
L 226.18875 293.004312 
L 236.18875 293.004312 
" style="fill: none; stroke: #9467bd; stroke-width: 1.5; stroke-linecap: square"/>
    </g>
    <g id="text_25">
     <!-- SWA Robust Validation Accuracy -->
     <g transform="translate(244.18875 296.504312) scale(0.1 -0.1)">
      <use xlink:href="#DejaVuSans-53"/>
      <use xlink:href="#DejaVuSans-57" x="63.476562"/>
      <use xlink:href="#DejaVuSans-41" x="156.853516"/>
      <use xlink:href="#DejaVuSans-20" x="225.261719"/>
      <use xlink:href="#DejaVuSans-52" x="257.048828"/>
      <use xlink:href="#DejaVuSans-6f" x="322.03125"/>
      <use xlink:href="#DejaVuSans-62" x="383.212891"/>
      <use xlink:href="#DejaVuSans-75" x="446.689453"/>
      <use xlink:href="#DejaVuSans-73" x="510.068359"/>
      <use xlink:href="#DejaVuSans-74" x="562.167969"/>
      <use xlink:href="#DejaVuSans-20" x="601.376953"/>
      <use xlink:href="#DejaVuSans-56" x="633.164062"/>
      <use xlink:href="#DejaVuSans-61" x="693.822266"/>
      <use xlink:href="#DejaVuSans-6c" x="755.101562"/>
      <use xlink:href="#DejaVuSans-69" x="782.884766"/>
      <use xlink:href="#DejaVuSans-64" x="810.667969"/>
      <use xlink:href="#DejaVuSans-61" x="874.144531"/>
      <use xlink:href="#DejaVuSans-74" x="935.423828"/>
      <use xlink:href="#DejaVuSans-69" x="974.632812"/>
      <use xlink:href="#DejaVuSans-6f" x="1002.416016"/>
      <use xlink:href="#DejaVuSans-6e" x="1063.597656"/>
      <use xlink:href="#DejaVuSans-20" x="1126.976562"/>
      <use xlink:href="#DejaVuSans-41" x="1158.763672"/>
      <use xlink:href="#DejaVuSans-63" x="1225.421875"/>
      <use xlink:href="#DejaVuSans-63" x="1280.402344"/>
      <use xlink:href="#DejaVuSans-75" x="1335.382812"/>
      <use xlink:href="#DejaVuSans-72" x="1398.761719"/>
      <use xlink:href="#DejaVuSans-61" x="1439.875"/>
      <use xlink:href="#DejaVuSans-63" x="1501.154297"/>
      <use xlink:href="#DejaVuSans-79" x="1556.134766"/>
     </g>
    </g>
   </g>
  </g>
 </g>
 <defs>
  <clipPath id="pa19107e04e">
   <rect x="57.6" y="41.472" width="357.12" height="266.112"/>
  </clipPath>
 </defs>
</svg>
