<?xml version="1.0" encoding="utf-8" standalone="no"?>
<!DOCTYPE svg PUBLIC "-//W3C//DTD SVG 1.1//EN"
  "http://www.w3.org/Graphics/SVG/1.1/DTD/svg11.dtd">
<svg xmlns:xlink="http://www.w3.org/1999/xlink" width="460.8pt" height="345.6pt" viewBox="0 0 460.8 345.6" xmlns="http://www.w3.org/2000/svg" version="1.1">
 <metadata>
  <rdf:RDF xmlns:dc="http://purl.org/dc/elements/1.1/" xmlns:cc="http://creativecommons.org/ns#" xmlns:rdf="http://www.w3.org/1999/02/22-rdf-syntax-ns#">
   <cc:Work>
    <dc:type rdf:resource="http://purl.org/dc/dcmitype/StillImage"/>
    <dc:date>2025-06-28T22:15:01.312984</dc:date>
    <dc:format>image/svg+xml</dc:format>
    <dc:creator>
     <cc:Agent>
      <dc:title>Matplotlib v3.9.1, https://matplotlib.org/</dc:title>
     </cc:Agent>
    </dc:creator>
   </cc:Work>
  </rdf:RDF>
 </metadata>
 <defs>
  <style type="text/css">*{stroke-linejoin: round; stroke-linecap: butt}</style>
 </defs>
 <g id="figure_1">
  <g id="patch_1">
   <path d="M 0 345.6 
L 460.8 345.6 
L 460.8 0 
L 0 0 
z
" style="fill: #ffffff"/>
  </g>
  <g id="axes_1">
   <g id="patch_2">
    <path d="M 57.6 307.584 
L 414.72 307.584 
L 414.72 41.472 
L 57.6 41.472 
z
" style="fill: #ffffff"/>
   </g>
   <g id="matplotlib.axis_1">
    <g id="xtick_1">
     <g id="line2d_1">
      <defs>
       <path id="m3842c90350" d="M 0 0 
L 0 3.5 
" style="stroke: #000000; stroke-width: 0.8"/>
      </defs>
      <g>
       <use xlink:href="#m3842c90350" x="73.832727" y="307.584" style="stroke: #000000; stroke-width: 0.8"/>
      </g>
     </g>
     <g id="text_1">
      <!-- 1 -->
      <g transform="translate(70.651477 322.182437) scale(0.1 -0.1)">
       <defs>
        <path id="DejaVuSans-31" d="M 794 531 
L 1825 531 
L 1825 4091 
L 703 3866 
L 703 4441 
L 1819 4666 
L 2450 4666 
L 2450 531 
L 3481 531 
L 3481 0 
L 794 0 
L 794 531 
z
" transform="scale(0.015625)"/>
       </defs>
       <use xlink:href="#DejaVuSans-31"/>
      </g>
     </g>
    </g>
    <g id="xtick_2">
     <g id="line2d_2">
      <g>
       <use xlink:href="#m3842c90350" x="109.664165" y="307.584" style="stroke: #000000; stroke-width: 0.8"/>
      </g>
     </g>
     <g id="text_2">
      <!-- 34 -->
      <g transform="translate(103.301665 322.182437) scale(0.1 -0.1)">
       <defs>
        <path id="DejaVuSans-33" d="M 2597 2516 
Q 3050 2419 3304 2112 
Q 3559 1806 3559 1356 
Q 3559 666 3084 287 
Q 2609 -91 1734 -91 
Q 1441 -91 1130 -33 
Q 819 25 488 141 
L 488 750 
Q 750 597 1062 519 
Q 1375 441 1716 441 
Q 2309 441 2620 675 
Q 2931 909 2931 1356 
Q 2931 1769 2642 2001 
Q 2353 2234 1838 2234 
L 1294 2234 
L 1294 2753 
L 1863 2753 
Q 2328 2753 2575 2939 
Q 2822 3125 2822 3475 
Q 2822 3834 2567 4026 
Q 2313 4219 1838 4219 
Q 1578 4219 1281 4162 
Q 984 4106 628 3988 
L 628 4550 
Q 988 4650 1302 4700 
Q 1616 4750 1894 4750 
Q 2613 4750 3031 4423 
Q 3450 4097 3450 3541 
Q 3450 3153 3228 2886 
Q 3006 2619 2597 2516 
z
" transform="scale(0.015625)"/>
        <path id="DejaVuSans-34" d="M 2419 4116 
L 825 1625 
L 2419 1625 
L 2419 4116 
z
M 2253 4666 
L 3047 4666 
L 3047 1625 
L 3713 1625 
L 3713 1100 
L 3047 1100 
L 3047 0 
L 2419 0 
L 2419 1100 
L 313 1100 
L 313 1709 
L 2253 4666 
z
" transform="scale(0.015625)"/>
       </defs>
       <use xlink:href="#DejaVuSans-33"/>
       <use xlink:href="#DejaVuSans-34" x="63.623047"/>
      </g>
     </g>
    </g>
    <g id="xtick_3">
     <g id="line2d_3">
      <g>
       <use xlink:href="#m3842c90350" x="145.495604" y="307.584" style="stroke: #000000; stroke-width: 0.8"/>
      </g>
     </g>
     <g id="text_3">
      <!-- 67 -->
      <g transform="translate(139.133104 322.182437) scale(0.1 -0.1)">
       <defs>
        <path id="DejaVuSans-36" d="M 2113 2584 
Q 1688 2584 1439 2293 
Q 1191 2003 1191 1497 
Q 1191 994 1439 701 
Q 1688 409 2113 409 
Q 2538 409 2786 701 
Q 3034 994 3034 1497 
Q 3034 2003 2786 2293 
Q 2538 2584 2113 2584 
z
M 3366 4563 
L 3366 3988 
Q 3128 4100 2886 4159 
Q 2644 4219 2406 4219 
Q 1781 4219 1451 3797 
Q 1122 3375 1075 2522 
Q 1259 2794 1537 2939 
Q 1816 3084 2150 3084 
Q 2853 3084 3261 2657 
Q 3669 2231 3669 1497 
Q 3669 778 3244 343 
Q 2819 -91 2113 -91 
Q 1303 -91 875 529 
Q 447 1150 447 2328 
Q 447 3434 972 4092 
Q 1497 4750 2381 4750 
Q 2619 4750 2861 4703 
Q 3103 4656 3366 4563 
z
" transform="scale(0.015625)"/>
        <path id="DejaVuSans-37" d="M 525 4666 
L 3525 4666 
L 3525 4397 
L 1831 0 
L 1172 0 
L 2766 4134 
L 525 4134 
L 525 4666 
z
" transform="scale(0.015625)"/>
       </defs>
       <use xlink:href="#DejaVuSans-36"/>
       <use xlink:href="#DejaVuSans-37" x="63.623047"/>
      </g>
     </g>
    </g>
    <g id="xtick_4">
     <g id="line2d_4">
      <g>
       <use xlink:href="#m3842c90350" x="181.327042" y="307.584" style="stroke: #000000; stroke-width: 0.8"/>
      </g>
     </g>
     <g id="text_4">
      <!-- 100 -->
      <g transform="translate(171.783292 322.182437) scale(0.1 -0.1)">
       <defs>
        <path id="DejaVuSans-30" d="M 2034 4250 
Q 1547 4250 1301 3770 
Q 1056 3291 1056 2328 
Q 1056 1369 1301 889 
Q 1547 409 2034 409 
Q 2525 409 2770 889 
Q 3016 1369 3016 2328 
Q 3016 3291 2770 3770 
Q 2525 4250 2034 4250 
z
M 2034 4750 
Q 2819 4750 3233 4129 
Q 3647 3509 3647 2328 
Q 3647 1150 3233 529 
Q 2819 -91 2034 -91 
Q 1250 -91 836 529 
Q 422 1150 422 2328 
Q 422 3509 836 4129 
Q 1250 4750 2034 4750 
z
" transform="scale(0.015625)"/>
       </defs>
       <use xlink:href="#DejaVuSans-31"/>
       <use xlink:href="#DejaVuSans-30" x="63.623047"/>
       <use xlink:href="#DejaVuSans-30" x="127.246094"/>
      </g>
     </g>
    </g>
    <g id="xtick_5">
     <g id="line2d_5">
      <g>
       <use xlink:href="#m3842c90350" x="217.15848" y="307.584" style="stroke: #000000; stroke-width: 0.8"/>
      </g>
     </g>
     <g id="text_5">
      <!-- 133 -->
      <g transform="translate(207.61473 322.182437) scale(0.1 -0.1)">
       <use xlink:href="#DejaVuSans-31"/>
       <use xlink:href="#DejaVuSans-33" x="63.623047"/>
       <use xlink:href="#DejaVuSans-33" x="127.246094"/>
      </g>
     </g>
    </g>
    <g id="xtick_6">
     <g id="line2d_6">
      <g>
       <use xlink:href="#m3842c90350" x="254.075719" y="307.584" style="stroke: #000000; stroke-width: 0.8"/>
      </g>
     </g>
     <g id="text_6">
      <!-- 167 -->
      <g transform="translate(244.531969 322.182437) scale(0.1 -0.1)">
       <use xlink:href="#DejaVuSans-31"/>
       <use xlink:href="#DejaVuSans-36" x="63.623047"/>
       <use xlink:href="#DejaVuSans-37" x="127.246094"/>
      </g>
     </g>
    </g>
    <g id="xtick_7">
     <g id="line2d_7">
      <g>
       <use xlink:href="#m3842c90350" x="289.907157" y="307.584" style="stroke: #000000; stroke-width: 0.8"/>
      </g>
     </g>
     <g id="text_7">
      <!-- 200 -->
      <g transform="translate(280.363407 322.182437) scale(0.1 -0.1)">
       <defs>
        <path id="DejaVuSans-32" d="M 1228 531 
L 3431 531 
L 3431 0 
L 469 0 
L 469 531 
Q 828 903 1448 1529 
Q 2069 2156 2228 2338 
Q 2531 2678 2651 2914 
Q 2772 3150 2772 3378 
Q 2772 3750 2511 3984 
Q 2250 4219 1831 4219 
Q 1534 4219 1204 4116 
Q 875 4013 500 3803 
L 500 4441 
Q 881 4594 1212 4672 
Q 1544 4750 1819 4750 
Q 2544 4750 2975 4387 
Q 3406 4025 3406 3419 
Q 3406 3131 3298 2873 
Q 3191 2616 2906 2266 
Q 2828 2175 2409 1742 
Q 1991 1309 1228 531 
z
" transform="scale(0.015625)"/>
       </defs>
       <use xlink:href="#DejaVuSans-32"/>
       <use xlink:href="#DejaVuSans-30" x="63.623047"/>
       <use xlink:href="#DejaVuSans-30" x="127.246094"/>
      </g>
     </g>
    </g>
    <g id="xtick_8">
     <g id="line2d_8">
      <g>
       <use xlink:href="#m3842c90350" x="325.738595" y="307.584" style="stroke: #000000; stroke-width: 0.8"/>
      </g>
     </g>
     <g id="text_8">
      <!-- 233 -->
      <g transform="translate(316.194845 322.182437) scale(0.1 -0.1)">
       <use xlink:href="#DejaVuSans-32"/>
       <use xlink:href="#DejaVuSans-33" x="63.623047"/>
       <use xlink:href="#DejaVuSans-33" x="127.246094"/>
      </g>
     </g>
    </g>
    <g id="xtick_9">
     <g id="line2d_9">
      <g>
       <use xlink:href="#m3842c90350" x="361.570033" y="307.584" style="stroke: #000000; stroke-width: 0.8"/>
      </g>
     </g>
     <g id="text_9">
      <!-- 266 -->
      <g transform="translate(352.026283 322.182437) scale(0.1 -0.1)">
       <use xlink:href="#DejaVuSans-32"/>
       <use xlink:href="#DejaVuSans-36" x="63.623047"/>
       <use xlink:href="#DejaVuSans-36" x="127.246094"/>
      </g>
     </g>
    </g>
    <g id="xtick_10">
     <g id="line2d_10">
      <g>
       <use xlink:href="#m3842c90350" x="398.487273" y="307.584" style="stroke: #000000; stroke-width: 0.8"/>
      </g>
     </g>
     <g id="text_10">
      <!-- 300 -->
      <g transform="translate(388.943523 322.182437) scale(0.1 -0.1)">
       <use xlink:href="#DejaVuSans-33"/>
       <use xlink:href="#DejaVuSans-30" x="63.623047"/>
       <use xlink:href="#DejaVuSans-30" x="127.246094"/>
      </g>
     </g>
    </g>
    <g id="text_11">
     <!-- Epochs -->
     <g transform="translate(218.244375 335.860562) scale(0.1 -0.1)">
      <defs>
       <path id="DejaVuSans-45" d="M 628 4666 
L 3578 4666 
L 3578 4134 
L 1259 4134 
L 1259 2753 
L 3481 2753 
L 3481 2222 
L 1259 2222 
L 1259 531 
L 3634 531 
L 3634 0 
L 628 0 
L 628 4666 
z
" transform="scale(0.015625)"/>
       <path id="DejaVuSans-70" d="M 1159 525 
L 1159 -1331 
L 581 -1331 
L 581 3500 
L 1159 3500 
L 1159 2969 
Q 1341 3281 1617 3432 
Q 1894 3584 2278 3584 
Q 2916 3584 3314 3078 
Q 3713 2572 3713 1747 
Q 3713 922 3314 415 
Q 2916 -91 2278 -91 
Q 1894 -91 1617 61 
Q 1341 213 1159 525 
z
M 3116 1747 
Q 3116 2381 2855 2742 
Q 2594 3103 2138 3103 
Q 1681 3103 1420 2742 
Q 1159 2381 1159 1747 
Q 1159 1113 1420 752 
Q 1681 391 2138 391 
Q 2594 391 2855 752 
Q 3116 1113 3116 1747 
z
" transform="scale(0.015625)"/>
       <path id="DejaVuSans-6f" d="M 1959 3097 
Q 1497 3097 1228 2736 
Q 959 2375 959 1747 
Q 959 1119 1226 758 
Q 1494 397 1959 397 
Q 2419 397 2687 759 
Q 2956 1122 2956 1747 
Q 2956 2369 2687 2733 
Q 2419 3097 1959 3097 
z
M 1959 3584 
Q 2709 3584 3137 3096 
Q 3566 2609 3566 1747 
Q 3566 888 3137 398 
Q 2709 -91 1959 -91 
Q 1206 -91 779 398 
Q 353 888 353 1747 
Q 353 2609 779 3096 
Q 1206 3584 1959 3584 
z
" transform="scale(0.015625)"/>
       <path id="DejaVuSans-63" d="M 3122 3366 
L 3122 2828 
Q 2878 2963 2633 3030 
Q 2388 3097 2138 3097 
Q 1578 3097 1268 2742 
Q 959 2388 959 1747 
Q 959 1106 1268 751 
Q 1578 397 2138 397 
Q 2388 397 2633 464 
Q 2878 531 3122 666 
L 3122 134 
Q 2881 22 2623 -34 
Q 2366 -91 2075 -91 
Q 1284 -91 818 406 
Q 353 903 353 1747 
Q 353 2603 823 3093 
Q 1294 3584 2113 3584 
Q 2378 3584 2631 3529 
Q 2884 3475 3122 3366 
z
" transform="scale(0.015625)"/>
       <path id="DejaVuSans-68" d="M 3513 2113 
L 3513 0 
L 2938 0 
L 2938 2094 
Q 2938 2591 2744 2837 
Q 2550 3084 2163 3084 
Q 1697 3084 1428 2787 
Q 1159 2491 1159 1978 
L 1159 0 
L 581 0 
L 581 4863 
L 1159 4863 
L 1159 2956 
Q 1366 3272 1645 3428 
Q 1925 3584 2291 3584 
Q 2894 3584 3203 3211 
Q 3513 2838 3513 2113 
z
" transform="scale(0.015625)"/>
       <path id="DejaVuSans-73" d="M 2834 3397 
L 2834 2853 
Q 2591 2978 2328 3040 
Q 2066 3103 1784 3103 
Q 1356 3103 1142 2972 
Q 928 2841 928 2578 
Q 928 2378 1081 2264 
Q 1234 2150 1697 2047 
L 1894 2003 
Q 2506 1872 2764 1633 
Q 3022 1394 3022 966 
Q 3022 478 2636 193 
Q 2250 -91 1575 -91 
Q 1294 -91 989 -36 
Q 684 19 347 128 
L 347 722 
Q 666 556 975 473 
Q 1284 391 1588 391 
Q 1994 391 2212 530 
Q 2431 669 2431 922 
Q 2431 1156 2273 1281 
Q 2116 1406 1581 1522 
L 1381 1569 
Q 847 1681 609 1914 
Q 372 2147 372 2553 
Q 372 3047 722 3315 
Q 1072 3584 1716 3584 
Q 2034 3584 2315 3537 
Q 2597 3491 2834 3397 
z
" transform="scale(0.015625)"/>
      </defs>
      <use xlink:href="#DejaVuSans-45"/>
      <use xlink:href="#DejaVuSans-70" x="63.183594"/>
      <use xlink:href="#DejaVuSans-6f" x="126.660156"/>
      <use xlink:href="#DejaVuSans-63" x="187.841797"/>
      <use xlink:href="#DejaVuSans-68" x="242.822266"/>
      <use xlink:href="#DejaVuSans-73" x="306.201172"/>
     </g>
    </g>
   </g>
   <g id="matplotlib.axis_2">
    <g id="ytick_1">
     <g id="line2d_11">
      <defs>
       <path id="mba02bce374" d="M 0 0 
L -3.5 0 
" style="stroke: #000000; stroke-width: 0.8"/>
      </defs>
      <g>
       <use xlink:href="#mba02bce374" x="57.6" y="288.693243" style="stroke: #000000; stroke-width: 0.8"/>
      </g>
     </g>
     <g id="text_12">
      <!-- 30 -->
      <g transform="translate(37.875 292.492462) scale(0.1 -0.1)">
       <use xlink:href="#DejaVuSans-33"/>
       <use xlink:href="#DejaVuSans-30" x="63.623047"/>
      </g>
     </g>
    </g>
    <g id="ytick_2">
     <g id="line2d_12">
      <g>
       <use xlink:href="#mba02bce374" x="57.6" y="253.165101" style="stroke: #000000; stroke-width: 0.8"/>
      </g>
     </g>
     <g id="text_13">
      <!-- 40 -->
      <g transform="translate(37.875 256.96432) scale(0.1 -0.1)">
       <use xlink:href="#DejaVuSans-34"/>
       <use xlink:href="#DejaVuSans-30" x="63.623047"/>
      </g>
     </g>
    </g>
    <g id="ytick_3">
     <g id="line2d_13">
      <g>
       <use xlink:href="#mba02bce374" x="57.6" y="217.636959" style="stroke: #000000; stroke-width: 0.8"/>
      </g>
     </g>
     <g id="text_14">
      <!-- 50 -->
      <g transform="translate(37.875 221.436178) scale(0.1 -0.1)">
       <defs>
        <path id="DejaVuSans-35" d="M 691 4666 
L 3169 4666 
L 3169 4134 
L 1269 4134 
L 1269 2991 
Q 1406 3038 1543 3061 
Q 1681 3084 1819 3084 
Q 2600 3084 3056 2656 
Q 3513 2228 3513 1497 
Q 3513 744 3044 326 
Q 2575 -91 1722 -91 
Q 1428 -91 1123 -41 
Q 819 9 494 109 
L 494 744 
Q 775 591 1075 516 
Q 1375 441 1709 441 
Q 2250 441 2565 725 
Q 2881 1009 2881 1497 
Q 2881 1984 2565 2268 
Q 2250 2553 1709 2553 
Q 1456 2553 1204 2497 
Q 953 2441 691 2322 
L 691 4666 
z
" transform="scale(0.015625)"/>
       </defs>
       <use xlink:href="#DejaVuSans-35"/>
       <use xlink:href="#DejaVuSans-30" x="63.623047"/>
      </g>
     </g>
    </g>
    <g id="ytick_4">
     <g id="line2d_14">
      <g>
       <use xlink:href="#mba02bce374" x="57.6" y="182.108817" style="stroke: #000000; stroke-width: 0.8"/>
      </g>
     </g>
     <g id="text_15">
      <!-- 60 -->
      <g transform="translate(37.875 185.908036) scale(0.1 -0.1)">
       <use xlink:href="#DejaVuSans-36"/>
       <use xlink:href="#DejaVuSans-30" x="63.623047"/>
      </g>
     </g>
    </g>
    <g id="ytick_5">
     <g id="line2d_15">
      <g>
       <use xlink:href="#mba02bce374" x="57.6" y="146.580675" style="stroke: #000000; stroke-width: 0.8"/>
      </g>
     </g>
     <g id="text_16">
      <!-- 70 -->
      <g transform="translate(37.875 150.379894) scale(0.1 -0.1)">
       <use xlink:href="#DejaVuSans-37"/>
       <use xlink:href="#DejaVuSans-30" x="63.623047"/>
      </g>
     </g>
    </g>
    <g id="ytick_6">
     <g id="line2d_16">
      <g>
       <use xlink:href="#mba02bce374" x="57.6" y="111.052534" style="stroke: #000000; stroke-width: 0.8"/>
      </g>
     </g>
     <g id="text_17">
      <!-- 80 -->
      <g transform="translate(37.875 114.851752) scale(0.1 -0.1)">
       <defs>
        <path id="DejaVuSans-38" d="M 2034 2216 
Q 1584 2216 1326 1975 
Q 1069 1734 1069 1313 
Q 1069 891 1326 650 
Q 1584 409 2034 409 
Q 2484 409 2743 651 
Q 3003 894 3003 1313 
Q 3003 1734 2745 1975 
Q 2488 2216 2034 2216 
z
M 1403 2484 
Q 997 2584 770 2862 
Q 544 3141 544 3541 
Q 544 4100 942 4425 
Q 1341 4750 2034 4750 
Q 2731 4750 3128 4425 
Q 3525 4100 3525 3541 
Q 3525 3141 3298 2862 
Q 3072 2584 2669 2484 
Q 3125 2378 3379 2068 
Q 3634 1759 3634 1313 
Q 3634 634 3220 271 
Q 2806 -91 2034 -91 
Q 1263 -91 848 271 
Q 434 634 434 1313 
Q 434 1759 690 2068 
Q 947 2378 1403 2484 
z
M 1172 3481 
Q 1172 3119 1398 2916 
Q 1625 2713 2034 2713 
Q 2441 2713 2670 2916 
Q 2900 3119 2900 3481 
Q 2900 3844 2670 4047 
Q 2441 4250 2034 4250 
Q 1625 4250 1398 4047 
Q 1172 3844 1172 3481 
z
" transform="scale(0.015625)"/>
       </defs>
       <use xlink:href="#DejaVuSans-38"/>
       <use xlink:href="#DejaVuSans-30" x="63.623047"/>
      </g>
     </g>
    </g>
    <g id="ytick_7">
     <g id="line2d_17">
      <g>
       <use xlink:href="#mba02bce374" x="57.6" y="75.524392" style="stroke: #000000; stroke-width: 0.8"/>
      </g>
     </g>
     <g id="text_18">
      <!-- 90 -->
      <g transform="translate(37.875 79.32361) scale(0.1 -0.1)">
       <defs>
        <path id="DejaVuSans-39" d="M 703 97 
L 703 672 
Q 941 559 1184 500 
Q 1428 441 1663 441 
Q 2288 441 2617 861 
Q 2947 1281 2994 2138 
Q 2813 1869 2534 1725 
Q 2256 1581 1919 1581 
Q 1219 1581 811 2004 
Q 403 2428 403 3163 
Q 403 3881 828 4315 
Q 1253 4750 1959 4750 
Q 2769 4750 3195 4129 
Q 3622 3509 3622 2328 
Q 3622 1225 3098 567 
Q 2575 -91 1691 -91 
Q 1453 -91 1209 -44 
Q 966 3 703 97 
z
M 1959 2075 
Q 2384 2075 2632 2365 
Q 2881 2656 2881 3163 
Q 2881 3666 2632 3958 
Q 2384 4250 1959 4250 
Q 1534 4250 1286 3958 
Q 1038 3666 1038 3163 
Q 1038 2656 1286 2365 
Q 1534 2075 1959 2075 
z
" transform="scale(0.015625)"/>
       </defs>
       <use xlink:href="#DejaVuSans-39"/>
       <use xlink:href="#DejaVuSans-30" x="63.623047"/>
      </g>
     </g>
    </g>
    <g id="text_19">
     <!-- Accuracy -->
     <g transform="translate(31.795312 197.356125) rotate(-90) scale(0.1 -0.1)">
      <defs>
       <path id="DejaVuSans-41" d="M 2188 4044 
L 1331 1722 
L 3047 1722 
L 2188 4044 
z
M 1831 4666 
L 2547 4666 
L 4325 0 
L 3669 0 
L 3244 1197 
L 1141 1197 
L 716 0 
L 50 0 
L 1831 4666 
z
" transform="scale(0.015625)"/>
       <path id="DejaVuSans-75" d="M 544 1381 
L 544 3500 
L 1119 3500 
L 1119 1403 
Q 1119 906 1312 657 
Q 1506 409 1894 409 
Q 2359 409 2629 706 
Q 2900 1003 2900 1516 
L 2900 3500 
L 3475 3500 
L 3475 0 
L 2900 0 
L 2900 538 
Q 2691 219 2414 64 
Q 2138 -91 1772 -91 
Q 1169 -91 856 284 
Q 544 659 544 1381 
z
M 1991 3584 
L 1991 3584 
z
" transform="scale(0.015625)"/>
       <path id="DejaVuSans-72" d="M 2631 2963 
Q 2534 3019 2420 3045 
Q 2306 3072 2169 3072 
Q 1681 3072 1420 2755 
Q 1159 2438 1159 1844 
L 1159 0 
L 581 0 
L 581 3500 
L 1159 3500 
L 1159 2956 
Q 1341 3275 1631 3429 
Q 1922 3584 2338 3584 
Q 2397 3584 2469 3576 
Q 2541 3569 2628 3553 
L 2631 2963 
z
" transform="scale(0.015625)"/>
       <path id="DejaVuSans-61" d="M 2194 1759 
Q 1497 1759 1228 1600 
Q 959 1441 959 1056 
Q 959 750 1161 570 
Q 1363 391 1709 391 
Q 2188 391 2477 730 
Q 2766 1069 2766 1631 
L 2766 1759 
L 2194 1759 
z
M 3341 1997 
L 3341 0 
L 2766 0 
L 2766 531 
Q 2569 213 2275 61 
Q 1981 -91 1556 -91 
Q 1019 -91 701 211 
Q 384 513 384 1019 
Q 384 1609 779 1909 
Q 1175 2209 1959 2209 
L 2766 2209 
L 2766 2266 
Q 2766 2663 2505 2880 
Q 2244 3097 1772 3097 
Q 1472 3097 1187 3025 
Q 903 2953 641 2809 
L 641 3341 
Q 956 3463 1253 3523 
Q 1550 3584 1831 3584 
Q 2591 3584 2966 3190 
Q 3341 2797 3341 1997 
z
" transform="scale(0.015625)"/>
       <path id="DejaVuSans-79" d="M 2059 -325 
Q 1816 -950 1584 -1140 
Q 1353 -1331 966 -1331 
L 506 -1331 
L 506 -850 
L 844 -850 
Q 1081 -850 1212 -737 
Q 1344 -625 1503 -206 
L 1606 56 
L 191 3500 
L 800 3500 
L 1894 763 
L 2988 3500 
L 3597 3500 
L 2059 -325 
z
" transform="scale(0.015625)"/>
      </defs>
      <use xlink:href="#DejaVuSans-41"/>
      <use xlink:href="#DejaVuSans-63" x="66.658203"/>
      <use xlink:href="#DejaVuSans-63" x="121.638672"/>
      <use xlink:href="#DejaVuSans-75" x="176.619141"/>
      <use xlink:href="#DejaVuSans-72" x="239.998047"/>
      <use xlink:href="#DejaVuSans-61" x="281.111328"/>
      <use xlink:href="#DejaVuSans-63" x="342.390625"/>
      <use xlink:href="#DejaVuSans-79" x="397.371094"/>
     </g>
    </g>
   </g>
   <g id="line2d_18">
    <path d="M 73.832727 295.488 
L 74.918528 236.529049 
L 76.00433 204.393844 
L 77.090131 187.020583 
L 78.175932 174.017283 
L 79.261733 164.966489 
L 80.347534 157.212472 
L 81.433335 154.654446 
L 82.519137 147.717576 
L 83.604938 143.418671 
L 84.690739 139.61716 
L 85.77654 134.678748 
L 86.862341 130.708478 
L 87.948142 128.896543 
L 90.119745 122.563652 
L 91.205546 118.877607 
L 92.291347 117.918347 
L 93.377148 116.79921 
L 94.462949 117.23443 
L 95.54875 140.771824 
L 96.634552 141.588971 
L 98.806154 136.766026 
L 99.891955 133.994831 
L 100.977756 131.916435 
L 102.063557 131.436805 
L 103.149358 127.70635 
L 104.23516 126.569449 
L 105.320961 126.400691 
L 106.406762 122.07514 
L 107.492563 122.652472 
L 108.578364 122.004083 
L 109.664165 120.014507 
L 110.749967 117.420953 
L 111.835768 116.514985 
L 112.921569 116.79921 
L 114.00737 114.818517 
L 115.093171 114.116836 
L 116.178972 112.047322 
L 118.350575 110.928185 
L 119.436376 107.63295 
L 120.522177 106.815803 
L 121.607978 105.465733 
L 122.693779 106.051948 
L 124.865382 102.632364 
L 125.951183 102.081678 
L 128.122785 98.697622 
L 129.208586 98.262402 
L 130.294387 98.546628 
L 131.380189 95.597792 
L 132.46599 95.899781 
L 133.551791 95.038224 
L 134.637592 95.873135 
L 135.723393 94.611886 
L 136.809194 93.839149 
L 137.894995 92.586782 
L 138.980797 117.385425 
L 140.066598 119.437175 
L 142.2382 115.466905 
L 143.324001 116.950205 
L 144.409802 115.555726 
L 145.495604 114.800753 
L 146.581405 115.680074 
L 147.667206 112.384839 
L 148.753007 112.882233 
L 149.838808 112.473659 
L 150.924609 112.713474 
L 152.01041 111.203528 
L 153.096212 110.73278 
L 154.182013 109.853459 
L 155.267814 110.066628 
L 156.353615 109.542588 
L 157.439416 109.951161 
L 158.525217 108.316867 
L 159.611019 107.72177 
L 160.69682 108.24581 
L 161.782621 106.931269 
L 162.868422 106.806921 
L 163.954223 105.066042 
L 165.040024 107.162202 
L 166.125825 105.590082 
L 167.211627 104.675232 
L 168.297428 104.595294 
L 169.383229 103.671562 
L 170.46903 103.982433 
L 171.554831 102.436959 
L 172.640632 101.664222 
L 173.726434 101.646458 
L 174.812235 100.571732 
L 175.898036 101.406643 
L 179.155439 99.221662 
L 180.24124 97.818301 
L 181.327042 97.214322 
L 182.412843 97.125502 
L 183.498644 96.787985 
L 184.584445 95.979719 
L 185.670246 95.846489 
L 186.756047 95.118162 
L 187.841849 95.02046 
L 188.92765 95.091516 
L 190.013451 93.430575 
L 191.099252 93.697036 
L 192.185053 91.680814 
L 193.270854 92.489079 
L 194.356656 90.996897 
L 195.442457 90.641616 
L 196.528258 90.7482 
L 197.614059 90.286335 
L 199.785661 88.456635 
L 200.871462 88.776389 
L 201.957264 88.536574 
L 203.043065 87.959241 
L 204.128866 86.396003 
L 205.214667 86.911161 
L 206.300468 86.067368 
L 207.386269 85.783143 
L 208.472071 86.475941 
L 209.557872 84.832765 
L 210.643673 85.321277 
L 211.729474 84.317607 
L 212.815275 83.553752 
L 216.072679 83.527106 
L 217.15848 81.564176 
L 218.244281 82.328031 
L 219.330082 83.233998 
L 220.415883 82.434615 
L 221.501684 82.283621 
L 222.587486 81.875047 
L 223.673287 83.100768 
L 224.759088 82.994184 
L 225.844889 104.177838 
L 226.93069 106.62928 
L 228.016491 107.348725 
L 229.102292 107.171084 
L 230.188094 106.247352 
L 231.273895 106.229588 
L 232.359696 105.456851 
L 233.445497 105.261446 
L 234.531298 105.554554 
L 235.617099 104.257776 
L 236.702901 104.879519 
L 237.788702 104.417653 
L 238.874503 103.493921 
L 239.960304 103.66268 
L 241.046105 104.168956 
L 242.131906 103.209696 
L 243.217708 102.410313 
L 244.303509 102.294847 
L 245.38931 103.70709 
L 246.475111 102.081678 
L 247.560912 101.397761 
L 248.646713 102.357021 
L 249.732514 102.685656 
L 250.818316 100.527322 
L 251.904117 100.580614 
L 252.989918 100.962541 
L 254.075719 99.949989 
L 255.16152 101.895155 
L 256.247321 99.825641 
L 257.333123 99.896697 
L 258.418924 99.061786 
L 259.504725 99.870051 
L 260.590526 100.376327 
L 261.676327 98.360105 
L 262.762128 99.026258 
L 263.847929 98.138054 
L 264.933731 99.346011 
L 266.019532 99.745702 
L 267.105333 99.461477 
L 268.191134 98.297931 
L 269.276935 97.667306 
L 270.362736 99.159488 
L 271.448538 96.814631 
L 272.534339 97.329789 
L 273.62014 97.658424 
L 274.705941 96.326119 
L 275.791742 97.560722 
L 276.877543 95.926427 
L 277.963344 98.564392 
L 279.049146 96.921215 
L 280.134947 97.516311 
L 281.220748 96.308355 
L 284.478151 95.580028 
L 285.563953 95.091516 
L 286.649754 96.06854 
L 287.735555 93.412811 
L 288.821356 94.567476 
L 289.907157 94.363189 
L 292.07876 94.514184 
L 293.164561 93.643744 
L 294.250362 92.453551 
L 295.336163 93.359519 
L 296.421964 92.418023 
L 297.507765 92.355849 
L 298.593566 91.52982 
L 299.679368 91.973921 
L 300.765169 91.75187 
L 302.936771 91.467645 
L 304.022572 92.213736 
L 305.108373 90.988015 
L 306.194175 91.778517 
L 307.279976 90.144222 
L 308.365777 90.765965 
L 309.451578 90.686026 
L 310.537379 89.575772 
L 311.62318 90.028756 
L 312.708981 90.170868 
L 313.794783 88.971793 
L 314.880584 88.998439 
L 315.966385 87.941477 
L 317.052186 88.56322 
L 318.137987 88.811917 
L 319.223788 88.17241 
L 320.30959 89.193844 
L 323.566993 87.204268 
L 324.652794 87.186504 
L 325.738595 85.818671 
L 326.824396 86.20948 
L 327.910198 85.694322 
L 328.995999 86.378239 
L 330.0818 84.903821 
L 331.167601 84.912703 
L 332.253402 85.55221 
L 333.339203 84.664006 
L 336.596607 84.655124 
L 337.682408 83.829095 
L 338.768209 84.477483 
L 340.939811 82.49679 
L 344.197215 81.528648 
L 345.283016 81.875047 
L 346.368817 83.225116 
L 347.454618 80.551624 
L 348.54042 80.889141 
L 349.626221 80.373983 
L 350.712022 81.635232 
L 351.797823 80.969079 
L 352.883624 79.912117 
L 353.969425 80.045348 
L 355.055227 78.997268 
L 356.141028 78.872919 
L 357.226829 78.357761 
L 358.31263 79.237082 
L 359.398431 78.366643 
L 360.484232 78.517638 
L 361.570033 77.869249 
L 362.655835 78.446581 
L 363.741636 77.016574 
L 364.827437 79.068324 
L 365.913238 77.505086 
L 366.999039 77.949187 
L 368.08484 77.878131 
L 369.170642 78.464345 
L 370.256443 78.624222 
L 372.428045 80.906905 
L 374.599647 79.752241 
L 375.685448 80.222988 
L 376.77125 81.49312 
L 377.857051 80.480567 
L 378.942852 79.752241 
L 380.028653 80.702618 
L 381.114454 79.556836 
L 382.200255 80.294045 
L 383.286057 79.992056 
L 384.371858 78.926211 
L 385.457659 80.7115 
L 386.54346 80.853613 
L 387.629261 80.400629 
L 388.715062 79.778887 
L 389.800863 80.045348 
L 390.886665 80.57827 
L 391.972466 79.992056 
L 393.058267 79.636774 
L 394.144068 80.347337 
L 395.229869 79.698948 
L 396.31567 80.835849 
L 397.401472 79.894353 
L 398.487273 79.5746 
L 398.487273 79.5746 
" clip-path="url(#p4f89e669a5)" style="fill: none; stroke: #1f77b4; stroke-width: 1.5; stroke-linecap: square"/>
   </g>
   <g id="line2d_19">
    <path d="M 73.832727 227.655895 
L 76.00433 155.746936 
L 77.090131 137.556527 
L 78.175932 141.748848 
L 79.261733 120.503019 
L 80.347534 125.228262 
L 81.433335 109.77352 
L 82.519137 103.27187 
L 83.604938 102.596836 
L 84.690739 101.74416 
L 85.77654 93.892441 
L 86.862341 87.959241 
L 87.948142 90.517268 
L 89.033943 86.928925 
L 90.119745 82.594492 
L 92.291347 80.249635 
L 93.377148 80.000938 
L 94.462949 78.579812 
L 95.54875 104.764052 
L 96.634552 102.206026 
L 97.720353 97.018918 
L 98.806154 97.338671 
L 99.891955 106.647044 
L 100.977756 91.512056 
L 102.063557 91.405471 
L 103.149358 92.222618 
L 104.23516 87.319735 
L 105.320961 83.944561 
L 106.406762 88.101354 
L 107.492563 84.54854 
L 108.578364 82.097098 
L 109.664165 78.508756 
L 110.749967 79.823297 
L 111.835768 79.041678 
L 112.921569 79.148262 
L 114.00737 73.392703 
L 115.093171 76.448123 
L 116.178972 72.930837 
L 117.264773 72.042634 
L 118.350575 72.326859 
L 119.436376 71.261015 
L 120.522177 72.007106 
L 121.607978 70.905733 
L 123.77958 69.946473 
L 124.865382 68.063482 
L 125.951183 67.459503 
L 127.036984 67.246335 
L 128.122785 65.931793 
L 129.208586 65.398871 
L 130.294387 65.398871 
L 131.380189 64.546196 
L 132.46599 65.150174 
L 133.551791 63.977746 
L 134.637592 63.871161 
L 135.723393 64.119858 
L 136.809194 63.586936 
L 137.894995 63.906689 
L 138.980797 76.945517 
L 140.066598 78.117946 
L 141.152399 81.031254 
L 142.2382 82.487907 
L 143.324001 75.062526 
L 144.409802 79.00615 
L 145.495604 76.234955 
L 146.581405 78.864037 
L 147.667206 74.636188 
L 148.753007 76.12837 
L 149.838808 79.112734 
L 150.924609 75.311223 
L 153.096212 72.895309 
L 154.182013 75.808617 
L 155.267814 75.240167 
L 156.353615 73.499288 
L 157.439416 70.97679 
L 158.525217 72.824253 
L 160.69682 70.230699 
L 161.782621 71.971577 
L 162.868422 72.007106 
L 163.954223 71.012318 
L 165.040024 69.662248 
L 166.125825 70.58598 
L 167.211627 71.72288 
L 168.297428 70.941261 
L 169.383229 68.48982 
L 170.46903 66.677884 
L 171.554831 69.946473 
L 172.640632 67.814785 
L 173.726434 67.672672 
L 174.812235 66.962109 
L 175.898036 68.312179 
L 176.983837 69.271439 
L 178.069638 69.697776 
L 179.155439 65.008062 
L 180.24124 66.713412 
L 181.327042 64.688308 
L 182.412843 65.398871 
L 183.498644 65.469928 
L 184.584445 64.47514 
L 185.670246 64.794893 
L 186.756047 65.434399 
L 187.841849 62.55662 
L 188.92765 63.800105 
L 190.013451 62.627676 
L 191.099252 63.444823 
L 192.185053 61.810529 
L 193.270854 63.977746 
L 194.356656 63.551408 
L 195.442457 60.318347 
L 196.528258 61.526304 
L 197.614059 60.780213 
L 198.69986 59.607784 
L 200.871462 60.46046 
L 201.957264 60.531516 
L 203.043065 59.323559 
L 204.128866 59.323559 
L 205.214667 59.039334 
L 206.300468 59.323559 
L 207.386269 59.074862 
L 208.472071 58.15113 
L 209.557872 58.861693 
L 210.643673 58.15113 
L 212.815275 57.156342 
L 213.901076 57.369511 
L 214.986877 57.19187 
L 216.072679 57.760321 
L 217.15848 56.907645 
L 218.244281 56.943173 
L 219.330082 57.19187 
L 220.415883 57.049758 
L 221.501684 57.511624 
L 222.587486 56.907645 
L 223.673287 56.801061 
L 224.759088 57.049758 
L 225.844889 73.037422 
L 226.93069 75.55992 
L 228.016491 72.966365 
L 229.102292 71.367599 
L 230.188094 71.189958 
L 232.359696 74.280907 
L 233.445497 68.987214 
L 234.531298 72.184746 
L 235.617099 71.829465 
L 236.702901 69.946473 
L 237.788702 70.621508 
L 238.874503 69.591192 
L 239.960304 69.982002 
L 241.046105 68.027954 
L 242.131906 68.525348 
L 243.217708 70.763621 
L 244.303509 73.534816 
L 246.475111 67.388447 
L 247.560912 71.758409 
L 248.646713 67.423975 
L 249.732514 68.880629 
L 250.818316 69.164854 
L 251.904117 67.13975 
L 254.075719 67.814785 
L 255.16152 66.073906 
L 256.247321 67.317391 
L 257.333123 69.093798 
L 258.418924 67.637144 
L 259.504725 65.683096 
L 260.590526 66.109434 
L 261.676327 68.063482 
L 262.762128 65.434399 
L 263.847929 65.718625 
L 264.933731 63.977746 
L 266.019532 66.038378 
L 267.105333 66.500244 
L 268.191134 65.150174 
L 269.276935 66.748941 
L 270.362736 68.09901 
L 271.448538 66.144962 
L 272.534339 68.383235 
L 273.62014 66.073906 
L 274.705941 65.931793 
L 275.791742 65.398871 
L 276.877543 63.800105 
L 277.963344 64.581724 
L 279.049146 66.073906 
L 280.134947 65.540984 
L 281.220748 65.718625 
L 282.306549 66.144962 
L 283.39235 65.647568 
L 284.478151 66.073906 
L 285.563953 65.434399 
L 286.649754 64.08433 
L 287.735555 64.865949 
L 288.821356 63.942217 
L 289.907157 63.51588 
L 290.992958 63.800105 
L 292.07876 61.242079 
L 293.164561 62.734261 
L 295.336163 65.150174 
L 296.421964 62.201338 
L 297.507765 62.521092 
L 298.593566 61.810529 
L 299.679368 61.917113 
L 300.765169 61.59736 
L 301.85097 61.561832 
L 302.936771 60.531516 
L 304.022572 61.98817 
L 305.108373 60.993382 
L 306.194175 62.876373 
L 307.279976 60.886797 
L 308.365777 62.450035 
L 309.451578 60.389403 
L 310.537379 61.206551 
L 311.62318 59.607784 
L 312.708981 60.6381 
L 313.794783 60.495988 
L 314.880584 58.54194 
L 315.966385 60.353875 
L 317.052186 60.531516 
L 318.137987 60.06965 
L 319.223788 60.886797 
L 320.30959 60.46046 
L 321.395391 59.039334 
L 322.481192 60.709157 
L 323.566993 61.384191 
L 324.652794 59.074862 
L 325.738595 59.749897 
L 326.824396 59.465672 
L 327.910198 58.044546 
L 328.995999 60.140706 
L 330.0818 58.257715 
L 331.167601 58.54194 
L 332.253402 59.216975 
L 333.339203 59.430143 
L 334.425005 57.440567 
L 335.510806 57.97349 
L 337.682408 58.222187 
L 338.768209 57.369511 
L 339.85401 57.760321 
L 340.939811 56.481308 
L 342.025613 58.826165 
L 343.111414 56.445779 
L 344.197215 58.044546 
L 345.283016 56.197082 
L 346.368817 57.19187 
L 347.454618 57.298455 
L 349.626221 55.166766 
L 350.712022 55.912857 
L 351.797823 56.232611 
L 353.969425 55.237823 
L 355.055227 55.308879 
L 356.141028 55.806273 
L 357.226829 54.775957 
L 358.31263 55.131238 
L 359.398431 56.268139 
L 360.484232 54.953598 
L 361.570033 54.598316 
L 362.655835 54.456204 
L 363.741636 54.847013 
L 364.827437 54.456204 
L 365.913238 54.669372 
L 366.999039 53.816697 
L 368.08484 54.243035 
L 369.170642 55.060182 
L 370.256443 54.847013 
L 372.428045 56.978702 
L 373.513846 56.126026 
L 374.599647 55.983914 
L 375.685448 56.445779 
L 376.77125 55.841801 
L 377.857051 56.978702 
L 378.942852 56.161554 
L 380.028653 55.983914 
L 381.114454 55.308879 
L 382.200255 56.232611 
L 383.286057 55.273351 
L 384.371858 57.333983 
L 385.457659 56.516836 
L 386.54346 56.978702 
L 387.629261 56.445779 
L 388.715062 55.308879 
L 389.800863 56.374723 
L 390.886665 55.593104 
L 391.972466 56.161554 
L 393.058267 55.735217 
L 394.144068 56.197082 
L 395.229869 55.841801 
L 396.31567 55.202295 
L 397.401472 56.019442 
L 398.487273 55.699689 
L 398.487273 55.699689 
" clip-path="url(#p4f89e669a5)" style="fill: none; stroke: #ff7f0e; stroke-width: 1.5; stroke-linecap: square"/>
   </g>
   <g id="line2d_20">
    <path d="M 73.832727 248.877222 
L 74.918528 215.431764 
L 76.00433 188.601891 
L 77.090131 172.062929 
L 78.175932 174.390635 
L 79.261733 158.95427 
L 80.347534 161.89453 
L 81.433335 146.090632 
L 82.519137 136.289765 
L 83.604938 143.150372 
L 85.77654 131.634354 
L 86.862341 125.386301 
L 87.948142 130.286734 
L 89.033943 123.671149 
L 90.119745 118.035651 
L 91.205546 117.055564 
L 92.291347 116.810543 
L 93.377148 116.320499 
L 94.462949 114.605348 
L 95.54875 149.520935 
L 96.634552 142.292796 
L 97.720353 140.822666 
L 98.806154 134.697125 
L 99.891955 144.25297 
L 100.977756 131.756864 
L 102.063557 125.631323 
L 103.149358 130.041713 
L 105.320961 122.813574 
L 106.406762 127.468985 
L 107.492563 124.406214 
L 108.578364 123.916171 
L 109.664165 114.605348 
L 110.749967 118.525694 
L 111.835768 117.668119 
L 112.921569 114.97288 
L 114.00737 114.360326 
L 115.093171 114.360326 
L 116.178972 108.969849 
L 117.264773 111.420066 
L 118.350575 111.542577 
L 119.436376 108.234784 
L 120.522177 112.890196 
L 121.607978 108.112274 
L 122.693779 107.989763 
L 123.77958 103.701883 
L 124.865382 105.907079 
L 125.951183 103.579373 
L 127.036984 103.946905 
L 128.122785 101.496688 
L 129.208586 101.619199 
L 130.294387 99.781537 
L 131.380189 97.698853 
L 132.46599 99.781537 
L 133.551791 99.536515 
L 134.637592 98.80145 
L 135.723393 98.311407 
L 137.894995 99.536515 
L 138.980797 113.380239 
L 140.066598 119.628292 
L 142.2382 122.078509 
L 143.324001 115.585434 
L 144.409802 117.545608 
L 145.495604 115.830456 
L 146.581405 122.691063 
L 147.667206 113.870283 
L 148.753007 118.648205 
L 149.838808 117.668119 
L 150.924609 114.115304 
L 152.01041 117.423097 
L 153.096212 111.910109 
L 154.182013 114.237815 
L 155.267814 113.012707 
L 156.353615 114.605348 
L 157.439416 108.357295 
L 158.525217 108.112274 
L 159.611019 112.890196 
L 160.69682 109.337382 
L 161.782621 109.949936 
L 162.868422 113.992794 
L 163.954223 113.257729 
L 165.040024 105.662057 
L 166.125825 104.926992 
L 168.297428 110.317469 
L 169.383229 107.377209 
L 170.46903 101.986732 
L 171.554831 108.969849 
L 172.640632 104.804481 
L 173.726434 105.662057 
L 174.812235 101.619199 
L 175.898036 107.867252 
L 176.983837 103.701883 
L 178.069638 104.436949 
L 179.155439 102.599286 
L 180.24124 104.314438 
L 181.327042 99.781537 
L 182.412843 99.904048 
L 183.498644 102.721797 
L 184.584445 98.066385 
L 185.670246 101.006645 
L 186.756047 106.1521 
L 187.841849 97.576342 
L 188.92765 94.39106 
L 190.013451 96.963788 
L 191.099252 100.026558 
L 192.185053 95.493658 
L 193.270854 96.718766 
L 194.356656 95.126125 
L 195.442457 97.453831 
L 196.528258 94.268549 
L 197.614059 95.248636 
L 198.69986 93.655995 
L 199.785661 93.901017 
L 200.871462 94.758593 
L 201.957264 92.553398 
L 203.043065 91.328289 
L 204.128866 93.533484 
L 205.214667 91.695822 
L 206.300468 92.308376 
L 207.386269 90.593224 
L 208.472071 90.960757 
L 209.557872 90.470713 
L 210.643673 89.368116 
L 211.729474 87.775475 
L 212.815275 87.897986 
L 213.901076 88.143008 
L 214.986877 87.285432 
L 216.072679 89.858159 
L 217.15848 88.265518 
L 218.244281 87.285432 
L 219.330082 87.775475 
L 220.415883 87.162921 
L 221.501684 88.388029 
L 222.587486 88.143008 
L 223.673287 88.020497 
L 224.759088 87.530453 
L 225.844889 114.97288 
L 226.93069 115.707945 
L 228.016491 114.115304 
L 229.102292 117.055564 
L 230.188094 111.175044 
L 231.273895 106.397122 
L 232.359696 111.787599 
L 233.445497 109.459893 
L 234.531298 115.462924 
L 235.617099 111.420066 
L 236.702901 105.294524 
L 237.788702 112.277642 
L 238.874503 106.887165 
L 239.960304 108.969849 
L 241.046105 108.234784 
L 242.131906 107.867252 
L 244.303509 112.890196 
L 245.38931 106.519633 
L 246.475111 105.784568 
L 247.560912 110.685001 
L 248.646713 102.966818 
L 249.732514 105.539546 
L 250.818316 107.254698 
L 251.904117 107.867252 
L 252.989918 106.397122 
L 254.075719 102.721797 
L 255.16152 105.539546 
L 256.247321 109.582404 
L 257.333123 106.642144 
L 258.418924 110.807512 
L 259.504725 103.21184 
L 260.590526 102.109243 
L 261.676327 109.214871 
L 262.762128 99.536515 
L 263.847929 105.294524 
L 264.933731 101.251667 
L 266.019532 101.986732 
L 267.105333 103.456862 
L 268.191134 99.904048 
L 269.276935 102.966818 
L 270.362736 102.231753 
L 271.448538 101.864221 
L 272.534339 108.847339 
L 273.62014 104.926992 
L 274.705941 105.294524 
L 275.791742 104.314438 
L 276.877543 103.579373 
L 277.963344 103.21184 
L 279.049146 105.417035 
L 280.134947 104.804481 
L 281.220748 101.129156 
L 282.306549 105.049503 
L 283.39235 102.599286 
L 284.478151 104.191927 
L 285.563953 98.311407 
L 286.649754 102.231753 
L 287.735555 104.68197 
L 288.821356 104.926992 
L 289.907157 99.046472 
L 290.992958 101.74171 
L 292.07876 98.433918 
L 293.164561 97.086298 
L 294.250362 101.864221 
L 295.336163 99.168983 
L 296.421964 99.659026 
L 297.507765 98.923961 
L 298.593566 99.536515 
L 299.679368 97.576342 
L 300.765169 94.39106 
L 301.85097 97.086298 
L 302.936771 97.698853 
L 304.022572 96.351233 
L 305.108373 98.923961 
L 306.194175 101.129156 
L 307.279976 97.086298 
L 308.365777 96.596255 
L 309.451578 95.616168 
L 310.537379 99.291493 
L 311.62318 95.616168 
L 312.708981 97.086298 
L 313.794783 96.228723 
L 314.880584 92.92093 
L 315.966385 95.616168 
L 317.052186 91.940843 
L 318.137987 92.92093 
L 319.223788 91.083268 
L 320.30959 91.695822 
L 321.395391 91.573311 
L 322.481192 94.636082 
L 323.566993 93.655995 
L 324.652794 92.185865 
L 325.738595 94.023528 
L 326.824396 92.798419 
L 327.910198 94.023528 
L 328.995999 92.553398 
L 330.0818 89.368116 
L 331.167601 90.715735 
L 332.253402 93.901017 
L 333.339203 92.675908 
L 334.425005 90.715735 
L 335.510806 92.675908 
L 336.596607 91.083268 
L 337.682408 91.573311 
L 338.768209 89.613138 
L 339.85401 89.245605 
L 340.939811 89.613138 
L 342.025613 94.39106 
L 343.111414 90.225692 
L 344.197215 93.288463 
L 345.283016 89.000583 
L 346.368817 87.162921 
L 347.454618 88.265518 
L 348.54042 87.407943 
L 349.626221 85.692791 
L 350.712022 87.285432 
L 351.797823 85.080237 
L 352.883624 85.815302 
L 353.969425 83.365085 
L 355.055227 85.325258 
L 356.141028 84.712704 
L 357.226829 87.285432 
L 358.31263 88.020497 
L 359.398431 87.775475 
L 360.484232 85.447769 
L 361.570033 85.692791 
L 362.655835 83.487596 
L 363.741636 85.202748 
L 364.827437 84.835215 
L 365.913238 83.365085 
L 366.999039 82.752531 
L 368.08484 84.835215 
L 369.170642 84.835215 
L 370.256443 87.162921 
L 371.342244 86.917899 
L 372.428045 89.123094 
L 373.513846 87.775475 
L 375.685448 87.04041 
L 376.77125 88.388029 
L 377.857051 86.305345 
L 378.942852 86.672878 
L 380.028653 89.858159 
L 381.114454 85.57028 
L 382.200255 86.550367 
L 383.286057 87.04041 
L 384.371858 90.715735 
L 385.457659 87.652964 
L 386.54346 89.123094 
L 387.629261 86.182834 
L 388.715062 86.182834 
L 389.800863 87.530453 
L 390.886665 87.530453 
L 391.972466 88.633051 
L 393.058267 86.550367 
L 394.144068 85.692791 
L 395.229869 85.815302 
L 396.31567 88.633051 
L 397.401472 87.652964 
L 398.487273 86.060323 
L 398.487273 86.060323 
" clip-path="url(#p4f89e669a5)" style="fill: none; stroke: #2ca02c; stroke-width: 1.5; stroke-linecap: square"/>
   </g>
   <g id="line2d_21">
    <path d="M 368.08484 54.456204 
L 369.170642 54.562788 
L 370.256443 53.994338 
L 371.342244 54.385147 
L 372.428045 54.13645 
L 373.513846 54.491732 
L 375.685448 53.745641 
L 376.77125 55.166766 
L 377.857051 54.456204 
L 378.942852 54.13645 
L 380.028653 54.100922 
L 381.114454 53.923281 
L 382.200255 54.456204 
L 383.286057 54.171978 
L 384.371858 54.491732 
L 385.457659 55.060182 
L 386.54346 54.491732 
L 387.629261 54.598316 
L 388.715062 54.065394 
L 389.800863 54.13645 
L 390.886665 53.568 
L 391.972466 54.420675 
L 393.058267 53.674584 
L 394.144068 53.887753 
L 395.229869 55.060182 
L 396.31567 54.52726 
L 397.401472 53.603528 
L 398.487273 53.568 
L 398.487273 53.568 
" clip-path="url(#p4f89e669a5)" style="fill: none; stroke: #d62728; stroke-width: 1.5; stroke-linecap: square"/>
   </g>
   <g id="line2d_22">
    <path d="M 368.08484 82.875042 
L 369.170642 83.610107 
L 370.256443 83.610107 
L 371.342244 82.752531 
L 372.428045 84.222661 
L 373.513846 86.182834 
L 374.599647 83.977639 
L 375.685448 82.63002 
L 376.77125 85.57028 
L 377.857051 82.752531 
L 378.942852 82.017466 
L 380.028653 83.732618 
L 381.114454 83.977639 
L 382.200255 83.855128 
L 383.286057 81.404912 
L 384.371858 83.732618 
L 385.457659 83.977639 
L 386.54346 82.752531 
L 387.629261 81.772444 
L 388.715062 80.424825 
L 389.800863 80.424825 
L 390.886665 80.669847 
L 391.972466 81.527423 
L 393.058267 80.669847 
L 394.144068 81.527423 
L 395.229869 82.63002 
L 396.31567 82.63002 
L 397.401472 81.037379 
L 398.487273 80.179803 
L 398.487273 80.179803 
" clip-path="url(#p4f89e669a5)" style="fill: none; stroke: #9467bd; stroke-width: 1.5; stroke-linecap: square"/>
   </g>
   <g id="patch_3">
    <path d="M 57.6 307.584 
L 57.6 41.472 
" style="fill: none; stroke: #000000; stroke-width: 0.8; stroke-linejoin: miter; stroke-linecap: square"/>
   </g>
   <g id="patch_4">
    <path d="M 414.72 307.584 
L 414.72 41.472 
" style="fill: none; stroke: #000000; stroke-width: 0.8; stroke-linejoin: miter; stroke-linecap: square"/>
   </g>
   <g id="patch_5">
    <path d="M 57.6 307.584 
L 414.72 307.584 
" style="fill: none; stroke: #000000; stroke-width: 0.8; stroke-linejoin: miter; stroke-linecap: square"/>
   </g>
   <g id="patch_6">
    <path d="M 57.6 41.472 
L 414.72 41.472 
" style="fill: none; stroke: #000000; stroke-width: 0.8; stroke-linejoin: miter; stroke-linecap: square"/>
   </g>
   <g id="text_20">
    <!-- Learning Curves -->
    <g transform="translate(187.37625 35.472) scale(0.12 -0.12)">
     <defs>
      <path id="DejaVuSans-4c" d="M 628 4666 
L 1259 4666 
L 1259 531 
L 3531 531 
L 3531 0 
L 628 0 
L 628 4666 
z
" transform="scale(0.015625)"/>
      <path id="DejaVuSans-65" d="M 3597 1894 
L 3597 1613 
L 953 1613 
Q 991 1019 1311 708 
Q 1631 397 2203 397 
Q 2534 397 2845 478 
Q 3156 559 3463 722 
L 3463 178 
Q 3153 47 2828 -22 
Q 2503 -91 2169 -91 
Q 1331 -91 842 396 
Q 353 884 353 1716 
Q 353 2575 817 3079 
Q 1281 3584 2069 3584 
Q 2775 3584 3186 3129 
Q 3597 2675 3597 1894 
z
M 3022 2063 
Q 3016 2534 2758 2815 
Q 2500 3097 2075 3097 
Q 1594 3097 1305 2825 
Q 1016 2553 972 2059 
L 3022 2063 
z
" transform="scale(0.015625)"/>
      <path id="DejaVuSans-6e" d="M 3513 2113 
L 3513 0 
L 2938 0 
L 2938 2094 
Q 2938 2591 2744 2837 
Q 2550 3084 2163 3084 
Q 1697 3084 1428 2787 
Q 1159 2491 1159 1978 
L 1159 0 
L 581 0 
L 581 3500 
L 1159 3500 
L 1159 2956 
Q 1366 3272 1645 3428 
Q 1925 3584 2291 3584 
Q 2894 3584 3203 3211 
Q 3513 2838 3513 2113 
z
" transform="scale(0.015625)"/>
      <path id="DejaVuSans-69" d="M 603 3500 
L 1178 3500 
L 1178 0 
L 603 0 
L 603 3500 
z
M 603 4863 
L 1178 4863 
L 1178 4134 
L 603 4134 
L 603 4863 
z
" transform="scale(0.015625)"/>
      <path id="DejaVuSans-67" d="M 2906 1791 
Q 2906 2416 2648 2759 
Q 2391 3103 1925 3103 
Q 1463 3103 1205 2759 
Q 947 2416 947 1791 
Q 947 1169 1205 825 
Q 1463 481 1925 481 
Q 2391 481 2648 825 
Q 2906 1169 2906 1791 
z
M 3481 434 
Q 3481 -459 3084 -895 
Q 2688 -1331 1869 -1331 
Q 1566 -1331 1297 -1286 
Q 1028 -1241 775 -1147 
L 775 -588 
Q 1028 -725 1275 -790 
Q 1522 -856 1778 -856 
Q 2344 -856 2625 -561 
Q 2906 -266 2906 331 
L 2906 616 
Q 2728 306 2450 153 
Q 2172 0 1784 0 
Q 1141 0 747 490 
Q 353 981 353 1791 
Q 353 2603 747 3093 
Q 1141 3584 1784 3584 
Q 2172 3584 2450 3431 
Q 2728 3278 2906 2969 
L 2906 3500 
L 3481 3500 
L 3481 434 
z
" transform="scale(0.015625)"/>
      <path id="DejaVuSans-20" transform="scale(0.015625)"/>
      <path id="DejaVuSans-43" d="M 4122 4306 
L 4122 3641 
Q 3803 3938 3442 4084 
Q 3081 4231 2675 4231 
Q 1875 4231 1450 3742 
Q 1025 3253 1025 2328 
Q 1025 1406 1450 917 
Q 1875 428 2675 428 
Q 3081 428 3442 575 
Q 3803 722 4122 1019 
L 4122 359 
Q 3791 134 3420 21 
Q 3050 -91 2638 -91 
Q 1578 -91 968 557 
Q 359 1206 359 2328 
Q 359 3453 968 4101 
Q 1578 4750 2638 4750 
Q 3056 4750 3426 4639 
Q 3797 4528 4122 4306 
z
" transform="scale(0.015625)"/>
      <path id="DejaVuSans-76" d="M 191 3500 
L 800 3500 
L 1894 563 
L 2988 3500 
L 3597 3500 
L 2284 0 
L 1503 0 
L 191 3500 
z
" transform="scale(0.015625)"/>
     </defs>
     <use xlink:href="#DejaVuSans-4c"/>
     <use xlink:href="#DejaVuSans-65" x="53.962891"/>
     <use xlink:href="#DejaVuSans-61" x="115.486328"/>
     <use xlink:href="#DejaVuSans-72" x="176.765625"/>
     <use xlink:href="#DejaVuSans-6e" x="216.128906"/>
     <use xlink:href="#DejaVuSans-69" x="279.507812"/>
     <use xlink:href="#DejaVuSans-6e" x="307.291016"/>
     <use xlink:href="#DejaVuSans-67" x="370.669922"/>
     <use xlink:href="#DejaVuSans-20" x="434.146484"/>
     <use xlink:href="#DejaVuSans-43" x="465.933594"/>
     <use xlink:href="#DejaVuSans-75" x="535.757812"/>
     <use xlink:href="#DejaVuSans-72" x="599.136719"/>
     <use xlink:href="#DejaVuSans-76" x="640.25"/>
     <use xlink:href="#DejaVuSans-65" x="699.429688"/>
     <use xlink:href="#DejaVuSans-73" x="760.953125"/>
    </g>
   </g>
   <g id="legend_1">
    <g id="patch_7">
     <path d="M 214.18875 302.584 
L 407.72 302.584 
Q 409.72 302.584 409.72 300.584 
L 409.72 228.193375 
Q 409.72 226.193375 407.72 226.193375 
L 214.18875 226.193375 
Q 212.18875 226.193375 212.18875 228.193375 
L 212.18875 300.584 
Q 212.18875 302.584 214.18875 302.584 
z
" style="fill: #ffffff; opacity: 0.8; stroke: #cccccc; stroke-linejoin: miter"/>
    </g>
    <g id="line2d_23">
     <path d="M 216.18875 234.291812 
L 226.18875 234.291812 
L 236.18875 234.291812 
" style="fill: none; stroke: #1f77b4; stroke-width: 1.5; stroke-linecap: square"/>
    </g>
    <g id="text_21">
     <!-- Train Accuracy -->
     <g transform="translate(244.18875 237.791812) scale(0.1 -0.1)">
      <defs>
       <path id="DejaVuSans-54" d="M -19 4666 
L 3928 4666 
L 3928 4134 
L 2272 4134 
L 2272 0 
L 1638 0 
L 1638 4134 
L -19 4134 
L -19 4666 
z
" transform="scale(0.015625)"/>
      </defs>
      <use xlink:href="#DejaVuSans-54"/>
      <use xlink:href="#DejaVuSans-72" x="46.333984"/>
      <use xlink:href="#DejaVuSans-61" x="87.447266"/>
      <use xlink:href="#DejaVuSans-69" x="148.726562"/>
      <use xlink:href="#DejaVuSans-6e" x="176.509766"/>
      <use xlink:href="#DejaVuSans-20" x="239.888672"/>
      <use xlink:href="#DejaVuSans-41" x="271.675781"/>
      <use xlink:href="#DejaVuSans-63" x="338.333984"/>
      <use xlink:href="#DejaVuSans-63" x="393.314453"/>
      <use xlink:href="#DejaVuSans-75" x="448.294922"/>
      <use xlink:href="#DejaVuSans-72" x="511.673828"/>
      <use xlink:href="#DejaVuSans-61" x="552.787109"/>
      <use xlink:href="#DejaVuSans-63" x="614.066406"/>
      <use xlink:href="#DejaVuSans-79" x="669.046875"/>
     </g>
    </g>
    <g id="line2d_24">
     <path d="M 216.18875 248.969937 
L 226.18875 248.969937 
L 236.18875 248.969937 
" style="fill: none; stroke: #ff7f0e; stroke-width: 1.5; stroke-linecap: square"/>
    </g>
    <g id="text_22">
     <!-- Validation Accuracy -->
     <g transform="translate(244.18875 252.469937) scale(0.1 -0.1)">
      <defs>
       <path id="DejaVuSans-56" d="M 1831 0 
L 50 4666 
L 709 4666 
L 2188 738 
L 3669 4666 
L 4325 4666 
L 2547 0 
L 1831 0 
z
" transform="scale(0.015625)"/>
       <path id="DejaVuSans-6c" d="M 603 4863 
L 1178 4863 
L 1178 0 
L 603 0 
L 603 4863 
z
" transform="scale(0.015625)"/>
       <path id="DejaVuSans-64" d="M 2906 2969 
L 2906 4863 
L 3481 4863 
L 3481 0 
L 2906 0 
L 2906 525 
Q 2725 213 2448 61 
Q 2172 -91 1784 -91 
Q 1150 -91 751 415 
Q 353 922 353 1747 
Q 353 2572 751 3078 
Q 1150 3584 1784 3584 
Q 2172 3584 2448 3432 
Q 2725 3281 2906 2969 
z
M 947 1747 
Q 947 1113 1208 752 
Q 1469 391 1925 391 
Q 2381 391 2643 752 
Q 2906 1113 2906 1747 
Q 2906 2381 2643 2742 
Q 2381 3103 1925 3103 
Q 1469 3103 1208 2742 
Q 947 2381 947 1747 
z
" transform="scale(0.015625)"/>
       <path id="DejaVuSans-74" d="M 1172 4494 
L 1172 3500 
L 2356 3500 
L 2356 3053 
L 1172 3053 
L 1172 1153 
Q 1172 725 1289 603 
Q 1406 481 1766 481 
L 2356 481 
L 2356 0 
L 1766 0 
Q 1100 0 847 248 
Q 594 497 594 1153 
L 594 3053 
L 172 3053 
L 172 3500 
L 594 3500 
L 594 4494 
L 1172 4494 
z
" transform="scale(0.015625)"/>
      </defs>
      <use xlink:href="#DejaVuSans-56"/>
      <use xlink:href="#DejaVuSans-61" x="60.658203"/>
      <use xlink:href="#DejaVuSans-6c" x="121.9375"/>
      <use xlink:href="#DejaVuSans-69" x="149.720703"/>
      <use xlink:href="#DejaVuSans-64" x="177.503906"/>
      <use xlink:href="#DejaVuSans-61" x="240.980469"/>
      <use xlink:href="#DejaVuSans-74" x="302.259766"/>
      <use xlink:href="#DejaVuSans-69" x="341.46875"/>
      <use xlink:href="#DejaVuSans-6f" x="369.251953"/>
      <use xlink:href="#DejaVuSans-6e" x="430.433594"/>
      <use xlink:href="#DejaVuSans-20" x="493.8125"/>
      <use xlink:href="#DejaVuSans-41" x="525.599609"/>
      <use xlink:href="#DejaVuSans-63" x="592.257812"/>
      <use xlink:href="#DejaVuSans-63" x="647.238281"/>
      <use xlink:href="#DejaVuSans-75" x="702.21875"/>
      <use xlink:href="#DejaVuSans-72" x="765.597656"/>
      <use xlink:href="#DejaVuSans-61" x="806.710938"/>
      <use xlink:href="#DejaVuSans-63" x="867.990234"/>
      <use xlink:href="#DejaVuSans-79" x="922.970703"/>
     </g>
    </g>
    <g id="line2d_25">
     <path d="M 216.18875 263.648062 
L 226.18875 263.648062 
L 236.18875 263.648062 
" style="fill: none; stroke: #2ca02c; stroke-width: 1.5; stroke-linecap: square"/>
    </g>
    <g id="text_23">
     <!-- Robust Validation Accuracy -->
     <g transform="translate(244.18875 267.148062) scale(0.1 -0.1)">
      <defs>
       <path id="DejaVuSans-52" d="M 2841 2188 
Q 3044 2119 3236 1894 
Q 3428 1669 3622 1275 
L 4263 0 
L 3584 0 
L 2988 1197 
Q 2756 1666 2539 1819 
Q 2322 1972 1947 1972 
L 1259 1972 
L 1259 0 
L 628 0 
L 628 4666 
L 2053 4666 
Q 2853 4666 3247 4331 
Q 3641 3997 3641 3322 
Q 3641 2881 3436 2590 
Q 3231 2300 2841 2188 
z
M 1259 4147 
L 1259 2491 
L 2053 2491 
Q 2509 2491 2742 2702 
Q 2975 2913 2975 3322 
Q 2975 3731 2742 3939 
Q 2509 4147 2053 4147 
L 1259 4147 
z
" transform="scale(0.015625)"/>
       <path id="DejaVuSans-62" d="M 3116 1747 
Q 3116 2381 2855 2742 
Q 2594 3103 2138 3103 
Q 1681 3103 1420 2742 
Q 1159 2381 1159 1747 
Q 1159 1113 1420 752 
Q 1681 391 2138 391 
Q 2594 391 2855 752 
Q 3116 1113 3116 1747 
z
M 1159 2969 
Q 1341 3281 1617 3432 
Q 1894 3584 2278 3584 
Q 2916 3584 3314 3078 
Q 3713 2572 3713 1747 
Q 3713 922 3314 415 
Q 2916 -91 2278 -91 
Q 1894 -91 1617 61 
Q 1341 213 1159 525 
L 1159 0 
L 581 0 
L 581 4863 
L 1159 4863 
L 1159 2969 
z
" transform="scale(0.015625)"/>
      </defs>
      <use xlink:href="#DejaVuSans-52"/>
      <use xlink:href="#DejaVuSans-6f" x="64.982422"/>
      <use xlink:href="#DejaVuSans-62" x="126.164062"/>
      <use xlink:href="#DejaVuSans-75" x="189.640625"/>
      <use xlink:href="#DejaVuSans-73" x="253.019531"/>
      <use xlink:href="#DejaVuSans-74" x="305.119141"/>
      <use xlink:href="#DejaVuSans-20" x="344.328125"/>
      <use xlink:href="#DejaVuSans-56" x="376.115234"/>
      <use xlink:href="#DejaVuSans-61" x="436.773438"/>
      <use xlink:href="#DejaVuSans-6c" x="498.052734"/>
      <use xlink:href="#DejaVuSans-69" x="525.835938"/>
      <use xlink:href="#DejaVuSans-64" x="553.619141"/>
      <use xlink:href="#DejaVuSans-61" x="617.095703"/>
      <use xlink:href="#DejaVuSans-74" x="678.375"/>
      <use xlink:href="#DejaVuSans-69" x="717.583984"/>
      <use xlink:href="#DejaVuSans-6f" x="745.367188"/>
      <use xlink:href="#DejaVuSans-6e" x="806.548828"/>
      <use xlink:href="#DejaVuSans-20" x="869.927734"/>
      <use xlink:href="#DejaVuSans-41" x="901.714844"/>
      <use xlink:href="#DejaVuSans-63" x="968.373047"/>
      <use xlink:href="#DejaVuSans-63" x="1023.353516"/>
      <use xlink:href="#DejaVuSans-75" x="1078.333984"/>
      <use xlink:href="#DejaVuSans-72" x="1141.712891"/>
      <use xlink:href="#DejaVuSans-61" x="1182.826172"/>
      <use xlink:href="#DejaVuSans-63" x="1244.105469"/>
      <use xlink:href="#DejaVuSans-79" x="1299.085938"/>
     </g>
    </g>
    <g id="line2d_26">
     <path d="M 216.18875 278.326188 
L 226.18875 278.326188 
L 236.18875 278.326188 
" style="fill: none; stroke: #d62728; stroke-width: 1.5; stroke-linecap: square"/>
    </g>
    <g id="text_24">
     <!-- SWA Validation Accuracy -->
     <g transform="translate(244.18875 281.826188) scale(0.1 -0.1)">
      <defs>
       <path id="DejaVuSans-53" d="M 3425 4513 
L 3425 3897 
Q 3066 4069 2747 4153 
Q 2428 4238 2131 4238 
Q 1616 4238 1336 4038 
Q 1056 3838 1056 3469 
Q 1056 3159 1242 3001 
Q 1428 2844 1947 2747 
L 2328 2669 
Q 3034 2534 3370 2195 
Q 3706 1856 3706 1288 
Q 3706 609 3251 259 
Q 2797 -91 1919 -91 
Q 1588 -91 1214 -16 
Q 841 59 441 206 
L 441 856 
Q 825 641 1194 531 
Q 1563 422 1919 422 
Q 2459 422 2753 634 
Q 3047 847 3047 1241 
Q 3047 1584 2836 1778 
Q 2625 1972 2144 2069 
L 1759 2144 
Q 1053 2284 737 2584 
Q 422 2884 422 3419 
Q 422 4038 858 4394 
Q 1294 4750 2059 4750 
Q 2388 4750 2728 4690 
Q 3069 4631 3425 4513 
z
" transform="scale(0.015625)"/>
       <path id="DejaVuSans-57" d="M 213 4666 
L 850 4666 
L 1831 722 
L 2809 4666 
L 3519 4666 
L 4500 722 
L 5478 4666 
L 6119 4666 
L 4947 0 
L 4153 0 
L 3169 4050 
L 2175 0 
L 1381 0 
L 213 4666 
z
" transform="scale(0.015625)"/>
      </defs>
      <use xlink:href="#DejaVuSans-53"/>
      <use xlink:href="#DejaVuSans-57" x="63.476562"/>
      <use xlink:href="#DejaVuSans-41" x="156.853516"/>
      <use xlink:href="#DejaVuSans-20" x="225.261719"/>
      <use xlink:href="#DejaVuSans-56" x="257.048828"/>
      <use xlink:href="#DejaVuSans-61" x="317.707031"/>
      <use xlink:href="#DejaVuSans-6c" x="378.986328"/>
      <use xlink:href="#DejaVuSans-69" x="406.769531"/>
      <use xlink:href="#DejaVuSans-64" x="434.552734"/>
      <use xlink:href="#DejaVuSans-61" x="498.029297"/>
      <use xlink:href="#DejaVuSans-74" x="559.308594"/>
      <use xlink:href="#DejaVuSans-69" x="598.517578"/>
      <use xlink:href="#DejaVuSans-6f" x="626.300781"/>
      <use xlink:href="#DejaVuSans-6e" x="687.482422"/>
      <use xlink:href="#DejaVuSans-20" x="750.861328"/>
      <use xlink:href="#DejaVuSans-41" x="782.648438"/>
      <use xlink:href="#DejaVuSans-63" x="849.306641"/>
      <use xlink:href="#DejaVuSans-63" x="904.287109"/>
      <use xlink:href="#DejaVuSans-75" x="959.267578"/>
      <use xlink:href="#DejaVuSans-72" x="1022.646484"/>
      <use xlink:href="#DejaVuSans-61" x="1063.759766"/>
      <use xlink:href="#DejaVuSans-63" x="1125.039062"/>
      <use xlink:href="#DejaVuSans-79" x="1180.019531"/>
     </g>
    </g>
    <g id="line2d_27">
     <path d="M 216.18875 293.004312 
L 226.18875 293.004312 
L 236.18875 293.004312 
" style="fill: none; stroke: #9467bd; stroke-width: 1.5; stroke-linecap: square"/>
    </g>
    <g id="text_25">
     <!-- SWA Robust Validation Accuracy -->
     <g transform="translate(244.18875 296.504312) scale(0.1 -0.1)">
      <use xlink:href="#DejaVuSans-53"/>
      <use xlink:href="#DejaVuSans-57" x="63.476562"/>
      <use xlink:href="#DejaVuSans-41" x="156.853516"/>
      <use xlink:href="#DejaVuSans-20" x="225.261719"/>
      <use xlink:href="#DejaVuSans-52" x="257.048828"/>
      <use xlink:href="#DejaVuSans-6f" x="322.03125"/>
      <use xlink:href="#DejaVuSans-62" x="383.212891"/>
      <use xlink:href="#DejaVuSans-75" x="446.689453"/>
      <use xlink:href="#DejaVuSans-73" x="510.068359"/>
      <use xlink:href="#DejaVuSans-74" x="562.167969"/>
      <use xlink:href="#DejaVuSans-20" x="601.376953"/>
      <use xlink:href="#DejaVuSans-56" x="633.164062"/>
      <use xlink:href="#DejaVuSans-61" x="693.822266"/>
      <use xlink:href="#DejaVuSans-6c" x="755.101562"/>
      <use xlink:href="#DejaVuSans-69" x="782.884766"/>
      <use xlink:href="#DejaVuSans-64" x="810.667969"/>
      <use xlink:href="#DejaVuSans-61" x="874.144531"/>
      <use xlink:href="#DejaVuSans-74" x="935.423828"/>
      <use xlink:href="#DejaVuSans-69" x="974.632812"/>
      <use xlink:href="#DejaVuSans-6f" x="1002.416016"/>
      <use xlink:href="#DejaVuSans-6e" x="1063.597656"/>
      <use xlink:href="#DejaVuSans-20" x="1126.976562"/>
      <use xlink:href="#DejaVuSans-41" x="1158.763672"/>
      <use xlink:href="#DejaVuSans-63" x="1225.421875"/>
      <use xlink:href="#DejaVuSans-63" x="1280.402344"/>
      <use xlink:href="#DejaVuSans-75" x="1335.382812"/>
      <use xlink:href="#DejaVuSans-72" x="1398.761719"/>
      <use xlink:href="#DejaVuSans-61" x="1439.875"/>
      <use xlink:href="#DejaVuSans-63" x="1501.154297"/>
      <use xlink:href="#DejaVuSans-79" x="1556.134766"/>
     </g>
    </g>
   </g>
  </g>
 </g>
 <defs>
  <clipPath id="p4f89e669a5">
   <rect x="57.6" y="41.472" width="357.12" height="266.112"/>
  </clipPath>
 </defs>
</svg>
