<?xml version="1.0" encoding="utf-8" standalone="no"?>
<!DOCTYPE svg PUBLIC "-//W3C//DTD SVG 1.1//EN"
  "http://www.w3.org/Graphics/SVG/1.1/DTD/svg11.dtd">
<svg xmlns:xlink="http://www.w3.org/1999/xlink" width="460.8pt" height="345.6pt" viewBox="0 0 460.8 345.6" xmlns="http://www.w3.org/2000/svg" version="1.1">
 <metadata>
  <rdf:RDF xmlns:dc="http://purl.org/dc/elements/1.1/" xmlns:cc="http://creativecommons.org/ns#" xmlns:rdf="http://www.w3.org/1999/02/22-rdf-syntax-ns#">
   <cc:Work>
    <dc:type rdf:resource="http://purl.org/dc/dcmitype/StillImage"/>
    <dc:date>2025-06-27T02:10:34.567244</dc:date>
    <dc:format>image/svg+xml</dc:format>
    <dc:creator>
     <cc:Agent>
      <dc:title>Matplotlib v3.9.1, https://matplotlib.org/</dc:title>
     </cc:Agent>
    </dc:creator>
   </cc:Work>
  </rdf:RDF>
 </metadata>
 <defs>
  <style type="text/css">*{stroke-linejoin: round; stroke-linecap: butt}</style>
 </defs>
 <g id="figure_1">
  <g id="patch_1">
   <path d="M 0 345.6 
L 460.8 345.6 
L 460.8 0 
L 0 0 
z
" style="fill: #ffffff"/>
  </g>
  <g id="axes_1">
   <g id="patch_2">
    <path d="M 57.6 307.584 
L 414.72 307.584 
L 414.72 41.472 
L 57.6 41.472 
z
" style="fill: #ffffff"/>
   </g>
   <g id="matplotlib.axis_1">
    <g id="xtick_1">
     <g id="line2d_1">
      <defs>
       <path id="m25e685247e" d="M 0 0 
L 0 3.5 
" style="stroke: #000000; stroke-width: 0.8"/>
      </defs>
      <g>
       <use xlink:href="#m25e685247e" x="73.832727" y="307.584" style="stroke: #000000; stroke-width: 0.8"/>
      </g>
     </g>
     <g id="text_1">
      <!-- 1 -->
      <g transform="translate(70.651477 322.182437) scale(0.1 -0.1)">
       <defs>
        <path id="DejaVuSans-31" d="M 794 531 
L 1825 531 
L 1825 4091 
L 703 3866 
L 703 4441 
L 1819 4666 
L 2450 4666 
L 2450 531 
L 3481 531 
L 3481 0 
L 794 0 
L 794 531 
z
" transform="scale(0.015625)"/>
       </defs>
       <use xlink:href="#DejaVuSans-31"/>
      </g>
     </g>
    </g>
    <g id="xtick_2">
     <g id="line2d_2">
      <g>
       <use xlink:href="#m25e685247e" x="109.664165" y="307.584" style="stroke: #000000; stroke-width: 0.8"/>
      </g>
     </g>
     <g id="text_2">
      <!-- 34 -->
      <g transform="translate(103.301665 322.182437) scale(0.1 -0.1)">
       <defs>
        <path id="DejaVuSans-33" d="M 2597 2516 
Q 3050 2419 3304 2112 
Q 3559 1806 3559 1356 
Q 3559 666 3084 287 
Q 2609 -91 1734 -91 
Q 1441 -91 1130 -33 
Q 819 25 488 141 
L 488 750 
Q 750 597 1062 519 
Q 1375 441 1716 441 
Q 2309 441 2620 675 
Q 2931 909 2931 1356 
Q 2931 1769 2642 2001 
Q 2353 2234 1838 2234 
L 1294 2234 
L 1294 2753 
L 1863 2753 
Q 2328 2753 2575 2939 
Q 2822 3125 2822 3475 
Q 2822 3834 2567 4026 
Q 2313 4219 1838 4219 
Q 1578 4219 1281 4162 
Q 984 4106 628 3988 
L 628 4550 
Q 988 4650 1302 4700 
Q 1616 4750 1894 4750 
Q 2613 4750 3031 4423 
Q 3450 4097 3450 3541 
Q 3450 3153 3228 2886 
Q 3006 2619 2597 2516 
z
" transform="scale(0.015625)"/>
        <path id="DejaVuSans-34" d="M 2419 4116 
L 825 1625 
L 2419 1625 
L 2419 4116 
z
M 2253 4666 
L 3047 4666 
L 3047 1625 
L 3713 1625 
L 3713 1100 
L 3047 1100 
L 3047 0 
L 2419 0 
L 2419 1100 
L 313 1100 
L 313 1709 
L 2253 4666 
z
" transform="scale(0.015625)"/>
       </defs>
       <use xlink:href="#DejaVuSans-33"/>
       <use xlink:href="#DejaVuSans-34" x="63.623047"/>
      </g>
     </g>
    </g>
    <g id="xtick_3">
     <g id="line2d_3">
      <g>
       <use xlink:href="#m25e685247e" x="145.495604" y="307.584" style="stroke: #000000; stroke-width: 0.8"/>
      </g>
     </g>
     <g id="text_3">
      <!-- 67 -->
      <g transform="translate(139.133104 322.182437) scale(0.1 -0.1)">
       <defs>
        <path id="DejaVuSans-36" d="M 2113 2584 
Q 1688 2584 1439 2293 
Q 1191 2003 1191 1497 
Q 1191 994 1439 701 
Q 1688 409 2113 409 
Q 2538 409 2786 701 
Q 3034 994 3034 1497 
Q 3034 2003 2786 2293 
Q 2538 2584 2113 2584 
z
M 3366 4563 
L 3366 3988 
Q 3128 4100 2886 4159 
Q 2644 4219 2406 4219 
Q 1781 4219 1451 3797 
Q 1122 3375 1075 2522 
Q 1259 2794 1537 2939 
Q 1816 3084 2150 3084 
Q 2853 3084 3261 2657 
Q 3669 2231 3669 1497 
Q 3669 778 3244 343 
Q 2819 -91 2113 -91 
Q 1303 -91 875 529 
Q 447 1150 447 2328 
Q 447 3434 972 4092 
Q 1497 4750 2381 4750 
Q 2619 4750 2861 4703 
Q 3103 4656 3366 4563 
z
" transform="scale(0.015625)"/>
        <path id="DejaVuSans-37" d="M 525 4666 
L 3525 4666 
L 3525 4397 
L 1831 0 
L 1172 0 
L 2766 4134 
L 525 4134 
L 525 4666 
z
" transform="scale(0.015625)"/>
       </defs>
       <use xlink:href="#DejaVuSans-36"/>
       <use xlink:href="#DejaVuSans-37" x="63.623047"/>
      </g>
     </g>
    </g>
    <g id="xtick_4">
     <g id="line2d_4">
      <g>
       <use xlink:href="#m25e685247e" x="181.327042" y="307.584" style="stroke: #000000; stroke-width: 0.8"/>
      </g>
     </g>
     <g id="text_4">
      <!-- 100 -->
      <g transform="translate(171.783292 322.182437) scale(0.1 -0.1)">
       <defs>
        <path id="DejaVuSans-30" d="M 2034 4250 
Q 1547 4250 1301 3770 
Q 1056 3291 1056 2328 
Q 1056 1369 1301 889 
Q 1547 409 2034 409 
Q 2525 409 2770 889 
Q 3016 1369 3016 2328 
Q 3016 3291 2770 3770 
Q 2525 4250 2034 4250 
z
M 2034 4750 
Q 2819 4750 3233 4129 
Q 3647 3509 3647 2328 
Q 3647 1150 3233 529 
Q 2819 -91 2034 -91 
Q 1250 -91 836 529 
Q 422 1150 422 2328 
Q 422 3509 836 4129 
Q 1250 4750 2034 4750 
z
" transform="scale(0.015625)"/>
       </defs>
       <use xlink:href="#DejaVuSans-31"/>
       <use xlink:href="#DejaVuSans-30" x="63.623047"/>
       <use xlink:href="#DejaVuSans-30" x="127.246094"/>
      </g>
     </g>
    </g>
    <g id="xtick_5">
     <g id="line2d_5">
      <g>
       <use xlink:href="#m25e685247e" x="217.15848" y="307.584" style="stroke: #000000; stroke-width: 0.8"/>
      </g>
     </g>
     <g id="text_5">
      <!-- 133 -->
      <g transform="translate(207.61473 322.182437) scale(0.1 -0.1)">
       <use xlink:href="#DejaVuSans-31"/>
       <use xlink:href="#DejaVuSans-33" x="63.623047"/>
       <use xlink:href="#DejaVuSans-33" x="127.246094"/>
      </g>
     </g>
    </g>
    <g id="xtick_6">
     <g id="line2d_6">
      <g>
       <use xlink:href="#m25e685247e" x="254.075719" y="307.584" style="stroke: #000000; stroke-width: 0.8"/>
      </g>
     </g>
     <g id="text_6">
      <!-- 167 -->
      <g transform="translate(244.531969 322.182437) scale(0.1 -0.1)">
       <use xlink:href="#DejaVuSans-31"/>
       <use xlink:href="#DejaVuSans-36" x="63.623047"/>
       <use xlink:href="#DejaVuSans-37" x="127.246094"/>
      </g>
     </g>
    </g>
    <g id="xtick_7">
     <g id="line2d_7">
      <g>
       <use xlink:href="#m25e685247e" x="289.907157" y="307.584" style="stroke: #000000; stroke-width: 0.8"/>
      </g>
     </g>
     <g id="text_7">
      <!-- 200 -->
      <g transform="translate(280.363407 322.182437) scale(0.1 -0.1)">
       <defs>
        <path id="DejaVuSans-32" d="M 1228 531 
L 3431 531 
L 3431 0 
L 469 0 
L 469 531 
Q 828 903 1448 1529 
Q 2069 2156 2228 2338 
Q 2531 2678 2651 2914 
Q 2772 3150 2772 3378 
Q 2772 3750 2511 3984 
Q 2250 4219 1831 4219 
Q 1534 4219 1204 4116 
Q 875 4013 500 3803 
L 500 4441 
Q 881 4594 1212 4672 
Q 1544 4750 1819 4750 
Q 2544 4750 2975 4387 
Q 3406 4025 3406 3419 
Q 3406 3131 3298 2873 
Q 3191 2616 2906 2266 
Q 2828 2175 2409 1742 
Q 1991 1309 1228 531 
z
" transform="scale(0.015625)"/>
       </defs>
       <use xlink:href="#DejaVuSans-32"/>
       <use xlink:href="#DejaVuSans-30" x="63.623047"/>
       <use xlink:href="#DejaVuSans-30" x="127.246094"/>
      </g>
     </g>
    </g>
    <g id="xtick_8">
     <g id="line2d_8">
      <g>
       <use xlink:href="#m25e685247e" x="325.738595" y="307.584" style="stroke: #000000; stroke-width: 0.8"/>
      </g>
     </g>
     <g id="text_8">
      <!-- 233 -->
      <g transform="translate(316.194845 322.182437) scale(0.1 -0.1)">
       <use xlink:href="#DejaVuSans-32"/>
       <use xlink:href="#DejaVuSans-33" x="63.623047"/>
       <use xlink:href="#DejaVuSans-33" x="127.246094"/>
      </g>
     </g>
    </g>
    <g id="xtick_9">
     <g id="line2d_9">
      <g>
       <use xlink:href="#m25e685247e" x="361.570033" y="307.584" style="stroke: #000000; stroke-width: 0.8"/>
      </g>
     </g>
     <g id="text_9">
      <!-- 266 -->
      <g transform="translate(352.026283 322.182437) scale(0.1 -0.1)">
       <use xlink:href="#DejaVuSans-32"/>
       <use xlink:href="#DejaVuSans-36" x="63.623047"/>
       <use xlink:href="#DejaVuSans-36" x="127.246094"/>
      </g>
     </g>
    </g>
    <g id="xtick_10">
     <g id="line2d_10">
      <g>
       <use xlink:href="#m25e685247e" x="398.487273" y="307.584" style="stroke: #000000; stroke-width: 0.8"/>
      </g>
     </g>
     <g id="text_10">
      <!-- 300 -->
      <g transform="translate(388.943523 322.182437) scale(0.1 -0.1)">
       <use xlink:href="#DejaVuSans-33"/>
       <use xlink:href="#DejaVuSans-30" x="63.623047"/>
       <use xlink:href="#DejaVuSans-30" x="127.246094"/>
      </g>
     </g>
    </g>
    <g id="text_11">
     <!-- Epochs -->
     <g transform="translate(218.244375 335.860562) scale(0.1 -0.1)">
      <defs>
       <path id="DejaVuSans-45" d="M 628 4666 
L 3578 4666 
L 3578 4134 
L 1259 4134 
L 1259 2753 
L 3481 2753 
L 3481 2222 
L 1259 2222 
L 1259 531 
L 3634 531 
L 3634 0 
L 628 0 
L 628 4666 
z
" transform="scale(0.015625)"/>
       <path id="DejaVuSans-70" d="M 1159 525 
L 1159 -1331 
L 581 -1331 
L 581 3500 
L 1159 3500 
L 1159 2969 
Q 1341 3281 1617 3432 
Q 1894 3584 2278 3584 
Q 2916 3584 3314 3078 
Q 3713 2572 3713 1747 
Q 3713 922 3314 415 
Q 2916 -91 2278 -91 
Q 1894 -91 1617 61 
Q 1341 213 1159 525 
z
M 3116 1747 
Q 3116 2381 2855 2742 
Q 2594 3103 2138 3103 
Q 1681 3103 1420 2742 
Q 1159 2381 1159 1747 
Q 1159 1113 1420 752 
Q 1681 391 2138 391 
Q 2594 391 2855 752 
Q 3116 1113 3116 1747 
z
" transform="scale(0.015625)"/>
       <path id="DejaVuSans-6f" d="M 1959 3097 
Q 1497 3097 1228 2736 
Q 959 2375 959 1747 
Q 959 1119 1226 758 
Q 1494 397 1959 397 
Q 2419 397 2687 759 
Q 2956 1122 2956 1747 
Q 2956 2369 2687 2733 
Q 2419 3097 1959 3097 
z
M 1959 3584 
Q 2709 3584 3137 3096 
Q 3566 2609 3566 1747 
Q 3566 888 3137 398 
Q 2709 -91 1959 -91 
Q 1206 -91 779 398 
Q 353 888 353 1747 
Q 353 2609 779 3096 
Q 1206 3584 1959 3584 
z
" transform="scale(0.015625)"/>
       <path id="DejaVuSans-63" d="M 3122 3366 
L 3122 2828 
Q 2878 2963 2633 3030 
Q 2388 3097 2138 3097 
Q 1578 3097 1268 2742 
Q 959 2388 959 1747 
Q 959 1106 1268 751 
Q 1578 397 2138 397 
Q 2388 397 2633 464 
Q 2878 531 3122 666 
L 3122 134 
Q 2881 22 2623 -34 
Q 2366 -91 2075 -91 
Q 1284 -91 818 406 
Q 353 903 353 1747 
Q 353 2603 823 3093 
Q 1294 3584 2113 3584 
Q 2378 3584 2631 3529 
Q 2884 3475 3122 3366 
z
" transform="scale(0.015625)"/>
       <path id="DejaVuSans-68" d="M 3513 2113 
L 3513 0 
L 2938 0 
L 2938 2094 
Q 2938 2591 2744 2837 
Q 2550 3084 2163 3084 
Q 1697 3084 1428 2787 
Q 1159 2491 1159 1978 
L 1159 0 
L 581 0 
L 581 4863 
L 1159 4863 
L 1159 2956 
Q 1366 3272 1645 3428 
Q 1925 3584 2291 3584 
Q 2894 3584 3203 3211 
Q 3513 2838 3513 2113 
z
" transform="scale(0.015625)"/>
       <path id="DejaVuSans-73" d="M 2834 3397 
L 2834 2853 
Q 2591 2978 2328 3040 
Q 2066 3103 1784 3103 
Q 1356 3103 1142 2972 
Q 928 2841 928 2578 
Q 928 2378 1081 2264 
Q 1234 2150 1697 2047 
L 1894 2003 
Q 2506 1872 2764 1633 
Q 3022 1394 3022 966 
Q 3022 478 2636 193 
Q 2250 -91 1575 -91 
Q 1294 -91 989 -36 
Q 684 19 347 128 
L 347 722 
Q 666 556 975 473 
Q 1284 391 1588 391 
Q 1994 391 2212 530 
Q 2431 669 2431 922 
Q 2431 1156 2273 1281 
Q 2116 1406 1581 1522 
L 1381 1569 
Q 847 1681 609 1914 
Q 372 2147 372 2553 
Q 372 3047 722 3315 
Q 1072 3584 1716 3584 
Q 2034 3584 2315 3537 
Q 2597 3491 2834 3397 
z
" transform="scale(0.015625)"/>
      </defs>
      <use xlink:href="#DejaVuSans-45"/>
      <use xlink:href="#DejaVuSans-70" x="63.183594"/>
      <use xlink:href="#DejaVuSans-6f" x="126.660156"/>
      <use xlink:href="#DejaVuSans-63" x="187.841797"/>
      <use xlink:href="#DejaVuSans-68" x="242.822266"/>
      <use xlink:href="#DejaVuSans-73" x="306.201172"/>
     </g>
    </g>
   </g>
   <g id="matplotlib.axis_2">
    <g id="ytick_1">
     <g id="line2d_11">
      <defs>
       <path id="m8abe361d86" d="M 0 0 
L -3.5 0 
" style="stroke: #000000; stroke-width: 0.8"/>
      </defs>
      <g>
       <use xlink:href="#m8abe361d86" x="57.6" y="292.821052" style="stroke: #000000; stroke-width: 0.8"/>
      </g>
     </g>
     <g id="text_12">
      <!-- 30 -->
      <g transform="translate(37.875 296.620271) scale(0.1 -0.1)">
       <use xlink:href="#DejaVuSans-33"/>
       <use xlink:href="#DejaVuSans-30" x="63.623047"/>
      </g>
     </g>
    </g>
    <g id="ytick_2">
     <g id="line2d_12">
      <g>
       <use xlink:href="#m8abe361d86" x="57.6" y="256.902564" style="stroke: #000000; stroke-width: 0.8"/>
      </g>
     </g>
     <g id="text_13">
      <!-- 40 -->
      <g transform="translate(37.875 260.701782) scale(0.1 -0.1)">
       <use xlink:href="#DejaVuSans-34"/>
       <use xlink:href="#DejaVuSans-30" x="63.623047"/>
      </g>
     </g>
    </g>
    <g id="ytick_3">
     <g id="line2d_13">
      <g>
       <use xlink:href="#m8abe361d86" x="57.6" y="220.984075" style="stroke: #000000; stroke-width: 0.8"/>
      </g>
     </g>
     <g id="text_14">
      <!-- 50 -->
      <g transform="translate(37.875 224.783294) scale(0.1 -0.1)">
       <defs>
        <path id="DejaVuSans-35" d="M 691 4666 
L 3169 4666 
L 3169 4134 
L 1269 4134 
L 1269 2991 
Q 1406 3038 1543 3061 
Q 1681 3084 1819 3084 
Q 2600 3084 3056 2656 
Q 3513 2228 3513 1497 
Q 3513 744 3044 326 
Q 2575 -91 1722 -91 
Q 1428 -91 1123 -41 
Q 819 9 494 109 
L 494 744 
Q 775 591 1075 516 
Q 1375 441 1709 441 
Q 2250 441 2565 725 
Q 2881 1009 2881 1497 
Q 2881 1984 2565 2268 
Q 2250 2553 1709 2553 
Q 1456 2553 1204 2497 
Q 953 2441 691 2322 
L 691 4666 
z
" transform="scale(0.015625)"/>
       </defs>
       <use xlink:href="#DejaVuSans-35"/>
       <use xlink:href="#DejaVuSans-30" x="63.623047"/>
      </g>
     </g>
    </g>
    <g id="ytick_4">
     <g id="line2d_14">
      <g>
       <use xlink:href="#m8abe361d86" x="57.6" y="185.065587" style="stroke: #000000; stroke-width: 0.8"/>
      </g>
     </g>
     <g id="text_15">
      <!-- 60 -->
      <g transform="translate(37.875 188.864805) scale(0.1 -0.1)">
       <use xlink:href="#DejaVuSans-36"/>
       <use xlink:href="#DejaVuSans-30" x="63.623047"/>
      </g>
     </g>
    </g>
    <g id="ytick_5">
     <g id="line2d_15">
      <g>
       <use xlink:href="#m8abe361d86" x="57.6" y="149.147098" style="stroke: #000000; stroke-width: 0.8"/>
      </g>
     </g>
     <g id="text_16">
      <!-- 70 -->
      <g transform="translate(37.875 152.946317) scale(0.1 -0.1)">
       <use xlink:href="#DejaVuSans-37"/>
       <use xlink:href="#DejaVuSans-30" x="63.623047"/>
      </g>
     </g>
    </g>
    <g id="ytick_6">
     <g id="line2d_16">
      <g>
       <use xlink:href="#m8abe361d86" x="57.6" y="113.228609" style="stroke: #000000; stroke-width: 0.8"/>
      </g>
     </g>
     <g id="text_17">
      <!-- 80 -->
      <g transform="translate(37.875 117.027828) scale(0.1 -0.1)">
       <defs>
        <path id="DejaVuSans-38" d="M 2034 2216 
Q 1584 2216 1326 1975 
Q 1069 1734 1069 1313 
Q 1069 891 1326 650 
Q 1584 409 2034 409 
Q 2484 409 2743 651 
Q 3003 894 3003 1313 
Q 3003 1734 2745 1975 
Q 2488 2216 2034 2216 
z
M 1403 2484 
Q 997 2584 770 2862 
Q 544 3141 544 3541 
Q 544 4100 942 4425 
Q 1341 4750 2034 4750 
Q 2731 4750 3128 4425 
Q 3525 4100 3525 3541 
Q 3525 3141 3298 2862 
Q 3072 2584 2669 2484 
Q 3125 2378 3379 2068 
Q 3634 1759 3634 1313 
Q 3634 634 3220 271 
Q 2806 -91 2034 -91 
Q 1263 -91 848 271 
Q 434 634 434 1313 
Q 434 1759 690 2068 
Q 947 2378 1403 2484 
z
M 1172 3481 
Q 1172 3119 1398 2916 
Q 1625 2713 2034 2713 
Q 2441 2713 2670 2916 
Q 2900 3119 2900 3481 
Q 2900 3844 2670 4047 
Q 2441 4250 2034 4250 
Q 1625 4250 1398 4047 
Q 1172 3844 1172 3481 
z
" transform="scale(0.015625)"/>
       </defs>
       <use xlink:href="#DejaVuSans-38"/>
       <use xlink:href="#DejaVuSans-30" x="63.623047"/>
      </g>
     </g>
    </g>
    <g id="ytick_7">
     <g id="line2d_17">
      <g>
       <use xlink:href="#m8abe361d86" x="57.6" y="77.310121" style="stroke: #000000; stroke-width: 0.8"/>
      </g>
     </g>
     <g id="text_18">
      <!-- 90 -->
      <g transform="translate(37.875 81.10934) scale(0.1 -0.1)">
       <defs>
        <path id="DejaVuSans-39" d="M 703 97 
L 703 672 
Q 941 559 1184 500 
Q 1428 441 1663 441 
Q 2288 441 2617 861 
Q 2947 1281 2994 2138 
Q 2813 1869 2534 1725 
Q 2256 1581 1919 1581 
Q 1219 1581 811 2004 
Q 403 2428 403 3163 
Q 403 3881 828 4315 
Q 1253 4750 1959 4750 
Q 2769 4750 3195 4129 
Q 3622 3509 3622 2328 
Q 3622 1225 3098 567 
Q 2575 -91 1691 -91 
Q 1453 -91 1209 -44 
Q 966 3 703 97 
z
M 1959 2075 
Q 2384 2075 2632 2365 
Q 2881 2656 2881 3163 
Q 2881 3666 2632 3958 
Q 2384 4250 1959 4250 
Q 1534 4250 1286 3958 
Q 1038 3666 1038 3163 
Q 1038 2656 1286 2365 
Q 1534 2075 1959 2075 
z
" transform="scale(0.015625)"/>
       </defs>
       <use xlink:href="#DejaVuSans-39"/>
       <use xlink:href="#DejaVuSans-30" x="63.623047"/>
      </g>
     </g>
    </g>
    <g id="text_19">
     <!-- Accuracy -->
     <g transform="translate(31.795312 197.356125) rotate(-90) scale(0.1 -0.1)">
      <defs>
       <path id="DejaVuSans-41" d="M 2188 4044 
L 1331 1722 
L 3047 1722 
L 2188 4044 
z
M 1831 4666 
L 2547 4666 
L 4325 0 
L 3669 0 
L 3244 1197 
L 1141 1197 
L 716 0 
L 50 0 
L 1831 4666 
z
" transform="scale(0.015625)"/>
       <path id="DejaVuSans-75" d="M 544 1381 
L 544 3500 
L 1119 3500 
L 1119 1403 
Q 1119 906 1312 657 
Q 1506 409 1894 409 
Q 2359 409 2629 706 
Q 2900 1003 2900 1516 
L 2900 3500 
L 3475 3500 
L 3475 0 
L 2900 0 
L 2900 538 
Q 2691 219 2414 64 
Q 2138 -91 1772 -91 
Q 1169 -91 856 284 
Q 544 659 544 1381 
z
M 1991 3584 
L 1991 3584 
z
" transform="scale(0.015625)"/>
       <path id="DejaVuSans-72" d="M 2631 2963 
Q 2534 3019 2420 3045 
Q 2306 3072 2169 3072 
Q 1681 3072 1420 2755 
Q 1159 2438 1159 1844 
L 1159 0 
L 581 0 
L 581 3500 
L 1159 3500 
L 1159 2956 
Q 1341 3275 1631 3429 
Q 1922 3584 2338 3584 
Q 2397 3584 2469 3576 
Q 2541 3569 2628 3553 
L 2631 2963 
z
" transform="scale(0.015625)"/>
       <path id="DejaVuSans-61" d="M 2194 1759 
Q 1497 1759 1228 1600 
Q 959 1441 959 1056 
Q 959 750 1161 570 
Q 1363 391 1709 391 
Q 2188 391 2477 730 
Q 2766 1069 2766 1631 
L 2766 1759 
L 2194 1759 
z
M 3341 1997 
L 3341 0 
L 2766 0 
L 2766 531 
Q 2569 213 2275 61 
Q 1981 -91 1556 -91 
Q 1019 -91 701 211 
Q 384 513 384 1019 
Q 384 1609 779 1909 
Q 1175 2209 1959 2209 
L 2766 2209 
L 2766 2266 
Q 2766 2663 2505 2880 
Q 2244 3097 1772 3097 
Q 1472 3097 1187 3025 
Q 903 2953 641 2809 
L 641 3341 
Q 956 3463 1253 3523 
Q 1550 3584 1831 3584 
Q 2591 3584 2966 3190 
Q 3341 2797 3341 1997 
z
" transform="scale(0.015625)"/>
       <path id="DejaVuSans-79" d="M 2059 -325 
Q 1816 -950 1584 -1140 
Q 1353 -1331 966 -1331 
L 506 -1331 
L 506 -850 
L 844 -850 
Q 1081 -850 1212 -737 
Q 1344 -625 1503 -206 
L 1606 56 
L 191 3500 
L 800 3500 
L 1894 763 
L 2988 3500 
L 3597 3500 
L 2059 -325 
z
" transform="scale(0.015625)"/>
      </defs>
      <use xlink:href="#DejaVuSans-41"/>
      <use xlink:href="#DejaVuSans-63" x="66.658203"/>
      <use xlink:href="#DejaVuSans-63" x="121.638672"/>
      <use xlink:href="#DejaVuSans-75" x="176.619141"/>
      <use xlink:href="#DejaVuSans-72" x="239.998047"/>
      <use xlink:href="#DejaVuSans-61" x="281.111328"/>
      <use xlink:href="#DejaVuSans-63" x="342.390625"/>
      <use xlink:href="#DejaVuSans-79" x="397.371094"/>
     </g>
    </g>
   </g>
   <g id="line2d_18">
    <path d="M 73.832727 295.488 
L 74.918528 231.193905 
L 76.00433 201.426458 
L 77.090131 181.66231 
L 78.175932 166.298176 
L 79.261733 160.955301 
L 80.347534 151.392004 
L 81.433335 145.025451 
L 82.519137 141.307888 
L 83.604938 136.764199 
L 84.690739 131.645814 
L 85.77654 127.928251 
L 86.862341 124.947016 
L 87.948142 120.58292 
L 89.033943 119.110262 
L 91.205546 114.467797 
L 92.291347 111.621257 
L 93.377148 109.969007 
L 94.462949 108.622063 
L 95.54875 133.450719 
L 96.634552 133.360922 
L 97.720353 131.142956 
L 98.806154 129.804992 
L 99.891955 127.111105 
L 100.977756 123.510277 
L 102.063557 121.606597 
L 103.149358 121.561699 
L 104.23516 119.891489 
L 105.320961 119.119242 
L 106.406762 115.778822 
L 107.492563 114.216368 
L 108.578364 113.632692 
L 109.664165 112.339627 
L 110.749967 110.067782 
L 111.835768 109.493087 
L 112.921569 109.672679 
L 114.00737 107.194303 
L 115.093171 106.017973 
L 116.178972 104.65307 
L 117.264773 102.964901 
L 118.350575 103.027759 
L 120.522177 99.229379 
L 121.607978 98.915092 
L 122.693779 97.864476 
L 123.77958 95.790183 
L 124.865382 95.62855 
L 125.951183 94.155892 
L 127.036984 93.599155 
L 128.122785 91.794251 
L 129.208586 90.896289 
L 130.294387 90.537104 
L 131.380189 88.7322 
L 132.46599 90.16894 
L 133.551791 88.417914 
L 134.637592 88.247301 
L 135.723393 87.726483 
L 136.809194 86.12811 
L 137.894995 86.487295 
L 138.980797 108.21798 
L 140.066598 110.085742 
L 141.152399 111.360848 
L 142.2382 110.265334 
L 143.324001 110.004925 
L 144.409802 110.112681 
L 145.495604 107.355937 
L 146.581405 107.2841 
L 147.667206 106.377158 
L 148.753007 107.194303 
L 149.838808 105.946136 
L 150.924609 103.728169 
L 152.01041 105.13797 
L 153.096212 104.563274 
L 154.182013 104.850622 
L 155.267814 101.878367 
L 156.353615 102.426124 
L 157.439416 102.381226 
L 158.525217 101.159997 
L 159.611019 101.492243 
L 160.69682 100.226117 
L 161.782621 100.540403 
L 162.868422 99.974687 
L 163.954223 99.112643 
L 165.040024 98.753459 
L 166.125825 98.627744 
L 167.211627 96.661207 
L 168.297428 97.622026 
L 169.383229 97.137127 
L 170.46903 96.221205 
L 171.554831 97.164065 
L 173.726434 95.251406 
L 174.812235 94.999977 
L 175.898036 92.171396 
L 176.983837 93.01548 
L 178.069638 92.53058 
L 179.155439 93.311808 
L 180.24124 92.907725 
L 181.327042 90.16894 
L 182.412843 90.41139 
L 183.498644 89.477509 
L 184.584445 89.657101 
L 185.670246 90.725676 
L 186.756047 89.495468 
L 187.841849 87.897095 
L 188.92765 86.657908 
L 190.013451 88.148525 
L 191.099252 86.945255 
L 192.185053 84.906881 
L 193.270854 85.17627 
L 194.356656 86.262804 
L 195.442457 84.143613 
L 196.528258 84.520758 
L 197.614059 83.497081 
L 198.69986 84.143613 
L 199.785661 82.57218 
L 200.871462 82.509322 
L 201.957264 80.830133 
L 203.043065 81.404829 
L 205.214667 80.515846 
L 206.300468 79.357475 
L 207.386269 78.441553 
L 208.472071 79.447271 
L 209.557872 79.501149 
L 210.643673 78.504411 
L 211.729474 79.159923 
L 212.815275 77.938694 
L 213.901076 77.363999 
L 214.986877 76.043994 
L 216.072679 76.591751 
L 217.15848 77.714204 
L 218.244281 76.035015 
L 219.330082 76.475016 
L 220.415883 75.954198 
L 221.501684 76.322362 
L 222.587486 75.945218 
L 223.673287 76.331342 
L 224.759088 75.388482 
L 225.844889 96.427736 
L 226.93069 101.599999 
L 228.016491 99.804074 
L 229.102292 100.702037 
L 230.188094 99.839993 
L 231.273895 100.1453 
L 232.359696 98.636724 
L 233.445497 98.071007 
L 234.531298 98.753459 
L 236.702901 97.280801 
L 237.788702 97.648965 
L 238.874503 96.975493 
L 239.960304 97.343658 
L 241.046105 97.442434 
L 242.131906 96.311001 
L 243.217708 95.61957 
L 244.303509 96.140389 
L 245.38931 94.820384 
L 246.475111 95.763244 
L 247.560912 95.377121 
L 248.646713 94.281607 
L 249.732514 94.290586 
L 250.818316 94.44324 
L 251.904117 94.802425 
L 252.989918 93.518339 
L 254.075719 94.263648 
L 255.16152 93.760789 
L 256.247321 94.20977 
L 257.333123 91.946905 
L 258.418924 93.428543 
L 259.504725 92.629356 
L 260.590526 92.692214 
L 261.676327 93.536298 
L 262.762128 92.952623 
L 264.933731 91.219556 
L 266.019532 93.0065 
L 267.105333 91.318331 
L 268.191134 90.573023 
L 269.276935 91.884048 
L 270.362736 91.462005 
L 271.448538 90.87833 
L 272.534339 90.599962 
L 274.705941 91.515883 
L 275.791742 90.330573 
L 276.877543 90.213838 
L 277.963344 89.253018 
L 279.049146 89.001589 
L 280.134947 89.737918 
L 281.220748 89.423631 
L 282.306549 88.660363 
L 283.39235 88.893833 
L 284.478151 89.45057 
L 285.563953 89.199141 
L 286.649754 87.933014 
L 287.735555 88.148525 
L 288.821356 89.073426 
L 289.907157 87.376277 
L 290.992958 88.148525 
L 292.07876 87.241583 
L 293.164561 87.286481 
L 294.250362 86.146069 
L 295.336163 87.493012 
L 296.421964 87.403216 
L 297.507765 85.688108 
L 298.593566 86.559132 
L 299.679368 84.978718 
L 300.765169 86.047293 
L 301.85097 85.768925 
L 302.936771 86.065253 
L 304.022572 85.391781 
L 305.108373 85.777905 
L 306.194175 85.158311 
L 307.279976 83.541979 
L 308.365777 84.062797 
L 309.451578 83.353407 
L 310.537379 84.017899 
L 311.62318 84.538717 
L 312.708981 82.733813 
L 313.794783 83.110957 
L 314.880584 82.922385 
L 315.966385 81.826871 
L 317.052186 82.006463 
L 318.137987 83.101977 
L 319.223788 82.374628 
L 320.30959 81.934626 
L 322.481192 81.386869 
L 323.566993 82.518302 
L 324.652794 81.13544 
L 325.738595 80.42605 
L 326.824396 79.959109 
L 327.910198 80.776255 
L 328.995999 79.546047 
L 330.0818 78.091348 
L 331.167601 79.132984 
L 332.253402 79.115025 
L 333.339203 77.633387 
L 334.425005 78.75584 
L 335.510806 78.208083 
L 336.596607 78.100328 
L 337.682408 77.462775 
L 338.768209 77.040732 
L 339.85401 76.977875 
L 340.939811 77.310121 
L 342.025613 75.936239 
L 343.111414 76.052974 
L 344.197215 75.873381 
L 345.283016 74.598275 
L 346.368817 75.603993 
L 347.454618 75.361543 
L 348.54042 74.535418 
L 349.626221 74.867664 
L 350.712022 75.011338 
L 351.797823 75.4244 
L 352.883624 73.53868 
L 353.969425 74.499499 
L 355.055227 73.691333 
L 356.141028 73.799089 
L 357.226829 73.242352 
L 358.31263 73.188474 
L 359.398431 73.269291 
L 360.484232 72.892147 
L 361.570033 72.739493 
L 362.655835 72.739493 
L 363.741636 71.724796 
L 365.913238 71.275815 
L 366.999039 70.826834 
L 368.08484 72.452145 
L 369.170642 72.137859 
L 370.256443 72.048062 
L 371.342244 74.194192 
L 372.428045 74.364805 
L 373.513846 73.341128 
L 374.599647 74.328886 
L 375.685448 73.835007 
L 376.77125 75.047256 
L 377.857051 74.804806 
L 378.942852 74.975419 
L 380.028653 74.221131 
L 381.114454 75.253787 
L 382.200255 74.050518 
L 383.286057 75.307665 
L 384.371858 74.176233 
L 385.457659 74.050518 
L 386.54346 73.709292 
L 387.629261 73.619496 
L 388.715062 74.400723 
L 390.886665 74.72399 
L 391.972466 75.379502 
L 393.058267 74.301948 
L 394.144068 74.697051 
L 395.229869 74.221131 
L 396.31567 74.292968 
L 397.401472 74.94848 
L 398.487273 74.373784 
L 398.487273 74.373784 
" clip-path="url(#p0dec886016)" style="fill: none; stroke: #1f77b4; stroke-width: 1.5; stroke-linecap: square"/>
   </g>
   <g id="line2d_19">
    <path d="M 73.832727 234.453508 
L 74.918528 203.958712 
L 76.00433 154.498953 
L 77.090131 156.151203 
L 78.175932 123.249868 
L 79.261733 133.88174 
L 80.347534 108.882472 
L 81.433335 109.708598 
L 82.519137 109.133902 
L 83.604938 98.573866 
L 84.690739 99.076725 
L 85.77654 93.401604 
L 86.862341 89.270978 
L 87.948142 91.066902 
L 89.033943 83.703612 
L 90.119745 80.470948 
L 91.205546 83.021161 
L 92.291347 80.65054 
L 93.377148 79.71666 
L 94.462949 78.136246 
L 95.54875 108.200021 
L 96.634552 102.99184 
L 97.720353 93.904463 
L 98.806154 94.44324 
L 99.891955 98.861214 
L 100.977756 90.63588 
L 102.063557 91.569761 
L 103.149358 87.403216 
L 104.23516 89.378733 
L 105.320961 83.919123 
L 106.406762 84.026878 
L 107.492563 82.55422 
L 108.578364 79.393393 
L 109.664165 80.039926 
L 110.749967 81.297073 
L 111.835768 77.310121 
L 112.921569 79.070127 
L 114.00737 74.939501 
L 115.093171 74.508479 
L 116.178972 75.19093 
L 117.264773 75.729707 
L 118.350575 72.640717 
L 119.436376 72.10194 
L 120.522177 70.521527 
L 121.607978 70.665201 
L 122.693779 68.761521 
L 123.77958 68.29458 
L 124.865382 68.581928 
L 125.951183 66.821922 
L 127.036984 65.92396 
L 128.122785 66.283145 
L 129.208586 65.636612 
L 130.294387 64.630894 
L 131.380189 65.349264 
L 132.46599 63.912525 
L 133.551791 63.589258 
L 135.723393 63.732932 
L 136.809194 63.948443 
L 137.894995 63.445584 
L 138.980797 81.225236 
L 140.066598 81.584421 
L 141.152399 82.195035 
L 142.2382 79.46523 
L 143.324001 83.27259 
L 144.409802 79.106045 
L 145.495604 77.022773 
L 146.581405 76.807262 
L 147.667206 77.453795 
L 148.753007 74.185212 
L 149.838808 74.975419 
L 150.924609 75.119093 
L 152.01041 73.143576 
L 153.096212 74.400723 
L 154.182013 72.497043 
L 155.267814 72.317451 
L 156.353615 73.969701 
L 157.439416 71.38357 
L 158.525217 72.784391 
L 159.611019 70.44969 
L 160.69682 71.922348 
L 161.782621 71.491326 
L 162.868422 73.395006 
L 163.954223 70.270097 
L 165.040024 69.336216 
L 166.125825 69.803157 
L 167.211627 70.054586 
L 168.297428 67.288863 
L 169.383229 67.971314 
L 170.46903 72.497043 
L 171.554831 68.402336 
L 172.640632 67.073352 
L 173.726434 66.857841 
L 174.812235 68.222743 
L 175.898036 67.145189 
L 176.983837 66.283145 
L 178.069638 64.954161 
L 179.155439 67.863558 
L 180.24124 65.708449 
L 181.327042 67.432537 
L 183.498644 65.421101 
L 184.584445 65.169672 
L 185.670246 64.487221 
L 186.756047 65.169672 
L 187.841849 65.277427 
L 188.92765 62.439867 
L 190.013451 63.589258 
L 192.185053 63.122318 
L 193.270854 61.757415 
L 194.356656 61.793334 
L 195.442457 61.18272 
L 196.528258 61.901089 
L 197.614059 61.541904 
L 198.69986 59.997409 
L 199.785661 61.290475 
L 200.871462 60.356594 
L 201.957264 60.248839 
L 203.043065 59.530469 
L 204.128866 59.781899 
L 205.214667 59.350877 
L 206.300468 57.734545 
L 207.386269 58.919855 
L 208.472071 58.812099 
L 209.557872 58.381077 
L 210.643673 58.237404 
L 211.729474 57.950056 
L 212.815275 58.273322 
L 214.986877 57.662708 
L 216.072679 57.159849 
L 217.15848 57.483115 
L 218.244281 57.662708 
L 219.330082 57.698626 
L 220.415883 57.12393 
L 221.501684 57.231686 
L 222.587486 57.590871 
L 224.759088 57.698626 
L 225.844889 70.377853 
L 226.93069 74.436642 
L 228.016491 75.047256 
L 229.102292 71.203978 
L 230.188094 74.077457 
L 231.273895 73.179495 
L 232.359696 70.701119 
L 233.445497 70.44969 
L 234.531298 71.742755 
L 235.617099 69.982749 
L 236.702901 69.515809 
L 237.788702 69.443972 
L 238.874503 71.491326 
L 239.960304 68.977032 
L 241.046105 68.833358 
L 242.131906 71.347652 
L 243.217708 69.874994 
L 244.303509 67.037433 
L 245.38931 68.474173 
L 246.475111 70.341934 
L 247.560912 69.47989 
L 248.646713 68.438254 
L 249.732514 67.181107 
L 250.818316 67.82764 
L 251.904117 66.354982 
L 252.989918 66.64233 
L 254.075719 66.319063 
L 255.16152 64.415384 
L 256.247321 67.037433 
L 257.333123 68.222743 
L 258.418924 65.92396 
L 259.504725 67.468455 
L 260.590526 66.3909 
L 261.676327 66.857841 
L 262.762128 68.186825 
L 263.847929 68.438254 
L 264.933731 65.600694 
L 266.019532 65.816205 
L 267.105333 66.247226 
L 268.191134 63.948443 
L 269.276935 67.863558 
L 270.362736 65.349264 
L 271.448538 65.600694 
L 272.534339 65.421101 
L 273.62014 65.45702 
L 274.705941 66.103553 
L 275.791742 66.211308 
L 276.877543 66.498656 
L 277.963344 67.971314 
L 279.049146 63.804769 
L 280.134947 63.840688 
L 281.220748 64.73865 
L 283.39235 63.230073 
L 284.478151 63.697014 
L 285.563953 63.445584 
L 286.649754 64.379465 
L 287.735555 63.194155 
L 288.821356 66.606411 
L 289.907157 63.158236 
L 290.992958 63.661095 
L 292.07876 63.373747 
L 293.164561 65.169672 
L 294.250362 64.307628 
L 295.336163 64.559057 
L 296.421964 62.332111 
L 297.507765 63.589258 
L 298.593566 62.906807 
L 299.679368 61.685578 
L 300.765169 64.594976 
L 301.85097 61.110883 
L 302.936771 61.829252 
L 304.022572 63.194155 
L 306.194175 60.320676 
L 307.279976 61.218638 
L 310.537379 61.074964 
L 311.62318 59.27904 
L 312.708981 60.823535 
L 313.794783 63.050481 
L 314.880584 61.577823 
L 315.966385 60.356594 
L 317.052186 62.188437 
L 318.137987 60.500268 
L 319.223788 60.787616 
L 320.30959 59.674143 
L 321.395391 61.541904 
L 322.481192 59.314958 
L 323.566993 59.961491 
L 324.652794 60.320676 
L 325.738595 58.740262 
L 327.910198 58.56067 
L 328.995999 59.710062 
L 330.0818 58.201485 
L 331.167601 59.74598 
L 332.253402 58.237404 
L 333.339203 58.416996 
L 334.425005 58.30924 
L 335.510806 57.950056 
L 336.596607 58.416996 
L 337.682408 57.770463 
L 338.768209 57.447197 
L 339.85401 56.944338 
L 340.939811 57.590871 
L 342.025613 56.65699 
L 343.111414 57.195767 
L 344.197215 56.010457 
L 345.283016 56.333724 
L 346.368817 57.159849 
L 347.454618 56.441479 
L 348.54042 56.118213 
L 349.626221 56.297805 
L 350.712022 56.333724 
L 351.797823 56.764745 
L 352.883624 55.399843 
L 353.969425 55.435761 
L 355.055227 56.010457 
L 357.226829 55.687191 
L 358.31263 55.93862 
L 360.484232 54.681473 
L 361.570033 55.148413 
L 362.655835 54.789229 
L 363.741636 55.328006 
L 365.913238 54.573718 
L 368.08484 54.75331 
L 370.256443 56.046376 
L 371.342244 55.579435 
L 372.428045 55.399843 
L 373.513846 56.621072 
L 374.599647 56.154131 
L 376.77125 56.728827 
L 377.857051 56.369642 
L 378.942852 56.549235 
L 380.028653 56.118213 
L 381.114454 56.65699 
L 382.200255 56.441479 
L 383.286057 56.010457 
L 384.371858 56.477398 
L 385.457659 55.902702 
L 386.54346 56.154131 
L 387.629261 57.088012 
L 388.715062 56.800664 
L 389.800863 56.297805 
L 390.886665 56.980256 
L 391.972466 56.333724 
L 393.058267 56.261887 
L 394.144068 56.872501 
L 395.229869 57.159849 
L 396.31567 56.333724 
L 397.401472 56.369642 
L 398.487273 56.010457 
L 398.487273 56.010457 
" clip-path="url(#p0dec886016)" style="fill: none; stroke: #ff7f0e; stroke-width: 1.5; stroke-linecap: square"/>
   </g>
   <g id="line2d_20">
    <path d="M 73.832727 254.30157 
L 74.918528 235.351471 
L 76.00433 193.98328 
L 77.090131 196.212704 
L 78.175932 164.629205 
L 79.261733 182.588449 
L 80.347534 155.216084 
L 81.433335 151.624235 
L 82.519137 149.147098 
L 83.604938 137.62841 
L 84.690739 147.908529 
L 85.77654 135.646701 
L 86.862341 126.976721 
L 87.948142 134.779703 
L 89.033943 119.173739 
L 90.119745 114.467178 
L 91.205546 118.306741 
L 92.291347 115.334176 
L 93.377148 113.847894 
L 94.462949 112.609325 
L 95.54875 157.445507 
L 97.720353 132.550279 
L 98.806154 133.045707 
L 99.891955 144.688251 
L 100.977756 132.674136 
L 102.063557 128.463003 
L 103.149358 132.92185 
L 104.23516 128.091432 
L 105.320961 116.077317 
L 106.406762 122.765587 
L 107.492563 120.164593 
L 108.578364 121.155448 
L 109.664165 118.059027 
L 110.749967 119.545309 
L 111.835768 115.58189 
L 112.921569 116.325031 
L 114.00737 112.857039 
L 115.093171 110.256045 
L 116.178972 112.980896 
L 117.264773 113.847894 
L 118.350575 108.026621 
L 119.436376 104.434773 
L 120.522177 104.310916 
L 121.607978 104.9302 
L 122.693779 103.196204 
L 123.77958 101.709922 
L 124.865382 102.57692 
L 125.951183 97.498789 
L 127.036984 100.223639 
L 128.122785 97.498789 
L 129.208586 95.764793 
L 130.294387 95.640936 
L 131.380189 94.897795 
L 132.46599 94.897795 
L 133.551791 91.801373 
L 134.637592 92.296801 
L 135.723393 91.801373 
L 136.809194 93.287655 
L 137.894995 93.411512 
L 138.980797 119.545309 
L 140.066598 124.499583 
L 141.152399 124.004156 
L 142.2382 121.898589 
L 143.324001 125.490438 
L 144.409802 124.375727 
L 145.495604 119.297595 
L 146.581405 113.228609 
L 147.667206 113.352466 
L 148.753007 113.352466 
L 149.838808 110.132188 
L 150.924609 108.026621 
L 152.01041 110.379902 
L 153.096212 112.237755 
L 154.182013 111.494613 
L 155.267814 106.292625 
L 156.353615 112.237755 
L 157.439416 105.301771 
L 158.525217 108.645906 
L 159.611019 108.398192 
L 160.69682 111.123043 
L 161.782621 111.2469 
L 162.868422 112.237755 
L 163.954223 107.28348 
L 165.040024 101.586065 
L 167.211627 107.28348 
L 168.297428 101.090637 
L 169.383229 99.356641 
L 170.46903 109.512904 
L 171.554831 101.214494 
L 172.640632 102.205349 
L 173.726434 100.59521 
L 174.812235 98.6135 
L 175.898036 102.205349 
L 176.983837 103.939345 
L 178.069638 100.471353 
L 179.155439 104.9302 
L 180.24124 97.622645 
L 181.327042 100.59521 
L 182.412843 103.196204 
L 183.498644 100.719067 
L 184.584445 98.737357 
L 185.670246 94.897795 
L 186.756047 98.118073 
L 187.841849 97.127218 
L 188.92765 95.640936 
L 190.013451 99.232785 
L 193.270854 91.182089 
L 194.356656 92.420657 
L 195.442457 87.837954 
L 196.528258 90.438948 
L 197.614059 87.094813 
L 198.69986 88.581095 
L 199.785661 88.704952 
L 200.871462 89.448093 
L 201.957264 89.695807 
L 203.043065 88.581095 
L 204.128866 86.351671 
L 205.214667 87.714097 
L 206.300468 86.227815 
L 207.386269 85.23696 
L 208.472071 85.23696 
L 209.557872 84.989246 
L 210.643673 84.246105 
L 211.729474 83.007536 
L 212.815275 82.264395 
L 213.901076 82.635966 
L 216.072679 83.998391 
L 217.15848 83.007536 
L 218.244281 82.388252 
L 219.330082 83.131393 
L 220.415883 81.149683 
L 221.501684 81.521254 
L 222.587486 81.768968 
L 223.673287 82.512109 
L 224.759088 82.635966 
L 225.844889 112.980896 
L 226.93069 111.370757 
L 228.016491 110.008331 
L 229.102292 108.026621 
L 230.188094 106.540339 
L 231.273895 114.095607 
L 232.359696 108.645906 
L 233.445497 110.627615 
L 234.531298 105.177914 
L 235.617099 106.540339 
L 236.702901 106.540339 
L 237.788702 108.026621 
L 238.874503 107.531194 
L 239.960304 103.939345 
L 241.046105 105.549484 
L 242.131906 103.815488 
L 243.217708 104.806343 
L 244.303509 101.214494 
L 245.38931 105.177914 
L 246.475111 105.177914 
L 247.560912 104.806343 
L 248.646713 102.081492 
L 249.732514 104.682486 
L 250.818316 98.985071 
L 251.904117 102.081492 
L 252.989918 96.879504 
L 254.075719 103.567775 
L 255.16152 98.365787 
L 256.247321 102.700777 
L 257.333123 100.471353 
L 258.418924 100.347496 
L 259.504725 103.320061 
L 260.590526 101.709922 
L 261.676327 101.833779 
L 262.762128 101.586065 
L 263.847929 104.063202 
L 264.933731 100.966781 
L 266.019532 102.205349 
L 267.105333 96.879504 
L 268.191134 98.489643 
L 269.276935 98.489643 
L 270.362736 98.24193 
L 271.448538 99.108928 
L 272.534339 97.994216 
L 273.62014 97.127218 
L 274.705941 99.975926 
L 275.791742 100.223639 
L 276.877543 101.090637 
L 277.963344 101.090637 
L 279.049146 96.879504 
L 280.134947 95.269365 
L 281.220748 96.879504 
L 282.306549 98.24193 
L 283.39235 98.118073 
L 284.478151 99.728212 
L 285.563953 95.145508 
L 286.649754 95.145508 
L 287.735555 94.154653 
L 288.821356 104.310916 
L 289.907157 96.012506 
L 290.992958 92.420657 
L 292.07876 97.374932 
L 293.164561 96.755647 
L 294.250362 99.232785 
L 296.421964 92.049087 
L 297.507765 97.251075 
L 298.593566 96.012506 
L 299.679368 92.296801 
L 300.765169 97.251075 
L 301.85097 93.535369 
L 302.936771 93.659226 
L 304.022572 92.668371 
L 305.108373 94.154653 
L 306.194175 88.085667 
L 307.279976 92.668371 
L 308.365777 96.012506 
L 309.451578 92.172944 
L 310.537379 90.810518 
L 311.62318 92.792228 
L 312.708981 90.438948 
L 313.794783 90.934375 
L 314.880584 92.296801 
L 315.966385 91.305946 
L 317.052186 91.92523 
L 318.137987 89.200379 
L 319.223788 90.191234 
L 320.30959 88.085667 
L 321.395391 91.429803 
L 322.481192 88.085667 
L 323.566993 86.970956 
L 324.652794 89.324236 
L 325.738595 86.970956 
L 326.824396 88.704952 
L 327.910198 87.837954 
L 328.995999 88.457238 
L 330.0818 88.828809 
L 331.167601 89.448093 
L 332.253402 85.732387 
L 334.425005 87.466383 
L 335.510806 88.085667 
L 336.596607 85.60853 
L 338.768209 83.379107 
L 339.85401 81.025827 
L 340.939811 87.094813 
L 342.025613 81.521254 
L 343.111414 82.140538 
L 344.197215 82.264395 
L 345.283016 82.264395 
L 346.368817 82.883679 
L 347.454618 83.998391 
L 348.54042 82.264395 
L 349.626221 82.512109 
L 350.712022 83.874534 
L 351.797823 82.140538 
L 352.883624 81.149683 
L 353.969425 81.025827 
L 355.055227 80.654256 
L 356.141028 79.291831 
L 357.226829 80.530399 
L 358.31263 81.149683 
L 359.398431 79.539544 
L 360.484232 77.681692 
L 361.570033 79.415688 
L 362.655835 80.034972 
L 363.741636 80.90197 
L 364.827437 79.415688 
L 365.913238 77.557835 
L 366.999039 78.672546 
L 368.08484 78.177119 
L 370.256443 82.512109 
L 371.342244 81.521254 
L 372.428045 82.883679 
L 373.513846 85.60853 
L 375.685448 81.768968 
L 376.77125 81.892825 
L 377.857051 81.645111 
L 378.942852 83.131393 
L 380.028653 82.140538 
L 381.114454 83.502964 
L 382.200255 82.264395 
L 383.286057 81.397397 
L 384.371858 83.874534 
L 385.457659 80.654256 
L 386.54346 82.759823 
L 387.629261 84.617675 
L 388.715062 80.654256 
L 389.800863 79.787258 
L 390.886665 81.025827 
L 391.972466 81.149683 
L 393.058267 82.759823 
L 394.144068 82.512109 
L 395.229869 79.415688 
L 396.31567 80.530399 
L 397.401472 79.787258 
L 398.487273 81.892825 
L 398.487273 81.892825 
" clip-path="url(#p0dec886016)" style="fill: none; stroke: #2ca02c; stroke-width: 1.5; stroke-linecap: square"/>
   </g>
   <g id="line2d_21">
    <path d="M 368.08484 54.501881 
L 369.170642 54.75331 
L 370.256443 54.681473 
L 371.342244 55.00474 
L 372.428045 54.430044 
L 373.513846 55.363924 
L 375.685448 55.00474 
L 376.77125 54.609636 
L 377.857051 54.968821 
L 380.028653 54.609636 
L 381.114454 54.070859 
L 382.200255 53.855348 
L 383.286057 54.03494 
L 384.371858 55.148413 
L 385.457659 54.394125 
L 386.54346 53.999022 
L 387.629261 54.106777 
L 388.715062 53.639837 
L 389.800863 53.819429 
L 390.886665 54.358207 
L 391.972466 53.568 
L 393.058267 53.891266 
L 395.229869 53.711674 
L 396.31567 54.106777 
L 397.401472 55.22025 
L 398.487273 54.106777 
L 398.487273 54.106777 
" clip-path="url(#p0dec886016)" style="fill: none; stroke: #d62728; stroke-width: 1.5; stroke-linecap: square"/>
   </g>
   <g id="line2d_22">
    <path d="M 368.08484 79.044117 
L 369.170642 77.805548 
L 370.256443 79.044117 
L 371.342244 78.177119 
L 372.428045 78.92026 
L 373.513846 80.282686 
L 374.599647 80.406542 
L 375.685448 81.27354 
L 376.77125 78.92026 
L 377.857051 77.681692 
L 378.942852 80.406542 
L 380.028653 80.158829 
L 381.114454 75.699982 
L 382.200255 76.071552 
L 383.286057 76.319266 
L 384.371858 77.557835 
L 385.457659 76.93855 
L 386.54346 75.947696 
L 387.629261 77.929405 
L 388.715062 74.832984 
L 389.800863 76.814694 
L 390.886665 75.452268 
L 391.972466 76.319266 
L 393.058267 75.947696 
L 394.144068 75.823839 
L 395.229869 73.470558 
L 396.31567 75.204554 
L 397.401472 76.56698 
L 398.487273 75.947696 
L 398.487273 75.947696 
" clip-path="url(#p0dec886016)" style="fill: none; stroke: #9467bd; stroke-width: 1.5; stroke-linecap: square"/>
   </g>
   <g id="patch_3">
    <path d="M 57.6 307.584 
L 57.6 41.472 
" style="fill: none; stroke: #000000; stroke-width: 0.8; stroke-linejoin: miter; stroke-linecap: square"/>
   </g>
   <g id="patch_4">
    <path d="M 414.72 307.584 
L 414.72 41.472 
" style="fill: none; stroke: #000000; stroke-width: 0.8; stroke-linejoin: miter; stroke-linecap: square"/>
   </g>
   <g id="patch_5">
    <path d="M 57.6 307.584 
L 414.72 307.584 
" style="fill: none; stroke: #000000; stroke-width: 0.8; stroke-linejoin: miter; stroke-linecap: square"/>
   </g>
   <g id="patch_6">
    <path d="M 57.6 41.472 
L 414.72 41.472 
" style="fill: none; stroke: #000000; stroke-width: 0.8; stroke-linejoin: miter; stroke-linecap: square"/>
   </g>
   <g id="text_20">
    <!-- Learning Curves -->
    <g transform="translate(187.37625 35.472) scale(0.12 -0.12)">
     <defs>
      <path id="DejaVuSans-4c" d="M 628 4666 
L 1259 4666 
L 1259 531 
L 3531 531 
L 3531 0 
L 628 0 
L 628 4666 
z
" transform="scale(0.015625)"/>
      <path id="DejaVuSans-65" d="M 3597 1894 
L 3597 1613 
L 953 1613 
Q 991 1019 1311 708 
Q 1631 397 2203 397 
Q 2534 397 2845 478 
Q 3156 559 3463 722 
L 3463 178 
Q 3153 47 2828 -22 
Q 2503 -91 2169 -91 
Q 1331 -91 842 396 
Q 353 884 353 1716 
Q 353 2575 817 3079 
Q 1281 3584 2069 3584 
Q 2775 3584 3186 3129 
Q 3597 2675 3597 1894 
z
M 3022 2063 
Q 3016 2534 2758 2815 
Q 2500 3097 2075 3097 
Q 1594 3097 1305 2825 
Q 1016 2553 972 2059 
L 3022 2063 
z
" transform="scale(0.015625)"/>
      <path id="DejaVuSans-6e" d="M 3513 2113 
L 3513 0 
L 2938 0 
L 2938 2094 
Q 2938 2591 2744 2837 
Q 2550 3084 2163 3084 
Q 1697 3084 1428 2787 
Q 1159 2491 1159 1978 
L 1159 0 
L 581 0 
L 581 3500 
L 1159 3500 
L 1159 2956 
Q 1366 3272 1645 3428 
Q 1925 3584 2291 3584 
Q 2894 3584 3203 3211 
Q 3513 2838 3513 2113 
z
" transform="scale(0.015625)"/>
      <path id="DejaVuSans-69" d="M 603 3500 
L 1178 3500 
L 1178 0 
L 603 0 
L 603 3500 
z
M 603 4863 
L 1178 4863 
L 1178 4134 
L 603 4134 
L 603 4863 
z
" transform="scale(0.015625)"/>
      <path id="DejaVuSans-67" d="M 2906 1791 
Q 2906 2416 2648 2759 
Q 2391 3103 1925 3103 
Q 1463 3103 1205 2759 
Q 947 2416 947 1791 
Q 947 1169 1205 825 
Q 1463 481 1925 481 
Q 2391 481 2648 825 
Q 2906 1169 2906 1791 
z
M 3481 434 
Q 3481 -459 3084 -895 
Q 2688 -1331 1869 -1331 
Q 1566 -1331 1297 -1286 
Q 1028 -1241 775 -1147 
L 775 -588 
Q 1028 -725 1275 -790 
Q 1522 -856 1778 -856 
Q 2344 -856 2625 -561 
Q 2906 -266 2906 331 
L 2906 616 
Q 2728 306 2450 153 
Q 2172 0 1784 0 
Q 1141 0 747 490 
Q 353 981 353 1791 
Q 353 2603 747 3093 
Q 1141 3584 1784 3584 
Q 2172 3584 2450 3431 
Q 2728 3278 2906 2969 
L 2906 3500 
L 3481 3500 
L 3481 434 
z
" transform="scale(0.015625)"/>
      <path id="DejaVuSans-20" transform="scale(0.015625)"/>
      <path id="DejaVuSans-43" d="M 4122 4306 
L 4122 3641 
Q 3803 3938 3442 4084 
Q 3081 4231 2675 4231 
Q 1875 4231 1450 3742 
Q 1025 3253 1025 2328 
Q 1025 1406 1450 917 
Q 1875 428 2675 428 
Q 3081 428 3442 575 
Q 3803 722 4122 1019 
L 4122 359 
Q 3791 134 3420 21 
Q 3050 -91 2638 -91 
Q 1578 -91 968 557 
Q 359 1206 359 2328 
Q 359 3453 968 4101 
Q 1578 4750 2638 4750 
Q 3056 4750 3426 4639 
Q 3797 4528 4122 4306 
z
" transform="scale(0.015625)"/>
      <path id="DejaVuSans-76" d="M 191 3500 
L 800 3500 
L 1894 563 
L 2988 3500 
L 3597 3500 
L 2284 0 
L 1503 0 
L 191 3500 
z
" transform="scale(0.015625)"/>
     </defs>
     <use xlink:href="#DejaVuSans-4c"/>
     <use xlink:href="#DejaVuSans-65" x="53.962891"/>
     <use xlink:href="#DejaVuSans-61" x="115.486328"/>
     <use xlink:href="#DejaVuSans-72" x="176.765625"/>
     <use xlink:href="#DejaVuSans-6e" x="216.128906"/>
     <use xlink:href="#DejaVuSans-69" x="279.507812"/>
     <use xlink:href="#DejaVuSans-6e" x="307.291016"/>
     <use xlink:href="#DejaVuSans-67" x="370.669922"/>
     <use xlink:href="#DejaVuSans-20" x="434.146484"/>
     <use xlink:href="#DejaVuSans-43" x="465.933594"/>
     <use xlink:href="#DejaVuSans-75" x="535.757812"/>
     <use xlink:href="#DejaVuSans-72" x="599.136719"/>
     <use xlink:href="#DejaVuSans-76" x="640.25"/>
     <use xlink:href="#DejaVuSans-65" x="699.429688"/>
     <use xlink:href="#DejaVuSans-73" x="760.953125"/>
    </g>
   </g>
   <g id="legend_1">
    <g id="patch_7">
     <path d="M 214.18875 302.584 
L 407.72 302.584 
Q 409.72 302.584 409.72 300.584 
L 409.72 228.193375 
Q 409.72 226.193375 407.72 226.193375 
L 214.18875 226.193375 
Q 212.18875 226.193375 212.18875 228.193375 
L 212.18875 300.584 
Q 212.18875 302.584 214.18875 302.584 
z
" style="fill: #ffffff; opacity: 0.8; stroke: #cccccc; stroke-linejoin: miter"/>
    </g>
    <g id="line2d_23">
     <path d="M 216.18875 234.291812 
L 226.18875 234.291812 
L 236.18875 234.291812 
" style="fill: none; stroke: #1f77b4; stroke-width: 1.5; stroke-linecap: square"/>
    </g>
    <g id="text_21">
     <!-- Train Accuracy -->
     <g transform="translate(244.18875 237.791812) scale(0.1 -0.1)">
      <defs>
       <path id="DejaVuSans-54" d="M -19 4666 
L 3928 4666 
L 3928 4134 
L 2272 4134 
L 2272 0 
L 1638 0 
L 1638 4134 
L -19 4134 
L -19 4666 
z
" transform="scale(0.015625)"/>
      </defs>
      <use xlink:href="#DejaVuSans-54"/>
      <use xlink:href="#DejaVuSans-72" x="46.333984"/>
      <use xlink:href="#DejaVuSans-61" x="87.447266"/>
      <use xlink:href="#DejaVuSans-69" x="148.726562"/>
      <use xlink:href="#DejaVuSans-6e" x="176.509766"/>
      <use xlink:href="#DejaVuSans-20" x="239.888672"/>
      <use xlink:href="#DejaVuSans-41" x="271.675781"/>
      <use xlink:href="#DejaVuSans-63" x="338.333984"/>
      <use xlink:href="#DejaVuSans-63" x="393.314453"/>
      <use xlink:href="#DejaVuSans-75" x="448.294922"/>
      <use xlink:href="#DejaVuSans-72" x="511.673828"/>
      <use xlink:href="#DejaVuSans-61" x="552.787109"/>
      <use xlink:href="#DejaVuSans-63" x="614.066406"/>
      <use xlink:href="#DejaVuSans-79" x="669.046875"/>
     </g>
    </g>
    <g id="line2d_24">
     <path d="M 216.18875 248.969937 
L 226.18875 248.969937 
L 236.18875 248.969937 
" style="fill: none; stroke: #ff7f0e; stroke-width: 1.5; stroke-linecap: square"/>
    </g>
    <g id="text_22">
     <!-- Validation Accuracy -->
     <g transform="translate(244.18875 252.469937) scale(0.1 -0.1)">
      <defs>
       <path id="DejaVuSans-56" d="M 1831 0 
L 50 4666 
L 709 4666 
L 2188 738 
L 3669 4666 
L 4325 4666 
L 2547 0 
L 1831 0 
z
" transform="scale(0.015625)"/>
       <path id="DejaVuSans-6c" d="M 603 4863 
L 1178 4863 
L 1178 0 
L 603 0 
L 603 4863 
z
" transform="scale(0.015625)"/>
       <path id="DejaVuSans-64" d="M 2906 2969 
L 2906 4863 
L 3481 4863 
L 3481 0 
L 2906 0 
L 2906 525 
Q 2725 213 2448 61 
Q 2172 -91 1784 -91 
Q 1150 -91 751 415 
Q 353 922 353 1747 
Q 353 2572 751 3078 
Q 1150 3584 1784 3584 
Q 2172 3584 2448 3432 
Q 2725 3281 2906 2969 
z
M 947 1747 
Q 947 1113 1208 752 
Q 1469 391 1925 391 
Q 2381 391 2643 752 
Q 2906 1113 2906 1747 
Q 2906 2381 2643 2742 
Q 2381 3103 1925 3103 
Q 1469 3103 1208 2742 
Q 947 2381 947 1747 
z
" transform="scale(0.015625)"/>
       <path id="DejaVuSans-74" d="M 1172 4494 
L 1172 3500 
L 2356 3500 
L 2356 3053 
L 1172 3053 
L 1172 1153 
Q 1172 725 1289 603 
Q 1406 481 1766 481 
L 2356 481 
L 2356 0 
L 1766 0 
Q 1100 0 847 248 
Q 594 497 594 1153 
L 594 3053 
L 172 3053 
L 172 3500 
L 594 3500 
L 594 4494 
L 1172 4494 
z
" transform="scale(0.015625)"/>
      </defs>
      <use xlink:href="#DejaVuSans-56"/>
      <use xlink:href="#DejaVuSans-61" x="60.658203"/>
      <use xlink:href="#DejaVuSans-6c" x="121.9375"/>
      <use xlink:href="#DejaVuSans-69" x="149.720703"/>
      <use xlink:href="#DejaVuSans-64" x="177.503906"/>
      <use xlink:href="#DejaVuSans-61" x="240.980469"/>
      <use xlink:href="#DejaVuSans-74" x="302.259766"/>
      <use xlink:href="#DejaVuSans-69" x="341.46875"/>
      <use xlink:href="#DejaVuSans-6f" x="369.251953"/>
      <use xlink:href="#DejaVuSans-6e" x="430.433594"/>
      <use xlink:href="#DejaVuSans-20" x="493.8125"/>
      <use xlink:href="#DejaVuSans-41" x="525.599609"/>
      <use xlink:href="#DejaVuSans-63" x="592.257812"/>
      <use xlink:href="#DejaVuSans-63" x="647.238281"/>
      <use xlink:href="#DejaVuSans-75" x="702.21875"/>
      <use xlink:href="#DejaVuSans-72" x="765.597656"/>
      <use xlink:href="#DejaVuSans-61" x="806.710938"/>
      <use xlink:href="#DejaVuSans-63" x="867.990234"/>
      <use xlink:href="#DejaVuSans-79" x="922.970703"/>
     </g>
    </g>
    <g id="line2d_25">
     <path d="M 216.18875 263.648062 
L 226.18875 263.648062 
L 236.18875 263.648062 
" style="fill: none; stroke: #2ca02c; stroke-width: 1.5; stroke-linecap: square"/>
    </g>
    <g id="text_23">
     <!-- Robust Validation Accuracy -->
     <g transform="translate(244.18875 267.148062) scale(0.1 -0.1)">
      <defs>
       <path id="DejaVuSans-52" d="M 2841 2188 
Q 3044 2119 3236 1894 
Q 3428 1669 3622 1275 
L 4263 0 
L 3584 0 
L 2988 1197 
Q 2756 1666 2539 1819 
Q 2322 1972 1947 1972 
L 1259 1972 
L 1259 0 
L 628 0 
L 628 4666 
L 2053 4666 
Q 2853 4666 3247 4331 
Q 3641 3997 3641 3322 
Q 3641 2881 3436 2590 
Q 3231 2300 2841 2188 
z
M 1259 4147 
L 1259 2491 
L 2053 2491 
Q 2509 2491 2742 2702 
Q 2975 2913 2975 3322 
Q 2975 3731 2742 3939 
Q 2509 4147 2053 4147 
L 1259 4147 
z
" transform="scale(0.015625)"/>
       <path id="DejaVuSans-62" d="M 3116 1747 
Q 3116 2381 2855 2742 
Q 2594 3103 2138 3103 
Q 1681 3103 1420 2742 
Q 1159 2381 1159 1747 
Q 1159 1113 1420 752 
Q 1681 391 2138 391 
Q 2594 391 2855 752 
Q 3116 1113 3116 1747 
z
M 1159 2969 
Q 1341 3281 1617 3432 
Q 1894 3584 2278 3584 
Q 2916 3584 3314 3078 
Q 3713 2572 3713 1747 
Q 3713 922 3314 415 
Q 2916 -91 2278 -91 
Q 1894 -91 1617 61 
Q 1341 213 1159 525 
L 1159 0 
L 581 0 
L 581 4863 
L 1159 4863 
L 1159 2969 
z
" transform="scale(0.015625)"/>
      </defs>
      <use xlink:href="#DejaVuSans-52"/>
      <use xlink:href="#DejaVuSans-6f" x="64.982422"/>
      <use xlink:href="#DejaVuSans-62" x="126.164062"/>
      <use xlink:href="#DejaVuSans-75" x="189.640625"/>
      <use xlink:href="#DejaVuSans-73" x="253.019531"/>
      <use xlink:href="#DejaVuSans-74" x="305.119141"/>
      <use xlink:href="#DejaVuSans-20" x="344.328125"/>
      <use xlink:href="#DejaVuSans-56" x="376.115234"/>
      <use xlink:href="#DejaVuSans-61" x="436.773438"/>
      <use xlink:href="#DejaVuSans-6c" x="498.052734"/>
      <use xlink:href="#DejaVuSans-69" x="525.835938"/>
      <use xlink:href="#DejaVuSans-64" x="553.619141"/>
      <use xlink:href="#DejaVuSans-61" x="617.095703"/>
      <use xlink:href="#DejaVuSans-74" x="678.375"/>
      <use xlink:href="#DejaVuSans-69" x="717.583984"/>
      <use xlink:href="#DejaVuSans-6f" x="745.367188"/>
      <use xlink:href="#DejaVuSans-6e" x="806.548828"/>
      <use xlink:href="#DejaVuSans-20" x="869.927734"/>
      <use xlink:href="#DejaVuSans-41" x="901.714844"/>
      <use xlink:href="#DejaVuSans-63" x="968.373047"/>
      <use xlink:href="#DejaVuSans-63" x="1023.353516"/>
      <use xlink:href="#DejaVuSans-75" x="1078.333984"/>
      <use xlink:href="#DejaVuSans-72" x="1141.712891"/>
      <use xlink:href="#DejaVuSans-61" x="1182.826172"/>
      <use xlink:href="#DejaVuSans-63" x="1244.105469"/>
      <use xlink:href="#DejaVuSans-79" x="1299.085938"/>
     </g>
    </g>
    <g id="line2d_26">
     <path d="M 216.18875 278.326188 
L 226.18875 278.326188 
L 236.18875 278.326188 
" style="fill: none; stroke: #d62728; stroke-width: 1.5; stroke-linecap: square"/>
    </g>
    <g id="text_24">
     <!-- SWA Validation Accuracy -->
     <g transform="translate(244.18875 281.826188) scale(0.1 -0.1)">
      <defs>
       <path id="DejaVuSans-53" d="M 3425 4513 
L 3425 3897 
Q 3066 4069 2747 4153 
Q 2428 4238 2131 4238 
Q 1616 4238 1336 4038 
Q 1056 3838 1056 3469 
Q 1056 3159 1242 3001 
Q 1428 2844 1947 2747 
L 2328 2669 
Q 3034 2534 3370 2195 
Q 3706 1856 3706 1288 
Q 3706 609 3251 259 
Q 2797 -91 1919 -91 
Q 1588 -91 1214 -16 
Q 841 59 441 206 
L 441 856 
Q 825 641 1194 531 
Q 1563 422 1919 422 
Q 2459 422 2753 634 
Q 3047 847 3047 1241 
Q 3047 1584 2836 1778 
Q 2625 1972 2144 2069 
L 1759 2144 
Q 1053 2284 737 2584 
Q 422 2884 422 3419 
Q 422 4038 858 4394 
Q 1294 4750 2059 4750 
Q 2388 4750 2728 4690 
Q 3069 4631 3425 4513 
z
" transform="scale(0.015625)"/>
       <path id="DejaVuSans-57" d="M 213 4666 
L 850 4666 
L 1831 722 
L 2809 4666 
L 3519 4666 
L 4500 722 
L 5478 4666 
L 6119 4666 
L 4947 0 
L 4153 0 
L 3169 4050 
L 2175 0 
L 1381 0 
L 213 4666 
z
" transform="scale(0.015625)"/>
      </defs>
      <use xlink:href="#DejaVuSans-53"/>
      <use xlink:href="#DejaVuSans-57" x="63.476562"/>
      <use xlink:href="#DejaVuSans-41" x="156.853516"/>
      <use xlink:href="#DejaVuSans-20" x="225.261719"/>
      <use xlink:href="#DejaVuSans-56" x="257.048828"/>
      <use xlink:href="#DejaVuSans-61" x="317.707031"/>
      <use xlink:href="#DejaVuSans-6c" x="378.986328"/>
      <use xlink:href="#DejaVuSans-69" x="406.769531"/>
      <use xlink:href="#DejaVuSans-64" x="434.552734"/>
      <use xlink:href="#DejaVuSans-61" x="498.029297"/>
      <use xlink:href="#DejaVuSans-74" x="559.308594"/>
      <use xlink:href="#DejaVuSans-69" x="598.517578"/>
      <use xlink:href="#DejaVuSans-6f" x="626.300781"/>
      <use xlink:href="#DejaVuSans-6e" x="687.482422"/>
      <use xlink:href="#DejaVuSans-20" x="750.861328"/>
      <use xlink:href="#DejaVuSans-41" x="782.648438"/>
      <use xlink:href="#DejaVuSans-63" x="849.306641"/>
      <use xlink:href="#DejaVuSans-63" x="904.287109"/>
      <use xlink:href="#DejaVuSans-75" x="959.267578"/>
      <use xlink:href="#DejaVuSans-72" x="1022.646484"/>
      <use xlink:href="#DejaVuSans-61" x="1063.759766"/>
      <use xlink:href="#DejaVuSans-63" x="1125.039062"/>
      <use xlink:href="#DejaVuSans-79" x="1180.019531"/>
     </g>
    </g>
    <g id="line2d_27">
     <path d="M 216.18875 293.004312 
L 226.18875 293.004312 
L 236.18875 293.004312 
" style="fill: none; stroke: #9467bd; stroke-width: 1.5; stroke-linecap: square"/>
    </g>
    <g id="text_25">
     <!-- SWA Robust Validation Accuracy -->
     <g transform="translate(244.18875 296.504312) scale(0.1 -0.1)">
      <use xlink:href="#DejaVuSans-53"/>
      <use xlink:href="#DejaVuSans-57" x="63.476562"/>
      <use xlink:href="#DejaVuSans-41" x="156.853516"/>
      <use xlink:href="#DejaVuSans-20" x="225.261719"/>
      <use xlink:href="#DejaVuSans-52" x="257.048828"/>
      <use xlink:href="#DejaVuSans-6f" x="322.03125"/>
      <use xlink:href="#DejaVuSans-62" x="383.212891"/>
      <use xlink:href="#DejaVuSans-75" x="446.689453"/>
      <use xlink:href="#DejaVuSans-73" x="510.068359"/>
      <use xlink:href="#DejaVuSans-74" x="562.167969"/>
      <use xlink:href="#DejaVuSans-20" x="601.376953"/>
      <use xlink:href="#DejaVuSans-56" x="633.164062"/>
      <use xlink:href="#DejaVuSans-61" x="693.822266"/>
      <use xlink:href="#DejaVuSans-6c" x="755.101562"/>
      <use xlink:href="#DejaVuSans-69" x="782.884766"/>
      <use xlink:href="#DejaVuSans-64" x="810.667969"/>
      <use xlink:href="#DejaVuSans-61" x="874.144531"/>
      <use xlink:href="#DejaVuSans-74" x="935.423828"/>
      <use xlink:href="#DejaVuSans-69" x="974.632812"/>
      <use xlink:href="#DejaVuSans-6f" x="1002.416016"/>
      <use xlink:href="#DejaVuSans-6e" x="1063.597656"/>
      <use xlink:href="#DejaVuSans-20" x="1126.976562"/>
      <use xlink:href="#DejaVuSans-41" x="1158.763672"/>
      <use xlink:href="#DejaVuSans-63" x="1225.421875"/>
      <use xlink:href="#DejaVuSans-63" x="1280.402344"/>
      <use xlink:href="#DejaVuSans-75" x="1335.382812"/>
      <use xlink:href="#DejaVuSans-72" x="1398.761719"/>
      <use xlink:href="#DejaVuSans-61" x="1439.875"/>
      <use xlink:href="#DejaVuSans-63" x="1501.154297"/>
      <use xlink:href="#DejaVuSans-79" x="1556.134766"/>
     </g>
    </g>
   </g>
  </g>
 </g>
 <defs>
  <clipPath id="p0dec886016">
   <rect x="57.6" y="41.472" width="357.12" height="266.112"/>
  </clipPath>
 </defs>
</svg>
