<?xml version="1.0" encoding="utf-8" standalone="no"?>
<!DOCTYPE svg PUBLIC "-//W3C//DTD SVG 1.1//EN"
  "http://www.w3.org/Graphics/SVG/1.1/DTD/svg11.dtd">
<svg xmlns:xlink="http://www.w3.org/1999/xlink" width="460.8pt" height="345.6pt" viewBox="0 0 460.8 345.6" xmlns="http://www.w3.org/2000/svg" version="1.1">
 <metadata>
  <rdf:RDF xmlns:dc="http://purl.org/dc/elements/1.1/" xmlns:cc="http://creativecommons.org/ns#" xmlns:rdf="http://www.w3.org/1999/02/22-rdf-syntax-ns#">
   <cc:Work>
    <dc:type rdf:resource="http://purl.org/dc/dcmitype/StillImage"/>
    <dc:date>2025-10-19T07:47:49.584966</dc:date>
    <dc:format>image/svg+xml</dc:format>
    <dc:creator>
     <cc:Agent>
      <dc:title>Matplotlib v3.9.1, https://matplotlib.org/</dc:title>
     </cc:Agent>
    </dc:creator>
   </cc:Work>
  </rdf:RDF>
 </metadata>
 <defs>
  <style type="text/css">*{stroke-linejoin: round; stroke-linecap: butt}</style>
 </defs>
 <g id="figure_1">
  <g id="patch_1">
   <path d="M 0 345.6 
L 460.8 345.6 
L 460.8 0 
L 0 0 
z
" style="fill: #ffffff"/>
  </g>
  <g id="axes_1">
   <g id="patch_2">
    <path d="M 57.6 307.584 
L 414.72 307.584 
L 414.72 41.472 
L 57.6 41.472 
z
" style="fill: #ffffff"/>
   </g>
   <g id="matplotlib.axis_1">
    <g id="xtick_1">
     <g id="line2d_1">
      <defs>
       <path id="mcc5362f110" d="M 0 0 
L 0 3.5 
" style="stroke: #000000; stroke-width: 0.8"/>
      </defs>
      <g>
       <use xlink:href="#mcc5362f110" x="73.832727" y="307.584" style="stroke: #000000; stroke-width: 0.8"/>
      </g>
     </g>
     <g id="text_1">
      <!-- 1 -->
      <g transform="translate(70.651477 322.182437) scale(0.1 -0.1)">
       <defs>
        <path id="DejaVuSans-31" d="M 794 531 
L 1825 531 
L 1825 4091 
L 703 3866 
L 703 4441 
L 1819 4666 
L 2450 4666 
L 2450 531 
L 3481 531 
L 3481 0 
L 794 0 
L 794 531 
z
" transform="scale(0.015625)"/>
       </defs>
       <use xlink:href="#DejaVuSans-31"/>
      </g>
     </g>
    </g>
    <g id="xtick_2">
     <g id="line2d_2">
      <g>
       <use xlink:href="#mcc5362f110" x="109.664165" y="307.584" style="stroke: #000000; stroke-width: 0.8"/>
      </g>
     </g>
     <g id="text_2">
      <!-- 34 -->
      <g transform="translate(103.301665 322.182437) scale(0.1 -0.1)">
       <defs>
        <path id="DejaVuSans-33" d="M 2597 2516 
Q 3050 2419 3304 2112 
Q 3559 1806 3559 1356 
Q 3559 666 3084 287 
Q 2609 -91 1734 -91 
Q 1441 -91 1130 -33 
Q 819 25 488 141 
L 488 750 
Q 750 597 1062 519 
Q 1375 441 1716 441 
Q 2309 441 2620 675 
Q 2931 909 2931 1356 
Q 2931 1769 2642 2001 
Q 2353 2234 1838 2234 
L 1294 2234 
L 1294 2753 
L 1863 2753 
Q 2328 2753 2575 2939 
Q 2822 3125 2822 3475 
Q 2822 3834 2567 4026 
Q 2313 4219 1838 4219 
Q 1578 4219 1281 4162 
Q 984 4106 628 3988 
L 628 4550 
Q 988 4650 1302 4700 
Q 1616 4750 1894 4750 
Q 2613 4750 3031 4423 
Q 3450 4097 3450 3541 
Q 3450 3153 3228 2886 
Q 3006 2619 2597 2516 
z
" transform="scale(0.015625)"/>
        <path id="DejaVuSans-34" d="M 2419 4116 
L 825 1625 
L 2419 1625 
L 2419 4116 
z
M 2253 4666 
L 3047 4666 
L 3047 1625 
L 3713 1625 
L 3713 1100 
L 3047 1100 
L 3047 0 
L 2419 0 
L 2419 1100 
L 313 1100 
L 313 1709 
L 2253 4666 
z
" transform="scale(0.015625)"/>
       </defs>
       <use xlink:href="#DejaVuSans-33"/>
       <use xlink:href="#DejaVuSans-34" x="63.623047"/>
      </g>
     </g>
    </g>
    <g id="xtick_3">
     <g id="line2d_3">
      <g>
       <use xlink:href="#mcc5362f110" x="145.495604" y="307.584" style="stroke: #000000; stroke-width: 0.8"/>
      </g>
     </g>
     <g id="text_3">
      <!-- 67 -->
      <g transform="translate(139.133104 322.182437) scale(0.1 -0.1)">
       <defs>
        <path id="DejaVuSans-36" d="M 2113 2584 
Q 1688 2584 1439 2293 
Q 1191 2003 1191 1497 
Q 1191 994 1439 701 
Q 1688 409 2113 409 
Q 2538 409 2786 701 
Q 3034 994 3034 1497 
Q 3034 2003 2786 2293 
Q 2538 2584 2113 2584 
z
M 3366 4563 
L 3366 3988 
Q 3128 4100 2886 4159 
Q 2644 4219 2406 4219 
Q 1781 4219 1451 3797 
Q 1122 3375 1075 2522 
Q 1259 2794 1537 2939 
Q 1816 3084 2150 3084 
Q 2853 3084 3261 2657 
Q 3669 2231 3669 1497 
Q 3669 778 3244 343 
Q 2819 -91 2113 -91 
Q 1303 -91 875 529 
Q 447 1150 447 2328 
Q 447 3434 972 4092 
Q 1497 4750 2381 4750 
Q 2619 4750 2861 4703 
Q 3103 4656 3366 4563 
z
" transform="scale(0.015625)"/>
        <path id="DejaVuSans-37" d="M 525 4666 
L 3525 4666 
L 3525 4397 
L 1831 0 
L 1172 0 
L 2766 4134 
L 525 4134 
L 525 4666 
z
" transform="scale(0.015625)"/>
       </defs>
       <use xlink:href="#DejaVuSans-36"/>
       <use xlink:href="#DejaVuSans-37" x="63.623047"/>
      </g>
     </g>
    </g>
    <g id="xtick_4">
     <g id="line2d_4">
      <g>
       <use xlink:href="#mcc5362f110" x="181.327042" y="307.584" style="stroke: #000000; stroke-width: 0.8"/>
      </g>
     </g>
     <g id="text_4">
      <!-- 100 -->
      <g transform="translate(171.783292 322.182437) scale(0.1 -0.1)">
       <defs>
        <path id="DejaVuSans-30" d="M 2034 4250 
Q 1547 4250 1301 3770 
Q 1056 3291 1056 2328 
Q 1056 1369 1301 889 
Q 1547 409 2034 409 
Q 2525 409 2770 889 
Q 3016 1369 3016 2328 
Q 3016 3291 2770 3770 
Q 2525 4250 2034 4250 
z
M 2034 4750 
Q 2819 4750 3233 4129 
Q 3647 3509 3647 2328 
Q 3647 1150 3233 529 
Q 2819 -91 2034 -91 
Q 1250 -91 836 529 
Q 422 1150 422 2328 
Q 422 3509 836 4129 
Q 1250 4750 2034 4750 
z
" transform="scale(0.015625)"/>
       </defs>
       <use xlink:href="#DejaVuSans-31"/>
       <use xlink:href="#DejaVuSans-30" x="63.623047"/>
       <use xlink:href="#DejaVuSans-30" x="127.246094"/>
      </g>
     </g>
    </g>
    <g id="xtick_5">
     <g id="line2d_5">
      <g>
       <use xlink:href="#mcc5362f110" x="217.15848" y="307.584" style="stroke: #000000; stroke-width: 0.8"/>
      </g>
     </g>
     <g id="text_5">
      <!-- 133 -->
      <g transform="translate(207.61473 322.182437) scale(0.1 -0.1)">
       <use xlink:href="#DejaVuSans-31"/>
       <use xlink:href="#DejaVuSans-33" x="63.623047"/>
       <use xlink:href="#DejaVuSans-33" x="127.246094"/>
      </g>
     </g>
    </g>
    <g id="xtick_6">
     <g id="line2d_6">
      <g>
       <use xlink:href="#mcc5362f110" x="254.075719" y="307.584" style="stroke: #000000; stroke-width: 0.8"/>
      </g>
     </g>
     <g id="text_6">
      <!-- 167 -->
      <g transform="translate(244.531969 322.182437) scale(0.1 -0.1)">
       <use xlink:href="#DejaVuSans-31"/>
       <use xlink:href="#DejaVuSans-36" x="63.623047"/>
       <use xlink:href="#DejaVuSans-37" x="127.246094"/>
      </g>
     </g>
    </g>
    <g id="xtick_7">
     <g id="line2d_7">
      <g>
       <use xlink:href="#mcc5362f110" x="289.907157" y="307.584" style="stroke: #000000; stroke-width: 0.8"/>
      </g>
     </g>
     <g id="text_7">
      <!-- 200 -->
      <g transform="translate(280.363407 322.182437) scale(0.1 -0.1)">
       <defs>
        <path id="DejaVuSans-32" d="M 1228 531 
L 3431 531 
L 3431 0 
L 469 0 
L 469 531 
Q 828 903 1448 1529 
Q 2069 2156 2228 2338 
Q 2531 2678 2651 2914 
Q 2772 3150 2772 3378 
Q 2772 3750 2511 3984 
Q 2250 4219 1831 4219 
Q 1534 4219 1204 4116 
Q 875 4013 500 3803 
L 500 4441 
Q 881 4594 1212 4672 
Q 1544 4750 1819 4750 
Q 2544 4750 2975 4387 
Q 3406 4025 3406 3419 
Q 3406 3131 3298 2873 
Q 3191 2616 2906 2266 
Q 2828 2175 2409 1742 
Q 1991 1309 1228 531 
z
" transform="scale(0.015625)"/>
       </defs>
       <use xlink:href="#DejaVuSans-32"/>
       <use xlink:href="#DejaVuSans-30" x="63.623047"/>
       <use xlink:href="#DejaVuSans-30" x="127.246094"/>
      </g>
     </g>
    </g>
    <g id="xtick_8">
     <g id="line2d_8">
      <g>
       <use xlink:href="#mcc5362f110" x="325.738595" y="307.584" style="stroke: #000000; stroke-width: 0.8"/>
      </g>
     </g>
     <g id="text_8">
      <!-- 233 -->
      <g transform="translate(316.194845 322.182437) scale(0.1 -0.1)">
       <use xlink:href="#DejaVuSans-32"/>
       <use xlink:href="#DejaVuSans-33" x="63.623047"/>
       <use xlink:href="#DejaVuSans-33" x="127.246094"/>
      </g>
     </g>
    </g>
    <g id="xtick_9">
     <g id="line2d_9">
      <g>
       <use xlink:href="#mcc5362f110" x="361.570033" y="307.584" style="stroke: #000000; stroke-width: 0.8"/>
      </g>
     </g>
     <g id="text_9">
      <!-- 266 -->
      <g transform="translate(352.026283 322.182437) scale(0.1 -0.1)">
       <use xlink:href="#DejaVuSans-32"/>
       <use xlink:href="#DejaVuSans-36" x="63.623047"/>
       <use xlink:href="#DejaVuSans-36" x="127.246094"/>
      </g>
     </g>
    </g>
    <g id="xtick_10">
     <g id="line2d_10">
      <g>
       <use xlink:href="#mcc5362f110" x="398.487273" y="307.584" style="stroke: #000000; stroke-width: 0.8"/>
      </g>
     </g>
     <g id="text_10">
      <!-- 300 -->
      <g transform="translate(388.943523 322.182437) scale(0.1 -0.1)">
       <use xlink:href="#DejaVuSans-33"/>
       <use xlink:href="#DejaVuSans-30" x="63.623047"/>
       <use xlink:href="#DejaVuSans-30" x="127.246094"/>
      </g>
     </g>
    </g>
    <g id="text_11">
     <!-- Epochs -->
     <g transform="translate(218.244375 335.860562) scale(0.1 -0.1)">
      <defs>
       <path id="DejaVuSans-45" d="M 628 4666 
L 3578 4666 
L 3578 4134 
L 1259 4134 
L 1259 2753 
L 3481 2753 
L 3481 2222 
L 1259 2222 
L 1259 531 
L 3634 531 
L 3634 0 
L 628 0 
L 628 4666 
z
" transform="scale(0.015625)"/>
       <path id="DejaVuSans-70" d="M 1159 525 
L 1159 -1331 
L 581 -1331 
L 581 3500 
L 1159 3500 
L 1159 2969 
Q 1341 3281 1617 3432 
Q 1894 3584 2278 3584 
Q 2916 3584 3314 3078 
Q 3713 2572 3713 1747 
Q 3713 922 3314 415 
Q 2916 -91 2278 -91 
Q 1894 -91 1617 61 
Q 1341 213 1159 525 
z
M 3116 1747 
Q 3116 2381 2855 2742 
Q 2594 3103 2138 3103 
Q 1681 3103 1420 2742 
Q 1159 2381 1159 1747 
Q 1159 1113 1420 752 
Q 1681 391 2138 391 
Q 2594 391 2855 752 
Q 3116 1113 3116 1747 
z
" transform="scale(0.015625)"/>
       <path id="DejaVuSans-6f" d="M 1959 3097 
Q 1497 3097 1228 2736 
Q 959 2375 959 1747 
Q 959 1119 1226 758 
Q 1494 397 1959 397 
Q 2419 397 2687 759 
Q 2956 1122 2956 1747 
Q 2956 2369 2687 2733 
Q 2419 3097 1959 3097 
z
M 1959 3584 
Q 2709 3584 3137 3096 
Q 3566 2609 3566 1747 
Q 3566 888 3137 398 
Q 2709 -91 1959 -91 
Q 1206 -91 779 398 
Q 353 888 353 1747 
Q 353 2609 779 3096 
Q 1206 3584 1959 3584 
z
" transform="scale(0.015625)"/>
       <path id="DejaVuSans-63" d="M 3122 3366 
L 3122 2828 
Q 2878 2963 2633 3030 
Q 2388 3097 2138 3097 
Q 1578 3097 1268 2742 
Q 959 2388 959 1747 
Q 959 1106 1268 751 
Q 1578 397 2138 397 
Q 2388 397 2633 464 
Q 2878 531 3122 666 
L 3122 134 
Q 2881 22 2623 -34 
Q 2366 -91 2075 -91 
Q 1284 -91 818 406 
Q 353 903 353 1747 
Q 353 2603 823 3093 
Q 1294 3584 2113 3584 
Q 2378 3584 2631 3529 
Q 2884 3475 3122 3366 
z
" transform="scale(0.015625)"/>
       <path id="DejaVuSans-68" d="M 3513 2113 
L 3513 0 
L 2938 0 
L 2938 2094 
Q 2938 2591 2744 2837 
Q 2550 3084 2163 3084 
Q 1697 3084 1428 2787 
Q 1159 2491 1159 1978 
L 1159 0 
L 581 0 
L 581 4863 
L 1159 4863 
L 1159 2956 
Q 1366 3272 1645 3428 
Q 1925 3584 2291 3584 
Q 2894 3584 3203 3211 
Q 3513 2838 3513 2113 
z
" transform="scale(0.015625)"/>
       <path id="DejaVuSans-73" d="M 2834 3397 
L 2834 2853 
Q 2591 2978 2328 3040 
Q 2066 3103 1784 3103 
Q 1356 3103 1142 2972 
Q 928 2841 928 2578 
Q 928 2378 1081 2264 
Q 1234 2150 1697 2047 
L 1894 2003 
Q 2506 1872 2764 1633 
Q 3022 1394 3022 966 
Q 3022 478 2636 193 
Q 2250 -91 1575 -91 
Q 1294 -91 989 -36 
Q 684 19 347 128 
L 347 722 
Q 666 556 975 473 
Q 1284 391 1588 391 
Q 1994 391 2212 530 
Q 2431 669 2431 922 
Q 2431 1156 2273 1281 
Q 2116 1406 1581 1522 
L 1381 1569 
Q 847 1681 609 1914 
Q 372 2147 372 2553 
Q 372 3047 722 3315 
Q 1072 3584 1716 3584 
Q 2034 3584 2315 3537 
Q 2597 3491 2834 3397 
z
" transform="scale(0.015625)"/>
      </defs>
      <use xlink:href="#DejaVuSans-45"/>
      <use xlink:href="#DejaVuSans-70" x="63.183594"/>
      <use xlink:href="#DejaVuSans-6f" x="126.660156"/>
      <use xlink:href="#DejaVuSans-63" x="187.841797"/>
      <use xlink:href="#DejaVuSans-68" x="242.822266"/>
      <use xlink:href="#DejaVuSans-73" x="306.201172"/>
     </g>
    </g>
   </g>
   <g id="matplotlib.axis_2">
    <g id="ytick_1">
     <g id="line2d_11">
      <defs>
       <path id="mf945c60b97" d="M 0 0 
L -3.5 0 
" style="stroke: #000000; stroke-width: 0.8"/>
      </defs>
      <g>
       <use xlink:href="#mf945c60b97" x="57.6" y="293.372741" style="stroke: #000000; stroke-width: 0.8"/>
      </g>
     </g>
     <g id="text_12">
      <!-- 40 -->
      <g transform="translate(37.875 297.171959) scale(0.1 -0.1)">
       <use xlink:href="#DejaVuSans-34"/>
       <use xlink:href="#DejaVuSans-30" x="63.623047"/>
      </g>
     </g>
    </g>
    <g id="ytick_2">
     <g id="line2d_12">
      <g>
       <use xlink:href="#mf945c60b97" x="57.6" y="250.996925" style="stroke: #000000; stroke-width: 0.8"/>
      </g>
     </g>
     <g id="text_13">
      <!-- 50 -->
      <g transform="translate(37.875 254.796144) scale(0.1 -0.1)">
       <defs>
        <path id="DejaVuSans-35" d="M 691 4666 
L 3169 4666 
L 3169 4134 
L 1269 4134 
L 1269 2991 
Q 1406 3038 1543 3061 
Q 1681 3084 1819 3084 
Q 2600 3084 3056 2656 
Q 3513 2228 3513 1497 
Q 3513 744 3044 326 
Q 2575 -91 1722 -91 
Q 1428 -91 1123 -41 
Q 819 9 494 109 
L 494 744 
Q 775 591 1075 516 
Q 1375 441 1709 441 
Q 2250 441 2565 725 
Q 2881 1009 2881 1497 
Q 2881 1984 2565 2268 
Q 2250 2553 1709 2553 
Q 1456 2553 1204 2497 
Q 953 2441 691 2322 
L 691 4666 
z
" transform="scale(0.015625)"/>
       </defs>
       <use xlink:href="#DejaVuSans-35"/>
       <use xlink:href="#DejaVuSans-30" x="63.623047"/>
      </g>
     </g>
    </g>
    <g id="ytick_3">
     <g id="line2d_13">
      <g>
       <use xlink:href="#mf945c60b97" x="57.6" y="208.621109" style="stroke: #000000; stroke-width: 0.8"/>
      </g>
     </g>
     <g id="text_14">
      <!-- 60 -->
      <g transform="translate(37.875 212.420328) scale(0.1 -0.1)">
       <use xlink:href="#DejaVuSans-36"/>
       <use xlink:href="#DejaVuSans-30" x="63.623047"/>
      </g>
     </g>
    </g>
    <g id="ytick_4">
     <g id="line2d_14">
      <g>
       <use xlink:href="#mf945c60b97" x="57.6" y="166.245294" style="stroke: #000000; stroke-width: 0.8"/>
      </g>
     </g>
     <g id="text_15">
      <!-- 70 -->
      <g transform="translate(37.875 170.044512) scale(0.1 -0.1)">
       <use xlink:href="#DejaVuSans-37"/>
       <use xlink:href="#DejaVuSans-30" x="63.623047"/>
      </g>
     </g>
    </g>
    <g id="ytick_5">
     <g id="line2d_15">
      <g>
       <use xlink:href="#mf945c60b97" x="57.6" y="123.869478" style="stroke: #000000; stroke-width: 0.8"/>
      </g>
     </g>
     <g id="text_16">
      <!-- 80 -->
      <g transform="translate(37.875 127.668697) scale(0.1 -0.1)">
       <defs>
        <path id="DejaVuSans-38" d="M 2034 2216 
Q 1584 2216 1326 1975 
Q 1069 1734 1069 1313 
Q 1069 891 1326 650 
Q 1584 409 2034 409 
Q 2484 409 2743 651 
Q 3003 894 3003 1313 
Q 3003 1734 2745 1975 
Q 2488 2216 2034 2216 
z
M 1403 2484 
Q 997 2584 770 2862 
Q 544 3141 544 3541 
Q 544 4100 942 4425 
Q 1341 4750 2034 4750 
Q 2731 4750 3128 4425 
Q 3525 4100 3525 3541 
Q 3525 3141 3298 2862 
Q 3072 2584 2669 2484 
Q 3125 2378 3379 2068 
Q 3634 1759 3634 1313 
Q 3634 634 3220 271 
Q 2806 -91 2034 -91 
Q 1263 -91 848 271 
Q 434 634 434 1313 
Q 434 1759 690 2068 
Q 947 2378 1403 2484 
z
M 1172 3481 
Q 1172 3119 1398 2916 
Q 1625 2713 2034 2713 
Q 2441 2713 2670 2916 
Q 2900 3119 2900 3481 
Q 2900 3844 2670 4047 
Q 2441 4250 2034 4250 
Q 1625 4250 1398 4047 
Q 1172 3844 1172 3481 
z
" transform="scale(0.015625)"/>
       </defs>
       <use xlink:href="#DejaVuSans-38"/>
       <use xlink:href="#DejaVuSans-30" x="63.623047"/>
      </g>
     </g>
    </g>
    <g id="ytick_6">
     <g id="line2d_16">
      <g>
       <use xlink:href="#mf945c60b97" x="57.6" y="81.493662" style="stroke: #000000; stroke-width: 0.8"/>
      </g>
     </g>
     <g id="text_17">
      <!-- 90 -->
      <g transform="translate(37.875 85.292881) scale(0.1 -0.1)">
       <defs>
        <path id="DejaVuSans-39" d="M 703 97 
L 703 672 
Q 941 559 1184 500 
Q 1428 441 1663 441 
Q 2288 441 2617 861 
Q 2947 1281 2994 2138 
Q 2813 1869 2534 1725 
Q 2256 1581 1919 1581 
Q 1219 1581 811 2004 
Q 403 2428 403 3163 
Q 403 3881 828 4315 
Q 1253 4750 1959 4750 
Q 2769 4750 3195 4129 
Q 3622 3509 3622 2328 
Q 3622 1225 3098 567 
Q 2575 -91 1691 -91 
Q 1453 -91 1209 -44 
Q 966 3 703 97 
z
M 1959 2075 
Q 2384 2075 2632 2365 
Q 2881 2656 2881 3163 
Q 2881 3666 2632 3958 
Q 2384 4250 1959 4250 
Q 1534 4250 1286 3958 
Q 1038 3666 1038 3163 
Q 1038 2656 1286 2365 
Q 1534 2075 1959 2075 
z
" transform="scale(0.015625)"/>
       </defs>
       <use xlink:href="#DejaVuSans-39"/>
       <use xlink:href="#DejaVuSans-30" x="63.623047"/>
      </g>
     </g>
    </g>
    <g id="text_18">
     <!-- Accuracy -->
     <g transform="translate(31.795312 197.356125) rotate(-90) scale(0.1 -0.1)">
      <defs>
       <path id="DejaVuSans-41" d="M 2188 4044 
L 1331 1722 
L 3047 1722 
L 2188 4044 
z
M 1831 4666 
L 2547 4666 
L 4325 0 
L 3669 0 
L 3244 1197 
L 1141 1197 
L 716 0 
L 50 0 
L 1831 4666 
z
" transform="scale(0.015625)"/>
       <path id="DejaVuSans-75" d="M 544 1381 
L 544 3500 
L 1119 3500 
L 1119 1403 
Q 1119 906 1312 657 
Q 1506 409 1894 409 
Q 2359 409 2629 706 
Q 2900 1003 2900 1516 
L 2900 3500 
L 3475 3500 
L 3475 0 
L 2900 0 
L 2900 538 
Q 2691 219 2414 64 
Q 2138 -91 1772 -91 
Q 1169 -91 856 284 
Q 544 659 544 1381 
z
M 1991 3584 
L 1991 3584 
z
" transform="scale(0.015625)"/>
       <path id="DejaVuSans-72" d="M 2631 2963 
Q 2534 3019 2420 3045 
Q 2306 3072 2169 3072 
Q 1681 3072 1420 2755 
Q 1159 2438 1159 1844 
L 1159 0 
L 581 0 
L 581 3500 
L 1159 3500 
L 1159 2956 
Q 1341 3275 1631 3429 
Q 1922 3584 2338 3584 
Q 2397 3584 2469 3576 
Q 2541 3569 2628 3553 
L 2631 2963 
z
" transform="scale(0.015625)"/>
       <path id="DejaVuSans-61" d="M 2194 1759 
Q 1497 1759 1228 1600 
Q 959 1441 959 1056 
Q 959 750 1161 570 
Q 1363 391 1709 391 
Q 2188 391 2477 730 
Q 2766 1069 2766 1631 
L 2766 1759 
L 2194 1759 
z
M 3341 1997 
L 3341 0 
L 2766 0 
L 2766 531 
Q 2569 213 2275 61 
Q 1981 -91 1556 -91 
Q 1019 -91 701 211 
Q 384 513 384 1019 
Q 384 1609 779 1909 
Q 1175 2209 1959 2209 
L 2766 2209 
L 2766 2266 
Q 2766 2663 2505 2880 
Q 2244 3097 1772 3097 
Q 1472 3097 1187 3025 
Q 903 2953 641 2809 
L 641 3341 
Q 956 3463 1253 3523 
Q 1550 3584 1831 3584 
Q 2591 3584 2966 3190 
Q 3341 2797 3341 1997 
z
" transform="scale(0.015625)"/>
       <path id="DejaVuSans-79" d="M 2059 -325 
Q 1816 -950 1584 -1140 
Q 1353 -1331 966 -1331 
L 506 -1331 
L 506 -850 
L 844 -850 
Q 1081 -850 1212 -737 
Q 1344 -625 1503 -206 
L 1606 56 
L 191 3500 
L 800 3500 
L 1894 763 
L 2988 3500 
L 3597 3500 
L 2059 -325 
z
" transform="scale(0.015625)"/>
      </defs>
      <use xlink:href="#DejaVuSans-41"/>
      <use xlink:href="#DejaVuSans-63" x="66.658203"/>
      <use xlink:href="#DejaVuSans-63" x="121.638672"/>
      <use xlink:href="#DejaVuSans-75" x="176.619141"/>
      <use xlink:href="#DejaVuSans-72" x="239.998047"/>
      <use xlink:href="#DejaVuSans-61" x="281.111328"/>
      <use xlink:href="#DejaVuSans-63" x="342.390625"/>
      <use xlink:href="#DejaVuSans-79" x="397.371094"/>
     </g>
    </g>
   </g>
   <g id="line2d_17">
    <path d="M 73.832727 295.488 
L 74.918528 207.092049 
L 76.00433 170.765381 
L 77.090131 151.826922 
L 78.175932 139.612094 
L 79.261733 133.57354 
L 80.347534 126.009457 
L 82.519137 117.099942 
L 84.690739 109.48642 
L 85.77654 106.883839 
L 86.862341 103.945782 
L 87.948142 99.510447 
L 89.033943 98.669993 
L 91.205546 93.764992 
L 92.291347 91.557919 
L 93.377148 90.883437 
L 94.462949 89.915856 
L 95.54875 110.574066 
L 96.634552 111.502803 
L 97.720353 108.794282 
L 98.806154 107.66426 
L 100.977756 102.501473 
L 102.063557 102.282531 
L 103.149358 101.731646 
L 104.23516 100.146084 
L 106.406762 96.212196 
L 107.492563 96.166289 
L 108.578364 94.916202 
L 109.664165 93.998059 
L 110.749967 93.358891 
L 111.835768 91.932238 
L 112.921569 91.038815 
L 114.00737 89.661601 
L 115.093171 89.248437 
L 116.178972 87.500434 
L 117.264773 86.946017 
L 118.350575 85.900747 
L 119.436376 85.148577 
L 120.522177 83.005067 
L 121.607978 82.641341 
L 122.693779 81.64904 
L 123.77958 80.46958 
L 124.865382 80.310671 
L 125.951183 78.813392 
L 127.036984 78.696859 
L 128.122785 76.853511 
L 129.208586 76.814666 
L 130.294387 76.397971 
L 131.380189 75.052539 
L 132.46599 75.426858 
L 133.551791 74.335681 
L 134.637592 73.753014 
L 135.723393 74.166178 
L 136.809194 73.28688 
L 137.894995 72.937279 
L 138.980797 90.618588 
L 140.066598 92.574938 
L 141.152399 92.709128 
L 142.2382 91.875737 
L 143.324001 91.338977 
L 144.409802 91.550856 
L 145.495604 89.629819 
L 146.581405 90.138329 
L 147.667206 89.100121 
L 148.753007 87.818253 
L 149.838808 88.510391 
L 150.924609 87.419214 
L 152.01041 87.906536 
L 153.096212 86.515197 
L 154.182013 87.002519 
L 155.267814 85.80187 
L 156.353615 85.303955 
L 157.439416 85.222734 
L 160.69682 84.180995 
L 161.782621 84.290466 
L 162.868422 84.241028 
L 163.954223 83.312291 
L 165.040024 83.393512 
L 166.125825 83.036848 
L 167.211627 81.423036 
L 168.297428 82.588371 
L 169.383229 80.910995 
L 170.46903 81.302971 
L 171.554831 80.642615 
L 172.640632 80.787399 
L 173.726434 79.590282 
L 174.812235 79.622064 
L 176.983837 78.548543 
L 178.069638 78.612107 
L 179.155439 78.449666 
L 180.24124 77.983532 
L 181.327042 77.14661 
L 182.412843 77.136016 
L 183.498644 76.327344 
L 185.670246 75.91418 
L 186.756047 75.05607 
L 187.841849 73.55526 
L 188.92765 73.855422 
L 190.013451 73.805983 
L 191.099252 73.590573 
L 192.185053 72.488802 
L 193.270854 72.312236 
L 194.356656 72.555897 
L 195.442457 71.514158 
L 196.528258 71.870821 
L 197.614059 70.355886 
L 198.69986 70.031004 
L 199.785661 70.069849 
L 200.871462 69.730842 
L 201.957264 69.112862 
L 203.043065 68.982203 
L 204.128866 68.219438 
L 205.214667 68.180594 
L 206.300468 68.335972 
L 207.386269 67.244794 
L 208.472071 67.195356 
L 209.557872 66.944632 
L 210.643673 67.615583 
L 211.729474 66.058272 
L 212.815275 66.178336 
L 213.901076 66.531468 
L 214.986877 65.503855 
L 216.072679 65.447354 
L 217.15848 66.047678 
L 219.330082 64.610431 
L 222.587486 65.334351 
L 223.673287 64.970626 
L 224.759088 64.451522 
L 225.844889 80.420142 
L 226.93069 83.488857 
L 229.102292 83.393512 
L 230.188094 83.661892 
L 231.273895 83.100412 
L 232.359696 83.005067 
L 233.445497 81.800887 
L 234.531298 81.977453 
L 235.617099 82.030423 
L 237.788702 81.772637 
L 238.874503 81.200563 
L 239.960304 81.461881 
L 242.131906 81.1935 
L 243.217708 81.144062 
L 245.38931 79.823349 
L 246.475111 80.222388 
L 247.560912 80.081135 
L 248.646713 79.657377 
L 249.732514 79.71741 
L 250.818316 79.572626 
L 251.904117 79.823349 
L 252.989918 79.795099 
L 254.075719 79.081772 
L 255.16152 79.494937 
L 256.247321 79.233619 
L 257.333123 78.499105 
L 258.418924 78.767485 
L 260.590526 78.24485 
L 261.676327 78.19188 
L 262.762128 78.467323 
L 263.847929 77.835217 
L 264.933731 77.838748 
L 266.019532 78.227193 
L 267.105333 77.301988 
L 268.191134 77.139547 
L 269.276935 77.432647 
L 270.362736 76.832323 
L 271.448538 76.970044 
L 272.534339 76.895886 
L 273.62014 76.419159 
L 274.705941 77.153673 
L 275.791742 76.535692 
L 276.877543 76.193154 
L 277.963344 76.179029 
L 279.049146 75.86121 
L 280.134947 76.454472 
L 282.306549 75.338575 
L 283.39235 75.32445 
L 284.478151 75.112571 
L 285.563953 75.748208 
L 287.735555 74.861847 
L 288.821356 74.897161 
L 289.907157 73.844828 
L 290.992958 73.763607 
L 292.07876 73.131502 
L 293.164561 74.095551 
L 294.250362 72.933748 
L 295.336163 73.700044 
L 296.421964 73.488165 
L 297.507765 73.117376 
L 298.593566 73.131502 
L 299.679368 73.31513 
L 300.765169 72.887841 
L 301.85097 72.612398 
L 302.936771 72.107419 
L 304.022572 71.994417 
L 305.108373 72.478208 
L 306.194175 72.50999 
L 307.279976 71.390562 
L 308.365777 71.012711 
L 309.451578 70.998585 
L 310.537379 71.683661 
L 311.62318 70.949147 
L 312.708981 71.009179 
L 313.794783 71.390562 
L 314.880584 70.052192 
L 317.052186 69.960378 
L 318.137987 70.723143 
L 319.223788 69.271771 
L 320.30959 69.868564 
L 321.395391 69.201145 
L 322.481192 69.225864 
L 323.566993 69.451868 
L 325.738595 68.244157 
L 326.824396 68.883326 
L 327.910198 67.98284 
L 328.995999 67.552019 
L 330.0818 68.01109 
L 331.167601 67.089416 
L 332.253402 67.336609 
L 333.339203 67.407235 
L 334.425005 66.195993 
L 335.510806 66.524406 
L 336.596607 66.64447 
L 337.682408 65.645107 
L 338.768209 66.799848 
L 339.85401 65.931144 
L 340.939811 65.51798 
L 342.025613 65.542699 
L 343.111414 66.404341 
L 344.197215 64.638682 
L 345.283016 64.546868 
L 346.368817 64.811716 
L 347.454618 64.345582 
L 348.54042 64.211392 
L 349.626221 64.960032 
L 351.797823 64.638682 
L 352.883624 63.978325 
L 355.055227 63.868855 
L 356.141028 63.074308 
L 357.226829 63.081371 
L 358.31263 63.233217 
L 359.398431 62.576392 
L 360.484232 63.349751 
L 362.655835 62.110258 
L 363.741636 62.452796 
L 364.827437 62.134977 
L 365.913238 60.99083 
L 366.999039 62.173822 
L 368.08484 62.378638 
L 369.170642 61.651187 
L 370.256443 63.24028 
L 371.342244 63.674632 
L 372.428045 63.519254 
L 373.513846 63.099027 
L 374.599647 63.360345 
L 376.77125 63.667569 
L 377.857051 63.822947 
L 378.942852 63.822947 
L 380.028653 63.653444 
L 381.114454 63.974794 
L 382.200255 63.558099 
L 383.286057 63.731133 
L 384.371858 63.409783 
L 385.457659 63.448628 
L 386.54346 63.946544 
L 387.629261 63.335625 
L 388.715062 63.953606 
L 389.800863 64.317332 
L 390.886665 63.515723 
L 391.972466 63.967731 
L 393.058267 64.066608 
L 394.144068 63.738196 
L 395.229869 63.791166 
L 396.31567 64.327926 
L 398.487273 63.907699 
L 398.487273 63.907699 
" clip-path="url(#pe98190634d)" style="fill: none; stroke: #1f77b4; stroke-width: 1.5; stroke-linecap: square"/>
   </g>
   <g id="line2d_18">
    <path d="M 73.832727 231.037916 
L 74.918528 160.651686 
L 76.00433 144.252245 
L 77.090131 122.386325 
L 78.175932 137.472115 
L 79.261733 114.038289 
L 80.347534 108.232802 
L 81.433335 104.037596 
L 82.519137 94.799669 
L 83.604938 98.867747 
L 84.690739 91.663858 
L 85.77654 88.697551 
L 86.862341 86.705888 
L 87.948142 79.756254 
L 89.033943 80.476643 
L 90.119745 78.951114 
L 91.205546 76.281437 
L 92.291347 75.010163 
L 93.377148 74.205022 
L 94.462949 74.205022 
L 95.54875 95.265803 
L 96.634552 91.2401 
L 97.720353 93.57077 
L 98.806154 88.10429 
L 99.891955 93.782649 
L 100.977756 85.646492 
L 102.063557 85.307486 
L 103.149358 82.680185 
L 104.23516 83.612453 
L 105.320961 80.095261 
L 106.406762 79.841006 
L 107.492563 85.307486 
L 108.578364 79.671502 
L 109.664165 78.357852 
L 110.749967 75.391545 
L 111.835768 76.408565 
L 114.00737 72.764244 
L 115.093171 72.594741 
L 116.178972 73.188003 
L 117.264773 72.382862 
L 118.350575 70.899709 
L 119.436376 70.433575 
L 120.522177 70.47595 
L 121.607978 68.230032 
L 122.693779 69.289428 
L 123.77958 64.797591 
L 124.865382 66.111241 
L 125.951183 65.899362 
L 127.036984 65.390853 
L 128.122785 64.077202 
L 129.208586 64.458585 
L 130.294387 64.077202 
L 131.380189 64.289081 
L 132.46599 63.526317 
L 133.551791 63.102559 
L 134.637592 62.297418 
L 135.723393 63.18731 
L 136.809194 62.890679 
L 137.894995 62.721176 
L 138.980797 76.535692 
L 140.066598 74.925411 
L 142.2382 79.205368 
L 143.324001 77.256081 
L 144.409802 75.857679 
L 145.495604 74.120271 
L 146.581405 76.069558 
L 147.667206 75.052539 
L 148.753007 76.535692 
L 149.838808 72.086231 
L 150.924609 73.103251 
L 152.01041 75.391545 
L 153.096212 73.82364 
L 154.182013 75.900055 
L 155.267814 71.662473 
L 156.353615 69.967441 
L 157.439416 69.1623 
L 158.525217 69.331803 
L 159.611019 69.882689 
L 160.69682 70.603078 
L 161.782621 71.704849 
L 162.868422 71.535346 
L 163.954223 70.899709 
L 165.040024 68.992797 
L 166.125825 67.933401 
L 167.211627 71.662473 
L 169.383229 68.35716 
L 170.46903 66.619751 
L 171.554831 66.492624 
L 172.640632 69.247052 
L 173.726434 66.577375 
L 174.812235 67.806274 
L 175.898036 65.348477 
L 176.983837 64.797591 
L 178.069638 66.407872 
L 179.155439 63.611068 
L 180.24124 65.390853 
L 181.327042 64.458585 
L 182.412843 65.094222 
L 183.498644 64.289081 
L 184.584445 64.20433 
L 185.670246 62.043163 
L 186.756047 63.69582 
L 187.841849 62.594049 
L 188.92765 61.704157 
L 190.013451 63.18731 
L 191.099252 64.246706 
L 192.185053 62.212666 
L 193.270854 62.636425 
L 194.356656 61.068519 
L 195.442457 61.36515 
L 196.528258 60.517634 
L 197.614059 59.331111 
L 198.69986 60.263379 
L 199.785661 59.670117 
L 200.871462 60.136251 
L 204.128866 58.271716 
L 205.214667 58.864977 
L 206.300468 58.144588 
L 207.386269 58.73785 
L 209.557872 57.932709 
L 210.643673 58.059836 
L 211.729474 57.805582 
L 212.815275 57.127569 
L 213.901076 57.254696 
L 214.986877 57.508951 
L 216.072679 57.254696 
L 217.15848 57.339448 
L 218.244281 57.297072 
L 219.330082 56.449555 
L 221.501684 56.70381 
L 222.587486 56.491931 
L 223.673287 56.830938 
L 224.759088 56.534307 
L 225.844889 69.289428 
L 226.93069 73.230378 
L 228.016491 69.458931 
L 229.102292 69.713186 
L 230.188094 68.060529 
L 231.273895 72.467614 
L 232.359696 69.119924 
L 233.445497 72.50999 
L 234.531298 69.247052 
L 235.617099 70.730205 
L 236.702901 68.441911 
L 237.788702 67.891026 
L 239.960304 68.908045 
L 241.046105 66.450248 
L 242.131906 67.424892 
L 243.217708 66.365496 
L 244.303509 69.119924 
L 245.38931 68.060529 
L 246.475111 68.230032 
L 247.560912 66.83163 
L 248.646713 67.84865 
L 249.732514 67.552019 
L 250.818316 66.535 
L 251.904117 66.704503 
L 252.989918 68.145281 
L 254.075719 66.577375 
L 255.16152 66.280745 
L 256.247321 67.806274 
L 257.333123 68.187656 
L 258.418924 67.509643 
L 259.504725 65.306101 
L 260.590526 67.34014 
L 261.676327 64.50096 
L 262.762128 66.153617 
L 263.847929 68.187656 
L 264.933731 65.136598 
L 266.019532 66.535 
L 268.191134 64.373833 
L 269.276935 66.32312 
L 270.362736 64.161954 
L 271.448538 66.407872 
L 272.534339 65.094222 
L 273.62014 64.20433 
L 274.705941 63.483941 
L 275.791742 63.865323 
L 276.877543 65.984114 
L 277.963344 66.02649 
L 279.049146 64.077202 
L 280.134947 65.645107 
L 282.306549 63.229686 
L 283.39235 62.933055 
L 284.478151 63.272062 
L 285.563953 64.331457 
L 286.649754 64.585712 
L 287.735555 63.144934 
L 288.821356 63.653444 
L 289.907157 63.144934 
L 290.992958 63.356813 
L 292.07876 64.416209 
L 293.164561 62.890679 
L 294.250362 62.975431 
L 295.336163 63.653444 
L 296.421964 61.831284 
L 297.507765 62.721176 
L 298.593566 63.907699 
L 299.679368 61.788908 
L 300.765169 61.280398 
L 301.85097 61.619405 
L 302.936771 63.314438 
L 304.022572 62.38217 
L 305.108373 62.763552 
L 306.194175 60.729513 
L 307.279976 64.20433 
L 308.365777 62.509297 
L 309.451578 59.670117 
L 310.537379 59.797245 
L 311.62318 61.407526 
L 312.708981 61.36515 
L 313.794783 59.797245 
L 314.880584 60.517634 
L 315.966385 61.746532 
L 317.052186 61.280398 
L 318.137987 59.754869 
L 319.223788 61.110895 
L 320.30959 59.754869 
L 321.395391 60.390506 
L 322.481192 60.178627 
L 323.566993 59.161608 
L 324.652794 60.093876 
L 325.738595 59.03448 
L 326.824396 58.992104 
L 327.910198 58.822601 
L 328.995999 60.729513 
L 330.0818 58.695474 
L 331.167601 60.093876 
L 333.339203 58.610722 
L 334.425005 59.458238 
L 335.510806 58.059836 
L 336.596607 58.059836 
L 337.682408 58.271716 
L 338.768209 58.22934 
L 339.85401 57.593702 
L 340.939811 58.441219 
L 342.025613 57.169944 
L 343.111414 57.975085 
L 344.197215 56.661435 
L 345.283016 57.932709 
L 346.368817 56.873314 
L 347.454618 57.932709 
L 348.54042 56.788562 
L 349.626221 56.70381 
L 350.712022 57.21232 
L 351.797823 56.746186 
L 352.883624 55.813918 
L 353.969425 55.983421 
L 355.055227 55.602039 
L 356.141028 56.237676 
L 357.226829 55.644415 
L 358.31263 56.068173 
L 359.398431 55.771542 
L 361.570033 56.364804 
L 362.655835 55.856294 
L 363.741636 55.771542 
L 364.827437 54.754523 
L 365.913238 55.686791 
L 366.999039 54.839274 
L 368.08484 55.856294 
L 369.170642 55.517288 
L 371.342244 55.517288 
L 372.428045 55.856294 
L 373.513846 56.70381 
L 374.599647 55.983421 
L 375.685448 57.551327 
L 376.77125 56.619059 
L 377.857051 56.70381 
L 381.114454 56.237676 
L 383.286057 57.593702 
L 385.457659 56.195301 
L 386.54346 57.381823 
L 387.629261 56.661435 
L 389.800863 56.661435 
L 390.886665 56.025797 
L 391.972466 55.983421 
L 393.058267 56.449555 
L 394.144068 56.70381 
L 395.229869 56.068173 
L 396.31567 57.21232 
L 397.401472 57.042817 
L 398.487273 56.619059 
L 398.487273 56.619059 
" clip-path="url(#pe98190634d)" style="fill: none; stroke: #ff7f0e; stroke-width: 1.5; stroke-linecap: square"/>
   </g>
   <g id="line2d_19">
    <path d="M 73.832727 267.508881 
L 74.918528 215.781161 
L 77.090131 178.081297 
L 78.175932 196.638982 
L 79.261733 172.090234 
L 80.347534 162.007712 
L 81.433335 160.25423 
L 82.519137 138.481828 
L 83.604938 156.89339 
L 84.690739 142.71941 
L 85.77654 131.760147 
L 86.862341 133.659753 
L 87.948142 121.093132 
L 89.033943 122.408243 
L 90.119745 122.554367 
L 91.205546 117.001673 
L 92.291347 115.394315 
L 93.377148 113.202462 
L 94.462949 112.179598 
L 95.54875 143.15778 
L 96.634552 138.627952 
L 97.720353 148.272103 
L 98.806154 134.974864 
L 99.891955 137.605087 
L 100.977756 133.075259 
L 102.063557 135.267111 
L 103.149358 125.18459 
L 104.23516 129.860542 
L 105.320961 129.129924 
L 106.406762 125.915207 
L 107.492563 124.892343 
L 108.578364 122.992737 
L 109.664165 125.18459 
L 110.749967 116.563303 
L 111.835768 116.124932 
L 112.921569 114.809821 
L 114.00737 115.832685 
L 115.093171 110.572239 
L 116.178972 108.818757 
L 117.264773 109.403251 
L 118.350575 106.773028 
L 119.436376 109.987745 
L 120.522177 114.955944 
L 121.607978 105.750164 
L 122.693779 105.750164 
L 123.77958 103.119941 
L 124.865382 99.028483 
L 125.951183 100.197471 
L 127.036984 99.905224 
L 128.122785 96.544383 
L 129.208586 94.206407 
L 130.294387 93.183543 
L 131.380189 97.275001 
L 132.46599 96.982754 
L 133.551791 94.206407 
L 134.637592 94.206407 
L 135.723393 94.498654 
L 136.809194 94.352531 
L 137.894995 92.745172 
L 138.980797 119.485773 
L 140.066598 118.462909 
L 141.152399 125.62296 
L 142.2382 123.284984 
L 143.324001 118.024538 
L 144.409802 121.823749 
L 145.495604 113.202462 
L 146.581405 119.631897 
L 147.667206 120.800885 
L 148.753007 120.362514 
L 149.838808 113.93308 
L 150.924609 115.540438 
L 152.01041 115.102068 
L 153.096212 112.033474 
L 154.182013 123.723355 
L 155.267814 113.93308 
L 156.353615 112.179598 
L 157.439416 110.133869 
L 158.525217 110.426116 
L 159.611019 108.234263 
L 160.69682 110.864486 
L 161.782621 111.887351 
L 163.954223 109.257128 
L 165.040024 105.16567 
L 166.125825 102.389323 
L 167.211627 111.01061 
L 168.297428 104.288929 
L 169.383229 105.60404 
L 170.46903 102.68157 
L 171.554831 103.850558 
L 172.640632 106.042411 
L 173.726434 105.60404 
L 174.812235 104.727299 
L 175.898036 105.16567 
L 176.983837 104.727299 
L 178.069638 103.996682 
L 179.155439 105.019546 
L 180.24124 106.626905 
L 181.327042 103.119941 
L 182.412843 103.850558 
L 183.498644 102.973817 
L 184.584445 96.544383 
L 185.670246 99.174606 
L 186.756047 100.489718 
L 187.841849 95.813766 
L 188.92765 96.106013 
L 190.013451 100.781965 
L 191.099252 96.982754 
L 192.185053 97.128877 
L 193.270854 97.421124 
L 194.356656 91.576184 
L 195.442457 94.644778 
L 196.528258 92.014555 
L 197.614059 91.430061 
L 198.69986 93.47579 
L 199.785661 92.306802 
L 200.871462 94.498654 
L 201.957264 90.99169 
L 203.043065 90.99169 
L 204.128866 90.261073 
L 205.214667 89.822702 
L 206.300468 89.676579 
L 207.386269 90.114949 
L 208.472071 89.968826 
L 209.557872 92.014555 
L 210.643673 89.384332 
L 211.729474 87.046356 
L 212.815275 88.361467 
L 213.901076 86.607985 
L 214.986877 86.169615 
L 216.072679 86.315738 
L 217.15848 88.799838 
L 218.244281 86.607985 
L 219.330082 84.70838 
L 220.415883 83.539392 
L 221.501684 83.247145 
L 222.587486 83.539392 
L 223.673287 85.14675 
L 224.759088 84.562256 
L 225.844889 105.896287 
L 226.93069 114.37145 
L 228.016491 109.695498 
L 229.102292 108.234263 
L 230.188094 108.818757 
L 231.273895 118.316785 
L 232.359696 110.572239 
L 233.445497 111.156733 
L 234.531298 109.111004 
L 235.617099 109.403251 
L 236.702901 104.727299 
L 237.788702 108.08814 
L 238.874503 104.581176 
L 239.960304 109.987745 
L 241.046105 108.672634 
L 242.131906 104.142805 
L 243.217708 101.658706 
L 244.303509 109.111004 
L 245.38931 105.750164 
L 246.475111 110.426116 
L 247.560912 106.773028 
L 248.646713 108.964881 
L 249.732514 107.942016 
L 250.818316 107.211399 
L 251.904117 102.097076 
L 252.989918 105.16567 
L 254.075719 103.119941 
L 255.16152 100.343594 
L 256.247321 106.773028 
L 257.333123 115.248191 
L 259.504725 101.950953 
L 260.590526 106.773028 
L 261.676327 103.119941 
L 262.762128 105.750164 
L 263.847929 108.672634 
L 264.933731 99.7591 
L 266.019532 103.412188 
L 267.105333 103.558311 
L 268.191134 102.68157 
L 269.276935 101.074212 
L 270.362736 102.827694 
L 271.448538 105.457917 
L 272.534339 101.074212 
L 273.62014 99.7591 
L 274.705941 96.252136 
L 275.791742 98.297865 
L 276.877543 103.119941 
L 277.963344 106.480781 
L 279.049146 99.32073 
L 280.134947 97.421124 
L 281.220748 104.873423 
L 282.306549 96.690507 
L 283.39235 95.959889 
L 284.478151 97.859495 
L 285.563953 94.790901 
L 286.649754 103.119941 
L 287.735555 100.489718 
L 288.821356 95.667642 
L 289.907157 98.882359 
L 290.992958 99.612977 
L 292.07876 97.567248 
L 293.164561 98.005618 
L 294.250362 98.882359 
L 295.336163 98.443989 
L 296.421964 94.937025 
L 297.507765 99.466853 
L 298.593566 98.443989 
L 299.679368 99.466853 
L 300.765169 96.106013 
L 301.85097 91.430061 
L 302.936771 94.790901 
L 304.022572 96.106013 
L 305.108373 95.521519 
L 306.194175 93.621913 
L 307.279976 94.790901 
L 308.365777 97.421124 
L 309.451578 93.91416 
L 310.537379 91.576184 
L 311.62318 97.567248 
L 312.708981 95.083148 
L 313.794783 92.306802 
L 314.880584 92.160678 
L 315.966385 99.466853 
L 318.137987 90.699443 
L 319.223788 93.91416 
L 320.30959 89.530455 
L 321.395391 93.037419 
L 322.481192 89.822702 
L 323.566993 89.968826 
L 324.652794 88.653714 
L 325.738595 93.183543 
L 327.910198 88.799838 
L 328.995999 92.306802 
L 330.0818 89.238208 
L 331.167601 92.160678 
L 332.253402 88.799838 
L 333.339203 86.169615 
L 334.425005 89.530455 
L 335.510806 87.046356 
L 336.596607 87.484726 
L 337.682408 86.023491 
L 338.768209 87.192479 
L 339.85401 83.393268 
L 340.939811 89.530455 
L 342.025613 87.338603 
L 343.111414 87.338603 
L 344.197215 86.754109 
L 345.283016 88.06922 
L 346.368817 86.315738 
L 347.454618 83.685515 
L 348.54042 86.900232 
L 349.626221 83.977762 
L 350.712022 83.977762 
L 351.797823 84.416133 
L 352.883624 83.685515 
L 353.969425 86.900232 
L 355.055227 82.954898 
L 356.141028 82.516527 
L 357.226829 82.808774 
L 358.31263 84.123886 
L 359.398431 82.22428 
L 360.484232 83.393268 
L 361.570033 82.078156 
L 362.655835 83.101021 
L 363.741636 80.909168 
L 364.827437 80.763045 
L 365.913238 82.078156 
L 366.999039 80.616921 
L 368.08484 81.639786 
L 369.170642 82.22428 
L 370.256443 83.539392 
L 371.342244 82.22428 
L 372.428045 81.639786 
L 373.513846 85.292874 
L 374.599647 82.516527 
L 375.685448 83.831639 
L 376.77125 85.877368 
L 377.857051 88.361467 
L 378.942852 85.000627 
L 380.028653 87.046356 
L 381.114454 88.507591 
L 382.200255 85.877368 
L 383.286057 85.14675 
L 384.371858 84.854503 
L 385.457659 81.785909 
L 386.54346 83.393268 
L 387.629261 84.562256 
L 388.715062 82.808774 
L 389.800863 84.270009 
L 390.886665 83.831639 
L 391.972466 83.685515 
L 393.058267 83.831639 
L 394.144068 86.461862 
L 395.229869 84.123886 
L 396.31567 83.247145 
L 397.401472 84.270009 
L 398.487273 83.101021 
L 398.487273 83.101021 
" clip-path="url(#pe98190634d)" style="fill: none; stroke: #2ca02c; stroke-width: 1.5; stroke-linecap: square"/>
   </g>
   <g id="line2d_20">
    <path d="M 368.08484 55.135905 
L 369.170642 54.966402 
L 370.256443 55.178281 
L 371.342244 54.627395 
L 372.428045 55.39016 
L 373.513846 54.627395 
L 374.599647 54.542644 
L 376.77125 54.161261 
L 377.857051 53.737503 
L 378.942852 54.669771 
L 380.028653 53.652752 
L 381.114454 54.37314 
L 382.200255 53.907007 
L 383.286057 54.288389 
L 384.371858 53.991758 
L 385.457659 54.542644 
L 386.54346 54.330765 
L 387.629261 53.610376 
L 388.715062 54.246013 
L 389.800863 54.161261 
L 390.886665 54.500268 
L 391.972466 53.907007 
L 393.058267 53.568 
L 394.144068 54.07651 
L 396.31567 53.568 
L 397.401472 54.07651 
L 398.487273 53.695127 
L 398.487273 53.695127 
" clip-path="url(#pe98190634d)" style="fill: none; stroke: #d62728; stroke-width: 1.5; stroke-linecap: square"/>
   </g>
   <g id="line2d_21">
    <path d="M 368.08484 80.909168 
L 369.170642 80.909168 
L 370.256443 79.594057 
L 371.342244 79.594057 
L 372.428045 81.347539 
L 373.513846 81.201415 
L 374.599647 80.470798 
L 375.685448 82.370403 
L 376.77125 78.425069 
L 377.857051 78.571192 
L 378.942852 81.055292 
L 380.028653 76.963834 
L 381.114454 80.909168 
L 382.200255 81.493662 
L 383.286057 78.425069 
L 384.371858 80.178551 
L 385.457659 77.694451 
L 386.54346 81.639786 
L 387.629261 81.639786 
L 388.715062 76.671587 
L 389.800863 77.109957 
L 390.886665 78.278945 
L 391.972466 76.81771 
L 393.058267 78.863439 
L 394.144068 77.548328 
L 395.229869 76.81771 
L 396.31567 76.671587 
L 397.401472 78.132822 
L 398.487273 79.155686 
L 398.487273 79.155686 
" clip-path="url(#pe98190634d)" style="fill: none; stroke: #9467bd; stroke-width: 1.5; stroke-linecap: square"/>
   </g>
   <g id="patch_3">
    <path d="M 57.6 307.584 
L 57.6 41.472 
" style="fill: none; stroke: #000000; stroke-width: 0.8; stroke-linejoin: miter; stroke-linecap: square"/>
   </g>
   <g id="patch_4">
    <path d="M 414.72 307.584 
L 414.72 41.472 
" style="fill: none; stroke: #000000; stroke-width: 0.8; stroke-linejoin: miter; stroke-linecap: square"/>
   </g>
   <g id="patch_5">
    <path d="M 57.6 307.584 
L 414.72 307.584 
" style="fill: none; stroke: #000000; stroke-width: 0.8; stroke-linejoin: miter; stroke-linecap: square"/>
   </g>
   <g id="patch_6">
    <path d="M 57.6 41.472 
L 414.72 41.472 
" style="fill: none; stroke: #000000; stroke-width: 0.8; stroke-linejoin: miter; stroke-linecap: square"/>
   </g>
   <g id="text_19">
    <!-- Learning Curves -->
    <g transform="translate(187.37625 35.472) scale(0.12 -0.12)">
     <defs>
      <path id="DejaVuSans-4c" d="M 628 4666 
L 1259 4666 
L 1259 531 
L 3531 531 
L 3531 0 
L 628 0 
L 628 4666 
z
" transform="scale(0.015625)"/>
      <path id="DejaVuSans-65" d="M 3597 1894 
L 3597 1613 
L 953 1613 
Q 991 1019 1311 708 
Q 1631 397 2203 397 
Q 2534 397 2845 478 
Q 3156 559 3463 722 
L 3463 178 
Q 3153 47 2828 -22 
Q 2503 -91 2169 -91 
Q 1331 -91 842 396 
Q 353 884 353 1716 
Q 353 2575 817 3079 
Q 1281 3584 2069 3584 
Q 2775 3584 3186 3129 
Q 3597 2675 3597 1894 
z
M 3022 2063 
Q 3016 2534 2758 2815 
Q 2500 3097 2075 3097 
Q 1594 3097 1305 2825 
Q 1016 2553 972 2059 
L 3022 2063 
z
" transform="scale(0.015625)"/>
      <path id="DejaVuSans-6e" d="M 3513 2113 
L 3513 0 
L 2938 0 
L 2938 2094 
Q 2938 2591 2744 2837 
Q 2550 3084 2163 3084 
Q 1697 3084 1428 2787 
Q 1159 2491 1159 1978 
L 1159 0 
L 581 0 
L 581 3500 
L 1159 3500 
L 1159 2956 
Q 1366 3272 1645 3428 
Q 1925 3584 2291 3584 
Q 2894 3584 3203 3211 
Q 3513 2838 3513 2113 
z
" transform="scale(0.015625)"/>
      <path id="DejaVuSans-69" d="M 603 3500 
L 1178 3500 
L 1178 0 
L 603 0 
L 603 3500 
z
M 603 4863 
L 1178 4863 
L 1178 4134 
L 603 4134 
L 603 4863 
z
" transform="scale(0.015625)"/>
      <path id="DejaVuSans-67" d="M 2906 1791 
Q 2906 2416 2648 2759 
Q 2391 3103 1925 3103 
Q 1463 3103 1205 2759 
Q 947 2416 947 1791 
Q 947 1169 1205 825 
Q 1463 481 1925 481 
Q 2391 481 2648 825 
Q 2906 1169 2906 1791 
z
M 3481 434 
Q 3481 -459 3084 -895 
Q 2688 -1331 1869 -1331 
Q 1566 -1331 1297 -1286 
Q 1028 -1241 775 -1147 
L 775 -588 
Q 1028 -725 1275 -790 
Q 1522 -856 1778 -856 
Q 2344 -856 2625 -561 
Q 2906 -266 2906 331 
L 2906 616 
Q 2728 306 2450 153 
Q 2172 0 1784 0 
Q 1141 0 747 490 
Q 353 981 353 1791 
Q 353 2603 747 3093 
Q 1141 3584 1784 3584 
Q 2172 3584 2450 3431 
Q 2728 3278 2906 2969 
L 2906 3500 
L 3481 3500 
L 3481 434 
z
" transform="scale(0.015625)"/>
      <path id="DejaVuSans-20" transform="scale(0.015625)"/>
      <path id="DejaVuSans-43" d="M 4122 4306 
L 4122 3641 
Q 3803 3938 3442 4084 
Q 3081 4231 2675 4231 
Q 1875 4231 1450 3742 
Q 1025 3253 1025 2328 
Q 1025 1406 1450 917 
Q 1875 428 2675 428 
Q 3081 428 3442 575 
Q 3803 722 4122 1019 
L 4122 359 
Q 3791 134 3420 21 
Q 3050 -91 2638 -91 
Q 1578 -91 968 557 
Q 359 1206 359 2328 
Q 359 3453 968 4101 
Q 1578 4750 2638 4750 
Q 3056 4750 3426 4639 
Q 3797 4528 4122 4306 
z
" transform="scale(0.015625)"/>
      <path id="DejaVuSans-76" d="M 191 3500 
L 800 3500 
L 1894 563 
L 2988 3500 
L 3597 3500 
L 2284 0 
L 1503 0 
L 191 3500 
z
" transform="scale(0.015625)"/>
     </defs>
     <use xlink:href="#DejaVuSans-4c"/>
     <use xlink:href="#DejaVuSans-65" x="53.962891"/>
     <use xlink:href="#DejaVuSans-61" x="115.486328"/>
     <use xlink:href="#DejaVuSans-72" x="176.765625"/>
     <use xlink:href="#DejaVuSans-6e" x="216.128906"/>
     <use xlink:href="#DejaVuSans-69" x="279.507812"/>
     <use xlink:href="#DejaVuSans-6e" x="307.291016"/>
     <use xlink:href="#DejaVuSans-67" x="370.669922"/>
     <use xlink:href="#DejaVuSans-20" x="434.146484"/>
     <use xlink:href="#DejaVuSans-43" x="465.933594"/>
     <use xlink:href="#DejaVuSans-75" x="535.757812"/>
     <use xlink:href="#DejaVuSans-72" x="599.136719"/>
     <use xlink:href="#DejaVuSans-76" x="640.25"/>
     <use xlink:href="#DejaVuSans-65" x="699.429688"/>
     <use xlink:href="#DejaVuSans-73" x="760.953125"/>
    </g>
   </g>
   <g id="legend_1">
    <g id="patch_7">
     <path d="M 214.18875 302.584 
L 407.72 302.584 
Q 409.72 302.584 409.72 300.584 
L 409.72 228.193375 
Q 409.72 226.193375 407.72 226.193375 
L 214.18875 226.193375 
Q 212.18875 226.193375 212.18875 228.193375 
L 212.18875 300.584 
Q 212.18875 302.584 214.18875 302.584 
z
" style="fill: #ffffff; opacity: 0.8; stroke: #cccccc; stroke-linejoin: miter"/>
    </g>
    <g id="line2d_22">
     <path d="M 216.18875 234.291812 
L 226.18875 234.291812 
L 236.18875 234.291812 
" style="fill: none; stroke: #1f77b4; stroke-width: 1.5; stroke-linecap: square"/>
    </g>
    <g id="text_20">
     <!-- Train Accuracy -->
     <g transform="translate(244.18875 237.791812) scale(0.1 -0.1)">
      <defs>
       <path id="DejaVuSans-54" d="M -19 4666 
L 3928 4666 
L 3928 4134 
L 2272 4134 
L 2272 0 
L 1638 0 
L 1638 4134 
L -19 4134 
L -19 4666 
z
" transform="scale(0.015625)"/>
      </defs>
      <use xlink:href="#DejaVuSans-54"/>
      <use xlink:href="#DejaVuSans-72" x="46.333984"/>
      <use xlink:href="#DejaVuSans-61" x="87.447266"/>
      <use xlink:href="#DejaVuSans-69" x="148.726562"/>
      <use xlink:href="#DejaVuSans-6e" x="176.509766"/>
      <use xlink:href="#DejaVuSans-20" x="239.888672"/>
      <use xlink:href="#DejaVuSans-41" x="271.675781"/>
      <use xlink:href="#DejaVuSans-63" x="338.333984"/>
      <use xlink:href="#DejaVuSans-63" x="393.314453"/>
      <use xlink:href="#DejaVuSans-75" x="448.294922"/>
      <use xlink:href="#DejaVuSans-72" x="511.673828"/>
      <use xlink:href="#DejaVuSans-61" x="552.787109"/>
      <use xlink:href="#DejaVuSans-63" x="614.066406"/>
      <use xlink:href="#DejaVuSans-79" x="669.046875"/>
     </g>
    </g>
    <g id="line2d_23">
     <path d="M 216.18875 248.969937 
L 226.18875 248.969937 
L 236.18875 248.969937 
" style="fill: none; stroke: #ff7f0e; stroke-width: 1.5; stroke-linecap: square"/>
    </g>
    <g id="text_21">
     <!-- Validation Accuracy -->
     <g transform="translate(244.18875 252.469937) scale(0.1 -0.1)">
      <defs>
       <path id="DejaVuSans-56" d="M 1831 0 
L 50 4666 
L 709 4666 
L 2188 738 
L 3669 4666 
L 4325 4666 
L 2547 0 
L 1831 0 
z
" transform="scale(0.015625)"/>
       <path id="DejaVuSans-6c" d="M 603 4863 
L 1178 4863 
L 1178 0 
L 603 0 
L 603 4863 
z
" transform="scale(0.015625)"/>
       <path id="DejaVuSans-64" d="M 2906 2969 
L 2906 4863 
L 3481 4863 
L 3481 0 
L 2906 0 
L 2906 525 
Q 2725 213 2448 61 
Q 2172 -91 1784 -91 
Q 1150 -91 751 415 
Q 353 922 353 1747 
Q 353 2572 751 3078 
Q 1150 3584 1784 3584 
Q 2172 3584 2448 3432 
Q 2725 3281 2906 2969 
z
M 947 1747 
Q 947 1113 1208 752 
Q 1469 391 1925 391 
Q 2381 391 2643 752 
Q 2906 1113 2906 1747 
Q 2906 2381 2643 2742 
Q 2381 3103 1925 3103 
Q 1469 3103 1208 2742 
Q 947 2381 947 1747 
z
" transform="scale(0.015625)"/>
       <path id="DejaVuSans-74" d="M 1172 4494 
L 1172 3500 
L 2356 3500 
L 2356 3053 
L 1172 3053 
L 1172 1153 
Q 1172 725 1289 603 
Q 1406 481 1766 481 
L 2356 481 
L 2356 0 
L 1766 0 
Q 1100 0 847 248 
Q 594 497 594 1153 
L 594 3053 
L 172 3053 
L 172 3500 
L 594 3500 
L 594 4494 
L 1172 4494 
z
" transform="scale(0.015625)"/>
      </defs>
      <use xlink:href="#DejaVuSans-56"/>
      <use xlink:href="#DejaVuSans-61" x="60.658203"/>
      <use xlink:href="#DejaVuSans-6c" x="121.9375"/>
      <use xlink:href="#DejaVuSans-69" x="149.720703"/>
      <use xlink:href="#DejaVuSans-64" x="177.503906"/>
      <use xlink:href="#DejaVuSans-61" x="240.980469"/>
      <use xlink:href="#DejaVuSans-74" x="302.259766"/>
      <use xlink:href="#DejaVuSans-69" x="341.46875"/>
      <use xlink:href="#DejaVuSans-6f" x="369.251953"/>
      <use xlink:href="#DejaVuSans-6e" x="430.433594"/>
      <use xlink:href="#DejaVuSans-20" x="493.8125"/>
      <use xlink:href="#DejaVuSans-41" x="525.599609"/>
      <use xlink:href="#DejaVuSans-63" x="592.257812"/>
      <use xlink:href="#DejaVuSans-63" x="647.238281"/>
      <use xlink:href="#DejaVuSans-75" x="702.21875"/>
      <use xlink:href="#DejaVuSans-72" x="765.597656"/>
      <use xlink:href="#DejaVuSans-61" x="806.710938"/>
      <use xlink:href="#DejaVuSans-63" x="867.990234"/>
      <use xlink:href="#DejaVuSans-79" x="922.970703"/>
     </g>
    </g>
    <g id="line2d_24">
     <path d="M 216.18875 263.648062 
L 226.18875 263.648062 
L 236.18875 263.648062 
" style="fill: none; stroke: #2ca02c; stroke-width: 1.5; stroke-linecap: square"/>
    </g>
    <g id="text_22">
     <!-- Robust Validation Accuracy -->
     <g transform="translate(244.18875 267.148062) scale(0.1 -0.1)">
      <defs>
       <path id="DejaVuSans-52" d="M 2841 2188 
Q 3044 2119 3236 1894 
Q 3428 1669 3622 1275 
L 4263 0 
L 3584 0 
L 2988 1197 
Q 2756 1666 2539 1819 
Q 2322 1972 1947 1972 
L 1259 1972 
L 1259 0 
L 628 0 
L 628 4666 
L 2053 4666 
Q 2853 4666 3247 4331 
Q 3641 3997 3641 3322 
Q 3641 2881 3436 2590 
Q 3231 2300 2841 2188 
z
M 1259 4147 
L 1259 2491 
L 2053 2491 
Q 2509 2491 2742 2702 
Q 2975 2913 2975 3322 
Q 2975 3731 2742 3939 
Q 2509 4147 2053 4147 
L 1259 4147 
z
" transform="scale(0.015625)"/>
       <path id="DejaVuSans-62" d="M 3116 1747 
Q 3116 2381 2855 2742 
Q 2594 3103 2138 3103 
Q 1681 3103 1420 2742 
Q 1159 2381 1159 1747 
Q 1159 1113 1420 752 
Q 1681 391 2138 391 
Q 2594 391 2855 752 
Q 3116 1113 3116 1747 
z
M 1159 2969 
Q 1341 3281 1617 3432 
Q 1894 3584 2278 3584 
Q 2916 3584 3314 3078 
Q 3713 2572 3713 1747 
Q 3713 922 3314 415 
Q 2916 -91 2278 -91 
Q 1894 -91 1617 61 
Q 1341 213 1159 525 
L 1159 0 
L 581 0 
L 581 4863 
L 1159 4863 
L 1159 2969 
z
" transform="scale(0.015625)"/>
      </defs>
      <use xlink:href="#DejaVuSans-52"/>
      <use xlink:href="#DejaVuSans-6f" x="64.982422"/>
      <use xlink:href="#DejaVuSans-62" x="126.164062"/>
      <use xlink:href="#DejaVuSans-75" x="189.640625"/>
      <use xlink:href="#DejaVuSans-73" x="253.019531"/>
      <use xlink:href="#DejaVuSans-74" x="305.119141"/>
      <use xlink:href="#DejaVuSans-20" x="344.328125"/>
      <use xlink:href="#DejaVuSans-56" x="376.115234"/>
      <use xlink:href="#DejaVuSans-61" x="436.773438"/>
      <use xlink:href="#DejaVuSans-6c" x="498.052734"/>
      <use xlink:href="#DejaVuSans-69" x="525.835938"/>
      <use xlink:href="#DejaVuSans-64" x="553.619141"/>
      <use xlink:href="#DejaVuSans-61" x="617.095703"/>
      <use xlink:href="#DejaVuSans-74" x="678.375"/>
      <use xlink:href="#DejaVuSans-69" x="717.583984"/>
      <use xlink:href="#DejaVuSans-6f" x="745.367188"/>
      <use xlink:href="#DejaVuSans-6e" x="806.548828"/>
      <use xlink:href="#DejaVuSans-20" x="869.927734"/>
      <use xlink:href="#DejaVuSans-41" x="901.714844"/>
      <use xlink:href="#DejaVuSans-63" x="968.373047"/>
      <use xlink:href="#DejaVuSans-63" x="1023.353516"/>
      <use xlink:href="#DejaVuSans-75" x="1078.333984"/>
      <use xlink:href="#DejaVuSans-72" x="1141.712891"/>
      <use xlink:href="#DejaVuSans-61" x="1182.826172"/>
      <use xlink:href="#DejaVuSans-63" x="1244.105469"/>
      <use xlink:href="#DejaVuSans-79" x="1299.085938"/>
     </g>
    </g>
    <g id="line2d_25">
     <path d="M 216.18875 278.326188 
L 226.18875 278.326188 
L 236.18875 278.326188 
" style="fill: none; stroke: #d62728; stroke-width: 1.5; stroke-linecap: square"/>
    </g>
    <g id="text_23">
     <!-- SWA Validation Accuracy -->
     <g transform="translate(244.18875 281.826188) scale(0.1 -0.1)">
      <defs>
       <path id="DejaVuSans-53" d="M 3425 4513 
L 3425 3897 
Q 3066 4069 2747 4153 
Q 2428 4238 2131 4238 
Q 1616 4238 1336 4038 
Q 1056 3838 1056 3469 
Q 1056 3159 1242 3001 
Q 1428 2844 1947 2747 
L 2328 2669 
Q 3034 2534 3370 2195 
Q 3706 1856 3706 1288 
Q 3706 609 3251 259 
Q 2797 -91 1919 -91 
Q 1588 -91 1214 -16 
Q 841 59 441 206 
L 441 856 
Q 825 641 1194 531 
Q 1563 422 1919 422 
Q 2459 422 2753 634 
Q 3047 847 3047 1241 
Q 3047 1584 2836 1778 
Q 2625 1972 2144 2069 
L 1759 2144 
Q 1053 2284 737 2584 
Q 422 2884 422 3419 
Q 422 4038 858 4394 
Q 1294 4750 2059 4750 
Q 2388 4750 2728 4690 
Q 3069 4631 3425 4513 
z
" transform="scale(0.015625)"/>
       <path id="DejaVuSans-57" d="M 213 4666 
L 850 4666 
L 1831 722 
L 2809 4666 
L 3519 4666 
L 4500 722 
L 5478 4666 
L 6119 4666 
L 4947 0 
L 4153 0 
L 3169 4050 
L 2175 0 
L 1381 0 
L 213 4666 
z
" transform="scale(0.015625)"/>
      </defs>
      <use xlink:href="#DejaVuSans-53"/>
      <use xlink:href="#DejaVuSans-57" x="63.476562"/>
      <use xlink:href="#DejaVuSans-41" x="156.853516"/>
      <use xlink:href="#DejaVuSans-20" x="225.261719"/>
      <use xlink:href="#DejaVuSans-56" x="257.048828"/>
      <use xlink:href="#DejaVuSans-61" x="317.707031"/>
      <use xlink:href="#DejaVuSans-6c" x="378.986328"/>
      <use xlink:href="#DejaVuSans-69" x="406.769531"/>
      <use xlink:href="#DejaVuSans-64" x="434.552734"/>
      <use xlink:href="#DejaVuSans-61" x="498.029297"/>
      <use xlink:href="#DejaVuSans-74" x="559.308594"/>
      <use xlink:href="#DejaVuSans-69" x="598.517578"/>
      <use xlink:href="#DejaVuSans-6f" x="626.300781"/>
      <use xlink:href="#DejaVuSans-6e" x="687.482422"/>
      <use xlink:href="#DejaVuSans-20" x="750.861328"/>
      <use xlink:href="#DejaVuSans-41" x="782.648438"/>
      <use xlink:href="#DejaVuSans-63" x="849.306641"/>
      <use xlink:href="#DejaVuSans-63" x="904.287109"/>
      <use xlink:href="#DejaVuSans-75" x="959.267578"/>
      <use xlink:href="#DejaVuSans-72" x="1022.646484"/>
      <use xlink:href="#DejaVuSans-61" x="1063.759766"/>
      <use xlink:href="#DejaVuSans-63" x="1125.039062"/>
      <use xlink:href="#DejaVuSans-79" x="1180.019531"/>
     </g>
    </g>
    <g id="line2d_26">
     <path d="M 216.18875 293.004312 
L 226.18875 293.004312 
L 236.18875 293.004312 
" style="fill: none; stroke: #9467bd; stroke-width: 1.5; stroke-linecap: square"/>
    </g>
    <g id="text_24">
     <!-- SWA Robust Validation Accuracy -->
     <g transform="translate(244.18875 296.504312) scale(0.1 -0.1)">
      <use xlink:href="#DejaVuSans-53"/>
      <use xlink:href="#DejaVuSans-57" x="63.476562"/>
      <use xlink:href="#DejaVuSans-41" x="156.853516"/>
      <use xlink:href="#DejaVuSans-20" x="225.261719"/>
      <use xlink:href="#DejaVuSans-52" x="257.048828"/>
      <use xlink:href="#DejaVuSans-6f" x="322.03125"/>
      <use xlink:href="#DejaVuSans-62" x="383.212891"/>
      <use xlink:href="#DejaVuSans-75" x="446.689453"/>
      <use xlink:href="#DejaVuSans-73" x="510.068359"/>
      <use xlink:href="#DejaVuSans-74" x="562.167969"/>
      <use xlink:href="#DejaVuSans-20" x="601.376953"/>
      <use xlink:href="#DejaVuSans-56" x="633.164062"/>
      <use xlink:href="#DejaVuSans-61" x="693.822266"/>
      <use xlink:href="#DejaVuSans-6c" x="755.101562"/>
      <use xlink:href="#DejaVuSans-69" x="782.884766"/>
      <use xlink:href="#DejaVuSans-64" x="810.667969"/>
      <use xlink:href="#DejaVuSans-61" x="874.144531"/>
      <use xlink:href="#DejaVuSans-74" x="935.423828"/>
      <use xlink:href="#DejaVuSans-69" x="974.632812"/>
      <use xlink:href="#DejaVuSans-6f" x="1002.416016"/>
      <use xlink:href="#DejaVuSans-6e" x="1063.597656"/>
      <use xlink:href="#DejaVuSans-20" x="1126.976562"/>
      <use xlink:href="#DejaVuSans-41" x="1158.763672"/>
      <use xlink:href="#DejaVuSans-63" x="1225.421875"/>
      <use xlink:href="#DejaVuSans-63" x="1280.402344"/>
      <use xlink:href="#DejaVuSans-75" x="1335.382812"/>
      <use xlink:href="#DejaVuSans-72" x="1398.761719"/>
      <use xlink:href="#DejaVuSans-61" x="1439.875"/>
      <use xlink:href="#DejaVuSans-63" x="1501.154297"/>
      <use xlink:href="#DejaVuSans-79" x="1556.134766"/>
     </g>
    </g>
   </g>
  </g>
 </g>
 <defs>
  <clipPath id="pe98190634d">
   <rect x="57.6" y="41.472" width="357.12" height="266.112"/>
  </clipPath>
 </defs>
</svg>
