<?xml version="1.0" encoding="utf-8" standalone="no"?>
<!DOCTYPE svg PUBLIC "-//W3C//DTD SVG 1.1//EN"
  "http://www.w3.org/Graphics/SVG/1.1/DTD/svg11.dtd">
<svg xmlns:xlink="http://www.w3.org/1999/xlink" width="460.8pt" height="345.6pt" viewBox="0 0 460.8 345.6" xmlns="http://www.w3.org/2000/svg" version="1.1">
 <metadata>
  <rdf:RDF xmlns:dc="http://purl.org/dc/elements/1.1/" xmlns:cc="http://creativecommons.org/ns#" xmlns:rdf="http://www.w3.org/1999/02/22-rdf-syntax-ns#">
   <cc:Work>
    <dc:type rdf:resource="http://purl.org/dc/dcmitype/StillImage"/>
    <dc:date>2025-10-12T20:10:34.386108</dc:date>
    <dc:format>image/svg+xml</dc:format>
    <dc:creator>
     <cc:Agent>
      <dc:title>Matplotlib v3.9.1, https://matplotlib.org/</dc:title>
     </cc:Agent>
    </dc:creator>
   </cc:Work>
  </rdf:RDF>
 </metadata>
 <defs>
  <style type="text/css">*{stroke-linejoin: round; stroke-linecap: butt}</style>
 </defs>
 <g id="figure_1">
  <g id="patch_1">
   <path d="M 0 345.6 
L 460.8 345.6 
L 460.8 0 
L 0 0 
z
" style="fill: #ffffff"/>
  </g>
  <g id="axes_1">
   <g id="patch_2">
    <path d="M 57.6 307.584 
L 414.72 307.584 
L 414.72 41.472 
L 57.6 41.472 
z
" style="fill: #ffffff"/>
   </g>
   <g id="matplotlib.axis_1">
    <g id="xtick_1">
     <g id="line2d_1">
      <defs>
       <path id="m49ad7d318a" d="M 0 0 
L 0 3.5 
" style="stroke: #000000; stroke-width: 0.8"/>
      </defs>
      <g>
       <use xlink:href="#m49ad7d318a" x="73.832727" y="307.584" style="stroke: #000000; stroke-width: 0.8"/>
      </g>
     </g>
     <g id="text_1">
      <!-- 1 -->
      <g transform="translate(70.651477 322.182437) scale(0.1 -0.1)">
       <defs>
        <path id="DejaVuSans-31" d="M 794 531 
L 1825 531 
L 1825 4091 
L 703 3866 
L 703 4441 
L 1819 4666 
L 2450 4666 
L 2450 531 
L 3481 531 
L 3481 0 
L 794 0 
L 794 531 
z
" transform="scale(0.015625)"/>
       </defs>
       <use xlink:href="#DejaVuSans-31"/>
      </g>
     </g>
    </g>
    <g id="xtick_2">
     <g id="line2d_2">
      <g>
       <use xlink:href="#m49ad7d318a" x="109.664165" y="307.584" style="stroke: #000000; stroke-width: 0.8"/>
      </g>
     </g>
     <g id="text_2">
      <!-- 34 -->
      <g transform="translate(103.301665 322.182437) scale(0.1 -0.1)">
       <defs>
        <path id="DejaVuSans-33" d="M 2597 2516 
Q 3050 2419 3304 2112 
Q 3559 1806 3559 1356 
Q 3559 666 3084 287 
Q 2609 -91 1734 -91 
Q 1441 -91 1130 -33 
Q 819 25 488 141 
L 488 750 
Q 750 597 1062 519 
Q 1375 441 1716 441 
Q 2309 441 2620 675 
Q 2931 909 2931 1356 
Q 2931 1769 2642 2001 
Q 2353 2234 1838 2234 
L 1294 2234 
L 1294 2753 
L 1863 2753 
Q 2328 2753 2575 2939 
Q 2822 3125 2822 3475 
Q 2822 3834 2567 4026 
Q 2313 4219 1838 4219 
Q 1578 4219 1281 4162 
Q 984 4106 628 3988 
L 628 4550 
Q 988 4650 1302 4700 
Q 1616 4750 1894 4750 
Q 2613 4750 3031 4423 
Q 3450 4097 3450 3541 
Q 3450 3153 3228 2886 
Q 3006 2619 2597 2516 
z
" transform="scale(0.015625)"/>
        <path id="DejaVuSans-34" d="M 2419 4116 
L 825 1625 
L 2419 1625 
L 2419 4116 
z
M 2253 4666 
L 3047 4666 
L 3047 1625 
L 3713 1625 
L 3713 1100 
L 3047 1100 
L 3047 0 
L 2419 0 
L 2419 1100 
L 313 1100 
L 313 1709 
L 2253 4666 
z
" transform="scale(0.015625)"/>
       </defs>
       <use xlink:href="#DejaVuSans-33"/>
       <use xlink:href="#DejaVuSans-34" x="63.623047"/>
      </g>
     </g>
    </g>
    <g id="xtick_3">
     <g id="line2d_3">
      <g>
       <use xlink:href="#m49ad7d318a" x="145.495604" y="307.584" style="stroke: #000000; stroke-width: 0.8"/>
      </g>
     </g>
     <g id="text_3">
      <!-- 67 -->
      <g transform="translate(139.133104 322.182437) scale(0.1 -0.1)">
       <defs>
        <path id="DejaVuSans-36" d="M 2113 2584 
Q 1688 2584 1439 2293 
Q 1191 2003 1191 1497 
Q 1191 994 1439 701 
Q 1688 409 2113 409 
Q 2538 409 2786 701 
Q 3034 994 3034 1497 
Q 3034 2003 2786 2293 
Q 2538 2584 2113 2584 
z
M 3366 4563 
L 3366 3988 
Q 3128 4100 2886 4159 
Q 2644 4219 2406 4219 
Q 1781 4219 1451 3797 
Q 1122 3375 1075 2522 
Q 1259 2794 1537 2939 
Q 1816 3084 2150 3084 
Q 2853 3084 3261 2657 
Q 3669 2231 3669 1497 
Q 3669 778 3244 343 
Q 2819 -91 2113 -91 
Q 1303 -91 875 529 
Q 447 1150 447 2328 
Q 447 3434 972 4092 
Q 1497 4750 2381 4750 
Q 2619 4750 2861 4703 
Q 3103 4656 3366 4563 
z
" transform="scale(0.015625)"/>
        <path id="DejaVuSans-37" d="M 525 4666 
L 3525 4666 
L 3525 4397 
L 1831 0 
L 1172 0 
L 2766 4134 
L 525 4134 
L 525 4666 
z
" transform="scale(0.015625)"/>
       </defs>
       <use xlink:href="#DejaVuSans-36"/>
       <use xlink:href="#DejaVuSans-37" x="63.623047"/>
      </g>
     </g>
    </g>
    <g id="xtick_4">
     <g id="line2d_4">
      <g>
       <use xlink:href="#m49ad7d318a" x="181.327042" y="307.584" style="stroke: #000000; stroke-width: 0.8"/>
      </g>
     </g>
     <g id="text_4">
      <!-- 100 -->
      <g transform="translate(171.783292 322.182437) scale(0.1 -0.1)">
       <defs>
        <path id="DejaVuSans-30" d="M 2034 4250 
Q 1547 4250 1301 3770 
Q 1056 3291 1056 2328 
Q 1056 1369 1301 889 
Q 1547 409 2034 409 
Q 2525 409 2770 889 
Q 3016 1369 3016 2328 
Q 3016 3291 2770 3770 
Q 2525 4250 2034 4250 
z
M 2034 4750 
Q 2819 4750 3233 4129 
Q 3647 3509 3647 2328 
Q 3647 1150 3233 529 
Q 2819 -91 2034 -91 
Q 1250 -91 836 529 
Q 422 1150 422 2328 
Q 422 3509 836 4129 
Q 1250 4750 2034 4750 
z
" transform="scale(0.015625)"/>
       </defs>
       <use xlink:href="#DejaVuSans-31"/>
       <use xlink:href="#DejaVuSans-30" x="63.623047"/>
       <use xlink:href="#DejaVuSans-30" x="127.246094"/>
      </g>
     </g>
    </g>
    <g id="xtick_5">
     <g id="line2d_5">
      <g>
       <use xlink:href="#m49ad7d318a" x="217.15848" y="307.584" style="stroke: #000000; stroke-width: 0.8"/>
      </g>
     </g>
     <g id="text_5">
      <!-- 133 -->
      <g transform="translate(207.61473 322.182437) scale(0.1 -0.1)">
       <use xlink:href="#DejaVuSans-31"/>
       <use xlink:href="#DejaVuSans-33" x="63.623047"/>
       <use xlink:href="#DejaVuSans-33" x="127.246094"/>
      </g>
     </g>
    </g>
    <g id="xtick_6">
     <g id="line2d_6">
      <g>
       <use xlink:href="#m49ad7d318a" x="254.075719" y="307.584" style="stroke: #000000; stroke-width: 0.8"/>
      </g>
     </g>
     <g id="text_6">
      <!-- 167 -->
      <g transform="translate(244.531969 322.182437) scale(0.1 -0.1)">
       <use xlink:href="#DejaVuSans-31"/>
       <use xlink:href="#DejaVuSans-36" x="63.623047"/>
       <use xlink:href="#DejaVuSans-37" x="127.246094"/>
      </g>
     </g>
    </g>
    <g id="xtick_7">
     <g id="line2d_7">
      <g>
       <use xlink:href="#m49ad7d318a" x="289.907157" y="307.584" style="stroke: #000000; stroke-width: 0.8"/>
      </g>
     </g>
     <g id="text_7">
      <!-- 200 -->
      <g transform="translate(280.363407 322.182437) scale(0.1 -0.1)">
       <defs>
        <path id="DejaVuSans-32" d="M 1228 531 
L 3431 531 
L 3431 0 
L 469 0 
L 469 531 
Q 828 903 1448 1529 
Q 2069 2156 2228 2338 
Q 2531 2678 2651 2914 
Q 2772 3150 2772 3378 
Q 2772 3750 2511 3984 
Q 2250 4219 1831 4219 
Q 1534 4219 1204 4116 
Q 875 4013 500 3803 
L 500 4441 
Q 881 4594 1212 4672 
Q 1544 4750 1819 4750 
Q 2544 4750 2975 4387 
Q 3406 4025 3406 3419 
Q 3406 3131 3298 2873 
Q 3191 2616 2906 2266 
Q 2828 2175 2409 1742 
Q 1991 1309 1228 531 
z
" transform="scale(0.015625)"/>
       </defs>
       <use xlink:href="#DejaVuSans-32"/>
       <use xlink:href="#DejaVuSans-30" x="63.623047"/>
       <use xlink:href="#DejaVuSans-30" x="127.246094"/>
      </g>
     </g>
    </g>
    <g id="xtick_8">
     <g id="line2d_8">
      <g>
       <use xlink:href="#m49ad7d318a" x="325.738595" y="307.584" style="stroke: #000000; stroke-width: 0.8"/>
      </g>
     </g>
     <g id="text_8">
      <!-- 233 -->
      <g transform="translate(316.194845 322.182437) scale(0.1 -0.1)">
       <use xlink:href="#DejaVuSans-32"/>
       <use xlink:href="#DejaVuSans-33" x="63.623047"/>
       <use xlink:href="#DejaVuSans-33" x="127.246094"/>
      </g>
     </g>
    </g>
    <g id="xtick_9">
     <g id="line2d_9">
      <g>
       <use xlink:href="#m49ad7d318a" x="361.570033" y="307.584" style="stroke: #000000; stroke-width: 0.8"/>
      </g>
     </g>
     <g id="text_9">
      <!-- 266 -->
      <g transform="translate(352.026283 322.182437) scale(0.1 -0.1)">
       <use xlink:href="#DejaVuSans-32"/>
       <use xlink:href="#DejaVuSans-36" x="63.623047"/>
       <use xlink:href="#DejaVuSans-36" x="127.246094"/>
      </g>
     </g>
    </g>
    <g id="xtick_10">
     <g id="line2d_10">
      <g>
       <use xlink:href="#m49ad7d318a" x="398.487273" y="307.584" style="stroke: #000000; stroke-width: 0.8"/>
      </g>
     </g>
     <g id="text_10">
      <!-- 300 -->
      <g transform="translate(388.943523 322.182437) scale(0.1 -0.1)">
       <use xlink:href="#DejaVuSans-33"/>
       <use xlink:href="#DejaVuSans-30" x="63.623047"/>
       <use xlink:href="#DejaVuSans-30" x="127.246094"/>
      </g>
     </g>
    </g>
    <g id="text_11">
     <!-- Epochs -->
     <g transform="translate(218.244375 335.860562) scale(0.1 -0.1)">
      <defs>
       <path id="DejaVuSans-45" d="M 628 4666 
L 3578 4666 
L 3578 4134 
L 1259 4134 
L 1259 2753 
L 3481 2753 
L 3481 2222 
L 1259 2222 
L 1259 531 
L 3634 531 
L 3634 0 
L 628 0 
L 628 4666 
z
" transform="scale(0.015625)"/>
       <path id="DejaVuSans-70" d="M 1159 525 
L 1159 -1331 
L 581 -1331 
L 581 3500 
L 1159 3500 
L 1159 2969 
Q 1341 3281 1617 3432 
Q 1894 3584 2278 3584 
Q 2916 3584 3314 3078 
Q 3713 2572 3713 1747 
Q 3713 922 3314 415 
Q 2916 -91 2278 -91 
Q 1894 -91 1617 61 
Q 1341 213 1159 525 
z
M 3116 1747 
Q 3116 2381 2855 2742 
Q 2594 3103 2138 3103 
Q 1681 3103 1420 2742 
Q 1159 2381 1159 1747 
Q 1159 1113 1420 752 
Q 1681 391 2138 391 
Q 2594 391 2855 752 
Q 3116 1113 3116 1747 
z
" transform="scale(0.015625)"/>
       <path id="DejaVuSans-6f" d="M 1959 3097 
Q 1497 3097 1228 2736 
Q 959 2375 959 1747 
Q 959 1119 1226 758 
Q 1494 397 1959 397 
Q 2419 397 2687 759 
Q 2956 1122 2956 1747 
Q 2956 2369 2687 2733 
Q 2419 3097 1959 3097 
z
M 1959 3584 
Q 2709 3584 3137 3096 
Q 3566 2609 3566 1747 
Q 3566 888 3137 398 
Q 2709 -91 1959 -91 
Q 1206 -91 779 398 
Q 353 888 353 1747 
Q 353 2609 779 3096 
Q 1206 3584 1959 3584 
z
" transform="scale(0.015625)"/>
       <path id="DejaVuSans-63" d="M 3122 3366 
L 3122 2828 
Q 2878 2963 2633 3030 
Q 2388 3097 2138 3097 
Q 1578 3097 1268 2742 
Q 959 2388 959 1747 
Q 959 1106 1268 751 
Q 1578 397 2138 397 
Q 2388 397 2633 464 
Q 2878 531 3122 666 
L 3122 134 
Q 2881 22 2623 -34 
Q 2366 -91 2075 -91 
Q 1284 -91 818 406 
Q 353 903 353 1747 
Q 353 2603 823 3093 
Q 1294 3584 2113 3584 
Q 2378 3584 2631 3529 
Q 2884 3475 3122 3366 
z
" transform="scale(0.015625)"/>
       <path id="DejaVuSans-68" d="M 3513 2113 
L 3513 0 
L 2938 0 
L 2938 2094 
Q 2938 2591 2744 2837 
Q 2550 3084 2163 3084 
Q 1697 3084 1428 2787 
Q 1159 2491 1159 1978 
L 1159 0 
L 581 0 
L 581 4863 
L 1159 4863 
L 1159 2956 
Q 1366 3272 1645 3428 
Q 1925 3584 2291 3584 
Q 2894 3584 3203 3211 
Q 3513 2838 3513 2113 
z
" transform="scale(0.015625)"/>
       <path id="DejaVuSans-73" d="M 2834 3397 
L 2834 2853 
Q 2591 2978 2328 3040 
Q 2066 3103 1784 3103 
Q 1356 3103 1142 2972 
Q 928 2841 928 2578 
Q 928 2378 1081 2264 
Q 1234 2150 1697 2047 
L 1894 2003 
Q 2506 1872 2764 1633 
Q 3022 1394 3022 966 
Q 3022 478 2636 193 
Q 2250 -91 1575 -91 
Q 1294 -91 989 -36 
Q 684 19 347 128 
L 347 722 
Q 666 556 975 473 
Q 1284 391 1588 391 
Q 1994 391 2212 530 
Q 2431 669 2431 922 
Q 2431 1156 2273 1281 
Q 2116 1406 1581 1522 
L 1381 1569 
Q 847 1681 609 1914 
Q 372 2147 372 2553 
Q 372 3047 722 3315 
Q 1072 3584 1716 3584 
Q 2034 3584 2315 3537 
Q 2597 3491 2834 3397 
z
" transform="scale(0.015625)"/>
      </defs>
      <use xlink:href="#DejaVuSans-45"/>
      <use xlink:href="#DejaVuSans-70" x="63.183594"/>
      <use xlink:href="#DejaVuSans-6f" x="126.660156"/>
      <use xlink:href="#DejaVuSans-63" x="187.841797"/>
      <use xlink:href="#DejaVuSans-68" x="242.822266"/>
      <use xlink:href="#DejaVuSans-73" x="306.201172"/>
     </g>
    </g>
   </g>
   <g id="matplotlib.axis_2">
    <g id="ytick_1">
     <g id="line2d_11">
      <defs>
       <path id="m097e8a8452" d="M 0 0 
L -3.5 0 
" style="stroke: #000000; stroke-width: 0.8"/>
      </defs>
      <g>
       <use xlink:href="#m097e8a8452" x="57.6" y="271.522266" style="stroke: #000000; stroke-width: 0.8"/>
      </g>
     </g>
     <g id="text_12">
      <!-- 40 -->
      <g transform="translate(37.875 275.321485) scale(0.1 -0.1)">
       <use xlink:href="#DejaVuSans-34"/>
       <use xlink:href="#DejaVuSans-30" x="63.623047"/>
      </g>
     </g>
    </g>
    <g id="ytick_2">
     <g id="line2d_12">
      <g>
       <use xlink:href="#m097e8a8452" x="57.6" y="233.04164" style="stroke: #000000; stroke-width: 0.8"/>
      </g>
     </g>
     <g id="text_13">
      <!-- 50 -->
      <g transform="translate(37.875 236.840859) scale(0.1 -0.1)">
       <defs>
        <path id="DejaVuSans-35" d="M 691 4666 
L 3169 4666 
L 3169 4134 
L 1269 4134 
L 1269 2991 
Q 1406 3038 1543 3061 
Q 1681 3084 1819 3084 
Q 2600 3084 3056 2656 
Q 3513 2228 3513 1497 
Q 3513 744 3044 326 
Q 2575 -91 1722 -91 
Q 1428 -91 1123 -41 
Q 819 9 494 109 
L 494 744 
Q 775 591 1075 516 
Q 1375 441 1709 441 
Q 2250 441 2565 725 
Q 2881 1009 2881 1497 
Q 2881 1984 2565 2268 
Q 2250 2553 1709 2553 
Q 1456 2553 1204 2497 
Q 953 2441 691 2322 
L 691 4666 
z
" transform="scale(0.015625)"/>
       </defs>
       <use xlink:href="#DejaVuSans-35"/>
       <use xlink:href="#DejaVuSans-30" x="63.623047"/>
      </g>
     </g>
    </g>
    <g id="ytick_3">
     <g id="line2d_13">
      <g>
       <use xlink:href="#m097e8a8452" x="57.6" y="194.561014" style="stroke: #000000; stroke-width: 0.8"/>
      </g>
     </g>
     <g id="text_14">
      <!-- 60 -->
      <g transform="translate(37.875 198.360233) scale(0.1 -0.1)">
       <use xlink:href="#DejaVuSans-36"/>
       <use xlink:href="#DejaVuSans-30" x="63.623047"/>
      </g>
     </g>
    </g>
    <g id="ytick_4">
     <g id="line2d_14">
      <g>
       <use xlink:href="#m097e8a8452" x="57.6" y="156.080388" style="stroke: #000000; stroke-width: 0.8"/>
      </g>
     </g>
     <g id="text_15">
      <!-- 70 -->
      <g transform="translate(37.875 159.879607) scale(0.1 -0.1)">
       <use xlink:href="#DejaVuSans-37"/>
       <use xlink:href="#DejaVuSans-30" x="63.623047"/>
      </g>
     </g>
    </g>
    <g id="ytick_5">
     <g id="line2d_15">
      <g>
       <use xlink:href="#m097e8a8452" x="57.6" y="117.599762" style="stroke: #000000; stroke-width: 0.8"/>
      </g>
     </g>
     <g id="text_16">
      <!-- 80 -->
      <g transform="translate(37.875 121.398981) scale(0.1 -0.1)">
       <defs>
        <path id="DejaVuSans-38" d="M 2034 2216 
Q 1584 2216 1326 1975 
Q 1069 1734 1069 1313 
Q 1069 891 1326 650 
Q 1584 409 2034 409 
Q 2484 409 2743 651 
Q 3003 894 3003 1313 
Q 3003 1734 2745 1975 
Q 2488 2216 2034 2216 
z
M 1403 2484 
Q 997 2584 770 2862 
Q 544 3141 544 3541 
Q 544 4100 942 4425 
Q 1341 4750 2034 4750 
Q 2731 4750 3128 4425 
Q 3525 4100 3525 3541 
Q 3525 3141 3298 2862 
Q 3072 2584 2669 2484 
Q 3125 2378 3379 2068 
Q 3634 1759 3634 1313 
Q 3634 634 3220 271 
Q 2806 -91 2034 -91 
Q 1263 -91 848 271 
Q 434 634 434 1313 
Q 434 1759 690 2068 
Q 947 2378 1403 2484 
z
M 1172 3481 
Q 1172 3119 1398 2916 
Q 1625 2713 2034 2713 
Q 2441 2713 2670 2916 
Q 2900 3119 2900 3481 
Q 2900 3844 2670 4047 
Q 2441 4250 2034 4250 
Q 1625 4250 1398 4047 
Q 1172 3844 1172 3481 
z
" transform="scale(0.015625)"/>
       </defs>
       <use xlink:href="#DejaVuSans-38"/>
       <use xlink:href="#DejaVuSans-30" x="63.623047"/>
      </g>
     </g>
    </g>
    <g id="ytick_6">
     <g id="line2d_16">
      <g>
       <use xlink:href="#m097e8a8452" x="57.6" y="79.119136" style="stroke: #000000; stroke-width: 0.8"/>
      </g>
     </g>
     <g id="text_17">
      <!-- 90 -->
      <g transform="translate(37.875 82.918354) scale(0.1 -0.1)">
       <defs>
        <path id="DejaVuSans-39" d="M 703 97 
L 703 672 
Q 941 559 1184 500 
Q 1428 441 1663 441 
Q 2288 441 2617 861 
Q 2947 1281 2994 2138 
Q 2813 1869 2534 1725 
Q 2256 1581 1919 1581 
Q 1219 1581 811 2004 
Q 403 2428 403 3163 
Q 403 3881 828 4315 
Q 1253 4750 1959 4750 
Q 2769 4750 3195 4129 
Q 3622 3509 3622 2328 
Q 3622 1225 3098 567 
Q 2575 -91 1691 -91 
Q 1453 -91 1209 -44 
Q 966 3 703 97 
z
M 1959 2075 
Q 2384 2075 2632 2365 
Q 2881 2656 2881 3163 
Q 2881 3666 2632 3958 
Q 2384 4250 1959 4250 
Q 1534 4250 1286 3958 
Q 1038 3666 1038 3163 
Q 1038 2656 1286 2365 
Q 1534 2075 1959 2075 
z
" transform="scale(0.015625)"/>
       </defs>
       <use xlink:href="#DejaVuSans-39"/>
       <use xlink:href="#DejaVuSans-30" x="63.623047"/>
      </g>
     </g>
    </g>
    <g id="text_18">
     <!-- Accuracy -->
     <g transform="translate(31.795312 197.356125) rotate(-90) scale(0.1 -0.1)">
      <defs>
       <path id="DejaVuSans-41" d="M 2188 4044 
L 1331 1722 
L 3047 1722 
L 2188 4044 
z
M 1831 4666 
L 2547 4666 
L 4325 0 
L 3669 0 
L 3244 1197 
L 1141 1197 
L 716 0 
L 50 0 
L 1831 4666 
z
" transform="scale(0.015625)"/>
       <path id="DejaVuSans-75" d="M 544 1381 
L 544 3500 
L 1119 3500 
L 1119 1403 
Q 1119 906 1312 657 
Q 1506 409 1894 409 
Q 2359 409 2629 706 
Q 2900 1003 2900 1516 
L 2900 3500 
L 3475 3500 
L 3475 0 
L 2900 0 
L 2900 538 
Q 2691 219 2414 64 
Q 2138 -91 1772 -91 
Q 1169 -91 856 284 
Q 544 659 544 1381 
z
M 1991 3584 
L 1991 3584 
z
" transform="scale(0.015625)"/>
       <path id="DejaVuSans-72" d="M 2631 2963 
Q 2534 3019 2420 3045 
Q 2306 3072 2169 3072 
Q 1681 3072 1420 2755 
Q 1159 2438 1159 1844 
L 1159 0 
L 581 0 
L 581 3500 
L 1159 3500 
L 1159 2956 
Q 1341 3275 1631 3429 
Q 1922 3584 2338 3584 
Q 2397 3584 2469 3576 
Q 2541 3569 2628 3553 
L 2631 2963 
z
" transform="scale(0.015625)"/>
       <path id="DejaVuSans-61" d="M 2194 1759 
Q 1497 1759 1228 1600 
Q 959 1441 959 1056 
Q 959 750 1161 570 
Q 1363 391 1709 391 
Q 2188 391 2477 730 
Q 2766 1069 2766 1631 
L 2766 1759 
L 2194 1759 
z
M 3341 1997 
L 3341 0 
L 2766 0 
L 2766 531 
Q 2569 213 2275 61 
Q 1981 -91 1556 -91 
Q 1019 -91 701 211 
Q 384 513 384 1019 
Q 384 1609 779 1909 
Q 1175 2209 1959 2209 
L 2766 2209 
L 2766 2266 
Q 2766 2663 2505 2880 
Q 2244 3097 1772 3097 
Q 1472 3097 1187 3025 
Q 903 2953 641 2809 
L 641 3341 
Q 956 3463 1253 3523 
Q 1550 3584 1831 3584 
Q 2591 3584 2966 3190 
Q 3341 2797 3341 1997 
z
" transform="scale(0.015625)"/>
       <path id="DejaVuSans-79" d="M 2059 -325 
Q 1816 -950 1584 -1140 
Q 1353 -1331 966 -1331 
L 506 -1331 
L 506 -850 
L 844 -850 
Q 1081 -850 1212 -737 
Q 1344 -625 1503 -206 
L 1606 56 
L 191 3500 
L 800 3500 
L 1894 763 
L 2988 3500 
L 3597 3500 
L 2059 -325 
z
" transform="scale(0.015625)"/>
      </defs>
      <use xlink:href="#DejaVuSans-41"/>
      <use xlink:href="#DejaVuSans-63" x="66.658203"/>
      <use xlink:href="#DejaVuSans-63" x="121.638672"/>
      <use xlink:href="#DejaVuSans-75" x="176.619141"/>
      <use xlink:href="#DejaVuSans-72" x="239.998047"/>
      <use xlink:href="#DejaVuSans-61" x="281.111328"/>
      <use xlink:href="#DejaVuSans-63" x="342.390625"/>
      <use xlink:href="#DejaVuSans-79" x="397.371094"/>
     </g>
    </g>
   </g>
   <g id="line2d_17">
    <path d="M 73.832727 295.488 
L 74.918528 237.520785 
L 76.00433 216.010115 
L 77.090131 198.3629 
L 78.175932 186.811016 
L 79.261733 177.668019 
L 80.347534 171.426462 
L 81.433335 164.184408 
L 82.519137 159.874578 
L 83.604938 155.056803 
L 84.690739 149.507897 
L 85.77654 146.352486 
L 87.948142 137.90214 
L 90.119745 131.283472 
L 92.291347 126.527267 
L 93.377148 124.988042 
L 94.462949 124.703285 
L 95.54875 152.848015 
L 96.634552 151.955265 
L 97.720353 149.961968 
L 99.891955 144.705515 
L 100.977756 140.903629 
L 102.063557 140.50343 
L 103.149358 138.89494 
L 104.23516 136.724633 
L 105.320961 135.57791 
L 106.406762 132.214704 
L 107.492563 130.767832 
L 108.578364 128.559044 
L 109.664165 126.965946 
L 110.749967 128.058796 
L 111.835768 125.01113 
L 112.921569 123.441121 
L 114.00737 121.31699 
L 115.093171 120.516593 
L 116.178972 117.499712 
L 117.264773 118.47712 
L 118.350575 116.422255 
L 119.436376 115.090825 
L 120.522177 112.504927 
L 121.607978 111.712226 
L 122.693779 109.765106 
L 123.77958 108.349019 
L 124.865382 106.363419 
L 127.036984 104.539437 
L 128.122785 102.569229 
L 129.208586 101.484076 
L 130.294387 100.876082 
L 131.380189 99.39073 
L 132.46599 98.497979 
L 133.551791 97.158853 
L 134.637592 96.712478 
L 135.723393 97.281991 
L 136.809194 96.835616 
L 137.894995 96.597036 
L 138.980797 123.625828 
L 140.066598 125.896185 
L 141.152399 126.604228 
L 142.2382 124.295391 
L 143.324001 123.433425 
L 144.409802 123.187149 
L 145.495604 122.379056 
L 147.667206 119.146683 
L 148.753007 120.793654 
L 149.838808 118.800357 
L 150.924609 119.315998 
L 152.01041 117.707508 
L 153.096212 116.576177 
L 154.182013 116.460735 
L 155.267814 116.11441 
L 156.353615 115.63725 
L 157.439416 114.074936 
L 158.525217 114.30582 
L 159.611019 112.735811 
L 160.69682 112.789684 
L 162.868422 111.219674 
L 163.954223 110.342316 
L 165.040024 110.365404 
L 166.125825 108.926229 
L 167.211627 109.634272 
L 168.297428 109.00319 
L 169.383229 107.510142 
L 170.46903 107.617887 
L 171.554831 106.894452 
L 172.640632 107.217689 
L 173.726434 105.755425 
L 174.812235 104.500957 
L 175.898036 103.623598 
L 176.983837 104.185416 
L 179.155439 102.099766 
L 180.24124 101.784224 
L 181.327042 100.591325 
L 182.412843 100.42201 
L 183.498644 100.106469 
L 184.584445 98.81352 
L 185.670246 98.105477 
L 187.841849 98.367145 
L 188.92765 97.451306 
L 190.013451 95.01933 
L 191.099252 95.63502 
L 192.185053 94.696093 
L 193.270854 93.203045 
L 194.356656 93.27231 
L 195.442457 92.779758 
L 196.528258 92.487305 
L 198.69986 90.347782 
L 200.871462 89.493513 
L 203.043065 87.200067 
L 204.128866 87.084625 
L 205.214667 86.230355 
L 206.300468 85.606969 
L 207.386269 85.92251 
L 209.557872 84.598777 
L 210.643673 85.437655 
L 211.729474 83.721419 
L 212.815275 83.729115 
L 213.901076 82.70553 
L 214.986877 82.505431 
L 217.15848 82.859453 
L 218.244281 81.47415 
L 219.330082 81.412581 
L 220.415883 81.528023 
L 221.501684 81.143217 
L 222.587486 81.797387 
L 223.673287 81.158609 
L 224.759088 81.073952 
L 225.844889 109.549615 
L 226.93069 111.881541 
L 228.016491 112.274043 
L 229.102292 112.18169 
L 230.188094 112.358701 
L 232.359696 110.565503 
L 233.445497 110.219178 
L 234.531298 110.180697 
L 235.617099 109.788195 
L 236.702901 108.549119 
L 237.788702 108.095047 
L 238.874503 108.86466 
L 239.960304 108.610688 
L 241.046105 107.694849 
L 242.131906 107.918036 
L 243.217708 107.025286 
L 244.303509 107.271562 
L 245.38931 106.001701 
L 246.475111 106.255673 
L 247.560912 106.340331 
L 248.646713 104.07767 
L 249.732514 105.462972 
L 250.818316 105.247481 
L 252.989918 105.524541 
L 254.075719 104.246985 
L 255.16152 104.423995 
L 256.247321 104.393211 
L 257.333123 104.724144 
L 258.418924 103.438891 
L 259.504725 103.731344 
L 261.676327 102.107462 
L 262.762128 102.199815 
L 263.847929 103.469676 
L 264.933731 102.053589 
L 266.019532 101.168534 
L 267.105333 101.522556 
L 268.191134 102.161335 
L 269.276935 100.66059 
L 270.362736 100.79912 
L 271.448538 100.060292 
L 272.534339 100.498972 
L 273.62014 99.867889 
L 274.705941 100.506668 
L 275.791742 100.0449 
L 276.877543 98.982835 
L 277.963344 99.967939 
L 279.049146 99.821713 
L 280.134947 98.705774 
L 282.306549 98.259399 
L 283.39235 98.190134 
L 284.478151 98.513371 
L 285.563953 97.097284 
L 286.649754 97.843808 
L 287.735555 97.48209 
L 288.821356 97.459002 
L 290.992958 96.820224 
L 292.07876 95.427225 
L 293.164561 96.104484 
L 294.250362 95.527275 
L 295.336163 95.488794 
L 296.421964 95.25791 
L 298.593566 95.150165 
L 299.679368 93.857215 
L 300.765169 94.911585 
L 301.85097 93.803343 
L 302.936771 93.695597 
L 304.022572 92.949073 
L 305.108373 92.571963 
L 306.194175 92.510394 
L 307.279976 92.949073 
L 308.365777 91.763869 
L 309.451578 91.52529 
L 310.537379 91.894704 
L 312.708981 90.286213 
L 313.794783 90.024545 
L 314.880584 90.601755 
L 317.052186 89.33959 
L 318.137987 89.301109 
L 319.223788 89.493513 
L 321.395391 87.569481 
L 322.481192 88.731596 
L 323.566993 87.746492 
L 325.738595 87.130802 
L 326.824396 87.092321 
L 327.910198 86.36119 
L 328.995999 86.461239 
L 330.0818 86.138002 
L 332.253402 85.045152 
L 333.339203 85.399174 
L 334.425005 85.12981 
L 335.510806 84.598777 
L 336.596607 83.806076 
L 337.682408 83.598281 
L 338.768209 83.105729 
L 339.85401 83.159601 
L 340.939811 83.621369 
L 342.025613 82.359204 
L 343.111414 81.959006 
L 345.283016 81.566504 
L 346.368817 80.727626 
L 348.54042 80.889245 
L 349.626221 80.258162 
L 350.712022 80.019582 
L 352.883624 79.981102 
L 353.969425 79.203793 
L 355.055227 78.811291 
L 357.226829 79.273058 
L 358.31263 78.618888 
L 359.398431 77.141232 
L 360.484232 78.033982 
L 361.570033 76.54863 
L 362.655835 76.356227 
L 363.741636 76.510149 
L 364.827437 76.995005 
L 365.913238 76.64868 
L 366.999039 75.640487 
L 368.08484 75.732841 
L 369.170642 76.671768 
L 370.256443 77.849275 
L 371.342244 78.434181 
L 372.428045 79.273058 
L 373.513846 79.911837 
L 374.599647 80.019582 
L 375.685448 79.380804 
L 376.77125 79.350019 
L 377.857051 80.796891 
L 378.942852 79.857964 
L 380.028653 79.881052 
L 381.114454 80.866156 
L 382.200255 80.281251 
L 383.286057 80.365908 
L 384.371858 79.396196 
L 385.457659 79.565511 
L 387.629261 79.711737 
L 388.715062 80.388996 
L 389.800863 79.804091 
L 390.886665 79.704041 
L 391.972466 79.065263 
L 394.144068 80.10424 
L 395.229869 79.742522 
L 396.31567 79.72713 
L 397.401472 79.850268 
L 398.487273 79.719433 
L 398.487273 79.719433 
" clip-path="url(#pe7b8de54ba)" style="fill: none; stroke: #1f77b4; stroke-width: 1.5; stroke-linecap: square"/>
   </g>
   <g id="line2d_18">
    <path d="M 73.832727 238.58285 
L 74.918528 175.590065 
L 76.00433 176.47512 
L 77.090131 150.269813 
L 78.175932 147.191363 
L 79.261733 121.79415 
L 80.347534 123.102491 
L 81.433335 110.865652 
L 82.519137 108.056567 
L 83.604938 98.936658 
L 84.690739 100.28348 
L 85.77654 100.475883 
L 86.862341 93.010642 
L 87.948142 90.316998 
L 89.033943 89.970672 
L 90.119745 85.583881 
L 91.205546 84.121617 
L 92.291347 81.274051 
L 93.377148 81.274051 
L 94.462949 80.119632 
L 95.54875 101.861186 
L 96.634552 119.062026 
L 97.720353 101.745744 
L 98.806154 100.321961 
L 99.891955 104.246985 
L 100.977756 97.974642 
L 102.063557 93.587851 
L 103.149358 92.818239 
L 104.23516 90.778765 
L 105.320961 88.085122 
L 106.406762 83.275043 
L 107.492563 81.543415 
L 108.578364 82.159105 
L 109.664165 84.775788 
L 110.749967 83.775291 
L 111.835768 81.043167 
L 112.921569 79.311539 
L 114.00737 78.77281 
L 115.093171 77.233585 
L 116.178972 76.040686 
L 117.264773 74.539941 
L 118.350575 74.424499 
L 119.436376 71.538452 
L 120.522177 73.616406 
L 121.607978 70.460995 
L 122.693779 68.190638 
L 123.77958 68.998731 
L 124.865382 68.96025 
L 125.951183 67.72887 
L 127.036984 68.690886 
L 128.122785 65.343072 
L 129.208586 64.65042 
L 130.294387 63.38056 
L 131.380189 63.149676 
L 133.551791 63.880808 
L 134.637592 62.918792 
L 135.723393 62.918792 
L 136.809194 63.265118 
L 137.894995 62.880312 
L 138.980797 81.620376 
L 140.066598 79.234578 
L 141.152399 81.081648 
L 142.2382 78.657368 
L 143.324001 76.579414 
L 144.409802 77.964717 
L 145.495604 76.156128 
L 146.581405 80.042671 
L 147.667206 79.042174 
L 148.753007 76.387011 
L 149.838808 74.616902 
L 150.924609 74.501461 
L 152.01041 77.118143 
L 153.096212 77.156624 
L 154.182013 73.500964 
L 155.267814 75.07867 
L 157.439416 70.076189 
L 158.525217 75.271073 
L 159.611019 72.538949 
L 160.69682 70.230111 
L 161.782621 74.809306 
L 162.868422 71.230607 
L 163.954223 71.153646 
L 165.040024 69.999227 
L 166.125825 69.191134 
L 167.211627 69.960747 
L 168.297428 67.921274 
L 169.383229 68.729367 
L 170.46903 67.767351 
L 171.554831 65.689397 
L 172.640632 67.497987 
L 173.726434 70.999724 
L 174.812235 68.190638 
L 175.898036 66.189645 
L 176.983837 66.959258 
L 178.069638 65.766358 
L 179.155439 65.381552 
L 180.24124 65.958762 
L 181.327042 64.765862 
L 182.412843 68.844809 
L 183.498644 68.460002 
L 184.584445 65.035227 
L 185.670246 65.112188 
L 186.756047 64.727382 
L 187.841849 64.958265 
L 188.92765 63.649924 
L 190.013451 61.110203 
L 191.099252 62.80335 
L 192.185053 61.802854 
L 193.270854 62.918792 
L 195.442457 60.225148 
L 196.528258 60.456032 
L 197.614059 60.34059 
L 198.69986 60.725396 
L 199.785661 58.224156 
L 200.871462 59.147691 
L 201.957264 58.993768 
L 203.043065 59.647939 
L 204.128866 59.532497 
L 205.214667 58.839846 
L 206.300468 59.647939 
L 207.386269 57.993272 
L 208.472071 58.262636 
L 209.557872 57.608466 
L 210.643673 57.800869 
L 211.729474 57.685427 
L 212.815275 57.069737 
L 213.901076 57.800869 
L 214.986877 57.377582 
L 216.072679 57.569985 
L 217.15848 56.954295 
L 218.244281 56.992776 
L 219.330082 57.223659 
L 220.415883 56.800373 
L 221.501684 56.800373 
L 222.587486 57.031256 
L 223.673287 56.915814 
L 224.759088 57.069737 
L 225.844889 73.462484 
L 226.93069 69.191134 
L 228.016491 73.347042 
L 229.102292 71.38453 
L 230.188094 72.61591 
L 231.273895 75.501957 
L 232.359696 72.654391 
L 233.445497 70.537956 
L 234.531298 70.922762 
L 235.617099 69.306576 
L 236.702901 69.883785 
L 237.788702 68.575444 
L 238.874503 66.805335 
L 239.960304 69.422018 
L 241.046105 69.729863 
L 242.131906 68.92177 
L 243.217708 67.0747 
L 244.303509 67.382545 
L 245.38931 70.15315 
L 246.475111 69.306576 
L 247.560912 71.769336 
L 248.646713 73.808809 
L 249.732514 68.652405 
L 250.818316 68.267599 
L 251.904117 67.0747 
L 252.989918 73.2316 
L 254.075719 67.151661 
L 255.16152 70.076189 
L 256.247321 63.957769 
L 257.333123 66.728374 
L 258.418924 67.344064 
L 259.504725 65.766358 
L 260.590526 66.305087 
L 261.676327 64.996746 
L 262.762128 72.346546 
L 263.847929 65.189149 
L 264.933731 67.228622 
L 266.019532 65.727878 
L 267.105333 63.38056 
L 268.191134 66.189645 
L 269.276935 64.65042 
L 270.362736 66.766855 
L 271.448538 64.150172 
L 272.534339 63.534482 
L 273.62014 69.306576 
L 274.705941 66.420529 
L 275.791742 67.69039 
L 276.877543 63.149676 
L 277.963344 67.11318 
L 279.049146 62.533986 
L 281.220748 66.728374 
L 282.306549 62.995753 
L 283.39235 62.957273 
L 284.478151 62.649428 
L 285.563953 62.495505 
L 286.649754 61.725893 
L 287.735555 63.457521 
L 288.821356 62.533986 
L 289.907157 62.957273 
L 290.992958 62.687908 
L 292.07876 61.841335 
L 293.164561 63.457521 
L 294.250362 63.649924 
L 295.336163 65.189149 
L 296.421964 61.725893 
L 297.507765 62.18766 
L 298.593566 62.457025 
L 299.679368 62.572467 
L 300.765169 61.495009 
L 301.85097 58.647443 
L 302.936771 60.763877 
L 304.022572 63.572963 
L 305.108373 60.725396 
L 306.194175 63.303598 
L 307.279976 60.994761 
L 308.365777 60.802358 
L 309.451578 61.225645 
L 310.537379 59.532497 
L 311.62318 62.533986 
L 312.708981 61.879815 
L 313.794783 59.186171 
L 314.880584 59.609458 
L 315.966385 60.994761 
L 317.052186 57.954791 
L 318.137987 60.263629 
L 319.223788 61.456528 
L 320.30959 59.532497 
L 321.395391 59.532497 
L 322.481192 59.07073 
L 323.566993 59.224652 
L 324.652794 58.685923 
L 325.738595 59.955784 
L 326.824396 58.45504 
L 327.910198 58.608962 
L 328.995999 58.262636 
L 330.0818 59.494016 
L 331.167601 57.916311 
L 332.253402 59.147691 
L 333.339203 57.416063 
L 334.425005 57.87783 
L 335.510806 57.069737 
L 336.596607 57.723908 
L 337.682408 57.839349 
L 338.768209 57.339101 
L 339.85401 58.378078 
L 342.025613 57.069737 
L 345.283016 56.684931 
L 346.368817 56.415566 
L 347.454618 56.03076 
L 348.54042 56.607969 
L 349.626221 55.645954 
L 350.712022 56.223163 
L 351.797823 55.915318 
L 352.883624 55.41507 
L 355.055227 56.300124 
L 356.141028 56.723411 
L 357.226829 55.761396 
L 358.31263 55.492031 
L 360.484232 55.41507 
L 361.570033 55.953799 
L 362.655835 54.876341 
L 363.741636 54.376093 
L 364.827437 54.18369 
L 365.913238 54.79938 
L 368.08484 54.491535 
L 369.170642 55.376589 
L 370.256443 56.531008 
L 371.342244 56.03076 
L 372.428045 56.723411 
L 373.513846 56.069241 
L 374.599647 56.377086 
L 375.685448 56.954295 
L 376.77125 56.761892 
L 377.857051 55.684434 
L 378.942852 56.838853 
L 380.028653 56.146202 
L 382.200255 56.454047 
L 383.286057 56.261644 
L 384.371858 56.377086 
L 385.457659 56.915814 
L 388.715062 57.569985 
L 389.800863 55.953799 
L 390.886665 56.069241 
L 391.972466 56.492528 
L 393.058267 55.607473 
L 394.144068 56.954295 
L 395.229869 55.492031 
L 396.31567 56.223163 
L 397.401472 57.454543 
L 398.487273 57.916311 
L 398.487273 57.916311 
" clip-path="url(#pe7b8de54ba)" style="fill: none; stroke: #ff7f0e; stroke-width: 1.5; stroke-linecap: square"/>
   </g>
   <g id="line2d_19">
    <path d="M 73.832727 266.188055 
L 74.918528 215.234399 
L 76.00433 209.714419 
L 77.090131 193.579095 
L 78.175932 192.67679 
L 79.261733 165.023816 
L 80.347534 165.395353 
L 81.433335 161.679982 
L 83.604938 139.122374 
L 84.690739 139.493911 
L 85.77654 148.384263 
L 86.862341 137.981224 
L 87.948142 133.283934 
L 89.033943 136.495076 
L 90.119745 127.604725 
L 91.205546 127.206649 
L 92.291347 125.136657 
L 93.377148 124.101661 
L 94.462949 122.243975 
L 95.54875 146.022348 
L 96.634552 167.146885 
L 97.720353 147.216575 
L 98.806154 141.537365 
L 99.891955 157.062307 
L 100.977756 154.010396 
L 102.063557 145.518119 
L 103.149358 140.873906 
L 104.23516 141.192366 
L 105.320961 137.39738 
L 106.406762 128.639721 
L 107.492563 121.68667 
L 108.578364 126.835112 
L 109.664165 131.24048 
L 110.749967 129.568563 
L 111.835768 126.86165 
L 112.921569 123.809739 
L 114.00737 128.427414 
L 115.093171 120.465905 
L 116.178972 114.627465 
L 117.264773 118.475528 
L 118.350575 115.503231 
L 119.436376 117.14861 
L 120.522177 118.103991 
L 122.693779 109.027871 
L 123.77958 108.417488 
L 124.865382 111.389785 
L 125.951183 109.664791 
L 127.036984 111.78786 
L 128.122785 105.15327 
L 129.208586 105.206346 
L 130.294387 105.073655 
L 131.380189 103.242508 
L 132.46599 102.924047 
L 133.551791 102.39328 
L 134.637592 101.517514 
L 135.723393 101.942128 
L 136.809194 102.632125 
L 137.894995 102.446357 
L 138.980797 129.727794 
L 140.066598 124.552813 
L 141.152399 128.984719 
L 142.2382 127.100496 
L 143.324001 116.803611 
L 144.409802 120.837442 
L 145.495604 124.313968 
L 146.581405 128.772413 
L 147.667206 125.508194 
L 148.753007 121.527439 
L 149.838808 118.873603 
L 150.924609 118.740911 
L 152.01041 126.888189 
L 154.182013 116.378997 
L 155.267814 122.32359 
L 156.353615 117.042456 
L 157.439416 114.255928 
L 159.611019 121.421286 
L 160.69682 110.195559 
L 161.782621 123.252433 
L 162.868422 111.575553 
L 163.954223 111.336708 
L 165.040024 109.134024 
L 166.125825 111.363247 
L 167.211627 116.113613 
L 168.297428 107.462107 
L 169.383229 112.637088 
L 170.46903 105.020578 
L 171.554831 108.948256 
L 172.640632 108.337873 
L 173.726434 109.664791 
L 174.812235 111.681707 
L 175.898036 102.579048 
L 176.983837 104.940963 
L 178.069638 109.479023 
L 179.155439 104.569426 
L 180.24124 106.082112 
L 181.327042 101.225592 
L 182.412843 111.4694 
L 183.498644 109.266716 
L 184.584445 106.665956 
L 185.670246 100.004827 
L 186.756047 105.232885 
L 187.841849 108.258258 
L 188.92765 99.527137 
L 190.013451 102.685202 
L 191.099252 99.1556 
L 192.185053 99.1556 
L 193.270854 104.516349 
L 194.356656 103.69366 
L 195.442457 98.120603 
L 196.528258 96.050611 
L 197.614059 99.182138 
L 198.69986 97.775605 
L 199.785661 96.687532 
L 200.871462 96.156765 
L 201.957264 95.811766 
L 203.043065 93.609082 
L 204.128866 95.917919 
L 205.214667 92.998699 
L 206.300468 94.61754 
L 207.386269 94.139849 
L 208.472071 93.901004 
L 209.557872 93.980619 
L 210.643673 93.290621 
L 211.729474 91.831011 
L 212.815275 91.379859 
L 213.901076 91.777935 
L 214.986877 90.769477 
L 216.072679 90.212171 
L 218.244281 90.344863 
L 219.330082 91.114476 
L 220.415883 89.893711 
L 221.501684 89.601789 
L 222.587486 90.344863 
L 223.673287 90.371402 
L 224.759088 89.840634 
L 225.844889 116.16669 
L 226.93069 111.973629 
L 228.016491 122.827819 
L 229.102292 112.000167 
L 230.188094 120.70475 
L 231.273895 122.642051 
L 232.359696 115.84823 
L 233.445497 115.954383 
L 234.531298 115.052079 
L 235.617099 115.052079 
L 236.702901 106.798648 
L 237.788702 110.407865 
L 238.874503 108.39095 
L 239.960304 112.212474 
L 241.046105 113.008625 
L 243.217708 108.70941 
L 244.303509 111.071325 
L 245.38931 113.910929 
L 246.475111 110.805941 
L 247.560912 114.07016 
L 248.646713 123.491278 
L 249.732514 110.222097 
L 250.818316 111.15094 
L 252.989918 115.423616 
L 255.16152 109.107486 
L 256.247321 102.260588 
L 257.333123 109.425946 
L 258.418924 109.399408 
L 259.504725 106.453649 
L 260.590526 108.682872 
L 261.676327 105.47173 
L 262.762128 120.492443 
L 263.847929 108.789025 
L 264.933731 112.822856 
L 266.019532 111.867475 
L 267.105333 102.977124 
L 268.191134 110.593634 
L 269.276935 104.277504 
L 270.362736 111.867475 
L 271.448538 108.70941 
L 272.534339 104.065197 
L 273.62014 112.690165 
L 274.705941 105.684037 
L 275.791742 110.885556 
L 276.877543 108.019413 
L 277.963344 106.029036 
L 279.049146 102.791355 
L 280.134947 104.383657 
L 281.220748 110.407865 
L 282.306549 98.147142 
L 283.39235 103.799813 
L 284.478151 98.651371 
L 285.563953 102.313665 
L 286.649754 103.428276 
L 287.735555 107.594799 
L 288.821356 101.915589 
L 289.907157 100.668286 
L 290.992958 98.810601 
L 292.07876 104.33058 
L 293.164561 103.534429 
L 294.250362 101.623667 
L 295.336163 103.003662 
L 296.421964 98.598294 
L 297.507765 98.253295 
L 298.593566 102.605587 
L 299.679368 100.190596 
L 300.765169 103.162892 
L 301.85097 92.414855 
L 302.936771 100.986747 
L 304.022572 101.490976 
L 305.108373 98.147142 
L 306.194175 102.499433 
L 307.279976 102.55251 
L 308.365777 97.669451 
L 309.451578 99.447522 
L 310.537379 98.969831 
L 311.62318 103.640583 
L 312.708981 102.207511 
L 313.794783 93.104853 
L 314.880584 98.492141 
L 315.966385 97.165222 
L 317.052186 94.192926 
L 318.137987 96.07715 
L 319.223788 98.359449 
L 320.30959 92.043318 
L 321.395391 99.1556 
L 322.481192 95.917919 
L 323.566993 94.909462 
L 324.652794 96.448687 
L 325.738595 96.024073 
L 326.824396 94.458309 
L 327.910198 94.989077 
L 328.995999 96.315995 
L 330.0818 98.518679 
L 331.167601 93.131391 
L 332.253402 95.572921 
L 333.339203 91.432936 
L 334.425005 93.47639 
L 335.510806 91.724858 
L 336.596607 94.431771 
L 337.682408 91.884088 
L 338.768209 92.733316 
L 339.85401 92.361779 
L 340.939811 95.546382 
L 342.025613 92.494471 
L 343.111414 94.644078 
L 344.197215 89.920249 
L 345.283016 95.015615 
L 346.368817 89.522174 
L 347.454618 89.999864 
L 348.54042 90.7164 
L 349.626221 87.558335 
L 350.712022 90.132556 
L 351.797823 89.522174 
L 352.883624 90.052941 
L 353.969425 87.79718 
L 356.141028 92.467932 
L 357.226829 89.893711 
L 358.31263 87.850257 
L 359.398431 89.283329 
L 360.484232 86.709107 
L 361.570033 90.026403 
L 362.655835 89.017945 
L 363.741636 86.257955 
L 365.913238 89.575251 
L 366.999039 88.513716 
L 368.08484 86.788723 
L 369.170642 87.744104 
L 370.256443 90.106018 
L 371.342244 91.141014 
L 372.428045 90.026403 
L 373.513846 90.106018 
L 374.599647 90.928707 
L 375.685448 93.582543 
L 376.77125 91.326783 
L 377.857051 89.920249 
L 378.942852 93.31716 
L 380.028653 88.593331 
L 381.114454 91.804473 
L 382.200255 91.379859 
L 383.286057 93.15793 
L 384.371858 86.709107 
L 385.457659 89.920249 
L 386.54346 89.177175 
L 387.629261 91.512551 
L 388.715062 89.150637 
L 389.800863 89.09756 
L 390.886665 91.326783 
L 391.972466 94.484848 
L 393.058267 90.769477 
L 394.144068 91.141014 
L 395.229869 89.442559 
L 396.31567 89.548712 
L 397.401472 93.15793 
L 398.487273 94.299079 
L 398.487273 94.299079 
" clip-path="url(#pe7b8de54ba)" style="fill: none; stroke: #2ca02c; stroke-width: 1.5; stroke-linecap: square"/>
   </g>
   <g id="line2d_20">
    <path d="M 368.08484 54.222171 
L 369.170642 54.645458 
L 371.342244 55.184186 
L 373.513846 54.991783 
L 374.599647 54.222171 
L 375.685448 53.914326 
L 376.77125 54.145209 
L 377.857051 54.837861 
L 378.942852 53.568 
L 380.028653 54.299132 
L 382.200255 54.953303 
L 383.286057 53.798884 
L 384.371858 53.914326 
L 385.457659 54.414574 
L 386.54346 53.875845 
L 387.629261 54.106729 
L 388.715062 54.837861 
L 389.800863 55.261148 
L 390.886665 54.914822 
L 391.972466 56.069241 
L 393.058267 54.606977 
L 394.144068 55.338109 
L 395.229869 55.41507 
L 396.31567 55.992279 
L 397.401472 54.953303 
L 398.487273 55.261148 
L 398.487273 55.261148 
" clip-path="url(#pe7b8de54ba)" style="fill: none; stroke: #d62728; stroke-width: 1.5; stroke-linecap: square"/>
   </g>
   <g id="line2d_21">
    <path d="M 368.08484 84.904499 
L 369.170642 88.089102 
L 370.256443 86.656031 
L 371.342244 89.681404 
L 372.428045 88.168717 
L 373.513846 85.169882 
L 374.599647 85.488343 
L 375.685448 84.639115 
L 376.77125 85.408728 
L 377.857051 88.036026 
L 378.942852 85.063729 
L 380.028653 86.417185 
L 381.114454 86.098725 
L 382.200255 87.452182 
L 383.286057 87.850257 
L 384.371858 85.382189 
L 385.457659 86.204879 
L 386.54346 86.311032 
L 387.629261 86.257955 
L 388.715062 87.770642 
L 389.800863 88.248333 
L 390.886665 88.381024 
L 391.972466 91.141014 
L 393.058267 86.894876 
L 394.144068 86.576416 
L 395.229869 88.61987 
L 396.31567 89.203714 
L 397.401472 87.425643 
L 398.487273 87.292951 
L 398.487273 87.292951 
" clip-path="url(#pe7b8de54ba)" style="fill: none; stroke: #9467bd; stroke-width: 1.5; stroke-linecap: square"/>
   </g>
   <g id="patch_3">
    <path d="M 57.6 307.584 
L 57.6 41.472 
" style="fill: none; stroke: #000000; stroke-width: 0.8; stroke-linejoin: miter; stroke-linecap: square"/>
   </g>
   <g id="patch_4">
    <path d="M 414.72 307.584 
L 414.72 41.472 
" style="fill: none; stroke: #000000; stroke-width: 0.8; stroke-linejoin: miter; stroke-linecap: square"/>
   </g>
   <g id="patch_5">
    <path d="M 57.6 307.584 
L 414.72 307.584 
" style="fill: none; stroke: #000000; stroke-width: 0.8; stroke-linejoin: miter; stroke-linecap: square"/>
   </g>
   <g id="patch_6">
    <path d="M 57.6 41.472 
L 414.72 41.472 
" style="fill: none; stroke: #000000; stroke-width: 0.8; stroke-linejoin: miter; stroke-linecap: square"/>
   </g>
   <g id="text_19">
    <!-- Learning Curves -->
    <g transform="translate(187.37625 35.472) scale(0.12 -0.12)">
     <defs>
      <path id="DejaVuSans-4c" d="M 628 4666 
L 1259 4666 
L 1259 531 
L 3531 531 
L 3531 0 
L 628 0 
L 628 4666 
z
" transform="scale(0.015625)"/>
      <path id="DejaVuSans-65" d="M 3597 1894 
L 3597 1613 
L 953 1613 
Q 991 1019 1311 708 
Q 1631 397 2203 397 
Q 2534 397 2845 478 
Q 3156 559 3463 722 
L 3463 178 
Q 3153 47 2828 -22 
Q 2503 -91 2169 -91 
Q 1331 -91 842 396 
Q 353 884 353 1716 
Q 353 2575 817 3079 
Q 1281 3584 2069 3584 
Q 2775 3584 3186 3129 
Q 3597 2675 3597 1894 
z
M 3022 2063 
Q 3016 2534 2758 2815 
Q 2500 3097 2075 3097 
Q 1594 3097 1305 2825 
Q 1016 2553 972 2059 
L 3022 2063 
z
" transform="scale(0.015625)"/>
      <path id="DejaVuSans-6e" d="M 3513 2113 
L 3513 0 
L 2938 0 
L 2938 2094 
Q 2938 2591 2744 2837 
Q 2550 3084 2163 3084 
Q 1697 3084 1428 2787 
Q 1159 2491 1159 1978 
L 1159 0 
L 581 0 
L 581 3500 
L 1159 3500 
L 1159 2956 
Q 1366 3272 1645 3428 
Q 1925 3584 2291 3584 
Q 2894 3584 3203 3211 
Q 3513 2838 3513 2113 
z
" transform="scale(0.015625)"/>
      <path id="DejaVuSans-69" d="M 603 3500 
L 1178 3500 
L 1178 0 
L 603 0 
L 603 3500 
z
M 603 4863 
L 1178 4863 
L 1178 4134 
L 603 4134 
L 603 4863 
z
" transform="scale(0.015625)"/>
      <path id="DejaVuSans-67" d="M 2906 1791 
Q 2906 2416 2648 2759 
Q 2391 3103 1925 3103 
Q 1463 3103 1205 2759 
Q 947 2416 947 1791 
Q 947 1169 1205 825 
Q 1463 481 1925 481 
Q 2391 481 2648 825 
Q 2906 1169 2906 1791 
z
M 3481 434 
Q 3481 -459 3084 -895 
Q 2688 -1331 1869 -1331 
Q 1566 -1331 1297 -1286 
Q 1028 -1241 775 -1147 
L 775 -588 
Q 1028 -725 1275 -790 
Q 1522 -856 1778 -856 
Q 2344 -856 2625 -561 
Q 2906 -266 2906 331 
L 2906 616 
Q 2728 306 2450 153 
Q 2172 0 1784 0 
Q 1141 0 747 490 
Q 353 981 353 1791 
Q 353 2603 747 3093 
Q 1141 3584 1784 3584 
Q 2172 3584 2450 3431 
Q 2728 3278 2906 2969 
L 2906 3500 
L 3481 3500 
L 3481 434 
z
" transform="scale(0.015625)"/>
      <path id="DejaVuSans-20" transform="scale(0.015625)"/>
      <path id="DejaVuSans-43" d="M 4122 4306 
L 4122 3641 
Q 3803 3938 3442 4084 
Q 3081 4231 2675 4231 
Q 1875 4231 1450 3742 
Q 1025 3253 1025 2328 
Q 1025 1406 1450 917 
Q 1875 428 2675 428 
Q 3081 428 3442 575 
Q 3803 722 4122 1019 
L 4122 359 
Q 3791 134 3420 21 
Q 3050 -91 2638 -91 
Q 1578 -91 968 557 
Q 359 1206 359 2328 
Q 359 3453 968 4101 
Q 1578 4750 2638 4750 
Q 3056 4750 3426 4639 
Q 3797 4528 4122 4306 
z
" transform="scale(0.015625)"/>
      <path id="DejaVuSans-76" d="M 191 3500 
L 800 3500 
L 1894 563 
L 2988 3500 
L 3597 3500 
L 2284 0 
L 1503 0 
L 191 3500 
z
" transform="scale(0.015625)"/>
     </defs>
     <use xlink:href="#DejaVuSans-4c"/>
     <use xlink:href="#DejaVuSans-65" x="53.962891"/>
     <use xlink:href="#DejaVuSans-61" x="115.486328"/>
     <use xlink:href="#DejaVuSans-72" x="176.765625"/>
     <use xlink:href="#DejaVuSans-6e" x="216.128906"/>
     <use xlink:href="#DejaVuSans-69" x="279.507812"/>
     <use xlink:href="#DejaVuSans-6e" x="307.291016"/>
     <use xlink:href="#DejaVuSans-67" x="370.669922"/>
     <use xlink:href="#DejaVuSans-20" x="434.146484"/>
     <use xlink:href="#DejaVuSans-43" x="465.933594"/>
     <use xlink:href="#DejaVuSans-75" x="535.757812"/>
     <use xlink:href="#DejaVuSans-72" x="599.136719"/>
     <use xlink:href="#DejaVuSans-76" x="640.25"/>
     <use xlink:href="#DejaVuSans-65" x="699.429688"/>
     <use xlink:href="#DejaVuSans-73" x="760.953125"/>
    </g>
   </g>
   <g id="legend_1">
    <g id="patch_7">
     <path d="M 214.18875 302.584 
L 407.72 302.584 
Q 409.72 302.584 409.72 300.584 
L 409.72 228.193375 
Q 409.72 226.193375 407.72 226.193375 
L 214.18875 226.193375 
Q 212.18875 226.193375 212.18875 228.193375 
L 212.18875 300.584 
Q 212.18875 302.584 214.18875 302.584 
z
" style="fill: #ffffff; opacity: 0.8; stroke: #cccccc; stroke-linejoin: miter"/>
    </g>
    <g id="line2d_22">
     <path d="M 216.18875 234.291812 
L 226.18875 234.291812 
L 236.18875 234.291812 
" style="fill: none; stroke: #1f77b4; stroke-width: 1.5; stroke-linecap: square"/>
    </g>
    <g id="text_20">
     <!-- Train Accuracy -->
     <g transform="translate(244.18875 237.791812) scale(0.1 -0.1)">
      <defs>
       <path id="DejaVuSans-54" d="M -19 4666 
L 3928 4666 
L 3928 4134 
L 2272 4134 
L 2272 0 
L 1638 0 
L 1638 4134 
L -19 4134 
L -19 4666 
z
" transform="scale(0.015625)"/>
      </defs>
      <use xlink:href="#DejaVuSans-54"/>
      <use xlink:href="#DejaVuSans-72" x="46.333984"/>
      <use xlink:href="#DejaVuSans-61" x="87.447266"/>
      <use xlink:href="#DejaVuSans-69" x="148.726562"/>
      <use xlink:href="#DejaVuSans-6e" x="176.509766"/>
      <use xlink:href="#DejaVuSans-20" x="239.888672"/>
      <use xlink:href="#DejaVuSans-41" x="271.675781"/>
      <use xlink:href="#DejaVuSans-63" x="338.333984"/>
      <use xlink:href="#DejaVuSans-63" x="393.314453"/>
      <use xlink:href="#DejaVuSans-75" x="448.294922"/>
      <use xlink:href="#DejaVuSans-72" x="511.673828"/>
      <use xlink:href="#DejaVuSans-61" x="552.787109"/>
      <use xlink:href="#DejaVuSans-63" x="614.066406"/>
      <use xlink:href="#DejaVuSans-79" x="669.046875"/>
     </g>
    </g>
    <g id="line2d_23">
     <path d="M 216.18875 248.969937 
L 226.18875 248.969937 
L 236.18875 248.969937 
" style="fill: none; stroke: #ff7f0e; stroke-width: 1.5; stroke-linecap: square"/>
    </g>
    <g id="text_21">
     <!-- Validation Accuracy -->
     <g transform="translate(244.18875 252.469937) scale(0.1 -0.1)">
      <defs>
       <path id="DejaVuSans-56" d="M 1831 0 
L 50 4666 
L 709 4666 
L 2188 738 
L 3669 4666 
L 4325 4666 
L 2547 0 
L 1831 0 
z
" transform="scale(0.015625)"/>
       <path id="DejaVuSans-6c" d="M 603 4863 
L 1178 4863 
L 1178 0 
L 603 0 
L 603 4863 
z
" transform="scale(0.015625)"/>
       <path id="DejaVuSans-64" d="M 2906 2969 
L 2906 4863 
L 3481 4863 
L 3481 0 
L 2906 0 
L 2906 525 
Q 2725 213 2448 61 
Q 2172 -91 1784 -91 
Q 1150 -91 751 415 
Q 353 922 353 1747 
Q 353 2572 751 3078 
Q 1150 3584 1784 3584 
Q 2172 3584 2448 3432 
Q 2725 3281 2906 2969 
z
M 947 1747 
Q 947 1113 1208 752 
Q 1469 391 1925 391 
Q 2381 391 2643 752 
Q 2906 1113 2906 1747 
Q 2906 2381 2643 2742 
Q 2381 3103 1925 3103 
Q 1469 3103 1208 2742 
Q 947 2381 947 1747 
z
" transform="scale(0.015625)"/>
       <path id="DejaVuSans-74" d="M 1172 4494 
L 1172 3500 
L 2356 3500 
L 2356 3053 
L 1172 3053 
L 1172 1153 
Q 1172 725 1289 603 
Q 1406 481 1766 481 
L 2356 481 
L 2356 0 
L 1766 0 
Q 1100 0 847 248 
Q 594 497 594 1153 
L 594 3053 
L 172 3053 
L 172 3500 
L 594 3500 
L 594 4494 
L 1172 4494 
z
" transform="scale(0.015625)"/>
      </defs>
      <use xlink:href="#DejaVuSans-56"/>
      <use xlink:href="#DejaVuSans-61" x="60.658203"/>
      <use xlink:href="#DejaVuSans-6c" x="121.9375"/>
      <use xlink:href="#DejaVuSans-69" x="149.720703"/>
      <use xlink:href="#DejaVuSans-64" x="177.503906"/>
      <use xlink:href="#DejaVuSans-61" x="240.980469"/>
      <use xlink:href="#DejaVuSans-74" x="302.259766"/>
      <use xlink:href="#DejaVuSans-69" x="341.46875"/>
      <use xlink:href="#DejaVuSans-6f" x="369.251953"/>
      <use xlink:href="#DejaVuSans-6e" x="430.433594"/>
      <use xlink:href="#DejaVuSans-20" x="493.8125"/>
      <use xlink:href="#DejaVuSans-41" x="525.599609"/>
      <use xlink:href="#DejaVuSans-63" x="592.257812"/>
      <use xlink:href="#DejaVuSans-63" x="647.238281"/>
      <use xlink:href="#DejaVuSans-75" x="702.21875"/>
      <use xlink:href="#DejaVuSans-72" x="765.597656"/>
      <use xlink:href="#DejaVuSans-61" x="806.710938"/>
      <use xlink:href="#DejaVuSans-63" x="867.990234"/>
      <use xlink:href="#DejaVuSans-79" x="922.970703"/>
     </g>
    </g>
    <g id="line2d_24">
     <path d="M 216.18875 263.648062 
L 226.18875 263.648062 
L 236.18875 263.648062 
" style="fill: none; stroke: #2ca02c; stroke-width: 1.5; stroke-linecap: square"/>
    </g>
    <g id="text_22">
     <!-- Robust Validation Accuracy -->
     <g transform="translate(244.18875 267.148062) scale(0.1 -0.1)">
      <defs>
       <path id="DejaVuSans-52" d="M 2841 2188 
Q 3044 2119 3236 1894 
Q 3428 1669 3622 1275 
L 4263 0 
L 3584 0 
L 2988 1197 
Q 2756 1666 2539 1819 
Q 2322 1972 1947 1972 
L 1259 1972 
L 1259 0 
L 628 0 
L 628 4666 
L 2053 4666 
Q 2853 4666 3247 4331 
Q 3641 3997 3641 3322 
Q 3641 2881 3436 2590 
Q 3231 2300 2841 2188 
z
M 1259 4147 
L 1259 2491 
L 2053 2491 
Q 2509 2491 2742 2702 
Q 2975 2913 2975 3322 
Q 2975 3731 2742 3939 
Q 2509 4147 2053 4147 
L 1259 4147 
z
" transform="scale(0.015625)"/>
       <path id="DejaVuSans-62" d="M 3116 1747 
Q 3116 2381 2855 2742 
Q 2594 3103 2138 3103 
Q 1681 3103 1420 2742 
Q 1159 2381 1159 1747 
Q 1159 1113 1420 752 
Q 1681 391 2138 391 
Q 2594 391 2855 752 
Q 3116 1113 3116 1747 
z
M 1159 2969 
Q 1341 3281 1617 3432 
Q 1894 3584 2278 3584 
Q 2916 3584 3314 3078 
Q 3713 2572 3713 1747 
Q 3713 922 3314 415 
Q 2916 -91 2278 -91 
Q 1894 -91 1617 61 
Q 1341 213 1159 525 
L 1159 0 
L 581 0 
L 581 4863 
L 1159 4863 
L 1159 2969 
z
" transform="scale(0.015625)"/>
      </defs>
      <use xlink:href="#DejaVuSans-52"/>
      <use xlink:href="#DejaVuSans-6f" x="64.982422"/>
      <use xlink:href="#DejaVuSans-62" x="126.164062"/>
      <use xlink:href="#DejaVuSans-75" x="189.640625"/>
      <use xlink:href="#DejaVuSans-73" x="253.019531"/>
      <use xlink:href="#DejaVuSans-74" x="305.119141"/>
      <use xlink:href="#DejaVuSans-20" x="344.328125"/>
      <use xlink:href="#DejaVuSans-56" x="376.115234"/>
      <use xlink:href="#DejaVuSans-61" x="436.773438"/>
      <use xlink:href="#DejaVuSans-6c" x="498.052734"/>
      <use xlink:href="#DejaVuSans-69" x="525.835938"/>
      <use xlink:href="#DejaVuSans-64" x="553.619141"/>
      <use xlink:href="#DejaVuSans-61" x="617.095703"/>
      <use xlink:href="#DejaVuSans-74" x="678.375"/>
      <use xlink:href="#DejaVuSans-69" x="717.583984"/>
      <use xlink:href="#DejaVuSans-6f" x="745.367188"/>
      <use xlink:href="#DejaVuSans-6e" x="806.548828"/>
      <use xlink:href="#DejaVuSans-20" x="869.927734"/>
      <use xlink:href="#DejaVuSans-41" x="901.714844"/>
      <use xlink:href="#DejaVuSans-63" x="968.373047"/>
      <use xlink:href="#DejaVuSans-63" x="1023.353516"/>
      <use xlink:href="#DejaVuSans-75" x="1078.333984"/>
      <use xlink:href="#DejaVuSans-72" x="1141.712891"/>
      <use xlink:href="#DejaVuSans-61" x="1182.826172"/>
      <use xlink:href="#DejaVuSans-63" x="1244.105469"/>
      <use xlink:href="#DejaVuSans-79" x="1299.085938"/>
     </g>
    </g>
    <g id="line2d_25">
     <path d="M 216.18875 278.326188 
L 226.18875 278.326188 
L 236.18875 278.326188 
" style="fill: none; stroke: #d62728; stroke-width: 1.5; stroke-linecap: square"/>
    </g>
    <g id="text_23">
     <!-- SWA Validation Accuracy -->
     <g transform="translate(244.18875 281.826188) scale(0.1 -0.1)">
      <defs>
       <path id="DejaVuSans-53" d="M 3425 4513 
L 3425 3897 
Q 3066 4069 2747 4153 
Q 2428 4238 2131 4238 
Q 1616 4238 1336 4038 
Q 1056 3838 1056 3469 
Q 1056 3159 1242 3001 
Q 1428 2844 1947 2747 
L 2328 2669 
Q 3034 2534 3370 2195 
Q 3706 1856 3706 1288 
Q 3706 609 3251 259 
Q 2797 -91 1919 -91 
Q 1588 -91 1214 -16 
Q 841 59 441 206 
L 441 856 
Q 825 641 1194 531 
Q 1563 422 1919 422 
Q 2459 422 2753 634 
Q 3047 847 3047 1241 
Q 3047 1584 2836 1778 
Q 2625 1972 2144 2069 
L 1759 2144 
Q 1053 2284 737 2584 
Q 422 2884 422 3419 
Q 422 4038 858 4394 
Q 1294 4750 2059 4750 
Q 2388 4750 2728 4690 
Q 3069 4631 3425 4513 
z
" transform="scale(0.015625)"/>
       <path id="DejaVuSans-57" d="M 213 4666 
L 850 4666 
L 1831 722 
L 2809 4666 
L 3519 4666 
L 4500 722 
L 5478 4666 
L 6119 4666 
L 4947 0 
L 4153 0 
L 3169 4050 
L 2175 0 
L 1381 0 
L 213 4666 
z
" transform="scale(0.015625)"/>
      </defs>
      <use xlink:href="#DejaVuSans-53"/>
      <use xlink:href="#DejaVuSans-57" x="63.476562"/>
      <use xlink:href="#DejaVuSans-41" x="156.853516"/>
      <use xlink:href="#DejaVuSans-20" x="225.261719"/>
      <use xlink:href="#DejaVuSans-56" x="257.048828"/>
      <use xlink:href="#DejaVuSans-61" x="317.707031"/>
      <use xlink:href="#DejaVuSans-6c" x="378.986328"/>
      <use xlink:href="#DejaVuSans-69" x="406.769531"/>
      <use xlink:href="#DejaVuSans-64" x="434.552734"/>
      <use xlink:href="#DejaVuSans-61" x="498.029297"/>
      <use xlink:href="#DejaVuSans-74" x="559.308594"/>
      <use xlink:href="#DejaVuSans-69" x="598.517578"/>
      <use xlink:href="#DejaVuSans-6f" x="626.300781"/>
      <use xlink:href="#DejaVuSans-6e" x="687.482422"/>
      <use xlink:href="#DejaVuSans-20" x="750.861328"/>
      <use xlink:href="#DejaVuSans-41" x="782.648438"/>
      <use xlink:href="#DejaVuSans-63" x="849.306641"/>
      <use xlink:href="#DejaVuSans-63" x="904.287109"/>
      <use xlink:href="#DejaVuSans-75" x="959.267578"/>
      <use xlink:href="#DejaVuSans-72" x="1022.646484"/>
      <use xlink:href="#DejaVuSans-61" x="1063.759766"/>
      <use xlink:href="#DejaVuSans-63" x="1125.039062"/>
      <use xlink:href="#DejaVuSans-79" x="1180.019531"/>
     </g>
    </g>
    <g id="line2d_26">
     <path d="M 216.18875 293.004312 
L 226.18875 293.004312 
L 236.18875 293.004312 
" style="fill: none; stroke: #9467bd; stroke-width: 1.5; stroke-linecap: square"/>
    </g>
    <g id="text_24">
     <!-- SWA Robust Validation Accuracy -->
     <g transform="translate(244.18875 296.504312) scale(0.1 -0.1)">
      <use xlink:href="#DejaVuSans-53"/>
      <use xlink:href="#DejaVuSans-57" x="63.476562"/>
      <use xlink:href="#DejaVuSans-41" x="156.853516"/>
      <use xlink:href="#DejaVuSans-20" x="225.261719"/>
      <use xlink:href="#DejaVuSans-52" x="257.048828"/>
      <use xlink:href="#DejaVuSans-6f" x="322.03125"/>
      <use xlink:href="#DejaVuSans-62" x="383.212891"/>
      <use xlink:href="#DejaVuSans-75" x="446.689453"/>
      <use xlink:href="#DejaVuSans-73" x="510.068359"/>
      <use xlink:href="#DejaVuSans-74" x="562.167969"/>
      <use xlink:href="#DejaVuSans-20" x="601.376953"/>
      <use xlink:href="#DejaVuSans-56" x="633.164062"/>
      <use xlink:href="#DejaVuSans-61" x="693.822266"/>
      <use xlink:href="#DejaVuSans-6c" x="755.101562"/>
      <use xlink:href="#DejaVuSans-69" x="782.884766"/>
      <use xlink:href="#DejaVuSans-64" x="810.667969"/>
      <use xlink:href="#DejaVuSans-61" x="874.144531"/>
      <use xlink:href="#DejaVuSans-74" x="935.423828"/>
      <use xlink:href="#DejaVuSans-69" x="974.632812"/>
      <use xlink:href="#DejaVuSans-6f" x="1002.416016"/>
      <use xlink:href="#DejaVuSans-6e" x="1063.597656"/>
      <use xlink:href="#DejaVuSans-20" x="1126.976562"/>
      <use xlink:href="#DejaVuSans-41" x="1158.763672"/>
      <use xlink:href="#DejaVuSans-63" x="1225.421875"/>
      <use xlink:href="#DejaVuSans-63" x="1280.402344"/>
      <use xlink:href="#DejaVuSans-75" x="1335.382812"/>
      <use xlink:href="#DejaVuSans-72" x="1398.761719"/>
      <use xlink:href="#DejaVuSans-61" x="1439.875"/>
      <use xlink:href="#DejaVuSans-63" x="1501.154297"/>
      <use xlink:href="#DejaVuSans-79" x="1556.134766"/>
     </g>
    </g>
   </g>
  </g>
 </g>
 <defs>
  <clipPath id="pe7b8de54ba">
   <rect x="57.6" y="41.472" width="357.12" height="266.112"/>
  </clipPath>
 </defs>
</svg>
