<?xml version="1.0" encoding="utf-8" standalone="no"?>
<!DOCTYPE svg PUBLIC "-//W3C//DTD SVG 1.1//EN"
  "http://www.w3.org/Graphics/SVG/1.1/DTD/svg11.dtd">
<svg xmlns:xlink="http://www.w3.org/1999/xlink" width="460.8pt" height="345.6pt" viewBox="0 0 460.8 345.6" xmlns="http://www.w3.org/2000/svg" version="1.1">
 <metadata>
  <rdf:RDF xmlns:dc="http://purl.org/dc/elements/1.1/" xmlns:cc="http://creativecommons.org/ns#" xmlns:rdf="http://www.w3.org/1999/02/22-rdf-syntax-ns#">
   <cc:Work>
    <dc:type rdf:resource="http://purl.org/dc/dcmitype/StillImage"/>
    <dc:date>2025-06-30T17:21:50.279777</dc:date>
    <dc:format>image/svg+xml</dc:format>
    <dc:creator>
     <cc:Agent>
      <dc:title>Matplotlib v3.9.1, https://matplotlib.org/</dc:title>
     </cc:Agent>
    </dc:creator>
   </cc:Work>
  </rdf:RDF>
 </metadata>
 <defs>
  <style type="text/css">*{stroke-linejoin: round; stroke-linecap: butt}</style>
 </defs>
 <g id="figure_1">
  <g id="patch_1">
   <path d="M 0 345.6 
L 460.8 345.6 
L 460.8 0 
L 0 0 
z
" style="fill: #ffffff"/>
  </g>
  <g id="axes_1">
   <g id="patch_2">
    <path d="M 57.6 307.584 
L 414.72 307.584 
L 414.72 41.472 
L 57.6 41.472 
z
" style="fill: #ffffff"/>
   </g>
   <g id="matplotlib.axis_1">
    <g id="xtick_1">
     <g id="line2d_1">
      <defs>
       <path id="m93917a736e" d="M 0 0 
L 0 3.5 
" style="stroke: #000000; stroke-width: 0.8"/>
      </defs>
      <g>
       <use xlink:href="#m93917a736e" x="73.832727" y="307.584" style="stroke: #000000; stroke-width: 0.8"/>
      </g>
     </g>
     <g id="text_1">
      <!-- 1 -->
      <g transform="translate(70.651477 322.182437) scale(0.1 -0.1)">
       <defs>
        <path id="DejaVuSans-31" d="M 794 531 
L 1825 531 
L 1825 4091 
L 703 3866 
L 703 4441 
L 1819 4666 
L 2450 4666 
L 2450 531 
L 3481 531 
L 3481 0 
L 794 0 
L 794 531 
z
" transform="scale(0.015625)"/>
       </defs>
       <use xlink:href="#DejaVuSans-31"/>
      </g>
     </g>
    </g>
    <g id="xtick_2">
     <g id="line2d_2">
      <g>
       <use xlink:href="#m93917a736e" x="109.664165" y="307.584" style="stroke: #000000; stroke-width: 0.8"/>
      </g>
     </g>
     <g id="text_2">
      <!-- 34 -->
      <g transform="translate(103.301665 322.182437) scale(0.1 -0.1)">
       <defs>
        <path id="DejaVuSans-33" d="M 2597 2516 
Q 3050 2419 3304 2112 
Q 3559 1806 3559 1356 
Q 3559 666 3084 287 
Q 2609 -91 1734 -91 
Q 1441 -91 1130 -33 
Q 819 25 488 141 
L 488 750 
Q 750 597 1062 519 
Q 1375 441 1716 441 
Q 2309 441 2620 675 
Q 2931 909 2931 1356 
Q 2931 1769 2642 2001 
Q 2353 2234 1838 2234 
L 1294 2234 
L 1294 2753 
L 1863 2753 
Q 2328 2753 2575 2939 
Q 2822 3125 2822 3475 
Q 2822 3834 2567 4026 
Q 2313 4219 1838 4219 
Q 1578 4219 1281 4162 
Q 984 4106 628 3988 
L 628 4550 
Q 988 4650 1302 4700 
Q 1616 4750 1894 4750 
Q 2613 4750 3031 4423 
Q 3450 4097 3450 3541 
Q 3450 3153 3228 2886 
Q 3006 2619 2597 2516 
z
" transform="scale(0.015625)"/>
        <path id="DejaVuSans-34" d="M 2419 4116 
L 825 1625 
L 2419 1625 
L 2419 4116 
z
M 2253 4666 
L 3047 4666 
L 3047 1625 
L 3713 1625 
L 3713 1100 
L 3047 1100 
L 3047 0 
L 2419 0 
L 2419 1100 
L 313 1100 
L 313 1709 
L 2253 4666 
z
" transform="scale(0.015625)"/>
       </defs>
       <use xlink:href="#DejaVuSans-33"/>
       <use xlink:href="#DejaVuSans-34" x="63.623047"/>
      </g>
     </g>
    </g>
    <g id="xtick_3">
     <g id="line2d_3">
      <g>
       <use xlink:href="#m93917a736e" x="145.495604" y="307.584" style="stroke: #000000; stroke-width: 0.8"/>
      </g>
     </g>
     <g id="text_3">
      <!-- 67 -->
      <g transform="translate(139.133104 322.182437) scale(0.1 -0.1)">
       <defs>
        <path id="DejaVuSans-36" d="M 2113 2584 
Q 1688 2584 1439 2293 
Q 1191 2003 1191 1497 
Q 1191 994 1439 701 
Q 1688 409 2113 409 
Q 2538 409 2786 701 
Q 3034 994 3034 1497 
Q 3034 2003 2786 2293 
Q 2538 2584 2113 2584 
z
M 3366 4563 
L 3366 3988 
Q 3128 4100 2886 4159 
Q 2644 4219 2406 4219 
Q 1781 4219 1451 3797 
Q 1122 3375 1075 2522 
Q 1259 2794 1537 2939 
Q 1816 3084 2150 3084 
Q 2853 3084 3261 2657 
Q 3669 2231 3669 1497 
Q 3669 778 3244 343 
Q 2819 -91 2113 -91 
Q 1303 -91 875 529 
Q 447 1150 447 2328 
Q 447 3434 972 4092 
Q 1497 4750 2381 4750 
Q 2619 4750 2861 4703 
Q 3103 4656 3366 4563 
z
" transform="scale(0.015625)"/>
        <path id="DejaVuSans-37" d="M 525 4666 
L 3525 4666 
L 3525 4397 
L 1831 0 
L 1172 0 
L 2766 4134 
L 525 4134 
L 525 4666 
z
" transform="scale(0.015625)"/>
       </defs>
       <use xlink:href="#DejaVuSans-36"/>
       <use xlink:href="#DejaVuSans-37" x="63.623047"/>
      </g>
     </g>
    </g>
    <g id="xtick_4">
     <g id="line2d_4">
      <g>
       <use xlink:href="#m93917a736e" x="181.327042" y="307.584" style="stroke: #000000; stroke-width: 0.8"/>
      </g>
     </g>
     <g id="text_4">
      <!-- 100 -->
      <g transform="translate(171.783292 322.182437) scale(0.1 -0.1)">
       <defs>
        <path id="DejaVuSans-30" d="M 2034 4250 
Q 1547 4250 1301 3770 
Q 1056 3291 1056 2328 
Q 1056 1369 1301 889 
Q 1547 409 2034 409 
Q 2525 409 2770 889 
Q 3016 1369 3016 2328 
Q 3016 3291 2770 3770 
Q 2525 4250 2034 4250 
z
M 2034 4750 
Q 2819 4750 3233 4129 
Q 3647 3509 3647 2328 
Q 3647 1150 3233 529 
Q 2819 -91 2034 -91 
Q 1250 -91 836 529 
Q 422 1150 422 2328 
Q 422 3509 836 4129 
Q 1250 4750 2034 4750 
z
" transform="scale(0.015625)"/>
       </defs>
       <use xlink:href="#DejaVuSans-31"/>
       <use xlink:href="#DejaVuSans-30" x="63.623047"/>
       <use xlink:href="#DejaVuSans-30" x="127.246094"/>
      </g>
     </g>
    </g>
    <g id="xtick_5">
     <g id="line2d_5">
      <g>
       <use xlink:href="#m93917a736e" x="217.15848" y="307.584" style="stroke: #000000; stroke-width: 0.8"/>
      </g>
     </g>
     <g id="text_5">
      <!-- 133 -->
      <g transform="translate(207.61473 322.182437) scale(0.1 -0.1)">
       <use xlink:href="#DejaVuSans-31"/>
       <use xlink:href="#DejaVuSans-33" x="63.623047"/>
       <use xlink:href="#DejaVuSans-33" x="127.246094"/>
      </g>
     </g>
    </g>
    <g id="xtick_6">
     <g id="line2d_6">
      <g>
       <use xlink:href="#m93917a736e" x="254.075719" y="307.584" style="stroke: #000000; stroke-width: 0.8"/>
      </g>
     </g>
     <g id="text_6">
      <!-- 167 -->
      <g transform="translate(244.531969 322.182437) scale(0.1 -0.1)">
       <use xlink:href="#DejaVuSans-31"/>
       <use xlink:href="#DejaVuSans-36" x="63.623047"/>
       <use xlink:href="#DejaVuSans-37" x="127.246094"/>
      </g>
     </g>
    </g>
    <g id="xtick_7">
     <g id="line2d_7">
      <g>
       <use xlink:href="#m93917a736e" x="289.907157" y="307.584" style="stroke: #000000; stroke-width: 0.8"/>
      </g>
     </g>
     <g id="text_7">
      <!-- 200 -->
      <g transform="translate(280.363407 322.182437) scale(0.1 -0.1)">
       <defs>
        <path id="DejaVuSans-32" d="M 1228 531 
L 3431 531 
L 3431 0 
L 469 0 
L 469 531 
Q 828 903 1448 1529 
Q 2069 2156 2228 2338 
Q 2531 2678 2651 2914 
Q 2772 3150 2772 3378 
Q 2772 3750 2511 3984 
Q 2250 4219 1831 4219 
Q 1534 4219 1204 4116 
Q 875 4013 500 3803 
L 500 4441 
Q 881 4594 1212 4672 
Q 1544 4750 1819 4750 
Q 2544 4750 2975 4387 
Q 3406 4025 3406 3419 
Q 3406 3131 3298 2873 
Q 3191 2616 2906 2266 
Q 2828 2175 2409 1742 
Q 1991 1309 1228 531 
z
" transform="scale(0.015625)"/>
       </defs>
       <use xlink:href="#DejaVuSans-32"/>
       <use xlink:href="#DejaVuSans-30" x="63.623047"/>
       <use xlink:href="#DejaVuSans-30" x="127.246094"/>
      </g>
     </g>
    </g>
    <g id="xtick_8">
     <g id="line2d_8">
      <g>
       <use xlink:href="#m93917a736e" x="325.738595" y="307.584" style="stroke: #000000; stroke-width: 0.8"/>
      </g>
     </g>
     <g id="text_8">
      <!-- 233 -->
      <g transform="translate(316.194845 322.182437) scale(0.1 -0.1)">
       <use xlink:href="#DejaVuSans-32"/>
       <use xlink:href="#DejaVuSans-33" x="63.623047"/>
       <use xlink:href="#DejaVuSans-33" x="127.246094"/>
      </g>
     </g>
    </g>
    <g id="xtick_9">
     <g id="line2d_9">
      <g>
       <use xlink:href="#m93917a736e" x="361.570033" y="307.584" style="stroke: #000000; stroke-width: 0.8"/>
      </g>
     </g>
     <g id="text_9">
      <!-- 266 -->
      <g transform="translate(352.026283 322.182437) scale(0.1 -0.1)">
       <use xlink:href="#DejaVuSans-32"/>
       <use xlink:href="#DejaVuSans-36" x="63.623047"/>
       <use xlink:href="#DejaVuSans-36" x="127.246094"/>
      </g>
     </g>
    </g>
    <g id="xtick_10">
     <g id="line2d_10">
      <g>
       <use xlink:href="#m93917a736e" x="398.487273" y="307.584" style="stroke: #000000; stroke-width: 0.8"/>
      </g>
     </g>
     <g id="text_10">
      <!-- 300 -->
      <g transform="translate(388.943523 322.182437) scale(0.1 -0.1)">
       <use xlink:href="#DejaVuSans-33"/>
       <use xlink:href="#DejaVuSans-30" x="63.623047"/>
       <use xlink:href="#DejaVuSans-30" x="127.246094"/>
      </g>
     </g>
    </g>
    <g id="text_11">
     <!-- Epochs -->
     <g transform="translate(218.244375 335.860562) scale(0.1 -0.1)">
      <defs>
       <path id="DejaVuSans-45" d="M 628 4666 
L 3578 4666 
L 3578 4134 
L 1259 4134 
L 1259 2753 
L 3481 2753 
L 3481 2222 
L 1259 2222 
L 1259 531 
L 3634 531 
L 3634 0 
L 628 0 
L 628 4666 
z
" transform="scale(0.015625)"/>
       <path id="DejaVuSans-70" d="M 1159 525 
L 1159 -1331 
L 581 -1331 
L 581 3500 
L 1159 3500 
L 1159 2969 
Q 1341 3281 1617 3432 
Q 1894 3584 2278 3584 
Q 2916 3584 3314 3078 
Q 3713 2572 3713 1747 
Q 3713 922 3314 415 
Q 2916 -91 2278 -91 
Q 1894 -91 1617 61 
Q 1341 213 1159 525 
z
M 3116 1747 
Q 3116 2381 2855 2742 
Q 2594 3103 2138 3103 
Q 1681 3103 1420 2742 
Q 1159 2381 1159 1747 
Q 1159 1113 1420 752 
Q 1681 391 2138 391 
Q 2594 391 2855 752 
Q 3116 1113 3116 1747 
z
" transform="scale(0.015625)"/>
       <path id="DejaVuSans-6f" d="M 1959 3097 
Q 1497 3097 1228 2736 
Q 959 2375 959 1747 
Q 959 1119 1226 758 
Q 1494 397 1959 397 
Q 2419 397 2687 759 
Q 2956 1122 2956 1747 
Q 2956 2369 2687 2733 
Q 2419 3097 1959 3097 
z
M 1959 3584 
Q 2709 3584 3137 3096 
Q 3566 2609 3566 1747 
Q 3566 888 3137 398 
Q 2709 -91 1959 -91 
Q 1206 -91 779 398 
Q 353 888 353 1747 
Q 353 2609 779 3096 
Q 1206 3584 1959 3584 
z
" transform="scale(0.015625)"/>
       <path id="DejaVuSans-63" d="M 3122 3366 
L 3122 2828 
Q 2878 2963 2633 3030 
Q 2388 3097 2138 3097 
Q 1578 3097 1268 2742 
Q 959 2388 959 1747 
Q 959 1106 1268 751 
Q 1578 397 2138 397 
Q 2388 397 2633 464 
Q 2878 531 3122 666 
L 3122 134 
Q 2881 22 2623 -34 
Q 2366 -91 2075 -91 
Q 1284 -91 818 406 
Q 353 903 353 1747 
Q 353 2603 823 3093 
Q 1294 3584 2113 3584 
Q 2378 3584 2631 3529 
Q 2884 3475 3122 3366 
z
" transform="scale(0.015625)"/>
       <path id="DejaVuSans-68" d="M 3513 2113 
L 3513 0 
L 2938 0 
L 2938 2094 
Q 2938 2591 2744 2837 
Q 2550 3084 2163 3084 
Q 1697 3084 1428 2787 
Q 1159 2491 1159 1978 
L 1159 0 
L 581 0 
L 581 4863 
L 1159 4863 
L 1159 2956 
Q 1366 3272 1645 3428 
Q 1925 3584 2291 3584 
Q 2894 3584 3203 3211 
Q 3513 2838 3513 2113 
z
" transform="scale(0.015625)"/>
       <path id="DejaVuSans-73" d="M 2834 3397 
L 2834 2853 
Q 2591 2978 2328 3040 
Q 2066 3103 1784 3103 
Q 1356 3103 1142 2972 
Q 928 2841 928 2578 
Q 928 2378 1081 2264 
Q 1234 2150 1697 2047 
L 1894 2003 
Q 2506 1872 2764 1633 
Q 3022 1394 3022 966 
Q 3022 478 2636 193 
Q 2250 -91 1575 -91 
Q 1294 -91 989 -36 
Q 684 19 347 128 
L 347 722 
Q 666 556 975 473 
Q 1284 391 1588 391 
Q 1994 391 2212 530 
Q 2431 669 2431 922 
Q 2431 1156 2273 1281 
Q 2116 1406 1581 1522 
L 1381 1569 
Q 847 1681 609 1914 
Q 372 2147 372 2553 
Q 372 3047 722 3315 
Q 1072 3584 1716 3584 
Q 2034 3584 2315 3537 
Q 2597 3491 2834 3397 
z
" transform="scale(0.015625)"/>
      </defs>
      <use xlink:href="#DejaVuSans-45"/>
      <use xlink:href="#DejaVuSans-70" x="63.183594"/>
      <use xlink:href="#DejaVuSans-6f" x="126.660156"/>
      <use xlink:href="#DejaVuSans-63" x="187.841797"/>
      <use xlink:href="#DejaVuSans-68" x="242.822266"/>
      <use xlink:href="#DejaVuSans-73" x="306.201172"/>
     </g>
    </g>
   </g>
   <g id="matplotlib.axis_2">
    <g id="ytick_1">
     <g id="line2d_11">
      <defs>
       <path id="m7d317644e1" d="M 0 0 
L -3.5 0 
" style="stroke: #000000; stroke-width: 0.8"/>
      </defs>
      <g>
       <use xlink:href="#m7d317644e1" x="57.6" y="288.130389" style="stroke: #000000; stroke-width: 0.8"/>
      </g>
     </g>
     <g id="text_12">
      <!-- 30 -->
      <g transform="translate(37.875 291.929608) scale(0.1 -0.1)">
       <use xlink:href="#DejaVuSans-33"/>
       <use xlink:href="#DejaVuSans-30" x="63.623047"/>
      </g>
     </g>
    </g>
    <g id="ytick_2">
     <g id="line2d_12">
      <g>
       <use xlink:href="#m7d317644e1" x="57.6" y="252.88435" style="stroke: #000000; stroke-width: 0.8"/>
      </g>
     </g>
     <g id="text_13">
      <!-- 40 -->
      <g transform="translate(37.875 256.683569) scale(0.1 -0.1)">
       <use xlink:href="#DejaVuSans-34"/>
       <use xlink:href="#DejaVuSans-30" x="63.623047"/>
      </g>
     </g>
    </g>
    <g id="ytick_3">
     <g id="line2d_13">
      <g>
       <use xlink:href="#m7d317644e1" x="57.6" y="217.638311" style="stroke: #000000; stroke-width: 0.8"/>
      </g>
     </g>
     <g id="text_14">
      <!-- 50 -->
      <g transform="translate(37.875 221.43753) scale(0.1 -0.1)">
       <defs>
        <path id="DejaVuSans-35" d="M 691 4666 
L 3169 4666 
L 3169 4134 
L 1269 4134 
L 1269 2991 
Q 1406 3038 1543 3061 
Q 1681 3084 1819 3084 
Q 2600 3084 3056 2656 
Q 3513 2228 3513 1497 
Q 3513 744 3044 326 
Q 2575 -91 1722 -91 
Q 1428 -91 1123 -41 
Q 819 9 494 109 
L 494 744 
Q 775 591 1075 516 
Q 1375 441 1709 441 
Q 2250 441 2565 725 
Q 2881 1009 2881 1497 
Q 2881 1984 2565 2268 
Q 2250 2553 1709 2553 
Q 1456 2553 1204 2497 
Q 953 2441 691 2322 
L 691 4666 
z
" transform="scale(0.015625)"/>
       </defs>
       <use xlink:href="#DejaVuSans-35"/>
       <use xlink:href="#DejaVuSans-30" x="63.623047"/>
      </g>
     </g>
    </g>
    <g id="ytick_4">
     <g id="line2d_14">
      <g>
       <use xlink:href="#m7d317644e1" x="57.6" y="182.392272" style="stroke: #000000; stroke-width: 0.8"/>
      </g>
     </g>
     <g id="text_15">
      <!-- 60 -->
      <g transform="translate(37.875 186.191491) scale(0.1 -0.1)">
       <use xlink:href="#DejaVuSans-36"/>
       <use xlink:href="#DejaVuSans-30" x="63.623047"/>
      </g>
     </g>
    </g>
    <g id="ytick_5">
     <g id="line2d_15">
      <g>
       <use xlink:href="#m7d317644e1" x="57.6" y="147.146233" style="stroke: #000000; stroke-width: 0.8"/>
      </g>
     </g>
     <g id="text_16">
      <!-- 70 -->
      <g transform="translate(37.875 150.945452) scale(0.1 -0.1)">
       <use xlink:href="#DejaVuSans-37"/>
       <use xlink:href="#DejaVuSans-30" x="63.623047"/>
      </g>
     </g>
    </g>
    <g id="ytick_6">
     <g id="line2d_16">
      <g>
       <use xlink:href="#m7d317644e1" x="57.6" y="111.900195" style="stroke: #000000; stroke-width: 0.8"/>
      </g>
     </g>
     <g id="text_17">
      <!-- 80 -->
      <g transform="translate(37.875 115.699413) scale(0.1 -0.1)">
       <defs>
        <path id="DejaVuSans-38" d="M 2034 2216 
Q 1584 2216 1326 1975 
Q 1069 1734 1069 1313 
Q 1069 891 1326 650 
Q 1584 409 2034 409 
Q 2484 409 2743 651 
Q 3003 894 3003 1313 
Q 3003 1734 2745 1975 
Q 2488 2216 2034 2216 
z
M 1403 2484 
Q 997 2584 770 2862 
Q 544 3141 544 3541 
Q 544 4100 942 4425 
Q 1341 4750 2034 4750 
Q 2731 4750 3128 4425 
Q 3525 4100 3525 3541 
Q 3525 3141 3298 2862 
Q 3072 2584 2669 2484 
Q 3125 2378 3379 2068 
Q 3634 1759 3634 1313 
Q 3634 634 3220 271 
Q 2806 -91 2034 -91 
Q 1263 -91 848 271 
Q 434 634 434 1313 
Q 434 1759 690 2068 
Q 947 2378 1403 2484 
z
M 1172 3481 
Q 1172 3119 1398 2916 
Q 1625 2713 2034 2713 
Q 2441 2713 2670 2916 
Q 2900 3119 2900 3481 
Q 2900 3844 2670 4047 
Q 2441 4250 2034 4250 
Q 1625 4250 1398 4047 
Q 1172 3844 1172 3481 
z
" transform="scale(0.015625)"/>
       </defs>
       <use xlink:href="#DejaVuSans-38"/>
       <use xlink:href="#DejaVuSans-30" x="63.623047"/>
      </g>
     </g>
    </g>
    <g id="ytick_7">
     <g id="line2d_17">
      <g>
       <use xlink:href="#m7d317644e1" x="57.6" y="76.654156" style="stroke: #000000; stroke-width: 0.8"/>
      </g>
     </g>
     <g id="text_18">
      <!-- 90 -->
      <g transform="translate(37.875 80.453374) scale(0.1 -0.1)">
       <defs>
        <path id="DejaVuSans-39" d="M 703 97 
L 703 672 
Q 941 559 1184 500 
Q 1428 441 1663 441 
Q 2288 441 2617 861 
Q 2947 1281 2994 2138 
Q 2813 1869 2534 1725 
Q 2256 1581 1919 1581 
Q 1219 1581 811 2004 
Q 403 2428 403 3163 
Q 403 3881 828 4315 
Q 1253 4750 1959 4750 
Q 2769 4750 3195 4129 
Q 3622 3509 3622 2328 
Q 3622 1225 3098 567 
Q 2575 -91 1691 -91 
Q 1453 -91 1209 -44 
Q 966 3 703 97 
z
M 1959 2075 
Q 2384 2075 2632 2365 
Q 2881 2656 2881 3163 
Q 2881 3666 2632 3958 
Q 2384 4250 1959 4250 
Q 1534 4250 1286 3958 
Q 1038 3666 1038 3163 
Q 1038 2656 1286 2365 
Q 1534 2075 1959 2075 
z
" transform="scale(0.015625)"/>
       </defs>
       <use xlink:href="#DejaVuSans-39"/>
       <use xlink:href="#DejaVuSans-30" x="63.623047"/>
      </g>
     </g>
    </g>
    <g id="text_19">
     <!-- Accuracy -->
     <g transform="translate(31.795312 197.356125) rotate(-90) scale(0.1 -0.1)">
      <defs>
       <path id="DejaVuSans-41" d="M 2188 4044 
L 1331 1722 
L 3047 1722 
L 2188 4044 
z
M 1831 4666 
L 2547 4666 
L 4325 0 
L 3669 0 
L 3244 1197 
L 1141 1197 
L 716 0 
L 50 0 
L 1831 4666 
z
" transform="scale(0.015625)"/>
       <path id="DejaVuSans-75" d="M 544 1381 
L 544 3500 
L 1119 3500 
L 1119 1403 
Q 1119 906 1312 657 
Q 1506 409 1894 409 
Q 2359 409 2629 706 
Q 2900 1003 2900 1516 
L 2900 3500 
L 3475 3500 
L 3475 0 
L 2900 0 
L 2900 538 
Q 2691 219 2414 64 
Q 2138 -91 1772 -91 
Q 1169 -91 856 284 
Q 544 659 544 1381 
z
M 1991 3584 
L 1991 3584 
z
" transform="scale(0.015625)"/>
       <path id="DejaVuSans-72" d="M 2631 2963 
Q 2534 3019 2420 3045 
Q 2306 3072 2169 3072 
Q 1681 3072 1420 2755 
Q 1159 2438 1159 1844 
L 1159 0 
L 581 0 
L 581 3500 
L 1159 3500 
L 1159 2956 
Q 1341 3275 1631 3429 
Q 1922 3584 2338 3584 
Q 2397 3584 2469 3576 
Q 2541 3569 2628 3553 
L 2631 2963 
z
" transform="scale(0.015625)"/>
       <path id="DejaVuSans-61" d="M 2194 1759 
Q 1497 1759 1228 1600 
Q 959 1441 959 1056 
Q 959 750 1161 570 
Q 1363 391 1709 391 
Q 2188 391 2477 730 
Q 2766 1069 2766 1631 
L 2766 1759 
L 2194 1759 
z
M 3341 1997 
L 3341 0 
L 2766 0 
L 2766 531 
Q 2569 213 2275 61 
Q 1981 -91 1556 -91 
Q 1019 -91 701 211 
Q 384 513 384 1019 
Q 384 1609 779 1909 
Q 1175 2209 1959 2209 
L 2766 2209 
L 2766 2266 
Q 2766 2663 2505 2880 
Q 2244 3097 1772 3097 
Q 1472 3097 1187 3025 
Q 903 2953 641 2809 
L 641 3341 
Q 956 3463 1253 3523 
Q 1550 3584 1831 3584 
Q 2591 3584 2966 3190 
Q 3341 2797 3341 1997 
z
" transform="scale(0.015625)"/>
       <path id="DejaVuSans-79" d="M 2059 -325 
Q 1816 -950 1584 -1140 
Q 1353 -1331 966 -1331 
L 506 -1331 
L 506 -850 
L 844 -850 
Q 1081 -850 1212 -737 
Q 1344 -625 1503 -206 
L 1606 56 
L 191 3500 
L 800 3500 
L 1894 763 
L 2988 3500 
L 3597 3500 
L 2059 -325 
z
" transform="scale(0.015625)"/>
      </defs>
      <use xlink:href="#DejaVuSans-41"/>
      <use xlink:href="#DejaVuSans-63" x="66.658203"/>
      <use xlink:href="#DejaVuSans-63" x="121.638672"/>
      <use xlink:href="#DejaVuSans-75" x="176.619141"/>
      <use xlink:href="#DejaVuSans-72" x="239.998047"/>
      <use xlink:href="#DejaVuSans-61" x="281.111328"/>
      <use xlink:href="#DejaVuSans-63" x="342.390625"/>
      <use xlink:href="#DejaVuSans-79" x="397.371094"/>
     </g>
    </g>
   </g>
   <g id="line2d_18">
    <path d="M 73.832727 295.488 
L 74.918528 236.494942 
L 76.00433 209.020655 
L 77.090131 189.432669 
L 78.175932 178.259674 
L 81.433335 156.327827 
L 82.519137 153.146872 
L 84.690739 143.022447 
L 85.77654 140.264444 
L 89.033943 130.281004 
L 90.119745 127.487755 
L 91.205546 125.41705 
L 92.291347 123.77811 
L 93.377148 121.698593 
L 94.462949 120.791008 
L 95.54875 143.445399 
L 96.634552 144.952168 
L 97.720353 143.445399 
L 98.806154 141.392318 
L 99.891955 137.03062 
L 100.977756 135.45336 
L 102.063557 134.34311 
L 103.149358 132.228347 
L 104.23516 130.457234 
L 105.320961 129.73469 
L 106.406762 128.668498 
L 107.492563 127.232221 
L 108.578364 126.809269 
L 109.664165 123.152492 
L 110.749967 124.624015 
L 111.835768 120.729327 
L 112.921569 121.134657 
L 114.00737 118.870099 
L 115.093171 118.447146 
L 116.178972 116.940378 
L 117.264773 115.847751 
L 118.350575 113.838727 
L 119.436376 113.821104 
L 120.522177 112.895895 
L 121.607978 111.089536 
L 122.693779 108.992396 
L 123.77958 108.851412 
L 124.865382 107.291775 
L 127.036984 106.357755 
L 128.122785 104.842175 
L 129.208586 103.132742 
L 130.294387 102.938889 
L 131.380189 101.097284 
L 132.46599 99.801992 
L 133.551791 100.26019 
L 134.637592 98.515511 
L 135.723393 100.392363 
L 136.809194 99.511212 
L 137.894995 100.418797 
L 138.980797 121.804331 
L 140.066598 123.02032 
L 141.152399 123.117246 
L 142.2382 121.804331 
L 143.324001 119.619077 
L 144.409802 120.702893 
L 145.495604 121.231583 
L 146.581405 118.949402 
L 147.667206 118.773172 
L 148.753007 118.156366 
L 149.838808 117.389765 
L 150.924609 116.438122 
L 152.01041 116.83464 
L 153.096212 114.667009 
L 154.182013 115.733201 
L 155.267814 114.61414 
L 156.353615 114.429098 
L 157.439416 113.979711 
L 158.525217 112.420074 
L 160.69682 112.094048 
L 161.782621 111.635849 
L 163.954223 112.261466 
L 165.040024 111.160028 
L 166.125825 109.124569 
L 167.211627 109.591579 
L 169.383229 107.520874 
L 170.46903 107.538497 
L 171.554831 108.084811 
L 172.640632 106.692592 
L 173.726434 107.080299 
L 174.812235 106.252017 
L 175.898036 105.996483 
L 176.983837 104.798118 
L 178.069638 104.198935 
L 179.155439 104.798118 
L 180.24124 104.569018 
L 181.327042 103.291349 
L 182.412843 103.326596 
L 183.498644 102.286837 
L 184.584445 101.749335 
L 185.670246 101.502613 
L 186.756047 100.401174 
L 187.841849 100.586216 
L 190.013451 98.515511 
L 191.099252 98.365716 
L 192.185053 97.986821 
L 193.270854 96.286199 
L 194.356656 97.123293 
L 195.442457 96.515298 
L 196.528258 95.607713 
L 197.614059 95.246441 
L 198.69986 94.752997 
L 199.785661 93.933526 
L 201.957264 93.193359 
L 203.043065 93.008318 
L 204.128866 92.629423 
L 205.214667 91.924502 
L 206.300468 90.505849 
L 207.386269 90.567529 
L 208.472071 90.497037 
L 209.557872 88.928589 
L 210.643673 89.245803 
L 211.729474 89.325107 
L 212.815275 89.58064 
L 213.901076 88.558505 
L 214.986877 88.778793 
L 216.072679 88.073872 
L 217.15848 88.76117 
L 218.244281 88.558505 
L 219.330082 88.100307 
L 220.415883 88.126741 
L 221.501684 88.743547 
L 222.587486 87.307271 
L 223.673287 87.509936 
L 224.759088 87.562805 
L 225.844889 109.811867 
L 226.93069 111.838514 
L 228.016491 110.886871 
L 230.188094 111.353881 
L 231.273895 110.684206 
L 232.359696 110.164327 
L 233.445497 109.776621 
L 234.531298 110.349369 
L 235.617099 109.212684 
L 236.702901 109.996908 
L 237.788702 108.120057 
L 238.874503 108.305099 
L 239.960304 109.151003 
L 241.046105 108.084811 
L 242.131906 108.208172 
L 243.217708 107.926204 
L 244.303509 108.683993 
L 245.38931 107.908581 
L 246.475111 107.309398 
L 247.560912 105.529473 
L 249.732514 106.472304 
L 250.818316 107.256529 
L 251.904117 105.80263 
L 252.989918 105.168201 
L 254.075719 105.635211 
L 256.247321 104.815741 
L 257.333123 105.785007 
L 258.418924 105.04484 
L 259.504725 105.212259 
L 260.590526 104.331108 
L 261.676327 104.339919 
L 262.762128 103.626187 
L 263.847929 104.445657 
L 264.933731 103.361842 
L 266.019532 104.084385 
L 267.105333 104.022705 
L 268.191134 103.608564 
L 269.276935 103.916967 
L 270.362736 102.551183 
L 271.448538 101.811016 
L 273.62014 102.251591 
L 274.705941 101.476178 
L 275.791742 102.841962 
L 276.877543 101.035603 
L 277.963344 100.330682 
L 279.049146 101.502613 
L 280.134947 101.625974 
L 281.220748 101.097284 
L 282.306549 99.960599 
L 283.39235 99.705065 
L 284.478151 100.022279 
L 285.563953 100.498101 
L 286.649754 99.352605 
L 287.735555 100.154452 
L 289.907157 99.158751 
L 290.992958 99.238055 
L 292.07876 99.493589 
L 294.250362 97.026366 
L 295.336163 97.933952 
L 296.421964 97.828213 
L 297.507765 99.088259 
L 298.593566 97.933952 
L 299.679368 97.475753 
L 301.85097 97.57268 
L 302.936771 95.563655 
L 304.022572 97.352392 
L 305.108373 95.572467 
L 306.194175 96.999932 
L 307.279976 96.312634 
L 308.365777 97.061612 
L 310.537379 95.272876 
L 311.62318 93.907092 
L 312.708981 94.153814 
L 313.794783 93.325532 
L 314.880584 94.162625 
L 315.966385 92.920203 
L 317.052186 92.770407 
L 318.137987 92.937826 
L 319.223788 94.523897 
L 320.30959 92.03024 
L 321.395391 92.003805 
L 322.481192 91.290073 
L 323.566993 92.338643 
L 324.652794 91.704214 
L 325.738595 90.928801 
L 326.824396 91.44868 
L 327.910198 90.329619 
L 328.995999 90.708514 
L 330.0818 91.422246 
L 331.167601 90.188634 
L 332.253402 90.549906 
L 333.339203 90.638021 
L 334.425005 89.950724 
L 335.510806 88.708301 
L 336.596607 89.22818 
L 337.682408 88.866908 
L 338.768209 88.849285 
L 339.85401 88.232479 
L 340.939811 88.082684 
L 343.111414 88.161987 
L 344.197215 86.928376 
L 345.283016 87.545182 
L 346.368817 87.42182 
L 347.454618 86.646408 
L 348.54042 86.540669 
L 349.626221 85.624272 
L 350.712022 86.655219 
L 351.797823 85.166074 
L 353.969425 84.487588 
L 355.055227 85.122016 
L 358.31263 83.606437 
L 359.398431 84.284923 
L 360.484232 83.782667 
L 361.570033 82.610736 
L 362.655835 82.57549 
L 363.741636 82.231841 
L 364.827437 82.425694 
L 365.913238 82.822212 
L 366.999039 81.148025 
L 368.08484 82.258276 
L 369.170642 83.765044 
L 370.256443 83.095369 
L 371.342244 83.844347 
L 373.513846 84.390661 
L 374.599647 84.082258 
L 375.685448 85.818126 
L 376.77125 85.157262 
L 377.857051 86.170586 
L 378.942852 84.126316 
L 381.114454 86.42612 
L 382.200255 85.500911 
L 383.286057 85.095582 
L 384.371858 85.368739 
L 386.54346 85.033901 
L 388.715062 85.20132 
L 389.800863 84.936975 
L 390.886665 85.641895 
L 391.972466 84.44353 
L 393.058267 85.474477 
L 394.144068 85.166074 
L 395.229869 84.716687 
L 396.31567 84.469965 
L 397.401472 84.831237 
L 398.487273 85.069147 
L 398.487273 85.069147 
" clip-path="url(#p6e71336a9b)" style="fill: none; stroke: #1f77b4; stroke-width: 1.5; stroke-linecap: square"/>
   </g>
   <g id="line2d_19">
    <path d="M 73.832727 236.212974 
L 76.00433 170.902064 
L 77.090131 143.656876 
L 78.175932 152.997076 
L 79.261733 131.003548 
L 80.347534 115.706767 
L 81.433335 106.719027 
L 82.519137 106.33132 
L 83.604938 96.286199 
L 84.690739 93.501762 
L 86.862341 90.223881 
L 87.948142 86.734523 
L 89.033943 83.703363 
L 90.119745 81.518109 
L 91.205546 81.447617 
L 93.377148 78.733672 
L 94.462949 78.310719 
L 95.54875 97.16735 
L 96.634552 99.000144 
L 97.720353 97.872271 
L 99.891955 92.479627 
L 100.977756 95.828001 
L 102.063557 90.223881 
L 103.149358 88.814039 
L 104.23516 87.862396 
L 105.320961 84.196808 
L 106.406762 85.994356 
L 107.492563 84.09107 
L 108.578364 82.469752 
L 109.664165 85.853372 
L 110.749967 79.473839 
L 111.835768 76.195957 
L 112.921569 78.275473 
L 114.00737 74.9271 
L 115.093171 76.513171 
L 116.178972 75.843497 
L 117.264773 75.667266 
L 118.350575 75.808251 
L 119.436376 70.873805 
L 120.522177 71.261512 
L 121.607978 70.345115 
L 122.693779 67.877892 
L 123.77958 69.217241 
L 124.865382 68.195106 
L 125.951183 67.454939 
L 127.036984 67.313955 
L 128.122785 66.256574 
L 130.294387 64.529518 
L 131.380189 64.494272 
L 132.46599 63.472137 
L 133.551791 63.119677 
L 134.637592 63.295907 
L 135.723393 62.978692 
L 136.809194 62.837708 
L 137.894995 63.119677 
L 138.980797 81.200895 
L 140.066598 82.681228 
L 141.152399 79.19187 
L 142.2382 77.535307 
L 143.324001 78.522196 
L 144.409802 77.570553 
L 145.495604 75.949235 
L 146.581405 81.05991 
L 147.667206 78.768918 
L 148.753007 73.41152 
L 149.838808 76.477925 
L 150.924609 76.231203 
L 152.01041 77.429568 
L 153.096212 73.023814 
L 154.182013 75.63202 
L 155.267814 74.9271 
L 156.353615 72.495123 
L 157.439416 73.517258 
L 158.525217 73.728734 
L 159.611019 76.160711 
L 160.69682 73.975457 
L 161.782621 74.116441 
L 162.868422 71.649218 
L 163.954223 71.754956 
L 165.040024 68.759043 
L 166.125825 69.922162 
L 167.211627 70.909051 
L 168.297428 67.8074 
L 169.383229 70.662329 
L 170.46903 69.252487 
L 171.554831 69.076257 
L 172.640632 69.146749 
L 173.726434 69.569702 
L 174.812235 68.15986 
L 176.983837 66.820511 
L 178.069638 66.750019 
L 179.155439 69.781178 
L 180.24124 71.120527 
L 181.327042 66.150836 
L 182.412843 68.723797 
L 183.498644 66.750019 
L 184.584445 67.313955 
L 185.670246 65.304931 
L 186.756047 63.965581 
L 187.841849 64.494272 
L 188.92765 63.965581 
L 191.099252 64.282796 
L 192.185053 63.084431 
L 193.270854 62.978692 
L 194.356656 62.20328 
L 195.442457 62.590986 
L 196.528258 61.780327 
L 197.614059 62.943446 
L 198.69986 62.837708 
L 199.785661 64.846732 
L 200.871462 61.780327 
L 201.957264 59.771303 
L 203.043065 61.004914 
L 204.128866 59.806549 
L 205.214667 59.806549 
L 206.300468 59.982779 
L 207.386269 59.630319 
L 208.472071 60.86393 
L 209.557872 60.018025 
L 210.643673 60.299993 
L 211.729474 58.784414 
L 212.815275 59.700811 
L 213.901076 58.925398 
L 214.986877 58.290969 
L 216.072679 58.99589 
L 217.15848 58.713922 
L 218.244281 58.784414 
L 219.330082 59.066382 
L 220.415883 58.396707 
L 221.501684 58.220477 
L 222.587486 58.678676 
L 223.673287 58.537691 
L 224.759088 58.64343 
L 225.844889 73.975457 
L 226.93069 72.847583 
L 228.016491 73.834472 
L 229.102292 73.23529 
L 230.188094 72.283647 
L 231.273895 73.129552 
L 232.359696 81.764831 
L 233.445497 69.85167 
L 234.531298 75.491036 
L 235.617099 72.142663 
L 236.702901 75.314806 
L 237.788702 71.296758 
L 238.874503 71.014789 
L 239.960304 68.089368 
L 241.046105 69.604948 
L 242.131906 72.706599 
L 243.217708 70.309869 
L 244.303509 70.168884 
L 245.38931 68.477074 
L 246.475111 71.332004 
L 247.560912 70.838559 
L 248.646713 75.138576 
L 249.732514 70.0279 
L 251.904117 67.772154 
L 252.989918 72.706599 
L 254.075719 76.231203 
L 255.16152 70.0279 
L 256.247321 68.512321 
L 257.333123 68.195106 
L 258.418924 68.406582 
L 259.504725 69.67544 
L 260.590526 69.076257 
L 261.676327 66.679526 
L 262.762128 67.419693 
L 263.847929 71.649218 
L 264.933731 67.666416 
L 266.019532 66.503296 
L 267.105333 64.846732 
L 269.276935 68.054122 
L 270.362736 67.419693 
L 271.448538 66.29182 
L 272.534339 65.481161 
L 273.62014 66.64428 
L 274.705941 64.705748 
L 275.791742 65.868868 
L 276.877543 70.556591 
L 277.963344 64.670502 
L 279.049146 65.586899 
L 280.134947 65.058209 
L 281.220748 65.586899 
L 282.306549 64.60001 
L 283.39235 65.904114 
L 284.478151 67.560677 
L 285.563953 67.067233 
L 286.649754 66.785265 
L 287.735555 66.926249 
L 288.821356 63.436891 
L 289.907157 66.820511 
L 290.992958 64.705748 
L 292.07876 63.295907 
L 293.164561 63.154923 
L 294.250362 67.137725 
L 295.336163 65.622145 
L 296.421964 64.881979 
L 297.507765 62.767216 
L 298.593566 64.740994 
L 299.679368 64.106566 
L 301.85097 64.77624 
L 302.936771 64.353288 
L 304.022572 64.459026 
L 306.194175 63.683613 
L 307.279976 61.709835 
L 308.365777 65.234439 
L 309.451578 65.163947 
L 310.537379 63.542629 
L 311.62318 62.837708 
L 312.708981 63.577875 
L 313.794783 61.357375 
L 314.880584 59.665565 
L 315.966385 61.674589 
L 317.052186 63.401645 
L 318.137987 62.238526 
L 319.223788 60.581962 
L 320.30959 60.546716 
L 321.395391 59.277858 
L 322.481192 61.075406 
L 323.566993 61.815573 
L 324.652794 61.145898 
L 325.738595 59.700811 
L 326.824396 62.978692 
L 327.910198 59.383596 
L 328.995999 59.806549 
L 330.0818 60.440978 
L 331.167601 58.502445 
L 332.253402 59.17212 
L 333.339203 58.713922 
L 334.425005 57.409818 
L 335.510806 57.832771 
L 336.596607 60.722946 
L 337.682408 58.890152 
L 338.768209 58.326215 
L 339.85401 58.149985 
L 340.939811 58.431953 
L 342.025613 59.242612 
L 343.111414 57.30408 
L 344.197215 57.30408 
L 345.283016 56.77539 
L 346.368817 58.220477 
L 347.454618 57.550802 
L 348.54042 56.211453 
L 349.626221 58.678676 
L 350.712022 56.246699 
L 351.797823 56.77539 
L 352.883624 55.858993 
L 353.969425 55.999977 
L 355.055227 55.753254 
L 356.141028 56.458175 
L 357.226829 55.647516 
L 358.31263 55.61227 
L 359.398431 56.740144 
L 360.484232 56.458175 
L 361.570033 55.471286 
L 363.741636 55.330302 
L 364.827437 55.506532 
L 365.913238 55.118826 
L 366.999039 55.154072 
L 368.08484 54.801611 
L 369.170642 55.154072 
L 371.342244 57.409818 
L 372.428045 57.409818 
L 373.513846 55.541778 
L 374.599647 55.61227 
L 375.685448 57.48031 
L 376.77125 57.092604 
L 377.857051 57.198342 
L 378.942852 58.467199 
L 380.028653 57.12785 
L 381.114454 57.268834 
L 382.200255 56.387683 
L 383.286057 56.493421 
L 384.371858 55.999977 
L 385.457659 55.964731 
L 386.54346 56.458175 
L 387.629261 55.823746 
L 388.715062 57.374572 
L 389.800863 56.176207 
L 390.886665 57.445064 
L 391.972466 57.762279 
L 393.058267 59.17212 
L 394.144068 57.409818 
L 395.229869 55.999977 
L 396.31567 56.77539 
L 398.487273 57.48031 
L 398.487273 57.48031 
" clip-path="url(#p6e71336a9b)" style="fill: none; stroke: #ff7f0e; stroke-width: 1.5; stroke-linecap: square"/>
   </g>
   <g id="line2d_20">
    <path d="M 73.832727 254.099731 
L 74.918528 234.167488 
L 76.00433 201.230673 
L 77.090131 180.204587 
L 78.175932 199.164525 
L 79.261733 169.387699 
L 80.347534 161.366187 
L 81.433335 143.986244 
L 82.519137 145.323162 
L 83.604938 134.263199 
L 85.77654 127.943219 
L 86.862341 134.992427 
L 87.948142 125.755534 
L 89.033943 121.380164 
L 90.119745 122.717082 
L 91.205546 121.501702 
L 92.291347 117.977098 
L 93.377148 115.181722 
L 94.462949 115.546336 
L 95.54875 141.677021 
L 96.634552 143.135477 
L 97.720353 143.013939 
L 98.806154 137.787802 
L 99.891955 133.898584 
L 100.977756 137.787802 
L 102.063557 127.092453 
L 103.149358 128.307833 
L 104.23516 128.550909 
L 105.320961 128.672448 
L 106.406762 128.672448 
L 108.578364 118.584788 
L 109.664165 125.99861 
L 110.749967 117.734022 
L 111.835768 113.966342 
L 112.921569 117.977098 
L 114.00737 116.032489 
L 115.093171 114.69557 
L 116.178972 117.004793 
L 117.264773 112.872499 
L 118.350575 114.69557 
L 119.436376 105.944829 
L 120.522177 106.674058 
L 121.607978 108.132514 
L 122.693779 108.497129 
L 123.77958 103.757144 
L 124.865382 102.177149 
L 125.951183 103.635606 
L 127.036984 102.78484 
L 128.122785 99.01716 
L 129.208586 99.989464 
L 130.294387 98.652545 
L 131.380189 99.260236 
L 132.46599 98.774083 
L 133.551791 97.194089 
L 134.637592 99.138698 
L 135.723393 97.194089 
L 136.809194 96.100246 
L 137.894995 97.801779 
L 138.980797 126.6063 
L 140.066598 123.446311 
L 141.152399 115.667875 
L 142.2382 119.435555 
L 144.409802 117.734022 
L 145.495604 118.220174 
L 146.581405 120.286321 
L 147.667206 115.910951 
L 148.753007 110.806352 
L 149.838808 116.397103 
L 150.924609 111.900195 
L 152.01041 118.46325 
L 153.096212 110.198662 
L 154.182013 111.778656 
L 155.267814 117.85556 
L 156.353615 115.789413 
L 157.439416 113.237113 
L 158.525217 114.209418 
L 159.611019 113.601727 
L 160.69682 111.292504 
L 161.782621 113.601727 
L 165.040024 106.674058 
L 166.125825 109.590971 
L 167.211627 111.414042 
L 168.297428 105.580215 
L 169.383229 110.198662 
L 170.46903 108.618667 
L 171.554831 105.094063 
L 172.640632 107.16021 
L 173.726434 103.757144 
L 174.812235 101.447921 
L 175.898036 104.243296 
L 176.983837 107.524824 
L 178.069638 100.23254 
L 179.155439 104.850987 
L 180.24124 107.889438 
L 181.327042 100.475616 
L 182.412843 104.729449 
L 183.498644 97.680241 
L 184.584445 103.39253 
L 185.670246 101.569459 
L 186.756047 95.24948 
L 187.841849 98.287931 
L 188.92765 96.707936 
L 190.013451 99.260236 
L 191.099252 96.221784 
L 192.185053 93.547947 
L 193.270854 91.846414 
L 194.356656 96.343322 
L 195.442457 95.492556 
L 196.528258 96.46486 
L 197.614059 93.426409 
L 198.69986 95.24948 
L 199.785661 99.503312 
L 200.871462 94.277175 
L 201.957264 91.846414 
L 203.043065 92.575642 
L 204.128866 89.53719 
L 205.214667 90.752571 
L 206.300468 89.172576 
L 207.386269 89.294114 
L 208.472071 90.387957 
L 209.557872 90.387957 
L 210.643673 90.874109 
L 211.729474 90.144881 
L 212.815275 89.172576 
L 213.901076 87.349505 
L 214.986877 89.051038 
L 216.072679 89.051038 
L 217.15848 87.106429 
L 218.244281 86.863353 
L 219.330082 87.106429 
L 220.415883 86.620277 
L 221.501684 85.76951 
L 222.587486 86.134125 
L 223.673287 88.443348 
L 224.759088 84.675668 
L 225.844889 109.104819 
L 226.93069 114.817108 
L 228.016491 113.723265 
L 229.102292 114.330956 
L 230.188094 109.469433 
L 231.273895 112.143271 
L 232.359696 119.921707 
L 233.445497 108.740205 
L 234.531298 115.789413 
L 235.617099 108.861743 
L 236.702901 111.414042 
L 237.788702 113.115575 
L 238.874503 112.872499 
L 239.960304 102.298687 
L 241.046105 103.270992 
L 242.131906 111.657118 
L 243.217708 113.480189 
L 244.303509 106.430982 
L 245.38931 102.541763 
L 246.475111 110.92789 
L 247.560912 110.198662 
L 248.646713 109.104819 
L 249.732514 109.104819 
L 250.818316 104.121758 
L 251.904117 101.204845 
L 252.989918 106.430982 
L 254.075719 112.507885 
L 255.16152 109.712509 
L 256.247321 100.961769 
L 257.333123 104.486373 
L 258.418924 103.39253 
L 260.590526 107.7679 
L 261.676327 100.475616 
L 262.762128 102.78484 
L 263.847929 107.038672 
L 264.933731 104.00022 
L 266.019532 102.906378 
L 267.105333 102.298687 
L 268.191134 99.01716 
L 269.276935 103.39253 
L 270.362736 103.635606 
L 271.448538 102.298687 
L 272.534339 103.514068 
L 273.62014 100.23254 
L 274.705941 95.127941 
L 275.791742 101.690997 
L 276.877543 107.524824 
L 277.963344 97.680241 
L 279.049146 98.409469 
L 280.134947 102.78484 
L 281.220748 99.746388 
L 282.306549 100.961769 
L 283.39235 103.635606 
L 284.478151 103.270992 
L 285.563953 104.972525 
L 286.649754 101.569459 
L 287.735555 99.381774 
L 288.821356 99.746388 
L 289.907157 98.044855 
L 290.992958 93.183332 
L 292.07876 96.586398 
L 293.164561 94.398713 
L 294.250362 103.149454 
L 295.336163 102.78484 
L 296.421964 100.475616 
L 297.507765 94.277175 
L 298.593566 95.371018 
L 299.679368 99.260236 
L 300.765169 99.138698 
L 301.85097 101.447921 
L 302.936771 102.420225 
L 304.022572 96.951012 
L 305.108373 95.85717 
L 306.194175 98.895621 
L 307.279976 94.641789 
L 308.365777 97.680241 
L 309.451578 99.381774 
L 310.537379 95.127941 
L 311.62318 97.194089 
L 312.708981 96.343322 
L 313.794783 93.791023 
L 314.880584 91.967952 
L 315.966385 94.520251 
L 317.052186 96.586398 
L 318.137987 94.398713 
L 319.223788 90.752571 
L 320.30959 94.155637 
L 321.395391 90.144881 
L 322.481192 91.724876 
L 323.566993 89.53719 
L 324.652794 92.575642 
L 326.824396 93.791023 
L 327.910198 86.377201 
L 328.995999 88.32181 
L 330.0818 90.023343 
L 331.167601 92.575642 
L 332.253402 89.901805 
L 333.339203 90.509495 
L 334.425005 89.780267 
L 335.510806 86.134125 
L 336.596607 89.415652 
L 337.682408 88.564886 
L 338.768209 89.901805 
L 339.85401 86.012587 
L 340.939811 84.55413 
L 342.025613 90.266419 
L 343.111414 84.675668 
L 344.197215 86.741815 
L 345.283016 83.095673 
L 346.368817 87.106429 
L 347.454618 84.432592 
L 348.54042 84.067978 
L 349.626221 87.714119 
L 350.712022 84.432592 
L 351.797823 85.404896 
L 352.883624 81.880292 
L 353.969425 83.460287 
L 355.055227 83.703363 
L 356.141028 83.581825 
L 357.226829 81.880292 
L 358.31263 79.814145 
L 359.398431 82.731059 
L 360.484232 83.581825 
L 361.570033 80.78645 
L 362.655835 81.637216 
L 363.741636 80.78645 
L 364.827437 81.758754 
L 365.913238 80.178759 
L 366.999039 80.664912 
L 368.08484 80.543374 
L 370.256443 84.067978 
L 371.342244 86.741815 
L 372.428045 86.012587 
L 373.513846 80.543374 
L 375.685448 88.686424 
L 376.77125 87.957196 
L 377.857051 83.217211 
L 378.942852 88.078734 
L 380.028653 84.432592 
L 381.114454 85.647972 
L 382.200255 82.366445 
L 383.286057 83.824901 
L 385.457659 82.244907 
L 386.54346 79.571069 
L 387.629261 86.255663 
L 388.715062 86.012587 
L 389.800863 83.217211 
L 390.886665 84.918744 
L 391.972466 83.460287 
L 393.058267 88.564886 
L 394.144068 83.824901 
L 395.229869 85.16182 
L 396.31567 82.731059 
L 397.401472 85.647972 
L 398.487273 86.134125 
L 398.487273 86.134125 
" clip-path="url(#p6e71336a9b)" style="fill: none; stroke: #2ca02c; stroke-width: 1.5; stroke-linecap: square"/>
   </g>
   <g id="line2d_21">
    <path d="M 368.08484 54.590135 
L 369.170642 54.519643 
L 370.256443 54.907349 
L 371.342244 54.026199 
L 372.428045 55.08358 
L 373.513846 55.154072 
L 374.599647 54.766365 
L 375.685448 54.061445 
L 376.77125 54.272921 
L 377.857051 54.660627 
L 378.942852 54.836857 
L 380.028653 55.25981 
L 381.114454 54.061445 
L 382.200255 54.907349 
L 383.286057 53.885214 
L 384.371858 54.202429 
L 386.54346 54.449151 
L 387.629261 53.568 
L 388.715062 53.885214 
L 389.800863 53.708984 
L 391.972466 54.272921 
L 393.058267 53.603246 
L 395.229869 55.718008 
L 396.31567 54.378659 
L 397.401472 55.43604 
L 398.487273 53.990952 
L 398.487273 53.990952 
" clip-path="url(#p6e71336a9b)" style="fill: none; stroke: #d62728; stroke-width: 1.5; stroke-linecap: square"/>
   </g>
   <g id="line2d_22">
    <path d="M 368.08484 79.571069 
L 369.170642 79.935683 
L 370.256443 81.151064 
L 371.342244 79.814145 
L 372.428045 79.814145 
L 373.513846 80.78645 
L 374.599647 81.151064 
L 375.685448 78.598765 
L 376.77125 79.935683 
L 377.857051 78.598765 
L 378.942852 80.057221 
L 380.028653 80.78645 
L 381.114454 78.23415 
L 382.200255 80.300297 
L 383.286057 77.383384 
L 384.371858 76.654156 
L 385.457659 78.23415 
L 386.54346 81.151064 
L 387.629261 76.775694 
L 388.715062 76.654156 
L 389.800863 77.383384 
L 390.886665 76.654156 
L 391.972466 76.775694 
L 393.058267 76.532617 
L 394.144068 76.411079 
L 395.229869 79.206455 
L 396.31567 75.317237 
L 397.401472 82.366445 
L 398.487273 80.178759 
L 398.487273 80.178759 
" clip-path="url(#p6e71336a9b)" style="fill: none; stroke: #9467bd; stroke-width: 1.5; stroke-linecap: square"/>
   </g>
   <g id="patch_3">
    <path d="M 57.6 307.584 
L 57.6 41.472 
" style="fill: none; stroke: #000000; stroke-width: 0.8; stroke-linejoin: miter; stroke-linecap: square"/>
   </g>
   <g id="patch_4">
    <path d="M 414.72 307.584 
L 414.72 41.472 
" style="fill: none; stroke: #000000; stroke-width: 0.8; stroke-linejoin: miter; stroke-linecap: square"/>
   </g>
   <g id="patch_5">
    <path d="M 57.6 307.584 
L 414.72 307.584 
" style="fill: none; stroke: #000000; stroke-width: 0.8; stroke-linejoin: miter; stroke-linecap: square"/>
   </g>
   <g id="patch_6">
    <path d="M 57.6 41.472 
L 414.72 41.472 
" style="fill: none; stroke: #000000; stroke-width: 0.8; stroke-linejoin: miter; stroke-linecap: square"/>
   </g>
   <g id="text_20">
    <!-- Learning Curves -->
    <g transform="translate(187.37625 35.472) scale(0.12 -0.12)">
     <defs>
      <path id="DejaVuSans-4c" d="M 628 4666 
L 1259 4666 
L 1259 531 
L 3531 531 
L 3531 0 
L 628 0 
L 628 4666 
z
" transform="scale(0.015625)"/>
      <path id="DejaVuSans-65" d="M 3597 1894 
L 3597 1613 
L 953 1613 
Q 991 1019 1311 708 
Q 1631 397 2203 397 
Q 2534 397 2845 478 
Q 3156 559 3463 722 
L 3463 178 
Q 3153 47 2828 -22 
Q 2503 -91 2169 -91 
Q 1331 -91 842 396 
Q 353 884 353 1716 
Q 353 2575 817 3079 
Q 1281 3584 2069 3584 
Q 2775 3584 3186 3129 
Q 3597 2675 3597 1894 
z
M 3022 2063 
Q 3016 2534 2758 2815 
Q 2500 3097 2075 3097 
Q 1594 3097 1305 2825 
Q 1016 2553 972 2059 
L 3022 2063 
z
" transform="scale(0.015625)"/>
      <path id="DejaVuSans-6e" d="M 3513 2113 
L 3513 0 
L 2938 0 
L 2938 2094 
Q 2938 2591 2744 2837 
Q 2550 3084 2163 3084 
Q 1697 3084 1428 2787 
Q 1159 2491 1159 1978 
L 1159 0 
L 581 0 
L 581 3500 
L 1159 3500 
L 1159 2956 
Q 1366 3272 1645 3428 
Q 1925 3584 2291 3584 
Q 2894 3584 3203 3211 
Q 3513 2838 3513 2113 
z
" transform="scale(0.015625)"/>
      <path id="DejaVuSans-69" d="M 603 3500 
L 1178 3500 
L 1178 0 
L 603 0 
L 603 3500 
z
M 603 4863 
L 1178 4863 
L 1178 4134 
L 603 4134 
L 603 4863 
z
" transform="scale(0.015625)"/>
      <path id="DejaVuSans-67" d="M 2906 1791 
Q 2906 2416 2648 2759 
Q 2391 3103 1925 3103 
Q 1463 3103 1205 2759 
Q 947 2416 947 1791 
Q 947 1169 1205 825 
Q 1463 481 1925 481 
Q 2391 481 2648 825 
Q 2906 1169 2906 1791 
z
M 3481 434 
Q 3481 -459 3084 -895 
Q 2688 -1331 1869 -1331 
Q 1566 -1331 1297 -1286 
Q 1028 -1241 775 -1147 
L 775 -588 
Q 1028 -725 1275 -790 
Q 1522 -856 1778 -856 
Q 2344 -856 2625 -561 
Q 2906 -266 2906 331 
L 2906 616 
Q 2728 306 2450 153 
Q 2172 0 1784 0 
Q 1141 0 747 490 
Q 353 981 353 1791 
Q 353 2603 747 3093 
Q 1141 3584 1784 3584 
Q 2172 3584 2450 3431 
Q 2728 3278 2906 2969 
L 2906 3500 
L 3481 3500 
L 3481 434 
z
" transform="scale(0.015625)"/>
      <path id="DejaVuSans-20" transform="scale(0.015625)"/>
      <path id="DejaVuSans-43" d="M 4122 4306 
L 4122 3641 
Q 3803 3938 3442 4084 
Q 3081 4231 2675 4231 
Q 1875 4231 1450 3742 
Q 1025 3253 1025 2328 
Q 1025 1406 1450 917 
Q 1875 428 2675 428 
Q 3081 428 3442 575 
Q 3803 722 4122 1019 
L 4122 359 
Q 3791 134 3420 21 
Q 3050 -91 2638 -91 
Q 1578 -91 968 557 
Q 359 1206 359 2328 
Q 359 3453 968 4101 
Q 1578 4750 2638 4750 
Q 3056 4750 3426 4639 
Q 3797 4528 4122 4306 
z
" transform="scale(0.015625)"/>
      <path id="DejaVuSans-76" d="M 191 3500 
L 800 3500 
L 1894 563 
L 2988 3500 
L 3597 3500 
L 2284 0 
L 1503 0 
L 191 3500 
z
" transform="scale(0.015625)"/>
     </defs>
     <use xlink:href="#DejaVuSans-4c"/>
     <use xlink:href="#DejaVuSans-65" x="53.962891"/>
     <use xlink:href="#DejaVuSans-61" x="115.486328"/>
     <use xlink:href="#DejaVuSans-72" x="176.765625"/>
     <use xlink:href="#DejaVuSans-6e" x="216.128906"/>
     <use xlink:href="#DejaVuSans-69" x="279.507812"/>
     <use xlink:href="#DejaVuSans-6e" x="307.291016"/>
     <use xlink:href="#DejaVuSans-67" x="370.669922"/>
     <use xlink:href="#DejaVuSans-20" x="434.146484"/>
     <use xlink:href="#DejaVuSans-43" x="465.933594"/>
     <use xlink:href="#DejaVuSans-75" x="535.757812"/>
     <use xlink:href="#DejaVuSans-72" x="599.136719"/>
     <use xlink:href="#DejaVuSans-76" x="640.25"/>
     <use xlink:href="#DejaVuSans-65" x="699.429688"/>
     <use xlink:href="#DejaVuSans-73" x="760.953125"/>
    </g>
   </g>
   <g id="legend_1">
    <g id="patch_7">
     <path d="M 214.18875 302.584 
L 407.72 302.584 
Q 409.72 302.584 409.72 300.584 
L 409.72 228.193375 
Q 409.72 226.193375 407.72 226.193375 
L 214.18875 226.193375 
Q 212.18875 226.193375 212.18875 228.193375 
L 212.18875 300.584 
Q 212.18875 302.584 214.18875 302.584 
z
" style="fill: #ffffff; opacity: 0.8; stroke: #cccccc; stroke-linejoin: miter"/>
    </g>
    <g id="line2d_23">
     <path d="M 216.18875 234.291812 
L 226.18875 234.291812 
L 236.18875 234.291812 
" style="fill: none; stroke: #1f77b4; stroke-width: 1.5; stroke-linecap: square"/>
    </g>
    <g id="text_21">
     <!-- Train Accuracy -->
     <g transform="translate(244.18875 237.791812) scale(0.1 -0.1)">
      <defs>
       <path id="DejaVuSans-54" d="M -19 4666 
L 3928 4666 
L 3928 4134 
L 2272 4134 
L 2272 0 
L 1638 0 
L 1638 4134 
L -19 4134 
L -19 4666 
z
" transform="scale(0.015625)"/>
      </defs>
      <use xlink:href="#DejaVuSans-54"/>
      <use xlink:href="#DejaVuSans-72" x="46.333984"/>
      <use xlink:href="#DejaVuSans-61" x="87.447266"/>
      <use xlink:href="#DejaVuSans-69" x="148.726562"/>
      <use xlink:href="#DejaVuSans-6e" x="176.509766"/>
      <use xlink:href="#DejaVuSans-20" x="239.888672"/>
      <use xlink:href="#DejaVuSans-41" x="271.675781"/>
      <use xlink:href="#DejaVuSans-63" x="338.333984"/>
      <use xlink:href="#DejaVuSans-63" x="393.314453"/>
      <use xlink:href="#DejaVuSans-75" x="448.294922"/>
      <use xlink:href="#DejaVuSans-72" x="511.673828"/>
      <use xlink:href="#DejaVuSans-61" x="552.787109"/>
      <use xlink:href="#DejaVuSans-63" x="614.066406"/>
      <use xlink:href="#DejaVuSans-79" x="669.046875"/>
     </g>
    </g>
    <g id="line2d_24">
     <path d="M 216.18875 248.969937 
L 226.18875 248.969937 
L 236.18875 248.969937 
" style="fill: none; stroke: #ff7f0e; stroke-width: 1.5; stroke-linecap: square"/>
    </g>
    <g id="text_22">
     <!-- Validation Accuracy -->
     <g transform="translate(244.18875 252.469937) scale(0.1 -0.1)">
      <defs>
       <path id="DejaVuSans-56" d="M 1831 0 
L 50 4666 
L 709 4666 
L 2188 738 
L 3669 4666 
L 4325 4666 
L 2547 0 
L 1831 0 
z
" transform="scale(0.015625)"/>
       <path id="DejaVuSans-6c" d="M 603 4863 
L 1178 4863 
L 1178 0 
L 603 0 
L 603 4863 
z
" transform="scale(0.015625)"/>
       <path id="DejaVuSans-64" d="M 2906 2969 
L 2906 4863 
L 3481 4863 
L 3481 0 
L 2906 0 
L 2906 525 
Q 2725 213 2448 61 
Q 2172 -91 1784 -91 
Q 1150 -91 751 415 
Q 353 922 353 1747 
Q 353 2572 751 3078 
Q 1150 3584 1784 3584 
Q 2172 3584 2448 3432 
Q 2725 3281 2906 2969 
z
M 947 1747 
Q 947 1113 1208 752 
Q 1469 391 1925 391 
Q 2381 391 2643 752 
Q 2906 1113 2906 1747 
Q 2906 2381 2643 2742 
Q 2381 3103 1925 3103 
Q 1469 3103 1208 2742 
Q 947 2381 947 1747 
z
" transform="scale(0.015625)"/>
       <path id="DejaVuSans-74" d="M 1172 4494 
L 1172 3500 
L 2356 3500 
L 2356 3053 
L 1172 3053 
L 1172 1153 
Q 1172 725 1289 603 
Q 1406 481 1766 481 
L 2356 481 
L 2356 0 
L 1766 0 
Q 1100 0 847 248 
Q 594 497 594 1153 
L 594 3053 
L 172 3053 
L 172 3500 
L 594 3500 
L 594 4494 
L 1172 4494 
z
" transform="scale(0.015625)"/>
      </defs>
      <use xlink:href="#DejaVuSans-56"/>
      <use xlink:href="#DejaVuSans-61" x="60.658203"/>
      <use xlink:href="#DejaVuSans-6c" x="121.9375"/>
      <use xlink:href="#DejaVuSans-69" x="149.720703"/>
      <use xlink:href="#DejaVuSans-64" x="177.503906"/>
      <use xlink:href="#DejaVuSans-61" x="240.980469"/>
      <use xlink:href="#DejaVuSans-74" x="302.259766"/>
      <use xlink:href="#DejaVuSans-69" x="341.46875"/>
      <use xlink:href="#DejaVuSans-6f" x="369.251953"/>
      <use xlink:href="#DejaVuSans-6e" x="430.433594"/>
      <use xlink:href="#DejaVuSans-20" x="493.8125"/>
      <use xlink:href="#DejaVuSans-41" x="525.599609"/>
      <use xlink:href="#DejaVuSans-63" x="592.257812"/>
      <use xlink:href="#DejaVuSans-63" x="647.238281"/>
      <use xlink:href="#DejaVuSans-75" x="702.21875"/>
      <use xlink:href="#DejaVuSans-72" x="765.597656"/>
      <use xlink:href="#DejaVuSans-61" x="806.710938"/>
      <use xlink:href="#DejaVuSans-63" x="867.990234"/>
      <use xlink:href="#DejaVuSans-79" x="922.970703"/>
     </g>
    </g>
    <g id="line2d_25">
     <path d="M 216.18875 263.648062 
L 226.18875 263.648062 
L 236.18875 263.648062 
" style="fill: none; stroke: #2ca02c; stroke-width: 1.5; stroke-linecap: square"/>
    </g>
    <g id="text_23">
     <!-- Robust Validation Accuracy -->
     <g transform="translate(244.18875 267.148062) scale(0.1 -0.1)">
      <defs>
       <path id="DejaVuSans-52" d="M 2841 2188 
Q 3044 2119 3236 1894 
Q 3428 1669 3622 1275 
L 4263 0 
L 3584 0 
L 2988 1197 
Q 2756 1666 2539 1819 
Q 2322 1972 1947 1972 
L 1259 1972 
L 1259 0 
L 628 0 
L 628 4666 
L 2053 4666 
Q 2853 4666 3247 4331 
Q 3641 3997 3641 3322 
Q 3641 2881 3436 2590 
Q 3231 2300 2841 2188 
z
M 1259 4147 
L 1259 2491 
L 2053 2491 
Q 2509 2491 2742 2702 
Q 2975 2913 2975 3322 
Q 2975 3731 2742 3939 
Q 2509 4147 2053 4147 
L 1259 4147 
z
" transform="scale(0.015625)"/>
       <path id="DejaVuSans-62" d="M 3116 1747 
Q 3116 2381 2855 2742 
Q 2594 3103 2138 3103 
Q 1681 3103 1420 2742 
Q 1159 2381 1159 1747 
Q 1159 1113 1420 752 
Q 1681 391 2138 391 
Q 2594 391 2855 752 
Q 3116 1113 3116 1747 
z
M 1159 2969 
Q 1341 3281 1617 3432 
Q 1894 3584 2278 3584 
Q 2916 3584 3314 3078 
Q 3713 2572 3713 1747 
Q 3713 922 3314 415 
Q 2916 -91 2278 -91 
Q 1894 -91 1617 61 
Q 1341 213 1159 525 
L 1159 0 
L 581 0 
L 581 4863 
L 1159 4863 
L 1159 2969 
z
" transform="scale(0.015625)"/>
      </defs>
      <use xlink:href="#DejaVuSans-52"/>
      <use xlink:href="#DejaVuSans-6f" x="64.982422"/>
      <use xlink:href="#DejaVuSans-62" x="126.164062"/>
      <use xlink:href="#DejaVuSans-75" x="189.640625"/>
      <use xlink:href="#DejaVuSans-73" x="253.019531"/>
      <use xlink:href="#DejaVuSans-74" x="305.119141"/>
      <use xlink:href="#DejaVuSans-20" x="344.328125"/>
      <use xlink:href="#DejaVuSans-56" x="376.115234"/>
      <use xlink:href="#DejaVuSans-61" x="436.773438"/>
      <use xlink:href="#DejaVuSans-6c" x="498.052734"/>
      <use xlink:href="#DejaVuSans-69" x="525.835938"/>
      <use xlink:href="#DejaVuSans-64" x="553.619141"/>
      <use xlink:href="#DejaVuSans-61" x="617.095703"/>
      <use xlink:href="#DejaVuSans-74" x="678.375"/>
      <use xlink:href="#DejaVuSans-69" x="717.583984"/>
      <use xlink:href="#DejaVuSans-6f" x="745.367188"/>
      <use xlink:href="#DejaVuSans-6e" x="806.548828"/>
      <use xlink:href="#DejaVuSans-20" x="869.927734"/>
      <use xlink:href="#DejaVuSans-41" x="901.714844"/>
      <use xlink:href="#DejaVuSans-63" x="968.373047"/>
      <use xlink:href="#DejaVuSans-63" x="1023.353516"/>
      <use xlink:href="#DejaVuSans-75" x="1078.333984"/>
      <use xlink:href="#DejaVuSans-72" x="1141.712891"/>
      <use xlink:href="#DejaVuSans-61" x="1182.826172"/>
      <use xlink:href="#DejaVuSans-63" x="1244.105469"/>
      <use xlink:href="#DejaVuSans-79" x="1299.085938"/>
     </g>
    </g>
    <g id="line2d_26">
     <path d="M 216.18875 278.326188 
L 226.18875 278.326188 
L 236.18875 278.326188 
" style="fill: none; stroke: #d62728; stroke-width: 1.5; stroke-linecap: square"/>
    </g>
    <g id="text_24">
     <!-- SWA Validation Accuracy -->
     <g transform="translate(244.18875 281.826188) scale(0.1 -0.1)">
      <defs>
       <path id="DejaVuSans-53" d="M 3425 4513 
L 3425 3897 
Q 3066 4069 2747 4153 
Q 2428 4238 2131 4238 
Q 1616 4238 1336 4038 
Q 1056 3838 1056 3469 
Q 1056 3159 1242 3001 
Q 1428 2844 1947 2747 
L 2328 2669 
Q 3034 2534 3370 2195 
Q 3706 1856 3706 1288 
Q 3706 609 3251 259 
Q 2797 -91 1919 -91 
Q 1588 -91 1214 -16 
Q 841 59 441 206 
L 441 856 
Q 825 641 1194 531 
Q 1563 422 1919 422 
Q 2459 422 2753 634 
Q 3047 847 3047 1241 
Q 3047 1584 2836 1778 
Q 2625 1972 2144 2069 
L 1759 2144 
Q 1053 2284 737 2584 
Q 422 2884 422 3419 
Q 422 4038 858 4394 
Q 1294 4750 2059 4750 
Q 2388 4750 2728 4690 
Q 3069 4631 3425 4513 
z
" transform="scale(0.015625)"/>
       <path id="DejaVuSans-57" d="M 213 4666 
L 850 4666 
L 1831 722 
L 2809 4666 
L 3519 4666 
L 4500 722 
L 5478 4666 
L 6119 4666 
L 4947 0 
L 4153 0 
L 3169 4050 
L 2175 0 
L 1381 0 
L 213 4666 
z
" transform="scale(0.015625)"/>
      </defs>
      <use xlink:href="#DejaVuSans-53"/>
      <use xlink:href="#DejaVuSans-57" x="63.476562"/>
      <use xlink:href="#DejaVuSans-41" x="156.853516"/>
      <use xlink:href="#DejaVuSans-20" x="225.261719"/>
      <use xlink:href="#DejaVuSans-56" x="257.048828"/>
      <use xlink:href="#DejaVuSans-61" x="317.707031"/>
      <use xlink:href="#DejaVuSans-6c" x="378.986328"/>
      <use xlink:href="#DejaVuSans-69" x="406.769531"/>
      <use xlink:href="#DejaVuSans-64" x="434.552734"/>
      <use xlink:href="#DejaVuSans-61" x="498.029297"/>
      <use xlink:href="#DejaVuSans-74" x="559.308594"/>
      <use xlink:href="#DejaVuSans-69" x="598.517578"/>
      <use xlink:href="#DejaVuSans-6f" x="626.300781"/>
      <use xlink:href="#DejaVuSans-6e" x="687.482422"/>
      <use xlink:href="#DejaVuSans-20" x="750.861328"/>
      <use xlink:href="#DejaVuSans-41" x="782.648438"/>
      <use xlink:href="#DejaVuSans-63" x="849.306641"/>
      <use xlink:href="#DejaVuSans-63" x="904.287109"/>
      <use xlink:href="#DejaVuSans-75" x="959.267578"/>
      <use xlink:href="#DejaVuSans-72" x="1022.646484"/>
      <use xlink:href="#DejaVuSans-61" x="1063.759766"/>
      <use xlink:href="#DejaVuSans-63" x="1125.039062"/>
      <use xlink:href="#DejaVuSans-79" x="1180.019531"/>
     </g>
    </g>
    <g id="line2d_27">
     <path d="M 216.18875 293.004312 
L 226.18875 293.004312 
L 236.18875 293.004312 
" style="fill: none; stroke: #9467bd; stroke-width: 1.5; stroke-linecap: square"/>
    </g>
    <g id="text_25">
     <!-- SWA Robust Validation Accuracy -->
     <g transform="translate(244.18875 296.504312) scale(0.1 -0.1)">
      <use xlink:href="#DejaVuSans-53"/>
      <use xlink:href="#DejaVuSans-57" x="63.476562"/>
      <use xlink:href="#DejaVuSans-41" x="156.853516"/>
      <use xlink:href="#DejaVuSans-20" x="225.261719"/>
      <use xlink:href="#DejaVuSans-52" x="257.048828"/>
      <use xlink:href="#DejaVuSans-6f" x="322.03125"/>
      <use xlink:href="#DejaVuSans-62" x="383.212891"/>
      <use xlink:href="#DejaVuSans-75" x="446.689453"/>
      <use xlink:href="#DejaVuSans-73" x="510.068359"/>
      <use xlink:href="#DejaVuSans-74" x="562.167969"/>
      <use xlink:href="#DejaVuSans-20" x="601.376953"/>
      <use xlink:href="#DejaVuSans-56" x="633.164062"/>
      <use xlink:href="#DejaVuSans-61" x="693.822266"/>
      <use xlink:href="#DejaVuSans-6c" x="755.101562"/>
      <use xlink:href="#DejaVuSans-69" x="782.884766"/>
      <use xlink:href="#DejaVuSans-64" x="810.667969"/>
      <use xlink:href="#DejaVuSans-61" x="874.144531"/>
      <use xlink:href="#DejaVuSans-74" x="935.423828"/>
      <use xlink:href="#DejaVuSans-69" x="974.632812"/>
      <use xlink:href="#DejaVuSans-6f" x="1002.416016"/>
      <use xlink:href="#DejaVuSans-6e" x="1063.597656"/>
      <use xlink:href="#DejaVuSans-20" x="1126.976562"/>
      <use xlink:href="#DejaVuSans-41" x="1158.763672"/>
      <use xlink:href="#DejaVuSans-63" x="1225.421875"/>
      <use xlink:href="#DejaVuSans-63" x="1280.402344"/>
      <use xlink:href="#DejaVuSans-75" x="1335.382812"/>
      <use xlink:href="#DejaVuSans-72" x="1398.761719"/>
      <use xlink:href="#DejaVuSans-61" x="1439.875"/>
      <use xlink:href="#DejaVuSans-63" x="1501.154297"/>
      <use xlink:href="#DejaVuSans-79" x="1556.134766"/>
     </g>
    </g>
   </g>
  </g>
 </g>
 <defs>
  <clipPath id="p6e71336a9b">
   <rect x="57.6" y="41.472" width="357.12" height="266.112"/>
  </clipPath>
 </defs>
</svg>
