<?xml version="1.0" encoding="utf-8" standalone="no"?>
<!DOCTYPE svg PUBLIC "-//W3C//DTD SVG 1.1//EN"
  "http://www.w3.org/Graphics/SVG/1.1/DTD/svg11.dtd">
<svg xmlns:xlink="http://www.w3.org/1999/xlink" width="460.8pt" height="345.6pt" viewBox="0 0 460.8 345.6" xmlns="http://www.w3.org/2000/svg" version="1.1">
 <metadata>
  <rdf:RDF xmlns:dc="http://purl.org/dc/elements/1.1/" xmlns:cc="http://creativecommons.org/ns#" xmlns:rdf="http://www.w3.org/1999/02/22-rdf-syntax-ns#">
   <cc:Work>
    <dc:type rdf:resource="http://purl.org/dc/dcmitype/StillImage"/>
    <dc:date>2025-06-24T05:58:32.390698</dc:date>
    <dc:format>image/svg+xml</dc:format>
    <dc:creator>
     <cc:Agent>
      <dc:title>Matplotlib v3.9.1, https://matplotlib.org/</dc:title>
     </cc:Agent>
    </dc:creator>
   </cc:Work>
  </rdf:RDF>
 </metadata>
 <defs>
  <style type="text/css">*{stroke-linejoin: round; stroke-linecap: butt}</style>
 </defs>
 <g id="figure_1">
  <g id="patch_1">
   <path d="M 0 345.6 
L 460.8 345.6 
L 460.8 0 
L 0 0 
z
" style="fill: #ffffff"/>
  </g>
  <g id="axes_1">
   <g id="patch_2">
    <path d="M 57.6 307.584 
L 414.72 307.584 
L 414.72 41.472 
L 57.6 41.472 
z
" style="fill: #ffffff"/>
   </g>
   <g id="matplotlib.axis_1">
    <g id="xtick_1">
     <g id="line2d_1">
      <defs>
       <path id="m109a551649" d="M 0 0 
L 0 3.5 
" style="stroke: #000000; stroke-width: 0.8"/>
      </defs>
      <g>
       <use xlink:href="#m109a551649" x="73.832727" y="307.584" style="stroke: #000000; stroke-width: 0.8"/>
      </g>
     </g>
     <g id="text_1">
      <!-- 1 -->
      <g transform="translate(70.651477 322.182437) scale(0.1 -0.1)">
       <defs>
        <path id="DejaVuSans-31" d="M 794 531 
L 1825 531 
L 1825 4091 
L 703 3866 
L 703 4441 
L 1819 4666 
L 2450 4666 
L 2450 531 
L 3481 531 
L 3481 0 
L 794 0 
L 794 531 
z
" transform="scale(0.015625)"/>
       </defs>
       <use xlink:href="#DejaVuSans-31"/>
      </g>
     </g>
    </g>
    <g id="xtick_2">
     <g id="line2d_2">
      <g>
       <use xlink:href="#m109a551649" x="109.664165" y="307.584" style="stroke: #000000; stroke-width: 0.8"/>
      </g>
     </g>
     <g id="text_2">
      <!-- 34 -->
      <g transform="translate(103.301665 322.182437) scale(0.1 -0.1)">
       <defs>
        <path id="DejaVuSans-33" d="M 2597 2516 
Q 3050 2419 3304 2112 
Q 3559 1806 3559 1356 
Q 3559 666 3084 287 
Q 2609 -91 1734 -91 
Q 1441 -91 1130 -33 
Q 819 25 488 141 
L 488 750 
Q 750 597 1062 519 
Q 1375 441 1716 441 
Q 2309 441 2620 675 
Q 2931 909 2931 1356 
Q 2931 1769 2642 2001 
Q 2353 2234 1838 2234 
L 1294 2234 
L 1294 2753 
L 1863 2753 
Q 2328 2753 2575 2939 
Q 2822 3125 2822 3475 
Q 2822 3834 2567 4026 
Q 2313 4219 1838 4219 
Q 1578 4219 1281 4162 
Q 984 4106 628 3988 
L 628 4550 
Q 988 4650 1302 4700 
Q 1616 4750 1894 4750 
Q 2613 4750 3031 4423 
Q 3450 4097 3450 3541 
Q 3450 3153 3228 2886 
Q 3006 2619 2597 2516 
z
" transform="scale(0.015625)"/>
        <path id="DejaVuSans-34" d="M 2419 4116 
L 825 1625 
L 2419 1625 
L 2419 4116 
z
M 2253 4666 
L 3047 4666 
L 3047 1625 
L 3713 1625 
L 3713 1100 
L 3047 1100 
L 3047 0 
L 2419 0 
L 2419 1100 
L 313 1100 
L 313 1709 
L 2253 4666 
z
" transform="scale(0.015625)"/>
       </defs>
       <use xlink:href="#DejaVuSans-33"/>
       <use xlink:href="#DejaVuSans-34" x="63.623047"/>
      </g>
     </g>
    </g>
    <g id="xtick_3">
     <g id="line2d_3">
      <g>
       <use xlink:href="#m109a551649" x="145.495604" y="307.584" style="stroke: #000000; stroke-width: 0.8"/>
      </g>
     </g>
     <g id="text_3">
      <!-- 67 -->
      <g transform="translate(139.133104 322.182437) scale(0.1 -0.1)">
       <defs>
        <path id="DejaVuSans-36" d="M 2113 2584 
Q 1688 2584 1439 2293 
Q 1191 2003 1191 1497 
Q 1191 994 1439 701 
Q 1688 409 2113 409 
Q 2538 409 2786 701 
Q 3034 994 3034 1497 
Q 3034 2003 2786 2293 
Q 2538 2584 2113 2584 
z
M 3366 4563 
L 3366 3988 
Q 3128 4100 2886 4159 
Q 2644 4219 2406 4219 
Q 1781 4219 1451 3797 
Q 1122 3375 1075 2522 
Q 1259 2794 1537 2939 
Q 1816 3084 2150 3084 
Q 2853 3084 3261 2657 
Q 3669 2231 3669 1497 
Q 3669 778 3244 343 
Q 2819 -91 2113 -91 
Q 1303 -91 875 529 
Q 447 1150 447 2328 
Q 447 3434 972 4092 
Q 1497 4750 2381 4750 
Q 2619 4750 2861 4703 
Q 3103 4656 3366 4563 
z
" transform="scale(0.015625)"/>
        <path id="DejaVuSans-37" d="M 525 4666 
L 3525 4666 
L 3525 4397 
L 1831 0 
L 1172 0 
L 2766 4134 
L 525 4134 
L 525 4666 
z
" transform="scale(0.015625)"/>
       </defs>
       <use xlink:href="#DejaVuSans-36"/>
       <use xlink:href="#DejaVuSans-37" x="63.623047"/>
      </g>
     </g>
    </g>
    <g id="xtick_4">
     <g id="line2d_4">
      <g>
       <use xlink:href="#m109a551649" x="181.327042" y="307.584" style="stroke: #000000; stroke-width: 0.8"/>
      </g>
     </g>
     <g id="text_4">
      <!-- 100 -->
      <g transform="translate(171.783292 322.182437) scale(0.1 -0.1)">
       <defs>
        <path id="DejaVuSans-30" d="M 2034 4250 
Q 1547 4250 1301 3770 
Q 1056 3291 1056 2328 
Q 1056 1369 1301 889 
Q 1547 409 2034 409 
Q 2525 409 2770 889 
Q 3016 1369 3016 2328 
Q 3016 3291 2770 3770 
Q 2525 4250 2034 4250 
z
M 2034 4750 
Q 2819 4750 3233 4129 
Q 3647 3509 3647 2328 
Q 3647 1150 3233 529 
Q 2819 -91 2034 -91 
Q 1250 -91 836 529 
Q 422 1150 422 2328 
Q 422 3509 836 4129 
Q 1250 4750 2034 4750 
z
" transform="scale(0.015625)"/>
       </defs>
       <use xlink:href="#DejaVuSans-31"/>
       <use xlink:href="#DejaVuSans-30" x="63.623047"/>
       <use xlink:href="#DejaVuSans-30" x="127.246094"/>
      </g>
     </g>
    </g>
    <g id="xtick_5">
     <g id="line2d_5">
      <g>
       <use xlink:href="#m109a551649" x="217.15848" y="307.584" style="stroke: #000000; stroke-width: 0.8"/>
      </g>
     </g>
     <g id="text_5">
      <!-- 133 -->
      <g transform="translate(207.61473 322.182437) scale(0.1 -0.1)">
       <use xlink:href="#DejaVuSans-31"/>
       <use xlink:href="#DejaVuSans-33" x="63.623047"/>
       <use xlink:href="#DejaVuSans-33" x="127.246094"/>
      </g>
     </g>
    </g>
    <g id="xtick_6">
     <g id="line2d_6">
      <g>
       <use xlink:href="#m109a551649" x="254.075719" y="307.584" style="stroke: #000000; stroke-width: 0.8"/>
      </g>
     </g>
     <g id="text_6">
      <!-- 167 -->
      <g transform="translate(244.531969 322.182437) scale(0.1 -0.1)">
       <use xlink:href="#DejaVuSans-31"/>
       <use xlink:href="#DejaVuSans-36" x="63.623047"/>
       <use xlink:href="#DejaVuSans-37" x="127.246094"/>
      </g>
     </g>
    </g>
    <g id="xtick_7">
     <g id="line2d_7">
      <g>
       <use xlink:href="#m109a551649" x="289.907157" y="307.584" style="stroke: #000000; stroke-width: 0.8"/>
      </g>
     </g>
     <g id="text_7">
      <!-- 200 -->
      <g transform="translate(280.363407 322.182437) scale(0.1 -0.1)">
       <defs>
        <path id="DejaVuSans-32" d="M 1228 531 
L 3431 531 
L 3431 0 
L 469 0 
L 469 531 
Q 828 903 1448 1529 
Q 2069 2156 2228 2338 
Q 2531 2678 2651 2914 
Q 2772 3150 2772 3378 
Q 2772 3750 2511 3984 
Q 2250 4219 1831 4219 
Q 1534 4219 1204 4116 
Q 875 4013 500 3803 
L 500 4441 
Q 881 4594 1212 4672 
Q 1544 4750 1819 4750 
Q 2544 4750 2975 4387 
Q 3406 4025 3406 3419 
Q 3406 3131 3298 2873 
Q 3191 2616 2906 2266 
Q 2828 2175 2409 1742 
Q 1991 1309 1228 531 
z
" transform="scale(0.015625)"/>
       </defs>
       <use xlink:href="#DejaVuSans-32"/>
       <use xlink:href="#DejaVuSans-30" x="63.623047"/>
       <use xlink:href="#DejaVuSans-30" x="127.246094"/>
      </g>
     </g>
    </g>
    <g id="xtick_8">
     <g id="line2d_8">
      <g>
       <use xlink:href="#m109a551649" x="325.738595" y="307.584" style="stroke: #000000; stroke-width: 0.8"/>
      </g>
     </g>
     <g id="text_8">
      <!-- 233 -->
      <g transform="translate(316.194845 322.182437) scale(0.1 -0.1)">
       <use xlink:href="#DejaVuSans-32"/>
       <use xlink:href="#DejaVuSans-33" x="63.623047"/>
       <use xlink:href="#DejaVuSans-33" x="127.246094"/>
      </g>
     </g>
    </g>
    <g id="xtick_9">
     <g id="line2d_9">
      <g>
       <use xlink:href="#m109a551649" x="361.570033" y="307.584" style="stroke: #000000; stroke-width: 0.8"/>
      </g>
     </g>
     <g id="text_9">
      <!-- 266 -->
      <g transform="translate(352.026283 322.182437) scale(0.1 -0.1)">
       <use xlink:href="#DejaVuSans-32"/>
       <use xlink:href="#DejaVuSans-36" x="63.623047"/>
       <use xlink:href="#DejaVuSans-36" x="127.246094"/>
      </g>
     </g>
    </g>
    <g id="xtick_10">
     <g id="line2d_10">
      <g>
       <use xlink:href="#m109a551649" x="398.487273" y="307.584" style="stroke: #000000; stroke-width: 0.8"/>
      </g>
     </g>
     <g id="text_10">
      <!-- 300 -->
      <g transform="translate(388.943523 322.182437) scale(0.1 -0.1)">
       <use xlink:href="#DejaVuSans-33"/>
       <use xlink:href="#DejaVuSans-30" x="63.623047"/>
       <use xlink:href="#DejaVuSans-30" x="127.246094"/>
      </g>
     </g>
    </g>
    <g id="text_11">
     <!-- Epochs -->
     <g transform="translate(218.244375 335.860562) scale(0.1 -0.1)">
      <defs>
       <path id="DejaVuSans-45" d="M 628 4666 
L 3578 4666 
L 3578 4134 
L 1259 4134 
L 1259 2753 
L 3481 2753 
L 3481 2222 
L 1259 2222 
L 1259 531 
L 3634 531 
L 3634 0 
L 628 0 
L 628 4666 
z
" transform="scale(0.015625)"/>
       <path id="DejaVuSans-70" d="M 1159 525 
L 1159 -1331 
L 581 -1331 
L 581 3500 
L 1159 3500 
L 1159 2969 
Q 1341 3281 1617 3432 
Q 1894 3584 2278 3584 
Q 2916 3584 3314 3078 
Q 3713 2572 3713 1747 
Q 3713 922 3314 415 
Q 2916 -91 2278 -91 
Q 1894 -91 1617 61 
Q 1341 213 1159 525 
z
M 3116 1747 
Q 3116 2381 2855 2742 
Q 2594 3103 2138 3103 
Q 1681 3103 1420 2742 
Q 1159 2381 1159 1747 
Q 1159 1113 1420 752 
Q 1681 391 2138 391 
Q 2594 391 2855 752 
Q 3116 1113 3116 1747 
z
" transform="scale(0.015625)"/>
       <path id="DejaVuSans-6f" d="M 1959 3097 
Q 1497 3097 1228 2736 
Q 959 2375 959 1747 
Q 959 1119 1226 758 
Q 1494 397 1959 397 
Q 2419 397 2687 759 
Q 2956 1122 2956 1747 
Q 2956 2369 2687 2733 
Q 2419 3097 1959 3097 
z
M 1959 3584 
Q 2709 3584 3137 3096 
Q 3566 2609 3566 1747 
Q 3566 888 3137 398 
Q 2709 -91 1959 -91 
Q 1206 -91 779 398 
Q 353 888 353 1747 
Q 353 2609 779 3096 
Q 1206 3584 1959 3584 
z
" transform="scale(0.015625)"/>
       <path id="DejaVuSans-63" d="M 3122 3366 
L 3122 2828 
Q 2878 2963 2633 3030 
Q 2388 3097 2138 3097 
Q 1578 3097 1268 2742 
Q 959 2388 959 1747 
Q 959 1106 1268 751 
Q 1578 397 2138 397 
Q 2388 397 2633 464 
Q 2878 531 3122 666 
L 3122 134 
Q 2881 22 2623 -34 
Q 2366 -91 2075 -91 
Q 1284 -91 818 406 
Q 353 903 353 1747 
Q 353 2603 823 3093 
Q 1294 3584 2113 3584 
Q 2378 3584 2631 3529 
Q 2884 3475 3122 3366 
z
" transform="scale(0.015625)"/>
       <path id="DejaVuSans-68" d="M 3513 2113 
L 3513 0 
L 2938 0 
L 2938 2094 
Q 2938 2591 2744 2837 
Q 2550 3084 2163 3084 
Q 1697 3084 1428 2787 
Q 1159 2491 1159 1978 
L 1159 0 
L 581 0 
L 581 4863 
L 1159 4863 
L 1159 2956 
Q 1366 3272 1645 3428 
Q 1925 3584 2291 3584 
Q 2894 3584 3203 3211 
Q 3513 2838 3513 2113 
z
" transform="scale(0.015625)"/>
       <path id="DejaVuSans-73" d="M 2834 3397 
L 2834 2853 
Q 2591 2978 2328 3040 
Q 2066 3103 1784 3103 
Q 1356 3103 1142 2972 
Q 928 2841 928 2578 
Q 928 2378 1081 2264 
Q 1234 2150 1697 2047 
L 1894 2003 
Q 2506 1872 2764 1633 
Q 3022 1394 3022 966 
Q 3022 478 2636 193 
Q 2250 -91 1575 -91 
Q 1294 -91 989 -36 
Q 684 19 347 128 
L 347 722 
Q 666 556 975 473 
Q 1284 391 1588 391 
Q 1994 391 2212 530 
Q 2431 669 2431 922 
Q 2431 1156 2273 1281 
Q 2116 1406 1581 1522 
L 1381 1569 
Q 847 1681 609 1914 
Q 372 2147 372 2553 
Q 372 3047 722 3315 
Q 1072 3584 1716 3584 
Q 2034 3584 2315 3537 
Q 2597 3491 2834 3397 
z
" transform="scale(0.015625)"/>
      </defs>
      <use xlink:href="#DejaVuSans-45"/>
      <use xlink:href="#DejaVuSans-70" x="63.183594"/>
      <use xlink:href="#DejaVuSans-6f" x="126.660156"/>
      <use xlink:href="#DejaVuSans-63" x="187.841797"/>
      <use xlink:href="#DejaVuSans-68" x="242.822266"/>
      <use xlink:href="#DejaVuSans-73" x="306.201172"/>
     </g>
    </g>
   </g>
   <g id="matplotlib.axis_2">
    <g id="ytick_1">
     <g id="line2d_11">
      <defs>
       <path id="me837f35d77" d="M 0 0 
L -3.5 0 
" style="stroke: #000000; stroke-width: 0.8"/>
      </defs>
      <g>
       <use xlink:href="#me837f35d77" x="57.6" y="275.584188" style="stroke: #000000; stroke-width: 0.8"/>
      </g>
     </g>
     <g id="text_12">
      <!-- 40 -->
      <g transform="translate(37.875 279.383406) scale(0.1 -0.1)">
       <use xlink:href="#DejaVuSans-34"/>
       <use xlink:href="#DejaVuSans-30" x="63.623047"/>
      </g>
     </g>
    </g>
    <g id="ytick_2">
     <g id="line2d_12">
      <g>
       <use xlink:href="#me837f35d77" x="57.6" y="236.170698" style="stroke: #000000; stroke-width: 0.8"/>
      </g>
     </g>
     <g id="text_13">
      <!-- 50 -->
      <g transform="translate(37.875 239.969917) scale(0.1 -0.1)">
       <defs>
        <path id="DejaVuSans-35" d="M 691 4666 
L 3169 4666 
L 3169 4134 
L 1269 4134 
L 1269 2991 
Q 1406 3038 1543 3061 
Q 1681 3084 1819 3084 
Q 2600 3084 3056 2656 
Q 3513 2228 3513 1497 
Q 3513 744 3044 326 
Q 2575 -91 1722 -91 
Q 1428 -91 1123 -41 
Q 819 9 494 109 
L 494 744 
Q 775 591 1075 516 
Q 1375 441 1709 441 
Q 2250 441 2565 725 
Q 2881 1009 2881 1497 
Q 2881 1984 2565 2268 
Q 2250 2553 1709 2553 
Q 1456 2553 1204 2497 
Q 953 2441 691 2322 
L 691 4666 
z
" transform="scale(0.015625)"/>
       </defs>
       <use xlink:href="#DejaVuSans-35"/>
       <use xlink:href="#DejaVuSans-30" x="63.623047"/>
      </g>
     </g>
    </g>
    <g id="ytick_3">
     <g id="line2d_13">
      <g>
       <use xlink:href="#me837f35d77" x="57.6" y="196.757208" style="stroke: #000000; stroke-width: 0.8"/>
      </g>
     </g>
     <g id="text_14">
      <!-- 60 -->
      <g transform="translate(37.875 200.556427) scale(0.1 -0.1)">
       <use xlink:href="#DejaVuSans-36"/>
       <use xlink:href="#DejaVuSans-30" x="63.623047"/>
      </g>
     </g>
    </g>
    <g id="ytick_4">
     <g id="line2d_14">
      <g>
       <use xlink:href="#me837f35d77" x="57.6" y="157.343718" style="stroke: #000000; stroke-width: 0.8"/>
      </g>
     </g>
     <g id="text_15">
      <!-- 70 -->
      <g transform="translate(37.875 161.142937) scale(0.1 -0.1)">
       <use xlink:href="#DejaVuSans-37"/>
       <use xlink:href="#DejaVuSans-30" x="63.623047"/>
      </g>
     </g>
    </g>
    <g id="ytick_5">
     <g id="line2d_15">
      <g>
       <use xlink:href="#me837f35d77" x="57.6" y="117.930229" style="stroke: #000000; stroke-width: 0.8"/>
      </g>
     </g>
     <g id="text_16">
      <!-- 80 -->
      <g transform="translate(37.875 121.729447) scale(0.1 -0.1)">
       <defs>
        <path id="DejaVuSans-38" d="M 2034 2216 
Q 1584 2216 1326 1975 
Q 1069 1734 1069 1313 
Q 1069 891 1326 650 
Q 1584 409 2034 409 
Q 2484 409 2743 651 
Q 3003 894 3003 1313 
Q 3003 1734 2745 1975 
Q 2488 2216 2034 2216 
z
M 1403 2484 
Q 997 2584 770 2862 
Q 544 3141 544 3541 
Q 544 4100 942 4425 
Q 1341 4750 2034 4750 
Q 2731 4750 3128 4425 
Q 3525 4100 3525 3541 
Q 3525 3141 3298 2862 
Q 3072 2584 2669 2484 
Q 3125 2378 3379 2068 
Q 3634 1759 3634 1313 
Q 3634 634 3220 271 
Q 2806 -91 2034 -91 
Q 1263 -91 848 271 
Q 434 634 434 1313 
Q 434 1759 690 2068 
Q 947 2378 1403 2484 
z
M 1172 3481 
Q 1172 3119 1398 2916 
Q 1625 2713 2034 2713 
Q 2441 2713 2670 2916 
Q 2900 3119 2900 3481 
Q 2900 3844 2670 4047 
Q 2441 4250 2034 4250 
Q 1625 4250 1398 4047 
Q 1172 3844 1172 3481 
z
" transform="scale(0.015625)"/>
       </defs>
       <use xlink:href="#DejaVuSans-38"/>
       <use xlink:href="#DejaVuSans-30" x="63.623047"/>
      </g>
     </g>
    </g>
    <g id="ytick_6">
     <g id="line2d_16">
      <g>
       <use xlink:href="#me837f35d77" x="57.6" y="78.516739" style="stroke: #000000; stroke-width: 0.8"/>
      </g>
     </g>
     <g id="text_17">
      <!-- 90 -->
      <g transform="translate(37.875 82.315958) scale(0.1 -0.1)">
       <defs>
        <path id="DejaVuSans-39" d="M 703 97 
L 703 672 
Q 941 559 1184 500 
Q 1428 441 1663 441 
Q 2288 441 2617 861 
Q 2947 1281 2994 2138 
Q 2813 1869 2534 1725 
Q 2256 1581 1919 1581 
Q 1219 1581 811 2004 
Q 403 2428 403 3163 
Q 403 3881 828 4315 
Q 1253 4750 1959 4750 
Q 2769 4750 3195 4129 
Q 3622 3509 3622 2328 
Q 3622 1225 3098 567 
Q 2575 -91 1691 -91 
Q 1453 -91 1209 -44 
Q 966 3 703 97 
z
M 1959 2075 
Q 2384 2075 2632 2365 
Q 2881 2656 2881 3163 
Q 2881 3666 2632 3958 
Q 2384 4250 1959 4250 
Q 1534 4250 1286 3958 
Q 1038 3666 1038 3163 
Q 1038 2656 1286 2365 
Q 1534 2075 1959 2075 
z
" transform="scale(0.015625)"/>
       </defs>
       <use xlink:href="#DejaVuSans-39"/>
       <use xlink:href="#DejaVuSans-30" x="63.623047"/>
      </g>
     </g>
    </g>
    <g id="text_18">
     <!-- Accuracy -->
     <g transform="translate(31.795312 197.356125) rotate(-90) scale(0.1 -0.1)">
      <defs>
       <path id="DejaVuSans-41" d="M 2188 4044 
L 1331 1722 
L 3047 1722 
L 2188 4044 
z
M 1831 4666 
L 2547 4666 
L 4325 0 
L 3669 0 
L 3244 1197 
L 1141 1197 
L 716 0 
L 50 0 
L 1831 4666 
z
" transform="scale(0.015625)"/>
       <path id="DejaVuSans-75" d="M 544 1381 
L 544 3500 
L 1119 3500 
L 1119 1403 
Q 1119 906 1312 657 
Q 1506 409 1894 409 
Q 2359 409 2629 706 
Q 2900 1003 2900 1516 
L 2900 3500 
L 3475 3500 
L 3475 0 
L 2900 0 
L 2900 538 
Q 2691 219 2414 64 
Q 2138 -91 1772 -91 
Q 1169 -91 856 284 
Q 544 659 544 1381 
z
M 1991 3584 
L 1991 3584 
z
" transform="scale(0.015625)"/>
       <path id="DejaVuSans-72" d="M 2631 2963 
Q 2534 3019 2420 3045 
Q 2306 3072 2169 3072 
Q 1681 3072 1420 2755 
Q 1159 2438 1159 1844 
L 1159 0 
L 581 0 
L 581 3500 
L 1159 3500 
L 1159 2956 
Q 1341 3275 1631 3429 
Q 1922 3584 2338 3584 
Q 2397 3584 2469 3576 
Q 2541 3569 2628 3553 
L 2631 2963 
z
" transform="scale(0.015625)"/>
       <path id="DejaVuSans-61" d="M 2194 1759 
Q 1497 1759 1228 1600 
Q 959 1441 959 1056 
Q 959 750 1161 570 
Q 1363 391 1709 391 
Q 2188 391 2477 730 
Q 2766 1069 2766 1631 
L 2766 1759 
L 2194 1759 
z
M 3341 1997 
L 3341 0 
L 2766 0 
L 2766 531 
Q 2569 213 2275 61 
Q 1981 -91 1556 -91 
Q 1019 -91 701 211 
Q 384 513 384 1019 
Q 384 1609 779 1909 
Q 1175 2209 1959 2209 
L 2766 2209 
L 2766 2266 
Q 2766 2663 2505 2880 
Q 2244 3097 1772 3097 
Q 1472 3097 1187 3025 
Q 903 2953 641 2809 
L 641 3341 
Q 956 3463 1253 3523 
Q 1550 3584 1831 3584 
Q 2591 3584 2966 3190 
Q 3341 2797 3341 1997 
z
" transform="scale(0.015625)"/>
       <path id="DejaVuSans-79" d="M 2059 -325 
Q 1816 -950 1584 -1140 
Q 1353 -1331 966 -1331 
L 506 -1331 
L 506 -850 
L 844 -850 
Q 1081 -850 1212 -737 
Q 1344 -625 1503 -206 
L 1606 56 
L 191 3500 
L 800 3500 
L 1894 763 
L 2988 3500 
L 3597 3500 
L 2059 -325 
z
" transform="scale(0.015625)"/>
      </defs>
      <use xlink:href="#DejaVuSans-41"/>
      <use xlink:href="#DejaVuSans-63" x="66.658203"/>
      <use xlink:href="#DejaVuSans-63" x="121.638672"/>
      <use xlink:href="#DejaVuSans-75" x="176.619141"/>
      <use xlink:href="#DejaVuSans-72" x="239.998047"/>
      <use xlink:href="#DejaVuSans-61" x="281.111328"/>
      <use xlink:href="#DejaVuSans-63" x="342.390625"/>
      <use xlink:href="#DejaVuSans-79" x="397.371094"/>
     </g>
    </g>
   </g>
   <g id="line2d_17">
    <path d="M 73.832727 295.488 
L 74.918528 221.642886 
L 76.00433 190.719062 
L 77.090131 172.092246 
L 78.175932 161.813208 
L 79.261733 153.11071 
L 80.347534 145.393548 
L 81.433335 140.16732 
L 82.519137 134.152821 
L 83.604938 131.496352 
L 84.690739 125.418792 
L 85.77654 120.933537 
L 87.948142 116.101443 
L 89.033943 110.165771 
L 90.119745 110.291894 
L 91.205546 106.618557 
L 92.291347 104.93166 
L 93.377148 102.803331 
L 94.462949 101.991413 
L 95.54875 128.847765 
L 96.634552 128.13044 
L 97.720353 124.330979 
L 98.806154 123.132809 
L 99.891955 121.390733 
L 100.977756 120.452692 
L 102.063557 117.662217 
L 103.149358 116.259097 
L 104.23516 114.154416 
L 105.320961 113.058721 
L 106.406762 112.32563 
L 107.492563 110.047531 
L 108.578364 107.454123 
L 109.664165 108.313337 
L 110.749967 107.225525 
L 111.835768 104.821302 
L 112.921569 103.583718 
L 114.00737 101.959883 
L 115.093171 100.895718 
L 116.178972 98.727977 
L 117.264773 97.096258 
L 118.350575 95.66949 
L 119.436376 96.583883 
L 120.522177 93.919531 
L 121.607978 93.919531 
L 122.693779 91.468012 
L 124.865382 88.984962 
L 125.951183 89.371214 
L 127.036984 86.328493 
L 128.122785 86.186604 
L 129.208586 84.633713 
L 130.294387 83.75085 
L 131.380189 82.536915 
L 132.46599 83.01776 
L 133.551791 81.622522 
L 134.637592 83.25424 
L 135.723393 82.52115 
L 136.809194 81.433337 
L 137.894995 80.526827 
L 138.980797 104.734592 
L 140.066598 107.280704 
L 141.152399 105.901232 
L 142.2382 105.25485 
L 143.324001 103.631015 
L 144.409802 103.765021 
L 145.495604 103.165935 
L 146.581405 101.983531 
L 147.667206 102.787566 
L 148.753007 101.305619 
L 149.838808 100.714416 
L 150.924609 99.800023 
L 152.01041 100.682886 
L 153.096212 99.831554 
L 154.182013 98.06583 
L 155.267814 97.222381 
L 156.353615 96.788833 
L 157.439416 97.498276 
L 158.525217 95.58278 
L 159.611019 95.299003 
L 160.69682 96.544469 
L 161.782621 95.590663 
L 162.868422 94.400375 
L 163.954223 95.062522 
L 165.040024 94.061419 
L 166.125825 93.888 
L 167.211627 94.219073 
L 168.297428 91.633548 
L 169.383229 92.934194 
L 170.46903 92.713478 
L 171.554831 89.702287 
L 172.640632 89.883589 
L 173.726434 90.892575 
L 174.812235 88.9219 
L 175.898036 89.481572 
L 176.983837 88.669654 
L 178.069638 88.441056 
L 179.155439 86.549208 
L 180.24124 86.746276 
L 181.327042 86.825103 
L 182.412843 85.981654 
L 183.498644 86.123543 
L 184.584445 85.571754 
L 185.670246 83.348833 
L 186.756047 84.160751 
L 190.013451 81.598874 
L 191.099252 81.338745 
L 192.185053 81.330862 
L 193.270854 80.053865 
L 194.356656 80.881548 
L 195.442457 79.557255 
L 196.528258 79.494194 
L 197.614059 78.611331 
L 198.69986 78.776868 
L 199.785661 77.105736 
L 201.957264 76.025806 
L 203.043065 76.080985 
L 205.214667 74.086663 
L 206.300468 75.403073 
L 207.386269 74.394088 
L 208.472071 73.810768 
L 209.557872 72.801783 
L 210.643673 73.645232 
L 211.729474 72.983085 
L 212.815275 71.635144 
L 213.901076 71.296188 
L 214.986877 71.579965 
L 216.072679 71.997748 
L 218.244281 71.367132 
L 219.330082 70.263554 
L 220.415883 70.539449 
L 221.501684 70.334499 
L 222.587486 70.476387 
L 223.673287 70.452739 
L 224.759088 70.121666 
L 225.844889 95.109818 
L 226.93069 95.535484 
L 228.016491 96.946487 
L 229.102292 97.175085 
L 231.273895 95.385713 
L 232.359696 95.180762 
L 233.445497 95.330534 
L 234.531298 95.17288 
L 235.617099 94.242721 
L 236.702901 94.00624 
L 237.788702 93.257384 
L 238.874503 92.697713 
L 239.960304 92.902663 
L 241.046105 92.934194 
L 242.131906 92.082862 
L 243.217708 92.642534 
L 244.303509 92.10651 
L 245.38931 92.445466 
L 246.475111 90.955636 
L 247.560912 90.403848 
L 248.646713 90.395965 
L 249.732514 90.679742 
L 250.818316 90.608798 
L 251.904117 89.757466 
L 252.989918 89.560399 
L 254.075719 90.395965 
L 255.16152 89.702287 
L 256.247321 88.63024 
L 257.333123 89.284504 
L 258.418924 88.401642 
L 259.504725 89.402745 
L 260.590526 88.031155 
L 261.676327 89.654991 
L 262.762128 88.141513 
L 263.847929 88.622358 
L 264.933731 87.920798 
L 267.105333 89.662874 
L 268.191134 87.471484 
L 269.276935 87.550311 
L 270.362736 87.069466 
L 271.448538 86.430968 
L 272.534339 87.455718 
L 273.62014 86.147191 
L 274.705941 87.164059 
L 275.791742 85.674229 
L 276.877543 86.651683 
L 277.963344 85.721525 
L 280.134947 85.839765 
L 281.220748 84.137103 
L 282.306549 84.846545 
L 283.39235 83.884856 
L 284.478151 85.477161 
L 285.563953 84.026745 
L 286.649754 85.146088 
L 287.735555 84.996317 
L 288.821356 84.610065 
L 289.907157 84.010979 
L 290.992958 84.263226 
L 292.07876 82.773396 
L 293.164561 83.813912 
L 294.250362 82.05607 
L 295.336163 82.663038 
L 296.421964 82.836457 
L 297.507765 82.686686 
L 298.593566 81.480633 
L 300.765169 82.529032 
L 301.85097 81.693466 
L 302.936771 81.480633 
L 304.022572 81.078616 
L 305.108373 81.054968 
L 306.194175 80.723894 
L 307.279976 79.990804 
L 308.365777 80.258815 
L 309.451578 79.407484 
L 310.537379 79.967155 
L 311.62318 78.437912 
L 312.708981 80.109044 
L 314.880584 78.114721 
L 315.966385 78.595566 
L 317.052186 78.162018 
L 318.137987 78.445795 
L 319.223788 77.901889 
L 320.30959 76.664305 
L 321.395391 77.870358 
L 322.481192 77.594463 
L 323.566993 76.128282 
L 324.652794 76.68007 
L 325.738595 75.663202 
L 326.824396 76.412059 
L 327.910198 75.024704 
L 328.995999 75.734147 
L 331.167601 74.102428 
L 332.253402 74.646334 
L 333.339203 73.913243 
L 334.425005 75.111413 
L 335.510806 73.416633 
L 336.596607 73.653114 
L 337.682408 73.542757 
L 338.768209 72.904258 
L 339.85401 71.824328 
L 342.025613 72.652012 
L 343.111414 71.611496 
L 344.197215 71.493255 
L 345.283016 70.949349 
L 346.368817 70.988762 
L 347.454618 70.838991 
L 348.54042 70.421208 
L 349.626221 71.091238 
L 350.712022 70.168962 
L 351.797823 69.885185 
L 352.883624 70.436974 
L 353.969425 69.78271 
L 355.055227 68.458416 
L 356.141028 69.175742 
L 357.226829 68.687015 
L 358.31263 68.813138 
L 359.398431 68.111578 
L 360.484232 68.41112 
L 361.570033 68.072164 
L 362.655835 68.158874 
L 363.741636 67.078944 
L 364.827437 67.197185 
L 365.913238 67.102592 
L 366.999039 67.985455 
L 368.08484 66.542921 
L 369.170642 68.048516 
L 370.256443 68.348059 
L 371.342244 69.530463 
L 372.428045 69.128446 
L 373.513846 69.159977 
L 374.599647 70.413326 
L 376.77125 70.452739 
L 377.857051 70.145314 
L 378.942852 69.98766 
L 380.028653 70.161079 
L 381.114454 70.034956 
L 382.200255 69.735413 
L 383.286057 70.287202 
L 384.371858 69.546229 
L 385.457659 70.657689 
L 387.629261 68.742194 
L 388.715062 70.515801 
L 389.800863 69.301865 
L 390.886665 70.050721 
L 391.972466 71.509021 
L 393.058267 70.373912 
L 394.144068 69.98766 
L 395.229869 71.020293 
L 396.31567 69.877302 
L 397.401472 70.515801 
L 398.487273 70.547331 
L 398.487273 70.547331 
" clip-path="url(#p15e28f59ba)" style="fill: none; stroke: #1f77b4; stroke-width: 1.5; stroke-linecap: square"/>
   </g>
   <g id="line2d_18">
    <path d="M 73.832727 227.539144 
L 74.918528 184.263132 
L 76.00433 157.304305 
L 77.090131 152.653513 
L 78.175932 139.489408 
L 79.261733 121.359202 
L 80.347534 114.855977 
L 81.433335 104.766123 
L 82.519137 110.875214 
L 83.604938 99.957677 
L 84.690739 98.814686 
L 85.77654 87.463601 
L 86.862341 85.611167 
L 89.033943 81.196856 
L 90.119745 82.694569 
L 91.205546 78.75322 
L 92.291347 78.75322 
L 93.377148 76.900786 
L 94.462949 77.767883 
L 95.54875 99.87885 
L 96.634552 96.883425 
L 97.720353 96.095155 
L 98.806154 95.543367 
L 99.891955 91.010815 
L 100.977756 88.567179 
L 102.063557 89.473689 
L 103.149358 84.349935 
L 104.23516 83.71932 
L 105.320961 85.611167 
L 106.406762 84.507589 
L 107.492563 86.478264 
L 108.578364 84.468176 
L 109.664165 83.876974 
L 110.749967 79.383836 
L 111.835768 79.344422 
L 112.921569 79.147355 
L 116.178972 72.289408 
L 117.264773 70.634041 
L 118.350575 72.210581 
L 119.436376 72.525889 
L 120.522177 70.436974 
L 121.607978 71.934686 
L 122.693779 70.752282 
L 123.77958 67.756856 
L 124.865382 70.200493 
L 125.951183 69.293982 
L 127.036984 65.707355 
L 128.122785 66.968587 
L 129.208586 65.746768 
L 130.294387 66.416798 
L 131.380189 64.879672 
L 132.46599 65.155566 
L 133.551791 64.485537 
L 134.637592 63.539613 
L 136.809194 64.170229 
L 137.894995 63.61844 
L 138.980797 80.842135 
L 140.066598 78.910874 
L 141.152399 84.428762 
L 142.2382 84.822897 
L 143.324001 79.856798 
L 144.409802 85.217032 
L 145.495604 80.56624 
L 146.581405 81.078616 
L 147.667206 75.876035 
L 148.753007 78.595566 
L 149.838808 75.442487 
L 150.924609 72.722956 
L 152.01041 76.821959 
L 153.096212 74.535977 
L 154.182013 74.851284 
L 155.267814 73.235331 
L 156.353615 71.855859 
L 157.439416 76.546065 
L 158.525217 76.900786 
L 159.611019 74.69363 
L 160.69682 75.206006 
L 161.782621 78.950287 
L 162.868422 71.107003 
L 163.954223 73.629466 
L 165.040024 72.76237 
L 167.211627 71.619378 
L 168.297428 69.412223 
L 169.383229 69.688117 
L 170.46903 68.70278 
L 171.554831 68.623953 
L 172.640632 69.412223 
L 174.812235 67.79627 
L 175.898036 67.678029 
L 176.983837 66.692692 
L 178.069638 67.362721 
L 179.155439 71.698205 
L 180.24124 66.21973 
L 181.327042 64.446123 
L 182.412843 66.377384 
L 184.584445 63.61844 
L 185.670246 62.908997 
L 186.756047 64.800845 
L 187.841849 66.10149 
L 188.92765 65.589114 
L 190.013451 64.722018 
L 191.099252 65.116152 
L 192.185053 61.687179 
L 193.270854 63.184891 
L 194.356656 61.963073 
L 195.442457 62.081314 
L 196.528258 62.83017 
L 197.614059 62.317795 
L 198.69986 60.268293 
L 199.785661 60.425947 
L 200.871462 61.529525 
L 201.957264 59.007062 
L 203.043065 59.913572 
L 204.128866 59.755918 
L 205.214667 59.361783 
L 207.386269 58.100551 
L 208.472071 57.667003 
L 209.557872 57.430522 
L 210.643673 58.928235 
L 211.729474 57.86407 
L 212.815275 57.194041 
L 213.901076 57.588176 
L 214.986877 56.996974 
L 216.072679 57.036387 
L 217.15848 56.642252 
L 218.244281 56.681666 
L 219.330082 56.602839 
L 221.501684 56.918147 
L 222.587486 56.681666 
L 223.673287 56.642252 
L 224.759088 56.918147 
L 225.844889 73.511226 
L 226.93069 70.200493 
L 228.016491 77.05844 
L 229.102292 72.131754 
L 230.188094 74.299496 
L 231.273895 74.063015 
L 232.359696 73.235331 
L 233.445497 70.988762 
L 234.531298 70.358147 
L 235.617099 68.072164 
L 236.702901 73.66888 
L 237.788702 70.042839 
L 238.874503 71.658792 
L 239.960304 68.308645 
L 241.046105 68.348059 
L 242.131906 67.79627 
L 243.217708 70.634041 
L 244.303509 69.136328 
L 245.38931 76.861372 
L 246.475111 69.451636 
L 247.560912 71.382897 
L 248.646713 68.111578 
L 249.732514 68.032751 
L 250.818316 69.018088 
L 251.904117 68.387472 
L 252.989918 69.096915 
L 254.075719 68.426886 
L 255.16152 69.096915 
L 256.247321 68.978674 
L 257.333123 68.663367 
L 258.418924 71.343484 
L 259.504725 66.968587 
L 260.590526 69.766944 
L 261.676327 65.076739 
L 262.762128 66.21973 
L 263.847929 65.707355 
L 264.933731 67.520375 
L 266.019532 66.692692 
L 267.105333 65.194979 
L 268.191134 66.337971 
L 269.276935 66.10149 
L 270.362736 72.525889 
L 271.448538 65.825595 
L 272.534339 64.446123 
L 273.62014 67.91451 
L 274.705941 63.539613 
L 275.791742 65.116152 
L 276.877543 64.840258 
L 277.963344 63.815507 
L 279.049146 65.510287 
L 280.134947 62.278381 
L 281.220748 65.983249 
L 282.306549 64.327883 
L 283.39235 68.387472 
L 284.478151 63.697267 
L 285.563953 61.766006 
L 286.649754 67.008 
L 287.735555 62.672516 
L 288.821356 63.973161 
L 289.907157 65.983249 
L 290.992958 62.514862 
L 292.07876 65.31322 
L 294.250362 62.317795 
L 295.336163 64.879672 
L 296.421964 64.40671 
L 297.507765 64.209642 
L 298.593566 62.199554 
L 299.679368 62.514862 
L 300.765169 61.490111 
L 301.85097 61.92366 
L 302.936771 62.593689 
L 305.108373 61.568938 
L 306.194175 61.174804 
L 307.279976 60.938323 
L 308.365777 62.672516 
L 309.451578 61.647765 
L 310.537379 59.243543 
L 311.62318 63.854921 
L 312.708981 62.238968 
L 313.794783 62.436035 
L 314.880584 62.436035 
L 315.966385 59.755918 
L 317.052186 61.529525 
L 318.137987 60.071226 
L 319.223788 59.992399 
L 320.30959 61.056563 
L 321.395391 60.386534 
L 322.481192 60.386534 
L 323.566993 60.544188 
L 324.652794 60.425947 
L 325.738595 59.243543 
L 326.824396 59.480023 
L 327.910198 57.706416 
L 328.995999 59.007062 
L 330.0818 60.544188 
L 332.253402 58.297619 
L 333.339203 59.007062 
L 334.425005 59.204129 
L 335.510806 59.204129 
L 336.596607 56.996974 
L 337.682408 58.849408 
L 338.768209 57.785243 
L 339.85401 57.469935 
L 340.939811 56.642252 
L 342.025613 57.942897 
L 343.111414 57.982311 
L 344.197215 58.218792 
L 345.283016 58.139965 
L 346.368817 57.86407 
L 347.454618 58.415859 
L 348.54042 57.588176 
L 349.626221 55.26278 
L 350.712022 55.302194 
L 351.797823 57.942897 
L 352.883624 55.223367 
L 353.969425 55.459848 
L 355.055227 54.868645 
L 357.226829 56.681666 
L 358.31263 56.563425 
L 359.398431 55.775155 
L 360.484232 55.499261 
L 362.655835 56.95756 
L 363.741636 55.656915 
L 364.827437 55.578088 
L 365.913238 54.868645 
L 366.999039 54.750405 
L 368.08484 55.065713 
L 369.170642 54.198616 
L 370.256443 55.538674 
L 371.342244 55.696328 
L 372.428045 56.326944 
L 373.513846 56.208704 
L 374.599647 56.681666 
L 375.685448 55.972223 
L 376.77125 56.602839 
L 377.857051 56.326944 
L 378.942852 55.853982 
L 380.028653 57.075801 
L 381.114454 57.430522 
L 382.200255 56.405771 
L 383.286057 56.83932 
L 384.371858 55.893396 
L 385.457659 55.972223 
L 386.54346 56.484598 
L 387.629261 57.548762 
L 388.715062 56.287531 
L 389.800863 57.194041 
L 390.886665 56.996974 
L 391.972466 55.26278 
L 394.144068 57.785243 
L 395.229869 55.735742 
L 396.31567 58.179378 
L 397.401472 55.932809 
L 398.487273 56.445185 
L 398.487273 56.445185 
" clip-path="url(#p15e28f59ba)" style="fill: none; stroke: #ff7f0e; stroke-width: 1.5; stroke-linecap: square"/>
   </g>
   <g id="line2d_19">
    <path d="M 73.832727 254.545539 
L 74.918528 221.057663 
L 76.00433 201.459645 
L 77.090131 203.688546 
L 78.175932 182.921714 
L 79.261733 171.885937 
L 80.347534 162.018974 
L 81.433335 143.807223 
L 82.519137 154.000367 
L 83.604938 144.486766 
L 84.690739 152.994644 
L 85.77654 132.581174 
L 86.862341 131.602632 
L 87.948142 127.851555 
L 89.033943 128.204918 
L 90.119745 124.12766 
L 91.205546 123.448117 
L 92.291347 122.007486 
L 93.377148 120.757127 
L 94.462949 120.974581 
L 95.54875 140.89878 
L 96.634552 143.263589 
L 97.720353 149.868746 
L 98.806154 149.080476 
L 99.891955 128.612644 
L 100.977756 133.695625 
L 102.063557 137.41952 
L 103.149358 127.008922 
L 104.23516 128.884461 
L 105.320961 128.503917 
L 106.406762 131.031816 
L 107.492563 135.815799 
L 108.578364 131.820086 
L 109.664165 130.406637 
L 110.749967 121.409489 
L 111.835768 135.734253 
L 112.921569 126.601196 
L 114.00737 123.855843 
L 115.093171 117.604048 
L 117.264773 109.476715 
L 118.350575 118.473863 
L 120.522177 111.596889 
L 121.607978 116.326507 
L 122.693779 113.581154 
L 123.77958 114.124788 
L 124.865382 115.646965 
L 125.951183 114.885876 
L 127.036984 104.149098 
L 128.122785 110.67271 
L 129.208586 105.100458 
L 130.294387 108.470991 
L 131.380189 108.905899 
L 132.46599 107.329359 
L 133.551791 105.263549 
L 135.723393 105.616911 
L 136.809194 105.046095 
L 137.894995 104.910186 
L 138.980797 127.172013 
L 140.066598 126.465288 
L 141.152399 136.549705 
L 142.2382 131.031816 
L 143.324001 129.373732 
L 144.409802 131.901631 
L 145.495604 124.481023 
L 146.581405 123.611208 
L 147.667206 119.968858 
L 148.753007 129.373732 
L 150.924609 116.05469 
L 152.01041 126.65556 
L 153.096212 116.136235 
L 154.182013 117.522503 
L 155.267814 117.00605 
L 156.353615 108.824354 
L 157.439416 120.566855 
L 158.525217 120.594037 
L 159.611019 116.353689 
L 160.69682 121.980305 
L 161.782621 126.465288 
L 162.868422 114.967422 
L 163.954223 114.559696 
L 165.040024 119.588313 
L 166.125825 116.190599 
L 167.211627 119.343678 
L 168.297428 113.880153 
L 169.383229 110.998891 
L 170.46903 113.336519 
L 171.554831 107.465268 
L 172.640632 116.761415 
L 173.726434 113.689881 
L 174.812235 111.814342 
L 175.898036 108.987444 
L 176.983837 112.031796 
L 178.069638 110.319348 
L 179.155439 117.576866 
L 181.327042 103.795736 
L 183.498644 108.661263 
L 184.584445 105.807183 
L 185.670246 103.659827 
L 186.756047 103.5511 
L 187.841849 108.416628 
L 188.92765 106.731361 
L 190.013451 102.654104 
L 191.099252 101.376563 
L 192.185053 97.571123 
L 193.270854 101.594017 
L 194.356656 100.561112 
L 195.442457 100.099022 
L 196.528258 98.522483 
L 197.614059 102.355105 
L 198.69986 96.646944 
L 199.785661 93.874409 
L 200.871462 95.124768 
L 201.957264 98.141939 
L 203.043065 95.31504 
L 204.128866 96.293582 
L 205.214667 95.532494 
L 206.300468 95.559676 
L 207.386269 92.053234 
L 208.472071 93.521047 
L 209.557872 92.134779 
L 210.643673 91.101874 
L 211.729474 92.243506 
L 212.815275 91.591145 
L 213.901076 91.727053 
L 214.986877 91.563963 
L 216.072679 91.591145 
L 217.15848 90.55824 
L 218.244281 89.362244 
L 219.330082 90.068969 
L 220.415883 89.715606 
L 221.501684 90.639785 
L 222.587486 90.395149 
L 223.673287 89.362244 
L 224.759088 90.55824 
L 225.844889 115.130512 
L 226.93069 113.662699 
L 228.016491 124.725658 
L 229.102292 116.353689 
L 230.188094 119.778585 
L 231.273895 118.74568 
L 232.359696 116.217781 
L 233.445497 112.602612 
L 234.531298 116.027509 
L 235.617099 108.226356 
L 236.702901 122.007486 
L 237.788702 115.72851 
L 238.874503 116.951687 
L 239.960304 109.911622 
L 241.046105 114.097607 
L 242.131906 117.250686 
L 243.217708 111.651252 
L 244.303509 114.206334 
L 245.38931 118.501045 
L 246.475111 113.880153 
L 247.560912 115.973145 
L 248.646713 110.727074 
L 249.732514 111.080436 
L 250.818316 112.901611 
L 251.904117 112.194886 
L 254.075719 109.802895 
L 255.16152 119.751404 
L 257.333123 107.057542 
L 258.418924 114.342242 
L 259.504725 108.742808 
L 260.590526 115.402329 
L 261.676327 106.70418 
L 263.847929 103.659827 
L 264.933731 113.825789 
L 266.019532 111.596889 
L 267.105333 104.502461 
L 268.191134 102.762831 
L 269.276935 105.100458 
L 270.362736 115.782873 
L 271.448538 105.671274 
L 272.534339 99.256389 
L 273.62014 116.67987 
L 274.705941 107.193451 
L 275.791742 110.183439 
L 276.877543 106.187727 
L 277.963344 102.626922 
L 279.049146 108.579718 
L 280.134947 100.180567 
L 281.220748 105.671274 
L 282.306549 107.682721 
L 283.39235 108.226356 
L 284.478151 102.192015 
L 285.563953 102.137651 
L 286.649754 112.08616 
L 287.735555 101.240654 
L 288.821356 101.621199 
L 289.907157 110.699892 
L 290.992958 102.817194 
L 292.07876 105.644093 
L 293.164561 105.616911 
L 294.250362 97.978848 
L 295.336163 103.22492 
L 296.421964 107.057542 
L 297.507765 100.099022 
L 298.593566 105.671274 
L 299.679368 102.110469 
L 300.765169 101.757107 
L 301.85097 96.511036 
L 302.936771 104.230643 
L 304.022572 100.561112 
L 305.108373 99.147662 
L 306.194175 98.604028 
L 307.279976 102.626922 
L 308.365777 104.01319 
L 309.451578 99.229207 
L 310.537379 96.456672 
L 311.62318 104.149098 
L 312.708981 97.951667 
L 314.880584 98.875845 
L 315.966385 96.945943 
L 317.052186 101.213473 
L 318.137987 100.805747 
L 319.223788 94.581134 
L 320.30959 100.615475 
L 321.395391 101.349381 
L 322.481192 98.549664 
L 323.566993 97.21776 
L 324.652794 96.755671 
L 325.738595 97.489578 
L 326.824396 96.076128 
L 327.910198 96.184855 
L 330.0818 97.244942 
L 331.167601 94.880133 
L 332.253402 91.455236 
L 333.339203 97.462396 
L 334.425005 91.645508 
L 335.510806 96.429491 
L 336.596607 90.123332 
L 337.682408 92.325051 
L 338.768209 91.210601 
L 339.85401 96.375127 
L 340.939811 90.286422 
L 342.025613 90.204877 
L 343.111414 92.379415 
L 344.197215 92.895867 
L 345.283016 90.775693 
L 346.368817 91.346509 
L 347.454618 94.825769 
L 348.54042 91.428055 
L 349.626221 88.546793 
L 350.712022 89.008882 
L 351.797823 90.177696 
L 352.883624 89.443789 
L 353.969425 89.036064 
L 355.055227 87.894431 
L 356.141028 86.236347 
L 357.226829 90.612603 
L 358.31263 89.443789 
L 359.398431 86.236347 
L 360.484232 86.562527 
L 361.570033 86.426619 
L 362.655835 88.410884 
L 363.741636 91.237783 
L 364.827437 83.463812 
L 366.999039 88.709883 
L 368.08484 85.611167 
L 369.170642 87.975977 
L 370.256443 86.616891 
L 371.342244 91.047511 
L 372.428045 92.542505 
L 373.513846 88.274975 
L 374.599647 91.020329 
L 375.685448 87.377979 
L 376.77125 87.840068 
L 377.857051 89.579698 
L 378.942852 90.367968 
L 380.028653 87.513887 
L 381.114454 92.053234 
L 382.200255 87.622614 
L 384.371858 93.439502 
L 385.457659 90.313604 
L 386.54346 92.569687 
L 387.629261 89.14479 
L 388.715062 88.329339 
L 389.800863 92.569687 
L 390.886665 89.253517 
L 391.972466 88.057522 
L 393.058267 89.171972 
L 394.144068 88.737065 
L 395.229869 87.622614 
L 396.31567 90.88442 
L 397.401472 88.519611 
L 398.487273 87.731341 
L 398.487273 87.731341 
" clip-path="url(#p15e28f59ba)" style="fill: none; stroke: #2ca02c; stroke-width: 1.5; stroke-linecap: square"/>
   </g>
   <g id="line2d_20">
    <path d="M 368.08484 54.671578 
L 369.170642 54.435097 
L 371.342244 54.986886 
L 372.428045 53.607413 
L 373.513846 54.238029 
L 374.599647 54.632164 
L 375.685448 53.765067 
L 376.77125 53.568 
L 378.942852 54.040962 
L 381.114454 53.568 
L 382.200255 54.198616 
L 383.286057 55.302194 
L 384.371858 54.119789 
L 385.457659 54.198616 
L 387.629261 56.484598 
L 388.715062 57.272868 
L 389.800863 55.814569 
L 390.886665 56.248117 
L 391.972466 54.750405 
L 393.058267 55.105126 
L 394.144068 54.001548 
L 395.229869 55.853982 
L 396.31567 54.710991 
L 397.401472 56.090463 
L 398.487273 54.908059 
L 398.487273 54.908059 
" clip-path="url(#p15e28f59ba)" style="fill: none; stroke: #d62728; stroke-width: 1.5; stroke-linecap: square"/>
   </g>
   <g id="line2d_21">
    <path d="M 368.08484 86.154801 
L 369.170642 87.486706 
L 370.256443 84.632625 
L 371.342244 86.943071 
L 372.428045 83.898719 
L 373.513846 83.817174 
L 375.685448 88.247794 
L 376.77125 86.562527 
L 377.857051 82.213453 
L 378.942852 83.545357 
L 380.028653 83.572538 
L 381.114454 84.632625 
L 382.200255 83.164813 
L 383.286057 86.508164 
L 384.371858 84.333626 
L 385.457659 84.034628 
L 386.54346 84.360808 
L 387.629261 86.181983 
L 388.715062 84.2249 
L 389.800863 84.632625 
L 390.886665 88.601156 
L 391.972466 84.034628 
L 393.058267 86.997435 
L 394.144068 84.496717 
L 395.229869 84.55108 
L 396.31567 83.626902 
L 397.401472 86.181983 
L 398.487273 81.995999 
L 398.487273 81.995999 
" clip-path="url(#p15e28f59ba)" style="fill: none; stroke: #9467bd; stroke-width: 1.5; stroke-linecap: square"/>
   </g>
   <g id="patch_3">
    <path d="M 57.6 307.584 
L 57.6 41.472 
" style="fill: none; stroke: #000000; stroke-width: 0.8; stroke-linejoin: miter; stroke-linecap: square"/>
   </g>
   <g id="patch_4">
    <path d="M 414.72 307.584 
L 414.72 41.472 
" style="fill: none; stroke: #000000; stroke-width: 0.8; stroke-linejoin: miter; stroke-linecap: square"/>
   </g>
   <g id="patch_5">
    <path d="M 57.6 307.584 
L 414.72 307.584 
" style="fill: none; stroke: #000000; stroke-width: 0.8; stroke-linejoin: miter; stroke-linecap: square"/>
   </g>
   <g id="patch_6">
    <path d="M 57.6 41.472 
L 414.72 41.472 
" style="fill: none; stroke: #000000; stroke-width: 0.8; stroke-linejoin: miter; stroke-linecap: square"/>
   </g>
   <g id="text_19">
    <!-- Learning Curves -->
    <g transform="translate(187.37625 35.472) scale(0.12 -0.12)">
     <defs>
      <path id="DejaVuSans-4c" d="M 628 4666 
L 1259 4666 
L 1259 531 
L 3531 531 
L 3531 0 
L 628 0 
L 628 4666 
z
" transform="scale(0.015625)"/>
      <path id="DejaVuSans-65" d="M 3597 1894 
L 3597 1613 
L 953 1613 
Q 991 1019 1311 708 
Q 1631 397 2203 397 
Q 2534 397 2845 478 
Q 3156 559 3463 722 
L 3463 178 
Q 3153 47 2828 -22 
Q 2503 -91 2169 -91 
Q 1331 -91 842 396 
Q 353 884 353 1716 
Q 353 2575 817 3079 
Q 1281 3584 2069 3584 
Q 2775 3584 3186 3129 
Q 3597 2675 3597 1894 
z
M 3022 2063 
Q 3016 2534 2758 2815 
Q 2500 3097 2075 3097 
Q 1594 3097 1305 2825 
Q 1016 2553 972 2059 
L 3022 2063 
z
" transform="scale(0.015625)"/>
      <path id="DejaVuSans-6e" d="M 3513 2113 
L 3513 0 
L 2938 0 
L 2938 2094 
Q 2938 2591 2744 2837 
Q 2550 3084 2163 3084 
Q 1697 3084 1428 2787 
Q 1159 2491 1159 1978 
L 1159 0 
L 581 0 
L 581 3500 
L 1159 3500 
L 1159 2956 
Q 1366 3272 1645 3428 
Q 1925 3584 2291 3584 
Q 2894 3584 3203 3211 
Q 3513 2838 3513 2113 
z
" transform="scale(0.015625)"/>
      <path id="DejaVuSans-69" d="M 603 3500 
L 1178 3500 
L 1178 0 
L 603 0 
L 603 3500 
z
M 603 4863 
L 1178 4863 
L 1178 4134 
L 603 4134 
L 603 4863 
z
" transform="scale(0.015625)"/>
      <path id="DejaVuSans-67" d="M 2906 1791 
Q 2906 2416 2648 2759 
Q 2391 3103 1925 3103 
Q 1463 3103 1205 2759 
Q 947 2416 947 1791 
Q 947 1169 1205 825 
Q 1463 481 1925 481 
Q 2391 481 2648 825 
Q 2906 1169 2906 1791 
z
M 3481 434 
Q 3481 -459 3084 -895 
Q 2688 -1331 1869 -1331 
Q 1566 -1331 1297 -1286 
Q 1028 -1241 775 -1147 
L 775 -588 
Q 1028 -725 1275 -790 
Q 1522 -856 1778 -856 
Q 2344 -856 2625 -561 
Q 2906 -266 2906 331 
L 2906 616 
Q 2728 306 2450 153 
Q 2172 0 1784 0 
Q 1141 0 747 490 
Q 353 981 353 1791 
Q 353 2603 747 3093 
Q 1141 3584 1784 3584 
Q 2172 3584 2450 3431 
Q 2728 3278 2906 2969 
L 2906 3500 
L 3481 3500 
L 3481 434 
z
" transform="scale(0.015625)"/>
      <path id="DejaVuSans-20" transform="scale(0.015625)"/>
      <path id="DejaVuSans-43" d="M 4122 4306 
L 4122 3641 
Q 3803 3938 3442 4084 
Q 3081 4231 2675 4231 
Q 1875 4231 1450 3742 
Q 1025 3253 1025 2328 
Q 1025 1406 1450 917 
Q 1875 428 2675 428 
Q 3081 428 3442 575 
Q 3803 722 4122 1019 
L 4122 359 
Q 3791 134 3420 21 
Q 3050 -91 2638 -91 
Q 1578 -91 968 557 
Q 359 1206 359 2328 
Q 359 3453 968 4101 
Q 1578 4750 2638 4750 
Q 3056 4750 3426 4639 
Q 3797 4528 4122 4306 
z
" transform="scale(0.015625)"/>
      <path id="DejaVuSans-76" d="M 191 3500 
L 800 3500 
L 1894 563 
L 2988 3500 
L 3597 3500 
L 2284 0 
L 1503 0 
L 191 3500 
z
" transform="scale(0.015625)"/>
     </defs>
     <use xlink:href="#DejaVuSans-4c"/>
     <use xlink:href="#DejaVuSans-65" x="53.962891"/>
     <use xlink:href="#DejaVuSans-61" x="115.486328"/>
     <use xlink:href="#DejaVuSans-72" x="176.765625"/>
     <use xlink:href="#DejaVuSans-6e" x="216.128906"/>
     <use xlink:href="#DejaVuSans-69" x="279.507812"/>
     <use xlink:href="#DejaVuSans-6e" x="307.291016"/>
     <use xlink:href="#DejaVuSans-67" x="370.669922"/>
     <use xlink:href="#DejaVuSans-20" x="434.146484"/>
     <use xlink:href="#DejaVuSans-43" x="465.933594"/>
     <use xlink:href="#DejaVuSans-75" x="535.757812"/>
     <use xlink:href="#DejaVuSans-72" x="599.136719"/>
     <use xlink:href="#DejaVuSans-76" x="640.25"/>
     <use xlink:href="#DejaVuSans-65" x="699.429688"/>
     <use xlink:href="#DejaVuSans-73" x="760.953125"/>
    </g>
   </g>
   <g id="legend_1">
    <g id="patch_7">
     <path d="M 214.18875 302.584 
L 407.72 302.584 
Q 409.72 302.584 409.72 300.584 
L 409.72 228.193375 
Q 409.72 226.193375 407.72 226.193375 
L 214.18875 226.193375 
Q 212.18875 226.193375 212.18875 228.193375 
L 212.18875 300.584 
Q 212.18875 302.584 214.18875 302.584 
z
" style="fill: #ffffff; opacity: 0.8; stroke: #cccccc; stroke-linejoin: miter"/>
    </g>
    <g id="line2d_22">
     <path d="M 216.18875 234.291812 
L 226.18875 234.291812 
L 236.18875 234.291812 
" style="fill: none; stroke: #1f77b4; stroke-width: 1.5; stroke-linecap: square"/>
    </g>
    <g id="text_20">
     <!-- Train Accuracy -->
     <g transform="translate(244.18875 237.791812) scale(0.1 -0.1)">
      <defs>
       <path id="DejaVuSans-54" d="M -19 4666 
L 3928 4666 
L 3928 4134 
L 2272 4134 
L 2272 0 
L 1638 0 
L 1638 4134 
L -19 4134 
L -19 4666 
z
" transform="scale(0.015625)"/>
      </defs>
      <use xlink:href="#DejaVuSans-54"/>
      <use xlink:href="#DejaVuSans-72" x="46.333984"/>
      <use xlink:href="#DejaVuSans-61" x="87.447266"/>
      <use xlink:href="#DejaVuSans-69" x="148.726562"/>
      <use xlink:href="#DejaVuSans-6e" x="176.509766"/>
      <use xlink:href="#DejaVuSans-20" x="239.888672"/>
      <use xlink:href="#DejaVuSans-41" x="271.675781"/>
      <use xlink:href="#DejaVuSans-63" x="338.333984"/>
      <use xlink:href="#DejaVuSans-63" x="393.314453"/>
      <use xlink:href="#DejaVuSans-75" x="448.294922"/>
      <use xlink:href="#DejaVuSans-72" x="511.673828"/>
      <use xlink:href="#DejaVuSans-61" x="552.787109"/>
      <use xlink:href="#DejaVuSans-63" x="614.066406"/>
      <use xlink:href="#DejaVuSans-79" x="669.046875"/>
     </g>
    </g>
    <g id="line2d_23">
     <path d="M 216.18875 248.969937 
L 226.18875 248.969937 
L 236.18875 248.969937 
" style="fill: none; stroke: #ff7f0e; stroke-width: 1.5; stroke-linecap: square"/>
    </g>
    <g id="text_21">
     <!-- Validation Accuracy -->
     <g transform="translate(244.18875 252.469937) scale(0.1 -0.1)">
      <defs>
       <path id="DejaVuSans-56" d="M 1831 0 
L 50 4666 
L 709 4666 
L 2188 738 
L 3669 4666 
L 4325 4666 
L 2547 0 
L 1831 0 
z
" transform="scale(0.015625)"/>
       <path id="DejaVuSans-6c" d="M 603 4863 
L 1178 4863 
L 1178 0 
L 603 0 
L 603 4863 
z
" transform="scale(0.015625)"/>
       <path id="DejaVuSans-64" d="M 2906 2969 
L 2906 4863 
L 3481 4863 
L 3481 0 
L 2906 0 
L 2906 525 
Q 2725 213 2448 61 
Q 2172 -91 1784 -91 
Q 1150 -91 751 415 
Q 353 922 353 1747 
Q 353 2572 751 3078 
Q 1150 3584 1784 3584 
Q 2172 3584 2448 3432 
Q 2725 3281 2906 2969 
z
M 947 1747 
Q 947 1113 1208 752 
Q 1469 391 1925 391 
Q 2381 391 2643 752 
Q 2906 1113 2906 1747 
Q 2906 2381 2643 2742 
Q 2381 3103 1925 3103 
Q 1469 3103 1208 2742 
Q 947 2381 947 1747 
z
" transform="scale(0.015625)"/>
       <path id="DejaVuSans-74" d="M 1172 4494 
L 1172 3500 
L 2356 3500 
L 2356 3053 
L 1172 3053 
L 1172 1153 
Q 1172 725 1289 603 
Q 1406 481 1766 481 
L 2356 481 
L 2356 0 
L 1766 0 
Q 1100 0 847 248 
Q 594 497 594 1153 
L 594 3053 
L 172 3053 
L 172 3500 
L 594 3500 
L 594 4494 
L 1172 4494 
z
" transform="scale(0.015625)"/>
      </defs>
      <use xlink:href="#DejaVuSans-56"/>
      <use xlink:href="#DejaVuSans-61" x="60.658203"/>
      <use xlink:href="#DejaVuSans-6c" x="121.9375"/>
      <use xlink:href="#DejaVuSans-69" x="149.720703"/>
      <use xlink:href="#DejaVuSans-64" x="177.503906"/>
      <use xlink:href="#DejaVuSans-61" x="240.980469"/>
      <use xlink:href="#DejaVuSans-74" x="302.259766"/>
      <use xlink:href="#DejaVuSans-69" x="341.46875"/>
      <use xlink:href="#DejaVuSans-6f" x="369.251953"/>
      <use xlink:href="#DejaVuSans-6e" x="430.433594"/>
      <use xlink:href="#DejaVuSans-20" x="493.8125"/>
      <use xlink:href="#DejaVuSans-41" x="525.599609"/>
      <use xlink:href="#DejaVuSans-63" x="592.257812"/>
      <use xlink:href="#DejaVuSans-63" x="647.238281"/>
      <use xlink:href="#DejaVuSans-75" x="702.21875"/>
      <use xlink:href="#DejaVuSans-72" x="765.597656"/>
      <use xlink:href="#DejaVuSans-61" x="806.710938"/>
      <use xlink:href="#DejaVuSans-63" x="867.990234"/>
      <use xlink:href="#DejaVuSans-79" x="922.970703"/>
     </g>
    </g>
    <g id="line2d_24">
     <path d="M 216.18875 263.648062 
L 226.18875 263.648062 
L 236.18875 263.648062 
" style="fill: none; stroke: #2ca02c; stroke-width: 1.5; stroke-linecap: square"/>
    </g>
    <g id="text_22">
     <!-- Robust Validation Accuracy -->
     <g transform="translate(244.18875 267.148062) scale(0.1 -0.1)">
      <defs>
       <path id="DejaVuSans-52" d="M 2841 2188 
Q 3044 2119 3236 1894 
Q 3428 1669 3622 1275 
L 4263 0 
L 3584 0 
L 2988 1197 
Q 2756 1666 2539 1819 
Q 2322 1972 1947 1972 
L 1259 1972 
L 1259 0 
L 628 0 
L 628 4666 
L 2053 4666 
Q 2853 4666 3247 4331 
Q 3641 3997 3641 3322 
Q 3641 2881 3436 2590 
Q 3231 2300 2841 2188 
z
M 1259 4147 
L 1259 2491 
L 2053 2491 
Q 2509 2491 2742 2702 
Q 2975 2913 2975 3322 
Q 2975 3731 2742 3939 
Q 2509 4147 2053 4147 
L 1259 4147 
z
" transform="scale(0.015625)"/>
       <path id="DejaVuSans-62" d="M 3116 1747 
Q 3116 2381 2855 2742 
Q 2594 3103 2138 3103 
Q 1681 3103 1420 2742 
Q 1159 2381 1159 1747 
Q 1159 1113 1420 752 
Q 1681 391 2138 391 
Q 2594 391 2855 752 
Q 3116 1113 3116 1747 
z
M 1159 2969 
Q 1341 3281 1617 3432 
Q 1894 3584 2278 3584 
Q 2916 3584 3314 3078 
Q 3713 2572 3713 1747 
Q 3713 922 3314 415 
Q 2916 -91 2278 -91 
Q 1894 -91 1617 61 
Q 1341 213 1159 525 
L 1159 0 
L 581 0 
L 581 4863 
L 1159 4863 
L 1159 2969 
z
" transform="scale(0.015625)"/>
      </defs>
      <use xlink:href="#DejaVuSans-52"/>
      <use xlink:href="#DejaVuSans-6f" x="64.982422"/>
      <use xlink:href="#DejaVuSans-62" x="126.164062"/>
      <use xlink:href="#DejaVuSans-75" x="189.640625"/>
      <use xlink:href="#DejaVuSans-73" x="253.019531"/>
      <use xlink:href="#DejaVuSans-74" x="305.119141"/>
      <use xlink:href="#DejaVuSans-20" x="344.328125"/>
      <use xlink:href="#DejaVuSans-56" x="376.115234"/>
      <use xlink:href="#DejaVuSans-61" x="436.773438"/>
      <use xlink:href="#DejaVuSans-6c" x="498.052734"/>
      <use xlink:href="#DejaVuSans-69" x="525.835938"/>
      <use xlink:href="#DejaVuSans-64" x="553.619141"/>
      <use xlink:href="#DejaVuSans-61" x="617.095703"/>
      <use xlink:href="#DejaVuSans-74" x="678.375"/>
      <use xlink:href="#DejaVuSans-69" x="717.583984"/>
      <use xlink:href="#DejaVuSans-6f" x="745.367188"/>
      <use xlink:href="#DejaVuSans-6e" x="806.548828"/>
      <use xlink:href="#DejaVuSans-20" x="869.927734"/>
      <use xlink:href="#DejaVuSans-41" x="901.714844"/>
      <use xlink:href="#DejaVuSans-63" x="968.373047"/>
      <use xlink:href="#DejaVuSans-63" x="1023.353516"/>
      <use xlink:href="#DejaVuSans-75" x="1078.333984"/>
      <use xlink:href="#DejaVuSans-72" x="1141.712891"/>
      <use xlink:href="#DejaVuSans-61" x="1182.826172"/>
      <use xlink:href="#DejaVuSans-63" x="1244.105469"/>
      <use xlink:href="#DejaVuSans-79" x="1299.085938"/>
     </g>
    </g>
    <g id="line2d_25">
     <path d="M 216.18875 278.326188 
L 226.18875 278.326188 
L 236.18875 278.326188 
" style="fill: none; stroke: #d62728; stroke-width: 1.5; stroke-linecap: square"/>
    </g>
    <g id="text_23">
     <!-- SWA Validation Accuracy -->
     <g transform="translate(244.18875 281.826188) scale(0.1 -0.1)">
      <defs>
       <path id="DejaVuSans-53" d="M 3425 4513 
L 3425 3897 
Q 3066 4069 2747 4153 
Q 2428 4238 2131 4238 
Q 1616 4238 1336 4038 
Q 1056 3838 1056 3469 
Q 1056 3159 1242 3001 
Q 1428 2844 1947 2747 
L 2328 2669 
Q 3034 2534 3370 2195 
Q 3706 1856 3706 1288 
Q 3706 609 3251 259 
Q 2797 -91 1919 -91 
Q 1588 -91 1214 -16 
Q 841 59 441 206 
L 441 856 
Q 825 641 1194 531 
Q 1563 422 1919 422 
Q 2459 422 2753 634 
Q 3047 847 3047 1241 
Q 3047 1584 2836 1778 
Q 2625 1972 2144 2069 
L 1759 2144 
Q 1053 2284 737 2584 
Q 422 2884 422 3419 
Q 422 4038 858 4394 
Q 1294 4750 2059 4750 
Q 2388 4750 2728 4690 
Q 3069 4631 3425 4513 
z
" transform="scale(0.015625)"/>
       <path id="DejaVuSans-57" d="M 213 4666 
L 850 4666 
L 1831 722 
L 2809 4666 
L 3519 4666 
L 4500 722 
L 5478 4666 
L 6119 4666 
L 4947 0 
L 4153 0 
L 3169 4050 
L 2175 0 
L 1381 0 
L 213 4666 
z
" transform="scale(0.015625)"/>
      </defs>
      <use xlink:href="#DejaVuSans-53"/>
      <use xlink:href="#DejaVuSans-57" x="63.476562"/>
      <use xlink:href="#DejaVuSans-41" x="156.853516"/>
      <use xlink:href="#DejaVuSans-20" x="225.261719"/>
      <use xlink:href="#DejaVuSans-56" x="257.048828"/>
      <use xlink:href="#DejaVuSans-61" x="317.707031"/>
      <use xlink:href="#DejaVuSans-6c" x="378.986328"/>
      <use xlink:href="#DejaVuSans-69" x="406.769531"/>
      <use xlink:href="#DejaVuSans-64" x="434.552734"/>
      <use xlink:href="#DejaVuSans-61" x="498.029297"/>
      <use xlink:href="#DejaVuSans-74" x="559.308594"/>
      <use xlink:href="#DejaVuSans-69" x="598.517578"/>
      <use xlink:href="#DejaVuSans-6f" x="626.300781"/>
      <use xlink:href="#DejaVuSans-6e" x="687.482422"/>
      <use xlink:href="#DejaVuSans-20" x="750.861328"/>
      <use xlink:href="#DejaVuSans-41" x="782.648438"/>
      <use xlink:href="#DejaVuSans-63" x="849.306641"/>
      <use xlink:href="#DejaVuSans-63" x="904.287109"/>
      <use xlink:href="#DejaVuSans-75" x="959.267578"/>
      <use xlink:href="#DejaVuSans-72" x="1022.646484"/>
      <use xlink:href="#DejaVuSans-61" x="1063.759766"/>
      <use xlink:href="#DejaVuSans-63" x="1125.039062"/>
      <use xlink:href="#DejaVuSans-79" x="1180.019531"/>
     </g>
    </g>
    <g id="line2d_26">
     <path d="M 216.18875 293.004312 
L 226.18875 293.004312 
L 236.18875 293.004312 
" style="fill: none; stroke: #9467bd; stroke-width: 1.5; stroke-linecap: square"/>
    </g>
    <g id="text_24">
     <!-- SWA Robust Validation Accuracy -->
     <g transform="translate(244.18875 296.504312) scale(0.1 -0.1)">
      <use xlink:href="#DejaVuSans-53"/>
      <use xlink:href="#DejaVuSans-57" x="63.476562"/>
      <use xlink:href="#DejaVuSans-41" x="156.853516"/>
      <use xlink:href="#DejaVuSans-20" x="225.261719"/>
      <use xlink:href="#DejaVuSans-52" x="257.048828"/>
      <use xlink:href="#DejaVuSans-6f" x="322.03125"/>
      <use xlink:href="#DejaVuSans-62" x="383.212891"/>
      <use xlink:href="#DejaVuSans-75" x="446.689453"/>
      <use xlink:href="#DejaVuSans-73" x="510.068359"/>
      <use xlink:href="#DejaVuSans-74" x="562.167969"/>
      <use xlink:href="#DejaVuSans-20" x="601.376953"/>
      <use xlink:href="#DejaVuSans-56" x="633.164062"/>
      <use xlink:href="#DejaVuSans-61" x="693.822266"/>
      <use xlink:href="#DejaVuSans-6c" x="755.101562"/>
      <use xlink:href="#DejaVuSans-69" x="782.884766"/>
      <use xlink:href="#DejaVuSans-64" x="810.667969"/>
      <use xlink:href="#DejaVuSans-61" x="874.144531"/>
      <use xlink:href="#DejaVuSans-74" x="935.423828"/>
      <use xlink:href="#DejaVuSans-69" x="974.632812"/>
      <use xlink:href="#DejaVuSans-6f" x="1002.416016"/>
      <use xlink:href="#DejaVuSans-6e" x="1063.597656"/>
      <use xlink:href="#DejaVuSans-20" x="1126.976562"/>
      <use xlink:href="#DejaVuSans-41" x="1158.763672"/>
      <use xlink:href="#DejaVuSans-63" x="1225.421875"/>
      <use xlink:href="#DejaVuSans-63" x="1280.402344"/>
      <use xlink:href="#DejaVuSans-75" x="1335.382812"/>
      <use xlink:href="#DejaVuSans-72" x="1398.761719"/>
      <use xlink:href="#DejaVuSans-61" x="1439.875"/>
      <use xlink:href="#DejaVuSans-63" x="1501.154297"/>
      <use xlink:href="#DejaVuSans-79" x="1556.134766"/>
     </g>
    </g>
   </g>
  </g>
 </g>
 <defs>
  <clipPath id="p15e28f59ba">
   <rect x="57.6" y="41.472" width="357.12" height="266.112"/>
  </clipPath>
 </defs>
</svg>
