<?xml version="1.0" encoding="utf-8" standalone="no"?>
<!DOCTYPE svg PUBLIC "-//W3C//DTD SVG 1.1//EN"
  "http://www.w3.org/Graphics/SVG/1.1/DTD/svg11.dtd">
<svg xmlns:xlink="http://www.w3.org/1999/xlink" width="460.8pt" height="345.6pt" viewBox="0 0 460.8 345.6" xmlns="http://www.w3.org/2000/svg" version="1.1">
 <metadata>
  <rdf:RDF xmlns:dc="http://purl.org/dc/elements/1.1/" xmlns:cc="http://creativecommons.org/ns#" xmlns:rdf="http://www.w3.org/1999/02/22-rdf-syntax-ns#">
   <cc:Work>
    <dc:type rdf:resource="http://purl.org/dc/dcmitype/StillImage"/>
    <dc:date>2025-06-13T04:54:44.704690</dc:date>
    <dc:format>image/svg+xml</dc:format>
    <dc:creator>
     <cc:Agent>
      <dc:title>Matplotlib v3.9.1, https://matplotlib.org/</dc:title>
     </cc:Agent>
    </dc:creator>
   </cc:Work>
  </rdf:RDF>
 </metadata>
 <defs>
  <style type="text/css">*{stroke-linejoin: round; stroke-linecap: butt}</style>
 </defs>
 <g id="figure_1">
  <g id="patch_1">
   <path d="M 0 345.6 
L 460.8 345.6 
L 460.8 0 
L 0 0 
z
" style="fill: #ffffff"/>
  </g>
  <g id="axes_1">
   <g id="patch_2">
    <path d="M 57.6 307.584 
L 414.72 307.584 
L 414.72 41.472 
L 57.6 41.472 
z
" style="fill: #ffffff"/>
   </g>
   <g id="matplotlib.axis_1">
    <g id="xtick_1">
     <g id="line2d_1">
      <defs>
       <path id="m22afc9d0cb" d="M 0 0 
L 0 3.5 
" style="stroke: #000000; stroke-width: 0.8"/>
      </defs>
      <g>
       <use xlink:href="#m22afc9d0cb" x="73.832727" y="307.584" style="stroke: #000000; stroke-width: 0.8"/>
      </g>
     </g>
     <g id="text_1">
      <!-- 1 -->
      <g transform="translate(70.651477 322.182437) scale(0.1 -0.1)">
       <defs>
        <path id="DejaVuSans-31" d="M 794 531 
L 1825 531 
L 1825 4091 
L 703 3866 
L 703 4441 
L 1819 4666 
L 2450 4666 
L 2450 531 
L 3481 531 
L 3481 0 
L 794 0 
L 794 531 
z
" transform="scale(0.015625)"/>
       </defs>
       <use xlink:href="#DejaVuSans-31"/>
      </g>
     </g>
    </g>
    <g id="xtick_2">
     <g id="line2d_2">
      <g>
       <use xlink:href="#m22afc9d0cb" x="109.664165" y="307.584" style="stroke: #000000; stroke-width: 0.8"/>
      </g>
     </g>
     <g id="text_2">
      <!-- 34 -->
      <g transform="translate(103.301665 322.182437) scale(0.1 -0.1)">
       <defs>
        <path id="DejaVuSans-33" d="M 2597 2516 
Q 3050 2419 3304 2112 
Q 3559 1806 3559 1356 
Q 3559 666 3084 287 
Q 2609 -91 1734 -91 
Q 1441 -91 1130 -33 
Q 819 25 488 141 
L 488 750 
Q 750 597 1062 519 
Q 1375 441 1716 441 
Q 2309 441 2620 675 
Q 2931 909 2931 1356 
Q 2931 1769 2642 2001 
Q 2353 2234 1838 2234 
L 1294 2234 
L 1294 2753 
L 1863 2753 
Q 2328 2753 2575 2939 
Q 2822 3125 2822 3475 
Q 2822 3834 2567 4026 
Q 2313 4219 1838 4219 
Q 1578 4219 1281 4162 
Q 984 4106 628 3988 
L 628 4550 
Q 988 4650 1302 4700 
Q 1616 4750 1894 4750 
Q 2613 4750 3031 4423 
Q 3450 4097 3450 3541 
Q 3450 3153 3228 2886 
Q 3006 2619 2597 2516 
z
" transform="scale(0.015625)"/>
        <path id="DejaVuSans-34" d="M 2419 4116 
L 825 1625 
L 2419 1625 
L 2419 4116 
z
M 2253 4666 
L 3047 4666 
L 3047 1625 
L 3713 1625 
L 3713 1100 
L 3047 1100 
L 3047 0 
L 2419 0 
L 2419 1100 
L 313 1100 
L 313 1709 
L 2253 4666 
z
" transform="scale(0.015625)"/>
       </defs>
       <use xlink:href="#DejaVuSans-33"/>
       <use xlink:href="#DejaVuSans-34" x="63.623047"/>
      </g>
     </g>
    </g>
    <g id="xtick_3">
     <g id="line2d_3">
      <g>
       <use xlink:href="#m22afc9d0cb" x="145.495604" y="307.584" style="stroke: #000000; stroke-width: 0.8"/>
      </g>
     </g>
     <g id="text_3">
      <!-- 67 -->
      <g transform="translate(139.133104 322.182437) scale(0.1 -0.1)">
       <defs>
        <path id="DejaVuSans-36" d="M 2113 2584 
Q 1688 2584 1439 2293 
Q 1191 2003 1191 1497 
Q 1191 994 1439 701 
Q 1688 409 2113 409 
Q 2538 409 2786 701 
Q 3034 994 3034 1497 
Q 3034 2003 2786 2293 
Q 2538 2584 2113 2584 
z
M 3366 4563 
L 3366 3988 
Q 3128 4100 2886 4159 
Q 2644 4219 2406 4219 
Q 1781 4219 1451 3797 
Q 1122 3375 1075 2522 
Q 1259 2794 1537 2939 
Q 1816 3084 2150 3084 
Q 2853 3084 3261 2657 
Q 3669 2231 3669 1497 
Q 3669 778 3244 343 
Q 2819 -91 2113 -91 
Q 1303 -91 875 529 
Q 447 1150 447 2328 
Q 447 3434 972 4092 
Q 1497 4750 2381 4750 
Q 2619 4750 2861 4703 
Q 3103 4656 3366 4563 
z
" transform="scale(0.015625)"/>
        <path id="DejaVuSans-37" d="M 525 4666 
L 3525 4666 
L 3525 4397 
L 1831 0 
L 1172 0 
L 2766 4134 
L 525 4134 
L 525 4666 
z
" transform="scale(0.015625)"/>
       </defs>
       <use xlink:href="#DejaVuSans-36"/>
       <use xlink:href="#DejaVuSans-37" x="63.623047"/>
      </g>
     </g>
    </g>
    <g id="xtick_4">
     <g id="line2d_4">
      <g>
       <use xlink:href="#m22afc9d0cb" x="181.327042" y="307.584" style="stroke: #000000; stroke-width: 0.8"/>
      </g>
     </g>
     <g id="text_4">
      <!-- 100 -->
      <g transform="translate(171.783292 322.182437) scale(0.1 -0.1)">
       <defs>
        <path id="DejaVuSans-30" d="M 2034 4250 
Q 1547 4250 1301 3770 
Q 1056 3291 1056 2328 
Q 1056 1369 1301 889 
Q 1547 409 2034 409 
Q 2525 409 2770 889 
Q 3016 1369 3016 2328 
Q 3016 3291 2770 3770 
Q 2525 4250 2034 4250 
z
M 2034 4750 
Q 2819 4750 3233 4129 
Q 3647 3509 3647 2328 
Q 3647 1150 3233 529 
Q 2819 -91 2034 -91 
Q 1250 -91 836 529 
Q 422 1150 422 2328 
Q 422 3509 836 4129 
Q 1250 4750 2034 4750 
z
" transform="scale(0.015625)"/>
       </defs>
       <use xlink:href="#DejaVuSans-31"/>
       <use xlink:href="#DejaVuSans-30" x="63.623047"/>
       <use xlink:href="#DejaVuSans-30" x="127.246094"/>
      </g>
     </g>
    </g>
    <g id="xtick_5">
     <g id="line2d_5">
      <g>
       <use xlink:href="#m22afc9d0cb" x="217.15848" y="307.584" style="stroke: #000000; stroke-width: 0.8"/>
      </g>
     </g>
     <g id="text_5">
      <!-- 133 -->
      <g transform="translate(207.61473 322.182437) scale(0.1 -0.1)">
       <use xlink:href="#DejaVuSans-31"/>
       <use xlink:href="#DejaVuSans-33" x="63.623047"/>
       <use xlink:href="#DejaVuSans-33" x="127.246094"/>
      </g>
     </g>
    </g>
    <g id="xtick_6">
     <g id="line2d_6">
      <g>
       <use xlink:href="#m22afc9d0cb" x="254.075719" y="307.584" style="stroke: #000000; stroke-width: 0.8"/>
      </g>
     </g>
     <g id="text_6">
      <!-- 167 -->
      <g transform="translate(244.531969 322.182437) scale(0.1 -0.1)">
       <use xlink:href="#DejaVuSans-31"/>
       <use xlink:href="#DejaVuSans-36" x="63.623047"/>
       <use xlink:href="#DejaVuSans-37" x="127.246094"/>
      </g>
     </g>
    </g>
    <g id="xtick_7">
     <g id="line2d_7">
      <g>
       <use xlink:href="#m22afc9d0cb" x="289.907157" y="307.584" style="stroke: #000000; stroke-width: 0.8"/>
      </g>
     </g>
     <g id="text_7">
      <!-- 200 -->
      <g transform="translate(280.363407 322.182437) scale(0.1 -0.1)">
       <defs>
        <path id="DejaVuSans-32" d="M 1228 531 
L 3431 531 
L 3431 0 
L 469 0 
L 469 531 
Q 828 903 1448 1529 
Q 2069 2156 2228 2338 
Q 2531 2678 2651 2914 
Q 2772 3150 2772 3378 
Q 2772 3750 2511 3984 
Q 2250 4219 1831 4219 
Q 1534 4219 1204 4116 
Q 875 4013 500 3803 
L 500 4441 
Q 881 4594 1212 4672 
Q 1544 4750 1819 4750 
Q 2544 4750 2975 4387 
Q 3406 4025 3406 3419 
Q 3406 3131 3298 2873 
Q 3191 2616 2906 2266 
Q 2828 2175 2409 1742 
Q 1991 1309 1228 531 
z
" transform="scale(0.015625)"/>
       </defs>
       <use xlink:href="#DejaVuSans-32"/>
       <use xlink:href="#DejaVuSans-30" x="63.623047"/>
       <use xlink:href="#DejaVuSans-30" x="127.246094"/>
      </g>
     </g>
    </g>
    <g id="xtick_8">
     <g id="line2d_8">
      <g>
       <use xlink:href="#m22afc9d0cb" x="325.738595" y="307.584" style="stroke: #000000; stroke-width: 0.8"/>
      </g>
     </g>
     <g id="text_8">
      <!-- 233 -->
      <g transform="translate(316.194845 322.182437) scale(0.1 -0.1)">
       <use xlink:href="#DejaVuSans-32"/>
       <use xlink:href="#DejaVuSans-33" x="63.623047"/>
       <use xlink:href="#DejaVuSans-33" x="127.246094"/>
      </g>
     </g>
    </g>
    <g id="xtick_9">
     <g id="line2d_9">
      <g>
       <use xlink:href="#m22afc9d0cb" x="361.570033" y="307.584" style="stroke: #000000; stroke-width: 0.8"/>
      </g>
     </g>
     <g id="text_9">
      <!-- 266 -->
      <g transform="translate(352.026283 322.182437) scale(0.1 -0.1)">
       <use xlink:href="#DejaVuSans-32"/>
       <use xlink:href="#DejaVuSans-36" x="63.623047"/>
       <use xlink:href="#DejaVuSans-36" x="127.246094"/>
      </g>
     </g>
    </g>
    <g id="xtick_10">
     <g id="line2d_10">
      <g>
       <use xlink:href="#m22afc9d0cb" x="398.487273" y="307.584" style="stroke: #000000; stroke-width: 0.8"/>
      </g>
     </g>
     <g id="text_10">
      <!-- 300 -->
      <g transform="translate(388.943523 322.182437) scale(0.1 -0.1)">
       <use xlink:href="#DejaVuSans-33"/>
       <use xlink:href="#DejaVuSans-30" x="63.623047"/>
       <use xlink:href="#DejaVuSans-30" x="127.246094"/>
      </g>
     </g>
    </g>
    <g id="text_11">
     <!-- Epochs -->
     <g transform="translate(218.244375 335.860562) scale(0.1 -0.1)">
      <defs>
       <path id="DejaVuSans-45" d="M 628 4666 
L 3578 4666 
L 3578 4134 
L 1259 4134 
L 1259 2753 
L 3481 2753 
L 3481 2222 
L 1259 2222 
L 1259 531 
L 3634 531 
L 3634 0 
L 628 0 
L 628 4666 
z
" transform="scale(0.015625)"/>
       <path id="DejaVuSans-70" d="M 1159 525 
L 1159 -1331 
L 581 -1331 
L 581 3500 
L 1159 3500 
L 1159 2969 
Q 1341 3281 1617 3432 
Q 1894 3584 2278 3584 
Q 2916 3584 3314 3078 
Q 3713 2572 3713 1747 
Q 3713 922 3314 415 
Q 2916 -91 2278 -91 
Q 1894 -91 1617 61 
Q 1341 213 1159 525 
z
M 3116 1747 
Q 3116 2381 2855 2742 
Q 2594 3103 2138 3103 
Q 1681 3103 1420 2742 
Q 1159 2381 1159 1747 
Q 1159 1113 1420 752 
Q 1681 391 2138 391 
Q 2594 391 2855 752 
Q 3116 1113 3116 1747 
z
" transform="scale(0.015625)"/>
       <path id="DejaVuSans-6f" d="M 1959 3097 
Q 1497 3097 1228 2736 
Q 959 2375 959 1747 
Q 959 1119 1226 758 
Q 1494 397 1959 397 
Q 2419 397 2687 759 
Q 2956 1122 2956 1747 
Q 2956 2369 2687 2733 
Q 2419 3097 1959 3097 
z
M 1959 3584 
Q 2709 3584 3137 3096 
Q 3566 2609 3566 1747 
Q 3566 888 3137 398 
Q 2709 -91 1959 -91 
Q 1206 -91 779 398 
Q 353 888 353 1747 
Q 353 2609 779 3096 
Q 1206 3584 1959 3584 
z
" transform="scale(0.015625)"/>
       <path id="DejaVuSans-63" d="M 3122 3366 
L 3122 2828 
Q 2878 2963 2633 3030 
Q 2388 3097 2138 3097 
Q 1578 3097 1268 2742 
Q 959 2388 959 1747 
Q 959 1106 1268 751 
Q 1578 397 2138 397 
Q 2388 397 2633 464 
Q 2878 531 3122 666 
L 3122 134 
Q 2881 22 2623 -34 
Q 2366 -91 2075 -91 
Q 1284 -91 818 406 
Q 353 903 353 1747 
Q 353 2603 823 3093 
Q 1294 3584 2113 3584 
Q 2378 3584 2631 3529 
Q 2884 3475 3122 3366 
z
" transform="scale(0.015625)"/>
       <path id="DejaVuSans-68" d="M 3513 2113 
L 3513 0 
L 2938 0 
L 2938 2094 
Q 2938 2591 2744 2837 
Q 2550 3084 2163 3084 
Q 1697 3084 1428 2787 
Q 1159 2491 1159 1978 
L 1159 0 
L 581 0 
L 581 4863 
L 1159 4863 
L 1159 2956 
Q 1366 3272 1645 3428 
Q 1925 3584 2291 3584 
Q 2894 3584 3203 3211 
Q 3513 2838 3513 2113 
z
" transform="scale(0.015625)"/>
       <path id="DejaVuSans-73" d="M 2834 3397 
L 2834 2853 
Q 2591 2978 2328 3040 
Q 2066 3103 1784 3103 
Q 1356 3103 1142 2972 
Q 928 2841 928 2578 
Q 928 2378 1081 2264 
Q 1234 2150 1697 2047 
L 1894 2003 
Q 2506 1872 2764 1633 
Q 3022 1394 3022 966 
Q 3022 478 2636 193 
Q 2250 -91 1575 -91 
Q 1294 -91 989 -36 
Q 684 19 347 128 
L 347 722 
Q 666 556 975 473 
Q 1284 391 1588 391 
Q 1994 391 2212 530 
Q 2431 669 2431 922 
Q 2431 1156 2273 1281 
Q 2116 1406 1581 1522 
L 1381 1569 
Q 847 1681 609 1914 
Q 372 2147 372 2553 
Q 372 3047 722 3315 
Q 1072 3584 1716 3584 
Q 2034 3584 2315 3537 
Q 2597 3491 2834 3397 
z
" transform="scale(0.015625)"/>
      </defs>
      <use xlink:href="#DejaVuSans-45"/>
      <use xlink:href="#DejaVuSans-70" x="63.183594"/>
      <use xlink:href="#DejaVuSans-6f" x="126.660156"/>
      <use xlink:href="#DejaVuSans-63" x="187.841797"/>
      <use xlink:href="#DejaVuSans-68" x="242.822266"/>
      <use xlink:href="#DejaVuSans-73" x="306.201172"/>
     </g>
    </g>
   </g>
   <g id="matplotlib.axis_2">
    <g id="ytick_1">
     <g id="line2d_11">
      <defs>
       <path id="m933b9f8552" d="M 0 0 
L -3.5 0 
" style="stroke: #000000; stroke-width: 0.8"/>
      </defs>
      <g>
       <use xlink:href="#m933b9f8552" x="57.6" y="275.447755" style="stroke: #000000; stroke-width: 0.8"/>
      </g>
     </g>
     <g id="text_12">
      <!-- 40 -->
      <g transform="translate(37.875 279.246973) scale(0.1 -0.1)">
       <use xlink:href="#DejaVuSans-34"/>
       <use xlink:href="#DejaVuSans-30" x="63.623047"/>
      </g>
     </g>
    </g>
    <g id="ytick_2">
     <g id="line2d_12">
      <g>
       <use xlink:href="#m933b9f8552" x="57.6" y="236.183951" style="stroke: #000000; stroke-width: 0.8"/>
      </g>
     </g>
     <g id="text_13">
      <!-- 50 -->
      <g transform="translate(37.875 239.98317) scale(0.1 -0.1)">
       <defs>
        <path id="DejaVuSans-35" d="M 691 4666 
L 3169 4666 
L 3169 4134 
L 1269 4134 
L 1269 2991 
Q 1406 3038 1543 3061 
Q 1681 3084 1819 3084 
Q 2600 3084 3056 2656 
Q 3513 2228 3513 1497 
Q 3513 744 3044 326 
Q 2575 -91 1722 -91 
Q 1428 -91 1123 -41 
Q 819 9 494 109 
L 494 744 
Q 775 591 1075 516 
Q 1375 441 1709 441 
Q 2250 441 2565 725 
Q 2881 1009 2881 1497 
Q 2881 1984 2565 2268 
Q 2250 2553 1709 2553 
Q 1456 2553 1204 2497 
Q 953 2441 691 2322 
L 691 4666 
z
" transform="scale(0.015625)"/>
       </defs>
       <use xlink:href="#DejaVuSans-35"/>
       <use xlink:href="#DejaVuSans-30" x="63.623047"/>
      </g>
     </g>
    </g>
    <g id="ytick_3">
     <g id="line2d_13">
      <g>
       <use xlink:href="#m933b9f8552" x="57.6" y="196.920147" style="stroke: #000000; stroke-width: 0.8"/>
      </g>
     </g>
     <g id="text_14">
      <!-- 60 -->
      <g transform="translate(37.875 200.719366) scale(0.1 -0.1)">
       <use xlink:href="#DejaVuSans-36"/>
       <use xlink:href="#DejaVuSans-30" x="63.623047"/>
      </g>
     </g>
    </g>
    <g id="ytick_4">
     <g id="line2d_14">
      <g>
       <use xlink:href="#m933b9f8552" x="57.6" y="157.656344" style="stroke: #000000; stroke-width: 0.8"/>
      </g>
     </g>
     <g id="text_15">
      <!-- 70 -->
      <g transform="translate(37.875 161.455562) scale(0.1 -0.1)">
       <use xlink:href="#DejaVuSans-37"/>
       <use xlink:href="#DejaVuSans-30" x="63.623047"/>
      </g>
     </g>
    </g>
    <g id="ytick_5">
     <g id="line2d_15">
      <g>
       <use xlink:href="#m933b9f8552" x="57.6" y="118.39254" style="stroke: #000000; stroke-width: 0.8"/>
      </g>
     </g>
     <g id="text_16">
      <!-- 80 -->
      <g transform="translate(37.875 122.191759) scale(0.1 -0.1)">
       <defs>
        <path id="DejaVuSans-38" d="M 2034 2216 
Q 1584 2216 1326 1975 
Q 1069 1734 1069 1313 
Q 1069 891 1326 650 
Q 1584 409 2034 409 
Q 2484 409 2743 651 
Q 3003 894 3003 1313 
Q 3003 1734 2745 1975 
Q 2488 2216 2034 2216 
z
M 1403 2484 
Q 997 2584 770 2862 
Q 544 3141 544 3541 
Q 544 4100 942 4425 
Q 1341 4750 2034 4750 
Q 2731 4750 3128 4425 
Q 3525 4100 3525 3541 
Q 3525 3141 3298 2862 
Q 3072 2584 2669 2484 
Q 3125 2378 3379 2068 
Q 3634 1759 3634 1313 
Q 3634 634 3220 271 
Q 2806 -91 2034 -91 
Q 1263 -91 848 271 
Q 434 634 434 1313 
Q 434 1759 690 2068 
Q 947 2378 1403 2484 
z
M 1172 3481 
Q 1172 3119 1398 2916 
Q 1625 2713 2034 2713 
Q 2441 2713 2670 2916 
Q 2900 3119 2900 3481 
Q 2900 3844 2670 4047 
Q 2441 4250 2034 4250 
Q 1625 4250 1398 4047 
Q 1172 3844 1172 3481 
z
" transform="scale(0.015625)"/>
       </defs>
       <use xlink:href="#DejaVuSans-38"/>
       <use xlink:href="#DejaVuSans-30" x="63.623047"/>
      </g>
     </g>
    </g>
    <g id="ytick_6">
     <g id="line2d_16">
      <g>
       <use xlink:href="#m933b9f8552" x="57.6" y="79.128736" style="stroke: #000000; stroke-width: 0.8"/>
      </g>
     </g>
     <g id="text_17">
      <!-- 90 -->
      <g transform="translate(37.875 82.927955) scale(0.1 -0.1)">
       <defs>
        <path id="DejaVuSans-39" d="M 703 97 
L 703 672 
Q 941 559 1184 500 
Q 1428 441 1663 441 
Q 2288 441 2617 861 
Q 2947 1281 2994 2138 
Q 2813 1869 2534 1725 
Q 2256 1581 1919 1581 
Q 1219 1581 811 2004 
Q 403 2428 403 3163 
Q 403 3881 828 4315 
Q 1253 4750 1959 4750 
Q 2769 4750 3195 4129 
Q 3622 3509 3622 2328 
Q 3622 1225 3098 567 
Q 2575 -91 1691 -91 
Q 1453 -91 1209 -44 
Q 966 3 703 97 
z
M 1959 2075 
Q 2384 2075 2632 2365 
Q 2881 2656 2881 3163 
Q 2881 3666 2632 3958 
Q 2384 4250 1959 4250 
Q 1534 4250 1286 3958 
Q 1038 3666 1038 3163 
Q 1038 2656 1286 2365 
Q 1534 2075 1959 2075 
z
" transform="scale(0.015625)"/>
       </defs>
       <use xlink:href="#DejaVuSans-39"/>
       <use xlink:href="#DejaVuSans-30" x="63.623047"/>
      </g>
     </g>
    </g>
    <g id="text_18">
     <!-- Accuracy -->
     <g transform="translate(31.795312 197.356125) rotate(-90) scale(0.1 -0.1)">
      <defs>
       <path id="DejaVuSans-41" d="M 2188 4044 
L 1331 1722 
L 3047 1722 
L 2188 4044 
z
M 1831 4666 
L 2547 4666 
L 4325 0 
L 3669 0 
L 3244 1197 
L 1141 1197 
L 716 0 
L 50 0 
L 1831 4666 
z
" transform="scale(0.015625)"/>
       <path id="DejaVuSans-75" d="M 544 1381 
L 544 3500 
L 1119 3500 
L 1119 1403 
Q 1119 906 1312 657 
Q 1506 409 1894 409 
Q 2359 409 2629 706 
Q 2900 1003 2900 1516 
L 2900 3500 
L 3475 3500 
L 3475 0 
L 2900 0 
L 2900 538 
Q 2691 219 2414 64 
Q 2138 -91 1772 -91 
Q 1169 -91 856 284 
Q 544 659 544 1381 
z
M 1991 3584 
L 1991 3584 
z
" transform="scale(0.015625)"/>
       <path id="DejaVuSans-72" d="M 2631 2963 
Q 2534 3019 2420 3045 
Q 2306 3072 2169 3072 
Q 1681 3072 1420 2755 
Q 1159 2438 1159 1844 
L 1159 0 
L 581 0 
L 581 3500 
L 1159 3500 
L 1159 2956 
Q 1341 3275 1631 3429 
Q 1922 3584 2338 3584 
Q 2397 3584 2469 3576 
Q 2541 3569 2628 3553 
L 2631 2963 
z
" transform="scale(0.015625)"/>
       <path id="DejaVuSans-61" d="M 2194 1759 
Q 1497 1759 1228 1600 
Q 959 1441 959 1056 
Q 959 750 1161 570 
Q 1363 391 1709 391 
Q 2188 391 2477 730 
Q 2766 1069 2766 1631 
L 2766 1759 
L 2194 1759 
z
M 3341 1997 
L 3341 0 
L 2766 0 
L 2766 531 
Q 2569 213 2275 61 
Q 1981 -91 1556 -91 
Q 1019 -91 701 211 
Q 384 513 384 1019 
Q 384 1609 779 1909 
Q 1175 2209 1959 2209 
L 2766 2209 
L 2766 2266 
Q 2766 2663 2505 2880 
Q 2244 3097 1772 3097 
Q 1472 3097 1187 3025 
Q 903 2953 641 2809 
L 641 3341 
Q 956 3463 1253 3523 
Q 1550 3584 1831 3584 
Q 2591 3584 2966 3190 
Q 3341 2797 3341 1997 
z
" transform="scale(0.015625)"/>
       <path id="DejaVuSans-79" d="M 2059 -325 
Q 1816 -950 1584 -1140 
Q 1353 -1331 966 -1331 
L 506 -1331 
L 506 -850 
L 844 -850 
Q 1081 -850 1212 -737 
Q 1344 -625 1503 -206 
L 1606 56 
L 191 3500 
L 800 3500 
L 1894 763 
L 2988 3500 
L 3597 3500 
L 2059 -325 
z
" transform="scale(0.015625)"/>
      </defs>
      <use xlink:href="#DejaVuSans-41"/>
      <use xlink:href="#DejaVuSans-63" x="66.658203"/>
      <use xlink:href="#DejaVuSans-63" x="121.638672"/>
      <use xlink:href="#DejaVuSans-75" x="176.619141"/>
      <use xlink:href="#DejaVuSans-72" x="239.998047"/>
      <use xlink:href="#DejaVuSans-61" x="281.111328"/>
      <use xlink:href="#DejaVuSans-63" x="342.390625"/>
      <use xlink:href="#DejaVuSans-79" x="397.371094"/>
     </g>
    </g>
   </g>
   <g id="line2d_17">
    <path d="M 73.832727 295.488 
L 74.918528 220.439166 
L 76.00433 189.554258 
L 77.090131 169.388368 
L 78.175932 157.915485 
L 79.261733 148.633521 
L 83.604938 127.281865 
L 84.690739 124.227141 
L 85.77654 120.740515 
L 86.862341 115.369227 
L 87.948142 112.848491 
L 89.033943 109.833031 
L 90.119745 108.301742 
L 91.205546 103.817816 
L 92.291347 103.794258 
L 93.377148 103.307387 
L 94.462949 101.38346 
L 95.54875 126.724319 
L 96.634552 127.195485 
L 97.720353 124.839656 
L 98.806154 123.355485 
L 100.977756 117.473767 
L 102.063557 115.345669 
L 103.149358 113.853644 
L 104.23516 111.874748 
L 105.320961 110.877448 
L 106.406762 108.859288 
L 107.492563 108.772908 
L 108.578364 108.058307 
L 109.664165 105.576834 
L 110.749967 104.210454 
L 114.00737 100.951558 
L 115.093171 98.941252 
L 116.178972 97.45708 
L 117.264773 97.080147 
L 118.350575 96.514748 
L 119.436376 94.810699 
L 121.607978 93.263706 
L 122.693779 90.311067 
L 123.77958 90.169718 
L 124.865382 88.779779 
L 125.951183 87.923828 
L 127.036984 87.798184 
L 128.122785 85.787877 
L 129.208586 85.371681 
L 131.380189 83.541988 
L 132.46599 81.837939 
L 133.551791 81.351067 
L 134.637592 79.725546 
L 135.723393 81.052663 
L 136.809194 80.228123 
L 137.894995 79.921865 
L 138.980797 105.199902 
L 140.066598 106.071558 
L 141.152399 104.375362 
L 142.2382 103.660761 
L 143.324001 103.652908 
L 144.409802 103.354503 
L 145.495604 103.323092 
L 146.581405 103.409472 
L 147.667206 101.124319 
L 148.753007 99.797202 
L 149.838808 99.648 
L 150.924609 98.477939 
L 153.096212 100.339043 
L 154.182013 98.878429 
L 155.267814 97.064442 
L 156.353615 96.726773 
L 157.439416 95.564564 
L 158.525217 96.499043 
L 159.611019 95.635239 
L 160.69682 94.590822 
L 161.782621 94.009718 
L 162.868422 94.637939 
L 163.954223 92.10935 
L 165.040024 93.711313 
L 166.125825 92.79254 
L 167.211627 92.447018 
L 168.297428 91.504687 
L 169.383229 91.261252 
L 170.46903 89.761374 
L 171.554831 90.475975 
L 172.640632 90.82935 
L 173.726434 89.235239 
L 174.812235 88.481374 
L 175.898036 89.282356 
L 176.983837 87.295607 
L 178.069638 89.133153 
L 179.155439 88.222233 
L 180.24124 86.384687 
L 181.327042 86.070577 
L 182.412843 86.039166 
L 183.498644 85.269595 
L 184.584445 84.869104 
L 185.670246 85.120393 
L 186.756047 82.803828 
L 187.841849 83.220025 
L 188.92765 81.790822 
L 190.013451 81.877202 
L 191.099252 82.434748 
L 192.185053 80.840638 
L 194.356656 80.495117 
L 195.442457 78.877448 
L 196.528258 79.811926 
L 197.614059 78.846037 
L 198.69986 77.636712 
L 199.785661 78.971681 
L 200.871462 77.244074 
L 201.957264 75.846282 
L 203.043065 75.799166 
L 204.128866 75.163092 
L 205.214667 74.856834 
L 207.386269 72.807264 
L 208.472071 73.804564 
L 209.557872 72.885791 
L 210.643673 74.212908 
L 211.729474 72.343951 
L 212.815275 71.590086 
L 213.901076 72.555975 
L 214.986877 72.532417 
L 216.072679 72.17119 
L 217.15848 69.658307 
L 218.244281 70.851926 
L 219.330082 70.922601 
L 220.415883 70.412172 
L 222.587486 70.671313 
L 223.673287 70.537816 
L 224.759088 70.812663 
L 225.844889 94.457325 
L 226.93069 95.226896 
L 228.016491 97.048736 
L 229.102292 96.412663 
L 230.188094 95.360393 
L 231.273895 95.415362 
L 232.359696 94.582969 
L 233.445497 95.328982 
L 234.531298 94.724319 
L 236.702901 92.28211 
L 237.788702 92.753276 
L 238.874503 92.172172 
L 239.960304 92.05438 
L 241.046105 92.407755 
L 242.131906 93.090945 
L 243.217708 91.363337 
L 245.38931 91.82665 
L 246.475111 91.559656 
L 247.560912 90.554503 
L 248.646713 90.051926 
L 249.732514 90.538798 
L 250.818316 89.706405 
L 251.904117 89.188123 
L 252.989918 90.067632 
L 254.075719 89.86346 
L 255.16152 89.345178 
L 256.247321 89.502233 
L 257.333123 89.839902 
L 258.418924 88.685546 
L 260.590526 87.939534 
L 261.676327 88.394994 
L 262.762128 88.104442 
L 263.847929 87.327018 
L 264.933731 88.622724 
L 266.019532 88.881865 
L 267.105333 87.782479 
L 268.191134 86.518184 
L 269.276935 87.727509 
L 270.362736 86.384687 
L 271.448538 85.222479 
L 272.534339 86.494626 
L 273.62014 87.491926 
L 274.705941 85.70935 
L 275.791742 86.824442 
L 276.877543 85.159656 
L 277.963344 85.70935 
L 279.049146 85.11254 
L 280.134947 84.138798 
L 281.220748 84.680638 
L 282.306549 85.834994 
L 283.39235 84.264442 
L 284.478151 84.185914 
L 285.563953 83.644074 
L 286.649754 83.659779 
L 287.735555 84.759166 
L 288.821356 84.963337 
L 289.907157 83.337816 
L 290.992958 82.04211 
L 292.07876 83.46346 
L 293.164561 82.348368 
L 294.250362 82.387632 
L 295.336163 82.309104 
L 296.421964 82.631067 
L 297.507765 81.531681 
L 298.593566 81.547387 
L 299.679368 82.678184 
L 300.765169 80.911313 
L 301.85097 81.657325 
L 302.936771 80.385178 
L 304.022572 80.58935 
L 305.108373 82.002847 
L 306.194175 79.819779 
L 307.279976 80.777816 
L 308.365777 79.293644 
L 309.451578 79.380025 
L 310.537379 78.932417 
L 311.62318 80.228123 
L 312.708981 80.196712 
L 313.794783 78.728245 
L 314.880584 79.513521 
L 315.966385 78.068613 
L 317.052186 78.846037 
L 318.137987 77.495362 
L 319.223788 77.668123 
L 320.30959 77.526773 
L 321.395391 77.016344 
L 323.566993 77.322601 
L 324.652794 77.196957 
L 325.738595 76.081865 
L 326.824396 76.458798 
L 327.910198 77.094871 
L 328.995999 75.249472 
L 330.0818 76.843583 
L 331.167601 75.508613 
L 332.253402 75.689227 
L 333.339203 74.825423 
L 334.425005 74.864687 
L 335.510806 73.726037 
L 336.596607 74.032294 
L 337.682408 73.545423 
L 338.768209 73.663215 
L 339.85401 73.655362 
L 340.939811 73.812417 
L 342.025613 71.354503 
L 343.111414 72.186896 
L 344.197215 71.660761 
L 345.283016 71.590086 
L 346.368817 71.668613 
L 349.626221 70.718429 
L 350.712022 71.582233 
L 351.797823 70.757693 
L 352.883624 70.836221 
L 353.969425 69.540515 
L 355.055227 69.46984 
L 357.226829 68.606037 
L 358.31263 68.904442 
L 359.398431 68.692417 
L 360.484232 68.087755 
L 362.655835 68.425423 
L 364.827437 67.443828 
L 365.913238 68.598184 
L 366.999039 66.839166 
L 368.08484 68.236957 
L 369.170642 68.291926 
L 370.256443 69.477693 
L 372.428045 70.247264 
L 373.513846 70.687018 
L 374.599647 70.003828 
L 375.685448 69.995975 
L 376.77125 70.553521 
L 377.857051 70.592785 
L 378.942852 71.34665 
L 380.028653 70.718429 
L 381.114454 70.57708 
L 382.200255 70.80481 
L 383.286057 71.315239 
L 384.371858 69.705423 
L 385.457659 70.851926 
L 386.54346 69.83892 
L 387.629261 70.954012 
L 388.715062 71.158184 
L 389.800863 70.506405 
L 390.886665 70.29438 
L 391.972466 70.687018 
L 393.058267 69.548368 
L 394.144068 70.914748 
L 395.229869 69.815362 
L 396.31567 70.451436 
L 397.401472 69.98027 
L 398.487273 70.74984 
L 398.487273 70.74984 
" clip-path="url(#p31be385e52)" style="fill: none; stroke: #1f77b4; stroke-width: 1.5; stroke-linecap: square"/>
   </g>
   <g id="line2d_18">
    <path d="M 73.832727 219.457571 
L 74.918528 175.246528 
L 77.090131 126.637939 
L 78.175932 130.721374 
L 79.261733 129.22935 
L 80.347534 117.725055 
L 81.433335 102.490699 
L 82.519137 102.176589 
L 83.604938 97.818307 
L 84.690739 98.721374 
L 85.77654 90.947141 
L 86.862341 87.570454 
L 87.948142 84.586405 
L 89.033943 81.052663 
L 92.291347 77.126282 
L 93.377148 76.06616 
L 94.462949 75.437939 
L 95.54875 102.961865 
L 96.634552 92.125055 
L 97.720353 94.009718 
L 99.891955 87.727509 
L 100.977756 85.136098 
L 102.063557 84.861252 
L 103.149358 81.406037 
L 104.23516 82.741006 
L 105.320961 87.374135 
L 106.406762 82.78027 
L 107.492563 77.636712 
L 108.578364 80.188859 
L 110.749967 77.283337 
L 111.835768 77.440393 
L 112.921569 76.223215 
L 114.00737 73.945914 
L 115.093171 72.571681 
L 116.178972 76.183951 
L 117.264773 72.179043 
L 118.350575 70.80481 
L 119.436376 68.84162 
L 120.522177 69.862479 
L 121.607978 69.783951 
L 122.693779 68.802356 
L 123.77958 68.291926 
L 124.865382 65.896834 
L 125.951183 65.504196 
L 127.036984 64.71892 
L 128.122785 64.40481 
L 129.208586 63.58027 
L 130.294387 63.737325 
L 131.380189 63.030577 
L 132.46599 61.93119 
L 133.551791 61.656344 
L 134.637592 61.852663 
L 135.723393 61.813399 
L 136.809194 61.342233 
L 137.894995 61.499288 
L 138.980797 75.398675 
L 140.066598 79.246528 
L 141.152399 80.738552 
L 142.2382 79.010945 
L 143.324001 79.403583 
L 144.409802 79.364319 
L 145.495604 75.084564 
L 146.581405 79.285791 
L 147.667206 74.142233 
L 148.753007 75.830577 
L 149.838808 72.532417 
L 150.924609 76.576589 
L 152.01041 75.320147 
L 153.096212 77.322601 
L 154.182013 72.061252 
L 155.267814 73.514012 
L 156.353615 77.361865 
L 157.439416 72.296834 
L 158.525217 71.864933 
L 159.611019 73.749595 
L 160.69682 73.59254 
L 161.782621 73.867387 
L 162.868422 72.610945 
L 163.954223 69.194994 
L 165.040024 69.194994 
L 166.125825 70.137325 
L 167.211627 69.430577 
L 168.297428 67.663706 
L 169.383229 71.197448 
L 170.46903 68.527509 
L 171.554831 70.608491 
L 172.640632 70.451436 
L 173.726434 69.116466 
L 174.812235 68.056344 
L 175.898036 66.485791 
L 176.983837 66.328736 
L 178.069638 65.582724 
L 179.155439 66.642847 
L 180.24124 66.014626 
L 181.327042 64.247755 
L 182.412843 66.446528 
L 183.498644 65.347141 
L 184.584445 63.972908 
L 185.670246 64.954503 
L 186.756047 63.462479 
L 187.841849 63.030577 
L 188.92765 63.148368 
L 190.013451 62.284564 
L 192.185053 62.598675 
L 193.270854 61.695607 
L 194.356656 64.679656 
L 195.442457 61.460025 
L 196.528258 61.342233 
L 197.614059 60.478429 
L 198.69986 59.928736 
L 199.785661 59.810945 
L 200.871462 59.536098 
L 201.957264 58.868613 
L 203.043065 58.790086 
L 204.128866 59.810945 
L 205.214667 59.575362 
L 206.300468 59.496834 
L 207.386269 58.947141 
L 208.472071 57.808491 
L 209.557872 57.415853 
L 211.729474 57.258798 
L 212.815275 57.455117 
L 213.901076 57.808491 
L 214.986877 57.455117 
L 216.072679 56.748368 
L 217.15848 56.748368 
L 218.244281 56.512785 
L 219.330082 56.86616 
L 220.415883 57.062479 
L 221.501684 56.394994 
L 223.673287 56.473521 
L 224.759088 56.434258 
L 225.844889 75.909104 
L 226.93069 72.610945 
L 228.016491 75.280883 
L 229.102292 74.652663 
L 230.188094 71.904196 
L 231.273895 72.768 
L 232.359696 74.41708 
L 234.531298 70.608491 
L 235.617099 69.587632 
L 236.702901 70.529963 
L 237.788702 69.548368 
L 238.874503 70.922601 
L 239.960304 70.333644 
L 241.046105 72.925055 
L 242.131906 73.042847 
L 243.217708 68.684564 
L 244.303509 68.01708 
L 245.38931 68.056344 
L 246.475111 67.781497 
L 247.560912 70.687018 
L 248.646713 67.310331 
L 249.732514 70.922601 
L 250.818316 67.977816 
L 251.904117 67.899288 
L 252.989918 68.370454 
L 254.075719 67.742233 
L 255.16152 67.702969 
L 256.247321 66.760638 
L 257.333123 68.33119 
L 258.418924 66.05389 
L 259.504725 67.820761 
L 260.590526 67.860025 
L 261.676327 67.310331 
L 262.762128 69.391313 
L 263.847929 68.370454 
L 264.933731 68.291926 
L 266.019532 66.878429 
L 267.105333 66.446528 
L 268.191134 65.504196 
L 269.276935 66.132417 
L 270.362736 68.448982 
L 271.448538 68.252663 
L 272.534339 67.231804 
L 273.62014 68.488245 
L 274.705941 67.663706 
L 275.791742 64.993767 
L 276.877543 67.977816 
L 277.963344 65.347141 
L 279.049146 66.328736 
L 281.220748 65.033031 
L 282.306549 64.758184 
L 283.39235 66.603583 
L 284.478151 64.129963 
L 285.563953 64.522601 
L 286.649754 65.779043 
L 287.735555 63.737325 
L 288.821356 65.818307 
L 289.907157 64.40481 
L 290.992958 63.26616 
L 293.164561 64.758184 
L 294.250362 66.760638 
L 295.336163 63.541006 
L 296.421964 62.716466 
L 297.507765 62.363092 
L 298.593566 64.522601 
L 299.679368 64.169227 
L 300.765169 65.700515 
L 301.85097 63.658798 
L 302.936771 63.737325 
L 304.022572 61.460025 
L 305.108373 63.933644 
L 306.194175 62.677202 
L 307.279976 61.774135 
L 308.365777 63.030577 
L 309.451578 61.499288 
L 310.537379 61.813399 
L 311.62318 61.695607 
L 312.708981 60.517693 
L 313.794783 61.734871 
L 314.880584 62.166773 
L 315.966385 61.852663 
L 317.052186 62.284564 
L 318.137987 62.952049 
L 319.223788 61.224442 
L 320.30959 60.556957 
L 321.395391 62.245301 
L 322.481192 59.575362 
L 323.566993 59.457571 
L 324.652794 58.279656 
L 325.738595 58.907877 
L 326.824396 60.988859 
L 327.910198 59.496834 
L 328.995999 59.025669 
L 330.0818 60.125055 
L 331.167601 58.750822 
L 332.253402 58.201129 
L 333.339203 59.379043 
L 334.425005 59.418307 
L 335.510806 58.593767 
L 336.596607 58.279656 
L 337.682408 58.593767 
L 338.768209 58.00481 
L 339.85401 58.279656 
L 342.025613 56.787632 
L 343.111414 57.533644 
L 344.197215 57.376589 
L 345.283016 57.337325 
L 346.368817 57.49438 
L 347.454618 56.709104 
L 348.54042 56.983951 
L 349.626221 56.66984 
L 350.712022 57.258798 
L 351.797823 55.177816 
L 352.883624 57.729963 
L 353.969425 55.452663 
L 355.055227 56.473521 
L 356.141028 56.748368 
L 357.226829 56.002356 
L 359.398431 56.237939 
L 360.484232 56.002356 
L 361.570033 55.099288 
L 362.655835 55.256344 
L 363.741636 54.39254 
L 364.827437 55.020761 
L 365.913238 54.981497 
L 366.999039 55.963092 
L 368.08484 55.21708 
L 369.170642 55.177816 
L 370.256443 54.196221 
L 372.428045 57.141006 
L 373.513846 56.905423 
L 374.599647 57.101742 
L 375.685448 56.86616 
L 376.77125 56.86616 
L 377.857051 56.748368 
L 380.028653 57.533644 
L 382.200255 55.452663 
L 383.286057 57.769227 
L 385.457659 56.35573 
L 386.54346 57.612172 
L 388.715062 57.376589 
L 389.800863 57.612172 
L 390.886665 56.080883 
L 391.972466 56.86616 
L 393.058267 59.339779 
L 394.144068 58.044074 
L 395.229869 56.552049 
L 396.31567 57.219534 
L 397.401472 57.062479 
L 398.487273 59.457571 
L 398.487273 59.457571 
" clip-path="url(#p31be385e52)" style="fill: none; stroke: #ff7f0e; stroke-width: 1.5; stroke-linecap: square"/>
   </g>
   <g id="line2d_19">
    <path d="M 73.832727 243.71177 
L 76.00433 196.080714 
L 77.090131 182.324844 
L 78.175932 184.084945 
L 79.261733 182.433158 
L 80.347534 170.139525 
L 81.433335 154.515239 
L 82.519137 146.797871 
L 83.604938 152.18649 
L 84.690739 138.674325 
L 85.77654 139.865779 
L 86.862341 132.446274 
L 87.948142 128.249109 
L 89.033943 125.866202 
L 90.119745 126.407772 
L 91.205546 125.297554 
L 92.291347 123.727001 
L 93.377148 121.289938 
L 94.462949 119.854778 
L 95.54875 154.13614 
L 97.720353 137.293323 
L 98.806154 142.004979 
L 99.891955 132.175489 
L 100.977756 131.146506 
L 102.063557 134.423003 
L 103.149358 127.355519 
L 104.23516 130.117524 
L 105.320961 135.397829 
L 106.406762 131.688076 
L 107.492563 121.831508 
L 108.578364 127.165969 
L 109.664165 121.479487 
L 110.749967 120.342191 
L 111.835768 123.158353 
L 112.921569 118.230069 
L 114.00737 120.72129 
L 115.093171 118.825796 
L 116.178972 122.643862 
L 117.264773 115.738848 
L 118.350575 115.251436 
L 119.436376 112.706058 
L 120.522177 108.996305 
L 121.607978 111.352134 
L 122.693779 111.135506 
L 123.77958 104.907454 
L 124.865382 104.040943 
L 125.951183 104.474198 
L 127.036984 102.280841 
L 128.122785 103.255667 
L 129.208586 101.062309 
L 130.294387 100.818603 
L 131.380189 99.545914 
L 132.46599 100.791524 
L 133.551791 99.031423 
L 134.637592 99.735464 
L 135.723393 98.354461 
L 136.809194 98.219068 
L 137.894995 98.462775 
L 138.980797 121.777351 
L 140.066598 130.225838 
L 141.152399 128.465736 
L 142.2382 124.593513 
L 143.324001 126.43485 
L 144.409802 126.759792 
L 145.495604 120.152641 
L 146.581405 126.516085 
L 147.667206 116.767831 
L 148.753007 122.752176 
L 149.838808 117.065694 
L 150.924609 124.755984 
L 152.01041 119.367365 
L 153.096212 127.436754 
L 154.182013 120.883761 
L 155.267814 118.20299 
L 156.353615 124.1061 
L 157.439416 116.41581 
L 158.525217 118.04052 
L 159.611019 117.742656 
L 160.69682 119.448601 
L 161.782621 115.278514 
L 163.954223 114.249532 
L 165.040024 110.187759 
L 166.125825 113.626726 
L 167.211627 112.381116 
L 168.297428 109.375404 
L 169.383229 117.119851 
L 170.46903 114.655709 
L 172.640632 111.108427 
L 173.726434 116.849066 
L 174.812235 106.261378 
L 175.898036 107.588224 
L 176.983837 110.187759 
L 178.069638 106.261378 
L 179.155439 107.506989 
L 180.24124 107.723617 
L 181.327042 101.874664 
L 182.412843 109.971131 
L 183.498644 105.719809 
L 184.584445 105.69273 
L 185.670246 104.528355 
L 186.756047 107.371596 
L 187.841849 103.661844 
L 188.92765 103.851393 
L 190.013451 96.188182 
L 191.099252 101.306016 
L 192.185053 97.379635 
L 194.356656 102.849489 
L 195.442457 98.219068 
L 196.528258 100.006248 
L 197.614059 98.19199 
L 198.69986 97.731656 
L 199.785661 96.079868 
L 200.871462 94.942572 
L 201.957264 94.861336 
L 203.043065 94.536394 
L 204.128866 94.42808 
L 206.300468 92.370116 
L 207.386269 95.700769 
L 208.472071 93.696961 
L 209.557872 93.128313 
L 210.643673 91.259898 
L 211.729474 90.122601 
L 212.815275 90.176758 
L 213.901076 91.070348 
L 214.986877 90.339229 
L 216.072679 90.122601 
L 217.15848 89.472718 
L 218.244281 89.689345 
L 219.330082 89.60811 
L 220.415883 90.962034 
L 221.501684 88.497892 
L 222.587486 89.418561 
L 224.759088 88.849912 
L 225.844889 115.603456 
L 226.93069 123.374981 
L 228.016491 118.825796 
L 229.102292 119.936014 
L 230.188094 115.468063 
L 231.273895 116.280418 
L 232.359696 117.823892 
L 233.445497 112.326959 
L 234.531298 111.785389 
L 235.617099 115.820084 
L 236.702901 113.843354 
L 237.788702 107.182047 
L 238.874503 108.075637 
L 239.960304 112.110331 
L 241.046105 122.616784 
L 243.217708 113.112235 
L 244.303509 112.976843 
L 245.38931 109.80866 
L 246.475111 113.491334 
L 247.560912 110.431465 
L 248.646713 105.801044 
L 249.732514 117.363557 
L 250.818316 112.056174 
L 251.904117 108.752599 
L 252.989918 115.088965 
L 254.075719 112.949764 
L 255.16152 113.031 
L 256.247321 112.164488 
L 257.333123 119.692307 
L 258.418924 109.673268 
L 259.504725 111.487526 
L 260.590526 107.615303 
L 261.676327 107.046655 
L 262.762128 111.974939 
L 263.847929 107.588224 
L 264.933731 103.851393 
L 266.019532 108.644285 
L 267.105333 109.537875 
L 268.191134 106.261378 
L 269.276935 107.994402 
L 270.362736 113.112235 
L 271.448538 111.270898 
L 272.534339 107.12789 
L 273.62014 111.027192 
L 274.705941 111.514605 
L 275.791742 103.526451 
L 276.877543 104.853297 
L 277.963344 108.211029 
L 279.049146 108.887992 
L 280.134947 113.491334 
L 281.220748 108.346422 
L 282.306549 105.259475 
L 283.39235 104.79914 
L 284.478151 107.154968 
L 285.563953 99.735464 
L 286.649754 106.369692 
L 287.735555 101.820507 
L 288.821356 107.831931 
L 289.907157 103.093196 
L 290.992958 103.255667 
L 292.07876 105.665652 
L 293.164561 105.097004 
L 294.250362 108.833835 
L 295.336163 108.048558 
L 296.421964 102.416234 
L 297.507765 101.360173 
L 298.593566 104.149257 
L 299.679368 102.199606 
L 300.765169 104.744983 
L 301.85097 99.004344 
L 302.936771 101.982978 
L 304.022572 101.522644 
L 305.108373 100.547818 
L 306.194175 103.20151 
L 307.279976 100.358269 
L 308.365777 98.977266 
L 309.451578 102.091292 
L 310.537379 102.226684 
L 311.62318 101.143545 
L 312.708981 96.729752 
L 313.794783 98.652324 
L 314.880584 102.849489 
L 315.966385 98.408618 
L 317.052186 102.389155 
L 318.137987 102.11837 
L 319.223788 97.569185 
L 320.30959 96.269417 
L 321.395391 97.135929 
L 322.481192 95.619534 
L 323.566993 96.973458 
L 324.652794 95.86324 
L 325.738595 93.642804 
L 326.824396 95.565377 
L 327.910198 95.105043 
L 328.995999 95.457063 
L 330.0818 94.455159 
L 331.167601 94.103139 
L 332.253402 94.184374 
L 333.339203 93.155392 
L 334.425005 94.021903 
L 335.510806 97.406714 
L 336.596607 92.803371 
L 337.682408 96.458967 
L 338.768209 93.263706 
L 339.85401 94.319766 
L 340.939811 95.186278 
L 342.025613 91.341133 
L 343.111414 92.207645 
L 344.197215 95.782005 
L 345.283016 92.911685 
L 346.368817 91.638996 
L 347.454618 92.153488 
L 348.54042 91.638996 
L 349.626221 88.606206 
L 350.712022 91.963938 
L 351.797823 90.691249 
L 352.883624 91.259898 
L 353.969425 88.037558 
L 355.055227 90.14968 
L 356.141028 91.476525 
L 357.226829 91.693153 
L 358.31263 90.474622 
L 359.398431 90.257994 
L 360.484232 87.387674 
L 361.570033 90.095523 
L 362.655835 89.364404 
L 363.741636 88.308343 
L 364.827437 88.200029 
L 365.913238 87.27936 
L 366.999039 87.658459 
L 368.08484 89.743502 
L 369.170642 86.412849 
L 370.256443 86.304535 
L 371.342244 92.234723 
L 372.428045 93.480333 
L 373.513846 92.234723 
L 374.599647 91.178662 
L 375.685448 91.882703 
L 376.77125 90.691249 
L 377.857051 93.913589 
L 378.942852 91.368212 
L 380.028653 92.099331 
L 381.114454 91.638996 
L 382.200255 90.420465 
L 383.286057 93.18247 
L 384.371858 89.797659 
L 385.457659 91.286976 
L 386.54346 93.859432 
L 387.629261 95.673691 
L 388.715062 91.232819 
L 389.800863 91.963938 
L 390.886665 89.039462 
L 391.972466 95.484141 
L 393.058267 97.081772 
L 394.144068 94.807179 
L 395.229869 90.555857 
L 396.31567 92.803371 
L 397.401472 91.855624 
L 398.487273 96.242339 
L 398.487273 96.242339 
" clip-path="url(#p31be385e52)" style="fill: none; stroke: #2ca02c; stroke-width: 1.5; stroke-linecap: square"/>
   </g>
   <g id="line2d_20">
    <path d="M 368.08484 54.902969 
L 369.170642 54.471067 
M 371.342244 54.745914 
L 372.428045 53.803583 
L 373.513846 54.078429 
L 374.599647 54.196221 
L 375.685448 53.568 
L 376.77125 54.39254 
L 377.857051 54.628123 
L 378.942852 55.727509 
L 380.028653 53.725055 
L 381.114454 54.039166 
L 382.200255 53.646528 
L 383.286057 55.21708 
L 384.371858 54.942233 
L 385.457659 55.570454 
L 386.54346 54.314012 
L 387.629261 53.725055 
L 388.715062 54.078429 
L 389.800863 55.256344 
L 390.886665 54.196221 
L 391.972466 54.274748 
L 393.058267 54.549595 
L 394.144068 54.078429 
L 395.229869 53.842847 
L 396.31567 55.334871 
L 397.401472 54.628123 
L 398.487273 54.588859 
L 398.487273 54.588859 
" clip-path="url(#p31be385e52)" style="fill: none; stroke: #d62728; stroke-width: 1.5; stroke-linecap: square"/>
   </g>
   <g id="line2d_21">
    <path d="M 368.08484 88.3625 
L 369.170642 87.008575 
L 371.342244 83.35298 
L 372.428045 85.194317 
L 373.513846 84.977689 
L 374.599647 83.244666 
L 375.685448 85.113081 
L 376.77125 86.602398 
L 377.857051 85.735887 
L 378.942852 93.047078 
L 380.028653 89.174854 
L 381.114454 86.494084 
L 382.200255 85.952514 
L 383.286057 88.795755 
L 384.371858 85.762965 
L 385.457659 86.57532 
L 386.54346 84.59859 
L 387.629261 83.89455 
L 388.715062 87.171046 
L 389.800863 87.550145 
L 390.886665 86.358692 
L 393.058267 83.00096 
L 394.144068 82.567704 
L 395.229869 84.815218 
L 396.31567 86.196221 
L 397.401472 84.409041 
L 398.487273 84.78814 
L 398.487273 84.78814 
" clip-path="url(#p31be385e52)" style="fill: none; stroke: #9467bd; stroke-width: 1.5; stroke-linecap: square"/>
   </g>
   <g id="patch_3">
    <path d="M 57.6 307.584 
L 57.6 41.472 
" style="fill: none; stroke: #000000; stroke-width: 0.8; stroke-linejoin: miter; stroke-linecap: square"/>
   </g>
   <g id="patch_4">
    <path d="M 414.72 307.584 
L 414.72 41.472 
" style="fill: none; stroke: #000000; stroke-width: 0.8; stroke-linejoin: miter; stroke-linecap: square"/>
   </g>
   <g id="patch_5">
    <path d="M 57.6 307.584 
L 414.72 307.584 
" style="fill: none; stroke: #000000; stroke-width: 0.8; stroke-linejoin: miter; stroke-linecap: square"/>
   </g>
   <g id="patch_6">
    <path d="M 57.6 41.472 
L 414.72 41.472 
" style="fill: none; stroke: #000000; stroke-width: 0.8; stroke-linejoin: miter; stroke-linecap: square"/>
   </g>
   <g id="text_19">
    <!-- Learning Curves -->
    <g transform="translate(187.37625 35.472) scale(0.12 -0.12)">
     <defs>
      <path id="DejaVuSans-4c" d="M 628 4666 
L 1259 4666 
L 1259 531 
L 3531 531 
L 3531 0 
L 628 0 
L 628 4666 
z
" transform="scale(0.015625)"/>
      <path id="DejaVuSans-65" d="M 3597 1894 
L 3597 1613 
L 953 1613 
Q 991 1019 1311 708 
Q 1631 397 2203 397 
Q 2534 397 2845 478 
Q 3156 559 3463 722 
L 3463 178 
Q 3153 47 2828 -22 
Q 2503 -91 2169 -91 
Q 1331 -91 842 396 
Q 353 884 353 1716 
Q 353 2575 817 3079 
Q 1281 3584 2069 3584 
Q 2775 3584 3186 3129 
Q 3597 2675 3597 1894 
z
M 3022 2063 
Q 3016 2534 2758 2815 
Q 2500 3097 2075 3097 
Q 1594 3097 1305 2825 
Q 1016 2553 972 2059 
L 3022 2063 
z
" transform="scale(0.015625)"/>
      <path id="DejaVuSans-6e" d="M 3513 2113 
L 3513 0 
L 2938 0 
L 2938 2094 
Q 2938 2591 2744 2837 
Q 2550 3084 2163 3084 
Q 1697 3084 1428 2787 
Q 1159 2491 1159 1978 
L 1159 0 
L 581 0 
L 581 3500 
L 1159 3500 
L 1159 2956 
Q 1366 3272 1645 3428 
Q 1925 3584 2291 3584 
Q 2894 3584 3203 3211 
Q 3513 2838 3513 2113 
z
" transform="scale(0.015625)"/>
      <path id="DejaVuSans-69" d="M 603 3500 
L 1178 3500 
L 1178 0 
L 603 0 
L 603 3500 
z
M 603 4863 
L 1178 4863 
L 1178 4134 
L 603 4134 
L 603 4863 
z
" transform="scale(0.015625)"/>
      <path id="DejaVuSans-67" d="M 2906 1791 
Q 2906 2416 2648 2759 
Q 2391 3103 1925 3103 
Q 1463 3103 1205 2759 
Q 947 2416 947 1791 
Q 947 1169 1205 825 
Q 1463 481 1925 481 
Q 2391 481 2648 825 
Q 2906 1169 2906 1791 
z
M 3481 434 
Q 3481 -459 3084 -895 
Q 2688 -1331 1869 -1331 
Q 1566 -1331 1297 -1286 
Q 1028 -1241 775 -1147 
L 775 -588 
Q 1028 -725 1275 -790 
Q 1522 -856 1778 -856 
Q 2344 -856 2625 -561 
Q 2906 -266 2906 331 
L 2906 616 
Q 2728 306 2450 153 
Q 2172 0 1784 0 
Q 1141 0 747 490 
Q 353 981 353 1791 
Q 353 2603 747 3093 
Q 1141 3584 1784 3584 
Q 2172 3584 2450 3431 
Q 2728 3278 2906 2969 
L 2906 3500 
L 3481 3500 
L 3481 434 
z
" transform="scale(0.015625)"/>
      <path id="DejaVuSans-20" transform="scale(0.015625)"/>
      <path id="DejaVuSans-43" d="M 4122 4306 
L 4122 3641 
Q 3803 3938 3442 4084 
Q 3081 4231 2675 4231 
Q 1875 4231 1450 3742 
Q 1025 3253 1025 2328 
Q 1025 1406 1450 917 
Q 1875 428 2675 428 
Q 3081 428 3442 575 
Q 3803 722 4122 1019 
L 4122 359 
Q 3791 134 3420 21 
Q 3050 -91 2638 -91 
Q 1578 -91 968 557 
Q 359 1206 359 2328 
Q 359 3453 968 4101 
Q 1578 4750 2638 4750 
Q 3056 4750 3426 4639 
Q 3797 4528 4122 4306 
z
" transform="scale(0.015625)"/>
      <path id="DejaVuSans-76" d="M 191 3500 
L 800 3500 
L 1894 563 
L 2988 3500 
L 3597 3500 
L 2284 0 
L 1503 0 
L 191 3500 
z
" transform="scale(0.015625)"/>
     </defs>
     <use xlink:href="#DejaVuSans-4c"/>
     <use xlink:href="#DejaVuSans-65" x="53.962891"/>
     <use xlink:href="#DejaVuSans-61" x="115.486328"/>
     <use xlink:href="#DejaVuSans-72" x="176.765625"/>
     <use xlink:href="#DejaVuSans-6e" x="216.128906"/>
     <use xlink:href="#DejaVuSans-69" x="279.507812"/>
     <use xlink:href="#DejaVuSans-6e" x="307.291016"/>
     <use xlink:href="#DejaVuSans-67" x="370.669922"/>
     <use xlink:href="#DejaVuSans-20" x="434.146484"/>
     <use xlink:href="#DejaVuSans-43" x="465.933594"/>
     <use xlink:href="#DejaVuSans-75" x="535.757812"/>
     <use xlink:href="#DejaVuSans-72" x="599.136719"/>
     <use xlink:href="#DejaVuSans-76" x="640.25"/>
     <use xlink:href="#DejaVuSans-65" x="699.429688"/>
     <use xlink:href="#DejaVuSans-73" x="760.953125"/>
    </g>
   </g>
   <g id="legend_1">
    <g id="patch_7">
     <path d="M 214.18875 302.584 
L 407.72 302.584 
Q 409.72 302.584 409.72 300.584 
L 409.72 228.193375 
Q 409.72 226.193375 407.72 226.193375 
L 214.18875 226.193375 
Q 212.18875 226.193375 212.18875 228.193375 
L 212.18875 300.584 
Q 212.18875 302.584 214.18875 302.584 
z
" style="fill: #ffffff; opacity: 0.8; stroke: #cccccc; stroke-linejoin: miter"/>
    </g>
    <g id="line2d_22">
     <path d="M 216.18875 234.291812 
L 226.18875 234.291812 
L 236.18875 234.291812 
" style="fill: none; stroke: #1f77b4; stroke-width: 1.5; stroke-linecap: square"/>
    </g>
    <g id="text_20">
     <!-- Train Accuracy -->
     <g transform="translate(244.18875 237.791812) scale(0.1 -0.1)">
      <defs>
       <path id="DejaVuSans-54" d="M -19 4666 
L 3928 4666 
L 3928 4134 
L 2272 4134 
L 2272 0 
L 1638 0 
L 1638 4134 
L -19 4134 
L -19 4666 
z
" transform="scale(0.015625)"/>
      </defs>
      <use xlink:href="#DejaVuSans-54"/>
      <use xlink:href="#DejaVuSans-72" x="46.333984"/>
      <use xlink:href="#DejaVuSans-61" x="87.447266"/>
      <use xlink:href="#DejaVuSans-69" x="148.726562"/>
      <use xlink:href="#DejaVuSans-6e" x="176.509766"/>
      <use xlink:href="#DejaVuSans-20" x="239.888672"/>
      <use xlink:href="#DejaVuSans-41" x="271.675781"/>
      <use xlink:href="#DejaVuSans-63" x="338.333984"/>
      <use xlink:href="#DejaVuSans-63" x="393.314453"/>
      <use xlink:href="#DejaVuSans-75" x="448.294922"/>
      <use xlink:href="#DejaVuSans-72" x="511.673828"/>
      <use xlink:href="#DejaVuSans-61" x="552.787109"/>
      <use xlink:href="#DejaVuSans-63" x="614.066406"/>
      <use xlink:href="#DejaVuSans-79" x="669.046875"/>
     </g>
    </g>
    <g id="line2d_23">
     <path d="M 216.18875 248.969937 
L 226.18875 248.969937 
L 236.18875 248.969937 
" style="fill: none; stroke: #ff7f0e; stroke-width: 1.5; stroke-linecap: square"/>
    </g>
    <g id="text_21">
     <!-- Validation Accuracy -->
     <g transform="translate(244.18875 252.469937) scale(0.1 -0.1)">
      <defs>
       <path id="DejaVuSans-56" d="M 1831 0 
L 50 4666 
L 709 4666 
L 2188 738 
L 3669 4666 
L 4325 4666 
L 2547 0 
L 1831 0 
z
" transform="scale(0.015625)"/>
       <path id="DejaVuSans-6c" d="M 603 4863 
L 1178 4863 
L 1178 0 
L 603 0 
L 603 4863 
z
" transform="scale(0.015625)"/>
       <path id="DejaVuSans-64" d="M 2906 2969 
L 2906 4863 
L 3481 4863 
L 3481 0 
L 2906 0 
L 2906 525 
Q 2725 213 2448 61 
Q 2172 -91 1784 -91 
Q 1150 -91 751 415 
Q 353 922 353 1747 
Q 353 2572 751 3078 
Q 1150 3584 1784 3584 
Q 2172 3584 2448 3432 
Q 2725 3281 2906 2969 
z
M 947 1747 
Q 947 1113 1208 752 
Q 1469 391 1925 391 
Q 2381 391 2643 752 
Q 2906 1113 2906 1747 
Q 2906 2381 2643 2742 
Q 2381 3103 1925 3103 
Q 1469 3103 1208 2742 
Q 947 2381 947 1747 
z
" transform="scale(0.015625)"/>
       <path id="DejaVuSans-74" d="M 1172 4494 
L 1172 3500 
L 2356 3500 
L 2356 3053 
L 1172 3053 
L 1172 1153 
Q 1172 725 1289 603 
Q 1406 481 1766 481 
L 2356 481 
L 2356 0 
L 1766 0 
Q 1100 0 847 248 
Q 594 497 594 1153 
L 594 3053 
L 172 3053 
L 172 3500 
L 594 3500 
L 594 4494 
L 1172 4494 
z
" transform="scale(0.015625)"/>
      </defs>
      <use xlink:href="#DejaVuSans-56"/>
      <use xlink:href="#DejaVuSans-61" x="60.658203"/>
      <use xlink:href="#DejaVuSans-6c" x="121.9375"/>
      <use xlink:href="#DejaVuSans-69" x="149.720703"/>
      <use xlink:href="#DejaVuSans-64" x="177.503906"/>
      <use xlink:href="#DejaVuSans-61" x="240.980469"/>
      <use xlink:href="#DejaVuSans-74" x="302.259766"/>
      <use xlink:href="#DejaVuSans-69" x="341.46875"/>
      <use xlink:href="#DejaVuSans-6f" x="369.251953"/>
      <use xlink:href="#DejaVuSans-6e" x="430.433594"/>
      <use xlink:href="#DejaVuSans-20" x="493.8125"/>
      <use xlink:href="#DejaVuSans-41" x="525.599609"/>
      <use xlink:href="#DejaVuSans-63" x="592.257812"/>
      <use xlink:href="#DejaVuSans-63" x="647.238281"/>
      <use xlink:href="#DejaVuSans-75" x="702.21875"/>
      <use xlink:href="#DejaVuSans-72" x="765.597656"/>
      <use xlink:href="#DejaVuSans-61" x="806.710938"/>
      <use xlink:href="#DejaVuSans-63" x="867.990234"/>
      <use xlink:href="#DejaVuSans-79" x="922.970703"/>
     </g>
    </g>
    <g id="line2d_24">
     <path d="M 216.18875 263.648062 
L 226.18875 263.648062 
L 236.18875 263.648062 
" style="fill: none; stroke: #2ca02c; stroke-width: 1.5; stroke-linecap: square"/>
    </g>
    <g id="text_22">
     <!-- Robust Validation Accuracy -->
     <g transform="translate(244.18875 267.148062) scale(0.1 -0.1)">
      <defs>
       <path id="DejaVuSans-52" d="M 2841 2188 
Q 3044 2119 3236 1894 
Q 3428 1669 3622 1275 
L 4263 0 
L 3584 0 
L 2988 1197 
Q 2756 1666 2539 1819 
Q 2322 1972 1947 1972 
L 1259 1972 
L 1259 0 
L 628 0 
L 628 4666 
L 2053 4666 
Q 2853 4666 3247 4331 
Q 3641 3997 3641 3322 
Q 3641 2881 3436 2590 
Q 3231 2300 2841 2188 
z
M 1259 4147 
L 1259 2491 
L 2053 2491 
Q 2509 2491 2742 2702 
Q 2975 2913 2975 3322 
Q 2975 3731 2742 3939 
Q 2509 4147 2053 4147 
L 1259 4147 
z
" transform="scale(0.015625)"/>
       <path id="DejaVuSans-62" d="M 3116 1747 
Q 3116 2381 2855 2742 
Q 2594 3103 2138 3103 
Q 1681 3103 1420 2742 
Q 1159 2381 1159 1747 
Q 1159 1113 1420 752 
Q 1681 391 2138 391 
Q 2594 391 2855 752 
Q 3116 1113 3116 1747 
z
M 1159 2969 
Q 1341 3281 1617 3432 
Q 1894 3584 2278 3584 
Q 2916 3584 3314 3078 
Q 3713 2572 3713 1747 
Q 3713 922 3314 415 
Q 2916 -91 2278 -91 
Q 1894 -91 1617 61 
Q 1341 213 1159 525 
L 1159 0 
L 581 0 
L 581 4863 
L 1159 4863 
L 1159 2969 
z
" transform="scale(0.015625)"/>
      </defs>
      <use xlink:href="#DejaVuSans-52"/>
      <use xlink:href="#DejaVuSans-6f" x="64.982422"/>
      <use xlink:href="#DejaVuSans-62" x="126.164062"/>
      <use xlink:href="#DejaVuSans-75" x="189.640625"/>
      <use xlink:href="#DejaVuSans-73" x="253.019531"/>
      <use xlink:href="#DejaVuSans-74" x="305.119141"/>
      <use xlink:href="#DejaVuSans-20" x="344.328125"/>
      <use xlink:href="#DejaVuSans-56" x="376.115234"/>
      <use xlink:href="#DejaVuSans-61" x="436.773438"/>
      <use xlink:href="#DejaVuSans-6c" x="498.052734"/>
      <use xlink:href="#DejaVuSans-69" x="525.835938"/>
      <use xlink:href="#DejaVuSans-64" x="553.619141"/>
      <use xlink:href="#DejaVuSans-61" x="617.095703"/>
      <use xlink:href="#DejaVuSans-74" x="678.375"/>
      <use xlink:href="#DejaVuSans-69" x="717.583984"/>
      <use xlink:href="#DejaVuSans-6f" x="745.367188"/>
      <use xlink:href="#DejaVuSans-6e" x="806.548828"/>
      <use xlink:href="#DejaVuSans-20" x="869.927734"/>
      <use xlink:href="#DejaVuSans-41" x="901.714844"/>
      <use xlink:href="#DejaVuSans-63" x="968.373047"/>
      <use xlink:href="#DejaVuSans-63" x="1023.353516"/>
      <use xlink:href="#DejaVuSans-75" x="1078.333984"/>
      <use xlink:href="#DejaVuSans-72" x="1141.712891"/>
      <use xlink:href="#DejaVuSans-61" x="1182.826172"/>
      <use xlink:href="#DejaVuSans-63" x="1244.105469"/>
      <use xlink:href="#DejaVuSans-79" x="1299.085938"/>
     </g>
    </g>
    <g id="line2d_25">
     <path d="M 216.18875 278.326188 
L 226.18875 278.326188 
L 236.18875 278.326188 
" style="fill: none; stroke: #d62728; stroke-width: 1.5; stroke-linecap: square"/>
    </g>
    <g id="text_23">
     <!-- SWA Validation Accuracy -->
     <g transform="translate(244.18875 281.826188) scale(0.1 -0.1)">
      <defs>
       <path id="DejaVuSans-53" d="M 3425 4513 
L 3425 3897 
Q 3066 4069 2747 4153 
Q 2428 4238 2131 4238 
Q 1616 4238 1336 4038 
Q 1056 3838 1056 3469 
Q 1056 3159 1242 3001 
Q 1428 2844 1947 2747 
L 2328 2669 
Q 3034 2534 3370 2195 
Q 3706 1856 3706 1288 
Q 3706 609 3251 259 
Q 2797 -91 1919 -91 
Q 1588 -91 1214 -16 
Q 841 59 441 206 
L 441 856 
Q 825 641 1194 531 
Q 1563 422 1919 422 
Q 2459 422 2753 634 
Q 3047 847 3047 1241 
Q 3047 1584 2836 1778 
Q 2625 1972 2144 2069 
L 1759 2144 
Q 1053 2284 737 2584 
Q 422 2884 422 3419 
Q 422 4038 858 4394 
Q 1294 4750 2059 4750 
Q 2388 4750 2728 4690 
Q 3069 4631 3425 4513 
z
" transform="scale(0.015625)"/>
       <path id="DejaVuSans-57" d="M 213 4666 
L 850 4666 
L 1831 722 
L 2809 4666 
L 3519 4666 
L 4500 722 
L 5478 4666 
L 6119 4666 
L 4947 0 
L 4153 0 
L 3169 4050 
L 2175 0 
L 1381 0 
L 213 4666 
z
" transform="scale(0.015625)"/>
      </defs>
      <use xlink:href="#DejaVuSans-53"/>
      <use xlink:href="#DejaVuSans-57" x="63.476562"/>
      <use xlink:href="#DejaVuSans-41" x="156.853516"/>
      <use xlink:href="#DejaVuSans-20" x="225.261719"/>
      <use xlink:href="#DejaVuSans-56" x="257.048828"/>
      <use xlink:href="#DejaVuSans-61" x="317.707031"/>
      <use xlink:href="#DejaVuSans-6c" x="378.986328"/>
      <use xlink:href="#DejaVuSans-69" x="406.769531"/>
      <use xlink:href="#DejaVuSans-64" x="434.552734"/>
      <use xlink:href="#DejaVuSans-61" x="498.029297"/>
      <use xlink:href="#DejaVuSans-74" x="559.308594"/>
      <use xlink:href="#DejaVuSans-69" x="598.517578"/>
      <use xlink:href="#DejaVuSans-6f" x="626.300781"/>
      <use xlink:href="#DejaVuSans-6e" x="687.482422"/>
      <use xlink:href="#DejaVuSans-20" x="750.861328"/>
      <use xlink:href="#DejaVuSans-41" x="782.648438"/>
      <use xlink:href="#DejaVuSans-63" x="849.306641"/>
      <use xlink:href="#DejaVuSans-63" x="904.287109"/>
      <use xlink:href="#DejaVuSans-75" x="959.267578"/>
      <use xlink:href="#DejaVuSans-72" x="1022.646484"/>
      <use xlink:href="#DejaVuSans-61" x="1063.759766"/>
      <use xlink:href="#DejaVuSans-63" x="1125.039062"/>
      <use xlink:href="#DejaVuSans-79" x="1180.019531"/>
     </g>
    </g>
    <g id="line2d_26">
     <path d="M 216.18875 293.004312 
L 226.18875 293.004312 
L 236.18875 293.004312 
" style="fill: none; stroke: #9467bd; stroke-width: 1.5; stroke-linecap: square"/>
    </g>
    <g id="text_24">
     <!-- SWA Robust Validation Accuracy -->
     <g transform="translate(244.18875 296.504312) scale(0.1 -0.1)">
      <use xlink:href="#DejaVuSans-53"/>
      <use xlink:href="#DejaVuSans-57" x="63.476562"/>
      <use xlink:href="#DejaVuSans-41" x="156.853516"/>
      <use xlink:href="#DejaVuSans-20" x="225.261719"/>
      <use xlink:href="#DejaVuSans-52" x="257.048828"/>
      <use xlink:href="#DejaVuSans-6f" x="322.03125"/>
      <use xlink:href="#DejaVuSans-62" x="383.212891"/>
      <use xlink:href="#DejaVuSans-75" x="446.689453"/>
      <use xlink:href="#DejaVuSans-73" x="510.068359"/>
      <use xlink:href="#DejaVuSans-74" x="562.167969"/>
      <use xlink:href="#DejaVuSans-20" x="601.376953"/>
      <use xlink:href="#DejaVuSans-56" x="633.164062"/>
      <use xlink:href="#DejaVuSans-61" x="693.822266"/>
      <use xlink:href="#DejaVuSans-6c" x="755.101562"/>
      <use xlink:href="#DejaVuSans-69" x="782.884766"/>
      <use xlink:href="#DejaVuSans-64" x="810.667969"/>
      <use xlink:href="#DejaVuSans-61" x="874.144531"/>
      <use xlink:href="#DejaVuSans-74" x="935.423828"/>
      <use xlink:href="#DejaVuSans-69" x="974.632812"/>
      <use xlink:href="#DejaVuSans-6f" x="1002.416016"/>
      <use xlink:href="#DejaVuSans-6e" x="1063.597656"/>
      <use xlink:href="#DejaVuSans-20" x="1126.976562"/>
      <use xlink:href="#DejaVuSans-41" x="1158.763672"/>
      <use xlink:href="#DejaVuSans-63" x="1225.421875"/>
      <use xlink:href="#DejaVuSans-63" x="1280.402344"/>
      <use xlink:href="#DejaVuSans-75" x="1335.382812"/>
      <use xlink:href="#DejaVuSans-72" x="1398.761719"/>
      <use xlink:href="#DejaVuSans-61" x="1439.875"/>
      <use xlink:href="#DejaVuSans-63" x="1501.154297"/>
      <use xlink:href="#DejaVuSans-79" x="1556.134766"/>
     </g>
    </g>
   </g>
  </g>
 </g>
 <defs>
  <clipPath id="p31be385e52">
   <rect x="57.6" y="41.472" width="357.12" height="266.112"/>
  </clipPath>
 </defs>
</svg>
