<?xml version="1.0" encoding="utf-8" standalone="no"?>
<!DOCTYPE svg PUBLIC "-//W3C//DTD SVG 1.1//EN"
  "http://www.w3.org/Graphics/SVG/1.1/DTD/svg11.dtd">
<svg xmlns:xlink="http://www.w3.org/1999/xlink" width="460.8pt" height="345.6pt" viewBox="0 0 460.8 345.6" xmlns="http://www.w3.org/2000/svg" version="1.1">
 <metadata>
  <rdf:RDF xmlns:dc="http://purl.org/dc/elements/1.1/" xmlns:cc="http://creativecommons.org/ns#" xmlns:rdf="http://www.w3.org/1999/02/22-rdf-syntax-ns#">
   <cc:Work>
    <dc:type rdf:resource="http://purl.org/dc/dcmitype/StillImage"/>
    <dc:date>2025-06-25T07:50:08.452112</dc:date>
    <dc:format>image/svg+xml</dc:format>
    <dc:creator>
     <cc:Agent>
      <dc:title>Matplotlib v3.9.1, https://matplotlib.org/</dc:title>
     </cc:Agent>
    </dc:creator>
   </cc:Work>
  </rdf:RDF>
 </metadata>
 <defs>
  <style type="text/css">*{stroke-linejoin: round; stroke-linecap: butt}</style>
 </defs>
 <g id="figure_1">
  <g id="patch_1">
   <path d="M 0 345.6 
L 460.8 345.6 
L 460.8 0 
L 0 0 
z
" style="fill: #ffffff"/>
  </g>
  <g id="axes_1">
   <g id="patch_2">
    <path d="M 57.6 307.584 
L 414.72 307.584 
L 414.72 41.472 
L 57.6 41.472 
z
" style="fill: #ffffff"/>
   </g>
   <g id="matplotlib.axis_1">
    <g id="xtick_1">
     <g id="line2d_1">
      <defs>
       <path id="mf7dce9c899" d="M 0 0 
L 0 3.5 
" style="stroke: #000000; stroke-width: 0.8"/>
      </defs>
      <g>
       <use xlink:href="#mf7dce9c899" x="73.832727" y="307.584" style="stroke: #000000; stroke-width: 0.8"/>
      </g>
     </g>
     <g id="text_1">
      <!-- 1 -->
      <g transform="translate(70.651477 322.182437) scale(0.1 -0.1)">
       <defs>
        <path id="DejaVuSans-31" d="M 794 531 
L 1825 531 
L 1825 4091 
L 703 3866 
L 703 4441 
L 1819 4666 
L 2450 4666 
L 2450 531 
L 3481 531 
L 3481 0 
L 794 0 
L 794 531 
z
" transform="scale(0.015625)"/>
       </defs>
       <use xlink:href="#DejaVuSans-31"/>
      </g>
     </g>
    </g>
    <g id="xtick_2">
     <g id="line2d_2">
      <g>
       <use xlink:href="#mf7dce9c899" x="109.664165" y="307.584" style="stroke: #000000; stroke-width: 0.8"/>
      </g>
     </g>
     <g id="text_2">
      <!-- 34 -->
      <g transform="translate(103.301665 322.182437) scale(0.1 -0.1)">
       <defs>
        <path id="DejaVuSans-33" d="M 2597 2516 
Q 3050 2419 3304 2112 
Q 3559 1806 3559 1356 
Q 3559 666 3084 287 
Q 2609 -91 1734 -91 
Q 1441 -91 1130 -33 
Q 819 25 488 141 
L 488 750 
Q 750 597 1062 519 
Q 1375 441 1716 441 
Q 2309 441 2620 675 
Q 2931 909 2931 1356 
Q 2931 1769 2642 2001 
Q 2353 2234 1838 2234 
L 1294 2234 
L 1294 2753 
L 1863 2753 
Q 2328 2753 2575 2939 
Q 2822 3125 2822 3475 
Q 2822 3834 2567 4026 
Q 2313 4219 1838 4219 
Q 1578 4219 1281 4162 
Q 984 4106 628 3988 
L 628 4550 
Q 988 4650 1302 4700 
Q 1616 4750 1894 4750 
Q 2613 4750 3031 4423 
Q 3450 4097 3450 3541 
Q 3450 3153 3228 2886 
Q 3006 2619 2597 2516 
z
" transform="scale(0.015625)"/>
        <path id="DejaVuSans-34" d="M 2419 4116 
L 825 1625 
L 2419 1625 
L 2419 4116 
z
M 2253 4666 
L 3047 4666 
L 3047 1625 
L 3713 1625 
L 3713 1100 
L 3047 1100 
L 3047 0 
L 2419 0 
L 2419 1100 
L 313 1100 
L 313 1709 
L 2253 4666 
z
" transform="scale(0.015625)"/>
       </defs>
       <use xlink:href="#DejaVuSans-33"/>
       <use xlink:href="#DejaVuSans-34" x="63.623047"/>
      </g>
     </g>
    </g>
    <g id="xtick_3">
     <g id="line2d_3">
      <g>
       <use xlink:href="#mf7dce9c899" x="145.495604" y="307.584" style="stroke: #000000; stroke-width: 0.8"/>
      </g>
     </g>
     <g id="text_3">
      <!-- 67 -->
      <g transform="translate(139.133104 322.182437) scale(0.1 -0.1)">
       <defs>
        <path id="DejaVuSans-36" d="M 2113 2584 
Q 1688 2584 1439 2293 
Q 1191 2003 1191 1497 
Q 1191 994 1439 701 
Q 1688 409 2113 409 
Q 2538 409 2786 701 
Q 3034 994 3034 1497 
Q 3034 2003 2786 2293 
Q 2538 2584 2113 2584 
z
M 3366 4563 
L 3366 3988 
Q 3128 4100 2886 4159 
Q 2644 4219 2406 4219 
Q 1781 4219 1451 3797 
Q 1122 3375 1075 2522 
Q 1259 2794 1537 2939 
Q 1816 3084 2150 3084 
Q 2853 3084 3261 2657 
Q 3669 2231 3669 1497 
Q 3669 778 3244 343 
Q 2819 -91 2113 -91 
Q 1303 -91 875 529 
Q 447 1150 447 2328 
Q 447 3434 972 4092 
Q 1497 4750 2381 4750 
Q 2619 4750 2861 4703 
Q 3103 4656 3366 4563 
z
" transform="scale(0.015625)"/>
        <path id="DejaVuSans-37" d="M 525 4666 
L 3525 4666 
L 3525 4397 
L 1831 0 
L 1172 0 
L 2766 4134 
L 525 4134 
L 525 4666 
z
" transform="scale(0.015625)"/>
       </defs>
       <use xlink:href="#DejaVuSans-36"/>
       <use xlink:href="#DejaVuSans-37" x="63.623047"/>
      </g>
     </g>
    </g>
    <g id="xtick_4">
     <g id="line2d_4">
      <g>
       <use xlink:href="#mf7dce9c899" x="181.327042" y="307.584" style="stroke: #000000; stroke-width: 0.8"/>
      </g>
     </g>
     <g id="text_4">
      <!-- 100 -->
      <g transform="translate(171.783292 322.182437) scale(0.1 -0.1)">
       <defs>
        <path id="DejaVuSans-30" d="M 2034 4250 
Q 1547 4250 1301 3770 
Q 1056 3291 1056 2328 
Q 1056 1369 1301 889 
Q 1547 409 2034 409 
Q 2525 409 2770 889 
Q 3016 1369 3016 2328 
Q 3016 3291 2770 3770 
Q 2525 4250 2034 4250 
z
M 2034 4750 
Q 2819 4750 3233 4129 
Q 3647 3509 3647 2328 
Q 3647 1150 3233 529 
Q 2819 -91 2034 -91 
Q 1250 -91 836 529 
Q 422 1150 422 2328 
Q 422 3509 836 4129 
Q 1250 4750 2034 4750 
z
" transform="scale(0.015625)"/>
       </defs>
       <use xlink:href="#DejaVuSans-31"/>
       <use xlink:href="#DejaVuSans-30" x="63.623047"/>
       <use xlink:href="#DejaVuSans-30" x="127.246094"/>
      </g>
     </g>
    </g>
    <g id="xtick_5">
     <g id="line2d_5">
      <g>
       <use xlink:href="#mf7dce9c899" x="217.15848" y="307.584" style="stroke: #000000; stroke-width: 0.8"/>
      </g>
     </g>
     <g id="text_5">
      <!-- 133 -->
      <g transform="translate(207.61473 322.182437) scale(0.1 -0.1)">
       <use xlink:href="#DejaVuSans-31"/>
       <use xlink:href="#DejaVuSans-33" x="63.623047"/>
       <use xlink:href="#DejaVuSans-33" x="127.246094"/>
      </g>
     </g>
    </g>
    <g id="xtick_6">
     <g id="line2d_6">
      <g>
       <use xlink:href="#mf7dce9c899" x="254.075719" y="307.584" style="stroke: #000000; stroke-width: 0.8"/>
      </g>
     </g>
     <g id="text_6">
      <!-- 167 -->
      <g transform="translate(244.531969 322.182437) scale(0.1 -0.1)">
       <use xlink:href="#DejaVuSans-31"/>
       <use xlink:href="#DejaVuSans-36" x="63.623047"/>
       <use xlink:href="#DejaVuSans-37" x="127.246094"/>
      </g>
     </g>
    </g>
    <g id="xtick_7">
     <g id="line2d_7">
      <g>
       <use xlink:href="#mf7dce9c899" x="289.907157" y="307.584" style="stroke: #000000; stroke-width: 0.8"/>
      </g>
     </g>
     <g id="text_7">
      <!-- 200 -->
      <g transform="translate(280.363407 322.182437) scale(0.1 -0.1)">
       <defs>
        <path id="DejaVuSans-32" d="M 1228 531 
L 3431 531 
L 3431 0 
L 469 0 
L 469 531 
Q 828 903 1448 1529 
Q 2069 2156 2228 2338 
Q 2531 2678 2651 2914 
Q 2772 3150 2772 3378 
Q 2772 3750 2511 3984 
Q 2250 4219 1831 4219 
Q 1534 4219 1204 4116 
Q 875 4013 500 3803 
L 500 4441 
Q 881 4594 1212 4672 
Q 1544 4750 1819 4750 
Q 2544 4750 2975 4387 
Q 3406 4025 3406 3419 
Q 3406 3131 3298 2873 
Q 3191 2616 2906 2266 
Q 2828 2175 2409 1742 
Q 1991 1309 1228 531 
z
" transform="scale(0.015625)"/>
       </defs>
       <use xlink:href="#DejaVuSans-32"/>
       <use xlink:href="#DejaVuSans-30" x="63.623047"/>
       <use xlink:href="#DejaVuSans-30" x="127.246094"/>
      </g>
     </g>
    </g>
    <g id="xtick_8">
     <g id="line2d_8">
      <g>
       <use xlink:href="#mf7dce9c899" x="325.738595" y="307.584" style="stroke: #000000; stroke-width: 0.8"/>
      </g>
     </g>
     <g id="text_8">
      <!-- 233 -->
      <g transform="translate(316.194845 322.182437) scale(0.1 -0.1)">
       <use xlink:href="#DejaVuSans-32"/>
       <use xlink:href="#DejaVuSans-33" x="63.623047"/>
       <use xlink:href="#DejaVuSans-33" x="127.246094"/>
      </g>
     </g>
    </g>
    <g id="xtick_9">
     <g id="line2d_9">
      <g>
       <use xlink:href="#mf7dce9c899" x="361.570033" y="307.584" style="stroke: #000000; stroke-width: 0.8"/>
      </g>
     </g>
     <g id="text_9">
      <!-- 266 -->
      <g transform="translate(352.026283 322.182437) scale(0.1 -0.1)">
       <use xlink:href="#DejaVuSans-32"/>
       <use xlink:href="#DejaVuSans-36" x="63.623047"/>
       <use xlink:href="#DejaVuSans-36" x="127.246094"/>
      </g>
     </g>
    </g>
    <g id="xtick_10">
     <g id="line2d_10">
      <g>
       <use xlink:href="#mf7dce9c899" x="398.487273" y="307.584" style="stroke: #000000; stroke-width: 0.8"/>
      </g>
     </g>
     <g id="text_10">
      <!-- 300 -->
      <g transform="translate(388.943523 322.182437) scale(0.1 -0.1)">
       <use xlink:href="#DejaVuSans-33"/>
       <use xlink:href="#DejaVuSans-30" x="63.623047"/>
       <use xlink:href="#DejaVuSans-30" x="127.246094"/>
      </g>
     </g>
    </g>
    <g id="text_11">
     <!-- Epochs -->
     <g transform="translate(218.244375 335.860562) scale(0.1 -0.1)">
      <defs>
       <path id="DejaVuSans-45" d="M 628 4666 
L 3578 4666 
L 3578 4134 
L 1259 4134 
L 1259 2753 
L 3481 2753 
L 3481 2222 
L 1259 2222 
L 1259 531 
L 3634 531 
L 3634 0 
L 628 0 
L 628 4666 
z
" transform="scale(0.015625)"/>
       <path id="DejaVuSans-70" d="M 1159 525 
L 1159 -1331 
L 581 -1331 
L 581 3500 
L 1159 3500 
L 1159 2969 
Q 1341 3281 1617 3432 
Q 1894 3584 2278 3584 
Q 2916 3584 3314 3078 
Q 3713 2572 3713 1747 
Q 3713 922 3314 415 
Q 2916 -91 2278 -91 
Q 1894 -91 1617 61 
Q 1341 213 1159 525 
z
M 3116 1747 
Q 3116 2381 2855 2742 
Q 2594 3103 2138 3103 
Q 1681 3103 1420 2742 
Q 1159 2381 1159 1747 
Q 1159 1113 1420 752 
Q 1681 391 2138 391 
Q 2594 391 2855 752 
Q 3116 1113 3116 1747 
z
" transform="scale(0.015625)"/>
       <path id="DejaVuSans-6f" d="M 1959 3097 
Q 1497 3097 1228 2736 
Q 959 2375 959 1747 
Q 959 1119 1226 758 
Q 1494 397 1959 397 
Q 2419 397 2687 759 
Q 2956 1122 2956 1747 
Q 2956 2369 2687 2733 
Q 2419 3097 1959 3097 
z
M 1959 3584 
Q 2709 3584 3137 3096 
Q 3566 2609 3566 1747 
Q 3566 888 3137 398 
Q 2709 -91 1959 -91 
Q 1206 -91 779 398 
Q 353 888 353 1747 
Q 353 2609 779 3096 
Q 1206 3584 1959 3584 
z
" transform="scale(0.015625)"/>
       <path id="DejaVuSans-63" d="M 3122 3366 
L 3122 2828 
Q 2878 2963 2633 3030 
Q 2388 3097 2138 3097 
Q 1578 3097 1268 2742 
Q 959 2388 959 1747 
Q 959 1106 1268 751 
Q 1578 397 2138 397 
Q 2388 397 2633 464 
Q 2878 531 3122 666 
L 3122 134 
Q 2881 22 2623 -34 
Q 2366 -91 2075 -91 
Q 1284 -91 818 406 
Q 353 903 353 1747 
Q 353 2603 823 3093 
Q 1294 3584 2113 3584 
Q 2378 3584 2631 3529 
Q 2884 3475 3122 3366 
z
" transform="scale(0.015625)"/>
       <path id="DejaVuSans-68" d="M 3513 2113 
L 3513 0 
L 2938 0 
L 2938 2094 
Q 2938 2591 2744 2837 
Q 2550 3084 2163 3084 
Q 1697 3084 1428 2787 
Q 1159 2491 1159 1978 
L 1159 0 
L 581 0 
L 581 4863 
L 1159 4863 
L 1159 2956 
Q 1366 3272 1645 3428 
Q 1925 3584 2291 3584 
Q 2894 3584 3203 3211 
Q 3513 2838 3513 2113 
z
" transform="scale(0.015625)"/>
       <path id="DejaVuSans-73" d="M 2834 3397 
L 2834 2853 
Q 2591 2978 2328 3040 
Q 2066 3103 1784 3103 
Q 1356 3103 1142 2972 
Q 928 2841 928 2578 
Q 928 2378 1081 2264 
Q 1234 2150 1697 2047 
L 1894 2003 
Q 2506 1872 2764 1633 
Q 3022 1394 3022 966 
Q 3022 478 2636 193 
Q 2250 -91 1575 -91 
Q 1294 -91 989 -36 
Q 684 19 347 128 
L 347 722 
Q 666 556 975 473 
Q 1284 391 1588 391 
Q 1994 391 2212 530 
Q 2431 669 2431 922 
Q 2431 1156 2273 1281 
Q 2116 1406 1581 1522 
L 1381 1569 
Q 847 1681 609 1914 
Q 372 2147 372 2553 
Q 372 3047 722 3315 
Q 1072 3584 1716 3584 
Q 2034 3584 2315 3537 
Q 2597 3491 2834 3397 
z
" transform="scale(0.015625)"/>
      </defs>
      <use xlink:href="#DejaVuSans-45"/>
      <use xlink:href="#DejaVuSans-70" x="63.183594"/>
      <use xlink:href="#DejaVuSans-6f" x="126.660156"/>
      <use xlink:href="#DejaVuSans-63" x="187.841797"/>
      <use xlink:href="#DejaVuSans-68" x="242.822266"/>
      <use xlink:href="#DejaVuSans-73" x="306.201172"/>
     </g>
    </g>
   </g>
   <g id="matplotlib.axis_2">
    <g id="ytick_1">
     <g id="line2d_11">
      <defs>
       <path id="m9bc949ea0c" d="M 0 0 
L -3.5 0 
" style="stroke: #000000; stroke-width: 0.8"/>
      </defs>
      <g>
       <use xlink:href="#m9bc949ea0c" x="57.6" y="305.97518" style="stroke: #000000; stroke-width: 0.8"/>
      </g>
     </g>
     <g id="text_12">
      <!-- 30 -->
      <g transform="translate(37.875 309.774399) scale(0.1 -0.1)">
       <use xlink:href="#DejaVuSans-33"/>
       <use xlink:href="#DejaVuSans-30" x="63.623047"/>
      </g>
     </g>
    </g>
    <g id="ytick_2">
     <g id="line2d_12">
      <g>
       <use xlink:href="#m9bc949ea0c" x="57.6" y="267.950597" style="stroke: #000000; stroke-width: 0.8"/>
      </g>
     </g>
     <g id="text_13">
      <!-- 40 -->
      <g transform="translate(37.875 271.749816) scale(0.1 -0.1)">
       <use xlink:href="#DejaVuSans-34"/>
       <use xlink:href="#DejaVuSans-30" x="63.623047"/>
      </g>
     </g>
    </g>
    <g id="ytick_3">
     <g id="line2d_13">
      <g>
       <use xlink:href="#m9bc949ea0c" x="57.6" y="229.926015" style="stroke: #000000; stroke-width: 0.8"/>
      </g>
     </g>
     <g id="text_14">
      <!-- 50 -->
      <g transform="translate(37.875 233.725233) scale(0.1 -0.1)">
       <defs>
        <path id="DejaVuSans-35" d="M 691 4666 
L 3169 4666 
L 3169 4134 
L 1269 4134 
L 1269 2991 
Q 1406 3038 1543 3061 
Q 1681 3084 1819 3084 
Q 2600 3084 3056 2656 
Q 3513 2228 3513 1497 
Q 3513 744 3044 326 
Q 2575 -91 1722 -91 
Q 1428 -91 1123 -41 
Q 819 9 494 109 
L 494 744 
Q 775 591 1075 516 
Q 1375 441 1709 441 
Q 2250 441 2565 725 
Q 2881 1009 2881 1497 
Q 2881 1984 2565 2268 
Q 2250 2553 1709 2553 
Q 1456 2553 1204 2497 
Q 953 2441 691 2322 
L 691 4666 
z
" transform="scale(0.015625)"/>
       </defs>
       <use xlink:href="#DejaVuSans-35"/>
       <use xlink:href="#DejaVuSans-30" x="63.623047"/>
      </g>
     </g>
    </g>
    <g id="ytick_4">
     <g id="line2d_14">
      <g>
       <use xlink:href="#m9bc949ea0c" x="57.6" y="191.901432" style="stroke: #000000; stroke-width: 0.8"/>
      </g>
     </g>
     <g id="text_15">
      <!-- 60 -->
      <g transform="translate(37.875 195.700651) scale(0.1 -0.1)">
       <use xlink:href="#DejaVuSans-36"/>
       <use xlink:href="#DejaVuSans-30" x="63.623047"/>
      </g>
     </g>
    </g>
    <g id="ytick_5">
     <g id="line2d_15">
      <g>
       <use xlink:href="#m9bc949ea0c" x="57.6" y="153.876849" style="stroke: #000000; stroke-width: 0.8"/>
      </g>
     </g>
     <g id="text_16">
      <!-- 70 -->
      <g transform="translate(37.875 157.676068) scale(0.1 -0.1)">
       <use xlink:href="#DejaVuSans-37"/>
       <use xlink:href="#DejaVuSans-30" x="63.623047"/>
      </g>
     </g>
    </g>
    <g id="ytick_6">
     <g id="line2d_16">
      <g>
       <use xlink:href="#m9bc949ea0c" x="57.6" y="115.852266" style="stroke: #000000; stroke-width: 0.8"/>
      </g>
     </g>
     <g id="text_17">
      <!-- 80 -->
      <g transform="translate(37.875 119.651485) scale(0.1 -0.1)">
       <defs>
        <path id="DejaVuSans-38" d="M 2034 2216 
Q 1584 2216 1326 1975 
Q 1069 1734 1069 1313 
Q 1069 891 1326 650 
Q 1584 409 2034 409 
Q 2484 409 2743 651 
Q 3003 894 3003 1313 
Q 3003 1734 2745 1975 
Q 2488 2216 2034 2216 
z
M 1403 2484 
Q 997 2584 770 2862 
Q 544 3141 544 3541 
Q 544 4100 942 4425 
Q 1341 4750 2034 4750 
Q 2731 4750 3128 4425 
Q 3525 4100 3525 3541 
Q 3525 3141 3298 2862 
Q 3072 2584 2669 2484 
Q 3125 2378 3379 2068 
Q 3634 1759 3634 1313 
Q 3634 634 3220 271 
Q 2806 -91 2034 -91 
Q 1263 -91 848 271 
Q 434 634 434 1313 
Q 434 1759 690 2068 
Q 947 2378 1403 2484 
z
M 1172 3481 
Q 1172 3119 1398 2916 
Q 1625 2713 2034 2713 
Q 2441 2713 2670 2916 
Q 2900 3119 2900 3481 
Q 2900 3844 2670 4047 
Q 2441 4250 2034 4250 
Q 1625 4250 1398 4047 
Q 1172 3844 1172 3481 
z
" transform="scale(0.015625)"/>
       </defs>
       <use xlink:href="#DejaVuSans-38"/>
       <use xlink:href="#DejaVuSans-30" x="63.623047"/>
      </g>
     </g>
    </g>
    <g id="ytick_7">
     <g id="line2d_17">
      <g>
       <use xlink:href="#m9bc949ea0c" x="57.6" y="77.827684" style="stroke: #000000; stroke-width: 0.8"/>
      </g>
     </g>
     <g id="text_18">
      <!-- 90 -->
      <g transform="translate(37.875 81.626903) scale(0.1 -0.1)">
       <defs>
        <path id="DejaVuSans-39" d="M 703 97 
L 703 672 
Q 941 559 1184 500 
Q 1428 441 1663 441 
Q 2288 441 2617 861 
Q 2947 1281 2994 2138 
Q 2813 1869 2534 1725 
Q 2256 1581 1919 1581 
Q 1219 1581 811 2004 
Q 403 2428 403 3163 
Q 403 3881 828 4315 
Q 1253 4750 1959 4750 
Q 2769 4750 3195 4129 
Q 3622 3509 3622 2328 
Q 3622 1225 3098 567 
Q 2575 -91 1691 -91 
Q 1453 -91 1209 -44 
Q 966 3 703 97 
z
M 1959 2075 
Q 2384 2075 2632 2365 
Q 2881 2656 2881 3163 
Q 2881 3666 2632 3958 
Q 2384 4250 1959 4250 
Q 1534 4250 1286 3958 
Q 1038 3666 1038 3163 
Q 1038 2656 1286 2365 
Q 1534 2075 1959 2075 
z
" transform="scale(0.015625)"/>
       </defs>
       <use xlink:href="#DejaVuSans-39"/>
       <use xlink:href="#DejaVuSans-30" x="63.623047"/>
      </g>
     </g>
    </g>
    <g id="text_19">
     <!-- Accuracy -->
     <g transform="translate(31.795312 197.356125) rotate(-90) scale(0.1 -0.1)">
      <defs>
       <path id="DejaVuSans-41" d="M 2188 4044 
L 1331 1722 
L 3047 1722 
L 2188 4044 
z
M 1831 4666 
L 2547 4666 
L 4325 0 
L 3669 0 
L 3244 1197 
L 1141 1197 
L 716 0 
L 50 0 
L 1831 4666 
z
" transform="scale(0.015625)"/>
       <path id="DejaVuSans-75" d="M 544 1381 
L 544 3500 
L 1119 3500 
L 1119 1403 
Q 1119 906 1312 657 
Q 1506 409 1894 409 
Q 2359 409 2629 706 
Q 2900 1003 2900 1516 
L 2900 3500 
L 3475 3500 
L 3475 0 
L 2900 0 
L 2900 538 
Q 2691 219 2414 64 
Q 2138 -91 1772 -91 
Q 1169 -91 856 284 
Q 544 659 544 1381 
z
M 1991 3584 
L 1991 3584 
z
" transform="scale(0.015625)"/>
       <path id="DejaVuSans-72" d="M 2631 2963 
Q 2534 3019 2420 3045 
Q 2306 3072 2169 3072 
Q 1681 3072 1420 2755 
Q 1159 2438 1159 1844 
L 1159 0 
L 581 0 
L 581 3500 
L 1159 3500 
L 1159 2956 
Q 1341 3275 1631 3429 
Q 1922 3584 2338 3584 
Q 2397 3584 2469 3576 
Q 2541 3569 2628 3553 
L 2631 2963 
z
" transform="scale(0.015625)"/>
       <path id="DejaVuSans-61" d="M 2194 1759 
Q 1497 1759 1228 1600 
Q 959 1441 959 1056 
Q 959 750 1161 570 
Q 1363 391 1709 391 
Q 2188 391 2477 730 
Q 2766 1069 2766 1631 
L 2766 1759 
L 2194 1759 
z
M 3341 1997 
L 3341 0 
L 2766 0 
L 2766 531 
Q 2569 213 2275 61 
Q 1981 -91 1556 -91 
Q 1019 -91 701 211 
Q 384 513 384 1019 
Q 384 1609 779 1909 
Q 1175 2209 1959 2209 
L 2766 2209 
L 2766 2266 
Q 2766 2663 2505 2880 
Q 2244 3097 1772 3097 
Q 1472 3097 1187 3025 
Q 903 2953 641 2809 
L 641 3341 
Q 956 3463 1253 3523 
Q 1550 3584 1831 3584 
Q 2591 3584 2966 3190 
Q 3341 2797 3341 1997 
z
" transform="scale(0.015625)"/>
       <path id="DejaVuSans-79" d="M 2059 -325 
Q 1816 -950 1584 -1140 
Q 1353 -1331 966 -1331 
L 506 -1331 
L 506 -850 
L 844 -850 
Q 1081 -850 1212 -737 
Q 1344 -625 1503 -206 
L 1606 56 
L 191 3500 
L 800 3500 
L 1894 763 
L 2988 3500 
L 3597 3500 
L 2059 -325 
z
" transform="scale(0.015625)"/>
      </defs>
      <use xlink:href="#DejaVuSans-41"/>
      <use xlink:href="#DejaVuSans-63" x="66.658203"/>
      <use xlink:href="#DejaVuSans-63" x="121.638672"/>
      <use xlink:href="#DejaVuSans-75" x="176.619141"/>
      <use xlink:href="#DejaVuSans-72" x="239.998047"/>
      <use xlink:href="#DejaVuSans-61" x="281.111328"/>
      <use xlink:href="#DejaVuSans-63" x="342.390625"/>
      <use xlink:href="#DejaVuSans-79" x="397.371094"/>
     </g>
    </g>
   </g>
   <g id="line2d_18">
    <path d="M 73.832727 295.488 
L 74.918528 228.830907 
L 76.00433 197.224873 
L 77.090131 181.961806 
L 78.175932 170.668505 
L 80.347534 154.789439 
L 82.519137 144.089322 
L 83.604938 140.11195 
L 84.690739 135.503371 
L 87.948142 124.004737 
L 89.033943 120.118625 
L 90.119745 119.449392 
L 91.205546 116.217302 
L 92.291347 113.745705 
L 93.377148 112.065018 
L 94.462949 112.475684 
L 95.54875 138.971213 
L 96.634552 136.4768 
L 97.720353 133.541302 
L 98.806154 132.073553 
L 99.891955 129.731239 
L 100.977756 129.168475 
L 102.063557 127.579048 
L 103.149358 126.301422 
L 104.23516 123.921083 
L 106.406762 120.088205 
L 107.492563 119.312503 
L 108.578364 117.616607 
L 109.664165 117.532953 
L 110.749967 115.799032 
L 111.835768 113.28941 
L 112.921569 114.262839 
L 114.00737 111.707587 
L 117.264773 107.273921 
L 119.436376 104.885977 
L 120.522177 104.475311 
L 121.607978 101.167173 
L 122.693779 101.836405 
L 123.77958 99.638584 
L 124.865382 98.543476 
L 125.951183 98.003527 
L 127.036984 96.984469 
L 128.122785 95.4863 
L 129.208586 94.99198 
L 130.294387 93.19722 
L 131.380189 93.592676 
L 132.46599 92.398704 
L 133.551791 91.873965 
L 134.637592 91.615397 
L 135.723393 90.672388 
L 136.809194 91.014609 
L 137.894995 90.117229 
L 138.980797 112.977608 
L 140.066598 117.304806 
L 142.2382 113.783729 
L 143.324001 113.806544 
L 144.409802 112.77988 
L 145.495604 112.392029 
L 146.581405 111.699982 
L 147.667206 110.741763 
L 148.753007 109.433717 
L 149.838808 109.62384 
L 150.924609 107.676981 
L 152.01041 108.21693 
L 153.096212 108.239745 
L 154.182013 107.273921 
L 155.267814 107.433624 
L 156.353615 106.057134 
L 157.439416 106.703552 
L 158.525217 106.467799 
L 159.611019 105.053285 
L 160.69682 105.547605 
L 161.782621 103.745239 
L 162.868422 103.631166 
L 163.954223 103.692005 
L 165.040024 102.33833 
L 166.125825 103.296549 
L 169.383229 100.969445 
L 170.46903 101.098728 
L 171.554831 98.718389 
L 172.640632 99.608165 
L 173.726434 99.58535 
L 174.812235 98.475032 
L 175.898036 98.551081 
L 176.983837 96.83237 
L 178.069638 95.93499 
L 179.155439 96.573803 
L 180.24124 95.547139 
L 181.327042 94.824672 
L 182.412843 95.03761 
L 183.498644 93.919687 
L 184.584445 95.402646 
L 185.670246 93.820823 
L 186.756047 93.653515 
L 187.841849 92.33026 
L 188.92765 91.546953 
L 190.013451 91.136288 
L 192.185053 90.794066 
L 193.270854 89.524045 
L 194.356656 89.493626 
L 195.442457 89.318713 
L 196.528258 87.957433 
L 197.614059 86.3604 
L 198.69986 88.292049 
L 199.785661 86.32998 
L 200.871462 85.402181 
L 203.043065 84.763368 
L 204.128866 83.402088 
L 205.214667 84.063715 
L 207.386269 82.185301 
L 208.472071 82.459078 
L 209.557872 81.721401 
L 210.643673 81.181452 
L 211.729474 81.713796 
L 212.815275 80.90007 
L 213.901076 80.261257 
L 214.986877 79.447531 
L 216.072679 80.109159 
L 218.244281 79.721308 
L 220.415883 78.831533 
L 221.501684 79.409506 
L 222.587486 77.850499 
L 224.759088 78.892372 
L 225.844889 102.467613 
L 226.93069 105.167359 
L 228.016491 104.825137 
L 230.188094 105.266223 
L 231.273895 106.45259 
L 232.359696 103.486672 
L 233.445497 102.452404 
L 234.531298 103.593141 
L 235.617099 102.984748 
L 236.702901 101.562628 
L 237.788702 103.136846 
L 238.874503 102.566477 
L 239.960304 100.817346 
L 241.046105 100.923815 
L 242.131906 100.132904 
L 243.217708 100.520755 
L 245.38931 100.657643 
L 246.475111 98.862883 
L 247.560912 99.10624 
L 248.646713 99.897152 
L 249.732514 98.976957 
L 250.818316 100.733692 
L 251.904117 99.486486 
L 252.989918 97.935083 
L 254.075719 98.368563 
L 255.16152 97.052913 
L 256.247321 96.672667 
L 257.333123 99.775473 
L 258.418924 97.8058 
L 259.504725 98.292514 
L 260.590526 96.741111 
L 261.676327 97.653701 
L 262.762128 96.528174 
L 263.847929 97.585257 
L 264.933731 97.030098 
L 266.019532 97.547232 
L 267.105333 95.858941 
L 268.191134 96.391285 
L 269.276935 95.539534 
L 270.362736 96.322841 
L 271.448538 94.710598 
L 272.534339 96.109903 
L 273.62014 95.539534 
L 274.705941 94.60413 
L 275.791742 94.550895 
L 276.877543 94.345562 
L 277.963344 95.204918 
L 279.049146 94.041366 
L 280.134947 93.927292 
L 281.220748 93.326504 
L 282.306549 93.18201 
L 283.39235 92.368284 
L 284.478151 94.269513 
L 285.563953 92.999492 
L 286.649754 93.037517 
L 287.735555 93.273269 
L 288.821356 92.28463 
L 292.07876 91.80552 
L 293.164561 91.577373 
L 294.250362 90.702807 
L 295.336163 91.463299 
L 296.421964 91.250361 
L 297.507765 91.645817 
L 298.593566 90.063994 
L 300.765169 90.170463 
L 301.85097 89.813032 
L 302.936771 91.34162 
L 304.022572 88.626665 
L 305.108373 89.356737 
L 306.194175 88.786368 
L 307.279976 87.957433 
L 308.365777 88.672295 
L 309.451578 87.987852 
L 310.537379 86.679807 
L 311.62318 89.189429 
L 312.708981 87.27299 
L 313.794783 87.729285 
L 314.880584 87.478323 
L 315.966385 86.3604 
L 317.052186 86.018179 
L 319.223788 86.702621 
L 320.30959 85.820451 
L 321.395391 86.383215 
L 322.481192 85.539069 
L 323.566993 83.995271 
L 324.652794 84.618874 
L 325.738595 85.059959 
L 326.824396 84.337492 
L 328.995999 84.040901 
L 330.0818 83.029447 
L 332.253402 82.504707 
L 334.425005 83.59221 
L 335.510806 81.31834 
L 336.596607 81.440019 
L 337.682408 80.976119 
L 338.768209 81.751821 
L 339.85401 82.154881 
L 340.939811 80.527429 
L 342.025613 79.204174 
L 343.111414 80.200418 
L 345.283016 78.983631 
L 346.368817 79.219383 
L 347.454618 77.371389 
L 348.54042 79.173754 
L 349.626221 78.382843 
L 352.883624 78.382843 
L 353.969425 77.067192 
L 355.055227 77.599536 
L 356.141028 77.584326 
L 357.226829 77.181266 
L 358.31263 76.960723 
L 359.398431 75.964479 
L 360.484232 75.941664 
L 361.570033 75.675492 
L 362.655835 76.215441 
L 363.741636 75.363691 
L 364.827437 75.538604 
L 365.913238 74.306607 
L 366.999039 75.127938 
L 368.08484 74.915001 
L 369.170642 75.751542 
L 370.256443 75.629863 
L 371.342244 78.58057 
L 372.428045 77.941758 
L 373.513846 77.652771 
L 374.599647 78.694644 
L 375.685448 78.283979 
L 376.77125 77.356179 
L 377.857051 78.033017 
L 378.942852 77.994992 
L 380.028653 78.185115 
L 381.114454 78.223139 
L 382.200255 78.443682 
L 383.286057 78.869557 
L 384.371858 78.565361 
L 385.457659 77.835289 
L 386.54346 78.390448 
L 387.629261 76.664132 
L 388.715062 79.409506 
L 389.800863 77.652771 
L 390.886665 77.386599 
L 391.972466 79.07489 
L 393.058267 78.603385 
L 394.144068 77.706005 
L 395.229869 77.652771 
L 396.31567 78.618595 
L 397.401472 77.827684 
L 398.487273 78.725064 
L 398.487273 78.725064 
" clip-path="url(#p6c92dbd74f)" style="fill: none; stroke: #1f77b4; stroke-width: 1.5; stroke-linecap: square"/>
   </g>
   <g id="line2d_19">
    <path d="M 73.832727 209.544838 
L 74.918528 172.546919 
L 76.00433 157.070914 
L 77.090131 127.487789 
L 78.175932 123.647306 
L 79.261733 116.118439 
L 80.347534 130.07346 
L 81.433335 113.038447 
L 82.519137 106.232047 
L 83.604938 100.984655 
L 86.862341 89.539255 
L 87.948142 87.561977 
L 89.033943 84.672109 
L 90.119745 84.672109 
L 91.205546 81.097798 
L 92.291347 79.196569 
L 93.377148 79.728913 
L 94.462949 78.588175 
L 95.54875 100.110089 
L 96.634552 99.463671 
L 97.720353 93.265664 
L 98.806154 87.942223 
L 99.891955 91.212337 
L 100.977756 90.375796 
L 102.063557 87.676051 
L 103.149358 85.356551 
L 104.23516 89.197034 
L 105.320961 86.649387 
L 106.406762 81.972363 
L 107.492563 82.200511 
L 108.578364 79.006446 
L 109.664165 79.652864 
L 110.749967 81.021749 
L 111.835768 79.919036 
L 112.921569 76.610897 
L 114.00737 74.937815 
L 115.093171 76.458799 
L 116.178972 74.291398 
L 118.350575 71.933873 
L 119.436376 71.8198 
L 120.522177 71.439554 
L 121.607978 69.196103 
L 122.693779 69.690423 
L 123.77958 68.055366 
L 124.865382 67.408948 
L 125.951183 67.484997 
L 127.036984 65.735866 
L 128.122785 66.192161 
L 129.208586 65.317596 
L 130.294387 65.507719 
L 131.380189 64.633154 
L 132.46599 63.454391 
L 133.551791 62.731924 
L 134.637592 63.720564 
L 135.723393 63.188219 
L 136.809194 62.998097 
L 137.894995 63.416367 
L 138.980797 78.017807 
L 140.066598 78.474102 
L 141.152399 82.618781 
L 143.324001 78.664225 
L 144.409802 78.740274 
L 145.495604 75.39411 
L 146.581405 74.633619 
L 147.667206 74.785717 
L 148.753007 75.660283 
L 149.838808 75.280037 
L 150.924609 73.56893 
L 152.01041 74.709668 
L 153.096212 76.80102 
L 154.182013 75.622258 
L 155.267814 73.987201 
L 156.353615 74.595594 
L 157.439416 75.622258 
L 158.525217 74.291398 
L 159.611019 74.595594 
L 160.69682 73.264734 
L 161.782621 71.363505 
L 162.868422 70.298816 
L 163.954223 70.374866 
L 165.040024 72.884488 
L 166.125825 70.945234 
L 167.211627 69.386226 
L 168.297428 71.857824 
L 169.383229 72.047947 
L 170.46903 69.652398 
L 171.554831 68.207464 
L 172.640632 68.511661 
L 173.726434 70.90721 
L 174.812235 68.739808 
L 175.898036 67.523022 
L 176.983837 69.272153 
L 178.069638 66.952653 
L 179.155439 68.625735 
L 180.24124 68.739808 
L 181.327042 66.572407 
L 182.412843 65.545744 
L 183.498644 67.142776 
L 184.584445 65.317596 
L 185.670246 64.176859 
L 186.756047 67.561046 
L 187.841849 64.290932 
L 188.92765 64.709203 
L 190.013451 62.807974 
L 191.099252 62.617851 
L 192.185053 63.036121 
L 193.270854 61.895384 
L 194.356656 62.769949 
L 195.442457 61.743285 
L 196.528258 61.667236 
L 197.614059 62.313654 
L 198.69986 61.705261 
L 199.785661 60.298351 
L 200.871462 60.412425 
L 203.043065 59.309712 
L 204.128866 58.929466 
L 206.300468 59.347737 
L 207.386269 59.119589 
L 208.472071 58.168975 
L 209.557872 57.978852 
L 210.643673 58.016876 
L 211.729474 57.864778 
L 212.815275 57.294409 
L 213.901076 57.674655 
L 214.986877 57.864778 
L 216.072679 57.71268 
L 217.15848 56.838114 
L 218.244281 56.914163 
L 219.330082 57.21836 
L 220.415883 57.028237 
L 222.587486 57.256385 
L 224.759088 57.180335 
L 225.844889 75.47016 
L 226.93069 75.089914 
L 228.016491 75.203988 
L 229.102292 73.56893 
L 230.188094 74.747693 
L 231.273895 73.340783 
L 232.359696 74.823742 
L 233.445497 71.667701 
L 234.531298 72.085972 
L 235.617099 75.242012 
L 236.702901 74.55757 
L 237.788702 71.173382 
L 238.874503 70.450915 
L 239.960304 73.416832 
L 241.046105 72.73239 
L 242.131906 70.488939 
L 243.217708 71.667701 
L 244.303509 71.629677 
L 245.38931 69.614374 
L 246.475111 68.739808 
L 247.560912 70.41289 
L 249.732514 68.473636 
L 250.818316 69.766472 
L 251.904117 68.207464 
L 252.989918 70.717087 
L 254.075719 70.945234 
L 255.16152 68.663759 
L 256.247321 72.085972 
L 257.333123 68.283514 
L 258.418924 68.321538 
L 259.504725 68.739808 
L 260.590526 67.903268 
L 261.676327 68.777833 
L 262.762128 66.192161 
L 263.847929 68.625735 
L 264.933731 67.180801 
L 266.019532 69.766472 
L 267.105333 67.789194 
L 268.191134 67.294874 
L 269.276935 69.044005 
L 270.362736 66.876604 
L 271.448538 67.180801 
L 272.534339 69.044005 
L 273.62014 65.925989 
L 274.705941 66.914629 
L 275.791742 66.306235 
L 276.877543 67.180801 
L 277.963344 65.697842 
L 279.049146 67.294874 
L 280.134947 64.214883 
L 281.220748 65.089449 
L 282.306549 65.241547 
L 283.39235 63.986736 
L 284.478151 64.443031 
L 285.563953 64.405006 
L 286.649754 65.089449 
L 287.735555 65.317596 
L 288.821356 63.226244 
L 289.907157 63.872662 
L 290.992958 65.621793 
L 292.07876 66.192161 
L 294.250362 64.214883 
L 295.336163 63.074146 
L 296.421964 63.60649 
L 297.507765 64.747227 
L 298.593566 63.910686 
L 299.679368 64.51908 
L 300.765169 62.19958 
L 301.85097 62.579826 
L 302.936771 62.427728 
L 304.022572 63.454391 
L 305.108373 62.275629 
L 306.194175 61.629212 
L 307.279976 61.819334 
L 308.365777 61.28699 
L 309.451578 61.857359 
L 310.537379 62.085507 
L 311.62318 62.427728 
L 312.708981 62.085507 
L 313.794783 63.454391 
L 314.880584 61.096867 
L 315.966385 61.248966 
L 317.052186 60.564523 
L 318.137987 61.248966 
L 319.223788 61.134892 
L 320.30959 60.602548 
L 321.395391 60.3744 
L 322.481192 60.602548 
L 323.566993 60.412425 
L 324.652794 61.439089 
L 326.824396 58.435147 
L 327.910198 59.385761 
L 328.995999 58.663294 
L 330.0818 59.46181 
L 331.167601 60.070204 
L 332.253402 58.663294 
L 333.339203 59.499835 
L 334.425005 58.473171 
L 335.510806 57.978852 
L 336.596607 57.902802 
L 337.682408 58.967491 
L 339.85401 58.397122 
L 340.939811 57.408483 
L 342.025613 57.560581 
L 343.111414 57.142311 
L 344.197215 57.028237 
L 345.283016 57.940827 
L 346.368817 56.838114 
L 347.454618 56.571942 
L 349.626221 57.750704 
L 351.797823 55.317131 
L 352.883624 55.773426 
L 353.969425 55.659352 
L 355.055227 56.001573 
L 356.141028 55.355155 
L 357.226829 55.317131 
L 358.31263 55.050959 
L 359.398431 55.469229 
L 360.484232 55.355155 
L 361.570033 55.39318 
L 362.655835 54.404541 
L 363.741636 54.860836 
L 364.827437 54.290467 
L 365.913238 55.088983 
L 366.999039 54.404541 
L 368.08484 55.127008 
L 369.170642 54.366516 
L 370.256443 55.735401 
L 371.342244 55.507254 
L 372.428045 56.229721 
L 373.513846 56.457868 
L 374.599647 56.952188 
L 375.685448 56.153672 
L 376.77125 55.507254 
L 377.857051 56.876139 
L 378.942852 56.952188 
L 380.028653 56.381819 
L 381.114454 56.267745 
L 382.200255 57.750704 
L 383.286057 56.762065 
L 385.457659 56.533917 
L 386.54346 57.902802 
L 387.629261 55.697377 
L 388.715062 55.279106 
L 390.886665 56.381819 
L 391.972466 57.332434 
L 394.144068 55.697377 
L 395.229869 57.71268 
L 396.31567 55.39318 
L 397.401472 55.469229 
L 398.487273 56.838114 
L 398.487273 56.838114 
" clip-path="url(#p6c92dbd74f)" style="fill: none; stroke: #ff7f0e; stroke-width: 1.5; stroke-linecap: square"/>
   </g>
   <g id="line2d_20">
    <path d="M 73.832727 231.551893 
L 74.918528 202.469643 
L 76.00433 194.786055 
L 77.090131 165.966044 
L 78.175932 158.177561 
L 79.261733 152.985238 
L 80.347534 169.13913 
L 81.433335 155.686295 
L 82.519137 144.174025 
L 83.604938 140.922267 
L 84.690739 134.444976 
L 85.77654 130.380279 
L 86.862341 127.469432 
L 87.948142 122.565572 
L 90.119745 124.32257 
L 92.291347 116.140729 
L 93.377148 117.425697 
L 94.462949 115.852266 
L 95.54875 147.452006 
L 96.634552 138.929255 
L 97.720353 136.621556 
L 98.806154 132.871545 
L 99.891955 128.675729 
L 100.977756 135.467706 
L 102.063557 130.511399 
L 103.149358 128.361043 
L 104.23516 134.287633 
L 105.320961 129.121535 
L 106.406762 122.303334 
L 107.492563 120.91347 
L 108.578364 123.29984 
L 109.664165 121.621513 
L 110.749967 119.602277 
L 111.835768 121.018365 
L 112.921569 114.200164 
L 114.00737 115.563804 
L 115.093171 110.476377 
L 116.178972 109.847005 
L 117.264773 108.798051 
L 118.350575 113.387225 
L 119.436376 107.408187 
L 120.522177 111.131973 
L 121.607978 104.969369 
L 122.693779 106.569024 
L 123.77958 101.691387 
L 125.951183 100.930896 
L 127.036984 99.436136 
L 128.122785 99.80327 
L 129.208586 98.701868 
L 130.294387 99.095226 
L 131.380189 98.308511 
L 132.46599 97.75781 
L 133.551791 96.39417 
L 134.637592 97.023542 
L 135.723393 97.941377 
L 136.809194 96.079483 
L 137.894995 96.577737 
L 138.980797 118.422204 
L 140.066598 118.081294 
L 141.152399 124.925719 
L 142.2382 128.308595 
L 143.324001 118.841785 
L 144.409802 117.347026 
L 145.495604 113.806806 
L 146.581405 114.986879 
L 147.667206 116.376743 
L 148.753007 112.312047 
L 149.838808 115.065551 
L 150.924609 118.841785 
L 152.01041 115.039327 
L 153.096212 115.694923 
L 154.182013 111.918689 
L 155.267814 111.000854 
L 156.353615 116.429191 
L 157.439416 116.376743 
L 158.525217 116.743877 
L 159.611019 114.383731 
L 160.69682 107.670425 
L 161.782621 111.866241 
L 162.868422 108.824275 
L 163.954223 108.24735 
L 165.040024 110.738616 
L 166.125825 112.915195 
L 167.211627 107.381963 
L 168.297428 108.902946 
L 169.383229 111.394212 
L 170.46903 102.687894 
L 171.554831 105.756084 
L 172.640632 103.107475 
L 173.726434 112.076032 
L 174.812235 105.913427 
L 175.898036 102.66167 
L 176.983837 107.22462 
L 178.069638 103.448385 
L 179.155439 106.333009 
L 180.24124 103.841743 
L 181.327042 101.717611 
L 182.412843 101.743835 
L 183.498644 104.497339 
L 184.584445 97.574243 
L 185.670246 101.114463 
L 186.756047 100.878448 
L 187.841849 96.367946 
L 190.013451 99.567256 
L 191.099252 96.892423 
L 192.185053 96.682632 
L 193.270854 96.971094 
L 194.356656 97.049766 
L 195.442457 93.011293 
L 196.528258 93.142412 
L 197.614059 96.105707 
L 198.69986 92.85395 
L 199.785661 92.985069 
L 200.871462 93.430875 
L 201.957264 91.228071 
L 203.043065 91.752548 
L 204.128866 91.280519 
L 205.214667 91.35919 
L 206.300468 89.811983 
L 207.386269 89.077715 
L 208.472071 87.740299 
L 209.557872 88.159881 
L 211.729474 87.714075 
L 212.815275 86.350435 
L 213.901076 87.60918 
L 214.986877 89.707088 
L 216.072679 88.474567 
L 217.15848 86.717569 
L 218.244281 86.560226 
L 219.330082 86.58645 
L 220.415883 87.320718 
L 221.501684 86.743793 
L 222.587486 86.612674 
L 223.673287 87.215822 
L 224.759088 86.166868 
L 225.844889 113.597015 
L 226.93069 113.203658 
L 228.016491 115.616252 
L 229.102292 109.873229 
L 230.188094 114.829536 
L 231.273895 109.715886 
L 232.359696 116.35052 
L 233.445497 111.263093 
L 234.531298 111.236869 
L 235.617099 111.472883 
L 236.702901 116.35052 
L 237.788702 107.303291 
L 238.874503 106.385457 
L 239.960304 110.030572 
L 241.046105 109.637214 
L 242.131906 108.666932 
L 243.217708 111.971137 
L 244.303509 105.520069 
L 245.38931 108.745603 
L 246.475111 105.257831 
L 247.560912 105.38895 
L 248.646713 107.408187 
L 249.732514 102.635446 
L 250.818316 107.014829 
L 251.904117 107.749097 
L 252.989918 106.20189 
L 254.075719 110.922183 
L 255.16152 102.582998 
L 256.247321 109.217632 
L 257.333123 104.654682 
L 258.418924 104.969369 
L 259.504725 101.822507 
L 260.590526 104.36622 
L 261.676327 105.441398 
L 262.762128 103.107475 
L 263.847929 104.995592 
L 264.933731 101.455373 
L 266.019532 108.902946 
L 267.105333 105.04804 
L 268.191134 104.70713 
L 269.276935 105.520069 
L 270.362736 101.350477 
L 271.448538 105.598741 
L 272.534339 102.268312 
L 273.62014 101.035791 
L 274.705941 100.826 
L 275.791742 103.500833 
L 276.877543 106.490352 
L 277.963344 104.497339 
L 279.049146 103.710624 
L 280.134947 101.402925 
L 281.220748 100.196628 
L 282.306549 97.941377 
L 283.39235 105.651189 
L 284.478151 102.006074 
L 285.563953 100.196628 
L 286.649754 99.986837 
L 287.735555 105.231607 
L 288.821356 96.577737 
L 289.907157 97.784034 
L 290.992958 100.642433 
L 292.07876 100.852224 
L 293.164561 100.799776 
L 294.250362 99.855718 
L 295.336163 100.432643 
L 296.421964 104.680906 
L 297.507765 98.596973 
L 298.593566 99.173898 
L 299.679368 100.747329 
L 300.765169 98.334735 
L 301.85097 100.983343 
L 302.936771 98.570749 
L 304.022572 95.450111 
L 305.108373 98.020048 
L 306.194175 96.079483 
L 307.279976 98.09872 
L 308.365777 93.87668 
L 309.451578 95.187873 
L 310.537379 93.640665 
L 311.62318 93.247308 
L 312.708981 96.708856 
L 313.794783 97.364452 
L 314.880584 92.250801 
L 315.966385 89.838207 
L 317.052186 92.250801 
L 318.137987 95.266544 
L 319.223788 94.89941 
L 320.30959 98.675645 
L 322.481192 93.116188 
L 323.566993 93.614442 
L 324.652794 97.128437 
L 325.738595 93.981575 
L 326.824396 90.231565 
L 327.910198 91.909891 
L 328.995999 88.815477 
L 330.0818 92.303249 
L 331.167601 95.135425 
L 332.253402 91.437862 
L 333.339203 90.520027 
L 334.425005 91.35919 
L 335.510806 89.864431 
L 336.596607 88.605686 
L 337.682408 89.707088 
L 338.768209 91.83122 
L 339.85401 92.749054 
L 340.939811 90.362684 
L 342.025613 87.032255 
L 343.111414 86.743793 
L 344.197215 88.946596 
L 345.283016 90.782266 
L 346.368817 88.264776 
L 347.454618 87.845195 
L 348.54042 87.923866 
L 349.626221 88.789253 
L 350.712022 87.242046 
L 351.797823 86.874912 
L 352.883624 87.60918 
L 353.969425 86.166868 
L 355.055227 86.953584 
L 356.141028 86.166868 
L 357.226829 86.848688 
L 358.31263 85.485048 
L 359.398431 85.275257 
L 360.484232 84.514766 
L 361.570033 84.934347 
L 362.655835 84.304975 
L 363.741636 85.878406 
L 364.827437 83.308468 
L 365.913238 83.38714 
L 366.999039 83.256021 
L 368.08484 84.540989 
L 369.170642 82.810215 
L 370.256443 85.013019 
L 371.342244 87.740299 
L 372.428045 85.222809 
L 373.513846 88.317224 
L 374.599647 90.205341 
L 375.685448 85.537496 
L 376.77125 85.537496 
L 377.857051 87.373165 
L 378.942852 87.976314 
L 380.028653 86.376659 
L 381.114454 87.635404 
L 382.200255 87.451837 
L 383.286057 85.668615 
L 384.371858 86.92736 
L 385.457659 87.26827 
L 387.629261 86.560226 
L 388.715062 85.09169 
L 389.800863 87.687851 
L 390.886665 85.799734 
L 391.972466 88.264776 
L 393.058267 85.747286 
L 394.144068 87.530508 
L 395.229869 88.579462 
L 396.31567 87.006031 
L 397.401472 86.953584 
L 398.487273 85.56372 
L 398.487273 85.56372 
" clip-path="url(#p6c92dbd74f)" style="fill: none; stroke: #2ca02c; stroke-width: 1.5; stroke-linecap: square"/>
   </g>
   <g id="line2d_21">
    <path d="M 368.08484 54.48059 
L 369.170642 54.746762 
L 370.256443 54.556639 
L 371.342244 54.784787 
L 372.428045 54.024295 
L 373.513846 53.758123 
L 374.599647 55.012934 
L 375.685448 54.632688 
L 376.77125 54.024295 
L 377.857051 54.328492 
L 378.942852 53.568 
L 380.028653 54.860836 
L 381.114454 54.594664 
L 382.200255 54.860836 
L 383.286057 54.670713 
L 384.371858 53.948246 
L 385.457659 54.97491 
L 387.629261 54.214418 
L 389.800863 54.708737 
L 390.886665 54.252442 
L 391.972466 53.98627 
L 393.058267 55.507254 
L 394.144068 54.670713 
L 395.229869 53.682074 
L 396.31567 54.442565 
L 397.401472 54.670713 
L 398.487273 54.556639 
L 398.487273 54.556639 
" clip-path="url(#p6c92dbd74f)" style="fill: none; stroke: #d62728; stroke-width: 1.5; stroke-linecap: square"/>
   </g>
   <g id="line2d_22">
    <path d="M 368.08484 83.256021 
L 369.170642 82.443081 
L 371.342244 82.626648 
L 372.428045 83.020006 
L 373.513846 82.285738 
L 374.599647 84.908123 
L 375.685448 82.679096 
L 376.77125 81.866157 
L 377.857051 83.098678 
L 378.942852 82.049724 
L 380.028653 82.049724 
L 381.114454 81.00077 
L 382.200255 80.686083 
L 383.286057 80.502516 
L 384.371858 80.764755 
L 385.457659 83.177349 
L 386.54346 82.574201 
L 387.629261 80.502516 
L 388.715062 81.289232 
L 389.800863 81.525247 
L 390.886665 79.951816 
L 391.972466 82.36441 
L 394.144068 81.68259 
L 395.229869 80.214054 
L 396.31567 80.450069 
L 397.401472 82.075947 
L 398.487273 81.289232 
L 398.487273 81.289232 
" clip-path="url(#p6c92dbd74f)" style="fill: none; stroke: #9467bd; stroke-width: 1.5; stroke-linecap: square"/>
   </g>
   <g id="patch_3">
    <path d="M 57.6 307.584 
L 57.6 41.472 
" style="fill: none; stroke: #000000; stroke-width: 0.8; stroke-linejoin: miter; stroke-linecap: square"/>
   </g>
   <g id="patch_4">
    <path d="M 414.72 307.584 
L 414.72 41.472 
" style="fill: none; stroke: #000000; stroke-width: 0.8; stroke-linejoin: miter; stroke-linecap: square"/>
   </g>
   <g id="patch_5">
    <path d="M 57.6 307.584 
L 414.72 307.584 
" style="fill: none; stroke: #000000; stroke-width: 0.8; stroke-linejoin: miter; stroke-linecap: square"/>
   </g>
   <g id="patch_6">
    <path d="M 57.6 41.472 
L 414.72 41.472 
" style="fill: none; stroke: #000000; stroke-width: 0.8; stroke-linejoin: miter; stroke-linecap: square"/>
   </g>
   <g id="text_20">
    <!-- Learning Curves -->
    <g transform="translate(187.37625 35.472) scale(0.12 -0.12)">
     <defs>
      <path id="DejaVuSans-4c" d="M 628 4666 
L 1259 4666 
L 1259 531 
L 3531 531 
L 3531 0 
L 628 0 
L 628 4666 
z
" transform="scale(0.015625)"/>
      <path id="DejaVuSans-65" d="M 3597 1894 
L 3597 1613 
L 953 1613 
Q 991 1019 1311 708 
Q 1631 397 2203 397 
Q 2534 397 2845 478 
Q 3156 559 3463 722 
L 3463 178 
Q 3153 47 2828 -22 
Q 2503 -91 2169 -91 
Q 1331 -91 842 396 
Q 353 884 353 1716 
Q 353 2575 817 3079 
Q 1281 3584 2069 3584 
Q 2775 3584 3186 3129 
Q 3597 2675 3597 1894 
z
M 3022 2063 
Q 3016 2534 2758 2815 
Q 2500 3097 2075 3097 
Q 1594 3097 1305 2825 
Q 1016 2553 972 2059 
L 3022 2063 
z
" transform="scale(0.015625)"/>
      <path id="DejaVuSans-6e" d="M 3513 2113 
L 3513 0 
L 2938 0 
L 2938 2094 
Q 2938 2591 2744 2837 
Q 2550 3084 2163 3084 
Q 1697 3084 1428 2787 
Q 1159 2491 1159 1978 
L 1159 0 
L 581 0 
L 581 3500 
L 1159 3500 
L 1159 2956 
Q 1366 3272 1645 3428 
Q 1925 3584 2291 3584 
Q 2894 3584 3203 3211 
Q 3513 2838 3513 2113 
z
" transform="scale(0.015625)"/>
      <path id="DejaVuSans-69" d="M 603 3500 
L 1178 3500 
L 1178 0 
L 603 0 
L 603 3500 
z
M 603 4863 
L 1178 4863 
L 1178 4134 
L 603 4134 
L 603 4863 
z
" transform="scale(0.015625)"/>
      <path id="DejaVuSans-67" d="M 2906 1791 
Q 2906 2416 2648 2759 
Q 2391 3103 1925 3103 
Q 1463 3103 1205 2759 
Q 947 2416 947 1791 
Q 947 1169 1205 825 
Q 1463 481 1925 481 
Q 2391 481 2648 825 
Q 2906 1169 2906 1791 
z
M 3481 434 
Q 3481 -459 3084 -895 
Q 2688 -1331 1869 -1331 
Q 1566 -1331 1297 -1286 
Q 1028 -1241 775 -1147 
L 775 -588 
Q 1028 -725 1275 -790 
Q 1522 -856 1778 -856 
Q 2344 -856 2625 -561 
Q 2906 -266 2906 331 
L 2906 616 
Q 2728 306 2450 153 
Q 2172 0 1784 0 
Q 1141 0 747 490 
Q 353 981 353 1791 
Q 353 2603 747 3093 
Q 1141 3584 1784 3584 
Q 2172 3584 2450 3431 
Q 2728 3278 2906 2969 
L 2906 3500 
L 3481 3500 
L 3481 434 
z
" transform="scale(0.015625)"/>
      <path id="DejaVuSans-20" transform="scale(0.015625)"/>
      <path id="DejaVuSans-43" d="M 4122 4306 
L 4122 3641 
Q 3803 3938 3442 4084 
Q 3081 4231 2675 4231 
Q 1875 4231 1450 3742 
Q 1025 3253 1025 2328 
Q 1025 1406 1450 917 
Q 1875 428 2675 428 
Q 3081 428 3442 575 
Q 3803 722 4122 1019 
L 4122 359 
Q 3791 134 3420 21 
Q 3050 -91 2638 -91 
Q 1578 -91 968 557 
Q 359 1206 359 2328 
Q 359 3453 968 4101 
Q 1578 4750 2638 4750 
Q 3056 4750 3426 4639 
Q 3797 4528 4122 4306 
z
" transform="scale(0.015625)"/>
      <path id="DejaVuSans-76" d="M 191 3500 
L 800 3500 
L 1894 563 
L 2988 3500 
L 3597 3500 
L 2284 0 
L 1503 0 
L 191 3500 
z
" transform="scale(0.015625)"/>
     </defs>
     <use xlink:href="#DejaVuSans-4c"/>
     <use xlink:href="#DejaVuSans-65" x="53.962891"/>
     <use xlink:href="#DejaVuSans-61" x="115.486328"/>
     <use xlink:href="#DejaVuSans-72" x="176.765625"/>
     <use xlink:href="#DejaVuSans-6e" x="216.128906"/>
     <use xlink:href="#DejaVuSans-69" x="279.507812"/>
     <use xlink:href="#DejaVuSans-6e" x="307.291016"/>
     <use xlink:href="#DejaVuSans-67" x="370.669922"/>
     <use xlink:href="#DejaVuSans-20" x="434.146484"/>
     <use xlink:href="#DejaVuSans-43" x="465.933594"/>
     <use xlink:href="#DejaVuSans-75" x="535.757812"/>
     <use xlink:href="#DejaVuSans-72" x="599.136719"/>
     <use xlink:href="#DejaVuSans-76" x="640.25"/>
     <use xlink:href="#DejaVuSans-65" x="699.429688"/>
     <use xlink:href="#DejaVuSans-73" x="760.953125"/>
    </g>
   </g>
   <g id="legend_1">
    <g id="patch_7">
     <path d="M 214.18875 302.584 
L 407.72 302.584 
Q 409.72 302.584 409.72 300.584 
L 409.72 228.193375 
Q 409.72 226.193375 407.72 226.193375 
L 214.18875 226.193375 
Q 212.18875 226.193375 212.18875 228.193375 
L 212.18875 300.584 
Q 212.18875 302.584 214.18875 302.584 
z
" style="fill: #ffffff; opacity: 0.8; stroke: #cccccc; stroke-linejoin: miter"/>
    </g>
    <g id="line2d_23">
     <path d="M 216.18875 234.291812 
L 226.18875 234.291812 
L 236.18875 234.291812 
" style="fill: none; stroke: #1f77b4; stroke-width: 1.5; stroke-linecap: square"/>
    </g>
    <g id="text_21">
     <!-- Train Accuracy -->
     <g transform="translate(244.18875 237.791812) scale(0.1 -0.1)">
      <defs>
       <path id="DejaVuSans-54" d="M -19 4666 
L 3928 4666 
L 3928 4134 
L 2272 4134 
L 2272 0 
L 1638 0 
L 1638 4134 
L -19 4134 
L -19 4666 
z
" transform="scale(0.015625)"/>
      </defs>
      <use xlink:href="#DejaVuSans-54"/>
      <use xlink:href="#DejaVuSans-72" x="46.333984"/>
      <use xlink:href="#DejaVuSans-61" x="87.447266"/>
      <use xlink:href="#DejaVuSans-69" x="148.726562"/>
      <use xlink:href="#DejaVuSans-6e" x="176.509766"/>
      <use xlink:href="#DejaVuSans-20" x="239.888672"/>
      <use xlink:href="#DejaVuSans-41" x="271.675781"/>
      <use xlink:href="#DejaVuSans-63" x="338.333984"/>
      <use xlink:href="#DejaVuSans-63" x="393.314453"/>
      <use xlink:href="#DejaVuSans-75" x="448.294922"/>
      <use xlink:href="#DejaVuSans-72" x="511.673828"/>
      <use xlink:href="#DejaVuSans-61" x="552.787109"/>
      <use xlink:href="#DejaVuSans-63" x="614.066406"/>
      <use xlink:href="#DejaVuSans-79" x="669.046875"/>
     </g>
    </g>
    <g id="line2d_24">
     <path d="M 216.18875 248.969937 
L 226.18875 248.969937 
L 236.18875 248.969937 
" style="fill: none; stroke: #ff7f0e; stroke-width: 1.5; stroke-linecap: square"/>
    </g>
    <g id="text_22">
     <!-- Validation Accuracy -->
     <g transform="translate(244.18875 252.469937) scale(0.1 -0.1)">
      <defs>
       <path id="DejaVuSans-56" d="M 1831 0 
L 50 4666 
L 709 4666 
L 2188 738 
L 3669 4666 
L 4325 4666 
L 2547 0 
L 1831 0 
z
" transform="scale(0.015625)"/>
       <path id="DejaVuSans-6c" d="M 603 4863 
L 1178 4863 
L 1178 0 
L 603 0 
L 603 4863 
z
" transform="scale(0.015625)"/>
       <path id="DejaVuSans-64" d="M 2906 2969 
L 2906 4863 
L 3481 4863 
L 3481 0 
L 2906 0 
L 2906 525 
Q 2725 213 2448 61 
Q 2172 -91 1784 -91 
Q 1150 -91 751 415 
Q 353 922 353 1747 
Q 353 2572 751 3078 
Q 1150 3584 1784 3584 
Q 2172 3584 2448 3432 
Q 2725 3281 2906 2969 
z
M 947 1747 
Q 947 1113 1208 752 
Q 1469 391 1925 391 
Q 2381 391 2643 752 
Q 2906 1113 2906 1747 
Q 2906 2381 2643 2742 
Q 2381 3103 1925 3103 
Q 1469 3103 1208 2742 
Q 947 2381 947 1747 
z
" transform="scale(0.015625)"/>
       <path id="DejaVuSans-74" d="M 1172 4494 
L 1172 3500 
L 2356 3500 
L 2356 3053 
L 1172 3053 
L 1172 1153 
Q 1172 725 1289 603 
Q 1406 481 1766 481 
L 2356 481 
L 2356 0 
L 1766 0 
Q 1100 0 847 248 
Q 594 497 594 1153 
L 594 3053 
L 172 3053 
L 172 3500 
L 594 3500 
L 594 4494 
L 1172 4494 
z
" transform="scale(0.015625)"/>
      </defs>
      <use xlink:href="#DejaVuSans-56"/>
      <use xlink:href="#DejaVuSans-61" x="60.658203"/>
      <use xlink:href="#DejaVuSans-6c" x="121.9375"/>
      <use xlink:href="#DejaVuSans-69" x="149.720703"/>
      <use xlink:href="#DejaVuSans-64" x="177.503906"/>
      <use xlink:href="#DejaVuSans-61" x="240.980469"/>
      <use xlink:href="#DejaVuSans-74" x="302.259766"/>
      <use xlink:href="#DejaVuSans-69" x="341.46875"/>
      <use xlink:href="#DejaVuSans-6f" x="369.251953"/>
      <use xlink:href="#DejaVuSans-6e" x="430.433594"/>
      <use xlink:href="#DejaVuSans-20" x="493.8125"/>
      <use xlink:href="#DejaVuSans-41" x="525.599609"/>
      <use xlink:href="#DejaVuSans-63" x="592.257812"/>
      <use xlink:href="#DejaVuSans-63" x="647.238281"/>
      <use xlink:href="#DejaVuSans-75" x="702.21875"/>
      <use xlink:href="#DejaVuSans-72" x="765.597656"/>
      <use xlink:href="#DejaVuSans-61" x="806.710938"/>
      <use xlink:href="#DejaVuSans-63" x="867.990234"/>
      <use xlink:href="#DejaVuSans-79" x="922.970703"/>
     </g>
    </g>
    <g id="line2d_25">
     <path d="M 216.18875 263.648062 
L 226.18875 263.648062 
L 236.18875 263.648062 
" style="fill: none; stroke: #2ca02c; stroke-width: 1.5; stroke-linecap: square"/>
    </g>
    <g id="text_23">
     <!-- Robust Validation Accuracy -->
     <g transform="translate(244.18875 267.148062) scale(0.1 -0.1)">
      <defs>
       <path id="DejaVuSans-52" d="M 2841 2188 
Q 3044 2119 3236 1894 
Q 3428 1669 3622 1275 
L 4263 0 
L 3584 0 
L 2988 1197 
Q 2756 1666 2539 1819 
Q 2322 1972 1947 1972 
L 1259 1972 
L 1259 0 
L 628 0 
L 628 4666 
L 2053 4666 
Q 2853 4666 3247 4331 
Q 3641 3997 3641 3322 
Q 3641 2881 3436 2590 
Q 3231 2300 2841 2188 
z
M 1259 4147 
L 1259 2491 
L 2053 2491 
Q 2509 2491 2742 2702 
Q 2975 2913 2975 3322 
Q 2975 3731 2742 3939 
Q 2509 4147 2053 4147 
L 1259 4147 
z
" transform="scale(0.015625)"/>
       <path id="DejaVuSans-62" d="M 3116 1747 
Q 3116 2381 2855 2742 
Q 2594 3103 2138 3103 
Q 1681 3103 1420 2742 
Q 1159 2381 1159 1747 
Q 1159 1113 1420 752 
Q 1681 391 2138 391 
Q 2594 391 2855 752 
Q 3116 1113 3116 1747 
z
M 1159 2969 
Q 1341 3281 1617 3432 
Q 1894 3584 2278 3584 
Q 2916 3584 3314 3078 
Q 3713 2572 3713 1747 
Q 3713 922 3314 415 
Q 2916 -91 2278 -91 
Q 1894 -91 1617 61 
Q 1341 213 1159 525 
L 1159 0 
L 581 0 
L 581 4863 
L 1159 4863 
L 1159 2969 
z
" transform="scale(0.015625)"/>
      </defs>
      <use xlink:href="#DejaVuSans-52"/>
      <use xlink:href="#DejaVuSans-6f" x="64.982422"/>
      <use xlink:href="#DejaVuSans-62" x="126.164062"/>
      <use xlink:href="#DejaVuSans-75" x="189.640625"/>
      <use xlink:href="#DejaVuSans-73" x="253.019531"/>
      <use xlink:href="#DejaVuSans-74" x="305.119141"/>
      <use xlink:href="#DejaVuSans-20" x="344.328125"/>
      <use xlink:href="#DejaVuSans-56" x="376.115234"/>
      <use xlink:href="#DejaVuSans-61" x="436.773438"/>
      <use xlink:href="#DejaVuSans-6c" x="498.052734"/>
      <use xlink:href="#DejaVuSans-69" x="525.835938"/>
      <use xlink:href="#DejaVuSans-64" x="553.619141"/>
      <use xlink:href="#DejaVuSans-61" x="617.095703"/>
      <use xlink:href="#DejaVuSans-74" x="678.375"/>
      <use xlink:href="#DejaVuSans-69" x="717.583984"/>
      <use xlink:href="#DejaVuSans-6f" x="745.367188"/>
      <use xlink:href="#DejaVuSans-6e" x="806.548828"/>
      <use xlink:href="#DejaVuSans-20" x="869.927734"/>
      <use xlink:href="#DejaVuSans-41" x="901.714844"/>
      <use xlink:href="#DejaVuSans-63" x="968.373047"/>
      <use xlink:href="#DejaVuSans-63" x="1023.353516"/>
      <use xlink:href="#DejaVuSans-75" x="1078.333984"/>
      <use xlink:href="#DejaVuSans-72" x="1141.712891"/>
      <use xlink:href="#DejaVuSans-61" x="1182.826172"/>
      <use xlink:href="#DejaVuSans-63" x="1244.105469"/>
      <use xlink:href="#DejaVuSans-79" x="1299.085938"/>
     </g>
    </g>
    <g id="line2d_26">
     <path d="M 216.18875 278.326188 
L 226.18875 278.326188 
L 236.18875 278.326188 
" style="fill: none; stroke: #d62728; stroke-width: 1.5; stroke-linecap: square"/>
    </g>
    <g id="text_24">
     <!-- SWA Validation Accuracy -->
     <g transform="translate(244.18875 281.826188) scale(0.1 -0.1)">
      <defs>
       <path id="DejaVuSans-53" d="M 3425 4513 
L 3425 3897 
Q 3066 4069 2747 4153 
Q 2428 4238 2131 4238 
Q 1616 4238 1336 4038 
Q 1056 3838 1056 3469 
Q 1056 3159 1242 3001 
Q 1428 2844 1947 2747 
L 2328 2669 
Q 3034 2534 3370 2195 
Q 3706 1856 3706 1288 
Q 3706 609 3251 259 
Q 2797 -91 1919 -91 
Q 1588 -91 1214 -16 
Q 841 59 441 206 
L 441 856 
Q 825 641 1194 531 
Q 1563 422 1919 422 
Q 2459 422 2753 634 
Q 3047 847 3047 1241 
Q 3047 1584 2836 1778 
Q 2625 1972 2144 2069 
L 1759 2144 
Q 1053 2284 737 2584 
Q 422 2884 422 3419 
Q 422 4038 858 4394 
Q 1294 4750 2059 4750 
Q 2388 4750 2728 4690 
Q 3069 4631 3425 4513 
z
" transform="scale(0.015625)"/>
       <path id="DejaVuSans-57" d="M 213 4666 
L 850 4666 
L 1831 722 
L 2809 4666 
L 3519 4666 
L 4500 722 
L 5478 4666 
L 6119 4666 
L 4947 0 
L 4153 0 
L 3169 4050 
L 2175 0 
L 1381 0 
L 213 4666 
z
" transform="scale(0.015625)"/>
      </defs>
      <use xlink:href="#DejaVuSans-53"/>
      <use xlink:href="#DejaVuSans-57" x="63.476562"/>
      <use xlink:href="#DejaVuSans-41" x="156.853516"/>
      <use xlink:href="#DejaVuSans-20" x="225.261719"/>
      <use xlink:href="#DejaVuSans-56" x="257.048828"/>
      <use xlink:href="#DejaVuSans-61" x="317.707031"/>
      <use xlink:href="#DejaVuSans-6c" x="378.986328"/>
      <use xlink:href="#DejaVuSans-69" x="406.769531"/>
      <use xlink:href="#DejaVuSans-64" x="434.552734"/>
      <use xlink:href="#DejaVuSans-61" x="498.029297"/>
      <use xlink:href="#DejaVuSans-74" x="559.308594"/>
      <use xlink:href="#DejaVuSans-69" x="598.517578"/>
      <use xlink:href="#DejaVuSans-6f" x="626.300781"/>
      <use xlink:href="#DejaVuSans-6e" x="687.482422"/>
      <use xlink:href="#DejaVuSans-20" x="750.861328"/>
      <use xlink:href="#DejaVuSans-41" x="782.648438"/>
      <use xlink:href="#DejaVuSans-63" x="849.306641"/>
      <use xlink:href="#DejaVuSans-63" x="904.287109"/>
      <use xlink:href="#DejaVuSans-75" x="959.267578"/>
      <use xlink:href="#DejaVuSans-72" x="1022.646484"/>
      <use xlink:href="#DejaVuSans-61" x="1063.759766"/>
      <use xlink:href="#DejaVuSans-63" x="1125.039062"/>
      <use xlink:href="#DejaVuSans-79" x="1180.019531"/>
     </g>
    </g>
    <g id="line2d_27">
     <path d="M 216.18875 293.004312 
L 226.18875 293.004312 
L 236.18875 293.004312 
" style="fill: none; stroke: #9467bd; stroke-width: 1.5; stroke-linecap: square"/>
    </g>
    <g id="text_25">
     <!-- SWA Robust Validation Accuracy -->
     <g transform="translate(244.18875 296.504312) scale(0.1 -0.1)">
      <use xlink:href="#DejaVuSans-53"/>
      <use xlink:href="#DejaVuSans-57" x="63.476562"/>
      <use xlink:href="#DejaVuSans-41" x="156.853516"/>
      <use xlink:href="#DejaVuSans-20" x="225.261719"/>
      <use xlink:href="#DejaVuSans-52" x="257.048828"/>
      <use xlink:href="#DejaVuSans-6f" x="322.03125"/>
      <use xlink:href="#DejaVuSans-62" x="383.212891"/>
      <use xlink:href="#DejaVuSans-75" x="446.689453"/>
      <use xlink:href="#DejaVuSans-73" x="510.068359"/>
      <use xlink:href="#DejaVuSans-74" x="562.167969"/>
      <use xlink:href="#DejaVuSans-20" x="601.376953"/>
      <use xlink:href="#DejaVuSans-56" x="633.164062"/>
      <use xlink:href="#DejaVuSans-61" x="693.822266"/>
      <use xlink:href="#DejaVuSans-6c" x="755.101562"/>
      <use xlink:href="#DejaVuSans-69" x="782.884766"/>
      <use xlink:href="#DejaVuSans-64" x="810.667969"/>
      <use xlink:href="#DejaVuSans-61" x="874.144531"/>
      <use xlink:href="#DejaVuSans-74" x="935.423828"/>
      <use xlink:href="#DejaVuSans-69" x="974.632812"/>
      <use xlink:href="#DejaVuSans-6f" x="1002.416016"/>
      <use xlink:href="#DejaVuSans-6e" x="1063.597656"/>
      <use xlink:href="#DejaVuSans-20" x="1126.976562"/>
      <use xlink:href="#DejaVuSans-41" x="1158.763672"/>
      <use xlink:href="#DejaVuSans-63" x="1225.421875"/>
      <use xlink:href="#DejaVuSans-63" x="1280.402344"/>
      <use xlink:href="#DejaVuSans-75" x="1335.382812"/>
      <use xlink:href="#DejaVuSans-72" x="1398.761719"/>
      <use xlink:href="#DejaVuSans-61" x="1439.875"/>
      <use xlink:href="#DejaVuSans-63" x="1501.154297"/>
      <use xlink:href="#DejaVuSans-79" x="1556.134766"/>
     </g>
    </g>
   </g>
  </g>
 </g>
 <defs>
  <clipPath id="p6c92dbd74f">
   <rect x="57.6" y="41.472" width="357.12" height="266.112"/>
  </clipPath>
 </defs>
</svg>
