<?xml version="1.0" encoding="utf-8" standalone="no"?>
<!DOCTYPE svg PUBLIC "-//W3C//DTD SVG 1.1//EN"
  "http://www.w3.org/Graphics/SVG/1.1/DTD/svg11.dtd">
<svg xmlns:xlink="http://www.w3.org/1999/xlink" width="460.8pt" height="345.6pt" viewBox="0 0 460.8 345.6" xmlns="http://www.w3.org/2000/svg" version="1.1">
 <metadata>
  <rdf:RDF xmlns:dc="http://purl.org/dc/elements/1.1/" xmlns:cc="http://creativecommons.org/ns#" xmlns:rdf="http://www.w3.org/1999/02/22-rdf-syntax-ns#">
   <cc:Work>
    <dc:type rdf:resource="http://purl.org/dc/dcmitype/StillImage"/>
    <dc:date>2025-10-18T17:02:42.312611</dc:date>
    <dc:format>image/svg+xml</dc:format>
    <dc:creator>
     <cc:Agent>
      <dc:title>Matplotlib v3.9.1, https://matplotlib.org/</dc:title>
     </cc:Agent>
    </dc:creator>
   </cc:Work>
  </rdf:RDF>
 </metadata>
 <defs>
  <style type="text/css">*{stroke-linejoin: round; stroke-linecap: butt}</style>
 </defs>
 <g id="figure_1">
  <g id="patch_1">
   <path d="M 0 345.6 
L 460.8 345.6 
L 460.8 0 
L 0 0 
z
" style="fill: #ffffff"/>
  </g>
  <g id="axes_1">
   <g id="patch_2">
    <path d="M 57.6 307.584 
L 414.72 307.584 
L 414.72 41.472 
L 57.6 41.472 
z
" style="fill: #ffffff"/>
   </g>
   <g id="matplotlib.axis_1">
    <g id="xtick_1">
     <g id="line2d_1">
      <defs>
       <path id="m2aff0e120b" d="M 0 0 
L 0 3.5 
" style="stroke: #000000; stroke-width: 0.8"/>
      </defs>
      <g>
       <use xlink:href="#m2aff0e120b" x="73.832727" y="307.584" style="stroke: #000000; stroke-width: 0.8"/>
      </g>
     </g>
     <g id="text_1">
      <!-- 1 -->
      <g transform="translate(70.651477 322.182437) scale(0.1 -0.1)">
       <defs>
        <path id="DejaVuSans-31" d="M 794 531 
L 1825 531 
L 1825 4091 
L 703 3866 
L 703 4441 
L 1819 4666 
L 2450 4666 
L 2450 531 
L 3481 531 
L 3481 0 
L 794 0 
L 794 531 
z
" transform="scale(0.015625)"/>
       </defs>
       <use xlink:href="#DejaVuSans-31"/>
      </g>
     </g>
    </g>
    <g id="xtick_2">
     <g id="line2d_2">
      <g>
       <use xlink:href="#m2aff0e120b" x="109.664165" y="307.584" style="stroke: #000000; stroke-width: 0.8"/>
      </g>
     </g>
     <g id="text_2">
      <!-- 34 -->
      <g transform="translate(103.301665 322.182437) scale(0.1 -0.1)">
       <defs>
        <path id="DejaVuSans-33" d="M 2597 2516 
Q 3050 2419 3304 2112 
Q 3559 1806 3559 1356 
Q 3559 666 3084 287 
Q 2609 -91 1734 -91 
Q 1441 -91 1130 -33 
Q 819 25 488 141 
L 488 750 
Q 750 597 1062 519 
Q 1375 441 1716 441 
Q 2309 441 2620 675 
Q 2931 909 2931 1356 
Q 2931 1769 2642 2001 
Q 2353 2234 1838 2234 
L 1294 2234 
L 1294 2753 
L 1863 2753 
Q 2328 2753 2575 2939 
Q 2822 3125 2822 3475 
Q 2822 3834 2567 4026 
Q 2313 4219 1838 4219 
Q 1578 4219 1281 4162 
Q 984 4106 628 3988 
L 628 4550 
Q 988 4650 1302 4700 
Q 1616 4750 1894 4750 
Q 2613 4750 3031 4423 
Q 3450 4097 3450 3541 
Q 3450 3153 3228 2886 
Q 3006 2619 2597 2516 
z
" transform="scale(0.015625)"/>
        <path id="DejaVuSans-34" d="M 2419 4116 
L 825 1625 
L 2419 1625 
L 2419 4116 
z
M 2253 4666 
L 3047 4666 
L 3047 1625 
L 3713 1625 
L 3713 1100 
L 3047 1100 
L 3047 0 
L 2419 0 
L 2419 1100 
L 313 1100 
L 313 1709 
L 2253 4666 
z
" transform="scale(0.015625)"/>
       </defs>
       <use xlink:href="#DejaVuSans-33"/>
       <use xlink:href="#DejaVuSans-34" x="63.623047"/>
      </g>
     </g>
    </g>
    <g id="xtick_3">
     <g id="line2d_3">
      <g>
       <use xlink:href="#m2aff0e120b" x="145.495604" y="307.584" style="stroke: #000000; stroke-width: 0.8"/>
      </g>
     </g>
     <g id="text_3">
      <!-- 67 -->
      <g transform="translate(139.133104 322.182437) scale(0.1 -0.1)">
       <defs>
        <path id="DejaVuSans-36" d="M 2113 2584 
Q 1688 2584 1439 2293 
Q 1191 2003 1191 1497 
Q 1191 994 1439 701 
Q 1688 409 2113 409 
Q 2538 409 2786 701 
Q 3034 994 3034 1497 
Q 3034 2003 2786 2293 
Q 2538 2584 2113 2584 
z
M 3366 4563 
L 3366 3988 
Q 3128 4100 2886 4159 
Q 2644 4219 2406 4219 
Q 1781 4219 1451 3797 
Q 1122 3375 1075 2522 
Q 1259 2794 1537 2939 
Q 1816 3084 2150 3084 
Q 2853 3084 3261 2657 
Q 3669 2231 3669 1497 
Q 3669 778 3244 343 
Q 2819 -91 2113 -91 
Q 1303 -91 875 529 
Q 447 1150 447 2328 
Q 447 3434 972 4092 
Q 1497 4750 2381 4750 
Q 2619 4750 2861 4703 
Q 3103 4656 3366 4563 
z
" transform="scale(0.015625)"/>
        <path id="DejaVuSans-37" d="M 525 4666 
L 3525 4666 
L 3525 4397 
L 1831 0 
L 1172 0 
L 2766 4134 
L 525 4134 
L 525 4666 
z
" transform="scale(0.015625)"/>
       </defs>
       <use xlink:href="#DejaVuSans-36"/>
       <use xlink:href="#DejaVuSans-37" x="63.623047"/>
      </g>
     </g>
    </g>
    <g id="xtick_4">
     <g id="line2d_4">
      <g>
       <use xlink:href="#m2aff0e120b" x="181.327042" y="307.584" style="stroke: #000000; stroke-width: 0.8"/>
      </g>
     </g>
     <g id="text_4">
      <!-- 100 -->
      <g transform="translate(171.783292 322.182437) scale(0.1 -0.1)">
       <defs>
        <path id="DejaVuSans-30" d="M 2034 4250 
Q 1547 4250 1301 3770 
Q 1056 3291 1056 2328 
Q 1056 1369 1301 889 
Q 1547 409 2034 409 
Q 2525 409 2770 889 
Q 3016 1369 3016 2328 
Q 3016 3291 2770 3770 
Q 2525 4250 2034 4250 
z
M 2034 4750 
Q 2819 4750 3233 4129 
Q 3647 3509 3647 2328 
Q 3647 1150 3233 529 
Q 2819 -91 2034 -91 
Q 1250 -91 836 529 
Q 422 1150 422 2328 
Q 422 3509 836 4129 
Q 1250 4750 2034 4750 
z
" transform="scale(0.015625)"/>
       </defs>
       <use xlink:href="#DejaVuSans-31"/>
       <use xlink:href="#DejaVuSans-30" x="63.623047"/>
       <use xlink:href="#DejaVuSans-30" x="127.246094"/>
      </g>
     </g>
    </g>
    <g id="xtick_5">
     <g id="line2d_5">
      <g>
       <use xlink:href="#m2aff0e120b" x="217.15848" y="307.584" style="stroke: #000000; stroke-width: 0.8"/>
      </g>
     </g>
     <g id="text_5">
      <!-- 133 -->
      <g transform="translate(207.61473 322.182437) scale(0.1 -0.1)">
       <use xlink:href="#DejaVuSans-31"/>
       <use xlink:href="#DejaVuSans-33" x="63.623047"/>
       <use xlink:href="#DejaVuSans-33" x="127.246094"/>
      </g>
     </g>
    </g>
    <g id="xtick_6">
     <g id="line2d_6">
      <g>
       <use xlink:href="#m2aff0e120b" x="254.075719" y="307.584" style="stroke: #000000; stroke-width: 0.8"/>
      </g>
     </g>
     <g id="text_6">
      <!-- 167 -->
      <g transform="translate(244.531969 322.182437) scale(0.1 -0.1)">
       <use xlink:href="#DejaVuSans-31"/>
       <use xlink:href="#DejaVuSans-36" x="63.623047"/>
       <use xlink:href="#DejaVuSans-37" x="127.246094"/>
      </g>
     </g>
    </g>
    <g id="xtick_7">
     <g id="line2d_7">
      <g>
       <use xlink:href="#m2aff0e120b" x="289.907157" y="307.584" style="stroke: #000000; stroke-width: 0.8"/>
      </g>
     </g>
     <g id="text_7">
      <!-- 200 -->
      <g transform="translate(280.363407 322.182437) scale(0.1 -0.1)">
       <defs>
        <path id="DejaVuSans-32" d="M 1228 531 
L 3431 531 
L 3431 0 
L 469 0 
L 469 531 
Q 828 903 1448 1529 
Q 2069 2156 2228 2338 
Q 2531 2678 2651 2914 
Q 2772 3150 2772 3378 
Q 2772 3750 2511 3984 
Q 2250 4219 1831 4219 
Q 1534 4219 1204 4116 
Q 875 4013 500 3803 
L 500 4441 
Q 881 4594 1212 4672 
Q 1544 4750 1819 4750 
Q 2544 4750 2975 4387 
Q 3406 4025 3406 3419 
Q 3406 3131 3298 2873 
Q 3191 2616 2906 2266 
Q 2828 2175 2409 1742 
Q 1991 1309 1228 531 
z
" transform="scale(0.015625)"/>
       </defs>
       <use xlink:href="#DejaVuSans-32"/>
       <use xlink:href="#DejaVuSans-30" x="63.623047"/>
       <use xlink:href="#DejaVuSans-30" x="127.246094"/>
      </g>
     </g>
    </g>
    <g id="xtick_8">
     <g id="line2d_8">
      <g>
       <use xlink:href="#m2aff0e120b" x="325.738595" y="307.584" style="stroke: #000000; stroke-width: 0.8"/>
      </g>
     </g>
     <g id="text_8">
      <!-- 233 -->
      <g transform="translate(316.194845 322.182437) scale(0.1 -0.1)">
       <use xlink:href="#DejaVuSans-32"/>
       <use xlink:href="#DejaVuSans-33" x="63.623047"/>
       <use xlink:href="#DejaVuSans-33" x="127.246094"/>
      </g>
     </g>
    </g>
    <g id="xtick_9">
     <g id="line2d_9">
      <g>
       <use xlink:href="#m2aff0e120b" x="361.570033" y="307.584" style="stroke: #000000; stroke-width: 0.8"/>
      </g>
     </g>
     <g id="text_9">
      <!-- 266 -->
      <g transform="translate(352.026283 322.182437) scale(0.1 -0.1)">
       <use xlink:href="#DejaVuSans-32"/>
       <use xlink:href="#DejaVuSans-36" x="63.623047"/>
       <use xlink:href="#DejaVuSans-36" x="127.246094"/>
      </g>
     </g>
    </g>
    <g id="xtick_10">
     <g id="line2d_10">
      <g>
       <use xlink:href="#m2aff0e120b" x="398.487273" y="307.584" style="stroke: #000000; stroke-width: 0.8"/>
      </g>
     </g>
     <g id="text_10">
      <!-- 300 -->
      <g transform="translate(388.943523 322.182437) scale(0.1 -0.1)">
       <use xlink:href="#DejaVuSans-33"/>
       <use xlink:href="#DejaVuSans-30" x="63.623047"/>
       <use xlink:href="#DejaVuSans-30" x="127.246094"/>
      </g>
     </g>
    </g>
    <g id="text_11">
     <!-- Epochs -->
     <g transform="translate(218.244375 335.860562) scale(0.1 -0.1)">
      <defs>
       <path id="DejaVuSans-45" d="M 628 4666 
L 3578 4666 
L 3578 4134 
L 1259 4134 
L 1259 2753 
L 3481 2753 
L 3481 2222 
L 1259 2222 
L 1259 531 
L 3634 531 
L 3634 0 
L 628 0 
L 628 4666 
z
" transform="scale(0.015625)"/>
       <path id="DejaVuSans-70" d="M 1159 525 
L 1159 -1331 
L 581 -1331 
L 581 3500 
L 1159 3500 
L 1159 2969 
Q 1341 3281 1617 3432 
Q 1894 3584 2278 3584 
Q 2916 3584 3314 3078 
Q 3713 2572 3713 1747 
Q 3713 922 3314 415 
Q 2916 -91 2278 -91 
Q 1894 -91 1617 61 
Q 1341 213 1159 525 
z
M 3116 1747 
Q 3116 2381 2855 2742 
Q 2594 3103 2138 3103 
Q 1681 3103 1420 2742 
Q 1159 2381 1159 1747 
Q 1159 1113 1420 752 
Q 1681 391 2138 391 
Q 2594 391 2855 752 
Q 3116 1113 3116 1747 
z
" transform="scale(0.015625)"/>
       <path id="DejaVuSans-6f" d="M 1959 3097 
Q 1497 3097 1228 2736 
Q 959 2375 959 1747 
Q 959 1119 1226 758 
Q 1494 397 1959 397 
Q 2419 397 2687 759 
Q 2956 1122 2956 1747 
Q 2956 2369 2687 2733 
Q 2419 3097 1959 3097 
z
M 1959 3584 
Q 2709 3584 3137 3096 
Q 3566 2609 3566 1747 
Q 3566 888 3137 398 
Q 2709 -91 1959 -91 
Q 1206 -91 779 398 
Q 353 888 353 1747 
Q 353 2609 779 3096 
Q 1206 3584 1959 3584 
z
" transform="scale(0.015625)"/>
       <path id="DejaVuSans-63" d="M 3122 3366 
L 3122 2828 
Q 2878 2963 2633 3030 
Q 2388 3097 2138 3097 
Q 1578 3097 1268 2742 
Q 959 2388 959 1747 
Q 959 1106 1268 751 
Q 1578 397 2138 397 
Q 2388 397 2633 464 
Q 2878 531 3122 666 
L 3122 134 
Q 2881 22 2623 -34 
Q 2366 -91 2075 -91 
Q 1284 -91 818 406 
Q 353 903 353 1747 
Q 353 2603 823 3093 
Q 1294 3584 2113 3584 
Q 2378 3584 2631 3529 
Q 2884 3475 3122 3366 
z
" transform="scale(0.015625)"/>
       <path id="DejaVuSans-68" d="M 3513 2113 
L 3513 0 
L 2938 0 
L 2938 2094 
Q 2938 2591 2744 2837 
Q 2550 3084 2163 3084 
Q 1697 3084 1428 2787 
Q 1159 2491 1159 1978 
L 1159 0 
L 581 0 
L 581 4863 
L 1159 4863 
L 1159 2956 
Q 1366 3272 1645 3428 
Q 1925 3584 2291 3584 
Q 2894 3584 3203 3211 
Q 3513 2838 3513 2113 
z
" transform="scale(0.015625)"/>
       <path id="DejaVuSans-73" d="M 2834 3397 
L 2834 2853 
Q 2591 2978 2328 3040 
Q 2066 3103 1784 3103 
Q 1356 3103 1142 2972 
Q 928 2841 928 2578 
Q 928 2378 1081 2264 
Q 1234 2150 1697 2047 
L 1894 2003 
Q 2506 1872 2764 1633 
Q 3022 1394 3022 966 
Q 3022 478 2636 193 
Q 2250 -91 1575 -91 
Q 1294 -91 989 -36 
Q 684 19 347 128 
L 347 722 
Q 666 556 975 473 
Q 1284 391 1588 391 
Q 1994 391 2212 530 
Q 2431 669 2431 922 
Q 2431 1156 2273 1281 
Q 2116 1406 1581 1522 
L 1381 1569 
Q 847 1681 609 1914 
Q 372 2147 372 2553 
Q 372 3047 722 3315 
Q 1072 3584 1716 3584 
Q 2034 3584 2315 3537 
Q 2597 3491 2834 3397 
z
" transform="scale(0.015625)"/>
      </defs>
      <use xlink:href="#DejaVuSans-45"/>
      <use xlink:href="#DejaVuSans-70" x="63.183594"/>
      <use xlink:href="#DejaVuSans-6f" x="126.660156"/>
      <use xlink:href="#DejaVuSans-63" x="187.841797"/>
      <use xlink:href="#DejaVuSans-68" x="242.822266"/>
      <use xlink:href="#DejaVuSans-73" x="306.201172"/>
     </g>
    </g>
   </g>
   <g id="matplotlib.axis_2">
    <g id="ytick_1">
     <g id="line2d_11">
      <defs>
       <path id="mf676ee48a5" d="M 0 0 
L -3.5 0 
" style="stroke: #000000; stroke-width: 0.8"/>
      </defs>
      <g>
       <use xlink:href="#mf676ee48a5" x="57.6" y="276.043693" style="stroke: #000000; stroke-width: 0.8"/>
      </g>
     </g>
     <g id="text_12">
      <!-- 20 -->
      <g transform="translate(37.875 279.842912) scale(0.1 -0.1)">
       <use xlink:href="#DejaVuSans-32"/>
       <use xlink:href="#DejaVuSans-30" x="63.623047"/>
      </g>
     </g>
    </g>
    <g id="ytick_2">
     <g id="line2d_12">
      <g>
       <use xlink:href="#mf676ee48a5" x="57.6" y="220.378846" style="stroke: #000000; stroke-width: 0.8"/>
      </g>
     </g>
     <g id="text_13">
      <!-- 40 -->
      <g transform="translate(37.875 224.178065) scale(0.1 -0.1)">
       <use xlink:href="#DejaVuSans-34"/>
       <use xlink:href="#DejaVuSans-30" x="63.623047"/>
      </g>
     </g>
    </g>
    <g id="ytick_3">
     <g id="line2d_13">
      <g>
       <use xlink:href="#mf676ee48a5" x="57.6" y="164.714" style="stroke: #000000; stroke-width: 0.8"/>
      </g>
     </g>
     <g id="text_14">
      <!-- 60 -->
      <g transform="translate(37.875 168.513218) scale(0.1 -0.1)">
       <use xlink:href="#DejaVuSans-36"/>
       <use xlink:href="#DejaVuSans-30" x="63.623047"/>
      </g>
     </g>
    </g>
    <g id="ytick_4">
     <g id="line2d_14">
      <g>
       <use xlink:href="#mf676ee48a5" x="57.6" y="109.049153" style="stroke: #000000; stroke-width: 0.8"/>
      </g>
     </g>
     <g id="text_15">
      <!-- 80 -->
      <g transform="translate(37.875 112.848372) scale(0.1 -0.1)">
       <defs>
        <path id="DejaVuSans-38" d="M 2034 2216 
Q 1584 2216 1326 1975 
Q 1069 1734 1069 1313 
Q 1069 891 1326 650 
Q 1584 409 2034 409 
Q 2484 409 2743 651 
Q 3003 894 3003 1313 
Q 3003 1734 2745 1975 
Q 2488 2216 2034 2216 
z
M 1403 2484 
Q 997 2584 770 2862 
Q 544 3141 544 3541 
Q 544 4100 942 4425 
Q 1341 4750 2034 4750 
Q 2731 4750 3128 4425 
Q 3525 4100 3525 3541 
Q 3525 3141 3298 2862 
Q 3072 2584 2669 2484 
Q 3125 2378 3379 2068 
Q 3634 1759 3634 1313 
Q 3634 634 3220 271 
Q 2806 -91 2034 -91 
Q 1263 -91 848 271 
Q 434 634 434 1313 
Q 434 1759 690 2068 
Q 947 2378 1403 2484 
z
M 1172 3481 
Q 1172 3119 1398 2916 
Q 1625 2713 2034 2713 
Q 2441 2713 2670 2916 
Q 2900 3119 2900 3481 
Q 2900 3844 2670 4047 
Q 2441 4250 2034 4250 
Q 1625 4250 1398 4047 
Q 1172 3844 1172 3481 
z
" transform="scale(0.015625)"/>
       </defs>
       <use xlink:href="#DejaVuSans-38"/>
       <use xlink:href="#DejaVuSans-30" x="63.623047"/>
      </g>
     </g>
    </g>
    <g id="ytick_5">
     <g id="line2d_15">
      <g>
       <use xlink:href="#mf676ee48a5" x="57.6" y="53.384306" style="stroke: #000000; stroke-width: 0.8"/>
      </g>
     </g>
     <g id="text_16">
      <!-- 100 -->
      <g transform="translate(31.5125 57.183525) scale(0.1 -0.1)">
       <use xlink:href="#DejaVuSans-31"/>
       <use xlink:href="#DejaVuSans-30" x="63.623047"/>
       <use xlink:href="#DejaVuSans-30" x="127.246094"/>
      </g>
     </g>
    </g>
    <g id="text_17">
     <!-- Accuracy -->
     <g transform="translate(25.432812 197.356125) rotate(-90) scale(0.1 -0.1)">
      <defs>
       <path id="DejaVuSans-41" d="M 2188 4044 
L 1331 1722 
L 3047 1722 
L 2188 4044 
z
M 1831 4666 
L 2547 4666 
L 4325 0 
L 3669 0 
L 3244 1197 
L 1141 1197 
L 716 0 
L 50 0 
L 1831 4666 
z
" transform="scale(0.015625)"/>
       <path id="DejaVuSans-75" d="M 544 1381 
L 544 3500 
L 1119 3500 
L 1119 1403 
Q 1119 906 1312 657 
Q 1506 409 1894 409 
Q 2359 409 2629 706 
Q 2900 1003 2900 1516 
L 2900 3500 
L 3475 3500 
L 3475 0 
L 2900 0 
L 2900 538 
Q 2691 219 2414 64 
Q 2138 -91 1772 -91 
Q 1169 -91 856 284 
Q 544 659 544 1381 
z
M 1991 3584 
L 1991 3584 
z
" transform="scale(0.015625)"/>
       <path id="DejaVuSans-72" d="M 2631 2963 
Q 2534 3019 2420 3045 
Q 2306 3072 2169 3072 
Q 1681 3072 1420 2755 
Q 1159 2438 1159 1844 
L 1159 0 
L 581 0 
L 581 3500 
L 1159 3500 
L 1159 2956 
Q 1341 3275 1631 3429 
Q 1922 3584 2338 3584 
Q 2397 3584 2469 3576 
Q 2541 3569 2628 3553 
L 2631 2963 
z
" transform="scale(0.015625)"/>
       <path id="DejaVuSans-61" d="M 2194 1759 
Q 1497 1759 1228 1600 
Q 959 1441 959 1056 
Q 959 750 1161 570 
Q 1363 391 1709 391 
Q 2188 391 2477 730 
Q 2766 1069 2766 1631 
L 2766 1759 
L 2194 1759 
z
M 3341 1997 
L 3341 0 
L 2766 0 
L 2766 531 
Q 2569 213 2275 61 
Q 1981 -91 1556 -91 
Q 1019 -91 701 211 
Q 384 513 384 1019 
Q 384 1609 779 1909 
Q 1175 2209 1959 2209 
L 2766 2209 
L 2766 2266 
Q 2766 2663 2505 2880 
Q 2244 3097 1772 3097 
Q 1472 3097 1187 3025 
Q 903 2953 641 2809 
L 641 3341 
Q 956 3463 1253 3523 
Q 1550 3584 1831 3584 
Q 2591 3584 2966 3190 
Q 3341 2797 3341 1997 
z
" transform="scale(0.015625)"/>
       <path id="DejaVuSans-79" d="M 2059 -325 
Q 1816 -950 1584 -1140 
Q 1353 -1331 966 -1331 
L 506 -1331 
L 506 -850 
L 844 -850 
Q 1081 -850 1212 -737 
Q 1344 -625 1503 -206 
L 1606 56 
L 191 3500 
L 800 3500 
L 1894 763 
L 2988 3500 
L 3597 3500 
L 2059 -325 
z
" transform="scale(0.015625)"/>
      </defs>
      <use xlink:href="#DejaVuSans-41"/>
      <use xlink:href="#DejaVuSans-63" x="66.658203"/>
      <use xlink:href="#DejaVuSans-63" x="121.638672"/>
      <use xlink:href="#DejaVuSans-75" x="176.619141"/>
      <use xlink:href="#DejaVuSans-72" x="239.998047"/>
      <use xlink:href="#DejaVuSans-61" x="281.111328"/>
      <use xlink:href="#DejaVuSans-63" x="342.390625"/>
      <use xlink:href="#DejaVuSans-79" x="397.371094"/>
     </g>
    </g>
   </g>
   <g id="line2d_16">
    <path d="M 73.832727 286.514251 
L 74.918528 226.930599 
L 76.00433 181.580448 
L 77.090131 157.021118 
L 78.175932 142.748651 
L 79.261733 132.116665 
L 80.347534 123.588811 
L 81.433335 116.085189 
L 83.604938 105.609065 
L 86.862341 93.362799 
L 87.948142 89.917145 
L 89.033943 85.914842 
L 90.119745 83.977706 
L 92.291347 79.0458 
L 93.377148 78.166296 
L 94.462949 77.910238 
L 95.54875 102.297007 
L 96.634552 102.630996 
L 97.720353 100.237408 
L 98.806154 98.689925 
L 100.977756 93.763586 
L 102.063557 92.555659 
L 104.23516 87.813014 
L 106.406762 84.77928 
L 108.578364 81.456088 
L 109.664165 79.145997 
L 110.749967 78.14403 
L 111.835768 75.566747 
L 112.921569 74.35882 
L 115.093171 71.386317 
L 116.178972 70.055928 
L 117.264773 68.241254 
L 119.436376 65.168554 
L 120.522177 63.526441 
L 121.607978 62.769399 
L 122.693779 61.383344 
L 124.865382 59.329312 
L 125.951183 59.128918 
L 127.036984 57.959956 
L 128.122785 57.008088 
L 129.208586 56.73533 
L 130.294387 56.262179 
L 131.380189 56.111883 
L 134.637592 55.260211 
L 135.723393 55.31031 
L 137.894995 55.043118 
L 138.980797 71.263855 
L 140.066598 74.67611 
L 141.152399 74.703942 
L 142.2382 74.07493 
L 143.324001 74.180693 
L 144.409802 74.125028 
L 145.495604 72.722274 
L 146.581405 72.249123 
L 147.667206 71.341786 
L 148.753007 70.757305 
L 149.838808 70.946565 
L 150.924609 69.911199 
L 153.096212 69.131891 
L 154.182013 67.901698 
L 155.267814 67.756969 
L 157.439416 66.142689 
L 158.525217 66.131556 
L 159.611019 65.558208 
L 161.782621 64.211119 
L 163.954223 63.003192 
L 165.040024 62.607971 
L 166.125825 61.873195 
L 167.211627 61.656102 
L 168.297428 61.194084 
L 169.383229 60.514973 
L 171.554831 59.908226 
L 172.640632 59.423942 
L 173.726434 59.184583 
L 174.812235 58.772663 
L 175.898036 58.071286 
L 176.983837 58.082419 
L 178.069638 57.436707 
L 179.155439 57.086018 
L 180.24124 56.985822 
L 182.412843 56.106317 
L 183.498644 56.301144 
L 184.584445 55.616466 
L 185.670246 55.733363 
L 187.841849 55.026419 
L 188.92765 55.137749 
L 190.013451 54.909523 
L 191.099252 54.469771 
L 193.270854 54.614499 
L 194.356656 54.514302 
L 195.442457 54.252678 
L 196.528258 54.274944 
L 197.614059 54.041151 
L 200.871462 54.163614 
L 201.957264 54.002186 
L 204.128866 53.991053 
L 206.300468 53.790659 
L 207.386269 53.96322 
L 209.557872 53.829625 
L 224.759088 53.734995 
L 225.844889 60.910193 
L 226.93069 65.279884 
L 228.016491 66.042492 
L 230.188094 66.50451 
L 231.273895 66.532343 
L 232.359696 66.816234 
L 233.445497 65.931162 
L 234.531298 65.803133 
L 236.702901 65.062791 
L 237.788702 65.580474 
L 238.874503 64.734368 
L 239.960304 65.090623 
L 241.046105 64.316882 
L 242.131906 64.678703 
L 243.217708 64.489443 
L 244.303509 64.099789 
L 246.475111 64.021858 
L 247.560912 63.476343 
L 248.646713 63.587672 
L 249.732514 63.008758 
L 250.818316 62.825064 
L 251.904117 62.886295 
L 252.989918 62.669202 
L 254.075719 62.747133 
L 255.16152 62.329647 
L 256.247321 62.32408 
L 258.418924 61.756299 
L 259.504725 61.62827 
L 261.676327 61.043789 
L 262.762128 61.099454 
L 263.847929 60.537239 
L 264.933731 60.737632 
L 267.105333 60.715366 
L 268.191134 60.476007 
L 269.276935 59.802463 
L 270.362736 59.802463 
L 271.448538 60.002856 
L 272.534339 59.384976 
L 273.62014 59.546405 
L 274.705941 59.58537 
L 275.791742 59.457341 
L 276.877543 58.945224 
L 277.963344 59.251381 
L 279.049146 58.605669 
L 280.134947 58.989756 
L 281.220748 58.705865 
L 282.306549 58.611235 
L 283.39235 58.06572 
L 285.563953 58.149217 
L 287.735555 57.603701 
L 288.821356 57.737297 
L 289.907157 57.420007 
L 293.164561 57.074885 
L 295.336163 57.024787 
L 297.507765 56.551636 
L 298.593566 56.51267 
L 299.679368 56.078485 
L 300.765169 56.468139 
L 301.85097 55.978288 
L 304.022572 56.033953 
L 305.108373 55.699964 
L 306.194175 55.855825 
L 307.279976 55.844692 
L 310.537379 55.31031 
L 313.794783 55.143315 
L 315.966385 54.965188 
L 317.052186 55.143315 
L 320.30959 54.531002 
L 321.395391 54.88169 
L 322.481192 54.497603 
L 324.652794 54.542135 
L 325.738595 54.291643 
L 327.910198 54.291643 
L 330.0818 54.119082 
L 334.425005 54.163614 
L 336.596607 53.957654 
L 338.768209 53.968787 
L 339.85401 53.796226 
L 342.025613 53.929822 
L 344.197215 53.824058 
L 345.283016 53.935388 
L 346.368817 53.746128 
L 350.712022 53.729428 
L 352.883624 53.668197 
L 357.226829 53.696029 
L 359.398431 53.657064 
L 371.342244 53.66263 
L 373.513846 53.812925 
L 375.685448 53.729428 
L 376.77125 53.857457 
L 377.857051 53.718295 
L 378.942852 53.77396 
L 380.028653 53.718295 
L 382.200255 53.86859 
L 383.286057 53.701596 
L 384.371858 53.785093 
L 386.54346 53.751694 
L 391.972466 53.75726 
L 393.058267 53.634798 
L 394.144068 53.840758 
L 395.229869 53.729428 
L 397.401472 53.918689 
L 398.487273 53.729428 
L 398.487273 53.729428 
" clip-path="url(#pb3863fd960)" style="fill: none; stroke: #1f77b4; stroke-width: 1.5; stroke-linecap: square"/>
   </g>
   <g id="line2d_17">
    <path d="M 73.832727 284.810907 
L 74.918528 237.774111 
L 76.00433 227.698774 
L 77.090131 215.981323 
L 78.175932 201.70329 
L 79.261733 188.95604 
L 80.347534 171.282452 
L 81.433335 171.672105 
L 82.519137 165.354145 
L 83.604938 160.761795 
L 84.690739 158.117715 
L 85.77654 153.636695 
L 86.862341 149.795821 
L 87.948142 143.58919 
L 89.033943 140.332797 
L 90.119745 136.436257 
L 91.205546 135.740447 
L 92.291347 132.873707 
L 94.462949 131.649081 
L 95.54875 173.119391 
L 96.634552 166.690102 
L 97.720353 166.161286 
L 98.806154 165.799464 
L 99.891955 161.04012 
L 100.977756 161.234947 
L 102.063557 158.590866 
L 103.149358 152.217241 
L 104.23516 146.706422 
L 106.406762 146.177606 
L 107.492563 145.676622 
L 108.578364 139.664819 
L 109.664165 135.267296 
L 110.749967 138.523689 
L 111.835768 136.074436 
L 112.921569 138.802013 
L 114.00737 132.400556 
L 115.093171 132.094399 
L 116.178972 131.537751 
L 117.264773 129.11633 
L 118.350575 127.195893 
L 119.436376 124.329153 
L 120.522177 127.474217 
L 121.607978 124.941467 
L 122.693779 123.577678 
L 123.77958 121.184089 
L 124.865382 122.074727 
L 125.951183 120.098625 
L 127.036984 119.959463 
L 128.122785 119.068825 
L 129.208586 117.788534 
L 130.294387 117.120556 
L 131.380189 117.844199 
L 132.46599 116.174253 
L 133.551791 116.619572 
L 134.637592 116.563907 
L 136.809194 115.701102 
L 137.894995 116.229918 
L 138.980797 146.038443 
L 140.066598 145.676622 
L 141.152399 141.75225 
L 142.2382 140.165802 
L 144.409802 139.442159 
L 145.495604 138.662851 
L 146.581405 135.100301 
L 147.667206 136.491922 
L 148.753007 138.885511 
L 149.838808 136.297095 
L 150.924609 134.73848 
L 152.01041 136.770246 
L 153.096212 135.851777 
L 154.182013 134.209664 
L 155.267814 131.426421 
L 156.353615 134.794144 
L 157.439416 130.84194 
L 158.525217 128.504017 
L 159.611019 129.422487 
L 160.69682 131.732578 
L 161.782621 130.84194 
L 162.868422 129.283325 
L 163.954223 130.006968 
L 165.040024 130.95327 
L 166.125825 128.030866 
L 167.211627 129.784308 
L 168.297428 128.030866 
L 169.383229 125.859937 
L 170.46903 122.742705 
L 171.554831 125.999099 
L 172.640632 125.55378 
L 173.726434 123.744672 
L 174.812235 122.492213 
L 175.898036 122.158224 
L 176.983837 123.410683 
L 178.069638 120.516111 
L 179.155439 123.048862 
L 180.24124 120.96143 
L 181.327042 119.430647 
L 182.412843 119.374982 
L 183.498644 120.15429 
L 184.584445 118.039026 
L 185.670246 118.428679 
L 186.756047 117.092723 
L 187.841849 117.872031 
L 188.92765 115.868097 
L 190.013451 117.315383 
L 191.099252 115.005291 
L 192.185053 113.808497 
L 193.270854 115.895929 
L 194.356656 113.335346 
L 195.442457 113.975492 
L 196.528258 113.808497 
L 197.614059 113.391011 
L 198.69986 112.723033 
L 199.785661 112.361211 
L 200.871462 112.277714 
L 201.957264 112.80653 
L 204.128866 111.804563 
L 206.300468 111.136585 
L 207.386269 110.468606 
L 208.472071 110.357277 
L 209.557872 111.387076 
L 210.643673 110.802595 
L 211.729474 110.886093 
L 212.815275 110.357277 
L 213.901076 110.579936 
L 214.986877 110.941758 
L 216.072679 110.218115 
L 217.15848 110.719098 
L 218.244281 109.856293 
L 219.330082 110.301612 
L 220.415883 109.856293 
L 221.501684 109.884125 
L 222.587486 110.385109 
L 223.673287 110.218115 
L 224.759088 110.273779 
L 225.844889 135.851777 
L 226.93069 136.742414 
L 228.016491 136.603252 
L 230.188094 135.768279 
L 231.273895 136.909409 
L 232.359696 136.074436 
L 233.445497 130.702778 
L 234.531298 136.853744 
L 235.617099 135.211631 
L 236.702901 136.074436 
L 237.788702 136.24143 
L 238.874503 138.857678 
L 239.960304 133.541685 
L 241.046105 133.263361 
L 242.131906 134.098334 
L 243.217708 136.965073 
L 244.303509 139.136002 
L 245.38931 129.032833 
L 246.475111 130.452286 
L 247.560912 131.370756 
L 248.646713 131.704745 
L 249.732514 133.82001 
L 250.818316 132.762378 
L 251.904117 135.768279 
L 252.989918 129.199827 
L 254.075719 136.380593 
L 255.16152 131.704745 
L 257.333123 126.193926 
L 258.418924 132.511886 
L 259.504725 129.867805 
L 260.590526 130.006968 
L 261.676327 127.613379 
L 262.762128 135.044636 
L 263.847929 128.949336 
L 264.933731 130.201795 
L 266.019532 129.005 
L 267.105333 128.114363 
L 268.191134 131.899572 
L 269.276935 125.581612 
L 270.362736 128.754509 
L 271.448538 125.108461 
L 272.534339 127.39072 
L 273.62014 126.973233 
L 274.705941 126.277423 
L 275.791742 127.140228 
L 276.877543 127.140228 
L 277.963344 128.170028 
L 279.049146 125.358953 
L 280.134947 123.856002 
L 281.220748 127.724709 
L 282.306549 123.744672 
L 283.39235 125.191958 
L 284.478151 124.273488 
L 285.563953 127.50205 
L 286.649754 122.547878 
L 287.735555 124.579645 
L 288.821356 121.712905 
L 289.907157 123.076694 
L 290.992958 124.997131 
L 292.07876 123.355018 
L 293.164561 123.160191 
L 294.250362 123.522013 
L 295.336163 125.720774 
L 296.421964 121.545911 
L 297.507765 121.462414 
L 298.593566 121.518078 
L 299.679368 121.963397 
L 300.765169 120.293452 
L 301.85097 119.987295 
L 302.936771 120.627441 
L 304.022572 118.289517 
L 305.108373 120.794435 
L 306.194175 118.734836 
L 307.279976 118.734836 
L 308.365777 119.569809 
L 309.451578 118.734836 
L 310.537379 118.901831 
L 311.62318 117.593707 
L 312.708981 117.009226 
L 313.794783 118.09469 
L 315.966385 116.647404 
L 317.052186 117.037058 
L 318.137987 115.617605 
L 319.223788 114.782632 
L 320.30959 116.48041 
L 321.395391 114.53214 
L 322.481192 115.478443 
L 323.566993 114.448643 
L 324.652794 114.448643 
L 325.738595 114.64347 
L 326.824396 113.224016 
L 327.910198 112.222049 
L 328.995999 114.420811 
L 330.0818 113.864162 
L 331.167601 111.99939 
L 333.339203 113.558005 
L 334.425005 111.88806 
L 335.510806 112.389044 
L 336.596607 111.025255 
L 338.768209 110.468606 
L 339.85401 110.496439 
L 340.939811 111.609736 
L 342.025613 110.524271 
L 343.111414 108.909991 
L 344.197215 110.830428 
L 345.283016 109.271812 
L 346.368817 109.327477 
L 347.454618 109.633634 
L 348.54042 110.134617 
L 349.626221 109.355309 
L 350.712022 109.522304 
L 351.797823 108.548169 
L 352.883624 108.631666 
L 353.969425 109.216147 
L 355.055227 108.21418 
L 356.141028 108.742996 
L 358.31263 107.796694 
L 359.398431 108.631666 
L 360.484232 108.075018 
L 361.570033 108.130683 
L 362.655835 107.880191 
L 363.741636 107.462705 
L 364.827437 107.685364 
L 365.913238 107.351375 
L 366.999039 107.880191 
L 368.08484 107.351375 
L 369.170642 107.824526 
L 370.256443 107.852359 
L 372.428045 110.496439 
L 373.513846 110.301612 
L 374.599647 109.856293 
L 375.685448 108.909991 
L 376.77125 110.691266 
L 377.857051 110.134617 
L 378.942852 110.579936 
L 381.114454 109.076985 
L 382.200255 109.605801 
L 383.286057 109.744963 
L 384.371858 110.245947 
L 385.457659 110.078952 
L 386.54346 110.412942 
L 387.629261 109.271812 
L 388.715062 109.856293 
L 389.800863 109.772796 
L 390.886665 109.93979 
L 391.972466 110.273779 
L 393.058267 109.856293 
L 394.144068 110.245947 
L 396.31567 109.438807 
L 397.401472 110.607769 
L 398.487273 111.247914 
L 398.487273 111.247914 
" clip-path="url(#pb3863fd960)" style="fill: none; stroke: #ff7f0e; stroke-width: 1.5; stroke-linecap: square"/>
   </g>
   <g id="line2d_18">
    <path d="M 73.832727 295.488 
L 74.918528 271.532921 
L 76.00433 269.171964 
L 77.090131 260.745458 
L 78.175932 256.100322 
L 79.261733 242.568006 
L 80.347534 236.176146 
L 81.433335 239.919127 
L 82.519137 231.396647 
L 83.604938 230.264155 
L 84.690739 228.901326 
L 85.77654 225.772578 
L 86.862341 225.17754 
L 87.948142 220.628378 
L 89.033943 218.267421 
L 90.119745 214.946725 
L 91.205546 213.391948 
L 92.291347 213.737454 
L 93.377148 211.971535 
L 94.462949 211.54925 
L 95.54875 239.055362 
L 96.634552 238.421935 
L 97.720353 238.038039 
L 98.806154 239.324089 
L 99.891955 230.590467 
L 100.977756 233.719215 
L 102.063557 232.778671 
L 103.149358 227.250576 
L 104.23516 224.141022 
L 105.320961 223.258063 
L 106.406762 227.538497 
L 107.492563 223.89149 
L 108.578364 219.265549 
L 109.664165 217.211709 
L 110.749967 217.230903 
L 111.835768 217.921915 
L 112.921569 219.764614 
L 114.00737 215.656932 
L 115.093171 213.756649 
L 116.178972 214.198129 
L 117.264773 211.299718 
L 118.350575 209.629773 
L 119.436376 207.383984 
L 120.522177 209.169098 
L 121.607978 208.036606 
L 122.693779 206.44344 
L 123.77958 206.750556 
L 124.865382 205.579675 
L 125.951183 204.71591 
L 127.036984 204.140067 
L 128.122785 202.777238 
L 130.294387 202.009447 
L 131.380189 201.951863 
L 132.46599 201.088098 
L 133.551791 200.704202 
L 134.637592 201.222461 
L 135.723393 200.358696 
L 136.809194 201.107293 
L 137.894995 200.85776 
L 138.980797 222.24074 
L 140.066598 228.248704 
L 141.152399 225.676604 
L 142.2382 217.864331 
L 143.324001 219.611055 
L 144.409802 218.900849 
L 145.495604 214.601219 
L 147.667206 217.192514 
L 148.753007 222.279129 
L 149.838808 216.904592 
L 150.924609 220.494015 
L 152.01041 221.31939 
L 153.096212 217.518825 
L 154.182013 215.906464 
L 155.267814 214.773972 
L 156.353615 218.632122 
L 157.439416 212.547378 
L 158.525217 209.936889 
L 159.611019 214.582024 
L 160.69682 212.317041 
L 161.782621 215.426594 
L 162.868422 212.912079 
L 165.040024 217.269293 
L 166.125825 209.764136 
L 167.211627 212.79691 
L 168.297428 212.547378 
L 169.383229 212.163483 
L 170.46903 207.710295 
L 171.554831 212.009925 
L 172.640632 209.706552 
L 173.726434 207.825464 
L 174.812235 207.057673 
L 175.898036 205.541285 
L 176.983837 205.291753 
L 178.069638 205.445312 
L 179.155439 210.167226 
L 180.24124 205.406922 
L 181.327042 204.063288 
L 182.412843 201.721525 
L 183.498644 202.777238 
L 184.584445 203.353081 
L 185.670246 203.314692 
L 186.756047 206.501024 
L 187.841849 202.662069 
L 188.92765 199.955606 
L 190.013451 200.876955 
L 191.099252 198.938283 
L 192.185053 197.824986 
L 193.270854 198.688751 
L 194.356656 198.496803 
L 195.442457 197.613844 
L 196.528258 196.039872 
L 197.614059 196.807663 
L 198.69986 196.577326 
L 200.871462 195.579197 
L 201.957264 196.999611 
L 203.043065 195.291276 
L 204.128866 194.408316 
L 205.214667 194.830601 
L 206.300468 193.794083 
L 207.386269 194.677043 
L 208.472071 193.832473 
L 209.557872 194.350732 
L 211.729474 193.333409 
L 212.815275 194.120395 
L 213.901076 193.563746 
L 214.986877 193.794083 
L 216.072679 194.235563 
L 217.15848 193.333409 
L 218.244281 193.103071 
L 220.415883 193.122266 
L 221.501684 193.141461 
L 222.587486 193.007098 
L 223.673287 193.352604 
L 224.759088 193.410188 
L 225.844889 222.010402 
L 226.93069 218.305811 
L 228.016491 223.641958 
L 229.102292 221.127443 
L 230.188094 219.476692 
L 231.273895 213.027248 
L 232.359696 222.413493 
L 233.445497 212.297846 
L 234.531298 219.303939 
L 235.617099 218.325005 
L 236.702901 216.789424 
L 237.788702 218.593732 
L 238.874503 217.633994 
L 239.960304 213.180806 
L 241.046105 217.019761 
L 242.131906 217.672383 
L 243.217708 218.497758 
L 244.303509 222.874167 
L 245.38931 212.297846 
L 246.475111 214.850751 
L 247.560912 213.910207 
L 248.646713 216.021633 
L 249.732514 216.117606 
L 250.818316 213.411143 
L 251.904117 218.536148 
L 252.989918 212.355431 
L 254.075719 220.225288 
L 255.16152 213.910207 
L 256.247321 214.793167 
L 257.333123 210.109642 
L 258.418924 220.685963 
L 259.504725 213.910207 
L 260.590526 211.011796 
L 261.676327 213.180806 
L 262.762128 215.599347 
L 263.847929 212.969663 
L 264.933731 212.029119 
L 266.019532 212.777716 
L 267.105333 213.104027 
L 268.191134 219.016017 
L 269.276935 209.303461 
L 270.362736 213.564701 
L 271.448538 207.844658 
L 272.534339 213.775844 
L 273.62014 208.190164 
L 274.705941 210.954212 
L 275.791742 211.645224 
L 276.877543 211.683613 
L 277.963344 211.203744 
L 279.049146 209.284267 
L 280.134947 207.595126 
L 281.220748 212.297846 
L 282.306549 210.570316 
L 283.39235 209.092319 
L 284.478151 209.802525 
L 285.563953 208.919566 
L 286.649754 202.911601 
L 287.735555 207.230426 
L 288.821356 204.159262 
L 289.907157 207.307205 
L 290.992958 207.211231 
L 292.07876 204.7543 
L 293.164561 203.948119 
L 294.250362 208.228554 
L 295.336163 209.648967 
L 296.421964 202.316563 
L 297.507765 203.045965 
L 298.593566 206.04035 
L 299.679368 206.097934 
L 300.765169 206.769751 
L 301.85097 207.172841 
L 302.936771 204.255236 
L 304.022572 202.1822 
L 305.108373 203.084354 
L 306.194175 205.368533 
L 307.279976 202.335758 
L 308.365777 205.349338 
L 309.451578 201.145682 
L 310.537379 202.047836 
L 311.62318 201.491188 
L 312.708981 200.723397 
L 313.794783 197.47948 
L 314.880584 200.723397 
L 315.966385 200.01319 
L 317.052186 199.744464 
L 318.137987 197.421896 
L 319.223788 199.130231 
L 320.30959 200.377891 
L 321.395391 199.072646 
L 322.481192 199.322178 
L 323.566993 199.974801 
L 324.652794 197.07639 
L 325.738595 198.707946 
L 327.910198 194.849796 
L 328.995999 199.072646 
L 330.0818 196.097456 
L 331.167601 197.172364 
L 332.253402 196.174235 
L 333.339203 196.289404 
L 334.425005 195.34886 
L 335.510806 193.141461 
L 336.596607 197.690623 
L 337.682408 193.199045 
L 338.768209 195.34886 
L 339.85401 192.891929 
L 340.939811 193.544551 
L 342.025613 193.045487 
L 343.111414 192.738371 
L 344.197215 193.774889 
L 345.283016 192.834345 
L 346.368817 190.857283 
L 347.454618 192.431254 
L 348.54042 192.853539 
L 349.626221 193.870862 
L 350.712022 194.273953 
L 351.797823 193.851668 
L 352.883624 190.68453 
L 353.969425 191.625074 
L 355.055227 192.047359 
L 356.141028 191.644269 
L 357.226829 192.584813 
L 358.31263 192.354475 
L 359.398431 191.586684 
L 360.484232 191.740242 
L 361.570033 191.049231 
L 362.655835 191.12601 
L 363.741636 190.339024 
L 364.827437 191.797827 
L 365.913238 190.492582 
L 368.08484 191.241178 
L 369.170642 189.379285 
L 370.256443 190.991646 
L 371.342244 191.509905 
L 372.428045 194.792212 
L 373.513846 192.277696 
L 374.599647 191.989775 
L 375.685448 192.757566 
L 376.77125 191.394736 
L 377.857051 193.352604 
L 378.942852 196.116651 
L 380.028653 192.911124 
L 381.114454 190.818893 
L 382.200255 194.043615 
L 383.286057 192.37367 
L 384.371858 192.488839 
L 385.457659 193.755694 
L 386.54346 192.77676 
L 387.629261 191.12601 
L 388.715062 191.989775 
L 389.800863 191.202789 
L 391.972466 194.581069 
L 393.058267 191.413931 
L 394.144068 191.893801 
L 395.229869 191.721048 
L 396.31567 194.94577 
L 397.401472 196.538936 
L 398.487273 192.642397 
L 398.487273 192.642397 
" clip-path="url(#pb3863fd960)" style="fill: none; stroke: #2ca02c; stroke-width: 1.5; stroke-linecap: square"/>
   </g>
   <g id="line2d_19">
    <path d="M 368.08484 107.045218 
L 369.170642 107.379207 
L 370.256443 107.351375 
L 371.342244 108.269845 
L 372.428045 109.355309 
L 374.599647 112.194217 
L 376.77125 116.062923 
L 377.857051 119.541976 
L 378.942852 120.182122 
L 380.028653 123.800337 
L 381.114454 122.547878 
L 382.200255 125.44245 
L 383.286057 133.207696 
L 384.371858 136.825911 
L 385.457659 145.203471 
L 386.54346 144.758152 
L 387.629261 152.829555 
L 388.715062 160.01032 
L 389.800863 163.183216 
L 390.886665 170.196987 
L 391.972466 175.930466 
L 393.058267 177.600412 
L 395.229869 193.54839 
L 396.31567 196.41513 
L 397.401472 209.746861 
L 398.487273 216.315313 
L 398.487273 216.315313 
" clip-path="url(#pb3863fd960)" style="fill: none; stroke: #d62728; stroke-width: 1.5; stroke-linecap: square"/>
   </g>
   <g id="line2d_20">
    <path d="M 368.08484 190.319829 
L 369.170642 190.108687 
L 370.256443 188.765052 
L 371.342244 188.726663 
L 373.513846 192.124138 
L 374.599647 191.797827 
L 375.685448 193.275824 
L 376.77125 193.736499 
L 377.857051 197.172364 
L 378.942852 198.842309 
L 380.028653 202.393342 
L 381.114454 200.85776 
L 382.200255 202.62368 
L 383.286057 208.689229 
L 384.371858 213.084832 
L 385.457659 221.876039 
L 386.54346 219.016017 
L 387.629261 225.714994 
L 388.715062 230.68644 
L 389.800863 232.471554 
L 390.886665 235.561913 
L 391.972466 241.224372 
L 393.058267 241.493099 
L 394.144068 246.752467 
L 395.229869 251.340018 
L 396.31567 253.585807 
L 397.401472 260.188809 
L 398.487273 264.219712 
L 398.487273 264.219712 
" clip-path="url(#pb3863fd960)" style="fill: none; stroke: #9467bd; stroke-width: 1.5; stroke-linecap: square"/>
   </g>
   <g id="patch_3">
    <path d="M 57.6 307.584 
L 57.6 41.472 
" style="fill: none; stroke: #000000; stroke-width: 0.8; stroke-linejoin: miter; stroke-linecap: square"/>
   </g>
   <g id="patch_4">
    <path d="M 414.72 307.584 
L 414.72 41.472 
" style="fill: none; stroke: #000000; stroke-width: 0.8; stroke-linejoin: miter; stroke-linecap: square"/>
   </g>
   <g id="patch_5">
    <path d="M 57.6 307.584 
L 414.72 307.584 
" style="fill: none; stroke: #000000; stroke-width: 0.8; stroke-linejoin: miter; stroke-linecap: square"/>
   </g>
   <g id="patch_6">
    <path d="M 57.6 41.472 
L 414.72 41.472 
" style="fill: none; stroke: #000000; stroke-width: 0.8; stroke-linejoin: miter; stroke-linecap: square"/>
   </g>
   <g id="text_18">
    <!-- Learning Curves -->
    <g transform="translate(187.37625 35.472) scale(0.12 -0.12)">
     <defs>
      <path id="DejaVuSans-4c" d="M 628 4666 
L 1259 4666 
L 1259 531 
L 3531 531 
L 3531 0 
L 628 0 
L 628 4666 
z
" transform="scale(0.015625)"/>
      <path id="DejaVuSans-65" d="M 3597 1894 
L 3597 1613 
L 953 1613 
Q 991 1019 1311 708 
Q 1631 397 2203 397 
Q 2534 397 2845 478 
Q 3156 559 3463 722 
L 3463 178 
Q 3153 47 2828 -22 
Q 2503 -91 2169 -91 
Q 1331 -91 842 396 
Q 353 884 353 1716 
Q 353 2575 817 3079 
Q 1281 3584 2069 3584 
Q 2775 3584 3186 3129 
Q 3597 2675 3597 1894 
z
M 3022 2063 
Q 3016 2534 2758 2815 
Q 2500 3097 2075 3097 
Q 1594 3097 1305 2825 
Q 1016 2553 972 2059 
L 3022 2063 
z
" transform="scale(0.015625)"/>
      <path id="DejaVuSans-6e" d="M 3513 2113 
L 3513 0 
L 2938 0 
L 2938 2094 
Q 2938 2591 2744 2837 
Q 2550 3084 2163 3084 
Q 1697 3084 1428 2787 
Q 1159 2491 1159 1978 
L 1159 0 
L 581 0 
L 581 3500 
L 1159 3500 
L 1159 2956 
Q 1366 3272 1645 3428 
Q 1925 3584 2291 3584 
Q 2894 3584 3203 3211 
Q 3513 2838 3513 2113 
z
" transform="scale(0.015625)"/>
      <path id="DejaVuSans-69" d="M 603 3500 
L 1178 3500 
L 1178 0 
L 603 0 
L 603 3500 
z
M 603 4863 
L 1178 4863 
L 1178 4134 
L 603 4134 
L 603 4863 
z
" transform="scale(0.015625)"/>
      <path id="DejaVuSans-67" d="M 2906 1791 
Q 2906 2416 2648 2759 
Q 2391 3103 1925 3103 
Q 1463 3103 1205 2759 
Q 947 2416 947 1791 
Q 947 1169 1205 825 
Q 1463 481 1925 481 
Q 2391 481 2648 825 
Q 2906 1169 2906 1791 
z
M 3481 434 
Q 3481 -459 3084 -895 
Q 2688 -1331 1869 -1331 
Q 1566 -1331 1297 -1286 
Q 1028 -1241 775 -1147 
L 775 -588 
Q 1028 -725 1275 -790 
Q 1522 -856 1778 -856 
Q 2344 -856 2625 -561 
Q 2906 -266 2906 331 
L 2906 616 
Q 2728 306 2450 153 
Q 2172 0 1784 0 
Q 1141 0 747 490 
Q 353 981 353 1791 
Q 353 2603 747 3093 
Q 1141 3584 1784 3584 
Q 2172 3584 2450 3431 
Q 2728 3278 2906 2969 
L 2906 3500 
L 3481 3500 
L 3481 434 
z
" transform="scale(0.015625)"/>
      <path id="DejaVuSans-20" transform="scale(0.015625)"/>
      <path id="DejaVuSans-43" d="M 4122 4306 
L 4122 3641 
Q 3803 3938 3442 4084 
Q 3081 4231 2675 4231 
Q 1875 4231 1450 3742 
Q 1025 3253 1025 2328 
Q 1025 1406 1450 917 
Q 1875 428 2675 428 
Q 3081 428 3442 575 
Q 3803 722 4122 1019 
L 4122 359 
Q 3791 134 3420 21 
Q 3050 -91 2638 -91 
Q 1578 -91 968 557 
Q 359 1206 359 2328 
Q 359 3453 968 4101 
Q 1578 4750 2638 4750 
Q 3056 4750 3426 4639 
Q 3797 4528 4122 4306 
z
" transform="scale(0.015625)"/>
      <path id="DejaVuSans-76" d="M 191 3500 
L 800 3500 
L 1894 563 
L 2988 3500 
L 3597 3500 
L 2284 0 
L 1503 0 
L 191 3500 
z
" transform="scale(0.015625)"/>
     </defs>
     <use xlink:href="#DejaVuSans-4c"/>
     <use xlink:href="#DejaVuSans-65" x="53.962891"/>
     <use xlink:href="#DejaVuSans-61" x="115.486328"/>
     <use xlink:href="#DejaVuSans-72" x="176.765625"/>
     <use xlink:href="#DejaVuSans-6e" x="216.128906"/>
     <use xlink:href="#DejaVuSans-69" x="279.507812"/>
     <use xlink:href="#DejaVuSans-6e" x="307.291016"/>
     <use xlink:href="#DejaVuSans-67" x="370.669922"/>
     <use xlink:href="#DejaVuSans-20" x="434.146484"/>
     <use xlink:href="#DejaVuSans-43" x="465.933594"/>
     <use xlink:href="#DejaVuSans-75" x="535.757812"/>
     <use xlink:href="#DejaVuSans-72" x="599.136719"/>
     <use xlink:href="#DejaVuSans-76" x="640.25"/>
     <use xlink:href="#DejaVuSans-65" x="699.429688"/>
     <use xlink:href="#DejaVuSans-73" x="760.953125"/>
    </g>
   </g>
   <g id="legend_1">
    <g id="patch_7">
     <path d="M 139.394375 302.584 
L 332.925625 302.584 
Q 334.925625 302.584 334.925625 300.584 
L 334.925625 228.193375 
Q 334.925625 226.193375 332.925625 226.193375 
L 139.394375 226.193375 
Q 137.394375 226.193375 137.394375 228.193375 
L 137.394375 300.584 
Q 137.394375 302.584 139.394375 302.584 
z
" style="fill: #ffffff; opacity: 0.8; stroke: #cccccc; stroke-linejoin: miter"/>
    </g>
    <g id="line2d_21">
     <path d="M 141.394375 234.291812 
L 151.394375 234.291812 
L 161.394375 234.291812 
" style="fill: none; stroke: #1f77b4; stroke-width: 1.5; stroke-linecap: square"/>
    </g>
    <g id="text_19">
     <!-- Train Accuracy -->
     <g transform="translate(169.394375 237.791812) scale(0.1 -0.1)">
      <defs>
       <path id="DejaVuSans-54" d="M -19 4666 
L 3928 4666 
L 3928 4134 
L 2272 4134 
L 2272 0 
L 1638 0 
L 1638 4134 
L -19 4134 
L -19 4666 
z
" transform="scale(0.015625)"/>
      </defs>
      <use xlink:href="#DejaVuSans-54"/>
      <use xlink:href="#DejaVuSans-72" x="46.333984"/>
      <use xlink:href="#DejaVuSans-61" x="87.447266"/>
      <use xlink:href="#DejaVuSans-69" x="148.726562"/>
      <use xlink:href="#DejaVuSans-6e" x="176.509766"/>
      <use xlink:href="#DejaVuSans-20" x="239.888672"/>
      <use xlink:href="#DejaVuSans-41" x="271.675781"/>
      <use xlink:href="#DejaVuSans-63" x="338.333984"/>
      <use xlink:href="#DejaVuSans-63" x="393.314453"/>
      <use xlink:href="#DejaVuSans-75" x="448.294922"/>
      <use xlink:href="#DejaVuSans-72" x="511.673828"/>
      <use xlink:href="#DejaVuSans-61" x="552.787109"/>
      <use xlink:href="#DejaVuSans-63" x="614.066406"/>
      <use xlink:href="#DejaVuSans-79" x="669.046875"/>
     </g>
    </g>
    <g id="line2d_22">
     <path d="M 141.394375 248.969937 
L 151.394375 248.969937 
L 161.394375 248.969937 
" style="fill: none; stroke: #ff7f0e; stroke-width: 1.5; stroke-linecap: square"/>
    </g>
    <g id="text_20">
     <!-- Validation Accuracy -->
     <g transform="translate(169.394375 252.469937) scale(0.1 -0.1)">
      <defs>
       <path id="DejaVuSans-56" d="M 1831 0 
L 50 4666 
L 709 4666 
L 2188 738 
L 3669 4666 
L 4325 4666 
L 2547 0 
L 1831 0 
z
" transform="scale(0.015625)"/>
       <path id="DejaVuSans-6c" d="M 603 4863 
L 1178 4863 
L 1178 0 
L 603 0 
L 603 4863 
z
" transform="scale(0.015625)"/>
       <path id="DejaVuSans-64" d="M 2906 2969 
L 2906 4863 
L 3481 4863 
L 3481 0 
L 2906 0 
L 2906 525 
Q 2725 213 2448 61 
Q 2172 -91 1784 -91 
Q 1150 -91 751 415 
Q 353 922 353 1747 
Q 353 2572 751 3078 
Q 1150 3584 1784 3584 
Q 2172 3584 2448 3432 
Q 2725 3281 2906 2969 
z
M 947 1747 
Q 947 1113 1208 752 
Q 1469 391 1925 391 
Q 2381 391 2643 752 
Q 2906 1113 2906 1747 
Q 2906 2381 2643 2742 
Q 2381 3103 1925 3103 
Q 1469 3103 1208 2742 
Q 947 2381 947 1747 
z
" transform="scale(0.015625)"/>
       <path id="DejaVuSans-74" d="M 1172 4494 
L 1172 3500 
L 2356 3500 
L 2356 3053 
L 1172 3053 
L 1172 1153 
Q 1172 725 1289 603 
Q 1406 481 1766 481 
L 2356 481 
L 2356 0 
L 1766 0 
Q 1100 0 847 248 
Q 594 497 594 1153 
L 594 3053 
L 172 3053 
L 172 3500 
L 594 3500 
L 594 4494 
L 1172 4494 
z
" transform="scale(0.015625)"/>
      </defs>
      <use xlink:href="#DejaVuSans-56"/>
      <use xlink:href="#DejaVuSans-61" x="60.658203"/>
      <use xlink:href="#DejaVuSans-6c" x="121.9375"/>
      <use xlink:href="#DejaVuSans-69" x="149.720703"/>
      <use xlink:href="#DejaVuSans-64" x="177.503906"/>
      <use xlink:href="#DejaVuSans-61" x="240.980469"/>
      <use xlink:href="#DejaVuSans-74" x="302.259766"/>
      <use xlink:href="#DejaVuSans-69" x="341.46875"/>
      <use xlink:href="#DejaVuSans-6f" x="369.251953"/>
      <use xlink:href="#DejaVuSans-6e" x="430.433594"/>
      <use xlink:href="#DejaVuSans-20" x="493.8125"/>
      <use xlink:href="#DejaVuSans-41" x="525.599609"/>
      <use xlink:href="#DejaVuSans-63" x="592.257812"/>
      <use xlink:href="#DejaVuSans-63" x="647.238281"/>
      <use xlink:href="#DejaVuSans-75" x="702.21875"/>
      <use xlink:href="#DejaVuSans-72" x="765.597656"/>
      <use xlink:href="#DejaVuSans-61" x="806.710938"/>
      <use xlink:href="#DejaVuSans-63" x="867.990234"/>
      <use xlink:href="#DejaVuSans-79" x="922.970703"/>
     </g>
    </g>
    <g id="line2d_23">
     <path d="M 141.394375 263.648062 
L 151.394375 263.648062 
L 161.394375 263.648062 
" style="fill: none; stroke: #2ca02c; stroke-width: 1.5; stroke-linecap: square"/>
    </g>
    <g id="text_21">
     <!-- Robust Validation Accuracy -->
     <g transform="translate(169.394375 267.148062) scale(0.1 -0.1)">
      <defs>
       <path id="DejaVuSans-52" d="M 2841 2188 
Q 3044 2119 3236 1894 
Q 3428 1669 3622 1275 
L 4263 0 
L 3584 0 
L 2988 1197 
Q 2756 1666 2539 1819 
Q 2322 1972 1947 1972 
L 1259 1972 
L 1259 0 
L 628 0 
L 628 4666 
L 2053 4666 
Q 2853 4666 3247 4331 
Q 3641 3997 3641 3322 
Q 3641 2881 3436 2590 
Q 3231 2300 2841 2188 
z
M 1259 4147 
L 1259 2491 
L 2053 2491 
Q 2509 2491 2742 2702 
Q 2975 2913 2975 3322 
Q 2975 3731 2742 3939 
Q 2509 4147 2053 4147 
L 1259 4147 
z
" transform="scale(0.015625)"/>
       <path id="DejaVuSans-62" d="M 3116 1747 
Q 3116 2381 2855 2742 
Q 2594 3103 2138 3103 
Q 1681 3103 1420 2742 
Q 1159 2381 1159 1747 
Q 1159 1113 1420 752 
Q 1681 391 2138 391 
Q 2594 391 2855 752 
Q 3116 1113 3116 1747 
z
M 1159 2969 
Q 1341 3281 1617 3432 
Q 1894 3584 2278 3584 
Q 2916 3584 3314 3078 
Q 3713 2572 3713 1747 
Q 3713 922 3314 415 
Q 2916 -91 2278 -91 
Q 1894 -91 1617 61 
Q 1341 213 1159 525 
L 1159 0 
L 581 0 
L 581 4863 
L 1159 4863 
L 1159 2969 
z
" transform="scale(0.015625)"/>
      </defs>
      <use xlink:href="#DejaVuSans-52"/>
      <use xlink:href="#DejaVuSans-6f" x="64.982422"/>
      <use xlink:href="#DejaVuSans-62" x="126.164062"/>
      <use xlink:href="#DejaVuSans-75" x="189.640625"/>
      <use xlink:href="#DejaVuSans-73" x="253.019531"/>
      <use xlink:href="#DejaVuSans-74" x="305.119141"/>
      <use xlink:href="#DejaVuSans-20" x="344.328125"/>
      <use xlink:href="#DejaVuSans-56" x="376.115234"/>
      <use xlink:href="#DejaVuSans-61" x="436.773438"/>
      <use xlink:href="#DejaVuSans-6c" x="498.052734"/>
      <use xlink:href="#DejaVuSans-69" x="525.835938"/>
      <use xlink:href="#DejaVuSans-64" x="553.619141"/>
      <use xlink:href="#DejaVuSans-61" x="617.095703"/>
      <use xlink:href="#DejaVuSans-74" x="678.375"/>
      <use xlink:href="#DejaVuSans-69" x="717.583984"/>
      <use xlink:href="#DejaVuSans-6f" x="745.367188"/>
      <use xlink:href="#DejaVuSans-6e" x="806.548828"/>
      <use xlink:href="#DejaVuSans-20" x="869.927734"/>
      <use xlink:href="#DejaVuSans-41" x="901.714844"/>
      <use xlink:href="#DejaVuSans-63" x="968.373047"/>
      <use xlink:href="#DejaVuSans-63" x="1023.353516"/>
      <use xlink:href="#DejaVuSans-75" x="1078.333984"/>
      <use xlink:href="#DejaVuSans-72" x="1141.712891"/>
      <use xlink:href="#DejaVuSans-61" x="1182.826172"/>
      <use xlink:href="#DejaVuSans-63" x="1244.105469"/>
      <use xlink:href="#DejaVuSans-79" x="1299.085938"/>
     </g>
    </g>
    <g id="line2d_24">
     <path d="M 141.394375 278.326188 
L 151.394375 278.326188 
L 161.394375 278.326188 
" style="fill: none; stroke: #d62728; stroke-width: 1.5; stroke-linecap: square"/>
    </g>
    <g id="text_22">
     <!-- SWA Validation Accuracy -->
     <g transform="translate(169.394375 281.826188) scale(0.1 -0.1)">
      <defs>
       <path id="DejaVuSans-53" d="M 3425 4513 
L 3425 3897 
Q 3066 4069 2747 4153 
Q 2428 4238 2131 4238 
Q 1616 4238 1336 4038 
Q 1056 3838 1056 3469 
Q 1056 3159 1242 3001 
Q 1428 2844 1947 2747 
L 2328 2669 
Q 3034 2534 3370 2195 
Q 3706 1856 3706 1288 
Q 3706 609 3251 259 
Q 2797 -91 1919 -91 
Q 1588 -91 1214 -16 
Q 841 59 441 206 
L 441 856 
Q 825 641 1194 531 
Q 1563 422 1919 422 
Q 2459 422 2753 634 
Q 3047 847 3047 1241 
Q 3047 1584 2836 1778 
Q 2625 1972 2144 2069 
L 1759 2144 
Q 1053 2284 737 2584 
Q 422 2884 422 3419 
Q 422 4038 858 4394 
Q 1294 4750 2059 4750 
Q 2388 4750 2728 4690 
Q 3069 4631 3425 4513 
z
" transform="scale(0.015625)"/>
       <path id="DejaVuSans-57" d="M 213 4666 
L 850 4666 
L 1831 722 
L 2809 4666 
L 3519 4666 
L 4500 722 
L 5478 4666 
L 6119 4666 
L 4947 0 
L 4153 0 
L 3169 4050 
L 2175 0 
L 1381 0 
L 213 4666 
z
" transform="scale(0.015625)"/>
      </defs>
      <use xlink:href="#DejaVuSans-53"/>
      <use xlink:href="#DejaVuSans-57" x="63.476562"/>
      <use xlink:href="#DejaVuSans-41" x="156.853516"/>
      <use xlink:href="#DejaVuSans-20" x="225.261719"/>
      <use xlink:href="#DejaVuSans-56" x="257.048828"/>
      <use xlink:href="#DejaVuSans-61" x="317.707031"/>
      <use xlink:href="#DejaVuSans-6c" x="378.986328"/>
      <use xlink:href="#DejaVuSans-69" x="406.769531"/>
      <use xlink:href="#DejaVuSans-64" x="434.552734"/>
      <use xlink:href="#DejaVuSans-61" x="498.029297"/>
      <use xlink:href="#DejaVuSans-74" x="559.308594"/>
      <use xlink:href="#DejaVuSans-69" x="598.517578"/>
      <use xlink:href="#DejaVuSans-6f" x="626.300781"/>
      <use xlink:href="#DejaVuSans-6e" x="687.482422"/>
      <use xlink:href="#DejaVuSans-20" x="750.861328"/>
      <use xlink:href="#DejaVuSans-41" x="782.648438"/>
      <use xlink:href="#DejaVuSans-63" x="849.306641"/>
      <use xlink:href="#DejaVuSans-63" x="904.287109"/>
      <use xlink:href="#DejaVuSans-75" x="959.267578"/>
      <use xlink:href="#DejaVuSans-72" x="1022.646484"/>
      <use xlink:href="#DejaVuSans-61" x="1063.759766"/>
      <use xlink:href="#DejaVuSans-63" x="1125.039062"/>
      <use xlink:href="#DejaVuSans-79" x="1180.019531"/>
     </g>
    </g>
    <g id="line2d_25">
     <path d="M 141.394375 293.004312 
L 151.394375 293.004312 
L 161.394375 293.004312 
" style="fill: none; stroke: #9467bd; stroke-width: 1.5; stroke-linecap: square"/>
    </g>
    <g id="text_23">
     <!-- SWA Robust Validation Accuracy -->
     <g transform="translate(169.394375 296.504312) scale(0.1 -0.1)">
      <use xlink:href="#DejaVuSans-53"/>
      <use xlink:href="#DejaVuSans-57" x="63.476562"/>
      <use xlink:href="#DejaVuSans-41" x="156.853516"/>
      <use xlink:href="#DejaVuSans-20" x="225.261719"/>
      <use xlink:href="#DejaVuSans-52" x="257.048828"/>
      <use xlink:href="#DejaVuSans-6f" x="322.03125"/>
      <use xlink:href="#DejaVuSans-62" x="383.212891"/>
      <use xlink:href="#DejaVuSans-75" x="446.689453"/>
      <use xlink:href="#DejaVuSans-73" x="510.068359"/>
      <use xlink:href="#DejaVuSans-74" x="562.167969"/>
      <use xlink:href="#DejaVuSans-20" x="601.376953"/>
      <use xlink:href="#DejaVuSans-56" x="633.164062"/>
      <use xlink:href="#DejaVuSans-61" x="693.822266"/>
      <use xlink:href="#DejaVuSans-6c" x="755.101562"/>
      <use xlink:href="#DejaVuSans-69" x="782.884766"/>
      <use xlink:href="#DejaVuSans-64" x="810.667969"/>
      <use xlink:href="#DejaVuSans-61" x="874.144531"/>
      <use xlink:href="#DejaVuSans-74" x="935.423828"/>
      <use xlink:href="#DejaVuSans-69" x="974.632812"/>
      <use xlink:href="#DejaVuSans-6f" x="1002.416016"/>
      <use xlink:href="#DejaVuSans-6e" x="1063.597656"/>
      <use xlink:href="#DejaVuSans-20" x="1126.976562"/>
      <use xlink:href="#DejaVuSans-41" x="1158.763672"/>
      <use xlink:href="#DejaVuSans-63" x="1225.421875"/>
      <use xlink:href="#DejaVuSans-63" x="1280.402344"/>
      <use xlink:href="#DejaVuSans-75" x="1335.382812"/>
      <use xlink:href="#DejaVuSans-72" x="1398.761719"/>
      <use xlink:href="#DejaVuSans-61" x="1439.875"/>
      <use xlink:href="#DejaVuSans-63" x="1501.154297"/>
      <use xlink:href="#DejaVuSans-79" x="1556.134766"/>
     </g>
    </g>
   </g>
  </g>
 </g>
 <defs>
  <clipPath id="pb3863fd960">
   <rect x="57.6" y="41.472" width="357.12" height="266.112"/>
  </clipPath>
 </defs>
</svg>
