<?xml version="1.0" encoding="utf-8" standalone="no"?>
<!DOCTYPE svg PUBLIC "-//W3C//DTD SVG 1.1//EN"
  "http://www.w3.org/Graphics/SVG/1.1/DTD/svg11.dtd">
<svg xmlns:xlink="http://www.w3.org/1999/xlink" width="460.8pt" height="345.6pt" viewBox="0 0 460.8 345.6" xmlns="http://www.w3.org/2000/svg" version="1.1">
 <metadata>
  <rdf:RDF xmlns:dc="http://purl.org/dc/elements/1.1/" xmlns:cc="http://creativecommons.org/ns#" xmlns:rdf="http://www.w3.org/1999/02/22-rdf-syntax-ns#">
   <cc:Work>
    <dc:type rdf:resource="http://purl.org/dc/dcmitype/StillImage"/>
    <dc:date>2025-01-19T05:25:27.754842</dc:date>
    <dc:format>image/svg+xml</dc:format>
    <dc:creator>
     <cc:Agent>
      <dc:title>Matplotlib v3.9.1, https://matplotlib.org/</dc:title>
     </cc:Agent>
    </dc:creator>
   </cc:Work>
  </rdf:RDF>
 </metadata>
 <defs>
  <style type="text/css">*{stroke-linejoin: round; stroke-linecap: butt}</style>
 </defs>
 <g id="figure_1">
  <g id="patch_1">
   <path d="M 0 345.6 
L 460.8 345.6 
L 460.8 0 
L 0 0 
z
" style="fill: #ffffff"/>
  </g>
  <g id="axes_1">
   <g id="patch_2">
    <path d="M 57.6 307.584 
L 414.72 307.584 
L 414.72 41.472 
L 57.6 41.472 
z
" style="fill: #ffffff"/>
   </g>
   <g id="matplotlib.axis_1">
    <g id="xtick_1">
     <g id="line2d_1">
      <defs>
       <path id="m488dd32778" d="M 0 0 
L 0 3.5 
" style="stroke: #000000; stroke-width: 0.8"/>
      </defs>
      <g>
       <use xlink:href="#m488dd32778" x="73.832727" y="307.584" style="stroke: #000000; stroke-width: 0.8"/>
      </g>
     </g>
     <g id="text_1">
      <!-- 1 -->
      <g transform="translate(70.651477 322.182437) scale(0.1 -0.1)">
       <defs>
        <path id="DejaVuSans-31" d="M 794 531 
L 1825 531 
L 1825 4091 
L 703 3866 
L 703 4441 
L 1819 4666 
L 2450 4666 
L 2450 531 
L 3481 531 
L 3481 0 
L 794 0 
L 794 531 
z
" transform="scale(0.015625)"/>
       </defs>
       <use xlink:href="#DejaVuSans-31"/>
      </g>
     </g>
    </g>
    <g id="xtick_2">
     <g id="line2d_2">
      <g>
       <use xlink:href="#m488dd32778" x="109.664165" y="307.584" style="stroke: #000000; stroke-width: 0.8"/>
      </g>
     </g>
     <g id="text_2">
      <!-- 34 -->
      <g transform="translate(103.301665 322.182437) scale(0.1 -0.1)">
       <defs>
        <path id="DejaVuSans-33" d="M 2597 2516 
Q 3050 2419 3304 2112 
Q 3559 1806 3559 1356 
Q 3559 666 3084 287 
Q 2609 -91 1734 -91 
Q 1441 -91 1130 -33 
Q 819 25 488 141 
L 488 750 
Q 750 597 1062 519 
Q 1375 441 1716 441 
Q 2309 441 2620 675 
Q 2931 909 2931 1356 
Q 2931 1769 2642 2001 
Q 2353 2234 1838 2234 
L 1294 2234 
L 1294 2753 
L 1863 2753 
Q 2328 2753 2575 2939 
Q 2822 3125 2822 3475 
Q 2822 3834 2567 4026 
Q 2313 4219 1838 4219 
Q 1578 4219 1281 4162 
Q 984 4106 628 3988 
L 628 4550 
Q 988 4650 1302 4700 
Q 1616 4750 1894 4750 
Q 2613 4750 3031 4423 
Q 3450 4097 3450 3541 
Q 3450 3153 3228 2886 
Q 3006 2619 2597 2516 
z
" transform="scale(0.015625)"/>
        <path id="DejaVuSans-34" d="M 2419 4116 
L 825 1625 
L 2419 1625 
L 2419 4116 
z
M 2253 4666 
L 3047 4666 
L 3047 1625 
L 3713 1625 
L 3713 1100 
L 3047 1100 
L 3047 0 
L 2419 0 
L 2419 1100 
L 313 1100 
L 313 1709 
L 2253 4666 
z
" transform="scale(0.015625)"/>
       </defs>
       <use xlink:href="#DejaVuSans-33"/>
       <use xlink:href="#DejaVuSans-34" x="63.623047"/>
      </g>
     </g>
    </g>
    <g id="xtick_3">
     <g id="line2d_3">
      <g>
       <use xlink:href="#m488dd32778" x="145.495604" y="307.584" style="stroke: #000000; stroke-width: 0.8"/>
      </g>
     </g>
     <g id="text_3">
      <!-- 67 -->
      <g transform="translate(139.133104 322.182437) scale(0.1 -0.1)">
       <defs>
        <path id="DejaVuSans-36" d="M 2113 2584 
Q 1688 2584 1439 2293 
Q 1191 2003 1191 1497 
Q 1191 994 1439 701 
Q 1688 409 2113 409 
Q 2538 409 2786 701 
Q 3034 994 3034 1497 
Q 3034 2003 2786 2293 
Q 2538 2584 2113 2584 
z
M 3366 4563 
L 3366 3988 
Q 3128 4100 2886 4159 
Q 2644 4219 2406 4219 
Q 1781 4219 1451 3797 
Q 1122 3375 1075 2522 
Q 1259 2794 1537 2939 
Q 1816 3084 2150 3084 
Q 2853 3084 3261 2657 
Q 3669 2231 3669 1497 
Q 3669 778 3244 343 
Q 2819 -91 2113 -91 
Q 1303 -91 875 529 
Q 447 1150 447 2328 
Q 447 3434 972 4092 
Q 1497 4750 2381 4750 
Q 2619 4750 2861 4703 
Q 3103 4656 3366 4563 
z
" transform="scale(0.015625)"/>
        <path id="DejaVuSans-37" d="M 525 4666 
L 3525 4666 
L 3525 4397 
L 1831 0 
L 1172 0 
L 2766 4134 
L 525 4134 
L 525 4666 
z
" transform="scale(0.015625)"/>
       </defs>
       <use xlink:href="#DejaVuSans-36"/>
       <use xlink:href="#DejaVuSans-37" x="63.623047"/>
      </g>
     </g>
    </g>
    <g id="xtick_4">
     <g id="line2d_4">
      <g>
       <use xlink:href="#m488dd32778" x="181.327042" y="307.584" style="stroke: #000000; stroke-width: 0.8"/>
      </g>
     </g>
     <g id="text_4">
      <!-- 100 -->
      <g transform="translate(171.783292 322.182437) scale(0.1 -0.1)">
       <defs>
        <path id="DejaVuSans-30" d="M 2034 4250 
Q 1547 4250 1301 3770 
Q 1056 3291 1056 2328 
Q 1056 1369 1301 889 
Q 1547 409 2034 409 
Q 2525 409 2770 889 
Q 3016 1369 3016 2328 
Q 3016 3291 2770 3770 
Q 2525 4250 2034 4250 
z
M 2034 4750 
Q 2819 4750 3233 4129 
Q 3647 3509 3647 2328 
Q 3647 1150 3233 529 
Q 2819 -91 2034 -91 
Q 1250 -91 836 529 
Q 422 1150 422 2328 
Q 422 3509 836 4129 
Q 1250 4750 2034 4750 
z
" transform="scale(0.015625)"/>
       </defs>
       <use xlink:href="#DejaVuSans-31"/>
       <use xlink:href="#DejaVuSans-30" x="63.623047"/>
       <use xlink:href="#DejaVuSans-30" x="127.246094"/>
      </g>
     </g>
    </g>
    <g id="xtick_5">
     <g id="line2d_5">
      <g>
       <use xlink:href="#m488dd32778" x="217.15848" y="307.584" style="stroke: #000000; stroke-width: 0.8"/>
      </g>
     </g>
     <g id="text_5">
      <!-- 133 -->
      <g transform="translate(207.61473 322.182437) scale(0.1 -0.1)">
       <use xlink:href="#DejaVuSans-31"/>
       <use xlink:href="#DejaVuSans-33" x="63.623047"/>
       <use xlink:href="#DejaVuSans-33" x="127.246094"/>
      </g>
     </g>
    </g>
    <g id="xtick_6">
     <g id="line2d_6">
      <g>
       <use xlink:href="#m488dd32778" x="254.075719" y="307.584" style="stroke: #000000; stroke-width: 0.8"/>
      </g>
     </g>
     <g id="text_6">
      <!-- 167 -->
      <g transform="translate(244.531969 322.182437) scale(0.1 -0.1)">
       <use xlink:href="#DejaVuSans-31"/>
       <use xlink:href="#DejaVuSans-36" x="63.623047"/>
       <use xlink:href="#DejaVuSans-37" x="127.246094"/>
      </g>
     </g>
    </g>
    <g id="xtick_7">
     <g id="line2d_7">
      <g>
       <use xlink:href="#m488dd32778" x="289.907157" y="307.584" style="stroke: #000000; stroke-width: 0.8"/>
      </g>
     </g>
     <g id="text_7">
      <!-- 200 -->
      <g transform="translate(280.363407 322.182437) scale(0.1 -0.1)">
       <defs>
        <path id="DejaVuSans-32" d="M 1228 531 
L 3431 531 
L 3431 0 
L 469 0 
L 469 531 
Q 828 903 1448 1529 
Q 2069 2156 2228 2338 
Q 2531 2678 2651 2914 
Q 2772 3150 2772 3378 
Q 2772 3750 2511 3984 
Q 2250 4219 1831 4219 
Q 1534 4219 1204 4116 
Q 875 4013 500 3803 
L 500 4441 
Q 881 4594 1212 4672 
Q 1544 4750 1819 4750 
Q 2544 4750 2975 4387 
Q 3406 4025 3406 3419 
Q 3406 3131 3298 2873 
Q 3191 2616 2906 2266 
Q 2828 2175 2409 1742 
Q 1991 1309 1228 531 
z
" transform="scale(0.015625)"/>
       </defs>
       <use xlink:href="#DejaVuSans-32"/>
       <use xlink:href="#DejaVuSans-30" x="63.623047"/>
       <use xlink:href="#DejaVuSans-30" x="127.246094"/>
      </g>
     </g>
    </g>
    <g id="xtick_8">
     <g id="line2d_8">
      <g>
       <use xlink:href="#m488dd32778" x="325.738595" y="307.584" style="stroke: #000000; stroke-width: 0.8"/>
      </g>
     </g>
     <g id="text_8">
      <!-- 233 -->
      <g transform="translate(316.194845 322.182437) scale(0.1 -0.1)">
       <use xlink:href="#DejaVuSans-32"/>
       <use xlink:href="#DejaVuSans-33" x="63.623047"/>
       <use xlink:href="#DejaVuSans-33" x="127.246094"/>
      </g>
     </g>
    </g>
    <g id="xtick_9">
     <g id="line2d_9">
      <g>
       <use xlink:href="#m488dd32778" x="361.570033" y="307.584" style="stroke: #000000; stroke-width: 0.8"/>
      </g>
     </g>
     <g id="text_9">
      <!-- 266 -->
      <g transform="translate(352.026283 322.182437) scale(0.1 -0.1)">
       <use xlink:href="#DejaVuSans-32"/>
       <use xlink:href="#DejaVuSans-36" x="63.623047"/>
       <use xlink:href="#DejaVuSans-36" x="127.246094"/>
      </g>
     </g>
    </g>
    <g id="xtick_10">
     <g id="line2d_10">
      <g>
       <use xlink:href="#m488dd32778" x="398.487273" y="307.584" style="stroke: #000000; stroke-width: 0.8"/>
      </g>
     </g>
     <g id="text_10">
      <!-- 300 -->
      <g transform="translate(388.943523 322.182437) scale(0.1 -0.1)">
       <use xlink:href="#DejaVuSans-33"/>
       <use xlink:href="#DejaVuSans-30" x="63.623047"/>
       <use xlink:href="#DejaVuSans-30" x="127.246094"/>
      </g>
     </g>
    </g>
    <g id="text_11">
     <!-- Epochs -->
     <g transform="translate(218.244375 335.860562) scale(0.1 -0.1)">
      <defs>
       <path id="DejaVuSans-45" d="M 628 4666 
L 3578 4666 
L 3578 4134 
L 1259 4134 
L 1259 2753 
L 3481 2753 
L 3481 2222 
L 1259 2222 
L 1259 531 
L 3634 531 
L 3634 0 
L 628 0 
L 628 4666 
z
" transform="scale(0.015625)"/>
       <path id="DejaVuSans-70" d="M 1159 525 
L 1159 -1331 
L 581 -1331 
L 581 3500 
L 1159 3500 
L 1159 2969 
Q 1341 3281 1617 3432 
Q 1894 3584 2278 3584 
Q 2916 3584 3314 3078 
Q 3713 2572 3713 1747 
Q 3713 922 3314 415 
Q 2916 -91 2278 -91 
Q 1894 -91 1617 61 
Q 1341 213 1159 525 
z
M 3116 1747 
Q 3116 2381 2855 2742 
Q 2594 3103 2138 3103 
Q 1681 3103 1420 2742 
Q 1159 2381 1159 1747 
Q 1159 1113 1420 752 
Q 1681 391 2138 391 
Q 2594 391 2855 752 
Q 3116 1113 3116 1747 
z
" transform="scale(0.015625)"/>
       <path id="DejaVuSans-6f" d="M 1959 3097 
Q 1497 3097 1228 2736 
Q 959 2375 959 1747 
Q 959 1119 1226 758 
Q 1494 397 1959 397 
Q 2419 397 2687 759 
Q 2956 1122 2956 1747 
Q 2956 2369 2687 2733 
Q 2419 3097 1959 3097 
z
M 1959 3584 
Q 2709 3584 3137 3096 
Q 3566 2609 3566 1747 
Q 3566 888 3137 398 
Q 2709 -91 1959 -91 
Q 1206 -91 779 398 
Q 353 888 353 1747 
Q 353 2609 779 3096 
Q 1206 3584 1959 3584 
z
" transform="scale(0.015625)"/>
       <path id="DejaVuSans-63" d="M 3122 3366 
L 3122 2828 
Q 2878 2963 2633 3030 
Q 2388 3097 2138 3097 
Q 1578 3097 1268 2742 
Q 959 2388 959 1747 
Q 959 1106 1268 751 
Q 1578 397 2138 397 
Q 2388 397 2633 464 
Q 2878 531 3122 666 
L 3122 134 
Q 2881 22 2623 -34 
Q 2366 -91 2075 -91 
Q 1284 -91 818 406 
Q 353 903 353 1747 
Q 353 2603 823 3093 
Q 1294 3584 2113 3584 
Q 2378 3584 2631 3529 
Q 2884 3475 3122 3366 
z
" transform="scale(0.015625)"/>
       <path id="DejaVuSans-68" d="M 3513 2113 
L 3513 0 
L 2938 0 
L 2938 2094 
Q 2938 2591 2744 2837 
Q 2550 3084 2163 3084 
Q 1697 3084 1428 2787 
Q 1159 2491 1159 1978 
L 1159 0 
L 581 0 
L 581 4863 
L 1159 4863 
L 1159 2956 
Q 1366 3272 1645 3428 
Q 1925 3584 2291 3584 
Q 2894 3584 3203 3211 
Q 3513 2838 3513 2113 
z
" transform="scale(0.015625)"/>
       <path id="DejaVuSans-73" d="M 2834 3397 
L 2834 2853 
Q 2591 2978 2328 3040 
Q 2066 3103 1784 3103 
Q 1356 3103 1142 2972 
Q 928 2841 928 2578 
Q 928 2378 1081 2264 
Q 1234 2150 1697 2047 
L 1894 2003 
Q 2506 1872 2764 1633 
Q 3022 1394 3022 966 
Q 3022 478 2636 193 
Q 2250 -91 1575 -91 
Q 1294 -91 989 -36 
Q 684 19 347 128 
L 347 722 
Q 666 556 975 473 
Q 1284 391 1588 391 
Q 1994 391 2212 530 
Q 2431 669 2431 922 
Q 2431 1156 2273 1281 
Q 2116 1406 1581 1522 
L 1381 1569 
Q 847 1681 609 1914 
Q 372 2147 372 2553 
Q 372 3047 722 3315 
Q 1072 3584 1716 3584 
Q 2034 3584 2315 3537 
Q 2597 3491 2834 3397 
z
" transform="scale(0.015625)"/>
      </defs>
      <use xlink:href="#DejaVuSans-45"/>
      <use xlink:href="#DejaVuSans-70" x="63.183594"/>
      <use xlink:href="#DejaVuSans-6f" x="126.660156"/>
      <use xlink:href="#DejaVuSans-63" x="187.841797"/>
      <use xlink:href="#DejaVuSans-68" x="242.822266"/>
      <use xlink:href="#DejaVuSans-73" x="306.201172"/>
     </g>
    </g>
   </g>
   <g id="matplotlib.axis_2">
    <g id="ytick_1">
     <g id="line2d_11">
      <defs>
       <path id="m280c524b1c" d="M 0 0 
L -3.5 0 
" style="stroke: #000000; stroke-width: 0.8"/>
      </defs>
      <g>
       <use xlink:href="#m280c524b1c" x="57.6" y="255.795762" style="stroke: #000000; stroke-width: 0.8"/>
      </g>
     </g>
     <g id="text_12">
      <!-- 20 -->
      <g transform="translate(37.875 259.594981) scale(0.1 -0.1)">
       <use xlink:href="#DejaVuSans-32"/>
       <use xlink:href="#DejaVuSans-30" x="63.623047"/>
      </g>
     </g>
    </g>
    <g id="ytick_2">
     <g id="line2d_12">
      <g>
       <use xlink:href="#m280c524b1c" x="57.6" y="196.735994" style="stroke: #000000; stroke-width: 0.8"/>
      </g>
     </g>
     <g id="text_13">
      <!-- 40 -->
      <g transform="translate(37.875 200.535212) scale(0.1 -0.1)">
       <use xlink:href="#DejaVuSans-34"/>
       <use xlink:href="#DejaVuSans-30" x="63.623047"/>
      </g>
     </g>
    </g>
    <g id="ytick_3">
     <g id="line2d_13">
      <g>
       <use xlink:href="#m280c524b1c" x="57.6" y="137.676225" style="stroke: #000000; stroke-width: 0.8"/>
      </g>
     </g>
     <g id="text_14">
      <!-- 60 -->
      <g transform="translate(37.875 141.475444) scale(0.1 -0.1)">
       <use xlink:href="#DejaVuSans-36"/>
       <use xlink:href="#DejaVuSans-30" x="63.623047"/>
      </g>
     </g>
    </g>
    <g id="ytick_4">
     <g id="line2d_14">
      <g>
       <use xlink:href="#m280c524b1c" x="57.6" y="78.616456" style="stroke: #000000; stroke-width: 0.8"/>
      </g>
     </g>
     <g id="text_15">
      <!-- 80 -->
      <g transform="translate(37.875 82.415675) scale(0.1 -0.1)">
       <defs>
        <path id="DejaVuSans-38" d="M 2034 2216 
Q 1584 2216 1326 1975 
Q 1069 1734 1069 1313 
Q 1069 891 1326 650 
Q 1584 409 2034 409 
Q 2484 409 2743 651 
Q 3003 894 3003 1313 
Q 3003 1734 2745 1975 
Q 2488 2216 2034 2216 
z
M 1403 2484 
Q 997 2584 770 2862 
Q 544 3141 544 3541 
Q 544 4100 942 4425 
Q 1341 4750 2034 4750 
Q 2731 4750 3128 4425 
Q 3525 4100 3525 3541 
Q 3525 3141 3298 2862 
Q 3072 2584 2669 2484 
Q 3125 2378 3379 2068 
Q 3634 1759 3634 1313 
Q 3634 634 3220 271 
Q 2806 -91 2034 -91 
Q 1263 -91 848 271 
Q 434 634 434 1313 
Q 434 1759 690 2068 
Q 947 2378 1403 2484 
z
M 1172 3481 
Q 1172 3119 1398 2916 
Q 1625 2713 2034 2713 
Q 2441 2713 2670 2916 
Q 2900 3119 2900 3481 
Q 2900 3844 2670 4047 
Q 2441 4250 2034 4250 
Q 1625 4250 1398 4047 
Q 1172 3844 1172 3481 
z
" transform="scale(0.015625)"/>
       </defs>
       <use xlink:href="#DejaVuSans-38"/>
       <use xlink:href="#DejaVuSans-30" x="63.623047"/>
      </g>
     </g>
    </g>
    <g id="text_16">
     <!-- Accuracy -->
     <g transform="translate(31.795312 197.356125) rotate(-90) scale(0.1 -0.1)">
      <defs>
       <path id="DejaVuSans-41" d="M 2188 4044 
L 1331 1722 
L 3047 1722 
L 2188 4044 
z
M 1831 4666 
L 2547 4666 
L 4325 0 
L 3669 0 
L 3244 1197 
L 1141 1197 
L 716 0 
L 50 0 
L 1831 4666 
z
" transform="scale(0.015625)"/>
       <path id="DejaVuSans-75" d="M 544 1381 
L 544 3500 
L 1119 3500 
L 1119 1403 
Q 1119 906 1312 657 
Q 1506 409 1894 409 
Q 2359 409 2629 706 
Q 2900 1003 2900 1516 
L 2900 3500 
L 3475 3500 
L 3475 0 
L 2900 0 
L 2900 538 
Q 2691 219 2414 64 
Q 2138 -91 1772 -91 
Q 1169 -91 856 284 
Q 544 659 544 1381 
z
M 1991 3584 
L 1991 3584 
z
" transform="scale(0.015625)"/>
       <path id="DejaVuSans-72" d="M 2631 2963 
Q 2534 3019 2420 3045 
Q 2306 3072 2169 3072 
Q 1681 3072 1420 2755 
Q 1159 2438 1159 1844 
L 1159 0 
L 581 0 
L 581 3500 
L 1159 3500 
L 1159 2956 
Q 1341 3275 1631 3429 
Q 1922 3584 2338 3584 
Q 2397 3584 2469 3576 
Q 2541 3569 2628 3553 
L 2631 2963 
z
" transform="scale(0.015625)"/>
       <path id="DejaVuSans-61" d="M 2194 1759 
Q 1497 1759 1228 1600 
Q 959 1441 959 1056 
Q 959 750 1161 570 
Q 1363 391 1709 391 
Q 2188 391 2477 730 
Q 2766 1069 2766 1631 
L 2766 1759 
L 2194 1759 
z
M 3341 1997 
L 3341 0 
L 2766 0 
L 2766 531 
Q 2569 213 2275 61 
Q 1981 -91 1556 -91 
Q 1019 -91 701 211 
Q 384 513 384 1019 
Q 384 1609 779 1909 
Q 1175 2209 1959 2209 
L 2766 2209 
L 2766 2266 
Q 2766 2663 2505 2880 
Q 2244 3097 1772 3097 
Q 1472 3097 1187 3025 
Q 903 2953 641 2809 
L 641 3341 
Q 956 3463 1253 3523 
Q 1550 3584 1831 3584 
Q 2591 3584 2966 3190 
Q 3341 2797 3341 1997 
z
" transform="scale(0.015625)"/>
       <path id="DejaVuSans-79" d="M 2059 -325 
Q 1816 -950 1584 -1140 
Q 1353 -1331 966 -1331 
L 506 -1331 
L 506 -850 
L 844 -850 
Q 1081 -850 1212 -737 
Q 1344 -625 1503 -206 
L 1606 56 
L 191 3500 
L 800 3500 
L 1894 763 
L 2988 3500 
L 3597 3500 
L 2059 -325 
z
" transform="scale(0.015625)"/>
      </defs>
      <use xlink:href="#DejaVuSans-41"/>
      <use xlink:href="#DejaVuSans-63" x="66.658203"/>
      <use xlink:href="#DejaVuSans-63" x="121.638672"/>
      <use xlink:href="#DejaVuSans-75" x="176.619141"/>
      <use xlink:href="#DejaVuSans-72" x="239.998047"/>
      <use xlink:href="#DejaVuSans-61" x="281.111328"/>
      <use xlink:href="#DejaVuSans-63" x="342.390625"/>
      <use xlink:href="#DejaVuSans-79" x="397.371094"/>
     </g>
    </g>
   </g>
   <g id="line2d_15">
    <path d="M 73.832727 288.185151 
L 74.918528 253.558892 
L 76.00433 230.870887 
L 77.090131 214.91478 
L 78.175932 202.946961 
L 80.347534 185.539224 
L 82.519137 172.447943 
L 84.690739 160.352996 
L 85.77654 154.963338 
L 87.948142 145.789389 
L 89.033943 141.419716 
L 90.119745 138.418892 
L 91.205546 134.270955 
L 94.462949 129.673633 
L 95.54875 162.316096 
L 96.634552 161.615411 
L 97.720353 159.273881 
L 98.806154 155.03725 
L 100.977756 149.310554 
L 102.063557 147.643101 
L 104.23516 141.795189 
L 105.320961 140.624424 
L 106.406762 138.214895 
L 107.492563 134.956857 
L 108.578364 133.082451 
L 109.664165 130.80892 
L 110.749967 129.162162 
L 111.835768 126.610723 
L 114.00737 122.223311 
L 115.093171 120.765767 
L 116.178972 117.667379 
L 117.264773 115.742713 
L 118.350575 113.575615 
L 119.436376 112.475806 
L 120.522177 109.13203 
L 121.607978 107.633096 
L 123.77958 103.09786 
L 124.865382 101.610752 
L 125.951183 99.700868 
L 127.036984 97.226297 
L 128.122785 96.185617 
L 129.208586 93.533657 
L 130.294387 91.434558 
L 131.380189 90.597875 
L 134.637592 87.262969 
L 135.723393 86.789933 
L 136.809194 86.46472 
L 137.894995 85.926642 
L 138.980797 126.776285 
L 140.066598 129.398681 
L 141.152399 129.691372 
L 143.324001 126.761503 
L 144.409802 125.921863 
L 145.495604 124.417017 
L 146.581405 123.878938 
L 148.753007 121.877403 
L 149.838808 121.504887 
L 150.924609 119.346658 
L 152.01041 119.547699 
L 153.096212 118.32963 
L 154.182013 116.919391 
L 156.353615 115.68654 
L 157.439416 114.58673 
L 158.525217 113.826916 
L 159.611019 113.277011 
L 160.69682 111.828337 
L 162.868422 109.566632 
L 163.954223 109.223681 
L 165.040024 107.798659 
L 166.125825 107.304927 
L 167.211627 106.299725 
L 170.46903 103.82811 
L 171.554831 102.012833 
L 172.640632 101.028327 
L 173.726434 100.942589 
L 174.812235 99.691999 
L 178.069638 96.623176 
L 179.155439 95.124242 
L 180.24124 94.612771 
L 181.327042 93.226183 
L 182.412843 92.24759 
L 184.584445 89.666585 
L 185.670246 89.143289 
L 186.756047 87.280708 
L 187.841849 87.118102 
L 188.92765 85.500909 
L 190.013451 84.758833 
L 191.099252 83.289464 
L 194.356656 79.652997 
L 195.442457 78.760141 
L 196.528258 76.933038 
L 197.614059 76.149572 
L 198.69986 74.916721 
L 200.871462 73.349788 
L 201.957264 72.374151 
L 203.043065 70.656438 
L 205.214667 69.130895 
L 206.300468 67.865523 
L 207.386269 66.34885 
L 208.472071 66.325199 
L 209.557872 64.551312 
L 210.643673 64.11671 
L 211.729474 63.821063 
L 212.815275 63.090813 
L 213.901076 62.221608 
L 214.986877 62.150653 
L 217.15848 60.654676 
L 219.330082 60.060424 
L 220.415883 59.448433 
L 221.501684 60.010164 
L 222.587486 59.0227 
L 223.673287 58.960614 
L 224.759088 59.102525 
L 225.844889 112.224505 
L 226.93069 115.949666 
L 228.016491 115.683583 
L 229.102292 114.468471 
L 230.188094 113.951088 
L 232.359696 112.458067 
L 233.445497 111.914075 
L 234.531298 110.778788 
L 236.702901 110.639833 
L 237.788702 109.480894 
L 238.874503 108.987163 
L 239.960304 108.762471 
L 241.046105 107.653792 
L 242.131906 107.541446 
L 243.217708 106.536243 
L 244.303509 107.062496 
L 245.38931 105.70843 
L 246.475111 105.814863 
L 247.560912 106.296769 
L 248.646713 104.744618 
L 249.732514 105.457129 
L 251.904117 103.502898 
L 254.075719 103.121512 
L 255.16152 101.794054 
L 256.247321 101.900487 
L 257.333123 101.75562 
L 258.418924 101.9064 
L 259.504725 101.190933 
L 260.590526 100.942589 
L 261.676327 101.427451 
L 262.762128 99.946256 
L 263.847929 99.810258 
L 264.933731 100.052689 
L 266.019532 98.698623 
L 267.105333 98.731144 
L 268.191134 98.077762 
L 269.276935 97.9122 
L 270.362736 97.891504 
L 271.448538 96.841955 
L 272.534339 96.286137 
L 273.62014 95.978664 
L 274.705941 96.416222 
L 275.791742 95.416933 
L 276.877543 95.275022 
L 277.963344 95.464237 
L 279.049146 94.382166 
L 280.134947 93.85887 
L 281.220748 94.281646 
L 282.306549 93.158185 
L 283.39235 92.96897 
L 284.478151 91.999246 
L 285.563953 91.804118 
L 286.649754 91.29856 
L 288.821356 90.633353 
L 289.907157 90.739786 
L 290.992958 89.59563 
L 292.07876 89.001378 
L 293.164561 89.181723 
L 295.336163 88.279997 
L 296.421964 87.369402 
L 297.507765 87.437401 
L 298.593566 86.822454 
L 299.679368 86.532719 
L 300.765169 86.006466 
L 301.85097 86.139508 
L 302.936771 84.847527 
L 304.022572 84.776572 
L 305.108373 83.555547 
L 306.194175 83.40181 
L 307.279976 82.970165 
L 308.365777 82.10096 
L 309.451578 82.068439 
L 310.537379 81.148975 
L 312.708981 80.841501 
L 313.794783 79.632302 
L 314.880584 79.141527 
L 315.966385 78.343278 
L 317.052186 78.8784 
L 318.137987 78.204323 
L 319.223788 77.095645 
L 322.481192 75.230108 
L 323.566993 75.348367 
L 324.652794 74.470293 
L 325.738595 74.195341 
L 326.824396 73.133965 
L 327.910198 73.009793 
L 328.995999 72.093285 
L 330.0818 71.841985 
L 333.339203 70.177488 
L 334.425005 69.52115 
L 335.510806 68.433167 
L 336.596607 68.042912 
L 337.682408 67.17962 
L 338.768209 66.8278 
L 339.85401 66.851452 
L 340.939811 66.292677 
L 342.025613 65.302258 
L 343.111414 64.672528 
L 344.197215 64.282273 
L 347.454618 62.741948 
L 348.54042 61.908222 
L 349.626221 61.577096 
L 350.712022 60.267377 
L 351.797823 60.657632 
L 355.055227 59.028613 
L 356.141028 58.490534 
L 357.226829 57.603591 
L 358.31263 57.440985 
L 362.655835 55.055108 
L 363.741636 55.658229 
L 364.827437 54.514073 
L 365.913238 54.242077 
L 366.999039 53.568 
L 368.08484 54.76833 
L 369.170642 55.741011 
L 370.256443 57.432116 
L 371.342244 59.788428 
L 372.428045 60.604415 
L 373.513846 61.745616 
L 374.599647 61.855005 
L 375.685448 61.651008 
L 376.77125 60.784761 
L 377.857051 62.023524 
L 378.942852 61.9437 
L 380.028653 62.088567 
L 381.114454 62.469952 
L 382.200255 62.363519 
L 383.286057 62.132914 
L 384.371858 62.472909 
L 385.457659 62.484735 
L 386.54346 62.848382 
L 387.629261 62.540908 
L 388.715062 61.999873 
L 389.800863 63.005075 
L 390.886665 63.271158 
L 391.972466 62.617776 
L 393.058267 62.877946 
L 394.144068 62.056046 
L 395.229869 61.772224 
L 396.31567 62.644385 
L 397.401472 62.741948 
L 398.487273 62.635515 
L 398.487273 62.635515 
" clip-path="url(#p7d722c6f43)" style="fill: none; stroke: #1f77b4; stroke-width: 1.5; stroke-linecap: square"/>
   </g>
   <g id="line2d_16">
    <path d="M 73.832727 275.049247 
L 74.918528 253.610551 
L 78.175932 217.141144 
L 79.261733 208.577477 
L 80.347534 204.797652 
L 81.433335 193.428647 
L 82.519137 190.711897 
L 83.604938 179.490541 
L 84.690739 173.436915 
L 85.77654 172.757728 
L 86.862341 171.635592 
L 87.948142 165.286667 
L 89.033943 161.8612 
L 90.119745 161.447782 
L 91.205546 155.837104 
L 92.291347 155.482745 
L 93.377148 153.710952 
L 94.462949 153.297534 
L 95.54875 188.792455 
L 96.634552 187.315961 
L 97.720353 174.529521 
L 98.806154 171.547002 
L 99.891955 171.960421 
L 100.977756 170.926875 
L 102.063557 163.012866 
L 103.149358 172.1376 
L 104.23516 164.961838 
L 105.320961 165.847735 
L 106.406762 155.807574 
L 107.492563 155.512275 
L 108.578364 154.006251 
L 109.664165 152.854586 
L 110.749967 150.698904 
L 111.835768 146.7419 
L 112.921569 149.10429 
L 114.00737 145.088226 
L 115.093171 146.151302 
L 116.178972 143.109724 
L 117.264773 141.249341 
L 118.350575 142.578186 
L 119.436376 133.92593 
L 120.522177 134.398408 
L 121.607978 133.217213 
L 122.693779 130.559523 
L 123.77958 129.703156 
L 124.865382 127.606534 
L 125.951183 129.023969 
L 127.036984 124.683076 
L 128.122785 124.417307 
L 129.208586 123.177052 
L 130.294387 123.029402 
L 131.380189 123.413291 
L 132.46599 122.084446 
L 133.551791 122.793163 
L 134.637592 121.818677 
L 135.723393 121.700558 
L 136.809194 120.932781 
L 137.894995 120.548892 
L 138.980797 158.229025 
L 140.066598 159.2921 
L 143.324001 155.216976 
L 144.409802 149.576768 
L 145.495604 146.003652 
L 146.581405 153.327064 
L 147.667206 148.218394 
L 148.753007 150.610314 
L 149.838808 152.145868 
L 150.924609 145.383525 
L 152.01041 147.125788 
L 153.096212 143.611732 
L 154.182013 139.123189 
L 155.267814 150.728434 
L 156.353615 149.399589 
L 157.439416 145.472115 
L 158.525217 144.261389 
L 159.611019 146.800959 
L 160.69682 147.480147 
L 161.782621 140.156735 
L 162.868422 137.882934 
L 163.954223 139.861436 
L 165.040024 139.211779 
L 166.125825 137.528576 
L 167.211627 137.941994 
L 168.297428 136.022552 
L 169.383229 137.705755 
L 171.554831 134.782296 
L 172.640632 132.715204 
L 173.726434 133.482981 
L 174.812235 133.453452 
L 175.898036 133.689691 
L 176.983837 126.897817 
L 178.069638 127.429355 
L 179.155439 133.158153 
L 180.24124 129.821276 
L 181.327042 132.213196 
L 182.412843 123.59047 
L 183.498644 132.538025 
L 184.584445 127.754184 
L 185.670246 130.293754 
L 186.756047 121.287139 
L 187.841849 122.793163 
L 188.92765 125.155554 
L 190.013451 123.73812 
L 191.099252 121.789147 
L 192.185053 122.173036 
L 193.270854 119.220047 
L 194.356656 120.578422 
L 195.442457 117.920732 
L 196.528258 119.367697 
L 197.614059 118.334151 
L 198.69986 116.532828 
L 199.785661 117.389195 
L 200.871462 117.743553 
L 201.957264 115.115393 
L 203.043065 114.318087 
L 205.214667 114.465736 
L 206.300468 115.735521 
L 207.386269 113.904668 
L 208.472071 113.727489 
L 210.643673 111.365098 
L 211.729474 111.748987 
L 212.815275 111.748987 
L 213.901076 111.601337 
L 214.986877 110.597321 
L 216.072679 111.365098 
L 217.15848 110.154373 
L 218.244281 111.069799 
L 219.330082 109.918134 
L 220.415883 109.209417 
L 221.501684 110.213433 
L 222.587486 110.124843 
L 223.673287 110.302022 
L 224.759088 109.740954 
L 225.844889 160.945774 
L 226.93069 151.909629 
L 228.016491 156.84112 
L 229.102292 151.112322 
L 230.188094 144.290919 
L 231.273895 144.674808 
L 232.359696 153.592833 
L 233.445497 145.737883 
L 234.531298 138.739301 
L 235.617099 137.499046 
L 236.702901 139.329899 
L 237.788702 145.856003 
L 238.874503 140.452034 
L 239.960304 139.979556 
L 241.046105 141.987588 
L 242.131906 141.337931 
L 243.217708 141.810409 
L 244.303509 146.358011 
L 245.38931 143.198313 
L 246.475111 145.826473 
L 247.560912 144.497628 
L 248.646713 141.042632 
L 249.732514 148.011685 
L 250.818316 139.388958 
L 251.904117 148.336513 
L 252.989918 143.021134 
L 254.075719 153.179414 
L 255.16152 147.627796 
L 256.247321 137.233277 
L 257.333123 140.747333 
L 258.418924 131.445419 
L 259.504725 139.06413 
L 260.590526 139.211779 
L 261.676327 139.654727 
L 262.762128 135.609133 
L 263.847929 139.802377 
L 264.933731 139.300369 
L 266.019532 148.011685 
L 267.105333 136.170201 
L 268.191134 145.885533 
L 269.276935 141.721819 
L 270.362736 144.290919 
L 271.448538 133.601101 
L 272.534339 135.668193 
L 273.62014 141.48558 
L 274.705941 139.182249 
L 275.791742 140.747333 
L 276.877543 139.831907 
L 277.963344 137.439986 
L 279.049146 134.221229 
L 280.134947 142.548656 
L 281.220748 135.638663 
L 282.306549 134.811826 
L 283.39235 138.680241 
L 284.478151 135.638663 
L 285.563953 135.372894 
L 286.649754 134.427938 
L 287.735555 130.234694 
L 288.821356 136.878918 
L 289.907157 133.335332 
L 290.992958 133.482981 
L 292.07876 133.217213 
L 293.164561 134.368878 
L 294.250362 131.474949 
L 295.336163 139.772847 
L 296.421964 132.951444 
L 297.507765 134.989006 
L 298.593566 132.272256 
L 299.679368 130.677642 
L 300.765169 135.963492 
L 301.85097 133.719221 
L 302.936771 135.609133 
L 304.022572 128.935379 
L 305.108373 123.501881 
L 306.194175 135.933962 
L 307.279976 130.736702 
L 308.365777 127.222646 
L 309.451578 127.547475 
L 310.537379 127.370295 
L 311.62318 129.023969 
L 312.708981 126.838757 
L 313.794783 127.488415 
L 314.880584 131.740718 
L 315.966385 125.096494 
L 317.052186 128.72867 
L 318.137987 134.103109 
L 319.223788 125.982391 
L 320.30959 131.3273 
L 321.395391 128.581021 
L 322.481192 125.214614 
L 323.566993 122.763633 
L 324.652794 123.944829 
L 325.738595 123.147522 
L 326.824396 121.818677 
L 327.910198 123.324701 
L 328.995999 121.16902 
L 330.0818 123.501881 
L 331.167601 123.856239 
L 332.253402 119.072398 
L 333.339203 117.920732 
L 334.425005 118.62945 
L 335.510806 119.544876 
L 336.596607 123.147522 
L 337.682408 119.515346 
L 338.768209 117.093896 
L 339.85401 121.0509 
L 340.939811 120.785131 
L 342.025613 119.131458 
L 343.111414 115.88317 
L 344.197215 120.637482 
L 345.283016 116.503298 
L 346.368817 119.160988 
L 347.454618 118.304621 
L 348.54042 115.085864 
L 349.626221 117.714023 
L 350.712022 115.676461 
L 351.797823 116.798597 
L 352.883624 115.617401 
L 353.969425 117.359665 
L 355.055227 116.975776 
L 356.141028 114.554326 
L 357.226829 115.322103 
L 358.31263 114.967744 
L 359.398431 114.052318 
L 360.484232 112.339584 
L 361.570033 113.195951 
L 362.655835 110.86309 
L 363.741636 113.786549 
L 364.827437 113.579839 
L 365.913238 111.748987 
L 366.999039 110.272492 
L 368.08484 110.124843 
L 369.170642 112.103345 
L 371.342244 116.769067 
L 372.428045 116.916716 
L 373.513846 118.038852 
L 374.599647 117.064366 
L 375.685448 115.558342 
L 376.77125 118.777099 
L 377.857051 119.810645 
L 378.942852 119.751585 
L 380.028653 121.730088 
L 381.114454 118.688509 
L 382.200255 119.603936 
L 383.286057 115.735521 
L 384.371858 118.62945 
L 385.457659 117.389195 
L 386.54346 118.393211 
L 387.629261 120.253593 
L 388.715062 117.861673 
L 389.800863 118.127442 
L 390.886665 117.714023 
L 391.972466 121.995856 
L 393.058267 118.186501 
L 394.144068 125.096494 
L 395.229869 121.02137 
L 396.31567 118.42274 
L 397.401472 120.814661 
L 398.487273 118.836159 
L 398.487273 118.836159 
" clip-path="url(#p7d722c6f43)" style="fill: none; stroke: #ff7f0e; stroke-width: 1.5; stroke-linecap: square"/>
   </g>
   <g id="line2d_17">
    <path d="M 73.832727 295.488 
L 76.00433 282.555947 
L 77.090131 282.311562 
L 78.175932 278.564321 
L 79.261733 272.760172 
L 80.347534 273.228577 
L 81.433335 265.469345 
L 82.519137 264.104861 
L 83.604938 261.620277 
L 84.690739 260.561275 
L 85.77654 257.99523 
L 86.862341 258.443269 
L 87.948142 255.979051 
L 89.033943 256.936227 
L 90.119745 253.066794 
L 91.205546 252.211445 
L 92.291347 255.368088 
L 93.377148 251.295001 
L 94.462949 251.498655 
L 95.54875 266.833829 
L 96.634552 266.243232 
L 97.720353 259.563368 
L 98.806154 257.750844 
L 99.891955 256.752938 
L 100.977756 258.484 
L 102.063557 256.38636 
L 103.149358 263.595725 
L 104.23516 253.433372 
L 105.320961 260.866756 
L 106.406762 244.879888 
L 107.492563 250.745134 
L 108.578364 245.938891 
L 109.664165 250.480383 
L 110.749967 251.641213 
L 111.835768 241.70288 
L 112.921569 248.423474 
L 114.00737 245.165004 
L 115.093171 248.342012 
L 116.178972 244.370752 
L 117.264773 245.490851 
L 118.350575 243.820885 
L 119.436376 233.047569 
L 120.522177 237.589061 
L 121.607978 236.550424 
L 122.693779 234.860093 
L 123.77958 234.126937 
L 124.865382 234.106571 
L 125.951183 234.982285 
L 127.036984 232.599529 
L 128.122785 232.212586 
L 129.208586 228.200595 
L 130.294387 230.3186 
L 131.380189 227.99694 
L 132.46599 230.09458 
L 133.551791 229.463252 
L 134.637592 229.015212 
L 135.723393 228.689365 
L 136.809194 228.098767 
L 137.894995 227.834017 
L 138.980797 255.408819 
L 140.066598 251.009885 
L 141.152399 253.474102 
L 142.2382 247.9958 
L 143.324001 243.12846 
L 144.409802 242.395305 
L 145.495604 248.382743 
L 146.581405 250.358191 
L 147.667206 245.694505 
L 148.753007 242.110188 
L 149.838808 246.203641 
L 150.924609 238.322217 
L 152.01041 242.089823 
L 153.096212 248.280916 
L 154.182013 236.326404 
L 155.267814 247.955069 
L 156.353615 242.273112 
L 157.439416 241.987996 
L 158.525217 245.67414 
L 159.611019 236.265308 
L 160.69682 244.228194 
L 161.782621 238.93318 
L 162.868422 234.534246 
L 163.954223 234.717535 
L 165.040024 238.505506 
L 166.125825 234.941554 
L 167.211627 241.47886 
L 168.297428 237.161387 
L 169.383229 238.566602 
L 170.46903 239.035007 
L 171.554831 236.896636 
L 172.640632 233.536339 
L 173.726434 239.340489 
L 174.812235 238.994276 
L 175.898036 235.328498 
L 176.983837 235.18594 
L 178.069638 233.964013 
L 179.155439 234.880458 
L 180.24124 229.952022 
L 181.327042 235.165574 
L 182.412843 227.671093 
L 183.498644 233.841821 
L 184.584445 229.483617 
L 185.670246 232.660625 
L 187.841849 226.61209 
L 188.92765 225.695646 
L 190.013451 226.652821 
L 191.099252 222.192791 
L 192.185053 228.791192 
L 193.270854 225.084683 
L 194.356656 229.463252 
L 195.442457 222.763023 
L 196.528258 224.819932 
L 197.614059 225.023586 
L 199.785661 220.05442 
L 200.871462 224.127507 
L 201.957264 220.685748 
L 203.043065 223.170332 
L 204.128866 221.154153 
L 206.300468 222.050232 
L 207.386269 221.602193 
L 208.472071 223.984949 
L 209.557872 220.807941 
L 211.729474 222.742657 
L 212.815275 219.667476 
L 213.901076 220.380267 
L 214.986877 219.708207 
L 216.072679 219.524918 
L 217.15848 219.748938 
L 218.244281 218.140068 
L 219.330082 219.524918 
L 220.415883 217.95678 
L 221.501684 218.140068 
L 222.587486 218.913955 
L 223.673287 218.282627 
L 224.759088 218.751032 
L 225.844889 248.627128 
L 226.93069 248.810417 
L 228.016491 249.360284 
L 229.102292 240.643877 
L 230.188094 243.841251 
L 231.273895 242.63969 
L 232.359696 248.810417 
L 233.445497 242.965537 
L 234.531298 235.756172 
L 235.617099 238.362948 
L 236.702901 237.670523 
L 237.788702 241.784341 
L 238.874503 237.405772 
L 239.960304 235.308132 
L 241.046105 241.438129 
L 242.131906 238.627699 
L 243.217708 238.057466 
L 244.303509 241.763976 
L 245.38931 247.242279 
L 246.475111 237.181753 
L 247.560912 249.15663 
L 248.646713 245.042811 
L 249.732514 245.063177 
L 250.818316 233.414147 
L 251.904117 243.881981 
L 252.989918 245.551947 
L 254.075719 257.241708 
L 255.16152 234.534246 
L 256.247321 235.89873 
L 257.333123 240.440223 
L 258.418924 233.312319 
L 259.504725 238.912815 
L 260.590526 239.483047 
L 261.676327 232.070028 
L 262.762128 230.909198 
L 263.847929 239.686701 
L 264.933731 232.701356 
L 266.019532 245.022446 
L 267.105333 235.735806 
L 268.191134 248.077262 
L 269.276935 234.432418 
L 270.362736 236.489328 
L 271.448538 237.405772 
L 272.534339 237.344676 
L 273.62014 233.638166 
L 274.705941 236.265308 
L 275.791742 241.47886 
L 276.877543 238.464775 
L 277.963344 235.084112 
L 279.049146 232.232951 
L 280.134947 243.556134 
L 281.220748 235.878365 
L 282.306549 238.668429 
L 283.39235 237.609427 
L 284.478151 231.377603 
L 285.563953 236.428231 
L 286.649754 238.159294 
L 287.735555 232.762453 
L 288.821356 234.24913 
L 289.907157 230.868467 
L 290.992958 229.096674 
L 292.07876 228.119133 
L 293.164561 236.285673 
L 294.250362 229.992753 
L 295.336163 243.780154 
L 296.421964 237.405772 
L 297.507765 237.263214 
L 298.593566 232.64026 
L 299.679368 224.96249 
L 300.765169 238.118563 
L 301.85097 227.263784 
L 302.936771 234.839727 
L 304.022572 233.454877 
L 305.108373 229.361425 
L 306.194175 234.147302 
L 307.279976 233.882552 
L 308.365777 226.326974 
L 309.451578 229.096674 
L 310.537379 233.12903 
L 311.62318 232.436606 
L 312.708981 233.332685 
L 313.794783 226.449167 
L 314.880584 231.011025 
L 315.966385 226.61209 
L 317.052186 227.365612 
L 318.137987 232.131124 
L 319.223788 230.868467 
L 320.30959 236.000557 
L 321.395391 232.843914 
L 322.481192 228.831923 
L 323.566993 231.764546 
L 324.652794 236.509693 
L 325.738595 231.70345 
L 326.824396 227.73219 
L 327.910198 228.872654 
L 328.995999 226.61209 
L 330.0818 225.716011 
L 331.167601 231.357237 
L 332.253402 220.848672 
L 333.339203 220.889403 
L 334.425005 221.805847 
L 335.510806 217.916049 
L 336.596607 226.225147 
L 337.682408 229.544713 
L 338.768209 221.866944 
L 339.85401 226.591725 
L 340.939811 224.575547 
L 342.025613 220.624652 
L 343.111414 225.043952 
L 344.197215 228.180229 
L 345.283016 217.793856 
L 346.368817 219.586015 
L 347.454618 224.086776 
L 348.54042 219.524918 
L 349.626221 223.394351 
L 350.712022 219.769303 
L 351.797823 223.211062 
L 352.883624 220.502459 
L 353.969425 222.885215 
L 355.055227 223.190697 
L 356.141028 220.013689 
L 358.31263 221.011595 
L 359.398431 218.038241 
L 360.484232 219.463822 
L 361.570033 220.115516 
L 362.655835 220.400632 
L 363.741636 219.199071 
L 364.827437 221.459635 
L 365.913238 220.278439 
L 366.999039 215.818409 
L 368.08484 217.95678 
L 369.170642 222.763023 
L 370.256443 218.608474 
L 371.342244 222.559368 
L 372.428045 220.726479 
L 373.513846 220.624652 
L 374.599647 225.512357 
L 375.685448 220.889403 
L 376.77125 220.563556 
L 377.857051 221.846578 
L 378.942852 222.783388 
L 380.028653 228.974481 
L 381.114454 219.300898 
L 382.200255 222.885215 
L 383.286057 224.697739 
L 384.371858 219.932227 
L 385.457659 228.343153 
L 386.54346 221.113422 
L 387.629261 228.363518 
L 388.715062 222.742657 
L 389.800863 222.355714 
L 390.886665 219.097244 
L 391.972466 228.322787 
L 393.058267 223.862756 
L 394.144068 231.357237 
L 395.229869 228.119133 
L 396.31567 228.872654 
L 397.401472 224.799567 
L 398.487273 224.47372 
L 398.487273 224.47372 
" clip-path="url(#p7d722c6f43)" style="fill: none; stroke: #2ca02c; stroke-width: 1.5; stroke-linecap: square"/>
   </g>
   <g id="line2d_18">
    <path d="M 368.08484 113.255011 
L 370.256443 116.857657 
L 371.342244 117.418724 
L 372.428045 120.017354 
L 373.513846 117.625434 
L 374.599647 121.493848 
L 375.685448 117.182485 
L 376.77125 122.350215 
L 377.857051 118.865689 
L 378.942852 122.734104 
L 380.028653 125.893801 
L 381.114454 120.785131 
L 382.200255 119.781115 
L 383.286057 122.881753 
L 384.371858 132.065547 
L 385.457659 125.126024 
L 386.54346 130.027985 
L 387.629261 126.27769 
L 388.715062 132.301786 
L 389.800863 128.344782 
L 391.972466 143.345963 
L 393.058267 137.085627 
L 394.144068 139.06413 
L 395.229869 135.786312 
L 396.31567 141.042632 
L 397.401472 141.45605 
L 398.487273 131.740718 
L 398.487273 131.740718 
" clip-path="url(#p7d722c6f43)" style="fill: none; stroke: #d62728; stroke-width: 1.5; stroke-linecap: square"/>
   </g>
   <g id="line2d_19">
    <path d="M 368.08484 216.449737 
L 369.170642 221.642924 
L 370.256443 222.987043 
L 371.342244 223.883122 
L 372.428045 223.659102 
L 373.513846 215.4111 
L 374.599647 224.229334 
L 375.685448 218.649204 
L 376.77125 221.317077 
L 377.857051 217.630933 
L 378.942852 216.490468 
L 380.028653 227.406343 
L 381.114454 222.335349 
L 382.200255 219.586015 
L 383.286057 225.247606 
L 384.371858 233.291954 
L 385.457659 220.420997 
L 386.54346 231.133218 
L 387.629261 225.227241 
L 388.715062 229.524348 
L 389.800863 224.351527 
L 391.972466 238.810988 
L 393.058267 233.739994 
L 394.144068 236.672617 
L 395.229869 231.601623 
L 396.31567 236.448597 
L 397.401472 239.890356 
L 398.487273 235.572883 
L 398.487273 235.572883 
" clip-path="url(#p7d722c6f43)" style="fill: none; stroke: #9467bd; stroke-width: 1.5; stroke-linecap: square"/>
   </g>
   <g id="patch_3">
    <path d="M 57.6 307.584 
L 57.6 41.472 
" style="fill: none; stroke: #000000; stroke-width: 0.8; stroke-linejoin: miter; stroke-linecap: square"/>
   </g>
   <g id="patch_4">
    <path d="M 414.72 307.584 
L 414.72 41.472 
" style="fill: none; stroke: #000000; stroke-width: 0.8; stroke-linejoin: miter; stroke-linecap: square"/>
   </g>
   <g id="patch_5">
    <path d="M 57.6 307.584 
L 414.72 307.584 
" style="fill: none; stroke: #000000; stroke-width: 0.8; stroke-linejoin: miter; stroke-linecap: square"/>
   </g>
   <g id="patch_6">
    <path d="M 57.6 41.472 
L 414.72 41.472 
" style="fill: none; stroke: #000000; stroke-width: 0.8; stroke-linejoin: miter; stroke-linecap: square"/>
   </g>
   <g id="text_17">
    <!-- Learning Curves -->
    <g transform="translate(187.37625 35.472) scale(0.12 -0.12)">
     <defs>
      <path id="DejaVuSans-4c" d="M 628 4666 
L 1259 4666 
L 1259 531 
L 3531 531 
L 3531 0 
L 628 0 
L 628 4666 
z
" transform="scale(0.015625)"/>
      <path id="DejaVuSans-65" d="M 3597 1894 
L 3597 1613 
L 953 1613 
Q 991 1019 1311 708 
Q 1631 397 2203 397 
Q 2534 397 2845 478 
Q 3156 559 3463 722 
L 3463 178 
Q 3153 47 2828 -22 
Q 2503 -91 2169 -91 
Q 1331 -91 842 396 
Q 353 884 353 1716 
Q 353 2575 817 3079 
Q 1281 3584 2069 3584 
Q 2775 3584 3186 3129 
Q 3597 2675 3597 1894 
z
M 3022 2063 
Q 3016 2534 2758 2815 
Q 2500 3097 2075 3097 
Q 1594 3097 1305 2825 
Q 1016 2553 972 2059 
L 3022 2063 
z
" transform="scale(0.015625)"/>
      <path id="DejaVuSans-6e" d="M 3513 2113 
L 3513 0 
L 2938 0 
L 2938 2094 
Q 2938 2591 2744 2837 
Q 2550 3084 2163 3084 
Q 1697 3084 1428 2787 
Q 1159 2491 1159 1978 
L 1159 0 
L 581 0 
L 581 3500 
L 1159 3500 
L 1159 2956 
Q 1366 3272 1645 3428 
Q 1925 3584 2291 3584 
Q 2894 3584 3203 3211 
Q 3513 2838 3513 2113 
z
" transform="scale(0.015625)"/>
      <path id="DejaVuSans-69" d="M 603 3500 
L 1178 3500 
L 1178 0 
L 603 0 
L 603 3500 
z
M 603 4863 
L 1178 4863 
L 1178 4134 
L 603 4134 
L 603 4863 
z
" transform="scale(0.015625)"/>
      <path id="DejaVuSans-67" d="M 2906 1791 
Q 2906 2416 2648 2759 
Q 2391 3103 1925 3103 
Q 1463 3103 1205 2759 
Q 947 2416 947 1791 
Q 947 1169 1205 825 
Q 1463 481 1925 481 
Q 2391 481 2648 825 
Q 2906 1169 2906 1791 
z
M 3481 434 
Q 3481 -459 3084 -895 
Q 2688 -1331 1869 -1331 
Q 1566 -1331 1297 -1286 
Q 1028 -1241 775 -1147 
L 775 -588 
Q 1028 -725 1275 -790 
Q 1522 -856 1778 -856 
Q 2344 -856 2625 -561 
Q 2906 -266 2906 331 
L 2906 616 
Q 2728 306 2450 153 
Q 2172 0 1784 0 
Q 1141 0 747 490 
Q 353 981 353 1791 
Q 353 2603 747 3093 
Q 1141 3584 1784 3584 
Q 2172 3584 2450 3431 
Q 2728 3278 2906 2969 
L 2906 3500 
L 3481 3500 
L 3481 434 
z
" transform="scale(0.015625)"/>
      <path id="DejaVuSans-20" transform="scale(0.015625)"/>
      <path id="DejaVuSans-43" d="M 4122 4306 
L 4122 3641 
Q 3803 3938 3442 4084 
Q 3081 4231 2675 4231 
Q 1875 4231 1450 3742 
Q 1025 3253 1025 2328 
Q 1025 1406 1450 917 
Q 1875 428 2675 428 
Q 3081 428 3442 575 
Q 3803 722 4122 1019 
L 4122 359 
Q 3791 134 3420 21 
Q 3050 -91 2638 -91 
Q 1578 -91 968 557 
Q 359 1206 359 2328 
Q 359 3453 968 4101 
Q 1578 4750 2638 4750 
Q 3056 4750 3426 4639 
Q 3797 4528 4122 4306 
z
" transform="scale(0.015625)"/>
      <path id="DejaVuSans-76" d="M 191 3500 
L 800 3500 
L 1894 563 
L 2988 3500 
L 3597 3500 
L 2284 0 
L 1503 0 
L 191 3500 
z
" transform="scale(0.015625)"/>
     </defs>
     <use xlink:href="#DejaVuSans-4c"/>
     <use xlink:href="#DejaVuSans-65" x="53.962891"/>
     <use xlink:href="#DejaVuSans-61" x="115.486328"/>
     <use xlink:href="#DejaVuSans-72" x="176.765625"/>
     <use xlink:href="#DejaVuSans-6e" x="216.128906"/>
     <use xlink:href="#DejaVuSans-69" x="279.507812"/>
     <use xlink:href="#DejaVuSans-6e" x="307.291016"/>
     <use xlink:href="#DejaVuSans-67" x="370.669922"/>
     <use xlink:href="#DejaVuSans-20" x="434.146484"/>
     <use xlink:href="#DejaVuSans-43" x="465.933594"/>
     <use xlink:href="#DejaVuSans-75" x="535.757812"/>
     <use xlink:href="#DejaVuSans-72" x="599.136719"/>
     <use xlink:href="#DejaVuSans-76" x="640.25"/>
     <use xlink:href="#DejaVuSans-65" x="699.429688"/>
     <use xlink:href="#DejaVuSans-73" x="760.953125"/>
    </g>
   </g>
   <g id="legend_1">
    <g id="patch_7">
     <path d="M 214.18875 212.723313 
L 407.72 212.723313 
Q 409.72 212.723313 409.72 210.723313 
L 409.72 138.332688 
Q 409.72 136.332688 407.72 136.332688 
L 214.18875 136.332688 
Q 212.18875 136.332688 212.18875 138.332688 
L 212.18875 210.723313 
Q 212.18875 212.723313 214.18875 212.723313 
z
" style="fill: #ffffff; opacity: 0.8; stroke: #cccccc; stroke-linejoin: miter"/>
    </g>
    <g id="line2d_20">
     <path d="M 216.18875 144.431125 
L 226.18875 144.431125 
L 236.18875 144.431125 
" style="fill: none; stroke: #1f77b4; stroke-width: 1.5; stroke-linecap: square"/>
    </g>
    <g id="text_18">
     <!-- Train Accuracy -->
     <g transform="translate(244.18875 147.931125) scale(0.1 -0.1)">
      <defs>
       <path id="DejaVuSans-54" d="M -19 4666 
L 3928 4666 
L 3928 4134 
L 2272 4134 
L 2272 0 
L 1638 0 
L 1638 4134 
L -19 4134 
L -19 4666 
z
" transform="scale(0.015625)"/>
      </defs>
      <use xlink:href="#DejaVuSans-54"/>
      <use xlink:href="#DejaVuSans-72" x="46.333984"/>
      <use xlink:href="#DejaVuSans-61" x="87.447266"/>
      <use xlink:href="#DejaVuSans-69" x="148.726562"/>
      <use xlink:href="#DejaVuSans-6e" x="176.509766"/>
      <use xlink:href="#DejaVuSans-20" x="239.888672"/>
      <use xlink:href="#DejaVuSans-41" x="271.675781"/>
      <use xlink:href="#DejaVuSans-63" x="338.333984"/>
      <use xlink:href="#DejaVuSans-63" x="393.314453"/>
      <use xlink:href="#DejaVuSans-75" x="448.294922"/>
      <use xlink:href="#DejaVuSans-72" x="511.673828"/>
      <use xlink:href="#DejaVuSans-61" x="552.787109"/>
      <use xlink:href="#DejaVuSans-63" x="614.066406"/>
      <use xlink:href="#DejaVuSans-79" x="669.046875"/>
     </g>
    </g>
    <g id="line2d_21">
     <path d="M 216.18875 159.10925 
L 226.18875 159.10925 
L 236.18875 159.10925 
" style="fill: none; stroke: #ff7f0e; stroke-width: 1.5; stroke-linecap: square"/>
    </g>
    <g id="text_19">
     <!-- Validation Accuracy -->
     <g transform="translate(244.18875 162.60925) scale(0.1 -0.1)">
      <defs>
       <path id="DejaVuSans-56" d="M 1831 0 
L 50 4666 
L 709 4666 
L 2188 738 
L 3669 4666 
L 4325 4666 
L 2547 0 
L 1831 0 
z
" transform="scale(0.015625)"/>
       <path id="DejaVuSans-6c" d="M 603 4863 
L 1178 4863 
L 1178 0 
L 603 0 
L 603 4863 
z
" transform="scale(0.015625)"/>
       <path id="DejaVuSans-64" d="M 2906 2969 
L 2906 4863 
L 3481 4863 
L 3481 0 
L 2906 0 
L 2906 525 
Q 2725 213 2448 61 
Q 2172 -91 1784 -91 
Q 1150 -91 751 415 
Q 353 922 353 1747 
Q 353 2572 751 3078 
Q 1150 3584 1784 3584 
Q 2172 3584 2448 3432 
Q 2725 3281 2906 2969 
z
M 947 1747 
Q 947 1113 1208 752 
Q 1469 391 1925 391 
Q 2381 391 2643 752 
Q 2906 1113 2906 1747 
Q 2906 2381 2643 2742 
Q 2381 3103 1925 3103 
Q 1469 3103 1208 2742 
Q 947 2381 947 1747 
z
" transform="scale(0.015625)"/>
       <path id="DejaVuSans-74" d="M 1172 4494 
L 1172 3500 
L 2356 3500 
L 2356 3053 
L 1172 3053 
L 1172 1153 
Q 1172 725 1289 603 
Q 1406 481 1766 481 
L 2356 481 
L 2356 0 
L 1766 0 
Q 1100 0 847 248 
Q 594 497 594 1153 
L 594 3053 
L 172 3053 
L 172 3500 
L 594 3500 
L 594 4494 
L 1172 4494 
z
" transform="scale(0.015625)"/>
      </defs>
      <use xlink:href="#DejaVuSans-56"/>
      <use xlink:href="#DejaVuSans-61" x="60.658203"/>
      <use xlink:href="#DejaVuSans-6c" x="121.9375"/>
      <use xlink:href="#DejaVuSans-69" x="149.720703"/>
      <use xlink:href="#DejaVuSans-64" x="177.503906"/>
      <use xlink:href="#DejaVuSans-61" x="240.980469"/>
      <use xlink:href="#DejaVuSans-74" x="302.259766"/>
      <use xlink:href="#DejaVuSans-69" x="341.46875"/>
      <use xlink:href="#DejaVuSans-6f" x="369.251953"/>
      <use xlink:href="#DejaVuSans-6e" x="430.433594"/>
      <use xlink:href="#DejaVuSans-20" x="493.8125"/>
      <use xlink:href="#DejaVuSans-41" x="525.599609"/>
      <use xlink:href="#DejaVuSans-63" x="592.257812"/>
      <use xlink:href="#DejaVuSans-63" x="647.238281"/>
      <use xlink:href="#DejaVuSans-75" x="702.21875"/>
      <use xlink:href="#DejaVuSans-72" x="765.597656"/>
      <use xlink:href="#DejaVuSans-61" x="806.710938"/>
      <use xlink:href="#DejaVuSans-63" x="867.990234"/>
      <use xlink:href="#DejaVuSans-79" x="922.970703"/>
     </g>
    </g>
    <g id="line2d_22">
     <path d="M 216.18875 173.787375 
L 226.18875 173.787375 
L 236.18875 173.787375 
" style="fill: none; stroke: #2ca02c; stroke-width: 1.5; stroke-linecap: square"/>
    </g>
    <g id="text_20">
     <!-- Robust Validation Accuracy -->
     <g transform="translate(244.18875 177.287375) scale(0.1 -0.1)">
      <defs>
       <path id="DejaVuSans-52" d="M 2841 2188 
Q 3044 2119 3236 1894 
Q 3428 1669 3622 1275 
L 4263 0 
L 3584 0 
L 2988 1197 
Q 2756 1666 2539 1819 
Q 2322 1972 1947 1972 
L 1259 1972 
L 1259 0 
L 628 0 
L 628 4666 
L 2053 4666 
Q 2853 4666 3247 4331 
Q 3641 3997 3641 3322 
Q 3641 2881 3436 2590 
Q 3231 2300 2841 2188 
z
M 1259 4147 
L 1259 2491 
L 2053 2491 
Q 2509 2491 2742 2702 
Q 2975 2913 2975 3322 
Q 2975 3731 2742 3939 
Q 2509 4147 2053 4147 
L 1259 4147 
z
" transform="scale(0.015625)"/>
       <path id="DejaVuSans-62" d="M 3116 1747 
Q 3116 2381 2855 2742 
Q 2594 3103 2138 3103 
Q 1681 3103 1420 2742 
Q 1159 2381 1159 1747 
Q 1159 1113 1420 752 
Q 1681 391 2138 391 
Q 2594 391 2855 752 
Q 3116 1113 3116 1747 
z
M 1159 2969 
Q 1341 3281 1617 3432 
Q 1894 3584 2278 3584 
Q 2916 3584 3314 3078 
Q 3713 2572 3713 1747 
Q 3713 922 3314 415 
Q 2916 -91 2278 -91 
Q 1894 -91 1617 61 
Q 1341 213 1159 525 
L 1159 0 
L 581 0 
L 581 4863 
L 1159 4863 
L 1159 2969 
z
" transform="scale(0.015625)"/>
      </defs>
      <use xlink:href="#DejaVuSans-52"/>
      <use xlink:href="#DejaVuSans-6f" x="64.982422"/>
      <use xlink:href="#DejaVuSans-62" x="126.164062"/>
      <use xlink:href="#DejaVuSans-75" x="189.640625"/>
      <use xlink:href="#DejaVuSans-73" x="253.019531"/>
      <use xlink:href="#DejaVuSans-74" x="305.119141"/>
      <use xlink:href="#DejaVuSans-20" x="344.328125"/>
      <use xlink:href="#DejaVuSans-56" x="376.115234"/>
      <use xlink:href="#DejaVuSans-61" x="436.773438"/>
      <use xlink:href="#DejaVuSans-6c" x="498.052734"/>
      <use xlink:href="#DejaVuSans-69" x="525.835938"/>
      <use xlink:href="#DejaVuSans-64" x="553.619141"/>
      <use xlink:href="#DejaVuSans-61" x="617.095703"/>
      <use xlink:href="#DejaVuSans-74" x="678.375"/>
      <use xlink:href="#DejaVuSans-69" x="717.583984"/>
      <use xlink:href="#DejaVuSans-6f" x="745.367188"/>
      <use xlink:href="#DejaVuSans-6e" x="806.548828"/>
      <use xlink:href="#DejaVuSans-20" x="869.927734"/>
      <use xlink:href="#DejaVuSans-41" x="901.714844"/>
      <use xlink:href="#DejaVuSans-63" x="968.373047"/>
      <use xlink:href="#DejaVuSans-63" x="1023.353516"/>
      <use xlink:href="#DejaVuSans-75" x="1078.333984"/>
      <use xlink:href="#DejaVuSans-72" x="1141.712891"/>
      <use xlink:href="#DejaVuSans-61" x="1182.826172"/>
      <use xlink:href="#DejaVuSans-63" x="1244.105469"/>
      <use xlink:href="#DejaVuSans-79" x="1299.085938"/>
     </g>
    </g>
    <g id="line2d_23">
     <path d="M 216.18875 188.4655 
L 226.18875 188.4655 
L 236.18875 188.4655 
" style="fill: none; stroke: #d62728; stroke-width: 1.5; stroke-linecap: square"/>
    </g>
    <g id="text_21">
     <!-- SWA Validation Accuracy -->
     <g transform="translate(244.18875 191.9655) scale(0.1 -0.1)">
      <defs>
       <path id="DejaVuSans-53" d="M 3425 4513 
L 3425 3897 
Q 3066 4069 2747 4153 
Q 2428 4238 2131 4238 
Q 1616 4238 1336 4038 
Q 1056 3838 1056 3469 
Q 1056 3159 1242 3001 
Q 1428 2844 1947 2747 
L 2328 2669 
Q 3034 2534 3370 2195 
Q 3706 1856 3706 1288 
Q 3706 609 3251 259 
Q 2797 -91 1919 -91 
Q 1588 -91 1214 -16 
Q 841 59 441 206 
L 441 856 
Q 825 641 1194 531 
Q 1563 422 1919 422 
Q 2459 422 2753 634 
Q 3047 847 3047 1241 
Q 3047 1584 2836 1778 
Q 2625 1972 2144 2069 
L 1759 2144 
Q 1053 2284 737 2584 
Q 422 2884 422 3419 
Q 422 4038 858 4394 
Q 1294 4750 2059 4750 
Q 2388 4750 2728 4690 
Q 3069 4631 3425 4513 
z
" transform="scale(0.015625)"/>
       <path id="DejaVuSans-57" d="M 213 4666 
L 850 4666 
L 1831 722 
L 2809 4666 
L 3519 4666 
L 4500 722 
L 5478 4666 
L 6119 4666 
L 4947 0 
L 4153 0 
L 3169 4050 
L 2175 0 
L 1381 0 
L 213 4666 
z
" transform="scale(0.015625)"/>
      </defs>
      <use xlink:href="#DejaVuSans-53"/>
      <use xlink:href="#DejaVuSans-57" x="63.476562"/>
      <use xlink:href="#DejaVuSans-41" x="156.853516"/>
      <use xlink:href="#DejaVuSans-20" x="225.261719"/>
      <use xlink:href="#DejaVuSans-56" x="257.048828"/>
      <use xlink:href="#DejaVuSans-61" x="317.707031"/>
      <use xlink:href="#DejaVuSans-6c" x="378.986328"/>
      <use xlink:href="#DejaVuSans-69" x="406.769531"/>
      <use xlink:href="#DejaVuSans-64" x="434.552734"/>
      <use xlink:href="#DejaVuSans-61" x="498.029297"/>
      <use xlink:href="#DejaVuSans-74" x="559.308594"/>
      <use xlink:href="#DejaVuSans-69" x="598.517578"/>
      <use xlink:href="#DejaVuSans-6f" x="626.300781"/>
      <use xlink:href="#DejaVuSans-6e" x="687.482422"/>
      <use xlink:href="#DejaVuSans-20" x="750.861328"/>
      <use xlink:href="#DejaVuSans-41" x="782.648438"/>
      <use xlink:href="#DejaVuSans-63" x="849.306641"/>
      <use xlink:href="#DejaVuSans-63" x="904.287109"/>
      <use xlink:href="#DejaVuSans-75" x="959.267578"/>
      <use xlink:href="#DejaVuSans-72" x="1022.646484"/>
      <use xlink:href="#DejaVuSans-61" x="1063.759766"/>
      <use xlink:href="#DejaVuSans-63" x="1125.039062"/>
      <use xlink:href="#DejaVuSans-79" x="1180.019531"/>
     </g>
    </g>
    <g id="line2d_24">
     <path d="M 216.18875 203.143625 
L 226.18875 203.143625 
L 236.18875 203.143625 
" style="fill: none; stroke: #9467bd; stroke-width: 1.5; stroke-linecap: square"/>
    </g>
    <g id="text_22">
     <!-- SWA Robust Validation Accuracy -->
     <g transform="translate(244.18875 206.643625) scale(0.1 -0.1)">
      <use xlink:href="#DejaVuSans-53"/>
      <use xlink:href="#DejaVuSans-57" x="63.476562"/>
      <use xlink:href="#DejaVuSans-41" x="156.853516"/>
      <use xlink:href="#DejaVuSans-20" x="225.261719"/>
      <use xlink:href="#DejaVuSans-52" x="257.048828"/>
      <use xlink:href="#DejaVuSans-6f" x="322.03125"/>
      <use xlink:href="#DejaVuSans-62" x="383.212891"/>
      <use xlink:href="#DejaVuSans-75" x="446.689453"/>
      <use xlink:href="#DejaVuSans-73" x="510.068359"/>
      <use xlink:href="#DejaVuSans-74" x="562.167969"/>
      <use xlink:href="#DejaVuSans-20" x="601.376953"/>
      <use xlink:href="#DejaVuSans-56" x="633.164062"/>
      <use xlink:href="#DejaVuSans-61" x="693.822266"/>
      <use xlink:href="#DejaVuSans-6c" x="755.101562"/>
      <use xlink:href="#DejaVuSans-69" x="782.884766"/>
      <use xlink:href="#DejaVuSans-64" x="810.667969"/>
      <use xlink:href="#DejaVuSans-61" x="874.144531"/>
      <use xlink:href="#DejaVuSans-74" x="935.423828"/>
      <use xlink:href="#DejaVuSans-69" x="974.632812"/>
      <use xlink:href="#DejaVuSans-6f" x="1002.416016"/>
      <use xlink:href="#DejaVuSans-6e" x="1063.597656"/>
      <use xlink:href="#DejaVuSans-20" x="1126.976562"/>
      <use xlink:href="#DejaVuSans-41" x="1158.763672"/>
      <use xlink:href="#DejaVuSans-63" x="1225.421875"/>
      <use xlink:href="#DejaVuSans-63" x="1280.402344"/>
      <use xlink:href="#DejaVuSans-75" x="1335.382812"/>
      <use xlink:href="#DejaVuSans-72" x="1398.761719"/>
      <use xlink:href="#DejaVuSans-61" x="1439.875"/>
      <use xlink:href="#DejaVuSans-63" x="1501.154297"/>
      <use xlink:href="#DejaVuSans-79" x="1556.134766"/>
     </g>
    </g>
   </g>
  </g>
 </g>
 <defs>
  <clipPath id="p7d722c6f43">
   <rect x="57.6" y="41.472" width="357.12" height="266.112"/>
  </clipPath>
 </defs>
</svg>
