<?xml version="1.0" encoding="utf-8" standalone="no"?>
<!DOCTYPE svg PUBLIC "-//W3C//DTD SVG 1.1//EN"
  "http://www.w3.org/Graphics/SVG/1.1/DTD/svg11.dtd">
<svg xmlns:xlink="http://www.w3.org/1999/xlink" width="460.8pt" height="345.6pt" viewBox="0 0 460.8 345.6" xmlns="http://www.w3.org/2000/svg" version="1.1">
 <metadata>
  <rdf:RDF xmlns:dc="http://purl.org/dc/elements/1.1/" xmlns:cc="http://creativecommons.org/ns#" xmlns:rdf="http://www.w3.org/1999/02/22-rdf-syntax-ns#">
   <cc:Work>
    <dc:type rdf:resource="http://purl.org/dc/dcmitype/StillImage"/>
    <dc:date>2025-07-23T15:46:58.193115</dc:date>
    <dc:format>image/svg+xml</dc:format>
    <dc:creator>
     <cc:Agent>
      <dc:title>Matplotlib v3.9.1, https://matplotlib.org/</dc:title>
     </cc:Agent>
    </dc:creator>
   </cc:Work>
  </rdf:RDF>
 </metadata>
 <defs>
  <style type="text/css">*{stroke-linejoin: round; stroke-linecap: butt}</style>
 </defs>
 <g id="figure_1">
  <g id="patch_1">
   <path d="M 0 345.6 
L 460.8 345.6 
L 460.8 0 
L 0 0 
z
" style="fill: #ffffff"/>
  </g>
  <g id="axes_1">
   <g id="patch_2">
    <path d="M 57.6 307.584 
L 414.72 307.584 
L 414.72 41.472 
L 57.6 41.472 
z
" style="fill: #ffffff"/>
   </g>
   <g id="matplotlib.axis_1">
    <g id="xtick_1">
     <g id="line2d_1">
      <defs>
       <path id="m215be4de20" d="M 0 0 
L 0 3.5 
" style="stroke: #000000; stroke-width: 0.8"/>
      </defs>
      <g>
       <use xlink:href="#m215be4de20" x="73.832727" y="307.584" style="stroke: #000000; stroke-width: 0.8"/>
      </g>
     </g>
     <g id="text_1">
      <!-- 1 -->
      <g transform="translate(70.651477 322.182437) scale(0.1 -0.1)">
       <defs>
        <path id="DejaVuSans-31" d="M 794 531 
L 1825 531 
L 1825 4091 
L 703 3866 
L 703 4441 
L 1819 4666 
L 2450 4666 
L 2450 531 
L 3481 531 
L 3481 0 
L 794 0 
L 794 531 
z
" transform="scale(0.015625)"/>
       </defs>
       <use xlink:href="#DejaVuSans-31"/>
      </g>
     </g>
    </g>
    <g id="xtick_2">
     <g id="line2d_2">
      <g>
       <use xlink:href="#m215be4de20" x="109.664165" y="307.584" style="stroke: #000000; stroke-width: 0.8"/>
      </g>
     </g>
     <g id="text_2">
      <!-- 34 -->
      <g transform="translate(103.301665 322.182437) scale(0.1 -0.1)">
       <defs>
        <path id="DejaVuSans-33" d="M 2597 2516 
Q 3050 2419 3304 2112 
Q 3559 1806 3559 1356 
Q 3559 666 3084 287 
Q 2609 -91 1734 -91 
Q 1441 -91 1130 -33 
Q 819 25 488 141 
L 488 750 
Q 750 597 1062 519 
Q 1375 441 1716 441 
Q 2309 441 2620 675 
Q 2931 909 2931 1356 
Q 2931 1769 2642 2001 
Q 2353 2234 1838 2234 
L 1294 2234 
L 1294 2753 
L 1863 2753 
Q 2328 2753 2575 2939 
Q 2822 3125 2822 3475 
Q 2822 3834 2567 4026 
Q 2313 4219 1838 4219 
Q 1578 4219 1281 4162 
Q 984 4106 628 3988 
L 628 4550 
Q 988 4650 1302 4700 
Q 1616 4750 1894 4750 
Q 2613 4750 3031 4423 
Q 3450 4097 3450 3541 
Q 3450 3153 3228 2886 
Q 3006 2619 2597 2516 
z
" transform="scale(0.015625)"/>
        <path id="DejaVuSans-34" d="M 2419 4116 
L 825 1625 
L 2419 1625 
L 2419 4116 
z
M 2253 4666 
L 3047 4666 
L 3047 1625 
L 3713 1625 
L 3713 1100 
L 3047 1100 
L 3047 0 
L 2419 0 
L 2419 1100 
L 313 1100 
L 313 1709 
L 2253 4666 
z
" transform="scale(0.015625)"/>
       </defs>
       <use xlink:href="#DejaVuSans-33"/>
       <use xlink:href="#DejaVuSans-34" x="63.623047"/>
      </g>
     </g>
    </g>
    <g id="xtick_3">
     <g id="line2d_3">
      <g>
       <use xlink:href="#m215be4de20" x="145.495604" y="307.584" style="stroke: #000000; stroke-width: 0.8"/>
      </g>
     </g>
     <g id="text_3">
      <!-- 67 -->
      <g transform="translate(139.133104 322.182437) scale(0.1 -0.1)">
       <defs>
        <path id="DejaVuSans-36" d="M 2113 2584 
Q 1688 2584 1439 2293 
Q 1191 2003 1191 1497 
Q 1191 994 1439 701 
Q 1688 409 2113 409 
Q 2538 409 2786 701 
Q 3034 994 3034 1497 
Q 3034 2003 2786 2293 
Q 2538 2584 2113 2584 
z
M 3366 4563 
L 3366 3988 
Q 3128 4100 2886 4159 
Q 2644 4219 2406 4219 
Q 1781 4219 1451 3797 
Q 1122 3375 1075 2522 
Q 1259 2794 1537 2939 
Q 1816 3084 2150 3084 
Q 2853 3084 3261 2657 
Q 3669 2231 3669 1497 
Q 3669 778 3244 343 
Q 2819 -91 2113 -91 
Q 1303 -91 875 529 
Q 447 1150 447 2328 
Q 447 3434 972 4092 
Q 1497 4750 2381 4750 
Q 2619 4750 2861 4703 
Q 3103 4656 3366 4563 
z
" transform="scale(0.015625)"/>
        <path id="DejaVuSans-37" d="M 525 4666 
L 3525 4666 
L 3525 4397 
L 1831 0 
L 1172 0 
L 2766 4134 
L 525 4134 
L 525 4666 
z
" transform="scale(0.015625)"/>
       </defs>
       <use xlink:href="#DejaVuSans-36"/>
       <use xlink:href="#DejaVuSans-37" x="63.623047"/>
      </g>
     </g>
    </g>
    <g id="xtick_4">
     <g id="line2d_4">
      <g>
       <use xlink:href="#m215be4de20" x="181.327042" y="307.584" style="stroke: #000000; stroke-width: 0.8"/>
      </g>
     </g>
     <g id="text_4">
      <!-- 100 -->
      <g transform="translate(171.783292 322.182437) scale(0.1 -0.1)">
       <defs>
        <path id="DejaVuSans-30" d="M 2034 4250 
Q 1547 4250 1301 3770 
Q 1056 3291 1056 2328 
Q 1056 1369 1301 889 
Q 1547 409 2034 409 
Q 2525 409 2770 889 
Q 3016 1369 3016 2328 
Q 3016 3291 2770 3770 
Q 2525 4250 2034 4250 
z
M 2034 4750 
Q 2819 4750 3233 4129 
Q 3647 3509 3647 2328 
Q 3647 1150 3233 529 
Q 2819 -91 2034 -91 
Q 1250 -91 836 529 
Q 422 1150 422 2328 
Q 422 3509 836 4129 
Q 1250 4750 2034 4750 
z
" transform="scale(0.015625)"/>
       </defs>
       <use xlink:href="#DejaVuSans-31"/>
       <use xlink:href="#DejaVuSans-30" x="63.623047"/>
       <use xlink:href="#DejaVuSans-30" x="127.246094"/>
      </g>
     </g>
    </g>
    <g id="xtick_5">
     <g id="line2d_5">
      <g>
       <use xlink:href="#m215be4de20" x="217.15848" y="307.584" style="stroke: #000000; stroke-width: 0.8"/>
      </g>
     </g>
     <g id="text_5">
      <!-- 133 -->
      <g transform="translate(207.61473 322.182437) scale(0.1 -0.1)">
       <use xlink:href="#DejaVuSans-31"/>
       <use xlink:href="#DejaVuSans-33" x="63.623047"/>
       <use xlink:href="#DejaVuSans-33" x="127.246094"/>
      </g>
     </g>
    </g>
    <g id="xtick_6">
     <g id="line2d_6">
      <g>
       <use xlink:href="#m215be4de20" x="254.075719" y="307.584" style="stroke: #000000; stroke-width: 0.8"/>
      </g>
     </g>
     <g id="text_6">
      <!-- 167 -->
      <g transform="translate(244.531969 322.182437) scale(0.1 -0.1)">
       <use xlink:href="#DejaVuSans-31"/>
       <use xlink:href="#DejaVuSans-36" x="63.623047"/>
       <use xlink:href="#DejaVuSans-37" x="127.246094"/>
      </g>
     </g>
    </g>
    <g id="xtick_7">
     <g id="line2d_7">
      <g>
       <use xlink:href="#m215be4de20" x="289.907157" y="307.584" style="stroke: #000000; stroke-width: 0.8"/>
      </g>
     </g>
     <g id="text_7">
      <!-- 200 -->
      <g transform="translate(280.363407 322.182437) scale(0.1 -0.1)">
       <defs>
        <path id="DejaVuSans-32" d="M 1228 531 
L 3431 531 
L 3431 0 
L 469 0 
L 469 531 
Q 828 903 1448 1529 
Q 2069 2156 2228 2338 
Q 2531 2678 2651 2914 
Q 2772 3150 2772 3378 
Q 2772 3750 2511 3984 
Q 2250 4219 1831 4219 
Q 1534 4219 1204 4116 
Q 875 4013 500 3803 
L 500 4441 
Q 881 4594 1212 4672 
Q 1544 4750 1819 4750 
Q 2544 4750 2975 4387 
Q 3406 4025 3406 3419 
Q 3406 3131 3298 2873 
Q 3191 2616 2906 2266 
Q 2828 2175 2409 1742 
Q 1991 1309 1228 531 
z
" transform="scale(0.015625)"/>
       </defs>
       <use xlink:href="#DejaVuSans-32"/>
       <use xlink:href="#DejaVuSans-30" x="63.623047"/>
       <use xlink:href="#DejaVuSans-30" x="127.246094"/>
      </g>
     </g>
    </g>
    <g id="xtick_8">
     <g id="line2d_8">
      <g>
       <use xlink:href="#m215be4de20" x="325.738595" y="307.584" style="stroke: #000000; stroke-width: 0.8"/>
      </g>
     </g>
     <g id="text_8">
      <!-- 233 -->
      <g transform="translate(316.194845 322.182437) scale(0.1 -0.1)">
       <use xlink:href="#DejaVuSans-32"/>
       <use xlink:href="#DejaVuSans-33" x="63.623047"/>
       <use xlink:href="#DejaVuSans-33" x="127.246094"/>
      </g>
     </g>
    </g>
    <g id="xtick_9">
     <g id="line2d_9">
      <g>
       <use xlink:href="#m215be4de20" x="361.570033" y="307.584" style="stroke: #000000; stroke-width: 0.8"/>
      </g>
     </g>
     <g id="text_9">
      <!-- 266 -->
      <g transform="translate(352.026283 322.182437) scale(0.1 -0.1)">
       <use xlink:href="#DejaVuSans-32"/>
       <use xlink:href="#DejaVuSans-36" x="63.623047"/>
       <use xlink:href="#DejaVuSans-36" x="127.246094"/>
      </g>
     </g>
    </g>
    <g id="xtick_10">
     <g id="line2d_10">
      <g>
       <use xlink:href="#m215be4de20" x="398.487273" y="307.584" style="stroke: #000000; stroke-width: 0.8"/>
      </g>
     </g>
     <g id="text_10">
      <!-- 300 -->
      <g transform="translate(388.943523 322.182437) scale(0.1 -0.1)">
       <use xlink:href="#DejaVuSans-33"/>
       <use xlink:href="#DejaVuSans-30" x="63.623047"/>
       <use xlink:href="#DejaVuSans-30" x="127.246094"/>
      </g>
     </g>
    </g>
    <g id="text_11">
     <!-- Epochs -->
     <g transform="translate(218.244375 335.860562) scale(0.1 -0.1)">
      <defs>
       <path id="DejaVuSans-45" d="M 628 4666 
L 3578 4666 
L 3578 4134 
L 1259 4134 
L 1259 2753 
L 3481 2753 
L 3481 2222 
L 1259 2222 
L 1259 531 
L 3634 531 
L 3634 0 
L 628 0 
L 628 4666 
z
" transform="scale(0.015625)"/>
       <path id="DejaVuSans-70" d="M 1159 525 
L 1159 -1331 
L 581 -1331 
L 581 3500 
L 1159 3500 
L 1159 2969 
Q 1341 3281 1617 3432 
Q 1894 3584 2278 3584 
Q 2916 3584 3314 3078 
Q 3713 2572 3713 1747 
Q 3713 922 3314 415 
Q 2916 -91 2278 -91 
Q 1894 -91 1617 61 
Q 1341 213 1159 525 
z
M 3116 1747 
Q 3116 2381 2855 2742 
Q 2594 3103 2138 3103 
Q 1681 3103 1420 2742 
Q 1159 2381 1159 1747 
Q 1159 1113 1420 752 
Q 1681 391 2138 391 
Q 2594 391 2855 752 
Q 3116 1113 3116 1747 
z
" transform="scale(0.015625)"/>
       <path id="DejaVuSans-6f" d="M 1959 3097 
Q 1497 3097 1228 2736 
Q 959 2375 959 1747 
Q 959 1119 1226 758 
Q 1494 397 1959 397 
Q 2419 397 2687 759 
Q 2956 1122 2956 1747 
Q 2956 2369 2687 2733 
Q 2419 3097 1959 3097 
z
M 1959 3584 
Q 2709 3584 3137 3096 
Q 3566 2609 3566 1747 
Q 3566 888 3137 398 
Q 2709 -91 1959 -91 
Q 1206 -91 779 398 
Q 353 888 353 1747 
Q 353 2609 779 3096 
Q 1206 3584 1959 3584 
z
" transform="scale(0.015625)"/>
       <path id="DejaVuSans-63" d="M 3122 3366 
L 3122 2828 
Q 2878 2963 2633 3030 
Q 2388 3097 2138 3097 
Q 1578 3097 1268 2742 
Q 959 2388 959 1747 
Q 959 1106 1268 751 
Q 1578 397 2138 397 
Q 2388 397 2633 464 
Q 2878 531 3122 666 
L 3122 134 
Q 2881 22 2623 -34 
Q 2366 -91 2075 -91 
Q 1284 -91 818 406 
Q 353 903 353 1747 
Q 353 2603 823 3093 
Q 1294 3584 2113 3584 
Q 2378 3584 2631 3529 
Q 2884 3475 3122 3366 
z
" transform="scale(0.015625)"/>
       <path id="DejaVuSans-68" d="M 3513 2113 
L 3513 0 
L 2938 0 
L 2938 2094 
Q 2938 2591 2744 2837 
Q 2550 3084 2163 3084 
Q 1697 3084 1428 2787 
Q 1159 2491 1159 1978 
L 1159 0 
L 581 0 
L 581 4863 
L 1159 4863 
L 1159 2956 
Q 1366 3272 1645 3428 
Q 1925 3584 2291 3584 
Q 2894 3584 3203 3211 
Q 3513 2838 3513 2113 
z
" transform="scale(0.015625)"/>
       <path id="DejaVuSans-73" d="M 2834 3397 
L 2834 2853 
Q 2591 2978 2328 3040 
Q 2066 3103 1784 3103 
Q 1356 3103 1142 2972 
Q 928 2841 928 2578 
Q 928 2378 1081 2264 
Q 1234 2150 1697 2047 
L 1894 2003 
Q 2506 1872 2764 1633 
Q 3022 1394 3022 966 
Q 3022 478 2636 193 
Q 2250 -91 1575 -91 
Q 1294 -91 989 -36 
Q 684 19 347 128 
L 347 722 
Q 666 556 975 473 
Q 1284 391 1588 391 
Q 1994 391 2212 530 
Q 2431 669 2431 922 
Q 2431 1156 2273 1281 
Q 2116 1406 1581 1522 
L 1381 1569 
Q 847 1681 609 1914 
Q 372 2147 372 2553 
Q 372 3047 722 3315 
Q 1072 3584 1716 3584 
Q 2034 3584 2315 3537 
Q 2597 3491 2834 3397 
z
" transform="scale(0.015625)"/>
      </defs>
      <use xlink:href="#DejaVuSans-45"/>
      <use xlink:href="#DejaVuSans-70" x="63.183594"/>
      <use xlink:href="#DejaVuSans-6f" x="126.660156"/>
      <use xlink:href="#DejaVuSans-63" x="187.841797"/>
      <use xlink:href="#DejaVuSans-68" x="242.822266"/>
      <use xlink:href="#DejaVuSans-73" x="306.201172"/>
     </g>
    </g>
   </g>
   <g id="matplotlib.axis_2">
    <g id="ytick_1">
     <g id="line2d_11">
      <defs>
       <path id="ma7b2723a3b" d="M 0 0 
L -3.5 0 
" style="stroke: #000000; stroke-width: 0.8"/>
      </defs>
      <g>
       <use xlink:href="#ma7b2723a3b" x="57.6" y="282.077257" style="stroke: #000000; stroke-width: 0.8"/>
      </g>
     </g>
     <g id="text_12">
      <!-- 10 -->
      <g transform="translate(37.875 285.876475) scale(0.1 -0.1)">
       <use xlink:href="#DejaVuSans-31"/>
       <use xlink:href="#DejaVuSans-30" x="63.623047"/>
      </g>
     </g>
    </g>
    <g id="ytick_2">
     <g id="line2d_12">
      <g>
       <use xlink:href="#ma7b2723a3b" x="57.6" y="250.45843" style="stroke: #000000; stroke-width: 0.8"/>
      </g>
     </g>
     <g id="text_13">
      <!-- 20 -->
      <g transform="translate(37.875 254.257649) scale(0.1 -0.1)">
       <use xlink:href="#DejaVuSans-32"/>
       <use xlink:href="#DejaVuSans-30" x="63.623047"/>
      </g>
     </g>
    </g>
    <g id="ytick_3">
     <g id="line2d_13">
      <g>
       <use xlink:href="#ma7b2723a3b" x="57.6" y="218.839604" style="stroke: #000000; stroke-width: 0.8"/>
      </g>
     </g>
     <g id="text_14">
      <!-- 30 -->
      <g transform="translate(37.875 222.638823) scale(0.1 -0.1)">
       <use xlink:href="#DejaVuSans-33"/>
       <use xlink:href="#DejaVuSans-30" x="63.623047"/>
      </g>
     </g>
    </g>
    <g id="ytick_4">
     <g id="line2d_14">
      <g>
       <use xlink:href="#ma7b2723a3b" x="57.6" y="187.220778" style="stroke: #000000; stroke-width: 0.8"/>
      </g>
     </g>
     <g id="text_15">
      <!-- 40 -->
      <g transform="translate(37.875 191.019997) scale(0.1 -0.1)">
       <use xlink:href="#DejaVuSans-34"/>
       <use xlink:href="#DejaVuSans-30" x="63.623047"/>
      </g>
     </g>
    </g>
    <g id="ytick_5">
     <g id="line2d_15">
      <g>
       <use xlink:href="#ma7b2723a3b" x="57.6" y="155.601952" style="stroke: #000000; stroke-width: 0.8"/>
      </g>
     </g>
     <g id="text_16">
      <!-- 50 -->
      <g transform="translate(37.875 159.401171) scale(0.1 -0.1)">
       <defs>
        <path id="DejaVuSans-35" d="M 691 4666 
L 3169 4666 
L 3169 4134 
L 1269 4134 
L 1269 2991 
Q 1406 3038 1543 3061 
Q 1681 3084 1819 3084 
Q 2600 3084 3056 2656 
Q 3513 2228 3513 1497 
Q 3513 744 3044 326 
Q 2575 -91 1722 -91 
Q 1428 -91 1123 -41 
Q 819 9 494 109 
L 494 744 
Q 775 591 1075 516 
Q 1375 441 1709 441 
Q 2250 441 2565 725 
Q 2881 1009 2881 1497 
Q 2881 1984 2565 2268 
Q 2250 2553 1709 2553 
Q 1456 2553 1204 2497 
Q 953 2441 691 2322 
L 691 4666 
z
" transform="scale(0.015625)"/>
       </defs>
       <use xlink:href="#DejaVuSans-35"/>
       <use xlink:href="#DejaVuSans-30" x="63.623047"/>
      </g>
     </g>
    </g>
    <g id="ytick_6">
     <g id="line2d_16">
      <g>
       <use xlink:href="#ma7b2723a3b" x="57.6" y="123.983126" style="stroke: #000000; stroke-width: 0.8"/>
      </g>
     </g>
     <g id="text_17">
      <!-- 60 -->
      <g transform="translate(37.875 127.782345) scale(0.1 -0.1)">
       <use xlink:href="#DejaVuSans-36"/>
       <use xlink:href="#DejaVuSans-30" x="63.623047"/>
      </g>
     </g>
    </g>
    <g id="ytick_7">
     <g id="line2d_17">
      <g>
       <use xlink:href="#ma7b2723a3b" x="57.6" y="92.3643" style="stroke: #000000; stroke-width: 0.8"/>
      </g>
     </g>
     <g id="text_18">
      <!-- 70 -->
      <g transform="translate(37.875 96.163518) scale(0.1 -0.1)">
       <use xlink:href="#DejaVuSans-37"/>
       <use xlink:href="#DejaVuSans-30" x="63.623047"/>
      </g>
     </g>
    </g>
    <g id="ytick_8">
     <g id="line2d_18">
      <g>
       <use xlink:href="#ma7b2723a3b" x="57.6" y="60.745474" style="stroke: #000000; stroke-width: 0.8"/>
      </g>
     </g>
     <g id="text_19">
      <!-- 80 -->
      <g transform="translate(37.875 64.544692) scale(0.1 -0.1)">
       <defs>
        <path id="DejaVuSans-38" d="M 2034 2216 
Q 1584 2216 1326 1975 
Q 1069 1734 1069 1313 
Q 1069 891 1326 650 
Q 1584 409 2034 409 
Q 2484 409 2743 651 
Q 3003 894 3003 1313 
Q 3003 1734 2745 1975 
Q 2488 2216 2034 2216 
z
M 1403 2484 
Q 997 2584 770 2862 
Q 544 3141 544 3541 
Q 544 4100 942 4425 
Q 1341 4750 2034 4750 
Q 2731 4750 3128 4425 
Q 3525 4100 3525 3541 
Q 3525 3141 3298 2862 
Q 3072 2584 2669 2484 
Q 3125 2378 3379 2068 
Q 3634 1759 3634 1313 
Q 3634 634 3220 271 
Q 2806 -91 2034 -91 
Q 1263 -91 848 271 
Q 434 634 434 1313 
Q 434 1759 690 2068 
Q 947 2378 1403 2484 
z
M 1172 3481 
Q 1172 3119 1398 2916 
Q 1625 2713 2034 2713 
Q 2441 2713 2670 2916 
Q 2900 3119 2900 3481 
Q 2900 3844 2670 4047 
Q 2441 4250 2034 4250 
Q 1625 4250 1398 4047 
Q 1172 3844 1172 3481 
z
" transform="scale(0.015625)"/>
       </defs>
       <use xlink:href="#DejaVuSans-38"/>
       <use xlink:href="#DejaVuSans-30" x="63.623047"/>
      </g>
     </g>
    </g>
    <g id="text_20">
     <!-- Accuracy -->
     <g transform="translate(31.795312 197.356125) rotate(-90) scale(0.1 -0.1)">
      <defs>
       <path id="DejaVuSans-41" d="M 2188 4044 
L 1331 1722 
L 3047 1722 
L 2188 4044 
z
M 1831 4666 
L 2547 4666 
L 4325 0 
L 3669 0 
L 3244 1197 
L 1141 1197 
L 716 0 
L 50 0 
L 1831 4666 
z
" transform="scale(0.015625)"/>
       <path id="DejaVuSans-75" d="M 544 1381 
L 544 3500 
L 1119 3500 
L 1119 1403 
Q 1119 906 1312 657 
Q 1506 409 1894 409 
Q 2359 409 2629 706 
Q 2900 1003 2900 1516 
L 2900 3500 
L 3475 3500 
L 3475 0 
L 2900 0 
L 2900 538 
Q 2691 219 2414 64 
Q 2138 -91 1772 -91 
Q 1169 -91 856 284 
Q 544 659 544 1381 
z
M 1991 3584 
L 1991 3584 
z
" transform="scale(0.015625)"/>
       <path id="DejaVuSans-72" d="M 2631 2963 
Q 2534 3019 2420 3045 
Q 2306 3072 2169 3072 
Q 1681 3072 1420 2755 
Q 1159 2438 1159 1844 
L 1159 0 
L 581 0 
L 581 3500 
L 1159 3500 
L 1159 2956 
Q 1341 3275 1631 3429 
Q 1922 3584 2338 3584 
Q 2397 3584 2469 3576 
Q 2541 3569 2628 3553 
L 2631 2963 
z
" transform="scale(0.015625)"/>
       <path id="DejaVuSans-61" d="M 2194 1759 
Q 1497 1759 1228 1600 
Q 959 1441 959 1056 
Q 959 750 1161 570 
Q 1363 391 1709 391 
Q 2188 391 2477 730 
Q 2766 1069 2766 1631 
L 2766 1759 
L 2194 1759 
z
M 3341 1997 
L 3341 0 
L 2766 0 
L 2766 531 
Q 2569 213 2275 61 
Q 1981 -91 1556 -91 
Q 1019 -91 701 211 
Q 384 513 384 1019 
Q 384 1609 779 1909 
Q 1175 2209 1959 2209 
L 2766 2209 
L 2766 2266 
Q 2766 2663 2505 2880 
Q 2244 3097 1772 3097 
Q 1472 3097 1187 3025 
Q 903 2953 641 2809 
L 641 3341 
Q 956 3463 1253 3523 
Q 1550 3584 1831 3584 
Q 2591 3584 2966 3190 
Q 3341 2797 3341 1997 
z
" transform="scale(0.015625)"/>
       <path id="DejaVuSans-79" d="M 2059 -325 
Q 1816 -950 1584 -1140 
Q 1353 -1331 966 -1331 
L 506 -1331 
L 506 -850 
L 844 -850 
Q 1081 -850 1212 -737 
Q 1344 -625 1503 -206 
L 1606 56 
L 191 3500 
L 800 3500 
L 1894 763 
L 2988 3500 
L 3597 3500 
L 2059 -325 
z
" transform="scale(0.015625)"/>
      </defs>
      <use xlink:href="#DejaVuSans-41"/>
      <use xlink:href="#DejaVuSans-63" x="66.658203"/>
      <use xlink:href="#DejaVuSans-63" x="121.638672"/>
      <use xlink:href="#DejaVuSans-75" x="176.619141"/>
      <use xlink:href="#DejaVuSans-72" x="239.998047"/>
      <use xlink:href="#DejaVuSans-61" x="281.111328"/>
      <use xlink:href="#DejaVuSans-63" x="342.390625"/>
      <use xlink:href="#DejaVuSans-79" x="397.371094"/>
     </g>
    </g>
   </g>
   <g id="line2d_19">
    <path d="M 73.832727 287.744931 
L 74.918528 253.169745 
L 76.00433 230.842901 
L 77.090131 212.065271 
L 79.261733 188.892624 
L 80.347534 179.355595 
L 81.433335 171.640602 
L 84.690739 153.171255 
L 86.862341 142.681709 
L 87.948142 138.705642 
L 89.033943 134.156483 
L 90.119745 130.615175 
L 91.205546 126.417775 
L 93.377148 122.987133 
L 94.462949 121.947664 
L 95.54875 152.459831 
L 96.634552 151.81955 
L 98.806154 145.602498 
L 102.063557 136.492324 
L 103.149358 134.927192 
L 104.23516 131.769262 
L 105.320961 130.038131 
L 106.406762 127.820861 
L 107.492563 125.279498 
L 108.578364 123.164989 
L 109.664165 121.983235 
L 110.749967 119.224492 
L 111.835768 118.149452 
L 112.921569 114.991522 
L 114.00737 113.3592 
L 116.178972 109.659798 
L 117.264773 107.078911 
L 118.350575 106.209393 
L 119.436376 103.320223 
L 120.522177 102.25704 
L 121.607978 99.826343 
L 122.693779 98.877778 
L 123.77958 97.051791 
L 124.865382 94.656665 
L 125.951183 93.233817 
L 127.036984 91.411783 
L 128.122785 91.20626 
L 129.208586 88.388232 
L 130.294387 87.83095 
L 131.380189 86.226295 
L 132.46599 85.333063 
L 134.637592 82.977461 
L 135.723393 82.578273 
L 137.894995 82.965604 
L 138.980797 116.232561 
L 140.066598 118.485402 
L 141.152399 119.15335 
L 142.2382 117.584266 
L 143.324001 116.762176 
L 144.409802 116.453893 
L 145.495604 114.402621 
L 147.667206 112.631967 
L 148.753007 110.900836 
L 149.838808 111.098454 
L 152.01041 108.043285 
L 153.096212 108.426663 
L 154.182013 107.24491 
L 155.267814 106.268678 
L 157.439416 105.01183 
L 158.525217 104.501977 
L 159.611019 103.494126 
L 160.69682 102.170088 
L 161.782621 101.600949 
L 162.868422 100.4271 
L 163.954223 100.300625 
L 165.040024 99.885628 
L 166.125825 99.834247 
L 168.297428 97.039934 
L 169.383229 96.842316 
L 170.46903 95.976751 
L 171.554831 94.123097 
L 172.640632 94.040097 
L 173.726434 94.31281 
L 174.812235 92.463109 
L 176.983837 91.107451 
L 178.069638 89.147084 
L 179.155439 89.585795 
L 180.24124 87.937664 
L 181.327042 87.475239 
L 182.412843 86.384389 
L 183.498644 86.309294 
L 185.670246 84.597926 
L 187.841849 81.416281 
L 188.92765 80.938046 
L 190.013451 79.843245 
L 191.099252 80.119909 
L 193.270854 77.515308 
L 194.356656 77.183311 
L 195.442457 75.499608 
L 196.528258 75.381038 
L 197.614059 74.053047 
L 198.69986 73.989809 
L 199.785661 72.918722 
L 200.871462 71.507731 
L 201.957264 71.250829 
L 203.043065 70.776546 
L 204.128866 69.630364 
L 205.214667 67.713472 
L 206.300468 67.930852 
L 207.386269 66.70167 
L 208.472071 66.654242 
L 209.557872 65.986294 
L 210.643673 65.069348 
L 211.729474 63.654406 
L 212.815275 63.970594 
L 213.901076 63.365884 
L 214.986877 62.172273 
L 216.072679 62.405462 
L 217.15848 62.286891 
L 218.244281 61.116995 
L 219.330082 61.132804 
L 220.415883 61.350184 
L 221.501684 60.480666 
L 222.587486 61.24347 
L 223.673287 60.816616 
L 224.759088 61.030043 
L 225.844889 100.118817 
L 226.93069 103.948647 
L 228.016491 103.940742 
L 229.102292 103.806362 
L 230.188094 102.517895 
L 231.273895 103.027749 
L 232.359696 101.877614 
L 233.445497 102.063375 
L 234.531298 100.589147 
L 235.617099 101.023906 
L 237.788702 99.593154 
L 238.874503 100.083246 
L 239.960304 98.739445 
L 241.046105 98.498352 
L 242.131906 98.692017 
L 243.217708 98.154497 
L 244.303509 96.221796 
L 245.38931 96.826507 
L 247.560912 96.292939 
L 248.646713 95.7238 
L 249.732514 95.534087 
L 250.818316 95.711943 
L 252.989918 95.198137 
L 255.16152 92.992724 
L 256.247321 92.372204 
L 257.333123 93.526292 
L 258.418924 93.040152 
L 259.504725 92.127158 
L 260.590526 92.791154 
L 261.676327 91.605448 
L 262.762128 91.767494 
L 263.847929 91.285307 
L 264.933731 91.510591 
L 266.019532 91.091642 
L 267.105333 91.637067 
L 268.191134 89.99684 
L 269.276935 90.479027 
L 270.362736 89.743889 
L 271.448538 89.502796 
L 272.534339 88.091806 
L 273.62014 89.158941 
L 274.705941 89.028514 
L 275.791742 88.103663 
L 276.877543 88.044378 
L 277.963344 86.321152 
L 279.049146 87.281573 
L 280.134947 87.329002 
L 281.220748 86.087963 
L 282.306549 87.178812 
L 283.39235 85.499062 
L 284.478151 85.42792 
L 285.563953 85.131493 
L 286.649754 85.218445 
L 287.735555 83.688884 
L 288.821356 84.763924 
L 289.907157 85.048494 
L 290.992958 83.364791 
L 292.07876 83.720503 
L 293.164561 82.400417 
L 294.250362 83.115793 
L 295.336163 82.222561 
L 296.421964 82.325322 
L 297.507765 81.937992 
L 298.593566 80.262194 
L 299.679368 80.787857 
L 301.85097 79.973672 
L 302.936771 78.728681 
L 304.022572 79.021155 
L 305.108373 79.005346 
L 306.194175 78.851204 
L 307.279976 78.839347 
L 309.451578 77.313738 
L 310.537379 76.369126 
L 311.62318 76.34146 
L 312.708981 75.772321 
L 313.794783 76.009462 
L 314.880584 75.396847 
L 315.966385 74.594519 
L 318.137987 74.811899 
L 319.223788 74.219046 
L 320.30959 74.392949 
L 321.395391 73.155863 
L 322.481192 71.721159 
L 323.566993 72.219155 
L 324.652794 71.266638 
L 325.738595 71.345685 
L 326.824396 70.499881 
L 327.910198 70.120455 
L 328.995999 69.207462 
L 332.253402 68.950559 
L 333.339203 67.543521 
L 334.425005 67.713472 
L 335.510806 67.503998 
L 336.596607 66.286673 
L 337.682408 66.02977 
L 338.768209 66.156245 
L 339.85401 65.365775 
L 340.939811 63.776928 
L 342.025613 63.650453 
L 343.111414 64.519971 
L 344.197215 62.709793 
L 345.283016 62.729555 
L 346.368817 61.891656 
L 348.54042 61.607087 
L 349.626221 60.966805 
L 350.712022 60.915425 
L 351.797823 59.34634 
L 352.883624 59.56372 
L 353.969425 58.508442 
L 355.055227 58.21992 
L 356.141028 58.176444 
L 357.226829 57.184403 
L 358.31263 57.488734 
L 359.398431 57.27926 
L 360.484232 55.959174 
L 361.570033 55.635081 
L 363.741636 53.639142 
L 364.827437 54.465184 
L 365.913238 54.579802 
L 366.999039 53.568 
L 368.08484 54.176662 
L 369.170642 55.931507 
L 370.256443 56.72593 
L 372.428045 59.6981 
L 374.599647 60.322572 
L 375.685448 60.247477 
L 376.77125 60.354191 
L 377.857051 60.611094 
L 378.942852 59.994526 
L 380.028653 60.239572 
L 381.114454 60.682236 
L 382.200255 60.160525 
L 383.286057 60.820568 
L 384.371858 60.812664 
L 385.457659 60.476714 
L 386.54346 60.871949 
L 387.629261 60.425333 
L 388.715062 60.626903 
L 389.800863 61.298803 
L 390.886665 60.547856 
L 393.058267 61.362041 
L 395.229869 60.784997 
L 396.31567 60.931234 
L 398.487273 60.788949 
L 398.487273 60.788949 
" clip-path="url(#pf58fe3616a)" style="fill: none; stroke: #1f77b4; stroke-width: 1.5; stroke-linecap: square"/>
   </g>
   <g id="line2d_20">
    <path d="M 73.832727 276.433296 
L 74.918528 251.612518 
L 76.00433 239.613173 
L 77.090131 231.455516 
L 78.175932 224.831372 
L 79.261733 205.354175 
L 80.347534 203.551902 
L 81.433335 198.793268 
L 82.519137 195.267769 
L 83.604938 181.450342 
L 84.690739 179.09474 
L 85.77654 169.340332 
L 86.862341 167.838438 
L 87.948142 161.467244 
L 89.033943 162.463237 
L 90.119745 155.11186 
L 91.205546 153.072446 
L 92.291347 150.226752 
L 93.377148 149.4679 
L 94.462949 148.946189 
L 95.54875 183.964039 
L 96.634552 180.470159 
L 97.720353 186.35126 
L 98.806154 180.517587 
L 99.891955 171.632697 
L 100.977756 167.711962 
L 102.063557 173.814396 
L 103.149358 164.376176 
L 104.23516 162.637141 
L 105.320961 158.953548 
L 106.406762 158.08403 
L 107.492563 159.269736 
L 108.578364 162.036383 
L 109.664165 150.574559 
L 110.749967 153.009208 
L 111.835768 149.531137 
L 112.921569 146.890965 
L 114.00737 142.069094 
L 115.093171 138.353882 
L 116.178972 138.085122 
L 117.264773 138.243216 
L 118.350575 139.444732 
L 119.436376 135.871804 
L 120.522177 131.603263 
L 121.607978 136.614847 
L 122.693779 128.71014 
L 123.77958 125.311117 
L 124.865382 124.900072 
L 125.951183 121.105813 
L 127.036984 121.896283 
L 128.122785 122.338947 
L 129.208586 119.55649 
L 130.294387 119.28773 
L 131.380189 117.817455 
L 132.46599 114.955951 
L 133.551791 113.343391 
L 134.637592 114.671382 
L 135.723393 113.707007 
L 136.809194 114.244527 
L 137.894995 114.070624 
L 138.980797 152.851114 
L 140.066598 150.00542 
L 141.152399 147.934387 
L 142.2382 150.843319 
L 143.324001 154.732434 
L 144.409802 150.416464 
L 145.495604 147.365248 
L 146.581405 141.199577 
L 147.667206 149.088474 
L 148.753007 143.080897 
L 149.838808 142.970231 
L 150.924609 139.998061 
L 152.01041 142.274617 
L 153.096212 141.895191 
L 154.182013 142.053285 
L 155.267814 138.891402 
L 157.439416 135.207809 
L 158.525217 140.108727 
L 159.611019 141.579003 
L 160.69682 138.259026 
L 161.782621 133.8482 
L 162.868422 133.753343 
L 163.954223 128.99471 
L 165.040024 135.840186 
L 166.125825 130.33851 
L 167.211627 127.856432 
L 168.297428 136.725513 
L 169.383229 131.777166 
L 170.46903 131.445169 
L 171.554831 129.927465 
L 172.640632 123.840841 
L 173.726434 126.228062 
L 175.898036 123.556272 
L 176.983837 124.251886 
L 178.069638 118.307547 
L 179.155439 123.255893 
L 180.24124 119.682965 
L 181.327042 122.623516 
L 182.412843 116.173276 
L 183.498644 114.671382 
L 184.584445 112.774252 
L 185.670246 120.789624 
L 186.756047 114.71881 
L 187.841849 114.070624 
L 188.92765 111.604355 
L 190.013451 111.035217 
L 191.099252 111.351405 
L 192.185053 107.810096 
L 193.270854 107.984 
L 194.356656 109.612369 
L 195.442457 108.189522 
L 196.528258 108.995802 
L 197.614059 105.28059 
L 198.69986 105.233162 
L 199.785661 104.569167 
L 200.871462 102.640418 
L 201.957264 102.561371 
L 203.043065 101.51795 
L 204.128866 98.466733 
L 205.214667 99.320441 
L 206.300468 100.901383 
L 207.386269 98.324448 
L 208.472071 96.474747 
L 209.557872 95.905608 
L 210.643673 97.217789 
L 211.729474 95.447135 
L 212.815275 95.621039 
L 213.901076 94.78314 
L 214.986877 95.178375 
L 216.072679 94.609236 
L 217.15848 93.866194 
L 218.244281 94.403714 
L 219.330082 94.277239 
L 220.415883 93.059914 
L 221.501684 92.712107 
L 222.587486 93.42353 
L 223.673287 93.43934 
L 224.759088 93.644862 
L 225.844889 137.405318 
L 226.93069 140.788532 
L 228.016491 135.555616 
L 229.102292 142.543377 
L 230.188094 138.021885 
L 231.273895 146.242779 
L 232.359696 133.057729 
L 233.445497 132.75735 
L 234.531298 132.188211 
L 235.617099 133.500392 
L 236.702901 135.935042 
L 237.788702 132.48859 
L 238.874503 135.871804 
L 239.960304 134.63867 
L 241.046105 145.404881 
L 242.131906 140.978245 
L 243.217708 128.362333 
L 244.303509 139.381494 
L 245.38931 136.646466 
L 246.475111 134.780955 
L 247.560912 126.370347 
L 248.646713 136.472562 
L 249.732514 128.899853 
L 250.818316 131.034124 
L 251.904117 127.587672 
L 252.989918 127.967098 
L 254.075719 125.153022 
L 255.16152 134.069531 
L 256.247321 125.848637 
L 257.333123 122.813229 
L 258.418924 135.018096 
L 259.504725 130.101369 
L 260.590526 122.971323 
L 261.676327 126.813011 
L 262.762128 131.208028 
L 263.847929 130.132987 
L 264.933731 127.666719 
L 266.019532 124.220267 
L 267.105333 129.105376 
L 268.191134 132.109164 
L 269.276935 126.449394 
L 271.448538 121.406191 
L 272.534339 131.982689 
L 273.62014 118.813448 
L 274.705941 128.789187 
L 275.791742 119.430015 
L 276.877543 132.820588 
L 277.963344 134.780955 
L 279.049146 125.595686 
L 280.134947 124.504836 
L 281.220748 122.749992 
L 282.306549 120.394389 
L 283.39235 124.979119 
L 284.478151 123.919888 
L 285.563953 125.311117 
L 286.649754 119.540681 
L 287.735555 119.55649 
L 288.821356 118.781829 
L 289.907157 118.434022 
L 290.992958 121.327144 
L 292.07876 118.829257 
L 293.164561 119.619728 
L 294.250362 113.564723 
L 295.336163 116.141657 
L 296.421964 116.0468 
L 297.507765 114.592334 
L 298.593566 120.852862 
L 299.679368 112.774252 
L 300.765169 116.505273 
L 302.936771 113.185297 
L 304.022572 117.232506 
L 305.108373 115.651565 
L 306.194175 112.758443 
L 307.279976 113.959958 
L 308.365777 115.825469 
L 309.451578 112.394826 
L 310.537379 114.402621 
L 311.62318 111.319786 
L 312.708981 109.896939 
L 313.794783 110.624172 
L 314.880584 110.197318 
L 315.966385 107.320004 
L 317.052186 107.509717 
L 318.137987 111.604355 
L 319.223788 116.615939 
L 320.30959 105.944585 
L 321.395391 108.268569 
L 322.481192 109.675607 
L 323.566993 106.260774 
L 324.652794 107.541336 
L 325.738595 106.656009 
L 326.824396 107.146101 
L 327.910198 102.498133 
L 328.995999 103.051463 
L 330.0818 103.256985 
L 331.167601 103.604792 
L 332.253402 107.193529 
L 333.339203 103.177938 
L 334.425005 100.031865 
L 335.510806 100.901383 
L 336.596607 106.592771 
L 337.682408 100.601004 
L 338.768209 102.229373 
L 339.85401 98.055688 
L 340.939811 98.02407 
L 342.025613 97.676262 
L 343.111414 95.953036 
L 344.197215 96.095321 
L 345.283016 98.308639 
L 346.368817 96.553794 
L 347.454618 95.636848 
L 348.54042 97.897594 
L 349.626221 94.814759 
L 350.712022 93.992669 
L 351.797823 97.7395 
L 352.883624 95.842371 
L 353.969425 92.996676 
L 355.055227 93.676481 
L 356.141028 94.688283 
L 357.226829 92.127158 
L 358.31263 92.838582 
L 359.398431 91.510591 
L 360.484232 92.285253 
L 361.570033 90.166791 
L 362.655835 92.395918 
L 363.741636 92.063921 
L 365.913238 89.66089 
L 366.999039 89.739937 
L 368.08484 91.067928 
L 369.170642 92.743726 
L 370.256443 94.957043 
L 371.342244 98.529971 
L 372.428045 96.237606 
L 373.513846 94.862187 
L 374.599647 94.545999 
L 375.685448 98.039879 
L 376.77125 97.723691 
L 377.857051 95.826561 
L 378.942852 98.972634 
L 380.028653 96.474747 
L 381.114454 96.095321 
L 382.200255 95.984655 
L 383.286057 96.759317 
L 384.371858 96.205987 
L 385.457659 97.75531 
L 386.54346 96.66446 
L 387.629261 100.553576 
L 388.715062 99.446917 
L 389.800863 98.798731 
L 390.886665 96.427319 
L 391.972466 99.162347 
L 393.058267 96.617032 
L 394.144068 95.431326 
L 395.229869 96.727698 
L 396.31567 95.842371 
L 397.401472 96.854173 
L 398.487273 96.300844 
L 398.487273 96.300844 
" clip-path="url(#pf58fe3616a)" style="fill: none; stroke: #ff7f0e; stroke-width: 1.5; stroke-linecap: square"/>
   </g>
   <g id="line2d_21">
    <path d="M 73.832727 295.488 
L 74.918528 282.295317 
L 76.00433 279.787617 
L 77.090131 272.482578 
L 78.175932 272.155487 
L 79.261733 262.99693 
L 80.347534 263.105961 
L 81.433335 265.50463 
L 82.519137 263.214991 
L 83.604938 255.146739 
L 84.690739 252.530009 
L 85.77654 248.495883 
L 86.862341 248.059761 
L 87.948142 246.642365 
L 89.033943 247.732669 
L 90.119745 243.916604 
L 91.205546 244.352726 
L 93.377148 240.3186 
L 94.462949 240.754722 
L 95.54875 259.616987 
L 96.634552 258.199591 
L 97.720353 260.925352 
L 98.806154 257.109287 
L 99.891955 249.477156 
L 100.977756 244.897878 
L 102.063557 252.420978 
L 103.149358 254.819648 
L 104.23516 246.206243 
L 106.406762 244.461756 
L 107.492563 245.988183 
L 108.578364 248.822974 
L 109.664165 239.773448 
L 110.749967 241.081813 
L 111.835768 246.097213 
L 112.921569 238.356052 
L 114.00737 235.194169 
L 116.178972 233.558713 
L 117.264773 239.991509 
L 118.350575 236.829626 
L 119.436376 231.378104 
L 120.522177 229.633617 
L 121.607978 235.957383 
L 122.693779 231.160043 
L 123.77958 227.7801 
L 124.865382 226.035613 
L 125.951183 225.599491 
L 127.036984 225.926582 
L 128.122785 229.415556 
L 129.208586 225.490461 
L 130.294387 222.328578 
L 131.380189 222.546639 
L 133.551791 218.403482 
L 135.723393 219.057665 
L 137.894995 220.147969 
L 138.980797 245.44303 
L 140.066598 239.991509 
L 141.152399 242.8263 
L 142.2382 242.93533 
L 143.324001 237.701869 
L 144.409802 240.972783 
L 145.495604 238.683143 
L 146.581405 235.957383 
L 147.667206 241.954056 
L 148.753007 233.231622 
L 149.838808 238.683143 
L 150.924609 238.574113 
L 152.01041 238.901204 
L 153.096212 236.502535 
L 154.182013 240.754722 
L 155.267814 235.630291 
L 156.353615 231.269074 
L 157.439416 230.614891 
L 158.525217 239.664417 
L 159.611019 239.119265 
L 160.69682 232.686469 
L 161.782621 229.851678 
L 162.868422 230.178769 
L 163.954223 231.705196 
L 165.040024 235.085139 
L 166.125825 230.39683 
L 167.211627 228.107191 
L 168.297428 236.720596 
L 169.383229 229.415556 
L 170.46903 230.832952 
L 171.554831 230.614891 
L 172.640632 221.674396 
L 173.726434 225.926582 
L 174.812235 226.689796 
L 175.898036 221.565365 
L 176.983837 223.527913 
L 178.069638 225.926582 
L 179.155439 227.125917 
L 180.24124 221.892456 
L 181.327042 226.471735 
L 182.412843 218.621543 
L 183.498644 222.655669 
L 184.584445 222.982761 
L 185.670246 222.7647 
L 186.756047 219.711848 
L 187.841849 215.786752 
L 188.92765 218.730574 
L 190.013451 210.989413 
L 191.099252 214.696448 
L 193.270854 215.459661 
L 194.356656 216.986087 
L 195.442457 214.478387 
L 196.528258 213.933235 
L 197.614059 205.428861 
L 198.69986 207.609469 
L 199.785661 209.135896 
L 201.957264 208.154622 
L 203.043065 209.026865 
L 204.128866 204.447587 
L 205.214667 210.553291 
L 206.300468 204.992739 
L 207.386269 205.755952 
L 208.472071 205.101769 
L 209.557872 202.81213 
L 210.643673 204.665648 
L 211.729474 204.447587 
L 212.815275 203.793404 
L 213.901076 204.120496 
L 214.986877 204.883709 
L 216.072679 205.2108 
L 217.15848 202.7031 
L 218.244281 204.883709 
L 219.330082 202.921161 
L 220.415883 203.357282 
L 221.501684 203.030191 
L 222.587486 202.485039 
L 223.673287 204.120496 
L 224.759088 203.357282 
L 225.844889 230.723922 
L 226.93069 238.683143 
L 228.016491 235.085139 
L 229.102292 235.41223 
L 230.188094 231.269074 
L 231.273895 239.337326 
L 232.359696 231.705196 
L 233.445497 229.960709 
L 234.531298 228.543313 
L 235.617099 231.051013 
L 236.702901 231.814226 
L 237.788702 235.085139 
L 238.874503 236.393504 
L 239.960304 232.577439 
L 241.046105 243.698543 
L 242.131906 240.42763 
L 243.217708 230.178769 
L 244.303509 236.393504 
L 245.38931 236.938656 
L 246.475111 235.739322 
L 247.560912 228.216222 
L 248.646713 230.832952 
L 249.732514 223.745974 
L 250.818316 227.562039 
L 251.904117 226.144643 
L 252.989918 227.016887 
L 254.075719 220.147969 
L 255.16152 230.505861 
L 256.247321 223.636943 
L 257.333123 223.091791 
L 258.418924 235.739322 
L 259.504725 230.832952 
L 260.590526 225.2724 
L 261.676327 223.309852 
L 262.762128 231.923256 
L 263.847929 230.505861 
L 264.933731 226.362704 
L 266.019532 229.851678 
L 267.105333 226.689796 
L 268.191134 230.614891 
L 269.276935 226.580765 
L 270.362736 223.200822 
L 271.448538 223.091791 
L 272.534339 230.614891 
L 273.62014 222.982761 
L 274.705941 226.035613 
L 275.791742 220.802152 
L 276.877543 232.032287 
L 277.963344 232.032287 
L 279.049146 225.926582 
L 280.134947 220.693122 
L 281.220748 229.960709 
L 282.306549 228.107191 
L 283.39235 227.7801 
L 284.478151 229.524587 
L 285.563953 233.231622 
L 286.649754 222.982761 
L 287.735555 224.618217 
L 288.821356 220.693122 
L 289.907157 220.802152 
L 290.992958 228.325252 
L 292.07876 219.057665 
L 293.164561 219.275726 
L 294.250362 221.238274 
L 295.336163 215.132569 
L 296.421964 220.147969 
L 297.507765 214.805478 
L 299.679368 222.7647 
L 300.765169 217.640269 
L 301.85097 223.200822 
L 302.936771 215.2416 
L 304.022572 224.945309 
L 305.108373 225.163369 
L 306.194175 218.294452 
L 307.279976 218.403482 
L 308.365777 220.257 
L 309.451578 219.275726 
L 310.537379 217.422209 
L 311.62318 220.693122 
L 312.708981 223.200822 
L 313.794783 218.512513 
L 314.880584 221.674396 
L 315.966385 212.624869 
L 317.052186 212.624869 
L 318.137987 215.459661 
L 319.223788 224.509187 
L 321.395391 212.84293 
L 322.481192 216.877056 
L 323.566993 214.042265 
L 324.652794 214.587417 
L 325.738595 214.914509 
L 326.824396 215.459661 
L 327.910198 211.534565 
L 328.995999 216.222874 
L 330.0818 211.316504 
L 331.167601 212.515839 
L 332.253402 214.369356 
L 333.339203 208.590743 
L 334.425005 207.609469 
L 335.510806 209.462987 
L 336.596607 216.877056 
L 337.682408 208.045591 
L 338.768209 210.662322 
L 339.85401 204.883709 
L 340.939811 210.771352 
L 342.025613 206.628196 
L 343.111414 205.974013 
L 344.197215 203.575343 
L 345.283016 208.808804 
L 346.368817 207.064317 
L 347.454618 202.594069 
L 348.54042 211.098443 
L 349.626221 207.609469 
L 350.712022 206.628196 
L 351.797823 207.936561 
L 352.883624 204.338556 
L 353.969425 204.665648 
L 355.055227 205.646922 
L 356.141028 204.665648 
L 357.226829 204.447587 
L 358.31263 206.628196 
L 359.398431 203.248252 
L 360.484232 202.266978 
L 361.570033 200.522491 
L 362.655835 203.030191 
L 363.741636 204.120496 
L 364.827437 204.120496 
L 365.913238 201.067643 
L 366.999039 203.793404 
L 368.08484 202.7031 
L 369.170642 207.500439 
L 370.256443 209.244926 
L 371.342244 211.970687 
L 372.428045 206.410135 
L 373.513846 207.173348 
L 374.599647 205.646922 
L 376.77125 210.771352 
L 377.857051 210.662322 
L 378.942852 211.316504 
L 380.028653 205.974013 
L 381.114454 204.556617 
L 382.200255 208.808804 
L 383.286057 207.173348 
L 384.371858 211.643596 
L 385.457659 208.263652 
L 386.54346 205.974013 
L 387.629261 209.026865 
L 388.715062 208.808804 
L 389.800863 206.628196 
L 390.886665 203.684374 
L 391.972466 209.681048 
L 393.058267 209.244926 
L 394.144068 205.537891 
L 395.229869 208.154622 
L 396.31567 204.229526 
L 397.401472 208.808804 
L 398.487273 210.2262 
L 398.487273 210.2262 
" clip-path="url(#pf58fe3616a)" style="fill: none; stroke: #2ca02c; stroke-width: 1.5; stroke-linecap: square"/>
   </g>
   <g id="line2d_22">
    <path d="M 368.08484 87.257859 
L 370.256443 96.980648 
L 371.342244 95.826561 
L 372.428045 95.0519 
L 373.513846 99.273013 
L 374.599647 100.933002 
L 375.685448 98.54578 
L 376.77125 99.178157 
L 377.857051 100.253197 
L 378.942852 102.877559 
L 380.028653 98.988444 
L 381.114454 98.751303 
L 382.200255 97.692072 
L 383.286057 100.648432 
L 384.371858 105.328018 
L 385.457659 98.245401 
L 386.54346 101.23338 
L 387.629261 105.217352 
L 388.715062 106.972197 
L 389.800863 102.814322 
L 390.886665 109.675607 
L 391.972466 110.118271 
L 393.058267 114.323574 
L 394.144068 120.014963 
L 395.229869 113.596341 
L 396.31567 115.461852 
L 397.401472 120.267914 
L 398.487273 127.018533 
L 398.487273 127.018533 
" clip-path="url(#pf58fe3616a)" style="fill: none; stroke: #d62728; stroke-width: 1.5; stroke-linecap: square"/>
   </g>
   <g id="line2d_23">
    <path d="M 368.08484 198.996065 
L 369.170642 200.30443 
L 370.256443 207.7185 
L 371.342244 204.883709 
L 372.428045 205.537891 
L 373.513846 207.282378 
L 374.599647 208.808804 
L 375.685448 212.188748 
L 376.77125 209.790078 
L 377.857051 214.478387 
L 378.942852 213.933235 
L 380.028653 205.755952 
L 381.114454 205.428861 
L 382.200255 203.575343 
L 383.286057 208.372682 
L 384.371858 212.079717 
L 385.457659 205.974013 
L 387.629261 215.023539 
L 388.715062 214.151296 
L 389.800863 207.7185 
L 390.886665 210.008139 
L 391.972466 214.805478 
L 393.058267 220.257 
L 394.144068 223.964035 
L 395.229869 216.549965 
L 396.31567 217.967361 
L 397.401472 219.602817 
L 398.487273 226.471735 
L 398.487273 226.471735 
" clip-path="url(#pf58fe3616a)" style="fill: none; stroke: #9467bd; stroke-width: 1.5; stroke-linecap: square"/>
   </g>
   <g id="patch_3">
    <path d="M 57.6 307.584 
L 57.6 41.472 
" style="fill: none; stroke: #000000; stroke-width: 0.8; stroke-linejoin: miter; stroke-linecap: square"/>
   </g>
   <g id="patch_4">
    <path d="M 414.72 307.584 
L 414.72 41.472 
" style="fill: none; stroke: #000000; stroke-width: 0.8; stroke-linejoin: miter; stroke-linecap: square"/>
   </g>
   <g id="patch_5">
    <path d="M 57.6 307.584 
L 414.72 307.584 
" style="fill: none; stroke: #000000; stroke-width: 0.8; stroke-linejoin: miter; stroke-linecap: square"/>
   </g>
   <g id="patch_6">
    <path d="M 57.6 41.472 
L 414.72 41.472 
" style="fill: none; stroke: #000000; stroke-width: 0.8; stroke-linejoin: miter; stroke-linecap: square"/>
   </g>
   <g id="text_21">
    <!-- Learning Curves -->
    <g transform="translate(187.37625 35.472) scale(0.12 -0.12)">
     <defs>
      <path id="DejaVuSans-4c" d="M 628 4666 
L 1259 4666 
L 1259 531 
L 3531 531 
L 3531 0 
L 628 0 
L 628 4666 
z
" transform="scale(0.015625)"/>
      <path id="DejaVuSans-65" d="M 3597 1894 
L 3597 1613 
L 953 1613 
Q 991 1019 1311 708 
Q 1631 397 2203 397 
Q 2534 397 2845 478 
Q 3156 559 3463 722 
L 3463 178 
Q 3153 47 2828 -22 
Q 2503 -91 2169 -91 
Q 1331 -91 842 396 
Q 353 884 353 1716 
Q 353 2575 817 3079 
Q 1281 3584 2069 3584 
Q 2775 3584 3186 3129 
Q 3597 2675 3597 1894 
z
M 3022 2063 
Q 3016 2534 2758 2815 
Q 2500 3097 2075 3097 
Q 1594 3097 1305 2825 
Q 1016 2553 972 2059 
L 3022 2063 
z
" transform="scale(0.015625)"/>
      <path id="DejaVuSans-6e" d="M 3513 2113 
L 3513 0 
L 2938 0 
L 2938 2094 
Q 2938 2591 2744 2837 
Q 2550 3084 2163 3084 
Q 1697 3084 1428 2787 
Q 1159 2491 1159 1978 
L 1159 0 
L 581 0 
L 581 3500 
L 1159 3500 
L 1159 2956 
Q 1366 3272 1645 3428 
Q 1925 3584 2291 3584 
Q 2894 3584 3203 3211 
Q 3513 2838 3513 2113 
z
" transform="scale(0.015625)"/>
      <path id="DejaVuSans-69" d="M 603 3500 
L 1178 3500 
L 1178 0 
L 603 0 
L 603 3500 
z
M 603 4863 
L 1178 4863 
L 1178 4134 
L 603 4134 
L 603 4863 
z
" transform="scale(0.015625)"/>
      <path id="DejaVuSans-67" d="M 2906 1791 
Q 2906 2416 2648 2759 
Q 2391 3103 1925 3103 
Q 1463 3103 1205 2759 
Q 947 2416 947 1791 
Q 947 1169 1205 825 
Q 1463 481 1925 481 
Q 2391 481 2648 825 
Q 2906 1169 2906 1791 
z
M 3481 434 
Q 3481 -459 3084 -895 
Q 2688 -1331 1869 -1331 
Q 1566 -1331 1297 -1286 
Q 1028 -1241 775 -1147 
L 775 -588 
Q 1028 -725 1275 -790 
Q 1522 -856 1778 -856 
Q 2344 -856 2625 -561 
Q 2906 -266 2906 331 
L 2906 616 
Q 2728 306 2450 153 
Q 2172 0 1784 0 
Q 1141 0 747 490 
Q 353 981 353 1791 
Q 353 2603 747 3093 
Q 1141 3584 1784 3584 
Q 2172 3584 2450 3431 
Q 2728 3278 2906 2969 
L 2906 3500 
L 3481 3500 
L 3481 434 
z
" transform="scale(0.015625)"/>
      <path id="DejaVuSans-20" transform="scale(0.015625)"/>
      <path id="DejaVuSans-43" d="M 4122 4306 
L 4122 3641 
Q 3803 3938 3442 4084 
Q 3081 4231 2675 4231 
Q 1875 4231 1450 3742 
Q 1025 3253 1025 2328 
Q 1025 1406 1450 917 
Q 1875 428 2675 428 
Q 3081 428 3442 575 
Q 3803 722 4122 1019 
L 4122 359 
Q 3791 134 3420 21 
Q 3050 -91 2638 -91 
Q 1578 -91 968 557 
Q 359 1206 359 2328 
Q 359 3453 968 4101 
Q 1578 4750 2638 4750 
Q 3056 4750 3426 4639 
Q 3797 4528 4122 4306 
z
" transform="scale(0.015625)"/>
      <path id="DejaVuSans-76" d="M 191 3500 
L 800 3500 
L 1894 563 
L 2988 3500 
L 3597 3500 
L 2284 0 
L 1503 0 
L 191 3500 
z
" transform="scale(0.015625)"/>
     </defs>
     <use xlink:href="#DejaVuSans-4c"/>
     <use xlink:href="#DejaVuSans-65" x="53.962891"/>
     <use xlink:href="#DejaVuSans-61" x="115.486328"/>
     <use xlink:href="#DejaVuSans-72" x="176.765625"/>
     <use xlink:href="#DejaVuSans-6e" x="216.128906"/>
     <use xlink:href="#DejaVuSans-69" x="279.507812"/>
     <use xlink:href="#DejaVuSans-6e" x="307.291016"/>
     <use xlink:href="#DejaVuSans-67" x="370.669922"/>
     <use xlink:href="#DejaVuSans-20" x="434.146484"/>
     <use xlink:href="#DejaVuSans-43" x="465.933594"/>
     <use xlink:href="#DejaVuSans-75" x="535.757812"/>
     <use xlink:href="#DejaVuSans-72" x="599.136719"/>
     <use xlink:href="#DejaVuSans-76" x="640.25"/>
     <use xlink:href="#DejaVuSans-65" x="699.429688"/>
     <use xlink:href="#DejaVuSans-73" x="760.953125"/>
    </g>
   </g>
   <g id="legend_1">
    <g id="patch_7">
     <path d="M 214.18875 302.584 
L 407.72 302.584 
Q 409.72 302.584 409.72 300.584 
L 409.72 228.193375 
Q 409.72 226.193375 407.72 226.193375 
L 214.18875 226.193375 
Q 212.18875 226.193375 212.18875 228.193375 
L 212.18875 300.584 
Q 212.18875 302.584 214.18875 302.584 
z
" style="fill: #ffffff; opacity: 0.8; stroke: #cccccc; stroke-linejoin: miter"/>
    </g>
    <g id="line2d_24">
     <path d="M 216.18875 234.291812 
L 226.18875 234.291812 
L 236.18875 234.291812 
" style="fill: none; stroke: #1f77b4; stroke-width: 1.5; stroke-linecap: square"/>
    </g>
    <g id="text_22">
     <!-- Train Accuracy -->
     <g transform="translate(244.18875 237.791812) scale(0.1 -0.1)">
      <defs>
       <path id="DejaVuSans-54" d="M -19 4666 
L 3928 4666 
L 3928 4134 
L 2272 4134 
L 2272 0 
L 1638 0 
L 1638 4134 
L -19 4134 
L -19 4666 
z
" transform="scale(0.015625)"/>
      </defs>
      <use xlink:href="#DejaVuSans-54"/>
      <use xlink:href="#DejaVuSans-72" x="46.333984"/>
      <use xlink:href="#DejaVuSans-61" x="87.447266"/>
      <use xlink:href="#DejaVuSans-69" x="148.726562"/>
      <use xlink:href="#DejaVuSans-6e" x="176.509766"/>
      <use xlink:href="#DejaVuSans-20" x="239.888672"/>
      <use xlink:href="#DejaVuSans-41" x="271.675781"/>
      <use xlink:href="#DejaVuSans-63" x="338.333984"/>
      <use xlink:href="#DejaVuSans-63" x="393.314453"/>
      <use xlink:href="#DejaVuSans-75" x="448.294922"/>
      <use xlink:href="#DejaVuSans-72" x="511.673828"/>
      <use xlink:href="#DejaVuSans-61" x="552.787109"/>
      <use xlink:href="#DejaVuSans-63" x="614.066406"/>
      <use xlink:href="#DejaVuSans-79" x="669.046875"/>
     </g>
    </g>
    <g id="line2d_25">
     <path d="M 216.18875 248.969937 
L 226.18875 248.969937 
L 236.18875 248.969937 
" style="fill: none; stroke: #ff7f0e; stroke-width: 1.5; stroke-linecap: square"/>
    </g>
    <g id="text_23">
     <!-- Validation Accuracy -->
     <g transform="translate(244.18875 252.469937) scale(0.1 -0.1)">
      <defs>
       <path id="DejaVuSans-56" d="M 1831 0 
L 50 4666 
L 709 4666 
L 2188 738 
L 3669 4666 
L 4325 4666 
L 2547 0 
L 1831 0 
z
" transform="scale(0.015625)"/>
       <path id="DejaVuSans-6c" d="M 603 4863 
L 1178 4863 
L 1178 0 
L 603 0 
L 603 4863 
z
" transform="scale(0.015625)"/>
       <path id="DejaVuSans-64" d="M 2906 2969 
L 2906 4863 
L 3481 4863 
L 3481 0 
L 2906 0 
L 2906 525 
Q 2725 213 2448 61 
Q 2172 -91 1784 -91 
Q 1150 -91 751 415 
Q 353 922 353 1747 
Q 353 2572 751 3078 
Q 1150 3584 1784 3584 
Q 2172 3584 2448 3432 
Q 2725 3281 2906 2969 
z
M 947 1747 
Q 947 1113 1208 752 
Q 1469 391 1925 391 
Q 2381 391 2643 752 
Q 2906 1113 2906 1747 
Q 2906 2381 2643 2742 
Q 2381 3103 1925 3103 
Q 1469 3103 1208 2742 
Q 947 2381 947 1747 
z
" transform="scale(0.015625)"/>
       <path id="DejaVuSans-74" d="M 1172 4494 
L 1172 3500 
L 2356 3500 
L 2356 3053 
L 1172 3053 
L 1172 1153 
Q 1172 725 1289 603 
Q 1406 481 1766 481 
L 2356 481 
L 2356 0 
L 1766 0 
Q 1100 0 847 248 
Q 594 497 594 1153 
L 594 3053 
L 172 3053 
L 172 3500 
L 594 3500 
L 594 4494 
L 1172 4494 
z
" transform="scale(0.015625)"/>
      </defs>
      <use xlink:href="#DejaVuSans-56"/>
      <use xlink:href="#DejaVuSans-61" x="60.658203"/>
      <use xlink:href="#DejaVuSans-6c" x="121.9375"/>
      <use xlink:href="#DejaVuSans-69" x="149.720703"/>
      <use xlink:href="#DejaVuSans-64" x="177.503906"/>
      <use xlink:href="#DejaVuSans-61" x="240.980469"/>
      <use xlink:href="#DejaVuSans-74" x="302.259766"/>
      <use xlink:href="#DejaVuSans-69" x="341.46875"/>
      <use xlink:href="#DejaVuSans-6f" x="369.251953"/>
      <use xlink:href="#DejaVuSans-6e" x="430.433594"/>
      <use xlink:href="#DejaVuSans-20" x="493.8125"/>
      <use xlink:href="#DejaVuSans-41" x="525.599609"/>
      <use xlink:href="#DejaVuSans-63" x="592.257812"/>
      <use xlink:href="#DejaVuSans-63" x="647.238281"/>
      <use xlink:href="#DejaVuSans-75" x="702.21875"/>
      <use xlink:href="#DejaVuSans-72" x="765.597656"/>
      <use xlink:href="#DejaVuSans-61" x="806.710938"/>
      <use xlink:href="#DejaVuSans-63" x="867.990234"/>
      <use xlink:href="#DejaVuSans-79" x="922.970703"/>
     </g>
    </g>
    <g id="line2d_26">
     <path d="M 216.18875 263.648062 
L 226.18875 263.648062 
L 236.18875 263.648062 
" style="fill: none; stroke: #2ca02c; stroke-width: 1.5; stroke-linecap: square"/>
    </g>
    <g id="text_24">
     <!-- Robust Validation Accuracy -->
     <g transform="translate(244.18875 267.148062) scale(0.1 -0.1)">
      <defs>
       <path id="DejaVuSans-52" d="M 2841 2188 
Q 3044 2119 3236 1894 
Q 3428 1669 3622 1275 
L 4263 0 
L 3584 0 
L 2988 1197 
Q 2756 1666 2539 1819 
Q 2322 1972 1947 1972 
L 1259 1972 
L 1259 0 
L 628 0 
L 628 4666 
L 2053 4666 
Q 2853 4666 3247 4331 
Q 3641 3997 3641 3322 
Q 3641 2881 3436 2590 
Q 3231 2300 2841 2188 
z
M 1259 4147 
L 1259 2491 
L 2053 2491 
Q 2509 2491 2742 2702 
Q 2975 2913 2975 3322 
Q 2975 3731 2742 3939 
Q 2509 4147 2053 4147 
L 1259 4147 
z
" transform="scale(0.015625)"/>
       <path id="DejaVuSans-62" d="M 3116 1747 
Q 3116 2381 2855 2742 
Q 2594 3103 2138 3103 
Q 1681 3103 1420 2742 
Q 1159 2381 1159 1747 
Q 1159 1113 1420 752 
Q 1681 391 2138 391 
Q 2594 391 2855 752 
Q 3116 1113 3116 1747 
z
M 1159 2969 
Q 1341 3281 1617 3432 
Q 1894 3584 2278 3584 
Q 2916 3584 3314 3078 
Q 3713 2572 3713 1747 
Q 3713 922 3314 415 
Q 2916 -91 2278 -91 
Q 1894 -91 1617 61 
Q 1341 213 1159 525 
L 1159 0 
L 581 0 
L 581 4863 
L 1159 4863 
L 1159 2969 
z
" transform="scale(0.015625)"/>
      </defs>
      <use xlink:href="#DejaVuSans-52"/>
      <use xlink:href="#DejaVuSans-6f" x="64.982422"/>
      <use xlink:href="#DejaVuSans-62" x="126.164062"/>
      <use xlink:href="#DejaVuSans-75" x="189.640625"/>
      <use xlink:href="#DejaVuSans-73" x="253.019531"/>
      <use xlink:href="#DejaVuSans-74" x="305.119141"/>
      <use xlink:href="#DejaVuSans-20" x="344.328125"/>
      <use xlink:href="#DejaVuSans-56" x="376.115234"/>
      <use xlink:href="#DejaVuSans-61" x="436.773438"/>
      <use xlink:href="#DejaVuSans-6c" x="498.052734"/>
      <use xlink:href="#DejaVuSans-69" x="525.835938"/>
      <use xlink:href="#DejaVuSans-64" x="553.619141"/>
      <use xlink:href="#DejaVuSans-61" x="617.095703"/>
      <use xlink:href="#DejaVuSans-74" x="678.375"/>
      <use xlink:href="#DejaVuSans-69" x="717.583984"/>
      <use xlink:href="#DejaVuSans-6f" x="745.367188"/>
      <use xlink:href="#DejaVuSans-6e" x="806.548828"/>
      <use xlink:href="#DejaVuSans-20" x="869.927734"/>
      <use xlink:href="#DejaVuSans-41" x="901.714844"/>
      <use xlink:href="#DejaVuSans-63" x="968.373047"/>
      <use xlink:href="#DejaVuSans-63" x="1023.353516"/>
      <use xlink:href="#DejaVuSans-75" x="1078.333984"/>
      <use xlink:href="#DejaVuSans-72" x="1141.712891"/>
      <use xlink:href="#DejaVuSans-61" x="1182.826172"/>
      <use xlink:href="#DejaVuSans-63" x="1244.105469"/>
      <use xlink:href="#DejaVuSans-79" x="1299.085938"/>
     </g>
    </g>
    <g id="line2d_27">
     <path d="M 216.18875 278.326188 
L 226.18875 278.326188 
L 236.18875 278.326188 
" style="fill: none; stroke: #d62728; stroke-width: 1.5; stroke-linecap: square"/>
    </g>
    <g id="text_25">
     <!-- SWA Validation Accuracy -->
     <g transform="translate(244.18875 281.826188) scale(0.1 -0.1)">
      <defs>
       <path id="DejaVuSans-53" d="M 3425 4513 
L 3425 3897 
Q 3066 4069 2747 4153 
Q 2428 4238 2131 4238 
Q 1616 4238 1336 4038 
Q 1056 3838 1056 3469 
Q 1056 3159 1242 3001 
Q 1428 2844 1947 2747 
L 2328 2669 
Q 3034 2534 3370 2195 
Q 3706 1856 3706 1288 
Q 3706 609 3251 259 
Q 2797 -91 1919 -91 
Q 1588 -91 1214 -16 
Q 841 59 441 206 
L 441 856 
Q 825 641 1194 531 
Q 1563 422 1919 422 
Q 2459 422 2753 634 
Q 3047 847 3047 1241 
Q 3047 1584 2836 1778 
Q 2625 1972 2144 2069 
L 1759 2144 
Q 1053 2284 737 2584 
Q 422 2884 422 3419 
Q 422 4038 858 4394 
Q 1294 4750 2059 4750 
Q 2388 4750 2728 4690 
Q 3069 4631 3425 4513 
z
" transform="scale(0.015625)"/>
       <path id="DejaVuSans-57" d="M 213 4666 
L 850 4666 
L 1831 722 
L 2809 4666 
L 3519 4666 
L 4500 722 
L 5478 4666 
L 6119 4666 
L 4947 0 
L 4153 0 
L 3169 4050 
L 2175 0 
L 1381 0 
L 213 4666 
z
" transform="scale(0.015625)"/>
      </defs>
      <use xlink:href="#DejaVuSans-53"/>
      <use xlink:href="#DejaVuSans-57" x="63.476562"/>
      <use xlink:href="#DejaVuSans-41" x="156.853516"/>
      <use xlink:href="#DejaVuSans-20" x="225.261719"/>
      <use xlink:href="#DejaVuSans-56" x="257.048828"/>
      <use xlink:href="#DejaVuSans-61" x="317.707031"/>
      <use xlink:href="#DejaVuSans-6c" x="378.986328"/>
      <use xlink:href="#DejaVuSans-69" x="406.769531"/>
      <use xlink:href="#DejaVuSans-64" x="434.552734"/>
      <use xlink:href="#DejaVuSans-61" x="498.029297"/>
      <use xlink:href="#DejaVuSans-74" x="559.308594"/>
      <use xlink:href="#DejaVuSans-69" x="598.517578"/>
      <use xlink:href="#DejaVuSans-6f" x="626.300781"/>
      <use xlink:href="#DejaVuSans-6e" x="687.482422"/>
      <use xlink:href="#DejaVuSans-20" x="750.861328"/>
      <use xlink:href="#DejaVuSans-41" x="782.648438"/>
      <use xlink:href="#DejaVuSans-63" x="849.306641"/>
      <use xlink:href="#DejaVuSans-63" x="904.287109"/>
      <use xlink:href="#DejaVuSans-75" x="959.267578"/>
      <use xlink:href="#DejaVuSans-72" x="1022.646484"/>
      <use xlink:href="#DejaVuSans-61" x="1063.759766"/>
      <use xlink:href="#DejaVuSans-63" x="1125.039062"/>
      <use xlink:href="#DejaVuSans-79" x="1180.019531"/>
     </g>
    </g>
    <g id="line2d_28">
     <path d="M 216.18875 293.004312 
L 226.18875 293.004312 
L 236.18875 293.004312 
" style="fill: none; stroke: #9467bd; stroke-width: 1.5; stroke-linecap: square"/>
    </g>
    <g id="text_26">
     <!-- SWA Robust Validation Accuracy -->
     <g transform="translate(244.18875 296.504312) scale(0.1 -0.1)">
      <use xlink:href="#DejaVuSans-53"/>
      <use xlink:href="#DejaVuSans-57" x="63.476562"/>
      <use xlink:href="#DejaVuSans-41" x="156.853516"/>
      <use xlink:href="#DejaVuSans-20" x="225.261719"/>
      <use xlink:href="#DejaVuSans-52" x="257.048828"/>
      <use xlink:href="#DejaVuSans-6f" x="322.03125"/>
      <use xlink:href="#DejaVuSans-62" x="383.212891"/>
      <use xlink:href="#DejaVuSans-75" x="446.689453"/>
      <use xlink:href="#DejaVuSans-73" x="510.068359"/>
      <use xlink:href="#DejaVuSans-74" x="562.167969"/>
      <use xlink:href="#DejaVuSans-20" x="601.376953"/>
      <use xlink:href="#DejaVuSans-56" x="633.164062"/>
      <use xlink:href="#DejaVuSans-61" x="693.822266"/>
      <use xlink:href="#DejaVuSans-6c" x="755.101562"/>
      <use xlink:href="#DejaVuSans-69" x="782.884766"/>
      <use xlink:href="#DejaVuSans-64" x="810.667969"/>
      <use xlink:href="#DejaVuSans-61" x="874.144531"/>
      <use xlink:href="#DejaVuSans-74" x="935.423828"/>
      <use xlink:href="#DejaVuSans-69" x="974.632812"/>
      <use xlink:href="#DejaVuSans-6f" x="1002.416016"/>
      <use xlink:href="#DejaVuSans-6e" x="1063.597656"/>
      <use xlink:href="#DejaVuSans-20" x="1126.976562"/>
      <use xlink:href="#DejaVuSans-41" x="1158.763672"/>
      <use xlink:href="#DejaVuSans-63" x="1225.421875"/>
      <use xlink:href="#DejaVuSans-63" x="1280.402344"/>
      <use xlink:href="#DejaVuSans-75" x="1335.382812"/>
      <use xlink:href="#DejaVuSans-72" x="1398.761719"/>
      <use xlink:href="#DejaVuSans-61" x="1439.875"/>
      <use xlink:href="#DejaVuSans-63" x="1501.154297"/>
      <use xlink:href="#DejaVuSans-79" x="1556.134766"/>
     </g>
    </g>
   </g>
  </g>
 </g>
 <defs>
  <clipPath id="pf58fe3616a">
   <rect x="57.6" y="41.472" width="357.12" height="266.112"/>
  </clipPath>
 </defs>
</svg>
