<?xml version="1.0" encoding="utf-8" standalone="no"?>
<!DOCTYPE svg PUBLIC "-//W3C//DTD SVG 1.1//EN"
  "http://www.w3.org/Graphics/SVG/1.1/DTD/svg11.dtd">
<svg xmlns:xlink="http://www.w3.org/1999/xlink" width="460.8pt" height="345.6pt" viewBox="0 0 460.8 345.6" xmlns="http://www.w3.org/2000/svg" version="1.1">
 <metadata>
  <rdf:RDF xmlns:dc="http://purl.org/dc/elements/1.1/" xmlns:cc="http://creativecommons.org/ns#" xmlns:rdf="http://www.w3.org/1999/02/22-rdf-syntax-ns#">
   <cc:Work>
    <dc:type rdf:resource="http://purl.org/dc/dcmitype/StillImage"/>
    <dc:date>2025-08-02T12:52:10.046551</dc:date>
    <dc:format>image/svg+xml</dc:format>
    <dc:creator>
     <cc:Agent>
      <dc:title>Matplotlib v3.9.1, https://matplotlib.org/</dc:title>
     </cc:Agent>
    </dc:creator>
   </cc:Work>
  </rdf:RDF>
 </metadata>
 <defs>
  <style type="text/css">*{stroke-linejoin: round; stroke-linecap: butt}</style>
 </defs>
 <g id="figure_1">
  <g id="patch_1">
   <path d="M 0 345.6 
L 460.8 345.6 
L 460.8 0 
L 0 0 
z
" style="fill: #ffffff"/>
  </g>
  <g id="axes_1">
   <g id="patch_2">
    <path d="M 57.6 307.584 
L 414.72 307.584 
L 414.72 41.472 
L 57.6 41.472 
z
" style="fill: #ffffff"/>
   </g>
   <g id="matplotlib.axis_1">
    <g id="xtick_1">
     <g id="line2d_1">
      <defs>
       <path id="mc6838c4dbd" d="M 0 0 
L 0 3.5 
" style="stroke: #000000; stroke-width: 0.8"/>
      </defs>
      <g>
       <use xlink:href="#mc6838c4dbd" x="73.832727" y="307.584" style="stroke: #000000; stroke-width: 0.8"/>
      </g>
     </g>
     <g id="text_1">
      <!-- 1 -->
      <g transform="translate(70.651477 322.182437) scale(0.1 -0.1)">
       <defs>
        <path id="DejaVuSans-31" d="M 794 531 
L 1825 531 
L 1825 4091 
L 703 3866 
L 703 4441 
L 1819 4666 
L 2450 4666 
L 2450 531 
L 3481 531 
L 3481 0 
L 794 0 
L 794 531 
z
" transform="scale(0.015625)"/>
       </defs>
       <use xlink:href="#DejaVuSans-31"/>
      </g>
     </g>
    </g>
    <g id="xtick_2">
     <g id="line2d_2">
      <g>
       <use xlink:href="#mc6838c4dbd" x="109.664165" y="307.584" style="stroke: #000000; stroke-width: 0.8"/>
      </g>
     </g>
     <g id="text_2">
      <!-- 34 -->
      <g transform="translate(103.301665 322.182437) scale(0.1 -0.1)">
       <defs>
        <path id="DejaVuSans-33" d="M 2597 2516 
Q 3050 2419 3304 2112 
Q 3559 1806 3559 1356 
Q 3559 666 3084 287 
Q 2609 -91 1734 -91 
Q 1441 -91 1130 -33 
Q 819 25 488 141 
L 488 750 
Q 750 597 1062 519 
Q 1375 441 1716 441 
Q 2309 441 2620 675 
Q 2931 909 2931 1356 
Q 2931 1769 2642 2001 
Q 2353 2234 1838 2234 
L 1294 2234 
L 1294 2753 
L 1863 2753 
Q 2328 2753 2575 2939 
Q 2822 3125 2822 3475 
Q 2822 3834 2567 4026 
Q 2313 4219 1838 4219 
Q 1578 4219 1281 4162 
Q 984 4106 628 3988 
L 628 4550 
Q 988 4650 1302 4700 
Q 1616 4750 1894 4750 
Q 2613 4750 3031 4423 
Q 3450 4097 3450 3541 
Q 3450 3153 3228 2886 
Q 3006 2619 2597 2516 
z
" transform="scale(0.015625)"/>
        <path id="DejaVuSans-34" d="M 2419 4116 
L 825 1625 
L 2419 1625 
L 2419 4116 
z
M 2253 4666 
L 3047 4666 
L 3047 1625 
L 3713 1625 
L 3713 1100 
L 3047 1100 
L 3047 0 
L 2419 0 
L 2419 1100 
L 313 1100 
L 313 1709 
L 2253 4666 
z
" transform="scale(0.015625)"/>
       </defs>
       <use xlink:href="#DejaVuSans-33"/>
       <use xlink:href="#DejaVuSans-34" x="63.623047"/>
      </g>
     </g>
    </g>
    <g id="xtick_3">
     <g id="line2d_3">
      <g>
       <use xlink:href="#mc6838c4dbd" x="145.495604" y="307.584" style="stroke: #000000; stroke-width: 0.8"/>
      </g>
     </g>
     <g id="text_3">
      <!-- 67 -->
      <g transform="translate(139.133104 322.182437) scale(0.1 -0.1)">
       <defs>
        <path id="DejaVuSans-36" d="M 2113 2584 
Q 1688 2584 1439 2293 
Q 1191 2003 1191 1497 
Q 1191 994 1439 701 
Q 1688 409 2113 409 
Q 2538 409 2786 701 
Q 3034 994 3034 1497 
Q 3034 2003 2786 2293 
Q 2538 2584 2113 2584 
z
M 3366 4563 
L 3366 3988 
Q 3128 4100 2886 4159 
Q 2644 4219 2406 4219 
Q 1781 4219 1451 3797 
Q 1122 3375 1075 2522 
Q 1259 2794 1537 2939 
Q 1816 3084 2150 3084 
Q 2853 3084 3261 2657 
Q 3669 2231 3669 1497 
Q 3669 778 3244 343 
Q 2819 -91 2113 -91 
Q 1303 -91 875 529 
Q 447 1150 447 2328 
Q 447 3434 972 4092 
Q 1497 4750 2381 4750 
Q 2619 4750 2861 4703 
Q 3103 4656 3366 4563 
z
" transform="scale(0.015625)"/>
        <path id="DejaVuSans-37" d="M 525 4666 
L 3525 4666 
L 3525 4397 
L 1831 0 
L 1172 0 
L 2766 4134 
L 525 4134 
L 525 4666 
z
" transform="scale(0.015625)"/>
       </defs>
       <use xlink:href="#DejaVuSans-36"/>
       <use xlink:href="#DejaVuSans-37" x="63.623047"/>
      </g>
     </g>
    </g>
    <g id="xtick_4">
     <g id="line2d_4">
      <g>
       <use xlink:href="#mc6838c4dbd" x="181.327042" y="307.584" style="stroke: #000000; stroke-width: 0.8"/>
      </g>
     </g>
     <g id="text_4">
      <!-- 100 -->
      <g transform="translate(171.783292 322.182437) scale(0.1 -0.1)">
       <defs>
        <path id="DejaVuSans-30" d="M 2034 4250 
Q 1547 4250 1301 3770 
Q 1056 3291 1056 2328 
Q 1056 1369 1301 889 
Q 1547 409 2034 409 
Q 2525 409 2770 889 
Q 3016 1369 3016 2328 
Q 3016 3291 2770 3770 
Q 2525 4250 2034 4250 
z
M 2034 4750 
Q 2819 4750 3233 4129 
Q 3647 3509 3647 2328 
Q 3647 1150 3233 529 
Q 2819 -91 2034 -91 
Q 1250 -91 836 529 
Q 422 1150 422 2328 
Q 422 3509 836 4129 
Q 1250 4750 2034 4750 
z
" transform="scale(0.015625)"/>
       </defs>
       <use xlink:href="#DejaVuSans-31"/>
       <use xlink:href="#DejaVuSans-30" x="63.623047"/>
       <use xlink:href="#DejaVuSans-30" x="127.246094"/>
      </g>
     </g>
    </g>
    <g id="xtick_5">
     <g id="line2d_5">
      <g>
       <use xlink:href="#mc6838c4dbd" x="217.15848" y="307.584" style="stroke: #000000; stroke-width: 0.8"/>
      </g>
     </g>
     <g id="text_5">
      <!-- 133 -->
      <g transform="translate(207.61473 322.182437) scale(0.1 -0.1)">
       <use xlink:href="#DejaVuSans-31"/>
       <use xlink:href="#DejaVuSans-33" x="63.623047"/>
       <use xlink:href="#DejaVuSans-33" x="127.246094"/>
      </g>
     </g>
    </g>
    <g id="xtick_6">
     <g id="line2d_6">
      <g>
       <use xlink:href="#mc6838c4dbd" x="254.075719" y="307.584" style="stroke: #000000; stroke-width: 0.8"/>
      </g>
     </g>
     <g id="text_6">
      <!-- 167 -->
      <g transform="translate(244.531969 322.182437) scale(0.1 -0.1)">
       <use xlink:href="#DejaVuSans-31"/>
       <use xlink:href="#DejaVuSans-36" x="63.623047"/>
       <use xlink:href="#DejaVuSans-37" x="127.246094"/>
      </g>
     </g>
    </g>
    <g id="xtick_7">
     <g id="line2d_7">
      <g>
       <use xlink:href="#mc6838c4dbd" x="289.907157" y="307.584" style="stroke: #000000; stroke-width: 0.8"/>
      </g>
     </g>
     <g id="text_7">
      <!-- 200 -->
      <g transform="translate(280.363407 322.182437) scale(0.1 -0.1)">
       <defs>
        <path id="DejaVuSans-32" d="M 1228 531 
L 3431 531 
L 3431 0 
L 469 0 
L 469 531 
Q 828 903 1448 1529 
Q 2069 2156 2228 2338 
Q 2531 2678 2651 2914 
Q 2772 3150 2772 3378 
Q 2772 3750 2511 3984 
Q 2250 4219 1831 4219 
Q 1534 4219 1204 4116 
Q 875 4013 500 3803 
L 500 4441 
Q 881 4594 1212 4672 
Q 1544 4750 1819 4750 
Q 2544 4750 2975 4387 
Q 3406 4025 3406 3419 
Q 3406 3131 3298 2873 
Q 3191 2616 2906 2266 
Q 2828 2175 2409 1742 
Q 1991 1309 1228 531 
z
" transform="scale(0.015625)"/>
       </defs>
       <use xlink:href="#DejaVuSans-32"/>
       <use xlink:href="#DejaVuSans-30" x="63.623047"/>
       <use xlink:href="#DejaVuSans-30" x="127.246094"/>
      </g>
     </g>
    </g>
    <g id="xtick_8">
     <g id="line2d_8">
      <g>
       <use xlink:href="#mc6838c4dbd" x="325.738595" y="307.584" style="stroke: #000000; stroke-width: 0.8"/>
      </g>
     </g>
     <g id="text_8">
      <!-- 233 -->
      <g transform="translate(316.194845 322.182437) scale(0.1 -0.1)">
       <use xlink:href="#DejaVuSans-32"/>
       <use xlink:href="#DejaVuSans-33" x="63.623047"/>
       <use xlink:href="#DejaVuSans-33" x="127.246094"/>
      </g>
     </g>
    </g>
    <g id="xtick_9">
     <g id="line2d_9">
      <g>
       <use xlink:href="#mc6838c4dbd" x="361.570033" y="307.584" style="stroke: #000000; stroke-width: 0.8"/>
      </g>
     </g>
     <g id="text_9">
      <!-- 266 -->
      <g transform="translate(352.026283 322.182437) scale(0.1 -0.1)">
       <use xlink:href="#DejaVuSans-32"/>
       <use xlink:href="#DejaVuSans-36" x="63.623047"/>
       <use xlink:href="#DejaVuSans-36" x="127.246094"/>
      </g>
     </g>
    </g>
    <g id="xtick_10">
     <g id="line2d_10">
      <g>
       <use xlink:href="#mc6838c4dbd" x="398.487273" y="307.584" style="stroke: #000000; stroke-width: 0.8"/>
      </g>
     </g>
     <g id="text_10">
      <!-- 300 -->
      <g transform="translate(388.943523 322.182437) scale(0.1 -0.1)">
       <use xlink:href="#DejaVuSans-33"/>
       <use xlink:href="#DejaVuSans-30" x="63.623047"/>
       <use xlink:href="#DejaVuSans-30" x="127.246094"/>
      </g>
     </g>
    </g>
    <g id="text_11">
     <!-- Epochs -->
     <g transform="translate(218.244375 335.860562) scale(0.1 -0.1)">
      <defs>
       <path id="DejaVuSans-45" d="M 628 4666 
L 3578 4666 
L 3578 4134 
L 1259 4134 
L 1259 2753 
L 3481 2753 
L 3481 2222 
L 1259 2222 
L 1259 531 
L 3634 531 
L 3634 0 
L 628 0 
L 628 4666 
z
" transform="scale(0.015625)"/>
       <path id="DejaVuSans-70" d="M 1159 525 
L 1159 -1331 
L 581 -1331 
L 581 3500 
L 1159 3500 
L 1159 2969 
Q 1341 3281 1617 3432 
Q 1894 3584 2278 3584 
Q 2916 3584 3314 3078 
Q 3713 2572 3713 1747 
Q 3713 922 3314 415 
Q 2916 -91 2278 -91 
Q 1894 -91 1617 61 
Q 1341 213 1159 525 
z
M 3116 1747 
Q 3116 2381 2855 2742 
Q 2594 3103 2138 3103 
Q 1681 3103 1420 2742 
Q 1159 2381 1159 1747 
Q 1159 1113 1420 752 
Q 1681 391 2138 391 
Q 2594 391 2855 752 
Q 3116 1113 3116 1747 
z
" transform="scale(0.015625)"/>
       <path id="DejaVuSans-6f" d="M 1959 3097 
Q 1497 3097 1228 2736 
Q 959 2375 959 1747 
Q 959 1119 1226 758 
Q 1494 397 1959 397 
Q 2419 397 2687 759 
Q 2956 1122 2956 1747 
Q 2956 2369 2687 2733 
Q 2419 3097 1959 3097 
z
M 1959 3584 
Q 2709 3584 3137 3096 
Q 3566 2609 3566 1747 
Q 3566 888 3137 398 
Q 2709 -91 1959 -91 
Q 1206 -91 779 398 
Q 353 888 353 1747 
Q 353 2609 779 3096 
Q 1206 3584 1959 3584 
z
" transform="scale(0.015625)"/>
       <path id="DejaVuSans-63" d="M 3122 3366 
L 3122 2828 
Q 2878 2963 2633 3030 
Q 2388 3097 2138 3097 
Q 1578 3097 1268 2742 
Q 959 2388 959 1747 
Q 959 1106 1268 751 
Q 1578 397 2138 397 
Q 2388 397 2633 464 
Q 2878 531 3122 666 
L 3122 134 
Q 2881 22 2623 -34 
Q 2366 -91 2075 -91 
Q 1284 -91 818 406 
Q 353 903 353 1747 
Q 353 2603 823 3093 
Q 1294 3584 2113 3584 
Q 2378 3584 2631 3529 
Q 2884 3475 3122 3366 
z
" transform="scale(0.015625)"/>
       <path id="DejaVuSans-68" d="M 3513 2113 
L 3513 0 
L 2938 0 
L 2938 2094 
Q 2938 2591 2744 2837 
Q 2550 3084 2163 3084 
Q 1697 3084 1428 2787 
Q 1159 2491 1159 1978 
L 1159 0 
L 581 0 
L 581 4863 
L 1159 4863 
L 1159 2956 
Q 1366 3272 1645 3428 
Q 1925 3584 2291 3584 
Q 2894 3584 3203 3211 
Q 3513 2838 3513 2113 
z
" transform="scale(0.015625)"/>
       <path id="DejaVuSans-73" d="M 2834 3397 
L 2834 2853 
Q 2591 2978 2328 3040 
Q 2066 3103 1784 3103 
Q 1356 3103 1142 2972 
Q 928 2841 928 2578 
Q 928 2378 1081 2264 
Q 1234 2150 1697 2047 
L 1894 2003 
Q 2506 1872 2764 1633 
Q 3022 1394 3022 966 
Q 3022 478 2636 193 
Q 2250 -91 1575 -91 
Q 1294 -91 989 -36 
Q 684 19 347 128 
L 347 722 
Q 666 556 975 473 
Q 1284 391 1588 391 
Q 1994 391 2212 530 
Q 2431 669 2431 922 
Q 2431 1156 2273 1281 
Q 2116 1406 1581 1522 
L 1381 1569 
Q 847 1681 609 1914 
Q 372 2147 372 2553 
Q 372 3047 722 3315 
Q 1072 3584 1716 3584 
Q 2034 3584 2315 3537 
Q 2597 3491 2834 3397 
z
" transform="scale(0.015625)"/>
      </defs>
      <use xlink:href="#DejaVuSans-45"/>
      <use xlink:href="#DejaVuSans-70" x="63.183594"/>
      <use xlink:href="#DejaVuSans-6f" x="126.660156"/>
      <use xlink:href="#DejaVuSans-63" x="187.841797"/>
      <use xlink:href="#DejaVuSans-68" x="242.822266"/>
      <use xlink:href="#DejaVuSans-73" x="306.201172"/>
     </g>
    </g>
   </g>
   <g id="matplotlib.axis_2">
    <g id="ytick_1">
     <g id="line2d_11">
      <defs>
       <path id="mbd6e37c264" d="M 0 0 
L -3.5 0 
" style="stroke: #000000; stroke-width: 0.8"/>
      </defs>
      <g>
       <use xlink:href="#mbd6e37c264" x="57.6" y="259.937653" style="stroke: #000000; stroke-width: 0.8"/>
      </g>
     </g>
     <g id="text_12">
      <!-- 20 -->
      <g transform="translate(37.875 263.736872) scale(0.1 -0.1)">
       <use xlink:href="#DejaVuSans-32"/>
       <use xlink:href="#DejaVuSans-30" x="63.623047"/>
      </g>
     </g>
    </g>
    <g id="ytick_2">
     <g id="line2d_12">
      <g>
       <use xlink:href="#mbd6e37c264" x="57.6" y="208.260457" style="stroke: #000000; stroke-width: 0.8"/>
      </g>
     </g>
     <g id="text_13">
      <!-- 40 -->
      <g transform="translate(37.875 212.059676) scale(0.1 -0.1)">
       <use xlink:href="#DejaVuSans-34"/>
       <use xlink:href="#DejaVuSans-30" x="63.623047"/>
      </g>
     </g>
    </g>
    <g id="ytick_3">
     <g id="line2d_13">
      <g>
       <use xlink:href="#mbd6e37c264" x="57.6" y="156.583261" style="stroke: #000000; stroke-width: 0.8"/>
      </g>
     </g>
     <g id="text_14">
      <!-- 60 -->
      <g transform="translate(37.875 160.382479) scale(0.1 -0.1)">
       <use xlink:href="#DejaVuSans-36"/>
       <use xlink:href="#DejaVuSans-30" x="63.623047"/>
      </g>
     </g>
    </g>
    <g id="ytick_4">
     <g id="line2d_14">
      <g>
       <use xlink:href="#mbd6e37c264" x="57.6" y="104.906065" style="stroke: #000000; stroke-width: 0.8"/>
      </g>
     </g>
     <g id="text_15">
      <!-- 80 -->
      <g transform="translate(37.875 108.705283) scale(0.1 -0.1)">
       <defs>
        <path id="DejaVuSans-38" d="M 2034 2216 
Q 1584 2216 1326 1975 
Q 1069 1734 1069 1313 
Q 1069 891 1326 650 
Q 1584 409 2034 409 
Q 2484 409 2743 651 
Q 3003 894 3003 1313 
Q 3003 1734 2745 1975 
Q 2488 2216 2034 2216 
z
M 1403 2484 
Q 997 2584 770 2862 
Q 544 3141 544 3541 
Q 544 4100 942 4425 
Q 1341 4750 2034 4750 
Q 2731 4750 3128 4425 
Q 3525 4100 3525 3541 
Q 3525 3141 3298 2862 
Q 3072 2584 2669 2484 
Q 3125 2378 3379 2068 
Q 3634 1759 3634 1313 
Q 3634 634 3220 271 
Q 2806 -91 2034 -91 
Q 1263 -91 848 271 
Q 434 634 434 1313 
Q 434 1759 690 2068 
Q 947 2378 1403 2484 
z
M 1172 3481 
Q 1172 3119 1398 2916 
Q 1625 2713 2034 2713 
Q 2441 2713 2670 2916 
Q 2900 3119 2900 3481 
Q 2900 3844 2670 4047 
Q 2441 4250 2034 4250 
Q 1625 4250 1398 4047 
Q 1172 3844 1172 3481 
z
" transform="scale(0.015625)"/>
       </defs>
       <use xlink:href="#DejaVuSans-38"/>
       <use xlink:href="#DejaVuSans-30" x="63.623047"/>
      </g>
     </g>
    </g>
    <g id="ytick_5">
     <g id="line2d_15">
      <g>
       <use xlink:href="#mbd6e37c264" x="57.6" y="53.228868" style="stroke: #000000; stroke-width: 0.8"/>
      </g>
     </g>
     <g id="text_16">
      <!-- 100 -->
      <g transform="translate(31.5125 57.028087) scale(0.1 -0.1)">
       <use xlink:href="#DejaVuSans-31"/>
       <use xlink:href="#DejaVuSans-30" x="63.623047"/>
       <use xlink:href="#DejaVuSans-30" x="127.246094"/>
      </g>
     </g>
    </g>
    <g id="text_17">
     <!-- Accuracy -->
     <g transform="translate(25.432812 197.356125) rotate(-90) scale(0.1 -0.1)">
      <defs>
       <path id="DejaVuSans-41" d="M 2188 4044 
L 1331 1722 
L 3047 1722 
L 2188 4044 
z
M 1831 4666 
L 2547 4666 
L 4325 0 
L 3669 0 
L 3244 1197 
L 1141 1197 
L 716 0 
L 50 0 
L 1831 4666 
z
" transform="scale(0.015625)"/>
       <path id="DejaVuSans-75" d="M 544 1381 
L 544 3500 
L 1119 3500 
L 1119 1403 
Q 1119 906 1312 657 
Q 1506 409 1894 409 
Q 2359 409 2629 706 
Q 2900 1003 2900 1516 
L 2900 3500 
L 3475 3500 
L 3475 0 
L 2900 0 
L 2900 538 
Q 2691 219 2414 64 
Q 2138 -91 1772 -91 
Q 1169 -91 856 284 
Q 544 659 544 1381 
z
M 1991 3584 
L 1991 3584 
z
" transform="scale(0.015625)"/>
       <path id="DejaVuSans-72" d="M 2631 2963 
Q 2534 3019 2420 3045 
Q 2306 3072 2169 3072 
Q 1681 3072 1420 2755 
Q 1159 2438 1159 1844 
L 1159 0 
L 581 0 
L 581 3500 
L 1159 3500 
L 1159 2956 
Q 1341 3275 1631 3429 
Q 1922 3584 2338 3584 
Q 2397 3584 2469 3576 
Q 2541 3569 2628 3553 
L 2631 2963 
z
" transform="scale(0.015625)"/>
       <path id="DejaVuSans-61" d="M 2194 1759 
Q 1497 1759 1228 1600 
Q 959 1441 959 1056 
Q 959 750 1161 570 
Q 1363 391 1709 391 
Q 2188 391 2477 730 
Q 2766 1069 2766 1631 
L 2766 1759 
L 2194 1759 
z
M 3341 1997 
L 3341 0 
L 2766 0 
L 2766 531 
Q 2569 213 2275 61 
Q 1981 -91 1556 -91 
Q 1019 -91 701 211 
Q 384 513 384 1019 
Q 384 1609 779 1909 
Q 1175 2209 1959 2209 
L 2766 2209 
L 2766 2266 
Q 2766 2663 2505 2880 
Q 2244 3097 1772 3097 
Q 1472 3097 1187 3025 
Q 903 2953 641 2809 
L 641 3341 
Q 956 3463 1253 3523 
Q 1550 3584 1831 3584 
Q 2591 3584 2966 3190 
Q 3341 2797 3341 1997 
z
" transform="scale(0.015625)"/>
       <path id="DejaVuSans-79" d="M 2059 -325 
Q 1816 -950 1584 -1140 
Q 1353 -1331 966 -1331 
L 506 -1331 
L 506 -850 
L 844 -850 
Q 1081 -850 1212 -737 
Q 1344 -625 1503 -206 
L 1606 56 
L 191 3500 
L 800 3500 
L 1894 763 
L 2988 3500 
L 3597 3500 
L 2059 -325 
z
" transform="scale(0.015625)"/>
      </defs>
      <use xlink:href="#DejaVuSans-41"/>
      <use xlink:href="#DejaVuSans-63" x="66.658203"/>
      <use xlink:href="#DejaVuSans-63" x="121.638672"/>
      <use xlink:href="#DejaVuSans-75" x="176.619141"/>
      <use xlink:href="#DejaVuSans-72" x="239.998047"/>
      <use xlink:href="#DejaVuSans-61" x="281.111328"/>
      <use xlink:href="#DejaVuSans-63" x="342.390625"/>
      <use xlink:href="#DejaVuSans-79" x="397.371094"/>
     </g>
    </g>
   </g>
   <g id="line2d_16">
    <path d="M 73.832727 291.790185 
L 74.918528 265.638294 
L 76.00433 248.5719 
L 77.090131 234.825765 
L 79.261733 215.230419 
L 81.433335 200.83832 
L 82.519137 193.613202 
L 83.604938 188.167717 
L 84.690739 181.265582 
L 87.948142 164.858072 
L 89.033943 159.616066 
L 90.119745 155.058783 
L 92.291347 147.517143 
L 93.377148 145.149681 
L 94.462949 143.50893 
L 95.54875 181.678999 
L 96.634552 180.613157 
L 97.720353 176.462832 
L 98.806154 173.523692 
L 100.977756 166.166151 
L 103.149358 159.535321 
L 106.406762 150.469202 
L 107.492563 147.38149 
L 108.578364 143.295762 
L 110.749967 137.214002 
L 111.835768 133.619207 
L 112.921569 130.851247 
L 114.00737 126.781668 
L 115.093171 123.471097 
L 116.178972 119.491953 
L 117.264773 116.585111 
L 122.693779 98.010389 
L 127.036984 85.049102 
L 129.208586 80.068712 
L 130.294387 77.555908 
L 132.46599 74.103226 
L 134.637592 71.571043 
L 135.723393 70.731289 
L 136.809194 70.34694 
L 137.894995 70.137001 
L 138.980797 130.625159 
L 140.066598 132.879577 
L 141.152399 132.030133 
L 142.2382 130.260189 
L 143.324001 127.566515 
L 144.409802 126.578189 
L 145.495604 125.098929 
L 146.581405 122.653952 
L 147.667206 120.741895 
L 148.753007 118.555304 
L 149.838808 117.437785 
L 150.924609 115.180137 
L 152.01041 113.549076 
L 153.096212 111.543354 
L 154.182013 110.351549 
L 155.267814 108.523468 
L 157.439416 104.512026 
L 158.525217 103.381587 
L 160.69682 99.434741 
L 161.782621 98.410887 
L 162.868422 96.776596 
L 163.954223 94.380066 
L 165.040024 93.433727 
L 166.125825 92.009374 
L 167.211627 89.858311 
L 168.297428 88.727872 
L 169.383229 86.867493 
L 171.554831 84.135062 
L 172.640632 82.487851 
L 173.726434 81.299275 
L 175.898036 78.431191 
L 176.983837 76.658017 
L 178.069638 75.181987 
L 180.24124 72.850054 
L 181.327042 71.425701 
L 182.412843 70.52781 
L 183.498644 69.05178 
L 185.670246 67.039599 
L 186.756047 65.582948 
L 187.841849 64.584932 
L 190.013451 62.908653 
L 191.099252 61.878339 
L 192.185053 61.154858 
L 193.270854 60.602558 
L 195.442457 58.826155 
L 196.528258 58.344911 
L 197.614059 57.673107 
L 198.69986 57.327516 
L 199.785661 56.729998 
L 201.957264 56.048505 
L 203.043065 55.59956 
L 207.386269 54.67583 
L 209.557872 54.459432 
L 210.643673 54.217195 
L 219.330082 53.661665 
L 224.759088 53.587379 
L 225.844889 96.369638 
L 226.93069 104.951282 
L 228.016491 103.817614 
L 229.102292 103.184568 
L 230.188094 101.640712 
L 232.359696 99.893377 
L 234.531298 97.332125 
L 235.617099 96.431004 
L 236.702901 95.730132 
L 237.788702 94.657831 
L 238.874503 94.141059 
L 239.960304 92.981552 
L 241.046105 92.145027 
L 242.131906 91.754218 
L 243.217708 90.375083 
L 244.303509 90.210362 
L 245.38931 88.824767 
L 246.475111 88.656816 
L 247.560912 87.642651 
L 248.646713 87.058053 
L 249.732514 86.890102 
L 252.989918 84.71643 
L 254.075719 84.015558 
L 256.247321 83.447109 
L 257.333123 82.87543 
L 259.504725 81.974309 
L 260.590526 80.973063 
L 261.676327 80.759895 
L 262.762128 79.865233 
L 263.847929 79.765109 
L 264.933731 78.686347 
L 266.019532 78.767093 
L 267.105333 78.373054 
L 268.191134 77.607586 
L 269.276935 77.255535 
L 270.362736 76.696775 
L 272.534339 75.899008 
L 274.705941 75.065714 
L 275.791742 74.891303 
L 276.877543 73.990182 
L 277.963344 73.709187 
L 279.049146 73.082601 
L 280.134947 73.027694 
L 281.220748 72.607817 
L 282.306549 71.774522 
L 283.39235 71.858498 
L 284.478151 71.651789 
L 285.563953 70.582717 
L 287.735555 70.15961 
L 288.821356 69.636378 
L 289.907157 69.300476 
L 290.992958 68.467182 
L 292.07876 68.49625 
L 294.250362 67.288296 
L 295.336163 67.465936 
L 297.507765 66.419473 
L 298.593566 66.09326 
L 300.765169 65.137232 
L 307.279976 63.234866 
L 308.365777 62.795609 
L 309.451578 62.643808 
L 310.537379 62.114116 
L 311.62318 62.004302 
L 312.708981 61.577965 
L 313.794783 60.961069 
L 314.880584 60.93846 
L 315.966385 60.399079 
L 317.052186 60.415228 
L 318.137987 60.156843 
L 319.223788 59.559325 
L 320.30959 59.265411 
L 321.395391 59.184665 
L 323.566993 58.72603 
L 324.652794 58.299693 
L 325.738595 58.248016 
L 326.824396 57.9864 
L 327.910198 57.595591 
L 328.995999 57.485777 
L 330.0818 57.237081 
L 331.167601 56.839812 
L 333.339203 56.607265 
L 337.682408 55.95807 
L 338.768209 55.870865 
L 339.85401 55.567262 
L 340.939811 55.444528 
L 343.111414 55.063409 
L 345.283016 54.830861 
L 353.969425 54.12676 
L 355.055227 53.978188 
L 357.226829 53.968498 
L 358.31263 53.855454 
L 359.398431 53.868374 
L 360.484232 53.723032 
L 361.570033 53.784398 
L 363.741636 53.651975 
L 368.08484 53.639056 
L 370.256443 53.842535 
L 372.428045 54.452972 
L 373.513846 54.611233 
L 375.685448 54.546637 
L 376.77125 54.750116 
L 378.942852 54.66937 
L 380.028653 54.892228 
L 381.114454 54.633842 
L 382.200255 54.695209 
L 383.286057 54.940676 
L 384.371858 54.811483 
L 385.457659 54.950365 
L 387.629261 54.927756 
L 388.715062 54.805023 
L 390.886665 55.03434 
L 391.972466 54.937446 
L 393.058267 55.0408 
L 395.229869 54.924526 
L 396.31567 55.131235 
L 398.487273 55.011732 
L 398.487273 55.011732 
" clip-path="url(#p27df987834)" style="fill: none; stroke: #1f77b4; stroke-width: 1.5; stroke-linecap: square"/>
   </g>
   <g id="line2d_17">
    <path d="M 73.832727 282.546426 
L 74.918528 262.805737 
L 76.00433 248.814137 
L 77.090131 240.933364 
L 78.175932 237.238445 
L 79.261733 221.903237 
L 80.347534 221.631931 
L 81.433335 211.115622 
L 82.519137 209.022695 
L 83.604938 207.356106 
L 84.690739 205.301937 
L 85.77654 196.439298 
L 86.862341 191.000273 
L 87.948142 190.832322 
L 89.033943 187.253677 
L 90.119745 188.274301 
L 91.205546 186.491438 
L 92.291347 183.545838 
L 93.377148 182.796518 
L 94.462949 182.809438 
L 95.54875 207.485299 
L 96.634552 208.660955 
L 97.720353 198.260919 
L 98.806154 193.235312 
L 99.891955 193.183635 
L 100.977756 190.393066 
L 102.063557 188.506849 
L 103.149358 191.206982 
L 105.320961 189.243249 
L 106.406762 189.101136 
L 107.492563 182.886954 
L 108.578364 179.786322 
L 109.664165 181.905087 
L 110.749967 180.483964 
L 111.835768 179.967192 
L 112.921569 183.067824 
L 114.00737 178.985325 
L 115.093171 179.295388 
L 116.178972 174.812392 
L 117.264773 175.161213 
L 118.350575 173.843444 
L 119.436376 174.2827 
L 121.607978 170.071009 
L 122.693779 171.039956 
L 123.77958 170.006412 
L 124.865382 170.432749 
L 125.951183 169.735107 
L 127.036984 170.393991 
L 128.122785 168.779079 
L 130.294387 169.257093 
L 131.380189 168.662805 
L 132.46599 167.09957 
L 133.551791 167.125409 
L 134.637592 167.784293 
L 136.809194 167.861809 
L 137.894995 167.525907 
L 138.980797 186.388084 
L 140.066598 188.493929 
L 141.152399 185.677522 
L 142.2382 184.708575 
L 144.409802 180.664834 
L 145.495604 181.233283 
L 146.581405 176.918237 
L 148.753007 181.788813 
L 149.838808 181.905087 
L 150.924609 180.00595 
L 152.01041 183.610434 
L 153.096212 179.799241 
L 154.182013 181.388315 
L 155.267814 181.762975 
L 156.353615 180.664834 
L 157.439416 181.65962 
L 158.525217 174.928665 
L 159.611019 178.184329 
L 160.69682 177.292897 
L 161.782621 182.925711 
L 162.868422 179.915515 
L 163.954223 178.197248 
L 165.040024 177.086188 
L 166.125825 180.057627 
L 167.211627 181.349557 
L 168.297428 177.719234 
L 169.383229 176.543578 
L 170.46903 176.039725 
L 171.554831 179.411662 
L 172.640632 174.709037 
L 173.726434 175.600469 
L 174.812235 178.507311 
L 175.898036 175.380841 
L 176.983837 177.938862 
L 178.069638 173.016609 
L 179.155439 174.734876 
L 181.327042 175.238729 
L 182.412843 172.732384 
L 183.498644 173.068286 
L 184.584445 171.673002 
L 185.670246 173.649655 
L 186.756047 174.205185 
L 187.841849 172.357725 
L 188.92765 170.755732 
L 190.013451 172.034742 
L 191.099252 173.908041 
L 192.185053 171.995984 
L 193.270854 168.3915 
L 194.356656 172.034742 
L 195.442457 172.306048 
L 196.528258 169.799704 
L 197.614059 169.735107 
L 198.69986 169.476721 
L 199.785661 169.580076 
L 200.871462 168.985788 
L 201.957264 169.089142 
L 203.043065 168.171872 
L 204.128866 167.435472 
L 205.214667 165.885156 
L 206.300468 166.195219 
L 207.386269 165.471738 
L 208.472071 165.420061 
L 209.557872 164.089373 
L 210.643673 164.657823 
L 211.729474 163.843907 
L 212.815275 163.766391 
L 213.901076 164.218566 
L 214.986877 163.934342 
L 216.072679 164.916209 
L 217.15848 163.404651 
L 218.244281 164.024777 
L 219.330082 163.843907 
L 221.501684 163.068749 
L 222.587486 163.508005 
L 224.759088 163.469247 
L 225.844889 195.095691 
L 226.93069 190.625614 
L 228.016491 195.987123 
L 229.102292 189.566231 
L 230.188094 190.483501 
L 231.273895 183.171178 
L 232.359696 183.778385 
L 233.445497 182.060118 
L 234.531298 188.196785 
L 235.617099 186.297648 
L 236.702901 185.509571 
L 237.788702 188.287221 
L 238.874503 188.532687 
L 239.960304 189.049459 
L 241.046105 182.434778 
L 242.131906 182.680245 
L 243.217708 181.530427 
L 244.303509 187.499143 
L 245.38931 186.904856 
L 246.475111 187.589578 
L 247.560912 190.741887 
L 248.646713 181.65962 
L 249.732514 193.27407 
L 250.818316 187.434547 
L 251.904117 187.150322 
L 252.989918 186.659389 
L 254.075719 187.92548 
L 255.16152 184.411431 
L 256.247321 184.773171 
L 257.333123 187.085726 
L 258.418924 186.956533 
L 259.504725 189.747101 
L 260.590526 182.240989 
L 261.676327 189.747101 
L 262.762128 182.228069 
L 263.847929 183.662111 
L 264.933731 181.013655 
L 266.019532 188.274301 
L 267.105333 181.969683 
L 268.191134 183.778385 
L 269.276935 188.028835 
L 270.362736 182.835276 
L 271.448538 182.512294 
L 272.534339 180.031788 
L 273.62014 184.992799 
L 274.705941 183.675031 
L 275.791742 178.71402 
L 276.877543 179.81216 
L 277.963344 182.693164 
L 279.049146 186.775663 
L 280.134947 184.308076 
L 281.220748 185.755038 
L 282.306549 184.153045 
L 283.39235 182.822357 
L 284.478151 185.561248 
L 285.563953 183.119501 
L 286.649754 184.734413 
L 287.735555 179.166195 
L 288.821356 185.71628 
L 290.992958 188.66188 
L 292.07876 180.522722 
L 293.164561 181.905087 
L 294.250362 180.858624 
L 295.336163 178.765697 
L 296.421964 181.401234 
L 297.507765 181.543346 
L 298.593566 184.127206 
L 299.679368 181.000736 
L 300.765169 184.308076 
L 301.85097 178.817374 
L 302.936771 179.07576 
L 304.022572 180.56148 
L 305.108373 177.925943 
L 307.279976 180.755269 
L 308.365777 184.97988 
L 309.451578 177.848427 
L 310.537379 184.295157 
L 311.62318 177.887185 
L 312.708981 179.024083 
L 313.794783 177.42209 
L 314.880584 174.83823 
L 315.966385 180.445206 
L 317.052186 177.512525 
L 318.137987 175.21289 
L 319.223788 175.497114 
L 320.30959 179.153276 
L 321.395391 176.31103 
L 322.481192 174.424813 
L 323.566993 174.915746 
L 324.652794 180.806946 
L 325.738595 176.026806 
L 326.824396 176.039725 
L 327.910198 173.145802 
L 328.995999 178.726939 
L 330.0818 177.150785 
L 331.167601 175.057858 
L 332.253402 175.458357 
L 333.339203 173.701332 
L 334.425005 170.019332 
L 335.510806 171.89263 
L 336.596607 174.528167 
L 337.682408 170.497346 
L 338.768209 170.872005 
L 339.85401 172.112258 
L 340.939811 170.910763 
L 342.025613 169.993493 
L 343.111414 173.5463 
L 344.197215 168.3915 
L 345.283016 169.270012 
L 346.368817 169.282932 
L 347.454618 169.68343 
L 348.54042 171.052876 
L 349.626221 169.980574 
L 350.712022 169.114981 
L 351.797823 170.122686 
L 352.883624 168.701563 
L 353.969425 168.662805 
L 355.055227 167.112489 
L 356.141028 166.686153 
L 357.226829 168.76616 
L 358.31263 166.440686 
L 359.398431 167.09957 
L 360.484232 165.898075 
L 361.570033 166.634475 
L 362.655835 166.285654 
L 363.741636 164.464033 
L 364.827437 164.683661 
L 365.913238 166.169381 
L 366.999039 164.631984 
L 368.08484 165.084159 
L 369.170642 168.288146 
L 370.256443 166.957458 
L 371.342244 170.910763 
L 372.428045 168.01684 
L 373.513846 173.029528 
L 374.599647 171.492132 
L 375.685448 174.592764 
L 376.77125 169.760946 
L 377.857051 169.748026 
L 378.942852 173.985557 
L 380.028653 172.499837 
L 381.114454 171.995984 
L 382.200255 171.130391 
L 383.286057 172.616111 
L 384.371858 170.04517 
L 385.457659 171.750518 
L 386.54346 170.406911 
L 387.629261 170.704055 
L 388.715062 169.592995 
L 389.800863 170.22604 
L 390.886665 172.008904 
L 391.972466 168.559451 
L 393.058267 171.828034 
L 394.144068 174.2827 
L 395.229869 172.435241 
L 396.31567 170.833248 
L 397.401472 173.391269 
L 398.487273 172.318967 
L 398.487273 172.318967 
" clip-path="url(#p27df987834)" style="fill: none; stroke: #ff7f0e; stroke-width: 1.5; stroke-linecap: square"/>
   </g>
   <g id="line2d_18">
    <path d="M 73.832727 295.488 
L 74.918528 283.192391 
L 76.00433 283.103293 
L 77.090131 277.757376 
L 78.175932 275.52991 
L 79.261733 268.669317 
L 80.347534 268.669317 
L 81.433335 266.620049 
L 82.519137 260.204949 
L 83.604938 261.452329 
L 84.690739 259.49216 
L 85.77654 255.571821 
L 86.862341 253.878947 
L 89.033943 253.878947 
L 90.119745 252.631567 
L 91.205546 250.225904 
L 92.291347 248.889425 
L 93.377148 247.28565 
L 94.462949 248.711228 
L 95.54875 262.69971 
L 96.634552 263.056104 
L 97.720353 260.383146 
L 98.806154 253.611651 
L 99.891955 252.987961 
L 100.977756 252.898862 
L 102.063557 250.225904 
L 103.149358 251.918778 
L 104.23516 256.28461 
L 105.320961 252.898862 
L 106.406762 250.938693 
L 107.492563 251.651482 
L 108.578364 246.127368 
L 109.664165 248.265735 
L 110.749967 249.334918 
L 111.835768 245.949171 
L 112.921569 250.315003 
L 114.00737 245.414579 
L 115.093171 247.552946 
L 116.178972 246.751058 
L 117.264773 248.978523 
L 118.350575 244.0781 
L 119.436376 244.790889 
L 120.522177 240.157761 
L 121.607978 242.652522 
L 122.693779 240.87055 
L 123.77958 241.316043 
L 124.865382 239.712268 
L 125.951183 240.514155 
L 127.036984 242.385226 
L 128.122785 241.761536 
L 129.208586 239.355873 
L 130.294387 240.603254 
L 132.46599 239.801366 
L 133.551791 239.801366 
L 134.637592 240.514155 
L 135.723393 240.157761 
L 136.809194 239.177676 
L 137.894995 239.890465 
L 138.980797 252.809764 
L 140.066598 253.07706 
L 141.152399 251.11689 
L 142.2382 247.374748 
L 143.324001 248.265735 
L 144.409802 247.28565 
L 145.495604 247.90934 
L 146.581405 244.612691 
L 147.667206 247.552946 
L 149.838808 250.760496 
L 150.924609 248.622129 
L 152.01041 249.424017 
L 153.096212 248.265735 
L 154.182013 249.156721 
L 155.267814 247.374748 
L 156.353615 248.265735 
L 157.439416 249.602214 
L 158.525217 242.385226 
L 159.611019 241.316043 
L 160.69682 241.850634 
L 161.782621 247.731143 
L 162.868422 248.889425 
L 163.954223 244.790889 
L 165.040024 243.721705 
L 166.125825 243.989001 
L 167.211627 250.136805 
L 168.297428 244.879987 
L 169.383229 245.592776 
L 170.46903 237.930295 
L 171.554831 246.572861 
L 172.640632 243.454409 
L 173.726434 242.11793 
L 174.812235 247.642044 
L 175.898036 244.523593 
L 176.983837 245.058184 
L 178.069638 242.207029 
L 179.155439 242.919818 
L 180.24124 241.405141 
L 181.327042 243.454409 
L 182.412843 239.890465 
L 183.498644 240.246859 
L 184.584445 241.137845 
L 185.670246 242.563423 
L 186.756047 241.49424 
L 187.841849 242.652522 
L 188.92765 242.11793 
L 190.013451 240.603254 
L 191.099252 242.028832 
L 193.270854 235.613731 
L 194.356656 242.385226 
L 195.442457 238.553986 
L 196.528258 239.979563 
L 197.614059 241.939733 
L 198.69986 239.177676 
L 199.785661 238.553986 
L 200.871462 238.464887 
L 201.957264 240.068662 
L 203.043065 237.039309 
L 204.128866 239.444972 
L 205.214667 234.722745 
L 206.300468 238.108493 
L 207.386269 237.039309 
L 208.472071 236.504717 
L 209.557872 235.524633 
L 210.643673 236.682915 
L 211.729474 234.722745 
L 212.815275 234.455449 
L 213.901076 234.544548 
L 214.986877 234.900942 
L 216.072679 236.059224 
L 217.15848 235.791929 
L 218.244281 235.168238 
L 219.330082 235.524633 
L 220.415883 235.435534 
L 221.501684 234.811844 
L 222.587486 236.772013 
L 223.673287 235.07914 
L 224.759088 234.722745 
L 225.844889 255.928215 
L 226.93069 250.938693 
L 228.016491 257.353793 
L 229.102292 252.809764 
L 230.188094 251.205989 
L 231.273895 246.751058 
L 232.359696 247.107453 
L 233.445497 248.265735 
L 234.531298 253.433454 
L 236.702901 248.53303 
L 237.788702 253.611651 
L 238.874503 254.146243 
L 239.960304 253.968046 
L 241.046105 246.394664 
L 242.131906 249.691312 
L 243.217708 245.503678 
L 245.38931 249.602214 
L 246.475111 249.156721 
L 247.560912 253.433454 
L 248.646713 246.216466 
L 249.732514 255.304525 
L 250.818316 247.731143 
L 251.904117 252.096975 
L 252.989918 248.354833 
L 254.075719 252.542468 
L 255.16152 247.642044 
L 256.247321 251.027792 
L 257.333123 251.918778 
L 258.418924 248.622129 
L 259.504725 252.364271 
L 260.590526 248.443932 
L 261.676327 250.047707 
L 262.762128 247.820241 
L 263.847929 247.107453 
L 264.933731 243.098015 
L 266.019532 250.225904 
L 267.105333 243.810804 
L 268.191134 247.196551 
L 269.276935 249.513115 
L 270.362736 249.067622 
L 271.448538 246.216466 
L 272.534339 242.385226 
L 273.62014 248.176636 
L 274.705941 249.691312 
L 275.791742 239.444972 
L 276.877543 240.514155 
L 277.963344 243.454409 
L 279.049146 248.176636 
L 280.134947 247.28565 
L 281.220748 249.245819 
L 282.306549 249.958608 
L 283.39235 247.463847 
L 284.478151 249.691312 
L 285.563953 242.74162 
L 286.649754 248.443932 
L 287.735555 244.434494 
L 288.821356 251.295087 
L 289.907157 253.255257 
L 290.992958 252.720665 
L 292.07876 244.0781 
L 293.164561 246.305565 
L 294.250362 243.365311 
L 295.336163 246.127368 
L 296.421964 242.830719 
L 297.507765 247.463847 
L 298.593566 245.414579 
L 299.679368 245.236382 
L 300.765169 249.780411 
L 301.85097 248.711228 
L 302.936771 242.919818 
L 304.022572 246.572861 
L 305.108373 243.008916 
L 306.194175 244.345396 
L 307.279976 244.167198 
L 308.365777 248.800326 
L 309.451578 243.810804 
L 310.537379 248.800326 
L 311.62318 244.256297 
L 312.708981 243.454409 
L 313.794783 243.989001 
L 314.880584 242.474325 
L 315.966385 244.345396 
L 317.052186 242.11793 
L 318.137987 241.316043 
L 319.223788 243.365311 
L 320.30959 242.028832 
L 321.395391 237.306605 
L 322.481192 241.939733 
L 323.566993 240.87055 
L 324.652794 246.66196 
L 325.738595 242.919818 
L 326.824396 243.543508 
L 327.910198 240.87055 
L 328.995999 243.632607 
L 330.0818 243.008916 
L 331.167601 241.226944 
L 333.339203 240.335958 
L 334.425005 235.524633 
L 335.510806 237.039309 
L 336.596607 241.49424 
L 337.682408 238.108493 
L 338.768209 237.039309 
L 339.85401 240.603254 
L 340.939811 238.108493 
L 342.025613 238.91038 
L 343.111414 240.246859 
L 344.197215 236.593816 
L 345.283016 236.504717 
L 346.368817 235.524633 
L 347.454618 236.504717 
L 348.54042 236.059224 
L 349.626221 235.257337 
L 350.712022 236.593816 
L 351.797823 240.425057 
L 352.883624 237.573901 
L 353.969425 236.772013 
L 355.055227 235.70283 
L 356.141028 233.74266 
L 357.226829 236.237422 
L 358.31263 233.831759 
L 359.398431 234.990041 
L 360.484232 235.970126 
L 361.570033 235.613731 
L 362.655835 234.722745 
L 363.741636 231.693392 
L 364.827437 234.099055 
L 366.999039 234.366351 
L 368.08484 233.831759 
L 369.170642 236.504717 
L 370.256443 234.099055 
L 371.342244 239.177676 
L 372.428045 235.524633 
L 373.513846 242.296127 
L 374.599647 240.959648 
L 375.685448 242.474325 
L 376.77125 235.257337 
L 377.857051 237.395704 
L 378.942852 237.752098 
L 380.028653 243.989001 
L 381.114454 238.019394 
L 382.200255 237.217506 
L 383.286057 240.603254 
L 384.371858 238.375788 
L 385.457659 239.355873 
L 386.54346 237.128408 
L 387.629261 235.613731 
L 388.715062 237.217506 
L 389.800863 241.048747 
L 391.972466 236.237422 
L 394.144068 240.959648 
L 395.229869 241.048747 
L 396.31567 238.821281 
L 397.401472 240.068662 
L 398.487273 242.563423 
L 398.487273 242.563423 
" clip-path="url(#p27df987834)" style="fill: none; stroke: #2ca02c; stroke-width: 1.5; stroke-linecap: square"/>
   </g>
   <g id="line2d_19">
    <path d="M 368.08484 165.058321 
L 369.170642 166.957458 
M 371.342244 169.089142 
L 372.428045 174.360216 
L 373.513846 177.04743 
L 374.599647 175.510034 
L 375.685448 175.962209 
L 376.77125 175.277486 
L 377.857051 177.292897 
L 378.942852 177.189543 
L 380.028653 177.305816 
L 381.114454 180.445206 
L 382.200255 181.762975 
L 383.286057 179.618371 
L 384.371858 185.057396 
L 385.457659 184.863606 
L 386.54346 180.393529 
L 387.629261 184.230561 
L 388.715062 188.6748 
L 389.800863 186.698147 
L 390.886665 187.860884 
L 391.972466 192.602266 
L 393.058267 188.11927 
L 394.144068 192.744379 
L 395.229869 194.243017 
L 396.31567 191.60748 
L 397.401472 195.987123 
L 398.487273 196.426379 
L 398.487273 196.426379 
" clip-path="url(#p27df987834)" style="fill: none; stroke: #d62728; stroke-width: 1.5; stroke-linecap: square"/>
   </g>
   <g id="line2d_20">
    <path d="M 368.08484 232.851674 
L 369.170642 235.524633 
L 370.256443 232.227984 
L 371.342244 235.791929 
L 372.428045 238.464887 
L 374.599647 239.890465 
L 375.685448 240.781451 
L 376.77125 241.048747 
L 377.857051 243.454409 
L 378.942852 242.830719 
L 380.028653 242.74162 
L 381.114454 243.098015 
L 382.200255 242.74162 
L 383.286057 245.236382 
L 384.371858 249.067622 
L 385.457659 249.245819 
L 386.54346 246.038269 
L 387.629261 245.860072 
L 388.715062 250.582299 
L 389.800863 248.800326 
L 390.886665 247.28565 
L 391.972466 251.027792 
L 393.058267 248.176636 
L 394.144068 253.433454 
L 395.229869 253.07706 
L 396.31567 251.918778 
L 397.401472 253.344356 
L 398.487273 252.453369 
L 398.487273 252.453369 
" clip-path="url(#p27df987834)" style="fill: none; stroke: #9467bd; stroke-width: 1.5; stroke-linecap: square"/>
   </g>
   <g id="patch_3">
    <path d="M 57.6 307.584 
L 57.6 41.472 
" style="fill: none; stroke: #000000; stroke-width: 0.8; stroke-linejoin: miter; stroke-linecap: square"/>
   </g>
   <g id="patch_4">
    <path d="M 414.72 307.584 
L 414.72 41.472 
" style="fill: none; stroke: #000000; stroke-width: 0.8; stroke-linejoin: miter; stroke-linecap: square"/>
   </g>
   <g id="patch_5">
    <path d="M 57.6 307.584 
L 414.72 307.584 
" style="fill: none; stroke: #000000; stroke-width: 0.8; stroke-linejoin: miter; stroke-linecap: square"/>
   </g>
   <g id="patch_6">
    <path d="M 57.6 41.472 
L 414.72 41.472 
" style="fill: none; stroke: #000000; stroke-width: 0.8; stroke-linejoin: miter; stroke-linecap: square"/>
   </g>
   <g id="text_18">
    <!-- Learning Curves -->
    <g transform="translate(187.37625 35.472) scale(0.12 -0.12)">
     <defs>
      <path id="DejaVuSans-4c" d="M 628 4666 
L 1259 4666 
L 1259 531 
L 3531 531 
L 3531 0 
L 628 0 
L 628 4666 
z
" transform="scale(0.015625)"/>
      <path id="DejaVuSans-65" d="M 3597 1894 
L 3597 1613 
L 953 1613 
Q 991 1019 1311 708 
Q 1631 397 2203 397 
Q 2534 397 2845 478 
Q 3156 559 3463 722 
L 3463 178 
Q 3153 47 2828 -22 
Q 2503 -91 2169 -91 
Q 1331 -91 842 396 
Q 353 884 353 1716 
Q 353 2575 817 3079 
Q 1281 3584 2069 3584 
Q 2775 3584 3186 3129 
Q 3597 2675 3597 1894 
z
M 3022 2063 
Q 3016 2534 2758 2815 
Q 2500 3097 2075 3097 
Q 1594 3097 1305 2825 
Q 1016 2553 972 2059 
L 3022 2063 
z
" transform="scale(0.015625)"/>
      <path id="DejaVuSans-6e" d="M 3513 2113 
L 3513 0 
L 2938 0 
L 2938 2094 
Q 2938 2591 2744 2837 
Q 2550 3084 2163 3084 
Q 1697 3084 1428 2787 
Q 1159 2491 1159 1978 
L 1159 0 
L 581 0 
L 581 3500 
L 1159 3500 
L 1159 2956 
Q 1366 3272 1645 3428 
Q 1925 3584 2291 3584 
Q 2894 3584 3203 3211 
Q 3513 2838 3513 2113 
z
" transform="scale(0.015625)"/>
      <path id="DejaVuSans-69" d="M 603 3500 
L 1178 3500 
L 1178 0 
L 603 0 
L 603 3500 
z
M 603 4863 
L 1178 4863 
L 1178 4134 
L 603 4134 
L 603 4863 
z
" transform="scale(0.015625)"/>
      <path id="DejaVuSans-67" d="M 2906 1791 
Q 2906 2416 2648 2759 
Q 2391 3103 1925 3103 
Q 1463 3103 1205 2759 
Q 947 2416 947 1791 
Q 947 1169 1205 825 
Q 1463 481 1925 481 
Q 2391 481 2648 825 
Q 2906 1169 2906 1791 
z
M 3481 434 
Q 3481 -459 3084 -895 
Q 2688 -1331 1869 -1331 
Q 1566 -1331 1297 -1286 
Q 1028 -1241 775 -1147 
L 775 -588 
Q 1028 -725 1275 -790 
Q 1522 -856 1778 -856 
Q 2344 -856 2625 -561 
Q 2906 -266 2906 331 
L 2906 616 
Q 2728 306 2450 153 
Q 2172 0 1784 0 
Q 1141 0 747 490 
Q 353 981 353 1791 
Q 353 2603 747 3093 
Q 1141 3584 1784 3584 
Q 2172 3584 2450 3431 
Q 2728 3278 2906 2969 
L 2906 3500 
L 3481 3500 
L 3481 434 
z
" transform="scale(0.015625)"/>
      <path id="DejaVuSans-20" transform="scale(0.015625)"/>
      <path id="DejaVuSans-43" d="M 4122 4306 
L 4122 3641 
Q 3803 3938 3442 4084 
Q 3081 4231 2675 4231 
Q 1875 4231 1450 3742 
Q 1025 3253 1025 2328 
Q 1025 1406 1450 917 
Q 1875 428 2675 428 
Q 3081 428 3442 575 
Q 3803 722 4122 1019 
L 4122 359 
Q 3791 134 3420 21 
Q 3050 -91 2638 -91 
Q 1578 -91 968 557 
Q 359 1206 359 2328 
Q 359 3453 968 4101 
Q 1578 4750 2638 4750 
Q 3056 4750 3426 4639 
Q 3797 4528 4122 4306 
z
" transform="scale(0.015625)"/>
      <path id="DejaVuSans-76" d="M 191 3500 
L 800 3500 
L 1894 563 
L 2988 3500 
L 3597 3500 
L 2284 0 
L 1503 0 
L 191 3500 
z
" transform="scale(0.015625)"/>
     </defs>
     <use xlink:href="#DejaVuSans-4c"/>
     <use xlink:href="#DejaVuSans-65" x="53.962891"/>
     <use xlink:href="#DejaVuSans-61" x="115.486328"/>
     <use xlink:href="#DejaVuSans-72" x="176.765625"/>
     <use xlink:href="#DejaVuSans-6e" x="216.128906"/>
     <use xlink:href="#DejaVuSans-69" x="279.507812"/>
     <use xlink:href="#DejaVuSans-6e" x="307.291016"/>
     <use xlink:href="#DejaVuSans-67" x="370.669922"/>
     <use xlink:href="#DejaVuSans-20" x="434.146484"/>
     <use xlink:href="#DejaVuSans-43" x="465.933594"/>
     <use xlink:href="#DejaVuSans-75" x="535.757812"/>
     <use xlink:href="#DejaVuSans-72" x="599.136719"/>
     <use xlink:href="#DejaVuSans-76" x="640.25"/>
     <use xlink:href="#DejaVuSans-65" x="699.429688"/>
     <use xlink:href="#DejaVuSans-73" x="760.953125"/>
    </g>
   </g>
   <g id="legend_1">
    <g id="patch_7">
     <path d="M 64.6 122.862625 
L 258.13125 122.862625 
Q 260.13125 122.862625 260.13125 120.862625 
L 260.13125 48.472 
Q 260.13125 46.472 258.13125 46.472 
L 64.6 46.472 
Q 62.6 46.472 62.6 48.472 
L 62.6 120.862625 
Q 62.6 122.862625 64.6 122.862625 
z
" style="fill: #ffffff; opacity: 0.8; stroke: #cccccc; stroke-linejoin: miter"/>
    </g>
    <g id="line2d_21">
     <path d="M 66.6 54.570438 
L 76.6 54.570438 
L 86.6 54.570438 
" style="fill: none; stroke: #1f77b4; stroke-width: 1.5; stroke-linecap: square"/>
    </g>
    <g id="text_19">
     <!-- Train Accuracy -->
     <g transform="translate(94.6 58.070438) scale(0.1 -0.1)">
      <defs>
       <path id="DejaVuSans-54" d="M -19 4666 
L 3928 4666 
L 3928 4134 
L 2272 4134 
L 2272 0 
L 1638 0 
L 1638 4134 
L -19 4134 
L -19 4666 
z
" transform="scale(0.015625)"/>
      </defs>
      <use xlink:href="#DejaVuSans-54"/>
      <use xlink:href="#DejaVuSans-72" x="46.333984"/>
      <use xlink:href="#DejaVuSans-61" x="87.447266"/>
      <use xlink:href="#DejaVuSans-69" x="148.726562"/>
      <use xlink:href="#DejaVuSans-6e" x="176.509766"/>
      <use xlink:href="#DejaVuSans-20" x="239.888672"/>
      <use xlink:href="#DejaVuSans-41" x="271.675781"/>
      <use xlink:href="#DejaVuSans-63" x="338.333984"/>
      <use xlink:href="#DejaVuSans-63" x="393.314453"/>
      <use xlink:href="#DejaVuSans-75" x="448.294922"/>
      <use xlink:href="#DejaVuSans-72" x="511.673828"/>
      <use xlink:href="#DejaVuSans-61" x="552.787109"/>
      <use xlink:href="#DejaVuSans-63" x="614.066406"/>
      <use xlink:href="#DejaVuSans-79" x="669.046875"/>
     </g>
    </g>
    <g id="line2d_22">
     <path d="M 66.6 69.248563 
L 76.6 69.248563 
L 86.6 69.248563 
" style="fill: none; stroke: #ff7f0e; stroke-width: 1.5; stroke-linecap: square"/>
    </g>
    <g id="text_20">
     <!-- Validation Accuracy -->
     <g transform="translate(94.6 72.748563) scale(0.1 -0.1)">
      <defs>
       <path id="DejaVuSans-56" d="M 1831 0 
L 50 4666 
L 709 4666 
L 2188 738 
L 3669 4666 
L 4325 4666 
L 2547 0 
L 1831 0 
z
" transform="scale(0.015625)"/>
       <path id="DejaVuSans-6c" d="M 603 4863 
L 1178 4863 
L 1178 0 
L 603 0 
L 603 4863 
z
" transform="scale(0.015625)"/>
       <path id="DejaVuSans-64" d="M 2906 2969 
L 2906 4863 
L 3481 4863 
L 3481 0 
L 2906 0 
L 2906 525 
Q 2725 213 2448 61 
Q 2172 -91 1784 -91 
Q 1150 -91 751 415 
Q 353 922 353 1747 
Q 353 2572 751 3078 
Q 1150 3584 1784 3584 
Q 2172 3584 2448 3432 
Q 2725 3281 2906 2969 
z
M 947 1747 
Q 947 1113 1208 752 
Q 1469 391 1925 391 
Q 2381 391 2643 752 
Q 2906 1113 2906 1747 
Q 2906 2381 2643 2742 
Q 2381 3103 1925 3103 
Q 1469 3103 1208 2742 
Q 947 2381 947 1747 
z
" transform="scale(0.015625)"/>
       <path id="DejaVuSans-74" d="M 1172 4494 
L 1172 3500 
L 2356 3500 
L 2356 3053 
L 1172 3053 
L 1172 1153 
Q 1172 725 1289 603 
Q 1406 481 1766 481 
L 2356 481 
L 2356 0 
L 1766 0 
Q 1100 0 847 248 
Q 594 497 594 1153 
L 594 3053 
L 172 3053 
L 172 3500 
L 594 3500 
L 594 4494 
L 1172 4494 
z
" transform="scale(0.015625)"/>
      </defs>
      <use xlink:href="#DejaVuSans-56"/>
      <use xlink:href="#DejaVuSans-61" x="60.658203"/>
      <use xlink:href="#DejaVuSans-6c" x="121.9375"/>
      <use xlink:href="#DejaVuSans-69" x="149.720703"/>
      <use xlink:href="#DejaVuSans-64" x="177.503906"/>
      <use xlink:href="#DejaVuSans-61" x="240.980469"/>
      <use xlink:href="#DejaVuSans-74" x="302.259766"/>
      <use xlink:href="#DejaVuSans-69" x="341.46875"/>
      <use xlink:href="#DejaVuSans-6f" x="369.251953"/>
      <use xlink:href="#DejaVuSans-6e" x="430.433594"/>
      <use xlink:href="#DejaVuSans-20" x="493.8125"/>
      <use xlink:href="#DejaVuSans-41" x="525.599609"/>
      <use xlink:href="#DejaVuSans-63" x="592.257812"/>
      <use xlink:href="#DejaVuSans-63" x="647.238281"/>
      <use xlink:href="#DejaVuSans-75" x="702.21875"/>
      <use xlink:href="#DejaVuSans-72" x="765.597656"/>
      <use xlink:href="#DejaVuSans-61" x="806.710938"/>
      <use xlink:href="#DejaVuSans-63" x="867.990234"/>
      <use xlink:href="#DejaVuSans-79" x="922.970703"/>
     </g>
    </g>
    <g id="line2d_23">
     <path d="M 66.6 83.926688 
L 76.6 83.926688 
L 86.6 83.926688 
" style="fill: none; stroke: #2ca02c; stroke-width: 1.5; stroke-linecap: square"/>
    </g>
    <g id="text_21">
     <!-- Robust Validation Accuracy -->
     <g transform="translate(94.6 87.426688) scale(0.1 -0.1)">
      <defs>
       <path id="DejaVuSans-52" d="M 2841 2188 
Q 3044 2119 3236 1894 
Q 3428 1669 3622 1275 
L 4263 0 
L 3584 0 
L 2988 1197 
Q 2756 1666 2539 1819 
Q 2322 1972 1947 1972 
L 1259 1972 
L 1259 0 
L 628 0 
L 628 4666 
L 2053 4666 
Q 2853 4666 3247 4331 
Q 3641 3997 3641 3322 
Q 3641 2881 3436 2590 
Q 3231 2300 2841 2188 
z
M 1259 4147 
L 1259 2491 
L 2053 2491 
Q 2509 2491 2742 2702 
Q 2975 2913 2975 3322 
Q 2975 3731 2742 3939 
Q 2509 4147 2053 4147 
L 1259 4147 
z
" transform="scale(0.015625)"/>
       <path id="DejaVuSans-62" d="M 3116 1747 
Q 3116 2381 2855 2742 
Q 2594 3103 2138 3103 
Q 1681 3103 1420 2742 
Q 1159 2381 1159 1747 
Q 1159 1113 1420 752 
Q 1681 391 2138 391 
Q 2594 391 2855 752 
Q 3116 1113 3116 1747 
z
M 1159 2969 
Q 1341 3281 1617 3432 
Q 1894 3584 2278 3584 
Q 2916 3584 3314 3078 
Q 3713 2572 3713 1747 
Q 3713 922 3314 415 
Q 2916 -91 2278 -91 
Q 1894 -91 1617 61 
Q 1341 213 1159 525 
L 1159 0 
L 581 0 
L 581 4863 
L 1159 4863 
L 1159 2969 
z
" transform="scale(0.015625)"/>
      </defs>
      <use xlink:href="#DejaVuSans-52"/>
      <use xlink:href="#DejaVuSans-6f" x="64.982422"/>
      <use xlink:href="#DejaVuSans-62" x="126.164062"/>
      <use xlink:href="#DejaVuSans-75" x="189.640625"/>
      <use xlink:href="#DejaVuSans-73" x="253.019531"/>
      <use xlink:href="#DejaVuSans-74" x="305.119141"/>
      <use xlink:href="#DejaVuSans-20" x="344.328125"/>
      <use xlink:href="#DejaVuSans-56" x="376.115234"/>
      <use xlink:href="#DejaVuSans-61" x="436.773438"/>
      <use xlink:href="#DejaVuSans-6c" x="498.052734"/>
      <use xlink:href="#DejaVuSans-69" x="525.835938"/>
      <use xlink:href="#DejaVuSans-64" x="553.619141"/>
      <use xlink:href="#DejaVuSans-61" x="617.095703"/>
      <use xlink:href="#DejaVuSans-74" x="678.375"/>
      <use xlink:href="#DejaVuSans-69" x="717.583984"/>
      <use xlink:href="#DejaVuSans-6f" x="745.367188"/>
      <use xlink:href="#DejaVuSans-6e" x="806.548828"/>
      <use xlink:href="#DejaVuSans-20" x="869.927734"/>
      <use xlink:href="#DejaVuSans-41" x="901.714844"/>
      <use xlink:href="#DejaVuSans-63" x="968.373047"/>
      <use xlink:href="#DejaVuSans-63" x="1023.353516"/>
      <use xlink:href="#DejaVuSans-75" x="1078.333984"/>
      <use xlink:href="#DejaVuSans-72" x="1141.712891"/>
      <use xlink:href="#DejaVuSans-61" x="1182.826172"/>
      <use xlink:href="#DejaVuSans-63" x="1244.105469"/>
      <use xlink:href="#DejaVuSans-79" x="1299.085938"/>
     </g>
    </g>
    <g id="line2d_24">
     <path d="M 66.6 98.604813 
L 76.6 98.604813 
L 86.6 98.604813 
" style="fill: none; stroke: #d62728; stroke-width: 1.5; stroke-linecap: square"/>
    </g>
    <g id="text_22">
     <!-- SWA Validation Accuracy -->
     <g transform="translate(94.6 102.104813) scale(0.1 -0.1)">
      <defs>
       <path id="DejaVuSans-53" d="M 3425 4513 
L 3425 3897 
Q 3066 4069 2747 4153 
Q 2428 4238 2131 4238 
Q 1616 4238 1336 4038 
Q 1056 3838 1056 3469 
Q 1056 3159 1242 3001 
Q 1428 2844 1947 2747 
L 2328 2669 
Q 3034 2534 3370 2195 
Q 3706 1856 3706 1288 
Q 3706 609 3251 259 
Q 2797 -91 1919 -91 
Q 1588 -91 1214 -16 
Q 841 59 441 206 
L 441 856 
Q 825 641 1194 531 
Q 1563 422 1919 422 
Q 2459 422 2753 634 
Q 3047 847 3047 1241 
Q 3047 1584 2836 1778 
Q 2625 1972 2144 2069 
L 1759 2144 
Q 1053 2284 737 2584 
Q 422 2884 422 3419 
Q 422 4038 858 4394 
Q 1294 4750 2059 4750 
Q 2388 4750 2728 4690 
Q 3069 4631 3425 4513 
z
" transform="scale(0.015625)"/>
       <path id="DejaVuSans-57" d="M 213 4666 
L 850 4666 
L 1831 722 
L 2809 4666 
L 3519 4666 
L 4500 722 
L 5478 4666 
L 6119 4666 
L 4947 0 
L 4153 0 
L 3169 4050 
L 2175 0 
L 1381 0 
L 213 4666 
z
" transform="scale(0.015625)"/>
      </defs>
      <use xlink:href="#DejaVuSans-53"/>
      <use xlink:href="#DejaVuSans-57" x="63.476562"/>
      <use xlink:href="#DejaVuSans-41" x="156.853516"/>
      <use xlink:href="#DejaVuSans-20" x="225.261719"/>
      <use xlink:href="#DejaVuSans-56" x="257.048828"/>
      <use xlink:href="#DejaVuSans-61" x="317.707031"/>
      <use xlink:href="#DejaVuSans-6c" x="378.986328"/>
      <use xlink:href="#DejaVuSans-69" x="406.769531"/>
      <use xlink:href="#DejaVuSans-64" x="434.552734"/>
      <use xlink:href="#DejaVuSans-61" x="498.029297"/>
      <use xlink:href="#DejaVuSans-74" x="559.308594"/>
      <use xlink:href="#DejaVuSans-69" x="598.517578"/>
      <use xlink:href="#DejaVuSans-6f" x="626.300781"/>
      <use xlink:href="#DejaVuSans-6e" x="687.482422"/>
      <use xlink:href="#DejaVuSans-20" x="750.861328"/>
      <use xlink:href="#DejaVuSans-41" x="782.648438"/>
      <use xlink:href="#DejaVuSans-63" x="849.306641"/>
      <use xlink:href="#DejaVuSans-63" x="904.287109"/>
      <use xlink:href="#DejaVuSans-75" x="959.267578"/>
      <use xlink:href="#DejaVuSans-72" x="1022.646484"/>
      <use xlink:href="#DejaVuSans-61" x="1063.759766"/>
      <use xlink:href="#DejaVuSans-63" x="1125.039062"/>
      <use xlink:href="#DejaVuSans-79" x="1180.019531"/>
     </g>
    </g>
    <g id="line2d_25">
     <path d="M 66.6 113.282938 
L 76.6 113.282938 
L 86.6 113.282938 
" style="fill: none; stroke: #9467bd; stroke-width: 1.5; stroke-linecap: square"/>
    </g>
    <g id="text_23">
     <!-- SWA Robust Validation Accuracy -->
     <g transform="translate(94.6 116.782938) scale(0.1 -0.1)">
      <use xlink:href="#DejaVuSans-53"/>
      <use xlink:href="#DejaVuSans-57" x="63.476562"/>
      <use xlink:href="#DejaVuSans-41" x="156.853516"/>
      <use xlink:href="#DejaVuSans-20" x="225.261719"/>
      <use xlink:href="#DejaVuSans-52" x="257.048828"/>
      <use xlink:href="#DejaVuSans-6f" x="322.03125"/>
      <use xlink:href="#DejaVuSans-62" x="383.212891"/>
      <use xlink:href="#DejaVuSans-75" x="446.689453"/>
      <use xlink:href="#DejaVuSans-73" x="510.068359"/>
      <use xlink:href="#DejaVuSans-74" x="562.167969"/>
      <use xlink:href="#DejaVuSans-20" x="601.376953"/>
      <use xlink:href="#DejaVuSans-56" x="633.164062"/>
      <use xlink:href="#DejaVuSans-61" x="693.822266"/>
      <use xlink:href="#DejaVuSans-6c" x="755.101562"/>
      <use xlink:href="#DejaVuSans-69" x="782.884766"/>
      <use xlink:href="#DejaVuSans-64" x="810.667969"/>
      <use xlink:href="#DejaVuSans-61" x="874.144531"/>
      <use xlink:href="#DejaVuSans-74" x="935.423828"/>
      <use xlink:href="#DejaVuSans-69" x="974.632812"/>
      <use xlink:href="#DejaVuSans-6f" x="1002.416016"/>
      <use xlink:href="#DejaVuSans-6e" x="1063.597656"/>
      <use xlink:href="#DejaVuSans-20" x="1126.976562"/>
      <use xlink:href="#DejaVuSans-41" x="1158.763672"/>
      <use xlink:href="#DejaVuSans-63" x="1225.421875"/>
      <use xlink:href="#DejaVuSans-63" x="1280.402344"/>
      <use xlink:href="#DejaVuSans-75" x="1335.382812"/>
      <use xlink:href="#DejaVuSans-72" x="1398.761719"/>
      <use xlink:href="#DejaVuSans-61" x="1439.875"/>
      <use xlink:href="#DejaVuSans-63" x="1501.154297"/>
      <use xlink:href="#DejaVuSans-79" x="1556.134766"/>
     </g>
    </g>
   </g>
  </g>
 </g>
 <defs>
  <clipPath id="p27df987834">
   <rect x="57.6" y="41.472" width="357.12" height="266.112"/>
  </clipPath>
 </defs>
</svg>
