<?xml version="1.0" encoding="utf-8" standalone="no"?>
<!DOCTYPE svg PUBLIC "-//W3C//DTD SVG 1.1//EN"
  "http://www.w3.org/Graphics/SVG/1.1/DTD/svg11.dtd">
<svg xmlns:xlink="http://www.w3.org/1999/xlink" width="460.8pt" height="345.6pt" viewBox="0 0 460.8 345.6" xmlns="http://www.w3.org/2000/svg" version="1.1">
 <metadata>
  <rdf:RDF xmlns:dc="http://purl.org/dc/elements/1.1/" xmlns:cc="http://creativecommons.org/ns#" xmlns:rdf="http://www.w3.org/1999/02/22-rdf-syntax-ns#">
   <cc:Work>
    <dc:type rdf:resource="http://purl.org/dc/dcmitype/StillImage"/>
    <dc:date>2025-08-16T21:35:37.519462</dc:date>
    <dc:format>image/svg+xml</dc:format>
    <dc:creator>
     <cc:Agent>
      <dc:title>Matplotlib v3.9.1, https://matplotlib.org/</dc:title>
     </cc:Agent>
    </dc:creator>
   </cc:Work>
  </rdf:RDF>
 </metadata>
 <defs>
  <style type="text/css">*{stroke-linejoin: round; stroke-linecap: butt}</style>
 </defs>
 <g id="figure_1">
  <g id="patch_1">
   <path d="M 0 345.6 
L 460.8 345.6 
L 460.8 0 
L 0 0 
z
" style="fill: #ffffff"/>
  </g>
  <g id="axes_1">
   <g id="patch_2">
    <path d="M 57.6 307.584 
L 414.72 307.584 
L 414.72 41.472 
L 57.6 41.472 
z
" style="fill: #ffffff"/>
   </g>
   <g id="matplotlib.axis_1">
    <g id="xtick_1">
     <g id="line2d_1">
      <defs>
       <path id="mdddbbc6627" d="M 0 0 
L 0 3.5 
" style="stroke: #000000; stroke-width: 0.8"/>
      </defs>
      <g>
       <use xlink:href="#mdddbbc6627" x="73.832727" y="307.584" style="stroke: #000000; stroke-width: 0.8"/>
      </g>
     </g>
     <g id="text_1">
      <!-- 1 -->
      <g transform="translate(70.651477 322.182437) scale(0.1 -0.1)">
       <defs>
        <path id="DejaVuSans-31" d="M 794 531 
L 1825 531 
L 1825 4091 
L 703 3866 
L 703 4441 
L 1819 4666 
L 2450 4666 
L 2450 531 
L 3481 531 
L 3481 0 
L 794 0 
L 794 531 
z
" transform="scale(0.015625)"/>
       </defs>
       <use xlink:href="#DejaVuSans-31"/>
      </g>
     </g>
    </g>
    <g id="xtick_2">
     <g id="line2d_2">
      <g>
       <use xlink:href="#mdddbbc6627" x="109.664165" y="307.584" style="stroke: #000000; stroke-width: 0.8"/>
      </g>
     </g>
     <g id="text_2">
      <!-- 34 -->
      <g transform="translate(103.301665 322.182437) scale(0.1 -0.1)">
       <defs>
        <path id="DejaVuSans-33" d="M 2597 2516 
Q 3050 2419 3304 2112 
Q 3559 1806 3559 1356 
Q 3559 666 3084 287 
Q 2609 -91 1734 -91 
Q 1441 -91 1130 -33 
Q 819 25 488 141 
L 488 750 
Q 750 597 1062 519 
Q 1375 441 1716 441 
Q 2309 441 2620 675 
Q 2931 909 2931 1356 
Q 2931 1769 2642 2001 
Q 2353 2234 1838 2234 
L 1294 2234 
L 1294 2753 
L 1863 2753 
Q 2328 2753 2575 2939 
Q 2822 3125 2822 3475 
Q 2822 3834 2567 4026 
Q 2313 4219 1838 4219 
Q 1578 4219 1281 4162 
Q 984 4106 628 3988 
L 628 4550 
Q 988 4650 1302 4700 
Q 1616 4750 1894 4750 
Q 2613 4750 3031 4423 
Q 3450 4097 3450 3541 
Q 3450 3153 3228 2886 
Q 3006 2619 2597 2516 
z
" transform="scale(0.015625)"/>
        <path id="DejaVuSans-34" d="M 2419 4116 
L 825 1625 
L 2419 1625 
L 2419 4116 
z
M 2253 4666 
L 3047 4666 
L 3047 1625 
L 3713 1625 
L 3713 1100 
L 3047 1100 
L 3047 0 
L 2419 0 
L 2419 1100 
L 313 1100 
L 313 1709 
L 2253 4666 
z
" transform="scale(0.015625)"/>
       </defs>
       <use xlink:href="#DejaVuSans-33"/>
       <use xlink:href="#DejaVuSans-34" x="63.623047"/>
      </g>
     </g>
    </g>
    <g id="xtick_3">
     <g id="line2d_3">
      <g>
       <use xlink:href="#mdddbbc6627" x="145.495604" y="307.584" style="stroke: #000000; stroke-width: 0.8"/>
      </g>
     </g>
     <g id="text_3">
      <!-- 67 -->
      <g transform="translate(139.133104 322.182437) scale(0.1 -0.1)">
       <defs>
        <path id="DejaVuSans-36" d="M 2113 2584 
Q 1688 2584 1439 2293 
Q 1191 2003 1191 1497 
Q 1191 994 1439 701 
Q 1688 409 2113 409 
Q 2538 409 2786 701 
Q 3034 994 3034 1497 
Q 3034 2003 2786 2293 
Q 2538 2584 2113 2584 
z
M 3366 4563 
L 3366 3988 
Q 3128 4100 2886 4159 
Q 2644 4219 2406 4219 
Q 1781 4219 1451 3797 
Q 1122 3375 1075 2522 
Q 1259 2794 1537 2939 
Q 1816 3084 2150 3084 
Q 2853 3084 3261 2657 
Q 3669 2231 3669 1497 
Q 3669 778 3244 343 
Q 2819 -91 2113 -91 
Q 1303 -91 875 529 
Q 447 1150 447 2328 
Q 447 3434 972 4092 
Q 1497 4750 2381 4750 
Q 2619 4750 2861 4703 
Q 3103 4656 3366 4563 
z
" transform="scale(0.015625)"/>
        <path id="DejaVuSans-37" d="M 525 4666 
L 3525 4666 
L 3525 4397 
L 1831 0 
L 1172 0 
L 2766 4134 
L 525 4134 
L 525 4666 
z
" transform="scale(0.015625)"/>
       </defs>
       <use xlink:href="#DejaVuSans-36"/>
       <use xlink:href="#DejaVuSans-37" x="63.623047"/>
      </g>
     </g>
    </g>
    <g id="xtick_4">
     <g id="line2d_4">
      <g>
       <use xlink:href="#mdddbbc6627" x="181.327042" y="307.584" style="stroke: #000000; stroke-width: 0.8"/>
      </g>
     </g>
     <g id="text_4">
      <!-- 100 -->
      <g transform="translate(171.783292 322.182437) scale(0.1 -0.1)">
       <defs>
        <path id="DejaVuSans-30" d="M 2034 4250 
Q 1547 4250 1301 3770 
Q 1056 3291 1056 2328 
Q 1056 1369 1301 889 
Q 1547 409 2034 409 
Q 2525 409 2770 889 
Q 3016 1369 3016 2328 
Q 3016 3291 2770 3770 
Q 2525 4250 2034 4250 
z
M 2034 4750 
Q 2819 4750 3233 4129 
Q 3647 3509 3647 2328 
Q 3647 1150 3233 529 
Q 2819 -91 2034 -91 
Q 1250 -91 836 529 
Q 422 1150 422 2328 
Q 422 3509 836 4129 
Q 1250 4750 2034 4750 
z
" transform="scale(0.015625)"/>
       </defs>
       <use xlink:href="#DejaVuSans-31"/>
       <use xlink:href="#DejaVuSans-30" x="63.623047"/>
       <use xlink:href="#DejaVuSans-30" x="127.246094"/>
      </g>
     </g>
    </g>
    <g id="xtick_5">
     <g id="line2d_5">
      <g>
       <use xlink:href="#mdddbbc6627" x="217.15848" y="307.584" style="stroke: #000000; stroke-width: 0.8"/>
      </g>
     </g>
     <g id="text_5">
      <!-- 133 -->
      <g transform="translate(207.61473 322.182437) scale(0.1 -0.1)">
       <use xlink:href="#DejaVuSans-31"/>
       <use xlink:href="#DejaVuSans-33" x="63.623047"/>
       <use xlink:href="#DejaVuSans-33" x="127.246094"/>
      </g>
     </g>
    </g>
    <g id="xtick_6">
     <g id="line2d_6">
      <g>
       <use xlink:href="#mdddbbc6627" x="254.075719" y="307.584" style="stroke: #000000; stroke-width: 0.8"/>
      </g>
     </g>
     <g id="text_6">
      <!-- 167 -->
      <g transform="translate(244.531969 322.182437) scale(0.1 -0.1)">
       <use xlink:href="#DejaVuSans-31"/>
       <use xlink:href="#DejaVuSans-36" x="63.623047"/>
       <use xlink:href="#DejaVuSans-37" x="127.246094"/>
      </g>
     </g>
    </g>
    <g id="xtick_7">
     <g id="line2d_7">
      <g>
       <use xlink:href="#mdddbbc6627" x="289.907157" y="307.584" style="stroke: #000000; stroke-width: 0.8"/>
      </g>
     </g>
     <g id="text_7">
      <!-- 200 -->
      <g transform="translate(280.363407 322.182437) scale(0.1 -0.1)">
       <defs>
        <path id="DejaVuSans-32" d="M 1228 531 
L 3431 531 
L 3431 0 
L 469 0 
L 469 531 
Q 828 903 1448 1529 
Q 2069 2156 2228 2338 
Q 2531 2678 2651 2914 
Q 2772 3150 2772 3378 
Q 2772 3750 2511 3984 
Q 2250 4219 1831 4219 
Q 1534 4219 1204 4116 
Q 875 4013 500 3803 
L 500 4441 
Q 881 4594 1212 4672 
Q 1544 4750 1819 4750 
Q 2544 4750 2975 4387 
Q 3406 4025 3406 3419 
Q 3406 3131 3298 2873 
Q 3191 2616 2906 2266 
Q 2828 2175 2409 1742 
Q 1991 1309 1228 531 
z
" transform="scale(0.015625)"/>
       </defs>
       <use xlink:href="#DejaVuSans-32"/>
       <use xlink:href="#DejaVuSans-30" x="63.623047"/>
       <use xlink:href="#DejaVuSans-30" x="127.246094"/>
      </g>
     </g>
    </g>
    <g id="xtick_8">
     <g id="line2d_8">
      <g>
       <use xlink:href="#mdddbbc6627" x="325.738595" y="307.584" style="stroke: #000000; stroke-width: 0.8"/>
      </g>
     </g>
     <g id="text_8">
      <!-- 233 -->
      <g transform="translate(316.194845 322.182437) scale(0.1 -0.1)">
       <use xlink:href="#DejaVuSans-32"/>
       <use xlink:href="#DejaVuSans-33" x="63.623047"/>
       <use xlink:href="#DejaVuSans-33" x="127.246094"/>
      </g>
     </g>
    </g>
    <g id="xtick_9">
     <g id="line2d_9">
      <g>
       <use xlink:href="#mdddbbc6627" x="361.570033" y="307.584" style="stroke: #000000; stroke-width: 0.8"/>
      </g>
     </g>
     <g id="text_9">
      <!-- 266 -->
      <g transform="translate(352.026283 322.182437) scale(0.1 -0.1)">
       <use xlink:href="#DejaVuSans-32"/>
       <use xlink:href="#DejaVuSans-36" x="63.623047"/>
       <use xlink:href="#DejaVuSans-36" x="127.246094"/>
      </g>
     </g>
    </g>
    <g id="xtick_10">
     <g id="line2d_10">
      <g>
       <use xlink:href="#mdddbbc6627" x="398.487273" y="307.584" style="stroke: #000000; stroke-width: 0.8"/>
      </g>
     </g>
     <g id="text_10">
      <!-- 300 -->
      <g transform="translate(388.943523 322.182437) scale(0.1 -0.1)">
       <use xlink:href="#DejaVuSans-33"/>
       <use xlink:href="#DejaVuSans-30" x="63.623047"/>
       <use xlink:href="#DejaVuSans-30" x="127.246094"/>
      </g>
     </g>
    </g>
    <g id="text_11">
     <!-- Epochs -->
     <g transform="translate(218.244375 335.860562) scale(0.1 -0.1)">
      <defs>
       <path id="DejaVuSans-45" d="M 628 4666 
L 3578 4666 
L 3578 4134 
L 1259 4134 
L 1259 2753 
L 3481 2753 
L 3481 2222 
L 1259 2222 
L 1259 531 
L 3634 531 
L 3634 0 
L 628 0 
L 628 4666 
z
" transform="scale(0.015625)"/>
       <path id="DejaVuSans-70" d="M 1159 525 
L 1159 -1331 
L 581 -1331 
L 581 3500 
L 1159 3500 
L 1159 2969 
Q 1341 3281 1617 3432 
Q 1894 3584 2278 3584 
Q 2916 3584 3314 3078 
Q 3713 2572 3713 1747 
Q 3713 922 3314 415 
Q 2916 -91 2278 -91 
Q 1894 -91 1617 61 
Q 1341 213 1159 525 
z
M 3116 1747 
Q 3116 2381 2855 2742 
Q 2594 3103 2138 3103 
Q 1681 3103 1420 2742 
Q 1159 2381 1159 1747 
Q 1159 1113 1420 752 
Q 1681 391 2138 391 
Q 2594 391 2855 752 
Q 3116 1113 3116 1747 
z
" transform="scale(0.015625)"/>
       <path id="DejaVuSans-6f" d="M 1959 3097 
Q 1497 3097 1228 2736 
Q 959 2375 959 1747 
Q 959 1119 1226 758 
Q 1494 397 1959 397 
Q 2419 397 2687 759 
Q 2956 1122 2956 1747 
Q 2956 2369 2687 2733 
Q 2419 3097 1959 3097 
z
M 1959 3584 
Q 2709 3584 3137 3096 
Q 3566 2609 3566 1747 
Q 3566 888 3137 398 
Q 2709 -91 1959 -91 
Q 1206 -91 779 398 
Q 353 888 353 1747 
Q 353 2609 779 3096 
Q 1206 3584 1959 3584 
z
" transform="scale(0.015625)"/>
       <path id="DejaVuSans-63" d="M 3122 3366 
L 3122 2828 
Q 2878 2963 2633 3030 
Q 2388 3097 2138 3097 
Q 1578 3097 1268 2742 
Q 959 2388 959 1747 
Q 959 1106 1268 751 
Q 1578 397 2138 397 
Q 2388 397 2633 464 
Q 2878 531 3122 666 
L 3122 134 
Q 2881 22 2623 -34 
Q 2366 -91 2075 -91 
Q 1284 -91 818 406 
Q 353 903 353 1747 
Q 353 2603 823 3093 
Q 1294 3584 2113 3584 
Q 2378 3584 2631 3529 
Q 2884 3475 3122 3366 
z
" transform="scale(0.015625)"/>
       <path id="DejaVuSans-68" d="M 3513 2113 
L 3513 0 
L 2938 0 
L 2938 2094 
Q 2938 2591 2744 2837 
Q 2550 3084 2163 3084 
Q 1697 3084 1428 2787 
Q 1159 2491 1159 1978 
L 1159 0 
L 581 0 
L 581 4863 
L 1159 4863 
L 1159 2956 
Q 1366 3272 1645 3428 
Q 1925 3584 2291 3584 
Q 2894 3584 3203 3211 
Q 3513 2838 3513 2113 
z
" transform="scale(0.015625)"/>
       <path id="DejaVuSans-73" d="M 2834 3397 
L 2834 2853 
Q 2591 2978 2328 3040 
Q 2066 3103 1784 3103 
Q 1356 3103 1142 2972 
Q 928 2841 928 2578 
Q 928 2378 1081 2264 
Q 1234 2150 1697 2047 
L 1894 2003 
Q 2506 1872 2764 1633 
Q 3022 1394 3022 966 
Q 3022 478 2636 193 
Q 2250 -91 1575 -91 
Q 1294 -91 989 -36 
Q 684 19 347 128 
L 347 722 
Q 666 556 975 473 
Q 1284 391 1588 391 
Q 1994 391 2212 530 
Q 2431 669 2431 922 
Q 2431 1156 2273 1281 
Q 2116 1406 1581 1522 
L 1381 1569 
Q 847 1681 609 1914 
Q 372 2147 372 2553 
Q 372 3047 722 3315 
Q 1072 3584 1716 3584 
Q 2034 3584 2315 3537 
Q 2597 3491 2834 3397 
z
" transform="scale(0.015625)"/>
      </defs>
      <use xlink:href="#DejaVuSans-45"/>
      <use xlink:href="#DejaVuSans-70" x="63.183594"/>
      <use xlink:href="#DejaVuSans-6f" x="126.660156"/>
      <use xlink:href="#DejaVuSans-63" x="187.841797"/>
      <use xlink:href="#DejaVuSans-68" x="242.822266"/>
      <use xlink:href="#DejaVuSans-73" x="306.201172"/>
     </g>
    </g>
   </g>
   <g id="matplotlib.axis_2">
    <g id="ytick_1">
     <g id="line2d_11">
      <defs>
       <path id="m0c3d8f4a8f" d="M 0 0 
L -3.5 0 
" style="stroke: #000000; stroke-width: 0.8"/>
      </defs>
      <g>
       <use xlink:href="#m0c3d8f4a8f" x="57.6" y="272.591911" style="stroke: #000000; stroke-width: 0.8"/>
      </g>
     </g>
     <g id="text_12">
      <!-- 10 -->
      <g transform="translate(37.875 276.391129) scale(0.1 -0.1)">
       <use xlink:href="#DejaVuSans-31"/>
       <use xlink:href="#DejaVuSans-30" x="63.623047"/>
      </g>
     </g>
    </g>
    <g id="ytick_2">
     <g id="line2d_12">
      <g>
       <use xlink:href="#m0c3d8f4a8f" x="57.6" y="236.181195" style="stroke: #000000; stroke-width: 0.8"/>
      </g>
     </g>
     <g id="text_13">
      <!-- 20 -->
      <g transform="translate(37.875 239.980414) scale(0.1 -0.1)">
       <use xlink:href="#DejaVuSans-32"/>
       <use xlink:href="#DejaVuSans-30" x="63.623047"/>
      </g>
     </g>
    </g>
    <g id="ytick_3">
     <g id="line2d_13">
      <g>
       <use xlink:href="#m0c3d8f4a8f" x="57.6" y="199.77048" style="stroke: #000000; stroke-width: 0.8"/>
      </g>
     </g>
     <g id="text_14">
      <!-- 30 -->
      <g transform="translate(37.875 203.569699) scale(0.1 -0.1)">
       <use xlink:href="#DejaVuSans-33"/>
       <use xlink:href="#DejaVuSans-30" x="63.623047"/>
      </g>
     </g>
    </g>
    <g id="ytick_4">
     <g id="line2d_14">
      <g>
       <use xlink:href="#m0c3d8f4a8f" x="57.6" y="163.359764" style="stroke: #000000; stroke-width: 0.8"/>
      </g>
     </g>
     <g id="text_15">
      <!-- 40 -->
      <g transform="translate(37.875 167.158983) scale(0.1 -0.1)">
       <use xlink:href="#DejaVuSans-34"/>
       <use xlink:href="#DejaVuSans-30" x="63.623047"/>
      </g>
     </g>
    </g>
    <g id="ytick_5">
     <g id="line2d_15">
      <g>
       <use xlink:href="#m0c3d8f4a8f" x="57.6" y="126.949049" style="stroke: #000000; stroke-width: 0.8"/>
      </g>
     </g>
     <g id="text_16">
      <!-- 50 -->
      <g transform="translate(37.875 130.748268) scale(0.1 -0.1)">
       <defs>
        <path id="DejaVuSans-35" d="M 691 4666 
L 3169 4666 
L 3169 4134 
L 1269 4134 
L 1269 2991 
Q 1406 3038 1543 3061 
Q 1681 3084 1819 3084 
Q 2600 3084 3056 2656 
Q 3513 2228 3513 1497 
Q 3513 744 3044 326 
Q 2575 -91 1722 -91 
Q 1428 -91 1123 -41 
Q 819 9 494 109 
L 494 744 
Q 775 591 1075 516 
Q 1375 441 1709 441 
Q 2250 441 2565 725 
Q 2881 1009 2881 1497 
Q 2881 1984 2565 2268 
Q 2250 2553 1709 2553 
Q 1456 2553 1204 2497 
Q 953 2441 691 2322 
L 691 4666 
z
" transform="scale(0.015625)"/>
       </defs>
       <use xlink:href="#DejaVuSans-35"/>
       <use xlink:href="#DejaVuSans-30" x="63.623047"/>
      </g>
     </g>
    </g>
    <g id="ytick_6">
     <g id="line2d_16">
      <g>
       <use xlink:href="#m0c3d8f4a8f" x="57.6" y="90.538334" style="stroke: #000000; stroke-width: 0.8"/>
      </g>
     </g>
     <g id="text_17">
      <!-- 60 -->
      <g transform="translate(37.875 94.337553) scale(0.1 -0.1)">
       <use xlink:href="#DejaVuSans-36"/>
       <use xlink:href="#DejaVuSans-30" x="63.623047"/>
      </g>
     </g>
    </g>
    <g id="ytick_7">
     <g id="line2d_17">
      <g>
       <use xlink:href="#m0c3d8f4a8f" x="57.6" y="54.127618" style="stroke: #000000; stroke-width: 0.8"/>
      </g>
     </g>
     <g id="text_18">
      <!-- 70 -->
      <g transform="translate(37.875 57.926837) scale(0.1 -0.1)">
       <use xlink:href="#DejaVuSans-37"/>
       <use xlink:href="#DejaVuSans-30" x="63.623047"/>
      </g>
     </g>
    </g>
    <g id="text_19">
     <!-- Accuracy -->
     <g transform="translate(31.795312 197.356125) rotate(-90) scale(0.1 -0.1)">
      <defs>
       <path id="DejaVuSans-41" d="M 2188 4044 
L 1331 1722 
L 3047 1722 
L 2188 4044 
z
M 1831 4666 
L 2547 4666 
L 4325 0 
L 3669 0 
L 3244 1197 
L 1141 1197 
L 716 0 
L 50 0 
L 1831 4666 
z
" transform="scale(0.015625)"/>
       <path id="DejaVuSans-75" d="M 544 1381 
L 544 3500 
L 1119 3500 
L 1119 1403 
Q 1119 906 1312 657 
Q 1506 409 1894 409 
Q 2359 409 2629 706 
Q 2900 1003 2900 1516 
L 2900 3500 
L 3475 3500 
L 3475 0 
L 2900 0 
L 2900 538 
Q 2691 219 2414 64 
Q 2138 -91 1772 -91 
Q 1169 -91 856 284 
Q 544 659 544 1381 
z
M 1991 3584 
L 1991 3584 
z
" transform="scale(0.015625)"/>
       <path id="DejaVuSans-72" d="M 2631 2963 
Q 2534 3019 2420 3045 
Q 2306 3072 2169 3072 
Q 1681 3072 1420 2755 
Q 1159 2438 1159 1844 
L 1159 0 
L 581 0 
L 581 3500 
L 1159 3500 
L 1159 2956 
Q 1341 3275 1631 3429 
Q 1922 3584 2338 3584 
Q 2397 3584 2469 3576 
Q 2541 3569 2628 3553 
L 2631 2963 
z
" transform="scale(0.015625)"/>
       <path id="DejaVuSans-61" d="M 2194 1759 
Q 1497 1759 1228 1600 
Q 959 1441 959 1056 
Q 959 750 1161 570 
Q 1363 391 1709 391 
Q 2188 391 2477 730 
Q 2766 1069 2766 1631 
L 2766 1759 
L 2194 1759 
z
M 3341 1997 
L 3341 0 
L 2766 0 
L 2766 531 
Q 2569 213 2275 61 
Q 1981 -91 1556 -91 
Q 1019 -91 701 211 
Q 384 513 384 1019 
Q 384 1609 779 1909 
Q 1175 2209 1959 2209 
L 2766 2209 
L 2766 2266 
Q 2766 2663 2505 2880 
Q 2244 3097 1772 3097 
Q 1472 3097 1187 3025 
Q 903 2953 641 2809 
L 641 3341 
Q 956 3463 1253 3523 
Q 1550 3584 1831 3584 
Q 2591 3584 2966 3190 
Q 3341 2797 3341 1997 
z
" transform="scale(0.015625)"/>
       <path id="DejaVuSans-79" d="M 2059 -325 
Q 1816 -950 1584 -1140 
Q 1353 -1331 966 -1331 
L 506 -1331 
L 506 -850 
L 844 -850 
Q 1081 -850 1212 -737 
Q 1344 -625 1503 -206 
L 1606 56 
L 191 3500 
L 800 3500 
L 1894 763 
L 2988 3500 
L 3597 3500 
L 2059 -325 
z
" transform="scale(0.015625)"/>
      </defs>
      <use xlink:href="#DejaVuSans-41"/>
      <use xlink:href="#DejaVuSans-63" x="66.658203"/>
      <use xlink:href="#DejaVuSans-63" x="121.638672"/>
      <use xlink:href="#DejaVuSans-75" x="176.619141"/>
      <use xlink:href="#DejaVuSans-72" x="239.998047"/>
      <use xlink:href="#DejaVuSans-61" x="281.111328"/>
      <use xlink:href="#DejaVuSans-63" x="342.390625"/>
      <use xlink:href="#DejaVuSans-79" x="397.371094"/>
     </g>
    </g>
   </g>
   <g id="line2d_18">
    <path d="M 73.832727 295.488 
L 74.918528 277.547425 
L 76.00433 262.55293 
L 77.090131 249.926225 
L 78.175932 239.694634 
L 80.347534 221.79504 
L 81.433335 214.040522 
L 83.604938 201.299982 
L 85.77654 189.502005 
L 86.862341 184.169921 
L 87.948142 180.668321 
L 89.033943 175.73694 
L 90.119745 172.189806 
L 92.291347 166.930576 
L 93.377148 164.785904 
L 94.462949 163.556473 
L 95.54875 193.968935 
L 96.634552 193.35422 
L 97.720353 189.643162 
L 99.891955 183.131735 
L 100.977756 180.777604 
L 102.063557 175.577569 
L 103.149358 173.360041 
L 105.320961 166.825847 
L 106.406762 165.027236 
L 108.578364 160.095855 
L 109.664165 158.238049 
L 110.749967 155.250989 
L 115.093171 145.438314 
L 116.178972 144.149689 
L 117.264773 140.579788 
L 119.436376 136.823195 
L 120.522177 132.583938 
L 121.607978 131.809852 
L 122.693779 127.684431 
L 123.77958 126.136259 
L 124.865382 125.271105 
L 125.951183 120.999973 
L 128.122785 118.190497 
L 129.208586 116.146 
L 130.294387 114.94389 
L 131.380189 112.548778 
L 132.46599 111.446844 
L 133.551791 110.964179 
L 134.637592 109.871352 
L 135.723393 108.514425 
L 136.809194 108.273093 
L 137.894995 108.241219 
L 138.980797 149.372491 
L 140.066598 152.227501 
L 141.152399 152.459727 
L 142.2382 150.13747 
L 143.324001 148.648493 
L 144.409802 147.637628 
L 145.495604 147.241479 
L 146.581405 145.096806 
L 147.667206 143.698898 
L 148.753007 142.833743 
L 149.838808 142.455807 
L 150.924609 140.156317 
L 152.01041 138.976975 
L 153.096212 138.840372 
L 154.182013 136.59097 
L 155.267814 136.399725 
L 156.353615 135.088333 
L 157.439416 133.280615 
L 158.525217 132.492869 
L 159.611019 132.042078 
L 160.69682 130.24802 
L 161.782621 129.788122 
L 162.868422 128.35834 
L 165.040024 124.711031 
L 166.125825 125.480563 
L 167.211627 123.349551 
L 168.297428 123.258482 
L 170.46903 120.002768 
L 171.554831 118.632181 
L 172.640632 117.603102 
L 173.726434 116.186981 
L 174.812235 115.859133 
L 175.898036 114.028648 
L 176.983837 113.02689 
L 178.069638 113.209028 
L 179.155439 110.850343 
L 180.24124 109.752963 
L 181.327042 107.826855 
L 182.412843 107.804088 
L 183.498644 105.755038 
L 184.584445 105.445403 
L 185.670246 104.052049 
L 186.756047 101.493013 
L 187.841849 102.039426 
L 188.92765 98.974957 
L 190.013451 98.765499 
L 191.099252 97.271969 
L 192.185053 96.270211 
L 193.270854 95.099975 
L 194.356656 93.610999 
L 195.442457 90.901699 
L 196.528258 89.868067 
L 197.614059 89.162283 
L 198.69986 87.627771 
L 199.785661 86.903774 
L 200.871462 84.973113 
L 201.957264 83.839305 
L 203.043065 82.41863 
L 204.128866 83.056112 
L 205.214667 80.929653 
L 206.300468 79.103722 
L 207.386269 78.170265 
L 208.472071 77.664833 
L 209.557872 75.825241 
L 210.643673 75.898096 
L 211.729474 74.83259 
L 212.815275 73.421022 
L 213.901076 73.958328 
L 214.986877 72.769879 
L 216.072679 70.602439 
L 217.15848 70.975822 
L 218.244281 70.48405 
L 219.330082 70.597886 
L 220.415883 69.778266 
L 221.501684 69.69175 
L 222.587486 68.99052 
L 223.673287 69.432204 
L 224.759088 69.063375 
L 225.844889 124.597195 
L 226.93069 129.337331 
L 228.016491 129.337331 
L 230.188094 128.203523 
L 231.273895 127.11525 
L 232.359696 126.769188 
L 233.445497 127.019628 
L 234.531298 126.546069 
L 236.702901 124.246579 
L 237.788702 123.663738 
L 238.874503 122.803137 
L 239.960304 122.388774 
L 241.046105 122.375113 
L 242.131906 121.610134 
L 243.217708 121.02274 
L 244.303509 120.703999 
L 245.38931 119.847951 
L 246.475111 120.289635 
L 247.560912 118.012913 
L 248.646713 118.873514 
L 249.732514 118.645841 
L 250.818316 118.022019 
L 251.904117 116.082252 
L 252.989918 116.765269 
L 254.075719 116.83357 
L 255.16152 115.094154 
L 256.247321 115.47209 
L 257.333123 115.130582 
L 258.418924 114.301855 
L 259.504725 114.91657 
L 260.590526 113.327417 
L 261.676327 112.607973 
L 262.762128 112.184502 
L 263.847929 111.433184 
L 264.933731 111.091676 
L 266.019532 110.085364 
L 267.105333 109.948761 
L 268.191134 109.925994 
L 269.276935 109.188335 
L 270.362736 109.466096 
L 271.448538 107.785874 
L 272.534339 106.952594 
L 273.62014 107.266781 
L 274.705941 106.346985 
L 275.791742 105.622988 
L 276.877543 105.336121 
L 277.963344 105.832446 
L 279.049146 103.979194 
L 280.134947 104.215973 
L 281.220748 104.247847 
L 283.39235 102.722443 
L 284.478151 102.435576 
L 285.563953 102.362721 
L 286.649754 100.514022 
L 287.735555 101.256234 
L 289.907157 99.908414 
L 290.992958 99.503157 
L 292.07876 98.433097 
L 293.164561 98.223639 
L 294.250362 97.45866 
L 295.336163 97.171793 
L 296.421964 96.680021 
L 297.507765 96.36128 
L 298.593566 94.676505 
L 299.679368 94.86775 
L 302.936771 93.064585 
L 304.022572 91.525521 
L 305.108373 91.917117 
L 306.194175 90.951787 
L 307.279976 91.133924 
L 308.365777 89.362634 
L 309.451578 89.849853 
L 310.537379 89.940922 
L 311.62318 88.738812 
L 312.708981 87.741608 
L 313.794783 86.257184 
L 314.880584 86.676101 
L 315.966385 85.906569 
L 317.052186 84.86383 
L 318.137987 84.331077 
L 319.223788 83.069773 
L 321.395391 81.211967 
L 322.481192 81.21652 
L 323.566993 81.708292 
L 324.652794 79.864147 
L 325.738595 80.401454 
L 328.995999 77.186721 
L 331.167601 75.834348 
L 332.253402 75.747832 
L 335.510806 72.911036 
L 338.768209 70.556905 
L 339.85401 70.165308 
L 342.025613 69.063375 
L 343.111414 68.271075 
L 344.197215 67.829391 
L 345.283016 66.039887 
L 346.368817 66.021673 
L 347.454618 65.397851 
L 348.54042 64.441628 
L 349.626221 64.68296 
L 350.712022 62.875242 
L 351.797823 62.456325 
L 355.055227 59.355429 
L 356.141028 59.592208 
L 357.226829 59.687831 
L 359.398431 58.148766 
L 360.484232 57.656994 
L 361.570033 55.776421 
L 362.655835 55.084297 
L 363.741636 54.546991 
L 365.913238 54.164501 
L 366.999039 53.568 
L 368.08484 54.237356 
L 369.170642 55.86749 
L 370.256443 58.367331 
L 371.342244 60.252458 
L 372.428045 61.727774 
L 373.513846 62.643017 
L 374.599647 63.763164 
L 375.685448 63.025506 
L 376.77125 62.738639 
L 377.857051 63.412549 
L 378.942852 62.943544 
L 380.028653 63.330587 
L 381.114454 63.112022 
L 382.200255 62.401684 
L 383.286057 63.048273 
L 384.371858 63.089254 
L 385.457659 62.857029 
L 386.54346 63.540045 
L 387.629261 63.266839 
L 388.715062 63.312373 
L 389.800863 63.986283 
L 390.886665 63.489957 
L 391.972466 64.578231 
L 393.058267 64.350559 
L 394.144068 63.931642 
L 395.229869 64.040924 
L 396.31567 63.17577 
L 397.401472 62.943544 
L 398.487273 63.326033 
L 398.487273 63.326033 
" clip-path="url(#p5413b3b607)" style="fill: none; stroke: #1f77b4; stroke-width: 1.5; stroke-linecap: square"/>
   </g>
   <g id="line2d_19">
    <path d="M 73.832727 282.441009 
L 77.090131 224.493356 
L 78.175932 212.168328 
L 79.261733 198.350462 
L 80.347534 187.06314 
L 81.433335 179.089194 
L 82.519137 174.701702 
L 83.604938 172.134747 
L 84.690739 159.900747 
L 85.77654 153.146559 
L 86.862341 151.198586 
L 87.948142 141.986675 
L 89.033943 143.443103 
L 91.205546 138.090728 
L 92.291347 133.739648 
L 93.377148 134.267603 
L 94.462949 133.066049 
L 95.54875 162.704372 
L 96.634552 165.162095 
L 97.720353 156.678398 
L 98.806154 150.488577 
L 99.891955 150.197291 
L 100.977756 144.517219 
L 102.063557 150.67063 
L 103.149358 140.894353 
L 104.23516 137.435335 
L 105.320961 138.837148 
L 106.406762 132.701942 
L 107.492563 130.025755 
L 108.578364 129.643442 
L 109.664165 129.516005 
L 110.749967 122.252067 
L 111.835768 119.484852 
L 112.921569 117.609701 
L 114.00737 111.347058 
L 115.093171 116.135067 
L 116.178972 112.020656 
L 117.264773 108.616254 
L 118.350575 109.198825 
L 119.436376 103.318495 
L 120.522177 103.773629 
L 121.607978 101.989504 
L 122.693779 100.496664 
L 123.77958 96.218405 
L 124.865382 95.326343 
L 125.951183 95.071468 
L 127.036984 92.304253 
L 128.122785 90.265253 
L 129.208586 91.630655 
L 130.294387 89.482423 
L 131.380189 88.845236 
L 132.46599 87.152137 
L 133.551791 86.624182 
L 134.637592 86.351102 
L 135.723393 87.643682 
L 136.809194 86.533155 
L 137.894995 86.824441 
L 138.980797 123.071308 
L 140.066598 121.37821 
L 141.152399 122.561558 
L 142.2382 129.060871 
L 143.324001 116.480968 
L 144.409802 115.243004 
L 145.495604 112.093477 
L 146.581405 114.532995 
L 147.667206 114.27812 
L 148.753007 110.782692 
L 149.838808 115.133772 
L 150.924609 109.96345 
L 152.01041 109.071388 
L 153.096212 106.722897 
L 154.182013 106.722897 
L 155.267814 107.105209 
L 156.353615 105.302879 
L 157.439416 106.194941 
L 158.525217 107.869834 
L 159.611019 99.349727 
L 160.69682 103.646191 
L 162.868422 105.575959 
L 163.954223 98.293816 
L 165.040024 99.713834 
L 166.125825 99.113057 
L 167.211627 97.947914 
L 168.297428 98.657923 
L 169.383229 96.509691 
L 170.46903 101.825656 
L 171.554831 96.254816 
L 172.640632 89.84653 
L 173.726434 96.273021 
L 174.812235 89.300369 
L 175.898036 92.777593 
L 176.983837 91.88553 
L 178.069638 89.118316 
L 179.155439 88.790619 
L 181.327042 87.079316 
L 182.412843 84.51236 
L 183.498644 82.819262 
L 184.584445 85.622887 
L 185.670246 84.457744 
L 186.756047 82.054637 
L 187.841849 81.45386 
L 188.92765 80.67103 
L 190.013451 81.617709 
L 191.099252 79.742557 
L 192.185053 76.975342 
L 193.270854 76.611235 
L 194.356656 80.197691 
L 195.442457 74.59044 
L 196.528258 73.771199 
L 197.614059 74.098896 
L 198.69986 72.642467 
L 199.785661 71.49553 
L 200.871462 72.132717 
L 201.957264 68.94678 
L 203.043065 69.911664 
L 204.128866 68.673699 
L 205.214667 68.910369 
L 206.300468 67.727021 
L 207.386269 67.92728 
L 208.472071 67.18086 
L 209.557872 67.45394 
L 210.643673 66.215976 
L 211.729474 65.305708 
L 212.815275 64.595699 
L 213.901076 65.160065 
L 214.986877 64.978012 
L 216.072679 64.176976 
L 217.15848 64.923396 
L 218.244281 64.12236 
L 219.330082 63.794663 
L 220.415883 63.976717 
L 221.501684 63.448762 
L 222.587486 63.230297 
L 224.759088 63.394145 
L 225.844889 116.808665 
L 226.93069 104.410816 
L 228.016491 111.328852 
L 229.102292 106.86854 
L 230.188094 107.341879 
L 231.273895 103.791834 
L 233.445497 110.964745 
L 234.531298 105.33929 
L 235.617099 106.103915 
L 236.702901 103.354906 
L 237.788702 104.101325 
L 238.874503 114.933513 
L 239.960304 100.696923 
L 241.046105 105.88545 
L 242.131906 101.880272 
L 244.303509 104.574665 
L 245.38931 103.955682 
L 246.475111 98.220995 
L 247.560912 103.84645 
L 248.646713 95.836093 
L 249.732514 96.036352 
L 250.818316 92.722977 
L 251.904117 97.893298 
L 252.989918 95.672245 
L 254.075719 98.020736 
L 255.16152 98.566897 
L 256.247321 95.908914 
L 257.333123 96.109173 
L 258.418924 94.252227 
L 259.504725 103.30029 
L 260.590526 99.422548 
L 261.676327 94.761977 
L 262.762128 96.527896 
L 263.847929 96.728155 
L 264.933731 94.088379 
L 266.019532 96.273021 
L 267.105333 96.036352 
L 268.191134 90.538334 
L 269.276935 95.126084 
L 270.362736 88.936262 
L 271.448538 98.839977 
L 272.534339 99.149468 
L 273.62014 97.765861 
L 274.705941 87.461628 
L 275.791742 86.842646 
L 276.877543 88.863441 
L 277.963344 89.755503 
L 279.049146 91.976557 
L 280.134947 83.929789 
L 281.220748 85.276985 
L 282.306549 88.280869 
L 283.39235 90.265253 
L 284.478151 87.934968 
L 285.563953 89.919352 
L 286.649754 90.811414 
L 287.735555 92.39528 
L 288.821356 86.460334 
L 289.907157 84.421334 
L 290.992958 84.74903 
L 292.07876 84.730825 
L 293.164561 86.078021 
L 294.250362 83.310807 
L 295.336163 85.185959 
L 296.421964 83.092343 
L 297.507765 82.072842 
L 298.593566 83.656709 
L 299.679368 85.841352 
L 300.765169 84.366718 
L 301.85097 81.144369 
L 302.936771 80.598208 
L 304.022572 81.290012 
L 305.108373 79.14178 
L 306.194175 80.106664 
L 308.365777 77.61253 
L 309.451578 81.726941 
L 310.537379 78.668441 
L 311.62318 81.198985 
L 312.708981 79.797173 
L 313.794783 77.066369 
L 314.880584 78.176896 
L 315.966385 76.174307 
L 317.052186 77.739967 
L 318.137987 78.668441 
L 320.30959 75.245833 
L 321.395391 78.668441 
L 322.481192 80.361539 
L 323.566993 72.296565 
L 324.652794 74.262744 
L 325.738595 77.503298 
L 326.824396 73.097601 
L 327.910198 72.824521 
L 328.995999 70.676289 
L 330.0818 74.171717 
L 331.167601 72.059896 
L 332.253402 75.009164 
L 333.339203 72.769905 
L 334.425005 70.894753 
L 335.510806 72.260155 
L 336.596607 72.478619 
L 337.682408 70.858342 
L 338.768209 69.019601 
L 340.939811 67.162655 
L 342.025613 67.781637 
L 343.111414 69.365503 
L 344.197215 69.820637 
L 345.283016 69.401914 
L 346.368817 67.799842 
L 347.454618 69.21986 
L 348.54042 65.578788 
L 349.626221 68.455235 
L 350.712022 66.416235 
L 351.797823 64.140565 
L 352.883624 64.814163 
L 353.969425 64.12236 
L 355.055227 64.795958 
L 356.141028 63.922101 
L 357.226829 63.266708 
L 358.31263 64.90519 
L 359.398431 63.867485 
L 360.484232 62.046949 
L 361.570033 62.975422 
L 362.655835 62.392851 
L 363.741636 62.35644 
L 364.827437 61.737458 
L 365.913238 62.35644 
L 366.999039 61.373351 
L 369.170642 63.721842 
L 370.256443 63.430556 
L 371.342244 69.056012 
L 372.428045 70.47603 
L 373.513846 68.764726 
L 374.599647 65.92469 
L 375.685448 66.780342 
L 376.77125 67.089833 
L 377.857051 66.998806 
L 378.942852 70.840137 
L 380.028653 69.019601 
L 381.114454 68.000101 
L 382.200255 67.617788 
L 383.286057 69.074217 
L 384.371858 68.728315 
L 385.457659 69.547556 
L 386.54346 67.763431 
L 387.629261 69.128833 
L 388.715062 72.51503 
L 389.800863 68.801137 
L 390.886665 72.00528 
L 391.972466 68.582672 
L 393.058267 69.438324 
L 394.144068 68.564467 
L 395.229869 69.511146 
L 396.31567 66.507262 
L 397.401472 69.674994 
L 398.487273 68.600878 
L 398.487273 68.600878 
" clip-path="url(#p5413b3b607)" style="fill: none; stroke: #ff7f0e; stroke-width: 1.5; stroke-linecap: square"/>
   </g>
   <g id="line2d_20">
    <path d="M 73.832727 289.918389 
L 74.918528 282.510692 
L 76.00433 269.327502 
L 77.090131 259.032058 
L 78.175932 255.014324 
L 79.261733 249.113277 
L 80.347534 236.306749 
L 81.433335 231.786799 
L 82.519137 229.024606 
L 83.604938 229.024606 
L 84.690739 219.733596 
L 85.77654 215.715862 
L 86.862341 210.317032 
L 87.948142 209.689261 
L 89.033943 209.689261 
L 90.119745 207.429285 
L 91.205546 205.922635 
L 92.291347 200.649359 
L 93.377148 203.411551 
L 94.462949 201.528239 
L 95.54875 214.585874 
L 96.634552 226.011306 
L 97.720353 216.469187 
L 98.806154 213.958103 
L 99.891955 214.836983 
L 100.977756 210.317032 
L 102.063557 216.971404 
L 103.149358 209.940369 
L 104.23516 206.67596 
L 106.406762 203.788214 
L 107.492563 200.774913 
L 108.578364 197.008288 
L 109.664165 198.640492 
L 110.749967 196.506071 
L 111.835768 191.358349 
L 112.921569 187.717278 
L 114.00737 185.08064 
L 115.093171 192.111674 
L 117.264773 180.435134 
L 118.350575 182.318447 
L 119.436376 182.69511 
L 121.607978 174.031871 
L 122.693779 172.52522 
L 123.77958 170.767462 
L 124.865382 168.507486 
L 125.951183 168.507486 
L 127.036984 166.875282 
L 128.122785 166.498619 
L 129.208586 167.628607 
L 130.294387 164.489752 
L 131.380189 165.243077 
L 132.46599 160.848681 
L 133.551791 159.969801 
L 134.637592 159.969801 
L 135.723393 162.104223 
L 136.809194 160.848681 
L 137.894995 162.857548 
L 138.980797 191.98612 
L 140.066598 186.210627 
L 141.152399 196.003854 
L 142.2382 200.523805 
L 143.324001 191.860566 
L 144.409802 189.223928 
L 145.495604 188.596157 
L 146.581405 188.972819 
L 147.667206 182.946218 
L 148.753007 186.838398 
L 149.838808 184.327314 
L 150.924609 183.197327 
L 152.01041 177.29628 
L 153.096212 180.937351 
L 154.182013 176.919617 
L 155.267814 179.807364 
L 156.353615 184.20176 
L 157.439416 183.448435 
L 158.525217 185.457302 
L 159.611019 179.681809 
L 160.69682 180.560689 
L 161.782621 178.677376 
L 162.868422 180.058472 
L 163.954223 168.633041 
L 165.040024 172.901883 
L 166.125825 173.780762 
L 167.211627 172.650775 
L 168.297428 169.763028 
L 169.383229 175.915184 
L 170.46903 171.520787 
L 171.554831 177.672942 
L 172.640632 165.117523 
L 173.726434 171.01857 
L 174.812235 164.364198 
L 175.898036 165.368632 
L 176.983837 175.412967 
L 178.069638 161.978668 
L 179.155439 168.507486 
L 180.24124 160.472018 
L 181.327042 165.368632 
L 182.412843 159.969801 
L 183.498644 160.597572 
L 184.584445 160.095356 
L 185.670246 159.844247 
L 186.756047 158.714259 
L 187.841849 155.575405 
L 188.92765 150.427683 
L 190.013451 158.086488 
L 191.099252 155.324296 
L 192.185053 149.297695 
L 193.270854 154.194309 
L 194.356656 155.826513 
L 195.442457 152.310996 
L 196.528258 148.293262 
L 197.614059 146.409949 
L 198.69986 149.046587 
L 199.785661 143.647757 
L 200.871462 150.678791 
L 201.957264 146.661057 
L 203.043065 147.163274 
L 204.128866 147.288828 
L 205.214667 144.275527 
L 206.300468 145.656624 
L 207.386269 142.894431 
L 208.472071 144.903298 
L 209.557872 144.526636 
L 210.643673 140.76001 
L 211.729474 143.019986 
L 212.815275 140.634456 
L 213.901076 139.002251 
L 214.986877 141.764444 
L 216.072679 143.14554 
L 217.15848 141.136673 
L 218.244281 141.136673 
L 219.330082 140.006685 
L 221.501684 140.257793 
L 222.587486 140.634456 
L 223.673287 141.764444 
L 224.759088 140.76001 
L 225.844889 196.631625 
L 226.93069 181.565122 
L 228.016491 180.811797 
L 229.102292 181.314014 
L 230.188094 181.690676 
L 231.273895 176.4174 
L 232.359696 183.071772 
L 233.445497 187.717278 
L 234.531298 172.901883 
L 235.617099 178.80293 
L 236.702901 175.036304 
L 237.788702 178.175159 
L 238.874503 195.376083 
L 239.960304 175.789629 
L 241.046105 185.08064 
L 242.131906 182.192893 
L 243.217708 179.807364 
L 244.303509 184.829531 
L 245.38931 167.377499 
L 246.475111 177.29628 
L 247.560912 173.529654 
L 248.646713 172.274112 
L 250.818316 161.476452 
L 251.904117 175.538521 
L 252.989918 169.260811 
L 254.075719 179.054038 
L 255.16152 172.023004 
L 256.247321 171.269679 
L 257.333123 168.130824 
L 258.418924 168.381932 
L 259.504725 174.785196 
L 260.590526 183.197327 
L 261.676327 171.771895 
L 262.762128 178.300713 
L 263.847929 168.130824 
L 264.933731 167.251944 
L 266.019532 170.390799 
L 267.105333 174.534087 
L 268.191134 166.875282 
L 269.276935 167.628607 
L 270.362736 164.740861 
L 271.448538 174.282979 
L 272.534339 179.430701 
L 273.62014 179.305147 
L 274.705941 167.377499 
L 275.791742 158.714259 
L 276.877543 155.44985 
L 277.963344 167.754161 
L 279.049146 166.875282 
L 280.134947 160.22091 
L 281.220748 162.983102 
L 282.306549 168.256378 
L 283.39235 169.260811 
L 284.478151 163.23421 
L 285.563953 165.117523 
L 286.649754 163.359764 
L 287.735555 172.148558 
L 288.821356 164.991969 
L 289.907157 159.969801 
L 290.992958 158.965368 
L 292.07876 167.251944 
L 293.164561 158.212043 
L 294.250362 154.570971 
L 295.336163 163.108656 
L 296.421964 165.996403 
L 297.507765 156.956501 
L 298.593566 161.476452 
L 299.679368 159.216476 
L 300.765169 167.12639 
L 301.85097 157.960934 
L 302.936771 160.848681 
L 304.022572 159.216476 
L 305.108373 154.696525 
L 306.194175 151.808779 
L 308.365777 159.34203 
L 309.451578 158.965368 
L 310.537379 154.194309 
L 311.62318 157.082055 
L 312.708981 159.467585 
L 313.794783 153.9432 
L 314.880584 161.350897 
L 315.966385 157.333163 
L 317.052186 157.960934 
L 318.137987 158.337597 
L 319.223788 153.315429 
L 320.30959 151.055454 
L 321.395391 158.588705 
L 322.481192 157.960934 
L 323.566993 151.181008 
L 324.652794 150.9299 
L 325.738595 152.059887 
L 326.824396 150.553237 
L 327.910198 147.414382 
L 328.995999 145.279961 
L 330.0818 149.925466 
L 331.167601 145.907732 
L 332.253402 155.198742 
L 333.339203 153.064321 
L 334.425005 147.539936 
L 335.510806 154.696525 
L 336.596607 144.526636 
L 337.682408 151.181008 
L 338.768209 149.674358 
L 339.85401 141.764444 
L 340.939811 144.149973 
L 342.025613 142.141106 
L 343.111414 149.172141 
L 344.197215 146.15884 
L 345.283016 152.562104 
L 346.368817 146.15884 
L 347.454618 151.181008 
L 348.54042 145.279961 
L 349.626221 146.409949 
L 351.797823 141.764444 
L 352.883624 139.630022 
L 353.969425 139.25336 
L 355.055227 144.149973 
L 356.141028 140.383348 
L 357.226829 141.513335 
L 358.31263 141.889998 
L 359.398431 141.262227 
L 360.484232 137.872264 
L 361.570033 141.011119 
L 362.655835 140.006685 
L 363.741636 138.374481 
L 364.827437 136.491168 
L 365.913238 139.002251 
L 366.999039 135.863397 
L 368.08484 136.86783 
L 369.170642 142.517769 
L 370.256443 140.383348 
L 371.342244 148.042153 
L 372.428045 151.181008 
L 373.513846 148.167707 
L 374.599647 139.630022 
L 375.685448 147.288828 
L 376.77125 141.387781 
L 377.857051 141.011119 
L 378.942852 149.423249 
L 380.028653 148.167707 
L 381.114454 144.275527 
L 382.200255 141.011119 
L 383.286057 143.773311 
L 384.371858 143.522202 
L 385.457659 146.284395 
L 386.54346 142.894431 
L 387.629261 143.019986 
L 388.715062 151.934333 
L 389.800863 143.271094 
L 390.886665 145.405515 
L 391.972466 140.132239 
L 393.058267 143.396648 
L 394.144068 143.773311 
L 395.229869 149.674358 
L 396.31567 145.405515 
L 397.401472 145.531069 
L 398.487273 146.15884 
L 398.487273 146.15884 
" clip-path="url(#p5413b3b607)" style="fill: none; stroke: #2ca02c; stroke-width: 1.5; stroke-linecap: square"/>
   </g>
   <g id="line2d_21">
    <path d="M 369.170642 64.268003 
L 370.256443 67.162655 
L 371.342244 67.362913 
L 372.428045 72.587851 
L 373.513846 70.221155 
L 374.599647 73.261449 
L 376.77125 71.386298 
L 377.857051 69.72961 
L 378.942852 77.303039 
L 380.028653 76.884316 
L 381.114454 78.90511 
L 382.200255 76.647646 
L 383.286057 83.747735 
L 384.371858 75.282244 
L 385.457659 84.257485 
L 386.54346 85.422628 
L 387.629261 85.404423 
L 388.715062 75.227628 
L 389.800863 80.9077 
L 390.886665 79.742557 
L 391.972466 81.089753 
L 393.058267 87.261369 
L 394.144068 85.841352 
L 395.229869 93.123495 
L 396.31567 84.548771 
L 397.401472 85.713914 
L 398.487273 88.590361 
L 398.487273 88.590361 
" clip-path="url(#p5413b3b607)" style="fill: none; stroke: #d62728; stroke-width: 1.5; stroke-linecap: square"/>
   </g>
   <g id="line2d_22">
    <path d="M 368.08484 135.235626 
L 369.170642 143.396648 
L 370.256443 145.656624 
L 371.342244 149.297695 
L 372.428045 147.163274 
L 373.513846 144.149973 
L 374.599647 151.683225 
L 375.685448 153.315429 
L 376.77125 150.427683 
L 377.857051 144.903298 
L 378.942852 149.925466 
L 380.028653 153.315429 
L 381.114454 149.297695 
L 382.200255 154.947634 
L 383.286057 163.359764 
L 384.371858 148.669924 
L 385.457659 155.826513 
L 386.54346 159.090922 
L 387.629261 160.346464 
L 388.715062 149.548804 
L 389.800863 153.189875 
L 390.886665 148.54437 
L 391.972466 154.570971 
L 393.058267 161.225343 
L 394.144068 162.731994 
L 395.229869 160.723126 
L 396.31567 156.830947 
L 397.401472 153.9432 
L 398.487273 167.000836 
L 398.487273 167.000836 
" clip-path="url(#p5413b3b607)" style="fill: none; stroke: #9467bd; stroke-width: 1.5; stroke-linecap: square"/>
   </g>
   <g id="patch_3">
    <path d="M 57.6 307.584 
L 57.6 41.472 
" style="fill: none; stroke: #000000; stroke-width: 0.8; stroke-linejoin: miter; stroke-linecap: square"/>
   </g>
   <g id="patch_4">
    <path d="M 414.72 307.584 
L 414.72 41.472 
" style="fill: none; stroke: #000000; stroke-width: 0.8; stroke-linejoin: miter; stroke-linecap: square"/>
   </g>
   <g id="patch_5">
    <path d="M 57.6 307.584 
L 414.72 307.584 
" style="fill: none; stroke: #000000; stroke-width: 0.8; stroke-linejoin: miter; stroke-linecap: square"/>
   </g>
   <g id="patch_6">
    <path d="M 57.6 41.472 
L 414.72 41.472 
" style="fill: none; stroke: #000000; stroke-width: 0.8; stroke-linejoin: miter; stroke-linecap: square"/>
   </g>
   <g id="text_20">
    <!-- Learning Curves -->
    <g transform="translate(187.37625 35.472) scale(0.12 -0.12)">
     <defs>
      <path id="DejaVuSans-4c" d="M 628 4666 
L 1259 4666 
L 1259 531 
L 3531 531 
L 3531 0 
L 628 0 
L 628 4666 
z
" transform="scale(0.015625)"/>
      <path id="DejaVuSans-65" d="M 3597 1894 
L 3597 1613 
L 953 1613 
Q 991 1019 1311 708 
Q 1631 397 2203 397 
Q 2534 397 2845 478 
Q 3156 559 3463 722 
L 3463 178 
Q 3153 47 2828 -22 
Q 2503 -91 2169 -91 
Q 1331 -91 842 396 
Q 353 884 353 1716 
Q 353 2575 817 3079 
Q 1281 3584 2069 3584 
Q 2775 3584 3186 3129 
Q 3597 2675 3597 1894 
z
M 3022 2063 
Q 3016 2534 2758 2815 
Q 2500 3097 2075 3097 
Q 1594 3097 1305 2825 
Q 1016 2553 972 2059 
L 3022 2063 
z
" transform="scale(0.015625)"/>
      <path id="DejaVuSans-6e" d="M 3513 2113 
L 3513 0 
L 2938 0 
L 2938 2094 
Q 2938 2591 2744 2837 
Q 2550 3084 2163 3084 
Q 1697 3084 1428 2787 
Q 1159 2491 1159 1978 
L 1159 0 
L 581 0 
L 581 3500 
L 1159 3500 
L 1159 2956 
Q 1366 3272 1645 3428 
Q 1925 3584 2291 3584 
Q 2894 3584 3203 3211 
Q 3513 2838 3513 2113 
z
" transform="scale(0.015625)"/>
      <path id="DejaVuSans-69" d="M 603 3500 
L 1178 3500 
L 1178 0 
L 603 0 
L 603 3500 
z
M 603 4863 
L 1178 4863 
L 1178 4134 
L 603 4134 
L 603 4863 
z
" transform="scale(0.015625)"/>
      <path id="DejaVuSans-67" d="M 2906 1791 
Q 2906 2416 2648 2759 
Q 2391 3103 1925 3103 
Q 1463 3103 1205 2759 
Q 947 2416 947 1791 
Q 947 1169 1205 825 
Q 1463 481 1925 481 
Q 2391 481 2648 825 
Q 2906 1169 2906 1791 
z
M 3481 434 
Q 3481 -459 3084 -895 
Q 2688 -1331 1869 -1331 
Q 1566 -1331 1297 -1286 
Q 1028 -1241 775 -1147 
L 775 -588 
Q 1028 -725 1275 -790 
Q 1522 -856 1778 -856 
Q 2344 -856 2625 -561 
Q 2906 -266 2906 331 
L 2906 616 
Q 2728 306 2450 153 
Q 2172 0 1784 0 
Q 1141 0 747 490 
Q 353 981 353 1791 
Q 353 2603 747 3093 
Q 1141 3584 1784 3584 
Q 2172 3584 2450 3431 
Q 2728 3278 2906 2969 
L 2906 3500 
L 3481 3500 
L 3481 434 
z
" transform="scale(0.015625)"/>
      <path id="DejaVuSans-20" transform="scale(0.015625)"/>
      <path id="DejaVuSans-43" d="M 4122 4306 
L 4122 3641 
Q 3803 3938 3442 4084 
Q 3081 4231 2675 4231 
Q 1875 4231 1450 3742 
Q 1025 3253 1025 2328 
Q 1025 1406 1450 917 
Q 1875 428 2675 428 
Q 3081 428 3442 575 
Q 3803 722 4122 1019 
L 4122 359 
Q 3791 134 3420 21 
Q 3050 -91 2638 -91 
Q 1578 -91 968 557 
Q 359 1206 359 2328 
Q 359 3453 968 4101 
Q 1578 4750 2638 4750 
Q 3056 4750 3426 4639 
Q 3797 4528 4122 4306 
z
" transform="scale(0.015625)"/>
      <path id="DejaVuSans-76" d="M 191 3500 
L 800 3500 
L 1894 563 
L 2988 3500 
L 3597 3500 
L 2284 0 
L 1503 0 
L 191 3500 
z
" transform="scale(0.015625)"/>
     </defs>
     <use xlink:href="#DejaVuSans-4c"/>
     <use xlink:href="#DejaVuSans-65" x="53.962891"/>
     <use xlink:href="#DejaVuSans-61" x="115.486328"/>
     <use xlink:href="#DejaVuSans-72" x="176.765625"/>
     <use xlink:href="#DejaVuSans-6e" x="216.128906"/>
     <use xlink:href="#DejaVuSans-69" x="279.507812"/>
     <use xlink:href="#DejaVuSans-6e" x="307.291016"/>
     <use xlink:href="#DejaVuSans-67" x="370.669922"/>
     <use xlink:href="#DejaVuSans-20" x="434.146484"/>
     <use xlink:href="#DejaVuSans-43" x="465.933594"/>
     <use xlink:href="#DejaVuSans-75" x="535.757812"/>
     <use xlink:href="#DejaVuSans-72" x="599.136719"/>
     <use xlink:href="#DejaVuSans-76" x="640.25"/>
     <use xlink:href="#DejaVuSans-65" x="699.429688"/>
     <use xlink:href="#DejaVuSans-73" x="760.953125"/>
    </g>
   </g>
   <g id="legend_1">
    <g id="patch_7">
     <path d="M 214.18875 302.584 
L 407.72 302.584 
Q 409.72 302.584 409.72 300.584 
L 409.72 228.193375 
Q 409.72 226.193375 407.72 226.193375 
L 214.18875 226.193375 
Q 212.18875 226.193375 212.18875 228.193375 
L 212.18875 300.584 
Q 212.18875 302.584 214.18875 302.584 
z
" style="fill: #ffffff; opacity: 0.8; stroke: #cccccc; stroke-linejoin: miter"/>
    </g>
    <g id="line2d_23">
     <path d="M 216.18875 234.291812 
L 226.18875 234.291812 
L 236.18875 234.291812 
" style="fill: none; stroke: #1f77b4; stroke-width: 1.5; stroke-linecap: square"/>
    </g>
    <g id="text_21">
     <!-- Train Accuracy -->
     <g transform="translate(244.18875 237.791812) scale(0.1 -0.1)">
      <defs>
       <path id="DejaVuSans-54" d="M -19 4666 
L 3928 4666 
L 3928 4134 
L 2272 4134 
L 2272 0 
L 1638 0 
L 1638 4134 
L -19 4134 
L -19 4666 
z
" transform="scale(0.015625)"/>
      </defs>
      <use xlink:href="#DejaVuSans-54"/>
      <use xlink:href="#DejaVuSans-72" x="46.333984"/>
      <use xlink:href="#DejaVuSans-61" x="87.447266"/>
      <use xlink:href="#DejaVuSans-69" x="148.726562"/>
      <use xlink:href="#DejaVuSans-6e" x="176.509766"/>
      <use xlink:href="#DejaVuSans-20" x="239.888672"/>
      <use xlink:href="#DejaVuSans-41" x="271.675781"/>
      <use xlink:href="#DejaVuSans-63" x="338.333984"/>
      <use xlink:href="#DejaVuSans-63" x="393.314453"/>
      <use xlink:href="#DejaVuSans-75" x="448.294922"/>
      <use xlink:href="#DejaVuSans-72" x="511.673828"/>
      <use xlink:href="#DejaVuSans-61" x="552.787109"/>
      <use xlink:href="#DejaVuSans-63" x="614.066406"/>
      <use xlink:href="#DejaVuSans-79" x="669.046875"/>
     </g>
    </g>
    <g id="line2d_24">
     <path d="M 216.18875 248.969937 
L 226.18875 248.969937 
L 236.18875 248.969937 
" style="fill: none; stroke: #ff7f0e; stroke-width: 1.5; stroke-linecap: square"/>
    </g>
    <g id="text_22">
     <!-- Validation Accuracy -->
     <g transform="translate(244.18875 252.469937) scale(0.1 -0.1)">
      <defs>
       <path id="DejaVuSans-56" d="M 1831 0 
L 50 4666 
L 709 4666 
L 2188 738 
L 3669 4666 
L 4325 4666 
L 2547 0 
L 1831 0 
z
" transform="scale(0.015625)"/>
       <path id="DejaVuSans-6c" d="M 603 4863 
L 1178 4863 
L 1178 0 
L 603 0 
L 603 4863 
z
" transform="scale(0.015625)"/>
       <path id="DejaVuSans-64" d="M 2906 2969 
L 2906 4863 
L 3481 4863 
L 3481 0 
L 2906 0 
L 2906 525 
Q 2725 213 2448 61 
Q 2172 -91 1784 -91 
Q 1150 -91 751 415 
Q 353 922 353 1747 
Q 353 2572 751 3078 
Q 1150 3584 1784 3584 
Q 2172 3584 2448 3432 
Q 2725 3281 2906 2969 
z
M 947 1747 
Q 947 1113 1208 752 
Q 1469 391 1925 391 
Q 2381 391 2643 752 
Q 2906 1113 2906 1747 
Q 2906 2381 2643 2742 
Q 2381 3103 1925 3103 
Q 1469 3103 1208 2742 
Q 947 2381 947 1747 
z
" transform="scale(0.015625)"/>
       <path id="DejaVuSans-74" d="M 1172 4494 
L 1172 3500 
L 2356 3500 
L 2356 3053 
L 1172 3053 
L 1172 1153 
Q 1172 725 1289 603 
Q 1406 481 1766 481 
L 2356 481 
L 2356 0 
L 1766 0 
Q 1100 0 847 248 
Q 594 497 594 1153 
L 594 3053 
L 172 3053 
L 172 3500 
L 594 3500 
L 594 4494 
L 1172 4494 
z
" transform="scale(0.015625)"/>
      </defs>
      <use xlink:href="#DejaVuSans-56"/>
      <use xlink:href="#DejaVuSans-61" x="60.658203"/>
      <use xlink:href="#DejaVuSans-6c" x="121.9375"/>
      <use xlink:href="#DejaVuSans-69" x="149.720703"/>
      <use xlink:href="#DejaVuSans-64" x="177.503906"/>
      <use xlink:href="#DejaVuSans-61" x="240.980469"/>
      <use xlink:href="#DejaVuSans-74" x="302.259766"/>
      <use xlink:href="#DejaVuSans-69" x="341.46875"/>
      <use xlink:href="#DejaVuSans-6f" x="369.251953"/>
      <use xlink:href="#DejaVuSans-6e" x="430.433594"/>
      <use xlink:href="#DejaVuSans-20" x="493.8125"/>
      <use xlink:href="#DejaVuSans-41" x="525.599609"/>
      <use xlink:href="#DejaVuSans-63" x="592.257812"/>
      <use xlink:href="#DejaVuSans-63" x="647.238281"/>
      <use xlink:href="#DejaVuSans-75" x="702.21875"/>
      <use xlink:href="#DejaVuSans-72" x="765.597656"/>
      <use xlink:href="#DejaVuSans-61" x="806.710938"/>
      <use xlink:href="#DejaVuSans-63" x="867.990234"/>
      <use xlink:href="#DejaVuSans-79" x="922.970703"/>
     </g>
    </g>
    <g id="line2d_25">
     <path d="M 216.18875 263.648062 
L 226.18875 263.648062 
L 236.18875 263.648062 
" style="fill: none; stroke: #2ca02c; stroke-width: 1.5; stroke-linecap: square"/>
    </g>
    <g id="text_23">
     <!-- Robust Validation Accuracy -->
     <g transform="translate(244.18875 267.148062) scale(0.1 -0.1)">
      <defs>
       <path id="DejaVuSans-52" d="M 2841 2188 
Q 3044 2119 3236 1894 
Q 3428 1669 3622 1275 
L 4263 0 
L 3584 0 
L 2988 1197 
Q 2756 1666 2539 1819 
Q 2322 1972 1947 1972 
L 1259 1972 
L 1259 0 
L 628 0 
L 628 4666 
L 2053 4666 
Q 2853 4666 3247 4331 
Q 3641 3997 3641 3322 
Q 3641 2881 3436 2590 
Q 3231 2300 2841 2188 
z
M 1259 4147 
L 1259 2491 
L 2053 2491 
Q 2509 2491 2742 2702 
Q 2975 2913 2975 3322 
Q 2975 3731 2742 3939 
Q 2509 4147 2053 4147 
L 1259 4147 
z
" transform="scale(0.015625)"/>
       <path id="DejaVuSans-62" d="M 3116 1747 
Q 3116 2381 2855 2742 
Q 2594 3103 2138 3103 
Q 1681 3103 1420 2742 
Q 1159 2381 1159 1747 
Q 1159 1113 1420 752 
Q 1681 391 2138 391 
Q 2594 391 2855 752 
Q 3116 1113 3116 1747 
z
M 1159 2969 
Q 1341 3281 1617 3432 
Q 1894 3584 2278 3584 
Q 2916 3584 3314 3078 
Q 3713 2572 3713 1747 
Q 3713 922 3314 415 
Q 2916 -91 2278 -91 
Q 1894 -91 1617 61 
Q 1341 213 1159 525 
L 1159 0 
L 581 0 
L 581 4863 
L 1159 4863 
L 1159 2969 
z
" transform="scale(0.015625)"/>
      </defs>
      <use xlink:href="#DejaVuSans-52"/>
      <use xlink:href="#DejaVuSans-6f" x="64.982422"/>
      <use xlink:href="#DejaVuSans-62" x="126.164062"/>
      <use xlink:href="#DejaVuSans-75" x="189.640625"/>
      <use xlink:href="#DejaVuSans-73" x="253.019531"/>
      <use xlink:href="#DejaVuSans-74" x="305.119141"/>
      <use xlink:href="#DejaVuSans-20" x="344.328125"/>
      <use xlink:href="#DejaVuSans-56" x="376.115234"/>
      <use xlink:href="#DejaVuSans-61" x="436.773438"/>
      <use xlink:href="#DejaVuSans-6c" x="498.052734"/>
      <use xlink:href="#DejaVuSans-69" x="525.835938"/>
      <use xlink:href="#DejaVuSans-64" x="553.619141"/>
      <use xlink:href="#DejaVuSans-61" x="617.095703"/>
      <use xlink:href="#DejaVuSans-74" x="678.375"/>
      <use xlink:href="#DejaVuSans-69" x="717.583984"/>
      <use xlink:href="#DejaVuSans-6f" x="745.367188"/>
      <use xlink:href="#DejaVuSans-6e" x="806.548828"/>
      <use xlink:href="#DejaVuSans-20" x="869.927734"/>
      <use xlink:href="#DejaVuSans-41" x="901.714844"/>
      <use xlink:href="#DejaVuSans-63" x="968.373047"/>
      <use xlink:href="#DejaVuSans-63" x="1023.353516"/>
      <use xlink:href="#DejaVuSans-75" x="1078.333984"/>
      <use xlink:href="#DejaVuSans-72" x="1141.712891"/>
      <use xlink:href="#DejaVuSans-61" x="1182.826172"/>
      <use xlink:href="#DejaVuSans-63" x="1244.105469"/>
      <use xlink:href="#DejaVuSans-79" x="1299.085938"/>
     </g>
    </g>
    <g id="line2d_26">
     <path d="M 216.18875 278.326188 
L 226.18875 278.326188 
L 236.18875 278.326188 
" style="fill: none; stroke: #d62728; stroke-width: 1.5; stroke-linecap: square"/>
    </g>
    <g id="text_24">
     <!-- SWA Validation Accuracy -->
     <g transform="translate(244.18875 281.826188) scale(0.1 -0.1)">
      <defs>
       <path id="DejaVuSans-53" d="M 3425 4513 
L 3425 3897 
Q 3066 4069 2747 4153 
Q 2428 4238 2131 4238 
Q 1616 4238 1336 4038 
Q 1056 3838 1056 3469 
Q 1056 3159 1242 3001 
Q 1428 2844 1947 2747 
L 2328 2669 
Q 3034 2534 3370 2195 
Q 3706 1856 3706 1288 
Q 3706 609 3251 259 
Q 2797 -91 1919 -91 
Q 1588 -91 1214 -16 
Q 841 59 441 206 
L 441 856 
Q 825 641 1194 531 
Q 1563 422 1919 422 
Q 2459 422 2753 634 
Q 3047 847 3047 1241 
Q 3047 1584 2836 1778 
Q 2625 1972 2144 2069 
L 1759 2144 
Q 1053 2284 737 2584 
Q 422 2884 422 3419 
Q 422 4038 858 4394 
Q 1294 4750 2059 4750 
Q 2388 4750 2728 4690 
Q 3069 4631 3425 4513 
z
" transform="scale(0.015625)"/>
       <path id="DejaVuSans-57" d="M 213 4666 
L 850 4666 
L 1831 722 
L 2809 4666 
L 3519 4666 
L 4500 722 
L 5478 4666 
L 6119 4666 
L 4947 0 
L 4153 0 
L 3169 4050 
L 2175 0 
L 1381 0 
L 213 4666 
z
" transform="scale(0.015625)"/>
      </defs>
      <use xlink:href="#DejaVuSans-53"/>
      <use xlink:href="#DejaVuSans-57" x="63.476562"/>
      <use xlink:href="#DejaVuSans-41" x="156.853516"/>
      <use xlink:href="#DejaVuSans-20" x="225.261719"/>
      <use xlink:href="#DejaVuSans-56" x="257.048828"/>
      <use xlink:href="#DejaVuSans-61" x="317.707031"/>
      <use xlink:href="#DejaVuSans-6c" x="378.986328"/>
      <use xlink:href="#DejaVuSans-69" x="406.769531"/>
      <use xlink:href="#DejaVuSans-64" x="434.552734"/>
      <use xlink:href="#DejaVuSans-61" x="498.029297"/>
      <use xlink:href="#DejaVuSans-74" x="559.308594"/>
      <use xlink:href="#DejaVuSans-69" x="598.517578"/>
      <use xlink:href="#DejaVuSans-6f" x="626.300781"/>
      <use xlink:href="#DejaVuSans-6e" x="687.482422"/>
      <use xlink:href="#DejaVuSans-20" x="750.861328"/>
      <use xlink:href="#DejaVuSans-41" x="782.648438"/>
      <use xlink:href="#DejaVuSans-63" x="849.306641"/>
      <use xlink:href="#DejaVuSans-63" x="904.287109"/>
      <use xlink:href="#DejaVuSans-75" x="959.267578"/>
      <use xlink:href="#DejaVuSans-72" x="1022.646484"/>
      <use xlink:href="#DejaVuSans-61" x="1063.759766"/>
      <use xlink:href="#DejaVuSans-63" x="1125.039062"/>
      <use xlink:href="#DejaVuSans-79" x="1180.019531"/>
     </g>
    </g>
    <g id="line2d_27">
     <path d="M 216.18875 293.004312 
L 226.18875 293.004312 
L 236.18875 293.004312 
" style="fill: none; stroke: #9467bd; stroke-width: 1.5; stroke-linecap: square"/>
    </g>
    <g id="text_25">
     <!-- SWA Robust Validation Accuracy -->
     <g transform="translate(244.18875 296.504312) scale(0.1 -0.1)">
      <use xlink:href="#DejaVuSans-53"/>
      <use xlink:href="#DejaVuSans-57" x="63.476562"/>
      <use xlink:href="#DejaVuSans-41" x="156.853516"/>
      <use xlink:href="#DejaVuSans-20" x="225.261719"/>
      <use xlink:href="#DejaVuSans-52" x="257.048828"/>
      <use xlink:href="#DejaVuSans-6f" x="322.03125"/>
      <use xlink:href="#DejaVuSans-62" x="383.212891"/>
      <use xlink:href="#DejaVuSans-75" x="446.689453"/>
      <use xlink:href="#DejaVuSans-73" x="510.068359"/>
      <use xlink:href="#DejaVuSans-74" x="562.167969"/>
      <use xlink:href="#DejaVuSans-20" x="601.376953"/>
      <use xlink:href="#DejaVuSans-56" x="633.164062"/>
      <use xlink:href="#DejaVuSans-61" x="693.822266"/>
      <use xlink:href="#DejaVuSans-6c" x="755.101562"/>
      <use xlink:href="#DejaVuSans-69" x="782.884766"/>
      <use xlink:href="#DejaVuSans-64" x="810.667969"/>
      <use xlink:href="#DejaVuSans-61" x="874.144531"/>
      <use xlink:href="#DejaVuSans-74" x="935.423828"/>
      <use xlink:href="#DejaVuSans-69" x="974.632812"/>
      <use xlink:href="#DejaVuSans-6f" x="1002.416016"/>
      <use xlink:href="#DejaVuSans-6e" x="1063.597656"/>
      <use xlink:href="#DejaVuSans-20" x="1126.976562"/>
      <use xlink:href="#DejaVuSans-41" x="1158.763672"/>
      <use xlink:href="#DejaVuSans-63" x="1225.421875"/>
      <use xlink:href="#DejaVuSans-63" x="1280.402344"/>
      <use xlink:href="#DejaVuSans-75" x="1335.382812"/>
      <use xlink:href="#DejaVuSans-72" x="1398.761719"/>
      <use xlink:href="#DejaVuSans-61" x="1439.875"/>
      <use xlink:href="#DejaVuSans-63" x="1501.154297"/>
      <use xlink:href="#DejaVuSans-79" x="1556.134766"/>
     </g>
    </g>
   </g>
  </g>
 </g>
 <defs>
  <clipPath id="p5413b3b607">
   <rect x="57.6" y="41.472" width="357.12" height="266.112"/>
  </clipPath>
 </defs>
</svg>
