<?xml version="1.0" encoding="utf-8" standalone="no"?>
<!DOCTYPE svg PUBLIC "-//W3C//DTD SVG 1.1//EN"
  "http://www.w3.org/Graphics/SVG/1.1/DTD/svg11.dtd">
<svg xmlns:xlink="http://www.w3.org/1999/xlink" width="460.8pt" height="345.6pt" viewBox="0 0 460.8 345.6" xmlns="http://www.w3.org/2000/svg" version="1.1">
 <metadata>
  <rdf:RDF xmlns:dc="http://purl.org/dc/elements/1.1/" xmlns:cc="http://creativecommons.org/ns#" xmlns:rdf="http://www.w3.org/1999/02/22-rdf-syntax-ns#">
   <cc:Work>
    <dc:type rdf:resource="http://purl.org/dc/dcmitype/StillImage"/>
    <dc:date>2025-05-04T02:46:20.391623</dc:date>
    <dc:format>image/svg+xml</dc:format>
    <dc:creator>
     <cc:Agent>
      <dc:title>Matplotlib v3.9.1, https://matplotlib.org/</dc:title>
     </cc:Agent>
    </dc:creator>
   </cc:Work>
  </rdf:RDF>
 </metadata>
 <defs>
  <style type="text/css">*{stroke-linejoin: round; stroke-linecap: butt}</style>
 </defs>
 <g id="figure_1">
  <g id="patch_1">
   <path d="M 0 345.6 
L 460.8 345.6 
L 460.8 0 
L 0 0 
z
" style="fill: #ffffff"/>
  </g>
  <g id="axes_1">
   <g id="patch_2">
    <path d="M 57.6 307.584 
L 414.72 307.584 
L 414.72 41.472 
L 57.6 41.472 
z
" style="fill: #ffffff"/>
   </g>
   <g id="matplotlib.axis_1">
    <g id="xtick_1">
     <g id="line2d_1">
      <defs>
       <path id="md181cd8350" d="M 0 0 
L 0 3.5 
" style="stroke: #000000; stroke-width: 0.8"/>
      </defs>
      <g>
       <use xlink:href="#md181cd8350" x="73.832727" y="307.584" style="stroke: #000000; stroke-width: 0.8"/>
      </g>
     </g>
     <g id="text_1">
      <!-- 1 -->
      <g transform="translate(70.651477 322.182437) scale(0.1 -0.1)">
       <defs>
        <path id="DejaVuSans-31" d="M 794 531 
L 1825 531 
L 1825 4091 
L 703 3866 
L 703 4441 
L 1819 4666 
L 2450 4666 
L 2450 531 
L 3481 531 
L 3481 0 
L 794 0 
L 794 531 
z
" transform="scale(0.015625)"/>
       </defs>
       <use xlink:href="#DejaVuSans-31"/>
      </g>
     </g>
    </g>
    <g id="xtick_2">
     <g id="line2d_2">
      <g>
       <use xlink:href="#md181cd8350" x="109.664165" y="307.584" style="stroke: #000000; stroke-width: 0.8"/>
      </g>
     </g>
     <g id="text_2">
      <!-- 34 -->
      <g transform="translate(103.301665 322.182437) scale(0.1 -0.1)">
       <defs>
        <path id="DejaVuSans-33" d="M 2597 2516 
Q 3050 2419 3304 2112 
Q 3559 1806 3559 1356 
Q 3559 666 3084 287 
Q 2609 -91 1734 -91 
Q 1441 -91 1130 -33 
Q 819 25 488 141 
L 488 750 
Q 750 597 1062 519 
Q 1375 441 1716 441 
Q 2309 441 2620 675 
Q 2931 909 2931 1356 
Q 2931 1769 2642 2001 
Q 2353 2234 1838 2234 
L 1294 2234 
L 1294 2753 
L 1863 2753 
Q 2328 2753 2575 2939 
Q 2822 3125 2822 3475 
Q 2822 3834 2567 4026 
Q 2313 4219 1838 4219 
Q 1578 4219 1281 4162 
Q 984 4106 628 3988 
L 628 4550 
Q 988 4650 1302 4700 
Q 1616 4750 1894 4750 
Q 2613 4750 3031 4423 
Q 3450 4097 3450 3541 
Q 3450 3153 3228 2886 
Q 3006 2619 2597 2516 
z
" transform="scale(0.015625)"/>
        <path id="DejaVuSans-34" d="M 2419 4116 
L 825 1625 
L 2419 1625 
L 2419 4116 
z
M 2253 4666 
L 3047 4666 
L 3047 1625 
L 3713 1625 
L 3713 1100 
L 3047 1100 
L 3047 0 
L 2419 0 
L 2419 1100 
L 313 1100 
L 313 1709 
L 2253 4666 
z
" transform="scale(0.015625)"/>
       </defs>
       <use xlink:href="#DejaVuSans-33"/>
       <use xlink:href="#DejaVuSans-34" x="63.623047"/>
      </g>
     </g>
    </g>
    <g id="xtick_3">
     <g id="line2d_3">
      <g>
       <use xlink:href="#md181cd8350" x="145.495604" y="307.584" style="stroke: #000000; stroke-width: 0.8"/>
      </g>
     </g>
     <g id="text_3">
      <!-- 67 -->
      <g transform="translate(139.133104 322.182437) scale(0.1 -0.1)">
       <defs>
        <path id="DejaVuSans-36" d="M 2113 2584 
Q 1688 2584 1439 2293 
Q 1191 2003 1191 1497 
Q 1191 994 1439 701 
Q 1688 409 2113 409 
Q 2538 409 2786 701 
Q 3034 994 3034 1497 
Q 3034 2003 2786 2293 
Q 2538 2584 2113 2584 
z
M 3366 4563 
L 3366 3988 
Q 3128 4100 2886 4159 
Q 2644 4219 2406 4219 
Q 1781 4219 1451 3797 
Q 1122 3375 1075 2522 
Q 1259 2794 1537 2939 
Q 1816 3084 2150 3084 
Q 2853 3084 3261 2657 
Q 3669 2231 3669 1497 
Q 3669 778 3244 343 
Q 2819 -91 2113 -91 
Q 1303 -91 875 529 
Q 447 1150 447 2328 
Q 447 3434 972 4092 
Q 1497 4750 2381 4750 
Q 2619 4750 2861 4703 
Q 3103 4656 3366 4563 
z
" transform="scale(0.015625)"/>
        <path id="DejaVuSans-37" d="M 525 4666 
L 3525 4666 
L 3525 4397 
L 1831 0 
L 1172 0 
L 2766 4134 
L 525 4134 
L 525 4666 
z
" transform="scale(0.015625)"/>
       </defs>
       <use xlink:href="#DejaVuSans-36"/>
       <use xlink:href="#DejaVuSans-37" x="63.623047"/>
      </g>
     </g>
    </g>
    <g id="xtick_4">
     <g id="line2d_4">
      <g>
       <use xlink:href="#md181cd8350" x="181.327042" y="307.584" style="stroke: #000000; stroke-width: 0.8"/>
      </g>
     </g>
     <g id="text_4">
      <!-- 100 -->
      <g transform="translate(171.783292 322.182437) scale(0.1 -0.1)">
       <defs>
        <path id="DejaVuSans-30" d="M 2034 4250 
Q 1547 4250 1301 3770 
Q 1056 3291 1056 2328 
Q 1056 1369 1301 889 
Q 1547 409 2034 409 
Q 2525 409 2770 889 
Q 3016 1369 3016 2328 
Q 3016 3291 2770 3770 
Q 2525 4250 2034 4250 
z
M 2034 4750 
Q 2819 4750 3233 4129 
Q 3647 3509 3647 2328 
Q 3647 1150 3233 529 
Q 2819 -91 2034 -91 
Q 1250 -91 836 529 
Q 422 1150 422 2328 
Q 422 3509 836 4129 
Q 1250 4750 2034 4750 
z
" transform="scale(0.015625)"/>
       </defs>
       <use xlink:href="#DejaVuSans-31"/>
       <use xlink:href="#DejaVuSans-30" x="63.623047"/>
       <use xlink:href="#DejaVuSans-30" x="127.246094"/>
      </g>
     </g>
    </g>
    <g id="xtick_5">
     <g id="line2d_5">
      <g>
       <use xlink:href="#md181cd8350" x="217.15848" y="307.584" style="stroke: #000000; stroke-width: 0.8"/>
      </g>
     </g>
     <g id="text_5">
      <!-- 133 -->
      <g transform="translate(207.61473 322.182437) scale(0.1 -0.1)">
       <use xlink:href="#DejaVuSans-31"/>
       <use xlink:href="#DejaVuSans-33" x="63.623047"/>
       <use xlink:href="#DejaVuSans-33" x="127.246094"/>
      </g>
     </g>
    </g>
    <g id="xtick_6">
     <g id="line2d_6">
      <g>
       <use xlink:href="#md181cd8350" x="254.075719" y="307.584" style="stroke: #000000; stroke-width: 0.8"/>
      </g>
     </g>
     <g id="text_6">
      <!-- 167 -->
      <g transform="translate(244.531969 322.182437) scale(0.1 -0.1)">
       <use xlink:href="#DejaVuSans-31"/>
       <use xlink:href="#DejaVuSans-36" x="63.623047"/>
       <use xlink:href="#DejaVuSans-37" x="127.246094"/>
      </g>
     </g>
    </g>
    <g id="xtick_7">
     <g id="line2d_7">
      <g>
       <use xlink:href="#md181cd8350" x="289.907157" y="307.584" style="stroke: #000000; stroke-width: 0.8"/>
      </g>
     </g>
     <g id="text_7">
      <!-- 200 -->
      <g transform="translate(280.363407 322.182437) scale(0.1 -0.1)">
       <defs>
        <path id="DejaVuSans-32" d="M 1228 531 
L 3431 531 
L 3431 0 
L 469 0 
L 469 531 
Q 828 903 1448 1529 
Q 2069 2156 2228 2338 
Q 2531 2678 2651 2914 
Q 2772 3150 2772 3378 
Q 2772 3750 2511 3984 
Q 2250 4219 1831 4219 
Q 1534 4219 1204 4116 
Q 875 4013 500 3803 
L 500 4441 
Q 881 4594 1212 4672 
Q 1544 4750 1819 4750 
Q 2544 4750 2975 4387 
Q 3406 4025 3406 3419 
Q 3406 3131 3298 2873 
Q 3191 2616 2906 2266 
Q 2828 2175 2409 1742 
Q 1991 1309 1228 531 
z
" transform="scale(0.015625)"/>
       </defs>
       <use xlink:href="#DejaVuSans-32"/>
       <use xlink:href="#DejaVuSans-30" x="63.623047"/>
       <use xlink:href="#DejaVuSans-30" x="127.246094"/>
      </g>
     </g>
    </g>
    <g id="xtick_8">
     <g id="line2d_8">
      <g>
       <use xlink:href="#md181cd8350" x="325.738595" y="307.584" style="stroke: #000000; stroke-width: 0.8"/>
      </g>
     </g>
     <g id="text_8">
      <!-- 233 -->
      <g transform="translate(316.194845 322.182437) scale(0.1 -0.1)">
       <use xlink:href="#DejaVuSans-32"/>
       <use xlink:href="#DejaVuSans-33" x="63.623047"/>
       <use xlink:href="#DejaVuSans-33" x="127.246094"/>
      </g>
     </g>
    </g>
    <g id="xtick_9">
     <g id="line2d_9">
      <g>
       <use xlink:href="#md181cd8350" x="361.570033" y="307.584" style="stroke: #000000; stroke-width: 0.8"/>
      </g>
     </g>
     <g id="text_9">
      <!-- 266 -->
      <g transform="translate(352.026283 322.182437) scale(0.1 -0.1)">
       <use xlink:href="#DejaVuSans-32"/>
       <use xlink:href="#DejaVuSans-36" x="63.623047"/>
       <use xlink:href="#DejaVuSans-36" x="127.246094"/>
      </g>
     </g>
    </g>
    <g id="xtick_10">
     <g id="line2d_10">
      <g>
       <use xlink:href="#md181cd8350" x="398.487273" y="307.584" style="stroke: #000000; stroke-width: 0.8"/>
      </g>
     </g>
     <g id="text_10">
      <!-- 300 -->
      <g transform="translate(388.943523 322.182437) scale(0.1 -0.1)">
       <use xlink:href="#DejaVuSans-33"/>
       <use xlink:href="#DejaVuSans-30" x="63.623047"/>
       <use xlink:href="#DejaVuSans-30" x="127.246094"/>
      </g>
     </g>
    </g>
    <g id="text_11">
     <!-- Epochs -->
     <g transform="translate(218.244375 335.860562) scale(0.1 -0.1)">
      <defs>
       <path id="DejaVuSans-45" d="M 628 4666 
L 3578 4666 
L 3578 4134 
L 1259 4134 
L 1259 2753 
L 3481 2753 
L 3481 2222 
L 1259 2222 
L 1259 531 
L 3634 531 
L 3634 0 
L 628 0 
L 628 4666 
z
" transform="scale(0.015625)"/>
       <path id="DejaVuSans-70" d="M 1159 525 
L 1159 -1331 
L 581 -1331 
L 581 3500 
L 1159 3500 
L 1159 2969 
Q 1341 3281 1617 3432 
Q 1894 3584 2278 3584 
Q 2916 3584 3314 3078 
Q 3713 2572 3713 1747 
Q 3713 922 3314 415 
Q 2916 -91 2278 -91 
Q 1894 -91 1617 61 
Q 1341 213 1159 525 
z
M 3116 1747 
Q 3116 2381 2855 2742 
Q 2594 3103 2138 3103 
Q 1681 3103 1420 2742 
Q 1159 2381 1159 1747 
Q 1159 1113 1420 752 
Q 1681 391 2138 391 
Q 2594 391 2855 752 
Q 3116 1113 3116 1747 
z
" transform="scale(0.015625)"/>
       <path id="DejaVuSans-6f" d="M 1959 3097 
Q 1497 3097 1228 2736 
Q 959 2375 959 1747 
Q 959 1119 1226 758 
Q 1494 397 1959 397 
Q 2419 397 2687 759 
Q 2956 1122 2956 1747 
Q 2956 2369 2687 2733 
Q 2419 3097 1959 3097 
z
M 1959 3584 
Q 2709 3584 3137 3096 
Q 3566 2609 3566 1747 
Q 3566 888 3137 398 
Q 2709 -91 1959 -91 
Q 1206 -91 779 398 
Q 353 888 353 1747 
Q 353 2609 779 3096 
Q 1206 3584 1959 3584 
z
" transform="scale(0.015625)"/>
       <path id="DejaVuSans-63" d="M 3122 3366 
L 3122 2828 
Q 2878 2963 2633 3030 
Q 2388 3097 2138 3097 
Q 1578 3097 1268 2742 
Q 959 2388 959 1747 
Q 959 1106 1268 751 
Q 1578 397 2138 397 
Q 2388 397 2633 464 
Q 2878 531 3122 666 
L 3122 134 
Q 2881 22 2623 -34 
Q 2366 -91 2075 -91 
Q 1284 -91 818 406 
Q 353 903 353 1747 
Q 353 2603 823 3093 
Q 1294 3584 2113 3584 
Q 2378 3584 2631 3529 
Q 2884 3475 3122 3366 
z
" transform="scale(0.015625)"/>
       <path id="DejaVuSans-68" d="M 3513 2113 
L 3513 0 
L 2938 0 
L 2938 2094 
Q 2938 2591 2744 2837 
Q 2550 3084 2163 3084 
Q 1697 3084 1428 2787 
Q 1159 2491 1159 1978 
L 1159 0 
L 581 0 
L 581 4863 
L 1159 4863 
L 1159 2956 
Q 1366 3272 1645 3428 
Q 1925 3584 2291 3584 
Q 2894 3584 3203 3211 
Q 3513 2838 3513 2113 
z
" transform="scale(0.015625)"/>
       <path id="DejaVuSans-73" d="M 2834 3397 
L 2834 2853 
Q 2591 2978 2328 3040 
Q 2066 3103 1784 3103 
Q 1356 3103 1142 2972 
Q 928 2841 928 2578 
Q 928 2378 1081 2264 
Q 1234 2150 1697 2047 
L 1894 2003 
Q 2506 1872 2764 1633 
Q 3022 1394 3022 966 
Q 3022 478 2636 193 
Q 2250 -91 1575 -91 
Q 1294 -91 989 -36 
Q 684 19 347 128 
L 347 722 
Q 666 556 975 473 
Q 1284 391 1588 391 
Q 1994 391 2212 530 
Q 2431 669 2431 922 
Q 2431 1156 2273 1281 
Q 2116 1406 1581 1522 
L 1381 1569 
Q 847 1681 609 1914 
Q 372 2147 372 2553 
Q 372 3047 722 3315 
Q 1072 3584 1716 3584 
Q 2034 3584 2315 3537 
Q 2597 3491 2834 3397 
z
" transform="scale(0.015625)"/>
      </defs>
      <use xlink:href="#DejaVuSans-45"/>
      <use xlink:href="#DejaVuSans-70" x="63.183594"/>
      <use xlink:href="#DejaVuSans-6f" x="126.660156"/>
      <use xlink:href="#DejaVuSans-63" x="187.841797"/>
      <use xlink:href="#DejaVuSans-68" x="242.822266"/>
      <use xlink:href="#DejaVuSans-73" x="306.201172"/>
     </g>
    </g>
   </g>
   <g id="matplotlib.axis_2">
    <g id="ytick_1">
     <g id="line2d_11">
      <defs>
       <path id="m7df39c87dc" d="M 0 0 
L -3.5 0 
" style="stroke: #000000; stroke-width: 0.8"/>
      </defs>
      <g>
       <use xlink:href="#m7df39c87dc" x="57.6" y="276.357703" style="stroke: #000000; stroke-width: 0.8"/>
      </g>
     </g>
     <g id="text_12">
      <!-- 10 -->
      <g transform="translate(37.875 280.156922) scale(0.1 -0.1)">
       <use xlink:href="#DejaVuSans-31"/>
       <use xlink:href="#DejaVuSans-30" x="63.623047"/>
      </g>
     </g>
    </g>
    <g id="ytick_2">
     <g id="line2d_12">
      <g>
       <use xlink:href="#m7df39c87dc" x="57.6" y="239.702602" style="stroke: #000000; stroke-width: 0.8"/>
      </g>
     </g>
     <g id="text_13">
      <!-- 20 -->
      <g transform="translate(37.875 243.501821) scale(0.1 -0.1)">
       <use xlink:href="#DejaVuSans-32"/>
       <use xlink:href="#DejaVuSans-30" x="63.623047"/>
      </g>
     </g>
    </g>
    <g id="ytick_3">
     <g id="line2d_13">
      <g>
       <use xlink:href="#m7df39c87dc" x="57.6" y="203.047501" style="stroke: #000000; stroke-width: 0.8"/>
      </g>
     </g>
     <g id="text_14">
      <!-- 30 -->
      <g transform="translate(37.875 206.84672) scale(0.1 -0.1)">
       <use xlink:href="#DejaVuSans-33"/>
       <use xlink:href="#DejaVuSans-30" x="63.623047"/>
      </g>
     </g>
    </g>
    <g id="ytick_4">
     <g id="line2d_14">
      <g>
       <use xlink:href="#m7df39c87dc" x="57.6" y="166.3924" style="stroke: #000000; stroke-width: 0.8"/>
      </g>
     </g>
     <g id="text_15">
      <!-- 40 -->
      <g transform="translate(37.875 170.191619) scale(0.1 -0.1)">
       <use xlink:href="#DejaVuSans-34"/>
       <use xlink:href="#DejaVuSans-30" x="63.623047"/>
      </g>
     </g>
    </g>
    <g id="ytick_5">
     <g id="line2d_15">
      <g>
       <use xlink:href="#m7df39c87dc" x="57.6" y="129.7373" style="stroke: #000000; stroke-width: 0.8"/>
      </g>
     </g>
     <g id="text_16">
      <!-- 50 -->
      <g transform="translate(37.875 133.536518) scale(0.1 -0.1)">
       <defs>
        <path id="DejaVuSans-35" d="M 691 4666 
L 3169 4666 
L 3169 4134 
L 1269 4134 
L 1269 2991 
Q 1406 3038 1543 3061 
Q 1681 3084 1819 3084 
Q 2600 3084 3056 2656 
Q 3513 2228 3513 1497 
Q 3513 744 3044 326 
Q 2575 -91 1722 -91 
Q 1428 -91 1123 -41 
Q 819 9 494 109 
L 494 744 
Q 775 591 1075 516 
Q 1375 441 1709 441 
Q 2250 441 2565 725 
Q 2881 1009 2881 1497 
Q 2881 1984 2565 2268 
Q 2250 2553 1709 2553 
Q 1456 2553 1204 2497 
Q 953 2441 691 2322 
L 691 4666 
z
" transform="scale(0.015625)"/>
       </defs>
       <use xlink:href="#DejaVuSans-35"/>
       <use xlink:href="#DejaVuSans-30" x="63.623047"/>
      </g>
     </g>
    </g>
    <g id="ytick_6">
     <g id="line2d_16">
      <g>
       <use xlink:href="#m7df39c87dc" x="57.6" y="93.082199" style="stroke: #000000; stroke-width: 0.8"/>
      </g>
     </g>
     <g id="text_17">
      <!-- 60 -->
      <g transform="translate(37.875 96.881417) scale(0.1 -0.1)">
       <use xlink:href="#DejaVuSans-36"/>
       <use xlink:href="#DejaVuSans-30" x="63.623047"/>
      </g>
     </g>
    </g>
    <g id="ytick_7">
     <g id="line2d_17">
      <g>
       <use xlink:href="#m7df39c87dc" x="57.6" y="56.427098" style="stroke: #000000; stroke-width: 0.8"/>
      </g>
     </g>
     <g id="text_18">
      <!-- 70 -->
      <g transform="translate(37.875 60.226317) scale(0.1 -0.1)">
       <use xlink:href="#DejaVuSans-37"/>
       <use xlink:href="#DejaVuSans-30" x="63.623047"/>
      </g>
     </g>
    </g>
    <g id="text_19">
     <!-- Accuracy -->
     <g transform="translate(31.795312 197.356125) rotate(-90) scale(0.1 -0.1)">
      <defs>
       <path id="DejaVuSans-41" d="M 2188 4044 
L 1331 1722 
L 3047 1722 
L 2188 4044 
z
M 1831 4666 
L 2547 4666 
L 4325 0 
L 3669 0 
L 3244 1197 
L 1141 1197 
L 716 0 
L 50 0 
L 1831 4666 
z
" transform="scale(0.015625)"/>
       <path id="DejaVuSans-75" d="M 544 1381 
L 544 3500 
L 1119 3500 
L 1119 1403 
Q 1119 906 1312 657 
Q 1506 409 1894 409 
Q 2359 409 2629 706 
Q 2900 1003 2900 1516 
L 2900 3500 
L 3475 3500 
L 3475 0 
L 2900 0 
L 2900 538 
Q 2691 219 2414 64 
Q 2138 -91 1772 -91 
Q 1169 -91 856 284 
Q 544 659 544 1381 
z
M 1991 3584 
L 1991 3584 
z
" transform="scale(0.015625)"/>
       <path id="DejaVuSans-72" d="M 2631 2963 
Q 2534 3019 2420 3045 
Q 2306 3072 2169 3072 
Q 1681 3072 1420 2755 
Q 1159 2438 1159 1844 
L 1159 0 
L 581 0 
L 581 3500 
L 1159 3500 
L 1159 2956 
Q 1341 3275 1631 3429 
Q 1922 3584 2338 3584 
Q 2397 3584 2469 3576 
Q 2541 3569 2628 3553 
L 2631 2963 
z
" transform="scale(0.015625)"/>
       <path id="DejaVuSans-61" d="M 2194 1759 
Q 1497 1759 1228 1600 
Q 959 1441 959 1056 
Q 959 750 1161 570 
Q 1363 391 1709 391 
Q 2188 391 2477 730 
Q 2766 1069 2766 1631 
L 2766 1759 
L 2194 1759 
z
M 3341 1997 
L 3341 0 
L 2766 0 
L 2766 531 
Q 2569 213 2275 61 
Q 1981 -91 1556 -91 
Q 1019 -91 701 211 
Q 384 513 384 1019 
Q 384 1609 779 1909 
Q 1175 2209 1959 2209 
L 2766 2209 
L 2766 2266 
Q 2766 2663 2505 2880 
Q 2244 3097 1772 3097 
Q 1472 3097 1187 3025 
Q 903 2953 641 2809 
L 641 3341 
Q 956 3463 1253 3523 
Q 1550 3584 1831 3584 
Q 2591 3584 2966 3190 
Q 3341 2797 3341 1997 
z
" transform="scale(0.015625)"/>
       <path id="DejaVuSans-79" d="M 2059 -325 
Q 1816 -950 1584 -1140 
Q 1353 -1331 966 -1331 
L 506 -1331 
L 506 -850 
L 844 -850 
Q 1081 -850 1212 -737 
Q 1344 -625 1503 -206 
L 1606 56 
L 191 3500 
L 800 3500 
L 1894 763 
L 2988 3500 
L 3597 3500 
L 2059 -325 
z
" transform="scale(0.015625)"/>
      </defs>
      <use xlink:href="#DejaVuSans-41"/>
      <use xlink:href="#DejaVuSans-63" x="66.658203"/>
      <use xlink:href="#DejaVuSans-63" x="121.638672"/>
      <use xlink:href="#DejaVuSans-75" x="176.619141"/>
      <use xlink:href="#DejaVuSans-72" x="239.998047"/>
      <use xlink:href="#DejaVuSans-61" x="281.111328"/>
      <use xlink:href="#DejaVuSans-63" x="342.390625"/>
      <use xlink:href="#DejaVuSans-79" x="397.371094"/>
     </g>
    </g>
   </g>
   <g id="line2d_18">
    <path d="M 73.832727 295.488 
L 74.918528 270.206977 
L 76.00433 250.317919 
L 77.090131 234.376616 
L 78.175932 222.22545 
L 79.261733 212.5595 
L 81.433335 195.269289 
L 84.690739 176.498212 
L 87.948142 162.62059 
L 89.033943 159.306969 
L 90.119745 154.398851 
L 91.205546 152.019935 
L 92.291347 148.559694 
L 94.462949 145.949851 
L 95.54875 178.239329 
L 96.634552 177.143341 
L 97.720353 174.18894 
L 99.891955 167.242799 
L 100.977756 165.252427 
L 104.23516 155.098964 
L 105.320961 155.586477 
L 106.406762 152.115239 
L 107.492563 149.362441 
L 108.578364 147.551679 
L 109.664165 144.93817 
L 110.749967 143.101749 
L 111.835768 140.451586 
L 112.921569 136.822731 
L 114.00737 135.759733 
L 115.093171 134.16157 
L 116.178972 131.46742 
L 117.264773 128.058496 
L 118.350575 128.018175 
L 119.436376 125.521963 
L 120.522177 122.314642 
L 121.607978 121.207658 
L 122.693779 118.623473 
L 123.77958 117.09129 
L 125.951183 111.578363 
L 127.036984 110.98455 
L 128.122785 108.697272 
L 129.208586 107.758901 
L 130.294387 106.263373 
L 131.380189 105.640236 
L 132.46599 103.125696 
L 133.551791 102.238643 
L 134.637592 102.484232 
L 135.723393 101.193973 
L 136.809194 101.043687 
L 137.894995 100.178626 
L 138.980797 138.824099 
L 140.066598 142.911143 
L 141.152399 140.642192 
L 142.2382 140.972088 
L 143.324001 140.656854 
L 145.495604 137.192947 
L 146.581405 137.207609 
L 147.667206 134.649083 
L 148.753007 134.55378 
L 149.838808 133.505444 
L 150.924609 133.289179 
L 152.01041 131.756996 
L 153.096212 130.840618 
L 154.182013 128.776936 
L 155.267814 129.458721 
L 156.353615 128.186789 
L 157.439416 127.358383 
L 158.525217 125.470646 
L 159.611019 125.173739 
L 160.69682 123.535256 
L 161.782621 124.224372 
L 162.868422 121.717163 
L 163.954223 120.925413 
L 165.040024 122.08738 
L 166.125825 120.500214 
L 167.211627 120.151991 
L 168.297428 118.304574 
L 169.383229 118.194608 
L 170.46903 117.157269 
L 171.554831 115.625086 
L 172.640632 113.785 
L 173.726434 113.510086 
L 174.812235 111.765304 
L 175.898036 111.189819 
L 176.983837 111.45007 
L 178.069638 110.123155 
L 179.155439 107.817549 
L 180.24124 107.714915 
L 181.327042 106.464976 
L 182.412843 105.805184 
L 183.498644 104.368304 
L 186.756047 101.219631 
L 187.841849 101.366251 
L 188.92765 99.302569 
L 190.013451 99.05698 
L 191.099252 98.290889 
L 192.185053 96.0366 
L 193.270854 95.7177 
L 194.356656 94.878299 
L 195.442457 93.643022 
L 196.528258 92.129166 
L 197.614059 91.110154 
L 198.69986 90.318404 
L 199.785661 88.405008 
L 200.871462 89.072131 
L 201.957264 86.997452 
L 203.043065 85.380962 
L 205.214667 84.592877 
L 209.557872 79.490487 
L 211.729474 79.307212 
L 212.815275 78.251545 
L 213.901076 77.42314 
L 214.986877 77.778694 
L 216.072679 76.096225 
L 217.15848 75.326468 
L 218.244281 76.327152 
L 219.330082 74.831624 
L 220.415883 75.330133 
L 221.501684 73.962898 
L 222.587486 73.856598 
L 223.673287 74.743652 
L 224.759088 74.344111 
L 225.844889 122.835144 
L 226.93069 127.713938 
L 229.102292 127.098132 
L 230.188094 126.317379 
L 231.273895 124.396651 
L 232.359696 125.071105 
L 233.445497 123.846825 
L 234.531298 123.725863 
L 235.617099 121.69517 
L 236.702901 121.676843 
L 237.788702 121.328619 
L 238.874503 122.010404 
L 239.960304 120.430569 
L 241.046105 121.277302 
L 242.131906 119.924729 
L 243.217708 119.961384 
L 244.303509 118.286246 
L 245.38931 118.084643 
L 246.475111 118.293577 
L 247.560912 118.069981 
L 248.646713 118.491515 
L 249.732514 116.798049 
L 250.818316 116.721073 
L 251.904117 116.178578 
L 252.989918 114.939635 
L 254.075719 115.918327 
L 256.247321 114.162547 
L 257.333123 114.232192 
L 258.418924 113.407452 
L 259.504725 113.759341 
L 260.590526 112.839298 
L 261.676327 112.725667 
L 262.762128 112.381109 
L 263.847929 111.226474 
L 264.933731 111.922921 
L 266.019532 111.428077 
L 267.105333 111.754307 
L 268.191134 110.98455 
L 269.276935 110.727964 
L 270.362736 109.752939 
L 271.448538 110.0865 
L 272.534339 109.485356 
L 273.62014 109.65397 
L 274.705941 109.584325 
L 275.791742 108.033814 
L 276.877543 107.17975 
L 277.963344 107.582957 
L 279.049146 106.985478 
L 280.134947 107.077116 
L 282.306549 105.299344 
L 283.39235 106.457645 
L 284.478151 104.991441 
L 285.563953 104.943789 
L 286.649754 103.97976 
L 287.735555 104.177698 
L 288.821356 103.15502 
L 289.907157 103.085376 
L 290.992958 103.177013 
L 292.07876 102.297291 
L 294.250362 101.193973 
L 295.336163 101.923409 
L 296.421964 100.468202 
L 297.507765 100.60016 
L 298.593566 99.533496 
L 299.679368 99.859727 
L 301.85097 98.51815 
L 302.936771 98.848046 
L 304.022572 96.348168 
L 305.108373 97.744728 
L 306.194175 97.257215 
L 307.279976 96.971305 
L 309.451578 95.666383 
L 310.537379 95.270508 
L 311.62318 94.713351 
L 312.708981 95.094564 
L 313.794783 93.741991 
L 314.880584 94.588723 
L 315.966385 91.714963 
L 317.052186 92.667996 
L 318.137987 93.126185 
L 319.223788 91.069834 
L 320.30959 90.358725 
L 321.395391 90.120467 
L 322.481192 89.233413 
L 323.566993 89.35804 
L 324.652794 88.342694 
L 325.738595 87.866178 
L 326.824396 87.818526 
L 327.910198 86.788518 
L 328.995999 86.44396 
L 330.0818 86.454956 
L 331.167601 85.850147 
L 332.253402 84.875122 
L 333.339203 84.358285 
L 334.425005 84.387609 
L 335.510806 82.503537 
L 336.596607 83.452904 
L 337.682408 83.174325 
L 338.768209 81.851076 
L 340.939811 80.942029 
L 342.025613 79.820383 
L 343.111414 79.354863 
L 344.197215 79.07995 
L 345.283016 78.3945 
L 346.368817 78.049942 
L 347.454618 77.507446 
L 348.54042 76.466441 
L 349.626221 76.008253 
L 350.712022 76.550748 
L 351.797823 75.443764 
L 352.883624 74.871945 
L 353.969425 73.086841 
L 355.055227 72.298757 
L 356.141028 72.082491 
L 358.31263 72.177795 
L 359.398431 72.258436 
L 360.484232 70.315716 
L 361.570033 68.919156 
L 362.655835 69.05478 
L 363.741636 67.881817 
L 364.827437 68.585595 
L 365.913238 68.486626 
L 366.999039 67.350318 
L 368.08484 67.65089 
L 369.170642 70.183757 
L 371.342244 73.174813 
L 372.428045 74.329449 
L 373.513846 74.747317 
L 374.599647 76.136546 
L 375.685448 76.631389 
L 376.77125 76.455445 
L 377.857051 76.767013 
L 378.942852 75.810315 
L 380.028653 75.623374 
L 381.114454 76.550748 
L 383.286057 77.404812 
L 384.371858 76.297828 
L 385.457659 76.356476 
L 386.54346 76.697369 
L 387.629261 78.031614 
L 388.715062 76.521424 
L 389.800863 77.859335 
L 390.886665 77.408478 
L 391.972466 77.379154 
L 393.058267 77.540436 
L 394.144068 76.682707 
L 395.229869 77.162888 
L 397.401472 77.06392 
L 398.487273 77.232533 
L 398.487273 77.232533 
" clip-path="url(#p82ca39fabe)" style="fill: none; stroke: #1f77b4; stroke-width: 1.5; stroke-linecap: square"/>
   </g>
   <g id="line2d_19">
    <path d="M 73.832727 276.907529 
L 74.918528 253.118369 
L 76.00433 224.710666 
L 77.090131 210.671762 
L 78.175932 195.093344 
L 79.261733 186.332775 
L 80.347534 181.824198 
L 81.433335 171.010943 
L 82.519137 161.370652 
L 83.604938 154.112942 
L 84.690739 152.060256 
L 85.77654 146.818577 
L 86.862341 142.823171 
L 87.948142 133.879326 
L 89.033943 128.124475 
L 91.205546 123.249347 
L 92.291347 120.68349 
L 93.377148 120.720145 
L 94.462949 119.877077 
L 95.54875 159.501241 
L 96.634552 149.054538 
L 97.720353 150.557397 
L 98.806154 148.174815 
L 99.891955 142.60324 
L 100.977756 137.911387 
L 102.063557 135.528805 
L 103.149358 130.177161 
L 104.23516 129.480714 
L 105.320961 127.134787 
L 106.406762 121.453247 
L 107.492563 117.971012 
L 108.578364 118.814079 
L 109.664165 115.111914 
L 110.749967 112.582712 
L 111.835768 112.216161 
L 112.921569 109.393719 
L 114.00737 110.456716 
L 115.093171 105.948139 
L 117.264773 104.115384 
L 118.350575 100.633149 
L 119.436376 97.884017 
L 120.522177 96.454468 
L 121.607978 94.511748 
L 122.693779 89.78324 
L 123.77958 89.196758 
L 124.865382 89.306723 
L 125.951183 84.944766 
L 127.036984 85.054732 
L 128.122785 84.32163 
L 129.208586 81.499187 
L 130.294387 80.986015 
L 131.380189 79.703087 
L 132.46599 79.886362 
L 133.551791 78.346848 
L 135.723393 76.807334 
L 136.809194 76.917299 
L 137.894995 77.540436 
L 138.980797 116.724739 
L 140.066598 117.384531 
L 141.152399 114.085571 
L 142.2382 111.922921 
L 143.324001 113.462435 
L 144.409802 111.84961 
L 145.495604 106.131415 
L 146.581405 107.634274 
L 147.667206 110.05351 
L 148.753007 108.25741 
L 149.838808 111.70299 
L 150.924609 105.654898 
L 152.01041 104.115384 
L 153.096212 103.089041 
L 154.182013 102.392594 
L 155.267814 102.759145 
L 156.353615 101.806113 
L 157.439416 102.429249 
L 158.525217 100.816425 
L 159.611019 100.669805 
L 160.69682 97.26088 
L 161.782621 100.413219 
L 162.868422 96.930984 
L 163.954223 96.674399 
L 165.040024 102.429249 
L 166.125825 96.637743 
L 167.211627 93.961921 
L 168.297428 99.680117 
L 169.383229 97.04095 
L 170.46903 89.966515 
L 171.554831 88.06045 
L 172.640632 92.055856 
L 173.726434 90.039825 
L 174.812235 86.814176 
L 176.983837 88.097105 
L 178.069638 82.488875 
L 179.155439 83.771803 
L 180.24124 86.814176 
L 181.327042 84.211664 
L 182.412843 80.509499 
L 183.498644 80.94936 
L 184.584445 80.472844 
L 185.670246 80.619464 
L 186.756047 79.07995 
L 187.841849 78.273538 
L 188.92765 77.760367 
L 190.013451 76.110887 
L 191.099252 75.011234 
L 192.185053 73.728305 
L 193.270854 70.685932 
L 194.356656 70.869208 
L 195.442457 71.968861 
L 196.528258 68.926487 
L 197.614059 70.575967 
L 198.69986 68.23004 
L 199.785661 69.146418 
L 200.871462 66.43394 
L 201.957264 68.963142 
L 203.043065 64.931081 
L 204.128866 62.658465 
L 205.214667 65.297632 
L 206.300468 61.778743 
L 207.386269 62.47519 
L 208.472071 61.008985 
L 209.557872 58.406473 
L 210.643673 59.579437 
L 211.729474 60.532469 
L 212.815275 59.212886 
L 213.901076 56.683684 
L 214.986877 58.479784 
L 216.072679 57.526751 
L 218.244281 58.149888 
L 219.330082 56.720339 
L 220.415883 56.427098 
L 221.501684 56.647028 
L 222.587486 56.280477 
L 223.673287 57.23351 
L 224.759088 56.427098 
L 225.844889 115.845016 
L 226.93069 108.367376 
L 228.016491 109.576994 
L 229.102292 111.226474 
L 230.188094 100.559839 
L 231.273895 104.995106 
L 232.359696 105.838174 
L 233.445497 101.182976 
L 234.531298 104.262004 
L 235.617099 99.203601 
L 236.702901 103.858798 
L 237.788702 102.282629 
L 238.874503 94.658368 
L 239.960304 97.737397 
L 241.046105 92.092511 
L 242.131906 97.370845 
L 243.217708 101.182976 
L 244.303509 97.18757 
L 245.38931 93.961921 
L 246.475111 96.454468 
L 247.560912 99.643462 
L 248.646713 95.46478 
L 249.732514 96.637743 
L 250.818316 92.935578 
L 251.904117 95.428125 
L 252.989918 95.758021 
L 254.075719 97.004294 
L 255.16152 91.249444 
L 256.247321 93.192164 
L 257.333123 94.695023 
L 258.418924 93.082199 
L 259.504725 97.480811 
L 260.590526 99.936703 
L 261.676327 92.605682 
L 262.762128 88.903517 
L 263.847929 96.197882 
L 264.933731 94.438437 
L 266.019532 94.841644 
L 267.105333 91.322754 
L 268.191134 90.992858 
L 269.276935 92.165821 
L 270.362736 89.160103 
L 271.448538 86.924142 
L 272.534339 84.981421 
L 273.62014 85.751179 
L 274.705941 85.054732 
L 276.877543 88.170415 
L 277.963344 89.599964 
L 279.049146 85.457938 
L 281.220748 86.33766 
L 282.306549 83.735148 
L 284.478151 91.65265 
L 286.649754 84.101699 
L 287.735555 86.594246 
L 288.821356 82.635495 
L 289.907157 91.139478 
L 290.992958 87.877174 
L 292.07876 86.814176 
L 293.164561 83.955079 
L 294.250362 82.195634 
L 295.336163 84.798146 
L 297.507765 77.430471 
L 298.593566 79.776397 
L 299.679368 81.792428 
L 300.765169 79.15326 
L 301.85097 83.295287 
L 302.936771 76.514093 
L 304.022572 75.304475 
L 305.108373 80.436189 
L 306.194175 77.393816 
L 307.279976 76.000922 
L 308.365777 81.242601 
L 309.451578 74.864614 
L 310.537379 75.561061 
L 311.62318 74.278132 
L 312.708981 73.838271 
L 313.794783 78.310193 
L 314.880584 77.247195 
L 315.966385 72.078826 
L 317.052186 74.644683 
L 319.223788 70.392691 
L 321.395391 71.60231 
L 322.481192 75.48775 
L 323.566993 71.419034 
L 324.652794 72.188791 
L 325.738595 67.020422 
L 327.910198 67.093732 
L 328.995999 67.716869 
L 330.0818 67.203698 
L 332.253402 64.197979 
L 333.339203 67.716869 
L 334.425005 67.716869 
L 335.510806 65.737493 
L 336.596607 65.810804 
L 337.682408 64.41791 
L 338.768209 66.837147 
L 339.85401 63.354912 
L 340.939811 64.41791 
L 342.025613 60.862365 
L 343.111414 60.605779 
L 344.197215 63.281602 
L 345.283016 62.071983 
L 346.368817 61.228916 
L 347.454618 57.196855 
L 348.54042 60.532469 
L 349.626221 58.9563 
L 350.712022 60.605779 
L 351.797823 60.165918 
L 352.883624 58.809679 
L 353.969425 59.066265 
L 355.055227 58.479784 
L 357.226829 55.620686 
L 358.31263 56.280477 
L 359.398431 56.243822 
L 360.484232 55.840616 
L 361.570033 53.971206 
L 362.655835 55.29079 
L 363.741636 54.777618 
L 364.827437 53.568 
L 365.913238 55.21748 
L 366.999039 53.971206 
L 368.08484 56.133857 
L 370.256443 56.647028 
L 371.342244 58.113233 
L 372.428045 60.239228 
L 373.513846 61.082296 
L 374.599647 60.092608 
L 375.685448 63.574843 
L 376.77125 63.208292 
L 377.857051 61.668777 
L 378.942852 61.925363 
L 380.028653 59.836022 
L 381.114454 60.092608 
L 383.286057 62.841741 
L 384.371858 64.161324 
L 385.457659 63.061671 
L 386.54346 62.365224 
L 387.629261 64.56453 
L 388.715062 62.988361 
L 389.800863 62.108638 
L 390.886665 60.422504 
L 391.972466 59.212886 
L 393.058267 62.328569 
L 394.144068 62.951706 
L 395.229869 61.338881 
L 396.31567 61.192261 
L 397.401472 60.202573 
L 398.487273 61.888708 
L 398.487273 61.888708 
" clip-path="url(#p82ca39fabe)" style="fill: none; stroke: #ff7f0e; stroke-width: 1.5; stroke-linecap: square"/>
   </g>
   <g id="line2d_20">
    <path d="M 73.832727 291.095619 
L 74.918528 280.908067 
L 76.00433 258.384241 
L 77.090131 253.252527 
L 78.175932 249.13176 
L 79.261733 246.072892 
L 80.347534 244.480228 
L 81.433335 243.519864 
L 82.519137 237.199792 
L 83.604938 233.129976 
L 84.690739 224.636256 
L 85.77654 222.740088 
L 86.862341 222.133446 
L 87.948142 221.248592 
L 89.033943 215.611404 
L 90.119745 216.369798 
L 91.205546 213.993447 
L 92.291347 212.577827 
L 93.377148 210.530273 
L 94.462949 210.226769 
L 95.54875 239.146544 
L 96.634552 226.911072 
L 97.720353 228.453152 
L 98.806154 225.369358 
L 99.891955 221.020963 
L 100.977756 224.332752 
L 102.063557 225.950708 
L 103.149358 221.046255 
L 104.23516 217.153484 
L 105.320961 215.383775 
L 106.406762 209.443083 
L 107.492563 208.912317 
L 108.578364 208.255091 
L 109.664165 207.850419 
L 110.749967 208.052755 
L 111.835768 210.530273 
L 112.921569 207.294361 
L 114.00737 207.269069 
L 115.093171 203.982939 
L 116.178972 204.008231 
L 117.264773 207.825127 
L 118.350575 199.761005 
L 119.436376 198.395969 
L 120.522177 202.137355 
L 121.607978 201.581297 
L 122.693779 198.244583 
L 123.77958 196.247247 
L 124.865382 196.297831 
L 125.951183 192.809365 
L 127.036984 193.112869 
L 128.122785 187.374147 
L 129.208586 192.101555 
L 130.294387 191.545497 
L 131.380189 187.348855 
L 132.46599 189.219731 
L 133.551791 188.865643 
L 134.637592 189.649329 
L 135.723393 188.562505 
L 136.809194 188.714257 
L 137.894995 187.879873 
L 138.980797 216.268617 
L 140.066598 215.763029 
L 141.152399 209.771816 
L 142.2382 208.583685 
L 143.324001 211.66777 
L 144.409802 202.845266 
L 145.495604 210.403801 
L 146.581405 211.440255 
L 147.667206 207.648348 
L 148.753007 212.653666 
L 149.838808 213.184533 
L 150.924609 206.536056 
L 152.01041 207.243878 
L 153.096212 201.4549 
L 154.182013 200.544843 
L 155.267814 202.466075 
L 156.353615 205.651277 
L 158.525217 202.415517 
L 159.611019 207.521951 
L 160.69682 198.800565 
L 161.782621 203.047501 
L 162.868422 204.083956 
L 163.954223 201.05043 
L 165.040024 201.935208 
L 166.125825 199.609506 
L 167.211627 195.817599 
L 168.297428 205.727115 
L 169.383229 206.081027 
L 170.46903 195.893437 
L 171.554831 184.214363 
L 172.640632 205.802954 
L 173.726434 196.247348 
L 174.812235 195.74176 
L 175.898036 196.727656 
L 176.983837 204.083956 
L 178.069638 196.474862 
L 179.155439 197.435479 
L 180.24124 198.648889 
L 181.327042 192.379603 
L 182.412843 189.042725 
L 183.498644 183.784614 
L 184.584445 189.674709 
L 185.670246 186.79286 
L 186.756047 180.321339 
L 187.841849 190.129738 
L 188.92765 187.19733 
L 190.013451 180.473015 
L 191.099252 183.860452 
L 192.185053 186.514787 
L 193.270854 186.034479 
L 194.356656 180.877485 
L 195.442457 185.478332 
L 196.528258 178.577061 
L 197.614059 182.823997 
L 198.69986 178.22315 
L 199.785661 178.678179 
L 200.871462 180.043266 
L 201.957264 182.192013 
L 203.043065 177.515328 
L 204.128866 175.442418 
L 205.214667 176.251359 
L 206.300468 170.209587 
L 207.386269 173.571744 
L 208.472071 173.470627 
L 209.557872 172.434172 
L 210.643673 172.383613 
L 213.901076 171.827467 
L 214.986877 173.31895 
L 216.072679 171.448276 
L 217.15848 171.751629 
L 218.244281 173.293671 
L 219.330082 174.026773 
L 220.415883 171.043806 
L 221.501684 171.448276 
L 222.587486 170.689895 
L 223.673287 172.737525 
L 224.759088 170.032631 
L 225.844889 215.813588 
L 226.93069 207.521951 
L 228.016491 218.973511 
L 229.102292 203.831162 
L 230.188094 206.182144 
L 231.273895 206.081027 
L 232.359696 204.058676 
L 233.445497 204.71594 
L 234.531298 198.825845 
L 235.617099 203.401413 
L 236.702901 213.159253 
L 237.788702 198.446654 
L 238.874503 198.573051 
L 239.960304 211.162182 
L 241.046105 191.444266 
L 242.131906 203.907 
L 243.217708 214.347384 
L 244.303509 200.317328 
L 245.38931 203.730044 
L 246.475111 203.982838 
L 247.560912 212.426151 
L 248.646713 200.216211 
L 249.732514 199.103918 
L 250.818316 192.025692 
L 251.904117 206.510776 
L 252.989918 194.882262 
L 254.075719 199.634785 
L 255.16152 195.893437 
L 256.247321 204.185073 
L 257.333123 196.677097 
L 258.418924 203.578368 
L 259.504725 202.213282 
L 260.590526 216.521411 
L 261.676327 202.718869 
L 262.762128 192.379603 
L 263.847929 191.29259 
L 264.933731 204.867617 
L 266.019532 206.384379 
L 267.105333 198.042184 
L 268.191134 201.379062 
L 269.276935 197.966346 
L 270.362736 195.387849 
L 271.448538 191.621221 
L 272.534339 184.669392 
L 273.62014 196.752936 
L 274.705941 190.129738 
L 275.791742 198.294978 
L 276.877543 203.300295 
L 277.963344 196.854053 
L 279.049146 186.868698 
L 280.134947 195.084497 
L 281.220748 194.755865 
L 282.306549 195.76704 
L 283.39235 192.961029 
L 284.478151 203.022222 
L 285.563953 195.615364 
L 286.649754 195.665922 
L 287.735555 197.81467 
L 288.821356 192.935749 
L 289.907157 198.345537 
L 290.992958 195.792319 
L 292.07876 188.107388 
L 293.164561 187.374286 
L 294.250362 191.722339 
L 295.336163 192.506 
L 296.421964 200.595401 
L 297.507765 187.020374 
L 298.593566 183.228467 
L 299.679368 196.196789 
L 300.765169 181.231396 
L 301.85097 189.017445 
L 302.936771 185.604729 
L 304.022572 181.206117 
L 305.108373 193.643572 
L 306.194175 189.927503 
L 307.279976 187.500683 
L 308.365777 201.707694 
L 309.451578 184.492436 
L 310.537379 188.865769 
L 311.62318 195.640643 
L 312.708981 184.871627 
L 313.794783 187.551241 
L 314.880584 194.275556 
L 315.966385 187.930432 
L 317.052186 176.17552 
L 318.137987 186.413669 
L 319.223788 191.545383 
L 320.30959 178.754017 
L 322.481192 189.017445 
L 323.566993 182.950394 
L 324.652794 186.135596 
L 325.738595 185.882802 
L 326.824396 180.321339 
L 327.910198 182.090895 
L 328.995999 178.172591 
L 330.0818 171.271321 
L 331.167601 179.512399 
L 332.253402 171.170203 
L 333.339203 172.965039 
L 334.425005 186.944536 
L 335.510806 173.672862 
L 336.596607 176.301917 
L 337.682408 180.017986 
L 338.768209 191.191472 
L 339.85401 175.669933 
L 340.939811 181.104999 
L 342.025613 172.889201 
L 343.111414 173.31895 
L 344.197215 181.787543 
L 345.283016 173.495906 
L 346.368817 175.492977 
L 347.454618 172.054981 
L 348.54042 177.667004 
L 349.626221 172.054981 
L 350.712022 180.447736 
L 351.797823 174.582919 
L 352.883624 172.358334 
L 353.969425 163.662227 
L 355.055227 172.13082 
L 356.141028 173.116715 
L 357.226829 168.642265 
L 358.31263 176.251359 
L 359.398431 168.667545 
L 360.484232 169.046735 
L 361.570033 167.580531 
L 362.655835 171.827467 
L 363.741636 170.89213 
L 364.827437 163.915021 
L 365.913238 173.849817 
L 366.999039 163.207199 
L 368.08484 171.448276 
L 369.170642 175.36658 
L 370.256443 169.552323 
L 371.342244 173.091436 
L 372.428045 173.31895 
L 373.513846 177.388931 
L 374.599647 165.735136 
L 375.685448 177.464769 
L 376.77125 181.029161 
L 377.857051 174.15317 
L 378.942852 172.484731 
L 380.028653 170.361263 
L 381.114454 173.116715 
L 382.200255 174.532361 
L 383.286057 182.343689 
L 384.371858 186.38839 
L 385.457659 172.712245 
L 386.54346 175.948006 
L 387.629261 180.877485 
L 388.715062 176.251359 
L 389.800863 178.020915 
L 390.886665 176.655829 
L 391.972466 170.942689 
L 393.058267 172.91448 
L 394.144068 176.17552 
L 395.229869 173.799259 
L 396.31567 177.869239 
L 397.401472 172.434172 
L 398.487273 182.596483 
L 398.487273 182.596483 
" clip-path="url(#p82ca39fabe)" style="fill: none; stroke: #2ca02c; stroke-width: 1.5; stroke-linecap: square"/>
   </g>
   <g id="line2d_21">
    <path d="M 368.08484 54.704308 
L 369.170642 55.987237 
L 370.256443 57.490096 
L 371.342244 58.516439 
L 373.513846 62.218604 
L 374.599647 63.611498 
L 375.685448 61.485502 
L 376.77125 64.711151 
L 377.857051 61.045641 
L 380.028653 66.837147 
L 381.114454 74.168167 
L 383.286057 68.486626 
L 384.371858 66.837147 
L 385.457659 69.622934 
L 386.54346 67.277008 
L 387.629261 66.104044 
L 388.715062 68.816522 
L 389.800863 68.853177 
L 390.886665 62.47519 
L 391.972466 67.826834 
L 393.058267 80.766085 
L 394.144068 72.775273 
L 395.229869 79.373191 
L 396.31567 77.027265 
L 397.401472 78.383503 
L 398.487273 84.175009 
L 398.487273 84.175009 
" clip-path="url(#p82ca39fabe)" style="fill: none; stroke: #d62728; stroke-width: 1.5; stroke-linecap: square"/>
   </g>
   <g id="line2d_22">
    <path d="M 368.08484 166.518797 
L 369.170642 167.985001 
L 370.256443 175.695212 
L 371.342244 174.330126 
L 372.428045 180.902764 
L 373.513846 174.279567 
L 374.599647 180.928044 
L 375.685448 177.742842 
L 376.77125 190.837561 
L 377.857051 172.661687 
L 378.942852 195.413128 
L 380.028653 193.593013 
L 381.114454 201.429621 
L 382.200255 201.100989 
L 383.286057 195.943995 
L 384.371858 181.812822 
L 385.457659 182.242572 
L 386.54346 191.772898 
L 387.629261 190.407811 
L 388.715062 186.868698 
L 389.800863 191.772898 
L 390.886665 181.003882 
L 391.972466 192.657676 
L 393.058267 213.235091 
L 394.144068 194.755865 
L 395.229869 206.839408 
L 396.31567 187.930432 
L 397.401472 197.713552 
L 398.487273 194.781144 
L 398.487273 194.781144 
" clip-path="url(#p82ca39fabe)" style="fill: none; stroke: #9467bd; stroke-width: 1.5; stroke-linecap: square"/>
   </g>
   <g id="patch_3">
    <path d="M 57.6 307.584 
L 57.6 41.472 
" style="fill: none; stroke: #000000; stroke-width: 0.8; stroke-linejoin: miter; stroke-linecap: square"/>
   </g>
   <g id="patch_4">
    <path d="M 414.72 307.584 
L 414.72 41.472 
" style="fill: none; stroke: #000000; stroke-width: 0.8; stroke-linejoin: miter; stroke-linecap: square"/>
   </g>
   <g id="patch_5">
    <path d="M 57.6 307.584 
L 414.72 307.584 
" style="fill: none; stroke: #000000; stroke-width: 0.8; stroke-linejoin: miter; stroke-linecap: square"/>
   </g>
   <g id="patch_6">
    <path d="M 57.6 41.472 
L 414.72 41.472 
" style="fill: none; stroke: #000000; stroke-width: 0.8; stroke-linejoin: miter; stroke-linecap: square"/>
   </g>
   <g id="text_20">
    <!-- Learning Curves -->
    <g transform="translate(187.37625 35.472) scale(0.12 -0.12)">
     <defs>
      <path id="DejaVuSans-4c" d="M 628 4666 
L 1259 4666 
L 1259 531 
L 3531 531 
L 3531 0 
L 628 0 
L 628 4666 
z
" transform="scale(0.015625)"/>
      <path id="DejaVuSans-65" d="M 3597 1894 
L 3597 1613 
L 953 1613 
Q 991 1019 1311 708 
Q 1631 397 2203 397 
Q 2534 397 2845 478 
Q 3156 559 3463 722 
L 3463 178 
Q 3153 47 2828 -22 
Q 2503 -91 2169 -91 
Q 1331 -91 842 396 
Q 353 884 353 1716 
Q 353 2575 817 3079 
Q 1281 3584 2069 3584 
Q 2775 3584 3186 3129 
Q 3597 2675 3597 1894 
z
M 3022 2063 
Q 3016 2534 2758 2815 
Q 2500 3097 2075 3097 
Q 1594 3097 1305 2825 
Q 1016 2553 972 2059 
L 3022 2063 
z
" transform="scale(0.015625)"/>
      <path id="DejaVuSans-6e" d="M 3513 2113 
L 3513 0 
L 2938 0 
L 2938 2094 
Q 2938 2591 2744 2837 
Q 2550 3084 2163 3084 
Q 1697 3084 1428 2787 
Q 1159 2491 1159 1978 
L 1159 0 
L 581 0 
L 581 3500 
L 1159 3500 
L 1159 2956 
Q 1366 3272 1645 3428 
Q 1925 3584 2291 3584 
Q 2894 3584 3203 3211 
Q 3513 2838 3513 2113 
z
" transform="scale(0.015625)"/>
      <path id="DejaVuSans-69" d="M 603 3500 
L 1178 3500 
L 1178 0 
L 603 0 
L 603 3500 
z
M 603 4863 
L 1178 4863 
L 1178 4134 
L 603 4134 
L 603 4863 
z
" transform="scale(0.015625)"/>
      <path id="DejaVuSans-67" d="M 2906 1791 
Q 2906 2416 2648 2759 
Q 2391 3103 1925 3103 
Q 1463 3103 1205 2759 
Q 947 2416 947 1791 
Q 947 1169 1205 825 
Q 1463 481 1925 481 
Q 2391 481 2648 825 
Q 2906 1169 2906 1791 
z
M 3481 434 
Q 3481 -459 3084 -895 
Q 2688 -1331 1869 -1331 
Q 1566 -1331 1297 -1286 
Q 1028 -1241 775 -1147 
L 775 -588 
Q 1028 -725 1275 -790 
Q 1522 -856 1778 -856 
Q 2344 -856 2625 -561 
Q 2906 -266 2906 331 
L 2906 616 
Q 2728 306 2450 153 
Q 2172 0 1784 0 
Q 1141 0 747 490 
Q 353 981 353 1791 
Q 353 2603 747 3093 
Q 1141 3584 1784 3584 
Q 2172 3584 2450 3431 
Q 2728 3278 2906 2969 
L 2906 3500 
L 3481 3500 
L 3481 434 
z
" transform="scale(0.015625)"/>
      <path id="DejaVuSans-20" transform="scale(0.015625)"/>
      <path id="DejaVuSans-43" d="M 4122 4306 
L 4122 3641 
Q 3803 3938 3442 4084 
Q 3081 4231 2675 4231 
Q 1875 4231 1450 3742 
Q 1025 3253 1025 2328 
Q 1025 1406 1450 917 
Q 1875 428 2675 428 
Q 3081 428 3442 575 
Q 3803 722 4122 1019 
L 4122 359 
Q 3791 134 3420 21 
Q 3050 -91 2638 -91 
Q 1578 -91 968 557 
Q 359 1206 359 2328 
Q 359 3453 968 4101 
Q 1578 4750 2638 4750 
Q 3056 4750 3426 4639 
Q 3797 4528 4122 4306 
z
" transform="scale(0.015625)"/>
      <path id="DejaVuSans-76" d="M 191 3500 
L 800 3500 
L 1894 563 
L 2988 3500 
L 3597 3500 
L 2284 0 
L 1503 0 
L 191 3500 
z
" transform="scale(0.015625)"/>
     </defs>
     <use xlink:href="#DejaVuSans-4c"/>
     <use xlink:href="#DejaVuSans-65" x="53.962891"/>
     <use xlink:href="#DejaVuSans-61" x="115.486328"/>
     <use xlink:href="#DejaVuSans-72" x="176.765625"/>
     <use xlink:href="#DejaVuSans-6e" x="216.128906"/>
     <use xlink:href="#DejaVuSans-69" x="279.507812"/>
     <use xlink:href="#DejaVuSans-6e" x="307.291016"/>
     <use xlink:href="#DejaVuSans-67" x="370.669922"/>
     <use xlink:href="#DejaVuSans-20" x="434.146484"/>
     <use xlink:href="#DejaVuSans-43" x="465.933594"/>
     <use xlink:href="#DejaVuSans-75" x="535.757812"/>
     <use xlink:href="#DejaVuSans-72" x="599.136719"/>
     <use xlink:href="#DejaVuSans-76" x="640.25"/>
     <use xlink:href="#DejaVuSans-65" x="699.429688"/>
     <use xlink:href="#DejaVuSans-73" x="760.953125"/>
    </g>
   </g>
   <g id="legend_1">
    <g id="patch_7">
     <path d="M 214.18875 302.584 
L 407.72 302.584 
Q 409.72 302.584 409.72 300.584 
L 409.72 228.193375 
Q 409.72 226.193375 407.72 226.193375 
L 214.18875 226.193375 
Q 212.18875 226.193375 212.18875 228.193375 
L 212.18875 300.584 
Q 212.18875 302.584 214.18875 302.584 
z
" style="fill: #ffffff; opacity: 0.8; stroke: #cccccc; stroke-linejoin: miter"/>
    </g>
    <g id="line2d_23">
     <path d="M 216.18875 234.291812 
L 226.18875 234.291812 
L 236.18875 234.291812 
" style="fill: none; stroke: #1f77b4; stroke-width: 1.5; stroke-linecap: square"/>
    </g>
    <g id="text_21">
     <!-- Train Accuracy -->
     <g transform="translate(244.18875 237.791812) scale(0.1 -0.1)">
      <defs>
       <path id="DejaVuSans-54" d="M -19 4666 
L 3928 4666 
L 3928 4134 
L 2272 4134 
L 2272 0 
L 1638 0 
L 1638 4134 
L -19 4134 
L -19 4666 
z
" transform="scale(0.015625)"/>
      </defs>
      <use xlink:href="#DejaVuSans-54"/>
      <use xlink:href="#DejaVuSans-72" x="46.333984"/>
      <use xlink:href="#DejaVuSans-61" x="87.447266"/>
      <use xlink:href="#DejaVuSans-69" x="148.726562"/>
      <use xlink:href="#DejaVuSans-6e" x="176.509766"/>
      <use xlink:href="#DejaVuSans-20" x="239.888672"/>
      <use xlink:href="#DejaVuSans-41" x="271.675781"/>
      <use xlink:href="#DejaVuSans-63" x="338.333984"/>
      <use xlink:href="#DejaVuSans-63" x="393.314453"/>
      <use xlink:href="#DejaVuSans-75" x="448.294922"/>
      <use xlink:href="#DejaVuSans-72" x="511.673828"/>
      <use xlink:href="#DejaVuSans-61" x="552.787109"/>
      <use xlink:href="#DejaVuSans-63" x="614.066406"/>
      <use xlink:href="#DejaVuSans-79" x="669.046875"/>
     </g>
    </g>
    <g id="line2d_24">
     <path d="M 216.18875 248.969937 
L 226.18875 248.969937 
L 236.18875 248.969937 
" style="fill: none; stroke: #ff7f0e; stroke-width: 1.5; stroke-linecap: square"/>
    </g>
    <g id="text_22">
     <!-- Validation Accuracy -->
     <g transform="translate(244.18875 252.469937) scale(0.1 -0.1)">
      <defs>
       <path id="DejaVuSans-56" d="M 1831 0 
L 50 4666 
L 709 4666 
L 2188 738 
L 3669 4666 
L 4325 4666 
L 2547 0 
L 1831 0 
z
" transform="scale(0.015625)"/>
       <path id="DejaVuSans-6c" d="M 603 4863 
L 1178 4863 
L 1178 0 
L 603 0 
L 603 4863 
z
" transform="scale(0.015625)"/>
       <path id="DejaVuSans-64" d="M 2906 2969 
L 2906 4863 
L 3481 4863 
L 3481 0 
L 2906 0 
L 2906 525 
Q 2725 213 2448 61 
Q 2172 -91 1784 -91 
Q 1150 -91 751 415 
Q 353 922 353 1747 
Q 353 2572 751 3078 
Q 1150 3584 1784 3584 
Q 2172 3584 2448 3432 
Q 2725 3281 2906 2969 
z
M 947 1747 
Q 947 1113 1208 752 
Q 1469 391 1925 391 
Q 2381 391 2643 752 
Q 2906 1113 2906 1747 
Q 2906 2381 2643 2742 
Q 2381 3103 1925 3103 
Q 1469 3103 1208 2742 
Q 947 2381 947 1747 
z
" transform="scale(0.015625)"/>
       <path id="DejaVuSans-74" d="M 1172 4494 
L 1172 3500 
L 2356 3500 
L 2356 3053 
L 1172 3053 
L 1172 1153 
Q 1172 725 1289 603 
Q 1406 481 1766 481 
L 2356 481 
L 2356 0 
L 1766 0 
Q 1100 0 847 248 
Q 594 497 594 1153 
L 594 3053 
L 172 3053 
L 172 3500 
L 594 3500 
L 594 4494 
L 1172 4494 
z
" transform="scale(0.015625)"/>
      </defs>
      <use xlink:href="#DejaVuSans-56"/>
      <use xlink:href="#DejaVuSans-61" x="60.658203"/>
      <use xlink:href="#DejaVuSans-6c" x="121.9375"/>
      <use xlink:href="#DejaVuSans-69" x="149.720703"/>
      <use xlink:href="#DejaVuSans-64" x="177.503906"/>
      <use xlink:href="#DejaVuSans-61" x="240.980469"/>
      <use xlink:href="#DejaVuSans-74" x="302.259766"/>
      <use xlink:href="#DejaVuSans-69" x="341.46875"/>
      <use xlink:href="#DejaVuSans-6f" x="369.251953"/>
      <use xlink:href="#DejaVuSans-6e" x="430.433594"/>
      <use xlink:href="#DejaVuSans-20" x="493.8125"/>
      <use xlink:href="#DejaVuSans-41" x="525.599609"/>
      <use xlink:href="#DejaVuSans-63" x="592.257812"/>
      <use xlink:href="#DejaVuSans-63" x="647.238281"/>
      <use xlink:href="#DejaVuSans-75" x="702.21875"/>
      <use xlink:href="#DejaVuSans-72" x="765.597656"/>
      <use xlink:href="#DejaVuSans-61" x="806.710938"/>
      <use xlink:href="#DejaVuSans-63" x="867.990234"/>
      <use xlink:href="#DejaVuSans-79" x="922.970703"/>
     </g>
    </g>
    <g id="line2d_25">
     <path d="M 216.18875 263.648062 
L 226.18875 263.648062 
L 236.18875 263.648062 
" style="fill: none; stroke: #2ca02c; stroke-width: 1.5; stroke-linecap: square"/>
    </g>
    <g id="text_23">
     <!-- Robust Validation Accuracy -->
     <g transform="translate(244.18875 267.148062) scale(0.1 -0.1)">
      <defs>
       <path id="DejaVuSans-52" d="M 2841 2188 
Q 3044 2119 3236 1894 
Q 3428 1669 3622 1275 
L 4263 0 
L 3584 0 
L 2988 1197 
Q 2756 1666 2539 1819 
Q 2322 1972 1947 1972 
L 1259 1972 
L 1259 0 
L 628 0 
L 628 4666 
L 2053 4666 
Q 2853 4666 3247 4331 
Q 3641 3997 3641 3322 
Q 3641 2881 3436 2590 
Q 3231 2300 2841 2188 
z
M 1259 4147 
L 1259 2491 
L 2053 2491 
Q 2509 2491 2742 2702 
Q 2975 2913 2975 3322 
Q 2975 3731 2742 3939 
Q 2509 4147 2053 4147 
L 1259 4147 
z
" transform="scale(0.015625)"/>
       <path id="DejaVuSans-62" d="M 3116 1747 
Q 3116 2381 2855 2742 
Q 2594 3103 2138 3103 
Q 1681 3103 1420 2742 
Q 1159 2381 1159 1747 
Q 1159 1113 1420 752 
Q 1681 391 2138 391 
Q 2594 391 2855 752 
Q 3116 1113 3116 1747 
z
M 1159 2969 
Q 1341 3281 1617 3432 
Q 1894 3584 2278 3584 
Q 2916 3584 3314 3078 
Q 3713 2572 3713 1747 
Q 3713 922 3314 415 
Q 2916 -91 2278 -91 
Q 1894 -91 1617 61 
Q 1341 213 1159 525 
L 1159 0 
L 581 0 
L 581 4863 
L 1159 4863 
L 1159 2969 
z
" transform="scale(0.015625)"/>
      </defs>
      <use xlink:href="#DejaVuSans-52"/>
      <use xlink:href="#DejaVuSans-6f" x="64.982422"/>
      <use xlink:href="#DejaVuSans-62" x="126.164062"/>
      <use xlink:href="#DejaVuSans-75" x="189.640625"/>
      <use xlink:href="#DejaVuSans-73" x="253.019531"/>
      <use xlink:href="#DejaVuSans-74" x="305.119141"/>
      <use xlink:href="#DejaVuSans-20" x="344.328125"/>
      <use xlink:href="#DejaVuSans-56" x="376.115234"/>
      <use xlink:href="#DejaVuSans-61" x="436.773438"/>
      <use xlink:href="#DejaVuSans-6c" x="498.052734"/>
      <use xlink:href="#DejaVuSans-69" x="525.835938"/>
      <use xlink:href="#DejaVuSans-64" x="553.619141"/>
      <use xlink:href="#DejaVuSans-61" x="617.095703"/>
      <use xlink:href="#DejaVuSans-74" x="678.375"/>
      <use xlink:href="#DejaVuSans-69" x="717.583984"/>
      <use xlink:href="#DejaVuSans-6f" x="745.367188"/>
      <use xlink:href="#DejaVuSans-6e" x="806.548828"/>
      <use xlink:href="#DejaVuSans-20" x="869.927734"/>
      <use xlink:href="#DejaVuSans-41" x="901.714844"/>
      <use xlink:href="#DejaVuSans-63" x="968.373047"/>
      <use xlink:href="#DejaVuSans-63" x="1023.353516"/>
      <use xlink:href="#DejaVuSans-75" x="1078.333984"/>
      <use xlink:href="#DejaVuSans-72" x="1141.712891"/>
      <use xlink:href="#DejaVuSans-61" x="1182.826172"/>
      <use xlink:href="#DejaVuSans-63" x="1244.105469"/>
      <use xlink:href="#DejaVuSans-79" x="1299.085938"/>
     </g>
    </g>
    <g id="line2d_26">
     <path d="M 216.18875 278.326188 
L 226.18875 278.326188 
L 236.18875 278.326188 
" style="fill: none; stroke: #d62728; stroke-width: 1.5; stroke-linecap: square"/>
    </g>
    <g id="text_24">
     <!-- SWA Validation Accuracy -->
     <g transform="translate(244.18875 281.826188) scale(0.1 -0.1)">
      <defs>
       <path id="DejaVuSans-53" d="M 3425 4513 
L 3425 3897 
Q 3066 4069 2747 4153 
Q 2428 4238 2131 4238 
Q 1616 4238 1336 4038 
Q 1056 3838 1056 3469 
Q 1056 3159 1242 3001 
Q 1428 2844 1947 2747 
L 2328 2669 
Q 3034 2534 3370 2195 
Q 3706 1856 3706 1288 
Q 3706 609 3251 259 
Q 2797 -91 1919 -91 
Q 1588 -91 1214 -16 
Q 841 59 441 206 
L 441 856 
Q 825 641 1194 531 
Q 1563 422 1919 422 
Q 2459 422 2753 634 
Q 3047 847 3047 1241 
Q 3047 1584 2836 1778 
Q 2625 1972 2144 2069 
L 1759 2144 
Q 1053 2284 737 2584 
Q 422 2884 422 3419 
Q 422 4038 858 4394 
Q 1294 4750 2059 4750 
Q 2388 4750 2728 4690 
Q 3069 4631 3425 4513 
z
" transform="scale(0.015625)"/>
       <path id="DejaVuSans-57" d="M 213 4666 
L 850 4666 
L 1831 722 
L 2809 4666 
L 3519 4666 
L 4500 722 
L 5478 4666 
L 6119 4666 
L 4947 0 
L 4153 0 
L 3169 4050 
L 2175 0 
L 1381 0 
L 213 4666 
z
" transform="scale(0.015625)"/>
      </defs>
      <use xlink:href="#DejaVuSans-53"/>
      <use xlink:href="#DejaVuSans-57" x="63.476562"/>
      <use xlink:href="#DejaVuSans-41" x="156.853516"/>
      <use xlink:href="#DejaVuSans-20" x="225.261719"/>
      <use xlink:href="#DejaVuSans-56" x="257.048828"/>
      <use xlink:href="#DejaVuSans-61" x="317.707031"/>
      <use xlink:href="#DejaVuSans-6c" x="378.986328"/>
      <use xlink:href="#DejaVuSans-69" x="406.769531"/>
      <use xlink:href="#DejaVuSans-64" x="434.552734"/>
      <use xlink:href="#DejaVuSans-61" x="498.029297"/>
      <use xlink:href="#DejaVuSans-74" x="559.308594"/>
      <use xlink:href="#DejaVuSans-69" x="598.517578"/>
      <use xlink:href="#DejaVuSans-6f" x="626.300781"/>
      <use xlink:href="#DejaVuSans-6e" x="687.482422"/>
      <use xlink:href="#DejaVuSans-20" x="750.861328"/>
      <use xlink:href="#DejaVuSans-41" x="782.648438"/>
      <use xlink:href="#DejaVuSans-63" x="849.306641"/>
      <use xlink:href="#DejaVuSans-63" x="904.287109"/>
      <use xlink:href="#DejaVuSans-75" x="959.267578"/>
      <use xlink:href="#DejaVuSans-72" x="1022.646484"/>
      <use xlink:href="#DejaVuSans-61" x="1063.759766"/>
      <use xlink:href="#DejaVuSans-63" x="1125.039062"/>
      <use xlink:href="#DejaVuSans-79" x="1180.019531"/>
     </g>
    </g>
    <g id="line2d_27">
     <path d="M 216.18875 293.004312 
L 226.18875 293.004312 
L 236.18875 293.004312 
" style="fill: none; stroke: #9467bd; stroke-width: 1.5; stroke-linecap: square"/>
    </g>
    <g id="text_25">
     <!-- SWA Robust Validation Accuracy -->
     <g transform="translate(244.18875 296.504312) scale(0.1 -0.1)">
      <use xlink:href="#DejaVuSans-53"/>
      <use xlink:href="#DejaVuSans-57" x="63.476562"/>
      <use xlink:href="#DejaVuSans-41" x="156.853516"/>
      <use xlink:href="#DejaVuSans-20" x="225.261719"/>
      <use xlink:href="#DejaVuSans-52" x="257.048828"/>
      <use xlink:href="#DejaVuSans-6f" x="322.03125"/>
      <use xlink:href="#DejaVuSans-62" x="383.212891"/>
      <use xlink:href="#DejaVuSans-75" x="446.689453"/>
      <use xlink:href="#DejaVuSans-73" x="510.068359"/>
      <use xlink:href="#DejaVuSans-74" x="562.167969"/>
      <use xlink:href="#DejaVuSans-20" x="601.376953"/>
      <use xlink:href="#DejaVuSans-56" x="633.164062"/>
      <use xlink:href="#DejaVuSans-61" x="693.822266"/>
      <use xlink:href="#DejaVuSans-6c" x="755.101562"/>
      <use xlink:href="#DejaVuSans-69" x="782.884766"/>
      <use xlink:href="#DejaVuSans-64" x="810.667969"/>
      <use xlink:href="#DejaVuSans-61" x="874.144531"/>
      <use xlink:href="#DejaVuSans-74" x="935.423828"/>
      <use xlink:href="#DejaVuSans-69" x="974.632812"/>
      <use xlink:href="#DejaVuSans-6f" x="1002.416016"/>
      <use xlink:href="#DejaVuSans-6e" x="1063.597656"/>
      <use xlink:href="#DejaVuSans-20" x="1126.976562"/>
      <use xlink:href="#DejaVuSans-41" x="1158.763672"/>
      <use xlink:href="#DejaVuSans-63" x="1225.421875"/>
      <use xlink:href="#DejaVuSans-63" x="1280.402344"/>
      <use xlink:href="#DejaVuSans-75" x="1335.382812"/>
      <use xlink:href="#DejaVuSans-72" x="1398.761719"/>
      <use xlink:href="#DejaVuSans-61" x="1439.875"/>
      <use xlink:href="#DejaVuSans-63" x="1501.154297"/>
      <use xlink:href="#DejaVuSans-79" x="1556.134766"/>
     </g>
    </g>
   </g>
  </g>
 </g>
 <defs>
  <clipPath id="p82ca39fabe">
   <rect x="57.6" y="41.472" width="357.12" height="266.112"/>
  </clipPath>
 </defs>
</svg>
