<?xml version="1.0" encoding="utf-8" standalone="no"?>
<!DOCTYPE svg PUBLIC "-//W3C//DTD SVG 1.1//EN"
  "http://www.w3.org/Graphics/SVG/1.1/DTD/svg11.dtd">
<svg xmlns:xlink="http://www.w3.org/1999/xlink" width="460.8pt" height="345.6pt" viewBox="0 0 460.8 345.6" xmlns="http://www.w3.org/2000/svg" version="1.1">
 <metadata>
  <rdf:RDF xmlns:dc="http://purl.org/dc/elements/1.1/" xmlns:cc="http://creativecommons.org/ns#" xmlns:rdf="http://www.w3.org/1999/02/22-rdf-syntax-ns#">
   <cc:Work>
    <dc:type rdf:resource="http://purl.org/dc/dcmitype/StillImage"/>
    <dc:date>2025-03-10T02:35:47.023470</dc:date>
    <dc:format>image/svg+xml</dc:format>
    <dc:creator>
     <cc:Agent>
      <dc:title>Matplotlib v3.9.1, https://matplotlib.org/</dc:title>
     </cc:Agent>
    </dc:creator>
   </cc:Work>
  </rdf:RDF>
 </metadata>
 <defs>
  <style type="text/css">*{stroke-linejoin: round; stroke-linecap: butt}</style>
 </defs>
 <g id="figure_1">
  <g id="patch_1">
   <path d="M 0 345.6 
L 460.8 345.6 
L 460.8 0 
L 0 0 
z
" style="fill: #ffffff"/>
  </g>
  <g id="axes_1">
   <g id="patch_2">
    <path d="M 57.6 307.584 
L 414.72 307.584 
L 414.72 41.472 
L 57.6 41.472 
z
" style="fill: #ffffff"/>
   </g>
   <g id="matplotlib.axis_1">
    <g id="xtick_1">
     <g id="line2d_1">
      <defs>
       <path id="mcd7d560d2c" d="M 0 0 
L 0 3.5 
" style="stroke: #000000; stroke-width: 0.8"/>
      </defs>
      <g>
       <use xlink:href="#mcd7d560d2c" x="73.832727" y="307.584" style="stroke: #000000; stroke-width: 0.8"/>
      </g>
     </g>
     <g id="text_1">
      <!-- 1 -->
      <g transform="translate(70.651477 322.182437) scale(0.1 -0.1)">
       <defs>
        <path id="DejaVuSans-31" d="M 794 531 
L 1825 531 
L 1825 4091 
L 703 3866 
L 703 4441 
L 1819 4666 
L 2450 4666 
L 2450 531 
L 3481 531 
L 3481 0 
L 794 0 
L 794 531 
z
" transform="scale(0.015625)"/>
       </defs>
       <use xlink:href="#DejaVuSans-31"/>
      </g>
     </g>
    </g>
    <g id="xtick_2">
     <g id="line2d_2">
      <g>
       <use xlink:href="#mcd7d560d2c" x="109.664165" y="307.584" style="stroke: #000000; stroke-width: 0.8"/>
      </g>
     </g>
     <g id="text_2">
      <!-- 34 -->
      <g transform="translate(103.301665 322.182437) scale(0.1 -0.1)">
       <defs>
        <path id="DejaVuSans-33" d="M 2597 2516 
Q 3050 2419 3304 2112 
Q 3559 1806 3559 1356 
Q 3559 666 3084 287 
Q 2609 -91 1734 -91 
Q 1441 -91 1130 -33 
Q 819 25 488 141 
L 488 750 
Q 750 597 1062 519 
Q 1375 441 1716 441 
Q 2309 441 2620 675 
Q 2931 909 2931 1356 
Q 2931 1769 2642 2001 
Q 2353 2234 1838 2234 
L 1294 2234 
L 1294 2753 
L 1863 2753 
Q 2328 2753 2575 2939 
Q 2822 3125 2822 3475 
Q 2822 3834 2567 4026 
Q 2313 4219 1838 4219 
Q 1578 4219 1281 4162 
Q 984 4106 628 3988 
L 628 4550 
Q 988 4650 1302 4700 
Q 1616 4750 1894 4750 
Q 2613 4750 3031 4423 
Q 3450 4097 3450 3541 
Q 3450 3153 3228 2886 
Q 3006 2619 2597 2516 
z
" transform="scale(0.015625)"/>
        <path id="DejaVuSans-34" d="M 2419 4116 
L 825 1625 
L 2419 1625 
L 2419 4116 
z
M 2253 4666 
L 3047 4666 
L 3047 1625 
L 3713 1625 
L 3713 1100 
L 3047 1100 
L 3047 0 
L 2419 0 
L 2419 1100 
L 313 1100 
L 313 1709 
L 2253 4666 
z
" transform="scale(0.015625)"/>
       </defs>
       <use xlink:href="#DejaVuSans-33"/>
       <use xlink:href="#DejaVuSans-34" x="63.623047"/>
      </g>
     </g>
    </g>
    <g id="xtick_3">
     <g id="line2d_3">
      <g>
       <use xlink:href="#mcd7d560d2c" x="145.495604" y="307.584" style="stroke: #000000; stroke-width: 0.8"/>
      </g>
     </g>
     <g id="text_3">
      <!-- 67 -->
      <g transform="translate(139.133104 322.182437) scale(0.1 -0.1)">
       <defs>
        <path id="DejaVuSans-36" d="M 2113 2584 
Q 1688 2584 1439 2293 
Q 1191 2003 1191 1497 
Q 1191 994 1439 701 
Q 1688 409 2113 409 
Q 2538 409 2786 701 
Q 3034 994 3034 1497 
Q 3034 2003 2786 2293 
Q 2538 2584 2113 2584 
z
M 3366 4563 
L 3366 3988 
Q 3128 4100 2886 4159 
Q 2644 4219 2406 4219 
Q 1781 4219 1451 3797 
Q 1122 3375 1075 2522 
Q 1259 2794 1537 2939 
Q 1816 3084 2150 3084 
Q 2853 3084 3261 2657 
Q 3669 2231 3669 1497 
Q 3669 778 3244 343 
Q 2819 -91 2113 -91 
Q 1303 -91 875 529 
Q 447 1150 447 2328 
Q 447 3434 972 4092 
Q 1497 4750 2381 4750 
Q 2619 4750 2861 4703 
Q 3103 4656 3366 4563 
z
" transform="scale(0.015625)"/>
        <path id="DejaVuSans-37" d="M 525 4666 
L 3525 4666 
L 3525 4397 
L 1831 0 
L 1172 0 
L 2766 4134 
L 525 4134 
L 525 4666 
z
" transform="scale(0.015625)"/>
       </defs>
       <use xlink:href="#DejaVuSans-36"/>
       <use xlink:href="#DejaVuSans-37" x="63.623047"/>
      </g>
     </g>
    </g>
    <g id="xtick_4">
     <g id="line2d_4">
      <g>
       <use xlink:href="#mcd7d560d2c" x="181.327042" y="307.584" style="stroke: #000000; stroke-width: 0.8"/>
      </g>
     </g>
     <g id="text_4">
      <!-- 100 -->
      <g transform="translate(171.783292 322.182437) scale(0.1 -0.1)">
       <defs>
        <path id="DejaVuSans-30" d="M 2034 4250 
Q 1547 4250 1301 3770 
Q 1056 3291 1056 2328 
Q 1056 1369 1301 889 
Q 1547 409 2034 409 
Q 2525 409 2770 889 
Q 3016 1369 3016 2328 
Q 3016 3291 2770 3770 
Q 2525 4250 2034 4250 
z
M 2034 4750 
Q 2819 4750 3233 4129 
Q 3647 3509 3647 2328 
Q 3647 1150 3233 529 
Q 2819 -91 2034 -91 
Q 1250 -91 836 529 
Q 422 1150 422 2328 
Q 422 3509 836 4129 
Q 1250 4750 2034 4750 
z
" transform="scale(0.015625)"/>
       </defs>
       <use xlink:href="#DejaVuSans-31"/>
       <use xlink:href="#DejaVuSans-30" x="63.623047"/>
       <use xlink:href="#DejaVuSans-30" x="127.246094"/>
      </g>
     </g>
    </g>
    <g id="xtick_5">
     <g id="line2d_5">
      <g>
       <use xlink:href="#mcd7d560d2c" x="217.15848" y="307.584" style="stroke: #000000; stroke-width: 0.8"/>
      </g>
     </g>
     <g id="text_5">
      <!-- 133 -->
      <g transform="translate(207.61473 322.182437) scale(0.1 -0.1)">
       <use xlink:href="#DejaVuSans-31"/>
       <use xlink:href="#DejaVuSans-33" x="63.623047"/>
       <use xlink:href="#DejaVuSans-33" x="127.246094"/>
      </g>
     </g>
    </g>
    <g id="xtick_6">
     <g id="line2d_6">
      <g>
       <use xlink:href="#mcd7d560d2c" x="254.075719" y="307.584" style="stroke: #000000; stroke-width: 0.8"/>
      </g>
     </g>
     <g id="text_6">
      <!-- 167 -->
      <g transform="translate(244.531969 322.182437) scale(0.1 -0.1)">
       <use xlink:href="#DejaVuSans-31"/>
       <use xlink:href="#DejaVuSans-36" x="63.623047"/>
       <use xlink:href="#DejaVuSans-37" x="127.246094"/>
      </g>
     </g>
    </g>
    <g id="xtick_7">
     <g id="line2d_7">
      <g>
       <use xlink:href="#mcd7d560d2c" x="289.907157" y="307.584" style="stroke: #000000; stroke-width: 0.8"/>
      </g>
     </g>
     <g id="text_7">
      <!-- 200 -->
      <g transform="translate(280.363407 322.182437) scale(0.1 -0.1)">
       <defs>
        <path id="DejaVuSans-32" d="M 1228 531 
L 3431 531 
L 3431 0 
L 469 0 
L 469 531 
Q 828 903 1448 1529 
Q 2069 2156 2228 2338 
Q 2531 2678 2651 2914 
Q 2772 3150 2772 3378 
Q 2772 3750 2511 3984 
Q 2250 4219 1831 4219 
Q 1534 4219 1204 4116 
Q 875 4013 500 3803 
L 500 4441 
Q 881 4594 1212 4672 
Q 1544 4750 1819 4750 
Q 2544 4750 2975 4387 
Q 3406 4025 3406 3419 
Q 3406 3131 3298 2873 
Q 3191 2616 2906 2266 
Q 2828 2175 2409 1742 
Q 1991 1309 1228 531 
z
" transform="scale(0.015625)"/>
       </defs>
       <use xlink:href="#DejaVuSans-32"/>
       <use xlink:href="#DejaVuSans-30" x="63.623047"/>
       <use xlink:href="#DejaVuSans-30" x="127.246094"/>
      </g>
     </g>
    </g>
    <g id="xtick_8">
     <g id="line2d_8">
      <g>
       <use xlink:href="#mcd7d560d2c" x="325.738595" y="307.584" style="stroke: #000000; stroke-width: 0.8"/>
      </g>
     </g>
     <g id="text_8">
      <!-- 233 -->
      <g transform="translate(316.194845 322.182437) scale(0.1 -0.1)">
       <use xlink:href="#DejaVuSans-32"/>
       <use xlink:href="#DejaVuSans-33" x="63.623047"/>
       <use xlink:href="#DejaVuSans-33" x="127.246094"/>
      </g>
     </g>
    </g>
    <g id="xtick_9">
     <g id="line2d_9">
      <g>
       <use xlink:href="#mcd7d560d2c" x="361.570033" y="307.584" style="stroke: #000000; stroke-width: 0.8"/>
      </g>
     </g>
     <g id="text_9">
      <!-- 266 -->
      <g transform="translate(352.026283 322.182437) scale(0.1 -0.1)">
       <use xlink:href="#DejaVuSans-32"/>
       <use xlink:href="#DejaVuSans-36" x="63.623047"/>
       <use xlink:href="#DejaVuSans-36" x="127.246094"/>
      </g>
     </g>
    </g>
    <g id="xtick_10">
     <g id="line2d_10">
      <g>
       <use xlink:href="#mcd7d560d2c" x="398.487273" y="307.584" style="stroke: #000000; stroke-width: 0.8"/>
      </g>
     </g>
     <g id="text_10">
      <!-- 300 -->
      <g transform="translate(388.943523 322.182437) scale(0.1 -0.1)">
       <use xlink:href="#DejaVuSans-33"/>
       <use xlink:href="#DejaVuSans-30" x="63.623047"/>
       <use xlink:href="#DejaVuSans-30" x="127.246094"/>
      </g>
     </g>
    </g>
    <g id="text_11">
     <!-- Epochs -->
     <g transform="translate(218.244375 335.860562) scale(0.1 -0.1)">
      <defs>
       <path id="DejaVuSans-45" d="M 628 4666 
L 3578 4666 
L 3578 4134 
L 1259 4134 
L 1259 2753 
L 3481 2753 
L 3481 2222 
L 1259 2222 
L 1259 531 
L 3634 531 
L 3634 0 
L 628 0 
L 628 4666 
z
" transform="scale(0.015625)"/>
       <path id="DejaVuSans-70" d="M 1159 525 
L 1159 -1331 
L 581 -1331 
L 581 3500 
L 1159 3500 
L 1159 2969 
Q 1341 3281 1617 3432 
Q 1894 3584 2278 3584 
Q 2916 3584 3314 3078 
Q 3713 2572 3713 1747 
Q 3713 922 3314 415 
Q 2916 -91 2278 -91 
Q 1894 -91 1617 61 
Q 1341 213 1159 525 
z
M 3116 1747 
Q 3116 2381 2855 2742 
Q 2594 3103 2138 3103 
Q 1681 3103 1420 2742 
Q 1159 2381 1159 1747 
Q 1159 1113 1420 752 
Q 1681 391 2138 391 
Q 2594 391 2855 752 
Q 3116 1113 3116 1747 
z
" transform="scale(0.015625)"/>
       <path id="DejaVuSans-6f" d="M 1959 3097 
Q 1497 3097 1228 2736 
Q 959 2375 959 1747 
Q 959 1119 1226 758 
Q 1494 397 1959 397 
Q 2419 397 2687 759 
Q 2956 1122 2956 1747 
Q 2956 2369 2687 2733 
Q 2419 3097 1959 3097 
z
M 1959 3584 
Q 2709 3584 3137 3096 
Q 3566 2609 3566 1747 
Q 3566 888 3137 398 
Q 2709 -91 1959 -91 
Q 1206 -91 779 398 
Q 353 888 353 1747 
Q 353 2609 779 3096 
Q 1206 3584 1959 3584 
z
" transform="scale(0.015625)"/>
       <path id="DejaVuSans-63" d="M 3122 3366 
L 3122 2828 
Q 2878 2963 2633 3030 
Q 2388 3097 2138 3097 
Q 1578 3097 1268 2742 
Q 959 2388 959 1747 
Q 959 1106 1268 751 
Q 1578 397 2138 397 
Q 2388 397 2633 464 
Q 2878 531 3122 666 
L 3122 134 
Q 2881 22 2623 -34 
Q 2366 -91 2075 -91 
Q 1284 -91 818 406 
Q 353 903 353 1747 
Q 353 2603 823 3093 
Q 1294 3584 2113 3584 
Q 2378 3584 2631 3529 
Q 2884 3475 3122 3366 
z
" transform="scale(0.015625)"/>
       <path id="DejaVuSans-68" d="M 3513 2113 
L 3513 0 
L 2938 0 
L 2938 2094 
Q 2938 2591 2744 2837 
Q 2550 3084 2163 3084 
Q 1697 3084 1428 2787 
Q 1159 2491 1159 1978 
L 1159 0 
L 581 0 
L 581 4863 
L 1159 4863 
L 1159 2956 
Q 1366 3272 1645 3428 
Q 1925 3584 2291 3584 
Q 2894 3584 3203 3211 
Q 3513 2838 3513 2113 
z
" transform="scale(0.015625)"/>
       <path id="DejaVuSans-73" d="M 2834 3397 
L 2834 2853 
Q 2591 2978 2328 3040 
Q 2066 3103 1784 3103 
Q 1356 3103 1142 2972 
Q 928 2841 928 2578 
Q 928 2378 1081 2264 
Q 1234 2150 1697 2047 
L 1894 2003 
Q 2506 1872 2764 1633 
Q 3022 1394 3022 966 
Q 3022 478 2636 193 
Q 2250 -91 1575 -91 
Q 1294 -91 989 -36 
Q 684 19 347 128 
L 347 722 
Q 666 556 975 473 
Q 1284 391 1588 391 
Q 1994 391 2212 530 
Q 2431 669 2431 922 
Q 2431 1156 2273 1281 
Q 2116 1406 1581 1522 
L 1381 1569 
Q 847 1681 609 1914 
Q 372 2147 372 2553 
Q 372 3047 722 3315 
Q 1072 3584 1716 3584 
Q 2034 3584 2315 3537 
Q 2597 3491 2834 3397 
z
" transform="scale(0.015625)"/>
      </defs>
      <use xlink:href="#DejaVuSans-45"/>
      <use xlink:href="#DejaVuSans-70" x="63.183594"/>
      <use xlink:href="#DejaVuSans-6f" x="126.660156"/>
      <use xlink:href="#DejaVuSans-63" x="187.841797"/>
      <use xlink:href="#DejaVuSans-68" x="242.822266"/>
      <use xlink:href="#DejaVuSans-73" x="306.201172"/>
     </g>
    </g>
   </g>
   <g id="matplotlib.axis_2">
    <g id="ytick_1">
     <g id="line2d_11">
      <defs>
       <path id="mb05b888b1e" d="M 0 0 
L -3.5 0 
" style="stroke: #000000; stroke-width: 0.8"/>
      </defs>
      <g>
       <use xlink:href="#mb05b888b1e" x="57.6" y="280.431227" style="stroke: #000000; stroke-width: 0.8"/>
      </g>
     </g>
     <g id="text_12">
      <!-- 10 -->
      <g transform="translate(37.875 284.230445) scale(0.1 -0.1)">
       <use xlink:href="#DejaVuSans-31"/>
       <use xlink:href="#DejaVuSans-30" x="63.623047"/>
      </g>
     </g>
    </g>
    <g id="ytick_2">
     <g id="line2d_12">
      <g>
       <use xlink:href="#mb05b888b1e" x="57.6" y="249.062949" style="stroke: #000000; stroke-width: 0.8"/>
      </g>
     </g>
     <g id="text_13">
      <!-- 20 -->
      <g transform="translate(37.875 252.862168) scale(0.1 -0.1)">
       <use xlink:href="#DejaVuSans-32"/>
       <use xlink:href="#DejaVuSans-30" x="63.623047"/>
      </g>
     </g>
    </g>
    <g id="ytick_3">
     <g id="line2d_13">
      <g>
       <use xlink:href="#mb05b888b1e" x="57.6" y="217.694671" style="stroke: #000000; stroke-width: 0.8"/>
      </g>
     </g>
     <g id="text_14">
      <!-- 30 -->
      <g transform="translate(37.875 221.49389) scale(0.1 -0.1)">
       <use xlink:href="#DejaVuSans-33"/>
       <use xlink:href="#DejaVuSans-30" x="63.623047"/>
      </g>
     </g>
    </g>
    <g id="ytick_4">
     <g id="line2d_14">
      <g>
       <use xlink:href="#mb05b888b1e" x="57.6" y="186.326393" style="stroke: #000000; stroke-width: 0.8"/>
      </g>
     </g>
     <g id="text_15">
      <!-- 40 -->
      <g transform="translate(37.875 190.125612) scale(0.1 -0.1)">
       <use xlink:href="#DejaVuSans-34"/>
       <use xlink:href="#DejaVuSans-30" x="63.623047"/>
      </g>
     </g>
    </g>
    <g id="ytick_5">
     <g id="line2d_15">
      <g>
       <use xlink:href="#mb05b888b1e" x="57.6" y="154.958116" style="stroke: #000000; stroke-width: 0.8"/>
      </g>
     </g>
     <g id="text_16">
      <!-- 50 -->
      <g transform="translate(37.875 158.757334) scale(0.1 -0.1)">
       <defs>
        <path id="DejaVuSans-35" d="M 691 4666 
L 3169 4666 
L 3169 4134 
L 1269 4134 
L 1269 2991 
Q 1406 3038 1543 3061 
Q 1681 3084 1819 3084 
Q 2600 3084 3056 2656 
Q 3513 2228 3513 1497 
Q 3513 744 3044 326 
Q 2575 -91 1722 -91 
Q 1428 -91 1123 -41 
Q 819 9 494 109 
L 494 744 
Q 775 591 1075 516 
Q 1375 441 1709 441 
Q 2250 441 2565 725 
Q 2881 1009 2881 1497 
Q 2881 1984 2565 2268 
Q 2250 2553 1709 2553 
Q 1456 2553 1204 2497 
Q 953 2441 691 2322 
L 691 4666 
z
" transform="scale(0.015625)"/>
       </defs>
       <use xlink:href="#DejaVuSans-35"/>
       <use xlink:href="#DejaVuSans-30" x="63.623047"/>
      </g>
     </g>
    </g>
    <g id="ytick_6">
     <g id="line2d_16">
      <g>
       <use xlink:href="#mb05b888b1e" x="57.6" y="123.589838" style="stroke: #000000; stroke-width: 0.8"/>
      </g>
     </g>
     <g id="text_17">
      <!-- 60 -->
      <g transform="translate(37.875 127.389057) scale(0.1 -0.1)">
       <use xlink:href="#DejaVuSans-36"/>
       <use xlink:href="#DejaVuSans-30" x="63.623047"/>
      </g>
     </g>
    </g>
    <g id="ytick_7">
     <g id="line2d_17">
      <g>
       <use xlink:href="#mb05b888b1e" x="57.6" y="92.22156" style="stroke: #000000; stroke-width: 0.8"/>
      </g>
     </g>
     <g id="text_18">
      <!-- 70 -->
      <g transform="translate(37.875 96.020779) scale(0.1 -0.1)">
       <use xlink:href="#DejaVuSans-37"/>
       <use xlink:href="#DejaVuSans-30" x="63.623047"/>
      </g>
     </g>
    </g>
    <g id="ytick_8">
     <g id="line2d_18">
      <g>
       <use xlink:href="#mb05b888b1e" x="57.6" y="60.853283" style="stroke: #000000; stroke-width: 0.8"/>
      </g>
     </g>
     <g id="text_19">
      <!-- 80 -->
      <g transform="translate(37.875 64.652501) scale(0.1 -0.1)">
       <defs>
        <path id="DejaVuSans-38" d="M 2034 2216 
Q 1584 2216 1326 1975 
Q 1069 1734 1069 1313 
Q 1069 891 1326 650 
Q 1584 409 2034 409 
Q 2484 409 2743 651 
Q 3003 894 3003 1313 
Q 3003 1734 2745 1975 
Q 2488 2216 2034 2216 
z
M 1403 2484 
Q 997 2584 770 2862 
Q 544 3141 544 3541 
Q 544 4100 942 4425 
Q 1341 4750 2034 4750 
Q 2731 4750 3128 4425 
Q 3525 4100 3525 3541 
Q 3525 3141 3298 2862 
Q 3072 2584 2669 2484 
Q 3125 2378 3379 2068 
Q 3634 1759 3634 1313 
Q 3634 634 3220 271 
Q 2806 -91 2034 -91 
Q 1263 -91 848 271 
Q 434 634 434 1313 
Q 434 1759 690 2068 
Q 947 2378 1403 2484 
z
M 1172 3481 
Q 1172 3119 1398 2916 
Q 1625 2713 2034 2713 
Q 2441 2713 2670 2916 
Q 2900 3119 2900 3481 
Q 2900 3844 2670 4047 
Q 2441 4250 2034 4250 
Q 1625 4250 1398 4047 
Q 1172 3844 1172 3481 
z
" transform="scale(0.015625)"/>
       </defs>
       <use xlink:href="#DejaVuSans-38"/>
       <use xlink:href="#DejaVuSans-30" x="63.623047"/>
      </g>
     </g>
    </g>
    <g id="text_20">
     <!-- Accuracy -->
     <g transform="translate(31.795312 197.356125) rotate(-90) scale(0.1 -0.1)">
      <defs>
       <path id="DejaVuSans-41" d="M 2188 4044 
L 1331 1722 
L 3047 1722 
L 2188 4044 
z
M 1831 4666 
L 2547 4666 
L 4325 0 
L 3669 0 
L 3244 1197 
L 1141 1197 
L 716 0 
L 50 0 
L 1831 4666 
z
" transform="scale(0.015625)"/>
       <path id="DejaVuSans-75" d="M 544 1381 
L 544 3500 
L 1119 3500 
L 1119 1403 
Q 1119 906 1312 657 
Q 1506 409 1894 409 
Q 2359 409 2629 706 
Q 2900 1003 2900 1516 
L 2900 3500 
L 3475 3500 
L 3475 0 
L 2900 0 
L 2900 538 
Q 2691 219 2414 64 
Q 2138 -91 1772 -91 
Q 1169 -91 856 284 
Q 544 659 544 1381 
z
M 1991 3584 
L 1991 3584 
z
" transform="scale(0.015625)"/>
       <path id="DejaVuSans-72" d="M 2631 2963 
Q 2534 3019 2420 3045 
Q 2306 3072 2169 3072 
Q 1681 3072 1420 2755 
Q 1159 2438 1159 1844 
L 1159 0 
L 581 0 
L 581 3500 
L 1159 3500 
L 1159 2956 
Q 1341 3275 1631 3429 
Q 1922 3584 2338 3584 
Q 2397 3584 2469 3576 
Q 2541 3569 2628 3553 
L 2631 2963 
z
" transform="scale(0.015625)"/>
       <path id="DejaVuSans-61" d="M 2194 1759 
Q 1497 1759 1228 1600 
Q 959 1441 959 1056 
Q 959 750 1161 570 
Q 1363 391 1709 391 
Q 2188 391 2477 730 
Q 2766 1069 2766 1631 
L 2766 1759 
L 2194 1759 
z
M 3341 1997 
L 3341 0 
L 2766 0 
L 2766 531 
Q 2569 213 2275 61 
Q 1981 -91 1556 -91 
Q 1019 -91 701 211 
Q 384 513 384 1019 
Q 384 1609 779 1909 
Q 1175 2209 1959 2209 
L 2766 2209 
L 2766 2266 
Q 2766 2663 2505 2880 
Q 2244 3097 1772 3097 
Q 1472 3097 1187 3025 
Q 903 2953 641 2809 
L 641 3341 
Q 956 3463 1253 3523 
Q 1550 3584 1831 3584 
Q 2591 3584 2966 3190 
Q 3341 2797 3341 1997 
z
" transform="scale(0.015625)"/>
       <path id="DejaVuSans-79" d="M 2059 -325 
Q 1816 -950 1584 -1140 
Q 1353 -1331 966 -1331 
L 506 -1331 
L 506 -850 
L 844 -850 
Q 1081 -850 1212 -737 
Q 1344 -625 1503 -206 
L 1606 56 
L 191 3500 
L 800 3500 
L 1894 763 
L 2988 3500 
L 3597 3500 
L 2059 -325 
z
" transform="scale(0.015625)"/>
      </defs>
      <use xlink:href="#DejaVuSans-41"/>
      <use xlink:href="#DejaVuSans-63" x="66.658203"/>
      <use xlink:href="#DejaVuSans-63" x="121.638672"/>
      <use xlink:href="#DejaVuSans-75" x="176.619141"/>
      <use xlink:href="#DejaVuSans-72" x="239.998047"/>
      <use xlink:href="#DejaVuSans-61" x="281.111328"/>
      <use xlink:href="#DejaVuSans-63" x="342.390625"/>
      <use xlink:href="#DejaVuSans-79" x="397.371094"/>
     </g>
    </g>
   </g>
   <g id="line2d_19">
    <path d="M 73.832727 286.140253 
L 74.918528 251.842963 
L 76.00433 227.881519 
L 77.090131 212.393432 
L 78.175932 199.450097 
L 79.261733 187.90657 
L 80.347534 180.58992 
L 81.433335 172.089116 
L 83.604938 158.737993 
L 84.690739 154.648354 
L 85.77654 149.484351 
L 86.862341 143.022486 
L 87.948142 140.026816 
L 89.033943 134.109974 
L 90.119745 131.70638 
L 91.205546 127.812792 
L 92.291347 125.515066 
L 94.462949 122.546843 
L 95.54875 153.758279 
L 96.634552 151.444869 
L 99.891955 143.638088 
L 100.977756 139.066162 
L 102.063557 136.788041 
L 103.149358 134.039396 
L 104.23516 132.686639 
L 105.320961 131.016278 
L 106.406762 127.589293 
L 107.492563 125.613092 
L 109.664165 120.876482 
L 110.749967 119.927592 
L 111.835768 116.708422 
L 112.921569 115.355665 
L 114.00737 112.708967 
L 115.093171 111.2425 
L 116.178972 109.517244 
L 118.350575 105.388395 
L 119.436376 104.067006 
L 120.522177 101.898674 
L 121.607978 100.777258 
L 122.693779 98.514821 
L 123.77958 96.84446 
L 124.865382 94.668286 
L 127.036984 92.02943 
L 128.122785 89.370968 
L 129.208586 89.069048 
L 130.294387 87.97508 
L 131.380189 86.010641 
L 132.46599 85.093119 
L 134.637592 83.787415 
L 135.723393 83.575679 
L 136.809194 82.59542 
L 137.894995 82.501315 
L 138.980797 116.559423 
L 140.066598 118.963017 
L 141.152399 117.410287 
L 142.2382 117.182867 
L 143.324001 116.414344 
L 144.409802 115.014535 
L 145.495604 113.893119 
L 146.581405 114.030355 
L 147.667206 113.48141 
L 148.753007 111.297394 
L 149.838808 110.477898 
L 150.924609 110.195583 
L 152.01041 108.901642 
L 153.096212 106.596074 
L 154.182013 107.172466 
L 155.267814 106.713705 
L 156.353615 105.302132 
L 157.439416 105.074712 
L 158.525217 103.447483 
L 159.611019 103.251431 
L 160.69682 102.345672 
L 161.782621 102.545645 
L 162.868422 100.816468 
L 165.040024 99.385291 
L 166.125825 98.048218 
L 167.211627 98.299164 
L 168.297428 97.095406 
L 169.383229 97.456142 
L 170.46903 95.813228 
L 171.554831 94.593786 
L 172.640632 93.664501 
L 173.726434 93.370423 
L 174.812235 91.935325 
L 176.983837 89.382731 
L 178.069638 90.531594 
L 179.155439 88.665182 
L 180.24124 88.194658 
L 181.327042 87.516319 
L 182.412843 86.332166 
L 183.498644 85.555801 
L 184.584445 85.108803 
L 185.670246 84.175597 
L 186.756047 83.516863 
L 187.841849 82.673841 
L 188.92765 81.176005 
L 190.013451 80.160457 
L 191.099252 78.815543 
L 192.185053 79.250777 
L 193.270854 78.458728 
L 194.356656 76.619763 
L 195.442457 75.96495 
L 197.614059 73.941696 
L 198.69986 73.694671 
L 199.785661 72.483071 
L 200.871462 72.087047 
L 201.957264 70.334344 
L 203.043065 70.679396 
L 204.128866 69.859899 
L 206.300468 67.2877 
L 207.386269 66.98186 
L 208.472071 65.50363 
L 209.557872 64.762554 
L 210.643673 64.33124 
L 211.729474 64.617476 
L 212.815275 64.115583 
L 213.901076 62.923589 
L 214.986877 63.100035 
L 217.15848 62.088408 
L 218.244281 61.598279 
L 219.330082 61.664937 
L 220.415883 60.214154 
L 221.501684 61.892357 
L 222.587486 61.006203 
L 223.673287 60.378837 
L 224.759088 60.829756 
L 225.844889 99.244133 
L 226.93069 103.459246 
L 228.016491 102.745617 
L 229.102292 103.949375 
L 230.188094 102.702486 
L 231.273895 102.373119 
L 232.359696 102.314304 
L 233.445497 101.910437 
L 234.531298 101.632044 
L 235.617099 100.769416 
L 236.702901 100.310655 
L 237.788702 100.008735 
L 238.874503 100.016577 
L 239.960304 98.452084 
L 241.046105 98.467769 
L 242.131906 97.860008 
L 243.217708 96.762118 
L 244.303509 97.699246 
L 245.38931 96.832697 
L 246.475111 96.217095 
L 247.560912 96.746434 
L 248.646713 96.550383 
L 249.732514 94.409498 
L 250.818316 95.625018 
L 251.904117 95.472098 
L 252.989918 94.558497 
L 254.075719 94.170314 
L 255.16152 93.464528 
L 256.247321 94.146788 
L 258.418924 92.554848 
L 260.590526 92.358796 
L 261.676327 92.90382 
L 262.762128 91.602037 
L 263.847929 91.876509 
L 264.933731 90.884487 
L 266.019532 91.5393 
L 267.105333 91.202091 
L 268.191134 89.998334 
L 269.276935 90.390437 
L 271.448538 88.833786 
L 272.534339 89.316074 
L 273.62014 89.018075 
L 274.705941 88.084869 
L 275.791742 87.767265 
L 277.963344 87.818238 
L 281.220748 86.014562 
L 282.306549 86.316482 
L 283.39235 86.00672 
L 284.478151 85.061751 
L 285.563953 85.571485 
L 286.649754 85.273487 
L 288.821356 83.246312 
L 289.907157 84.5677 
L 290.992958 84.14815 
L 292.07876 83.461969 
L 294.250362 81.83866 
L 295.336163 82.238606 
L 296.421964 81.956291 
L 297.507765 80.478061 
L 298.593566 80.968191 
L 299.679368 80.807428 
L 300.765169 79.936958 
L 301.85097 80.842717 
L 302.936771 79.266462 
L 304.022572 78.99591 
L 305.108373 78.999831 
L 306.194175 78.329334 
L 307.279976 78.584201 
L 308.365777 78.172493 
L 309.451578 76.741315 
L 310.537379 76.753078 
L 311.62318 75.455216 
L 312.708981 76.094344 
L 313.794783 75.047428 
L 314.880584 75.557163 
L 315.966385 74.623956 
L 317.052186 75.28269 
L 318.137987 73.906407 
L 319.223788 73.408436 
L 320.30959 73.777013 
L 321.395391 72.228204 
L 322.481192 72.510519 
L 323.566993 71.867469 
L 324.652794 72.192915 
L 325.738595 70.585291 
L 326.824396 70.35395 
L 327.910198 70.679396 
L 331.167601 68.491458 
L 332.253402 68.115039 
L 333.339203 67.072044 
L 334.425005 67.126938 
L 335.510806 66.879913 
L 336.596607 66.232942 
L 337.682408 66.162364 
L 338.768209 65.797707 
L 340.939811 65.38992 
L 342.025613 62.998088 
L 343.111414 63.946979 
L 345.283016 62.492275 
L 346.368817 62.574617 
L 347.454618 61.5277 
L 348.54042 61.892357 
L 349.626221 60.76702 
L 350.712022 60.437653 
L 351.797823 59.13979 
L 352.883624 59.300553 
L 353.969425 59.28879 
L 355.055227 58.128163 
L 356.141028 57.441982 
L 358.31263 56.642091 
L 359.398431 56.71267 
L 360.484232 56.395066 
L 361.570033 55.685359 
L 362.655835 55.50107 
L 364.827437 53.987551 
L 365.913238 53.568 
L 366.999039 54.120866 
L 368.08484 54.046366 
L 369.170642 55.889253 
L 370.256443 56.963616 
L 372.428045 59.923997 
L 373.513846 59.2535 
L 374.599647 60.120049 
L 375.685448 59.978892 
L 376.77125 61.14736 
L 377.857051 60.657231 
L 378.942852 61.029729 
L 380.028653 60.76702 
L 381.114454 61.229702 
L 382.200255 60.91994 
L 383.286057 61.296359 
L 384.371858 60.343548 
L 385.457659 61.331649 
L 386.54346 59.567183 
L 388.715062 60.716046 
L 389.800863 60.398442 
L 390.886665 60.637626 
L 391.972466 60.261206 
L 393.058267 61.919804 
L 394.144068 60.112207 
L 395.229869 60.668994 
L 396.31567 61.56299 
L 397.401472 60.441574 
L 398.487273 61.119913 
L 398.487273 61.119913 
" clip-path="url(#p1ff9c371c6)" style="fill: none; stroke: #1f77b4; stroke-width: 1.5; stroke-linecap: square"/>
   </g>
   <g id="line2d_20">
    <path d="M 73.832727 276.792506 
L 76.00433 241.283616 
L 77.090131 230.539981 
L 78.175932 220.98834 
L 79.261733 214.557843 
L 80.347534 201.790954 
L 81.433335 196.379926 
L 82.519137 186.059763 
L 83.604938 187.816387 
L 84.690739 182.154413 
L 85.77654 168.132792 
L 86.862341 172.336142 
L 87.948142 166.391853 
L 89.033943 162.486502 
L 90.119745 155.789375 
L 91.205546 156.950001 
L 92.291347 154.9738 
L 93.377148 152.605495 
L 94.462949 152.793705 
L 95.54875 186.38913 
L 96.634552 180.883997 
L 97.720353 184.444297 
L 98.806154 170.35994 
L 99.891955 172.430246 
L 100.977756 170.736359 
L 102.063557 170.971622 
L 103.149358 167.332901 
L 104.23516 162.89429 
L 105.320961 157.765577 
L 106.406762 159.616305 
L 107.492563 160.16525 
L 108.578364 150.974344 
L 109.664165 150.001928 
L 110.749967 154.911063 
L 111.835768 141.265862 
L 112.921569 144.85753 
L 114.00737 145.986788 
L 115.093171 143.602799 
L 116.178972 140.920811 
L 117.264773 136.184201 
L 118.350575 130.553596 
L 119.436376 131.902432 
L 120.522177 130.349702 
L 121.607978 129.596863 
L 122.693779 128.498973 
L 123.77958 128.796972 
L 124.865382 124.185835 
L 125.951183 124.138783 
L 127.036984 118.069021 
L 128.122785 117.880811 
L 129.208586 117.833759 
L 130.294387 114.430301 
L 131.380189 114.461669 
L 133.551791 111.560103 
L 134.637592 112.705046 
L 135.723393 111.089579 
L 136.809194 111.418946 
L 137.894995 112.328626 
L 138.980797 147.884569 
L 140.066598 154.816958 
L 141.152399 146.974889 
L 142.2382 146.190682 
L 143.324001 142.473541 
L 144.409802 146.645522 
L 145.495604 144.120376 
L 146.581405 144.888899 
L 147.667206 139.007346 
L 148.753007 139.164188 
L 149.838808 142.065754 
L 150.924609 138.928926 
L 152.01041 138.521138 
L 153.096212 140.167973 
L 154.182013 140.95218 
L 155.267814 139.336713 
L 156.353615 143.963534 
L 157.439416 133.768844 
L 158.525217 132.702323 
L 159.611019 138.866189 
L 160.69682 131.871063 
L 161.782621 127.934344 
L 162.868422 131.400539 
L 163.954223 139.964079 
L 165.040024 130.365386 
L 166.125825 130.506543 
L 167.211627 125.252357 
L 168.297428 128.640131 
L 169.383229 125.409198 
L 170.46903 127.495189 
L 171.554831 121.331322 
L 172.640632 123.448681 
L 173.726434 123.840784 
L 174.812235 125.722881 
L 175.898036 121.331322 
L 176.983837 123.840784 
L 178.069638 121.488163 
L 179.155439 123.856468 
L 180.24124 120.107959 
L 181.327042 118.963017 
L 182.412843 116.155556 
L 183.498644 116.798606 
L 184.584445 116.312398 
L 185.670246 112.814835 
L 187.841849 114.210723 
L 188.92765 110.336741 
L 190.013451 110.477898 
L 191.099252 110.305372 
L 192.185053 109.003589 
L 193.270854 109.113378 
L 194.356656 106.870546 
L 195.442457 106.572547 
L 196.528258 105.004133 
L 197.614059 103.090668 
L 198.69986 102.573092 
L 199.785661 102.745617 
L 200.871462 100.738048 
L 201.957264 101.020362 
L 203.043065 100.424365 
L 204.128866 99.122581 
L 205.214667 99.012792 
L 206.300468 97.977639 
L 207.386269 97.365958 
L 208.472071 97.350274 
L 209.557872 96.04849 
L 210.643673 96.205332 
L 211.729474 95.295651 
L 212.815275 95.766176 
L 213.901076 94.182078 
L 214.986877 95.483861 
L 216.072679 94.731022 
L 217.15848 93.664501 
L 218.244281 93.617449 
L 219.330082 93.021451 
L 220.415883 93.413555 
L 221.501684 93.037135 
L 222.587486 92.817558 
L 223.673287 93.146924 
L 224.759088 93.162609 
L 225.844889 145.31237 
L 226.93069 141.783439 
L 228.016491 141.250178 
L 229.102292 141.093337 
L 230.188094 136.262622 
L 231.273895 137.658511 
L 232.359696 135.697993 
L 233.445497 137.831036 
L 234.531298 132.57685 
L 235.617099 131.306434 
L 236.702901 145.563317 
L 237.788702 136.733146 
L 238.874503 134.537367 
L 239.960304 133.219899 
L 241.046105 136.858619 
L 242.131906 131.29075 
L 243.217708 137.360512 
L 244.303509 134.082527 
L 245.38931 123.950573 
L 246.475111 132.686639 
L 247.560912 134.85105 
L 248.646713 129.314549 
L 249.732514 138.552506 
L 250.818316 132.874848 
L 251.904117 134.145263 
L 252.989918 131.588749 
L 254.075719 133.000321 
L 255.16152 134.835366 
L 256.247321 131.259382 
L 257.333123 132.718007 
L 258.418924 134.92947 
L 259.504725 134.051159 
L 260.590526 122.993841 
L 261.676327 130.130124 
L 262.762128 130.867278 
L 263.847929 129.094971 
L 264.933731 123.589838 
L 266.019532 126.491404 
L 267.105333 122.617421 
L 268.191134 123.119314 
L 269.276935 126.899191 
L 270.362736 122.068477 
L 271.448538 127.181506 
L 272.534339 126.993296 
L 273.62014 123.119314 
L 274.705941 122.836999 
L 275.791742 120.766693 
L 276.877543 123.260471 
L 277.963344 119.841329 
L 279.049146 130.773174 
L 280.134947 119.700172 
L 281.220748 124.750464 
L 282.306549 125.330777 
L 283.39235 117.410287 
L 284.478151 118.884596 
L 285.563953 115.167455 
L 286.649754 115.26156 
L 287.735555 122.146897 
L 288.821356 116.124188 
L 289.907157 118.665018 
L 292.07876 122.397843 
L 293.164561 117.331867 
L 295.336163 120.782377 
L 296.421964 119.888381 
L 297.507765 114.571458 
L 298.593566 113.238306 
L 299.679368 112.281574 
L 300.765169 121.833214 
L 301.85097 116.312398 
L 302.936771 115.089035 
L 304.022572 111.199368 
L 305.108373 112.814835 
L 306.194175 111.026843 
L 307.279976 119.245332 
L 308.365777 116.406502 
L 309.451578 107.043071 
L 310.537379 111.481683 
L 311.62318 109.678007 
L 312.708981 116.328082 
L 313.794783 109.238851 
L 314.880584 104.706135 
L 315.966385 116.908395 
L 317.052186 106.290233 
L 318.137987 104.564978 
L 319.223788 117.143657 
L 320.30959 109.427061 
L 321.395391 110.775897 
L 322.481192 106.541179 
L 323.566993 106.948967 
L 324.652794 110.430845 
L 325.738595 103.733718 
L 326.824396 104.408136 
L 327.910198 104.266979 
L 328.995999 104.768871 
L 330.0818 103.074984 
L 331.167601 103.263194 
L 332.253402 102.698565 
L 333.339203 104.721819 
L 334.425005 100.471417 
L 335.510806 103.200457 
L 336.596607 99.577421 
L 337.682408 99.749947 
L 338.768209 100.534154 
L 339.85401 98.652057 
L 340.939811 98.5109 
L 342.025613 99.044161 
L 343.111414 100.189103 
L 344.197215 99.499001 
L 345.283016 99.201002 
L 346.368817 96.50333 
L 347.454618 95.279967 
L 348.54042 97.507115 
L 349.626221 94.574181 
L 350.712022 97.679641 
L 352.883624 93.178293 
L 353.969425 93.789974 
L 355.055227 93.429239 
L 356.141028 93.539028 
L 357.226829 91.484406 
L 358.31263 93.037135 
L 359.398431 95.499545 
L 360.484232 91.970614 
L 361.570033 92.911662 
L 362.655835 90.982513 
L 363.741636 93.868395 
L 364.827437 90.606094 
L 365.913238 89.900308 
L 366.999039 88.112316 
L 368.08484 92.817558 
L 369.170642 93.931131 
L 370.256443 93.476291 
L 371.342244 96.142595 
L 372.428045 95.891649 
L 373.513846 98.32269 
L 374.599647 97.78943 
L 375.685448 95.954385 
L 376.77125 94.511445 
L 377.857051 96.644487 
L 378.942852 98.5109 
L 380.028653 98.354059 
L 381.114454 99.812683 
L 382.200255 99.451948 
L 383.286057 97.240485 
L 384.371858 96.079858 
L 385.457659 97.836482 
L 386.54346 101.020362 
L 387.629261 99.718579 
L 388.715062 98.150165 
L 389.800863 100.455733 
L 390.886665 97.569852 
L 391.972466 97.569852 
L 393.058267 98.495216 
L 394.144068 98.730478 
L 395.229869 97.162064 
L 396.31567 100.079314 
L 397.401472 100.047946 
L 398.487273 96.377857 
L 398.487273 96.377857 
" clip-path="url(#p1ff9c371c6)" style="fill: none; stroke: #ff7f0e; stroke-width: 1.5; stroke-linecap: square"/>
   </g>
   <g id="line2d_21">
    <path d="M 73.832727 295.488 
L 74.918528 289.452311 
L 76.00433 280.539393 
L 77.090131 276.061301 
L 78.175932 278.008298 
L 79.261733 268.381481 
L 80.347534 266.196519 
L 81.433335 265.201387 
L 82.519137 265.569153 
L 83.604938 260.268996 
L 84.690739 262.259259 
L 85.77654 254.406373 
L 86.862341 258.516699 
L 87.948142 258.581599 
L 89.033943 255.596204 
L 90.119745 253.238175 
L 91.205546 251.767111 
L 92.291347 250.51238 
L 93.377148 251.009945 
L 94.462949 250.966679 
L 95.54875 259.793063 
L 96.634552 266.932051 
L 97.720353 270.047245 
L 98.806154 263.016424 
L 99.891955 260.204096 
L 100.977756 253.389608 
L 102.063557 256.439903 
L 103.149358 261.999659 
L 104.23516 255.661104 
L 106.406762 252.567543 
L 107.492563 253.108375 
L 108.578364 254.341473 
L 109.664165 250.274413 
L 110.749967 255.531304 
L 111.835768 243.979125 
L 112.921569 250.663813 
L 114.00737 241.469662 
L 115.093171 247.916384 
L 116.178972 245.623255 
L 117.264773 244.519957 
L 118.350575 241.448029 
L 119.436376 245.104056 
L 120.522177 240.561064 
L 121.607978 239.1549 
L 122.693779 237.18627 
L 123.77958 238.852034 
L 124.865382 238.138135 
L 125.951183 236.061339 
L 127.036984 233.119211 
L 128.122785 234.568641 
L 129.208586 233.984542 
L 130.294387 230.804448 
L 131.380189 231.47508 
L 132.46599 231.237114 
L 133.551791 230.501582 
L 134.637592 230.588115 
L 135.723393 229.419917 
L 136.809194 229.76605 
L 137.894995 230.869348 
L 138.980797 250.534013 
L 140.066598 249.776848 
L 141.152399 247.397185 
L 142.2382 248.305784 
L 143.324001 240.236565 
L 144.409802 242.810927 
L 145.495604 248.846616 
L 146.581405 243.308492 
L 147.667206 244.044025 
L 148.753007 241.231696 
L 149.838808 245.190589 
L 150.924609 239.436133 
L 152.01041 244.281991 
L 153.096212 243.308492 
L 154.182013 243.806058 
L 155.267814 243.070526 
L 156.353615 243.654625 
L 157.439416 240.258198 
L 158.525217 240.73413 
L 159.611019 237.878535 
L 160.69682 243.741158 
L 161.782621 232.275512 
L 162.868422 235.54214 
L 163.954223 240.279831 
L 165.040024 236.537271 
L 166.125825 238.549168 
L 167.211627 235.390707 
L 168.297428 234.157609 
L 169.383229 236.92667 
L 170.46903 236.429105 
L 171.554831 232.837978 
L 172.640632 236.256038 
L 173.726434 234.071076 
L 174.812235 234.200875 
L 175.898036 230.436682 
L 176.983837 238.549168 
L 178.069638 236.450738 
L 179.155439 232.902878 
L 180.24124 228.727652 
L 181.327042 231.020781 
L 182.412843 224.227926 
L 183.498644 228.359886 
L 184.584445 230.869348 
L 185.670246 227.92722 
L 186.756047 228.900718 
L 187.841849 225.95859 
L 188.92765 227.408021 
L 190.013451 226.521056 
L 191.099252 230.761181 
L 192.185053 225.655724 
L 193.270854 226.650855 
L 194.356656 224.963458 
L 195.442457 220.918032 
L 196.528258 221.502131 
L 197.614059 222.518896 
L 198.69986 221.588664 
L 199.785661 220.982932 
L 200.871462 218.906136 
L 201.957264 219.382068 
L 203.043065 217.499972 
L 204.128866 212.848813 
L 205.214667 213.194946 
L 206.300468 216.548107 
L 207.386269 214.449677 
L 208.472071 215.747675 
L 209.557872 215.293375 
L 210.643673 213.757412 
L 211.729474 213.779045 
L 212.815275 213.368012 
L 213.901076 213.692512 
L 214.986877 213.497812 
L 216.072679 212.351247 
L 217.15848 212.50268 
L 218.244281 213.000246 
L 219.330082 210.79365 
L 220.415883 212.459414 
L 221.501684 213.411279 
L 222.587486 212.935346 
L 223.673287 211.832048 
L 224.759088 212.935346 
L 225.844889 243.892591 
L 226.93069 243.719525 
L 228.016491 238.8304 
L 229.102292 241.750895 
L 230.188094 237.034837 
L 231.273895 242.399894 
L 232.359696 231.73468 
L 233.445497 235.931539 
L 234.531298 235.196007 
L 235.617099 242.875827 
L 236.702901 240.582697 
L 237.788702 239.890432 
L 238.874503 233.075944 
L 239.960304 235.47724 
L 241.046105 239.998598 
L 242.131906 236.688704 
L 243.217708 242.097028 
L 244.303509 233.681676 
L 245.38931 228.424786 
L 246.475111 241.599462 
L 247.560912 249.906647 
L 248.646713 232.037546 
L 250.818316 235.585406 
L 251.904117 235.174374 
L 254.075719 237.597303 
L 255.16152 239.825532 
L 256.247321 238.614067 
L 257.333123 235.239273 
L 258.418924 237.272803 
L 259.504725 241.036997 
L 260.590526 232.816344 
L 261.676327 238.678967 
L 262.762128 234.720074 
L 263.847929 234.373942 
L 264.933731 228.792552 
L 266.019532 230.609748 
L 267.105333 234.936407 
L 268.191134 221.567031 
L 269.276935 236.082972 
L 270.362736 237.705469 
L 271.448538 236.234405 
L 272.534339 237.683836 
L 273.62014 226.174923 
L 274.705941 230.544848 
L 275.791742 234.395575 
L 276.877543 231.777946 
L 277.963344 228.403152 
L 279.049146 240.972097 
L 280.134947 229.268484 
L 281.220748 237.986702 
L 282.306549 234.114342 
L 283.39235 224.314459 
L 284.478151 227.278221 
L 285.563953 220.463733 
L 286.649754 224.833659 
L 287.735555 225.547557 
L 288.821356 223.081362 
L 289.907157 226.845555 
L 290.992958 232.837978 
L 292.07876 239.457766 
L 293.164561 225.590824 
L 294.250362 232.643278 
L 295.336163 233.18411 
L 296.421964 225.525924 
L 297.507765 224.292826 
L 298.593566 225.352858 
L 299.679368 221.285798 
L 300.765169 228.05702 
L 301.85097 225.95859 
L 302.936771 223.232795 
L 304.022572 220.160867 
L 305.108373 228.05702 
L 306.194175 221.653564 
L 307.279976 230.977514 
L 308.365777 226.910455 
L 309.451578 215.250109 
L 310.537379 225.850423 
L 311.62318 218.34367 
L 312.708981 228.446419 
L 313.794783 220.528633 
L 314.880584 215.531342 
L 315.966385 229.70115 
L 317.052186 215.531342 
L 318.137987 216.872606 
L 319.223788 228.900718 
L 320.30959 220.831499 
L 321.395391 225.309591 
L 322.481192 225.439391 
L 323.566993 221.999697 
L 324.652794 222.237663 
L 325.738595 217.175472 
L 326.824396 213.908845 
L 327.910198 220.571899 
L 328.995999 222.929929 
L 331.167601 216.677906 
L 332.253402 217.997537 
L 333.339203 215.812575 
L 334.425005 219.165735 
L 335.510806 215.488075 
L 336.596607 213.995378 
L 337.682408 215.985641 
L 338.768209 215.877474 
L 339.85401 215.012143 
L 340.939811 215.855841 
L 342.025613 212.740647 
L 343.111414 217.110572 
L 344.197215 212.307981 
L 345.283016 216.721173 
L 346.368817 215.509708 
L 347.454618 213.519445 
L 348.54042 215.747675 
L 349.626221 212.481047 
L 350.712022 210.836917 
L 351.797823 215.250109 
L 352.883624 211.183049 
L 353.969425 212.178181 
L 355.055227 215.423175 
L 356.141028 210.66385 
L 357.226829 209.733619 
L 358.31263 209.798519 
L 359.398431 211.983481 
L 360.484232 208.976453 
L 361.570033 210.490784 
L 362.655835 207.873155 
L 363.741636 211.377749 
L 364.827437 206.640057 
L 365.913238 210.620584 
L 366.999039 206.358825 
L 368.08484 212.134914 
L 369.170642 208.089488 
L 370.256443 213.173313 
L 371.342244 211.009983 
L 372.428045 215.271742 
L 373.513846 216.656273 
L 374.599647 217.629771 
L 375.685448 213.454545 
L 377.857051 215.228476 
L 378.942852 213.000246 
L 380.028653 214.579477 
L 381.114454 219.295535 
L 382.200255 216.266874 
L 383.286057 216.418307 
L 384.371858 206.942924 
L 385.457659 214.017011 
L 386.54346 216.850973 
L 387.629261 210.945083 
L 388.715062 212.459414 
L 389.800863 214.363144 
L 390.886665 218.062437 
L 391.972466 215.012143 
L 393.058267 210.98835 
L 394.144068 219.511868 
L 395.229869 213.952111 
L 396.31567 213.930478 
L 397.401472 217.629771 
L 398.487273 209.928318 
L 398.487273 209.928318 
" clip-path="url(#p1ff9c371c6)" style="fill: none; stroke: #2ca02c; stroke-width: 1.5; stroke-linecap: square"/>
   </g>
   <g id="line2d_22">
    <path d="M 368.08484 89.116101 
L 369.170642 94.009552 
L 370.256443 96.69154 
L 371.342244 94.966285 
L 372.428045 100.97331 
L 373.513846 101.396781 
L 374.599647 99.546053 
L 375.685448 94.135025 
L 376.77125 99.326475 
L 377.857051 95.154494 
L 378.942852 94.338919 
L 380.028653 95.78186 
L 381.114454 96.126911 
L 382.200255 97.193432 
L 383.286057 100.392997 
L 384.371858 100.189103 
L 385.457659 107.874331 
L 386.54346 106.337285 
L 387.629261 103.090668 
L 388.715062 108.297803 
L 389.800863 112.26589 
L 390.886665 107.670437 
L 391.972466 111.497367 
L 393.058267 110.619055 
L 394.144068 105.349184 
L 395.229869 114.7283 
L 396.31567 111.795366 
L 397.401472 106.682336 
L 398.487273 110.556319 
L 398.487273 110.556319 
" clip-path="url(#p1ff9c371c6)" style="fill: none; stroke: #d62728; stroke-width: 1.5; stroke-linecap: square"/>
   </g>
   <g id="line2d_23">
    <path d="M 368.08484 208.457254 
L 369.170642 217.240372 
L 370.256443 215.726041 
L 371.342244 211.507549 
L 372.428045 213.843945 
L 373.513846 219.879634 
L 374.599647 212.675747 
L 375.685448 212.50268 
L 376.77125 215.033776 
L 377.857051 211.421016 
L 378.942852 206.683324 
L 380.028653 205.753092 
L 381.114454 212.870446 
L 382.200255 214.168444 
L 383.286057 211.896948 
L 384.371858 210.382617 
L 385.457659 218.40857 
L 386.54346 219.598401 
L 387.629261 217.413438 
L 388.715062 220.571899 
L 389.800863 220.874766 
L 390.886665 220.939665 
L 391.972466 219.576768 
L 393.058267 229.50645 
L 394.144068 214.514577 
L 395.229869 222.324196 
L 396.31567 223.79526 
L 397.401472 218.386937 
L 398.487273 221.026199 
L 398.487273 221.026199 
" clip-path="url(#p1ff9c371c6)" style="fill: none; stroke: #9467bd; stroke-width: 1.5; stroke-linecap: square"/>
   </g>
   <g id="patch_3">
    <path d="M 57.6 307.584 
L 57.6 41.472 
" style="fill: none; stroke: #000000; stroke-width: 0.8; stroke-linejoin: miter; stroke-linecap: square"/>
   </g>
   <g id="patch_4">
    <path d="M 414.72 307.584 
L 414.72 41.472 
" style="fill: none; stroke: #000000; stroke-width: 0.8; stroke-linejoin: miter; stroke-linecap: square"/>
   </g>
   <g id="patch_5">
    <path d="M 57.6 307.584 
L 414.72 307.584 
" style="fill: none; stroke: #000000; stroke-width: 0.8; stroke-linejoin: miter; stroke-linecap: square"/>
   </g>
   <g id="patch_6">
    <path d="M 57.6 41.472 
L 414.72 41.472 
" style="fill: none; stroke: #000000; stroke-width: 0.8; stroke-linejoin: miter; stroke-linecap: square"/>
   </g>
   <g id="text_21">
    <!-- Learning Curves -->
    <g transform="translate(187.37625 35.472) scale(0.12 -0.12)">
     <defs>
      <path id="DejaVuSans-4c" d="M 628 4666 
L 1259 4666 
L 1259 531 
L 3531 531 
L 3531 0 
L 628 0 
L 628 4666 
z
" transform="scale(0.015625)"/>
      <path id="DejaVuSans-65" d="M 3597 1894 
L 3597 1613 
L 953 1613 
Q 991 1019 1311 708 
Q 1631 397 2203 397 
Q 2534 397 2845 478 
Q 3156 559 3463 722 
L 3463 178 
Q 3153 47 2828 -22 
Q 2503 -91 2169 -91 
Q 1331 -91 842 396 
Q 353 884 353 1716 
Q 353 2575 817 3079 
Q 1281 3584 2069 3584 
Q 2775 3584 3186 3129 
Q 3597 2675 3597 1894 
z
M 3022 2063 
Q 3016 2534 2758 2815 
Q 2500 3097 2075 3097 
Q 1594 3097 1305 2825 
Q 1016 2553 972 2059 
L 3022 2063 
z
" transform="scale(0.015625)"/>
      <path id="DejaVuSans-6e" d="M 3513 2113 
L 3513 0 
L 2938 0 
L 2938 2094 
Q 2938 2591 2744 2837 
Q 2550 3084 2163 3084 
Q 1697 3084 1428 2787 
Q 1159 2491 1159 1978 
L 1159 0 
L 581 0 
L 581 3500 
L 1159 3500 
L 1159 2956 
Q 1366 3272 1645 3428 
Q 1925 3584 2291 3584 
Q 2894 3584 3203 3211 
Q 3513 2838 3513 2113 
z
" transform="scale(0.015625)"/>
      <path id="DejaVuSans-69" d="M 603 3500 
L 1178 3500 
L 1178 0 
L 603 0 
L 603 3500 
z
M 603 4863 
L 1178 4863 
L 1178 4134 
L 603 4134 
L 603 4863 
z
" transform="scale(0.015625)"/>
      <path id="DejaVuSans-67" d="M 2906 1791 
Q 2906 2416 2648 2759 
Q 2391 3103 1925 3103 
Q 1463 3103 1205 2759 
Q 947 2416 947 1791 
Q 947 1169 1205 825 
Q 1463 481 1925 481 
Q 2391 481 2648 825 
Q 2906 1169 2906 1791 
z
M 3481 434 
Q 3481 -459 3084 -895 
Q 2688 -1331 1869 -1331 
Q 1566 -1331 1297 -1286 
Q 1028 -1241 775 -1147 
L 775 -588 
Q 1028 -725 1275 -790 
Q 1522 -856 1778 -856 
Q 2344 -856 2625 -561 
Q 2906 -266 2906 331 
L 2906 616 
Q 2728 306 2450 153 
Q 2172 0 1784 0 
Q 1141 0 747 490 
Q 353 981 353 1791 
Q 353 2603 747 3093 
Q 1141 3584 1784 3584 
Q 2172 3584 2450 3431 
Q 2728 3278 2906 2969 
L 2906 3500 
L 3481 3500 
L 3481 434 
z
" transform="scale(0.015625)"/>
      <path id="DejaVuSans-20" transform="scale(0.015625)"/>
      <path id="DejaVuSans-43" d="M 4122 4306 
L 4122 3641 
Q 3803 3938 3442 4084 
Q 3081 4231 2675 4231 
Q 1875 4231 1450 3742 
Q 1025 3253 1025 2328 
Q 1025 1406 1450 917 
Q 1875 428 2675 428 
Q 3081 428 3442 575 
Q 3803 722 4122 1019 
L 4122 359 
Q 3791 134 3420 21 
Q 3050 -91 2638 -91 
Q 1578 -91 968 557 
Q 359 1206 359 2328 
Q 359 3453 968 4101 
Q 1578 4750 2638 4750 
Q 3056 4750 3426 4639 
Q 3797 4528 4122 4306 
z
" transform="scale(0.015625)"/>
      <path id="DejaVuSans-76" d="M 191 3500 
L 800 3500 
L 1894 563 
L 2988 3500 
L 3597 3500 
L 2284 0 
L 1503 0 
L 191 3500 
z
" transform="scale(0.015625)"/>
     </defs>
     <use xlink:href="#DejaVuSans-4c"/>
     <use xlink:href="#DejaVuSans-65" x="53.962891"/>
     <use xlink:href="#DejaVuSans-61" x="115.486328"/>
     <use xlink:href="#DejaVuSans-72" x="176.765625"/>
     <use xlink:href="#DejaVuSans-6e" x="216.128906"/>
     <use xlink:href="#DejaVuSans-69" x="279.507812"/>
     <use xlink:href="#DejaVuSans-6e" x="307.291016"/>
     <use xlink:href="#DejaVuSans-67" x="370.669922"/>
     <use xlink:href="#DejaVuSans-20" x="434.146484"/>
     <use xlink:href="#DejaVuSans-43" x="465.933594"/>
     <use xlink:href="#DejaVuSans-75" x="535.757812"/>
     <use xlink:href="#DejaVuSans-72" x="599.136719"/>
     <use xlink:href="#DejaVuSans-76" x="640.25"/>
     <use xlink:href="#DejaVuSans-65" x="699.429688"/>
     <use xlink:href="#DejaVuSans-73" x="760.953125"/>
    </g>
   </g>
   <g id="legend_1">
    <g id="patch_7">
     <path d="M 139.394375 212.723313 
L 332.925625 212.723313 
Q 334.925625 212.723313 334.925625 210.723313 
L 334.925625 138.332688 
Q 334.925625 136.332688 332.925625 136.332688 
L 139.394375 136.332688 
Q 137.394375 136.332688 137.394375 138.332688 
L 137.394375 210.723313 
Q 137.394375 212.723313 139.394375 212.723313 
z
" style="fill: #ffffff; opacity: 0.8; stroke: #cccccc; stroke-linejoin: miter"/>
    </g>
    <g id="line2d_24">
     <path d="M 141.394375 144.431125 
L 151.394375 144.431125 
L 161.394375 144.431125 
" style="fill: none; stroke: #1f77b4; stroke-width: 1.5; stroke-linecap: square"/>
    </g>
    <g id="text_22">
     <!-- Train Accuracy -->
     <g transform="translate(169.394375 147.931125) scale(0.1 -0.1)">
      <defs>
       <path id="DejaVuSans-54" d="M -19 4666 
L 3928 4666 
L 3928 4134 
L 2272 4134 
L 2272 0 
L 1638 0 
L 1638 4134 
L -19 4134 
L -19 4666 
z
" transform="scale(0.015625)"/>
      </defs>
      <use xlink:href="#DejaVuSans-54"/>
      <use xlink:href="#DejaVuSans-72" x="46.333984"/>
      <use xlink:href="#DejaVuSans-61" x="87.447266"/>
      <use xlink:href="#DejaVuSans-69" x="148.726562"/>
      <use xlink:href="#DejaVuSans-6e" x="176.509766"/>
      <use xlink:href="#DejaVuSans-20" x="239.888672"/>
      <use xlink:href="#DejaVuSans-41" x="271.675781"/>
      <use xlink:href="#DejaVuSans-63" x="338.333984"/>
      <use xlink:href="#DejaVuSans-63" x="393.314453"/>
      <use xlink:href="#DejaVuSans-75" x="448.294922"/>
      <use xlink:href="#DejaVuSans-72" x="511.673828"/>
      <use xlink:href="#DejaVuSans-61" x="552.787109"/>
      <use xlink:href="#DejaVuSans-63" x="614.066406"/>
      <use xlink:href="#DejaVuSans-79" x="669.046875"/>
     </g>
    </g>
    <g id="line2d_25">
     <path d="M 141.394375 159.10925 
L 151.394375 159.10925 
L 161.394375 159.10925 
" style="fill: none; stroke: #ff7f0e; stroke-width: 1.5; stroke-linecap: square"/>
    </g>
    <g id="text_23">
     <!-- Validation Accuracy -->
     <g transform="translate(169.394375 162.60925) scale(0.1 -0.1)">
      <defs>
       <path id="DejaVuSans-56" d="M 1831 0 
L 50 4666 
L 709 4666 
L 2188 738 
L 3669 4666 
L 4325 4666 
L 2547 0 
L 1831 0 
z
" transform="scale(0.015625)"/>
       <path id="DejaVuSans-6c" d="M 603 4863 
L 1178 4863 
L 1178 0 
L 603 0 
L 603 4863 
z
" transform="scale(0.015625)"/>
       <path id="DejaVuSans-64" d="M 2906 2969 
L 2906 4863 
L 3481 4863 
L 3481 0 
L 2906 0 
L 2906 525 
Q 2725 213 2448 61 
Q 2172 -91 1784 -91 
Q 1150 -91 751 415 
Q 353 922 353 1747 
Q 353 2572 751 3078 
Q 1150 3584 1784 3584 
Q 2172 3584 2448 3432 
Q 2725 3281 2906 2969 
z
M 947 1747 
Q 947 1113 1208 752 
Q 1469 391 1925 391 
Q 2381 391 2643 752 
Q 2906 1113 2906 1747 
Q 2906 2381 2643 2742 
Q 2381 3103 1925 3103 
Q 1469 3103 1208 2742 
Q 947 2381 947 1747 
z
" transform="scale(0.015625)"/>
       <path id="DejaVuSans-74" d="M 1172 4494 
L 1172 3500 
L 2356 3500 
L 2356 3053 
L 1172 3053 
L 1172 1153 
Q 1172 725 1289 603 
Q 1406 481 1766 481 
L 2356 481 
L 2356 0 
L 1766 0 
Q 1100 0 847 248 
Q 594 497 594 1153 
L 594 3053 
L 172 3053 
L 172 3500 
L 594 3500 
L 594 4494 
L 1172 4494 
z
" transform="scale(0.015625)"/>
      </defs>
      <use xlink:href="#DejaVuSans-56"/>
      <use xlink:href="#DejaVuSans-61" x="60.658203"/>
      <use xlink:href="#DejaVuSans-6c" x="121.9375"/>
      <use xlink:href="#DejaVuSans-69" x="149.720703"/>
      <use xlink:href="#DejaVuSans-64" x="177.503906"/>
      <use xlink:href="#DejaVuSans-61" x="240.980469"/>
      <use xlink:href="#DejaVuSans-74" x="302.259766"/>
      <use xlink:href="#DejaVuSans-69" x="341.46875"/>
      <use xlink:href="#DejaVuSans-6f" x="369.251953"/>
      <use xlink:href="#DejaVuSans-6e" x="430.433594"/>
      <use xlink:href="#DejaVuSans-20" x="493.8125"/>
      <use xlink:href="#DejaVuSans-41" x="525.599609"/>
      <use xlink:href="#DejaVuSans-63" x="592.257812"/>
      <use xlink:href="#DejaVuSans-63" x="647.238281"/>
      <use xlink:href="#DejaVuSans-75" x="702.21875"/>
      <use xlink:href="#DejaVuSans-72" x="765.597656"/>
      <use xlink:href="#DejaVuSans-61" x="806.710938"/>
      <use xlink:href="#DejaVuSans-63" x="867.990234"/>
      <use xlink:href="#DejaVuSans-79" x="922.970703"/>
     </g>
    </g>
    <g id="line2d_26">
     <path d="M 141.394375 173.787375 
L 151.394375 173.787375 
L 161.394375 173.787375 
" style="fill: none; stroke: #2ca02c; stroke-width: 1.5; stroke-linecap: square"/>
    </g>
    <g id="text_24">
     <!-- Robust Validation Accuracy -->
     <g transform="translate(169.394375 177.287375) scale(0.1 -0.1)">
      <defs>
       <path id="DejaVuSans-52" d="M 2841 2188 
Q 3044 2119 3236 1894 
Q 3428 1669 3622 1275 
L 4263 0 
L 3584 0 
L 2988 1197 
Q 2756 1666 2539 1819 
Q 2322 1972 1947 1972 
L 1259 1972 
L 1259 0 
L 628 0 
L 628 4666 
L 2053 4666 
Q 2853 4666 3247 4331 
Q 3641 3997 3641 3322 
Q 3641 2881 3436 2590 
Q 3231 2300 2841 2188 
z
M 1259 4147 
L 1259 2491 
L 2053 2491 
Q 2509 2491 2742 2702 
Q 2975 2913 2975 3322 
Q 2975 3731 2742 3939 
Q 2509 4147 2053 4147 
L 1259 4147 
z
" transform="scale(0.015625)"/>
       <path id="DejaVuSans-62" d="M 3116 1747 
Q 3116 2381 2855 2742 
Q 2594 3103 2138 3103 
Q 1681 3103 1420 2742 
Q 1159 2381 1159 1747 
Q 1159 1113 1420 752 
Q 1681 391 2138 391 
Q 2594 391 2855 752 
Q 3116 1113 3116 1747 
z
M 1159 2969 
Q 1341 3281 1617 3432 
Q 1894 3584 2278 3584 
Q 2916 3584 3314 3078 
Q 3713 2572 3713 1747 
Q 3713 922 3314 415 
Q 2916 -91 2278 -91 
Q 1894 -91 1617 61 
Q 1341 213 1159 525 
L 1159 0 
L 581 0 
L 581 4863 
L 1159 4863 
L 1159 2969 
z
" transform="scale(0.015625)"/>
      </defs>
      <use xlink:href="#DejaVuSans-52"/>
      <use xlink:href="#DejaVuSans-6f" x="64.982422"/>
      <use xlink:href="#DejaVuSans-62" x="126.164062"/>
      <use xlink:href="#DejaVuSans-75" x="189.640625"/>
      <use xlink:href="#DejaVuSans-73" x="253.019531"/>
      <use xlink:href="#DejaVuSans-74" x="305.119141"/>
      <use xlink:href="#DejaVuSans-20" x="344.328125"/>
      <use xlink:href="#DejaVuSans-56" x="376.115234"/>
      <use xlink:href="#DejaVuSans-61" x="436.773438"/>
      <use xlink:href="#DejaVuSans-6c" x="498.052734"/>
      <use xlink:href="#DejaVuSans-69" x="525.835938"/>
      <use xlink:href="#DejaVuSans-64" x="553.619141"/>
      <use xlink:href="#DejaVuSans-61" x="617.095703"/>
      <use xlink:href="#DejaVuSans-74" x="678.375"/>
      <use xlink:href="#DejaVuSans-69" x="717.583984"/>
      <use xlink:href="#DejaVuSans-6f" x="745.367188"/>
      <use xlink:href="#DejaVuSans-6e" x="806.548828"/>
      <use xlink:href="#DejaVuSans-20" x="869.927734"/>
      <use xlink:href="#DejaVuSans-41" x="901.714844"/>
      <use xlink:href="#DejaVuSans-63" x="968.373047"/>
      <use xlink:href="#DejaVuSans-63" x="1023.353516"/>
      <use xlink:href="#DejaVuSans-75" x="1078.333984"/>
      <use xlink:href="#DejaVuSans-72" x="1141.712891"/>
      <use xlink:href="#DejaVuSans-61" x="1182.826172"/>
      <use xlink:href="#DejaVuSans-63" x="1244.105469"/>
      <use xlink:href="#DejaVuSans-79" x="1299.085938"/>
     </g>
    </g>
    <g id="line2d_27">
     <path d="M 141.394375 188.4655 
L 151.394375 188.4655 
L 161.394375 188.4655 
" style="fill: none; stroke: #d62728; stroke-width: 1.5; stroke-linecap: square"/>
    </g>
    <g id="text_25">
     <!-- SWA Validation Accuracy -->
     <g transform="translate(169.394375 191.9655) scale(0.1 -0.1)">
      <defs>
       <path id="DejaVuSans-53" d="M 3425 4513 
L 3425 3897 
Q 3066 4069 2747 4153 
Q 2428 4238 2131 4238 
Q 1616 4238 1336 4038 
Q 1056 3838 1056 3469 
Q 1056 3159 1242 3001 
Q 1428 2844 1947 2747 
L 2328 2669 
Q 3034 2534 3370 2195 
Q 3706 1856 3706 1288 
Q 3706 609 3251 259 
Q 2797 -91 1919 -91 
Q 1588 -91 1214 -16 
Q 841 59 441 206 
L 441 856 
Q 825 641 1194 531 
Q 1563 422 1919 422 
Q 2459 422 2753 634 
Q 3047 847 3047 1241 
Q 3047 1584 2836 1778 
Q 2625 1972 2144 2069 
L 1759 2144 
Q 1053 2284 737 2584 
Q 422 2884 422 3419 
Q 422 4038 858 4394 
Q 1294 4750 2059 4750 
Q 2388 4750 2728 4690 
Q 3069 4631 3425 4513 
z
" transform="scale(0.015625)"/>
       <path id="DejaVuSans-57" d="M 213 4666 
L 850 4666 
L 1831 722 
L 2809 4666 
L 3519 4666 
L 4500 722 
L 5478 4666 
L 6119 4666 
L 4947 0 
L 4153 0 
L 3169 4050 
L 2175 0 
L 1381 0 
L 213 4666 
z
" transform="scale(0.015625)"/>
      </defs>
      <use xlink:href="#DejaVuSans-53"/>
      <use xlink:href="#DejaVuSans-57" x="63.476562"/>
      <use xlink:href="#DejaVuSans-41" x="156.853516"/>
      <use xlink:href="#DejaVuSans-20" x="225.261719"/>
      <use xlink:href="#DejaVuSans-56" x="257.048828"/>
      <use xlink:href="#DejaVuSans-61" x="317.707031"/>
      <use xlink:href="#DejaVuSans-6c" x="378.986328"/>
      <use xlink:href="#DejaVuSans-69" x="406.769531"/>
      <use xlink:href="#DejaVuSans-64" x="434.552734"/>
      <use xlink:href="#DejaVuSans-61" x="498.029297"/>
      <use xlink:href="#DejaVuSans-74" x="559.308594"/>
      <use xlink:href="#DejaVuSans-69" x="598.517578"/>
      <use xlink:href="#DejaVuSans-6f" x="626.300781"/>
      <use xlink:href="#DejaVuSans-6e" x="687.482422"/>
      <use xlink:href="#DejaVuSans-20" x="750.861328"/>
      <use xlink:href="#DejaVuSans-41" x="782.648438"/>
      <use xlink:href="#DejaVuSans-63" x="849.306641"/>
      <use xlink:href="#DejaVuSans-63" x="904.287109"/>
      <use xlink:href="#DejaVuSans-75" x="959.267578"/>
      <use xlink:href="#DejaVuSans-72" x="1022.646484"/>
      <use xlink:href="#DejaVuSans-61" x="1063.759766"/>
      <use xlink:href="#DejaVuSans-63" x="1125.039062"/>
      <use xlink:href="#DejaVuSans-79" x="1180.019531"/>
     </g>
    </g>
    <g id="line2d_28">
     <path d="M 141.394375 203.143625 
L 151.394375 203.143625 
L 161.394375 203.143625 
" style="fill: none; stroke: #9467bd; stroke-width: 1.5; stroke-linecap: square"/>
    </g>
    <g id="text_26">
     <!-- SWA Robust Validation Accuracy -->
     <g transform="translate(169.394375 206.643625) scale(0.1 -0.1)">
      <use xlink:href="#DejaVuSans-53"/>
      <use xlink:href="#DejaVuSans-57" x="63.476562"/>
      <use xlink:href="#DejaVuSans-41" x="156.853516"/>
      <use xlink:href="#DejaVuSans-20" x="225.261719"/>
      <use xlink:href="#DejaVuSans-52" x="257.048828"/>
      <use xlink:href="#DejaVuSans-6f" x="322.03125"/>
      <use xlink:href="#DejaVuSans-62" x="383.212891"/>
      <use xlink:href="#DejaVuSans-75" x="446.689453"/>
      <use xlink:href="#DejaVuSans-73" x="510.068359"/>
      <use xlink:href="#DejaVuSans-74" x="562.167969"/>
      <use xlink:href="#DejaVuSans-20" x="601.376953"/>
      <use xlink:href="#DejaVuSans-56" x="633.164062"/>
      <use xlink:href="#DejaVuSans-61" x="693.822266"/>
      <use xlink:href="#DejaVuSans-6c" x="755.101562"/>
      <use xlink:href="#DejaVuSans-69" x="782.884766"/>
      <use xlink:href="#DejaVuSans-64" x="810.667969"/>
      <use xlink:href="#DejaVuSans-61" x="874.144531"/>
      <use xlink:href="#DejaVuSans-74" x="935.423828"/>
      <use xlink:href="#DejaVuSans-69" x="974.632812"/>
      <use xlink:href="#DejaVuSans-6f" x="1002.416016"/>
      <use xlink:href="#DejaVuSans-6e" x="1063.597656"/>
      <use xlink:href="#DejaVuSans-20" x="1126.976562"/>
      <use xlink:href="#DejaVuSans-41" x="1158.763672"/>
      <use xlink:href="#DejaVuSans-63" x="1225.421875"/>
      <use xlink:href="#DejaVuSans-63" x="1280.402344"/>
      <use xlink:href="#DejaVuSans-75" x="1335.382812"/>
      <use xlink:href="#DejaVuSans-72" x="1398.761719"/>
      <use xlink:href="#DejaVuSans-61" x="1439.875"/>
      <use xlink:href="#DejaVuSans-63" x="1501.154297"/>
      <use xlink:href="#DejaVuSans-79" x="1556.134766"/>
     </g>
    </g>
   </g>
  </g>
 </g>
 <defs>
  <clipPath id="p1ff9c371c6">
   <rect x="57.6" y="41.472" width="357.12" height="266.112"/>
  </clipPath>
 </defs>
</svg>
