<?xml version="1.0" encoding="utf-8" standalone="no"?>
<!DOCTYPE svg PUBLIC "-//W3C//DTD SVG 1.1//EN"
  "http://www.w3.org/Graphics/SVG/1.1/DTD/svg11.dtd">
<svg xmlns:xlink="http://www.w3.org/1999/xlink" width="460.8pt" height="345.6pt" viewBox="0 0 460.8 345.6" xmlns="http://www.w3.org/2000/svg" version="1.1">
 <metadata>
  <rdf:RDF xmlns:dc="http://purl.org/dc/elements/1.1/" xmlns:cc="http://creativecommons.org/ns#" xmlns:rdf="http://www.w3.org/1999/02/22-rdf-syntax-ns#">
   <cc:Work>
    <dc:type rdf:resource="http://purl.org/dc/dcmitype/StillImage"/>
    <dc:date>2025-08-03T08:54:21.857535</dc:date>
    <dc:format>image/svg+xml</dc:format>
    <dc:creator>
     <cc:Agent>
      <dc:title>Matplotlib v3.9.1, https://matplotlib.org/</dc:title>
     </cc:Agent>
    </dc:creator>
   </cc:Work>
  </rdf:RDF>
 </metadata>
 <defs>
  <style type="text/css">*{stroke-linejoin: round; stroke-linecap: butt}</style>
 </defs>
 <g id="figure_1">
  <g id="patch_1">
   <path d="M 0 345.6 
L 460.8 345.6 
L 460.8 0 
L 0 0 
z
" style="fill: #ffffff"/>
  </g>
  <g id="axes_1">
   <g id="patch_2">
    <path d="M 57.6 307.584 
L 414.72 307.584 
L 414.72 41.472 
L 57.6 41.472 
z
" style="fill: #ffffff"/>
   </g>
   <g id="matplotlib.axis_1">
    <g id="xtick_1">
     <g id="line2d_1">
      <defs>
       <path id="m3c5f95149d" d="M 0 0 
L 0 3.5 
" style="stroke: #000000; stroke-width: 0.8"/>
      </defs>
      <g>
       <use xlink:href="#m3c5f95149d" x="73.832727" y="307.584" style="stroke: #000000; stroke-width: 0.8"/>
      </g>
     </g>
     <g id="text_1">
      <!-- 1 -->
      <g transform="translate(70.651477 322.182437) scale(0.1 -0.1)">
       <defs>
        <path id="DejaVuSans-31" d="M 794 531 
L 1825 531 
L 1825 4091 
L 703 3866 
L 703 4441 
L 1819 4666 
L 2450 4666 
L 2450 531 
L 3481 531 
L 3481 0 
L 794 0 
L 794 531 
z
" transform="scale(0.015625)"/>
       </defs>
       <use xlink:href="#DejaVuSans-31"/>
      </g>
     </g>
    </g>
    <g id="xtick_2">
     <g id="line2d_2">
      <g>
       <use xlink:href="#m3c5f95149d" x="109.664165" y="307.584" style="stroke: #000000; stroke-width: 0.8"/>
      </g>
     </g>
     <g id="text_2">
      <!-- 34 -->
      <g transform="translate(103.301665 322.182437) scale(0.1 -0.1)">
       <defs>
        <path id="DejaVuSans-33" d="M 2597 2516 
Q 3050 2419 3304 2112 
Q 3559 1806 3559 1356 
Q 3559 666 3084 287 
Q 2609 -91 1734 -91 
Q 1441 -91 1130 -33 
Q 819 25 488 141 
L 488 750 
Q 750 597 1062 519 
Q 1375 441 1716 441 
Q 2309 441 2620 675 
Q 2931 909 2931 1356 
Q 2931 1769 2642 2001 
Q 2353 2234 1838 2234 
L 1294 2234 
L 1294 2753 
L 1863 2753 
Q 2328 2753 2575 2939 
Q 2822 3125 2822 3475 
Q 2822 3834 2567 4026 
Q 2313 4219 1838 4219 
Q 1578 4219 1281 4162 
Q 984 4106 628 3988 
L 628 4550 
Q 988 4650 1302 4700 
Q 1616 4750 1894 4750 
Q 2613 4750 3031 4423 
Q 3450 4097 3450 3541 
Q 3450 3153 3228 2886 
Q 3006 2619 2597 2516 
z
" transform="scale(0.015625)"/>
        <path id="DejaVuSans-34" d="M 2419 4116 
L 825 1625 
L 2419 1625 
L 2419 4116 
z
M 2253 4666 
L 3047 4666 
L 3047 1625 
L 3713 1625 
L 3713 1100 
L 3047 1100 
L 3047 0 
L 2419 0 
L 2419 1100 
L 313 1100 
L 313 1709 
L 2253 4666 
z
" transform="scale(0.015625)"/>
       </defs>
       <use xlink:href="#DejaVuSans-33"/>
       <use xlink:href="#DejaVuSans-34" x="63.623047"/>
      </g>
     </g>
    </g>
    <g id="xtick_3">
     <g id="line2d_3">
      <g>
       <use xlink:href="#m3c5f95149d" x="145.495604" y="307.584" style="stroke: #000000; stroke-width: 0.8"/>
      </g>
     </g>
     <g id="text_3">
      <!-- 67 -->
      <g transform="translate(139.133104 322.182437) scale(0.1 -0.1)">
       <defs>
        <path id="DejaVuSans-36" d="M 2113 2584 
Q 1688 2584 1439 2293 
Q 1191 2003 1191 1497 
Q 1191 994 1439 701 
Q 1688 409 2113 409 
Q 2538 409 2786 701 
Q 3034 994 3034 1497 
Q 3034 2003 2786 2293 
Q 2538 2584 2113 2584 
z
M 3366 4563 
L 3366 3988 
Q 3128 4100 2886 4159 
Q 2644 4219 2406 4219 
Q 1781 4219 1451 3797 
Q 1122 3375 1075 2522 
Q 1259 2794 1537 2939 
Q 1816 3084 2150 3084 
Q 2853 3084 3261 2657 
Q 3669 2231 3669 1497 
Q 3669 778 3244 343 
Q 2819 -91 2113 -91 
Q 1303 -91 875 529 
Q 447 1150 447 2328 
Q 447 3434 972 4092 
Q 1497 4750 2381 4750 
Q 2619 4750 2861 4703 
Q 3103 4656 3366 4563 
z
" transform="scale(0.015625)"/>
        <path id="DejaVuSans-37" d="M 525 4666 
L 3525 4666 
L 3525 4397 
L 1831 0 
L 1172 0 
L 2766 4134 
L 525 4134 
L 525 4666 
z
" transform="scale(0.015625)"/>
       </defs>
       <use xlink:href="#DejaVuSans-36"/>
       <use xlink:href="#DejaVuSans-37" x="63.623047"/>
      </g>
     </g>
    </g>
    <g id="xtick_4">
     <g id="line2d_4">
      <g>
       <use xlink:href="#m3c5f95149d" x="181.327042" y="307.584" style="stroke: #000000; stroke-width: 0.8"/>
      </g>
     </g>
     <g id="text_4">
      <!-- 100 -->
      <g transform="translate(171.783292 322.182437) scale(0.1 -0.1)">
       <defs>
        <path id="DejaVuSans-30" d="M 2034 4250 
Q 1547 4250 1301 3770 
Q 1056 3291 1056 2328 
Q 1056 1369 1301 889 
Q 1547 409 2034 409 
Q 2525 409 2770 889 
Q 3016 1369 3016 2328 
Q 3016 3291 2770 3770 
Q 2525 4250 2034 4250 
z
M 2034 4750 
Q 2819 4750 3233 4129 
Q 3647 3509 3647 2328 
Q 3647 1150 3233 529 
Q 2819 -91 2034 -91 
Q 1250 -91 836 529 
Q 422 1150 422 2328 
Q 422 3509 836 4129 
Q 1250 4750 2034 4750 
z
" transform="scale(0.015625)"/>
       </defs>
       <use xlink:href="#DejaVuSans-31"/>
       <use xlink:href="#DejaVuSans-30" x="63.623047"/>
       <use xlink:href="#DejaVuSans-30" x="127.246094"/>
      </g>
     </g>
    </g>
    <g id="xtick_5">
     <g id="line2d_5">
      <g>
       <use xlink:href="#m3c5f95149d" x="217.15848" y="307.584" style="stroke: #000000; stroke-width: 0.8"/>
      </g>
     </g>
     <g id="text_5">
      <!-- 133 -->
      <g transform="translate(207.61473 322.182437) scale(0.1 -0.1)">
       <use xlink:href="#DejaVuSans-31"/>
       <use xlink:href="#DejaVuSans-33" x="63.623047"/>
       <use xlink:href="#DejaVuSans-33" x="127.246094"/>
      </g>
     </g>
    </g>
    <g id="xtick_6">
     <g id="line2d_6">
      <g>
       <use xlink:href="#m3c5f95149d" x="254.075719" y="307.584" style="stroke: #000000; stroke-width: 0.8"/>
      </g>
     </g>
     <g id="text_6">
      <!-- 167 -->
      <g transform="translate(244.531969 322.182437) scale(0.1 -0.1)">
       <use xlink:href="#DejaVuSans-31"/>
       <use xlink:href="#DejaVuSans-36" x="63.623047"/>
       <use xlink:href="#DejaVuSans-37" x="127.246094"/>
      </g>
     </g>
    </g>
    <g id="xtick_7">
     <g id="line2d_7">
      <g>
       <use xlink:href="#m3c5f95149d" x="289.907157" y="307.584" style="stroke: #000000; stroke-width: 0.8"/>
      </g>
     </g>
     <g id="text_7">
      <!-- 200 -->
      <g transform="translate(280.363407 322.182437) scale(0.1 -0.1)">
       <defs>
        <path id="DejaVuSans-32" d="M 1228 531 
L 3431 531 
L 3431 0 
L 469 0 
L 469 531 
Q 828 903 1448 1529 
Q 2069 2156 2228 2338 
Q 2531 2678 2651 2914 
Q 2772 3150 2772 3378 
Q 2772 3750 2511 3984 
Q 2250 4219 1831 4219 
Q 1534 4219 1204 4116 
Q 875 4013 500 3803 
L 500 4441 
Q 881 4594 1212 4672 
Q 1544 4750 1819 4750 
Q 2544 4750 2975 4387 
Q 3406 4025 3406 3419 
Q 3406 3131 3298 2873 
Q 3191 2616 2906 2266 
Q 2828 2175 2409 1742 
Q 1991 1309 1228 531 
z
" transform="scale(0.015625)"/>
       </defs>
       <use xlink:href="#DejaVuSans-32"/>
       <use xlink:href="#DejaVuSans-30" x="63.623047"/>
       <use xlink:href="#DejaVuSans-30" x="127.246094"/>
      </g>
     </g>
    </g>
    <g id="xtick_8">
     <g id="line2d_8">
      <g>
       <use xlink:href="#m3c5f95149d" x="325.738595" y="307.584" style="stroke: #000000; stroke-width: 0.8"/>
      </g>
     </g>
     <g id="text_8">
      <!-- 233 -->
      <g transform="translate(316.194845 322.182437) scale(0.1 -0.1)">
       <use xlink:href="#DejaVuSans-32"/>
       <use xlink:href="#DejaVuSans-33" x="63.623047"/>
       <use xlink:href="#DejaVuSans-33" x="127.246094"/>
      </g>
     </g>
    </g>
    <g id="xtick_9">
     <g id="line2d_9">
      <g>
       <use xlink:href="#m3c5f95149d" x="361.570033" y="307.584" style="stroke: #000000; stroke-width: 0.8"/>
      </g>
     </g>
     <g id="text_9">
      <!-- 266 -->
      <g transform="translate(352.026283 322.182437) scale(0.1 -0.1)">
       <use xlink:href="#DejaVuSans-32"/>
       <use xlink:href="#DejaVuSans-36" x="63.623047"/>
       <use xlink:href="#DejaVuSans-36" x="127.246094"/>
      </g>
     </g>
    </g>
    <g id="xtick_10">
     <g id="line2d_10">
      <g>
       <use xlink:href="#m3c5f95149d" x="398.487273" y="307.584" style="stroke: #000000; stroke-width: 0.8"/>
      </g>
     </g>
     <g id="text_10">
      <!-- 300 -->
      <g transform="translate(388.943523 322.182437) scale(0.1 -0.1)">
       <use xlink:href="#DejaVuSans-33"/>
       <use xlink:href="#DejaVuSans-30" x="63.623047"/>
       <use xlink:href="#DejaVuSans-30" x="127.246094"/>
      </g>
     </g>
    </g>
    <g id="text_11">
     <!-- Epochs -->
     <g transform="translate(218.244375 335.860562) scale(0.1 -0.1)">
      <defs>
       <path id="DejaVuSans-45" d="M 628 4666 
L 3578 4666 
L 3578 4134 
L 1259 4134 
L 1259 2753 
L 3481 2753 
L 3481 2222 
L 1259 2222 
L 1259 531 
L 3634 531 
L 3634 0 
L 628 0 
L 628 4666 
z
" transform="scale(0.015625)"/>
       <path id="DejaVuSans-70" d="M 1159 525 
L 1159 -1331 
L 581 -1331 
L 581 3500 
L 1159 3500 
L 1159 2969 
Q 1341 3281 1617 3432 
Q 1894 3584 2278 3584 
Q 2916 3584 3314 3078 
Q 3713 2572 3713 1747 
Q 3713 922 3314 415 
Q 2916 -91 2278 -91 
Q 1894 -91 1617 61 
Q 1341 213 1159 525 
z
M 3116 1747 
Q 3116 2381 2855 2742 
Q 2594 3103 2138 3103 
Q 1681 3103 1420 2742 
Q 1159 2381 1159 1747 
Q 1159 1113 1420 752 
Q 1681 391 2138 391 
Q 2594 391 2855 752 
Q 3116 1113 3116 1747 
z
" transform="scale(0.015625)"/>
       <path id="DejaVuSans-6f" d="M 1959 3097 
Q 1497 3097 1228 2736 
Q 959 2375 959 1747 
Q 959 1119 1226 758 
Q 1494 397 1959 397 
Q 2419 397 2687 759 
Q 2956 1122 2956 1747 
Q 2956 2369 2687 2733 
Q 2419 3097 1959 3097 
z
M 1959 3584 
Q 2709 3584 3137 3096 
Q 3566 2609 3566 1747 
Q 3566 888 3137 398 
Q 2709 -91 1959 -91 
Q 1206 -91 779 398 
Q 353 888 353 1747 
Q 353 2609 779 3096 
Q 1206 3584 1959 3584 
z
" transform="scale(0.015625)"/>
       <path id="DejaVuSans-63" d="M 3122 3366 
L 3122 2828 
Q 2878 2963 2633 3030 
Q 2388 3097 2138 3097 
Q 1578 3097 1268 2742 
Q 959 2388 959 1747 
Q 959 1106 1268 751 
Q 1578 397 2138 397 
Q 2388 397 2633 464 
Q 2878 531 3122 666 
L 3122 134 
Q 2881 22 2623 -34 
Q 2366 -91 2075 -91 
Q 1284 -91 818 406 
Q 353 903 353 1747 
Q 353 2603 823 3093 
Q 1294 3584 2113 3584 
Q 2378 3584 2631 3529 
Q 2884 3475 3122 3366 
z
" transform="scale(0.015625)"/>
       <path id="DejaVuSans-68" d="M 3513 2113 
L 3513 0 
L 2938 0 
L 2938 2094 
Q 2938 2591 2744 2837 
Q 2550 3084 2163 3084 
Q 1697 3084 1428 2787 
Q 1159 2491 1159 1978 
L 1159 0 
L 581 0 
L 581 4863 
L 1159 4863 
L 1159 2956 
Q 1366 3272 1645 3428 
Q 1925 3584 2291 3584 
Q 2894 3584 3203 3211 
Q 3513 2838 3513 2113 
z
" transform="scale(0.015625)"/>
       <path id="DejaVuSans-73" d="M 2834 3397 
L 2834 2853 
Q 2591 2978 2328 3040 
Q 2066 3103 1784 3103 
Q 1356 3103 1142 2972 
Q 928 2841 928 2578 
Q 928 2378 1081 2264 
Q 1234 2150 1697 2047 
L 1894 2003 
Q 2506 1872 2764 1633 
Q 3022 1394 3022 966 
Q 3022 478 2636 193 
Q 2250 -91 1575 -91 
Q 1294 -91 989 -36 
Q 684 19 347 128 
L 347 722 
Q 666 556 975 473 
Q 1284 391 1588 391 
Q 1994 391 2212 530 
Q 2431 669 2431 922 
Q 2431 1156 2273 1281 
Q 2116 1406 1581 1522 
L 1381 1569 
Q 847 1681 609 1914 
Q 372 2147 372 2553 
Q 372 3047 722 3315 
Q 1072 3584 1716 3584 
Q 2034 3584 2315 3537 
Q 2597 3491 2834 3397 
z
" transform="scale(0.015625)"/>
      </defs>
      <use xlink:href="#DejaVuSans-45"/>
      <use xlink:href="#DejaVuSans-70" x="63.183594"/>
      <use xlink:href="#DejaVuSans-6f" x="126.660156"/>
      <use xlink:href="#DejaVuSans-63" x="187.841797"/>
      <use xlink:href="#DejaVuSans-68" x="242.822266"/>
      <use xlink:href="#DejaVuSans-73" x="306.201172"/>
     </g>
    </g>
   </g>
   <g id="matplotlib.axis_2">
    <g id="ytick_1">
     <g id="line2d_11">
      <defs>
       <path id="m8059befee7" d="M 0 0 
L -3.5 0 
" style="stroke: #000000; stroke-width: 0.8"/>
      </defs>
      <g>
       <use xlink:href="#m8059befee7" x="57.6" y="303.329396" style="stroke: #000000; stroke-width: 0.8"/>
      </g>
     </g>
     <g id="text_12">
      <!-- 0 -->
      <g transform="translate(44.2375 307.128615) scale(0.1 -0.1)">
       <use xlink:href="#DejaVuSans-30"/>
      </g>
     </g>
    </g>
    <g id="ytick_2">
     <g id="line2d_12">
      <g>
       <use xlink:href="#m8059befee7" x="57.6" y="245.88327" style="stroke: #000000; stroke-width: 0.8"/>
      </g>
     </g>
     <g id="text_13">
      <!-- 20 -->
      <g transform="translate(37.875 249.682489) scale(0.1 -0.1)">
       <use xlink:href="#DejaVuSans-32"/>
       <use xlink:href="#DejaVuSans-30" x="63.623047"/>
      </g>
     </g>
    </g>
    <g id="ytick_3">
     <g id="line2d_13">
      <g>
       <use xlink:href="#m8059befee7" x="57.6" y="188.437143" style="stroke: #000000; stroke-width: 0.8"/>
      </g>
     </g>
     <g id="text_14">
      <!-- 40 -->
      <g transform="translate(37.875 192.236362) scale(0.1 -0.1)">
       <use xlink:href="#DejaVuSans-34"/>
       <use xlink:href="#DejaVuSans-30" x="63.623047"/>
      </g>
     </g>
    </g>
    <g id="ytick_4">
     <g id="line2d_14">
      <g>
       <use xlink:href="#m8059befee7" x="57.6" y="130.991017" style="stroke: #000000; stroke-width: 0.8"/>
      </g>
     </g>
     <g id="text_15">
      <!-- 60 -->
      <g transform="translate(37.875 134.790236) scale(0.1 -0.1)">
       <use xlink:href="#DejaVuSans-36"/>
       <use xlink:href="#DejaVuSans-30" x="63.623047"/>
      </g>
     </g>
    </g>
    <g id="ytick_5">
     <g id="line2d_15">
      <g>
       <use xlink:href="#m8059befee7" x="57.6" y="73.54489" style="stroke: #000000; stroke-width: 0.8"/>
      </g>
     </g>
     <g id="text_16">
      <!-- 80 -->
      <g transform="translate(37.875 77.344109) scale(0.1 -0.1)">
       <defs>
        <path id="DejaVuSans-38" d="M 2034 2216 
Q 1584 2216 1326 1975 
Q 1069 1734 1069 1313 
Q 1069 891 1326 650 
Q 1584 409 2034 409 
Q 2484 409 2743 651 
Q 3003 894 3003 1313 
Q 3003 1734 2745 1975 
Q 2488 2216 2034 2216 
z
M 1403 2484 
Q 997 2584 770 2862 
Q 544 3141 544 3541 
Q 544 4100 942 4425 
Q 1341 4750 2034 4750 
Q 2731 4750 3128 4425 
Q 3525 4100 3525 3541 
Q 3525 3141 3298 2862 
Q 3072 2584 2669 2484 
Q 3125 2378 3379 2068 
Q 3634 1759 3634 1313 
Q 3634 634 3220 271 
Q 2806 -91 2034 -91 
Q 1263 -91 848 271 
Q 434 634 434 1313 
Q 434 1759 690 2068 
Q 947 2378 1403 2484 
z
M 1172 3481 
Q 1172 3119 1398 2916 
Q 1625 2713 2034 2713 
Q 2441 2713 2670 2916 
Q 2900 3119 2900 3481 
Q 2900 3844 2670 4047 
Q 2441 4250 2034 4250 
Q 1625 4250 1398 4047 
Q 1172 3844 1172 3481 
z
" transform="scale(0.015625)"/>
       </defs>
       <use xlink:href="#DejaVuSans-38"/>
       <use xlink:href="#DejaVuSans-30" x="63.623047"/>
      </g>
     </g>
    </g>
    <g id="text_17">
     <!-- Accuracy -->
     <g transform="translate(31.795312 197.356125) rotate(-90) scale(0.1 -0.1)">
      <defs>
       <path id="DejaVuSans-41" d="M 2188 4044 
L 1331 1722 
L 3047 1722 
L 2188 4044 
z
M 1831 4666 
L 2547 4666 
L 4325 0 
L 3669 0 
L 3244 1197 
L 1141 1197 
L 716 0 
L 50 0 
L 1831 4666 
z
" transform="scale(0.015625)"/>
       <path id="DejaVuSans-75" d="M 544 1381 
L 544 3500 
L 1119 3500 
L 1119 1403 
Q 1119 906 1312 657 
Q 1506 409 1894 409 
Q 2359 409 2629 706 
Q 2900 1003 2900 1516 
L 2900 3500 
L 3475 3500 
L 3475 0 
L 2900 0 
L 2900 538 
Q 2691 219 2414 64 
Q 2138 -91 1772 -91 
Q 1169 -91 856 284 
Q 544 659 544 1381 
z
M 1991 3584 
L 1991 3584 
z
" transform="scale(0.015625)"/>
       <path id="DejaVuSans-72" d="M 2631 2963 
Q 2534 3019 2420 3045 
Q 2306 3072 2169 3072 
Q 1681 3072 1420 2755 
Q 1159 2438 1159 1844 
L 1159 0 
L 581 0 
L 581 3500 
L 1159 3500 
L 1159 2956 
Q 1341 3275 1631 3429 
Q 1922 3584 2338 3584 
Q 2397 3584 2469 3576 
Q 2541 3569 2628 3553 
L 2631 2963 
z
" transform="scale(0.015625)"/>
       <path id="DejaVuSans-61" d="M 2194 1759 
Q 1497 1759 1228 1600 
Q 959 1441 959 1056 
Q 959 750 1161 570 
Q 1363 391 1709 391 
Q 2188 391 2477 730 
Q 2766 1069 2766 1631 
L 2766 1759 
L 2194 1759 
z
M 3341 1997 
L 3341 0 
L 2766 0 
L 2766 531 
Q 2569 213 2275 61 
Q 1981 -91 1556 -91 
Q 1019 -91 701 211 
Q 384 513 384 1019 
Q 384 1609 779 1909 
Q 1175 2209 1959 2209 
L 2766 2209 
L 2766 2266 
Q 2766 2663 2505 2880 
Q 2244 3097 1772 3097 
Q 1472 3097 1187 3025 
Q 903 2953 641 2809 
L 641 3341 
Q 956 3463 1253 3523 
Q 1550 3584 1831 3584 
Q 2591 3584 2966 3190 
Q 3341 2797 3341 1997 
z
" transform="scale(0.015625)"/>
       <path id="DejaVuSans-79" d="M 2059 -325 
Q 1816 -950 1584 -1140 
Q 1353 -1331 966 -1331 
L 506 -1331 
L 506 -850 
L 844 -850 
Q 1081 -850 1212 -737 
Q 1344 -625 1503 -206 
L 1606 56 
L 191 3500 
L 800 3500 
L 1894 763 
L 2988 3500 
L 3597 3500 
L 2059 -325 
z
" transform="scale(0.015625)"/>
      </defs>
      <use xlink:href="#DejaVuSans-41"/>
      <use xlink:href="#DejaVuSans-63" x="66.658203"/>
      <use xlink:href="#DejaVuSans-63" x="121.638672"/>
      <use xlink:href="#DejaVuSans-75" x="176.619141"/>
      <use xlink:href="#DejaVuSans-72" x="239.998047"/>
      <use xlink:href="#DejaVuSans-61" x="281.111328"/>
      <use xlink:href="#DejaVuSans-63" x="342.390625"/>
      <use xlink:href="#DejaVuSans-79" x="397.371094"/>
     </g>
    </g>
   </g>
   <g id="line2d_16">
    <path d="M 73.832727 295.488 
L 77.090131 258.187512 
L 78.175932 248.461165 
L 79.261733 239.862198 
L 81.433335 225.640691 
L 82.519137 219.271352 
L 84.690739 208.65818 
L 85.77654 203.495209 
L 87.948142 194.22125 
L 89.033943 191.173015 
L 90.119745 187.37439 
L 91.205546 183.15928 
L 92.291347 181.084039 
L 93.377148 179.816634 
L 94.462949 178.84005 
L 95.54875 207.243569 
L 96.634552 206.363925 
L 97.720353 203.3121 
L 98.806154 199.556559 
L 99.891955 196.745289 
L 100.977756 193.585752 
L 102.063557 191.585909 
L 104.23516 185.77667 
L 105.320961 183.766055 
L 106.406762 180.24748 
L 107.492563 178.042985 
L 109.664165 172.639459 
L 110.749967 170.287758 
L 111.835768 168.478205 
L 112.921569 165.397656 
L 114.00737 163.807117 
L 115.093171 160.536278 
L 117.264773 156.561724 
L 118.350575 153.556573 
L 120.522177 148.379241 
L 124.865382 138.308217 
L 125.951183 136.444809 
L 127.036984 134.168506 
L 128.122785 132.52052 
L 129.208586 130.032385 
L 130.294387 128.064855 
L 133.551791 123.390176 
L 134.637592 122.542846 
L 135.723393 122.104819 
L 136.809194 122.025831 
L 137.894995 121.350839 
L 138.980797 165.131968 
L 140.066598 167.182077 
L 141.152399 166.679423 
L 142.2382 165.264812 
L 143.324001 164.259505 
L 144.409802 163.925599 
L 145.495604 160.863003 
L 146.581405 160.866593 
L 149.838808 156.400157 
L 152.01041 153.865346 
L 153.096212 152.533314 
L 154.182013 151.484923 
L 155.267814 150.612459 
L 156.353615 149.546116 
L 157.439416 147.61449 
L 160.69682 144.164132 
L 161.782621 143.381428 
L 162.868422 141.604189 
L 163.954223 140.056734 
L 167.211627 136.207843 
L 168.297428 135.116367 
L 170.46903 132.380495 
L 171.554831 131.762949 
L 172.640632 129.551273 
L 173.726434 129.027077 
L 174.812235 126.133229 
L 175.898036 125.619804 
L 176.983837 123.23938 
L 178.069638 122.542846 
L 179.155439 121.282622 
L 180.24124 119.566419 
L 181.327042 118.521617 
L 182.412843 117.175224 
L 183.498644 114.841475 
L 184.584445 113.20785 
L 185.670246 112.396424 
L 186.756047 109.998048 
L 187.841849 109.459491 
L 188.92765 107.829457 
L 190.013451 105.973229 
L 191.099252 104.917656 
L 192.185053 102.027398 
L 194.356656 99.453093 
L 195.442457 97.410166 
L 196.528258 96.160712 
L 197.614059 94.351159 
L 198.69986 93.13402 
L 199.785661 92.193339 
L 200.871462 90.961838 
L 203.043065 86.793403 
L 204.128866 86.186629 
L 205.214667 85.210045 
L 206.300468 83.404082 
L 207.386269 82.409546 
L 209.557872 79.303865 
L 210.643673 78.646825 
L 211.729474 77.835398 
L 212.815275 77.307612 
L 214.986877 75.709891 
L 216.072679 75.347263 
L 217.15848 74.076267 
L 218.244281 73.523348 
L 219.330082 73.494625 
L 221.501684 72.60421 
L 222.587486 72.625752 
L 223.673287 72.363654 
L 224.759088 72.571897 
L 225.844889 137.651177 
L 226.93069 142.024264 
L 228.016491 141.553923 
L 229.102292 141.356452 
L 230.188094 141.273874 
L 231.273895 139.284801 
L 232.359696 139.507405 
L 233.445497 138.268723 
L 236.702901 136.333507 
L 237.788702 134.340844 
L 238.874503 134.046433 
L 239.960304 134.725015 
L 241.046105 133.866914 
L 242.131906 132.603099 
L 243.217708 132.215337 
L 244.303509 131.375188 
L 245.38931 131.041282 
L 246.475111 130.27294 
L 247.560912 129.246091 
L 248.646713 128.732666 
L 249.732514 128.355676 
L 252.989918 125.612623 
L 254.075719 125.382839 
L 255.16152 125.3972 
L 256.247321 124.822739 
L 257.333123 123.228609 
L 258.418924 122.830077 
L 259.504725 122.280748 
L 260.590526 121.900167 
L 261.676327 121.35802 
L 262.762128 121.106693 
L 263.847929 120.478376 
L 264.933731 119.257646 
L 266.019532 119.002728 
L 267.105333 118.381592 
L 268.191134 117.907662 
L 269.276935 117.05315 
L 270.362736 116.791053 
L 271.448538 116.370978 
L 272.534339 115.609817 
L 273.62014 114.313688 
L 274.705941 113.836167 
L 275.791742 112.701606 
L 276.877543 113.39096 
L 277.963344 112.195362 
L 279.049146 111.190055 
L 280.134947 110.917186 
L 282.306549 109.197393 
L 283.39235 108.895801 
L 284.478151 108.23158 
L 285.563953 107.994614 
L 286.649754 107.502732 
L 287.735555 106.594365 
L 288.821356 105.431081 
L 289.907157 104.76686 
L 290.992958 104.637606 
L 293.164561 103.003982 
L 294.250362 103.269671 
L 295.336163 102.558775 
L 296.421964 101.355996 
L 297.507765 100.652281 
L 298.593566 99.693649 
L 299.679368 99.51413 
L 300.765169 98.587811 
L 302.936771 96.455124 
L 304.022572 96.146351 
L 305.108373 94.674294 
L 306.194175 94.667113 
L 307.279976 93.550504 
L 308.365777 93.676167 
L 309.451578 91.529118 
L 311.62318 91.608107 
L 312.708981 90.100146 
L 313.794783 89.798554 
L 314.880584 88.549101 
L 315.966385 87.877699 
L 317.052186 87.389407 
L 318.137987 86.506173 
L 319.223788 85.385973 
L 320.30959 85.238768 
L 321.395391 83.795434 
L 322.481192 83.163526 
L 323.566993 82.061279 
L 325.738595 81.440142 
L 326.824396 80.585631 
L 327.910198 79.196153 
L 328.995999 78.467305 
L 331.167601 77.602023 
L 332.253402 76.126376 
L 333.339203 76.090472 
L 334.425005 74.543017 
L 335.510806 73.419227 
L 336.596607 73.002743 
L 337.682408 72.421101 
L 338.768209 71.566589 
L 339.85401 70.500246 
L 340.939811 69.918604 
L 342.025613 68.353197 
L 343.111414 68.094689 
L 344.197215 67.064249 
L 345.283016 67.013984 
L 346.368817 65.918917 
L 347.454618 66.102027 
L 348.54042 65.276239 
L 349.626221 63.88676 
L 350.712022 62.791694 
L 352.883624 61.865375 
L 353.969425 60.271245 
L 355.055227 60.781079 
L 356.141028 59.481361 
L 357.226829 59.021792 
L 358.31263 58.343209 
L 360.484232 56.479801 
L 361.570033 56.688043 
L 362.655835 55.277022 
L 363.741636 55.25548 
L 364.827437 54.31839 
L 365.913238 53.568 
L 366.999039 53.575181 
L 368.08484 54.339932 
L 369.170642 56.163847 
L 370.256443 58.371932 
L 372.428045 62.263907 
L 373.513846 63.139961 
L 374.599647 63.358974 
L 376.77125 63.183045 
L 377.857051 63.297938 
L 378.942852 63.771868 
L 380.028653 63.218949 
L 381.114454 62.798874 
L 382.200255 62.877863 
L 383.286057 63.402059 
L 386.54346 63.746736 
L 387.629261 63.157913 
L 388.715062 64.482764 
L 389.800863 64.235028 
L 390.886665 64.694597 
L 391.972466 64.041147 
L 393.058267 64.44327 
L 394.144068 64.217076 
L 395.229869 64.130907 
L 396.31567 63.595939 
L 397.401472 64.123726 
L 398.487273 63.685699 
L 398.487273 63.685699 
" clip-path="url(#p35d8c9c7f2)" style="fill: none; stroke: #1f77b4; stroke-width: 1.5; stroke-linecap: square"/>
   </g>
   <g id="line2d_17">
    <path d="M 73.832727 283.639736 
L 74.918528 269.680328 
L 76.00433 250.593852 
L 77.090131 240.454611 
L 78.175932 228.419647 
L 79.261733 219.558582 
L 80.347534 212.076224 
L 81.433335 207.466173 
L 82.519137 200.97476 
L 83.604938 197.384378 
L 84.690739 190.404673 
L 85.77654 189.112135 
L 87.948142 179.748417 
L 89.033943 178.74311 
L 90.119745 173.572958 
L 91.205546 172.17989 
L 92.291347 171.117136 
L 93.377148 169.680983 
L 94.462949 169.752791 
L 95.54875 191.366896 
L 97.720353 188.250443 
L 98.806154 185.737175 
L 99.891955 186.843013 
L 100.977756 184.473361 
L 102.063557 173.156474 
L 103.149358 176.818664 
L 104.23516 175.023473 
L 105.320961 170.456506 
L 106.406762 168.216107 
L 107.492563 166.765592 
L 108.578364 168.819291 
L 109.664165 162.71564 
L 110.749967 162.370963 
L 111.835768 161.782141 
L 115.093171 155.951359 
L 116.178972 155.290728 
L 117.264773 152.073745 
L 118.350575 150.8961 
L 119.436376 150.5227 
L 120.522177 147.478055 
L 121.607978 147.348801 
L 122.693779 145.998817 
L 123.77958 144.261072 
L 124.865382 143.011619 
L 125.951183 143.643526 
L 127.036984 143.370657 
L 128.122785 139.134005 
L 129.208586 140.972281 
L 130.294387 140.21112 
L 131.380189 138.875498 
L 132.46599 138.229229 
L 134.637592 137.827106 
L 135.723393 138.80369 
L 136.809194 138.085614 
L 137.894995 137.870191 
L 138.980797 168.876737 
L 140.066598 163.218294 
L 141.152399 164.999124 
L 142.2382 166.320385 
L 143.324001 157.057197 
L 144.409802 160.302903 
L 145.495604 159.110896 
L 146.581405 156.655074 
L 147.667206 158.881111 
L 148.753007 154.385952 
L 149.838808 155.290728 
L 150.924609 156.468374 
L 152.01041 154.113083 
L 153.096212 156.396566 
L 154.182013 150.953546 
L 155.267814 151.772153 
L 156.353615 151.800876 
L 157.439416 151.154607 
L 158.525217 153.33756 
L 159.611019 151.815238 
L 160.69682 148.713147 
L 161.782621 153.466814 
L 162.868422 149.718454 
L 163.954223 148.598255 
L 165.040024 145.496164 
L 166.125825 146.96104 
L 167.211627 147.52114 
L 168.297428 145.611056 
L 169.383229 145.625418 
L 170.46903 144.045649 
L 171.554831 147.664755 
L 172.640632 146.515833 
L 173.726434 147.693478 
L 174.812235 146.156794 
L 175.898036 142.623858 
L 176.983837 143.787142 
L 178.069638 143.787142 
L 179.155439 140.613243 
L 180.24124 141.747804 
L 181.327042 141.690358 
L 182.412843 141.101535 
L 183.498644 142.078119 
L 184.584445 140.512712 
L 185.670246 141.029728 
L 186.756047 141.360043 
L 187.841849 138.99039 
L 188.92765 139.421236 
L 190.013451 139.564851 
L 191.099252 139.191451 
L 192.185053 139.55049 
L 193.270854 139.73719 
L 194.356656 137.223922 
L 195.442457 138.042529 
L 196.528258 137.841467 
L 197.614059 138.502098 
L 198.69986 137.468068 
L 199.785661 135.787768 
L 200.871462 136.73563 
L 201.957264 135.514899 
L 203.043065 135.601069 
L 204.128866 135.155861 
L 206.300468 135.543622 
L 207.386269 134.5814 
L 208.472071 133.935131 
L 209.557872 134.595761 
L 210.643673 133.6479 
L 211.729474 134.050023 
L 212.815275 133.231416 
L 213.901076 132.901101 
L 214.986877 132.901101 
L 216.072679 132.585147 
L 217.15848 133.015993 
L 218.244281 132.254832 
L 219.330082 132.111216 
L 220.415883 132.656955 
L 221.501684 132.384085 
L 222.587486 132.944185 
L 223.673287 133.217054 
L 224.759088 132.944185 
L 225.844889 160.144926 
L 226.93069 159.958226 
L 228.016491 157.660381 
L 230.188094 160.791195 
L 231.273895 158.206119 
L 232.359696 156.410928 
L 233.445497 153.552983 
L 234.531298 158.794942 
L 235.617099 156.123697 
L 236.702901 154.831159 
L 237.788702 154.328506 
L 238.874503 155.621044 
L 239.960304 156.05189 
L 241.046105 151.154607 
L 242.131906 152.274807 
L 243.217708 150.824292 
L 244.303509 151.18333 
L 245.38931 152.691291 
L 246.475111 164.094347 
L 247.560912 153.466814 
L 248.646713 150.278554 
L 249.732514 149.976962 
L 250.818316 153.165222 
L 251.904117 151.499284 
L 252.989918 151.068438 
L 254.075719 151.887045 
L 255.16152 154.37159 
L 256.247321 152.49023 
L 257.333123 154.644459 
L 258.418924 150.508338 
L 259.504725 154.27106 
L 260.590526 151.298223 
L 261.676327 154.45776 
L 262.762128 155.147113 
L 263.847929 150.967907 
L 264.933731 151.341307 
L 266.019532 149.976962 
L 267.105333 150.278554 
L 268.191134 151.973215 
L 269.276935 156.884858 
L 270.362736 151.355669 
L 271.448538 150.838654 
L 272.534339 151.355669 
L 273.62014 152.547676 
L 274.705941 150.939184 
L 275.791742 152.748737 
L 276.877543 150.910461 
L 277.963344 156.813051 
L 279.049146 155.190198 
L 280.134947 148.942931 
L 281.220748 153.955106 
L 282.306549 149.976962 
L 283.39235 149.129631 
L 284.478151 151.312584 
L 285.563953 151.111523 
L 286.649754 151.55673 
L 287.735555 150.7094 
L 288.821356 154.227975 
L 289.907157 150.608869 
L 290.992958 147.391886 
L 292.07876 151.542369 
L 293.164561 150.608869 
L 294.250362 152.475868 
L 295.336163 149.11527 
L 296.421964 155.204559 
L 297.507765 149.30197 
L 298.593566 151.772153 
L 300.765169 146.530194 
L 301.85097 147.636032 
L 302.936771 150.120577 
L 304.022572 148.210493 
L 305.108373 147.592947 
L 306.194175 150.178023 
L 307.279976 150.738123 
L 308.365777 149.603562 
L 309.451578 147.851455 
L 310.537379 147.736563 
L 311.62318 146.472748 
L 312.708981 146.616363 
L 313.794783 151.054077 
L 314.880584 146.343494 
L 315.966385 146.48711 
L 317.052186 146.415302 
L 318.137987 146.58764 
L 319.223788 146.21424 
L 320.30959 144.304157 
L 321.395391 146.558917 
L 322.481192 145.625418 
L 323.566993 146.630725 
L 324.652794 148.469001 
L 325.738595 144.548303 
L 326.824396 143.830226 
L 327.910198 145.539248 
L 328.995999 143.183957 
L 330.0818 147.104655 
L 331.167601 143.442465 
L 332.253402 146.386579 
L 333.339203 144.217988 
L 335.510806 142.078119 
L 336.596607 144.577026 
L 337.682408 142.293542 
L 338.768209 142.537688 
L 339.85401 142.666942 
L 340.939811 143.327573 
L 342.025613 145.151487 
L 343.111414 141.920142 
L 344.197215 141.43185 
L 345.283016 143.255765 
L 346.368817 142.853642 
L 347.454618 141.503658 
L 348.54042 141.474935 
L 349.626221 142.092481 
L 350.712022 139.808997 
L 351.797823 142.17865 
L 352.883624 140.225482 
L 353.969425 141.230789 
L 355.055227 140.153674 
L 356.141028 141.388766 
L 357.226829 139.751551 
L 358.31263 139.938251 
L 359.398431 139.794636 
L 360.484232 138.861136 
L 361.570033 138.631352 
L 362.655835 138.818052 
L 363.741636 138.473375 
L 364.827437 137.367537 
L 365.913238 137.525514 
L 366.999039 138.789329 
L 368.08484 139.65102 
L 369.170642 140.053143 
L 370.256443 141.345681 
L 371.342244 144.591387 
L 372.428045 143.054703 
L 373.513846 144.14618 
L 374.599647 142.36535 
L 375.685448 143.657888 
L 376.77125 141.963227 
L 377.857051 144.849895 
L 378.942852 144.562664 
L 380.028653 144.691918 
L 381.114454 143.21268 
L 382.200255 143.097788 
L 383.286057 144.735003 
L 384.371858 143.887672 
L 385.457659 142.666942 
L 386.54346 145.036595 
L 387.629261 141.489297 
L 389.800863 144.936064 
L 390.886665 143.327573 
L 391.972466 141.474935 
L 393.058267 145.453079 
L 394.144068 145.323825 
L 395.229869 146.070625 
L 396.31567 145.36691 
L 397.401472 146.932317 
L 398.487273 143.95948 
L 398.487273 143.95948 
" clip-path="url(#p35d8c9c7f2)" style="fill: none; stroke: #ff7f0e; stroke-width: 1.5; stroke-linecap: square"/>
   </g>
   <g id="line2d_18">
    <path d="M 73.832727 289.46309 
L 74.918528 284.213702 
L 76.00433 272.328297 
L 77.090131 265.791324 
L 78.175932 261.235252 
L 79.261733 255.886819 
L 80.347534 246.774675 
L 81.433335 249.845072 
L 82.519137 242.119558 
L 83.604938 239.643432 
L 84.690739 236.771126 
L 85.77654 238.454891 
L 86.862341 232.611234 
L 87.948142 232.016963 
L 89.033943 228.748477 
L 90.119745 223.994315 
L 91.205546 225.579035 
L 92.291347 225.08381 
L 93.377148 223.300999 
L 94.462949 223.49909 
L 95.54875 237.761576 
L 96.634552 237.662531 
L 97.720353 236.870171 
L 98.806154 232.809324 
L 99.891955 236.47399 
L 100.977756 231.026513 
L 102.063557 226.668531 
L 103.149358 230.531288 
L 104.23516 230.135108 
L 105.320961 222.211504 
L 106.406762 221.022963 
L 107.492563 219.339198 
L 108.578364 225.182855 
L 109.664165 217.358297 
L 110.749967 216.664981 
L 111.835768 216.565936 
L 112.921569 219.141108 
L 114.00737 214.981216 
L 115.093171 215.278351 
L 116.178972 215.278351 
L 117.264773 210.028963 
L 118.350575 208.345198 
L 119.436376 208.741378 
L 120.522177 206.166207 
L 121.607978 207.552837 
L 122.693779 207.057612 
L 123.77958 206.760477 
L 124.865382 205.373846 
L 125.951183 207.156657 
L 127.036984 203.09581 
L 128.122785 203.2939 
L 129.208586 201.90727 
L 130.294387 201.015864 
L 131.380189 200.421594 
L 132.46599 202.69963 
L 133.551791 201.114909 
L 134.637592 199.332098 
L 135.723393 200.916819 
L 136.809194 200.124459 
L 137.894995 200.025414 
L 138.980797 231.521738 
L 140.066598 221.815324 
L 141.152399 224.29145 
L 142.2382 224.786675 
L 143.324001 213.49554 
L 144.409802 216.070711 
L 145.495604 222.211504 
L 146.581405 217.952567 
L 147.667206 216.466891 
L 148.753007 213.396495 
L 149.838808 215.476441 
L 150.924609 215.674531 
L 152.01041 209.929918 
L 153.096212 218.447792 
L 154.182013 213.29745 
L 155.267814 213.09936 
L 156.353615 213.198405 
L 157.439416 211.316549 
L 158.525217 214.981216 
L 159.611019 214.585035 
L 160.69682 207.255702 
L 161.782621 217.952567 
L 162.868422 208.246152 
L 163.954223 207.651882 
L 165.040024 208.840423 
L 166.125825 204.383396 
L 167.211627 211.217504 
L 168.297428 204.977666 
L 169.383229 205.175756 
L 170.46903 203.69008 
L 171.554831 209.236603 
L 172.640632 205.175756 
L 173.726434 207.057612 
L 174.812235 206.067161 
L 175.898036 202.89772 
L 176.983837 203.49199 
L 178.069638 206.463342 
L 179.155439 201.213954 
L 180.24124 198.935918 
L 181.327042 202.50154 
L 182.412843 200.916819 
L 183.498644 200.421594 
L 184.584445 203.88817 
L 185.670246 202.30345 
L 186.756047 198.638783 
L 187.841849 200.124459 
L 188.92765 198.737828 
L 190.013451 202.30345 
L 191.099252 201.114909 
L 192.185053 200.322549 
L 194.356656 197.054062 
L 195.442457 197.648333 
L 196.528258 197.945468 
L 197.614059 195.568387 
L 198.69986 195.865522 
L 199.785661 194.577936 
L 200.871462 196.558837 
L 201.957264 193.884621 
L 203.043065 191.90372 
L 204.128866 193.488441 
L 205.214667 193.785576 
L 206.300468 193.686531 
L 207.386269 193.191306 
L 208.472071 194.478891 
L 209.557872 193.983666 
L 210.643673 192.993215 
L 211.729474 192.993215 
L 212.815275 190.814224 
L 213.901076 189.526639 
L 214.986877 190.616134 
L 216.072679 190.814224 
L 217.15848 190.418044 
L 218.244281 190.318999 
L 219.330082 190.91327 
L 220.415883 191.012315 
L 221.501684 189.823774 
L 222.587486 190.418044 
L 223.673287 190.517089 
L 224.759088 190.418044 
L 225.844889 215.971666 
L 226.93069 213.594585 
L 228.016491 219.339198 
L 229.102292 217.556387 
L 230.188094 214.386945 
L 231.273895 218.051612 
L 232.359696 213.594585 
L 233.445497 216.764026 
L 234.531298 220.527738 
L 235.617099 215.971666 
L 237.788702 214.68408 
L 238.874503 214.882171 
L 239.960304 216.070711 
L 241.046105 212.108909 
L 242.131906 211.217504 
L 243.217708 207.949017 
L 244.303509 208.543288 
L 245.38931 215.476441 
L 246.475111 223.400044 
L 247.560912 212.406044 
L 248.646713 210.326098 
L 249.732514 209.533738 
L 250.818316 209.632783 
L 251.904117 206.958567 
L 252.989918 209.929918 
L 254.075719 214.882171 
L 255.16152 209.038513 
L 256.247321 213.09936 
L 257.333123 206.364297 
L 258.418924 210.227053 
L 259.504725 216.268801 
L 260.590526 212.009864 
L 261.676327 214.386945 
L 262.762128 216.268801 
L 263.847929 212.802225 
L 264.933731 206.265252 
L 266.019532 207.354747 
L 267.105333 209.335648 
L 268.191134 210.425143 
L 269.276935 214.386945 
L 270.362736 207.057612 
L 271.448538 208.345198 
L 272.534339 211.217504 
L 273.62014 210.623234 
L 274.705941 209.434693 
L 275.791742 214.188855 
L 276.877543 204.185306 
L 277.963344 214.585035 
L 279.049146 209.830873 
L 280.134947 208.642333 
L 281.220748 213.49554 
L 282.306549 207.156657 
L 283.39235 205.670981 
L 284.478151 211.415594 
L 285.563953 206.661432 
L 286.649754 208.840423 
L 287.735555 205.175756 
L 288.821356 213.396495 
L 290.992958 205.472891 
L 292.07876 213.09936 
L 293.164561 209.731828 
L 294.250362 208.345198 
L 295.336163 209.632783 
L 296.421964 211.514639 
L 297.507765 205.076711 
L 298.593566 204.779576 
L 299.679368 206.958567 
L 300.765169 204.185306 
L 301.85097 203.392945 
L 302.936771 204.482441 
L 304.022572 206.364297 
L 305.108373 205.670981 
L 306.194175 210.623234 
L 307.279976 208.543288 
L 308.365777 208.939468 
L 309.451578 208.939468 
L 310.537379 205.869071 
L 311.62318 206.463342 
L 312.708981 206.562387 
L 313.794783 212.505089 
L 314.880584 203.49199 
L 315.966385 205.076711 
L 317.052186 205.670981 
L 318.137987 203.69008 
L 319.223788 203.69008 
L 320.30959 201.808225 
L 321.395391 204.581486 
L 322.481192 203.392945 
L 323.566993 202.600585 
L 324.652794 203.194855 
L 325.738595 204.581486 
L 326.824396 204.878621 
L 327.910198 203.2939 
L 328.995999 201.114909 
L 330.0818 202.006315 
L 331.167601 199.431143 
L 332.253402 202.10536 
L 333.339203 199.926369 
L 334.425005 197.351197 
L 335.510806 197.945468 
L 336.596607 201.709179 
L 337.682408 198.143558 
L 338.768209 199.332098 
L 339.85401 202.204405 
L 340.939811 197.747378 
L 342.025613 200.520639 
L 343.111414 196.756927 
L 344.197215 195.865522 
L 345.283016 199.728279 
L 346.368817 198.836873 
L 347.454618 197.351197 
L 348.54042 196.855972 
L 349.626221 197.252152 
L 350.712022 192.795125 
L 351.797823 197.549288 
L 352.883624 196.756927 
L 353.969425 197.252152 
L 355.055227 194.082711 
L 356.141028 195.469342 
L 357.226829 194.082711 
L 358.31263 194.875071 
L 359.398431 196.360747 
L 360.484232 194.676981 
L 361.570033 192.398945 
L 362.655835 191.012315 
L 363.741636 197.153107 
L 364.827437 193.092261 
L 365.913238 193.587486 
L 366.999039 194.280801 
L 368.08484 192.69608 
L 369.170642 195.172206 
L 370.256443 197.252152 
L 371.342244 201.114909 
L 372.428045 198.836873 
L 373.513846 197.549288 
L 374.599647 195.370297 
L 375.685448 199.034963 
L 376.77125 199.629234 
L 377.857051 203.2939 
L 378.942852 199.134008 
L 380.028653 197.846423 
L 381.114454 197.648333 
L 382.200255 198.737828 
L 383.286057 197.252152 
L 384.371858 196.855972 
L 385.457659 196.855972 
L 386.54346 201.709179 
L 387.629261 199.134008 
L 388.715062 202.30345 
L 389.800863 201.808225 
L 390.886665 198.044513 
L 391.972466 201.808225 
L 393.058267 202.10536 
L 394.144068 199.134008 
L 395.229869 198.638783 
L 396.31567 201.114909 
L 397.401472 203.987216 
L 398.487273 199.926369 
L 398.487273 199.926369 
" clip-path="url(#p35d8c9c7f2)" style="fill: none; stroke: #2ca02c; stroke-width: 1.5; stroke-linecap: square"/>
   </g>
   <g id="line2d_19">
    <path d="M 368.08484 142.939811 
L 369.170642 141.259512 
L 370.256443 143.916395 
L 371.342244 147.420609 
L 372.428045 150.221108 
L 373.513846 147.463694 
L 374.599647 151.786515 
L 375.685448 149.876431 
L 376.77125 149.48867 
L 377.857051 150.939184 
L 378.942852 150.120577 
L 380.028653 157.430597 
L 381.114454 154.587013 
L 382.200255 157.387512 
L 383.286057 155.11839 
L 384.371858 161.394379 
L 385.457659 158.335373 
L 386.54346 163.692224 
L 387.629261 161.293849 
L 388.715062 160.446518 
L 389.800863 165.042208 
L 391.972466 162.557663 
L 393.058267 166.435277 
L 394.144068 171.892659 
L 395.229869 169.207053 
L 397.401472 177.766525 
L 398.487273 179.317571 
L 398.487273 179.317571 
" clip-path="url(#p35d8c9c7f2)" style="fill: none; stroke: #d62728; stroke-width: 1.5; stroke-linecap: square"/>
   </g>
   <g id="line2d_20">
    <path d="M 368.08484 198.341648 
L 369.170642 196.360747 
L 370.256443 196.063612 
L 371.342244 200.322549 
L 372.428045 205.472891 
L 373.513846 206.463342 
L 374.599647 204.383396 
L 376.77125 203.09581 
L 377.857051 205.869071 
L 378.942852 204.086261 
L 380.028653 210.227053 
L 381.114454 208.048062 
L 382.200255 208.741378 
L 383.286057 206.265252 
L 384.371858 212.802225 
L 385.457659 211.712729 
L 386.54346 213.29745 
L 387.629261 211.613684 
L 388.715062 214.585035 
L 389.800863 218.546837 
L 390.886665 216.764026 
L 391.972466 216.664981 
L 393.058267 219.240153 
L 394.144068 223.994315 
L 395.229869 220.626783 
L 396.31567 226.767576 
L 397.401472 228.055162 
L 398.487273 226.767576 
L 398.487273 226.767576 
" clip-path="url(#p35d8c9c7f2)" style="fill: none; stroke: #9467bd; stroke-width: 1.5; stroke-linecap: square"/>
   </g>
   <g id="patch_3">
    <path d="M 57.6 307.584 
L 57.6 41.472 
" style="fill: none; stroke: #000000; stroke-width: 0.8; stroke-linejoin: miter; stroke-linecap: square"/>
   </g>
   <g id="patch_4">
    <path d="M 414.72 307.584 
L 414.72 41.472 
" style="fill: none; stroke: #000000; stroke-width: 0.8; stroke-linejoin: miter; stroke-linecap: square"/>
   </g>
   <g id="patch_5">
    <path d="M 57.6 307.584 
L 414.72 307.584 
" style="fill: none; stroke: #000000; stroke-width: 0.8; stroke-linejoin: miter; stroke-linecap: square"/>
   </g>
   <g id="patch_6">
    <path d="M 57.6 41.472 
L 414.72 41.472 
" style="fill: none; stroke: #000000; stroke-width: 0.8; stroke-linejoin: miter; stroke-linecap: square"/>
   </g>
   <g id="text_18">
    <!-- Learning Curves -->
    <g transform="translate(187.37625 35.472) scale(0.12 -0.12)">
     <defs>
      <path id="DejaVuSans-4c" d="M 628 4666 
L 1259 4666 
L 1259 531 
L 3531 531 
L 3531 0 
L 628 0 
L 628 4666 
z
" transform="scale(0.015625)"/>
      <path id="DejaVuSans-65" d="M 3597 1894 
L 3597 1613 
L 953 1613 
Q 991 1019 1311 708 
Q 1631 397 2203 397 
Q 2534 397 2845 478 
Q 3156 559 3463 722 
L 3463 178 
Q 3153 47 2828 -22 
Q 2503 -91 2169 -91 
Q 1331 -91 842 396 
Q 353 884 353 1716 
Q 353 2575 817 3079 
Q 1281 3584 2069 3584 
Q 2775 3584 3186 3129 
Q 3597 2675 3597 1894 
z
M 3022 2063 
Q 3016 2534 2758 2815 
Q 2500 3097 2075 3097 
Q 1594 3097 1305 2825 
Q 1016 2553 972 2059 
L 3022 2063 
z
" transform="scale(0.015625)"/>
      <path id="DejaVuSans-6e" d="M 3513 2113 
L 3513 0 
L 2938 0 
L 2938 2094 
Q 2938 2591 2744 2837 
Q 2550 3084 2163 3084 
Q 1697 3084 1428 2787 
Q 1159 2491 1159 1978 
L 1159 0 
L 581 0 
L 581 3500 
L 1159 3500 
L 1159 2956 
Q 1366 3272 1645 3428 
Q 1925 3584 2291 3584 
Q 2894 3584 3203 3211 
Q 3513 2838 3513 2113 
z
" transform="scale(0.015625)"/>
      <path id="DejaVuSans-69" d="M 603 3500 
L 1178 3500 
L 1178 0 
L 603 0 
L 603 3500 
z
M 603 4863 
L 1178 4863 
L 1178 4134 
L 603 4134 
L 603 4863 
z
" transform="scale(0.015625)"/>
      <path id="DejaVuSans-67" d="M 2906 1791 
Q 2906 2416 2648 2759 
Q 2391 3103 1925 3103 
Q 1463 3103 1205 2759 
Q 947 2416 947 1791 
Q 947 1169 1205 825 
Q 1463 481 1925 481 
Q 2391 481 2648 825 
Q 2906 1169 2906 1791 
z
M 3481 434 
Q 3481 -459 3084 -895 
Q 2688 -1331 1869 -1331 
Q 1566 -1331 1297 -1286 
Q 1028 -1241 775 -1147 
L 775 -588 
Q 1028 -725 1275 -790 
Q 1522 -856 1778 -856 
Q 2344 -856 2625 -561 
Q 2906 -266 2906 331 
L 2906 616 
Q 2728 306 2450 153 
Q 2172 0 1784 0 
Q 1141 0 747 490 
Q 353 981 353 1791 
Q 353 2603 747 3093 
Q 1141 3584 1784 3584 
Q 2172 3584 2450 3431 
Q 2728 3278 2906 2969 
L 2906 3500 
L 3481 3500 
L 3481 434 
z
" transform="scale(0.015625)"/>
      <path id="DejaVuSans-20" transform="scale(0.015625)"/>
      <path id="DejaVuSans-43" d="M 4122 4306 
L 4122 3641 
Q 3803 3938 3442 4084 
Q 3081 4231 2675 4231 
Q 1875 4231 1450 3742 
Q 1025 3253 1025 2328 
Q 1025 1406 1450 917 
Q 1875 428 2675 428 
Q 3081 428 3442 575 
Q 3803 722 4122 1019 
L 4122 359 
Q 3791 134 3420 21 
Q 3050 -91 2638 -91 
Q 1578 -91 968 557 
Q 359 1206 359 2328 
Q 359 3453 968 4101 
Q 1578 4750 2638 4750 
Q 3056 4750 3426 4639 
Q 3797 4528 4122 4306 
z
" transform="scale(0.015625)"/>
      <path id="DejaVuSans-76" d="M 191 3500 
L 800 3500 
L 1894 563 
L 2988 3500 
L 3597 3500 
L 2284 0 
L 1503 0 
L 191 3500 
z
" transform="scale(0.015625)"/>
     </defs>
     <use xlink:href="#DejaVuSans-4c"/>
     <use xlink:href="#DejaVuSans-65" x="53.962891"/>
     <use xlink:href="#DejaVuSans-61" x="115.486328"/>
     <use xlink:href="#DejaVuSans-72" x="176.765625"/>
     <use xlink:href="#DejaVuSans-6e" x="216.128906"/>
     <use xlink:href="#DejaVuSans-69" x="279.507812"/>
     <use xlink:href="#DejaVuSans-6e" x="307.291016"/>
     <use xlink:href="#DejaVuSans-67" x="370.669922"/>
     <use xlink:href="#DejaVuSans-20" x="434.146484"/>
     <use xlink:href="#DejaVuSans-43" x="465.933594"/>
     <use xlink:href="#DejaVuSans-75" x="535.757812"/>
     <use xlink:href="#DejaVuSans-72" x="599.136719"/>
     <use xlink:href="#DejaVuSans-76" x="640.25"/>
     <use xlink:href="#DejaVuSans-65" x="699.429688"/>
     <use xlink:href="#DejaVuSans-73" x="760.953125"/>
    </g>
   </g>
   <g id="legend_1">
    <g id="patch_7">
     <path d="M 139.394375 302.584 
L 332.925625 302.584 
Q 334.925625 302.584 334.925625 300.584 
L 334.925625 228.193375 
Q 334.925625 226.193375 332.925625 226.193375 
L 139.394375 226.193375 
Q 137.394375 226.193375 137.394375 228.193375 
L 137.394375 300.584 
Q 137.394375 302.584 139.394375 302.584 
z
" style="fill: #ffffff; opacity: 0.8; stroke: #cccccc; stroke-linejoin: miter"/>
    </g>
    <g id="line2d_21">
     <path d="M 141.394375 234.291812 
L 151.394375 234.291812 
L 161.394375 234.291812 
" style="fill: none; stroke: #1f77b4; stroke-width: 1.5; stroke-linecap: square"/>
    </g>
    <g id="text_19">
     <!-- Train Accuracy -->
     <g transform="translate(169.394375 237.791812) scale(0.1 -0.1)">
      <defs>
       <path id="DejaVuSans-54" d="M -19 4666 
L 3928 4666 
L 3928 4134 
L 2272 4134 
L 2272 0 
L 1638 0 
L 1638 4134 
L -19 4134 
L -19 4666 
z
" transform="scale(0.015625)"/>
      </defs>
      <use xlink:href="#DejaVuSans-54"/>
      <use xlink:href="#DejaVuSans-72" x="46.333984"/>
      <use xlink:href="#DejaVuSans-61" x="87.447266"/>
      <use xlink:href="#DejaVuSans-69" x="148.726562"/>
      <use xlink:href="#DejaVuSans-6e" x="176.509766"/>
      <use xlink:href="#DejaVuSans-20" x="239.888672"/>
      <use xlink:href="#DejaVuSans-41" x="271.675781"/>
      <use xlink:href="#DejaVuSans-63" x="338.333984"/>
      <use xlink:href="#DejaVuSans-63" x="393.314453"/>
      <use xlink:href="#DejaVuSans-75" x="448.294922"/>
      <use xlink:href="#DejaVuSans-72" x="511.673828"/>
      <use xlink:href="#DejaVuSans-61" x="552.787109"/>
      <use xlink:href="#DejaVuSans-63" x="614.066406"/>
      <use xlink:href="#DejaVuSans-79" x="669.046875"/>
     </g>
    </g>
    <g id="line2d_22">
     <path d="M 141.394375 248.969937 
L 151.394375 248.969937 
L 161.394375 248.969937 
" style="fill: none; stroke: #ff7f0e; stroke-width: 1.5; stroke-linecap: square"/>
    </g>
    <g id="text_20">
     <!-- Validation Accuracy -->
     <g transform="translate(169.394375 252.469937) scale(0.1 -0.1)">
      <defs>
       <path id="DejaVuSans-56" d="M 1831 0 
L 50 4666 
L 709 4666 
L 2188 738 
L 3669 4666 
L 4325 4666 
L 2547 0 
L 1831 0 
z
" transform="scale(0.015625)"/>
       <path id="DejaVuSans-6c" d="M 603 4863 
L 1178 4863 
L 1178 0 
L 603 0 
L 603 4863 
z
" transform="scale(0.015625)"/>
       <path id="DejaVuSans-64" d="M 2906 2969 
L 2906 4863 
L 3481 4863 
L 3481 0 
L 2906 0 
L 2906 525 
Q 2725 213 2448 61 
Q 2172 -91 1784 -91 
Q 1150 -91 751 415 
Q 353 922 353 1747 
Q 353 2572 751 3078 
Q 1150 3584 1784 3584 
Q 2172 3584 2448 3432 
Q 2725 3281 2906 2969 
z
M 947 1747 
Q 947 1113 1208 752 
Q 1469 391 1925 391 
Q 2381 391 2643 752 
Q 2906 1113 2906 1747 
Q 2906 2381 2643 2742 
Q 2381 3103 1925 3103 
Q 1469 3103 1208 2742 
Q 947 2381 947 1747 
z
" transform="scale(0.015625)"/>
       <path id="DejaVuSans-74" d="M 1172 4494 
L 1172 3500 
L 2356 3500 
L 2356 3053 
L 1172 3053 
L 1172 1153 
Q 1172 725 1289 603 
Q 1406 481 1766 481 
L 2356 481 
L 2356 0 
L 1766 0 
Q 1100 0 847 248 
Q 594 497 594 1153 
L 594 3053 
L 172 3053 
L 172 3500 
L 594 3500 
L 594 4494 
L 1172 4494 
z
" transform="scale(0.015625)"/>
      </defs>
      <use xlink:href="#DejaVuSans-56"/>
      <use xlink:href="#DejaVuSans-61" x="60.658203"/>
      <use xlink:href="#DejaVuSans-6c" x="121.9375"/>
      <use xlink:href="#DejaVuSans-69" x="149.720703"/>
      <use xlink:href="#DejaVuSans-64" x="177.503906"/>
      <use xlink:href="#DejaVuSans-61" x="240.980469"/>
      <use xlink:href="#DejaVuSans-74" x="302.259766"/>
      <use xlink:href="#DejaVuSans-69" x="341.46875"/>
      <use xlink:href="#DejaVuSans-6f" x="369.251953"/>
      <use xlink:href="#DejaVuSans-6e" x="430.433594"/>
      <use xlink:href="#DejaVuSans-20" x="493.8125"/>
      <use xlink:href="#DejaVuSans-41" x="525.599609"/>
      <use xlink:href="#DejaVuSans-63" x="592.257812"/>
      <use xlink:href="#DejaVuSans-63" x="647.238281"/>
      <use xlink:href="#DejaVuSans-75" x="702.21875"/>
      <use xlink:href="#DejaVuSans-72" x="765.597656"/>
      <use xlink:href="#DejaVuSans-61" x="806.710938"/>
      <use xlink:href="#DejaVuSans-63" x="867.990234"/>
      <use xlink:href="#DejaVuSans-79" x="922.970703"/>
     </g>
    </g>
    <g id="line2d_23">
     <path d="M 141.394375 263.648062 
L 151.394375 263.648062 
L 161.394375 263.648062 
" style="fill: none; stroke: #2ca02c; stroke-width: 1.5; stroke-linecap: square"/>
    </g>
    <g id="text_21">
     <!-- Robust Validation Accuracy -->
     <g transform="translate(169.394375 267.148062) scale(0.1 -0.1)">
      <defs>
       <path id="DejaVuSans-52" d="M 2841 2188 
Q 3044 2119 3236 1894 
Q 3428 1669 3622 1275 
L 4263 0 
L 3584 0 
L 2988 1197 
Q 2756 1666 2539 1819 
Q 2322 1972 1947 1972 
L 1259 1972 
L 1259 0 
L 628 0 
L 628 4666 
L 2053 4666 
Q 2853 4666 3247 4331 
Q 3641 3997 3641 3322 
Q 3641 2881 3436 2590 
Q 3231 2300 2841 2188 
z
M 1259 4147 
L 1259 2491 
L 2053 2491 
Q 2509 2491 2742 2702 
Q 2975 2913 2975 3322 
Q 2975 3731 2742 3939 
Q 2509 4147 2053 4147 
L 1259 4147 
z
" transform="scale(0.015625)"/>
       <path id="DejaVuSans-62" d="M 3116 1747 
Q 3116 2381 2855 2742 
Q 2594 3103 2138 3103 
Q 1681 3103 1420 2742 
Q 1159 2381 1159 1747 
Q 1159 1113 1420 752 
Q 1681 391 2138 391 
Q 2594 391 2855 752 
Q 3116 1113 3116 1747 
z
M 1159 2969 
Q 1341 3281 1617 3432 
Q 1894 3584 2278 3584 
Q 2916 3584 3314 3078 
Q 3713 2572 3713 1747 
Q 3713 922 3314 415 
Q 2916 -91 2278 -91 
Q 1894 -91 1617 61 
Q 1341 213 1159 525 
L 1159 0 
L 581 0 
L 581 4863 
L 1159 4863 
L 1159 2969 
z
" transform="scale(0.015625)"/>
      </defs>
      <use xlink:href="#DejaVuSans-52"/>
      <use xlink:href="#DejaVuSans-6f" x="64.982422"/>
      <use xlink:href="#DejaVuSans-62" x="126.164062"/>
      <use xlink:href="#DejaVuSans-75" x="189.640625"/>
      <use xlink:href="#DejaVuSans-73" x="253.019531"/>
      <use xlink:href="#DejaVuSans-74" x="305.119141"/>
      <use xlink:href="#DejaVuSans-20" x="344.328125"/>
      <use xlink:href="#DejaVuSans-56" x="376.115234"/>
      <use xlink:href="#DejaVuSans-61" x="436.773438"/>
      <use xlink:href="#DejaVuSans-6c" x="498.052734"/>
      <use xlink:href="#DejaVuSans-69" x="525.835938"/>
      <use xlink:href="#DejaVuSans-64" x="553.619141"/>
      <use xlink:href="#DejaVuSans-61" x="617.095703"/>
      <use xlink:href="#DejaVuSans-74" x="678.375"/>
      <use xlink:href="#DejaVuSans-69" x="717.583984"/>
      <use xlink:href="#DejaVuSans-6f" x="745.367188"/>
      <use xlink:href="#DejaVuSans-6e" x="806.548828"/>
      <use xlink:href="#DejaVuSans-20" x="869.927734"/>
      <use xlink:href="#DejaVuSans-41" x="901.714844"/>
      <use xlink:href="#DejaVuSans-63" x="968.373047"/>
      <use xlink:href="#DejaVuSans-63" x="1023.353516"/>
      <use xlink:href="#DejaVuSans-75" x="1078.333984"/>
      <use xlink:href="#DejaVuSans-72" x="1141.712891"/>
      <use xlink:href="#DejaVuSans-61" x="1182.826172"/>
      <use xlink:href="#DejaVuSans-63" x="1244.105469"/>
      <use xlink:href="#DejaVuSans-79" x="1299.085938"/>
     </g>
    </g>
    <g id="line2d_24">
     <path d="M 141.394375 278.326188 
L 151.394375 278.326188 
L 161.394375 278.326188 
" style="fill: none; stroke: #d62728; stroke-width: 1.5; stroke-linecap: square"/>
    </g>
    <g id="text_22">
     <!-- SWA Validation Accuracy -->
     <g transform="translate(169.394375 281.826188) scale(0.1 -0.1)">
      <defs>
       <path id="DejaVuSans-53" d="M 3425 4513 
L 3425 3897 
Q 3066 4069 2747 4153 
Q 2428 4238 2131 4238 
Q 1616 4238 1336 4038 
Q 1056 3838 1056 3469 
Q 1056 3159 1242 3001 
Q 1428 2844 1947 2747 
L 2328 2669 
Q 3034 2534 3370 2195 
Q 3706 1856 3706 1288 
Q 3706 609 3251 259 
Q 2797 -91 1919 -91 
Q 1588 -91 1214 -16 
Q 841 59 441 206 
L 441 856 
Q 825 641 1194 531 
Q 1563 422 1919 422 
Q 2459 422 2753 634 
Q 3047 847 3047 1241 
Q 3047 1584 2836 1778 
Q 2625 1972 2144 2069 
L 1759 2144 
Q 1053 2284 737 2584 
Q 422 2884 422 3419 
Q 422 4038 858 4394 
Q 1294 4750 2059 4750 
Q 2388 4750 2728 4690 
Q 3069 4631 3425 4513 
z
" transform="scale(0.015625)"/>
       <path id="DejaVuSans-57" d="M 213 4666 
L 850 4666 
L 1831 722 
L 2809 4666 
L 3519 4666 
L 4500 722 
L 5478 4666 
L 6119 4666 
L 4947 0 
L 4153 0 
L 3169 4050 
L 2175 0 
L 1381 0 
L 213 4666 
z
" transform="scale(0.015625)"/>
      </defs>
      <use xlink:href="#DejaVuSans-53"/>
      <use xlink:href="#DejaVuSans-57" x="63.476562"/>
      <use xlink:href="#DejaVuSans-41" x="156.853516"/>
      <use xlink:href="#DejaVuSans-20" x="225.261719"/>
      <use xlink:href="#DejaVuSans-56" x="257.048828"/>
      <use xlink:href="#DejaVuSans-61" x="317.707031"/>
      <use xlink:href="#DejaVuSans-6c" x="378.986328"/>
      <use xlink:href="#DejaVuSans-69" x="406.769531"/>
      <use xlink:href="#DejaVuSans-64" x="434.552734"/>
      <use xlink:href="#DejaVuSans-61" x="498.029297"/>
      <use xlink:href="#DejaVuSans-74" x="559.308594"/>
      <use xlink:href="#DejaVuSans-69" x="598.517578"/>
      <use xlink:href="#DejaVuSans-6f" x="626.300781"/>
      <use xlink:href="#DejaVuSans-6e" x="687.482422"/>
      <use xlink:href="#DejaVuSans-20" x="750.861328"/>
      <use xlink:href="#DejaVuSans-41" x="782.648438"/>
      <use xlink:href="#DejaVuSans-63" x="849.306641"/>
      <use xlink:href="#DejaVuSans-63" x="904.287109"/>
      <use xlink:href="#DejaVuSans-75" x="959.267578"/>
      <use xlink:href="#DejaVuSans-72" x="1022.646484"/>
      <use xlink:href="#DejaVuSans-61" x="1063.759766"/>
      <use xlink:href="#DejaVuSans-63" x="1125.039062"/>
      <use xlink:href="#DejaVuSans-79" x="1180.019531"/>
     </g>
    </g>
    <g id="line2d_25">
     <path d="M 141.394375 293.004312 
L 151.394375 293.004312 
L 161.394375 293.004312 
" style="fill: none; stroke: #9467bd; stroke-width: 1.5; stroke-linecap: square"/>
    </g>
    <g id="text_23">
     <!-- SWA Robust Validation Accuracy -->
     <g transform="translate(169.394375 296.504312) scale(0.1 -0.1)">
      <use xlink:href="#DejaVuSans-53"/>
      <use xlink:href="#DejaVuSans-57" x="63.476562"/>
      <use xlink:href="#DejaVuSans-41" x="156.853516"/>
      <use xlink:href="#DejaVuSans-20" x="225.261719"/>
      <use xlink:href="#DejaVuSans-52" x="257.048828"/>
      <use xlink:href="#DejaVuSans-6f" x="322.03125"/>
      <use xlink:href="#DejaVuSans-62" x="383.212891"/>
      <use xlink:href="#DejaVuSans-75" x="446.689453"/>
      <use xlink:href="#DejaVuSans-73" x="510.068359"/>
      <use xlink:href="#DejaVuSans-74" x="562.167969"/>
      <use xlink:href="#DejaVuSans-20" x="601.376953"/>
      <use xlink:href="#DejaVuSans-56" x="633.164062"/>
      <use xlink:href="#DejaVuSans-61" x="693.822266"/>
      <use xlink:href="#DejaVuSans-6c" x="755.101562"/>
      <use xlink:href="#DejaVuSans-69" x="782.884766"/>
      <use xlink:href="#DejaVuSans-64" x="810.667969"/>
      <use xlink:href="#DejaVuSans-61" x="874.144531"/>
      <use xlink:href="#DejaVuSans-74" x="935.423828"/>
      <use xlink:href="#DejaVuSans-69" x="974.632812"/>
      <use xlink:href="#DejaVuSans-6f" x="1002.416016"/>
      <use xlink:href="#DejaVuSans-6e" x="1063.597656"/>
      <use xlink:href="#DejaVuSans-20" x="1126.976562"/>
      <use xlink:href="#DejaVuSans-41" x="1158.763672"/>
      <use xlink:href="#DejaVuSans-63" x="1225.421875"/>
      <use xlink:href="#DejaVuSans-63" x="1280.402344"/>
      <use xlink:href="#DejaVuSans-75" x="1335.382812"/>
      <use xlink:href="#DejaVuSans-72" x="1398.761719"/>
      <use xlink:href="#DejaVuSans-61" x="1439.875"/>
      <use xlink:href="#DejaVuSans-63" x="1501.154297"/>
      <use xlink:href="#DejaVuSans-79" x="1556.134766"/>
     </g>
    </g>
   </g>
  </g>
 </g>
 <defs>
  <clipPath id="p35d8c9c7f2">
   <rect x="57.6" y="41.472" width="357.12" height="266.112"/>
  </clipPath>
 </defs>
</svg>
