<?xml version="1.0" encoding="utf-8" standalone="no"?>
<!DOCTYPE svg PUBLIC "-//W3C//DTD SVG 1.1//EN"
  "http://www.w3.org/Graphics/SVG/1.1/DTD/svg11.dtd">
<svg xmlns:xlink="http://www.w3.org/1999/xlink" width="460.8pt" height="345.6pt" viewBox="0 0 460.8 345.6" xmlns="http://www.w3.org/2000/svg" version="1.1">
 <metadata>
  <rdf:RDF xmlns:dc="http://purl.org/dc/elements/1.1/" xmlns:cc="http://creativecommons.org/ns#" xmlns:rdf="http://www.w3.org/1999/02/22-rdf-syntax-ns#">
   <cc:Work>
    <dc:type rdf:resource="http://purl.org/dc/dcmitype/StillImage"/>
    <dc:date>2025-03-27T09:48:52.217263</dc:date>
    <dc:format>image/svg+xml</dc:format>
    <dc:creator>
     <cc:Agent>
      <dc:title>Matplotlib v3.9.1, https://matplotlib.org/</dc:title>
     </cc:Agent>
    </dc:creator>
   </cc:Work>
  </rdf:RDF>
 </metadata>
 <defs>
  <style type="text/css">*{stroke-linejoin: round; stroke-linecap: butt}</style>
 </defs>
 <g id="figure_1">
  <g id="patch_1">
   <path d="M 0 345.6 
L 460.8 345.6 
L 460.8 0 
L 0 0 
z
" style="fill: #ffffff"/>
  </g>
  <g id="axes_1">
   <g id="patch_2">
    <path d="M 57.6 307.584 
L 414.72 307.584 
L 414.72 41.472 
L 57.6 41.472 
z
" style="fill: #ffffff"/>
   </g>
   <g id="matplotlib.axis_1">
    <g id="xtick_1">
     <g id="line2d_1">
      <defs>
       <path id="m3b98036236" d="M 0 0 
L 0 3.5 
" style="stroke: #000000; stroke-width: 0.8"/>
      </defs>
      <g>
       <use xlink:href="#m3b98036236" x="73.832727" y="307.584" style="stroke: #000000; stroke-width: 0.8"/>
      </g>
     </g>
     <g id="text_1">
      <!-- 1 -->
      <g transform="translate(70.651477 322.182437) scale(0.1 -0.1)">
       <defs>
        <path id="DejaVuSans-31" d="M 794 531 
L 1825 531 
L 1825 4091 
L 703 3866 
L 703 4441 
L 1819 4666 
L 2450 4666 
L 2450 531 
L 3481 531 
L 3481 0 
L 794 0 
L 794 531 
z
" transform="scale(0.015625)"/>
       </defs>
       <use xlink:href="#DejaVuSans-31"/>
      </g>
     </g>
    </g>
    <g id="xtick_2">
     <g id="line2d_2">
      <g>
       <use xlink:href="#m3b98036236" x="109.664165" y="307.584" style="stroke: #000000; stroke-width: 0.8"/>
      </g>
     </g>
     <g id="text_2">
      <!-- 34 -->
      <g transform="translate(103.301665 322.182437) scale(0.1 -0.1)">
       <defs>
        <path id="DejaVuSans-33" d="M 2597 2516 
Q 3050 2419 3304 2112 
Q 3559 1806 3559 1356 
Q 3559 666 3084 287 
Q 2609 -91 1734 -91 
Q 1441 -91 1130 -33 
Q 819 25 488 141 
L 488 750 
Q 750 597 1062 519 
Q 1375 441 1716 441 
Q 2309 441 2620 675 
Q 2931 909 2931 1356 
Q 2931 1769 2642 2001 
Q 2353 2234 1838 2234 
L 1294 2234 
L 1294 2753 
L 1863 2753 
Q 2328 2753 2575 2939 
Q 2822 3125 2822 3475 
Q 2822 3834 2567 4026 
Q 2313 4219 1838 4219 
Q 1578 4219 1281 4162 
Q 984 4106 628 3988 
L 628 4550 
Q 988 4650 1302 4700 
Q 1616 4750 1894 4750 
Q 2613 4750 3031 4423 
Q 3450 4097 3450 3541 
Q 3450 3153 3228 2886 
Q 3006 2619 2597 2516 
z
" transform="scale(0.015625)"/>
        <path id="DejaVuSans-34" d="M 2419 4116 
L 825 1625 
L 2419 1625 
L 2419 4116 
z
M 2253 4666 
L 3047 4666 
L 3047 1625 
L 3713 1625 
L 3713 1100 
L 3047 1100 
L 3047 0 
L 2419 0 
L 2419 1100 
L 313 1100 
L 313 1709 
L 2253 4666 
z
" transform="scale(0.015625)"/>
       </defs>
       <use xlink:href="#DejaVuSans-33"/>
       <use xlink:href="#DejaVuSans-34" x="63.623047"/>
      </g>
     </g>
    </g>
    <g id="xtick_3">
     <g id="line2d_3">
      <g>
       <use xlink:href="#m3b98036236" x="145.495604" y="307.584" style="stroke: #000000; stroke-width: 0.8"/>
      </g>
     </g>
     <g id="text_3">
      <!-- 67 -->
      <g transform="translate(139.133104 322.182437) scale(0.1 -0.1)">
       <defs>
        <path id="DejaVuSans-36" d="M 2113 2584 
Q 1688 2584 1439 2293 
Q 1191 2003 1191 1497 
Q 1191 994 1439 701 
Q 1688 409 2113 409 
Q 2538 409 2786 701 
Q 3034 994 3034 1497 
Q 3034 2003 2786 2293 
Q 2538 2584 2113 2584 
z
M 3366 4563 
L 3366 3988 
Q 3128 4100 2886 4159 
Q 2644 4219 2406 4219 
Q 1781 4219 1451 3797 
Q 1122 3375 1075 2522 
Q 1259 2794 1537 2939 
Q 1816 3084 2150 3084 
Q 2853 3084 3261 2657 
Q 3669 2231 3669 1497 
Q 3669 778 3244 343 
Q 2819 -91 2113 -91 
Q 1303 -91 875 529 
Q 447 1150 447 2328 
Q 447 3434 972 4092 
Q 1497 4750 2381 4750 
Q 2619 4750 2861 4703 
Q 3103 4656 3366 4563 
z
" transform="scale(0.015625)"/>
        <path id="DejaVuSans-37" d="M 525 4666 
L 3525 4666 
L 3525 4397 
L 1831 0 
L 1172 0 
L 2766 4134 
L 525 4134 
L 525 4666 
z
" transform="scale(0.015625)"/>
       </defs>
       <use xlink:href="#DejaVuSans-36"/>
       <use xlink:href="#DejaVuSans-37" x="63.623047"/>
      </g>
     </g>
    </g>
    <g id="xtick_4">
     <g id="line2d_4">
      <g>
       <use xlink:href="#m3b98036236" x="181.327042" y="307.584" style="stroke: #000000; stroke-width: 0.8"/>
      </g>
     </g>
     <g id="text_4">
      <!-- 100 -->
      <g transform="translate(171.783292 322.182437) scale(0.1 -0.1)">
       <defs>
        <path id="DejaVuSans-30" d="M 2034 4250 
Q 1547 4250 1301 3770 
Q 1056 3291 1056 2328 
Q 1056 1369 1301 889 
Q 1547 409 2034 409 
Q 2525 409 2770 889 
Q 3016 1369 3016 2328 
Q 3016 3291 2770 3770 
Q 2525 4250 2034 4250 
z
M 2034 4750 
Q 2819 4750 3233 4129 
Q 3647 3509 3647 2328 
Q 3647 1150 3233 529 
Q 2819 -91 2034 -91 
Q 1250 -91 836 529 
Q 422 1150 422 2328 
Q 422 3509 836 4129 
Q 1250 4750 2034 4750 
z
" transform="scale(0.015625)"/>
       </defs>
       <use xlink:href="#DejaVuSans-31"/>
       <use xlink:href="#DejaVuSans-30" x="63.623047"/>
       <use xlink:href="#DejaVuSans-30" x="127.246094"/>
      </g>
     </g>
    </g>
    <g id="xtick_5">
     <g id="line2d_5">
      <g>
       <use xlink:href="#m3b98036236" x="217.15848" y="307.584" style="stroke: #000000; stroke-width: 0.8"/>
      </g>
     </g>
     <g id="text_5">
      <!-- 133 -->
      <g transform="translate(207.61473 322.182437) scale(0.1 -0.1)">
       <use xlink:href="#DejaVuSans-31"/>
       <use xlink:href="#DejaVuSans-33" x="63.623047"/>
       <use xlink:href="#DejaVuSans-33" x="127.246094"/>
      </g>
     </g>
    </g>
    <g id="xtick_6">
     <g id="line2d_6">
      <g>
       <use xlink:href="#m3b98036236" x="254.075719" y="307.584" style="stroke: #000000; stroke-width: 0.8"/>
      </g>
     </g>
     <g id="text_6">
      <!-- 167 -->
      <g transform="translate(244.531969 322.182437) scale(0.1 -0.1)">
       <use xlink:href="#DejaVuSans-31"/>
       <use xlink:href="#DejaVuSans-36" x="63.623047"/>
       <use xlink:href="#DejaVuSans-37" x="127.246094"/>
      </g>
     </g>
    </g>
    <g id="xtick_7">
     <g id="line2d_7">
      <g>
       <use xlink:href="#m3b98036236" x="289.907157" y="307.584" style="stroke: #000000; stroke-width: 0.8"/>
      </g>
     </g>
     <g id="text_7">
      <!-- 200 -->
      <g transform="translate(280.363407 322.182437) scale(0.1 -0.1)">
       <defs>
        <path id="DejaVuSans-32" d="M 1228 531 
L 3431 531 
L 3431 0 
L 469 0 
L 469 531 
Q 828 903 1448 1529 
Q 2069 2156 2228 2338 
Q 2531 2678 2651 2914 
Q 2772 3150 2772 3378 
Q 2772 3750 2511 3984 
Q 2250 4219 1831 4219 
Q 1534 4219 1204 4116 
Q 875 4013 500 3803 
L 500 4441 
Q 881 4594 1212 4672 
Q 1544 4750 1819 4750 
Q 2544 4750 2975 4387 
Q 3406 4025 3406 3419 
Q 3406 3131 3298 2873 
Q 3191 2616 2906 2266 
Q 2828 2175 2409 1742 
Q 1991 1309 1228 531 
z
" transform="scale(0.015625)"/>
       </defs>
       <use xlink:href="#DejaVuSans-32"/>
       <use xlink:href="#DejaVuSans-30" x="63.623047"/>
       <use xlink:href="#DejaVuSans-30" x="127.246094"/>
      </g>
     </g>
    </g>
    <g id="xtick_8">
     <g id="line2d_8">
      <g>
       <use xlink:href="#m3b98036236" x="325.738595" y="307.584" style="stroke: #000000; stroke-width: 0.8"/>
      </g>
     </g>
     <g id="text_8">
      <!-- 233 -->
      <g transform="translate(316.194845 322.182437) scale(0.1 -0.1)">
       <use xlink:href="#DejaVuSans-32"/>
       <use xlink:href="#DejaVuSans-33" x="63.623047"/>
       <use xlink:href="#DejaVuSans-33" x="127.246094"/>
      </g>
     </g>
    </g>
    <g id="xtick_9">
     <g id="line2d_9">
      <g>
       <use xlink:href="#m3b98036236" x="361.570033" y="307.584" style="stroke: #000000; stroke-width: 0.8"/>
      </g>
     </g>
     <g id="text_9">
      <!-- 266 -->
      <g transform="translate(352.026283 322.182437) scale(0.1 -0.1)">
       <use xlink:href="#DejaVuSans-32"/>
       <use xlink:href="#DejaVuSans-36" x="63.623047"/>
       <use xlink:href="#DejaVuSans-36" x="127.246094"/>
      </g>
     </g>
    </g>
    <g id="xtick_10">
     <g id="line2d_10">
      <g>
       <use xlink:href="#m3b98036236" x="398.487273" y="307.584" style="stroke: #000000; stroke-width: 0.8"/>
      </g>
     </g>
     <g id="text_10">
      <!-- 300 -->
      <g transform="translate(388.943523 322.182437) scale(0.1 -0.1)">
       <use xlink:href="#DejaVuSans-33"/>
       <use xlink:href="#DejaVuSans-30" x="63.623047"/>
       <use xlink:href="#DejaVuSans-30" x="127.246094"/>
      </g>
     </g>
    </g>
    <g id="text_11">
     <!-- Epochs -->
     <g transform="translate(218.244375 335.860562) scale(0.1 -0.1)">
      <defs>
       <path id="DejaVuSans-45" d="M 628 4666 
L 3578 4666 
L 3578 4134 
L 1259 4134 
L 1259 2753 
L 3481 2753 
L 3481 2222 
L 1259 2222 
L 1259 531 
L 3634 531 
L 3634 0 
L 628 0 
L 628 4666 
z
" transform="scale(0.015625)"/>
       <path id="DejaVuSans-70" d="M 1159 525 
L 1159 -1331 
L 581 -1331 
L 581 3500 
L 1159 3500 
L 1159 2969 
Q 1341 3281 1617 3432 
Q 1894 3584 2278 3584 
Q 2916 3584 3314 3078 
Q 3713 2572 3713 1747 
Q 3713 922 3314 415 
Q 2916 -91 2278 -91 
Q 1894 -91 1617 61 
Q 1341 213 1159 525 
z
M 3116 1747 
Q 3116 2381 2855 2742 
Q 2594 3103 2138 3103 
Q 1681 3103 1420 2742 
Q 1159 2381 1159 1747 
Q 1159 1113 1420 752 
Q 1681 391 2138 391 
Q 2594 391 2855 752 
Q 3116 1113 3116 1747 
z
" transform="scale(0.015625)"/>
       <path id="DejaVuSans-6f" d="M 1959 3097 
Q 1497 3097 1228 2736 
Q 959 2375 959 1747 
Q 959 1119 1226 758 
Q 1494 397 1959 397 
Q 2419 397 2687 759 
Q 2956 1122 2956 1747 
Q 2956 2369 2687 2733 
Q 2419 3097 1959 3097 
z
M 1959 3584 
Q 2709 3584 3137 3096 
Q 3566 2609 3566 1747 
Q 3566 888 3137 398 
Q 2709 -91 1959 -91 
Q 1206 -91 779 398 
Q 353 888 353 1747 
Q 353 2609 779 3096 
Q 1206 3584 1959 3584 
z
" transform="scale(0.015625)"/>
       <path id="DejaVuSans-63" d="M 3122 3366 
L 3122 2828 
Q 2878 2963 2633 3030 
Q 2388 3097 2138 3097 
Q 1578 3097 1268 2742 
Q 959 2388 959 1747 
Q 959 1106 1268 751 
Q 1578 397 2138 397 
Q 2388 397 2633 464 
Q 2878 531 3122 666 
L 3122 134 
Q 2881 22 2623 -34 
Q 2366 -91 2075 -91 
Q 1284 -91 818 406 
Q 353 903 353 1747 
Q 353 2603 823 3093 
Q 1294 3584 2113 3584 
Q 2378 3584 2631 3529 
Q 2884 3475 3122 3366 
z
" transform="scale(0.015625)"/>
       <path id="DejaVuSans-68" d="M 3513 2113 
L 3513 0 
L 2938 0 
L 2938 2094 
Q 2938 2591 2744 2837 
Q 2550 3084 2163 3084 
Q 1697 3084 1428 2787 
Q 1159 2491 1159 1978 
L 1159 0 
L 581 0 
L 581 4863 
L 1159 4863 
L 1159 2956 
Q 1366 3272 1645 3428 
Q 1925 3584 2291 3584 
Q 2894 3584 3203 3211 
Q 3513 2838 3513 2113 
z
" transform="scale(0.015625)"/>
       <path id="DejaVuSans-73" d="M 2834 3397 
L 2834 2853 
Q 2591 2978 2328 3040 
Q 2066 3103 1784 3103 
Q 1356 3103 1142 2972 
Q 928 2841 928 2578 
Q 928 2378 1081 2264 
Q 1234 2150 1697 2047 
L 1894 2003 
Q 2506 1872 2764 1633 
Q 3022 1394 3022 966 
Q 3022 478 2636 193 
Q 2250 -91 1575 -91 
Q 1294 -91 989 -36 
Q 684 19 347 128 
L 347 722 
Q 666 556 975 473 
Q 1284 391 1588 391 
Q 1994 391 2212 530 
Q 2431 669 2431 922 
Q 2431 1156 2273 1281 
Q 2116 1406 1581 1522 
L 1381 1569 
Q 847 1681 609 1914 
Q 372 2147 372 2553 
Q 372 3047 722 3315 
Q 1072 3584 1716 3584 
Q 2034 3584 2315 3537 
Q 2597 3491 2834 3397 
z
" transform="scale(0.015625)"/>
      </defs>
      <use xlink:href="#DejaVuSans-45"/>
      <use xlink:href="#DejaVuSans-70" x="63.183594"/>
      <use xlink:href="#DejaVuSans-6f" x="126.660156"/>
      <use xlink:href="#DejaVuSans-63" x="187.841797"/>
      <use xlink:href="#DejaVuSans-68" x="242.822266"/>
      <use xlink:href="#DejaVuSans-73" x="306.201172"/>
     </g>
    </g>
   </g>
   <g id="matplotlib.axis_2">
    <g id="ytick_1">
     <g id="line2d_11">
      <defs>
       <path id="md20cdf3f71" d="M 0 0 
L -3.5 0 
" style="stroke: #000000; stroke-width: 0.8"/>
      </defs>
      <g>
       <use xlink:href="#md20cdf3f71" x="57.6" y="278.05585" style="stroke: #000000; stroke-width: 0.8"/>
      </g>
     </g>
     <g id="text_12">
      <!-- 10 -->
      <g transform="translate(37.875 281.855069) scale(0.1 -0.1)">
       <use xlink:href="#DejaVuSans-31"/>
       <use xlink:href="#DejaVuSans-30" x="63.623047"/>
      </g>
     </g>
    </g>
    <g id="ytick_2">
     <g id="line2d_12">
      <g>
       <use xlink:href="#md20cdf3f71" x="57.6" y="242.480033" style="stroke: #000000; stroke-width: 0.8"/>
      </g>
     </g>
     <g id="text_13">
      <!-- 20 -->
      <g transform="translate(37.875 246.279252) scale(0.1 -0.1)">
       <use xlink:href="#DejaVuSans-32"/>
       <use xlink:href="#DejaVuSans-30" x="63.623047"/>
      </g>
     </g>
    </g>
    <g id="ytick_3">
     <g id="line2d_13">
      <g>
       <use xlink:href="#md20cdf3f71" x="57.6" y="206.904217" style="stroke: #000000; stroke-width: 0.8"/>
      </g>
     </g>
     <g id="text_14">
      <!-- 30 -->
      <g transform="translate(37.875 210.703435) scale(0.1 -0.1)">
       <use xlink:href="#DejaVuSans-33"/>
       <use xlink:href="#DejaVuSans-30" x="63.623047"/>
      </g>
     </g>
    </g>
    <g id="ytick_4">
     <g id="line2d_14">
      <g>
       <use xlink:href="#md20cdf3f71" x="57.6" y="171.3284" style="stroke: #000000; stroke-width: 0.8"/>
      </g>
     </g>
     <g id="text_15">
      <!-- 40 -->
      <g transform="translate(37.875 175.127619) scale(0.1 -0.1)">
       <use xlink:href="#DejaVuSans-34"/>
       <use xlink:href="#DejaVuSans-30" x="63.623047"/>
      </g>
     </g>
    </g>
    <g id="ytick_5">
     <g id="line2d_15">
      <g>
       <use xlink:href="#md20cdf3f71" x="57.6" y="135.752583" style="stroke: #000000; stroke-width: 0.8"/>
      </g>
     </g>
     <g id="text_16">
      <!-- 50 -->
      <g transform="translate(37.875 139.551802) scale(0.1 -0.1)">
       <defs>
        <path id="DejaVuSans-35" d="M 691 4666 
L 3169 4666 
L 3169 4134 
L 1269 4134 
L 1269 2991 
Q 1406 3038 1543 3061 
Q 1681 3084 1819 3084 
Q 2600 3084 3056 2656 
Q 3513 2228 3513 1497 
Q 3513 744 3044 326 
Q 2575 -91 1722 -91 
Q 1428 -91 1123 -41 
Q 819 9 494 109 
L 494 744 
Q 775 591 1075 516 
Q 1375 441 1709 441 
Q 2250 441 2565 725 
Q 2881 1009 2881 1497 
Q 2881 1984 2565 2268 
Q 2250 2553 1709 2553 
Q 1456 2553 1204 2497 
Q 953 2441 691 2322 
L 691 4666 
z
" transform="scale(0.015625)"/>
       </defs>
       <use xlink:href="#DejaVuSans-35"/>
       <use xlink:href="#DejaVuSans-30" x="63.623047"/>
      </g>
     </g>
    </g>
    <g id="ytick_6">
     <g id="line2d_16">
      <g>
       <use xlink:href="#md20cdf3f71" x="57.6" y="100.176767" style="stroke: #000000; stroke-width: 0.8"/>
      </g>
     </g>
     <g id="text_17">
      <!-- 60 -->
      <g transform="translate(37.875 103.975986) scale(0.1 -0.1)">
       <use xlink:href="#DejaVuSans-36"/>
       <use xlink:href="#DejaVuSans-30" x="63.623047"/>
      </g>
     </g>
    </g>
    <g id="ytick_7">
     <g id="line2d_17">
      <g>
       <use xlink:href="#md20cdf3f71" x="57.6" y="64.60095" style="stroke: #000000; stroke-width: 0.8"/>
      </g>
     </g>
     <g id="text_18">
      <!-- 70 -->
      <g transform="translate(37.875 68.400169) scale(0.1 -0.1)">
       <use xlink:href="#DejaVuSans-37"/>
       <use xlink:href="#DejaVuSans-30" x="63.623047"/>
      </g>
     </g>
    </g>
    <g id="text_19">
     <!-- Accuracy -->
     <g transform="translate(31.795312 197.356125) rotate(-90) scale(0.1 -0.1)">
      <defs>
       <path id="DejaVuSans-41" d="M 2188 4044 
L 1331 1722 
L 3047 1722 
L 2188 4044 
z
M 1831 4666 
L 2547 4666 
L 4325 0 
L 3669 0 
L 3244 1197 
L 1141 1197 
L 716 0 
L 50 0 
L 1831 4666 
z
" transform="scale(0.015625)"/>
       <path id="DejaVuSans-75" d="M 544 1381 
L 544 3500 
L 1119 3500 
L 1119 1403 
Q 1119 906 1312 657 
Q 1506 409 1894 409 
Q 2359 409 2629 706 
Q 2900 1003 2900 1516 
L 2900 3500 
L 3475 3500 
L 3475 0 
L 2900 0 
L 2900 538 
Q 2691 219 2414 64 
Q 2138 -91 1772 -91 
Q 1169 -91 856 284 
Q 544 659 544 1381 
z
M 1991 3584 
L 1991 3584 
z
" transform="scale(0.015625)"/>
       <path id="DejaVuSans-72" d="M 2631 2963 
Q 2534 3019 2420 3045 
Q 2306 3072 2169 3072 
Q 1681 3072 1420 2755 
Q 1159 2438 1159 1844 
L 1159 0 
L 581 0 
L 581 3500 
L 1159 3500 
L 1159 2956 
Q 1341 3275 1631 3429 
Q 1922 3584 2338 3584 
Q 2397 3584 2469 3576 
Q 2541 3569 2628 3553 
L 2631 2963 
z
" transform="scale(0.015625)"/>
       <path id="DejaVuSans-61" d="M 2194 1759 
Q 1497 1759 1228 1600 
Q 959 1441 959 1056 
Q 959 750 1161 570 
Q 1363 391 1709 391 
Q 2188 391 2477 730 
Q 2766 1069 2766 1631 
L 2766 1759 
L 2194 1759 
z
M 3341 1997 
L 3341 0 
L 2766 0 
L 2766 531 
Q 2569 213 2275 61 
Q 1981 -91 1556 -91 
Q 1019 -91 701 211 
Q 384 513 384 1019 
Q 384 1609 779 1909 
Q 1175 2209 1959 2209 
L 2766 2209 
L 2766 2266 
Q 2766 2663 2505 2880 
Q 2244 3097 1772 3097 
Q 1472 3097 1187 3025 
Q 903 2953 641 2809 
L 641 3341 
Q 956 3463 1253 3523 
Q 1550 3584 1831 3584 
Q 2591 3584 2966 3190 
Q 3341 2797 3341 1997 
z
" transform="scale(0.015625)"/>
       <path id="DejaVuSans-79" d="M 2059 -325 
Q 1816 -950 1584 -1140 
Q 1353 -1331 966 -1331 
L 506 -1331 
L 506 -850 
L 844 -850 
Q 1081 -850 1212 -737 
Q 1344 -625 1503 -206 
L 1606 56 
L 191 3500 
L 800 3500 
L 1894 763 
L 2988 3500 
L 3597 3500 
L 2059 -325 
z
" transform="scale(0.015625)"/>
      </defs>
      <use xlink:href="#DejaVuSans-41"/>
      <use xlink:href="#DejaVuSans-63" x="66.658203"/>
      <use xlink:href="#DejaVuSans-63" x="121.638672"/>
      <use xlink:href="#DejaVuSans-75" x="176.619141"/>
      <use xlink:href="#DejaVuSans-72" x="239.998047"/>
      <use xlink:href="#DejaVuSans-61" x="281.111328"/>
      <use xlink:href="#DejaVuSans-63" x="342.390625"/>
      <use xlink:href="#DejaVuSans-79" x="397.371094"/>
     </g>
    </g>
   </g>
   <g id="line2d_18">
    <path d="M 73.832727 295.488 
L 74.918528 271.581051 
L 76.00433 253.748673 
L 77.090131 239.433854 
L 78.175932 226.866697 
L 80.347534 208.834205 
L 82.519137 193.314255 
L 83.604938 185.763288 
L 84.690739 181.129537 
L 85.77654 175.335126 
L 87.948142 165.396133 
L 89.033943 160.428859 
L 90.119745 157.547218 
L 91.205546 152.913468 
L 92.291347 149.653834 
L 93.377148 148.844484 
L 94.462949 146.736617 
L 95.54875 179.573095 
L 96.634552 178.043335 
L 97.720353 172.609129 
L 98.806154 170.301148 
L 99.891955 167.397272 
L 100.977756 163.821903 
L 104.23516 155.04357 
L 105.320961 153.055771 
L 107.492563 146.220767 
L 108.578364 144.063984 
L 109.664165 142.311875 
L 110.749967 139.047793 
L 111.835768 137.429094 
L 112.921569 133.564671 
L 114.00737 131.101045 
L 115.093171 130.113816 
L 116.178972 128.606291 
L 117.264773 125.382233 
L 118.350575 122.85635 
L 119.436376 120.953044 
L 120.522177 117.444379 
L 121.607978 116.159202 
L 122.693779 113.375395 
L 123.77958 112.188052 
L 124.865382 109.479843 
L 125.951183 108.270265 
L 128.122785 103.249628 
L 129.208586 103.111772 
L 130.294387 99.909948 
L 131.380189 99.033894 
L 132.46599 99.709834 
L 133.551791 97.272891 
L 134.637592 96.410177 
L 135.723393 96.534693 
L 136.809194 95.396266 
L 137.894995 94.724773 
L 138.980797 134.107202 
L 140.066598 135.712561 
L 141.152399 136.89101 
L 142.2382 134.769801 
L 143.324001 133.724762 
L 145.495604 132.381775 
L 146.581405 130.345059 
L 147.667206 129.317808 
L 148.753007 129.246656 
L 149.838808 127.868093 
L 150.924609 125.084285 
L 152.01041 124.786338 
L 154.182013 122.696259 
L 155.267814 123.083146 
L 156.353615 120.188164 
L 157.439416 119.747913 
L 158.525217 119.814618 
L 160.69682 115.821232 
L 161.782621 116.826249 
L 162.868422 114.874026 
L 163.954223 114.260343 
L 165.040024 112.566045 
L 166.125825 111.641074 
L 167.211627 110.24917 
L 168.297428 109.928987 
L 169.383229 108.10128 
L 170.46903 107.287483 
L 171.554831 106.824997 
L 172.640632 105.739935 
L 173.726434 104.983949 
L 174.812235 104.557039 
L 175.898036 102.70265 
L 176.983837 101.123973 
L 178.069638 101.457496 
L 179.155439 99.914395 
L 181.327042 97.477452 
L 182.412843 97.241762 
L 183.498644 95.698661 
L 184.584445 94.951569 
L 185.670246 93.003793 
L 186.756047 92.336746 
L 187.841849 91.874261 
L 188.92765 89.290567 
L 190.013451 88.792505 
L 191.099252 87.400602 
L 194.356656 84.434468 
L 195.442457 83.282701 
L 196.528258 82.406646 
L 197.614059 82.255449 
L 198.69986 79.307103 
L 199.785661 79.160353 
L 200.871462 77.790684 
L 203.043065 75.562749 
L 204.128866 75.371529 
L 205.214667 73.623867 
L 206.300468 73.232533 
L 207.386269 72.561039 
L 208.472071 70.760013 
L 209.557872 70.911211 
L 210.643673 69.959558 
L 211.729474 69.225806 
L 213.901076 66.428658 
L 216.072679 66.397529 
L 217.15848 65.210186 
L 218.244281 65.619308 
L 219.330082 65.490346 
L 220.415883 64.605397 
L 221.501684 65.561497 
L 222.587486 64.560927 
L 223.673287 65.508133 
L 224.759088 65.02786 
L 225.844889 112.285885 
L 226.93069 115.407663 
L 228.016491 117.097515 
L 229.102292 117.013022 
L 230.188094 115.234231 
L 231.273895 116.915188 
L 232.359696 115.394322 
L 233.445497 114.891814 
L 234.531298 114.718382 
L 235.617099 114.0291 
L 236.702901 112.681666 
L 237.788702 112.49934 
L 238.874503 111.774483 
L 239.960304 111.636627 
L 241.046105 110.209147 
L 242.131906 110.982921 
L 243.217708 110.342556 
L 244.303509 107.998999 
L 245.38931 109.591017 
L 246.475111 109.026251 
L 247.560912 107.260801 
L 248.646713 106.522603 
L 250.818316 107.300824 
L 251.904117 105.161828 
L 254.075719 105.179616 
L 255.16152 104.530357 
L 256.247321 104.170152 
L 257.333123 104.472547 
L 258.418924 102.822718 
L 260.590526 104.045637 
L 261.676327 101.381898 
L 262.762128 102.235717 
L 263.847929 101.928876 
L 264.933731 100.617017 
L 266.019532 101.524201 
L 267.105333 100.710404 
L 268.191134 99.705387 
L 269.276935 99.367417 
L 270.362736 98.073347 
L 271.448538 99.305159 
L 272.534339 98.780416 
L 273.62014 98.584749 
L 274.705941 97.330701 
L 275.791742 97.326254 
L 276.877543 97.12614 
L 277.963344 97.179504 
L 279.049146 96.152252 
L 280.134947 96.325685 
L 281.220748 95.342903 
L 282.306549 94.706985 
L 283.39235 94.818159 
L 284.478151 94.048832 
L 285.563953 93.49296 
L 286.649754 93.955446 
L 287.735555 92.96377 
L 288.821356 92.332299 
L 289.907157 92.310064 
L 290.992958 91.202767 
L 292.07876 91.305047 
L 293.164561 90.833668 
L 294.250362 90.842562 
L 296.421964 88.716907 
L 297.507765 89.219415 
L 298.593566 89.081559 
L 300.765169 86.506759 
L 301.85097 87.943133 
L 302.936771 87.316109 
L 304.022572 86.133213 
L 305.108373 85.114855 
L 306.194175 84.821355 
L 307.279976 85.083727 
L 308.365777 84.016452 
L 309.451578 83.571754 
L 311.62318 82.12204 
L 313.794783 81.446099 
L 314.880584 80.112006 
L 315.966385 79.991938 
L 317.052186 79.689543 
L 318.137987 79.071414 
L 320.30959 78.173124 
L 322.481192 77.9152 
L 323.566993 76.158644 
L 324.652794 76.478826 
L 325.738595 73.597185 
L 326.824396 75.029111 
L 327.910198 73.668336 
L 328.995999 73.735041 
L 330.0818 72.992396 
L 331.167601 73.010184 
L 333.339203 71.564916 
L 334.425005 71.186923 
L 335.510806 70.248611 
L 336.596607 70.244164 
L 337.682408 68.136297 
L 338.768209 69.541542 
L 339.85401 67.913948 
L 340.939811 67.442568 
L 342.025613 67.464803 
L 343.111414 65.846104 
L 344.197215 65.308019 
L 345.283016 64.258533 
L 346.368817 63.702661 
L 347.454618 64.080654 
L 348.54042 63.120107 
L 349.626221 62.506424 
L 350.712022 61.448043 
L 351.797823 61.390233 
L 352.883624 60.291829 
L 353.969425 59.651465 
L 355.055227 59.180085 
L 356.141028 59.927177 
L 357.226829 58.384076 
L 358.31263 57.0989 
L 359.398431 56.325126 
L 360.484232 56.95215 
L 361.570033 55.33345 
L 362.655835 56.00939 
L 364.827437 53.705856 
L 365.913238 53.568 
L 366.999039 53.616917 
L 368.08484 54.355115 
L 369.170642 55.511329 
L 370.256443 57.926038 
L 371.342244 58.708706 
L 372.428045 61.599241 
L 373.513846 62.252946 
L 374.599647 61.501407 
L 375.685448 61.790461 
L 376.77125 62.284075 
L 377.857051 61.412468 
L 378.942852 62.137325 
L 380.028653 61.941658 
L 381.114454 62.168454 
L 382.200255 62.204029 
L 384.371858 61.73265 
L 385.457659 61.866059 
L 386.54346 61.839377 
L 387.629261 62.092855 
L 390.886665 62.017256 
L 391.972466 62.893311 
L 393.058267 61.239035 
L 394.144068 61.96834 
L 395.229869 61.603688 
L 396.31567 63.364691 
L 397.401472 61.723756 
L 398.487273 62.702091 
L 398.487273 62.702091 
" clip-path="url(#p8e18ac7144)" style="fill: none; stroke: #1f77b4; stroke-width: 1.5; stroke-linecap: square"/>
   </g>
   <g id="line2d_19">
    <path d="M 73.832727 281.026431 
L 74.918528 259.200667 
L 76.00433 244.027581 
L 77.090131 223.71379 
L 78.175932 212.987681 
L 79.261733 207.882552 
L 80.347534 201.087571 
L 81.433335 191.179706 
L 82.519137 185.309696 
L 83.604938 182.356903 
L 84.690739 167.984273 
L 85.77654 171.648582 
L 86.862341 159.197047 
L 87.948142 154.536615 
L 89.033943 152.36649 
L 90.119745 145.909479 
L 92.291347 143.187929 
L 93.377148 140.2885 
L 94.462949 139.594772 
L 95.54875 180.755991 
L 96.634552 172.555766 
L 97.720353 166.774695 
L 98.806154 170.172186 
L 99.891955 160.477776 
L 100.977756 159.463865 
L 102.063557 154.554402 
L 103.149358 152.081883 
L 104.23516 147.68827 
L 105.320961 144.379719 
L 106.406762 136.179493 
L 107.492563 139.754863 
L 108.578364 137.584738 
L 109.664165 132.141638 
L 110.749967 131.78588 
L 112.921569 124.261595 
L 114.00737 124.741868 
L 115.093171 118.302645 
L 116.178972 120.792952 
L 117.264773 118.26707 
L 118.350575 117.964675 
L 119.436376 111.294209 
L 120.522177 110.938451 
L 121.607978 111.134118 
L 122.693779 105.975625 
L 123.77958 102.151225 
L 124.865382 101.08395 
L 125.951183 99.607554 
L 127.036984 98.949401 
L 128.122785 96.423518 
L 129.208586 94.413484 
L 130.294387 93.879847 
L 131.380189 93.933211 
L 132.46599 91.923177 
L 133.551791 91.318388 
L 134.637592 91.691934 
L 135.723393 90.678024 
L 136.809194 90.037659 
L 137.894995 90.340053 
L 138.980797 133.475731 
L 140.066598 127.303327 
L 141.152399 125.471172 
L 142.2382 126.324992 
L 143.324001 125.666839 
L 144.409802 124.439474 
L 145.495604 125.631264 
L 146.581405 132.106062 
L 147.667206 122.322713 
L 148.753007 120.917468 
L 149.838808 125.613476 
L 150.924609 120.419406 
L 152.01041 116.008005 
L 153.096212 114.424881 
L 154.182013 116.915188 
L 155.267814 115.11861 
L 156.353615 115.45658 
L 157.439416 118.284857 
L 158.525217 111.507664 
L 159.611019 110.422602 
L 160.69682 111.080755 
L 161.782621 107.896719 
L 162.868422 112.005726 
L 163.954223 108.786114 
L 165.040024 108.839478 
L 166.125825 105.175169 
L 167.211627 107.309718 
L 168.297428 103.734348 
L 169.383229 105.388624 
L 170.46903 100.532525 
L 171.554831 104.481441 
L 172.640632 104.428077 
L 173.726434 96.850428 
L 174.812235 100.105615 
L 175.898036 97.775399 
L 176.983837 93.061603 
L 178.069638 94.698091 
L 179.155439 93.701968 
L 180.24124 95.30288 
L 181.327042 93.203907 
L 182.412843 92.812573 
L 183.498644 87.333897 
L 184.584445 89.699689 
L 185.670246 92.652482 
L 186.756047 88.507899 
L 187.841849 89.343931 
L 188.92765 84.238801 
L 190.013451 86.37335 
L 191.099252 86.675744 
L 192.185053 83.118163 
L 193.270854 84.309953 
L 194.356656 83.509497 
L 195.442457 79.845188 
L 196.528258 78.617822 
L 197.614059 78.564458 
L 198.69986 77.675063 
L 199.785661 76.127515 
L 200.871462 75.06024 
L 201.957264 75.860696 
L 203.043065 73.886238 
L 204.128866 73.583844 
L 205.214667 71.965144 
L 206.300468 71.556022 
L 207.386269 71.022385 
L 208.472071 70.239717 
L 209.557872 69.688292 
L 210.643673 69.457049 
L 211.729474 69.101291 
L 212.815275 68.08738 
L 213.901076 68.389775 
L 214.986877 67.002318 
L 216.072679 68.034016 
L 217.15848 67.286924 
L 218.244281 66.788863 
L 219.330082 66.699923 
L 220.415883 66.860014 
L 221.501684 66.433105 
L 222.587486 66.166286 
L 223.673287 66.273014 
L 224.759088 66.184074 
L 225.844889 115.79455 
L 226.93069 113.677789 
L 228.016491 122.589531 
L 229.102292 113.962396 
L 230.188094 111.489876 
L 231.273895 115.936854 
L 232.359696 116.719521 
L 233.445497 120.063648 
L 234.531298 111.827847 
L 235.617099 106.313595 
L 236.702901 106.135716 
L 237.788702 107.914507 
L 238.874503 106.61599 
L 239.960304 107.701052 
L 241.046105 112.183605 
L 242.131906 113.695577 
L 243.217708 111.472089 
L 244.303509 108.501508 
L 245.38931 103.769924 
L 246.475111 105.957837 
L 247.560912 102.506983 
L 248.646713 106.135716 
L 249.732514 107.469809 
L 250.818316 106.402535 
L 251.904117 104.090107 
L 254.075719 98.735946 
L 255.16152 101.795466 
L 256.247321 101.795466 
L 257.333123 102.542559 
L 258.418924 102.738226 
L 259.504725 102.222376 
L 260.590526 98.682582 
L 261.676327 110.902875 
L 262.762128 101.93777 
L 263.847929 96.886004 
L 264.933731 100.461373 
L 266.019532 101.777678 
L 267.105333 99.571978 
L 268.191134 98.842674 
L 269.276935 96.227851 
L 270.362736 97.846551 
L 271.448538 94.502424 
L 272.534339 98.042218 
L 273.62014 97.277338 
L 274.705941 100.550313 
L 275.791742 95.747578 
L 276.877543 99.749857 
L 277.963344 94.431272 
L 279.049146 96.138912 
L 280.134947 93.630816 
L 281.220748 94.02215 
L 282.306549 95.658638 
L 283.39235 99.038341 
L 284.478151 96.548033 
L 285.563953 90.215538 
L 286.649754 95.445183 
L 288.821356 89.557385 
L 289.907157 93.77312 
L 290.992958 93.524089 
L 292.07876 91.496267 
L 293.164561 90.7136 
L 294.250362 89.717477 
L 295.336163 86.871411 
L 296.421964 88.579051 
L 297.507765 93.844271 
L 298.593566 86.391138 
L 299.679368 87.351685 
L 300.765169 89.699689 
L 301.85097 86.088743 
L 302.936771 90.233326 
L 304.022572 86.978139 
L 305.108373 85.661834 
L 306.194175 88.739142 
L 307.279976 86.248835 
L 308.365777 86.231047 
L 309.451578 84.185437 
L 310.537379 79.774036 
L 311.62318 83.705164 
L 312.708981 80.129794 
L 313.794783 82.157616 
L 314.880584 82.442222 
L 315.966385 85.60847 
L 317.052186 82.584525 
L 318.137987 80.183158 
L 319.223788 80.236522 
L 320.30959 75.540514 
L 321.395391 82.495586 
L 322.481192 78.920216 
L 323.566993 82.815768 
L 324.652794 78.29764 
L 325.738595 82.175404 
L 326.824396 75.593877 
L 327.910198 76.163091 
L 328.995999 78.155336 
L 330.0818 77.746214 
L 331.167601 75.91406 
L 332.253402 74.348724 
L 333.339203 74.170845 
L 334.425005 73.797299 
L 335.510806 79.293762 
L 336.596607 75.344847 
L 337.682408 74.3843 
L 338.768209 73.10357 
L 339.85401 75.095816 
L 340.939811 68.976776 
L 342.025613 71.876205 
L 343.111414 72.374266 
L 344.197215 69.812807 
L 345.283016 70.684415 
L 346.368817 70.079626 
L 347.454618 67.215773 
L 348.54042 66.98453 
L 349.626221 68.229683 
L 350.712022 67.713834 
L 351.797823 67.3225 
L 352.883624 66.201862 
L 353.969425 65.899467 
L 355.055227 64.334132 
L 356.141028 65.650437 
L 357.226829 65.152375 
L 358.31263 63.16013 
L 359.398431 61.754885 
L 360.484232 62.875523 
L 361.570033 61.630369 
L 362.655835 61.897188 
L 363.741636 64.120677 
L 364.827437 60.972217 
L 365.913238 61.914976 
L 366.999039 59.300153 
L 368.08484 62.021703 
L 370.256443 63.800494 
L 371.342244 65.525921 
L 372.428045 67.678258 
L 373.513846 68.692169 
L 374.599647 68.781109 
L 375.685448 68.211896 
L 376.77125 67.927289 
L 377.857051 70.737778 
L 378.942852 67.304712 
L 380.028653 68.158532 
L 381.114454 69.528201 
L 382.200255 74.811209 
L 383.286057 70.951233 
L 384.371858 69.332534 
L 385.457659 67.126833 
L 386.54346 68.976776 
L 387.629261 68.105168 
L 388.715062 70.613263 
L 389.800863 69.70608 
L 390.886665 69.883959 
L 391.972466 67.3225 
L 393.058267 71.1469 
L 394.144068 71.306992 
L 395.229869 67.909501 
L 396.31567 68.709957 
L 397.401472 68.105168 
L 398.487273 66.112922 
L 398.487273 66.112922 
" clip-path="url(#p8e18ac7144)" style="fill: none; stroke: #ff7f0e; stroke-width: 1.5; stroke-linecap: square"/>
   </g>
   <g id="line2d_20">
    <path d="M 73.832727 293.512929 
L 74.918528 284.434962 
L 76.00433 279.527953 
L 77.090131 270.818011 
L 78.175932 263.334822 
L 80.347534 255.115582 
L 81.433335 249.717872 
L 82.519137 248.123094 
L 83.604938 245.91494 
L 84.690739 238.063725 
L 85.77654 245.056213 
L 86.862341 235.487545 
L 87.948142 229.353784 
L 89.033943 229.476459 
L 90.119745 223.220022 
L 91.205546 225.060151 
L 92.291347 223.588048 
L 93.377148 220.521167 
L 94.462949 221.134543 
L 95.54875 246.528316 
L 96.634552 234.751494 
L 97.720353 240.76258 
L 98.806154 240.885255 
L 99.891955 235.855571 
L 100.977756 228.249707 
L 102.063557 232.175314 
L 103.149358 233.034041 
L 104.23516 225.428176 
L 106.406762 215.736833 
L 107.492563 220.889193 
L 108.578364 222.115945 
L 110.749967 215.736833 
L 111.835768 212.915303 
L 112.921569 208.86702 
L 114.00737 210.707149 
L 115.093171 206.29084 
L 116.178972 204.818738 
L 117.264773 205.677464 
L 118.350575 206.781541 
L 119.436376 199.053002 
L 120.522177 197.948925 
L 121.607978 200.770455 
L 122.693779 196.967523 
L 123.77958 188.748283 
L 124.865382 189.975035 
L 125.951183 187.644206 
L 127.036984 191.447138 
L 128.122785 190.343061 
L 129.208586 186.417453 
L 130.294387 189.238984 
L 131.380189 190.220385 
L 132.46599 185.190701 
L 133.551791 186.049428 
L 134.637592 184.822675 
L 135.723393 184.7 
L 136.809194 183.473248 
L 137.894995 183.841273 
L 138.980797 211.811226 
L 140.066598 217.086261 
L 141.152399 211.19785 
L 142.2382 207.272242 
L 143.324001 206.781541 
L 144.409802 209.725747 
L 145.495604 202.365233 
L 146.581405 219.049064 
L 147.667206 207.149567 
L 148.753007 208.130969 
L 149.838808 211.19785 
L 150.924609 208.744345 
L 152.01041 202.365233 
L 153.096212 197.212873 
L 154.182013 207.026892 
L 155.267814 195.740771 
L 156.353615 200.770455 
L 157.439416 199.911729 
L 158.525217 196.599497 
L 159.611019 194.759369 
L 160.69682 193.164591 
L 162.868422 198.684976 
L 163.954223 192.183189 
L 165.040024 193.041916 
L 166.125825 195.986121 
L 167.211627 199.789053 
L 168.297428 191.447138 
L 169.383229 194.023317 
L 170.46903 190.711086 
L 171.554831 190.833762 
L 172.640632 186.417453 
L 173.726434 184.577325 
L 174.812235 189.975035 
L 175.898036 188.870958 
L 176.983837 179.670316 
L 178.069638 189.238984 
L 179.155439 182.982547 
L 180.24124 183.595923 
L 181.327042 178.934264 
L 182.412843 178.811589 
L 183.498644 175.008657 
L 184.584445 181.755795 
L 185.670246 186.294778 
L 186.756047 176.48076 
L 187.841849 174.272606 
L 188.92765 176.358084 
L 190.013451 173.781905 
L 191.099252 175.254007 
L 192.185053 173.781905 
L 193.270854 171.941776 
L 194.356656 177.216811 
L 195.442457 173.291204 
L 196.528258 172.432477 
L 197.614059 165.317314 
L 198.69986 168.384194 
L 199.785661 168.874895 
L 200.871462 171.696426 
L 201.957264 170.101648 
L 203.043065 167.648143 
L 204.128866 164.213237 
L 205.214667 163.722536 
L 206.300468 165.808015 
L 207.386269 162.986484 
L 208.472071 162.741134 
L 209.557872 162.986484 
L 210.643673 163.477185 
L 211.729474 163.10916 
L 212.815275 164.949288 
L 213.901076 162.495783 
L 214.986877 162.495783 
L 216.072679 160.410305 
L 217.15848 160.410305 
L 218.244281 159.306227 
L 219.330082 161.023681 
L 220.415883 161.269031 
L 221.501684 159.796928 
L 222.587486 160.53298 
L 223.673287 159.919604 
L 224.759088 160.287629 
L 225.844889 205.186763 
L 226.93069 194.514018 
L 228.016491 216.59556 
L 229.102292 198.194275 
L 230.188094 195.863446 
L 231.273895 199.666378 
L 232.359696 200.157079 
L 233.445497 205.80014 
L 234.531298 202.978609 
L 235.617099 191.815163 
L 236.702901 191.937839 
L 237.788702 189.607009 
L 238.874503 187.889556 
L 239.960304 188.380257 
L 241.046105 199.666378 
L 242.131906 198.930327 
L 243.217708 199.298352 
L 244.303509 190.465736 
L 246.475111 195.127395 
L 247.560912 191.937839 
L 248.646713 196.476822 
L 249.732514 199.053002 
L 250.818316 195.986121 
L 251.904117 185.681402 
L 252.989918 193.287266 
L 254.075719 185.190701 
L 255.16152 194.023317 
L 256.247321 191.201787 
L 257.333123 187.030829 
L 258.418924 187.030829 
L 259.504725 188.380257 
L 260.590526 189.116308 
L 261.676327 200.157079 
L 262.762128 187.030829 
L 263.847929 183.473248 
L 264.933731 188.257582 
L 266.019532 190.09771 
L 267.105333 182.737196 
L 268.191134 181.142418 
L 269.276935 186.662804 
L 270.362736 190.09771 
L 271.448538 176.48076 
L 272.534339 183.595923 
L 273.62014 181.633119 
L 274.705941 182.246495 
L 275.791742 185.068026 
L 276.877543 187.27618 
L 277.963344 188.625607 
L 279.049146 187.644206 
L 280.134947 176.603435 
L 281.220748 174.272606 
L 282.306549 186.172103 
L 283.39235 186.662804 
L 284.478151 190.09771 
L 285.563953 174.517956 
L 286.649754 184.45465 
L 287.735555 187.398855 
L 288.821356 178.075538 
L 289.907157 185.681402 
L 290.992958 184.822675 
L 292.07876 186.294778 
L 293.164561 182.614521 
L 294.250362 178.320888 
L 295.336163 174.640631 
L 296.421964 175.008657 
L 297.507765 184.94535 
L 298.593566 176.971461 
L 299.679368 178.075538 
L 300.765169 180.161017 
L 301.85097 172.064451 
L 302.936771 175.376683 
L 304.022572 168.874895 
L 305.108373 176.358084 
L 306.194175 179.179615 
L 307.279976 171.3284 
L 308.365777 173.168528 
L 309.451578 174.640631 
L 310.537379 168.138844 
L 311.62318 170.469673 
L 312.708981 166.298716 
L 313.794783 169.733622 
L 314.880584 168.384194 
L 315.966385 172.923178 
L 317.052186 176.848785 
L 318.137987 168.75222 
L 319.223788 168.629545 
L 320.30959 162.250433 
L 321.395391 174.395281 
L 322.481192 167.893494 
L 323.566993 168.50687 
L 324.652794 167.402793 
L 325.738595 172.923178 
L 326.824396 162.005083 
L 327.910198 162.863809 
L 328.995999 177.462161 
L 330.0818 167.280117 
L 332.253402 163.967886 
L 333.339203 163.477185 
L 334.425005 162.863809 
L 335.510806 168.997571 
L 336.596607 162.250433 
L 337.682408 163.35451 
L 338.768209 155.871321 
L 339.85401 161.882407 
L 340.939811 159.551578 
L 342.025613 165.317314 
L 343.111414 167.893494 
L 344.197215 155.38062 
L 345.283016 156.607372 
L 346.368817 158.447501 
L 347.454618 158.447501 
L 348.54042 156.116672 
L 349.626221 152.068389 
L 350.712022 157.098073 
L 351.797823 157.9568 
L 352.883624 153.540492 
L 353.969425 155.871321 
L 355.055227 155.38062 
L 356.141028 156.484697 
L 357.226829 151.209662 
L 358.31263 152.436415 
L 359.398431 150.350936 
L 360.484232 151.086987 
L 361.570033 150.596286 
L 362.655835 151.945714 
L 363.741636 157.098073 
L 364.827437 151.455013 
L 365.913238 153.785842 
L 366.999039 148.020106 
L 368.08484 152.927116 
L 369.170642 149.492209 
L 370.256443 156.730048 
L 371.342244 155.993996 
L 372.428045 160.77833 
L 373.513846 163.477185 
L 374.599647 156.730048 
L 375.685448 154.399218 
L 376.77125 156.975398 
L 377.857051 162.863809 
L 378.942852 162.373108 
L 380.028653 157.711449 
L 381.114454 159.306227 
L 382.200255 164.458587 
L 383.286057 167.893494 
L 384.371858 159.674253 
L 385.457659 155.13527 
L 386.54346 156.484697 
L 387.629261 155.38062 
L 388.715062 165.317314 
L 389.800863 158.324826 
L 390.886665 152.313739 
L 391.972466 153.295141 
L 393.058267 161.391706 
L 394.144068 159.919604 
L 395.229869 155.993996 
L 396.31567 158.938202 
L 397.401472 154.399218 
L 398.487273 152.927116 
L 398.487273 152.927116 
" clip-path="url(#p8e18ac7144)" style="fill: none; stroke: #2ca02c; stroke-width: 1.5; stroke-linecap: square"/>
   </g>
   <g id="line2d_21">
    <path d="M 368.08484 61.363551 
L 369.170642 62.73322 
L 370.256443 64.547586 
L 371.342244 66.077347 
L 372.428045 65.597073 
L 373.513846 67.856137 
L 374.599647 72.125235 
L 375.685448 69.243594 
L 376.77125 71.66275 
L 377.857051 68.585442 
L 378.942852 72.498781 
L 380.028653 72.445418 
L 381.114454 71.111325 
L 382.200255 72.374266 
L 383.286057 71.840629 
L 384.371858 71.004597 
L 385.457659 76.59 
L 386.54346 75.202543 
L 387.629261 74.63333 
L 388.715062 80.752371 
L 389.800863 75.451574 
L 390.886665 77.87073 
L 391.972466 81.286008 
L 393.058267 82.406646 
L 394.144068 75.309271 
L 395.229869 77.657275 
L 396.31567 84.647923 
L 397.401472 87.760807 
L 398.487273 83.384981 
L 398.487273 83.384981 
" clip-path="url(#p8e18ac7144)" style="fill: none; stroke: #d62728; stroke-width: 1.5; stroke-linecap: square"/>
   </g>
   <g id="line2d_22">
    <path d="M 368.08484 153.417816 
L 369.170642 151.700363 
L 370.256443 154.644569 
L 371.342244 153.540492 
L 372.428045 152.80444 
L 373.513846 158.20215 
L 374.599647 164.458587 
L 375.685448 161.146356 
L 376.77125 162.741134 
L 377.857051 158.20215 
L 378.942852 165.562664 
L 380.028653 162.005083 
L 381.114454 155.748646 
L 382.200255 159.306227 
L 383.286057 160.655655 
L 384.371858 156.239347 
L 385.457659 155.38062 
L 386.54346 157.466099 
L 387.629261 159.919604 
L 388.715062 165.194639 
L 389.800863 159.919604 
L 390.886665 161.391706 
L 391.972466 164.335912 
L 393.058267 169.733622 
L 394.144068 160.410305 
L 395.229869 157.834125 
L 396.31567 166.421391 
L 397.401472 170.960374 
L 398.487273 161.882407 
L 398.487273 161.882407 
" clip-path="url(#p8e18ac7144)" style="fill: none; stroke: #9467bd; stroke-width: 1.5; stroke-linecap: square"/>
   </g>
   <g id="patch_3">
    <path d="M 57.6 307.584 
L 57.6 41.472 
" style="fill: none; stroke: #000000; stroke-width: 0.8; stroke-linejoin: miter; stroke-linecap: square"/>
   </g>
   <g id="patch_4">
    <path d="M 414.72 307.584 
L 414.72 41.472 
" style="fill: none; stroke: #000000; stroke-width: 0.8; stroke-linejoin: miter; stroke-linecap: square"/>
   </g>
   <g id="patch_5">
    <path d="M 57.6 307.584 
L 414.72 307.584 
" style="fill: none; stroke: #000000; stroke-width: 0.8; stroke-linejoin: miter; stroke-linecap: square"/>
   </g>
   <g id="patch_6">
    <path d="M 57.6 41.472 
L 414.72 41.472 
" style="fill: none; stroke: #000000; stroke-width: 0.8; stroke-linejoin: miter; stroke-linecap: square"/>
   </g>
   <g id="text_20">
    <!-- Learning Curves -->
    <g transform="translate(187.37625 35.472) scale(0.12 -0.12)">
     <defs>
      <path id="DejaVuSans-4c" d="M 628 4666 
L 1259 4666 
L 1259 531 
L 3531 531 
L 3531 0 
L 628 0 
L 628 4666 
z
" transform="scale(0.015625)"/>
      <path id="DejaVuSans-65" d="M 3597 1894 
L 3597 1613 
L 953 1613 
Q 991 1019 1311 708 
Q 1631 397 2203 397 
Q 2534 397 2845 478 
Q 3156 559 3463 722 
L 3463 178 
Q 3153 47 2828 -22 
Q 2503 -91 2169 -91 
Q 1331 -91 842 396 
Q 353 884 353 1716 
Q 353 2575 817 3079 
Q 1281 3584 2069 3584 
Q 2775 3584 3186 3129 
Q 3597 2675 3597 1894 
z
M 3022 2063 
Q 3016 2534 2758 2815 
Q 2500 3097 2075 3097 
Q 1594 3097 1305 2825 
Q 1016 2553 972 2059 
L 3022 2063 
z
" transform="scale(0.015625)"/>
      <path id="DejaVuSans-6e" d="M 3513 2113 
L 3513 0 
L 2938 0 
L 2938 2094 
Q 2938 2591 2744 2837 
Q 2550 3084 2163 3084 
Q 1697 3084 1428 2787 
Q 1159 2491 1159 1978 
L 1159 0 
L 581 0 
L 581 3500 
L 1159 3500 
L 1159 2956 
Q 1366 3272 1645 3428 
Q 1925 3584 2291 3584 
Q 2894 3584 3203 3211 
Q 3513 2838 3513 2113 
z
" transform="scale(0.015625)"/>
      <path id="DejaVuSans-69" d="M 603 3500 
L 1178 3500 
L 1178 0 
L 603 0 
L 603 3500 
z
M 603 4863 
L 1178 4863 
L 1178 4134 
L 603 4134 
L 603 4863 
z
" transform="scale(0.015625)"/>
      <path id="DejaVuSans-67" d="M 2906 1791 
Q 2906 2416 2648 2759 
Q 2391 3103 1925 3103 
Q 1463 3103 1205 2759 
Q 947 2416 947 1791 
Q 947 1169 1205 825 
Q 1463 481 1925 481 
Q 2391 481 2648 825 
Q 2906 1169 2906 1791 
z
M 3481 434 
Q 3481 -459 3084 -895 
Q 2688 -1331 1869 -1331 
Q 1566 -1331 1297 -1286 
Q 1028 -1241 775 -1147 
L 775 -588 
Q 1028 -725 1275 -790 
Q 1522 -856 1778 -856 
Q 2344 -856 2625 -561 
Q 2906 -266 2906 331 
L 2906 616 
Q 2728 306 2450 153 
Q 2172 0 1784 0 
Q 1141 0 747 490 
Q 353 981 353 1791 
Q 353 2603 747 3093 
Q 1141 3584 1784 3584 
Q 2172 3584 2450 3431 
Q 2728 3278 2906 2969 
L 2906 3500 
L 3481 3500 
L 3481 434 
z
" transform="scale(0.015625)"/>
      <path id="DejaVuSans-20" transform="scale(0.015625)"/>
      <path id="DejaVuSans-43" d="M 4122 4306 
L 4122 3641 
Q 3803 3938 3442 4084 
Q 3081 4231 2675 4231 
Q 1875 4231 1450 3742 
Q 1025 3253 1025 2328 
Q 1025 1406 1450 917 
Q 1875 428 2675 428 
Q 3081 428 3442 575 
Q 3803 722 4122 1019 
L 4122 359 
Q 3791 134 3420 21 
Q 3050 -91 2638 -91 
Q 1578 -91 968 557 
Q 359 1206 359 2328 
Q 359 3453 968 4101 
Q 1578 4750 2638 4750 
Q 3056 4750 3426 4639 
Q 3797 4528 4122 4306 
z
" transform="scale(0.015625)"/>
      <path id="DejaVuSans-76" d="M 191 3500 
L 800 3500 
L 1894 563 
L 2988 3500 
L 3597 3500 
L 2284 0 
L 1503 0 
L 191 3500 
z
" transform="scale(0.015625)"/>
     </defs>
     <use xlink:href="#DejaVuSans-4c"/>
     <use xlink:href="#DejaVuSans-65" x="53.962891"/>
     <use xlink:href="#DejaVuSans-61" x="115.486328"/>
     <use xlink:href="#DejaVuSans-72" x="176.765625"/>
     <use xlink:href="#DejaVuSans-6e" x="216.128906"/>
     <use xlink:href="#DejaVuSans-69" x="279.507812"/>
     <use xlink:href="#DejaVuSans-6e" x="307.291016"/>
     <use xlink:href="#DejaVuSans-67" x="370.669922"/>
     <use xlink:href="#DejaVuSans-20" x="434.146484"/>
     <use xlink:href="#DejaVuSans-43" x="465.933594"/>
     <use xlink:href="#DejaVuSans-75" x="535.757812"/>
     <use xlink:href="#DejaVuSans-72" x="599.136719"/>
     <use xlink:href="#DejaVuSans-76" x="640.25"/>
     <use xlink:href="#DejaVuSans-65" x="699.429688"/>
     <use xlink:href="#DejaVuSans-73" x="760.953125"/>
    </g>
   </g>
   <g id="legend_1">
    <g id="patch_7">
     <path d="M 214.18875 302.584 
L 407.72 302.584 
Q 409.72 302.584 409.72 300.584 
L 409.72 228.193375 
Q 409.72 226.193375 407.72 226.193375 
L 214.18875 226.193375 
Q 212.18875 226.193375 212.18875 228.193375 
L 212.18875 300.584 
Q 212.18875 302.584 214.18875 302.584 
z
" style="fill: #ffffff; opacity: 0.8; stroke: #cccccc; stroke-linejoin: miter"/>
    </g>
    <g id="line2d_23">
     <path d="M 216.18875 234.291812 
L 226.18875 234.291812 
L 236.18875 234.291812 
" style="fill: none; stroke: #1f77b4; stroke-width: 1.5; stroke-linecap: square"/>
    </g>
    <g id="text_21">
     <!-- Train Accuracy -->
     <g transform="translate(244.18875 237.791812) scale(0.1 -0.1)">
      <defs>
       <path id="DejaVuSans-54" d="M -19 4666 
L 3928 4666 
L 3928 4134 
L 2272 4134 
L 2272 0 
L 1638 0 
L 1638 4134 
L -19 4134 
L -19 4666 
z
" transform="scale(0.015625)"/>
      </defs>
      <use xlink:href="#DejaVuSans-54"/>
      <use xlink:href="#DejaVuSans-72" x="46.333984"/>
      <use xlink:href="#DejaVuSans-61" x="87.447266"/>
      <use xlink:href="#DejaVuSans-69" x="148.726562"/>
      <use xlink:href="#DejaVuSans-6e" x="176.509766"/>
      <use xlink:href="#DejaVuSans-20" x="239.888672"/>
      <use xlink:href="#DejaVuSans-41" x="271.675781"/>
      <use xlink:href="#DejaVuSans-63" x="338.333984"/>
      <use xlink:href="#DejaVuSans-63" x="393.314453"/>
      <use xlink:href="#DejaVuSans-75" x="448.294922"/>
      <use xlink:href="#DejaVuSans-72" x="511.673828"/>
      <use xlink:href="#DejaVuSans-61" x="552.787109"/>
      <use xlink:href="#DejaVuSans-63" x="614.066406"/>
      <use xlink:href="#DejaVuSans-79" x="669.046875"/>
     </g>
    </g>
    <g id="line2d_24">
     <path d="M 216.18875 248.969937 
L 226.18875 248.969937 
L 236.18875 248.969937 
" style="fill: none; stroke: #ff7f0e; stroke-width: 1.5; stroke-linecap: square"/>
    </g>
    <g id="text_22">
     <!-- Validation Accuracy -->
     <g transform="translate(244.18875 252.469937) scale(0.1 -0.1)">
      <defs>
       <path id="DejaVuSans-56" d="M 1831 0 
L 50 4666 
L 709 4666 
L 2188 738 
L 3669 4666 
L 4325 4666 
L 2547 0 
L 1831 0 
z
" transform="scale(0.015625)"/>
       <path id="DejaVuSans-6c" d="M 603 4863 
L 1178 4863 
L 1178 0 
L 603 0 
L 603 4863 
z
" transform="scale(0.015625)"/>
       <path id="DejaVuSans-64" d="M 2906 2969 
L 2906 4863 
L 3481 4863 
L 3481 0 
L 2906 0 
L 2906 525 
Q 2725 213 2448 61 
Q 2172 -91 1784 -91 
Q 1150 -91 751 415 
Q 353 922 353 1747 
Q 353 2572 751 3078 
Q 1150 3584 1784 3584 
Q 2172 3584 2448 3432 
Q 2725 3281 2906 2969 
z
M 947 1747 
Q 947 1113 1208 752 
Q 1469 391 1925 391 
Q 2381 391 2643 752 
Q 2906 1113 2906 1747 
Q 2906 2381 2643 2742 
Q 2381 3103 1925 3103 
Q 1469 3103 1208 2742 
Q 947 2381 947 1747 
z
" transform="scale(0.015625)"/>
       <path id="DejaVuSans-74" d="M 1172 4494 
L 1172 3500 
L 2356 3500 
L 2356 3053 
L 1172 3053 
L 1172 1153 
Q 1172 725 1289 603 
Q 1406 481 1766 481 
L 2356 481 
L 2356 0 
L 1766 0 
Q 1100 0 847 248 
Q 594 497 594 1153 
L 594 3053 
L 172 3053 
L 172 3500 
L 594 3500 
L 594 4494 
L 1172 4494 
z
" transform="scale(0.015625)"/>
      </defs>
      <use xlink:href="#DejaVuSans-56"/>
      <use xlink:href="#DejaVuSans-61" x="60.658203"/>
      <use xlink:href="#DejaVuSans-6c" x="121.9375"/>
      <use xlink:href="#DejaVuSans-69" x="149.720703"/>
      <use xlink:href="#DejaVuSans-64" x="177.503906"/>
      <use xlink:href="#DejaVuSans-61" x="240.980469"/>
      <use xlink:href="#DejaVuSans-74" x="302.259766"/>
      <use xlink:href="#DejaVuSans-69" x="341.46875"/>
      <use xlink:href="#DejaVuSans-6f" x="369.251953"/>
      <use xlink:href="#DejaVuSans-6e" x="430.433594"/>
      <use xlink:href="#DejaVuSans-20" x="493.8125"/>
      <use xlink:href="#DejaVuSans-41" x="525.599609"/>
      <use xlink:href="#DejaVuSans-63" x="592.257812"/>
      <use xlink:href="#DejaVuSans-63" x="647.238281"/>
      <use xlink:href="#DejaVuSans-75" x="702.21875"/>
      <use xlink:href="#DejaVuSans-72" x="765.597656"/>
      <use xlink:href="#DejaVuSans-61" x="806.710938"/>
      <use xlink:href="#DejaVuSans-63" x="867.990234"/>
      <use xlink:href="#DejaVuSans-79" x="922.970703"/>
     </g>
    </g>
    <g id="line2d_25">
     <path d="M 216.18875 263.648062 
L 226.18875 263.648062 
L 236.18875 263.648062 
" style="fill: none; stroke: #2ca02c; stroke-width: 1.5; stroke-linecap: square"/>
    </g>
    <g id="text_23">
     <!-- Robust Validation Accuracy -->
     <g transform="translate(244.18875 267.148062) scale(0.1 -0.1)">
      <defs>
       <path id="DejaVuSans-52" d="M 2841 2188 
Q 3044 2119 3236 1894 
Q 3428 1669 3622 1275 
L 4263 0 
L 3584 0 
L 2988 1197 
Q 2756 1666 2539 1819 
Q 2322 1972 1947 1972 
L 1259 1972 
L 1259 0 
L 628 0 
L 628 4666 
L 2053 4666 
Q 2853 4666 3247 4331 
Q 3641 3997 3641 3322 
Q 3641 2881 3436 2590 
Q 3231 2300 2841 2188 
z
M 1259 4147 
L 1259 2491 
L 2053 2491 
Q 2509 2491 2742 2702 
Q 2975 2913 2975 3322 
Q 2975 3731 2742 3939 
Q 2509 4147 2053 4147 
L 1259 4147 
z
" transform="scale(0.015625)"/>
       <path id="DejaVuSans-62" d="M 3116 1747 
Q 3116 2381 2855 2742 
Q 2594 3103 2138 3103 
Q 1681 3103 1420 2742 
Q 1159 2381 1159 1747 
Q 1159 1113 1420 752 
Q 1681 391 2138 391 
Q 2594 391 2855 752 
Q 3116 1113 3116 1747 
z
M 1159 2969 
Q 1341 3281 1617 3432 
Q 1894 3584 2278 3584 
Q 2916 3584 3314 3078 
Q 3713 2572 3713 1747 
Q 3713 922 3314 415 
Q 2916 -91 2278 -91 
Q 1894 -91 1617 61 
Q 1341 213 1159 525 
L 1159 0 
L 581 0 
L 581 4863 
L 1159 4863 
L 1159 2969 
z
" transform="scale(0.015625)"/>
      </defs>
      <use xlink:href="#DejaVuSans-52"/>
      <use xlink:href="#DejaVuSans-6f" x="64.982422"/>
      <use xlink:href="#DejaVuSans-62" x="126.164062"/>
      <use xlink:href="#DejaVuSans-75" x="189.640625"/>
      <use xlink:href="#DejaVuSans-73" x="253.019531"/>
      <use xlink:href="#DejaVuSans-74" x="305.119141"/>
      <use xlink:href="#DejaVuSans-20" x="344.328125"/>
      <use xlink:href="#DejaVuSans-56" x="376.115234"/>
      <use xlink:href="#DejaVuSans-61" x="436.773438"/>
      <use xlink:href="#DejaVuSans-6c" x="498.052734"/>
      <use xlink:href="#DejaVuSans-69" x="525.835938"/>
      <use xlink:href="#DejaVuSans-64" x="553.619141"/>
      <use xlink:href="#DejaVuSans-61" x="617.095703"/>
      <use xlink:href="#DejaVuSans-74" x="678.375"/>
      <use xlink:href="#DejaVuSans-69" x="717.583984"/>
      <use xlink:href="#DejaVuSans-6f" x="745.367188"/>
      <use xlink:href="#DejaVuSans-6e" x="806.548828"/>
      <use xlink:href="#DejaVuSans-20" x="869.927734"/>
      <use xlink:href="#DejaVuSans-41" x="901.714844"/>
      <use xlink:href="#DejaVuSans-63" x="968.373047"/>
      <use xlink:href="#DejaVuSans-63" x="1023.353516"/>
      <use xlink:href="#DejaVuSans-75" x="1078.333984"/>
      <use xlink:href="#DejaVuSans-72" x="1141.712891"/>
      <use xlink:href="#DejaVuSans-61" x="1182.826172"/>
      <use xlink:href="#DejaVuSans-63" x="1244.105469"/>
      <use xlink:href="#DejaVuSans-79" x="1299.085938"/>
     </g>
    </g>
    <g id="line2d_26">
     <path d="M 216.18875 278.326188 
L 226.18875 278.326188 
L 236.18875 278.326188 
" style="fill: none; stroke: #d62728; stroke-width: 1.5; stroke-linecap: square"/>
    </g>
    <g id="text_24">
     <!-- SWA Validation Accuracy -->
     <g transform="translate(244.18875 281.826188) scale(0.1 -0.1)">
      <defs>
       <path id="DejaVuSans-53" d="M 3425 4513 
L 3425 3897 
Q 3066 4069 2747 4153 
Q 2428 4238 2131 4238 
Q 1616 4238 1336 4038 
Q 1056 3838 1056 3469 
Q 1056 3159 1242 3001 
Q 1428 2844 1947 2747 
L 2328 2669 
Q 3034 2534 3370 2195 
Q 3706 1856 3706 1288 
Q 3706 609 3251 259 
Q 2797 -91 1919 -91 
Q 1588 -91 1214 -16 
Q 841 59 441 206 
L 441 856 
Q 825 641 1194 531 
Q 1563 422 1919 422 
Q 2459 422 2753 634 
Q 3047 847 3047 1241 
Q 3047 1584 2836 1778 
Q 2625 1972 2144 2069 
L 1759 2144 
Q 1053 2284 737 2584 
Q 422 2884 422 3419 
Q 422 4038 858 4394 
Q 1294 4750 2059 4750 
Q 2388 4750 2728 4690 
Q 3069 4631 3425 4513 
z
" transform="scale(0.015625)"/>
       <path id="DejaVuSans-57" d="M 213 4666 
L 850 4666 
L 1831 722 
L 2809 4666 
L 3519 4666 
L 4500 722 
L 5478 4666 
L 6119 4666 
L 4947 0 
L 4153 0 
L 3169 4050 
L 2175 0 
L 1381 0 
L 213 4666 
z
" transform="scale(0.015625)"/>
      </defs>
      <use xlink:href="#DejaVuSans-53"/>
      <use xlink:href="#DejaVuSans-57" x="63.476562"/>
      <use xlink:href="#DejaVuSans-41" x="156.853516"/>
      <use xlink:href="#DejaVuSans-20" x="225.261719"/>
      <use xlink:href="#DejaVuSans-56" x="257.048828"/>
      <use xlink:href="#DejaVuSans-61" x="317.707031"/>
      <use xlink:href="#DejaVuSans-6c" x="378.986328"/>
      <use xlink:href="#DejaVuSans-69" x="406.769531"/>
      <use xlink:href="#DejaVuSans-64" x="434.552734"/>
      <use xlink:href="#DejaVuSans-61" x="498.029297"/>
      <use xlink:href="#DejaVuSans-74" x="559.308594"/>
      <use xlink:href="#DejaVuSans-69" x="598.517578"/>
      <use xlink:href="#DejaVuSans-6f" x="626.300781"/>
      <use xlink:href="#DejaVuSans-6e" x="687.482422"/>
      <use xlink:href="#DejaVuSans-20" x="750.861328"/>
      <use xlink:href="#DejaVuSans-41" x="782.648438"/>
      <use xlink:href="#DejaVuSans-63" x="849.306641"/>
      <use xlink:href="#DejaVuSans-63" x="904.287109"/>
      <use xlink:href="#DejaVuSans-75" x="959.267578"/>
      <use xlink:href="#DejaVuSans-72" x="1022.646484"/>
      <use xlink:href="#DejaVuSans-61" x="1063.759766"/>
      <use xlink:href="#DejaVuSans-63" x="1125.039062"/>
      <use xlink:href="#DejaVuSans-79" x="1180.019531"/>
     </g>
    </g>
    <g id="line2d_27">
     <path d="M 216.18875 293.004312 
L 226.18875 293.004312 
L 236.18875 293.004312 
" style="fill: none; stroke: #9467bd; stroke-width: 1.5; stroke-linecap: square"/>
    </g>
    <g id="text_25">
     <!-- SWA Robust Validation Accuracy -->
     <g transform="translate(244.18875 296.504312) scale(0.1 -0.1)">
      <use xlink:href="#DejaVuSans-53"/>
      <use xlink:href="#DejaVuSans-57" x="63.476562"/>
      <use xlink:href="#DejaVuSans-41" x="156.853516"/>
      <use xlink:href="#DejaVuSans-20" x="225.261719"/>
      <use xlink:href="#DejaVuSans-52" x="257.048828"/>
      <use xlink:href="#DejaVuSans-6f" x="322.03125"/>
      <use xlink:href="#DejaVuSans-62" x="383.212891"/>
      <use xlink:href="#DejaVuSans-75" x="446.689453"/>
      <use xlink:href="#DejaVuSans-73" x="510.068359"/>
      <use xlink:href="#DejaVuSans-74" x="562.167969"/>
      <use xlink:href="#DejaVuSans-20" x="601.376953"/>
      <use xlink:href="#DejaVuSans-56" x="633.164062"/>
      <use xlink:href="#DejaVuSans-61" x="693.822266"/>
      <use xlink:href="#DejaVuSans-6c" x="755.101562"/>
      <use xlink:href="#DejaVuSans-69" x="782.884766"/>
      <use xlink:href="#DejaVuSans-64" x="810.667969"/>
      <use xlink:href="#DejaVuSans-61" x="874.144531"/>
      <use xlink:href="#DejaVuSans-74" x="935.423828"/>
      <use xlink:href="#DejaVuSans-69" x="974.632812"/>
      <use xlink:href="#DejaVuSans-6f" x="1002.416016"/>
      <use xlink:href="#DejaVuSans-6e" x="1063.597656"/>
      <use xlink:href="#DejaVuSans-20" x="1126.976562"/>
      <use xlink:href="#DejaVuSans-41" x="1158.763672"/>
      <use xlink:href="#DejaVuSans-63" x="1225.421875"/>
      <use xlink:href="#DejaVuSans-63" x="1280.402344"/>
      <use xlink:href="#DejaVuSans-75" x="1335.382812"/>
      <use xlink:href="#DejaVuSans-72" x="1398.761719"/>
      <use xlink:href="#DejaVuSans-61" x="1439.875"/>
      <use xlink:href="#DejaVuSans-63" x="1501.154297"/>
      <use xlink:href="#DejaVuSans-79" x="1556.134766"/>
     </g>
    </g>
   </g>
  </g>
 </g>
 <defs>
  <clipPath id="p8e18ac7144">
   <rect x="57.6" y="41.472" width="357.12" height="266.112"/>
  </clipPath>
 </defs>
</svg>
