<?xml version="1.0" encoding="utf-8" standalone="no"?>
<!DOCTYPE svg PUBLIC "-//W3C//DTD SVG 1.1//EN"
  "http://www.w3.org/Graphics/SVG/1.1/DTD/svg11.dtd">
<svg xmlns:xlink="http://www.w3.org/1999/xlink" width="460.8pt" height="345.6pt" viewBox="0 0 460.8 345.6" xmlns="http://www.w3.org/2000/svg" version="1.1">
 <metadata>
  <rdf:RDF xmlns:dc="http://purl.org/dc/elements/1.1/" xmlns:cc="http://creativecommons.org/ns#" xmlns:rdf="http://www.w3.org/1999/02/22-rdf-syntax-ns#">
   <cc:Work>
    <dc:type rdf:resource="http://purl.org/dc/dcmitype/StillImage"/>
    <dc:date>2025-02-03T02:06:06.662030</dc:date>
    <dc:format>image/svg+xml</dc:format>
    <dc:creator>
     <cc:Agent>
      <dc:title>Matplotlib v3.9.1, https://matplotlib.org/</dc:title>
     </cc:Agent>
    </dc:creator>
   </cc:Work>
  </rdf:RDF>
 </metadata>
 <defs>
  <style type="text/css">*{stroke-linejoin: round; stroke-linecap: butt}</style>
 </defs>
 <g id="figure_1">
  <g id="patch_1">
   <path d="M 0 345.6 
L 460.8 345.6 
L 460.8 0 
L 0 0 
z
" style="fill: #ffffff"/>
  </g>
  <g id="axes_1">
   <g id="patch_2">
    <path d="M 57.6 307.584 
L 414.72 307.584 
L 414.72 41.472 
L 57.6 41.472 
z
" style="fill: #ffffff"/>
   </g>
   <g id="matplotlib.axis_1">
    <g id="xtick_1">
     <g id="line2d_1">
      <defs>
       <path id="m5576d756d3" d="M 0 0 
L 0 3.5 
" style="stroke: #000000; stroke-width: 0.8"/>
      </defs>
      <g>
       <use xlink:href="#m5576d756d3" x="73.832727" y="307.584" style="stroke: #000000; stroke-width: 0.8"/>
      </g>
     </g>
     <g id="text_1">
      <!-- 1 -->
      <g transform="translate(70.651477 322.182437) scale(0.1 -0.1)">
       <defs>
        <path id="DejaVuSans-31" d="M 794 531 
L 1825 531 
L 1825 4091 
L 703 3866 
L 703 4441 
L 1819 4666 
L 2450 4666 
L 2450 531 
L 3481 531 
L 3481 0 
L 794 0 
L 794 531 
z
" transform="scale(0.015625)"/>
       </defs>
       <use xlink:href="#DejaVuSans-31"/>
      </g>
     </g>
    </g>
    <g id="xtick_2">
     <g id="line2d_2">
      <g>
       <use xlink:href="#m5576d756d3" x="109.664165" y="307.584" style="stroke: #000000; stroke-width: 0.8"/>
      </g>
     </g>
     <g id="text_2">
      <!-- 34 -->
      <g transform="translate(103.301665 322.182437) scale(0.1 -0.1)">
       <defs>
        <path id="DejaVuSans-33" d="M 2597 2516 
Q 3050 2419 3304 2112 
Q 3559 1806 3559 1356 
Q 3559 666 3084 287 
Q 2609 -91 1734 -91 
Q 1441 -91 1130 -33 
Q 819 25 488 141 
L 488 750 
Q 750 597 1062 519 
Q 1375 441 1716 441 
Q 2309 441 2620 675 
Q 2931 909 2931 1356 
Q 2931 1769 2642 2001 
Q 2353 2234 1838 2234 
L 1294 2234 
L 1294 2753 
L 1863 2753 
Q 2328 2753 2575 2939 
Q 2822 3125 2822 3475 
Q 2822 3834 2567 4026 
Q 2313 4219 1838 4219 
Q 1578 4219 1281 4162 
Q 984 4106 628 3988 
L 628 4550 
Q 988 4650 1302 4700 
Q 1616 4750 1894 4750 
Q 2613 4750 3031 4423 
Q 3450 4097 3450 3541 
Q 3450 3153 3228 2886 
Q 3006 2619 2597 2516 
z
" transform="scale(0.015625)"/>
        <path id="DejaVuSans-34" d="M 2419 4116 
L 825 1625 
L 2419 1625 
L 2419 4116 
z
M 2253 4666 
L 3047 4666 
L 3047 1625 
L 3713 1625 
L 3713 1100 
L 3047 1100 
L 3047 0 
L 2419 0 
L 2419 1100 
L 313 1100 
L 313 1709 
L 2253 4666 
z
" transform="scale(0.015625)"/>
       </defs>
       <use xlink:href="#DejaVuSans-33"/>
       <use xlink:href="#DejaVuSans-34" x="63.623047"/>
      </g>
     </g>
    </g>
    <g id="xtick_3">
     <g id="line2d_3">
      <g>
       <use xlink:href="#m5576d756d3" x="145.495604" y="307.584" style="stroke: #000000; stroke-width: 0.8"/>
      </g>
     </g>
     <g id="text_3">
      <!-- 67 -->
      <g transform="translate(139.133104 322.182437) scale(0.1 -0.1)">
       <defs>
        <path id="DejaVuSans-36" d="M 2113 2584 
Q 1688 2584 1439 2293 
Q 1191 2003 1191 1497 
Q 1191 994 1439 701 
Q 1688 409 2113 409 
Q 2538 409 2786 701 
Q 3034 994 3034 1497 
Q 3034 2003 2786 2293 
Q 2538 2584 2113 2584 
z
M 3366 4563 
L 3366 3988 
Q 3128 4100 2886 4159 
Q 2644 4219 2406 4219 
Q 1781 4219 1451 3797 
Q 1122 3375 1075 2522 
Q 1259 2794 1537 2939 
Q 1816 3084 2150 3084 
Q 2853 3084 3261 2657 
Q 3669 2231 3669 1497 
Q 3669 778 3244 343 
Q 2819 -91 2113 -91 
Q 1303 -91 875 529 
Q 447 1150 447 2328 
Q 447 3434 972 4092 
Q 1497 4750 2381 4750 
Q 2619 4750 2861 4703 
Q 3103 4656 3366 4563 
z
" transform="scale(0.015625)"/>
        <path id="DejaVuSans-37" d="M 525 4666 
L 3525 4666 
L 3525 4397 
L 1831 0 
L 1172 0 
L 2766 4134 
L 525 4134 
L 525 4666 
z
" transform="scale(0.015625)"/>
       </defs>
       <use xlink:href="#DejaVuSans-36"/>
       <use xlink:href="#DejaVuSans-37" x="63.623047"/>
      </g>
     </g>
    </g>
    <g id="xtick_4">
     <g id="line2d_4">
      <g>
       <use xlink:href="#m5576d756d3" x="181.327042" y="307.584" style="stroke: #000000; stroke-width: 0.8"/>
      </g>
     </g>
     <g id="text_4">
      <!-- 100 -->
      <g transform="translate(171.783292 322.182437) scale(0.1 -0.1)">
       <defs>
        <path id="DejaVuSans-30" d="M 2034 4250 
Q 1547 4250 1301 3770 
Q 1056 3291 1056 2328 
Q 1056 1369 1301 889 
Q 1547 409 2034 409 
Q 2525 409 2770 889 
Q 3016 1369 3016 2328 
Q 3016 3291 2770 3770 
Q 2525 4250 2034 4250 
z
M 2034 4750 
Q 2819 4750 3233 4129 
Q 3647 3509 3647 2328 
Q 3647 1150 3233 529 
Q 2819 -91 2034 -91 
Q 1250 -91 836 529 
Q 422 1150 422 2328 
Q 422 3509 836 4129 
Q 1250 4750 2034 4750 
z
" transform="scale(0.015625)"/>
       </defs>
       <use xlink:href="#DejaVuSans-31"/>
       <use xlink:href="#DejaVuSans-30" x="63.623047"/>
       <use xlink:href="#DejaVuSans-30" x="127.246094"/>
      </g>
     </g>
    </g>
    <g id="xtick_5">
     <g id="line2d_5">
      <g>
       <use xlink:href="#m5576d756d3" x="217.15848" y="307.584" style="stroke: #000000; stroke-width: 0.8"/>
      </g>
     </g>
     <g id="text_5">
      <!-- 133 -->
      <g transform="translate(207.61473 322.182437) scale(0.1 -0.1)">
       <use xlink:href="#DejaVuSans-31"/>
       <use xlink:href="#DejaVuSans-33" x="63.623047"/>
       <use xlink:href="#DejaVuSans-33" x="127.246094"/>
      </g>
     </g>
    </g>
    <g id="xtick_6">
     <g id="line2d_6">
      <g>
       <use xlink:href="#m5576d756d3" x="254.075719" y="307.584" style="stroke: #000000; stroke-width: 0.8"/>
      </g>
     </g>
     <g id="text_6">
      <!-- 167 -->
      <g transform="translate(244.531969 322.182437) scale(0.1 -0.1)">
       <use xlink:href="#DejaVuSans-31"/>
       <use xlink:href="#DejaVuSans-36" x="63.623047"/>
       <use xlink:href="#DejaVuSans-37" x="127.246094"/>
      </g>
     </g>
    </g>
    <g id="xtick_7">
     <g id="line2d_7">
      <g>
       <use xlink:href="#m5576d756d3" x="289.907157" y="307.584" style="stroke: #000000; stroke-width: 0.8"/>
      </g>
     </g>
     <g id="text_7">
      <!-- 200 -->
      <g transform="translate(280.363407 322.182437) scale(0.1 -0.1)">
       <defs>
        <path id="DejaVuSans-32" d="M 1228 531 
L 3431 531 
L 3431 0 
L 469 0 
L 469 531 
Q 828 903 1448 1529 
Q 2069 2156 2228 2338 
Q 2531 2678 2651 2914 
Q 2772 3150 2772 3378 
Q 2772 3750 2511 3984 
Q 2250 4219 1831 4219 
Q 1534 4219 1204 4116 
Q 875 4013 500 3803 
L 500 4441 
Q 881 4594 1212 4672 
Q 1544 4750 1819 4750 
Q 2544 4750 2975 4387 
Q 3406 4025 3406 3419 
Q 3406 3131 3298 2873 
Q 3191 2616 2906 2266 
Q 2828 2175 2409 1742 
Q 1991 1309 1228 531 
z
" transform="scale(0.015625)"/>
       </defs>
       <use xlink:href="#DejaVuSans-32"/>
       <use xlink:href="#DejaVuSans-30" x="63.623047"/>
       <use xlink:href="#DejaVuSans-30" x="127.246094"/>
      </g>
     </g>
    </g>
    <g id="xtick_8">
     <g id="line2d_8">
      <g>
       <use xlink:href="#m5576d756d3" x="325.738595" y="307.584" style="stroke: #000000; stroke-width: 0.8"/>
      </g>
     </g>
     <g id="text_8">
      <!-- 233 -->
      <g transform="translate(316.194845 322.182437) scale(0.1 -0.1)">
       <use xlink:href="#DejaVuSans-32"/>
       <use xlink:href="#DejaVuSans-33" x="63.623047"/>
       <use xlink:href="#DejaVuSans-33" x="127.246094"/>
      </g>
     </g>
    </g>
    <g id="xtick_9">
     <g id="line2d_9">
      <g>
       <use xlink:href="#m5576d756d3" x="361.570033" y="307.584" style="stroke: #000000; stroke-width: 0.8"/>
      </g>
     </g>
     <g id="text_9">
      <!-- 266 -->
      <g transform="translate(352.026283 322.182437) scale(0.1 -0.1)">
       <use xlink:href="#DejaVuSans-32"/>
       <use xlink:href="#DejaVuSans-36" x="63.623047"/>
       <use xlink:href="#DejaVuSans-36" x="127.246094"/>
      </g>
     </g>
    </g>
    <g id="xtick_10">
     <g id="line2d_10">
      <g>
       <use xlink:href="#m5576d756d3" x="398.487273" y="307.584" style="stroke: #000000; stroke-width: 0.8"/>
      </g>
     </g>
     <g id="text_10">
      <!-- 300 -->
      <g transform="translate(388.943523 322.182437) scale(0.1 -0.1)">
       <use xlink:href="#DejaVuSans-33"/>
       <use xlink:href="#DejaVuSans-30" x="63.623047"/>
       <use xlink:href="#DejaVuSans-30" x="127.246094"/>
      </g>
     </g>
    </g>
    <g id="text_11">
     <!-- Epochs -->
     <g transform="translate(218.244375 335.860562) scale(0.1 -0.1)">
      <defs>
       <path id="DejaVuSans-45" d="M 628 4666 
L 3578 4666 
L 3578 4134 
L 1259 4134 
L 1259 2753 
L 3481 2753 
L 3481 2222 
L 1259 2222 
L 1259 531 
L 3634 531 
L 3634 0 
L 628 0 
L 628 4666 
z
" transform="scale(0.015625)"/>
       <path id="DejaVuSans-70" d="M 1159 525 
L 1159 -1331 
L 581 -1331 
L 581 3500 
L 1159 3500 
L 1159 2969 
Q 1341 3281 1617 3432 
Q 1894 3584 2278 3584 
Q 2916 3584 3314 3078 
Q 3713 2572 3713 1747 
Q 3713 922 3314 415 
Q 2916 -91 2278 -91 
Q 1894 -91 1617 61 
Q 1341 213 1159 525 
z
M 3116 1747 
Q 3116 2381 2855 2742 
Q 2594 3103 2138 3103 
Q 1681 3103 1420 2742 
Q 1159 2381 1159 1747 
Q 1159 1113 1420 752 
Q 1681 391 2138 391 
Q 2594 391 2855 752 
Q 3116 1113 3116 1747 
z
" transform="scale(0.015625)"/>
       <path id="DejaVuSans-6f" d="M 1959 3097 
Q 1497 3097 1228 2736 
Q 959 2375 959 1747 
Q 959 1119 1226 758 
Q 1494 397 1959 397 
Q 2419 397 2687 759 
Q 2956 1122 2956 1747 
Q 2956 2369 2687 2733 
Q 2419 3097 1959 3097 
z
M 1959 3584 
Q 2709 3584 3137 3096 
Q 3566 2609 3566 1747 
Q 3566 888 3137 398 
Q 2709 -91 1959 -91 
Q 1206 -91 779 398 
Q 353 888 353 1747 
Q 353 2609 779 3096 
Q 1206 3584 1959 3584 
z
" transform="scale(0.015625)"/>
       <path id="DejaVuSans-63" d="M 3122 3366 
L 3122 2828 
Q 2878 2963 2633 3030 
Q 2388 3097 2138 3097 
Q 1578 3097 1268 2742 
Q 959 2388 959 1747 
Q 959 1106 1268 751 
Q 1578 397 2138 397 
Q 2388 397 2633 464 
Q 2878 531 3122 666 
L 3122 134 
Q 2881 22 2623 -34 
Q 2366 -91 2075 -91 
Q 1284 -91 818 406 
Q 353 903 353 1747 
Q 353 2603 823 3093 
Q 1294 3584 2113 3584 
Q 2378 3584 2631 3529 
Q 2884 3475 3122 3366 
z
" transform="scale(0.015625)"/>
       <path id="DejaVuSans-68" d="M 3513 2113 
L 3513 0 
L 2938 0 
L 2938 2094 
Q 2938 2591 2744 2837 
Q 2550 3084 2163 3084 
Q 1697 3084 1428 2787 
Q 1159 2491 1159 1978 
L 1159 0 
L 581 0 
L 581 4863 
L 1159 4863 
L 1159 2956 
Q 1366 3272 1645 3428 
Q 1925 3584 2291 3584 
Q 2894 3584 3203 3211 
Q 3513 2838 3513 2113 
z
" transform="scale(0.015625)"/>
       <path id="DejaVuSans-73" d="M 2834 3397 
L 2834 2853 
Q 2591 2978 2328 3040 
Q 2066 3103 1784 3103 
Q 1356 3103 1142 2972 
Q 928 2841 928 2578 
Q 928 2378 1081 2264 
Q 1234 2150 1697 2047 
L 1894 2003 
Q 2506 1872 2764 1633 
Q 3022 1394 3022 966 
Q 3022 478 2636 193 
Q 2250 -91 1575 -91 
Q 1294 -91 989 -36 
Q 684 19 347 128 
L 347 722 
Q 666 556 975 473 
Q 1284 391 1588 391 
Q 1994 391 2212 530 
Q 2431 669 2431 922 
Q 2431 1156 2273 1281 
Q 2116 1406 1581 1522 
L 1381 1569 
Q 847 1681 609 1914 
Q 372 2147 372 2553 
Q 372 3047 722 3315 
Q 1072 3584 1716 3584 
Q 2034 3584 2315 3537 
Q 2597 3491 2834 3397 
z
" transform="scale(0.015625)"/>
      </defs>
      <use xlink:href="#DejaVuSans-45"/>
      <use xlink:href="#DejaVuSans-70" x="63.183594"/>
      <use xlink:href="#DejaVuSans-6f" x="126.660156"/>
      <use xlink:href="#DejaVuSans-63" x="187.841797"/>
      <use xlink:href="#DejaVuSans-68" x="242.822266"/>
      <use xlink:href="#DejaVuSans-73" x="306.201172"/>
     </g>
    </g>
   </g>
   <g id="matplotlib.axis_2">
    <g id="ytick_1">
     <g id="line2d_11">
      <defs>
       <path id="m973077fe08" d="M 0 0 
L -3.5 0 
" style="stroke: #000000; stroke-width: 0.8"/>
      </defs>
      <g>
       <use xlink:href="#m973077fe08" x="57.6" y="253.53637" style="stroke: #000000; stroke-width: 0.8"/>
      </g>
     </g>
     <g id="text_12">
      <!-- 20 -->
      <g transform="translate(37.875 257.335588) scale(0.1 -0.1)">
       <use xlink:href="#DejaVuSans-32"/>
       <use xlink:href="#DejaVuSans-30" x="63.623047"/>
      </g>
     </g>
    </g>
    <g id="ytick_2">
     <g id="line2d_12">
      <g>
       <use xlink:href="#m973077fe08" x="57.6" y="195.409409" style="stroke: #000000; stroke-width: 0.8"/>
      </g>
     </g>
     <g id="text_13">
      <!-- 40 -->
      <g transform="translate(37.875 199.208628) scale(0.1 -0.1)">
       <use xlink:href="#DejaVuSans-34"/>
       <use xlink:href="#DejaVuSans-30" x="63.623047"/>
      </g>
     </g>
    </g>
    <g id="ytick_3">
     <g id="line2d_13">
      <g>
       <use xlink:href="#m973077fe08" x="57.6" y="137.282449" style="stroke: #000000; stroke-width: 0.8"/>
      </g>
     </g>
     <g id="text_14">
      <!-- 60 -->
      <g transform="translate(37.875 141.081667) scale(0.1 -0.1)">
       <use xlink:href="#DejaVuSans-36"/>
       <use xlink:href="#DejaVuSans-30" x="63.623047"/>
      </g>
     </g>
    </g>
    <g id="ytick_4">
     <g id="line2d_14">
      <g>
       <use xlink:href="#m973077fe08" x="57.6" y="79.155488" style="stroke: #000000; stroke-width: 0.8"/>
      </g>
     </g>
     <g id="text_15">
      <!-- 80 -->
      <g transform="translate(37.875 82.954707) scale(0.1 -0.1)">
       <defs>
        <path id="DejaVuSans-38" d="M 2034 2216 
Q 1584 2216 1326 1975 
Q 1069 1734 1069 1313 
Q 1069 891 1326 650 
Q 1584 409 2034 409 
Q 2484 409 2743 651 
Q 3003 894 3003 1313 
Q 3003 1734 2745 1975 
Q 2488 2216 2034 2216 
z
M 1403 2484 
Q 997 2584 770 2862 
Q 544 3141 544 3541 
Q 544 4100 942 4425 
Q 1341 4750 2034 4750 
Q 2731 4750 3128 4425 
Q 3525 4100 3525 3541 
Q 3525 3141 3298 2862 
Q 3072 2584 2669 2484 
Q 3125 2378 3379 2068 
Q 3634 1759 3634 1313 
Q 3634 634 3220 271 
Q 2806 -91 2034 -91 
Q 1263 -91 848 271 
Q 434 634 434 1313 
Q 434 1759 690 2068 
Q 947 2378 1403 2484 
z
M 1172 3481 
Q 1172 3119 1398 2916 
Q 1625 2713 2034 2713 
Q 2441 2713 2670 2916 
Q 2900 3119 2900 3481 
Q 2900 3844 2670 4047 
Q 2441 4250 2034 4250 
Q 1625 4250 1398 4047 
Q 1172 3844 1172 3481 
z
" transform="scale(0.015625)"/>
       </defs>
       <use xlink:href="#DejaVuSans-38"/>
       <use xlink:href="#DejaVuSans-30" x="63.623047"/>
      </g>
     </g>
    </g>
    <g id="text_16">
     <!-- Accuracy -->
     <g transform="translate(31.795312 197.356125) rotate(-90) scale(0.1 -0.1)">
      <defs>
       <path id="DejaVuSans-41" d="M 2188 4044 
L 1331 1722 
L 3047 1722 
L 2188 4044 
z
M 1831 4666 
L 2547 4666 
L 4325 0 
L 3669 0 
L 3244 1197 
L 1141 1197 
L 716 0 
L 50 0 
L 1831 4666 
z
" transform="scale(0.015625)"/>
       <path id="DejaVuSans-75" d="M 544 1381 
L 544 3500 
L 1119 3500 
L 1119 1403 
Q 1119 906 1312 657 
Q 1506 409 1894 409 
Q 2359 409 2629 706 
Q 2900 1003 2900 1516 
L 2900 3500 
L 3475 3500 
L 3475 0 
L 2900 0 
L 2900 538 
Q 2691 219 2414 64 
Q 2138 -91 1772 -91 
Q 1169 -91 856 284 
Q 544 659 544 1381 
z
M 1991 3584 
L 1991 3584 
z
" transform="scale(0.015625)"/>
       <path id="DejaVuSans-72" d="M 2631 2963 
Q 2534 3019 2420 3045 
Q 2306 3072 2169 3072 
Q 1681 3072 1420 2755 
Q 1159 2438 1159 1844 
L 1159 0 
L 581 0 
L 581 3500 
L 1159 3500 
L 1159 2956 
Q 1341 3275 1631 3429 
Q 1922 3584 2338 3584 
Q 2397 3584 2469 3576 
Q 2541 3569 2628 3553 
L 2631 2963 
z
" transform="scale(0.015625)"/>
       <path id="DejaVuSans-61" d="M 2194 1759 
Q 1497 1759 1228 1600 
Q 959 1441 959 1056 
Q 959 750 1161 570 
Q 1363 391 1709 391 
Q 2188 391 2477 730 
Q 2766 1069 2766 1631 
L 2766 1759 
L 2194 1759 
z
M 3341 1997 
L 3341 0 
L 2766 0 
L 2766 531 
Q 2569 213 2275 61 
Q 1981 -91 1556 -91 
Q 1019 -91 701 211 
Q 384 513 384 1019 
Q 384 1609 779 1909 
Q 1175 2209 1959 2209 
L 2766 2209 
L 2766 2266 
Q 2766 2663 2505 2880 
Q 2244 3097 1772 3097 
Q 1472 3097 1187 3025 
Q 903 2953 641 2809 
L 641 3341 
Q 956 3463 1253 3523 
Q 1550 3584 1831 3584 
Q 2591 3584 2966 3190 
Q 3341 2797 3341 1997 
z
" transform="scale(0.015625)"/>
       <path id="DejaVuSans-79" d="M 2059 -325 
Q 1816 -950 1584 -1140 
Q 1353 -1331 966 -1331 
L 506 -1331 
L 506 -850 
L 844 -850 
Q 1081 -850 1212 -737 
Q 1344 -625 1503 -206 
L 1606 56 
L 191 3500 
L 800 3500 
L 1894 763 
L 2988 3500 
L 3597 3500 
L 2059 -325 
z
" transform="scale(0.015625)"/>
      </defs>
      <use xlink:href="#DejaVuSans-41"/>
      <use xlink:href="#DejaVuSans-63" x="66.658203"/>
      <use xlink:href="#DejaVuSans-63" x="121.638672"/>
      <use xlink:href="#DejaVuSans-75" x="176.619141"/>
      <use xlink:href="#DejaVuSans-72" x="239.998047"/>
      <use xlink:href="#DejaVuSans-61" x="281.111328"/>
      <use xlink:href="#DejaVuSans-63" x="342.390625"/>
      <use xlink:href="#DejaVuSans-79" x="397.371094"/>
     </g>
    </g>
   </g>
   <g id="line2d_15">
    <path d="M 73.832727 292.687784 
L 74.918528 268.065203 
L 76.00433 251.318826 
L 77.090131 238.077504 
L 78.175932 227.242639 
L 79.261733 218.427685 
L 82.519137 197.760645 
L 83.604938 191.291114 
L 84.690739 186.545048 
L 86.862341 175.94269 
L 87.948142 171.641295 
L 89.033943 166.808038 
L 91.205546 158.957992 
L 92.291347 155.88017 
L 94.462949 153.04648 
L 95.54875 188.001128 
L 96.634552 186.719428 
L 97.720353 183.147527 
L 104.23516 164.814283 
L 108.578364 155.420967 
L 109.664165 152.168763 
L 110.749967 149.564675 
L 111.835768 147.271567 
L 114.00737 141.566406 
L 115.093171 139.406989 
L 120.522177 124.668898 
L 121.607978 122.276974 
L 122.693779 118.585912 
L 123.77958 116.301522 
L 124.865382 113.255669 
L 127.036984 108.579355 
L 128.122785 106.079896 
L 131.380189 99.973659 
L 132.46599 97.578828 
L 134.637592 95.704234 
L 135.723393 94.236528 
L 136.809194 93.873234 
L 137.894995 93.257089 
L 138.980797 146.786207 
L 140.066598 148.698584 
L 141.152399 148.675333 
L 142.2382 146.495572 
L 146.581405 141.03745 
L 147.667206 140.043479 
L 149.838808 137.154569 
L 150.924609 135.596767 
L 152.01041 135.099781 
L 153.096212 133.007211 
L 154.182013 132.504412 
L 155.267814 129.97589 
L 156.353615 129.199895 
L 157.439416 127.924008 
L 158.525217 126.973632 
L 159.611019 125.529177 
L 160.69682 124.779339 
L 161.782621 122.954153 
L 165.040024 118.638226 
L 166.125825 117.833168 
L 167.211627 115.71444 
L 168.297428 115.200016 
L 169.383229 113.432957 
L 171.554831 111.715305 
L 172.640632 109.529731 
L 173.726434 107.89927 
L 174.812235 106.797764 
L 175.898036 104.833073 
L 176.983837 104.010576 
L 178.069638 102.141795 
L 179.155439 100.764186 
L 180.24124 99.587115 
L 181.327042 98.107783 
L 182.412843 96.381413 
L 183.498644 95.40488 
L 184.584445 93.73373 
L 185.670246 91.626627 
L 186.756047 91.039545 
L 187.841849 88.697029 
L 188.92765 87.493801 
L 190.013451 85.694771 
L 192.185053 83.81727 
L 194.356656 80.018673 
L 195.442457 78.789288 
L 196.528258 77.362271 
L 197.614059 76.147418 
L 198.69986 74.575084 
L 199.785661 73.72643 
L 203.043065 70.067338 
L 204.128866 68.463034 
L 205.214667 67.902108 
L 206.300468 66.480904 
L 207.386269 65.699097 
L 208.472071 64.678969 
L 209.557872 64.094793 
L 210.643673 63.32461 
L 211.729474 62.301576 
L 212.815275 62.103944 
L 214.986877 60.583924 
L 216.072679 60.386292 
L 217.15848 59.889307 
L 218.244281 59.540545 
L 219.330082 59.467886 
L 220.415883 58.901149 
L 221.501684 58.735487 
L 224.759088 58.630858 
L 225.844889 125.01766 
L 226.93069 129.955545 
L 228.016491 129.188269 
L 229.102292 127.892038 
L 230.188094 127.1422 
L 231.273895 125.877939 
L 232.359696 124.299792 
L 233.445497 123.866746 
L 234.531298 122.869869 
L 235.617099 122.038653 
L 236.702901 120.849957 
L 237.788702 119.978052 
L 238.874503 119.318311 
L 239.960304 118.35631 
L 241.046105 117.661693 
L 242.131906 116.722943 
L 244.303509 116.022513 
L 245.38931 115.086669 
L 246.475111 114.383332 
L 247.560912 113.82822 
L 248.646713 112.854593 
L 249.732514 112.906908 
L 250.818316 112.043722 
L 251.904117 111.372356 
L 252.989918 111.023594 
L 256.247321 109.48323 
L 258.418924 107.939959 
L 259.504725 107.38194 
L 260.590526 107.271499 
L 261.676327 106.376344 
L 263.847929 105.594536 
L 264.933731 104.58894 
L 267.105333 103.932105 
L 268.191134 103.315959 
L 269.276935 102.356864 
L 270.362736 102.327801 
L 271.448538 101.644809 
L 272.534339 101.575057 
L 273.62014 100.88044 
L 274.705941 100.703152 
L 275.791742 99.17732 
L 276.877543 98.828558 
L 277.963344 98.825651 
L 279.049146 98.16591 
L 280.134947 97.206816 
L 281.220748 96.750519 
L 282.306549 95.989056 
L 284.478151 95.224686 
L 285.563953 94.530069 
L 286.649754 94.073772 
L 287.735555 94.320812 
L 288.821356 93.30359 
L 289.907157 92.45203 
L 290.992958 92.306713 
L 292.07876 90.862258 
L 293.164561 90.955261 
L 294.250362 90.138577 
L 295.336163 89.81016 
L 296.421964 89.089386 
L 297.507765 88.766781 
L 298.593566 87.511239 
L 299.679368 87.017159 
L 300.765169 87.179915 
L 301.85097 85.880777 
L 305.108373 84.66883 
L 306.194175 83.608013 
L 307.279976 82.768079 
L 309.451578 81.954301 
L 310.537379 81.201557 
L 311.62318 80.925454 
L 312.708981 79.690256 
L 313.794783 79.155488 
L 314.880584 79.007264 
L 315.966385 78.100484 
L 317.052186 77.568622 
L 318.137987 76.871098 
L 320.30959 75.76378 
L 321.395391 75.505115 
L 322.481192 74.732026 
L 323.566993 73.810714 
L 324.652794 73.377668 
L 325.738595 72.395323 
L 327.910198 71.462385 
L 328.995999 70.712547 
L 330.0818 70.497477 
L 332.253402 68.968738 
L 333.339203 68.085208 
L 334.425005 67.370247 
L 335.510806 66.82676 
L 336.596607 66.998234 
L 337.682408 66.463466 
L 338.768209 65.347429 
L 339.85401 65.033543 
L 340.939811 64.324394 
L 342.025613 63.943662 
L 343.111414 63.08629 
L 344.197215 62.87122 
L 345.283016 62.260887 
L 346.368817 62.034192 
L 348.54042 60.955937 
L 349.626221 60.830964 
L 350.712022 60.136347 
L 352.883624 59.014496 
L 353.969425 58.799426 
L 355.055227 58.110622 
L 357.226829 57.055618 
L 358.31263 56.887049 
L 359.398431 56.259278 
L 360.484232 56.00352 
L 361.570033 55.285652 
L 362.655835 55.733229 
L 363.741636 54.992111 
L 364.827437 54.498031 
L 365.913238 54.128925 
L 366.999039 53.568 
L 370.256443 57.009116 
L 371.342244 58.520417 
L 372.428045 60.46767 
L 373.513846 61.20007 
L 374.599647 60.964656 
L 375.685448 61.252384 
L 376.77125 60.976281 
L 377.857051 60.961749 
L 378.942852 61.673805 
L 380.028653 61.964439 
L 381.114454 61.56627 
L 382.200255 61.673805 
L 383.286057 61.400608 
L 384.371858 61.970252 
L 385.457659 61.78134 
L 386.54346 61.862717 
L 387.629261 61.760995 
L 388.715062 62.071974 
L 389.800863 61.93247 
L 390.886665 62.23473 
L 391.972466 62.414923 
L 393.058267 62.121382 
L 394.144068 62.263793 
L 395.229869 62.897377 
L 396.31567 62.560241 
L 397.401472 62.38586 
L 398.487273 62.691026 
L 398.487273 62.691026 
" clip-path="url(#pcf94a62464)" style="fill: none; stroke: #1f77b4; stroke-width: 1.5; stroke-linecap: square"/>
   </g>
   <g id="line2d_16">
    <path d="M 73.832727 281.466374 
L 74.918528 256.035829 
L 76.00433 239.120883 
L 77.090131 234.703234 
L 78.175932 225.897 
L 79.261733 211.045561 
L 80.347534 206.77323 
L 81.433335 201.51274 
L 82.519137 191.195204 
L 83.604938 185.004683 
L 84.690739 182.534287 
L 85.77654 177.070353 
L 86.862341 173.030529 
L 87.948142 172.274879 
L 89.033943 169.630102 
L 90.119745 164.078977 
L 91.205546 164.049914 
L 92.291347 160.736677 
L 93.377148 161.957343 
L 94.462949 161.405137 
L 95.54875 181.8077 
L 96.634552 180.267336 
L 97.720353 180.935796 
L 98.806154 181.923954 
L 99.891955 172.798021 
L 100.977756 172.303942 
L 102.063557 170.414816 
L 103.149358 167.915357 
L 104.23516 164.60212 
L 105.320961 162.771121 
L 106.406762 163.381454 
L 107.492563 159.835709 
L 108.578364 160.881994 
L 109.664165 159.777582 
L 110.749967 156.464345 
L 111.835768 154.052077 
L 112.921569 153.935823 
L 114.00737 151.4073 
L 115.093171 149.692555 
L 116.178972 151.261983 
L 117.264773 151.000411 
L 119.436376 144.14143 
L 120.522177 146.175873 
L 121.607978 141.758224 
L 122.693779 141.089764 
L 123.77958 141.903542 
L 124.865382 141.235082 
L 125.951183 138.328734 
L 127.036984 138.241543 
L 128.122785 137.892782 
L 129.208586 137.253385 
L 131.380189 136.439608 
L 132.46599 135.422386 
L 133.551791 135.567703 
L 134.637592 134.695799 
L 135.723393 135.800211 
L 136.809194 134.841116 
L 137.894995 134.95737 
L 138.980797 158.731297 
L 140.066598 160.01009 
L 141.152399 159.42882 
L 143.324001 156.377155 
L 144.409802 156.348092 
L 145.495604 157.161869 
L 146.581405 156.260901 
L 147.667206 153.41268 
L 148.753007 151.291046 
L 149.838808 156.057457 
L 150.924609 149.692555 
L 152.01041 148.559079 
L 153.096212 155.127425 
L 156.353615 150.07038 
L 157.439416 149.954126 
L 158.525217 151.291046 
L 159.611019 152.046696 
L 160.69682 149.40192 
L 161.782621 149.895999 
L 162.868422 145.856175 
L 163.954223 149.169412 
L 165.040024 149.285666 
L 166.125825 143.531097 
L 167.211627 146.263064 
L 168.297428 146.786207 
L 169.383229 146.379318 
L 170.46903 144.548319 
L 171.554831 146.90246 
L 172.640632 144.403001 
L 173.726434 148.355634 
L 174.812235 140.944447 
L 175.898036 147.134968 
L 176.983837 145.042398 
L 178.069638 144.926144 
L 180.24124 143.007954 
L 181.327042 143.007954 
L 182.412843 141.874478 
L 183.498644 141.206018 
L 184.584445 143.037018 
L 185.670246 138.939067 
L 186.756047 138.735623 
L 187.841849 139.142511 
L 188.92765 140.014416 
L 190.013451 137.514956 
L 191.099252 136.991814 
L 192.185053 136.643052 
L 193.270854 135.771148 
L 194.356656 138.444988 
L 196.528258 134.492354 
L 197.614059 134.347037 
L 198.69986 136.178036 
L 199.785661 135.713021 
L 200.871462 134.3761 
L 201.957264 134.637672 
L 203.043065 133.271688 
L 204.128866 133.213561 
L 205.214667 131.934768 
L 206.300468 131.556943 
L 207.386269 131.818514 
L 208.472071 131.498816 
L 209.557872 131.004737 
L 210.643673 131.70226 
L 211.729474 131.498816 
L 212.815275 130.801292 
L 213.901076 131.120991 
L 214.986877 129.958451 
L 216.072679 130.016578 
L 217.15848 130.220023 
L 218.244281 129.900325 
L 219.330082 129.813134 
L 220.415883 128.650595 
L 221.501684 129.580626 
L 222.587486 129.377182 
L 223.673287 129.813134 
L 224.759088 129.348118 
L 225.844889 168.118801 
L 226.93069 156.987488 
L 228.016491 159.312567 
L 229.102292 158.353472 
L 230.188094 160.329788 
L 231.273895 153.32549 
L 232.359696 165.909977 
L 233.445497 154.458965 
L 234.531298 159.981027 
L 235.617099 150.099443 
L 236.702901 159.399757 
L 237.788702 160.329788 
L 238.874503 150.767903 
L 239.960304 152.889537 
L 241.046105 153.32549 
L 242.131906 157.278123 
L 243.217708 152.627966 
L 244.303509 151.320109 
L 245.38931 152.598903 
L 246.475111 159.225376 
L 247.560912 150.302888 
L 248.646713 151.203856 
L 249.732514 152.74422 
L 250.818316 150.186634 
L 251.904117 161.870153 
L 252.989918 151.930443 
L 254.075719 150.215697 
L 255.16152 149.954126 
L 256.247321 156.377155 
L 257.333123 151.465427 
L 258.418924 151.843252 
L 259.504725 150.651649 
L 260.590526 160.969185 
L 261.676327 148.15219 
L 262.762128 147.512794 
L 263.847929 150.796967 
L 264.933731 151.174792 
L 266.019532 156.377155 
L 267.105333 150.07038 
L 268.191134 147.570921 
L 269.276935 151.378236 
L 270.362736 147.541857 
L 271.448538 150.767903 
L 272.534339 147.919682 
L 273.62014 157.045615 
L 274.705941 151.930443 
L 275.791742 145.245842 
L 276.877543 150.15757 
L 279.049146 153.964886 
L 280.134947 149.227539 
L 281.220748 148.559079 
L 282.306549 147.280286 
L 283.39235 151.697935 
L 284.478151 148.210317 
L 285.563953 153.151109 
L 286.649754 151.668871 
L 287.735555 155.592441 
L 288.821356 147.541857 
L 289.907157 151.639808 
L 290.992958 144.751763 
L 292.07876 145.449286 
L 293.164561 147.251222 
L 294.250362 146.81527 
L 295.336163 149.692555 
L 296.421964 148.995031 
L 297.507765 146.088683 
L 298.593566 146.524635 
L 299.679368 144.722699 
L 300.765169 146.931524 
L 301.85097 151.872316 
L 302.936771 150.971348 
L 304.022572 145.158652 
L 305.108373 147.280286 
L 306.194175 144.80989 
L 308.365777 146.030556 
L 309.451578 145.681794 
L 310.537379 149.053158 
L 311.62318 144.286747 
L 312.708981 146.117747 
L 313.794783 143.589224 
L 314.880584 144.22862 
L 315.966385 143.298589 
L 317.052186 143.967049 
L 318.137987 143.443906 
L 319.223788 140.857257 
L 320.30959 146.117747 
L 321.395391 143.414843 
L 322.481192 144.14143 
L 323.566993 145.798048 
L 324.652794 143.298589 
L 325.738595 142.281367 
L 326.824396 145.943366 
L 327.910198 141.671034 
L 328.995999 144.519255 
L 330.0818 140.595685 
L 332.253402 137.485893 
L 333.339203 138.038099 
L 334.425005 139.200638 
L 335.510806 141.176955 
L 336.596607 138.357797 
L 337.682408 139.055321 
L 338.768209 139.084384 
L 339.85401 137.137131 
L 340.939811 138.415924 
L 342.025613 136.29429 
L 343.111414 136.148973 
L 344.197215 138.415924 
L 345.283016 138.183416 
L 346.368817 136.265227 
L 347.454618 137.573083 
L 348.54042 136.584925 
L 349.626221 136.439608 
L 350.712022 136.410544 
L 351.797823 134.724862 
L 352.883624 133.562323 
L 353.969425 135.654894 
L 355.055227 132.196339 
L 356.141028 132.8648 
L 357.226829 135.393322 
L 358.31263 132.37072 
L 359.398431 132.37072 
L 360.484232 133.475133 
L 361.570033 132.28353 
L 362.655835 132.603228 
L 364.827437 131.586006 
L 365.913238 129.086547 
L 366.999039 130.394404 
L 368.08484 132.225403 
L 369.170642 133.155434 
L 370.256443 134.259847 
L 371.342244 134.986434 
L 372.428045 136.701179 
L 373.513846 138.997194 
L 374.599647 136.29429 
L 376.77125 139.956289 
L 377.857051 137.54402 
L 378.942852 137.195258 
L 380.028653 137.950909 
L 381.114454 136.497735 
L 382.200255 136.96275 
L 383.286057 139.840035 
L 384.371858 138.21248 
L 385.457659 138.038099 
L 386.54346 139.084384 
L 387.629261 137.602147 
L 388.715062 138.125289 
L 389.800863 139.781908 
L 390.886665 137.137131 
L 391.972466 138.96813 
L 393.058267 138.793749 
L 394.144068 137.456829 
L 395.229869 138.590305 
L 396.31567 137.573083 
L 398.487273 141.031637 
L 398.487273 141.031637 
" clip-path="url(#pcf94a62464)" style="fill: none; stroke: #ff7f0e; stroke-width: 1.5; stroke-linecap: square"/>
   </g>
   <g id="line2d_17">
    <path d="M 73.832727 295.488 
L 74.918528 284.203352 
L 76.00433 285.105322 
L 77.090131 277.448598 
L 78.175932 277.107854 
L 79.261733 272.136997 
L 80.347534 270.373144 
L 81.433335 268.22846 
L 82.519137 264.440186 
L 83.604938 254.117639 
L 84.690739 252.874925 
L 85.77654 253.315888 
L 86.862341 251.692342 
L 87.948142 248.866169 
L 89.033943 250.40954 
L 90.119745 244.73715 
L 91.205546 245.939777 
L 92.291347 246.260478 
L 93.377148 245.258289 
L 94.462949 244.616888 
L 95.54875 255.320266 
L 96.634552 254.558602 
L 97.720353 256.502849 
L 98.806154 258.767796 
L 99.891955 253.335932 
L 100.977756 254.378208 
L 102.063557 250.99081 
L 103.149358 241.229489 
L 104.23516 243.35413 
L 105.320961 244.777238 
L 106.406762 242.151503 
L 107.492563 241.209445 
L 108.578364 247.643498 
L 109.664165 241.28962 
L 110.749967 242.351941 
L 111.835768 235.897844 
L 112.921569 236.559288 
L 114.00737 233.232021 
L 115.093171 234.514823 
L 116.178972 234.154035 
L 117.264773 237.260821 
L 118.350575 233.953597 
L 119.436376 230.245498 
L 120.522177 230.726548 
L 121.607978 233.512634 
L 122.693779 230.20541 
L 123.77958 229.503878 
L 124.865382 228.261164 
L 125.951183 227.4995 
L 127.036984 225.294684 
L 128.122785 221.807067 
L 129.208586 223.671138 
L 130.294387 226.377048 
L 131.380189 224.553064 
L 132.46599 222.067636 
L 133.551791 223.290306 
L 134.637592 223.550875 
L 135.723393 222.889431 
L 136.809194 223.009693 
L 137.894995 222.869387 
L 138.980797 242.351941 
L 140.066598 239.846468 
L 141.152399 246.661353 
L 143.324001 240.367606 
L 144.409802 234.133991 
L 146.581405 245.198157 
L 147.667206 244.757194 
L 148.753007 240.307475 
L 149.838808 242.832991 
L 150.924609 235.797625 
L 152.01041 233.111758 
L 153.096212 238.00244 
L 154.182013 236.138369 
L 155.267814 236.018106 
L 156.353615 236.639463 
L 157.439416 234.915698 
L 158.525217 240.728394 
L 159.611019 240.988964 
L 160.69682 233.793247 
L 161.782621 232.690839 
L 162.868422 229.904754 
L 163.954223 239.605943 
L 165.040024 231.568387 
L 166.125825 226.75788 
L 167.211627 235.978019 
L 168.297428 233.733115 
L 169.383229 228.702127 
L 170.46903 228.261164 
L 171.554831 233.953597 
L 172.640632 227.138712 
L 173.726434 235.697406 
L 174.812235 225.635428 
L 175.898036 230.04506 
L 176.983837 227.218887 
L 178.069638 227.539588 
L 179.155439 228.641995 
L 180.24124 228.581864 
L 181.327042 229.123046 
L 182.412843 227.619763 
L 183.498644 227.33915 
L 184.584445 221.245841 
L 185.670246 218.559974 
L 186.756047 222.328205 
L 187.841849 229.123046 
L 188.92765 223.410569 
L 190.013451 220.60444 
L 191.099252 219.682426 
L 192.185053 219.842776 
L 193.270854 218.459755 
L 194.356656 222.588774 
L 195.442457 224.172233 
L 196.528258 218.600062 
L 197.614059 219.241463 
L 198.69986 220.684615 
L 199.785661 220.343871 
L 200.871462 224.933896 
L 201.957264 218.580018 
L 203.043065 216.756034 
L 204.128866 214.110255 
L 205.214667 218.519887 
L 206.300468 215.653626 
L 207.386269 216.355159 
L 208.472071 217.678048 
L 209.557872 214.851875 
L 210.643673 216.034458 
L 211.729474 214.290649 
L 212.815275 216.295027 
L 213.901076 215.453189 
L 214.986877 214.090212 
L 216.072679 214.972138 
L 217.15848 215.593495 
L 218.244281 214.871919 
L 219.330082 212.606972 
L 220.415883 213.308504 
L 221.501684 214.511131 
L 222.587486 214.430956 
L 223.673287 213.228329 
L 224.759088 214.010036 
L 225.844889 247.843936 
L 226.93069 233.252065 
L 228.016491 243.293998 
L 229.102292 243.314042 
L 230.188094 239.365417 
L 231.273895 236.338807 
L 232.359696 242.452159 
L 233.445497 231.247687 
L 234.531298 230.886899 
L 235.617099 233.532678 
L 236.702901 236.519201 
L 237.788702 248.144593 
L 238.874503 233.873422 
L 239.960304 231.668606 
L 241.046105 234.775392 
L 242.131906 242.853035 
L 243.217708 234.895655 
L 244.303509 240.006818 
L 245.38931 231.869044 
L 246.475111 234.755348 
L 247.560912 235.13618 
L 248.646713 233.111758 
L 249.732514 236.278675 
L 250.818316 230.646373 
L 251.904117 247.463104 
L 252.989918 237.200689 
L 254.075719 237.280864 
L 255.16152 228.060726 
L 256.247321 238.764104 
L 257.333123 224.873765 
L 258.418924 234.795436 
L 259.504725 229.203221 
L 260.590526 235.837712 
L 261.676327 233.813291 
L 262.762128 230.826767 
L 263.847929 229.764447 
L 264.933731 224.031926 
L 266.019532 241.931021 
L 267.105333 228.962696 
L 268.191134 224.833677 
L 269.276935 228.621952 
L 270.362736 231.187555 
L 271.448538 229.203221 
L 272.534339 231.708694 
L 273.62014 244.596844 
L 274.705941 233.733115 
L 275.791742 227.740025 
L 276.877543 231.428081 
L 277.963344 230.04506 
L 279.049146 230.385804 
L 280.134947 234.594998 
L 281.220748 230.506067 
L 282.306549 225.85591 
L 283.39235 228.100813 
L 284.478151 230.646373 
L 285.563953 237.260821 
L 286.649754 228.662039 
L 287.735555 236.138369 
L 288.821356 226.397092 
L 289.907157 236.739682 
L 290.992958 226.316917 
L 292.07876 231.949219 
L 293.164561 225.53521 
L 294.250362 231.207599 
L 295.336163 226.43718 
L 296.421964 231.167512 
L 297.507765 227.33915 
L 299.679368 226.75788 
L 300.765169 225.314728 
L 301.85097 234.274297 
L 302.936771 233.873422 
L 304.022572 221.265885 
L 305.108373 232.149657 
L 306.194175 227.639806 
L 307.279976 233.412415 
L 309.451578 220.885053 
L 310.537379 230.586242 
L 311.62318 224.352627 
L 312.708981 223.751313 
L 313.794783 223.671138 
L 314.880584 227.479456 
L 315.966385 224.011882 
L 317.052186 231.448125 
L 318.137987 223.290306 
L 319.223788 220.363914 
L 320.30959 223.450657 
L 321.395391 224.031926 
L 322.481192 218.459755 
L 323.566993 221.426235 
L 324.652794 223.510788 
L 325.738595 219.181331 
L 326.824396 230.004972 
L 327.910198 224.232364 
L 328.995999 224.593152 
L 330.0818 221.265885 
L 331.167601 218.640149 
L 332.253402 220.323827 
L 333.339203 217.357348 
L 334.425005 218.660193 
L 335.510806 219.622295 
L 336.596607 222.969606 
L 337.682408 219.321638 
L 338.768209 227.1788 
L 339.85401 218.279361 
L 340.939811 216.876297 
L 342.025613 218.680237 
L 343.111414 214.972138 
L 344.197215 216.054502 
L 345.283016 214.471043 
L 346.368817 215.373013 
L 347.454618 220.60444 
L 348.54042 215.453189 
L 349.626221 217.678048 
L 350.712022 214.551218 
L 351.797823 214.811788 
L 352.883624 215.312882 
L 353.969425 218.840587 
L 355.055227 213.909817 
L 356.141028 214.330737 
L 357.226829 215.51332 
L 358.31263 214.370824 
L 359.398431 216.355159 
L 360.484232 214.591306 
L 361.570033 213.047935 
L 362.655835 210.983426 
L 363.741636 213.589117 
L 364.827437 213.549029 
L 365.913238 210.462287 
L 366.999039 213.348592 
L 368.08484 215.112444 
L 369.170642 215.994371 
L 370.256443 214.7717 
L 371.342244 215.613539 
L 372.428045 219.181331 
L 373.513846 222.147811 
L 374.599647 218.559974 
L 375.685448 220.584396 
L 376.77125 223.971795 
L 377.857051 222.388336 
L 378.942852 217.617917 
L 380.028653 225.074203 
L 382.200255 216.274983 
L 383.286057 219.602251 
L 384.371858 217.257129 
L 385.457659 219.461944 
L 386.54346 218.339493 
L 387.629261 219.421857 
L 388.715062 219.842776 
L 389.800863 220.484177 
L 390.886665 220.103345 
L 391.972466 214.711569 
L 393.058267 217.617917 
L 394.144068 218.299405 
L 395.229869 220.243652 
L 396.31567 218.620106 
L 397.401472 218.479799 
L 398.487273 220.76479 
L 398.487273 220.76479 
" clip-path="url(#pcf94a62464)" style="fill: none; stroke: #2ca02c; stroke-width: 1.5; stroke-linecap: square"/>
   </g>
   <g id="line2d_18">
    <path d="M 368.08484 133.010117 
L 369.170642 136.87556 
L 371.342244 138.910003 
L 372.428045 142.397621 
L 373.513846 146.90246 
L 374.599647 144.868017 
L 375.685448 146.234 
L 376.77125 146.960587 
L 377.857051 143.647351 
L 378.942852 145.536477 
L 380.028653 156.144647 
L 381.114454 155.359933 
L 382.200255 160.01009 
L 383.286057 156.08652 
L 384.371858 157.91752 
L 385.457659 159.516011 
L 386.54346 169.310404 
L 387.629261 161.376074 
L 388.715062 166.723754 
L 389.800863 167.828166 
L 390.886665 168.380372 
L 391.972466 169.571975 
L 393.058267 182.447097 
L 394.144068 176.285639 
L 395.229869 168.903515 
L 396.31567 189.480459 
L 397.401472 196.077869 
L 398.487273 194.624695 
L 398.487273 194.624695 
" clip-path="url(#pcf94a62464)" style="fill: none; stroke: #d62728; stroke-width: 1.5; stroke-linecap: square"/>
   </g>
   <g id="line2d_19">
    <path d="M 368.08484 217.076735 
L 369.170642 219.922951 
L 370.256443 218.05888 
L 371.342244 220.584396 
L 372.428045 221.446279 
L 373.513846 225.034115 
L 374.599647 231.307818 
L 375.685448 230.486023 
L 376.77125 228.842433 
L 377.857051 230.145279 
L 378.942852 229.30344 
L 381.114454 231.347906 
L 382.200255 236.699595 
L 383.286057 235.015917 
L 384.371858 229.363571 
L 385.457659 239.024673 
L 386.54346 243.273954 
L 388.715062 239.385461 
L 389.800863 239.906599 
L 390.886665 245.599033 
L 391.972466 243.253911 
L 393.058267 257.3046 
L 394.144068 253.335932 
L 395.229869 245.017763 
L 396.31567 262.355633 
L 397.401472 265.181805 
L 398.487273 265.442375 
L 398.487273 265.442375 
" clip-path="url(#pcf94a62464)" style="fill: none; stroke: #9467bd; stroke-width: 1.5; stroke-linecap: square"/>
   </g>
   <g id="patch_3">
    <path d="M 57.6 307.584 
L 57.6 41.472 
" style="fill: none; stroke: #000000; stroke-width: 0.8; stroke-linejoin: miter; stroke-linecap: square"/>
   </g>
   <g id="patch_4">
    <path d="M 414.72 307.584 
L 414.72 41.472 
" style="fill: none; stroke: #000000; stroke-width: 0.8; stroke-linejoin: miter; stroke-linecap: square"/>
   </g>
   <g id="patch_5">
    <path d="M 57.6 307.584 
L 414.72 307.584 
" style="fill: none; stroke: #000000; stroke-width: 0.8; stroke-linejoin: miter; stroke-linecap: square"/>
   </g>
   <g id="patch_6">
    <path d="M 57.6 41.472 
L 414.72 41.472 
" style="fill: none; stroke: #000000; stroke-width: 0.8; stroke-linejoin: miter; stroke-linecap: square"/>
   </g>
   <g id="text_17">
    <!-- Learning Curves -->
    <g transform="translate(187.37625 35.472) scale(0.12 -0.12)">
     <defs>
      <path id="DejaVuSans-4c" d="M 628 4666 
L 1259 4666 
L 1259 531 
L 3531 531 
L 3531 0 
L 628 0 
L 628 4666 
z
" transform="scale(0.015625)"/>
      <path id="DejaVuSans-65" d="M 3597 1894 
L 3597 1613 
L 953 1613 
Q 991 1019 1311 708 
Q 1631 397 2203 397 
Q 2534 397 2845 478 
Q 3156 559 3463 722 
L 3463 178 
Q 3153 47 2828 -22 
Q 2503 -91 2169 -91 
Q 1331 -91 842 396 
Q 353 884 353 1716 
Q 353 2575 817 3079 
Q 1281 3584 2069 3584 
Q 2775 3584 3186 3129 
Q 3597 2675 3597 1894 
z
M 3022 2063 
Q 3016 2534 2758 2815 
Q 2500 3097 2075 3097 
Q 1594 3097 1305 2825 
Q 1016 2553 972 2059 
L 3022 2063 
z
" transform="scale(0.015625)"/>
      <path id="DejaVuSans-6e" d="M 3513 2113 
L 3513 0 
L 2938 0 
L 2938 2094 
Q 2938 2591 2744 2837 
Q 2550 3084 2163 3084 
Q 1697 3084 1428 2787 
Q 1159 2491 1159 1978 
L 1159 0 
L 581 0 
L 581 3500 
L 1159 3500 
L 1159 2956 
Q 1366 3272 1645 3428 
Q 1925 3584 2291 3584 
Q 2894 3584 3203 3211 
Q 3513 2838 3513 2113 
z
" transform="scale(0.015625)"/>
      <path id="DejaVuSans-69" d="M 603 3500 
L 1178 3500 
L 1178 0 
L 603 0 
L 603 3500 
z
M 603 4863 
L 1178 4863 
L 1178 4134 
L 603 4134 
L 603 4863 
z
" transform="scale(0.015625)"/>
      <path id="DejaVuSans-67" d="M 2906 1791 
Q 2906 2416 2648 2759 
Q 2391 3103 1925 3103 
Q 1463 3103 1205 2759 
Q 947 2416 947 1791 
Q 947 1169 1205 825 
Q 1463 481 1925 481 
Q 2391 481 2648 825 
Q 2906 1169 2906 1791 
z
M 3481 434 
Q 3481 -459 3084 -895 
Q 2688 -1331 1869 -1331 
Q 1566 -1331 1297 -1286 
Q 1028 -1241 775 -1147 
L 775 -588 
Q 1028 -725 1275 -790 
Q 1522 -856 1778 -856 
Q 2344 -856 2625 -561 
Q 2906 -266 2906 331 
L 2906 616 
Q 2728 306 2450 153 
Q 2172 0 1784 0 
Q 1141 0 747 490 
Q 353 981 353 1791 
Q 353 2603 747 3093 
Q 1141 3584 1784 3584 
Q 2172 3584 2450 3431 
Q 2728 3278 2906 2969 
L 2906 3500 
L 3481 3500 
L 3481 434 
z
" transform="scale(0.015625)"/>
      <path id="DejaVuSans-20" transform="scale(0.015625)"/>
      <path id="DejaVuSans-43" d="M 4122 4306 
L 4122 3641 
Q 3803 3938 3442 4084 
Q 3081 4231 2675 4231 
Q 1875 4231 1450 3742 
Q 1025 3253 1025 2328 
Q 1025 1406 1450 917 
Q 1875 428 2675 428 
Q 3081 428 3442 575 
Q 3803 722 4122 1019 
L 4122 359 
Q 3791 134 3420 21 
Q 3050 -91 2638 -91 
Q 1578 -91 968 557 
Q 359 1206 359 2328 
Q 359 3453 968 4101 
Q 1578 4750 2638 4750 
Q 3056 4750 3426 4639 
Q 3797 4528 4122 4306 
z
" transform="scale(0.015625)"/>
      <path id="DejaVuSans-76" d="M 191 3500 
L 800 3500 
L 1894 563 
L 2988 3500 
L 3597 3500 
L 2284 0 
L 1503 0 
L 191 3500 
z
" transform="scale(0.015625)"/>
     </defs>
     <use xlink:href="#DejaVuSans-4c"/>
     <use xlink:href="#DejaVuSans-65" x="53.962891"/>
     <use xlink:href="#DejaVuSans-61" x="115.486328"/>
     <use xlink:href="#DejaVuSans-72" x="176.765625"/>
     <use xlink:href="#DejaVuSans-6e" x="216.128906"/>
     <use xlink:href="#DejaVuSans-69" x="279.507812"/>
     <use xlink:href="#DejaVuSans-6e" x="307.291016"/>
     <use xlink:href="#DejaVuSans-67" x="370.669922"/>
     <use xlink:href="#DejaVuSans-20" x="434.146484"/>
     <use xlink:href="#DejaVuSans-43" x="465.933594"/>
     <use xlink:href="#DejaVuSans-75" x="535.757812"/>
     <use xlink:href="#DejaVuSans-72" x="599.136719"/>
     <use xlink:href="#DejaVuSans-76" x="640.25"/>
     <use xlink:href="#DejaVuSans-65" x="699.429688"/>
     <use xlink:href="#DejaVuSans-73" x="760.953125"/>
    </g>
   </g>
   <g id="legend_1">
    <g id="patch_7">
     <path d="M 64.6 122.862625 
L 258.13125 122.862625 
Q 260.13125 122.862625 260.13125 120.862625 
L 260.13125 48.472 
Q 260.13125 46.472 258.13125 46.472 
L 64.6 46.472 
Q 62.6 46.472 62.6 48.472 
L 62.6 120.862625 
Q 62.6 122.862625 64.6 122.862625 
z
" style="fill: #ffffff; opacity: 0.8; stroke: #cccccc; stroke-linejoin: miter"/>
    </g>
    <g id="line2d_20">
     <path d="M 66.6 54.570438 
L 76.6 54.570438 
L 86.6 54.570438 
" style="fill: none; stroke: #1f77b4; stroke-width: 1.5; stroke-linecap: square"/>
    </g>
    <g id="text_18">
     <!-- Train Accuracy -->
     <g transform="translate(94.6 58.070438) scale(0.1 -0.1)">
      <defs>
       <path id="DejaVuSans-54" d="M -19 4666 
L 3928 4666 
L 3928 4134 
L 2272 4134 
L 2272 0 
L 1638 0 
L 1638 4134 
L -19 4134 
L -19 4666 
z
" transform="scale(0.015625)"/>
      </defs>
      <use xlink:href="#DejaVuSans-54"/>
      <use xlink:href="#DejaVuSans-72" x="46.333984"/>
      <use xlink:href="#DejaVuSans-61" x="87.447266"/>
      <use xlink:href="#DejaVuSans-69" x="148.726562"/>
      <use xlink:href="#DejaVuSans-6e" x="176.509766"/>
      <use xlink:href="#DejaVuSans-20" x="239.888672"/>
      <use xlink:href="#DejaVuSans-41" x="271.675781"/>
      <use xlink:href="#DejaVuSans-63" x="338.333984"/>
      <use xlink:href="#DejaVuSans-63" x="393.314453"/>
      <use xlink:href="#DejaVuSans-75" x="448.294922"/>
      <use xlink:href="#DejaVuSans-72" x="511.673828"/>
      <use xlink:href="#DejaVuSans-61" x="552.787109"/>
      <use xlink:href="#DejaVuSans-63" x="614.066406"/>
      <use xlink:href="#DejaVuSans-79" x="669.046875"/>
     </g>
    </g>
    <g id="line2d_21">
     <path d="M 66.6 69.248563 
L 76.6 69.248563 
L 86.6 69.248563 
" style="fill: none; stroke: #ff7f0e; stroke-width: 1.5; stroke-linecap: square"/>
    </g>
    <g id="text_19">
     <!-- Validation Accuracy -->
     <g transform="translate(94.6 72.748563) scale(0.1 -0.1)">
      <defs>
       <path id="DejaVuSans-56" d="M 1831 0 
L 50 4666 
L 709 4666 
L 2188 738 
L 3669 4666 
L 4325 4666 
L 2547 0 
L 1831 0 
z
" transform="scale(0.015625)"/>
       <path id="DejaVuSans-6c" d="M 603 4863 
L 1178 4863 
L 1178 0 
L 603 0 
L 603 4863 
z
" transform="scale(0.015625)"/>
       <path id="DejaVuSans-64" d="M 2906 2969 
L 2906 4863 
L 3481 4863 
L 3481 0 
L 2906 0 
L 2906 525 
Q 2725 213 2448 61 
Q 2172 -91 1784 -91 
Q 1150 -91 751 415 
Q 353 922 353 1747 
Q 353 2572 751 3078 
Q 1150 3584 1784 3584 
Q 2172 3584 2448 3432 
Q 2725 3281 2906 2969 
z
M 947 1747 
Q 947 1113 1208 752 
Q 1469 391 1925 391 
Q 2381 391 2643 752 
Q 2906 1113 2906 1747 
Q 2906 2381 2643 2742 
Q 2381 3103 1925 3103 
Q 1469 3103 1208 2742 
Q 947 2381 947 1747 
z
" transform="scale(0.015625)"/>
       <path id="DejaVuSans-74" d="M 1172 4494 
L 1172 3500 
L 2356 3500 
L 2356 3053 
L 1172 3053 
L 1172 1153 
Q 1172 725 1289 603 
Q 1406 481 1766 481 
L 2356 481 
L 2356 0 
L 1766 0 
Q 1100 0 847 248 
Q 594 497 594 1153 
L 594 3053 
L 172 3053 
L 172 3500 
L 594 3500 
L 594 4494 
L 1172 4494 
z
" transform="scale(0.015625)"/>
      </defs>
      <use xlink:href="#DejaVuSans-56"/>
      <use xlink:href="#DejaVuSans-61" x="60.658203"/>
      <use xlink:href="#DejaVuSans-6c" x="121.9375"/>
      <use xlink:href="#DejaVuSans-69" x="149.720703"/>
      <use xlink:href="#DejaVuSans-64" x="177.503906"/>
      <use xlink:href="#DejaVuSans-61" x="240.980469"/>
      <use xlink:href="#DejaVuSans-74" x="302.259766"/>
      <use xlink:href="#DejaVuSans-69" x="341.46875"/>
      <use xlink:href="#DejaVuSans-6f" x="369.251953"/>
      <use xlink:href="#DejaVuSans-6e" x="430.433594"/>
      <use xlink:href="#DejaVuSans-20" x="493.8125"/>
      <use xlink:href="#DejaVuSans-41" x="525.599609"/>
      <use xlink:href="#DejaVuSans-63" x="592.257812"/>
      <use xlink:href="#DejaVuSans-63" x="647.238281"/>
      <use xlink:href="#DejaVuSans-75" x="702.21875"/>
      <use xlink:href="#DejaVuSans-72" x="765.597656"/>
      <use xlink:href="#DejaVuSans-61" x="806.710938"/>
      <use xlink:href="#DejaVuSans-63" x="867.990234"/>
      <use xlink:href="#DejaVuSans-79" x="922.970703"/>
     </g>
    </g>
    <g id="line2d_22">
     <path d="M 66.6 83.926688 
L 76.6 83.926688 
L 86.6 83.926688 
" style="fill: none; stroke: #2ca02c; stroke-width: 1.5; stroke-linecap: square"/>
    </g>
    <g id="text_20">
     <!-- Robust Validation Accuracy -->
     <g transform="translate(94.6 87.426688) scale(0.1 -0.1)">
      <defs>
       <path id="DejaVuSans-52" d="M 2841 2188 
Q 3044 2119 3236 1894 
Q 3428 1669 3622 1275 
L 4263 0 
L 3584 0 
L 2988 1197 
Q 2756 1666 2539 1819 
Q 2322 1972 1947 1972 
L 1259 1972 
L 1259 0 
L 628 0 
L 628 4666 
L 2053 4666 
Q 2853 4666 3247 4331 
Q 3641 3997 3641 3322 
Q 3641 2881 3436 2590 
Q 3231 2300 2841 2188 
z
M 1259 4147 
L 1259 2491 
L 2053 2491 
Q 2509 2491 2742 2702 
Q 2975 2913 2975 3322 
Q 2975 3731 2742 3939 
Q 2509 4147 2053 4147 
L 1259 4147 
z
" transform="scale(0.015625)"/>
       <path id="DejaVuSans-62" d="M 3116 1747 
Q 3116 2381 2855 2742 
Q 2594 3103 2138 3103 
Q 1681 3103 1420 2742 
Q 1159 2381 1159 1747 
Q 1159 1113 1420 752 
Q 1681 391 2138 391 
Q 2594 391 2855 752 
Q 3116 1113 3116 1747 
z
M 1159 2969 
Q 1341 3281 1617 3432 
Q 1894 3584 2278 3584 
Q 2916 3584 3314 3078 
Q 3713 2572 3713 1747 
Q 3713 922 3314 415 
Q 2916 -91 2278 -91 
Q 1894 -91 1617 61 
Q 1341 213 1159 525 
L 1159 0 
L 581 0 
L 581 4863 
L 1159 4863 
L 1159 2969 
z
" transform="scale(0.015625)"/>
      </defs>
      <use xlink:href="#DejaVuSans-52"/>
      <use xlink:href="#DejaVuSans-6f" x="64.982422"/>
      <use xlink:href="#DejaVuSans-62" x="126.164062"/>
      <use xlink:href="#DejaVuSans-75" x="189.640625"/>
      <use xlink:href="#DejaVuSans-73" x="253.019531"/>
      <use xlink:href="#DejaVuSans-74" x="305.119141"/>
      <use xlink:href="#DejaVuSans-20" x="344.328125"/>
      <use xlink:href="#DejaVuSans-56" x="376.115234"/>
      <use xlink:href="#DejaVuSans-61" x="436.773438"/>
      <use xlink:href="#DejaVuSans-6c" x="498.052734"/>
      <use xlink:href="#DejaVuSans-69" x="525.835938"/>
      <use xlink:href="#DejaVuSans-64" x="553.619141"/>
      <use xlink:href="#DejaVuSans-61" x="617.095703"/>
      <use xlink:href="#DejaVuSans-74" x="678.375"/>
      <use xlink:href="#DejaVuSans-69" x="717.583984"/>
      <use xlink:href="#DejaVuSans-6f" x="745.367188"/>
      <use xlink:href="#DejaVuSans-6e" x="806.548828"/>
      <use xlink:href="#DejaVuSans-20" x="869.927734"/>
      <use xlink:href="#DejaVuSans-41" x="901.714844"/>
      <use xlink:href="#DejaVuSans-63" x="968.373047"/>
      <use xlink:href="#DejaVuSans-63" x="1023.353516"/>
      <use xlink:href="#DejaVuSans-75" x="1078.333984"/>
      <use xlink:href="#DejaVuSans-72" x="1141.712891"/>
      <use xlink:href="#DejaVuSans-61" x="1182.826172"/>
      <use xlink:href="#DejaVuSans-63" x="1244.105469"/>
      <use xlink:href="#DejaVuSans-79" x="1299.085938"/>
     </g>
    </g>
    <g id="line2d_23">
     <path d="M 66.6 98.604813 
L 76.6 98.604813 
L 86.6 98.604813 
" style="fill: none; stroke: #d62728; stroke-width: 1.5; stroke-linecap: square"/>
    </g>
    <g id="text_21">
     <!-- SWA Validation Accuracy -->
     <g transform="translate(94.6 102.104813) scale(0.1 -0.1)">
      <defs>
       <path id="DejaVuSans-53" d="M 3425 4513 
L 3425 3897 
Q 3066 4069 2747 4153 
Q 2428 4238 2131 4238 
Q 1616 4238 1336 4038 
Q 1056 3838 1056 3469 
Q 1056 3159 1242 3001 
Q 1428 2844 1947 2747 
L 2328 2669 
Q 3034 2534 3370 2195 
Q 3706 1856 3706 1288 
Q 3706 609 3251 259 
Q 2797 -91 1919 -91 
Q 1588 -91 1214 -16 
Q 841 59 441 206 
L 441 856 
Q 825 641 1194 531 
Q 1563 422 1919 422 
Q 2459 422 2753 634 
Q 3047 847 3047 1241 
Q 3047 1584 2836 1778 
Q 2625 1972 2144 2069 
L 1759 2144 
Q 1053 2284 737 2584 
Q 422 2884 422 3419 
Q 422 4038 858 4394 
Q 1294 4750 2059 4750 
Q 2388 4750 2728 4690 
Q 3069 4631 3425 4513 
z
" transform="scale(0.015625)"/>
       <path id="DejaVuSans-57" d="M 213 4666 
L 850 4666 
L 1831 722 
L 2809 4666 
L 3519 4666 
L 4500 722 
L 5478 4666 
L 6119 4666 
L 4947 0 
L 4153 0 
L 3169 4050 
L 2175 0 
L 1381 0 
L 213 4666 
z
" transform="scale(0.015625)"/>
      </defs>
      <use xlink:href="#DejaVuSans-53"/>
      <use xlink:href="#DejaVuSans-57" x="63.476562"/>
      <use xlink:href="#DejaVuSans-41" x="156.853516"/>
      <use xlink:href="#DejaVuSans-20" x="225.261719"/>
      <use xlink:href="#DejaVuSans-56" x="257.048828"/>
      <use xlink:href="#DejaVuSans-61" x="317.707031"/>
      <use xlink:href="#DejaVuSans-6c" x="378.986328"/>
      <use xlink:href="#DejaVuSans-69" x="406.769531"/>
      <use xlink:href="#DejaVuSans-64" x="434.552734"/>
      <use xlink:href="#DejaVuSans-61" x="498.029297"/>
      <use xlink:href="#DejaVuSans-74" x="559.308594"/>
      <use xlink:href="#DejaVuSans-69" x="598.517578"/>
      <use xlink:href="#DejaVuSans-6f" x="626.300781"/>
      <use xlink:href="#DejaVuSans-6e" x="687.482422"/>
      <use xlink:href="#DejaVuSans-20" x="750.861328"/>
      <use xlink:href="#DejaVuSans-41" x="782.648438"/>
      <use xlink:href="#DejaVuSans-63" x="849.306641"/>
      <use xlink:href="#DejaVuSans-63" x="904.287109"/>
      <use xlink:href="#DejaVuSans-75" x="959.267578"/>
      <use xlink:href="#DejaVuSans-72" x="1022.646484"/>
      <use xlink:href="#DejaVuSans-61" x="1063.759766"/>
      <use xlink:href="#DejaVuSans-63" x="1125.039062"/>
      <use xlink:href="#DejaVuSans-79" x="1180.019531"/>
     </g>
    </g>
    <g id="line2d_24">
     <path d="M 66.6 113.282938 
L 76.6 113.282938 
L 86.6 113.282938 
" style="fill: none; stroke: #9467bd; stroke-width: 1.5; stroke-linecap: square"/>
    </g>
    <g id="text_22">
     <!-- SWA Robust Validation Accuracy -->
     <g transform="translate(94.6 116.782938) scale(0.1 -0.1)">
      <use xlink:href="#DejaVuSans-53"/>
      <use xlink:href="#DejaVuSans-57" x="63.476562"/>
      <use xlink:href="#DejaVuSans-41" x="156.853516"/>
      <use xlink:href="#DejaVuSans-20" x="225.261719"/>
      <use xlink:href="#DejaVuSans-52" x="257.048828"/>
      <use xlink:href="#DejaVuSans-6f" x="322.03125"/>
      <use xlink:href="#DejaVuSans-62" x="383.212891"/>
      <use xlink:href="#DejaVuSans-75" x="446.689453"/>
      <use xlink:href="#DejaVuSans-73" x="510.068359"/>
      <use xlink:href="#DejaVuSans-74" x="562.167969"/>
      <use xlink:href="#DejaVuSans-20" x="601.376953"/>
      <use xlink:href="#DejaVuSans-56" x="633.164062"/>
      <use xlink:href="#DejaVuSans-61" x="693.822266"/>
      <use xlink:href="#DejaVuSans-6c" x="755.101562"/>
      <use xlink:href="#DejaVuSans-69" x="782.884766"/>
      <use xlink:href="#DejaVuSans-64" x="810.667969"/>
      <use xlink:href="#DejaVuSans-61" x="874.144531"/>
      <use xlink:href="#DejaVuSans-74" x="935.423828"/>
      <use xlink:href="#DejaVuSans-69" x="974.632812"/>
      <use xlink:href="#DejaVuSans-6f" x="1002.416016"/>
      <use xlink:href="#DejaVuSans-6e" x="1063.597656"/>
      <use xlink:href="#DejaVuSans-20" x="1126.976562"/>
      <use xlink:href="#DejaVuSans-41" x="1158.763672"/>
      <use xlink:href="#DejaVuSans-63" x="1225.421875"/>
      <use xlink:href="#DejaVuSans-63" x="1280.402344"/>
      <use xlink:href="#DejaVuSans-75" x="1335.382812"/>
      <use xlink:href="#DejaVuSans-72" x="1398.761719"/>
      <use xlink:href="#DejaVuSans-61" x="1439.875"/>
      <use xlink:href="#DejaVuSans-63" x="1501.154297"/>
      <use xlink:href="#DejaVuSans-79" x="1556.134766"/>
     </g>
    </g>
   </g>
  </g>
 </g>
 <defs>
  <clipPath id="pcf94a62464">
   <rect x="57.6" y="41.472" width="357.12" height="266.112"/>
  </clipPath>
 </defs>
</svg>
