<?xml version="1.0" encoding="utf-8" standalone="no"?>
<!DOCTYPE svg PUBLIC "-//W3C//DTD SVG 1.1//EN"
  "http://www.w3.org/Graphics/SVG/1.1/DTD/svg11.dtd">
<svg xmlns:xlink="http://www.w3.org/1999/xlink" width="460.8pt" height="345.6pt" viewBox="0 0 460.8 345.6" xmlns="http://www.w3.org/2000/svg" version="1.1">
 <metadata>
  <rdf:RDF xmlns:dc="http://purl.org/dc/elements/1.1/" xmlns:cc="http://creativecommons.org/ns#" xmlns:rdf="http://www.w3.org/1999/02/22-rdf-syntax-ns#">
   <cc:Work>
    <dc:type rdf:resource="http://purl.org/dc/dcmitype/StillImage"/>
    <dc:date>2025-02-25T05:37:25.928168</dc:date>
    <dc:format>image/svg+xml</dc:format>
    <dc:creator>
     <cc:Agent>
      <dc:title>Matplotlib v3.9.1, https://matplotlib.org/</dc:title>
     </cc:Agent>
    </dc:creator>
   </cc:Work>
  </rdf:RDF>
 </metadata>
 <defs>
  <style type="text/css">*{stroke-linejoin: round; stroke-linecap: butt}</style>
 </defs>
 <g id="figure_1">
  <g id="patch_1">
   <path d="M 0 345.6 
L 460.8 345.6 
L 460.8 0 
L 0 0 
z
" style="fill: #ffffff"/>
  </g>
  <g id="axes_1">
   <g id="patch_2">
    <path d="M 57.6 307.584 
L 414.72 307.584 
L 414.72 41.472 
L 57.6 41.472 
z
" style="fill: #ffffff"/>
   </g>
   <g id="matplotlib.axis_1">
    <g id="xtick_1">
     <g id="line2d_1">
      <defs>
       <path id="m9fcc7928b4" d="M 0 0 
L 0 3.5 
" style="stroke: #000000; stroke-width: 0.8"/>
      </defs>
      <g>
       <use xlink:href="#m9fcc7928b4" x="73.832727" y="307.584" style="stroke: #000000; stroke-width: 0.8"/>
      </g>
     </g>
     <g id="text_1">
      <!-- 1 -->
      <g transform="translate(70.651477 322.182437) scale(0.1 -0.1)">
       <defs>
        <path id="DejaVuSans-31" d="M 794 531 
L 1825 531 
L 1825 4091 
L 703 3866 
L 703 4441 
L 1819 4666 
L 2450 4666 
L 2450 531 
L 3481 531 
L 3481 0 
L 794 0 
L 794 531 
z
" transform="scale(0.015625)"/>
       </defs>
       <use xlink:href="#DejaVuSans-31"/>
      </g>
     </g>
    </g>
    <g id="xtick_2">
     <g id="line2d_2">
      <g>
       <use xlink:href="#m9fcc7928b4" x="109.664165" y="307.584" style="stroke: #000000; stroke-width: 0.8"/>
      </g>
     </g>
     <g id="text_2">
      <!-- 34 -->
      <g transform="translate(103.301665 322.182437) scale(0.1 -0.1)">
       <defs>
        <path id="DejaVuSans-33" d="M 2597 2516 
Q 3050 2419 3304 2112 
Q 3559 1806 3559 1356 
Q 3559 666 3084 287 
Q 2609 -91 1734 -91 
Q 1441 -91 1130 -33 
Q 819 25 488 141 
L 488 750 
Q 750 597 1062 519 
Q 1375 441 1716 441 
Q 2309 441 2620 675 
Q 2931 909 2931 1356 
Q 2931 1769 2642 2001 
Q 2353 2234 1838 2234 
L 1294 2234 
L 1294 2753 
L 1863 2753 
Q 2328 2753 2575 2939 
Q 2822 3125 2822 3475 
Q 2822 3834 2567 4026 
Q 2313 4219 1838 4219 
Q 1578 4219 1281 4162 
Q 984 4106 628 3988 
L 628 4550 
Q 988 4650 1302 4700 
Q 1616 4750 1894 4750 
Q 2613 4750 3031 4423 
Q 3450 4097 3450 3541 
Q 3450 3153 3228 2886 
Q 3006 2619 2597 2516 
z
" transform="scale(0.015625)"/>
        <path id="DejaVuSans-34" d="M 2419 4116 
L 825 1625 
L 2419 1625 
L 2419 4116 
z
M 2253 4666 
L 3047 4666 
L 3047 1625 
L 3713 1625 
L 3713 1100 
L 3047 1100 
L 3047 0 
L 2419 0 
L 2419 1100 
L 313 1100 
L 313 1709 
L 2253 4666 
z
" transform="scale(0.015625)"/>
       </defs>
       <use xlink:href="#DejaVuSans-33"/>
       <use xlink:href="#DejaVuSans-34" x="63.623047"/>
      </g>
     </g>
    </g>
    <g id="xtick_3">
     <g id="line2d_3">
      <g>
       <use xlink:href="#m9fcc7928b4" x="145.495604" y="307.584" style="stroke: #000000; stroke-width: 0.8"/>
      </g>
     </g>
     <g id="text_3">
      <!-- 67 -->
      <g transform="translate(139.133104 322.182437) scale(0.1 -0.1)">
       <defs>
        <path id="DejaVuSans-36" d="M 2113 2584 
Q 1688 2584 1439 2293 
Q 1191 2003 1191 1497 
Q 1191 994 1439 701 
Q 1688 409 2113 409 
Q 2538 409 2786 701 
Q 3034 994 3034 1497 
Q 3034 2003 2786 2293 
Q 2538 2584 2113 2584 
z
M 3366 4563 
L 3366 3988 
Q 3128 4100 2886 4159 
Q 2644 4219 2406 4219 
Q 1781 4219 1451 3797 
Q 1122 3375 1075 2522 
Q 1259 2794 1537 2939 
Q 1816 3084 2150 3084 
Q 2853 3084 3261 2657 
Q 3669 2231 3669 1497 
Q 3669 778 3244 343 
Q 2819 -91 2113 -91 
Q 1303 -91 875 529 
Q 447 1150 447 2328 
Q 447 3434 972 4092 
Q 1497 4750 2381 4750 
Q 2619 4750 2861 4703 
Q 3103 4656 3366 4563 
z
" transform="scale(0.015625)"/>
        <path id="DejaVuSans-37" d="M 525 4666 
L 3525 4666 
L 3525 4397 
L 1831 0 
L 1172 0 
L 2766 4134 
L 525 4134 
L 525 4666 
z
" transform="scale(0.015625)"/>
       </defs>
       <use xlink:href="#DejaVuSans-36"/>
       <use xlink:href="#DejaVuSans-37" x="63.623047"/>
      </g>
     </g>
    </g>
    <g id="xtick_4">
     <g id="line2d_4">
      <g>
       <use xlink:href="#m9fcc7928b4" x="181.327042" y="307.584" style="stroke: #000000; stroke-width: 0.8"/>
      </g>
     </g>
     <g id="text_4">
      <!-- 100 -->
      <g transform="translate(171.783292 322.182437) scale(0.1 -0.1)">
       <defs>
        <path id="DejaVuSans-30" d="M 2034 4250 
Q 1547 4250 1301 3770 
Q 1056 3291 1056 2328 
Q 1056 1369 1301 889 
Q 1547 409 2034 409 
Q 2525 409 2770 889 
Q 3016 1369 3016 2328 
Q 3016 3291 2770 3770 
Q 2525 4250 2034 4250 
z
M 2034 4750 
Q 2819 4750 3233 4129 
Q 3647 3509 3647 2328 
Q 3647 1150 3233 529 
Q 2819 -91 2034 -91 
Q 1250 -91 836 529 
Q 422 1150 422 2328 
Q 422 3509 836 4129 
Q 1250 4750 2034 4750 
z
" transform="scale(0.015625)"/>
       </defs>
       <use xlink:href="#DejaVuSans-31"/>
       <use xlink:href="#DejaVuSans-30" x="63.623047"/>
       <use xlink:href="#DejaVuSans-30" x="127.246094"/>
      </g>
     </g>
    </g>
    <g id="xtick_5">
     <g id="line2d_5">
      <g>
       <use xlink:href="#m9fcc7928b4" x="217.15848" y="307.584" style="stroke: #000000; stroke-width: 0.8"/>
      </g>
     </g>
     <g id="text_5">
      <!-- 133 -->
      <g transform="translate(207.61473 322.182437) scale(0.1 -0.1)">
       <use xlink:href="#DejaVuSans-31"/>
       <use xlink:href="#DejaVuSans-33" x="63.623047"/>
       <use xlink:href="#DejaVuSans-33" x="127.246094"/>
      </g>
     </g>
    </g>
    <g id="xtick_6">
     <g id="line2d_6">
      <g>
       <use xlink:href="#m9fcc7928b4" x="254.075719" y="307.584" style="stroke: #000000; stroke-width: 0.8"/>
      </g>
     </g>
     <g id="text_6">
      <!-- 167 -->
      <g transform="translate(244.531969 322.182437) scale(0.1 -0.1)">
       <use xlink:href="#DejaVuSans-31"/>
       <use xlink:href="#DejaVuSans-36" x="63.623047"/>
       <use xlink:href="#DejaVuSans-37" x="127.246094"/>
      </g>
     </g>
    </g>
    <g id="xtick_7">
     <g id="line2d_7">
      <g>
       <use xlink:href="#m9fcc7928b4" x="289.907157" y="307.584" style="stroke: #000000; stroke-width: 0.8"/>
      </g>
     </g>
     <g id="text_7">
      <!-- 200 -->
      <g transform="translate(280.363407 322.182437) scale(0.1 -0.1)">
       <defs>
        <path id="DejaVuSans-32" d="M 1228 531 
L 3431 531 
L 3431 0 
L 469 0 
L 469 531 
Q 828 903 1448 1529 
Q 2069 2156 2228 2338 
Q 2531 2678 2651 2914 
Q 2772 3150 2772 3378 
Q 2772 3750 2511 3984 
Q 2250 4219 1831 4219 
Q 1534 4219 1204 4116 
Q 875 4013 500 3803 
L 500 4441 
Q 881 4594 1212 4672 
Q 1544 4750 1819 4750 
Q 2544 4750 2975 4387 
Q 3406 4025 3406 3419 
Q 3406 3131 3298 2873 
Q 3191 2616 2906 2266 
Q 2828 2175 2409 1742 
Q 1991 1309 1228 531 
z
" transform="scale(0.015625)"/>
       </defs>
       <use xlink:href="#DejaVuSans-32"/>
       <use xlink:href="#DejaVuSans-30" x="63.623047"/>
       <use xlink:href="#DejaVuSans-30" x="127.246094"/>
      </g>
     </g>
    </g>
    <g id="xtick_8">
     <g id="line2d_8">
      <g>
       <use xlink:href="#m9fcc7928b4" x="325.738595" y="307.584" style="stroke: #000000; stroke-width: 0.8"/>
      </g>
     </g>
     <g id="text_8">
      <!-- 233 -->
      <g transform="translate(316.194845 322.182437) scale(0.1 -0.1)">
       <use xlink:href="#DejaVuSans-32"/>
       <use xlink:href="#DejaVuSans-33" x="63.623047"/>
       <use xlink:href="#DejaVuSans-33" x="127.246094"/>
      </g>
     </g>
    </g>
    <g id="xtick_9">
     <g id="line2d_9">
      <g>
       <use xlink:href="#m9fcc7928b4" x="361.570033" y="307.584" style="stroke: #000000; stroke-width: 0.8"/>
      </g>
     </g>
     <g id="text_9">
      <!-- 266 -->
      <g transform="translate(352.026283 322.182437) scale(0.1 -0.1)">
       <use xlink:href="#DejaVuSans-32"/>
       <use xlink:href="#DejaVuSans-36" x="63.623047"/>
       <use xlink:href="#DejaVuSans-36" x="127.246094"/>
      </g>
     </g>
    </g>
    <g id="xtick_10">
     <g id="line2d_10">
      <g>
       <use xlink:href="#m9fcc7928b4" x="398.487273" y="307.584" style="stroke: #000000; stroke-width: 0.8"/>
      </g>
     </g>
     <g id="text_10">
      <!-- 300 -->
      <g transform="translate(388.943523 322.182437) scale(0.1 -0.1)">
       <use xlink:href="#DejaVuSans-33"/>
       <use xlink:href="#DejaVuSans-30" x="63.623047"/>
       <use xlink:href="#DejaVuSans-30" x="127.246094"/>
      </g>
     </g>
    </g>
    <g id="text_11">
     <!-- Epochs -->
     <g transform="translate(218.244375 335.860562) scale(0.1 -0.1)">
      <defs>
       <path id="DejaVuSans-45" d="M 628 4666 
L 3578 4666 
L 3578 4134 
L 1259 4134 
L 1259 2753 
L 3481 2753 
L 3481 2222 
L 1259 2222 
L 1259 531 
L 3634 531 
L 3634 0 
L 628 0 
L 628 4666 
z
" transform="scale(0.015625)"/>
       <path id="DejaVuSans-70" d="M 1159 525 
L 1159 -1331 
L 581 -1331 
L 581 3500 
L 1159 3500 
L 1159 2969 
Q 1341 3281 1617 3432 
Q 1894 3584 2278 3584 
Q 2916 3584 3314 3078 
Q 3713 2572 3713 1747 
Q 3713 922 3314 415 
Q 2916 -91 2278 -91 
Q 1894 -91 1617 61 
Q 1341 213 1159 525 
z
M 3116 1747 
Q 3116 2381 2855 2742 
Q 2594 3103 2138 3103 
Q 1681 3103 1420 2742 
Q 1159 2381 1159 1747 
Q 1159 1113 1420 752 
Q 1681 391 2138 391 
Q 2594 391 2855 752 
Q 3116 1113 3116 1747 
z
" transform="scale(0.015625)"/>
       <path id="DejaVuSans-6f" d="M 1959 3097 
Q 1497 3097 1228 2736 
Q 959 2375 959 1747 
Q 959 1119 1226 758 
Q 1494 397 1959 397 
Q 2419 397 2687 759 
Q 2956 1122 2956 1747 
Q 2956 2369 2687 2733 
Q 2419 3097 1959 3097 
z
M 1959 3584 
Q 2709 3584 3137 3096 
Q 3566 2609 3566 1747 
Q 3566 888 3137 398 
Q 2709 -91 1959 -91 
Q 1206 -91 779 398 
Q 353 888 353 1747 
Q 353 2609 779 3096 
Q 1206 3584 1959 3584 
z
" transform="scale(0.015625)"/>
       <path id="DejaVuSans-63" d="M 3122 3366 
L 3122 2828 
Q 2878 2963 2633 3030 
Q 2388 3097 2138 3097 
Q 1578 3097 1268 2742 
Q 959 2388 959 1747 
Q 959 1106 1268 751 
Q 1578 397 2138 397 
Q 2388 397 2633 464 
Q 2878 531 3122 666 
L 3122 134 
Q 2881 22 2623 -34 
Q 2366 -91 2075 -91 
Q 1284 -91 818 406 
Q 353 903 353 1747 
Q 353 2603 823 3093 
Q 1294 3584 2113 3584 
Q 2378 3584 2631 3529 
Q 2884 3475 3122 3366 
z
" transform="scale(0.015625)"/>
       <path id="DejaVuSans-68" d="M 3513 2113 
L 3513 0 
L 2938 0 
L 2938 2094 
Q 2938 2591 2744 2837 
Q 2550 3084 2163 3084 
Q 1697 3084 1428 2787 
Q 1159 2491 1159 1978 
L 1159 0 
L 581 0 
L 581 4863 
L 1159 4863 
L 1159 2956 
Q 1366 3272 1645 3428 
Q 1925 3584 2291 3584 
Q 2894 3584 3203 3211 
Q 3513 2838 3513 2113 
z
" transform="scale(0.015625)"/>
       <path id="DejaVuSans-73" d="M 2834 3397 
L 2834 2853 
Q 2591 2978 2328 3040 
Q 2066 3103 1784 3103 
Q 1356 3103 1142 2972 
Q 928 2841 928 2578 
Q 928 2378 1081 2264 
Q 1234 2150 1697 2047 
L 1894 2003 
Q 2506 1872 2764 1633 
Q 3022 1394 3022 966 
Q 3022 478 2636 193 
Q 2250 -91 1575 -91 
Q 1294 -91 989 -36 
Q 684 19 347 128 
L 347 722 
Q 666 556 975 473 
Q 1284 391 1588 391 
Q 1994 391 2212 530 
Q 2431 669 2431 922 
Q 2431 1156 2273 1281 
Q 2116 1406 1581 1522 
L 1381 1569 
Q 847 1681 609 1914 
Q 372 2147 372 2553 
Q 372 3047 722 3315 
Q 1072 3584 1716 3584 
Q 2034 3584 2315 3537 
Q 2597 3491 2834 3397 
z
" transform="scale(0.015625)"/>
      </defs>
      <use xlink:href="#DejaVuSans-45"/>
      <use xlink:href="#DejaVuSans-70" x="63.183594"/>
      <use xlink:href="#DejaVuSans-6f" x="126.660156"/>
      <use xlink:href="#DejaVuSans-63" x="187.841797"/>
      <use xlink:href="#DejaVuSans-68" x="242.822266"/>
      <use xlink:href="#DejaVuSans-73" x="306.201172"/>
     </g>
    </g>
   </g>
   <g id="matplotlib.axis_2">
    <g id="ytick_1">
     <g id="line2d_11">
      <defs>
       <path id="m615df27f5a" d="M 0 0 
L -3.5 0 
" style="stroke: #000000; stroke-width: 0.8"/>
      </defs>
      <g>
       <use xlink:href="#m615df27f5a" x="57.6" y="284.700121" style="stroke: #000000; stroke-width: 0.8"/>
      </g>
     </g>
     <g id="text_12">
      <!-- 10 -->
      <g transform="translate(37.875 288.49934) scale(0.1 -0.1)">
       <use xlink:href="#DejaVuSans-31"/>
       <use xlink:href="#DejaVuSans-30" x="63.623047"/>
      </g>
     </g>
    </g>
    <g id="ytick_2">
     <g id="line2d_12">
      <g>
       <use xlink:href="#m615df27f5a" x="57.6" y="249.783995" style="stroke: #000000; stroke-width: 0.8"/>
      </g>
     </g>
     <g id="text_13">
      <!-- 20 -->
      <g transform="translate(37.875 253.583214) scale(0.1 -0.1)">
       <use xlink:href="#DejaVuSans-32"/>
       <use xlink:href="#DejaVuSans-30" x="63.623047"/>
      </g>
     </g>
    </g>
    <g id="ytick_3">
     <g id="line2d_13">
      <g>
       <use xlink:href="#m615df27f5a" x="57.6" y="214.867869" style="stroke: #000000; stroke-width: 0.8"/>
      </g>
     </g>
     <g id="text_14">
      <!-- 30 -->
      <g transform="translate(37.875 218.667087) scale(0.1 -0.1)">
       <use xlink:href="#DejaVuSans-33"/>
       <use xlink:href="#DejaVuSans-30" x="63.623047"/>
      </g>
     </g>
    </g>
    <g id="ytick_4">
     <g id="line2d_14">
      <g>
       <use xlink:href="#m615df27f5a" x="57.6" y="179.951743" style="stroke: #000000; stroke-width: 0.8"/>
      </g>
     </g>
     <g id="text_15">
      <!-- 40 -->
      <g transform="translate(37.875 183.750961) scale(0.1 -0.1)">
       <use xlink:href="#DejaVuSans-34"/>
       <use xlink:href="#DejaVuSans-30" x="63.623047"/>
      </g>
     </g>
    </g>
    <g id="ytick_5">
     <g id="line2d_15">
      <g>
       <use xlink:href="#m615df27f5a" x="57.6" y="145.035616" style="stroke: #000000; stroke-width: 0.8"/>
      </g>
     </g>
     <g id="text_16">
      <!-- 50 -->
      <g transform="translate(37.875 148.834835) scale(0.1 -0.1)">
       <defs>
        <path id="DejaVuSans-35" d="M 691 4666 
L 3169 4666 
L 3169 4134 
L 1269 4134 
L 1269 2991 
Q 1406 3038 1543 3061 
Q 1681 3084 1819 3084 
Q 2600 3084 3056 2656 
Q 3513 2228 3513 1497 
Q 3513 744 3044 326 
Q 2575 -91 1722 -91 
Q 1428 -91 1123 -41 
Q 819 9 494 109 
L 494 744 
Q 775 591 1075 516 
Q 1375 441 1709 441 
Q 2250 441 2565 725 
Q 2881 1009 2881 1497 
Q 2881 1984 2565 2268 
Q 2250 2553 1709 2553 
Q 1456 2553 1204 2497 
Q 953 2441 691 2322 
L 691 4666 
z
" transform="scale(0.015625)"/>
       </defs>
       <use xlink:href="#DejaVuSans-35"/>
       <use xlink:href="#DejaVuSans-30" x="63.623047"/>
      </g>
     </g>
    </g>
    <g id="ytick_6">
     <g id="line2d_16">
      <g>
       <use xlink:href="#m615df27f5a" x="57.6" y="110.11949" style="stroke: #000000; stroke-width: 0.8"/>
      </g>
     </g>
     <g id="text_17">
      <!-- 60 -->
      <g transform="translate(37.875 113.918709) scale(0.1 -0.1)">
       <use xlink:href="#DejaVuSans-36"/>
       <use xlink:href="#DejaVuSans-30" x="63.623047"/>
      </g>
     </g>
    </g>
    <g id="ytick_7">
     <g id="line2d_17">
      <g>
       <use xlink:href="#m615df27f5a" x="57.6" y="75.203364" style="stroke: #000000; stroke-width: 0.8"/>
      </g>
     </g>
     <g id="text_18">
      <!-- 70 -->
      <g transform="translate(37.875 79.002583) scale(0.1 -0.1)">
       <use xlink:href="#DejaVuSans-37"/>
       <use xlink:href="#DejaVuSans-30" x="63.623047"/>
      </g>
     </g>
    </g>
    <g id="text_19">
     <!-- Accuracy -->
     <g transform="translate(31.795312 197.356125) rotate(-90) scale(0.1 -0.1)">
      <defs>
       <path id="DejaVuSans-41" d="M 2188 4044 
L 1331 1722 
L 3047 1722 
L 2188 4044 
z
M 1831 4666 
L 2547 4666 
L 4325 0 
L 3669 0 
L 3244 1197 
L 1141 1197 
L 716 0 
L 50 0 
L 1831 4666 
z
" transform="scale(0.015625)"/>
       <path id="DejaVuSans-75" d="M 544 1381 
L 544 3500 
L 1119 3500 
L 1119 1403 
Q 1119 906 1312 657 
Q 1506 409 1894 409 
Q 2359 409 2629 706 
Q 2900 1003 2900 1516 
L 2900 3500 
L 3475 3500 
L 3475 0 
L 2900 0 
L 2900 538 
Q 2691 219 2414 64 
Q 2138 -91 1772 -91 
Q 1169 -91 856 284 
Q 544 659 544 1381 
z
M 1991 3584 
L 1991 3584 
z
" transform="scale(0.015625)"/>
       <path id="DejaVuSans-72" d="M 2631 2963 
Q 2534 3019 2420 3045 
Q 2306 3072 2169 3072 
Q 1681 3072 1420 2755 
Q 1159 2438 1159 1844 
L 1159 0 
L 581 0 
L 581 3500 
L 1159 3500 
L 1159 2956 
Q 1341 3275 1631 3429 
Q 1922 3584 2338 3584 
Q 2397 3584 2469 3576 
Q 2541 3569 2628 3553 
L 2631 2963 
z
" transform="scale(0.015625)"/>
       <path id="DejaVuSans-61" d="M 2194 1759 
Q 1497 1759 1228 1600 
Q 959 1441 959 1056 
Q 959 750 1161 570 
Q 1363 391 1709 391 
Q 2188 391 2477 730 
Q 2766 1069 2766 1631 
L 2766 1759 
L 2194 1759 
z
M 3341 1997 
L 3341 0 
L 2766 0 
L 2766 531 
Q 2569 213 2275 61 
Q 1981 -91 1556 -91 
Q 1019 -91 701 211 
Q 384 513 384 1019 
Q 384 1609 779 1909 
Q 1175 2209 1959 2209 
L 2766 2209 
L 2766 2266 
Q 2766 2663 2505 2880 
Q 2244 3097 1772 3097 
Q 1472 3097 1187 3025 
Q 903 2953 641 2809 
L 641 3341 
Q 956 3463 1253 3523 
Q 1550 3584 1831 3584 
Q 2591 3584 2966 3190 
Q 3341 2797 3341 1997 
z
" transform="scale(0.015625)"/>
       <path id="DejaVuSans-79" d="M 2059 -325 
Q 1816 -950 1584 -1140 
Q 1353 -1331 966 -1331 
L 506 -1331 
L 506 -850 
L 844 -850 
Q 1081 -850 1212 -737 
Q 1344 -625 1503 -206 
L 1606 56 
L 191 3500 
L 800 3500 
L 1894 763 
L 2988 3500 
L 3597 3500 
L 2059 -325 
z
" transform="scale(0.015625)"/>
      </defs>
      <use xlink:href="#DejaVuSans-41"/>
      <use xlink:href="#DejaVuSans-63" x="66.658203"/>
      <use xlink:href="#DejaVuSans-63" x="121.638672"/>
      <use xlink:href="#DejaVuSans-75" x="176.619141"/>
      <use xlink:href="#DejaVuSans-72" x="239.998047"/>
      <use xlink:href="#DejaVuSans-61" x="281.111328"/>
      <use xlink:href="#DejaVuSans-63" x="342.390625"/>
      <use xlink:href="#DejaVuSans-79" x="397.371094"/>
     </g>
    </g>
   </g>
   <g id="line2d_18">
    <path d="M 73.832727 291.512657 
L 74.918528 253.376561 
L 76.00433 228.398308 
L 77.090131 209.95009 
L 78.175932 196.593202 
L 79.261733 185.369925 
L 80.347534 176.004389 
L 83.604938 154.626385 
L 84.690739 148.742371 
L 85.77654 143.574216 
L 86.862341 137.693693 
L 87.948142 134.334392 
L 89.033943 129.763369 
L 90.119745 126.910407 
L 91.205546 121.8959 
L 92.291347 120.823857 
L 93.377148 119.039447 
L 94.462949 118.03026 
L 95.54875 150.931853 
L 96.634552 149.26617 
L 97.720353 145.791634 
L 98.806154 143.085336 
L 99.891955 139.795875 
L 100.977756 138.325745 
L 102.063557 134.390264 
L 103.149358 132.815374 
L 104.23516 129.291949 
L 107.492563 124.270458 
L 108.578364 121.784156 
L 109.664165 118.861355 
L 110.749967 116.804569 
L 111.835768 114.007479 
L 112.921569 112.910992 
L 114.00737 111.144042 
L 116.178972 105.881603 
L 117.264773 104.977176 
L 118.350575 103.049594 
L 119.436376 101.677239 
L 121.607978 97.256371 
L 122.693779 95.981792 
L 123.77958 93.565331 
L 124.865382 92.486304 
L 125.951183 91.127917 
L 127.036984 87.817504 
L 128.122785 86.382293 
L 129.208586 84.709627 
L 130.294387 84.067099 
L 132.46599 82.223325 
L 133.551791 80.962714 
L 134.637592 80.410979 
L 135.723393 80.369075 
L 136.809194 79.977971 
L 137.894995 79.408776 
L 138.980797 115.379834 
L 140.066598 118.784531 
L 141.152399 117.548364 
L 142.2382 115.997918 
L 143.324001 115.79189 
L 144.409802 114.835083 
L 145.495604 113.089084 
L 146.581405 112.753853 
L 147.667206 111.371022 
L 150.924609 109.782163 
L 153.096212 106.356515 
L 154.182013 105.598751 
L 155.267814 106.129535 
L 156.353615 104.631468 
L 157.439416 103.842277 
L 159.611019 101.446767 
L 160.69682 101.513115 
L 162.868422 99.365537 
L 165.040024 98.482062 
L 166.125825 98.454126 
L 167.211627 96.736064 
L 168.297428 95.664021 
L 169.383229 95.894492 
L 170.46903 94.679278 
L 171.554831 93.813262 
L 172.640632 92.294244 
L 173.726434 92.297736 
L 175.898036 89.793974 
L 176.983837 89.182875 
L 178.069638 89.61239 
L 179.155439 87.220373 
L 180.24124 87.272752 
L 181.327042 86.574353 
L 182.412843 85.614054 
L 183.498644 85.278822 
L 184.584445 83.365208 
L 186.756047 81.40969 
L 187.841849 80.732243 
L 188.92765 80.676371 
L 190.013451 79.506552 
L 191.099252 78.570697 
L 192.185053 77.331038 
L 193.270854 76.58375 
L 194.356656 75.298696 
L 195.442457 74.85172 
L 198.69986 71.513371 
L 199.785661 70.528628 
L 200.871462 69.872133 
L 201.957264 68.83501 
L 203.043065 68.988658 
L 205.214667 66.341724 
L 206.300468 66.31728 
L 207.386269 65.266189 
L 208.472071 65.042701 
L 209.557872 64.124306 
L 210.643673 62.378308 
L 211.729474 62.587828 
L 212.815275 61.173569 
L 214.986877 60.915161 
L 216.072679 60.174858 
L 217.15848 59.682486 
L 218.244281 59.354239 
L 219.330082 57.9749 
L 220.415883 58.736155 
L 221.501684 58.896787 
L 222.587486 58.470763 
L 223.673287 57.615224 
L 224.759088 57.314912 
L 225.844889 102.32675 
L 226.93069 105.113364 
L 228.016491 105.954935 
L 229.102292 105.319392 
L 230.188094 104.418456 
L 231.273895 103.161338 
L 232.359696 102.934358 
L 233.445497 101.680731 
L 234.531298 102.173103 
L 235.617099 101.108044 
L 236.702901 99.767117 
L 237.788702 99.990605 
L 238.874503 99.871877 
L 239.960304 98.963958 
L 241.046105 97.570651 
L 242.131906 98.74047 
L 243.217708 98.33889 
L 244.303509 97.210975 
L 245.38931 97.224943 
L 246.475111 96.683684 
L 247.560912 97.179547 
L 248.646713 96.530036 
L 249.732514 95.451009 
L 250.818316 96.110996 
L 252.989918 94.288174 
L 254.075719 94.878321 
L 255.16152 93.806278 
L 256.247321 94.354522 
L 257.333123 93.471047 
L 258.418924 93.432635 
L 259.504725 92.521224 
L 260.590526 92.713283 
L 261.676327 92.227896 
L 262.762128 93.083435 
L 263.847929 92.004408 
L 264.933731 91.312993 
L 266.019532 91.386325 
L 267.105333 91.299025 
L 268.191134 90.335234 
L 269.276935 90.569197 
L 270.362736 89.388902 
L 271.448538 89.43779 
L 272.534339 89.87429 
L 273.62014 88.645107 
L 274.705941 89.102559 
L 275.791742 88.034008 
L 277.963344 87.65338 
L 279.049146 88.05496 
L 280.134947 87.318148 
L 281.220748 87.712744 
L 282.306549 87.719728 
L 283.39235 86.944505 
L 284.478151 85.638498 
L 285.563953 85.254378 
L 286.649754 86.176266 
L 287.735555 84.538519 
L 288.821356 84.203287 
L 289.907157 84.168367 
L 290.992958 84.283603 
L 292.07876 84.245191 
L 293.164561 83.197592 
L 294.250362 82.869345 
L 295.336163 83.075372 
L 297.507765 82.757601 
L 298.593566 81.797302 
L 299.679368 81.75889 
L 301.85097 81.091918 
L 302.936771 79.862735 
L 304.022572 79.799879 
L 305.108373 79.220208 
L 306.194175 78.972276 
L 307.279976 79.024656 
L 308.365777 77.889757 
L 309.451578 77.453258 
L 310.537379 77.498654 
L 311.62318 77.006282 
L 312.708981 76.021539 
L 313.794783 76.608194 
L 314.880584 76.842158 
L 315.966385 74.649184 
L 317.052186 75.434884 
L 318.137987 74.380301 
L 319.223788 74.293001 
L 320.30959 74.499028 
L 321.395391 74.216177 
L 322.481192 73.413017 
L 325.738595 72.484146 
L 326.824396 71.139728 
L 327.910198 71.104808 
L 328.995999 70.814972 
L 330.0818 69.760389 
L 331.167601 69.582297 
L 333.339203 68.880406 
L 334.425005 67.965503 
L 335.510806 67.371863 
L 336.596607 67.637255 
L 337.682408 66.697908 
L 338.768209 67.054091 
L 339.85401 66.642036 
L 340.939811 65.964588 
L 342.025613 65.573485 
L 343.111414 63.942722 
L 344.197215 64.145258 
L 345.283016 63.244323 
L 346.368817 62.10244 
L 347.454618 62.273548 
L 348.54042 62.057044 
L 349.626221 61.288805 
L 350.712022 60.723101 
L 351.797823 61.211981 
L 352.883624 59.815182 
L 353.969425 60.23073 
L 355.055227 58.446319 
L 356.141028 58.261244 
L 358.31263 57.419672 
L 359.398431 57.95744 
L 360.484232 57.238089 
L 361.570033 55.26511 
L 362.655835 55.757482 
L 363.741636 54.870515 
L 364.827437 54.423539 
L 365.913238 54.311795 
L 366.999039 53.568 
L 368.08484 54.992735 
L 369.170642 56.805081 
L 370.256443 57.395228 
L 371.342244 59.378683 
L 372.428045 61.002461 
L 373.513846 61.697368 
L 374.599647 62.022124 
L 375.685448 61.756732 
L 376.77125 62.500528 
L 377.857051 61.70086 
L 378.942852 61.421501 
L 380.028653 61.585625 
L 381.114454 60.974525 
L 382.200255 62.109424 
L 383.286057 61.78816 
L 384.371858 61.82308 
L 385.457659 63.020835 
L 386.54346 62.392276 
L 387.629261 62.053552 
L 388.715062 62.52148 
L 389.800863 62.36434 
L 390.886665 62.402752 
L 391.972466 62.59132 
L 393.058267 62.926551 
L 394.144068 62.992899 
L 395.229869 63.464319 
L 396.31567 62.804331 
L 397.401472 63.328131 
L 398.487273 62.947503 
L 398.487273 62.947503 
" clip-path="url(#pc16c801740)" style="fill: none; stroke: #1f77b4; stroke-width: 1.5; stroke-linecap: square"/>
   </g>
   <g id="line2d_19">
    <path d="M 73.832727 276.14567 
L 74.918528 254.253259 
L 76.00433 238.994912 
L 77.090131 214.623456 
L 78.175932 200.063431 
L 80.347534 185.852568 
L 81.433335 185.084413 
L 82.519137 172.060698 
L 83.604938 173.457343 
L 84.690739 166.36937 
L 85.77654 165.112389 
L 86.862341 150.587281 
L 87.948142 143.359642 
L 89.033943 141.12501 
L 90.119745 142.800984 
L 91.205546 136.027256 
L 92.291347 134.28145 
L 93.377148 133.478379 
L 94.462949 134.037037 
L 95.54875 173.876337 
L 96.634552 166.509034 
L 97.720353 166.893111 
L 98.806154 163.226918 
L 99.891955 160.32888 
L 100.977756 154.812132 
L 102.063557 146.886171 
L 103.149358 151.530016 
L 104.23516 148.631977 
L 105.320961 148.282816 
L 106.406762 145.838687 
L 107.492563 138.541217 
L 108.578364 137.284236 
L 109.664165 134.90994 
L 110.749967 138.890378 
L 112.921569 130.440676 
L 115.093171 123.981192 
L 116.178972 122.165554 
L 117.264773 119.127851 
L 118.350575 115.671154 
L 119.436376 117.731206 
L 122.693779 110.084574 
L 123.77958 110.713064 
L 124.865382 109.525916 
L 125.951183 105.196317 
L 127.036984 103.380678 
L 128.122785 103.869504 
L 129.208586 100.517556 
L 130.294387 97.689349 
L 131.380189 98.422588 
L 132.46599 97.130691 
L 134.637592 95.280137 
L 135.723393 95.978459 
L 136.809194 95.105556 
L 137.894995 95.384885 
L 138.980797 134.770275 
L 140.066598 139.833114 
L 141.152399 140.217191 
L 142.2382 135.154353 
L 143.324001 131.837321 
L 144.409802 137.842894 
L 145.495604 134.90994 
L 146.581405 129.393192 
L 147.667206 130.40576 
L 148.753007 125.901579 
L 149.838808 133.164134 
L 150.924609 132.221398 
L 152.01041 124.958844 
L 153.096212 126.809399 
L 154.182013 127.053811 
L 155.267814 122.689296 
L 156.353615 125.238173 
L 157.439416 129.847102 
L 158.525217 115.356909 
L 159.611019 120.03567 
L 160.69682 117.731206 
L 161.782621 114.763335 
L 162.868422 116.194896 
L 163.954223 115.70607 
L 165.040024 120.48958 
L 166.125825 121.327567 
L 167.211627 115.53149 
L 168.297428 113.541271 
L 169.383229 117.661374 
L 170.46903 120.03567 
L 171.554831 114.44909 
L 172.640632 110.747981 
L 173.726434 104.742407 
L 174.812235 107.605529 
L 175.898036 103.241013 
L 176.983837 106.104136 
L 178.069638 105.1614 
L 179.155439 106.104136 
L 180.24124 102.82202 
L 181.327042 103.345762 
L 182.412843 98.003595 
L 183.498644 102.123697 
L 184.584445 100.796885 
L 185.670246 98.736833 
L 186.756047 97.759182 
L 187.841849 93.35975 
L 188.92765 93.918408 
L 190.013451 95.315053 
L 191.099252 94.232653 
L 192.185053 89.763389 
L 193.270854 88.855569 
L 194.356656 89.309479 
L 195.442457 87.633505 
L 196.528258 89.937969 
L 197.614059 87.284344 
L 198.69986 86.795518 
L 199.785661 83.129325 
L 200.871462 86.935183 
L 201.957264 82.186589 
L 203.043065 84.246641 
L 204.128866 82.291338 
L 205.214667 81.139106 
L 206.300468 79.532964 
L 207.386269 79.917041 
L 208.472071 78.694977 
L 209.557872 76.809506 
L 210.643673 76.704758 
L 212.815275 75.971519 
L 213.901076 74.295545 
L 214.986877 75.657274 
L 216.072679 74.784371 
L 217.15848 74.190797 
L 218.244281 75.23828 
L 219.330082 73.911467 
L 221.501684 73.841635 
L 222.587486 74.086048 
L 223.673287 72.724319 
L 224.759088 73.562306 
L 225.844889 125.62225 
L 226.93069 125.936495 
L 228.016491 126.006328 
L 229.102292 131.069166 
L 230.188094 138.78563 
L 231.273895 122.444883 
L 232.359696 131.069166 
L 233.445497 132.535643 
L 234.531298 120.210251 
L 235.617099 117.172548 
L 237.788702 122.479799 
L 238.874503 124.679515 
L 239.960304 126.180908 
L 241.046105 115.915567 
L 242.131906 119.127851 
L 243.217708 114.798251 
L 244.303509 120.48958 
L 245.38931 123.003541 
L 246.475111 113.99518 
L 247.560912 121.676728 
L 248.646713 118.289864 
L 249.732514 110.224239 
L 250.818316 120.559412 
L 251.904117 121.048238 
L 254.075719 115.112496 
L 255.16152 119.86109 
L 256.247321 123.108289 
L 257.333123 125.238173 
L 258.418924 111.760548 
L 260.590526 118.010535 
L 261.676327 113.715851 
L 262.762128 106.173968 
L 263.847929 114.518922 
L 264.933731 116.544058 
L 266.019532 111.551051 
L 267.105333 115.810819 
L 268.191134 104.044084 
L 269.276935 119.337348 
L 270.362736 108.897426 
L 271.448538 111.6558 
L 272.534339 107.884858 
L 273.62014 102.891852 
L 274.705941 111.411387 
L 275.791742 114.309425 
L 276.877543 115.845735 
L 277.963344 107.256368 
L 279.049146 104.323413 
L 280.134947 117.975619 
L 281.220748 106.348549 
L 282.306549 113.36669 
L 283.39235 107.011955 
L 284.478151 108.268936 
L 285.563953 110.957477 
L 286.649754 111.795464 
L 287.735555 111.725632 
L 288.821356 104.951904 
L 289.907157 105.266149 
L 292.07876 104.637659 
L 294.250362 100.02873 
L 295.336163 108.373684 
L 296.421964 104.358329 
L 297.507765 101.530123 
L 298.593566 101.984033 
L 299.679368 99.435156 
L 300.765169 100.65722 
L 301.85097 99.051078 
L 302.936771 95.69913 
L 304.022572 99.958898 
L 305.108373 100.447723 
L 306.194175 97.41002 
L 307.279976 101.355543 
L 308.365777 97.41002 
L 309.451578 101.844368 
L 310.537379 94.023156 
L 311.62318 103.066433 
L 312.708981 98.248007 
L 313.794783 92.521763 
L 314.880584 90.880705 
L 315.966385 95.734046 
L 317.052186 91.229866 
L 318.137987 90.706124 
L 319.223788 89.623724 
L 320.30959 90.426795 
L 321.395391 92.067853 
L 322.481192 93.394666 
L 323.566993 87.144679 
L 324.652794 90.11255 
L 325.738595 88.227079 
L 326.824396 89.728473 
L 327.910198 87.074847 
L 328.995999 89.134898 
L 330.0818 89.833221 
L 331.167601 89.03015 
L 332.253402 84.944963 
L 333.339203 84.770383 
L 334.425005 83.967312 
L 335.510806 85.259208 
L 336.596607 85.329041 
L 337.682408 85.15446 
L 338.768209 83.024576 
L 339.85401 81.348602 
L 340.939811 81.802512 
L 342.025613 79.428215 
L 343.111414 81.802512 
L 344.197215 77.787157 
L 345.283016 82.431002 
L 346.368817 80.475699 
L 347.454618 76.879338 
L 348.54042 77.158667 
L 349.626221 77.822074 
L 350.712022 77.123751 
L 351.797823 77.019003 
L 352.883624 78.48548 
L 353.969425 73.213145 
L 355.055227 74.749455 
L 356.141028 72.44499 
L 357.226829 72.235493 
L 358.31263 73.352809 
L 359.398431 71.572087 
L 360.484232 71.711752 
L 361.570033 71.641919 
L 362.655835 69.721532 
L 363.741636 72.514822 
L 364.827437 69.616784 
L 365.913238 71.607003 
L 366.999039 68.639132 
L 368.08484 70.838848 
L 369.170642 71.676835 
L 370.256443 72.165661 
L 371.342244 76.041351 
L 372.428045 79.358383 
L 373.513846 78.660061 
L 374.599647 77.472912 
L 375.685448 81.139106 
L 376.77125 80.301119 
L 377.857051 79.707544 
L 378.942852 79.532964 
L 380.028653 80.685196 
L 381.114454 80.580448 
L 382.200255 79.288551 
L 383.286057 79.672628 
L 384.371858 81.313686 
L 385.457659 76.565093 
L 386.54346 79.707544 
L 387.629261 75.796938 
L 388.715062 79.498048 
L 389.800863 80.440783 
L 390.886665 79.253635 
L 391.972466 77.193583 
L 393.058267 77.472912 
L 394.144068 78.764809 
L 395.229869 80.929609 
L 396.31567 78.729893 
L 397.401472 79.393299 
L 398.487273 79.044138 
L 398.487273 79.044138 
" clip-path="url(#pc16c801740)" style="fill: none; stroke: #ff7f0e; stroke-width: 1.5; stroke-linecap: square"/>
   </g>
   <g id="line2d_20">
    <path d="M 73.832727 295.488 
L 74.918528 292.59839 
L 76.00433 279.667383 
L 77.090131 272.852718 
L 78.175932 273.43064 
L 79.261733 265.02669 
L 80.347534 263.894926 
L 81.433335 264.737729 
L 82.519137 258.934428 
L 83.604938 262.2334 
L 84.690739 255.972577 
L 85.77654 255.105694 
L 86.862341 253.660889 
L 87.948142 246.171982 
L 89.033943 246.196062 
L 90.119745 249.326473 
L 91.205546 244.077014 
L 92.291347 245.5459 
L 93.377148 243.691733 
L 94.462949 243.788053 
L 95.54875 264.039406 
L 96.634552 258.765867 
L 98.806154 262.3538 
L 99.891955 263.678205 
L 100.977756 257.898984 
L 102.063557 247.905748 
L 103.149358 247.592707 
L 104.23516 255.490976 
L 105.320961 249.663594 
L 106.406762 252.456885 
L 107.492563 244.269655 
L 109.664165 246.340542 
L 110.749967 238.201473 
L 111.835768 238.201473 
L 112.921569 239.694438 
L 114.00737 238.731235 
L 115.093171 235.022902 
L 116.178972 236.877068 
L 117.264773 226.811592 
L 118.350575 235.865705 
L 119.436376 229.14736 
L 120.522177 233.505856 
L 121.607978 233.481776 
L 122.693779 227.822956 
L 123.77958 229.773443 
L 124.865382 229.773443 
L 125.951183 227.317274 
L 127.036984 227.991516 
L 128.122785 227.196873 
L 129.208586 220.62301 
L 130.294387 219.033724 
L 131.380189 219.057804 
L 132.46599 218.913323 
L 133.551791 217.92604 
L 134.637592 219.707966 
L 135.723393 218.528042 
L 136.809194 218.215001 
L 137.894995 218.04644 
L 138.980797 238.779395 
L 140.066598 242.704449 
L 141.152399 243.595413 
L 142.2382 242.150607 
L 143.324001 245.497739 
L 144.409802 241.331884 
L 145.495604 239.453638 
L 146.581405 233.770737 
L 147.667206 243.739893 
L 148.753007 232.205531 
L 149.838808 243.667653 
L 150.924609 232.807534 
L 152.01041 230.206884 
L 153.096212 248.098389 
L 154.182013 230.736646 
L 155.267814 233.674417 
L 156.353615 239.236917 
L 157.439416 237.190109 
L 158.525217 227.196873 
L 159.611019 230.881127 
L 160.69682 232.374092 
L 161.782621 229.340001 
L 162.868422 227.798875 
L 163.954223 228.665759 
L 165.040024 237.33459 
L 166.125825 227.269114 
L 167.211627 234.107858 
L 168.297428 218.215001 
L 169.383229 223.295899 
L 170.46903 241.693086 
L 171.554831 225.848388 
L 172.640632 226.113269 
L 173.726434 219.033724 
L 174.812235 225.631668 
L 175.898036 221.802934 
L 176.983837 220.88789 
L 178.069638 231.483129 
L 179.155439 220.141408 
L 180.24124 227.148713 
L 182.412843 213.687944 
L 183.498644 218.455802 
L 184.584445 220.79157 
L 185.670246 215.18091 
L 186.756047 219.298605 
L 187.841849 208.944167 
L 188.92765 208.799687 
L 190.013451 213.230423 
L 191.099252 214.964189 
L 192.185053 208.751527 
L 193.270854 206.536159 
L 194.356656 210.413053 
L 195.442457 202.442544 
L 196.528258 206.343518 
L 197.614059 211.833778 
L 198.69986 205.693356 
L 199.785661 207.258561 
L 200.871462 206.006397 
L 201.957264 202.225823 
L 203.043065 209.57025 
L 204.128866 205.476635 
L 205.214667 199.047252 
L 207.386269 201.238539 
L 208.472071 200.010455 
L 210.643673 196.278042 
L 211.729474 197.746927 
L 212.815275 197.433886 
L 213.901076 196.855964 
L 214.986877 198.830531 
L 216.072679 198.348929 
L 217.15848 196.253961 
L 218.244281 197.096765 
L 219.330082 195.91684 
L 221.501684 196.663323 
L 222.587486 195.242598 
L 223.673287 195.435239 
L 224.759088 195.82052 
L 225.844889 236.539947 
L 226.93069 233.385456 
L 228.016491 233.120575 
L 229.102292 243.812133 
L 230.188094 246.460943 
L 231.273895 228.449038 
L 232.359696 239.790759 
L 233.445497 236.034265 
L 234.531298 229.315921 
L 235.617099 227.076473 
L 236.702901 240.15196 
L 237.788702 232.518573 
L 238.874503 234.228259 
L 239.960304 225.920629 
L 241.046105 226.956072 
L 242.131906 230.544005 
L 243.217708 215.951473 
L 245.38931 237.214189 
L 246.475111 222.164135 
L 247.560912 225.679828 
L 248.646713 227.847036 
L 249.732514 218.744763 
L 250.818316 240.633562 
L 251.904117 229.893843 
L 252.989918 226.980152 
L 254.075719 229.388161 
L 255.16152 237.26235 
L 256.247321 237.960672 
L 257.333123 229.942003 
L 258.418924 224.885185 
L 259.504725 230.014243 
L 260.590526 231.073767 
L 261.676327 222.862458 
L 262.762128 218.961484 
L 263.847929 218.696603 
L 264.933731 235.071062 
L 266.019532 225.342707 
L 267.105333 235.384103 
L 268.191134 222.453096 
L 269.276935 228.304557 
L 270.362736 219.972847 
L 271.448538 223.994222 
L 272.534339 218.961484 
L 273.62014 221.802934 
L 274.705941 218.937403 
L 275.791742 225.439027 
L 276.877543 234.58946 
L 277.963344 220.454449 
L 279.049146 212.772901 
L 280.134947 235.287783 
L 281.220748 230.471765 
L 282.306549 237.503151 
L 283.39235 219.033724 
L 284.478151 218.792923 
L 286.649754 232.903854 
L 287.735555 227.750715 
L 288.821356 219.876527 
L 289.907157 225.848388 
L 290.992958 219.346765 
L 292.07876 221.971494 
L 293.164561 214.530748 
L 294.250362 214.289947 
L 295.336163 228.95472 
L 296.421964 209.040488 
L 297.507765 215.566191 
L 298.593566 218.142761 
L 299.679368 216.216354 
L 300.765169 208.029124 
L 301.85097 219.996927 
L 302.936771 208.390325 
L 304.022572 217.299958 
L 305.108373 208.655206 
L 306.194175 210.990975 
L 307.279976 220.021007 
L 308.365777 213.134102 
L 309.451578 223.48854 
L 310.537379 209.064568 
L 311.62318 221.128691 
L 312.708981 211.713377 
L 313.794783 206.9696 
L 314.880584 211.978258 
L 315.966385 209.907371 
L 317.052186 201.840542 
L 318.137987 202.755585 
L 319.223788 208.486646 
L 320.30959 202.538864 
L 321.395391 216.216354 
L 322.481192 210.533453 
L 323.566993 202.105423 
L 324.652794 207.667923 
L 325.738595 196.374362 
L 326.824396 202.659265 
L 327.910198 202.803745 
L 328.995999 209.281289 
L 330.0818 211.785618 
L 332.253402 206.608399 
L 333.339203 207.090001 
L 334.425005 199.360293 
L 335.510806 207.354882 
L 336.596607 199.601094 
L 337.682408 203.429827 
L 338.768209 202.033182 
L 339.85401 199.312133 
L 340.939811 199.841894 
L 342.025613 198.806451 
L 343.111414 203.429827 
L 344.197215 193.990433 
L 345.283016 200.564297 
L 346.368817 199.769654 
L 347.454618 202.996386 
L 348.54042 200.227176 
L 349.626221 205.283994 
L 350.712022 195.965 
L 351.797823 198.059968 
L 352.883624 193.07539 
L 353.969425 195.555639 
L 355.055227 195.989081 
L 356.141028 186.766407 
L 357.226829 195.098117 
L 358.31263 193.292111 
L 359.398431 188.548334 
L 360.484232 192.160347 
L 361.570033 192.762349 
L 362.655835 194.327555 
L 363.741636 193.09947 
L 365.913238 192.930909 
L 366.999039 189.559697 
L 368.08484 189.800498 
L 369.170642 196.229881 
L 370.256443 189.463377 
L 371.342244 194.447955 
L 372.428045 200.516137 
L 373.513846 193.966353 
L 374.599647 194.809156 
L 375.685448 201.840542 
L 376.77125 196.518842 
L 377.857051 200.684697 
L 378.942852 193.484751 
L 380.028653 201.960942 
L 381.114454 202.033182 
L 382.200255 203.983669 
L 383.286057 205.259914 
L 384.371858 199.263972 
L 385.457659 200.106775 
L 386.54346 204.27263 
L 387.629261 193.484751 
L 388.715062 195.89276 
L 389.800863 197.554286 
L 390.886665 203.839189 
L 391.972466 202.659265 
L 393.058267 196.711483 
L 394.144068 193.412511 
L 395.229869 199.552933 
L 396.31567 194.520195 
L 397.401472 197.048604 
L 398.487273 195.218518 
L 398.487273 195.218518 
" clip-path="url(#pc16c801740)" style="fill: none; stroke: #2ca02c; stroke-width: 1.5; stroke-linecap: square"/>
   </g>
   <g id="line2d_21">
    <path d="M 368.08484 70.384939 
L 369.170642 70.070694 
L 370.256443 75.587442 
L 371.342244 74.120964 
L 372.428045 78.590228 
L 373.513846 76.739674 
L 374.599647 78.974306 
L 375.685448 86.760602 
L 376.77125 77.822074 
L 377.857051 83.44357 
L 378.942852 78.660061 
L 380.028653 80.894693 
L 381.114454 83.44357 
L 382.200255 83.513402 
L 383.286057 91.544111 
L 384.371858 97.200524 
L 385.457659 98.736833 
L 386.54346 96.083208 
L 387.629261 92.661427 
L 388.715062 85.887699 
L 389.800863 89.972886 
L 390.886665 95.245221 
L 391.972466 91.160034 
L 393.058267 101.949117 
L 394.144068 93.569247 
L 395.229869 89.693557 
L 396.31567 99.155827 
L 397.401472 97.270356 
L 398.487273 122.584547 
L 398.487273 122.584547 
" clip-path="url(#pc16c801740)" style="fill: none; stroke: #d62728; stroke-width: 1.5; stroke-linecap: square"/>
   </g>
   <g id="line2d_22">
    <path d="M 368.08484 189.463377 
L 369.170642 188.981775 
L 370.256443 196.591083 
L 371.342244 193.845953 
L 372.428045 193.07539 
L 373.513846 192.064026 
L 374.599647 196.205801 
L 375.685448 201.118139 
L 376.77125 190.30618 
L 377.857051 190.017219 
L 378.942852 191.245303 
L 380.028653 194.231234 
L 381.114454 195.82052 
L 382.200255 189.944979 
L 383.286057 207.354882 
L 384.371858 212.291299 
L 385.457659 211.906018 
L 386.54346 213.302663 
L 387.629261 207.234481 
L 388.715062 205.597035 
L 389.800863 202.900066 
L 390.886665 212.170899 
L 391.972466 205.548875 
L 393.058267 213.639784 
L 394.144068 203.598388 
L 395.229869 201.768301 
L 396.31567 209.859211 
L 397.401472 212.194979 
L 398.487273 229.580802 
L 398.487273 229.580802 
" clip-path="url(#pc16c801740)" style="fill: none; stroke: #9467bd; stroke-width: 1.5; stroke-linecap: square"/>
   </g>
   <g id="patch_3">
    <path d="M 57.6 307.584 
L 57.6 41.472 
" style="fill: none; stroke: #000000; stroke-width: 0.8; stroke-linejoin: miter; stroke-linecap: square"/>
   </g>
   <g id="patch_4">
    <path d="M 414.72 307.584 
L 414.72 41.472 
" style="fill: none; stroke: #000000; stroke-width: 0.8; stroke-linejoin: miter; stroke-linecap: square"/>
   </g>
   <g id="patch_5">
    <path d="M 57.6 307.584 
L 414.72 307.584 
" style="fill: none; stroke: #000000; stroke-width: 0.8; stroke-linejoin: miter; stroke-linecap: square"/>
   </g>
   <g id="patch_6">
    <path d="M 57.6 41.472 
L 414.72 41.472 
" style="fill: none; stroke: #000000; stroke-width: 0.8; stroke-linejoin: miter; stroke-linecap: square"/>
   </g>
   <g id="text_20">
    <!-- Learning Curves -->
    <g transform="translate(187.37625 35.472) scale(0.12 -0.12)">
     <defs>
      <path id="DejaVuSans-4c" d="M 628 4666 
L 1259 4666 
L 1259 531 
L 3531 531 
L 3531 0 
L 628 0 
L 628 4666 
z
" transform="scale(0.015625)"/>
      <path id="DejaVuSans-65" d="M 3597 1894 
L 3597 1613 
L 953 1613 
Q 991 1019 1311 708 
Q 1631 397 2203 397 
Q 2534 397 2845 478 
Q 3156 559 3463 722 
L 3463 178 
Q 3153 47 2828 -22 
Q 2503 -91 2169 -91 
Q 1331 -91 842 396 
Q 353 884 353 1716 
Q 353 2575 817 3079 
Q 1281 3584 2069 3584 
Q 2775 3584 3186 3129 
Q 3597 2675 3597 1894 
z
M 3022 2063 
Q 3016 2534 2758 2815 
Q 2500 3097 2075 3097 
Q 1594 3097 1305 2825 
Q 1016 2553 972 2059 
L 3022 2063 
z
" transform="scale(0.015625)"/>
      <path id="DejaVuSans-6e" d="M 3513 2113 
L 3513 0 
L 2938 0 
L 2938 2094 
Q 2938 2591 2744 2837 
Q 2550 3084 2163 3084 
Q 1697 3084 1428 2787 
Q 1159 2491 1159 1978 
L 1159 0 
L 581 0 
L 581 3500 
L 1159 3500 
L 1159 2956 
Q 1366 3272 1645 3428 
Q 1925 3584 2291 3584 
Q 2894 3584 3203 3211 
Q 3513 2838 3513 2113 
z
" transform="scale(0.015625)"/>
      <path id="DejaVuSans-69" d="M 603 3500 
L 1178 3500 
L 1178 0 
L 603 0 
L 603 3500 
z
M 603 4863 
L 1178 4863 
L 1178 4134 
L 603 4134 
L 603 4863 
z
" transform="scale(0.015625)"/>
      <path id="DejaVuSans-67" d="M 2906 1791 
Q 2906 2416 2648 2759 
Q 2391 3103 1925 3103 
Q 1463 3103 1205 2759 
Q 947 2416 947 1791 
Q 947 1169 1205 825 
Q 1463 481 1925 481 
Q 2391 481 2648 825 
Q 2906 1169 2906 1791 
z
M 3481 434 
Q 3481 -459 3084 -895 
Q 2688 -1331 1869 -1331 
Q 1566 -1331 1297 -1286 
Q 1028 -1241 775 -1147 
L 775 -588 
Q 1028 -725 1275 -790 
Q 1522 -856 1778 -856 
Q 2344 -856 2625 -561 
Q 2906 -266 2906 331 
L 2906 616 
Q 2728 306 2450 153 
Q 2172 0 1784 0 
Q 1141 0 747 490 
Q 353 981 353 1791 
Q 353 2603 747 3093 
Q 1141 3584 1784 3584 
Q 2172 3584 2450 3431 
Q 2728 3278 2906 2969 
L 2906 3500 
L 3481 3500 
L 3481 434 
z
" transform="scale(0.015625)"/>
      <path id="DejaVuSans-20" transform="scale(0.015625)"/>
      <path id="DejaVuSans-43" d="M 4122 4306 
L 4122 3641 
Q 3803 3938 3442 4084 
Q 3081 4231 2675 4231 
Q 1875 4231 1450 3742 
Q 1025 3253 1025 2328 
Q 1025 1406 1450 917 
Q 1875 428 2675 428 
Q 3081 428 3442 575 
Q 3803 722 4122 1019 
L 4122 359 
Q 3791 134 3420 21 
Q 3050 -91 2638 -91 
Q 1578 -91 968 557 
Q 359 1206 359 2328 
Q 359 3453 968 4101 
Q 1578 4750 2638 4750 
Q 3056 4750 3426 4639 
Q 3797 4528 4122 4306 
z
" transform="scale(0.015625)"/>
      <path id="DejaVuSans-76" d="M 191 3500 
L 800 3500 
L 1894 563 
L 2988 3500 
L 3597 3500 
L 2284 0 
L 1503 0 
L 191 3500 
z
" transform="scale(0.015625)"/>
     </defs>
     <use xlink:href="#DejaVuSans-4c"/>
     <use xlink:href="#DejaVuSans-65" x="53.962891"/>
     <use xlink:href="#DejaVuSans-61" x="115.486328"/>
     <use xlink:href="#DejaVuSans-72" x="176.765625"/>
     <use xlink:href="#DejaVuSans-6e" x="216.128906"/>
     <use xlink:href="#DejaVuSans-69" x="279.507812"/>
     <use xlink:href="#DejaVuSans-6e" x="307.291016"/>
     <use xlink:href="#DejaVuSans-67" x="370.669922"/>
     <use xlink:href="#DejaVuSans-20" x="434.146484"/>
     <use xlink:href="#DejaVuSans-43" x="465.933594"/>
     <use xlink:href="#DejaVuSans-75" x="535.757812"/>
     <use xlink:href="#DejaVuSans-72" x="599.136719"/>
     <use xlink:href="#DejaVuSans-76" x="640.25"/>
     <use xlink:href="#DejaVuSans-65" x="699.429688"/>
     <use xlink:href="#DejaVuSans-73" x="760.953125"/>
    </g>
   </g>
   <g id="legend_1">
    <g id="patch_7">
     <path d="M 214.18875 302.584 
L 407.72 302.584 
Q 409.72 302.584 409.72 300.584 
L 409.72 228.193375 
Q 409.72 226.193375 407.72 226.193375 
L 214.18875 226.193375 
Q 212.18875 226.193375 212.18875 228.193375 
L 212.18875 300.584 
Q 212.18875 302.584 214.18875 302.584 
z
" style="fill: #ffffff; opacity: 0.8; stroke: #cccccc; stroke-linejoin: miter"/>
    </g>
    <g id="line2d_23">
     <path d="M 216.18875 234.291812 
L 226.18875 234.291812 
L 236.18875 234.291812 
" style="fill: none; stroke: #1f77b4; stroke-width: 1.5; stroke-linecap: square"/>
    </g>
    <g id="text_21">
     <!-- Train Accuracy -->
     <g transform="translate(244.18875 237.791812) scale(0.1 -0.1)">
      <defs>
       <path id="DejaVuSans-54" d="M -19 4666 
L 3928 4666 
L 3928 4134 
L 2272 4134 
L 2272 0 
L 1638 0 
L 1638 4134 
L -19 4134 
L -19 4666 
z
" transform="scale(0.015625)"/>
      </defs>
      <use xlink:href="#DejaVuSans-54"/>
      <use xlink:href="#DejaVuSans-72" x="46.333984"/>
      <use xlink:href="#DejaVuSans-61" x="87.447266"/>
      <use xlink:href="#DejaVuSans-69" x="148.726562"/>
      <use xlink:href="#DejaVuSans-6e" x="176.509766"/>
      <use xlink:href="#DejaVuSans-20" x="239.888672"/>
      <use xlink:href="#DejaVuSans-41" x="271.675781"/>
      <use xlink:href="#DejaVuSans-63" x="338.333984"/>
      <use xlink:href="#DejaVuSans-63" x="393.314453"/>
      <use xlink:href="#DejaVuSans-75" x="448.294922"/>
      <use xlink:href="#DejaVuSans-72" x="511.673828"/>
      <use xlink:href="#DejaVuSans-61" x="552.787109"/>
      <use xlink:href="#DejaVuSans-63" x="614.066406"/>
      <use xlink:href="#DejaVuSans-79" x="669.046875"/>
     </g>
    </g>
    <g id="line2d_24">
     <path d="M 216.18875 248.969937 
L 226.18875 248.969937 
L 236.18875 248.969937 
" style="fill: none; stroke: #ff7f0e; stroke-width: 1.5; stroke-linecap: square"/>
    </g>
    <g id="text_22">
     <!-- Validation Accuracy -->
     <g transform="translate(244.18875 252.469937) scale(0.1 -0.1)">
      <defs>
       <path id="DejaVuSans-56" d="M 1831 0 
L 50 4666 
L 709 4666 
L 2188 738 
L 3669 4666 
L 4325 4666 
L 2547 0 
L 1831 0 
z
" transform="scale(0.015625)"/>
       <path id="DejaVuSans-6c" d="M 603 4863 
L 1178 4863 
L 1178 0 
L 603 0 
L 603 4863 
z
" transform="scale(0.015625)"/>
       <path id="DejaVuSans-64" d="M 2906 2969 
L 2906 4863 
L 3481 4863 
L 3481 0 
L 2906 0 
L 2906 525 
Q 2725 213 2448 61 
Q 2172 -91 1784 -91 
Q 1150 -91 751 415 
Q 353 922 353 1747 
Q 353 2572 751 3078 
Q 1150 3584 1784 3584 
Q 2172 3584 2448 3432 
Q 2725 3281 2906 2969 
z
M 947 1747 
Q 947 1113 1208 752 
Q 1469 391 1925 391 
Q 2381 391 2643 752 
Q 2906 1113 2906 1747 
Q 2906 2381 2643 2742 
Q 2381 3103 1925 3103 
Q 1469 3103 1208 2742 
Q 947 2381 947 1747 
z
" transform="scale(0.015625)"/>
       <path id="DejaVuSans-74" d="M 1172 4494 
L 1172 3500 
L 2356 3500 
L 2356 3053 
L 1172 3053 
L 1172 1153 
Q 1172 725 1289 603 
Q 1406 481 1766 481 
L 2356 481 
L 2356 0 
L 1766 0 
Q 1100 0 847 248 
Q 594 497 594 1153 
L 594 3053 
L 172 3053 
L 172 3500 
L 594 3500 
L 594 4494 
L 1172 4494 
z
" transform="scale(0.015625)"/>
      </defs>
      <use xlink:href="#DejaVuSans-56"/>
      <use xlink:href="#DejaVuSans-61" x="60.658203"/>
      <use xlink:href="#DejaVuSans-6c" x="121.9375"/>
      <use xlink:href="#DejaVuSans-69" x="149.720703"/>
      <use xlink:href="#DejaVuSans-64" x="177.503906"/>
      <use xlink:href="#DejaVuSans-61" x="240.980469"/>
      <use xlink:href="#DejaVuSans-74" x="302.259766"/>
      <use xlink:href="#DejaVuSans-69" x="341.46875"/>
      <use xlink:href="#DejaVuSans-6f" x="369.251953"/>
      <use xlink:href="#DejaVuSans-6e" x="430.433594"/>
      <use xlink:href="#DejaVuSans-20" x="493.8125"/>
      <use xlink:href="#DejaVuSans-41" x="525.599609"/>
      <use xlink:href="#DejaVuSans-63" x="592.257812"/>
      <use xlink:href="#DejaVuSans-63" x="647.238281"/>
      <use xlink:href="#DejaVuSans-75" x="702.21875"/>
      <use xlink:href="#DejaVuSans-72" x="765.597656"/>
      <use xlink:href="#DejaVuSans-61" x="806.710938"/>
      <use xlink:href="#DejaVuSans-63" x="867.990234"/>
      <use xlink:href="#DejaVuSans-79" x="922.970703"/>
     </g>
    </g>
    <g id="line2d_25">
     <path d="M 216.18875 263.648062 
L 226.18875 263.648062 
L 236.18875 263.648062 
" style="fill: none; stroke: #2ca02c; stroke-width: 1.5; stroke-linecap: square"/>
    </g>
    <g id="text_23">
     <!-- Robust Validation Accuracy -->
     <g transform="translate(244.18875 267.148062) scale(0.1 -0.1)">
      <defs>
       <path id="DejaVuSans-52" d="M 2841 2188 
Q 3044 2119 3236 1894 
Q 3428 1669 3622 1275 
L 4263 0 
L 3584 0 
L 2988 1197 
Q 2756 1666 2539 1819 
Q 2322 1972 1947 1972 
L 1259 1972 
L 1259 0 
L 628 0 
L 628 4666 
L 2053 4666 
Q 2853 4666 3247 4331 
Q 3641 3997 3641 3322 
Q 3641 2881 3436 2590 
Q 3231 2300 2841 2188 
z
M 1259 4147 
L 1259 2491 
L 2053 2491 
Q 2509 2491 2742 2702 
Q 2975 2913 2975 3322 
Q 2975 3731 2742 3939 
Q 2509 4147 2053 4147 
L 1259 4147 
z
" transform="scale(0.015625)"/>
       <path id="DejaVuSans-62" d="M 3116 1747 
Q 3116 2381 2855 2742 
Q 2594 3103 2138 3103 
Q 1681 3103 1420 2742 
Q 1159 2381 1159 1747 
Q 1159 1113 1420 752 
Q 1681 391 2138 391 
Q 2594 391 2855 752 
Q 3116 1113 3116 1747 
z
M 1159 2969 
Q 1341 3281 1617 3432 
Q 1894 3584 2278 3584 
Q 2916 3584 3314 3078 
Q 3713 2572 3713 1747 
Q 3713 922 3314 415 
Q 2916 -91 2278 -91 
Q 1894 -91 1617 61 
Q 1341 213 1159 525 
L 1159 0 
L 581 0 
L 581 4863 
L 1159 4863 
L 1159 2969 
z
" transform="scale(0.015625)"/>
      </defs>
      <use xlink:href="#DejaVuSans-52"/>
      <use xlink:href="#DejaVuSans-6f" x="64.982422"/>
      <use xlink:href="#DejaVuSans-62" x="126.164062"/>
      <use xlink:href="#DejaVuSans-75" x="189.640625"/>
      <use xlink:href="#DejaVuSans-73" x="253.019531"/>
      <use xlink:href="#DejaVuSans-74" x="305.119141"/>
      <use xlink:href="#DejaVuSans-20" x="344.328125"/>
      <use xlink:href="#DejaVuSans-56" x="376.115234"/>
      <use xlink:href="#DejaVuSans-61" x="436.773438"/>
      <use xlink:href="#DejaVuSans-6c" x="498.052734"/>
      <use xlink:href="#DejaVuSans-69" x="525.835938"/>
      <use xlink:href="#DejaVuSans-64" x="553.619141"/>
      <use xlink:href="#DejaVuSans-61" x="617.095703"/>
      <use xlink:href="#DejaVuSans-74" x="678.375"/>
      <use xlink:href="#DejaVuSans-69" x="717.583984"/>
      <use xlink:href="#DejaVuSans-6f" x="745.367188"/>
      <use xlink:href="#DejaVuSans-6e" x="806.548828"/>
      <use xlink:href="#DejaVuSans-20" x="869.927734"/>
      <use xlink:href="#DejaVuSans-41" x="901.714844"/>
      <use xlink:href="#DejaVuSans-63" x="968.373047"/>
      <use xlink:href="#DejaVuSans-63" x="1023.353516"/>
      <use xlink:href="#DejaVuSans-75" x="1078.333984"/>
      <use xlink:href="#DejaVuSans-72" x="1141.712891"/>
      <use xlink:href="#DejaVuSans-61" x="1182.826172"/>
      <use xlink:href="#DejaVuSans-63" x="1244.105469"/>
      <use xlink:href="#DejaVuSans-79" x="1299.085938"/>
     </g>
    </g>
    <g id="line2d_26">
     <path d="M 216.18875 278.326188 
L 226.18875 278.326188 
L 236.18875 278.326188 
" style="fill: none; stroke: #d62728; stroke-width: 1.5; stroke-linecap: square"/>
    </g>
    <g id="text_24">
     <!-- SWA Validation Accuracy -->
     <g transform="translate(244.18875 281.826188) scale(0.1 -0.1)">
      <defs>
       <path id="DejaVuSans-53" d="M 3425 4513 
L 3425 3897 
Q 3066 4069 2747 4153 
Q 2428 4238 2131 4238 
Q 1616 4238 1336 4038 
Q 1056 3838 1056 3469 
Q 1056 3159 1242 3001 
Q 1428 2844 1947 2747 
L 2328 2669 
Q 3034 2534 3370 2195 
Q 3706 1856 3706 1288 
Q 3706 609 3251 259 
Q 2797 -91 1919 -91 
Q 1588 -91 1214 -16 
Q 841 59 441 206 
L 441 856 
Q 825 641 1194 531 
Q 1563 422 1919 422 
Q 2459 422 2753 634 
Q 3047 847 3047 1241 
Q 3047 1584 2836 1778 
Q 2625 1972 2144 2069 
L 1759 2144 
Q 1053 2284 737 2584 
Q 422 2884 422 3419 
Q 422 4038 858 4394 
Q 1294 4750 2059 4750 
Q 2388 4750 2728 4690 
Q 3069 4631 3425 4513 
z
" transform="scale(0.015625)"/>
       <path id="DejaVuSans-57" d="M 213 4666 
L 850 4666 
L 1831 722 
L 2809 4666 
L 3519 4666 
L 4500 722 
L 5478 4666 
L 6119 4666 
L 4947 0 
L 4153 0 
L 3169 4050 
L 2175 0 
L 1381 0 
L 213 4666 
z
" transform="scale(0.015625)"/>
      </defs>
      <use xlink:href="#DejaVuSans-53"/>
      <use xlink:href="#DejaVuSans-57" x="63.476562"/>
      <use xlink:href="#DejaVuSans-41" x="156.853516"/>
      <use xlink:href="#DejaVuSans-20" x="225.261719"/>
      <use xlink:href="#DejaVuSans-56" x="257.048828"/>
      <use xlink:href="#DejaVuSans-61" x="317.707031"/>
      <use xlink:href="#DejaVuSans-6c" x="378.986328"/>
      <use xlink:href="#DejaVuSans-69" x="406.769531"/>
      <use xlink:href="#DejaVuSans-64" x="434.552734"/>
      <use xlink:href="#DejaVuSans-61" x="498.029297"/>
      <use xlink:href="#DejaVuSans-74" x="559.308594"/>
      <use xlink:href="#DejaVuSans-69" x="598.517578"/>
      <use xlink:href="#DejaVuSans-6f" x="626.300781"/>
      <use xlink:href="#DejaVuSans-6e" x="687.482422"/>
      <use xlink:href="#DejaVuSans-20" x="750.861328"/>
      <use xlink:href="#DejaVuSans-41" x="782.648438"/>
      <use xlink:href="#DejaVuSans-63" x="849.306641"/>
      <use xlink:href="#DejaVuSans-63" x="904.287109"/>
      <use xlink:href="#DejaVuSans-75" x="959.267578"/>
      <use xlink:href="#DejaVuSans-72" x="1022.646484"/>
      <use xlink:href="#DejaVuSans-61" x="1063.759766"/>
      <use xlink:href="#DejaVuSans-63" x="1125.039062"/>
      <use xlink:href="#DejaVuSans-79" x="1180.019531"/>
     </g>
    </g>
    <g id="line2d_27">
     <path d="M 216.18875 293.004312 
L 226.18875 293.004312 
L 236.18875 293.004312 
" style="fill: none; stroke: #9467bd; stroke-width: 1.5; stroke-linecap: square"/>
    </g>
    <g id="text_25">
     <!-- SWA Robust Validation Accuracy -->
     <g transform="translate(244.18875 296.504312) scale(0.1 -0.1)">
      <use xlink:href="#DejaVuSans-53"/>
      <use xlink:href="#DejaVuSans-57" x="63.476562"/>
      <use xlink:href="#DejaVuSans-41" x="156.853516"/>
      <use xlink:href="#DejaVuSans-20" x="225.261719"/>
      <use xlink:href="#DejaVuSans-52" x="257.048828"/>
      <use xlink:href="#DejaVuSans-6f" x="322.03125"/>
      <use xlink:href="#DejaVuSans-62" x="383.212891"/>
      <use xlink:href="#DejaVuSans-75" x="446.689453"/>
      <use xlink:href="#DejaVuSans-73" x="510.068359"/>
      <use xlink:href="#DejaVuSans-74" x="562.167969"/>
      <use xlink:href="#DejaVuSans-20" x="601.376953"/>
      <use xlink:href="#DejaVuSans-56" x="633.164062"/>
      <use xlink:href="#DejaVuSans-61" x="693.822266"/>
      <use xlink:href="#DejaVuSans-6c" x="755.101562"/>
      <use xlink:href="#DejaVuSans-69" x="782.884766"/>
      <use xlink:href="#DejaVuSans-64" x="810.667969"/>
      <use xlink:href="#DejaVuSans-61" x="874.144531"/>
      <use xlink:href="#DejaVuSans-74" x="935.423828"/>
      <use xlink:href="#DejaVuSans-69" x="974.632812"/>
      <use xlink:href="#DejaVuSans-6f" x="1002.416016"/>
      <use xlink:href="#DejaVuSans-6e" x="1063.597656"/>
      <use xlink:href="#DejaVuSans-20" x="1126.976562"/>
      <use xlink:href="#DejaVuSans-41" x="1158.763672"/>
      <use xlink:href="#DejaVuSans-63" x="1225.421875"/>
      <use xlink:href="#DejaVuSans-63" x="1280.402344"/>
      <use xlink:href="#DejaVuSans-75" x="1335.382812"/>
      <use xlink:href="#DejaVuSans-72" x="1398.761719"/>
      <use xlink:href="#DejaVuSans-61" x="1439.875"/>
      <use xlink:href="#DejaVuSans-63" x="1501.154297"/>
      <use xlink:href="#DejaVuSans-79" x="1556.134766"/>
     </g>
    </g>
   </g>
  </g>
 </g>
 <defs>
  <clipPath id="pc16c801740">
   <rect x="57.6" y="41.472" width="357.12" height="266.112"/>
  </clipPath>
 </defs>
</svg>
