<?xml version="1.0" encoding="utf-8" standalone="no"?>
<!DOCTYPE svg PUBLIC "-//W3C//DTD SVG 1.1//EN"
  "http://www.w3.org/Graphics/SVG/1.1/DTD/svg11.dtd">
<svg xmlns:xlink="http://www.w3.org/1999/xlink" width="460.8pt" height="345.6pt" viewBox="0 0 460.8 345.6" xmlns="http://www.w3.org/2000/svg" version="1.1">
 <metadata>
  <rdf:RDF xmlns:dc="http://purl.org/dc/elements/1.1/" xmlns:cc="http://creativecommons.org/ns#" xmlns:rdf="http://www.w3.org/1999/02/22-rdf-syntax-ns#">
   <cc:Work>
    <dc:type rdf:resource="http://purl.org/dc/dcmitype/StillImage"/>
    <dc:date>2025-03-11T10:08:26.226986</dc:date>
    <dc:format>image/svg+xml</dc:format>
    <dc:creator>
     <cc:Agent>
      <dc:title>Matplotlib v3.9.1, https://matplotlib.org/</dc:title>
     </cc:Agent>
    </dc:creator>
   </cc:Work>
  </rdf:RDF>
 </metadata>
 <defs>
  <style type="text/css">*{stroke-linejoin: round; stroke-linecap: butt}</style>
 </defs>
 <g id="figure_1">
  <g id="patch_1">
   <path d="M 0 345.6 
L 460.8 345.6 
L 460.8 0 
L 0 0 
z
" style="fill: #ffffff"/>
  </g>
  <g id="axes_1">
   <g id="patch_2">
    <path d="M 57.6 307.584 
L 414.72 307.584 
L 414.72 41.472 
L 57.6 41.472 
z
" style="fill: #ffffff"/>
   </g>
   <g id="matplotlib.axis_1">
    <g id="xtick_1">
     <g id="line2d_1">
      <defs>
       <path id="m6bed181031" d="M 0 0 
L 0 3.5 
" style="stroke: #000000; stroke-width: 0.8"/>
      </defs>
      <g>
       <use xlink:href="#m6bed181031" x="73.832727" y="307.584" style="stroke: #000000; stroke-width: 0.8"/>
      </g>
     </g>
     <g id="text_1">
      <!-- 1 -->
      <g transform="translate(70.651477 322.182437) scale(0.1 -0.1)">
       <defs>
        <path id="DejaVuSans-31" d="M 794 531 
L 1825 531 
L 1825 4091 
L 703 3866 
L 703 4441 
L 1819 4666 
L 2450 4666 
L 2450 531 
L 3481 531 
L 3481 0 
L 794 0 
L 794 531 
z
" transform="scale(0.015625)"/>
       </defs>
       <use xlink:href="#DejaVuSans-31"/>
      </g>
     </g>
    </g>
    <g id="xtick_2">
     <g id="line2d_2">
      <g>
       <use xlink:href="#m6bed181031" x="109.664165" y="307.584" style="stroke: #000000; stroke-width: 0.8"/>
      </g>
     </g>
     <g id="text_2">
      <!-- 34 -->
      <g transform="translate(103.301665 322.182437) scale(0.1 -0.1)">
       <defs>
        <path id="DejaVuSans-33" d="M 2597 2516 
Q 3050 2419 3304 2112 
Q 3559 1806 3559 1356 
Q 3559 666 3084 287 
Q 2609 -91 1734 -91 
Q 1441 -91 1130 -33 
Q 819 25 488 141 
L 488 750 
Q 750 597 1062 519 
Q 1375 441 1716 441 
Q 2309 441 2620 675 
Q 2931 909 2931 1356 
Q 2931 1769 2642 2001 
Q 2353 2234 1838 2234 
L 1294 2234 
L 1294 2753 
L 1863 2753 
Q 2328 2753 2575 2939 
Q 2822 3125 2822 3475 
Q 2822 3834 2567 4026 
Q 2313 4219 1838 4219 
Q 1578 4219 1281 4162 
Q 984 4106 628 3988 
L 628 4550 
Q 988 4650 1302 4700 
Q 1616 4750 1894 4750 
Q 2613 4750 3031 4423 
Q 3450 4097 3450 3541 
Q 3450 3153 3228 2886 
Q 3006 2619 2597 2516 
z
" transform="scale(0.015625)"/>
        <path id="DejaVuSans-34" d="M 2419 4116 
L 825 1625 
L 2419 1625 
L 2419 4116 
z
M 2253 4666 
L 3047 4666 
L 3047 1625 
L 3713 1625 
L 3713 1100 
L 3047 1100 
L 3047 0 
L 2419 0 
L 2419 1100 
L 313 1100 
L 313 1709 
L 2253 4666 
z
" transform="scale(0.015625)"/>
       </defs>
       <use xlink:href="#DejaVuSans-33"/>
       <use xlink:href="#DejaVuSans-34" x="63.623047"/>
      </g>
     </g>
    </g>
    <g id="xtick_3">
     <g id="line2d_3">
      <g>
       <use xlink:href="#m6bed181031" x="145.495604" y="307.584" style="stroke: #000000; stroke-width: 0.8"/>
      </g>
     </g>
     <g id="text_3">
      <!-- 67 -->
      <g transform="translate(139.133104 322.182437) scale(0.1 -0.1)">
       <defs>
        <path id="DejaVuSans-36" d="M 2113 2584 
Q 1688 2584 1439 2293 
Q 1191 2003 1191 1497 
Q 1191 994 1439 701 
Q 1688 409 2113 409 
Q 2538 409 2786 701 
Q 3034 994 3034 1497 
Q 3034 2003 2786 2293 
Q 2538 2584 2113 2584 
z
M 3366 4563 
L 3366 3988 
Q 3128 4100 2886 4159 
Q 2644 4219 2406 4219 
Q 1781 4219 1451 3797 
Q 1122 3375 1075 2522 
Q 1259 2794 1537 2939 
Q 1816 3084 2150 3084 
Q 2853 3084 3261 2657 
Q 3669 2231 3669 1497 
Q 3669 778 3244 343 
Q 2819 -91 2113 -91 
Q 1303 -91 875 529 
Q 447 1150 447 2328 
Q 447 3434 972 4092 
Q 1497 4750 2381 4750 
Q 2619 4750 2861 4703 
Q 3103 4656 3366 4563 
z
" transform="scale(0.015625)"/>
        <path id="DejaVuSans-37" d="M 525 4666 
L 3525 4666 
L 3525 4397 
L 1831 0 
L 1172 0 
L 2766 4134 
L 525 4134 
L 525 4666 
z
" transform="scale(0.015625)"/>
       </defs>
       <use xlink:href="#DejaVuSans-36"/>
       <use xlink:href="#DejaVuSans-37" x="63.623047"/>
      </g>
     </g>
    </g>
    <g id="xtick_4">
     <g id="line2d_4">
      <g>
       <use xlink:href="#m6bed181031" x="181.327042" y="307.584" style="stroke: #000000; stroke-width: 0.8"/>
      </g>
     </g>
     <g id="text_4">
      <!-- 100 -->
      <g transform="translate(171.783292 322.182437) scale(0.1 -0.1)">
       <defs>
        <path id="DejaVuSans-30" d="M 2034 4250 
Q 1547 4250 1301 3770 
Q 1056 3291 1056 2328 
Q 1056 1369 1301 889 
Q 1547 409 2034 409 
Q 2525 409 2770 889 
Q 3016 1369 3016 2328 
Q 3016 3291 2770 3770 
Q 2525 4250 2034 4250 
z
M 2034 4750 
Q 2819 4750 3233 4129 
Q 3647 3509 3647 2328 
Q 3647 1150 3233 529 
Q 2819 -91 2034 -91 
Q 1250 -91 836 529 
Q 422 1150 422 2328 
Q 422 3509 836 4129 
Q 1250 4750 2034 4750 
z
" transform="scale(0.015625)"/>
       </defs>
       <use xlink:href="#DejaVuSans-31"/>
       <use xlink:href="#DejaVuSans-30" x="63.623047"/>
       <use xlink:href="#DejaVuSans-30" x="127.246094"/>
      </g>
     </g>
    </g>
    <g id="xtick_5">
     <g id="line2d_5">
      <g>
       <use xlink:href="#m6bed181031" x="217.15848" y="307.584" style="stroke: #000000; stroke-width: 0.8"/>
      </g>
     </g>
     <g id="text_5">
      <!-- 133 -->
      <g transform="translate(207.61473 322.182437) scale(0.1 -0.1)">
       <use xlink:href="#DejaVuSans-31"/>
       <use xlink:href="#DejaVuSans-33" x="63.623047"/>
       <use xlink:href="#DejaVuSans-33" x="127.246094"/>
      </g>
     </g>
    </g>
    <g id="xtick_6">
     <g id="line2d_6">
      <g>
       <use xlink:href="#m6bed181031" x="254.075719" y="307.584" style="stroke: #000000; stroke-width: 0.8"/>
      </g>
     </g>
     <g id="text_6">
      <!-- 167 -->
      <g transform="translate(244.531969 322.182437) scale(0.1 -0.1)">
       <use xlink:href="#DejaVuSans-31"/>
       <use xlink:href="#DejaVuSans-36" x="63.623047"/>
       <use xlink:href="#DejaVuSans-37" x="127.246094"/>
      </g>
     </g>
    </g>
    <g id="xtick_7">
     <g id="line2d_7">
      <g>
       <use xlink:href="#m6bed181031" x="289.907157" y="307.584" style="stroke: #000000; stroke-width: 0.8"/>
      </g>
     </g>
     <g id="text_7">
      <!-- 200 -->
      <g transform="translate(280.363407 322.182437) scale(0.1 -0.1)">
       <defs>
        <path id="DejaVuSans-32" d="M 1228 531 
L 3431 531 
L 3431 0 
L 469 0 
L 469 531 
Q 828 903 1448 1529 
Q 2069 2156 2228 2338 
Q 2531 2678 2651 2914 
Q 2772 3150 2772 3378 
Q 2772 3750 2511 3984 
Q 2250 4219 1831 4219 
Q 1534 4219 1204 4116 
Q 875 4013 500 3803 
L 500 4441 
Q 881 4594 1212 4672 
Q 1544 4750 1819 4750 
Q 2544 4750 2975 4387 
Q 3406 4025 3406 3419 
Q 3406 3131 3298 2873 
Q 3191 2616 2906 2266 
Q 2828 2175 2409 1742 
Q 1991 1309 1228 531 
z
" transform="scale(0.015625)"/>
       </defs>
       <use xlink:href="#DejaVuSans-32"/>
       <use xlink:href="#DejaVuSans-30" x="63.623047"/>
       <use xlink:href="#DejaVuSans-30" x="127.246094"/>
      </g>
     </g>
    </g>
    <g id="xtick_8">
     <g id="line2d_8">
      <g>
       <use xlink:href="#m6bed181031" x="325.738595" y="307.584" style="stroke: #000000; stroke-width: 0.8"/>
      </g>
     </g>
     <g id="text_8">
      <!-- 233 -->
      <g transform="translate(316.194845 322.182437) scale(0.1 -0.1)">
       <use xlink:href="#DejaVuSans-32"/>
       <use xlink:href="#DejaVuSans-33" x="63.623047"/>
       <use xlink:href="#DejaVuSans-33" x="127.246094"/>
      </g>
     </g>
    </g>
    <g id="xtick_9">
     <g id="line2d_9">
      <g>
       <use xlink:href="#m6bed181031" x="361.570033" y="307.584" style="stroke: #000000; stroke-width: 0.8"/>
      </g>
     </g>
     <g id="text_9">
      <!-- 266 -->
      <g transform="translate(352.026283 322.182437) scale(0.1 -0.1)">
       <use xlink:href="#DejaVuSans-32"/>
       <use xlink:href="#DejaVuSans-36" x="63.623047"/>
       <use xlink:href="#DejaVuSans-36" x="127.246094"/>
      </g>
     </g>
    </g>
    <g id="xtick_10">
     <g id="line2d_10">
      <g>
       <use xlink:href="#m6bed181031" x="398.487273" y="307.584" style="stroke: #000000; stroke-width: 0.8"/>
      </g>
     </g>
     <g id="text_10">
      <!-- 300 -->
      <g transform="translate(388.943523 322.182437) scale(0.1 -0.1)">
       <use xlink:href="#DejaVuSans-33"/>
       <use xlink:href="#DejaVuSans-30" x="63.623047"/>
       <use xlink:href="#DejaVuSans-30" x="127.246094"/>
      </g>
     </g>
    </g>
    <g id="text_11">
     <!-- Epochs -->
     <g transform="translate(218.244375 335.860562) scale(0.1 -0.1)">
      <defs>
       <path id="DejaVuSans-45" d="M 628 4666 
L 3578 4666 
L 3578 4134 
L 1259 4134 
L 1259 2753 
L 3481 2753 
L 3481 2222 
L 1259 2222 
L 1259 531 
L 3634 531 
L 3634 0 
L 628 0 
L 628 4666 
z
" transform="scale(0.015625)"/>
       <path id="DejaVuSans-70" d="M 1159 525 
L 1159 -1331 
L 581 -1331 
L 581 3500 
L 1159 3500 
L 1159 2969 
Q 1341 3281 1617 3432 
Q 1894 3584 2278 3584 
Q 2916 3584 3314 3078 
Q 3713 2572 3713 1747 
Q 3713 922 3314 415 
Q 2916 -91 2278 -91 
Q 1894 -91 1617 61 
Q 1341 213 1159 525 
z
M 3116 1747 
Q 3116 2381 2855 2742 
Q 2594 3103 2138 3103 
Q 1681 3103 1420 2742 
Q 1159 2381 1159 1747 
Q 1159 1113 1420 752 
Q 1681 391 2138 391 
Q 2594 391 2855 752 
Q 3116 1113 3116 1747 
z
" transform="scale(0.015625)"/>
       <path id="DejaVuSans-6f" d="M 1959 3097 
Q 1497 3097 1228 2736 
Q 959 2375 959 1747 
Q 959 1119 1226 758 
Q 1494 397 1959 397 
Q 2419 397 2687 759 
Q 2956 1122 2956 1747 
Q 2956 2369 2687 2733 
Q 2419 3097 1959 3097 
z
M 1959 3584 
Q 2709 3584 3137 3096 
Q 3566 2609 3566 1747 
Q 3566 888 3137 398 
Q 2709 -91 1959 -91 
Q 1206 -91 779 398 
Q 353 888 353 1747 
Q 353 2609 779 3096 
Q 1206 3584 1959 3584 
z
" transform="scale(0.015625)"/>
       <path id="DejaVuSans-63" d="M 3122 3366 
L 3122 2828 
Q 2878 2963 2633 3030 
Q 2388 3097 2138 3097 
Q 1578 3097 1268 2742 
Q 959 2388 959 1747 
Q 959 1106 1268 751 
Q 1578 397 2138 397 
Q 2388 397 2633 464 
Q 2878 531 3122 666 
L 3122 134 
Q 2881 22 2623 -34 
Q 2366 -91 2075 -91 
Q 1284 -91 818 406 
Q 353 903 353 1747 
Q 353 2603 823 3093 
Q 1294 3584 2113 3584 
Q 2378 3584 2631 3529 
Q 2884 3475 3122 3366 
z
" transform="scale(0.015625)"/>
       <path id="DejaVuSans-68" d="M 3513 2113 
L 3513 0 
L 2938 0 
L 2938 2094 
Q 2938 2591 2744 2837 
Q 2550 3084 2163 3084 
Q 1697 3084 1428 2787 
Q 1159 2491 1159 1978 
L 1159 0 
L 581 0 
L 581 4863 
L 1159 4863 
L 1159 2956 
Q 1366 3272 1645 3428 
Q 1925 3584 2291 3584 
Q 2894 3584 3203 3211 
Q 3513 2838 3513 2113 
z
" transform="scale(0.015625)"/>
       <path id="DejaVuSans-73" d="M 2834 3397 
L 2834 2853 
Q 2591 2978 2328 3040 
Q 2066 3103 1784 3103 
Q 1356 3103 1142 2972 
Q 928 2841 928 2578 
Q 928 2378 1081 2264 
Q 1234 2150 1697 2047 
L 1894 2003 
Q 2506 1872 2764 1633 
Q 3022 1394 3022 966 
Q 3022 478 2636 193 
Q 2250 -91 1575 -91 
Q 1294 -91 989 -36 
Q 684 19 347 128 
L 347 722 
Q 666 556 975 473 
Q 1284 391 1588 391 
Q 1994 391 2212 530 
Q 2431 669 2431 922 
Q 2431 1156 2273 1281 
Q 2116 1406 1581 1522 
L 1381 1569 
Q 847 1681 609 1914 
Q 372 2147 372 2553 
Q 372 3047 722 3315 
Q 1072 3584 1716 3584 
Q 2034 3584 2315 3537 
Q 2597 3491 2834 3397 
z
" transform="scale(0.015625)"/>
      </defs>
      <use xlink:href="#DejaVuSans-45"/>
      <use xlink:href="#DejaVuSans-70" x="63.183594"/>
      <use xlink:href="#DejaVuSans-6f" x="126.660156"/>
      <use xlink:href="#DejaVuSans-63" x="187.841797"/>
      <use xlink:href="#DejaVuSans-68" x="242.822266"/>
      <use xlink:href="#DejaVuSans-73" x="306.201172"/>
     </g>
    </g>
   </g>
   <g id="matplotlib.axis_2">
    <g id="ytick_1">
     <g id="line2d_11">
      <defs>
       <path id="m35206d9f77" d="M 0 0 
L -3.5 0 
" style="stroke: #000000; stroke-width: 0.8"/>
      </defs>
      <g>
       <use xlink:href="#m35206d9f77" x="57.6" y="280.651795" style="stroke: #000000; stroke-width: 0.8"/>
      </g>
     </g>
     <g id="text_12">
      <!-- 10 -->
      <g transform="translate(37.875 284.451014) scale(0.1 -0.1)">
       <use xlink:href="#DejaVuSans-31"/>
       <use xlink:href="#DejaVuSans-30" x="63.623047"/>
      </g>
     </g>
    </g>
    <g id="ytick_2">
     <g id="line2d_12">
      <g>
       <use xlink:href="#m35206d9f77" x="57.6" y="246.088709" style="stroke: #000000; stroke-width: 0.8"/>
      </g>
     </g>
     <g id="text_13">
      <!-- 20 -->
      <g transform="translate(37.875 249.887928) scale(0.1 -0.1)">
       <use xlink:href="#DejaVuSans-32"/>
       <use xlink:href="#DejaVuSans-30" x="63.623047"/>
      </g>
     </g>
    </g>
    <g id="ytick_3">
     <g id="line2d_13">
      <g>
       <use xlink:href="#m35206d9f77" x="57.6" y="211.525623" style="stroke: #000000; stroke-width: 0.8"/>
      </g>
     </g>
     <g id="text_14">
      <!-- 30 -->
      <g transform="translate(37.875 215.324842) scale(0.1 -0.1)">
       <use xlink:href="#DejaVuSans-33"/>
       <use xlink:href="#DejaVuSans-30" x="63.623047"/>
      </g>
     </g>
    </g>
    <g id="ytick_4">
     <g id="line2d_14">
      <g>
       <use xlink:href="#m35206d9f77" x="57.6" y="176.962537" style="stroke: #000000; stroke-width: 0.8"/>
      </g>
     </g>
     <g id="text_15">
      <!-- 40 -->
      <g transform="translate(37.875 180.761756) scale(0.1 -0.1)">
       <use xlink:href="#DejaVuSans-34"/>
       <use xlink:href="#DejaVuSans-30" x="63.623047"/>
      </g>
     </g>
    </g>
    <g id="ytick_5">
     <g id="line2d_15">
      <g>
       <use xlink:href="#m35206d9f77" x="57.6" y="142.399451" style="stroke: #000000; stroke-width: 0.8"/>
      </g>
     </g>
     <g id="text_16">
      <!-- 50 -->
      <g transform="translate(37.875 146.19867) scale(0.1 -0.1)">
       <defs>
        <path id="DejaVuSans-35" d="M 691 4666 
L 3169 4666 
L 3169 4134 
L 1269 4134 
L 1269 2991 
Q 1406 3038 1543 3061 
Q 1681 3084 1819 3084 
Q 2600 3084 3056 2656 
Q 3513 2228 3513 1497 
Q 3513 744 3044 326 
Q 2575 -91 1722 -91 
Q 1428 -91 1123 -41 
Q 819 9 494 109 
L 494 744 
Q 775 591 1075 516 
Q 1375 441 1709 441 
Q 2250 441 2565 725 
Q 2881 1009 2881 1497 
Q 2881 1984 2565 2268 
Q 2250 2553 1709 2553 
Q 1456 2553 1204 2497 
Q 953 2441 691 2322 
L 691 4666 
z
" transform="scale(0.015625)"/>
       </defs>
       <use xlink:href="#DejaVuSans-35"/>
       <use xlink:href="#DejaVuSans-30" x="63.623047"/>
      </g>
     </g>
    </g>
    <g id="ytick_6">
     <g id="line2d_16">
      <g>
       <use xlink:href="#m35206d9f77" x="57.6" y="107.836365" style="stroke: #000000; stroke-width: 0.8"/>
      </g>
     </g>
     <g id="text_17">
      <!-- 60 -->
      <g transform="translate(37.875 111.635584) scale(0.1 -0.1)">
       <use xlink:href="#DejaVuSans-36"/>
       <use xlink:href="#DejaVuSans-30" x="63.623047"/>
      </g>
     </g>
    </g>
    <g id="ytick_7">
     <g id="line2d_17">
      <g>
       <use xlink:href="#m35206d9f77" x="57.6" y="73.273279" style="stroke: #000000; stroke-width: 0.8"/>
      </g>
     </g>
     <g id="text_18">
      <!-- 70 -->
      <g transform="translate(37.875 77.072498) scale(0.1 -0.1)">
       <use xlink:href="#DejaVuSans-37"/>
       <use xlink:href="#DejaVuSans-30" x="63.623047"/>
      </g>
     </g>
    </g>
    <g id="text_19">
     <!-- Accuracy -->
     <g transform="translate(31.795312 197.356125) rotate(-90) scale(0.1 -0.1)">
      <defs>
       <path id="DejaVuSans-41" d="M 2188 4044 
L 1331 1722 
L 3047 1722 
L 2188 4044 
z
M 1831 4666 
L 2547 4666 
L 4325 0 
L 3669 0 
L 3244 1197 
L 1141 1197 
L 716 0 
L 50 0 
L 1831 4666 
z
" transform="scale(0.015625)"/>
       <path id="DejaVuSans-75" d="M 544 1381 
L 544 3500 
L 1119 3500 
L 1119 1403 
Q 1119 906 1312 657 
Q 1506 409 1894 409 
Q 2359 409 2629 706 
Q 2900 1003 2900 1516 
L 2900 3500 
L 3475 3500 
L 3475 0 
L 2900 0 
L 2900 538 
Q 2691 219 2414 64 
Q 2138 -91 1772 -91 
Q 1169 -91 856 284 
Q 544 659 544 1381 
z
M 1991 3584 
L 1991 3584 
z
" transform="scale(0.015625)"/>
       <path id="DejaVuSans-72" d="M 2631 2963 
Q 2534 3019 2420 3045 
Q 2306 3072 2169 3072 
Q 1681 3072 1420 2755 
Q 1159 2438 1159 1844 
L 1159 0 
L 581 0 
L 581 3500 
L 1159 3500 
L 1159 2956 
Q 1341 3275 1631 3429 
Q 1922 3584 2338 3584 
Q 2397 3584 2469 3576 
Q 2541 3569 2628 3553 
L 2631 2963 
z
" transform="scale(0.015625)"/>
       <path id="DejaVuSans-61" d="M 2194 1759 
Q 1497 1759 1228 1600 
Q 959 1441 959 1056 
Q 959 750 1161 570 
Q 1363 391 1709 391 
Q 2188 391 2477 730 
Q 2766 1069 2766 1631 
L 2766 1759 
L 2194 1759 
z
M 3341 1997 
L 3341 0 
L 2766 0 
L 2766 531 
Q 2569 213 2275 61 
Q 1981 -91 1556 -91 
Q 1019 -91 701 211 
Q 384 513 384 1019 
Q 384 1609 779 1909 
Q 1175 2209 1959 2209 
L 2766 2209 
L 2766 2266 
Q 2766 2663 2505 2880 
Q 2244 3097 1772 3097 
Q 1472 3097 1187 3025 
Q 903 2953 641 2809 
L 641 3341 
Q 956 3463 1253 3523 
Q 1550 3584 1831 3584 
Q 2591 3584 2966 3190 
Q 3341 2797 3341 1997 
z
" transform="scale(0.015625)"/>
       <path id="DejaVuSans-79" d="M 2059 -325 
Q 1816 -950 1584 -1140 
Q 1353 -1331 966 -1331 
L 506 -1331 
L 506 -850 
L 844 -850 
Q 1081 -850 1212 -737 
Q 1344 -625 1503 -206 
L 1606 56 
L 191 3500 
L 800 3500 
L 1894 763 
L 2988 3500 
L 3597 3500 
L 2059 -325 
z
" transform="scale(0.015625)"/>
      </defs>
      <use xlink:href="#DejaVuSans-41"/>
      <use xlink:href="#DejaVuSans-63" x="66.658203"/>
      <use xlink:href="#DejaVuSans-63" x="121.638672"/>
      <use xlink:href="#DejaVuSans-75" x="176.619141"/>
      <use xlink:href="#DejaVuSans-72" x="239.998047"/>
      <use xlink:href="#DejaVuSans-61" x="281.111328"/>
      <use xlink:href="#DejaVuSans-63" x="342.390625"/>
      <use xlink:href="#DejaVuSans-79" x="397.371094"/>
     </g>
    </g>
   </g>
   <g id="line2d_18">
    <path d="M 73.832727 295.488 
L 74.918528 265.867435 
L 76.00433 244.140215 
L 77.090131 227.256148 
L 78.175932 213.422273 
L 79.261733 201.623299 
L 81.433335 185.179911 
L 83.604938 168.948222 
L 84.690739 164.709923 
L 85.77654 159.166868 
L 86.862341 152.612843 
L 87.948142 149.299107 
L 89.033943 144.40411 
L 90.119745 141.129258 
L 91.205546 137.016251 
L 92.291347 133.966058 
L 93.377148 133.525379 
L 94.462949 132.017564 
L 95.54875 163.677351 
L 96.634552 161.417789 
L 100.977756 149.908282 
L 102.063557 146.369886 
L 103.149358 143.747412 
L 104.23516 141.608821 
L 105.320961 139.185084 
L 106.406762 136.33795 
L 107.492563 135.236252 
L 109.664165 128.885285 
L 110.749967 127.813829 
L 111.835768 124.754996 
L 112.921569 122.875628 
L 114.00737 120.123542 
L 115.093171 118.926796 
L 116.178972 116.06238 
L 117.264773 113.850342 
L 118.350575 112.649275 
L 119.436376 110.281704 
L 120.522177 109.737335 
L 122.693779 104.18996 
L 123.77958 103.226514 
L 127.036984 96.897149 
L 128.122785 95.134431 
L 129.208586 94.192587 
L 130.294387 92.239773 
L 133.551791 88.39895 
L 134.637592 88.351426 
L 136.809194 87.599679 
L 137.894995 87.703368 
L 138.980797 124.418006 
L 140.066598 127.15281 
L 141.152399 124.716113 
L 142.2382 125.014219 
L 143.324001 124.340239 
L 144.409802 123.199657 
L 145.495604 121.791211 
L 146.581405 121.341891 
L 147.667206 120.175387 
L 148.753007 118.771262 
L 149.838808 117.570194 
L 150.924609 117.241845 
L 152.01041 116.053739 
L 153.096212 113.504711 
L 154.182013 112.70544 
L 155.267814 113.893546 
L 156.353615 112.4851 
L 157.439416 111.690149 
L 158.525217 110.320587 
L 159.611019 108.6702 
L 160.69682 108.67452 
L 161.782621 107.136463 
L 162.868422 107.032774 
L 163.954223 106.557531 
L 165.040024 105.0886 
L 166.125825 103.390688 
L 167.211627 103.939377 
L 168.297428 102.012485 
L 169.383229 101.761903 
L 170.46903 100.05103 
L 171.554831 99.614671 
L 172.640632 98.767876 
L 173.726434 97.6921 
L 174.812235 96.370062 
L 175.898036 95.743606 
L 176.983837 94.482053 
L 178.069638 94.529577 
L 179.155439 92.939675 
L 180.24124 92.598365 
L 181.327042 91.017104 
L 182.412843 90.852929 
L 183.498644 89.828998 
L 184.584445 88.476717 
L 185.670246 87.820018 
L 187.841849 86.091864 
L 188.92765 84.329147 
L 190.013451 83.534196 
L 191.099252 82.492983 
L 192.185053 82.004779 
L 194.356656 80.095168 
L 195.442457 79.412548 
L 196.528258 78.125073 
L 197.614059 76.029686 
L 198.69986 76.288909 
L 199.785661 75.718618 
L 200.871462 75.735899 
L 201.957264 73.441774 
L 203.043065 72.106775 
L 204.128866 71.415514 
L 205.214667 70.007068 
L 206.300468 70.007068 
L 207.386269 68.970175 
L 208.472071 68.529496 
L 209.557872 66.416827 
L 211.729474 66.300177 
L 212.815275 65.263284 
L 213.901076 65.803332 
L 214.986877 64.675712 
L 216.072679 64.256634 
L 217.15848 64.144304 
L 218.244281 62.269257 
L 219.330082 63.163577 
L 220.415883 61.824257 
L 221.501684 62.537121 
L 222.587486 61.988432 
L 223.673287 61.819937 
L 224.759088 62.092121 
L 225.844889 104.673843 
L 226.93069 109.305297 
L 228.016491 108.367773 
L 229.102292 110.623014 
L 230.188094 108.713404 
L 231.273895 108.791171 
L 232.359696 107.611705 
L 233.445497 107.205589 
L 234.531298 106.42792 
L 235.617099 106.838356 
L 236.702901 105.680493 
L 237.788702 104.894183 
L 238.874503 104.583115 
L 239.960304 104.561513 
L 241.046105 103.917776 
L 242.131906 103.623989 
L 243.217708 101.930398 
L 244.303509 103.213553 
L 245.38931 101.450835 
L 246.475111 101.913117 
L 247.560912 100.189283 
L 248.646713 100.988554 
L 249.732514 99.701079 
L 250.818316 100.876224 
L 251.904117 100.292972 
L 252.989918 99.921419 
L 254.075719 99.26472 
L 255.16152 98.893167 
L 256.247321 98.750594 
L 257.333123 97.869235 
L 258.418924 98.210546 
L 259.504725 97.424236 
L 260.590526 97.104527 
L 261.676327 96.581761 
L 262.762128 95.626955 
L 263.847929 96.275013 
L 264.933731 95.670159 
L 266.019532 96.145402 
L 268.191134 94.101859 
L 269.276935 95.592392 
L 270.362736 93.872879 
L 271.448538 92.99584 
L 272.534339 93.32419 
L 273.62014 92.170647 
L 274.705941 91.626278 
L 275.791742 91.902783 
L 276.877543 90.775162 
L 277.963344 91.660841 
L 279.049146 90.623949 
L 280.134947 90.485696 
L 281.220748 89.768512 
L 282.306549 89.669143 
L 283.39235 90.001813 
L 284.478151 89.258707 
L 285.563953 88.675455 
L 286.649754 88.61929 
L 287.735555 87.897785 
L 288.821356 86.752883 
L 289.907157 87.72497 
L 290.992958 87.638562 
L 292.07876 87.102834 
L 294.250362 85.197544 
L 295.336163 85.534534 
L 296.421964 85.430845 
L 297.507765 83.257691 
L 298.593566 83.607642 
L 299.679368 84.419875 
L 300.765169 83.633564 
L 301.85097 83.080555 
L 302.936771 81.615944 
L 304.022572 81.844925 
L 305.108373 81.853565 
L 306.194175 80.820993 
L 307.279976 80.34143 
L 308.365777 81.019731 
L 309.451578 78.531189 
L 310.537379 78.984829 
L 312.708981 78.20284 
L 313.794783 77.999781 
L 314.880584 78.142354 
L 315.966385 75.601967 
L 317.052186 78.112111 
L 318.137987 76.046967 
L 319.223788 75.07488 
L 320.30959 75.770462 
L 321.395391 74.789735 
L 322.481192 74.137357 
L 323.566993 73.666435 
L 324.652794 73.536823 
L 325.738595 73.078862 
L 327.910198 71.618572 
L 328.995999 71.355028 
L 330.0818 72.171581 
L 331.167601 69.341728 
L 332.253402 69.570709 
L 333.339203 69.307165 
L 334.425005 68.862166 
L 335.510806 67.807991 
L 336.596607 66.952555 
L 337.682408 68.192506 
L 338.768209 66.166245 
L 339.85401 66.33042 
L 340.939811 66.274254 
L 342.025613 65.397216 
L 343.111414 64.87877 
L 344.197215 64.023334 
L 345.283016 62.740179 
L 346.368817 63.448722 
L 347.454618 62.105082 
L 348.54042 62.277898 
L 349.626221 59.746152 
L 350.712022 61.266927 
L 351.797823 59.767754 
L 352.883624 60.001054 
L 353.969425 60.001054 
L 355.055227 58.017997 
L 356.141028 57.663726 
L 357.226829 57.495231 
L 359.398431 57.417464 
L 360.484232 56.436736 
L 361.570033 56.039261 
L 362.655835 56.160231 
L 363.741636 54.967805 
L 365.913238 53.568 
L 366.999039 53.766738 
L 368.08484 54.159893 
L 369.170642 56.769406 
L 370.256443 56.886056 
L 371.342244 59.763433 
L 372.428045 59.810957 
L 373.513846 59.988093 
L 374.599647 60.796005 
L 375.685448 60.869452 
L 376.77125 62.010034 
L 377.857051 61.158918 
L 378.942852 61.284209 
L 380.028653 61.206442 
L 381.114454 61.482947 
L 382.200255 60.545423 
L 383.286057 61.413821 
L 384.371858 61.422461 
L 385.457659 60.562705 
L 386.54346 60.878093 
L 387.629261 60.834889 
L 388.715062 62.295179 
L 389.800863 61.340374 
L 390.886665 62.342703 
L 391.972466 61.132995 
L 393.058267 62.597606 
L 394.144068 61.327413 
L 395.229869 61.202122 
L 396.31567 62.174208 
L 397.401472 62.239014 
L 398.487273 61.660083 
L 398.487273 61.660083 
" clip-path="url(#p8eb3cd950a)" style="fill: none; stroke: #1f77b4; stroke-width: 1.5; stroke-linecap: square"/>
   </g>
   <g id="line2d_19">
    <path d="M 73.832727 275.916653 
L 74.918528 250.270843 
L 76.00433 241.422693 
L 77.090131 220.753967 
L 78.175932 210.385042 
L 79.261733 203.213201 
L 80.347534 191.046995 
L 81.433335 192.706023 
L 82.519137 178.707973 
L 83.604938 172.763122 
L 84.690739 169.790697 
L 85.77654 161.65109 
L 86.862341 159.611868 
L 87.948142 153.304105 
L 89.033943 148.136924 
L 90.119745 145.510129 
L 91.205546 144.576926 
L 92.291347 144.248576 
L 93.377148 141.25887 
L 94.462949 141.120617 
L 95.54875 177.083508 
L 96.634552 167.526815 
L 97.720353 165.556719 
L 98.806154 157.935559 
L 99.891955 172.797686 
L 100.977756 156.535754 
L 102.063557 150.798281 
L 103.149358 152.163523 
L 105.320961 147.255565 
L 106.406762 139.098677 
L 107.492563 141.397122 
L 108.578364 138.614793 
L 109.664165 137.716153 
L 110.749967 132.186059 
L 111.835768 133.395767 
L 112.921569 131.131885 
L 114.00737 132.237904 
L 115.093171 129.317323 
L 116.178972 123.251502 
L 117.264773 125.377132 
L 118.350575 120.486455 
L 119.436376 122.249172 
L 120.522177 119.328591 
L 121.607978 114.852672 
L 122.693779 113.193644 
L 123.77958 112.433256 
L 124.865382 108.976947 
L 125.951183 106.66122 
L 127.036984 107.335201 
L 128.122785 107.196948 
L 130.294387 102.444524 
L 132.46599 99.230157 
L 133.551791 99.679477 
L 134.637592 98.245109 
L 135.723393 98.469769 
L 136.809194 97.951323 
L 137.894995 98.055012 
L 138.980797 137.750716 
L 140.066598 136.178096 
L 141.152399 141.224306 
L 142.2382 139.444308 
L 143.324001 132.030526 
L 144.409802 140.792268 
L 145.495604 131.321982 
L 146.581405 128.228586 
L 147.667206 137.958095 
L 148.753007 127.399072 
L 149.838808 126.500432 
L 150.924609 131.650332 
L 152.01041 122.663929 
L 153.096212 125.066064 
L 154.182013 128.919848 
L 155.267814 122.491114 
L 156.353615 121.471503 
L 157.439416 126.655966 
L 158.525217 120.98762 
L 159.611019 122.370143 
L 161.782621 117.652282 
L 162.868422 116.235195 
L 163.954223 112.744324 
L 165.040024 114.420633 
L 166.125825 117.85966 
L 167.211627 113.48743 
L 168.297428 118.86199 
L 169.383229 114.662575 
L 170.46903 112.778887 
L 171.554831 108.873258 
L 172.640632 106.056366 
L 173.726434 112.744324 
L 174.812235 110.566849 
L 175.898036 106.298308 
L 176.983837 102.945689 
L 179.155439 105.054037 
L 180.24124 102.721029 
L 181.327042 101.563165 
L 182.412843 101.062001 
L 183.498644 99.835011 
L 184.584445 98.383361 
L 185.670246 99.71404 
L 186.756047 97.156372 
L 187.841849 97.674818 
L 188.92765 95.186276 
L 190.013451 93.613656 
L 191.099252 93.060646 
L 192.185053 89.949968 
L 193.270854 91.4189 
L 194.356656 88.96492 
L 195.442457 88.96492 
L 196.528258 89.673464 
L 197.614059 91.436181 
L 198.69986 87.029388 
L 199.785661 86.873854 
L 200.871462 85.560456 
L 201.957264 83.849584 
L 203.043065 84.177933 
L 204.128866 83.24473 
L 205.214667 85.024729 
L 206.300468 80.168615 
L 207.386269 81.240071 
L 208.472071 80.998129 
L 209.557872 79.390946 
L 210.643673 80.842595 
L 211.729474 80.617935 
L 212.815275 78.405898 
L 213.901076 77.489976 
L 214.986877 76.729588 
L 216.072679 77.64551 
L 217.15848 77.369005 
L 218.244281 75.502598 
L 219.330082 76.764151 
L 220.415883 76.677743 
L 221.501684 76.712306 
L 222.587486 76.245705 
L 223.673287 76.332113 
L 224.759088 76.176579 
L 225.844889 123.528006 
L 226.93069 121.782571 
L 228.016491 123.666259 
L 229.102292 118.291699 
L 230.188094 122.7849 
L 231.273895 126.051112 
L 232.359696 119.881601 
L 233.445497 119.950727 
L 234.531298 124.875967 
L 235.617099 115.578497 
L 236.702901 114.662575 
L 237.788702 117.479466 
L 238.874503 119.829756 
L 239.960304 111.534616 
L 241.046105 117.531311 
L 242.131906 118.913834 
L 243.217708 120.071698 
L 244.303509 110.566849 
L 245.38931 114.437915 
L 247.560912 111.258111 
L 248.646713 113.48743 
L 249.732514 112.277722 
L 250.818316 114.38607 
L 252.989918 119.933445 
L 254.075719 117.600437 
L 255.16152 113.280051 
L 256.247321 113.089954 
L 257.333123 110.68782 
L 258.418924 109.910151 
L 259.504725 108.769569 
L 260.590526 115.077332 
L 261.676327 112.381411 
L 262.762128 111.966654 
L 263.847929 106.851317 
L 264.933731 109.547238 
L 266.019532 103.18763 
L 267.105333 108.614035 
L 268.191134 107.369764 
L 269.276935 105.054037 
L 270.362736 107.456171 
L 271.448538 104.777532 
L 272.534339 108.199278 
L 273.62014 104.41462 
L 274.705941 107.041414 
L 275.791742 107.819084 
L 276.877543 112.053062 
L 277.963344 109.478112 
L 280.134947 102.530932 
L 281.220748 101.476758 
L 282.306549 108.735006 
L 283.39235 110.46316 
L 284.478151 103.135786 
L 285.563953 100.025108 
L 286.649754 103.41229 
L 287.735555 100.197923 
L 288.821356 103.844329 
L 290.992958 99.126468 
L 292.07876 100.785496 
L 293.164561 98.175983 
L 294.250362 97.882197 
L 295.336163 104.933066 
L 296.421964 97.951323 
L 297.507765 101.044719 
L 298.593566 97.398313 
L 299.679368 103.861611 
L 300.765169 95.01346 
L 301.85097 101.234816 
L 302.936771 97.311906 
L 304.022572 95.030742 
L 305.108373 91.98919 
L 306.194175 95.220839 
L 308.365777 90.814046 
L 309.451578 95.652878 
L 310.537379 92.179287 
L 311.62318 98.659866 
L 312.708981 91.349773 
L 313.794783 90.762201 
L 314.880584 92.576763 
L 315.966385 93.993849 
L 317.052186 96.948993 
L 318.137987 90.41657 
L 319.223788 89.172299 
L 320.30959 90.399289 
L 321.395391 90.105502 
L 322.481192 91.021424 
L 323.566993 85.664146 
L 324.652794 86.182592 
L 325.738595 91.073269 
L 326.824396 86.510941 
L 327.910198 84.419875 
L 328.995999 86.873854 
L 330.0818 86.649194 
L 331.167601 89.863561 
L 332.253402 85.975214 
L 333.339203 81.257352 
L 334.425005 80.998129 
L 335.510806 82.363371 
L 336.596607 82.432497 
L 337.682408 83.452108 
L 338.768209 82.79541 
L 339.85401 82.380653 
L 340.939811 81.620265 
L 342.025613 79.684732 
L 343.111414 79.684732 
L 344.197215 80.704343 
L 345.283016 81.222789 
L 346.368817 79.477353 
L 347.454618 79.166286 
L 348.54042 76.97153 
L 349.626221 77.369005 
L 350.712022 77.628228 
L 351.797823 78.509587 
L 352.883624 74.724929 
L 353.969425 75.658132 
L 355.055227 74.431143 
L 356.141028 76.453083 
L 357.226829 74.603958 
L 360.484232 72.391921 
L 361.570033 73.117746 
L 362.655835 73.16959 
L 363.741636 71.320465 
L 364.827437 72.27095 
L 365.913238 72.806678 
L 366.999039 70.525514 
L 368.08484 73.221435 
L 369.170642 73.567066 
L 370.256443 77.714636 
L 371.342244 75.502598 
L 372.428045 80.013081 
L 373.513846 77.801044 
L 374.599647 77.87017 
L 375.685448 80.237741 
L 376.77125 79.563761 
L 377.857051 78.630558 
L 378.942852 79.77114 
L 380.028653 78.941626 
L 381.114454 77.455413 
L 382.200255 77.991141 
L 383.286057 79.822984 
L 384.371858 77.64551 
L 385.457659 78.336771 
L 386.54346 79.356383 
L 387.629261 78.647839 
L 389.800863 80.687061 
L 390.886665 80.808032 
L 391.972466 78.233082 
L 393.058267 78.716965 
L 394.144068 79.943955 
L 395.229869 80.34143 
L 396.31567 78.751529 
L 398.487273 79.494635 
L 398.487273 79.494635 
" clip-path="url(#p8eb3cd950a)" style="fill: none; stroke: #ff7f0e; stroke-width: 1.5; stroke-linecap: square"/>
   </g>
   <g id="line2d_20">
    <path d="M 73.832727 291.30676 
L 74.918528 282.820927 
L 76.00433 275.76529 
L 77.090131 265.420201 
L 78.175932 263.751638 
L 80.347534 255.075112 
L 81.433335 257.649466 
L 82.519137 249.759547 
L 83.604938 253.597242 
L 84.690739 248.281678 
L 85.77654 240.558616 
L 86.862341 244.920715 
L 89.033943 240.749308 
L 90.119745 238.246464 
L 91.205546 234.980849 
L 92.291347 238.365647 
L 93.377148 237.293 
L 94.462949 235.88664 
L 95.54875 253.430386 
L 96.634552 252.500758 
L 97.720353 239.700498 
L 98.806154 241.273714 
L 99.891955 256.338452 
L 100.977756 240.10572 
L 102.063557 236.506392 
L 103.149358 243.895741 
L 104.23516 241.273714 
L 105.320961 242.107995 
L 106.406762 231.52454 
L 107.492563 233.836691 
L 108.578364 228.78333 
L 109.664165 232.287312 
L 110.749967 231.357684 
L 111.835768 238.317974 
L 112.921569 231.119318 
L 114.00737 231.953599 
L 115.093171 229.546101 
L 116.178972 226.709545 
L 117.264773 230.285036 
L 118.350575 226.113629 
L 119.436376 225.303185 
L 120.522177 226.375832 
L 121.607978 222.013732 
L 122.693779 223.253236 
L 123.77958 221.727693 
L 124.865382 219.439378 
L 125.951183 220.631209 
L 127.036984 218.223711 
L 128.122785 219.725418 
L 129.208586 217.556286 
L 130.294387 216.674331 
L 131.380189 216.388292 
L 132.46599 214.743566 
L 134.637592 213.837775 
L 135.723393 212.359905 
L 136.809194 213.361042 
L 137.894995 212.931983 
L 138.980797 238.723197 
L 140.066598 232.382658 
L 141.152399 242.012649 
L 142.2382 237.173817 
L 143.324001 231.476867 
L 144.409802 234.670973 
L 145.495604 227.44848 
L 146.581405 237.197653 
L 147.667206 241.774283 
L 148.753007 226.590362 
L 149.838808 223.849151 
L 150.924609 237.650549 
L 152.01041 227.806029 
L 153.096212 231.548377 
L 154.182013 227.925212 
L 155.267814 225.088655 
L 156.353615 223.15789 
L 157.439416 225.946773 
L 158.525217 224.325883 
L 159.611019 226.947911 
L 160.69682 222.585811 
L 161.782621 225.184001 
L 162.868422 225.160165 
L 165.040024 216.221436 
L 166.125825 221.703856 
L 167.211627 222.061405 
L 168.297428 224.254374 
L 169.383229 216.912697 
L 170.46903 222.681157 
L 171.554831 216.936534 
L 172.640632 219.272522 
L 173.726434 219.820764 
L 174.812235 210.166937 
L 175.898036 216.817351 
L 176.983837 222.490464 
L 178.069638 210.715179 
L 179.155439 212.598271 
L 180.24124 213.480225 
L 181.327042 205.304268 
L 182.412843 209.404165 
L 183.498644 210.452976 
L 184.584445 209.737878 
L 185.670246 217.508613 
L 186.756047 211.287257 
L 187.841849 206.853648 
L 188.92765 207.04434 
L 190.013451 203.301993 
L 191.099252 201.63343 
L 192.185053 207.25887 
L 193.270854 203.516522 
L 194.356656 198.105611 
L 195.442457 204.160111 
L 196.528258 204.469986 
L 197.614059 206.853648 
L 198.69986 200.894495 
L 199.785661 201.037515 
L 200.871462 202.110162 
L 201.957264 201.538083 
L 203.043065 199.106749 
L 204.128866 199.154422 
L 205.214667 198.582344 
L 206.300468 196.675415 
L 207.386269 195.507421 
L 208.472071 196.222519 
L 209.557872 197.509696 
L 210.643673 192.551681 
L 211.729474 193.385962 
L 212.815275 193.862695 
L 213.901076 194.673139 
L 214.986877 193.552819 
L 216.072679 194.220244 
L 217.15848 193.886531 
L 218.244281 192.813884 
L 219.330082 194.148734 
L 220.415883 193.648165 
L 221.501684 195.054525 
L 222.587486 193.672002 
L 223.673287 194.744649 
L 224.759088 193.147596 
L 225.844889 222.180588 
L 226.93069 223.15789 
L 228.016491 223.491602 
L 229.102292 215.005769 
L 230.188094 224.945635 
L 231.273895 223.277073 
L 232.359696 223.110216 
L 233.445497 227.496153 
L 234.531298 227.663009 
L 235.617099 224.897962 
L 236.702901 219.91611 
L 237.788702 224.445067 
L 238.874503 225.303185 
L 239.960304 225.088655 
L 241.046105 220.535862 
L 242.131906 226.566525 
L 243.217708 230.04667 
L 244.303509 213.384879 
L 245.38931 222.061405 
L 246.475111 218.914973 
L 247.560912 221.560837 
L 248.646713 225.303185 
L 249.732514 215.244135 
L 250.818316 220.416679 
L 251.904117 222.085242 
L 252.989918 227.067094 
L 254.075719 219.391705 
L 255.16152 218.462077 
L 256.247321 218.223711 
L 257.333123 216.030743 
L 258.418924 214.767402 
L 259.504725 215.077278 
L 260.590526 216.698168 
L 261.676327 219.129502 
L 262.762128 217.675469 
L 263.847929 213.265696 
L 264.933731 212.050029 
L 266.019532 219.749254 
L 267.105333 214.838912 
L 268.191134 199.249769 
L 270.362736 212.860474 
L 271.448538 210.095427 
L 272.534339 219.081829 
L 273.62014 202.539221 
L 274.705941 209.380328 
L 275.791742 209.666368 
L 276.877543 227.782192 
L 277.963344 214.600546 
L 279.049146 215.387154 
L 280.134947 209.761714 
L 281.220748 207.18736 
L 282.306549 212.050029 
L 283.39235 216.269109 
L 285.563953 212.455251 
L 286.649754 211.763989 
L 287.735555 211.811663 
L 288.821356 206.257732 
L 289.907157 205.304268 
L 290.992958 208.140825 
L 292.07876 212.383741 
L 293.164561 208.260008 
L 294.250362 212.455251 
L 295.336163 215.339481 
L 296.421964 207.807112 
L 297.507765 207.521073 
L 298.593566 209.594858 
L 299.679368 215.62552 
L 300.765169 197.962592 
L 301.85097 214.123814 
L 302.936771 203.754888 
L 304.022572 206.829811 
L 305.108373 197.867245 
L 306.194175 211.40644 
L 308.365777 204.112437 
L 309.451578 211.311094 
L 310.537379 201.776449 
L 311.62318 210.262283 
L 312.708981 200.060213 
L 313.794783 204.827536 
L 314.880584 210.619832 
L 315.966385 203.826398 
L 317.052186 206.114713 
L 318.137987 197.652716 
L 319.223788 205.518797 
L 320.30959 202.82526 
L 321.395391 205.280431 
L 322.481192 207.211197 
L 323.566993 198.963729 
L 324.652794 205.113575 
L 325.738595 198.415487 
L 326.824396 199.631154 
L 327.910198 196.794598 
L 328.995999 203.230483 
L 330.0818 197.795735 
L 331.167601 203.826398 
L 332.253402 195.888807 
L 333.339203 197.34284 
L 334.425005 194.911505 
L 335.510806 200.417763 
L 336.596607 199.583481 
L 337.682408 191.765073 
L 338.768209 202.157835 
L 339.85401 191.64589 
L 340.939811 199.035239 
L 342.025613 197.819572 
L 343.111414 195.197545 
L 344.197215 200.01254 
L 345.283016 199.249769 
L 346.368817 193.147596 
L 347.454618 188.189581 
L 348.54042 189.95349 
L 349.626221 195.507421 
L 350.712022 191.598217 
L 351.797823 193.505145 
L 352.883624 192.194132 
L 353.969425 190.048837 
L 355.055227 188.404111 
L 356.141028 188.904679 
L 357.226829 188.427947 
L 358.31263 190.001164 
L 359.398431 191.216831 
L 360.484232 187.307627 
L 361.570033 187.522156 
L 362.655835 184.566416 
L 363.741636 188.737823 
L 364.827437 190.144183 
L 365.913238 187.045424 
L 366.999039 185.782083 
L 368.08484 189.595941 
L 369.170642 185.496044 
L 370.256443 194.673139 
L 371.342244 187.832032 
L 372.428045 200.15556 
L 373.513846 194.291754 
L 374.599647 196.222519 
L 375.685448 200.29858 
L 376.77125 192.76621 
L 377.857051 191.479033 
L 378.942852 196.484722 
L 380.028653 192.527844 
L 381.114454 189.071536 
L 382.200255 200.322416 
L 383.286057 195.507421 
L 384.371858 192.742374 
L 385.457659 194.792322 
L 386.54346 191.049974 
L 387.629261 194.625466 
L 388.715062 200.15556 
L 389.800863 193.099923 
L 390.886665 200.250906 
L 393.058267 191.812746 
L 394.144068 199.059076 
L 395.229869 200.15556 
L 396.31567 193.266779 
L 397.401472 192.790047 
L 398.487273 199.202095 
L 398.487273 199.202095 
" clip-path="url(#p8eb3cd950a)" style="fill: none; stroke: #2ca02c; stroke-width: 1.5; stroke-linecap: square"/>
   </g>
   <g id="line2d_21">
    <path d="M 368.08484 71.787067 
L 369.170642 73.186872 
L 370.256443 78.077548 
L 371.342244 78.198519 
L 372.428045 79.598324 
L 373.513846 80.134052 
L 374.599647 80.393275 
L 375.685448 83.935991 
L 376.77125 81.326478 
L 377.857051 77.973859 
L 378.942852 81.188226 
L 380.028653 78.958907 
L 381.114454 84.385312 
L 382.200255 80.773469 
L 383.286057 83.953273 
L 385.457659 87.893465 
L 386.54346 84.523564 
L 387.629261 81.79308 
L 388.715062 86.217155 
L 389.800863 88.878513 
L 390.886665 86.925698 
L 391.972466 87.928028 
L 393.058267 87.928028 
L 394.144068 84.800069 
L 395.229869 97.605692 
L 396.31567 102.202582 
L 397.401472 95.048024 
L 398.487273 99.9387 
L 398.487273 99.9387 
" clip-path="url(#p8eb3cd950a)" style="fill: none; stroke: #d62728; stroke-width: 1.5; stroke-linecap: square"/>
   </g>
   <g id="line2d_22">
    <path d="M 368.08484 189.262229 
L 369.170642 190.31104 
L 370.256443 191.64589 
L 372.428045 197.366676 
L 373.513846 194.911505 
L 374.599647 191.026138 
L 375.685448 198.463161 
L 376.77125 197.605043 
L 377.857051 191.121484 
L 378.942852 195.817297 
L 380.028653 195.149872 
L 381.114454 192.813884 
L 382.200255 195.912643 
L 383.286057 193.838858 
L 384.371858 196.270192 
L 385.457659 200.513109 
L 386.54346 190.763935 
L 387.629261 189.238392 
L 388.715062 196.532395 
L 389.800863 188.213418 
L 390.886665 191.908092 
L 391.972466 186.377999 
L 393.058267 202.992117 
L 394.144068 200.29858 
L 395.229869 204.350803 
L 396.31567 204.088601 
L 397.401472 207.354216 
L 398.487273 207.235033 
L 398.487273 207.235033 
" clip-path="url(#p8eb3cd950a)" style="fill: none; stroke: #9467bd; stroke-width: 1.5; stroke-linecap: square"/>
   </g>
   <g id="patch_3">
    <path d="M 57.6 307.584 
L 57.6 41.472 
" style="fill: none; stroke: #000000; stroke-width: 0.8; stroke-linejoin: miter; stroke-linecap: square"/>
   </g>
   <g id="patch_4">
    <path d="M 414.72 307.584 
L 414.72 41.472 
" style="fill: none; stroke: #000000; stroke-width: 0.8; stroke-linejoin: miter; stroke-linecap: square"/>
   </g>
   <g id="patch_5">
    <path d="M 57.6 307.584 
L 414.72 307.584 
" style="fill: none; stroke: #000000; stroke-width: 0.8; stroke-linejoin: miter; stroke-linecap: square"/>
   </g>
   <g id="patch_6">
    <path d="M 57.6 41.472 
L 414.72 41.472 
" style="fill: none; stroke: #000000; stroke-width: 0.8; stroke-linejoin: miter; stroke-linecap: square"/>
   </g>
   <g id="text_20">
    <!-- Learning Curves -->
    <g transform="translate(187.37625 35.472) scale(0.12 -0.12)">
     <defs>
      <path id="DejaVuSans-4c" d="M 628 4666 
L 1259 4666 
L 1259 531 
L 3531 531 
L 3531 0 
L 628 0 
L 628 4666 
z
" transform="scale(0.015625)"/>
      <path id="DejaVuSans-65" d="M 3597 1894 
L 3597 1613 
L 953 1613 
Q 991 1019 1311 708 
Q 1631 397 2203 397 
Q 2534 397 2845 478 
Q 3156 559 3463 722 
L 3463 178 
Q 3153 47 2828 -22 
Q 2503 -91 2169 -91 
Q 1331 -91 842 396 
Q 353 884 353 1716 
Q 353 2575 817 3079 
Q 1281 3584 2069 3584 
Q 2775 3584 3186 3129 
Q 3597 2675 3597 1894 
z
M 3022 2063 
Q 3016 2534 2758 2815 
Q 2500 3097 2075 3097 
Q 1594 3097 1305 2825 
Q 1016 2553 972 2059 
L 3022 2063 
z
" transform="scale(0.015625)"/>
      <path id="DejaVuSans-6e" d="M 3513 2113 
L 3513 0 
L 2938 0 
L 2938 2094 
Q 2938 2591 2744 2837 
Q 2550 3084 2163 3084 
Q 1697 3084 1428 2787 
Q 1159 2491 1159 1978 
L 1159 0 
L 581 0 
L 581 3500 
L 1159 3500 
L 1159 2956 
Q 1366 3272 1645 3428 
Q 1925 3584 2291 3584 
Q 2894 3584 3203 3211 
Q 3513 2838 3513 2113 
z
" transform="scale(0.015625)"/>
      <path id="DejaVuSans-69" d="M 603 3500 
L 1178 3500 
L 1178 0 
L 603 0 
L 603 3500 
z
M 603 4863 
L 1178 4863 
L 1178 4134 
L 603 4134 
L 603 4863 
z
" transform="scale(0.015625)"/>
      <path id="DejaVuSans-67" d="M 2906 1791 
Q 2906 2416 2648 2759 
Q 2391 3103 1925 3103 
Q 1463 3103 1205 2759 
Q 947 2416 947 1791 
Q 947 1169 1205 825 
Q 1463 481 1925 481 
Q 2391 481 2648 825 
Q 2906 1169 2906 1791 
z
M 3481 434 
Q 3481 -459 3084 -895 
Q 2688 -1331 1869 -1331 
Q 1566 -1331 1297 -1286 
Q 1028 -1241 775 -1147 
L 775 -588 
Q 1028 -725 1275 -790 
Q 1522 -856 1778 -856 
Q 2344 -856 2625 -561 
Q 2906 -266 2906 331 
L 2906 616 
Q 2728 306 2450 153 
Q 2172 0 1784 0 
Q 1141 0 747 490 
Q 353 981 353 1791 
Q 353 2603 747 3093 
Q 1141 3584 1784 3584 
Q 2172 3584 2450 3431 
Q 2728 3278 2906 2969 
L 2906 3500 
L 3481 3500 
L 3481 434 
z
" transform="scale(0.015625)"/>
      <path id="DejaVuSans-20" transform="scale(0.015625)"/>
      <path id="DejaVuSans-43" d="M 4122 4306 
L 4122 3641 
Q 3803 3938 3442 4084 
Q 3081 4231 2675 4231 
Q 1875 4231 1450 3742 
Q 1025 3253 1025 2328 
Q 1025 1406 1450 917 
Q 1875 428 2675 428 
Q 3081 428 3442 575 
Q 3803 722 4122 1019 
L 4122 359 
Q 3791 134 3420 21 
Q 3050 -91 2638 -91 
Q 1578 -91 968 557 
Q 359 1206 359 2328 
Q 359 3453 968 4101 
Q 1578 4750 2638 4750 
Q 3056 4750 3426 4639 
Q 3797 4528 4122 4306 
z
" transform="scale(0.015625)"/>
      <path id="DejaVuSans-76" d="M 191 3500 
L 800 3500 
L 1894 563 
L 2988 3500 
L 3597 3500 
L 2284 0 
L 1503 0 
L 191 3500 
z
" transform="scale(0.015625)"/>
     </defs>
     <use xlink:href="#DejaVuSans-4c"/>
     <use xlink:href="#DejaVuSans-65" x="53.962891"/>
     <use xlink:href="#DejaVuSans-61" x="115.486328"/>
     <use xlink:href="#DejaVuSans-72" x="176.765625"/>
     <use xlink:href="#DejaVuSans-6e" x="216.128906"/>
     <use xlink:href="#DejaVuSans-69" x="279.507812"/>
     <use xlink:href="#DejaVuSans-6e" x="307.291016"/>
     <use xlink:href="#DejaVuSans-67" x="370.669922"/>
     <use xlink:href="#DejaVuSans-20" x="434.146484"/>
     <use xlink:href="#DejaVuSans-43" x="465.933594"/>
     <use xlink:href="#DejaVuSans-75" x="535.757812"/>
     <use xlink:href="#DejaVuSans-72" x="599.136719"/>
     <use xlink:href="#DejaVuSans-76" x="640.25"/>
     <use xlink:href="#DejaVuSans-65" x="699.429688"/>
     <use xlink:href="#DejaVuSans-73" x="760.953125"/>
    </g>
   </g>
   <g id="legend_1">
    <g id="patch_7">
     <path d="M 214.18875 302.584 
L 407.72 302.584 
Q 409.72 302.584 409.72 300.584 
L 409.72 228.193375 
Q 409.72 226.193375 407.72 226.193375 
L 214.18875 226.193375 
Q 212.18875 226.193375 212.18875 228.193375 
L 212.18875 300.584 
Q 212.18875 302.584 214.18875 302.584 
z
" style="fill: #ffffff; opacity: 0.8; stroke: #cccccc; stroke-linejoin: miter"/>
    </g>
    <g id="line2d_23">
     <path d="M 216.18875 234.291812 
L 226.18875 234.291812 
L 236.18875 234.291812 
" style="fill: none; stroke: #1f77b4; stroke-width: 1.5; stroke-linecap: square"/>
    </g>
    <g id="text_21">
     <!-- Train Accuracy -->
     <g transform="translate(244.18875 237.791812) scale(0.1 -0.1)">
      <defs>
       <path id="DejaVuSans-54" d="M -19 4666 
L 3928 4666 
L 3928 4134 
L 2272 4134 
L 2272 0 
L 1638 0 
L 1638 4134 
L -19 4134 
L -19 4666 
z
" transform="scale(0.015625)"/>
      </defs>
      <use xlink:href="#DejaVuSans-54"/>
      <use xlink:href="#DejaVuSans-72" x="46.333984"/>
      <use xlink:href="#DejaVuSans-61" x="87.447266"/>
      <use xlink:href="#DejaVuSans-69" x="148.726562"/>
      <use xlink:href="#DejaVuSans-6e" x="176.509766"/>
      <use xlink:href="#DejaVuSans-20" x="239.888672"/>
      <use xlink:href="#DejaVuSans-41" x="271.675781"/>
      <use xlink:href="#DejaVuSans-63" x="338.333984"/>
      <use xlink:href="#DejaVuSans-63" x="393.314453"/>
      <use xlink:href="#DejaVuSans-75" x="448.294922"/>
      <use xlink:href="#DejaVuSans-72" x="511.673828"/>
      <use xlink:href="#DejaVuSans-61" x="552.787109"/>
      <use xlink:href="#DejaVuSans-63" x="614.066406"/>
      <use xlink:href="#DejaVuSans-79" x="669.046875"/>
     </g>
    </g>
    <g id="line2d_24">
     <path d="M 216.18875 248.969937 
L 226.18875 248.969937 
L 236.18875 248.969937 
" style="fill: none; stroke: #ff7f0e; stroke-width: 1.5; stroke-linecap: square"/>
    </g>
    <g id="text_22">
     <!-- Validation Accuracy -->
     <g transform="translate(244.18875 252.469937) scale(0.1 -0.1)">
      <defs>
       <path id="DejaVuSans-56" d="M 1831 0 
L 50 4666 
L 709 4666 
L 2188 738 
L 3669 4666 
L 4325 4666 
L 2547 0 
L 1831 0 
z
" transform="scale(0.015625)"/>
       <path id="DejaVuSans-6c" d="M 603 4863 
L 1178 4863 
L 1178 0 
L 603 0 
L 603 4863 
z
" transform="scale(0.015625)"/>
       <path id="DejaVuSans-64" d="M 2906 2969 
L 2906 4863 
L 3481 4863 
L 3481 0 
L 2906 0 
L 2906 525 
Q 2725 213 2448 61 
Q 2172 -91 1784 -91 
Q 1150 -91 751 415 
Q 353 922 353 1747 
Q 353 2572 751 3078 
Q 1150 3584 1784 3584 
Q 2172 3584 2448 3432 
Q 2725 3281 2906 2969 
z
M 947 1747 
Q 947 1113 1208 752 
Q 1469 391 1925 391 
Q 2381 391 2643 752 
Q 2906 1113 2906 1747 
Q 2906 2381 2643 2742 
Q 2381 3103 1925 3103 
Q 1469 3103 1208 2742 
Q 947 2381 947 1747 
z
" transform="scale(0.015625)"/>
       <path id="DejaVuSans-74" d="M 1172 4494 
L 1172 3500 
L 2356 3500 
L 2356 3053 
L 1172 3053 
L 1172 1153 
Q 1172 725 1289 603 
Q 1406 481 1766 481 
L 2356 481 
L 2356 0 
L 1766 0 
Q 1100 0 847 248 
Q 594 497 594 1153 
L 594 3053 
L 172 3053 
L 172 3500 
L 594 3500 
L 594 4494 
L 1172 4494 
z
" transform="scale(0.015625)"/>
      </defs>
      <use xlink:href="#DejaVuSans-56"/>
      <use xlink:href="#DejaVuSans-61" x="60.658203"/>
      <use xlink:href="#DejaVuSans-6c" x="121.9375"/>
      <use xlink:href="#DejaVuSans-69" x="149.720703"/>
      <use xlink:href="#DejaVuSans-64" x="177.503906"/>
      <use xlink:href="#DejaVuSans-61" x="240.980469"/>
      <use xlink:href="#DejaVuSans-74" x="302.259766"/>
      <use xlink:href="#DejaVuSans-69" x="341.46875"/>
      <use xlink:href="#DejaVuSans-6f" x="369.251953"/>
      <use xlink:href="#DejaVuSans-6e" x="430.433594"/>
      <use xlink:href="#DejaVuSans-20" x="493.8125"/>
      <use xlink:href="#DejaVuSans-41" x="525.599609"/>
      <use xlink:href="#DejaVuSans-63" x="592.257812"/>
      <use xlink:href="#DejaVuSans-63" x="647.238281"/>
      <use xlink:href="#DejaVuSans-75" x="702.21875"/>
      <use xlink:href="#DejaVuSans-72" x="765.597656"/>
      <use xlink:href="#DejaVuSans-61" x="806.710938"/>
      <use xlink:href="#DejaVuSans-63" x="867.990234"/>
      <use xlink:href="#DejaVuSans-79" x="922.970703"/>
     </g>
    </g>
    <g id="line2d_25">
     <path d="M 216.18875 263.648062 
L 226.18875 263.648062 
L 236.18875 263.648062 
" style="fill: none; stroke: #2ca02c; stroke-width: 1.5; stroke-linecap: square"/>
    </g>
    <g id="text_23">
     <!-- Robust Validation Accuracy -->
     <g transform="translate(244.18875 267.148062) scale(0.1 -0.1)">
      <defs>
       <path id="DejaVuSans-52" d="M 2841 2188 
Q 3044 2119 3236 1894 
Q 3428 1669 3622 1275 
L 4263 0 
L 3584 0 
L 2988 1197 
Q 2756 1666 2539 1819 
Q 2322 1972 1947 1972 
L 1259 1972 
L 1259 0 
L 628 0 
L 628 4666 
L 2053 4666 
Q 2853 4666 3247 4331 
Q 3641 3997 3641 3322 
Q 3641 2881 3436 2590 
Q 3231 2300 2841 2188 
z
M 1259 4147 
L 1259 2491 
L 2053 2491 
Q 2509 2491 2742 2702 
Q 2975 2913 2975 3322 
Q 2975 3731 2742 3939 
Q 2509 4147 2053 4147 
L 1259 4147 
z
" transform="scale(0.015625)"/>
       <path id="DejaVuSans-62" d="M 3116 1747 
Q 3116 2381 2855 2742 
Q 2594 3103 2138 3103 
Q 1681 3103 1420 2742 
Q 1159 2381 1159 1747 
Q 1159 1113 1420 752 
Q 1681 391 2138 391 
Q 2594 391 2855 752 
Q 3116 1113 3116 1747 
z
M 1159 2969 
Q 1341 3281 1617 3432 
Q 1894 3584 2278 3584 
Q 2916 3584 3314 3078 
Q 3713 2572 3713 1747 
Q 3713 922 3314 415 
Q 2916 -91 2278 -91 
Q 1894 -91 1617 61 
Q 1341 213 1159 525 
L 1159 0 
L 581 0 
L 581 4863 
L 1159 4863 
L 1159 2969 
z
" transform="scale(0.015625)"/>
      </defs>
      <use xlink:href="#DejaVuSans-52"/>
      <use xlink:href="#DejaVuSans-6f" x="64.982422"/>
      <use xlink:href="#DejaVuSans-62" x="126.164062"/>
      <use xlink:href="#DejaVuSans-75" x="189.640625"/>
      <use xlink:href="#DejaVuSans-73" x="253.019531"/>
      <use xlink:href="#DejaVuSans-74" x="305.119141"/>
      <use xlink:href="#DejaVuSans-20" x="344.328125"/>
      <use xlink:href="#DejaVuSans-56" x="376.115234"/>
      <use xlink:href="#DejaVuSans-61" x="436.773438"/>
      <use xlink:href="#DejaVuSans-6c" x="498.052734"/>
      <use xlink:href="#DejaVuSans-69" x="525.835938"/>
      <use xlink:href="#DejaVuSans-64" x="553.619141"/>
      <use xlink:href="#DejaVuSans-61" x="617.095703"/>
      <use xlink:href="#DejaVuSans-74" x="678.375"/>
      <use xlink:href="#DejaVuSans-69" x="717.583984"/>
      <use xlink:href="#DejaVuSans-6f" x="745.367188"/>
      <use xlink:href="#DejaVuSans-6e" x="806.548828"/>
      <use xlink:href="#DejaVuSans-20" x="869.927734"/>
      <use xlink:href="#DejaVuSans-41" x="901.714844"/>
      <use xlink:href="#DejaVuSans-63" x="968.373047"/>
      <use xlink:href="#DejaVuSans-63" x="1023.353516"/>
      <use xlink:href="#DejaVuSans-75" x="1078.333984"/>
      <use xlink:href="#DejaVuSans-72" x="1141.712891"/>
      <use xlink:href="#DejaVuSans-61" x="1182.826172"/>
      <use xlink:href="#DejaVuSans-63" x="1244.105469"/>
      <use xlink:href="#DejaVuSans-79" x="1299.085938"/>
     </g>
    </g>
    <g id="line2d_26">
     <path d="M 216.18875 278.326188 
L 226.18875 278.326188 
L 236.18875 278.326188 
" style="fill: none; stroke: #d62728; stroke-width: 1.5; stroke-linecap: square"/>
    </g>
    <g id="text_24">
     <!-- SWA Validation Accuracy -->
     <g transform="translate(244.18875 281.826188) scale(0.1 -0.1)">
      <defs>
       <path id="DejaVuSans-53" d="M 3425 4513 
L 3425 3897 
Q 3066 4069 2747 4153 
Q 2428 4238 2131 4238 
Q 1616 4238 1336 4038 
Q 1056 3838 1056 3469 
Q 1056 3159 1242 3001 
Q 1428 2844 1947 2747 
L 2328 2669 
Q 3034 2534 3370 2195 
Q 3706 1856 3706 1288 
Q 3706 609 3251 259 
Q 2797 -91 1919 -91 
Q 1588 -91 1214 -16 
Q 841 59 441 206 
L 441 856 
Q 825 641 1194 531 
Q 1563 422 1919 422 
Q 2459 422 2753 634 
Q 3047 847 3047 1241 
Q 3047 1584 2836 1778 
Q 2625 1972 2144 2069 
L 1759 2144 
Q 1053 2284 737 2584 
Q 422 2884 422 3419 
Q 422 4038 858 4394 
Q 1294 4750 2059 4750 
Q 2388 4750 2728 4690 
Q 3069 4631 3425 4513 
z
" transform="scale(0.015625)"/>
       <path id="DejaVuSans-57" d="M 213 4666 
L 850 4666 
L 1831 722 
L 2809 4666 
L 3519 4666 
L 4500 722 
L 5478 4666 
L 6119 4666 
L 4947 0 
L 4153 0 
L 3169 4050 
L 2175 0 
L 1381 0 
L 213 4666 
z
" transform="scale(0.015625)"/>
      </defs>
      <use xlink:href="#DejaVuSans-53"/>
      <use xlink:href="#DejaVuSans-57" x="63.476562"/>
      <use xlink:href="#DejaVuSans-41" x="156.853516"/>
      <use xlink:href="#DejaVuSans-20" x="225.261719"/>
      <use xlink:href="#DejaVuSans-56" x="257.048828"/>
      <use xlink:href="#DejaVuSans-61" x="317.707031"/>
      <use xlink:href="#DejaVuSans-6c" x="378.986328"/>
      <use xlink:href="#DejaVuSans-69" x="406.769531"/>
      <use xlink:href="#DejaVuSans-64" x="434.552734"/>
      <use xlink:href="#DejaVuSans-61" x="498.029297"/>
      <use xlink:href="#DejaVuSans-74" x="559.308594"/>
      <use xlink:href="#DejaVuSans-69" x="598.517578"/>
      <use xlink:href="#DejaVuSans-6f" x="626.300781"/>
      <use xlink:href="#DejaVuSans-6e" x="687.482422"/>
      <use xlink:href="#DejaVuSans-20" x="750.861328"/>
      <use xlink:href="#DejaVuSans-41" x="782.648438"/>
      <use xlink:href="#DejaVuSans-63" x="849.306641"/>
      <use xlink:href="#DejaVuSans-63" x="904.287109"/>
      <use xlink:href="#DejaVuSans-75" x="959.267578"/>
      <use xlink:href="#DejaVuSans-72" x="1022.646484"/>
      <use xlink:href="#DejaVuSans-61" x="1063.759766"/>
      <use xlink:href="#DejaVuSans-63" x="1125.039062"/>
      <use xlink:href="#DejaVuSans-79" x="1180.019531"/>
     </g>
    </g>
    <g id="line2d_27">
     <path d="M 216.18875 293.004312 
L 226.18875 293.004312 
L 236.18875 293.004312 
" style="fill: none; stroke: #9467bd; stroke-width: 1.5; stroke-linecap: square"/>
    </g>
    <g id="text_25">
     <!-- SWA Robust Validation Accuracy -->
     <g transform="translate(244.18875 296.504312) scale(0.1 -0.1)">
      <use xlink:href="#DejaVuSans-53"/>
      <use xlink:href="#DejaVuSans-57" x="63.476562"/>
      <use xlink:href="#DejaVuSans-41" x="156.853516"/>
      <use xlink:href="#DejaVuSans-20" x="225.261719"/>
      <use xlink:href="#DejaVuSans-52" x="257.048828"/>
      <use xlink:href="#DejaVuSans-6f" x="322.03125"/>
      <use xlink:href="#DejaVuSans-62" x="383.212891"/>
      <use xlink:href="#DejaVuSans-75" x="446.689453"/>
      <use xlink:href="#DejaVuSans-73" x="510.068359"/>
      <use xlink:href="#DejaVuSans-74" x="562.167969"/>
      <use xlink:href="#DejaVuSans-20" x="601.376953"/>
      <use xlink:href="#DejaVuSans-56" x="633.164062"/>
      <use xlink:href="#DejaVuSans-61" x="693.822266"/>
      <use xlink:href="#DejaVuSans-6c" x="755.101562"/>
      <use xlink:href="#DejaVuSans-69" x="782.884766"/>
      <use xlink:href="#DejaVuSans-64" x="810.667969"/>
      <use xlink:href="#DejaVuSans-61" x="874.144531"/>
      <use xlink:href="#DejaVuSans-74" x="935.423828"/>
      <use xlink:href="#DejaVuSans-69" x="974.632812"/>
      <use xlink:href="#DejaVuSans-6f" x="1002.416016"/>
      <use xlink:href="#DejaVuSans-6e" x="1063.597656"/>
      <use xlink:href="#DejaVuSans-20" x="1126.976562"/>
      <use xlink:href="#DejaVuSans-41" x="1158.763672"/>
      <use xlink:href="#DejaVuSans-63" x="1225.421875"/>
      <use xlink:href="#DejaVuSans-63" x="1280.402344"/>
      <use xlink:href="#DejaVuSans-75" x="1335.382812"/>
      <use xlink:href="#DejaVuSans-72" x="1398.761719"/>
      <use xlink:href="#DejaVuSans-61" x="1439.875"/>
      <use xlink:href="#DejaVuSans-63" x="1501.154297"/>
      <use xlink:href="#DejaVuSans-79" x="1556.134766"/>
     </g>
    </g>
   </g>
  </g>
 </g>
 <defs>
  <clipPath id="p8eb3cd950a">
   <rect x="57.6" y="41.472" width="357.12" height="266.112"/>
  </clipPath>
 </defs>
</svg>
