<?xml version="1.0" encoding="utf-8" standalone="no"?>
<!DOCTYPE svg PUBLIC "-//W3C//DTD SVG 1.1//EN"
  "http://www.w3.org/Graphics/SVG/1.1/DTD/svg11.dtd">
<svg xmlns:xlink="http://www.w3.org/1999/xlink" width="460.8pt" height="345.6pt" viewBox="0 0 460.8 345.6" xmlns="http://www.w3.org/2000/svg" version="1.1">
 <metadata>
  <rdf:RDF xmlns:dc="http://purl.org/dc/elements/1.1/" xmlns:cc="http://creativecommons.org/ns#" xmlns:rdf="http://www.w3.org/1999/02/22-rdf-syntax-ns#">
   <cc:Work>
    <dc:type rdf:resource="http://purl.org/dc/dcmitype/StillImage"/>
    <dc:date>2025-07-25T14:42:12.522481</dc:date>
    <dc:format>image/svg+xml</dc:format>
    <dc:creator>
     <cc:Agent>
      <dc:title>Matplotlib v3.9.1, https://matplotlib.org/</dc:title>
     </cc:Agent>
    </dc:creator>
   </cc:Work>
  </rdf:RDF>
 </metadata>
 <defs>
  <style type="text/css">*{stroke-linejoin: round; stroke-linecap: butt}</style>
 </defs>
 <g id="figure_1">
  <g id="patch_1">
   <path d="M 0 345.6 
L 460.8 345.6 
L 460.8 0 
L 0 0 
z
" style="fill: #ffffff"/>
  </g>
  <g id="axes_1">
   <g id="patch_2">
    <path d="M 57.6 307.584 
L 414.72 307.584 
L 414.72 41.472 
L 57.6 41.472 
z
" style="fill: #ffffff"/>
   </g>
   <g id="matplotlib.axis_1">
    <g id="xtick_1">
     <g id="line2d_1">
      <defs>
       <path id="m94433dab94" d="M 0 0 
L 0 3.5 
" style="stroke: #000000; stroke-width: 0.8"/>
      </defs>
      <g>
       <use xlink:href="#m94433dab94" x="73.832727" y="307.584" style="stroke: #000000; stroke-width: 0.8"/>
      </g>
     </g>
     <g id="text_1">
      <!-- 1 -->
      <g transform="translate(70.651477 322.182437) scale(0.1 -0.1)">
       <defs>
        <path id="DejaVuSans-31" d="M 794 531 
L 1825 531 
L 1825 4091 
L 703 3866 
L 703 4441 
L 1819 4666 
L 2450 4666 
L 2450 531 
L 3481 531 
L 3481 0 
L 794 0 
L 794 531 
z
" transform="scale(0.015625)"/>
       </defs>
       <use xlink:href="#DejaVuSans-31"/>
      </g>
     </g>
    </g>
    <g id="xtick_2">
     <g id="line2d_2">
      <g>
       <use xlink:href="#m94433dab94" x="109.664165" y="307.584" style="stroke: #000000; stroke-width: 0.8"/>
      </g>
     </g>
     <g id="text_2">
      <!-- 34 -->
      <g transform="translate(103.301665 322.182437) scale(0.1 -0.1)">
       <defs>
        <path id="DejaVuSans-33" d="M 2597 2516 
Q 3050 2419 3304 2112 
Q 3559 1806 3559 1356 
Q 3559 666 3084 287 
Q 2609 -91 1734 -91 
Q 1441 -91 1130 -33 
Q 819 25 488 141 
L 488 750 
Q 750 597 1062 519 
Q 1375 441 1716 441 
Q 2309 441 2620 675 
Q 2931 909 2931 1356 
Q 2931 1769 2642 2001 
Q 2353 2234 1838 2234 
L 1294 2234 
L 1294 2753 
L 1863 2753 
Q 2328 2753 2575 2939 
Q 2822 3125 2822 3475 
Q 2822 3834 2567 4026 
Q 2313 4219 1838 4219 
Q 1578 4219 1281 4162 
Q 984 4106 628 3988 
L 628 4550 
Q 988 4650 1302 4700 
Q 1616 4750 1894 4750 
Q 2613 4750 3031 4423 
Q 3450 4097 3450 3541 
Q 3450 3153 3228 2886 
Q 3006 2619 2597 2516 
z
" transform="scale(0.015625)"/>
        <path id="DejaVuSans-34" d="M 2419 4116 
L 825 1625 
L 2419 1625 
L 2419 4116 
z
M 2253 4666 
L 3047 4666 
L 3047 1625 
L 3713 1625 
L 3713 1100 
L 3047 1100 
L 3047 0 
L 2419 0 
L 2419 1100 
L 313 1100 
L 313 1709 
L 2253 4666 
z
" transform="scale(0.015625)"/>
       </defs>
       <use xlink:href="#DejaVuSans-33"/>
       <use xlink:href="#DejaVuSans-34" x="63.623047"/>
      </g>
     </g>
    </g>
    <g id="xtick_3">
     <g id="line2d_3">
      <g>
       <use xlink:href="#m94433dab94" x="145.495604" y="307.584" style="stroke: #000000; stroke-width: 0.8"/>
      </g>
     </g>
     <g id="text_3">
      <!-- 67 -->
      <g transform="translate(139.133104 322.182437) scale(0.1 -0.1)">
       <defs>
        <path id="DejaVuSans-36" d="M 2113 2584 
Q 1688 2584 1439 2293 
Q 1191 2003 1191 1497 
Q 1191 994 1439 701 
Q 1688 409 2113 409 
Q 2538 409 2786 701 
Q 3034 994 3034 1497 
Q 3034 2003 2786 2293 
Q 2538 2584 2113 2584 
z
M 3366 4563 
L 3366 3988 
Q 3128 4100 2886 4159 
Q 2644 4219 2406 4219 
Q 1781 4219 1451 3797 
Q 1122 3375 1075 2522 
Q 1259 2794 1537 2939 
Q 1816 3084 2150 3084 
Q 2853 3084 3261 2657 
Q 3669 2231 3669 1497 
Q 3669 778 3244 343 
Q 2819 -91 2113 -91 
Q 1303 -91 875 529 
Q 447 1150 447 2328 
Q 447 3434 972 4092 
Q 1497 4750 2381 4750 
Q 2619 4750 2861 4703 
Q 3103 4656 3366 4563 
z
" transform="scale(0.015625)"/>
        <path id="DejaVuSans-37" d="M 525 4666 
L 3525 4666 
L 3525 4397 
L 1831 0 
L 1172 0 
L 2766 4134 
L 525 4134 
L 525 4666 
z
" transform="scale(0.015625)"/>
       </defs>
       <use xlink:href="#DejaVuSans-36"/>
       <use xlink:href="#DejaVuSans-37" x="63.623047"/>
      </g>
     </g>
    </g>
    <g id="xtick_4">
     <g id="line2d_4">
      <g>
       <use xlink:href="#m94433dab94" x="181.327042" y="307.584" style="stroke: #000000; stroke-width: 0.8"/>
      </g>
     </g>
     <g id="text_4">
      <!-- 100 -->
      <g transform="translate(171.783292 322.182437) scale(0.1 -0.1)">
       <defs>
        <path id="DejaVuSans-30" d="M 2034 4250 
Q 1547 4250 1301 3770 
Q 1056 3291 1056 2328 
Q 1056 1369 1301 889 
Q 1547 409 2034 409 
Q 2525 409 2770 889 
Q 3016 1369 3016 2328 
Q 3016 3291 2770 3770 
Q 2525 4250 2034 4250 
z
M 2034 4750 
Q 2819 4750 3233 4129 
Q 3647 3509 3647 2328 
Q 3647 1150 3233 529 
Q 2819 -91 2034 -91 
Q 1250 -91 836 529 
Q 422 1150 422 2328 
Q 422 3509 836 4129 
Q 1250 4750 2034 4750 
z
" transform="scale(0.015625)"/>
       </defs>
       <use xlink:href="#DejaVuSans-31"/>
       <use xlink:href="#DejaVuSans-30" x="63.623047"/>
       <use xlink:href="#DejaVuSans-30" x="127.246094"/>
      </g>
     </g>
    </g>
    <g id="xtick_5">
     <g id="line2d_5">
      <g>
       <use xlink:href="#m94433dab94" x="217.15848" y="307.584" style="stroke: #000000; stroke-width: 0.8"/>
      </g>
     </g>
     <g id="text_5">
      <!-- 133 -->
      <g transform="translate(207.61473 322.182437) scale(0.1 -0.1)">
       <use xlink:href="#DejaVuSans-31"/>
       <use xlink:href="#DejaVuSans-33" x="63.623047"/>
       <use xlink:href="#DejaVuSans-33" x="127.246094"/>
      </g>
     </g>
    </g>
    <g id="xtick_6">
     <g id="line2d_6">
      <g>
       <use xlink:href="#m94433dab94" x="254.075719" y="307.584" style="stroke: #000000; stroke-width: 0.8"/>
      </g>
     </g>
     <g id="text_6">
      <!-- 167 -->
      <g transform="translate(244.531969 322.182437) scale(0.1 -0.1)">
       <use xlink:href="#DejaVuSans-31"/>
       <use xlink:href="#DejaVuSans-36" x="63.623047"/>
       <use xlink:href="#DejaVuSans-37" x="127.246094"/>
      </g>
     </g>
    </g>
    <g id="xtick_7">
     <g id="line2d_7">
      <g>
       <use xlink:href="#m94433dab94" x="289.907157" y="307.584" style="stroke: #000000; stroke-width: 0.8"/>
      </g>
     </g>
     <g id="text_7">
      <!-- 200 -->
      <g transform="translate(280.363407 322.182437) scale(0.1 -0.1)">
       <defs>
        <path id="DejaVuSans-32" d="M 1228 531 
L 3431 531 
L 3431 0 
L 469 0 
L 469 531 
Q 828 903 1448 1529 
Q 2069 2156 2228 2338 
Q 2531 2678 2651 2914 
Q 2772 3150 2772 3378 
Q 2772 3750 2511 3984 
Q 2250 4219 1831 4219 
Q 1534 4219 1204 4116 
Q 875 4013 500 3803 
L 500 4441 
Q 881 4594 1212 4672 
Q 1544 4750 1819 4750 
Q 2544 4750 2975 4387 
Q 3406 4025 3406 3419 
Q 3406 3131 3298 2873 
Q 3191 2616 2906 2266 
Q 2828 2175 2409 1742 
Q 1991 1309 1228 531 
z
" transform="scale(0.015625)"/>
       </defs>
       <use xlink:href="#DejaVuSans-32"/>
       <use xlink:href="#DejaVuSans-30" x="63.623047"/>
       <use xlink:href="#DejaVuSans-30" x="127.246094"/>
      </g>
     </g>
    </g>
    <g id="xtick_8">
     <g id="line2d_8">
      <g>
       <use xlink:href="#m94433dab94" x="325.738595" y="307.584" style="stroke: #000000; stroke-width: 0.8"/>
      </g>
     </g>
     <g id="text_8">
      <!-- 233 -->
      <g transform="translate(316.194845 322.182437) scale(0.1 -0.1)">
       <use xlink:href="#DejaVuSans-32"/>
       <use xlink:href="#DejaVuSans-33" x="63.623047"/>
       <use xlink:href="#DejaVuSans-33" x="127.246094"/>
      </g>
     </g>
    </g>
    <g id="xtick_9">
     <g id="line2d_9">
      <g>
       <use xlink:href="#m94433dab94" x="361.570033" y="307.584" style="stroke: #000000; stroke-width: 0.8"/>
      </g>
     </g>
     <g id="text_9">
      <!-- 266 -->
      <g transform="translate(352.026283 322.182437) scale(0.1 -0.1)">
       <use xlink:href="#DejaVuSans-32"/>
       <use xlink:href="#DejaVuSans-36" x="63.623047"/>
       <use xlink:href="#DejaVuSans-36" x="127.246094"/>
      </g>
     </g>
    </g>
    <g id="xtick_10">
     <g id="line2d_10">
      <g>
       <use xlink:href="#m94433dab94" x="398.487273" y="307.584" style="stroke: #000000; stroke-width: 0.8"/>
      </g>
     </g>
     <g id="text_10">
      <!-- 300 -->
      <g transform="translate(388.943523 322.182437) scale(0.1 -0.1)">
       <use xlink:href="#DejaVuSans-33"/>
       <use xlink:href="#DejaVuSans-30" x="63.623047"/>
       <use xlink:href="#DejaVuSans-30" x="127.246094"/>
      </g>
     </g>
    </g>
    <g id="text_11">
     <!-- Epochs -->
     <g transform="translate(218.244375 335.860562) scale(0.1 -0.1)">
      <defs>
       <path id="DejaVuSans-45" d="M 628 4666 
L 3578 4666 
L 3578 4134 
L 1259 4134 
L 1259 2753 
L 3481 2753 
L 3481 2222 
L 1259 2222 
L 1259 531 
L 3634 531 
L 3634 0 
L 628 0 
L 628 4666 
z
" transform="scale(0.015625)"/>
       <path id="DejaVuSans-70" d="M 1159 525 
L 1159 -1331 
L 581 -1331 
L 581 3500 
L 1159 3500 
L 1159 2969 
Q 1341 3281 1617 3432 
Q 1894 3584 2278 3584 
Q 2916 3584 3314 3078 
Q 3713 2572 3713 1747 
Q 3713 922 3314 415 
Q 2916 -91 2278 -91 
Q 1894 -91 1617 61 
Q 1341 213 1159 525 
z
M 3116 1747 
Q 3116 2381 2855 2742 
Q 2594 3103 2138 3103 
Q 1681 3103 1420 2742 
Q 1159 2381 1159 1747 
Q 1159 1113 1420 752 
Q 1681 391 2138 391 
Q 2594 391 2855 752 
Q 3116 1113 3116 1747 
z
" transform="scale(0.015625)"/>
       <path id="DejaVuSans-6f" d="M 1959 3097 
Q 1497 3097 1228 2736 
Q 959 2375 959 1747 
Q 959 1119 1226 758 
Q 1494 397 1959 397 
Q 2419 397 2687 759 
Q 2956 1122 2956 1747 
Q 2956 2369 2687 2733 
Q 2419 3097 1959 3097 
z
M 1959 3584 
Q 2709 3584 3137 3096 
Q 3566 2609 3566 1747 
Q 3566 888 3137 398 
Q 2709 -91 1959 -91 
Q 1206 -91 779 398 
Q 353 888 353 1747 
Q 353 2609 779 3096 
Q 1206 3584 1959 3584 
z
" transform="scale(0.015625)"/>
       <path id="DejaVuSans-63" d="M 3122 3366 
L 3122 2828 
Q 2878 2963 2633 3030 
Q 2388 3097 2138 3097 
Q 1578 3097 1268 2742 
Q 959 2388 959 1747 
Q 959 1106 1268 751 
Q 1578 397 2138 397 
Q 2388 397 2633 464 
Q 2878 531 3122 666 
L 3122 134 
Q 2881 22 2623 -34 
Q 2366 -91 2075 -91 
Q 1284 -91 818 406 
Q 353 903 353 1747 
Q 353 2603 823 3093 
Q 1294 3584 2113 3584 
Q 2378 3584 2631 3529 
Q 2884 3475 3122 3366 
z
" transform="scale(0.015625)"/>
       <path id="DejaVuSans-68" d="M 3513 2113 
L 3513 0 
L 2938 0 
L 2938 2094 
Q 2938 2591 2744 2837 
Q 2550 3084 2163 3084 
Q 1697 3084 1428 2787 
Q 1159 2491 1159 1978 
L 1159 0 
L 581 0 
L 581 4863 
L 1159 4863 
L 1159 2956 
Q 1366 3272 1645 3428 
Q 1925 3584 2291 3584 
Q 2894 3584 3203 3211 
Q 3513 2838 3513 2113 
z
" transform="scale(0.015625)"/>
       <path id="DejaVuSans-73" d="M 2834 3397 
L 2834 2853 
Q 2591 2978 2328 3040 
Q 2066 3103 1784 3103 
Q 1356 3103 1142 2972 
Q 928 2841 928 2578 
Q 928 2378 1081 2264 
Q 1234 2150 1697 2047 
L 1894 2003 
Q 2506 1872 2764 1633 
Q 3022 1394 3022 966 
Q 3022 478 2636 193 
Q 2250 -91 1575 -91 
Q 1294 -91 989 -36 
Q 684 19 347 128 
L 347 722 
Q 666 556 975 473 
Q 1284 391 1588 391 
Q 1994 391 2212 530 
Q 2431 669 2431 922 
Q 2431 1156 2273 1281 
Q 2116 1406 1581 1522 
L 1381 1569 
Q 847 1681 609 1914 
Q 372 2147 372 2553 
Q 372 3047 722 3315 
Q 1072 3584 1716 3584 
Q 2034 3584 2315 3537 
Q 2597 3491 2834 3397 
z
" transform="scale(0.015625)"/>
      </defs>
      <use xlink:href="#DejaVuSans-45"/>
      <use xlink:href="#DejaVuSans-70" x="63.183594"/>
      <use xlink:href="#DejaVuSans-6f" x="126.660156"/>
      <use xlink:href="#DejaVuSans-63" x="187.841797"/>
      <use xlink:href="#DejaVuSans-68" x="242.822266"/>
      <use xlink:href="#DejaVuSans-73" x="306.201172"/>
     </g>
    </g>
   </g>
   <g id="matplotlib.axis_2">
    <g id="ytick_1">
     <g id="line2d_11">
      <defs>
       <path id="ma043fe588c" d="M 0 0 
L -3.5 0 
" style="stroke: #000000; stroke-width: 0.8"/>
      </defs>
      <g>
       <use xlink:href="#ma043fe588c" x="57.6" y="281.226442" style="stroke: #000000; stroke-width: 0.8"/>
      </g>
     </g>
     <g id="text_12">
      <!-- 10 -->
      <g transform="translate(37.875 285.02566) scale(0.1 -0.1)">
       <use xlink:href="#DejaVuSans-31"/>
       <use xlink:href="#DejaVuSans-30" x="63.623047"/>
      </g>
     </g>
    </g>
    <g id="ytick_2">
     <g id="line2d_12">
      <g>
       <use xlink:href="#ma043fe588c" x="57.6" y="249.461066" style="stroke: #000000; stroke-width: 0.8"/>
      </g>
     </g>
     <g id="text_13">
      <!-- 20 -->
      <g transform="translate(37.875 253.260284) scale(0.1 -0.1)">
       <use xlink:href="#DejaVuSans-32"/>
       <use xlink:href="#DejaVuSans-30" x="63.623047"/>
      </g>
     </g>
    </g>
    <g id="ytick_3">
     <g id="line2d_13">
      <g>
       <use xlink:href="#ma043fe588c" x="57.6" y="217.69569" style="stroke: #000000; stroke-width: 0.8"/>
      </g>
     </g>
     <g id="text_14">
      <!-- 30 -->
      <g transform="translate(37.875 221.494908) scale(0.1 -0.1)">
       <use xlink:href="#DejaVuSans-33"/>
       <use xlink:href="#DejaVuSans-30" x="63.623047"/>
      </g>
     </g>
    </g>
    <g id="ytick_4">
     <g id="line2d_14">
      <g>
       <use xlink:href="#ma043fe588c" x="57.6" y="185.930314" style="stroke: #000000; stroke-width: 0.8"/>
      </g>
     </g>
     <g id="text_15">
      <!-- 40 -->
      <g transform="translate(37.875 189.729532) scale(0.1 -0.1)">
       <use xlink:href="#DejaVuSans-34"/>
       <use xlink:href="#DejaVuSans-30" x="63.623047"/>
      </g>
     </g>
    </g>
    <g id="ytick_5">
     <g id="line2d_15">
      <g>
       <use xlink:href="#ma043fe588c" x="57.6" y="154.164938" style="stroke: #000000; stroke-width: 0.8"/>
      </g>
     </g>
     <g id="text_16">
      <!-- 50 -->
      <g transform="translate(37.875 157.964156) scale(0.1 -0.1)">
       <defs>
        <path id="DejaVuSans-35" d="M 691 4666 
L 3169 4666 
L 3169 4134 
L 1269 4134 
L 1269 2991 
Q 1406 3038 1543 3061 
Q 1681 3084 1819 3084 
Q 2600 3084 3056 2656 
Q 3513 2228 3513 1497 
Q 3513 744 3044 326 
Q 2575 -91 1722 -91 
Q 1428 -91 1123 -41 
Q 819 9 494 109 
L 494 744 
Q 775 591 1075 516 
Q 1375 441 1709 441 
Q 2250 441 2565 725 
Q 2881 1009 2881 1497 
Q 2881 1984 2565 2268 
Q 2250 2553 1709 2553 
Q 1456 2553 1204 2497 
Q 953 2441 691 2322 
L 691 4666 
z
" transform="scale(0.015625)"/>
       </defs>
       <use xlink:href="#DejaVuSans-35"/>
       <use xlink:href="#DejaVuSans-30" x="63.623047"/>
      </g>
     </g>
    </g>
    <g id="ytick_6">
     <g id="line2d_16">
      <g>
       <use xlink:href="#ma043fe588c" x="57.6" y="122.399562" style="stroke: #000000; stroke-width: 0.8"/>
      </g>
     </g>
     <g id="text_17">
      <!-- 60 -->
      <g transform="translate(37.875 126.19878) scale(0.1 -0.1)">
       <use xlink:href="#DejaVuSans-36"/>
       <use xlink:href="#DejaVuSans-30" x="63.623047"/>
      </g>
     </g>
    </g>
    <g id="ytick_7">
     <g id="line2d_17">
      <g>
       <use xlink:href="#ma043fe588c" x="57.6" y="90.634186" style="stroke: #000000; stroke-width: 0.8"/>
      </g>
     </g>
     <g id="text_18">
      <!-- 70 -->
      <g transform="translate(37.875 94.433404) scale(0.1 -0.1)">
       <use xlink:href="#DejaVuSans-37"/>
       <use xlink:href="#DejaVuSans-30" x="63.623047"/>
      </g>
     </g>
    </g>
    <g id="ytick_8">
     <g id="line2d_18">
      <g>
       <use xlink:href="#ma043fe588c" x="57.6" y="58.86881" style="stroke: #000000; stroke-width: 0.8"/>
      </g>
     </g>
     <g id="text_19">
      <!-- 80 -->
      <g transform="translate(37.875 62.668028) scale(0.1 -0.1)">
       <defs>
        <path id="DejaVuSans-38" d="M 2034 2216 
Q 1584 2216 1326 1975 
Q 1069 1734 1069 1313 
Q 1069 891 1326 650 
Q 1584 409 2034 409 
Q 2484 409 2743 651 
Q 3003 894 3003 1313 
Q 3003 1734 2745 1975 
Q 2488 2216 2034 2216 
z
M 1403 2484 
Q 997 2584 770 2862 
Q 544 3141 544 3541 
Q 544 4100 942 4425 
Q 1341 4750 2034 4750 
Q 2731 4750 3128 4425 
Q 3525 4100 3525 3541 
Q 3525 3141 3298 2862 
Q 3072 2584 2669 2484 
Q 3125 2378 3379 2068 
Q 3634 1759 3634 1313 
Q 3634 634 3220 271 
Q 2806 -91 2034 -91 
Q 1263 -91 848 271 
Q 434 634 434 1313 
Q 434 1759 690 2068 
Q 947 2378 1403 2484 
z
M 1172 3481 
Q 1172 3119 1398 2916 
Q 1625 2713 2034 2713 
Q 2441 2713 2670 2916 
Q 2900 3119 2900 3481 
Q 2900 3844 2670 4047 
Q 2441 4250 2034 4250 
Q 1625 4250 1398 4047 
Q 1172 3844 1172 3481 
z
" transform="scale(0.015625)"/>
       </defs>
       <use xlink:href="#DejaVuSans-38"/>
       <use xlink:href="#DejaVuSans-30" x="63.623047"/>
      </g>
     </g>
    </g>
    <g id="text_20">
     <!-- Accuracy -->
     <g transform="translate(31.795312 197.356125) rotate(-90) scale(0.1 -0.1)">
      <defs>
       <path id="DejaVuSans-41" d="M 2188 4044 
L 1331 1722 
L 3047 1722 
L 2188 4044 
z
M 1831 4666 
L 2547 4666 
L 4325 0 
L 3669 0 
L 3244 1197 
L 1141 1197 
L 716 0 
L 50 0 
L 1831 4666 
z
" transform="scale(0.015625)"/>
       <path id="DejaVuSans-75" d="M 544 1381 
L 544 3500 
L 1119 3500 
L 1119 1403 
Q 1119 906 1312 657 
Q 1506 409 1894 409 
Q 2359 409 2629 706 
Q 2900 1003 2900 1516 
L 2900 3500 
L 3475 3500 
L 3475 0 
L 2900 0 
L 2900 538 
Q 2691 219 2414 64 
Q 2138 -91 1772 -91 
Q 1169 -91 856 284 
Q 544 659 544 1381 
z
M 1991 3584 
L 1991 3584 
z
" transform="scale(0.015625)"/>
       <path id="DejaVuSans-72" d="M 2631 2963 
Q 2534 3019 2420 3045 
Q 2306 3072 2169 3072 
Q 1681 3072 1420 2755 
Q 1159 2438 1159 1844 
L 1159 0 
L 581 0 
L 581 3500 
L 1159 3500 
L 1159 2956 
Q 1341 3275 1631 3429 
Q 1922 3584 2338 3584 
Q 2397 3584 2469 3576 
Q 2541 3569 2628 3553 
L 2631 2963 
z
" transform="scale(0.015625)"/>
       <path id="DejaVuSans-61" d="M 2194 1759 
Q 1497 1759 1228 1600 
Q 959 1441 959 1056 
Q 959 750 1161 570 
Q 1363 391 1709 391 
Q 2188 391 2477 730 
Q 2766 1069 2766 1631 
L 2766 1759 
L 2194 1759 
z
M 3341 1997 
L 3341 0 
L 2766 0 
L 2766 531 
Q 2569 213 2275 61 
Q 1981 -91 1556 -91 
Q 1019 -91 701 211 
Q 384 513 384 1019 
Q 384 1609 779 1909 
Q 1175 2209 1959 2209 
L 2766 2209 
L 2766 2266 
Q 2766 2663 2505 2880 
Q 2244 3097 1772 3097 
Q 1472 3097 1187 3025 
Q 903 2953 641 2809 
L 641 3341 
Q 956 3463 1253 3523 
Q 1550 3584 1831 3584 
Q 2591 3584 2966 3190 
Q 3341 2797 3341 1997 
z
" transform="scale(0.015625)"/>
       <path id="DejaVuSans-79" d="M 2059 -325 
Q 1816 -950 1584 -1140 
Q 1353 -1331 966 -1331 
L 506 -1331 
L 506 -850 
L 844 -850 
Q 1081 -850 1212 -737 
Q 1344 -625 1503 -206 
L 1606 56 
L 191 3500 
L 800 3500 
L 1894 763 
L 2988 3500 
L 3597 3500 
L 2059 -325 
z
" transform="scale(0.015625)"/>
      </defs>
      <use xlink:href="#DejaVuSans-41"/>
      <use xlink:href="#DejaVuSans-63" x="66.658203"/>
      <use xlink:href="#DejaVuSans-63" x="121.638672"/>
      <use xlink:href="#DejaVuSans-75" x="176.619141"/>
      <use xlink:href="#DejaVuSans-72" x="239.998047"/>
      <use xlink:href="#DejaVuSans-61" x="281.111328"/>
      <use xlink:href="#DejaVuSans-63" x="342.390625"/>
      <use xlink:href="#DejaVuSans-79" x="397.371094"/>
     </g>
    </g>
   </g>
   <g id="line2d_19">
    <path d="M 73.832727 281.377366 
L 74.918528 241.659501 
L 76.00433 215.782711 
L 77.090131 197.80237 
L 78.175932 184.961088 
L 79.261733 174.326355 
L 81.433335 157.033768 
L 83.604938 143.243639 
L 84.690739 138.671341 
L 85.77654 133.401735 
L 86.862341 127.438005 
L 87.948142 124.451365 
L 89.033943 120.512692 
L 90.119745 116.026363 
L 91.205546 114.023595 
L 92.291347 111.078347 
L 93.377148 109.741045 
L 94.462949 108.827222 
L 95.54875 141.215398 
L 96.634552 140.107348 
L 97.720353 136.066786 
L 98.806154 133.283925 
L 99.891955 131.736476 
L 102.063557 126.49871 
L 103.149358 123.4261 
L 104.23516 120.926619 
L 105.320961 119.305937 
L 106.406762 116.784168 
L 107.492563 114.57762 
L 108.578364 113.026986 
L 109.664165 111.237549 
L 110.749967 109.107418 
L 111.835768 107.715988 
L 112.921569 105.853317 
L 114.00737 102.949462 
L 115.093171 101.717234 
L 117.264773 98.934372 
L 118.350575 96.520861 
L 119.436376 95.575198 
L 120.522177 93.03114 
L 121.607978 90.96469 
L 122.693779 90.257831 
L 123.77958 88.401528 
L 124.865382 85.644139 
L 125.951183 84.548826 
L 128.122785 81.450743 
L 129.208586 80.527368 
L 131.380189 78.190274 
L 132.46599 77.610776 
L 133.551791 76.050591 
L 135.723393 74.929805 
L 136.809194 73.882252 
L 137.894995 73.853595 
L 138.980797 108.069417 
L 140.066598 110.514769 
L 141.152399 109.683732 
L 142.2382 108.671203 
L 143.324001 108.292301 
L 144.409802 107.286141 
L 145.495604 106.834005 
L 146.581405 105.382078 
L 147.667206 105.17193 
L 148.753007 103.579904 
L 149.838808 103.140505 
L 152.01041 101.268282 
L 153.096212 101.156841 
L 154.182013 99.660336 
L 155.267814 99.05855 
L 156.353615 97.896371 
L 157.439416 97.533389 
L 158.525217 96.845634 
L 159.611019 95.174007 
L 160.69682 95.896787 
L 161.782621 94.919283 
L 162.868422 94.413019 
L 163.954223 93.62019 
L 165.040024 92.566268 
L 166.125825 93.136214 
L 167.211627 91.295832 
L 168.297428 90.706782 
L 169.383229 89.213462 
L 170.46903 89.232566 
L 171.554831 88.37924 
L 172.640632 88.22959 
L 173.726434 87.032386 
L 174.812235 86.605723 
L 176.983837 84.93728 
L 178.069638 84.2145 
L 179.155439 84.150819 
L 180.24124 82.800781 
L 181.327042 81.88059 
L 182.412843 81.9984 
L 183.498644 80.852141 
L 184.584445 80.148466 
L 185.670246 79.024495 
L 186.756047 78.43863 
L 187.841849 77.152273 
L 190.013451 75.945517 
L 192.185053 73.554294 
L 193.270854 73.360067 
L 194.356656 72.933404 
L 195.442457 70.752328 
L 196.528258 70.36069 
L 197.614059 69.736616 
L 198.69986 68.775032 
L 199.785661 69.437315 
L 200.871462 67.501411 
L 201.957264 66.558932 
L 203.043065 66.310576 
L 204.128866 65.212078 
L 205.214667 64.740838 
L 206.300468 63.314383 
L 207.386269 63.253886 
L 208.472071 62.375088 
L 209.557872 62.352799 
L 210.643673 61.005945 
L 211.729474 60.846743 
L 212.815275 60.31819 
L 213.901076 59.624067 
L 216.072679 58.789845 
L 217.15848 57.684979 
L 218.244281 57.844182 
L 219.330082 58.25174 
L 220.415883 58.162587 
L 221.501684 57.544881 
L 222.587486 57.478016 
L 223.673287 57.172347 
L 224.759088 57.255132 
L 225.844889 96.390315 
L 226.93069 98.765618 
L 228.016491 99.472477 
L 230.188094 97.921844 
L 232.359696 97.466524 
L 233.445497 96.578174 
L 234.531298 95.345946 
L 235.617099 95.603854 
L 236.702901 95.23132 
L 238.874503 93.674318 
L 239.960304 93.661582 
L 241.046105 92.986563 
L 242.131906 92.906962 
L 243.217708 93.098005 
L 244.303509 92.91333 
L 245.38931 92.515324 
L 247.560912 90.576236 
L 249.732514 91.047476 
L 250.818316 90.245095 
L 251.904117 90.006291 
L 252.989918 89.270775 
L 254.075719 89.936241 
L 255.16152 88.694461 
L 256.247321 89.051075 
L 257.333123 88.468394 
L 259.504725 88.258246 
L 260.590526 88.442921 
L 261.676327 87.869792 
L 262.762128 86.987809 
L 263.847929 87.716957 
L 264.933731 86.675772 
L 266.019532 87.124724 
L 268.191134 87.159748 
L 269.276935 86.841343 
L 270.362736 85.52633 
L 271.448538 85.535882 
L 272.534339 84.736685 
L 273.62014 84.650715 
L 274.705941 86.083539 
L 275.791742 84.510617 
L 276.877543 84.271813 
L 277.963344 84.427832 
L 280.134947 82.953616 
L 281.220748 83.294309 
L 282.306549 83.061873 
L 283.39235 82.183075 
L 284.478151 82.5174 
L 286.649754 81.218307 
L 287.735555 81.447559 
L 288.821356 81.240596 
L 289.907157 80.899902 
L 290.992958 79.896926 
L 292.07876 80.024288 
L 293.164561 79.584889 
L 295.336163 79.288772 
L 296.421964 79.205986 
L 297.507765 78.696538 
L 299.679368 78.126593 
L 300.765169 76.973966 
L 301.85097 77.71585 
L 304.022572 76.754266 
L 305.108373 76.789291 
L 306.194175 75.674873 
L 307.279976 75.951885 
L 308.365777 75.133584 
L 309.451578 74.493589 
L 310.537379 74.904332 
L 311.62318 74.343939 
L 312.708981 74.592295 
L 313.794783 74.003245 
L 314.880584 72.509925 
L 315.966385 73.388723 
L 317.052186 72.064158 
L 318.137987 72.344354 
L 319.223788 71.373219 
L 320.30959 71.11531 
L 321.395391 71.647047 
L 322.481192 70.59631 
L 323.566993 70.338402 
L 324.652794 69.214431 
L 326.824396 69.335425 
L 327.910198 69.300401 
L 330.0818 68.071357 
L 331.167601 68.179614 
L 332.253402 67.654246 
L 333.339203 66.552564 
L 334.425005 66.215054 
L 335.510806 65.584612 
L 336.596607 66.205502 
L 337.682408 65.450882 
L 338.768209 64.435169 
L 339.85401 64.177261 
L 340.939811 63.706021 
L 342.025613 63.709205 
L 343.111414 63.043739 
L 345.283016 62.343247 
L 346.368817 61.333903 
L 347.454618 60.92316 
L 348.54042 61.64594 
L 350.712022 59.94884 
L 351.797823 58.601986 
L 352.883624 58.468256 
L 353.969425 58.073434 
L 355.055227 58.184875 
L 356.141028 58.124378 
L 357.226829 57.665875 
L 358.31263 56.602402 
L 359.398431 55.819125 
L 360.484232 56.911255 
L 361.570033 55.481615 
L 362.655835 54.933958 
L 363.741636 54.867093 
L 365.913238 54.153866 
L 366.999039 53.568 
L 368.08484 54.128393 
L 369.170642 56.223499 
L 370.256443 57.213739 
L 371.342244 57.790053 
L 372.428045 60.028441 
L 373.513846 60.630227 
L 374.599647 60.343663 
L 375.685448 60.677988 
L 376.77125 60.429632 
L 377.857051 60.674804 
L 378.942852 61.126939 
L 381.114454 60.728933 
L 382.200255 61.620467 
L 383.286057 60.808534 
L 384.371858 61.642756 
L 385.457659 61.419872 
L 386.54346 61.397584 
L 387.629261 62.136284 
L 388.715062 60.770326 
L 389.800863 61.098283 
L 390.886665 60.945448 
L 391.972466 62.387824 
L 393.058267 61.082363 
L 394.144068 61.1747 
L 396.31567 61.798774 
L 397.401472 61.225645 
L 398.487273 61.649124 
L 398.487273 61.649124 
" clip-path="url(#p9ef291c70a)" style="fill: none; stroke: #1f77b4; stroke-width: 1.5; stroke-linecap: square"/>
   </g>
   <g id="line2d_20">
    <path d="M 73.832727 271.887421 
L 74.918528 245.363332 
L 76.00433 247.396316 
L 77.090131 223.127569 
L 78.175932 207.086054 
L 79.261733 205.593081 
L 80.347534 194.538731 
L 81.433335 188.948024 
L 82.519137 182.690245 
L 83.604938 179.799596 
L 84.690739 170.42881 
L 85.77654 170.42881 
L 86.862341 167.252273 
L 89.033943 152.735496 
L 90.119745 147.62127 
L 91.205546 147.62127 
L 92.291347 144.857682 
L 93.377148 144.825917 
L 94.462949 143.904721 
L 95.54875 176.654824 
L 96.634552 178.084266 
L 97.720353 175.479505 
L 98.806154 170.873525 
L 99.891955 175.51127 
L 100.977756 174.590074 
L 102.063557 163.408662 
L 103.149358 156.134391 
L 104.23516 164.996931 
L 105.320961 159.215632 
L 106.406762 157.055587 
L 107.492563 153.053149 
L 108.578364 150.130735 
L 109.664165 152.386077 
L 110.749967 143.555302 
L 111.835768 147.938924 
L 112.921569 141.903503 
L 114.00737 143.714129 
L 115.093171 138.75873 
L 116.178972 144.000017 
L 117.264773 132.755074 
L 118.350575 131.802113 
L 119.436376 133.549209 
L 120.522177 132.532717 
L 121.607978 123.638411 
L 122.693779 122.336031 
L 123.77958 124.750199 
L 124.865382 119.73127 
L 125.951183 117.475928 
L 127.036984 118.397124 
L 128.122785 112.361703 
L 129.208586 114.362922 
L 130.294387 113.40996 
L 131.380189 110.201657 
L 132.46599 108.867511 
L 133.551791 109.852238 
L 134.637592 107.851019 
L 135.723393 107.183947 
L 136.809194 106.929824 
L 137.894995 107.692193 
L 138.980797 151.623708 
L 140.066598 149.209539 
L 141.152399 150.670746 
L 142.2382 146.287124 
L 143.324001 157.214414 
L 144.409802 152.068423 
L 145.495604 154.800245 
L 146.581405 160.899197 
L 147.667206 147.303616 
L 148.753007 141.522318 
L 149.838808 141.744676 
L 150.924609 145.365928 
L 152.01041 140.219938 
L 153.096212 139.679926 
L 154.182013 137.615177 
L 155.267814 134.660997 
L 156.353615 135.74102 
L 157.439416 132.469186 
L 158.525217 138.75873 
L 159.611019 135.645723 
L 160.69682 137.0434 
L 161.782621 137.106931 
L 162.868422 130.118548 
L 163.954223 137.996361 
L 165.040024 135.613958 
L 166.125825 133.517443 
L 167.211627 135.963377 
L 168.297428 132.659778 
L 169.383229 127.76791 
L 170.46903 133.866862 
L 171.554831 124.845496 
L 172.640632 125.766692 
L 173.726434 122.336031 
L 174.812235 126.46553 
L 175.898036 122.304266 
L 176.983837 127.799676 
L 178.069638 119.985393 
L 179.155439 121.541897 
L 180.24124 114.172329 
L 181.327042 117.952409 
L 182.412843 112.52053 
L 183.498644 119.508912 
L 184.584445 114.140564 
L 185.670246 117.825348 
L 186.756047 117.698286 
L 187.841849 116.173548 
L 188.92765 117.19004 
L 190.013451 107.406304 
L 191.099252 105.690974 
L 192.185053 107.755723 
L 193.270854 102.228548 
L 194.356656 106.040393 
L 195.442457 111.313445 
L 196.528258 106.262751 
L 197.614059 103.975644 
L 198.69986 105.881566 
L 199.785661 101.148525 
L 200.871462 98.766122 
L 201.957264 96.955496 
L 203.043065 97.813161 
L 204.128866 94.827215 
L 205.214667 95.240165 
L 206.300468 97.177853 
L 207.386269 98.543764 
L 208.472071 93.651896 
L 209.557872 92.889527 
L 211.729474 90.634186 
L 212.815275 91.110666 
L 213.901076 90.761247 
L 214.986877 89.458867 
L 216.072679 89.172978 
L 217.15848 89.998878 
L 218.244281 89.681224 
L 219.330082 88.220017 
L 220.415883 87.902363 
L 221.501684 87.870598 
L 222.587486 87.23529 
L 223.673287 87.203525 
L 224.759088 87.838833 
L 225.844889 141.014072 
L 226.93069 146.31889 
L 228.016491 153.624926 
L 229.102292 144.698856 
L 230.188094 149.177774 
L 231.273895 137.774004 
L 232.359696 136.249266 
L 233.445497 142.189391 
L 234.531298 133.072728 
L 235.617099 138.059892 
L 236.702901 132.977432 
L 237.788702 134.819824 
L 238.874503 138.885792 
L 239.960304 141.172899 
L 241.046105 129.89619 
L 242.131906 130.182079 
L 243.217708 141.808206 
L 244.303509 150.384858 
L 245.38931 142.379983 
L 246.475111 133.358616 
L 247.560912 136.376327 
L 248.646713 128.816168 
L 249.732514 141.935268 
L 250.818316 128.307922 
L 251.904117 129.959721 
L 252.989918 132.659778 
L 254.075719 135.042181 
L 255.16152 135.105712 
L 256.247321 125.957284 
L 257.333123 134.883354 
L 258.418924 130.817386 
L 259.504725 129.356179 
L 260.590526 134.248047 
L 261.676327 131.643286 
L 263.847929 124.33725 
L 264.933731 135.296304 
L 266.019532 133.549209 
L 267.105333 132.755074 
L 268.191134 133.326851 
L 269.276935 138.34578 
L 270.362736 134.692762 
L 271.448538 135.201008 
L 272.534339 129.959721 
L 273.62014 134.311578 
L 274.705941 132.119767 
L 275.791742 128.816168 
L 276.877543 129.260883 
L 277.963344 125.861988 
L 279.049146 126.719653 
L 280.134947 123.384288 
L 281.220748 126.306703 
L 282.306549 120.461874 
L 283.39235 126.243172 
L 284.478151 122.876042 
L 285.563953 126.179641 
L 286.649754 123.829004 
L 288.821356 129.387944 
L 289.907157 121.478366 
L 290.992958 127.323195 
L 292.07876 123.638411 
L 293.164561 123.701942 
L 294.250362 124.654903 
L 295.336163 113.759379 
L 296.421964 123.288992 
L 297.507765 122.177204 
L 298.593566 111.567568 
L 299.679368 125.544334 
L 300.765169 116.078252 
L 301.85097 119.985393 
L 302.936771 114.23586 
L 304.022572 112.298172 
L 305.108373 113.981737 
L 306.194175 109.884004 
L 307.279976 119.381851 
L 308.365777 118.047705 
L 309.451578 122.399562 
L 310.537379 116.36414 
L 311.62318 111.408742 
L 312.708981 111.28168 
L 313.794783 110.201657 
L 314.880584 111.059322 
L 315.966385 107.374539 
L 317.052186 115.157056 
L 318.137987 119.032432 
L 319.223788 111.122853 
L 320.30959 107.565131 
L 321.395391 108.931042 
L 322.481192 108.105142 
L 323.566993 103.213275 
L 324.652794 105.436851 
L 325.738595 110.582842 
L 326.824396 104.325063 
L 327.910198 105.78627 
L 328.995999 105.78627 
L 330.0818 101.212056 
L 331.167601 108.009846 
L 332.253402 106.358047 
L 333.339203 99.814379 
L 334.425005 100.354391 
L 335.510806 103.753286 
L 336.596607 104.865074 
L 337.682408 102.450906 
L 338.768209 97.209619 
L 339.85401 99.750849 
L 340.939811 101.307352 
L 342.025613 97.590803 
L 343.111414 100.449687 
L 344.197215 97.940222 
L 345.283016 101.370883 
L 346.368817 97.019026 
L 347.454618 96.320188 
L 348.54042 93.842489 
L 349.626221 94.541327 
L 350.712022 93.270712 
L 351.797823 95.716646 
L 352.883624 91.936566 
L 353.969425 91.84127 
L 355.055227 89.681224 
L 356.141028 89.71299 
L 357.226829 90.53889 
L 358.31263 89.141213 
L 359.398431 90.983605 
L 360.484232 90.856543 
L 361.570033 87.552944 
L 362.655835 88.06119 
L 363.741636 87.807067 
L 364.827437 86.822341 
L 365.913238 86.917637 
L 366.999039 86.155268 
L 368.08484 86.34586 
L 369.170642 91.42832 
L 370.256443 92.7307 
L 371.342244 93.238947 
L 372.428045 95.144869 
L 373.513846 96.542546 
L 374.599647 94.287204 
L 375.685448 93.111885 
L 376.77125 95.811942 
L 377.857051 96.351953 
L 378.942852 96.351953 
L 380.028653 94.001316 
L 381.114454 96.288423 
L 382.200255 95.462523 
L 383.286057 101.084994 
L 384.371858 96.415484 
L 385.457659 99.623787 
L 386.54346 94.763685 
L 387.629261 95.017808 
L 388.715062 95.62135 
L 389.800863 99.306133 
L 390.886665 96.002534 
L 391.972466 95.811942 
L 393.058267 97.781395 
L 394.144068 95.017808 
L 395.229869 95.049573 
L 396.31567 97.114322 
L 397.401472 95.144869 
L 398.487273 95.176634 
L 398.487273 95.176634 
" clip-path="url(#p9ef291c70a)" style="fill: none; stroke: #ff7f0e; stroke-width: 1.5; stroke-linecap: square"/>
   </g>
   <g id="line2d_21">
    <path d="M 73.832727 295.488 
L 74.918528 287.360445 
L 76.00433 287.535702 
L 77.090131 282.343706 
L 78.175932 278.027997 
L 79.261733 279.977734 
L 80.347534 277.064082 
L 81.433335 276.516403 
L 82.519137 267.162047 
L 83.604938 265.935247 
L 84.690739 266.811533 
L 85.77654 265.475196 
L 86.862341 272.638836 
L 87.948142 265.650454 
L 89.033943 255.857955 
L 90.119745 258.267742 
L 91.205546 256.602798 
L 92.291347 257.479085 
L 93.377148 256.909499 
L 94.462949 255.836048 
L 95.54875 268.498384 
L 96.634552 270.382399 
L 97.720353 270.491935 
L 98.806154 272.003529 
L 100.977756 264.182674 
L 102.063557 265.475196 
L 103.149358 260.918508 
L 104.23516 263.284481 
L 105.320961 258.377278 
L 106.406762 260.787065 
L 107.492563 259.0564 
L 108.578364 254.58734 
L 109.664165 257.785785 
L 110.749967 254.477804 
L 111.835768 258.662071 
L 112.921569 257.851506 
L 115.093171 251.783224 
L 116.178972 254.390176 
L 117.264773 251.104102 
L 118.350575 247.248443 
L 119.436376 249.241994 
L 120.522177 248.431429 
L 121.607978 246.262621 
L 122.693779 240.435317 
L 123.77958 244.225255 
L 125.951183 234.257499 
L 127.036984 239.49331 
L 128.122785 232.17632 
L 129.208586 236.733008 
L 130.294387 237.25878 
L 131.380189 233.24977 
L 132.46599 232.899256 
L 133.551791 233.775542 
L 134.637592 232.198227 
L 137.894995 231.497198 
L 138.980797 257.28192 
L 140.066598 262.933966 
L 141.152399 256.077027 
L 142.2382 250.381166 
L 143.324001 260.348922 
L 144.409802 257.413363 
L 145.495604 261.159487 
L 146.581405 264.095046 
L 147.667206 247.489422 
L 148.753007 249.001015 
L 149.838808 255.989398 
L 150.924609 253.689147 
L 152.01041 249.636323 
L 153.096212 249.417251 
L 154.182013 251.104102 
L 155.267814 250.337352 
L 156.353615 247.993286 
L 157.439416 245.167263 
L 158.525217 252.988118 
L 159.611019 246.394064 
L 160.69682 249.307715 
L 161.782621 244.663398 
L 162.868422 242.49459 
L 163.954223 251.454617 
L 165.040024 244.42242 
L 166.125825 249.285808 
L 167.211627 244.11572 
L 168.297428 246.109271 
L 169.383229 250.928845 
L 170.46903 235.309043 
L 171.554831 239.756196 
L 172.640632 241.202068 
L 173.726434 242.275518 
L 174.812235 244.181441 
L 175.898036 236.470122 
L 176.983837 245.232984 
L 178.069638 238.200787 
L 179.155439 237.149244 
L 180.24124 234.191778 
L 181.327042 234.323221 
L 182.412843 229.766532 
L 183.498644 229.744625 
L 184.584445 227.028138 
L 185.670246 234.914714 
L 186.756047 231.781991 
L 187.841849 234.586107 
L 188.92765 236.404401 
L 190.013451 229.021689 
L 191.099252 228.955968 
L 192.185053 234.345128 
L 193.270854 223.917322 
L 194.356656 233.468842 
L 195.442457 234.651828 
L 196.528258 231.562919 
L 197.614059 226.787159 
L 198.69986 228.693082 
L 199.785661 223.8516 
L 200.871462 219.733055 
L 201.957264 217.082289 
L 203.043065 222.099028 
L 204.128866 217.191825 
L 205.214667 221.113206 
L 206.300468 224.465001 
L 207.386269 220.477898 
L 209.557872 217.914761 
L 211.729474 214.015287 
L 212.815275 216.030746 
L 213.901076 215.636417 
L 214.986877 214.190545 
L 216.072679 214.431523 
L 217.15848 216.797496 
L 218.244281 214.803945 
L 219.330082 213.664773 
L 220.415883 212.985651 
L 221.501684 213.905752 
L 222.587486 214.102916 
L 223.673287 213.53333 
L 224.759088 213.336166 
L 225.844889 240.41341 
L 228.016491 257.172384 
L 229.102292 252.922396 
L 230.188094 243.743298 
L 231.273895 241.355418 
L 232.359696 243.151805 
L 233.445497 255.35409 
L 234.531298 247.095093 
L 235.617099 245.211077 
L 236.702901 239.690474 
L 237.788702 247.27035 
L 238.874503 243.480412 
L 239.960304 252.65951 
L 241.046105 241.968818 
L 242.131906 238.441766 
L 243.217708 251.126009 
L 244.303509 249.417251 
L 245.38931 250.906938 
L 246.475111 234.301314 
L 247.560912 237.981716 
L 248.646713 238.003623 
L 249.732514 249.417251 
L 250.818316 238.682745 
L 251.904117 249.132458 
L 252.989918 243.721391 
L 254.075719 242.888919 
L 255.16152 244.553863 
L 256.247321 241.399232 
L 257.333123 243.984277 
L 258.418924 239.624753 
L 259.504725 239.361867 
L 260.590526 246.131178 
L 261.676327 243.918555 
L 262.762128 243.940462 
L 263.847929 235.33095 
L 264.933731 246.306435 
L 266.019532 241.72784 
L 267.105333 242.735569 
L 268.191134 241.596397 
L 269.276935 253.689147 
L 270.362736 243.677576 
L 271.448538 244.794841 
L 272.534339 243.414691 
L 273.62014 244.334791 
L 274.705941 240.019081 
L 275.791742 245.693035 
L 277.963344 236.711101 
L 279.049146 240.040989 
L 280.134947 233.731728 
L 281.220748 246.700764 
L 282.306549 233.030699 
L 283.39235 239.778103 
L 284.478151 238.200787 
L 285.563953 238.266509 
L 286.649754 241.223975 
L 287.735555 238.069345 
L 288.821356 237.280687 
L 289.907157 243.480412 
L 292.07876 235.63765 
L 293.164561 241.968818 
L 294.250362 237.302594 
L 295.336163 227.772981 
L 296.421964 241.267789 
L 297.507765 234.41085 
L 298.593566 228.736896 
L 299.679368 236.075793 
L 300.765169 236.886358 
L 301.85097 235.900536 
L 302.936771 230.336119 
L 304.022572 234.104149 
L 305.108373 230.489469 
L 306.194175 228.78071 
L 307.279976 236.404401 
L 308.365777 238.573209 
L 309.451578 240.172431 
L 310.537379 238.376045 
L 311.62318 219.22919 
L 312.708981 233.841263 
L 313.794783 221.113206 
L 314.880584 228.057774 
L 315.966385 226.261388 
L 317.052186 235.593836 
L 318.137987 239.186609 
L 319.223788 231.979155 
L 320.30959 232.461113 
L 321.395391 226.568088 
L 322.481192 226.809066 
L 323.566993 218.506254 
L 324.652794 219.163469 
L 325.738595 231.146683 
L 326.824396 219.251098 
L 327.910198 221.332277 
L 328.995999 224.026858 
L 330.0818 216.994661 
L 331.167601 228.035867 
L 332.253402 223.632529 
L 333.339203 220.675063 
L 334.425005 219.185376 
L 335.510806 225.078401 
L 336.596607 227.422467 
L 337.682408 218.988212 
L 338.768209 216.819403 
L 339.85401 217.301361 
L 340.939811 221.113206 
L 342.025613 219.995941 
L 343.111414 220.937949 
L 344.197215 220.280734 
L 345.283016 225.560359 
L 346.368817 217.69569 
L 347.454618 219.645426 
L 348.54042 216.118374 
L 349.626221 215.702138 
L 350.712022 214.059102 
L 351.797823 217.629968 
L 352.883624 220.565527 
L 353.969425 213.117094 
L 355.055227 210.882564 
L 356.141028 210.970193 
L 357.226829 211.561686 
L 358.31263 210.663493 
L 359.398431 215.592603 
L 360.484232 210.356792 
L 361.570033 206.851647 
L 362.655835 212.350344 
L 363.741636 212.744672 
L 364.827437 210.071999 
L 365.913238 206.764019 
L 366.999039 210.3787 
L 368.08484 209.042363 
L 369.170642 216.206003 
L 370.256443 216.512703 
L 371.342244 216.118374 
L 372.428045 217.84904 
L 373.513846 220.959856 
L 374.599647 215.066831 
L 375.685448 215.526881 
L 376.77125 214.365802 
L 377.857051 220.653156 
L 378.942852 213.37998 
L 380.028653 219.426355 
L 381.114454 217.717597 
L 382.200255 215.658324 
L 383.286057 221.00367 
L 384.371858 214.694409 
L 385.457659 216.753682 
L 386.54346 220.806506 
L 387.629261 218.834862 
L 389.800863 212.854208 
L 390.886665 215.176367 
L 391.972466 210.093907 
L 393.058267 219.557798 
L 394.144068 217.717597 
L 395.229869 217.761411 
L 396.31567 221.792328 
L 397.401472 212.678951 
L 398.487273 211.254986 
L 398.487273 211.254986 
" clip-path="url(#p9ef291c70a)" style="fill: none; stroke: #2ca02c; stroke-width: 1.5; stroke-linecap: square"/>
   </g>
   <g id="line2d_22">
    <path d="M 368.08484 88.982386 
L 369.170642 85.710552 
L 370.256443 93.937785 
L 371.342244 93.111885 
L 372.428045 95.526054 
L 373.513846 100.830871 
L 374.599647 97.209619 
L 375.685448 97.527272 
L 376.77125 103.848582 
L 377.857051 101.275587 
L 378.942852 105.309789 
L 380.028653 95.811942 
L 381.114454 102.196783 
L 382.200255 102.00619 
L 383.286057 112.869949 
L 384.371858 111.916988 
L 385.457659 105.690974 
L 386.54346 102.959152 
L 387.629261 103.403867 
L 388.715062 102.546202 
L 389.800863 101.084994 
L 390.886665 105.818035 
L 391.972466 104.039174 
L 393.058267 107.02512 
L 394.144068 118.746543 
L 395.229869 107.978081 
L 396.31567 111.567568 
L 397.401472 116.491202 
L 398.487273 123.384288 
L 398.487273 123.384288 
" clip-path="url(#p9ef291c70a)" style="fill: none; stroke: #d62728; stroke-width: 1.5; stroke-linecap: square"/>
   </g>
   <g id="line2d_23">
    <path d="M 368.08484 213.182815 
L 369.170642 204.967632 
L 370.256443 209.108084 
L 371.342244 215.285902 
L 372.428045 216.140282 
L 373.513846 223.457272 
L 374.599647 217.279454 
L 375.685448 214.562966 
L 376.77125 226.721438 
L 377.857051 222.668614 
L 378.942852 222.164749 
L 380.028653 216.53461 
L 381.114454 227.24721 
L 382.200255 221.222742 
L 383.286057 225.450823 
L 384.371858 224.443094 
L 385.457659 218.944397 
L 386.54346 218.812955 
L 387.629261 224.224022 
L 388.715062 225.757523 
L 389.800863 220.981763 
L 390.886665 218.221461 
L 391.972466 218.199554 
L 393.058267 219.448262 
L 394.144068 227.729167 
L 395.229869 221.879956 
L 396.31567 225.93278 
L 397.401472 229.087411 
L 398.487273 226.918602 
L 398.487273 226.918602 
" clip-path="url(#p9ef291c70a)" style="fill: none; stroke: #9467bd; stroke-width: 1.5; stroke-linecap: square"/>
   </g>
   <g id="patch_3">
    <path d="M 57.6 307.584 
L 57.6 41.472 
" style="fill: none; stroke: #000000; stroke-width: 0.8; stroke-linejoin: miter; stroke-linecap: square"/>
   </g>
   <g id="patch_4">
    <path d="M 414.72 307.584 
L 414.72 41.472 
" style="fill: none; stroke: #000000; stroke-width: 0.8; stroke-linejoin: miter; stroke-linecap: square"/>
   </g>
   <g id="patch_5">
    <path d="M 57.6 307.584 
L 414.72 307.584 
" style="fill: none; stroke: #000000; stroke-width: 0.8; stroke-linejoin: miter; stroke-linecap: square"/>
   </g>
   <g id="patch_6">
    <path d="M 57.6 41.472 
L 414.72 41.472 
" style="fill: none; stroke: #000000; stroke-width: 0.8; stroke-linejoin: miter; stroke-linecap: square"/>
   </g>
   <g id="text_21">
    <!-- Learning Curves -->
    <g transform="translate(187.37625 35.472) scale(0.12 -0.12)">
     <defs>
      <path id="DejaVuSans-4c" d="M 628 4666 
L 1259 4666 
L 1259 531 
L 3531 531 
L 3531 0 
L 628 0 
L 628 4666 
z
" transform="scale(0.015625)"/>
      <path id="DejaVuSans-65" d="M 3597 1894 
L 3597 1613 
L 953 1613 
Q 991 1019 1311 708 
Q 1631 397 2203 397 
Q 2534 397 2845 478 
Q 3156 559 3463 722 
L 3463 178 
Q 3153 47 2828 -22 
Q 2503 -91 2169 -91 
Q 1331 -91 842 396 
Q 353 884 353 1716 
Q 353 2575 817 3079 
Q 1281 3584 2069 3584 
Q 2775 3584 3186 3129 
Q 3597 2675 3597 1894 
z
M 3022 2063 
Q 3016 2534 2758 2815 
Q 2500 3097 2075 3097 
Q 1594 3097 1305 2825 
Q 1016 2553 972 2059 
L 3022 2063 
z
" transform="scale(0.015625)"/>
      <path id="DejaVuSans-6e" d="M 3513 2113 
L 3513 0 
L 2938 0 
L 2938 2094 
Q 2938 2591 2744 2837 
Q 2550 3084 2163 3084 
Q 1697 3084 1428 2787 
Q 1159 2491 1159 1978 
L 1159 0 
L 581 0 
L 581 3500 
L 1159 3500 
L 1159 2956 
Q 1366 3272 1645 3428 
Q 1925 3584 2291 3584 
Q 2894 3584 3203 3211 
Q 3513 2838 3513 2113 
z
" transform="scale(0.015625)"/>
      <path id="DejaVuSans-69" d="M 603 3500 
L 1178 3500 
L 1178 0 
L 603 0 
L 603 3500 
z
M 603 4863 
L 1178 4863 
L 1178 4134 
L 603 4134 
L 603 4863 
z
" transform="scale(0.015625)"/>
      <path id="DejaVuSans-67" d="M 2906 1791 
Q 2906 2416 2648 2759 
Q 2391 3103 1925 3103 
Q 1463 3103 1205 2759 
Q 947 2416 947 1791 
Q 947 1169 1205 825 
Q 1463 481 1925 481 
Q 2391 481 2648 825 
Q 2906 1169 2906 1791 
z
M 3481 434 
Q 3481 -459 3084 -895 
Q 2688 -1331 1869 -1331 
Q 1566 -1331 1297 -1286 
Q 1028 -1241 775 -1147 
L 775 -588 
Q 1028 -725 1275 -790 
Q 1522 -856 1778 -856 
Q 2344 -856 2625 -561 
Q 2906 -266 2906 331 
L 2906 616 
Q 2728 306 2450 153 
Q 2172 0 1784 0 
Q 1141 0 747 490 
Q 353 981 353 1791 
Q 353 2603 747 3093 
Q 1141 3584 1784 3584 
Q 2172 3584 2450 3431 
Q 2728 3278 2906 2969 
L 2906 3500 
L 3481 3500 
L 3481 434 
z
" transform="scale(0.015625)"/>
      <path id="DejaVuSans-20" transform="scale(0.015625)"/>
      <path id="DejaVuSans-43" d="M 4122 4306 
L 4122 3641 
Q 3803 3938 3442 4084 
Q 3081 4231 2675 4231 
Q 1875 4231 1450 3742 
Q 1025 3253 1025 2328 
Q 1025 1406 1450 917 
Q 1875 428 2675 428 
Q 3081 428 3442 575 
Q 3803 722 4122 1019 
L 4122 359 
Q 3791 134 3420 21 
Q 3050 -91 2638 -91 
Q 1578 -91 968 557 
Q 359 1206 359 2328 
Q 359 3453 968 4101 
Q 1578 4750 2638 4750 
Q 3056 4750 3426 4639 
Q 3797 4528 4122 4306 
z
" transform="scale(0.015625)"/>
      <path id="DejaVuSans-76" d="M 191 3500 
L 800 3500 
L 1894 563 
L 2988 3500 
L 3597 3500 
L 2284 0 
L 1503 0 
L 191 3500 
z
" transform="scale(0.015625)"/>
     </defs>
     <use xlink:href="#DejaVuSans-4c"/>
     <use xlink:href="#DejaVuSans-65" x="53.962891"/>
     <use xlink:href="#DejaVuSans-61" x="115.486328"/>
     <use xlink:href="#DejaVuSans-72" x="176.765625"/>
     <use xlink:href="#DejaVuSans-6e" x="216.128906"/>
     <use xlink:href="#DejaVuSans-69" x="279.507812"/>
     <use xlink:href="#DejaVuSans-6e" x="307.291016"/>
     <use xlink:href="#DejaVuSans-67" x="370.669922"/>
     <use xlink:href="#DejaVuSans-20" x="434.146484"/>
     <use xlink:href="#DejaVuSans-43" x="465.933594"/>
     <use xlink:href="#DejaVuSans-75" x="535.757812"/>
     <use xlink:href="#DejaVuSans-72" x="599.136719"/>
     <use xlink:href="#DejaVuSans-76" x="640.25"/>
     <use xlink:href="#DejaVuSans-65" x="699.429688"/>
     <use xlink:href="#DejaVuSans-73" x="760.953125"/>
    </g>
   </g>
   <g id="legend_1">
    <g id="patch_7">
     <path d="M 214.18875 212.723313 
L 407.72 212.723313 
Q 409.72 212.723313 409.72 210.723313 
L 409.72 138.332688 
Q 409.72 136.332688 407.72 136.332688 
L 214.18875 136.332688 
Q 212.18875 136.332688 212.18875 138.332688 
L 212.18875 210.723313 
Q 212.18875 212.723313 214.18875 212.723313 
z
" style="fill: #ffffff; opacity: 0.8; stroke: #cccccc; stroke-linejoin: miter"/>
    </g>
    <g id="line2d_24">
     <path d="M 216.18875 144.431125 
L 226.18875 144.431125 
L 236.18875 144.431125 
" style="fill: none; stroke: #1f77b4; stroke-width: 1.5; stroke-linecap: square"/>
    </g>
    <g id="text_22">
     <!-- Train Accuracy -->
     <g transform="translate(244.18875 147.931125) scale(0.1 -0.1)">
      <defs>
       <path id="DejaVuSans-54" d="M -19 4666 
L 3928 4666 
L 3928 4134 
L 2272 4134 
L 2272 0 
L 1638 0 
L 1638 4134 
L -19 4134 
L -19 4666 
z
" transform="scale(0.015625)"/>
      </defs>
      <use xlink:href="#DejaVuSans-54"/>
      <use xlink:href="#DejaVuSans-72" x="46.333984"/>
      <use xlink:href="#DejaVuSans-61" x="87.447266"/>
      <use xlink:href="#DejaVuSans-69" x="148.726562"/>
      <use xlink:href="#DejaVuSans-6e" x="176.509766"/>
      <use xlink:href="#DejaVuSans-20" x="239.888672"/>
      <use xlink:href="#DejaVuSans-41" x="271.675781"/>
      <use xlink:href="#DejaVuSans-63" x="338.333984"/>
      <use xlink:href="#DejaVuSans-63" x="393.314453"/>
      <use xlink:href="#DejaVuSans-75" x="448.294922"/>
      <use xlink:href="#DejaVuSans-72" x="511.673828"/>
      <use xlink:href="#DejaVuSans-61" x="552.787109"/>
      <use xlink:href="#DejaVuSans-63" x="614.066406"/>
      <use xlink:href="#DejaVuSans-79" x="669.046875"/>
     </g>
    </g>
    <g id="line2d_25">
     <path d="M 216.18875 159.10925 
L 226.18875 159.10925 
L 236.18875 159.10925 
" style="fill: none; stroke: #ff7f0e; stroke-width: 1.5; stroke-linecap: square"/>
    </g>
    <g id="text_23">
     <!-- Validation Accuracy -->
     <g transform="translate(244.18875 162.60925) scale(0.1 -0.1)">
      <defs>
       <path id="DejaVuSans-56" d="M 1831 0 
L 50 4666 
L 709 4666 
L 2188 738 
L 3669 4666 
L 4325 4666 
L 2547 0 
L 1831 0 
z
" transform="scale(0.015625)"/>
       <path id="DejaVuSans-6c" d="M 603 4863 
L 1178 4863 
L 1178 0 
L 603 0 
L 603 4863 
z
" transform="scale(0.015625)"/>
       <path id="DejaVuSans-64" d="M 2906 2969 
L 2906 4863 
L 3481 4863 
L 3481 0 
L 2906 0 
L 2906 525 
Q 2725 213 2448 61 
Q 2172 -91 1784 -91 
Q 1150 -91 751 415 
Q 353 922 353 1747 
Q 353 2572 751 3078 
Q 1150 3584 1784 3584 
Q 2172 3584 2448 3432 
Q 2725 3281 2906 2969 
z
M 947 1747 
Q 947 1113 1208 752 
Q 1469 391 1925 391 
Q 2381 391 2643 752 
Q 2906 1113 2906 1747 
Q 2906 2381 2643 2742 
Q 2381 3103 1925 3103 
Q 1469 3103 1208 2742 
Q 947 2381 947 1747 
z
" transform="scale(0.015625)"/>
       <path id="DejaVuSans-74" d="M 1172 4494 
L 1172 3500 
L 2356 3500 
L 2356 3053 
L 1172 3053 
L 1172 1153 
Q 1172 725 1289 603 
Q 1406 481 1766 481 
L 2356 481 
L 2356 0 
L 1766 0 
Q 1100 0 847 248 
Q 594 497 594 1153 
L 594 3053 
L 172 3053 
L 172 3500 
L 594 3500 
L 594 4494 
L 1172 4494 
z
" transform="scale(0.015625)"/>
      </defs>
      <use xlink:href="#DejaVuSans-56"/>
      <use xlink:href="#DejaVuSans-61" x="60.658203"/>
      <use xlink:href="#DejaVuSans-6c" x="121.9375"/>
      <use xlink:href="#DejaVuSans-69" x="149.720703"/>
      <use xlink:href="#DejaVuSans-64" x="177.503906"/>
      <use xlink:href="#DejaVuSans-61" x="240.980469"/>
      <use xlink:href="#DejaVuSans-74" x="302.259766"/>
      <use xlink:href="#DejaVuSans-69" x="341.46875"/>
      <use xlink:href="#DejaVuSans-6f" x="369.251953"/>
      <use xlink:href="#DejaVuSans-6e" x="430.433594"/>
      <use xlink:href="#DejaVuSans-20" x="493.8125"/>
      <use xlink:href="#DejaVuSans-41" x="525.599609"/>
      <use xlink:href="#DejaVuSans-63" x="592.257812"/>
      <use xlink:href="#DejaVuSans-63" x="647.238281"/>
      <use xlink:href="#DejaVuSans-75" x="702.21875"/>
      <use xlink:href="#DejaVuSans-72" x="765.597656"/>
      <use xlink:href="#DejaVuSans-61" x="806.710938"/>
      <use xlink:href="#DejaVuSans-63" x="867.990234"/>
      <use xlink:href="#DejaVuSans-79" x="922.970703"/>
     </g>
    </g>
    <g id="line2d_26">
     <path d="M 216.18875 173.787375 
L 226.18875 173.787375 
L 236.18875 173.787375 
" style="fill: none; stroke: #2ca02c; stroke-width: 1.5; stroke-linecap: square"/>
    </g>
    <g id="text_24">
     <!-- Robust Validation Accuracy -->
     <g transform="translate(244.18875 177.287375) scale(0.1 -0.1)">
      <defs>
       <path id="DejaVuSans-52" d="M 2841 2188 
Q 3044 2119 3236 1894 
Q 3428 1669 3622 1275 
L 4263 0 
L 3584 0 
L 2988 1197 
Q 2756 1666 2539 1819 
Q 2322 1972 1947 1972 
L 1259 1972 
L 1259 0 
L 628 0 
L 628 4666 
L 2053 4666 
Q 2853 4666 3247 4331 
Q 3641 3997 3641 3322 
Q 3641 2881 3436 2590 
Q 3231 2300 2841 2188 
z
M 1259 4147 
L 1259 2491 
L 2053 2491 
Q 2509 2491 2742 2702 
Q 2975 2913 2975 3322 
Q 2975 3731 2742 3939 
Q 2509 4147 2053 4147 
L 1259 4147 
z
" transform="scale(0.015625)"/>
       <path id="DejaVuSans-62" d="M 3116 1747 
Q 3116 2381 2855 2742 
Q 2594 3103 2138 3103 
Q 1681 3103 1420 2742 
Q 1159 2381 1159 1747 
Q 1159 1113 1420 752 
Q 1681 391 2138 391 
Q 2594 391 2855 752 
Q 3116 1113 3116 1747 
z
M 1159 2969 
Q 1341 3281 1617 3432 
Q 1894 3584 2278 3584 
Q 2916 3584 3314 3078 
Q 3713 2572 3713 1747 
Q 3713 922 3314 415 
Q 2916 -91 2278 -91 
Q 1894 -91 1617 61 
Q 1341 213 1159 525 
L 1159 0 
L 581 0 
L 581 4863 
L 1159 4863 
L 1159 2969 
z
" transform="scale(0.015625)"/>
      </defs>
      <use xlink:href="#DejaVuSans-52"/>
      <use xlink:href="#DejaVuSans-6f" x="64.982422"/>
      <use xlink:href="#DejaVuSans-62" x="126.164062"/>
      <use xlink:href="#DejaVuSans-75" x="189.640625"/>
      <use xlink:href="#DejaVuSans-73" x="253.019531"/>
      <use xlink:href="#DejaVuSans-74" x="305.119141"/>
      <use xlink:href="#DejaVuSans-20" x="344.328125"/>
      <use xlink:href="#DejaVuSans-56" x="376.115234"/>
      <use xlink:href="#DejaVuSans-61" x="436.773438"/>
      <use xlink:href="#DejaVuSans-6c" x="498.052734"/>
      <use xlink:href="#DejaVuSans-69" x="525.835938"/>
      <use xlink:href="#DejaVuSans-64" x="553.619141"/>
      <use xlink:href="#DejaVuSans-61" x="617.095703"/>
      <use xlink:href="#DejaVuSans-74" x="678.375"/>
      <use xlink:href="#DejaVuSans-69" x="717.583984"/>
      <use xlink:href="#DejaVuSans-6f" x="745.367188"/>
      <use xlink:href="#DejaVuSans-6e" x="806.548828"/>
      <use xlink:href="#DejaVuSans-20" x="869.927734"/>
      <use xlink:href="#DejaVuSans-41" x="901.714844"/>
      <use xlink:href="#DejaVuSans-63" x="968.373047"/>
      <use xlink:href="#DejaVuSans-63" x="1023.353516"/>
      <use xlink:href="#DejaVuSans-75" x="1078.333984"/>
      <use xlink:href="#DejaVuSans-72" x="1141.712891"/>
      <use xlink:href="#DejaVuSans-61" x="1182.826172"/>
      <use xlink:href="#DejaVuSans-63" x="1244.105469"/>
      <use xlink:href="#DejaVuSans-79" x="1299.085938"/>
     </g>
    </g>
    <g id="line2d_27">
     <path d="M 216.18875 188.4655 
L 226.18875 188.4655 
L 236.18875 188.4655 
" style="fill: none; stroke: #d62728; stroke-width: 1.5; stroke-linecap: square"/>
    </g>
    <g id="text_25">
     <!-- SWA Validation Accuracy -->
     <g transform="translate(244.18875 191.9655) scale(0.1 -0.1)">
      <defs>
       <path id="DejaVuSans-53" d="M 3425 4513 
L 3425 3897 
Q 3066 4069 2747 4153 
Q 2428 4238 2131 4238 
Q 1616 4238 1336 4038 
Q 1056 3838 1056 3469 
Q 1056 3159 1242 3001 
Q 1428 2844 1947 2747 
L 2328 2669 
Q 3034 2534 3370 2195 
Q 3706 1856 3706 1288 
Q 3706 609 3251 259 
Q 2797 -91 1919 -91 
Q 1588 -91 1214 -16 
Q 841 59 441 206 
L 441 856 
Q 825 641 1194 531 
Q 1563 422 1919 422 
Q 2459 422 2753 634 
Q 3047 847 3047 1241 
Q 3047 1584 2836 1778 
Q 2625 1972 2144 2069 
L 1759 2144 
Q 1053 2284 737 2584 
Q 422 2884 422 3419 
Q 422 4038 858 4394 
Q 1294 4750 2059 4750 
Q 2388 4750 2728 4690 
Q 3069 4631 3425 4513 
z
" transform="scale(0.015625)"/>
       <path id="DejaVuSans-57" d="M 213 4666 
L 850 4666 
L 1831 722 
L 2809 4666 
L 3519 4666 
L 4500 722 
L 5478 4666 
L 6119 4666 
L 4947 0 
L 4153 0 
L 3169 4050 
L 2175 0 
L 1381 0 
L 213 4666 
z
" transform="scale(0.015625)"/>
      </defs>
      <use xlink:href="#DejaVuSans-53"/>
      <use xlink:href="#DejaVuSans-57" x="63.476562"/>
      <use xlink:href="#DejaVuSans-41" x="156.853516"/>
      <use xlink:href="#DejaVuSans-20" x="225.261719"/>
      <use xlink:href="#DejaVuSans-56" x="257.048828"/>
      <use xlink:href="#DejaVuSans-61" x="317.707031"/>
      <use xlink:href="#DejaVuSans-6c" x="378.986328"/>
      <use xlink:href="#DejaVuSans-69" x="406.769531"/>
      <use xlink:href="#DejaVuSans-64" x="434.552734"/>
      <use xlink:href="#DejaVuSans-61" x="498.029297"/>
      <use xlink:href="#DejaVuSans-74" x="559.308594"/>
      <use xlink:href="#DejaVuSans-69" x="598.517578"/>
      <use xlink:href="#DejaVuSans-6f" x="626.300781"/>
      <use xlink:href="#DejaVuSans-6e" x="687.482422"/>
      <use xlink:href="#DejaVuSans-20" x="750.861328"/>
      <use xlink:href="#DejaVuSans-41" x="782.648438"/>
      <use xlink:href="#DejaVuSans-63" x="849.306641"/>
      <use xlink:href="#DejaVuSans-63" x="904.287109"/>
      <use xlink:href="#DejaVuSans-75" x="959.267578"/>
      <use xlink:href="#DejaVuSans-72" x="1022.646484"/>
      <use xlink:href="#DejaVuSans-61" x="1063.759766"/>
      <use xlink:href="#DejaVuSans-63" x="1125.039062"/>
      <use xlink:href="#DejaVuSans-79" x="1180.019531"/>
     </g>
    </g>
    <g id="line2d_28">
     <path d="M 216.18875 203.143625 
L 226.18875 203.143625 
L 236.18875 203.143625 
" style="fill: none; stroke: #9467bd; stroke-width: 1.5; stroke-linecap: square"/>
    </g>
    <g id="text_26">
     <!-- SWA Robust Validation Accuracy -->
     <g transform="translate(244.18875 206.643625) scale(0.1 -0.1)">
      <use xlink:href="#DejaVuSans-53"/>
      <use xlink:href="#DejaVuSans-57" x="63.476562"/>
      <use xlink:href="#DejaVuSans-41" x="156.853516"/>
      <use xlink:href="#DejaVuSans-20" x="225.261719"/>
      <use xlink:href="#DejaVuSans-52" x="257.048828"/>
      <use xlink:href="#DejaVuSans-6f" x="322.03125"/>
      <use xlink:href="#DejaVuSans-62" x="383.212891"/>
      <use xlink:href="#DejaVuSans-75" x="446.689453"/>
      <use xlink:href="#DejaVuSans-73" x="510.068359"/>
      <use xlink:href="#DejaVuSans-74" x="562.167969"/>
      <use xlink:href="#DejaVuSans-20" x="601.376953"/>
      <use xlink:href="#DejaVuSans-56" x="633.164062"/>
      <use xlink:href="#DejaVuSans-61" x="693.822266"/>
      <use xlink:href="#DejaVuSans-6c" x="755.101562"/>
      <use xlink:href="#DejaVuSans-69" x="782.884766"/>
      <use xlink:href="#DejaVuSans-64" x="810.667969"/>
      <use xlink:href="#DejaVuSans-61" x="874.144531"/>
      <use xlink:href="#DejaVuSans-74" x="935.423828"/>
      <use xlink:href="#DejaVuSans-69" x="974.632812"/>
      <use xlink:href="#DejaVuSans-6f" x="1002.416016"/>
      <use xlink:href="#DejaVuSans-6e" x="1063.597656"/>
      <use xlink:href="#DejaVuSans-20" x="1126.976562"/>
      <use xlink:href="#DejaVuSans-41" x="1158.763672"/>
      <use xlink:href="#DejaVuSans-63" x="1225.421875"/>
      <use xlink:href="#DejaVuSans-63" x="1280.402344"/>
      <use xlink:href="#DejaVuSans-75" x="1335.382812"/>
      <use xlink:href="#DejaVuSans-72" x="1398.761719"/>
      <use xlink:href="#DejaVuSans-61" x="1439.875"/>
      <use xlink:href="#DejaVuSans-63" x="1501.154297"/>
      <use xlink:href="#DejaVuSans-79" x="1556.134766"/>
     </g>
    </g>
   </g>
  </g>
 </g>
 <defs>
  <clipPath id="p9ef291c70a">
   <rect x="57.6" y="41.472" width="357.12" height="266.112"/>
  </clipPath>
 </defs>
</svg>
