<?xml version="1.0" encoding="utf-8" standalone="no"?>
<!DOCTYPE svg PUBLIC "-//W3C//DTD SVG 1.1//EN"
  "http://www.w3.org/Graphics/SVG/1.1/DTD/svg11.dtd">
<svg xmlns:xlink="http://www.w3.org/1999/xlink" width="460.8pt" height="345.6pt" viewBox="0 0 460.8 345.6" xmlns="http://www.w3.org/2000/svg" version="1.1">
 <metadata>
  <rdf:RDF xmlns:dc="http://purl.org/dc/elements/1.1/" xmlns:cc="http://creativecommons.org/ns#" xmlns:rdf="http://www.w3.org/1999/02/22-rdf-syntax-ns#">
   <cc:Work>
    <dc:type rdf:resource="http://purl.org/dc/dcmitype/StillImage"/>
    <dc:date>2025-07-26T04:17:53.362074</dc:date>
    <dc:format>image/svg+xml</dc:format>
    <dc:creator>
     <cc:Agent>
      <dc:title>Matplotlib v3.9.1, https://matplotlib.org/</dc:title>
     </cc:Agent>
    </dc:creator>
   </cc:Work>
  </rdf:RDF>
 </metadata>
 <defs>
  <style type="text/css">*{stroke-linejoin: round; stroke-linecap: butt}</style>
 </defs>
 <g id="figure_1">
  <g id="patch_1">
   <path d="M 0 345.6 
L 460.8 345.6 
L 460.8 0 
L 0 0 
z
" style="fill: #ffffff"/>
  </g>
  <g id="axes_1">
   <g id="patch_2">
    <path d="M 57.6 307.584 
L 414.72 307.584 
L 414.72 41.472 
L 57.6 41.472 
z
" style="fill: #ffffff"/>
   </g>
   <g id="matplotlib.axis_1">
    <g id="xtick_1">
     <g id="line2d_1">
      <defs>
       <path id="m02ef8336a6" d="M 0 0 
L 0 3.5 
" style="stroke: #000000; stroke-width: 0.8"/>
      </defs>
      <g>
       <use xlink:href="#m02ef8336a6" x="73.832727" y="307.584" style="stroke: #000000; stroke-width: 0.8"/>
      </g>
     </g>
     <g id="text_1">
      <!-- 1 -->
      <g transform="translate(70.651477 322.182437) scale(0.1 -0.1)">
       <defs>
        <path id="DejaVuSans-31" d="M 794 531 
L 1825 531 
L 1825 4091 
L 703 3866 
L 703 4441 
L 1819 4666 
L 2450 4666 
L 2450 531 
L 3481 531 
L 3481 0 
L 794 0 
L 794 531 
z
" transform="scale(0.015625)"/>
       </defs>
       <use xlink:href="#DejaVuSans-31"/>
      </g>
     </g>
    </g>
    <g id="xtick_2">
     <g id="line2d_2">
      <g>
       <use xlink:href="#m02ef8336a6" x="109.664165" y="307.584" style="stroke: #000000; stroke-width: 0.8"/>
      </g>
     </g>
     <g id="text_2">
      <!-- 34 -->
      <g transform="translate(103.301665 322.182437) scale(0.1 -0.1)">
       <defs>
        <path id="DejaVuSans-33" d="M 2597 2516 
Q 3050 2419 3304 2112 
Q 3559 1806 3559 1356 
Q 3559 666 3084 287 
Q 2609 -91 1734 -91 
Q 1441 -91 1130 -33 
Q 819 25 488 141 
L 488 750 
Q 750 597 1062 519 
Q 1375 441 1716 441 
Q 2309 441 2620 675 
Q 2931 909 2931 1356 
Q 2931 1769 2642 2001 
Q 2353 2234 1838 2234 
L 1294 2234 
L 1294 2753 
L 1863 2753 
Q 2328 2753 2575 2939 
Q 2822 3125 2822 3475 
Q 2822 3834 2567 4026 
Q 2313 4219 1838 4219 
Q 1578 4219 1281 4162 
Q 984 4106 628 3988 
L 628 4550 
Q 988 4650 1302 4700 
Q 1616 4750 1894 4750 
Q 2613 4750 3031 4423 
Q 3450 4097 3450 3541 
Q 3450 3153 3228 2886 
Q 3006 2619 2597 2516 
z
" transform="scale(0.015625)"/>
        <path id="DejaVuSans-34" d="M 2419 4116 
L 825 1625 
L 2419 1625 
L 2419 4116 
z
M 2253 4666 
L 3047 4666 
L 3047 1625 
L 3713 1625 
L 3713 1100 
L 3047 1100 
L 3047 0 
L 2419 0 
L 2419 1100 
L 313 1100 
L 313 1709 
L 2253 4666 
z
" transform="scale(0.015625)"/>
       </defs>
       <use xlink:href="#DejaVuSans-33"/>
       <use xlink:href="#DejaVuSans-34" x="63.623047"/>
      </g>
     </g>
    </g>
    <g id="xtick_3">
     <g id="line2d_3">
      <g>
       <use xlink:href="#m02ef8336a6" x="145.495604" y="307.584" style="stroke: #000000; stroke-width: 0.8"/>
      </g>
     </g>
     <g id="text_3">
      <!-- 67 -->
      <g transform="translate(139.133104 322.182437) scale(0.1 -0.1)">
       <defs>
        <path id="DejaVuSans-36" d="M 2113 2584 
Q 1688 2584 1439 2293 
Q 1191 2003 1191 1497 
Q 1191 994 1439 701 
Q 1688 409 2113 409 
Q 2538 409 2786 701 
Q 3034 994 3034 1497 
Q 3034 2003 2786 2293 
Q 2538 2584 2113 2584 
z
M 3366 4563 
L 3366 3988 
Q 3128 4100 2886 4159 
Q 2644 4219 2406 4219 
Q 1781 4219 1451 3797 
Q 1122 3375 1075 2522 
Q 1259 2794 1537 2939 
Q 1816 3084 2150 3084 
Q 2853 3084 3261 2657 
Q 3669 2231 3669 1497 
Q 3669 778 3244 343 
Q 2819 -91 2113 -91 
Q 1303 -91 875 529 
Q 447 1150 447 2328 
Q 447 3434 972 4092 
Q 1497 4750 2381 4750 
Q 2619 4750 2861 4703 
Q 3103 4656 3366 4563 
z
" transform="scale(0.015625)"/>
        <path id="DejaVuSans-37" d="M 525 4666 
L 3525 4666 
L 3525 4397 
L 1831 0 
L 1172 0 
L 2766 4134 
L 525 4134 
L 525 4666 
z
" transform="scale(0.015625)"/>
       </defs>
       <use xlink:href="#DejaVuSans-36"/>
       <use xlink:href="#DejaVuSans-37" x="63.623047"/>
      </g>
     </g>
    </g>
    <g id="xtick_4">
     <g id="line2d_4">
      <g>
       <use xlink:href="#m02ef8336a6" x="181.327042" y="307.584" style="stroke: #000000; stroke-width: 0.8"/>
      </g>
     </g>
     <g id="text_4">
      <!-- 100 -->
      <g transform="translate(171.783292 322.182437) scale(0.1 -0.1)">
       <defs>
        <path id="DejaVuSans-30" d="M 2034 4250 
Q 1547 4250 1301 3770 
Q 1056 3291 1056 2328 
Q 1056 1369 1301 889 
Q 1547 409 2034 409 
Q 2525 409 2770 889 
Q 3016 1369 3016 2328 
Q 3016 3291 2770 3770 
Q 2525 4250 2034 4250 
z
M 2034 4750 
Q 2819 4750 3233 4129 
Q 3647 3509 3647 2328 
Q 3647 1150 3233 529 
Q 2819 -91 2034 -91 
Q 1250 -91 836 529 
Q 422 1150 422 2328 
Q 422 3509 836 4129 
Q 1250 4750 2034 4750 
z
" transform="scale(0.015625)"/>
       </defs>
       <use xlink:href="#DejaVuSans-31"/>
       <use xlink:href="#DejaVuSans-30" x="63.623047"/>
       <use xlink:href="#DejaVuSans-30" x="127.246094"/>
      </g>
     </g>
    </g>
    <g id="xtick_5">
     <g id="line2d_5">
      <g>
       <use xlink:href="#m02ef8336a6" x="217.15848" y="307.584" style="stroke: #000000; stroke-width: 0.8"/>
      </g>
     </g>
     <g id="text_5">
      <!-- 133 -->
      <g transform="translate(207.61473 322.182437) scale(0.1 -0.1)">
       <use xlink:href="#DejaVuSans-31"/>
       <use xlink:href="#DejaVuSans-33" x="63.623047"/>
       <use xlink:href="#DejaVuSans-33" x="127.246094"/>
      </g>
     </g>
    </g>
    <g id="xtick_6">
     <g id="line2d_6">
      <g>
       <use xlink:href="#m02ef8336a6" x="254.075719" y="307.584" style="stroke: #000000; stroke-width: 0.8"/>
      </g>
     </g>
     <g id="text_6">
      <!-- 167 -->
      <g transform="translate(244.531969 322.182437) scale(0.1 -0.1)">
       <use xlink:href="#DejaVuSans-31"/>
       <use xlink:href="#DejaVuSans-36" x="63.623047"/>
       <use xlink:href="#DejaVuSans-37" x="127.246094"/>
      </g>
     </g>
    </g>
    <g id="xtick_7">
     <g id="line2d_7">
      <g>
       <use xlink:href="#m02ef8336a6" x="289.907157" y="307.584" style="stroke: #000000; stroke-width: 0.8"/>
      </g>
     </g>
     <g id="text_7">
      <!-- 200 -->
      <g transform="translate(280.363407 322.182437) scale(0.1 -0.1)">
       <defs>
        <path id="DejaVuSans-32" d="M 1228 531 
L 3431 531 
L 3431 0 
L 469 0 
L 469 531 
Q 828 903 1448 1529 
Q 2069 2156 2228 2338 
Q 2531 2678 2651 2914 
Q 2772 3150 2772 3378 
Q 2772 3750 2511 3984 
Q 2250 4219 1831 4219 
Q 1534 4219 1204 4116 
Q 875 4013 500 3803 
L 500 4441 
Q 881 4594 1212 4672 
Q 1544 4750 1819 4750 
Q 2544 4750 2975 4387 
Q 3406 4025 3406 3419 
Q 3406 3131 3298 2873 
Q 3191 2616 2906 2266 
Q 2828 2175 2409 1742 
Q 1991 1309 1228 531 
z
" transform="scale(0.015625)"/>
       </defs>
       <use xlink:href="#DejaVuSans-32"/>
       <use xlink:href="#DejaVuSans-30" x="63.623047"/>
       <use xlink:href="#DejaVuSans-30" x="127.246094"/>
      </g>
     </g>
    </g>
    <g id="xtick_8">
     <g id="line2d_8">
      <g>
       <use xlink:href="#m02ef8336a6" x="325.738595" y="307.584" style="stroke: #000000; stroke-width: 0.8"/>
      </g>
     </g>
     <g id="text_8">
      <!-- 233 -->
      <g transform="translate(316.194845 322.182437) scale(0.1 -0.1)">
       <use xlink:href="#DejaVuSans-32"/>
       <use xlink:href="#DejaVuSans-33" x="63.623047"/>
       <use xlink:href="#DejaVuSans-33" x="127.246094"/>
      </g>
     </g>
    </g>
    <g id="xtick_9">
     <g id="line2d_9">
      <g>
       <use xlink:href="#m02ef8336a6" x="361.570033" y="307.584" style="stroke: #000000; stroke-width: 0.8"/>
      </g>
     </g>
     <g id="text_9">
      <!-- 266 -->
      <g transform="translate(352.026283 322.182437) scale(0.1 -0.1)">
       <use xlink:href="#DejaVuSans-32"/>
       <use xlink:href="#DejaVuSans-36" x="63.623047"/>
       <use xlink:href="#DejaVuSans-36" x="127.246094"/>
      </g>
     </g>
    </g>
    <g id="xtick_10">
     <g id="line2d_10">
      <g>
       <use xlink:href="#m02ef8336a6" x="398.487273" y="307.584" style="stroke: #000000; stroke-width: 0.8"/>
      </g>
     </g>
     <g id="text_10">
      <!-- 300 -->
      <g transform="translate(388.943523 322.182437) scale(0.1 -0.1)">
       <use xlink:href="#DejaVuSans-33"/>
       <use xlink:href="#DejaVuSans-30" x="63.623047"/>
       <use xlink:href="#DejaVuSans-30" x="127.246094"/>
      </g>
     </g>
    </g>
    <g id="text_11">
     <!-- Epochs -->
     <g transform="translate(218.244375 335.860562) scale(0.1 -0.1)">
      <defs>
       <path id="DejaVuSans-45" d="M 628 4666 
L 3578 4666 
L 3578 4134 
L 1259 4134 
L 1259 2753 
L 3481 2753 
L 3481 2222 
L 1259 2222 
L 1259 531 
L 3634 531 
L 3634 0 
L 628 0 
L 628 4666 
z
" transform="scale(0.015625)"/>
       <path id="DejaVuSans-70" d="M 1159 525 
L 1159 -1331 
L 581 -1331 
L 581 3500 
L 1159 3500 
L 1159 2969 
Q 1341 3281 1617 3432 
Q 1894 3584 2278 3584 
Q 2916 3584 3314 3078 
Q 3713 2572 3713 1747 
Q 3713 922 3314 415 
Q 2916 -91 2278 -91 
Q 1894 -91 1617 61 
Q 1341 213 1159 525 
z
M 3116 1747 
Q 3116 2381 2855 2742 
Q 2594 3103 2138 3103 
Q 1681 3103 1420 2742 
Q 1159 2381 1159 1747 
Q 1159 1113 1420 752 
Q 1681 391 2138 391 
Q 2594 391 2855 752 
Q 3116 1113 3116 1747 
z
" transform="scale(0.015625)"/>
       <path id="DejaVuSans-6f" d="M 1959 3097 
Q 1497 3097 1228 2736 
Q 959 2375 959 1747 
Q 959 1119 1226 758 
Q 1494 397 1959 397 
Q 2419 397 2687 759 
Q 2956 1122 2956 1747 
Q 2956 2369 2687 2733 
Q 2419 3097 1959 3097 
z
M 1959 3584 
Q 2709 3584 3137 3096 
Q 3566 2609 3566 1747 
Q 3566 888 3137 398 
Q 2709 -91 1959 -91 
Q 1206 -91 779 398 
Q 353 888 353 1747 
Q 353 2609 779 3096 
Q 1206 3584 1959 3584 
z
" transform="scale(0.015625)"/>
       <path id="DejaVuSans-63" d="M 3122 3366 
L 3122 2828 
Q 2878 2963 2633 3030 
Q 2388 3097 2138 3097 
Q 1578 3097 1268 2742 
Q 959 2388 959 1747 
Q 959 1106 1268 751 
Q 1578 397 2138 397 
Q 2388 397 2633 464 
Q 2878 531 3122 666 
L 3122 134 
Q 2881 22 2623 -34 
Q 2366 -91 2075 -91 
Q 1284 -91 818 406 
Q 353 903 353 1747 
Q 353 2603 823 3093 
Q 1294 3584 2113 3584 
Q 2378 3584 2631 3529 
Q 2884 3475 3122 3366 
z
" transform="scale(0.015625)"/>
       <path id="DejaVuSans-68" d="M 3513 2113 
L 3513 0 
L 2938 0 
L 2938 2094 
Q 2938 2591 2744 2837 
Q 2550 3084 2163 3084 
Q 1697 3084 1428 2787 
Q 1159 2491 1159 1978 
L 1159 0 
L 581 0 
L 581 4863 
L 1159 4863 
L 1159 2956 
Q 1366 3272 1645 3428 
Q 1925 3584 2291 3584 
Q 2894 3584 3203 3211 
Q 3513 2838 3513 2113 
z
" transform="scale(0.015625)"/>
       <path id="DejaVuSans-73" d="M 2834 3397 
L 2834 2853 
Q 2591 2978 2328 3040 
Q 2066 3103 1784 3103 
Q 1356 3103 1142 2972 
Q 928 2841 928 2578 
Q 928 2378 1081 2264 
Q 1234 2150 1697 2047 
L 1894 2003 
Q 2506 1872 2764 1633 
Q 3022 1394 3022 966 
Q 3022 478 2636 193 
Q 2250 -91 1575 -91 
Q 1294 -91 989 -36 
Q 684 19 347 128 
L 347 722 
Q 666 556 975 473 
Q 1284 391 1588 391 
Q 1994 391 2212 530 
Q 2431 669 2431 922 
Q 2431 1156 2273 1281 
Q 2116 1406 1581 1522 
L 1381 1569 
Q 847 1681 609 1914 
Q 372 2147 372 2553 
Q 372 3047 722 3315 
Q 1072 3584 1716 3584 
Q 2034 3584 2315 3537 
Q 2597 3491 2834 3397 
z
" transform="scale(0.015625)"/>
      </defs>
      <use xlink:href="#DejaVuSans-45"/>
      <use xlink:href="#DejaVuSans-70" x="63.183594"/>
      <use xlink:href="#DejaVuSans-6f" x="126.660156"/>
      <use xlink:href="#DejaVuSans-63" x="187.841797"/>
      <use xlink:href="#DejaVuSans-68" x="242.822266"/>
      <use xlink:href="#DejaVuSans-73" x="306.201172"/>
     </g>
    </g>
   </g>
   <g id="matplotlib.axis_2">
    <g id="ytick_1">
     <g id="line2d_11">
      <defs>
       <path id="m7349fa4c4f" d="M 0 0 
L -3.5 0 
" style="stroke: #000000; stroke-width: 0.8"/>
      </defs>
      <g>
       <use xlink:href="#m7349fa4c4f" x="57.6" y="281.139159" style="stroke: #000000; stroke-width: 0.8"/>
      </g>
     </g>
     <g id="text_12">
      <!-- 10 -->
      <g transform="translate(37.875 284.938378) scale(0.1 -0.1)">
       <use xlink:href="#DejaVuSans-31"/>
       <use xlink:href="#DejaVuSans-30" x="63.623047"/>
      </g>
     </g>
    </g>
    <g id="ytick_2">
     <g id="line2d_12">
      <g>
       <use xlink:href="#m7349fa4c4f" x="57.6" y="251.072947" style="stroke: #000000; stroke-width: 0.8"/>
      </g>
     </g>
     <g id="text_13">
      <!-- 20 -->
      <g transform="translate(37.875 254.872166) scale(0.1 -0.1)">
       <use xlink:href="#DejaVuSans-32"/>
       <use xlink:href="#DejaVuSans-30" x="63.623047"/>
      </g>
     </g>
    </g>
    <g id="ytick_3">
     <g id="line2d_13">
      <g>
       <use xlink:href="#m7349fa4c4f" x="57.6" y="221.006735" style="stroke: #000000; stroke-width: 0.8"/>
      </g>
     </g>
     <g id="text_14">
      <!-- 30 -->
      <g transform="translate(37.875 224.805954) scale(0.1 -0.1)">
       <use xlink:href="#DejaVuSans-33"/>
       <use xlink:href="#DejaVuSans-30" x="63.623047"/>
      </g>
     </g>
    </g>
    <g id="ytick_4">
     <g id="line2d_14">
      <g>
       <use xlink:href="#m7349fa4c4f" x="57.6" y="190.940523" style="stroke: #000000; stroke-width: 0.8"/>
      </g>
     </g>
     <g id="text_15">
      <!-- 40 -->
      <g transform="translate(37.875 194.739742) scale(0.1 -0.1)">
       <use xlink:href="#DejaVuSans-34"/>
       <use xlink:href="#DejaVuSans-30" x="63.623047"/>
      </g>
     </g>
    </g>
    <g id="ytick_5">
     <g id="line2d_15">
      <g>
       <use xlink:href="#m7349fa4c4f" x="57.6" y="160.874311" style="stroke: #000000; stroke-width: 0.8"/>
      </g>
     </g>
     <g id="text_16">
      <!-- 50 -->
      <g transform="translate(37.875 164.67353) scale(0.1 -0.1)">
       <defs>
        <path id="DejaVuSans-35" d="M 691 4666 
L 3169 4666 
L 3169 4134 
L 1269 4134 
L 1269 2991 
Q 1406 3038 1543 3061 
Q 1681 3084 1819 3084 
Q 2600 3084 3056 2656 
Q 3513 2228 3513 1497 
Q 3513 744 3044 326 
Q 2575 -91 1722 -91 
Q 1428 -91 1123 -41 
Q 819 9 494 109 
L 494 744 
Q 775 591 1075 516 
Q 1375 441 1709 441 
Q 2250 441 2565 725 
Q 2881 1009 2881 1497 
Q 2881 1984 2565 2268 
Q 2250 2553 1709 2553 
Q 1456 2553 1204 2497 
Q 953 2441 691 2322 
L 691 4666 
z
" transform="scale(0.015625)"/>
       </defs>
       <use xlink:href="#DejaVuSans-35"/>
       <use xlink:href="#DejaVuSans-30" x="63.623047"/>
      </g>
     </g>
    </g>
    <g id="ytick_6">
     <g id="line2d_16">
      <g>
       <use xlink:href="#m7349fa4c4f" x="57.6" y="130.808099" style="stroke: #000000; stroke-width: 0.8"/>
      </g>
     </g>
     <g id="text_17">
      <!-- 60 -->
      <g transform="translate(37.875 134.607318) scale(0.1 -0.1)">
       <use xlink:href="#DejaVuSans-36"/>
       <use xlink:href="#DejaVuSans-30" x="63.623047"/>
      </g>
     </g>
    </g>
    <g id="ytick_7">
     <g id="line2d_17">
      <g>
       <use xlink:href="#m7349fa4c4f" x="57.6" y="100.741887" style="stroke: #000000; stroke-width: 0.8"/>
      </g>
     </g>
     <g id="text_18">
      <!-- 70 -->
      <g transform="translate(37.875 104.541106) scale(0.1 -0.1)">
       <use xlink:href="#DejaVuSans-37"/>
       <use xlink:href="#DejaVuSans-30" x="63.623047"/>
      </g>
     </g>
    </g>
    <g id="ytick_8">
     <g id="line2d_18">
      <g>
       <use xlink:href="#m7349fa4c4f" x="57.6" y="70.675675" style="stroke: #000000; stroke-width: 0.8"/>
      </g>
     </g>
     <g id="text_19">
      <!-- 80 -->
      <g transform="translate(37.875 74.474893) scale(0.1 -0.1)">
       <defs>
        <path id="DejaVuSans-38" d="M 2034 2216 
Q 1584 2216 1326 1975 
Q 1069 1734 1069 1313 
Q 1069 891 1326 650 
Q 1584 409 2034 409 
Q 2484 409 2743 651 
Q 3003 894 3003 1313 
Q 3003 1734 2745 1975 
Q 2488 2216 2034 2216 
z
M 1403 2484 
Q 997 2584 770 2862 
Q 544 3141 544 3541 
Q 544 4100 942 4425 
Q 1341 4750 2034 4750 
Q 2731 4750 3128 4425 
Q 3525 4100 3525 3541 
Q 3525 3141 3298 2862 
Q 3072 2584 2669 2484 
Q 3125 2378 3379 2068 
Q 3634 1759 3634 1313 
Q 3634 634 3220 271 
Q 2806 -91 2034 -91 
Q 1263 -91 848 271 
Q 434 634 434 1313 
Q 434 1759 690 2068 
Q 947 2378 1403 2484 
z
M 1172 3481 
Q 1172 3119 1398 2916 
Q 1625 2713 2034 2713 
Q 2441 2713 2670 2916 
Q 2900 3119 2900 3481 
Q 2900 3844 2670 4047 
Q 2441 4250 2034 4250 
Q 1625 4250 1398 4047 
Q 1172 3844 1172 3481 
z
" transform="scale(0.015625)"/>
       </defs>
       <use xlink:href="#DejaVuSans-38"/>
       <use xlink:href="#DejaVuSans-30" x="63.623047"/>
      </g>
     </g>
    </g>
    <g id="text_20">
     <!-- Accuracy -->
     <g transform="translate(31.795312 197.356125) rotate(-90) scale(0.1 -0.1)">
      <defs>
       <path id="DejaVuSans-41" d="M 2188 4044 
L 1331 1722 
L 3047 1722 
L 2188 4044 
z
M 1831 4666 
L 2547 4666 
L 4325 0 
L 3669 0 
L 3244 1197 
L 1141 1197 
L 716 0 
L 50 0 
L 1831 4666 
z
" transform="scale(0.015625)"/>
       <path id="DejaVuSans-75" d="M 544 1381 
L 544 3500 
L 1119 3500 
L 1119 1403 
Q 1119 906 1312 657 
Q 1506 409 1894 409 
Q 2359 409 2629 706 
Q 2900 1003 2900 1516 
L 2900 3500 
L 3475 3500 
L 3475 0 
L 2900 0 
L 2900 538 
Q 2691 219 2414 64 
Q 2138 -91 1772 -91 
Q 1169 -91 856 284 
Q 544 659 544 1381 
z
M 1991 3584 
L 1991 3584 
z
" transform="scale(0.015625)"/>
       <path id="DejaVuSans-72" d="M 2631 2963 
Q 2534 3019 2420 3045 
Q 2306 3072 2169 3072 
Q 1681 3072 1420 2755 
Q 1159 2438 1159 1844 
L 1159 0 
L 581 0 
L 581 3500 
L 1159 3500 
L 1159 2956 
Q 1341 3275 1631 3429 
Q 1922 3584 2338 3584 
Q 2397 3584 2469 3576 
Q 2541 3569 2628 3553 
L 2631 2963 
z
" transform="scale(0.015625)"/>
       <path id="DejaVuSans-61" d="M 2194 1759 
Q 1497 1759 1228 1600 
Q 959 1441 959 1056 
Q 959 750 1161 570 
Q 1363 391 1709 391 
Q 2188 391 2477 730 
Q 2766 1069 2766 1631 
L 2766 1759 
L 2194 1759 
z
M 3341 1997 
L 3341 0 
L 2766 0 
L 2766 531 
Q 2569 213 2275 61 
Q 1981 -91 1556 -91 
Q 1019 -91 701 211 
Q 384 513 384 1019 
Q 384 1609 779 1909 
Q 1175 2209 1959 2209 
L 2766 2209 
L 2766 2266 
Q 2766 2663 2505 2880 
Q 2244 3097 1772 3097 
Q 1472 3097 1187 3025 
Q 903 2953 641 2809 
L 641 3341 
Q 956 3463 1253 3523 
Q 1550 3584 1831 3584 
Q 2591 3584 2966 3190 
Q 3341 2797 3341 1997 
z
" transform="scale(0.015625)"/>
       <path id="DejaVuSans-79" d="M 2059 -325 
Q 1816 -950 1584 -1140 
Q 1353 -1331 966 -1331 
L 506 -1331 
L 506 -850 
L 844 -850 
Q 1081 -850 1212 -737 
Q 1344 -625 1503 -206 
L 1606 56 
L 191 3500 
L 800 3500 
L 1894 763 
L 2988 3500 
L 3597 3500 
L 2059 -325 
z
" transform="scale(0.015625)"/>
      </defs>
      <use xlink:href="#DejaVuSans-41"/>
      <use xlink:href="#DejaVuSans-63" x="66.658203"/>
      <use xlink:href="#DejaVuSans-63" x="121.638672"/>
      <use xlink:href="#DejaVuSans-75" x="176.619141"/>
      <use xlink:href="#DejaVuSans-72" x="239.998047"/>
      <use xlink:href="#DejaVuSans-61" x="281.111328"/>
      <use xlink:href="#DejaVuSans-63" x="342.390625"/>
      <use xlink:href="#DejaVuSans-79" x="397.371094"/>
     </g>
    </g>
   </g>
   <g id="line2d_19">
    <path d="M 73.832727 283.255821 
L 74.918528 248.141492 
L 76.00433 226.487806 
L 77.090131 210.104727 
L 78.175932 197.723461 
L 79.261733 187.951942 
L 80.347534 179.885177 
L 81.433335 172.840663 
L 82.519137 164.791938 
L 83.604938 159.364987 
L 84.690739 153.002977 
L 85.77654 149.2447 
L 86.862341 144.325868 
L 89.033943 135.675819 
L 90.119745 132.31141 
L 91.205546 128.541107 
L 92.291347 126.253068 
L 93.377148 125.46834 
L 94.462949 123.853784 
L 95.54875 155.832207 
L 96.634552 154.689691 
L 98.806154 149.025217 
L 99.891955 145.732967 
L 100.977756 143.733563 
L 102.063557 139.942214 
L 103.149358 138.114188 
L 104.23516 135.621699 
L 106.406762 131.529688 
L 108.578364 126.863412 
L 109.664165 125.161664 
L 114.00737 116.460502 
L 115.093171 114.885033 
L 116.178972 113.014915 
L 117.264773 110.67877 
L 118.350575 108.820678 
L 119.436376 106.598785 
L 120.522177 105.363064 
L 121.607978 103.023912 
L 122.693779 100.357039 
L 123.77958 99.578324 
L 124.865382 96.929491 
L 125.951183 95.011267 
L 127.036984 93.510963 
L 128.122785 91.613785 
L 129.208586 90.332964 
L 131.380189 86.992608 
L 132.46599 86.078595 
L 133.551791 84.746662 
L 134.637592 84.193444 
L 135.723393 83.995007 
L 136.809194 83.366623 
L 137.894995 82.933669 
L 138.980797 121.138805 
L 140.066598 123.468937 
L 141.152399 124.013135 
L 142.2382 121.872421 
L 143.324001 121.400381 
L 144.409802 121.195931 
L 145.495604 119.440064 
L 146.581405 118.066038 
L 147.667206 117.392555 
L 148.753007 116.328211 
L 149.838808 115.931337 
L 150.924609 114.521232 
L 152.01041 112.864584 
L 153.096212 113.240411 
L 154.182013 111.31016 
L 155.267814 111.078651 
L 156.353615 110.477326 
L 157.439416 109.187486 
L 158.525217 108.892837 
L 160.69682 106.409368 
L 161.782621 105.925302 
L 162.868422 105.059395 
L 163.954223 104.963183 
L 165.040024 102.94574 
L 166.125825 102.948747 
L 167.211627 102.230164 
L 168.297428 101.298112 
L 169.383229 101.19288 
L 171.554831 98.1141 
L 172.640632 97.972789 
L 173.726434 97.690166 
L 174.812235 95.89822 
L 175.898036 95.705796 
L 176.983837 94.930088 
L 178.069638 93.186248 
L 179.155439 93.324552 
L 180.24124 91.703983 
L 181.327042 90.792977 
L 183.498644 88.426766 
L 184.584445 87.699164 
L 185.670246 86.728025 
L 186.756047 85.97637 
L 187.841849 84.343775 
L 188.92765 83.98298 
L 190.013451 82.759285 
L 192.185053 81.018452 
L 193.270854 78.93787 
L 194.356656 79.226505 
L 195.442457 77.377433 
L 196.528258 76.168772 
L 197.614059 75.856083 
L 198.69986 74.229501 
L 199.785661 73.82962 
L 200.871462 71.929436 
L 201.957264 71.421317 
L 203.043065 70.278801 
L 204.128866 69.536165 
L 205.214667 68.288417 
L 206.300468 67.88553 
L 207.386269 66.646802 
L 208.472071 65.738803 
L 209.557872 65.25173 
L 211.729474 63.2854 
L 213.901076 61.842222 
L 214.986877 61.472407 
L 216.072679 60.786898 
L 217.15848 60.786898 
L 218.244281 60.185573 
L 219.330082 59.340713 
L 220.415883 59.322673 
L 221.501684 59.707521 
L 222.587486 59.031031 
L 223.673287 59.51209 
L 224.759088 58.676249 
L 225.844889 108.303539 
L 226.93069 110.958386 
L 228.016491 111.054598 
L 231.273895 108.592175 
L 232.359696 108.568122 
L 233.445497 107.049778 
L 234.531298 107.124944 
L 235.617099 107.636069 
L 236.702901 105.426203 
L 237.788702 104.815859 
L 238.874503 105.077435 
L 239.960304 103.928905 
L 241.046105 103.841713 
L 242.131906 104.115316 
L 243.217708 103.781581 
L 244.303509 102.615012 
L 245.38931 102.605992 
L 246.475111 101.41537 
L 247.560912 101.526615 
L 249.732514 100.98843 
L 250.818316 100.480311 
L 251.904117 101.144774 
L 252.989918 100.2939 
L 254.075719 99.271649 
L 255.16152 99.385901 
L 256.247321 97.987822 
L 257.333123 98.943927 
L 258.418924 97.834484 
L 260.590526 97.918669 
L 261.676327 96.14777 
L 262.762128 96.866352 
L 263.847929 96.637849 
L 264.933731 96.764127 
L 266.019532 95.609584 
L 267.105333 96.854326 
L 268.191134 94.912048 
L 269.276935 95.402128 
L 270.362736 94.301704 
L 272.534339 93.529003 
L 273.62014 93.625214 
L 274.705941 93.047943 
L 275.791742 93.28246 
L 276.877543 92.82846 
L 279.049146 91.637838 
L 280.134947 92.419559 
L 281.220748 90.892196 
L 282.306549 91.295083 
L 283.39235 90.60356 
L 284.478151 90.354011 
L 285.563953 89.74968 
L 286.649754 89.394898 
L 287.735555 88.697362 
L 288.821356 88.586117 
L 289.907157 88.769521 
L 290.992958 87.885575 
L 292.07876 88.613177 
L 293.164561 86.84829 
L 294.250362 87.091827 
L 295.336163 86.622794 
L 297.507765 85.143536 
L 299.679368 84.647443 
L 300.765169 84.506132 
L 301.85097 83.838662 
L 302.936771 83.513947 
L 304.022572 82.551828 
L 305.108373 82.614968 
L 306.194175 81.457418 
L 308.365777 81.59873 
L 310.537379 80.173591 
L 311.62318 80.140518 
L 312.708981 79.884955 
L 313.794783 78.592108 
L 314.880584 78.528969 
L 315.966385 77.771301 
L 318.137987 77.645023 
L 319.223788 76.451394 
L 320.30959 76.505513 
L 321.395391 75.738825 
L 322.481192 75.20064 
L 323.566993 75.092401 
L 324.652794 74.500097 
L 325.738595 73.751448 
L 326.824396 73.240323 
L 327.910198 73.297448 
L 328.995999 71.902376 
L 330.0818 71.857277 
L 331.167601 71.550601 
L 332.253402 70.865092 
L 333.339203 70.320893 
L 334.425005 70.050297 
L 336.596607 68.252338 
L 337.682408 67.669053 
L 338.768209 67.401464 
L 339.85401 66.643796 
L 340.939811 65.089372 
L 342.025613 65.45618 
L 343.111414 65.188591 
L 344.197215 64.34373 
L 345.283016 64.100194 
L 346.368817 63.540963 
L 347.454618 62.602897 
L 348.54042 62.669042 
L 349.626221 62.073731 
L 350.712022 60.907162 
L 351.797823 60.230673 
L 352.883624 60.017202 
L 353.969425 58.892726 
L 355.055227 59.187375 
L 356.141028 58.601084 
L 358.31263 57.172939 
L 359.398431 56.85123 
L 360.484232 56.6558 
L 362.655835 54.64437 
L 364.827437 54.476 
L 365.913238 53.934808 
L 366.999039 53.568 
L 368.08484 54.415867 
L 369.170642 55.507271 
L 371.342244 59.109203 
L 372.428045 61.120632 
L 373.513846 61.409268 
L 374.599647 61.881308 
L 375.685448 61.75503 
L 376.77125 62.320274 
L 377.857051 62.031639 
L 378.942852 61.328089 
L 380.028653 61.965493 
L 381.114454 61.800129 
L 382.200255 62.061705 
L 384.371858 62.112817 
L 386.54346 62.915585 
L 387.629261 62.629956 
L 388.715062 62.503678 
L 389.800863 62.157917 
L 390.886665 62.266155 
L 391.972466 62.921599 
L 393.058267 62.900552 
L 394.144068 62.666036 
L 395.229869 63.222261 
L 396.31567 63.336512 
L 397.401472 62.687082 
L 398.487273 62.912579 
L 398.487273 62.912579 
" clip-path="url(#p890a3aeb1c)" style="fill: none; stroke: #1f77b4; stroke-width: 1.5; stroke-linecap: square"/>
   </g>
   <g id="line2d_20">
    <path d="M 73.832727 273.412143 
L 74.918528 252.035066 
L 76.00433 235.979709 
L 77.090131 225.847395 
L 78.175932 208.799853 
L 79.261733 201.794426 
L 80.347534 188.896021 
L 81.433335 185.859333 
L 82.519137 179.846091 
L 83.604938 174.885166 
L 84.690739 168.150334 
L 85.77654 165.083581 
L 86.862341 160.874311 
L 87.948142 161.656033 
L 89.033943 155.161731 
L 90.119745 150.591666 
L 91.205546 150.050475 
L 92.291347 148.907959 
L 93.377148 146.502662 
L 94.462949 146.171933 
L 95.54875 178.523178 
L 96.634552 176.899602 
L 97.720353 169.53338 
L 98.806154 168.390864 
L 99.891955 167.729407 
L 100.977756 158.048087 
L 102.063557 166.0457 
L 103.149358 157.085968 
L 104.23516 157.356564 
L 105.320961 150.741998 
L 106.406762 151.643984 
L 107.492563 148.727561 
L 108.578364 151.253123 
L 109.664165 145.811139 
L 110.749967 145.420278 
L 111.835768 140.038426 
L 112.921569 140.098558 
L 114.00737 137.993924 
L 115.093171 137.873659 
L 116.178972 136.129818 
L 117.264773 131.83035 
L 118.350575 129.575384 
L 119.436376 127.981875 
L 120.522177 127.711279 
L 121.607978 123.65234 
L 122.693779 125.00532 
L 123.77958 124.794856 
L 124.865382 122.449692 
L 125.951183 117.849561 
L 127.036984 117.609032 
L 128.122785 117.639098 
L 129.208586 114.542278 
L 130.294387 112.648107 
L 131.380189 113.159232 
L 132.46599 111.11473 
L 133.551791 113.038968 
L 134.637592 111.445458 
L 135.723393 110.693803 
L 136.809194 110.152611 
L 137.894995 110.363075 
L 138.980797 151.523719 
L 140.066598 147.885707 
L 141.152399 143.856835 
L 142.2382 147.374582 
L 143.324001 153.929016 
L 144.409802 137.332467 
L 145.495604 140.850214 
L 146.581405 143.646371 
L 147.667206 143.465974 
L 148.753007 138.775645 
L 149.838808 136.430481 
L 150.924609 138.324652 
L 152.01041 137.332467 
L 153.096212 135.949421 
L 154.182013 132.792469 
L 155.267814 136.580812 
L 156.353615 143.947034 
L 157.439416 136.701076 
L 158.525217 132.972866 
L 159.611019 136.731143 
L 160.69682 133.093131 
L 161.782621 130.627702 
L 162.868422 137.362533 
L 165.040024 126.658962 
L 166.125825 126.779226 
L 167.211627 129.515252 
L 168.297428 131.018562 
L 169.383229 127.320418 
L 170.46903 124.945188 
L 171.554831 127.170087 
L 172.640632 119.984263 
L 173.726434 128.192338 
L 174.812235 125.426247 
L 175.898036 121.818301 
L 176.983837 124.283731 
L 178.069638 119.473137 
L 179.155439 121.27711 
L 180.24124 114.993271 
L 181.327042 120.675785 
L 182.412843 114.572344 
L 183.498644 116.977641 
L 184.584445 117.69923 
L 185.670246 112.948769 
L 186.756047 114.873006 
L 187.841849 119.503203 
L 188.92765 111.295127 
L 190.013451 113.880821 
L 191.099252 115.08347 
L 192.185053 111.144796 
L 193.270854 112.167047 
L 194.356656 109.070228 
L 195.442457 108.168241 
L 196.528258 109.070228 
L 197.614059 109.310757 
L 198.69986 105.372083 
L 200.871462 108.649301 
L 201.957264 106.123739 
L 203.043065 104.109303 
L 204.128866 104.800825 
L 205.214667 102.485727 
L 206.300468 102.846522 
L 207.386269 103.778574 
L 208.472071 102.0648 
L 209.557872 99.8399 
L 210.643673 99.809834 
L 211.729474 99.088245 
L 212.815275 99.268642 
L 214.986877 99.028113 
L 216.072679 98.516987 
L 217.15848 98.847715 
L 219.330082 99.118311 
L 220.415883 97.975795 
L 221.501684 98.937914 
L 222.587486 98.727451 
L 223.673287 98.186259 
L 224.759088 98.005861 
L 225.844889 154.861069 
L 226.93069 148.757628 
L 228.016491 140.188757 
L 229.102292 135.348097 
L 230.188094 141.271141 
L 231.273895 133.333661 
L 232.359696 137.422666 
L 233.445497 135.738958 
L 234.531298 132.010747 
L 235.617099 132.852601 
L 236.702901 133.303595 
L 237.788702 140.128625 
L 238.874503 130.838165 
L 239.960304 134.355912 
L 241.046105 132.551939 
L 242.131906 129.034192 
L 243.217708 137.512864 
L 244.303509 132.9428 
L 245.38931 135.137633 
L 246.475111 125.336048 
L 247.560912 132.972866 
L 248.646713 135.438296 
L 249.732514 130.868231 
L 250.818316 128.072074 
L 251.904117 139.166506 
L 252.989918 130.95843 
L 254.075719 130.296973 
L 255.16152 131.229026 
L 256.247321 130.898298 
L 257.333123 130.747966 
L 258.418924 129.785848 
L 259.504725 129.665583 
L 260.590526 131.680019 
L 261.676327 135.348097 
L 262.762128 128.493001 
L 263.847929 124.343863 
L 264.933731 145.72094 
L 266.019532 126.779226 
L 267.105333 127.651147 
L 268.191134 126.568763 
L 269.276935 125.726909 
L 270.362736 132.822535 
L 271.448538 127.019756 
L 272.534339 123.471943 
L 273.62014 129.725715 
L 274.705941 124.614459 
L 275.791742 126.11777 
L 276.877543 128.222405 
L 277.963344 124.343863 
L 279.049146 122.299361 
L 280.134947 125.726909 
L 281.220748 124.464128 
L 282.306549 123.922936 
L 283.39235 120.735918 
L 284.478151 122.209162 
L 285.563953 124.013135 
L 286.649754 116.43645 
L 287.735555 128.072074 
L 288.821356 121.66797 
L 289.907157 121.096712 
L 290.992958 123.141215 
L 292.07876 120.555521 
L 293.164561 123.65234 
L 294.250362 118.360687 
L 295.336163 124.614459 
L 297.507765 115.985456 
L 298.593566 125.00532 
L 299.679368 118.390753 
L 300.765169 118.962011 
L 301.85097 121.487573 
L 302.936771 112.46771 
L 304.022572 121.216977 
L 305.108373 119.352872 
L 306.194175 117.849561 
L 307.279976 118.541084 
L 308.365777 122.600023 
L 309.451578 116.225986 
L 310.537379 121.337242 
L 311.62318 115.203735 
L 312.708981 112.347445 
L 313.794783 114.271682 
L 314.880584 116.586781 
L 315.966385 116.917509 
L 317.052186 114.061219 
L 318.137987 116.286118 
L 319.223788 113.069034 
L 320.30959 111.325193 
L 321.395391 119.593402 
L 322.481192 110.784002 
L 323.566993 111.295127 
L 324.652794 109.912081 
L 325.738595 109.791817 
L 326.824396 110.904266 
L 328.995999 110.092479 
L 331.167601 111.144796 
L 332.253402 107.416586 
L 333.339203 106.334202 
L 334.425005 109.400956 
L 335.510806 107.657116 
L 336.596607 108.108109 
L 337.682408 105.642679 
L 338.768209 109.13036 
L 339.85401 106.183871 
L 340.939811 106.183871 
L 342.025613 104.680561 
L 343.111414 106.634864 
L 344.197215 104.53023 
L 345.283016 103.838707 
L 346.368817 103.748508 
L 347.454618 102.395528 
L 348.54042 105.582547 
L 349.626221 101.253012 
L 350.712022 102.094866 
L 351.797823 102.425595 
L 352.883624 101.373277 
L 353.969425 101.704006 
L 355.055227 99.869967 
L 356.141028 100.110496 
L 357.226829 98.667318 
L 358.31263 101.102681 
L 359.398431 100.711821 
L 360.484232 98.306524 
L 361.570033 99.990231 
L 362.655835 98.516987 
L 363.741636 96.412352 
L 364.827437 97.314339 
L 365.913238 97.043743 
L 366.999039 97.103875 
L 369.170642 101.102681 
L 370.256443 100.020298 
L 371.342244 102.425595 
L 372.428045 104.259634 
L 373.513846 103.628243 
L 374.599647 104.409965 
L 375.685448 104.860958 
L 376.77125 103.41778 
L 377.857051 104.04917 
L 378.942852 104.259634 
L 380.028653 105.522415 
L 381.114454 106.604798 
L 382.200255 102.966786 
L 383.286057 103.538045 
L 384.371858 105.732878 
L 385.457659 104.440031 
L 386.54346 106.995659 
L 387.629261 105.342017 
L 388.715062 108.318572 
L 389.800863 107.747314 
L 390.886665 109.340823 
L 391.972466 106.394335 
L 393.058267 102.876588 
L 394.144068 105.041355 
L 395.229869 105.40215 
L 396.31567 104.560296 
L 397.401472 108.318572 
L 398.487273 104.379898 
L 398.487273 104.379898 
" clip-path="url(#p890a3aeb1c)" style="fill: none; stroke: #ff7f0e; stroke-width: 1.5; stroke-linecap: square"/>
   </g>
   <g id="line2d_21">
    <path d="M 73.832727 295.488 
L 74.918528 285.120341 
L 76.00433 280.973277 
L 77.090131 279.625481 
L 79.261733 269.029733 
L 80.347534 267.80635 
L 81.433335 260.590459 
L 82.519137 264.509434 
L 83.604938 262.829873 
L 84.690739 263.472668 
L 85.77654 256.816631 
L 86.862341 255.945747 
L 87.948142 258.786486 
L 89.033943 252.379272 
L 90.119745 253.747803 
L 91.205546 250.761918 
L 92.291347 250.9278 
L 93.377148 249.103092 
L 94.462949 248.916474 
L 95.54875 266.790319 
L 96.634552 262.705461 
L 97.720353 255.966483 
L 98.806154 261.150312 
L 99.891955 260.383105 
L 100.977756 255.510306 
L 102.063557 259.201192 
L 103.149358 258.06075 
L 105.320961 254.245451 
L 106.406762 248.107797 
L 107.492563 246.490442 
L 108.578364 256.173836 
L 109.664165 249.061621 
L 110.749967 247.921179 
L 111.835768 240.103964 
L 112.921569 245.121911 
L 114.00737 240.394258 
L 115.093171 240.560141 
L 116.178972 244.852352 
L 117.264773 242.882496 
L 118.350575 234.36028 
L 119.436376 237.076607 
L 120.522177 238.776903 
L 121.607978 232.846602 
L 122.693779 234.774987 
L 123.77958 236.143518 
L 124.865382 236.807048 
L 125.951183 228.077479 
L 127.036984 233.136897 
L 128.122785 232.100131 
L 129.208586 228.948362 
L 130.294387 228.741009 
L 131.380189 229.010568 
L 132.46599 226.791889 
L 133.551791 227.828655 
L 134.637592 229.072774 
L 136.809194 228.429979 
L 137.894995 228.181156 
L 138.980797 256.671483 
L 140.066598 248.481033 
L 141.152399 250.741182 
L 142.2382 245.868382 
L 143.324001 251.674272 
L 144.409802 245.267058 
L 145.495604 244.126616 
L 146.581405 246.552648 
L 147.667206 246.925884 
L 148.753007 246.179412 
L 149.838808 242.301908 
L 150.924609 247.858973 
L 152.01041 244.976764 
L 153.096212 235.64587 
L 154.182013 242.799555 
L 155.267814 241.078524 
L 156.353615 249.268975 
L 157.439416 238.237785 
L 158.525217 232.411161 
L 159.611019 241.949407 
L 160.69682 239.50264 
L 161.782621 237.615726 
L 162.868422 239.150139 
L 163.954223 229.13498 
L 165.040024 232.100131 
L 166.125825 233.841898 
L 167.211627 238.963521 
L 168.297428 233.136897 
L 169.383229 232.452631 
L 171.554831 233.69675 
L 172.640632 226.52233 
L 173.726434 232.494102 
L 174.812235 231.001159 
L 175.898036 233.530868 
L 176.983837 229.487481 
L 178.069638 228.989833 
L 179.155439 227.932332 
L 180.24124 227.642037 
L 181.327042 230.77307 
L 182.412843 224.718357 
L 183.498644 230.7316 
L 184.584445 230.710864 
L 185.670246 227.517625 
L 186.756047 225.8588 
L 187.841849 232.017189 
L 188.92765 221.317765 
L 190.013451 218.311144 
L 191.099252 226.024682 
L 192.185053 221.794677 
L 193.270854 218.083055 
L 194.356656 216.77673 
L 195.442457 215.968053 
L 196.528258 223.494973 
L 197.614059 224.863505 
L 198.69986 219.057615 
L 199.785661 218.72585 
L 200.871462 219.596734 
L 201.957264 220.135852 
L 203.043065 217.44026 
L 204.128866 217.689084 
L 205.214667 216.299818 
L 206.300468 217.191437 
L 207.386269 217.108495 
L 208.472071 217.191437 
L 209.557872 214.288492 
L 210.643673 213.50055 
L 211.729474 212.007607 
L 212.815275 212.795549 
L 214.986877 214.682463 
L 216.072679 212.87849 
L 217.15848 213.562756 
L 218.244281 212.380843 
L 220.415883 213.168785 
L 221.501684 213.521285 
L 222.587486 212.111284 
L 223.673287 211.820989 
L 224.759088 213.148049 
L 225.844889 240.352788 
L 226.93069 246.594119 
L 228.016491 243.172791 
L 229.102292 235.998371 
L 230.188094 244.644999 
L 231.273895 236.496018 
L 232.359696 241.49323 
L 233.445497 238.279256 
L 234.531298 234.588369 
L 235.617099 240.352788 
L 236.702901 241.824995 
L 237.788702 238.237785 
L 238.874503 233.261309 
L 239.960304 233.510132 
L 241.046105 238.362197 
L 242.131906 234.961605 
L 243.217708 241.389554 
L 244.303509 229.487481 
L 245.38931 238.797639 
L 246.475111 235.583664 
L 247.560912 235.189693 
L 248.646713 239.751463 
L 249.732514 236.827783 
L 250.818316 229.363069 
L 251.904117 238.756168 
L 252.989918 238.051167 
L 254.075719 231.457336 
L 255.16152 238.465874 
L 256.247321 240.373523 
L 257.333123 238.942786 
L 258.418924 233.904103 
L 259.504725 236.039841 
L 260.590526 229.943658 
L 261.676327 238.839109 
L 262.762128 231.519542 
L 263.847929 226.978507 
L 264.933731 253.22942 
L 266.019532 227.911596 
L 267.105333 232.763661 
L 268.191134 231.602483 
L 269.276935 234.215133 
L 270.362736 233.779692 
L 271.448538 236.682636 
L 272.534339 227.206596 
L 273.62014 234.526163 
L 274.705941 229.528951 
L 275.791742 223.785268 
L 276.877543 239.481904 
L 277.963344 237.636461 
L 279.049146 232.971014 
L 280.134947 234.31881 
L 281.220748 232.742926 
L 282.306549 229.549687 
L 283.39235 224.863505 
L 284.478151 231.353659 
L 285.563953 229.922922 
L 286.649754 222.810708 
L 287.735555 237.719402 
L 288.821356 230.42057 
L 289.907157 221.608059 
L 290.992958 230.316893 
L 292.07876 226.480859 
L 293.164561 226.460124 
L 294.250362 224.593945 
L 295.336163 225.216005 
L 296.421964 223.018061 
L 297.507765 225.19527 
L 298.593566 234.526163 
L 299.679368 224.345122 
L 300.765169 220.695705 
L 301.85097 228.699538 
L 302.936771 221.670265 
L 304.022572 223.619385 
L 305.108373 232.100131 
L 306.194175 223.515709 
L 307.279976 232.411161 
L 309.451578 224.739093 
L 310.537379 228.16042 
L 311.62318 225.112328 
L 313.794783 218.165997 
L 314.880584 228.82395 
L 315.966385 230.793806 
L 317.052186 222.603355 
L 318.137987 225.713653 
L 319.223788 218.68438 
L 320.30959 222.665561 
L 321.395391 224.822034 
L 322.481192 220.799382 
L 323.566993 221.545854 
L 324.652794 220.01144 
L 325.738595 222.748502 
L 326.824396 215.055699 
L 327.910198 221.359236 
L 328.995999 220.986 
L 330.0818 223.225414 
L 331.167601 221.794677 
L 332.253402 214.765404 
L 333.339203 222.126442 
L 334.425005 221.048206 
L 335.510806 216.341289 
L 336.596607 220.67497 
L 337.682408 218.808791 
L 338.768209 218.041585 
L 339.85401 219.493057 
L 340.939811 216.610848 
L 342.025613 221.359236 
L 343.111414 212.360107 
L 344.197215 218.477026 
L 345.283016 216.963348 
L 346.368817 216.73526 
L 347.454618 211.696577 
L 348.54042 221.276294 
L 349.626221 216.009523 
L 350.712022 214.620257 
L 351.797823 218.829527 
L 352.883624 216.610848 
L 353.969425 213.894521 
L 355.055227 209.664516 
L 356.141028 215.843641 
L 357.226829 208.731427 
L 358.31263 214.889816 
L 359.398431 213.396873 
L 360.484232 208.93878 
L 361.570033 215.221581 
L 362.655835 211.800254 
L 363.741636 209.021721 
L 364.827437 216.569377 
L 365.913238 211.696577 
L 366.999039 210.535399 
L 368.08484 213.002902 
L 369.170642 218.041585 
L 370.256443 212.857755 
L 371.342244 215.968053 
L 372.428045 217.502466 
L 373.513846 212.52599 
L 374.599647 211.966136 
L 375.685448 222.354531 
L 376.77125 213.18952 
L 377.857051 220.67497 
L 378.942852 215.739964 
L 380.028653 217.460996 
L 381.114454 216.73526 
L 382.200255 218.912468 
L 383.286057 214.205551 
L 384.371858 218.891733 
L 385.457659 217.336584 
L 386.54346 224.656151 
L 387.629261 224.096298 
L 388.715062 217.170701 
L 389.800863 219.617469 
L 390.886665 222.686296 
L 391.972466 216.880407 
L 393.058267 216.071729 
L 394.144068 216.009523 
L 395.229869 217.730555 
L 396.31567 218.746586 
L 397.401472 221.981295 
L 398.487273 213.998198 
L 398.487273 213.998198 
" clip-path="url(#p890a3aeb1c)" style="fill: none; stroke: #2ca02c; stroke-width: 1.5; stroke-linecap: square"/>
   </g>
   <g id="line2d_22">
    <path d="M 368.08484 101.43341 
L 369.170642 103.056985 
L 370.256443 100.050364 
L 371.342244 104.04917 
L 372.428045 104.470097 
L 373.513846 110.272876 
L 374.599647 110.784002 
L 375.685448 111.084664 
L 376.77125 107.416586 
L 377.857051 106.90546 
L 378.942852 104.079236 
L 380.028653 107.356453 
L 381.114454 108.047976 
L 382.200255 104.53023 
L 383.286057 108.88983 
L 384.371858 106.755129 
L 385.457659 108.288506 
L 386.54346 107.085858 
L 387.629261 115.08347 
L 388.715062 111.234995 
L 389.800863 114.091285 
L 390.886665 111.956584 
L 391.972466 115.263867 
L 393.058267 116.256052 
L 394.144068 116.767178 
L 395.229869 116.346251 
L 396.31567 119.382938 
L 397.401472 123.201347 
L 398.487273 124.494194 
L 398.487273 124.494194 
" clip-path="url(#p890a3aeb1c)" style="fill: none; stroke: #d62728; stroke-width: 1.5; stroke-linecap: square"/>
   </g>
   <g id="line2d_23">
    <path d="M 368.08484 212.919961 
L 369.170642 218.559968 
L 370.256443 213.935992 
L 371.342244 218.580703 
L 372.428045 216.652318 
L 373.513846 218.746586 
L 374.599647 220.094381 
L 375.685448 217.004819 
L 376.77125 221.172618 
L 377.857051 216.693789 
L 378.942852 212.919961 
L 380.028653 213.790844 
L 381.114454 218.207467 
L 382.200255 212.857755 
L 383.286057 216.901142 
L 384.371858 211.302606 
L 385.457659 213.915256 
L 386.54346 214.16408 
L 387.629261 221.587324 
L 388.715062 219.762616 
L 389.800863 220.467617 
L 390.886665 220.177322 
L 391.972466 220.052911 
L 393.058267 220.903059 
L 394.144068 226.978507 
L 395.229869 222.022766 
L 396.31567 222.292325 
L 397.401472 229.674098 
L 398.487273 230.814541 
L 398.487273 230.814541 
" clip-path="url(#p890a3aeb1c)" style="fill: none; stroke: #9467bd; stroke-width: 1.5; stroke-linecap: square"/>
   </g>
   <g id="patch_3">
    <path d="M 57.6 307.584 
L 57.6 41.472 
" style="fill: none; stroke: #000000; stroke-width: 0.8; stroke-linejoin: miter; stroke-linecap: square"/>
   </g>
   <g id="patch_4">
    <path d="M 414.72 307.584 
L 414.72 41.472 
" style="fill: none; stroke: #000000; stroke-width: 0.8; stroke-linejoin: miter; stroke-linecap: square"/>
   </g>
   <g id="patch_5">
    <path d="M 57.6 307.584 
L 414.72 307.584 
" style="fill: none; stroke: #000000; stroke-width: 0.8; stroke-linejoin: miter; stroke-linecap: square"/>
   </g>
   <g id="patch_6">
    <path d="M 57.6 41.472 
L 414.72 41.472 
" style="fill: none; stroke: #000000; stroke-width: 0.8; stroke-linejoin: miter; stroke-linecap: square"/>
   </g>
   <g id="text_21">
    <!-- Learning Curves -->
    <g transform="translate(187.37625 35.472) scale(0.12 -0.12)">
     <defs>
      <path id="DejaVuSans-4c" d="M 628 4666 
L 1259 4666 
L 1259 531 
L 3531 531 
L 3531 0 
L 628 0 
L 628 4666 
z
" transform="scale(0.015625)"/>
      <path id="DejaVuSans-65" d="M 3597 1894 
L 3597 1613 
L 953 1613 
Q 991 1019 1311 708 
Q 1631 397 2203 397 
Q 2534 397 2845 478 
Q 3156 559 3463 722 
L 3463 178 
Q 3153 47 2828 -22 
Q 2503 -91 2169 -91 
Q 1331 -91 842 396 
Q 353 884 353 1716 
Q 353 2575 817 3079 
Q 1281 3584 2069 3584 
Q 2775 3584 3186 3129 
Q 3597 2675 3597 1894 
z
M 3022 2063 
Q 3016 2534 2758 2815 
Q 2500 3097 2075 3097 
Q 1594 3097 1305 2825 
Q 1016 2553 972 2059 
L 3022 2063 
z
" transform="scale(0.015625)"/>
      <path id="DejaVuSans-6e" d="M 3513 2113 
L 3513 0 
L 2938 0 
L 2938 2094 
Q 2938 2591 2744 2837 
Q 2550 3084 2163 3084 
Q 1697 3084 1428 2787 
Q 1159 2491 1159 1978 
L 1159 0 
L 581 0 
L 581 3500 
L 1159 3500 
L 1159 2956 
Q 1366 3272 1645 3428 
Q 1925 3584 2291 3584 
Q 2894 3584 3203 3211 
Q 3513 2838 3513 2113 
z
" transform="scale(0.015625)"/>
      <path id="DejaVuSans-69" d="M 603 3500 
L 1178 3500 
L 1178 0 
L 603 0 
L 603 3500 
z
M 603 4863 
L 1178 4863 
L 1178 4134 
L 603 4134 
L 603 4863 
z
" transform="scale(0.015625)"/>
      <path id="DejaVuSans-67" d="M 2906 1791 
Q 2906 2416 2648 2759 
Q 2391 3103 1925 3103 
Q 1463 3103 1205 2759 
Q 947 2416 947 1791 
Q 947 1169 1205 825 
Q 1463 481 1925 481 
Q 2391 481 2648 825 
Q 2906 1169 2906 1791 
z
M 3481 434 
Q 3481 -459 3084 -895 
Q 2688 -1331 1869 -1331 
Q 1566 -1331 1297 -1286 
Q 1028 -1241 775 -1147 
L 775 -588 
Q 1028 -725 1275 -790 
Q 1522 -856 1778 -856 
Q 2344 -856 2625 -561 
Q 2906 -266 2906 331 
L 2906 616 
Q 2728 306 2450 153 
Q 2172 0 1784 0 
Q 1141 0 747 490 
Q 353 981 353 1791 
Q 353 2603 747 3093 
Q 1141 3584 1784 3584 
Q 2172 3584 2450 3431 
Q 2728 3278 2906 2969 
L 2906 3500 
L 3481 3500 
L 3481 434 
z
" transform="scale(0.015625)"/>
      <path id="DejaVuSans-20" transform="scale(0.015625)"/>
      <path id="DejaVuSans-43" d="M 4122 4306 
L 4122 3641 
Q 3803 3938 3442 4084 
Q 3081 4231 2675 4231 
Q 1875 4231 1450 3742 
Q 1025 3253 1025 2328 
Q 1025 1406 1450 917 
Q 1875 428 2675 428 
Q 3081 428 3442 575 
Q 3803 722 4122 1019 
L 4122 359 
Q 3791 134 3420 21 
Q 3050 -91 2638 -91 
Q 1578 -91 968 557 
Q 359 1206 359 2328 
Q 359 3453 968 4101 
Q 1578 4750 2638 4750 
Q 3056 4750 3426 4639 
Q 3797 4528 4122 4306 
z
" transform="scale(0.015625)"/>
      <path id="DejaVuSans-76" d="M 191 3500 
L 800 3500 
L 1894 563 
L 2988 3500 
L 3597 3500 
L 2284 0 
L 1503 0 
L 191 3500 
z
" transform="scale(0.015625)"/>
     </defs>
     <use xlink:href="#DejaVuSans-4c"/>
     <use xlink:href="#DejaVuSans-65" x="53.962891"/>
     <use xlink:href="#DejaVuSans-61" x="115.486328"/>
     <use xlink:href="#DejaVuSans-72" x="176.765625"/>
     <use xlink:href="#DejaVuSans-6e" x="216.128906"/>
     <use xlink:href="#DejaVuSans-69" x="279.507812"/>
     <use xlink:href="#DejaVuSans-6e" x="307.291016"/>
     <use xlink:href="#DejaVuSans-67" x="370.669922"/>
     <use xlink:href="#DejaVuSans-20" x="434.146484"/>
     <use xlink:href="#DejaVuSans-43" x="465.933594"/>
     <use xlink:href="#DejaVuSans-75" x="535.757812"/>
     <use xlink:href="#DejaVuSans-72" x="599.136719"/>
     <use xlink:href="#DejaVuSans-76" x="640.25"/>
     <use xlink:href="#DejaVuSans-65" x="699.429688"/>
     <use xlink:href="#DejaVuSans-73" x="760.953125"/>
    </g>
   </g>
   <g id="legend_1">
    <g id="patch_7">
     <path d="M 214.18875 212.723313 
L 407.72 212.723313 
Q 409.72 212.723313 409.72 210.723313 
L 409.72 138.332688 
Q 409.72 136.332688 407.72 136.332688 
L 214.18875 136.332688 
Q 212.18875 136.332688 212.18875 138.332688 
L 212.18875 210.723313 
Q 212.18875 212.723313 214.18875 212.723313 
z
" style="fill: #ffffff; opacity: 0.8; stroke: #cccccc; stroke-linejoin: miter"/>
    </g>
    <g id="line2d_24">
     <path d="M 216.18875 144.431125 
L 226.18875 144.431125 
L 236.18875 144.431125 
" style="fill: none; stroke: #1f77b4; stroke-width: 1.5; stroke-linecap: square"/>
    </g>
    <g id="text_22">
     <!-- Train Accuracy -->
     <g transform="translate(244.18875 147.931125) scale(0.1 -0.1)">
      <defs>
       <path id="DejaVuSans-54" d="M -19 4666 
L 3928 4666 
L 3928 4134 
L 2272 4134 
L 2272 0 
L 1638 0 
L 1638 4134 
L -19 4134 
L -19 4666 
z
" transform="scale(0.015625)"/>
      </defs>
      <use xlink:href="#DejaVuSans-54"/>
      <use xlink:href="#DejaVuSans-72" x="46.333984"/>
      <use xlink:href="#DejaVuSans-61" x="87.447266"/>
      <use xlink:href="#DejaVuSans-69" x="148.726562"/>
      <use xlink:href="#DejaVuSans-6e" x="176.509766"/>
      <use xlink:href="#DejaVuSans-20" x="239.888672"/>
      <use xlink:href="#DejaVuSans-41" x="271.675781"/>
      <use xlink:href="#DejaVuSans-63" x="338.333984"/>
      <use xlink:href="#DejaVuSans-63" x="393.314453"/>
      <use xlink:href="#DejaVuSans-75" x="448.294922"/>
      <use xlink:href="#DejaVuSans-72" x="511.673828"/>
      <use xlink:href="#DejaVuSans-61" x="552.787109"/>
      <use xlink:href="#DejaVuSans-63" x="614.066406"/>
      <use xlink:href="#DejaVuSans-79" x="669.046875"/>
     </g>
    </g>
    <g id="line2d_25">
     <path d="M 216.18875 159.10925 
L 226.18875 159.10925 
L 236.18875 159.10925 
" style="fill: none; stroke: #ff7f0e; stroke-width: 1.5; stroke-linecap: square"/>
    </g>
    <g id="text_23">
     <!-- Validation Accuracy -->
     <g transform="translate(244.18875 162.60925) scale(0.1 -0.1)">
      <defs>
       <path id="DejaVuSans-56" d="M 1831 0 
L 50 4666 
L 709 4666 
L 2188 738 
L 3669 4666 
L 4325 4666 
L 2547 0 
L 1831 0 
z
" transform="scale(0.015625)"/>
       <path id="DejaVuSans-6c" d="M 603 4863 
L 1178 4863 
L 1178 0 
L 603 0 
L 603 4863 
z
" transform="scale(0.015625)"/>
       <path id="DejaVuSans-64" d="M 2906 2969 
L 2906 4863 
L 3481 4863 
L 3481 0 
L 2906 0 
L 2906 525 
Q 2725 213 2448 61 
Q 2172 -91 1784 -91 
Q 1150 -91 751 415 
Q 353 922 353 1747 
Q 353 2572 751 3078 
Q 1150 3584 1784 3584 
Q 2172 3584 2448 3432 
Q 2725 3281 2906 2969 
z
M 947 1747 
Q 947 1113 1208 752 
Q 1469 391 1925 391 
Q 2381 391 2643 752 
Q 2906 1113 2906 1747 
Q 2906 2381 2643 2742 
Q 2381 3103 1925 3103 
Q 1469 3103 1208 2742 
Q 947 2381 947 1747 
z
" transform="scale(0.015625)"/>
       <path id="DejaVuSans-74" d="M 1172 4494 
L 1172 3500 
L 2356 3500 
L 2356 3053 
L 1172 3053 
L 1172 1153 
Q 1172 725 1289 603 
Q 1406 481 1766 481 
L 2356 481 
L 2356 0 
L 1766 0 
Q 1100 0 847 248 
Q 594 497 594 1153 
L 594 3053 
L 172 3053 
L 172 3500 
L 594 3500 
L 594 4494 
L 1172 4494 
z
" transform="scale(0.015625)"/>
      </defs>
      <use xlink:href="#DejaVuSans-56"/>
      <use xlink:href="#DejaVuSans-61" x="60.658203"/>
      <use xlink:href="#DejaVuSans-6c" x="121.9375"/>
      <use xlink:href="#DejaVuSans-69" x="149.720703"/>
      <use xlink:href="#DejaVuSans-64" x="177.503906"/>
      <use xlink:href="#DejaVuSans-61" x="240.980469"/>
      <use xlink:href="#DejaVuSans-74" x="302.259766"/>
      <use xlink:href="#DejaVuSans-69" x="341.46875"/>
      <use xlink:href="#DejaVuSans-6f" x="369.251953"/>
      <use xlink:href="#DejaVuSans-6e" x="430.433594"/>
      <use xlink:href="#DejaVuSans-20" x="493.8125"/>
      <use xlink:href="#DejaVuSans-41" x="525.599609"/>
      <use xlink:href="#DejaVuSans-63" x="592.257812"/>
      <use xlink:href="#DejaVuSans-63" x="647.238281"/>
      <use xlink:href="#DejaVuSans-75" x="702.21875"/>
      <use xlink:href="#DejaVuSans-72" x="765.597656"/>
      <use xlink:href="#DejaVuSans-61" x="806.710938"/>
      <use xlink:href="#DejaVuSans-63" x="867.990234"/>
      <use xlink:href="#DejaVuSans-79" x="922.970703"/>
     </g>
    </g>
    <g id="line2d_26">
     <path d="M 216.18875 173.787375 
L 226.18875 173.787375 
L 236.18875 173.787375 
" style="fill: none; stroke: #2ca02c; stroke-width: 1.5; stroke-linecap: square"/>
    </g>
    <g id="text_24">
     <!-- Robust Validation Accuracy -->
     <g transform="translate(244.18875 177.287375) scale(0.1 -0.1)">
      <defs>
       <path id="DejaVuSans-52" d="M 2841 2188 
Q 3044 2119 3236 1894 
Q 3428 1669 3622 1275 
L 4263 0 
L 3584 0 
L 2988 1197 
Q 2756 1666 2539 1819 
Q 2322 1972 1947 1972 
L 1259 1972 
L 1259 0 
L 628 0 
L 628 4666 
L 2053 4666 
Q 2853 4666 3247 4331 
Q 3641 3997 3641 3322 
Q 3641 2881 3436 2590 
Q 3231 2300 2841 2188 
z
M 1259 4147 
L 1259 2491 
L 2053 2491 
Q 2509 2491 2742 2702 
Q 2975 2913 2975 3322 
Q 2975 3731 2742 3939 
Q 2509 4147 2053 4147 
L 1259 4147 
z
" transform="scale(0.015625)"/>
       <path id="DejaVuSans-62" d="M 3116 1747 
Q 3116 2381 2855 2742 
Q 2594 3103 2138 3103 
Q 1681 3103 1420 2742 
Q 1159 2381 1159 1747 
Q 1159 1113 1420 752 
Q 1681 391 2138 391 
Q 2594 391 2855 752 
Q 3116 1113 3116 1747 
z
M 1159 2969 
Q 1341 3281 1617 3432 
Q 1894 3584 2278 3584 
Q 2916 3584 3314 3078 
Q 3713 2572 3713 1747 
Q 3713 922 3314 415 
Q 2916 -91 2278 -91 
Q 1894 -91 1617 61 
Q 1341 213 1159 525 
L 1159 0 
L 581 0 
L 581 4863 
L 1159 4863 
L 1159 2969 
z
" transform="scale(0.015625)"/>
      </defs>
      <use xlink:href="#DejaVuSans-52"/>
      <use xlink:href="#DejaVuSans-6f" x="64.982422"/>
      <use xlink:href="#DejaVuSans-62" x="126.164062"/>
      <use xlink:href="#DejaVuSans-75" x="189.640625"/>
      <use xlink:href="#DejaVuSans-73" x="253.019531"/>
      <use xlink:href="#DejaVuSans-74" x="305.119141"/>
      <use xlink:href="#DejaVuSans-20" x="344.328125"/>
      <use xlink:href="#DejaVuSans-56" x="376.115234"/>
      <use xlink:href="#DejaVuSans-61" x="436.773438"/>
      <use xlink:href="#DejaVuSans-6c" x="498.052734"/>
      <use xlink:href="#DejaVuSans-69" x="525.835938"/>
      <use xlink:href="#DejaVuSans-64" x="553.619141"/>
      <use xlink:href="#DejaVuSans-61" x="617.095703"/>
      <use xlink:href="#DejaVuSans-74" x="678.375"/>
      <use xlink:href="#DejaVuSans-69" x="717.583984"/>
      <use xlink:href="#DejaVuSans-6f" x="745.367188"/>
      <use xlink:href="#DejaVuSans-6e" x="806.548828"/>
      <use xlink:href="#DejaVuSans-20" x="869.927734"/>
      <use xlink:href="#DejaVuSans-41" x="901.714844"/>
      <use xlink:href="#DejaVuSans-63" x="968.373047"/>
      <use xlink:href="#DejaVuSans-63" x="1023.353516"/>
      <use xlink:href="#DejaVuSans-75" x="1078.333984"/>
      <use xlink:href="#DejaVuSans-72" x="1141.712891"/>
      <use xlink:href="#DejaVuSans-61" x="1182.826172"/>
      <use xlink:href="#DejaVuSans-63" x="1244.105469"/>
      <use xlink:href="#DejaVuSans-79" x="1299.085938"/>
     </g>
    </g>
    <g id="line2d_27">
     <path d="M 216.18875 188.4655 
L 226.18875 188.4655 
L 236.18875 188.4655 
" style="fill: none; stroke: #d62728; stroke-width: 1.5; stroke-linecap: square"/>
    </g>
    <g id="text_25">
     <!-- SWA Validation Accuracy -->
     <g transform="translate(244.18875 191.9655) scale(0.1 -0.1)">
      <defs>
       <path id="DejaVuSans-53" d="M 3425 4513 
L 3425 3897 
Q 3066 4069 2747 4153 
Q 2428 4238 2131 4238 
Q 1616 4238 1336 4038 
Q 1056 3838 1056 3469 
Q 1056 3159 1242 3001 
Q 1428 2844 1947 2747 
L 2328 2669 
Q 3034 2534 3370 2195 
Q 3706 1856 3706 1288 
Q 3706 609 3251 259 
Q 2797 -91 1919 -91 
Q 1588 -91 1214 -16 
Q 841 59 441 206 
L 441 856 
Q 825 641 1194 531 
Q 1563 422 1919 422 
Q 2459 422 2753 634 
Q 3047 847 3047 1241 
Q 3047 1584 2836 1778 
Q 2625 1972 2144 2069 
L 1759 2144 
Q 1053 2284 737 2584 
Q 422 2884 422 3419 
Q 422 4038 858 4394 
Q 1294 4750 2059 4750 
Q 2388 4750 2728 4690 
Q 3069 4631 3425 4513 
z
" transform="scale(0.015625)"/>
       <path id="DejaVuSans-57" d="M 213 4666 
L 850 4666 
L 1831 722 
L 2809 4666 
L 3519 4666 
L 4500 722 
L 5478 4666 
L 6119 4666 
L 4947 0 
L 4153 0 
L 3169 4050 
L 2175 0 
L 1381 0 
L 213 4666 
z
" transform="scale(0.015625)"/>
      </defs>
      <use xlink:href="#DejaVuSans-53"/>
      <use xlink:href="#DejaVuSans-57" x="63.476562"/>
      <use xlink:href="#DejaVuSans-41" x="156.853516"/>
      <use xlink:href="#DejaVuSans-20" x="225.261719"/>
      <use xlink:href="#DejaVuSans-56" x="257.048828"/>
      <use xlink:href="#DejaVuSans-61" x="317.707031"/>
      <use xlink:href="#DejaVuSans-6c" x="378.986328"/>
      <use xlink:href="#DejaVuSans-69" x="406.769531"/>
      <use xlink:href="#DejaVuSans-64" x="434.552734"/>
      <use xlink:href="#DejaVuSans-61" x="498.029297"/>
      <use xlink:href="#DejaVuSans-74" x="559.308594"/>
      <use xlink:href="#DejaVuSans-69" x="598.517578"/>
      <use xlink:href="#DejaVuSans-6f" x="626.300781"/>
      <use xlink:href="#DejaVuSans-6e" x="687.482422"/>
      <use xlink:href="#DejaVuSans-20" x="750.861328"/>
      <use xlink:href="#DejaVuSans-41" x="782.648438"/>
      <use xlink:href="#DejaVuSans-63" x="849.306641"/>
      <use xlink:href="#DejaVuSans-63" x="904.287109"/>
      <use xlink:href="#DejaVuSans-75" x="959.267578"/>
      <use xlink:href="#DejaVuSans-72" x="1022.646484"/>
      <use xlink:href="#DejaVuSans-61" x="1063.759766"/>
      <use xlink:href="#DejaVuSans-63" x="1125.039062"/>
      <use xlink:href="#DejaVuSans-79" x="1180.019531"/>
     </g>
    </g>
    <g id="line2d_28">
     <path d="M 216.18875 203.143625 
L 226.18875 203.143625 
L 236.18875 203.143625 
" style="fill: none; stroke: #9467bd; stroke-width: 1.5; stroke-linecap: square"/>
    </g>
    <g id="text_26">
     <!-- SWA Robust Validation Accuracy -->
     <g transform="translate(244.18875 206.643625) scale(0.1 -0.1)">
      <use xlink:href="#DejaVuSans-53"/>
      <use xlink:href="#DejaVuSans-57" x="63.476562"/>
      <use xlink:href="#DejaVuSans-41" x="156.853516"/>
      <use xlink:href="#DejaVuSans-20" x="225.261719"/>
      <use xlink:href="#DejaVuSans-52" x="257.048828"/>
      <use xlink:href="#DejaVuSans-6f" x="322.03125"/>
      <use xlink:href="#DejaVuSans-62" x="383.212891"/>
      <use xlink:href="#DejaVuSans-75" x="446.689453"/>
      <use xlink:href="#DejaVuSans-73" x="510.068359"/>
      <use xlink:href="#DejaVuSans-74" x="562.167969"/>
      <use xlink:href="#DejaVuSans-20" x="601.376953"/>
      <use xlink:href="#DejaVuSans-56" x="633.164062"/>
      <use xlink:href="#DejaVuSans-61" x="693.822266"/>
      <use xlink:href="#DejaVuSans-6c" x="755.101562"/>
      <use xlink:href="#DejaVuSans-69" x="782.884766"/>
      <use xlink:href="#DejaVuSans-64" x="810.667969"/>
      <use xlink:href="#DejaVuSans-61" x="874.144531"/>
      <use xlink:href="#DejaVuSans-74" x="935.423828"/>
      <use xlink:href="#DejaVuSans-69" x="974.632812"/>
      <use xlink:href="#DejaVuSans-6f" x="1002.416016"/>
      <use xlink:href="#DejaVuSans-6e" x="1063.597656"/>
      <use xlink:href="#DejaVuSans-20" x="1126.976562"/>
      <use xlink:href="#DejaVuSans-41" x="1158.763672"/>
      <use xlink:href="#DejaVuSans-63" x="1225.421875"/>
      <use xlink:href="#DejaVuSans-63" x="1280.402344"/>
      <use xlink:href="#DejaVuSans-75" x="1335.382812"/>
      <use xlink:href="#DejaVuSans-72" x="1398.761719"/>
      <use xlink:href="#DejaVuSans-61" x="1439.875"/>
      <use xlink:href="#DejaVuSans-63" x="1501.154297"/>
      <use xlink:href="#DejaVuSans-79" x="1556.134766"/>
     </g>
    </g>
   </g>
  </g>
 </g>
 <defs>
  <clipPath id="p890a3aeb1c">
   <rect x="57.6" y="41.472" width="357.12" height="266.112"/>
  </clipPath>
 </defs>
</svg>
