<?xml version="1.0" encoding="utf-8" standalone="no"?>
<!DOCTYPE svg PUBLIC "-//W3C//DTD SVG 1.1//EN"
  "http://www.w3.org/Graphics/SVG/1.1/DTD/svg11.dtd">
<svg xmlns:xlink="http://www.w3.org/1999/xlink" width="460.8pt" height="345.6pt" viewBox="0 0 460.8 345.6" xmlns="http://www.w3.org/2000/svg" version="1.1">
 <metadata>
  <rdf:RDF xmlns:dc="http://purl.org/dc/elements/1.1/" xmlns:cc="http://creativecommons.org/ns#" xmlns:rdf="http://www.w3.org/1999/02/22-rdf-syntax-ns#">
   <cc:Work>
    <dc:type rdf:resource="http://purl.org/dc/dcmitype/StillImage"/>
    <dc:date>2025-07-11T11:05:40.771910</dc:date>
    <dc:format>image/svg+xml</dc:format>
    <dc:creator>
     <cc:Agent>
      <dc:title>Matplotlib v3.9.1, https://matplotlib.org/</dc:title>
     </cc:Agent>
    </dc:creator>
   </cc:Work>
  </rdf:RDF>
 </metadata>
 <defs>
  <style type="text/css">*{stroke-linejoin: round; stroke-linecap: butt}</style>
 </defs>
 <g id="figure_1">
  <g id="patch_1">
   <path d="M 0 345.6 
L 460.8 345.6 
L 460.8 0 
L 0 0 
z
" style="fill: #ffffff"/>
  </g>
  <g id="axes_1">
   <g id="patch_2">
    <path d="M 57.6 307.584 
L 414.72 307.584 
L 414.72 41.472 
L 57.6 41.472 
z
" style="fill: #ffffff"/>
   </g>
   <g id="matplotlib.axis_1">
    <g id="xtick_1">
     <g id="line2d_1">
      <defs>
       <path id="mf3feeb48ee" d="M 0 0 
L 0 3.5 
" style="stroke: #000000; stroke-width: 0.8"/>
      </defs>
      <g>
       <use xlink:href="#mf3feeb48ee" x="73.832727" y="307.584" style="stroke: #000000; stroke-width: 0.8"/>
      </g>
     </g>
     <g id="text_1">
      <!-- 1 -->
      <g transform="translate(70.651477 322.182437) scale(0.1 -0.1)">
       <defs>
        <path id="DejaVuSans-31" d="M 794 531 
L 1825 531 
L 1825 4091 
L 703 3866 
L 703 4441 
L 1819 4666 
L 2450 4666 
L 2450 531 
L 3481 531 
L 3481 0 
L 794 0 
L 794 531 
z
" transform="scale(0.015625)"/>
       </defs>
       <use xlink:href="#DejaVuSans-31"/>
      </g>
     </g>
    </g>
    <g id="xtick_2">
     <g id="line2d_2">
      <g>
       <use xlink:href="#mf3feeb48ee" x="109.664165" y="307.584" style="stroke: #000000; stroke-width: 0.8"/>
      </g>
     </g>
     <g id="text_2">
      <!-- 34 -->
      <g transform="translate(103.301665 322.182437) scale(0.1 -0.1)">
       <defs>
        <path id="DejaVuSans-33" d="M 2597 2516 
Q 3050 2419 3304 2112 
Q 3559 1806 3559 1356 
Q 3559 666 3084 287 
Q 2609 -91 1734 -91 
Q 1441 -91 1130 -33 
Q 819 25 488 141 
L 488 750 
Q 750 597 1062 519 
Q 1375 441 1716 441 
Q 2309 441 2620 675 
Q 2931 909 2931 1356 
Q 2931 1769 2642 2001 
Q 2353 2234 1838 2234 
L 1294 2234 
L 1294 2753 
L 1863 2753 
Q 2328 2753 2575 2939 
Q 2822 3125 2822 3475 
Q 2822 3834 2567 4026 
Q 2313 4219 1838 4219 
Q 1578 4219 1281 4162 
Q 984 4106 628 3988 
L 628 4550 
Q 988 4650 1302 4700 
Q 1616 4750 1894 4750 
Q 2613 4750 3031 4423 
Q 3450 4097 3450 3541 
Q 3450 3153 3228 2886 
Q 3006 2619 2597 2516 
z
" transform="scale(0.015625)"/>
        <path id="DejaVuSans-34" d="M 2419 4116 
L 825 1625 
L 2419 1625 
L 2419 4116 
z
M 2253 4666 
L 3047 4666 
L 3047 1625 
L 3713 1625 
L 3713 1100 
L 3047 1100 
L 3047 0 
L 2419 0 
L 2419 1100 
L 313 1100 
L 313 1709 
L 2253 4666 
z
" transform="scale(0.015625)"/>
       </defs>
       <use xlink:href="#DejaVuSans-33"/>
       <use xlink:href="#DejaVuSans-34" x="63.623047"/>
      </g>
     </g>
    </g>
    <g id="xtick_3">
     <g id="line2d_3">
      <g>
       <use xlink:href="#mf3feeb48ee" x="145.495604" y="307.584" style="stroke: #000000; stroke-width: 0.8"/>
      </g>
     </g>
     <g id="text_3">
      <!-- 67 -->
      <g transform="translate(139.133104 322.182437) scale(0.1 -0.1)">
       <defs>
        <path id="DejaVuSans-36" d="M 2113 2584 
Q 1688 2584 1439 2293 
Q 1191 2003 1191 1497 
Q 1191 994 1439 701 
Q 1688 409 2113 409 
Q 2538 409 2786 701 
Q 3034 994 3034 1497 
Q 3034 2003 2786 2293 
Q 2538 2584 2113 2584 
z
M 3366 4563 
L 3366 3988 
Q 3128 4100 2886 4159 
Q 2644 4219 2406 4219 
Q 1781 4219 1451 3797 
Q 1122 3375 1075 2522 
Q 1259 2794 1537 2939 
Q 1816 3084 2150 3084 
Q 2853 3084 3261 2657 
Q 3669 2231 3669 1497 
Q 3669 778 3244 343 
Q 2819 -91 2113 -91 
Q 1303 -91 875 529 
Q 447 1150 447 2328 
Q 447 3434 972 4092 
Q 1497 4750 2381 4750 
Q 2619 4750 2861 4703 
Q 3103 4656 3366 4563 
z
" transform="scale(0.015625)"/>
        <path id="DejaVuSans-37" d="M 525 4666 
L 3525 4666 
L 3525 4397 
L 1831 0 
L 1172 0 
L 2766 4134 
L 525 4134 
L 525 4666 
z
" transform="scale(0.015625)"/>
       </defs>
       <use xlink:href="#DejaVuSans-36"/>
       <use xlink:href="#DejaVuSans-37" x="63.623047"/>
      </g>
     </g>
    </g>
    <g id="xtick_4">
     <g id="line2d_4">
      <g>
       <use xlink:href="#mf3feeb48ee" x="181.327042" y="307.584" style="stroke: #000000; stroke-width: 0.8"/>
      </g>
     </g>
     <g id="text_4">
      <!-- 100 -->
      <g transform="translate(171.783292 322.182437) scale(0.1 -0.1)">
       <defs>
        <path id="DejaVuSans-30" d="M 2034 4250 
Q 1547 4250 1301 3770 
Q 1056 3291 1056 2328 
Q 1056 1369 1301 889 
Q 1547 409 2034 409 
Q 2525 409 2770 889 
Q 3016 1369 3016 2328 
Q 3016 3291 2770 3770 
Q 2525 4250 2034 4250 
z
M 2034 4750 
Q 2819 4750 3233 4129 
Q 3647 3509 3647 2328 
Q 3647 1150 3233 529 
Q 2819 -91 2034 -91 
Q 1250 -91 836 529 
Q 422 1150 422 2328 
Q 422 3509 836 4129 
Q 1250 4750 2034 4750 
z
" transform="scale(0.015625)"/>
       </defs>
       <use xlink:href="#DejaVuSans-31"/>
       <use xlink:href="#DejaVuSans-30" x="63.623047"/>
       <use xlink:href="#DejaVuSans-30" x="127.246094"/>
      </g>
     </g>
    </g>
    <g id="xtick_5">
     <g id="line2d_5">
      <g>
       <use xlink:href="#mf3feeb48ee" x="217.15848" y="307.584" style="stroke: #000000; stroke-width: 0.8"/>
      </g>
     </g>
     <g id="text_5">
      <!-- 133 -->
      <g transform="translate(207.61473 322.182437) scale(0.1 -0.1)">
       <use xlink:href="#DejaVuSans-31"/>
       <use xlink:href="#DejaVuSans-33" x="63.623047"/>
       <use xlink:href="#DejaVuSans-33" x="127.246094"/>
      </g>
     </g>
    </g>
    <g id="xtick_6">
     <g id="line2d_6">
      <g>
       <use xlink:href="#mf3feeb48ee" x="254.075719" y="307.584" style="stroke: #000000; stroke-width: 0.8"/>
      </g>
     </g>
     <g id="text_6">
      <!-- 167 -->
      <g transform="translate(244.531969 322.182437) scale(0.1 -0.1)">
       <use xlink:href="#DejaVuSans-31"/>
       <use xlink:href="#DejaVuSans-36" x="63.623047"/>
       <use xlink:href="#DejaVuSans-37" x="127.246094"/>
      </g>
     </g>
    </g>
    <g id="xtick_7">
     <g id="line2d_7">
      <g>
       <use xlink:href="#mf3feeb48ee" x="289.907157" y="307.584" style="stroke: #000000; stroke-width: 0.8"/>
      </g>
     </g>
     <g id="text_7">
      <!-- 200 -->
      <g transform="translate(280.363407 322.182437) scale(0.1 -0.1)">
       <defs>
        <path id="DejaVuSans-32" d="M 1228 531 
L 3431 531 
L 3431 0 
L 469 0 
L 469 531 
Q 828 903 1448 1529 
Q 2069 2156 2228 2338 
Q 2531 2678 2651 2914 
Q 2772 3150 2772 3378 
Q 2772 3750 2511 3984 
Q 2250 4219 1831 4219 
Q 1534 4219 1204 4116 
Q 875 4013 500 3803 
L 500 4441 
Q 881 4594 1212 4672 
Q 1544 4750 1819 4750 
Q 2544 4750 2975 4387 
Q 3406 4025 3406 3419 
Q 3406 3131 3298 2873 
Q 3191 2616 2906 2266 
Q 2828 2175 2409 1742 
Q 1991 1309 1228 531 
z
" transform="scale(0.015625)"/>
       </defs>
       <use xlink:href="#DejaVuSans-32"/>
       <use xlink:href="#DejaVuSans-30" x="63.623047"/>
       <use xlink:href="#DejaVuSans-30" x="127.246094"/>
      </g>
     </g>
    </g>
    <g id="xtick_8">
     <g id="line2d_8">
      <g>
       <use xlink:href="#mf3feeb48ee" x="325.738595" y="307.584" style="stroke: #000000; stroke-width: 0.8"/>
      </g>
     </g>
     <g id="text_8">
      <!-- 233 -->
      <g transform="translate(316.194845 322.182437) scale(0.1 -0.1)">
       <use xlink:href="#DejaVuSans-32"/>
       <use xlink:href="#DejaVuSans-33" x="63.623047"/>
       <use xlink:href="#DejaVuSans-33" x="127.246094"/>
      </g>
     </g>
    </g>
    <g id="xtick_9">
     <g id="line2d_9">
      <g>
       <use xlink:href="#mf3feeb48ee" x="361.570033" y="307.584" style="stroke: #000000; stroke-width: 0.8"/>
      </g>
     </g>
     <g id="text_9">
      <!-- 266 -->
      <g transform="translate(352.026283 322.182437) scale(0.1 -0.1)">
       <use xlink:href="#DejaVuSans-32"/>
       <use xlink:href="#DejaVuSans-36" x="63.623047"/>
       <use xlink:href="#DejaVuSans-36" x="127.246094"/>
      </g>
     </g>
    </g>
    <g id="xtick_10">
     <g id="line2d_10">
      <g>
       <use xlink:href="#mf3feeb48ee" x="398.487273" y="307.584" style="stroke: #000000; stroke-width: 0.8"/>
      </g>
     </g>
     <g id="text_10">
      <!-- 300 -->
      <g transform="translate(388.943523 322.182437) scale(0.1 -0.1)">
       <use xlink:href="#DejaVuSans-33"/>
       <use xlink:href="#DejaVuSans-30" x="63.623047"/>
       <use xlink:href="#DejaVuSans-30" x="127.246094"/>
      </g>
     </g>
    </g>
    <g id="text_11">
     <!-- Epochs -->
     <g transform="translate(218.244375 335.860562) scale(0.1 -0.1)">
      <defs>
       <path id="DejaVuSans-45" d="M 628 4666 
L 3578 4666 
L 3578 4134 
L 1259 4134 
L 1259 2753 
L 3481 2753 
L 3481 2222 
L 1259 2222 
L 1259 531 
L 3634 531 
L 3634 0 
L 628 0 
L 628 4666 
z
" transform="scale(0.015625)"/>
       <path id="DejaVuSans-70" d="M 1159 525 
L 1159 -1331 
L 581 -1331 
L 581 3500 
L 1159 3500 
L 1159 2969 
Q 1341 3281 1617 3432 
Q 1894 3584 2278 3584 
Q 2916 3584 3314 3078 
Q 3713 2572 3713 1747 
Q 3713 922 3314 415 
Q 2916 -91 2278 -91 
Q 1894 -91 1617 61 
Q 1341 213 1159 525 
z
M 3116 1747 
Q 3116 2381 2855 2742 
Q 2594 3103 2138 3103 
Q 1681 3103 1420 2742 
Q 1159 2381 1159 1747 
Q 1159 1113 1420 752 
Q 1681 391 2138 391 
Q 2594 391 2855 752 
Q 3116 1113 3116 1747 
z
" transform="scale(0.015625)"/>
       <path id="DejaVuSans-6f" d="M 1959 3097 
Q 1497 3097 1228 2736 
Q 959 2375 959 1747 
Q 959 1119 1226 758 
Q 1494 397 1959 397 
Q 2419 397 2687 759 
Q 2956 1122 2956 1747 
Q 2956 2369 2687 2733 
Q 2419 3097 1959 3097 
z
M 1959 3584 
Q 2709 3584 3137 3096 
Q 3566 2609 3566 1747 
Q 3566 888 3137 398 
Q 2709 -91 1959 -91 
Q 1206 -91 779 398 
Q 353 888 353 1747 
Q 353 2609 779 3096 
Q 1206 3584 1959 3584 
z
" transform="scale(0.015625)"/>
       <path id="DejaVuSans-63" d="M 3122 3366 
L 3122 2828 
Q 2878 2963 2633 3030 
Q 2388 3097 2138 3097 
Q 1578 3097 1268 2742 
Q 959 2388 959 1747 
Q 959 1106 1268 751 
Q 1578 397 2138 397 
Q 2388 397 2633 464 
Q 2878 531 3122 666 
L 3122 134 
Q 2881 22 2623 -34 
Q 2366 -91 2075 -91 
Q 1284 -91 818 406 
Q 353 903 353 1747 
Q 353 2603 823 3093 
Q 1294 3584 2113 3584 
Q 2378 3584 2631 3529 
Q 2884 3475 3122 3366 
z
" transform="scale(0.015625)"/>
       <path id="DejaVuSans-68" d="M 3513 2113 
L 3513 0 
L 2938 0 
L 2938 2094 
Q 2938 2591 2744 2837 
Q 2550 3084 2163 3084 
Q 1697 3084 1428 2787 
Q 1159 2491 1159 1978 
L 1159 0 
L 581 0 
L 581 4863 
L 1159 4863 
L 1159 2956 
Q 1366 3272 1645 3428 
Q 1925 3584 2291 3584 
Q 2894 3584 3203 3211 
Q 3513 2838 3513 2113 
z
" transform="scale(0.015625)"/>
       <path id="DejaVuSans-73" d="M 2834 3397 
L 2834 2853 
Q 2591 2978 2328 3040 
Q 2066 3103 1784 3103 
Q 1356 3103 1142 2972 
Q 928 2841 928 2578 
Q 928 2378 1081 2264 
Q 1234 2150 1697 2047 
L 1894 2003 
Q 2506 1872 2764 1633 
Q 3022 1394 3022 966 
Q 3022 478 2636 193 
Q 2250 -91 1575 -91 
Q 1294 -91 989 -36 
Q 684 19 347 128 
L 347 722 
Q 666 556 975 473 
Q 1284 391 1588 391 
Q 1994 391 2212 530 
Q 2431 669 2431 922 
Q 2431 1156 2273 1281 
Q 2116 1406 1581 1522 
L 1381 1569 
Q 847 1681 609 1914 
Q 372 2147 372 2553 
Q 372 3047 722 3315 
Q 1072 3584 1716 3584 
Q 2034 3584 2315 3537 
Q 2597 3491 2834 3397 
z
" transform="scale(0.015625)"/>
      </defs>
      <use xlink:href="#DejaVuSans-45"/>
      <use xlink:href="#DejaVuSans-70" x="63.183594"/>
      <use xlink:href="#DejaVuSans-6f" x="126.660156"/>
      <use xlink:href="#DejaVuSans-63" x="187.841797"/>
      <use xlink:href="#DejaVuSans-68" x="242.822266"/>
      <use xlink:href="#DejaVuSans-73" x="306.201172"/>
     </g>
    </g>
   </g>
   <g id="matplotlib.axis_2">
    <g id="ytick_1">
     <g id="line2d_11">
      <defs>
       <path id="m3299066cf5" d="M 0 0 
L -3.5 0 
" style="stroke: #000000; stroke-width: 0.8"/>
      </defs>
      <g>
       <use xlink:href="#m3299066cf5" x="57.6" y="272.836247" style="stroke: #000000; stroke-width: 0.8"/>
      </g>
     </g>
     <g id="text_12">
      <!-- 10 -->
      <g transform="translate(37.875 276.635466) scale(0.1 -0.1)">
       <use xlink:href="#DejaVuSans-31"/>
       <use xlink:href="#DejaVuSans-30" x="63.623047"/>
      </g>
     </g>
    </g>
    <g id="ytick_2">
     <g id="line2d_12">
      <g>
       <use xlink:href="#m3299066cf5" x="57.6" y="236.680216" style="stroke: #000000; stroke-width: 0.8"/>
      </g>
     </g>
     <g id="text_13">
      <!-- 20 -->
      <g transform="translate(37.875 240.479435) scale(0.1 -0.1)">
       <use xlink:href="#DejaVuSans-32"/>
       <use xlink:href="#DejaVuSans-30" x="63.623047"/>
      </g>
     </g>
    </g>
    <g id="ytick_3">
     <g id="line2d_13">
      <g>
       <use xlink:href="#m3299066cf5" x="57.6" y="200.524186" style="stroke: #000000; stroke-width: 0.8"/>
      </g>
     </g>
     <g id="text_14">
      <!-- 30 -->
      <g transform="translate(37.875 204.323405) scale(0.1 -0.1)">
       <use xlink:href="#DejaVuSans-33"/>
       <use xlink:href="#DejaVuSans-30" x="63.623047"/>
      </g>
     </g>
    </g>
    <g id="ytick_4">
     <g id="line2d_14">
      <g>
       <use xlink:href="#m3299066cf5" x="57.6" y="164.368155" style="stroke: #000000; stroke-width: 0.8"/>
      </g>
     </g>
     <g id="text_15">
      <!-- 40 -->
      <g transform="translate(37.875 168.167374) scale(0.1 -0.1)">
       <use xlink:href="#DejaVuSans-34"/>
       <use xlink:href="#DejaVuSans-30" x="63.623047"/>
      </g>
     </g>
    </g>
    <g id="ytick_5">
     <g id="line2d_15">
      <g>
       <use xlink:href="#m3299066cf5" x="57.6" y="128.212125" style="stroke: #000000; stroke-width: 0.8"/>
      </g>
     </g>
     <g id="text_16">
      <!-- 50 -->
      <g transform="translate(37.875 132.011344) scale(0.1 -0.1)">
       <defs>
        <path id="DejaVuSans-35" d="M 691 4666 
L 3169 4666 
L 3169 4134 
L 1269 4134 
L 1269 2991 
Q 1406 3038 1543 3061 
Q 1681 3084 1819 3084 
Q 2600 3084 3056 2656 
Q 3513 2228 3513 1497 
Q 3513 744 3044 326 
Q 2575 -91 1722 -91 
Q 1428 -91 1123 -41 
Q 819 9 494 109 
L 494 744 
Q 775 591 1075 516 
Q 1375 441 1709 441 
Q 2250 441 2565 725 
Q 2881 1009 2881 1497 
Q 2881 1984 2565 2268 
Q 2250 2553 1709 2553 
Q 1456 2553 1204 2497 
Q 953 2441 691 2322 
L 691 4666 
z
" transform="scale(0.015625)"/>
       </defs>
       <use xlink:href="#DejaVuSans-35"/>
       <use xlink:href="#DejaVuSans-30" x="63.623047"/>
      </g>
     </g>
    </g>
    <g id="ytick_6">
     <g id="line2d_16">
      <g>
       <use xlink:href="#m3299066cf5" x="57.6" y="92.056094" style="stroke: #000000; stroke-width: 0.8"/>
      </g>
     </g>
     <g id="text_17">
      <!-- 60 -->
      <g transform="translate(37.875 95.855313) scale(0.1 -0.1)">
       <use xlink:href="#DejaVuSans-36"/>
       <use xlink:href="#DejaVuSans-30" x="63.623047"/>
      </g>
     </g>
    </g>
    <g id="ytick_7">
     <g id="line2d_17">
      <g>
       <use xlink:href="#m3299066cf5" x="57.6" y="55.900064" style="stroke: #000000; stroke-width: 0.8"/>
      </g>
     </g>
     <g id="text_18">
      <!-- 70 -->
      <g transform="translate(37.875 59.699283) scale(0.1 -0.1)">
       <use xlink:href="#DejaVuSans-37"/>
       <use xlink:href="#DejaVuSans-30" x="63.623047"/>
      </g>
     </g>
    </g>
    <g id="text_19">
     <!-- Accuracy -->
     <g transform="translate(31.795312 197.356125) rotate(-90) scale(0.1 -0.1)">
      <defs>
       <path id="DejaVuSans-41" d="M 2188 4044 
L 1331 1722 
L 3047 1722 
L 2188 4044 
z
M 1831 4666 
L 2547 4666 
L 4325 0 
L 3669 0 
L 3244 1197 
L 1141 1197 
L 716 0 
L 50 0 
L 1831 4666 
z
" transform="scale(0.015625)"/>
       <path id="DejaVuSans-75" d="M 544 1381 
L 544 3500 
L 1119 3500 
L 1119 1403 
Q 1119 906 1312 657 
Q 1506 409 1894 409 
Q 2359 409 2629 706 
Q 2900 1003 2900 1516 
L 2900 3500 
L 3475 3500 
L 3475 0 
L 2900 0 
L 2900 538 
Q 2691 219 2414 64 
Q 2138 -91 1772 -91 
Q 1169 -91 856 284 
Q 544 659 544 1381 
z
M 1991 3584 
L 1991 3584 
z
" transform="scale(0.015625)"/>
       <path id="DejaVuSans-72" d="M 2631 2963 
Q 2534 3019 2420 3045 
Q 2306 3072 2169 3072 
Q 1681 3072 1420 2755 
Q 1159 2438 1159 1844 
L 1159 0 
L 581 0 
L 581 3500 
L 1159 3500 
L 1159 2956 
Q 1341 3275 1631 3429 
Q 1922 3584 2338 3584 
Q 2397 3584 2469 3576 
Q 2541 3569 2628 3553 
L 2631 2963 
z
" transform="scale(0.015625)"/>
       <path id="DejaVuSans-61" d="M 2194 1759 
Q 1497 1759 1228 1600 
Q 959 1441 959 1056 
Q 959 750 1161 570 
Q 1363 391 1709 391 
Q 2188 391 2477 730 
Q 2766 1069 2766 1631 
L 2766 1759 
L 2194 1759 
z
M 3341 1997 
L 3341 0 
L 2766 0 
L 2766 531 
Q 2569 213 2275 61 
Q 1981 -91 1556 -91 
Q 1019 -91 701 211 
Q 384 513 384 1019 
Q 384 1609 779 1909 
Q 1175 2209 1959 2209 
L 2766 2209 
L 2766 2266 
Q 2766 2663 2505 2880 
Q 2244 3097 1772 3097 
Q 1472 3097 1187 3025 
Q 903 2953 641 2809 
L 641 3341 
Q 956 3463 1253 3523 
Q 1550 3584 1831 3584 
Q 2591 3584 2966 3190 
Q 3341 2797 3341 1997 
z
" transform="scale(0.015625)"/>
       <path id="DejaVuSans-79" d="M 2059 -325 
Q 1816 -950 1584 -1140 
Q 1353 -1331 966 -1331 
L 506 -1331 
L 506 -850 
L 844 -850 
Q 1081 -850 1212 -737 
Q 1344 -625 1503 -206 
L 1606 56 
L 191 3500 
L 800 3500 
L 1894 763 
L 2988 3500 
L 3597 3500 
L 2059 -325 
z
" transform="scale(0.015625)"/>
      </defs>
      <use xlink:href="#DejaVuSans-41"/>
      <use xlink:href="#DejaVuSans-63" x="66.658203"/>
      <use xlink:href="#DejaVuSans-63" x="121.638672"/>
      <use xlink:href="#DejaVuSans-75" x="176.619141"/>
      <use xlink:href="#DejaVuSans-72" x="239.998047"/>
      <use xlink:href="#DejaVuSans-61" x="281.111328"/>
      <use xlink:href="#DejaVuSans-63" x="342.390625"/>
      <use xlink:href="#DejaVuSans-79" x="397.371094"/>
     </g>
    </g>
   </g>
   <g id="line2d_18">
    <path d="M 73.832727 295.488 
L 74.918528 276.732059 
L 76.00433 260.470884 
L 77.090131 247.156426 
L 78.175932 236.087981 
L 79.261733 228.617422 
L 80.347534 219.149242 
L 82.519137 205.929512 
L 83.604938 198.521865 
L 85.77654 188.240175 
L 87.948142 179.219245 
L 89.033943 174.274908 
L 90.119745 170.862863 
L 91.205546 166.70492 
L 92.291347 165.258678 
L 93.377148 163.414359 
L 94.462949 162.926614 
L 95.54875 191.987024 
L 96.634552 189.514675 
L 97.720353 186.757777 
L 98.806154 183.264382 
L 99.891955 179.033765 
L 102.063557 173.425241 
L 103.149358 170.482863 
L 104.23516 166.953312 
L 105.320961 165.457537 
L 106.406762 165.064159 
L 107.492563 160.146939 
L 108.578364 157.489471 
L 109.664165 155.605018 
L 110.749967 153.046618 
L 111.835768 152.382431 
L 112.921569 148.509397 
L 114.00737 145.973775 
L 115.093171 144.088961 
L 116.178972 141.079333 
L 119.436376 135.501904 
L 120.522177 133.26493 
L 122.693779 127.705941 
L 123.77958 126.914847 
L 124.865382 123.769633 
L 125.951183 122.273497 
L 127.036984 120.501851 
L 129.208586 115.241149 
L 130.294387 114.161168 
L 131.380189 114.834394 
L 132.46599 114.504651 
L 133.551791 112.117991 
L 134.637592 112.881968 
L 135.723393 110.690189 
L 136.809194 110.974737 
L 137.894995 110.066498 
L 138.980797 146.579388 
L 140.066598 150.895334 
L 141.152399 148.802984 
L 142.2382 146.999522 
L 143.324001 148.125059 
L 144.409802 146.93661 
L 145.495604 144.672158 
L 146.581405 144.907172 
L 147.667206 143.307268 
L 148.753007 143.11311 
L 149.838808 142.421445 
L 150.924609 142.177392 
L 152.01041 138.652179 
L 154.182013 136.342893 
L 158.525217 133.780154 
L 160.69682 130.399565 
L 162.868422 128.849556 
L 163.954223 128.840155 
L 165.040024 126.616921 
L 166.125825 125.297226 
L 167.211627 125.297226 
L 168.297428 124.393325 
L 169.383229 123.132203 
L 170.46903 122.666875 
L 171.554831 120.687332 
L 172.640632 119.493821 
L 173.726434 120.036523 
L 174.812235 118.585582 
L 175.898036 116.755002 
L 176.983837 115.476163 
L 178.069638 115.702138 
L 180.24124 112.276355 
L 181.327042 112.082197 
L 182.412843 110.238239 
L 183.498644 107.978487 
L 184.584445 109.600808 
L 185.670246 106.76256 
L 186.756047 105.768269 
L 187.841849 104.087014 
L 188.92765 103.214569 
L 190.013451 102.67259 
L 191.099252 101.461363 
L 192.185053 101.090763 
L 193.270854 99.020831 
L 194.356656 97.592306 
L 195.442457 97.578928 
L 196.528258 96.711183 
L 197.614059 96.670327 
L 198.69986 93.945247 
L 199.785661 93.384829 
L 200.871462 93.330595 
L 201.957264 90.899101 
L 203.043065 89.299197 
L 204.128866 89.683536 
L 205.214667 87.410045 
L 206.300468 87.306277 
L 207.386269 85.457619 
L 208.472071 85.326734 
L 210.643673 82.515241 
L 211.729474 83.916649 
L 212.815275 82.615032 
L 213.901076 81.774043 
L 214.986877 79.17117 
L 216.072679 81.647858 
L 217.15848 79.446679 
L 218.244281 79.840056 
L 221.501684 78.583273 
L 222.587486 78.334881 
L 223.673287 80.034214 
L 224.759088 80.576555 
L 225.844889 126.639338 
L 226.93069 129.617871 
L 228.016491 131.298765 
L 229.102292 130.033304 
L 230.188094 130.245902 
L 231.273895 129.604132 
L 232.359696 129.640288 
L 233.445497 127.597472 
L 234.531298 128.456178 
L 235.617099 127.195417 
L 236.702901 127.34438 
L 237.788702 125.857644 
L 238.874503 124.826836 
L 239.960304 126.137853 
L 241.046105 124.388625 
L 242.131906 125.098368 
L 243.217708 123.914258 
L 244.303509 123.688282 
L 245.38931 122.693992 
L 246.475111 122.088016 
L 247.560912 121.997626 
L 248.646713 121.048531 
L 249.732514 119.552756 
L 250.818316 120.578864 
L 251.904117 119.706419 
L 252.989918 119.928055 
L 254.075719 118.69405 
L 255.16152 118.612699 
L 256.247321 117.69072 
L 257.333123 117.451006 
L 258.418924 118.061319 
L 259.504725 118.305373 
L 260.590526 117.618408 
L 261.676327 117.541396 
L 262.762128 114.938161 
L 263.847929 114.730626 
L 264.933731 115.557514 
L 267.105333 113.415269 
L 268.191134 113.889998 
L 269.276935 114.49995 
L 271.448538 112.7782 
L 272.534339 111.019932 
L 273.62014 110.983776 
L 274.705941 112.113652 
L 275.791742 110.78058 
L 276.877543 109.691198 
L 277.963344 109.727354 
L 279.049146 110.658372 
L 280.134947 110.369124 
L 281.220748 109.166936 
L 282.306549 109.433406 
L 283.39235 110.116032 
L 284.478151 106.970457 
L 285.563953 107.928592 
L 286.649754 106.478012 
L 287.735555 106.215519 
L 288.821356 106.31531 
L 289.907157 105.863359 
L 290.992958 105.718735 
L 292.07876 105.321019 
L 293.164561 103.806804 
L 294.250362 104.077975 
L 295.336163 103.815843 
L 296.421964 103.314359 
L 297.507765 104.200182 
L 298.593566 101.38435 
L 299.679368 102.410458 
L 300.765169 101.289622 
L 301.85097 100.728841 
L 302.936771 101.158375 
L 304.022572 99.739251 
L 305.108373 100.276891 
L 306.194175 98.799194 
L 307.279976 97.863838 
L 308.365777 98.65927 
L 309.451578 96.123648 
L 310.537379 96.349623 
L 311.62318 97.01851 
L 312.708981 95.391488 
L 313.794783 96.006141 
L 314.880584 95.635541 
L 315.966385 93.204048 
L 317.052186 93.619843 
L 319.223788 92.715942 
L 320.30959 93.398568 
L 321.395391 92.114667 
L 322.481192 90.45619 
L 323.566993 89.782965 
L 324.652794 88.91522 
L 325.738595 88.888103 
L 326.824396 87.861995 
L 327.910198 87.156952 
L 328.995999 87.739788 
L 330.0818 85.945725 
L 331.167601 85.90053 
L 332.253402 85.114137 
L 333.339203 83.563766 
L 334.425005 84.268809 
L 335.510806 83.07566 
L 336.596607 83.464698 
L 337.682408 81.80586 
L 338.768209 81.118895 
L 339.85401 80.581255 
L 340.939811 79.428601 
L 342.025613 80.242111 
L 343.111414 80.147021 
L 344.197215 78.673663 
L 345.283016 78.578934 
L 346.368817 77.141732 
L 347.454618 76.431989 
L 348.54042 74.751095 
L 349.626221 75.06276 
L 350.712022 76.120324 
L 351.797823 74.023274 
L 352.883624 73.882989 
L 353.969425 72.852542 
L 355.055227 73.028983 
L 356.141028 71.062999 
L 357.226829 71.316091 
L 358.31263 70.556815 
L 359.398431 71.076558 
L 360.484232 69.892448 
L 361.570033 68.31966 
L 362.655835 67.284694 
L 363.741636 67.971659 
L 364.827437 68.165997 
L 365.913238 66.77399 
L 366.999039 66.444066 
L 368.08484 68.730935 
L 369.170642 68.428129 
L 370.256443 69.770421 
L 371.342244 72.622228 
L 372.428045 74.547537 
L 373.513846 73.874131 
L 374.599647 74.104625 
L 375.685448 75.686452 
L 376.77125 75.858193 
L 377.857051 74.714758 
L 378.942852 75.559906 
L 380.028653 76.24687 
L 381.114454 75.808478 
L 382.200255 74.312522 
L 383.286057 76.283026 
L 384.371858 76.273987 
L 385.457659 75.808478 
L 387.629261 76.576794 
L 388.715062 75.234501 
L 389.800863 75.776842 
L 390.886665 76.712379 
L 391.972466 75.573464 
L 393.058267 75.740686 
L 394.144068 75.722608 
L 395.229869 77.055861 
L 396.31567 76.789211 
L 397.401472 75.871751 
L 398.487273 74.443588 
L 398.487273 74.443588 
" clip-path="url(#pdff2f4280a)" style="fill: none; stroke: #1f77b4; stroke-width: 1.5; stroke-linecap: square"/>
   </g>
   <g id="line2d_19">
    <path d="M 73.832727 278.856226 
L 74.918528 265.803899 
L 76.00433 240.223507 
L 78.175932 217.318662 
L 79.261733 209.183555 
L 80.347534 193.726852 
L 81.433335 188.303448 
L 82.519137 176.787752 
L 83.604938 173.931425 
L 84.690739 170.06273 
L 85.77654 164.368155 
L 86.862341 155.528006 
L 87.948142 151.442375 
L 91.205546 136.72687 
L 92.291347 135.208317 
L 93.377148 134.376728 
L 94.462949 134.051324 
L 95.54875 169.773482 
L 96.634552 163.355787 
L 97.720353 167.134092 
L 98.806154 157.263495 
L 99.891955 148.766828 
L 100.977756 146.055126 
L 102.063557 140.324395 
L 103.149358 139.312026 
L 104.23516 138.082721 
L 105.320961 136.383388 
L 106.406762 134.937147 
L 107.492563 128.447139 
L 108.578364 127.543238 
L 109.664165 125.120784 
L 110.749967 128.410983 
L 111.835768 121.957132 
L 112.921569 119.751614 
L 114.00737 114.364365 
L 115.093171 111.978067 
L 116.178972 111.706897 
L 117.264773 110.49567 
L 118.350575 106.428117 
L 119.436376 105.84962 
L 120.522177 101.926691 
L 121.607978 101.709755 
L 122.693779 97.714513 
L 123.77958 96.232116 
L 124.865382 94.948577 
L 125.951183 92.996151 
L 127.036984 92.743059 
L 128.122785 93.303478 
L 129.208586 89.615562 
L 130.294387 88.838208 
L 132.46599 86.741158 
L 133.551791 86.216896 
L 134.637592 86.415754 
L 135.723393 84.824888 
L 137.894995 84.71642 
L 138.980797 120.583203 
L 140.066598 123.077969 
L 141.152399 123.855323 
L 142.2382 123.312983 
L 143.324001 116.768741 
L 144.409802 118.305373 
L 145.495604 118.178826 
L 146.581405 113.514699 
L 147.667206 112.574642 
L 148.753007 111.200713 
L 149.838808 119.263507 
L 150.924609 109.808705 
L 152.01041 111.887677 
L 153.096212 111.236869 
L 155.267814 107.133159 
L 156.353615 106.21118 
L 157.439416 107.476641 
L 158.525217 105.524216 
L 159.611019 106.175024 
L 160.69682 99.974265 
L 162.868422 104.728783 
L 163.954223 99.287301 
L 165.040024 99.974265 
L 166.125825 98.781116 
L 167.211627 99.992343 
L 168.297428 97.479499 
L 169.383229 95.508995 
L 170.46903 98.347244 
L 171.554831 97.895293 
L 172.640632 94.026598 
L 173.726434 93.574648 
L 174.812235 90.591775 
L 175.898036 89.00091 
L 176.983837 91.477598 
L 178.069638 86.488066 
L 179.155439 90.519463 
L 180.24124 85.999959 
L 181.327042 82.999009 
L 182.412843 85.674555 
L 183.498644 88.91052 
L 184.584445 81.046583 
L 185.670246 79.25686 
L 186.756047 83.215945 
L 187.841849 79.509952 
L 188.92765 81.371987 
L 190.013451 84.137924 
L 191.099252 76.744016 
L 192.185053 72.531838 
L 193.270854 75.442398 
L 194.356656 75.713569 
L 195.442457 73.489973 
L 196.528258 72.224512 
L 197.614059 71.664093 
L 198.69986 70.651724 
L 199.785661 71.194065 
L 200.871462 68.626987 
L 201.957264 68.590831 
L 203.043065 66.999965 
L 204.128866 68.301582 
L 205.214667 64.758291 
L 206.300468 64.288263 
L 207.386269 65.68027 
L 208.472071 63.384362 
L 209.557872 65.77066 
L 210.643673 63.836313 
L 211.729474 63.113192 
L 212.815275 62.191213 
L 214.986877 61.486171 
L 217.15848 62.281603 
L 218.244281 61.12461 
L 219.330082 60.979986 
L 220.415883 60.67266 
L 221.501684 60.799206 
L 222.587486 60.184554 
L 223.673287 60.799206 
L 224.759088 60.546114 
L 225.844889 109.935252 
L 226.93069 108.687868 
L 228.016491 108.633634 
L 229.102292 108.109372 
L 230.188094 104.132209 
L 231.273895 104.475691 
L 232.359696 104.692627 
L 233.445497 100.498528 
L 234.531298 104.638393 
L 235.617099 99.920031 
L 236.702901 107.259705 
L 237.788702 105.108421 
L 238.874503 102.631733 
L 239.960304 99.721173 
L 241.046105 103.047528 
L 242.131906 105.650762 
L 243.217708 93.122697 
L 244.303509 95.454761 
L 245.38931 102.071315 
L 246.475111 101.691677 
L 247.560912 96.232116 
L 248.646713 95.273981 
L 249.732514 95.816322 
L 250.818316 92.435733 
L 251.904117 98.781116 
L 252.989918 94.080832 
L 254.075719 93.990442 
L 255.16152 97.298719 
L 256.247321 94.948577 
L 257.333123 98.329166 
L 258.418924 91.676456 
L 259.504725 107.548954 
L 260.590526 91.116038 
L 261.676327 93.158853 
L 262.762128 89.254002 
L 263.847929 91.079882 
L 264.933731 90.429073 
L 266.019532 92.508045 
L 267.105333 91.09796 
L 268.191134 92.471889 
L 269.276935 87.681215 
L 270.362736 91.18835 
L 271.448538 90.501385 
L 272.534339 87.193108 
L 273.62014 94.514705 
L 274.705941 94.858187 
L 275.791742 89.145534 
L 276.877543 91.260662 
L 277.963344 90.899101 
L 279.049146 91.983782 
L 280.134947 87.554669 
L 281.220748 93.176931 
L 282.306549 93.628882 
L 283.39235 87.446201 
L 284.478151 89.254002 
L 285.563953 89.308236 
L 286.649754 86.379598 
L 287.735555 84.427172 
L 288.821356 87.825839 
L 289.907157 86.867704 
L 290.992958 89.45286 
L 292.07876 80.214994 
L 293.164561 86.216896 
L 294.250362 84.788732 
L 295.336163 84.879122 
L 296.421964 79.672654 
L 297.507765 77.358668 
L 298.593566 80.956193 
L 299.679368 79.293016 
L 300.765169 78.714519 
L 301.85097 80.450009 
L 302.936771 81.588924 
L 304.022572 82.149342 
L 305.108373 81.733548 
L 306.194175 79.961902 
L 308.365777 78.190257 
L 309.451578 76.310143 
L 310.537379 76.545157 
L 312.708981 77.629838 
L 313.794783 75.388164 
L 314.880584 71.808717 
L 315.966385 76.165519 
L 317.052186 72.567994 
L 318.137987 75.207384 
L 319.223788 75.677413 
L 320.30959 73.869611 
L 321.395391 76.617469 
L 322.481192 72.69454 
L 323.566993 73.562285 
L 324.652794 73.688831 
L 325.738595 73.218803 
L 326.824396 68.970469 
L 327.910198 70.832505 
L 328.995999 71.772561 
L 330.0818 69.675512 
L 331.167601 70.995207 
L 332.253402 69.494731 
L 333.339203 67.361526 
L 334.425005 69.820136 
L 335.510806 69.078937 
L 336.596607 68.572753 
L 337.682408 67.650774 
L 338.768209 66.077987 
L 339.85401 66.349157 
L 340.939811 63.637454 
L 342.025613 63.113192 
L 343.111414 62.046589 
L 344.197215 61.215 
L 345.283016 60.799206 
L 347.454618 61.269234 
L 348.54042 60.654582 
L 349.626221 57.201681 
L 350.712022 58.647922 
L 351.797823 58.467142 
L 352.883624 57.834412 
L 353.969425 56.948589 
L 355.055227 58.919093 
L 356.141028 58.864858 
L 357.226829 57.617475 
L 358.31263 57.780178 
L 359.398431 56.352014 
L 362.655835 55.84583 
L 363.741636 54.598447 
L 364.827437 54.616525 
L 365.913238 54.254965 
L 366.999039 54.526135 
L 368.08484 53.568 
L 369.170642 58.250206 
L 370.256443 58.03327 
L 371.342244 60.726894 
L 372.428045 58.322518 
L 373.513846 60.112242 
L 374.599647 62.552774 
L 375.685448 63.113192 
L 376.77125 59.967617 
L 377.857051 60.347256 
L 378.942852 61.558483 
L 380.028653 60.383412 
L 381.114454 63.420518 
L 382.200255 60.166476 
L 383.286057 62.49854 
L 384.371858 62.8601 
L 385.457659 62.914334 
L 386.54346 59.371043 
L 387.629261 62.317759 
L 388.715062 61.865809 
L 389.800863 63.782079 
L 390.886665 60.925752 
L 391.972466 62.245447 
L 393.058267 59.913383 
L 394.144068 62.281603 
L 395.229869 60.817284 
L 396.31567 60.961908 
L 397.401472 61.486171 
L 398.487273 62.136979 
L 398.487273 62.136979 
" clip-path="url(#pdff2f4280a)" style="fill: none; stroke: #ff7f0e; stroke-width: 1.5; stroke-linecap: square"/>
   </g>
   <g id="line2d_20">
    <path d="M 73.832727 288.296204 
L 74.918528 279.444123 
L 76.00433 268.223099 
L 77.090131 265.605041 
L 78.175932 256.004892 
L 79.261733 251.01789 
L 80.347534 241.542479 
L 81.433335 235.80741 
L 82.519137 228.82568 
L 83.604938 225.708669 
L 84.690739 226.207261 
L 85.77654 224.960601 
L 86.862341 219.475008 
L 87.948142 215.984143 
L 89.033943 209.376267 
L 90.119745 204.264527 
L 91.205546 202.145061 
L 92.291347 201.272254 
L 93.377148 201.895584 
L 94.462949 199.776118 
L 95.54875 229.44901 
L 96.634552 222.841134 
L 97.720353 224.960601 
L 98.806154 220.721668 
L 99.891955 212.119063 
L 100.977756 210.498188 
L 102.063557 209.625382 
L 103.149358 201.022778 
L 104.23516 204.763119 
L 105.320961 200.648924 
L 106.406762 199.277526 
L 107.492563 194.041048 
L 108.578364 191.048775 
L 109.664165 190.550183 
L 110.749967 198.155243 
L 111.835768 190.175968 
L 112.921569 190.05123 
L 114.00737 190.674922 
L 115.093171 180.326704 
L 116.178972 180.825296 
L 117.264773 183.318977 
L 118.350575 177.209693 
L 119.436376 178.331976 
L 120.522177 177.957761 
L 121.607978 175.838295 
L 123.77958 169.230418 
L 124.865382 170.227963 
L 125.951183 168.731827 
L 127.036984 167.609905 
L 128.122785 166.861837 
L 129.208586 162.498166 
L 130.294387 162.498166 
L 131.380189 160.503076 
L 133.551791 159.131678 
L 134.637592 161.625359 
L 135.723393 158.633086 
L 136.809194 159.131678 
L 137.894995 160.627814 
L 138.980797 190.425445 
L 140.066598 195.911038 
L 141.152399 186.93458 
L 142.2382 192.171058 
L 143.324001 190.300707 
L 144.409802 191.921582 
L 145.495604 188.305979 
L 146.581405 181.573364 
L 147.667206 182.196694 
L 148.753007 179.703374 
L 149.838808 193.91631 
L 150.924609 177.459169 
L 152.01041 183.692831 
L 153.096212 180.201966 
L 154.182013 181.573364 
L 155.267814 180.700558 
L 156.353615 178.456714 
L 157.439416 178.207238 
L 158.525217 180.326704 
L 159.611019 177.209693 
L 160.69682 173.344975 
L 161.782621 174.716373 
L 162.868422 179.828113 
L 163.954223 173.095498 
L 165.040024 172.97076 
L 166.125825 170.976032 
L 167.211627 171.349885 
L 168.297428 173.095498 
L 169.383229 175.464441 
L 170.46903 173.220236 
L 171.554831 166.238145 
L 172.640632 172.596906 
L 173.726434 165.490077 
L 174.812235 169.978487 
L 175.898036 164.243417 
L 176.983837 165.116224 
L 178.069638 161.750097 
L 179.155439 165.98903 
L 180.24124 157.386426 
L 181.327042 154.144676 
L 182.412843 158.383609 
L 183.498644 165.116224 
L 184.584445 153.022755 
L 185.670246 155.017483 
L 186.756047 159.381154 
L 187.841849 156.264143 
L 188.92765 159.755008 
L 190.013451 158.633086 
L 191.099252 155.266959 
L 192.185053 149.656267 
L 193.270854 147.911015 
L 194.356656 149.157675 
L 195.442457 151.40188 
L 196.528258 148.534345 
L 197.614059 145.168219 
L 198.69986 146.663994 
L 199.785661 141.801731 
L 200.871462 142.300684 
L 201.957264 145.916287 
L 203.043065 143.921197 
L 204.128866 146.165402 
L 205.214667 144.42015 
L 206.300468 138.061389 
L 207.386269 143.796459 
L 208.472071 139.183672 
L 209.557872 143.672082 
L 210.643673 141.427877 
L 211.729474 141.676992 
L 212.815275 138.809457 
L 213.901076 138.934196 
L 214.986877 138.310866 
L 216.072679 139.557526 
L 217.15848 139.308411 
L 218.244281 135.193854 
L 219.330082 136.066661 
L 220.415883 134.944739 
L 221.501684 136.191399 
L 222.587486 136.565253 
L 223.673287 135.193854 
L 224.759088 134.570524 
L 225.844889 180.077228 
L 226.93069 178.955306 
L 228.016491 181.698102 
L 229.102292 182.196694 
L 230.188094 176.960578 
L 231.273895 180.451442 
L 233.445497 167.485167 
L 234.531298 171.973215 
L 235.617099 168.731827 
L 236.702901 185.812297 
L 237.788702 182.820024 
L 238.874503 180.950034 
L 239.960304 165.614815 
L 241.046105 182.196694 
L 242.131906 183.942307 
L 243.217708 169.230418 
L 244.303509 171.349885 
L 245.38931 171.225508 
L 246.475111 169.853748 
L 247.560912 172.34743 
L 248.646713 167.983758 
L 249.732514 173.344975 
L 250.818316 162.498166 
L 251.904117 172.097953 
L 252.989918 165.864292 
L 254.075719 165.240962 
L 255.16152 169.479895 
L 256.247321 168.357612 
L 257.333123 166.737099 
L 258.418924 160.378699 
L 259.504725 179.453898 
L 260.590526 164.118679 
L 261.676327 162.373427 
L 262.762128 165.116224 
L 263.847929 158.633086 
L 264.933731 167.485167 
L 266.019532 166.238145 
L 267.105333 160.752552 
L 268.191134 169.479895 
L 269.276935 161.251144 
L 270.362736 171.973215 
L 271.448538 166.362884 
L 272.534339 159.630631 
L 273.62014 166.861837 
L 274.705941 172.721283 
L 275.791742 167.85902 
L 276.877543 160.503076 
L 277.963344 163.869564 
L 279.049146 160.378699 
L 280.134947 165.98903 
L 281.220748 165.240962 
L 282.306549 169.604633 
L 283.39235 157.012211 
L 284.478151 159.630631 
L 285.563953 165.3657 
L 286.649754 163.246234 
L 287.735555 157.261688 
L 288.821356 157.510803 
L 289.907157 160.752552 
L 290.992958 165.240962 
L 292.07876 154.144676 
L 293.164561 160.129222 
L 294.250362 159.131678 
L 295.336163 160.503076 
L 296.421964 154.518891 
L 297.507765 155.142221 
L 298.593566 159.256416 
L 300.765169 151.40188 
L 301.85097 162.498166 
L 302.936771 155.391336 
L 304.022572 153.770823 
L 305.108373 155.890289 
L 306.194175 157.510803 
L 307.279976 152.274686 
L 308.365777 149.282413 
L 309.451578 146.788732 
L 310.537379 147.786277 
L 311.62318 155.017483 
L 312.708981 152.274686 
L 314.880584 148.908198 
L 315.966385 151.775733 
L 317.052186 148.908198 
L 318.137987 147.911015 
L 319.223788 152.773278 
L 320.30959 152.149948 
L 321.395391 150.529073 
L 322.481192 148.284868 
L 323.566993 147.5368 
L 324.652794 154.643268 
L 325.738595 150.15522 
L 326.824396 140.056479 
L 327.910198 145.542072 
L 328.995999 146.788732 
L 330.0818 143.672082 
L 331.167601 144.544527 
L 332.253402 140.804547 
L 333.339203 139.183672 
L 334.425005 142.799275 
L 335.510806 143.297867 
L 336.596607 138.186128 
L 337.682408 140.928924 
L 338.768209 136.565253 
L 339.85401 141.303139 
L 340.939811 136.689991 
L 342.025613 136.814729 
L 343.111414 132.700535 
L 344.197215 134.196671 
L 345.283016 131.827728 
L 346.368817 133.199126 
L 347.454618 131.204398 
L 348.54042 131.70299 
L 349.626221 128.835455 
L 350.712022 132.575796 
L 351.797823 132.451058 
L 352.883624 128.835455 
L 353.969425 129.20967 
L 355.055227 128.960193 
L 356.141028 129.458885 
L 357.226829 129.832913 
L 358.31263 129.957588 
L 359.398431 126.217309 
L 360.484232 128.212125 
L 361.570033 128.710829 
L 362.655835 125.718606 
L 363.741636 123.599114 
L 364.827437 124.097818 
L 365.913238 126.466661 
L 366.999039 129.583561 
L 368.08484 124.97055 
L 369.170642 132.575784 
L 370.256443 134.196571 
L 371.342244 133.074488 
L 372.428045 128.835505 
L 373.513846 126.840689 
L 374.599647 136.690091 
L 375.685448 138.684906 
L 376.77125 130.456292 
L 377.857051 135.817359 
L 380.028653 132.575784 
L 381.114454 139.80699 
L 382.200255 131.952404 
L 383.286057 135.193979 
L 384.371858 136.565415 
L 385.457659 136.440739 
L 386.54346 130.705644 
L 387.629261 137.812174 
L 388.715062 139.80699 
L 389.800863 142.175833 
L 390.886665 140.929074 
L 391.972466 132.70046 
L 393.058267 128.461477 
L 394.144068 133.32384 
L 395.229869 129.708237 
L 396.31567 132.70046 
L 397.401472 137.687498 
L 398.487273 130.83032 
L 398.487273 130.83032 
" clip-path="url(#pdff2f4280a)" style="fill: none; stroke: #2ca02c; stroke-width: 1.5; stroke-linecap: square"/>
   </g>
   <g id="line2d_21">
    <path d="M 368.08484 54.923851 
L 369.170642 56.117 
L 370.256443 57.599397 
L 371.342244 60.166476 
L 372.428045 61.630795 
L 373.513846 62.58893 
L 374.599647 60.021851 
L 375.685448 60.256866 
L 376.77125 61.395781 
L 377.857051 61.938121 
L 378.942852 63.565142 
L 380.028653 59.660291 
L 381.114454 65.246398 
L 382.200255 61.413859 
L 383.286057 64.740213 
L 384.371858 77.214044 
L 385.457659 68.156958 
L 386.54346 68.030412 
L 387.629261 64.215951 
L 388.715062 66.005674 
L 389.800863 71.067519 
L 390.886665 70.561334 
L 391.972466 73.345349 
L 393.058267 68.156958 
L 395.229869 75.42432 
L 396.31567 75.24354 
L 397.401472 74.267327 
L 398.487273 79.943824 
L 398.487273 79.943824 
" clip-path="url(#pdff2f4280a)" style="fill: none; stroke: #d62728; stroke-width: 1.5; stroke-linecap: square"/>
   </g>
   <g id="line2d_22">
    <path d="M 368.08484 128.835505 
L 369.170642 132.201756 
L 370.256443 125.718606 
L 371.342244 129.209533 
L 372.428045 136.066711 
L 373.513846 140.056342 
L 374.599647 132.949812 
L 375.685448 130.83032 
L 376.77125 131.079672 
L 377.857051 132.07708 
L 378.942852 136.316063 
L 380.028653 132.326432 
L 381.114454 134.321247 
L 382.200255 132.326432 
L 383.286057 137.064119 
L 384.371858 149.407039 
L 385.457659 138.809582 
L 386.54346 140.181018 
L 387.629261 130.580968 
L 389.800863 137.064119 
L 390.886665 138.310878 
L 391.972466 141.303102 
L 393.058267 134.944627 
L 394.144068 139.308286 
L 395.229869 139.18361 
L 396.31567 137.188795 
L 397.401472 140.929074 
L 398.487273 157.261625 
L 398.487273 157.261625 
" clip-path="url(#pdff2f4280a)" style="fill: none; stroke: #9467bd; stroke-width: 1.5; stroke-linecap: square"/>
   </g>
   <g id="patch_3">
    <path d="M 57.6 307.584 
L 57.6 41.472 
" style="fill: none; stroke: #000000; stroke-width: 0.8; stroke-linejoin: miter; stroke-linecap: square"/>
   </g>
   <g id="patch_4">
    <path d="M 414.72 307.584 
L 414.72 41.472 
" style="fill: none; stroke: #000000; stroke-width: 0.8; stroke-linejoin: miter; stroke-linecap: square"/>
   </g>
   <g id="patch_5">
    <path d="M 57.6 307.584 
L 414.72 307.584 
" style="fill: none; stroke: #000000; stroke-width: 0.8; stroke-linejoin: miter; stroke-linecap: square"/>
   </g>
   <g id="patch_6">
    <path d="M 57.6 41.472 
L 414.72 41.472 
" style="fill: none; stroke: #000000; stroke-width: 0.8; stroke-linejoin: miter; stroke-linecap: square"/>
   </g>
   <g id="text_20">
    <!-- Learning Curves -->
    <g transform="translate(187.37625 35.472) scale(0.12 -0.12)">
     <defs>
      <path id="DejaVuSans-4c" d="M 628 4666 
L 1259 4666 
L 1259 531 
L 3531 531 
L 3531 0 
L 628 0 
L 628 4666 
z
" transform="scale(0.015625)"/>
      <path id="DejaVuSans-65" d="M 3597 1894 
L 3597 1613 
L 953 1613 
Q 991 1019 1311 708 
Q 1631 397 2203 397 
Q 2534 397 2845 478 
Q 3156 559 3463 722 
L 3463 178 
Q 3153 47 2828 -22 
Q 2503 -91 2169 -91 
Q 1331 -91 842 396 
Q 353 884 353 1716 
Q 353 2575 817 3079 
Q 1281 3584 2069 3584 
Q 2775 3584 3186 3129 
Q 3597 2675 3597 1894 
z
M 3022 2063 
Q 3016 2534 2758 2815 
Q 2500 3097 2075 3097 
Q 1594 3097 1305 2825 
Q 1016 2553 972 2059 
L 3022 2063 
z
" transform="scale(0.015625)"/>
      <path id="DejaVuSans-6e" d="M 3513 2113 
L 3513 0 
L 2938 0 
L 2938 2094 
Q 2938 2591 2744 2837 
Q 2550 3084 2163 3084 
Q 1697 3084 1428 2787 
Q 1159 2491 1159 1978 
L 1159 0 
L 581 0 
L 581 3500 
L 1159 3500 
L 1159 2956 
Q 1366 3272 1645 3428 
Q 1925 3584 2291 3584 
Q 2894 3584 3203 3211 
Q 3513 2838 3513 2113 
z
" transform="scale(0.015625)"/>
      <path id="DejaVuSans-69" d="M 603 3500 
L 1178 3500 
L 1178 0 
L 603 0 
L 603 3500 
z
M 603 4863 
L 1178 4863 
L 1178 4134 
L 603 4134 
L 603 4863 
z
" transform="scale(0.015625)"/>
      <path id="DejaVuSans-67" d="M 2906 1791 
Q 2906 2416 2648 2759 
Q 2391 3103 1925 3103 
Q 1463 3103 1205 2759 
Q 947 2416 947 1791 
Q 947 1169 1205 825 
Q 1463 481 1925 481 
Q 2391 481 2648 825 
Q 2906 1169 2906 1791 
z
M 3481 434 
Q 3481 -459 3084 -895 
Q 2688 -1331 1869 -1331 
Q 1566 -1331 1297 -1286 
Q 1028 -1241 775 -1147 
L 775 -588 
Q 1028 -725 1275 -790 
Q 1522 -856 1778 -856 
Q 2344 -856 2625 -561 
Q 2906 -266 2906 331 
L 2906 616 
Q 2728 306 2450 153 
Q 2172 0 1784 0 
Q 1141 0 747 490 
Q 353 981 353 1791 
Q 353 2603 747 3093 
Q 1141 3584 1784 3584 
Q 2172 3584 2450 3431 
Q 2728 3278 2906 2969 
L 2906 3500 
L 3481 3500 
L 3481 434 
z
" transform="scale(0.015625)"/>
      <path id="DejaVuSans-20" transform="scale(0.015625)"/>
      <path id="DejaVuSans-43" d="M 4122 4306 
L 4122 3641 
Q 3803 3938 3442 4084 
Q 3081 4231 2675 4231 
Q 1875 4231 1450 3742 
Q 1025 3253 1025 2328 
Q 1025 1406 1450 917 
Q 1875 428 2675 428 
Q 3081 428 3442 575 
Q 3803 722 4122 1019 
L 4122 359 
Q 3791 134 3420 21 
Q 3050 -91 2638 -91 
Q 1578 -91 968 557 
Q 359 1206 359 2328 
Q 359 3453 968 4101 
Q 1578 4750 2638 4750 
Q 3056 4750 3426 4639 
Q 3797 4528 4122 4306 
z
" transform="scale(0.015625)"/>
      <path id="DejaVuSans-76" d="M 191 3500 
L 800 3500 
L 1894 563 
L 2988 3500 
L 3597 3500 
L 2284 0 
L 1503 0 
L 191 3500 
z
" transform="scale(0.015625)"/>
     </defs>
     <use xlink:href="#DejaVuSans-4c"/>
     <use xlink:href="#DejaVuSans-65" x="53.962891"/>
     <use xlink:href="#DejaVuSans-61" x="115.486328"/>
     <use xlink:href="#DejaVuSans-72" x="176.765625"/>
     <use xlink:href="#DejaVuSans-6e" x="216.128906"/>
     <use xlink:href="#DejaVuSans-69" x="279.507812"/>
     <use xlink:href="#DejaVuSans-6e" x="307.291016"/>
     <use xlink:href="#DejaVuSans-67" x="370.669922"/>
     <use xlink:href="#DejaVuSans-20" x="434.146484"/>
     <use xlink:href="#DejaVuSans-43" x="465.933594"/>
     <use xlink:href="#DejaVuSans-75" x="535.757812"/>
     <use xlink:href="#DejaVuSans-72" x="599.136719"/>
     <use xlink:href="#DejaVuSans-76" x="640.25"/>
     <use xlink:href="#DejaVuSans-65" x="699.429688"/>
     <use xlink:href="#DejaVuSans-73" x="760.953125"/>
    </g>
   </g>
   <g id="legend_1">
    <g id="patch_7">
     <path d="M 214.18875 302.584 
L 407.72 302.584 
Q 409.72 302.584 409.72 300.584 
L 409.72 228.193375 
Q 409.72 226.193375 407.72 226.193375 
L 214.18875 226.193375 
Q 212.18875 226.193375 212.18875 228.193375 
L 212.18875 300.584 
Q 212.18875 302.584 214.18875 302.584 
z
" style="fill: #ffffff; opacity: 0.8; stroke: #cccccc; stroke-linejoin: miter"/>
    </g>
    <g id="line2d_23">
     <path d="M 216.18875 234.291812 
L 226.18875 234.291812 
L 236.18875 234.291812 
" style="fill: none; stroke: #1f77b4; stroke-width: 1.5; stroke-linecap: square"/>
    </g>
    <g id="text_21">
     <!-- Train Accuracy -->
     <g transform="translate(244.18875 237.791812) scale(0.1 -0.1)">
      <defs>
       <path id="DejaVuSans-54" d="M -19 4666 
L 3928 4666 
L 3928 4134 
L 2272 4134 
L 2272 0 
L 1638 0 
L 1638 4134 
L -19 4134 
L -19 4666 
z
" transform="scale(0.015625)"/>
      </defs>
      <use xlink:href="#DejaVuSans-54"/>
      <use xlink:href="#DejaVuSans-72" x="46.333984"/>
      <use xlink:href="#DejaVuSans-61" x="87.447266"/>
      <use xlink:href="#DejaVuSans-69" x="148.726562"/>
      <use xlink:href="#DejaVuSans-6e" x="176.509766"/>
      <use xlink:href="#DejaVuSans-20" x="239.888672"/>
      <use xlink:href="#DejaVuSans-41" x="271.675781"/>
      <use xlink:href="#DejaVuSans-63" x="338.333984"/>
      <use xlink:href="#DejaVuSans-63" x="393.314453"/>
      <use xlink:href="#DejaVuSans-75" x="448.294922"/>
      <use xlink:href="#DejaVuSans-72" x="511.673828"/>
      <use xlink:href="#DejaVuSans-61" x="552.787109"/>
      <use xlink:href="#DejaVuSans-63" x="614.066406"/>
      <use xlink:href="#DejaVuSans-79" x="669.046875"/>
     </g>
    </g>
    <g id="line2d_24">
     <path d="M 216.18875 248.969937 
L 226.18875 248.969937 
L 236.18875 248.969937 
" style="fill: none; stroke: #ff7f0e; stroke-width: 1.5; stroke-linecap: square"/>
    </g>
    <g id="text_22">
     <!-- Validation Accuracy -->
     <g transform="translate(244.18875 252.469937) scale(0.1 -0.1)">
      <defs>
       <path id="DejaVuSans-56" d="M 1831 0 
L 50 4666 
L 709 4666 
L 2188 738 
L 3669 4666 
L 4325 4666 
L 2547 0 
L 1831 0 
z
" transform="scale(0.015625)"/>
       <path id="DejaVuSans-6c" d="M 603 4863 
L 1178 4863 
L 1178 0 
L 603 0 
L 603 4863 
z
" transform="scale(0.015625)"/>
       <path id="DejaVuSans-64" d="M 2906 2969 
L 2906 4863 
L 3481 4863 
L 3481 0 
L 2906 0 
L 2906 525 
Q 2725 213 2448 61 
Q 2172 -91 1784 -91 
Q 1150 -91 751 415 
Q 353 922 353 1747 
Q 353 2572 751 3078 
Q 1150 3584 1784 3584 
Q 2172 3584 2448 3432 
Q 2725 3281 2906 2969 
z
M 947 1747 
Q 947 1113 1208 752 
Q 1469 391 1925 391 
Q 2381 391 2643 752 
Q 2906 1113 2906 1747 
Q 2906 2381 2643 2742 
Q 2381 3103 1925 3103 
Q 1469 3103 1208 2742 
Q 947 2381 947 1747 
z
" transform="scale(0.015625)"/>
       <path id="DejaVuSans-74" d="M 1172 4494 
L 1172 3500 
L 2356 3500 
L 2356 3053 
L 1172 3053 
L 1172 1153 
Q 1172 725 1289 603 
Q 1406 481 1766 481 
L 2356 481 
L 2356 0 
L 1766 0 
Q 1100 0 847 248 
Q 594 497 594 1153 
L 594 3053 
L 172 3053 
L 172 3500 
L 594 3500 
L 594 4494 
L 1172 4494 
z
" transform="scale(0.015625)"/>
      </defs>
      <use xlink:href="#DejaVuSans-56"/>
      <use xlink:href="#DejaVuSans-61" x="60.658203"/>
      <use xlink:href="#DejaVuSans-6c" x="121.9375"/>
      <use xlink:href="#DejaVuSans-69" x="149.720703"/>
      <use xlink:href="#DejaVuSans-64" x="177.503906"/>
      <use xlink:href="#DejaVuSans-61" x="240.980469"/>
      <use xlink:href="#DejaVuSans-74" x="302.259766"/>
      <use xlink:href="#DejaVuSans-69" x="341.46875"/>
      <use xlink:href="#DejaVuSans-6f" x="369.251953"/>
      <use xlink:href="#DejaVuSans-6e" x="430.433594"/>
      <use xlink:href="#DejaVuSans-20" x="493.8125"/>
      <use xlink:href="#DejaVuSans-41" x="525.599609"/>
      <use xlink:href="#DejaVuSans-63" x="592.257812"/>
      <use xlink:href="#DejaVuSans-63" x="647.238281"/>
      <use xlink:href="#DejaVuSans-75" x="702.21875"/>
      <use xlink:href="#DejaVuSans-72" x="765.597656"/>
      <use xlink:href="#DejaVuSans-61" x="806.710938"/>
      <use xlink:href="#DejaVuSans-63" x="867.990234"/>
      <use xlink:href="#DejaVuSans-79" x="922.970703"/>
     </g>
    </g>
    <g id="line2d_25">
     <path d="M 216.18875 263.648062 
L 226.18875 263.648062 
L 236.18875 263.648062 
" style="fill: none; stroke: #2ca02c; stroke-width: 1.5; stroke-linecap: square"/>
    </g>
    <g id="text_23">
     <!-- Robust Validation Accuracy -->
     <g transform="translate(244.18875 267.148062) scale(0.1 -0.1)">
      <defs>
       <path id="DejaVuSans-52" d="M 2841 2188 
Q 3044 2119 3236 1894 
Q 3428 1669 3622 1275 
L 4263 0 
L 3584 0 
L 2988 1197 
Q 2756 1666 2539 1819 
Q 2322 1972 1947 1972 
L 1259 1972 
L 1259 0 
L 628 0 
L 628 4666 
L 2053 4666 
Q 2853 4666 3247 4331 
Q 3641 3997 3641 3322 
Q 3641 2881 3436 2590 
Q 3231 2300 2841 2188 
z
M 1259 4147 
L 1259 2491 
L 2053 2491 
Q 2509 2491 2742 2702 
Q 2975 2913 2975 3322 
Q 2975 3731 2742 3939 
Q 2509 4147 2053 4147 
L 1259 4147 
z
" transform="scale(0.015625)"/>
       <path id="DejaVuSans-62" d="M 3116 1747 
Q 3116 2381 2855 2742 
Q 2594 3103 2138 3103 
Q 1681 3103 1420 2742 
Q 1159 2381 1159 1747 
Q 1159 1113 1420 752 
Q 1681 391 2138 391 
Q 2594 391 2855 752 
Q 3116 1113 3116 1747 
z
M 1159 2969 
Q 1341 3281 1617 3432 
Q 1894 3584 2278 3584 
Q 2916 3584 3314 3078 
Q 3713 2572 3713 1747 
Q 3713 922 3314 415 
Q 2916 -91 2278 -91 
Q 1894 -91 1617 61 
Q 1341 213 1159 525 
L 1159 0 
L 581 0 
L 581 4863 
L 1159 4863 
L 1159 2969 
z
" transform="scale(0.015625)"/>
      </defs>
      <use xlink:href="#DejaVuSans-52"/>
      <use xlink:href="#DejaVuSans-6f" x="64.982422"/>
      <use xlink:href="#DejaVuSans-62" x="126.164062"/>
      <use xlink:href="#DejaVuSans-75" x="189.640625"/>
      <use xlink:href="#DejaVuSans-73" x="253.019531"/>
      <use xlink:href="#DejaVuSans-74" x="305.119141"/>
      <use xlink:href="#DejaVuSans-20" x="344.328125"/>
      <use xlink:href="#DejaVuSans-56" x="376.115234"/>
      <use xlink:href="#DejaVuSans-61" x="436.773438"/>
      <use xlink:href="#DejaVuSans-6c" x="498.052734"/>
      <use xlink:href="#DejaVuSans-69" x="525.835938"/>
      <use xlink:href="#DejaVuSans-64" x="553.619141"/>
      <use xlink:href="#DejaVuSans-61" x="617.095703"/>
      <use xlink:href="#DejaVuSans-74" x="678.375"/>
      <use xlink:href="#DejaVuSans-69" x="717.583984"/>
      <use xlink:href="#DejaVuSans-6f" x="745.367188"/>
      <use xlink:href="#DejaVuSans-6e" x="806.548828"/>
      <use xlink:href="#DejaVuSans-20" x="869.927734"/>
      <use xlink:href="#DejaVuSans-41" x="901.714844"/>
      <use xlink:href="#DejaVuSans-63" x="968.373047"/>
      <use xlink:href="#DejaVuSans-63" x="1023.353516"/>
      <use xlink:href="#DejaVuSans-75" x="1078.333984"/>
      <use xlink:href="#DejaVuSans-72" x="1141.712891"/>
      <use xlink:href="#DejaVuSans-61" x="1182.826172"/>
      <use xlink:href="#DejaVuSans-63" x="1244.105469"/>
      <use xlink:href="#DejaVuSans-79" x="1299.085938"/>
     </g>
    </g>
    <g id="line2d_26">
     <path d="M 216.18875 278.326188 
L 226.18875 278.326188 
L 236.18875 278.326188 
" style="fill: none; stroke: #d62728; stroke-width: 1.5; stroke-linecap: square"/>
    </g>
    <g id="text_24">
     <!-- SWA Validation Accuracy -->
     <g transform="translate(244.18875 281.826188) scale(0.1 -0.1)">
      <defs>
       <path id="DejaVuSans-53" d="M 3425 4513 
L 3425 3897 
Q 3066 4069 2747 4153 
Q 2428 4238 2131 4238 
Q 1616 4238 1336 4038 
Q 1056 3838 1056 3469 
Q 1056 3159 1242 3001 
Q 1428 2844 1947 2747 
L 2328 2669 
Q 3034 2534 3370 2195 
Q 3706 1856 3706 1288 
Q 3706 609 3251 259 
Q 2797 -91 1919 -91 
Q 1588 -91 1214 -16 
Q 841 59 441 206 
L 441 856 
Q 825 641 1194 531 
Q 1563 422 1919 422 
Q 2459 422 2753 634 
Q 3047 847 3047 1241 
Q 3047 1584 2836 1778 
Q 2625 1972 2144 2069 
L 1759 2144 
Q 1053 2284 737 2584 
Q 422 2884 422 3419 
Q 422 4038 858 4394 
Q 1294 4750 2059 4750 
Q 2388 4750 2728 4690 
Q 3069 4631 3425 4513 
z
" transform="scale(0.015625)"/>
       <path id="DejaVuSans-57" d="M 213 4666 
L 850 4666 
L 1831 722 
L 2809 4666 
L 3519 4666 
L 4500 722 
L 5478 4666 
L 6119 4666 
L 4947 0 
L 4153 0 
L 3169 4050 
L 2175 0 
L 1381 0 
L 213 4666 
z
" transform="scale(0.015625)"/>
      </defs>
      <use xlink:href="#DejaVuSans-53"/>
      <use xlink:href="#DejaVuSans-57" x="63.476562"/>
      <use xlink:href="#DejaVuSans-41" x="156.853516"/>
      <use xlink:href="#DejaVuSans-20" x="225.261719"/>
      <use xlink:href="#DejaVuSans-56" x="257.048828"/>
      <use xlink:href="#DejaVuSans-61" x="317.707031"/>
      <use xlink:href="#DejaVuSans-6c" x="378.986328"/>
      <use xlink:href="#DejaVuSans-69" x="406.769531"/>
      <use xlink:href="#DejaVuSans-64" x="434.552734"/>
      <use xlink:href="#DejaVuSans-61" x="498.029297"/>
      <use xlink:href="#DejaVuSans-74" x="559.308594"/>
      <use xlink:href="#DejaVuSans-69" x="598.517578"/>
      <use xlink:href="#DejaVuSans-6f" x="626.300781"/>
      <use xlink:href="#DejaVuSans-6e" x="687.482422"/>
      <use xlink:href="#DejaVuSans-20" x="750.861328"/>
      <use xlink:href="#DejaVuSans-41" x="782.648438"/>
      <use xlink:href="#DejaVuSans-63" x="849.306641"/>
      <use xlink:href="#DejaVuSans-63" x="904.287109"/>
      <use xlink:href="#DejaVuSans-75" x="959.267578"/>
      <use xlink:href="#DejaVuSans-72" x="1022.646484"/>
      <use xlink:href="#DejaVuSans-61" x="1063.759766"/>
      <use xlink:href="#DejaVuSans-63" x="1125.039062"/>
      <use xlink:href="#DejaVuSans-79" x="1180.019531"/>
     </g>
    </g>
    <g id="line2d_27">
     <path d="M 216.18875 293.004312 
L 226.18875 293.004312 
L 236.18875 293.004312 
" style="fill: none; stroke: #9467bd; stroke-width: 1.5; stroke-linecap: square"/>
    </g>
    <g id="text_25">
     <!-- SWA Robust Validation Accuracy -->
     <g transform="translate(244.18875 296.504312) scale(0.1 -0.1)">
      <use xlink:href="#DejaVuSans-53"/>
      <use xlink:href="#DejaVuSans-57" x="63.476562"/>
      <use xlink:href="#DejaVuSans-41" x="156.853516"/>
      <use xlink:href="#DejaVuSans-20" x="225.261719"/>
      <use xlink:href="#DejaVuSans-52" x="257.048828"/>
      <use xlink:href="#DejaVuSans-6f" x="322.03125"/>
      <use xlink:href="#DejaVuSans-62" x="383.212891"/>
      <use xlink:href="#DejaVuSans-75" x="446.689453"/>
      <use xlink:href="#DejaVuSans-73" x="510.068359"/>
      <use xlink:href="#DejaVuSans-74" x="562.167969"/>
      <use xlink:href="#DejaVuSans-20" x="601.376953"/>
      <use xlink:href="#DejaVuSans-56" x="633.164062"/>
      <use xlink:href="#DejaVuSans-61" x="693.822266"/>
      <use xlink:href="#DejaVuSans-6c" x="755.101562"/>
      <use xlink:href="#DejaVuSans-69" x="782.884766"/>
      <use xlink:href="#DejaVuSans-64" x="810.667969"/>
      <use xlink:href="#DejaVuSans-61" x="874.144531"/>
      <use xlink:href="#DejaVuSans-74" x="935.423828"/>
      <use xlink:href="#DejaVuSans-69" x="974.632812"/>
      <use xlink:href="#DejaVuSans-6f" x="1002.416016"/>
      <use xlink:href="#DejaVuSans-6e" x="1063.597656"/>
      <use xlink:href="#DejaVuSans-20" x="1126.976562"/>
      <use xlink:href="#DejaVuSans-41" x="1158.763672"/>
      <use xlink:href="#DejaVuSans-63" x="1225.421875"/>
      <use xlink:href="#DejaVuSans-63" x="1280.402344"/>
      <use xlink:href="#DejaVuSans-75" x="1335.382812"/>
      <use xlink:href="#DejaVuSans-72" x="1398.761719"/>
      <use xlink:href="#DejaVuSans-61" x="1439.875"/>
      <use xlink:href="#DejaVuSans-63" x="1501.154297"/>
      <use xlink:href="#DejaVuSans-79" x="1556.134766"/>
     </g>
    </g>
   </g>
  </g>
 </g>
 <defs>
  <clipPath id="pdff2f4280a">
   <rect x="57.6" y="41.472" width="357.12" height="266.112"/>
  </clipPath>
 </defs>
</svg>
