<?xml version="1.0" encoding="utf-8" standalone="no"?>
<!DOCTYPE svg PUBLIC "-//W3C//DTD SVG 1.1//EN"
  "http://www.w3.org/Graphics/SVG/1.1/DTD/svg11.dtd">
<svg xmlns:xlink="http://www.w3.org/1999/xlink" width="460.8pt" height="345.6pt" viewBox="0 0 460.8 345.6" xmlns="http://www.w3.org/2000/svg" version="1.1">
 <metadata>
  <rdf:RDF xmlns:dc="http://purl.org/dc/elements/1.1/" xmlns:cc="http://creativecommons.org/ns#" xmlns:rdf="http://www.w3.org/1999/02/22-rdf-syntax-ns#">
   <cc:Work>
    <dc:type rdf:resource="http://purl.org/dc/dcmitype/StillImage"/>
    <dc:date>2025-01-17T21:36:01.044259</dc:date>
    <dc:format>image/svg+xml</dc:format>
    <dc:creator>
     <cc:Agent>
      <dc:title>Matplotlib v3.9.1, https://matplotlib.org/</dc:title>
     </cc:Agent>
    </dc:creator>
   </cc:Work>
  </rdf:RDF>
 </metadata>
 <defs>
  <style type="text/css">*{stroke-linejoin: round; stroke-linecap: butt}</style>
 </defs>
 <g id="figure_1">
  <g id="patch_1">
   <path d="M 0 345.6 
L 460.8 345.6 
L 460.8 0 
L 0 0 
z
" style="fill: #ffffff"/>
  </g>
  <g id="axes_1">
   <g id="patch_2">
    <path d="M 57.6 307.584 
L 414.72 307.584 
L 414.72 41.472 
L 57.6 41.472 
z
" style="fill: #ffffff"/>
   </g>
   <g id="matplotlib.axis_1">
    <g id="xtick_1">
     <g id="line2d_1">
      <defs>
       <path id="m4df72d3ac5" d="M 0 0 
L 0 3.5 
" style="stroke: #000000; stroke-width: 0.8"/>
      </defs>
      <g>
       <use xlink:href="#m4df72d3ac5" x="73.832727" y="307.584" style="stroke: #000000; stroke-width: 0.8"/>
      </g>
     </g>
     <g id="text_1">
      <!-- 1 -->
      <g transform="translate(70.651477 322.182437) scale(0.1 -0.1)">
       <defs>
        <path id="DejaVuSans-31" d="M 794 531 
L 1825 531 
L 1825 4091 
L 703 3866 
L 703 4441 
L 1819 4666 
L 2450 4666 
L 2450 531 
L 3481 531 
L 3481 0 
L 794 0 
L 794 531 
z
" transform="scale(0.015625)"/>
       </defs>
       <use xlink:href="#DejaVuSans-31"/>
      </g>
     </g>
    </g>
    <g id="xtick_2">
     <g id="line2d_2">
      <g>
       <use xlink:href="#m4df72d3ac5" x="109.664165" y="307.584" style="stroke: #000000; stroke-width: 0.8"/>
      </g>
     </g>
     <g id="text_2">
      <!-- 34 -->
      <g transform="translate(103.301665 322.182437) scale(0.1 -0.1)">
       <defs>
        <path id="DejaVuSans-33" d="M 2597 2516 
Q 3050 2419 3304 2112 
Q 3559 1806 3559 1356 
Q 3559 666 3084 287 
Q 2609 -91 1734 -91 
Q 1441 -91 1130 -33 
Q 819 25 488 141 
L 488 750 
Q 750 597 1062 519 
Q 1375 441 1716 441 
Q 2309 441 2620 675 
Q 2931 909 2931 1356 
Q 2931 1769 2642 2001 
Q 2353 2234 1838 2234 
L 1294 2234 
L 1294 2753 
L 1863 2753 
Q 2328 2753 2575 2939 
Q 2822 3125 2822 3475 
Q 2822 3834 2567 4026 
Q 2313 4219 1838 4219 
Q 1578 4219 1281 4162 
Q 984 4106 628 3988 
L 628 4550 
Q 988 4650 1302 4700 
Q 1616 4750 1894 4750 
Q 2613 4750 3031 4423 
Q 3450 4097 3450 3541 
Q 3450 3153 3228 2886 
Q 3006 2619 2597 2516 
z
" transform="scale(0.015625)"/>
        <path id="DejaVuSans-34" d="M 2419 4116 
L 825 1625 
L 2419 1625 
L 2419 4116 
z
M 2253 4666 
L 3047 4666 
L 3047 1625 
L 3713 1625 
L 3713 1100 
L 3047 1100 
L 3047 0 
L 2419 0 
L 2419 1100 
L 313 1100 
L 313 1709 
L 2253 4666 
z
" transform="scale(0.015625)"/>
       </defs>
       <use xlink:href="#DejaVuSans-33"/>
       <use xlink:href="#DejaVuSans-34" x="63.623047"/>
      </g>
     </g>
    </g>
    <g id="xtick_3">
     <g id="line2d_3">
      <g>
       <use xlink:href="#m4df72d3ac5" x="145.495604" y="307.584" style="stroke: #000000; stroke-width: 0.8"/>
      </g>
     </g>
     <g id="text_3">
      <!-- 67 -->
      <g transform="translate(139.133104 322.182437) scale(0.1 -0.1)">
       <defs>
        <path id="DejaVuSans-36" d="M 2113 2584 
Q 1688 2584 1439 2293 
Q 1191 2003 1191 1497 
Q 1191 994 1439 701 
Q 1688 409 2113 409 
Q 2538 409 2786 701 
Q 3034 994 3034 1497 
Q 3034 2003 2786 2293 
Q 2538 2584 2113 2584 
z
M 3366 4563 
L 3366 3988 
Q 3128 4100 2886 4159 
Q 2644 4219 2406 4219 
Q 1781 4219 1451 3797 
Q 1122 3375 1075 2522 
Q 1259 2794 1537 2939 
Q 1816 3084 2150 3084 
Q 2853 3084 3261 2657 
Q 3669 2231 3669 1497 
Q 3669 778 3244 343 
Q 2819 -91 2113 -91 
Q 1303 -91 875 529 
Q 447 1150 447 2328 
Q 447 3434 972 4092 
Q 1497 4750 2381 4750 
Q 2619 4750 2861 4703 
Q 3103 4656 3366 4563 
z
" transform="scale(0.015625)"/>
        <path id="DejaVuSans-37" d="M 525 4666 
L 3525 4666 
L 3525 4397 
L 1831 0 
L 1172 0 
L 2766 4134 
L 525 4134 
L 525 4666 
z
" transform="scale(0.015625)"/>
       </defs>
       <use xlink:href="#DejaVuSans-36"/>
       <use xlink:href="#DejaVuSans-37" x="63.623047"/>
      </g>
     </g>
    </g>
    <g id="xtick_4">
     <g id="line2d_4">
      <g>
       <use xlink:href="#m4df72d3ac5" x="181.327042" y="307.584" style="stroke: #000000; stroke-width: 0.8"/>
      </g>
     </g>
     <g id="text_4">
      <!-- 100 -->
      <g transform="translate(171.783292 322.182437) scale(0.1 -0.1)">
       <defs>
        <path id="DejaVuSans-30" d="M 2034 4250 
Q 1547 4250 1301 3770 
Q 1056 3291 1056 2328 
Q 1056 1369 1301 889 
Q 1547 409 2034 409 
Q 2525 409 2770 889 
Q 3016 1369 3016 2328 
Q 3016 3291 2770 3770 
Q 2525 4250 2034 4250 
z
M 2034 4750 
Q 2819 4750 3233 4129 
Q 3647 3509 3647 2328 
Q 3647 1150 3233 529 
Q 2819 -91 2034 -91 
Q 1250 -91 836 529 
Q 422 1150 422 2328 
Q 422 3509 836 4129 
Q 1250 4750 2034 4750 
z
" transform="scale(0.015625)"/>
       </defs>
       <use xlink:href="#DejaVuSans-31"/>
       <use xlink:href="#DejaVuSans-30" x="63.623047"/>
       <use xlink:href="#DejaVuSans-30" x="127.246094"/>
      </g>
     </g>
    </g>
    <g id="xtick_5">
     <g id="line2d_5">
      <g>
       <use xlink:href="#m4df72d3ac5" x="217.15848" y="307.584" style="stroke: #000000; stroke-width: 0.8"/>
      </g>
     </g>
     <g id="text_5">
      <!-- 133 -->
      <g transform="translate(207.61473 322.182437) scale(0.1 -0.1)">
       <use xlink:href="#DejaVuSans-31"/>
       <use xlink:href="#DejaVuSans-33" x="63.623047"/>
       <use xlink:href="#DejaVuSans-33" x="127.246094"/>
      </g>
     </g>
    </g>
    <g id="xtick_6">
     <g id="line2d_6">
      <g>
       <use xlink:href="#m4df72d3ac5" x="254.075719" y="307.584" style="stroke: #000000; stroke-width: 0.8"/>
      </g>
     </g>
     <g id="text_6">
      <!-- 167 -->
      <g transform="translate(244.531969 322.182437) scale(0.1 -0.1)">
       <use xlink:href="#DejaVuSans-31"/>
       <use xlink:href="#DejaVuSans-36" x="63.623047"/>
       <use xlink:href="#DejaVuSans-37" x="127.246094"/>
      </g>
     </g>
    </g>
    <g id="xtick_7">
     <g id="line2d_7">
      <g>
       <use xlink:href="#m4df72d3ac5" x="289.907157" y="307.584" style="stroke: #000000; stroke-width: 0.8"/>
      </g>
     </g>
     <g id="text_7">
      <!-- 200 -->
      <g transform="translate(280.363407 322.182437) scale(0.1 -0.1)">
       <defs>
        <path id="DejaVuSans-32" d="M 1228 531 
L 3431 531 
L 3431 0 
L 469 0 
L 469 531 
Q 828 903 1448 1529 
Q 2069 2156 2228 2338 
Q 2531 2678 2651 2914 
Q 2772 3150 2772 3378 
Q 2772 3750 2511 3984 
Q 2250 4219 1831 4219 
Q 1534 4219 1204 4116 
Q 875 4013 500 3803 
L 500 4441 
Q 881 4594 1212 4672 
Q 1544 4750 1819 4750 
Q 2544 4750 2975 4387 
Q 3406 4025 3406 3419 
Q 3406 3131 3298 2873 
Q 3191 2616 2906 2266 
Q 2828 2175 2409 1742 
Q 1991 1309 1228 531 
z
" transform="scale(0.015625)"/>
       </defs>
       <use xlink:href="#DejaVuSans-32"/>
       <use xlink:href="#DejaVuSans-30" x="63.623047"/>
       <use xlink:href="#DejaVuSans-30" x="127.246094"/>
      </g>
     </g>
    </g>
    <g id="xtick_8">
     <g id="line2d_8">
      <g>
       <use xlink:href="#m4df72d3ac5" x="325.738595" y="307.584" style="stroke: #000000; stroke-width: 0.8"/>
      </g>
     </g>
     <g id="text_8">
      <!-- 233 -->
      <g transform="translate(316.194845 322.182437) scale(0.1 -0.1)">
       <use xlink:href="#DejaVuSans-32"/>
       <use xlink:href="#DejaVuSans-33" x="63.623047"/>
       <use xlink:href="#DejaVuSans-33" x="127.246094"/>
      </g>
     </g>
    </g>
    <g id="xtick_9">
     <g id="line2d_9">
      <g>
       <use xlink:href="#m4df72d3ac5" x="361.570033" y="307.584" style="stroke: #000000; stroke-width: 0.8"/>
      </g>
     </g>
     <g id="text_9">
      <!-- 266 -->
      <g transform="translate(352.026283 322.182437) scale(0.1 -0.1)">
       <use xlink:href="#DejaVuSans-32"/>
       <use xlink:href="#DejaVuSans-36" x="63.623047"/>
       <use xlink:href="#DejaVuSans-36" x="127.246094"/>
      </g>
     </g>
    </g>
    <g id="xtick_10">
     <g id="line2d_10">
      <g>
       <use xlink:href="#m4df72d3ac5" x="398.487273" y="307.584" style="stroke: #000000; stroke-width: 0.8"/>
      </g>
     </g>
     <g id="text_10">
      <!-- 300 -->
      <g transform="translate(388.943523 322.182437) scale(0.1 -0.1)">
       <use xlink:href="#DejaVuSans-33"/>
       <use xlink:href="#DejaVuSans-30" x="63.623047"/>
       <use xlink:href="#DejaVuSans-30" x="127.246094"/>
      </g>
     </g>
    </g>
    <g id="text_11">
     <!-- Epochs -->
     <g transform="translate(218.244375 335.860562) scale(0.1 -0.1)">
      <defs>
       <path id="DejaVuSans-45" d="M 628 4666 
L 3578 4666 
L 3578 4134 
L 1259 4134 
L 1259 2753 
L 3481 2753 
L 3481 2222 
L 1259 2222 
L 1259 531 
L 3634 531 
L 3634 0 
L 628 0 
L 628 4666 
z
" transform="scale(0.015625)"/>
       <path id="DejaVuSans-70" d="M 1159 525 
L 1159 -1331 
L 581 -1331 
L 581 3500 
L 1159 3500 
L 1159 2969 
Q 1341 3281 1617 3432 
Q 1894 3584 2278 3584 
Q 2916 3584 3314 3078 
Q 3713 2572 3713 1747 
Q 3713 922 3314 415 
Q 2916 -91 2278 -91 
Q 1894 -91 1617 61 
Q 1341 213 1159 525 
z
M 3116 1747 
Q 3116 2381 2855 2742 
Q 2594 3103 2138 3103 
Q 1681 3103 1420 2742 
Q 1159 2381 1159 1747 
Q 1159 1113 1420 752 
Q 1681 391 2138 391 
Q 2594 391 2855 752 
Q 3116 1113 3116 1747 
z
" transform="scale(0.015625)"/>
       <path id="DejaVuSans-6f" d="M 1959 3097 
Q 1497 3097 1228 2736 
Q 959 2375 959 1747 
Q 959 1119 1226 758 
Q 1494 397 1959 397 
Q 2419 397 2687 759 
Q 2956 1122 2956 1747 
Q 2956 2369 2687 2733 
Q 2419 3097 1959 3097 
z
M 1959 3584 
Q 2709 3584 3137 3096 
Q 3566 2609 3566 1747 
Q 3566 888 3137 398 
Q 2709 -91 1959 -91 
Q 1206 -91 779 398 
Q 353 888 353 1747 
Q 353 2609 779 3096 
Q 1206 3584 1959 3584 
z
" transform="scale(0.015625)"/>
       <path id="DejaVuSans-63" d="M 3122 3366 
L 3122 2828 
Q 2878 2963 2633 3030 
Q 2388 3097 2138 3097 
Q 1578 3097 1268 2742 
Q 959 2388 959 1747 
Q 959 1106 1268 751 
Q 1578 397 2138 397 
Q 2388 397 2633 464 
Q 2878 531 3122 666 
L 3122 134 
Q 2881 22 2623 -34 
Q 2366 -91 2075 -91 
Q 1284 -91 818 406 
Q 353 903 353 1747 
Q 353 2603 823 3093 
Q 1294 3584 2113 3584 
Q 2378 3584 2631 3529 
Q 2884 3475 3122 3366 
z
" transform="scale(0.015625)"/>
       <path id="DejaVuSans-68" d="M 3513 2113 
L 3513 0 
L 2938 0 
L 2938 2094 
Q 2938 2591 2744 2837 
Q 2550 3084 2163 3084 
Q 1697 3084 1428 2787 
Q 1159 2491 1159 1978 
L 1159 0 
L 581 0 
L 581 4863 
L 1159 4863 
L 1159 2956 
Q 1366 3272 1645 3428 
Q 1925 3584 2291 3584 
Q 2894 3584 3203 3211 
Q 3513 2838 3513 2113 
z
" transform="scale(0.015625)"/>
       <path id="DejaVuSans-73" d="M 2834 3397 
L 2834 2853 
Q 2591 2978 2328 3040 
Q 2066 3103 1784 3103 
Q 1356 3103 1142 2972 
Q 928 2841 928 2578 
Q 928 2378 1081 2264 
Q 1234 2150 1697 2047 
L 1894 2003 
Q 2506 1872 2764 1633 
Q 3022 1394 3022 966 
Q 3022 478 2636 193 
Q 2250 -91 1575 -91 
Q 1294 -91 989 -36 
Q 684 19 347 128 
L 347 722 
Q 666 556 975 473 
Q 1284 391 1588 391 
Q 1994 391 2212 530 
Q 2431 669 2431 922 
Q 2431 1156 2273 1281 
Q 2116 1406 1581 1522 
L 1381 1569 
Q 847 1681 609 1914 
Q 372 2147 372 2553 
Q 372 3047 722 3315 
Q 1072 3584 1716 3584 
Q 2034 3584 2315 3537 
Q 2597 3491 2834 3397 
z
" transform="scale(0.015625)"/>
      </defs>
      <use xlink:href="#DejaVuSans-45"/>
      <use xlink:href="#DejaVuSans-70" x="63.183594"/>
      <use xlink:href="#DejaVuSans-6f" x="126.660156"/>
      <use xlink:href="#DejaVuSans-63" x="187.841797"/>
      <use xlink:href="#DejaVuSans-68" x="242.822266"/>
      <use xlink:href="#DejaVuSans-73" x="306.201172"/>
     </g>
    </g>
   </g>
   <g id="matplotlib.axis_2">
    <g id="ytick_1">
     <g id="line2d_11">
      <defs>
       <path id="m87f1b1a501" d="M 0 0 
L -3.5 0 
" style="stroke: #000000; stroke-width: 0.8"/>
      </defs>
      <g>
       <use xlink:href="#m87f1b1a501" x="57.6" y="284.015316" style="stroke: #000000; stroke-width: 0.8"/>
      </g>
     </g>
     <g id="text_12">
      <!-- 10 -->
      <g transform="translate(37.875 287.814535) scale(0.1 -0.1)">
       <use xlink:href="#DejaVuSans-31"/>
       <use xlink:href="#DejaVuSans-30" x="63.623047"/>
      </g>
     </g>
    </g>
    <g id="ytick_2">
     <g id="line2d_12">
      <g>
       <use xlink:href="#m87f1b1a501" x="57.6" y="253.603265" style="stroke: #000000; stroke-width: 0.8"/>
      </g>
     </g>
     <g id="text_13">
      <!-- 20 -->
      <g transform="translate(37.875 257.402484) scale(0.1 -0.1)">
       <use xlink:href="#DejaVuSans-32"/>
       <use xlink:href="#DejaVuSans-30" x="63.623047"/>
      </g>
     </g>
    </g>
    <g id="ytick_3">
     <g id="line2d_13">
      <g>
       <use xlink:href="#m87f1b1a501" x="57.6" y="223.191214" style="stroke: #000000; stroke-width: 0.8"/>
      </g>
     </g>
     <g id="text_14">
      <!-- 30 -->
      <g transform="translate(37.875 226.990433) scale(0.1 -0.1)">
       <use xlink:href="#DejaVuSans-33"/>
       <use xlink:href="#DejaVuSans-30" x="63.623047"/>
      </g>
     </g>
    </g>
    <g id="ytick_4">
     <g id="line2d_14">
      <g>
       <use xlink:href="#m87f1b1a501" x="57.6" y="192.779163" style="stroke: #000000; stroke-width: 0.8"/>
      </g>
     </g>
     <g id="text_15">
      <!-- 40 -->
      <g transform="translate(37.875 196.578382) scale(0.1 -0.1)">
       <use xlink:href="#DejaVuSans-34"/>
       <use xlink:href="#DejaVuSans-30" x="63.623047"/>
      </g>
     </g>
    </g>
    <g id="ytick_5">
     <g id="line2d_15">
      <g>
       <use xlink:href="#m87f1b1a501" x="57.6" y="162.367112" style="stroke: #000000; stroke-width: 0.8"/>
      </g>
     </g>
     <g id="text_16">
      <!-- 50 -->
      <g transform="translate(37.875 166.166331) scale(0.1 -0.1)">
       <defs>
        <path id="DejaVuSans-35" d="M 691 4666 
L 3169 4666 
L 3169 4134 
L 1269 4134 
L 1269 2991 
Q 1406 3038 1543 3061 
Q 1681 3084 1819 3084 
Q 2600 3084 3056 2656 
Q 3513 2228 3513 1497 
Q 3513 744 3044 326 
Q 2575 -91 1722 -91 
Q 1428 -91 1123 -41 
Q 819 9 494 109 
L 494 744 
Q 775 591 1075 516 
Q 1375 441 1709 441 
Q 2250 441 2565 725 
Q 2881 1009 2881 1497 
Q 2881 1984 2565 2268 
Q 2250 2553 1709 2553 
Q 1456 2553 1204 2497 
Q 953 2441 691 2322 
L 691 4666 
z
" transform="scale(0.015625)"/>
       </defs>
       <use xlink:href="#DejaVuSans-35"/>
       <use xlink:href="#DejaVuSans-30" x="63.623047"/>
      </g>
     </g>
    </g>
    <g id="ytick_6">
     <g id="line2d_16">
      <g>
       <use xlink:href="#m87f1b1a501" x="57.6" y="131.955061" style="stroke: #000000; stroke-width: 0.8"/>
      </g>
     </g>
     <g id="text_17">
      <!-- 60 -->
      <g transform="translate(37.875 135.75428) scale(0.1 -0.1)">
       <use xlink:href="#DejaVuSans-36"/>
       <use xlink:href="#DejaVuSans-30" x="63.623047"/>
      </g>
     </g>
    </g>
    <g id="ytick_7">
     <g id="line2d_17">
      <g>
       <use xlink:href="#m87f1b1a501" x="57.6" y="101.54301" style="stroke: #000000; stroke-width: 0.8"/>
      </g>
     </g>
     <g id="text_18">
      <!-- 70 -->
      <g transform="translate(37.875 105.342229) scale(0.1 -0.1)">
       <use xlink:href="#DejaVuSans-37"/>
       <use xlink:href="#DejaVuSans-30" x="63.623047"/>
      </g>
     </g>
    </g>
    <g id="ytick_8">
     <g id="line2d_18">
      <g>
       <use xlink:href="#m87f1b1a501" x="57.6" y="71.130959" style="stroke: #000000; stroke-width: 0.8"/>
      </g>
     </g>
     <g id="text_19">
      <!-- 80 -->
      <g transform="translate(37.875 74.930178) scale(0.1 -0.1)">
       <defs>
        <path id="DejaVuSans-38" d="M 2034 2216 
Q 1584 2216 1326 1975 
Q 1069 1734 1069 1313 
Q 1069 891 1326 650 
Q 1584 409 2034 409 
Q 2484 409 2743 651 
Q 3003 894 3003 1313 
Q 3003 1734 2745 1975 
Q 2488 2216 2034 2216 
z
M 1403 2484 
Q 997 2584 770 2862 
Q 544 3141 544 3541 
Q 544 4100 942 4425 
Q 1341 4750 2034 4750 
Q 2731 4750 3128 4425 
Q 3525 4100 3525 3541 
Q 3525 3141 3298 2862 
Q 3072 2584 2669 2484 
Q 3125 2378 3379 2068 
Q 3634 1759 3634 1313 
Q 3634 634 3220 271 
Q 2806 -91 2034 -91 
Q 1263 -91 848 271 
Q 434 634 434 1313 
Q 434 1759 690 2068 
Q 947 2378 1403 2484 
z
M 1172 3481 
Q 1172 3119 1398 2916 
Q 1625 2713 2034 2713 
Q 2441 2713 2670 2916 
Q 2900 3119 2900 3481 
Q 2900 3844 2670 4047 
Q 2441 4250 2034 4250 
Q 1625 4250 1398 4047 
Q 1172 3844 1172 3481 
z
" transform="scale(0.015625)"/>
       </defs>
       <use xlink:href="#DejaVuSans-38"/>
       <use xlink:href="#DejaVuSans-30" x="63.623047"/>
      </g>
     </g>
    </g>
    <g id="text_20">
     <!-- Accuracy -->
     <g transform="translate(31.795312 197.356125) rotate(-90) scale(0.1 -0.1)">
      <defs>
       <path id="DejaVuSans-41" d="M 2188 4044 
L 1331 1722 
L 3047 1722 
L 2188 4044 
z
M 1831 4666 
L 2547 4666 
L 4325 0 
L 3669 0 
L 3244 1197 
L 1141 1197 
L 716 0 
L 50 0 
L 1831 4666 
z
" transform="scale(0.015625)"/>
       <path id="DejaVuSans-75" d="M 544 1381 
L 544 3500 
L 1119 3500 
L 1119 1403 
Q 1119 906 1312 657 
Q 1506 409 1894 409 
Q 2359 409 2629 706 
Q 2900 1003 2900 1516 
L 2900 3500 
L 3475 3500 
L 3475 0 
L 2900 0 
L 2900 538 
Q 2691 219 2414 64 
Q 2138 -91 1772 -91 
Q 1169 -91 856 284 
Q 544 659 544 1381 
z
M 1991 3584 
L 1991 3584 
z
" transform="scale(0.015625)"/>
       <path id="DejaVuSans-72" d="M 2631 2963 
Q 2534 3019 2420 3045 
Q 2306 3072 2169 3072 
Q 1681 3072 1420 2755 
Q 1159 2438 1159 1844 
L 1159 0 
L 581 0 
L 581 3500 
L 1159 3500 
L 1159 2956 
Q 1341 3275 1631 3429 
Q 1922 3584 2338 3584 
Q 2397 3584 2469 3576 
Q 2541 3569 2628 3553 
L 2631 2963 
z
" transform="scale(0.015625)"/>
       <path id="DejaVuSans-61" d="M 2194 1759 
Q 1497 1759 1228 1600 
Q 959 1441 959 1056 
Q 959 750 1161 570 
Q 1363 391 1709 391 
Q 2188 391 2477 730 
Q 2766 1069 2766 1631 
L 2766 1759 
L 2194 1759 
z
M 3341 1997 
L 3341 0 
L 2766 0 
L 2766 531 
Q 2569 213 2275 61 
Q 1981 -91 1556 -91 
Q 1019 -91 701 211 
Q 384 513 384 1019 
Q 384 1609 779 1909 
Q 1175 2209 1959 2209 
L 2766 2209 
L 2766 2266 
Q 2766 2663 2505 2880 
Q 2244 3097 1772 3097 
Q 1472 3097 1187 3025 
Q 903 2953 641 2809 
L 641 3341 
Q 956 3463 1253 3523 
Q 1550 3584 1831 3584 
Q 2591 3584 2966 3190 
Q 3341 2797 3341 1997 
z
" transform="scale(0.015625)"/>
       <path id="DejaVuSans-79" d="M 2059 -325 
Q 1816 -950 1584 -1140 
Q 1353 -1331 966 -1331 
L 506 -1331 
L 506 -850 
L 844 -850 
Q 1081 -850 1212 -737 
Q 1344 -625 1503 -206 
L 1606 56 
L 191 3500 
L 800 3500 
L 1894 763 
L 2988 3500 
L 3597 3500 
L 2059 -325 
z
" transform="scale(0.015625)"/>
      </defs>
      <use xlink:href="#DejaVuSans-41"/>
      <use xlink:href="#DejaVuSans-63" x="66.658203"/>
      <use xlink:href="#DejaVuSans-63" x="121.638672"/>
      <use xlink:href="#DejaVuSans-75" x="176.619141"/>
      <use xlink:href="#DejaVuSans-72" x="239.998047"/>
      <use xlink:href="#DejaVuSans-61" x="281.111328"/>
      <use xlink:href="#DejaVuSans-63" x="342.390625"/>
      <use xlink:href="#DejaVuSans-79" x="397.371094"/>
     </g>
    </g>
   </g>
   <g id="line2d_19">
    <path d="M 73.832727 286.031635 
L 74.918528 250.857057 
L 76.00433 228.133172 
L 77.090131 210.913869 
L 78.175932 198.657813 
L 80.347534 180.547436 
L 81.433335 172.640303 
L 83.604938 159.30766 
L 84.690739 154.809718 
L 85.77654 149.575804 
L 86.862341 145.083944 
L 87.948142 139.986884 
L 90.119745 132.444695 
L 91.205546 129.309213 
L 92.291347 127.073927 
L 94.462949 123.85025 
L 95.54875 156.491504 
L 96.634552 154.861418 
L 97.720353 152.960665 
L 98.806154 149.429826 
L 99.891955 146.388621 
L 100.977756 143.96478 
L 102.063557 142.237376 
L 103.149358 139.141429 
L 104.23516 136.556405 
L 105.320961 135.08142 
L 108.578364 127.709539 
L 109.664165 125.805745 
L 110.749967 124.324678 
L 112.921569 120.006166 
L 114.00737 118.519017 
L 115.093171 116.797695 
L 116.178972 113.625718 
L 117.264773 111.271825 
L 118.350575 109.41669 
L 119.436376 108.291444 
L 120.522177 105.107303 
L 121.607978 103.866491 
L 124.865382 98.346704 
L 129.208586 90.999152 
L 130.294387 89.603239 
L 131.380189 88.389798 
L 132.46599 86.747548 
L 133.551791 86.394768 
L 134.637592 85.199574 
L 135.723393 84.18077 
L 136.809194 84.53355 
L 137.894995 83.788455 
L 138.980797 122.38743 
L 140.066598 124.695705 
L 141.152399 124.70787 
L 142.2382 123.713395 
L 143.324001 123.375822 
L 144.409802 121.268267 
L 145.495604 121.250019 
L 146.581405 119.616892 
L 147.667206 118.625459 
L 148.753007 117.448513 
L 149.838808 116.931508 
L 150.924609 115.67549 
L 152.01041 115.407864 
L 153.096212 113.640924 
L 154.182013 113.774737 
L 155.267814 112.105116 
L 156.353615 111.828366 
L 157.439416 111.201878 
L 158.525217 109.702564 
L 159.611019 109.252465 
L 161.782621 106.795172 
L 163.954223 105.78245 
L 165.040024 104.121952 
L 166.125825 103.446805 
L 168.297428 102.75341 
L 169.383229 101.929243 
L 170.46903 100.858739 
L 172.640632 98.182479 
L 173.726434 97.729339 
L 174.812235 96.813936 
L 175.898036 95.600496 
L 176.983837 94.916224 
L 178.069638 94.423549 
L 179.155439 92.875576 
L 180.24124 92.65965 
L 181.327042 91.519198 
L 182.412843 90.980905 
L 183.498644 88.979792 
L 184.584445 89.268707 
L 185.670246 87.526096 
L 186.756047 86.288326 
L 187.841849 85.953793 
L 188.92765 83.70026 
L 190.013451 83.435675 
L 191.099252 82.556767 
L 193.270854 79.816641 
L 194.356656 79.159741 
L 195.442457 78.153102 
L 196.528258 76.297967 
L 197.614059 75.841786 
L 198.69986 75.020661 
L 199.785661 74.619222 
L 200.871462 73.080372 
L 201.957264 72.183216 
L 204.128866 69.725923 
L 205.214667 69.190671 
L 206.300468 68.174908 
L 207.386269 66.903684 
L 208.472071 67.241258 
L 209.557872 65.30401 
L 210.643673 64.701852 
L 211.729474 64.330825 
L 212.815275 63.424546 
L 213.901076 62.694656 
L 214.986877 63.126508 
L 216.072679 60.91251 
L 217.15848 60.690502 
L 218.244281 61.247043 
L 219.330082 60.590143 
L 220.415883 59.680822 
L 221.501684 60.00319 
L 222.587486 58.914439 
L 223.673287 59.504432 
L 224.759088 59.300672 
L 225.844889 108.604689 
L 226.93069 112.199393 
L 228.016491 111.861819 
L 229.102292 111.116724 
L 230.188094 110.785233 
L 232.359696 108.498246 
L 233.445497 107.923459 
L 234.531298 108.032942 
L 235.617099 107.753151 
L 236.702901 107.211817 
L 237.788702 106.308579 
L 238.874503 105.986211 
L 239.960304 105.80678 
L 241.046105 104.842718 
L 242.131906 104.958284 
L 243.217708 104.213188 
L 244.303509 103.726596 
L 245.38931 102.662174 
L 246.475111 102.987583 
L 247.560912 102.908511 
L 248.646713 103.039283 
L 249.732514 101.76806 
L 250.818316 101.594711 
L 251.904117 100.560701 
L 252.989918 100.63369 
L 254.075719 101.0625 
L 255.16152 99.508444 
L 256.247321 99.833853 
L 258.418924 98.863709 
L 259.504725 98.872832 
L 260.590526 98.088201 
L 261.676327 98.088201 
L 262.762128 98.206808 
L 264.933731 96.7227 
L 266.019532 96.677082 
L 267.105333 96.211778 
L 268.191134 96.257396 
L 269.276935 96.421621 
L 270.362736 95.192974 
L 271.448538 94.599939 
L 272.534339 94.444838 
L 273.62014 93.568971 
L 274.705941 94.061646 
L 275.791742 93.87005 
L 276.877543 93.152325 
L 277.963344 93.246603 
L 279.049146 91.954091 
L 280.134947 92.276458 
L 281.220748 92.449807 
L 282.306549 91.966256 
L 283.39235 91.710794 
L 284.478151 90.84101 
L 285.563953 90.904875 
L 286.649754 90.041173 
L 287.735555 89.773547 
L 288.821356 89.679269 
L 289.907157 89.183553 
L 290.992958 88.070472 
L 292.07876 87.641662 
L 293.164561 88.119131 
L 295.336163 86.98172 
L 296.421964 86.802289 
L 299.679368 85.272563 
L 301.85097 85.032308 
L 302.936771 84.421026 
L 304.022572 84.344996 
L 305.108373 82.800063 
L 306.194175 82.733157 
L 307.279976 82.231358 
L 308.365777 81.048329 
L 309.451578 81.620076 
L 311.62318 80.333646 
L 313.794783 79.78927 
L 314.880584 79.53685 
L 315.966385 77.885476 
L 317.052186 77.931094 
L 318.137987 78.17439 
L 319.223788 76.818013 
L 320.30959 76.392244 
L 321.395391 75.394729 
L 322.481192 75.57416 
L 323.566993 75.443388 
L 324.652794 74.321184 
L 325.738595 74.375925 
L 327.910198 72.776251 
L 328.995999 72.295741 
L 330.0818 71.693582 
L 331.167601 72.122392 
L 332.253402 70.446688 
L 333.339203 70.741685 
L 334.425005 70.002672 
L 335.510806 68.217485 
L 336.596607 68.247897 
L 337.682408 67.803881 
L 339.85401 67.390277 
L 342.025613 65.246228 
L 343.111414 64.744429 
L 344.197215 64.114899 
L 345.283016 64.239589 
L 347.454618 63.272485 
L 348.54042 62.128992 
L 349.626221 62.229352 
L 350.712022 60.958128 
L 351.797823 61.307867 
L 352.883624 60.720914 
L 353.969425 59.641287 
L 355.055227 59.318919 
L 356.141028 58.512999 
L 357.226829 57.977747 
L 360.484232 56.767348 
L 361.570033 55.879316 
L 362.655835 55.219374 
L 363.741636 55.228498 
L 364.827437 54.611133 
L 365.913238 54.282683 
L 366.999039 53.568 
L 368.08484 54.468197 
L 369.170642 55.718132 
L 370.256443 57.923006 
L 371.342244 59.370619 
L 373.513846 61.736677 
L 375.685448 61.952602 
L 376.77125 61.329155 
L 377.857051 61.812707 
L 380.028653 62.013427 
L 381.114454 62.460484 
L 382.200255 62.673368 
L 383.286057 62.247599 
L 384.371858 62.618626 
L 385.457659 62.214146 
L 386.54346 62.47569 
L 387.629261 62.895376 
L 388.715062 62.089457 
L 389.800863 63.315062 
L 390.886665 62.481772 
L 391.972466 62.639915 
L 393.058267 62.986612 
L 394.144068 62.685533 
L 395.229869 62.530431 
L 396.31567 62.566926 
L 397.401472 62.901458 
L 398.487273 62.947077 
L 398.487273 62.947077 
" clip-path="url(#p2ec6e2c11a)" style="fill: none; stroke: #1f77b4; stroke-width: 1.5; stroke-linecap: square"/>
   </g>
   <g id="line2d_20">
    <path d="M 73.832727 271.820084 
L 74.918528 260.476389 
L 76.00433 241.377621 
L 78.175932 207.40736 
L 79.261733 205.460988 
L 80.347534 200.260528 
L 81.433335 186.544693 
L 82.519137 179.580333 
L 83.604938 182.439066 
L 84.690739 168.814467 
L 85.77654 165.986146 
L 86.862341 163.735655 
L 87.948142 157.501184 
L 89.033943 155.250692 
L 90.119745 151.874955 
L 92.291347 146.309549 
L 93.377148 146.61367 
L 94.462949 146.735318 
L 95.54875 177.877258 
L 96.634552 173.832455 
L 97.720353 167.415513 
L 98.806154 174.166988 
L 99.891955 160.481565 
L 100.977756 166.381503 
L 102.063557 166.04697 
L 103.149358 157.105827 
L 104.23516 160.055796 
L 105.320961 155.463577 
L 106.406762 158.200661 
L 107.492563 151.601246 
L 108.578364 147.79974 
L 109.664165 149.046634 
L 110.749967 147.191499 
L 111.835768 144.54565 
L 112.921569 145.184303 
L 114.00737 143.998233 
L 115.093171 136.912226 
L 116.178972 133.901433 
L 117.264773 134.60091 
L 118.350575 132.38083 
L 119.436376 132.624126 
L 120.522177 128.944268 
L 121.607978 127.758198 
L 122.693779 125.963887 
L 123.77958 120.824251 
L 124.865382 123.04433 
L 127.036984 120.003125 
L 128.122785 120.155186 
L 129.208586 119.364472 
L 130.294387 115.441318 
L 131.380189 114.316072 
L 132.46599 115.228433 
L 133.551791 113.130002 
L 134.637592 114.072775 
L 135.723393 113.373298 
L 136.809194 112.491349 
L 137.894995 113.190826 
L 138.980797 144.211118 
L 140.066598 148.468805 
L 142.2382 146.887378 
L 143.324001 147.373971 
L 144.409802 149.837347 
L 145.495604 150.658473 
L 146.581405 148.316745 
L 147.667206 144.941007 
L 148.753007 139.010657 
L 149.838808 136.273573 
L 150.924609 140.53126 
L 152.01041 138.250356 
L 153.096212 139.223541 
L 154.182013 138.432828 
L 155.267814 135.756568 
L 156.353615 136.212748 
L 157.439416 136.516869 
L 158.525217 134.661734 
L 159.611019 129.552509 
L 160.69682 136.638517 
L 161.782621 133.354016 
L 162.868422 130.525695 
L 163.954223 133.658136 
L 165.040024 129.370037 
L 166.125825 127.78861 
L 167.211627 131.19476 
L 168.297428 128.305615 
L 169.383229 126.724189 
L 170.46903 130.860227 
L 171.554831 127.940671 
L 172.640632 127.727786 
L 173.726434 125.081938 
L 174.812235 126.572128 
L 175.898036 125.203586 
L 176.983837 129.978278 
L 178.069638 117.630985 
L 179.155439 124.504109 
L 180.24124 119.820653 
L 181.327042 125.690179 
L 182.412843 122.405677 
L 183.498644 121.219607 
L 184.584445 118.178402 
L 185.670246 116.140795 
L 186.756047 120.398482 
L 187.841849 114.711428 
L 188.92765 116.505739 
L 190.013451 113.738243 
L 192.185053 115.47173 
L 193.270854 114.103187 
L 194.356656 112.460937 
L 195.442457 113.799067 
L 197.614059 111.457339 
L 198.69986 109.115611 
L 199.785661 108.35531 
L 200.871462 108.112013 
L 201.957264 106.986767 
L 203.043065 106.226466 
L 204.128866 106.104818 
L 205.214667 104.584215 
L 207.386269 105.952758 
L 208.472071 102.881141 
L 209.557872 105.10122 
L 210.643673 102.820316 
L 211.729474 103.61103 
L 212.815275 101.999191 
L 213.901076 101.847131 
L 214.986877 103.063613 
L 216.072679 102.546608 
L 217.15848 101.573422 
L 218.244281 100.843533 
L 219.330082 101.39095 
L 221.501684 100.174468 
L 222.587486 100.782709 
L 223.673287 101.056418 
L 224.759088 100.691473 
L 225.844889 142.264747 
L 226.93069 142.355983 
L 228.016491 138.645712 
L 229.102292 139.010657 
L 230.188094 143.663701 
L 231.273895 140.409611 
L 232.359696 138.250356 
L 233.445497 135.543683 
L 234.531298 135.999864 
L 235.617099 137.976647 
L 236.702901 141.595681 
L 237.788702 131.985473 
L 238.874503 141.565269 
L 239.960304 136.820989 
L 241.046105 138.341592 
L 242.131906 140.500848 
L 243.217708 135.999864 
L 244.303509 136.212748 
L 246.475111 136.24316 
L 247.560912 132.806599 
L 248.646713 132.928247 
L 249.732514 131.681353 
L 251.904117 138.402416 
L 252.989918 135.482859 
L 254.075719 135.665331 
L 255.16152 128.883444 
L 256.247321 129.278801 
L 257.333123 131.438056 
L 258.418924 129.400449 
L 259.504725 136.456045 
L 260.590526 131.924649 
L 261.676327 132.441654 
L 262.762128 124.899465 
L 263.847929 131.468468 
L 264.933731 126.29842 
L 266.019532 137.094698 
L 267.105333 134.783382 
L 268.191134 136.182336 
L 269.276935 134.874618 
L 270.362736 126.693776 
L 271.448538 130.00869 
L 272.534339 126.693776 
L 273.62014 132.624126 
L 274.705941 128.275203 
L 275.791742 140.227139 
L 276.877543 134.783382 
L 277.963344 125.842239 
L 279.049146 127.514902 
L 280.134947 128.092731 
L 281.220748 129.765394 
L 282.306549 137.094698 
L 283.39235 135.999864 
L 284.478151 132.441654 
L 285.563953 124.473697 
L 286.649754 126.693776 
L 287.735555 124.869053 
L 288.821356 127.910259 
L 289.907157 126.480892 
L 290.992958 126.754601 
L 292.07876 132.259182 
L 293.164561 121.371668 
L 294.250362 123.013918 
L 295.336163 122.071145 
L 296.421964 121.432492 
L 297.507765 122.223205 
L 298.593566 120.063949 
L 299.679368 119.48612 
L 300.765169 125.629355 
L 301.85097 127.362842 
L 302.936771 122.58815 
L 304.022572 125.446882 
L 305.108373 118.056754 
L 306.194175 124.808229 
L 307.279976 121.584552 
L 308.365777 120.185598 
L 309.451578 119.090764 
L 310.537379 122.405677 
L 311.62318 118.208814 
L 312.708981 122.101557 
L 313.794783 119.699005 
L 314.880584 121.158783 
L 315.966385 115.62379 
L 317.052186 116.475327 
L 318.137987 120.094361 
L 319.223788 117.691809 
L 320.30959 112.825881 
L 321.395391 118.360875 
L 323.566993 115.198021 
L 324.652794 111.366103 
L 325.738595 114.407308 
L 326.824396 120.885075 
L 327.910198 113.920715 
L 328.995999 113.038766 
L 330.0818 112.856293 
L 331.167601 113.464534 
L 332.253402 112.886705 
L 334.425005 109.085199 
L 335.510806 110.818686 
L 336.596607 110.970746 
L 337.682408 110.423329 
L 338.768209 114.224836 
L 339.85401 109.115611 
L 340.939811 109.663028 
L 342.025613 109.663028 
L 343.111414 111.487751 
L 344.197215 109.723852 
L 345.283016 107.108416 
L 346.368817 106.773883 
L 347.454618 105.314105 
L 348.54042 105.374929 
L 349.626221 106.13523 
L 350.712022 107.686245 
L 351.797823 106.500175 
L 352.883624 104.036799 
L 353.969425 104.827512 
L 355.055227 105.253281 
L 356.141028 105.526989 
L 357.226829 104.888336 
L 358.31263 105.466165 
L 359.398431 100.600237 
L 360.484232 102.42496 
L 361.570033 101.208478 
L 362.655835 99.383755 
L 363.741636 101.08683 
L 364.827437 99.566227 
L 365.913238 100.965181 
L 366.999039 100.326528 
L 368.08484 104.432155 
L 369.170642 106.165642 
L 370.256443 101.695071 
L 371.342244 107.138828 
L 372.428045 108.142425 
L 373.513846 107.534184 
L 374.599647 108.689842 
L 375.685448 109.419732 
L 376.77125 106.865119 
L 377.857051 112.765057 
L 378.942852 106.682647 
L 380.028653 108.993963 
L 381.114454 111.609399 
L 382.200255 108.35531 
L 383.286057 110.970746 
L 384.371858 110.666626 
L 385.457659 108.902727 
L 386.54346 108.537782 
L 387.629261 106.682647 
L 388.715062 105.618225 
L 389.800863 108.993963 
L 390.886665 115.410906 
L 391.972466 106.713059 
L 393.058267 110.240857 
L 394.144068 105.040396 
L 395.229869 110.788274 
L 396.31567 107.777481 
L 397.401472 108.446546 
L 398.487273 110.818686 
L 398.487273 110.818686 
" clip-path="url(#p2ec6e2c11a)" style="fill: none; stroke: #ff7f0e; stroke-width: 1.5; stroke-linecap: square"/>
   </g>
   <g id="line2d_21">
    <path d="M 73.832727 295.488 
L 74.918528 291.964397 
L 76.00433 286.511202 
L 77.090131 276.905188 
L 78.175932 273.73814 
L 79.261733 277.345639 
L 80.347534 273.591323 
L 81.433335 266.648986 
L 82.519137 265.851981 
L 83.604938 269.249741 
L 84.690739 256.791287 
L 85.77654 259.287172 
L 87.948142 255.637726 
L 89.033943 254.756826 
L 90.119745 253.414501 
L 91.205546 252.848207 
L 92.291347 254.190532 
L 93.377148 253.057945 
L 94.462949 252.911129 
L 95.54875 266.12464 
L 96.634552 264.824263 
L 97.720353 258.007769 
L 98.806154 262.55909 
L 99.891955 258.427246 
L 100.977756 264.824263 
L 102.063557 259.60178 
L 103.149358 255.511883 
L 104.23516 256.749339 
L 105.320961 256.854208 
L 106.406762 261.866953 
L 107.492563 252.344835 
L 108.578364 259.32912 
L 109.664165 249.408499 
L 110.749967 249.84895 
L 111.835768 255.302145 
L 112.921569 249.597264 
L 114.00737 251.736594 
L 115.093171 244.731336 
L 116.178972 246.17853 
L 117.264773 242.717848 
L 118.350575 242.403241 
L 119.436376 246.052687 
L 120.522177 244.227964 
L 121.607978 240.914099 
L 122.693779 240.53657 
L 123.77958 238.586004 
L 124.865382 240.180015 
L 125.951183 237.893868 
L 127.036984 237.432443 
L 128.122785 239.341062 
L 129.208586 237.893868 
L 130.294387 237.264653 
L 131.380189 235.251165 
L 132.46599 235.88038 
L 133.551791 233.866893 
L 135.723393 234.768767 
L 136.809194 233.447416 
L 137.894995 234.936558 
L 138.980797 250.226479 
L 140.066598 251.107379 
L 141.152399 254.022742 
L 142.2382 252.239966 
L 143.324001 246.535085 
L 144.409802 252.638469 
L 145.495604 247.982279 
L 146.581405 247.143326 
L 147.667206 250.918615 
L 148.753007 244.290885 
L 149.838808 241.543314 
L 150.924609 247.1643 
L 152.01041 244.374781 
L 153.096212 245.863922 
L 154.182013 243.326089 
L 155.267814 243.871409 
L 156.353615 240.872151 
L 157.439416 242.78077 
L 158.525217 247.143326 
L 159.611019 234.349291 
L 160.69682 238.858664 
L 161.782621 237.537313 
L 162.868422 231.664641 
L 163.954223 238.963533 
L 165.040024 237.747051 
L 166.125825 235.460904 
L 167.211627 236.677386 
L 168.297428 236.86615 
L 169.383229 237.809972 
L 170.46903 244.018226 
L 171.554831 237.977763 
L 172.640632 238.082632 
L 173.726434 235.670642 
L 174.812235 242.025712 
L 175.898036 232.965018 
L 176.983837 237.977763 
L 178.069638 228.37175 
L 179.155439 233.971762 
L 180.24124 234.433186 
L 181.327042 235.838433 
L 182.412843 229.923813 
L 183.498644 231.76951 
L 184.584445 232.797227 
L 185.670246 227.616692 
L 186.756047 231.49685 
L 187.841849 228.602462 
L 188.92765 230.301342 
L 190.013451 228.959017 
L 191.099252 225.582231 
L 192.185053 234.580003 
L 193.270854 225.791969 
L 194.356656 224.15601 
L 195.442457 227.595718 
L 196.528258 229.546284 
L 197.614059 226.924556 
L 198.69986 225.41444 
L 199.785661 228.329802 
L 201.957264 222.478104 
L 203.043065 216.857118 
L 204.128866 219.688585 
L 205.214667 219.038396 
L 206.300468 221.03091 
L 207.386269 225.791969 
L 208.472071 221.051884 
L 209.557872 221.869863 
L 210.643673 219.080344 
L 211.729474 221.093831 
L 212.815275 217.045882 
L 213.901076 219.311056 
L 214.986877 219.940271 
L 216.072679 219.206187 
L 217.15848 220.443643 
L 218.244281 219.143265 
L 219.330082 218.828658 
L 221.501684 218.493077 
L 222.587486 217.738019 
L 223.673287 218.115548 
L 224.759088 217.612176 
L 225.844889 239.970277 
L 226.93069 242.94856 
L 228.016491 242.466162 
L 229.102292 236.215961 
L 230.188094 251.359065 
L 231.273895 245.696132 
L 232.359696 244.227964 
L 233.445497 241.606235 
L 234.531298 245.780027 
L 235.617099 244.584519 
L 236.702901 236.509595 
L 237.788702 234.076631 
L 238.874503 239.82346 
L 239.960304 243.598749 
L 241.046105 245.213734 
L 242.131906 250.01674 
L 243.217708 246.598006 
L 244.303509 241.312602 
L 245.38931 241.669157 
L 246.475111 238.942559 
L 247.560912 238.984507 
L 248.646713 240.054172 
L 249.732514 237.348548 
L 250.818316 240.347806 
L 251.904117 241.606235 
L 252.989918 240.515596 
L 254.075719 244.668414 
L 255.16152 237.558286 
L 257.333123 226.337288 
L 258.418924 234.265395 
L 259.504725 239.949303 
L 260.590526 238.523083 
L 261.676327 239.928329 
L 262.762128 233.971762 
L 263.847929 241.501366 
L 264.933731 235.418956 
L 266.019532 239.886381 
L 267.105333 239.613722 
L 268.191134 241.438445 
L 269.276935 235.670642 
L 270.362736 231.182243 
L 271.448538 239.865408 
L 272.534339 233.866893 
L 273.62014 240.725334 
L 274.705941 239.82346 
L 275.791742 246.136582 
L 276.877543 241.438445 
L 277.963344 235.71259 
L 279.049146 229.315572 
L 280.134947 233.74105 
L 281.220748 235.377008 
L 282.306549 249.450447 
L 283.39235 240.767282 
L 284.478151 235.922328 
L 285.563953 240.305858 
L 286.649754 227.260137 
L 287.735555 230.909583 
L 288.821356 228.854148 
L 289.907157 238.39724 
L 290.992958 234.307343 
L 292.07876 241.795 
L 293.164561 237.453417 
L 294.250362 234.72682 
L 296.421964 230.804714 
L 297.507765 231.979248 
L 298.593566 228.53954 
L 299.679368 228.078116 
L 300.765169 237.768025 
L 301.85097 241.24968 
L 302.936771 232.713332 
L 304.022572 233.447416 
L 306.194175 228.120064 
L 307.279976 235.88038 
L 308.365777 231.475876 
L 309.451578 222.834659 
L 310.537379 233.573259 
L 311.62318 237.600234 
L 312.708981 235.146296 
L 313.794783 229.504336 
L 314.880584 230.615949 
L 315.966385 225.288597 
L 317.052186 226.526053 
L 318.137987 236.719333 
L 319.223788 232.314829 
L 320.30959 227.008451 
L 321.395391 230.993478 
L 322.481192 229.735048 
L 323.566993 223.736534 
L 324.652794 222.855633 
L 326.824396 233.992736 
L 327.910198 224.848147 
L 328.995999 226.169498 
L 330.0818 225.183728 
L 331.167601 232.063143 
L 332.253402 227.616692 
L 333.339203 226.693843 
L 334.425005 225.959759 
L 335.510806 223.296083 
L 336.596607 223.568743 
L 337.682408 224.051141 
L 338.768209 225.456388 
L 339.85401 225.498335 
L 340.939811 220.066114 
L 342.025613 222.373235 
L 343.111414 227.092346 
L 344.197215 221.681098 
L 345.283016 218.451129 
L 346.368817 218.262364 
L 347.454618 220.653381 
L 348.54042 223.463874 
L 349.626221 222.45713 
L 350.712022 217.968731 
L 351.797823 223.547769 
L 352.883624 219.080344 
L 353.969425 225.519309 
L 355.055227 223.359005 
L 356.141028 224.848147 
L 357.226829 216.64738 
L 358.31263 218.78671 
L 359.398431 217.989705 
L 360.484232 217.926783 
L 361.570033 219.478846 
L 362.655835 215.493819 
L 363.741636 219.311056 
L 364.827437 215.074343 
L 365.913238 215.997191 
L 366.999039 216.395694 
L 368.08484 217.758993 
L 369.170642 220.611433 
L 370.256443 217.381464 
L 371.342244 217.989705 
L 372.428045 222.18447 
L 373.513846 221.74402 
L 374.599647 219.793454 
L 375.685448 222.813685 
L 376.77125 219.311056 
L 377.857051 220.905067 
L 378.942852 219.227161 
L 380.028653 225.162754 
L 381.114454 223.212188 
L 382.200255 215.8294 
L 383.286057 225.917812 
L 385.457659 224.785225 
L 386.54346 223.023423 
L 387.629261 219.101318 
L 388.715062 220.359747 
L 389.800863 221.324543 
L 390.886665 237.348548 
L 391.972466 220.150009 
L 393.058267 223.799455 
L 394.144068 221.156753 
L 395.229869 225.666126 
L 396.31567 225.057885 
L 397.401472 222.582973 
L 398.487273 226.463131 
L 398.487273 226.463131 
" clip-path="url(#p2ec6e2c11a)" style="fill: none; stroke: #2ca02c; stroke-width: 1.5; stroke-linecap: square"/>
   </g>
   <g id="line2d_22">
    <path d="M 368.08484 101.999191 
L 369.170642 108.933139 
L 370.256443 105.83111 
L 371.342244 114.802665 
L 372.428045 113.707831 
L 373.513846 113.221238 
L 374.599647 110.970746 
L 375.685448 115.137197 
L 376.77125 113.130002 
L 377.857051 112.825881 
L 378.942852 121.067547 
L 380.028653 116.384091 
L 381.114454 114.863489 
L 382.200255 116.688212 
L 384.371858 121.85826 
L 385.457659 131.407644 
L 386.54346 117.813458 
L 388.715062 127.119545 
L 389.800863 125.933475 
L 390.886665 118.269638 
L 391.972466 119.455708 
L 393.058267 127.180369 
L 394.144068 126.876249 
L 395.229869 141.808566 
L 396.31567 134.083905 
L 397.401472 136.151924 
L 398.487273 130.221574 
L 398.487273 130.221574 
" clip-path="url(#p2ec6e2c11a)" style="fill: none; stroke: #d62728; stroke-width: 1.5; stroke-linecap: square"/>
   </g>
   <g id="line2d_23">
    <path d="M 368.08484 213.920782 
L 369.170642 225.896838 
L 370.256443 223.275109 
L 371.342244 233.866893 
L 372.428045 221.576229 
L 373.513846 220.087088 
L 374.599647 220.191957 
L 375.685448 229.881865 
L 376.77125 223.967246 
L 377.857051 222.100575 
L 378.942852 224.764251 
L 380.028653 220.04514 
L 381.114454 222.01668 
L 382.200255 220.737276 
L 383.286057 230.574002 
L 384.371858 226.232419 
L 385.457659 240.683387 
L 386.54346 224.407696 
L 387.629261 230.280368 
L 388.715062 234.978506 
L 389.800863 229.273624 
L 390.886665 232.084117 
L 391.972466 227.008451 
L 393.058267 230.469132 
L 394.144068 231.014452 
L 395.229869 245.90587 
L 396.31567 236.803229 
L 397.401472 239.487879 
L 398.487273 240.557544 
L 398.487273 240.557544 
" clip-path="url(#p2ec6e2c11a)" style="fill: none; stroke: #9467bd; stroke-width: 1.5; stroke-linecap: square"/>
   </g>
   <g id="patch_3">
    <path d="M 57.6 307.584 
L 57.6 41.472 
" style="fill: none; stroke: #000000; stroke-width: 0.8; stroke-linejoin: miter; stroke-linecap: square"/>
   </g>
   <g id="patch_4">
    <path d="M 414.72 307.584 
L 414.72 41.472 
" style="fill: none; stroke: #000000; stroke-width: 0.8; stroke-linejoin: miter; stroke-linecap: square"/>
   </g>
   <g id="patch_5">
    <path d="M 57.6 307.584 
L 414.72 307.584 
" style="fill: none; stroke: #000000; stroke-width: 0.8; stroke-linejoin: miter; stroke-linecap: square"/>
   </g>
   <g id="patch_6">
    <path d="M 57.6 41.472 
L 414.72 41.472 
" style="fill: none; stroke: #000000; stroke-width: 0.8; stroke-linejoin: miter; stroke-linecap: square"/>
   </g>
   <g id="text_21">
    <!-- Learning Curves -->
    <g transform="translate(187.37625 35.472) scale(0.12 -0.12)">
     <defs>
      <path id="DejaVuSans-4c" d="M 628 4666 
L 1259 4666 
L 1259 531 
L 3531 531 
L 3531 0 
L 628 0 
L 628 4666 
z
" transform="scale(0.015625)"/>
      <path id="DejaVuSans-65" d="M 3597 1894 
L 3597 1613 
L 953 1613 
Q 991 1019 1311 708 
Q 1631 397 2203 397 
Q 2534 397 2845 478 
Q 3156 559 3463 722 
L 3463 178 
Q 3153 47 2828 -22 
Q 2503 -91 2169 -91 
Q 1331 -91 842 396 
Q 353 884 353 1716 
Q 353 2575 817 3079 
Q 1281 3584 2069 3584 
Q 2775 3584 3186 3129 
Q 3597 2675 3597 1894 
z
M 3022 2063 
Q 3016 2534 2758 2815 
Q 2500 3097 2075 3097 
Q 1594 3097 1305 2825 
Q 1016 2553 972 2059 
L 3022 2063 
z
" transform="scale(0.015625)"/>
      <path id="DejaVuSans-6e" d="M 3513 2113 
L 3513 0 
L 2938 0 
L 2938 2094 
Q 2938 2591 2744 2837 
Q 2550 3084 2163 3084 
Q 1697 3084 1428 2787 
Q 1159 2491 1159 1978 
L 1159 0 
L 581 0 
L 581 3500 
L 1159 3500 
L 1159 2956 
Q 1366 3272 1645 3428 
Q 1925 3584 2291 3584 
Q 2894 3584 3203 3211 
Q 3513 2838 3513 2113 
z
" transform="scale(0.015625)"/>
      <path id="DejaVuSans-69" d="M 603 3500 
L 1178 3500 
L 1178 0 
L 603 0 
L 603 3500 
z
M 603 4863 
L 1178 4863 
L 1178 4134 
L 603 4134 
L 603 4863 
z
" transform="scale(0.015625)"/>
      <path id="DejaVuSans-67" d="M 2906 1791 
Q 2906 2416 2648 2759 
Q 2391 3103 1925 3103 
Q 1463 3103 1205 2759 
Q 947 2416 947 1791 
Q 947 1169 1205 825 
Q 1463 481 1925 481 
Q 2391 481 2648 825 
Q 2906 1169 2906 1791 
z
M 3481 434 
Q 3481 -459 3084 -895 
Q 2688 -1331 1869 -1331 
Q 1566 -1331 1297 -1286 
Q 1028 -1241 775 -1147 
L 775 -588 
Q 1028 -725 1275 -790 
Q 1522 -856 1778 -856 
Q 2344 -856 2625 -561 
Q 2906 -266 2906 331 
L 2906 616 
Q 2728 306 2450 153 
Q 2172 0 1784 0 
Q 1141 0 747 490 
Q 353 981 353 1791 
Q 353 2603 747 3093 
Q 1141 3584 1784 3584 
Q 2172 3584 2450 3431 
Q 2728 3278 2906 2969 
L 2906 3500 
L 3481 3500 
L 3481 434 
z
" transform="scale(0.015625)"/>
      <path id="DejaVuSans-20" transform="scale(0.015625)"/>
      <path id="DejaVuSans-43" d="M 4122 4306 
L 4122 3641 
Q 3803 3938 3442 4084 
Q 3081 4231 2675 4231 
Q 1875 4231 1450 3742 
Q 1025 3253 1025 2328 
Q 1025 1406 1450 917 
Q 1875 428 2675 428 
Q 3081 428 3442 575 
Q 3803 722 4122 1019 
L 4122 359 
Q 3791 134 3420 21 
Q 3050 -91 2638 -91 
Q 1578 -91 968 557 
Q 359 1206 359 2328 
Q 359 3453 968 4101 
Q 1578 4750 2638 4750 
Q 3056 4750 3426 4639 
Q 3797 4528 4122 4306 
z
" transform="scale(0.015625)"/>
      <path id="DejaVuSans-76" d="M 191 3500 
L 800 3500 
L 1894 563 
L 2988 3500 
L 3597 3500 
L 2284 0 
L 1503 0 
L 191 3500 
z
" transform="scale(0.015625)"/>
     </defs>
     <use xlink:href="#DejaVuSans-4c"/>
     <use xlink:href="#DejaVuSans-65" x="53.962891"/>
     <use xlink:href="#DejaVuSans-61" x="115.486328"/>
     <use xlink:href="#DejaVuSans-72" x="176.765625"/>
     <use xlink:href="#DejaVuSans-6e" x="216.128906"/>
     <use xlink:href="#DejaVuSans-69" x="279.507812"/>
     <use xlink:href="#DejaVuSans-6e" x="307.291016"/>
     <use xlink:href="#DejaVuSans-67" x="370.669922"/>
     <use xlink:href="#DejaVuSans-20" x="434.146484"/>
     <use xlink:href="#DejaVuSans-43" x="465.933594"/>
     <use xlink:href="#DejaVuSans-75" x="535.757812"/>
     <use xlink:href="#DejaVuSans-72" x="599.136719"/>
     <use xlink:href="#DejaVuSans-76" x="640.25"/>
     <use xlink:href="#DejaVuSans-65" x="699.429688"/>
     <use xlink:href="#DejaVuSans-73" x="760.953125"/>
    </g>
   </g>
   <g id="legend_1">
    <g id="patch_7">
     <path d="M 214.18875 212.723313 
L 407.72 212.723313 
Q 409.72 212.723313 409.72 210.723313 
L 409.72 138.332688 
Q 409.72 136.332688 407.72 136.332688 
L 214.18875 136.332688 
Q 212.18875 136.332688 212.18875 138.332688 
L 212.18875 210.723313 
Q 212.18875 212.723313 214.18875 212.723313 
z
" style="fill: #ffffff; opacity: 0.8; stroke: #cccccc; stroke-linejoin: miter"/>
    </g>
    <g id="line2d_24">
     <path d="M 216.18875 144.431125 
L 226.18875 144.431125 
L 236.18875 144.431125 
" style="fill: none; stroke: #1f77b4; stroke-width: 1.5; stroke-linecap: square"/>
    </g>
    <g id="text_22">
     <!-- Train Accuracy -->
     <g transform="translate(244.18875 147.931125) scale(0.1 -0.1)">
      <defs>
       <path id="DejaVuSans-54" d="M -19 4666 
L 3928 4666 
L 3928 4134 
L 2272 4134 
L 2272 0 
L 1638 0 
L 1638 4134 
L -19 4134 
L -19 4666 
z
" transform="scale(0.015625)"/>
      </defs>
      <use xlink:href="#DejaVuSans-54"/>
      <use xlink:href="#DejaVuSans-72" x="46.333984"/>
      <use xlink:href="#DejaVuSans-61" x="87.447266"/>
      <use xlink:href="#DejaVuSans-69" x="148.726562"/>
      <use xlink:href="#DejaVuSans-6e" x="176.509766"/>
      <use xlink:href="#DejaVuSans-20" x="239.888672"/>
      <use xlink:href="#DejaVuSans-41" x="271.675781"/>
      <use xlink:href="#DejaVuSans-63" x="338.333984"/>
      <use xlink:href="#DejaVuSans-63" x="393.314453"/>
      <use xlink:href="#DejaVuSans-75" x="448.294922"/>
      <use xlink:href="#DejaVuSans-72" x="511.673828"/>
      <use xlink:href="#DejaVuSans-61" x="552.787109"/>
      <use xlink:href="#DejaVuSans-63" x="614.066406"/>
      <use xlink:href="#DejaVuSans-79" x="669.046875"/>
     </g>
    </g>
    <g id="line2d_25">
     <path d="M 216.18875 159.10925 
L 226.18875 159.10925 
L 236.18875 159.10925 
" style="fill: none; stroke: #ff7f0e; stroke-width: 1.5; stroke-linecap: square"/>
    </g>
    <g id="text_23">
     <!-- Validation Accuracy -->
     <g transform="translate(244.18875 162.60925) scale(0.1 -0.1)">
      <defs>
       <path id="DejaVuSans-56" d="M 1831 0 
L 50 4666 
L 709 4666 
L 2188 738 
L 3669 4666 
L 4325 4666 
L 2547 0 
L 1831 0 
z
" transform="scale(0.015625)"/>
       <path id="DejaVuSans-6c" d="M 603 4863 
L 1178 4863 
L 1178 0 
L 603 0 
L 603 4863 
z
" transform="scale(0.015625)"/>
       <path id="DejaVuSans-64" d="M 2906 2969 
L 2906 4863 
L 3481 4863 
L 3481 0 
L 2906 0 
L 2906 525 
Q 2725 213 2448 61 
Q 2172 -91 1784 -91 
Q 1150 -91 751 415 
Q 353 922 353 1747 
Q 353 2572 751 3078 
Q 1150 3584 1784 3584 
Q 2172 3584 2448 3432 
Q 2725 3281 2906 2969 
z
M 947 1747 
Q 947 1113 1208 752 
Q 1469 391 1925 391 
Q 2381 391 2643 752 
Q 2906 1113 2906 1747 
Q 2906 2381 2643 2742 
Q 2381 3103 1925 3103 
Q 1469 3103 1208 2742 
Q 947 2381 947 1747 
z
" transform="scale(0.015625)"/>
       <path id="DejaVuSans-74" d="M 1172 4494 
L 1172 3500 
L 2356 3500 
L 2356 3053 
L 1172 3053 
L 1172 1153 
Q 1172 725 1289 603 
Q 1406 481 1766 481 
L 2356 481 
L 2356 0 
L 1766 0 
Q 1100 0 847 248 
Q 594 497 594 1153 
L 594 3053 
L 172 3053 
L 172 3500 
L 594 3500 
L 594 4494 
L 1172 4494 
z
" transform="scale(0.015625)"/>
      </defs>
      <use xlink:href="#DejaVuSans-56"/>
      <use xlink:href="#DejaVuSans-61" x="60.658203"/>
      <use xlink:href="#DejaVuSans-6c" x="121.9375"/>
      <use xlink:href="#DejaVuSans-69" x="149.720703"/>
      <use xlink:href="#DejaVuSans-64" x="177.503906"/>
      <use xlink:href="#DejaVuSans-61" x="240.980469"/>
      <use xlink:href="#DejaVuSans-74" x="302.259766"/>
      <use xlink:href="#DejaVuSans-69" x="341.46875"/>
      <use xlink:href="#DejaVuSans-6f" x="369.251953"/>
      <use xlink:href="#DejaVuSans-6e" x="430.433594"/>
      <use xlink:href="#DejaVuSans-20" x="493.8125"/>
      <use xlink:href="#DejaVuSans-41" x="525.599609"/>
      <use xlink:href="#DejaVuSans-63" x="592.257812"/>
      <use xlink:href="#DejaVuSans-63" x="647.238281"/>
      <use xlink:href="#DejaVuSans-75" x="702.21875"/>
      <use xlink:href="#DejaVuSans-72" x="765.597656"/>
      <use xlink:href="#DejaVuSans-61" x="806.710938"/>
      <use xlink:href="#DejaVuSans-63" x="867.990234"/>
      <use xlink:href="#DejaVuSans-79" x="922.970703"/>
     </g>
    </g>
    <g id="line2d_26">
     <path d="M 216.18875 173.787375 
L 226.18875 173.787375 
L 236.18875 173.787375 
" style="fill: none; stroke: #2ca02c; stroke-width: 1.5; stroke-linecap: square"/>
    </g>
    <g id="text_24">
     <!-- Robust Validation Accuracy -->
     <g transform="translate(244.18875 177.287375) scale(0.1 -0.1)">
      <defs>
       <path id="DejaVuSans-52" d="M 2841 2188 
Q 3044 2119 3236 1894 
Q 3428 1669 3622 1275 
L 4263 0 
L 3584 0 
L 2988 1197 
Q 2756 1666 2539 1819 
Q 2322 1972 1947 1972 
L 1259 1972 
L 1259 0 
L 628 0 
L 628 4666 
L 2053 4666 
Q 2853 4666 3247 4331 
Q 3641 3997 3641 3322 
Q 3641 2881 3436 2590 
Q 3231 2300 2841 2188 
z
M 1259 4147 
L 1259 2491 
L 2053 2491 
Q 2509 2491 2742 2702 
Q 2975 2913 2975 3322 
Q 2975 3731 2742 3939 
Q 2509 4147 2053 4147 
L 1259 4147 
z
" transform="scale(0.015625)"/>
       <path id="DejaVuSans-62" d="M 3116 1747 
Q 3116 2381 2855 2742 
Q 2594 3103 2138 3103 
Q 1681 3103 1420 2742 
Q 1159 2381 1159 1747 
Q 1159 1113 1420 752 
Q 1681 391 2138 391 
Q 2594 391 2855 752 
Q 3116 1113 3116 1747 
z
M 1159 2969 
Q 1341 3281 1617 3432 
Q 1894 3584 2278 3584 
Q 2916 3584 3314 3078 
Q 3713 2572 3713 1747 
Q 3713 922 3314 415 
Q 2916 -91 2278 -91 
Q 1894 -91 1617 61 
Q 1341 213 1159 525 
L 1159 0 
L 581 0 
L 581 4863 
L 1159 4863 
L 1159 2969 
z
" transform="scale(0.015625)"/>
      </defs>
      <use xlink:href="#DejaVuSans-52"/>
      <use xlink:href="#DejaVuSans-6f" x="64.982422"/>
      <use xlink:href="#DejaVuSans-62" x="126.164062"/>
      <use xlink:href="#DejaVuSans-75" x="189.640625"/>
      <use xlink:href="#DejaVuSans-73" x="253.019531"/>
      <use xlink:href="#DejaVuSans-74" x="305.119141"/>
      <use xlink:href="#DejaVuSans-20" x="344.328125"/>
      <use xlink:href="#DejaVuSans-56" x="376.115234"/>
      <use xlink:href="#DejaVuSans-61" x="436.773438"/>
      <use xlink:href="#DejaVuSans-6c" x="498.052734"/>
      <use xlink:href="#DejaVuSans-69" x="525.835938"/>
      <use xlink:href="#DejaVuSans-64" x="553.619141"/>
      <use xlink:href="#DejaVuSans-61" x="617.095703"/>
      <use xlink:href="#DejaVuSans-74" x="678.375"/>
      <use xlink:href="#DejaVuSans-69" x="717.583984"/>
      <use xlink:href="#DejaVuSans-6f" x="745.367188"/>
      <use xlink:href="#DejaVuSans-6e" x="806.548828"/>
      <use xlink:href="#DejaVuSans-20" x="869.927734"/>
      <use xlink:href="#DejaVuSans-41" x="901.714844"/>
      <use xlink:href="#DejaVuSans-63" x="968.373047"/>
      <use xlink:href="#DejaVuSans-63" x="1023.353516"/>
      <use xlink:href="#DejaVuSans-75" x="1078.333984"/>
      <use xlink:href="#DejaVuSans-72" x="1141.712891"/>
      <use xlink:href="#DejaVuSans-61" x="1182.826172"/>
      <use xlink:href="#DejaVuSans-63" x="1244.105469"/>
      <use xlink:href="#DejaVuSans-79" x="1299.085938"/>
     </g>
    </g>
    <g id="line2d_27">
     <path d="M 216.18875 188.4655 
L 226.18875 188.4655 
L 236.18875 188.4655 
" style="fill: none; stroke: #d62728; stroke-width: 1.5; stroke-linecap: square"/>
    </g>
    <g id="text_25">
     <!-- SWA Validation Accuracy -->
     <g transform="translate(244.18875 191.9655) scale(0.1 -0.1)">
      <defs>
       <path id="DejaVuSans-53" d="M 3425 4513 
L 3425 3897 
Q 3066 4069 2747 4153 
Q 2428 4238 2131 4238 
Q 1616 4238 1336 4038 
Q 1056 3838 1056 3469 
Q 1056 3159 1242 3001 
Q 1428 2844 1947 2747 
L 2328 2669 
Q 3034 2534 3370 2195 
Q 3706 1856 3706 1288 
Q 3706 609 3251 259 
Q 2797 -91 1919 -91 
Q 1588 -91 1214 -16 
Q 841 59 441 206 
L 441 856 
Q 825 641 1194 531 
Q 1563 422 1919 422 
Q 2459 422 2753 634 
Q 3047 847 3047 1241 
Q 3047 1584 2836 1778 
Q 2625 1972 2144 2069 
L 1759 2144 
Q 1053 2284 737 2584 
Q 422 2884 422 3419 
Q 422 4038 858 4394 
Q 1294 4750 2059 4750 
Q 2388 4750 2728 4690 
Q 3069 4631 3425 4513 
z
" transform="scale(0.015625)"/>
       <path id="DejaVuSans-57" d="M 213 4666 
L 850 4666 
L 1831 722 
L 2809 4666 
L 3519 4666 
L 4500 722 
L 5478 4666 
L 6119 4666 
L 4947 0 
L 4153 0 
L 3169 4050 
L 2175 0 
L 1381 0 
L 213 4666 
z
" transform="scale(0.015625)"/>
      </defs>
      <use xlink:href="#DejaVuSans-53"/>
      <use xlink:href="#DejaVuSans-57" x="63.476562"/>
      <use xlink:href="#DejaVuSans-41" x="156.853516"/>
      <use xlink:href="#DejaVuSans-20" x="225.261719"/>
      <use xlink:href="#DejaVuSans-56" x="257.048828"/>
      <use xlink:href="#DejaVuSans-61" x="317.707031"/>
      <use xlink:href="#DejaVuSans-6c" x="378.986328"/>
      <use xlink:href="#DejaVuSans-69" x="406.769531"/>
      <use xlink:href="#DejaVuSans-64" x="434.552734"/>
      <use xlink:href="#DejaVuSans-61" x="498.029297"/>
      <use xlink:href="#DejaVuSans-74" x="559.308594"/>
      <use xlink:href="#DejaVuSans-69" x="598.517578"/>
      <use xlink:href="#DejaVuSans-6f" x="626.300781"/>
      <use xlink:href="#DejaVuSans-6e" x="687.482422"/>
      <use xlink:href="#DejaVuSans-20" x="750.861328"/>
      <use xlink:href="#DejaVuSans-41" x="782.648438"/>
      <use xlink:href="#DejaVuSans-63" x="849.306641"/>
      <use xlink:href="#DejaVuSans-63" x="904.287109"/>
      <use xlink:href="#DejaVuSans-75" x="959.267578"/>
      <use xlink:href="#DejaVuSans-72" x="1022.646484"/>
      <use xlink:href="#DejaVuSans-61" x="1063.759766"/>
      <use xlink:href="#DejaVuSans-63" x="1125.039062"/>
      <use xlink:href="#DejaVuSans-79" x="1180.019531"/>
     </g>
    </g>
    <g id="line2d_28">
     <path d="M 216.18875 203.143625 
L 226.18875 203.143625 
L 236.18875 203.143625 
" style="fill: none; stroke: #9467bd; stroke-width: 1.5; stroke-linecap: square"/>
    </g>
    <g id="text_26">
     <!-- SWA Robust Validation Accuracy -->
     <g transform="translate(244.18875 206.643625) scale(0.1 -0.1)">
      <use xlink:href="#DejaVuSans-53"/>
      <use xlink:href="#DejaVuSans-57" x="63.476562"/>
      <use xlink:href="#DejaVuSans-41" x="156.853516"/>
      <use xlink:href="#DejaVuSans-20" x="225.261719"/>
      <use xlink:href="#DejaVuSans-52" x="257.048828"/>
      <use xlink:href="#DejaVuSans-6f" x="322.03125"/>
      <use xlink:href="#DejaVuSans-62" x="383.212891"/>
      <use xlink:href="#DejaVuSans-75" x="446.689453"/>
      <use xlink:href="#DejaVuSans-73" x="510.068359"/>
      <use xlink:href="#DejaVuSans-74" x="562.167969"/>
      <use xlink:href="#DejaVuSans-20" x="601.376953"/>
      <use xlink:href="#DejaVuSans-56" x="633.164062"/>
      <use xlink:href="#DejaVuSans-61" x="693.822266"/>
      <use xlink:href="#DejaVuSans-6c" x="755.101562"/>
      <use xlink:href="#DejaVuSans-69" x="782.884766"/>
      <use xlink:href="#DejaVuSans-64" x="810.667969"/>
      <use xlink:href="#DejaVuSans-61" x="874.144531"/>
      <use xlink:href="#DejaVuSans-74" x="935.423828"/>
      <use xlink:href="#DejaVuSans-69" x="974.632812"/>
      <use xlink:href="#DejaVuSans-6f" x="1002.416016"/>
      <use xlink:href="#DejaVuSans-6e" x="1063.597656"/>
      <use xlink:href="#DejaVuSans-20" x="1126.976562"/>
      <use xlink:href="#DejaVuSans-41" x="1158.763672"/>
      <use xlink:href="#DejaVuSans-63" x="1225.421875"/>
      <use xlink:href="#DejaVuSans-63" x="1280.402344"/>
      <use xlink:href="#DejaVuSans-75" x="1335.382812"/>
      <use xlink:href="#DejaVuSans-72" x="1398.761719"/>
      <use xlink:href="#DejaVuSans-61" x="1439.875"/>
      <use xlink:href="#DejaVuSans-63" x="1501.154297"/>
      <use xlink:href="#DejaVuSans-79" x="1556.134766"/>
     </g>
    </g>
   </g>
  </g>
 </g>
 <defs>
  <clipPath id="p2ec6e2c11a">
   <rect x="57.6" y="41.472" width="357.12" height="266.112"/>
  </clipPath>
 </defs>
</svg>
