<?xml version="1.0" encoding="utf-8" standalone="no"?>
<!DOCTYPE svg PUBLIC "-//W3C//DTD SVG 1.1//EN"
  "http://www.w3.org/Graphics/SVG/1.1/DTD/svg11.dtd">
<svg xmlns:xlink="http://www.w3.org/1999/xlink" width="460.8pt" height="345.6pt" viewBox="0 0 460.8 345.6" xmlns="http://www.w3.org/2000/svg" version="1.1">
 <metadata>
  <rdf:RDF xmlns:dc="http://purl.org/dc/elements/1.1/" xmlns:cc="http://creativecommons.org/ns#" xmlns:rdf="http://www.w3.org/1999/02/22-rdf-syntax-ns#">
   <cc:Work>
    <dc:type rdf:resource="http://purl.org/dc/dcmitype/StillImage"/>
    <dc:date>2025-05-05T04:10:26.631599</dc:date>
    <dc:format>image/svg+xml</dc:format>
    <dc:creator>
     <cc:Agent>
      <dc:title>Matplotlib v3.9.1, https://matplotlib.org/</dc:title>
     </cc:Agent>
    </dc:creator>
   </cc:Work>
  </rdf:RDF>
 </metadata>
 <defs>
  <style type="text/css">*{stroke-linejoin: round; stroke-linecap: butt}</style>
 </defs>
 <g id="figure_1">
  <g id="patch_1">
   <path d="M 0 345.6 
L 460.8 345.6 
L 460.8 0 
L 0 0 
z
" style="fill: #ffffff"/>
  </g>
  <g id="axes_1">
   <g id="patch_2">
    <path d="M 57.6 307.584 
L 414.72 307.584 
L 414.72 41.472 
L 57.6 41.472 
z
" style="fill: #ffffff"/>
   </g>
   <g id="matplotlib.axis_1">
    <g id="xtick_1">
     <g id="line2d_1">
      <defs>
       <path id="m8251510db2" d="M 0 0 
L 0 3.5 
" style="stroke: #000000; stroke-width: 0.8"/>
      </defs>
      <g>
       <use xlink:href="#m8251510db2" x="73.832727" y="307.584" style="stroke: #000000; stroke-width: 0.8"/>
      </g>
     </g>
     <g id="text_1">
      <!-- 1 -->
      <g transform="translate(70.651477 322.182437) scale(0.1 -0.1)">
       <defs>
        <path id="DejaVuSans-31" d="M 794 531 
L 1825 531 
L 1825 4091 
L 703 3866 
L 703 4441 
L 1819 4666 
L 2450 4666 
L 2450 531 
L 3481 531 
L 3481 0 
L 794 0 
L 794 531 
z
" transform="scale(0.015625)"/>
       </defs>
       <use xlink:href="#DejaVuSans-31"/>
      </g>
     </g>
    </g>
    <g id="xtick_2">
     <g id="line2d_2">
      <g>
       <use xlink:href="#m8251510db2" x="109.664165" y="307.584" style="stroke: #000000; stroke-width: 0.8"/>
      </g>
     </g>
     <g id="text_2">
      <!-- 34 -->
      <g transform="translate(103.301665 322.182437) scale(0.1 -0.1)">
       <defs>
        <path id="DejaVuSans-33" d="M 2597 2516 
Q 3050 2419 3304 2112 
Q 3559 1806 3559 1356 
Q 3559 666 3084 287 
Q 2609 -91 1734 -91 
Q 1441 -91 1130 -33 
Q 819 25 488 141 
L 488 750 
Q 750 597 1062 519 
Q 1375 441 1716 441 
Q 2309 441 2620 675 
Q 2931 909 2931 1356 
Q 2931 1769 2642 2001 
Q 2353 2234 1838 2234 
L 1294 2234 
L 1294 2753 
L 1863 2753 
Q 2328 2753 2575 2939 
Q 2822 3125 2822 3475 
Q 2822 3834 2567 4026 
Q 2313 4219 1838 4219 
Q 1578 4219 1281 4162 
Q 984 4106 628 3988 
L 628 4550 
Q 988 4650 1302 4700 
Q 1616 4750 1894 4750 
Q 2613 4750 3031 4423 
Q 3450 4097 3450 3541 
Q 3450 3153 3228 2886 
Q 3006 2619 2597 2516 
z
" transform="scale(0.015625)"/>
        <path id="DejaVuSans-34" d="M 2419 4116 
L 825 1625 
L 2419 1625 
L 2419 4116 
z
M 2253 4666 
L 3047 4666 
L 3047 1625 
L 3713 1625 
L 3713 1100 
L 3047 1100 
L 3047 0 
L 2419 0 
L 2419 1100 
L 313 1100 
L 313 1709 
L 2253 4666 
z
" transform="scale(0.015625)"/>
       </defs>
       <use xlink:href="#DejaVuSans-33"/>
       <use xlink:href="#DejaVuSans-34" x="63.623047"/>
      </g>
     </g>
    </g>
    <g id="xtick_3">
     <g id="line2d_3">
      <g>
       <use xlink:href="#m8251510db2" x="145.495604" y="307.584" style="stroke: #000000; stroke-width: 0.8"/>
      </g>
     </g>
     <g id="text_3">
      <!-- 67 -->
      <g transform="translate(139.133104 322.182437) scale(0.1 -0.1)">
       <defs>
        <path id="DejaVuSans-36" d="M 2113 2584 
Q 1688 2584 1439 2293 
Q 1191 2003 1191 1497 
Q 1191 994 1439 701 
Q 1688 409 2113 409 
Q 2538 409 2786 701 
Q 3034 994 3034 1497 
Q 3034 2003 2786 2293 
Q 2538 2584 2113 2584 
z
M 3366 4563 
L 3366 3988 
Q 3128 4100 2886 4159 
Q 2644 4219 2406 4219 
Q 1781 4219 1451 3797 
Q 1122 3375 1075 2522 
Q 1259 2794 1537 2939 
Q 1816 3084 2150 3084 
Q 2853 3084 3261 2657 
Q 3669 2231 3669 1497 
Q 3669 778 3244 343 
Q 2819 -91 2113 -91 
Q 1303 -91 875 529 
Q 447 1150 447 2328 
Q 447 3434 972 4092 
Q 1497 4750 2381 4750 
Q 2619 4750 2861 4703 
Q 3103 4656 3366 4563 
z
" transform="scale(0.015625)"/>
        <path id="DejaVuSans-37" d="M 525 4666 
L 3525 4666 
L 3525 4397 
L 1831 0 
L 1172 0 
L 2766 4134 
L 525 4134 
L 525 4666 
z
" transform="scale(0.015625)"/>
       </defs>
       <use xlink:href="#DejaVuSans-36"/>
       <use xlink:href="#DejaVuSans-37" x="63.623047"/>
      </g>
     </g>
    </g>
    <g id="xtick_4">
     <g id="line2d_4">
      <g>
       <use xlink:href="#m8251510db2" x="181.327042" y="307.584" style="stroke: #000000; stroke-width: 0.8"/>
      </g>
     </g>
     <g id="text_4">
      <!-- 100 -->
      <g transform="translate(171.783292 322.182437) scale(0.1 -0.1)">
       <defs>
        <path id="DejaVuSans-30" d="M 2034 4250 
Q 1547 4250 1301 3770 
Q 1056 3291 1056 2328 
Q 1056 1369 1301 889 
Q 1547 409 2034 409 
Q 2525 409 2770 889 
Q 3016 1369 3016 2328 
Q 3016 3291 2770 3770 
Q 2525 4250 2034 4250 
z
M 2034 4750 
Q 2819 4750 3233 4129 
Q 3647 3509 3647 2328 
Q 3647 1150 3233 529 
Q 2819 -91 2034 -91 
Q 1250 -91 836 529 
Q 422 1150 422 2328 
Q 422 3509 836 4129 
Q 1250 4750 2034 4750 
z
" transform="scale(0.015625)"/>
       </defs>
       <use xlink:href="#DejaVuSans-31"/>
       <use xlink:href="#DejaVuSans-30" x="63.623047"/>
       <use xlink:href="#DejaVuSans-30" x="127.246094"/>
      </g>
     </g>
    </g>
    <g id="xtick_5">
     <g id="line2d_5">
      <g>
       <use xlink:href="#m8251510db2" x="217.15848" y="307.584" style="stroke: #000000; stroke-width: 0.8"/>
      </g>
     </g>
     <g id="text_5">
      <!-- 133 -->
      <g transform="translate(207.61473 322.182437) scale(0.1 -0.1)">
       <use xlink:href="#DejaVuSans-31"/>
       <use xlink:href="#DejaVuSans-33" x="63.623047"/>
       <use xlink:href="#DejaVuSans-33" x="127.246094"/>
      </g>
     </g>
    </g>
    <g id="xtick_6">
     <g id="line2d_6">
      <g>
       <use xlink:href="#m8251510db2" x="254.075719" y="307.584" style="stroke: #000000; stroke-width: 0.8"/>
      </g>
     </g>
     <g id="text_6">
      <!-- 167 -->
      <g transform="translate(244.531969 322.182437) scale(0.1 -0.1)">
       <use xlink:href="#DejaVuSans-31"/>
       <use xlink:href="#DejaVuSans-36" x="63.623047"/>
       <use xlink:href="#DejaVuSans-37" x="127.246094"/>
      </g>
     </g>
    </g>
    <g id="xtick_7">
     <g id="line2d_7">
      <g>
       <use xlink:href="#m8251510db2" x="289.907157" y="307.584" style="stroke: #000000; stroke-width: 0.8"/>
      </g>
     </g>
     <g id="text_7">
      <!-- 200 -->
      <g transform="translate(280.363407 322.182437) scale(0.1 -0.1)">
       <defs>
        <path id="DejaVuSans-32" d="M 1228 531 
L 3431 531 
L 3431 0 
L 469 0 
L 469 531 
Q 828 903 1448 1529 
Q 2069 2156 2228 2338 
Q 2531 2678 2651 2914 
Q 2772 3150 2772 3378 
Q 2772 3750 2511 3984 
Q 2250 4219 1831 4219 
Q 1534 4219 1204 4116 
Q 875 4013 500 3803 
L 500 4441 
Q 881 4594 1212 4672 
Q 1544 4750 1819 4750 
Q 2544 4750 2975 4387 
Q 3406 4025 3406 3419 
Q 3406 3131 3298 2873 
Q 3191 2616 2906 2266 
Q 2828 2175 2409 1742 
Q 1991 1309 1228 531 
z
" transform="scale(0.015625)"/>
       </defs>
       <use xlink:href="#DejaVuSans-32"/>
       <use xlink:href="#DejaVuSans-30" x="63.623047"/>
       <use xlink:href="#DejaVuSans-30" x="127.246094"/>
      </g>
     </g>
    </g>
    <g id="xtick_8">
     <g id="line2d_8">
      <g>
       <use xlink:href="#m8251510db2" x="325.738595" y="307.584" style="stroke: #000000; stroke-width: 0.8"/>
      </g>
     </g>
     <g id="text_8">
      <!-- 233 -->
      <g transform="translate(316.194845 322.182437) scale(0.1 -0.1)">
       <use xlink:href="#DejaVuSans-32"/>
       <use xlink:href="#DejaVuSans-33" x="63.623047"/>
       <use xlink:href="#DejaVuSans-33" x="127.246094"/>
      </g>
     </g>
    </g>
    <g id="xtick_9">
     <g id="line2d_9">
      <g>
       <use xlink:href="#m8251510db2" x="361.570033" y="307.584" style="stroke: #000000; stroke-width: 0.8"/>
      </g>
     </g>
     <g id="text_9">
      <!-- 266 -->
      <g transform="translate(352.026283 322.182437) scale(0.1 -0.1)">
       <use xlink:href="#DejaVuSans-32"/>
       <use xlink:href="#DejaVuSans-36" x="63.623047"/>
       <use xlink:href="#DejaVuSans-36" x="127.246094"/>
      </g>
     </g>
    </g>
    <g id="xtick_10">
     <g id="line2d_10">
      <g>
       <use xlink:href="#m8251510db2" x="398.487273" y="307.584" style="stroke: #000000; stroke-width: 0.8"/>
      </g>
     </g>
     <g id="text_10">
      <!-- 300 -->
      <g transform="translate(388.943523 322.182437) scale(0.1 -0.1)">
       <use xlink:href="#DejaVuSans-33"/>
       <use xlink:href="#DejaVuSans-30" x="63.623047"/>
       <use xlink:href="#DejaVuSans-30" x="127.246094"/>
      </g>
     </g>
    </g>
    <g id="text_11">
     <!-- Epochs -->
     <g transform="translate(218.244375 335.860562) scale(0.1 -0.1)">
      <defs>
       <path id="DejaVuSans-45" d="M 628 4666 
L 3578 4666 
L 3578 4134 
L 1259 4134 
L 1259 2753 
L 3481 2753 
L 3481 2222 
L 1259 2222 
L 1259 531 
L 3634 531 
L 3634 0 
L 628 0 
L 628 4666 
z
" transform="scale(0.015625)"/>
       <path id="DejaVuSans-70" d="M 1159 525 
L 1159 -1331 
L 581 -1331 
L 581 3500 
L 1159 3500 
L 1159 2969 
Q 1341 3281 1617 3432 
Q 1894 3584 2278 3584 
Q 2916 3584 3314 3078 
Q 3713 2572 3713 1747 
Q 3713 922 3314 415 
Q 2916 -91 2278 -91 
Q 1894 -91 1617 61 
Q 1341 213 1159 525 
z
M 3116 1747 
Q 3116 2381 2855 2742 
Q 2594 3103 2138 3103 
Q 1681 3103 1420 2742 
Q 1159 2381 1159 1747 
Q 1159 1113 1420 752 
Q 1681 391 2138 391 
Q 2594 391 2855 752 
Q 3116 1113 3116 1747 
z
" transform="scale(0.015625)"/>
       <path id="DejaVuSans-6f" d="M 1959 3097 
Q 1497 3097 1228 2736 
Q 959 2375 959 1747 
Q 959 1119 1226 758 
Q 1494 397 1959 397 
Q 2419 397 2687 759 
Q 2956 1122 2956 1747 
Q 2956 2369 2687 2733 
Q 2419 3097 1959 3097 
z
M 1959 3584 
Q 2709 3584 3137 3096 
Q 3566 2609 3566 1747 
Q 3566 888 3137 398 
Q 2709 -91 1959 -91 
Q 1206 -91 779 398 
Q 353 888 353 1747 
Q 353 2609 779 3096 
Q 1206 3584 1959 3584 
z
" transform="scale(0.015625)"/>
       <path id="DejaVuSans-63" d="M 3122 3366 
L 3122 2828 
Q 2878 2963 2633 3030 
Q 2388 3097 2138 3097 
Q 1578 3097 1268 2742 
Q 959 2388 959 1747 
Q 959 1106 1268 751 
Q 1578 397 2138 397 
Q 2388 397 2633 464 
Q 2878 531 3122 666 
L 3122 134 
Q 2881 22 2623 -34 
Q 2366 -91 2075 -91 
Q 1284 -91 818 406 
Q 353 903 353 1747 
Q 353 2603 823 3093 
Q 1294 3584 2113 3584 
Q 2378 3584 2631 3529 
Q 2884 3475 3122 3366 
z
" transform="scale(0.015625)"/>
       <path id="DejaVuSans-68" d="M 3513 2113 
L 3513 0 
L 2938 0 
L 2938 2094 
Q 2938 2591 2744 2837 
Q 2550 3084 2163 3084 
Q 1697 3084 1428 2787 
Q 1159 2491 1159 1978 
L 1159 0 
L 581 0 
L 581 4863 
L 1159 4863 
L 1159 2956 
Q 1366 3272 1645 3428 
Q 1925 3584 2291 3584 
Q 2894 3584 3203 3211 
Q 3513 2838 3513 2113 
z
" transform="scale(0.015625)"/>
       <path id="DejaVuSans-73" d="M 2834 3397 
L 2834 2853 
Q 2591 2978 2328 3040 
Q 2066 3103 1784 3103 
Q 1356 3103 1142 2972 
Q 928 2841 928 2578 
Q 928 2378 1081 2264 
Q 1234 2150 1697 2047 
L 1894 2003 
Q 2506 1872 2764 1633 
Q 3022 1394 3022 966 
Q 3022 478 2636 193 
Q 2250 -91 1575 -91 
Q 1294 -91 989 -36 
Q 684 19 347 128 
L 347 722 
Q 666 556 975 473 
Q 1284 391 1588 391 
Q 1994 391 2212 530 
Q 2431 669 2431 922 
Q 2431 1156 2273 1281 
Q 2116 1406 1581 1522 
L 1381 1569 
Q 847 1681 609 1914 
Q 372 2147 372 2553 
Q 372 3047 722 3315 
Q 1072 3584 1716 3584 
Q 2034 3584 2315 3537 
Q 2597 3491 2834 3397 
z
" transform="scale(0.015625)"/>
      </defs>
      <use xlink:href="#DejaVuSans-45"/>
      <use xlink:href="#DejaVuSans-70" x="63.183594"/>
      <use xlink:href="#DejaVuSans-6f" x="126.660156"/>
      <use xlink:href="#DejaVuSans-63" x="187.841797"/>
      <use xlink:href="#DejaVuSans-68" x="242.822266"/>
      <use xlink:href="#DejaVuSans-73" x="306.201172"/>
     </g>
    </g>
   </g>
   <g id="matplotlib.axis_2">
    <g id="ytick_1">
     <g id="line2d_11">
      <defs>
       <path id="mf9989da711" d="M 0 0 
L -3.5 0 
" style="stroke: #000000; stroke-width: 0.8"/>
      </defs>
      <g>
       <use xlink:href="#mf9989da711" x="57.6" y="255.611895" style="stroke: #000000; stroke-width: 0.8"/>
      </g>
     </g>
     <g id="text_12">
      <!-- 20 -->
      <g transform="translate(37.875 259.411114) scale(0.1 -0.1)">
       <use xlink:href="#DejaVuSans-32"/>
       <use xlink:href="#DejaVuSans-30" x="63.623047"/>
      </g>
     </g>
    </g>
    <g id="ytick_2">
     <g id="line2d_12">
      <g>
       <use xlink:href="#mf9989da711" x="57.6" y="201.950316" style="stroke: #000000; stroke-width: 0.8"/>
      </g>
     </g>
     <g id="text_13">
      <!-- 40 -->
      <g transform="translate(37.875 205.749535) scale(0.1 -0.1)">
       <use xlink:href="#DejaVuSans-34"/>
       <use xlink:href="#DejaVuSans-30" x="63.623047"/>
      </g>
     </g>
    </g>
    <g id="ytick_3">
     <g id="line2d_13">
      <g>
       <use xlink:href="#mf9989da711" x="57.6" y="148.288737" style="stroke: #000000; stroke-width: 0.8"/>
      </g>
     </g>
     <g id="text_14">
      <!-- 60 -->
      <g transform="translate(37.875 152.087955) scale(0.1 -0.1)">
       <use xlink:href="#DejaVuSans-36"/>
       <use xlink:href="#DejaVuSans-30" x="63.623047"/>
      </g>
     </g>
    </g>
    <g id="ytick_4">
     <g id="line2d_14">
      <g>
       <use xlink:href="#mf9989da711" x="57.6" y="94.627157" style="stroke: #000000; stroke-width: 0.8"/>
      </g>
     </g>
     <g id="text_15">
      <!-- 80 -->
      <g transform="translate(37.875 98.426376) scale(0.1 -0.1)">
       <defs>
        <path id="DejaVuSans-38" d="M 2034 2216 
Q 1584 2216 1326 1975 
Q 1069 1734 1069 1313 
Q 1069 891 1326 650 
Q 1584 409 2034 409 
Q 2484 409 2743 651 
Q 3003 894 3003 1313 
Q 3003 1734 2745 1975 
Q 2488 2216 2034 2216 
z
M 1403 2484 
Q 997 2584 770 2862 
Q 544 3141 544 3541 
Q 544 4100 942 4425 
Q 1341 4750 2034 4750 
Q 2731 4750 3128 4425 
Q 3525 4100 3525 3541 
Q 3525 3141 3298 2862 
Q 3072 2584 2669 2484 
Q 3125 2378 3379 2068 
Q 3634 1759 3634 1313 
Q 3634 634 3220 271 
Q 2806 -91 2034 -91 
Q 1263 -91 848 271 
Q 434 634 434 1313 
Q 434 1759 690 2068 
Q 947 2378 1403 2484 
z
M 1172 3481 
Q 1172 3119 1398 2916 
Q 1625 2713 2034 2713 
Q 2441 2713 2670 2916 
Q 2900 3119 2900 3481 
Q 2900 3844 2670 4047 
Q 2441 4250 2034 4250 
Q 1625 4250 1398 4047 
Q 1172 3844 1172 3481 
z
" transform="scale(0.015625)"/>
       </defs>
       <use xlink:href="#DejaVuSans-38"/>
       <use xlink:href="#DejaVuSans-30" x="63.623047"/>
      </g>
     </g>
    </g>
    <g id="text_16">
     <!-- Accuracy -->
     <g transform="translate(31.795312 197.356125) rotate(-90) scale(0.1 -0.1)">
      <defs>
       <path id="DejaVuSans-41" d="M 2188 4044 
L 1331 1722 
L 3047 1722 
L 2188 4044 
z
M 1831 4666 
L 2547 4666 
L 4325 0 
L 3669 0 
L 3244 1197 
L 1141 1197 
L 716 0 
L 50 0 
L 1831 4666 
z
" transform="scale(0.015625)"/>
       <path id="DejaVuSans-75" d="M 544 1381 
L 544 3500 
L 1119 3500 
L 1119 1403 
Q 1119 906 1312 657 
Q 1506 409 1894 409 
Q 2359 409 2629 706 
Q 2900 1003 2900 1516 
L 2900 3500 
L 3475 3500 
L 3475 0 
L 2900 0 
L 2900 538 
Q 2691 219 2414 64 
Q 2138 -91 1772 -91 
Q 1169 -91 856 284 
Q 544 659 544 1381 
z
M 1991 3584 
L 1991 3584 
z
" transform="scale(0.015625)"/>
       <path id="DejaVuSans-72" d="M 2631 2963 
Q 2534 3019 2420 3045 
Q 2306 3072 2169 3072 
Q 1681 3072 1420 2755 
Q 1159 2438 1159 1844 
L 1159 0 
L 581 0 
L 581 3500 
L 1159 3500 
L 1159 2956 
Q 1341 3275 1631 3429 
Q 1922 3584 2338 3584 
Q 2397 3584 2469 3576 
Q 2541 3569 2628 3553 
L 2631 2963 
z
" transform="scale(0.015625)"/>
       <path id="DejaVuSans-61" d="M 2194 1759 
Q 1497 1759 1228 1600 
Q 959 1441 959 1056 
Q 959 750 1161 570 
Q 1363 391 1709 391 
Q 2188 391 2477 730 
Q 2766 1069 2766 1631 
L 2766 1759 
L 2194 1759 
z
M 3341 1997 
L 3341 0 
L 2766 0 
L 2766 531 
Q 2569 213 2275 61 
Q 1981 -91 1556 -91 
Q 1019 -91 701 211 
Q 384 513 384 1019 
Q 384 1609 779 1909 
Q 1175 2209 1959 2209 
L 2766 2209 
L 2766 2266 
Q 2766 2663 2505 2880 
Q 2244 3097 1772 3097 
Q 1472 3097 1187 3025 
Q 903 2953 641 2809 
L 641 3341 
Q 956 3463 1253 3523 
Q 1550 3584 1831 3584 
Q 2591 3584 2966 3190 
Q 3341 2797 3341 1997 
z
" transform="scale(0.015625)"/>
       <path id="DejaVuSans-79" d="M 2059 -325 
Q 1816 -950 1584 -1140 
Q 1353 -1331 966 -1331 
L 506 -1331 
L 506 -850 
L 844 -850 
Q 1081 -850 1212 -737 
Q 1344 -625 1503 -206 
L 1606 56 
L 191 3500 
L 800 3500 
L 1894 763 
L 2988 3500 
L 3597 3500 
L 2059 -325 
z
" transform="scale(0.015625)"/>
      </defs>
      <use xlink:href="#DejaVuSans-41"/>
      <use xlink:href="#DejaVuSans-63" x="66.658203"/>
      <use xlink:href="#DejaVuSans-63" x="121.638672"/>
      <use xlink:href="#DejaVuSans-75" x="176.619141"/>
      <use xlink:href="#DejaVuSans-72" x="239.998047"/>
      <use xlink:href="#DejaVuSans-61" x="281.111328"/>
      <use xlink:href="#DejaVuSans-63" x="342.390625"/>
      <use xlink:href="#DejaVuSans-79" x="397.371094"/>
     </g>
    </g>
   </g>
   <g id="line2d_15">
    <path d="M 73.832727 287.06563 
L 74.918528 259.14551 
L 76.00433 242.403098 
L 77.090131 229.068195 
L 78.175932 217.815362 
L 79.261733 209.111454 
L 81.433335 194.410864 
L 84.690739 176.890359 
L 86.862341 166.823446 
L 90.119745 152.565565 
L 91.205546 149.249279 
L 92.291347 146.295209 
L 93.377148 144.38754 
L 94.462949 142.842086 
L 95.54875 179.517093 
L 96.634552 177.126469 
L 97.720353 174.191181 
L 99.891955 167.521047 
L 100.977756 165.176036 
L 102.063557 162.087812 
L 103.149358 159.734752 
L 104.23516 156.233334 
L 107.492563 148.677783 
L 108.578364 145.906163 
L 109.664165 142.702566 
L 110.749967 141.017593 
L 111.835768 137.63423 
L 112.921569 134.859927 
L 114.00737 133.105193 
L 115.093171 130.14844 
L 116.178972 126.754345 
L 119.436376 119.051225 
L 120.522177 115.437118 
L 122.693779 109.499464 
L 123.77958 106.988102 
L 124.865382 103.824752 
L 125.951183 101.664874 
L 128.122785 95.960648 
L 129.208586 94.090542 
L 130.294387 91.670404 
L 131.380189 89.690292 
L 133.551791 86.610117 
L 134.637592 85.81056 
L 135.723393 84.579027 
L 136.809194 84.216811 
L 137.894995 83.717758 
L 138.980797 138.256704 
L 140.066598 140.615131 
L 141.152399 139.871918 
L 143.324001 136.740765 
L 144.409802 135.879497 
L 145.495604 133.977194 
L 146.581405 132.742977 
L 147.667206 130.695788 
L 148.753007 129.786224 
L 149.838808 128.235405 
L 150.924609 127.519022 
L 152.01041 125.611353 
L 153.096212 124.715205 
L 155.267814 122.190428 
L 156.353615 120.575214 
L 159.611019 116.778657 
L 161.782621 114.688539 
L 162.868422 112.982101 
L 163.954223 111.710321 
L 165.040024 110.21048 
L 169.383229 105.611683 
L 170.46903 103.797921 
L 171.554831 102.303446 
L 172.640632 101.310707 
L 174.812235 98.243948 
L 183.498644 87.294303 
L 184.584445 85.585181 
L 186.756047 82.805511 
L 187.841849 81.748378 
L 188.92765 80.326347 
L 190.013451 78.560881 
L 191.099252 77.581557 
L 192.185053 76.162208 
L 193.270854 74.544311 
L 200.871462 66.22945 
L 201.957264 65.612341 
L 203.043065 64.442519 
L 204.128866 64.074937 
L 205.214667 62.856819 
L 206.300468 62.137754 
L 207.386269 61.01891 
L 208.472071 60.675476 
L 209.557872 59.58078 
L 210.643673 59.40638 
L 211.729474 58.923426 
L 212.815275 58.156065 
L 214.986877 56.994292 
L 216.072679 56.956729 
L 217.15848 56.358402 
L 220.415883 55.743977 
L 221.501684 55.824469 
L 222.587486 55.625922 
L 223.673287 55.888863 
L 224.759088 55.652752 
L 225.844889 118.010191 
L 226.93069 122.179695 
L 228.016491 122.287018 
L 229.102292 119.995669 
L 230.188094 119.043176 
L 231.273895 117.937747 
L 232.359696 117.006719 
L 233.445497 115.485413 
L 235.617099 113.733363 
L 236.702901 113.424809 
L 237.788702 112.14498 
L 238.874503 111.519823 
L 239.960304 110.704167 
L 241.046105 109.53971 
L 242.131906 108.970898 
L 243.217708 108.820645 
L 244.303509 107.736681 
L 245.38931 107.264459 
L 246.475111 106.462219 
L 247.560912 106.121468 
L 248.646713 105.260199 
L 249.732514 104.755781 
L 250.818316 104.404297 
L 251.904117 103.129835 
L 252.989918 103.339115 
L 254.075719 102.952751 
L 255.16152 101.731951 
L 256.247321 101.946597 
L 257.333123 101.281193 
L 258.418924 100.366263 
L 259.504725 100.857267 
L 260.590526 99.708909 
L 262.762128 98.434446 
L 264.933731 98.002471 
L 266.019532 97.036562 
L 267.105333 96.228956 
L 270.362736 95.228167 
L 271.448538 94.1764 
L 272.534339 94.098591 
L 273.62014 93.631735 
L 274.705941 93.33123 
L 276.877543 91.689186 
L 279.049146 91.034515 
L 280.134947 90.154465 
L 281.220748 90.06324 
L 282.306549 89.338809 
L 283.39235 89.220753 
L 284.478151 88.26826 
L 285.563953 88.179719 
L 286.649754 87.763841 
L 287.735555 87.090389 
L 288.821356 86.277416 
L 289.907157 86.043988 
L 290.992958 85.290043 
L 293.164561 84.332183 
L 294.250362 83.967285 
L 296.421964 82.362803 
L 298.593566 81.710815 
L 299.679368 81.651788 
L 300.765169 80.208291 
L 301.85097 79.65826 
L 302.936771 79.416783 
L 304.022572 79.046518 
L 305.108373 78.24696 
L 306.194175 78.048412 
L 307.279976 77.205926 
L 308.365777 76.951033 
L 309.451578 76.333925 
L 310.537379 75.950245 
L 311.62318 75.043364 
L 312.708981 75.078244 
L 313.794783 73.763535 
L 315.966385 72.891535 
L 318.137987 72.34687 
L 319.223788 71.458771 
L 320.30959 70.76117 
L 323.566993 69.502806 
L 325.738595 68.126386 
L 326.824396 67.820515 
L 327.910198 67.06657 
L 328.995999 66.948515 
L 330.0818 66.084563 
L 331.167601 66.006754 
L 332.253402 65.615025 
L 335.510806 63.683208 
L 336.596607 63.535638 
L 344.197215 60.259599 
L 345.283016 59.728349 
L 346.368817 59.578097 
L 348.54042 58.829518 
L 349.626221 58.263388 
L 350.712022 57.978982 
L 351.797823 57.850194 
L 352.883624 57.302846 
L 353.969425 57.238452 
L 355.055227 56.685738 
L 356.141028 57.166009 
L 357.226829 55.966673 
L 358.31263 55.859349 
L 359.398431 55.191263 
L 360.484232 54.842463 
L 361.570033 54.745872 
L 362.655835 54.386339 
L 363.741636 54.321945 
L 365.913238 53.820209 
L 366.999039 53.568 
L 368.08484 54.219988 
L 369.170642 55.413958 
L 370.256443 55.832519 
L 371.342244 56.972827 
L 372.428045 58.829518 
L 374.599647 59.151487 
L 375.685448 59.500288 
L 377.857051 59.062946 
L 378.942852 59.835672 
L 381.114454 59.559315 
L 382.200255 59.570048 
L 384.371858 60.230085 
L 385.457659 59.701519 
L 386.54346 59.916165 
L 387.629261 59.937629 
L 388.715062 59.827623 
L 389.800863 60.152276 
L 390.886665 60.305211 
L 391.972466 59.85982 
L 393.058267 60.273014 
L 394.144068 60.546688 
L 395.229869 60.412534 
L 396.31567 60.562787 
L 397.401472 60.385704 
L 398.487273 60.377654 
L 398.487273 60.377654 
" clip-path="url(#p07334877f9)" style="fill: none; stroke: #1f77b4; stroke-width: 1.5; stroke-linecap: square"/>
   </g>
   <g id="line2d_16">
    <path d="M 73.832727 273.025078 
L 76.00433 240.264684 
L 77.090131 250.540876 
L 78.175932 219.309837 
L 79.261733 224.407687 
L 80.347534 206.055427 
L 81.433335 204.660226 
L 82.519137 205.357826 
L 83.604938 188.212952 
L 84.690739 193.92791 
L 85.77654 185.154242 
L 86.862341 175.307342 
L 87.948142 172.114478 
L 89.033943 171.873001 
L 90.119745 169.350907 
L 91.205546 166.184873 
L 92.291347 166.667828 
L 93.377148 164.870165 
L 94.462949 165.245796 
L 95.54875 196.691481 
L 96.634552 197.68422 
L 97.720353 190.5204 
L 98.806154 186.146981 
L 99.891955 179.949069 
L 100.977756 184.563964 
L 102.063557 177.829436 
L 103.149358 176.836697 
L 104.23516 176.004942 
L 105.320961 171.712016 
L 106.406762 166.828812 
L 107.492563 165.916566 
L 108.578364 170.021676 
L 109.664165 163.206656 
L 110.749967 166.882474 
L 111.835768 159.638161 
L 112.921569 160.738223 
L 114.00737 158.645422 
L 115.093171 163.072502 
L 116.178972 155.398896 
L 117.264773 155.989173 
L 118.350575 154.593972 
L 119.436376 154.51348 
L 120.522177 152.635325 
L 121.607978 151.937724 
L 122.693779 150.730339 
L 123.77958 150.488861 
L 124.865382 148.932676 
L 125.951183 148.208244 
L 127.036984 148.315568 
L 128.122785 148.288737 
L 129.208586 146.866705 
L 130.294387 146.169104 
L 131.380189 145.68615 
L 132.46599 145.68615 
L 133.551791 145.900796 
L 134.637592 145.578827 
L 135.723393 146.142274 
L 136.809194 146.061781 
L 137.894995 145.632489 
L 138.980797 168.572814 
L 140.066598 167.741059 
L 141.152399 162.455394 
L 142.2382 166.962966 
L 143.324001 166.372689 
L 144.409802 166.855643 
L 145.495604 161.677301 
L 146.581405 162.026101 
L 147.667206 161.087023 
L 148.753007 162.187086 
L 149.838808 162.535886 
L 150.924609 161.113854 
L 152.01041 160.818716 
L 154.182013 158.94056 
L 155.267814 157.464867 
L 156.353615 160.899208 
L 157.439416 160.094284 
L 158.525217 158.511268 
L 159.611019 157.813667 
L 160.69682 159.986961 
L 161.782621 157.491698 
L 162.868422 155.801358 
L 163.954223 157.008743 
L 165.040024 159.074714 
L 166.125825 156.740435 
L 167.211627 158.403944 
L 168.297428 157.062405 
L 169.383229 154.379326 
L 170.46903 160.845546 
L 171.554831 156.820928 
L 172.640632 158.26979 
L 173.726434 152.098709 
L 174.812235 163.555456 
L 175.898036 161.006531 
L 176.983837 151.562093 
L 178.069638 150.676677 
L 179.155439 155.372065 
L 180.24124 155.801358 
L 181.327042 151.079139 
L 182.412843 155.53305 
L 183.498644 151.80357 
L 184.584445 150.193723 
L 185.670246 153.708556 
L 186.756047 152.608494 
L 187.841849 149.013168 
L 188.92765 151.669416 
L 190.013451 151.052308 
L 191.099252 149.844923 
L 192.185053 148.905845 
L 193.270854 149.76443 
L 194.356656 149.683938 
L 196.528258 148.583875 
L 197.614059 147.135013 
L 198.69986 147.081351 
L 199.785661 148.020429 
L 200.871462 146.276428 
L 201.957264 147.671629 
L 203.043065 146.678889 
L 204.128866 143.727502 
L 205.214667 145.364181 
L 206.300468 143.405533 
L 207.386269 143.64701 
L 208.472071 142.788425 
L 209.557872 143.754333 
L 210.643673 142.412794 
L 211.729474 141.876178 
L 212.815275 142.117655 
L 213.901076 142.681102 
L 214.986877 141.983501 
L 218.244281 141.420055 
L 220.415883 141.92984 
L 221.501684 142.037163 
L 222.587486 141.339562 
L 223.673287 141.554209 
L 224.759088 141.071254 
L 225.844889 170.907092 
L 226.93069 177.078174 
L 228.016491 175.656142 
L 229.102292 170.719277 
L 230.188094 164.333549 
L 231.273895 167.794721 
L 232.359696 166.882474 
L 233.445497 168.465491 
L 234.531298 164.306718 
L 235.617099 168.706968 
L 236.702901 164.789672 
L 237.788702 170.316815 
L 238.874503 162.374901 
L 239.960304 162.509055 
L 241.046105 169.377737 
L 242.131906 163.984749 
L 243.217708 165.245796 
L 244.303509 162.643209 
L 245.38931 166.292197 
L 246.475111 170.853431 
L 247.560912 165.138473 
L 248.646713 162.857856 
L 249.732514 164.306718 
L 250.818316 162.079763 
L 251.904117 167.123951 
L 252.989918 166.882474 
L 254.075719 161.543147 
L 255.16152 161.516316 
L 256.247321 161.838286 
L 257.333123 161.811455 
L 258.418924 159.879638 
L 259.504725 160.738223 
L 260.590526 160.872377 
L 261.676327 162.884686 
L 262.762128 163.34081 
L 263.847929 163.582287 
L 264.933731 162.723702 
L 266.019532 158.24296 
L 267.105333 159.155207 
L 268.191134 161.033362 
L 269.276935 165.487273 
L 270.362736 167.043459 
L 271.448538 159.047883 
L 272.534339 162.911517 
L 273.62014 158.457606 
L 274.705941 159.825976 
L 275.791742 156.713605 
L 276.877543 163.394471 
L 277.963344 160.926039 
L 279.049146 163.394471 
L 280.134947 159.450345 
L 281.220748 158.055144 
L 282.306549 165.460442 
L 283.39235 153.708556 
L 284.478151 161.516316 
L 285.563953 156.90142 
L 286.649754 160.791885 
L 287.735555 160.335761 
L 288.821356 158.484437 
L 289.907157 160.818716 
L 290.992958 158.135637 
L 292.07876 160.389423 
L 293.164561 159.101545 
L 294.250362 156.767266 
L 295.336163 155.935512 
L 296.421964 159.021053 
L 297.507765 159.504007 
L 298.593566 163.609118 
L 299.679368 157.491698 
L 300.765169 155.908681 
L 301.85097 157.92099 
L 302.936771 157.840498 
L 304.022572 160.308931 
L 306.194175 157.330713 
L 307.279976 157.438036 
L 308.365777 155.774527 
L 309.451578 155.935512 
L 310.537379 156.90142 
L 311.62318 160.604069 
L 312.708981 155.774527 
L 313.794783 157.840498 
L 314.880584 158.403944 
L 315.966385 156.606282 
L 317.052186 157.894159 
L 318.137987 155.18425 
L 319.223788 157.277051 
L 320.30959 155.989173 
L 321.395391 156.391635 
L 322.481192 155.935512 
L 323.566993 154.003695 
L 324.652794 151.481601 
L 325.738595 154.298834 
L 326.824396 153.520741 
L 327.910198 153.17194 
L 330.0818 150.837662 
L 331.167601 154.567142 
L 332.253402 151.266954 
L 333.339203 151.347447 
L 334.425005 149.925415 
L 335.510806 151.186462 
L 336.596607 153.359756 
L 337.682408 148.986337 
L 338.768209 149.979076 
L 339.85401 150.623015 
L 340.939811 148.154583 
L 342.025613 147.430151 
L 343.111414 148.369229 
L 344.197215 148.959506 
L 345.283016 149.120491 
L 346.368817 147.242336 
L 347.454618 147.859444 
L 348.54042 146.276428 
L 349.626221 146.893536 
L 350.712022 146.437412 
L 351.797823 145.203196 
L 352.883624 146.866705 
L 355.055227 143.96898 
L 356.141028 144.31778 
L 357.226829 142.037163 
L 358.31263 144.854396 
L 359.398431 144.451934 
L 360.484232 142.385963 
L 361.570033 143.754333 
L 362.655835 143.620179 
L 363.741636 141.634701 
L 364.827437 142.62744 
L 365.913238 142.171317 
L 366.999039 141.393224 
L 368.08484 143.942149 
L 369.170642 143.137225 
L 370.256443 146.088612 
L 371.342244 146.35692 
L 372.428045 147.456982 
L 373.513846 146.920366 
L 374.599647 149.898584 
L 375.685448 148.100921 
L 377.857051 148.530214 
L 378.942852 149.657107 
L 380.028653 149.41563 
L 381.114454 148.342398 
L 382.200255 148.342398 
L 383.286057 147.135013 
L 384.371858 148.449721 
L 385.457659 149.039999 
L 386.54346 148.557045 
L 387.629261 149.308307 
L 388.715062 152.796309 
L 389.800863 147.37649 
L 390.886665 150.944985 
L 391.972466 149.979076 
L 393.058267 148.852183 
L 394.144068 149.06683 
L 395.229869 153.789049 
L 396.31567 150.11323 
L 397.401472 151.240124 
L 398.487273 149.442461 
L 398.487273 149.442461 
" clip-path="url(#p07334877f9)" style="fill: none; stroke: #ff7f0e; stroke-width: 1.5; stroke-linecap: square"/>
   </g>
   <g id="line2d_17">
    <path d="M 73.832727 295.488 
L 74.918528 291.713185 
L 76.00433 285.588364 
L 77.090131 289.381682 
L 78.175932 279.000942 
L 79.261733 280.61079 
L 80.347534 274.152896 
L 81.433335 278.686374 
L 82.519137 275.855264 
L 83.604938 268.453666 
L 84.690739 274.522976 
L 85.77654 266.288699 
L 86.862341 262.680421 
L 87.948142 260.811517 
L 89.033943 261.237109 
L 90.119745 260.996557 
L 91.205546 258.850094 
L 92.291347 258.998126 
L 93.377148 258.609542 
L 94.462949 258.405998 
L 95.54875 274.522976 
L 96.634552 270.174538 
L 97.720353 271.969425 
L 98.806154 265.511532 
L 99.891955 266.695787 
L 100.977756 265.696571 
L 102.063557 264.06822 
L 103.149358 266.806811 
L 104.23516 262.532389 
L 105.320961 260.330414 
L 106.406762 259.719782 
L 107.492563 258.128438 
L 108.578364 259.590254 
L 109.664165 255.019768 
L 110.749967 261.366637 
L 111.835768 254.446144 
L 112.921569 253.983544 
L 114.00737 256.018983 
L 115.093171 253.946536 
L 116.178972 254.52016 
L 117.264773 250.930385 
L 118.350575 250.578809 
L 119.436376 249.709122 
L 120.522177 247.61817 
L 121.607978 249.505578 
L 122.693779 249.228018 
L 123.77958 250.301249 
L 124.865382 247.71069 
L 125.951183 247.673682 
L 127.036984 247.470139 
L 128.122785 246.526435 
L 129.208586 246.396907 
L 130.294387 247.285099 
L 131.380189 247.081555 
L 132.46599 246.285883 
L 133.551791 245.656747 
L 134.637592 246.045331 
L 135.723393 246.230371 
L 136.809194 245.804779 
L 137.894995 245.638243 
L 138.980797 257.554815 
L 140.066598 252.94732 
L 141.152399 251.337473 
L 142.2382 255.759927 
L 144.409802 259.349702 
L 145.495604 254.686696 
L 146.581405 251.300465 
L 147.667206 249.579594 
L 148.753007 249.487074 
L 149.838808 255.204808 
L 150.924609 252.188657 
L 152.01041 252.706768 
L 153.096212 254.020552 
L 154.182013 250.319753 
L 155.267814 249.28353 
L 156.353615 251.059913 
L 157.439416 251.652041 
L 158.525217 254.205592 
L 159.611019 250.467785 
L 160.69682 255.482367 
L 161.782621 251.911097 
L 162.868422 245.619739 
L 163.954223 247.914234 
L 165.040024 253.335904 
L 166.125825 250.819361 
L 167.211627 250.967393 
L 168.297428 251.504009 
L 169.383229 248.043762 
L 170.46903 254.2426 
L 171.554831 251.189441 
L 172.640632 249.524082 
L 173.726434 247.007539 
L 174.812235 259.812302 
L 175.898036 255.371343 
L 176.983837 242.029965 
L 178.069638 248.802426 
L 179.155439 251.781569 
L 180.24124 250.116209 
L 181.327042 244.028396 
L 182.412843 252.484721 
L 183.498644 248.284314 
L 184.584445 245.527219 
L 185.670246 250.819361 
L 186.756047 246.841003 
L 187.841849 245.675251 
L 188.92765 247.340611 
L 190.013451 243.695324 
L 191.099252 244.620524 
L 192.185053 242.899652 
L 193.270854 245.693755 
L 194.356656 245.971315 
L 195.442457 245.175643 
L 196.528258 244.083908 
L 197.614059 243.21422 
L 198.69986 247.396123 
L 199.785661 246.193363 
L 200.871462 241.863429 
L 201.957264 244.41698 
L 203.043065 244.5095 
L 204.128866 239.55043 
L 205.214667 242.6591 
L 206.300468 239.716965 
L 207.386269 241.955949 
L 208.472071 242.918156 
L 209.557872 241.215789 
L 210.643673 240.549645 
L 211.729474 240.438621 
L 212.815275 240.179565 
L 213.901076 240.919725 
L 214.986877 240.142557 
L 216.072679 240.642165 
L 217.15848 240.605157 
L 218.244281 240.975237 
L 219.330082 239.772477 
L 220.415883 239.531926 
L 221.501684 240.031533 
L 223.673287 240.031533 
L 224.759088 239.716965 
L 225.844889 255.593391 
L 226.93069 260.348918 
L 228.016491 259.812302 
L 229.102292 251.781569 
L 230.188094 258.257966 
L 231.273895 255.722919 
L 232.359696 249.524082 
L 233.445497 257.554815 
L 234.531298 252.429209 
L 235.617099 256.092999 
L 236.702901 255.315831 
L 237.788702 249.986682 
L 238.874503 249.727626 
L 239.960304 246.785491 
L 241.046105 255.463863 
L 242.131906 250.726841 
L 243.217708 256.648119 
L 244.303509 251.318969 
L 245.38931 253.465432 
L 246.475111 259.497734 
L 247.560912 251.300465 
L 248.646713 252.170153 
L 249.732514 253.22488 
L 250.818316 249.949674 
L 251.904117 254.390632 
L 254.075719 250.190225 
L 255.16152 250.356761 
L 256.247321 252.76228 
L 257.333123 250.079202 
L 258.418924 253.40992 
L 259.504725 255.26032 
L 260.590526 250.578809 
L 261.676327 252.595745 
L 262.762128 250.171721 
L 263.847929 251.578025 
L 264.933731 253.761496 
L 266.019532 248.654394 
L 267.105333 251.392985 
L 268.191134 258.072926 
L 269.276935 253.465432 
L 270.362736 257.480799 
L 271.448538 245.915803 
L 272.534339 242.085477 
L 274.705941 251.207945 
L 275.791742 246.878011 
L 276.877543 248.469354 
L 277.963344 253.3174 
L 279.049146 249.672114 
L 280.134947 251.429993 
L 281.220748 252.651257 
L 282.306549 253.465432 
L 283.39235 246.470923 
L 284.478151 250.689833 
L 285.563953 248.783922 
L 286.649754 249.709122 
L 287.735555 249.079986 
L 288.821356 246.729979 
L 289.907157 249.431562 
L 290.992958 256.426071 
L 292.07876 250.227233 
L 293.164561 249.542586 
L 294.250362 251.059913 
L 295.336163 248.857938 
L 296.421964 245.379187 
L 297.507765 249.949674 
L 298.593566 250.264241 
L 299.679368 250.375265 
L 300.765169 250.060698 
L 301.85097 246.119347 
L 302.936771 246.544939 
L 304.022572 250.819361 
L 305.108373 245.601235 
L 306.194175 249.487074 
L 307.279976 250.763849 
L 308.365777 246.063835 
L 309.451578 251.281961 
L 310.537379 249.024474 
L 311.62318 252.244169 
L 312.708981 244.342964 
L 313.794783 247.89573 
L 314.880584 249.09849 
L 315.966385 245.656747 
L 317.052186 252.484721 
L 318.137987 250.005186 
L 319.223788 251.374481 
L 320.30959 248.82093 
L 321.395391 249.505578 
L 322.481192 251.726057 
L 323.566993 250.171721 
L 324.652794 247.414627 
L 325.738595 247.340611 
L 326.824396 245.212651 
L 327.910198 246.045331 
L 328.995999 242.363036 
L 330.0818 240.864213 
L 331.167601 244.23194 
L 332.253402 240.124053 
L 333.339203 243.454772 
L 334.425005 245.101627 
L 335.510806 244.305956 
L 336.596607 242.56658 
L 337.682408 244.861076 
L 338.768209 245.434699 
L 339.85401 248.228802 
L 340.939811 241.548861 
L 342.025613 239.198854 
L 343.111414 244.60202 
L 344.197215 245.564227 
L 345.283016 244.657532 
L 346.368817 245.342179 
L 347.454618 243.602804 
L 348.54042 244.972099 
L 349.626221 244.990603 
L 350.712022 243.750836 
L 351.797823 243.991388 
L 352.883624 239.976021 
L 353.969425 241.733901 
L 355.055227 240.198069 
L 356.141028 240.327597 
L 357.226829 241.678389 
L 358.31263 239.883501 
L 359.398431 241.974453 
L 360.484232 241.197285 
L 361.570033 241.086261 
L 362.655835 240.531141 
L 363.741636 239.661454 
L 364.827437 239.735469 
L 365.913238 238.569718 
L 366.999039 238.828774 
L 368.08484 241.012245 
L 369.170642 239.64295 
L 370.256443 244.065404 
L 371.342244 243.49178 
L 372.428045 243.67682 
L 373.513846 245.564227 
L 374.599647 242.807132 
L 375.685448 245.231155 
L 376.77125 243.30674 
L 377.857051 244.102412 
L 378.942852 245.767771 
L 380.028653 243.417764 
L 381.114454 242.992172 
L 382.200255 244.5095 
L 383.286057 241.770909 
L 384.371858 244.731548 
L 385.457659 248.025258 
L 386.54346 244.250444 
L 387.629261 244.361468 
L 388.715062 245.027611 
L 389.800863 243.380756 
L 390.886665 248.08077 
L 391.972466 243.824852 
L 393.058267 240.438621 
L 394.144068 244.102412 
L 395.229869 243.066188 
L 396.31567 245.675251 
L 397.401472 246.822499 
L 398.487273 247.266595 
L 398.487273 247.266595 
" clip-path="url(#p07334877f9)" style="fill: none; stroke: #2ca02c; stroke-width: 1.5; stroke-linecap: square"/>
   </g>
   <g id="line2d_18">
    <path d="M 368.08484 143.673841 
L 369.170642 146.276428 
L 370.256443 147.430151 
L 371.342244 152.447509 
L 372.428045 155.023265 
L 373.513846 152.957294 
L 374.599647 154.030526 
L 375.685448 151.240124 
L 376.77125 158.135637 
L 377.857051 163.072502 
L 378.942852 156.445297 
L 380.028653 155.372065 
L 381.114454 155.398896 
L 382.200255 161.033362 
L 383.286057 158.994222 
L 384.371858 161.543147 
L 385.457659 160.389423 
L 386.54346 167.875213 
L 387.629261 169.163091 
L 388.715062 169.028937 
L 389.800863 166.667828 
L 390.886665 176.004942 
L 391.972466 171.121739 
L 393.058267 178.500206 
L 394.144068 173.482848 
L 395.229869 180.244207 
L 396.31567 184.08101 
L 398.487273 174.421926 
L 398.487273 174.421926 
" clip-path="url(#p07334877f9)" style="fill: none; stroke: #d62728; stroke-width: 1.5; stroke-linecap: square"/>
   </g>
   <g id="line2d_19">
    <path d="M 368.08484 239.235862 
L 369.170642 242.603588 
L 370.256443 242.529572 
L 371.342244 247.137067 
L 372.428045 246.915019 
L 373.513846 247.877226 
L 374.599647 246.952027 
L 375.685448 246.452419 
L 376.77125 246.896515 
L 377.857051 255.186304 
L 378.942852 250.856369 
L 380.028653 250.634321 
L 381.114454 248.26581 
L 382.200255 249.542586 
L 383.286057 248.432346 
L 384.371858 244.953595 
L 385.457659 249.487074 
L 386.54346 252.466217 
L 387.629261 253.243384 
L 388.715062 254.483152 
L 389.800863 253.983544 
L 390.886665 254.964256 
L 391.972466 257.351271 
L 393.058267 259.29419 
L 394.144068 254.723704 
L 395.229869 261.015061 
L 396.31567 263.901684 
L 397.401472 259.608758 
L 398.487273 255.833943 
L 398.487273 255.833943 
" clip-path="url(#p07334877f9)" style="fill: none; stroke: #9467bd; stroke-width: 1.5; stroke-linecap: square"/>
   </g>
   <g id="patch_3">
    <path d="M 57.6 307.584 
L 57.6 41.472 
" style="fill: none; stroke: #000000; stroke-width: 0.8; stroke-linejoin: miter; stroke-linecap: square"/>
   </g>
   <g id="patch_4">
    <path d="M 414.72 307.584 
L 414.72 41.472 
" style="fill: none; stroke: #000000; stroke-width: 0.8; stroke-linejoin: miter; stroke-linecap: square"/>
   </g>
   <g id="patch_5">
    <path d="M 57.6 307.584 
L 414.72 307.584 
" style="fill: none; stroke: #000000; stroke-width: 0.8; stroke-linejoin: miter; stroke-linecap: square"/>
   </g>
   <g id="patch_6">
    <path d="M 57.6 41.472 
L 414.72 41.472 
" style="fill: none; stroke: #000000; stroke-width: 0.8; stroke-linejoin: miter; stroke-linecap: square"/>
   </g>
   <g id="text_17">
    <!-- Learning Curves -->
    <g transform="translate(187.37625 35.472) scale(0.12 -0.12)">
     <defs>
      <path id="DejaVuSans-4c" d="M 628 4666 
L 1259 4666 
L 1259 531 
L 3531 531 
L 3531 0 
L 628 0 
L 628 4666 
z
" transform="scale(0.015625)"/>
      <path id="DejaVuSans-65" d="M 3597 1894 
L 3597 1613 
L 953 1613 
Q 991 1019 1311 708 
Q 1631 397 2203 397 
Q 2534 397 2845 478 
Q 3156 559 3463 722 
L 3463 178 
Q 3153 47 2828 -22 
Q 2503 -91 2169 -91 
Q 1331 -91 842 396 
Q 353 884 353 1716 
Q 353 2575 817 3079 
Q 1281 3584 2069 3584 
Q 2775 3584 3186 3129 
Q 3597 2675 3597 1894 
z
M 3022 2063 
Q 3016 2534 2758 2815 
Q 2500 3097 2075 3097 
Q 1594 3097 1305 2825 
Q 1016 2553 972 2059 
L 3022 2063 
z
" transform="scale(0.015625)"/>
      <path id="DejaVuSans-6e" d="M 3513 2113 
L 3513 0 
L 2938 0 
L 2938 2094 
Q 2938 2591 2744 2837 
Q 2550 3084 2163 3084 
Q 1697 3084 1428 2787 
Q 1159 2491 1159 1978 
L 1159 0 
L 581 0 
L 581 3500 
L 1159 3500 
L 1159 2956 
Q 1366 3272 1645 3428 
Q 1925 3584 2291 3584 
Q 2894 3584 3203 3211 
Q 3513 2838 3513 2113 
z
" transform="scale(0.015625)"/>
      <path id="DejaVuSans-69" d="M 603 3500 
L 1178 3500 
L 1178 0 
L 603 0 
L 603 3500 
z
M 603 4863 
L 1178 4863 
L 1178 4134 
L 603 4134 
L 603 4863 
z
" transform="scale(0.015625)"/>
      <path id="DejaVuSans-67" d="M 2906 1791 
Q 2906 2416 2648 2759 
Q 2391 3103 1925 3103 
Q 1463 3103 1205 2759 
Q 947 2416 947 1791 
Q 947 1169 1205 825 
Q 1463 481 1925 481 
Q 2391 481 2648 825 
Q 2906 1169 2906 1791 
z
M 3481 434 
Q 3481 -459 3084 -895 
Q 2688 -1331 1869 -1331 
Q 1566 -1331 1297 -1286 
Q 1028 -1241 775 -1147 
L 775 -588 
Q 1028 -725 1275 -790 
Q 1522 -856 1778 -856 
Q 2344 -856 2625 -561 
Q 2906 -266 2906 331 
L 2906 616 
Q 2728 306 2450 153 
Q 2172 0 1784 0 
Q 1141 0 747 490 
Q 353 981 353 1791 
Q 353 2603 747 3093 
Q 1141 3584 1784 3584 
Q 2172 3584 2450 3431 
Q 2728 3278 2906 2969 
L 2906 3500 
L 3481 3500 
L 3481 434 
z
" transform="scale(0.015625)"/>
      <path id="DejaVuSans-20" transform="scale(0.015625)"/>
      <path id="DejaVuSans-43" d="M 4122 4306 
L 4122 3641 
Q 3803 3938 3442 4084 
Q 3081 4231 2675 4231 
Q 1875 4231 1450 3742 
Q 1025 3253 1025 2328 
Q 1025 1406 1450 917 
Q 1875 428 2675 428 
Q 3081 428 3442 575 
Q 3803 722 4122 1019 
L 4122 359 
Q 3791 134 3420 21 
Q 3050 -91 2638 -91 
Q 1578 -91 968 557 
Q 359 1206 359 2328 
Q 359 3453 968 4101 
Q 1578 4750 2638 4750 
Q 3056 4750 3426 4639 
Q 3797 4528 4122 4306 
z
" transform="scale(0.015625)"/>
      <path id="DejaVuSans-76" d="M 191 3500 
L 800 3500 
L 1894 563 
L 2988 3500 
L 3597 3500 
L 2284 0 
L 1503 0 
L 191 3500 
z
" transform="scale(0.015625)"/>
     </defs>
     <use xlink:href="#DejaVuSans-4c"/>
     <use xlink:href="#DejaVuSans-65" x="53.962891"/>
     <use xlink:href="#DejaVuSans-61" x="115.486328"/>
     <use xlink:href="#DejaVuSans-72" x="176.765625"/>
     <use xlink:href="#DejaVuSans-6e" x="216.128906"/>
     <use xlink:href="#DejaVuSans-69" x="279.507812"/>
     <use xlink:href="#DejaVuSans-6e" x="307.291016"/>
     <use xlink:href="#DejaVuSans-67" x="370.669922"/>
     <use xlink:href="#DejaVuSans-20" x="434.146484"/>
     <use xlink:href="#DejaVuSans-43" x="465.933594"/>
     <use xlink:href="#DejaVuSans-75" x="535.757812"/>
     <use xlink:href="#DejaVuSans-72" x="599.136719"/>
     <use xlink:href="#DejaVuSans-76" x="640.25"/>
     <use xlink:href="#DejaVuSans-65" x="699.429688"/>
     <use xlink:href="#DejaVuSans-73" x="760.953125"/>
    </g>
   </g>
   <g id="legend_1">
    <g id="patch_7">
     <path d="M 64.6 122.862625 
L 258.13125 122.862625 
Q 260.13125 122.862625 260.13125 120.862625 
L 260.13125 48.472 
Q 260.13125 46.472 258.13125 46.472 
L 64.6 46.472 
Q 62.6 46.472 62.6 48.472 
L 62.6 120.862625 
Q 62.6 122.862625 64.6 122.862625 
z
" style="fill: #ffffff; opacity: 0.8; stroke: #cccccc; stroke-linejoin: miter"/>
    </g>
    <g id="line2d_20">
     <path d="M 66.6 54.570438 
L 76.6 54.570438 
L 86.6 54.570438 
" style="fill: none; stroke: #1f77b4; stroke-width: 1.5; stroke-linecap: square"/>
    </g>
    <g id="text_18">
     <!-- Train Accuracy -->
     <g transform="translate(94.6 58.070438) scale(0.1 -0.1)">
      <defs>
       <path id="DejaVuSans-54" d="M -19 4666 
L 3928 4666 
L 3928 4134 
L 2272 4134 
L 2272 0 
L 1638 0 
L 1638 4134 
L -19 4134 
L -19 4666 
z
" transform="scale(0.015625)"/>
      </defs>
      <use xlink:href="#DejaVuSans-54"/>
      <use xlink:href="#DejaVuSans-72" x="46.333984"/>
      <use xlink:href="#DejaVuSans-61" x="87.447266"/>
      <use xlink:href="#DejaVuSans-69" x="148.726562"/>
      <use xlink:href="#DejaVuSans-6e" x="176.509766"/>
      <use xlink:href="#DejaVuSans-20" x="239.888672"/>
      <use xlink:href="#DejaVuSans-41" x="271.675781"/>
      <use xlink:href="#DejaVuSans-63" x="338.333984"/>
      <use xlink:href="#DejaVuSans-63" x="393.314453"/>
      <use xlink:href="#DejaVuSans-75" x="448.294922"/>
      <use xlink:href="#DejaVuSans-72" x="511.673828"/>
      <use xlink:href="#DejaVuSans-61" x="552.787109"/>
      <use xlink:href="#DejaVuSans-63" x="614.066406"/>
      <use xlink:href="#DejaVuSans-79" x="669.046875"/>
     </g>
    </g>
    <g id="line2d_21">
     <path d="M 66.6 69.248563 
L 76.6 69.248563 
L 86.6 69.248563 
" style="fill: none; stroke: #ff7f0e; stroke-width: 1.5; stroke-linecap: square"/>
    </g>
    <g id="text_19">
     <!-- Validation Accuracy -->
     <g transform="translate(94.6 72.748563) scale(0.1 -0.1)">
      <defs>
       <path id="DejaVuSans-56" d="M 1831 0 
L 50 4666 
L 709 4666 
L 2188 738 
L 3669 4666 
L 4325 4666 
L 2547 0 
L 1831 0 
z
" transform="scale(0.015625)"/>
       <path id="DejaVuSans-6c" d="M 603 4863 
L 1178 4863 
L 1178 0 
L 603 0 
L 603 4863 
z
" transform="scale(0.015625)"/>
       <path id="DejaVuSans-64" d="M 2906 2969 
L 2906 4863 
L 3481 4863 
L 3481 0 
L 2906 0 
L 2906 525 
Q 2725 213 2448 61 
Q 2172 -91 1784 -91 
Q 1150 -91 751 415 
Q 353 922 353 1747 
Q 353 2572 751 3078 
Q 1150 3584 1784 3584 
Q 2172 3584 2448 3432 
Q 2725 3281 2906 2969 
z
M 947 1747 
Q 947 1113 1208 752 
Q 1469 391 1925 391 
Q 2381 391 2643 752 
Q 2906 1113 2906 1747 
Q 2906 2381 2643 2742 
Q 2381 3103 1925 3103 
Q 1469 3103 1208 2742 
Q 947 2381 947 1747 
z
" transform="scale(0.015625)"/>
       <path id="DejaVuSans-74" d="M 1172 4494 
L 1172 3500 
L 2356 3500 
L 2356 3053 
L 1172 3053 
L 1172 1153 
Q 1172 725 1289 603 
Q 1406 481 1766 481 
L 2356 481 
L 2356 0 
L 1766 0 
Q 1100 0 847 248 
Q 594 497 594 1153 
L 594 3053 
L 172 3053 
L 172 3500 
L 594 3500 
L 594 4494 
L 1172 4494 
z
" transform="scale(0.015625)"/>
      </defs>
      <use xlink:href="#DejaVuSans-56"/>
      <use xlink:href="#DejaVuSans-61" x="60.658203"/>
      <use xlink:href="#DejaVuSans-6c" x="121.9375"/>
      <use xlink:href="#DejaVuSans-69" x="149.720703"/>
      <use xlink:href="#DejaVuSans-64" x="177.503906"/>
      <use xlink:href="#DejaVuSans-61" x="240.980469"/>
      <use xlink:href="#DejaVuSans-74" x="302.259766"/>
      <use xlink:href="#DejaVuSans-69" x="341.46875"/>
      <use xlink:href="#DejaVuSans-6f" x="369.251953"/>
      <use xlink:href="#DejaVuSans-6e" x="430.433594"/>
      <use xlink:href="#DejaVuSans-20" x="493.8125"/>
      <use xlink:href="#DejaVuSans-41" x="525.599609"/>
      <use xlink:href="#DejaVuSans-63" x="592.257812"/>
      <use xlink:href="#DejaVuSans-63" x="647.238281"/>
      <use xlink:href="#DejaVuSans-75" x="702.21875"/>
      <use xlink:href="#DejaVuSans-72" x="765.597656"/>
      <use xlink:href="#DejaVuSans-61" x="806.710938"/>
      <use xlink:href="#DejaVuSans-63" x="867.990234"/>
      <use xlink:href="#DejaVuSans-79" x="922.970703"/>
     </g>
    </g>
    <g id="line2d_22">
     <path d="M 66.6 83.926688 
L 76.6 83.926688 
L 86.6 83.926688 
" style="fill: none; stroke: #2ca02c; stroke-width: 1.5; stroke-linecap: square"/>
    </g>
    <g id="text_20">
     <!-- Robust Validation Accuracy -->
     <g transform="translate(94.6 87.426688) scale(0.1 -0.1)">
      <defs>
       <path id="DejaVuSans-52" d="M 2841 2188 
Q 3044 2119 3236 1894 
Q 3428 1669 3622 1275 
L 4263 0 
L 3584 0 
L 2988 1197 
Q 2756 1666 2539 1819 
Q 2322 1972 1947 1972 
L 1259 1972 
L 1259 0 
L 628 0 
L 628 4666 
L 2053 4666 
Q 2853 4666 3247 4331 
Q 3641 3997 3641 3322 
Q 3641 2881 3436 2590 
Q 3231 2300 2841 2188 
z
M 1259 4147 
L 1259 2491 
L 2053 2491 
Q 2509 2491 2742 2702 
Q 2975 2913 2975 3322 
Q 2975 3731 2742 3939 
Q 2509 4147 2053 4147 
L 1259 4147 
z
" transform="scale(0.015625)"/>
       <path id="DejaVuSans-62" d="M 3116 1747 
Q 3116 2381 2855 2742 
Q 2594 3103 2138 3103 
Q 1681 3103 1420 2742 
Q 1159 2381 1159 1747 
Q 1159 1113 1420 752 
Q 1681 391 2138 391 
Q 2594 391 2855 752 
Q 3116 1113 3116 1747 
z
M 1159 2969 
Q 1341 3281 1617 3432 
Q 1894 3584 2278 3584 
Q 2916 3584 3314 3078 
Q 3713 2572 3713 1747 
Q 3713 922 3314 415 
Q 2916 -91 2278 -91 
Q 1894 -91 1617 61 
Q 1341 213 1159 525 
L 1159 0 
L 581 0 
L 581 4863 
L 1159 4863 
L 1159 2969 
z
" transform="scale(0.015625)"/>
      </defs>
      <use xlink:href="#DejaVuSans-52"/>
      <use xlink:href="#DejaVuSans-6f" x="64.982422"/>
      <use xlink:href="#DejaVuSans-62" x="126.164062"/>
      <use xlink:href="#DejaVuSans-75" x="189.640625"/>
      <use xlink:href="#DejaVuSans-73" x="253.019531"/>
      <use xlink:href="#DejaVuSans-74" x="305.119141"/>
      <use xlink:href="#DejaVuSans-20" x="344.328125"/>
      <use xlink:href="#DejaVuSans-56" x="376.115234"/>
      <use xlink:href="#DejaVuSans-61" x="436.773438"/>
      <use xlink:href="#DejaVuSans-6c" x="498.052734"/>
      <use xlink:href="#DejaVuSans-69" x="525.835938"/>
      <use xlink:href="#DejaVuSans-64" x="553.619141"/>
      <use xlink:href="#DejaVuSans-61" x="617.095703"/>
      <use xlink:href="#DejaVuSans-74" x="678.375"/>
      <use xlink:href="#DejaVuSans-69" x="717.583984"/>
      <use xlink:href="#DejaVuSans-6f" x="745.367188"/>
      <use xlink:href="#DejaVuSans-6e" x="806.548828"/>
      <use xlink:href="#DejaVuSans-20" x="869.927734"/>
      <use xlink:href="#DejaVuSans-41" x="901.714844"/>
      <use xlink:href="#DejaVuSans-63" x="968.373047"/>
      <use xlink:href="#DejaVuSans-63" x="1023.353516"/>
      <use xlink:href="#DejaVuSans-75" x="1078.333984"/>
      <use xlink:href="#DejaVuSans-72" x="1141.712891"/>
      <use xlink:href="#DejaVuSans-61" x="1182.826172"/>
      <use xlink:href="#DejaVuSans-63" x="1244.105469"/>
      <use xlink:href="#DejaVuSans-79" x="1299.085938"/>
     </g>
    </g>
    <g id="line2d_23">
     <path d="M 66.6 98.604813 
L 76.6 98.604813 
L 86.6 98.604813 
" style="fill: none; stroke: #d62728; stroke-width: 1.5; stroke-linecap: square"/>
    </g>
    <g id="text_21">
     <!-- SWA Validation Accuracy -->
     <g transform="translate(94.6 102.104813) scale(0.1 -0.1)">
      <defs>
       <path id="DejaVuSans-53" d="M 3425 4513 
L 3425 3897 
Q 3066 4069 2747 4153 
Q 2428 4238 2131 4238 
Q 1616 4238 1336 4038 
Q 1056 3838 1056 3469 
Q 1056 3159 1242 3001 
Q 1428 2844 1947 2747 
L 2328 2669 
Q 3034 2534 3370 2195 
Q 3706 1856 3706 1288 
Q 3706 609 3251 259 
Q 2797 -91 1919 -91 
Q 1588 -91 1214 -16 
Q 841 59 441 206 
L 441 856 
Q 825 641 1194 531 
Q 1563 422 1919 422 
Q 2459 422 2753 634 
Q 3047 847 3047 1241 
Q 3047 1584 2836 1778 
Q 2625 1972 2144 2069 
L 1759 2144 
Q 1053 2284 737 2584 
Q 422 2884 422 3419 
Q 422 4038 858 4394 
Q 1294 4750 2059 4750 
Q 2388 4750 2728 4690 
Q 3069 4631 3425 4513 
z
" transform="scale(0.015625)"/>
       <path id="DejaVuSans-57" d="M 213 4666 
L 850 4666 
L 1831 722 
L 2809 4666 
L 3519 4666 
L 4500 722 
L 5478 4666 
L 6119 4666 
L 4947 0 
L 4153 0 
L 3169 4050 
L 2175 0 
L 1381 0 
L 213 4666 
z
" transform="scale(0.015625)"/>
      </defs>
      <use xlink:href="#DejaVuSans-53"/>
      <use xlink:href="#DejaVuSans-57" x="63.476562"/>
      <use xlink:href="#DejaVuSans-41" x="156.853516"/>
      <use xlink:href="#DejaVuSans-20" x="225.261719"/>
      <use xlink:href="#DejaVuSans-56" x="257.048828"/>
      <use xlink:href="#DejaVuSans-61" x="317.707031"/>
      <use xlink:href="#DejaVuSans-6c" x="378.986328"/>
      <use xlink:href="#DejaVuSans-69" x="406.769531"/>
      <use xlink:href="#DejaVuSans-64" x="434.552734"/>
      <use xlink:href="#DejaVuSans-61" x="498.029297"/>
      <use xlink:href="#DejaVuSans-74" x="559.308594"/>
      <use xlink:href="#DejaVuSans-69" x="598.517578"/>
      <use xlink:href="#DejaVuSans-6f" x="626.300781"/>
      <use xlink:href="#DejaVuSans-6e" x="687.482422"/>
      <use xlink:href="#DejaVuSans-20" x="750.861328"/>
      <use xlink:href="#DejaVuSans-41" x="782.648438"/>
      <use xlink:href="#DejaVuSans-63" x="849.306641"/>
      <use xlink:href="#DejaVuSans-63" x="904.287109"/>
      <use xlink:href="#DejaVuSans-75" x="959.267578"/>
      <use xlink:href="#DejaVuSans-72" x="1022.646484"/>
      <use xlink:href="#DejaVuSans-61" x="1063.759766"/>
      <use xlink:href="#DejaVuSans-63" x="1125.039062"/>
      <use xlink:href="#DejaVuSans-79" x="1180.019531"/>
     </g>
    </g>
    <g id="line2d_24">
     <path d="M 66.6 113.282938 
L 76.6 113.282938 
L 86.6 113.282938 
" style="fill: none; stroke: #9467bd; stroke-width: 1.5; stroke-linecap: square"/>
    </g>
    <g id="text_22">
     <!-- SWA Robust Validation Accuracy -->
     <g transform="translate(94.6 116.782938) scale(0.1 -0.1)">
      <use xlink:href="#DejaVuSans-53"/>
      <use xlink:href="#DejaVuSans-57" x="63.476562"/>
      <use xlink:href="#DejaVuSans-41" x="156.853516"/>
      <use xlink:href="#DejaVuSans-20" x="225.261719"/>
      <use xlink:href="#DejaVuSans-52" x="257.048828"/>
      <use xlink:href="#DejaVuSans-6f" x="322.03125"/>
      <use xlink:href="#DejaVuSans-62" x="383.212891"/>
      <use xlink:href="#DejaVuSans-75" x="446.689453"/>
      <use xlink:href="#DejaVuSans-73" x="510.068359"/>
      <use xlink:href="#DejaVuSans-74" x="562.167969"/>
      <use xlink:href="#DejaVuSans-20" x="601.376953"/>
      <use xlink:href="#DejaVuSans-56" x="633.164062"/>
      <use xlink:href="#DejaVuSans-61" x="693.822266"/>
      <use xlink:href="#DejaVuSans-6c" x="755.101562"/>
      <use xlink:href="#DejaVuSans-69" x="782.884766"/>
      <use xlink:href="#DejaVuSans-64" x="810.667969"/>
      <use xlink:href="#DejaVuSans-61" x="874.144531"/>
      <use xlink:href="#DejaVuSans-74" x="935.423828"/>
      <use xlink:href="#DejaVuSans-69" x="974.632812"/>
      <use xlink:href="#DejaVuSans-6f" x="1002.416016"/>
      <use xlink:href="#DejaVuSans-6e" x="1063.597656"/>
      <use xlink:href="#DejaVuSans-20" x="1126.976562"/>
      <use xlink:href="#DejaVuSans-41" x="1158.763672"/>
      <use xlink:href="#DejaVuSans-63" x="1225.421875"/>
      <use xlink:href="#DejaVuSans-63" x="1280.402344"/>
      <use xlink:href="#DejaVuSans-75" x="1335.382812"/>
      <use xlink:href="#DejaVuSans-72" x="1398.761719"/>
      <use xlink:href="#DejaVuSans-61" x="1439.875"/>
      <use xlink:href="#DejaVuSans-63" x="1501.154297"/>
      <use xlink:href="#DejaVuSans-79" x="1556.134766"/>
     </g>
    </g>
   </g>
  </g>
 </g>
 <defs>
  <clipPath id="p07334877f9">
   <rect x="57.6" y="41.472" width="357.12" height="266.112"/>
  </clipPath>
 </defs>
</svg>
