<?xml version="1.0" encoding="utf-8" standalone="no"?>
<!DOCTYPE svg PUBLIC "-//W3C//DTD SVG 1.1//EN"
  "http://www.w3.org/Graphics/SVG/1.1/DTD/svg11.dtd">
<svg xmlns:xlink="http://www.w3.org/1999/xlink" width="460.8pt" height="345.6pt" viewBox="0 0 460.8 345.6" xmlns="http://www.w3.org/2000/svg" version="1.1">
 <metadata>
  <rdf:RDF xmlns:dc="http://purl.org/dc/elements/1.1/" xmlns:cc="http://creativecommons.org/ns#" xmlns:rdf="http://www.w3.org/1999/02/22-rdf-syntax-ns#">
   <cc:Work>
    <dc:type rdf:resource="http://purl.org/dc/dcmitype/StillImage"/>
    <dc:date>2025-10-20T05:13:12.333867</dc:date>
    <dc:format>image/svg+xml</dc:format>
    <dc:creator>
     <cc:Agent>
      <dc:title>Matplotlib v3.9.1, https://matplotlib.org/</dc:title>
     </cc:Agent>
    </dc:creator>
   </cc:Work>
  </rdf:RDF>
 </metadata>
 <defs>
  <style type="text/css">*{stroke-linejoin: round; stroke-linecap: butt}</style>
 </defs>
 <g id="figure_1">
  <g id="patch_1">
   <path d="M 0 345.6 
L 460.8 345.6 
L 460.8 0 
L 0 0 
z
" style="fill: #ffffff"/>
  </g>
  <g id="axes_1">
   <g id="patch_2">
    <path d="M 57.6 307.584 
L 414.72 307.584 
L 414.72 41.472 
L 57.6 41.472 
z
" style="fill: #ffffff"/>
   </g>
   <g id="matplotlib.axis_1">
    <g id="xtick_1">
     <g id="line2d_1">
      <defs>
       <path id="m21b76dc7e0" d="M 0 0 
L 0 3.5 
" style="stroke: #000000; stroke-width: 0.8"/>
      </defs>
      <g>
       <use xlink:href="#m21b76dc7e0" x="73.832727" y="307.584" style="stroke: #000000; stroke-width: 0.8"/>
      </g>
     </g>
     <g id="text_1">
      <!-- 1 -->
      <g transform="translate(70.651477 322.182437) scale(0.1 -0.1)">
       <defs>
        <path id="DejaVuSans-31" d="M 794 531 
L 1825 531 
L 1825 4091 
L 703 3866 
L 703 4441 
L 1819 4666 
L 2450 4666 
L 2450 531 
L 3481 531 
L 3481 0 
L 794 0 
L 794 531 
z
" transform="scale(0.015625)"/>
       </defs>
       <use xlink:href="#DejaVuSans-31"/>
      </g>
     </g>
    </g>
    <g id="xtick_2">
     <g id="line2d_2">
      <g>
       <use xlink:href="#m21b76dc7e0" x="109.664165" y="307.584" style="stroke: #000000; stroke-width: 0.8"/>
      </g>
     </g>
     <g id="text_2">
      <!-- 34 -->
      <g transform="translate(103.301665 322.182437) scale(0.1 -0.1)">
       <defs>
        <path id="DejaVuSans-33" d="M 2597 2516 
Q 3050 2419 3304 2112 
Q 3559 1806 3559 1356 
Q 3559 666 3084 287 
Q 2609 -91 1734 -91 
Q 1441 -91 1130 -33 
Q 819 25 488 141 
L 488 750 
Q 750 597 1062 519 
Q 1375 441 1716 441 
Q 2309 441 2620 675 
Q 2931 909 2931 1356 
Q 2931 1769 2642 2001 
Q 2353 2234 1838 2234 
L 1294 2234 
L 1294 2753 
L 1863 2753 
Q 2328 2753 2575 2939 
Q 2822 3125 2822 3475 
Q 2822 3834 2567 4026 
Q 2313 4219 1838 4219 
Q 1578 4219 1281 4162 
Q 984 4106 628 3988 
L 628 4550 
Q 988 4650 1302 4700 
Q 1616 4750 1894 4750 
Q 2613 4750 3031 4423 
Q 3450 4097 3450 3541 
Q 3450 3153 3228 2886 
Q 3006 2619 2597 2516 
z
" transform="scale(0.015625)"/>
        <path id="DejaVuSans-34" d="M 2419 4116 
L 825 1625 
L 2419 1625 
L 2419 4116 
z
M 2253 4666 
L 3047 4666 
L 3047 1625 
L 3713 1625 
L 3713 1100 
L 3047 1100 
L 3047 0 
L 2419 0 
L 2419 1100 
L 313 1100 
L 313 1709 
L 2253 4666 
z
" transform="scale(0.015625)"/>
       </defs>
       <use xlink:href="#DejaVuSans-33"/>
       <use xlink:href="#DejaVuSans-34" x="63.623047"/>
      </g>
     </g>
    </g>
    <g id="xtick_3">
     <g id="line2d_3">
      <g>
       <use xlink:href="#m21b76dc7e0" x="145.495604" y="307.584" style="stroke: #000000; stroke-width: 0.8"/>
      </g>
     </g>
     <g id="text_3">
      <!-- 67 -->
      <g transform="translate(139.133104 322.182437) scale(0.1 -0.1)">
       <defs>
        <path id="DejaVuSans-36" d="M 2113 2584 
Q 1688 2584 1439 2293 
Q 1191 2003 1191 1497 
Q 1191 994 1439 701 
Q 1688 409 2113 409 
Q 2538 409 2786 701 
Q 3034 994 3034 1497 
Q 3034 2003 2786 2293 
Q 2538 2584 2113 2584 
z
M 3366 4563 
L 3366 3988 
Q 3128 4100 2886 4159 
Q 2644 4219 2406 4219 
Q 1781 4219 1451 3797 
Q 1122 3375 1075 2522 
Q 1259 2794 1537 2939 
Q 1816 3084 2150 3084 
Q 2853 3084 3261 2657 
Q 3669 2231 3669 1497 
Q 3669 778 3244 343 
Q 2819 -91 2113 -91 
Q 1303 -91 875 529 
Q 447 1150 447 2328 
Q 447 3434 972 4092 
Q 1497 4750 2381 4750 
Q 2619 4750 2861 4703 
Q 3103 4656 3366 4563 
z
" transform="scale(0.015625)"/>
        <path id="DejaVuSans-37" d="M 525 4666 
L 3525 4666 
L 3525 4397 
L 1831 0 
L 1172 0 
L 2766 4134 
L 525 4134 
L 525 4666 
z
" transform="scale(0.015625)"/>
       </defs>
       <use xlink:href="#DejaVuSans-36"/>
       <use xlink:href="#DejaVuSans-37" x="63.623047"/>
      </g>
     </g>
    </g>
    <g id="xtick_4">
     <g id="line2d_4">
      <g>
       <use xlink:href="#m21b76dc7e0" x="181.327042" y="307.584" style="stroke: #000000; stroke-width: 0.8"/>
      </g>
     </g>
     <g id="text_4">
      <!-- 100 -->
      <g transform="translate(171.783292 322.182437) scale(0.1 -0.1)">
       <defs>
        <path id="DejaVuSans-30" d="M 2034 4250 
Q 1547 4250 1301 3770 
Q 1056 3291 1056 2328 
Q 1056 1369 1301 889 
Q 1547 409 2034 409 
Q 2525 409 2770 889 
Q 3016 1369 3016 2328 
Q 3016 3291 2770 3770 
Q 2525 4250 2034 4250 
z
M 2034 4750 
Q 2819 4750 3233 4129 
Q 3647 3509 3647 2328 
Q 3647 1150 3233 529 
Q 2819 -91 2034 -91 
Q 1250 -91 836 529 
Q 422 1150 422 2328 
Q 422 3509 836 4129 
Q 1250 4750 2034 4750 
z
" transform="scale(0.015625)"/>
       </defs>
       <use xlink:href="#DejaVuSans-31"/>
       <use xlink:href="#DejaVuSans-30" x="63.623047"/>
       <use xlink:href="#DejaVuSans-30" x="127.246094"/>
      </g>
     </g>
    </g>
    <g id="xtick_5">
     <g id="line2d_5">
      <g>
       <use xlink:href="#m21b76dc7e0" x="217.15848" y="307.584" style="stroke: #000000; stroke-width: 0.8"/>
      </g>
     </g>
     <g id="text_5">
      <!-- 133 -->
      <g transform="translate(207.61473 322.182437) scale(0.1 -0.1)">
       <use xlink:href="#DejaVuSans-31"/>
       <use xlink:href="#DejaVuSans-33" x="63.623047"/>
       <use xlink:href="#DejaVuSans-33" x="127.246094"/>
      </g>
     </g>
    </g>
    <g id="xtick_6">
     <g id="line2d_6">
      <g>
       <use xlink:href="#m21b76dc7e0" x="254.075719" y="307.584" style="stroke: #000000; stroke-width: 0.8"/>
      </g>
     </g>
     <g id="text_6">
      <!-- 167 -->
      <g transform="translate(244.531969 322.182437) scale(0.1 -0.1)">
       <use xlink:href="#DejaVuSans-31"/>
       <use xlink:href="#DejaVuSans-36" x="63.623047"/>
       <use xlink:href="#DejaVuSans-37" x="127.246094"/>
      </g>
     </g>
    </g>
    <g id="xtick_7">
     <g id="line2d_7">
      <g>
       <use xlink:href="#m21b76dc7e0" x="289.907157" y="307.584" style="stroke: #000000; stroke-width: 0.8"/>
      </g>
     </g>
     <g id="text_7">
      <!-- 200 -->
      <g transform="translate(280.363407 322.182437) scale(0.1 -0.1)">
       <defs>
        <path id="DejaVuSans-32" d="M 1228 531 
L 3431 531 
L 3431 0 
L 469 0 
L 469 531 
Q 828 903 1448 1529 
Q 2069 2156 2228 2338 
Q 2531 2678 2651 2914 
Q 2772 3150 2772 3378 
Q 2772 3750 2511 3984 
Q 2250 4219 1831 4219 
Q 1534 4219 1204 4116 
Q 875 4013 500 3803 
L 500 4441 
Q 881 4594 1212 4672 
Q 1544 4750 1819 4750 
Q 2544 4750 2975 4387 
Q 3406 4025 3406 3419 
Q 3406 3131 3298 2873 
Q 3191 2616 2906 2266 
Q 2828 2175 2409 1742 
Q 1991 1309 1228 531 
z
" transform="scale(0.015625)"/>
       </defs>
       <use xlink:href="#DejaVuSans-32"/>
       <use xlink:href="#DejaVuSans-30" x="63.623047"/>
       <use xlink:href="#DejaVuSans-30" x="127.246094"/>
      </g>
     </g>
    </g>
    <g id="xtick_8">
     <g id="line2d_8">
      <g>
       <use xlink:href="#m21b76dc7e0" x="325.738595" y="307.584" style="stroke: #000000; stroke-width: 0.8"/>
      </g>
     </g>
     <g id="text_8">
      <!-- 233 -->
      <g transform="translate(316.194845 322.182437) scale(0.1 -0.1)">
       <use xlink:href="#DejaVuSans-32"/>
       <use xlink:href="#DejaVuSans-33" x="63.623047"/>
       <use xlink:href="#DejaVuSans-33" x="127.246094"/>
      </g>
     </g>
    </g>
    <g id="xtick_9">
     <g id="line2d_9">
      <g>
       <use xlink:href="#m21b76dc7e0" x="361.570033" y="307.584" style="stroke: #000000; stroke-width: 0.8"/>
      </g>
     </g>
     <g id="text_9">
      <!-- 266 -->
      <g transform="translate(352.026283 322.182437) scale(0.1 -0.1)">
       <use xlink:href="#DejaVuSans-32"/>
       <use xlink:href="#DejaVuSans-36" x="63.623047"/>
       <use xlink:href="#DejaVuSans-36" x="127.246094"/>
      </g>
     </g>
    </g>
    <g id="xtick_10">
     <g id="line2d_10">
      <g>
       <use xlink:href="#m21b76dc7e0" x="398.487273" y="307.584" style="stroke: #000000; stroke-width: 0.8"/>
      </g>
     </g>
     <g id="text_10">
      <!-- 300 -->
      <g transform="translate(388.943523 322.182437) scale(0.1 -0.1)">
       <use xlink:href="#DejaVuSans-33"/>
       <use xlink:href="#DejaVuSans-30" x="63.623047"/>
       <use xlink:href="#DejaVuSans-30" x="127.246094"/>
      </g>
     </g>
    </g>
    <g id="text_11">
     <!-- Epochs -->
     <g transform="translate(218.244375 335.860562) scale(0.1 -0.1)">
      <defs>
       <path id="DejaVuSans-45" d="M 628 4666 
L 3578 4666 
L 3578 4134 
L 1259 4134 
L 1259 2753 
L 3481 2753 
L 3481 2222 
L 1259 2222 
L 1259 531 
L 3634 531 
L 3634 0 
L 628 0 
L 628 4666 
z
" transform="scale(0.015625)"/>
       <path id="DejaVuSans-70" d="M 1159 525 
L 1159 -1331 
L 581 -1331 
L 581 3500 
L 1159 3500 
L 1159 2969 
Q 1341 3281 1617 3432 
Q 1894 3584 2278 3584 
Q 2916 3584 3314 3078 
Q 3713 2572 3713 1747 
Q 3713 922 3314 415 
Q 2916 -91 2278 -91 
Q 1894 -91 1617 61 
Q 1341 213 1159 525 
z
M 3116 1747 
Q 3116 2381 2855 2742 
Q 2594 3103 2138 3103 
Q 1681 3103 1420 2742 
Q 1159 2381 1159 1747 
Q 1159 1113 1420 752 
Q 1681 391 2138 391 
Q 2594 391 2855 752 
Q 3116 1113 3116 1747 
z
" transform="scale(0.015625)"/>
       <path id="DejaVuSans-6f" d="M 1959 3097 
Q 1497 3097 1228 2736 
Q 959 2375 959 1747 
Q 959 1119 1226 758 
Q 1494 397 1959 397 
Q 2419 397 2687 759 
Q 2956 1122 2956 1747 
Q 2956 2369 2687 2733 
Q 2419 3097 1959 3097 
z
M 1959 3584 
Q 2709 3584 3137 3096 
Q 3566 2609 3566 1747 
Q 3566 888 3137 398 
Q 2709 -91 1959 -91 
Q 1206 -91 779 398 
Q 353 888 353 1747 
Q 353 2609 779 3096 
Q 1206 3584 1959 3584 
z
" transform="scale(0.015625)"/>
       <path id="DejaVuSans-63" d="M 3122 3366 
L 3122 2828 
Q 2878 2963 2633 3030 
Q 2388 3097 2138 3097 
Q 1578 3097 1268 2742 
Q 959 2388 959 1747 
Q 959 1106 1268 751 
Q 1578 397 2138 397 
Q 2388 397 2633 464 
Q 2878 531 3122 666 
L 3122 134 
Q 2881 22 2623 -34 
Q 2366 -91 2075 -91 
Q 1284 -91 818 406 
Q 353 903 353 1747 
Q 353 2603 823 3093 
Q 1294 3584 2113 3584 
Q 2378 3584 2631 3529 
Q 2884 3475 3122 3366 
z
" transform="scale(0.015625)"/>
       <path id="DejaVuSans-68" d="M 3513 2113 
L 3513 0 
L 2938 0 
L 2938 2094 
Q 2938 2591 2744 2837 
Q 2550 3084 2163 3084 
Q 1697 3084 1428 2787 
Q 1159 2491 1159 1978 
L 1159 0 
L 581 0 
L 581 4863 
L 1159 4863 
L 1159 2956 
Q 1366 3272 1645 3428 
Q 1925 3584 2291 3584 
Q 2894 3584 3203 3211 
Q 3513 2838 3513 2113 
z
" transform="scale(0.015625)"/>
       <path id="DejaVuSans-73" d="M 2834 3397 
L 2834 2853 
Q 2591 2978 2328 3040 
Q 2066 3103 1784 3103 
Q 1356 3103 1142 2972 
Q 928 2841 928 2578 
Q 928 2378 1081 2264 
Q 1234 2150 1697 2047 
L 1894 2003 
Q 2506 1872 2764 1633 
Q 3022 1394 3022 966 
Q 3022 478 2636 193 
Q 2250 -91 1575 -91 
Q 1294 -91 989 -36 
Q 684 19 347 128 
L 347 722 
Q 666 556 975 473 
Q 1284 391 1588 391 
Q 1994 391 2212 530 
Q 2431 669 2431 922 
Q 2431 1156 2273 1281 
Q 2116 1406 1581 1522 
L 1381 1569 
Q 847 1681 609 1914 
Q 372 2147 372 2553 
Q 372 3047 722 3315 
Q 1072 3584 1716 3584 
Q 2034 3584 2315 3537 
Q 2597 3491 2834 3397 
z
" transform="scale(0.015625)"/>
      </defs>
      <use xlink:href="#DejaVuSans-45"/>
      <use xlink:href="#DejaVuSans-70" x="63.183594"/>
      <use xlink:href="#DejaVuSans-6f" x="126.660156"/>
      <use xlink:href="#DejaVuSans-63" x="187.841797"/>
      <use xlink:href="#DejaVuSans-68" x="242.822266"/>
      <use xlink:href="#DejaVuSans-73" x="306.201172"/>
     </g>
    </g>
   </g>
   <g id="matplotlib.axis_2">
    <g id="ytick_1">
     <g id="line2d_11">
      <defs>
       <path id="mbdf9a202ee" d="M 0 0 
L -3.5 0 
" style="stroke: #000000; stroke-width: 0.8"/>
      </defs>
      <g>
       <use xlink:href="#mbdf9a202ee" x="57.6" y="276.181896" style="stroke: #000000; stroke-width: 0.8"/>
      </g>
     </g>
     <g id="text_12">
      <!-- 10 -->
      <g transform="translate(37.875 279.981115) scale(0.1 -0.1)">
       <use xlink:href="#DejaVuSans-31"/>
       <use xlink:href="#DejaVuSans-30" x="63.623047"/>
      </g>
     </g>
    </g>
    <g id="ytick_2">
     <g id="line2d_12">
      <g>
       <use xlink:href="#mbdf9a202ee" x="57.6" y="240.013919" style="stroke: #000000; stroke-width: 0.8"/>
      </g>
     </g>
     <g id="text_13">
      <!-- 20 -->
      <g transform="translate(37.875 243.813138) scale(0.1 -0.1)">
       <use xlink:href="#DejaVuSans-32"/>
       <use xlink:href="#DejaVuSans-30" x="63.623047"/>
      </g>
     </g>
    </g>
    <g id="ytick_3">
     <g id="line2d_13">
      <g>
       <use xlink:href="#mbdf9a202ee" x="57.6" y="203.845943" style="stroke: #000000; stroke-width: 0.8"/>
      </g>
     </g>
     <g id="text_14">
      <!-- 30 -->
      <g transform="translate(37.875 207.645161) scale(0.1 -0.1)">
       <use xlink:href="#DejaVuSans-33"/>
       <use xlink:href="#DejaVuSans-30" x="63.623047"/>
      </g>
     </g>
    </g>
    <g id="ytick_4">
     <g id="line2d_14">
      <g>
       <use xlink:href="#mbdf9a202ee" x="57.6" y="167.677966" style="stroke: #000000; stroke-width: 0.8"/>
      </g>
     </g>
     <g id="text_15">
      <!-- 40 -->
      <g transform="translate(37.875 171.477185) scale(0.1 -0.1)">
       <use xlink:href="#DejaVuSans-34"/>
       <use xlink:href="#DejaVuSans-30" x="63.623047"/>
      </g>
     </g>
    </g>
    <g id="ytick_5">
     <g id="line2d_15">
      <g>
       <use xlink:href="#mbdf9a202ee" x="57.6" y="131.50999" style="stroke: #000000; stroke-width: 0.8"/>
      </g>
     </g>
     <g id="text_16">
      <!-- 50 -->
      <g transform="translate(37.875 135.309208) scale(0.1 -0.1)">
       <defs>
        <path id="DejaVuSans-35" d="M 691 4666 
L 3169 4666 
L 3169 4134 
L 1269 4134 
L 1269 2991 
Q 1406 3038 1543 3061 
Q 1681 3084 1819 3084 
Q 2600 3084 3056 2656 
Q 3513 2228 3513 1497 
Q 3513 744 3044 326 
Q 2575 -91 1722 -91 
Q 1428 -91 1123 -41 
Q 819 9 494 109 
L 494 744 
Q 775 591 1075 516 
Q 1375 441 1709 441 
Q 2250 441 2565 725 
Q 2881 1009 2881 1497 
Q 2881 1984 2565 2268 
Q 2250 2553 1709 2553 
Q 1456 2553 1204 2497 
Q 953 2441 691 2322 
L 691 4666 
z
" transform="scale(0.015625)"/>
       </defs>
       <use xlink:href="#DejaVuSans-35"/>
       <use xlink:href="#DejaVuSans-30" x="63.623047"/>
      </g>
     </g>
    </g>
    <g id="ytick_6">
     <g id="line2d_16">
      <g>
       <use xlink:href="#mbdf9a202ee" x="57.6" y="95.342013" style="stroke: #000000; stroke-width: 0.8"/>
      </g>
     </g>
     <g id="text_17">
      <!-- 60 -->
      <g transform="translate(37.875 99.141232) scale(0.1 -0.1)">
       <use xlink:href="#DejaVuSans-36"/>
       <use xlink:href="#DejaVuSans-30" x="63.623047"/>
      </g>
     </g>
    </g>
    <g id="ytick_7">
     <g id="line2d_17">
      <g>
       <use xlink:href="#mbdf9a202ee" x="57.6" y="59.174036" style="stroke: #000000; stroke-width: 0.8"/>
      </g>
     </g>
     <g id="text_18">
      <!-- 70 -->
      <g transform="translate(37.875 62.973255) scale(0.1 -0.1)">
       <use xlink:href="#DejaVuSans-37"/>
       <use xlink:href="#DejaVuSans-30" x="63.623047"/>
      </g>
     </g>
    </g>
    <g id="text_19">
     <!-- Accuracy -->
     <g transform="translate(31.795312 197.356125) rotate(-90) scale(0.1 -0.1)">
      <defs>
       <path id="DejaVuSans-41" d="M 2188 4044 
L 1331 1722 
L 3047 1722 
L 2188 4044 
z
M 1831 4666 
L 2547 4666 
L 4325 0 
L 3669 0 
L 3244 1197 
L 1141 1197 
L 716 0 
L 50 0 
L 1831 4666 
z
" transform="scale(0.015625)"/>
       <path id="DejaVuSans-75" d="M 544 1381 
L 544 3500 
L 1119 3500 
L 1119 1403 
Q 1119 906 1312 657 
Q 1506 409 1894 409 
Q 2359 409 2629 706 
Q 2900 1003 2900 1516 
L 2900 3500 
L 3475 3500 
L 3475 0 
L 2900 0 
L 2900 538 
Q 2691 219 2414 64 
Q 2138 -91 1772 -91 
Q 1169 -91 856 284 
Q 544 659 544 1381 
z
M 1991 3584 
L 1991 3584 
z
" transform="scale(0.015625)"/>
       <path id="DejaVuSans-72" d="M 2631 2963 
Q 2534 3019 2420 3045 
Q 2306 3072 2169 3072 
Q 1681 3072 1420 2755 
Q 1159 2438 1159 1844 
L 1159 0 
L 581 0 
L 581 3500 
L 1159 3500 
L 1159 2956 
Q 1341 3275 1631 3429 
Q 1922 3584 2338 3584 
Q 2397 3584 2469 3576 
Q 2541 3569 2628 3553 
L 2631 2963 
z
" transform="scale(0.015625)"/>
       <path id="DejaVuSans-61" d="M 2194 1759 
Q 1497 1759 1228 1600 
Q 959 1441 959 1056 
Q 959 750 1161 570 
Q 1363 391 1709 391 
Q 2188 391 2477 730 
Q 2766 1069 2766 1631 
L 2766 1759 
L 2194 1759 
z
M 3341 1997 
L 3341 0 
L 2766 0 
L 2766 531 
Q 2569 213 2275 61 
Q 1981 -91 1556 -91 
Q 1019 -91 701 211 
Q 384 513 384 1019 
Q 384 1609 779 1909 
Q 1175 2209 1959 2209 
L 2766 2209 
L 2766 2266 
Q 2766 2663 2505 2880 
Q 2244 3097 1772 3097 
Q 1472 3097 1187 3025 
Q 903 2953 641 2809 
L 641 3341 
Q 956 3463 1253 3523 
Q 1550 3584 1831 3584 
Q 2591 3584 2966 3190 
Q 3341 2797 3341 1997 
z
" transform="scale(0.015625)"/>
       <path id="DejaVuSans-79" d="M 2059 -325 
Q 1816 -950 1584 -1140 
Q 1353 -1331 966 -1331 
L 506 -1331 
L 506 -850 
L 844 -850 
Q 1081 -850 1212 -737 
Q 1344 -625 1503 -206 
L 1606 56 
L 191 3500 
L 800 3500 
L 1894 763 
L 2988 3500 
L 3597 3500 
L 2059 -325 
z
" transform="scale(0.015625)"/>
      </defs>
      <use xlink:href="#DejaVuSans-41"/>
      <use xlink:href="#DejaVuSans-63" x="66.658203"/>
      <use xlink:href="#DejaVuSans-63" x="121.638672"/>
      <use xlink:href="#DejaVuSans-75" x="176.619141"/>
      <use xlink:href="#DejaVuSans-72" x="239.998047"/>
      <use xlink:href="#DejaVuSans-61" x="281.111328"/>
      <use xlink:href="#DejaVuSans-63" x="342.390625"/>
      <use xlink:href="#DejaVuSans-79" x="397.371094"/>
     </g>
    </g>
   </g>
   <g id="line2d_18">
    <path d="M 73.832727 295.08545 
L 74.918528 272.168335 
L 76.00433 252.711772 
L 78.175932 227.273388 
L 79.261733 216.487012 
L 81.433335 200.494256 
L 84.690739 180.468771 
L 85.77654 176.9395 
L 86.862341 171.196749 
L 87.948142 166.175187 
L 89.033943 161.805372 
L 90.119745 158.109728 
L 91.205546 155.330942 
L 92.291347 154.146079 
L 93.377148 151.816138 
L 94.462949 153.338087 
L 95.54875 182.026526 
L 96.634552 179.881765 
L 97.720353 176.830996 
L 98.806154 173.417824 
L 99.891955 170.751159 
L 100.977756 166.098872 
L 103.149358 162.512094 
L 104.23516 159.008502 
L 105.320961 155.90312 
L 106.406762 154.566351 
L 107.492563 152.262089 
L 108.578364 148.867001 
L 109.664165 148.098794 
L 110.749967 144.663921 
L 111.835768 143.102549 
L 112.921569 140.515454 
L 114.00737 137.338097 
L 115.093171 136.823427 
L 116.178972 134.015345 
L 117.264773 132.421061 
L 118.350575 129.490008 
L 119.436376 128.051608 
L 120.522177 126.008117 
L 121.607978 124.660136 
L 123.77958 119.866794 
L 124.865382 119.406738 
L 125.951183 116.14945 
L 127.036984 115.32699 
L 128.122785 112.917479 
L 129.208586 110.913774 
L 130.294387 109.326723 
L 131.380189 109.315872 
L 133.551791 107.496985 
L 134.637592 106.787007 
L 135.723393 105.19634 
L 136.809194 104.569549 
L 137.894995 104.96812 
L 138.980797 141.616769 
L 140.066598 146.522593 
L 141.152399 144.406767 
L 142.2382 143.207436 
L 143.324001 142.98645 
L 144.409802 141.576984 
L 145.495604 140.558856 
L 146.581405 138.997484 
L 147.667206 138.091476 
L 148.753007 137.975739 
L 149.838808 135.435662 
L 150.924609 133.917692 
L 152.01041 133.73649 
L 153.096212 132.834099 
L 154.182013 132.779847 
L 155.267814 131.113227 
L 156.353615 131.138544 
L 157.439416 129.040802 
L 158.525217 129.337741 
L 159.611019 127.982888 
L 160.69682 126.069602 
L 161.782621 126.319885 
L 162.868422 126.029818 
L 163.954223 125.26161 
L 165.040024 124.069875 
L 166.125825 123.098765 
L 167.211627 122.859695 
L 168.297428 120.033529 
L 169.383229 120.997405 
L 170.46903 118.446478 
L 171.554831 118.294211 
L 172.640632 117.902873 
L 173.726434 116.957442 
L 174.812235 116.471707 
L 175.898036 115.290822 
L 176.983837 114.790619 
L 178.069638 113.529803 
L 179.155439 113.145699 
L 180.24124 111.247242 
L 181.327042 110.859522 
L 182.412843 109.345168 
L 183.498644 109.577005 
L 184.584445 107.946553 
L 185.670246 106.848493 
L 186.756047 107.286849 
L 187.841849 105.000671 
L 191.099252 101.855866 
L 192.185053 101.41751 
L 193.270854 99.413804 
L 194.356656 98.098374 
L 195.442457 98.28681 
L 196.528258 97.316061 
L 197.614059 95.399158 
L 198.69986 94.953569 
L 199.785661 93.576654 
L 201.957264 91.975498 
L 203.043065 91.21814 
L 204.128866 89.710659 
L 206.300468 88.279492 
L 207.386269 87.667168 
L 208.472071 86.714504 
L 209.557872 86.25083 
L 210.643673 84.631228 
L 211.729474 84.939018 
L 212.815275 83.221762 
L 214.986877 82.873826 
L 216.072679 81.942501 
L 217.15848 82.007965 
L 218.244281 80.707003 
L 219.330082 80.627433 
L 221.501684 80.852036 
L 222.587486 80.065745 
L 223.673287 80.112763 
L 224.759088 81.290392 
L 225.844889 127.663887 
L 226.93069 130.587706 
L 228.016491 131.290812 
L 230.188094 128.837899 
L 231.273895 128.308762 
L 233.445497 126.787175 
L 234.531298 126.884829 
L 235.617099 127.305101 
L 236.702901 125.337924 
L 237.788702 124.595034 
L 238.874503 126.167618 
L 239.960304 122.874162 
L 241.046105 122.515375 
L 242.131906 123.167484 
L 243.217708 123.258266 
L 244.303509 123.232586 
L 245.38931 121.93922 
L 246.475111 121.515331 
L 247.560912 120.606068 
L 248.646713 121.222009 
L 249.732514 120.700105 
L 250.818316 118.917385 
L 251.904117 118.971999 
L 252.989918 118.562577 
L 254.075719 119.000933 
L 255.16152 118.403076 
L 256.247321 118.040673 
L 257.333123 117.478985 
L 258.418924 117.080414 
L 259.504725 116.453623 
L 260.590526 116.837726 
L 261.676327 116.138599 
L 262.762128 116.424688 
L 263.847929 116.290867 
L 264.933731 115.490108 
L 266.019532 114.848488 
L 268.191134 115.171106 
L 269.276935 113.127615 
L 270.362736 112.950031 
L 271.448538 113.703771 
L 272.534339 111.949986 
L 273.62014 112.019067 
L 274.705941 112.598478 
L 275.791742 111.975304 
L 276.877543 112.279838 
L 277.963344 111.544181 
L 279.049146 111.827015 
L 280.134947 111.185757 
L 281.220748 109.942663 
L 282.306549 110.065996 
L 283.39235 110.707254 
L 284.478151 109.548071 
L 285.563953 109.406654 
L 286.649754 107.921235 
L 287.735555 108.558877 
L 288.821356 108.06229 
L 289.907157 107.275998 
L 290.992958 107.301678 
L 292.07876 106.460772 
L 293.164561 106.298016 
L 294.250362 105.815897 
L 295.336163 104.808619 
L 296.421964 104.587633 
L 297.507765 105.337757 
L 298.593566 105.095069 
L 300.765169 104.199912 
L 301.85097 103.845104 
L 302.936771 102.406704 
L 305.108373 102.515208 
L 306.194175 102.297838 
L 309.451578 99.678192 
L 310.537379 99.304938 
L 311.62318 99.747272 
L 313.794783 99.218124 
L 314.880584 98.323191 
L 315.966385 98.971745 
L 317.052186 96.718108 
L 318.137987 95.569551 
L 319.223788 96.721732 
L 320.30959 95.942741 
L 321.395391 94.49708 
L 322.481192 95.308679 
L 323.566993 94.370268 
L 324.652794 93.62751 
L 325.738595 92.649243 
L 326.824396 92.993448 
L 327.910198 91.707208 
L 328.995999 91.547787 
L 330.0818 92.377502 
L 331.167601 90.808652 
L 332.253402 90.055024 
L 333.339203 89.504296 
L 334.425005 89.968067 
L 335.510806 88.761538 
L 336.596607 87.982547 
L 337.682408 87.609357 
L 338.768209 88.058635 
L 339.85401 86.891961 
L 340.939811 87.02602 
L 342.025613 85.304995 
L 343.111414 84.468033 
L 344.197215 84.587599 
L 345.283016 84.26151 
L 346.368817 83.011502 
L 347.454618 82.978893 
L 348.54042 83.511505 
L 349.626221 81.989757 
L 350.712022 81.899176 
L 351.797823 80.870185 
L 352.883624 80.92091 
L 353.969425 78.866549 
L 355.055227 80.102064 
L 356.141028 78.268719 
L 357.226829 77.703498 
L 358.31263 78.496982 
L 359.398431 77.56944 
L 360.484232 76.337548 
L 361.570033 77.058567 
L 362.655835 76.18175 
L 363.741636 74.562175 
L 364.827437 74.435362 
L 365.913238 73.583908 
L 366.999039 73.605647 
L 369.170642 75.304933 
L 371.342244 79.583945 
L 372.428045 82.025989 
L 373.513846 82.283237 
L 374.599647 81.464391 
L 375.685448 81.145549 
L 376.77125 82.413672 
L 377.857051 82.649181 
L 378.942852 82.431788 
L 380.028653 81.283231 
L 381.114454 82.391933 
L 382.200255 83.080343 
L 383.286057 83.000633 
L 384.371858 83.352084 
L 385.457659 82.775993 
L 386.54346 82.341208 
L 387.629261 82.98614 
L 388.715062 84.018755 
L 389.800863 82.112946 
L 391.972466 83.3702 
L 393.058267 83.634694 
L 394.144068 83.138315 
L 395.229869 83.17817 
L 396.31567 83.747014 
L 397.401472 83.297736 
L 398.487273 84.323104 
L 398.487273 84.323104 
" clip-path="url(#p08de7788e4)" style="fill: none; stroke: #1f77b4; stroke-width: 1.5; stroke-linecap: square"/>
   </g>
   <g id="line2d_19">
    <path d="M 73.832727 280.558221 
L 74.918528 252.708879 
L 77.090131 218.566309 
L 78.175932 211.007202 
L 79.261733 192.199854 
L 80.347534 186.593818 
L 81.433335 176.177441 
L 82.519137 170.28206 
L 83.604938 162.469777 
L 84.690739 155.887206 
L 85.77654 147.243059 
L 86.862341 141.600855 
L 87.948142 140.226472 
L 89.033943 140.298808 
L 90.119745 134.041748 
L 91.205546 131.32915 
L 92.291347 127.820856 
L 93.377148 125.397601 
L 94.462949 125.506105 
L 95.54875 161.674082 
L 96.634552 165.037704 
L 97.720353 152.451248 
L 98.806154 150.353505 
L 99.891955 147.026051 
L 100.977756 145.868676 
L 102.063557 141.311511 
L 103.149358 135.886315 
L 104.23516 137.947889 
L 105.320961 131.112142 
L 106.406762 128.435711 
L 107.492563 124.999754 
L 108.578364 136.50117 
L 109.664165 117.72999 
L 110.749967 118.27251 
L 111.835768 114.330201 
L 112.921569 113.679177 
L 114.00737 107.783797 
L 115.093171 109.736868 
L 117.264773 106.011566 
L 118.350575 103.44364 
L 119.436376 98.560963 
L 120.522177 100.152354 
L 121.607978 97.078076 
L 122.693779 94.618653 
L 123.77958 93.099598 
L 124.865382 92.665583 
L 125.951183 91.435871 
L 127.036984 87.71057 
L 128.122785 87.312722 
L 129.208586 84.527788 
L 130.294387 84.997972 
L 131.380189 80.476975 
L 132.46599 82.574717 
L 133.551791 80.766318 
L 134.637592 80.621646 
L 135.723393 79.825951 
L 136.809194 80.549311 
L 137.894995 79.428103 
L 138.980797 121.997812 
L 140.066598 124.023218 
L 141.152399 120.804268 
L 142.2382 122.070148 
L 143.324001 118.417182 
L 144.409802 118.45335 
L 145.495604 119.140542 
L 146.581405 110.966579 
L 147.667206 113.136657 
L 148.753007 123.444531 
L 149.838808 116.572615 
L 150.924609 114.547208 
L 152.01041 108.905004 
L 153.096212 108.905004 
L 154.182013 110.026211 
L 155.267814 108.109309 
L 156.353615 109.15818 
L 157.439416 106.30091 
L 158.525217 103.009624 
L 159.611019 108.470988 
L 160.69682 100.333194 
L 161.782621 104.203167 
L 162.868422 113.570673 
L 163.954223 100.116186 
L 165.040024 103.769151 
L 166.125825 100.839545 
L 167.211627 101.924585 
L 168.297428 98.633299 
L 169.383229 101.418233 
L 170.46903 96.390884 
L 171.554831 95.920701 
L 172.640632 94.835661 
L 173.726434 94.690989 
L 174.812235 95.631357 
L 175.898036 93.461278 
L 176.983837 93.822958 
L 178.069638 85.902171 
L 179.155439 90.02532 
L 180.24124 88.687105 
L 181.327042 85.540491 
L 182.412843 87.493562 
L 183.498644 87.674402 
L 184.584445 80.151463 
L 185.670246 84.997972 
L 186.756047 81.99603 
L 187.841849 83.406581 
L 188.92765 83.044901 
L 190.013451 77.185689 
L 191.099252 78.632408 
L 192.185053 75.37729 
L 193.270854 76.679337 
L 194.356656 76.896345 
L 196.528258 72.230676 
L 197.614059 75.160282 
L 198.69986 73.966739 
L 199.785661 69.879757 
L 201.957264 71.43498 
L 203.043065 70.458445 
L 204.128866 68.143695 
L 205.214667 66.696975 
L 206.300468 65.973616 
L 207.386269 65.431096 
L 208.472071 63.550362 
L 209.557872 63.839705 
L 210.643673 62.935506 
L 211.729474 61.488787 
L 212.815275 61.995139 
L 213.901076 61.380283 
L 214.986877 61.741963 
L 216.072679 61.416451 
L 217.15848 61.633459 
L 218.244281 59.571884 
L 219.330082 60.439916 
L 220.415883 59.64422 
L 221.501684 59.933564 
L 222.587486 59.535716 
L 223.673287 59.752724 
L 224.759088 59.82506 
L 225.844889 121.12978 
L 226.93069 106.698758 
L 228.016491 114.113193 
L 229.102292 110.604899 
L 230.188094 112.594138 
L 231.273895 111.509098 
L 232.359696 109.628364 
L 233.445497 106.083902 
L 234.531298 111.147419 
L 235.617099 108.362485 
L 236.702901 106.409414 
L 237.788702 106.083902 
L 238.874503 109.15818 
L 239.960304 111.147419 
L 241.046105 102.069257 
L 242.131906 102.322432 
L 243.217708 99.284322 
L 244.303509 102.286264 
L 245.38931 106.626422 
L 246.475111 100.767209 
L 247.560912 103.2628 
L 248.646713 107.422117 
L 249.732514 102.033089 
L 251.904117 101.960753 
L 252.989918 97.331252 
L 255.16152 93.461278 
L 256.247321 100.58637 
L 257.333123 100.297026 
L 258.418924 102.756448 
L 259.504725 102.394768 
L 260.590526 97.041908 
L 261.676327 105.432878 
L 262.762128 98.524795 
L 263.847929 97.078076 
L 264.933731 103.154296 
L 266.019532 97.475924 
L 267.105333 102.53944 
L 268.191134 97.475924 
L 269.276935 96.065372 
L 270.362736 94.039966 
L 271.448538 96.969572 
L 272.534339 93.497446 
L 273.62014 98.669467 
L 274.705941 97.150412 
L 275.791742 94.763325 
L 276.877543 88.723273 
L 277.963344 93.714454 
L 279.049146 91.255032 
L 280.134947 95.016501 
L 281.220748 88.144586 
L 282.306549 91.544375 
L 283.39235 86.336187 
L 284.478151 84.31078 
L 285.563953 88.940281 
L 286.649754 87.638234 
L 287.735555 88.976449 
L 288.821356 90.640176 
L 289.907157 90.92952 
L 290.992958 92.159231 
L 292.07876 86.951042 
L 293.164561 87.927578 
L 294.250362 83.153405 
L 295.336163 87.927578 
L 296.421964 81.923694 
L 297.507765 82.249205 
L 298.593566 83.298077 
L 299.679368 86.227683 
L 300.765169 88.07225 
L 301.85097 88.723273 
L 302.936771 77.945216 
L 304.022572 87.71057 
L 305.108373 83.153405 
L 306.194175 81.164166 
L 307.279976 75.55813 
L 308.365777 87.385058 
L 309.451578 83.876764 
L 310.537379 80.874822 
L 311.62318 76.787841 
L 312.708981 80.621646 
L 313.794783 75.992145 
L 314.880584 84.744796 
L 315.966385 77.655872 
L 317.052186 73.749731 
L 318.137987 76.679337 
L 319.223788 73.351883 
L 320.30959 76.679337 
L 321.395391 74.292251 
L 322.481192 85.866003 
L 323.566993 73.532723 
L 324.652794 72.266844 
L 325.738595 73.532723 
L 327.910198 70.747789 
L 328.995999 70.530781 
L 330.0818 68.903222 
L 331.167601 70.422277 
L 332.253402 71.362644 
L 333.339203 70.349941 
L 334.425005 73.026371 
L 335.510806 70.205269 
L 336.596607 68.252198 
L 337.682408 70.277605 
L 338.768209 68.867054 
L 339.85401 68.288366 
L 340.939811 67.239495 
L 342.025613 64.852409 
L 343.111414 63.297186 
L 344.197215 66.877815 
L 345.283016 62.718498 
L 346.368817 63.297186 
L 347.454618 60.946267 
L 348.54042 61.380283 
L 349.626221 57.980493 
L 350.712022 63.550362 
L 351.797823 59.46338 
L 352.883624 60.548419 
L 353.969425 59.210204 
L 355.055227 60.403748 
L 356.141028 60.548419 
L 357.226829 58.197501 
L 358.31263 57.944325 
L 359.398431 58.523013 
L 360.484232 58.486845 
L 361.570033 57.184798 
L 362.655835 54.725375 
L 363.741636 54.725375 
L 364.827437 56.859286 
L 365.913238 54.363695 
L 366.999039 54.689207 
L 368.08484 55.593407 
L 369.170642 58.812357 
L 370.256443 57.835821 
L 371.342244 62.32065 
L 372.428045 60.0059 
L 373.513846 63.441858 
L 374.599647 62.356818 
L 375.685448 61.778131 
L 376.77125 64.454561 
L 377.857051 60.331412 
L 378.942852 62.68233 
L 380.028653 64.346057 
L 381.114454 67.130991 
L 382.200255 62.68233 
L 383.286057 65.431096 
L 384.371858 64.852409 
L 385.457659 60.729259 
L 386.54346 65.467264 
L 387.629261 65.792776 
L 388.715062 61.452619 
L 389.800863 64.707737 
L 390.886665 62.754666 
L 391.972466 64.309889 
L 393.058267 66.226792 
L 394.144068 63.550362 
L 395.229869 63.080178 
L 396.31567 61.741963 
L 397.401472 62.031307 
L 398.487273 62.899338 
L 398.487273 62.899338 
" clip-path="url(#p08de7788e4)" style="fill: none; stroke: #ff7f0e; stroke-width: 1.5; stroke-linecap: square"/>
   </g>
   <g id="line2d_20">
    <path d="M 73.832727 295.488 
L 74.918528 281.968772 
L 76.00433 273.662435 
L 77.090131 266.803178 
L 78.175932 269.54688 
L 79.261733 251.53776 
L 80.347534 250.739533 
L 81.433335 246.499199 
L 82.519137 238.966133 
L 83.604938 236.920834 
L 84.690739 237.893752 
L 85.77654 231.233781 
L 86.862341 232.480853 
L 87.948142 230.635201 
L 89.033943 222.378776 
L 90.119745 223.027267 
L 91.205546 223.077179 
L 92.291347 219.211184 
L 93.377148 216.766591 
L 94.462949 216.018275 
L 95.54875 241.086661 
L 96.634552 239.315516 
L 97.720353 232.979971 
L 98.806154 228.490079 
L 99.891955 225.571684 
L 100.977756 230.161401 
L 102.063557 220.657903 
L 103.149358 224.274701 
L 104.23516 225.72142 
L 105.320961 221.406219 
L 106.406762 222.328864 
L 107.492563 215.469607 
L 108.578364 218.662516 
L 109.664165 211.653162 
L 110.749967 217.440038 
L 111.835768 206.689469 
L 112.921569 212.850684 
L 114.00737 207.886629 
L 115.093171 203.945766 
L 116.178972 206.140801 
L 117.264773 209.582907 
L 118.350575 204.04559 
L 119.436376 200.229145 
L 120.522177 203.945766 
L 121.607978 203.870899 
L 123.77958 192.671123 
L 124.865382 201.825599 
L 127.036984 188.979819 
L 128.122785 190.750603 
L 129.208586 186.335578 
L 130.294387 192.172367 
L 131.380189 185.637175 
L 132.46599 186.784785 
L 133.551791 183.043208 
L 134.637592 185.537351 
L 135.723393 183.866391 
L 136.809194 183.791523 
L 137.894995 182.96834 
L 138.980797 218.462869 
L 140.066598 226.32 
L 141.152399 215.245004 
L 142.2382 218.163398 
L 143.324001 217.9142 
L 144.409802 211.752986 
L 145.495604 214.471732 
L 146.581405 201.276931 
L 147.667206 208.011409 
L 148.753007 223.426562 
L 149.838808 215.394739 
L 150.924609 217.564818 
L 152.01041 195.415187 
L 153.096212 203.796031 
L 154.182013 209.757598 
L 155.267814 202.848068 
L 156.353615 212.376522 
L 157.439416 203.820987 
L 158.525217 201.625952 
L 159.611019 208.435659 
L 160.69682 194.716784 
L 162.868422 209.907334 
L 163.954223 194.866157 
L 165.040024 201.227019 
L 166.125825 194.641916 
L 167.211627 204.095502 
L 168.297428 193.444394 
L 169.383229 200.453748 
L 170.46903 198.982073 
L 171.554831 189.278928 
L 172.640632 194.442269 
L 173.726434 195.265452 
L 174.812235 192.820858 
L 175.898036 193.668997 
L 176.983837 195.065805 
L 178.069638 182.36976 
L 179.155439 183.44214 
L 180.24124 192.571661 
L 181.327042 180.748349 
L 182.412843 180.374011 
L 183.498644 188.805128 
L 184.584445 173.165371 
L 185.670246 193.59413 
L 186.756047 183.541964 
L 187.841849 181.920554 
L 188.92765 180.823217 
L 190.013451 172.641659 
L 191.099252 173.240239 
L 192.185053 185.861778 
L 193.270854 177.480573 
L 194.356656 176.707663 
L 195.442457 172.741483 
L 196.528258 169.424156 
L 197.614059 170.72114 
L 198.69986 176.657751 
L 199.785661 170.870875 
L 200.871462 171.045205 
L 201.957264 173.838819 
L 203.043065 170.147516 
L 204.128866 169.673353 
L 205.214667 166.829827 
L 206.300468 163.362765 
L 207.386269 161.591619 
L 208.472071 170.646272 
L 209.557872 164.011257 
L 210.643673 165.333196 
L 211.729474 161.791266 
L 212.815275 163.911433 
L 213.901076 160.194812 
L 214.986877 162.888964 
L 216.072679 160.793753 
L 217.15848 160.344547 
L 218.244281 159.770923 
L 219.330082 160.619062 
L 220.415883 160.594106 
L 221.501684 159.371629 
L 222.587486 159.945614 
L 223.673287 160.244724 
L 224.759088 160.219768 
L 225.844889 218.587648 
L 226.93069 197.360663 
L 228.016491 204.694082 
L 229.102292 205.267706 
L 230.188094 214.696336 
L 231.273895 213.34944 
L 232.359696 196.312876 
L 233.445497 202.947892 
L 234.531298 205.317618 
L 235.617099 208.834592 
L 236.702901 193.993424 
L 237.788702 192.097499 
L 238.874503 209.38326 
L 239.960304 217.415082 
L 241.046105 197.061192 
L 242.131906 198.059066 
L 243.217708 198.308625 
L 244.303509 199.530741 
L 245.38931 199.705433 
L 246.475111 196.163503 
L 247.560912 200.927549 
L 248.646713 207.437784 
L 249.732514 200.07941 
L 250.818316 201.127196 
L 251.904117 194.916069 
L 252.989918 187.208673 
L 254.075719 189.752729 
L 255.16152 185.113463 
L 256.247321 187.408321 
L 257.333123 194.641916 
L 258.418924 198.133934 
L 259.504725 202.000291 
L 260.590526 203.147539 
L 261.676327 193.59413 
L 262.762128 196.886862 
L 263.847929 188.206548 
L 264.933731 195.365276 
L 266.019532 189.403708 
L 267.105333 199.555697 
L 268.191134 192.496793 
L 269.276935 198.358537 
L 270.362736 193.095373 
L 271.448538 193.918556 
L 272.534339 189.45362 
L 273.62014 200.927549 
L 274.705941 197.585266 
L 275.791742 188.680348 
L 276.877543 185.31311 
L 277.963344 193.344932 
L 279.049146 192.721035 
L 280.134947 198.084022 
L 281.220748 194.916069 
L 282.306549 191.24936 
L 283.39235 179.077027 
L 285.563953 189.378752 
L 286.649754 189.154149 
L 287.735555 182.070289 
L 288.821356 193.868645 
L 289.907157 191.873257 
L 290.992958 190.201935 
L 292.07876 187.508144 
L 293.164561 190.251847 
L 294.250362 186.111337 
L 295.336163 200.727901 
L 296.421964 178.079514 
L 297.507765 180.997908 
L 298.593566 179.700563 
L 299.679368 184.1655 
L 300.765169 186.784785 
L 301.85097 182.868516 
L 302.936771 172.242726 
L 304.022572 183.143031 
L 305.108373 185.687087 
L 306.194175 178.82783 
L 307.279976 173.888731 
L 308.365777 181.521621 
L 309.451578 178.328712 
L 310.537379 179.151895 
L 311.62318 185.063551 
L 312.708981 178.178976 
L 313.794783 168.476156 
L 314.880584 186.684861 
L 315.966385 171.145103 
L 317.052186 169.798158 
L 318.137987 176.732432 
L 319.223788 176.931979 
L 320.30959 179.850361 
L 321.395391 177.780056 
L 322.481192 191.898039 
L 323.566993 169.374119 
L 324.652794 172.392275 
L 325.738595 172.267558 
L 326.824396 171.743746 
L 327.910198 171.99318 
L 328.995999 172.06801 
L 330.0818 173.963711 
L 331.167601 175.360543 
L 332.253402 168.376382 
L 333.339203 169.748271 
L 334.425005 176.28345 
L 335.510806 170.197253 
L 336.596607 176.258507 
L 337.682408 171.12016 
L 338.768209 170.072536 
L 339.85401 171.095216 
L 340.939811 175.659864 
L 342.025613 171.419481 
L 343.111414 161.392221 
L 344.197215 167.752796 
L 345.283016 167.9274 
L 346.368817 156.727799 
L 347.454618 161.990864 
L 348.54042 163.687017 
L 349.626221 162.589506 
L 350.712022 164.535094 
L 351.797823 159.970446 
L 352.883624 162.340072 
L 353.969425 163.287922 
L 355.055227 161.940977 
L 356.141028 164.410376 
L 357.226829 157.525989 
L 358.31263 160.419427 
L 359.398431 156.827573 
L 360.484232 156.628026 
L 361.570033 156.278818 
L 362.655835 155.630288 
L 363.741636 157.226668 
L 364.827437 157.077007 
L 365.913238 154.358173 
L 366.999039 150.417111 
L 368.08484 157.251611 
L 369.170642 157.75048 
L 370.256443 160.943239 
L 371.342244 166.131473 
L 372.428045 162.315128 
L 373.513846 161.467051 
L 374.599647 163.761847 
L 375.685448 159.396747 
L 376.77125 164.385433 
L 377.857051 160.045276 
L 378.942852 165.482944 
L 381.114454 172.092954 
L 382.200255 162.065694 
L 383.286057 168.850307 
L 384.371858 164.086112 
L 385.457659 160.494258 
L 386.54346 168.925138 
L 387.629261 167.952344 
L 388.715062 163.736904 
L 389.800863 161.691542 
L 390.886665 169.473893 
L 391.972466 164.310603 
L 393.058267 165.507887 
L 394.144068 165.108793 
L 395.229869 161.591769 
L 396.31567 158.6235 
L 397.401472 164.709698 
L 398.487273 158.723274 
L 398.487273 158.723274 
" clip-path="url(#p08de7788e4)" style="fill: none; stroke: #2ca02c; stroke-width: 1.5; stroke-linecap: square"/>
   </g>
   <g id="line2d_21">
    <path d="M 368.08484 53.568 
L 369.170642 56.461438 
L 370.256443 58.523013 
L 371.342244 59.318708 
L 372.428045 59.933564 
L 373.513846 66.877815 
L 374.599647 64.816241 
L 375.685448 69.373406 
L 376.77125 65.90128 
L 377.857051 65.35876 
L 378.942852 73.279547 
L 380.028653 72.881699 
L 381.114454 64.526897 
L 382.200255 63.04401 
L 383.286057 65.72044 
L 384.371858 65.5396 
L 385.457659 68.143695 
L 386.54346 66.805479 
L 387.629261 69.988261 
L 388.715062 73.677395 
L 389.800863 66.986319 
L 390.886665 78.921752 
L 393.058267 74.400755 
L 394.144068 80.115295 
L 395.229869 75.01561 
L 396.31567 78.487736 
L 397.401472 73.966739 
L 398.487273 76.245321 
L 398.487273 76.245321 
" clip-path="url(#p08de7788e4)" style="fill: none; stroke: #d62728; stroke-width: 1.5; stroke-linecap: square"/>
   </g>
   <g id="line2d_22">
    <path d="M 368.08484 147.922768 
L 369.170642 152.911454 
L 370.256443 160.095163 
L 371.342244 161.541882 
L 372.428045 161.666599 
L 373.513846 169.798158 
L 374.599647 166.605398 
L 375.685448 174.46258 
L 376.77125 169.997705 
L 377.857051 169.773214 
L 378.942852 178.802737 
L 381.114454 159.047539 
L 382.200255 162.76411 
L 383.286057 165.208566 
L 384.371858 172.317444 
L 385.457659 169.049855 
L 386.54346 175.435373 
L 387.629261 177.929717 
L 388.715062 176.657602 
L 389.800863 168.401326 
L 390.886665 175.859412 
L 391.972466 171.893406 
L 393.058267 175.609977 
L 394.144068 182.444478 
L 395.229869 174.163258 
L 396.31567 171.26982 
L 397.401472 172.591822 
L 398.487273 179.850361 
L 398.487273 179.850361 
" clip-path="url(#p08de7788e4)" style="fill: none; stroke: #9467bd; stroke-width: 1.5; stroke-linecap: square"/>
   </g>
   <g id="patch_3">
    <path d="M 57.6 307.584 
L 57.6 41.472 
" style="fill: none; stroke: #000000; stroke-width: 0.8; stroke-linejoin: miter; stroke-linecap: square"/>
   </g>
   <g id="patch_4">
    <path d="M 414.72 307.584 
L 414.72 41.472 
" style="fill: none; stroke: #000000; stroke-width: 0.8; stroke-linejoin: miter; stroke-linecap: square"/>
   </g>
   <g id="patch_5">
    <path d="M 57.6 307.584 
L 414.72 307.584 
" style="fill: none; stroke: #000000; stroke-width: 0.8; stroke-linejoin: miter; stroke-linecap: square"/>
   </g>
   <g id="patch_6">
    <path d="M 57.6 41.472 
L 414.72 41.472 
" style="fill: none; stroke: #000000; stroke-width: 0.8; stroke-linejoin: miter; stroke-linecap: square"/>
   </g>
   <g id="text_20">
    <!-- Learning Curves -->
    <g transform="translate(187.37625 35.472) scale(0.12 -0.12)">
     <defs>
      <path id="DejaVuSans-4c" d="M 628 4666 
L 1259 4666 
L 1259 531 
L 3531 531 
L 3531 0 
L 628 0 
L 628 4666 
z
" transform="scale(0.015625)"/>
      <path id="DejaVuSans-65" d="M 3597 1894 
L 3597 1613 
L 953 1613 
Q 991 1019 1311 708 
Q 1631 397 2203 397 
Q 2534 397 2845 478 
Q 3156 559 3463 722 
L 3463 178 
Q 3153 47 2828 -22 
Q 2503 -91 2169 -91 
Q 1331 -91 842 396 
Q 353 884 353 1716 
Q 353 2575 817 3079 
Q 1281 3584 2069 3584 
Q 2775 3584 3186 3129 
Q 3597 2675 3597 1894 
z
M 3022 2063 
Q 3016 2534 2758 2815 
Q 2500 3097 2075 3097 
Q 1594 3097 1305 2825 
Q 1016 2553 972 2059 
L 3022 2063 
z
" transform="scale(0.015625)"/>
      <path id="DejaVuSans-6e" d="M 3513 2113 
L 3513 0 
L 2938 0 
L 2938 2094 
Q 2938 2591 2744 2837 
Q 2550 3084 2163 3084 
Q 1697 3084 1428 2787 
Q 1159 2491 1159 1978 
L 1159 0 
L 581 0 
L 581 3500 
L 1159 3500 
L 1159 2956 
Q 1366 3272 1645 3428 
Q 1925 3584 2291 3584 
Q 2894 3584 3203 3211 
Q 3513 2838 3513 2113 
z
" transform="scale(0.015625)"/>
      <path id="DejaVuSans-69" d="M 603 3500 
L 1178 3500 
L 1178 0 
L 603 0 
L 603 3500 
z
M 603 4863 
L 1178 4863 
L 1178 4134 
L 603 4134 
L 603 4863 
z
" transform="scale(0.015625)"/>
      <path id="DejaVuSans-67" d="M 2906 1791 
Q 2906 2416 2648 2759 
Q 2391 3103 1925 3103 
Q 1463 3103 1205 2759 
Q 947 2416 947 1791 
Q 947 1169 1205 825 
Q 1463 481 1925 481 
Q 2391 481 2648 825 
Q 2906 1169 2906 1791 
z
M 3481 434 
Q 3481 -459 3084 -895 
Q 2688 -1331 1869 -1331 
Q 1566 -1331 1297 -1286 
Q 1028 -1241 775 -1147 
L 775 -588 
Q 1028 -725 1275 -790 
Q 1522 -856 1778 -856 
Q 2344 -856 2625 -561 
Q 2906 -266 2906 331 
L 2906 616 
Q 2728 306 2450 153 
Q 2172 0 1784 0 
Q 1141 0 747 490 
Q 353 981 353 1791 
Q 353 2603 747 3093 
Q 1141 3584 1784 3584 
Q 2172 3584 2450 3431 
Q 2728 3278 2906 2969 
L 2906 3500 
L 3481 3500 
L 3481 434 
z
" transform="scale(0.015625)"/>
      <path id="DejaVuSans-20" transform="scale(0.015625)"/>
      <path id="DejaVuSans-43" d="M 4122 4306 
L 4122 3641 
Q 3803 3938 3442 4084 
Q 3081 4231 2675 4231 
Q 1875 4231 1450 3742 
Q 1025 3253 1025 2328 
Q 1025 1406 1450 917 
Q 1875 428 2675 428 
Q 3081 428 3442 575 
Q 3803 722 4122 1019 
L 4122 359 
Q 3791 134 3420 21 
Q 3050 -91 2638 -91 
Q 1578 -91 968 557 
Q 359 1206 359 2328 
Q 359 3453 968 4101 
Q 1578 4750 2638 4750 
Q 3056 4750 3426 4639 
Q 3797 4528 4122 4306 
z
" transform="scale(0.015625)"/>
      <path id="DejaVuSans-76" d="M 191 3500 
L 800 3500 
L 1894 563 
L 2988 3500 
L 3597 3500 
L 2284 0 
L 1503 0 
L 191 3500 
z
" transform="scale(0.015625)"/>
     </defs>
     <use xlink:href="#DejaVuSans-4c"/>
     <use xlink:href="#DejaVuSans-65" x="53.962891"/>
     <use xlink:href="#DejaVuSans-61" x="115.486328"/>
     <use xlink:href="#DejaVuSans-72" x="176.765625"/>
     <use xlink:href="#DejaVuSans-6e" x="216.128906"/>
     <use xlink:href="#DejaVuSans-69" x="279.507812"/>
     <use xlink:href="#DejaVuSans-6e" x="307.291016"/>
     <use xlink:href="#DejaVuSans-67" x="370.669922"/>
     <use xlink:href="#DejaVuSans-20" x="434.146484"/>
     <use xlink:href="#DejaVuSans-43" x="465.933594"/>
     <use xlink:href="#DejaVuSans-75" x="535.757812"/>
     <use xlink:href="#DejaVuSans-72" x="599.136719"/>
     <use xlink:href="#DejaVuSans-76" x="640.25"/>
     <use xlink:href="#DejaVuSans-65" x="699.429688"/>
     <use xlink:href="#DejaVuSans-73" x="760.953125"/>
    </g>
   </g>
   <g id="legend_1">
    <g id="patch_7">
     <path d="M 214.18875 302.584 
L 407.72 302.584 
Q 409.72 302.584 409.72 300.584 
L 409.72 228.193375 
Q 409.72 226.193375 407.72 226.193375 
L 214.18875 226.193375 
Q 212.18875 226.193375 212.18875 228.193375 
L 212.18875 300.584 
Q 212.18875 302.584 214.18875 302.584 
z
" style="fill: #ffffff; opacity: 0.8; stroke: #cccccc; stroke-linejoin: miter"/>
    </g>
    <g id="line2d_23">
     <path d="M 216.18875 234.291812 
L 226.18875 234.291812 
L 236.18875 234.291812 
" style="fill: none; stroke: #1f77b4; stroke-width: 1.5; stroke-linecap: square"/>
    </g>
    <g id="text_21">
     <!-- Train Accuracy -->
     <g transform="translate(244.18875 237.791812) scale(0.1 -0.1)">
      <defs>
       <path id="DejaVuSans-54" d="M -19 4666 
L 3928 4666 
L 3928 4134 
L 2272 4134 
L 2272 0 
L 1638 0 
L 1638 4134 
L -19 4134 
L -19 4666 
z
" transform="scale(0.015625)"/>
      </defs>
      <use xlink:href="#DejaVuSans-54"/>
      <use xlink:href="#DejaVuSans-72" x="46.333984"/>
      <use xlink:href="#DejaVuSans-61" x="87.447266"/>
      <use xlink:href="#DejaVuSans-69" x="148.726562"/>
      <use xlink:href="#DejaVuSans-6e" x="176.509766"/>
      <use xlink:href="#DejaVuSans-20" x="239.888672"/>
      <use xlink:href="#DejaVuSans-41" x="271.675781"/>
      <use xlink:href="#DejaVuSans-63" x="338.333984"/>
      <use xlink:href="#DejaVuSans-63" x="393.314453"/>
      <use xlink:href="#DejaVuSans-75" x="448.294922"/>
      <use xlink:href="#DejaVuSans-72" x="511.673828"/>
      <use xlink:href="#DejaVuSans-61" x="552.787109"/>
      <use xlink:href="#DejaVuSans-63" x="614.066406"/>
      <use xlink:href="#DejaVuSans-79" x="669.046875"/>
     </g>
    </g>
    <g id="line2d_24">
     <path d="M 216.18875 248.969937 
L 226.18875 248.969937 
L 236.18875 248.969937 
" style="fill: none; stroke: #ff7f0e; stroke-width: 1.5; stroke-linecap: square"/>
    </g>
    <g id="text_22">
     <!-- Validation Accuracy -->
     <g transform="translate(244.18875 252.469937) scale(0.1 -0.1)">
      <defs>
       <path id="DejaVuSans-56" d="M 1831 0 
L 50 4666 
L 709 4666 
L 2188 738 
L 3669 4666 
L 4325 4666 
L 2547 0 
L 1831 0 
z
" transform="scale(0.015625)"/>
       <path id="DejaVuSans-6c" d="M 603 4863 
L 1178 4863 
L 1178 0 
L 603 0 
L 603 4863 
z
" transform="scale(0.015625)"/>
       <path id="DejaVuSans-64" d="M 2906 2969 
L 2906 4863 
L 3481 4863 
L 3481 0 
L 2906 0 
L 2906 525 
Q 2725 213 2448 61 
Q 2172 -91 1784 -91 
Q 1150 -91 751 415 
Q 353 922 353 1747 
Q 353 2572 751 3078 
Q 1150 3584 1784 3584 
Q 2172 3584 2448 3432 
Q 2725 3281 2906 2969 
z
M 947 1747 
Q 947 1113 1208 752 
Q 1469 391 1925 391 
Q 2381 391 2643 752 
Q 2906 1113 2906 1747 
Q 2906 2381 2643 2742 
Q 2381 3103 1925 3103 
Q 1469 3103 1208 2742 
Q 947 2381 947 1747 
z
" transform="scale(0.015625)"/>
       <path id="DejaVuSans-74" d="M 1172 4494 
L 1172 3500 
L 2356 3500 
L 2356 3053 
L 1172 3053 
L 1172 1153 
Q 1172 725 1289 603 
Q 1406 481 1766 481 
L 2356 481 
L 2356 0 
L 1766 0 
Q 1100 0 847 248 
Q 594 497 594 1153 
L 594 3053 
L 172 3053 
L 172 3500 
L 594 3500 
L 594 4494 
L 1172 4494 
z
" transform="scale(0.015625)"/>
      </defs>
      <use xlink:href="#DejaVuSans-56"/>
      <use xlink:href="#DejaVuSans-61" x="60.658203"/>
      <use xlink:href="#DejaVuSans-6c" x="121.9375"/>
      <use xlink:href="#DejaVuSans-69" x="149.720703"/>
      <use xlink:href="#DejaVuSans-64" x="177.503906"/>
      <use xlink:href="#DejaVuSans-61" x="240.980469"/>
      <use xlink:href="#DejaVuSans-74" x="302.259766"/>
      <use xlink:href="#DejaVuSans-69" x="341.46875"/>
      <use xlink:href="#DejaVuSans-6f" x="369.251953"/>
      <use xlink:href="#DejaVuSans-6e" x="430.433594"/>
      <use xlink:href="#DejaVuSans-20" x="493.8125"/>
      <use xlink:href="#DejaVuSans-41" x="525.599609"/>
      <use xlink:href="#DejaVuSans-63" x="592.257812"/>
      <use xlink:href="#DejaVuSans-63" x="647.238281"/>
      <use xlink:href="#DejaVuSans-75" x="702.21875"/>
      <use xlink:href="#DejaVuSans-72" x="765.597656"/>
      <use xlink:href="#DejaVuSans-61" x="806.710938"/>
      <use xlink:href="#DejaVuSans-63" x="867.990234"/>
      <use xlink:href="#DejaVuSans-79" x="922.970703"/>
     </g>
    </g>
    <g id="line2d_25">
     <path d="M 216.18875 263.648062 
L 226.18875 263.648062 
L 236.18875 263.648062 
" style="fill: none; stroke: #2ca02c; stroke-width: 1.5; stroke-linecap: square"/>
    </g>
    <g id="text_23">
     <!-- Robust Validation Accuracy -->
     <g transform="translate(244.18875 267.148062) scale(0.1 -0.1)">
      <defs>
       <path id="DejaVuSans-52" d="M 2841 2188 
Q 3044 2119 3236 1894 
Q 3428 1669 3622 1275 
L 4263 0 
L 3584 0 
L 2988 1197 
Q 2756 1666 2539 1819 
Q 2322 1972 1947 1972 
L 1259 1972 
L 1259 0 
L 628 0 
L 628 4666 
L 2053 4666 
Q 2853 4666 3247 4331 
Q 3641 3997 3641 3322 
Q 3641 2881 3436 2590 
Q 3231 2300 2841 2188 
z
M 1259 4147 
L 1259 2491 
L 2053 2491 
Q 2509 2491 2742 2702 
Q 2975 2913 2975 3322 
Q 2975 3731 2742 3939 
Q 2509 4147 2053 4147 
L 1259 4147 
z
" transform="scale(0.015625)"/>
       <path id="DejaVuSans-62" d="M 3116 1747 
Q 3116 2381 2855 2742 
Q 2594 3103 2138 3103 
Q 1681 3103 1420 2742 
Q 1159 2381 1159 1747 
Q 1159 1113 1420 752 
Q 1681 391 2138 391 
Q 2594 391 2855 752 
Q 3116 1113 3116 1747 
z
M 1159 2969 
Q 1341 3281 1617 3432 
Q 1894 3584 2278 3584 
Q 2916 3584 3314 3078 
Q 3713 2572 3713 1747 
Q 3713 922 3314 415 
Q 2916 -91 2278 -91 
Q 1894 -91 1617 61 
Q 1341 213 1159 525 
L 1159 0 
L 581 0 
L 581 4863 
L 1159 4863 
L 1159 2969 
z
" transform="scale(0.015625)"/>
      </defs>
      <use xlink:href="#DejaVuSans-52"/>
      <use xlink:href="#DejaVuSans-6f" x="64.982422"/>
      <use xlink:href="#DejaVuSans-62" x="126.164062"/>
      <use xlink:href="#DejaVuSans-75" x="189.640625"/>
      <use xlink:href="#DejaVuSans-73" x="253.019531"/>
      <use xlink:href="#DejaVuSans-74" x="305.119141"/>
      <use xlink:href="#DejaVuSans-20" x="344.328125"/>
      <use xlink:href="#DejaVuSans-56" x="376.115234"/>
      <use xlink:href="#DejaVuSans-61" x="436.773438"/>
      <use xlink:href="#DejaVuSans-6c" x="498.052734"/>
      <use xlink:href="#DejaVuSans-69" x="525.835938"/>
      <use xlink:href="#DejaVuSans-64" x="553.619141"/>
      <use xlink:href="#DejaVuSans-61" x="617.095703"/>
      <use xlink:href="#DejaVuSans-74" x="678.375"/>
      <use xlink:href="#DejaVuSans-69" x="717.583984"/>
      <use xlink:href="#DejaVuSans-6f" x="745.367188"/>
      <use xlink:href="#DejaVuSans-6e" x="806.548828"/>
      <use xlink:href="#DejaVuSans-20" x="869.927734"/>
      <use xlink:href="#DejaVuSans-41" x="901.714844"/>
      <use xlink:href="#DejaVuSans-63" x="968.373047"/>
      <use xlink:href="#DejaVuSans-63" x="1023.353516"/>
      <use xlink:href="#DejaVuSans-75" x="1078.333984"/>
      <use xlink:href="#DejaVuSans-72" x="1141.712891"/>
      <use xlink:href="#DejaVuSans-61" x="1182.826172"/>
      <use xlink:href="#DejaVuSans-63" x="1244.105469"/>
      <use xlink:href="#DejaVuSans-79" x="1299.085938"/>
     </g>
    </g>
    <g id="line2d_26">
     <path d="M 216.18875 278.326188 
L 226.18875 278.326188 
L 236.18875 278.326188 
" style="fill: none; stroke: #d62728; stroke-width: 1.5; stroke-linecap: square"/>
    </g>
    <g id="text_24">
     <!-- SWA Validation Accuracy -->
     <g transform="translate(244.18875 281.826188) scale(0.1 -0.1)">
      <defs>
       <path id="DejaVuSans-53" d="M 3425 4513 
L 3425 3897 
Q 3066 4069 2747 4153 
Q 2428 4238 2131 4238 
Q 1616 4238 1336 4038 
Q 1056 3838 1056 3469 
Q 1056 3159 1242 3001 
Q 1428 2844 1947 2747 
L 2328 2669 
Q 3034 2534 3370 2195 
Q 3706 1856 3706 1288 
Q 3706 609 3251 259 
Q 2797 -91 1919 -91 
Q 1588 -91 1214 -16 
Q 841 59 441 206 
L 441 856 
Q 825 641 1194 531 
Q 1563 422 1919 422 
Q 2459 422 2753 634 
Q 3047 847 3047 1241 
Q 3047 1584 2836 1778 
Q 2625 1972 2144 2069 
L 1759 2144 
Q 1053 2284 737 2584 
Q 422 2884 422 3419 
Q 422 4038 858 4394 
Q 1294 4750 2059 4750 
Q 2388 4750 2728 4690 
Q 3069 4631 3425 4513 
z
" transform="scale(0.015625)"/>
       <path id="DejaVuSans-57" d="M 213 4666 
L 850 4666 
L 1831 722 
L 2809 4666 
L 3519 4666 
L 4500 722 
L 5478 4666 
L 6119 4666 
L 4947 0 
L 4153 0 
L 3169 4050 
L 2175 0 
L 1381 0 
L 213 4666 
z
" transform="scale(0.015625)"/>
      </defs>
      <use xlink:href="#DejaVuSans-53"/>
      <use xlink:href="#DejaVuSans-57" x="63.476562"/>
      <use xlink:href="#DejaVuSans-41" x="156.853516"/>
      <use xlink:href="#DejaVuSans-20" x="225.261719"/>
      <use xlink:href="#DejaVuSans-56" x="257.048828"/>
      <use xlink:href="#DejaVuSans-61" x="317.707031"/>
      <use xlink:href="#DejaVuSans-6c" x="378.986328"/>
      <use xlink:href="#DejaVuSans-69" x="406.769531"/>
      <use xlink:href="#DejaVuSans-64" x="434.552734"/>
      <use xlink:href="#DejaVuSans-61" x="498.029297"/>
      <use xlink:href="#DejaVuSans-74" x="559.308594"/>
      <use xlink:href="#DejaVuSans-69" x="598.517578"/>
      <use xlink:href="#DejaVuSans-6f" x="626.300781"/>
      <use xlink:href="#DejaVuSans-6e" x="687.482422"/>
      <use xlink:href="#DejaVuSans-20" x="750.861328"/>
      <use xlink:href="#DejaVuSans-41" x="782.648438"/>
      <use xlink:href="#DejaVuSans-63" x="849.306641"/>
      <use xlink:href="#DejaVuSans-63" x="904.287109"/>
      <use xlink:href="#DejaVuSans-75" x="959.267578"/>
      <use xlink:href="#DejaVuSans-72" x="1022.646484"/>
      <use xlink:href="#DejaVuSans-61" x="1063.759766"/>
      <use xlink:href="#DejaVuSans-63" x="1125.039062"/>
      <use xlink:href="#DejaVuSans-79" x="1180.019531"/>
     </g>
    </g>
    <g id="line2d_27">
     <path d="M 216.18875 293.004312 
L 226.18875 293.004312 
L 236.18875 293.004312 
" style="fill: none; stroke: #9467bd; stroke-width: 1.5; stroke-linecap: square"/>
    </g>
    <g id="text_25">
     <!-- SWA Robust Validation Accuracy -->
     <g transform="translate(244.18875 296.504312) scale(0.1 -0.1)">
      <use xlink:href="#DejaVuSans-53"/>
      <use xlink:href="#DejaVuSans-57" x="63.476562"/>
      <use xlink:href="#DejaVuSans-41" x="156.853516"/>
      <use xlink:href="#DejaVuSans-20" x="225.261719"/>
      <use xlink:href="#DejaVuSans-52" x="257.048828"/>
      <use xlink:href="#DejaVuSans-6f" x="322.03125"/>
      <use xlink:href="#DejaVuSans-62" x="383.212891"/>
      <use xlink:href="#DejaVuSans-75" x="446.689453"/>
      <use xlink:href="#DejaVuSans-73" x="510.068359"/>
      <use xlink:href="#DejaVuSans-74" x="562.167969"/>
      <use xlink:href="#DejaVuSans-20" x="601.376953"/>
      <use xlink:href="#DejaVuSans-56" x="633.164062"/>
      <use xlink:href="#DejaVuSans-61" x="693.822266"/>
      <use xlink:href="#DejaVuSans-6c" x="755.101562"/>
      <use xlink:href="#DejaVuSans-69" x="782.884766"/>
      <use xlink:href="#DejaVuSans-64" x="810.667969"/>
      <use xlink:href="#DejaVuSans-61" x="874.144531"/>
      <use xlink:href="#DejaVuSans-74" x="935.423828"/>
      <use xlink:href="#DejaVuSans-69" x="974.632812"/>
      <use xlink:href="#DejaVuSans-6f" x="1002.416016"/>
      <use xlink:href="#DejaVuSans-6e" x="1063.597656"/>
      <use xlink:href="#DejaVuSans-20" x="1126.976562"/>
      <use xlink:href="#DejaVuSans-41" x="1158.763672"/>
      <use xlink:href="#DejaVuSans-63" x="1225.421875"/>
      <use xlink:href="#DejaVuSans-63" x="1280.402344"/>
      <use xlink:href="#DejaVuSans-75" x="1335.382812"/>
      <use xlink:href="#DejaVuSans-72" x="1398.761719"/>
      <use xlink:href="#DejaVuSans-61" x="1439.875"/>
      <use xlink:href="#DejaVuSans-63" x="1501.154297"/>
      <use xlink:href="#DejaVuSans-79" x="1556.134766"/>
     </g>
    </g>
   </g>
  </g>
 </g>
 <defs>
  <clipPath id="p08de7788e4">
   <rect x="57.6" y="41.472" width="357.12" height="266.112"/>
  </clipPath>
 </defs>
</svg>
