<?xml version="1.0" encoding="utf-8" standalone="no"?>
<!DOCTYPE svg PUBLIC "-//W3C//DTD SVG 1.1//EN"
  "http://www.w3.org/Graphics/SVG/1.1/DTD/svg11.dtd">
<svg xmlns:xlink="http://www.w3.org/1999/xlink" width="460.8pt" height="345.6pt" viewBox="0 0 460.8 345.6" xmlns="http://www.w3.org/2000/svg" version="1.1">
 <metadata>
  <rdf:RDF xmlns:dc="http://purl.org/dc/elements/1.1/" xmlns:cc="http://creativecommons.org/ns#" xmlns:rdf="http://www.w3.org/1999/02/22-rdf-syntax-ns#">
   <cc:Work>
    <dc:type rdf:resource="http://purl.org/dc/dcmitype/StillImage"/>
    <dc:date>2025-07-04T08:29:42.076645</dc:date>
    <dc:format>image/svg+xml</dc:format>
    <dc:creator>
     <cc:Agent>
      <dc:title>Matplotlib v3.9.1, https://matplotlib.org/</dc:title>
     </cc:Agent>
    </dc:creator>
   </cc:Work>
  </rdf:RDF>
 </metadata>
 <defs>
  <style type="text/css">*{stroke-linejoin: round; stroke-linecap: butt}</style>
 </defs>
 <g id="figure_1">
  <g id="patch_1">
   <path d="M 0 345.6 
L 460.8 345.6 
L 460.8 0 
L 0 0 
z
" style="fill: #ffffff"/>
  </g>
  <g id="axes_1">
   <g id="patch_2">
    <path d="M 57.6 307.584 
L 414.72 307.584 
L 414.72 41.472 
L 57.6 41.472 
z
" style="fill: #ffffff"/>
   </g>
   <g id="matplotlib.axis_1">
    <g id="xtick_1">
     <g id="line2d_1">
      <defs>
       <path id="me523275377" d="M 0 0 
L 0 3.5 
" style="stroke: #000000; stroke-width: 0.8"/>
      </defs>
      <g>
       <use xlink:href="#me523275377" x="73.832727" y="307.584" style="stroke: #000000; stroke-width: 0.8"/>
      </g>
     </g>
     <g id="text_1">
      <!-- 1 -->
      <g transform="translate(70.651477 322.182437) scale(0.1 -0.1)">
       <defs>
        <path id="DejaVuSans-31" d="M 794 531 
L 1825 531 
L 1825 4091 
L 703 3866 
L 703 4441 
L 1819 4666 
L 2450 4666 
L 2450 531 
L 3481 531 
L 3481 0 
L 794 0 
L 794 531 
z
" transform="scale(0.015625)"/>
       </defs>
       <use xlink:href="#DejaVuSans-31"/>
      </g>
     </g>
    </g>
    <g id="xtick_2">
     <g id="line2d_2">
      <g>
       <use xlink:href="#me523275377" x="109.664165" y="307.584" style="stroke: #000000; stroke-width: 0.8"/>
      </g>
     </g>
     <g id="text_2">
      <!-- 34 -->
      <g transform="translate(103.301665 322.182437) scale(0.1 -0.1)">
       <defs>
        <path id="DejaVuSans-33" d="M 2597 2516 
Q 3050 2419 3304 2112 
Q 3559 1806 3559 1356 
Q 3559 666 3084 287 
Q 2609 -91 1734 -91 
Q 1441 -91 1130 -33 
Q 819 25 488 141 
L 488 750 
Q 750 597 1062 519 
Q 1375 441 1716 441 
Q 2309 441 2620 675 
Q 2931 909 2931 1356 
Q 2931 1769 2642 2001 
Q 2353 2234 1838 2234 
L 1294 2234 
L 1294 2753 
L 1863 2753 
Q 2328 2753 2575 2939 
Q 2822 3125 2822 3475 
Q 2822 3834 2567 4026 
Q 2313 4219 1838 4219 
Q 1578 4219 1281 4162 
Q 984 4106 628 3988 
L 628 4550 
Q 988 4650 1302 4700 
Q 1616 4750 1894 4750 
Q 2613 4750 3031 4423 
Q 3450 4097 3450 3541 
Q 3450 3153 3228 2886 
Q 3006 2619 2597 2516 
z
" transform="scale(0.015625)"/>
        <path id="DejaVuSans-34" d="M 2419 4116 
L 825 1625 
L 2419 1625 
L 2419 4116 
z
M 2253 4666 
L 3047 4666 
L 3047 1625 
L 3713 1625 
L 3713 1100 
L 3047 1100 
L 3047 0 
L 2419 0 
L 2419 1100 
L 313 1100 
L 313 1709 
L 2253 4666 
z
" transform="scale(0.015625)"/>
       </defs>
       <use xlink:href="#DejaVuSans-33"/>
       <use xlink:href="#DejaVuSans-34" x="63.623047"/>
      </g>
     </g>
    </g>
    <g id="xtick_3">
     <g id="line2d_3">
      <g>
       <use xlink:href="#me523275377" x="145.495604" y="307.584" style="stroke: #000000; stroke-width: 0.8"/>
      </g>
     </g>
     <g id="text_3">
      <!-- 67 -->
      <g transform="translate(139.133104 322.182437) scale(0.1 -0.1)">
       <defs>
        <path id="DejaVuSans-36" d="M 2113 2584 
Q 1688 2584 1439 2293 
Q 1191 2003 1191 1497 
Q 1191 994 1439 701 
Q 1688 409 2113 409 
Q 2538 409 2786 701 
Q 3034 994 3034 1497 
Q 3034 2003 2786 2293 
Q 2538 2584 2113 2584 
z
M 3366 4563 
L 3366 3988 
Q 3128 4100 2886 4159 
Q 2644 4219 2406 4219 
Q 1781 4219 1451 3797 
Q 1122 3375 1075 2522 
Q 1259 2794 1537 2939 
Q 1816 3084 2150 3084 
Q 2853 3084 3261 2657 
Q 3669 2231 3669 1497 
Q 3669 778 3244 343 
Q 2819 -91 2113 -91 
Q 1303 -91 875 529 
Q 447 1150 447 2328 
Q 447 3434 972 4092 
Q 1497 4750 2381 4750 
Q 2619 4750 2861 4703 
Q 3103 4656 3366 4563 
z
" transform="scale(0.015625)"/>
        <path id="DejaVuSans-37" d="M 525 4666 
L 3525 4666 
L 3525 4397 
L 1831 0 
L 1172 0 
L 2766 4134 
L 525 4134 
L 525 4666 
z
" transform="scale(0.015625)"/>
       </defs>
       <use xlink:href="#DejaVuSans-36"/>
       <use xlink:href="#DejaVuSans-37" x="63.623047"/>
      </g>
     </g>
    </g>
    <g id="xtick_4">
     <g id="line2d_4">
      <g>
       <use xlink:href="#me523275377" x="181.327042" y="307.584" style="stroke: #000000; stroke-width: 0.8"/>
      </g>
     </g>
     <g id="text_4">
      <!-- 100 -->
      <g transform="translate(171.783292 322.182437) scale(0.1 -0.1)">
       <defs>
        <path id="DejaVuSans-30" d="M 2034 4250 
Q 1547 4250 1301 3770 
Q 1056 3291 1056 2328 
Q 1056 1369 1301 889 
Q 1547 409 2034 409 
Q 2525 409 2770 889 
Q 3016 1369 3016 2328 
Q 3016 3291 2770 3770 
Q 2525 4250 2034 4250 
z
M 2034 4750 
Q 2819 4750 3233 4129 
Q 3647 3509 3647 2328 
Q 3647 1150 3233 529 
Q 2819 -91 2034 -91 
Q 1250 -91 836 529 
Q 422 1150 422 2328 
Q 422 3509 836 4129 
Q 1250 4750 2034 4750 
z
" transform="scale(0.015625)"/>
       </defs>
       <use xlink:href="#DejaVuSans-31"/>
       <use xlink:href="#DejaVuSans-30" x="63.623047"/>
       <use xlink:href="#DejaVuSans-30" x="127.246094"/>
      </g>
     </g>
    </g>
    <g id="xtick_5">
     <g id="line2d_5">
      <g>
       <use xlink:href="#me523275377" x="217.15848" y="307.584" style="stroke: #000000; stroke-width: 0.8"/>
      </g>
     </g>
     <g id="text_5">
      <!-- 133 -->
      <g transform="translate(207.61473 322.182437) scale(0.1 -0.1)">
       <use xlink:href="#DejaVuSans-31"/>
       <use xlink:href="#DejaVuSans-33" x="63.623047"/>
       <use xlink:href="#DejaVuSans-33" x="127.246094"/>
      </g>
     </g>
    </g>
    <g id="xtick_6">
     <g id="line2d_6">
      <g>
       <use xlink:href="#me523275377" x="254.075719" y="307.584" style="stroke: #000000; stroke-width: 0.8"/>
      </g>
     </g>
     <g id="text_6">
      <!-- 167 -->
      <g transform="translate(244.531969 322.182437) scale(0.1 -0.1)">
       <use xlink:href="#DejaVuSans-31"/>
       <use xlink:href="#DejaVuSans-36" x="63.623047"/>
       <use xlink:href="#DejaVuSans-37" x="127.246094"/>
      </g>
     </g>
    </g>
    <g id="xtick_7">
     <g id="line2d_7">
      <g>
       <use xlink:href="#me523275377" x="289.907157" y="307.584" style="stroke: #000000; stroke-width: 0.8"/>
      </g>
     </g>
     <g id="text_7">
      <!-- 200 -->
      <g transform="translate(280.363407 322.182437) scale(0.1 -0.1)">
       <defs>
        <path id="DejaVuSans-32" d="M 1228 531 
L 3431 531 
L 3431 0 
L 469 0 
L 469 531 
Q 828 903 1448 1529 
Q 2069 2156 2228 2338 
Q 2531 2678 2651 2914 
Q 2772 3150 2772 3378 
Q 2772 3750 2511 3984 
Q 2250 4219 1831 4219 
Q 1534 4219 1204 4116 
Q 875 4013 500 3803 
L 500 4441 
Q 881 4594 1212 4672 
Q 1544 4750 1819 4750 
Q 2544 4750 2975 4387 
Q 3406 4025 3406 3419 
Q 3406 3131 3298 2873 
Q 3191 2616 2906 2266 
Q 2828 2175 2409 1742 
Q 1991 1309 1228 531 
z
" transform="scale(0.015625)"/>
       </defs>
       <use xlink:href="#DejaVuSans-32"/>
       <use xlink:href="#DejaVuSans-30" x="63.623047"/>
       <use xlink:href="#DejaVuSans-30" x="127.246094"/>
      </g>
     </g>
    </g>
    <g id="xtick_8">
     <g id="line2d_8">
      <g>
       <use xlink:href="#me523275377" x="325.738595" y="307.584" style="stroke: #000000; stroke-width: 0.8"/>
      </g>
     </g>
     <g id="text_8">
      <!-- 233 -->
      <g transform="translate(316.194845 322.182437) scale(0.1 -0.1)">
       <use xlink:href="#DejaVuSans-32"/>
       <use xlink:href="#DejaVuSans-33" x="63.623047"/>
       <use xlink:href="#DejaVuSans-33" x="127.246094"/>
      </g>
     </g>
    </g>
    <g id="xtick_9">
     <g id="line2d_9">
      <g>
       <use xlink:href="#me523275377" x="361.570033" y="307.584" style="stroke: #000000; stroke-width: 0.8"/>
      </g>
     </g>
     <g id="text_9">
      <!-- 266 -->
      <g transform="translate(352.026283 322.182437) scale(0.1 -0.1)">
       <use xlink:href="#DejaVuSans-32"/>
       <use xlink:href="#DejaVuSans-36" x="63.623047"/>
       <use xlink:href="#DejaVuSans-36" x="127.246094"/>
      </g>
     </g>
    </g>
    <g id="xtick_10">
     <g id="line2d_10">
      <g>
       <use xlink:href="#me523275377" x="398.487273" y="307.584" style="stroke: #000000; stroke-width: 0.8"/>
      </g>
     </g>
     <g id="text_10">
      <!-- 300 -->
      <g transform="translate(388.943523 322.182437) scale(0.1 -0.1)">
       <use xlink:href="#DejaVuSans-33"/>
       <use xlink:href="#DejaVuSans-30" x="63.623047"/>
       <use xlink:href="#DejaVuSans-30" x="127.246094"/>
      </g>
     </g>
    </g>
    <g id="text_11">
     <!-- Epochs -->
     <g transform="translate(218.244375 335.860562) scale(0.1 -0.1)">
      <defs>
       <path id="DejaVuSans-45" d="M 628 4666 
L 3578 4666 
L 3578 4134 
L 1259 4134 
L 1259 2753 
L 3481 2753 
L 3481 2222 
L 1259 2222 
L 1259 531 
L 3634 531 
L 3634 0 
L 628 0 
L 628 4666 
z
" transform="scale(0.015625)"/>
       <path id="DejaVuSans-70" d="M 1159 525 
L 1159 -1331 
L 581 -1331 
L 581 3500 
L 1159 3500 
L 1159 2969 
Q 1341 3281 1617 3432 
Q 1894 3584 2278 3584 
Q 2916 3584 3314 3078 
Q 3713 2572 3713 1747 
Q 3713 922 3314 415 
Q 2916 -91 2278 -91 
Q 1894 -91 1617 61 
Q 1341 213 1159 525 
z
M 3116 1747 
Q 3116 2381 2855 2742 
Q 2594 3103 2138 3103 
Q 1681 3103 1420 2742 
Q 1159 2381 1159 1747 
Q 1159 1113 1420 752 
Q 1681 391 2138 391 
Q 2594 391 2855 752 
Q 3116 1113 3116 1747 
z
" transform="scale(0.015625)"/>
       <path id="DejaVuSans-6f" d="M 1959 3097 
Q 1497 3097 1228 2736 
Q 959 2375 959 1747 
Q 959 1119 1226 758 
Q 1494 397 1959 397 
Q 2419 397 2687 759 
Q 2956 1122 2956 1747 
Q 2956 2369 2687 2733 
Q 2419 3097 1959 3097 
z
M 1959 3584 
Q 2709 3584 3137 3096 
Q 3566 2609 3566 1747 
Q 3566 888 3137 398 
Q 2709 -91 1959 -91 
Q 1206 -91 779 398 
Q 353 888 353 1747 
Q 353 2609 779 3096 
Q 1206 3584 1959 3584 
z
" transform="scale(0.015625)"/>
       <path id="DejaVuSans-63" d="M 3122 3366 
L 3122 2828 
Q 2878 2963 2633 3030 
Q 2388 3097 2138 3097 
Q 1578 3097 1268 2742 
Q 959 2388 959 1747 
Q 959 1106 1268 751 
Q 1578 397 2138 397 
Q 2388 397 2633 464 
Q 2878 531 3122 666 
L 3122 134 
Q 2881 22 2623 -34 
Q 2366 -91 2075 -91 
Q 1284 -91 818 406 
Q 353 903 353 1747 
Q 353 2603 823 3093 
Q 1294 3584 2113 3584 
Q 2378 3584 2631 3529 
Q 2884 3475 3122 3366 
z
" transform="scale(0.015625)"/>
       <path id="DejaVuSans-68" d="M 3513 2113 
L 3513 0 
L 2938 0 
L 2938 2094 
Q 2938 2591 2744 2837 
Q 2550 3084 2163 3084 
Q 1697 3084 1428 2787 
Q 1159 2491 1159 1978 
L 1159 0 
L 581 0 
L 581 4863 
L 1159 4863 
L 1159 2956 
Q 1366 3272 1645 3428 
Q 1925 3584 2291 3584 
Q 2894 3584 3203 3211 
Q 3513 2838 3513 2113 
z
" transform="scale(0.015625)"/>
       <path id="DejaVuSans-73" d="M 2834 3397 
L 2834 2853 
Q 2591 2978 2328 3040 
Q 2066 3103 1784 3103 
Q 1356 3103 1142 2972 
Q 928 2841 928 2578 
Q 928 2378 1081 2264 
Q 1234 2150 1697 2047 
L 1894 2003 
Q 2506 1872 2764 1633 
Q 3022 1394 3022 966 
Q 3022 478 2636 193 
Q 2250 -91 1575 -91 
Q 1294 -91 989 -36 
Q 684 19 347 128 
L 347 722 
Q 666 556 975 473 
Q 1284 391 1588 391 
Q 1994 391 2212 530 
Q 2431 669 2431 922 
Q 2431 1156 2273 1281 
Q 2116 1406 1581 1522 
L 1381 1569 
Q 847 1681 609 1914 
Q 372 2147 372 2553 
Q 372 3047 722 3315 
Q 1072 3584 1716 3584 
Q 2034 3584 2315 3537 
Q 2597 3491 2834 3397 
z
" transform="scale(0.015625)"/>
      </defs>
      <use xlink:href="#DejaVuSans-45"/>
      <use xlink:href="#DejaVuSans-70" x="63.183594"/>
      <use xlink:href="#DejaVuSans-6f" x="126.660156"/>
      <use xlink:href="#DejaVuSans-63" x="187.841797"/>
      <use xlink:href="#DejaVuSans-68" x="242.822266"/>
      <use xlink:href="#DejaVuSans-73" x="306.201172"/>
     </g>
    </g>
   </g>
   <g id="matplotlib.axis_2">
    <g id="ytick_1">
     <g id="line2d_11">
      <defs>
       <path id="m0a04a98608" d="M 0 0 
L -3.5 0 
" style="stroke: #000000; stroke-width: 0.8"/>
      </defs>
      <g>
       <use xlink:href="#m0a04a98608" x="57.6" y="304.844318" style="stroke: #000000; stroke-width: 0.8"/>
      </g>
     </g>
     <g id="text_12">
      <!-- 0 -->
      <g transform="translate(44.2375 308.643537) scale(0.1 -0.1)">
       <use xlink:href="#DejaVuSans-30"/>
      </g>
     </g>
    </g>
    <g id="ytick_2">
     <g id="line2d_12">
      <g>
       <use xlink:href="#m0a04a98608" x="57.6" y="269.116134" style="stroke: #000000; stroke-width: 0.8"/>
      </g>
     </g>
     <g id="text_13">
      <!-- 10 -->
      <g transform="translate(37.875 272.915353) scale(0.1 -0.1)">
       <use xlink:href="#DejaVuSans-31"/>
       <use xlink:href="#DejaVuSans-30" x="63.623047"/>
      </g>
     </g>
    </g>
    <g id="ytick_3">
     <g id="line2d_13">
      <g>
       <use xlink:href="#m0a04a98608" x="57.6" y="233.38795" style="stroke: #000000; stroke-width: 0.8"/>
      </g>
     </g>
     <g id="text_14">
      <!-- 20 -->
      <g transform="translate(37.875 237.187169) scale(0.1 -0.1)">
       <use xlink:href="#DejaVuSans-32"/>
       <use xlink:href="#DejaVuSans-30" x="63.623047"/>
      </g>
     </g>
    </g>
    <g id="ytick_4">
     <g id="line2d_14">
      <g>
       <use xlink:href="#m0a04a98608" x="57.6" y="197.659766" style="stroke: #000000; stroke-width: 0.8"/>
      </g>
     </g>
     <g id="text_15">
      <!-- 30 -->
      <g transform="translate(37.875 201.458985) scale(0.1 -0.1)">
       <use xlink:href="#DejaVuSans-33"/>
       <use xlink:href="#DejaVuSans-30" x="63.623047"/>
      </g>
     </g>
    </g>
    <g id="ytick_5">
     <g id="line2d_15">
      <g>
       <use xlink:href="#m0a04a98608" x="57.6" y="161.931582" style="stroke: #000000; stroke-width: 0.8"/>
      </g>
     </g>
     <g id="text_16">
      <!-- 40 -->
      <g transform="translate(37.875 165.730801) scale(0.1 -0.1)">
       <use xlink:href="#DejaVuSans-34"/>
       <use xlink:href="#DejaVuSans-30" x="63.623047"/>
      </g>
     </g>
    </g>
    <g id="ytick_6">
     <g id="line2d_16">
      <g>
       <use xlink:href="#m0a04a98608" x="57.6" y="126.203398" style="stroke: #000000; stroke-width: 0.8"/>
      </g>
     </g>
     <g id="text_17">
      <!-- 50 -->
      <g transform="translate(37.875 130.002617) scale(0.1 -0.1)">
       <defs>
        <path id="DejaVuSans-35" d="M 691 4666 
L 3169 4666 
L 3169 4134 
L 1269 4134 
L 1269 2991 
Q 1406 3038 1543 3061 
Q 1681 3084 1819 3084 
Q 2600 3084 3056 2656 
Q 3513 2228 3513 1497 
Q 3513 744 3044 326 
Q 2575 -91 1722 -91 
Q 1428 -91 1123 -41 
Q 819 9 494 109 
L 494 744 
Q 775 591 1075 516 
Q 1375 441 1709 441 
Q 2250 441 2565 725 
Q 2881 1009 2881 1497 
Q 2881 1984 2565 2268 
Q 2250 2553 1709 2553 
Q 1456 2553 1204 2497 
Q 953 2441 691 2322 
L 691 4666 
z
" transform="scale(0.015625)"/>
       </defs>
       <use xlink:href="#DejaVuSans-35"/>
       <use xlink:href="#DejaVuSans-30" x="63.623047"/>
      </g>
     </g>
    </g>
    <g id="ytick_7">
     <g id="line2d_17">
      <g>
       <use xlink:href="#m0a04a98608" x="57.6" y="90.475214" style="stroke: #000000; stroke-width: 0.8"/>
      </g>
     </g>
     <g id="text_18">
      <!-- 60 -->
      <g transform="translate(37.875 94.274433) scale(0.1 -0.1)">
       <use xlink:href="#DejaVuSans-36"/>
       <use xlink:href="#DejaVuSans-30" x="63.623047"/>
      </g>
     </g>
    </g>
    <g id="ytick_8">
     <g id="line2d_18">
      <g>
       <use xlink:href="#m0a04a98608" x="57.6" y="54.74703" style="stroke: #000000; stroke-width: 0.8"/>
      </g>
     </g>
     <g id="text_19">
      <!-- 70 -->
      <g transform="translate(37.875 58.546249) scale(0.1 -0.1)">
       <use xlink:href="#DejaVuSans-37"/>
       <use xlink:href="#DejaVuSans-30" x="63.623047"/>
      </g>
     </g>
    </g>
    <g id="text_20">
     <!-- Accuracy -->
     <g transform="translate(31.795312 197.356125) rotate(-90) scale(0.1 -0.1)">
      <defs>
       <path id="DejaVuSans-41" d="M 2188 4044 
L 1331 1722 
L 3047 1722 
L 2188 4044 
z
M 1831 4666 
L 2547 4666 
L 4325 0 
L 3669 0 
L 3244 1197 
L 1141 1197 
L 716 0 
L 50 0 
L 1831 4666 
z
" transform="scale(0.015625)"/>
       <path id="DejaVuSans-75" d="M 544 1381 
L 544 3500 
L 1119 3500 
L 1119 1403 
Q 1119 906 1312 657 
Q 1506 409 1894 409 
Q 2359 409 2629 706 
Q 2900 1003 2900 1516 
L 2900 3500 
L 3475 3500 
L 3475 0 
L 2900 0 
L 2900 538 
Q 2691 219 2414 64 
Q 2138 -91 1772 -91 
Q 1169 -91 856 284 
Q 544 659 544 1381 
z
M 1991 3584 
L 1991 3584 
z
" transform="scale(0.015625)"/>
       <path id="DejaVuSans-72" d="M 2631 2963 
Q 2534 3019 2420 3045 
Q 2306 3072 2169 3072 
Q 1681 3072 1420 2755 
Q 1159 2438 1159 1844 
L 1159 0 
L 581 0 
L 581 3500 
L 1159 3500 
L 1159 2956 
Q 1341 3275 1631 3429 
Q 1922 3584 2338 3584 
Q 2397 3584 2469 3576 
Q 2541 3569 2628 3553 
L 2631 2963 
z
" transform="scale(0.015625)"/>
       <path id="DejaVuSans-61" d="M 2194 1759 
Q 1497 1759 1228 1600 
Q 959 1441 959 1056 
Q 959 750 1161 570 
Q 1363 391 1709 391 
Q 2188 391 2477 730 
Q 2766 1069 2766 1631 
L 2766 1759 
L 2194 1759 
z
M 3341 1997 
L 3341 0 
L 2766 0 
L 2766 531 
Q 2569 213 2275 61 
Q 1981 -91 1556 -91 
Q 1019 -91 701 211 
Q 384 513 384 1019 
Q 384 1609 779 1909 
Q 1175 2209 1959 2209 
L 2766 2209 
L 2766 2266 
Q 2766 2663 2505 2880 
Q 2244 3097 1772 3097 
Q 1472 3097 1187 3025 
Q 903 2953 641 2809 
L 641 3341 
Q 956 3463 1253 3523 
Q 1550 3584 1831 3584 
Q 2591 3584 2966 3190 
Q 3341 2797 3341 1997 
z
" transform="scale(0.015625)"/>
       <path id="DejaVuSans-79" d="M 2059 -325 
Q 1816 -950 1584 -1140 
Q 1353 -1331 966 -1331 
L 506 -1331 
L 506 -850 
L 844 -850 
Q 1081 -850 1212 -737 
Q 1344 -625 1503 -206 
L 1606 56 
L 191 3500 
L 800 3500 
L 1894 763 
L 2988 3500 
L 3597 3500 
L 2059 -325 
z
" transform="scale(0.015625)"/>
      </defs>
      <use xlink:href="#DejaVuSans-41"/>
      <use xlink:href="#DejaVuSans-63" x="66.658203"/>
      <use xlink:href="#DejaVuSans-63" x="121.638672"/>
      <use xlink:href="#DejaVuSans-75" x="176.619141"/>
      <use xlink:href="#DejaVuSans-72" x="239.998047"/>
      <use xlink:href="#DejaVuSans-61" x="281.111328"/>
      <use xlink:href="#DejaVuSans-63" x="342.390625"/>
      <use xlink:href="#DejaVuSans-79" x="397.371094"/>
     </g>
    </g>
   </g>
   <g id="line2d_19">
    <path d="M 73.832727 295.488 
L 76.00433 269.853028 
L 77.090131 258.982728 
L 79.261733 240.948927 
L 81.433335 224.46037 
L 82.519137 219.498619 
L 83.604938 212.152011 
L 84.690739 208.08793 
L 85.77654 201.835498 
L 86.862341 198.289475 
L 89.033943 190.228304 
L 90.119745 188.075681 
L 91.205546 184.038396 
L 92.291347 182.372569 
L 93.377148 178.692566 
L 94.462949 179.027518 
L 95.54875 205.073364 
L 96.634552 203.813946 
L 97.720353 200.388506 
L 99.891955 194.100346 
L 100.977756 192.041509 
L 104.23516 183.591794 
L 105.320961 180.184218 
L 106.406762 179.907325 
L 107.492563 177.379556 
L 108.578364 174.302466 
L 109.664165 173.07431 
L 110.749967 169.800715 
L 111.835768 168.786927 
L 112.921569 164.557604 
L 114.00737 163.735855 
L 115.093171 161.601096 
L 116.178972 159.729833 
L 117.264773 156.974297 
L 118.350575 155.536237 
L 119.436376 151.999147 
L 120.522177 150.194874 
L 121.607978 147.979726 
L 122.693779 147.229434 
L 123.77958 144.822248 
L 124.865382 142.781275 
L 127.036984 139.288846 
L 128.122785 137.864184 
L 129.208586 135.841076 
L 130.294387 134.496803 
L 131.380189 134.228841 
L 132.46599 133.576802 
L 133.551791 133.451753 
L 134.637592 131.062431 
L 135.723393 130.834664 
L 136.809194 129.450197 
L 137.894995 131.057965 
L 138.980797 164.061875 
L 140.066598 166.558382 
L 141.152399 166.915664 
L 142.2382 165.709838 
L 143.324001 162.940903 
L 144.409802 163.994885 
L 145.495604 164.017215 
L 146.581405 161.480514 
L 147.667206 159.488668 
L 148.753007 159.207308 
L 149.838808 158.434686 
L 150.924609 156.719733 
L 152.01041 156.335655 
L 153.096212 155.567499 
L 154.182013 153.999925 
L 155.267814 153.660508 
L 156.353615 151.766914 
L 157.439416 151.579341 
L 158.525217 150.373515 
L 160.69682 148.36827 
L 161.782621 147.488464 
L 162.868422 147.032929 
L 163.954223 145.782443 
L 165.040024 144.826714 
L 166.125825 143.062635 
L 167.211627 142.781275 
L 168.297428 143.277004 
L 169.383229 141.093119 
L 170.46903 140.293701 
L 171.554831 140.539332 
L 172.640632 138.158942 
L 173.726434 137.533698 
L 175.898036 134.956803 
L 176.983837 134.831755 
L 178.069638 134.559327 
L 179.155439 132.540685 
L 180.24124 132.201267 
L 181.327042 130.803402 
L 182.412843 129.807479 
L 183.498644 130.164761 
L 184.584445 128.284565 
L 185.670246 127.753108 
L 186.756047 126.574078 
L 187.841849 124.582232 
L 188.92765 123.014658 
L 191.099252 121.527472 
L 192.185053 121.19252 
L 193.270854 120.259121 
L 194.356656 120.147471 
L 195.442457 117.128439 
L 196.528258 116.735429 
L 198.69986 114.792709 
L 199.785661 114.247855 
L 200.871462 113.077757 
L 201.957264 110.782221 
L 203.043065 110.174842 
L 205.214667 108.513481 
L 206.300468 108.830569 
L 207.386269 108.316976 
L 208.472071 106.776198 
L 210.643673 105.003187 
L 211.729474 105.181828 
L 212.815275 104.038526 
L 213.901076 103.828623 
L 214.986877 102.823768 
L 216.072679 102.314641 
L 217.15848 101.957359 
L 218.244281 101.073087 
L 219.330082 100.595222 
L 221.501684 101.497359 
L 222.587486 99.978911 
L 223.673287 101.979689 
L 224.759088 101.332116 
L 225.844889 143.661082 
L 226.93069 148.127105 
L 229.102292 147.988658 
L 230.188094 146.957007 
L 231.273895 146.555065 
L 232.359696 147.193706 
L 233.445497 145.371569 
L 234.531298 144.429238 
L 235.617099 143.728072 
L 236.702901 144.572151 
L 237.788702 143.495839 
L 238.874503 143.732538 
L 239.960304 142.325741 
L 241.046105 141.602245 
L 242.131906 142.071178 
L 243.217708 141.870207 
L 244.303509 142.40613 
L 245.38931 140.557196 
L 246.475111 139.297778 
L 247.560912 138.556418 
L 249.732514 138.931564 
L 251.904117 137.984767 
L 252.989918 138.033893 
L 254.075719 136.698552 
L 255.16152 137.703407 
L 256.247321 137.38632 
L 257.333123 135.921464 
L 258.418924 136.31894 
L 259.504725 135.640105 
L 260.590526 134.336026 
L 261.676327 135.05059 
L 263.847929 133.737579 
L 264.933731 133.724181 
L 266.019532 132.705928 
L 267.105333 132.938161 
L 268.191134 132.563015 
L 269.276935 132.044956 
L 270.362736 130.611363 
L 271.448538 130.374664 
L 272.534339 130.923984 
L 273.62014 129.597576 
L 274.705941 129.570779 
L 275.791742 130.146896 
L 276.877543 130.396994 
L 277.963344 128.463206 
L 279.049146 128.909808 
L 280.134947 126.984952 
L 281.220748 126.547282 
L 282.306549 128.686507 
L 283.39235 128.226507 
L 284.478151 126.404369 
L 285.563953 126.792913 
L 287.735555 126.462427 
L 288.821356 125.524563 
L 289.907157 124.327668 
L 290.992958 125.332524 
L 292.07876 125.149417 
L 293.164561 124.408057 
L 294.250362 122.791357 
L 295.336163 122.300094 
L 296.421964 123.805144 
L 297.507765 121.683783 
L 298.593566 121.424753 
L 299.679368 120.652132 
L 300.765169 122.166113 
L 302.936771 120.31718 
L 304.022572 119.910772 
L 305.108373 118.316401 
L 306.194175 118.37446 
L 307.279976 117.771547 
L 308.365777 118.570965 
L 309.451578 117.400867 
L 310.537379 115.543001 
L 311.62318 116.257565 
L 312.708981 114.765913 
L 313.794783 115.467079 
L 314.880584 115.056205 
L 315.966385 113.537757 
L 317.052186 113.452902 
L 318.137987 112.595426 
L 319.223788 113.363582 
L 320.30959 111.822804 
L 321.395391 112.644552 
L 323.566993 110.64824 
L 324.652794 109.384355 
L 325.738595 110.590182 
L 326.824396 108.835035 
L 327.910198 107.803383 
L 328.995999 106.995033 
L 330.0818 108.558141 
L 331.167601 106.432314 
L 332.253402 106.383188 
L 333.339203 105.570372 
L 334.425005 106.401052 
L 335.510806 105.655226 
L 336.596607 104.275225 
L 337.682408 104.042992 
L 338.768209 103.489205 
L 339.85401 103.542797 
L 340.939811 101.582213 
L 342.025613 101.899301 
L 343.111414 102.689787 
L 344.197215 101.140077 
L 346.368817 99.072308 
L 347.454618 98.581046 
L 348.54042 98.304152 
L 349.626221 97.218909 
L 350.712022 99.148231 
L 351.797823 96.120267 
L 352.883624 96.660656 
L 353.969425 95.079684 
L 355.055227 95.021626 
L 356.141028 94.36512 
L 357.226829 93.293275 
L 358.31263 94.619683 
L 359.398431 93.681819 
L 360.484232 93.226284 
L 361.570033 92.359876 
L 362.655835 90.711913 
L 363.741636 91.189778 
L 364.827437 90.242981 
L 365.913238 90.381428 
L 366.999039 90.059874 
L 368.08484 90.841428 
L 369.170642 92.842206 
L 370.256443 92.05172 
L 371.342244 95.852306 
L 372.428045 97.415414 
L 374.599647 96.825899 
L 375.685448 98.625706 
L 376.77125 98.357745 
L 377.857051 96.660656 
L 378.942852 97.433278 
L 380.028653 99.652891 
L 382.200255 97.053666 
L 383.286057 98.978522 
L 384.371858 97.754832 
L 385.457659 98.304152 
L 386.54346 97.728035 
L 387.629261 97.777162 
L 388.715062 97.388618 
L 389.800863 97.786094 
L 390.886665 97.853084 
L 391.972466 98.683764 
L 393.058267 97.862016 
L 394.144068 97.714637 
L 395.229869 98.089783 
L 396.31567 97.777162 
L 397.401472 97.7459 
L 398.487273 96.834831 
L 398.487273 96.834831 
" clip-path="url(#p17d7f76ce6)" style="fill: none; stroke: #1f77b4; stroke-width: 1.5; stroke-linecap: square"/>
   </g>
   <g id="line2d_20">
    <path d="M 73.832727 286.319255 
L 74.918528 262.667197 
L 77.090131 230.94057 
L 78.175932 219.150269 
L 79.261733 216.559975 
L 80.347534 207.109871 
L 81.433335 192.943646 
L 82.519137 185.422863 
L 83.604938 186.744806 
L 84.690739 172.417804 
L 85.77654 168.451976 
L 86.862341 165.522265 
L 87.948142 156.07216 
L 90.119745 152.124196 
L 91.205546 146.586327 
L 92.291347 144.174675 
L 93.377148 143.620888 
L 94.462949 142.156032 
L 95.54875 177.526934 
L 96.634552 172.257027 
L 97.720353 165.361488 
L 98.806154 160.663232 
L 99.891955 159.287697 
L 100.977756 152.463613 
L 102.063557 155.37546 
L 103.149358 147.461668 
L 104.23516 149.516038 
L 105.320961 142.906324 
L 106.406762 141.959527 
L 107.492563 137.100494 
L 108.578364 135.081852 
L 109.664165 132.741656 
L 110.749967 129.025925 
L 111.835768 131.437577 
L 112.921569 124.113299 
L 114.00737 122.023201 
L 115.093171 121.433686 
L 116.178972 117.592906 
L 117.264773 114.609602 
L 118.350575 115.860089 
L 119.436376 109.732705 
L 120.522177 108.839501 
L 121.607978 107.267461 
L 122.693779 104.695031 
L 123.77958 101.140077 
L 124.865382 99.728814 
L 125.951183 98.656968 
L 127.036984 99.175027 
L 128.122785 96.102403 
L 129.208586 94.744732 
L 130.294387 93.154828 
L 131.380189 92.583177 
L 133.551791 90.886088 
L 134.637592 90.921816 
L 135.723393 90.225117 
L 136.809194 90.653855 
L 137.894995 90.528806 
L 138.980797 129.418935 
L 140.066598 128.364953 
L 142.2382 123.202231 
L 143.324001 117.342808 
L 144.409802 124.524173 
L 145.495604 121.415821 
L 146.581405 117.789411 
L 147.667206 119.397179 
L 148.753007 117.61077 
L 149.838808 116.199507 
L 150.924609 117.324944 
L 152.01041 116.556788 
L 153.096212 110.554454 
L 154.182013 115.038341 
L 155.267814 112.28727 
L 156.353615 111.233289 
L 157.439416 110.679502 
L 158.525217 107.749791 
L 160.69682 105.088041 
L 161.782621 108.607267 
L 162.868422 104.802216 
L 163.954223 104.462798 
L 166.125825 108.482219 
L 167.211627 102.694253 
L 168.297428 98.799881 
L 169.383229 98.406871 
L 170.46903 97.477938 
L 171.554831 95.923762 
L 172.640632 99.264347 
L 173.726434 94.208809 
L 174.812235 97.710171 
L 175.898036 92.02939 
L 176.983837 93.529974 
L 178.069638 90.778904 
L 179.155439 89.867835 
L 180.24124 89.903563 
L 181.327042 87.223949 
L 182.412843 85.723366 
L 183.498644 88.849582 
L 184.584445 86.902396 
L 185.670246 83.919092 
L 186.756047 85.241035 
L 187.841849 86.169968 
L 188.92765 83.097344 
L 190.013451 80.81074 
L 191.099252 82.079091 
L 192.185053 78.05967 
L 193.270854 78.36336 
L 194.356656 76.898504 
L 195.442457 77.327242 
L 196.528258 76.987825 
L 197.614059 76.291125 
L 198.69986 74.826269 
L 199.785661 74.540444 
L 200.871462 70.413839 
L 201.957264 71.07481 
L 203.043065 70.842577 
L 204.128866 69.699275 
L 205.214667 69.467042 
L 206.300468 66.483739 
L 207.386269 67.269759 
L 209.557872 66.412282 
L 210.643673 66.626651 
L 211.729474 64.322183 
L 212.815275 65.126068 
L 213.901076 64.322183 
L 216.072679 63.768397 
L 217.15848 62.267813 
L 218.244281 62.42859 
L 219.330082 62.053444 
L 220.415883 62.607231 
L 222.587486 62.214221 
L 223.673287 62.8216 
L 224.759088 62.214221 
L 225.844889 112.233678 
L 226.93069 113.162611 
L 228.016491 108.392898 
L 229.102292 110.250764 
L 230.188094 110.572318 
L 231.273895 111.269017 
L 232.359696 114.698923 
L 233.445497 105.463187 
L 234.531298 104.337749 
L 235.617099 112.269406 
L 236.702901 104.105516 
L 237.788702 105.90979 
L 238.874503 101.943961 
L 239.960304 99.31794 
L 241.046105 101.890369 
L 242.131906 109.679113 
L 243.217708 98.389007 
L 244.303509 100.068231 
L 245.38931 99.389396 
L 246.475111 101.157941 
L 247.560912 100.354057 
L 248.646713 105.30241 
L 249.732514 98.013861 
L 250.818316 95.977354 
L 251.904117 97.424346 
L 252.989918 102.783573 
L 254.075719 96.495413 
L 255.16152 96.084539 
L 256.247321 95.548616 
L 257.333123 93.90512 
L 258.418924 98.121045 
L 259.504725 92.458128 
L 260.590526 93.976576 
L 261.676327 95.262791 
L 262.762128 92.904731 
L 263.847929 97.978133 
L 264.933731 97.067064 
L 266.019532 94.012304 
L 267.105333 92.404536 
L 268.191134 91.064729 
L 269.276935 94.101625 
L 270.362736 92.904731 
L 271.448538 101.265126 
L 272.534339 95.941626 
L 273.62014 92.4224 
L 274.705941 91.332691 
L 275.791742 88.402979 
L 276.877543 87.188221 
L 277.963344 93.369197 
L 279.049146 93.011915 
L 280.134947 88.313659 
L 281.220748 90.76104 
L 282.306549 87.188221 
L 284.478151 87.170357 
L 285.563953 87.40259 
L 286.649754 83.847636 
L 287.735555 88.617349 
L 288.821356 84.705112 
L 289.907157 84.580064 
L 290.992958 82.543557 
L 292.07876 87.277542 
L 293.164561 86.259288 
L 294.250362 86.009191 
L 295.336163 89.36764 
L 296.421964 90.600263 
L 297.507765 82.68647 
L 298.593566 83.668995 
L 299.679368 82.936567 
L 300.765169 82.525693 
L 301.85097 80.256953 
L 302.936771 79.649574 
L 304.022572 79.774623 
L 305.108373 80.507051 
L 306.194175 79.953264 
L 307.279976 79.256564 
L 308.365777 77.66666 
L 309.451578 77.559476 
L 310.537379 76.684135 
L 311.62318 76.809184 
L 312.708981 77.452291 
L 313.794783 78.952875 
L 314.880584 76.166076 
L 315.966385 76.844912 
L 317.052186 73.147045 
L 318.137987 76.737727 
L 319.223788 75.255008 
L 320.30959 74.576172 
L 321.395391 72.468209 
L 322.481192 71.235587 
L 323.566993 72.575394 
L 324.652794 71.271315 
L 325.738595 71.914422 
L 326.824396 69.163352 
L 327.910198 72.843355 
L 328.995999 68.895391 
L 330.0818 69.252673 
L 331.167601 68.23442 
L 332.253402 68.788206 
L 333.339203 68.23442 
L 334.425005 66.966069 
L 335.510806 66.805292 
L 336.596607 65.001019 
L 337.682408 66.44801 
L 338.768209 67.108982 
L 339.85401 66.680244 
L 340.939811 65.536942 
L 342.025613 65.501213 
L 343.111414 65.912088 
L 344.197215 63.821989 
L 345.283016 63.321794 
L 346.368817 63.21461 
L 347.454618 60.392083 
L 348.54042 60.320627 
L 349.626221 61.678298 
L 350.712022 60.052665 
L 351.797823 61.106647 
L 353.969425 58.212664 
L 355.055227 58.569946 
L 356.141028 57.301595 
L 357.226829 59.320238 
L 358.31263 58.427033 
L 359.398431 56.926449 
L 360.484232 55.83674 
L 361.570033 55.44373 
L 362.655835 55.979652 
L 363.741636 54.407612 
L 364.827437 55.068584 
L 365.913238 54.05033 
L 366.999039 53.568 
L 368.08484 56.497711 
L 369.170642 58.123343 
L 370.256443 57.819654 
L 371.342244 58.373441 
L 372.428045 63.286066 
L 373.513846 62.446454 
L 374.599647 61.178103 
L 375.685448 64.375776 
L 376.77125 59.874024 
L 377.857051 61.392472 
L 378.942852 63.750532 
L 380.028653 60.534996 
L 381.114454 63.393251 
L 382.200255 61.285288 
L 383.286057 62.732279 
L 384.371858 62.982376 
L 385.457659 61.142375 
L 386.54346 62.089172 
L 387.629261 62.142764 
L 388.715062 64.340047 
L 389.800863 61.481793 
L 390.886665 62.839464 
L 391.972466 63.339658 
L 393.058267 61.981987 
L 394.144068 61.64257 
L 395.229869 61.839075 
L 396.31567 62.214221 
L 397.401472 61.803346 
L 398.487273 65.483349 
L 398.487273 65.483349 
" clip-path="url(#p17d7f76ce6)" style="fill: none; stroke: #ff7f0e; stroke-width: 1.5; stroke-linecap: square"/>
   </g>
   <g id="line2d_21">
    <path d="M 73.832727 292.893857 
L 74.918528 275.276166 
L 76.00433 270.594542 
L 77.090131 258.767281 
L 78.175932 253.223252 
L 79.261733 251.375243 
L 80.347534 249.034431 
L 81.433335 238.439176 
L 82.519137 229.075928 
L 83.604938 237.20717 
L 84.690739 222.299893 
L 85.77654 220.821485 
L 86.862341 220.451884 
L 87.948142 211.827839 
L 89.033943 208.008619 
L 91.205546 203.942999 
L 92.291347 201.725387 
L 93.377148 202.464591 
L 94.462949 200.616581 
L 95.54875 230.677536 
L 97.720353 219.219877 
L 98.806154 216.755864 
L 99.891955 213.675849 
L 100.977756 205.298205 
L 102.063557 211.827839 
L 103.149358 206.283811 
L 104.23516 206.407011 
L 105.320961 202.464591 
L 106.406762 205.175005 
L 107.492563 200.862983 
L 108.578364 194.45655 
L 109.664165 194.086948 
L 110.749967 192.485339 
L 111.835768 194.333349 
L 112.921569 186.81811 
L 114.00737 188.78932 
L 115.093171 182.259687 
L 116.178972 185.339703 
L 117.264773 176.346056 
L 118.350575 182.382887 
L 119.436376 172.526837 
L 120.522177 174.621247 
L 121.607978 172.896439 
L 122.693779 169.693222 
L 123.77958 165.257999 
L 124.865382 166.859608 
L 125.951183 164.149194 
L 127.036984 165.750802 
L 129.208586 160.206773 
L 130.294387 163.163588 
L 132.46599 161.069178 
L 133.551791 157.003557 
L 134.637592 158.358764 
L 135.723393 155.77155 
L 136.809194 157.126757 
L 137.894995 156.264353 
L 138.980797 191.622935 
L 140.066598 191.992537 
L 141.152399 190.144527 
L 142.2382 181.274082 
L 143.324001 180.658079 
L 144.409802 189.898126 
L 145.495604 184.230897 
L 146.581405 181.150881 
L 147.667206 184.600499 
L 148.753007 180.042075 
L 149.838808 185.462903 
L 150.924609 182.87569 
L 152.01041 180.658079 
L 153.096212 175.483652 
L 154.182013 174.005244 
L 155.267814 181.643684 
L 156.353615 179.179671 
L 157.439416 174.374846 
L 158.525217 173.019639 
L 159.611019 174.128445 
L 160.69682 173.512442 
L 161.782621 178.93327 
L 162.868422 170.802028 
L 163.954223 169.32362 
L 165.040024 178.317267 
L 166.125825 176.715658 
L 167.211627 171.048429 
L 169.383229 164.765197 
L 170.46903 163.902792 
L 171.554831 161.43878 
L 172.640632 170.802028 
L 173.726434 166.243604 
L 174.812235 166.613206 
L 175.898036 157.003557 
L 176.983837 168.091614 
L 178.069638 159.837171 
L 179.155439 156.510754 
L 180.24124 157.742761 
L 181.327042 156.141152 
L 182.412843 157.742761 
L 184.584445 164.025993 
L 185.670246 157.865961 
L 186.756047 154.909146 
L 187.841849 154.539544 
L 188.92765 147.763509 
L 190.013451 146.408302 
L 191.099252 152.321933 
L 192.185053 148.133111 
L 193.270854 148.995515 
L 194.356656 145.299496 
L 195.442457 147.024305 
L 196.528258 147.517108 
L 197.614059 145.792299 
L 198.69986 149.241917 
L 199.785661 143.328286 
L 200.871462 138.030659 
L 201.957264 135.689847 
L 203.043065 140.24827 
L 204.128866 138.769863 
L 205.214667 139.262665 
L 206.300468 132.733032 
L 207.386269 135.443446 
L 208.472071 136.059449 
L 209.557872 132.856232 
L 210.643673 135.566646 
L 211.729474 131.993828 
L 212.815275 134.704242 
L 213.901076 132.979433 
L 214.986877 132.240229 
L 216.072679 132.733032 
L 217.15848 130.145818 
L 218.244281 131.624226 
L 219.330082 131.501025 
L 220.415883 130.39222 
L 221.501684 129.899417 
L 222.587486 129.283414 
L 223.673287 129.653016 
L 224.759088 130.638621 
L 225.844889 175.976454 
L 226.93069 187.064512 
L 228.016491 177.947665 
L 229.102292 175.606853 
L 230.188094 177.331661 
L 231.273895 180.042075 
L 232.359696 177.208461 
L 233.445497 173.266041 
L 234.531298 168.338015 
L 235.617099 182.752489 
L 236.702901 170.309225 
L 237.788702 170.802028 
L 238.874503 165.874002 
L 239.960304 162.547585 
L 241.046105 166.982808 
L 242.131906 175.976454 
L 243.217708 164.149194 
L 244.303509 162.424385 
L 245.38931 163.163588 
L 246.475111 172.403636 
L 247.560912 170.309225 
L 248.646713 172.773238 
L 249.732514 165.997203 
L 250.818316 162.301184 
L 251.904117 163.040388 
L 252.989918 171.048429 
L 254.075719 159.097968 
L 255.16152 167.106009 
L 256.247321 160.822776 
L 257.333123 159.097968 
L 258.418924 169.693222 
L 259.504725 163.779592 
L 260.590526 164.888397 
L 261.676327 158.481964 
L 262.762128 161.069178 
L 263.847929 167.598811 
L 264.933731 169.693222 
L 266.019532 159.344369 
L 267.105333 165.627601 
L 268.191134 162.917187 
L 269.276935 159.097968 
L 270.362736 162.424385 
L 271.448538 171.17163 
L 272.534339 165.3812 
L 273.62014 157.742761 
L 274.705941 160.822776 
L 275.791742 157.61956 
L 276.877543 152.937936 
L 277.963344 164.149194 
L 279.049146 156.510754 
L 280.134947 155.032347 
L 281.220748 162.670786 
L 282.306549 155.155547 
L 283.39235 152.198732 
L 284.478151 156.510754 
L 285.563953 152.568334 
L 286.649754 149.981121 
L 287.735555 156.757155 
L 288.821356 148.256312 
L 289.907157 158.851566 
L 290.992958 151.459528 
L 292.07876 150.104321 
L 293.164561 157.496359 
L 294.250362 155.278748 
L 295.336163 159.221168 
L 296.421964 158.358764 
L 297.507765 149.241917 
L 298.593566 148.872315 
L 299.679368 151.213127 
L 300.765169 152.814735 
L 301.85097 148.379512 
L 302.936771 141.480277 
L 304.022572 148.995515 
L 305.108373 144.929895 
L 306.194175 149.488318 
L 307.279976 147.517108 
L 308.365777 151.213127 
L 309.451578 143.697888 
L 310.537379 141.480277 
L 311.62318 144.06749 
L 312.708981 147.517108 
L 313.794783 146.285102 
L 314.880584 142.958684 
L 315.966385 144.06749 
L 317.052186 137.414656 
L 318.137987 140.617872 
L 319.223788 144.313891 
L 320.30959 135.197044 
L 321.395391 141.233876 
L 322.481192 138.523462 
L 323.566993 137.414656 
L 324.652794 138.523462 
L 325.738595 135.073844 
L 326.824396 139.878669 
L 327.910198 138.27706 
L 328.995999 135.689847 
L 330.0818 132.36343 
L 331.167601 133.349035 
L 332.253402 138.646662 
L 333.339203 135.197044 
L 334.425005 135.936248 
L 335.510806 136.18265 
L 336.596607 131.131423 
L 337.682408 132.48663 
L 338.768209 131.993828 
L 339.85401 133.841837 
L 340.939811 132.36343 
L 342.025613 132.48663 
L 343.111414 131.993828 
L 344.197215 130.39222 
L 345.283016 130.761822 
L 346.368817 129.406615 
L 347.454618 128.667411 
L 348.54042 126.080197 
L 349.626221 131.501025 
L 350.712022 126.326599 
L 351.797823 124.848191 
L 352.883624 123.985787 
L 353.969425 125.217793 
L 355.055227 125.464194 
L 356.141028 123.862586 
L 357.226829 127.065803 
L 358.31263 128.297809 
L 359.398431 125.710596 
L 360.484232 124.971392 
L 361.570033 121.768175 
L 362.655835 122.507379 
L 363.741636 119.550564 
L 364.827437 122.876981 
L 365.913238 119.920166 
L 366.999039 120.412968 
L 368.08484 122.384178 
L 369.170642 126.326599 
L 370.256443 125.710596 
L 371.342244 124.232188 
L 372.428045 129.037013 
L 373.513846 131.131423 
L 374.599647 129.653016 
L 375.685448 130.145818 
L 376.77125 129.653016 
L 377.857051 125.587395 
L 378.942852 129.283414 
L 380.028653 131.008223 
L 381.114454 130.269019 
L 382.200255 129.283414 
L 383.286057 129.283414 
L 384.371858 132.36343 
L 385.457659 126.942602 
L 386.54346 125.094592 
L 387.629261 127.189003 
L 388.715062 131.993828 
L 389.800863 127.189003 
L 390.886665 129.406615 
L 391.972466 135.073844 
L 393.058267 131.377825 
L 394.144068 125.833796 
L 395.229869 127.189003 
L 396.31567 128.297809 
L 397.401472 130.638621 
L 398.487273 131.131423 
L 398.487273 131.131423 
" clip-path="url(#p17d7f76ce6)" style="fill: none; stroke: #2ca02c; stroke-width: 1.5; stroke-linecap: square"/>
   </g>
   <g id="line2d_22">
    <path d="M 368.08484 53.800233 
L 369.170642 58.355577 
L 370.256443 58.159072 
L 371.342244 58.444897 
L 372.428045 62.535774 
L 373.513846 61.374608 
L 374.599647 67.108982 
L 375.685448 63.464707 
L 377.857051 64.08995 
L 378.942852 61.999851 
L 380.028653 65.554806 
L 381.114454 65.322573 
L 382.200255 64.840242 
L 383.286057 70.324518 
L 384.371858 67.62704 
L 385.457659 68.32374 
L 386.54346 67.823545 
L 387.629261 70.788985 
L 388.715062 68.823935 
L 389.800863 70.860441 
L 390.886665 68.823935 
L 391.972466 65.358301 
L 393.058267 66.180049 
L 394.144068 68.520245 
L 395.229869 72.396753 
L 396.31567 66.948205 
L 398.487273 73.557919 
L 398.487273 73.557919 
" clip-path="url(#p17d7f76ce6)" style="fill: none; stroke: #d62728; stroke-width: 1.5; stroke-linecap: square"/>
   </g>
   <g id="line2d_23">
    <path d="M 368.08484 124.848191 
L 369.170642 123.739385 
L 370.256443 124.232188 
L 371.342244 117.209752 
L 372.428045 129.899417 
L 373.513846 129.653016 
L 374.599647 137.168255 
L 375.685448 129.037013 
L 376.77125 133.102634 
L 377.857051 128.297809 
L 378.942852 125.094592 
L 380.028653 130.39222 
L 382.200255 130.638621 
L 383.286057 135.936248 
L 384.371858 136.429051 
L 385.457659 136.429051 
L 386.54346 137.045054 
L 387.629261 133.472236 
L 388.715062 139.755468 
L 389.800863 139.755468 
L 390.886665 136.675452 
L 391.972466 130.761822 
L 393.058267 134.33464 
L 394.144068 140.24827 
L 395.229869 140.371471 
L 396.31567 136.429051 
L 397.401472 139.262665 
L 398.487273 139.385866 
L 398.487273 139.385866 
" clip-path="url(#p17d7f76ce6)" style="fill: none; stroke: #9467bd; stroke-width: 1.5; stroke-linecap: square"/>
   </g>
   <g id="patch_3">
    <path d="M 57.6 307.584 
L 57.6 41.472 
" style="fill: none; stroke: #000000; stroke-width: 0.8; stroke-linejoin: miter; stroke-linecap: square"/>
   </g>
   <g id="patch_4">
    <path d="M 414.72 307.584 
L 414.72 41.472 
" style="fill: none; stroke: #000000; stroke-width: 0.8; stroke-linejoin: miter; stroke-linecap: square"/>
   </g>
   <g id="patch_5">
    <path d="M 57.6 307.584 
L 414.72 307.584 
" style="fill: none; stroke: #000000; stroke-width: 0.8; stroke-linejoin: miter; stroke-linecap: square"/>
   </g>
   <g id="patch_6">
    <path d="M 57.6 41.472 
L 414.72 41.472 
" style="fill: none; stroke: #000000; stroke-width: 0.8; stroke-linejoin: miter; stroke-linecap: square"/>
   </g>
   <g id="text_21">
    <!-- Learning Curves -->
    <g transform="translate(187.37625 35.472) scale(0.12 -0.12)">
     <defs>
      <path id="DejaVuSans-4c" d="M 628 4666 
L 1259 4666 
L 1259 531 
L 3531 531 
L 3531 0 
L 628 0 
L 628 4666 
z
" transform="scale(0.015625)"/>
      <path id="DejaVuSans-65" d="M 3597 1894 
L 3597 1613 
L 953 1613 
Q 991 1019 1311 708 
Q 1631 397 2203 397 
Q 2534 397 2845 478 
Q 3156 559 3463 722 
L 3463 178 
Q 3153 47 2828 -22 
Q 2503 -91 2169 -91 
Q 1331 -91 842 396 
Q 353 884 353 1716 
Q 353 2575 817 3079 
Q 1281 3584 2069 3584 
Q 2775 3584 3186 3129 
Q 3597 2675 3597 1894 
z
M 3022 2063 
Q 3016 2534 2758 2815 
Q 2500 3097 2075 3097 
Q 1594 3097 1305 2825 
Q 1016 2553 972 2059 
L 3022 2063 
z
" transform="scale(0.015625)"/>
      <path id="DejaVuSans-6e" d="M 3513 2113 
L 3513 0 
L 2938 0 
L 2938 2094 
Q 2938 2591 2744 2837 
Q 2550 3084 2163 3084 
Q 1697 3084 1428 2787 
Q 1159 2491 1159 1978 
L 1159 0 
L 581 0 
L 581 3500 
L 1159 3500 
L 1159 2956 
Q 1366 3272 1645 3428 
Q 1925 3584 2291 3584 
Q 2894 3584 3203 3211 
Q 3513 2838 3513 2113 
z
" transform="scale(0.015625)"/>
      <path id="DejaVuSans-69" d="M 603 3500 
L 1178 3500 
L 1178 0 
L 603 0 
L 603 3500 
z
M 603 4863 
L 1178 4863 
L 1178 4134 
L 603 4134 
L 603 4863 
z
" transform="scale(0.015625)"/>
      <path id="DejaVuSans-67" d="M 2906 1791 
Q 2906 2416 2648 2759 
Q 2391 3103 1925 3103 
Q 1463 3103 1205 2759 
Q 947 2416 947 1791 
Q 947 1169 1205 825 
Q 1463 481 1925 481 
Q 2391 481 2648 825 
Q 2906 1169 2906 1791 
z
M 3481 434 
Q 3481 -459 3084 -895 
Q 2688 -1331 1869 -1331 
Q 1566 -1331 1297 -1286 
Q 1028 -1241 775 -1147 
L 775 -588 
Q 1028 -725 1275 -790 
Q 1522 -856 1778 -856 
Q 2344 -856 2625 -561 
Q 2906 -266 2906 331 
L 2906 616 
Q 2728 306 2450 153 
Q 2172 0 1784 0 
Q 1141 0 747 490 
Q 353 981 353 1791 
Q 353 2603 747 3093 
Q 1141 3584 1784 3584 
Q 2172 3584 2450 3431 
Q 2728 3278 2906 2969 
L 2906 3500 
L 3481 3500 
L 3481 434 
z
" transform="scale(0.015625)"/>
      <path id="DejaVuSans-20" transform="scale(0.015625)"/>
      <path id="DejaVuSans-43" d="M 4122 4306 
L 4122 3641 
Q 3803 3938 3442 4084 
Q 3081 4231 2675 4231 
Q 1875 4231 1450 3742 
Q 1025 3253 1025 2328 
Q 1025 1406 1450 917 
Q 1875 428 2675 428 
Q 3081 428 3442 575 
Q 3803 722 4122 1019 
L 4122 359 
Q 3791 134 3420 21 
Q 3050 -91 2638 -91 
Q 1578 -91 968 557 
Q 359 1206 359 2328 
Q 359 3453 968 4101 
Q 1578 4750 2638 4750 
Q 3056 4750 3426 4639 
Q 3797 4528 4122 4306 
z
" transform="scale(0.015625)"/>
      <path id="DejaVuSans-76" d="M 191 3500 
L 800 3500 
L 1894 563 
L 2988 3500 
L 3597 3500 
L 2284 0 
L 1503 0 
L 191 3500 
z
" transform="scale(0.015625)"/>
     </defs>
     <use xlink:href="#DejaVuSans-4c"/>
     <use xlink:href="#DejaVuSans-65" x="53.962891"/>
     <use xlink:href="#DejaVuSans-61" x="115.486328"/>
     <use xlink:href="#DejaVuSans-72" x="176.765625"/>
     <use xlink:href="#DejaVuSans-6e" x="216.128906"/>
     <use xlink:href="#DejaVuSans-69" x="279.507812"/>
     <use xlink:href="#DejaVuSans-6e" x="307.291016"/>
     <use xlink:href="#DejaVuSans-67" x="370.669922"/>
     <use xlink:href="#DejaVuSans-20" x="434.146484"/>
     <use xlink:href="#DejaVuSans-43" x="465.933594"/>
     <use xlink:href="#DejaVuSans-75" x="535.757812"/>
     <use xlink:href="#DejaVuSans-72" x="599.136719"/>
     <use xlink:href="#DejaVuSans-76" x="640.25"/>
     <use xlink:href="#DejaVuSans-65" x="699.429688"/>
     <use xlink:href="#DejaVuSans-73" x="760.953125"/>
    </g>
   </g>
   <g id="legend_1">
    <g id="patch_7">
     <path d="M 214.18875 302.584 
L 407.72 302.584 
Q 409.72 302.584 409.72 300.584 
L 409.72 228.193375 
Q 409.72 226.193375 407.72 226.193375 
L 214.18875 226.193375 
Q 212.18875 226.193375 212.18875 228.193375 
L 212.18875 300.584 
Q 212.18875 302.584 214.18875 302.584 
z
" style="fill: #ffffff; opacity: 0.8; stroke: #cccccc; stroke-linejoin: miter"/>
    </g>
    <g id="line2d_24">
     <path d="M 216.18875 234.291812 
L 226.18875 234.291812 
L 236.18875 234.291812 
" style="fill: none; stroke: #1f77b4; stroke-width: 1.5; stroke-linecap: square"/>
    </g>
    <g id="text_22">
     <!-- Train Accuracy -->
     <g transform="translate(244.18875 237.791812) scale(0.1 -0.1)">
      <defs>
       <path id="DejaVuSans-54" d="M -19 4666 
L 3928 4666 
L 3928 4134 
L 2272 4134 
L 2272 0 
L 1638 0 
L 1638 4134 
L -19 4134 
L -19 4666 
z
" transform="scale(0.015625)"/>
      </defs>
      <use xlink:href="#DejaVuSans-54"/>
      <use xlink:href="#DejaVuSans-72" x="46.333984"/>
      <use xlink:href="#DejaVuSans-61" x="87.447266"/>
      <use xlink:href="#DejaVuSans-69" x="148.726562"/>
      <use xlink:href="#DejaVuSans-6e" x="176.509766"/>
      <use xlink:href="#DejaVuSans-20" x="239.888672"/>
      <use xlink:href="#DejaVuSans-41" x="271.675781"/>
      <use xlink:href="#DejaVuSans-63" x="338.333984"/>
      <use xlink:href="#DejaVuSans-63" x="393.314453"/>
      <use xlink:href="#DejaVuSans-75" x="448.294922"/>
      <use xlink:href="#DejaVuSans-72" x="511.673828"/>
      <use xlink:href="#DejaVuSans-61" x="552.787109"/>
      <use xlink:href="#DejaVuSans-63" x="614.066406"/>
      <use xlink:href="#DejaVuSans-79" x="669.046875"/>
     </g>
    </g>
    <g id="line2d_25">
     <path d="M 216.18875 248.969937 
L 226.18875 248.969937 
L 236.18875 248.969937 
" style="fill: none; stroke: #ff7f0e; stroke-width: 1.5; stroke-linecap: square"/>
    </g>
    <g id="text_23">
     <!-- Validation Accuracy -->
     <g transform="translate(244.18875 252.469937) scale(0.1 -0.1)">
      <defs>
       <path id="DejaVuSans-56" d="M 1831 0 
L 50 4666 
L 709 4666 
L 2188 738 
L 3669 4666 
L 4325 4666 
L 2547 0 
L 1831 0 
z
" transform="scale(0.015625)"/>
       <path id="DejaVuSans-6c" d="M 603 4863 
L 1178 4863 
L 1178 0 
L 603 0 
L 603 4863 
z
" transform="scale(0.015625)"/>
       <path id="DejaVuSans-64" d="M 2906 2969 
L 2906 4863 
L 3481 4863 
L 3481 0 
L 2906 0 
L 2906 525 
Q 2725 213 2448 61 
Q 2172 -91 1784 -91 
Q 1150 -91 751 415 
Q 353 922 353 1747 
Q 353 2572 751 3078 
Q 1150 3584 1784 3584 
Q 2172 3584 2448 3432 
Q 2725 3281 2906 2969 
z
M 947 1747 
Q 947 1113 1208 752 
Q 1469 391 1925 391 
Q 2381 391 2643 752 
Q 2906 1113 2906 1747 
Q 2906 2381 2643 2742 
Q 2381 3103 1925 3103 
Q 1469 3103 1208 2742 
Q 947 2381 947 1747 
z
" transform="scale(0.015625)"/>
       <path id="DejaVuSans-74" d="M 1172 4494 
L 1172 3500 
L 2356 3500 
L 2356 3053 
L 1172 3053 
L 1172 1153 
Q 1172 725 1289 603 
Q 1406 481 1766 481 
L 2356 481 
L 2356 0 
L 1766 0 
Q 1100 0 847 248 
Q 594 497 594 1153 
L 594 3053 
L 172 3053 
L 172 3500 
L 594 3500 
L 594 4494 
L 1172 4494 
z
" transform="scale(0.015625)"/>
      </defs>
      <use xlink:href="#DejaVuSans-56"/>
      <use xlink:href="#DejaVuSans-61" x="60.658203"/>
      <use xlink:href="#DejaVuSans-6c" x="121.9375"/>
      <use xlink:href="#DejaVuSans-69" x="149.720703"/>
      <use xlink:href="#DejaVuSans-64" x="177.503906"/>
      <use xlink:href="#DejaVuSans-61" x="240.980469"/>
      <use xlink:href="#DejaVuSans-74" x="302.259766"/>
      <use xlink:href="#DejaVuSans-69" x="341.46875"/>
      <use xlink:href="#DejaVuSans-6f" x="369.251953"/>
      <use xlink:href="#DejaVuSans-6e" x="430.433594"/>
      <use xlink:href="#DejaVuSans-20" x="493.8125"/>
      <use xlink:href="#DejaVuSans-41" x="525.599609"/>
      <use xlink:href="#DejaVuSans-63" x="592.257812"/>
      <use xlink:href="#DejaVuSans-63" x="647.238281"/>
      <use xlink:href="#DejaVuSans-75" x="702.21875"/>
      <use xlink:href="#DejaVuSans-72" x="765.597656"/>
      <use xlink:href="#DejaVuSans-61" x="806.710938"/>
      <use xlink:href="#DejaVuSans-63" x="867.990234"/>
      <use xlink:href="#DejaVuSans-79" x="922.970703"/>
     </g>
    </g>
    <g id="line2d_26">
     <path d="M 216.18875 263.648062 
L 226.18875 263.648062 
L 236.18875 263.648062 
" style="fill: none; stroke: #2ca02c; stroke-width: 1.5; stroke-linecap: square"/>
    </g>
    <g id="text_24">
     <!-- Robust Validation Accuracy -->
     <g transform="translate(244.18875 267.148062) scale(0.1 -0.1)">
      <defs>
       <path id="DejaVuSans-52" d="M 2841 2188 
Q 3044 2119 3236 1894 
Q 3428 1669 3622 1275 
L 4263 0 
L 3584 0 
L 2988 1197 
Q 2756 1666 2539 1819 
Q 2322 1972 1947 1972 
L 1259 1972 
L 1259 0 
L 628 0 
L 628 4666 
L 2053 4666 
Q 2853 4666 3247 4331 
Q 3641 3997 3641 3322 
Q 3641 2881 3436 2590 
Q 3231 2300 2841 2188 
z
M 1259 4147 
L 1259 2491 
L 2053 2491 
Q 2509 2491 2742 2702 
Q 2975 2913 2975 3322 
Q 2975 3731 2742 3939 
Q 2509 4147 2053 4147 
L 1259 4147 
z
" transform="scale(0.015625)"/>
       <path id="DejaVuSans-62" d="M 3116 1747 
Q 3116 2381 2855 2742 
Q 2594 3103 2138 3103 
Q 1681 3103 1420 2742 
Q 1159 2381 1159 1747 
Q 1159 1113 1420 752 
Q 1681 391 2138 391 
Q 2594 391 2855 752 
Q 3116 1113 3116 1747 
z
M 1159 2969 
Q 1341 3281 1617 3432 
Q 1894 3584 2278 3584 
Q 2916 3584 3314 3078 
Q 3713 2572 3713 1747 
Q 3713 922 3314 415 
Q 2916 -91 2278 -91 
Q 1894 -91 1617 61 
Q 1341 213 1159 525 
L 1159 0 
L 581 0 
L 581 4863 
L 1159 4863 
L 1159 2969 
z
" transform="scale(0.015625)"/>
      </defs>
      <use xlink:href="#DejaVuSans-52"/>
      <use xlink:href="#DejaVuSans-6f" x="64.982422"/>
      <use xlink:href="#DejaVuSans-62" x="126.164062"/>
      <use xlink:href="#DejaVuSans-75" x="189.640625"/>
      <use xlink:href="#DejaVuSans-73" x="253.019531"/>
      <use xlink:href="#DejaVuSans-74" x="305.119141"/>
      <use xlink:href="#DejaVuSans-20" x="344.328125"/>
      <use xlink:href="#DejaVuSans-56" x="376.115234"/>
      <use xlink:href="#DejaVuSans-61" x="436.773438"/>
      <use xlink:href="#DejaVuSans-6c" x="498.052734"/>
      <use xlink:href="#DejaVuSans-69" x="525.835938"/>
      <use xlink:href="#DejaVuSans-64" x="553.619141"/>
      <use xlink:href="#DejaVuSans-61" x="617.095703"/>
      <use xlink:href="#DejaVuSans-74" x="678.375"/>
      <use xlink:href="#DejaVuSans-69" x="717.583984"/>
      <use xlink:href="#DejaVuSans-6f" x="745.367188"/>
      <use xlink:href="#DejaVuSans-6e" x="806.548828"/>
      <use xlink:href="#DejaVuSans-20" x="869.927734"/>
      <use xlink:href="#DejaVuSans-41" x="901.714844"/>
      <use xlink:href="#DejaVuSans-63" x="968.373047"/>
      <use xlink:href="#DejaVuSans-63" x="1023.353516"/>
      <use xlink:href="#DejaVuSans-75" x="1078.333984"/>
      <use xlink:href="#DejaVuSans-72" x="1141.712891"/>
      <use xlink:href="#DejaVuSans-61" x="1182.826172"/>
      <use xlink:href="#DejaVuSans-63" x="1244.105469"/>
      <use xlink:href="#DejaVuSans-79" x="1299.085938"/>
     </g>
    </g>
    <g id="line2d_27">
     <path d="M 216.18875 278.326188 
L 226.18875 278.326188 
L 236.18875 278.326188 
" style="fill: none; stroke: #d62728; stroke-width: 1.5; stroke-linecap: square"/>
    </g>
    <g id="text_25">
     <!-- SWA Validation Accuracy -->
     <g transform="translate(244.18875 281.826188) scale(0.1 -0.1)">
      <defs>
       <path id="DejaVuSans-53" d="M 3425 4513 
L 3425 3897 
Q 3066 4069 2747 4153 
Q 2428 4238 2131 4238 
Q 1616 4238 1336 4038 
Q 1056 3838 1056 3469 
Q 1056 3159 1242 3001 
Q 1428 2844 1947 2747 
L 2328 2669 
Q 3034 2534 3370 2195 
Q 3706 1856 3706 1288 
Q 3706 609 3251 259 
Q 2797 -91 1919 -91 
Q 1588 -91 1214 -16 
Q 841 59 441 206 
L 441 856 
Q 825 641 1194 531 
Q 1563 422 1919 422 
Q 2459 422 2753 634 
Q 3047 847 3047 1241 
Q 3047 1584 2836 1778 
Q 2625 1972 2144 2069 
L 1759 2144 
Q 1053 2284 737 2584 
Q 422 2884 422 3419 
Q 422 4038 858 4394 
Q 1294 4750 2059 4750 
Q 2388 4750 2728 4690 
Q 3069 4631 3425 4513 
z
" transform="scale(0.015625)"/>
       <path id="DejaVuSans-57" d="M 213 4666 
L 850 4666 
L 1831 722 
L 2809 4666 
L 3519 4666 
L 4500 722 
L 5478 4666 
L 6119 4666 
L 4947 0 
L 4153 0 
L 3169 4050 
L 2175 0 
L 1381 0 
L 213 4666 
z
" transform="scale(0.015625)"/>
      </defs>
      <use xlink:href="#DejaVuSans-53"/>
      <use xlink:href="#DejaVuSans-57" x="63.476562"/>
      <use xlink:href="#DejaVuSans-41" x="156.853516"/>
      <use xlink:href="#DejaVuSans-20" x="225.261719"/>
      <use xlink:href="#DejaVuSans-56" x="257.048828"/>
      <use xlink:href="#DejaVuSans-61" x="317.707031"/>
      <use xlink:href="#DejaVuSans-6c" x="378.986328"/>
      <use xlink:href="#DejaVuSans-69" x="406.769531"/>
      <use xlink:href="#DejaVuSans-64" x="434.552734"/>
      <use xlink:href="#DejaVuSans-61" x="498.029297"/>
      <use xlink:href="#DejaVuSans-74" x="559.308594"/>
      <use xlink:href="#DejaVuSans-69" x="598.517578"/>
      <use xlink:href="#DejaVuSans-6f" x="626.300781"/>
      <use xlink:href="#DejaVuSans-6e" x="687.482422"/>
      <use xlink:href="#DejaVuSans-20" x="750.861328"/>
      <use xlink:href="#DejaVuSans-41" x="782.648438"/>
      <use xlink:href="#DejaVuSans-63" x="849.306641"/>
      <use xlink:href="#DejaVuSans-63" x="904.287109"/>
      <use xlink:href="#DejaVuSans-75" x="959.267578"/>
      <use xlink:href="#DejaVuSans-72" x="1022.646484"/>
      <use xlink:href="#DejaVuSans-61" x="1063.759766"/>
      <use xlink:href="#DejaVuSans-63" x="1125.039062"/>
      <use xlink:href="#DejaVuSans-79" x="1180.019531"/>
     </g>
    </g>
    <g id="line2d_28">
     <path d="M 216.18875 293.004312 
L 226.18875 293.004312 
L 236.18875 293.004312 
" style="fill: none; stroke: #9467bd; stroke-width: 1.5; stroke-linecap: square"/>
    </g>
    <g id="text_26">
     <!-- SWA Robust Validation Accuracy -->
     <g transform="translate(244.18875 296.504312) scale(0.1 -0.1)">
      <use xlink:href="#DejaVuSans-53"/>
      <use xlink:href="#DejaVuSans-57" x="63.476562"/>
      <use xlink:href="#DejaVuSans-41" x="156.853516"/>
      <use xlink:href="#DejaVuSans-20" x="225.261719"/>
      <use xlink:href="#DejaVuSans-52" x="257.048828"/>
      <use xlink:href="#DejaVuSans-6f" x="322.03125"/>
      <use xlink:href="#DejaVuSans-62" x="383.212891"/>
      <use xlink:href="#DejaVuSans-75" x="446.689453"/>
      <use xlink:href="#DejaVuSans-73" x="510.068359"/>
      <use xlink:href="#DejaVuSans-74" x="562.167969"/>
      <use xlink:href="#DejaVuSans-20" x="601.376953"/>
      <use xlink:href="#DejaVuSans-56" x="633.164062"/>
      <use xlink:href="#DejaVuSans-61" x="693.822266"/>
      <use xlink:href="#DejaVuSans-6c" x="755.101562"/>
      <use xlink:href="#DejaVuSans-69" x="782.884766"/>
      <use xlink:href="#DejaVuSans-64" x="810.667969"/>
      <use xlink:href="#DejaVuSans-61" x="874.144531"/>
      <use xlink:href="#DejaVuSans-74" x="935.423828"/>
      <use xlink:href="#DejaVuSans-69" x="974.632812"/>
      <use xlink:href="#DejaVuSans-6f" x="1002.416016"/>
      <use xlink:href="#DejaVuSans-6e" x="1063.597656"/>
      <use xlink:href="#DejaVuSans-20" x="1126.976562"/>
      <use xlink:href="#DejaVuSans-41" x="1158.763672"/>
      <use xlink:href="#DejaVuSans-63" x="1225.421875"/>
      <use xlink:href="#DejaVuSans-63" x="1280.402344"/>
      <use xlink:href="#DejaVuSans-75" x="1335.382812"/>
      <use xlink:href="#DejaVuSans-72" x="1398.761719"/>
      <use xlink:href="#DejaVuSans-61" x="1439.875"/>
      <use xlink:href="#DejaVuSans-63" x="1501.154297"/>
      <use xlink:href="#DejaVuSans-79" x="1556.134766"/>
     </g>
    </g>
   </g>
  </g>
 </g>
 <defs>
  <clipPath id="p17d7f76ce6">
   <rect x="57.6" y="41.472" width="357.12" height="266.112"/>
  </clipPath>
 </defs>
</svg>
