<?xml version="1.0" encoding="utf-8" standalone="no"?>
<!DOCTYPE svg PUBLIC "-//W3C//DTD SVG 1.1//EN"
  "http://www.w3.org/Graphics/SVG/1.1/DTD/svg11.dtd">
<svg xmlns:xlink="http://www.w3.org/1999/xlink" width="460.8pt" height="345.6pt" viewBox="0 0 460.8 345.6" xmlns="http://www.w3.org/2000/svg" version="1.1">
 <metadata>
  <rdf:RDF xmlns:dc="http://purl.org/dc/elements/1.1/" xmlns:cc="http://creativecommons.org/ns#" xmlns:rdf="http://www.w3.org/1999/02/22-rdf-syntax-ns#">
   <cc:Work>
    <dc:type rdf:resource="http://purl.org/dc/dcmitype/StillImage"/>
    <dc:date>2025-02-15T10:25:42.663794</dc:date>
    <dc:format>image/svg+xml</dc:format>
    <dc:creator>
     <cc:Agent>
      <dc:title>Matplotlib v3.9.1, https://matplotlib.org/</dc:title>
     </cc:Agent>
    </dc:creator>
   </cc:Work>
  </rdf:RDF>
 </metadata>
 <defs>
  <style type="text/css">*{stroke-linejoin: round; stroke-linecap: butt}</style>
 </defs>
 <g id="figure_1">
  <g id="patch_1">
   <path d="M 0 345.6 
L 460.8 345.6 
L 460.8 0 
L 0 0 
z
" style="fill: #ffffff"/>
  </g>
  <g id="axes_1">
   <g id="patch_2">
    <path d="M 57.6 307.584 
L 414.72 307.584 
L 414.72 41.472 
L 57.6 41.472 
z
" style="fill: #ffffff"/>
   </g>
   <g id="matplotlib.axis_1">
    <g id="xtick_1">
     <g id="line2d_1">
      <defs>
       <path id="mca07ba13f2" d="M 0 0 
L 0 3.5 
" style="stroke: #000000; stroke-width: 0.8"/>
      </defs>
      <g>
       <use xlink:href="#mca07ba13f2" x="73.832727" y="307.584" style="stroke: #000000; stroke-width: 0.8"/>
      </g>
     </g>
     <g id="text_1">
      <!-- 1 -->
      <g transform="translate(70.651477 322.182437) scale(0.1 -0.1)">
       <defs>
        <path id="DejaVuSans-31" d="M 794 531 
L 1825 531 
L 1825 4091 
L 703 3866 
L 703 4441 
L 1819 4666 
L 2450 4666 
L 2450 531 
L 3481 531 
L 3481 0 
L 794 0 
L 794 531 
z
" transform="scale(0.015625)"/>
       </defs>
       <use xlink:href="#DejaVuSans-31"/>
      </g>
     </g>
    </g>
    <g id="xtick_2">
     <g id="line2d_2">
      <g>
       <use xlink:href="#mca07ba13f2" x="109.664165" y="307.584" style="stroke: #000000; stroke-width: 0.8"/>
      </g>
     </g>
     <g id="text_2">
      <!-- 34 -->
      <g transform="translate(103.301665 322.182437) scale(0.1 -0.1)">
       <defs>
        <path id="DejaVuSans-33" d="M 2597 2516 
Q 3050 2419 3304 2112 
Q 3559 1806 3559 1356 
Q 3559 666 3084 287 
Q 2609 -91 1734 -91 
Q 1441 -91 1130 -33 
Q 819 25 488 141 
L 488 750 
Q 750 597 1062 519 
Q 1375 441 1716 441 
Q 2309 441 2620 675 
Q 2931 909 2931 1356 
Q 2931 1769 2642 2001 
Q 2353 2234 1838 2234 
L 1294 2234 
L 1294 2753 
L 1863 2753 
Q 2328 2753 2575 2939 
Q 2822 3125 2822 3475 
Q 2822 3834 2567 4026 
Q 2313 4219 1838 4219 
Q 1578 4219 1281 4162 
Q 984 4106 628 3988 
L 628 4550 
Q 988 4650 1302 4700 
Q 1616 4750 1894 4750 
Q 2613 4750 3031 4423 
Q 3450 4097 3450 3541 
Q 3450 3153 3228 2886 
Q 3006 2619 2597 2516 
z
" transform="scale(0.015625)"/>
        <path id="DejaVuSans-34" d="M 2419 4116 
L 825 1625 
L 2419 1625 
L 2419 4116 
z
M 2253 4666 
L 3047 4666 
L 3047 1625 
L 3713 1625 
L 3713 1100 
L 3047 1100 
L 3047 0 
L 2419 0 
L 2419 1100 
L 313 1100 
L 313 1709 
L 2253 4666 
z
" transform="scale(0.015625)"/>
       </defs>
       <use xlink:href="#DejaVuSans-33"/>
       <use xlink:href="#DejaVuSans-34" x="63.623047"/>
      </g>
     </g>
    </g>
    <g id="xtick_3">
     <g id="line2d_3">
      <g>
       <use xlink:href="#mca07ba13f2" x="145.495604" y="307.584" style="stroke: #000000; stroke-width: 0.8"/>
      </g>
     </g>
     <g id="text_3">
      <!-- 67 -->
      <g transform="translate(139.133104 322.182437) scale(0.1 -0.1)">
       <defs>
        <path id="DejaVuSans-36" d="M 2113 2584 
Q 1688 2584 1439 2293 
Q 1191 2003 1191 1497 
Q 1191 994 1439 701 
Q 1688 409 2113 409 
Q 2538 409 2786 701 
Q 3034 994 3034 1497 
Q 3034 2003 2786 2293 
Q 2538 2584 2113 2584 
z
M 3366 4563 
L 3366 3988 
Q 3128 4100 2886 4159 
Q 2644 4219 2406 4219 
Q 1781 4219 1451 3797 
Q 1122 3375 1075 2522 
Q 1259 2794 1537 2939 
Q 1816 3084 2150 3084 
Q 2853 3084 3261 2657 
Q 3669 2231 3669 1497 
Q 3669 778 3244 343 
Q 2819 -91 2113 -91 
Q 1303 -91 875 529 
Q 447 1150 447 2328 
Q 447 3434 972 4092 
Q 1497 4750 2381 4750 
Q 2619 4750 2861 4703 
Q 3103 4656 3366 4563 
z
" transform="scale(0.015625)"/>
        <path id="DejaVuSans-37" d="M 525 4666 
L 3525 4666 
L 3525 4397 
L 1831 0 
L 1172 0 
L 2766 4134 
L 525 4134 
L 525 4666 
z
" transform="scale(0.015625)"/>
       </defs>
       <use xlink:href="#DejaVuSans-36"/>
       <use xlink:href="#DejaVuSans-37" x="63.623047"/>
      </g>
     </g>
    </g>
    <g id="xtick_4">
     <g id="line2d_4">
      <g>
       <use xlink:href="#mca07ba13f2" x="181.327042" y="307.584" style="stroke: #000000; stroke-width: 0.8"/>
      </g>
     </g>
     <g id="text_4">
      <!-- 100 -->
      <g transform="translate(171.783292 322.182437) scale(0.1 -0.1)">
       <defs>
        <path id="DejaVuSans-30" d="M 2034 4250 
Q 1547 4250 1301 3770 
Q 1056 3291 1056 2328 
Q 1056 1369 1301 889 
Q 1547 409 2034 409 
Q 2525 409 2770 889 
Q 3016 1369 3016 2328 
Q 3016 3291 2770 3770 
Q 2525 4250 2034 4250 
z
M 2034 4750 
Q 2819 4750 3233 4129 
Q 3647 3509 3647 2328 
Q 3647 1150 3233 529 
Q 2819 -91 2034 -91 
Q 1250 -91 836 529 
Q 422 1150 422 2328 
Q 422 3509 836 4129 
Q 1250 4750 2034 4750 
z
" transform="scale(0.015625)"/>
       </defs>
       <use xlink:href="#DejaVuSans-31"/>
       <use xlink:href="#DejaVuSans-30" x="63.623047"/>
       <use xlink:href="#DejaVuSans-30" x="127.246094"/>
      </g>
     </g>
    </g>
    <g id="xtick_5">
     <g id="line2d_5">
      <g>
       <use xlink:href="#mca07ba13f2" x="217.15848" y="307.584" style="stroke: #000000; stroke-width: 0.8"/>
      </g>
     </g>
     <g id="text_5">
      <!-- 133 -->
      <g transform="translate(207.61473 322.182437) scale(0.1 -0.1)">
       <use xlink:href="#DejaVuSans-31"/>
       <use xlink:href="#DejaVuSans-33" x="63.623047"/>
       <use xlink:href="#DejaVuSans-33" x="127.246094"/>
      </g>
     </g>
    </g>
    <g id="xtick_6">
     <g id="line2d_6">
      <g>
       <use xlink:href="#mca07ba13f2" x="254.075719" y="307.584" style="stroke: #000000; stroke-width: 0.8"/>
      </g>
     </g>
     <g id="text_6">
      <!-- 167 -->
      <g transform="translate(244.531969 322.182437) scale(0.1 -0.1)">
       <use xlink:href="#DejaVuSans-31"/>
       <use xlink:href="#DejaVuSans-36" x="63.623047"/>
       <use xlink:href="#DejaVuSans-37" x="127.246094"/>
      </g>
     </g>
    </g>
    <g id="xtick_7">
     <g id="line2d_7">
      <g>
       <use xlink:href="#mca07ba13f2" x="289.907157" y="307.584" style="stroke: #000000; stroke-width: 0.8"/>
      </g>
     </g>
     <g id="text_7">
      <!-- 200 -->
      <g transform="translate(280.363407 322.182437) scale(0.1 -0.1)">
       <defs>
        <path id="DejaVuSans-32" d="M 1228 531 
L 3431 531 
L 3431 0 
L 469 0 
L 469 531 
Q 828 903 1448 1529 
Q 2069 2156 2228 2338 
Q 2531 2678 2651 2914 
Q 2772 3150 2772 3378 
Q 2772 3750 2511 3984 
Q 2250 4219 1831 4219 
Q 1534 4219 1204 4116 
Q 875 4013 500 3803 
L 500 4441 
Q 881 4594 1212 4672 
Q 1544 4750 1819 4750 
Q 2544 4750 2975 4387 
Q 3406 4025 3406 3419 
Q 3406 3131 3298 2873 
Q 3191 2616 2906 2266 
Q 2828 2175 2409 1742 
Q 1991 1309 1228 531 
z
" transform="scale(0.015625)"/>
       </defs>
       <use xlink:href="#DejaVuSans-32"/>
       <use xlink:href="#DejaVuSans-30" x="63.623047"/>
       <use xlink:href="#DejaVuSans-30" x="127.246094"/>
      </g>
     </g>
    </g>
    <g id="xtick_8">
     <g id="line2d_8">
      <g>
       <use xlink:href="#mca07ba13f2" x="325.738595" y="307.584" style="stroke: #000000; stroke-width: 0.8"/>
      </g>
     </g>
     <g id="text_8">
      <!-- 233 -->
      <g transform="translate(316.194845 322.182437) scale(0.1 -0.1)">
       <use xlink:href="#DejaVuSans-32"/>
       <use xlink:href="#DejaVuSans-33" x="63.623047"/>
       <use xlink:href="#DejaVuSans-33" x="127.246094"/>
      </g>
     </g>
    </g>
    <g id="xtick_9">
     <g id="line2d_9">
      <g>
       <use xlink:href="#mca07ba13f2" x="361.570033" y="307.584" style="stroke: #000000; stroke-width: 0.8"/>
      </g>
     </g>
     <g id="text_9">
      <!-- 266 -->
      <g transform="translate(352.026283 322.182437) scale(0.1 -0.1)">
       <use xlink:href="#DejaVuSans-32"/>
       <use xlink:href="#DejaVuSans-36" x="63.623047"/>
       <use xlink:href="#DejaVuSans-36" x="127.246094"/>
      </g>
     </g>
    </g>
    <g id="xtick_10">
     <g id="line2d_10">
      <g>
       <use xlink:href="#mca07ba13f2" x="398.487273" y="307.584" style="stroke: #000000; stroke-width: 0.8"/>
      </g>
     </g>
     <g id="text_10">
      <!-- 300 -->
      <g transform="translate(388.943523 322.182437) scale(0.1 -0.1)">
       <use xlink:href="#DejaVuSans-33"/>
       <use xlink:href="#DejaVuSans-30" x="63.623047"/>
       <use xlink:href="#DejaVuSans-30" x="127.246094"/>
      </g>
     </g>
    </g>
    <g id="text_11">
     <!-- Epochs -->
     <g transform="translate(218.244375 335.860562) scale(0.1 -0.1)">
      <defs>
       <path id="DejaVuSans-45" d="M 628 4666 
L 3578 4666 
L 3578 4134 
L 1259 4134 
L 1259 2753 
L 3481 2753 
L 3481 2222 
L 1259 2222 
L 1259 531 
L 3634 531 
L 3634 0 
L 628 0 
L 628 4666 
z
" transform="scale(0.015625)"/>
       <path id="DejaVuSans-70" d="M 1159 525 
L 1159 -1331 
L 581 -1331 
L 581 3500 
L 1159 3500 
L 1159 2969 
Q 1341 3281 1617 3432 
Q 1894 3584 2278 3584 
Q 2916 3584 3314 3078 
Q 3713 2572 3713 1747 
Q 3713 922 3314 415 
Q 2916 -91 2278 -91 
Q 1894 -91 1617 61 
Q 1341 213 1159 525 
z
M 3116 1747 
Q 3116 2381 2855 2742 
Q 2594 3103 2138 3103 
Q 1681 3103 1420 2742 
Q 1159 2381 1159 1747 
Q 1159 1113 1420 752 
Q 1681 391 2138 391 
Q 2594 391 2855 752 
Q 3116 1113 3116 1747 
z
" transform="scale(0.015625)"/>
       <path id="DejaVuSans-6f" d="M 1959 3097 
Q 1497 3097 1228 2736 
Q 959 2375 959 1747 
Q 959 1119 1226 758 
Q 1494 397 1959 397 
Q 2419 397 2687 759 
Q 2956 1122 2956 1747 
Q 2956 2369 2687 2733 
Q 2419 3097 1959 3097 
z
M 1959 3584 
Q 2709 3584 3137 3096 
Q 3566 2609 3566 1747 
Q 3566 888 3137 398 
Q 2709 -91 1959 -91 
Q 1206 -91 779 398 
Q 353 888 353 1747 
Q 353 2609 779 3096 
Q 1206 3584 1959 3584 
z
" transform="scale(0.015625)"/>
       <path id="DejaVuSans-63" d="M 3122 3366 
L 3122 2828 
Q 2878 2963 2633 3030 
Q 2388 3097 2138 3097 
Q 1578 3097 1268 2742 
Q 959 2388 959 1747 
Q 959 1106 1268 751 
Q 1578 397 2138 397 
Q 2388 397 2633 464 
Q 2878 531 3122 666 
L 3122 134 
Q 2881 22 2623 -34 
Q 2366 -91 2075 -91 
Q 1284 -91 818 406 
Q 353 903 353 1747 
Q 353 2603 823 3093 
Q 1294 3584 2113 3584 
Q 2378 3584 2631 3529 
Q 2884 3475 3122 3366 
z
" transform="scale(0.015625)"/>
       <path id="DejaVuSans-68" d="M 3513 2113 
L 3513 0 
L 2938 0 
L 2938 2094 
Q 2938 2591 2744 2837 
Q 2550 3084 2163 3084 
Q 1697 3084 1428 2787 
Q 1159 2491 1159 1978 
L 1159 0 
L 581 0 
L 581 4863 
L 1159 4863 
L 1159 2956 
Q 1366 3272 1645 3428 
Q 1925 3584 2291 3584 
Q 2894 3584 3203 3211 
Q 3513 2838 3513 2113 
z
" transform="scale(0.015625)"/>
       <path id="DejaVuSans-73" d="M 2834 3397 
L 2834 2853 
Q 2591 2978 2328 3040 
Q 2066 3103 1784 3103 
Q 1356 3103 1142 2972 
Q 928 2841 928 2578 
Q 928 2378 1081 2264 
Q 1234 2150 1697 2047 
L 1894 2003 
Q 2506 1872 2764 1633 
Q 3022 1394 3022 966 
Q 3022 478 2636 193 
Q 2250 -91 1575 -91 
Q 1294 -91 989 -36 
Q 684 19 347 128 
L 347 722 
Q 666 556 975 473 
Q 1284 391 1588 391 
Q 1994 391 2212 530 
Q 2431 669 2431 922 
Q 2431 1156 2273 1281 
Q 2116 1406 1581 1522 
L 1381 1569 
Q 847 1681 609 1914 
Q 372 2147 372 2553 
Q 372 3047 722 3315 
Q 1072 3584 1716 3584 
Q 2034 3584 2315 3537 
Q 2597 3491 2834 3397 
z
" transform="scale(0.015625)"/>
      </defs>
      <use xlink:href="#DejaVuSans-45"/>
      <use xlink:href="#DejaVuSans-70" x="63.183594"/>
      <use xlink:href="#DejaVuSans-6f" x="126.660156"/>
      <use xlink:href="#DejaVuSans-63" x="187.841797"/>
      <use xlink:href="#DejaVuSans-68" x="242.822266"/>
      <use xlink:href="#DejaVuSans-73" x="306.201172"/>
     </g>
    </g>
   </g>
   <g id="matplotlib.axis_2">
    <g id="ytick_1">
     <g id="line2d_11">
      <defs>
       <path id="mc006d48d1e" d="M 0 0 
L -3.5 0 
" style="stroke: #000000; stroke-width: 0.8"/>
      </defs>
      <g>
       <use xlink:href="#mc006d48d1e" x="57.6" y="283.820986" style="stroke: #000000; stroke-width: 0.8"/>
      </g>
     </g>
     <g id="text_12">
      <!-- 10 -->
      <g transform="translate(37.875 287.620205) scale(0.1 -0.1)">
       <use xlink:href="#DejaVuSans-31"/>
       <use xlink:href="#DejaVuSans-30" x="63.623047"/>
      </g>
     </g>
    </g>
    <g id="ytick_2">
     <g id="line2d_12">
      <g>
       <use xlink:href="#mc006d48d1e" x="57.6" y="248.868155" style="stroke: #000000; stroke-width: 0.8"/>
      </g>
     </g>
     <g id="text_13">
      <!-- 20 -->
      <g transform="translate(37.875 252.667374) scale(0.1 -0.1)">
       <use xlink:href="#DejaVuSans-32"/>
       <use xlink:href="#DejaVuSans-30" x="63.623047"/>
      </g>
     </g>
    </g>
    <g id="ytick_3">
     <g id="line2d_13">
      <g>
       <use xlink:href="#mc006d48d1e" x="57.6" y="213.915324" style="stroke: #000000; stroke-width: 0.8"/>
      </g>
     </g>
     <g id="text_14">
      <!-- 30 -->
      <g transform="translate(37.875 217.714542) scale(0.1 -0.1)">
       <use xlink:href="#DejaVuSans-33"/>
       <use xlink:href="#DejaVuSans-30" x="63.623047"/>
      </g>
     </g>
    </g>
    <g id="ytick_4">
     <g id="line2d_14">
      <g>
       <use xlink:href="#mc006d48d1e" x="57.6" y="178.962492" style="stroke: #000000; stroke-width: 0.8"/>
      </g>
     </g>
     <g id="text_15">
      <!-- 40 -->
      <g transform="translate(37.875 182.761711) scale(0.1 -0.1)">
       <use xlink:href="#DejaVuSans-34"/>
       <use xlink:href="#DejaVuSans-30" x="63.623047"/>
      </g>
     </g>
    </g>
    <g id="ytick_5">
     <g id="line2d_15">
      <g>
       <use xlink:href="#mc006d48d1e" x="57.6" y="144.009661" style="stroke: #000000; stroke-width: 0.8"/>
      </g>
     </g>
     <g id="text_16">
      <!-- 50 -->
      <g transform="translate(37.875 147.80888) scale(0.1 -0.1)">
       <defs>
        <path id="DejaVuSans-35" d="M 691 4666 
L 3169 4666 
L 3169 4134 
L 1269 4134 
L 1269 2991 
Q 1406 3038 1543 3061 
Q 1681 3084 1819 3084 
Q 2600 3084 3056 2656 
Q 3513 2228 3513 1497 
Q 3513 744 3044 326 
Q 2575 -91 1722 -91 
Q 1428 -91 1123 -41 
Q 819 9 494 109 
L 494 744 
Q 775 591 1075 516 
Q 1375 441 1709 441 
Q 2250 441 2565 725 
Q 2881 1009 2881 1497 
Q 2881 1984 2565 2268 
Q 2250 2553 1709 2553 
Q 1456 2553 1204 2497 
Q 953 2441 691 2322 
L 691 4666 
z
" transform="scale(0.015625)"/>
       </defs>
       <use xlink:href="#DejaVuSans-35"/>
       <use xlink:href="#DejaVuSans-30" x="63.623047"/>
      </g>
     </g>
    </g>
    <g id="ytick_6">
     <g id="line2d_16">
      <g>
       <use xlink:href="#mc006d48d1e" x="57.6" y="109.05683" style="stroke: #000000; stroke-width: 0.8"/>
      </g>
     </g>
     <g id="text_17">
      <!-- 60 -->
      <g transform="translate(37.875 112.856049) scale(0.1 -0.1)">
       <use xlink:href="#DejaVuSans-36"/>
       <use xlink:href="#DejaVuSans-30" x="63.623047"/>
      </g>
     </g>
    </g>
    <g id="ytick_7">
     <g id="line2d_17">
      <g>
       <use xlink:href="#mc006d48d1e" x="57.6" y="74.103999" style="stroke: #000000; stroke-width: 0.8"/>
      </g>
     </g>
     <g id="text_18">
      <!-- 70 -->
      <g transform="translate(37.875 77.903217) scale(0.1 -0.1)">
       <use xlink:href="#DejaVuSans-37"/>
       <use xlink:href="#DejaVuSans-30" x="63.623047"/>
      </g>
     </g>
    </g>
    <g id="text_19">
     <!-- Accuracy -->
     <g transform="translate(31.795312 197.356125) rotate(-90) scale(0.1 -0.1)">
      <defs>
       <path id="DejaVuSans-41" d="M 2188 4044 
L 1331 1722 
L 3047 1722 
L 2188 4044 
z
M 1831 4666 
L 2547 4666 
L 4325 0 
L 3669 0 
L 3244 1197 
L 1141 1197 
L 716 0 
L 50 0 
L 1831 4666 
z
" transform="scale(0.015625)"/>
       <path id="DejaVuSans-75" d="M 544 1381 
L 544 3500 
L 1119 3500 
L 1119 1403 
Q 1119 906 1312 657 
Q 1506 409 1894 409 
Q 2359 409 2629 706 
Q 2900 1003 2900 1516 
L 2900 3500 
L 3475 3500 
L 3475 0 
L 2900 0 
L 2900 538 
Q 2691 219 2414 64 
Q 2138 -91 1772 -91 
Q 1169 -91 856 284 
Q 544 659 544 1381 
z
M 1991 3584 
L 1991 3584 
z
" transform="scale(0.015625)"/>
       <path id="DejaVuSans-72" d="M 2631 2963 
Q 2534 3019 2420 3045 
Q 2306 3072 2169 3072 
Q 1681 3072 1420 2755 
Q 1159 2438 1159 1844 
L 1159 0 
L 581 0 
L 581 3500 
L 1159 3500 
L 1159 2956 
Q 1341 3275 1631 3429 
Q 1922 3584 2338 3584 
Q 2397 3584 2469 3576 
Q 2541 3569 2628 3553 
L 2631 2963 
z
" transform="scale(0.015625)"/>
       <path id="DejaVuSans-61" d="M 2194 1759 
Q 1497 1759 1228 1600 
Q 959 1441 959 1056 
Q 959 750 1161 570 
Q 1363 391 1709 391 
Q 2188 391 2477 730 
Q 2766 1069 2766 1631 
L 2766 1759 
L 2194 1759 
z
M 3341 1997 
L 3341 0 
L 2766 0 
L 2766 531 
Q 2569 213 2275 61 
Q 1981 -91 1556 -91 
Q 1019 -91 701 211 
Q 384 513 384 1019 
Q 384 1609 779 1909 
Q 1175 2209 1959 2209 
L 2766 2209 
L 2766 2266 
Q 2766 2663 2505 2880 
Q 2244 3097 1772 3097 
Q 1472 3097 1187 3025 
Q 903 2953 641 2809 
L 641 3341 
Q 956 3463 1253 3523 
Q 1550 3584 1831 3584 
Q 2591 3584 2966 3190 
Q 3341 2797 3341 1997 
z
" transform="scale(0.015625)"/>
       <path id="DejaVuSans-79" d="M 2059 -325 
Q 1816 -950 1584 -1140 
Q 1353 -1331 966 -1331 
L 506 -1331 
L 506 -850 
L 844 -850 
Q 1081 -850 1212 -737 
Q 1344 -625 1503 -206 
L 1606 56 
L 191 3500 
L 800 3500 
L 1894 763 
L 2988 3500 
L 3597 3500 
L 2059 -325 
z
" transform="scale(0.015625)"/>
      </defs>
      <use xlink:href="#DejaVuSans-41"/>
      <use xlink:href="#DejaVuSans-63" x="66.658203"/>
      <use xlink:href="#DejaVuSans-63" x="121.638672"/>
      <use xlink:href="#DejaVuSans-75" x="176.619141"/>
      <use xlink:href="#DejaVuSans-72" x="239.998047"/>
      <use xlink:href="#DejaVuSans-61" x="281.111328"/>
      <use xlink:href="#DejaVuSans-63" x="342.390625"/>
      <use xlink:href="#DejaVuSans-79" x="397.371094"/>
     </g>
    </g>
   </g>
   <g id="line2d_18">
    <path d="M 73.832727 292.091386 
L 74.918528 255.680512 
L 76.00433 230.529183 
L 77.090131 211.788909 
L 78.175932 197.914604 
L 80.347534 177.660706 
L 82.519137 161.853297 
L 84.690739 151.478155 
L 85.77654 144.644125 
L 86.862341 139.026587 
L 87.948142 135.391093 
L 89.033943 131.119387 
L 91.205546 124.2504 
L 92.291347 121.576214 
L 93.377148 119.636118 
L 94.462949 119.716519 
L 95.54875 152.540838 
L 96.634552 150.817474 
L 97.720353 147.136536 
L 98.806154 145.346754 
L 99.891955 140.826856 
L 102.063557 135.849025 
L 103.149358 133.510423 
L 104.23516 130.311887 
L 105.320961 129.46244 
L 106.406762 125.645171 
L 107.492563 124.229426 
L 109.664165 118.856585 
L 110.749967 117.912754 
L 111.835768 115.630083 
L 112.921569 113.850789 
L 114.00737 111.274481 
L 115.093171 110.208303 
L 116.178972 106.939854 
L 117.264773 104.629217 
L 118.350575 103.999997 
L 119.436376 101.560021 
L 120.522177 99.567491 
L 121.607978 98.200684 
L 122.693779 95.834117 
L 123.77958 94.327485 
L 124.865382 92.279023 
L 125.951183 90.79686 
L 127.036984 89.031548 
L 128.122785 88.147144 
L 129.208586 85.913413 
L 132.46599 81.991274 
L 133.551791 80.750312 
L 134.637592 81.075409 
L 135.723393 79.495367 
L 136.809194 79.474393 
L 137.894995 78.820703 
L 138.980797 116.273286 
L 140.066598 119.82838 
L 141.152399 119.153716 
L 142.2382 116.521479 
L 143.324001 116.63334 
L 144.409802 115.727962 
L 145.495604 114.273764 
L 146.581405 113.38936 
L 147.667206 113.315951 
L 148.753007 110.959871 
L 149.838808 110.697696 
L 150.924609 110.180338 
L 152.01041 109.058228 
L 153.096212 108.285686 
L 154.182013 106.481921 
L 155.267814 106.723122 
L 157.439416 105.82124 
L 158.525217 104.276155 
L 159.611019 102.944305 
L 160.69682 101.175498 
L 161.782621 101.923571 
L 162.868422 100.497338 
L 165.040024 98.469851 
L 166.125825 98.515295 
L 167.211627 97.847622 
L 168.297428 97.928022 
L 169.383229 96.973705 
L 170.46903 95.051088 
L 171.554831 94.278545 
L 172.640632 93.761187 
L 173.726434 92.894261 
L 174.812235 91.628829 
L 175.898036 91.233819 
L 176.983837 90.534685 
L 178.069638 89.30421 
L 179.155439 89.262262 
L 180.24124 88.147144 
L 181.327042 85.972839 
L 182.412843 86.748877 
L 183.498644 84.983565 
L 184.584445 85.049983 
L 185.670246 83.476932 
L 186.756047 82.152074 
L 187.841849 81.788525 
L 188.92765 80.757303 
L 192.185053 77.111322 
L 193.270854 77.411949 
L 195.442457 74.122526 
L 196.528258 75.101313 
L 197.614059 73.248609 
L 198.69986 73.147234 
L 199.785661 71.755959 
L 200.871462 71.221122 
L 201.957264 69.469792 
L 203.043065 69.305496 
L 204.128866 66.994859 
L 205.214667 67.173138 
L 206.300468 65.718941 
L 208.472071 64.156377 
L 209.557872 63.488705 
L 210.643673 63.114668 
L 211.729474 62.481952 
L 212.815275 61.691932 
L 213.901076 61.132625 
L 214.986877 60.859963 
L 216.072679 60.188795 
L 217.15848 58.437465 
L 218.244281 59.164564 
L 219.330082 59.384791 
L 220.415883 58.598266 
L 221.501684 58.717118 
L 224.759088 58.035463 
L 225.844889 101.944545 
L 226.93069 106.03098 
L 228.016491 107.153089 
L 229.102292 106.191781 
L 230.188094 104.915862 
L 231.273895 105.27242 
L 232.359696 103.835701 
L 233.445497 103.46516 
L 235.617099 101.836179 
L 236.702901 101.053149 
L 237.788702 100.01144 
L 238.874503 99.854135 
L 239.960304 100.263128 
L 241.046105 99.945023 
L 242.131906 100.06038 
L 243.217708 98.850879 
L 244.303509 98.078336 
L 245.38931 98.109797 
L 246.475111 96.956227 
L 247.560912 97.802178 
L 248.646713 97.564473 
L 250.818316 96.222137 
L 251.904117 96.012397 
L 252.989918 95.34822 
L 254.075719 95.208393 
L 255.16152 94.142214 
L 256.247321 94.547712 
L 257.333123 93.705256 
L 258.418924 94.743469 
L 259.504725 93.782161 
L 260.590526 93.995396 
L 261.676327 92.866296 
L 262.762128 93.104001 
L 263.847929 92.611112 
L 264.933731 93.348698 
L 266.019532 93.07254 
L 267.105333 92.383894 
L 268.191134 90.69199 
L 269.276935 91.324706 
L 270.362736 89.790108 
L 271.448538 90.269015 
L 272.534339 90.080249 
L 273.62014 90.101223 
L 274.705941 89.807586 
L 275.791742 89.374124 
L 276.877543 89.576872 
L 277.963344 87.573855 
L 279.049146 88.577111 
L 280.134947 88.066744 
L 282.306549 87.790586 
L 283.39235 87.570359 
L 284.478151 86.73839 
L 285.563953 86.780338 
L 287.735555 85.567342 
L 288.821356 84.389302 
L 289.907157 85.525394 
L 290.992958 84.896173 
L 292.07876 84.728381 
L 293.164561 83.134357 
L 294.250362 83.448967 
L 295.336163 83.172809 
L 296.421964 83.235731 
L 297.507765 81.547324 
L 298.593566 82.270927 
L 299.679368 81.613742 
L 300.765169 81.225722 
L 302.936771 81.085896 
L 304.022572 80.239944 
L 305.108373 80.460171 
L 306.194175 79.0654 
L 307.279976 79.240183 
L 308.365777 78.345292 
L 309.451578 78.509589 
L 310.537379 78.222944 
L 311.62318 77.370001 
L 312.708981 77.670628 
L 313.794783 76.027665 
L 314.880584 76.621928 
L 315.966385 75.594202 
L 317.052186 75.363488 
L 318.137987 74.821659 
L 319.223788 74.741259 
L 320.30959 73.786942 
L 321.395391 73.346488 
L 322.481192 73.661098 
L 323.566993 72.147474 
L 324.652794 72.577441 
L 325.738595 71.871316 
L 326.824396 71.319 
L 327.910198 70.958947 
L 328.995999 70.018612 
L 330.0818 70.116491 
L 331.167601 69.595636 
L 332.253402 68.805615 
L 333.339203 68.588884 
L 334.425005 68.050551 
L 336.596607 66.729189 
L 337.682408 66.638301 
L 338.768209 66.201343 
L 339.85401 66.575379 
L 340.939811 64.886972 
L 342.025613 64.855511 
L 343.111414 64.568866 
L 344.197215 63.992081 
L 345.283016 64.292708 
L 347.454618 61.786315 
L 348.54042 61.548609 
L 349.626221 60.783058 
L 350.712022 60.650223 
L 351.797823 60.856467 
L 352.883624 59.783297 
L 355.055227 59.311382 
L 356.141028 56.937824 
L 357.226829 57.553061 
L 358.31263 57.297877 
L 359.398431 57.332834 
L 360.484232 56.042933 
L 361.570033 55.14105 
L 362.655835 54.878875 
L 363.741636 53.96301 
L 364.827437 55.193485 
L 365.913238 54.490856 
L 366.999039 53.568 
L 368.08484 55.071137 
L 369.170642 55.756288 
L 370.256443 56.913354 
L 371.342244 58.661188 
L 372.428045 60.84598 
L 373.513846 60.999789 
L 374.599647 61.331878 
L 375.685448 61.982072 
L 376.77125 61.331878 
L 377.857051 61.656975 
L 378.942852 61.422765 
L 380.028653 61.747862 
L 381.114454 61.37033 
L 382.200255 62.272212 
L 383.286057 61.559096 
L 385.457659 62.793067 
L 386.54346 62.240751 
L 387.629261 62.426022 
L 388.715062 62.132386 
L 390.886665 62.946876 
L 391.972466 62.642753 
L 393.058267 63.422287 
L 394.144068 61.831758 
L 395.229869 62.999311 
L 396.31567 62.985329 
L 397.401472 63.478218 
L 398.487273 62.953868 
L 398.487273 62.953868 
" clip-path="url(#p951d71c67c)" style="fill: none; stroke: #1f77b4; stroke-width: 1.5; stroke-linecap: square"/>
   </g>
   <g id="line2d_19">
    <path d="M 73.832727 279.906269 
L 74.918528 253.656693 
L 77.090131 212.657022 
L 78.175932 202.415842 
L 79.261733 199.165229 
L 80.347534 186.197728 
L 82.519137 170.78353 
L 83.604938 166.239662 
L 84.690739 154.390652 
L 85.77654 154.565416 
L 87.948142 145.512633 
L 90.119745 134.886972 
L 91.205546 129.783859 
L 92.291347 129.224614 
L 94.462949 126.777915 
L 95.54875 170.573813 
L 96.634552 164.317256 
L 97.720353 163.024001 
L 98.806154 158.060699 
L 100.977756 149.392397 
L 102.063557 146.351501 
L 103.149358 146.875793 
L 104.23516 142.471737 
L 105.320961 139.710463 
L 106.406762 132.580085 
L 107.492563 137.718152 
L 108.578364 129.679 
L 109.664165 125.449708 
L 110.749967 135.865651 
L 111.835768 133.209236 
L 112.921569 129.049849 
L 114.00737 122.75834 
L 115.093171 117.690179 
L 116.178972 120.766028 
L 117.264773 111.154 
L 118.350575 110.944283 
L 119.436376 112.482207 
L 120.522177 111.433622 
L 121.607978 110.804471 
L 122.693779 103.848858 
L 123.77958 106.400415 
L 124.865382 102.206075 
L 125.951183 102.310934 
L 127.036984 96.753433 
L 128.122785 97.382584 
L 129.208586 95.425226 
L 130.294387 95.530084 
L 131.380189 94.900933 
L 132.46599 91.65032 
L 134.637592 89.238575 
L 135.723393 90.217254 
L 136.809194 88.085131 
L 137.894995 88.18999 
L 138.980797 138.06768 
L 140.066598 128.350793 
L 141.152399 129.119755 
L 142.2382 140.025038 
L 143.324001 130.16834 
L 144.409802 124.1215 
L 145.495604 128.979944 
L 146.581405 127.756595 
L 147.667206 129.504236 
L 148.753007 129.049849 
L 149.838808 127.372113 
L 150.924609 126.148764 
L 152.01041 122.51367 
L 153.096212 123.107868 
L 154.182013 120.556311 
L 155.267814 123.946736 
L 156.353615 118.004755 
L 157.439416 114.859 
L 158.525217 113.495839 
L 159.611019 114.928906 
L 160.69682 113.076406 
L 161.782621 116.117302 
L 162.868422 122.653481 
L 163.954223 114.824047 
L 165.040024 108.497585 
L 166.125825 108.287868 
L 167.211627 112.237538 
L 168.297428 111.39867 
L 169.383229 111.39867 
L 170.46903 108.917019 
L 171.554831 109.860745 
L 172.640632 105.911075 
L 173.726434 105.911075 
L 174.812235 107.414047 
L 176.983837 105.876122 
L 178.069638 105.177066 
L 179.155439 101.541971 
L 180.24124 99.619565 
L 181.327042 102.52065 
L 182.412843 101.367207 
L 183.498644 94.166924 
L 184.584445 95.35532 
L 185.670246 94.271782 
L 186.756047 97.172867 
L 187.841849 95.425226 
L 188.92765 92.384329 
L 190.013451 94.516452 
L 191.099252 89.692961 
L 192.185053 89.832773 
L 193.270854 89.588103 
L 194.356656 86.721971 
L 195.442457 86.197678 
L 196.528258 90.671641 
L 197.614059 85.044235 
L 198.69986 84.659754 
L 199.785661 83.051924 
L 200.871462 82.527631 
L 201.957264 78.123574 
L 203.043065 78.822631 
L 204.128866 76.620603 
L 205.214667 77.983763 
L 206.300468 80.220744 
L 207.386269 76.131263 
L 208.472071 75.746782 
L 209.557872 76.201169 
L 210.643673 75.362301 
L 211.729474 71.90197 
L 212.815275 73.789423 
L 213.901076 72.775791 
L 214.986877 72.251499 
L 216.072679 71.202914 
L 217.15848 72.076735 
L 218.244281 71.237867 
L 219.330082 71.02815 
L 220.415883 71.167961 
L 221.501684 70.364046 
L 222.587486 70.888338 
L 223.673287 71.133008 
L 224.759088 71.167961 
L 225.844889 131.601406 
L 226.93069 125.799236 
L 228.016491 130.552821 
L 229.102292 131.426642 
L 230.188094 126.638104 
L 231.273895 118.494094 
L 232.359696 117.550368 
L 233.445497 115.313387 
L 234.531298 117.340651 
L 235.617099 132.999519 
L 236.702901 114.439566 
L 237.788702 119.577632 
L 238.874503 115.488151 
L 239.960304 113.216217 
L 241.046105 112.76183 
L 242.131906 120.766028 
L 243.217708 110.699613 
L 244.303509 111.188953 
L 245.38931 114.998811 
L 246.475111 116.641594 
L 247.560912 117.410557 
L 248.646713 110.839424 
L 249.732514 119.402868 
L 250.818316 113.530792 
L 251.904117 114.998811 
L 252.989918 114.12499 
L 254.075719 119.892208 
L 255.16152 122.373859 
L 256.247321 115.697868 
L 257.333123 112.866689 
L 258.418924 111.223905 
L 259.504725 109.895698 
L 260.590526 121.185462 
L 261.676327 107.728622 
L 262.762128 108.986924 
L 263.847929 105.456688 
L 264.933731 108.56749 
L 266.019532 107.903386 
L 267.105333 106.610132 
L 268.191134 111.748198 
L 269.276935 119.367915 
L 270.362736 107.029566 
L 271.448538 107.344141 
L 272.534339 115.872632 
L 273.62014 109.371405 
L 274.705941 110.105415 
L 275.791742 106.050886 
L 276.877543 104.408103 
L 277.963344 107.518905 
L 279.049146 104.443056 
L 280.134947 102.206075 
L 281.220748 103.883811 
L 282.306549 110.140368 
L 283.39235 102.310934 
L 284.478151 115.697868 
L 285.563953 103.604188 
L 286.649754 104.443056 
L 287.735555 105.980981 
L 288.821356 102.415792 
L 289.907157 103.394471 
L 290.992958 102.310934 
L 292.07876 98.116594 
L 293.164561 101.681783 
L 294.250362 101.087584 
L 295.336163 112.656972 
L 296.421964 100.283669 
L 297.507765 94.831028 
L 298.593566 97.102962 
L 299.679368 102.206075 
L 300.765169 98.745745 
L 301.85097 96.998103 
L 302.936771 96.473811 
L 304.022572 99.79433 
L 305.108373 91.056122 
L 306.194175 93.01348 
L 307.279976 92.838716 
L 308.365777 90.741546 
L 309.451578 96.159235 
L 310.537379 93.467867 
L 311.62318 91.091075 
L 312.708981 94.726169 
L 313.794783 92.209565 
L 314.880584 90.531829 
L 315.966385 89.55315 
L 317.052186 89.937631 
L 318.137987 90.671641 
L 319.223788 91.89499 
L 320.30959 91.056122 
L 321.395391 87.176358 
L 322.481192 90.392018 
L 323.566993 88.609424 
L 324.652794 84.135461 
L 325.738595 88.364754 
L 326.824396 85.813197 
L 327.910198 89.378386 
L 328.995999 82.038291 
L 330.0818 85.568527 
L 331.167601 84.24032 
L 332.253402 82.667442 
L 333.339203 81.618857 
L 334.425005 82.038291 
L 335.510806 78.68282 
L 336.596607 80.710084 
L 337.682408 76.83032 
L 338.768209 83.471357 
L 339.85401 78.822631 
L 340.939811 80.954754 
L 342.025613 76.09631 
L 343.111414 79.137206 
L 344.197215 79.591593 
L 345.283016 76.515744 
L 346.368817 75.222489 
L 347.454618 75.467159 
L 348.54042 76.131263 
L 349.626221 73.789423 
L 350.712022 72.251499 
L 351.797823 71.90197 
L 352.883624 74.558386 
L 353.969425 72.915602 
L 355.055227 68.511546 
L 356.141028 73.090367 
L 357.226829 72.216546 
L 358.31263 71.133008 
L 359.398431 68.791168 
L 360.484232 69.350414 
L 361.570033 68.756216 
L 362.655835 67.637725 
L 363.741636 67.323149 
L 364.827437 68.162017 
L 365.913238 67.183338 
L 366.999039 67.07848 
L 369.170642 71.063102 
L 370.256443 70.888338 
L 371.342244 71.552442 
L 372.428045 76.236121 
L 373.513846 75.781735 
L 374.599647 79.137206 
L 375.685448 73.894282 
L 376.77125 77.424518 
L 377.857051 73.649612 
L 378.942852 76.655555 
L 380.028653 76.061357 
L 381.114454 81.863527 
L 382.200255 75.537065 
L 383.286057 75.746782 
L 384.371858 77.005084 
L 385.457659 80.080933 
L 386.54346 80.954754 
L 387.629261 77.214801 
L 388.715062 79.731405 
L 389.800863 76.970131 
L 390.886665 76.900225 
L 391.972466 79.731405 
L 393.058267 76.83032 
L 394.144068 78.403197 
L 395.229869 73.335036 
L 396.31567 81.40914 
L 397.401472 76.865272 
L 398.487273 76.550697 
L 398.487273 76.550697 
" clip-path="url(#p951d71c67c)" style="fill: none; stroke: #ff7f0e; stroke-width: 1.5; stroke-linecap: square"/>
   </g>
   <g id="line2d_20">
    <path d="M 73.832727 295.488 
L 74.918528 289.172385 
L 76.00433 277.577687 
L 77.090131 276.637577 
L 78.175932 267.284681 
L 79.261733 271.575442 
L 80.347534 263.331395 
L 81.433335 256.316724 
L 82.519137 253.327654 
L 83.604938 250.893008 
L 84.690739 250.121636 
L 85.77654 247.928044 
L 86.862341 250.868903 
L 87.948142 243.44444 
L 89.033943 243.420334 
L 90.119745 240.214316 
L 91.205546 239.2501 
L 92.291347 238.551043 
L 94.462949 236.477979 
L 95.54875 253.183022 
L 96.634552 256.847042 
L 97.720353 255.762299 
L 98.806154 253.906184 
L 99.891955 244.96308 
L 100.977756 249.543106 
L 102.063557 247.397725 
L 103.149358 243.106964 
L 104.23516 247.542358 
L 105.320961 243.299807 
L 106.406762 235.513763 
L 107.492563 240.045578 
L 108.578364 234.47723 
L 109.664165 236.719033 
L 110.749967 242.769488 
L 111.835768 237.418089 
L 114.00737 230.065942 
L 115.093171 229.704361 
L 116.178972 235.393236 
L 117.264773 222.279898 
L 118.350575 221.21926 
L 119.436376 229.511518 
L 120.522177 228.71604 
L 121.607978 226.956345 
L 122.693779 219.724725 
L 123.77958 223.195903 
L 124.865382 219.724725 
L 125.951183 221.195155 
L 127.036984 218.18198 
L 128.122785 213.071635 
L 129.208586 213.698375 
L 130.294387 217.651661 
L 131.380189 213.240372 
L 132.46599 210.829832 
L 133.551791 212.348473 
L 134.637592 211.649416 
L 135.723393 212.806475 
L 136.809194 210.853938 
L 137.894995 210.564673 
L 138.980797 243.613177 
L 140.066598 231.464055 
L 141.152399 237.562722 
L 142.2382 247.277198 
L 143.324001 237.827881 
L 144.409802 232.042585 
L 145.495604 233.971017 
L 146.581405 232.597009 
L 147.667206 233.922806 
L 148.753007 225.076124 
L 149.838808 228.571407 
L 150.924609 226.136762 
L 153.096212 230.644472 
L 154.182013 226.715291 
L 155.267814 233.175539 
L 156.353615 229.824888 
L 157.439416 220.688941 
L 158.525217 229.800783 
L 159.611019 223.05127 
L 160.69682 226.787608 
L 161.782621 218.398928 
L 162.868422 224.618122 
L 163.954223 229.897204 
L 165.040024 219.266723 
L 166.125825 223.436957 
L 167.211627 221.243365 
L 168.297428 226.763502 
L 169.383229 223.099481 
L 170.46903 222.520952 
L 171.554831 219.821147 
L 172.640632 216.446391 
L 173.726434 215.168804 
L 174.812235 214.807223 
L 175.898036 224.328857 
L 176.983837 220.32736 
L 178.069638 220.544309 
L 179.155439 220.038095 
L 180.24124 207.165811 
L 182.412843 217.362396 
L 183.498644 205.86412 
L 184.584445 210.37183 
L 185.670246 207.262233 
L 186.756047 216.542812 
L 187.841849 218.23019 
L 188.92765 200.585037 
L 190.013451 206.370333 
L 191.099252 198.825343 
L 192.185053 201.645675 
L 193.270854 200.392194 
L 194.356656 206.105174 
L 195.442457 203.067893 
L 196.528258 205.671276 
L 197.614059 206.514966 
L 198.69986 203.429474 
L 199.785661 195.763957 
L 200.871462 195.040795 
L 201.957264 192.461517 
L 203.043065 195.450587 
L 204.128866 190.508979 
L 205.214667 194.920268 
L 206.300468 194.655108 
L 207.386269 190.677717 
L 208.472071 193.160573 
L 209.557872 189.544763 
L 210.643673 191.690144 
L 211.729474 191.015193 
L 212.815275 188.267177 
L 213.901076 186.579799 
L 214.986877 188.845707 
L 216.072679 185.567372 
L 217.15848 186.772642 
L 218.244281 186.31464 
L 219.330082 187.640437 
L 221.501684 186.170007 
L 222.587486 186.676221 
L 223.673287 185.712005 
L 224.759088 185.446845 
L 225.844889 238.575149 
L 226.93069 227.800034 
L 228.016491 230.668577 
L 229.102292 237.345773 
L 230.188094 227.004556 
L 231.273895 227.366137 
L 232.359696 221.195155 
L 233.445497 219.339039 
L 234.531298 219.555987 
L 235.617099 240.334843 
L 236.702901 222.858427 
L 237.788702 224.666332 
L 238.874503 231.656899 
L 239.960304 224.039592 
L 241.046105 221.146944 
L 242.131906 226.884029 
L 243.217708 220.423782 
L 244.303509 215.771439 
L 245.38931 229.077621 
L 246.475111 214.903645 
L 247.560912 222.400425 
L 248.646713 225.72697 
L 249.732514 222.786111 
L 250.818316 221.629052 
L 251.904117 217.362396 
L 252.989918 222.641479 
L 254.075719 237.008298 
L 255.16152 229.680256 
L 256.247321 225.293073 
L 257.333123 221.484419 
L 258.418924 221.629052 
L 259.504725 225.124335 
L 260.590526 222.062949 
L 261.676327 227.438453 
L 262.762128 220.929995 
L 263.847929 211.5771 
L 264.933731 226.498343 
L 266.019532 220.954101 
L 267.105333 214.686696 
L 268.191134 217.458817 
L 269.276935 230.427523 
L 270.362736 219.314933 
L 271.448538 212.927002 
L 272.534339 223.485168 
L 273.62014 213.023424 
L 274.705941 220.978206 
L 275.791742 212.396683 
L 276.877543 211.5771 
L 277.963344 211.456573 
L 279.049146 208.395187 
L 280.134947 216.952604 
L 281.220748 219.339039 
L 282.306549 227.727718 
L 283.39235 211.022675 
L 284.478151 227.800034 
L 285.563953 215.602702 
L 286.649754 217.531134 
L 287.735555 226.522448 
L 288.821356 205.526644 
L 289.907157 219.917568 
L 290.992958 228.788356 
L 292.07876 198.319129 
L 293.164561 216.928499 
L 294.250362 207.455076 
L 295.336163 219.604198 
L 296.421964 211.89047 
L 297.507765 202.513469 
L 298.593566 213.746586 
L 299.679368 209.47993 
L 300.765169 216.422285 
L 301.85097 211.432467 
L 302.936771 212.372578 
L 304.022572 212.348473 
L 305.108373 207.189917 
L 306.194175 208.443398 
L 307.279976 202.513469 
L 308.365777 202.826839 
L 309.451578 214.421537 
L 310.537379 202.007256 
L 311.62318 200.705564 
L 312.708981 203.646423 
L 313.794783 205.261485 
L 314.880584 208.732662 
L 315.966385 201.332304 
L 317.052186 204.924009 
L 318.137987 202.658101 
L 319.223788 206.514966 
L 320.30959 203.550001 
L 321.395391 208.0095 
L 322.481192 203.76695 
L 323.566993 205.333801 
L 324.652794 194.992584 
L 325.738595 201.115356 
L 326.824396 198.463762 
L 327.910198 203.381263 
L 328.995999 195.137216 
L 330.0818 197.041543 
L 331.167601 202.537574 
L 332.253402 197.957548 
L 333.339203 200.922513 
L 334.425005 192.196357 
L 335.510806 192.148147 
L 336.596607 194.389949 
L 337.682408 191.039298 
L 338.768209 196.077327 
L 339.85401 188.435915 
L 340.939811 198.05397 
L 342.025613 193.570365 
L 343.111414 193.883735 
L 344.197215 195.040795 
L 345.283016 189.35192 
L 346.368817 192.220463 
L 348.54042 186.724431 
L 349.626221 187.495804 
L 350.712022 183.855889 
L 351.797823 185.10937 
L 352.883624 189.978661 
L 353.969425 189.472447 
L 355.055227 183.349675 
L 356.141028 183.735362 
L 357.226829 185.181686 
L 359.398431 180.432922 
L 360.484232 180.408816 
L 361.570033 181.951562 
L 362.655835 180.939135 
L 363.741636 179.034809 
L 364.827437 183.976416 
L 365.913238 181.421243 
L 366.999039 184.506735 
L 368.08484 185.519161 
L 369.170642 182.144405 
L 370.256443 181.324822 
L 371.342244 182.144405 
L 372.428045 190.099188 
L 373.513846 187.158329 
L 374.599647 190.050977 
L 375.685448 186.073586 
L 376.77125 189.231393 
L 377.857051 185.663794 
L 378.942852 195.185427 
L 380.028653 192.774887 
L 381.114454 197.330808 
L 382.200255 191.810671 
L 383.286057 189.110866 
L 384.371858 190.412558 
L 385.457659 196.728173 
L 386.54346 201.380515 
L 387.629261 198.536078 
L 388.715062 198.343235 
L 389.800863 193.305206 
L 390.886665 191.834776 
L 391.972466 199.57261 
L 393.058267 190.798244 
L 394.144068 192.919519 
L 395.229869 189.086761 
L 396.31567 196.824594 
L 397.401472 195.619324 
L 398.487273 193.136468 
L 398.487273 193.136468 
" clip-path="url(#p951d71c67c)" style="fill: none; stroke: #2ca02c; stroke-width: 1.5; stroke-linecap: square"/>
   </g>
   <g id="line2d_21">
    <path d="M 368.08484 65.680366 
L 369.170642 69.560131 
L 370.256443 70.084423 
L 371.342244 73.160272 
L 372.428045 71.657301 
L 373.513846 77.774046 
L 374.599647 80.325603 
L 375.685448 76.061357 
L 376.77125 78.997395 
L 377.857051 75.117631 
L 378.942852 83.436405 
L 380.028653 80.605225 
L 381.114454 79.941122 
L 382.200255 76.236121 
L 383.286057 83.436405 
L 384.371858 81.548952 
L 386.54346 82.702395 
L 387.629261 82.527631 
L 388.715062 84.275273 
L 389.800863 85.253952 
L 390.886665 87.21131 
L 391.972466 90.846405 
L 393.058267 95.634943 
L 394.144068 93.782443 
L 395.229869 90.636688 
L 396.31567 98.291358 
L 397.401472 91.230886 
L 398.487273 90.601735 
L 398.487273 90.601735 
" clip-path="url(#p951d71c67c)" style="fill: none; stroke: #d62728; stroke-width: 1.5; stroke-linecap: square"/>
   </g>
   <g id="line2d_22">
    <path d="M 368.08484 183.084516 
L 369.170642 190.388452 
L 370.256443 190.55719 
L 371.342244 187.809174 
L 372.428045 177.492063 
L 373.513846 185.012948 
L 374.599647 190.099188 
L 375.685448 186.555694 
L 376.77125 186.579799 
L 377.857051 190.677717 
L 378.942852 192.871309 
L 380.028653 186.603904 
L 381.114454 189.424236 
L 382.200255 189.400131 
L 383.286057 192.172252 
L 384.371858 186.411061 
L 385.457659 187.51991 
L 386.54346 190.316136 
L 387.629261 193.835525 
L 388.715062 195.209533 
L 389.800863 204.682955 
L 390.886665 193.112363 
L 391.972466 198.078075 
L 393.058267 211.697627 
L 394.144068 204.682955 
L 395.229869 199.934191 
L 396.31567 209.841511 
L 397.401472 198.656605 
L 398.487273 201.573358 
L 398.487273 201.573358 
" clip-path="url(#p951d71c67c)" style="fill: none; stroke: #9467bd; stroke-width: 1.5; stroke-linecap: square"/>
   </g>
   <g id="patch_3">
    <path d="M 57.6 307.584 
L 57.6 41.472 
" style="fill: none; stroke: #000000; stroke-width: 0.8; stroke-linejoin: miter; stroke-linecap: square"/>
   </g>
   <g id="patch_4">
    <path d="M 414.72 307.584 
L 414.72 41.472 
" style="fill: none; stroke: #000000; stroke-width: 0.8; stroke-linejoin: miter; stroke-linecap: square"/>
   </g>
   <g id="patch_5">
    <path d="M 57.6 307.584 
L 414.72 307.584 
" style="fill: none; stroke: #000000; stroke-width: 0.8; stroke-linejoin: miter; stroke-linecap: square"/>
   </g>
   <g id="patch_6">
    <path d="M 57.6 41.472 
L 414.72 41.472 
" style="fill: none; stroke: #000000; stroke-width: 0.8; stroke-linejoin: miter; stroke-linecap: square"/>
   </g>
   <g id="text_20">
    <!-- Learning Curves -->
    <g transform="translate(187.37625 35.472) scale(0.12 -0.12)">
     <defs>
      <path id="DejaVuSans-4c" d="M 628 4666 
L 1259 4666 
L 1259 531 
L 3531 531 
L 3531 0 
L 628 0 
L 628 4666 
z
" transform="scale(0.015625)"/>
      <path id="DejaVuSans-65" d="M 3597 1894 
L 3597 1613 
L 953 1613 
Q 991 1019 1311 708 
Q 1631 397 2203 397 
Q 2534 397 2845 478 
Q 3156 559 3463 722 
L 3463 178 
Q 3153 47 2828 -22 
Q 2503 -91 2169 -91 
Q 1331 -91 842 396 
Q 353 884 353 1716 
Q 353 2575 817 3079 
Q 1281 3584 2069 3584 
Q 2775 3584 3186 3129 
Q 3597 2675 3597 1894 
z
M 3022 2063 
Q 3016 2534 2758 2815 
Q 2500 3097 2075 3097 
Q 1594 3097 1305 2825 
Q 1016 2553 972 2059 
L 3022 2063 
z
" transform="scale(0.015625)"/>
      <path id="DejaVuSans-6e" d="M 3513 2113 
L 3513 0 
L 2938 0 
L 2938 2094 
Q 2938 2591 2744 2837 
Q 2550 3084 2163 3084 
Q 1697 3084 1428 2787 
Q 1159 2491 1159 1978 
L 1159 0 
L 581 0 
L 581 3500 
L 1159 3500 
L 1159 2956 
Q 1366 3272 1645 3428 
Q 1925 3584 2291 3584 
Q 2894 3584 3203 3211 
Q 3513 2838 3513 2113 
z
" transform="scale(0.015625)"/>
      <path id="DejaVuSans-69" d="M 603 3500 
L 1178 3500 
L 1178 0 
L 603 0 
L 603 3500 
z
M 603 4863 
L 1178 4863 
L 1178 4134 
L 603 4134 
L 603 4863 
z
" transform="scale(0.015625)"/>
      <path id="DejaVuSans-67" d="M 2906 1791 
Q 2906 2416 2648 2759 
Q 2391 3103 1925 3103 
Q 1463 3103 1205 2759 
Q 947 2416 947 1791 
Q 947 1169 1205 825 
Q 1463 481 1925 481 
Q 2391 481 2648 825 
Q 2906 1169 2906 1791 
z
M 3481 434 
Q 3481 -459 3084 -895 
Q 2688 -1331 1869 -1331 
Q 1566 -1331 1297 -1286 
Q 1028 -1241 775 -1147 
L 775 -588 
Q 1028 -725 1275 -790 
Q 1522 -856 1778 -856 
Q 2344 -856 2625 -561 
Q 2906 -266 2906 331 
L 2906 616 
Q 2728 306 2450 153 
Q 2172 0 1784 0 
Q 1141 0 747 490 
Q 353 981 353 1791 
Q 353 2603 747 3093 
Q 1141 3584 1784 3584 
Q 2172 3584 2450 3431 
Q 2728 3278 2906 2969 
L 2906 3500 
L 3481 3500 
L 3481 434 
z
" transform="scale(0.015625)"/>
      <path id="DejaVuSans-20" transform="scale(0.015625)"/>
      <path id="DejaVuSans-43" d="M 4122 4306 
L 4122 3641 
Q 3803 3938 3442 4084 
Q 3081 4231 2675 4231 
Q 1875 4231 1450 3742 
Q 1025 3253 1025 2328 
Q 1025 1406 1450 917 
Q 1875 428 2675 428 
Q 3081 428 3442 575 
Q 3803 722 4122 1019 
L 4122 359 
Q 3791 134 3420 21 
Q 3050 -91 2638 -91 
Q 1578 -91 968 557 
Q 359 1206 359 2328 
Q 359 3453 968 4101 
Q 1578 4750 2638 4750 
Q 3056 4750 3426 4639 
Q 3797 4528 4122 4306 
z
" transform="scale(0.015625)"/>
      <path id="DejaVuSans-76" d="M 191 3500 
L 800 3500 
L 1894 563 
L 2988 3500 
L 3597 3500 
L 2284 0 
L 1503 0 
L 191 3500 
z
" transform="scale(0.015625)"/>
     </defs>
     <use xlink:href="#DejaVuSans-4c"/>
     <use xlink:href="#DejaVuSans-65" x="53.962891"/>
     <use xlink:href="#DejaVuSans-61" x="115.486328"/>
     <use xlink:href="#DejaVuSans-72" x="176.765625"/>
     <use xlink:href="#DejaVuSans-6e" x="216.128906"/>
     <use xlink:href="#DejaVuSans-69" x="279.507812"/>
     <use xlink:href="#DejaVuSans-6e" x="307.291016"/>
     <use xlink:href="#DejaVuSans-67" x="370.669922"/>
     <use xlink:href="#DejaVuSans-20" x="434.146484"/>
     <use xlink:href="#DejaVuSans-43" x="465.933594"/>
     <use xlink:href="#DejaVuSans-75" x="535.757812"/>
     <use xlink:href="#DejaVuSans-72" x="599.136719"/>
     <use xlink:href="#DejaVuSans-76" x="640.25"/>
     <use xlink:href="#DejaVuSans-65" x="699.429688"/>
     <use xlink:href="#DejaVuSans-73" x="760.953125"/>
    </g>
   </g>
   <g id="legend_1">
    <g id="patch_7">
     <path d="M 214.18875 302.584 
L 407.72 302.584 
Q 409.72 302.584 409.72 300.584 
L 409.72 228.193375 
Q 409.72 226.193375 407.72 226.193375 
L 214.18875 226.193375 
Q 212.18875 226.193375 212.18875 228.193375 
L 212.18875 300.584 
Q 212.18875 302.584 214.18875 302.584 
z
" style="fill: #ffffff; opacity: 0.8; stroke: #cccccc; stroke-linejoin: miter"/>
    </g>
    <g id="line2d_23">
     <path d="M 216.18875 234.291812 
L 226.18875 234.291812 
L 236.18875 234.291812 
" style="fill: none; stroke: #1f77b4; stroke-width: 1.5; stroke-linecap: square"/>
    </g>
    <g id="text_21">
     <!-- Train Accuracy -->
     <g transform="translate(244.18875 237.791812) scale(0.1 -0.1)">
      <defs>
       <path id="DejaVuSans-54" d="M -19 4666 
L 3928 4666 
L 3928 4134 
L 2272 4134 
L 2272 0 
L 1638 0 
L 1638 4134 
L -19 4134 
L -19 4666 
z
" transform="scale(0.015625)"/>
      </defs>
      <use xlink:href="#DejaVuSans-54"/>
      <use xlink:href="#DejaVuSans-72" x="46.333984"/>
      <use xlink:href="#DejaVuSans-61" x="87.447266"/>
      <use xlink:href="#DejaVuSans-69" x="148.726562"/>
      <use xlink:href="#DejaVuSans-6e" x="176.509766"/>
      <use xlink:href="#DejaVuSans-20" x="239.888672"/>
      <use xlink:href="#DejaVuSans-41" x="271.675781"/>
      <use xlink:href="#DejaVuSans-63" x="338.333984"/>
      <use xlink:href="#DejaVuSans-63" x="393.314453"/>
      <use xlink:href="#DejaVuSans-75" x="448.294922"/>
      <use xlink:href="#DejaVuSans-72" x="511.673828"/>
      <use xlink:href="#DejaVuSans-61" x="552.787109"/>
      <use xlink:href="#DejaVuSans-63" x="614.066406"/>
      <use xlink:href="#DejaVuSans-79" x="669.046875"/>
     </g>
    </g>
    <g id="line2d_24">
     <path d="M 216.18875 248.969937 
L 226.18875 248.969937 
L 236.18875 248.969937 
" style="fill: none; stroke: #ff7f0e; stroke-width: 1.5; stroke-linecap: square"/>
    </g>
    <g id="text_22">
     <!-- Validation Accuracy -->
     <g transform="translate(244.18875 252.469937) scale(0.1 -0.1)">
      <defs>
       <path id="DejaVuSans-56" d="M 1831 0 
L 50 4666 
L 709 4666 
L 2188 738 
L 3669 4666 
L 4325 4666 
L 2547 0 
L 1831 0 
z
" transform="scale(0.015625)"/>
       <path id="DejaVuSans-6c" d="M 603 4863 
L 1178 4863 
L 1178 0 
L 603 0 
L 603 4863 
z
" transform="scale(0.015625)"/>
       <path id="DejaVuSans-64" d="M 2906 2969 
L 2906 4863 
L 3481 4863 
L 3481 0 
L 2906 0 
L 2906 525 
Q 2725 213 2448 61 
Q 2172 -91 1784 -91 
Q 1150 -91 751 415 
Q 353 922 353 1747 
Q 353 2572 751 3078 
Q 1150 3584 1784 3584 
Q 2172 3584 2448 3432 
Q 2725 3281 2906 2969 
z
M 947 1747 
Q 947 1113 1208 752 
Q 1469 391 1925 391 
Q 2381 391 2643 752 
Q 2906 1113 2906 1747 
Q 2906 2381 2643 2742 
Q 2381 3103 1925 3103 
Q 1469 3103 1208 2742 
Q 947 2381 947 1747 
z
" transform="scale(0.015625)"/>
       <path id="DejaVuSans-74" d="M 1172 4494 
L 1172 3500 
L 2356 3500 
L 2356 3053 
L 1172 3053 
L 1172 1153 
Q 1172 725 1289 603 
Q 1406 481 1766 481 
L 2356 481 
L 2356 0 
L 1766 0 
Q 1100 0 847 248 
Q 594 497 594 1153 
L 594 3053 
L 172 3053 
L 172 3500 
L 594 3500 
L 594 4494 
L 1172 4494 
z
" transform="scale(0.015625)"/>
      </defs>
      <use xlink:href="#DejaVuSans-56"/>
      <use xlink:href="#DejaVuSans-61" x="60.658203"/>
      <use xlink:href="#DejaVuSans-6c" x="121.9375"/>
      <use xlink:href="#DejaVuSans-69" x="149.720703"/>
      <use xlink:href="#DejaVuSans-64" x="177.503906"/>
      <use xlink:href="#DejaVuSans-61" x="240.980469"/>
      <use xlink:href="#DejaVuSans-74" x="302.259766"/>
      <use xlink:href="#DejaVuSans-69" x="341.46875"/>
      <use xlink:href="#DejaVuSans-6f" x="369.251953"/>
      <use xlink:href="#DejaVuSans-6e" x="430.433594"/>
      <use xlink:href="#DejaVuSans-20" x="493.8125"/>
      <use xlink:href="#DejaVuSans-41" x="525.599609"/>
      <use xlink:href="#DejaVuSans-63" x="592.257812"/>
      <use xlink:href="#DejaVuSans-63" x="647.238281"/>
      <use xlink:href="#DejaVuSans-75" x="702.21875"/>
      <use xlink:href="#DejaVuSans-72" x="765.597656"/>
      <use xlink:href="#DejaVuSans-61" x="806.710938"/>
      <use xlink:href="#DejaVuSans-63" x="867.990234"/>
      <use xlink:href="#DejaVuSans-79" x="922.970703"/>
     </g>
    </g>
    <g id="line2d_25">
     <path d="M 216.18875 263.648062 
L 226.18875 263.648062 
L 236.18875 263.648062 
" style="fill: none; stroke: #2ca02c; stroke-width: 1.5; stroke-linecap: square"/>
    </g>
    <g id="text_23">
     <!-- Robust Validation Accuracy -->
     <g transform="translate(244.18875 267.148062) scale(0.1 -0.1)">
      <defs>
       <path id="DejaVuSans-52" d="M 2841 2188 
Q 3044 2119 3236 1894 
Q 3428 1669 3622 1275 
L 4263 0 
L 3584 0 
L 2988 1197 
Q 2756 1666 2539 1819 
Q 2322 1972 1947 1972 
L 1259 1972 
L 1259 0 
L 628 0 
L 628 4666 
L 2053 4666 
Q 2853 4666 3247 4331 
Q 3641 3997 3641 3322 
Q 3641 2881 3436 2590 
Q 3231 2300 2841 2188 
z
M 1259 4147 
L 1259 2491 
L 2053 2491 
Q 2509 2491 2742 2702 
Q 2975 2913 2975 3322 
Q 2975 3731 2742 3939 
Q 2509 4147 2053 4147 
L 1259 4147 
z
" transform="scale(0.015625)"/>
       <path id="DejaVuSans-62" d="M 3116 1747 
Q 3116 2381 2855 2742 
Q 2594 3103 2138 3103 
Q 1681 3103 1420 2742 
Q 1159 2381 1159 1747 
Q 1159 1113 1420 752 
Q 1681 391 2138 391 
Q 2594 391 2855 752 
Q 3116 1113 3116 1747 
z
M 1159 2969 
Q 1341 3281 1617 3432 
Q 1894 3584 2278 3584 
Q 2916 3584 3314 3078 
Q 3713 2572 3713 1747 
Q 3713 922 3314 415 
Q 2916 -91 2278 -91 
Q 1894 -91 1617 61 
Q 1341 213 1159 525 
L 1159 0 
L 581 0 
L 581 4863 
L 1159 4863 
L 1159 2969 
z
" transform="scale(0.015625)"/>
      </defs>
      <use xlink:href="#DejaVuSans-52"/>
      <use xlink:href="#DejaVuSans-6f" x="64.982422"/>
      <use xlink:href="#DejaVuSans-62" x="126.164062"/>
      <use xlink:href="#DejaVuSans-75" x="189.640625"/>
      <use xlink:href="#DejaVuSans-73" x="253.019531"/>
      <use xlink:href="#DejaVuSans-74" x="305.119141"/>
      <use xlink:href="#DejaVuSans-20" x="344.328125"/>
      <use xlink:href="#DejaVuSans-56" x="376.115234"/>
      <use xlink:href="#DejaVuSans-61" x="436.773438"/>
      <use xlink:href="#DejaVuSans-6c" x="498.052734"/>
      <use xlink:href="#DejaVuSans-69" x="525.835938"/>
      <use xlink:href="#DejaVuSans-64" x="553.619141"/>
      <use xlink:href="#DejaVuSans-61" x="617.095703"/>
      <use xlink:href="#DejaVuSans-74" x="678.375"/>
      <use xlink:href="#DejaVuSans-69" x="717.583984"/>
      <use xlink:href="#DejaVuSans-6f" x="745.367188"/>
      <use xlink:href="#DejaVuSans-6e" x="806.548828"/>
      <use xlink:href="#DejaVuSans-20" x="869.927734"/>
      <use xlink:href="#DejaVuSans-41" x="901.714844"/>
      <use xlink:href="#DejaVuSans-63" x="968.373047"/>
      <use xlink:href="#DejaVuSans-63" x="1023.353516"/>
      <use xlink:href="#DejaVuSans-75" x="1078.333984"/>
      <use xlink:href="#DejaVuSans-72" x="1141.712891"/>
      <use xlink:href="#DejaVuSans-61" x="1182.826172"/>
      <use xlink:href="#DejaVuSans-63" x="1244.105469"/>
      <use xlink:href="#DejaVuSans-79" x="1299.085938"/>
     </g>
    </g>
    <g id="line2d_26">
     <path d="M 216.18875 278.326188 
L 226.18875 278.326188 
L 236.18875 278.326188 
" style="fill: none; stroke: #d62728; stroke-width: 1.5; stroke-linecap: square"/>
    </g>
    <g id="text_24">
     <!-- SWA Validation Accuracy -->
     <g transform="translate(244.18875 281.826188) scale(0.1 -0.1)">
      <defs>
       <path id="DejaVuSans-53" d="M 3425 4513 
L 3425 3897 
Q 3066 4069 2747 4153 
Q 2428 4238 2131 4238 
Q 1616 4238 1336 4038 
Q 1056 3838 1056 3469 
Q 1056 3159 1242 3001 
Q 1428 2844 1947 2747 
L 2328 2669 
Q 3034 2534 3370 2195 
Q 3706 1856 3706 1288 
Q 3706 609 3251 259 
Q 2797 -91 1919 -91 
Q 1588 -91 1214 -16 
Q 841 59 441 206 
L 441 856 
Q 825 641 1194 531 
Q 1563 422 1919 422 
Q 2459 422 2753 634 
Q 3047 847 3047 1241 
Q 3047 1584 2836 1778 
Q 2625 1972 2144 2069 
L 1759 2144 
Q 1053 2284 737 2584 
Q 422 2884 422 3419 
Q 422 4038 858 4394 
Q 1294 4750 2059 4750 
Q 2388 4750 2728 4690 
Q 3069 4631 3425 4513 
z
" transform="scale(0.015625)"/>
       <path id="DejaVuSans-57" d="M 213 4666 
L 850 4666 
L 1831 722 
L 2809 4666 
L 3519 4666 
L 4500 722 
L 5478 4666 
L 6119 4666 
L 4947 0 
L 4153 0 
L 3169 4050 
L 2175 0 
L 1381 0 
L 213 4666 
z
" transform="scale(0.015625)"/>
      </defs>
      <use xlink:href="#DejaVuSans-53"/>
      <use xlink:href="#DejaVuSans-57" x="63.476562"/>
      <use xlink:href="#DejaVuSans-41" x="156.853516"/>
      <use xlink:href="#DejaVuSans-20" x="225.261719"/>
      <use xlink:href="#DejaVuSans-56" x="257.048828"/>
      <use xlink:href="#DejaVuSans-61" x="317.707031"/>
      <use xlink:href="#DejaVuSans-6c" x="378.986328"/>
      <use xlink:href="#DejaVuSans-69" x="406.769531"/>
      <use xlink:href="#DejaVuSans-64" x="434.552734"/>
      <use xlink:href="#DejaVuSans-61" x="498.029297"/>
      <use xlink:href="#DejaVuSans-74" x="559.308594"/>
      <use xlink:href="#DejaVuSans-69" x="598.517578"/>
      <use xlink:href="#DejaVuSans-6f" x="626.300781"/>
      <use xlink:href="#DejaVuSans-6e" x="687.482422"/>
      <use xlink:href="#DejaVuSans-20" x="750.861328"/>
      <use xlink:href="#DejaVuSans-41" x="782.648438"/>
      <use xlink:href="#DejaVuSans-63" x="849.306641"/>
      <use xlink:href="#DejaVuSans-63" x="904.287109"/>
      <use xlink:href="#DejaVuSans-75" x="959.267578"/>
      <use xlink:href="#DejaVuSans-72" x="1022.646484"/>
      <use xlink:href="#DejaVuSans-61" x="1063.759766"/>
      <use xlink:href="#DejaVuSans-63" x="1125.039062"/>
      <use xlink:href="#DejaVuSans-79" x="1180.019531"/>
     </g>
    </g>
    <g id="line2d_27">
     <path d="M 216.18875 293.004312 
L 226.18875 293.004312 
L 236.18875 293.004312 
" style="fill: none; stroke: #9467bd; stroke-width: 1.5; stroke-linecap: square"/>
    </g>
    <g id="text_25">
     <!-- SWA Robust Validation Accuracy -->
     <g transform="translate(244.18875 296.504312) scale(0.1 -0.1)">
      <use xlink:href="#DejaVuSans-53"/>
      <use xlink:href="#DejaVuSans-57" x="63.476562"/>
      <use xlink:href="#DejaVuSans-41" x="156.853516"/>
      <use xlink:href="#DejaVuSans-20" x="225.261719"/>
      <use xlink:href="#DejaVuSans-52" x="257.048828"/>
      <use xlink:href="#DejaVuSans-6f" x="322.03125"/>
      <use xlink:href="#DejaVuSans-62" x="383.212891"/>
      <use xlink:href="#DejaVuSans-75" x="446.689453"/>
      <use xlink:href="#DejaVuSans-73" x="510.068359"/>
      <use xlink:href="#DejaVuSans-74" x="562.167969"/>
      <use xlink:href="#DejaVuSans-20" x="601.376953"/>
      <use xlink:href="#DejaVuSans-56" x="633.164062"/>
      <use xlink:href="#DejaVuSans-61" x="693.822266"/>
      <use xlink:href="#DejaVuSans-6c" x="755.101562"/>
      <use xlink:href="#DejaVuSans-69" x="782.884766"/>
      <use xlink:href="#DejaVuSans-64" x="810.667969"/>
      <use xlink:href="#DejaVuSans-61" x="874.144531"/>
      <use xlink:href="#DejaVuSans-74" x="935.423828"/>
      <use xlink:href="#DejaVuSans-69" x="974.632812"/>
      <use xlink:href="#DejaVuSans-6f" x="1002.416016"/>
      <use xlink:href="#DejaVuSans-6e" x="1063.597656"/>
      <use xlink:href="#DejaVuSans-20" x="1126.976562"/>
      <use xlink:href="#DejaVuSans-41" x="1158.763672"/>
      <use xlink:href="#DejaVuSans-63" x="1225.421875"/>
      <use xlink:href="#DejaVuSans-63" x="1280.402344"/>
      <use xlink:href="#DejaVuSans-75" x="1335.382812"/>
      <use xlink:href="#DejaVuSans-72" x="1398.761719"/>
      <use xlink:href="#DejaVuSans-61" x="1439.875"/>
      <use xlink:href="#DejaVuSans-63" x="1501.154297"/>
      <use xlink:href="#DejaVuSans-79" x="1556.134766"/>
     </g>
    </g>
   </g>
  </g>
 </g>
 <defs>
  <clipPath id="p951d71c67c">
   <rect x="57.6" y="41.472" width="357.12" height="266.112"/>
  </clipPath>
 </defs>
</svg>
