<?xml version="1.0" encoding="utf-8" standalone="no"?>
<!DOCTYPE svg PUBLIC "-//W3C//DTD SVG 1.1//EN"
  "http://www.w3.org/Graphics/SVG/1.1/DTD/svg11.dtd">
<svg xmlns:xlink="http://www.w3.org/1999/xlink" width="460.8pt" height="345.6pt" viewBox="0 0 460.8 345.6" xmlns="http://www.w3.org/2000/svg" version="1.1">
 <metadata>
  <rdf:RDF xmlns:dc="http://purl.org/dc/elements/1.1/" xmlns:cc="http://creativecommons.org/ns#" xmlns:rdf="http://www.w3.org/1999/02/22-rdf-syntax-ns#">
   <cc:Work>
    <dc:type rdf:resource="http://purl.org/dc/dcmitype/StillImage"/>
    <dc:date>2025-01-08T01:24:38.245610</dc:date>
    <dc:format>image/svg+xml</dc:format>
    <dc:creator>
     <cc:Agent>
      <dc:title>Matplotlib v3.9.1, https://matplotlib.org/</dc:title>
     </cc:Agent>
    </dc:creator>
   </cc:Work>
  </rdf:RDF>
 </metadata>
 <defs>
  <style type="text/css">*{stroke-linejoin: round; stroke-linecap: butt}</style>
 </defs>
 <g id="figure_1">
  <g id="patch_1">
   <path d="M 0 345.6 
L 460.8 345.6 
L 460.8 0 
L 0 0 
z
" style="fill: #ffffff"/>
  </g>
  <g id="axes_1">
   <g id="patch_2">
    <path d="M 57.6 307.584 
L 414.72 307.584 
L 414.72 41.472 
L 57.6 41.472 
z
" style="fill: #ffffff"/>
   </g>
   <g id="matplotlib.axis_1">
    <g id="xtick_1">
     <g id="line2d_1">
      <defs>
       <path id="m30ff013ead" d="M 0 0 
L 0 3.5 
" style="stroke: #000000; stroke-width: 0.8"/>
      </defs>
      <g>
       <use xlink:href="#m30ff013ead" x="73.832727" y="307.584" style="stroke: #000000; stroke-width: 0.8"/>
      </g>
     </g>
     <g id="text_1">
      <!-- 1 -->
      <g transform="translate(70.651477 322.182437) scale(0.1 -0.1)">
       <defs>
        <path id="DejaVuSans-31" d="M 794 531 
L 1825 531 
L 1825 4091 
L 703 3866 
L 703 4441 
L 1819 4666 
L 2450 4666 
L 2450 531 
L 3481 531 
L 3481 0 
L 794 0 
L 794 531 
z
" transform="scale(0.015625)"/>
       </defs>
       <use xlink:href="#DejaVuSans-31"/>
      </g>
     </g>
    </g>
    <g id="xtick_2">
     <g id="line2d_2">
      <g>
       <use xlink:href="#m30ff013ead" x="109.664165" y="307.584" style="stroke: #000000; stroke-width: 0.8"/>
      </g>
     </g>
     <g id="text_2">
      <!-- 34 -->
      <g transform="translate(103.301665 322.182437) scale(0.1 -0.1)">
       <defs>
        <path id="DejaVuSans-33" d="M 2597 2516 
Q 3050 2419 3304 2112 
Q 3559 1806 3559 1356 
Q 3559 666 3084 287 
Q 2609 -91 1734 -91 
Q 1441 -91 1130 -33 
Q 819 25 488 141 
L 488 750 
Q 750 597 1062 519 
Q 1375 441 1716 441 
Q 2309 441 2620 675 
Q 2931 909 2931 1356 
Q 2931 1769 2642 2001 
Q 2353 2234 1838 2234 
L 1294 2234 
L 1294 2753 
L 1863 2753 
Q 2328 2753 2575 2939 
Q 2822 3125 2822 3475 
Q 2822 3834 2567 4026 
Q 2313 4219 1838 4219 
Q 1578 4219 1281 4162 
Q 984 4106 628 3988 
L 628 4550 
Q 988 4650 1302 4700 
Q 1616 4750 1894 4750 
Q 2613 4750 3031 4423 
Q 3450 4097 3450 3541 
Q 3450 3153 3228 2886 
Q 3006 2619 2597 2516 
z
" transform="scale(0.015625)"/>
        <path id="DejaVuSans-34" d="M 2419 4116 
L 825 1625 
L 2419 1625 
L 2419 4116 
z
M 2253 4666 
L 3047 4666 
L 3047 1625 
L 3713 1625 
L 3713 1100 
L 3047 1100 
L 3047 0 
L 2419 0 
L 2419 1100 
L 313 1100 
L 313 1709 
L 2253 4666 
z
" transform="scale(0.015625)"/>
       </defs>
       <use xlink:href="#DejaVuSans-33"/>
       <use xlink:href="#DejaVuSans-34" x="63.623047"/>
      </g>
     </g>
    </g>
    <g id="xtick_3">
     <g id="line2d_3">
      <g>
       <use xlink:href="#m30ff013ead" x="145.495604" y="307.584" style="stroke: #000000; stroke-width: 0.8"/>
      </g>
     </g>
     <g id="text_3">
      <!-- 67 -->
      <g transform="translate(139.133104 322.182437) scale(0.1 -0.1)">
       <defs>
        <path id="DejaVuSans-36" d="M 2113 2584 
Q 1688 2584 1439 2293 
Q 1191 2003 1191 1497 
Q 1191 994 1439 701 
Q 1688 409 2113 409 
Q 2538 409 2786 701 
Q 3034 994 3034 1497 
Q 3034 2003 2786 2293 
Q 2538 2584 2113 2584 
z
M 3366 4563 
L 3366 3988 
Q 3128 4100 2886 4159 
Q 2644 4219 2406 4219 
Q 1781 4219 1451 3797 
Q 1122 3375 1075 2522 
Q 1259 2794 1537 2939 
Q 1816 3084 2150 3084 
Q 2853 3084 3261 2657 
Q 3669 2231 3669 1497 
Q 3669 778 3244 343 
Q 2819 -91 2113 -91 
Q 1303 -91 875 529 
Q 447 1150 447 2328 
Q 447 3434 972 4092 
Q 1497 4750 2381 4750 
Q 2619 4750 2861 4703 
Q 3103 4656 3366 4563 
z
" transform="scale(0.015625)"/>
        <path id="DejaVuSans-37" d="M 525 4666 
L 3525 4666 
L 3525 4397 
L 1831 0 
L 1172 0 
L 2766 4134 
L 525 4134 
L 525 4666 
z
" transform="scale(0.015625)"/>
       </defs>
       <use xlink:href="#DejaVuSans-36"/>
       <use xlink:href="#DejaVuSans-37" x="63.623047"/>
      </g>
     </g>
    </g>
    <g id="xtick_4">
     <g id="line2d_4">
      <g>
       <use xlink:href="#m30ff013ead" x="181.327042" y="307.584" style="stroke: #000000; stroke-width: 0.8"/>
      </g>
     </g>
     <g id="text_4">
      <!-- 100 -->
      <g transform="translate(171.783292 322.182437) scale(0.1 -0.1)">
       <defs>
        <path id="DejaVuSans-30" d="M 2034 4250 
Q 1547 4250 1301 3770 
Q 1056 3291 1056 2328 
Q 1056 1369 1301 889 
Q 1547 409 2034 409 
Q 2525 409 2770 889 
Q 3016 1369 3016 2328 
Q 3016 3291 2770 3770 
Q 2525 4250 2034 4250 
z
M 2034 4750 
Q 2819 4750 3233 4129 
Q 3647 3509 3647 2328 
Q 3647 1150 3233 529 
Q 2819 -91 2034 -91 
Q 1250 -91 836 529 
Q 422 1150 422 2328 
Q 422 3509 836 4129 
Q 1250 4750 2034 4750 
z
" transform="scale(0.015625)"/>
       </defs>
       <use xlink:href="#DejaVuSans-31"/>
       <use xlink:href="#DejaVuSans-30" x="63.623047"/>
       <use xlink:href="#DejaVuSans-30" x="127.246094"/>
      </g>
     </g>
    </g>
    <g id="xtick_5">
     <g id="line2d_5">
      <g>
       <use xlink:href="#m30ff013ead" x="217.15848" y="307.584" style="stroke: #000000; stroke-width: 0.8"/>
      </g>
     </g>
     <g id="text_5">
      <!-- 133 -->
      <g transform="translate(207.61473 322.182437) scale(0.1 -0.1)">
       <use xlink:href="#DejaVuSans-31"/>
       <use xlink:href="#DejaVuSans-33" x="63.623047"/>
       <use xlink:href="#DejaVuSans-33" x="127.246094"/>
      </g>
     </g>
    </g>
    <g id="xtick_6">
     <g id="line2d_6">
      <g>
       <use xlink:href="#m30ff013ead" x="254.075719" y="307.584" style="stroke: #000000; stroke-width: 0.8"/>
      </g>
     </g>
     <g id="text_6">
      <!-- 167 -->
      <g transform="translate(244.531969 322.182437) scale(0.1 -0.1)">
       <use xlink:href="#DejaVuSans-31"/>
       <use xlink:href="#DejaVuSans-36" x="63.623047"/>
       <use xlink:href="#DejaVuSans-37" x="127.246094"/>
      </g>
     </g>
    </g>
    <g id="xtick_7">
     <g id="line2d_7">
      <g>
       <use xlink:href="#m30ff013ead" x="289.907157" y="307.584" style="stroke: #000000; stroke-width: 0.8"/>
      </g>
     </g>
     <g id="text_7">
      <!-- 200 -->
      <g transform="translate(280.363407 322.182437) scale(0.1 -0.1)">
       <defs>
        <path id="DejaVuSans-32" d="M 1228 531 
L 3431 531 
L 3431 0 
L 469 0 
L 469 531 
Q 828 903 1448 1529 
Q 2069 2156 2228 2338 
Q 2531 2678 2651 2914 
Q 2772 3150 2772 3378 
Q 2772 3750 2511 3984 
Q 2250 4219 1831 4219 
Q 1534 4219 1204 4116 
Q 875 4013 500 3803 
L 500 4441 
Q 881 4594 1212 4672 
Q 1544 4750 1819 4750 
Q 2544 4750 2975 4387 
Q 3406 4025 3406 3419 
Q 3406 3131 3298 2873 
Q 3191 2616 2906 2266 
Q 2828 2175 2409 1742 
Q 1991 1309 1228 531 
z
" transform="scale(0.015625)"/>
       </defs>
       <use xlink:href="#DejaVuSans-32"/>
       <use xlink:href="#DejaVuSans-30" x="63.623047"/>
       <use xlink:href="#DejaVuSans-30" x="127.246094"/>
      </g>
     </g>
    </g>
    <g id="xtick_8">
     <g id="line2d_8">
      <g>
       <use xlink:href="#m30ff013ead" x="325.738595" y="307.584" style="stroke: #000000; stroke-width: 0.8"/>
      </g>
     </g>
     <g id="text_8">
      <!-- 233 -->
      <g transform="translate(316.194845 322.182437) scale(0.1 -0.1)">
       <use xlink:href="#DejaVuSans-32"/>
       <use xlink:href="#DejaVuSans-33" x="63.623047"/>
       <use xlink:href="#DejaVuSans-33" x="127.246094"/>
      </g>
     </g>
    </g>
    <g id="xtick_9">
     <g id="line2d_9">
      <g>
       <use xlink:href="#m30ff013ead" x="361.570033" y="307.584" style="stroke: #000000; stroke-width: 0.8"/>
      </g>
     </g>
     <g id="text_9">
      <!-- 266 -->
      <g transform="translate(352.026283 322.182437) scale(0.1 -0.1)">
       <use xlink:href="#DejaVuSans-32"/>
       <use xlink:href="#DejaVuSans-36" x="63.623047"/>
       <use xlink:href="#DejaVuSans-36" x="127.246094"/>
      </g>
     </g>
    </g>
    <g id="xtick_10">
     <g id="line2d_10">
      <g>
       <use xlink:href="#m30ff013ead" x="398.487273" y="307.584" style="stroke: #000000; stroke-width: 0.8"/>
      </g>
     </g>
     <g id="text_10">
      <!-- 300 -->
      <g transform="translate(388.943523 322.182437) scale(0.1 -0.1)">
       <use xlink:href="#DejaVuSans-33"/>
       <use xlink:href="#DejaVuSans-30" x="63.623047"/>
       <use xlink:href="#DejaVuSans-30" x="127.246094"/>
      </g>
     </g>
    </g>
    <g id="text_11">
     <!-- Epochs -->
     <g transform="translate(218.244375 335.860562) scale(0.1 -0.1)">
      <defs>
       <path id="DejaVuSans-45" d="M 628 4666 
L 3578 4666 
L 3578 4134 
L 1259 4134 
L 1259 2753 
L 3481 2753 
L 3481 2222 
L 1259 2222 
L 1259 531 
L 3634 531 
L 3634 0 
L 628 0 
L 628 4666 
z
" transform="scale(0.015625)"/>
       <path id="DejaVuSans-70" d="M 1159 525 
L 1159 -1331 
L 581 -1331 
L 581 3500 
L 1159 3500 
L 1159 2969 
Q 1341 3281 1617 3432 
Q 1894 3584 2278 3584 
Q 2916 3584 3314 3078 
Q 3713 2572 3713 1747 
Q 3713 922 3314 415 
Q 2916 -91 2278 -91 
Q 1894 -91 1617 61 
Q 1341 213 1159 525 
z
M 3116 1747 
Q 3116 2381 2855 2742 
Q 2594 3103 2138 3103 
Q 1681 3103 1420 2742 
Q 1159 2381 1159 1747 
Q 1159 1113 1420 752 
Q 1681 391 2138 391 
Q 2594 391 2855 752 
Q 3116 1113 3116 1747 
z
" transform="scale(0.015625)"/>
       <path id="DejaVuSans-6f" d="M 1959 3097 
Q 1497 3097 1228 2736 
Q 959 2375 959 1747 
Q 959 1119 1226 758 
Q 1494 397 1959 397 
Q 2419 397 2687 759 
Q 2956 1122 2956 1747 
Q 2956 2369 2687 2733 
Q 2419 3097 1959 3097 
z
M 1959 3584 
Q 2709 3584 3137 3096 
Q 3566 2609 3566 1747 
Q 3566 888 3137 398 
Q 2709 -91 1959 -91 
Q 1206 -91 779 398 
Q 353 888 353 1747 
Q 353 2609 779 3096 
Q 1206 3584 1959 3584 
z
" transform="scale(0.015625)"/>
       <path id="DejaVuSans-63" d="M 3122 3366 
L 3122 2828 
Q 2878 2963 2633 3030 
Q 2388 3097 2138 3097 
Q 1578 3097 1268 2742 
Q 959 2388 959 1747 
Q 959 1106 1268 751 
Q 1578 397 2138 397 
Q 2388 397 2633 464 
Q 2878 531 3122 666 
L 3122 134 
Q 2881 22 2623 -34 
Q 2366 -91 2075 -91 
Q 1284 -91 818 406 
Q 353 903 353 1747 
Q 353 2603 823 3093 
Q 1294 3584 2113 3584 
Q 2378 3584 2631 3529 
Q 2884 3475 3122 3366 
z
" transform="scale(0.015625)"/>
       <path id="DejaVuSans-68" d="M 3513 2113 
L 3513 0 
L 2938 0 
L 2938 2094 
Q 2938 2591 2744 2837 
Q 2550 3084 2163 3084 
Q 1697 3084 1428 2787 
Q 1159 2491 1159 1978 
L 1159 0 
L 581 0 
L 581 4863 
L 1159 4863 
L 1159 2956 
Q 1366 3272 1645 3428 
Q 1925 3584 2291 3584 
Q 2894 3584 3203 3211 
Q 3513 2838 3513 2113 
z
" transform="scale(0.015625)"/>
       <path id="DejaVuSans-73" d="M 2834 3397 
L 2834 2853 
Q 2591 2978 2328 3040 
Q 2066 3103 1784 3103 
Q 1356 3103 1142 2972 
Q 928 2841 928 2578 
Q 928 2378 1081 2264 
Q 1234 2150 1697 2047 
L 1894 2003 
Q 2506 1872 2764 1633 
Q 3022 1394 3022 966 
Q 3022 478 2636 193 
Q 2250 -91 1575 -91 
Q 1294 -91 989 -36 
Q 684 19 347 128 
L 347 722 
Q 666 556 975 473 
Q 1284 391 1588 391 
Q 1994 391 2212 530 
Q 2431 669 2431 922 
Q 2431 1156 2273 1281 
Q 2116 1406 1581 1522 
L 1381 1569 
Q 847 1681 609 1914 
Q 372 2147 372 2553 
Q 372 3047 722 3315 
Q 1072 3584 1716 3584 
Q 2034 3584 2315 3537 
Q 2597 3491 2834 3397 
z
" transform="scale(0.015625)"/>
      </defs>
      <use xlink:href="#DejaVuSans-45"/>
      <use xlink:href="#DejaVuSans-70" x="63.183594"/>
      <use xlink:href="#DejaVuSans-6f" x="126.660156"/>
      <use xlink:href="#DejaVuSans-63" x="187.841797"/>
      <use xlink:href="#DejaVuSans-68" x="242.822266"/>
      <use xlink:href="#DejaVuSans-73" x="306.201172"/>
     </g>
    </g>
   </g>
   <g id="matplotlib.axis_2">
    <g id="ytick_1">
     <g id="line2d_11">
      <defs>
       <path id="mb422440adf" d="M 0 0 
L -3.5 0 
" style="stroke: #000000; stroke-width: 0.8"/>
      </defs>
      <g>
       <use xlink:href="#mb422440adf" x="57.6" y="285.272276" style="stroke: #000000; stroke-width: 0.8"/>
      </g>
     </g>
     <g id="text_12">
      <!-- 10 -->
      <g transform="translate(37.875 289.071495) scale(0.1 -0.1)">
       <use xlink:href="#DejaVuSans-31"/>
       <use xlink:href="#DejaVuSans-30" x="63.623047"/>
      </g>
     </g>
    </g>
    <g id="ytick_2">
     <g id="line2d_12">
      <g>
       <use xlink:href="#mb422440adf" x="57.6" y="253.585788" style="stroke: #000000; stroke-width: 0.8"/>
      </g>
     </g>
     <g id="text_13">
      <!-- 20 -->
      <g transform="translate(37.875 257.385007) scale(0.1 -0.1)">
       <use xlink:href="#DejaVuSans-32"/>
       <use xlink:href="#DejaVuSans-30" x="63.623047"/>
      </g>
     </g>
    </g>
    <g id="ytick_3">
     <g id="line2d_13">
      <g>
       <use xlink:href="#mb422440adf" x="57.6" y="221.8993" style="stroke: #000000; stroke-width: 0.8"/>
      </g>
     </g>
     <g id="text_14">
      <!-- 30 -->
      <g transform="translate(37.875 225.698519) scale(0.1 -0.1)">
       <use xlink:href="#DejaVuSans-33"/>
       <use xlink:href="#DejaVuSans-30" x="63.623047"/>
      </g>
     </g>
    </g>
    <g id="ytick_4">
     <g id="line2d_14">
      <g>
       <use xlink:href="#mb422440adf" x="57.6" y="190.212812" style="stroke: #000000; stroke-width: 0.8"/>
      </g>
     </g>
     <g id="text_15">
      <!-- 40 -->
      <g transform="translate(37.875 194.01203) scale(0.1 -0.1)">
       <use xlink:href="#DejaVuSans-34"/>
       <use xlink:href="#DejaVuSans-30" x="63.623047"/>
      </g>
     </g>
    </g>
    <g id="ytick_5">
     <g id="line2d_15">
      <g>
       <use xlink:href="#mb422440adf" x="57.6" y="158.526323" style="stroke: #000000; stroke-width: 0.8"/>
      </g>
     </g>
     <g id="text_16">
      <!-- 50 -->
      <g transform="translate(37.875 162.325542) scale(0.1 -0.1)">
       <defs>
        <path id="DejaVuSans-35" d="M 691 4666 
L 3169 4666 
L 3169 4134 
L 1269 4134 
L 1269 2991 
Q 1406 3038 1543 3061 
Q 1681 3084 1819 3084 
Q 2600 3084 3056 2656 
Q 3513 2228 3513 1497 
Q 3513 744 3044 326 
Q 2575 -91 1722 -91 
Q 1428 -91 1123 -41 
Q 819 9 494 109 
L 494 744 
Q 775 591 1075 516 
Q 1375 441 1709 441 
Q 2250 441 2565 725 
Q 2881 1009 2881 1497 
Q 2881 1984 2565 2268 
Q 2250 2553 1709 2553 
Q 1456 2553 1204 2497 
Q 953 2441 691 2322 
L 691 4666 
z
" transform="scale(0.015625)"/>
       </defs>
       <use xlink:href="#DejaVuSans-35"/>
       <use xlink:href="#DejaVuSans-30" x="63.623047"/>
      </g>
     </g>
    </g>
    <g id="ytick_6">
     <g id="line2d_16">
      <g>
       <use xlink:href="#mb422440adf" x="57.6" y="126.839835" style="stroke: #000000; stroke-width: 0.8"/>
      </g>
     </g>
     <g id="text_17">
      <!-- 60 -->
      <g transform="translate(37.875 130.639054) scale(0.1 -0.1)">
       <use xlink:href="#DejaVuSans-36"/>
       <use xlink:href="#DejaVuSans-30" x="63.623047"/>
      </g>
     </g>
    </g>
    <g id="ytick_7">
     <g id="line2d_17">
      <g>
       <use xlink:href="#mb422440adf" x="57.6" y="95.153347" style="stroke: #000000; stroke-width: 0.8"/>
      </g>
     </g>
     <g id="text_18">
      <!-- 70 -->
      <g transform="translate(37.875 98.952566) scale(0.1 -0.1)">
       <use xlink:href="#DejaVuSans-37"/>
       <use xlink:href="#DejaVuSans-30" x="63.623047"/>
      </g>
     </g>
    </g>
    <g id="ytick_8">
     <g id="line2d_18">
      <g>
       <use xlink:href="#mb422440adf" x="57.6" y="63.466859" style="stroke: #000000; stroke-width: 0.8"/>
      </g>
     </g>
     <g id="text_19">
      <!-- 80 -->
      <g transform="translate(37.875 67.266078) scale(0.1 -0.1)">
       <defs>
        <path id="DejaVuSans-38" d="M 2034 2216 
Q 1584 2216 1326 1975 
Q 1069 1734 1069 1313 
Q 1069 891 1326 650 
Q 1584 409 2034 409 
Q 2484 409 2743 651 
Q 3003 894 3003 1313 
Q 3003 1734 2745 1975 
Q 2488 2216 2034 2216 
z
M 1403 2484 
Q 997 2584 770 2862 
Q 544 3141 544 3541 
Q 544 4100 942 4425 
Q 1341 4750 2034 4750 
Q 2731 4750 3128 4425 
Q 3525 4100 3525 3541 
Q 3525 3141 3298 2862 
Q 3072 2584 2669 2484 
Q 3125 2378 3379 2068 
Q 3634 1759 3634 1313 
Q 3634 634 3220 271 
Q 2806 -91 2034 -91 
Q 1263 -91 848 271 
Q 434 634 434 1313 
Q 434 1759 690 2068 
Q 947 2378 1403 2484 
z
M 1172 3481 
Q 1172 3119 1398 2916 
Q 1625 2713 2034 2713 
Q 2441 2713 2670 2916 
Q 2900 3119 2900 3481 
Q 2900 3844 2670 4047 
Q 2441 4250 2034 4250 
Q 1625 4250 1398 4047 
Q 1172 3844 1172 3481 
z
" transform="scale(0.015625)"/>
       </defs>
       <use xlink:href="#DejaVuSans-38"/>
       <use xlink:href="#DejaVuSans-30" x="63.623047"/>
      </g>
     </g>
    </g>
    <g id="text_20">
     <!-- Accuracy -->
     <g transform="translate(31.795312 197.356125) rotate(-90) scale(0.1 -0.1)">
      <defs>
       <path id="DejaVuSans-41" d="M 2188 4044 
L 1331 1722 
L 3047 1722 
L 2188 4044 
z
M 1831 4666 
L 2547 4666 
L 4325 0 
L 3669 0 
L 3244 1197 
L 1141 1197 
L 716 0 
L 50 0 
L 1831 4666 
z
" transform="scale(0.015625)"/>
       <path id="DejaVuSans-75" d="M 544 1381 
L 544 3500 
L 1119 3500 
L 1119 1403 
Q 1119 906 1312 657 
Q 1506 409 1894 409 
Q 2359 409 2629 706 
Q 2900 1003 2900 1516 
L 2900 3500 
L 3475 3500 
L 3475 0 
L 2900 0 
L 2900 538 
Q 2691 219 2414 64 
Q 2138 -91 1772 -91 
Q 1169 -91 856 284 
Q 544 659 544 1381 
z
M 1991 3584 
L 1991 3584 
z
" transform="scale(0.015625)"/>
       <path id="DejaVuSans-72" d="M 2631 2963 
Q 2534 3019 2420 3045 
Q 2306 3072 2169 3072 
Q 1681 3072 1420 2755 
Q 1159 2438 1159 1844 
L 1159 0 
L 581 0 
L 581 3500 
L 1159 3500 
L 1159 2956 
Q 1341 3275 1631 3429 
Q 1922 3584 2338 3584 
Q 2397 3584 2469 3576 
Q 2541 3569 2628 3553 
L 2631 2963 
z
" transform="scale(0.015625)"/>
       <path id="DejaVuSans-61" d="M 2194 1759 
Q 1497 1759 1228 1600 
Q 959 1441 959 1056 
Q 959 750 1161 570 
Q 1363 391 1709 391 
Q 2188 391 2477 730 
Q 2766 1069 2766 1631 
L 2766 1759 
L 2194 1759 
z
M 3341 1997 
L 3341 0 
L 2766 0 
L 2766 531 
Q 2569 213 2275 61 
Q 1981 -91 1556 -91 
Q 1019 -91 701 211 
Q 384 513 384 1019 
Q 384 1609 779 1909 
Q 1175 2209 1959 2209 
L 2766 2209 
L 2766 2266 
Q 2766 2663 2505 2880 
Q 2244 3097 1772 3097 
Q 1472 3097 1187 3025 
Q 903 2953 641 2809 
L 641 3341 
Q 956 3463 1253 3523 
Q 1550 3584 1831 3584 
Q 2591 3584 2966 3190 
Q 3341 2797 3341 1997 
z
" transform="scale(0.015625)"/>
       <path id="DejaVuSans-79" d="M 2059 -325 
Q 1816 -950 1584 -1140 
Q 1353 -1331 966 -1331 
L 506 -1331 
L 506 -850 
L 844 -850 
Q 1081 -850 1212 -737 
Q 1344 -625 1503 -206 
L 1606 56 
L 191 3500 
L 800 3500 
L 1894 763 
L 2988 3500 
L 3597 3500 
L 2059 -325 
z
" transform="scale(0.015625)"/>
      </defs>
      <use xlink:href="#DejaVuSans-41"/>
      <use xlink:href="#DejaVuSans-63" x="66.658203"/>
      <use xlink:href="#DejaVuSans-63" x="121.638672"/>
      <use xlink:href="#DejaVuSans-75" x="176.619141"/>
      <use xlink:href="#DejaVuSans-72" x="239.998047"/>
      <use xlink:href="#DejaVuSans-61" x="281.111328"/>
      <use xlink:href="#DejaVuSans-63" x="342.390625"/>
      <use xlink:href="#DejaVuSans-79" x="397.371094"/>
     </g>
    </g>
   </g>
   <g id="line2d_19">
    <path d="M 73.832727 295.488 
L 76.00433 258.59859 
L 77.090131 243.553846 
L 78.175932 230.530699 
L 80.347534 211.803985 
L 82.519137 196.131848 
L 86.862341 175.472257 
L 87.948142 171.340339 
L 89.033943 166.549342 
L 91.205546 159.755759 
L 92.291347 157.651776 
L 94.462949 154.159925 
L 95.54875 183.216435 
L 96.634552 182.487646 
L 97.720353 180.301278 
L 98.806154 175.637027 
L 99.891955 172.500065 
L 100.977756 168.862456 
L 102.063557 166.403584 
L 104.23516 159.869831 
L 105.320961 157.92428 
L 106.406762 155.642853 
L 108.578364 149.730154 
L 110.749967 144.970844 
L 111.835768 142.055687 
L 112.921569 140.091125 
L 115.093171 135.636004 
L 116.178972 132.422994 
L 117.264773 131.14286 
L 118.350575 129.089576 
L 119.436376 125.559701 
L 120.522177 124.729515 
L 121.607978 122.175584 
L 122.693779 119.906832 
L 124.865382 116.998012 
L 125.951183 113.689943 
L 127.036984 111.18671 
L 128.122785 110.033322 
L 129.208586 108.588418 
L 130.294387 106.693566 
L 131.380189 106.775951 
L 132.46599 104.412139 
L 133.551791 103.271425 
L 134.637592 103.366485 
L 135.723393 102.81514 
L 136.809194 101.389248 
L 137.894995 101.94693 
L 138.980797 137.461146 
L 140.066598 139.349661 
L 141.152399 139.742573 
L 142.2382 138.291332 
L 143.324001 137.518182 
L 144.409802 136.079615 
L 145.495604 135.534608 
L 146.581405 134.469942 
L 147.667206 133.779176 
L 148.753007 132.530729 
L 149.838808 130.553492 
L 150.924609 130.426746 
L 152.01041 128.886782 
L 155.267814 124.830912 
L 156.353615 123.290949 
L 157.439416 122.898036 
L 158.525217 121.205978 
L 159.611019 121.415109 
L 160.69682 119.672352 
L 161.782621 119.032285 
L 162.868422 116.934639 
L 163.954223 116.281897 
L 165.040024 114.982751 
L 167.211627 113.632907 
L 168.297428 113.284356 
L 169.383229 110.743099 
L 170.46903 109.215811 
L 171.554831 109.589711 
L 173.726434 106.414725 
L 174.812235 106.465423 
L 175.898036 104.437488 
L 178.069638 101.706113 
L 179.155439 101.503319 
L 180.24124 100.216848 
L 181.327042 100.578074 
L 182.412843 98.626186 
L 183.498644 97.238318 
L 184.584445 94.868169 
L 185.670246 94.240776 
L 186.756047 92.70715 
L 187.841849 93.055702 
L 188.92765 91.281258 
L 190.013451 89.75397 
L 191.099252 89.449779 
L 192.185053 87.751383 
L 193.270854 86.528285 
L 194.356656 85.964266 
L 195.442457 85.172103 
L 196.528258 83.258239 
L 197.614059 83.549755 
L 198.69986 81.204955 
L 203.043065 78.606663 
L 204.128866 77.028676 
L 205.214667 76.046395 
L 206.300468 75.773891 
L 207.386269 74.360674 
L 208.472071 74.024797 
L 209.557872 73.52415 
L 212.815275 70.995569 
L 213.901076 70.716727 
L 214.986877 70.678704 
L 216.072679 69.436593 
L 217.15848 69.056355 
L 218.244281 68.942284 
L 219.330082 69.366883 
L 220.415883 68.859899 
L 221.501684 68.790189 
L 222.587486 68.29588 
L 223.673287 68.479661 
L 224.759088 68.156459 
L 225.844889 108.994005 
L 226.93069 113.842038 
L 228.016491 114.456756 
L 229.102292 113.354066 
L 231.273895 114.228613 
L 232.359696 113.911748 
L 233.445497 112.42882 
L 234.531298 111.636658 
L 235.617099 111.51625 
L 236.702901 111.560611 
L 237.788702 110.565655 
L 238.874503 109.355231 
L 239.960304 109.786167 
L 241.046105 108.791212 
L 242.131906 108.7722 
L 243.217708 108.60743 
L 244.303509 107.492066 
L 245.38931 107.225899 
L 246.475111 106.706241 
L 247.560912 105.838031 
L 248.646713 105.749309 
L 249.732514 104.684643 
L 250.818316 104.602258 
L 251.904117 104.031901 
L 252.989918 104.551559 
L 254.075719 102.675719 
L 256.247321 102.396878 
L 257.333123 102.701069 
L 260.590526 99.608467 
L 261.676327 99.785912 
L 262.762128 99.678178 
L 263.847929 99.29794 
L 264.933731 98.512115 
L 266.019532 98.19525 
L 267.105333 98.835317 
L 268.191134 97.320703 
L 269.276935 97.181282 
L 270.362736 96.122954 
L 271.448538 96.731334 
L 272.534339 95.863124 
L 273.62014 95.406839 
L 274.705941 93.904899 
L 275.791742 94.145717 
L 276.877543 93.112737 
L 277.963344 93.955598 
L 279.049146 92.599416 
L 280.134947 91.648822 
L 281.220748 91.636147 
L 282.306549 92.212841 
L 283.39235 90.672878 
L 284.478151 90.368687 
L 285.563953 90.248279 
L 286.649754 89.361057 
L 287.735555 88.759014 
L 288.821356 88.473835 
L 289.907157 87.358471 
L 290.992958 88.315403 
L 292.07876 86.655031 
L 294.250362 85.875543 
L 295.336163 86.243107 
L 296.421964 85.856531 
L 297.507765 84.715818 
L 298.593566 84.747504 
L 299.679368 83.955342 
L 300.765169 82.713232 
L 301.85097 83.112482 
L 302.936771 82.713232 
L 304.022572 83.125156 
L 305.108373 81.141582 
L 306.194175 81.084546 
L 307.279976 80.013543 
L 308.365777 79.639642 
L 309.451578 79.703015 
L 310.537379 79.08196 
L 311.62318 78.023632 
L 312.708981 78.150378 
L 313.794783 77.320192 
L 315.966385 76.439307 
L 317.052186 75.710518 
L 318.137987 76.553379 
L 319.223788 74.208578 
L 320.30959 73.910725 
L 321.395391 74.240265 
L 322.481192 73.226297 
L 325.738595 72.434135 
L 326.824396 71.565925 
L 327.910198 70.513934 
L 328.995999 70.013287 
L 330.0818 70.025962 
L 332.253402 68.086749 
L 333.339203 68.29588 
L 334.425005 67.300924 
L 335.510806 67.294587 
L 336.596607 66.033464 
L 337.682408 66.698881 
L 338.768209 64.994148 
L 339.85401 64.804029 
L 340.939811 64.746993 
L 342.025613 64.303382 
L 343.111414 64.068902 
L 344.197215 62.547951 
L 345.283016 63.061272 
L 346.368817 62.611324 
L 347.454618 61.698753 
L 348.54042 61.058686 
L 349.626221 61.115721 
L 351.797823 59.284242 
L 352.883624 59.176508 
L 353.969425 58.143529 
L 355.055227 59.220869 
L 356.141028 58.206902 
L 357.226829 58.295624 
L 358.31263 57.097875 
L 359.398431 57.763291 
L 360.484232 56.584554 
L 361.570033 55.779717 
L 362.655835 55.627622 
L 363.741636 55.336106 
L 364.827437 54.651678 
L 365.913238 55.203023 
L 366.999039 53.568 
L 368.08484 55.133313 
L 370.256443 56.888744 
L 371.342244 58.942028 
L 373.513846 59.379302 
L 374.599647 59.797564 
L 375.685448 59.334941 
L 376.77125 60.520016 
L 377.857051 60.577051 
L 378.942852 60.424956 
L 380.028653 60.06373 
L 381.114454 60.032044 
L 382.200255 60.266524 
L 383.286057 60.101754 
L 384.371858 60.051055 
L 385.457659 59.677155 
L 387.629261 60.380595 
L 388.715062 60.86223 
L 389.800863 59.620119 
L 390.886665 59.309592 
L 391.972466 59.461687 
L 393.058267 59.474361 
L 394.144068 60.494666 
L 395.229869 59.677155 
L 396.31567 59.563084 
L 397.401472 59.905298 
L 398.487273 59.99402 
L 398.487273 59.99402 
" clip-path="url(#p5274eddb2c)" style="fill: none; stroke: #1f77b4; stroke-width: 1.5; stroke-linecap: square"/>
   </g>
   <g id="line2d_20">
    <path d="M 73.832727 280.329184 
L 76.00433 230.73983 
L 77.090131 216.987894 
L 78.175932 196.613482 
L 79.261733 190.022693 
L 80.347534 179.439406 
L 81.433335 173.102108 
L 82.519137 165.370605 
L 83.604938 155.199242 
L 84.690739 148.608453 
L 85.77654 146.548831 
L 86.862341 139.546117 
L 87.948142 137.359749 
L 89.033943 132.638463 
L 90.119745 127.188387 
L 91.205546 126.998268 
L 92.291347 124.875273 
L 93.377148 123.417695 
L 94.462949 122.910711 
L 95.54875 160.174021 
L 96.634552 147.81629 
L 97.720353 139.07082 
L 98.806154 137.137944 
L 99.891955 133.493998 
L 100.977756 127.948862 
L 102.063557 129.691619 
L 104.23516 121.611565 
L 105.320961 121.326386 
L 106.406762 121.453132 
L 107.492563 116.288235 
L 108.578364 115.305954 
L 109.664165 111.978872 
L 110.749967 112.517543 
L 111.835768 105.673261 
L 112.921569 106.275304 
L 114.00737 103.074969 
L 115.093171 100.318245 
L 116.178972 99.684515 
L 117.264773 98.638861 
L 118.350575 94.773109 
L 119.436376 96.008882 
L 120.522177 92.840233 
L 121.607978 91.984698 
L 122.693779 90.590493 
L 123.77958 87.54859 
L 125.951183 84.696806 
L 127.036984 84.57006 
L 128.122785 84.189822 
L 129.208586 83.302601 
L 130.294387 83.175855 
L 131.380189 81.749963 
L 132.46599 81.845022 
L 134.637592 79.626968 
L 135.723393 80.165638 
L 136.809194 80.197325 
L 137.894995 80.609249 
L 138.980797 102.726418 
L 140.066598 106.750602 
L 141.152399 105.926753 
L 142.2382 102.567985 
L 143.324001 103.993877 
L 144.409802 103.138342 
L 145.495604 102.472926 
L 146.581405 102.948223 
L 147.667206 100.064753 
L 148.753007 99.019099 
L 149.838808 99.842947 
L 150.924609 99.747888 
L 152.01041 96.92779 
L 153.096212 96.801044 
L 154.182013 94.297812 
L 155.267814 91.350969 
L 156.353615 94.171066 
L 157.439416 90.43206 
L 158.525217 90.622179 
L 159.611019 89.703271 
L 160.69682 88.562558 
L 161.782621 89.925077 
L 162.868422 89.069541 
L 163.954223 87.580276 
L 165.040024 87.421844 
L 166.125825 86.851487 
L 167.211627 84.411628 
L 168.297428 84.253195 
L 169.383229 85.774147 
L 170.46903 81.369725 
L 171.554831 84.094763 
L 172.640632 81.68659 
L 173.726434 82.795617 
L 174.812235 84.379941 
L 175.898036 78.993238 
L 176.983837 81.021173 
L 178.069638 79.531908 
L 180.24124 77.377227 
L 181.327042 77.599033 
L 182.412843 77.97927 
L 183.498644 76.109768 
L 184.584445 76.109768 
L 185.670246 76.90193 
L 186.756047 77.282168 
L 187.841849 74.240265 
L 188.92765 73.416416 
L 190.013451 73.28967 
L 191.099252 72.941119 
L 192.185053 71.261735 
L 193.270854 71.927151 
L 194.356656 69.328859 
L 195.442457 69.994275 
L 196.528258 69.994275 
L 197.614059 69.202113 
L 198.69986 70.437886 
L 199.785661 69.043681 
L 200.871462 70.374513 
L 201.957264 68.314892 
L 203.043065 66.730567 
L 204.128866 67.015746 
L 205.214667 66.667194 
L 206.300468 66.508762 
L 207.386269 66.001778 
L 208.472071 65.970091 
L 209.557872 65.431421 
L 210.643673 65.970091 
L 211.729474 64.98781 
L 212.815275 65.241302 
L 213.901076 63.973843 
L 214.986877 64.132275 
L 216.072679 64.163962 
L 217.15848 63.054935 
L 218.244281 63.403486 
L 219.330082 64.5442 
L 220.415883 63.752037 
L 221.501684 63.878783 
L 222.587486 63.308426 
L 223.673287 63.118308 
L 224.759088 63.530232 
L 225.844889 89.196287 
L 226.93069 92.555055 
L 228.016491 93.062039 
L 229.102292 89.544839 
L 230.188094 87.041606 
L 231.273895 84.950298 
L 232.359696 86.629682 
L 233.445497 87.485217 
L 234.531298 89.164601 
L 235.617099 93.41059 
L 236.702901 85.647401 
L 237.788702 85.013671 
L 238.874503 86.186071 
L 239.960304 83.556092 
L 241.046105 83.872957 
L 242.131906 88.689304 
L 243.217708 87.675336 
L 244.303509 88.435812 
L 245.38931 84.696806 
L 246.475111 88.594244 
L 247.560912 84.443314 
L 248.646713 88.72099 
L 249.732514 86.122698 
L 250.818316 90.812298 
L 251.904117 84.126449 
L 252.989918 85.045357 
L 254.075719 84.950298 
L 255.16152 84.158136 
L 256.247321 81.68659 
L 257.333123 89.35472 
L 258.418924 84.728492 
L 259.504725 82.85899 
L 260.590526 82.827303 
L 261.676327 82.668871 
L 262.762128 80.292384 
L 263.847929 80.324071 
L 264.933731 77.662406 
L 266.019532 81.623217 
L 267.105333 81.59153 
L 268.191134 79.563595 
L 269.276935 81.338038 
L 270.362736 81.68659 
L 271.448538 82.542125 
L 272.534339 81.654903 
L 273.62014 77.472287 
L 274.705941 78.042643 
L 275.791742 77.092049 
L 276.877543 78.486254 
L 277.963344 78.898179 
L 279.049146 77.915898 
L 280.134947 76.141454 
L 281.220748 76.553379 
L 282.306549 77.123735 
L 283.39235 75.19086 
L 284.478151 76.204827 
L 285.563953 76.173141 
L 286.649754 75.697843 
L 287.735555 73.955086 
L 288.821356 78.264449 
L 289.907157 75.602784 
L 290.992958 79.119984 
L 292.07876 79.626968 
L 293.164561 76.553379 
L 294.250362 74.842308 
L 295.336163 77.250481 
L 296.421964 73.9234 
L 297.507765 74.430384 
L 298.593566 76.521692 
L 299.679368 74.113519 
L 300.765169 74.271951 
L 301.85097 73.226297 
L 302.936771 71.48354 
L 304.022572 71.705346 
L 305.108373 72.624254 
L 306.194175 75.476038 
L 307.279976 74.905681 
L 308.365777 72.719313 
L 310.537379 71.832092 
L 311.62318 72.275703 
L 312.708981 73.701595 
L 313.794783 70.564632 
L 314.880584 71.261735 
L 315.966385 69.835843 
L 317.052186 70.881497 
L 318.137987 70.913184 
L 319.223788 71.071616 
L 320.30959 69.011994 
L 321.395391 72.339076 
L 322.481192 69.392232 
L 323.566993 68.314892 
L 324.652794 69.518978 
L 325.738595 69.740784 
L 326.824396 69.423919 
L 327.910198 68.283205 
L 328.995999 69.328859 
L 330.0818 67.744535 
L 331.167601 66.667194 
L 332.253402 66.096837 
L 333.339203 69.77247 
L 334.425005 67.142492 
L 335.510806 67.300924 
L 336.596607 67.205865 
L 337.682408 67.776221 
L 338.768209 68.156459 
L 339.85401 65.558167 
L 340.939811 66.603821 
L 342.025613 66.572135 
L 343.111414 64.607572 
L 344.197215 66.223583 
L 345.283016 64.480827 
L 346.368817 65.843346 
L 348.54042 64.290708 
L 349.626221 65.494794 
L 350.712022 64.5442 
L 351.797823 64.639259 
L 352.883624 63.91047 
L 355.055227 62.864816 
L 356.141028 62.896502 
L 357.226829 64.956124 
L 358.31263 62.294459 
L 359.398431 62.357832 
L 360.484232 62.64301 
L 361.570033 63.213367 
L 362.655835 61.47061 
L 363.741636 62.326145 
L 364.827437 61.375551 
L 365.913238 62.231086 
L 366.999039 61.153745 
L 369.170642 62.516264 
L 370.256443 63.720351 
L 371.342244 63.81541 
L 372.428045 64.956124 
L 373.513846 65.431421 
L 374.599647 65.336362 
L 376.77125 66.065151 
L 377.857051 63.656978 
L 378.942852 64.924437 
L 380.028653 64.512513 
L 381.114454 64.797691 
L 382.200255 65.336362 
L 383.286057 64.290708 
L 384.371858 65.368048 
L 385.457659 65.526481 
L 386.54346 64.861064 
L 387.629261 66.698881 
L 388.715062 65.463108 
L 389.800863 66.191897 
L 390.886665 65.399735 
L 391.972466 67.300924 
L 393.058267 64.259021 
L 394.144068 66.762254 
L 395.229869 65.241302 
L 396.31567 66.191897 
L 397.401472 66.572135 
L 398.487273 66.477075 
L 398.487273 66.477075 
" clip-path="url(#p5274eddb2c)" style="fill: none; stroke: #ff7f0e; stroke-width: 1.5; stroke-linecap: square"/>
   </g>
   <g id="line2d_21">
    <path d="M 73.832727 289.293182 
L 76.00433 242.746824 
L 77.090131 239.272236 
L 78.175932 214.51307 
L 79.261733 218.359154 
L 80.347534 207.323515 
L 81.433335 204.26413 
L 82.519137 195.304503 
L 83.604938 189.142027 
L 84.690739 193.840368 
L 85.77654 189.273143 
L 86.862341 177.210425 
L 87.948142 182.039883 
L 89.033943 175.724438 
L 90.119745 176.991898 
L 91.205546 170.130134 
L 92.291347 172.730611 
L 93.377148 170.873127 
L 94.462949 167.114454 
L 95.54875 203.018523 
L 96.634552 171.419446 
L 97.720353 181.056509 
L 98.806154 189.513524 
L 99.891955 163.967658 
L 100.977756 165.628467 
L 102.063557 166.065522 
L 103.149358 184.334422 
L 104.23516 171.113508 
L 105.320961 168.447472 
L 106.406762 175.921113 
L 107.492563 162.612788 
L 108.578364 162.241291 
L 109.664165 155.161 
L 110.749967 162.984285 
L 111.835768 158.919673 
L 112.921569 150.113015 
L 114.00737 155.751024 
L 115.093171 151.730118 
L 116.178972 139.776664 
L 117.264773 145.130587 
L 118.350575 141.568589 
L 119.436376 141.17524 
L 120.522177 141.874528 
L 121.607978 139.252198 
L 122.693779 142.989018 
L 123.77958 133.963832 
L 124.865382 138.356235 
L 125.951183 136.280223 
L 127.036984 138.137707 
L 128.122785 135.646494 
L 129.208586 132.324876 
L 130.294387 131.734851 
L 131.380189 133.111575 
L 132.46599 130.970005 
L 133.551791 131.450766 
L 134.637592 130.183306 
L 135.723393 130.29257 
L 136.809194 130.554803 
L 137.894995 129.833662 
L 138.980797 158.001857 
L 140.066598 157.914446 
L 142.2382 147.818476 
L 143.324001 163.749131 
L 144.409802 154.352448 
L 145.495604 143.447926 
L 146.581405 161.629414 
L 147.667206 147.031777 
L 148.753007 147.752917 
L 149.838808 152.167173 
L 150.924609 149.807076 
L 152.01041 151.183799 
L 153.096212 154.396154 
L 154.182013 147.272157 
L 155.267814 141.743411 
L 156.353615 142.486405 
L 157.439416 140.257424 
L 158.525217 149.304463 
L 159.611019 144.91206 
L 160.69682 142.267877 
L 161.782621 141.306356 
L 162.868422 140.803743 
L 165.040024 134.684973 
L 166.125825 143.775717 
L 167.211627 142.726785 
L 168.297428 143.294956 
L 170.46903 137.613241 
L 171.554831 138.290677 
L 172.640632 139.776664 
L 173.726434 135.952432 
L 174.812235 135.449819 
L 175.898036 137.154334 
L 176.983837 140.956712 
L 178.069638 133.723452 
L 179.155439 134.182359 
L 180.24124 135.122028 
L 181.327042 126.271664 
L 182.412843 139.208492 
L 183.498644 134.313476 
L 184.584445 133.985685 
L 185.670246 124.720118 
L 186.756047 130.445539 
L 187.841849 132.346728 
L 188.92765 121.027004 
L 190.013451 128.085442 
L 191.099252 126.206106 
L 192.185053 123.649334 
L 193.270854 123.977125 
L 194.356656 119.715839 
L 195.442457 128.522497 
L 196.528258 125.68164 
L 197.614059 127.473565 
L 198.69986 124.938646 
L 199.785661 122.993751 
L 200.871462 128.019884 
L 201.957264 122.775224 
L 203.043065 120.852182 
L 204.128866 118.666907 
L 205.214667 122.03223 
L 207.386269 116.088282 
L 208.472071 118.579496 
L 209.557872 120.28401 
L 210.643673 118.907287 
L 211.729474 120.589949 
L 212.815275 120.021777 
L 213.901076 122.360021 
L 214.986877 119.781397 
L 216.072679 122.250758 
L 217.15848 118.229852 
L 218.244281 118.972845 
L 219.330082 118.142441 
L 220.415883 119.256931 
L 221.501684 118.513937 
L 222.587486 118.317263 
L 223.673287 117.399447 
L 224.759088 119.16952 
L 225.844889 136.061696 
L 226.93069 144.693532 
L 228.016491 144.540563 
L 229.102292 138.55291 
L 230.188094 144.759091 
L 231.273895 142.180466 
L 232.359696 140.54151 
L 233.445497 142.595668 
L 234.531298 138.072149 
L 235.617099 145.873581 
L 236.702901 136.870248 
L 237.788702 148.037003 
L 238.874503 148.605175 
L 239.960304 139.121081 
L 241.046105 139.864075 
L 242.131906 147.53439 
L 243.217708 138.55291 
L 244.303509 142.879754 
L 245.38931 142.989018 
L 246.475111 151.861235 
L 247.560912 141.065976 
L 248.646713 149.391874 
L 249.732514 138.531057 
L 250.818316 140.563363 
L 251.904117 137.591389 
L 252.989918 131.625588 
L 254.075719 141.874528 
L 255.16152 132.696372 
L 256.247321 134.357181 
L 257.333123 147.468832 
L 258.418924 135.559083 
L 259.504725 137.962885 
L 260.590526 139.230345 
L 261.676327 135.668346 
L 262.762128 138.15956 
L 263.847929 130.336275 
L 264.933731 135.253144 
L 266.019532 147.599948 
L 267.105333 137.52583 
L 268.191134 137.591389 
L 269.276935 135.799463 
L 270.362736 138.334382 
L 271.448538 129.768104 
L 272.534339 139.317756 
L 273.62014 132.936753 
L 274.705941 133.54863 
L 275.791742 129.833662 
L 276.877543 134.510151 
L 277.963344 134.357181 
L 279.049146 138.640321 
L 280.134947 133.810863 
L 281.220748 126.380928 
L 282.306549 131.931526 
L 283.39235 132.871194 
L 284.478151 137.394714 
L 285.563953 131.144827 
L 286.649754 135.362408 
L 287.735555 129.309196 
L 288.821356 124.960499 
L 289.907157 136.476898 
L 290.992958 127.211332 
L 292.07876 133.941979 
L 293.164561 136.65172 
L 294.250362 129.89922 
L 295.336163 132.740078 
L 296.421964 130.9263 
L 297.507765 130.860741 
L 298.593566 137.52583 
L 299.679368 127.255038 
L 300.765169 121.966672 
L 301.85097 132.434139 
L 302.936771 127.604682 
L 304.022572 133.177133 
L 305.108373 130.948152 
L 307.279976 131.057416 
L 308.365777 134.510151 
L 309.451578 128.915847 
L 310.537379 128.019884 
L 311.62318 132.128201 
L 312.708981 138.246971 
L 313.794783 129.221785 
L 314.880584 122.316316 
L 315.966385 127.604682 
L 317.052186 124.457885 
L 318.137987 123.824156 
L 319.223788 125.943873 
L 320.30959 136.367634 
L 321.395391 125.157173 
L 322.481192 121.922966 
L 323.566993 131.844115 
L 324.652794 127.408007 
L 325.738595 121.726292 
L 326.824396 127.735798 
L 327.910198 131.80041 
L 328.995999 123.693039 
L 330.0818 129.593282 
L 331.167601 127.145774 
L 332.253402 128.893994 
L 333.339203 121.573322 
L 334.425005 124.982351 
L 335.510806 126.752424 
L 336.596607 126.446486 
L 337.682408 117.617975 
L 338.768209 127.014657 
L 339.85401 118.53579 
L 340.939811 123.714892 
L 342.025613 127.014657 
L 343.111414 120.808476 
L 344.197215 122.185199 
L 345.283016 124.261211 
L 346.368817 120.502538 
L 347.454618 130.401834 
L 348.54042 122.971898 
L 349.626221 125.484965 
L 350.712022 123.474512 
L 351.797823 125.943873 
L 353.969425 125.965725 
L 355.055227 123.758597 
L 356.141028 124.807529 
L 357.226829 127.145774 
L 358.31263 125.812756 
L 359.398431 122.971898 
L 360.484232 124.632707 
L 361.570033 126.665013 
L 362.655835 120.196599 
L 363.741636 119.890661 
L 364.827437 121.617028 
L 365.913238 122.797076 
L 366.999039 121.332942 
L 368.08484 119.475458 
L 369.170642 125.725345 
L 370.256443 127.451712 
L 371.342244 119.366195 
L 372.428045 118.732465 
L 373.513846 124.720118 
L 374.599647 120.546243 
L 375.685448 127.604682 
L 376.77125 123.321542 
L 377.857051 121.420353 
L 380.028653 123.168573 
L 381.114454 123.452659 
L 382.200255 120.371421 
L 383.286057 121.048856 
L 384.371858 122.250758 
L 385.457659 122.862635 
L 386.54346 118.076882 
L 387.629261 127.888767 
L 388.715062 114.121535 
L 389.800863 126.446486 
L 390.886665 125.659787 
L 391.972466 123.255984 
L 393.058267 118.688759 
L 394.144068 128.085442 
L 395.229869 125.222732 
L 396.31567 124.195652 
L 397.401472 126.315369 
L 398.487273 124.195652 
L 398.487273 124.195652 
" clip-path="url(#p5274eddb2c)" style="fill: none; stroke: #2ca02c; stroke-width: 1.5; stroke-linecap: square"/>
   </g>
   <g id="line2d_22">
    <path d="M 368.08484 60.583388 
L 369.170642 62.167713 
L 370.256443 62.040967 
L 371.342244 63.023248 
M 373.513846 64.417454 
L 374.599647 65.7166 
L 375.685448 65.463108 
L 376.77125 67.079119 
L 377.857051 67.047432 
L 378.942852 66.540448 
L 380.028653 66.286956 
L 381.114454 66.952373 
L 382.200255 66.762254 
L 383.286057 68.188146 
L 384.371858 66.920686 
L 385.457659 67.902967 
L 386.54346 66.445389 
L 387.629261 70.025962 
L 388.715062 69.930902 
L 389.800863 70.025962 
L 390.886665 68.283205 
L 391.972466 71.134989 
L 393.058267 72.21233 
L 394.144068 67.42767 
L 395.229869 71.895465 
L 396.31567 73.479789 
L 397.401472 71.261735 
L 398.487273 72.719313 
L 398.487273 72.719313 
" clip-path="url(#p5274eddb2c)" style="fill: none; stroke: #d62728; stroke-width: 1.5; stroke-linecap: square"/>
   </g>
   <g id="line2d_23">
    <path d="M 368.08484 120.874034 
L 369.170642 119.65028 
L 370.256443 119.388047 
L 371.342244 123.583775 
L 372.428045 122.556696 
L 373.513846 122.797076 
L 374.599647 126.883541 
L 375.685448 128.828436 
L 376.77125 130.117748 
L 377.857051 119.256931 
L 378.942852 123.998978 
L 380.028653 121.3985 
L 381.114454 121.966672 
L 382.200255 125.659787 
L 383.286057 125.52867 
M 385.457659 122.27261 
L 386.54346 121.617028 
L 387.629261 123.998978 
L 388.715062 127.342449 
L 389.800863 126.359075 
L 390.886665 127.364301 
L 391.972466 125.310143 
L 393.058267 130.620361 
L 394.144068 126.490191 
L 395.229869 127.91062 
L 396.31567 126.490191 
L 397.401472 124.589002 
L 398.487273 124.436033 
L 398.487273 124.436033 
" clip-path="url(#p5274eddb2c)" style="fill: none; stroke: #9467bd; stroke-width: 1.5; stroke-linecap: square"/>
   </g>
   <g id="patch_3">
    <path d="M 57.6 307.584 
L 57.6 41.472 
" style="fill: none; stroke: #000000; stroke-width: 0.8; stroke-linejoin: miter; stroke-linecap: square"/>
   </g>
   <g id="patch_4">
    <path d="M 414.72 307.584 
L 414.72 41.472 
" style="fill: none; stroke: #000000; stroke-width: 0.8; stroke-linejoin: miter; stroke-linecap: square"/>
   </g>
   <g id="patch_5">
    <path d="M 57.6 307.584 
L 414.72 307.584 
" style="fill: none; stroke: #000000; stroke-width: 0.8; stroke-linejoin: miter; stroke-linecap: square"/>
   </g>
   <g id="patch_6">
    <path d="M 57.6 41.472 
L 414.72 41.472 
" style="fill: none; stroke: #000000; stroke-width: 0.8; stroke-linejoin: miter; stroke-linecap: square"/>
   </g>
   <g id="text_21">
    <!-- Learning Curves -->
    <g transform="translate(187.37625 35.472) scale(0.12 -0.12)">
     <defs>
      <path id="DejaVuSans-4c" d="M 628 4666 
L 1259 4666 
L 1259 531 
L 3531 531 
L 3531 0 
L 628 0 
L 628 4666 
z
" transform="scale(0.015625)"/>
      <path id="DejaVuSans-65" d="M 3597 1894 
L 3597 1613 
L 953 1613 
Q 991 1019 1311 708 
Q 1631 397 2203 397 
Q 2534 397 2845 478 
Q 3156 559 3463 722 
L 3463 178 
Q 3153 47 2828 -22 
Q 2503 -91 2169 -91 
Q 1331 -91 842 396 
Q 353 884 353 1716 
Q 353 2575 817 3079 
Q 1281 3584 2069 3584 
Q 2775 3584 3186 3129 
Q 3597 2675 3597 1894 
z
M 3022 2063 
Q 3016 2534 2758 2815 
Q 2500 3097 2075 3097 
Q 1594 3097 1305 2825 
Q 1016 2553 972 2059 
L 3022 2063 
z
" transform="scale(0.015625)"/>
      <path id="DejaVuSans-6e" d="M 3513 2113 
L 3513 0 
L 2938 0 
L 2938 2094 
Q 2938 2591 2744 2837 
Q 2550 3084 2163 3084 
Q 1697 3084 1428 2787 
Q 1159 2491 1159 1978 
L 1159 0 
L 581 0 
L 581 3500 
L 1159 3500 
L 1159 2956 
Q 1366 3272 1645 3428 
Q 1925 3584 2291 3584 
Q 2894 3584 3203 3211 
Q 3513 2838 3513 2113 
z
" transform="scale(0.015625)"/>
      <path id="DejaVuSans-69" d="M 603 3500 
L 1178 3500 
L 1178 0 
L 603 0 
L 603 3500 
z
M 603 4863 
L 1178 4863 
L 1178 4134 
L 603 4134 
L 603 4863 
z
" transform="scale(0.015625)"/>
      <path id="DejaVuSans-67" d="M 2906 1791 
Q 2906 2416 2648 2759 
Q 2391 3103 1925 3103 
Q 1463 3103 1205 2759 
Q 947 2416 947 1791 
Q 947 1169 1205 825 
Q 1463 481 1925 481 
Q 2391 481 2648 825 
Q 2906 1169 2906 1791 
z
M 3481 434 
Q 3481 -459 3084 -895 
Q 2688 -1331 1869 -1331 
Q 1566 -1331 1297 -1286 
Q 1028 -1241 775 -1147 
L 775 -588 
Q 1028 -725 1275 -790 
Q 1522 -856 1778 -856 
Q 2344 -856 2625 -561 
Q 2906 -266 2906 331 
L 2906 616 
Q 2728 306 2450 153 
Q 2172 0 1784 0 
Q 1141 0 747 490 
Q 353 981 353 1791 
Q 353 2603 747 3093 
Q 1141 3584 1784 3584 
Q 2172 3584 2450 3431 
Q 2728 3278 2906 2969 
L 2906 3500 
L 3481 3500 
L 3481 434 
z
" transform="scale(0.015625)"/>
      <path id="DejaVuSans-20" transform="scale(0.015625)"/>
      <path id="DejaVuSans-43" d="M 4122 4306 
L 4122 3641 
Q 3803 3938 3442 4084 
Q 3081 4231 2675 4231 
Q 1875 4231 1450 3742 
Q 1025 3253 1025 2328 
Q 1025 1406 1450 917 
Q 1875 428 2675 428 
Q 3081 428 3442 575 
Q 3803 722 4122 1019 
L 4122 359 
Q 3791 134 3420 21 
Q 3050 -91 2638 -91 
Q 1578 -91 968 557 
Q 359 1206 359 2328 
Q 359 3453 968 4101 
Q 1578 4750 2638 4750 
Q 3056 4750 3426 4639 
Q 3797 4528 4122 4306 
z
" transform="scale(0.015625)"/>
      <path id="DejaVuSans-76" d="M 191 3500 
L 800 3500 
L 1894 563 
L 2988 3500 
L 3597 3500 
L 2284 0 
L 1503 0 
L 191 3500 
z
" transform="scale(0.015625)"/>
     </defs>
     <use xlink:href="#DejaVuSans-4c"/>
     <use xlink:href="#DejaVuSans-65" x="53.962891"/>
     <use xlink:href="#DejaVuSans-61" x="115.486328"/>
     <use xlink:href="#DejaVuSans-72" x="176.765625"/>
     <use xlink:href="#DejaVuSans-6e" x="216.128906"/>
     <use xlink:href="#DejaVuSans-69" x="279.507812"/>
     <use xlink:href="#DejaVuSans-6e" x="307.291016"/>
     <use xlink:href="#DejaVuSans-67" x="370.669922"/>
     <use xlink:href="#DejaVuSans-20" x="434.146484"/>
     <use xlink:href="#DejaVuSans-43" x="465.933594"/>
     <use xlink:href="#DejaVuSans-75" x="535.757812"/>
     <use xlink:href="#DejaVuSans-72" x="599.136719"/>
     <use xlink:href="#DejaVuSans-76" x="640.25"/>
     <use xlink:href="#DejaVuSans-65" x="699.429688"/>
     <use xlink:href="#DejaVuSans-73" x="760.953125"/>
    </g>
   </g>
   <g id="legend_1">
    <g id="patch_7">
     <path d="M 214.18875 302.584 
L 407.72 302.584 
Q 409.72 302.584 409.72 300.584 
L 409.72 228.193375 
Q 409.72 226.193375 407.72 226.193375 
L 214.18875 226.193375 
Q 212.18875 226.193375 212.18875 228.193375 
L 212.18875 300.584 
Q 212.18875 302.584 214.18875 302.584 
z
" style="fill: #ffffff; opacity: 0.8; stroke: #cccccc; stroke-linejoin: miter"/>
    </g>
    <g id="line2d_24">
     <path d="M 216.18875 234.291812 
L 226.18875 234.291812 
L 236.18875 234.291812 
" style="fill: none; stroke: #1f77b4; stroke-width: 1.5; stroke-linecap: square"/>
    </g>
    <g id="text_22">
     <!-- Train Accuracy -->
     <g transform="translate(244.18875 237.791812) scale(0.1 -0.1)">
      <defs>
       <path id="DejaVuSans-54" d="M -19 4666 
L 3928 4666 
L 3928 4134 
L 2272 4134 
L 2272 0 
L 1638 0 
L 1638 4134 
L -19 4134 
L -19 4666 
z
" transform="scale(0.015625)"/>
      </defs>
      <use xlink:href="#DejaVuSans-54"/>
      <use xlink:href="#DejaVuSans-72" x="46.333984"/>
      <use xlink:href="#DejaVuSans-61" x="87.447266"/>
      <use xlink:href="#DejaVuSans-69" x="148.726562"/>
      <use xlink:href="#DejaVuSans-6e" x="176.509766"/>
      <use xlink:href="#DejaVuSans-20" x="239.888672"/>
      <use xlink:href="#DejaVuSans-41" x="271.675781"/>
      <use xlink:href="#DejaVuSans-63" x="338.333984"/>
      <use xlink:href="#DejaVuSans-63" x="393.314453"/>
      <use xlink:href="#DejaVuSans-75" x="448.294922"/>
      <use xlink:href="#DejaVuSans-72" x="511.673828"/>
      <use xlink:href="#DejaVuSans-61" x="552.787109"/>
      <use xlink:href="#DejaVuSans-63" x="614.066406"/>
      <use xlink:href="#DejaVuSans-79" x="669.046875"/>
     </g>
    </g>
    <g id="line2d_25">
     <path d="M 216.18875 248.969937 
L 226.18875 248.969937 
L 236.18875 248.969937 
" style="fill: none; stroke: #ff7f0e; stroke-width: 1.5; stroke-linecap: square"/>
    </g>
    <g id="text_23">
     <!-- Validation Accuracy -->
     <g transform="translate(244.18875 252.469937) scale(0.1 -0.1)">
      <defs>
       <path id="DejaVuSans-56" d="M 1831 0 
L 50 4666 
L 709 4666 
L 2188 738 
L 3669 4666 
L 4325 4666 
L 2547 0 
L 1831 0 
z
" transform="scale(0.015625)"/>
       <path id="DejaVuSans-6c" d="M 603 4863 
L 1178 4863 
L 1178 0 
L 603 0 
L 603 4863 
z
" transform="scale(0.015625)"/>
       <path id="DejaVuSans-64" d="M 2906 2969 
L 2906 4863 
L 3481 4863 
L 3481 0 
L 2906 0 
L 2906 525 
Q 2725 213 2448 61 
Q 2172 -91 1784 -91 
Q 1150 -91 751 415 
Q 353 922 353 1747 
Q 353 2572 751 3078 
Q 1150 3584 1784 3584 
Q 2172 3584 2448 3432 
Q 2725 3281 2906 2969 
z
M 947 1747 
Q 947 1113 1208 752 
Q 1469 391 1925 391 
Q 2381 391 2643 752 
Q 2906 1113 2906 1747 
Q 2906 2381 2643 2742 
Q 2381 3103 1925 3103 
Q 1469 3103 1208 2742 
Q 947 2381 947 1747 
z
" transform="scale(0.015625)"/>
       <path id="DejaVuSans-74" d="M 1172 4494 
L 1172 3500 
L 2356 3500 
L 2356 3053 
L 1172 3053 
L 1172 1153 
Q 1172 725 1289 603 
Q 1406 481 1766 481 
L 2356 481 
L 2356 0 
L 1766 0 
Q 1100 0 847 248 
Q 594 497 594 1153 
L 594 3053 
L 172 3053 
L 172 3500 
L 594 3500 
L 594 4494 
L 1172 4494 
z
" transform="scale(0.015625)"/>
      </defs>
      <use xlink:href="#DejaVuSans-56"/>
      <use xlink:href="#DejaVuSans-61" x="60.658203"/>
      <use xlink:href="#DejaVuSans-6c" x="121.9375"/>
      <use xlink:href="#DejaVuSans-69" x="149.720703"/>
      <use xlink:href="#DejaVuSans-64" x="177.503906"/>
      <use xlink:href="#DejaVuSans-61" x="240.980469"/>
      <use xlink:href="#DejaVuSans-74" x="302.259766"/>
      <use xlink:href="#DejaVuSans-69" x="341.46875"/>
      <use xlink:href="#DejaVuSans-6f" x="369.251953"/>
      <use xlink:href="#DejaVuSans-6e" x="430.433594"/>
      <use xlink:href="#DejaVuSans-20" x="493.8125"/>
      <use xlink:href="#DejaVuSans-41" x="525.599609"/>
      <use xlink:href="#DejaVuSans-63" x="592.257812"/>
      <use xlink:href="#DejaVuSans-63" x="647.238281"/>
      <use xlink:href="#DejaVuSans-75" x="702.21875"/>
      <use xlink:href="#DejaVuSans-72" x="765.597656"/>
      <use xlink:href="#DejaVuSans-61" x="806.710938"/>
      <use xlink:href="#DejaVuSans-63" x="867.990234"/>
      <use xlink:href="#DejaVuSans-79" x="922.970703"/>
     </g>
    </g>
    <g id="line2d_26">
     <path d="M 216.18875 263.648062 
L 226.18875 263.648062 
L 236.18875 263.648062 
" style="fill: none; stroke: #2ca02c; stroke-width: 1.5; stroke-linecap: square"/>
    </g>
    <g id="text_24">
     <!-- Robust Validation Accuracy -->
     <g transform="translate(244.18875 267.148062) scale(0.1 -0.1)">
      <defs>
       <path id="DejaVuSans-52" d="M 2841 2188 
Q 3044 2119 3236 1894 
Q 3428 1669 3622 1275 
L 4263 0 
L 3584 0 
L 2988 1197 
Q 2756 1666 2539 1819 
Q 2322 1972 1947 1972 
L 1259 1972 
L 1259 0 
L 628 0 
L 628 4666 
L 2053 4666 
Q 2853 4666 3247 4331 
Q 3641 3997 3641 3322 
Q 3641 2881 3436 2590 
Q 3231 2300 2841 2188 
z
M 1259 4147 
L 1259 2491 
L 2053 2491 
Q 2509 2491 2742 2702 
Q 2975 2913 2975 3322 
Q 2975 3731 2742 3939 
Q 2509 4147 2053 4147 
L 1259 4147 
z
" transform="scale(0.015625)"/>
       <path id="DejaVuSans-62" d="M 3116 1747 
Q 3116 2381 2855 2742 
Q 2594 3103 2138 3103 
Q 1681 3103 1420 2742 
Q 1159 2381 1159 1747 
Q 1159 1113 1420 752 
Q 1681 391 2138 391 
Q 2594 391 2855 752 
Q 3116 1113 3116 1747 
z
M 1159 2969 
Q 1341 3281 1617 3432 
Q 1894 3584 2278 3584 
Q 2916 3584 3314 3078 
Q 3713 2572 3713 1747 
Q 3713 922 3314 415 
Q 2916 -91 2278 -91 
Q 1894 -91 1617 61 
Q 1341 213 1159 525 
L 1159 0 
L 581 0 
L 581 4863 
L 1159 4863 
L 1159 2969 
z
" transform="scale(0.015625)"/>
      </defs>
      <use xlink:href="#DejaVuSans-52"/>
      <use xlink:href="#DejaVuSans-6f" x="64.982422"/>
      <use xlink:href="#DejaVuSans-62" x="126.164062"/>
      <use xlink:href="#DejaVuSans-75" x="189.640625"/>
      <use xlink:href="#DejaVuSans-73" x="253.019531"/>
      <use xlink:href="#DejaVuSans-74" x="305.119141"/>
      <use xlink:href="#DejaVuSans-20" x="344.328125"/>
      <use xlink:href="#DejaVuSans-56" x="376.115234"/>
      <use xlink:href="#DejaVuSans-61" x="436.773438"/>
      <use xlink:href="#DejaVuSans-6c" x="498.052734"/>
      <use xlink:href="#DejaVuSans-69" x="525.835938"/>
      <use xlink:href="#DejaVuSans-64" x="553.619141"/>
      <use xlink:href="#DejaVuSans-61" x="617.095703"/>
      <use xlink:href="#DejaVuSans-74" x="678.375"/>
      <use xlink:href="#DejaVuSans-69" x="717.583984"/>
      <use xlink:href="#DejaVuSans-6f" x="745.367188"/>
      <use xlink:href="#DejaVuSans-6e" x="806.548828"/>
      <use xlink:href="#DejaVuSans-20" x="869.927734"/>
      <use xlink:href="#DejaVuSans-41" x="901.714844"/>
      <use xlink:href="#DejaVuSans-63" x="968.373047"/>
      <use xlink:href="#DejaVuSans-63" x="1023.353516"/>
      <use xlink:href="#DejaVuSans-75" x="1078.333984"/>
      <use xlink:href="#DejaVuSans-72" x="1141.712891"/>
      <use xlink:href="#DejaVuSans-61" x="1182.826172"/>
      <use xlink:href="#DejaVuSans-63" x="1244.105469"/>
      <use xlink:href="#DejaVuSans-79" x="1299.085938"/>
     </g>
    </g>
    <g id="line2d_27">
     <path d="M 216.18875 278.326188 
L 226.18875 278.326188 
L 236.18875 278.326188 
" style="fill: none; stroke: #d62728; stroke-width: 1.5; stroke-linecap: square"/>
    </g>
    <g id="text_25">
     <!-- SWA Validation Accuracy -->
     <g transform="translate(244.18875 281.826188) scale(0.1 -0.1)">
      <defs>
       <path id="DejaVuSans-53" d="M 3425 4513 
L 3425 3897 
Q 3066 4069 2747 4153 
Q 2428 4238 2131 4238 
Q 1616 4238 1336 4038 
Q 1056 3838 1056 3469 
Q 1056 3159 1242 3001 
Q 1428 2844 1947 2747 
L 2328 2669 
Q 3034 2534 3370 2195 
Q 3706 1856 3706 1288 
Q 3706 609 3251 259 
Q 2797 -91 1919 -91 
Q 1588 -91 1214 -16 
Q 841 59 441 206 
L 441 856 
Q 825 641 1194 531 
Q 1563 422 1919 422 
Q 2459 422 2753 634 
Q 3047 847 3047 1241 
Q 3047 1584 2836 1778 
Q 2625 1972 2144 2069 
L 1759 2144 
Q 1053 2284 737 2584 
Q 422 2884 422 3419 
Q 422 4038 858 4394 
Q 1294 4750 2059 4750 
Q 2388 4750 2728 4690 
Q 3069 4631 3425 4513 
z
" transform="scale(0.015625)"/>
       <path id="DejaVuSans-57" d="M 213 4666 
L 850 4666 
L 1831 722 
L 2809 4666 
L 3519 4666 
L 4500 722 
L 5478 4666 
L 6119 4666 
L 4947 0 
L 4153 0 
L 3169 4050 
L 2175 0 
L 1381 0 
L 213 4666 
z
" transform="scale(0.015625)"/>
      </defs>
      <use xlink:href="#DejaVuSans-53"/>
      <use xlink:href="#DejaVuSans-57" x="63.476562"/>
      <use xlink:href="#DejaVuSans-41" x="156.853516"/>
      <use xlink:href="#DejaVuSans-20" x="225.261719"/>
      <use xlink:href="#DejaVuSans-56" x="257.048828"/>
      <use xlink:href="#DejaVuSans-61" x="317.707031"/>
      <use xlink:href="#DejaVuSans-6c" x="378.986328"/>
      <use xlink:href="#DejaVuSans-69" x="406.769531"/>
      <use xlink:href="#DejaVuSans-64" x="434.552734"/>
      <use xlink:href="#DejaVuSans-61" x="498.029297"/>
      <use xlink:href="#DejaVuSans-74" x="559.308594"/>
      <use xlink:href="#DejaVuSans-69" x="598.517578"/>
      <use xlink:href="#DejaVuSans-6f" x="626.300781"/>
      <use xlink:href="#DejaVuSans-6e" x="687.482422"/>
      <use xlink:href="#DejaVuSans-20" x="750.861328"/>
      <use xlink:href="#DejaVuSans-41" x="782.648438"/>
      <use xlink:href="#DejaVuSans-63" x="849.306641"/>
      <use xlink:href="#DejaVuSans-63" x="904.287109"/>
      <use xlink:href="#DejaVuSans-75" x="959.267578"/>
      <use xlink:href="#DejaVuSans-72" x="1022.646484"/>
      <use xlink:href="#DejaVuSans-61" x="1063.759766"/>
      <use xlink:href="#DejaVuSans-63" x="1125.039062"/>
      <use xlink:href="#DejaVuSans-79" x="1180.019531"/>
     </g>
    </g>
    <g id="line2d_28">
     <path d="M 216.18875 293.004312 
L 226.18875 293.004312 
L 236.18875 293.004312 
" style="fill: none; stroke: #9467bd; stroke-width: 1.5; stroke-linecap: square"/>
    </g>
    <g id="text_26">
     <!-- SWA Robust Validation Accuracy -->
     <g transform="translate(244.18875 296.504312) scale(0.1 -0.1)">
      <use xlink:href="#DejaVuSans-53"/>
      <use xlink:href="#DejaVuSans-57" x="63.476562"/>
      <use xlink:href="#DejaVuSans-41" x="156.853516"/>
      <use xlink:href="#DejaVuSans-20" x="225.261719"/>
      <use xlink:href="#DejaVuSans-52" x="257.048828"/>
      <use xlink:href="#DejaVuSans-6f" x="322.03125"/>
      <use xlink:href="#DejaVuSans-62" x="383.212891"/>
      <use xlink:href="#DejaVuSans-75" x="446.689453"/>
      <use xlink:href="#DejaVuSans-73" x="510.068359"/>
      <use xlink:href="#DejaVuSans-74" x="562.167969"/>
      <use xlink:href="#DejaVuSans-20" x="601.376953"/>
      <use xlink:href="#DejaVuSans-56" x="633.164062"/>
      <use xlink:href="#DejaVuSans-61" x="693.822266"/>
      <use xlink:href="#DejaVuSans-6c" x="755.101562"/>
      <use xlink:href="#DejaVuSans-69" x="782.884766"/>
      <use xlink:href="#DejaVuSans-64" x="810.667969"/>
      <use xlink:href="#DejaVuSans-61" x="874.144531"/>
      <use xlink:href="#DejaVuSans-74" x="935.423828"/>
      <use xlink:href="#DejaVuSans-69" x="974.632812"/>
      <use xlink:href="#DejaVuSans-6f" x="1002.416016"/>
      <use xlink:href="#DejaVuSans-6e" x="1063.597656"/>
      <use xlink:href="#DejaVuSans-20" x="1126.976562"/>
      <use xlink:href="#DejaVuSans-41" x="1158.763672"/>
      <use xlink:href="#DejaVuSans-63" x="1225.421875"/>
      <use xlink:href="#DejaVuSans-63" x="1280.402344"/>
      <use xlink:href="#DejaVuSans-75" x="1335.382812"/>
      <use xlink:href="#DejaVuSans-72" x="1398.761719"/>
      <use xlink:href="#DejaVuSans-61" x="1439.875"/>
      <use xlink:href="#DejaVuSans-63" x="1501.154297"/>
      <use xlink:href="#DejaVuSans-79" x="1556.134766"/>
     </g>
    </g>
   </g>
  </g>
 </g>
 <defs>
  <clipPath id="p5274eddb2c">
   <rect x="57.6" y="41.472" width="357.12" height="266.112"/>
  </clipPath>
 </defs>
</svg>
