<?xml version="1.0" encoding="utf-8" standalone="no"?>
<!DOCTYPE svg PUBLIC "-//W3C//DTD SVG 1.1//EN"
  "http://www.w3.org/Graphics/SVG/1.1/DTD/svg11.dtd">
<svg xmlns:xlink="http://www.w3.org/1999/xlink" width="460.8pt" height="345.6pt" viewBox="0 0 460.8 345.6" xmlns="http://www.w3.org/2000/svg" version="1.1">
 <metadata>
  <rdf:RDF xmlns:dc="http://purl.org/dc/elements/1.1/" xmlns:cc="http://creativecommons.org/ns#" xmlns:rdf="http://www.w3.org/1999/02/22-rdf-syntax-ns#">
   <cc:Work>
    <dc:type rdf:resource="http://purl.org/dc/dcmitype/StillImage"/>
    <dc:date>2025-04-07T04:17:35.277245</dc:date>
    <dc:format>image/svg+xml</dc:format>
    <dc:creator>
     <cc:Agent>
      <dc:title>Matplotlib v3.9.1, https://matplotlib.org/</dc:title>
     </cc:Agent>
    </dc:creator>
   </cc:Work>
  </rdf:RDF>
 </metadata>
 <defs>
  <style type="text/css">*{stroke-linejoin: round; stroke-linecap: butt}</style>
 </defs>
 <g id="figure_1">
  <g id="patch_1">
   <path d="M 0 345.6 
L 460.8 345.6 
L 460.8 0 
L 0 0 
z
" style="fill: #ffffff"/>
  </g>
  <g id="axes_1">
   <g id="patch_2">
    <path d="M 57.6 307.584 
L 414.72 307.584 
L 414.72 41.472 
L 57.6 41.472 
z
" style="fill: #ffffff"/>
   </g>
   <g id="matplotlib.axis_1">
    <g id="xtick_1">
     <g id="line2d_1">
      <defs>
       <path id="m066e3b832e" d="M 0 0 
L 0 3.5 
" style="stroke: #000000; stroke-width: 0.8"/>
      </defs>
      <g>
       <use xlink:href="#m066e3b832e" x="73.832727" y="307.584" style="stroke: #000000; stroke-width: 0.8"/>
      </g>
     </g>
     <g id="text_1">
      <!-- 1 -->
      <g transform="translate(70.651477 322.182437) scale(0.1 -0.1)">
       <defs>
        <path id="DejaVuSans-31" d="M 794 531 
L 1825 531 
L 1825 4091 
L 703 3866 
L 703 4441 
L 1819 4666 
L 2450 4666 
L 2450 531 
L 3481 531 
L 3481 0 
L 794 0 
L 794 531 
z
" transform="scale(0.015625)"/>
       </defs>
       <use xlink:href="#DejaVuSans-31"/>
      </g>
     </g>
    </g>
    <g id="xtick_2">
     <g id="line2d_2">
      <g>
       <use xlink:href="#m066e3b832e" x="109.664165" y="307.584" style="stroke: #000000; stroke-width: 0.8"/>
      </g>
     </g>
     <g id="text_2">
      <!-- 34 -->
      <g transform="translate(103.301665 322.182437) scale(0.1 -0.1)">
       <defs>
        <path id="DejaVuSans-33" d="M 2597 2516 
Q 3050 2419 3304 2112 
Q 3559 1806 3559 1356 
Q 3559 666 3084 287 
Q 2609 -91 1734 -91 
Q 1441 -91 1130 -33 
Q 819 25 488 141 
L 488 750 
Q 750 597 1062 519 
Q 1375 441 1716 441 
Q 2309 441 2620 675 
Q 2931 909 2931 1356 
Q 2931 1769 2642 2001 
Q 2353 2234 1838 2234 
L 1294 2234 
L 1294 2753 
L 1863 2753 
Q 2328 2753 2575 2939 
Q 2822 3125 2822 3475 
Q 2822 3834 2567 4026 
Q 2313 4219 1838 4219 
Q 1578 4219 1281 4162 
Q 984 4106 628 3988 
L 628 4550 
Q 988 4650 1302 4700 
Q 1616 4750 1894 4750 
Q 2613 4750 3031 4423 
Q 3450 4097 3450 3541 
Q 3450 3153 3228 2886 
Q 3006 2619 2597 2516 
z
" transform="scale(0.015625)"/>
        <path id="DejaVuSans-34" d="M 2419 4116 
L 825 1625 
L 2419 1625 
L 2419 4116 
z
M 2253 4666 
L 3047 4666 
L 3047 1625 
L 3713 1625 
L 3713 1100 
L 3047 1100 
L 3047 0 
L 2419 0 
L 2419 1100 
L 313 1100 
L 313 1709 
L 2253 4666 
z
" transform="scale(0.015625)"/>
       </defs>
       <use xlink:href="#DejaVuSans-33"/>
       <use xlink:href="#DejaVuSans-34" x="63.623047"/>
      </g>
     </g>
    </g>
    <g id="xtick_3">
     <g id="line2d_3">
      <g>
       <use xlink:href="#m066e3b832e" x="145.495604" y="307.584" style="stroke: #000000; stroke-width: 0.8"/>
      </g>
     </g>
     <g id="text_3">
      <!-- 67 -->
      <g transform="translate(139.133104 322.182437) scale(0.1 -0.1)">
       <defs>
        <path id="DejaVuSans-36" d="M 2113 2584 
Q 1688 2584 1439 2293 
Q 1191 2003 1191 1497 
Q 1191 994 1439 701 
Q 1688 409 2113 409 
Q 2538 409 2786 701 
Q 3034 994 3034 1497 
Q 3034 2003 2786 2293 
Q 2538 2584 2113 2584 
z
M 3366 4563 
L 3366 3988 
Q 3128 4100 2886 4159 
Q 2644 4219 2406 4219 
Q 1781 4219 1451 3797 
Q 1122 3375 1075 2522 
Q 1259 2794 1537 2939 
Q 1816 3084 2150 3084 
Q 2853 3084 3261 2657 
Q 3669 2231 3669 1497 
Q 3669 778 3244 343 
Q 2819 -91 2113 -91 
Q 1303 -91 875 529 
Q 447 1150 447 2328 
Q 447 3434 972 4092 
Q 1497 4750 2381 4750 
Q 2619 4750 2861 4703 
Q 3103 4656 3366 4563 
z
" transform="scale(0.015625)"/>
        <path id="DejaVuSans-37" d="M 525 4666 
L 3525 4666 
L 3525 4397 
L 1831 0 
L 1172 0 
L 2766 4134 
L 525 4134 
L 525 4666 
z
" transform="scale(0.015625)"/>
       </defs>
       <use xlink:href="#DejaVuSans-36"/>
       <use xlink:href="#DejaVuSans-37" x="63.623047"/>
      </g>
     </g>
    </g>
    <g id="xtick_4">
     <g id="line2d_4">
      <g>
       <use xlink:href="#m066e3b832e" x="181.327042" y="307.584" style="stroke: #000000; stroke-width: 0.8"/>
      </g>
     </g>
     <g id="text_4">
      <!-- 100 -->
      <g transform="translate(171.783292 322.182437) scale(0.1 -0.1)">
       <defs>
        <path id="DejaVuSans-30" d="M 2034 4250 
Q 1547 4250 1301 3770 
Q 1056 3291 1056 2328 
Q 1056 1369 1301 889 
Q 1547 409 2034 409 
Q 2525 409 2770 889 
Q 3016 1369 3016 2328 
Q 3016 3291 2770 3770 
Q 2525 4250 2034 4250 
z
M 2034 4750 
Q 2819 4750 3233 4129 
Q 3647 3509 3647 2328 
Q 3647 1150 3233 529 
Q 2819 -91 2034 -91 
Q 1250 -91 836 529 
Q 422 1150 422 2328 
Q 422 3509 836 4129 
Q 1250 4750 2034 4750 
z
" transform="scale(0.015625)"/>
       </defs>
       <use xlink:href="#DejaVuSans-31"/>
       <use xlink:href="#DejaVuSans-30" x="63.623047"/>
       <use xlink:href="#DejaVuSans-30" x="127.246094"/>
      </g>
     </g>
    </g>
    <g id="xtick_5">
     <g id="line2d_5">
      <g>
       <use xlink:href="#m066e3b832e" x="217.15848" y="307.584" style="stroke: #000000; stroke-width: 0.8"/>
      </g>
     </g>
     <g id="text_5">
      <!-- 133 -->
      <g transform="translate(207.61473 322.182437) scale(0.1 -0.1)">
       <use xlink:href="#DejaVuSans-31"/>
       <use xlink:href="#DejaVuSans-33" x="63.623047"/>
       <use xlink:href="#DejaVuSans-33" x="127.246094"/>
      </g>
     </g>
    </g>
    <g id="xtick_6">
     <g id="line2d_6">
      <g>
       <use xlink:href="#m066e3b832e" x="254.075719" y="307.584" style="stroke: #000000; stroke-width: 0.8"/>
      </g>
     </g>
     <g id="text_6">
      <!-- 167 -->
      <g transform="translate(244.531969 322.182437) scale(0.1 -0.1)">
       <use xlink:href="#DejaVuSans-31"/>
       <use xlink:href="#DejaVuSans-36" x="63.623047"/>
       <use xlink:href="#DejaVuSans-37" x="127.246094"/>
      </g>
     </g>
    </g>
    <g id="xtick_7">
     <g id="line2d_7">
      <g>
       <use xlink:href="#m066e3b832e" x="289.907157" y="307.584" style="stroke: #000000; stroke-width: 0.8"/>
      </g>
     </g>
     <g id="text_7">
      <!-- 200 -->
      <g transform="translate(280.363407 322.182437) scale(0.1 -0.1)">
       <defs>
        <path id="DejaVuSans-32" d="M 1228 531 
L 3431 531 
L 3431 0 
L 469 0 
L 469 531 
Q 828 903 1448 1529 
Q 2069 2156 2228 2338 
Q 2531 2678 2651 2914 
Q 2772 3150 2772 3378 
Q 2772 3750 2511 3984 
Q 2250 4219 1831 4219 
Q 1534 4219 1204 4116 
Q 875 4013 500 3803 
L 500 4441 
Q 881 4594 1212 4672 
Q 1544 4750 1819 4750 
Q 2544 4750 2975 4387 
Q 3406 4025 3406 3419 
Q 3406 3131 3298 2873 
Q 3191 2616 2906 2266 
Q 2828 2175 2409 1742 
Q 1991 1309 1228 531 
z
" transform="scale(0.015625)"/>
       </defs>
       <use xlink:href="#DejaVuSans-32"/>
       <use xlink:href="#DejaVuSans-30" x="63.623047"/>
       <use xlink:href="#DejaVuSans-30" x="127.246094"/>
      </g>
     </g>
    </g>
    <g id="xtick_8">
     <g id="line2d_8">
      <g>
       <use xlink:href="#m066e3b832e" x="325.738595" y="307.584" style="stroke: #000000; stroke-width: 0.8"/>
      </g>
     </g>
     <g id="text_8">
      <!-- 233 -->
      <g transform="translate(316.194845 322.182437) scale(0.1 -0.1)">
       <use xlink:href="#DejaVuSans-32"/>
       <use xlink:href="#DejaVuSans-33" x="63.623047"/>
       <use xlink:href="#DejaVuSans-33" x="127.246094"/>
      </g>
     </g>
    </g>
    <g id="xtick_9">
     <g id="line2d_9">
      <g>
       <use xlink:href="#m066e3b832e" x="361.570033" y="307.584" style="stroke: #000000; stroke-width: 0.8"/>
      </g>
     </g>
     <g id="text_9">
      <!-- 266 -->
      <g transform="translate(352.026283 322.182437) scale(0.1 -0.1)">
       <use xlink:href="#DejaVuSans-32"/>
       <use xlink:href="#DejaVuSans-36" x="63.623047"/>
       <use xlink:href="#DejaVuSans-36" x="127.246094"/>
      </g>
     </g>
    </g>
    <g id="xtick_10">
     <g id="line2d_10">
      <g>
       <use xlink:href="#m066e3b832e" x="398.487273" y="307.584" style="stroke: #000000; stroke-width: 0.8"/>
      </g>
     </g>
     <g id="text_10">
      <!-- 300 -->
      <g transform="translate(388.943523 322.182437) scale(0.1 -0.1)">
       <use xlink:href="#DejaVuSans-33"/>
       <use xlink:href="#DejaVuSans-30" x="63.623047"/>
       <use xlink:href="#DejaVuSans-30" x="127.246094"/>
      </g>
     </g>
    </g>
    <g id="text_11">
     <!-- Epochs -->
     <g transform="translate(218.244375 335.860562) scale(0.1 -0.1)">
      <defs>
       <path id="DejaVuSans-45" d="M 628 4666 
L 3578 4666 
L 3578 4134 
L 1259 4134 
L 1259 2753 
L 3481 2753 
L 3481 2222 
L 1259 2222 
L 1259 531 
L 3634 531 
L 3634 0 
L 628 0 
L 628 4666 
z
" transform="scale(0.015625)"/>
       <path id="DejaVuSans-70" d="M 1159 525 
L 1159 -1331 
L 581 -1331 
L 581 3500 
L 1159 3500 
L 1159 2969 
Q 1341 3281 1617 3432 
Q 1894 3584 2278 3584 
Q 2916 3584 3314 3078 
Q 3713 2572 3713 1747 
Q 3713 922 3314 415 
Q 2916 -91 2278 -91 
Q 1894 -91 1617 61 
Q 1341 213 1159 525 
z
M 3116 1747 
Q 3116 2381 2855 2742 
Q 2594 3103 2138 3103 
Q 1681 3103 1420 2742 
Q 1159 2381 1159 1747 
Q 1159 1113 1420 752 
Q 1681 391 2138 391 
Q 2594 391 2855 752 
Q 3116 1113 3116 1747 
z
" transform="scale(0.015625)"/>
       <path id="DejaVuSans-6f" d="M 1959 3097 
Q 1497 3097 1228 2736 
Q 959 2375 959 1747 
Q 959 1119 1226 758 
Q 1494 397 1959 397 
Q 2419 397 2687 759 
Q 2956 1122 2956 1747 
Q 2956 2369 2687 2733 
Q 2419 3097 1959 3097 
z
M 1959 3584 
Q 2709 3584 3137 3096 
Q 3566 2609 3566 1747 
Q 3566 888 3137 398 
Q 2709 -91 1959 -91 
Q 1206 -91 779 398 
Q 353 888 353 1747 
Q 353 2609 779 3096 
Q 1206 3584 1959 3584 
z
" transform="scale(0.015625)"/>
       <path id="DejaVuSans-63" d="M 3122 3366 
L 3122 2828 
Q 2878 2963 2633 3030 
Q 2388 3097 2138 3097 
Q 1578 3097 1268 2742 
Q 959 2388 959 1747 
Q 959 1106 1268 751 
Q 1578 397 2138 397 
Q 2388 397 2633 464 
Q 2878 531 3122 666 
L 3122 134 
Q 2881 22 2623 -34 
Q 2366 -91 2075 -91 
Q 1284 -91 818 406 
Q 353 903 353 1747 
Q 353 2603 823 3093 
Q 1294 3584 2113 3584 
Q 2378 3584 2631 3529 
Q 2884 3475 3122 3366 
z
" transform="scale(0.015625)"/>
       <path id="DejaVuSans-68" d="M 3513 2113 
L 3513 0 
L 2938 0 
L 2938 2094 
Q 2938 2591 2744 2837 
Q 2550 3084 2163 3084 
Q 1697 3084 1428 2787 
Q 1159 2491 1159 1978 
L 1159 0 
L 581 0 
L 581 4863 
L 1159 4863 
L 1159 2956 
Q 1366 3272 1645 3428 
Q 1925 3584 2291 3584 
Q 2894 3584 3203 3211 
Q 3513 2838 3513 2113 
z
" transform="scale(0.015625)"/>
       <path id="DejaVuSans-73" d="M 2834 3397 
L 2834 2853 
Q 2591 2978 2328 3040 
Q 2066 3103 1784 3103 
Q 1356 3103 1142 2972 
Q 928 2841 928 2578 
Q 928 2378 1081 2264 
Q 1234 2150 1697 2047 
L 1894 2003 
Q 2506 1872 2764 1633 
Q 3022 1394 3022 966 
Q 3022 478 2636 193 
Q 2250 -91 1575 -91 
Q 1294 -91 989 -36 
Q 684 19 347 128 
L 347 722 
Q 666 556 975 473 
Q 1284 391 1588 391 
Q 1994 391 2212 530 
Q 2431 669 2431 922 
Q 2431 1156 2273 1281 
Q 2116 1406 1581 1522 
L 1381 1569 
Q 847 1681 609 1914 
Q 372 2147 372 2553 
Q 372 3047 722 3315 
Q 1072 3584 1716 3584 
Q 2034 3584 2315 3537 
Q 2597 3491 2834 3397 
z
" transform="scale(0.015625)"/>
      </defs>
      <use xlink:href="#DejaVuSans-45"/>
      <use xlink:href="#DejaVuSans-70" x="63.183594"/>
      <use xlink:href="#DejaVuSans-6f" x="126.660156"/>
      <use xlink:href="#DejaVuSans-63" x="187.841797"/>
      <use xlink:href="#DejaVuSans-68" x="242.822266"/>
      <use xlink:href="#DejaVuSans-73" x="306.201172"/>
     </g>
    </g>
   </g>
   <g id="matplotlib.axis_2">
    <g id="ytick_1">
     <g id="line2d_11">
      <defs>
       <path id="m374f604573" d="M 0 0 
L -3.5 0 
" style="stroke: #000000; stroke-width: 0.8"/>
      </defs>
      <g>
       <use xlink:href="#m374f604573" x="57.6" y="272.6027" style="stroke: #000000; stroke-width: 0.8"/>
      </g>
     </g>
     <g id="text_12">
      <!-- 10 -->
      <g transform="translate(37.875 276.401919) scale(0.1 -0.1)">
       <use xlink:href="#DejaVuSans-31"/>
       <use xlink:href="#DejaVuSans-30" x="63.623047"/>
      </g>
     </g>
    </g>
    <g id="ytick_2">
     <g id="line2d_12">
      <g>
       <use xlink:href="#m374f604573" x="57.6" y="236.506013" style="stroke: #000000; stroke-width: 0.8"/>
      </g>
     </g>
     <g id="text_13">
      <!-- 20 -->
      <g transform="translate(37.875 240.305231) scale(0.1 -0.1)">
       <use xlink:href="#DejaVuSans-32"/>
       <use xlink:href="#DejaVuSans-30" x="63.623047"/>
      </g>
     </g>
    </g>
    <g id="ytick_3">
     <g id="line2d_13">
      <g>
       <use xlink:href="#m374f604573" x="57.6" y="200.409325" style="stroke: #000000; stroke-width: 0.8"/>
      </g>
     </g>
     <g id="text_14">
      <!-- 30 -->
      <g transform="translate(37.875 204.208544) scale(0.1 -0.1)">
       <use xlink:href="#DejaVuSans-33"/>
       <use xlink:href="#DejaVuSans-30" x="63.623047"/>
      </g>
     </g>
    </g>
    <g id="ytick_4">
     <g id="line2d_14">
      <g>
       <use xlink:href="#m374f604573" x="57.6" y="164.312637" style="stroke: #000000; stroke-width: 0.8"/>
      </g>
     </g>
     <g id="text_15">
      <!-- 40 -->
      <g transform="translate(37.875 168.111856) scale(0.1 -0.1)">
       <use xlink:href="#DejaVuSans-34"/>
       <use xlink:href="#DejaVuSans-30" x="63.623047"/>
      </g>
     </g>
    </g>
    <g id="ytick_5">
     <g id="line2d_15">
      <g>
       <use xlink:href="#m374f604573" x="57.6" y="128.21595" style="stroke: #000000; stroke-width: 0.8"/>
      </g>
     </g>
     <g id="text_16">
      <!-- 50 -->
      <g transform="translate(37.875 132.015169) scale(0.1 -0.1)">
       <defs>
        <path id="DejaVuSans-35" d="M 691 4666 
L 3169 4666 
L 3169 4134 
L 1269 4134 
L 1269 2991 
Q 1406 3038 1543 3061 
Q 1681 3084 1819 3084 
Q 2600 3084 3056 2656 
Q 3513 2228 3513 1497 
Q 3513 744 3044 326 
Q 2575 -91 1722 -91 
Q 1428 -91 1123 -41 
Q 819 9 494 109 
L 494 744 
Q 775 591 1075 516 
Q 1375 441 1709 441 
Q 2250 441 2565 725 
Q 2881 1009 2881 1497 
Q 2881 1984 2565 2268 
Q 2250 2553 1709 2553 
Q 1456 2553 1204 2497 
Q 953 2441 691 2322 
L 691 4666 
z
" transform="scale(0.015625)"/>
       </defs>
       <use xlink:href="#DejaVuSans-35"/>
       <use xlink:href="#DejaVuSans-30" x="63.623047"/>
      </g>
     </g>
    </g>
    <g id="ytick_6">
     <g id="line2d_16">
      <g>
       <use xlink:href="#m374f604573" x="57.6" y="92.119262" style="stroke: #000000; stroke-width: 0.8"/>
      </g>
     </g>
     <g id="text_17">
      <!-- 60 -->
      <g transform="translate(37.875 95.918481) scale(0.1 -0.1)">
       <use xlink:href="#DejaVuSans-36"/>
       <use xlink:href="#DejaVuSans-30" x="63.623047"/>
      </g>
     </g>
    </g>
    <g id="ytick_7">
     <g id="line2d_17">
      <g>
       <use xlink:href="#m374f604573" x="57.6" y="56.022575" style="stroke: #000000; stroke-width: 0.8"/>
      </g>
     </g>
     <g id="text_18">
      <!-- 70 -->
      <g transform="translate(37.875 59.821794) scale(0.1 -0.1)">
       <use xlink:href="#DejaVuSans-37"/>
       <use xlink:href="#DejaVuSans-30" x="63.623047"/>
      </g>
     </g>
    </g>
    <g id="text_19">
     <!-- Accuracy -->
     <g transform="translate(31.795312 197.356125) rotate(-90) scale(0.1 -0.1)">
      <defs>
       <path id="DejaVuSans-41" d="M 2188 4044 
L 1331 1722 
L 3047 1722 
L 2188 4044 
z
M 1831 4666 
L 2547 4666 
L 4325 0 
L 3669 0 
L 3244 1197 
L 1141 1197 
L 716 0 
L 50 0 
L 1831 4666 
z
" transform="scale(0.015625)"/>
       <path id="DejaVuSans-75" d="M 544 1381 
L 544 3500 
L 1119 3500 
L 1119 1403 
Q 1119 906 1312 657 
Q 1506 409 1894 409 
Q 2359 409 2629 706 
Q 2900 1003 2900 1516 
L 2900 3500 
L 3475 3500 
L 3475 0 
L 2900 0 
L 2900 538 
Q 2691 219 2414 64 
Q 2138 -91 1772 -91 
Q 1169 -91 856 284 
Q 544 659 544 1381 
z
M 1991 3584 
L 1991 3584 
z
" transform="scale(0.015625)"/>
       <path id="DejaVuSans-72" d="M 2631 2963 
Q 2534 3019 2420 3045 
Q 2306 3072 2169 3072 
Q 1681 3072 1420 2755 
Q 1159 2438 1159 1844 
L 1159 0 
L 581 0 
L 581 3500 
L 1159 3500 
L 1159 2956 
Q 1341 3275 1631 3429 
Q 1922 3584 2338 3584 
Q 2397 3584 2469 3576 
Q 2541 3569 2628 3553 
L 2631 2963 
z
" transform="scale(0.015625)"/>
       <path id="DejaVuSans-61" d="M 2194 1759 
Q 1497 1759 1228 1600 
Q 959 1441 959 1056 
Q 959 750 1161 570 
Q 1363 391 1709 391 
Q 2188 391 2477 730 
Q 2766 1069 2766 1631 
L 2766 1759 
L 2194 1759 
z
M 3341 1997 
L 3341 0 
L 2766 0 
L 2766 531 
Q 2569 213 2275 61 
Q 1981 -91 1556 -91 
Q 1019 -91 701 211 
Q 384 513 384 1019 
Q 384 1609 779 1909 
Q 1175 2209 1959 2209 
L 2766 2209 
L 2766 2266 
Q 2766 2663 2505 2880 
Q 2244 3097 1772 3097 
Q 1472 3097 1187 3025 
Q 903 2953 641 2809 
L 641 3341 
Q 956 3463 1253 3523 
Q 1550 3584 1831 3584 
Q 2591 3584 2966 3190 
Q 3341 2797 3341 1997 
z
" transform="scale(0.015625)"/>
       <path id="DejaVuSans-79" d="M 2059 -325 
Q 1816 -950 1584 -1140 
Q 1353 -1331 966 -1331 
L 506 -1331 
L 506 -850 
L 844 -850 
Q 1081 -850 1212 -737 
Q 1344 -625 1503 -206 
L 1606 56 
L 191 3500 
L 800 3500 
L 1894 763 
L 2988 3500 
L 3597 3500 
L 2059 -325 
z
" transform="scale(0.015625)"/>
      </defs>
      <use xlink:href="#DejaVuSans-41"/>
      <use xlink:href="#DejaVuSans-63" x="66.658203"/>
      <use xlink:href="#DejaVuSans-63" x="121.638672"/>
      <use xlink:href="#DejaVuSans-75" x="176.619141"/>
      <use xlink:href="#DejaVuSans-72" x="239.998047"/>
      <use xlink:href="#DejaVuSans-61" x="281.111328"/>
      <use xlink:href="#DejaVuSans-63" x="342.390625"/>
      <use xlink:href="#DejaVuSans-79" x="397.371094"/>
     </g>
    </g>
   </g>
   <g id="line2d_18">
    <path d="M 73.832727 295.488 
L 74.918528 277.01552 
L 76.00433 261.015663 
L 77.090131 247.18612 
L 79.261733 227.45928 
L 80.347534 218.561447 
L 81.433335 211.048824 
L 82.519137 204.425081 
L 83.604938 196.939531 
L 84.690739 191.691975 
L 85.77654 184.914822 
L 86.862341 180.745654 
L 87.948142 177.307445 
L 89.033943 172.276469 
L 92.291347 163.270346 
L 93.377148 161.83099 
L 94.462949 161.370757 
L 95.54875 190.162378 
L 96.634552 188.560587 
L 99.891955 178.737776 
L 100.977756 175.416881 
L 102.063557 172.51561 
L 103.149358 169.036791 
L 104.23516 167.326711 
L 105.320961 163.545583 
L 106.406762 162.223542 
L 109.664165 154.277758 
L 111.835768 149.318976 
L 112.921569 147.757794 
L 114.00737 145.488215 
L 115.093171 144.292512 
L 116.178972 140.466263 
L 117.264773 139.049468 
L 118.350575 137.204025 
L 119.436376 133.77484 
L 120.522177 131.726353 
L 121.607978 130.526138 
L 122.693779 128.770936 
L 123.77958 126.790131 
L 124.865382 123.36997 
L 125.951183 122.35475 
L 127.036984 121.136487 
L 128.122785 118.641303 
L 129.208586 117.653157 
L 130.294387 114.26458 
L 131.380189 114.986514 
L 132.46599 113.11851 
L 133.551791 112.744007 
L 135.723393 112.38304 
L 136.809194 110.311993 
L 137.894995 109.901393 
L 138.980797 146.990739 
L 140.066598 148.727893 
L 141.152399 148.628627 
L 142.2382 148.741429 
L 143.324001 148.393998 
L 144.409802 146.832816 
L 145.495604 143.773622 
L 147.667206 141.725135 
L 148.753007 141.395753 
L 149.838808 140.339925 
L 150.924609 138.990811 
L 152.01041 138.882521 
L 154.182013 136.554285 
L 155.267814 134.596039 
L 156.353615 134.884813 
L 157.439416 134.695305 
L 158.525217 132.813765 
L 160.69682 130.634428 
L 161.782621 130.503577 
L 162.868422 128.549844 
L 163.954223 126.907445 
L 165.040024 126.343434 
L 166.125825 125.991491 
L 168.297428 123.676791 
L 169.383229 123.839226 
L 170.46903 122.6345 
L 171.554831 122.57133 
L 172.640632 120.734911 
L 173.726434 120.175413 
L 174.812235 117.409504 
L 175.898036 116.173192 
L 176.983837 115.582109 
L 178.069638 115.857346 
L 179.155439 114.287141 
L 181.327042 111.706227 
L 182.412843 111.417454 
L 183.498644 110.366138 
L 184.584445 108.940319 
L 186.756047 107.379137 
L 187.841849 105.077973 
L 190.013451 103.458134 
L 191.099252 101.576594 
L 192.185053 102.023291 
L 193.270854 101.012584 
L 194.356656 98.891903 
L 195.442457 98.467767 
L 196.528258 97.299137 
L 197.614059 97.258528 
L 198.69986 95.534911 
L 199.785661 94.889683 
L 200.871462 92.791563 
L 201.957264 91.442449 
L 203.043065 90.29638 
L 204.128866 90.021142 
L 205.214667 89.163846 
L 206.300468 87.719979 
L 207.386269 89.091653 
L 208.472071 86.167821 
L 209.557872 86.01441 
L 210.643673 84.728466 
L 211.729474 84.376523 
L 212.815275 84.268233 
L 213.901076 83.383864 
L 214.986877 82.161089 
L 216.072679 81.845243 
L 217.15848 82.522056 
L 218.244281 81.218063 
L 219.330082 80.586371 
L 220.415883 79.277866 
L 221.501684 80.446496 
L 222.587486 79.999799 
L 223.673287 81.38501 
L 224.759088 79.440301 
L 225.844889 126.799155 
L 226.93069 130.232852 
L 228.016491 130.517114 
L 229.102292 130.277973 
L 230.188094 129.204097 
L 231.273895 129.222145 
L 232.359696 127.981321 
L 233.445497 128.405457 
L 234.531298 127.471456 
L 235.617099 127.245851 
L 236.702901 126.433676 
L 238.874503 126.388555 
L 239.960304 125.702718 
L 241.046105 126.0321 
L 242.131906 123.816666 
L 243.217708 122.273533 
L 244.303509 122.945833 
L 246.475111 122.927785 
L 247.560912 121.348555 
L 248.646713 121.506478 
L 249.732514 119.73774 
L 250.818316 120.531868 
L 251.904117 120.730399 
L 252.989918 119.385798 
L 254.075719 119.584329 
L 255.16152 118.587158 
L 256.247321 119.119585 
L 257.333123 116.249898 
L 258.418924 116.854517 
L 259.504725 116.610865 
L 260.590526 114.837615 
L 261.676327 116.466478 
L 262.762128 116.633425 
L 263.847929 116.06039 
L 264.933731 114.851151 
L 266.019532 114.634571 
L 267.105333 114.765422 
L 268.191134 114.436039 
L 270.362736 112.698886 
L 271.448538 112.834249 
L 272.534339 113.515574 
L 273.62014 113.768251 
L 274.705941 111.895735 
L 275.791742 112.25219 
L 276.877543 110.411259 
L 277.963344 110.492476 
L 280.134947 111.200874 
L 281.220748 110.316505 
L 282.306549 108.81398 
L 283.39235 108.786908 
L 284.478151 108.881662 
L 285.563953 107.036218 
L 286.649754 107.613765 
L 288.821356 107.058779 
L 289.907157 106.927928 
L 290.992958 106.99561 
L 292.07876 102.898636 
L 293.164561 105.204312 
L 294.250362 103.489719 
L 295.336163 103.692763 
L 296.421964 103.214482 
L 297.507765 103.259603 
L 298.593566 103.043022 
L 299.679368 102.244383 
L 300.765169 102.149629 
L 301.85097 100.259065 
L 302.936771 102.506084 
L 304.022572 101.283309 
L 305.108373 99.55518 
L 306.194175 98.918976 
L 307.279976 97.727785 
L 308.365777 97.772906 
L 309.451578 97.637543 
L 310.537379 97.700713 
L 311.62318 97.073533 
L 312.708981 95.55296 
L 313.794783 96.888537 
L 314.880584 95.110775 
L 315.966385 95.625153 
L 317.052186 95.598081 
L 318.137987 93.698492 
L 319.223788 93.969218 
L 320.30959 93.409719 
L 321.395391 92.232064 
L 322.481192 91.640981 
L 323.566993 91.401841 
L 324.652794 92.647176 
L 325.738595 89.795538 
L 326.824396 89.782002 
L 327.910198 88.649468 
L 328.995999 88.22082 
L 330.0818 88.658492 
L 331.167601 88.473497 
L 332.253402 87.480838 
L 333.339203 86.673175 
L 334.425005 86.330256 
L 335.510806 85.540641 
L 336.596607 85.030775 
L 337.682408 83.956899 
L 338.768209 83.271062 
L 339.85401 82.093407 
L 340.939811 81.366962 
L 342.025613 81.335377 
L 343.111414 80.798439 
L 344.197215 79.665905 
L 345.283016 78.980068 
L 346.368817 80.599907 
L 347.454618 78.943971 
L 348.54042 78.65971 
L 349.626221 76.909021 
L 350.712022 76.800731 
L 351.797823 77.29706 
L 352.883624 75.6321 
L 355.055227 74.5492 
L 357.226829 74.296523 
L 358.31263 73.358009 
L 359.398431 71.422324 
L 360.484232 72.392423 
L 361.570033 70.271742 
L 362.655835 71.115502 
L 363.741636 70.632709 
L 364.827437 69.405422 
L 365.913238 69.455055 
L 366.999039 67.8668 
L 368.08484 70.294303 
L 370.256443 72.455592 
L 372.428045 76.141966 
L 373.513846 77.003774 
L 374.599647 76.372082 
L 375.685448 77.802414 
L 376.77125 76.787194 
L 377.857051 77.536201 
L 378.942852 76.75561 
L 380.028653 78.077651 
L 381.114454 77.021823 
L 382.200255 77.035359 
L 383.286057 76.841339 
L 384.371858 77.897167 
L 385.457659 77.468519 
L 386.54346 76.751098 
L 387.629261 78.077651 
L 388.715062 77.098528 
L 389.800863 77.242915 
L 391.972466 78.375449 
L 393.058267 77.436935 
L 394.144068 78.05509 
L 395.229869 77.504616 
L 397.401472 78.217526 
L 398.487273 77.649003 
L 398.487273 77.649003 
" clip-path="url(#paca7298223)" style="fill: none; stroke: #1f77b4; stroke-width: 1.5; stroke-linecap: square"/>
   </g>
   <g id="line2d_19">
    <path d="M 73.832727 282.023936 
L 74.918528 258.164025 
L 76.00433 242.498063 
L 77.090131 221.760516 
L 78.175932 213.692906 
L 79.261733 206.942825 
L 80.347534 194.958725 
L 81.433335 191.493443 
L 82.519137 178.895699 
L 83.604938 178.029379 
L 84.690739 164.150202 
L 85.77654 157.219638 
L 87.948142 155.01774 
L 89.033943 144.784329 
L 90.119745 144.260927 
L 91.205546 139.261536 
L 92.291347 136.71672 
L 93.377148 136.030883 
L 94.462949 135.002127 
L 95.54875 171.315395 
L 96.634552 160.919549 
L 97.720353 164.438976 
L 98.806154 151.85928 
L 99.891955 152.003667 
L 100.977756 150.216881 
L 102.063557 149.061787 
L 103.149358 139.405923 
L 104.23516 143.015592 
L 105.320961 139.11715 
L 106.406762 133.287534 
L 107.492563 133.413873 
L 108.578364 130.83296 
L 110.749967 120.798081 
L 111.835768 121.086854 
L 112.921569 123.397042 
L 114.00737 116.087463 
L 115.093171 114.69774 
L 116.178972 112.098779 
L 117.264773 111.412942 
L 118.350575 107.767176 
L 119.436376 103.598009 
L 120.522177 103.850686 
L 121.607978 101.757078 
L 122.693779 101.035144 
L 123.77958 98.941536 
L 124.865382 94.465547 
L 125.951183 95.205529 
L 127.036984 94.140677 
L 128.122785 91.433425 
L 129.208586 89.520301 
L 130.294387 89.754929 
L 131.380189 87.390596 
L 132.46599 86.542324 
L 133.551791 85.946729 
L 134.637592 84.304329 
L 135.723393 85.531617 
L 136.809194 84.917973 
L 137.894995 84.863828 
L 138.980797 121.592208 
L 140.066598 124.245314 
L 141.152399 123.992637 
L 142.2382 121.736594 
L 143.324001 120.527355 
L 144.409802 127.385726 
L 145.495604 126.627696 
L 146.581405 114.463112 
L 147.667206 116.899638 
L 148.753007 108.759835 
L 149.838808 116.358188 
L 150.924609 109.896881 
L 152.01041 111.75586 
L 153.096212 108.92227 
L 154.182013 111.882199 
L 155.267814 109.572011 
L 156.353615 106.052584 
L 157.439416 107.550596 
L 158.525217 103.977024 
L 159.611019 104.7892 
L 160.69682 109.409576 
L 161.782621 103.03851 
L 162.868422 100.565887 
L 163.954223 106.864759 
L 165.040024 101.684885 
L 166.125825 102.803882 
L 167.211627 97.172799 
L 168.297428 92.895341 
L 169.383229 98.129361 
L 170.46903 96.252333 
L 171.554831 97.010363 
L 172.640632 94.230919 
L 173.726434 92.371939 
L 174.812235 89.935413 
L 175.898036 93.021679 
L 176.983837 87.174016 
L 178.069638 86.795001 
L 179.155439 88.635932 
L 180.24124 89.032996 
L 181.327042 87.986192 
L 183.498644 81.344401 
L 184.584445 82.968752 
L 185.670246 83.582396 
L 186.756047 82.192673 
L 187.841849 81.398546 
L 188.92765 81.001483 
L 190.013451 78.185941 
L 191.099252 78.348376 
L 192.185053 76.218671 
L 193.270854 75.659173 
L 194.356656 74.251402 
L 195.442457 74.702611 
L 196.528258 74.594321 
L 197.614059 72.067552 
L 198.69986 71.995359 
L 199.785661 70.56954 
L 201.957264 70.984652 
L 204.128866 68.114965 
L 205.214667 66.075502 
L 206.300468 65.949164 
L 207.386269 65.949164 
L 210.643673 63.638976 
L 211.729474 63.223864 
L 212.815275 62.682414 
L 213.901076 62.411688 
L 216.072679 61.41903 
L 217.15848 61.382933 
L 218.244281 61.563416 
L 219.330082 60.877579 
L 221.501684 61.7439 
L 223.673287 60.480516 
L 224.759088 61.166353 
L 225.844889 106.467696 
L 226.93069 107.153533 
L 228.016491 105.402843 
L 229.102292 109.644204 
L 230.188094 102.352673 
L 231.273895 104.608716 
L 232.359696 108.434965 
L 233.445497 102.587302 
L 234.531298 104.662861 
L 235.617099 99.66347 
L 236.702901 101.486353 
L 237.788702 101.630739 
L 238.874503 97.858636 
L 239.960304 104.771151 
L 241.046105 101.053192 
L 242.131906 101.378063 
L 243.217708 99.501035 
L 244.303509 101.666836 
L 245.38931 100.150775 
L 246.475111 97.064509 
L 247.560912 96.775735 
L 248.646713 100.764419 
L 249.732514 98.327893 
L 250.818316 96.342575 
L 251.904117 101.143434 
L 252.989918 104.067266 
L 254.075719 92.083166 
L 255.16152 97.317185 
L 256.247321 98.887391 
L 257.333123 94.248967 
L 258.418924 92.750954 
L 259.504725 94.772369 
L 260.590526 94.952852 
L 261.676327 94.627982 
L 262.762128 97.894732 
L 263.847929 91.866585 
L 264.933731 95.873318 
L 267.105333 89.014947 
L 268.191134 90.494911 
L 269.276935 88.635932 
L 270.362736 91.289038 
L 271.448538 89.935413 
L 273.62014 91.27099 
L 274.705941 90.314428 
L 275.791742 87.697418 
L 276.877543 89.412011 
L 279.049146 88.942754 
L 280.134947 96.468913 
L 281.220748 85.856487 
L 282.306549 86.758904 
L 283.39235 88.816415 
L 284.478151 85.766245 
L 285.563953 84.95407 
L 286.649754 86.813049 
L 287.735555 83.438009 
L 288.821356 81.976093 
L 289.907157 83.347767 
L 290.992958 88.419352 
L 292.07876 85.910632 
L 294.250362 86.470131 
L 295.336163 79.322987 
L 296.421964 82.66193 
L 297.507765 83.600444 
L 298.593566 82.607785 
L 300.765169 81.68732 
L 301.85097 83.293622 
L 302.936771 82.481447 
L 304.022572 78.456666 
L 305.108373 80.658564 
L 306.194175 80.514177 
L 307.279976 75.352351 
L 308.365777 78.619101 
L 309.451578 78.492763 
L 310.537379 79.792244 
L 311.62318 76.66988 
L 312.708981 79.972727 
L 313.794783 75.280158 
L 314.880584 77.590346 
L 315.966385 74.937239 
L 317.052186 73.655807 
L 318.137987 73.529468 
L 319.223788 74.449934 
L 320.30959 72.717293 
L 321.395391 73.529468 
L 322.481192 73.150453 
L 323.566993 68.512029 
L 324.652794 72.699244 
L 325.738595 68.548125 
L 326.824396 69.955896 
L 327.910198 71.11099 
L 328.995999 67.826192 
L 330.0818 68.872996 
L 331.167601 66.689146 
L 332.253402 67.753998 
L 333.339203 67.104258 
L 334.425005 65.76868 
L 335.510806 65.87697 
L 336.596607 67.032064 
L 337.682408 64.992602 
L 338.768209 67.212548 
L 339.85401 62.140963 
L 340.939811 65.678439 
L 342.025613 62.808752 
L 343.111414 62.17706 
L 344.197215 62.06877 
L 345.283016 60.733192 
L 346.368817 60.715144 
L 347.454618 60.065404 
L 348.54042 61.400981 
L 349.626221 59.66834 
L 350.712022 60.245887 
L 351.797823 58.91031 
L 352.883624 59.686389 
L 353.969425 58.513246 
L 355.055227 59.505905 
L 356.141028 59.433712 
L 357.226829 56.166962 
L 358.31263 57.05133 
L 359.398431 56.654267 
L 360.484232 56.870847 
L 361.570033 56.07672 
L 362.655835 55.896236 
L 364.827437 54.993819 
L 365.913238 54.362127 
L 366.999039 53.568 
L 368.08484 55.011868 
L 369.170642 57.015234 
L 370.256443 58.783971 
L 371.342244 59.487857 
L 372.428045 59.812727 
L 373.513846 60.985869 
L 374.599647 63.296057 
L 375.685448 62.231205 
L 376.77125 61.85219 
L 378.942852 59.722485 
L 380.028653 59.56005 
L 381.114454 61.707803 
L 382.200255 63.151671 
L 383.286057 62.682414 
L 384.371858 62.862897 
L 385.457659 61.617561 
L 386.54346 60.155645 
L 387.629261 61.021966 
L 388.715062 61.076111 
L 389.800863 61.563416 
L 390.886665 59.614195 
L 391.972466 63.368251 
L 393.058267 60.318081 
L 394.144068 63.711169 
L 395.229869 64.378958 
L 396.31567 61.816093 
L 397.401472 61.310739 
L 398.487273 62.014625 
L 398.487273 62.014625 
" clip-path="url(#paca7298223)" style="fill: none; stroke: #ff7f0e; stroke-width: 1.5; stroke-linecap: square"/>
   </g>
   <g id="line2d_20">
    <path d="M 73.832727 292.393643 
L 74.918528 275.838955 
L 76.00433 274.220827 
L 77.090131 259.035324 
L 80.347534 245.59242 
L 81.433335 238.373083 
L 82.519137 232.025044 
L 83.604938 235.136828 
L 84.690739 226.174892 
L 85.77654 224.058879 
L 86.862341 221.071567 
L 87.948142 225.552535 
L 89.033943 214.225643 
L 90.119745 213.354344 
L 91.205546 210.118089 
L 92.291347 205.761592 
L 93.377148 206.010535 
L 94.462949 205.637121 
L 95.54875 238.248611 
L 96.634552 225.552535 
L 97.720353 225.801478 
L 98.806154 217.710841 
L 99.891955 215.968242 
L 100.977756 213.229873 
L 102.063557 217.212955 
L 103.149358 209.869147 
L 104.23516 215.719299 
L 105.320961 206.757363 
L 106.406762 203.894522 
L 107.492563 207.130777 
L 108.578364 205.263707 
L 109.664165 195.430472 
L 110.749967 190.576089 
L 111.835768 196.1773 
L 112.921569 194.559172 
L 114.00737 183.481223 
L 115.093171 193.189987 
L 116.178972 185.721707 
L 117.264773 183.979109 
L 118.350575 174.394816 
L 119.436376 178.875784 
L 120.522177 179.747083 
L 121.607978 176.510828 
L 122.693779 175.888472 
L 123.77958 170.287262 
L 124.865382 172.527746 
L 125.951183 174.021402 
L 127.036984 175.266115 
L 128.122785 167.922306 
L 129.208586 166.802064 
L 130.294387 168.918077 
L 131.380189 164.686051 
L 133.551791 162.943453 
L 134.637592 163.067924 
L 135.723393 163.441338 
L 136.809194 164.56158 
L 137.894995 164.312637 
L 138.980797 198.915669 
L 140.066598 190.949503 
L 141.152399 196.550714 
L 142.2382 194.808115 
L 143.324001 197.17307 
L 144.409802 199.91144 
L 145.495604 203.147694 
L 146.581405 188.709019 
L 147.667206 194.559172 
L 148.753007 186.717478 
L 149.838808 187.339835 
L 150.924609 185.721707 
L 152.01041 187.464306 
L 153.096212 185.223822 
L 154.182013 190.949503 
L 155.267814 185.721707 
L 156.353615 178.875784 
L 157.439416 184.228051 
L 158.525217 184.10358 
L 159.611019 174.519287 
L 160.69682 185.472765 
L 161.782621 175.141644 
L 162.868422 183.979109 
L 163.954223 184.974879 
L 165.040024 174.270344 
L 166.125825 181.489682 
L 168.297428 170.16279 
L 169.383229 172.90116 
L 170.46903 176.386357 
L 171.554831 172.278803 
L 172.640632 166.553121 
L 173.726434 169.291491 
L 174.812235 165.557351 
L 175.898036 168.669134 
L 176.983837 167.673364 
L 178.069638 159.458255 
L 179.155439 165.806293 
L 180.24124 162.818981 
L 181.327042 168.046778 
L 182.412843 159.582727 
L 184.584445 156.968829 
L 185.670246 160.702969 
L 186.756047 160.578497 
L 187.841849 163.316867 
L 188.92765 157.591185 
L 190.013451 156.470943 
L 191.099252 149.376077 
L 192.185053 150.371848 
L 193.270854 156.719886 
L 195.442457 147.882421 
L 196.528258 148.006892 
L 197.614059 147.75795 
L 198.69986 141.036498 
L 200.871462 149.002663 
L 201.957264 144.148281 
L 203.043065 147.75795 
L 204.128866 147.135593 
L 205.214667 144.02381 
L 206.300468 145.268523 
L 207.386269 142.405682 
L 208.472071 143.028039 
L 209.557872 139.41837 
L 210.643673 141.160969 
L 211.729474 138.298128 
L 212.815275 136.555529 
L 213.901076 139.542841 
L 214.986877 135.061873 
L 216.072679 134.937402 
L 217.15848 135.808701 
L 218.244281 135.435287 
L 219.330082 137.924714 
L 220.415883 135.559759 
L 221.501684 137.302357 
L 222.587486 137.302357 
L 224.759088 135.559759 
L 225.844889 187.090892 
L 226.93069 185.099351 
L 228.016491 180.991796 
L 229.102292 189.953733 
L 230.188094 178.377898 
L 231.273895 183.356752 
L 232.359696 185.099351 
L 233.445497 184.10358 
L 235.617099 167.299949 
L 236.702901 177.008714 
L 237.788702 179.49814 
L 238.874503 177.257656 
L 239.960304 181.240739 
L 241.046105 177.257656 
L 242.131906 183.232281 
L 243.217708 174.394816 
L 244.303509 180.618382 
L 245.38931 174.270344 
L 246.475111 170.287262 
L 247.560912 165.557351 
L 248.646713 165.806293 
L 249.732514 178.253427 
L 250.818316 176.137414 
L 251.904117 178.253427 
L 252.989918 187.090892 
L 254.075719 168.918077 
L 255.16152 169.415962 
L 256.247321 172.527746 
L 257.333123 171.407504 
L 258.418924 166.802064 
L 259.504725 167.673364 
L 260.590526 168.918077 
L 261.676327 165.806293 
L 262.762128 174.76823 
L 263.847929 172.90116 
L 264.933731 174.394816 
L 266.019532 172.403274 
L 267.105333 163.192395 
L 268.191134 163.192395 
L 269.276935 162.69451 
L 270.362736 167.673364 
L 271.448538 164.188166 
L 273.62014 173.399045 
L 274.705941 163.067924 
L 275.791742 164.810523 
L 276.877543 160.702969 
L 277.963344 166.42865 
L 279.049146 162.570039 
L 280.134947 166.42865 
L 281.220748 159.458255 
L 282.306549 173.772459 
L 283.39235 170.536204 
L 284.478151 156.097529 
L 285.563953 164.56158 
L 286.649754 161.823211 
L 287.735555 158.462485 
L 288.821356 159.333784 
L 289.907157 160.82744 
L 290.992958 172.90116 
L 292.07876 162.072153 
L 293.164561 158.711427 
L 294.250362 164.188166 
L 295.336163 158.96037 
L 296.421964 160.578497 
L 297.507765 159.333784 
L 298.593566 162.445567 
L 299.679368 160.080612 
L 300.765169 152.612332 
L 301.85097 159.209313 
L 302.936771 153.234688 
L 304.022572 154.105988 
L 305.108373 153.857045 
L 306.194175 154.603873 
L 307.279976 150.869733 
L 308.365777 158.089071 
L 309.451578 154.728345 
L 310.537379 156.470943 
L 311.62318 152.48786 
L 312.708981 156.222001 
L 313.794783 156.844357 
L 314.880584 158.96037 
L 315.966385 147.260064 
L 317.052186 144.895109 
L 318.137987 147.384536 
L 319.223788 152.363389 
L 320.30959 146.762179 
L 321.395391 146.388765 
L 322.481192 150.247376 
L 323.566993 144.770638 
L 324.652794 144.02381 
L 325.738595 146.139822 
L 326.824396 143.15251 
L 327.910198 142.530154 
L 328.995999 140.787555 
L 330.0818 147.882421 
L 331.167601 141.658854 
L 332.253402 142.405682 
L 333.339203 144.02381 
L 334.425005 139.169427 
L 335.510806 142.281211 
L 336.596607 140.165198 
L 337.682408 141.409912 
L 338.768209 141.534383 
L 339.85401 136.555529 
L 340.939811 140.165198 
L 342.025613 134.190574 
L 343.111414 135.933173 
L 344.197215 138.547071 
L 345.283016 133.941631 
L 346.368817 137.800243 
L 347.454618 136.057644 
L 348.54042 136.306587 
L 349.626221 135.435287 
L 350.712022 136.182115 
L 351.797823 137.426829 
L 352.883624 132.696918 
L 353.969425 135.808701 
L 355.055227 131.95009 
L 356.141028 133.692689 
L 357.226829 133.070332 
L 358.31263 129.087249 
L 359.398431 133.070332 
L 360.484232 130.08302 
L 361.570033 127.842536 
L 362.655835 133.692689 
L 363.741636 130.331963 
L 364.827437 129.336192 
L 365.913238 127.718065 
L 366.999039 124.855224 
L 368.08484 132.821389 
L 369.170642 131.078791 
L 370.256443 137.675771 
L 371.342244 137.177886 
L 372.428045 137.177886 
L 373.513846 132.945861 
L 374.599647 141.783326 
L 375.685448 135.68423 
L 376.77125 135.310816 
L 377.857051 136.804472 
L 378.942852 129.585135 
L 380.028653 140.663084 
L 381.114454 134.563988 
L 382.200255 141.036498 
L 383.286057 137.924714 
L 384.371858 141.658854 
L 385.457659 139.667313 
L 386.54346 136.306587 
L 387.629261 137.426829 
L 388.715062 133.81716 
L 389.800863 143.650396 
L 390.886665 136.928943 
L 391.972466 141.783326 
L 393.058267 136.182115 
L 394.144068 136.804472 
L 395.229869 132.945861 
L 396.31567 136.306587 
L 397.401472 137.426829 
L 398.487273 139.169427 
L 398.487273 139.169427 
" clip-path="url(#paca7298223)" style="fill: none; stroke: #2ca02c; stroke-width: 1.5; stroke-linecap: square"/>
   </g>
   <g id="line2d_21">
    <path d="M 368.08484 54.416272 
L 370.256443 58.621536 
L 371.342244 58.928358 
L 373.513846 62.465833 
L 374.599647 58.982503 
L 375.685448 64.378958 
L 376.77125 63.711169 
L 377.857051 65.732584 
L 378.942852 65.642342 
L 380.028653 61.328788 
L 381.114454 61.094159 
L 382.200255 60.534661 
L 383.286057 63.368251 
L 384.371858 64.108233 
L 385.457659 69.360301 
L 386.54346 64.703828 
L 387.629261 73.601662 
L 388.715062 73.872387 
L 389.800863 70.695878 
L 390.886665 68.06082 
L 391.972466 75.442593 
L 393.058267 73.421178 
L 394.144068 79.467373 
L 395.229869 69.649074 
L 396.31567 69.017382 
L 397.401472 70.804168 
L 398.487273 70.389056 
L 398.487273 70.389056 
" clip-path="url(#paca7298223)" style="fill: none; stroke: #d62728; stroke-width: 1.5; stroke-linecap: square"/>
   </g>
   <g id="line2d_22">
    <path d="M 368.08484 133.443746 
L 369.170642 132.821389 
L 370.256443 133.692689 
L 371.342244 136.928943 
L 373.513846 138.298128 
L 374.599647 133.568217 
L 375.685448 139.169427 
L 377.857051 140.538612 
L 378.942852 143.15251 
L 380.028653 139.41837 
L 381.114454 139.044956 
L 382.200255 129.709606 
L 383.286057 138.298128 
L 384.371858 139.667313 
L 385.457659 148.629249 
L 386.54346 142.15674 
L 387.629261 146.015351 
L 388.715062 150.869733 
L 389.800863 150.496319 
L 390.886665 141.036498 
L 391.972466 147.011122 
L 393.058267 146.637708 
L 394.144068 159.956141 
L 395.229869 145.641937 
L 396.31567 142.903568 
L 397.401472 144.397224 
L 398.487273 143.401453 
L 398.487273 143.401453 
" clip-path="url(#paca7298223)" style="fill: none; stroke: #9467bd; stroke-width: 1.5; stroke-linecap: square"/>
   </g>
   <g id="patch_3">
    <path d="M 57.6 307.584 
L 57.6 41.472 
" style="fill: none; stroke: #000000; stroke-width: 0.8; stroke-linejoin: miter; stroke-linecap: square"/>
   </g>
   <g id="patch_4">
    <path d="M 414.72 307.584 
L 414.72 41.472 
" style="fill: none; stroke: #000000; stroke-width: 0.8; stroke-linejoin: miter; stroke-linecap: square"/>
   </g>
   <g id="patch_5">
    <path d="M 57.6 307.584 
L 414.72 307.584 
" style="fill: none; stroke: #000000; stroke-width: 0.8; stroke-linejoin: miter; stroke-linecap: square"/>
   </g>
   <g id="patch_6">
    <path d="M 57.6 41.472 
L 414.72 41.472 
" style="fill: none; stroke: #000000; stroke-width: 0.8; stroke-linejoin: miter; stroke-linecap: square"/>
   </g>
   <g id="text_20">
    <!-- Learning Curves -->
    <g transform="translate(187.37625 35.472) scale(0.12 -0.12)">
     <defs>
      <path id="DejaVuSans-4c" d="M 628 4666 
L 1259 4666 
L 1259 531 
L 3531 531 
L 3531 0 
L 628 0 
L 628 4666 
z
" transform="scale(0.015625)"/>
      <path id="DejaVuSans-65" d="M 3597 1894 
L 3597 1613 
L 953 1613 
Q 991 1019 1311 708 
Q 1631 397 2203 397 
Q 2534 397 2845 478 
Q 3156 559 3463 722 
L 3463 178 
Q 3153 47 2828 -22 
Q 2503 -91 2169 -91 
Q 1331 -91 842 396 
Q 353 884 353 1716 
Q 353 2575 817 3079 
Q 1281 3584 2069 3584 
Q 2775 3584 3186 3129 
Q 3597 2675 3597 1894 
z
M 3022 2063 
Q 3016 2534 2758 2815 
Q 2500 3097 2075 3097 
Q 1594 3097 1305 2825 
Q 1016 2553 972 2059 
L 3022 2063 
z
" transform="scale(0.015625)"/>
      <path id="DejaVuSans-6e" d="M 3513 2113 
L 3513 0 
L 2938 0 
L 2938 2094 
Q 2938 2591 2744 2837 
Q 2550 3084 2163 3084 
Q 1697 3084 1428 2787 
Q 1159 2491 1159 1978 
L 1159 0 
L 581 0 
L 581 3500 
L 1159 3500 
L 1159 2956 
Q 1366 3272 1645 3428 
Q 1925 3584 2291 3584 
Q 2894 3584 3203 3211 
Q 3513 2838 3513 2113 
z
" transform="scale(0.015625)"/>
      <path id="DejaVuSans-69" d="M 603 3500 
L 1178 3500 
L 1178 0 
L 603 0 
L 603 3500 
z
M 603 4863 
L 1178 4863 
L 1178 4134 
L 603 4134 
L 603 4863 
z
" transform="scale(0.015625)"/>
      <path id="DejaVuSans-67" d="M 2906 1791 
Q 2906 2416 2648 2759 
Q 2391 3103 1925 3103 
Q 1463 3103 1205 2759 
Q 947 2416 947 1791 
Q 947 1169 1205 825 
Q 1463 481 1925 481 
Q 2391 481 2648 825 
Q 2906 1169 2906 1791 
z
M 3481 434 
Q 3481 -459 3084 -895 
Q 2688 -1331 1869 -1331 
Q 1566 -1331 1297 -1286 
Q 1028 -1241 775 -1147 
L 775 -588 
Q 1028 -725 1275 -790 
Q 1522 -856 1778 -856 
Q 2344 -856 2625 -561 
Q 2906 -266 2906 331 
L 2906 616 
Q 2728 306 2450 153 
Q 2172 0 1784 0 
Q 1141 0 747 490 
Q 353 981 353 1791 
Q 353 2603 747 3093 
Q 1141 3584 1784 3584 
Q 2172 3584 2450 3431 
Q 2728 3278 2906 2969 
L 2906 3500 
L 3481 3500 
L 3481 434 
z
" transform="scale(0.015625)"/>
      <path id="DejaVuSans-20" transform="scale(0.015625)"/>
      <path id="DejaVuSans-43" d="M 4122 4306 
L 4122 3641 
Q 3803 3938 3442 4084 
Q 3081 4231 2675 4231 
Q 1875 4231 1450 3742 
Q 1025 3253 1025 2328 
Q 1025 1406 1450 917 
Q 1875 428 2675 428 
Q 3081 428 3442 575 
Q 3803 722 4122 1019 
L 4122 359 
Q 3791 134 3420 21 
Q 3050 -91 2638 -91 
Q 1578 -91 968 557 
Q 359 1206 359 2328 
Q 359 3453 968 4101 
Q 1578 4750 2638 4750 
Q 3056 4750 3426 4639 
Q 3797 4528 4122 4306 
z
" transform="scale(0.015625)"/>
      <path id="DejaVuSans-76" d="M 191 3500 
L 800 3500 
L 1894 563 
L 2988 3500 
L 3597 3500 
L 2284 0 
L 1503 0 
L 191 3500 
z
" transform="scale(0.015625)"/>
     </defs>
     <use xlink:href="#DejaVuSans-4c"/>
     <use xlink:href="#DejaVuSans-65" x="53.962891"/>
     <use xlink:href="#DejaVuSans-61" x="115.486328"/>
     <use xlink:href="#DejaVuSans-72" x="176.765625"/>
     <use xlink:href="#DejaVuSans-6e" x="216.128906"/>
     <use xlink:href="#DejaVuSans-69" x="279.507812"/>
     <use xlink:href="#DejaVuSans-6e" x="307.291016"/>
     <use xlink:href="#DejaVuSans-67" x="370.669922"/>
     <use xlink:href="#DejaVuSans-20" x="434.146484"/>
     <use xlink:href="#DejaVuSans-43" x="465.933594"/>
     <use xlink:href="#DejaVuSans-75" x="535.757812"/>
     <use xlink:href="#DejaVuSans-72" x="599.136719"/>
     <use xlink:href="#DejaVuSans-76" x="640.25"/>
     <use xlink:href="#DejaVuSans-65" x="699.429688"/>
     <use xlink:href="#DejaVuSans-73" x="760.953125"/>
    </g>
   </g>
   <g id="legend_1">
    <g id="patch_7">
     <path d="M 214.18875 302.584 
L 407.72 302.584 
Q 409.72 302.584 409.72 300.584 
L 409.72 228.193375 
Q 409.72 226.193375 407.72 226.193375 
L 214.18875 226.193375 
Q 212.18875 226.193375 212.18875 228.193375 
L 212.18875 300.584 
Q 212.18875 302.584 214.18875 302.584 
z
" style="fill: #ffffff; opacity: 0.8; stroke: #cccccc; stroke-linejoin: miter"/>
    </g>
    <g id="line2d_23">
     <path d="M 216.18875 234.291812 
L 226.18875 234.291812 
L 236.18875 234.291812 
" style="fill: none; stroke: #1f77b4; stroke-width: 1.5; stroke-linecap: square"/>
    </g>
    <g id="text_21">
     <!-- Train Accuracy -->
     <g transform="translate(244.18875 237.791812) scale(0.1 -0.1)">
      <defs>
       <path id="DejaVuSans-54" d="M -19 4666 
L 3928 4666 
L 3928 4134 
L 2272 4134 
L 2272 0 
L 1638 0 
L 1638 4134 
L -19 4134 
L -19 4666 
z
" transform="scale(0.015625)"/>
      </defs>
      <use xlink:href="#DejaVuSans-54"/>
      <use xlink:href="#DejaVuSans-72" x="46.333984"/>
      <use xlink:href="#DejaVuSans-61" x="87.447266"/>
      <use xlink:href="#DejaVuSans-69" x="148.726562"/>
      <use xlink:href="#DejaVuSans-6e" x="176.509766"/>
      <use xlink:href="#DejaVuSans-20" x="239.888672"/>
      <use xlink:href="#DejaVuSans-41" x="271.675781"/>
      <use xlink:href="#DejaVuSans-63" x="338.333984"/>
      <use xlink:href="#DejaVuSans-63" x="393.314453"/>
      <use xlink:href="#DejaVuSans-75" x="448.294922"/>
      <use xlink:href="#DejaVuSans-72" x="511.673828"/>
      <use xlink:href="#DejaVuSans-61" x="552.787109"/>
      <use xlink:href="#DejaVuSans-63" x="614.066406"/>
      <use xlink:href="#DejaVuSans-79" x="669.046875"/>
     </g>
    </g>
    <g id="line2d_24">
     <path d="M 216.18875 248.969937 
L 226.18875 248.969937 
L 236.18875 248.969937 
" style="fill: none; stroke: #ff7f0e; stroke-width: 1.5; stroke-linecap: square"/>
    </g>
    <g id="text_22">
     <!-- Validation Accuracy -->
     <g transform="translate(244.18875 252.469937) scale(0.1 -0.1)">
      <defs>
       <path id="DejaVuSans-56" d="M 1831 0 
L 50 4666 
L 709 4666 
L 2188 738 
L 3669 4666 
L 4325 4666 
L 2547 0 
L 1831 0 
z
" transform="scale(0.015625)"/>
       <path id="DejaVuSans-6c" d="M 603 4863 
L 1178 4863 
L 1178 0 
L 603 0 
L 603 4863 
z
" transform="scale(0.015625)"/>
       <path id="DejaVuSans-64" d="M 2906 2969 
L 2906 4863 
L 3481 4863 
L 3481 0 
L 2906 0 
L 2906 525 
Q 2725 213 2448 61 
Q 2172 -91 1784 -91 
Q 1150 -91 751 415 
Q 353 922 353 1747 
Q 353 2572 751 3078 
Q 1150 3584 1784 3584 
Q 2172 3584 2448 3432 
Q 2725 3281 2906 2969 
z
M 947 1747 
Q 947 1113 1208 752 
Q 1469 391 1925 391 
Q 2381 391 2643 752 
Q 2906 1113 2906 1747 
Q 2906 2381 2643 2742 
Q 2381 3103 1925 3103 
Q 1469 3103 1208 2742 
Q 947 2381 947 1747 
z
" transform="scale(0.015625)"/>
       <path id="DejaVuSans-74" d="M 1172 4494 
L 1172 3500 
L 2356 3500 
L 2356 3053 
L 1172 3053 
L 1172 1153 
Q 1172 725 1289 603 
Q 1406 481 1766 481 
L 2356 481 
L 2356 0 
L 1766 0 
Q 1100 0 847 248 
Q 594 497 594 1153 
L 594 3053 
L 172 3053 
L 172 3500 
L 594 3500 
L 594 4494 
L 1172 4494 
z
" transform="scale(0.015625)"/>
      </defs>
      <use xlink:href="#DejaVuSans-56"/>
      <use xlink:href="#DejaVuSans-61" x="60.658203"/>
      <use xlink:href="#DejaVuSans-6c" x="121.9375"/>
      <use xlink:href="#DejaVuSans-69" x="149.720703"/>
      <use xlink:href="#DejaVuSans-64" x="177.503906"/>
      <use xlink:href="#DejaVuSans-61" x="240.980469"/>
      <use xlink:href="#DejaVuSans-74" x="302.259766"/>
      <use xlink:href="#DejaVuSans-69" x="341.46875"/>
      <use xlink:href="#DejaVuSans-6f" x="369.251953"/>
      <use xlink:href="#DejaVuSans-6e" x="430.433594"/>
      <use xlink:href="#DejaVuSans-20" x="493.8125"/>
      <use xlink:href="#DejaVuSans-41" x="525.599609"/>
      <use xlink:href="#DejaVuSans-63" x="592.257812"/>
      <use xlink:href="#DejaVuSans-63" x="647.238281"/>
      <use xlink:href="#DejaVuSans-75" x="702.21875"/>
      <use xlink:href="#DejaVuSans-72" x="765.597656"/>
      <use xlink:href="#DejaVuSans-61" x="806.710938"/>
      <use xlink:href="#DejaVuSans-63" x="867.990234"/>
      <use xlink:href="#DejaVuSans-79" x="922.970703"/>
     </g>
    </g>
    <g id="line2d_25">
     <path d="M 216.18875 263.648062 
L 226.18875 263.648062 
L 236.18875 263.648062 
" style="fill: none; stroke: #2ca02c; stroke-width: 1.5; stroke-linecap: square"/>
    </g>
    <g id="text_23">
     <!-- Robust Validation Accuracy -->
     <g transform="translate(244.18875 267.148062) scale(0.1 -0.1)">
      <defs>
       <path id="DejaVuSans-52" d="M 2841 2188 
Q 3044 2119 3236 1894 
Q 3428 1669 3622 1275 
L 4263 0 
L 3584 0 
L 2988 1197 
Q 2756 1666 2539 1819 
Q 2322 1972 1947 1972 
L 1259 1972 
L 1259 0 
L 628 0 
L 628 4666 
L 2053 4666 
Q 2853 4666 3247 4331 
Q 3641 3997 3641 3322 
Q 3641 2881 3436 2590 
Q 3231 2300 2841 2188 
z
M 1259 4147 
L 1259 2491 
L 2053 2491 
Q 2509 2491 2742 2702 
Q 2975 2913 2975 3322 
Q 2975 3731 2742 3939 
Q 2509 4147 2053 4147 
L 1259 4147 
z
" transform="scale(0.015625)"/>
       <path id="DejaVuSans-62" d="M 3116 1747 
Q 3116 2381 2855 2742 
Q 2594 3103 2138 3103 
Q 1681 3103 1420 2742 
Q 1159 2381 1159 1747 
Q 1159 1113 1420 752 
Q 1681 391 2138 391 
Q 2594 391 2855 752 
Q 3116 1113 3116 1747 
z
M 1159 2969 
Q 1341 3281 1617 3432 
Q 1894 3584 2278 3584 
Q 2916 3584 3314 3078 
Q 3713 2572 3713 1747 
Q 3713 922 3314 415 
Q 2916 -91 2278 -91 
Q 1894 -91 1617 61 
Q 1341 213 1159 525 
L 1159 0 
L 581 0 
L 581 4863 
L 1159 4863 
L 1159 2969 
z
" transform="scale(0.015625)"/>
      </defs>
      <use xlink:href="#DejaVuSans-52"/>
      <use xlink:href="#DejaVuSans-6f" x="64.982422"/>
      <use xlink:href="#DejaVuSans-62" x="126.164062"/>
      <use xlink:href="#DejaVuSans-75" x="189.640625"/>
      <use xlink:href="#DejaVuSans-73" x="253.019531"/>
      <use xlink:href="#DejaVuSans-74" x="305.119141"/>
      <use xlink:href="#DejaVuSans-20" x="344.328125"/>
      <use xlink:href="#DejaVuSans-56" x="376.115234"/>
      <use xlink:href="#DejaVuSans-61" x="436.773438"/>
      <use xlink:href="#DejaVuSans-6c" x="498.052734"/>
      <use xlink:href="#DejaVuSans-69" x="525.835938"/>
      <use xlink:href="#DejaVuSans-64" x="553.619141"/>
      <use xlink:href="#DejaVuSans-61" x="617.095703"/>
      <use xlink:href="#DejaVuSans-74" x="678.375"/>
      <use xlink:href="#DejaVuSans-69" x="717.583984"/>
      <use xlink:href="#DejaVuSans-6f" x="745.367188"/>
      <use xlink:href="#DejaVuSans-6e" x="806.548828"/>
      <use xlink:href="#DejaVuSans-20" x="869.927734"/>
      <use xlink:href="#DejaVuSans-41" x="901.714844"/>
      <use xlink:href="#DejaVuSans-63" x="968.373047"/>
      <use xlink:href="#DejaVuSans-63" x="1023.353516"/>
      <use xlink:href="#DejaVuSans-75" x="1078.333984"/>
      <use xlink:href="#DejaVuSans-72" x="1141.712891"/>
      <use xlink:href="#DejaVuSans-61" x="1182.826172"/>
      <use xlink:href="#DejaVuSans-63" x="1244.105469"/>
      <use xlink:href="#DejaVuSans-79" x="1299.085938"/>
     </g>
    </g>
    <g id="line2d_26">
     <path d="M 216.18875 278.326188 
L 226.18875 278.326188 
L 236.18875 278.326188 
" style="fill: none; stroke: #d62728; stroke-width: 1.5; stroke-linecap: square"/>
    </g>
    <g id="text_24">
     <!-- SWA Validation Accuracy -->
     <g transform="translate(244.18875 281.826188) scale(0.1 -0.1)">
      <defs>
       <path id="DejaVuSans-53" d="M 3425 4513 
L 3425 3897 
Q 3066 4069 2747 4153 
Q 2428 4238 2131 4238 
Q 1616 4238 1336 4038 
Q 1056 3838 1056 3469 
Q 1056 3159 1242 3001 
Q 1428 2844 1947 2747 
L 2328 2669 
Q 3034 2534 3370 2195 
Q 3706 1856 3706 1288 
Q 3706 609 3251 259 
Q 2797 -91 1919 -91 
Q 1588 -91 1214 -16 
Q 841 59 441 206 
L 441 856 
Q 825 641 1194 531 
Q 1563 422 1919 422 
Q 2459 422 2753 634 
Q 3047 847 3047 1241 
Q 3047 1584 2836 1778 
Q 2625 1972 2144 2069 
L 1759 2144 
Q 1053 2284 737 2584 
Q 422 2884 422 3419 
Q 422 4038 858 4394 
Q 1294 4750 2059 4750 
Q 2388 4750 2728 4690 
Q 3069 4631 3425 4513 
z
" transform="scale(0.015625)"/>
       <path id="DejaVuSans-57" d="M 213 4666 
L 850 4666 
L 1831 722 
L 2809 4666 
L 3519 4666 
L 4500 722 
L 5478 4666 
L 6119 4666 
L 4947 0 
L 4153 0 
L 3169 4050 
L 2175 0 
L 1381 0 
L 213 4666 
z
" transform="scale(0.015625)"/>
      </defs>
      <use xlink:href="#DejaVuSans-53"/>
      <use xlink:href="#DejaVuSans-57" x="63.476562"/>
      <use xlink:href="#DejaVuSans-41" x="156.853516"/>
      <use xlink:href="#DejaVuSans-20" x="225.261719"/>
      <use xlink:href="#DejaVuSans-56" x="257.048828"/>
      <use xlink:href="#DejaVuSans-61" x="317.707031"/>
      <use xlink:href="#DejaVuSans-6c" x="378.986328"/>
      <use xlink:href="#DejaVuSans-69" x="406.769531"/>
      <use xlink:href="#DejaVuSans-64" x="434.552734"/>
      <use xlink:href="#DejaVuSans-61" x="498.029297"/>
      <use xlink:href="#DejaVuSans-74" x="559.308594"/>
      <use xlink:href="#DejaVuSans-69" x="598.517578"/>
      <use xlink:href="#DejaVuSans-6f" x="626.300781"/>
      <use xlink:href="#DejaVuSans-6e" x="687.482422"/>
      <use xlink:href="#DejaVuSans-20" x="750.861328"/>
      <use xlink:href="#DejaVuSans-41" x="782.648438"/>
      <use xlink:href="#DejaVuSans-63" x="849.306641"/>
      <use xlink:href="#DejaVuSans-63" x="904.287109"/>
      <use xlink:href="#DejaVuSans-75" x="959.267578"/>
      <use xlink:href="#DejaVuSans-72" x="1022.646484"/>
      <use xlink:href="#DejaVuSans-61" x="1063.759766"/>
      <use xlink:href="#DejaVuSans-63" x="1125.039062"/>
      <use xlink:href="#DejaVuSans-79" x="1180.019531"/>
     </g>
    </g>
    <g id="line2d_27">
     <path d="M 216.18875 293.004312 
L 226.18875 293.004312 
L 236.18875 293.004312 
" style="fill: none; stroke: #9467bd; stroke-width: 1.5; stroke-linecap: square"/>
    </g>
    <g id="text_25">
     <!-- SWA Robust Validation Accuracy -->
     <g transform="translate(244.18875 296.504312) scale(0.1 -0.1)">
      <use xlink:href="#DejaVuSans-53"/>
      <use xlink:href="#DejaVuSans-57" x="63.476562"/>
      <use xlink:href="#DejaVuSans-41" x="156.853516"/>
      <use xlink:href="#DejaVuSans-20" x="225.261719"/>
      <use xlink:href="#DejaVuSans-52" x="257.048828"/>
      <use xlink:href="#DejaVuSans-6f" x="322.03125"/>
      <use xlink:href="#DejaVuSans-62" x="383.212891"/>
      <use xlink:href="#DejaVuSans-75" x="446.689453"/>
      <use xlink:href="#DejaVuSans-73" x="510.068359"/>
      <use xlink:href="#DejaVuSans-74" x="562.167969"/>
      <use xlink:href="#DejaVuSans-20" x="601.376953"/>
      <use xlink:href="#DejaVuSans-56" x="633.164062"/>
      <use xlink:href="#DejaVuSans-61" x="693.822266"/>
      <use xlink:href="#DejaVuSans-6c" x="755.101562"/>
      <use xlink:href="#DejaVuSans-69" x="782.884766"/>
      <use xlink:href="#DejaVuSans-64" x="810.667969"/>
      <use xlink:href="#DejaVuSans-61" x="874.144531"/>
      <use xlink:href="#DejaVuSans-74" x="935.423828"/>
      <use xlink:href="#DejaVuSans-69" x="974.632812"/>
      <use xlink:href="#DejaVuSans-6f" x="1002.416016"/>
      <use xlink:href="#DejaVuSans-6e" x="1063.597656"/>
      <use xlink:href="#DejaVuSans-20" x="1126.976562"/>
      <use xlink:href="#DejaVuSans-41" x="1158.763672"/>
      <use xlink:href="#DejaVuSans-63" x="1225.421875"/>
      <use xlink:href="#DejaVuSans-63" x="1280.402344"/>
      <use xlink:href="#DejaVuSans-75" x="1335.382812"/>
      <use xlink:href="#DejaVuSans-72" x="1398.761719"/>
      <use xlink:href="#DejaVuSans-61" x="1439.875"/>
      <use xlink:href="#DejaVuSans-63" x="1501.154297"/>
      <use xlink:href="#DejaVuSans-79" x="1556.134766"/>
     </g>
    </g>
   </g>
  </g>
 </g>
 <defs>
  <clipPath id="paca7298223">
   <rect x="57.6" y="41.472" width="357.12" height="266.112"/>
  </clipPath>
 </defs>
</svg>
