<?xml version="1.0" encoding="utf-8" standalone="no"?>
<!DOCTYPE svg PUBLIC "-//W3C//DTD SVG 1.1//EN"
  "http://www.w3.org/Graphics/SVG/1.1/DTD/svg11.dtd">
<svg xmlns:xlink="http://www.w3.org/1999/xlink" width="460.8pt" height="345.6pt" viewBox="0 0 460.8 345.6" xmlns="http://www.w3.org/2000/svg" version="1.1">
 <metadata>
  <rdf:RDF xmlns:dc="http://purl.org/dc/elements/1.1/" xmlns:cc="http://creativecommons.org/ns#" xmlns:rdf="http://www.w3.org/1999/02/22-rdf-syntax-ns#">
   <cc:Work>
    <dc:type rdf:resource="http://purl.org/dc/dcmitype/StillImage"/>
    <dc:date>2025-08-01T21:50:57.279116</dc:date>
    <dc:format>image/svg+xml</dc:format>
    <dc:creator>
     <cc:Agent>
      <dc:title>Matplotlib v3.9.1, https://matplotlib.org/</dc:title>
     </cc:Agent>
    </dc:creator>
   </cc:Work>
  </rdf:RDF>
 </metadata>
 <defs>
  <style type="text/css">*{stroke-linejoin: round; stroke-linecap: butt}</style>
 </defs>
 <g id="figure_1">
  <g id="patch_1">
   <path d="M 0 345.6 
L 460.8 345.6 
L 460.8 0 
L 0 0 
z
" style="fill: #ffffff"/>
  </g>
  <g id="axes_1">
   <g id="patch_2">
    <path d="M 57.6 307.584 
L 414.72 307.584 
L 414.72 41.472 
L 57.6 41.472 
z
" style="fill: #ffffff"/>
   </g>
   <g id="matplotlib.axis_1">
    <g id="xtick_1">
     <g id="line2d_1">
      <defs>
       <path id="me33a60e248" d="M 0 0 
L 0 3.5 
" style="stroke: #000000; stroke-width: 0.8"/>
      </defs>
      <g>
       <use xlink:href="#me33a60e248" x="73.832727" y="307.584" style="stroke: #000000; stroke-width: 0.8"/>
      </g>
     </g>
     <g id="text_1">
      <!-- 1 -->
      <g transform="translate(70.651477 322.182437) scale(0.1 -0.1)">
       <defs>
        <path id="DejaVuSans-31" d="M 794 531 
L 1825 531 
L 1825 4091 
L 703 3866 
L 703 4441 
L 1819 4666 
L 2450 4666 
L 2450 531 
L 3481 531 
L 3481 0 
L 794 0 
L 794 531 
z
" transform="scale(0.015625)"/>
       </defs>
       <use xlink:href="#DejaVuSans-31"/>
      </g>
     </g>
    </g>
    <g id="xtick_2">
     <g id="line2d_2">
      <g>
       <use xlink:href="#me33a60e248" x="109.664165" y="307.584" style="stroke: #000000; stroke-width: 0.8"/>
      </g>
     </g>
     <g id="text_2">
      <!-- 34 -->
      <g transform="translate(103.301665 322.182437) scale(0.1 -0.1)">
       <defs>
        <path id="DejaVuSans-33" d="M 2597 2516 
Q 3050 2419 3304 2112 
Q 3559 1806 3559 1356 
Q 3559 666 3084 287 
Q 2609 -91 1734 -91 
Q 1441 -91 1130 -33 
Q 819 25 488 141 
L 488 750 
Q 750 597 1062 519 
Q 1375 441 1716 441 
Q 2309 441 2620 675 
Q 2931 909 2931 1356 
Q 2931 1769 2642 2001 
Q 2353 2234 1838 2234 
L 1294 2234 
L 1294 2753 
L 1863 2753 
Q 2328 2753 2575 2939 
Q 2822 3125 2822 3475 
Q 2822 3834 2567 4026 
Q 2313 4219 1838 4219 
Q 1578 4219 1281 4162 
Q 984 4106 628 3988 
L 628 4550 
Q 988 4650 1302 4700 
Q 1616 4750 1894 4750 
Q 2613 4750 3031 4423 
Q 3450 4097 3450 3541 
Q 3450 3153 3228 2886 
Q 3006 2619 2597 2516 
z
" transform="scale(0.015625)"/>
        <path id="DejaVuSans-34" d="M 2419 4116 
L 825 1625 
L 2419 1625 
L 2419 4116 
z
M 2253 4666 
L 3047 4666 
L 3047 1625 
L 3713 1625 
L 3713 1100 
L 3047 1100 
L 3047 0 
L 2419 0 
L 2419 1100 
L 313 1100 
L 313 1709 
L 2253 4666 
z
" transform="scale(0.015625)"/>
       </defs>
       <use xlink:href="#DejaVuSans-33"/>
       <use xlink:href="#DejaVuSans-34" x="63.623047"/>
      </g>
     </g>
    </g>
    <g id="xtick_3">
     <g id="line2d_3">
      <g>
       <use xlink:href="#me33a60e248" x="145.495604" y="307.584" style="stroke: #000000; stroke-width: 0.8"/>
      </g>
     </g>
     <g id="text_3">
      <!-- 67 -->
      <g transform="translate(139.133104 322.182437) scale(0.1 -0.1)">
       <defs>
        <path id="DejaVuSans-36" d="M 2113 2584 
Q 1688 2584 1439 2293 
Q 1191 2003 1191 1497 
Q 1191 994 1439 701 
Q 1688 409 2113 409 
Q 2538 409 2786 701 
Q 3034 994 3034 1497 
Q 3034 2003 2786 2293 
Q 2538 2584 2113 2584 
z
M 3366 4563 
L 3366 3988 
Q 3128 4100 2886 4159 
Q 2644 4219 2406 4219 
Q 1781 4219 1451 3797 
Q 1122 3375 1075 2522 
Q 1259 2794 1537 2939 
Q 1816 3084 2150 3084 
Q 2853 3084 3261 2657 
Q 3669 2231 3669 1497 
Q 3669 778 3244 343 
Q 2819 -91 2113 -91 
Q 1303 -91 875 529 
Q 447 1150 447 2328 
Q 447 3434 972 4092 
Q 1497 4750 2381 4750 
Q 2619 4750 2861 4703 
Q 3103 4656 3366 4563 
z
" transform="scale(0.015625)"/>
        <path id="DejaVuSans-37" d="M 525 4666 
L 3525 4666 
L 3525 4397 
L 1831 0 
L 1172 0 
L 2766 4134 
L 525 4134 
L 525 4666 
z
" transform="scale(0.015625)"/>
       </defs>
       <use xlink:href="#DejaVuSans-36"/>
       <use xlink:href="#DejaVuSans-37" x="63.623047"/>
      </g>
     </g>
    </g>
    <g id="xtick_4">
     <g id="line2d_4">
      <g>
       <use xlink:href="#me33a60e248" x="181.327042" y="307.584" style="stroke: #000000; stroke-width: 0.8"/>
      </g>
     </g>
     <g id="text_4">
      <!-- 100 -->
      <g transform="translate(171.783292 322.182437) scale(0.1 -0.1)">
       <defs>
        <path id="DejaVuSans-30" d="M 2034 4250 
Q 1547 4250 1301 3770 
Q 1056 3291 1056 2328 
Q 1056 1369 1301 889 
Q 1547 409 2034 409 
Q 2525 409 2770 889 
Q 3016 1369 3016 2328 
Q 3016 3291 2770 3770 
Q 2525 4250 2034 4250 
z
M 2034 4750 
Q 2819 4750 3233 4129 
Q 3647 3509 3647 2328 
Q 3647 1150 3233 529 
Q 2819 -91 2034 -91 
Q 1250 -91 836 529 
Q 422 1150 422 2328 
Q 422 3509 836 4129 
Q 1250 4750 2034 4750 
z
" transform="scale(0.015625)"/>
       </defs>
       <use xlink:href="#DejaVuSans-31"/>
       <use xlink:href="#DejaVuSans-30" x="63.623047"/>
       <use xlink:href="#DejaVuSans-30" x="127.246094"/>
      </g>
     </g>
    </g>
    <g id="xtick_5">
     <g id="line2d_5">
      <g>
       <use xlink:href="#me33a60e248" x="217.15848" y="307.584" style="stroke: #000000; stroke-width: 0.8"/>
      </g>
     </g>
     <g id="text_5">
      <!-- 133 -->
      <g transform="translate(207.61473 322.182437) scale(0.1 -0.1)">
       <use xlink:href="#DejaVuSans-31"/>
       <use xlink:href="#DejaVuSans-33" x="63.623047"/>
       <use xlink:href="#DejaVuSans-33" x="127.246094"/>
      </g>
     </g>
    </g>
    <g id="xtick_6">
     <g id="line2d_6">
      <g>
       <use xlink:href="#me33a60e248" x="254.075719" y="307.584" style="stroke: #000000; stroke-width: 0.8"/>
      </g>
     </g>
     <g id="text_6">
      <!-- 167 -->
      <g transform="translate(244.531969 322.182437) scale(0.1 -0.1)">
       <use xlink:href="#DejaVuSans-31"/>
       <use xlink:href="#DejaVuSans-36" x="63.623047"/>
       <use xlink:href="#DejaVuSans-37" x="127.246094"/>
      </g>
     </g>
    </g>
    <g id="xtick_7">
     <g id="line2d_7">
      <g>
       <use xlink:href="#me33a60e248" x="289.907157" y="307.584" style="stroke: #000000; stroke-width: 0.8"/>
      </g>
     </g>
     <g id="text_7">
      <!-- 200 -->
      <g transform="translate(280.363407 322.182437) scale(0.1 -0.1)">
       <defs>
        <path id="DejaVuSans-32" d="M 1228 531 
L 3431 531 
L 3431 0 
L 469 0 
L 469 531 
Q 828 903 1448 1529 
Q 2069 2156 2228 2338 
Q 2531 2678 2651 2914 
Q 2772 3150 2772 3378 
Q 2772 3750 2511 3984 
Q 2250 4219 1831 4219 
Q 1534 4219 1204 4116 
Q 875 4013 500 3803 
L 500 4441 
Q 881 4594 1212 4672 
Q 1544 4750 1819 4750 
Q 2544 4750 2975 4387 
Q 3406 4025 3406 3419 
Q 3406 3131 3298 2873 
Q 3191 2616 2906 2266 
Q 2828 2175 2409 1742 
Q 1991 1309 1228 531 
z
" transform="scale(0.015625)"/>
       </defs>
       <use xlink:href="#DejaVuSans-32"/>
       <use xlink:href="#DejaVuSans-30" x="63.623047"/>
       <use xlink:href="#DejaVuSans-30" x="127.246094"/>
      </g>
     </g>
    </g>
    <g id="xtick_8">
     <g id="line2d_8">
      <g>
       <use xlink:href="#me33a60e248" x="325.738595" y="307.584" style="stroke: #000000; stroke-width: 0.8"/>
      </g>
     </g>
     <g id="text_8">
      <!-- 233 -->
      <g transform="translate(316.194845 322.182437) scale(0.1 -0.1)">
       <use xlink:href="#DejaVuSans-32"/>
       <use xlink:href="#DejaVuSans-33" x="63.623047"/>
       <use xlink:href="#DejaVuSans-33" x="127.246094"/>
      </g>
     </g>
    </g>
    <g id="xtick_9">
     <g id="line2d_9">
      <g>
       <use xlink:href="#me33a60e248" x="361.570033" y="307.584" style="stroke: #000000; stroke-width: 0.8"/>
      </g>
     </g>
     <g id="text_9">
      <!-- 266 -->
      <g transform="translate(352.026283 322.182437) scale(0.1 -0.1)">
       <use xlink:href="#DejaVuSans-32"/>
       <use xlink:href="#DejaVuSans-36" x="63.623047"/>
       <use xlink:href="#DejaVuSans-36" x="127.246094"/>
      </g>
     </g>
    </g>
    <g id="xtick_10">
     <g id="line2d_10">
      <g>
       <use xlink:href="#me33a60e248" x="398.487273" y="307.584" style="stroke: #000000; stroke-width: 0.8"/>
      </g>
     </g>
     <g id="text_10">
      <!-- 300 -->
      <g transform="translate(388.943523 322.182437) scale(0.1 -0.1)">
       <use xlink:href="#DejaVuSans-33"/>
       <use xlink:href="#DejaVuSans-30" x="63.623047"/>
       <use xlink:href="#DejaVuSans-30" x="127.246094"/>
      </g>
     </g>
    </g>
    <g id="text_11">
     <!-- Epochs -->
     <g transform="translate(218.244375 335.860562) scale(0.1 -0.1)">
      <defs>
       <path id="DejaVuSans-45" d="M 628 4666 
L 3578 4666 
L 3578 4134 
L 1259 4134 
L 1259 2753 
L 3481 2753 
L 3481 2222 
L 1259 2222 
L 1259 531 
L 3634 531 
L 3634 0 
L 628 0 
L 628 4666 
z
" transform="scale(0.015625)"/>
       <path id="DejaVuSans-70" d="M 1159 525 
L 1159 -1331 
L 581 -1331 
L 581 3500 
L 1159 3500 
L 1159 2969 
Q 1341 3281 1617 3432 
Q 1894 3584 2278 3584 
Q 2916 3584 3314 3078 
Q 3713 2572 3713 1747 
Q 3713 922 3314 415 
Q 2916 -91 2278 -91 
Q 1894 -91 1617 61 
Q 1341 213 1159 525 
z
M 3116 1747 
Q 3116 2381 2855 2742 
Q 2594 3103 2138 3103 
Q 1681 3103 1420 2742 
Q 1159 2381 1159 1747 
Q 1159 1113 1420 752 
Q 1681 391 2138 391 
Q 2594 391 2855 752 
Q 3116 1113 3116 1747 
z
" transform="scale(0.015625)"/>
       <path id="DejaVuSans-6f" d="M 1959 3097 
Q 1497 3097 1228 2736 
Q 959 2375 959 1747 
Q 959 1119 1226 758 
Q 1494 397 1959 397 
Q 2419 397 2687 759 
Q 2956 1122 2956 1747 
Q 2956 2369 2687 2733 
Q 2419 3097 1959 3097 
z
M 1959 3584 
Q 2709 3584 3137 3096 
Q 3566 2609 3566 1747 
Q 3566 888 3137 398 
Q 2709 -91 1959 -91 
Q 1206 -91 779 398 
Q 353 888 353 1747 
Q 353 2609 779 3096 
Q 1206 3584 1959 3584 
z
" transform="scale(0.015625)"/>
       <path id="DejaVuSans-63" d="M 3122 3366 
L 3122 2828 
Q 2878 2963 2633 3030 
Q 2388 3097 2138 3097 
Q 1578 3097 1268 2742 
Q 959 2388 959 1747 
Q 959 1106 1268 751 
Q 1578 397 2138 397 
Q 2388 397 2633 464 
Q 2878 531 3122 666 
L 3122 134 
Q 2881 22 2623 -34 
Q 2366 -91 2075 -91 
Q 1284 -91 818 406 
Q 353 903 353 1747 
Q 353 2603 823 3093 
Q 1294 3584 2113 3584 
Q 2378 3584 2631 3529 
Q 2884 3475 3122 3366 
z
" transform="scale(0.015625)"/>
       <path id="DejaVuSans-68" d="M 3513 2113 
L 3513 0 
L 2938 0 
L 2938 2094 
Q 2938 2591 2744 2837 
Q 2550 3084 2163 3084 
Q 1697 3084 1428 2787 
Q 1159 2491 1159 1978 
L 1159 0 
L 581 0 
L 581 4863 
L 1159 4863 
L 1159 2956 
Q 1366 3272 1645 3428 
Q 1925 3584 2291 3584 
Q 2894 3584 3203 3211 
Q 3513 2838 3513 2113 
z
" transform="scale(0.015625)"/>
       <path id="DejaVuSans-73" d="M 2834 3397 
L 2834 2853 
Q 2591 2978 2328 3040 
Q 2066 3103 1784 3103 
Q 1356 3103 1142 2972 
Q 928 2841 928 2578 
Q 928 2378 1081 2264 
Q 1234 2150 1697 2047 
L 1894 2003 
Q 2506 1872 2764 1633 
Q 3022 1394 3022 966 
Q 3022 478 2636 193 
Q 2250 -91 1575 -91 
Q 1294 -91 989 -36 
Q 684 19 347 128 
L 347 722 
Q 666 556 975 473 
Q 1284 391 1588 391 
Q 1994 391 2212 530 
Q 2431 669 2431 922 
Q 2431 1156 2273 1281 
Q 2116 1406 1581 1522 
L 1381 1569 
Q 847 1681 609 1914 
Q 372 2147 372 2553 
Q 372 3047 722 3315 
Q 1072 3584 1716 3584 
Q 2034 3584 2315 3537 
Q 2597 3491 2834 3397 
z
" transform="scale(0.015625)"/>
      </defs>
      <use xlink:href="#DejaVuSans-45"/>
      <use xlink:href="#DejaVuSans-70" x="63.183594"/>
      <use xlink:href="#DejaVuSans-6f" x="126.660156"/>
      <use xlink:href="#DejaVuSans-63" x="187.841797"/>
      <use xlink:href="#DejaVuSans-68" x="242.822266"/>
      <use xlink:href="#DejaVuSans-73" x="306.201172"/>
     </g>
    </g>
   </g>
   <g id="matplotlib.axis_2">
    <g id="ytick_1">
     <g id="line2d_11">
      <defs>
       <path id="m01c7ee1bbe" d="M 0 0 
L -3.5 0 
" style="stroke: #000000; stroke-width: 0.8"/>
      </defs>
      <g>
       <use xlink:href="#m01c7ee1bbe" x="57.6" y="303.058451" style="stroke: #000000; stroke-width: 0.8"/>
      </g>
     </g>
     <g id="text_12">
      <!-- 0 -->
      <g transform="translate(44.2375 306.857669) scale(0.1 -0.1)">
       <use xlink:href="#DejaVuSans-30"/>
      </g>
     </g>
    </g>
    <g id="ytick_2">
     <g id="line2d_12">
      <g>
       <use xlink:href="#m01c7ee1bbe" x="57.6" y="244.258834" style="stroke: #000000; stroke-width: 0.8"/>
      </g>
     </g>
     <g id="text_13">
      <!-- 20 -->
      <g transform="translate(37.875 248.058052) scale(0.1 -0.1)">
       <use xlink:href="#DejaVuSans-32"/>
       <use xlink:href="#DejaVuSans-30" x="63.623047"/>
      </g>
     </g>
    </g>
    <g id="ytick_3">
     <g id="line2d_13">
      <g>
       <use xlink:href="#m01c7ee1bbe" x="57.6" y="185.459216" style="stroke: #000000; stroke-width: 0.8"/>
      </g>
     </g>
     <g id="text_14">
      <!-- 40 -->
      <g transform="translate(37.875 189.258435) scale(0.1 -0.1)">
       <use xlink:href="#DejaVuSans-34"/>
       <use xlink:href="#DejaVuSans-30" x="63.623047"/>
      </g>
     </g>
    </g>
    <g id="ytick_4">
     <g id="line2d_14">
      <g>
       <use xlink:href="#m01c7ee1bbe" x="57.6" y="126.659599" style="stroke: #000000; stroke-width: 0.8"/>
      </g>
     </g>
     <g id="text_15">
      <!-- 60 -->
      <g transform="translate(37.875 130.458818) scale(0.1 -0.1)">
       <use xlink:href="#DejaVuSans-36"/>
       <use xlink:href="#DejaVuSans-30" x="63.623047"/>
      </g>
     </g>
    </g>
    <g id="ytick_5">
     <g id="line2d_15">
      <g>
       <use xlink:href="#m01c7ee1bbe" x="57.6" y="67.859982" style="stroke: #000000; stroke-width: 0.8"/>
      </g>
     </g>
     <g id="text_16">
      <!-- 80 -->
      <g transform="translate(37.875 71.659201) scale(0.1 -0.1)">
       <defs>
        <path id="DejaVuSans-38" d="M 2034 2216 
Q 1584 2216 1326 1975 
Q 1069 1734 1069 1313 
Q 1069 891 1326 650 
Q 1584 409 2034 409 
Q 2484 409 2743 651 
Q 3003 894 3003 1313 
Q 3003 1734 2745 1975 
Q 2488 2216 2034 2216 
z
M 1403 2484 
Q 997 2584 770 2862 
Q 544 3141 544 3541 
Q 544 4100 942 4425 
Q 1341 4750 2034 4750 
Q 2731 4750 3128 4425 
Q 3525 4100 3525 3541 
Q 3525 3141 3298 2862 
Q 3072 2584 2669 2484 
Q 3125 2378 3379 2068 
Q 3634 1759 3634 1313 
Q 3634 634 3220 271 
Q 2806 -91 2034 -91 
Q 1263 -91 848 271 
Q 434 634 434 1313 
Q 434 1759 690 2068 
Q 947 2378 1403 2484 
z
M 1172 3481 
Q 1172 3119 1398 2916 
Q 1625 2713 2034 2713 
Q 2441 2713 2670 2916 
Q 2900 3119 2900 3481 
Q 2900 3844 2670 4047 
Q 2441 4250 2034 4250 
Q 1625 4250 1398 4047 
Q 1172 3844 1172 3481 
z
" transform="scale(0.015625)"/>
       </defs>
       <use xlink:href="#DejaVuSans-38"/>
       <use xlink:href="#DejaVuSans-30" x="63.623047"/>
      </g>
     </g>
    </g>
    <g id="text_17">
     <!-- Accuracy -->
     <g transform="translate(31.795312 197.356125) rotate(-90) scale(0.1 -0.1)">
      <defs>
       <path id="DejaVuSans-41" d="M 2188 4044 
L 1331 1722 
L 3047 1722 
L 2188 4044 
z
M 1831 4666 
L 2547 4666 
L 4325 0 
L 3669 0 
L 3244 1197 
L 1141 1197 
L 716 0 
L 50 0 
L 1831 4666 
z
" transform="scale(0.015625)"/>
       <path id="DejaVuSans-75" d="M 544 1381 
L 544 3500 
L 1119 3500 
L 1119 1403 
Q 1119 906 1312 657 
Q 1506 409 1894 409 
Q 2359 409 2629 706 
Q 2900 1003 2900 1516 
L 2900 3500 
L 3475 3500 
L 3475 0 
L 2900 0 
L 2900 538 
Q 2691 219 2414 64 
Q 2138 -91 1772 -91 
Q 1169 -91 856 284 
Q 544 659 544 1381 
z
M 1991 3584 
L 1991 3584 
z
" transform="scale(0.015625)"/>
       <path id="DejaVuSans-72" d="M 2631 2963 
Q 2534 3019 2420 3045 
Q 2306 3072 2169 3072 
Q 1681 3072 1420 2755 
Q 1159 2438 1159 1844 
L 1159 0 
L 581 0 
L 581 3500 
L 1159 3500 
L 1159 2956 
Q 1341 3275 1631 3429 
Q 1922 3584 2338 3584 
Q 2397 3584 2469 3576 
Q 2541 3569 2628 3553 
L 2631 2963 
z
" transform="scale(0.015625)"/>
       <path id="DejaVuSans-61" d="M 2194 1759 
Q 1497 1759 1228 1600 
Q 959 1441 959 1056 
Q 959 750 1161 570 
Q 1363 391 1709 391 
Q 2188 391 2477 730 
Q 2766 1069 2766 1631 
L 2766 1759 
L 2194 1759 
z
M 3341 1997 
L 3341 0 
L 2766 0 
L 2766 531 
Q 2569 213 2275 61 
Q 1981 -91 1556 -91 
Q 1019 -91 701 211 
Q 384 513 384 1019 
Q 384 1609 779 1909 
Q 1175 2209 1959 2209 
L 2766 2209 
L 2766 2266 
Q 2766 2663 2505 2880 
Q 2244 3097 1772 3097 
Q 1472 3097 1187 3025 
Q 903 2953 641 2809 
L 641 3341 
Q 956 3463 1253 3523 
Q 1550 3584 1831 3584 
Q 2591 3584 2966 3190 
Q 3341 2797 3341 1997 
z
" transform="scale(0.015625)"/>
       <path id="DejaVuSans-79" d="M 2059 -325 
Q 1816 -950 1584 -1140 
Q 1353 -1331 966 -1331 
L 506 -1331 
L 506 -850 
L 844 -850 
Q 1081 -850 1212 -737 
Q 1344 -625 1503 -206 
L 1606 56 
L 191 3500 
L 800 3500 
L 1894 763 
L 2988 3500 
L 3597 3500 
L 2059 -325 
z
" transform="scale(0.015625)"/>
      </defs>
      <use xlink:href="#DejaVuSans-41"/>
      <use xlink:href="#DejaVuSans-63" x="66.658203"/>
      <use xlink:href="#DejaVuSans-63" x="121.638672"/>
      <use xlink:href="#DejaVuSans-75" x="176.619141"/>
      <use xlink:href="#DejaVuSans-72" x="239.998047"/>
      <use xlink:href="#DejaVuSans-61" x="281.111328"/>
      <use xlink:href="#DejaVuSans-63" x="342.390625"/>
      <use xlink:href="#DejaVuSans-79" x="397.371094"/>
     </g>
    </g>
   </g>
   <g id="line2d_16">
    <path d="M 73.832727 295.488 
L 74.918528 283.9743 
L 76.00433 271.258883 
L 78.175932 251.00609 
L 79.261733 241.572426 
L 82.519137 221.069734 
L 85.77654 205.734059 
L 86.862341 200.787542 
L 87.948142 197.520488 
L 89.033943 192.654819 
L 91.205546 186.322836 
L 92.291347 183.467379 
L 93.377148 182.408986 
L 94.462949 181.596816 
L 95.54875 209.883107 
L 96.634552 207.86922 
L 97.720353 205.017439 
L 98.806154 201.00069 
L 99.891955 198.608281 
L 102.063557 192.548245 
L 104.23516 187.061506 
L 105.320961 184.823445 
L 106.406762 182.901433 
L 107.492563 179.777703 
L 108.578364 177.480843 
L 110.749967 172.119053 
L 111.835768 170.531464 
L 112.921569 167.459184 
L 115.093171 162.56044 
L 117.264773 157.433849 
L 118.350575 155.537561 
L 119.436376 152.127183 
L 120.522177 150.546944 
L 121.607978 147.570213 
L 122.693779 145.00508 
L 123.77958 142.880944 
L 124.865382 140.28641 
L 125.951183 138.268849 
L 128.122785 133.855202 
L 129.208586 132.326412 
L 130.294387 130.154501 
L 132.46599 126.843348 
L 135.723393 123.741668 
L 136.809194 123.613044 
L 137.894995 123.932767 
L 138.980797 166.246441 
L 140.066598 168.194179 
L 141.152399 168.388952 
L 142.2382 166.922637 
L 143.324001 165.882619 
L 144.409802 164.431003 
L 145.495604 163.42406 
L 146.581405 161.913645 
L 147.667206 160.855252 
L 148.753007 158.969989 
L 149.838808 158.227644 
L 150.924609 156.386481 
L 152.01041 155.272963 
L 153.096212 153.960996 
L 154.182013 152.884228 
L 155.267814 150.877691 
L 156.353615 150.524894 
L 157.439416 149.672299 
L 158.525217 148.268458 
L 159.611019 146.155347 
L 160.69682 144.905855 
L 162.868422 143.505689 
L 163.954223 141.943825 
L 165.040024 140.102662 
L 166.125825 139.389716 
L 167.211627 137.357454 
L 168.297428 136.203512 
L 169.383229 135.516291 
L 170.46903 134.013226 
L 171.554831 132.105914 
L 172.640632 131.029146 
L 173.726434 131.19452 
L 174.812235 128.526487 
L 175.898036 126.387651 
L 176.983837 125.898879 
L 178.069638 124.325989 
L 179.155439 122.282703 
L 180.24124 121.492583 
L 181.327042 119.070774 
L 182.412843 118.188779 
L 183.498644 116.777588 
L 184.584445 114.443979 
L 185.670246 113.708983 
L 186.756047 112.261043 
L 188.92765 109.027064 
L 190.013451 107.924571 
L 191.099252 105.638736 
L 192.185053 104.668542 
L 193.270854 102.73918 
L 194.356656 101.048691 
L 195.442457 99.784499 
L 196.528258 98.307159 
L 197.614059 97.090742 
L 198.69986 94.808582 
L 200.871462 92.809395 
L 201.957264 91.677502 
L 204.128866 88.178925 
L 205.214667 86.084188 
L 206.300468 85.12502 
L 207.386269 83.934327 
L 208.472071 83.353681 
L 209.557872 82.229138 
L 210.643673 80.167477 
L 211.729474 79.68238 
L 212.815275 78.89961 
L 213.901076 78.763636 
L 214.986877 77.650118 
L 216.072679 76.856323 
L 217.15848 76.848973 
L 218.244281 74.849786 
L 219.330082 75.397358 
L 220.415883 74.522714 
L 221.501684 74.36469 
L 222.587486 74.695437 
L 223.673287 74.805687 
L 224.759088 73.975142 
L 225.844889 136.978932 
L 226.93069 142.914018 
L 228.016491 143.292541 
L 229.102292 142.792744 
L 230.188094 141.010381 
L 231.273895 141.094905 
L 232.359696 140.209236 
L 233.445497 139.103068 
L 234.531298 139.459541 
L 235.617099 137.798452 
L 236.702901 137.721277 
L 237.788702 137.239855 
L 238.874503 136.288036 
L 239.960304 134.263125 
L 241.046105 134.354999 
L 242.131906 134.674722 
L 243.217708 133.546504 
L 244.303509 131.85234 
L 245.38931 132.230863 
L 246.475111 131.102645 
L 247.560912 130.536699 
L 248.646713 129.448906 
L 249.732514 128.710236 
L 250.818316 128.80946 
L 251.904117 127.945841 
L 252.989918 126.931547 
L 255.16152 126.005453 
L 256.247321 124.638362 
L 257.333123 124.888261 
L 258.418924 124.93971 
L 259.504725 123.414595 
L 260.590526 123.058123 
L 261.676327 122.576701 
L 262.762128 121.352934 
L 263.847929 121.801281 
L 264.933731 120.474614 
L 266.019532 119.519121 
L 267.105333 119.68082 
L 268.191134 119.085473 
L 269.276935 118.677551 
L 270.362736 117.549333 
L 272.534339 116.942962 
L 273.62014 115.869869 
L 274.705941 115.461947 
L 275.791742 114.355779 
L 276.877543 114.23818 
L 277.963344 113.234912 
L 279.049146 112.67999 
L 280.134947 112.433767 
L 281.220748 111.463573 
L 282.306549 110.846177 
L 283.39235 110.588929 
L 284.478151 109.68856 
L 285.563953 109.082189 
L 286.649754 108.306769 
L 287.735555 108.214894 
L 289.907157 106.884553 
L 290.992958 105.918034 
L 292.07876 105.601986 
L 293.164561 103.981322 
L 294.250362 104.087896 
L 295.336163 103.52195 
L 297.507765 101.780011 
L 298.593566 101.412514 
L 299.679368 100.254896 
L 300.765169 99.758774 
L 301.85097 98.365958 
L 302.936771 97.917611 
L 304.022572 97.597888 
L 306.194175 95.771425 
L 307.279976 95.786125 
L 308.365777 94.301435 
L 309.451578 94.279385 
L 310.537379 92.423522 
L 311.62318 91.662802 
L 312.708981 91.607677 
L 313.794783 91.21078 
L 314.880584 89.421067 
L 315.966385 89.498241 
L 317.052186 88.528047 
L 319.223788 87.205056 
L 320.30959 85.85634 
L 321.395391 84.691372 
L 322.481192 84.915546 
L 324.652794 83.136857 
L 325.738595 81.777116 
L 326.824396 81.582343 
L 327.910198 80.380625 
L 328.995999 79.509656 
L 330.0818 78.385113 
L 331.167601 77.764042 
L 332.253402 77.874292 
L 334.425005 74.960036 
L 335.510806 74.952686 
L 336.596607 73.699519 
L 337.682408 73.166647 
L 338.768209 72.255253 
L 339.85401 70.954312 
L 340.939811 70.366316 
L 342.025613 70.145817 
L 344.197215 68.738301 
L 345.283016 67.904082 
L 346.368817 66.897138 
L 347.454618 65.677046 
L 348.54042 65.482272 
L 349.626221 65.041275 
L 353.969425 61.454499 
L 355.055227 60.800353 
L 356.141028 59.664785 
L 358.31263 58.716641 
L 359.398431 57.941222 
L 360.484232 57.871397 
L 362.655835 56.364657 
L 363.741636 55.291564 
L 364.827437 54.420594 
L 365.913238 54.516144 
L 366.999039 53.568 
L 368.08484 55.273189 
L 369.170642 56.302182 
L 372.428045 63.218487 
L 373.513846 63.181737 
L 374.599647 63.784433 
L 375.685448 63.50881 
L 376.77125 63.824858 
L 377.857051 63.762384 
L 378.942852 64.218081 
L 380.028653 63.942457 
L 381.114454 64.089457 
L 382.200255 63.891008 
L 385.457659 64.471654 
L 386.54346 64.089457 
L 387.629261 64.137231 
L 388.715062 64.853852 
L 390.886665 64.273205 
L 391.972466 64.725227 
L 393.058267 64.890601 
L 394.144068 64.750952 
L 395.229869 64.945726 
L 396.31567 64.897951 
L 397.401472 64.490029 
L 398.487273 64.934701 
L 398.487273 64.934701 
" clip-path="url(#p5e84c14bb5)" style="fill: none; stroke: #1f77b4; stroke-width: 1.5; stroke-linecap: square"/>
   </g>
   <g id="line2d_17">
    <path d="M 73.832727 285.727264 
L 74.918528 265.705994 
L 76.00433 253.108176 
L 77.090131 241.950949 
L 79.261733 217.813706 
L 80.347534 219.092597 
L 81.433335 200.703017 
L 82.519137 197.630737 
L 83.604938 196.013748 
L 84.690739 190.471884 
L 85.77654 186.091312 
L 86.862341 182.989632 
L 87.948142 175.889579 
L 89.033943 178.197464 
L 90.119745 172.890798 
L 91.205546 170.421214 
L 92.291347 170.141916 
L 93.377148 169.112923 
L 94.462949 168.348528 
L 95.54875 193.588263 
L 96.634552 187.605402 
L 97.720353 188.972493 
L 98.806154 184.95942 
L 99.891955 182.783834 
L 100.977756 176.492275 
L 102.063557 175.595581 
L 103.149358 171.406108 
L 104.23516 169.083523 
L 105.320961 169.406921 
L 106.406762 171.14151 
L 107.492563 163.39466 
L 109.664165 159.499185 
L 110.749967 157.073701 
L 111.835768 155.368512 
L 112.921569 154.486518 
L 114.00737 155.133314 
L 115.093171 151.752336 
L 116.178972 149.885448 
L 117.264773 148.827055 
L 118.350575 149.870748 
L 119.436376 146.857268 
L 120.522177 146.372171 
L 121.607978 144.490583 
L 122.693779 141.462403 
L 123.77958 143.064692 
L 124.865382 141.433003 
L 125.951183 139.095718 
L 127.036984 140.212911 
L 128.122785 136.582035 
L 129.208586 137.993225 
L 130.294387 136.743733 
L 131.380189 135.935239 
L 133.551791 135.112044 
L 134.637592 134.597547 
L 135.723393 134.965045 
L 136.809194 134.421149 
L 137.894995 134.15655 
L 138.980797 160.939776 
L 140.066598 161.571872 
L 141.152399 157.573498 
L 143.324001 155.500811 
L 144.409802 155.853609 
L 145.495604 152.355032 
L 146.581405 154.14842 
L 147.667206 153.957321 
L 148.753007 153.016528 
L 149.838808 150.591043 
L 150.924609 152.075734 
L 152.01041 151.855235 
L 153.096212 151.296639 
L 154.182013 153.295826 
L 155.267814 151.12024 
L 156.353615 150.796842 
L 157.439416 149.253352 
L 158.525217 148.00386 
L 159.611019 146.945467 
L 160.69682 147.489364 
L 161.782621 142.961793 
L 162.868422 144.93158 
L 163.954223 143.064692 
L 165.040024 143.182292 
L 166.125825 142.594295 
L 167.211627 143.682088 
L 168.297428 146.298671 
L 169.383229 141.036106 
L 170.46903 141.212504 
L 171.554831 144.123085 
L 172.640632 141.682901 
L 173.726434 140.462809 
L 174.812235 138.199024 
L 175.898036 138.75762 
L 176.983837 138.434222 
L 178.069638 138.228424 
L 179.155439 140.110012 
L 180.24124 138.81642 
L 181.327042 139.683714 
L 182.412843 136.243937 
L 183.498644 136.185137 
L 184.584445 136.582035 
L 185.670246 137.537528 
L 186.756047 137.552228 
L 187.841849 135.567741 
L 188.92765 134.068351 
L 190.013451 134.920945 
L 191.099252 135.126744 
L 192.185053 132.451361 
L 193.270854 135.597141 
L 194.356656 133.259856 
L 195.442457 131.922165 
L 196.528258 132.069164 
L 197.614059 132.069164 
L 198.69986 130.319875 
L 199.785661 131.525267 
L 200.871462 130.804972 
L 201.957264 129.246782 
L 203.043065 130.128777 
L 204.128866 129.967078 
L 205.214667 128.585287 
L 206.300468 127.967891 
L 207.386269 129.61428 
L 208.472071 126.982997 
L 209.557872 128.10019 
L 210.643673 127.232895 
L 211.729474 127.600393 
L 212.815275 126.909498 
L 213.901076 127.100596 
L 214.986877 126.4538 
L 216.072679 126.688999 
L 217.15848 126.292102 
L 219.330082 126.4832 
L 220.415883 126.027503 
L 222.587486 126.850698 
L 223.673287 126.306801 
L 224.759088 126.747799 
L 225.844889 160.27828 
L 226.93069 155.927109 
L 228.016491 153.825022 
L 229.102292 154.956915 
L 230.188094 152.884228 
L 231.273895 152.075734 
L 232.359696 155.015715 
L 233.445497 150.958541 
L 234.531298 152.60493 
L 235.617099 150.943841 
L 236.702901 154.427718 
L 237.788702 150.355845 
L 238.874503 148.738855 
L 239.960304 150.003047 
L 241.046105 149.856048 
L 243.217708 148.768255 
L 244.303509 147.268865 
L 245.38931 151.09084 
L 246.475111 146.842568 
L 248.646713 150.326445 
L 249.732514 152.546131 
L 250.818316 148.09206 
L 251.904117 144.637582 
L 252.989918 148.562457 
L 254.075719 150.297045 
L 256.247321 145.857674 
L 257.333123 149.488551 
L 258.418924 145.519576 
L 259.504725 149.076953 
L 260.590526 142.417897 
L 261.676327 147.489364 
L 262.762128 147.048366 
L 263.847929 153.339925 
L 264.933731 144.799281 
L 266.019532 146.210472 
L 267.105333 145.725375 
L 268.191134 149.56205 
L 269.276935 148.929954 
L 270.362736 146.416271 
L 271.448538 147.562863 
L 272.534339 149.929548 
L 273.62014 146.092873 
L 274.705941 147.915661 
L 275.791742 145.372577 
L 276.877543 141.874 
L 277.963344 144.549383 
L 279.049146 142.432596 
L 280.134947 143.814387 
L 281.220748 144.93158 
L 282.306549 143.711488 
L 283.39235 141.565302 
L 284.478151 148.327258 
L 285.563953 144.387684 
L 286.649754 143.726188 
L 287.735555 145.122679 
L 288.821356 142.256198 
L 289.907157 144.784581 
L 290.992958 144.328884 
L 292.07876 144.637582 
L 293.164561 145.387277 
L 294.250362 145.548976 
L 295.336163 156.691504 
L 296.421964 142.800094 
L 297.507765 143.843787 
L 298.593566 142.476696 
L 299.679368 144.843381 
L 300.765169 143.123492 
L 301.85097 144.270084 
L 302.936771 142.109199 
L 304.022572 143.711488 
L 305.108373 140.40401 
L 306.194175 140.639208 
L 307.279976 143.108792 
L 308.365777 144.387684 
L 309.451578 141.991599 
L 310.537379 140.536309 
L 311.62318 141.109605 
L 312.708981 143.902587 
L 313.794783 140.271711 
L 314.880584 140.40401 
L 315.966385 138.728221 
L 317.052186 138.74292 
L 318.137987 143.270491 
L 319.223788 142.755994 
L 320.30959 139.992412 
L 321.395391 141.050805 
L 322.481192 137.919726 
L 323.566993 141.756401 
L 324.652794 140.992006 
L 325.738595 137.934426 
L 326.824396 136.626134 
L 327.910198 137.375829 
L 328.995999 139.389716 
L 330.0818 139.022219 
L 331.167601 136.920132 
L 332.253402 137.375829 
L 333.339203 136.684934 
L 334.425005 137.978525 
L 335.510806 137.846226 
L 336.596607 139.198618 
L 337.682408 136.229237 
L 339.85401 137.993225 
L 340.939811 136.920132 
L 342.025613 135.082644 
L 343.111414 137.787427 
L 345.283016 136.758433 
L 346.368817 135.067944 
L 347.454618 136.729034 
L 348.54042 135.170844 
L 349.626221 134.068351 
L 350.712022 133.994851 
L 351.797823 135.508942 
L 352.883624 134.920945 
L 353.969425 134.906245 
L 355.055227 134.024251 
L 356.141028 134.391749 
L 357.226829 133.789053 
L 358.31263 134.700447 
L 359.398431 134.097751 
L 360.484232 135.097344 
L 361.570033 132.965858 
L 362.655835 132.848259 
L 363.741636 131.334169 
L 364.827437 132.62776 
L 365.913238 132.877659 
L 366.999039 129.761279 
L 368.08484 132.774759 
L 369.170642 134.112451 
L 370.256443 134.362349 
L 371.342244 137.831526 
L 372.428045 137.743327 
L 373.513846 137.052431 
L 374.599647 138.78702 
L 375.685448 136.978932 
L 376.77125 138.199024 
L 377.857051 137.037732 
L 378.942852 137.155331 
L 380.028653 136.302736 
L 381.114454 136.126338 
L 382.200255 134.700447 
L 383.286057 137.743327 
L 384.371858 137.419929 
L 385.457659 137.361129 
L 386.54346 138.713521 
L 387.629261 138.125524 
L 388.715062 138.419523 
L 389.800863 137.023032 
L 390.886665 136.611434 
L 393.058267 138.507722 
L 394.144068 138.610621 
L 395.229869 135.75884 
L 396.31567 137.949126 
L 397.401472 137.552228 
L 398.487273 137.669827 
L 398.487273 137.669827 
" clip-path="url(#p5e84c14bb5)" style="fill: none; stroke: #ff7f0e; stroke-width: 1.5; stroke-linecap: square"/>
   </g>
   <g id="line2d_18">
    <path d="M 73.832727 290.284741 
L 74.918528 282.07307 
L 76.00433 270.82004 
L 77.090131 260.986311 
L 78.175932 258.04633 
L 79.261733 248.618115 
L 80.347534 253.382912 
L 81.433335 239.494037 
L 82.519137 235.54027 
L 83.604938 241.52161 
L 84.690739 231.992017 
L 85.77654 231.687881 
L 86.862341 231.78926 
L 87.948142 222.969317 
L 89.033943 227.632735 
L 90.119745 222.158288 
L 91.205546 219.522443 
L 92.291347 221.043123 
L 93.377148 220.333472 
L 94.462949 220.029336 
L 95.54875 237.567843 
L 96.634552 231.586502 
L 97.720353 233.005803 
L 98.806154 227.125842 
L 99.891955 228.139628 
L 100.977756 226.416191 
L 102.063557 220.029336 
L 103.149358 221.24588 
L 104.23516 218.711414 
L 105.320961 222.969317 
L 106.406762 222.259666 
L 107.492563 216.987977 
L 108.578364 213.338345 
L 109.664165 214.757646 
L 110.749967 208.877685 
L 111.835768 207.965277 
L 112.921569 210.296986 
L 114.00737 206.647354 
L 115.093171 211.006636 
L 116.178972 203.808752 
L 117.264773 203.403237 
L 118.350575 209.688714 
L 119.436376 204.112888 
L 120.522177 201.375664 
L 121.607978 201.578422 
L 122.693779 201.477043 
L 123.77958 201.882558 
L 125.951183 198.131548 
L 127.036984 199.348091 
L 128.122785 194.684674 
L 129.208586 199.550849 
L 131.380189 194.583295 
L 132.46599 194.786052 
L 133.551791 194.786052 
L 134.637592 195.901217 
L 135.723393 195.901217 
L 136.809194 194.887431 
L 137.894995 195.901217 
L 138.980797 213.135588 
L 140.066598 212.121801 
L 141.152399 209.99285 
L 142.2382 213.541102 
L 143.324001 215.872811 
L 144.409802 208.47217 
L 146.581405 205.836325 
L 147.667206 213.845238 
L 148.753007 213.034209 
L 149.838808 206.24184 
L 150.924609 206.444597 
L 152.01041 209.080442 
L 153.096212 206.748733 
L 154.182013 209.384578 
L 156.353615 205.734946 
L 157.439416 207.357005 
L 158.525217 207.762519 
L 159.611019 206.850112 
L 160.69682 207.357005 
L 161.782621 205.228053 
L 162.868422 201.6798 
L 165.040024 201.6798 
L 166.125825 204.112888 
L 167.211627 201.274286 
L 168.297428 200.666014 
L 169.383229 196.509489 
L 170.46903 201.882558 
L 171.554831 201.375664 
L 172.640632 197.523276 
L 173.726434 196.813625 
L 174.812235 201.071528 
L 175.898036 197.624654 
L 176.983837 198.942577 
L 178.069638 199.753606 
L 179.155439 198.537062 
L 180.24124 199.043955 
L 181.327042 196.712247 
L 182.412843 193.772266 
L 183.498644 192.251586 
L 184.584445 196.002596 
L 185.670246 194.887431 
L 186.756047 191.744693 
L 187.841849 192.352965 
L 188.92765 190.325392 
L 190.013451 193.873644 
L 191.099252 193.569508 
L 192.185053 193.569508 
L 193.270854 192.048829 
L 194.356656 194.684674 
L 195.442457 188.19644 
L 196.528258 189.210226 
L 197.614059 188.500576 
L 198.69986 186.168867 
L 199.785661 188.804712 
L 200.871462 184.344051 
L 201.957264 187.486789 
L 203.043065 185.96611 
L 204.128866 185.459216 
L 205.214667 185.96611 
L 206.300468 184.242673 
L 207.386269 186.574381 
L 208.472071 187.182653 
L 209.557872 186.067488 
L 210.643673 186.067488 
L 211.729474 185.763352 
L 212.815275 185.96611 
L 213.901076 183.634401 
L 214.986877 184.648187 
L 216.072679 184.242673 
L 217.15848 185.661974 
L 218.244281 182.823371 
L 219.330082 184.546808 
L 220.415883 184.039915 
L 221.501684 183.837158 
L 222.587486 183.837158 
L 223.673287 183.431643 
L 224.759088 183.330265 
L 225.844889 220.840365 
L 226.93069 209.587335 
L 229.102292 210.094228 
L 230.188094 206.95149 
L 231.273895 207.154248 
L 232.359696 208.168034 
L 233.445497 206.95149 
L 234.531298 206.140461 
L 235.617099 201.882558 
L 236.702901 207.965277 
L 237.788702 209.891471 
L 238.874503 206.647354 
L 239.960304 209.587335 
L 241.046105 207.154248 
L 242.131906 206.95149 
L 243.217708 205.937704 
L 245.38931 204.72116 
L 246.475111 201.983936 
L 247.560912 206.140461 
L 248.646713 208.877685 
L 249.732514 209.99285 
L 250.818316 206.95149 
L 251.904117 200.564635 
L 252.989918 207.965277 
L 254.075719 208.066655 
L 256.247321 204.417024 
L 257.333123 211.716287 
L 258.418924 203.20048 
L 259.504725 202.693587 
L 260.590526 199.550849 
L 261.676327 207.661141 
L 262.762128 203.099101 
L 263.847929 214.250753 
L 264.933731 202.693587 
L 266.019532 207.052869 
L 267.105333 200.057742 
L 268.191134 205.633568 
L 269.276935 205.329432 
L 270.362736 209.485956 
L 271.448538 203.605995 
L 272.534339 204.315645 
L 273.62014 205.734946 
L 274.705941 203.707373 
L 275.791742 200.767393 
L 276.877543 198.942577 
L 277.963344 197.523276 
L 279.049146 199.652227 
L 280.134947 201.172907 
L 281.220748 201.983936 
L 282.306549 198.030169 
L 283.39235 199.246713 
L 284.478151 205.633568 
L 285.563953 198.638441 
L 286.649754 197.624654 
L 287.735555 201.578422 
L 288.821356 200.564635 
L 289.907157 205.025296 
L 290.992958 200.868771 
L 292.07876 204.417024 
L 293.164561 200.260499 
L 294.250362 201.172907 
L 295.336163 207.762519 
L 296.421964 200.868771 
L 297.507765 200.868771 
L 298.593566 202.693587 
L 299.679368 199.44947 
L 300.765169 206.850112 
L 301.85097 201.983936 
L 302.936771 199.753606 
L 304.022572 199.854985 
L 305.108373 197.726033 
L 306.194175 197.320518 
L 307.279976 200.463257 
L 308.365777 202.085315 
L 309.451578 197.421897 
L 310.537379 194.684674 
L 311.62318 195.69846 
L 312.708981 198.435684 
L 313.794783 196.813625 
L 314.880584 199.854985 
L 315.966385 194.786052 
L 317.052186 195.191567 
L 318.137987 197.726033 
L 319.223788 198.131548 
L 320.30959 198.232926 
L 321.395391 195.901217 
L 322.481192 192.454343 
L 323.566993 200.361878 
L 324.652794 197.320518 
L 326.824396 190.122634 
L 327.910198 195.597081 
L 328.995999 193.569508 
L 330.0818 189.818498 
L 331.167601 193.062615 
L 332.253402 198.537062 
L 333.339203 191.744693 
L 334.425005 196.712247 
L 335.510806 194.988809 
L 336.596607 194.17778 
L 337.682408 192.251586 
L 338.768209 192.454343 
L 339.85401 191.643314 
L 340.939811 193.163994 
L 342.025613 190.224013 
L 343.111414 191.440557 
L 344.197215 193.46813 
L 345.283016 191.541935 
L 346.368817 190.528149 
L 347.454618 190.629527 
L 348.54042 189.818498 
L 349.626221 187.993683 
L 350.712022 191.744693 
L 351.797823 191.846071 
L 352.883624 189.71712 
L 353.969425 188.095061 
L 356.141028 190.629527 
L 357.226829 190.832285 
L 358.31263 192.454343 
L 359.398431 187.892304 
L 360.484232 188.90609 
L 361.570033 186.473003 
L 362.655835 187.790925 
L 363.741636 183.634401 
L 364.827437 186.979896 
L 365.913238 186.473003 
L 366.999039 185.763352 
L 368.08484 191.643314 
L 369.170642 189.007469 
L 370.256443 187.689547 
L 372.428045 192.859858 
L 373.513846 191.94745 
L 374.599647 195.69846 
L 375.685448 189.615741 
L 376.77125 192.048829 
L 377.857051 192.352965 
L 378.942852 191.541935 
L 380.028653 189.615741 
L 381.114454 191.237799 
L 382.200255 190.933663 
L 383.286057 194.583295 
L 384.371858 192.859858 
L 385.457659 190.325392 
L 386.54346 195.495703 
L 387.629261 194.583295 
L 388.715062 193.366751 
L 389.800863 191.744693 
L 390.886665 191.643314 
L 391.972466 189.514362 
L 393.058267 195.394324 
L 394.144068 194.684674 
L 395.229869 192.657101 
L 396.31567 195.394324 
L 397.401472 197.624654 
L 398.487273 192.454343 
L 398.487273 192.454343 
" clip-path="url(#p5e84c14bb5)" style="fill: none; stroke: #2ca02c; stroke-width: 1.5; stroke-linecap: square"/>
   </g>
   <g id="line2d_19">
    <path d="M 368.08484 132.568961 
L 369.170642 136.934832 
L 370.256443 139.095718 
L 371.342244 140.874407 
L 373.513846 139.654315 
L 374.599647 147.018967 
L 375.685448 144.97568 
L 376.77125 145.078579 
L 377.857051 146.107573 
L 378.942852 147.695162 
L 380.028653 149.929548 
L 381.114454 147.548163 
L 382.200255 147.298265 
L 383.286057 149.121053 
L 384.371858 147.268865 
L 385.457659 155.824209 
L 386.54346 154.574717 
L 387.629261 156.515105 
L 388.715062 156.985502 
L 389.800863 154.427718 
L 390.886665 158.381993 
L 391.972466 158.76419 
L 393.058267 154.854016 
L 394.144068 160.572278 
L 395.229869 164.379554 
L 396.31567 161.042675 
L 397.401472 166.231742 
L 398.487273 166.760938 
L 398.487273 166.760938 
" clip-path="url(#p5e84c14bb5)" style="fill: none; stroke: #d62728; stroke-width: 1.5; stroke-linecap: square"/>
   </g>
   <g id="line2d_20">
    <path d="M 368.08484 189.007469 
L 369.170642 190.730906 
L 371.342244 196.610868 
L 372.428045 192.352965 
L 373.513846 193.670887 
L 374.599647 199.753606 
L 376.77125 199.246713 
L 377.857051 200.260499 
L 378.942852 202.896344 
L 380.028653 203.20048 
L 381.114454 207.661141 
L 382.200255 200.260499 
L 383.286057 203.099101 
L 384.371858 203.910131 
L 385.457659 209.384578 
L 386.54346 208.573549 
L 387.629261 210.398364 
L 388.715062 210.499743 
L 389.800863 204.72116 
L 390.886665 213.439724 
L 391.972466 207.965277 
L 393.058267 209.181821 
L 394.144068 214.656268 
L 395.229869 213.642481 
L 396.31567 213.236967 
L 397.401472 214.960404 
L 398.487273 218.305899 
L 398.487273 218.305899 
" clip-path="url(#p5e84c14bb5)" style="fill: none; stroke: #9467bd; stroke-width: 1.5; stroke-linecap: square"/>
   </g>
   <g id="patch_3">
    <path d="M 57.6 307.584 
L 57.6 41.472 
" style="fill: none; stroke: #000000; stroke-width: 0.8; stroke-linejoin: miter; stroke-linecap: square"/>
   </g>
   <g id="patch_4">
    <path d="M 414.72 307.584 
L 414.72 41.472 
" style="fill: none; stroke: #000000; stroke-width: 0.8; stroke-linejoin: miter; stroke-linecap: square"/>
   </g>
   <g id="patch_5">
    <path d="M 57.6 307.584 
L 414.72 307.584 
" style="fill: none; stroke: #000000; stroke-width: 0.8; stroke-linejoin: miter; stroke-linecap: square"/>
   </g>
   <g id="patch_6">
    <path d="M 57.6 41.472 
L 414.72 41.472 
" style="fill: none; stroke: #000000; stroke-width: 0.8; stroke-linejoin: miter; stroke-linecap: square"/>
   </g>
   <g id="text_18">
    <!-- Learning Curves -->
    <g transform="translate(187.37625 35.472) scale(0.12 -0.12)">
     <defs>
      <path id="DejaVuSans-4c" d="M 628 4666 
L 1259 4666 
L 1259 531 
L 3531 531 
L 3531 0 
L 628 0 
L 628 4666 
z
" transform="scale(0.015625)"/>
      <path id="DejaVuSans-65" d="M 3597 1894 
L 3597 1613 
L 953 1613 
Q 991 1019 1311 708 
Q 1631 397 2203 397 
Q 2534 397 2845 478 
Q 3156 559 3463 722 
L 3463 178 
Q 3153 47 2828 -22 
Q 2503 -91 2169 -91 
Q 1331 -91 842 396 
Q 353 884 353 1716 
Q 353 2575 817 3079 
Q 1281 3584 2069 3584 
Q 2775 3584 3186 3129 
Q 3597 2675 3597 1894 
z
M 3022 2063 
Q 3016 2534 2758 2815 
Q 2500 3097 2075 3097 
Q 1594 3097 1305 2825 
Q 1016 2553 972 2059 
L 3022 2063 
z
" transform="scale(0.015625)"/>
      <path id="DejaVuSans-6e" d="M 3513 2113 
L 3513 0 
L 2938 0 
L 2938 2094 
Q 2938 2591 2744 2837 
Q 2550 3084 2163 3084 
Q 1697 3084 1428 2787 
Q 1159 2491 1159 1978 
L 1159 0 
L 581 0 
L 581 3500 
L 1159 3500 
L 1159 2956 
Q 1366 3272 1645 3428 
Q 1925 3584 2291 3584 
Q 2894 3584 3203 3211 
Q 3513 2838 3513 2113 
z
" transform="scale(0.015625)"/>
      <path id="DejaVuSans-69" d="M 603 3500 
L 1178 3500 
L 1178 0 
L 603 0 
L 603 3500 
z
M 603 4863 
L 1178 4863 
L 1178 4134 
L 603 4134 
L 603 4863 
z
" transform="scale(0.015625)"/>
      <path id="DejaVuSans-67" d="M 2906 1791 
Q 2906 2416 2648 2759 
Q 2391 3103 1925 3103 
Q 1463 3103 1205 2759 
Q 947 2416 947 1791 
Q 947 1169 1205 825 
Q 1463 481 1925 481 
Q 2391 481 2648 825 
Q 2906 1169 2906 1791 
z
M 3481 434 
Q 3481 -459 3084 -895 
Q 2688 -1331 1869 -1331 
Q 1566 -1331 1297 -1286 
Q 1028 -1241 775 -1147 
L 775 -588 
Q 1028 -725 1275 -790 
Q 1522 -856 1778 -856 
Q 2344 -856 2625 -561 
Q 2906 -266 2906 331 
L 2906 616 
Q 2728 306 2450 153 
Q 2172 0 1784 0 
Q 1141 0 747 490 
Q 353 981 353 1791 
Q 353 2603 747 3093 
Q 1141 3584 1784 3584 
Q 2172 3584 2450 3431 
Q 2728 3278 2906 2969 
L 2906 3500 
L 3481 3500 
L 3481 434 
z
" transform="scale(0.015625)"/>
      <path id="DejaVuSans-20" transform="scale(0.015625)"/>
      <path id="DejaVuSans-43" d="M 4122 4306 
L 4122 3641 
Q 3803 3938 3442 4084 
Q 3081 4231 2675 4231 
Q 1875 4231 1450 3742 
Q 1025 3253 1025 2328 
Q 1025 1406 1450 917 
Q 1875 428 2675 428 
Q 3081 428 3442 575 
Q 3803 722 4122 1019 
L 4122 359 
Q 3791 134 3420 21 
Q 3050 -91 2638 -91 
Q 1578 -91 968 557 
Q 359 1206 359 2328 
Q 359 3453 968 4101 
Q 1578 4750 2638 4750 
Q 3056 4750 3426 4639 
Q 3797 4528 4122 4306 
z
" transform="scale(0.015625)"/>
      <path id="DejaVuSans-76" d="M 191 3500 
L 800 3500 
L 1894 563 
L 2988 3500 
L 3597 3500 
L 2284 0 
L 1503 0 
L 191 3500 
z
" transform="scale(0.015625)"/>
     </defs>
     <use xlink:href="#DejaVuSans-4c"/>
     <use xlink:href="#DejaVuSans-65" x="53.962891"/>
     <use xlink:href="#DejaVuSans-61" x="115.486328"/>
     <use xlink:href="#DejaVuSans-72" x="176.765625"/>
     <use xlink:href="#DejaVuSans-6e" x="216.128906"/>
     <use xlink:href="#DejaVuSans-69" x="279.507812"/>
     <use xlink:href="#DejaVuSans-6e" x="307.291016"/>
     <use xlink:href="#DejaVuSans-67" x="370.669922"/>
     <use xlink:href="#DejaVuSans-20" x="434.146484"/>
     <use xlink:href="#DejaVuSans-43" x="465.933594"/>
     <use xlink:href="#DejaVuSans-75" x="535.757812"/>
     <use xlink:href="#DejaVuSans-72" x="599.136719"/>
     <use xlink:href="#DejaVuSans-76" x="640.25"/>
     <use xlink:href="#DejaVuSans-65" x="699.429688"/>
     <use xlink:href="#DejaVuSans-73" x="760.953125"/>
    </g>
   </g>
   <g id="legend_1">
    <g id="patch_7">
     <path d="M 214.18875 302.584 
L 407.72 302.584 
Q 409.72 302.584 409.72 300.584 
L 409.72 228.193375 
Q 409.72 226.193375 407.72 226.193375 
L 214.18875 226.193375 
Q 212.18875 226.193375 212.18875 228.193375 
L 212.18875 300.584 
Q 212.18875 302.584 214.18875 302.584 
z
" style="fill: #ffffff; opacity: 0.8; stroke: #cccccc; stroke-linejoin: miter"/>
    </g>
    <g id="line2d_21">
     <path d="M 216.18875 234.291812 
L 226.18875 234.291812 
L 236.18875 234.291812 
" style="fill: none; stroke: #1f77b4; stroke-width: 1.5; stroke-linecap: square"/>
    </g>
    <g id="text_19">
     <!-- Train Accuracy -->
     <g transform="translate(244.18875 237.791812) scale(0.1 -0.1)">
      <defs>
       <path id="DejaVuSans-54" d="M -19 4666 
L 3928 4666 
L 3928 4134 
L 2272 4134 
L 2272 0 
L 1638 0 
L 1638 4134 
L -19 4134 
L -19 4666 
z
" transform="scale(0.015625)"/>
      </defs>
      <use xlink:href="#DejaVuSans-54"/>
      <use xlink:href="#DejaVuSans-72" x="46.333984"/>
      <use xlink:href="#DejaVuSans-61" x="87.447266"/>
      <use xlink:href="#DejaVuSans-69" x="148.726562"/>
      <use xlink:href="#DejaVuSans-6e" x="176.509766"/>
      <use xlink:href="#DejaVuSans-20" x="239.888672"/>
      <use xlink:href="#DejaVuSans-41" x="271.675781"/>
      <use xlink:href="#DejaVuSans-63" x="338.333984"/>
      <use xlink:href="#DejaVuSans-63" x="393.314453"/>
      <use xlink:href="#DejaVuSans-75" x="448.294922"/>
      <use xlink:href="#DejaVuSans-72" x="511.673828"/>
      <use xlink:href="#DejaVuSans-61" x="552.787109"/>
      <use xlink:href="#DejaVuSans-63" x="614.066406"/>
      <use xlink:href="#DejaVuSans-79" x="669.046875"/>
     </g>
    </g>
    <g id="line2d_22">
     <path d="M 216.18875 248.969937 
L 226.18875 248.969937 
L 236.18875 248.969937 
" style="fill: none; stroke: #ff7f0e; stroke-width: 1.5; stroke-linecap: square"/>
    </g>
    <g id="text_20">
     <!-- Validation Accuracy -->
     <g transform="translate(244.18875 252.469937) scale(0.1 -0.1)">
      <defs>
       <path id="DejaVuSans-56" d="M 1831 0 
L 50 4666 
L 709 4666 
L 2188 738 
L 3669 4666 
L 4325 4666 
L 2547 0 
L 1831 0 
z
" transform="scale(0.015625)"/>
       <path id="DejaVuSans-6c" d="M 603 4863 
L 1178 4863 
L 1178 0 
L 603 0 
L 603 4863 
z
" transform="scale(0.015625)"/>
       <path id="DejaVuSans-64" d="M 2906 2969 
L 2906 4863 
L 3481 4863 
L 3481 0 
L 2906 0 
L 2906 525 
Q 2725 213 2448 61 
Q 2172 -91 1784 -91 
Q 1150 -91 751 415 
Q 353 922 353 1747 
Q 353 2572 751 3078 
Q 1150 3584 1784 3584 
Q 2172 3584 2448 3432 
Q 2725 3281 2906 2969 
z
M 947 1747 
Q 947 1113 1208 752 
Q 1469 391 1925 391 
Q 2381 391 2643 752 
Q 2906 1113 2906 1747 
Q 2906 2381 2643 2742 
Q 2381 3103 1925 3103 
Q 1469 3103 1208 2742 
Q 947 2381 947 1747 
z
" transform="scale(0.015625)"/>
       <path id="DejaVuSans-74" d="M 1172 4494 
L 1172 3500 
L 2356 3500 
L 2356 3053 
L 1172 3053 
L 1172 1153 
Q 1172 725 1289 603 
Q 1406 481 1766 481 
L 2356 481 
L 2356 0 
L 1766 0 
Q 1100 0 847 248 
Q 594 497 594 1153 
L 594 3053 
L 172 3053 
L 172 3500 
L 594 3500 
L 594 4494 
L 1172 4494 
z
" transform="scale(0.015625)"/>
      </defs>
      <use xlink:href="#DejaVuSans-56"/>
      <use xlink:href="#DejaVuSans-61" x="60.658203"/>
      <use xlink:href="#DejaVuSans-6c" x="121.9375"/>
      <use xlink:href="#DejaVuSans-69" x="149.720703"/>
      <use xlink:href="#DejaVuSans-64" x="177.503906"/>
      <use xlink:href="#DejaVuSans-61" x="240.980469"/>
      <use xlink:href="#DejaVuSans-74" x="302.259766"/>
      <use xlink:href="#DejaVuSans-69" x="341.46875"/>
      <use xlink:href="#DejaVuSans-6f" x="369.251953"/>
      <use xlink:href="#DejaVuSans-6e" x="430.433594"/>
      <use xlink:href="#DejaVuSans-20" x="493.8125"/>
      <use xlink:href="#DejaVuSans-41" x="525.599609"/>
      <use xlink:href="#DejaVuSans-63" x="592.257812"/>
      <use xlink:href="#DejaVuSans-63" x="647.238281"/>
      <use xlink:href="#DejaVuSans-75" x="702.21875"/>
      <use xlink:href="#DejaVuSans-72" x="765.597656"/>
      <use xlink:href="#DejaVuSans-61" x="806.710938"/>
      <use xlink:href="#DejaVuSans-63" x="867.990234"/>
      <use xlink:href="#DejaVuSans-79" x="922.970703"/>
     </g>
    </g>
    <g id="line2d_23">
     <path d="M 216.18875 263.648062 
L 226.18875 263.648062 
L 236.18875 263.648062 
" style="fill: none; stroke: #2ca02c; stroke-width: 1.5; stroke-linecap: square"/>
    </g>
    <g id="text_21">
     <!-- Robust Validation Accuracy -->
     <g transform="translate(244.18875 267.148062) scale(0.1 -0.1)">
      <defs>
       <path id="DejaVuSans-52" d="M 2841 2188 
Q 3044 2119 3236 1894 
Q 3428 1669 3622 1275 
L 4263 0 
L 3584 0 
L 2988 1197 
Q 2756 1666 2539 1819 
Q 2322 1972 1947 1972 
L 1259 1972 
L 1259 0 
L 628 0 
L 628 4666 
L 2053 4666 
Q 2853 4666 3247 4331 
Q 3641 3997 3641 3322 
Q 3641 2881 3436 2590 
Q 3231 2300 2841 2188 
z
M 1259 4147 
L 1259 2491 
L 2053 2491 
Q 2509 2491 2742 2702 
Q 2975 2913 2975 3322 
Q 2975 3731 2742 3939 
Q 2509 4147 2053 4147 
L 1259 4147 
z
" transform="scale(0.015625)"/>
       <path id="DejaVuSans-62" d="M 3116 1747 
Q 3116 2381 2855 2742 
Q 2594 3103 2138 3103 
Q 1681 3103 1420 2742 
Q 1159 2381 1159 1747 
Q 1159 1113 1420 752 
Q 1681 391 2138 391 
Q 2594 391 2855 752 
Q 3116 1113 3116 1747 
z
M 1159 2969 
Q 1341 3281 1617 3432 
Q 1894 3584 2278 3584 
Q 2916 3584 3314 3078 
Q 3713 2572 3713 1747 
Q 3713 922 3314 415 
Q 2916 -91 2278 -91 
Q 1894 -91 1617 61 
Q 1341 213 1159 525 
L 1159 0 
L 581 0 
L 581 4863 
L 1159 4863 
L 1159 2969 
z
" transform="scale(0.015625)"/>
      </defs>
      <use xlink:href="#DejaVuSans-52"/>
      <use xlink:href="#DejaVuSans-6f" x="64.982422"/>
      <use xlink:href="#DejaVuSans-62" x="126.164062"/>
      <use xlink:href="#DejaVuSans-75" x="189.640625"/>
      <use xlink:href="#DejaVuSans-73" x="253.019531"/>
      <use xlink:href="#DejaVuSans-74" x="305.119141"/>
      <use xlink:href="#DejaVuSans-20" x="344.328125"/>
      <use xlink:href="#DejaVuSans-56" x="376.115234"/>
      <use xlink:href="#DejaVuSans-61" x="436.773438"/>
      <use xlink:href="#DejaVuSans-6c" x="498.052734"/>
      <use xlink:href="#DejaVuSans-69" x="525.835938"/>
      <use xlink:href="#DejaVuSans-64" x="553.619141"/>
      <use xlink:href="#DejaVuSans-61" x="617.095703"/>
      <use xlink:href="#DejaVuSans-74" x="678.375"/>
      <use xlink:href="#DejaVuSans-69" x="717.583984"/>
      <use xlink:href="#DejaVuSans-6f" x="745.367188"/>
      <use xlink:href="#DejaVuSans-6e" x="806.548828"/>
      <use xlink:href="#DejaVuSans-20" x="869.927734"/>
      <use xlink:href="#DejaVuSans-41" x="901.714844"/>
      <use xlink:href="#DejaVuSans-63" x="968.373047"/>
      <use xlink:href="#DejaVuSans-63" x="1023.353516"/>
      <use xlink:href="#DejaVuSans-75" x="1078.333984"/>
      <use xlink:href="#DejaVuSans-72" x="1141.712891"/>
      <use xlink:href="#DejaVuSans-61" x="1182.826172"/>
      <use xlink:href="#DejaVuSans-63" x="1244.105469"/>
      <use xlink:href="#DejaVuSans-79" x="1299.085938"/>
     </g>
    </g>
    <g id="line2d_24">
     <path d="M 216.18875 278.326188 
L 226.18875 278.326188 
L 236.18875 278.326188 
" style="fill: none; stroke: #d62728; stroke-width: 1.5; stroke-linecap: square"/>
    </g>
    <g id="text_22">
     <!-- SWA Validation Accuracy -->
     <g transform="translate(244.18875 281.826188) scale(0.1 -0.1)">
      <defs>
       <path id="DejaVuSans-53" d="M 3425 4513 
L 3425 3897 
Q 3066 4069 2747 4153 
Q 2428 4238 2131 4238 
Q 1616 4238 1336 4038 
Q 1056 3838 1056 3469 
Q 1056 3159 1242 3001 
Q 1428 2844 1947 2747 
L 2328 2669 
Q 3034 2534 3370 2195 
Q 3706 1856 3706 1288 
Q 3706 609 3251 259 
Q 2797 -91 1919 -91 
Q 1588 -91 1214 -16 
Q 841 59 441 206 
L 441 856 
Q 825 641 1194 531 
Q 1563 422 1919 422 
Q 2459 422 2753 634 
Q 3047 847 3047 1241 
Q 3047 1584 2836 1778 
Q 2625 1972 2144 2069 
L 1759 2144 
Q 1053 2284 737 2584 
Q 422 2884 422 3419 
Q 422 4038 858 4394 
Q 1294 4750 2059 4750 
Q 2388 4750 2728 4690 
Q 3069 4631 3425 4513 
z
" transform="scale(0.015625)"/>
       <path id="DejaVuSans-57" d="M 213 4666 
L 850 4666 
L 1831 722 
L 2809 4666 
L 3519 4666 
L 4500 722 
L 5478 4666 
L 6119 4666 
L 4947 0 
L 4153 0 
L 3169 4050 
L 2175 0 
L 1381 0 
L 213 4666 
z
" transform="scale(0.015625)"/>
      </defs>
      <use xlink:href="#DejaVuSans-53"/>
      <use xlink:href="#DejaVuSans-57" x="63.476562"/>
      <use xlink:href="#DejaVuSans-41" x="156.853516"/>
      <use xlink:href="#DejaVuSans-20" x="225.261719"/>
      <use xlink:href="#DejaVuSans-56" x="257.048828"/>
      <use xlink:href="#DejaVuSans-61" x="317.707031"/>
      <use xlink:href="#DejaVuSans-6c" x="378.986328"/>
      <use xlink:href="#DejaVuSans-69" x="406.769531"/>
      <use xlink:href="#DejaVuSans-64" x="434.552734"/>
      <use xlink:href="#DejaVuSans-61" x="498.029297"/>
      <use xlink:href="#DejaVuSans-74" x="559.308594"/>
      <use xlink:href="#DejaVuSans-69" x="598.517578"/>
      <use xlink:href="#DejaVuSans-6f" x="626.300781"/>
      <use xlink:href="#DejaVuSans-6e" x="687.482422"/>
      <use xlink:href="#DejaVuSans-20" x="750.861328"/>
      <use xlink:href="#DejaVuSans-41" x="782.648438"/>
      <use xlink:href="#DejaVuSans-63" x="849.306641"/>
      <use xlink:href="#DejaVuSans-63" x="904.287109"/>
      <use xlink:href="#DejaVuSans-75" x="959.267578"/>
      <use xlink:href="#DejaVuSans-72" x="1022.646484"/>
      <use xlink:href="#DejaVuSans-61" x="1063.759766"/>
      <use xlink:href="#DejaVuSans-63" x="1125.039062"/>
      <use xlink:href="#DejaVuSans-79" x="1180.019531"/>
     </g>
    </g>
    <g id="line2d_25">
     <path d="M 216.18875 293.004312 
L 226.18875 293.004312 
L 236.18875 293.004312 
" style="fill: none; stroke: #9467bd; stroke-width: 1.5; stroke-linecap: square"/>
    </g>
    <g id="text_23">
     <!-- SWA Robust Validation Accuracy -->
     <g transform="translate(244.18875 296.504312) scale(0.1 -0.1)">
      <use xlink:href="#DejaVuSans-53"/>
      <use xlink:href="#DejaVuSans-57" x="63.476562"/>
      <use xlink:href="#DejaVuSans-41" x="156.853516"/>
      <use xlink:href="#DejaVuSans-20" x="225.261719"/>
      <use xlink:href="#DejaVuSans-52" x="257.048828"/>
      <use xlink:href="#DejaVuSans-6f" x="322.03125"/>
      <use xlink:href="#DejaVuSans-62" x="383.212891"/>
      <use xlink:href="#DejaVuSans-75" x="446.689453"/>
      <use xlink:href="#DejaVuSans-73" x="510.068359"/>
      <use xlink:href="#DejaVuSans-74" x="562.167969"/>
      <use xlink:href="#DejaVuSans-20" x="601.376953"/>
      <use xlink:href="#DejaVuSans-56" x="633.164062"/>
      <use xlink:href="#DejaVuSans-61" x="693.822266"/>
      <use xlink:href="#DejaVuSans-6c" x="755.101562"/>
      <use xlink:href="#DejaVuSans-69" x="782.884766"/>
      <use xlink:href="#DejaVuSans-64" x="810.667969"/>
      <use xlink:href="#DejaVuSans-61" x="874.144531"/>
      <use xlink:href="#DejaVuSans-74" x="935.423828"/>
      <use xlink:href="#DejaVuSans-69" x="974.632812"/>
      <use xlink:href="#DejaVuSans-6f" x="1002.416016"/>
      <use xlink:href="#DejaVuSans-6e" x="1063.597656"/>
      <use xlink:href="#DejaVuSans-20" x="1126.976562"/>
      <use xlink:href="#DejaVuSans-41" x="1158.763672"/>
      <use xlink:href="#DejaVuSans-63" x="1225.421875"/>
      <use xlink:href="#DejaVuSans-63" x="1280.402344"/>
      <use xlink:href="#DejaVuSans-75" x="1335.382812"/>
      <use xlink:href="#DejaVuSans-72" x="1398.761719"/>
      <use xlink:href="#DejaVuSans-61" x="1439.875"/>
      <use xlink:href="#DejaVuSans-63" x="1501.154297"/>
      <use xlink:href="#DejaVuSans-79" x="1556.134766"/>
     </g>
    </g>
   </g>
  </g>
 </g>
 <defs>
  <clipPath id="p5e84c14bb5">
   <rect x="57.6" y="41.472" width="357.12" height="266.112"/>
  </clipPath>
 </defs>
</svg>
