<?xml version="1.0" encoding="utf-8" standalone="no"?>
<!DOCTYPE svg PUBLIC "-//W3C//DTD SVG 1.1//EN"
  "http://www.w3.org/Graphics/SVG/1.1/DTD/svg11.dtd">
<svg xmlns:xlink="http://www.w3.org/1999/xlink" width="460.8pt" height="345.6pt" viewBox="0 0 460.8 345.6" xmlns="http://www.w3.org/2000/svg" version="1.1">
 <metadata>
  <rdf:RDF xmlns:dc="http://purl.org/dc/elements/1.1/" xmlns:cc="http://creativecommons.org/ns#" xmlns:rdf="http://www.w3.org/1999/02/22-rdf-syntax-ns#">
   <cc:Work>
    <dc:type rdf:resource="http://purl.org/dc/dcmitype/StillImage"/>
    <dc:date>2025-06-22T22:53:56.460014</dc:date>
    <dc:format>image/svg+xml</dc:format>
    <dc:creator>
     <cc:Agent>
      <dc:title>Matplotlib v3.9.1, https://matplotlib.org/</dc:title>
     </cc:Agent>
    </dc:creator>
   </cc:Work>
  </rdf:RDF>
 </metadata>
 <defs>
  <style type="text/css">*{stroke-linejoin: round; stroke-linecap: butt}</style>
 </defs>
 <g id="figure_1">
  <g id="patch_1">
   <path d="M 0 345.6 
L 460.8 345.6 
L 460.8 0 
L 0 0 
z
" style="fill: #ffffff"/>
  </g>
  <g id="axes_1">
   <g id="patch_2">
    <path d="M 57.6 307.584 
L 414.72 307.584 
L 414.72 41.472 
L 57.6 41.472 
z
" style="fill: #ffffff"/>
   </g>
   <g id="matplotlib.axis_1">
    <g id="xtick_1">
     <g id="line2d_1">
      <defs>
       <path id="mea044b6d8a" d="M 0 0 
L 0 3.5 
" style="stroke: #000000; stroke-width: 0.8"/>
      </defs>
      <g>
       <use xlink:href="#mea044b6d8a" x="73.832727" y="307.584" style="stroke: #000000; stroke-width: 0.8"/>
      </g>
     </g>
     <g id="text_1">
      <!-- 1 -->
      <g transform="translate(70.651477 322.182437) scale(0.1 -0.1)">
       <defs>
        <path id="DejaVuSans-31" d="M 794 531 
L 1825 531 
L 1825 4091 
L 703 3866 
L 703 4441 
L 1819 4666 
L 2450 4666 
L 2450 531 
L 3481 531 
L 3481 0 
L 794 0 
L 794 531 
z
" transform="scale(0.015625)"/>
       </defs>
       <use xlink:href="#DejaVuSans-31"/>
      </g>
     </g>
    </g>
    <g id="xtick_2">
     <g id="line2d_2">
      <g>
       <use xlink:href="#mea044b6d8a" x="109.664165" y="307.584" style="stroke: #000000; stroke-width: 0.8"/>
      </g>
     </g>
     <g id="text_2">
      <!-- 34 -->
      <g transform="translate(103.301665 322.182437) scale(0.1 -0.1)">
       <defs>
        <path id="DejaVuSans-33" d="M 2597 2516 
Q 3050 2419 3304 2112 
Q 3559 1806 3559 1356 
Q 3559 666 3084 287 
Q 2609 -91 1734 -91 
Q 1441 -91 1130 -33 
Q 819 25 488 141 
L 488 750 
Q 750 597 1062 519 
Q 1375 441 1716 441 
Q 2309 441 2620 675 
Q 2931 909 2931 1356 
Q 2931 1769 2642 2001 
Q 2353 2234 1838 2234 
L 1294 2234 
L 1294 2753 
L 1863 2753 
Q 2328 2753 2575 2939 
Q 2822 3125 2822 3475 
Q 2822 3834 2567 4026 
Q 2313 4219 1838 4219 
Q 1578 4219 1281 4162 
Q 984 4106 628 3988 
L 628 4550 
Q 988 4650 1302 4700 
Q 1616 4750 1894 4750 
Q 2613 4750 3031 4423 
Q 3450 4097 3450 3541 
Q 3450 3153 3228 2886 
Q 3006 2619 2597 2516 
z
" transform="scale(0.015625)"/>
        <path id="DejaVuSans-34" d="M 2419 4116 
L 825 1625 
L 2419 1625 
L 2419 4116 
z
M 2253 4666 
L 3047 4666 
L 3047 1625 
L 3713 1625 
L 3713 1100 
L 3047 1100 
L 3047 0 
L 2419 0 
L 2419 1100 
L 313 1100 
L 313 1709 
L 2253 4666 
z
" transform="scale(0.015625)"/>
       </defs>
       <use xlink:href="#DejaVuSans-33"/>
       <use xlink:href="#DejaVuSans-34" x="63.623047"/>
      </g>
     </g>
    </g>
    <g id="xtick_3">
     <g id="line2d_3">
      <g>
       <use xlink:href="#mea044b6d8a" x="145.495604" y="307.584" style="stroke: #000000; stroke-width: 0.8"/>
      </g>
     </g>
     <g id="text_3">
      <!-- 67 -->
      <g transform="translate(139.133104 322.182437) scale(0.1 -0.1)">
       <defs>
        <path id="DejaVuSans-36" d="M 2113 2584 
Q 1688 2584 1439 2293 
Q 1191 2003 1191 1497 
Q 1191 994 1439 701 
Q 1688 409 2113 409 
Q 2538 409 2786 701 
Q 3034 994 3034 1497 
Q 3034 2003 2786 2293 
Q 2538 2584 2113 2584 
z
M 3366 4563 
L 3366 3988 
Q 3128 4100 2886 4159 
Q 2644 4219 2406 4219 
Q 1781 4219 1451 3797 
Q 1122 3375 1075 2522 
Q 1259 2794 1537 2939 
Q 1816 3084 2150 3084 
Q 2853 3084 3261 2657 
Q 3669 2231 3669 1497 
Q 3669 778 3244 343 
Q 2819 -91 2113 -91 
Q 1303 -91 875 529 
Q 447 1150 447 2328 
Q 447 3434 972 4092 
Q 1497 4750 2381 4750 
Q 2619 4750 2861 4703 
Q 3103 4656 3366 4563 
z
" transform="scale(0.015625)"/>
        <path id="DejaVuSans-37" d="M 525 4666 
L 3525 4666 
L 3525 4397 
L 1831 0 
L 1172 0 
L 2766 4134 
L 525 4134 
L 525 4666 
z
" transform="scale(0.015625)"/>
       </defs>
       <use xlink:href="#DejaVuSans-36"/>
       <use xlink:href="#DejaVuSans-37" x="63.623047"/>
      </g>
     </g>
    </g>
    <g id="xtick_4">
     <g id="line2d_4">
      <g>
       <use xlink:href="#mea044b6d8a" x="181.327042" y="307.584" style="stroke: #000000; stroke-width: 0.8"/>
      </g>
     </g>
     <g id="text_4">
      <!-- 100 -->
      <g transform="translate(171.783292 322.182437) scale(0.1 -0.1)">
       <defs>
        <path id="DejaVuSans-30" d="M 2034 4250 
Q 1547 4250 1301 3770 
Q 1056 3291 1056 2328 
Q 1056 1369 1301 889 
Q 1547 409 2034 409 
Q 2525 409 2770 889 
Q 3016 1369 3016 2328 
Q 3016 3291 2770 3770 
Q 2525 4250 2034 4250 
z
M 2034 4750 
Q 2819 4750 3233 4129 
Q 3647 3509 3647 2328 
Q 3647 1150 3233 529 
Q 2819 -91 2034 -91 
Q 1250 -91 836 529 
Q 422 1150 422 2328 
Q 422 3509 836 4129 
Q 1250 4750 2034 4750 
z
" transform="scale(0.015625)"/>
       </defs>
       <use xlink:href="#DejaVuSans-31"/>
       <use xlink:href="#DejaVuSans-30" x="63.623047"/>
       <use xlink:href="#DejaVuSans-30" x="127.246094"/>
      </g>
     </g>
    </g>
    <g id="xtick_5">
     <g id="line2d_5">
      <g>
       <use xlink:href="#mea044b6d8a" x="217.15848" y="307.584" style="stroke: #000000; stroke-width: 0.8"/>
      </g>
     </g>
     <g id="text_5">
      <!-- 133 -->
      <g transform="translate(207.61473 322.182437) scale(0.1 -0.1)">
       <use xlink:href="#DejaVuSans-31"/>
       <use xlink:href="#DejaVuSans-33" x="63.623047"/>
       <use xlink:href="#DejaVuSans-33" x="127.246094"/>
      </g>
     </g>
    </g>
    <g id="xtick_6">
     <g id="line2d_6">
      <g>
       <use xlink:href="#mea044b6d8a" x="254.075719" y="307.584" style="stroke: #000000; stroke-width: 0.8"/>
      </g>
     </g>
     <g id="text_6">
      <!-- 167 -->
      <g transform="translate(244.531969 322.182437) scale(0.1 -0.1)">
       <use xlink:href="#DejaVuSans-31"/>
       <use xlink:href="#DejaVuSans-36" x="63.623047"/>
       <use xlink:href="#DejaVuSans-37" x="127.246094"/>
      </g>
     </g>
    </g>
    <g id="xtick_7">
     <g id="line2d_7">
      <g>
       <use xlink:href="#mea044b6d8a" x="289.907157" y="307.584" style="stroke: #000000; stroke-width: 0.8"/>
      </g>
     </g>
     <g id="text_7">
      <!-- 200 -->
      <g transform="translate(280.363407 322.182437) scale(0.1 -0.1)">
       <defs>
        <path id="DejaVuSans-32" d="M 1228 531 
L 3431 531 
L 3431 0 
L 469 0 
L 469 531 
Q 828 903 1448 1529 
Q 2069 2156 2228 2338 
Q 2531 2678 2651 2914 
Q 2772 3150 2772 3378 
Q 2772 3750 2511 3984 
Q 2250 4219 1831 4219 
Q 1534 4219 1204 4116 
Q 875 4013 500 3803 
L 500 4441 
Q 881 4594 1212 4672 
Q 1544 4750 1819 4750 
Q 2544 4750 2975 4387 
Q 3406 4025 3406 3419 
Q 3406 3131 3298 2873 
Q 3191 2616 2906 2266 
Q 2828 2175 2409 1742 
Q 1991 1309 1228 531 
z
" transform="scale(0.015625)"/>
       </defs>
       <use xlink:href="#DejaVuSans-32"/>
       <use xlink:href="#DejaVuSans-30" x="63.623047"/>
       <use xlink:href="#DejaVuSans-30" x="127.246094"/>
      </g>
     </g>
    </g>
    <g id="xtick_8">
     <g id="line2d_8">
      <g>
       <use xlink:href="#mea044b6d8a" x="325.738595" y="307.584" style="stroke: #000000; stroke-width: 0.8"/>
      </g>
     </g>
     <g id="text_8">
      <!-- 233 -->
      <g transform="translate(316.194845 322.182437) scale(0.1 -0.1)">
       <use xlink:href="#DejaVuSans-32"/>
       <use xlink:href="#DejaVuSans-33" x="63.623047"/>
       <use xlink:href="#DejaVuSans-33" x="127.246094"/>
      </g>
     </g>
    </g>
    <g id="xtick_9">
     <g id="line2d_9">
      <g>
       <use xlink:href="#mea044b6d8a" x="361.570033" y="307.584" style="stroke: #000000; stroke-width: 0.8"/>
      </g>
     </g>
     <g id="text_9">
      <!-- 266 -->
      <g transform="translate(352.026283 322.182437) scale(0.1 -0.1)">
       <use xlink:href="#DejaVuSans-32"/>
       <use xlink:href="#DejaVuSans-36" x="63.623047"/>
       <use xlink:href="#DejaVuSans-36" x="127.246094"/>
      </g>
     </g>
    </g>
    <g id="xtick_10">
     <g id="line2d_10">
      <g>
       <use xlink:href="#mea044b6d8a" x="398.487273" y="307.584" style="stroke: #000000; stroke-width: 0.8"/>
      </g>
     </g>
     <g id="text_10">
      <!-- 300 -->
      <g transform="translate(388.943523 322.182437) scale(0.1 -0.1)">
       <use xlink:href="#DejaVuSans-33"/>
       <use xlink:href="#DejaVuSans-30" x="63.623047"/>
       <use xlink:href="#DejaVuSans-30" x="127.246094"/>
      </g>
     </g>
    </g>
    <g id="text_11">
     <!-- Epochs -->
     <g transform="translate(218.244375 335.860562) scale(0.1 -0.1)">
      <defs>
       <path id="DejaVuSans-45" d="M 628 4666 
L 3578 4666 
L 3578 4134 
L 1259 4134 
L 1259 2753 
L 3481 2753 
L 3481 2222 
L 1259 2222 
L 1259 531 
L 3634 531 
L 3634 0 
L 628 0 
L 628 4666 
z
" transform="scale(0.015625)"/>
       <path id="DejaVuSans-70" d="M 1159 525 
L 1159 -1331 
L 581 -1331 
L 581 3500 
L 1159 3500 
L 1159 2969 
Q 1341 3281 1617 3432 
Q 1894 3584 2278 3584 
Q 2916 3584 3314 3078 
Q 3713 2572 3713 1747 
Q 3713 922 3314 415 
Q 2916 -91 2278 -91 
Q 1894 -91 1617 61 
Q 1341 213 1159 525 
z
M 3116 1747 
Q 3116 2381 2855 2742 
Q 2594 3103 2138 3103 
Q 1681 3103 1420 2742 
Q 1159 2381 1159 1747 
Q 1159 1113 1420 752 
Q 1681 391 2138 391 
Q 2594 391 2855 752 
Q 3116 1113 3116 1747 
z
" transform="scale(0.015625)"/>
       <path id="DejaVuSans-6f" d="M 1959 3097 
Q 1497 3097 1228 2736 
Q 959 2375 959 1747 
Q 959 1119 1226 758 
Q 1494 397 1959 397 
Q 2419 397 2687 759 
Q 2956 1122 2956 1747 
Q 2956 2369 2687 2733 
Q 2419 3097 1959 3097 
z
M 1959 3584 
Q 2709 3584 3137 3096 
Q 3566 2609 3566 1747 
Q 3566 888 3137 398 
Q 2709 -91 1959 -91 
Q 1206 -91 779 398 
Q 353 888 353 1747 
Q 353 2609 779 3096 
Q 1206 3584 1959 3584 
z
" transform="scale(0.015625)"/>
       <path id="DejaVuSans-63" d="M 3122 3366 
L 3122 2828 
Q 2878 2963 2633 3030 
Q 2388 3097 2138 3097 
Q 1578 3097 1268 2742 
Q 959 2388 959 1747 
Q 959 1106 1268 751 
Q 1578 397 2138 397 
Q 2388 397 2633 464 
Q 2878 531 3122 666 
L 3122 134 
Q 2881 22 2623 -34 
Q 2366 -91 2075 -91 
Q 1284 -91 818 406 
Q 353 903 353 1747 
Q 353 2603 823 3093 
Q 1294 3584 2113 3584 
Q 2378 3584 2631 3529 
Q 2884 3475 3122 3366 
z
" transform="scale(0.015625)"/>
       <path id="DejaVuSans-68" d="M 3513 2113 
L 3513 0 
L 2938 0 
L 2938 2094 
Q 2938 2591 2744 2837 
Q 2550 3084 2163 3084 
Q 1697 3084 1428 2787 
Q 1159 2491 1159 1978 
L 1159 0 
L 581 0 
L 581 4863 
L 1159 4863 
L 1159 2956 
Q 1366 3272 1645 3428 
Q 1925 3584 2291 3584 
Q 2894 3584 3203 3211 
Q 3513 2838 3513 2113 
z
" transform="scale(0.015625)"/>
       <path id="DejaVuSans-73" d="M 2834 3397 
L 2834 2853 
Q 2591 2978 2328 3040 
Q 2066 3103 1784 3103 
Q 1356 3103 1142 2972 
Q 928 2841 928 2578 
Q 928 2378 1081 2264 
Q 1234 2150 1697 2047 
L 1894 2003 
Q 2506 1872 2764 1633 
Q 3022 1394 3022 966 
Q 3022 478 2636 193 
Q 2250 -91 1575 -91 
Q 1294 -91 989 -36 
Q 684 19 347 128 
L 347 722 
Q 666 556 975 473 
Q 1284 391 1588 391 
Q 1994 391 2212 530 
Q 2431 669 2431 922 
Q 2431 1156 2273 1281 
Q 2116 1406 1581 1522 
L 1381 1569 
Q 847 1681 609 1914 
Q 372 2147 372 2553 
Q 372 3047 722 3315 
Q 1072 3584 1716 3584 
Q 2034 3584 2315 3537 
Q 2597 3491 2834 3397 
z
" transform="scale(0.015625)"/>
      </defs>
      <use xlink:href="#DejaVuSans-45"/>
      <use xlink:href="#DejaVuSans-70" x="63.183594"/>
      <use xlink:href="#DejaVuSans-6f" x="126.660156"/>
      <use xlink:href="#DejaVuSans-63" x="187.841797"/>
      <use xlink:href="#DejaVuSans-68" x="242.822266"/>
      <use xlink:href="#DejaVuSans-73" x="306.201172"/>
     </g>
    </g>
   </g>
   <g id="matplotlib.axis_2">
    <g id="ytick_1">
     <g id="line2d_11">
      <defs>
       <path id="mc464fe75b1" d="M 0 0 
L -3.5 0 
" style="stroke: #000000; stroke-width: 0.8"/>
      </defs>
      <g>
       <use xlink:href="#mc464fe75b1" x="57.6" y="278.206967" style="stroke: #000000; stroke-width: 0.8"/>
      </g>
     </g>
     <g id="text_12">
      <!-- 10 -->
      <g transform="translate(37.875 282.006185) scale(0.1 -0.1)">
       <use xlink:href="#DejaVuSans-31"/>
       <use xlink:href="#DejaVuSans-30" x="63.623047"/>
      </g>
     </g>
    </g>
    <g id="ytick_2">
     <g id="line2d_12">
      <g>
       <use xlink:href="#mc464fe75b1" x="57.6" y="242.039044" style="stroke: #000000; stroke-width: 0.8"/>
      </g>
     </g>
     <g id="text_13">
      <!-- 20 -->
      <g transform="translate(37.875 245.838263) scale(0.1 -0.1)">
       <use xlink:href="#DejaVuSans-32"/>
       <use xlink:href="#DejaVuSans-30" x="63.623047"/>
      </g>
     </g>
    </g>
    <g id="ytick_3">
     <g id="line2d_13">
      <g>
       <use xlink:href="#mc464fe75b1" x="57.6" y="205.871122" style="stroke: #000000; stroke-width: 0.8"/>
      </g>
     </g>
     <g id="text_14">
      <!-- 30 -->
      <g transform="translate(37.875 209.67034) scale(0.1 -0.1)">
       <use xlink:href="#DejaVuSans-33"/>
       <use xlink:href="#DejaVuSans-30" x="63.623047"/>
      </g>
     </g>
    </g>
    <g id="ytick_4">
     <g id="line2d_14">
      <g>
       <use xlink:href="#mc464fe75b1" x="57.6" y="169.703199" style="stroke: #000000; stroke-width: 0.8"/>
      </g>
     </g>
     <g id="text_15">
      <!-- 40 -->
      <g transform="translate(37.875 173.502418) scale(0.1 -0.1)">
       <use xlink:href="#DejaVuSans-34"/>
       <use xlink:href="#DejaVuSans-30" x="63.623047"/>
      </g>
     </g>
    </g>
    <g id="ytick_5">
     <g id="line2d_15">
      <g>
       <use xlink:href="#mc464fe75b1" x="57.6" y="133.535277" style="stroke: #000000; stroke-width: 0.8"/>
      </g>
     </g>
     <g id="text_16">
      <!-- 50 -->
      <g transform="translate(37.875 137.334495) scale(0.1 -0.1)">
       <defs>
        <path id="DejaVuSans-35" d="M 691 4666 
L 3169 4666 
L 3169 4134 
L 1269 4134 
L 1269 2991 
Q 1406 3038 1543 3061 
Q 1681 3084 1819 3084 
Q 2600 3084 3056 2656 
Q 3513 2228 3513 1497 
Q 3513 744 3044 326 
Q 2575 -91 1722 -91 
Q 1428 -91 1123 -41 
Q 819 9 494 109 
L 494 744 
Q 775 591 1075 516 
Q 1375 441 1709 441 
Q 2250 441 2565 725 
Q 2881 1009 2881 1497 
Q 2881 1984 2565 2268 
Q 2250 2553 1709 2553 
Q 1456 2553 1204 2497 
Q 953 2441 691 2322 
L 691 4666 
z
" transform="scale(0.015625)"/>
       </defs>
       <use xlink:href="#DejaVuSans-35"/>
       <use xlink:href="#DejaVuSans-30" x="63.623047"/>
      </g>
     </g>
    </g>
    <g id="ytick_6">
     <g id="line2d_16">
      <g>
       <use xlink:href="#mc464fe75b1" x="57.6" y="97.367354" style="stroke: #000000; stroke-width: 0.8"/>
      </g>
     </g>
     <g id="text_17">
      <!-- 60 -->
      <g transform="translate(37.875 101.166573) scale(0.1 -0.1)">
       <use xlink:href="#DejaVuSans-36"/>
       <use xlink:href="#DejaVuSans-30" x="63.623047"/>
      </g>
     </g>
    </g>
    <g id="ytick_7">
     <g id="line2d_17">
      <g>
       <use xlink:href="#mc464fe75b1" x="57.6" y="61.199432" style="stroke: #000000; stroke-width: 0.8"/>
      </g>
     </g>
     <g id="text_18">
      <!-- 70 -->
      <g transform="translate(37.875 64.99865) scale(0.1 -0.1)">
       <use xlink:href="#DejaVuSans-37"/>
       <use xlink:href="#DejaVuSans-30" x="63.623047"/>
      </g>
     </g>
    </g>
    <g id="text_19">
     <!-- Accuracy -->
     <g transform="translate(31.795312 197.356125) rotate(-90) scale(0.1 -0.1)">
      <defs>
       <path id="DejaVuSans-41" d="M 2188 4044 
L 1331 1722 
L 3047 1722 
L 2188 4044 
z
M 1831 4666 
L 2547 4666 
L 4325 0 
L 3669 0 
L 3244 1197 
L 1141 1197 
L 716 0 
L 50 0 
L 1831 4666 
z
" transform="scale(0.015625)"/>
       <path id="DejaVuSans-75" d="M 544 1381 
L 544 3500 
L 1119 3500 
L 1119 1403 
Q 1119 906 1312 657 
Q 1506 409 1894 409 
Q 2359 409 2629 706 
Q 2900 1003 2900 1516 
L 2900 3500 
L 3475 3500 
L 3475 0 
L 2900 0 
L 2900 538 
Q 2691 219 2414 64 
Q 2138 -91 1772 -91 
Q 1169 -91 856 284 
Q 544 659 544 1381 
z
M 1991 3584 
L 1991 3584 
z
" transform="scale(0.015625)"/>
       <path id="DejaVuSans-72" d="M 2631 2963 
Q 2534 3019 2420 3045 
Q 2306 3072 2169 3072 
Q 1681 3072 1420 2755 
Q 1159 2438 1159 1844 
L 1159 0 
L 581 0 
L 581 3500 
L 1159 3500 
L 1159 2956 
Q 1341 3275 1631 3429 
Q 1922 3584 2338 3584 
Q 2397 3584 2469 3576 
Q 2541 3569 2628 3553 
L 2631 2963 
z
" transform="scale(0.015625)"/>
       <path id="DejaVuSans-61" d="M 2194 1759 
Q 1497 1759 1228 1600 
Q 959 1441 959 1056 
Q 959 750 1161 570 
Q 1363 391 1709 391 
Q 2188 391 2477 730 
Q 2766 1069 2766 1631 
L 2766 1759 
L 2194 1759 
z
M 3341 1997 
L 3341 0 
L 2766 0 
L 2766 531 
Q 2569 213 2275 61 
Q 1981 -91 1556 -91 
Q 1019 -91 701 211 
Q 384 513 384 1019 
Q 384 1609 779 1909 
Q 1175 2209 1959 2209 
L 2766 2209 
L 2766 2266 
Q 2766 2663 2505 2880 
Q 2244 3097 1772 3097 
Q 1472 3097 1187 3025 
Q 903 2953 641 2809 
L 641 3341 
Q 956 3463 1253 3523 
Q 1550 3584 1831 3584 
Q 2591 3584 2966 3190 
Q 3341 2797 3341 1997 
z
" transform="scale(0.015625)"/>
       <path id="DejaVuSans-79" d="M 2059 -325 
Q 1816 -950 1584 -1140 
Q 1353 -1331 966 -1331 
L 506 -1331 
L 506 -850 
L 844 -850 
Q 1081 -850 1212 -737 
Q 1344 -625 1503 -206 
L 1606 56 
L 191 3500 
L 800 3500 
L 1894 763 
L 2988 3500 
L 3597 3500 
L 2059 -325 
z
" transform="scale(0.015625)"/>
      </defs>
      <use xlink:href="#DejaVuSans-41"/>
      <use xlink:href="#DejaVuSans-63" x="66.658203"/>
      <use xlink:href="#DejaVuSans-63" x="121.638672"/>
      <use xlink:href="#DejaVuSans-75" x="176.619141"/>
      <use xlink:href="#DejaVuSans-72" x="239.998047"/>
      <use xlink:href="#DejaVuSans-61" x="281.111328"/>
      <use xlink:href="#DejaVuSans-63" x="342.390625"/>
      <use xlink:href="#DejaVuSans-79" x="397.371094"/>
     </g>
    </g>
   </g>
   <g id="line2d_18">
    <path d="M 73.832727 295.488 
L 74.918528 271.830562 
L 76.00433 253.667031 
L 77.090131 238.541606 
L 78.175932 227.325933 
L 79.261733 217.307419 
L 81.433335 200.883565 
L 83.604938 188.369464 
L 86.862341 171.243953 
L 87.948142 167.572909 
L 89.033943 162.939798 
L 91.205546 155.865352 
L 92.291347 153.731445 
L 93.377148 152.111122 
L 94.462949 151.691574 
L 95.54875 182.915341 
L 97.720353 178.56434 
L 98.806154 174.253124 
L 99.891955 170.647182 
L 100.977756 168.223931 
L 103.149358 162.52025 
L 104.23516 159.796805 
L 105.320961 158.415191 
L 108.578364 151.489033 
L 109.664165 148.494329 
L 110.749967 146.552112 
L 111.835768 143.868452 
L 112.921569 142.154093 
L 114.00737 140.956934 
L 115.093171 138.157537 
L 117.264773 133.72335 
L 119.436376 129.155341 
L 120.522177 126.90208 
L 121.607978 125.643436 
L 122.693779 123.046579 
L 124.865382 119.675729 
L 125.951183 116.999302 
L 127.036984 115.899798 
L 128.122785 113.118484 
L 129.208586 111.946644 
L 130.294387 110.232284 
L 131.380189 108.991724 
L 132.46599 107.186945 
L 133.551791 107.280982 
L 134.637592 107.172478 
L 135.723393 105.349615 
L 136.809194 105.371315 
L 137.894995 104.54307 
L 138.980797 143.828667 
L 140.066598 147.293554 
L 141.152399 146.045761 
L 142.2382 145.217516 
L 143.324001 143.032973 
L 144.409802 142.515772 
L 145.495604 141.41265 
L 146.581405 140.088904 
L 148.753007 138.559001 
L 149.838808 136.848258 
L 150.924609 137.434179 
L 153.096212 134.258635 
L 154.182013 133.831854 
L 155.267814 133.538893 
L 156.353615 132.790217 
L 157.439416 130.468237 
L 158.525217 129.144491 
L 159.611019 128.905783 
L 160.69682 127.701391 
L 161.782621 127.647139 
L 162.868422 126.251057 
L 163.954223 125.093684 
L 165.040024 124.826041 
L 166.125825 123.144233 
L 167.211627 122.800637 
L 168.297428 122.619798 
L 169.383229 121.560078 
L 170.46903 121.046493 
L 171.554831 118.93067 
L 172.640632 118.73898 
L 173.726434 118.142209 
L 174.812235 116.814846 
L 178.069638 114.033533 
L 179.155439 113.37166 
L 180.24124 112.304706 
L 181.327042 110.275686 
L 182.412843 110.069529 
L 183.498644 108.836202 
L 184.584445 108.369636 
L 185.670246 106.74208 
L 186.756047 105.685976 
L 187.841849 105.331531 
L 188.92765 104.568388 
L 190.013451 103.034868 
L 192.185053 100.705653 
L 193.270854 100.286105 
L 194.356656 98.900874 
L 195.442457 96.868237 
L 196.528258 96.050842 
L 197.614059 95.587892 
L 198.69986 95.548108 
L 199.785661 93.11039 
L 200.871462 93.920551 
L 201.957264 91.139238 
L 203.043065 91.298377 
L 204.128866 89.045115 
L 205.214667 89.294674 
L 206.300468 88.202403 
L 207.386269 86.618248 
L 208.472071 86.101046 
L 209.557872 84.820702 
L 211.729474 83.326967 
L 212.815275 82.701262 
L 213.901076 83.128043 
L 214.986877 82.552973 
L 217.15848 79.891014 
L 218.244281 80.809679 
L 219.330082 80.610756 
L 220.415883 80.028452 
L 221.501684 79.164039 
L 222.587486 78.755341 
L 223.673287 78.878312 
L 224.759088 79.236375 
L 225.844889 127.520551 
L 226.93069 131.086708 
L 228.016491 131.632844 
L 230.188094 129.621907 
L 231.273895 129.115557 
L 232.359696 129.166192 
L 233.445497 126.789959 
L 234.531298 127.979884 
L 235.617099 127.209507 
L 236.702901 126.746558 
L 237.788702 124.963479 
L 238.874503 125.444512 
L 239.960304 125.140702 
L 241.046105 124.088215 
L 242.131906 123.965244 
L 243.217708 123.484211 
L 244.303509 122.547462 
L 245.38931 123.1587 
L 246.475111 122.015793 
L 248.646713 121.408172 
L 249.732514 121.100745 
L 250.818316 120.359302 
L 251.904117 120.28335 
L 252.989918 120.344835 
L 254.075719 119.596159 
L 255.16152 119.585309 
L 256.247321 118.767914 
L 257.333123 118.485804 
L 258.418924 118.934286 
L 259.504725 118.746213 
L 260.590526 117.20546 
L 261.676327 116.847397 
L 262.762128 116.992069 
L 263.847929 116.283178 
L 264.933731 115.407914 
L 266.019532 116.051703 
L 267.105333 116.471251 
L 268.191134 115.00645 
L 269.276935 115.19814 
L 270.362736 115.18729 
L 273.62014 113.476547 
L 274.705941 113.501864 
L 276.877543 111.841757 
L 277.963344 111.639216 
L 279.049146 112.691703 
L 280.134947 111.064146 
L 281.220748 110.044211 
L 282.306549 110.87969 
L 283.39235 109.610196 
L 284.478151 109.863371 
L 285.563953 109.812736 
L 286.649754 109.317236 
L 287.735555 108.181563 
L 288.821356 108.539625 
L 289.907157 108.271983 
L 290.992958 107.085675 
L 294.250362 106.394868 
L 295.336163 105.769163 
L 296.421964 105.870433 
L 297.507765 105.29898 
L 298.593566 104.271811 
L 299.679368 103.533985 
L 300.765169 102.973382 
L 301.85097 104.203091 
L 302.936771 103.870347 
L 304.022572 103.11082 
L 305.108373 101.139668 
L 306.194175 102.351294 
L 307.279976 101.494114 
L 308.365777 101.432629 
L 309.451578 99.953361 
L 310.537379 100.087182 
L 311.62318 98.166665 
L 312.708981 98.795987 
L 313.794783 99.002144 
L 314.880584 98.785137 
L 315.966385 97.62053 
L 317.052186 96.28955 
L 318.137987 96.416138 
L 319.223788 95.964039 
L 320.30959 95.757882 
L 321.395391 94.687311 
L 322.481192 93.833748 
L 324.652794 93.801197 
L 325.738595 92.741477 
L 326.824396 91.902381 
L 327.910198 92.028969 
L 328.995999 91.754093 
L 330.0818 90.191638 
L 331.167601 90.867978 
L 332.253402 90.401412 
L 333.339203 88.878743 
L 334.425005 88.585783 
L 335.510806 87.855191 
L 336.596607 86.697817 
L 337.682408 86.498893 
L 338.768209 86.77377 
L 339.85401 86.867806 
L 340.939811 85.298118 
L 342.025613 84.809851 
L 343.111414 83.930971 
L 344.197215 83.301649 
L 345.283016 83.70673 
L 346.368817 82.968904 
L 347.454618 82.458936 
L 348.54042 81.164125 
L 349.626221 80.574588 
L 350.712022 81.135191 
L 351.797823 80.759044 
L 355.055227 78.303242 
L 356.141028 76.899927 
L 357.226829 76.241671 
L 358.31263 76.41166 
L 359.398431 77.323091 
L 360.484232 75.865524 
L 362.655835 74.708151 
L 363.741636 73.391638 
L 364.827437 73.941391 
L 365.913238 72.755083 
L 366.999039 71.930454 
L 368.08484 73.756934 
L 369.170642 75.192801 
L 370.256443 76.838441 
L 371.342244 78.907247 
L 372.428045 79.999518 
L 373.513846 80.126105 
L 374.599647 81.146041 
L 375.685448 81.670476 
L 376.77125 80.925417 
L 377.857051 81.410067 
L 378.942852 81.084555 
L 380.028653 81.102639 
L 381.114454 81.323264 
L 382.200255 81.399216 
L 383.286057 81.750045 
L 384.371858 80.925417 
L 385.457659 82.035772 
L 387.629261 82.180443 
L 388.715062 81.420917 
L 389.800863 82.448086 
L 390.886665 82.534889 
L 391.972466 82.024921 
L 393.058267 82.404685 
L 394.144068 81.739195 
L 395.229869 82.845933 
L 396.31567 82.965287 
L 397.401472 83.22208 
L 398.487273 83.32335 
L 398.487273 83.32335 
" clip-path="url(#pce31dd243f)" style="fill: none; stroke: #1f77b4; stroke-width: 1.5; stroke-linecap: square"/>
   </g>
   <g id="line2d_19">
    <path d="M 73.832727 274.554006 
L 74.918528 255.131832 
L 76.00433 232.02053 
L 78.175932 208.041197 
L 79.261733 199.397064 
L 80.347534 182.144964 
L 81.433335 178.600508 
L 82.519137 167.352284 
L 83.604938 163.446149 
L 84.690739 154.223328 
L 85.77654 152.342596 
L 86.862341 144.747333 
L 87.948142 138.273274 
L 89.033943 136.645718 
L 90.119745 133.535277 
L 91.205546 130.063156 
L 92.291347 125.65067 
L 93.377148 125.433662 
L 94.462949 125.65067 
L 95.54875 162.831294 
L 96.634552 157.044426 
L 97.720353 157.767785 
L 98.806154 149.087483 
L 99.891955 143.553791 
L 100.977756 139.032801 
L 102.063557 139.973167 
L 103.149358 132.305567 
L 104.23516 129.592973 
L 105.320961 128.001584 
L 106.406762 129.629141 
L 107.492563 122.070045 
L 108.578364 122.793404 
L 109.664165 114.366278 
L 110.749967 118.634093 
L 111.835768 118.236245 
L 112.921569 114.727957 
L 114.00737 111.726019 
L 115.093171 111.219668 
L 116.178972 108.326235 
L 117.264773 104.998786 
L 118.350575 106.590174 
L 119.436376 99.790605 
L 120.522177 98.741735 
L 121.607978 97.295018 
L 122.693779 94.293081 
L 123.77958 94.437752 
L 124.865382 92.9187 
L 125.951183 89.301907 
L 127.036984 88.759389 
L 128.122785 86.661649 
L 129.208586 86.806321 
L 130.294387 84.817085 
L 131.380189 83.587376 
L 132.46599 81.236461 
L 133.551791 81.742812 
L 134.637592 81.525804 
L 135.723393 79.68124 
L 136.809194 79.68124 
L 137.894995 80.223759 
L 138.980797 119.538291 
L 140.066598 126.229356 
L 141.152399 118.923436 
L 142.2382 127.422898 
L 143.324001 116.24701 
L 144.409802 117.187376 
L 145.495604 114.691789 
L 146.581405 114.113102 
L 147.667206 113.064233 
L 148.753007 114.438614 
L 149.838808 111.834523 
L 150.924609 119.646794 
L 152.01041 116.138506 
L 153.096212 111.870691 
L 154.182013 106.915686 
L 155.267814 117.512887 
L 156.353615 104.781778 
L 157.439416 106.373167 
L 158.525217 108.362403 
L 159.611019 105.97532 
L 160.69682 108.470906 
L 161.782621 99.284254 
L 162.868422 105.360465 
L 163.954223 97.873705 
L 165.040024 100.730971 
L 166.125825 102.467031 
L 167.211627 102.177688 
L 168.297428 98.850239 
L 169.383229 93.859066 
L 170.46903 95.486622 
L 171.554831 92.340013 
L 172.640632 94.076073 
L 173.726434 92.123005 
L 174.812235 96.752499 
L 175.898036 87.457343 
L 176.983837 88.614717 
L 178.069638 90.712456 
L 179.155439 87.782855 
L 180.24124 85.323436 
L 181.327042 84.129895 
L 182.412843 84.780917 
L 183.498644 84.238398 
L 184.584445 87.710519 
L 186.756047 82.104491 
L 187.841849 81.525804 
L 188.92765 80.54927 
L 190.013451 77.113318 
L 191.099252 75.775104 
L 192.185053 76.498463 
L 193.270854 76.064448 
L 194.356656 74.943242 
L 195.442457 73.424189 
L 196.528258 72.519991 
L 197.614059 72.845503 
L 198.69986 70.639259 
L 199.785661 71.941305 
L 200.871462 68.505352 
L 201.957264 69.22871 
L 203.043065 67.962833 
L 204.128866 69.22871 
L 205.214667 66.299109 
L 206.300468 65.75659 
L 207.386269 63.731186 
L 208.472071 64.092865 
L 209.557872 63.514179 
L 211.729474 60.18673 
L 212.815275 60.403737 
L 213.901076 60.078226 
L 214.986877 60.222898 
L 216.072679 59.391036 
L 217.15848 59.933554 
L 218.244281 59.3187 
L 219.330082 58.993188 
L 220.415883 59.101692 
L 222.587486 58.848517 
L 223.673287 58.776181 
L 224.759088 59.174028 
L 225.844889 124.746471 
L 226.93069 107.819884 
L 228.016491 114.402446 
L 229.102292 107.060357 
L 230.188094 110.930325 
L 231.273895 108.796418 
L 232.359696 104.817946 
L 233.445497 104.962618 
L 234.531298 101.852177 
L 235.617099 102.864878 
L 236.702901 106.481671 
L 237.788702 103.624405 
L 238.874503 101.743673 
L 239.960304 97.078011 
L 241.046105 103.986084 
L 242.131906 99.465094 
L 243.217708 104.022252 
L 244.303509 99.682101 
L 245.38931 99.609765 
L 246.475111 107.783716 
L 247.560912 95.414286 
L 248.646713 93.895234 
L 249.732514 98.705567 
L 250.818316 110.966493 
L 251.904117 101.056482 
L 252.989918 93.135707 
L 254.075719 95.052607 
L 255.16152 96.57166 
L 256.247321 96.209981 
L 257.333123 93.099539 
L 258.418924 91.616654 
L 259.504725 97.295018 
L 260.590526 93.859066 
L 261.676327 89.989098 
L 262.762128 95.70363 
L 263.847929 99.645933 
L 264.933731 92.484685 
L 266.019532 95.378118 
L 267.105333 92.267677 
L 268.191134 100.767139 
L 269.276935 93.642058 
L 270.362736 88.325374 
L 271.448538 93.063371 
L 272.534339 92.882532 
L 273.62014 94.763264 
L 274.705941 99.682101 
L 275.791742 87.34884 
L 276.877543 86.046794 
L 277.963344 87.312672 
L 279.049146 90.929464 
L 280.134947 92.520853 
L 281.220748 90.314609 
L 282.306549 91.544319 
L 283.39235 85.178764 
L 284.478151 92.303845 
L 285.563953 89.808258 
L 286.649754 94.65476 
L 287.735555 85.685115 
L 288.821356 86.444642 
L 289.907157 89.555083 
L 290.992958 88.21687 
L 292.07876 83.478872 
L 293.164561 90.350777 
L 294.250362 88.108366 
L 295.336163 83.985223 
L 296.421964 84.997925 
L 297.507765 80.693942 
L 298.593566 84.238398 
L 299.679368 86.11913 
L 300.765169 82.321498 
L 301.85097 84.491574 
L 302.936771 87.168 
L 304.022572 78.849378 
L 305.108373 85.902123 
L 306.194175 79.825912 
L 307.279976 81.019453 
L 308.365777 80.079087 
L 309.451578 80.585438 
L 310.537379 80.910949 
L 311.62318 77.872844 
L 312.708981 77.474997 
L 313.794783 77.94518 
L 314.880584 80.259927 
L 315.966385 73.06251 
L 317.052186 73.351854 
L 318.137987 72.266816 
L 319.223788 78.777042 
L 320.30959 72.809335 
L 321.395391 74.002876 
L 322.481192 73.460357 
L 323.566993 72.556159 
L 324.652794 74.97941 
L 325.738595 71.724297 
L 326.824396 70.639259 
L 328.995999 70.349916 
L 330.0818 68.071337 
L 331.167601 70.132909 
L 332.253402 68.975535 
L 333.339203 68.794695 
L 334.425005 69.22871 
L 335.510806 67.854329 
L 336.596607 65.503414 
L 337.682408 68.035169 
L 338.768209 66.733124 
L 339.85401 67.167139 
L 340.939811 62.175966 
L 342.025613 63.731186 
L 343.111414 63.65885 
L 344.197215 62.97166 
L 345.283016 63.405675 
L 346.368817 63.550347 
L 347.454618 63.441843 
L 348.54042 64.309873 
L 349.626221 59.246364 
L 350.712022 62.031294 
L 351.797823 60.946256 
L 352.883624 61.778118 
L 353.969425 62.248301 
L 355.055227 59.716547 
L 356.141028 59.174028 
L 357.226829 57.112456 
L 358.31263 59.354868 
L 359.398431 57.799647 
L 360.484232 58.26983 
L 361.570033 57.727311 
L 362.655835 56.642273 
L 363.741636 56.786945 
L 364.827437 54.508366 
L 365.913238 57.329464 
L 366.999039 53.568 
L 369.170642 56.244426 
L 370.256443 60.042058 
L 371.342244 59.463371 
L 372.428045 59.752715 
L 373.513846 63.297171 
L 374.599647 63.65885 
L 375.685448 60.693081 
L 376.77125 63.333339 
L 377.857051 64.490713 
L 380.028653 62.863156 
L 381.114454 62.320637 
L 382.200255 65.214071 
L 383.286057 63.514179 
L 384.371858 62.537645 
L 385.457659 62.935492 
L 386.54346 65.141735 
L 387.629261 65.250239 
L 388.715062 60.982424 
L 389.800863 64.237537 
L 390.886665 65.973597 
L 391.972466 63.948194 
L 393.058267 63.767354 
L 394.144068 61.307935 
L 395.229869 65.141735 
L 396.31567 64.309873 
L 397.401472 61.705783 
L 398.487273 62.97166 
L 398.487273 62.97166 
" clip-path="url(#pce31dd243f)" style="fill: none; stroke: #ff7f0e; stroke-width: 1.5; stroke-linecap: square"/>
   </g>
   <g id="line2d_20">
    <path d="M 73.832727 292.898626 
L 74.918528 278.132136 
L 76.00433 267.830514 
L 77.090131 265.785156 
L 78.175932 257.479006 
L 79.261733 258.801005 
L 80.347534 251.966515 
L 81.433335 248.449497 
L 82.519137 241.340629 
L 83.604938 243.435874 
L 84.690739 238.522025 
L 85.77654 228.918818 
L 86.862341 231.413158 
L 87.948142 228.619498 
L 89.033943 221.51063 
L 90.119745 223.481158 
L 91.205546 218.093385 
L 92.291347 217.170479 
L 93.377148 218.018555 
L 94.462949 216.771385 
L 95.54875 235.478931 
L 96.634552 236.077573 
L 97.720353 239.619535 
L 98.806154 223.032177 
L 99.891955 227.521988 
L 100.977756 225.676177 
L 102.063557 220.787272 
L 103.149358 221.660291 
L 104.23516 216.048027 
L 105.320961 216.172744 
L 106.406762 217.594517 
L 107.492563 208.465235 
L 108.578364 211.383612 
L 109.664165 209.762291 
L 110.749967 203.451612 
L 111.835768 208.914216 
L 112.921569 201.705575 
L 114.00737 203.177235 
L 115.093171 203.72599 
L 116.178972 200.807612 
L 117.264773 201.755461 
L 118.350575 199.186292 
L 119.436376 195.843877 
L 120.522177 198.113726 
L 122.693779 190.35633 
L 123.77958 189.03433 
L 124.865382 189.483311 
L 125.951183 185.517311 
L 127.036984 182.474217 
L 128.122785 184.295085 
L 129.208586 184.644293 
L 131.380189 179.63067 
L 132.46599 178.782595 
L 133.551791 178.857425 
L 134.637592 179.381236 
L 135.723393 177.759916 
L 136.809194 177.285991 
L 137.894995 178.358557 
L 138.980797 209.911952 
L 140.066598 218.093385 
L 141.152399 207.617159 
L 142.2382 215.199951 
L 143.324001 207.317839 
L 144.409802 210.585423 
L 145.495604 205.19765 
L 146.581405 214.67614 
L 147.667206 202.952744 
L 148.753007 200.109197 
L 150.924609 219.490215 
L 152.01041 215.798593 
L 153.096212 201.655688 
L 154.182013 199.286065 
L 155.267814 208.016254 
L 156.353615 200.433462 
L 157.439416 200.533235 
L 158.525217 204.125084 
L 159.611019 199.61033 
L 160.69682 203.326895 
L 161.782621 192.451575 
L 162.868422 208.390405 
L 163.954223 193.424368 
L 165.040024 192.701009 
L 166.125825 189.10916 
L 167.211627 187.837047 
L 168.297428 197.016216 
L 169.383229 189.533198 
L 170.46903 196.991273 
L 171.554831 191.653387 
L 172.640632 192.077424 
L 173.726434 186.490104 
L 174.812235 189.383538 
L 175.898036 179.106859 
L 176.983837 185.417538 
L 178.069638 189.458368 
L 179.155439 180.054708 
L 180.24124 181.526368 
L 181.327042 177.909576 
L 182.412843 178.23384 
L 183.498644 179.954934 
L 185.670246 188.360858 
L 186.756047 175.51501 
L 187.841849 181.401651 
L 188.92765 183.546783 
L 190.013451 175.115916 
L 191.099252 173.270105 
L 192.185053 173.918633 
L 193.270854 175.165803 
L 194.356656 173.494595 
L 195.442457 175.914104 
L 196.528258 168.805237 
L 197.614059 166.884596 
L 198.69986 168.83018 
L 199.785661 169.279161 
L 200.871462 162.095464 
L 201.957264 163.517237 
L 203.043065 163.192973 
L 204.128866 166.959426 
L 205.214667 165.587539 
L 206.300468 163.417464 
L 207.386269 164.090935 
L 208.472071 160.848294 
L 209.557872 164.115879 
L 210.643673 159.850558 
L 211.729474 160.424256 
L 212.815275 159.301803 
L 213.901076 160.050105 
L 214.986877 159.35169 
L 216.072679 157.406105 
L 218.244281 157.530822 
L 220.415883 156.433313 
L 221.501684 155.859615 
L 222.587486 156.084106 
L 223.673287 156.882294 
L 224.759088 155.685011 
L 225.844889 216.646668 
L 226.93069 208.240744 
L 228.016491 203.601273 
L 229.102292 203.202178 
L 230.188094 206.918744 
L 231.273895 196.242971 
L 232.359696 210.884744 
L 233.445497 207.667046 
L 234.531298 195.070632 
L 235.617099 199.086518 
L 236.702901 197.639801 
L 237.788702 201.23165 
L 238.874503 193.22482 
L 239.960304 191.154519 
L 241.046105 199.335952 
L 242.131906 194.696481 
L 243.217708 199.036631 
L 244.303509 196.816669 
L 245.38931 198.28833 
L 246.475111 211.209008 
L 247.560912 188.909613 
L 248.646713 186.290557 
L 249.732514 191.877877 
L 250.818316 207.392669 
L 251.904117 197.490141 
L 252.989918 189.957236 
L 254.075719 186.515047 
L 255.16152 191.803047 
L 256.247321 190.456104 
L 257.333123 192.027538 
L 258.418924 188.710066 
L 259.504725 196.866556 
L 260.590526 187.936821 
L 261.676327 183.222519 
L 262.762128 189.857462 
L 263.847929 203.501499 
L 264.933731 190.979915 
L 266.019532 199.460669 
L 267.105333 180.204368 
L 268.191134 202.852971 
L 269.276935 184.619349 
L 270.362736 185.617085 
L 271.448538 193.00033 
L 272.534339 186.115953 
L 273.62014 186.689651 
L 274.705941 202.32916 
L 275.791742 182.648821 
L 276.877543 180.603463 
L 277.963344 186.041123 
L 279.049146 187.911877 
L 280.134947 184.419802 
L 281.220748 190.580821 
L 282.306549 195.818934 
L 283.39235 184.120481 
L 284.478151 191.778104 
L 286.649754 194.596707 
L 287.735555 183.147689 
L 289.907157 191.578556 
L 290.992958 193.249764 
L 292.07876 180.528632 
L 293.164561 189.433424 
L 294.250362 193.324594 
L 295.336163 182.723651 
L 296.421964 191.029802 
L 297.507765 183.047915 
L 298.593566 178.957199 
L 299.679368 189.907349 
L 300.765169 185.442481 
L 301.85097 190.381273 
L 302.936771 184.020708 
L 304.022572 184.893727 
L 305.108373 178.183953 
L 306.194175 187.861991 
L 307.279976 180.204368 
L 308.365777 171.623841 
L 309.451578 175.714557 
L 310.537379 182.773538 
L 311.62318 182.698708 
L 312.708981 174.068293 
L 313.794783 174.567161 
L 314.880584 179.181689 
L 315.966385 170.401614 
L 317.052186 166.510445 
L 318.137987 168.805237 
L 319.223788 177.485538 
L 320.30959 175.814331 
L 321.395391 172.64652 
L 322.481192 180.852897 
L 323.566993 168.231539 
L 324.652794 178.134067 
L 325.738595 173.644256 
L 326.824396 169.92769 
L 327.910198 176.113652 
L 328.995999 167.20886 
L 330.0818 172.172595 
L 331.167601 171.573954 
L 332.253402 167.43335 
L 333.339203 169.179388 
L 334.425005 169.403878 
L 335.510806 163.766671 
L 336.596607 164.49003 
L 337.682408 164.814294 
L 338.768209 170.052407 
L 339.85401 163.966218 
L 340.939811 162.045577 
L 342.025613 164.265539 
L 343.111414 162.344898 
L 344.197215 161.646483 
L 345.283016 164.065992 
L 346.368817 162.818822 
L 347.454618 160.773464 
L 348.54042 164.140822 
L 349.626221 160.923124 
L 350.712022 158.603388 
L 351.797823 162.295011 
L 352.883624 162.743992 
L 353.969425 164.315426 
L 355.055227 159.027426 
L 357.226829 158.977539 
L 358.31263 155.909502 
L 359.398431 155.560294 
L 360.484232 157.755313 
L 361.570033 157.630596 
L 362.655835 156.40837 
L 363.741636 157.231502 
L 364.827437 154.787049 
L 365.913238 157.455992 
L 366.999039 154.961653 
L 368.08484 155.136257 
L 369.170642 155.709955 
L 370.256443 160.349426 
L 371.342244 158.453728 
L 372.428045 160.224709 
L 373.513846 160.848294 
L 374.599647 163.741728 
L 375.685448 155.734898 
L 376.77125 169.603426 
L 377.857051 166.959426 
L 378.942852 166.236067 
L 380.028653 167.20886 
L 381.114454 162.07052 
L 382.200255 162.768935 
L 383.286057 161.297275 
L 384.371858 161.122671 
L 385.457659 164.315426 
L 386.54346 160.848294 
L 387.629261 165.363048 
L 389.800863 159.401577 
L 390.886665 163.492294 
L 391.972466 162.045577 
L 393.058267 168.381199 
L 394.144068 163.31769 
L 395.229869 165.387992 
L 396.31567 160.898181 
L 397.401472 160.324483 
L 398.487273 160.623803 
L 398.487273 160.623803 
" clip-path="url(#pce31dd243f)" style="fill: none; stroke: #2ca02c; stroke-width: 1.5; stroke-linecap: square"/>
   </g>
   <g id="line2d_21">
    <path d="M 368.08484 55.267892 
L 369.170642 57.835815 
L 370.256443 60.693081 
L 371.342244 64.454545 
L 372.428045 61.488775 
L 373.513846 63.224835 
L 374.599647 62.356805 
L 375.685448 62.10363 
L 376.77125 63.441843 
L 377.857051 63.116332 
L 378.942852 64.599216 
L 380.028653 65.286407 
L 381.114454 64.418377 
L 382.200255 66.045933 
L 383.286057 64.490713 
L 384.371858 65.828926 
L 385.457659 66.516116 
L 386.54346 67.818161 
L 387.629261 71.073274 
L 388.715062 66.190605 
L 389.800863 70.964771 
L 390.886665 73.388022 
L 391.972466 69.698893 
L 393.058267 85.902123 
L 394.144068 69.047871 
L 395.229869 74.545395 
L 397.401472 71.362618 
L 398.487273 72.085976 
L 398.487273 72.085976 
" clip-path="url(#pce31dd243f)" style="fill: none; stroke: #d62728; stroke-width: 1.5; stroke-linecap: square"/>
   </g>
   <g id="line2d_22">
    <path d="M 368.08484 159.1272 
L 369.170642 161.172558 
L 370.256443 162.918596 
L 371.342244 165.387992 
L 372.428045 159.027426 
L 373.513846 156.832407 
L 374.599647 158.952596 
L 375.685448 152.866408 
L 376.77125 159.925388 
L 377.857051 162.394784 
L 378.942852 163.766671 
L 380.028653 159.35169 
L 381.114454 164.814294 
L 382.200255 171.499124 
L 383.286057 167.707728 
L 384.371858 162.818822 
L 385.457659 161.372105 
L 386.54346 166.03652 
L 387.629261 168.056935 
L 388.715062 164.539916 
L 389.800863 173.893689 
L 390.886665 171.349463 
L 391.972466 167.158973 
L 393.058267 186.689651 
L 394.144068 166.310897 
L 395.229869 171.773501 
L 396.31567 173.719086 
L 397.401472 168.456029 
L 398.487273 170.027463 
L 398.487273 170.027463 
" clip-path="url(#pce31dd243f)" style="fill: none; stroke: #9467bd; stroke-width: 1.5; stroke-linecap: square"/>
   </g>
   <g id="patch_3">
    <path d="M 57.6 307.584 
L 57.6 41.472 
" style="fill: none; stroke: #000000; stroke-width: 0.8; stroke-linejoin: miter; stroke-linecap: square"/>
   </g>
   <g id="patch_4">
    <path d="M 414.72 307.584 
L 414.72 41.472 
" style="fill: none; stroke: #000000; stroke-width: 0.8; stroke-linejoin: miter; stroke-linecap: square"/>
   </g>
   <g id="patch_5">
    <path d="M 57.6 307.584 
L 414.72 307.584 
" style="fill: none; stroke: #000000; stroke-width: 0.8; stroke-linejoin: miter; stroke-linecap: square"/>
   </g>
   <g id="patch_6">
    <path d="M 57.6 41.472 
L 414.72 41.472 
" style="fill: none; stroke: #000000; stroke-width: 0.8; stroke-linejoin: miter; stroke-linecap: square"/>
   </g>
   <g id="text_20">
    <!-- Learning Curves -->
    <g transform="translate(187.37625 35.472) scale(0.12 -0.12)">
     <defs>
      <path id="DejaVuSans-4c" d="M 628 4666 
L 1259 4666 
L 1259 531 
L 3531 531 
L 3531 0 
L 628 0 
L 628 4666 
z
" transform="scale(0.015625)"/>
      <path id="DejaVuSans-65" d="M 3597 1894 
L 3597 1613 
L 953 1613 
Q 991 1019 1311 708 
Q 1631 397 2203 397 
Q 2534 397 2845 478 
Q 3156 559 3463 722 
L 3463 178 
Q 3153 47 2828 -22 
Q 2503 -91 2169 -91 
Q 1331 -91 842 396 
Q 353 884 353 1716 
Q 353 2575 817 3079 
Q 1281 3584 2069 3584 
Q 2775 3584 3186 3129 
Q 3597 2675 3597 1894 
z
M 3022 2063 
Q 3016 2534 2758 2815 
Q 2500 3097 2075 3097 
Q 1594 3097 1305 2825 
Q 1016 2553 972 2059 
L 3022 2063 
z
" transform="scale(0.015625)"/>
      <path id="DejaVuSans-6e" d="M 3513 2113 
L 3513 0 
L 2938 0 
L 2938 2094 
Q 2938 2591 2744 2837 
Q 2550 3084 2163 3084 
Q 1697 3084 1428 2787 
Q 1159 2491 1159 1978 
L 1159 0 
L 581 0 
L 581 3500 
L 1159 3500 
L 1159 2956 
Q 1366 3272 1645 3428 
Q 1925 3584 2291 3584 
Q 2894 3584 3203 3211 
Q 3513 2838 3513 2113 
z
" transform="scale(0.015625)"/>
      <path id="DejaVuSans-69" d="M 603 3500 
L 1178 3500 
L 1178 0 
L 603 0 
L 603 3500 
z
M 603 4863 
L 1178 4863 
L 1178 4134 
L 603 4134 
L 603 4863 
z
" transform="scale(0.015625)"/>
      <path id="DejaVuSans-67" d="M 2906 1791 
Q 2906 2416 2648 2759 
Q 2391 3103 1925 3103 
Q 1463 3103 1205 2759 
Q 947 2416 947 1791 
Q 947 1169 1205 825 
Q 1463 481 1925 481 
Q 2391 481 2648 825 
Q 2906 1169 2906 1791 
z
M 3481 434 
Q 3481 -459 3084 -895 
Q 2688 -1331 1869 -1331 
Q 1566 -1331 1297 -1286 
Q 1028 -1241 775 -1147 
L 775 -588 
Q 1028 -725 1275 -790 
Q 1522 -856 1778 -856 
Q 2344 -856 2625 -561 
Q 2906 -266 2906 331 
L 2906 616 
Q 2728 306 2450 153 
Q 2172 0 1784 0 
Q 1141 0 747 490 
Q 353 981 353 1791 
Q 353 2603 747 3093 
Q 1141 3584 1784 3584 
Q 2172 3584 2450 3431 
Q 2728 3278 2906 2969 
L 2906 3500 
L 3481 3500 
L 3481 434 
z
" transform="scale(0.015625)"/>
      <path id="DejaVuSans-20" transform="scale(0.015625)"/>
      <path id="DejaVuSans-43" d="M 4122 4306 
L 4122 3641 
Q 3803 3938 3442 4084 
Q 3081 4231 2675 4231 
Q 1875 4231 1450 3742 
Q 1025 3253 1025 2328 
Q 1025 1406 1450 917 
Q 1875 428 2675 428 
Q 3081 428 3442 575 
Q 3803 722 4122 1019 
L 4122 359 
Q 3791 134 3420 21 
Q 3050 -91 2638 -91 
Q 1578 -91 968 557 
Q 359 1206 359 2328 
Q 359 3453 968 4101 
Q 1578 4750 2638 4750 
Q 3056 4750 3426 4639 
Q 3797 4528 4122 4306 
z
" transform="scale(0.015625)"/>
      <path id="DejaVuSans-76" d="M 191 3500 
L 800 3500 
L 1894 563 
L 2988 3500 
L 3597 3500 
L 2284 0 
L 1503 0 
L 191 3500 
z
" transform="scale(0.015625)"/>
     </defs>
     <use xlink:href="#DejaVuSans-4c"/>
     <use xlink:href="#DejaVuSans-65" x="53.962891"/>
     <use xlink:href="#DejaVuSans-61" x="115.486328"/>
     <use xlink:href="#DejaVuSans-72" x="176.765625"/>
     <use xlink:href="#DejaVuSans-6e" x="216.128906"/>
     <use xlink:href="#DejaVuSans-69" x="279.507812"/>
     <use xlink:href="#DejaVuSans-6e" x="307.291016"/>
     <use xlink:href="#DejaVuSans-67" x="370.669922"/>
     <use xlink:href="#DejaVuSans-20" x="434.146484"/>
     <use xlink:href="#DejaVuSans-43" x="465.933594"/>
     <use xlink:href="#DejaVuSans-75" x="535.757812"/>
     <use xlink:href="#DejaVuSans-72" x="599.136719"/>
     <use xlink:href="#DejaVuSans-76" x="640.25"/>
     <use xlink:href="#DejaVuSans-65" x="699.429688"/>
     <use xlink:href="#DejaVuSans-73" x="760.953125"/>
    </g>
   </g>
   <g id="legend_1">
    <g id="patch_7">
     <path d="M 214.18875 302.584 
L 407.72 302.584 
Q 409.72 302.584 409.72 300.584 
L 409.72 228.193375 
Q 409.72 226.193375 407.72 226.193375 
L 214.18875 226.193375 
Q 212.18875 226.193375 212.18875 228.193375 
L 212.18875 300.584 
Q 212.18875 302.584 214.18875 302.584 
z
" style="fill: #ffffff; opacity: 0.8; stroke: #cccccc; stroke-linejoin: miter"/>
    </g>
    <g id="line2d_23">
     <path d="M 216.18875 234.291812 
L 226.18875 234.291812 
L 236.18875 234.291812 
" style="fill: none; stroke: #1f77b4; stroke-width: 1.5; stroke-linecap: square"/>
    </g>
    <g id="text_21">
     <!-- Train Accuracy -->
     <g transform="translate(244.18875 237.791812) scale(0.1 -0.1)">
      <defs>
       <path id="DejaVuSans-54" d="M -19 4666 
L 3928 4666 
L 3928 4134 
L 2272 4134 
L 2272 0 
L 1638 0 
L 1638 4134 
L -19 4134 
L -19 4666 
z
" transform="scale(0.015625)"/>
      </defs>
      <use xlink:href="#DejaVuSans-54"/>
      <use xlink:href="#DejaVuSans-72" x="46.333984"/>
      <use xlink:href="#DejaVuSans-61" x="87.447266"/>
      <use xlink:href="#DejaVuSans-69" x="148.726562"/>
      <use xlink:href="#DejaVuSans-6e" x="176.509766"/>
      <use xlink:href="#DejaVuSans-20" x="239.888672"/>
      <use xlink:href="#DejaVuSans-41" x="271.675781"/>
      <use xlink:href="#DejaVuSans-63" x="338.333984"/>
      <use xlink:href="#DejaVuSans-63" x="393.314453"/>
      <use xlink:href="#DejaVuSans-75" x="448.294922"/>
      <use xlink:href="#DejaVuSans-72" x="511.673828"/>
      <use xlink:href="#DejaVuSans-61" x="552.787109"/>
      <use xlink:href="#DejaVuSans-63" x="614.066406"/>
      <use xlink:href="#DejaVuSans-79" x="669.046875"/>
     </g>
    </g>
    <g id="line2d_24">
     <path d="M 216.18875 248.969937 
L 226.18875 248.969937 
L 236.18875 248.969937 
" style="fill: none; stroke: #ff7f0e; stroke-width: 1.5; stroke-linecap: square"/>
    </g>
    <g id="text_22">
     <!-- Validation Accuracy -->
     <g transform="translate(244.18875 252.469937) scale(0.1 -0.1)">
      <defs>
       <path id="DejaVuSans-56" d="M 1831 0 
L 50 4666 
L 709 4666 
L 2188 738 
L 3669 4666 
L 4325 4666 
L 2547 0 
L 1831 0 
z
" transform="scale(0.015625)"/>
       <path id="DejaVuSans-6c" d="M 603 4863 
L 1178 4863 
L 1178 0 
L 603 0 
L 603 4863 
z
" transform="scale(0.015625)"/>
       <path id="DejaVuSans-64" d="M 2906 2969 
L 2906 4863 
L 3481 4863 
L 3481 0 
L 2906 0 
L 2906 525 
Q 2725 213 2448 61 
Q 2172 -91 1784 -91 
Q 1150 -91 751 415 
Q 353 922 353 1747 
Q 353 2572 751 3078 
Q 1150 3584 1784 3584 
Q 2172 3584 2448 3432 
Q 2725 3281 2906 2969 
z
M 947 1747 
Q 947 1113 1208 752 
Q 1469 391 1925 391 
Q 2381 391 2643 752 
Q 2906 1113 2906 1747 
Q 2906 2381 2643 2742 
Q 2381 3103 1925 3103 
Q 1469 3103 1208 2742 
Q 947 2381 947 1747 
z
" transform="scale(0.015625)"/>
       <path id="DejaVuSans-74" d="M 1172 4494 
L 1172 3500 
L 2356 3500 
L 2356 3053 
L 1172 3053 
L 1172 1153 
Q 1172 725 1289 603 
Q 1406 481 1766 481 
L 2356 481 
L 2356 0 
L 1766 0 
Q 1100 0 847 248 
Q 594 497 594 1153 
L 594 3053 
L 172 3053 
L 172 3500 
L 594 3500 
L 594 4494 
L 1172 4494 
z
" transform="scale(0.015625)"/>
      </defs>
      <use xlink:href="#DejaVuSans-56"/>
      <use xlink:href="#DejaVuSans-61" x="60.658203"/>
      <use xlink:href="#DejaVuSans-6c" x="121.9375"/>
      <use xlink:href="#DejaVuSans-69" x="149.720703"/>
      <use xlink:href="#DejaVuSans-64" x="177.503906"/>
      <use xlink:href="#DejaVuSans-61" x="240.980469"/>
      <use xlink:href="#DejaVuSans-74" x="302.259766"/>
      <use xlink:href="#DejaVuSans-69" x="341.46875"/>
      <use xlink:href="#DejaVuSans-6f" x="369.251953"/>
      <use xlink:href="#DejaVuSans-6e" x="430.433594"/>
      <use xlink:href="#DejaVuSans-20" x="493.8125"/>
      <use xlink:href="#DejaVuSans-41" x="525.599609"/>
      <use xlink:href="#DejaVuSans-63" x="592.257812"/>
      <use xlink:href="#DejaVuSans-63" x="647.238281"/>
      <use xlink:href="#DejaVuSans-75" x="702.21875"/>
      <use xlink:href="#DejaVuSans-72" x="765.597656"/>
      <use xlink:href="#DejaVuSans-61" x="806.710938"/>
      <use xlink:href="#DejaVuSans-63" x="867.990234"/>
      <use xlink:href="#DejaVuSans-79" x="922.970703"/>
     </g>
    </g>
    <g id="line2d_25">
     <path d="M 216.18875 263.648062 
L 226.18875 263.648062 
L 236.18875 263.648062 
" style="fill: none; stroke: #2ca02c; stroke-width: 1.5; stroke-linecap: square"/>
    </g>
    <g id="text_23">
     <!-- Robust Validation Accuracy -->
     <g transform="translate(244.18875 267.148062) scale(0.1 -0.1)">
      <defs>
       <path id="DejaVuSans-52" d="M 2841 2188 
Q 3044 2119 3236 1894 
Q 3428 1669 3622 1275 
L 4263 0 
L 3584 0 
L 2988 1197 
Q 2756 1666 2539 1819 
Q 2322 1972 1947 1972 
L 1259 1972 
L 1259 0 
L 628 0 
L 628 4666 
L 2053 4666 
Q 2853 4666 3247 4331 
Q 3641 3997 3641 3322 
Q 3641 2881 3436 2590 
Q 3231 2300 2841 2188 
z
M 1259 4147 
L 1259 2491 
L 2053 2491 
Q 2509 2491 2742 2702 
Q 2975 2913 2975 3322 
Q 2975 3731 2742 3939 
Q 2509 4147 2053 4147 
L 1259 4147 
z
" transform="scale(0.015625)"/>
       <path id="DejaVuSans-62" d="M 3116 1747 
Q 3116 2381 2855 2742 
Q 2594 3103 2138 3103 
Q 1681 3103 1420 2742 
Q 1159 2381 1159 1747 
Q 1159 1113 1420 752 
Q 1681 391 2138 391 
Q 2594 391 2855 752 
Q 3116 1113 3116 1747 
z
M 1159 2969 
Q 1341 3281 1617 3432 
Q 1894 3584 2278 3584 
Q 2916 3584 3314 3078 
Q 3713 2572 3713 1747 
Q 3713 922 3314 415 
Q 2916 -91 2278 -91 
Q 1894 -91 1617 61 
Q 1341 213 1159 525 
L 1159 0 
L 581 0 
L 581 4863 
L 1159 4863 
L 1159 2969 
z
" transform="scale(0.015625)"/>
      </defs>
      <use xlink:href="#DejaVuSans-52"/>
      <use xlink:href="#DejaVuSans-6f" x="64.982422"/>
      <use xlink:href="#DejaVuSans-62" x="126.164062"/>
      <use xlink:href="#DejaVuSans-75" x="189.640625"/>
      <use xlink:href="#DejaVuSans-73" x="253.019531"/>
      <use xlink:href="#DejaVuSans-74" x="305.119141"/>
      <use xlink:href="#DejaVuSans-20" x="344.328125"/>
      <use xlink:href="#DejaVuSans-56" x="376.115234"/>
      <use xlink:href="#DejaVuSans-61" x="436.773438"/>
      <use xlink:href="#DejaVuSans-6c" x="498.052734"/>
      <use xlink:href="#DejaVuSans-69" x="525.835938"/>
      <use xlink:href="#DejaVuSans-64" x="553.619141"/>
      <use xlink:href="#DejaVuSans-61" x="617.095703"/>
      <use xlink:href="#DejaVuSans-74" x="678.375"/>
      <use xlink:href="#DejaVuSans-69" x="717.583984"/>
      <use xlink:href="#DejaVuSans-6f" x="745.367188"/>
      <use xlink:href="#DejaVuSans-6e" x="806.548828"/>
      <use xlink:href="#DejaVuSans-20" x="869.927734"/>
      <use xlink:href="#DejaVuSans-41" x="901.714844"/>
      <use xlink:href="#DejaVuSans-63" x="968.373047"/>
      <use xlink:href="#DejaVuSans-63" x="1023.353516"/>
      <use xlink:href="#DejaVuSans-75" x="1078.333984"/>
      <use xlink:href="#DejaVuSans-72" x="1141.712891"/>
      <use xlink:href="#DejaVuSans-61" x="1182.826172"/>
      <use xlink:href="#DejaVuSans-63" x="1244.105469"/>
      <use xlink:href="#DejaVuSans-79" x="1299.085938"/>
     </g>
    </g>
    <g id="line2d_26">
     <path d="M 216.18875 278.326188 
L 226.18875 278.326188 
L 236.18875 278.326188 
" style="fill: none; stroke: #d62728; stroke-width: 1.5; stroke-linecap: square"/>
    </g>
    <g id="text_24">
     <!-- SWA Validation Accuracy -->
     <g transform="translate(244.18875 281.826188) scale(0.1 -0.1)">
      <defs>
       <path id="DejaVuSans-53" d="M 3425 4513 
L 3425 3897 
Q 3066 4069 2747 4153 
Q 2428 4238 2131 4238 
Q 1616 4238 1336 4038 
Q 1056 3838 1056 3469 
Q 1056 3159 1242 3001 
Q 1428 2844 1947 2747 
L 2328 2669 
Q 3034 2534 3370 2195 
Q 3706 1856 3706 1288 
Q 3706 609 3251 259 
Q 2797 -91 1919 -91 
Q 1588 -91 1214 -16 
Q 841 59 441 206 
L 441 856 
Q 825 641 1194 531 
Q 1563 422 1919 422 
Q 2459 422 2753 634 
Q 3047 847 3047 1241 
Q 3047 1584 2836 1778 
Q 2625 1972 2144 2069 
L 1759 2144 
Q 1053 2284 737 2584 
Q 422 2884 422 3419 
Q 422 4038 858 4394 
Q 1294 4750 2059 4750 
Q 2388 4750 2728 4690 
Q 3069 4631 3425 4513 
z
" transform="scale(0.015625)"/>
       <path id="DejaVuSans-57" d="M 213 4666 
L 850 4666 
L 1831 722 
L 2809 4666 
L 3519 4666 
L 4500 722 
L 5478 4666 
L 6119 4666 
L 4947 0 
L 4153 0 
L 3169 4050 
L 2175 0 
L 1381 0 
L 213 4666 
z
" transform="scale(0.015625)"/>
      </defs>
      <use xlink:href="#DejaVuSans-53"/>
      <use xlink:href="#DejaVuSans-57" x="63.476562"/>
      <use xlink:href="#DejaVuSans-41" x="156.853516"/>
      <use xlink:href="#DejaVuSans-20" x="225.261719"/>
      <use xlink:href="#DejaVuSans-56" x="257.048828"/>
      <use xlink:href="#DejaVuSans-61" x="317.707031"/>
      <use xlink:href="#DejaVuSans-6c" x="378.986328"/>
      <use xlink:href="#DejaVuSans-69" x="406.769531"/>
      <use xlink:href="#DejaVuSans-64" x="434.552734"/>
      <use xlink:href="#DejaVuSans-61" x="498.029297"/>
      <use xlink:href="#DejaVuSans-74" x="559.308594"/>
      <use xlink:href="#DejaVuSans-69" x="598.517578"/>
      <use xlink:href="#DejaVuSans-6f" x="626.300781"/>
      <use xlink:href="#DejaVuSans-6e" x="687.482422"/>
      <use xlink:href="#DejaVuSans-20" x="750.861328"/>
      <use xlink:href="#DejaVuSans-41" x="782.648438"/>
      <use xlink:href="#DejaVuSans-63" x="849.306641"/>
      <use xlink:href="#DejaVuSans-63" x="904.287109"/>
      <use xlink:href="#DejaVuSans-75" x="959.267578"/>
      <use xlink:href="#DejaVuSans-72" x="1022.646484"/>
      <use xlink:href="#DejaVuSans-61" x="1063.759766"/>
      <use xlink:href="#DejaVuSans-63" x="1125.039062"/>
      <use xlink:href="#DejaVuSans-79" x="1180.019531"/>
     </g>
    </g>
    <g id="line2d_27">
     <path d="M 216.18875 293.004312 
L 226.18875 293.004312 
L 236.18875 293.004312 
" style="fill: none; stroke: #9467bd; stroke-width: 1.5; stroke-linecap: square"/>
    </g>
    <g id="text_25">
     <!-- SWA Robust Validation Accuracy -->
     <g transform="translate(244.18875 296.504312) scale(0.1 -0.1)">
      <use xlink:href="#DejaVuSans-53"/>
      <use xlink:href="#DejaVuSans-57" x="63.476562"/>
      <use xlink:href="#DejaVuSans-41" x="156.853516"/>
      <use xlink:href="#DejaVuSans-20" x="225.261719"/>
      <use xlink:href="#DejaVuSans-52" x="257.048828"/>
      <use xlink:href="#DejaVuSans-6f" x="322.03125"/>
      <use xlink:href="#DejaVuSans-62" x="383.212891"/>
      <use xlink:href="#DejaVuSans-75" x="446.689453"/>
      <use xlink:href="#DejaVuSans-73" x="510.068359"/>
      <use xlink:href="#DejaVuSans-74" x="562.167969"/>
      <use xlink:href="#DejaVuSans-20" x="601.376953"/>
      <use xlink:href="#DejaVuSans-56" x="633.164062"/>
      <use xlink:href="#DejaVuSans-61" x="693.822266"/>
      <use xlink:href="#DejaVuSans-6c" x="755.101562"/>
      <use xlink:href="#DejaVuSans-69" x="782.884766"/>
      <use xlink:href="#DejaVuSans-64" x="810.667969"/>
      <use xlink:href="#DejaVuSans-61" x="874.144531"/>
      <use xlink:href="#DejaVuSans-74" x="935.423828"/>
      <use xlink:href="#DejaVuSans-69" x="974.632812"/>
      <use xlink:href="#DejaVuSans-6f" x="1002.416016"/>
      <use xlink:href="#DejaVuSans-6e" x="1063.597656"/>
      <use xlink:href="#DejaVuSans-20" x="1126.976562"/>
      <use xlink:href="#DejaVuSans-41" x="1158.763672"/>
      <use xlink:href="#DejaVuSans-63" x="1225.421875"/>
      <use xlink:href="#DejaVuSans-63" x="1280.402344"/>
      <use xlink:href="#DejaVuSans-75" x="1335.382812"/>
      <use xlink:href="#DejaVuSans-72" x="1398.761719"/>
      <use xlink:href="#DejaVuSans-61" x="1439.875"/>
      <use xlink:href="#DejaVuSans-63" x="1501.154297"/>
      <use xlink:href="#DejaVuSans-79" x="1556.134766"/>
     </g>
    </g>
   </g>
  </g>
 </g>
 <defs>
  <clipPath id="pce31dd243f">
   <rect x="57.6" y="41.472" width="357.12" height="266.112"/>
  </clipPath>
 </defs>
</svg>
