<?xml version="1.0" encoding="utf-8" standalone="no"?>
<!DOCTYPE svg PUBLIC "-//W3C//DTD SVG 1.1//EN"
  "http://www.w3.org/Graphics/SVG/1.1/DTD/svg11.dtd">
<svg xmlns:xlink="http://www.w3.org/1999/xlink" width="460.8pt" height="345.6pt" viewBox="0 0 460.8 345.6" xmlns="http://www.w3.org/2000/svg" version="1.1">
 <metadata>
  <rdf:RDF xmlns:dc="http://purl.org/dc/elements/1.1/" xmlns:cc="http://creativecommons.org/ns#" xmlns:rdf="http://www.w3.org/1999/02/22-rdf-syntax-ns#">
   <cc:Work>
    <dc:type rdf:resource="http://purl.org/dc/dcmitype/StillImage"/>
    <dc:date>2025-01-19T00:20:54.350875</dc:date>
    <dc:format>image/svg+xml</dc:format>
    <dc:creator>
     <cc:Agent>
      <dc:title>Matplotlib v3.9.1, https://matplotlib.org/</dc:title>
     </cc:Agent>
    </dc:creator>
   </cc:Work>
  </rdf:RDF>
 </metadata>
 <defs>
  <style type="text/css">*{stroke-linejoin: round; stroke-linecap: butt}</style>
 </defs>
 <g id="figure_1">
  <g id="patch_1">
   <path d="M 0 345.6 
L 460.8 345.6 
L 460.8 0 
L 0 0 
z
" style="fill: #ffffff"/>
  </g>
  <g id="axes_1">
   <g id="patch_2">
    <path d="M 57.6 307.584 
L 414.72 307.584 
L 414.72 41.472 
L 57.6 41.472 
z
" style="fill: #ffffff"/>
   </g>
   <g id="matplotlib.axis_1">
    <g id="xtick_1">
     <g id="line2d_1">
      <defs>
       <path id="mfab9e27cf6" d="M 0 0 
L 0 3.5 
" style="stroke: #000000; stroke-width: 0.8"/>
      </defs>
      <g>
       <use xlink:href="#mfab9e27cf6" x="73.832727" y="307.584" style="stroke: #000000; stroke-width: 0.8"/>
      </g>
     </g>
     <g id="text_1">
      <!-- 1 -->
      <g transform="translate(70.651477 322.182437) scale(0.1 -0.1)">
       <defs>
        <path id="DejaVuSans-31" d="M 794 531 
L 1825 531 
L 1825 4091 
L 703 3866 
L 703 4441 
L 1819 4666 
L 2450 4666 
L 2450 531 
L 3481 531 
L 3481 0 
L 794 0 
L 794 531 
z
" transform="scale(0.015625)"/>
       </defs>
       <use xlink:href="#DejaVuSans-31"/>
      </g>
     </g>
    </g>
    <g id="xtick_2">
     <g id="line2d_2">
      <g>
       <use xlink:href="#mfab9e27cf6" x="109.664165" y="307.584" style="stroke: #000000; stroke-width: 0.8"/>
      </g>
     </g>
     <g id="text_2">
      <!-- 34 -->
      <g transform="translate(103.301665 322.182437) scale(0.1 -0.1)">
       <defs>
        <path id="DejaVuSans-33" d="M 2597 2516 
Q 3050 2419 3304 2112 
Q 3559 1806 3559 1356 
Q 3559 666 3084 287 
Q 2609 -91 1734 -91 
Q 1441 -91 1130 -33 
Q 819 25 488 141 
L 488 750 
Q 750 597 1062 519 
Q 1375 441 1716 441 
Q 2309 441 2620 675 
Q 2931 909 2931 1356 
Q 2931 1769 2642 2001 
Q 2353 2234 1838 2234 
L 1294 2234 
L 1294 2753 
L 1863 2753 
Q 2328 2753 2575 2939 
Q 2822 3125 2822 3475 
Q 2822 3834 2567 4026 
Q 2313 4219 1838 4219 
Q 1578 4219 1281 4162 
Q 984 4106 628 3988 
L 628 4550 
Q 988 4650 1302 4700 
Q 1616 4750 1894 4750 
Q 2613 4750 3031 4423 
Q 3450 4097 3450 3541 
Q 3450 3153 3228 2886 
Q 3006 2619 2597 2516 
z
" transform="scale(0.015625)"/>
        <path id="DejaVuSans-34" d="M 2419 4116 
L 825 1625 
L 2419 1625 
L 2419 4116 
z
M 2253 4666 
L 3047 4666 
L 3047 1625 
L 3713 1625 
L 3713 1100 
L 3047 1100 
L 3047 0 
L 2419 0 
L 2419 1100 
L 313 1100 
L 313 1709 
L 2253 4666 
z
" transform="scale(0.015625)"/>
       </defs>
       <use xlink:href="#DejaVuSans-33"/>
       <use xlink:href="#DejaVuSans-34" x="63.623047"/>
      </g>
     </g>
    </g>
    <g id="xtick_3">
     <g id="line2d_3">
      <g>
       <use xlink:href="#mfab9e27cf6" x="145.495604" y="307.584" style="stroke: #000000; stroke-width: 0.8"/>
      </g>
     </g>
     <g id="text_3">
      <!-- 67 -->
      <g transform="translate(139.133104 322.182437) scale(0.1 -0.1)">
       <defs>
        <path id="DejaVuSans-36" d="M 2113 2584 
Q 1688 2584 1439 2293 
Q 1191 2003 1191 1497 
Q 1191 994 1439 701 
Q 1688 409 2113 409 
Q 2538 409 2786 701 
Q 3034 994 3034 1497 
Q 3034 2003 2786 2293 
Q 2538 2584 2113 2584 
z
M 3366 4563 
L 3366 3988 
Q 3128 4100 2886 4159 
Q 2644 4219 2406 4219 
Q 1781 4219 1451 3797 
Q 1122 3375 1075 2522 
Q 1259 2794 1537 2939 
Q 1816 3084 2150 3084 
Q 2853 3084 3261 2657 
Q 3669 2231 3669 1497 
Q 3669 778 3244 343 
Q 2819 -91 2113 -91 
Q 1303 -91 875 529 
Q 447 1150 447 2328 
Q 447 3434 972 4092 
Q 1497 4750 2381 4750 
Q 2619 4750 2861 4703 
Q 3103 4656 3366 4563 
z
" transform="scale(0.015625)"/>
        <path id="DejaVuSans-37" d="M 525 4666 
L 3525 4666 
L 3525 4397 
L 1831 0 
L 1172 0 
L 2766 4134 
L 525 4134 
L 525 4666 
z
" transform="scale(0.015625)"/>
       </defs>
       <use xlink:href="#DejaVuSans-36"/>
       <use xlink:href="#DejaVuSans-37" x="63.623047"/>
      </g>
     </g>
    </g>
    <g id="xtick_4">
     <g id="line2d_4">
      <g>
       <use xlink:href="#mfab9e27cf6" x="181.327042" y="307.584" style="stroke: #000000; stroke-width: 0.8"/>
      </g>
     </g>
     <g id="text_4">
      <!-- 100 -->
      <g transform="translate(171.783292 322.182437) scale(0.1 -0.1)">
       <defs>
        <path id="DejaVuSans-30" d="M 2034 4250 
Q 1547 4250 1301 3770 
Q 1056 3291 1056 2328 
Q 1056 1369 1301 889 
Q 1547 409 2034 409 
Q 2525 409 2770 889 
Q 3016 1369 3016 2328 
Q 3016 3291 2770 3770 
Q 2525 4250 2034 4250 
z
M 2034 4750 
Q 2819 4750 3233 4129 
Q 3647 3509 3647 2328 
Q 3647 1150 3233 529 
Q 2819 -91 2034 -91 
Q 1250 -91 836 529 
Q 422 1150 422 2328 
Q 422 3509 836 4129 
Q 1250 4750 2034 4750 
z
" transform="scale(0.015625)"/>
       </defs>
       <use xlink:href="#DejaVuSans-31"/>
       <use xlink:href="#DejaVuSans-30" x="63.623047"/>
       <use xlink:href="#DejaVuSans-30" x="127.246094"/>
      </g>
     </g>
    </g>
    <g id="xtick_5">
     <g id="line2d_5">
      <g>
       <use xlink:href="#mfab9e27cf6" x="217.15848" y="307.584" style="stroke: #000000; stroke-width: 0.8"/>
      </g>
     </g>
     <g id="text_5">
      <!-- 133 -->
      <g transform="translate(207.61473 322.182437) scale(0.1 -0.1)">
       <use xlink:href="#DejaVuSans-31"/>
       <use xlink:href="#DejaVuSans-33" x="63.623047"/>
       <use xlink:href="#DejaVuSans-33" x="127.246094"/>
      </g>
     </g>
    </g>
    <g id="xtick_6">
     <g id="line2d_6">
      <g>
       <use xlink:href="#mfab9e27cf6" x="254.075719" y="307.584" style="stroke: #000000; stroke-width: 0.8"/>
      </g>
     </g>
     <g id="text_6">
      <!-- 167 -->
      <g transform="translate(244.531969 322.182437) scale(0.1 -0.1)">
       <use xlink:href="#DejaVuSans-31"/>
       <use xlink:href="#DejaVuSans-36" x="63.623047"/>
       <use xlink:href="#DejaVuSans-37" x="127.246094"/>
      </g>
     </g>
    </g>
    <g id="xtick_7">
     <g id="line2d_7">
      <g>
       <use xlink:href="#mfab9e27cf6" x="289.907157" y="307.584" style="stroke: #000000; stroke-width: 0.8"/>
      </g>
     </g>
     <g id="text_7">
      <!-- 200 -->
      <g transform="translate(280.363407 322.182437) scale(0.1 -0.1)">
       <defs>
        <path id="DejaVuSans-32" d="M 1228 531 
L 3431 531 
L 3431 0 
L 469 0 
L 469 531 
Q 828 903 1448 1529 
Q 2069 2156 2228 2338 
Q 2531 2678 2651 2914 
Q 2772 3150 2772 3378 
Q 2772 3750 2511 3984 
Q 2250 4219 1831 4219 
Q 1534 4219 1204 4116 
Q 875 4013 500 3803 
L 500 4441 
Q 881 4594 1212 4672 
Q 1544 4750 1819 4750 
Q 2544 4750 2975 4387 
Q 3406 4025 3406 3419 
Q 3406 3131 3298 2873 
Q 3191 2616 2906 2266 
Q 2828 2175 2409 1742 
Q 1991 1309 1228 531 
z
" transform="scale(0.015625)"/>
       </defs>
       <use xlink:href="#DejaVuSans-32"/>
       <use xlink:href="#DejaVuSans-30" x="63.623047"/>
       <use xlink:href="#DejaVuSans-30" x="127.246094"/>
      </g>
     </g>
    </g>
    <g id="xtick_8">
     <g id="line2d_8">
      <g>
       <use xlink:href="#mfab9e27cf6" x="325.738595" y="307.584" style="stroke: #000000; stroke-width: 0.8"/>
      </g>
     </g>
     <g id="text_8">
      <!-- 233 -->
      <g transform="translate(316.194845 322.182437) scale(0.1 -0.1)">
       <use xlink:href="#DejaVuSans-32"/>
       <use xlink:href="#DejaVuSans-33" x="63.623047"/>
       <use xlink:href="#DejaVuSans-33" x="127.246094"/>
      </g>
     </g>
    </g>
    <g id="xtick_9">
     <g id="line2d_9">
      <g>
       <use xlink:href="#mfab9e27cf6" x="361.570033" y="307.584" style="stroke: #000000; stroke-width: 0.8"/>
      </g>
     </g>
     <g id="text_9">
      <!-- 266 -->
      <g transform="translate(352.026283 322.182437) scale(0.1 -0.1)">
       <use xlink:href="#DejaVuSans-32"/>
       <use xlink:href="#DejaVuSans-36" x="63.623047"/>
       <use xlink:href="#DejaVuSans-36" x="127.246094"/>
      </g>
     </g>
    </g>
    <g id="xtick_10">
     <g id="line2d_10">
      <g>
       <use xlink:href="#mfab9e27cf6" x="398.487273" y="307.584" style="stroke: #000000; stroke-width: 0.8"/>
      </g>
     </g>
     <g id="text_10">
      <!-- 300 -->
      <g transform="translate(388.943523 322.182437) scale(0.1 -0.1)">
       <use xlink:href="#DejaVuSans-33"/>
       <use xlink:href="#DejaVuSans-30" x="63.623047"/>
       <use xlink:href="#DejaVuSans-30" x="127.246094"/>
      </g>
     </g>
    </g>
    <g id="text_11">
     <!-- Epochs -->
     <g transform="translate(218.244375 335.860562) scale(0.1 -0.1)">
      <defs>
       <path id="DejaVuSans-45" d="M 628 4666 
L 3578 4666 
L 3578 4134 
L 1259 4134 
L 1259 2753 
L 3481 2753 
L 3481 2222 
L 1259 2222 
L 1259 531 
L 3634 531 
L 3634 0 
L 628 0 
L 628 4666 
z
" transform="scale(0.015625)"/>
       <path id="DejaVuSans-70" d="M 1159 525 
L 1159 -1331 
L 581 -1331 
L 581 3500 
L 1159 3500 
L 1159 2969 
Q 1341 3281 1617 3432 
Q 1894 3584 2278 3584 
Q 2916 3584 3314 3078 
Q 3713 2572 3713 1747 
Q 3713 922 3314 415 
Q 2916 -91 2278 -91 
Q 1894 -91 1617 61 
Q 1341 213 1159 525 
z
M 3116 1747 
Q 3116 2381 2855 2742 
Q 2594 3103 2138 3103 
Q 1681 3103 1420 2742 
Q 1159 2381 1159 1747 
Q 1159 1113 1420 752 
Q 1681 391 2138 391 
Q 2594 391 2855 752 
Q 3116 1113 3116 1747 
z
" transform="scale(0.015625)"/>
       <path id="DejaVuSans-6f" d="M 1959 3097 
Q 1497 3097 1228 2736 
Q 959 2375 959 1747 
Q 959 1119 1226 758 
Q 1494 397 1959 397 
Q 2419 397 2687 759 
Q 2956 1122 2956 1747 
Q 2956 2369 2687 2733 
Q 2419 3097 1959 3097 
z
M 1959 3584 
Q 2709 3584 3137 3096 
Q 3566 2609 3566 1747 
Q 3566 888 3137 398 
Q 2709 -91 1959 -91 
Q 1206 -91 779 398 
Q 353 888 353 1747 
Q 353 2609 779 3096 
Q 1206 3584 1959 3584 
z
" transform="scale(0.015625)"/>
       <path id="DejaVuSans-63" d="M 3122 3366 
L 3122 2828 
Q 2878 2963 2633 3030 
Q 2388 3097 2138 3097 
Q 1578 3097 1268 2742 
Q 959 2388 959 1747 
Q 959 1106 1268 751 
Q 1578 397 2138 397 
Q 2388 397 2633 464 
Q 2878 531 3122 666 
L 3122 134 
Q 2881 22 2623 -34 
Q 2366 -91 2075 -91 
Q 1284 -91 818 406 
Q 353 903 353 1747 
Q 353 2603 823 3093 
Q 1294 3584 2113 3584 
Q 2378 3584 2631 3529 
Q 2884 3475 3122 3366 
z
" transform="scale(0.015625)"/>
       <path id="DejaVuSans-68" d="M 3513 2113 
L 3513 0 
L 2938 0 
L 2938 2094 
Q 2938 2591 2744 2837 
Q 2550 3084 2163 3084 
Q 1697 3084 1428 2787 
Q 1159 2491 1159 1978 
L 1159 0 
L 581 0 
L 581 4863 
L 1159 4863 
L 1159 2956 
Q 1366 3272 1645 3428 
Q 1925 3584 2291 3584 
Q 2894 3584 3203 3211 
Q 3513 2838 3513 2113 
z
" transform="scale(0.015625)"/>
       <path id="DejaVuSans-73" d="M 2834 3397 
L 2834 2853 
Q 2591 2978 2328 3040 
Q 2066 3103 1784 3103 
Q 1356 3103 1142 2972 
Q 928 2841 928 2578 
Q 928 2378 1081 2264 
Q 1234 2150 1697 2047 
L 1894 2003 
Q 2506 1872 2764 1633 
Q 3022 1394 3022 966 
Q 3022 478 2636 193 
Q 2250 -91 1575 -91 
Q 1294 -91 989 -36 
Q 684 19 347 128 
L 347 722 
Q 666 556 975 473 
Q 1284 391 1588 391 
Q 1994 391 2212 530 
Q 2431 669 2431 922 
Q 2431 1156 2273 1281 
Q 2116 1406 1581 1522 
L 1381 1569 
Q 847 1681 609 1914 
Q 372 2147 372 2553 
Q 372 3047 722 3315 
Q 1072 3584 1716 3584 
Q 2034 3584 2315 3537 
Q 2597 3491 2834 3397 
z
" transform="scale(0.015625)"/>
      </defs>
      <use xlink:href="#DejaVuSans-45"/>
      <use xlink:href="#DejaVuSans-70" x="63.183594"/>
      <use xlink:href="#DejaVuSans-6f" x="126.660156"/>
      <use xlink:href="#DejaVuSans-63" x="187.841797"/>
      <use xlink:href="#DejaVuSans-68" x="242.822266"/>
      <use xlink:href="#DejaVuSans-73" x="306.201172"/>
     </g>
    </g>
   </g>
   <g id="matplotlib.axis_2">
    <g id="ytick_1">
     <g id="line2d_11">
      <defs>
       <path id="m41b4d36d6b" d="M 0 0 
L -3.5 0 
" style="stroke: #000000; stroke-width: 0.8"/>
      </defs>
      <g>
       <use xlink:href="#m41b4d36d6b" x="57.6" y="284.734912" style="stroke: #000000; stroke-width: 0.8"/>
      </g>
     </g>
     <g id="text_12">
      <!-- 10 -->
      <g transform="translate(37.875 288.534131) scale(0.1 -0.1)">
       <use xlink:href="#DejaVuSans-31"/>
       <use xlink:href="#DejaVuSans-30" x="63.623047"/>
      </g>
     </g>
    </g>
    <g id="ytick_2">
     <g id="line2d_12">
      <g>
       <use xlink:href="#m41b4d36d6b" x="57.6" y="252.652653" style="stroke: #000000; stroke-width: 0.8"/>
      </g>
     </g>
     <g id="text_13">
      <!-- 20 -->
      <g transform="translate(37.875 256.451872) scale(0.1 -0.1)">
       <use xlink:href="#DejaVuSans-32"/>
       <use xlink:href="#DejaVuSans-30" x="63.623047"/>
      </g>
     </g>
    </g>
    <g id="ytick_3">
     <g id="line2d_13">
      <g>
       <use xlink:href="#m41b4d36d6b" x="57.6" y="220.570395" style="stroke: #000000; stroke-width: 0.8"/>
      </g>
     </g>
     <g id="text_14">
      <!-- 30 -->
      <g transform="translate(37.875 224.369613) scale(0.1 -0.1)">
       <use xlink:href="#DejaVuSans-33"/>
       <use xlink:href="#DejaVuSans-30" x="63.623047"/>
      </g>
     </g>
    </g>
    <g id="ytick_4">
     <g id="line2d_14">
      <g>
       <use xlink:href="#m41b4d36d6b" x="57.6" y="188.488136" style="stroke: #000000; stroke-width: 0.8"/>
      </g>
     </g>
     <g id="text_15">
      <!-- 40 -->
      <g transform="translate(37.875 192.287355) scale(0.1 -0.1)">
       <use xlink:href="#DejaVuSans-34"/>
       <use xlink:href="#DejaVuSans-30" x="63.623047"/>
      </g>
     </g>
    </g>
    <g id="ytick_5">
     <g id="line2d_15">
      <g>
       <use xlink:href="#m41b4d36d6b" x="57.6" y="156.405877" style="stroke: #000000; stroke-width: 0.8"/>
      </g>
     </g>
     <g id="text_16">
      <!-- 50 -->
      <g transform="translate(37.875 160.205096) scale(0.1 -0.1)">
       <defs>
        <path id="DejaVuSans-35" d="M 691 4666 
L 3169 4666 
L 3169 4134 
L 1269 4134 
L 1269 2991 
Q 1406 3038 1543 3061 
Q 1681 3084 1819 3084 
Q 2600 3084 3056 2656 
Q 3513 2228 3513 1497 
Q 3513 744 3044 326 
Q 2575 -91 1722 -91 
Q 1428 -91 1123 -41 
Q 819 9 494 109 
L 494 744 
Q 775 591 1075 516 
Q 1375 441 1709 441 
Q 2250 441 2565 725 
Q 2881 1009 2881 1497 
Q 2881 1984 2565 2268 
Q 2250 2553 1709 2553 
Q 1456 2553 1204 2497 
Q 953 2441 691 2322 
L 691 4666 
z
" transform="scale(0.015625)"/>
       </defs>
       <use xlink:href="#DejaVuSans-35"/>
       <use xlink:href="#DejaVuSans-30" x="63.623047"/>
      </g>
     </g>
    </g>
    <g id="ytick_6">
     <g id="line2d_16">
      <g>
       <use xlink:href="#m41b4d36d6b" x="57.6" y="124.323619" style="stroke: #000000; stroke-width: 0.8"/>
      </g>
     </g>
     <g id="text_17">
      <!-- 60 -->
      <g transform="translate(37.875 128.122837) scale(0.1 -0.1)">
       <use xlink:href="#DejaVuSans-36"/>
       <use xlink:href="#DejaVuSans-30" x="63.623047"/>
      </g>
     </g>
    </g>
    <g id="ytick_7">
     <g id="line2d_17">
      <g>
       <use xlink:href="#m41b4d36d6b" x="57.6" y="92.24136" style="stroke: #000000; stroke-width: 0.8"/>
      </g>
     </g>
     <g id="text_18">
      <!-- 70 -->
      <g transform="translate(37.875 96.040579) scale(0.1 -0.1)">
       <use xlink:href="#DejaVuSans-37"/>
       <use xlink:href="#DejaVuSans-30" x="63.623047"/>
      </g>
     </g>
    </g>
    <g id="ytick_8">
     <g id="line2d_18">
      <g>
       <use xlink:href="#m41b4d36d6b" x="57.6" y="60.159101" style="stroke: #000000; stroke-width: 0.8"/>
      </g>
     </g>
     <g id="text_19">
      <!-- 80 -->
      <g transform="translate(37.875 63.95832) scale(0.1 -0.1)">
       <defs>
        <path id="DejaVuSans-38" d="M 2034 2216 
Q 1584 2216 1326 1975 
Q 1069 1734 1069 1313 
Q 1069 891 1326 650 
Q 1584 409 2034 409 
Q 2484 409 2743 651 
Q 3003 894 3003 1313 
Q 3003 1734 2745 1975 
Q 2488 2216 2034 2216 
z
M 1403 2484 
Q 997 2584 770 2862 
Q 544 3141 544 3541 
Q 544 4100 942 4425 
Q 1341 4750 2034 4750 
Q 2731 4750 3128 4425 
Q 3525 4100 3525 3541 
Q 3525 3141 3298 2862 
Q 3072 2584 2669 2484 
Q 3125 2378 3379 2068 
Q 3634 1759 3634 1313 
Q 3634 634 3220 271 
Q 2806 -91 2034 -91 
Q 1263 -91 848 271 
Q 434 634 434 1313 
Q 434 1759 690 2068 
Q 947 2378 1403 2484 
z
M 1172 3481 
Q 1172 3119 1398 2916 
Q 1625 2713 2034 2713 
Q 2441 2713 2670 2916 
Q 2900 3119 2900 3481 
Q 2900 3844 2670 4047 
Q 2441 4250 2034 4250 
Q 1625 4250 1398 4047 
Q 1172 3844 1172 3481 
z
" transform="scale(0.015625)"/>
       </defs>
       <use xlink:href="#DejaVuSans-38"/>
       <use xlink:href="#DejaVuSans-30" x="63.623047"/>
      </g>
     </g>
    </g>
    <g id="text_20">
     <!-- Accuracy -->
     <g transform="translate(31.795312 197.356125) rotate(-90) scale(0.1 -0.1)">
      <defs>
       <path id="DejaVuSans-41" d="M 2188 4044 
L 1331 1722 
L 3047 1722 
L 2188 4044 
z
M 1831 4666 
L 2547 4666 
L 4325 0 
L 3669 0 
L 3244 1197 
L 1141 1197 
L 716 0 
L 50 0 
L 1831 4666 
z
" transform="scale(0.015625)"/>
       <path id="DejaVuSans-75" d="M 544 1381 
L 544 3500 
L 1119 3500 
L 1119 1403 
Q 1119 906 1312 657 
Q 1506 409 1894 409 
Q 2359 409 2629 706 
Q 2900 1003 2900 1516 
L 2900 3500 
L 3475 3500 
L 3475 0 
L 2900 0 
L 2900 538 
Q 2691 219 2414 64 
Q 2138 -91 1772 -91 
Q 1169 -91 856 284 
Q 544 659 544 1381 
z
M 1991 3584 
L 1991 3584 
z
" transform="scale(0.015625)"/>
       <path id="DejaVuSans-72" d="M 2631 2963 
Q 2534 3019 2420 3045 
Q 2306 3072 2169 3072 
Q 1681 3072 1420 2755 
Q 1159 2438 1159 1844 
L 1159 0 
L 581 0 
L 581 3500 
L 1159 3500 
L 1159 2956 
Q 1341 3275 1631 3429 
Q 1922 3584 2338 3584 
Q 2397 3584 2469 3576 
Q 2541 3569 2628 3553 
L 2631 2963 
z
" transform="scale(0.015625)"/>
       <path id="DejaVuSans-61" d="M 2194 1759 
Q 1497 1759 1228 1600 
Q 959 1441 959 1056 
Q 959 750 1161 570 
Q 1363 391 1709 391 
Q 2188 391 2477 730 
Q 2766 1069 2766 1631 
L 2766 1759 
L 2194 1759 
z
M 3341 1997 
L 3341 0 
L 2766 0 
L 2766 531 
Q 2569 213 2275 61 
Q 1981 -91 1556 -91 
Q 1019 -91 701 211 
Q 384 513 384 1019 
Q 384 1609 779 1909 
Q 1175 2209 1959 2209 
L 2766 2209 
L 2766 2266 
Q 2766 2663 2505 2880 
Q 2244 3097 1772 3097 
Q 1472 3097 1187 3025 
Q 903 2953 641 2809 
L 641 3341 
Q 956 3463 1253 3523 
Q 1550 3584 1831 3584 
Q 2591 3584 2966 3190 
Q 3341 2797 3341 1997 
z
" transform="scale(0.015625)"/>
       <path id="DejaVuSans-79" d="M 2059 -325 
Q 1816 -950 1584 -1140 
Q 1353 -1331 966 -1331 
L 506 -1331 
L 506 -850 
L 844 -850 
Q 1081 -850 1212 -737 
Q 1344 -625 1503 -206 
L 1606 56 
L 191 3500 
L 800 3500 
L 1894 763 
L 2988 3500 
L 3597 3500 
L 2059 -325 
z
" transform="scale(0.015625)"/>
      </defs>
      <use xlink:href="#DejaVuSans-41"/>
      <use xlink:href="#DejaVuSans-63" x="66.658203"/>
      <use xlink:href="#DejaVuSans-63" x="121.638672"/>
      <use xlink:href="#DejaVuSans-75" x="176.619141"/>
      <use xlink:href="#DejaVuSans-72" x="239.998047"/>
      <use xlink:href="#DejaVuSans-61" x="281.111328"/>
      <use xlink:href="#DejaVuSans-63" x="342.390625"/>
      <use xlink:href="#DejaVuSans-79" x="397.371094"/>
     </g>
    </g>
   </g>
   <g id="line2d_19">
    <path d="M 73.832727 284.073554 
L 74.918528 241.698519 
L 76.00433 215.729001 
L 77.090131 197.493513 
L 78.175932 184.112261 
L 79.261733 173.129232 
L 81.433335 155.853676 
L 84.690739 136.051477 
L 85.77654 132.259908 
L 86.862341 127.126362 
L 87.948142 123.029798 
L 89.033943 118.108143 
L 90.119745 114.576622 
L 92.291347 109.956751 
L 93.377148 109.500864 
L 94.462949 107.892417 
L 95.54875 138.292388 
L 96.634552 137.865395 
L 98.806154 131.688444 
L 100.977756 125.948118 
L 102.063557 124.731349 
L 103.149358 120.885202 
L 104.23516 120.108267 
L 105.320961 116.990898 
L 106.406762 115.591132 
L 107.492563 112.374238 
L 108.578364 111.10289 
L 109.664165 108.906926 
L 111.835768 105.988606 
L 112.921569 103.673855 
L 115.093171 100.678484 
L 116.178972 97.856478 
L 118.350575 94.443745 
L 119.436376 93.878701 
L 120.522177 90.716385 
L 121.607978 89.605562 
L 122.693779 87.371072 
L 123.77958 86.497824 
L 124.865382 85.088426 
L 125.951183 83.364402 
L 127.036984 81.415644 
L 128.122785 79.983773 
L 129.208586 79.21326 
L 130.294387 77.319081 
L 131.380189 76.715512 
L 132.46599 75.392797 
L 133.551791 75.290062 
L 134.637592 74.054029 
L 136.809194 73.819665 
L 137.894995 72.69921 
L 138.980797 106.865066 
L 140.066598 107.664473 
L 141.152399 108.11394 
L 142.2382 106.935696 
L 143.324001 106.41881 
L 144.409802 105.728558 
L 145.495604 104.630576 
L 146.581405 104.514999 
L 147.667206 102.903342 
L 148.753007 102.383245 
L 149.838808 101.461839 
L 150.924609 99.994653 
L 152.01041 99.927233 
L 153.096212 98.447205 
L 154.182013 98.559571 
L 155.267814 97.047438 
L 156.353615 97.346012 
L 157.439416 95.731144 
L 158.525217 95.747197 
L 159.611019 94.989525 
L 161.782621 93.092136 
L 162.868422 92.758246 
L 163.954223 93.027926 
L 165.040024 91.570371 
L 166.125825 90.787016 
L 167.211627 89.836716 
L 168.297428 89.178569 
L 169.383229 89.111149 
L 171.554831 87.046814 
L 172.640632 86.74824 
L 173.726434 86.189618 
L 174.812235 85.342053 
L 175.898036 84.84443 
L 176.983837 82.991987 
L 178.069638 83.35156 
L 179.155439 81.990319 
L 180.24124 82.420523 
L 181.327042 80.943705 
L 182.412843 80.629079 
L 183.498644 79.065578 
L 184.584445 78.882581 
L 185.670246 78.33038 
L 186.756047 77.158557 
L 188.92765 75.216221 
L 190.013451 75.103854 
L 191.099252 74.53239 
L 192.185053 73.209675 
L 193.270854 72.394215 
L 194.356656 71.944749 
L 195.442457 70.654138 
L 196.528258 70.079464 
L 197.614059 69.806573 
L 198.69986 68.297651 
L 199.785661 68.01834 
L 200.871462 66.711677 
L 201.957264 66.493365 
L 203.043065 65.64259 
L 204.128866 64.512503 
L 205.214667 64.416189 
L 206.300468 62.775637 
L 207.386269 62.332592 
L 208.472071 62.804531 
L 209.557872 61.375871 
L 211.729474 60.139839 
L 212.815275 60.155891 
L 213.901076 58.852439 
L 214.986877 59.279432 
L 217.15848 57.590723 
L 218.244281 58.38692 
L 220.415883 56.447794 
L 221.501684 56.842683 
L 222.587486 56.816999 
L 223.673287 56.576213 
L 224.759088 56.495952 
L 225.844889 95.069787 
L 226.93069 97.586798 
L 228.016491 97.358854 
L 229.102292 96.835547 
L 230.188094 97.079543 
L 231.273895 95.435781 
L 232.359696 94.864317 
L 233.445497 94.585006 
L 234.531298 94.793686 
L 235.617099 93.374657 
L 237.788702 93.226975 
L 239.960304 92.674774 
L 241.046105 92.299149 
L 242.131906 92.064784 
L 243.217708 90.928277 
L 244.303509 91.037433 
L 245.38931 90.321497 
L 246.475111 90.517336 
L 247.560912 90.47881 
L 248.646713 89.425775 
L 249.732514 89.669771 
L 251.904117 89.040518 
L 252.989918 87.993904 
L 254.075719 87.958589 
L 255.16152 87.127076 
L 257.333123 87.904011 
L 258.418924 87.030762 
L 260.590526 86.969763 
L 262.762128 86.632663 
L 263.847929 86.013042 
L 264.933731 85.939201 
L 267.105333 84.992112 
L 269.276935 85.460841 
L 270.362736 84.244071 
L 271.448538 83.942287 
L 272.534339 83.01125 
L 273.62014 83.573082 
L 274.705941 83.605187 
L 275.791742 82.825042 
L 276.877543 82.369155 
L 277.963344 82.513626 
L 279.049146 82.914935 
L 280.134947 81.877953 
L 281.220748 82.638835 
L 282.306549 81.633957 
L 283.39235 81.605062 
L 284.478151 80.953336 
L 285.563953 81.033598 
L 286.649754 80.125034 
L 287.735555 80.513502 
L 288.821356 79.68841 
L 289.907157 79.89388 
L 290.992958 79.582464 
L 292.07876 79.004579 
L 293.164561 78.612901 
L 294.250362 78.699584 
L 295.336163 78.651427 
L 296.421964 77.373659 
L 297.507765 77.755705 
L 298.593566 78.012543 
L 299.679368 77.530972 
L 300.765169 76.712301 
L 301.85097 76.420148 
L 302.936771 76.757248 
L 304.022572 76.144048 
L 306.194175 75.665687 
L 307.279976 75.023592 
L 308.365777 74.606231 
L 309.451578 74.458549 
L 310.537379 74.163186 
L 311.62318 74.140712 
L 312.708981 73.302779 
L 313.794783 72.808366 
L 314.880584 71.941538 
L 315.966385 71.668648 
L 317.052186 71.254497 
L 318.137987 71.488861 
L 320.30959 70.984817 
L 322.481192 69.870783 
L 323.566993 69.24153 
L 324.652794 69.167689 
L 325.738595 68.36186 
L 326.824396 68.843431 
L 327.910198 67.687661 
L 328.995999 68.204547 
L 330.0818 67.600978 
L 332.253402 66.86899 
L 333.339203 67.154723 
L 334.425005 65.998952 
L 335.510806 65.703589 
L 336.596607 64.89776 
L 338.768209 64.059826 
L 339.85401 63.7452 
L 340.939811 63.758042 
L 342.025613 63.173736 
L 343.111414 62.371118 
L 344.197215 61.834968 
L 345.283016 61.542815 
L 346.368817 62.782058 
L 347.454618 61.263504 
L 348.54042 60.412729 
L 350.712022 59.992157 
L 351.797823 59.462429 
L 352.883624 59.764213 
L 353.969425 58.820334 
L 355.055227 58.31629 
L 356.141028 57.50404 
L 357.226829 57.430199 
L 358.31263 56.964681 
L 359.398431 57.343516 
L 360.484232 56.749579 
L 361.570033 54.601772 
L 362.655835 54.688455 
L 363.741636 55.722228 
L 364.827437 54.65635 
L 365.913238 54.726981 
L 366.999039 53.568 
L 368.08484 54.938872 
L 369.170642 55.641966 
L 370.256443 56.746368 
L 371.342244 59.353273 
L 372.428045 59.600479 
L 374.599647 60.637462 
L 375.685448 60.393466 
L 376.77125 60.370993 
L 378.942852 60.96172 
L 380.028653 60.836511 
L 381.114454 61.343766 
L 382.200255 60.589305 
L 383.286057 60.804407 
L 384.371858 61.176821 
L 385.457659 60.96172 
L 387.629261 60.96493 
L 388.715062 60.492991 
L 389.800863 61.375871 
L 390.886665 61.398344 
L 391.972466 61.754707 
L 393.058267 61.546026 
L 394.144068 61.590973 
L 395.229869 60.993825 
L 396.31567 61.619867 
L 397.401472 61.616656 
L 398.487273 61.202505 
L 398.487273 61.202505 
" clip-path="url(#pe187a9c150)" style="fill: none; stroke: #1f77b4; stroke-width: 1.5; stroke-linecap: square"/>
   </g>
   <g id="line2d_20">
    <path d="M 73.832727 271.998255 
L 74.918528 259.165352 
L 76.00433 242.322166 
L 77.090131 230.227155 
L 78.175932 227.403916 
L 79.261733 222.110343 
L 80.347534 208.892453 
L 81.433335 203.053481 
L 82.519137 204.561348 
L 83.604938 196.187878 
L 84.690739 193.364639 
L 85.77654 186.114049 
L 86.862341 176.842276 
L 87.948142 176.361042 
L 89.033943 169.238781 
L 90.119745 167.698832 
L 91.205546 161.089887 
L 92.291347 156.566289 
L 93.377148 155.667985 
L 94.462949 155.73215 
L 95.54875 214.923917 
L 96.634552 195.899138 
L 97.720353 192.690912 
L 98.806154 183.964538 
L 99.891955 193.172146 
L 100.977756 191.856773 
L 102.063557 189.707262 
L 103.149358 180.531736 
L 104.23516 172.382842 
L 105.320961 169.014205 
L 106.406762 172.158266 
L 107.492563 163.014823 
L 108.578364 166.447624 
L 109.664165 160.255748 
L 110.749967 160.544489 
L 111.835768 152.716418 
L 112.921569 160.159502 
L 114.00737 156.758782 
L 115.093171 148.898629 
L 116.178972 157.01544 
L 117.264773 142.225519 
L 118.350575 141.776367 
L 119.436376 137.990661 
L 120.522177 134.622024 
L 121.607978 138.664388 
L 123.77958 131.317551 
L 124.865382 129.520945 
L 125.951183 128.686806 
L 127.036984 128.013078 
L 128.122785 128.494312 
L 129.208586 124.227372 
L 130.294387 121.179557 
L 131.380189 121.051228 
L 132.46599 119.190457 
L 133.551791 119.447115 
L 134.637592 117.843002 
L 135.723393 117.52218 
L 136.809194 117.746756 
L 137.894995 117.458015 
L 138.980797 162.148602 
L 140.066598 169.65585 
L 141.152399 157.111687 
L 142.2382 162.309013 
L 143.324001 173.473639 
L 144.409802 158.972458 
L 145.495604 154.128037 
L 146.581405 166.608036 
L 147.667206 162.052355 
L 148.753007 154.609271 
L 149.838808 159.71035 
L 150.924609 157.592921 
L 153.096212 154.705518 
L 155.267814 154.7376 
L 156.353615 152.620171 
L 157.439416 153.999708 
L 158.525217 161.956108 
L 159.611019 145.818732 
L 160.69682 147.166187 
L 161.782621 161.98819 
L 162.868422 146.396213 
L 163.954223 145.048758 
L 165.040024 147.06994 
L 166.125825 151.304798 
L 167.211627 152.010608 
L 168.297428 142.450095 
L 169.383229 143.861714 
L 170.46903 136.450713 
L 171.554831 135.231587 
L 172.640632 137.669838 
L 173.726434 143.155905 
L 174.812235 137.509427 
L 175.898036 134.622024 
L 176.983837 129.809685 
L 178.069638 134.557859 
L 179.155439 131.477962 
L 180.24124 130.675906 
L 181.327042 129.45678 
L 182.412843 133.499145 
L 184.584445 122.591177 
L 185.670246 123.136575 
L 186.756047 127.46768 
L 187.841849 120.185007 
L 188.92765 119.126293 
L 190.013451 120.281254 
L 191.099252 119.062128 
L 192.185053 116.174725 
L 193.270854 115.950149 
L 194.356656 114.313954 
L 195.442457 122.238272 
L 196.528258 109.309122 
L 197.614059 108.795806 
L 198.69986 110.335754 
L 199.785661 108.85997 
L 200.871462 109.629944 
L 201.957264 105.427168 
L 203.043065 107.801256 
L 204.128866 107.737091 
L 205.214667 109.822438 
L 206.300468 105.17051 
L 208.472071 100.967734 
L 209.557872 102.732259 
L 210.643673 102.796423 
L 211.729474 101.256475 
L 212.815275 100.550665 
L 213.901076 98.689894 
L 214.986877 99.90902 
L 217.15848 98.369072 
L 218.244281 99.331539 
L 219.330082 98.465318 
L 220.415883 97.759509 
L 221.501684 98.62573 
L 224.759088 97.887838 
L 225.844889 159.325363 
L 226.93069 164.618936 
L 228.016491 152.45976 
L 229.102292 154.641353 
L 230.188094 157.175852 
L 231.273895 152.299348 
L 232.359696 145.754568 
L 233.445497 145.048758 
L 234.531298 159.229116 
L 235.617099 147.647421 
L 236.702901 154.256366 
L 237.788702 142.931329 
L 238.874503 162.469424 
L 239.960304 145.241251 
L 241.046105 153.550556 
L 242.131906 149.989426 
L 243.217708 150.887729 
L 244.303509 144.824182 
L 245.38931 156.919194 
L 246.475111 145.016676 
L 247.560912 145.914979 
L 248.646713 137.605674 
L 249.732514 147.936161 
L 250.818316 137.188604 
L 251.904117 148.866547 
L 252.989918 155.988808 
L 254.075719 135.937396 
L 255.16152 144.118372 
L 256.247321 143.669221 
L 257.333123 140.589324 
L 258.418924 145.08084 
L 259.504725 147.294516 
L 260.590526 146.7812 
L 261.676327 150.021508 
L 262.762128 142.963411 
L 263.847929 141.519709 
L 264.933731 135.873232 
L 266.019532 154.480942 
L 267.105333 143.572974 
L 268.191134 146.973693 
L 269.276935 144.727935 
L 270.362736 137.12444 
L 271.448538 136.097808 
L 272.534339 134.333283 
L 273.62014 142.257601 
L 274.705941 133.178322 
L 275.791742 136.771535 
L 276.877543 143.572974 
L 277.963344 142.033026 
L 279.049146 153.197652 
L 280.134947 143.187987 
L 281.220748 141.904696 
L 282.306549 129.938014 
L 283.39235 132.761253 
L 284.478151 151.336881 
L 285.563953 127.788503 
L 286.649754 141.166805 
L 287.735555 130.194672 
L 288.821356 135.456162 
L 289.907157 148.866547 
L 290.992958 129.938014 
L 292.07876 131.285469 
L 293.164561 156.502124 
L 294.250362 129.200122 
L 295.336163 137.926496 
L 296.421964 133.049993 
L 297.507765 122.911999 
L 298.593566 129.520945 
L 299.679368 137.220687 
L 300.765169 127.820585 
L 301.85097 128.654724 
L 302.936771 132.536677 
L 304.022572 125.125675 
L 305.108373 141.583874 
L 306.194175 130.034261 
L 307.279976 126.505212 
L 308.365777 125.221922 
L 309.451578 125.703156 
L 310.537379 117.490098 
L 311.62318 127.596009 
L 312.708981 128.141408 
L 313.794783 127.660174 
L 314.880584 119.671691 
L 315.966385 119.254622 
L 317.052186 117.490098 
L 318.137987 127.628091 
L 319.223788 115.340586 
L 320.30959 120.730406 
L 321.395391 116.431383 
L 322.481192 121.147475 
L 323.566993 110.592412 
L 324.652794 121.372051 
L 325.738595 114.634777 
L 326.824396 112.389019 
L 327.910198 117.297604 
L 328.995999 116.591794 
L 330.0818 111.298222 
L 331.167601 118.741306 
L 332.253402 120.313336 
L 333.339203 109.084546 
L 334.425005 122.270354 
L 335.510806 106.485883 
L 336.596607 120.537912 
L 337.682408 113.640227 
L 338.768209 108.057914 
L 339.85401 106.325472 
L 340.939811 106.261307 
L 342.025613 111.939867 
L 343.111414 107.384186 
L 344.197215 106.935035 
L 345.283016 105.106346 
L 346.368817 103.502233 
L 347.454618 110.239507 
L 348.54042 101.737709 
L 349.626221 103.919302 
L 350.712022 103.662644 
L 351.797823 101.673544 
L 352.883624 99.106963 
L 353.969425 95.160846 
L 355.055227 99.941102 
L 356.141028 101.288557 
L 358.31263 96.604547 
L 359.398431 98.818223 
L 360.484232 97.149946 
L 361.570033 97.053699 
L 362.655835 94.422954 
L 363.741636 93.460486 
L 364.827437 94.358789 
L 365.913238 93.877555 
L 366.999039 92.433854 
L 368.08484 96.572465 
L 369.170642 96.476218 
L 370.256443 99.235292 
L 371.342244 104.945935 
L 372.428045 105.17051 
L 373.513846 102.732259 
L 374.599647 105.17051 
L 375.685448 102.668094 
L 376.77125 104.978017 
L 377.857051 104.336372 
L 378.942852 104.817605 
L 380.028653 108.442901 
L 381.114454 107.57668 
L 382.200255 110.175343 
L 383.286057 100.61483 
L 384.371858 103.790973 
L 385.457659 107.705009 
L 386.54346 104.528865 
L 387.629261 104.208043 
L 388.715062 103.758891 
L 389.800863 112.389019 
L 390.886665 105.010099 
L 391.972466 101.962284 
L 393.058267 108.089996 
L 394.144068 105.940485 
L 395.229869 106.036731 
L 396.31567 103.470151 
L 397.401472 105.780073 
L 398.487273 106.806706 
L 398.487273 106.806706 
" clip-path="url(#pe187a9c150)" style="fill: none; stroke: #ff7f0e; stroke-width: 1.5; stroke-linecap: square"/>
   </g>
   <g id="line2d_21">
    <path d="M 73.832727 295.488 
L 74.918528 295.067612 
L 76.00433 289.823822 
L 77.090131 286.947481 
L 78.175932 286.416465 
L 79.261733 288.18652 
L 80.347534 282.146206 
L 81.433335 280.309773 
L 82.519137 281.327555 
L 83.604938 275.508497 
L 84.690739 274.778349 
L 85.77654 277.787444 
L 86.862341 273.716316 
L 87.948142 271.857757 
L 89.033943 271.304615 
L 90.119745 269.623062 
L 91.205546 267.676001 
L 92.291347 265.286425 
L 93.377148 266.39271 
L 94.462949 266.016573 
L 95.54875 284.071141 
L 96.634552 280.68591 
L 97.720353 278.62822 
L 98.806154 274.00395 
L 99.891955 278.0087 
L 100.977756 278.805226 
L 102.063557 277.743192 
L 103.149358 274.269458 
L 104.23516 269.490308 
L 106.406762 270.50809 
L 107.492563 267.078607 
L 108.578364 266.193579 
L 109.664165 266.613967 
L 110.749967 264.003135 
L 111.835768 263.538496 
L 112.921569 263.914632 
L 114.00737 261.746314 
L 115.093171 261.480806 
L 116.178972 264.003135 
L 117.264773 256.67953 
L 118.350575 256.967164 
L 119.436376 255.462617 
L 120.522177 252.984539 
L 121.607978 256.812284 
L 122.693779 255.993633 
L 124.865382 249.37805 
L 125.951183 248.360268 
L 127.036984 248.603651 
L 128.122785 249.909067 
L 129.208586 248.493023 
L 130.294387 246.545961 
L 131.380189 246.214076 
L 132.46599 244.244889 
L 133.551791 246.081322 
L 134.637592 244.709529 
L 135.723393 246.789344 
L 136.809194 245.594556 
L 137.894995 245.351174 
L 138.980797 263.405741 
L 140.066598 263.118107 
L 141.152399 262.365834 
L 142.2382 262.587091 
L 143.324001 271.592249 
L 144.409802 258.184077 
L 145.495604 258.361083 
L 146.581405 263.781878 
L 147.667206 266.304207 
L 148.753007 261.790566 
L 149.838808 266.171453 
L 150.924609 262.587091 
L 152.01041 261.547183 
L 153.096212 259.887756 
L 154.182013 263.118107 
L 155.267814 254.643966 
L 156.353615 259.777127 
L 157.439416 258.073449 
L 158.525217 262.343708 
L 159.611019 253.449178 
L 160.69682 258.250454 
L 161.782621 261.126795 
L 162.868422 260.418772 
L 163.954223 256.237016 
L 165.040024 259.976259 
L 166.125825 254.135075 
L 167.211627 254.732469 
L 168.297428 251.834003 
L 169.383229 256.591027 
L 170.46903 247.93988 
L 171.554831 249.289548 
L 172.640632 249.975444 
L 173.726434 251.723374 
L 174.812235 249.245296 
L 175.898036 247.829252 
L 176.983837 245.351174 
L 178.069638 250.993226 
L 179.155439 250.683466 
L 180.24124 247.143355 
L 181.327042 248.360268 
L 182.412843 245.019288 
L 183.498644 245.88219 
L 185.670246 244.090009 
L 186.756047 252.276516 
L 187.841849 244.488272 
L 188.92765 239.81975 
L 190.013451 240.306515 
L 191.099252 240.439269 
L 192.185053 240.94816 
L 193.270854 235.416736 
L 194.356656 235.062725 
L 195.442457 243.890878 
L 196.528258 231.588991 
L 197.614059 234.642337 
L 198.69986 235.660119 
L 199.785661 237.363798 
L 200.871462 234.133446 
L 201.957264 227.650617 
L 203.043065 232.451893 
L 204.128866 234.089195 
L 205.214667 233.735184 
L 206.300468 231.102226 
L 207.386269 226.721338 
L 208.472071 229.619804 
L 209.557872 227.606366 
L 210.643673 227.606366 
L 211.729474 227.230229 
L 212.815275 227.58424 
L 213.901076 226.876218 
L 214.986877 225.305294 
L 216.072679 226.477955 
L 217.15848 224.508768 
L 218.244281 227.053223 
L 219.330082 225.039785 
L 220.415883 226.278824 
L 221.501684 226.765589 
L 222.587486 226.588584 
L 223.673287 225.106162 
L 224.759088 225.725682 
L 225.844889 257.763689 
L 226.93069 262.564965 
L 228.016491 255.462617 
L 229.102292 259.600122 
L 230.188094 261.657811 
L 233.445497 252.298642 
L 234.531298 268.870788 
L 235.617099 259.378865 
L 236.702901 261.348052 
L 237.788702 254.068698 
L 238.874503 266.481213 
L 239.960304 248.537274 
L 241.046105 259.378865 
L 242.131906 255.042228 
L 243.217708 249.776313 
L 244.303509 252.696905 
L 245.38931 264.467775 
L 246.475111 251.369363 
L 247.560912 247.541618 
L 248.646713 251.922505 
L 249.732514 257.431804 
L 250.818316 251.081729 
L 251.904117 253.294298 
L 252.989918 261.193172 
L 254.075719 253.714687 
L 255.16152 253.272173 
L 256.247321 254.843097 
L 257.333123 248.470897 
L 258.418924 254.179326 
L 259.504725 255.794502 
L 260.590526 260.440898 
L 261.676327 258.029197 
L 262.762128 251.325112 
L 263.847929 250.594964 
L 264.933731 246.081322 
L 266.019532 260.861286 
L 267.105333 247.718623 
L 268.191134 248.692154 
L 269.276935 253.714687 
L 270.362736 250.550712 
L 271.448538 244.775906 
L 272.534339 245.351174 
L 273.62014 253.427053 
L 274.705941 249.156793 
L 275.791742 246.545961 
L 276.877543 253.537681 
L 277.963344 255.860879 
L 279.049146 259.356739 
L 280.134947 255.772376 
L 281.220748 255.506868 
L 282.306549 241.280046 
L 283.39235 246.413207 
L 284.478151 261.76844 
L 285.563953 246.125573 
L 286.649754 251.612746 
L 287.735555 250.30733 
L 288.821356 248.603651 
L 289.907157 253.958069 
L 290.992958 250.063947 
L 292.07876 247.099104 
L 293.164561 251.081729 
L 294.250362 246.19195 
L 295.336163 254.754594 
L 296.421964 251.258734 
L 297.507765 246.214076 
L 298.593566 246.590213 
L 299.679368 251.43574 
L 300.765169 247.342486 
L 301.85097 246.65659 
L 302.936771 248.470897 
L 304.022572 238.890471 
L 305.108373 253.869567 
L 306.194175 249.068291 
L 307.279976 239.97463 
L 308.365777 243.227107 
L 309.451578 247.054852 
L 310.537379 234.819343 
L 311.62318 246.169824 
L 312.708981 248.824908 
L 313.794783 249.245296 
L 314.880584 238.447957 
L 315.966385 237.76206 
L 317.052186 236.766404 
L 318.137987 249.245296 
L 319.223788 235.328234 
L 320.30959 235.925627 
L 321.395391 233.491801 
L 322.481192 235.505239 
L 323.566993 233.779435 
L 324.652794 240.395018 
L 325.738595 235.217605 
L 326.824396 233.336921 
L 327.910198 237.585055 
L 328.995999 238.558585 
L 330.0818 232.695276 
L 331.167601 237.562929 
L 332.253402 243.935129 
L 333.339203 234.952097 
L 334.425005 244.466146 
L 335.510806 227.849749 
L 336.596607 240.682652 
L 337.682408 234.11132 
L 338.768209 236.191136 
L 339.85401 230.836717 
L 340.939811 232.186385 
L 342.025613 231.212854 
L 343.111414 234.288326 
L 344.197215 233.668806 
L 345.283016 233.912189 
L 346.368817 229.664056 
L 347.454618 237.208918 
L 348.54042 221.5218 
L 349.626221 227.73912 
L 350.712022 231.721745 
L 351.797823 229.088787 
L 352.883624 227.407235 
L 353.969425 223.424609 
L 355.055227 233.381172 
L 357.226829 223.977752 
L 358.31263 219.995127 
L 359.398431 220.880154 
L 360.484232 226.367327 
L 361.570033 223.313981 
L 362.655835 219.906624 
L 363.741636 222.716587 
L 364.827437 222.49533 
L 365.913238 219.973001 
L 366.999039 219.61899 
L 368.08484 224.973408 
L 369.170642 223.092724 
L 370.256443 227.296606 
L 371.342244 229.752558 
L 372.428045 229.265793 
L 373.513846 228.646274 
L 374.599647 229.442799 
L 375.685448 228.20376 
L 376.77125 232.319139 
L 377.857051 234.664463 
L 378.942852 226.477955 
L 380.028653 232.053631 
L 381.114454 229.243667 
L 382.200255 228.248011 
L 383.286057 221.831559 
L 384.371858 229.420673 
L 385.457659 231.190729 
L 386.54346 233.624555 
L 387.629261 228.535645 
L 388.715062 225.659305 
L 389.800863 231.920877 
L 390.886665 233.44755 
L 391.972466 223.999877 
L 393.058267 230.217198 
L 394.144068 232.916533 
L 395.229869 231.456237 
L 396.31567 230.394204 
L 397.401472 228.469268 
L 398.487273 235.217605 
L 398.487273 235.217605 
" clip-path="url(#pe187a9c150)" style="fill: none; stroke: #2ca02c; stroke-width: 1.5; stroke-linecap: square"/>
   </g>
   <g id="line2d_22">
    <path d="M 368.08484 97.021617 
L 369.170642 95.321257 
L 370.256443 105.042181 
L 371.342244 102.411436 
L 372.428045 109.116628 
L 373.513846 110.367836 
L 374.599647 103.630562 
L 375.685448 104.015549 
L 376.77125 103.534315 
L 377.857051 104.849688 
L 378.942852 105.812156 
L 380.028653 116.880535 
L 381.114454 107.191693 
L 382.200255 103.020999 
L 383.286057 110.239507 
L 384.371858 107.769173 
L 385.457659 119.318786 
L 386.54346 114.666859 
L 388.715062 120.313336 
L 389.800863 122.591177 
L 390.886665 117.008864 
L 391.972466 117.682591 
L 393.058267 115.148093 
L 394.144068 118.677141 
L 395.229869 123.553645 
L 396.31567 131.477962 
L 397.401472 142.033026 
L 398.487273 130.387166 
L 398.487273 130.387166 
" clip-path="url(#pe187a9c150)" style="fill: none; stroke: #d62728; stroke-width: 1.5; stroke-linecap: square"/>
   </g>
   <g id="line2d_23">
    <path d="M 368.08484 226.411578 
L 369.170642 223.955626 
L 371.342244 230.947346 
L 372.428045 231.965128 
L 373.513846 234.797217 
L 374.599647 224.663648 
L 375.685448 231.456237 
L 376.77125 224.663648 
L 377.857051 220.725275 
L 378.942852 226.544332 
L 380.028653 237.60718 
L 381.114454 225.216791 
L 382.200255 224.24326 
L 383.286057 225.924813 
L 384.371858 227.296606 
L 385.457659 237.828437 
L 386.54346 230.681838 
L 387.629261 228.225885 
L 388.715062 237.91694 
L 389.800863 238.558585 
L 390.886665 240.572023 
L 391.972466 241.72256 
L 393.058267 234.752966 
L 394.144068 234.509583 
L 395.229869 247.342486 
L 396.31567 250.196701 
L 397.401472 256.436147 
L 398.487273 247.187606 
L 398.487273 247.187606 
" clip-path="url(#pe187a9c150)" style="fill: none; stroke: #9467bd; stroke-width: 1.5; stroke-linecap: square"/>
   </g>
   <g id="patch_3">
    <path d="M 57.6 307.584 
L 57.6 41.472 
" style="fill: none; stroke: #000000; stroke-width: 0.8; stroke-linejoin: miter; stroke-linecap: square"/>
   </g>
   <g id="patch_4">
    <path d="M 414.72 307.584 
L 414.72 41.472 
" style="fill: none; stroke: #000000; stroke-width: 0.8; stroke-linejoin: miter; stroke-linecap: square"/>
   </g>
   <g id="patch_5">
    <path d="M 57.6 307.584 
L 414.72 307.584 
" style="fill: none; stroke: #000000; stroke-width: 0.8; stroke-linejoin: miter; stroke-linecap: square"/>
   </g>
   <g id="patch_6">
    <path d="M 57.6 41.472 
L 414.72 41.472 
" style="fill: none; stroke: #000000; stroke-width: 0.8; stroke-linejoin: miter; stroke-linecap: square"/>
   </g>
   <g id="text_21">
    <!-- Learning Curves -->
    <g transform="translate(187.37625 35.472) scale(0.12 -0.12)">
     <defs>
      <path id="DejaVuSans-4c" d="M 628 4666 
L 1259 4666 
L 1259 531 
L 3531 531 
L 3531 0 
L 628 0 
L 628 4666 
z
" transform="scale(0.015625)"/>
      <path id="DejaVuSans-65" d="M 3597 1894 
L 3597 1613 
L 953 1613 
Q 991 1019 1311 708 
Q 1631 397 2203 397 
Q 2534 397 2845 478 
Q 3156 559 3463 722 
L 3463 178 
Q 3153 47 2828 -22 
Q 2503 -91 2169 -91 
Q 1331 -91 842 396 
Q 353 884 353 1716 
Q 353 2575 817 3079 
Q 1281 3584 2069 3584 
Q 2775 3584 3186 3129 
Q 3597 2675 3597 1894 
z
M 3022 2063 
Q 3016 2534 2758 2815 
Q 2500 3097 2075 3097 
Q 1594 3097 1305 2825 
Q 1016 2553 972 2059 
L 3022 2063 
z
" transform="scale(0.015625)"/>
      <path id="DejaVuSans-6e" d="M 3513 2113 
L 3513 0 
L 2938 0 
L 2938 2094 
Q 2938 2591 2744 2837 
Q 2550 3084 2163 3084 
Q 1697 3084 1428 2787 
Q 1159 2491 1159 1978 
L 1159 0 
L 581 0 
L 581 3500 
L 1159 3500 
L 1159 2956 
Q 1366 3272 1645 3428 
Q 1925 3584 2291 3584 
Q 2894 3584 3203 3211 
Q 3513 2838 3513 2113 
z
" transform="scale(0.015625)"/>
      <path id="DejaVuSans-69" d="M 603 3500 
L 1178 3500 
L 1178 0 
L 603 0 
L 603 3500 
z
M 603 4863 
L 1178 4863 
L 1178 4134 
L 603 4134 
L 603 4863 
z
" transform="scale(0.015625)"/>
      <path id="DejaVuSans-67" d="M 2906 1791 
Q 2906 2416 2648 2759 
Q 2391 3103 1925 3103 
Q 1463 3103 1205 2759 
Q 947 2416 947 1791 
Q 947 1169 1205 825 
Q 1463 481 1925 481 
Q 2391 481 2648 825 
Q 2906 1169 2906 1791 
z
M 3481 434 
Q 3481 -459 3084 -895 
Q 2688 -1331 1869 -1331 
Q 1566 -1331 1297 -1286 
Q 1028 -1241 775 -1147 
L 775 -588 
Q 1028 -725 1275 -790 
Q 1522 -856 1778 -856 
Q 2344 -856 2625 -561 
Q 2906 -266 2906 331 
L 2906 616 
Q 2728 306 2450 153 
Q 2172 0 1784 0 
Q 1141 0 747 490 
Q 353 981 353 1791 
Q 353 2603 747 3093 
Q 1141 3584 1784 3584 
Q 2172 3584 2450 3431 
Q 2728 3278 2906 2969 
L 2906 3500 
L 3481 3500 
L 3481 434 
z
" transform="scale(0.015625)"/>
      <path id="DejaVuSans-20" transform="scale(0.015625)"/>
      <path id="DejaVuSans-43" d="M 4122 4306 
L 4122 3641 
Q 3803 3938 3442 4084 
Q 3081 4231 2675 4231 
Q 1875 4231 1450 3742 
Q 1025 3253 1025 2328 
Q 1025 1406 1450 917 
Q 1875 428 2675 428 
Q 3081 428 3442 575 
Q 3803 722 4122 1019 
L 4122 359 
Q 3791 134 3420 21 
Q 3050 -91 2638 -91 
Q 1578 -91 968 557 
Q 359 1206 359 2328 
Q 359 3453 968 4101 
Q 1578 4750 2638 4750 
Q 3056 4750 3426 4639 
Q 3797 4528 4122 4306 
z
" transform="scale(0.015625)"/>
      <path id="DejaVuSans-76" d="M 191 3500 
L 800 3500 
L 1894 563 
L 2988 3500 
L 3597 3500 
L 2284 0 
L 1503 0 
L 191 3500 
z
" transform="scale(0.015625)"/>
     </defs>
     <use xlink:href="#DejaVuSans-4c"/>
     <use xlink:href="#DejaVuSans-65" x="53.962891"/>
     <use xlink:href="#DejaVuSans-61" x="115.486328"/>
     <use xlink:href="#DejaVuSans-72" x="176.765625"/>
     <use xlink:href="#DejaVuSans-6e" x="216.128906"/>
     <use xlink:href="#DejaVuSans-69" x="279.507812"/>
     <use xlink:href="#DejaVuSans-6e" x="307.291016"/>
     <use xlink:href="#DejaVuSans-67" x="370.669922"/>
     <use xlink:href="#DejaVuSans-20" x="434.146484"/>
     <use xlink:href="#DejaVuSans-43" x="465.933594"/>
     <use xlink:href="#DejaVuSans-75" x="535.757812"/>
     <use xlink:href="#DejaVuSans-72" x="599.136719"/>
     <use xlink:href="#DejaVuSans-76" x="640.25"/>
     <use xlink:href="#DejaVuSans-65" x="699.429688"/>
     <use xlink:href="#DejaVuSans-73" x="760.953125"/>
    </g>
   </g>
   <g id="legend_1">
    <g id="patch_7">
     <path d="M 214.18875 212.723313 
L 407.72 212.723313 
Q 409.72 212.723313 409.72 210.723313 
L 409.72 138.332688 
Q 409.72 136.332688 407.72 136.332688 
L 214.18875 136.332688 
Q 212.18875 136.332688 212.18875 138.332688 
L 212.18875 210.723313 
Q 212.18875 212.723313 214.18875 212.723313 
z
" style="fill: #ffffff; opacity: 0.8; stroke: #cccccc; stroke-linejoin: miter"/>
    </g>
    <g id="line2d_24">
     <path d="M 216.18875 144.431125 
L 226.18875 144.431125 
L 236.18875 144.431125 
" style="fill: none; stroke: #1f77b4; stroke-width: 1.5; stroke-linecap: square"/>
    </g>
    <g id="text_22">
     <!-- Train Accuracy -->
     <g transform="translate(244.18875 147.931125) scale(0.1 -0.1)">
      <defs>
       <path id="DejaVuSans-54" d="M -19 4666 
L 3928 4666 
L 3928 4134 
L 2272 4134 
L 2272 0 
L 1638 0 
L 1638 4134 
L -19 4134 
L -19 4666 
z
" transform="scale(0.015625)"/>
      </defs>
      <use xlink:href="#DejaVuSans-54"/>
      <use xlink:href="#DejaVuSans-72" x="46.333984"/>
      <use xlink:href="#DejaVuSans-61" x="87.447266"/>
      <use xlink:href="#DejaVuSans-69" x="148.726562"/>
      <use xlink:href="#DejaVuSans-6e" x="176.509766"/>
      <use xlink:href="#DejaVuSans-20" x="239.888672"/>
      <use xlink:href="#DejaVuSans-41" x="271.675781"/>
      <use xlink:href="#DejaVuSans-63" x="338.333984"/>
      <use xlink:href="#DejaVuSans-63" x="393.314453"/>
      <use xlink:href="#DejaVuSans-75" x="448.294922"/>
      <use xlink:href="#DejaVuSans-72" x="511.673828"/>
      <use xlink:href="#DejaVuSans-61" x="552.787109"/>
      <use xlink:href="#DejaVuSans-63" x="614.066406"/>
      <use xlink:href="#DejaVuSans-79" x="669.046875"/>
     </g>
    </g>
    <g id="line2d_25">
     <path d="M 216.18875 159.10925 
L 226.18875 159.10925 
L 236.18875 159.10925 
" style="fill: none; stroke: #ff7f0e; stroke-width: 1.5; stroke-linecap: square"/>
    </g>
    <g id="text_23">
     <!-- Validation Accuracy -->
     <g transform="translate(244.18875 162.60925) scale(0.1 -0.1)">
      <defs>
       <path id="DejaVuSans-56" d="M 1831 0 
L 50 4666 
L 709 4666 
L 2188 738 
L 3669 4666 
L 4325 4666 
L 2547 0 
L 1831 0 
z
" transform="scale(0.015625)"/>
       <path id="DejaVuSans-6c" d="M 603 4863 
L 1178 4863 
L 1178 0 
L 603 0 
L 603 4863 
z
" transform="scale(0.015625)"/>
       <path id="DejaVuSans-64" d="M 2906 2969 
L 2906 4863 
L 3481 4863 
L 3481 0 
L 2906 0 
L 2906 525 
Q 2725 213 2448 61 
Q 2172 -91 1784 -91 
Q 1150 -91 751 415 
Q 353 922 353 1747 
Q 353 2572 751 3078 
Q 1150 3584 1784 3584 
Q 2172 3584 2448 3432 
Q 2725 3281 2906 2969 
z
M 947 1747 
Q 947 1113 1208 752 
Q 1469 391 1925 391 
Q 2381 391 2643 752 
Q 2906 1113 2906 1747 
Q 2906 2381 2643 2742 
Q 2381 3103 1925 3103 
Q 1469 3103 1208 2742 
Q 947 2381 947 1747 
z
" transform="scale(0.015625)"/>
       <path id="DejaVuSans-74" d="M 1172 4494 
L 1172 3500 
L 2356 3500 
L 2356 3053 
L 1172 3053 
L 1172 1153 
Q 1172 725 1289 603 
Q 1406 481 1766 481 
L 2356 481 
L 2356 0 
L 1766 0 
Q 1100 0 847 248 
Q 594 497 594 1153 
L 594 3053 
L 172 3053 
L 172 3500 
L 594 3500 
L 594 4494 
L 1172 4494 
z
" transform="scale(0.015625)"/>
      </defs>
      <use xlink:href="#DejaVuSans-56"/>
      <use xlink:href="#DejaVuSans-61" x="60.658203"/>
      <use xlink:href="#DejaVuSans-6c" x="121.9375"/>
      <use xlink:href="#DejaVuSans-69" x="149.720703"/>
      <use xlink:href="#DejaVuSans-64" x="177.503906"/>
      <use xlink:href="#DejaVuSans-61" x="240.980469"/>
      <use xlink:href="#DejaVuSans-74" x="302.259766"/>
      <use xlink:href="#DejaVuSans-69" x="341.46875"/>
      <use xlink:href="#DejaVuSans-6f" x="369.251953"/>
      <use xlink:href="#DejaVuSans-6e" x="430.433594"/>
      <use xlink:href="#DejaVuSans-20" x="493.8125"/>
      <use xlink:href="#DejaVuSans-41" x="525.599609"/>
      <use xlink:href="#DejaVuSans-63" x="592.257812"/>
      <use xlink:href="#DejaVuSans-63" x="647.238281"/>
      <use xlink:href="#DejaVuSans-75" x="702.21875"/>
      <use xlink:href="#DejaVuSans-72" x="765.597656"/>
      <use xlink:href="#DejaVuSans-61" x="806.710938"/>
      <use xlink:href="#DejaVuSans-63" x="867.990234"/>
      <use xlink:href="#DejaVuSans-79" x="922.970703"/>
     </g>
    </g>
    <g id="line2d_26">
     <path d="M 216.18875 173.787375 
L 226.18875 173.787375 
L 236.18875 173.787375 
" style="fill: none; stroke: #2ca02c; stroke-width: 1.5; stroke-linecap: square"/>
    </g>
    <g id="text_24">
     <!-- Robust Validation Accuracy -->
     <g transform="translate(244.18875 177.287375) scale(0.1 -0.1)">
      <defs>
       <path id="DejaVuSans-52" d="M 2841 2188 
Q 3044 2119 3236 1894 
Q 3428 1669 3622 1275 
L 4263 0 
L 3584 0 
L 2988 1197 
Q 2756 1666 2539 1819 
Q 2322 1972 1947 1972 
L 1259 1972 
L 1259 0 
L 628 0 
L 628 4666 
L 2053 4666 
Q 2853 4666 3247 4331 
Q 3641 3997 3641 3322 
Q 3641 2881 3436 2590 
Q 3231 2300 2841 2188 
z
M 1259 4147 
L 1259 2491 
L 2053 2491 
Q 2509 2491 2742 2702 
Q 2975 2913 2975 3322 
Q 2975 3731 2742 3939 
Q 2509 4147 2053 4147 
L 1259 4147 
z
" transform="scale(0.015625)"/>
       <path id="DejaVuSans-62" d="M 3116 1747 
Q 3116 2381 2855 2742 
Q 2594 3103 2138 3103 
Q 1681 3103 1420 2742 
Q 1159 2381 1159 1747 
Q 1159 1113 1420 752 
Q 1681 391 2138 391 
Q 2594 391 2855 752 
Q 3116 1113 3116 1747 
z
M 1159 2969 
Q 1341 3281 1617 3432 
Q 1894 3584 2278 3584 
Q 2916 3584 3314 3078 
Q 3713 2572 3713 1747 
Q 3713 922 3314 415 
Q 2916 -91 2278 -91 
Q 1894 -91 1617 61 
Q 1341 213 1159 525 
L 1159 0 
L 581 0 
L 581 4863 
L 1159 4863 
L 1159 2969 
z
" transform="scale(0.015625)"/>
      </defs>
      <use xlink:href="#DejaVuSans-52"/>
      <use xlink:href="#DejaVuSans-6f" x="64.982422"/>
      <use xlink:href="#DejaVuSans-62" x="126.164062"/>
      <use xlink:href="#DejaVuSans-75" x="189.640625"/>
      <use xlink:href="#DejaVuSans-73" x="253.019531"/>
      <use xlink:href="#DejaVuSans-74" x="305.119141"/>
      <use xlink:href="#DejaVuSans-20" x="344.328125"/>
      <use xlink:href="#DejaVuSans-56" x="376.115234"/>
      <use xlink:href="#DejaVuSans-61" x="436.773438"/>
      <use xlink:href="#DejaVuSans-6c" x="498.052734"/>
      <use xlink:href="#DejaVuSans-69" x="525.835938"/>
      <use xlink:href="#DejaVuSans-64" x="553.619141"/>
      <use xlink:href="#DejaVuSans-61" x="617.095703"/>
      <use xlink:href="#DejaVuSans-74" x="678.375"/>
      <use xlink:href="#DejaVuSans-69" x="717.583984"/>
      <use xlink:href="#DejaVuSans-6f" x="745.367188"/>
      <use xlink:href="#DejaVuSans-6e" x="806.548828"/>
      <use xlink:href="#DejaVuSans-20" x="869.927734"/>
      <use xlink:href="#DejaVuSans-41" x="901.714844"/>
      <use xlink:href="#DejaVuSans-63" x="968.373047"/>
      <use xlink:href="#DejaVuSans-63" x="1023.353516"/>
      <use xlink:href="#DejaVuSans-75" x="1078.333984"/>
      <use xlink:href="#DejaVuSans-72" x="1141.712891"/>
      <use xlink:href="#DejaVuSans-61" x="1182.826172"/>
      <use xlink:href="#DejaVuSans-63" x="1244.105469"/>
      <use xlink:href="#DejaVuSans-79" x="1299.085938"/>
     </g>
    </g>
    <g id="line2d_27">
     <path d="M 216.18875 188.4655 
L 226.18875 188.4655 
L 236.18875 188.4655 
" style="fill: none; stroke: #d62728; stroke-width: 1.5; stroke-linecap: square"/>
    </g>
    <g id="text_25">
     <!-- SWA Validation Accuracy -->
     <g transform="translate(244.18875 191.9655) scale(0.1 -0.1)">
      <defs>
       <path id="DejaVuSans-53" d="M 3425 4513 
L 3425 3897 
Q 3066 4069 2747 4153 
Q 2428 4238 2131 4238 
Q 1616 4238 1336 4038 
Q 1056 3838 1056 3469 
Q 1056 3159 1242 3001 
Q 1428 2844 1947 2747 
L 2328 2669 
Q 3034 2534 3370 2195 
Q 3706 1856 3706 1288 
Q 3706 609 3251 259 
Q 2797 -91 1919 -91 
Q 1588 -91 1214 -16 
Q 841 59 441 206 
L 441 856 
Q 825 641 1194 531 
Q 1563 422 1919 422 
Q 2459 422 2753 634 
Q 3047 847 3047 1241 
Q 3047 1584 2836 1778 
Q 2625 1972 2144 2069 
L 1759 2144 
Q 1053 2284 737 2584 
Q 422 2884 422 3419 
Q 422 4038 858 4394 
Q 1294 4750 2059 4750 
Q 2388 4750 2728 4690 
Q 3069 4631 3425 4513 
z
" transform="scale(0.015625)"/>
       <path id="DejaVuSans-57" d="M 213 4666 
L 850 4666 
L 1831 722 
L 2809 4666 
L 3519 4666 
L 4500 722 
L 5478 4666 
L 6119 4666 
L 4947 0 
L 4153 0 
L 3169 4050 
L 2175 0 
L 1381 0 
L 213 4666 
z
" transform="scale(0.015625)"/>
      </defs>
      <use xlink:href="#DejaVuSans-53"/>
      <use xlink:href="#DejaVuSans-57" x="63.476562"/>
      <use xlink:href="#DejaVuSans-41" x="156.853516"/>
      <use xlink:href="#DejaVuSans-20" x="225.261719"/>
      <use xlink:href="#DejaVuSans-56" x="257.048828"/>
      <use xlink:href="#DejaVuSans-61" x="317.707031"/>
      <use xlink:href="#DejaVuSans-6c" x="378.986328"/>
      <use xlink:href="#DejaVuSans-69" x="406.769531"/>
      <use xlink:href="#DejaVuSans-64" x="434.552734"/>
      <use xlink:href="#DejaVuSans-61" x="498.029297"/>
      <use xlink:href="#DejaVuSans-74" x="559.308594"/>
      <use xlink:href="#DejaVuSans-69" x="598.517578"/>
      <use xlink:href="#DejaVuSans-6f" x="626.300781"/>
      <use xlink:href="#DejaVuSans-6e" x="687.482422"/>
      <use xlink:href="#DejaVuSans-20" x="750.861328"/>
      <use xlink:href="#DejaVuSans-41" x="782.648438"/>
      <use xlink:href="#DejaVuSans-63" x="849.306641"/>
      <use xlink:href="#DejaVuSans-63" x="904.287109"/>
      <use xlink:href="#DejaVuSans-75" x="959.267578"/>
      <use xlink:href="#DejaVuSans-72" x="1022.646484"/>
      <use xlink:href="#DejaVuSans-61" x="1063.759766"/>
      <use xlink:href="#DejaVuSans-63" x="1125.039062"/>
      <use xlink:href="#DejaVuSans-79" x="1180.019531"/>
     </g>
    </g>
    <g id="line2d_28">
     <path d="M 216.18875 203.143625 
L 226.18875 203.143625 
L 236.18875 203.143625 
" style="fill: none; stroke: #9467bd; stroke-width: 1.5; stroke-linecap: square"/>
    </g>
    <g id="text_26">
     <!-- SWA Robust Validation Accuracy -->
     <g transform="translate(244.18875 206.643625) scale(0.1 -0.1)">
      <use xlink:href="#DejaVuSans-53"/>
      <use xlink:href="#DejaVuSans-57" x="63.476562"/>
      <use xlink:href="#DejaVuSans-41" x="156.853516"/>
      <use xlink:href="#DejaVuSans-20" x="225.261719"/>
      <use xlink:href="#DejaVuSans-52" x="257.048828"/>
      <use xlink:href="#DejaVuSans-6f" x="322.03125"/>
      <use xlink:href="#DejaVuSans-62" x="383.212891"/>
      <use xlink:href="#DejaVuSans-75" x="446.689453"/>
      <use xlink:href="#DejaVuSans-73" x="510.068359"/>
      <use xlink:href="#DejaVuSans-74" x="562.167969"/>
      <use xlink:href="#DejaVuSans-20" x="601.376953"/>
      <use xlink:href="#DejaVuSans-56" x="633.164062"/>
      <use xlink:href="#DejaVuSans-61" x="693.822266"/>
      <use xlink:href="#DejaVuSans-6c" x="755.101562"/>
      <use xlink:href="#DejaVuSans-69" x="782.884766"/>
      <use xlink:href="#DejaVuSans-64" x="810.667969"/>
      <use xlink:href="#DejaVuSans-61" x="874.144531"/>
      <use xlink:href="#DejaVuSans-74" x="935.423828"/>
      <use xlink:href="#DejaVuSans-69" x="974.632812"/>
      <use xlink:href="#DejaVuSans-6f" x="1002.416016"/>
      <use xlink:href="#DejaVuSans-6e" x="1063.597656"/>
      <use xlink:href="#DejaVuSans-20" x="1126.976562"/>
      <use xlink:href="#DejaVuSans-41" x="1158.763672"/>
      <use xlink:href="#DejaVuSans-63" x="1225.421875"/>
      <use xlink:href="#DejaVuSans-63" x="1280.402344"/>
      <use xlink:href="#DejaVuSans-75" x="1335.382812"/>
      <use xlink:href="#DejaVuSans-72" x="1398.761719"/>
      <use xlink:href="#DejaVuSans-61" x="1439.875"/>
      <use xlink:href="#DejaVuSans-63" x="1501.154297"/>
      <use xlink:href="#DejaVuSans-79" x="1556.134766"/>
     </g>
    </g>
   </g>
  </g>
 </g>
 <defs>
  <clipPath id="pe187a9c150">
   <rect x="57.6" y="41.472" width="357.12" height="266.112"/>
  </clipPath>
 </defs>
</svg>
