<?xml version="1.0" encoding="utf-8" standalone="no"?>
<!DOCTYPE svg PUBLIC "-//W3C//DTD SVG 1.1//EN"
  "http://www.w3.org/Graphics/SVG/1.1/DTD/svg11.dtd">
<svg xmlns:xlink="http://www.w3.org/1999/xlink" width="460.8pt" height="345.6pt" viewBox="0 0 460.8 345.6" xmlns="http://www.w3.org/2000/svg" version="1.1">
 <metadata>
  <rdf:RDF xmlns:dc="http://purl.org/dc/elements/1.1/" xmlns:cc="http://creativecommons.org/ns#" xmlns:rdf="http://www.w3.org/1999/02/22-rdf-syntax-ns#">
   <cc:Work>
    <dc:type rdf:resource="http://purl.org/dc/dcmitype/StillImage"/>
    <dc:date>2025-03-17T12:33:08.593089</dc:date>
    <dc:format>image/svg+xml</dc:format>
    <dc:creator>
     <cc:Agent>
      <dc:title>Matplotlib v3.9.1, https://matplotlib.org/</dc:title>
     </cc:Agent>
    </dc:creator>
   </cc:Work>
  </rdf:RDF>
 </metadata>
 <defs>
  <style type="text/css">*{stroke-linejoin: round; stroke-linecap: butt}</style>
 </defs>
 <g id="figure_1">
  <g id="patch_1">
   <path d="M 0 345.6 
L 460.8 345.6 
L 460.8 0 
L 0 0 
z
" style="fill: #ffffff"/>
  </g>
  <g id="axes_1">
   <g id="patch_2">
    <path d="M 57.6 307.584 
L 414.72 307.584 
L 414.72 41.472 
L 57.6 41.472 
z
" style="fill: #ffffff"/>
   </g>
   <g id="matplotlib.axis_1">
    <g id="xtick_1">
     <g id="line2d_1">
      <defs>
       <path id="mb3407037b1" d="M 0 0 
L 0 3.5 
" style="stroke: #000000; stroke-width: 0.8"/>
      </defs>
      <g>
       <use xlink:href="#mb3407037b1" x="73.832727" y="307.584" style="stroke: #000000; stroke-width: 0.8"/>
      </g>
     </g>
     <g id="text_1">
      <!-- 1 -->
      <g transform="translate(70.651477 322.182437) scale(0.1 -0.1)">
       <defs>
        <path id="DejaVuSans-31" d="M 794 531 
L 1825 531 
L 1825 4091 
L 703 3866 
L 703 4441 
L 1819 4666 
L 2450 4666 
L 2450 531 
L 3481 531 
L 3481 0 
L 794 0 
L 794 531 
z
" transform="scale(0.015625)"/>
       </defs>
       <use xlink:href="#DejaVuSans-31"/>
      </g>
     </g>
    </g>
    <g id="xtick_2">
     <g id="line2d_2">
      <g>
       <use xlink:href="#mb3407037b1" x="109.664165" y="307.584" style="stroke: #000000; stroke-width: 0.8"/>
      </g>
     </g>
     <g id="text_2">
      <!-- 34 -->
      <g transform="translate(103.301665 322.182437) scale(0.1 -0.1)">
       <defs>
        <path id="DejaVuSans-33" d="M 2597 2516 
Q 3050 2419 3304 2112 
Q 3559 1806 3559 1356 
Q 3559 666 3084 287 
Q 2609 -91 1734 -91 
Q 1441 -91 1130 -33 
Q 819 25 488 141 
L 488 750 
Q 750 597 1062 519 
Q 1375 441 1716 441 
Q 2309 441 2620 675 
Q 2931 909 2931 1356 
Q 2931 1769 2642 2001 
Q 2353 2234 1838 2234 
L 1294 2234 
L 1294 2753 
L 1863 2753 
Q 2328 2753 2575 2939 
Q 2822 3125 2822 3475 
Q 2822 3834 2567 4026 
Q 2313 4219 1838 4219 
Q 1578 4219 1281 4162 
Q 984 4106 628 3988 
L 628 4550 
Q 988 4650 1302 4700 
Q 1616 4750 1894 4750 
Q 2613 4750 3031 4423 
Q 3450 4097 3450 3541 
Q 3450 3153 3228 2886 
Q 3006 2619 2597 2516 
z
" transform="scale(0.015625)"/>
        <path id="DejaVuSans-34" d="M 2419 4116 
L 825 1625 
L 2419 1625 
L 2419 4116 
z
M 2253 4666 
L 3047 4666 
L 3047 1625 
L 3713 1625 
L 3713 1100 
L 3047 1100 
L 3047 0 
L 2419 0 
L 2419 1100 
L 313 1100 
L 313 1709 
L 2253 4666 
z
" transform="scale(0.015625)"/>
       </defs>
       <use xlink:href="#DejaVuSans-33"/>
       <use xlink:href="#DejaVuSans-34" x="63.623047"/>
      </g>
     </g>
    </g>
    <g id="xtick_3">
     <g id="line2d_3">
      <g>
       <use xlink:href="#mb3407037b1" x="145.495604" y="307.584" style="stroke: #000000; stroke-width: 0.8"/>
      </g>
     </g>
     <g id="text_3">
      <!-- 67 -->
      <g transform="translate(139.133104 322.182437) scale(0.1 -0.1)">
       <defs>
        <path id="DejaVuSans-36" d="M 2113 2584 
Q 1688 2584 1439 2293 
Q 1191 2003 1191 1497 
Q 1191 994 1439 701 
Q 1688 409 2113 409 
Q 2538 409 2786 701 
Q 3034 994 3034 1497 
Q 3034 2003 2786 2293 
Q 2538 2584 2113 2584 
z
M 3366 4563 
L 3366 3988 
Q 3128 4100 2886 4159 
Q 2644 4219 2406 4219 
Q 1781 4219 1451 3797 
Q 1122 3375 1075 2522 
Q 1259 2794 1537 2939 
Q 1816 3084 2150 3084 
Q 2853 3084 3261 2657 
Q 3669 2231 3669 1497 
Q 3669 778 3244 343 
Q 2819 -91 2113 -91 
Q 1303 -91 875 529 
Q 447 1150 447 2328 
Q 447 3434 972 4092 
Q 1497 4750 2381 4750 
Q 2619 4750 2861 4703 
Q 3103 4656 3366 4563 
z
" transform="scale(0.015625)"/>
        <path id="DejaVuSans-37" d="M 525 4666 
L 3525 4666 
L 3525 4397 
L 1831 0 
L 1172 0 
L 2766 4134 
L 525 4134 
L 525 4666 
z
" transform="scale(0.015625)"/>
       </defs>
       <use xlink:href="#DejaVuSans-36"/>
       <use xlink:href="#DejaVuSans-37" x="63.623047"/>
      </g>
     </g>
    </g>
    <g id="xtick_4">
     <g id="line2d_4">
      <g>
       <use xlink:href="#mb3407037b1" x="181.327042" y="307.584" style="stroke: #000000; stroke-width: 0.8"/>
      </g>
     </g>
     <g id="text_4">
      <!-- 100 -->
      <g transform="translate(171.783292 322.182437) scale(0.1 -0.1)">
       <defs>
        <path id="DejaVuSans-30" d="M 2034 4250 
Q 1547 4250 1301 3770 
Q 1056 3291 1056 2328 
Q 1056 1369 1301 889 
Q 1547 409 2034 409 
Q 2525 409 2770 889 
Q 3016 1369 3016 2328 
Q 3016 3291 2770 3770 
Q 2525 4250 2034 4250 
z
M 2034 4750 
Q 2819 4750 3233 4129 
Q 3647 3509 3647 2328 
Q 3647 1150 3233 529 
Q 2819 -91 2034 -91 
Q 1250 -91 836 529 
Q 422 1150 422 2328 
Q 422 3509 836 4129 
Q 1250 4750 2034 4750 
z
" transform="scale(0.015625)"/>
       </defs>
       <use xlink:href="#DejaVuSans-31"/>
       <use xlink:href="#DejaVuSans-30" x="63.623047"/>
       <use xlink:href="#DejaVuSans-30" x="127.246094"/>
      </g>
     </g>
    </g>
    <g id="xtick_5">
     <g id="line2d_5">
      <g>
       <use xlink:href="#mb3407037b1" x="217.15848" y="307.584" style="stroke: #000000; stroke-width: 0.8"/>
      </g>
     </g>
     <g id="text_5">
      <!-- 133 -->
      <g transform="translate(207.61473 322.182437) scale(0.1 -0.1)">
       <use xlink:href="#DejaVuSans-31"/>
       <use xlink:href="#DejaVuSans-33" x="63.623047"/>
       <use xlink:href="#DejaVuSans-33" x="127.246094"/>
      </g>
     </g>
    </g>
    <g id="xtick_6">
     <g id="line2d_6">
      <g>
       <use xlink:href="#mb3407037b1" x="254.075719" y="307.584" style="stroke: #000000; stroke-width: 0.8"/>
      </g>
     </g>
     <g id="text_6">
      <!-- 167 -->
      <g transform="translate(244.531969 322.182437) scale(0.1 -0.1)">
       <use xlink:href="#DejaVuSans-31"/>
       <use xlink:href="#DejaVuSans-36" x="63.623047"/>
       <use xlink:href="#DejaVuSans-37" x="127.246094"/>
      </g>
     </g>
    </g>
    <g id="xtick_7">
     <g id="line2d_7">
      <g>
       <use xlink:href="#mb3407037b1" x="289.907157" y="307.584" style="stroke: #000000; stroke-width: 0.8"/>
      </g>
     </g>
     <g id="text_7">
      <!-- 200 -->
      <g transform="translate(280.363407 322.182437) scale(0.1 -0.1)">
       <defs>
        <path id="DejaVuSans-32" d="M 1228 531 
L 3431 531 
L 3431 0 
L 469 0 
L 469 531 
Q 828 903 1448 1529 
Q 2069 2156 2228 2338 
Q 2531 2678 2651 2914 
Q 2772 3150 2772 3378 
Q 2772 3750 2511 3984 
Q 2250 4219 1831 4219 
Q 1534 4219 1204 4116 
Q 875 4013 500 3803 
L 500 4441 
Q 881 4594 1212 4672 
Q 1544 4750 1819 4750 
Q 2544 4750 2975 4387 
Q 3406 4025 3406 3419 
Q 3406 3131 3298 2873 
Q 3191 2616 2906 2266 
Q 2828 2175 2409 1742 
Q 1991 1309 1228 531 
z
" transform="scale(0.015625)"/>
       </defs>
       <use xlink:href="#DejaVuSans-32"/>
       <use xlink:href="#DejaVuSans-30" x="63.623047"/>
       <use xlink:href="#DejaVuSans-30" x="127.246094"/>
      </g>
     </g>
    </g>
    <g id="xtick_8">
     <g id="line2d_8">
      <g>
       <use xlink:href="#mb3407037b1" x="325.738595" y="307.584" style="stroke: #000000; stroke-width: 0.8"/>
      </g>
     </g>
     <g id="text_8">
      <!-- 233 -->
      <g transform="translate(316.194845 322.182437) scale(0.1 -0.1)">
       <use xlink:href="#DejaVuSans-32"/>
       <use xlink:href="#DejaVuSans-33" x="63.623047"/>
       <use xlink:href="#DejaVuSans-33" x="127.246094"/>
      </g>
     </g>
    </g>
    <g id="xtick_9">
     <g id="line2d_9">
      <g>
       <use xlink:href="#mb3407037b1" x="361.570033" y="307.584" style="stroke: #000000; stroke-width: 0.8"/>
      </g>
     </g>
     <g id="text_9">
      <!-- 266 -->
      <g transform="translate(352.026283 322.182437) scale(0.1 -0.1)">
       <use xlink:href="#DejaVuSans-32"/>
       <use xlink:href="#DejaVuSans-36" x="63.623047"/>
       <use xlink:href="#DejaVuSans-36" x="127.246094"/>
      </g>
     </g>
    </g>
    <g id="xtick_10">
     <g id="line2d_10">
      <g>
       <use xlink:href="#mb3407037b1" x="398.487273" y="307.584" style="stroke: #000000; stroke-width: 0.8"/>
      </g>
     </g>
     <g id="text_10">
      <!-- 300 -->
      <g transform="translate(388.943523 322.182437) scale(0.1 -0.1)">
       <use xlink:href="#DejaVuSans-33"/>
       <use xlink:href="#DejaVuSans-30" x="63.623047"/>
       <use xlink:href="#DejaVuSans-30" x="127.246094"/>
      </g>
     </g>
    </g>
    <g id="text_11">
     <!-- Epochs -->
     <g transform="translate(218.244375 335.860562) scale(0.1 -0.1)">
      <defs>
       <path id="DejaVuSans-45" d="M 628 4666 
L 3578 4666 
L 3578 4134 
L 1259 4134 
L 1259 2753 
L 3481 2753 
L 3481 2222 
L 1259 2222 
L 1259 531 
L 3634 531 
L 3634 0 
L 628 0 
L 628 4666 
z
" transform="scale(0.015625)"/>
       <path id="DejaVuSans-70" d="M 1159 525 
L 1159 -1331 
L 581 -1331 
L 581 3500 
L 1159 3500 
L 1159 2969 
Q 1341 3281 1617 3432 
Q 1894 3584 2278 3584 
Q 2916 3584 3314 3078 
Q 3713 2572 3713 1747 
Q 3713 922 3314 415 
Q 2916 -91 2278 -91 
Q 1894 -91 1617 61 
Q 1341 213 1159 525 
z
M 3116 1747 
Q 3116 2381 2855 2742 
Q 2594 3103 2138 3103 
Q 1681 3103 1420 2742 
Q 1159 2381 1159 1747 
Q 1159 1113 1420 752 
Q 1681 391 2138 391 
Q 2594 391 2855 752 
Q 3116 1113 3116 1747 
z
" transform="scale(0.015625)"/>
       <path id="DejaVuSans-6f" d="M 1959 3097 
Q 1497 3097 1228 2736 
Q 959 2375 959 1747 
Q 959 1119 1226 758 
Q 1494 397 1959 397 
Q 2419 397 2687 759 
Q 2956 1122 2956 1747 
Q 2956 2369 2687 2733 
Q 2419 3097 1959 3097 
z
M 1959 3584 
Q 2709 3584 3137 3096 
Q 3566 2609 3566 1747 
Q 3566 888 3137 398 
Q 2709 -91 1959 -91 
Q 1206 -91 779 398 
Q 353 888 353 1747 
Q 353 2609 779 3096 
Q 1206 3584 1959 3584 
z
" transform="scale(0.015625)"/>
       <path id="DejaVuSans-63" d="M 3122 3366 
L 3122 2828 
Q 2878 2963 2633 3030 
Q 2388 3097 2138 3097 
Q 1578 3097 1268 2742 
Q 959 2388 959 1747 
Q 959 1106 1268 751 
Q 1578 397 2138 397 
Q 2388 397 2633 464 
Q 2878 531 3122 666 
L 3122 134 
Q 2881 22 2623 -34 
Q 2366 -91 2075 -91 
Q 1284 -91 818 406 
Q 353 903 353 1747 
Q 353 2603 823 3093 
Q 1294 3584 2113 3584 
Q 2378 3584 2631 3529 
Q 2884 3475 3122 3366 
z
" transform="scale(0.015625)"/>
       <path id="DejaVuSans-68" d="M 3513 2113 
L 3513 0 
L 2938 0 
L 2938 2094 
Q 2938 2591 2744 2837 
Q 2550 3084 2163 3084 
Q 1697 3084 1428 2787 
Q 1159 2491 1159 1978 
L 1159 0 
L 581 0 
L 581 4863 
L 1159 4863 
L 1159 2956 
Q 1366 3272 1645 3428 
Q 1925 3584 2291 3584 
Q 2894 3584 3203 3211 
Q 3513 2838 3513 2113 
z
" transform="scale(0.015625)"/>
       <path id="DejaVuSans-73" d="M 2834 3397 
L 2834 2853 
Q 2591 2978 2328 3040 
Q 2066 3103 1784 3103 
Q 1356 3103 1142 2972 
Q 928 2841 928 2578 
Q 928 2378 1081 2264 
Q 1234 2150 1697 2047 
L 1894 2003 
Q 2506 1872 2764 1633 
Q 3022 1394 3022 966 
Q 3022 478 2636 193 
Q 2250 -91 1575 -91 
Q 1294 -91 989 -36 
Q 684 19 347 128 
L 347 722 
Q 666 556 975 473 
Q 1284 391 1588 391 
Q 1994 391 2212 530 
Q 2431 669 2431 922 
Q 2431 1156 2273 1281 
Q 2116 1406 1581 1522 
L 1381 1569 
Q 847 1681 609 1914 
Q 372 2147 372 2553 
Q 372 3047 722 3315 
Q 1072 3584 1716 3584 
Q 2034 3584 2315 3537 
Q 2597 3491 2834 3397 
z
" transform="scale(0.015625)"/>
      </defs>
      <use xlink:href="#DejaVuSans-45"/>
      <use xlink:href="#DejaVuSans-70" x="63.183594"/>
      <use xlink:href="#DejaVuSans-6f" x="126.660156"/>
      <use xlink:href="#DejaVuSans-63" x="187.841797"/>
      <use xlink:href="#DejaVuSans-68" x="242.822266"/>
      <use xlink:href="#DejaVuSans-73" x="306.201172"/>
     </g>
    </g>
   </g>
   <g id="matplotlib.axis_2">
    <g id="ytick_1">
     <g id="line2d_11">
      <defs>
       <path id="mf78a8b34d2" d="M 0 0 
L -3.5 0 
" style="stroke: #000000; stroke-width: 0.8"/>
      </defs>
      <g>
       <use xlink:href="#mf78a8b34d2" x="57.6" y="275.924623" style="stroke: #000000; stroke-width: 0.8"/>
      </g>
     </g>
     <g id="text_12">
      <!-- 10 -->
      <g transform="translate(37.875 279.723842) scale(0.1 -0.1)">
       <use xlink:href="#DejaVuSans-31"/>
       <use xlink:href="#DejaVuSans-30" x="63.623047"/>
      </g>
     </g>
    </g>
    <g id="ytick_2">
     <g id="line2d_12">
      <g>
       <use xlink:href="#mf78a8b34d2" x="57.6" y="240.786092" style="stroke: #000000; stroke-width: 0.8"/>
      </g>
     </g>
     <g id="text_13">
      <!-- 20 -->
      <g transform="translate(37.875 244.585311) scale(0.1 -0.1)">
       <use xlink:href="#DejaVuSans-32"/>
       <use xlink:href="#DejaVuSans-30" x="63.623047"/>
      </g>
     </g>
    </g>
    <g id="ytick_3">
     <g id="line2d_13">
      <g>
       <use xlink:href="#mf78a8b34d2" x="57.6" y="205.647561" style="stroke: #000000; stroke-width: 0.8"/>
      </g>
     </g>
     <g id="text_14">
      <!-- 30 -->
      <g transform="translate(37.875 209.44678) scale(0.1 -0.1)">
       <use xlink:href="#DejaVuSans-33"/>
       <use xlink:href="#DejaVuSans-30" x="63.623047"/>
      </g>
     </g>
    </g>
    <g id="ytick_4">
     <g id="line2d_14">
      <g>
       <use xlink:href="#mf78a8b34d2" x="57.6" y="170.509031" style="stroke: #000000; stroke-width: 0.8"/>
      </g>
     </g>
     <g id="text_15">
      <!-- 40 -->
      <g transform="translate(37.875 174.308249) scale(0.1 -0.1)">
       <use xlink:href="#DejaVuSans-34"/>
       <use xlink:href="#DejaVuSans-30" x="63.623047"/>
      </g>
     </g>
    </g>
    <g id="ytick_5">
     <g id="line2d_15">
      <g>
       <use xlink:href="#mf78a8b34d2" x="57.6" y="135.3705" style="stroke: #000000; stroke-width: 0.8"/>
      </g>
     </g>
     <g id="text_16">
      <!-- 50 -->
      <g transform="translate(37.875 139.169718) scale(0.1 -0.1)">
       <defs>
        <path id="DejaVuSans-35" d="M 691 4666 
L 3169 4666 
L 3169 4134 
L 1269 4134 
L 1269 2991 
Q 1406 3038 1543 3061 
Q 1681 3084 1819 3084 
Q 2600 3084 3056 2656 
Q 3513 2228 3513 1497 
Q 3513 744 3044 326 
Q 2575 -91 1722 -91 
Q 1428 -91 1123 -41 
Q 819 9 494 109 
L 494 744 
Q 775 591 1075 516 
Q 1375 441 1709 441 
Q 2250 441 2565 725 
Q 2881 1009 2881 1497 
Q 2881 1984 2565 2268 
Q 2250 2553 1709 2553 
Q 1456 2553 1204 2497 
Q 953 2441 691 2322 
L 691 4666 
z
" transform="scale(0.015625)"/>
       </defs>
       <use xlink:href="#DejaVuSans-35"/>
       <use xlink:href="#DejaVuSans-30" x="63.623047"/>
      </g>
     </g>
    </g>
    <g id="ytick_6">
     <g id="line2d_16">
      <g>
       <use xlink:href="#mf78a8b34d2" x="57.6" y="100.231969" style="stroke: #000000; stroke-width: 0.8"/>
      </g>
     </g>
     <g id="text_17">
      <!-- 60 -->
      <g transform="translate(37.875 104.031188) scale(0.1 -0.1)">
       <use xlink:href="#DejaVuSans-36"/>
       <use xlink:href="#DejaVuSans-30" x="63.623047"/>
      </g>
     </g>
    </g>
    <g id="ytick_7">
     <g id="line2d_17">
      <g>
       <use xlink:href="#mf78a8b34d2" x="57.6" y="65.093438" style="stroke: #000000; stroke-width: 0.8"/>
      </g>
     </g>
     <g id="text_18">
      <!-- 70 -->
      <g transform="translate(37.875 68.892657) scale(0.1 -0.1)">
       <use xlink:href="#DejaVuSans-37"/>
       <use xlink:href="#DejaVuSans-30" x="63.623047"/>
      </g>
     </g>
    </g>
    <g id="text_19">
     <!-- Accuracy -->
     <g transform="translate(31.795312 197.356125) rotate(-90) scale(0.1 -0.1)">
      <defs>
       <path id="DejaVuSans-41" d="M 2188 4044 
L 1331 1722 
L 3047 1722 
L 2188 4044 
z
M 1831 4666 
L 2547 4666 
L 4325 0 
L 3669 0 
L 3244 1197 
L 1141 1197 
L 716 0 
L 50 0 
L 1831 4666 
z
" transform="scale(0.015625)"/>
       <path id="DejaVuSans-75" d="M 544 1381 
L 544 3500 
L 1119 3500 
L 1119 1403 
Q 1119 906 1312 657 
Q 1506 409 1894 409 
Q 2359 409 2629 706 
Q 2900 1003 2900 1516 
L 2900 3500 
L 3475 3500 
L 3475 0 
L 2900 0 
L 2900 538 
Q 2691 219 2414 64 
Q 2138 -91 1772 -91 
Q 1169 -91 856 284 
Q 544 659 544 1381 
z
M 1991 3584 
L 1991 3584 
z
" transform="scale(0.015625)"/>
       <path id="DejaVuSans-72" d="M 2631 2963 
Q 2534 3019 2420 3045 
Q 2306 3072 2169 3072 
Q 1681 3072 1420 2755 
Q 1159 2438 1159 1844 
L 1159 0 
L 581 0 
L 581 3500 
L 1159 3500 
L 1159 2956 
Q 1341 3275 1631 3429 
Q 1922 3584 2338 3584 
Q 2397 3584 2469 3576 
Q 2541 3569 2628 3553 
L 2631 2963 
z
" transform="scale(0.015625)"/>
       <path id="DejaVuSans-61" d="M 2194 1759 
Q 1497 1759 1228 1600 
Q 959 1441 959 1056 
Q 959 750 1161 570 
Q 1363 391 1709 391 
Q 2188 391 2477 730 
Q 2766 1069 2766 1631 
L 2766 1759 
L 2194 1759 
z
M 3341 1997 
L 3341 0 
L 2766 0 
L 2766 531 
Q 2569 213 2275 61 
Q 1981 -91 1556 -91 
Q 1019 -91 701 211 
Q 384 513 384 1019 
Q 384 1609 779 1909 
Q 1175 2209 1959 2209 
L 2766 2209 
L 2766 2266 
Q 2766 2663 2505 2880 
Q 2244 3097 1772 3097 
Q 1472 3097 1187 3025 
Q 903 2953 641 2809 
L 641 3341 
Q 956 3463 1253 3523 
Q 1550 3584 1831 3584 
Q 2591 3584 2966 3190 
Q 3341 2797 3341 1997 
z
" transform="scale(0.015625)"/>
       <path id="DejaVuSans-79" d="M 2059 -325 
Q 1816 -950 1584 -1140 
Q 1353 -1331 966 -1331 
L 506 -1331 
L 506 -850 
L 844 -850 
Q 1081 -850 1212 -737 
Q 1344 -625 1503 -206 
L 1606 56 
L 191 3500 
L 800 3500 
L 1894 763 
L 2988 3500 
L 3597 3500 
L 2059 -325 
z
" transform="scale(0.015625)"/>
      </defs>
      <use xlink:href="#DejaVuSans-41"/>
      <use xlink:href="#DejaVuSans-63" x="66.658203"/>
      <use xlink:href="#DejaVuSans-63" x="121.638672"/>
      <use xlink:href="#DejaVuSans-75" x="176.619141"/>
      <use xlink:href="#DejaVuSans-72" x="239.998047"/>
      <use xlink:href="#DejaVuSans-61" x="281.111328"/>
      <use xlink:href="#DejaVuSans-63" x="342.390625"/>
      <use xlink:href="#DejaVuSans-79" x="397.371094"/>
     </g>
    </g>
   </g>
   <g id="line2d_18">
    <path d="M 73.832727 295.488 
L 74.918528 270.19265 
L 76.00433 250.203218 
L 77.090131 234.645634 
L 79.261733 210.307809 
L 80.347534 199.445611 
L 82.519137 183.782611 
L 83.604938 176.412304 
L 84.690739 171.053678 
L 85.77654 164.658465 
L 87.948142 154.402406 
L 89.033943 150.352691 
L 90.119745 147.220969 
L 91.205546 143.237138 
L 92.291347 139.90337 
L 93.377148 139.336761 
L 94.462949 137.887297 
L 95.54875 170.443146 
L 96.634552 167.746264 
L 97.720353 164.017187 
L 98.806154 161.214889 
L 99.891955 159.58534 
L 100.977756 156.247179 
L 102.063557 152.381941 
L 103.149358 149.259004 
L 104.23516 148.257556 
L 105.320961 144.620718 
L 106.406762 141.550489 
L 107.492563 139.12593 
L 108.578364 136.143547 
L 109.664165 134.500821 
L 110.749967 131.7117 
L 111.835768 129.941597 
L 114.00737 124.640071 
L 115.093171 122.38242 
L 116.178972 121.077902 
L 119.436376 113.668065 
L 120.522177 111.911138 
L 121.607978 109.758903 
L 122.693779 108.515878 
L 123.77958 105.46761 
L 124.865382 104.092815 
L 125.951183 101.483779 
L 127.036984 100.460369 
L 128.122785 98.215896 
L 129.208586 97.253978 
L 131.380189 94.047587 
L 133.551791 91.614244 
L 134.637592 91.513221 
L 136.809194 89.80461 
L 137.894995 89.317063 
L 138.980797 126.568298 
L 140.066598 130.433536 
L 141.152399 129.713196 
L 142.2382 128.760064 
L 143.324001 128.922579 
L 144.409802 126.739598 
L 145.495604 126.396997 
L 146.581405 123.787962 
L 147.667206 124.477555 
L 148.753007 122.891929 
L 149.838808 121.091079 
L 150.924609 120.449801 
L 152.01041 119.624046 
L 153.096212 118.367843 
L 154.182013 117.73535 
L 156.353615 115.315183 
L 157.439416 115.240514 
L 158.525217 114.274204 
L 159.611019 112.209816 
L 160.69682 111.094167 
L 161.782621 111.603676 
L 162.868422 109.649095 
L 163.954223 108.261123 
L 165.040024 107.38266 
L 166.125825 106.675497 
L 168.297428 105.533495 
L 169.383229 103.934692 
L 170.46903 103.425183 
L 171.554831 102.164588 
L 172.640632 102.270004 
L 173.726434 100.324208 
L 174.812235 99.753206 
L 175.898036 98.027026 
L 176.983837 97.025578 
L 178.069638 96.182253 
L 179.155439 95.826476 
L 181.327042 92.584946 
L 182.412843 93.213047 
L 183.498644 91.974414 
L 184.584445 92.057868 
L 185.670246 89.896849 
L 186.756047 88.056468 
L 187.841849 87.028666 
L 188.92765 85.403509 
L 190.013451 85.706579 
L 191.099252 84.858862 
L 192.185053 83.088758 
L 193.270854 82.407949 
L 195.442457 80.409445 
L 196.528258 79.689105 
L 197.614059 77.457809 
L 198.69986 77.255762 
L 199.785661 76.675976 
L 200.871462 75.213335 
L 201.957264 73.408093 
L 203.043065 73.403701 
L 205.214667 71.339312 
L 206.300468 70.922042 
L 207.386269 69.257354 
L 208.472071 69.305669 
L 209.557872 68.664391 
L 210.643673 67.728828 
L 211.729474 67.803497 
L 212.815275 65.611731 
L 213.901076 65.141754 
L 214.986877 64.276467 
L 216.072679 64.315998 
L 217.15848 63.318942 
L 218.244281 63.213527 
L 219.330082 64.535614 
L 220.415883 62.818218 
L 221.501684 63.046619 
L 222.587486 62.563464 
L 223.673287 63.12568 
L 224.759088 63.055403 
L 225.844889 108.436816 
L 226.93069 110.782313 
L 228.016491 112.363547 
L 229.102292 111.603676 
L 230.188094 111.485083 
L 231.273895 111.045852 
L 232.359696 110.237666 
L 233.445497 110.466066 
L 234.531298 109.499756 
L 235.617099 109.231825 
L 236.702901 108.590547 
L 237.788702 107.650591 
L 238.874503 107.119121 
L 239.960304 106.341681 
L 241.046105 107.272852 
L 242.131906 105.142579 
L 243.217708 105.498356 
L 244.303509 104.57597 
L 245.38931 105.23921 
L 246.475111 104.668208 
L 247.560912 103.201175 
L 248.646713 102.142627 
L 249.732514 103.043051 
L 251.904117 101.461817 
L 252.989918 101.413502 
L 254.075719 100.943524 
L 255.16152 100.231969 
L 256.247321 100.223184 
L 257.333123 99.915722 
L 258.418924 99.401821 
L 259.504725 99.37986 
L 260.590526 98.865959 
L 261.676327 98.211503 
L 262.762128 97.40771 
L 263.847929 98.60242 
L 266.019532 97.346217 
L 267.105333 97.174917 
L 268.191134 96.243746 
L 269.276935 96.924555 
L 270.362736 95.00072 
L 271.448538 95.707883 
L 272.534339 95.242298 
L 273.62014 93.832364 
L 274.705941 93.573217 
L 275.791742 94.785497 
L 276.877543 93.52051 
L 277.963344 93.608356 
L 280.134947 92.07983 
L 281.220748 92.712323 
L 283.39235 90.485419 
L 287.735555 89.892456 
L 288.821356 89.642094 
L 289.907157 88.605508 
L 290.992958 87.876383 
L 292.07876 88.763631 
L 293.164561 88.126745 
L 294.250362 87.810498 
L 295.336163 86.150203 
L 296.421964 86.56308 
L 298.593566 85.662656 
L 299.679368 84.753446 
L 300.765169 84.340568 
L 301.85097 85.645086 
L 302.936771 84.485515 
L 304.022572 84.041891 
L 305.108373 83.03605 
L 306.194175 81.692002 
L 307.279976 82.539719 
L 308.365777 81.582194 
L 309.451578 81.094647 
L 310.537379 80.273283 
L 311.62318 80.541215 
L 312.708981 79.579297 
L 313.794783 79.987783 
L 314.880584 77.563224 
L 315.966385 78.323095 
L 317.052186 77.813586 
L 319.223788 76.236745 
L 320.30959 75.98199 
L 321.395391 75.955636 
L 325.738595 73.47837 
L 326.824396 74.018625 
L 328.995999 72.64383 
L 330.0818 70.860549 
L 331.167601 71.681913 
L 332.253402 70.922042 
L 333.339203 69.556032 
L 334.425005 69.195862 
L 335.510806 68.967461 
L 336.596607 69.050915 
L 337.682408 68.211983 
L 338.768209 67.210535 
L 339.85401 67.759574 
L 340.939811 66.17834 
L 342.025613 65.264738 
L 343.111414 65.299877 
L 344.197215 65.053907 
L 345.283016 63.389219 
L 346.368817 62.958772 
L 347.454618 63.626404 
L 348.54042 62.519541 
L 349.626221 62.523933 
L 350.712022 60.92513 
L 351.797823 60.349736 
L 352.883624 59.963213 
L 353.969425 59.260442 
L 355.055227 59.572296 
L 356.141028 58.724579 
L 357.226829 57.6265 
L 358.31263 57.837331 
L 359.398431 56.603091 
L 360.484232 57.244369 
L 361.570033 55.606035 
L 362.655835 55.241473 
L 363.741636 55.707058 
L 364.827437 54.837379 
L 365.913238 54.740748 
L 366.999039 53.568 
L 368.08484 54.890087 
L 369.170642 56.800745 
L 370.256443 57.046715 
L 371.342244 58.026201 
L 372.428045 60.542998 
L 373.513846 61.768455 
L 375.685448 61.856301 
L 376.77125 60.143298 
L 377.857051 62.040778 
L 378.942852 61.562016 
L 380.028653 62.660095 
L 381.114454 61.777239 
L 382.200255 61.93097 
L 383.286057 61.750885 
L 384.371858 62.747941 
L 385.457659 62.818218 
L 386.54346 61.430246 
L 387.629261 62.475618 
L 388.715062 62.515148 
L 389.800863 61.403892 
L 390.886665 61.966109 
L 391.972466 63.696682 
L 393.058267 61.601547 
L 394.144068 62.093486 
L 395.229869 61.825555 
L 396.31567 63.046619 
L 397.401472 62.72598 
L 398.487273 63.152034 
L 398.487273 63.152034 
" clip-path="url(#peb6d3adb1f)" style="fill: none; stroke: #1f77b4; stroke-width: 1.5; stroke-linecap: square"/>
   </g>
   <g id="line2d_19">
    <path d="M 73.832727 280.088539 
L 74.918528 259.075697 
L 76.00433 242.384895 
L 77.090131 221.776147 
L 78.175932 208.265382 
L 79.261733 202.485094 
L 80.347534 192.27735 
L 81.433335 188.183712 
L 82.519137 176.131195 
L 83.604938 171.651033 
L 84.690739 164.096249 
L 85.77654 160.283718 
L 86.862341 157.296943 
L 87.948142 150.146252 
L 89.033943 147.897386 
L 90.119745 146.720245 
L 91.205546 140.729126 
L 92.291347 140.448017 
L 93.377148 138.972199 
L 94.462949 140.448017 
L 95.54875 175.867656 
L 96.634552 166.432961 
L 97.720353 161.373013 
L 98.806154 155.663001 
L 99.891955 159.51067 
L 100.977756 154.749399 
L 102.063557 158.825469 
L 103.149358 157.244235 
L 104.23516 146.070182 
L 105.320961 147.282462 
L 106.406762 136.969303 
L 107.492563 135.142099 
L 108.578364 135.5989 
L 109.664165 137.549089 
L 110.749967 129.642919 
L 111.835768 129.203688 
L 112.921569 130.134859 
L 114.00737 124.512694 
L 115.093171 127.727869 
L 116.178972 118.433728 
L 117.264773 120.401486 
L 118.350575 116.852494 
L 119.436376 115.833477 
L 120.522177 111.827684 
L 121.607978 110.73839 
L 122.693779 107.154259 
L 123.77958 105.46761 
L 124.865382 107.294814 
L 125.951183 102.182157 
L 127.036984 103.007913 
L 128.122785 99.933291 
L 129.208586 97.895257 
L 130.294387 97.456025 
L 132.46599 94.592235 
L 133.551791 94.117865 
L 134.637592 94.398973 
L 135.723393 92.958293 
L 136.809194 93.52051 
L 137.894995 93.204263 
L 138.980797 128.553625 
L 140.066598 134.105513 
L 141.152399 130.59166 
L 142.2382 127.973839 
L 143.324001 126.023651 
L 144.409802 125.830389 
L 145.495604 130.661937 
L 146.581405 124.512694 
L 147.667206 122.632782 
L 148.753007 124.793802 
L 149.838808 117.976927 
L 150.924609 126.445313 
L 152.01041 121.648903 
L 153.096212 120.243362 
L 154.182013 123.370691 
L 156.353615 113.584611 
L 157.439416 120.208224 
L 158.525217 115.675353 
L 159.611019 118.187758 
L 160.69682 112.811563 
L 161.782621 113.092671 
L 162.868422 114.515782 
L 163.954223 112.987256 
L 165.040024 113.12781 
L 166.125825 114.023842 
L 167.211627 108.050292 
L 168.297428 106.838013 
L 169.383229 109.280141 
L 170.46903 105.818995 
L 171.554831 103.271452 
L 172.640632 104.624285 
L 173.726434 104.554008 
L 174.812235 103.605268 
L 175.898036 97.772272 
L 176.983837 99.617045 
L 178.069638 98.756151 
L 179.155439 100.19683 
L 180.24124 99.511629 
L 181.327042 96.876239 
L 182.412843 95.347713 
L 183.498644 94.961189 
L 184.584445 95.365282 
L 185.670246 92.694754 
L 186.756047 89.567425 
L 187.841849 92.378507 
L 188.92765 91.025674 
L 190.013451 88.636254 
L 191.099252 88.513269 
L 192.185053 86.246834 
L 193.270854 86.721204 
L 194.356656 84.700738 
L 195.442457 84.700738 
L 196.528258 84.138522 
L 197.614059 85.333232 
L 198.69986 80.817931 
L 199.785661 80.8355 
L 200.871462 79.816483 
L 201.957264 77.145954 
L 203.043065 79.447528 
L 204.128866 76.249922 
L 205.214667 78.551495 
L 206.300468 76.320199 
L 207.386269 75.424166 
L 208.472071 73.64967 
L 209.557872 75.441735 
L 210.643673 73.122592 
L 211.729474 72.490099 
L 212.815275 71.717051 
L 213.901076 71.50622 
L 214.986877 70.504772 
L 218.244281 70.504772 
L 219.330082 69.556032 
L 221.501684 69.766863 
L 222.587486 69.169508 
L 223.673287 69.292493 
L 224.759088 69.134369 
L 225.844889 115.868615 
L 226.93069 119.382468 
L 228.016491 126.357467 
L 229.102292 117.90665 
L 230.188094 116.079446 
L 231.273895 116.817355 
L 232.359696 114.287381 
L 233.445497 117.326864 
L 234.531298 113.004825 
L 235.617099 112.864271 
L 236.702901 116.202431 
L 237.788702 116.395693 
L 238.874503 112.214208 
L 239.960304 111.827684 
L 241.046105 112.302054 
L 242.131906 117.116033 
L 243.217708 109.754511 
L 244.303509 109.719372 
L 245.38931 108.946325 
L 246.475111 119.048652 
L 247.560912 109.807219 
L 248.646713 110.158604 
L 250.818316 111.476299 
L 251.904117 109.807219 
L 252.989918 115.165845 
L 254.075719 105.291917 
L 255.16152 111.704699 
L 256.247321 116.413262 
L 257.333123 103.974222 
L 258.418924 105.801426 
L 259.504725 115.534799 
L 260.590526 108.225985 
L 261.676327 104.922963 
L 262.762128 106.082534 
L 263.847929 107.681337 
L 264.933731 124.214016 
L 266.019532 105.010809 
L 267.105333 100.565785 
L 268.191134 103.587699 
L 269.276935 106.240658 
L 270.362736 104.571577 
L 271.448538 104.694562 
L 272.534339 102.515973 
L 273.62014 103.868807 
L 274.705941 97.684425 
L 275.791742 100.93474 
L 276.877543 100.337385 
L 277.963344 95.400421 
L 279.049146 102.884928 
L 280.134947 99.072397 
L 281.220748 102.884928 
L 282.306549 99.195382 
L 283.39235 94.293557 
L 284.478151 93.678633 
L 285.563953 97.772272 
L 286.649754 106.240658 
L 287.735555 97.860118 
L 288.821356 97.930395 
L 289.907157 92.659616 
L 290.992958 92.940724 
L 292.07876 100.021138 
L 293.164561 93.590787 
L 294.250362 96.437008 
L 295.336163 97.491164 
L 296.421964 94.065157 
L 297.507765 95.18959 
L 298.593566 93.151555 
L 300.765169 89.813395 
L 301.85097 92.07983 
L 302.936771 91.271644 
L 304.022572 89.532286 
L 305.108373 88.232161 
L 306.194175 87.986191 
L 307.279976 91.060812 
L 308.365777 91.429767 
L 309.451578 91.447336 
L 310.537379 87.459113 
L 311.62318 89.075485 
L 312.708981 86.369819 
L 313.794783 86.633357 
L 314.880584 90.199918 
L 315.966385 88.741669 
L 317.052186 85.965725 
L 319.223788 86.773912 
L 320.30959 84.999416 
L 321.395391 87.915914 
L 322.481192 82.434303 
L 323.566993 82.680273 
L 324.652794 80.027314 
L 325.738595 83.383043 
L 326.824396 84.946708 
L 327.910198 79.711067 
L 328.995999 79.447528 
L 330.0818 83.049227 
L 331.167601 79.254266 
L 332.253402 78.533926 
L 333.339203 78.393372 
L 334.425005 77.866294 
L 336.596607 77.550047 
L 337.682408 75.740413 
L 338.768209 80.817931 
L 339.85401 76.443184 
L 340.939811 75.143058 
L 342.025613 74.721396 
L 343.111414 73.89564 
L 344.197215 75.353889 
L 346.368817 70.153387 
L 347.454618 72.103575 
L 348.54042 71.840036 
L 349.626221 73.544255 
L 350.712022 69.204646 
L 351.797823 70.487203 
L 352.883624 68.853261 
L 355.055227 67.92209 
L 356.141028 70.135817 
L 357.226829 67.289596 
L 358.31263 67.92209 
L 359.398431 67.869382 
L 360.484232 66.200302 
L 361.570033 66.077317 
L 362.655835 64.654206 
L 363.741636 65.075869 
L 364.827437 66.024609 
L 365.913238 64.09199 
L 366.999039 66.95578 
L 368.08484 65.919194 
L 369.170642 68.747845 
L 370.256443 69.397908 
L 371.342244 70.241233 
L 372.428045 72.876623 
L 373.513846 70.996711 
L 374.599647 71.084558 
L 375.685448 72.876623 
L 376.77125 71.50622 
L 377.857051 71.400804 
L 378.942852 70.55748 
L 380.028653 72.384683 
L 381.114454 72.367114 
L 382.200255 71.558928 
L 383.286057 75.266043 
L 384.371858 75.951244 
L 385.457659 71.857605 
L 386.54346 70.170956 
L 387.629261 72.999608 
L 388.715062 73.719947 
L 389.800863 73.245577 
L 390.886665 71.365666 
L 391.972466 70.53991 
L 393.058267 72.033298 
L 394.144068 72.823915 
L 395.229869 71.154835 
L 396.31567 75.353889 
L 397.401472 71.348097 
L 398.487273 73.280716 
L 398.487273 73.280716 
" clip-path="url(#peb6d3adb1f)" style="fill: none; stroke: #ff7f0e; stroke-width: 1.5; stroke-linecap: square"/>
   </g>
   <g id="line2d_20">
    <path d="M 73.832727 292.403382 
L 74.918528 279.680811 
L 76.00433 272.774272 
L 77.090131 262.475047 
L 78.175932 255.447341 
L 79.261733 253.872166 
L 80.347534 246.84446 
L 81.433335 244.421113 
L 82.519137 241.028427 
L 83.604938 241.876598 
L 84.690739 240.90726 
L 85.77654 232.062043 
L 86.862341 233.879553 
L 87.948142 228.305855 
L 89.033943 225.882508 
L 90.119745 226.367178 
L 91.205546 222.853325 
L 92.291347 222.732157 
L 93.377148 222.489823 
L 94.462949 223.337994 
L 95.54875 240.90726 
L 96.634552 237.999243 
L 97.720353 232.910215 
L 98.806154 230.244533 
L 99.891955 235.697064 
L 100.977756 231.940876 
L 102.063557 230.729202 
L 103.149358 232.910215 
L 104.23516 224.064998 
L 105.320961 233.031382 
L 106.406762 221.278149 
L 107.492563 222.247488 
L 108.578364 221.035814 
L 109.664165 224.792002 
L 110.749967 218.612468 
L 111.835768 216.916125 
L 112.921569 221.520484 
L 114.00737 217.885463 
L 115.093171 215.946786 
L 116.178972 209.888419 
L 117.264773 210.615423 
L 118.350575 207.10157 
L 119.436376 210.73659 
L 120.522177 205.768729 
L 121.607978 203.951218 
L 122.693779 207.949741 
L 123.77958 204.557055 
L 124.865382 208.555578 
L 125.951183 202.739545 
L 127.036984 205.284059 
L 128.122785 201.164369 
L 129.208586 199.589194 
L 130.294387 202.133708 
L 131.380189 199.710361 
L 132.46599 199.952696 
L 133.551791 197.408182 
L 134.637592 199.589194 
L 135.723393 198.498688 
L 136.809194 198.983357 
L 137.894995 197.771684 
L 138.980797 217.521961 
L 140.066598 223.216827 
L 141.152399 218.733635 
L 142.2382 215.704451 
L 143.324001 213.886941 
L 144.409802 212.675268 
L 145.495604 219.097137 
L 146.581405 215.219782 
L 147.667206 212.311765 
L 148.753007 212.675268 
L 149.838808 209.524916 
L 150.924609 218.733635 
L 152.01041 211.342427 
L 153.096212 212.311765 
L 154.182013 208.192076 
L 155.267814 211.827096 
L 156.353615 208.313243 
L 157.439416 212.675268 
L 158.525217 205.041725 
L 159.611019 210.251921 
L 160.69682 205.647561 
L 161.782621 209.161414 
L 162.868422 208.313243 
L 163.954223 211.584761 
L 165.040024 208.797912 
L 166.125825 210.857757 
L 167.211627 201.164369 
L 168.297428 205.889896 
L 170.46903 204.193553 
L 171.554831 202.49721 
L 172.640632 205.162892 
L 173.726434 206.738067 
L 175.898036 196.075341 
L 176.983837 198.014018 
L 178.069638 199.468027 
L 179.155439 202.254876 
L 180.24124 202.49721 
L 181.327042 194.863667 
L 182.412843 194.7425 
L 183.498644 197.04468 
L 184.584445 197.771684 
L 185.670246 190.138141 
L 186.756047 187.593627 
L 187.841849 189.411137 
L 188.92765 194.015496 
L 190.013451 192.682655 
L 191.099252 194.378998 
L 192.185053 192.44032 
L 193.270854 187.230125 
L 194.356656 188.199463 
L 195.442457 187.957129 
L 196.528258 189.532304 
L 197.614059 196.923512 
L 198.69986 183.231602 
L 199.785661 183.473937 
L 200.871462 184.927945 
L 201.957264 184.079773 
L 203.043065 180.202418 
L 204.128866 180.687088 
L 205.214667 185.654949 
L 206.300468 178.142573 
L 207.386269 179.838916 
L 208.472071 181.898761 
L 209.557872 180.56592 
L 210.643673 180.808255 
L 211.729474 179.838916 
L 212.815275 179.960084 
L 213.901076 178.021406 
L 214.986877 176.325063 
L 216.072679 175.598059 
L 217.15848 175.719226 
L 218.244281 175.961561 
L 219.330082 175.840394 
L 220.415883 175.11339 
L 221.501684 174.992222 
L 222.587486 174.022884 
L 223.673287 174.386386 
L 224.759088 173.901716 
L 225.844889 210.009586 
L 226.93069 211.584761 
L 228.016491 215.219782 
L 229.102292 214.735112 
L 230.188094 202.133708 
L 231.273895 204.435888 
L 232.359696 212.432933 
L 233.445497 212.5541 
L 234.531298 202.49721 
L 235.617099 204.79939 
L 236.702901 213.03877 
L 237.788702 200.558533 
L 238.874503 211.100092 
L 239.960304 211.705929 
L 241.046105 204.072386 
L 242.131906 210.73659 
L 243.217708 207.949741 
L 244.303509 207.828574 
L 245.38931 202.254876 
L 246.475111 223.459161 
L 247.560912 200.437365 
L 248.646713 206.374565 
L 249.732514 205.405227 
L 250.818316 203.830051 
L 251.904117 205.526394 
L 252.989918 214.492778 
L 254.075719 203.466549 
L 255.16152 207.10157 
L 256.247321 214.250443 
L 257.333123 198.498688 
L 258.418924 201.164369 
L 259.504725 214.37161 
L 260.590526 204.193553 
L 261.676327 205.647561 
L 262.762128 202.49721 
L 263.847929 201.649039 
L 264.933731 219.824141 
L 266.019532 199.589194 
L 267.105333 196.196508 
L 268.191134 197.529349 
L 269.276935 206.738067 
L 270.362736 202.860712 
L 271.448538 202.98188 
L 272.534339 200.6797 
L 274.705941 193.409659 
L 275.791742 203.587716 
L 276.877543 197.04468 
L 277.963344 195.106002 
L 279.049146 205.162892 
L 280.134947 205.041725 
L 281.220748 205.768729 
L 282.306549 205.041725 
L 283.39235 191.10748 
L 284.478151 193.773161 
L 285.563953 195.954174 
L 286.649754 207.10157 
L 287.735555 199.468027 
L 288.821356 200.316198 
L 289.907157 193.409659 
L 290.992958 190.501643 
L 292.07876 193.773161 
L 293.164561 191.349814 
L 294.250362 192.682655 
L 295.336163 194.621333 
L 296.421964 186.260786 
L 297.507765 194.984835 
L 298.593566 188.926467 
L 299.679368 195.469504 
L 300.765169 186.260786 
L 301.85097 192.561488 
L 302.936771 190.62281 
L 304.022572 191.10748 
L 305.108373 187.835961 
L 306.194175 187.957129 
L 307.279976 189.047635 
L 308.365777 197.650516 
L 309.451578 191.228647 
L 310.537379 189.532304 
L 311.62318 197.650516 
L 312.708981 185.533782 
L 313.794783 181.898761 
L 314.880584 202.739545 
L 315.966385 191.470982 
L 317.052186 190.138141 
L 318.137987 193.167325 
L 319.223788 193.288492 
L 320.30959 187.351292 
L 321.395391 192.44032 
L 322.481192 184.927945 
L 323.566993 183.110435 
L 324.652794 176.688565 
L 325.738595 180.687088 
L 326.824396 189.289969 
L 327.910198 181.171757 
L 328.995999 179.596582 
L 330.0818 183.231602 
L 331.167601 179.354247 
L 332.253402 174.749888 
L 333.339203 179.717749 
L 334.425005 178.506075 
L 335.510806 176.567398 
L 336.596607 175.719226 
L 337.682408 174.386386 
L 338.768209 185.897284 
L 339.85401 178.142573 
L 340.939811 184.564443 
L 342.025613 174.871055 
L 343.111414 178.627243 
L 344.197215 181.292924 
L 345.283016 172.690043 
L 346.368817 174.022884 
L 347.454618 179.717749 
L 348.54042 176.567398 
L 349.626221 171.478369 
L 350.712022 174.749888 
L 351.797823 176.325063 
L 352.883624 172.447708 
L 353.969425 167.964516 
L 355.055227 167.843349 
L 356.141028 172.568875 
L 357.226829 172.205373 
L 358.31263 172.568875 
L 359.398431 171.236035 
L 360.484232 169.055022 
L 361.570033 169.17619 
L 362.655835 167.964516 
L 363.741636 167.237512 
L 364.827437 175.234557 
L 365.913238 169.418524 
L 366.999039 169.660859 
L 368.08484 170.387863 
L 369.170642 175.598059 
L 370.256443 174.265218 
L 371.342244 174.992222 
L 372.428045 176.082729 
L 373.513846 168.085684 
L 375.685448 178.384908 
L 376.77125 173.417047 
L 377.857051 173.174712 
L 378.942852 177.779071 
L 380.028653 174.022884 
L 381.114454 176.082729 
L 382.200255 180.202418 
L 383.286057 178.990745 
L 384.371858 178.74841 
L 385.457659 171.963039 
L 386.54346 171.114867 
L 387.629261 171.963039 
L 388.715062 173.29588 
L 389.800863 176.203896 
L 390.886665 169.539692 
L 391.972466 171.478369 
L 393.058267 176.567398 
L 394.144068 172.447708 
L 395.229869 173.417047 
L 396.31567 184.806778 
L 397.401472 175.840394 
L 398.487273 180.323586 
L 398.487273 180.323586 
" clip-path="url(#peb6d3adb1f)" style="fill: none; stroke: #2ca02c; stroke-width: 1.5; stroke-linecap: square"/>
   </g>
   <g id="line2d_21">
    <path d="M 368.08484 68.677568 
L 369.170642 69.397908 
L 370.256443 67.535566 
L 371.342244 71.75219 
L 372.428045 77.514909 
L 373.513846 73.561824 
L 374.599647 73.755086 
L 375.685448 81.520701 
L 376.77125 81.415286 
L 377.857051 78.779896 
L 378.942852 78.393372 
L 380.028653 77.181093 
L 381.114454 75.617428 
L 382.200255 81.30987 
L 383.286057 79.254266 
L 384.371858 86.10628 
L 385.457659 84.384492 
L 386.54346 83.804706 
L 387.629261 86.475234 
L 388.715062 92.237953 
L 389.800863 92.185245 
L 390.886665 87.230713 
L 391.972466 97.719564 
L 393.058267 101.532095 
L 394.144068 102.972774 
L 395.229869 99.212952 
L 396.31567 99.827876 
L 397.401472 95.066605 
L 398.487273 98.703443 
L 398.487273 98.703443 
" clip-path="url(#peb6d3adb1f)" style="fill: none; stroke: #d62728; stroke-width: 1.5; stroke-linecap: square"/>
   </g>
   <g id="line2d_22">
    <path d="M 368.08484 175.11339 
L 369.170642 176.203896 
L 370.256443 175.476892 
L 371.342244 180.687088 
L 372.428045 186.745455 
L 373.513846 176.446231 
L 374.599647 174.386386 
L 375.685448 181.777594 
L 376.77125 180.808255 
L 377.857051 180.687088 
L 378.942852 180.808255 
L 380.028653 181.535259 
L 381.114454 180.56592 
L 382.200255 192.682655 
L 383.286057 187.230125 
L 384.371858 191.592149 
L 385.457659 187.108957 
L 386.54346 185.412614 
L 387.629261 192.076818 
L 388.715062 192.44032 
L 389.800863 194.984835 
L 390.886665 190.743978 
L 391.972466 200.800867 
L 393.058267 195.590671 
L 394.144068 202.012541 
L 395.229869 204.193553 
L 396.31567 200.800867 
L 397.401472 192.92499 
L 398.487273 196.802345 
L 398.487273 196.802345 
" clip-path="url(#peb6d3adb1f)" style="fill: none; stroke: #9467bd; stroke-width: 1.5; stroke-linecap: square"/>
   </g>
   <g id="patch_3">
    <path d="M 57.6 307.584 
L 57.6 41.472 
" style="fill: none; stroke: #000000; stroke-width: 0.8; stroke-linejoin: miter; stroke-linecap: square"/>
   </g>
   <g id="patch_4">
    <path d="M 414.72 307.584 
L 414.72 41.472 
" style="fill: none; stroke: #000000; stroke-width: 0.8; stroke-linejoin: miter; stroke-linecap: square"/>
   </g>
   <g id="patch_5">
    <path d="M 57.6 307.584 
L 414.72 307.584 
" style="fill: none; stroke: #000000; stroke-width: 0.8; stroke-linejoin: miter; stroke-linecap: square"/>
   </g>
   <g id="patch_6">
    <path d="M 57.6 41.472 
L 414.72 41.472 
" style="fill: none; stroke: #000000; stroke-width: 0.8; stroke-linejoin: miter; stroke-linecap: square"/>
   </g>
   <g id="text_20">
    <!-- Learning Curves -->
    <g transform="translate(187.37625 35.472) scale(0.12 -0.12)">
     <defs>
      <path id="DejaVuSans-4c" d="M 628 4666 
L 1259 4666 
L 1259 531 
L 3531 531 
L 3531 0 
L 628 0 
L 628 4666 
z
" transform="scale(0.015625)"/>
      <path id="DejaVuSans-65" d="M 3597 1894 
L 3597 1613 
L 953 1613 
Q 991 1019 1311 708 
Q 1631 397 2203 397 
Q 2534 397 2845 478 
Q 3156 559 3463 722 
L 3463 178 
Q 3153 47 2828 -22 
Q 2503 -91 2169 -91 
Q 1331 -91 842 396 
Q 353 884 353 1716 
Q 353 2575 817 3079 
Q 1281 3584 2069 3584 
Q 2775 3584 3186 3129 
Q 3597 2675 3597 1894 
z
M 3022 2063 
Q 3016 2534 2758 2815 
Q 2500 3097 2075 3097 
Q 1594 3097 1305 2825 
Q 1016 2553 972 2059 
L 3022 2063 
z
" transform="scale(0.015625)"/>
      <path id="DejaVuSans-6e" d="M 3513 2113 
L 3513 0 
L 2938 0 
L 2938 2094 
Q 2938 2591 2744 2837 
Q 2550 3084 2163 3084 
Q 1697 3084 1428 2787 
Q 1159 2491 1159 1978 
L 1159 0 
L 581 0 
L 581 3500 
L 1159 3500 
L 1159 2956 
Q 1366 3272 1645 3428 
Q 1925 3584 2291 3584 
Q 2894 3584 3203 3211 
Q 3513 2838 3513 2113 
z
" transform="scale(0.015625)"/>
      <path id="DejaVuSans-69" d="M 603 3500 
L 1178 3500 
L 1178 0 
L 603 0 
L 603 3500 
z
M 603 4863 
L 1178 4863 
L 1178 4134 
L 603 4134 
L 603 4863 
z
" transform="scale(0.015625)"/>
      <path id="DejaVuSans-67" d="M 2906 1791 
Q 2906 2416 2648 2759 
Q 2391 3103 1925 3103 
Q 1463 3103 1205 2759 
Q 947 2416 947 1791 
Q 947 1169 1205 825 
Q 1463 481 1925 481 
Q 2391 481 2648 825 
Q 2906 1169 2906 1791 
z
M 3481 434 
Q 3481 -459 3084 -895 
Q 2688 -1331 1869 -1331 
Q 1566 -1331 1297 -1286 
Q 1028 -1241 775 -1147 
L 775 -588 
Q 1028 -725 1275 -790 
Q 1522 -856 1778 -856 
Q 2344 -856 2625 -561 
Q 2906 -266 2906 331 
L 2906 616 
Q 2728 306 2450 153 
Q 2172 0 1784 0 
Q 1141 0 747 490 
Q 353 981 353 1791 
Q 353 2603 747 3093 
Q 1141 3584 1784 3584 
Q 2172 3584 2450 3431 
Q 2728 3278 2906 2969 
L 2906 3500 
L 3481 3500 
L 3481 434 
z
" transform="scale(0.015625)"/>
      <path id="DejaVuSans-20" transform="scale(0.015625)"/>
      <path id="DejaVuSans-43" d="M 4122 4306 
L 4122 3641 
Q 3803 3938 3442 4084 
Q 3081 4231 2675 4231 
Q 1875 4231 1450 3742 
Q 1025 3253 1025 2328 
Q 1025 1406 1450 917 
Q 1875 428 2675 428 
Q 3081 428 3442 575 
Q 3803 722 4122 1019 
L 4122 359 
Q 3791 134 3420 21 
Q 3050 -91 2638 -91 
Q 1578 -91 968 557 
Q 359 1206 359 2328 
Q 359 3453 968 4101 
Q 1578 4750 2638 4750 
Q 3056 4750 3426 4639 
Q 3797 4528 4122 4306 
z
" transform="scale(0.015625)"/>
      <path id="DejaVuSans-76" d="M 191 3500 
L 800 3500 
L 1894 563 
L 2988 3500 
L 3597 3500 
L 2284 0 
L 1503 0 
L 191 3500 
z
" transform="scale(0.015625)"/>
     </defs>
     <use xlink:href="#DejaVuSans-4c"/>
     <use xlink:href="#DejaVuSans-65" x="53.962891"/>
     <use xlink:href="#DejaVuSans-61" x="115.486328"/>
     <use xlink:href="#DejaVuSans-72" x="176.765625"/>
     <use xlink:href="#DejaVuSans-6e" x="216.128906"/>
     <use xlink:href="#DejaVuSans-69" x="279.507812"/>
     <use xlink:href="#DejaVuSans-6e" x="307.291016"/>
     <use xlink:href="#DejaVuSans-67" x="370.669922"/>
     <use xlink:href="#DejaVuSans-20" x="434.146484"/>
     <use xlink:href="#DejaVuSans-43" x="465.933594"/>
     <use xlink:href="#DejaVuSans-75" x="535.757812"/>
     <use xlink:href="#DejaVuSans-72" x="599.136719"/>
     <use xlink:href="#DejaVuSans-76" x="640.25"/>
     <use xlink:href="#DejaVuSans-65" x="699.429688"/>
     <use xlink:href="#DejaVuSans-73" x="760.953125"/>
    </g>
   </g>
   <g id="legend_1">
    <g id="patch_7">
     <path d="M 214.18875 302.584 
L 407.72 302.584 
Q 409.72 302.584 409.72 300.584 
L 409.72 228.193375 
Q 409.72 226.193375 407.72 226.193375 
L 214.18875 226.193375 
Q 212.18875 226.193375 212.18875 228.193375 
L 212.18875 300.584 
Q 212.18875 302.584 214.18875 302.584 
z
" style="fill: #ffffff; opacity: 0.8; stroke: #cccccc; stroke-linejoin: miter"/>
    </g>
    <g id="line2d_23">
     <path d="M 216.18875 234.291812 
L 226.18875 234.291812 
L 236.18875 234.291812 
" style="fill: none; stroke: #1f77b4; stroke-width: 1.5; stroke-linecap: square"/>
    </g>
    <g id="text_21">
     <!-- Train Accuracy -->
     <g transform="translate(244.18875 237.791812) scale(0.1 -0.1)">
      <defs>
       <path id="DejaVuSans-54" d="M -19 4666 
L 3928 4666 
L 3928 4134 
L 2272 4134 
L 2272 0 
L 1638 0 
L 1638 4134 
L -19 4134 
L -19 4666 
z
" transform="scale(0.015625)"/>
      </defs>
      <use xlink:href="#DejaVuSans-54"/>
      <use xlink:href="#DejaVuSans-72" x="46.333984"/>
      <use xlink:href="#DejaVuSans-61" x="87.447266"/>
      <use xlink:href="#DejaVuSans-69" x="148.726562"/>
      <use xlink:href="#DejaVuSans-6e" x="176.509766"/>
      <use xlink:href="#DejaVuSans-20" x="239.888672"/>
      <use xlink:href="#DejaVuSans-41" x="271.675781"/>
      <use xlink:href="#DejaVuSans-63" x="338.333984"/>
      <use xlink:href="#DejaVuSans-63" x="393.314453"/>
      <use xlink:href="#DejaVuSans-75" x="448.294922"/>
      <use xlink:href="#DejaVuSans-72" x="511.673828"/>
      <use xlink:href="#DejaVuSans-61" x="552.787109"/>
      <use xlink:href="#DejaVuSans-63" x="614.066406"/>
      <use xlink:href="#DejaVuSans-79" x="669.046875"/>
     </g>
    </g>
    <g id="line2d_24">
     <path d="M 216.18875 248.969937 
L 226.18875 248.969937 
L 236.18875 248.969937 
" style="fill: none; stroke: #ff7f0e; stroke-width: 1.5; stroke-linecap: square"/>
    </g>
    <g id="text_22">
     <!-- Validation Accuracy -->
     <g transform="translate(244.18875 252.469937) scale(0.1 -0.1)">
      <defs>
       <path id="DejaVuSans-56" d="M 1831 0 
L 50 4666 
L 709 4666 
L 2188 738 
L 3669 4666 
L 4325 4666 
L 2547 0 
L 1831 0 
z
" transform="scale(0.015625)"/>
       <path id="DejaVuSans-6c" d="M 603 4863 
L 1178 4863 
L 1178 0 
L 603 0 
L 603 4863 
z
" transform="scale(0.015625)"/>
       <path id="DejaVuSans-64" d="M 2906 2969 
L 2906 4863 
L 3481 4863 
L 3481 0 
L 2906 0 
L 2906 525 
Q 2725 213 2448 61 
Q 2172 -91 1784 -91 
Q 1150 -91 751 415 
Q 353 922 353 1747 
Q 353 2572 751 3078 
Q 1150 3584 1784 3584 
Q 2172 3584 2448 3432 
Q 2725 3281 2906 2969 
z
M 947 1747 
Q 947 1113 1208 752 
Q 1469 391 1925 391 
Q 2381 391 2643 752 
Q 2906 1113 2906 1747 
Q 2906 2381 2643 2742 
Q 2381 3103 1925 3103 
Q 1469 3103 1208 2742 
Q 947 2381 947 1747 
z
" transform="scale(0.015625)"/>
       <path id="DejaVuSans-74" d="M 1172 4494 
L 1172 3500 
L 2356 3500 
L 2356 3053 
L 1172 3053 
L 1172 1153 
Q 1172 725 1289 603 
Q 1406 481 1766 481 
L 2356 481 
L 2356 0 
L 1766 0 
Q 1100 0 847 248 
Q 594 497 594 1153 
L 594 3053 
L 172 3053 
L 172 3500 
L 594 3500 
L 594 4494 
L 1172 4494 
z
" transform="scale(0.015625)"/>
      </defs>
      <use xlink:href="#DejaVuSans-56"/>
      <use xlink:href="#DejaVuSans-61" x="60.658203"/>
      <use xlink:href="#DejaVuSans-6c" x="121.9375"/>
      <use xlink:href="#DejaVuSans-69" x="149.720703"/>
      <use xlink:href="#DejaVuSans-64" x="177.503906"/>
      <use xlink:href="#DejaVuSans-61" x="240.980469"/>
      <use xlink:href="#DejaVuSans-74" x="302.259766"/>
      <use xlink:href="#DejaVuSans-69" x="341.46875"/>
      <use xlink:href="#DejaVuSans-6f" x="369.251953"/>
      <use xlink:href="#DejaVuSans-6e" x="430.433594"/>
      <use xlink:href="#DejaVuSans-20" x="493.8125"/>
      <use xlink:href="#DejaVuSans-41" x="525.599609"/>
      <use xlink:href="#DejaVuSans-63" x="592.257812"/>
      <use xlink:href="#DejaVuSans-63" x="647.238281"/>
      <use xlink:href="#DejaVuSans-75" x="702.21875"/>
      <use xlink:href="#DejaVuSans-72" x="765.597656"/>
      <use xlink:href="#DejaVuSans-61" x="806.710938"/>
      <use xlink:href="#DejaVuSans-63" x="867.990234"/>
      <use xlink:href="#DejaVuSans-79" x="922.970703"/>
     </g>
    </g>
    <g id="line2d_25">
     <path d="M 216.18875 263.648062 
L 226.18875 263.648062 
L 236.18875 263.648062 
" style="fill: none; stroke: #2ca02c; stroke-width: 1.5; stroke-linecap: square"/>
    </g>
    <g id="text_23">
     <!-- Robust Validation Accuracy -->
     <g transform="translate(244.18875 267.148062) scale(0.1 -0.1)">
      <defs>
       <path id="DejaVuSans-52" d="M 2841 2188 
Q 3044 2119 3236 1894 
Q 3428 1669 3622 1275 
L 4263 0 
L 3584 0 
L 2988 1197 
Q 2756 1666 2539 1819 
Q 2322 1972 1947 1972 
L 1259 1972 
L 1259 0 
L 628 0 
L 628 4666 
L 2053 4666 
Q 2853 4666 3247 4331 
Q 3641 3997 3641 3322 
Q 3641 2881 3436 2590 
Q 3231 2300 2841 2188 
z
M 1259 4147 
L 1259 2491 
L 2053 2491 
Q 2509 2491 2742 2702 
Q 2975 2913 2975 3322 
Q 2975 3731 2742 3939 
Q 2509 4147 2053 4147 
L 1259 4147 
z
" transform="scale(0.015625)"/>
       <path id="DejaVuSans-62" d="M 3116 1747 
Q 3116 2381 2855 2742 
Q 2594 3103 2138 3103 
Q 1681 3103 1420 2742 
Q 1159 2381 1159 1747 
Q 1159 1113 1420 752 
Q 1681 391 2138 391 
Q 2594 391 2855 752 
Q 3116 1113 3116 1747 
z
M 1159 2969 
Q 1341 3281 1617 3432 
Q 1894 3584 2278 3584 
Q 2916 3584 3314 3078 
Q 3713 2572 3713 1747 
Q 3713 922 3314 415 
Q 2916 -91 2278 -91 
Q 1894 -91 1617 61 
Q 1341 213 1159 525 
L 1159 0 
L 581 0 
L 581 4863 
L 1159 4863 
L 1159 2969 
z
" transform="scale(0.015625)"/>
      </defs>
      <use xlink:href="#DejaVuSans-52"/>
      <use xlink:href="#DejaVuSans-6f" x="64.982422"/>
      <use xlink:href="#DejaVuSans-62" x="126.164062"/>
      <use xlink:href="#DejaVuSans-75" x="189.640625"/>
      <use xlink:href="#DejaVuSans-73" x="253.019531"/>
      <use xlink:href="#DejaVuSans-74" x="305.119141"/>
      <use xlink:href="#DejaVuSans-20" x="344.328125"/>
      <use xlink:href="#DejaVuSans-56" x="376.115234"/>
      <use xlink:href="#DejaVuSans-61" x="436.773438"/>
      <use xlink:href="#DejaVuSans-6c" x="498.052734"/>
      <use xlink:href="#DejaVuSans-69" x="525.835938"/>
      <use xlink:href="#DejaVuSans-64" x="553.619141"/>
      <use xlink:href="#DejaVuSans-61" x="617.095703"/>
      <use xlink:href="#DejaVuSans-74" x="678.375"/>
      <use xlink:href="#DejaVuSans-69" x="717.583984"/>
      <use xlink:href="#DejaVuSans-6f" x="745.367188"/>
      <use xlink:href="#DejaVuSans-6e" x="806.548828"/>
      <use xlink:href="#DejaVuSans-20" x="869.927734"/>
      <use xlink:href="#DejaVuSans-41" x="901.714844"/>
      <use xlink:href="#DejaVuSans-63" x="968.373047"/>
      <use xlink:href="#DejaVuSans-63" x="1023.353516"/>
      <use xlink:href="#DejaVuSans-75" x="1078.333984"/>
      <use xlink:href="#DejaVuSans-72" x="1141.712891"/>
      <use xlink:href="#DejaVuSans-61" x="1182.826172"/>
      <use xlink:href="#DejaVuSans-63" x="1244.105469"/>
      <use xlink:href="#DejaVuSans-79" x="1299.085938"/>
     </g>
    </g>
    <g id="line2d_26">
     <path d="M 216.18875 278.326188 
L 226.18875 278.326188 
L 236.18875 278.326188 
" style="fill: none; stroke: #d62728; stroke-width: 1.5; stroke-linecap: square"/>
    </g>
    <g id="text_24">
     <!-- SWA Validation Accuracy -->
     <g transform="translate(244.18875 281.826188) scale(0.1 -0.1)">
      <defs>
       <path id="DejaVuSans-53" d="M 3425 4513 
L 3425 3897 
Q 3066 4069 2747 4153 
Q 2428 4238 2131 4238 
Q 1616 4238 1336 4038 
Q 1056 3838 1056 3469 
Q 1056 3159 1242 3001 
Q 1428 2844 1947 2747 
L 2328 2669 
Q 3034 2534 3370 2195 
Q 3706 1856 3706 1288 
Q 3706 609 3251 259 
Q 2797 -91 1919 -91 
Q 1588 -91 1214 -16 
Q 841 59 441 206 
L 441 856 
Q 825 641 1194 531 
Q 1563 422 1919 422 
Q 2459 422 2753 634 
Q 3047 847 3047 1241 
Q 3047 1584 2836 1778 
Q 2625 1972 2144 2069 
L 1759 2144 
Q 1053 2284 737 2584 
Q 422 2884 422 3419 
Q 422 4038 858 4394 
Q 1294 4750 2059 4750 
Q 2388 4750 2728 4690 
Q 3069 4631 3425 4513 
z
" transform="scale(0.015625)"/>
       <path id="DejaVuSans-57" d="M 213 4666 
L 850 4666 
L 1831 722 
L 2809 4666 
L 3519 4666 
L 4500 722 
L 5478 4666 
L 6119 4666 
L 4947 0 
L 4153 0 
L 3169 4050 
L 2175 0 
L 1381 0 
L 213 4666 
z
" transform="scale(0.015625)"/>
      </defs>
      <use xlink:href="#DejaVuSans-53"/>
      <use xlink:href="#DejaVuSans-57" x="63.476562"/>
      <use xlink:href="#DejaVuSans-41" x="156.853516"/>
      <use xlink:href="#DejaVuSans-20" x="225.261719"/>
      <use xlink:href="#DejaVuSans-56" x="257.048828"/>
      <use xlink:href="#DejaVuSans-61" x="317.707031"/>
      <use xlink:href="#DejaVuSans-6c" x="378.986328"/>
      <use xlink:href="#DejaVuSans-69" x="406.769531"/>
      <use xlink:href="#DejaVuSans-64" x="434.552734"/>
      <use xlink:href="#DejaVuSans-61" x="498.029297"/>
      <use xlink:href="#DejaVuSans-74" x="559.308594"/>
      <use xlink:href="#DejaVuSans-69" x="598.517578"/>
      <use xlink:href="#DejaVuSans-6f" x="626.300781"/>
      <use xlink:href="#DejaVuSans-6e" x="687.482422"/>
      <use xlink:href="#DejaVuSans-20" x="750.861328"/>
      <use xlink:href="#DejaVuSans-41" x="782.648438"/>
      <use xlink:href="#DejaVuSans-63" x="849.306641"/>
      <use xlink:href="#DejaVuSans-63" x="904.287109"/>
      <use xlink:href="#DejaVuSans-75" x="959.267578"/>
      <use xlink:href="#DejaVuSans-72" x="1022.646484"/>
      <use xlink:href="#DejaVuSans-61" x="1063.759766"/>
      <use xlink:href="#DejaVuSans-63" x="1125.039062"/>
      <use xlink:href="#DejaVuSans-79" x="1180.019531"/>
     </g>
    </g>
    <g id="line2d_27">
     <path d="M 216.18875 293.004312 
L 226.18875 293.004312 
L 236.18875 293.004312 
" style="fill: none; stroke: #9467bd; stroke-width: 1.5; stroke-linecap: square"/>
    </g>
    <g id="text_25">
     <!-- SWA Robust Validation Accuracy -->
     <g transform="translate(244.18875 296.504312) scale(0.1 -0.1)">
      <use xlink:href="#DejaVuSans-53"/>
      <use xlink:href="#DejaVuSans-57" x="63.476562"/>
      <use xlink:href="#DejaVuSans-41" x="156.853516"/>
      <use xlink:href="#DejaVuSans-20" x="225.261719"/>
      <use xlink:href="#DejaVuSans-52" x="257.048828"/>
      <use xlink:href="#DejaVuSans-6f" x="322.03125"/>
      <use xlink:href="#DejaVuSans-62" x="383.212891"/>
      <use xlink:href="#DejaVuSans-75" x="446.689453"/>
      <use xlink:href="#DejaVuSans-73" x="510.068359"/>
      <use xlink:href="#DejaVuSans-74" x="562.167969"/>
      <use xlink:href="#DejaVuSans-20" x="601.376953"/>
      <use xlink:href="#DejaVuSans-56" x="633.164062"/>
      <use xlink:href="#DejaVuSans-61" x="693.822266"/>
      <use xlink:href="#DejaVuSans-6c" x="755.101562"/>
      <use xlink:href="#DejaVuSans-69" x="782.884766"/>
      <use xlink:href="#DejaVuSans-64" x="810.667969"/>
      <use xlink:href="#DejaVuSans-61" x="874.144531"/>
      <use xlink:href="#DejaVuSans-74" x="935.423828"/>
      <use xlink:href="#DejaVuSans-69" x="974.632812"/>
      <use xlink:href="#DejaVuSans-6f" x="1002.416016"/>
      <use xlink:href="#DejaVuSans-6e" x="1063.597656"/>
      <use xlink:href="#DejaVuSans-20" x="1126.976562"/>
      <use xlink:href="#DejaVuSans-41" x="1158.763672"/>
      <use xlink:href="#DejaVuSans-63" x="1225.421875"/>
      <use xlink:href="#DejaVuSans-63" x="1280.402344"/>
      <use xlink:href="#DejaVuSans-75" x="1335.382812"/>
      <use xlink:href="#DejaVuSans-72" x="1398.761719"/>
      <use xlink:href="#DejaVuSans-61" x="1439.875"/>
      <use xlink:href="#DejaVuSans-63" x="1501.154297"/>
      <use xlink:href="#DejaVuSans-79" x="1556.134766"/>
     </g>
    </g>
   </g>
  </g>
 </g>
 <defs>
  <clipPath id="peb6d3adb1f">
   <rect x="57.6" y="41.472" width="357.12" height="266.112"/>
  </clipPath>
 </defs>
</svg>
