<?xml version="1.0" encoding="utf-8" standalone="no"?>
<!DOCTYPE svg PUBLIC "-//W3C//DTD SVG 1.1//EN"
  "http://www.w3.org/Graphics/SVG/1.1/DTD/svg11.dtd">
<svg xmlns:xlink="http://www.w3.org/1999/xlink" width="460.8pt" height="345.6pt" viewBox="0 0 460.8 345.6" xmlns="http://www.w3.org/2000/svg" version="1.1">
 <metadata>
  <rdf:RDF xmlns:dc="http://purl.org/dc/elements/1.1/" xmlns:cc="http://creativecommons.org/ns#" xmlns:rdf="http://www.w3.org/1999/02/22-rdf-syntax-ns#">
   <cc:Work>
    <dc:type rdf:resource="http://purl.org/dc/dcmitype/StillImage"/>
    <dc:date>2025-07-06T04:50:13.220618</dc:date>
    <dc:format>image/svg+xml</dc:format>
    <dc:creator>
     <cc:Agent>
      <dc:title>Matplotlib v3.9.1, https://matplotlib.org/</dc:title>
     </cc:Agent>
    </dc:creator>
   </cc:Work>
  </rdf:RDF>
 </metadata>
 <defs>
  <style type="text/css">*{stroke-linejoin: round; stroke-linecap: butt}</style>
 </defs>
 <g id="figure_1">
  <g id="patch_1">
   <path d="M 0 345.6 
L 460.8 345.6 
L 460.8 0 
L 0 0 
z
" style="fill: #ffffff"/>
  </g>
  <g id="axes_1">
   <g id="patch_2">
    <path d="M 57.6 307.584 
L 414.72 307.584 
L 414.72 41.472 
L 57.6 41.472 
z
" style="fill: #ffffff"/>
   </g>
   <g id="matplotlib.axis_1">
    <g id="xtick_1">
     <g id="line2d_1">
      <defs>
       <path id="m653fa98cbb" d="M 0 0 
L 0 3.5 
" style="stroke: #000000; stroke-width: 0.8"/>
      </defs>
      <g>
       <use xlink:href="#m653fa98cbb" x="73.832727" y="307.584" style="stroke: #000000; stroke-width: 0.8"/>
      </g>
     </g>
     <g id="text_1">
      <!-- 1 -->
      <g transform="translate(70.651477 322.182437) scale(0.1 -0.1)">
       <defs>
        <path id="DejaVuSans-31" d="M 794 531 
L 1825 531 
L 1825 4091 
L 703 3866 
L 703 4441 
L 1819 4666 
L 2450 4666 
L 2450 531 
L 3481 531 
L 3481 0 
L 794 0 
L 794 531 
z
" transform="scale(0.015625)"/>
       </defs>
       <use xlink:href="#DejaVuSans-31"/>
      </g>
     </g>
    </g>
    <g id="xtick_2">
     <g id="line2d_2">
      <g>
       <use xlink:href="#m653fa98cbb" x="109.664165" y="307.584" style="stroke: #000000; stroke-width: 0.8"/>
      </g>
     </g>
     <g id="text_2">
      <!-- 34 -->
      <g transform="translate(103.301665 322.182437) scale(0.1 -0.1)">
       <defs>
        <path id="DejaVuSans-33" d="M 2597 2516 
Q 3050 2419 3304 2112 
Q 3559 1806 3559 1356 
Q 3559 666 3084 287 
Q 2609 -91 1734 -91 
Q 1441 -91 1130 -33 
Q 819 25 488 141 
L 488 750 
Q 750 597 1062 519 
Q 1375 441 1716 441 
Q 2309 441 2620 675 
Q 2931 909 2931 1356 
Q 2931 1769 2642 2001 
Q 2353 2234 1838 2234 
L 1294 2234 
L 1294 2753 
L 1863 2753 
Q 2328 2753 2575 2939 
Q 2822 3125 2822 3475 
Q 2822 3834 2567 4026 
Q 2313 4219 1838 4219 
Q 1578 4219 1281 4162 
Q 984 4106 628 3988 
L 628 4550 
Q 988 4650 1302 4700 
Q 1616 4750 1894 4750 
Q 2613 4750 3031 4423 
Q 3450 4097 3450 3541 
Q 3450 3153 3228 2886 
Q 3006 2619 2597 2516 
z
" transform="scale(0.015625)"/>
        <path id="DejaVuSans-34" d="M 2419 4116 
L 825 1625 
L 2419 1625 
L 2419 4116 
z
M 2253 4666 
L 3047 4666 
L 3047 1625 
L 3713 1625 
L 3713 1100 
L 3047 1100 
L 3047 0 
L 2419 0 
L 2419 1100 
L 313 1100 
L 313 1709 
L 2253 4666 
z
" transform="scale(0.015625)"/>
       </defs>
       <use xlink:href="#DejaVuSans-33"/>
       <use xlink:href="#DejaVuSans-34" x="63.623047"/>
      </g>
     </g>
    </g>
    <g id="xtick_3">
     <g id="line2d_3">
      <g>
       <use xlink:href="#m653fa98cbb" x="145.495604" y="307.584" style="stroke: #000000; stroke-width: 0.8"/>
      </g>
     </g>
     <g id="text_3">
      <!-- 67 -->
      <g transform="translate(139.133104 322.182437) scale(0.1 -0.1)">
       <defs>
        <path id="DejaVuSans-36" d="M 2113 2584 
Q 1688 2584 1439 2293 
Q 1191 2003 1191 1497 
Q 1191 994 1439 701 
Q 1688 409 2113 409 
Q 2538 409 2786 701 
Q 3034 994 3034 1497 
Q 3034 2003 2786 2293 
Q 2538 2584 2113 2584 
z
M 3366 4563 
L 3366 3988 
Q 3128 4100 2886 4159 
Q 2644 4219 2406 4219 
Q 1781 4219 1451 3797 
Q 1122 3375 1075 2522 
Q 1259 2794 1537 2939 
Q 1816 3084 2150 3084 
Q 2853 3084 3261 2657 
Q 3669 2231 3669 1497 
Q 3669 778 3244 343 
Q 2819 -91 2113 -91 
Q 1303 -91 875 529 
Q 447 1150 447 2328 
Q 447 3434 972 4092 
Q 1497 4750 2381 4750 
Q 2619 4750 2861 4703 
Q 3103 4656 3366 4563 
z
" transform="scale(0.015625)"/>
        <path id="DejaVuSans-37" d="M 525 4666 
L 3525 4666 
L 3525 4397 
L 1831 0 
L 1172 0 
L 2766 4134 
L 525 4134 
L 525 4666 
z
" transform="scale(0.015625)"/>
       </defs>
       <use xlink:href="#DejaVuSans-36"/>
       <use xlink:href="#DejaVuSans-37" x="63.623047"/>
      </g>
     </g>
    </g>
    <g id="xtick_4">
     <g id="line2d_4">
      <g>
       <use xlink:href="#m653fa98cbb" x="181.327042" y="307.584" style="stroke: #000000; stroke-width: 0.8"/>
      </g>
     </g>
     <g id="text_4">
      <!-- 100 -->
      <g transform="translate(171.783292 322.182437) scale(0.1 -0.1)">
       <defs>
        <path id="DejaVuSans-30" d="M 2034 4250 
Q 1547 4250 1301 3770 
Q 1056 3291 1056 2328 
Q 1056 1369 1301 889 
Q 1547 409 2034 409 
Q 2525 409 2770 889 
Q 3016 1369 3016 2328 
Q 3016 3291 2770 3770 
Q 2525 4250 2034 4250 
z
M 2034 4750 
Q 2819 4750 3233 4129 
Q 3647 3509 3647 2328 
Q 3647 1150 3233 529 
Q 2819 -91 2034 -91 
Q 1250 -91 836 529 
Q 422 1150 422 2328 
Q 422 3509 836 4129 
Q 1250 4750 2034 4750 
z
" transform="scale(0.015625)"/>
       </defs>
       <use xlink:href="#DejaVuSans-31"/>
       <use xlink:href="#DejaVuSans-30" x="63.623047"/>
       <use xlink:href="#DejaVuSans-30" x="127.246094"/>
      </g>
     </g>
    </g>
    <g id="xtick_5">
     <g id="line2d_5">
      <g>
       <use xlink:href="#m653fa98cbb" x="217.15848" y="307.584" style="stroke: #000000; stroke-width: 0.8"/>
      </g>
     </g>
     <g id="text_5">
      <!-- 133 -->
      <g transform="translate(207.61473 322.182437) scale(0.1 -0.1)">
       <use xlink:href="#DejaVuSans-31"/>
       <use xlink:href="#DejaVuSans-33" x="63.623047"/>
       <use xlink:href="#DejaVuSans-33" x="127.246094"/>
      </g>
     </g>
    </g>
    <g id="xtick_6">
     <g id="line2d_6">
      <g>
       <use xlink:href="#m653fa98cbb" x="254.075719" y="307.584" style="stroke: #000000; stroke-width: 0.8"/>
      </g>
     </g>
     <g id="text_6">
      <!-- 167 -->
      <g transform="translate(244.531969 322.182437) scale(0.1 -0.1)">
       <use xlink:href="#DejaVuSans-31"/>
       <use xlink:href="#DejaVuSans-36" x="63.623047"/>
       <use xlink:href="#DejaVuSans-37" x="127.246094"/>
      </g>
     </g>
    </g>
    <g id="xtick_7">
     <g id="line2d_7">
      <g>
       <use xlink:href="#m653fa98cbb" x="289.907157" y="307.584" style="stroke: #000000; stroke-width: 0.8"/>
      </g>
     </g>
     <g id="text_7">
      <!-- 200 -->
      <g transform="translate(280.363407 322.182437) scale(0.1 -0.1)">
       <defs>
        <path id="DejaVuSans-32" d="M 1228 531 
L 3431 531 
L 3431 0 
L 469 0 
L 469 531 
Q 828 903 1448 1529 
Q 2069 2156 2228 2338 
Q 2531 2678 2651 2914 
Q 2772 3150 2772 3378 
Q 2772 3750 2511 3984 
Q 2250 4219 1831 4219 
Q 1534 4219 1204 4116 
Q 875 4013 500 3803 
L 500 4441 
Q 881 4594 1212 4672 
Q 1544 4750 1819 4750 
Q 2544 4750 2975 4387 
Q 3406 4025 3406 3419 
Q 3406 3131 3298 2873 
Q 3191 2616 2906 2266 
Q 2828 2175 2409 1742 
Q 1991 1309 1228 531 
z
" transform="scale(0.015625)"/>
       </defs>
       <use xlink:href="#DejaVuSans-32"/>
       <use xlink:href="#DejaVuSans-30" x="63.623047"/>
       <use xlink:href="#DejaVuSans-30" x="127.246094"/>
      </g>
     </g>
    </g>
    <g id="xtick_8">
     <g id="line2d_8">
      <g>
       <use xlink:href="#m653fa98cbb" x="325.738595" y="307.584" style="stroke: #000000; stroke-width: 0.8"/>
      </g>
     </g>
     <g id="text_8">
      <!-- 233 -->
      <g transform="translate(316.194845 322.182437) scale(0.1 -0.1)">
       <use xlink:href="#DejaVuSans-32"/>
       <use xlink:href="#DejaVuSans-33" x="63.623047"/>
       <use xlink:href="#DejaVuSans-33" x="127.246094"/>
      </g>
     </g>
    </g>
    <g id="xtick_9">
     <g id="line2d_9">
      <g>
       <use xlink:href="#m653fa98cbb" x="361.570033" y="307.584" style="stroke: #000000; stroke-width: 0.8"/>
      </g>
     </g>
     <g id="text_9">
      <!-- 266 -->
      <g transform="translate(352.026283 322.182437) scale(0.1 -0.1)">
       <use xlink:href="#DejaVuSans-32"/>
       <use xlink:href="#DejaVuSans-36" x="63.623047"/>
       <use xlink:href="#DejaVuSans-36" x="127.246094"/>
      </g>
     </g>
    </g>
    <g id="xtick_10">
     <g id="line2d_10">
      <g>
       <use xlink:href="#m653fa98cbb" x="398.487273" y="307.584" style="stroke: #000000; stroke-width: 0.8"/>
      </g>
     </g>
     <g id="text_10">
      <!-- 300 -->
      <g transform="translate(388.943523 322.182437) scale(0.1 -0.1)">
       <use xlink:href="#DejaVuSans-33"/>
       <use xlink:href="#DejaVuSans-30" x="63.623047"/>
       <use xlink:href="#DejaVuSans-30" x="127.246094"/>
      </g>
     </g>
    </g>
    <g id="text_11">
     <!-- Epochs -->
     <g transform="translate(218.244375 335.860562) scale(0.1 -0.1)">
      <defs>
       <path id="DejaVuSans-45" d="M 628 4666 
L 3578 4666 
L 3578 4134 
L 1259 4134 
L 1259 2753 
L 3481 2753 
L 3481 2222 
L 1259 2222 
L 1259 531 
L 3634 531 
L 3634 0 
L 628 0 
L 628 4666 
z
" transform="scale(0.015625)"/>
       <path id="DejaVuSans-70" d="M 1159 525 
L 1159 -1331 
L 581 -1331 
L 581 3500 
L 1159 3500 
L 1159 2969 
Q 1341 3281 1617 3432 
Q 1894 3584 2278 3584 
Q 2916 3584 3314 3078 
Q 3713 2572 3713 1747 
Q 3713 922 3314 415 
Q 2916 -91 2278 -91 
Q 1894 -91 1617 61 
Q 1341 213 1159 525 
z
M 3116 1747 
Q 3116 2381 2855 2742 
Q 2594 3103 2138 3103 
Q 1681 3103 1420 2742 
Q 1159 2381 1159 1747 
Q 1159 1113 1420 752 
Q 1681 391 2138 391 
Q 2594 391 2855 752 
Q 3116 1113 3116 1747 
z
" transform="scale(0.015625)"/>
       <path id="DejaVuSans-6f" d="M 1959 3097 
Q 1497 3097 1228 2736 
Q 959 2375 959 1747 
Q 959 1119 1226 758 
Q 1494 397 1959 397 
Q 2419 397 2687 759 
Q 2956 1122 2956 1747 
Q 2956 2369 2687 2733 
Q 2419 3097 1959 3097 
z
M 1959 3584 
Q 2709 3584 3137 3096 
Q 3566 2609 3566 1747 
Q 3566 888 3137 398 
Q 2709 -91 1959 -91 
Q 1206 -91 779 398 
Q 353 888 353 1747 
Q 353 2609 779 3096 
Q 1206 3584 1959 3584 
z
" transform="scale(0.015625)"/>
       <path id="DejaVuSans-63" d="M 3122 3366 
L 3122 2828 
Q 2878 2963 2633 3030 
Q 2388 3097 2138 3097 
Q 1578 3097 1268 2742 
Q 959 2388 959 1747 
Q 959 1106 1268 751 
Q 1578 397 2138 397 
Q 2388 397 2633 464 
Q 2878 531 3122 666 
L 3122 134 
Q 2881 22 2623 -34 
Q 2366 -91 2075 -91 
Q 1284 -91 818 406 
Q 353 903 353 1747 
Q 353 2603 823 3093 
Q 1294 3584 2113 3584 
Q 2378 3584 2631 3529 
Q 2884 3475 3122 3366 
z
" transform="scale(0.015625)"/>
       <path id="DejaVuSans-68" d="M 3513 2113 
L 3513 0 
L 2938 0 
L 2938 2094 
Q 2938 2591 2744 2837 
Q 2550 3084 2163 3084 
Q 1697 3084 1428 2787 
Q 1159 2491 1159 1978 
L 1159 0 
L 581 0 
L 581 4863 
L 1159 4863 
L 1159 2956 
Q 1366 3272 1645 3428 
Q 1925 3584 2291 3584 
Q 2894 3584 3203 3211 
Q 3513 2838 3513 2113 
z
" transform="scale(0.015625)"/>
       <path id="DejaVuSans-73" d="M 2834 3397 
L 2834 2853 
Q 2591 2978 2328 3040 
Q 2066 3103 1784 3103 
Q 1356 3103 1142 2972 
Q 928 2841 928 2578 
Q 928 2378 1081 2264 
Q 1234 2150 1697 2047 
L 1894 2003 
Q 2506 1872 2764 1633 
Q 3022 1394 3022 966 
Q 3022 478 2636 193 
Q 2250 -91 1575 -91 
Q 1294 -91 989 -36 
Q 684 19 347 128 
L 347 722 
Q 666 556 975 473 
Q 1284 391 1588 391 
Q 1994 391 2212 530 
Q 2431 669 2431 922 
Q 2431 1156 2273 1281 
Q 2116 1406 1581 1522 
L 1381 1569 
Q 847 1681 609 1914 
Q 372 2147 372 2553 
Q 372 3047 722 3315 
Q 1072 3584 1716 3584 
Q 2034 3584 2315 3537 
Q 2597 3491 2834 3397 
z
" transform="scale(0.015625)"/>
      </defs>
      <use xlink:href="#DejaVuSans-45"/>
      <use xlink:href="#DejaVuSans-70" x="63.183594"/>
      <use xlink:href="#DejaVuSans-6f" x="126.660156"/>
      <use xlink:href="#DejaVuSans-63" x="187.841797"/>
      <use xlink:href="#DejaVuSans-68" x="242.822266"/>
      <use xlink:href="#DejaVuSans-73" x="306.201172"/>
     </g>
    </g>
   </g>
   <g id="matplotlib.axis_2">
    <g id="ytick_1">
     <g id="line2d_11">
      <defs>
       <path id="mca92b5a2e5" d="M 0 0 
L -3.5 0 
" style="stroke: #000000; stroke-width: 0.8"/>
      </defs>
      <g>
       <use xlink:href="#mca92b5a2e5" x="57.6" y="306.081923" style="stroke: #000000; stroke-width: 0.8"/>
      </g>
     </g>
     <g id="text_12">
      <!-- 0 -->
      <g transform="translate(44.2375 309.881142) scale(0.1 -0.1)">
       <use xlink:href="#DejaVuSans-30"/>
      </g>
     </g>
    </g>
    <g id="ytick_2">
     <g id="line2d_12">
      <g>
       <use xlink:href="#mca92b5a2e5" x="57.6" y="270.200726" style="stroke: #000000; stroke-width: 0.8"/>
      </g>
     </g>
     <g id="text_13">
      <!-- 10 -->
      <g transform="translate(37.875 273.999945) scale(0.1 -0.1)">
       <use xlink:href="#DejaVuSans-31"/>
       <use xlink:href="#DejaVuSans-30" x="63.623047"/>
      </g>
     </g>
    </g>
    <g id="ytick_3">
     <g id="line2d_13">
      <g>
       <use xlink:href="#mca92b5a2e5" x="57.6" y="234.31953" style="stroke: #000000; stroke-width: 0.8"/>
      </g>
     </g>
     <g id="text_14">
      <!-- 20 -->
      <g transform="translate(37.875 238.118748) scale(0.1 -0.1)">
       <use xlink:href="#DejaVuSans-32"/>
       <use xlink:href="#DejaVuSans-30" x="63.623047"/>
      </g>
     </g>
    </g>
    <g id="ytick_4">
     <g id="line2d_14">
      <g>
       <use xlink:href="#mca92b5a2e5" x="57.6" y="198.438333" style="stroke: #000000; stroke-width: 0.8"/>
      </g>
     </g>
     <g id="text_15">
      <!-- 30 -->
      <g transform="translate(37.875 202.237551) scale(0.1 -0.1)">
       <use xlink:href="#DejaVuSans-33"/>
       <use xlink:href="#DejaVuSans-30" x="63.623047"/>
      </g>
     </g>
    </g>
    <g id="ytick_5">
     <g id="line2d_15">
      <g>
       <use xlink:href="#mca92b5a2e5" x="57.6" y="162.557136" style="stroke: #000000; stroke-width: 0.8"/>
      </g>
     </g>
     <g id="text_16">
      <!-- 40 -->
      <g transform="translate(37.875 166.356354) scale(0.1 -0.1)">
       <use xlink:href="#DejaVuSans-34"/>
       <use xlink:href="#DejaVuSans-30" x="63.623047"/>
      </g>
     </g>
    </g>
    <g id="ytick_6">
     <g id="line2d_16">
      <g>
       <use xlink:href="#mca92b5a2e5" x="57.6" y="126.675939" style="stroke: #000000; stroke-width: 0.8"/>
      </g>
     </g>
     <g id="text_17">
      <!-- 50 -->
      <g transform="translate(37.875 130.475157) scale(0.1 -0.1)">
       <defs>
        <path id="DejaVuSans-35" d="M 691 4666 
L 3169 4666 
L 3169 4134 
L 1269 4134 
L 1269 2991 
Q 1406 3038 1543 3061 
Q 1681 3084 1819 3084 
Q 2600 3084 3056 2656 
Q 3513 2228 3513 1497 
Q 3513 744 3044 326 
Q 2575 -91 1722 -91 
Q 1428 -91 1123 -41 
Q 819 9 494 109 
L 494 744 
Q 775 591 1075 516 
Q 1375 441 1709 441 
Q 2250 441 2565 725 
Q 2881 1009 2881 1497 
Q 2881 1984 2565 2268 
Q 2250 2553 1709 2553 
Q 1456 2553 1204 2497 
Q 953 2441 691 2322 
L 691 4666 
z
" transform="scale(0.015625)"/>
       </defs>
       <use xlink:href="#DejaVuSans-35"/>
       <use xlink:href="#DejaVuSans-30" x="63.623047"/>
      </g>
     </g>
    </g>
    <g id="ytick_7">
     <g id="line2d_17">
      <g>
       <use xlink:href="#mca92b5a2e5" x="57.6" y="90.794742" style="stroke: #000000; stroke-width: 0.8"/>
      </g>
     </g>
     <g id="text_18">
      <!-- 60 -->
      <g transform="translate(37.875 94.593961) scale(0.1 -0.1)">
       <use xlink:href="#DejaVuSans-36"/>
       <use xlink:href="#DejaVuSans-30" x="63.623047"/>
      </g>
     </g>
    </g>
    <g id="ytick_8">
     <g id="line2d_18">
      <g>
       <use xlink:href="#mca92b5a2e5" x="57.6" y="54.913545" style="stroke: #000000; stroke-width: 0.8"/>
      </g>
     </g>
     <g id="text_19">
      <!-- 70 -->
      <g transform="translate(37.875 58.712764) scale(0.1 -0.1)">
       <use xlink:href="#DejaVuSans-37"/>
       <use xlink:href="#DejaVuSans-30" x="63.623047"/>
      </g>
     </g>
    </g>
    <g id="text_20">
     <!-- Accuracy -->
     <g transform="translate(31.795312 197.356125) rotate(-90) scale(0.1 -0.1)">
      <defs>
       <path id="DejaVuSans-41" d="M 2188 4044 
L 1331 1722 
L 3047 1722 
L 2188 4044 
z
M 1831 4666 
L 2547 4666 
L 4325 0 
L 3669 0 
L 3244 1197 
L 1141 1197 
L 716 0 
L 50 0 
L 1831 4666 
z
" transform="scale(0.015625)"/>
       <path id="DejaVuSans-75" d="M 544 1381 
L 544 3500 
L 1119 3500 
L 1119 1403 
Q 1119 906 1312 657 
Q 1506 409 1894 409 
Q 2359 409 2629 706 
Q 2900 1003 2900 1516 
L 2900 3500 
L 3475 3500 
L 3475 0 
L 2900 0 
L 2900 538 
Q 2691 219 2414 64 
Q 2138 -91 1772 -91 
Q 1169 -91 856 284 
Q 544 659 544 1381 
z
M 1991 3584 
L 1991 3584 
z
" transform="scale(0.015625)"/>
       <path id="DejaVuSans-72" d="M 2631 2963 
Q 2534 3019 2420 3045 
Q 2306 3072 2169 3072 
Q 1681 3072 1420 2755 
Q 1159 2438 1159 1844 
L 1159 0 
L 581 0 
L 581 3500 
L 1159 3500 
L 1159 2956 
Q 1341 3275 1631 3429 
Q 1922 3584 2338 3584 
Q 2397 3584 2469 3576 
Q 2541 3569 2628 3553 
L 2631 2963 
z
" transform="scale(0.015625)"/>
       <path id="DejaVuSans-61" d="M 2194 1759 
Q 1497 1759 1228 1600 
Q 959 1441 959 1056 
Q 959 750 1161 570 
Q 1363 391 1709 391 
Q 2188 391 2477 730 
Q 2766 1069 2766 1631 
L 2766 1759 
L 2194 1759 
z
M 3341 1997 
L 3341 0 
L 2766 0 
L 2766 531 
Q 2569 213 2275 61 
Q 1981 -91 1556 -91 
Q 1019 -91 701 211 
Q 384 513 384 1019 
Q 384 1609 779 1909 
Q 1175 2209 1959 2209 
L 2766 2209 
L 2766 2266 
Q 2766 2663 2505 2880 
Q 2244 3097 1772 3097 
Q 1472 3097 1187 3025 
Q 903 2953 641 2809 
L 641 3341 
Q 956 3463 1253 3523 
Q 1550 3584 1831 3584 
Q 2591 3584 2966 3190 
Q 3341 2797 3341 1997 
z
" transform="scale(0.015625)"/>
       <path id="DejaVuSans-79" d="M 2059 -325 
Q 1816 -950 1584 -1140 
Q 1353 -1331 966 -1331 
L 506 -1331 
L 506 -850 
L 844 -850 
Q 1081 -850 1212 -737 
Q 1344 -625 1503 -206 
L 1606 56 
L 191 3500 
L 800 3500 
L 1894 763 
L 2988 3500 
L 3597 3500 
L 2059 -325 
z
" transform="scale(0.015625)"/>
      </defs>
      <use xlink:href="#DejaVuSans-41"/>
      <use xlink:href="#DejaVuSans-63" x="66.658203"/>
      <use xlink:href="#DejaVuSans-63" x="121.638672"/>
      <use xlink:href="#DejaVuSans-75" x="176.619141"/>
      <use xlink:href="#DejaVuSans-72" x="239.998047"/>
      <use xlink:href="#DejaVuSans-61" x="281.111328"/>
      <use xlink:href="#DejaVuSans-63" x="342.390625"/>
      <use xlink:href="#DejaVuSans-79" x="397.371094"/>
     </g>
    </g>
   </g>
   <g id="line2d_19">
    <path d="M 73.832727 295.488 
L 76.00433 268.231746 
L 77.090131 255.789941 
L 79.261733 235.691985 
L 80.347534 227.703934 
L 81.433335 218.675328 
L 82.519137 214.508624 
L 83.604938 208.897702 
L 84.690739 202.40769 
L 86.862341 191.724064 
L 87.948142 188.799746 
L 89.033943 183.709101 
L 90.119745 181.964378 
L 92.291347 175.312901 
L 93.377148 174.263376 
L 94.462949 173.689277 
L 95.54875 201.627274 
L 96.634552 199.739026 
L 97.720353 197.31256 
L 98.806154 192.029054 
L 99.891955 189.297598 
L 100.977756 187.247884 
L 102.063557 184.341507 
L 103.149358 181.762546 
L 104.23516 177.456803 
L 105.320961 176.411763 
L 107.492563 171.164138 
L 108.578364 168.020048 
L 109.664165 166.862879 
L 110.749967 165.266166 
L 111.835768 161.974066 
L 114.00737 158.058531 
L 115.093171 156.564976 
L 117.264773 151.442935 
L 118.350575 150.124301 
L 120.522177 143.975161 
L 122.693779 141.387229 
L 123.77958 139.673902 
L 124.865382 137.597278 
L 125.951183 134.466644 
L 127.036984 133.784901 
L 128.122785 132.874416 
L 129.208586 129.555405 
L 130.294387 129.71687 
L 131.380189 126.801523 
L 132.46599 126.590721 
L 134.637592 125.751998 
L 135.723393 124.845998 
L 136.809194 124.989522 
L 137.894995 124.872909 
L 138.980797 159.134967 
L 140.066598 160.489482 
L 141.152399 162.135532 
L 142.2382 161.417908 
L 143.324001 159.152907 
L 144.409802 158.726818 
L 145.495604 159.211214 
L 146.581405 155.466114 
L 147.667206 154.403134 
L 148.753007 155.336045 
L 149.838808 153.752787 
L 150.924609 151.259044 
L 152.01041 151.016846 
L 153.096212 149.393222 
L 154.182013 150.536935 
L 155.267814 148.262964 
L 156.353615 146.836686 
L 157.439416 146.670736 
L 158.525217 144.881161 
L 159.611019 144.387795 
L 160.69682 143.244081 
L 161.782621 143.037765 
L 163.954223 140.005803 
L 165.040024 139.171566 
L 166.125825 139.301635 
L 167.211627 137.103912 
L 168.297428 135.610357 
L 169.383229 135.175297 
L 170.46903 134.870307 
L 171.554831 133.726594 
L 172.640632 131.403286 
L 173.726434 132.147821 
L 174.812235 130.268544 
L 175.898036 129.636137 
L 176.983837 129.295266 
L 178.069638 127.761345 
L 179.155439 125.994196 
L 180.24124 125.137532 
L 181.327042 125.016433 
L 182.412843 123.939997 
L 183.498644 124.01176 
L 184.584445 121.45971 
L 185.670246 122.096601 
L 186.756047 120.033432 
L 187.841849 118.840382 
L 188.92765 117.171907 
L 190.013451 116.53053 
L 191.099252 116.880372 
L 192.185053 114.696104 
L 193.270854 114.314866 
L 194.356656 113.328133 
L 195.442457 111.076588 
L 196.528258 109.847657 
L 197.614059 110.569766 
L 198.69986 109.094152 
L 199.785661 106.882973 
L 200.871462 107.053409 
L 201.957264 106.542102 
L 203.043065 104.707676 
L 204.128866 103.339705 
L 205.214667 103.124418 
L 206.300468 101.675715 
L 207.386269 101.581527 
L 209.557872 98.796249 
L 210.643673 99.343437 
L 211.729474 98.047229 
L 212.815275 98.37016 
L 213.901076 96.064793 
L 214.986877 96.777931 
L 216.072679 96.046852 
L 217.15848 94.992842 
L 218.244281 95.015268 
L 219.330082 95.544515 
L 220.415883 94.414258 
L 221.501684 95.427901 
L 222.587486 94.965931 
L 223.673287 94.091327 
L 224.759088 94.32904 
L 225.844889 138.081674 
L 226.93069 142.315655 
L 228.016491 142.225952 
L 229.102292 141.808834 
L 230.188094 142.29323 
L 231.273895 140.96114 
L 232.359696 140.947685 
L 233.445497 140.750338 
L 234.531298 139.786031 
L 235.617099 139.359942 
L 236.702901 139.969922 
L 237.788702 138.099615 
L 238.874503 137.902268 
L 239.960304 135.852555 
L 241.046105 137.126337 
L 242.131906 136.969357 
L 244.303509 134.861337 
L 245.38931 135.664179 
L 246.475111 135.439921 
L 247.560912 134.50701 
L 248.646713 134.493555 
L 249.732514 133.775931 
L 250.818316 133.60998 
L 251.904117 132.434871 
L 252.989918 132.008782 
L 254.075719 132.390019 
L 255.16152 131.129692 
L 256.247321 131.80695 
L 257.333123 130.371702 
L 258.418924 130.138474 
L 259.504725 130.60493 
L 261.676327 128.788444 
L 262.762128 128.577642 
L 263.847929 128.487939 
L 264.933731 127.761345 
L 266.019532 127.276949 
L 267.105333 128.922999 
L 268.191134 127.124454 
L 269.276935 126.518959 
L 270.362736 126.743216 
L 271.448538 125.778909 
L 272.534339 126.56381 
L 273.62014 125.590533 
L 274.705941 124.437849 
L 275.791742 124.294324 
L 276.877543 125.411127 
L 277.963344 123.433176 
L 279.049146 122.737977 
L 280.134947 123.603611 
L 281.220748 122.80974 
L 282.306549 122.163878 
L 283.39235 120.791422 
L 284.478151 122.859076 
L 285.563953 120.477462 
L 286.649754 121.32964 
L 287.735555 119.894393 
L 288.821356 119.701531 
L 289.907157 118.808986 
L 290.992958 119.764323 
L 292.07876 116.781699 
L 293.164561 118.678917 
L 294.250362 116.929709 
L 295.336163 117.064263 
L 296.421964 115.368877 
L 297.507765 115.62453 
L 298.593566 115.503431 
L 299.679368 114.85757 
L 300.765169 115.629015 
L 301.85097 114.575005 
L 302.936771 113.68246 
L 304.022572 112.951381 
L 305.108373 114.216193 
L 306.194175 113.449233 
L 307.279976 111.682084 
L 308.365777 111.758331 
L 309.451578 111.28739 
L 310.537379 111.404004 
L 311.62318 110.856816 
L 312.708981 109.731043 
L 313.794783 109.071727 
L 314.880584 109.470905 
L 315.966385 108.493142 
L 317.052186 108.511083 
L 318.137987 106.972676 
L 319.223788 107.017528 
L 320.30959 105.335597 
L 321.395391 104.111151 
L 322.481192 104.936419 
L 323.566993 104.909508 
L 324.652794 103.389042 
L 325.738595 103.738884 
L 326.824396 103.048171 
L 327.910198 101.935853 
L 328.995999 101.917913 
L 330.0818 101.612923 
L 332.253402 99.661883 
L 333.339203 100.648616 
L 334.425005 99.2941 
L 335.510806 99.338952 
L 336.596607 97.773635 
L 339.85401 96.481912 
L 340.939811 96.903516 
L 342.025613 95.149822 
L 343.111414 93.723545 
L 344.197215 93.27503 
L 345.283016 93.521713 
L 346.368817 92.633653 
L 348.54042 91.386782 
L 349.626221 91.413692 
L 350.712022 89.655514 
L 351.797823 90.121969 
L 352.883624 89.25185 
L 353.969425 89.624118 
L 355.055227 89.005167 
L 356.141028 88.915464 
L 357.226829 86.645978 
L 358.31263 87.305295 
L 359.398431 84.555899 
L 360.484232 86.811929 
L 361.570033 84.031136 
L 362.655835 85.143453 
L 363.741636 84.165691 
L 364.827437 84.183631 
L 365.913238 83.39873 
L 366.999039 82.263987 
L 368.08484 83.017492 
L 369.170642 85.556087 
L 370.256443 86.260256 
L 371.342244 87.960127 
L 372.428045 88.942375 
L 373.513846 90.13094 
L 374.599647 89.987415 
L 375.685448 91.404722 
L 376.77125 90.696069 
L 377.857051 91.548247 
L 378.942852 90.521148 
L 380.028653 91.225316 
L 381.114454 90.862019 
L 382.200255 91.525821 
L 383.286057 91.593098 
L 384.371858 90.781286 
L 385.457659 90.875475 
L 386.54346 91.691772 
L 387.629261 91.48994 
L 388.715062 90.817168 
L 389.800863 90.633276 
L 390.886665 91.655891 
L 391.972466 91.597584 
L 393.058267 91.880148 
L 394.144068 91.516851 
L 395.229869 91.875663 
L 396.31567 91.588613 
L 397.401472 90.409019 
L 398.487273 91.328475 
L 398.487273 91.328475 
" clip-path="url(#p59d553126f)" style="fill: none; stroke: #1f77b4; stroke-width: 1.5; stroke-linecap: square"/>
   </g>
   <g id="line2d_20">
    <path d="M 73.832727 284.427621 
L 74.918528 260.225754 
L 76.00433 244.778898 
L 77.090131 224.290735 
L 78.175932 217.365664 
L 79.261733 211.983484 
L 80.347534 200.250333 
L 81.433335 185.754329 
L 82.519137 177.501654 
L 83.604938 175.079673 
L 84.690739 166.755236 
L 85.77654 161.355116 
L 86.862341 156.97761 
L 87.948142 155.309134 
L 89.033943 152.026004 
L 90.119745 144.885646 
L 91.205546 145.58533 
L 92.291347 142.768656 
L 93.377148 140.292853 
L 94.462949 139.826397 
L 95.54875 177.66312 
L 96.634552 170.827752 
L 97.720353 167.096107 
L 98.806154 159.022838 
L 99.891955 155.255312 
L 100.977756 153.622718 
L 102.063557 147.146162 
L 103.149358 149.568142 
L 104.23516 141.889566 
L 105.320961 137.673526 
L 106.406762 137.027664 
L 107.492563 137.565882 
L 108.578364 131.340494 
L 109.664165 130.766395 
L 110.749967 128.918514 
L 111.835768 122.53166 
L 112.921569 122.334314 
L 114.00737 119.463818 
L 115.093171 115.498946 
L 116.178972 115.893639 
L 117.264773 111.946707 
L 118.350575 110.51146 
L 119.436376 110.601163 
L 120.522177 105.811023 
L 121.607978 105.398389 
L 122.693779 102.43819 
L 123.77958 103.353161 
L 124.865382 99.388288 
L 125.951183 99.388288 
L 127.036984 96.661318 
L 128.122785 97.450704 
L 129.208586 94.795495 
L 130.294387 93.109079 
L 131.380189 90.902385 
L 132.46599 91.440603 
L 133.551791 90.525633 
L 134.637592 89.951534 
L 135.723393 89.610662 
L 136.809194 90.202702 
L 137.894995 89.772128 
L 138.980797 134.19305 
L 140.066598 124.935701 
L 141.152399 125.348334 
L 142.2382 128.739108 
L 143.324001 128.039424 
L 144.409802 118.9256 
L 145.495604 124.397483 
L 146.581405 123.643978 
L 147.667206 121.473165 
L 148.753007 122.190789 
L 149.838808 115.534827 
L 150.924609 110.260291 
L 153.096212 112.789916 
L 154.182013 110.475578 
L 155.267814 113.884292 
L 157.439416 107.874192 
L 158.525217 109.578548 
L 159.611019 106.169835 
L 160.69682 103.873438 
L 161.782621 103.532567 
L 162.868422 106.367181 
L 163.954223 105.272805 
L 165.040024 100.357081 
L 166.125825 101.020883 
L 167.211627 100.590309 
L 168.297428 99.280645 
L 169.383229 97.64805 
L 170.46903 96.284565 
L 171.554831 94.472564 
L 172.640632 96.553674 
L 173.726434 99.13712 
L 174.812235 91.745594 
L 175.898036 93.216723 
L 176.983837 92.283811 
L 178.069638 90.364167 
L 179.155439 93.306426 
L 180.24124 88.821276 
L 181.327042 93.665238 
L 182.412843 85.107572 
L 183.498644 85.233156 
L 184.584445 87.74484 
L 185.670246 84.981988 
L 186.756047 85.663731 
L 187.841849 84.15672 
L 188.92765 83.708205 
L 190.013451 80.85565 
L 191.099252 79.276878 
L 192.185053 78.218382 
L 193.270854 78.021036 
L 194.356656 79.815096 
L 195.442457 76.298738 
L 196.528258 74.684084 
L 197.614059 73.912639 
L 198.69986 73.930579 
L 199.785661 74.5585 
L 200.871462 72.208282 
L 201.957264 70.503925 
L 203.043065 68.584281 
L 204.128866 70.414222 
L 205.214667 70.95244 
L 206.300468 67.633429 
L 207.386269 68.333113 
L 208.472071 67.400201 
L 209.557872 67.597548 
L 210.643673 65.337033 
L 211.729474 64.870577 
L 212.815275 64.242656 
L 213.901076 64.906458 
L 217.15848 63.291804 
L 218.244281 63.686498 
L 219.330082 63.040636 
L 220.415883 63.255923 
L 222.587486 63.45327 
L 223.673287 63.991488 
L 224.759088 63.399448 
L 225.844889 107.120686 
L 226.93069 107.264211 
L 228.016491 107.999776 
L 229.102292 109.02239 
L 230.188094 103.299339 
L 231.273895 108.376528 
L 232.359696 107.156568 
L 233.445497 102.563774 
L 234.531298 111.910826 
L 235.617099 104.321953 
L 236.702901 101.074705 
L 237.788702 99.549754 
L 238.874503 101.074705 
L 239.960304 103.03023 
L 241.046105 100.482665 
L 242.131906 100.392962 
L 243.217708 98.419496 
L 244.303509 99.298585 
L 245.38931 104.286072 
L 246.475111 98.616843 
L 247.560912 99.173001 
L 248.646713 96.858664 
L 249.732514 102.043497 
L 250.818316 95.584882 
L 251.904117 100.733833 
L 252.989918 101.056764 
L 254.075719 95.028723 
L 255.16152 99.782982 
L 256.247321 96.105159 
L 257.333123 100.518546 
L 258.418924 110.726747 
L 259.504725 96.786902 
L 260.590526 94.239337 
L 261.676327 94.741673 
L 262.762128 102.330547 
L 263.847929 92.517039 
L 264.933731 95.549 
L 266.019532 94.239337 
L 267.105333 91.871178 
L 268.191134 96.374268 
L 269.276935 94.059931 
L 272.534339 88.857157 
L 273.62014 94.795495 
L 274.705941 88.857157 
L 275.791742 91.243257 
L 276.877543 89.018623 
L 277.963344 92.068524 
L 279.049146 92.140287 
L 280.134947 96.553674 
L 281.220748 92.660564 
L 282.306549 97.34306 
L 283.39235 86.758107 
L 284.478151 84.318186 
L 285.563953 85.556087 
L 286.649754 86.148127 
L 287.735555 84.676998 
L 288.821356 88.33688 
L 289.907157 86.273711 
L 290.992958 86.686345 
L 292.07876 84.497592 
L 293.164561 86.524879 
L 294.250362 87.368088 
L 295.336163 86.937513 
L 296.421964 81.1427 
L 297.507765 86.130186 
L 298.593566 82.703532 
L 299.679368 80.819769 
L 300.765169 81.806502 
L 301.85097 83.439096 
L 302.936771 80.371254 
L 304.022572 81.1427 
L 305.108373 78.900125 
L 306.194175 82.237076 
L 307.279976 77.985155 
L 308.365777 79.187175 
L 309.451578 81.106819 
L 310.537379 77.231649 
L 311.62318 77.590461 
L 312.708981 76.011689 
L 313.794783 77.84163 
L 314.880584 75.652877 
L 315.966385 73.05149 
L 317.052186 73.302658 
L 318.137987 72.387688 
L 319.223788 75.258184 
L 320.30959 70.378341 
L 321.395391 71.508598 
L 322.481192 69.481311 
L 323.566993 71.221549 
L 324.652794 75.365827 
L 325.738595 71.185668 
L 326.824396 72.064757 
L 327.910198 70.468044 
L 328.995999 70.216875 
L 330.0818 70.324519 
L 332.253402 66.664637 
L 333.339203 69.571014 
L 334.425005 67.776954 
L 335.510806 64.493824 
L 336.596607 67.436083 
L 337.682408 66.14436 
L 338.768209 66.879924 
L 339.85401 67.776954 
L 340.939811 63.022695 
L 342.025613 62.358893 
L 343.111414 63.722379 
L 344.197215 64.260597 
L 345.283016 62.000081 
L 346.368817 61.336279 
L 347.454618 64.457943 
L 348.54042 61.336279 
L 349.626221 62.950933 
L 350.712022 60.672477 
L 351.797823 58.770774 
L 352.883624 59.56016 
L 353.969425 60.044556 
L 355.055227 57.227882 
L 356.141028 57.891684 
L 358.31263 57.47905 
L 359.398431 57.263763 
L 360.484232 56.348793 
L 361.570033 56.743486 
L 362.655835 56.438496 
L 363.741636 54.877664 
L 364.827437 55.469703 
L 366.999039 53.568 
L 368.08484 54.626495 
L 369.170642 54.805901 
L 370.256443 58.035209 
L 371.342244 58.842536 
L 372.428045 59.793388 
L 373.513846 59.542219 
L 374.599647 61.677151 
L 375.685448 61.031289 
L 376.77125 62.663883 
L 377.857051 60.798061 
L 378.942852 60.259843 
L 380.028653 61.35422 
L 381.114454 61.264517 
L 382.200255 62.143606 
L 383.286057 61.569507 
L 384.371858 60.47513 
L 385.457659 63.973547 
L 386.54346 60.1522 
L 387.629261 63.686498 
L 388.715062 59.739566 
L 389.800863 58.986061 
L 390.886665 64.834696 
L 391.972466 62.358893 
L 393.058267 61.408042 
L 394.144068 63.668557 
L 395.229869 61.748913 
L 396.31567 60.511012 
L 397.401472 61.874497 
L 398.487273 60.76218 
L 398.487273 60.76218 
" clip-path="url(#p59d553126f)" style="fill: none; stroke: #ff7f0e; stroke-width: 1.5; stroke-linecap: square"/>
   </g>
   <g id="line2d_21">
    <path d="M 73.832727 288.265053 
L 74.918528 275.026129 
L 76.00433 269.2109 
L 77.090131 251.022845 
L 78.175932 253.126226 
L 79.261733 248.424552 
L 80.347534 246.939813 
L 81.433335 228.751758 
L 82.519137 224.173812 
L 83.604938 221.575518 
L 84.690739 216.750116 
L 85.77654 215.265377 
L 86.862341 210.439974 
L 87.948142 213.285724 
L 89.033943 212.790811 
L 90.119745 199.30443 
L 91.205546 202.397637 
L 92.291347 202.89255 
L 93.377148 199.799344 
L 94.462949 200.170528 
L 95.54875 229.494127 
L 96.634552 229.494127 
L 97.720353 219.224681 
L 98.806154 214.523007 
L 99.891955 214.399279 
L 100.977756 209.078963 
L 102.063557 207.965409 
L 103.149358 205.490844 
L 104.23516 204.253561 
L 105.320961 200.541713 
L 106.406762 202.150181 
L 107.492563 201.036626 
L 108.578364 196.45868 
L 109.664165 197.448506 
L 110.749967 194.231572 
L 111.835768 193.118017 
L 112.921569 187.17906 
L 114.00737 187.17906 
L 115.093171 181.240104 
L 116.178972 187.426517 
L 117.264773 177.651984 
L 118.350575 179.755365 
L 119.436376 186.931604 
L 120.522177 178.64181 
L 121.607978 177.651984 
L 122.693779 169.857103 
L 123.77958 175.301147 
L 124.865382 170.10456 
L 125.951183 173.321495 
L 127.036984 170.475745 
L 128.122785 171.836756 
L 129.208586 165.774071 
L 130.294387 164.289331 
L 131.380189 161.072396 
L 132.46599 159.587657 
L 133.551791 164.907973 
L 135.723393 161.814766 
L 136.809194 162.309679 
L 137.894995 160.948668 
L 138.980797 198.562061 
L 140.066598 189.034984 
L 141.152399 193.860387 
L 142.2382 197.20105 
L 143.324001 196.582409 
L 144.409802 183.096028 
L 145.495604 186.807876 
L 146.581405 192.004463 
L 147.667206 194.3553 
L 148.753007 193.489202 
L 149.838808 183.219756 
L 150.924609 180.002821 
L 153.096212 187.550245 
L 154.182013 179.38418 
L 155.267814 181.735017 
L 156.353615 181.363832 
L 157.439416 182.724843 
L 158.525217 177.651984 
L 159.611019 179.012995 
L 160.69682 173.816408 
L 161.782621 175.919788 
L 162.868422 185.323136 
L 165.040024 172.702853 
L 166.125825 169.114734 
L 167.211627 173.321495 
L 168.297428 174.187593 
L 169.383229 167.382538 
L 170.46903 169.980832 
L 171.554831 168.001179 
L 172.640632 169.980832 
L 173.726434 173.197766 
L 174.812235 164.165603 
L 175.898036 172.579125 
L 176.983837 162.433407 
L 178.069638 160.701212 
L 179.155439 167.25881 
L 180.24124 163.67069 
L 181.327042 168.743549 
L 182.412843 152.658874 
L 183.498644 159.216473 
L 184.584445 158.350375 
L 185.670246 155.752081 
L 186.756047 157.731733 
L 187.841849 161.196125 
L 188.92765 162.185951 
L 190.013451 154.019885 
L 191.099252 150.80295 
L 192.185053 155.504625 
L 193.270854 154.019885 
L 194.356656 158.226646 
L 195.442457 149.565668 
L 196.528258 145.977548 
L 197.614059 148.328385 
L 198.69986 144.121624 
L 199.785661 149.813124 
L 200.871462 148.328385 
L 201.957264 144.740265 
L 203.043065 142.760613 
L 204.128866 144.121624 
L 205.214667 141.523331 
L 206.300468 140.904689 
L 207.386269 144.616537 
L 208.472071 139.667407 
L 209.557872 145.977548 
L 210.643673 139.667407 
L 211.729474 141.028418 
L 212.815275 141.028418 
L 213.901076 140.657233 
L 214.986877 139.048765 
L 216.072679 138.058939 
L 217.15848 135.213189 
L 218.244281 137.192841 
L 219.330082 138.67758 
L 220.415883 136.5742 
L 221.501684 138.306396 
L 222.587486 137.069113 
L 223.673287 138.430124 
L 224.759088 137.192841 
L 225.844889 180.992647 
L 226.93069 177.157071 
L 228.016491 178.270625 
L 229.102292 187.055332 
L 230.188094 173.197766 
L 231.273895 178.765538 
L 232.359696 183.096028 
L 233.445497 175.177419 
L 234.531298 185.570593 
L 235.617099 176.909614 
L 236.702901 171.465571 
L 238.874503 171.218114 
L 239.960304 174.063864 
L 241.046105 173.197766 
L 242.131906 173.69268 
L 243.217708 170.846929 
L 244.303509 173.321495 
L 245.38931 181.116375 
L 246.475111 173.568951 
L 247.560912 169.114734 
L 248.646713 170.970658 
L 249.732514 174.682506 
L 250.818316 163.175777 
L 251.904117 173.940136 
L 252.989918 170.723201 
L 254.075719 168.496092 
L 255.16152 175.177419 
L 256.247321 169.114734 
L 257.333123 179.755365 
L 258.418924 187.055332 
L 259.504725 168.248636 
L 260.590526 172.084212 
L 261.676327 165.526614 
L 262.762128 176.043517 
L 263.847929 168.619821 
L 264.933731 166.763897 
L 266.019532 165.650342 
L 267.105333 161.691038 
L 268.191134 167.25881 
L 269.276935 163.918147 
L 270.362736 163.546962 
L 271.448538 165.279158 
L 272.534339 165.526614 
L 273.62014 166.392712 
L 274.705941 159.711386 
L 275.791742 167.629995 
L 276.877543 156.865635 
L 277.963344 164.660516 
L 279.049146 158.969016 
L 280.134947 175.548604 
L 281.220748 161.443581 
L 282.306549 170.599473 
L 284.478151 154.885983 
L 285.563953 162.062223 
L 286.649754 157.484277 
L 287.735555 160.577483 
L 288.821356 165.897799 
L 289.907157 162.185951 
L 290.992958 160.82494 
L 292.07876 154.019885 
L 293.164561 167.011353 
L 294.250362 158.597831 
L 295.336163 152.411418 
L 296.421964 148.947026 
L 297.507765 157.484277 
L 298.593566 153.277516 
L 299.679368 156.370722 
L 300.765169 162.92832 
L 301.85097 157.360549 
L 302.936771 152.782603 
L 304.022572 150.555494 
L 305.108373 151.54532 
L 306.194175 156.741907 
L 307.279976 150.555494 
L 308.365777 155.13344 
L 309.451578 159.216473 
L 310.537379 150.80295 
L 311.62318 156.741907 
L 312.708981 150.184309 
L 313.794783 150.679222 
L 314.880584 142.760613 
L 315.966385 140.780961 
L 317.052186 146.225005 
L 318.137987 145.11145 
L 319.223788 150.060581 
L 320.30959 148.080929 
L 321.395391 151.297864 
L 322.481192 141.894515 
L 323.566993 146.348733 
L 324.652794 150.184309 
L 325.738595 146.596189 
L 326.824396 144.492809 
L 327.910198 141.770787 
L 328.995999 136.821656 
L 330.0818 147.9572 
L 331.167601 143.00807 
L 332.253402 140.780961 
L 333.339203 146.225005 
L 334.425005 147.091103 
L 335.510806 134.099635 
L 336.596607 140.657233 
L 337.682408 140.904689 
L 338.768209 140.904689 
L 339.85401 140.16232 
L 342.025613 137.935211 
L 343.111414 132.98608 
L 344.197215 136.450472 
L 345.283016 135.336917 
L 346.368817 138.306396 
L 347.454618 137.192841 
L 348.54042 132.367439 
L 349.626221 135.213189 
L 350.712022 130.758971 
L 351.797823 130.016602 
L 353.969425 132.119982 
L 355.055227 124.943743 
L 356.141028 131.377613 
L 357.226829 125.933569 
L 358.31263 130.635243 
L 359.398431 131.253885 
L 360.484232 128.779319 
L 361.570033 125.314928 
L 362.655835 128.408134 
L 363.741636 129.645417 
L 364.827437 130.14033 
L 365.913238 124.943743 
L 366.999039 126.675939 
L 368.08484 127.542037 
L 370.256443 128.655591 
L 371.342244 133.604722 
L 372.428045 137.935211 
L 373.513846 132.367439 
L 374.599647 132.738624 
L 375.685448 135.955559 
L 376.77125 136.945385 
L 377.857051 136.5742 
L 378.942852 134.223363 
L 380.028653 138.801309 
L 381.114454 136.697928 
L 382.200255 131.377613 
L 383.286057 132.98608 
L 384.371858 132.98608 
L 385.457659 135.83183 
L 386.54346 132.243711 
L 387.629261 135.83183 
L 388.715062 133.604722 
L 389.800863 127.047124 
L 390.886665 138.67758 
L 391.972466 135.955559 
L 393.058267 131.872526 
L 394.144068 137.811483 
L 395.229869 132.862352 
L 396.31567 135.708102 
L 397.401472 131.996254 
L 398.487273 131.501341 
L 398.487273 131.501341 
" clip-path="url(#p59d553126f)" style="fill: none; stroke: #2ca02c; stroke-width: 1.5; stroke-linecap: square"/>
   </g>
   <g id="line2d_22">
    <path d="M 368.08484 53.801228 
L 370.256443 56.115565 
L 371.342244 57.030536 
L 373.513846 64.978221 
L 374.599647 64.314418 
L 375.685448 60.744239 
L 376.77125 63.47121 
L 377.857051 64.081191 
L 378.942852 72.638856 
L 380.028653 67.902538 
L 381.114454 66.252003 
L 382.200255 63.507092 
L 383.286057 64.762933 
L 384.371858 65.767607 
L 385.457659 65.067924 
L 386.54346 69.911885 
L 387.629261 66.287884 
L 388.715062 72.423569 
L 389.800863 68.56634 
L 390.886665 68.56634 
L 391.972466 72.495331 
L 393.058267 75.060837 
L 394.144068 69.409548 
L 395.229869 75.347887 
L 396.31567 77.24959 
L 397.401472 83.313512 
L 398.487273 81.124759 
L 398.487273 81.124759 
" clip-path="url(#p59d553126f)" style="fill: none; stroke: #d62728; stroke-width: 1.5; stroke-linecap: square"/>
   </g>
   <g id="line2d_23">
    <path d="M 368.08484 126.55221 
L 369.170642 132.243711 
L 370.256443 127.418308 
L 371.342244 128.531863 
L 372.428045 131.996254 
L 373.513846 143.00807 
L 374.599647 139.543678 
L 376.77125 140.780961 
L 377.857051 138.306396 
L 378.942852 149.070755 
L 380.028653 152.411418 
L 381.114454 141.894515 
L 382.200255 135.584374 
L 383.286057 138.801309 
L 384.371858 141.399602 
L 385.457659 140.533504 
L 386.54346 147.214831 
L 387.629261 143.750439 
L 388.715062 148.947026 
L 390.886665 144.121624 
L 391.972466 142.884341 
L 393.058267 143.131798 
L 394.144068 141.523331 
L 395.229869 147.338559 
L 396.31567 152.040233 
L 397.401472 152.906331 
L 398.487273 151.916505 
L 398.487273 151.916505 
" clip-path="url(#p59d553126f)" style="fill: none; stroke: #9467bd; stroke-width: 1.5; stroke-linecap: square"/>
   </g>
   <g id="patch_3">
    <path d="M 57.6 307.584 
L 57.6 41.472 
" style="fill: none; stroke: #000000; stroke-width: 0.8; stroke-linejoin: miter; stroke-linecap: square"/>
   </g>
   <g id="patch_4">
    <path d="M 414.72 307.584 
L 414.72 41.472 
" style="fill: none; stroke: #000000; stroke-width: 0.8; stroke-linejoin: miter; stroke-linecap: square"/>
   </g>
   <g id="patch_5">
    <path d="M 57.6 307.584 
L 414.72 307.584 
" style="fill: none; stroke: #000000; stroke-width: 0.8; stroke-linejoin: miter; stroke-linecap: square"/>
   </g>
   <g id="patch_6">
    <path d="M 57.6 41.472 
L 414.72 41.472 
" style="fill: none; stroke: #000000; stroke-width: 0.8; stroke-linejoin: miter; stroke-linecap: square"/>
   </g>
   <g id="text_21">
    <!-- Learning Curves -->
    <g transform="translate(187.37625 35.472) scale(0.12 -0.12)">
     <defs>
      <path id="DejaVuSans-4c" d="M 628 4666 
L 1259 4666 
L 1259 531 
L 3531 531 
L 3531 0 
L 628 0 
L 628 4666 
z
" transform="scale(0.015625)"/>
      <path id="DejaVuSans-65" d="M 3597 1894 
L 3597 1613 
L 953 1613 
Q 991 1019 1311 708 
Q 1631 397 2203 397 
Q 2534 397 2845 478 
Q 3156 559 3463 722 
L 3463 178 
Q 3153 47 2828 -22 
Q 2503 -91 2169 -91 
Q 1331 -91 842 396 
Q 353 884 353 1716 
Q 353 2575 817 3079 
Q 1281 3584 2069 3584 
Q 2775 3584 3186 3129 
Q 3597 2675 3597 1894 
z
M 3022 2063 
Q 3016 2534 2758 2815 
Q 2500 3097 2075 3097 
Q 1594 3097 1305 2825 
Q 1016 2553 972 2059 
L 3022 2063 
z
" transform="scale(0.015625)"/>
      <path id="DejaVuSans-6e" d="M 3513 2113 
L 3513 0 
L 2938 0 
L 2938 2094 
Q 2938 2591 2744 2837 
Q 2550 3084 2163 3084 
Q 1697 3084 1428 2787 
Q 1159 2491 1159 1978 
L 1159 0 
L 581 0 
L 581 3500 
L 1159 3500 
L 1159 2956 
Q 1366 3272 1645 3428 
Q 1925 3584 2291 3584 
Q 2894 3584 3203 3211 
Q 3513 2838 3513 2113 
z
" transform="scale(0.015625)"/>
      <path id="DejaVuSans-69" d="M 603 3500 
L 1178 3500 
L 1178 0 
L 603 0 
L 603 3500 
z
M 603 4863 
L 1178 4863 
L 1178 4134 
L 603 4134 
L 603 4863 
z
" transform="scale(0.015625)"/>
      <path id="DejaVuSans-67" d="M 2906 1791 
Q 2906 2416 2648 2759 
Q 2391 3103 1925 3103 
Q 1463 3103 1205 2759 
Q 947 2416 947 1791 
Q 947 1169 1205 825 
Q 1463 481 1925 481 
Q 2391 481 2648 825 
Q 2906 1169 2906 1791 
z
M 3481 434 
Q 3481 -459 3084 -895 
Q 2688 -1331 1869 -1331 
Q 1566 -1331 1297 -1286 
Q 1028 -1241 775 -1147 
L 775 -588 
Q 1028 -725 1275 -790 
Q 1522 -856 1778 -856 
Q 2344 -856 2625 -561 
Q 2906 -266 2906 331 
L 2906 616 
Q 2728 306 2450 153 
Q 2172 0 1784 0 
Q 1141 0 747 490 
Q 353 981 353 1791 
Q 353 2603 747 3093 
Q 1141 3584 1784 3584 
Q 2172 3584 2450 3431 
Q 2728 3278 2906 2969 
L 2906 3500 
L 3481 3500 
L 3481 434 
z
" transform="scale(0.015625)"/>
      <path id="DejaVuSans-20" transform="scale(0.015625)"/>
      <path id="DejaVuSans-43" d="M 4122 4306 
L 4122 3641 
Q 3803 3938 3442 4084 
Q 3081 4231 2675 4231 
Q 1875 4231 1450 3742 
Q 1025 3253 1025 2328 
Q 1025 1406 1450 917 
Q 1875 428 2675 428 
Q 3081 428 3442 575 
Q 3803 722 4122 1019 
L 4122 359 
Q 3791 134 3420 21 
Q 3050 -91 2638 -91 
Q 1578 -91 968 557 
Q 359 1206 359 2328 
Q 359 3453 968 4101 
Q 1578 4750 2638 4750 
Q 3056 4750 3426 4639 
Q 3797 4528 4122 4306 
z
" transform="scale(0.015625)"/>
      <path id="DejaVuSans-76" d="M 191 3500 
L 800 3500 
L 1894 563 
L 2988 3500 
L 3597 3500 
L 2284 0 
L 1503 0 
L 191 3500 
z
" transform="scale(0.015625)"/>
     </defs>
     <use xlink:href="#DejaVuSans-4c"/>
     <use xlink:href="#DejaVuSans-65" x="53.962891"/>
     <use xlink:href="#DejaVuSans-61" x="115.486328"/>
     <use xlink:href="#DejaVuSans-72" x="176.765625"/>
     <use xlink:href="#DejaVuSans-6e" x="216.128906"/>
     <use xlink:href="#DejaVuSans-69" x="279.507812"/>
     <use xlink:href="#DejaVuSans-6e" x="307.291016"/>
     <use xlink:href="#DejaVuSans-67" x="370.669922"/>
     <use xlink:href="#DejaVuSans-20" x="434.146484"/>
     <use xlink:href="#DejaVuSans-43" x="465.933594"/>
     <use xlink:href="#DejaVuSans-75" x="535.757812"/>
     <use xlink:href="#DejaVuSans-72" x="599.136719"/>
     <use xlink:href="#DejaVuSans-76" x="640.25"/>
     <use xlink:href="#DejaVuSans-65" x="699.429688"/>
     <use xlink:href="#DejaVuSans-73" x="760.953125"/>
    </g>
   </g>
   <g id="legend_1">
    <g id="patch_7">
     <path d="M 214.18875 302.584 
L 407.72 302.584 
Q 409.72 302.584 409.72 300.584 
L 409.72 228.193375 
Q 409.72 226.193375 407.72 226.193375 
L 214.18875 226.193375 
Q 212.18875 226.193375 212.18875 228.193375 
L 212.18875 300.584 
Q 212.18875 302.584 214.18875 302.584 
z
" style="fill: #ffffff; opacity: 0.8; stroke: #cccccc; stroke-linejoin: miter"/>
    </g>
    <g id="line2d_24">
     <path d="M 216.18875 234.291812 
L 226.18875 234.291812 
L 236.18875 234.291812 
" style="fill: none; stroke: #1f77b4; stroke-width: 1.5; stroke-linecap: square"/>
    </g>
    <g id="text_22">
     <!-- Train Accuracy -->
     <g transform="translate(244.18875 237.791812) scale(0.1 -0.1)">
      <defs>
       <path id="DejaVuSans-54" d="M -19 4666 
L 3928 4666 
L 3928 4134 
L 2272 4134 
L 2272 0 
L 1638 0 
L 1638 4134 
L -19 4134 
L -19 4666 
z
" transform="scale(0.015625)"/>
      </defs>
      <use xlink:href="#DejaVuSans-54"/>
      <use xlink:href="#DejaVuSans-72" x="46.333984"/>
      <use xlink:href="#DejaVuSans-61" x="87.447266"/>
      <use xlink:href="#DejaVuSans-69" x="148.726562"/>
      <use xlink:href="#DejaVuSans-6e" x="176.509766"/>
      <use xlink:href="#DejaVuSans-20" x="239.888672"/>
      <use xlink:href="#DejaVuSans-41" x="271.675781"/>
      <use xlink:href="#DejaVuSans-63" x="338.333984"/>
      <use xlink:href="#DejaVuSans-63" x="393.314453"/>
      <use xlink:href="#DejaVuSans-75" x="448.294922"/>
      <use xlink:href="#DejaVuSans-72" x="511.673828"/>
      <use xlink:href="#DejaVuSans-61" x="552.787109"/>
      <use xlink:href="#DejaVuSans-63" x="614.066406"/>
      <use xlink:href="#DejaVuSans-79" x="669.046875"/>
     </g>
    </g>
    <g id="line2d_25">
     <path d="M 216.18875 248.969937 
L 226.18875 248.969937 
L 236.18875 248.969937 
" style="fill: none; stroke: #ff7f0e; stroke-width: 1.5; stroke-linecap: square"/>
    </g>
    <g id="text_23">
     <!-- Validation Accuracy -->
     <g transform="translate(244.18875 252.469937) scale(0.1 -0.1)">
      <defs>
       <path id="DejaVuSans-56" d="M 1831 0 
L 50 4666 
L 709 4666 
L 2188 738 
L 3669 4666 
L 4325 4666 
L 2547 0 
L 1831 0 
z
" transform="scale(0.015625)"/>
       <path id="DejaVuSans-6c" d="M 603 4863 
L 1178 4863 
L 1178 0 
L 603 0 
L 603 4863 
z
" transform="scale(0.015625)"/>
       <path id="DejaVuSans-64" d="M 2906 2969 
L 2906 4863 
L 3481 4863 
L 3481 0 
L 2906 0 
L 2906 525 
Q 2725 213 2448 61 
Q 2172 -91 1784 -91 
Q 1150 -91 751 415 
Q 353 922 353 1747 
Q 353 2572 751 3078 
Q 1150 3584 1784 3584 
Q 2172 3584 2448 3432 
Q 2725 3281 2906 2969 
z
M 947 1747 
Q 947 1113 1208 752 
Q 1469 391 1925 391 
Q 2381 391 2643 752 
Q 2906 1113 2906 1747 
Q 2906 2381 2643 2742 
Q 2381 3103 1925 3103 
Q 1469 3103 1208 2742 
Q 947 2381 947 1747 
z
" transform="scale(0.015625)"/>
       <path id="DejaVuSans-74" d="M 1172 4494 
L 1172 3500 
L 2356 3500 
L 2356 3053 
L 1172 3053 
L 1172 1153 
Q 1172 725 1289 603 
Q 1406 481 1766 481 
L 2356 481 
L 2356 0 
L 1766 0 
Q 1100 0 847 248 
Q 594 497 594 1153 
L 594 3053 
L 172 3053 
L 172 3500 
L 594 3500 
L 594 4494 
L 1172 4494 
z
" transform="scale(0.015625)"/>
      </defs>
      <use xlink:href="#DejaVuSans-56"/>
      <use xlink:href="#DejaVuSans-61" x="60.658203"/>
      <use xlink:href="#DejaVuSans-6c" x="121.9375"/>
      <use xlink:href="#DejaVuSans-69" x="149.720703"/>
      <use xlink:href="#DejaVuSans-64" x="177.503906"/>
      <use xlink:href="#DejaVuSans-61" x="240.980469"/>
      <use xlink:href="#DejaVuSans-74" x="302.259766"/>
      <use xlink:href="#DejaVuSans-69" x="341.46875"/>
      <use xlink:href="#DejaVuSans-6f" x="369.251953"/>
      <use xlink:href="#DejaVuSans-6e" x="430.433594"/>
      <use xlink:href="#DejaVuSans-20" x="493.8125"/>
      <use xlink:href="#DejaVuSans-41" x="525.599609"/>
      <use xlink:href="#DejaVuSans-63" x="592.257812"/>
      <use xlink:href="#DejaVuSans-63" x="647.238281"/>
      <use xlink:href="#DejaVuSans-75" x="702.21875"/>
      <use xlink:href="#DejaVuSans-72" x="765.597656"/>
      <use xlink:href="#DejaVuSans-61" x="806.710938"/>
      <use xlink:href="#DejaVuSans-63" x="867.990234"/>
      <use xlink:href="#DejaVuSans-79" x="922.970703"/>
     </g>
    </g>
    <g id="line2d_26">
     <path d="M 216.18875 263.648062 
L 226.18875 263.648062 
L 236.18875 263.648062 
" style="fill: none; stroke: #2ca02c; stroke-width: 1.5; stroke-linecap: square"/>
    </g>
    <g id="text_24">
     <!-- Robust Validation Accuracy -->
     <g transform="translate(244.18875 267.148062) scale(0.1 -0.1)">
      <defs>
       <path id="DejaVuSans-52" d="M 2841 2188 
Q 3044 2119 3236 1894 
Q 3428 1669 3622 1275 
L 4263 0 
L 3584 0 
L 2988 1197 
Q 2756 1666 2539 1819 
Q 2322 1972 1947 1972 
L 1259 1972 
L 1259 0 
L 628 0 
L 628 4666 
L 2053 4666 
Q 2853 4666 3247 4331 
Q 3641 3997 3641 3322 
Q 3641 2881 3436 2590 
Q 3231 2300 2841 2188 
z
M 1259 4147 
L 1259 2491 
L 2053 2491 
Q 2509 2491 2742 2702 
Q 2975 2913 2975 3322 
Q 2975 3731 2742 3939 
Q 2509 4147 2053 4147 
L 1259 4147 
z
" transform="scale(0.015625)"/>
       <path id="DejaVuSans-62" d="M 3116 1747 
Q 3116 2381 2855 2742 
Q 2594 3103 2138 3103 
Q 1681 3103 1420 2742 
Q 1159 2381 1159 1747 
Q 1159 1113 1420 752 
Q 1681 391 2138 391 
Q 2594 391 2855 752 
Q 3116 1113 3116 1747 
z
M 1159 2969 
Q 1341 3281 1617 3432 
Q 1894 3584 2278 3584 
Q 2916 3584 3314 3078 
Q 3713 2572 3713 1747 
Q 3713 922 3314 415 
Q 2916 -91 2278 -91 
Q 1894 -91 1617 61 
Q 1341 213 1159 525 
L 1159 0 
L 581 0 
L 581 4863 
L 1159 4863 
L 1159 2969 
z
" transform="scale(0.015625)"/>
      </defs>
      <use xlink:href="#DejaVuSans-52"/>
      <use xlink:href="#DejaVuSans-6f" x="64.982422"/>
      <use xlink:href="#DejaVuSans-62" x="126.164062"/>
      <use xlink:href="#DejaVuSans-75" x="189.640625"/>
      <use xlink:href="#DejaVuSans-73" x="253.019531"/>
      <use xlink:href="#DejaVuSans-74" x="305.119141"/>
      <use xlink:href="#DejaVuSans-20" x="344.328125"/>
      <use xlink:href="#DejaVuSans-56" x="376.115234"/>
      <use xlink:href="#DejaVuSans-61" x="436.773438"/>
      <use xlink:href="#DejaVuSans-6c" x="498.052734"/>
      <use xlink:href="#DejaVuSans-69" x="525.835938"/>
      <use xlink:href="#DejaVuSans-64" x="553.619141"/>
      <use xlink:href="#DejaVuSans-61" x="617.095703"/>
      <use xlink:href="#DejaVuSans-74" x="678.375"/>
      <use xlink:href="#DejaVuSans-69" x="717.583984"/>
      <use xlink:href="#DejaVuSans-6f" x="745.367188"/>
      <use xlink:href="#DejaVuSans-6e" x="806.548828"/>
      <use xlink:href="#DejaVuSans-20" x="869.927734"/>
      <use xlink:href="#DejaVuSans-41" x="901.714844"/>
      <use xlink:href="#DejaVuSans-63" x="968.373047"/>
      <use xlink:href="#DejaVuSans-63" x="1023.353516"/>
      <use xlink:href="#DejaVuSans-75" x="1078.333984"/>
      <use xlink:href="#DejaVuSans-72" x="1141.712891"/>
      <use xlink:href="#DejaVuSans-61" x="1182.826172"/>
      <use xlink:href="#DejaVuSans-63" x="1244.105469"/>
      <use xlink:href="#DejaVuSans-79" x="1299.085938"/>
     </g>
    </g>
    <g id="line2d_27">
     <path d="M 216.18875 278.326188 
L 226.18875 278.326188 
L 236.18875 278.326188 
" style="fill: none; stroke: #d62728; stroke-width: 1.5; stroke-linecap: square"/>
    </g>
    <g id="text_25">
     <!-- SWA Validation Accuracy -->
     <g transform="translate(244.18875 281.826188) scale(0.1 -0.1)">
      <defs>
       <path id="DejaVuSans-53" d="M 3425 4513 
L 3425 3897 
Q 3066 4069 2747 4153 
Q 2428 4238 2131 4238 
Q 1616 4238 1336 4038 
Q 1056 3838 1056 3469 
Q 1056 3159 1242 3001 
Q 1428 2844 1947 2747 
L 2328 2669 
Q 3034 2534 3370 2195 
Q 3706 1856 3706 1288 
Q 3706 609 3251 259 
Q 2797 -91 1919 -91 
Q 1588 -91 1214 -16 
Q 841 59 441 206 
L 441 856 
Q 825 641 1194 531 
Q 1563 422 1919 422 
Q 2459 422 2753 634 
Q 3047 847 3047 1241 
Q 3047 1584 2836 1778 
Q 2625 1972 2144 2069 
L 1759 2144 
Q 1053 2284 737 2584 
Q 422 2884 422 3419 
Q 422 4038 858 4394 
Q 1294 4750 2059 4750 
Q 2388 4750 2728 4690 
Q 3069 4631 3425 4513 
z
" transform="scale(0.015625)"/>
       <path id="DejaVuSans-57" d="M 213 4666 
L 850 4666 
L 1831 722 
L 2809 4666 
L 3519 4666 
L 4500 722 
L 5478 4666 
L 6119 4666 
L 4947 0 
L 4153 0 
L 3169 4050 
L 2175 0 
L 1381 0 
L 213 4666 
z
" transform="scale(0.015625)"/>
      </defs>
      <use xlink:href="#DejaVuSans-53"/>
      <use xlink:href="#DejaVuSans-57" x="63.476562"/>
      <use xlink:href="#DejaVuSans-41" x="156.853516"/>
      <use xlink:href="#DejaVuSans-20" x="225.261719"/>
      <use xlink:href="#DejaVuSans-56" x="257.048828"/>
      <use xlink:href="#DejaVuSans-61" x="317.707031"/>
      <use xlink:href="#DejaVuSans-6c" x="378.986328"/>
      <use xlink:href="#DejaVuSans-69" x="406.769531"/>
      <use xlink:href="#DejaVuSans-64" x="434.552734"/>
      <use xlink:href="#DejaVuSans-61" x="498.029297"/>
      <use xlink:href="#DejaVuSans-74" x="559.308594"/>
      <use xlink:href="#DejaVuSans-69" x="598.517578"/>
      <use xlink:href="#DejaVuSans-6f" x="626.300781"/>
      <use xlink:href="#DejaVuSans-6e" x="687.482422"/>
      <use xlink:href="#DejaVuSans-20" x="750.861328"/>
      <use xlink:href="#DejaVuSans-41" x="782.648438"/>
      <use xlink:href="#DejaVuSans-63" x="849.306641"/>
      <use xlink:href="#DejaVuSans-63" x="904.287109"/>
      <use xlink:href="#DejaVuSans-75" x="959.267578"/>
      <use xlink:href="#DejaVuSans-72" x="1022.646484"/>
      <use xlink:href="#DejaVuSans-61" x="1063.759766"/>
      <use xlink:href="#DejaVuSans-63" x="1125.039062"/>
      <use xlink:href="#DejaVuSans-79" x="1180.019531"/>
     </g>
    </g>
    <g id="line2d_28">
     <path d="M 216.18875 293.004312 
L 226.18875 293.004312 
L 236.18875 293.004312 
" style="fill: none; stroke: #9467bd; stroke-width: 1.5; stroke-linecap: square"/>
    </g>
    <g id="text_26">
     <!-- SWA Robust Validation Accuracy -->
     <g transform="translate(244.18875 296.504312) scale(0.1 -0.1)">
      <use xlink:href="#DejaVuSans-53"/>
      <use xlink:href="#DejaVuSans-57" x="63.476562"/>
      <use xlink:href="#DejaVuSans-41" x="156.853516"/>
      <use xlink:href="#DejaVuSans-20" x="225.261719"/>
      <use xlink:href="#DejaVuSans-52" x="257.048828"/>
      <use xlink:href="#DejaVuSans-6f" x="322.03125"/>
      <use xlink:href="#DejaVuSans-62" x="383.212891"/>
      <use xlink:href="#DejaVuSans-75" x="446.689453"/>
      <use xlink:href="#DejaVuSans-73" x="510.068359"/>
      <use xlink:href="#DejaVuSans-74" x="562.167969"/>
      <use xlink:href="#DejaVuSans-20" x="601.376953"/>
      <use xlink:href="#DejaVuSans-56" x="633.164062"/>
      <use xlink:href="#DejaVuSans-61" x="693.822266"/>
      <use xlink:href="#DejaVuSans-6c" x="755.101562"/>
      <use xlink:href="#DejaVuSans-69" x="782.884766"/>
      <use xlink:href="#DejaVuSans-64" x="810.667969"/>
      <use xlink:href="#DejaVuSans-61" x="874.144531"/>
      <use xlink:href="#DejaVuSans-74" x="935.423828"/>
      <use xlink:href="#DejaVuSans-69" x="974.632812"/>
      <use xlink:href="#DejaVuSans-6f" x="1002.416016"/>
      <use xlink:href="#DejaVuSans-6e" x="1063.597656"/>
      <use xlink:href="#DejaVuSans-20" x="1126.976562"/>
      <use xlink:href="#DejaVuSans-41" x="1158.763672"/>
      <use xlink:href="#DejaVuSans-63" x="1225.421875"/>
      <use xlink:href="#DejaVuSans-63" x="1280.402344"/>
      <use xlink:href="#DejaVuSans-75" x="1335.382812"/>
      <use xlink:href="#DejaVuSans-72" x="1398.761719"/>
      <use xlink:href="#DejaVuSans-61" x="1439.875"/>
      <use xlink:href="#DejaVuSans-63" x="1501.154297"/>
      <use xlink:href="#DejaVuSans-79" x="1556.134766"/>
     </g>
    </g>
   </g>
  </g>
 </g>
 <defs>
  <clipPath id="p59d553126f">
   <rect x="57.6" y="41.472" width="357.12" height="266.112"/>
  </clipPath>
 </defs>
</svg>
