<?xml version="1.0" encoding="utf-8" standalone="no"?>
<!DOCTYPE svg PUBLIC "-//W3C//DTD SVG 1.1//EN"
  "http://www.w3.org/Graphics/SVG/1.1/DTD/svg11.dtd">
<svg xmlns:xlink="http://www.w3.org/1999/xlink" width="460.8pt" height="345.6pt" viewBox="0 0 460.8 345.6" xmlns="http://www.w3.org/2000/svg" version="1.1">
 <metadata>
  <rdf:RDF xmlns:dc="http://purl.org/dc/elements/1.1/" xmlns:cc="http://creativecommons.org/ns#" xmlns:rdf="http://www.w3.org/1999/02/22-rdf-syntax-ns#">
   <cc:Work>
    <dc:type rdf:resource="http://purl.org/dc/dcmitype/StillImage"/>
    <dc:date>2025-07-23T21:05:45.067284</dc:date>
    <dc:format>image/svg+xml</dc:format>
    <dc:creator>
     <cc:Agent>
      <dc:title>Matplotlib v3.9.1, https://matplotlib.org/</dc:title>
     </cc:Agent>
    </dc:creator>
   </cc:Work>
  </rdf:RDF>
 </metadata>
 <defs>
  <style type="text/css">*{stroke-linejoin: round; stroke-linecap: butt}</style>
 </defs>
 <g id="figure_1">
  <g id="patch_1">
   <path d="M 0 345.6 
L 460.8 345.6 
L 460.8 0 
L 0 0 
z
" style="fill: #ffffff"/>
  </g>
  <g id="axes_1">
   <g id="patch_2">
    <path d="M 57.6 307.584 
L 414.72 307.584 
L 414.72 41.472 
L 57.6 41.472 
z
" style="fill: #ffffff"/>
   </g>
   <g id="matplotlib.axis_1">
    <g id="xtick_1">
     <g id="line2d_1">
      <defs>
       <path id="me50ecd2463" d="M 0 0 
L 0 3.5 
" style="stroke: #000000; stroke-width: 0.8"/>
      </defs>
      <g>
       <use xlink:href="#me50ecd2463" x="73.832727" y="307.584" style="stroke: #000000; stroke-width: 0.8"/>
      </g>
     </g>
     <g id="text_1">
      <!-- 1 -->
      <g transform="translate(70.651477 322.182437) scale(0.1 -0.1)">
       <defs>
        <path id="DejaVuSans-31" d="M 794 531 
L 1825 531 
L 1825 4091 
L 703 3866 
L 703 4441 
L 1819 4666 
L 2450 4666 
L 2450 531 
L 3481 531 
L 3481 0 
L 794 0 
L 794 531 
z
" transform="scale(0.015625)"/>
       </defs>
       <use xlink:href="#DejaVuSans-31"/>
      </g>
     </g>
    </g>
    <g id="xtick_2">
     <g id="line2d_2">
      <g>
       <use xlink:href="#me50ecd2463" x="109.664165" y="307.584" style="stroke: #000000; stroke-width: 0.8"/>
      </g>
     </g>
     <g id="text_2">
      <!-- 34 -->
      <g transform="translate(103.301665 322.182437) scale(0.1 -0.1)">
       <defs>
        <path id="DejaVuSans-33" d="M 2597 2516 
Q 3050 2419 3304 2112 
Q 3559 1806 3559 1356 
Q 3559 666 3084 287 
Q 2609 -91 1734 -91 
Q 1441 -91 1130 -33 
Q 819 25 488 141 
L 488 750 
Q 750 597 1062 519 
Q 1375 441 1716 441 
Q 2309 441 2620 675 
Q 2931 909 2931 1356 
Q 2931 1769 2642 2001 
Q 2353 2234 1838 2234 
L 1294 2234 
L 1294 2753 
L 1863 2753 
Q 2328 2753 2575 2939 
Q 2822 3125 2822 3475 
Q 2822 3834 2567 4026 
Q 2313 4219 1838 4219 
Q 1578 4219 1281 4162 
Q 984 4106 628 3988 
L 628 4550 
Q 988 4650 1302 4700 
Q 1616 4750 1894 4750 
Q 2613 4750 3031 4423 
Q 3450 4097 3450 3541 
Q 3450 3153 3228 2886 
Q 3006 2619 2597 2516 
z
" transform="scale(0.015625)"/>
        <path id="DejaVuSans-34" d="M 2419 4116 
L 825 1625 
L 2419 1625 
L 2419 4116 
z
M 2253 4666 
L 3047 4666 
L 3047 1625 
L 3713 1625 
L 3713 1100 
L 3047 1100 
L 3047 0 
L 2419 0 
L 2419 1100 
L 313 1100 
L 313 1709 
L 2253 4666 
z
" transform="scale(0.015625)"/>
       </defs>
       <use xlink:href="#DejaVuSans-33"/>
       <use xlink:href="#DejaVuSans-34" x="63.623047"/>
      </g>
     </g>
    </g>
    <g id="xtick_3">
     <g id="line2d_3">
      <g>
       <use xlink:href="#me50ecd2463" x="145.495604" y="307.584" style="stroke: #000000; stroke-width: 0.8"/>
      </g>
     </g>
     <g id="text_3">
      <!-- 67 -->
      <g transform="translate(139.133104 322.182437) scale(0.1 -0.1)">
       <defs>
        <path id="DejaVuSans-36" d="M 2113 2584 
Q 1688 2584 1439 2293 
Q 1191 2003 1191 1497 
Q 1191 994 1439 701 
Q 1688 409 2113 409 
Q 2538 409 2786 701 
Q 3034 994 3034 1497 
Q 3034 2003 2786 2293 
Q 2538 2584 2113 2584 
z
M 3366 4563 
L 3366 3988 
Q 3128 4100 2886 4159 
Q 2644 4219 2406 4219 
Q 1781 4219 1451 3797 
Q 1122 3375 1075 2522 
Q 1259 2794 1537 2939 
Q 1816 3084 2150 3084 
Q 2853 3084 3261 2657 
Q 3669 2231 3669 1497 
Q 3669 778 3244 343 
Q 2819 -91 2113 -91 
Q 1303 -91 875 529 
Q 447 1150 447 2328 
Q 447 3434 972 4092 
Q 1497 4750 2381 4750 
Q 2619 4750 2861 4703 
Q 3103 4656 3366 4563 
z
" transform="scale(0.015625)"/>
        <path id="DejaVuSans-37" d="M 525 4666 
L 3525 4666 
L 3525 4397 
L 1831 0 
L 1172 0 
L 2766 4134 
L 525 4134 
L 525 4666 
z
" transform="scale(0.015625)"/>
       </defs>
       <use xlink:href="#DejaVuSans-36"/>
       <use xlink:href="#DejaVuSans-37" x="63.623047"/>
      </g>
     </g>
    </g>
    <g id="xtick_4">
     <g id="line2d_4">
      <g>
       <use xlink:href="#me50ecd2463" x="181.327042" y="307.584" style="stroke: #000000; stroke-width: 0.8"/>
      </g>
     </g>
     <g id="text_4">
      <!-- 100 -->
      <g transform="translate(171.783292 322.182437) scale(0.1 -0.1)">
       <defs>
        <path id="DejaVuSans-30" d="M 2034 4250 
Q 1547 4250 1301 3770 
Q 1056 3291 1056 2328 
Q 1056 1369 1301 889 
Q 1547 409 2034 409 
Q 2525 409 2770 889 
Q 3016 1369 3016 2328 
Q 3016 3291 2770 3770 
Q 2525 4250 2034 4250 
z
M 2034 4750 
Q 2819 4750 3233 4129 
Q 3647 3509 3647 2328 
Q 3647 1150 3233 529 
Q 2819 -91 2034 -91 
Q 1250 -91 836 529 
Q 422 1150 422 2328 
Q 422 3509 836 4129 
Q 1250 4750 2034 4750 
z
" transform="scale(0.015625)"/>
       </defs>
       <use xlink:href="#DejaVuSans-31"/>
       <use xlink:href="#DejaVuSans-30" x="63.623047"/>
       <use xlink:href="#DejaVuSans-30" x="127.246094"/>
      </g>
     </g>
    </g>
    <g id="xtick_5">
     <g id="line2d_5">
      <g>
       <use xlink:href="#me50ecd2463" x="217.15848" y="307.584" style="stroke: #000000; stroke-width: 0.8"/>
      </g>
     </g>
     <g id="text_5">
      <!-- 133 -->
      <g transform="translate(207.61473 322.182437) scale(0.1 -0.1)">
       <use xlink:href="#DejaVuSans-31"/>
       <use xlink:href="#DejaVuSans-33" x="63.623047"/>
       <use xlink:href="#DejaVuSans-33" x="127.246094"/>
      </g>
     </g>
    </g>
    <g id="xtick_6">
     <g id="line2d_6">
      <g>
       <use xlink:href="#me50ecd2463" x="254.075719" y="307.584" style="stroke: #000000; stroke-width: 0.8"/>
      </g>
     </g>
     <g id="text_6">
      <!-- 167 -->
      <g transform="translate(244.531969 322.182437) scale(0.1 -0.1)">
       <use xlink:href="#DejaVuSans-31"/>
       <use xlink:href="#DejaVuSans-36" x="63.623047"/>
       <use xlink:href="#DejaVuSans-37" x="127.246094"/>
      </g>
     </g>
    </g>
    <g id="xtick_7">
     <g id="line2d_7">
      <g>
       <use xlink:href="#me50ecd2463" x="289.907157" y="307.584" style="stroke: #000000; stroke-width: 0.8"/>
      </g>
     </g>
     <g id="text_7">
      <!-- 200 -->
      <g transform="translate(280.363407 322.182437) scale(0.1 -0.1)">
       <defs>
        <path id="DejaVuSans-32" d="M 1228 531 
L 3431 531 
L 3431 0 
L 469 0 
L 469 531 
Q 828 903 1448 1529 
Q 2069 2156 2228 2338 
Q 2531 2678 2651 2914 
Q 2772 3150 2772 3378 
Q 2772 3750 2511 3984 
Q 2250 4219 1831 4219 
Q 1534 4219 1204 4116 
Q 875 4013 500 3803 
L 500 4441 
Q 881 4594 1212 4672 
Q 1544 4750 1819 4750 
Q 2544 4750 2975 4387 
Q 3406 4025 3406 3419 
Q 3406 3131 3298 2873 
Q 3191 2616 2906 2266 
Q 2828 2175 2409 1742 
Q 1991 1309 1228 531 
z
" transform="scale(0.015625)"/>
       </defs>
       <use xlink:href="#DejaVuSans-32"/>
       <use xlink:href="#DejaVuSans-30" x="63.623047"/>
       <use xlink:href="#DejaVuSans-30" x="127.246094"/>
      </g>
     </g>
    </g>
    <g id="xtick_8">
     <g id="line2d_8">
      <g>
       <use xlink:href="#me50ecd2463" x="325.738595" y="307.584" style="stroke: #000000; stroke-width: 0.8"/>
      </g>
     </g>
     <g id="text_8">
      <!-- 233 -->
      <g transform="translate(316.194845 322.182437) scale(0.1 -0.1)">
       <use xlink:href="#DejaVuSans-32"/>
       <use xlink:href="#DejaVuSans-33" x="63.623047"/>
       <use xlink:href="#DejaVuSans-33" x="127.246094"/>
      </g>
     </g>
    </g>
    <g id="xtick_9">
     <g id="line2d_9">
      <g>
       <use xlink:href="#me50ecd2463" x="361.570033" y="307.584" style="stroke: #000000; stroke-width: 0.8"/>
      </g>
     </g>
     <g id="text_9">
      <!-- 266 -->
      <g transform="translate(352.026283 322.182437) scale(0.1 -0.1)">
       <use xlink:href="#DejaVuSans-32"/>
       <use xlink:href="#DejaVuSans-36" x="63.623047"/>
       <use xlink:href="#DejaVuSans-36" x="127.246094"/>
      </g>
     </g>
    </g>
    <g id="xtick_10">
     <g id="line2d_10">
      <g>
       <use xlink:href="#me50ecd2463" x="398.487273" y="307.584" style="stroke: #000000; stroke-width: 0.8"/>
      </g>
     </g>
     <g id="text_10">
      <!-- 300 -->
      <g transform="translate(388.943523 322.182437) scale(0.1 -0.1)">
       <use xlink:href="#DejaVuSans-33"/>
       <use xlink:href="#DejaVuSans-30" x="63.623047"/>
       <use xlink:href="#DejaVuSans-30" x="127.246094"/>
      </g>
     </g>
    </g>
    <g id="text_11">
     <!-- Epochs -->
     <g transform="translate(218.244375 335.860562) scale(0.1 -0.1)">
      <defs>
       <path id="DejaVuSans-45" d="M 628 4666 
L 3578 4666 
L 3578 4134 
L 1259 4134 
L 1259 2753 
L 3481 2753 
L 3481 2222 
L 1259 2222 
L 1259 531 
L 3634 531 
L 3634 0 
L 628 0 
L 628 4666 
z
" transform="scale(0.015625)"/>
       <path id="DejaVuSans-70" d="M 1159 525 
L 1159 -1331 
L 581 -1331 
L 581 3500 
L 1159 3500 
L 1159 2969 
Q 1341 3281 1617 3432 
Q 1894 3584 2278 3584 
Q 2916 3584 3314 3078 
Q 3713 2572 3713 1747 
Q 3713 922 3314 415 
Q 2916 -91 2278 -91 
Q 1894 -91 1617 61 
Q 1341 213 1159 525 
z
M 3116 1747 
Q 3116 2381 2855 2742 
Q 2594 3103 2138 3103 
Q 1681 3103 1420 2742 
Q 1159 2381 1159 1747 
Q 1159 1113 1420 752 
Q 1681 391 2138 391 
Q 2594 391 2855 752 
Q 3116 1113 3116 1747 
z
" transform="scale(0.015625)"/>
       <path id="DejaVuSans-6f" d="M 1959 3097 
Q 1497 3097 1228 2736 
Q 959 2375 959 1747 
Q 959 1119 1226 758 
Q 1494 397 1959 397 
Q 2419 397 2687 759 
Q 2956 1122 2956 1747 
Q 2956 2369 2687 2733 
Q 2419 3097 1959 3097 
z
M 1959 3584 
Q 2709 3584 3137 3096 
Q 3566 2609 3566 1747 
Q 3566 888 3137 398 
Q 2709 -91 1959 -91 
Q 1206 -91 779 398 
Q 353 888 353 1747 
Q 353 2609 779 3096 
Q 1206 3584 1959 3584 
z
" transform="scale(0.015625)"/>
       <path id="DejaVuSans-63" d="M 3122 3366 
L 3122 2828 
Q 2878 2963 2633 3030 
Q 2388 3097 2138 3097 
Q 1578 3097 1268 2742 
Q 959 2388 959 1747 
Q 959 1106 1268 751 
Q 1578 397 2138 397 
Q 2388 397 2633 464 
Q 2878 531 3122 666 
L 3122 134 
Q 2881 22 2623 -34 
Q 2366 -91 2075 -91 
Q 1284 -91 818 406 
Q 353 903 353 1747 
Q 353 2603 823 3093 
Q 1294 3584 2113 3584 
Q 2378 3584 2631 3529 
Q 2884 3475 3122 3366 
z
" transform="scale(0.015625)"/>
       <path id="DejaVuSans-68" d="M 3513 2113 
L 3513 0 
L 2938 0 
L 2938 2094 
Q 2938 2591 2744 2837 
Q 2550 3084 2163 3084 
Q 1697 3084 1428 2787 
Q 1159 2491 1159 1978 
L 1159 0 
L 581 0 
L 581 4863 
L 1159 4863 
L 1159 2956 
Q 1366 3272 1645 3428 
Q 1925 3584 2291 3584 
Q 2894 3584 3203 3211 
Q 3513 2838 3513 2113 
z
" transform="scale(0.015625)"/>
       <path id="DejaVuSans-73" d="M 2834 3397 
L 2834 2853 
Q 2591 2978 2328 3040 
Q 2066 3103 1784 3103 
Q 1356 3103 1142 2972 
Q 928 2841 928 2578 
Q 928 2378 1081 2264 
Q 1234 2150 1697 2047 
L 1894 2003 
Q 2506 1872 2764 1633 
Q 3022 1394 3022 966 
Q 3022 478 2636 193 
Q 2250 -91 1575 -91 
Q 1294 -91 989 -36 
Q 684 19 347 128 
L 347 722 
Q 666 556 975 473 
Q 1284 391 1588 391 
Q 1994 391 2212 530 
Q 2431 669 2431 922 
Q 2431 1156 2273 1281 
Q 2116 1406 1581 1522 
L 1381 1569 
Q 847 1681 609 1914 
Q 372 2147 372 2553 
Q 372 3047 722 3315 
Q 1072 3584 1716 3584 
Q 2034 3584 2315 3537 
Q 2597 3491 2834 3397 
z
" transform="scale(0.015625)"/>
      </defs>
      <use xlink:href="#DejaVuSans-45"/>
      <use xlink:href="#DejaVuSans-70" x="63.183594"/>
      <use xlink:href="#DejaVuSans-6f" x="126.660156"/>
      <use xlink:href="#DejaVuSans-63" x="187.841797"/>
      <use xlink:href="#DejaVuSans-68" x="242.822266"/>
      <use xlink:href="#DejaVuSans-73" x="306.201172"/>
     </g>
    </g>
   </g>
   <g id="matplotlib.axis_2">
    <g id="ytick_1">
     <g id="line2d_11">
      <defs>
       <path id="m9f6644a452" d="M 0 0 
L -3.5 0 
" style="stroke: #000000; stroke-width: 0.8"/>
      </defs>
      <g>
       <use xlink:href="#m9f6644a452" x="57.6" y="284.794605" style="stroke: #000000; stroke-width: 0.8"/>
      </g>
     </g>
     <g id="text_12">
      <!-- 10 -->
      <g transform="translate(37.875 288.593824) scale(0.1 -0.1)">
       <use xlink:href="#DejaVuSans-31"/>
       <use xlink:href="#DejaVuSans-30" x="63.623047"/>
      </g>
     </g>
    </g>
    <g id="ytick_2">
     <g id="line2d_12">
      <g>
       <use xlink:href="#m9f6644a452" x="57.6" y="252.824663" style="stroke: #000000; stroke-width: 0.8"/>
      </g>
     </g>
     <g id="text_13">
      <!-- 20 -->
      <g transform="translate(37.875 256.623882) scale(0.1 -0.1)">
       <use xlink:href="#DejaVuSans-32"/>
       <use xlink:href="#DejaVuSans-30" x="63.623047"/>
      </g>
     </g>
    </g>
    <g id="ytick_3">
     <g id="line2d_13">
      <g>
       <use xlink:href="#m9f6644a452" x="57.6" y="220.85472" style="stroke: #000000; stroke-width: 0.8"/>
      </g>
     </g>
     <g id="text_14">
      <!-- 30 -->
      <g transform="translate(37.875 224.653939) scale(0.1 -0.1)">
       <use xlink:href="#DejaVuSans-33"/>
       <use xlink:href="#DejaVuSans-30" x="63.623047"/>
      </g>
     </g>
    </g>
    <g id="ytick_4">
     <g id="line2d_14">
      <g>
       <use xlink:href="#m9f6644a452" x="57.6" y="188.884778" style="stroke: #000000; stroke-width: 0.8"/>
      </g>
     </g>
     <g id="text_15">
      <!-- 40 -->
      <g transform="translate(37.875 192.683997) scale(0.1 -0.1)">
       <use xlink:href="#DejaVuSans-34"/>
       <use xlink:href="#DejaVuSans-30" x="63.623047"/>
      </g>
     </g>
    </g>
    <g id="ytick_5">
     <g id="line2d_15">
      <g>
       <use xlink:href="#m9f6644a452" x="57.6" y="156.914835" style="stroke: #000000; stroke-width: 0.8"/>
      </g>
     </g>
     <g id="text_16">
      <!-- 50 -->
      <g transform="translate(37.875 160.714054) scale(0.1 -0.1)">
       <defs>
        <path id="DejaVuSans-35" d="M 691 4666 
L 3169 4666 
L 3169 4134 
L 1269 4134 
L 1269 2991 
Q 1406 3038 1543 3061 
Q 1681 3084 1819 3084 
Q 2600 3084 3056 2656 
Q 3513 2228 3513 1497 
Q 3513 744 3044 326 
Q 2575 -91 1722 -91 
Q 1428 -91 1123 -41 
Q 819 9 494 109 
L 494 744 
Q 775 591 1075 516 
Q 1375 441 1709 441 
Q 2250 441 2565 725 
Q 2881 1009 2881 1497 
Q 2881 1984 2565 2268 
Q 2250 2553 1709 2553 
Q 1456 2553 1204 2497 
Q 953 2441 691 2322 
L 691 4666 
z
" transform="scale(0.015625)"/>
       </defs>
       <use xlink:href="#DejaVuSans-35"/>
       <use xlink:href="#DejaVuSans-30" x="63.623047"/>
      </g>
     </g>
    </g>
    <g id="ytick_6">
     <g id="line2d_16">
      <g>
       <use xlink:href="#m9f6644a452" x="57.6" y="124.944893" style="stroke: #000000; stroke-width: 0.8"/>
      </g>
     </g>
     <g id="text_17">
      <!-- 60 -->
      <g transform="translate(37.875 128.744112) scale(0.1 -0.1)">
       <use xlink:href="#DejaVuSans-36"/>
       <use xlink:href="#DejaVuSans-30" x="63.623047"/>
      </g>
     </g>
    </g>
    <g id="ytick_7">
     <g id="line2d_17">
      <g>
       <use xlink:href="#m9f6644a452" x="57.6" y="92.97495" style="stroke: #000000; stroke-width: 0.8"/>
      </g>
     </g>
     <g id="text_18">
      <!-- 70 -->
      <g transform="translate(37.875 96.774169) scale(0.1 -0.1)">
       <use xlink:href="#DejaVuSans-37"/>
       <use xlink:href="#DejaVuSans-30" x="63.623047"/>
      </g>
     </g>
    </g>
    <g id="ytick_8">
     <g id="line2d_18">
      <g>
       <use xlink:href="#m9f6644a452" x="57.6" y="61.005008" style="stroke: #000000; stroke-width: 0.8"/>
      </g>
     </g>
     <g id="text_19">
      <!-- 80 -->
      <g transform="translate(37.875 64.804227) scale(0.1 -0.1)">
       <defs>
        <path id="DejaVuSans-38" d="M 2034 2216 
Q 1584 2216 1326 1975 
Q 1069 1734 1069 1313 
Q 1069 891 1326 650 
Q 1584 409 2034 409 
Q 2484 409 2743 651 
Q 3003 894 3003 1313 
Q 3003 1734 2745 1975 
Q 2488 2216 2034 2216 
z
M 1403 2484 
Q 997 2584 770 2862 
Q 544 3141 544 3541 
Q 544 4100 942 4425 
Q 1341 4750 2034 4750 
Q 2731 4750 3128 4425 
Q 3525 4100 3525 3541 
Q 3525 3141 3298 2862 
Q 3072 2584 2669 2484 
Q 3125 2378 3379 2068 
Q 3634 1759 3634 1313 
Q 3634 634 3220 271 
Q 2806 -91 2034 -91 
Q 1263 -91 848 271 
Q 434 634 434 1313 
Q 434 1759 690 2068 
Q 947 2378 1403 2484 
z
M 1172 3481 
Q 1172 3119 1398 2916 
Q 1625 2713 2034 2713 
Q 2441 2713 2670 2916 
Q 2900 3119 2900 3481 
Q 2900 3844 2670 4047 
Q 2441 4250 2034 4250 
Q 1625 4250 1398 4047 
Q 1172 3844 1172 3481 
z
" transform="scale(0.015625)"/>
       </defs>
       <use xlink:href="#DejaVuSans-38"/>
       <use xlink:href="#DejaVuSans-30" x="63.623047"/>
      </g>
     </g>
    </g>
    <g id="text_20">
     <!-- Accuracy -->
     <g transform="translate(31.795312 197.356125) rotate(-90) scale(0.1 -0.1)">
      <defs>
       <path id="DejaVuSans-41" d="M 2188 4044 
L 1331 1722 
L 3047 1722 
L 2188 4044 
z
M 1831 4666 
L 2547 4666 
L 4325 0 
L 3669 0 
L 3244 1197 
L 1141 1197 
L 716 0 
L 50 0 
L 1831 4666 
z
" transform="scale(0.015625)"/>
       <path id="DejaVuSans-75" d="M 544 1381 
L 544 3500 
L 1119 3500 
L 1119 1403 
Q 1119 906 1312 657 
Q 1506 409 1894 409 
Q 2359 409 2629 706 
Q 2900 1003 2900 1516 
L 2900 3500 
L 3475 3500 
L 3475 0 
L 2900 0 
L 2900 538 
Q 2691 219 2414 64 
Q 2138 -91 1772 -91 
Q 1169 -91 856 284 
Q 544 659 544 1381 
z
M 1991 3584 
L 1991 3584 
z
" transform="scale(0.015625)"/>
       <path id="DejaVuSans-72" d="M 2631 2963 
Q 2534 3019 2420 3045 
Q 2306 3072 2169 3072 
Q 1681 3072 1420 2755 
Q 1159 2438 1159 1844 
L 1159 0 
L 581 0 
L 581 3500 
L 1159 3500 
L 1159 2956 
Q 1341 3275 1631 3429 
Q 1922 3584 2338 3584 
Q 2397 3584 2469 3576 
Q 2541 3569 2628 3553 
L 2631 2963 
z
" transform="scale(0.015625)"/>
       <path id="DejaVuSans-61" d="M 2194 1759 
Q 1497 1759 1228 1600 
Q 959 1441 959 1056 
Q 959 750 1161 570 
Q 1363 391 1709 391 
Q 2188 391 2477 730 
Q 2766 1069 2766 1631 
L 2766 1759 
L 2194 1759 
z
M 3341 1997 
L 3341 0 
L 2766 0 
L 2766 531 
Q 2569 213 2275 61 
Q 1981 -91 1556 -91 
Q 1019 -91 701 211 
Q 384 513 384 1019 
Q 384 1609 779 1909 
Q 1175 2209 1959 2209 
L 2766 2209 
L 2766 2266 
Q 2766 2663 2505 2880 
Q 2244 3097 1772 3097 
Q 1472 3097 1187 3025 
Q 903 2953 641 2809 
L 641 3341 
Q 956 3463 1253 3523 
Q 1550 3584 1831 3584 
Q 2591 3584 2966 3190 
Q 3341 2797 3341 1997 
z
" transform="scale(0.015625)"/>
       <path id="DejaVuSans-79" d="M 2059 -325 
Q 1816 -950 1584 -1140 
Q 1353 -1331 966 -1331 
L 506 -1331 
L 506 -850 
L 844 -850 
Q 1081 -850 1212 -737 
Q 1344 -625 1503 -206 
L 1606 56 
L 191 3500 
L 800 3500 
L 1894 763 
L 2988 3500 
L 3597 3500 
L 2059 -325 
z
" transform="scale(0.015625)"/>
      </defs>
      <use xlink:href="#DejaVuSans-41"/>
      <use xlink:href="#DejaVuSans-63" x="66.658203"/>
      <use xlink:href="#DejaVuSans-63" x="121.638672"/>
      <use xlink:href="#DejaVuSans-75" x="176.619141"/>
      <use xlink:href="#DejaVuSans-72" x="239.998047"/>
      <use xlink:href="#DejaVuSans-61" x="281.111328"/>
      <use xlink:href="#DejaVuSans-63" x="342.390625"/>
      <use xlink:href="#DejaVuSans-79" x="397.371094"/>
     </g>
    </g>
   </g>
   <g id="line2d_19">
    <path d="M 73.832727 291.324466 
L 74.918528 254.726875 
L 76.00433 231.952287 
L 77.090131 215.835439 
L 78.175932 201.492924 
L 79.261733 190.347403 
L 80.347534 180.516645 
L 82.519137 165.70657 
L 83.604938 159.280611 
L 84.690739 154.393206 
L 86.862341 143.043877 
L 89.033943 135.470996 
L 90.119745 130.943253 
L 91.205546 128.733331 
L 92.291347 125.732153 
L 93.377148 124.233562 
L 94.462949 123.050674 
L 95.54875 154.161424 
L 96.634552 152.958555 
L 97.720353 150.237114 
L 98.806154 145.549521 
L 99.891955 143.139786 
L 100.977756 141.537293 
L 102.063557 138.20043 
L 103.149358 135.494974 
L 104.23516 133.512837 
L 105.320961 130.963235 
L 106.406762 128.709354 
L 108.578364 124.721103 
L 109.664165 122.435252 
L 110.749967 120.908688 
L 111.835768 118.135295 
L 114.00737 114.874361 
L 115.093171 112.516578 
L 116.178972 110.494479 
L 117.264773 108.03679 
L 118.350575 106.498236 
L 119.436376 103.984599 
L 120.522177 102.833681 
L 122.693779 99.129164 
L 123.77958 96.899261 
L 124.865382 96.551588 
L 125.951183 93.82615 
L 127.036984 92.191687 
L 128.122785 91.172645 
L 129.208586 88.914768 
L 130.294387 88.363286 
L 131.380189 86.78477 
L 132.46599 86.257266 
L 134.637592 84.375036 
L 135.723393 83.887494 
L 136.809194 83.807569 
L 137.894995 83.320028 
L 138.980797 117.483908 
L 140.066598 119.777751 
L 141.152399 118.606852 
L 142.2382 118.878596 
L 145.495604 115.393873 
L 146.581405 114.634586 
L 147.667206 112.868247 
L 148.753007 113.499653 
L 149.838808 112.160912 
L 150.924609 110.466505 
L 152.01041 109.939001 
L 153.096212 108.256583 
L 154.182013 109.143749 
L 155.267814 108.272568 
L 156.353615 106.702044 
L 157.439416 106.530206 
L 158.525217 104.220378 
L 159.611019 103.820753 
L 160.69682 104.060528 
L 161.782621 102.082388 
L 162.868422 102.2822 
L 163.954223 100.839556 
L 165.040024 99.992353 
L 166.125825 99.664661 
L 167.211627 99.037251 
L 168.297428 97.542656 
L 169.383229 97.242938 
L 172.640632 95.132922 
L 173.726434 93.042887 
L 174.812235 93.706263 
L 175.898036 91.780074 
L 176.983837 91.844014 
L 179.155439 89.981765 
L 180.24124 89.370339 
L 181.327042 88.559102 
L 182.412843 86.744808 
L 183.498644 86.489048 
L 184.584445 84.315092 
L 185.670246 84.886555 
L 186.756047 84.11528 
L 188.92765 81.150068 
L 190.013451 81.166053 
L 191.099252 80.162996 
L 192.185053 79.335774 
L 193.270854 77.993036 
L 194.356656 77.969059 
L 195.442457 76.582362 
L 196.528258 75.831069 
L 197.614059 75.499381 
L 198.69986 74.396418 
L 200.871462 71.131487 
L 201.957264 70.899705 
L 203.043065 70.436141 
L 204.128866 69.556967 
L 205.214667 68.877606 
L 206.300468 67.562842 
L 207.386269 67.271117 
L 208.472071 66.252075 
L 209.557872 65.600687 
L 210.643673 65.360913 
L 211.729474 63.978213 
L 212.815275 64.078119 
L 213.901076 63.598569 
L 214.986877 63.370784 
L 216.072679 62.45964 
L 217.15848 61.888178 
L 218.244281 61.536508 
L 219.330082 61.772286 
L 221.501684 61.616433 
L 222.587486 60.837166 
L 223.673287 61.320711 
L 224.759088 61.420617 
L 225.844889 101.902557 
L 226.93069 105.127525 
L 228.016491 105.77092 
L 229.102292 103.976607 
L 230.188094 103.229309 
L 231.273895 102.917603 
L 232.359696 102.765745 
L 233.445497 102.142331 
L 234.531298 102.062407 
L 235.617099 100.855541 
L 236.702901 101.251169 
L 237.788702 100.39997 
L 238.874503 100.252109 
L 239.960304 99.460852 
L 242.131906 99.360946 
L 243.217708 98.485769 
L 244.303509 98.118115 
L 245.38931 98.541717 
L 246.475111 97.382806 
L 247.560912 96.791362 
L 248.646713 97.035133 
L 249.732514 95.548531 
L 250.818316 95.552527 
L 251.904117 96.291832 
L 252.989918 96.09202 
L 254.075719 94.42159 
L 255.16152 94.909132 
L 256.247321 94.657369 
L 257.333123 93.830146 
L 258.418924 93.586376 
L 259.504725 93.646319 
L 260.590526 93.418533 
L 261.676327 93.594368 
L 262.762128 92.063807 
L 263.847929 93.282661 
L 264.933731 91.891969 
L 266.019532 91.820036 
L 267.105333 92.143732 
L 268.191134 91.768085 
L 269.276935 90.952852 
L 270.362736 90.968836 
L 271.448538 90.33743 
L 272.534339 90.017731 
L 273.62014 89.27443 
L 274.705941 88.670997 
L 275.791742 88.387264 
L 276.877543 88.822854 
L 277.963344 88.611053 
L 279.049146 86.860699 
L 280.134947 87.991636 
L 281.220748 86.684864 
L 282.306549 87.348241 
L 283.39235 85.885616 
L 284.478151 86.652894 
L 285.563953 85.525954 
L 286.649754 86.65689 
L 287.735555 85.805691 
L 288.821356 85.517961 
L 289.907157 85.006442 
L 290.992958 83.731641 
L 292.07876 84.075318 
L 293.164561 84.059333 
L 295.336163 82.816501 
L 296.421964 82.400892 
L 297.507765 82.784531 
L 298.593566 81.909354 
L 299.679368 82.468828 
L 300.765169 81.118098 
L 301.85097 80.734459 
L 302.936771 80.578605 
L 304.022572 79.455661 
L 305.108373 80.027124 
L 306.194175 78.152886 
L 307.279976 78.932153 
L 308.365777 78.168871 
L 309.451578 77.697314 
L 310.537379 77.617389 
L 311.62318 76.993975 
L 312.708981 77.097878 
L 313.794783 76.366565 
L 314.880584 76.354577 
L 315.966385 75.379493 
L 317.052186 74.740094 
L 318.137987 75.055798 
L 319.223788 74.136662 
L 320.30959 73.976812 
L 321.395391 73.597169 
L 322.481192 72.82989 
L 323.566993 72.346345 
L 324.652794 71.207416 
L 325.738595 71.76689 
L 326.824396 70.951656 
L 327.910198 70.344227 
L 328.995999 69.213291 
L 330.0818 69.896648 
L 331.167601 68.885599 
L 332.253402 67.606801 
L 333.339203 68.446012 
L 334.425005 67.766651 
L 335.510806 67.858564 
L 336.596607 65.64065 
L 337.682408 66.983387 
L 338.768209 65.420856 
L 339.85401 64.933315 
L 340.939811 65.017236 
L 342.025613 64.913333 
L 343.111414 63.754423 
L 344.197215 63.386769 
L 345.283016 63.350802 
L 346.368817 62.263824 
L 347.454618 61.976095 
L 348.54042 60.893113 
L 349.626221 61.536508 
L 350.712022 60.645346 
L 351.797823 59.957992 
L 352.883624 59.118781 
L 353.969425 59.262646 
L 355.055227 58.687187 
L 356.141028 59.390526 
L 357.226829 56.872893 
L 358.31263 57.28051 
L 359.398431 56.469272 
L 360.484232 56.80096 
L 361.570033 55.57811 
L 364.827437 54.13147 
L 365.913238 53.568 
L 366.999039 54.015579 
L 368.08484 54.599031 
L 369.170642 55.490193 
L 370.256443 57.012761 
L 371.342244 57.979852 
L 372.428045 59.346567 
L 373.513846 59.782158 
L 374.599647 60.51347 
L 375.685448 60.665327 
L 376.77125 60.089868 
L 377.857051 61.001012 
L 378.942852 60.505478 
L 380.028653 60.953057 
L 381.114454 60.525459 
L 382.200255 60.905102 
L 383.286057 60.969042 
L 384.371858 60.633357 
L 385.457659 60.44953 
L 386.54346 61.032982 
L 387.629261 61.252775 
L 388.715062 61.068948 
L 389.800863 60.585402 
L 390.886665 61.116903 
L 391.972466 62.103975 
L 393.058267 60.893113 
L 394.144068 60.873132 
L 395.229869 61.648403 
L 396.31567 60.729267 
L 398.487273 60.465515 
L 398.487273 60.465515 
" clip-path="url(#p854c10c609)" style="fill: none; stroke: #1f77b4; stroke-width: 1.5; stroke-linecap: square"/>
   </g>
   <g id="line2d_20">
    <path d="M 73.832727 278.032963 
L 74.918528 268.649784 
L 76.00433 246.06302 
L 77.090131 234.74566 
L 78.175932 217.481891 
L 79.261733 218.50493 
L 80.347534 200.713657 
L 81.433335 201.209191 
L 82.519137 186.822717 
L 83.604938 188.373259 
L 84.690739 183.625722 
L 85.77654 176.096801 
L 86.862341 173.858905 
L 87.948142 168.743714 
L 89.033943 159.85607 
L 90.119745 159.85607 
L 91.205546 155.252398 
L 92.291347 153.158367 
L 93.377148 151.81563 
L 94.462949 151.959494 
L 95.54875 185.559904 
L 96.634552 184.536866 
L 97.720353 183.082233 
L 98.806154 176.112786 
L 99.891955 177.375599 
L 100.977756 171.333279 
L 102.063557 173.363371 
L 103.149358 170.214331 
L 104.23516 169.223263 
L 105.320961 165.25899 
L 106.406762 158.593257 
L 107.492563 160.783198 
L 108.578364 152.391089 
L 109.664165 155.236413 
L 110.749967 151.735705 
L 111.835768 152.423058 
L 112.921569 150.313042 
L 114.00737 150.185163 
L 115.093171 149.753568 
L 116.178972 150.121223 
L 117.264773 141.809038 
L 118.350575 140.65812 
L 119.436376 137.045516 
L 120.522177 134.99944 
L 121.607978 130.475693 
L 122.693779 129.516595 
L 123.77958 128.125902 
L 124.865382 125.456412 
L 125.951183 125.632247 
L 127.036984 124.880953 
L 128.122785 121.620019 
L 129.208586 120.72486 
L 130.294387 118.039385 
L 131.380189 117.096272 
L 132.46599 117.735671 
L 133.551791 116.169144 
L 134.637592 115.529745 
L 135.723393 116.680663 
L 136.809194 116.217099 
L 137.894995 116.744603 
L 138.980797 160.223724 
L 141.152399 150.952441 
L 142.2382 149.401899 
L 143.324001 153.733826 
L 144.409802 144.574438 
L 145.495604 146.22089 
L 146.581405 163.484659 
L 147.667206 145.357701 
L 148.753007 156.051647 
L 149.838808 144.110873 
L 150.924609 150.712667 
L 152.01041 146.204905 
L 153.096212 143.343595 
L 154.182013 144.222768 
L 155.267814 143.35958 
L 156.353615 147.483702 
L 157.439416 134.791635 
L 158.525217 133.944432 
L 159.611019 137.7009 
L 160.69682 137.029531 
L 161.782621 136.821727 
L 162.868422 139.203487 
L 163.954223 135.670809 
L 165.040024 141.457368 
L 166.125825 140.194555 
L 167.211627 139.571142 
L 168.297428 132.26601 
L 169.383229 132.29798 
L 170.46903 134.631785 
L 171.554831 126.303615 
L 172.640632 139.571142 
L 173.726434 124.337464 
L 174.812235 128.381662 
L 175.898036 124.513299 
L 176.983837 126.399525 
L 178.069638 127.822188 
L 179.155439 124.513299 
L 180.24124 120.053492 
L 181.327042 122.355328 
L 182.412843 119.973567 
L 183.498644 120.964635 
L 184.584445 114.890346 
L 185.670246 112.668435 
L 186.756047 112.52457 
L 187.841849 114.059127 
L 188.92765 113.211924 
L 190.013451 117.575821 
L 191.099252 118.199235 
L 192.185053 112.4926 
L 193.270854 109.343561 
L 194.356656 113.227909 
L 195.442457 108.784087 
L 196.528258 108.352493 
L 197.614059 106.817935 
L 198.69986 106.578161 
L 199.785661 104.13246 
L 200.871462 106.338386 
L 201.957264 102.965557 
L 203.043065 101.846609 
L 204.128866 102.853663 
L 205.214667 100.951451 
L 206.300468 101.974489 
L 208.472071 99.624698 
L 209.557872 100.727661 
L 211.729474 97.786427 
L 212.815275 97.978246 
L 213.901076 96.667479 
L 214.986877 97.866352 
L 216.072679 96.731419 
L 217.15848 97.290893 
L 218.244281 96.763389 
L 219.330082 97.019148 
L 220.415883 96.539599 
L 221.501684 96.2199 
L 222.587486 95.084967 
L 223.673287 95.86823 
L 224.759088 95.99611 
L 225.844889 161.726312 
L 226.93069 154.069511 
L 228.016491 149.337959 
L 229.102292 136.869681 
L 230.188094 134.631785 
L 231.273895 142.624271 
L 232.359696 149.561749 
L 233.445497 145.277776 
L 234.531298 135.143305 
L 235.617099 139.635081 
L 236.702901 149.066215 
L 237.788702 142.320557 
L 238.874503 139.619097 
L 239.960304 141.505323 
L 241.046105 137.7009 
L 242.131906 132.026235 
L 243.217708 132.345935 
L 244.303509 143.903069 
L 245.38931 138.436209 
L 246.475111 138.612043 
L 247.560912 135.734748 
L 248.646713 128.509541 
L 249.732514 134.96747 
L 250.818316 124.896938 
L 251.904117 135.670809 
L 252.989918 131.083122 
L 254.075719 134.280116 
L 255.16152 139.395307 
L 256.247321 139.011668 
L 257.333123 131.131077 
L 258.418924 125.919976 
L 259.504725 131.386836 
L 260.590526 125.488382 
L 261.676327 136.629907 
L 262.762128 128.909166 
L 263.847929 130.299858 
L 264.933731 128.765301 
L 266.019532 134.407996 
L 267.105333 138.228404 
L 268.191134 139.379322 
L 269.276935 125.983916 
L 270.362736 134.663755 
L 271.448538 129.43667 
L 272.534339 127.022939 
L 273.62014 123.84193 
L 274.705941 123.122606 
L 275.791742 123.394351 
L 276.877543 126.559375 
L 277.963344 130.108039 
L 279.049146 123.074651 
L 280.134947 128.605451 
L 281.220748 126.847104 
L 282.306549 121.060545 
L 283.39235 121.348274 
L 284.478151 124.081704 
L 285.563953 120.565011 
L 286.649754 124.081704 
L 287.735555 128.989091 
L 288.821356 118.662799 
L 289.907157 122.547147 
L 290.992958 123.71405 
L 293.164561 127.646353 
L 294.250362 117.240137 
L 295.336163 120.75683 
L 296.421964 116.408918 
L 297.507765 121.779869 
L 298.593566 117.687716 
L 299.679368 120.85274 
L 300.765169 117.160212 
L 301.85097 117.304077 
L 302.936771 115.242015 
L 304.022572 115.849444 
L 305.108373 115.785504 
L 306.194175 122.291388 
L 307.279976 113.531623 
L 308.365777 116.856497 
L 309.451578 119.270228 
L 310.537379 113.163969 
L 311.62318 113.211924 
L 312.708981 112.90821 
L 313.794783 116.265054 
L 314.880584 111.837216 
L 315.966385 113.659503 
L 318.137987 109.871065 
L 319.223788 105.363303 
L 320.30959 110.062885 
L 321.395391 113.131999 
L 322.481192 108.704162 
L 323.566993 103.541016 
L 324.652794 108.816057 
L 325.738595 110.606374 
L 326.824396 113.387759 
L 327.910198 101.574865 
L 328.995999 105.603078 
L 330.0818 107.824989 
L 331.167601 107.856959 
L 332.253402 100.791601 
L 333.339203 101.71873 
L 334.425005 101.638805 
L 335.510806 100.391977 
L 336.596607 99.960383 
L 337.682408 104.004581 
L 338.768209 103.205332 
L 339.85401 101.766685 
L 340.939811 99.912428 
L 342.025613 100.535842 
L 343.111414 103.365182 
L 344.197215 100.216142 
L 345.283016 101.446985 
L 346.368817 101.031376 
L 347.454618 97.594607 
L 348.54042 99.928413 
L 349.626221 98.841435 
L 350.712022 94.605417 
L 351.797823 98.265976 
L 352.883624 95.516561 
L 353.969425 96.12399 
L 355.055227 96.235885 
L 356.141028 96.587554 
L 357.226829 93.278665 
L 358.31263 95.484591 
L 359.398431 92.735176 
L 360.484232 94.125868 
L 361.570033 95.80429 
L 362.655835 94.461553 
L 363.741636 91.664183 
L 364.827437 91.903957 
L 366.999039 91.296528 
L 368.08484 93.32662 
L 369.170642 95.596486 
L 370.256443 95.484591 
L 371.342244 99.528789 
L 372.428045 97.450742 
L 373.513846 101.926534 
L 374.599647 98.681585 
L 375.685448 98.425826 
L 376.77125 96.171945 
L 377.857051 98.617645 
L 378.942852 99.640683 
L 380.028653 98.585675 
L 381.114454 103.764806 
L 382.200255 100.312052 
L 383.286057 98.297946 
L 385.457659 97.210968 
L 386.54346 104.596024 
L 387.629261 100.919481 
L 388.715062 98.553705 
L 390.886665 103.333212 
L 391.972466 99.400909 
L 393.058267 97.562637 
L 394.144068 100.455917 
L 395.229869 99.816518 
L 396.31567 102.789723 
L 397.401472 99.960383 
L 398.487273 100.583797 
L 398.487273 100.583797 
" clip-path="url(#p854c10c609)" style="fill: none; stroke: #ff7f0e; stroke-width: 1.5; stroke-linecap: square"/>
   </g>
   <g id="line2d_21">
    <path d="M 73.832727 295.488 
L 74.918528 291.409076 
L 76.00433 284.574123 
L 77.090131 282.479541 
L 78.175932 274.211452 
L 79.261733 273.329523 
L 80.347534 266.163846 
L 81.433335 267.927705 
L 82.519137 261.533716 
L 83.604938 261.423475 
L 84.690739 259.659616 
L 85.77654 256.572863 
L 86.862341 252.163216 
L 87.948142 254.478281 
L 89.033943 246.98188 
L 90.119745 249.076463 
L 91.205546 245.658986 
L 92.291347 243.784886 
L 93.377148 244.225851 
L 94.462949 244.005368 
L 95.54875 258.336722 
L 96.634552 261.754199 
L 97.720353 256.352381 
L 98.806154 251.832492 
L 99.891955 258.446963 
L 100.977756 253.596351 
L 102.063557 256.462622 
L 103.149358 249.627669 
L 104.23516 254.147557 
L 105.320961 252.714422 
L 106.406762 243.123439 
L 107.492563 248.415016 
L 108.578364 245.769227 
L 109.664165 248.745739 
L 110.749967 244.556574 
L 111.835768 246.430674 
L 112.921569 243.784886 
L 114.00737 244.225851 
L 115.093171 245.658986 
L 116.178972 242.461992 
L 117.264773 237.280656 
L 118.350575 238.052345 
L 119.436376 235.847521 
L 120.522177 235.296315 
L 121.607978 231.327633 
L 122.693779 232.98125 
L 123.77958 233.422215 
L 124.865382 227.469191 
L 125.951183 229.453533 
L 127.036984 229.784256 
L 128.122785 228.130638 
L 129.208586 228.792085 
L 130.294387 226.697503 
L 131.380189 226.036056 
L 132.46599 224.933644 
L 133.551791 224.933644 
L 134.637592 224.602921 
L 135.723393 226.146297 
L 136.809194 224.382438 
L 137.894995 225.595091 
L 138.980797 252.714422 
L 140.066598 245.98971 
L 141.152399 244.336092 
L 142.2382 243.123439 
L 143.324001 245.438504 
L 144.409802 239.264998 
L 145.495604 242.131268 
L 146.581405 254.478281 
L 147.667206 240.477651 
L 148.753007 247.643327 
L 149.838808 241.910786 
L 150.924609 243.784886 
L 152.01041 238.052345 
L 153.096212 239.044515 
L 154.182013 242.572233 
L 155.267814 244.887298 
L 156.353615 242.351751 
L 157.439416 234.083662 
L 158.525217 232.430044 
L 159.611019 236.72945 
L 160.69682 237.831862 
L 161.782621 235.73728 
L 162.868422 237.060174 
L 163.954223 233.311974 
L 165.040024 238.272827 
L 166.125825 237.280656 
L 167.211627 238.934274 
L 168.297428 234.414386 
L 169.383229 238.603551 
L 170.46903 230.335462 
L 171.554831 231.327633 
L 172.640632 239.375239 
L 173.726434 225.374609 
L 174.812235 234.634868 
L 175.898036 231.10715 
L 176.983837 234.083662 
L 178.069638 232.319803 
L 179.155439 228.681844 
L 180.24124 228.020397 
L 181.327042 228.681844 
L 182.412843 226.366779 
L 183.498644 226.366779 
L 184.584445 221.626409 
L 185.670246 221.846891 
L 186.756047 221.516168 
L 187.841849 220.193273 
L 188.92765 222.618579 
L 190.013451 228.792085 
L 191.099252 225.264368 
L 192.185053 224.272197 
L 193.270854 219.752309 
L 194.356656 221.295685 
L 195.442457 221.846891 
L 196.528258 220.413756 
L 197.614059 220.634238 
L 198.69986 215.122179 
L 199.785661 216.004108 
L 200.871462 218.098691 
L 203.043065 213.909526 
L 204.128866 216.004108 
L 205.214667 214.130008 
L 206.300468 214.460732 
L 208.472071 212.035426 
L 209.557872 214.24025 
L 210.643673 212.807114 
L 211.729474 211.814944 
L 212.815275 214.791455 
L 213.901076 211.153496 
L 214.986877 212.035426 
L 216.072679 209.169155 
L 218.244281 209.499879 
L 219.330082 209.720361 
L 221.501684 209.279396 
L 223.673287 210.492049 
L 224.759088 210.271567 
L 225.844889 251.722251 
L 226.93069 247.422845 
L 228.016491 245.10778 
L 229.102292 231.658356 
L 230.188094 231.878839 
L 231.273895 241.469821 
L 232.359696 244.11561 
L 233.445497 243.784886 
L 234.531298 233.86318 
L 235.617099 233.642697 
L 236.702901 237.942103 
L 237.788702 243.564404 
L 238.874503 237.61138 
L 239.960304 244.005368 
L 241.046105 241.800545 
L 242.131906 233.642697 
L 243.217708 231.878839 
L 244.303509 241.249339 
L 245.38931 236.288486 
L 246.475111 240.808374 
L 247.560912 238.824033 
L 248.646713 231.10715 
L 249.732514 234.304145 
L 250.818316 229.453533 
L 251.904117 235.516798 
L 252.989918 233.091492 
L 254.075719 238.052345 
L 255.16152 239.154756 
L 256.247321 238.713792 
L 257.333123 232.319803 
L 258.418924 231.768597 
L 259.504725 230.996909 
L 260.590526 227.248709 
L 261.676327 235.73728 
L 262.762128 226.036056 
L 263.847929 235.847521 
L 264.933731 235.73728 
L 266.019532 233.532456 
L 267.105333 234.745109 
L 268.191134 243.123439 
L 269.276935 229.23305 
L 270.362736 243.013198 
L 271.448538 232.540286 
L 272.534339 234.083662 
L 273.62014 223.500509 
L 274.705941 230.555944 
L 275.791742 225.705332 
L 276.877543 230.666186 
L 277.963344 233.422215 
L 279.049146 227.910156 
L 280.134947 232.430044 
L 281.220748 234.304145 
L 282.306549 225.374609 
L 283.39235 227.910156 
L 284.478151 229.012568 
L 285.563953 227.35895 
L 286.649754 226.917985 
L 287.735555 231.768597 
L 288.821356 224.823403 
L 289.907157 229.563774 
L 290.992958 226.807744 
L 292.07876 234.193903 
L 293.164561 228.792085 
L 294.250362 222.067373 
L 295.336163 222.949303 
L 297.507765 230.225221 
L 298.593566 227.248709 
L 299.679368 225.154126 
L 300.765169 230.225221 
L 301.85097 223.059544 
L 302.936771 224.161956 
L 304.022572 223.500509 
L 305.108373 221.516168 
L 306.194175 231.878839 
L 307.279976 219.642067 
L 308.365777 227.799915 
L 309.451578 229.012568 
L 310.537379 225.705332 
L 311.62318 218.539656 
L 312.708981 221.295685 
L 313.794783 225.264368 
L 314.880584 228.461362 
L 315.966385 223.500509 
L 317.052186 220.964962 
L 318.137987 221.846891 
L 319.223788 220.523997 
L 320.30959 220.413756 
L 321.395391 224.713162 
L 322.481192 220.413756 
L 323.566993 214.130008 
L 324.652794 219.311344 
L 325.738595 220.193273 
L 326.824396 221.516168 
L 327.910198 210.933014 
L 328.995999 219.642067 
L 330.0818 221.185444 
L 332.253402 212.917355 
L 333.339203 211.153496 
L 334.425005 214.901697 
L 335.510806 216.665556 
L 336.596607 215.452903 
L 337.682408 218.098691 
L 338.768209 215.342661 
L 339.85401 214.460732 
L 340.939811 213.35832 
L 342.025613 215.563144 
L 343.111414 215.783626 
L 344.197215 213.689044 
L 345.283016 212.807114 
L 346.368817 214.130008 
L 347.454618 208.176985 
L 348.54042 215.452903 
L 349.626221 214.130008 
L 350.712022 210.271567 
L 351.797823 215.452903 
L 352.883624 212.145667 
L 353.969425 213.689044 
L 355.055227 208.617949 
L 356.141028 215.452903 
L 357.226829 208.617949 
L 358.31263 211.373979 
L 359.398431 211.153496 
L 360.484232 211.153496 
L 361.570033 209.940843 
L 362.655835 211.043255 
L 363.741636 210.161326 
L 364.827437 206.523367 
L 365.913238 208.617949 
L 366.999039 205.86192 
L 368.08484 211.153496 
L 369.170642 211.263738 
L 370.256443 210.161326 
L 371.342244 215.011938 
L 372.428045 216.886038 
L 374.599647 215.122179 
L 375.685448 216.996279 
L 376.77125 210.712532 
L 378.942852 217.657726 
L 380.028653 210.933014 
L 381.114454 214.460732 
L 382.200255 211.594461 
L 383.286057 213.799285 
L 384.371858 214.130008 
L 385.457659 210.492049 
L 386.54346 219.201103 
L 387.629261 218.98062 
L 388.715062 215.011938 
L 389.800863 215.893867 
L 390.886665 216.445073 
L 391.972466 214.791455 
L 393.058267 213.799285 
L 394.144068 216.445073 
L 395.229869 218.208932 
L 396.31567 218.539656 
L 397.401472 212.476391 
L 398.487273 216.996279 
L 398.487273 216.996279 
" clip-path="url(#p854c10c609)" style="fill: none; stroke: #2ca02c; stroke-width: 1.5; stroke-linecap: square"/>
   </g>
   <g id="line2d_22">
    <path d="M 368.08484 93.886094 
L 369.170642 92.367521 
L 370.256443 99.081209 
L 371.342244 97.067103 
L 372.428045 106.674071 
L 373.513846 101.606835 
L 374.599647 104.340265 
L 375.685448 100.983421 
L 376.77125 107.729079 
L 377.857051 102.422068 
L 378.942852 100.503872 
L 380.028653 111.165848 
L 381.114454 103.812761 
L 382.200255 97.866352 
L 383.286057 107.569229 
L 384.371858 110.542434 
L 385.457659 105.267393 
L 386.54346 108.384463 
L 387.629261 107.105665 
L 388.715062 117.831581 
L 389.800863 109.039846 
L 391.972466 116.696648 
L 393.058267 125.935961 
L 394.144068 110.510464 
L 395.229869 113.931248 
L 396.31567 126.41551 
L 397.401472 117.575821 
L 398.487273 118.518934 
L 398.487273 118.518934 
" clip-path="url(#p854c10c609)" style="fill: none; stroke: #d62728; stroke-width: 1.5; stroke-linecap: square"/>
   </g>
   <g id="line2d_23">
    <path d="M 368.08484 208.397467 
L 369.170642 204.649267 
L 370.256443 214.24025 
L 371.342244 211.153496 
L 372.428045 222.067373 
L 373.513846 213.35832 
L 374.599647 218.649897 
L 375.685448 210.822773 
L 376.77125 223.280026 
L 377.857051 216.334832 
L 378.942852 212.035426 
L 380.028653 225.595091 
L 381.114454 217.216761 
L 382.200255 209.830602 
L 383.286057 216.555314 
L 384.371858 220.413756 
L 385.457659 214.791455 
L 386.54346 219.421585 
L 387.629261 215.783626 
L 388.715062 225.595091 
L 389.800863 219.86255 
L 390.886665 221.73665 
L 391.972466 227.35895 
L 393.058267 236.398727 
L 394.144068 220.634238 
L 395.229869 221.295685 
L 396.31567 231.768597 
L 397.401472 226.036056 
L 398.487273 225.925815 
L 398.487273 225.925815 
" clip-path="url(#p854c10c609)" style="fill: none; stroke: #9467bd; stroke-width: 1.5; stroke-linecap: square"/>
   </g>
   <g id="patch_3">
    <path d="M 57.6 307.584 
L 57.6 41.472 
" style="fill: none; stroke: #000000; stroke-width: 0.8; stroke-linejoin: miter; stroke-linecap: square"/>
   </g>
   <g id="patch_4">
    <path d="M 414.72 307.584 
L 414.72 41.472 
" style="fill: none; stroke: #000000; stroke-width: 0.8; stroke-linejoin: miter; stroke-linecap: square"/>
   </g>
   <g id="patch_5">
    <path d="M 57.6 307.584 
L 414.72 307.584 
" style="fill: none; stroke: #000000; stroke-width: 0.8; stroke-linejoin: miter; stroke-linecap: square"/>
   </g>
   <g id="patch_6">
    <path d="M 57.6 41.472 
L 414.72 41.472 
" style="fill: none; stroke: #000000; stroke-width: 0.8; stroke-linejoin: miter; stroke-linecap: square"/>
   </g>
   <g id="text_21">
    <!-- Learning Curves -->
    <g transform="translate(187.37625 35.472) scale(0.12 -0.12)">
     <defs>
      <path id="DejaVuSans-4c" d="M 628 4666 
L 1259 4666 
L 1259 531 
L 3531 531 
L 3531 0 
L 628 0 
L 628 4666 
z
" transform="scale(0.015625)"/>
      <path id="DejaVuSans-65" d="M 3597 1894 
L 3597 1613 
L 953 1613 
Q 991 1019 1311 708 
Q 1631 397 2203 397 
Q 2534 397 2845 478 
Q 3156 559 3463 722 
L 3463 178 
Q 3153 47 2828 -22 
Q 2503 -91 2169 -91 
Q 1331 -91 842 396 
Q 353 884 353 1716 
Q 353 2575 817 3079 
Q 1281 3584 2069 3584 
Q 2775 3584 3186 3129 
Q 3597 2675 3597 1894 
z
M 3022 2063 
Q 3016 2534 2758 2815 
Q 2500 3097 2075 3097 
Q 1594 3097 1305 2825 
Q 1016 2553 972 2059 
L 3022 2063 
z
" transform="scale(0.015625)"/>
      <path id="DejaVuSans-6e" d="M 3513 2113 
L 3513 0 
L 2938 0 
L 2938 2094 
Q 2938 2591 2744 2837 
Q 2550 3084 2163 3084 
Q 1697 3084 1428 2787 
Q 1159 2491 1159 1978 
L 1159 0 
L 581 0 
L 581 3500 
L 1159 3500 
L 1159 2956 
Q 1366 3272 1645 3428 
Q 1925 3584 2291 3584 
Q 2894 3584 3203 3211 
Q 3513 2838 3513 2113 
z
" transform="scale(0.015625)"/>
      <path id="DejaVuSans-69" d="M 603 3500 
L 1178 3500 
L 1178 0 
L 603 0 
L 603 3500 
z
M 603 4863 
L 1178 4863 
L 1178 4134 
L 603 4134 
L 603 4863 
z
" transform="scale(0.015625)"/>
      <path id="DejaVuSans-67" d="M 2906 1791 
Q 2906 2416 2648 2759 
Q 2391 3103 1925 3103 
Q 1463 3103 1205 2759 
Q 947 2416 947 1791 
Q 947 1169 1205 825 
Q 1463 481 1925 481 
Q 2391 481 2648 825 
Q 2906 1169 2906 1791 
z
M 3481 434 
Q 3481 -459 3084 -895 
Q 2688 -1331 1869 -1331 
Q 1566 -1331 1297 -1286 
Q 1028 -1241 775 -1147 
L 775 -588 
Q 1028 -725 1275 -790 
Q 1522 -856 1778 -856 
Q 2344 -856 2625 -561 
Q 2906 -266 2906 331 
L 2906 616 
Q 2728 306 2450 153 
Q 2172 0 1784 0 
Q 1141 0 747 490 
Q 353 981 353 1791 
Q 353 2603 747 3093 
Q 1141 3584 1784 3584 
Q 2172 3584 2450 3431 
Q 2728 3278 2906 2969 
L 2906 3500 
L 3481 3500 
L 3481 434 
z
" transform="scale(0.015625)"/>
      <path id="DejaVuSans-20" transform="scale(0.015625)"/>
      <path id="DejaVuSans-43" d="M 4122 4306 
L 4122 3641 
Q 3803 3938 3442 4084 
Q 3081 4231 2675 4231 
Q 1875 4231 1450 3742 
Q 1025 3253 1025 2328 
Q 1025 1406 1450 917 
Q 1875 428 2675 428 
Q 3081 428 3442 575 
Q 3803 722 4122 1019 
L 4122 359 
Q 3791 134 3420 21 
Q 3050 -91 2638 -91 
Q 1578 -91 968 557 
Q 359 1206 359 2328 
Q 359 3453 968 4101 
Q 1578 4750 2638 4750 
Q 3056 4750 3426 4639 
Q 3797 4528 4122 4306 
z
" transform="scale(0.015625)"/>
      <path id="DejaVuSans-76" d="M 191 3500 
L 800 3500 
L 1894 563 
L 2988 3500 
L 3597 3500 
L 2284 0 
L 1503 0 
L 191 3500 
z
" transform="scale(0.015625)"/>
     </defs>
     <use xlink:href="#DejaVuSans-4c"/>
     <use xlink:href="#DejaVuSans-65" x="53.962891"/>
     <use xlink:href="#DejaVuSans-61" x="115.486328"/>
     <use xlink:href="#DejaVuSans-72" x="176.765625"/>
     <use xlink:href="#DejaVuSans-6e" x="216.128906"/>
     <use xlink:href="#DejaVuSans-69" x="279.507812"/>
     <use xlink:href="#DejaVuSans-6e" x="307.291016"/>
     <use xlink:href="#DejaVuSans-67" x="370.669922"/>
     <use xlink:href="#DejaVuSans-20" x="434.146484"/>
     <use xlink:href="#DejaVuSans-43" x="465.933594"/>
     <use xlink:href="#DejaVuSans-75" x="535.757812"/>
     <use xlink:href="#DejaVuSans-72" x="599.136719"/>
     <use xlink:href="#DejaVuSans-76" x="640.25"/>
     <use xlink:href="#DejaVuSans-65" x="699.429688"/>
     <use xlink:href="#DejaVuSans-73" x="760.953125"/>
    </g>
   </g>
   <g id="legend_1">
    <g id="patch_7">
     <path d="M 139.394375 212.723313 
L 332.925625 212.723313 
Q 334.925625 212.723313 334.925625 210.723313 
L 334.925625 138.332688 
Q 334.925625 136.332688 332.925625 136.332688 
L 139.394375 136.332688 
Q 137.394375 136.332688 137.394375 138.332688 
L 137.394375 210.723313 
Q 137.394375 212.723313 139.394375 212.723313 
z
" style="fill: #ffffff; opacity: 0.8; stroke: #cccccc; stroke-linejoin: miter"/>
    </g>
    <g id="line2d_24">
     <path d="M 141.394375 144.431125 
L 151.394375 144.431125 
L 161.394375 144.431125 
" style="fill: none; stroke: #1f77b4; stroke-width: 1.5; stroke-linecap: square"/>
    </g>
    <g id="text_22">
     <!-- Train Accuracy -->
     <g transform="translate(169.394375 147.931125) scale(0.1 -0.1)">
      <defs>
       <path id="DejaVuSans-54" d="M -19 4666 
L 3928 4666 
L 3928 4134 
L 2272 4134 
L 2272 0 
L 1638 0 
L 1638 4134 
L -19 4134 
L -19 4666 
z
" transform="scale(0.015625)"/>
      </defs>
      <use xlink:href="#DejaVuSans-54"/>
      <use xlink:href="#DejaVuSans-72" x="46.333984"/>
      <use xlink:href="#DejaVuSans-61" x="87.447266"/>
      <use xlink:href="#DejaVuSans-69" x="148.726562"/>
      <use xlink:href="#DejaVuSans-6e" x="176.509766"/>
      <use xlink:href="#DejaVuSans-20" x="239.888672"/>
      <use xlink:href="#DejaVuSans-41" x="271.675781"/>
      <use xlink:href="#DejaVuSans-63" x="338.333984"/>
      <use xlink:href="#DejaVuSans-63" x="393.314453"/>
      <use xlink:href="#DejaVuSans-75" x="448.294922"/>
      <use xlink:href="#DejaVuSans-72" x="511.673828"/>
      <use xlink:href="#DejaVuSans-61" x="552.787109"/>
      <use xlink:href="#DejaVuSans-63" x="614.066406"/>
      <use xlink:href="#DejaVuSans-79" x="669.046875"/>
     </g>
    </g>
    <g id="line2d_25">
     <path d="M 141.394375 159.10925 
L 151.394375 159.10925 
L 161.394375 159.10925 
" style="fill: none; stroke: #ff7f0e; stroke-width: 1.5; stroke-linecap: square"/>
    </g>
    <g id="text_23">
     <!-- Validation Accuracy -->
     <g transform="translate(169.394375 162.60925) scale(0.1 -0.1)">
      <defs>
       <path id="DejaVuSans-56" d="M 1831 0 
L 50 4666 
L 709 4666 
L 2188 738 
L 3669 4666 
L 4325 4666 
L 2547 0 
L 1831 0 
z
" transform="scale(0.015625)"/>
       <path id="DejaVuSans-6c" d="M 603 4863 
L 1178 4863 
L 1178 0 
L 603 0 
L 603 4863 
z
" transform="scale(0.015625)"/>
       <path id="DejaVuSans-64" d="M 2906 2969 
L 2906 4863 
L 3481 4863 
L 3481 0 
L 2906 0 
L 2906 525 
Q 2725 213 2448 61 
Q 2172 -91 1784 -91 
Q 1150 -91 751 415 
Q 353 922 353 1747 
Q 353 2572 751 3078 
Q 1150 3584 1784 3584 
Q 2172 3584 2448 3432 
Q 2725 3281 2906 2969 
z
M 947 1747 
Q 947 1113 1208 752 
Q 1469 391 1925 391 
Q 2381 391 2643 752 
Q 2906 1113 2906 1747 
Q 2906 2381 2643 2742 
Q 2381 3103 1925 3103 
Q 1469 3103 1208 2742 
Q 947 2381 947 1747 
z
" transform="scale(0.015625)"/>
       <path id="DejaVuSans-74" d="M 1172 4494 
L 1172 3500 
L 2356 3500 
L 2356 3053 
L 1172 3053 
L 1172 1153 
Q 1172 725 1289 603 
Q 1406 481 1766 481 
L 2356 481 
L 2356 0 
L 1766 0 
Q 1100 0 847 248 
Q 594 497 594 1153 
L 594 3053 
L 172 3053 
L 172 3500 
L 594 3500 
L 594 4494 
L 1172 4494 
z
" transform="scale(0.015625)"/>
      </defs>
      <use xlink:href="#DejaVuSans-56"/>
      <use xlink:href="#DejaVuSans-61" x="60.658203"/>
      <use xlink:href="#DejaVuSans-6c" x="121.9375"/>
      <use xlink:href="#DejaVuSans-69" x="149.720703"/>
      <use xlink:href="#DejaVuSans-64" x="177.503906"/>
      <use xlink:href="#DejaVuSans-61" x="240.980469"/>
      <use xlink:href="#DejaVuSans-74" x="302.259766"/>
      <use xlink:href="#DejaVuSans-69" x="341.46875"/>
      <use xlink:href="#DejaVuSans-6f" x="369.251953"/>
      <use xlink:href="#DejaVuSans-6e" x="430.433594"/>
      <use xlink:href="#DejaVuSans-20" x="493.8125"/>
      <use xlink:href="#DejaVuSans-41" x="525.599609"/>
      <use xlink:href="#DejaVuSans-63" x="592.257812"/>
      <use xlink:href="#DejaVuSans-63" x="647.238281"/>
      <use xlink:href="#DejaVuSans-75" x="702.21875"/>
      <use xlink:href="#DejaVuSans-72" x="765.597656"/>
      <use xlink:href="#DejaVuSans-61" x="806.710938"/>
      <use xlink:href="#DejaVuSans-63" x="867.990234"/>
      <use xlink:href="#DejaVuSans-79" x="922.970703"/>
     </g>
    </g>
    <g id="line2d_26">
     <path d="M 141.394375 173.787375 
L 151.394375 173.787375 
L 161.394375 173.787375 
" style="fill: none; stroke: #2ca02c; stroke-width: 1.5; stroke-linecap: square"/>
    </g>
    <g id="text_24">
     <!-- Robust Validation Accuracy -->
     <g transform="translate(169.394375 177.287375) scale(0.1 -0.1)">
      <defs>
       <path id="DejaVuSans-52" d="M 2841 2188 
Q 3044 2119 3236 1894 
Q 3428 1669 3622 1275 
L 4263 0 
L 3584 0 
L 2988 1197 
Q 2756 1666 2539 1819 
Q 2322 1972 1947 1972 
L 1259 1972 
L 1259 0 
L 628 0 
L 628 4666 
L 2053 4666 
Q 2853 4666 3247 4331 
Q 3641 3997 3641 3322 
Q 3641 2881 3436 2590 
Q 3231 2300 2841 2188 
z
M 1259 4147 
L 1259 2491 
L 2053 2491 
Q 2509 2491 2742 2702 
Q 2975 2913 2975 3322 
Q 2975 3731 2742 3939 
Q 2509 4147 2053 4147 
L 1259 4147 
z
" transform="scale(0.015625)"/>
       <path id="DejaVuSans-62" d="M 3116 1747 
Q 3116 2381 2855 2742 
Q 2594 3103 2138 3103 
Q 1681 3103 1420 2742 
Q 1159 2381 1159 1747 
Q 1159 1113 1420 752 
Q 1681 391 2138 391 
Q 2594 391 2855 752 
Q 3116 1113 3116 1747 
z
M 1159 2969 
Q 1341 3281 1617 3432 
Q 1894 3584 2278 3584 
Q 2916 3584 3314 3078 
Q 3713 2572 3713 1747 
Q 3713 922 3314 415 
Q 2916 -91 2278 -91 
Q 1894 -91 1617 61 
Q 1341 213 1159 525 
L 1159 0 
L 581 0 
L 581 4863 
L 1159 4863 
L 1159 2969 
z
" transform="scale(0.015625)"/>
      </defs>
      <use xlink:href="#DejaVuSans-52"/>
      <use xlink:href="#DejaVuSans-6f" x="64.982422"/>
      <use xlink:href="#DejaVuSans-62" x="126.164062"/>
      <use xlink:href="#DejaVuSans-75" x="189.640625"/>
      <use xlink:href="#DejaVuSans-73" x="253.019531"/>
      <use xlink:href="#DejaVuSans-74" x="305.119141"/>
      <use xlink:href="#DejaVuSans-20" x="344.328125"/>
      <use xlink:href="#DejaVuSans-56" x="376.115234"/>
      <use xlink:href="#DejaVuSans-61" x="436.773438"/>
      <use xlink:href="#DejaVuSans-6c" x="498.052734"/>
      <use xlink:href="#DejaVuSans-69" x="525.835938"/>
      <use xlink:href="#DejaVuSans-64" x="553.619141"/>
      <use xlink:href="#DejaVuSans-61" x="617.095703"/>
      <use xlink:href="#DejaVuSans-74" x="678.375"/>
      <use xlink:href="#DejaVuSans-69" x="717.583984"/>
      <use xlink:href="#DejaVuSans-6f" x="745.367188"/>
      <use xlink:href="#DejaVuSans-6e" x="806.548828"/>
      <use xlink:href="#DejaVuSans-20" x="869.927734"/>
      <use xlink:href="#DejaVuSans-41" x="901.714844"/>
      <use xlink:href="#DejaVuSans-63" x="968.373047"/>
      <use xlink:href="#DejaVuSans-63" x="1023.353516"/>
      <use xlink:href="#DejaVuSans-75" x="1078.333984"/>
      <use xlink:href="#DejaVuSans-72" x="1141.712891"/>
      <use xlink:href="#DejaVuSans-61" x="1182.826172"/>
      <use xlink:href="#DejaVuSans-63" x="1244.105469"/>
      <use xlink:href="#DejaVuSans-79" x="1299.085938"/>
     </g>
    </g>
    <g id="line2d_27">
     <path d="M 141.394375 188.4655 
L 151.394375 188.4655 
L 161.394375 188.4655 
" style="fill: none; stroke: #d62728; stroke-width: 1.5; stroke-linecap: square"/>
    </g>
    <g id="text_25">
     <!-- SWA Validation Accuracy -->
     <g transform="translate(169.394375 191.9655) scale(0.1 -0.1)">
      <defs>
       <path id="DejaVuSans-53" d="M 3425 4513 
L 3425 3897 
Q 3066 4069 2747 4153 
Q 2428 4238 2131 4238 
Q 1616 4238 1336 4038 
Q 1056 3838 1056 3469 
Q 1056 3159 1242 3001 
Q 1428 2844 1947 2747 
L 2328 2669 
Q 3034 2534 3370 2195 
Q 3706 1856 3706 1288 
Q 3706 609 3251 259 
Q 2797 -91 1919 -91 
Q 1588 -91 1214 -16 
Q 841 59 441 206 
L 441 856 
Q 825 641 1194 531 
Q 1563 422 1919 422 
Q 2459 422 2753 634 
Q 3047 847 3047 1241 
Q 3047 1584 2836 1778 
Q 2625 1972 2144 2069 
L 1759 2144 
Q 1053 2284 737 2584 
Q 422 2884 422 3419 
Q 422 4038 858 4394 
Q 1294 4750 2059 4750 
Q 2388 4750 2728 4690 
Q 3069 4631 3425 4513 
z
" transform="scale(0.015625)"/>
       <path id="DejaVuSans-57" d="M 213 4666 
L 850 4666 
L 1831 722 
L 2809 4666 
L 3519 4666 
L 4500 722 
L 5478 4666 
L 6119 4666 
L 4947 0 
L 4153 0 
L 3169 4050 
L 2175 0 
L 1381 0 
L 213 4666 
z
" transform="scale(0.015625)"/>
      </defs>
      <use xlink:href="#DejaVuSans-53"/>
      <use xlink:href="#DejaVuSans-57" x="63.476562"/>
      <use xlink:href="#DejaVuSans-41" x="156.853516"/>
      <use xlink:href="#DejaVuSans-20" x="225.261719"/>
      <use xlink:href="#DejaVuSans-56" x="257.048828"/>
      <use xlink:href="#DejaVuSans-61" x="317.707031"/>
      <use xlink:href="#DejaVuSans-6c" x="378.986328"/>
      <use xlink:href="#DejaVuSans-69" x="406.769531"/>
      <use xlink:href="#DejaVuSans-64" x="434.552734"/>
      <use xlink:href="#DejaVuSans-61" x="498.029297"/>
      <use xlink:href="#DejaVuSans-74" x="559.308594"/>
      <use xlink:href="#DejaVuSans-69" x="598.517578"/>
      <use xlink:href="#DejaVuSans-6f" x="626.300781"/>
      <use xlink:href="#DejaVuSans-6e" x="687.482422"/>
      <use xlink:href="#DejaVuSans-20" x="750.861328"/>
      <use xlink:href="#DejaVuSans-41" x="782.648438"/>
      <use xlink:href="#DejaVuSans-63" x="849.306641"/>
      <use xlink:href="#DejaVuSans-63" x="904.287109"/>
      <use xlink:href="#DejaVuSans-75" x="959.267578"/>
      <use xlink:href="#DejaVuSans-72" x="1022.646484"/>
      <use xlink:href="#DejaVuSans-61" x="1063.759766"/>
      <use xlink:href="#DejaVuSans-63" x="1125.039062"/>
      <use xlink:href="#DejaVuSans-79" x="1180.019531"/>
     </g>
    </g>
    <g id="line2d_28">
     <path d="M 141.394375 203.143625 
L 151.394375 203.143625 
L 161.394375 203.143625 
" style="fill: none; stroke: #9467bd; stroke-width: 1.5; stroke-linecap: square"/>
    </g>
    <g id="text_26">
     <!-- SWA Robust Validation Accuracy -->
     <g transform="translate(169.394375 206.643625) scale(0.1 -0.1)">
      <use xlink:href="#DejaVuSans-53"/>
      <use xlink:href="#DejaVuSans-57" x="63.476562"/>
      <use xlink:href="#DejaVuSans-41" x="156.853516"/>
      <use xlink:href="#DejaVuSans-20" x="225.261719"/>
      <use xlink:href="#DejaVuSans-52" x="257.048828"/>
      <use xlink:href="#DejaVuSans-6f" x="322.03125"/>
      <use xlink:href="#DejaVuSans-62" x="383.212891"/>
      <use xlink:href="#DejaVuSans-75" x="446.689453"/>
      <use xlink:href="#DejaVuSans-73" x="510.068359"/>
      <use xlink:href="#DejaVuSans-74" x="562.167969"/>
      <use xlink:href="#DejaVuSans-20" x="601.376953"/>
      <use xlink:href="#DejaVuSans-56" x="633.164062"/>
      <use xlink:href="#DejaVuSans-61" x="693.822266"/>
      <use xlink:href="#DejaVuSans-6c" x="755.101562"/>
      <use xlink:href="#DejaVuSans-69" x="782.884766"/>
      <use xlink:href="#DejaVuSans-64" x="810.667969"/>
      <use xlink:href="#DejaVuSans-61" x="874.144531"/>
      <use xlink:href="#DejaVuSans-74" x="935.423828"/>
      <use xlink:href="#DejaVuSans-69" x="974.632812"/>
      <use xlink:href="#DejaVuSans-6f" x="1002.416016"/>
      <use xlink:href="#DejaVuSans-6e" x="1063.597656"/>
      <use xlink:href="#DejaVuSans-20" x="1126.976562"/>
      <use xlink:href="#DejaVuSans-41" x="1158.763672"/>
      <use xlink:href="#DejaVuSans-63" x="1225.421875"/>
      <use xlink:href="#DejaVuSans-63" x="1280.402344"/>
      <use xlink:href="#DejaVuSans-75" x="1335.382812"/>
      <use xlink:href="#DejaVuSans-72" x="1398.761719"/>
      <use xlink:href="#DejaVuSans-61" x="1439.875"/>
      <use xlink:href="#DejaVuSans-63" x="1501.154297"/>
      <use xlink:href="#DejaVuSans-79" x="1556.134766"/>
     </g>
    </g>
   </g>
  </g>
 </g>
 <defs>
  <clipPath id="p854c10c609">
   <rect x="57.6" y="41.472" width="357.12" height="266.112"/>
  </clipPath>
 </defs>
</svg>
