<?xml version="1.0" encoding="utf-8" standalone="no"?>
<!DOCTYPE svg PUBLIC "-//W3C//DTD SVG 1.1//EN"
  "http://www.w3.org/Graphics/SVG/1.1/DTD/svg11.dtd">
<svg xmlns:xlink="http://www.w3.org/1999/xlink" width="460.8pt" height="345.6pt" viewBox="0 0 460.8 345.6" xmlns="http://www.w3.org/2000/svg" version="1.1">
 <metadata>
  <rdf:RDF xmlns:dc="http://purl.org/dc/elements/1.1/" xmlns:cc="http://creativecommons.org/ns#" xmlns:rdf="http://www.w3.org/1999/02/22-rdf-syntax-ns#">
   <cc:Work>
    <dc:type rdf:resource="http://purl.org/dc/dcmitype/StillImage"/>
    <dc:date>2025-10-15T15:03:48.140187</dc:date>
    <dc:format>image/svg+xml</dc:format>
    <dc:creator>
     <cc:Agent>
      <dc:title>Matplotlib v3.9.1, https://matplotlib.org/</dc:title>
     </cc:Agent>
    </dc:creator>
   </cc:Work>
  </rdf:RDF>
 </metadata>
 <defs>
  <style type="text/css">*{stroke-linejoin: round; stroke-linecap: butt}</style>
 </defs>
 <g id="figure_1">
  <g id="patch_1">
   <path d="M 0 345.6 
L 460.8 345.6 
L 460.8 0 
L 0 0 
z
" style="fill: #ffffff"/>
  </g>
  <g id="axes_1">
   <g id="patch_2">
    <path d="M 57.6 307.584 
L 414.72 307.584 
L 414.72 41.472 
L 57.6 41.472 
z
" style="fill: #ffffff"/>
   </g>
   <g id="matplotlib.axis_1">
    <g id="xtick_1">
     <g id="line2d_1">
      <defs>
       <path id="m23fd78ea9f" d="M 0 0 
L 0 3.5 
" style="stroke: #000000; stroke-width: 0.8"/>
      </defs>
      <g>
       <use xlink:href="#m23fd78ea9f" x="73.832727" y="307.584" style="stroke: #000000; stroke-width: 0.8"/>
      </g>
     </g>
     <g id="text_1">
      <!-- 1 -->
      <g transform="translate(70.651477 322.182437) scale(0.1 -0.1)">
       <defs>
        <path id="DejaVuSans-31" d="M 794 531 
L 1825 531 
L 1825 4091 
L 703 3866 
L 703 4441 
L 1819 4666 
L 2450 4666 
L 2450 531 
L 3481 531 
L 3481 0 
L 794 0 
L 794 531 
z
" transform="scale(0.015625)"/>
       </defs>
       <use xlink:href="#DejaVuSans-31"/>
      </g>
     </g>
    </g>
    <g id="xtick_2">
     <g id="line2d_2">
      <g>
       <use xlink:href="#m23fd78ea9f" x="109.664165" y="307.584" style="stroke: #000000; stroke-width: 0.8"/>
      </g>
     </g>
     <g id="text_2">
      <!-- 34 -->
      <g transform="translate(103.301665 322.182437) scale(0.1 -0.1)">
       <defs>
        <path id="DejaVuSans-33" d="M 2597 2516 
Q 3050 2419 3304 2112 
Q 3559 1806 3559 1356 
Q 3559 666 3084 287 
Q 2609 -91 1734 -91 
Q 1441 -91 1130 -33 
Q 819 25 488 141 
L 488 750 
Q 750 597 1062 519 
Q 1375 441 1716 441 
Q 2309 441 2620 675 
Q 2931 909 2931 1356 
Q 2931 1769 2642 2001 
Q 2353 2234 1838 2234 
L 1294 2234 
L 1294 2753 
L 1863 2753 
Q 2328 2753 2575 2939 
Q 2822 3125 2822 3475 
Q 2822 3834 2567 4026 
Q 2313 4219 1838 4219 
Q 1578 4219 1281 4162 
Q 984 4106 628 3988 
L 628 4550 
Q 988 4650 1302 4700 
Q 1616 4750 1894 4750 
Q 2613 4750 3031 4423 
Q 3450 4097 3450 3541 
Q 3450 3153 3228 2886 
Q 3006 2619 2597 2516 
z
" transform="scale(0.015625)"/>
        <path id="DejaVuSans-34" d="M 2419 4116 
L 825 1625 
L 2419 1625 
L 2419 4116 
z
M 2253 4666 
L 3047 4666 
L 3047 1625 
L 3713 1625 
L 3713 1100 
L 3047 1100 
L 3047 0 
L 2419 0 
L 2419 1100 
L 313 1100 
L 313 1709 
L 2253 4666 
z
" transform="scale(0.015625)"/>
       </defs>
       <use xlink:href="#DejaVuSans-33"/>
       <use xlink:href="#DejaVuSans-34" x="63.623047"/>
      </g>
     </g>
    </g>
    <g id="xtick_3">
     <g id="line2d_3">
      <g>
       <use xlink:href="#m23fd78ea9f" x="145.495604" y="307.584" style="stroke: #000000; stroke-width: 0.8"/>
      </g>
     </g>
     <g id="text_3">
      <!-- 67 -->
      <g transform="translate(139.133104 322.182437) scale(0.1 -0.1)">
       <defs>
        <path id="DejaVuSans-36" d="M 2113 2584 
Q 1688 2584 1439 2293 
Q 1191 2003 1191 1497 
Q 1191 994 1439 701 
Q 1688 409 2113 409 
Q 2538 409 2786 701 
Q 3034 994 3034 1497 
Q 3034 2003 2786 2293 
Q 2538 2584 2113 2584 
z
M 3366 4563 
L 3366 3988 
Q 3128 4100 2886 4159 
Q 2644 4219 2406 4219 
Q 1781 4219 1451 3797 
Q 1122 3375 1075 2522 
Q 1259 2794 1537 2939 
Q 1816 3084 2150 3084 
Q 2853 3084 3261 2657 
Q 3669 2231 3669 1497 
Q 3669 778 3244 343 
Q 2819 -91 2113 -91 
Q 1303 -91 875 529 
Q 447 1150 447 2328 
Q 447 3434 972 4092 
Q 1497 4750 2381 4750 
Q 2619 4750 2861 4703 
Q 3103 4656 3366 4563 
z
" transform="scale(0.015625)"/>
        <path id="DejaVuSans-37" d="M 525 4666 
L 3525 4666 
L 3525 4397 
L 1831 0 
L 1172 0 
L 2766 4134 
L 525 4134 
L 525 4666 
z
" transform="scale(0.015625)"/>
       </defs>
       <use xlink:href="#DejaVuSans-36"/>
       <use xlink:href="#DejaVuSans-37" x="63.623047"/>
      </g>
     </g>
    </g>
    <g id="xtick_4">
     <g id="line2d_4">
      <g>
       <use xlink:href="#m23fd78ea9f" x="181.327042" y="307.584" style="stroke: #000000; stroke-width: 0.8"/>
      </g>
     </g>
     <g id="text_4">
      <!-- 100 -->
      <g transform="translate(171.783292 322.182437) scale(0.1 -0.1)">
       <defs>
        <path id="DejaVuSans-30" d="M 2034 4250 
Q 1547 4250 1301 3770 
Q 1056 3291 1056 2328 
Q 1056 1369 1301 889 
Q 1547 409 2034 409 
Q 2525 409 2770 889 
Q 3016 1369 3016 2328 
Q 3016 3291 2770 3770 
Q 2525 4250 2034 4250 
z
M 2034 4750 
Q 2819 4750 3233 4129 
Q 3647 3509 3647 2328 
Q 3647 1150 3233 529 
Q 2819 -91 2034 -91 
Q 1250 -91 836 529 
Q 422 1150 422 2328 
Q 422 3509 836 4129 
Q 1250 4750 2034 4750 
z
" transform="scale(0.015625)"/>
       </defs>
       <use xlink:href="#DejaVuSans-31"/>
       <use xlink:href="#DejaVuSans-30" x="63.623047"/>
       <use xlink:href="#DejaVuSans-30" x="127.246094"/>
      </g>
     </g>
    </g>
    <g id="xtick_5">
     <g id="line2d_5">
      <g>
       <use xlink:href="#m23fd78ea9f" x="217.15848" y="307.584" style="stroke: #000000; stroke-width: 0.8"/>
      </g>
     </g>
     <g id="text_5">
      <!-- 133 -->
      <g transform="translate(207.61473 322.182437) scale(0.1 -0.1)">
       <use xlink:href="#DejaVuSans-31"/>
       <use xlink:href="#DejaVuSans-33" x="63.623047"/>
       <use xlink:href="#DejaVuSans-33" x="127.246094"/>
      </g>
     </g>
    </g>
    <g id="xtick_6">
     <g id="line2d_6">
      <g>
       <use xlink:href="#m23fd78ea9f" x="254.075719" y="307.584" style="stroke: #000000; stroke-width: 0.8"/>
      </g>
     </g>
     <g id="text_6">
      <!-- 167 -->
      <g transform="translate(244.531969 322.182437) scale(0.1 -0.1)">
       <use xlink:href="#DejaVuSans-31"/>
       <use xlink:href="#DejaVuSans-36" x="63.623047"/>
       <use xlink:href="#DejaVuSans-37" x="127.246094"/>
      </g>
     </g>
    </g>
    <g id="xtick_7">
     <g id="line2d_7">
      <g>
       <use xlink:href="#m23fd78ea9f" x="289.907157" y="307.584" style="stroke: #000000; stroke-width: 0.8"/>
      </g>
     </g>
     <g id="text_7">
      <!-- 200 -->
      <g transform="translate(280.363407 322.182437) scale(0.1 -0.1)">
       <defs>
        <path id="DejaVuSans-32" d="M 1228 531 
L 3431 531 
L 3431 0 
L 469 0 
L 469 531 
Q 828 903 1448 1529 
Q 2069 2156 2228 2338 
Q 2531 2678 2651 2914 
Q 2772 3150 2772 3378 
Q 2772 3750 2511 3984 
Q 2250 4219 1831 4219 
Q 1534 4219 1204 4116 
Q 875 4013 500 3803 
L 500 4441 
Q 881 4594 1212 4672 
Q 1544 4750 1819 4750 
Q 2544 4750 2975 4387 
Q 3406 4025 3406 3419 
Q 3406 3131 3298 2873 
Q 3191 2616 2906 2266 
Q 2828 2175 2409 1742 
Q 1991 1309 1228 531 
z
" transform="scale(0.015625)"/>
       </defs>
       <use xlink:href="#DejaVuSans-32"/>
       <use xlink:href="#DejaVuSans-30" x="63.623047"/>
       <use xlink:href="#DejaVuSans-30" x="127.246094"/>
      </g>
     </g>
    </g>
    <g id="xtick_8">
     <g id="line2d_8">
      <g>
       <use xlink:href="#m23fd78ea9f" x="325.738595" y="307.584" style="stroke: #000000; stroke-width: 0.8"/>
      </g>
     </g>
     <g id="text_8">
      <!-- 233 -->
      <g transform="translate(316.194845 322.182437) scale(0.1 -0.1)">
       <use xlink:href="#DejaVuSans-32"/>
       <use xlink:href="#DejaVuSans-33" x="63.623047"/>
       <use xlink:href="#DejaVuSans-33" x="127.246094"/>
      </g>
     </g>
    </g>
    <g id="xtick_9">
     <g id="line2d_9">
      <g>
       <use xlink:href="#m23fd78ea9f" x="361.570033" y="307.584" style="stroke: #000000; stroke-width: 0.8"/>
      </g>
     </g>
     <g id="text_9">
      <!-- 266 -->
      <g transform="translate(352.026283 322.182437) scale(0.1 -0.1)">
       <use xlink:href="#DejaVuSans-32"/>
       <use xlink:href="#DejaVuSans-36" x="63.623047"/>
       <use xlink:href="#DejaVuSans-36" x="127.246094"/>
      </g>
     </g>
    </g>
    <g id="xtick_10">
     <g id="line2d_10">
      <g>
       <use xlink:href="#m23fd78ea9f" x="398.487273" y="307.584" style="stroke: #000000; stroke-width: 0.8"/>
      </g>
     </g>
     <g id="text_10">
      <!-- 300 -->
      <g transform="translate(388.943523 322.182437) scale(0.1 -0.1)">
       <use xlink:href="#DejaVuSans-33"/>
       <use xlink:href="#DejaVuSans-30" x="63.623047"/>
       <use xlink:href="#DejaVuSans-30" x="127.246094"/>
      </g>
     </g>
    </g>
    <g id="text_11">
     <!-- Epochs -->
     <g transform="translate(218.244375 335.860562) scale(0.1 -0.1)">
      <defs>
       <path id="DejaVuSans-45" d="M 628 4666 
L 3578 4666 
L 3578 4134 
L 1259 4134 
L 1259 2753 
L 3481 2753 
L 3481 2222 
L 1259 2222 
L 1259 531 
L 3634 531 
L 3634 0 
L 628 0 
L 628 4666 
z
" transform="scale(0.015625)"/>
       <path id="DejaVuSans-70" d="M 1159 525 
L 1159 -1331 
L 581 -1331 
L 581 3500 
L 1159 3500 
L 1159 2969 
Q 1341 3281 1617 3432 
Q 1894 3584 2278 3584 
Q 2916 3584 3314 3078 
Q 3713 2572 3713 1747 
Q 3713 922 3314 415 
Q 2916 -91 2278 -91 
Q 1894 -91 1617 61 
Q 1341 213 1159 525 
z
M 3116 1747 
Q 3116 2381 2855 2742 
Q 2594 3103 2138 3103 
Q 1681 3103 1420 2742 
Q 1159 2381 1159 1747 
Q 1159 1113 1420 752 
Q 1681 391 2138 391 
Q 2594 391 2855 752 
Q 3116 1113 3116 1747 
z
" transform="scale(0.015625)"/>
       <path id="DejaVuSans-6f" d="M 1959 3097 
Q 1497 3097 1228 2736 
Q 959 2375 959 1747 
Q 959 1119 1226 758 
Q 1494 397 1959 397 
Q 2419 397 2687 759 
Q 2956 1122 2956 1747 
Q 2956 2369 2687 2733 
Q 2419 3097 1959 3097 
z
M 1959 3584 
Q 2709 3584 3137 3096 
Q 3566 2609 3566 1747 
Q 3566 888 3137 398 
Q 2709 -91 1959 -91 
Q 1206 -91 779 398 
Q 353 888 353 1747 
Q 353 2609 779 3096 
Q 1206 3584 1959 3584 
z
" transform="scale(0.015625)"/>
       <path id="DejaVuSans-63" d="M 3122 3366 
L 3122 2828 
Q 2878 2963 2633 3030 
Q 2388 3097 2138 3097 
Q 1578 3097 1268 2742 
Q 959 2388 959 1747 
Q 959 1106 1268 751 
Q 1578 397 2138 397 
Q 2388 397 2633 464 
Q 2878 531 3122 666 
L 3122 134 
Q 2881 22 2623 -34 
Q 2366 -91 2075 -91 
Q 1284 -91 818 406 
Q 353 903 353 1747 
Q 353 2603 823 3093 
Q 1294 3584 2113 3584 
Q 2378 3584 2631 3529 
Q 2884 3475 3122 3366 
z
" transform="scale(0.015625)"/>
       <path id="DejaVuSans-68" d="M 3513 2113 
L 3513 0 
L 2938 0 
L 2938 2094 
Q 2938 2591 2744 2837 
Q 2550 3084 2163 3084 
Q 1697 3084 1428 2787 
Q 1159 2491 1159 1978 
L 1159 0 
L 581 0 
L 581 4863 
L 1159 4863 
L 1159 2956 
Q 1366 3272 1645 3428 
Q 1925 3584 2291 3584 
Q 2894 3584 3203 3211 
Q 3513 2838 3513 2113 
z
" transform="scale(0.015625)"/>
       <path id="DejaVuSans-73" d="M 2834 3397 
L 2834 2853 
Q 2591 2978 2328 3040 
Q 2066 3103 1784 3103 
Q 1356 3103 1142 2972 
Q 928 2841 928 2578 
Q 928 2378 1081 2264 
Q 1234 2150 1697 2047 
L 1894 2003 
Q 2506 1872 2764 1633 
Q 3022 1394 3022 966 
Q 3022 478 2636 193 
Q 2250 -91 1575 -91 
Q 1294 -91 989 -36 
Q 684 19 347 128 
L 347 722 
Q 666 556 975 473 
Q 1284 391 1588 391 
Q 1994 391 2212 530 
Q 2431 669 2431 922 
Q 2431 1156 2273 1281 
Q 2116 1406 1581 1522 
L 1381 1569 
Q 847 1681 609 1914 
Q 372 2147 372 2553 
Q 372 3047 722 3315 
Q 1072 3584 1716 3584 
Q 2034 3584 2315 3537 
Q 2597 3491 2834 3397 
z
" transform="scale(0.015625)"/>
      </defs>
      <use xlink:href="#DejaVuSans-45"/>
      <use xlink:href="#DejaVuSans-70" x="63.183594"/>
      <use xlink:href="#DejaVuSans-6f" x="126.660156"/>
      <use xlink:href="#DejaVuSans-63" x="187.841797"/>
      <use xlink:href="#DejaVuSans-68" x="242.822266"/>
      <use xlink:href="#DejaVuSans-73" x="306.201172"/>
     </g>
    </g>
   </g>
   <g id="matplotlib.axis_2">
    <g id="ytick_1">
     <g id="line2d_11">
      <defs>
       <path id="m7c4c8b00e5" d="M 0 0 
L -3.5 0 
" style="stroke: #000000; stroke-width: 0.8"/>
      </defs>
      <g>
       <use xlink:href="#m7c4c8b00e5" x="57.6" y="281.881684" style="stroke: #000000; stroke-width: 0.8"/>
      </g>
     </g>
     <g id="text_12">
      <!-- 10 -->
      <g transform="translate(37.875 285.680902) scale(0.1 -0.1)">
       <use xlink:href="#DejaVuSans-31"/>
       <use xlink:href="#DejaVuSans-30" x="63.623047"/>
      </g>
     </g>
    </g>
    <g id="ytick_2">
     <g id="line2d_12">
      <g>
       <use xlink:href="#m7c4c8b00e5" x="57.6" y="250.909692" style="stroke: #000000; stroke-width: 0.8"/>
      </g>
     </g>
     <g id="text_13">
      <!-- 20 -->
      <g transform="translate(37.875 254.708911) scale(0.1 -0.1)">
       <use xlink:href="#DejaVuSans-32"/>
       <use xlink:href="#DejaVuSans-30" x="63.623047"/>
      </g>
     </g>
    </g>
    <g id="ytick_3">
     <g id="line2d_13">
      <g>
       <use xlink:href="#m7c4c8b00e5" x="57.6" y="219.9377" style="stroke: #000000; stroke-width: 0.8"/>
      </g>
     </g>
     <g id="text_14">
      <!-- 30 -->
      <g transform="translate(37.875 223.736919) scale(0.1 -0.1)">
       <use xlink:href="#DejaVuSans-33"/>
       <use xlink:href="#DejaVuSans-30" x="63.623047"/>
      </g>
     </g>
    </g>
    <g id="ytick_4">
     <g id="line2d_14">
      <g>
       <use xlink:href="#m7c4c8b00e5" x="57.6" y="188.965709" style="stroke: #000000; stroke-width: 0.8"/>
      </g>
     </g>
     <g id="text_15">
      <!-- 40 -->
      <g transform="translate(37.875 192.764928) scale(0.1 -0.1)">
       <use xlink:href="#DejaVuSans-34"/>
       <use xlink:href="#DejaVuSans-30" x="63.623047"/>
      </g>
     </g>
    </g>
    <g id="ytick_5">
     <g id="line2d_15">
      <g>
       <use xlink:href="#m7c4c8b00e5" x="57.6" y="157.993717" style="stroke: #000000; stroke-width: 0.8"/>
      </g>
     </g>
     <g id="text_16">
      <!-- 50 -->
      <g transform="translate(37.875 161.792936) scale(0.1 -0.1)">
       <defs>
        <path id="DejaVuSans-35" d="M 691 4666 
L 3169 4666 
L 3169 4134 
L 1269 4134 
L 1269 2991 
Q 1406 3038 1543 3061 
Q 1681 3084 1819 3084 
Q 2600 3084 3056 2656 
Q 3513 2228 3513 1497 
Q 3513 744 3044 326 
Q 2575 -91 1722 -91 
Q 1428 -91 1123 -41 
Q 819 9 494 109 
L 494 744 
Q 775 591 1075 516 
Q 1375 441 1709 441 
Q 2250 441 2565 725 
Q 2881 1009 2881 1497 
Q 2881 1984 2565 2268 
Q 2250 2553 1709 2553 
Q 1456 2553 1204 2497 
Q 953 2441 691 2322 
L 691 4666 
z
" transform="scale(0.015625)"/>
       </defs>
       <use xlink:href="#DejaVuSans-35"/>
       <use xlink:href="#DejaVuSans-30" x="63.623047"/>
      </g>
     </g>
    </g>
    <g id="ytick_6">
     <g id="line2d_16">
      <g>
       <use xlink:href="#m7c4c8b00e5" x="57.6" y="127.021726" style="stroke: #000000; stroke-width: 0.8"/>
      </g>
     </g>
     <g id="text_17">
      <!-- 60 -->
      <g transform="translate(37.875 130.820944) scale(0.1 -0.1)">
       <use xlink:href="#DejaVuSans-36"/>
       <use xlink:href="#DejaVuSans-30" x="63.623047"/>
      </g>
     </g>
    </g>
    <g id="ytick_7">
     <g id="line2d_17">
      <g>
       <use xlink:href="#m7c4c8b00e5" x="57.6" y="96.049734" style="stroke: #000000; stroke-width: 0.8"/>
      </g>
     </g>
     <g id="text_18">
      <!-- 70 -->
      <g transform="translate(37.875 99.848953) scale(0.1 -0.1)">
       <use xlink:href="#DejaVuSans-37"/>
       <use xlink:href="#DejaVuSans-30" x="63.623047"/>
      </g>
     </g>
    </g>
    <g id="ytick_8">
     <g id="line2d_18">
      <g>
       <use xlink:href="#m7c4c8b00e5" x="57.6" y="65.077742" style="stroke: #000000; stroke-width: 0.8"/>
      </g>
     </g>
     <g id="text_19">
      <!-- 80 -->
      <g transform="translate(37.875 68.876961) scale(0.1 -0.1)">
       <defs>
        <path id="DejaVuSans-38" d="M 2034 2216 
Q 1584 2216 1326 1975 
Q 1069 1734 1069 1313 
Q 1069 891 1326 650 
Q 1584 409 2034 409 
Q 2484 409 2743 651 
Q 3003 894 3003 1313 
Q 3003 1734 2745 1975 
Q 2488 2216 2034 2216 
z
M 1403 2484 
Q 997 2584 770 2862 
Q 544 3141 544 3541 
Q 544 4100 942 4425 
Q 1341 4750 2034 4750 
Q 2731 4750 3128 4425 
Q 3525 4100 3525 3541 
Q 3525 3141 3298 2862 
Q 3072 2584 2669 2484 
Q 3125 2378 3379 2068 
Q 3634 1759 3634 1313 
Q 3634 634 3220 271 
Q 2806 -91 2034 -91 
Q 1263 -91 848 271 
Q 434 634 434 1313 
Q 434 1759 690 2068 
Q 947 2378 1403 2484 
z
M 1172 3481 
Q 1172 3119 1398 2916 
Q 1625 2713 2034 2713 
Q 2441 2713 2670 2916 
Q 2900 3119 2900 3481 
Q 2900 3844 2670 4047 
Q 2441 4250 2034 4250 
Q 1625 4250 1398 4047 
Q 1172 3844 1172 3481 
z
" transform="scale(0.015625)"/>
       </defs>
       <use xlink:href="#DejaVuSans-38"/>
       <use xlink:href="#DejaVuSans-30" x="63.623047"/>
      </g>
     </g>
    </g>
    <g id="text_20">
     <!-- Accuracy -->
     <g transform="translate(31.795312 197.356125) rotate(-90) scale(0.1 -0.1)">
      <defs>
       <path id="DejaVuSans-41" d="M 2188 4044 
L 1331 1722 
L 3047 1722 
L 2188 4044 
z
M 1831 4666 
L 2547 4666 
L 4325 0 
L 3669 0 
L 3244 1197 
L 1141 1197 
L 716 0 
L 50 0 
L 1831 4666 
z
" transform="scale(0.015625)"/>
       <path id="DejaVuSans-75" d="M 544 1381 
L 544 3500 
L 1119 3500 
L 1119 1403 
Q 1119 906 1312 657 
Q 1506 409 1894 409 
Q 2359 409 2629 706 
Q 2900 1003 2900 1516 
L 2900 3500 
L 3475 3500 
L 3475 0 
L 2900 0 
L 2900 538 
Q 2691 219 2414 64 
Q 2138 -91 1772 -91 
Q 1169 -91 856 284 
Q 544 659 544 1381 
z
M 1991 3584 
L 1991 3584 
z
" transform="scale(0.015625)"/>
       <path id="DejaVuSans-72" d="M 2631 2963 
Q 2534 3019 2420 3045 
Q 2306 3072 2169 3072 
Q 1681 3072 1420 2755 
Q 1159 2438 1159 1844 
L 1159 0 
L 581 0 
L 581 3500 
L 1159 3500 
L 1159 2956 
Q 1341 3275 1631 3429 
Q 1922 3584 2338 3584 
Q 2397 3584 2469 3576 
Q 2541 3569 2628 3553 
L 2631 2963 
z
" transform="scale(0.015625)"/>
       <path id="DejaVuSans-61" d="M 2194 1759 
Q 1497 1759 1228 1600 
Q 959 1441 959 1056 
Q 959 750 1161 570 
Q 1363 391 1709 391 
Q 2188 391 2477 730 
Q 2766 1069 2766 1631 
L 2766 1759 
L 2194 1759 
z
M 3341 1997 
L 3341 0 
L 2766 0 
L 2766 531 
Q 2569 213 2275 61 
Q 1981 -91 1556 -91 
Q 1019 -91 701 211 
Q 384 513 384 1019 
Q 384 1609 779 1909 
Q 1175 2209 1959 2209 
L 2766 2209 
L 2766 2266 
Q 2766 2663 2505 2880 
Q 2244 3097 1772 3097 
Q 1472 3097 1187 3025 
Q 903 2953 641 2809 
L 641 3341 
Q 956 3463 1253 3523 
Q 1550 3584 1831 3584 
Q 2591 3584 2966 3190 
Q 3341 2797 3341 1997 
z
" transform="scale(0.015625)"/>
       <path id="DejaVuSans-79" d="M 2059 -325 
Q 1816 -950 1584 -1140 
Q 1353 -1331 966 -1331 
L 506 -1331 
L 506 -850 
L 844 -850 
Q 1081 -850 1212 -737 
Q 1344 -625 1503 -206 
L 1606 56 
L 191 3500 
L 800 3500 
L 1894 763 
L 2988 3500 
L 3597 3500 
L 2059 -325 
z
" transform="scale(0.015625)"/>
      </defs>
      <use xlink:href="#DejaVuSans-41"/>
      <use xlink:href="#DejaVuSans-63" x="66.658203"/>
      <use xlink:href="#DejaVuSans-63" x="121.638672"/>
      <use xlink:href="#DejaVuSans-75" x="176.619141"/>
      <use xlink:href="#DejaVuSans-72" x="239.998047"/>
      <use xlink:href="#DejaVuSans-61" x="281.111328"/>
      <use xlink:href="#DejaVuSans-63" x="342.390625"/>
      <use xlink:href="#DejaVuSans-79" x="397.371094"/>
     </g>
    </g>
   </g>
   <g id="line2d_19">
    <path d="M 73.832727 283.703894 
L 74.918528 246.322674 
L 76.00433 223.632695 
L 77.090131 206.074567 
L 78.175932 193.24494 
L 79.261733 182.894363 
L 80.347534 174.172699 
L 82.519137 159.859986 
L 83.604938 153.127146 
L 84.690739 147.197904 
L 85.77654 142.993758 
L 86.862341 137.846394 
L 89.033943 130.058639 
L 90.119745 126.121325 
L 92.291347 120.555097 
L 93.377148 119.87871 
L 94.462949 117.982966 
L 95.54875 150.567426 
L 96.634552 148.913692 
L 97.720353 146.211248 
L 98.806154 142.98445 
L 99.891955 140.282006 
L 100.977756 138.380056 
L 102.063557 135.956855 
L 103.149358 131.631704 
L 104.23516 129.962456 
L 105.320961 130.114488 
L 106.406762 126.909408 
L 107.492563 124.787168 
L 108.578364 121.89546 
L 109.664165 119.739089 
L 110.749967 117.899194 
L 111.835768 116.323027 
L 112.921569 114.247326 
L 114.00737 111.467315 
L 116.178972 108.656277 
L 117.264773 106.45647 
L 118.350575 104.722065 
L 119.436376 103.422038 
L 120.522177 100.573768 
L 121.607978 98.538402 
L 122.693779 97.638622 
L 124.865382 93.009407 
L 125.951183 91.796255 
L 127.036984 89.981181 
L 128.122785 87.781373 
L 129.208586 86.912619 
L 130.294387 85.271296 
L 131.380189 84.011603 
L 132.46599 83.152158 
L 133.551791 82.668138 
L 135.723393 81.262619 
L 136.809194 79.773328 
L 137.894995 79.630604 
L 138.980797 117.073878 
L 140.066598 119.506388 
L 142.2382 117.291066 
L 143.324001 116.425415 
L 144.409802 115.233982 
L 145.495604 114.7934 
L 146.581405 113.682637 
L 147.667206 113.189309 
L 148.753007 112.339172 
L 149.838808 111.026733 
L 150.924609 110.334833 
L 152.01041 109.490901 
L 153.096212 108.82072 
L 154.182013 107.830962 
L 155.267814 106.499907 
L 156.353615 106.037606 
L 157.439416 105.308474 
L 158.525217 105.122312 
L 159.611019 103.021791 
L 160.69682 102.618441 
L 161.782621 102.382636 
L 162.868422 101.445624 
L 163.954223 100.974015 
L 166.125825 98.954163 
L 167.211627 98.321214 
L 169.383229 96.543372 
L 170.46903 95.472944 
L 171.554831 94.957897 
L 172.640632 93.930906 
L 173.726434 93.62374 
L 174.812235 93.024921 
L 175.898036 92.218221 
L 176.983837 90.769264 
L 178.069638 90.434174 
L 179.155439 89.419594 
L 180.24124 89.202405 
L 181.327042 87.198067 
L 182.412843 86.788512 
L 183.498644 85.870115 
L 184.584445 85.559846 
L 185.670246 84.629039 
L 186.756047 83.360038 
L 187.841849 82.379588 
L 188.92765 81.008199 
L 190.013451 79.881922 
L 191.099252 79.875716 
L 192.185053 78.39263 
L 193.270854 77.964459 
L 194.356656 76.76682 
L 195.442457 75.243399 
L 196.528258 74.467726 
L 197.614059 73.96509 
L 198.69986 72.140708 
L 199.785661 72.156221 
L 200.871462 70.282196 
L 201.957264 69.86023 
L 203.043065 69.093865 
L 204.128866 67.970691 
L 205.214667 67.502185 
L 206.300468 66.670664 
L 207.386269 65.280658 
L 208.472071 64.657017 
L 209.557872 65.001416 
L 210.643673 63.577281 
L 211.729474 63.350784 
L 212.815275 61.560532 
L 213.901076 61.191312 
L 214.986877 60.331866 
L 216.072679 60.822091 
L 217.15848 59.764074 
L 218.244281 59.568604 
L 219.330082 59.993673 
L 220.415883 59.245924 
L 221.501684 59.218 
L 222.587486 58.886012 
L 224.759088 58.81465 
L 225.844889 102.96284 
L 226.93069 106.534037 
L 228.016491 106.459572 
L 229.102292 106.071736 
L 230.188094 104.8772 
L 232.359696 104.824454 
L 234.531298 102.89458 
L 235.617099 102.227502 
L 236.702901 102.149935 
L 237.788702 101.895514 
L 238.874503 101.085712 
L 239.960304 100.890242 
L 241.046105 100.86542 
L 242.131906 100.182828 
L 244.303509 99.332691 
L 245.38931 99.214789 
L 246.475111 98.29329 
L 247.560912 98.519786 
L 248.646713 96.74815 
L 249.732514 97.598287 
L 250.818316 96.496832 
L 251.904117 95.89491 
L 252.989918 96.459599 
L 254.075719 96.611631 
L 255.16152 94.948589 
L 256.247321 95.513279 
L 257.333123 95.656002 
L 258.418924 94.650731 
L 260.590526 93.980549 
L 261.676327 93.949522 
L 262.762128 93.505838 
L 263.847929 93.813004 
L 266.019532 92.807732 
L 267.105333 92.981483 
L 268.191134 92.277172 
L 269.276935 92.373355 
L 270.362736 91.231565 
L 271.448538 92.056881 
L 272.534339 90.756853 
L 274.705941 90.638951 
L 275.791742 89.382361 
L 276.877543 90.071159 
L 279.049146 88.870417 
L 281.220748 88.628407 
L 282.306549 88.200236 
L 283.39235 87.204272 
L 284.478151 87.418358 
L 285.563953 87.204272 
L 287.735555 86.320005 
L 288.821356 86.109022 
L 289.907157 86.543399 
L 290.992958 85.625003 
L 292.07876 85.410917 
L 293.164561 84.427364 
L 294.250362 84.808995 
L 295.336163 83.980576 
L 296.421964 84.225689 
L 297.507765 83.400373 
L 298.593566 83.418989 
L 299.679368 82.677446 
L 300.765169 81.780769 
L 304.022572 81.510834 
L 305.108373 80.930631 
L 306.194175 80.555206 
L 308.365777 79.670939 
L 309.451578 78.482608 
L 310.537379 78.848726 
L 311.62318 78.299549 
L 312.708981 78.060642 
L 313.794783 78.867342 
L 314.880584 76.915749 
L 317.052186 76.465859 
L 318.137987 75.96012 
L 319.223788 75.131702 
L 322.481192 73.64241 
L 323.566993 73.567946 
L 325.738595 72.460285 
L 326.824396 72.528544 
L 327.910198 71.88939 
L 328.995999 71.414678 
L 330.0818 70.486974 
L 331.167601 70.918248 
L 332.253402 69.854025 
L 333.339203 69.497215 
L 334.425005 68.467122 
L 335.510806 67.7504 
L 336.596607 68.423684 
L 337.682408 67.191916 
L 339.85401 66.720307 
L 340.939811 65.30548 
L 343.111414 64.647709 
L 344.197215 64.359159 
L 345.283016 63.167726 
L 346.368817 62.95364 
L 347.454618 62.559598 
L 348.54042 61.5233 
L 349.626221 61.572943 
L 350.712022 60.328764 
L 352.883624 59.841641 
L 353.969425 59.354519 
L 355.055227 58.578846 
L 356.141028 58.544716 
L 357.226829 57.824892 
L 359.398431 56.552789 
L 360.484232 56.261136 
L 361.570033 55.581646 
L 362.655835 55.612673 
L 363.741636 55.122448 
L 364.827437 54.228873 
L 365.913238 53.837934 
L 366.999039 53.568 
L 368.08484 54.532937 
L 371.342244 58.392684 
L 372.428045 61.104436 
L 373.513846 61.476759 
L 374.599647 61.268879 
L 375.685448 61.678434 
L 376.77125 61.411603 
L 377.857051 61.619483 
L 378.942852 61.486067 
L 380.028653 61.65051 
L 381.114454 61.188209 
L 382.200255 62.370334 
L 383.286057 61.492273 
L 384.371858 62.302075 
L 385.457659 62.212097 
L 386.54346 62.568906 
L 387.629261 61.799439 
L 388.715062 62.01973 
L 389.800863 61.839774 
L 390.886665 62.348615 
L 391.972466 62.671295 
L 393.058267 61.749796 
L 394.144068 62.565804 
L 395.229869 62.435491 
L 396.31567 62.668192 
L 397.401472 62.236918 
L 398.487273 63.108775 
L 398.487273 63.108775 
" clip-path="url(#p8d1003a174)" style="fill: none; stroke: #1f77b4; stroke-width: 1.5; stroke-linecap: square"/>
   </g>
   <g id="line2d_20">
    <path d="M 73.832727 270.236215 
L 74.918528 246.449725 
L 76.00433 232.419413 
L 77.090131 211.946927 
L 78.175932 210.336383 
L 79.261733 203.057965 
L 80.347534 198.102446 
L 81.433335 190.916944 
L 82.519137 178.652036 
L 83.604938 173.015133 
L 84.690739 170.072794 
L 85.77654 163.63062 
L 86.862341 160.781196 
L 87.948142 158.922877 
L 89.033943 153.874442 
L 91.205546 145.883668 
L 92.291347 144.304097 
L 93.377148 143.715629 
L 94.462949 143.684657 
L 95.54875 178.435232 
L 96.634552 170.909038 
L 97.720353 168.338362 
L 98.806154 170.289598 
L 99.891955 172.798329 
L 100.977756 164.342975 
L 102.063557 157.683997 
L 103.149358 156.01151 
L 104.23516 157.807885 
L 105.320961 148.980868 
L 106.406762 151.892235 
L 107.492563 148.887952 
L 108.578364 147.122548 
L 109.664165 143.343965 
L 110.749967 144.737705 
L 111.835768 138.29553 
L 112.921569 140.277738 
L 114.00737 136.839847 
L 115.093171 136.932763 
L 116.178972 136.065547 
L 117.264773 129.282681 
L 118.350575 130.149897 
L 119.436376 129.902121 
L 120.522177 126.526174 
L 121.607978 125.442154 
L 122.693779 123.150227 
L 123.77958 122.004263 
L 124.865382 124.14133 
L 125.951183 118.256652 
L 127.036984 116.150556 
L 128.122785 112.588777 
L 129.208586 113.796685 
L 130.294387 112.186142 
L 132.46599 110.172962 
L 133.551791 107.912007 
L 134.637592 109.243802 
L 135.723393 108.097839 
L 136.809194 107.850063 
L 137.894995 108.74825 
L 138.980797 147.711016 
L 140.066598 152.790423 
L 141.152399 150.870159 
L 142.2382 150.343635 
L 143.324001 148.918924 
L 144.409802 141.175926 
L 145.495604 137.242483 
L 146.581405 141.516618 
L 147.667206 136.777903 
L 148.753007 138.29553 
L 149.838808 131.419748 
L 150.924609 140.525514 
L 152.01041 137.583175 
L 153.096212 138.822054 
L 154.182013 133.556816 
L 155.267814 134.950555 
L 156.353615 135.910687 
L 157.439416 128.972961 
L 158.525217 134.08334 
L 159.611019 129.685317 
L 160.69682 128.074773 
L 161.782621 134.671807 
L 162.868422 129.623373 
L 163.954223 132.596684 
L 165.040024 129.220737 
L 166.125825 133.30904 
L 167.211627 127.455333 
L 168.297428 129.499485 
L 169.383229 128.415465 
L 170.46903 120.889271 
L 171.554831 119.867195 
L 172.640632 123.119255 
L 173.726434 123.088283 
L 174.812235 123.459946 
L 175.898036 117.699156 
L 176.983837 124.265218 
L 178.069638 118.783176 
L 179.155439 118.38054 
L 180.24124 118.5354 
L 181.327042 118.163736 
L 182.412843 116.924856 
L 183.498644 115.933753 
L 184.584445 115.747921 
L 185.670246 114.106405 
L 186.756047 111.22601 
L 187.841849 111.783506 
L 188.92765 109.36769 
L 190.013451 107.973951 
L 191.099252 109.83227 
L 192.185053 109.119914 
L 193.270854 106.982847 
L 194.356656 106.115631 
L 195.442457 106.982847 
L 196.528258 104.814808 
L 197.614059 104.783836 
L 198.69986 103.575928 
L 199.785661 103.513984 
L 200.871462 101.841496 
L 201.957264 101.005253 
L 203.043065 100.571645 
L 204.128866 99.332765 
L 205.214667 98.465549 
L 206.300468 98.899157 
L 207.386269 99.518597 
L 209.557872 96.669174 
L 210.643673 97.38153 
L 212.815275 95.182518 
L 213.901076 95.554182 
L 214.986877 94.43919 
L 216.072679 95.089602 
L 217.15848 94.59405 
L 218.244281 93.169339 
L 219.330082 94.036554 
L 220.415883 93.293227 
L 221.501684 94.036554 
L 222.587486 93.695863 
L 223.673287 93.571975 
L 224.759088 93.169339 
L 225.844889 149.600307 
L 226.93069 144.613817 
L 228.016491 144.644789 
L 229.102292 136.499155 
L 230.188094 138.729138 
L 231.273895 136.684987 
L 232.359696 153.22403 
L 233.445497 140.680374 
L 234.531298 133.804592 
L 235.617099 135.260275 
L 236.702901 142.198001 
L 238.874503 129.654345 
L 239.960304 129.530457 
L 241.046105 138.481362 
L 242.131906 135.012499 
L 243.217708 143.003273 
L 244.303509 135.569995 
L 245.38931 135.446107 
L 247.560912 134.176256 
L 248.646713 131.357804 
L 249.732514 135.693883 
L 250.818316 138.357474 
L 252.989918 129.902121 
L 254.075719 126.61909 
L 255.16152 128.043801 
L 256.247321 130.98614 
L 257.333123 124.60591 
L 258.418924 123.955498 
L 259.504725 130.521561 
L 260.590526 124.574938 
L 261.676327 129.902121 
L 262.762128 123.583834 
L 263.847929 125.627986 
L 264.933731 128.291577 
L 266.019532 120.083999 
L 267.105333 133.061264 
L 268.191134 128.911017 
L 269.276935 133.959452 
L 270.362736 122.809535 
L 271.448538 133.835564 
L 272.534339 121.013159 
L 273.62014 129.313653 
L 274.705941 121.818431 
L 275.791742 125.318266 
L 276.877543 118.814148 
L 277.963344 127.765053 
L 279.049146 127.857969 
L 280.134947 127.021726 
L 281.220748 129.902121 
L 282.306549 124.543966 
L 283.39235 123.862582 
L 284.478151 122.344955 
L 285.563953 122.933423 
L 286.649754 122.375927 
L 287.735555 117.45138 
L 288.821356 117.575268 
L 289.907157 118.256652 
L 290.992958 120.393719 
L 292.07876 127.021726 
L 293.164561 123.336059 
L 294.250362 114.106405 
L 295.336163 117.513324 
L 296.421964 118.473456 
L 297.507765 114.509041 
L 298.593566 114.942649 
L 299.679368 117.29652 
L 300.765169 118.969008 
L 301.85097 117.29652 
L 302.936771 112.681693 
L 304.022572 116.769996 
L 305.108373 117.60624 
L 306.194175 112.588777 
L 307.279976 111.69059 
L 308.365777 116.243472 
L 309.451578 116.336388 
L 310.537379 110.699486 
L 311.62318 114.725845 
L 312.708981 111.38087 
L 313.794783 114.942649 
L 314.880584 109.05797 
L 315.966385 111.938366 
L 317.052186 109.770326 
L 318.137987 117.389436 
L 319.223788 105.805911 
L 320.30959 108.624362 
L 321.395391 108.438531 
L 322.481192 117.575268 
L 323.566993 101.90344 
L 324.652794 110.080046 
L 325.738595 104.164396 
L 326.824396 107.726175 
L 328.995999 107.137707 
L 330.0818 106.394379 
L 331.167601 104.876752 
L 332.253402 102.244132 
L 333.339203 103.699816 
L 334.425005 103.978564 
L 335.510806 99.487625 
L 336.596607 99.952205 
L 337.682408 101.655664 
L 338.768209 105.248415 
L 339.85401 98.341661 
L 340.939811 99.642485 
L 342.025613 100.354841 
L 343.111414 101.407888 
L 344.197215 101.253028 
L 345.283016 100.292897 
L 346.368817 102.089272 
L 347.454618 99.146933 
L 348.54042 94.59405 
L 349.626221 101.43886 
L 350.712022 97.629305 
L 351.797823 97.319586 
L 352.883624 101.005253 
L 353.969425 97.722221 
L 356.141028 96.514314 
L 357.226829 94.160442 
L 358.31263 96.545286 
L 359.398431 93.943638 
L 360.484232 95.709042 
L 361.570033 93.014479 
L 362.655835 92.983507 
L 364.827437 91.868515 
L 365.913238 94.222386 
L 366.999039 91.961431 
L 368.08484 93.200311 
L 369.170642 94.74891 
L 370.256443 95.275434 
L 371.342244 97.660277 
L 372.428045 100.571645 
L 373.513846 98.217773 
L 374.599647 99.735401 
L 375.685448 98.775269 
L 376.77125 104.876752 
L 377.857051 98.899157 
L 378.942852 101.067197 
L 380.028653 101.934412 
L 381.114454 102.027328 
L 382.200255 99.146933 
L 383.286057 101.996356 
L 384.371858 99.146933 
L 385.457659 101.655664 
L 386.54346 100.819421 
L 387.629261 100.912337 
L 388.715062 100.107065 
L 389.800863 99.023045 
L 390.886665 100.757477 
L 391.972466 102.182188 
L 393.058267 100.695533 
L 395.229869 99.673457 
L 396.31567 100.602617 
L 397.401472 103.421068 
L 398.487273 100.045121 
L 398.487273 100.045121 
" clip-path="url(#p8d1003a174)" style="fill: none; stroke: #ff7f0e; stroke-width: 1.5; stroke-linecap: square"/>
   </g>
   <g id="line2d_21">
    <path d="M 73.832727 295.488 
L 74.918528 288.994562 
L 76.00433 280.899124 
L 77.090131 276.285365 
L 78.175932 274.619286 
L 79.261733 277.161125 
L 80.347534 270.112327 
L 81.433335 269.236567 
L 82.519137 261.333369 
L 83.604938 262.251849 
L 84.690739 258.89833 
L 85.77654 257.08273 
L 86.862341 256.271051 
L 87.948142 254.177771 
L 89.033943 257.38177 
L 91.205546 248.517373 
L 92.291347 250.033932 
L 93.377148 250.674732 
L 94.462949 249.948492 
L 95.54875 266.545208 
L 96.634552 262.230489 
L 97.720353 259.17601 
L 98.806154 262.721769 
L 99.891955 264.921848 
L 100.977756 258.08665 
L 102.063557 253.793291 
L 103.149358 254.882651 
L 104.23516 254.989451 
L 105.320961 250.738812 
L 106.406762 261.183849 
L 107.492563 248.261053 
L 108.578364 252.404892 
L 109.664165 244.352174 
L 110.749967 247.833853 
L 111.835768 244.458974 
L 112.921569 244.010414 
L 114.00737 240.251055 
L 115.093171 249.969852 
L 116.178972 244.651214 
L 117.264773 242.750174 
L 118.350575 242.985134 
L 119.436376 242.216174 
L 120.522177 242.835614 
L 121.607978 240.400575 
L 122.693779 238.307295 
L 123.77958 235.701376 
L 124.865382 240.272415 
L 125.951183 232.518737 
L 128.122785 229.635138 
L 129.208586 229.827378 
L 130.294387 226.815619 
L 131.380189 227.755458 
L 132.46599 226.260259 
L 133.551791 226.132099 
L 135.723393 225.234979 
L 136.809194 225.192259 
L 137.894995 226.602019 
L 138.980797 251.870892 
L 140.066598 249.713532 
L 141.152399 257.27497 
L 142.2382 250.909692 
L 143.324001 255.566171 
L 144.409802 248.196973 
L 145.495604 245.569693 
L 146.581405 239.546175 
L 147.667206 245.035694 
L 148.753007 247.150333 
L 149.838808 239.994735 
L 150.924609 250.397052 
L 152.01041 242.750174 
L 153.096212 238.221855 
L 154.182013 239.332575 
L 155.267814 234.932416 
L 156.353615 242.792894 
L 157.439416 233.843057 
L 158.525217 241.468575 
L 159.611019 235.573216 
L 160.69682 239.652975 
L 161.782621 239.524815 
L 162.868422 239.033535 
L 163.954223 241.319055 
L 165.040024 241.682175 
L 166.125825 242.194814 
L 167.211627 233.116817 
L 168.297428 227.221458 
L 169.383229 238.755855 
L 170.46903 230.318658 
L 171.554831 235.872256 
L 172.640632 231.343937 
L 173.726434 232.967297 
L 174.812235 238.243215 
L 175.898036 226.901059 
L 176.983837 236.577136 
L 178.069638 237.730576 
L 179.155439 225.491299 
L 180.24124 232.091537 
L 181.327042 231.173057 
L 182.412843 228.396258 
L 183.498644 228.866178 
L 185.670246 224.722339 
L 186.756047 221.3261 
L 187.841849 225.790339 
L 188.92765 220.45034 
L 190.013451 221.39018 
L 191.099252 221.0057 
L 192.185053 224.017459 
L 193.270854 218.164821 
L 194.356656 223.697059 
L 195.442457 217.823061 
L 196.528258 221.90282 
L 197.614059 218.442501 
L 198.69986 218.634741 
L 199.785661 216.156981 
L 200.871462 214.982182 
L 203.043065 218.826981 
L 204.128866 214.362742 
L 205.214667 214.490902 
L 206.300468 217.417221 
L 207.386269 216.391941 
L 208.472071 212.589862 
L 209.557872 214.896742 
L 210.643673 214.106422 
L 211.729474 210.453863 
L 212.815275 211.372343 
L 213.901076 211.692743 
L 214.986877 210.838343 
L 216.072679 210.176183 
L 217.15848 212.525782 
L 218.244281 210.582023 
L 220.415883 210.048023 
L 222.587486 210.347063 
L 223.673287 210.881063 
L 224.759088 210.603383 
L 225.844889 253.302011 
L 226.93069 254.006891 
L 228.016491 248.602813 
L 229.102292 238.392735 
L 230.188094 248.773693 
L 231.273895 251.187372 
L 232.359696 258.17209 
L 233.445497 244.544414 
L 234.531298 239.311215 
L 235.617099 229.122498 
L 237.788702 247.748413 
L 238.874503 237.367456 
L 239.960304 233.736257 
L 241.046105 242.622014 
L 242.131906 249.991212 
L 243.217708 247.620253 
L 244.303509 241.788975 
L 245.38931 243.882254 
L 246.475111 237.751936 
L 247.560912 244.950254 
L 248.646713 231.237137 
L 249.732514 248.175613 
L 250.818316 238.563615 
L 251.904117 238.798575 
L 252.989918 236.299456 
L 254.075719 234.825616 
L 255.16152 231.771137 
L 256.247321 229.250658 
L 257.333123 233.223617 
L 258.418924 228.951618 
L 259.504725 230.639058 
L 260.590526 231.301217 
L 261.676327 233.415857 
L 262.762128 230.404098 
L 263.847929 235.039216 
L 264.933731 237.431536 
L 266.019532 231.343937 
L 267.105333 244.394894 
L 268.191134 229.955538 
L 269.276935 237.516976 
L 270.362736 241.297695 
L 271.448538 246.082333 
L 272.534339 232.497377 
L 273.62014 241.511295 
L 274.705941 231.536177 
L 275.791742 233.821697 
L 276.877543 233.116817 
L 277.963344 232.668257 
L 279.049146 232.518737 
L 280.134947 240.037455 
L 281.220748 239.033535 
L 282.306549 229.763298 
L 283.39235 228.246738 
L 284.478151 232.176977 
L 285.563953 220.4717 
L 286.649754 232.689617 
L 287.735555 225.726259 
L 288.821356 231.685697 
L 289.907157 232.732337 
L 290.992958 227.456418 
L 292.07876 238.990815 
L 294.250362 222.99218 
L 295.336163 227.670018 
L 296.421964 224.829139 
L 297.507765 228.503058 
L 298.593566 226.495219 
L 299.679368 230.361378 
L 300.765169 235.423696 
L 301.85097 230.703138 
L 302.936771 224.679619 
L 304.022572 227.392338 
L 305.108373 228.011778 
L 306.194175 224.423299 
L 307.279976 222.62906 
L 308.365777 227.520498 
L 309.451578 224.658259 
L 310.537379 222.54362 
L 311.62318 229.741938 
L 312.708981 220.98434 
L 313.794783 231.963377 
L 314.880584 217.887141 
L 315.966385 226.260259 
L 317.052186 221.73194 
L 318.137987 236.256736 
L 319.223788 221.45426 
L 320.30959 224.508739 
L 321.395391 216.092901 
L 322.481192 235.124656 
L 323.566993 214.875382 
L 324.652794 223.504819 
L 325.738595 219.126021 
L 326.824396 218.570661 
L 327.910198 223.20578 
L 328.995999 225.726259 
L 330.0818 223.398019 
L 331.167601 214.789942 
L 332.253402 217.438581 
L 333.339203 218.677461 
L 334.425005 219.467781 
L 335.510806 218.891061 
L 336.596607 215.516182 
L 337.682408 215.452102 
L 338.768209 222.43682 
L 339.85401 212.013143 
L 340.939811 219.425061 
L 342.025613 217.289061 
L 343.111414 220.51442 
L 344.197215 221.49698 
L 345.283016 218.869701 
L 346.368817 216.669621 
L 347.454618 215.409382 
L 348.54042 211.009223 
L 349.626221 217.609461 
L 350.712022 214.854022 
L 351.797823 213.551062 
L 352.883624 220.49306 
L 353.969425 211.585943 
L 355.055227 216.477381 
L 356.141028 217.459941 
L 357.226829 214.341382 
L 358.31263 214.597702 
L 359.398431 211.372343 
L 360.484232 211.756823 
L 361.570033 210.218903 
L 362.655835 208.403304 
L 363.741636 213.999622 
L 364.827437 208.980023 
L 365.913238 217.246341 
L 366.999039 207.228504 
L 368.08484 208.296504 
L 369.170642 211.949063 
L 370.256443 214.405462 
L 371.342244 215.003542 
L 372.428045 219.85226 
L 373.513846 214.320022 
L 374.599647 221.15522 
L 375.685448 215.259862 
L 376.77125 224.530099 
L 377.857051 217.588101 
L 378.942852 219.95906 
L 380.028653 220.55714 
L 381.114454 217.353141 
L 382.200255 216.413301 
L 383.286057 220.45034 
L 384.371858 218.976501 
L 385.457659 223.654339 
L 386.54346 218.335701 
L 387.629261 213.871462 
L 388.715062 218.058021 
L 389.800863 212.696662 
L 390.886665 218.826981 
L 391.972466 214.448182 
L 393.058267 214.918102 
L 394.144068 215.665702 
L 395.229869 217.908501 
L 396.31567 211.927703 
L 397.401472 217.438581 
L 398.487273 213.764662 
L 398.487273 213.764662 
" clip-path="url(#p8d1003a174)" style="fill: none; stroke: #2ca02c; stroke-width: 1.5; stroke-linecap: square"/>
   </g>
   <g id="line2d_22">
    <path d="M 368.08484 94.532106 
L 369.170642 95.956818 
L 370.256443 97.164726 
L 371.342244 97.102782 
L 372.428045 100.138037 
L 373.513846 106.053687 
L 374.599647 101.841496 
L 375.685448 98.372633 
L 376.77125 103.76176 
L 377.857051 103.111348 
L 378.942852 107.478399 
L 380.028653 103.91662 
L 381.114454 102.21316 
L 382.200255 104.814808 
L 383.286057 108.872138 
L 384.371858 111.659618 
L 385.457659 108.438531 
L 386.54346 110.234906 
L 387.629261 108.035895 
L 388.715062 109.67741 
L 389.800863 103.947592 
L 390.886665 119.030952 
L 391.972466 116.9868 
L 393.058267 109.460606 
L 394.144068 108.252699 
L 395.229869 118.597344 
L 396.31567 118.597344 
L 397.401472 121.229963 
L 398.487273 124.60591 
L 398.487273 124.60591 
" clip-path="url(#p8d1003a174)" style="fill: none; stroke: #d62728; stroke-width: 1.5; stroke-linecap: square"/>
   </g>
   <g id="line2d_23">
    <path d="M 368.08484 210.176183 
L 369.170642 216.733701 
L 370.256443 214.170502 
L 371.342244 215.088982 
L 372.428045 214.683142 
L 373.513846 227.349618 
L 375.685448 209.919863 
L 376.77125 216.626901 
L 377.857051 216.562821 
L 378.942852 222.5009 
L 380.028653 220.8989 
L 381.114454 211.222823 
L 382.200255 212.418982 
L 383.286057 220.64258 
L 384.371858 224.786419 
L 385.457659 221.8601 
L 386.54346 221.15522 
L 387.629261 215.815222 
L 388.715062 218.634741 
L 389.800863 213.679222 
L 390.886665 227.221458 
L 391.972466 225.256339 
L 393.058267 219.595941 
L 394.144068 215.195782 
L 395.229869 223.697059 
L 396.31567 223.654339 
L 398.487273 233.287697 
L 398.487273 233.287697 
" clip-path="url(#p8d1003a174)" style="fill: none; stroke: #9467bd; stroke-width: 1.5; stroke-linecap: square"/>
   </g>
   <g id="patch_3">
    <path d="M 57.6 307.584 
L 57.6 41.472 
" style="fill: none; stroke: #000000; stroke-width: 0.8; stroke-linejoin: miter; stroke-linecap: square"/>
   </g>
   <g id="patch_4">
    <path d="M 414.72 307.584 
L 414.72 41.472 
" style="fill: none; stroke: #000000; stroke-width: 0.8; stroke-linejoin: miter; stroke-linecap: square"/>
   </g>
   <g id="patch_5">
    <path d="M 57.6 307.584 
L 414.72 307.584 
" style="fill: none; stroke: #000000; stroke-width: 0.8; stroke-linejoin: miter; stroke-linecap: square"/>
   </g>
   <g id="patch_6">
    <path d="M 57.6 41.472 
L 414.72 41.472 
" style="fill: none; stroke: #000000; stroke-width: 0.8; stroke-linejoin: miter; stroke-linecap: square"/>
   </g>
   <g id="text_21">
    <!-- Learning Curves -->
    <g transform="translate(187.37625 35.472) scale(0.12 -0.12)">
     <defs>
      <path id="DejaVuSans-4c" d="M 628 4666 
L 1259 4666 
L 1259 531 
L 3531 531 
L 3531 0 
L 628 0 
L 628 4666 
z
" transform="scale(0.015625)"/>
      <path id="DejaVuSans-65" d="M 3597 1894 
L 3597 1613 
L 953 1613 
Q 991 1019 1311 708 
Q 1631 397 2203 397 
Q 2534 397 2845 478 
Q 3156 559 3463 722 
L 3463 178 
Q 3153 47 2828 -22 
Q 2503 -91 2169 -91 
Q 1331 -91 842 396 
Q 353 884 353 1716 
Q 353 2575 817 3079 
Q 1281 3584 2069 3584 
Q 2775 3584 3186 3129 
Q 3597 2675 3597 1894 
z
M 3022 2063 
Q 3016 2534 2758 2815 
Q 2500 3097 2075 3097 
Q 1594 3097 1305 2825 
Q 1016 2553 972 2059 
L 3022 2063 
z
" transform="scale(0.015625)"/>
      <path id="DejaVuSans-6e" d="M 3513 2113 
L 3513 0 
L 2938 0 
L 2938 2094 
Q 2938 2591 2744 2837 
Q 2550 3084 2163 3084 
Q 1697 3084 1428 2787 
Q 1159 2491 1159 1978 
L 1159 0 
L 581 0 
L 581 3500 
L 1159 3500 
L 1159 2956 
Q 1366 3272 1645 3428 
Q 1925 3584 2291 3584 
Q 2894 3584 3203 3211 
Q 3513 2838 3513 2113 
z
" transform="scale(0.015625)"/>
      <path id="DejaVuSans-69" d="M 603 3500 
L 1178 3500 
L 1178 0 
L 603 0 
L 603 3500 
z
M 603 4863 
L 1178 4863 
L 1178 4134 
L 603 4134 
L 603 4863 
z
" transform="scale(0.015625)"/>
      <path id="DejaVuSans-67" d="M 2906 1791 
Q 2906 2416 2648 2759 
Q 2391 3103 1925 3103 
Q 1463 3103 1205 2759 
Q 947 2416 947 1791 
Q 947 1169 1205 825 
Q 1463 481 1925 481 
Q 2391 481 2648 825 
Q 2906 1169 2906 1791 
z
M 3481 434 
Q 3481 -459 3084 -895 
Q 2688 -1331 1869 -1331 
Q 1566 -1331 1297 -1286 
Q 1028 -1241 775 -1147 
L 775 -588 
Q 1028 -725 1275 -790 
Q 1522 -856 1778 -856 
Q 2344 -856 2625 -561 
Q 2906 -266 2906 331 
L 2906 616 
Q 2728 306 2450 153 
Q 2172 0 1784 0 
Q 1141 0 747 490 
Q 353 981 353 1791 
Q 353 2603 747 3093 
Q 1141 3584 1784 3584 
Q 2172 3584 2450 3431 
Q 2728 3278 2906 2969 
L 2906 3500 
L 3481 3500 
L 3481 434 
z
" transform="scale(0.015625)"/>
      <path id="DejaVuSans-20" transform="scale(0.015625)"/>
      <path id="DejaVuSans-43" d="M 4122 4306 
L 4122 3641 
Q 3803 3938 3442 4084 
Q 3081 4231 2675 4231 
Q 1875 4231 1450 3742 
Q 1025 3253 1025 2328 
Q 1025 1406 1450 917 
Q 1875 428 2675 428 
Q 3081 428 3442 575 
Q 3803 722 4122 1019 
L 4122 359 
Q 3791 134 3420 21 
Q 3050 -91 2638 -91 
Q 1578 -91 968 557 
Q 359 1206 359 2328 
Q 359 3453 968 4101 
Q 1578 4750 2638 4750 
Q 3056 4750 3426 4639 
Q 3797 4528 4122 4306 
z
" transform="scale(0.015625)"/>
      <path id="DejaVuSans-76" d="M 191 3500 
L 800 3500 
L 1894 563 
L 2988 3500 
L 3597 3500 
L 2284 0 
L 1503 0 
L 191 3500 
z
" transform="scale(0.015625)"/>
     </defs>
     <use xlink:href="#DejaVuSans-4c"/>
     <use xlink:href="#DejaVuSans-65" x="53.962891"/>
     <use xlink:href="#DejaVuSans-61" x="115.486328"/>
     <use xlink:href="#DejaVuSans-72" x="176.765625"/>
     <use xlink:href="#DejaVuSans-6e" x="216.128906"/>
     <use xlink:href="#DejaVuSans-69" x="279.507812"/>
     <use xlink:href="#DejaVuSans-6e" x="307.291016"/>
     <use xlink:href="#DejaVuSans-67" x="370.669922"/>
     <use xlink:href="#DejaVuSans-20" x="434.146484"/>
     <use xlink:href="#DejaVuSans-43" x="465.933594"/>
     <use xlink:href="#DejaVuSans-75" x="535.757812"/>
     <use xlink:href="#DejaVuSans-72" x="599.136719"/>
     <use xlink:href="#DejaVuSans-76" x="640.25"/>
     <use xlink:href="#DejaVuSans-65" x="699.429688"/>
     <use xlink:href="#DejaVuSans-73" x="760.953125"/>
    </g>
   </g>
   <g id="legend_1">
    <g id="patch_7">
     <path d="M 139.394375 212.723313 
L 332.925625 212.723313 
Q 334.925625 212.723313 334.925625 210.723313 
L 334.925625 138.332688 
Q 334.925625 136.332688 332.925625 136.332688 
L 139.394375 136.332688 
Q 137.394375 136.332688 137.394375 138.332688 
L 137.394375 210.723313 
Q 137.394375 212.723313 139.394375 212.723313 
z
" style="fill: #ffffff; opacity: 0.8; stroke: #cccccc; stroke-linejoin: miter"/>
    </g>
    <g id="line2d_24">
     <path d="M 141.394375 144.431125 
L 151.394375 144.431125 
L 161.394375 144.431125 
" style="fill: none; stroke: #1f77b4; stroke-width: 1.5; stroke-linecap: square"/>
    </g>
    <g id="text_22">
     <!-- Train Accuracy -->
     <g transform="translate(169.394375 147.931125) scale(0.1 -0.1)">
      <defs>
       <path id="DejaVuSans-54" d="M -19 4666 
L 3928 4666 
L 3928 4134 
L 2272 4134 
L 2272 0 
L 1638 0 
L 1638 4134 
L -19 4134 
L -19 4666 
z
" transform="scale(0.015625)"/>
      </defs>
      <use xlink:href="#DejaVuSans-54"/>
      <use xlink:href="#DejaVuSans-72" x="46.333984"/>
      <use xlink:href="#DejaVuSans-61" x="87.447266"/>
      <use xlink:href="#DejaVuSans-69" x="148.726562"/>
      <use xlink:href="#DejaVuSans-6e" x="176.509766"/>
      <use xlink:href="#DejaVuSans-20" x="239.888672"/>
      <use xlink:href="#DejaVuSans-41" x="271.675781"/>
      <use xlink:href="#DejaVuSans-63" x="338.333984"/>
      <use xlink:href="#DejaVuSans-63" x="393.314453"/>
      <use xlink:href="#DejaVuSans-75" x="448.294922"/>
      <use xlink:href="#DejaVuSans-72" x="511.673828"/>
      <use xlink:href="#DejaVuSans-61" x="552.787109"/>
      <use xlink:href="#DejaVuSans-63" x="614.066406"/>
      <use xlink:href="#DejaVuSans-79" x="669.046875"/>
     </g>
    </g>
    <g id="line2d_25">
     <path d="M 141.394375 159.10925 
L 151.394375 159.10925 
L 161.394375 159.10925 
" style="fill: none; stroke: #ff7f0e; stroke-width: 1.5; stroke-linecap: square"/>
    </g>
    <g id="text_23">
     <!-- Validation Accuracy -->
     <g transform="translate(169.394375 162.60925) scale(0.1 -0.1)">
      <defs>
       <path id="DejaVuSans-56" d="M 1831 0 
L 50 4666 
L 709 4666 
L 2188 738 
L 3669 4666 
L 4325 4666 
L 2547 0 
L 1831 0 
z
" transform="scale(0.015625)"/>
       <path id="DejaVuSans-6c" d="M 603 4863 
L 1178 4863 
L 1178 0 
L 603 0 
L 603 4863 
z
" transform="scale(0.015625)"/>
       <path id="DejaVuSans-64" d="M 2906 2969 
L 2906 4863 
L 3481 4863 
L 3481 0 
L 2906 0 
L 2906 525 
Q 2725 213 2448 61 
Q 2172 -91 1784 -91 
Q 1150 -91 751 415 
Q 353 922 353 1747 
Q 353 2572 751 3078 
Q 1150 3584 1784 3584 
Q 2172 3584 2448 3432 
Q 2725 3281 2906 2969 
z
M 947 1747 
Q 947 1113 1208 752 
Q 1469 391 1925 391 
Q 2381 391 2643 752 
Q 2906 1113 2906 1747 
Q 2906 2381 2643 2742 
Q 2381 3103 1925 3103 
Q 1469 3103 1208 2742 
Q 947 2381 947 1747 
z
" transform="scale(0.015625)"/>
       <path id="DejaVuSans-74" d="M 1172 4494 
L 1172 3500 
L 2356 3500 
L 2356 3053 
L 1172 3053 
L 1172 1153 
Q 1172 725 1289 603 
Q 1406 481 1766 481 
L 2356 481 
L 2356 0 
L 1766 0 
Q 1100 0 847 248 
Q 594 497 594 1153 
L 594 3053 
L 172 3053 
L 172 3500 
L 594 3500 
L 594 4494 
L 1172 4494 
z
" transform="scale(0.015625)"/>
      </defs>
      <use xlink:href="#DejaVuSans-56"/>
      <use xlink:href="#DejaVuSans-61" x="60.658203"/>
      <use xlink:href="#DejaVuSans-6c" x="121.9375"/>
      <use xlink:href="#DejaVuSans-69" x="149.720703"/>
      <use xlink:href="#DejaVuSans-64" x="177.503906"/>
      <use xlink:href="#DejaVuSans-61" x="240.980469"/>
      <use xlink:href="#DejaVuSans-74" x="302.259766"/>
      <use xlink:href="#DejaVuSans-69" x="341.46875"/>
      <use xlink:href="#DejaVuSans-6f" x="369.251953"/>
      <use xlink:href="#DejaVuSans-6e" x="430.433594"/>
      <use xlink:href="#DejaVuSans-20" x="493.8125"/>
      <use xlink:href="#DejaVuSans-41" x="525.599609"/>
      <use xlink:href="#DejaVuSans-63" x="592.257812"/>
      <use xlink:href="#DejaVuSans-63" x="647.238281"/>
      <use xlink:href="#DejaVuSans-75" x="702.21875"/>
      <use xlink:href="#DejaVuSans-72" x="765.597656"/>
      <use xlink:href="#DejaVuSans-61" x="806.710938"/>
      <use xlink:href="#DejaVuSans-63" x="867.990234"/>
      <use xlink:href="#DejaVuSans-79" x="922.970703"/>
     </g>
    </g>
    <g id="line2d_26">
     <path d="M 141.394375 173.787375 
L 151.394375 173.787375 
L 161.394375 173.787375 
" style="fill: none; stroke: #2ca02c; stroke-width: 1.5; stroke-linecap: square"/>
    </g>
    <g id="text_24">
     <!-- Robust Validation Accuracy -->
     <g transform="translate(169.394375 177.287375) scale(0.1 -0.1)">
      <defs>
       <path id="DejaVuSans-52" d="M 2841 2188 
Q 3044 2119 3236 1894 
Q 3428 1669 3622 1275 
L 4263 0 
L 3584 0 
L 2988 1197 
Q 2756 1666 2539 1819 
Q 2322 1972 1947 1972 
L 1259 1972 
L 1259 0 
L 628 0 
L 628 4666 
L 2053 4666 
Q 2853 4666 3247 4331 
Q 3641 3997 3641 3322 
Q 3641 2881 3436 2590 
Q 3231 2300 2841 2188 
z
M 1259 4147 
L 1259 2491 
L 2053 2491 
Q 2509 2491 2742 2702 
Q 2975 2913 2975 3322 
Q 2975 3731 2742 3939 
Q 2509 4147 2053 4147 
L 1259 4147 
z
" transform="scale(0.015625)"/>
       <path id="DejaVuSans-62" d="M 3116 1747 
Q 3116 2381 2855 2742 
Q 2594 3103 2138 3103 
Q 1681 3103 1420 2742 
Q 1159 2381 1159 1747 
Q 1159 1113 1420 752 
Q 1681 391 2138 391 
Q 2594 391 2855 752 
Q 3116 1113 3116 1747 
z
M 1159 2969 
Q 1341 3281 1617 3432 
Q 1894 3584 2278 3584 
Q 2916 3584 3314 3078 
Q 3713 2572 3713 1747 
Q 3713 922 3314 415 
Q 2916 -91 2278 -91 
Q 1894 -91 1617 61 
Q 1341 213 1159 525 
L 1159 0 
L 581 0 
L 581 4863 
L 1159 4863 
L 1159 2969 
z
" transform="scale(0.015625)"/>
      </defs>
      <use xlink:href="#DejaVuSans-52"/>
      <use xlink:href="#DejaVuSans-6f" x="64.982422"/>
      <use xlink:href="#DejaVuSans-62" x="126.164062"/>
      <use xlink:href="#DejaVuSans-75" x="189.640625"/>
      <use xlink:href="#DejaVuSans-73" x="253.019531"/>
      <use xlink:href="#DejaVuSans-74" x="305.119141"/>
      <use xlink:href="#DejaVuSans-20" x="344.328125"/>
      <use xlink:href="#DejaVuSans-56" x="376.115234"/>
      <use xlink:href="#DejaVuSans-61" x="436.773438"/>
      <use xlink:href="#DejaVuSans-6c" x="498.052734"/>
      <use xlink:href="#DejaVuSans-69" x="525.835938"/>
      <use xlink:href="#DejaVuSans-64" x="553.619141"/>
      <use xlink:href="#DejaVuSans-61" x="617.095703"/>
      <use xlink:href="#DejaVuSans-74" x="678.375"/>
      <use xlink:href="#DejaVuSans-69" x="717.583984"/>
      <use xlink:href="#DejaVuSans-6f" x="745.367188"/>
      <use xlink:href="#DejaVuSans-6e" x="806.548828"/>
      <use xlink:href="#DejaVuSans-20" x="869.927734"/>
      <use xlink:href="#DejaVuSans-41" x="901.714844"/>
      <use xlink:href="#DejaVuSans-63" x="968.373047"/>
      <use xlink:href="#DejaVuSans-63" x="1023.353516"/>
      <use xlink:href="#DejaVuSans-75" x="1078.333984"/>
      <use xlink:href="#DejaVuSans-72" x="1141.712891"/>
      <use xlink:href="#DejaVuSans-61" x="1182.826172"/>
      <use xlink:href="#DejaVuSans-63" x="1244.105469"/>
      <use xlink:href="#DejaVuSans-79" x="1299.085938"/>
     </g>
    </g>
    <g id="line2d_27">
     <path d="M 141.394375 188.4655 
L 151.394375 188.4655 
L 161.394375 188.4655 
" style="fill: none; stroke: #d62728; stroke-width: 1.5; stroke-linecap: square"/>
    </g>
    <g id="text_25">
     <!-- SWA Validation Accuracy -->
     <g transform="translate(169.394375 191.9655) scale(0.1 -0.1)">
      <defs>
       <path id="DejaVuSans-53" d="M 3425 4513 
L 3425 3897 
Q 3066 4069 2747 4153 
Q 2428 4238 2131 4238 
Q 1616 4238 1336 4038 
Q 1056 3838 1056 3469 
Q 1056 3159 1242 3001 
Q 1428 2844 1947 2747 
L 2328 2669 
Q 3034 2534 3370 2195 
Q 3706 1856 3706 1288 
Q 3706 609 3251 259 
Q 2797 -91 1919 -91 
Q 1588 -91 1214 -16 
Q 841 59 441 206 
L 441 856 
Q 825 641 1194 531 
Q 1563 422 1919 422 
Q 2459 422 2753 634 
Q 3047 847 3047 1241 
Q 3047 1584 2836 1778 
Q 2625 1972 2144 2069 
L 1759 2144 
Q 1053 2284 737 2584 
Q 422 2884 422 3419 
Q 422 4038 858 4394 
Q 1294 4750 2059 4750 
Q 2388 4750 2728 4690 
Q 3069 4631 3425 4513 
z
" transform="scale(0.015625)"/>
       <path id="DejaVuSans-57" d="M 213 4666 
L 850 4666 
L 1831 722 
L 2809 4666 
L 3519 4666 
L 4500 722 
L 5478 4666 
L 6119 4666 
L 4947 0 
L 4153 0 
L 3169 4050 
L 2175 0 
L 1381 0 
L 213 4666 
z
" transform="scale(0.015625)"/>
      </defs>
      <use xlink:href="#DejaVuSans-53"/>
      <use xlink:href="#DejaVuSans-57" x="63.476562"/>
      <use xlink:href="#DejaVuSans-41" x="156.853516"/>
      <use xlink:href="#DejaVuSans-20" x="225.261719"/>
      <use xlink:href="#DejaVuSans-56" x="257.048828"/>
      <use xlink:href="#DejaVuSans-61" x="317.707031"/>
      <use xlink:href="#DejaVuSans-6c" x="378.986328"/>
      <use xlink:href="#DejaVuSans-69" x="406.769531"/>
      <use xlink:href="#DejaVuSans-64" x="434.552734"/>
      <use xlink:href="#DejaVuSans-61" x="498.029297"/>
      <use xlink:href="#DejaVuSans-74" x="559.308594"/>
      <use xlink:href="#DejaVuSans-69" x="598.517578"/>
      <use xlink:href="#DejaVuSans-6f" x="626.300781"/>
      <use xlink:href="#DejaVuSans-6e" x="687.482422"/>
      <use xlink:href="#DejaVuSans-20" x="750.861328"/>
      <use xlink:href="#DejaVuSans-41" x="782.648438"/>
      <use xlink:href="#DejaVuSans-63" x="849.306641"/>
      <use xlink:href="#DejaVuSans-63" x="904.287109"/>
      <use xlink:href="#DejaVuSans-75" x="959.267578"/>
      <use xlink:href="#DejaVuSans-72" x="1022.646484"/>
      <use xlink:href="#DejaVuSans-61" x="1063.759766"/>
      <use xlink:href="#DejaVuSans-63" x="1125.039062"/>
      <use xlink:href="#DejaVuSans-79" x="1180.019531"/>
     </g>
    </g>
    <g id="line2d_28">
     <path d="M 141.394375 203.143625 
L 151.394375 203.143625 
L 161.394375 203.143625 
" style="fill: none; stroke: #9467bd; stroke-width: 1.5; stroke-linecap: square"/>
    </g>
    <g id="text_26">
     <!-- SWA Robust Validation Accuracy -->
     <g transform="translate(169.394375 206.643625) scale(0.1 -0.1)">
      <use xlink:href="#DejaVuSans-53"/>
      <use xlink:href="#DejaVuSans-57" x="63.476562"/>
      <use xlink:href="#DejaVuSans-41" x="156.853516"/>
      <use xlink:href="#DejaVuSans-20" x="225.261719"/>
      <use xlink:href="#DejaVuSans-52" x="257.048828"/>
      <use xlink:href="#DejaVuSans-6f" x="322.03125"/>
      <use xlink:href="#DejaVuSans-62" x="383.212891"/>
      <use xlink:href="#DejaVuSans-75" x="446.689453"/>
      <use xlink:href="#DejaVuSans-73" x="510.068359"/>
      <use xlink:href="#DejaVuSans-74" x="562.167969"/>
      <use xlink:href="#DejaVuSans-20" x="601.376953"/>
      <use xlink:href="#DejaVuSans-56" x="633.164062"/>
      <use xlink:href="#DejaVuSans-61" x="693.822266"/>
      <use xlink:href="#DejaVuSans-6c" x="755.101562"/>
      <use xlink:href="#DejaVuSans-69" x="782.884766"/>
      <use xlink:href="#DejaVuSans-64" x="810.667969"/>
      <use xlink:href="#DejaVuSans-61" x="874.144531"/>
      <use xlink:href="#DejaVuSans-74" x="935.423828"/>
      <use xlink:href="#DejaVuSans-69" x="974.632812"/>
      <use xlink:href="#DejaVuSans-6f" x="1002.416016"/>
      <use xlink:href="#DejaVuSans-6e" x="1063.597656"/>
      <use xlink:href="#DejaVuSans-20" x="1126.976562"/>
      <use xlink:href="#DejaVuSans-41" x="1158.763672"/>
      <use xlink:href="#DejaVuSans-63" x="1225.421875"/>
      <use xlink:href="#DejaVuSans-63" x="1280.402344"/>
      <use xlink:href="#DejaVuSans-75" x="1335.382812"/>
      <use xlink:href="#DejaVuSans-72" x="1398.761719"/>
      <use xlink:href="#DejaVuSans-61" x="1439.875"/>
      <use xlink:href="#DejaVuSans-63" x="1501.154297"/>
      <use xlink:href="#DejaVuSans-79" x="1556.134766"/>
     </g>
    </g>
   </g>
  </g>
 </g>
 <defs>
  <clipPath id="p8d1003a174">
   <rect x="57.6" y="41.472" width="357.12" height="266.112"/>
  </clipPath>
 </defs>
</svg>
