<?xml version="1.0" encoding="utf-8" standalone="no"?>
<!DOCTYPE svg PUBLIC "-//W3C//DTD SVG 1.1//EN"
  "http://www.w3.org/Graphics/SVG/1.1/DTD/svg11.dtd">
<svg xmlns:xlink="http://www.w3.org/1999/xlink" width="460.8pt" height="345.6pt" viewBox="0 0 460.8 345.6" xmlns="http://www.w3.org/2000/svg" version="1.1">
 <metadata>
  <rdf:RDF xmlns:dc="http://purl.org/dc/elements/1.1/" xmlns:cc="http://creativecommons.org/ns#" xmlns:rdf="http://www.w3.org/1999/02/22-rdf-syntax-ns#">
   <cc:Work>
    <dc:type rdf:resource="http://purl.org/dc/dcmitype/StillImage"/>
    <dc:date>2025-10-18T05:31:31.339669</dc:date>
    <dc:format>image/svg+xml</dc:format>
    <dc:creator>
     <cc:Agent>
      <dc:title>Matplotlib v3.9.1, https://matplotlib.org/</dc:title>
     </cc:Agent>
    </dc:creator>
   </cc:Work>
  </rdf:RDF>
 </metadata>
 <defs>
  <style type="text/css">*{stroke-linejoin: round; stroke-linecap: butt}</style>
 </defs>
 <g id="figure_1">
  <g id="patch_1">
   <path d="M 0 345.6 
L 460.8 345.6 
L 460.8 0 
L 0 0 
z
" style="fill: #ffffff"/>
  </g>
  <g id="axes_1">
   <g id="patch_2">
    <path d="M 57.6 307.584 
L 414.72 307.584 
L 414.72 41.472 
L 57.6 41.472 
z
" style="fill: #ffffff"/>
   </g>
   <g id="matplotlib.axis_1">
    <g id="xtick_1">
     <g id="line2d_1">
      <defs>
       <path id="m8e4c3298e0" d="M 0 0 
L 0 3.5 
" style="stroke: #000000; stroke-width: 0.8"/>
      </defs>
      <g>
       <use xlink:href="#m8e4c3298e0" x="73.832727" y="307.584" style="stroke: #000000; stroke-width: 0.8"/>
      </g>
     </g>
     <g id="text_1">
      <!-- 1 -->
      <g transform="translate(70.651477 322.182437) scale(0.1 -0.1)">
       <defs>
        <path id="DejaVuSans-31" d="M 794 531 
L 1825 531 
L 1825 4091 
L 703 3866 
L 703 4441 
L 1819 4666 
L 2450 4666 
L 2450 531 
L 3481 531 
L 3481 0 
L 794 0 
L 794 531 
z
" transform="scale(0.015625)"/>
       </defs>
       <use xlink:href="#DejaVuSans-31"/>
      </g>
     </g>
    </g>
    <g id="xtick_2">
     <g id="line2d_2">
      <g>
       <use xlink:href="#m8e4c3298e0" x="109.664165" y="307.584" style="stroke: #000000; stroke-width: 0.8"/>
      </g>
     </g>
     <g id="text_2">
      <!-- 34 -->
      <g transform="translate(103.301665 322.182437) scale(0.1 -0.1)">
       <defs>
        <path id="DejaVuSans-33" d="M 2597 2516 
Q 3050 2419 3304 2112 
Q 3559 1806 3559 1356 
Q 3559 666 3084 287 
Q 2609 -91 1734 -91 
Q 1441 -91 1130 -33 
Q 819 25 488 141 
L 488 750 
Q 750 597 1062 519 
Q 1375 441 1716 441 
Q 2309 441 2620 675 
Q 2931 909 2931 1356 
Q 2931 1769 2642 2001 
Q 2353 2234 1838 2234 
L 1294 2234 
L 1294 2753 
L 1863 2753 
Q 2328 2753 2575 2939 
Q 2822 3125 2822 3475 
Q 2822 3834 2567 4026 
Q 2313 4219 1838 4219 
Q 1578 4219 1281 4162 
Q 984 4106 628 3988 
L 628 4550 
Q 988 4650 1302 4700 
Q 1616 4750 1894 4750 
Q 2613 4750 3031 4423 
Q 3450 4097 3450 3541 
Q 3450 3153 3228 2886 
Q 3006 2619 2597 2516 
z
" transform="scale(0.015625)"/>
        <path id="DejaVuSans-34" d="M 2419 4116 
L 825 1625 
L 2419 1625 
L 2419 4116 
z
M 2253 4666 
L 3047 4666 
L 3047 1625 
L 3713 1625 
L 3713 1100 
L 3047 1100 
L 3047 0 
L 2419 0 
L 2419 1100 
L 313 1100 
L 313 1709 
L 2253 4666 
z
" transform="scale(0.015625)"/>
       </defs>
       <use xlink:href="#DejaVuSans-33"/>
       <use xlink:href="#DejaVuSans-34" x="63.623047"/>
      </g>
     </g>
    </g>
    <g id="xtick_3">
     <g id="line2d_3">
      <g>
       <use xlink:href="#m8e4c3298e0" x="145.495604" y="307.584" style="stroke: #000000; stroke-width: 0.8"/>
      </g>
     </g>
     <g id="text_3">
      <!-- 67 -->
      <g transform="translate(139.133104 322.182437) scale(0.1 -0.1)">
       <defs>
        <path id="DejaVuSans-36" d="M 2113 2584 
Q 1688 2584 1439 2293 
Q 1191 2003 1191 1497 
Q 1191 994 1439 701 
Q 1688 409 2113 409 
Q 2538 409 2786 701 
Q 3034 994 3034 1497 
Q 3034 2003 2786 2293 
Q 2538 2584 2113 2584 
z
M 3366 4563 
L 3366 3988 
Q 3128 4100 2886 4159 
Q 2644 4219 2406 4219 
Q 1781 4219 1451 3797 
Q 1122 3375 1075 2522 
Q 1259 2794 1537 2939 
Q 1816 3084 2150 3084 
Q 2853 3084 3261 2657 
Q 3669 2231 3669 1497 
Q 3669 778 3244 343 
Q 2819 -91 2113 -91 
Q 1303 -91 875 529 
Q 447 1150 447 2328 
Q 447 3434 972 4092 
Q 1497 4750 2381 4750 
Q 2619 4750 2861 4703 
Q 3103 4656 3366 4563 
z
" transform="scale(0.015625)"/>
        <path id="DejaVuSans-37" d="M 525 4666 
L 3525 4666 
L 3525 4397 
L 1831 0 
L 1172 0 
L 2766 4134 
L 525 4134 
L 525 4666 
z
" transform="scale(0.015625)"/>
       </defs>
       <use xlink:href="#DejaVuSans-36"/>
       <use xlink:href="#DejaVuSans-37" x="63.623047"/>
      </g>
     </g>
    </g>
    <g id="xtick_4">
     <g id="line2d_4">
      <g>
       <use xlink:href="#m8e4c3298e0" x="181.327042" y="307.584" style="stroke: #000000; stroke-width: 0.8"/>
      </g>
     </g>
     <g id="text_4">
      <!-- 100 -->
      <g transform="translate(171.783292 322.182437) scale(0.1 -0.1)">
       <defs>
        <path id="DejaVuSans-30" d="M 2034 4250 
Q 1547 4250 1301 3770 
Q 1056 3291 1056 2328 
Q 1056 1369 1301 889 
Q 1547 409 2034 409 
Q 2525 409 2770 889 
Q 3016 1369 3016 2328 
Q 3016 3291 2770 3770 
Q 2525 4250 2034 4250 
z
M 2034 4750 
Q 2819 4750 3233 4129 
Q 3647 3509 3647 2328 
Q 3647 1150 3233 529 
Q 2819 -91 2034 -91 
Q 1250 -91 836 529 
Q 422 1150 422 2328 
Q 422 3509 836 4129 
Q 1250 4750 2034 4750 
z
" transform="scale(0.015625)"/>
       </defs>
       <use xlink:href="#DejaVuSans-31"/>
       <use xlink:href="#DejaVuSans-30" x="63.623047"/>
       <use xlink:href="#DejaVuSans-30" x="127.246094"/>
      </g>
     </g>
    </g>
    <g id="xtick_5">
     <g id="line2d_5">
      <g>
       <use xlink:href="#m8e4c3298e0" x="217.15848" y="307.584" style="stroke: #000000; stroke-width: 0.8"/>
      </g>
     </g>
     <g id="text_5">
      <!-- 133 -->
      <g transform="translate(207.61473 322.182437) scale(0.1 -0.1)">
       <use xlink:href="#DejaVuSans-31"/>
       <use xlink:href="#DejaVuSans-33" x="63.623047"/>
       <use xlink:href="#DejaVuSans-33" x="127.246094"/>
      </g>
     </g>
    </g>
    <g id="xtick_6">
     <g id="line2d_6">
      <g>
       <use xlink:href="#m8e4c3298e0" x="254.075719" y="307.584" style="stroke: #000000; stroke-width: 0.8"/>
      </g>
     </g>
     <g id="text_6">
      <!-- 167 -->
      <g transform="translate(244.531969 322.182437) scale(0.1 -0.1)">
       <use xlink:href="#DejaVuSans-31"/>
       <use xlink:href="#DejaVuSans-36" x="63.623047"/>
       <use xlink:href="#DejaVuSans-37" x="127.246094"/>
      </g>
     </g>
    </g>
    <g id="xtick_7">
     <g id="line2d_7">
      <g>
       <use xlink:href="#m8e4c3298e0" x="289.907157" y="307.584" style="stroke: #000000; stroke-width: 0.8"/>
      </g>
     </g>
     <g id="text_7">
      <!-- 200 -->
      <g transform="translate(280.363407 322.182437) scale(0.1 -0.1)">
       <defs>
        <path id="DejaVuSans-32" d="M 1228 531 
L 3431 531 
L 3431 0 
L 469 0 
L 469 531 
Q 828 903 1448 1529 
Q 2069 2156 2228 2338 
Q 2531 2678 2651 2914 
Q 2772 3150 2772 3378 
Q 2772 3750 2511 3984 
Q 2250 4219 1831 4219 
Q 1534 4219 1204 4116 
Q 875 4013 500 3803 
L 500 4441 
Q 881 4594 1212 4672 
Q 1544 4750 1819 4750 
Q 2544 4750 2975 4387 
Q 3406 4025 3406 3419 
Q 3406 3131 3298 2873 
Q 3191 2616 2906 2266 
Q 2828 2175 2409 1742 
Q 1991 1309 1228 531 
z
" transform="scale(0.015625)"/>
       </defs>
       <use xlink:href="#DejaVuSans-32"/>
       <use xlink:href="#DejaVuSans-30" x="63.623047"/>
       <use xlink:href="#DejaVuSans-30" x="127.246094"/>
      </g>
     </g>
    </g>
    <g id="xtick_8">
     <g id="line2d_8">
      <g>
       <use xlink:href="#m8e4c3298e0" x="325.738595" y="307.584" style="stroke: #000000; stroke-width: 0.8"/>
      </g>
     </g>
     <g id="text_8">
      <!-- 233 -->
      <g transform="translate(316.194845 322.182437) scale(0.1 -0.1)">
       <use xlink:href="#DejaVuSans-32"/>
       <use xlink:href="#DejaVuSans-33" x="63.623047"/>
       <use xlink:href="#DejaVuSans-33" x="127.246094"/>
      </g>
     </g>
    </g>
    <g id="xtick_9">
     <g id="line2d_9">
      <g>
       <use xlink:href="#m8e4c3298e0" x="361.570033" y="307.584" style="stroke: #000000; stroke-width: 0.8"/>
      </g>
     </g>
     <g id="text_9">
      <!-- 266 -->
      <g transform="translate(352.026283 322.182437) scale(0.1 -0.1)">
       <use xlink:href="#DejaVuSans-32"/>
       <use xlink:href="#DejaVuSans-36" x="63.623047"/>
       <use xlink:href="#DejaVuSans-36" x="127.246094"/>
      </g>
     </g>
    </g>
    <g id="xtick_10">
     <g id="line2d_10">
      <g>
       <use xlink:href="#m8e4c3298e0" x="398.487273" y="307.584" style="stroke: #000000; stroke-width: 0.8"/>
      </g>
     </g>
     <g id="text_10">
      <!-- 300 -->
      <g transform="translate(388.943523 322.182437) scale(0.1 -0.1)">
       <use xlink:href="#DejaVuSans-33"/>
       <use xlink:href="#DejaVuSans-30" x="63.623047"/>
       <use xlink:href="#DejaVuSans-30" x="127.246094"/>
      </g>
     </g>
    </g>
    <g id="text_11">
     <!-- Epochs -->
     <g transform="translate(218.244375 335.860562) scale(0.1 -0.1)">
      <defs>
       <path id="DejaVuSans-45" d="M 628 4666 
L 3578 4666 
L 3578 4134 
L 1259 4134 
L 1259 2753 
L 3481 2753 
L 3481 2222 
L 1259 2222 
L 1259 531 
L 3634 531 
L 3634 0 
L 628 0 
L 628 4666 
z
" transform="scale(0.015625)"/>
       <path id="DejaVuSans-70" d="M 1159 525 
L 1159 -1331 
L 581 -1331 
L 581 3500 
L 1159 3500 
L 1159 2969 
Q 1341 3281 1617 3432 
Q 1894 3584 2278 3584 
Q 2916 3584 3314 3078 
Q 3713 2572 3713 1747 
Q 3713 922 3314 415 
Q 2916 -91 2278 -91 
Q 1894 -91 1617 61 
Q 1341 213 1159 525 
z
M 3116 1747 
Q 3116 2381 2855 2742 
Q 2594 3103 2138 3103 
Q 1681 3103 1420 2742 
Q 1159 2381 1159 1747 
Q 1159 1113 1420 752 
Q 1681 391 2138 391 
Q 2594 391 2855 752 
Q 3116 1113 3116 1747 
z
" transform="scale(0.015625)"/>
       <path id="DejaVuSans-6f" d="M 1959 3097 
Q 1497 3097 1228 2736 
Q 959 2375 959 1747 
Q 959 1119 1226 758 
Q 1494 397 1959 397 
Q 2419 397 2687 759 
Q 2956 1122 2956 1747 
Q 2956 2369 2687 2733 
Q 2419 3097 1959 3097 
z
M 1959 3584 
Q 2709 3584 3137 3096 
Q 3566 2609 3566 1747 
Q 3566 888 3137 398 
Q 2709 -91 1959 -91 
Q 1206 -91 779 398 
Q 353 888 353 1747 
Q 353 2609 779 3096 
Q 1206 3584 1959 3584 
z
" transform="scale(0.015625)"/>
       <path id="DejaVuSans-63" d="M 3122 3366 
L 3122 2828 
Q 2878 2963 2633 3030 
Q 2388 3097 2138 3097 
Q 1578 3097 1268 2742 
Q 959 2388 959 1747 
Q 959 1106 1268 751 
Q 1578 397 2138 397 
Q 2388 397 2633 464 
Q 2878 531 3122 666 
L 3122 134 
Q 2881 22 2623 -34 
Q 2366 -91 2075 -91 
Q 1284 -91 818 406 
Q 353 903 353 1747 
Q 353 2603 823 3093 
Q 1294 3584 2113 3584 
Q 2378 3584 2631 3529 
Q 2884 3475 3122 3366 
z
" transform="scale(0.015625)"/>
       <path id="DejaVuSans-68" d="M 3513 2113 
L 3513 0 
L 2938 0 
L 2938 2094 
Q 2938 2591 2744 2837 
Q 2550 3084 2163 3084 
Q 1697 3084 1428 2787 
Q 1159 2491 1159 1978 
L 1159 0 
L 581 0 
L 581 4863 
L 1159 4863 
L 1159 2956 
Q 1366 3272 1645 3428 
Q 1925 3584 2291 3584 
Q 2894 3584 3203 3211 
Q 3513 2838 3513 2113 
z
" transform="scale(0.015625)"/>
       <path id="DejaVuSans-73" d="M 2834 3397 
L 2834 2853 
Q 2591 2978 2328 3040 
Q 2066 3103 1784 3103 
Q 1356 3103 1142 2972 
Q 928 2841 928 2578 
Q 928 2378 1081 2264 
Q 1234 2150 1697 2047 
L 1894 2003 
Q 2506 1872 2764 1633 
Q 3022 1394 3022 966 
Q 3022 478 2636 193 
Q 2250 -91 1575 -91 
Q 1294 -91 989 -36 
Q 684 19 347 128 
L 347 722 
Q 666 556 975 473 
Q 1284 391 1588 391 
Q 1994 391 2212 530 
Q 2431 669 2431 922 
Q 2431 1156 2273 1281 
Q 2116 1406 1581 1522 
L 1381 1569 
Q 847 1681 609 1914 
Q 372 2147 372 2553 
Q 372 3047 722 3315 
Q 1072 3584 1716 3584 
Q 2034 3584 2315 3537 
Q 2597 3491 2834 3397 
z
" transform="scale(0.015625)"/>
      </defs>
      <use xlink:href="#DejaVuSans-45"/>
      <use xlink:href="#DejaVuSans-70" x="63.183594"/>
      <use xlink:href="#DejaVuSans-6f" x="126.660156"/>
      <use xlink:href="#DejaVuSans-63" x="187.841797"/>
      <use xlink:href="#DejaVuSans-68" x="242.822266"/>
      <use xlink:href="#DejaVuSans-73" x="306.201172"/>
     </g>
    </g>
   </g>
   <g id="matplotlib.axis_2">
    <g id="ytick_1">
     <g id="line2d_11">
      <defs>
       <path id="m8956ce2fdc" d="M 0 0 
L -3.5 0 
" style="stroke: #000000; stroke-width: 0.8"/>
      </defs>
      <g>
       <use xlink:href="#m8956ce2fdc" x="57.6" y="307.458277" style="stroke: #000000; stroke-width: 0.8"/>
      </g>
     </g>
     <g id="text_12">
      <!-- 0 -->
      <g transform="translate(44.2375 311.257496) scale(0.1 -0.1)">
       <use xlink:href="#DejaVuSans-30"/>
      </g>
     </g>
    </g>
    <g id="ytick_2">
     <g id="line2d_12">
      <g>
       <use xlink:href="#m8956ce2fdc" x="57.6" y="270.280026" style="stroke: #000000; stroke-width: 0.8"/>
      </g>
     </g>
     <g id="text_13">
      <!-- 10 -->
      <g transform="translate(37.875 274.079245) scale(0.1 -0.1)">
       <use xlink:href="#DejaVuSans-31"/>
       <use xlink:href="#DejaVuSans-30" x="63.623047"/>
      </g>
     </g>
    </g>
    <g id="ytick_3">
     <g id="line2d_13">
      <g>
       <use xlink:href="#m8956ce2fdc" x="57.6" y="233.101775" style="stroke: #000000; stroke-width: 0.8"/>
      </g>
     </g>
     <g id="text_14">
      <!-- 20 -->
      <g transform="translate(37.875 236.900994) scale(0.1 -0.1)">
       <use xlink:href="#DejaVuSans-32"/>
       <use xlink:href="#DejaVuSans-30" x="63.623047"/>
      </g>
     </g>
    </g>
    <g id="ytick_4">
     <g id="line2d_14">
      <g>
       <use xlink:href="#m8956ce2fdc" x="57.6" y="195.923524" style="stroke: #000000; stroke-width: 0.8"/>
      </g>
     </g>
     <g id="text_15">
      <!-- 30 -->
      <g transform="translate(37.875 199.722743) scale(0.1 -0.1)">
       <use xlink:href="#DejaVuSans-33"/>
       <use xlink:href="#DejaVuSans-30" x="63.623047"/>
      </g>
     </g>
    </g>
    <g id="ytick_5">
     <g id="line2d_15">
      <g>
       <use xlink:href="#m8956ce2fdc" x="57.6" y="158.745273" style="stroke: #000000; stroke-width: 0.8"/>
      </g>
     </g>
     <g id="text_16">
      <!-- 40 -->
      <g transform="translate(37.875 162.544491) scale(0.1 -0.1)">
       <use xlink:href="#DejaVuSans-34"/>
       <use xlink:href="#DejaVuSans-30" x="63.623047"/>
      </g>
     </g>
    </g>
    <g id="ytick_6">
     <g id="line2d_16">
      <g>
       <use xlink:href="#m8956ce2fdc" x="57.6" y="121.567021" style="stroke: #000000; stroke-width: 0.8"/>
      </g>
     </g>
     <g id="text_17">
      <!-- 50 -->
      <g transform="translate(37.875 125.36624) scale(0.1 -0.1)">
       <defs>
        <path id="DejaVuSans-35" d="M 691 4666 
L 3169 4666 
L 3169 4134 
L 1269 4134 
L 1269 2991 
Q 1406 3038 1543 3061 
Q 1681 3084 1819 3084 
Q 2600 3084 3056 2656 
Q 3513 2228 3513 1497 
Q 3513 744 3044 326 
Q 2575 -91 1722 -91 
Q 1428 -91 1123 -41 
Q 819 9 494 109 
L 494 744 
Q 775 591 1075 516 
Q 1375 441 1709 441 
Q 2250 441 2565 725 
Q 2881 1009 2881 1497 
Q 2881 1984 2565 2268 
Q 2250 2553 1709 2553 
Q 1456 2553 1204 2497 
Q 953 2441 691 2322 
L 691 4666 
z
" transform="scale(0.015625)"/>
       </defs>
       <use xlink:href="#DejaVuSans-35"/>
       <use xlink:href="#DejaVuSans-30" x="63.623047"/>
      </g>
     </g>
    </g>
    <g id="ytick_7">
     <g id="line2d_17">
      <g>
       <use xlink:href="#m8956ce2fdc" x="57.6" y="84.38877" style="stroke: #000000; stroke-width: 0.8"/>
      </g>
     </g>
     <g id="text_18">
      <!-- 60 -->
      <g transform="translate(37.875 88.187989) scale(0.1 -0.1)">
       <use xlink:href="#DejaVuSans-36"/>
       <use xlink:href="#DejaVuSans-30" x="63.623047"/>
      </g>
     </g>
    </g>
    <g id="ytick_8">
     <g id="line2d_18">
      <g>
       <use xlink:href="#m8956ce2fdc" x="57.6" y="47.210519" style="stroke: #000000; stroke-width: 0.8"/>
      </g>
     </g>
     <g id="text_19">
      <!-- 70 -->
      <g transform="translate(37.875 51.009738) scale(0.1 -0.1)">
       <use xlink:href="#DejaVuSans-37"/>
       <use xlink:href="#DejaVuSans-30" x="63.623047"/>
      </g>
     </g>
    </g>
    <g id="text_20">
     <!-- Accuracy -->
     <g transform="translate(31.795312 197.356125) rotate(-90) scale(0.1 -0.1)">
      <defs>
       <path id="DejaVuSans-41" d="M 2188 4044 
L 1331 1722 
L 3047 1722 
L 2188 4044 
z
M 1831 4666 
L 2547 4666 
L 4325 0 
L 3669 0 
L 3244 1197 
L 1141 1197 
L 716 0 
L 50 0 
L 1831 4666 
z
" transform="scale(0.015625)"/>
       <path id="DejaVuSans-75" d="M 544 1381 
L 544 3500 
L 1119 3500 
L 1119 1403 
Q 1119 906 1312 657 
Q 1506 409 1894 409 
Q 2359 409 2629 706 
Q 2900 1003 2900 1516 
L 2900 3500 
L 3475 3500 
L 3475 0 
L 2900 0 
L 2900 538 
Q 2691 219 2414 64 
Q 2138 -91 1772 -91 
Q 1169 -91 856 284 
Q 544 659 544 1381 
z
M 1991 3584 
L 1991 3584 
z
" transform="scale(0.015625)"/>
       <path id="DejaVuSans-72" d="M 2631 2963 
Q 2534 3019 2420 3045 
Q 2306 3072 2169 3072 
Q 1681 3072 1420 2755 
Q 1159 2438 1159 1844 
L 1159 0 
L 581 0 
L 581 3500 
L 1159 3500 
L 1159 2956 
Q 1341 3275 1631 3429 
Q 1922 3584 2338 3584 
Q 2397 3584 2469 3576 
Q 2541 3569 2628 3553 
L 2631 2963 
z
" transform="scale(0.015625)"/>
       <path id="DejaVuSans-61" d="M 2194 1759 
Q 1497 1759 1228 1600 
Q 959 1441 959 1056 
Q 959 750 1161 570 
Q 1363 391 1709 391 
Q 2188 391 2477 730 
Q 2766 1069 2766 1631 
L 2766 1759 
L 2194 1759 
z
M 3341 1997 
L 3341 0 
L 2766 0 
L 2766 531 
Q 2569 213 2275 61 
Q 1981 -91 1556 -91 
Q 1019 -91 701 211 
Q 384 513 384 1019 
Q 384 1609 779 1909 
Q 1175 2209 1959 2209 
L 2766 2209 
L 2766 2266 
Q 2766 2663 2505 2880 
Q 2244 3097 1772 3097 
Q 1472 3097 1187 3025 
Q 903 2953 641 2809 
L 641 3341 
Q 956 3463 1253 3523 
Q 1550 3584 1831 3584 
Q 2591 3584 2966 3190 
Q 3341 2797 3341 1997 
z
" transform="scale(0.015625)"/>
       <path id="DejaVuSans-79" d="M 2059 -325 
Q 1816 -950 1584 -1140 
Q 1353 -1331 966 -1331 
L 506 -1331 
L 506 -850 
L 844 -850 
Q 1081 -850 1212 -737 
Q 1344 -625 1503 -206 
L 1606 56 
L 191 3500 
L 800 3500 
L 1894 763 
L 2988 3500 
L 3597 3500 
L 2059 -325 
z
" transform="scale(0.015625)"/>
      </defs>
      <use xlink:href="#DejaVuSans-41"/>
      <use xlink:href="#DejaVuSans-63" x="66.658203"/>
      <use xlink:href="#DejaVuSans-63" x="121.638672"/>
      <use xlink:href="#DejaVuSans-75" x="176.619141"/>
      <use xlink:href="#DejaVuSans-72" x="239.998047"/>
      <use xlink:href="#DejaVuSans-61" x="281.111328"/>
      <use xlink:href="#DejaVuSans-63" x="342.390625"/>
      <use xlink:href="#DejaVuSans-79" x="397.371094"/>
     </g>
    </g>
   </g>
   <g id="line2d_19">
    <path d="M 73.832727 295.488 
L 74.918528 282.754217 
L 76.00433 272.117281 
L 78.175932 256.053869 
L 80.347534 245.327547 
L 81.433335 237.401987 
L 82.519137 230.80232 
L 83.604938 228.828379 
L 84.690739 227.729675 
L 85.77654 220.753842 
L 86.862341 216.411171 
L 87.948142 215.424201 
L 90.119745 206.485599 
L 91.205546 204.630839 
L 92.291347 203.398057 
L 93.377148 203.390608 
L 94.462949 203.904578 
L 95.54875 224.720346 
L 96.634552 225.230591 
L 97.720353 218.467049 
L 98.806154 216.135564 
L 99.891955 214.910231 
L 100.977756 214.928853 
L 103.149358 203.852436 
L 104.23516 207.018191 
L 105.320961 205.956732 
L 106.406762 203.468821 
L 107.492563 198.310503 
L 108.578364 196.757421 
L 109.664165 193.472485 
L 110.749967 192.187561 
L 111.835768 192.269498 
L 112.921569 188.891451 
L 114.00737 188.913798 
L 115.093171 186.157729 
L 116.178972 182.619533 
L 117.264773 181.535727 
L 118.350575 182.731265 
L 119.436376 174.969579 
L 120.522177 182.150256 
L 122.693779 174.705146 
L 124.865382 169.219079 
L 125.951183 172.351314 
L 128.122785 164.872684 
L 129.208586 165.990009 
L 130.294387 165.364307 
L 131.380189 161.636165 
L 132.46599 162.265592 
L 133.551791 162.217174 
L 134.637592 164.351266 
L 135.723393 161.863355 
L 136.809194 163.330775 
L 137.894995 161.624992 
L 138.980797 189.949186 
L 140.066598 194.399865 
L 141.152399 189.397972 
L 143.324001 187.889583 
L 144.409802 190.898912 
L 145.495604 187.234086 
L 146.581405 189.222925 
L 147.667206 185.170758 
L 148.753007 185.260144 
L 149.838808 184.094402 
L 150.924609 184.16889 
L 152.01041 182.537595 
L 153.096212 180.407229 
L 154.182013 180.805741 
L 155.267814 178.388595 
L 156.353615 179.275006 
L 157.439416 176.600874 
L 158.525217 176.425827 
L 159.611019 178.585989 
L 160.69682 174.172554 
L 161.782621 177.945389 
L 162.868422 175.625077 
L 163.954223 174.027302 
L 165.040024 168.101754 
L 166.125825 172.071983 
L 167.211627 171.140878 
L 168.297428 172.396007 
L 169.383229 171.63995 
L 170.46903 172.1204 
L 171.554831 169.75912 
L 172.640632 168.35129 
L 173.726434 168.098029 
L 174.812235 168.645519 
L 175.898036 165.613843 
L 176.983837 168.95837 
L 178.069638 163.848469 
L 179.155439 168.626897 
L 180.24124 164.779574 
L 181.327042 163.271185 
L 182.412843 162.094269 
L 183.498644 159.192948 
L 184.584445 159.703193 
L 185.670246 156.641722 
L 186.756047 155.651027 
L 187.841849 155.543019 
L 188.92765 158.60449 
L 190.013451 153.237604 
L 191.099252 156.425705 
L 192.185053 155.040222 
L 193.270854 153.382857 
L 194.356656 152.202216 
L 195.442457 152.127728 
L 196.528258 149.025288 
L 197.614059 148.142601 
L 198.69986 150.209653 
L 200.871462 145.919124 
L 201.957264 148.187294 
L 203.043065 145.919124 
L 204.128866 142.49266 
L 205.214667 146.150038 
L 206.300468 147.259914 
L 207.386269 142.678881 
L 208.472071 141.43865 
L 209.557872 142.447967 
L 211.729474 137.446075 
L 212.815275 137.822241 
L 213.901076 140.146277 
L 214.986877 140.336223 
L 216.072679 142.511282 
L 217.15848 140.768255 
L 218.244281 139.758938 
L 219.330082 136.466553 
L 220.415883 142.742196 
L 221.501684 140.734735 
L 222.587486 136.496348 
L 224.759088 140.630452 
L 225.844889 175.855991 
L 226.93069 178.548744 
L 228.016491 175.44258 
L 229.102292 179.647448 
L 230.188094 176.437 
L 231.273895 176.187464 
L 232.359696 173.662309 
L 233.445497 177.755444 
L 234.531298 173.14089 
L 235.617099 173.14089 
L 236.702901 173.360631 
L 237.788702 172.042187 
L 238.874503 169.829883 
L 239.960304 169.315914 
L 241.046105 171.654848 
L 242.131906 169.893199 
L 243.217708 173.055229 
L 244.303509 170.883894 
L 245.38931 171.323375 
L 246.475111 172.08688 
L 247.560912 169.103622 
L 248.646713 171.010524 
L 249.732514 168.708834 
L 250.818316 171.908108 
L 251.904117 169.483513 
L 252.989918 167.829871 
L 254.075719 163.39409 
L 256.247321 167.446256 
L 257.333123 168.83174 
L 258.418924 168.518889 
L 259.504725 168.012368 
L 260.590526 165.733024 
L 261.676327 166.85035 
L 262.762128 167.602682 
L 263.847929 160.593328 
L 264.933731 164.503967 
L 266.019532 164.574731 
L 267.105333 166.224647 
L 268.191134 165.211606 
L 269.276935 162.530025 
L 270.362736 164.172494 
L 271.448538 163.971375 
L 272.534339 163.379193 
L 273.62014 160.638021 
L 274.705941 166.086844 
L 275.791742 160.250682 
L 276.877543 163.129657 
L 277.963344 161.058881 
L 279.049146 160.582155 
L 280.134947 162.451813 
L 281.220748 163.308429 
L 282.306549 158.928514 
L 283.39235 160.228336 
L 284.478151 159.732988 
L 285.563953 160.384761 
L 286.649754 159.665949 
L 287.735555 161.610094 
L 288.821356 157.729252 
L 289.907157 154.611914 
L 290.992958 161.248826 
L 292.07876 155.658476 
L 293.164561 155.353073 
L 294.250362 155.699444 
L 295.336163 152.526241 
L 296.421964 157.312117 
L 297.507765 153.587699 
L 298.593566 155.453633 
L 299.679368 153.699432 
L 300.765169 153.45362 
L 301.85097 153.848409 
L 302.936771 153.367959 
L 304.022572 158.716222 
L 305.108373 152.772052 
L 306.194175 153.058832 
L 307.279976 154.619363 
L 308.365777 152.034617 
L 309.451578 153.829787 
L 310.537379 152.578382 
L 311.62318 151.066269 
L 312.708981 147.28971 
L 313.794783 150.101645 
L 314.880584 150.984332 
L 317.052186 146.932166 
L 318.137987 149.926597 
L 319.223788 147.461033 
L 320.30959 149.058808 
L 321.395391 150.261795 
L 322.481192 139.308283 
L 323.566993 145.978715 
L 324.652794 147.54297 
L 325.738595 147.44986 
L 326.824396 146.93589 
L 327.910198 149.371659 
L 330.0818 145.993613 
L 331.167601 139.889293 
L 332.253402 141.215185 
L 333.339203 139.989852 
L 334.425005 141.200287 
L 335.510806 144.023396 
L 336.596607 140.783153 
L 337.682408 143.412591 
L 338.768209 143.084843 
L 339.85401 142.537353 
L 340.939811 138.935842 
L 342.025613 140.649074 
L 343.111414 138.127643 
L 344.197215 136.634152 
L 345.283016 134.470265 
L 346.368817 136.77568 
L 347.454618 137.412555 
L 348.54042 137.22261 
L 349.626221 134.60062 
L 350.712022 137.256129 
L 351.797823 138.771967 
L 352.883624 137.006593 
L 353.969425 133.524263 
L 355.055227 133.997264 
L 356.141028 129.401333 
L 357.226829 132.496324 
L 358.31263 131.17788 
L 359.398431 134.678833 
L 360.484232 132.932081 
L 361.570033 132.228166 
L 362.655835 134.362257 
L 363.741636 130.373406 
L 364.827437 129.807295 
L 365.913238 130.455343 
L 366.999039 132.403214 
L 368.08484 129.673216 
L 369.170642 130.634115 
L 370.256443 132.131331 
L 371.342244 133.919052 
L 372.428045 139.691898 
L 373.513846 138.753345 
L 374.599647 134.15369 
L 375.685448 136.481451 
L 376.77125 137.799894 
L 377.857051 134.395777 
L 378.942852 136.105284 
L 380.028653 139.133236 
L 381.114454 136.287781 
L 382.200255 137.930249 
L 383.286057 137.405106 
L 384.371858 139.699347 
L 385.457659 136.54849 
L 386.54346 139.680725 
L 387.629261 138.068052 
L 388.715062 138.935842 
L 389.800863 137.002869 
L 390.886665 136.861341 
L 391.972466 139.204 
L 393.058267 136.526144 
L 394.144068 137.133224 
L 395.229869 138.257998 
L 396.31567 139.766387 
L 397.401472 138.239376 
L 398.487273 136.433033 
L 398.487273 136.433033 
" clip-path="url(#p6e6395ac65)" style="fill: none; stroke: #1f77b4; stroke-width: 1.5; stroke-linecap: square"/>
   </g>
   <g id="line2d_20">
    <path d="M 73.832727 278.793846 
L 74.918528 259.386799 
L 76.00433 250.575553 
L 77.090131 232.283853 
L 78.175932 221.911121 
L 79.261733 207.932099 
L 80.347534 204.846304 
L 81.433335 190.235251 
L 82.519137 182.464997 
L 83.604938 173.505038 
L 84.690739 172.83583 
L 85.77654 165.474536 
L 86.862341 159.934977 
L 87.948142 160.232403 
L 89.033943 150.826305 
L 90.119745 144.729072 
L 91.205546 143.91115 
L 92.291347 141.15996 
L 93.377148 137.702382 
L 94.462949 138.371591 
L 95.54875 172.166621 
L 96.634552 172.426869 
L 97.720353 165.846319 
L 98.806154 158.299134 
L 99.891955 157.10943 
L 100.977756 152.759574 
L 102.063557 152.722396 
L 103.149358 145.695706 
L 104.23516 150.454523 
L 105.320961 144.506002 
L 106.406762 135.174261 
L 107.492563 139.077978 
L 108.578364 138.297234 
L 109.664165 134.653766 
L 110.749967 129.485989 
L 111.835768 124.875886 
L 112.921569 130.52698 
L 114.00737 120.042713 
L 115.093171 116.213353 
L 116.178972 115.43261 
L 117.264773 116.91974 
L 118.350575 109.930229 
L 119.436376 106.249582 
L 120.522177 107.14186 
L 121.607978 104.093243 
L 122.693779 99.631853 
L 123.77958 100.152349 
L 125.951183 95.430711 
L 127.036984 94.464076 
L 128.122785 91.043677 
L 129.208586 91.155212 
L 130.294387 89.221943 
L 131.380189 88.032239 
L 132.46599 88.366843 
L 133.551791 87.548922 
L 134.637592 85.652831 
L 136.809194 84.983622 
L 137.894995 84.61184 
L 138.980797 126.214303 
L 140.066598 128.221928 
L 141.152399 134.021736 
L 142.2382 119.819644 
L 144.409802 133.72431 
L 145.495604 125.098955 
L 146.581405 122.087517 
L 147.667206 116.101818 
L 148.753007 120.860635 
L 149.838808 123.388756 
L 150.924609 116.622314 
L 152.01041 118.072266 
L 153.096212 109.818694 
L 154.182013 106.28676 
L 155.267814 113.31345 
L 156.353615 106.323938 
L 157.439416 117.960731 
L 158.525217 108.480277 
L 159.611019 111.714785 
L 160.69682 110.376368 
L 161.782621 104.204778 
L 162.868422 104.985521 
L 163.954223 99.966457 
L 165.040024 101.342053 
L 166.125825 109.855872 
L 167.211627 108.40592 
L 168.297428 105.059878 
L 169.383229 100.077992 
L 170.46903 97.847297 
L 171.554831 97.735762 
L 172.640632 98.367793 
L 173.726434 95.505067 
L 174.812235 94.16665 
L 175.898036 97.36398 
L 176.983837 93.348729 
L 178.069638 95.505067 
L 179.155439 93.571798 
L 180.24124 92.010312 
L 181.327042 96.583237 
L 182.412843 95.02175 
L 183.498644 90.077043 
L 184.584445 82.864462 
L 185.670246 87.028426 
L 186.756047 82.083719 
L 187.841849 80.447876 
L 188.92765 81.042728 
L 190.013451 81.823471 
L 191.099252 79.258172 
L 192.185053 78.923567 
L 193.270854 77.436437 
L 194.356656 77.027476 
L 195.442457 74.499355 
L 196.528258 70.037965 
L 197.614059 69.480292 
L 198.69986 73.198117 
L 199.785661 73.198117 
L 200.871462 70.78153 
L 201.957264 70.707174 
L 203.043065 67.584201 
L 204.128866 66.394497 
L 205.214667 66.803457 
L 206.300468 67.547022 
L 207.386269 66.95217 
L 208.472071 65.130436 
L 209.557872 64.795832 
L 210.643673 64.684297 
L 211.729474 61.970285 
L 212.815275 61.375433 
L 213.901076 62.49078 
L 214.986877 62.267711 
L 216.072679 62.639493 
L 217.15848 60.445976 
L 218.244281 62.267711 
L 219.330082 60.260085 
L 220.415883 60.817759 
L 221.501684 60.37162 
L 222.587486 60.557511 
L 223.673287 60.260085 
L 224.759088 60.669046 
L 225.844889 106.212404 
L 226.93069 118.40687 
L 228.016491 117.217166 
L 230.188094 118.741474 
L 231.273895 116.436423 
L 232.359696 116.808205 
L 233.445497 122.087517 
L 234.531298 109.595625 
L 235.617099 116.622314 
L 236.702901 111.231468 
L 237.788702 107.77389 
L 238.874503 106.807256 
L 239.960304 105.543195 
L 241.046105 100.97027 
L 242.131906 108.331564 
L 243.217708 108.145673 
L 244.303509 102.122796 
L 245.38931 114.837758 
L 246.475111 97.401158 
L 247.560912 104.390669 
L 248.646713 99.408784 
L 249.732514 105.282947 
L 250.818316 105.691908 
L 251.904117 105.097056 
L 252.989918 102.866361 
L 254.075719 105.803443 
L 255.16152 98.85111 
L 256.247321 102.4574 
L 257.333123 99.371605 
L 258.418924 97.884475 
L 259.504725 95.65378 
L 260.590526 96.211454 
L 261.676327 98.739575 
L 262.762128 108.703347 
L 263.847929 103.870174 
L 264.933731 102.531757 
L 266.019532 93.237194 
L 267.105333 90.932142 
L 268.191134 103.498391 
L 269.276935 102.011261 
L 270.362736 98.21908 
L 271.448538 95.690959 
L 272.534339 97.252445 
L 273.62014 100.077992 
L 274.705941 88.738626 
L 275.791742 100.189527 
L 276.877543 97.810119 
L 277.963344 91.341103 
L 279.049146 92.939768 
L 280.134947 90.969321 
L 281.220748 88.21813 
L 282.306549 95.319176 
L 283.39235 92.605164 
L 284.478151 97.661406 
L 285.563953 83.682383 
L 286.649754 87.734813 
L 287.735555 90.486003 
L 288.821356 92.382094 
L 289.907157 85.24387 
L 290.992958 95.319176 
L 292.07876 87.697635 
L 293.164561 88.738626 
L 294.250362 83.831096 
L 295.336163 90.709073 
L 296.421964 88.255308 
L 297.507765 88.887339 
L 298.593566 83.570849 
L 299.679368 84.574661 
L 300.765169 78.068468 
L 301.85097 92.196203 
L 302.936771 84.686196 
L 304.022572 85.801544 
L 305.108373 79.704311 
L 306.194175 82.381145 
L 307.279976 85.950257 
L 308.365777 79.592776 
L 309.451578 81.228619 
L 310.537379 76.95312 
L 311.62318 77.213368 
L 312.708981 78.105646 
L 313.794783 80.78248 
L 314.880584 78.217181 
L 315.966385 78.514607 
L 317.052186 73.421186 
L 318.137987 76.09802 
L 319.223788 74.016038 
L 320.30959 73.309651 
L 321.395391 82.158075 
L 322.481192 75.726238 
L 323.566993 74.276286 
L 324.652794 77.139011 
L 325.738595 74.424999 
L 326.824396 73.718612 
L 327.910198 72.305839 
L 328.995999 76.358268 
L 331.167601 69.220044 
L 332.253402 71.190491 
L 333.339203 66.914992 
L 334.425005 71.673808 
L 335.510806 69.852074 
L 336.596607 65.68811 
L 337.682408 74.276286 
L 338.768209 70.000787 
L 339.85401 62.267711 
L 340.939811 65.427862 
L 342.025613 66.580388 
L 343.111414 61.598502 
L 344.197215 62.118998 
L 345.283016 66.617566 
L 346.368817 64.461228 
L 347.454618 61.22672 
L 348.54042 67.621379 
L 349.626221 63.197167 
L 350.712022 63.085632 
L 351.797823 58.88449 
L 352.883624 56.244834 
L 353.969425 55.017952 
L 355.055227 57.285825 
L 356.141028 56.839686 
L 357.226829 53.679535 
L 358.31263 58.140925 
L 359.398431 58.103747 
L 360.484232 58.512707 
L 361.570033 56.058943 
L 363.741636 57.137112 
L 364.827437 55.166665 
L 365.913238 53.568 
L 366.999039 54.162852 
L 368.08484 56.244834 
L 369.170642 60.557511 
L 370.256443 57.137112 
L 371.342244 55.984586 
L 372.428045 59.330629 
L 373.513846 57.955034 
L 374.599647 63.308702 
L 375.685448 60.780581 
L 376.77125 63.011276 
L 377.857051 62.304889 
L 378.942852 63.457415 
L 380.028653 59.73959 
L 381.114454 66.691923 
L 382.200255 63.903554 
L 383.286057 63.234345 
L 384.371858 59.553698 
L 385.457659 61.263898 
L 386.54346 67.361131 
L 387.629261 59.962659 
L 388.715062 60.854937 
L 389.800863 65.05608 
L 390.886665 58.512707 
L 391.972466 64.238158 
L 393.058267 59.665233 
L 394.144068 64.870188 
L 395.229869 62.825385 
L 396.31567 62.639493 
L 397.401472 67.249596 
L 398.487273 59.033203 
L 398.487273 59.033203 
" clip-path="url(#p6e6395ac65)" style="fill: none; stroke: #ff7f0e; stroke-width: 1.5; stroke-linecap: square"/>
   </g>
   <g id="line2d_21">
    <path d="M 73.832727 289.587077 
L 74.918528 277.331074 
L 76.00433 276.561869 
L 78.175932 262.357213 
L 79.261733 261.613648 
L 80.347534 260.254718 
L 82.519137 248.870481 
L 83.604938 239.588739 
L 84.690739 245.768021 
L 85.77654 241.22971 
L 86.862341 238.25545 
L 87.948142 239.922061 
L 89.033943 233.563298 
L 90.119745 230.383917 
L 91.205546 230.92236 
L 92.291347 228.717305 
L 93.377148 227.486577 
L 94.462949 227.563498 
L 95.54875 243.537325 
L 96.634552 246.126983 
L 97.720353 243.229643 
L 98.806154 239.255417 
L 99.891955 241.050229 
L 100.977756 237.870847 
L 102.063557 238.127249 
L 103.149358 230.614678 
L 104.23516 235.409391 
L 105.320961 230.89672 
L 106.406762 223.076467 
L 107.492563 223.076467 
L 108.578364 235.28119 
L 109.664165 220.794492 
L 110.749967 216.410022 
L 111.835768 219.204801 
L 112.921569 221.666258 
L 114.00737 215.615177 
L 115.093171 207.974405 
L 116.178972 213.410122 
L 117.264773 212.076833 
L 118.350575 205.923191 
L 119.436376 202.513048 
L 120.522177 206.692397 
L 121.607978 203.128412 
L 122.693779 201.384881 
L 123.77958 198.3337 
L 124.865382 198.615742 
L 125.951183 199.461868 
L 127.036984 198.538821 
L 128.122785 195.103038 
L 129.208586 199.461868 
L 130.294387 193.94923 
L 131.380189 190.769849 
L 132.46599 195.051758 
L 133.551791 193.769749 
L 134.637592 190.462167 
L 135.723393 190.077564 
L 136.809194 191.333933 
L 137.894995 189.692962 
L 138.980797 221.691898 
L 140.066598 215.640817 
L 141.152399 226.48661 
L 142.2382 211.358908 
L 143.324001 216.05106 
L 144.409802 223.768752 
L 145.495604 212.256314 
L 146.581405 214.999813 
L 147.667206 206.077032 
L 148.753007 213.15372 
L 149.838808 211.743511 
L 150.924609 212.794758 
L 152.01041 214.769051 
L 153.096212 199.641349 
L 154.182013 197.487574 
L 155.267814 202.102806 
L 156.353615 203.974538 
L 157.439416 214.461369 
L 158.525217 204.846304 
L 159.611019 202.256647 
L 160.69682 203.974538 
L 161.782621 200.974638 
L 162.868422 208.846171 
L 163.954223 198.820863 
L 165.040024 201.923324 
L 166.125825 209.461535 
L 167.211627 210.384581 
L 168.297428 199.84647 
L 169.383229 195.744043 
L 170.46903 192.180058 
L 171.554831 198.35934 
L 172.640632 199.025985 
L 173.726434 188.513514 
L 174.812235 193.256946 
L 175.898036 195.872243 
L 176.983837 194.077431 
L 178.069638 195.128678 
L 179.155439 195.35944 
L 180.24124 191.949297 
L 181.327042 201.461801 
L 183.498644 190.539087 
L 184.584445 180.052257 
L 185.670246 188.821196 
L 186.756047 182.488073 
L 187.841849 184.205965 
L 188.92765 187.359706 
L 190.013451 187.539187 
L 191.099252 179.07793 
L 192.185053 185.257212 
L 193.270854 174.949862 
L 194.356656 177.001076 
L 195.442457 177.283118 
L 196.528258 172.155083 
L 197.614059 172.103803 
L 198.69986 175.231904 
L 199.785661 171.462799 
L 200.871462 174.898582 
L 201.957264 173.462732 
L 203.043065 174.180657 
L 204.128866 168.975702 
L 206.300468 170.360271 
L 207.386269 170.18079 
L 208.472071 167.565492 
L 209.557872 169.642346 
L 210.643673 168.206497 
L 211.729474 167.078329 
L 212.815275 162.488738 
L 213.901076 165.411718 
L 214.986877 167.129609 
L 216.072679 165.386077 
L 217.15848 162.078495 
L 218.244281 165.950161 
L 219.330082 163.257943 
L 220.415883 163.796387 
L 221.501684 161.950294 
L 222.587486 163.104102 
L 223.673287 161.873374 
L 224.759088 162.87334 
L 225.844889 204.102739 
L 226.93069 205.153986 
L 228.016491 210.717904 
L 229.102292 215.538256 
L 230.188094 208.282087 
L 231.273895 205.564229 
L 232.359696 208.897451 
L 233.445497 216.256181 
L 234.531298 206.538555 
L 235.617099 209.410255 
L 236.702901 202.128446 
L 237.788702 207.512882 
L 238.874503 202.974571 
L 239.960304 202.231006 
L 241.046105 198.154219 
L 242.131906 208.564129 
L 243.217708 202.76945 
L 244.303509 206.205233 
L 245.38931 204.051459 
L 246.475111 198.30806 
L 247.560912 195.38508 
L 248.646713 204.461701 
L 249.732514 204.589902 
L 250.818316 211.66659 
L 251.904117 197.769616 
L 252.989918 204.871944 
L 254.075719 206.769317 
L 255.16152 199.359307 
L 256.247321 206.820597 
L 257.333123 204.923225 
L 258.418924 191.974937 
L 259.504725 196.461967 
L 260.590526 199.231106 
L 261.676327 194.615875 
L 262.762128 205.641149 
L 263.847929 200.615675 
L 264.933731 199.025985 
L 266.019532 188.154551 
L 267.105333 185.872576 
L 268.191134 200.205433 
L 269.276935 201.974605 
L 270.362736 193.974871 
L 271.448538 196.385047 
L 272.534339 189.103238 
L 273.62014 195.513281 
L 274.705941 189.692962 
L 275.791742 190.87241 
L 276.877543 191.359573 
L 277.963344 188.923756 
L 279.049146 198.513181 
L 280.134947 186.334099 
L 281.220748 186.308459 
L 282.306549 197.077332 
L 283.39235 196.87221 
L 284.478151 191.692895 
L 285.563953 182.05219 
L 286.649754 185.667454 
L 287.735555 194.795356 
L 288.821356 194.590235 
L 289.907157 184.795689 
L 290.992958 193.103105 
L 292.07876 186.282819 
L 293.164561 188.949397 
L 294.250362 182.821395 
L 295.336163 194.205632 
L 296.421964 183.359839 
L 297.507765 187.000743 
L 298.593566 184.693128 
L 299.679368 185.667454 
L 300.765169 176.539553 
L 301.85097 190.89805 
L 302.936771 182.359872 
L 304.022572 181.359905 
L 305.108373 185.359772 
L 306.194175 176.513913 
L 307.279976 185.487973 
L 308.365777 179.308692 
L 309.451578 182.744475 
L 310.537379 171.232037 
L 311.62318 171.949962 
L 312.708981 180.847102 
L 313.794783 177.436959 
L 314.880584 181.795788 
L 315.966385 177.872842 
L 317.052186 170.001309 
L 318.137987 177.462599 
L 319.223788 173.308891 
L 320.30959 170.744874 
L 321.395391 185.462333 
L 322.481192 179.12921 
L 323.566993 179.15485 
L 324.652794 181.154784 
L 325.738595 173.462732 
L 326.824396 175.026783 
L 327.910198 174.539619 
L 328.995999 180.000976 
L 330.0818 178.872809 
L 331.167601 172.283284 
L 332.253402 171.283317 
L 333.339203 167.565492 
L 334.425005 173.821694 
L 335.510806 170.411551 
L 336.596607 165.642479 
L 337.682408 170.334631 
L 338.768209 176.15495 
L 339.85401 168.74494 
L 340.939811 169.770547 
L 342.025613 168.462898 
L 343.111414 165.411718 
L 344.197215 167.360371 
L 345.283016 166.821927 
L 346.368817 169.411585 
L 347.454618 167.334731 
L 348.54042 171.180757 
L 349.626221 165.847601 
L 350.712022 167.20653 
L 351.797823 161.33493 
L 353.969425 156.89918 
L 355.055227 161.206729 
L 356.141028 159.719599 
L 357.226829 156.591498 
L 358.31263 163.924588 
L 359.398431 163.257943 
L 360.484232 164.719433 
L 361.570033 161.232369 
L 362.655835 162.027215 
L 363.741636 162.129775 
L 364.827437 159.79652 
L 365.913238 156.976101 
L 366.999039 157.642745 
L 368.08484 160.796486 
L 369.170642 165.7194 
L 370.256443 158.514511 
L 371.342244 161.591332 
L 372.428045 163.745106 
L 373.513846 156.642778 
L 374.599647 164.23227 
L 375.685448 167.693693 
L 376.77125 163.719466 
L 377.857051 167.078329 
L 378.942852 165.488638 
L 380.028653 162.950261 
L 381.114454 168.103936 
L 383.286057 166.642446 
L 384.371858 160.642645 
L 385.457659 163.822027 
L 386.54346 174.180657 
L 387.629261 161.104169 
L 388.715062 159.719599 
L 389.800863 162.540018 
L 390.886665 155.796653 
L 391.972466 164.052788 
L 393.058267 165.642479 
L 394.144068 170.18079 
L 395.229869 167.847534 
L 396.31567 164.719433 
L 397.401472 173.872975 
L 398.487273 164.821994 
L 398.487273 164.821994 
" clip-path="url(#p6e6395ac65)" style="fill: none; stroke: #2ca02c; stroke-width: 1.5; stroke-linecap: square"/>
   </g>
   <g id="line2d_22">
    <path d="M 368.08484 57.025577 
L 369.170642 56.096121 
L 370.256443 59.665233 
L 371.342244 57.360182 
L 372.428045 58.401173 
L 373.513846 71.376382 
L 374.599647 73.012225 
L 375.685448 68.03034 
L 376.77125 60.408798 
L 377.857051 63.122811 
L 378.942852 70.1495 
L 380.028653 65.427862 
L 381.114454 75.428812 
L 382.200255 61.933107 
L 383.286057 69.926431 
L 384.371858 72.900691 
L 385.457659 70.521283 
L 386.54346 77.956933 
L 387.629261 68.067518 
L 388.715062 73.830147 
L 389.800863 73.830147 
L 390.886665 70.855887 
L 391.972466 71.339204 
L 393.058267 74.090395 
L 394.144068 81.674758 
L 395.229869 72.305839 
L 396.31567 72.343017 
L 397.401472 89.668082 
L 398.487273 80.819658 
L 398.487273 80.819658 
" clip-path="url(#p6e6395ac65)" style="fill: none; stroke: #d62728; stroke-width: 1.5; stroke-linecap: square"/>
   </g>
   <g id="line2d_23">
    <path d="M 368.08484 161.25801 
L 369.170642 163.360504 
L 370.256443 160.822127 
L 371.342244 159.411917 
L 372.428045 164.33483 
L 373.513846 172.975569 
L 374.599647 168.539819 
L 375.685448 169.103903 
L 376.77125 163.078462 
L 377.857051 170.821794 
L 378.942852 169.360304 
L 380.028653 171.180757 
L 381.114454 180.898382 
L 382.200255 167.20653 
L 383.286057 173.744774 
L 384.371858 178.616407 
L 385.457659 171.898681 
L 386.54346 188.692995 
L 387.629261 175.872908 
L 388.715062 179.334332 
L 389.800863 180.872742 
L 390.886665 177.847202 
L 391.972466 185.02645 
L 393.058267 183.667521 
L 394.144068 183.257278 
L 395.229869 181.077863 
L 396.31567 176.642114 
L 397.401472 197.231173 
L 398.487273 188.590434 
L 398.487273 188.590434 
" clip-path="url(#p6e6395ac65)" style="fill: none; stroke: #9467bd; stroke-width: 1.5; stroke-linecap: square"/>
   </g>
   <g id="patch_3">
    <path d="M 57.6 307.584 
L 57.6 41.472 
" style="fill: none; stroke: #000000; stroke-width: 0.8; stroke-linejoin: miter; stroke-linecap: square"/>
   </g>
   <g id="patch_4">
    <path d="M 414.72 307.584 
L 414.72 41.472 
" style="fill: none; stroke: #000000; stroke-width: 0.8; stroke-linejoin: miter; stroke-linecap: square"/>
   </g>
   <g id="patch_5">
    <path d="M 57.6 307.584 
L 414.72 307.584 
" style="fill: none; stroke: #000000; stroke-width: 0.8; stroke-linejoin: miter; stroke-linecap: square"/>
   </g>
   <g id="patch_6">
    <path d="M 57.6 41.472 
L 414.72 41.472 
" style="fill: none; stroke: #000000; stroke-width: 0.8; stroke-linejoin: miter; stroke-linecap: square"/>
   </g>
   <g id="text_21">
    <!-- Learning Curves -->
    <g transform="translate(187.37625 35.472) scale(0.12 -0.12)">
     <defs>
      <path id="DejaVuSans-4c" d="M 628 4666 
L 1259 4666 
L 1259 531 
L 3531 531 
L 3531 0 
L 628 0 
L 628 4666 
z
" transform="scale(0.015625)"/>
      <path id="DejaVuSans-65" d="M 3597 1894 
L 3597 1613 
L 953 1613 
Q 991 1019 1311 708 
Q 1631 397 2203 397 
Q 2534 397 2845 478 
Q 3156 559 3463 722 
L 3463 178 
Q 3153 47 2828 -22 
Q 2503 -91 2169 -91 
Q 1331 -91 842 396 
Q 353 884 353 1716 
Q 353 2575 817 3079 
Q 1281 3584 2069 3584 
Q 2775 3584 3186 3129 
Q 3597 2675 3597 1894 
z
M 3022 2063 
Q 3016 2534 2758 2815 
Q 2500 3097 2075 3097 
Q 1594 3097 1305 2825 
Q 1016 2553 972 2059 
L 3022 2063 
z
" transform="scale(0.015625)"/>
      <path id="DejaVuSans-6e" d="M 3513 2113 
L 3513 0 
L 2938 0 
L 2938 2094 
Q 2938 2591 2744 2837 
Q 2550 3084 2163 3084 
Q 1697 3084 1428 2787 
Q 1159 2491 1159 1978 
L 1159 0 
L 581 0 
L 581 3500 
L 1159 3500 
L 1159 2956 
Q 1366 3272 1645 3428 
Q 1925 3584 2291 3584 
Q 2894 3584 3203 3211 
Q 3513 2838 3513 2113 
z
" transform="scale(0.015625)"/>
      <path id="DejaVuSans-69" d="M 603 3500 
L 1178 3500 
L 1178 0 
L 603 0 
L 603 3500 
z
M 603 4863 
L 1178 4863 
L 1178 4134 
L 603 4134 
L 603 4863 
z
" transform="scale(0.015625)"/>
      <path id="DejaVuSans-67" d="M 2906 1791 
Q 2906 2416 2648 2759 
Q 2391 3103 1925 3103 
Q 1463 3103 1205 2759 
Q 947 2416 947 1791 
Q 947 1169 1205 825 
Q 1463 481 1925 481 
Q 2391 481 2648 825 
Q 2906 1169 2906 1791 
z
M 3481 434 
Q 3481 -459 3084 -895 
Q 2688 -1331 1869 -1331 
Q 1566 -1331 1297 -1286 
Q 1028 -1241 775 -1147 
L 775 -588 
Q 1028 -725 1275 -790 
Q 1522 -856 1778 -856 
Q 2344 -856 2625 -561 
Q 2906 -266 2906 331 
L 2906 616 
Q 2728 306 2450 153 
Q 2172 0 1784 0 
Q 1141 0 747 490 
Q 353 981 353 1791 
Q 353 2603 747 3093 
Q 1141 3584 1784 3584 
Q 2172 3584 2450 3431 
Q 2728 3278 2906 2969 
L 2906 3500 
L 3481 3500 
L 3481 434 
z
" transform="scale(0.015625)"/>
      <path id="DejaVuSans-20" transform="scale(0.015625)"/>
      <path id="DejaVuSans-43" d="M 4122 4306 
L 4122 3641 
Q 3803 3938 3442 4084 
Q 3081 4231 2675 4231 
Q 1875 4231 1450 3742 
Q 1025 3253 1025 2328 
Q 1025 1406 1450 917 
Q 1875 428 2675 428 
Q 3081 428 3442 575 
Q 3803 722 4122 1019 
L 4122 359 
Q 3791 134 3420 21 
Q 3050 -91 2638 -91 
Q 1578 -91 968 557 
Q 359 1206 359 2328 
Q 359 3453 968 4101 
Q 1578 4750 2638 4750 
Q 3056 4750 3426 4639 
Q 3797 4528 4122 4306 
z
" transform="scale(0.015625)"/>
      <path id="DejaVuSans-76" d="M 191 3500 
L 800 3500 
L 1894 563 
L 2988 3500 
L 3597 3500 
L 2284 0 
L 1503 0 
L 191 3500 
z
" transform="scale(0.015625)"/>
     </defs>
     <use xlink:href="#DejaVuSans-4c"/>
     <use xlink:href="#DejaVuSans-65" x="53.962891"/>
     <use xlink:href="#DejaVuSans-61" x="115.486328"/>
     <use xlink:href="#DejaVuSans-72" x="176.765625"/>
     <use xlink:href="#DejaVuSans-6e" x="216.128906"/>
     <use xlink:href="#DejaVuSans-69" x="279.507812"/>
     <use xlink:href="#DejaVuSans-6e" x="307.291016"/>
     <use xlink:href="#DejaVuSans-67" x="370.669922"/>
     <use xlink:href="#DejaVuSans-20" x="434.146484"/>
     <use xlink:href="#DejaVuSans-43" x="465.933594"/>
     <use xlink:href="#DejaVuSans-75" x="535.757812"/>
     <use xlink:href="#DejaVuSans-72" x="599.136719"/>
     <use xlink:href="#DejaVuSans-76" x="640.25"/>
     <use xlink:href="#DejaVuSans-65" x="699.429688"/>
     <use xlink:href="#DejaVuSans-73" x="760.953125"/>
    </g>
   </g>
   <g id="legend_1">
    <g id="patch_7">
     <path d="M 214.18875 302.584 
L 407.72 302.584 
Q 409.72 302.584 409.72 300.584 
L 409.72 228.193375 
Q 409.72 226.193375 407.72 226.193375 
L 214.18875 226.193375 
Q 212.18875 226.193375 212.18875 228.193375 
L 212.18875 300.584 
Q 212.18875 302.584 214.18875 302.584 
z
" style="fill: #ffffff; opacity: 0.8; stroke: #cccccc; stroke-linejoin: miter"/>
    </g>
    <g id="line2d_24">
     <path d="M 216.18875 234.291812 
L 226.18875 234.291812 
L 236.18875 234.291812 
" style="fill: none; stroke: #1f77b4; stroke-width: 1.5; stroke-linecap: square"/>
    </g>
    <g id="text_22">
     <!-- Train Accuracy -->
     <g transform="translate(244.18875 237.791812) scale(0.1 -0.1)">
      <defs>
       <path id="DejaVuSans-54" d="M -19 4666 
L 3928 4666 
L 3928 4134 
L 2272 4134 
L 2272 0 
L 1638 0 
L 1638 4134 
L -19 4134 
L -19 4666 
z
" transform="scale(0.015625)"/>
      </defs>
      <use xlink:href="#DejaVuSans-54"/>
      <use xlink:href="#DejaVuSans-72" x="46.333984"/>
      <use xlink:href="#DejaVuSans-61" x="87.447266"/>
      <use xlink:href="#DejaVuSans-69" x="148.726562"/>
      <use xlink:href="#DejaVuSans-6e" x="176.509766"/>
      <use xlink:href="#DejaVuSans-20" x="239.888672"/>
      <use xlink:href="#DejaVuSans-41" x="271.675781"/>
      <use xlink:href="#DejaVuSans-63" x="338.333984"/>
      <use xlink:href="#DejaVuSans-63" x="393.314453"/>
      <use xlink:href="#DejaVuSans-75" x="448.294922"/>
      <use xlink:href="#DejaVuSans-72" x="511.673828"/>
      <use xlink:href="#DejaVuSans-61" x="552.787109"/>
      <use xlink:href="#DejaVuSans-63" x="614.066406"/>
      <use xlink:href="#DejaVuSans-79" x="669.046875"/>
     </g>
    </g>
    <g id="line2d_25">
     <path d="M 216.18875 248.969937 
L 226.18875 248.969937 
L 236.18875 248.969937 
" style="fill: none; stroke: #ff7f0e; stroke-width: 1.5; stroke-linecap: square"/>
    </g>
    <g id="text_23">
     <!-- Validation Accuracy -->
     <g transform="translate(244.18875 252.469937) scale(0.1 -0.1)">
      <defs>
       <path id="DejaVuSans-56" d="M 1831 0 
L 50 4666 
L 709 4666 
L 2188 738 
L 3669 4666 
L 4325 4666 
L 2547 0 
L 1831 0 
z
" transform="scale(0.015625)"/>
       <path id="DejaVuSans-6c" d="M 603 4863 
L 1178 4863 
L 1178 0 
L 603 0 
L 603 4863 
z
" transform="scale(0.015625)"/>
       <path id="DejaVuSans-64" d="M 2906 2969 
L 2906 4863 
L 3481 4863 
L 3481 0 
L 2906 0 
L 2906 525 
Q 2725 213 2448 61 
Q 2172 -91 1784 -91 
Q 1150 -91 751 415 
Q 353 922 353 1747 
Q 353 2572 751 3078 
Q 1150 3584 1784 3584 
Q 2172 3584 2448 3432 
Q 2725 3281 2906 2969 
z
M 947 1747 
Q 947 1113 1208 752 
Q 1469 391 1925 391 
Q 2381 391 2643 752 
Q 2906 1113 2906 1747 
Q 2906 2381 2643 2742 
Q 2381 3103 1925 3103 
Q 1469 3103 1208 2742 
Q 947 2381 947 1747 
z
" transform="scale(0.015625)"/>
       <path id="DejaVuSans-74" d="M 1172 4494 
L 1172 3500 
L 2356 3500 
L 2356 3053 
L 1172 3053 
L 1172 1153 
Q 1172 725 1289 603 
Q 1406 481 1766 481 
L 2356 481 
L 2356 0 
L 1766 0 
Q 1100 0 847 248 
Q 594 497 594 1153 
L 594 3053 
L 172 3053 
L 172 3500 
L 594 3500 
L 594 4494 
L 1172 4494 
z
" transform="scale(0.015625)"/>
      </defs>
      <use xlink:href="#DejaVuSans-56"/>
      <use xlink:href="#DejaVuSans-61" x="60.658203"/>
      <use xlink:href="#DejaVuSans-6c" x="121.9375"/>
      <use xlink:href="#DejaVuSans-69" x="149.720703"/>
      <use xlink:href="#DejaVuSans-64" x="177.503906"/>
      <use xlink:href="#DejaVuSans-61" x="240.980469"/>
      <use xlink:href="#DejaVuSans-74" x="302.259766"/>
      <use xlink:href="#DejaVuSans-69" x="341.46875"/>
      <use xlink:href="#DejaVuSans-6f" x="369.251953"/>
      <use xlink:href="#DejaVuSans-6e" x="430.433594"/>
      <use xlink:href="#DejaVuSans-20" x="493.8125"/>
      <use xlink:href="#DejaVuSans-41" x="525.599609"/>
      <use xlink:href="#DejaVuSans-63" x="592.257812"/>
      <use xlink:href="#DejaVuSans-63" x="647.238281"/>
      <use xlink:href="#DejaVuSans-75" x="702.21875"/>
      <use xlink:href="#DejaVuSans-72" x="765.597656"/>
      <use xlink:href="#DejaVuSans-61" x="806.710938"/>
      <use xlink:href="#DejaVuSans-63" x="867.990234"/>
      <use xlink:href="#DejaVuSans-79" x="922.970703"/>
     </g>
    </g>
    <g id="line2d_26">
     <path d="M 216.18875 263.648062 
L 226.18875 263.648062 
L 236.18875 263.648062 
" style="fill: none; stroke: #2ca02c; stroke-width: 1.5; stroke-linecap: square"/>
    </g>
    <g id="text_24">
     <!-- Robust Validation Accuracy -->
     <g transform="translate(244.18875 267.148062) scale(0.1 -0.1)">
      <defs>
       <path id="DejaVuSans-52" d="M 2841 2188 
Q 3044 2119 3236 1894 
Q 3428 1669 3622 1275 
L 4263 0 
L 3584 0 
L 2988 1197 
Q 2756 1666 2539 1819 
Q 2322 1972 1947 1972 
L 1259 1972 
L 1259 0 
L 628 0 
L 628 4666 
L 2053 4666 
Q 2853 4666 3247 4331 
Q 3641 3997 3641 3322 
Q 3641 2881 3436 2590 
Q 3231 2300 2841 2188 
z
M 1259 4147 
L 1259 2491 
L 2053 2491 
Q 2509 2491 2742 2702 
Q 2975 2913 2975 3322 
Q 2975 3731 2742 3939 
Q 2509 4147 2053 4147 
L 1259 4147 
z
" transform="scale(0.015625)"/>
       <path id="DejaVuSans-62" d="M 3116 1747 
Q 3116 2381 2855 2742 
Q 2594 3103 2138 3103 
Q 1681 3103 1420 2742 
Q 1159 2381 1159 1747 
Q 1159 1113 1420 752 
Q 1681 391 2138 391 
Q 2594 391 2855 752 
Q 3116 1113 3116 1747 
z
M 1159 2969 
Q 1341 3281 1617 3432 
Q 1894 3584 2278 3584 
Q 2916 3584 3314 3078 
Q 3713 2572 3713 1747 
Q 3713 922 3314 415 
Q 2916 -91 2278 -91 
Q 1894 -91 1617 61 
Q 1341 213 1159 525 
L 1159 0 
L 581 0 
L 581 4863 
L 1159 4863 
L 1159 2969 
z
" transform="scale(0.015625)"/>
      </defs>
      <use xlink:href="#DejaVuSans-52"/>
      <use xlink:href="#DejaVuSans-6f" x="64.982422"/>
      <use xlink:href="#DejaVuSans-62" x="126.164062"/>
      <use xlink:href="#DejaVuSans-75" x="189.640625"/>
      <use xlink:href="#DejaVuSans-73" x="253.019531"/>
      <use xlink:href="#DejaVuSans-74" x="305.119141"/>
      <use xlink:href="#DejaVuSans-20" x="344.328125"/>
      <use xlink:href="#DejaVuSans-56" x="376.115234"/>
      <use xlink:href="#DejaVuSans-61" x="436.773438"/>
      <use xlink:href="#DejaVuSans-6c" x="498.052734"/>
      <use xlink:href="#DejaVuSans-69" x="525.835938"/>
      <use xlink:href="#DejaVuSans-64" x="553.619141"/>
      <use xlink:href="#DejaVuSans-61" x="617.095703"/>
      <use xlink:href="#DejaVuSans-74" x="678.375"/>
      <use xlink:href="#DejaVuSans-69" x="717.583984"/>
      <use xlink:href="#DejaVuSans-6f" x="745.367188"/>
      <use xlink:href="#DejaVuSans-6e" x="806.548828"/>
      <use xlink:href="#DejaVuSans-20" x="869.927734"/>
      <use xlink:href="#DejaVuSans-41" x="901.714844"/>
      <use xlink:href="#DejaVuSans-63" x="968.373047"/>
      <use xlink:href="#DejaVuSans-63" x="1023.353516"/>
      <use xlink:href="#DejaVuSans-75" x="1078.333984"/>
      <use xlink:href="#DejaVuSans-72" x="1141.712891"/>
      <use xlink:href="#DejaVuSans-61" x="1182.826172"/>
      <use xlink:href="#DejaVuSans-63" x="1244.105469"/>
      <use xlink:href="#DejaVuSans-79" x="1299.085938"/>
     </g>
    </g>
    <g id="line2d_27">
     <path d="M 216.18875 278.326188 
L 226.18875 278.326188 
L 236.18875 278.326188 
" style="fill: none; stroke: #d62728; stroke-width: 1.5; stroke-linecap: square"/>
    </g>
    <g id="text_25">
     <!-- SWA Validation Accuracy -->
     <g transform="translate(244.18875 281.826188) scale(0.1 -0.1)">
      <defs>
       <path id="DejaVuSans-53" d="M 3425 4513 
L 3425 3897 
Q 3066 4069 2747 4153 
Q 2428 4238 2131 4238 
Q 1616 4238 1336 4038 
Q 1056 3838 1056 3469 
Q 1056 3159 1242 3001 
Q 1428 2844 1947 2747 
L 2328 2669 
Q 3034 2534 3370 2195 
Q 3706 1856 3706 1288 
Q 3706 609 3251 259 
Q 2797 -91 1919 -91 
Q 1588 -91 1214 -16 
Q 841 59 441 206 
L 441 856 
Q 825 641 1194 531 
Q 1563 422 1919 422 
Q 2459 422 2753 634 
Q 3047 847 3047 1241 
Q 3047 1584 2836 1778 
Q 2625 1972 2144 2069 
L 1759 2144 
Q 1053 2284 737 2584 
Q 422 2884 422 3419 
Q 422 4038 858 4394 
Q 1294 4750 2059 4750 
Q 2388 4750 2728 4690 
Q 3069 4631 3425 4513 
z
" transform="scale(0.015625)"/>
       <path id="DejaVuSans-57" d="M 213 4666 
L 850 4666 
L 1831 722 
L 2809 4666 
L 3519 4666 
L 4500 722 
L 5478 4666 
L 6119 4666 
L 4947 0 
L 4153 0 
L 3169 4050 
L 2175 0 
L 1381 0 
L 213 4666 
z
" transform="scale(0.015625)"/>
      </defs>
      <use xlink:href="#DejaVuSans-53"/>
      <use xlink:href="#DejaVuSans-57" x="63.476562"/>
      <use xlink:href="#DejaVuSans-41" x="156.853516"/>
      <use xlink:href="#DejaVuSans-20" x="225.261719"/>
      <use xlink:href="#DejaVuSans-56" x="257.048828"/>
      <use xlink:href="#DejaVuSans-61" x="317.707031"/>
      <use xlink:href="#DejaVuSans-6c" x="378.986328"/>
      <use xlink:href="#DejaVuSans-69" x="406.769531"/>
      <use xlink:href="#DejaVuSans-64" x="434.552734"/>
      <use xlink:href="#DejaVuSans-61" x="498.029297"/>
      <use xlink:href="#DejaVuSans-74" x="559.308594"/>
      <use xlink:href="#DejaVuSans-69" x="598.517578"/>
      <use xlink:href="#DejaVuSans-6f" x="626.300781"/>
      <use xlink:href="#DejaVuSans-6e" x="687.482422"/>
      <use xlink:href="#DejaVuSans-20" x="750.861328"/>
      <use xlink:href="#DejaVuSans-41" x="782.648438"/>
      <use xlink:href="#DejaVuSans-63" x="849.306641"/>
      <use xlink:href="#DejaVuSans-63" x="904.287109"/>
      <use xlink:href="#DejaVuSans-75" x="959.267578"/>
      <use xlink:href="#DejaVuSans-72" x="1022.646484"/>
      <use xlink:href="#DejaVuSans-61" x="1063.759766"/>
      <use xlink:href="#DejaVuSans-63" x="1125.039062"/>
      <use xlink:href="#DejaVuSans-79" x="1180.019531"/>
     </g>
    </g>
    <g id="line2d_28">
     <path d="M 216.18875 293.004312 
L 226.18875 293.004312 
L 236.18875 293.004312 
" style="fill: none; stroke: #9467bd; stroke-width: 1.5; stroke-linecap: square"/>
    </g>
    <g id="text_26">
     <!-- SWA Robust Validation Accuracy -->
     <g transform="translate(244.18875 296.504312) scale(0.1 -0.1)">
      <use xlink:href="#DejaVuSans-53"/>
      <use xlink:href="#DejaVuSans-57" x="63.476562"/>
      <use xlink:href="#DejaVuSans-41" x="156.853516"/>
      <use xlink:href="#DejaVuSans-20" x="225.261719"/>
      <use xlink:href="#DejaVuSans-52" x="257.048828"/>
      <use xlink:href="#DejaVuSans-6f" x="322.03125"/>
      <use xlink:href="#DejaVuSans-62" x="383.212891"/>
      <use xlink:href="#DejaVuSans-75" x="446.689453"/>
      <use xlink:href="#DejaVuSans-73" x="510.068359"/>
      <use xlink:href="#DejaVuSans-74" x="562.167969"/>
      <use xlink:href="#DejaVuSans-20" x="601.376953"/>
      <use xlink:href="#DejaVuSans-56" x="633.164062"/>
      <use xlink:href="#DejaVuSans-61" x="693.822266"/>
      <use xlink:href="#DejaVuSans-6c" x="755.101562"/>
      <use xlink:href="#DejaVuSans-69" x="782.884766"/>
      <use xlink:href="#DejaVuSans-64" x="810.667969"/>
      <use xlink:href="#DejaVuSans-61" x="874.144531"/>
      <use xlink:href="#DejaVuSans-74" x="935.423828"/>
      <use xlink:href="#DejaVuSans-69" x="974.632812"/>
      <use xlink:href="#DejaVuSans-6f" x="1002.416016"/>
      <use xlink:href="#DejaVuSans-6e" x="1063.597656"/>
      <use xlink:href="#DejaVuSans-20" x="1126.976562"/>
      <use xlink:href="#DejaVuSans-41" x="1158.763672"/>
      <use xlink:href="#DejaVuSans-63" x="1225.421875"/>
      <use xlink:href="#DejaVuSans-63" x="1280.402344"/>
      <use xlink:href="#DejaVuSans-75" x="1335.382812"/>
      <use xlink:href="#DejaVuSans-72" x="1398.761719"/>
      <use xlink:href="#DejaVuSans-61" x="1439.875"/>
      <use xlink:href="#DejaVuSans-63" x="1501.154297"/>
      <use xlink:href="#DejaVuSans-79" x="1556.134766"/>
     </g>
    </g>
   </g>
  </g>
 </g>
 <defs>
  <clipPath id="p6e6395ac65">
   <rect x="57.6" y="41.472" width="357.12" height="266.112"/>
  </clipPath>
 </defs>
</svg>
