<?xml version="1.0" encoding="utf-8" standalone="no"?>
<!DOCTYPE svg PUBLIC "-//W3C//DTD SVG 1.1//EN"
  "http://www.w3.org/Graphics/SVG/1.1/DTD/svg11.dtd">
<svg xmlns:xlink="http://www.w3.org/1999/xlink" width="460.8pt" height="345.6pt" viewBox="0 0 460.8 345.6" xmlns="http://www.w3.org/2000/svg" version="1.1">
 <metadata>
  <rdf:RDF xmlns:dc="http://purl.org/dc/elements/1.1/" xmlns:cc="http://creativecommons.org/ns#" xmlns:rdf="http://www.w3.org/1999/02/22-rdf-syntax-ns#">
   <cc:Work>
    <dc:type rdf:resource="http://purl.org/dc/dcmitype/StillImage"/>
    <dc:date>2025-06-22T02:38:06.969387</dc:date>
    <dc:format>image/svg+xml</dc:format>
    <dc:creator>
     <cc:Agent>
      <dc:title>Matplotlib v3.9.1, https://matplotlib.org/</dc:title>
     </cc:Agent>
    </dc:creator>
   </cc:Work>
  </rdf:RDF>
 </metadata>
 <defs>
  <style type="text/css">*{stroke-linejoin: round; stroke-linecap: butt}</style>
 </defs>
 <g id="figure_1">
  <g id="patch_1">
   <path d="M 0 345.6 
L 460.8 345.6 
L 460.8 0 
L 0 0 
z
" style="fill: #ffffff"/>
  </g>
  <g id="axes_1">
   <g id="patch_2">
    <path d="M 57.6 307.584 
L 414.72 307.584 
L 414.72 41.472 
L 57.6 41.472 
z
" style="fill: #ffffff"/>
   </g>
   <g id="matplotlib.axis_1">
    <g id="xtick_1">
     <g id="line2d_1">
      <defs>
       <path id="md19cd88dc6" d="M 0 0 
L 0 3.5 
" style="stroke: #000000; stroke-width: 0.8"/>
      </defs>
      <g>
       <use xlink:href="#md19cd88dc6" x="73.832727" y="307.584" style="stroke: #000000; stroke-width: 0.8"/>
      </g>
     </g>
     <g id="text_1">
      <!-- 1 -->
      <g transform="translate(70.651477 322.182437) scale(0.1 -0.1)">
       <defs>
        <path id="DejaVuSans-31" d="M 794 531 
L 1825 531 
L 1825 4091 
L 703 3866 
L 703 4441 
L 1819 4666 
L 2450 4666 
L 2450 531 
L 3481 531 
L 3481 0 
L 794 0 
L 794 531 
z
" transform="scale(0.015625)"/>
       </defs>
       <use xlink:href="#DejaVuSans-31"/>
      </g>
     </g>
    </g>
    <g id="xtick_2">
     <g id="line2d_2">
      <g>
       <use xlink:href="#md19cd88dc6" x="109.664165" y="307.584" style="stroke: #000000; stroke-width: 0.8"/>
      </g>
     </g>
     <g id="text_2">
      <!-- 34 -->
      <g transform="translate(103.301665 322.182437) scale(0.1 -0.1)">
       <defs>
        <path id="DejaVuSans-33" d="M 2597 2516 
Q 3050 2419 3304 2112 
Q 3559 1806 3559 1356 
Q 3559 666 3084 287 
Q 2609 -91 1734 -91 
Q 1441 -91 1130 -33 
Q 819 25 488 141 
L 488 750 
Q 750 597 1062 519 
Q 1375 441 1716 441 
Q 2309 441 2620 675 
Q 2931 909 2931 1356 
Q 2931 1769 2642 2001 
Q 2353 2234 1838 2234 
L 1294 2234 
L 1294 2753 
L 1863 2753 
Q 2328 2753 2575 2939 
Q 2822 3125 2822 3475 
Q 2822 3834 2567 4026 
Q 2313 4219 1838 4219 
Q 1578 4219 1281 4162 
Q 984 4106 628 3988 
L 628 4550 
Q 988 4650 1302 4700 
Q 1616 4750 1894 4750 
Q 2613 4750 3031 4423 
Q 3450 4097 3450 3541 
Q 3450 3153 3228 2886 
Q 3006 2619 2597 2516 
z
" transform="scale(0.015625)"/>
        <path id="DejaVuSans-34" d="M 2419 4116 
L 825 1625 
L 2419 1625 
L 2419 4116 
z
M 2253 4666 
L 3047 4666 
L 3047 1625 
L 3713 1625 
L 3713 1100 
L 3047 1100 
L 3047 0 
L 2419 0 
L 2419 1100 
L 313 1100 
L 313 1709 
L 2253 4666 
z
" transform="scale(0.015625)"/>
       </defs>
       <use xlink:href="#DejaVuSans-33"/>
       <use xlink:href="#DejaVuSans-34" x="63.623047"/>
      </g>
     </g>
    </g>
    <g id="xtick_3">
     <g id="line2d_3">
      <g>
       <use xlink:href="#md19cd88dc6" x="145.495604" y="307.584" style="stroke: #000000; stroke-width: 0.8"/>
      </g>
     </g>
     <g id="text_3">
      <!-- 67 -->
      <g transform="translate(139.133104 322.182437) scale(0.1 -0.1)">
       <defs>
        <path id="DejaVuSans-36" d="M 2113 2584 
Q 1688 2584 1439 2293 
Q 1191 2003 1191 1497 
Q 1191 994 1439 701 
Q 1688 409 2113 409 
Q 2538 409 2786 701 
Q 3034 994 3034 1497 
Q 3034 2003 2786 2293 
Q 2538 2584 2113 2584 
z
M 3366 4563 
L 3366 3988 
Q 3128 4100 2886 4159 
Q 2644 4219 2406 4219 
Q 1781 4219 1451 3797 
Q 1122 3375 1075 2522 
Q 1259 2794 1537 2939 
Q 1816 3084 2150 3084 
Q 2853 3084 3261 2657 
Q 3669 2231 3669 1497 
Q 3669 778 3244 343 
Q 2819 -91 2113 -91 
Q 1303 -91 875 529 
Q 447 1150 447 2328 
Q 447 3434 972 4092 
Q 1497 4750 2381 4750 
Q 2619 4750 2861 4703 
Q 3103 4656 3366 4563 
z
" transform="scale(0.015625)"/>
        <path id="DejaVuSans-37" d="M 525 4666 
L 3525 4666 
L 3525 4397 
L 1831 0 
L 1172 0 
L 2766 4134 
L 525 4134 
L 525 4666 
z
" transform="scale(0.015625)"/>
       </defs>
       <use xlink:href="#DejaVuSans-36"/>
       <use xlink:href="#DejaVuSans-37" x="63.623047"/>
      </g>
     </g>
    </g>
    <g id="xtick_4">
     <g id="line2d_4">
      <g>
       <use xlink:href="#md19cd88dc6" x="181.327042" y="307.584" style="stroke: #000000; stroke-width: 0.8"/>
      </g>
     </g>
     <g id="text_4">
      <!-- 100 -->
      <g transform="translate(171.783292 322.182437) scale(0.1 -0.1)">
       <defs>
        <path id="DejaVuSans-30" d="M 2034 4250 
Q 1547 4250 1301 3770 
Q 1056 3291 1056 2328 
Q 1056 1369 1301 889 
Q 1547 409 2034 409 
Q 2525 409 2770 889 
Q 3016 1369 3016 2328 
Q 3016 3291 2770 3770 
Q 2525 4250 2034 4250 
z
M 2034 4750 
Q 2819 4750 3233 4129 
Q 3647 3509 3647 2328 
Q 3647 1150 3233 529 
Q 2819 -91 2034 -91 
Q 1250 -91 836 529 
Q 422 1150 422 2328 
Q 422 3509 836 4129 
Q 1250 4750 2034 4750 
z
" transform="scale(0.015625)"/>
       </defs>
       <use xlink:href="#DejaVuSans-31"/>
       <use xlink:href="#DejaVuSans-30" x="63.623047"/>
       <use xlink:href="#DejaVuSans-30" x="127.246094"/>
      </g>
     </g>
    </g>
    <g id="xtick_5">
     <g id="line2d_5">
      <g>
       <use xlink:href="#md19cd88dc6" x="217.15848" y="307.584" style="stroke: #000000; stroke-width: 0.8"/>
      </g>
     </g>
     <g id="text_5">
      <!-- 133 -->
      <g transform="translate(207.61473 322.182437) scale(0.1 -0.1)">
       <use xlink:href="#DejaVuSans-31"/>
       <use xlink:href="#DejaVuSans-33" x="63.623047"/>
       <use xlink:href="#DejaVuSans-33" x="127.246094"/>
      </g>
     </g>
    </g>
    <g id="xtick_6">
     <g id="line2d_6">
      <g>
       <use xlink:href="#md19cd88dc6" x="254.075719" y="307.584" style="stroke: #000000; stroke-width: 0.8"/>
      </g>
     </g>
     <g id="text_6">
      <!-- 167 -->
      <g transform="translate(244.531969 322.182437) scale(0.1 -0.1)">
       <use xlink:href="#DejaVuSans-31"/>
       <use xlink:href="#DejaVuSans-36" x="63.623047"/>
       <use xlink:href="#DejaVuSans-37" x="127.246094"/>
      </g>
     </g>
    </g>
    <g id="xtick_7">
     <g id="line2d_7">
      <g>
       <use xlink:href="#md19cd88dc6" x="289.907157" y="307.584" style="stroke: #000000; stroke-width: 0.8"/>
      </g>
     </g>
     <g id="text_7">
      <!-- 200 -->
      <g transform="translate(280.363407 322.182437) scale(0.1 -0.1)">
       <defs>
        <path id="DejaVuSans-32" d="M 1228 531 
L 3431 531 
L 3431 0 
L 469 0 
L 469 531 
Q 828 903 1448 1529 
Q 2069 2156 2228 2338 
Q 2531 2678 2651 2914 
Q 2772 3150 2772 3378 
Q 2772 3750 2511 3984 
Q 2250 4219 1831 4219 
Q 1534 4219 1204 4116 
Q 875 4013 500 3803 
L 500 4441 
Q 881 4594 1212 4672 
Q 1544 4750 1819 4750 
Q 2544 4750 2975 4387 
Q 3406 4025 3406 3419 
Q 3406 3131 3298 2873 
Q 3191 2616 2906 2266 
Q 2828 2175 2409 1742 
Q 1991 1309 1228 531 
z
" transform="scale(0.015625)"/>
       </defs>
       <use xlink:href="#DejaVuSans-32"/>
       <use xlink:href="#DejaVuSans-30" x="63.623047"/>
       <use xlink:href="#DejaVuSans-30" x="127.246094"/>
      </g>
     </g>
    </g>
    <g id="xtick_8">
     <g id="line2d_8">
      <g>
       <use xlink:href="#md19cd88dc6" x="325.738595" y="307.584" style="stroke: #000000; stroke-width: 0.8"/>
      </g>
     </g>
     <g id="text_8">
      <!-- 233 -->
      <g transform="translate(316.194845 322.182437) scale(0.1 -0.1)">
       <use xlink:href="#DejaVuSans-32"/>
       <use xlink:href="#DejaVuSans-33" x="63.623047"/>
       <use xlink:href="#DejaVuSans-33" x="127.246094"/>
      </g>
     </g>
    </g>
    <g id="xtick_9">
     <g id="line2d_9">
      <g>
       <use xlink:href="#md19cd88dc6" x="361.570033" y="307.584" style="stroke: #000000; stroke-width: 0.8"/>
      </g>
     </g>
     <g id="text_9">
      <!-- 266 -->
      <g transform="translate(352.026283 322.182437) scale(0.1 -0.1)">
       <use xlink:href="#DejaVuSans-32"/>
       <use xlink:href="#DejaVuSans-36" x="63.623047"/>
       <use xlink:href="#DejaVuSans-36" x="127.246094"/>
      </g>
     </g>
    </g>
    <g id="xtick_10">
     <g id="line2d_10">
      <g>
       <use xlink:href="#md19cd88dc6" x="398.487273" y="307.584" style="stroke: #000000; stroke-width: 0.8"/>
      </g>
     </g>
     <g id="text_10">
      <!-- 300 -->
      <g transform="translate(388.943523 322.182437) scale(0.1 -0.1)">
       <use xlink:href="#DejaVuSans-33"/>
       <use xlink:href="#DejaVuSans-30" x="63.623047"/>
       <use xlink:href="#DejaVuSans-30" x="127.246094"/>
      </g>
     </g>
    </g>
    <g id="text_11">
     <!-- Epochs -->
     <g transform="translate(218.244375 335.860562) scale(0.1 -0.1)">
      <defs>
       <path id="DejaVuSans-45" d="M 628 4666 
L 3578 4666 
L 3578 4134 
L 1259 4134 
L 1259 2753 
L 3481 2753 
L 3481 2222 
L 1259 2222 
L 1259 531 
L 3634 531 
L 3634 0 
L 628 0 
L 628 4666 
z
" transform="scale(0.015625)"/>
       <path id="DejaVuSans-70" d="M 1159 525 
L 1159 -1331 
L 581 -1331 
L 581 3500 
L 1159 3500 
L 1159 2969 
Q 1341 3281 1617 3432 
Q 1894 3584 2278 3584 
Q 2916 3584 3314 3078 
Q 3713 2572 3713 1747 
Q 3713 922 3314 415 
Q 2916 -91 2278 -91 
Q 1894 -91 1617 61 
Q 1341 213 1159 525 
z
M 3116 1747 
Q 3116 2381 2855 2742 
Q 2594 3103 2138 3103 
Q 1681 3103 1420 2742 
Q 1159 2381 1159 1747 
Q 1159 1113 1420 752 
Q 1681 391 2138 391 
Q 2594 391 2855 752 
Q 3116 1113 3116 1747 
z
" transform="scale(0.015625)"/>
       <path id="DejaVuSans-6f" d="M 1959 3097 
Q 1497 3097 1228 2736 
Q 959 2375 959 1747 
Q 959 1119 1226 758 
Q 1494 397 1959 397 
Q 2419 397 2687 759 
Q 2956 1122 2956 1747 
Q 2956 2369 2687 2733 
Q 2419 3097 1959 3097 
z
M 1959 3584 
Q 2709 3584 3137 3096 
Q 3566 2609 3566 1747 
Q 3566 888 3137 398 
Q 2709 -91 1959 -91 
Q 1206 -91 779 398 
Q 353 888 353 1747 
Q 353 2609 779 3096 
Q 1206 3584 1959 3584 
z
" transform="scale(0.015625)"/>
       <path id="DejaVuSans-63" d="M 3122 3366 
L 3122 2828 
Q 2878 2963 2633 3030 
Q 2388 3097 2138 3097 
Q 1578 3097 1268 2742 
Q 959 2388 959 1747 
Q 959 1106 1268 751 
Q 1578 397 2138 397 
Q 2388 397 2633 464 
Q 2878 531 3122 666 
L 3122 134 
Q 2881 22 2623 -34 
Q 2366 -91 2075 -91 
Q 1284 -91 818 406 
Q 353 903 353 1747 
Q 353 2603 823 3093 
Q 1294 3584 2113 3584 
Q 2378 3584 2631 3529 
Q 2884 3475 3122 3366 
z
" transform="scale(0.015625)"/>
       <path id="DejaVuSans-68" d="M 3513 2113 
L 3513 0 
L 2938 0 
L 2938 2094 
Q 2938 2591 2744 2837 
Q 2550 3084 2163 3084 
Q 1697 3084 1428 2787 
Q 1159 2491 1159 1978 
L 1159 0 
L 581 0 
L 581 4863 
L 1159 4863 
L 1159 2956 
Q 1366 3272 1645 3428 
Q 1925 3584 2291 3584 
Q 2894 3584 3203 3211 
Q 3513 2838 3513 2113 
z
" transform="scale(0.015625)"/>
       <path id="DejaVuSans-73" d="M 2834 3397 
L 2834 2853 
Q 2591 2978 2328 3040 
Q 2066 3103 1784 3103 
Q 1356 3103 1142 2972 
Q 928 2841 928 2578 
Q 928 2378 1081 2264 
Q 1234 2150 1697 2047 
L 1894 2003 
Q 2506 1872 2764 1633 
Q 3022 1394 3022 966 
Q 3022 478 2636 193 
Q 2250 -91 1575 -91 
Q 1294 -91 989 -36 
Q 684 19 347 128 
L 347 722 
Q 666 556 975 473 
Q 1284 391 1588 391 
Q 1994 391 2212 530 
Q 2431 669 2431 922 
Q 2431 1156 2273 1281 
Q 2116 1406 1581 1522 
L 1381 1569 
Q 847 1681 609 1914 
Q 372 2147 372 2553 
Q 372 3047 722 3315 
Q 1072 3584 1716 3584 
Q 2034 3584 2315 3537 
Q 2597 3491 2834 3397 
z
" transform="scale(0.015625)"/>
      </defs>
      <use xlink:href="#DejaVuSans-45"/>
      <use xlink:href="#DejaVuSans-70" x="63.183594"/>
      <use xlink:href="#DejaVuSans-6f" x="126.660156"/>
      <use xlink:href="#DejaVuSans-63" x="187.841797"/>
      <use xlink:href="#DejaVuSans-68" x="242.822266"/>
      <use xlink:href="#DejaVuSans-73" x="306.201172"/>
     </g>
    </g>
   </g>
   <g id="matplotlib.axis_2">
    <g id="ytick_1">
     <g id="line2d_11">
      <defs>
       <path id="m0306d84e89" d="M 0 0 
L -3.5 0 
" style="stroke: #000000; stroke-width: 0.8"/>
      </defs>
      <g>
       <use xlink:href="#m0306d84e89" x="57.6" y="277.757813" style="stroke: #000000; stroke-width: 0.8"/>
      </g>
     </g>
     <g id="text_12">
      <!-- 10 -->
      <g transform="translate(37.875 281.557032) scale(0.1 -0.1)">
       <use xlink:href="#DejaVuSans-31"/>
       <use xlink:href="#DejaVuSans-30" x="63.623047"/>
      </g>
     </g>
    </g>
    <g id="ytick_2">
     <g id="line2d_12">
      <g>
       <use xlink:href="#m0306d84e89" x="57.6" y="241.410567" style="stroke: #000000; stroke-width: 0.8"/>
      </g>
     </g>
     <g id="text_13">
      <!-- 20 -->
      <g transform="translate(37.875 245.209786) scale(0.1 -0.1)">
       <use xlink:href="#DejaVuSans-32"/>
       <use xlink:href="#DejaVuSans-30" x="63.623047"/>
      </g>
     </g>
    </g>
    <g id="ytick_3">
     <g id="line2d_13">
      <g>
       <use xlink:href="#m0306d84e89" x="57.6" y="205.063321" style="stroke: #000000; stroke-width: 0.8"/>
      </g>
     </g>
     <g id="text_14">
      <!-- 30 -->
      <g transform="translate(37.875 208.86254) scale(0.1 -0.1)">
       <use xlink:href="#DejaVuSans-33"/>
       <use xlink:href="#DejaVuSans-30" x="63.623047"/>
      </g>
     </g>
    </g>
    <g id="ytick_4">
     <g id="line2d_14">
      <g>
       <use xlink:href="#m0306d84e89" x="57.6" y="168.716075" style="stroke: #000000; stroke-width: 0.8"/>
      </g>
     </g>
     <g id="text_15">
      <!-- 40 -->
      <g transform="translate(37.875 172.515294) scale(0.1 -0.1)">
       <use xlink:href="#DejaVuSans-34"/>
       <use xlink:href="#DejaVuSans-30" x="63.623047"/>
      </g>
     </g>
    </g>
    <g id="ytick_5">
     <g id="line2d_15">
      <g>
       <use xlink:href="#m0306d84e89" x="57.6" y="132.368829" style="stroke: #000000; stroke-width: 0.8"/>
      </g>
     </g>
     <g id="text_16">
      <!-- 50 -->
      <g transform="translate(37.875 136.168048) scale(0.1 -0.1)">
       <defs>
        <path id="DejaVuSans-35" d="M 691 4666 
L 3169 4666 
L 3169 4134 
L 1269 4134 
L 1269 2991 
Q 1406 3038 1543 3061 
Q 1681 3084 1819 3084 
Q 2600 3084 3056 2656 
Q 3513 2228 3513 1497 
Q 3513 744 3044 326 
Q 2575 -91 1722 -91 
Q 1428 -91 1123 -41 
Q 819 9 494 109 
L 494 744 
Q 775 591 1075 516 
Q 1375 441 1709 441 
Q 2250 441 2565 725 
Q 2881 1009 2881 1497 
Q 2881 1984 2565 2268 
Q 2250 2553 1709 2553 
Q 1456 2553 1204 2497 
Q 953 2441 691 2322 
L 691 4666 
z
" transform="scale(0.015625)"/>
       </defs>
       <use xlink:href="#DejaVuSans-35"/>
       <use xlink:href="#DejaVuSans-30" x="63.623047"/>
      </g>
     </g>
    </g>
    <g id="ytick_6">
     <g id="line2d_16">
      <g>
       <use xlink:href="#m0306d84e89" x="57.6" y="96.021583" style="stroke: #000000; stroke-width: 0.8"/>
      </g>
     </g>
     <g id="text_17">
      <!-- 60 -->
      <g transform="translate(37.875 99.820802) scale(0.1 -0.1)">
       <use xlink:href="#DejaVuSans-36"/>
       <use xlink:href="#DejaVuSans-30" x="63.623047"/>
      </g>
     </g>
    </g>
    <g id="ytick_7">
     <g id="line2d_17">
      <g>
       <use xlink:href="#m0306d84e89" x="57.6" y="59.674337" style="stroke: #000000; stroke-width: 0.8"/>
      </g>
     </g>
     <g id="text_18">
      <!-- 70 -->
      <g transform="translate(37.875 63.473556) scale(0.1 -0.1)">
       <use xlink:href="#DejaVuSans-37"/>
       <use xlink:href="#DejaVuSans-30" x="63.623047"/>
      </g>
     </g>
    </g>
    <g id="text_19">
     <!-- Accuracy -->
     <g transform="translate(31.795312 197.356125) rotate(-90) scale(0.1 -0.1)">
      <defs>
       <path id="DejaVuSans-41" d="M 2188 4044 
L 1331 1722 
L 3047 1722 
L 2188 4044 
z
M 1831 4666 
L 2547 4666 
L 4325 0 
L 3669 0 
L 3244 1197 
L 1141 1197 
L 716 0 
L 50 0 
L 1831 4666 
z
" transform="scale(0.015625)"/>
       <path id="DejaVuSans-75" d="M 544 1381 
L 544 3500 
L 1119 3500 
L 1119 1403 
Q 1119 906 1312 657 
Q 1506 409 1894 409 
Q 2359 409 2629 706 
Q 2900 1003 2900 1516 
L 2900 3500 
L 3475 3500 
L 3475 0 
L 2900 0 
L 2900 538 
Q 2691 219 2414 64 
Q 2138 -91 1772 -91 
Q 1169 -91 856 284 
Q 544 659 544 1381 
z
M 1991 3584 
L 1991 3584 
z
" transform="scale(0.015625)"/>
       <path id="DejaVuSans-72" d="M 2631 2963 
Q 2534 3019 2420 3045 
Q 2306 3072 2169 3072 
Q 1681 3072 1420 2755 
Q 1159 2438 1159 1844 
L 1159 0 
L 581 0 
L 581 3500 
L 1159 3500 
L 1159 2956 
Q 1341 3275 1631 3429 
Q 1922 3584 2338 3584 
Q 2397 3584 2469 3576 
Q 2541 3569 2628 3553 
L 2631 2963 
z
" transform="scale(0.015625)"/>
       <path id="DejaVuSans-61" d="M 2194 1759 
Q 1497 1759 1228 1600 
Q 959 1441 959 1056 
Q 959 750 1161 570 
Q 1363 391 1709 391 
Q 2188 391 2477 730 
Q 2766 1069 2766 1631 
L 2766 1759 
L 2194 1759 
z
M 3341 1997 
L 3341 0 
L 2766 0 
L 2766 531 
Q 2569 213 2275 61 
Q 1981 -91 1556 -91 
Q 1019 -91 701 211 
Q 384 513 384 1019 
Q 384 1609 779 1909 
Q 1175 2209 1959 2209 
L 2766 2209 
L 2766 2266 
Q 2766 2663 2505 2880 
Q 2244 3097 1772 3097 
Q 1472 3097 1187 3025 
Q 903 2953 641 2809 
L 641 3341 
Q 956 3463 1253 3523 
Q 1550 3584 1831 3584 
Q 2591 3584 2966 3190 
Q 3341 2797 3341 1997 
z
" transform="scale(0.015625)"/>
       <path id="DejaVuSans-79" d="M 2059 -325 
Q 1816 -950 1584 -1140 
Q 1353 -1331 966 -1331 
L 506 -1331 
L 506 -850 
L 844 -850 
Q 1081 -850 1212 -737 
Q 1344 -625 1503 -206 
L 1606 56 
L 191 3500 
L 800 3500 
L 1894 763 
L 2988 3500 
L 3597 3500 
L 2059 -325 
z
" transform="scale(0.015625)"/>
      </defs>
      <use xlink:href="#DejaVuSans-41"/>
      <use xlink:href="#DejaVuSans-63" x="66.658203"/>
      <use xlink:href="#DejaVuSans-63" x="121.638672"/>
      <use xlink:href="#DejaVuSans-75" x="176.619141"/>
      <use xlink:href="#DejaVuSans-72" x="239.998047"/>
      <use xlink:href="#DejaVuSans-61" x="281.111328"/>
      <use xlink:href="#DejaVuSans-63" x="342.390625"/>
      <use xlink:href="#DejaVuSans-79" x="397.371094"/>
     </g>
    </g>
   </g>
   <g id="line2d_18">
    <path d="M 73.832727 295.488 
L 74.918528 271.451566 
L 76.00433 253.2525 
L 77.090131 238.361033 
L 79.261733 217.232379 
L 80.347534 208.003814 
L 81.433335 200.948813 
L 82.519137 192.454462 
L 83.604938 187.024183 
L 84.690739 180.161823 
L 87.948142 165.55023 
L 89.033943 159.836443 
L 90.119745 157.684686 
L 91.205546 153.868225 
L 92.291347 151.651043 
L 93.377148 150.335273 
L 94.462949 148.735994 
L 95.54875 180.40535 
L 96.634552 178.704299 
L 97.720353 175.836501 
L 98.806154 171.798322 
L 99.891955 169.875553 
L 100.977756 165.8192 
L 102.063557 162.675163 
L 103.149358 160.639717 
L 104.23516 156.776005 
L 105.320961 155.442061 
L 106.406762 153.206705 
L 108.578364 148.00178 
L 109.664165 146.682375 
L 110.749967 142.320705 
L 111.835768 141.157593 
L 112.921569 139.09307 
L 114.00737 135.876339 
L 115.093171 133.88451 
L 116.178972 132.426985 
L 117.264773 129.050326 
L 118.350575 127.763633 
L 119.436376 125.655493 
L 121.607978 122.387876 
L 122.693779 118.135248 
L 123.77958 117.197489 
L 124.865382 115.532785 
L 125.951183 112.323323 
L 128.122785 108.317857 
L 129.208586 106.645883 
L 130.294387 105.559101 
L 131.380189 104.083403 
L 132.46599 103.45096 
L 135.723393 100.372349 
L 136.809194 100.248768 
L 137.894995 101.393706 
L 138.980797 139.496524 
L 140.066598 143.153057 
L 141.152399 143.236656 
L 142.2382 141.073995 
L 143.324001 139.438369 
L 144.409802 139.979943 
L 145.495604 137.711875 
L 146.581405 135.850896 
L 147.667206 137.061259 
L 149.838808 132.794092 
L 150.924609 131.583729 
L 152.01041 131.801812 
L 153.096212 130.856784 
L 155.267814 127.610975 
L 156.353615 127.218425 
L 157.439416 127.741825 
L 158.525217 127.138461 
L 159.611019 124.292471 
L 160.69682 122.896737 
L 161.782621 123.245671 
L 162.868422 121.922631 
L 163.954223 121.908092 
L 165.040024 120.181598 
L 166.125825 119.42194 
L 167.211627 119.948975 
L 168.297428 117.241106 
L 169.383229 116.98304 
L 170.46903 116.099802 
L 171.554831 113.533686 
L 172.640632 114.089799 
L 173.726434 113.170214 
L 175.898036 110.705871 
L 176.983837 110.084333 
L 178.069638 108.67406 
L 179.155439 108.881239 
L 181.327042 105.715394 
L 182.412843 104.356007 
L 183.498644 104.701306 
L 185.670246 101.848047 
L 186.756047 101.669945 
L 187.841849 99.561805 
L 188.92765 98.082472 
L 190.013451 97.497282 
L 191.099252 96.668564 
L 192.185053 95.058381 
L 193.270854 95.029304 
L 195.442457 91.885267 
L 197.614059 90.638556 
L 198.69986 88.952044 
L 199.785661 88.061536 
L 200.871462 86.142402 
L 201.957264 85.415457 
L 203.043065 85.095601 
L 204.128866 83.518131 
L 205.214667 82.743934 
L 206.300468 81.689864 
L 207.386269 80.999267 
L 208.472071 79.668957 
L 209.557872 79.930658 
L 210.643673 78.167816 
L 211.729474 78.313205 
L 212.815275 76.125101 
L 213.901076 76.390436 
L 216.072679 73.966074 
L 217.15848 74.525822 
L 218.244281 74.631229 
L 219.330082 73.777069 
L 220.415883 73.43177 
L 221.501684 73.722548 
L 222.587486 72.813867 
L 223.673287 71.512635 
L 224.759088 72.875657 
L 225.844889 123.398329 
L 226.93069 126.873126 
L 228.016491 127.087575 
L 229.102292 125.710014 
L 231.273895 125.324733 
L 232.359696 125.593703 
L 233.445497 123.136629 
L 234.531298 123.630951 
L 235.617099 123.013048 
L 236.702901 121.664565 
L 237.788702 121.802685 
L 239.960304 119.574599 
L 241.046105 119.672736 
L 242.131906 120.803136 
L 243.217708 120.061652 
L 244.303509 118.476912 
L 245.38931 118.018937 
L 246.475111 116.648645 
L 247.560912 117.520979 
L 248.646713 116.561412 
L 250.818316 116.372406 
L 251.904117 116.150688 
L 252.989918 115.758138 
L 254.075719 115.19839 
L 255.16152 114.224284 
L 256.247321 114.067991 
L 257.333123 114.729511 
L 258.418924 113.628189 
L 259.504725 113.170214 
L 260.590526 113.017556 
L 261.676327 111.385564 
L 262.762128 112.010737 
L 263.847929 112.02891 
L 264.933731 111.280157 
L 266.019532 110.920319 
L 267.105333 111.163846 
L 268.191134 109.793555 
L 269.276935 111.036631 
L 270.362736 109.044802 
L 271.448538 108.67406 
L 272.534339 107.74357 
L 273.62014 108.939395 
L 274.705941 108.852161 
L 275.791742 107.74357 
L 276.877543 108.157929 
L 277.963344 106.482321 
L 279.049146 106.42053 
L 280.134947 107.696319 
L 281.220748 104.868503 
L 282.306549 104.683132 
L 283.39235 105.213802 
L 284.478151 105.079317 
L 285.563953 103.505481 
L 286.649754 104.879407 
L 287.735555 103.672679 
L 289.907157 102.382351 
L 290.992958 102.407794 
L 292.07876 101.862586 
L 295.336163 100.655857 
L 296.421964 100.935731 
L 297.507765 99.928912 
L 298.593566 98.416867 
L 299.679368 98.64222 
L 300.765169 98.438675 
L 302.936771 98.729453 
L 304.022572 96.755798 
L 305.108373 96.566792 
L 306.194175 96.072469 
L 307.279976 95.861655 
L 308.365777 95.788961 
L 309.451578 94.887549 
L 311.62318 93.862557 
L 312.708981 93.6263 
L 313.794783 92.550421 
L 314.880584 92.256009 
L 315.966385 91.688992 
L 317.052186 90.896622 
L 318.137987 91.012933 
L 319.223788 89.751683 
L 320.30959 89.631737 
L 321.395391 89.275534 
L 322.481192 88.523146 
L 323.566993 88.246907 
L 324.652794 87.447268 
L 325.738595 86.880251 
L 326.824396 87.000197 
L 327.910198 85.582654 
L 328.995999 84.77938 
L 330.0818 85.324589 
L 331.167601 84.975655 
L 332.253402 83.721675 
L 333.339203 81.980642 
L 334.425005 83.612634 
L 335.510806 81.446338 
L 336.596607 81.668056 
L 339.85401 79.578089 
L 340.939811 79.585359 
L 342.025613 77.52447 
L 343.111414 78.51675 
L 345.283016 76.386801 
L 346.368817 75.616239 
L 347.454618 75.296384 
L 348.54042 75.238228 
L 349.626221 74.602151 
L 350.712022 73.439039 
L 351.797823 71.923359 
L 352.883624 72.37043 
L 353.969425 72.348622 
L 355.055227 71.352707 
L 356.141028 70.78569 
L 357.226829 70.658475 
L 358.31263 69.760698 
L 359.398431 69.509902 
L 361.570033 67.670731 
L 362.655835 65.984219 
L 363.741636 66.365865 
L 364.827437 67.314528 
L 365.913238 64.98467 
L 366.999039 65.362681 
L 368.08484 65.250005 
L 369.170642 68.121437 
L 370.256443 69.818854 
L 371.342244 71.11645 
L 372.428045 73.787973 
L 373.513846 73.70074 
L 374.599647 75.430868 
L 375.685448 74.136907 
L 376.77125 75.201881 
L 377.857051 74.046038 
L 378.942852 72.70846 
L 380.028653 73.838859 
L 381.114454 74.460397 
L 382.200255 74.394972 
L 383.286057 75.54718 
L 384.371858 74.41678 
L 385.457659 75.80161 
L 386.54346 74.642133 
L 387.629261 74.071481 
L 388.715062 76.219604 
L 389.800863 74.413146 
L 390.886665 74.936546 
L 391.972466 76.103293 
L 393.058267 76.40134 
L 394.144068 75.925191 
L 395.229869 75.118282 
L 396.31567 75.750724 
L 397.401472 75.681664 
L 398.487273 75.096474 
L 398.487273 75.096474 
" clip-path="url(#p8ea16a6bd7)" style="fill: none; stroke: #1f77b4; stroke-width: 1.5; stroke-linecap: square"/>
   </g>
   <g id="line2d_19">
    <path d="M 73.832727 274.740992 
L 74.918528 248.134808 
L 76.00433 235.267883 
L 77.090131 220.619943 
L 78.175932 200.047401 
L 80.347534 182.128209 
L 81.433335 176.385344 
L 82.519137 164.754226 
L 83.604938 157.666513 
L 84.690739 151.487481 
L 85.77654 148.288923 
L 86.862341 144.10899 
L 87.948142 136.766846 
L 89.033943 136.512415 
L 90.119745 128.625063 
L 91.205546 125.971714 
L 92.291347 126.080756 
L 93.377148 124.481477 
L 94.462949 123.427407 
L 95.54875 158.284416 
L 96.634552 153.232149 
L 97.720353 151.814606 
L 98.806154 151.705564 
L 99.891955 137.348402 
L 100.977756 136.439721 
L 102.063557 145.744616 
L 103.149358 143.491087 
L 104.23516 131.242065 
L 105.320961 126.335187 
L 106.406762 126.15345 
L 107.492563 121.973517 
L 108.578364 118.774959 
L 109.664165 119.792682 
L 110.749967 116.92125 
L 111.835768 113.686345 
L 112.921569 111.142038 
L 114.00737 107.979827 
L 115.093171 106.48959 
L 116.178972 103.545463 
L 117.264773 104.744922 
L 118.350575 102.200615 
L 119.436376 98.602238 
L 120.522177 96.784876 
L 121.607978 95.549069 
L 122.693779 92.968415 
L 123.77958 88.134231 
L 124.865382 89.188301 
L 125.951183 87.370939 
L 127.036984 86.135132 
L 128.122785 86.244174 
L 129.208586 82.064241 
L 130.294387 81.773463 
L 131.380189 79.810712 
L 132.46599 79.265503 
L 133.551791 79.447239 
L 134.637592 79.192808 
L 135.723393 78.538558 
L 136.809194 78.066044 
L 137.894995 78.211433 
L 138.980797 123.354712 
L 140.066598 117.32107 
L 141.152399 109.651801 
L 142.2382 117.248375 
L 143.324001 118.738612 
L 144.409802 113.649998 
L 145.495604 109.179286 
L 146.581405 113.686345 
L 147.667206 110.342398 
L 148.753007 104.853964 
L 149.838808 112.159761 
L 150.924609 112.087066 
L 152.01041 108.488689 
L 153.096212 111.832635 
L 154.182013 104.817617 
L 155.267814 100.601336 
L 156.353615 105.290131 
L 157.439416 109.179286 
L 158.525217 99.838044 
L 159.611019 107.725397 
L 160.69682 104.090672 
L 161.782621 98.529543 
L 162.868422 99.510919 
L 163.954223 102.455046 
L 165.040024 101.146545 
L 166.125825 100.237864 
L 167.211627 96.021583 
L 168.297428 92.314164 
L 169.383229 94.458652 
L 170.46903 94.74943 
L 171.554831 88.097884 
L 172.640632 93.477276 
L 173.726434 90.78758 
L 174.812235 89.042912 
L 175.898036 92.713984 
L 176.983837 86.971119 
L 178.069638 87.589022 
L 179.155439 83.845256 
L 181.327042 85.77166 
L 182.412843 80.35592 
L 183.498644 82.100588 
L 184.584445 82.136935 
L 185.670246 78.683947 
L 186.756047 78.538558 
L 187.841849 78.865683 
L 188.92765 75.594431 
L 190.013451 80.35592 
L 191.099252 72.395873 
L 192.185053 73.886111 
L 193.270854 72.468568 
L 194.356656 71.741623 
L 195.442457 73.013777 
L 196.528258 69.924261 
L 197.614059 70.614858 
L 198.69986 68.034204 
L 199.785661 69.66983 
L 200.871462 69.560788 
L 201.957264 67.307259 
L 203.043065 68.470371 
L 204.128866 64.363132 
L 205.214667 64.217743 
L 206.300468 62.836548 
L 207.386269 63.99966 
L 208.472071 61.237269 
L 209.557872 61.273616 
L 210.643673 60.837449 
L 211.729474 61.964214 
L 212.815275 60.619366 
L 213.901076 60.074157 
L 214.986877 60.364935 
L 216.072679 59.710685 
L 217.15848 60.219546 
L 218.244281 58.802003 
L 219.330082 59.492601 
L 220.415883 58.511225 
L 221.501684 58.874698 
L 224.759088 58.220447 
L 225.844889 108.270605 
L 226.93069 114.558679 
L 228.016491 101.037503 
L 229.102292 105.508215 
L 230.188094 103.618158 
L 231.273895 102.92756 
L 232.359696 100.855767 
L 233.445497 103.036602 
L 234.531298 101.146545 
L 235.617099 102.27331 
L 236.702901 106.307854 
L 237.788702 103.690852 
L 238.874503 107.434619 
L 241.046105 97.439126 
L 242.131906 98.347807 
L 243.217708 100.601336 
L 244.303509 99.474572 
L 245.38931 98.020682 
L 246.475111 102.200615 
L 247.560912 93.477276 
L 248.646713 96.20332 
L 249.732514 91.623567 
L 250.818316 94.785777 
L 251.904117 96.784876 
L 252.989918 97.875293 
L 254.075719 89.079259 
L 255.16152 94.74943 
L 256.247321 93.513623 
L 257.333123 93.804401 
L 258.418924 96.348709 
L 259.504725 94.858471 
L 260.590526 101.909837 
L 261.676327 97.112001 
L 262.762128 100.455947 
L 263.847929 92.604942 
L 264.933731 94.676735 
L 266.019532 97.875293 
L 267.105333 94.422305 
L 268.191134 95.149249 
L 269.276935 92.386859 
L 270.362736 91.1874 
L 271.448538 86.026091 
L 272.534339 83.772561 
L 273.62014 87.334592 
L 274.705941 87.843453 
L 275.791742 91.914345 
L 276.877543 90.78758 
L 277.963344 84.390465 
L 279.049146 85.37184 
L 280.134947 80.973823 
L 281.220748 85.735313 
L 282.306549 82.245977 
L 283.39235 87.734411 
L 285.563953 82.754839 
L 286.649754 84.899326 
L 287.735555 84.71759 
L 288.821356 86.534952 
L 290.992958 84.644895 
L 292.07876 87.007466 
L 293.164561 80.646698 
L 294.250362 80.646698 
L 295.336163 84.026992 
L 296.421964 82.536755 
L 297.507765 88.861176 
L 298.593566 86.498605 
L 299.679368 83.554478 
L 300.765169 78.720294 
L 301.85097 79.665323 
L 302.936771 84.426812 
L 304.022572 80.719393 
L 305.108373 80.719393 
L 306.194175 80.174184 
L 307.279976 77.121015 
L 308.365777 75.121917 
L 309.451578 79.338197 
L 310.537379 74.831139 
L 311.62318 78.90203 
L 312.708981 76.212334 
L 313.794783 72.83204 
L 315.966385 83.554478 
L 317.052186 72.722999 
L 318.137987 70.869289 
L 319.223788 70.869289 
L 320.30959 74.358625 
L 321.395391 73.304555 
L 322.481192 73.777069 
L 323.566993 70.542164 
L 324.652794 70.033302 
L 325.738595 77.266404 
L 326.824396 71.887012 
L 327.910198 71.232762 
L 328.995999 71.923359 
L 330.0818 73.23186 
L 331.167601 66.434925 
L 332.253402 68.543065 
L 333.339203 69.01558 
L 334.425005 65.671633 
L 335.510806 66.871092 
L 336.596607 71.850665 
L 337.682408 67.343606 
L 339.85401 64.981035 
L 340.939811 64.762952 
L 342.025613 63.018284 
L 343.111414 64.944688 
L 344.197215 65.05373 
L 345.283016 65.926064 
L 346.368817 62.727506 
L 347.454618 63.636187 
L 348.54042 62.691159 
L 349.626221 60.764755 
L 350.712022 61.528047 
L 351.797823 59.674337 
L 352.883624 61.455352 
L 353.969425 59.492601 
L 355.055227 62.291339 
L 356.141028 58.1841 
L 357.226829 59.528948 
L 358.31263 57.311766 
L 359.398431 57.711586 
L 360.484232 59.856074 
L 362.655835 55.349015 
L 363.741636 56.693863 
L 364.827437 56.802905 
L 365.913238 53.568 
L 366.999039 54.440334 
L 368.08484 55.966918 
L 369.170642 56.47578 
L 370.256443 61.4917 
L 371.342244 61.455352 
L 372.428045 60.03781 
L 373.513846 63.418104 
L 374.599647 59.347212 
L 375.685448 64.326785 
L 376.77125 61.382658 
L 377.857051 63.99966 
L 378.942852 62.945589 
L 380.028653 65.235466 
L 381.114454 61.164574 
L 382.200255 66.289536 
L 383.286057 62.945589 
L 384.371858 62.727506 
L 385.457659 63.090978 
L 386.54346 62.073256 
L 387.629261 63.963312 
L 388.715062 63.963312 
L 389.800863 62.872895 
L 390.886665 65.271813 
L 391.972466 62.473075 
L 393.058267 64.181396 
L 394.144068 62.945589 
L 395.229869 63.963312 
L 396.31567 63.926965 
L 397.401472 61.600741 
L 398.487273 62.036908 
L 398.487273 62.036908 
" clip-path="url(#p8ea16a6bd7)" style="fill: none; stroke: #ff7f0e; stroke-width: 1.5; stroke-linecap: square"/>
   </g>
   <g id="line2d_20">
    <path d="M 73.832727 293.499931 
L 74.918528 284.049647 
L 76.00433 272.669199 
L 77.090131 265.098945 
L 78.175932 258.581508 
L 79.261733 253.643296 
L 80.347534 251.863534 
L 81.433335 244.694353 
L 82.519137 240.859092 
L 83.604938 237.700642 
L 84.690739 239.029196 
L 85.77654 233.063234 
L 86.862341 235.469673 
L 87.948142 227.197541 
L 89.033943 227.498346 
L 90.119745 220.930774 
L 91.205546 218.649671 
L 92.291347 220.629969 
L 93.377148 215.691757 
L 94.462949 215.441087 
L 95.54875 240.031879 
L 96.634552 241.059628 
L 97.720353 234.617392 
L 98.806154 238.051581 
L 99.891955 225.643383 
L 100.977756 231.534143 
L 102.063557 234.416856 
L 103.149358 232.561893 
L 104.23516 219.60222 
L 105.320961 214.037331 
L 106.406762 222.083859 
L 107.492563 219.652354 
L 108.578364 209.374857 
L 109.664165 210.277271 
L 110.749967 213.661325 
L 111.835768 218.975543 
L 112.921569 206.642547 
L 114.00737 210.352472 
L 115.093171 202.907554 
L 116.178972 197.593336 
L 117.264773 202.055273 
L 118.350575 201.679267 
L 119.436376 200.425914 
L 120.522177 197.342665 
L 121.607978 203.007822 
L 122.693779 194.535154 
L 123.77958 189.647076 
L 124.865382 193.206599 
L 127.036984 186.989967 
L 128.122785 191.552173 
L 129.208586 186.664095 
L 130.294387 183.254974 
L 131.380189 183.956852 
L 132.46599 183.480577 
L 133.551791 184.784065 
L 134.637592 182.302425 
L 135.723393 182.377626 
L 136.809194 181.525346 
L 137.894995 183.154706 
L 138.980797 221.256646 
L 140.066598 207.971101 
L 141.152399 206.843083 
L 142.2382 214.062398 
L 143.324001 217.872592 
L 144.409802 207.670296 
L 145.495604 209.926332 
L 146.581405 209.374857 
L 147.667206 204.762517 
L 148.753007 209.77593 
L 149.838808 207.8959 
L 150.924609 214.313069 
L 152.01041 201.578999 
L 153.096212 208.021235 
L 154.182013 202.782218 
L 155.267814 198.721354 
L 156.353615 201.22806 
L 157.439416 206.767882 
L 158.525217 197.342665 
L 159.611019 209.60046 
L 160.69682 202.531548 
L 161.782621 199.147494 
L 162.868422 199.5235 
L 163.954223 202.807285 
L 165.040024 196.79119 
L 166.125825 192.529788 
L 167.211627 200.877121 
L 168.297428 191.82791 
L 169.383229 193.607672 
L 170.46903 191.727642 
L 171.554831 189.446539 
L 172.640632 197.142128 
L 173.726434 195.061562 
L 174.812235 191.276435 
L 175.898036 194.535154 
L 176.983837 182.904035 
L 178.069638 193.657806 
L 179.155439 184.257656 
L 180.24124 185.009668 
L 181.327042 190.098283 
L 182.412843 180.171725 
L 183.498644 181.75095 
L 184.584445 178.667701 
L 185.670246 184.157388 
L 186.756047 181.450145 
L 187.841849 184.859266 
L 188.92765 177.56475 
L 190.013451 186.538759 
L 191.099252 180.046389 
L 192.185053 180.021322 
L 193.270854 176.887939 
L 194.356656 173.002544 
L 195.442457 177.439414 
L 196.528258 171.473453 
L 197.614059 168.991813 
L 198.69986 172.024928 
L 199.785661 177.740219 
L 200.871462 174.631903 
L 201.957264 173.554019 
L 203.043065 177.213811 
L 204.128866 172.325733 
L 205.214667 165.833363 
L 206.300468 166.785911 
L 207.386269 167.964063 
L 208.472071 167.913929 
L 209.557872 168.766209 
L 210.643673 165.908564 
L 211.729474 167.011515 
L 212.815275 166.234436 
L 213.901076 165.306954 
L 214.986877 165.908564 
L 216.072679 162.273839 
L 217.15848 164.880814 
L 218.244281 163.727729 
L 219.330082 163.251455 
L 220.415883 163.602394 
L 221.501684 163.326656 
L 222.587486 164.103735 
L 223.673287 163.777863 
L 224.759088 163.727729 
L 225.844889 203.985438 
L 226.93069 211.856496 
L 228.016491 197.994409 
L 229.102292 200.450981 
L 230.188094 201.980072 
L 231.273895 208.221772 
L 232.359696 195.136763 
L 233.445497 193.03113 
L 234.531298 198.972024 
L 235.617099 199.322963 
L 236.702901 207.570028 
L 237.788702 198.245079 
L 238.874503 208.121503 
L 239.960304 200.826987 
L 241.046105 187.917448 
L 242.131906 190.775094 
L 243.217708 197.969342 
L 244.303509 198.721354 
L 245.38931 193.206599 
L 246.475111 194.785824 
L 247.560912 197.392799 
L 248.646713 192.203916 
L 249.732514 195.312233 
L 250.818316 201.353396 
L 251.904117 188.769728 
L 252.989918 191.777776 
L 254.075719 184.307791 
L 255.16152 190.298819 
L 256.247321 194.986361 
L 257.333123 195.688239 
L 258.418924 203.659566 
L 259.504725 194.234349 
L 260.590526 206.091071 
L 261.676327 206.517211 
L 262.762128 207.118821 
L 263.847929 191.075898 
L 264.933731 199.272829 
L 266.019532 199.448299 
L 267.105333 189.822545 
L 268.191134 204.286242 
L 269.276935 187.015034 
L 270.362736 185.360607 
L 271.448538 186.889698 
L 272.534339 186.639028 
L 273.62014 182.227224 
L 274.705941 192.329252 
L 275.791742 189.421472 
L 276.877543 186.087552 
L 277.963344 188.092918 
L 279.049146 188.143052 
L 281.220748 189.822545 
L 282.306549 185.586211 
L 283.39235 195.813574 
L 284.478151 185.736613 
L 285.563953 178.84317 
L 286.649754 191.075898 
L 287.735555 188.66946 
L 288.821356 189.195868 
L 289.907157 190.524423 
L 290.992958 193.382069 
L 292.07876 187.967582 
L 293.164561 185.160071 
L 294.250362 178.793036 
L 295.336163 181.224541 
L 296.421964 180.647999 
L 297.507765 193.45727 
L 298.593566 192.379386 
L 300.765169 178.517298 
L 301.85097 184.257656 
L 302.936771 193.407136 
L 304.022572 182.929102 
L 305.108373 182.578163 
L 306.194175 185.260339 
L 307.279976 177.263945 
L 308.365777 181.700816 
L 309.451578 182.678431 
L 310.537379 179.369579 
L 311.62318 182.152023 
L 312.708981 180.347194 
L 313.794783 173.052678 
L 314.880584 189.647076 
L 315.966385 186.062485 
L 317.052186 178.742902 
L 318.137987 166.058966 
L 319.223788 180.221859 
L 320.30959 174.205763 
L 321.395391 183.505644 
L 322.481192 175.25858 
L 323.566993 170.721441 
L 324.652794 170.972111 
L 325.738595 182.026688 
L 326.824396 173.37855 
L 327.910198 170.069697 
L 328.995999 173.403617 
L 330.0818 174.531635 
L 331.167601 167.13685 
L 332.253402 169.593423 
L 333.339203 172.576404 
L 334.425005 166.735777 
L 335.510806 167.938996 
L 336.596607 182.076822 
L 337.682408 172.626538 
L 338.768209 166.434972 
L 339.85401 166.560308 
L 340.939811 165.457357 
L 342.025613 167.913929 
L 343.111414 167.212051 
L 344.197215 168.841411 
L 345.283016 171.824392 
L 346.368817 167.713393 
L 347.454618 171.147581 
L 349.626221 162.298906 
L 350.712022 168.239801 
L 351.797823 164.354406 
L 352.883624 166.409905 
L 353.969425 160.895151 
L 355.055227 169.919295 
L 356.141028 160.418876 
L 357.226829 163.025851 
L 358.31263 159.742066 
L 359.398431 158.263109 
L 360.484232 163.55226 
L 361.570033 162.298906 
L 362.655835 161.371425 
L 363.741636 159.892468 
L 364.827437 161.020486 
L 365.913238 155.555866 
L 366.999039 155.631067 
L 368.08484 159.842334 
L 369.170642 162.023169 
L 370.256443 164.454674 
L 371.342244 162.649845 
L 372.428045 164.930948 
L 373.513846 169.568356 
L 374.599647 161.9229 
L 375.685448 164.429607 
L 376.77125 165.758162 
L 377.857051 166.359771 
L 378.942852 167.387521 
L 380.028653 170.195032 
L 381.114454 168.139533 
L 382.200255 169.969429 
L 383.286057 161.9229 
L 384.371858 166.560308 
L 385.457659 169.468087 
L 386.54346 168.59074 
L 387.629261 166.760844 
L 388.715062 167.813661 
L 389.800863 163.777863 
L 390.886665 166.159235 
L 391.972466 164.529875 
L 394.144068 175.634586 
L 395.229869 161.747431 
L 396.31567 169.092081 
L 397.401472 171.348117 
L 398.487273 163.9784 
L 398.487273 163.9784 
" clip-path="url(#p8ea16a6bd7)" style="fill: none; stroke: #2ca02c; stroke-width: 1.5; stroke-linecap: square"/>
   </g>
   <g id="line2d_21">
    <path d="M 368.08484 55.930571 
L 369.170642 61.455352 
L 370.256443 59.092781 
L 371.342244 60.583018 
L 372.428045 66.289536 
L 373.513846 64.108701 
L 374.599647 65.235466 
L 375.685448 62.073256 
L 376.77125 63.963312 
L 377.857051 68.179593 
L 380.028653 74.867486 
L 381.114454 77.557182 
L 382.200255 71.705276 
L 383.286057 75.485389 
L 384.371858 72.977429 
L 385.457659 76.684848 
L 386.54346 63.745229 
L 387.629261 71.487192 
L 388.715062 73.377249 
L 389.800863 71.996054 
L 390.886665 74.358625 
L 391.972466 74.394972 
L 393.058267 79.774364 
L 394.144068 77.775266 
L 395.229869 80.210531 
L 396.31567 82.064241 
L 397.401472 77.666224 
L 398.487273 79.410892 
L 398.487273 79.410892 
" clip-path="url(#p8ea16a6bd7)" style="fill: none; stroke: #d62728; stroke-width: 1.5; stroke-linecap: square"/>
   </g>
   <g id="line2d_22">
    <path d="M 368.08484 153.700903 
L 369.170642 165.883497 
L 370.256443 165.708027 
L 371.342244 168.791277 
L 372.428045 181.826151 
L 373.513846 171.222782 
L 374.599647 170.596105 
L 375.685448 163.853065 
L 376.77125 160.970352 
L 377.857051 170.094764 
L 378.942852 169.994496 
L 380.028653 173.453751 
L 381.114454 185.460876 
L 382.200255 175.534317 
L 383.286057 177.639951 
L 384.371858 176.411665 
L 385.457659 174.280964 
L 386.54346 166.836045 
L 387.629261 170.972111 
L 389.800863 177.765286 
L 390.886665 183.88165 
L 391.972466 181.650682 
L 393.058267 192.554855 
L 394.144068 180.322127 
L 395.229869 183.605913 
L 396.31567 184.082187 
L 397.401472 180.622932 
L 398.487273 183.480577 
L 398.487273 183.480577 
" clip-path="url(#p8ea16a6bd7)" style="fill: none; stroke: #9467bd; stroke-width: 1.5; stroke-linecap: square"/>
   </g>
   <g id="patch_3">
    <path d="M 57.6 307.584 
L 57.6 41.472 
" style="fill: none; stroke: #000000; stroke-width: 0.8; stroke-linejoin: miter; stroke-linecap: square"/>
   </g>
   <g id="patch_4">
    <path d="M 414.72 307.584 
L 414.72 41.472 
" style="fill: none; stroke: #000000; stroke-width: 0.8; stroke-linejoin: miter; stroke-linecap: square"/>
   </g>
   <g id="patch_5">
    <path d="M 57.6 307.584 
L 414.72 307.584 
" style="fill: none; stroke: #000000; stroke-width: 0.8; stroke-linejoin: miter; stroke-linecap: square"/>
   </g>
   <g id="patch_6">
    <path d="M 57.6 41.472 
L 414.72 41.472 
" style="fill: none; stroke: #000000; stroke-width: 0.8; stroke-linejoin: miter; stroke-linecap: square"/>
   </g>
   <g id="text_20">
    <!-- Learning Curves -->
    <g transform="translate(187.37625 35.472) scale(0.12 -0.12)">
     <defs>
      <path id="DejaVuSans-4c" d="M 628 4666 
L 1259 4666 
L 1259 531 
L 3531 531 
L 3531 0 
L 628 0 
L 628 4666 
z
" transform="scale(0.015625)"/>
      <path id="DejaVuSans-65" d="M 3597 1894 
L 3597 1613 
L 953 1613 
Q 991 1019 1311 708 
Q 1631 397 2203 397 
Q 2534 397 2845 478 
Q 3156 559 3463 722 
L 3463 178 
Q 3153 47 2828 -22 
Q 2503 -91 2169 -91 
Q 1331 -91 842 396 
Q 353 884 353 1716 
Q 353 2575 817 3079 
Q 1281 3584 2069 3584 
Q 2775 3584 3186 3129 
Q 3597 2675 3597 1894 
z
M 3022 2063 
Q 3016 2534 2758 2815 
Q 2500 3097 2075 3097 
Q 1594 3097 1305 2825 
Q 1016 2553 972 2059 
L 3022 2063 
z
" transform="scale(0.015625)"/>
      <path id="DejaVuSans-6e" d="M 3513 2113 
L 3513 0 
L 2938 0 
L 2938 2094 
Q 2938 2591 2744 2837 
Q 2550 3084 2163 3084 
Q 1697 3084 1428 2787 
Q 1159 2491 1159 1978 
L 1159 0 
L 581 0 
L 581 3500 
L 1159 3500 
L 1159 2956 
Q 1366 3272 1645 3428 
Q 1925 3584 2291 3584 
Q 2894 3584 3203 3211 
Q 3513 2838 3513 2113 
z
" transform="scale(0.015625)"/>
      <path id="DejaVuSans-69" d="M 603 3500 
L 1178 3500 
L 1178 0 
L 603 0 
L 603 3500 
z
M 603 4863 
L 1178 4863 
L 1178 4134 
L 603 4134 
L 603 4863 
z
" transform="scale(0.015625)"/>
      <path id="DejaVuSans-67" d="M 2906 1791 
Q 2906 2416 2648 2759 
Q 2391 3103 1925 3103 
Q 1463 3103 1205 2759 
Q 947 2416 947 1791 
Q 947 1169 1205 825 
Q 1463 481 1925 481 
Q 2391 481 2648 825 
Q 2906 1169 2906 1791 
z
M 3481 434 
Q 3481 -459 3084 -895 
Q 2688 -1331 1869 -1331 
Q 1566 -1331 1297 -1286 
Q 1028 -1241 775 -1147 
L 775 -588 
Q 1028 -725 1275 -790 
Q 1522 -856 1778 -856 
Q 2344 -856 2625 -561 
Q 2906 -266 2906 331 
L 2906 616 
Q 2728 306 2450 153 
Q 2172 0 1784 0 
Q 1141 0 747 490 
Q 353 981 353 1791 
Q 353 2603 747 3093 
Q 1141 3584 1784 3584 
Q 2172 3584 2450 3431 
Q 2728 3278 2906 2969 
L 2906 3500 
L 3481 3500 
L 3481 434 
z
" transform="scale(0.015625)"/>
      <path id="DejaVuSans-20" transform="scale(0.015625)"/>
      <path id="DejaVuSans-43" d="M 4122 4306 
L 4122 3641 
Q 3803 3938 3442 4084 
Q 3081 4231 2675 4231 
Q 1875 4231 1450 3742 
Q 1025 3253 1025 2328 
Q 1025 1406 1450 917 
Q 1875 428 2675 428 
Q 3081 428 3442 575 
Q 3803 722 4122 1019 
L 4122 359 
Q 3791 134 3420 21 
Q 3050 -91 2638 -91 
Q 1578 -91 968 557 
Q 359 1206 359 2328 
Q 359 3453 968 4101 
Q 1578 4750 2638 4750 
Q 3056 4750 3426 4639 
Q 3797 4528 4122 4306 
z
" transform="scale(0.015625)"/>
      <path id="DejaVuSans-76" d="M 191 3500 
L 800 3500 
L 1894 563 
L 2988 3500 
L 3597 3500 
L 2284 0 
L 1503 0 
L 191 3500 
z
" transform="scale(0.015625)"/>
     </defs>
     <use xlink:href="#DejaVuSans-4c"/>
     <use xlink:href="#DejaVuSans-65" x="53.962891"/>
     <use xlink:href="#DejaVuSans-61" x="115.486328"/>
     <use xlink:href="#DejaVuSans-72" x="176.765625"/>
     <use xlink:href="#DejaVuSans-6e" x="216.128906"/>
     <use xlink:href="#DejaVuSans-69" x="279.507812"/>
     <use xlink:href="#DejaVuSans-6e" x="307.291016"/>
     <use xlink:href="#DejaVuSans-67" x="370.669922"/>
     <use xlink:href="#DejaVuSans-20" x="434.146484"/>
     <use xlink:href="#DejaVuSans-43" x="465.933594"/>
     <use xlink:href="#DejaVuSans-75" x="535.757812"/>
     <use xlink:href="#DejaVuSans-72" x="599.136719"/>
     <use xlink:href="#DejaVuSans-76" x="640.25"/>
     <use xlink:href="#DejaVuSans-65" x="699.429688"/>
     <use xlink:href="#DejaVuSans-73" x="760.953125"/>
    </g>
   </g>
   <g id="legend_1">
    <g id="patch_7">
     <path d="M 214.18875 302.584 
L 407.72 302.584 
Q 409.72 302.584 409.72 300.584 
L 409.72 228.193375 
Q 409.72 226.193375 407.72 226.193375 
L 214.18875 226.193375 
Q 212.18875 226.193375 212.18875 228.193375 
L 212.18875 300.584 
Q 212.18875 302.584 214.18875 302.584 
z
" style="fill: #ffffff; opacity: 0.8; stroke: #cccccc; stroke-linejoin: miter"/>
    </g>
    <g id="line2d_23">
     <path d="M 216.18875 234.291812 
L 226.18875 234.291812 
L 236.18875 234.291812 
" style="fill: none; stroke: #1f77b4; stroke-width: 1.5; stroke-linecap: square"/>
    </g>
    <g id="text_21">
     <!-- Train Accuracy -->
     <g transform="translate(244.18875 237.791812) scale(0.1 -0.1)">
      <defs>
       <path id="DejaVuSans-54" d="M -19 4666 
L 3928 4666 
L 3928 4134 
L 2272 4134 
L 2272 0 
L 1638 0 
L 1638 4134 
L -19 4134 
L -19 4666 
z
" transform="scale(0.015625)"/>
      </defs>
      <use xlink:href="#DejaVuSans-54"/>
      <use xlink:href="#DejaVuSans-72" x="46.333984"/>
      <use xlink:href="#DejaVuSans-61" x="87.447266"/>
      <use xlink:href="#DejaVuSans-69" x="148.726562"/>
      <use xlink:href="#DejaVuSans-6e" x="176.509766"/>
      <use xlink:href="#DejaVuSans-20" x="239.888672"/>
      <use xlink:href="#DejaVuSans-41" x="271.675781"/>
      <use xlink:href="#DejaVuSans-63" x="338.333984"/>
      <use xlink:href="#DejaVuSans-63" x="393.314453"/>
      <use xlink:href="#DejaVuSans-75" x="448.294922"/>
      <use xlink:href="#DejaVuSans-72" x="511.673828"/>
      <use xlink:href="#DejaVuSans-61" x="552.787109"/>
      <use xlink:href="#DejaVuSans-63" x="614.066406"/>
      <use xlink:href="#DejaVuSans-79" x="669.046875"/>
     </g>
    </g>
    <g id="line2d_24">
     <path d="M 216.18875 248.969937 
L 226.18875 248.969937 
L 236.18875 248.969937 
" style="fill: none; stroke: #ff7f0e; stroke-width: 1.5; stroke-linecap: square"/>
    </g>
    <g id="text_22">
     <!-- Validation Accuracy -->
     <g transform="translate(244.18875 252.469937) scale(0.1 -0.1)">
      <defs>
       <path id="DejaVuSans-56" d="M 1831 0 
L 50 4666 
L 709 4666 
L 2188 738 
L 3669 4666 
L 4325 4666 
L 2547 0 
L 1831 0 
z
" transform="scale(0.015625)"/>
       <path id="DejaVuSans-6c" d="M 603 4863 
L 1178 4863 
L 1178 0 
L 603 0 
L 603 4863 
z
" transform="scale(0.015625)"/>
       <path id="DejaVuSans-64" d="M 2906 2969 
L 2906 4863 
L 3481 4863 
L 3481 0 
L 2906 0 
L 2906 525 
Q 2725 213 2448 61 
Q 2172 -91 1784 -91 
Q 1150 -91 751 415 
Q 353 922 353 1747 
Q 353 2572 751 3078 
Q 1150 3584 1784 3584 
Q 2172 3584 2448 3432 
Q 2725 3281 2906 2969 
z
M 947 1747 
Q 947 1113 1208 752 
Q 1469 391 1925 391 
Q 2381 391 2643 752 
Q 2906 1113 2906 1747 
Q 2906 2381 2643 2742 
Q 2381 3103 1925 3103 
Q 1469 3103 1208 2742 
Q 947 2381 947 1747 
z
" transform="scale(0.015625)"/>
       <path id="DejaVuSans-74" d="M 1172 4494 
L 1172 3500 
L 2356 3500 
L 2356 3053 
L 1172 3053 
L 1172 1153 
Q 1172 725 1289 603 
Q 1406 481 1766 481 
L 2356 481 
L 2356 0 
L 1766 0 
Q 1100 0 847 248 
Q 594 497 594 1153 
L 594 3053 
L 172 3053 
L 172 3500 
L 594 3500 
L 594 4494 
L 1172 4494 
z
" transform="scale(0.015625)"/>
      </defs>
      <use xlink:href="#DejaVuSans-56"/>
      <use xlink:href="#DejaVuSans-61" x="60.658203"/>
      <use xlink:href="#DejaVuSans-6c" x="121.9375"/>
      <use xlink:href="#DejaVuSans-69" x="149.720703"/>
      <use xlink:href="#DejaVuSans-64" x="177.503906"/>
      <use xlink:href="#DejaVuSans-61" x="240.980469"/>
      <use xlink:href="#DejaVuSans-74" x="302.259766"/>
      <use xlink:href="#DejaVuSans-69" x="341.46875"/>
      <use xlink:href="#DejaVuSans-6f" x="369.251953"/>
      <use xlink:href="#DejaVuSans-6e" x="430.433594"/>
      <use xlink:href="#DejaVuSans-20" x="493.8125"/>
      <use xlink:href="#DejaVuSans-41" x="525.599609"/>
      <use xlink:href="#DejaVuSans-63" x="592.257812"/>
      <use xlink:href="#DejaVuSans-63" x="647.238281"/>
      <use xlink:href="#DejaVuSans-75" x="702.21875"/>
      <use xlink:href="#DejaVuSans-72" x="765.597656"/>
      <use xlink:href="#DejaVuSans-61" x="806.710938"/>
      <use xlink:href="#DejaVuSans-63" x="867.990234"/>
      <use xlink:href="#DejaVuSans-79" x="922.970703"/>
     </g>
    </g>
    <g id="line2d_25">
     <path d="M 216.18875 263.648062 
L 226.18875 263.648062 
L 236.18875 263.648062 
" style="fill: none; stroke: #2ca02c; stroke-width: 1.5; stroke-linecap: square"/>
    </g>
    <g id="text_23">
     <!-- Robust Validation Accuracy -->
     <g transform="translate(244.18875 267.148062) scale(0.1 -0.1)">
      <defs>
       <path id="DejaVuSans-52" d="M 2841 2188 
Q 3044 2119 3236 1894 
Q 3428 1669 3622 1275 
L 4263 0 
L 3584 0 
L 2988 1197 
Q 2756 1666 2539 1819 
Q 2322 1972 1947 1972 
L 1259 1972 
L 1259 0 
L 628 0 
L 628 4666 
L 2053 4666 
Q 2853 4666 3247 4331 
Q 3641 3997 3641 3322 
Q 3641 2881 3436 2590 
Q 3231 2300 2841 2188 
z
M 1259 4147 
L 1259 2491 
L 2053 2491 
Q 2509 2491 2742 2702 
Q 2975 2913 2975 3322 
Q 2975 3731 2742 3939 
Q 2509 4147 2053 4147 
L 1259 4147 
z
" transform="scale(0.015625)"/>
       <path id="DejaVuSans-62" d="M 3116 1747 
Q 3116 2381 2855 2742 
Q 2594 3103 2138 3103 
Q 1681 3103 1420 2742 
Q 1159 2381 1159 1747 
Q 1159 1113 1420 752 
Q 1681 391 2138 391 
Q 2594 391 2855 752 
Q 3116 1113 3116 1747 
z
M 1159 2969 
Q 1341 3281 1617 3432 
Q 1894 3584 2278 3584 
Q 2916 3584 3314 3078 
Q 3713 2572 3713 1747 
Q 3713 922 3314 415 
Q 2916 -91 2278 -91 
Q 1894 -91 1617 61 
Q 1341 213 1159 525 
L 1159 0 
L 581 0 
L 581 4863 
L 1159 4863 
L 1159 2969 
z
" transform="scale(0.015625)"/>
      </defs>
      <use xlink:href="#DejaVuSans-52"/>
      <use xlink:href="#DejaVuSans-6f" x="64.982422"/>
      <use xlink:href="#DejaVuSans-62" x="126.164062"/>
      <use xlink:href="#DejaVuSans-75" x="189.640625"/>
      <use xlink:href="#DejaVuSans-73" x="253.019531"/>
      <use xlink:href="#DejaVuSans-74" x="305.119141"/>
      <use xlink:href="#DejaVuSans-20" x="344.328125"/>
      <use xlink:href="#DejaVuSans-56" x="376.115234"/>
      <use xlink:href="#DejaVuSans-61" x="436.773438"/>
      <use xlink:href="#DejaVuSans-6c" x="498.052734"/>
      <use xlink:href="#DejaVuSans-69" x="525.835938"/>
      <use xlink:href="#DejaVuSans-64" x="553.619141"/>
      <use xlink:href="#DejaVuSans-61" x="617.095703"/>
      <use xlink:href="#DejaVuSans-74" x="678.375"/>
      <use xlink:href="#DejaVuSans-69" x="717.583984"/>
      <use xlink:href="#DejaVuSans-6f" x="745.367188"/>
      <use xlink:href="#DejaVuSans-6e" x="806.548828"/>
      <use xlink:href="#DejaVuSans-20" x="869.927734"/>
      <use xlink:href="#DejaVuSans-41" x="901.714844"/>
      <use xlink:href="#DejaVuSans-63" x="968.373047"/>
      <use xlink:href="#DejaVuSans-63" x="1023.353516"/>
      <use xlink:href="#DejaVuSans-75" x="1078.333984"/>
      <use xlink:href="#DejaVuSans-72" x="1141.712891"/>
      <use xlink:href="#DejaVuSans-61" x="1182.826172"/>
      <use xlink:href="#DejaVuSans-63" x="1244.105469"/>
      <use xlink:href="#DejaVuSans-79" x="1299.085938"/>
     </g>
    </g>
    <g id="line2d_26">
     <path d="M 216.18875 278.326188 
L 226.18875 278.326188 
L 236.18875 278.326188 
" style="fill: none; stroke: #d62728; stroke-width: 1.5; stroke-linecap: square"/>
    </g>
    <g id="text_24">
     <!-- SWA Validation Accuracy -->
     <g transform="translate(244.18875 281.826188) scale(0.1 -0.1)">
      <defs>
       <path id="DejaVuSans-53" d="M 3425 4513 
L 3425 3897 
Q 3066 4069 2747 4153 
Q 2428 4238 2131 4238 
Q 1616 4238 1336 4038 
Q 1056 3838 1056 3469 
Q 1056 3159 1242 3001 
Q 1428 2844 1947 2747 
L 2328 2669 
Q 3034 2534 3370 2195 
Q 3706 1856 3706 1288 
Q 3706 609 3251 259 
Q 2797 -91 1919 -91 
Q 1588 -91 1214 -16 
Q 841 59 441 206 
L 441 856 
Q 825 641 1194 531 
Q 1563 422 1919 422 
Q 2459 422 2753 634 
Q 3047 847 3047 1241 
Q 3047 1584 2836 1778 
Q 2625 1972 2144 2069 
L 1759 2144 
Q 1053 2284 737 2584 
Q 422 2884 422 3419 
Q 422 4038 858 4394 
Q 1294 4750 2059 4750 
Q 2388 4750 2728 4690 
Q 3069 4631 3425 4513 
z
" transform="scale(0.015625)"/>
       <path id="DejaVuSans-57" d="M 213 4666 
L 850 4666 
L 1831 722 
L 2809 4666 
L 3519 4666 
L 4500 722 
L 5478 4666 
L 6119 4666 
L 4947 0 
L 4153 0 
L 3169 4050 
L 2175 0 
L 1381 0 
L 213 4666 
z
" transform="scale(0.015625)"/>
      </defs>
      <use xlink:href="#DejaVuSans-53"/>
      <use xlink:href="#DejaVuSans-57" x="63.476562"/>
      <use xlink:href="#DejaVuSans-41" x="156.853516"/>
      <use xlink:href="#DejaVuSans-20" x="225.261719"/>
      <use xlink:href="#DejaVuSans-56" x="257.048828"/>
      <use xlink:href="#DejaVuSans-61" x="317.707031"/>
      <use xlink:href="#DejaVuSans-6c" x="378.986328"/>
      <use xlink:href="#DejaVuSans-69" x="406.769531"/>
      <use xlink:href="#DejaVuSans-64" x="434.552734"/>
      <use xlink:href="#DejaVuSans-61" x="498.029297"/>
      <use xlink:href="#DejaVuSans-74" x="559.308594"/>
      <use xlink:href="#DejaVuSans-69" x="598.517578"/>
      <use xlink:href="#DejaVuSans-6f" x="626.300781"/>
      <use xlink:href="#DejaVuSans-6e" x="687.482422"/>
      <use xlink:href="#DejaVuSans-20" x="750.861328"/>
      <use xlink:href="#DejaVuSans-41" x="782.648438"/>
      <use xlink:href="#DejaVuSans-63" x="849.306641"/>
      <use xlink:href="#DejaVuSans-63" x="904.287109"/>
      <use xlink:href="#DejaVuSans-75" x="959.267578"/>
      <use xlink:href="#DejaVuSans-72" x="1022.646484"/>
      <use xlink:href="#DejaVuSans-61" x="1063.759766"/>
      <use xlink:href="#DejaVuSans-63" x="1125.039062"/>
      <use xlink:href="#DejaVuSans-79" x="1180.019531"/>
     </g>
    </g>
    <g id="line2d_27">
     <path d="M 216.18875 293.004312 
L 226.18875 293.004312 
L 236.18875 293.004312 
" style="fill: none; stroke: #9467bd; stroke-width: 1.5; stroke-linecap: square"/>
    </g>
    <g id="text_25">
     <!-- SWA Robust Validation Accuracy -->
     <g transform="translate(244.18875 296.504312) scale(0.1 -0.1)">
      <use xlink:href="#DejaVuSans-53"/>
      <use xlink:href="#DejaVuSans-57" x="63.476562"/>
      <use xlink:href="#DejaVuSans-41" x="156.853516"/>
      <use xlink:href="#DejaVuSans-20" x="225.261719"/>
      <use xlink:href="#DejaVuSans-52" x="257.048828"/>
      <use xlink:href="#DejaVuSans-6f" x="322.03125"/>
      <use xlink:href="#DejaVuSans-62" x="383.212891"/>
      <use xlink:href="#DejaVuSans-75" x="446.689453"/>
      <use xlink:href="#DejaVuSans-73" x="510.068359"/>
      <use xlink:href="#DejaVuSans-74" x="562.167969"/>
      <use xlink:href="#DejaVuSans-20" x="601.376953"/>
      <use xlink:href="#DejaVuSans-56" x="633.164062"/>
      <use xlink:href="#DejaVuSans-61" x="693.822266"/>
      <use xlink:href="#DejaVuSans-6c" x="755.101562"/>
      <use xlink:href="#DejaVuSans-69" x="782.884766"/>
      <use xlink:href="#DejaVuSans-64" x="810.667969"/>
      <use xlink:href="#DejaVuSans-61" x="874.144531"/>
      <use xlink:href="#DejaVuSans-74" x="935.423828"/>
      <use xlink:href="#DejaVuSans-69" x="974.632812"/>
      <use xlink:href="#DejaVuSans-6f" x="1002.416016"/>
      <use xlink:href="#DejaVuSans-6e" x="1063.597656"/>
      <use xlink:href="#DejaVuSans-20" x="1126.976562"/>
      <use xlink:href="#DejaVuSans-41" x="1158.763672"/>
      <use xlink:href="#DejaVuSans-63" x="1225.421875"/>
      <use xlink:href="#DejaVuSans-63" x="1280.402344"/>
      <use xlink:href="#DejaVuSans-75" x="1335.382812"/>
      <use xlink:href="#DejaVuSans-72" x="1398.761719"/>
      <use xlink:href="#DejaVuSans-61" x="1439.875"/>
      <use xlink:href="#DejaVuSans-63" x="1501.154297"/>
      <use xlink:href="#DejaVuSans-79" x="1556.134766"/>
     </g>
    </g>
   </g>
  </g>
 </g>
 <defs>
  <clipPath id="p8ea16a6bd7">
   <rect x="57.6" y="41.472" width="357.12" height="266.112"/>
  </clipPath>
 </defs>
</svg>
