<?xml version="1.0" encoding="utf-8" standalone="no"?>
<!DOCTYPE svg PUBLIC "-//W3C//DTD SVG 1.1//EN"
  "http://www.w3.org/Graphics/SVG/1.1/DTD/svg11.dtd">
<svg xmlns:xlink="http://www.w3.org/1999/xlink" width="460.8pt" height="345.6pt" viewBox="0 0 460.8 345.6" xmlns="http://www.w3.org/2000/svg" version="1.1">
 <metadata>
  <rdf:RDF xmlns:dc="http://purl.org/dc/elements/1.1/" xmlns:cc="http://creativecommons.org/ns#" xmlns:rdf="http://www.w3.org/1999/02/22-rdf-syntax-ns#">
   <cc:Work>
    <dc:type rdf:resource="http://purl.org/dc/dcmitype/StillImage"/>
    <dc:date>2025-03-21T15:27:07.969699</dc:date>
    <dc:format>image/svg+xml</dc:format>
    <dc:creator>
     <cc:Agent>
      <dc:title>Matplotlib v3.9.1, https://matplotlib.org/</dc:title>
     </cc:Agent>
    </dc:creator>
   </cc:Work>
  </rdf:RDF>
 </metadata>
 <defs>
  <style type="text/css">*{stroke-linejoin: round; stroke-linecap: butt}</style>
 </defs>
 <g id="figure_1">
  <g id="patch_1">
   <path d="M 0 345.6 
L 460.8 345.6 
L 460.8 0 
L 0 0 
z
" style="fill: #ffffff"/>
  </g>
  <g id="axes_1">
   <g id="patch_2">
    <path d="M 57.6 307.584 
L 414.72 307.584 
L 414.72 41.472 
L 57.6 41.472 
z
" style="fill: #ffffff"/>
   </g>
   <g id="matplotlib.axis_1">
    <g id="xtick_1">
     <g id="line2d_1">
      <defs>
       <path id="meeb15a2bb5" d="M 0 0 
L 0 3.5 
" style="stroke: #000000; stroke-width: 0.8"/>
      </defs>
      <g>
       <use xlink:href="#meeb15a2bb5" x="73.832727" y="307.584" style="stroke: #000000; stroke-width: 0.8"/>
      </g>
     </g>
     <g id="text_1">
      <!-- 1 -->
      <g transform="translate(70.651477 322.182437) scale(0.1 -0.1)">
       <defs>
        <path id="DejaVuSans-31" d="M 794 531 
L 1825 531 
L 1825 4091 
L 703 3866 
L 703 4441 
L 1819 4666 
L 2450 4666 
L 2450 531 
L 3481 531 
L 3481 0 
L 794 0 
L 794 531 
z
" transform="scale(0.015625)"/>
       </defs>
       <use xlink:href="#DejaVuSans-31"/>
      </g>
     </g>
    </g>
    <g id="xtick_2">
     <g id="line2d_2">
      <g>
       <use xlink:href="#meeb15a2bb5" x="109.664165" y="307.584" style="stroke: #000000; stroke-width: 0.8"/>
      </g>
     </g>
     <g id="text_2">
      <!-- 34 -->
      <g transform="translate(103.301665 322.182437) scale(0.1 -0.1)">
       <defs>
        <path id="DejaVuSans-33" d="M 2597 2516 
Q 3050 2419 3304 2112 
Q 3559 1806 3559 1356 
Q 3559 666 3084 287 
Q 2609 -91 1734 -91 
Q 1441 -91 1130 -33 
Q 819 25 488 141 
L 488 750 
Q 750 597 1062 519 
Q 1375 441 1716 441 
Q 2309 441 2620 675 
Q 2931 909 2931 1356 
Q 2931 1769 2642 2001 
Q 2353 2234 1838 2234 
L 1294 2234 
L 1294 2753 
L 1863 2753 
Q 2328 2753 2575 2939 
Q 2822 3125 2822 3475 
Q 2822 3834 2567 4026 
Q 2313 4219 1838 4219 
Q 1578 4219 1281 4162 
Q 984 4106 628 3988 
L 628 4550 
Q 988 4650 1302 4700 
Q 1616 4750 1894 4750 
Q 2613 4750 3031 4423 
Q 3450 4097 3450 3541 
Q 3450 3153 3228 2886 
Q 3006 2619 2597 2516 
z
" transform="scale(0.015625)"/>
        <path id="DejaVuSans-34" d="M 2419 4116 
L 825 1625 
L 2419 1625 
L 2419 4116 
z
M 2253 4666 
L 3047 4666 
L 3047 1625 
L 3713 1625 
L 3713 1100 
L 3047 1100 
L 3047 0 
L 2419 0 
L 2419 1100 
L 313 1100 
L 313 1709 
L 2253 4666 
z
" transform="scale(0.015625)"/>
       </defs>
       <use xlink:href="#DejaVuSans-33"/>
       <use xlink:href="#DejaVuSans-34" x="63.623047"/>
      </g>
     </g>
    </g>
    <g id="xtick_3">
     <g id="line2d_3">
      <g>
       <use xlink:href="#meeb15a2bb5" x="145.495604" y="307.584" style="stroke: #000000; stroke-width: 0.8"/>
      </g>
     </g>
     <g id="text_3">
      <!-- 67 -->
      <g transform="translate(139.133104 322.182437) scale(0.1 -0.1)">
       <defs>
        <path id="DejaVuSans-36" d="M 2113 2584 
Q 1688 2584 1439 2293 
Q 1191 2003 1191 1497 
Q 1191 994 1439 701 
Q 1688 409 2113 409 
Q 2538 409 2786 701 
Q 3034 994 3034 1497 
Q 3034 2003 2786 2293 
Q 2538 2584 2113 2584 
z
M 3366 4563 
L 3366 3988 
Q 3128 4100 2886 4159 
Q 2644 4219 2406 4219 
Q 1781 4219 1451 3797 
Q 1122 3375 1075 2522 
Q 1259 2794 1537 2939 
Q 1816 3084 2150 3084 
Q 2853 3084 3261 2657 
Q 3669 2231 3669 1497 
Q 3669 778 3244 343 
Q 2819 -91 2113 -91 
Q 1303 -91 875 529 
Q 447 1150 447 2328 
Q 447 3434 972 4092 
Q 1497 4750 2381 4750 
Q 2619 4750 2861 4703 
Q 3103 4656 3366 4563 
z
" transform="scale(0.015625)"/>
        <path id="DejaVuSans-37" d="M 525 4666 
L 3525 4666 
L 3525 4397 
L 1831 0 
L 1172 0 
L 2766 4134 
L 525 4134 
L 525 4666 
z
" transform="scale(0.015625)"/>
       </defs>
       <use xlink:href="#DejaVuSans-36"/>
       <use xlink:href="#DejaVuSans-37" x="63.623047"/>
      </g>
     </g>
    </g>
    <g id="xtick_4">
     <g id="line2d_4">
      <g>
       <use xlink:href="#meeb15a2bb5" x="181.327042" y="307.584" style="stroke: #000000; stroke-width: 0.8"/>
      </g>
     </g>
     <g id="text_4">
      <!-- 100 -->
      <g transform="translate(171.783292 322.182437) scale(0.1 -0.1)">
       <defs>
        <path id="DejaVuSans-30" d="M 2034 4250 
Q 1547 4250 1301 3770 
Q 1056 3291 1056 2328 
Q 1056 1369 1301 889 
Q 1547 409 2034 409 
Q 2525 409 2770 889 
Q 3016 1369 3016 2328 
Q 3016 3291 2770 3770 
Q 2525 4250 2034 4250 
z
M 2034 4750 
Q 2819 4750 3233 4129 
Q 3647 3509 3647 2328 
Q 3647 1150 3233 529 
Q 2819 -91 2034 -91 
Q 1250 -91 836 529 
Q 422 1150 422 2328 
Q 422 3509 836 4129 
Q 1250 4750 2034 4750 
z
" transform="scale(0.015625)"/>
       </defs>
       <use xlink:href="#DejaVuSans-31"/>
       <use xlink:href="#DejaVuSans-30" x="63.623047"/>
       <use xlink:href="#DejaVuSans-30" x="127.246094"/>
      </g>
     </g>
    </g>
    <g id="xtick_5">
     <g id="line2d_5">
      <g>
       <use xlink:href="#meeb15a2bb5" x="217.15848" y="307.584" style="stroke: #000000; stroke-width: 0.8"/>
      </g>
     </g>
     <g id="text_5">
      <!-- 133 -->
      <g transform="translate(207.61473 322.182437) scale(0.1 -0.1)">
       <use xlink:href="#DejaVuSans-31"/>
       <use xlink:href="#DejaVuSans-33" x="63.623047"/>
       <use xlink:href="#DejaVuSans-33" x="127.246094"/>
      </g>
     </g>
    </g>
    <g id="xtick_6">
     <g id="line2d_6">
      <g>
       <use xlink:href="#meeb15a2bb5" x="254.075719" y="307.584" style="stroke: #000000; stroke-width: 0.8"/>
      </g>
     </g>
     <g id="text_6">
      <!-- 167 -->
      <g transform="translate(244.531969 322.182437) scale(0.1 -0.1)">
       <use xlink:href="#DejaVuSans-31"/>
       <use xlink:href="#DejaVuSans-36" x="63.623047"/>
       <use xlink:href="#DejaVuSans-37" x="127.246094"/>
      </g>
     </g>
    </g>
    <g id="xtick_7">
     <g id="line2d_7">
      <g>
       <use xlink:href="#meeb15a2bb5" x="289.907157" y="307.584" style="stroke: #000000; stroke-width: 0.8"/>
      </g>
     </g>
     <g id="text_7">
      <!-- 200 -->
      <g transform="translate(280.363407 322.182437) scale(0.1 -0.1)">
       <defs>
        <path id="DejaVuSans-32" d="M 1228 531 
L 3431 531 
L 3431 0 
L 469 0 
L 469 531 
Q 828 903 1448 1529 
Q 2069 2156 2228 2338 
Q 2531 2678 2651 2914 
Q 2772 3150 2772 3378 
Q 2772 3750 2511 3984 
Q 2250 4219 1831 4219 
Q 1534 4219 1204 4116 
Q 875 4013 500 3803 
L 500 4441 
Q 881 4594 1212 4672 
Q 1544 4750 1819 4750 
Q 2544 4750 2975 4387 
Q 3406 4025 3406 3419 
Q 3406 3131 3298 2873 
Q 3191 2616 2906 2266 
Q 2828 2175 2409 1742 
Q 1991 1309 1228 531 
z
" transform="scale(0.015625)"/>
       </defs>
       <use xlink:href="#DejaVuSans-32"/>
       <use xlink:href="#DejaVuSans-30" x="63.623047"/>
       <use xlink:href="#DejaVuSans-30" x="127.246094"/>
      </g>
     </g>
    </g>
    <g id="xtick_8">
     <g id="line2d_8">
      <g>
       <use xlink:href="#meeb15a2bb5" x="325.738595" y="307.584" style="stroke: #000000; stroke-width: 0.8"/>
      </g>
     </g>
     <g id="text_8">
      <!-- 233 -->
      <g transform="translate(316.194845 322.182437) scale(0.1 -0.1)">
       <use xlink:href="#DejaVuSans-32"/>
       <use xlink:href="#DejaVuSans-33" x="63.623047"/>
       <use xlink:href="#DejaVuSans-33" x="127.246094"/>
      </g>
     </g>
    </g>
    <g id="xtick_9">
     <g id="line2d_9">
      <g>
       <use xlink:href="#meeb15a2bb5" x="361.570033" y="307.584" style="stroke: #000000; stroke-width: 0.8"/>
      </g>
     </g>
     <g id="text_9">
      <!-- 266 -->
      <g transform="translate(352.026283 322.182437) scale(0.1 -0.1)">
       <use xlink:href="#DejaVuSans-32"/>
       <use xlink:href="#DejaVuSans-36" x="63.623047"/>
       <use xlink:href="#DejaVuSans-36" x="127.246094"/>
      </g>
     </g>
    </g>
    <g id="xtick_10">
     <g id="line2d_10">
      <g>
       <use xlink:href="#meeb15a2bb5" x="398.487273" y="307.584" style="stroke: #000000; stroke-width: 0.8"/>
      </g>
     </g>
     <g id="text_10">
      <!-- 300 -->
      <g transform="translate(388.943523 322.182437) scale(0.1 -0.1)">
       <use xlink:href="#DejaVuSans-33"/>
       <use xlink:href="#DejaVuSans-30" x="63.623047"/>
       <use xlink:href="#DejaVuSans-30" x="127.246094"/>
      </g>
     </g>
    </g>
    <g id="text_11">
     <!-- Epochs -->
     <g transform="translate(218.244375 335.860562) scale(0.1 -0.1)">
      <defs>
       <path id="DejaVuSans-45" d="M 628 4666 
L 3578 4666 
L 3578 4134 
L 1259 4134 
L 1259 2753 
L 3481 2753 
L 3481 2222 
L 1259 2222 
L 1259 531 
L 3634 531 
L 3634 0 
L 628 0 
L 628 4666 
z
" transform="scale(0.015625)"/>
       <path id="DejaVuSans-70" d="M 1159 525 
L 1159 -1331 
L 581 -1331 
L 581 3500 
L 1159 3500 
L 1159 2969 
Q 1341 3281 1617 3432 
Q 1894 3584 2278 3584 
Q 2916 3584 3314 3078 
Q 3713 2572 3713 1747 
Q 3713 922 3314 415 
Q 2916 -91 2278 -91 
Q 1894 -91 1617 61 
Q 1341 213 1159 525 
z
M 3116 1747 
Q 3116 2381 2855 2742 
Q 2594 3103 2138 3103 
Q 1681 3103 1420 2742 
Q 1159 2381 1159 1747 
Q 1159 1113 1420 752 
Q 1681 391 2138 391 
Q 2594 391 2855 752 
Q 3116 1113 3116 1747 
z
" transform="scale(0.015625)"/>
       <path id="DejaVuSans-6f" d="M 1959 3097 
Q 1497 3097 1228 2736 
Q 959 2375 959 1747 
Q 959 1119 1226 758 
Q 1494 397 1959 397 
Q 2419 397 2687 759 
Q 2956 1122 2956 1747 
Q 2956 2369 2687 2733 
Q 2419 3097 1959 3097 
z
M 1959 3584 
Q 2709 3584 3137 3096 
Q 3566 2609 3566 1747 
Q 3566 888 3137 398 
Q 2709 -91 1959 -91 
Q 1206 -91 779 398 
Q 353 888 353 1747 
Q 353 2609 779 3096 
Q 1206 3584 1959 3584 
z
" transform="scale(0.015625)"/>
       <path id="DejaVuSans-63" d="M 3122 3366 
L 3122 2828 
Q 2878 2963 2633 3030 
Q 2388 3097 2138 3097 
Q 1578 3097 1268 2742 
Q 959 2388 959 1747 
Q 959 1106 1268 751 
Q 1578 397 2138 397 
Q 2388 397 2633 464 
Q 2878 531 3122 666 
L 3122 134 
Q 2881 22 2623 -34 
Q 2366 -91 2075 -91 
Q 1284 -91 818 406 
Q 353 903 353 1747 
Q 353 2603 823 3093 
Q 1294 3584 2113 3584 
Q 2378 3584 2631 3529 
Q 2884 3475 3122 3366 
z
" transform="scale(0.015625)"/>
       <path id="DejaVuSans-68" d="M 3513 2113 
L 3513 0 
L 2938 0 
L 2938 2094 
Q 2938 2591 2744 2837 
Q 2550 3084 2163 3084 
Q 1697 3084 1428 2787 
Q 1159 2491 1159 1978 
L 1159 0 
L 581 0 
L 581 4863 
L 1159 4863 
L 1159 2956 
Q 1366 3272 1645 3428 
Q 1925 3584 2291 3584 
Q 2894 3584 3203 3211 
Q 3513 2838 3513 2113 
z
" transform="scale(0.015625)"/>
       <path id="DejaVuSans-73" d="M 2834 3397 
L 2834 2853 
Q 2591 2978 2328 3040 
Q 2066 3103 1784 3103 
Q 1356 3103 1142 2972 
Q 928 2841 928 2578 
Q 928 2378 1081 2264 
Q 1234 2150 1697 2047 
L 1894 2003 
Q 2506 1872 2764 1633 
Q 3022 1394 3022 966 
Q 3022 478 2636 193 
Q 2250 -91 1575 -91 
Q 1294 -91 989 -36 
Q 684 19 347 128 
L 347 722 
Q 666 556 975 473 
Q 1284 391 1588 391 
Q 1994 391 2212 530 
Q 2431 669 2431 922 
Q 2431 1156 2273 1281 
Q 2116 1406 1581 1522 
L 1381 1569 
Q 847 1681 609 1914 
Q 372 2147 372 2553 
Q 372 3047 722 3315 
Q 1072 3584 1716 3584 
Q 2034 3584 2315 3537 
Q 2597 3491 2834 3397 
z
" transform="scale(0.015625)"/>
      </defs>
      <use xlink:href="#DejaVuSans-45"/>
      <use xlink:href="#DejaVuSans-70" x="63.183594"/>
      <use xlink:href="#DejaVuSans-6f" x="126.660156"/>
      <use xlink:href="#DejaVuSans-63" x="187.841797"/>
      <use xlink:href="#DejaVuSans-68" x="242.822266"/>
      <use xlink:href="#DejaVuSans-73" x="306.201172"/>
     </g>
    </g>
   </g>
   <g id="matplotlib.axis_2">
    <g id="ytick_1">
     <g id="line2d_11">
      <defs>
       <path id="m4b7e4d70a4" d="M 0 0 
L -3.5 0 
" style="stroke: #000000; stroke-width: 0.8"/>
      </defs>
      <g>
       <use xlink:href="#m4b7e4d70a4" x="57.6" y="279.1073" style="stroke: #000000; stroke-width: 0.8"/>
      </g>
     </g>
     <g id="text_12">
      <!-- 10 -->
      <g transform="translate(37.875 282.906519) scale(0.1 -0.1)">
       <use xlink:href="#DejaVuSans-31"/>
       <use xlink:href="#DejaVuSans-30" x="63.623047"/>
      </g>
     </g>
    </g>
    <g id="ytick_2">
     <g id="line2d_12">
      <g>
       <use xlink:href="#m4b7e4d70a4" x="57.6" y="244.411615" style="stroke: #000000; stroke-width: 0.8"/>
      </g>
     </g>
     <g id="text_13">
      <!-- 20 -->
      <g transform="translate(37.875 248.210834) scale(0.1 -0.1)">
       <use xlink:href="#DejaVuSans-32"/>
       <use xlink:href="#DejaVuSans-30" x="63.623047"/>
      </g>
     </g>
    </g>
    <g id="ytick_3">
     <g id="line2d_13">
      <g>
       <use xlink:href="#m4b7e4d70a4" x="57.6" y="209.71593" style="stroke: #000000; stroke-width: 0.8"/>
      </g>
     </g>
     <g id="text_14">
      <!-- 30 -->
      <g transform="translate(37.875 213.515149) scale(0.1 -0.1)">
       <use xlink:href="#DejaVuSans-33"/>
       <use xlink:href="#DejaVuSans-30" x="63.623047"/>
      </g>
     </g>
    </g>
    <g id="ytick_4">
     <g id="line2d_14">
      <g>
       <use xlink:href="#m4b7e4d70a4" x="57.6" y="175.020245" style="stroke: #000000; stroke-width: 0.8"/>
      </g>
     </g>
     <g id="text_15">
      <!-- 40 -->
      <g transform="translate(37.875 178.819464) scale(0.1 -0.1)">
       <use xlink:href="#DejaVuSans-34"/>
       <use xlink:href="#DejaVuSans-30" x="63.623047"/>
      </g>
     </g>
    </g>
    <g id="ytick_5">
     <g id="line2d_15">
      <g>
       <use xlink:href="#m4b7e4d70a4" x="57.6" y="140.32456" style="stroke: #000000; stroke-width: 0.8"/>
      </g>
     </g>
     <g id="text_16">
      <!-- 50 -->
      <g transform="translate(37.875 144.123779) scale(0.1 -0.1)">
       <defs>
        <path id="DejaVuSans-35" d="M 691 4666 
L 3169 4666 
L 3169 4134 
L 1269 4134 
L 1269 2991 
Q 1406 3038 1543 3061 
Q 1681 3084 1819 3084 
Q 2600 3084 3056 2656 
Q 3513 2228 3513 1497 
Q 3513 744 3044 326 
Q 2575 -91 1722 -91 
Q 1428 -91 1123 -41 
Q 819 9 494 109 
L 494 744 
Q 775 591 1075 516 
Q 1375 441 1709 441 
Q 2250 441 2565 725 
Q 2881 1009 2881 1497 
Q 2881 1984 2565 2268 
Q 2250 2553 1709 2553 
Q 1456 2553 1204 2497 
Q 953 2441 691 2322 
L 691 4666 
z
" transform="scale(0.015625)"/>
       </defs>
       <use xlink:href="#DejaVuSans-35"/>
       <use xlink:href="#DejaVuSans-30" x="63.623047"/>
      </g>
     </g>
    </g>
    <g id="ytick_6">
     <g id="line2d_16">
      <g>
       <use xlink:href="#m4b7e4d70a4" x="57.6" y="105.628875" style="stroke: #000000; stroke-width: 0.8"/>
      </g>
     </g>
     <g id="text_17">
      <!-- 60 -->
      <g transform="translate(37.875 109.428094) scale(0.1 -0.1)">
       <use xlink:href="#DejaVuSans-36"/>
       <use xlink:href="#DejaVuSans-30" x="63.623047"/>
      </g>
     </g>
    </g>
    <g id="ytick_7">
     <g id="line2d_17">
      <g>
       <use xlink:href="#m4b7e4d70a4" x="57.6" y="70.93319" style="stroke: #000000; stroke-width: 0.8"/>
      </g>
     </g>
     <g id="text_18">
      <!-- 70 -->
      <g transform="translate(37.875 74.732409) scale(0.1 -0.1)">
       <use xlink:href="#DejaVuSans-37"/>
       <use xlink:href="#DejaVuSans-30" x="63.623047"/>
      </g>
     </g>
    </g>
    <g id="text_19">
     <!-- Accuracy -->
     <g transform="translate(31.795312 197.356125) rotate(-90) scale(0.1 -0.1)">
      <defs>
       <path id="DejaVuSans-41" d="M 2188 4044 
L 1331 1722 
L 3047 1722 
L 2188 4044 
z
M 1831 4666 
L 2547 4666 
L 4325 0 
L 3669 0 
L 3244 1197 
L 1141 1197 
L 716 0 
L 50 0 
L 1831 4666 
z
" transform="scale(0.015625)"/>
       <path id="DejaVuSans-75" d="M 544 1381 
L 544 3500 
L 1119 3500 
L 1119 1403 
Q 1119 906 1312 657 
Q 1506 409 1894 409 
Q 2359 409 2629 706 
Q 2900 1003 2900 1516 
L 2900 3500 
L 3475 3500 
L 3475 0 
L 2900 0 
L 2900 538 
Q 2691 219 2414 64 
Q 2138 -91 1772 -91 
Q 1169 -91 856 284 
Q 544 659 544 1381 
z
M 1991 3584 
L 1991 3584 
z
" transform="scale(0.015625)"/>
       <path id="DejaVuSans-72" d="M 2631 2963 
Q 2534 3019 2420 3045 
Q 2306 3072 2169 3072 
Q 1681 3072 1420 2755 
Q 1159 2438 1159 1844 
L 1159 0 
L 581 0 
L 581 3500 
L 1159 3500 
L 1159 2956 
Q 1341 3275 1631 3429 
Q 1922 3584 2338 3584 
Q 2397 3584 2469 3576 
Q 2541 3569 2628 3553 
L 2631 2963 
z
" transform="scale(0.015625)"/>
       <path id="DejaVuSans-61" d="M 2194 1759 
Q 1497 1759 1228 1600 
Q 959 1441 959 1056 
Q 959 750 1161 570 
Q 1363 391 1709 391 
Q 2188 391 2477 730 
Q 2766 1069 2766 1631 
L 2766 1759 
L 2194 1759 
z
M 3341 1997 
L 3341 0 
L 2766 0 
L 2766 531 
Q 2569 213 2275 61 
Q 1981 -91 1556 -91 
Q 1019 -91 701 211 
Q 384 513 384 1019 
Q 384 1609 779 1909 
Q 1175 2209 1959 2209 
L 2766 2209 
L 2766 2266 
Q 2766 2663 2505 2880 
Q 2244 3097 1772 3097 
Q 1472 3097 1187 3025 
Q 903 2953 641 2809 
L 641 3341 
Q 956 3463 1253 3523 
Q 1550 3584 1831 3584 
Q 2591 3584 2966 3190 
Q 3341 2797 3341 1997 
z
" transform="scale(0.015625)"/>
       <path id="DejaVuSans-79" d="M 2059 -325 
Q 1816 -950 1584 -1140 
Q 1353 -1331 966 -1331 
L 506 -1331 
L 506 -850 
L 844 -850 
Q 1081 -850 1212 -737 
Q 1344 -625 1503 -206 
L 1606 56 
L 191 3500 
L 800 3500 
L 1894 763 
L 2988 3500 
L 3597 3500 
L 2059 -325 
z
" transform="scale(0.015625)"/>
      </defs>
      <use xlink:href="#DejaVuSans-41"/>
      <use xlink:href="#DejaVuSans-63" x="66.658203"/>
      <use xlink:href="#DejaVuSans-63" x="121.638672"/>
      <use xlink:href="#DejaVuSans-75" x="176.619141"/>
      <use xlink:href="#DejaVuSans-72" x="239.998047"/>
      <use xlink:href="#DejaVuSans-61" x="281.111328"/>
      <use xlink:href="#DejaVuSans-63" x="342.390625"/>
      <use xlink:href="#DejaVuSans-79" x="397.371094"/>
     </g>
    </g>
   </g>
   <g id="line2d_18">
    <path d="M 73.832727 295.488 
L 74.918528 266.369646 
L 76.00433 243.860821 
L 78.175932 212.357139 
L 79.261733 203.037011 
L 80.347534 192.64999 
L 81.433335 185.385581 
L 82.519137 177.258117 
L 83.604938 170.102132 
L 85.77654 159.84522 
L 86.862341 155.52127 
L 89.033943 145.849848 
L 91.205546 138.342569 
L 92.291347 137.379764 
L 93.377148 135.215621 
L 94.462949 133.619619 
L 95.54875 165.318464 
L 97.720353 160.131459 
L 99.891955 154.224519 
L 100.977756 150.217167 
L 102.063557 146.756273 
L 103.149358 144.184455 
L 104.23516 141.187615 
L 105.320961 139.292363 
L 106.406762 138.281852 
L 107.492563 134.265826 
L 109.664165 130.553388 
L 110.749967 127.552211 
L 111.835768 126.689156 
L 112.921569 123.835436 
L 114.00737 121.779717 
L 115.093171 118.730833 
L 117.264773 115.343667 
L 118.350575 113.947166 
L 119.436376 110.65975 
L 120.522177 109.523466 
L 121.607978 107.172833 
L 122.693779 104.258396 
L 123.77958 103.135123 
L 124.865382 101.834035 
L 125.951183 99.613511 
L 127.036984 97.839694 
L 128.122785 95.701572 
L 129.208586 92.856526 
L 130.294387 93.411657 
L 131.380189 91.577123 
L 132.46599 90.609981 
L 133.551791 89.829328 
L 134.637592 89.694882 
L 135.723393 88.428489 
L 136.809194 88.302718 
L 137.894995 88.376446 
L 138.980797 122.772881 
L 140.066598 126.324851 
L 141.152399 126.242449 
L 142.2382 123.94386 
L 143.324001 123.497153 
L 144.409802 124.026262 
L 145.495604 120.821248 
L 146.581405 122.81625 
L 147.667206 120.44827 
L 148.753007 119.064779 
L 149.838808 118.513985 
L 150.924609 119.047431 
L 152.01041 117.126158 
L 153.096212 114.736492 
L 154.182013 114.584699 
L 155.267814 113.582861 
L 156.353615 113.045078 
L 157.439416 111.318968 
L 158.525217 112.182023 
L 159.611019 109.822716 
L 160.69682 107.875421 
L 161.782621 108.764498 
L 162.868422 107.181507 
L 163.954223 107.02104 
L 165.040024 105.633212 
L 166.125825 104.449222 
L 167.211627 103.88108 
L 168.297428 103.022362 
L 169.383229 101.109762 
L 170.46903 102.029198 
L 171.554831 100.28574 
L 172.640632 99.734946 
L 173.726434 99.826022 
L 174.812235 97.744281 
L 175.898036 96.065877 
L 176.983837 95.198485 
L 178.069638 95.350279 
L 179.155439 93.819331 
L 180.24124 93.35094 
L 181.327042 91.603145 
L 182.412843 90.978622 
L 183.498644 89.066023 
L 184.584445 89.000968 
L 185.670246 87.977446 
L 186.756047 85.752585 
L 187.841849 85.765596 
L 188.92765 84.421138 
L 190.013451 84.195616 
L 191.099252 83.414963 
L 192.185053 82.39144 
L 193.270854 79.672166 
L 194.356656 78.822122 
L 195.442457 78.95223 
L 196.528258 77.421283 
L 197.614059 77.399599 
L 198.69986 75.877325 
L 200.871462 74.723694 
L 201.957264 73.73053 
L 203.043065 72.442453 
L 204.128866 72.052126 
L 205.214667 71.349539 
L 206.300468 69.788233 
L 207.386269 68.578221 
L 208.472071 69.436939 
L 209.557872 67.029926 
L 210.643673 66.071457 
L 211.729474 67.29448 
L 212.815275 66.383719 
L 213.901076 64.9265 
L 214.986877 63.881292 
L 216.072679 64.050434 
L 217.15848 63.339172 
L 218.244281 63.482292 
L 219.330082 62.666943 
L 220.415883 63.265444 
L 222.587486 61.591377 
L 223.673287 63.239422 
L 224.759088 63.11365 
L 225.844889 105.516114 
L 226.93069 109.471422 
L 228.016491 111.249576 
L 229.102292 109.78802 
L 230.188094 108.677759 
L 231.273895 108.122628 
L 232.359696 109.293607 
L 233.445497 106.77817 
L 234.531298 107.936138 
L 235.617099 106.921289 
L 236.702901 106.288093 
L 237.788702 105.186505 
L 238.874503 103.88108 
L 239.960304 105.199516 
L 241.046105 103.963482 
L 242.131906 104.284417 
L 243.217708 103.265232 
L 244.303509 103.061395 
L 245.38931 103.286916 
L 246.475111 101.487078 
L 247.560912 101.673567 
L 248.646713 101.409013 
L 249.732514 99.344619 
L 250.818316 100.606675 
L 251.904117 98.967304 
L 252.989918 100.650044 
L 255.16152 98.442531 
L 256.247321 98.598662 
L 257.333123 97.605498 
L 258.418924 99.236195 
L 259.504725 97.952455 
L 260.590526 98.381814 
L 261.676327 97.926433 
L 262.762128 95.441355 
L 263.847929 96.321758 
L 264.933731 95.393648 
L 266.019532 95.510746 
L 267.105333 94.205321 
L 268.191134 94.617332 
L 269.276935 94.864539 
L 270.362736 93.376961 
L 271.448538 93.099396 
L 272.534339 92.245015 
L 273.62014 92.674374 
L 274.705941 92.956276 
L 275.791742 92.032504 
L 276.877543 90.735752 
L 277.963344 91.182459 
L 279.049146 92.36645 
L 280.134947 92.214656 
L 281.220748 89.833665 
L 282.306549 91.208481 
L 283.39235 91.169449 
L 284.478151 88.870859 
L 285.563953 88.224652 
L 286.649754 88.237663 
L 287.735555 88.506555 
L 288.821356 88.450174 
L 289.907157 87.417978 
L 290.992958 86.71539 
L 292.07876 87.630489 
L 293.164561 86.507216 
L 294.250362 86.632988 
L 295.336163 85.97377 
L 296.421964 85.180106 
L 297.507765 85.648498 
L 298.593566 83.03331 
L 299.679368 84.143572 
L 300.765169 83.792279 
L 301.85097 82.230973 
L 302.936771 83.545072 
L 304.022572 81.615124 
L 305.108373 83.258832 
L 306.194175 81.970755 
L 307.279976 80.903863 
L 308.365777 81.155406 
L 309.451578 79.255818 
L 310.537379 78.570578 
L 311.62318 80.157906 
L 312.708981 78.366741 
L 313.794783 78.848143 
L 314.880584 78.722372 
L 315.966385 77.438631 
L 317.052186 76.740381 
L 318.137987 76.245967 
L 320.30959 76.532206 
L 321.395391 75.426281 
L 322.481192 73.622106 
L 323.566993 74.320357 
L 324.652794 72.672312 
L 325.738595 73.33153 
L 326.824396 72.611594 
L 330.0818 71.392908 
L 331.167601 70.29132 
L 332.253402 69.827265 
L 333.339203 68.135851 
L 334.425005 69.376221 
L 335.510806 68.244275 
L 337.682408 66.804404 
L 338.768209 65.802566 
L 339.85401 65.529337 
L 340.939811 64.210901 
L 342.025613 65.234424 
L 343.111414 65.455609 
L 345.283016 63.677455 
L 348.54042 61.907975 
L 349.626221 60.736996 
L 350.712022 61.717149 
L 351.797823 60.932159 
L 352.883624 60.472441 
L 353.969425 58.746331 
L 355.055227 58.841744 
L 356.141028 58.715972 
L 357.226829 57.531982 
L 358.31263 57.06359 
L 359.398431 57.037568 
L 360.484232 56.37835 
L 361.570033 54.348653 
L 362.655835 55.654078 
L 363.741636 54.830056 
L 364.827437 54.960164 
L 365.913238 54.179511 
L 366.999039 53.568 
L 368.08484 54.856077 
L 369.170642 54.85174 
L 370.256443 56.217883 
L 371.342244 58.993538 
L 372.428045 60.806387 
L 374.599647 60.541833 
L 376.77125 62.068443 
L 377.857051 60.754344 
L 378.942852 61.669442 
L 380.028653 61.812562 
L 381.114454 61.214062 
L 382.200255 60.997214 
L 383.286057 60.949507 
L 384.371858 62.37203 
L 385.457659 62.055432 
L 386.54346 61.990378 
L 387.629261 62.91415 
L 388.715062 62.12916 
L 389.800863 62.046758 
L 390.886665 61.825573 
L 391.972466 62.688628 
L 393.058267 61.790877 
L 394.144068 61.456931 
L 395.229869 62.450095 
L 396.31567 63.022574 
L 397.401472 61.812562 
L 398.487273 60.880116 
L 398.487273 60.880116 
" clip-path="url(#pa048d31eb6)" style="fill: none; stroke: #1f77b4; stroke-width: 1.5; stroke-linecap: square"/>
   </g>
   <g id="line2d_19">
    <path d="M 73.832727 280.685953 
L 76.00433 236.500999 
L 77.090131 227.705643 
L 78.175932 215.440718 
L 79.261733 201.024661 
L 80.347534 191.726217 
L 81.433335 188.048475 
L 85.77654 167.543325 
L 86.862341 158.782664 
L 87.948142 155.12227 
L 89.033943 149.796482 
L 90.119745 146.396305 
L 91.205546 146.535088 
L 92.291347 142.215475 
L 94.462949 139.405124 
L 95.54875 171.758851 
L 96.634552 169.850588 
L 97.720353 163.032886 
L 98.806154 165.791193 
L 99.891955 163.206364 
L 100.977756 154.601834 
L 102.063557 153.318094 
L 103.149358 152.780311 
L 104.23516 146.344261 
L 105.320961 152.069049 
L 106.406762 144.678869 
L 107.492563 143.048171 
L 108.578364 136.924383 
L 109.664165 139.942908 
L 110.749967 132.951727 
L 111.835768 131.199595 
L 112.921569 130.817942 
L 114.00737 124.694154 
L 115.093171 125.336024 
L 116.178972 123.462457 
L 117.264773 122.976718 
L 118.350575 119.958193 
L 119.436376 115.690624 
L 120.522177 113.921144 
L 121.607978 115.551841 
L 122.693779 114.667101 
L 123.77958 108.6474 
L 124.865382 105.646223 
L 125.951183 104.46657 
L 127.036984 105.299266 
L 128.122785 103.33896 
L 129.208586 102.280742 
L 130.294387 100.806175 
L 131.380189 97.683563 
L 132.46599 98.67239 
L 133.551791 97.38865 
L 134.637592 97.804998 
L 135.723393 97.197824 
L 136.809194 97.111085 
L 137.894995 96.590649 
L 138.980797 135.588599 
L 140.066598 132.431292 
L 141.152399 130.869986 
L 142.2382 131.442465 
L 143.324001 133.957902 
L 144.409802 128.718854 
L 145.495604 126.793243 
L 146.581405 129.360724 
L 147.667206 127.747374 
L 148.753007 126.446286 
L 150.924609 122.23076 
L 152.01041 123.462457 
L 153.096212 124.381893 
L 154.182013 125.630938 
L 155.267814 121.554195 
L 156.353615 122.300152 
L 157.439416 126.966721 
L 158.525217 116.991712 
L 159.611019 118.067278 
L 160.69682 116.436581 
L 161.782621 116.696799 
L 162.868422 115.48245 
L 165.040024 117.113147 
L 166.125825 113.886448 
L 167.211627 106.825876 
L 168.297428 105.212527 
L 169.383229 109.792357 
L 170.46903 111.318968 
L 171.554831 105.455397 
L 172.640632 104.345135 
L 173.726434 102.992003 
L 174.812235 106.357485 
L 175.898036 105.247223 
L 176.983837 102.228698 
L 178.069638 101.534784 
L 179.155439 98.620347 
L 180.24124 102.610351 
L 181.327042 101.222523 
L 182.412843 98.360129 
L 183.498644 98.464216 
L 184.584445 97.579476 
L 185.670246 94.821169 
L 186.756047 93.745603 
L 187.841849 92.305732 
L 188.92765 93.381298 
L 190.013451 89.495382 
L 191.099252 91.212818 
L 192.185053 89.113729 
L 193.270854 91.854688 
L 194.356656 86.61564 
L 195.442457 88.645337 
L 196.528258 83.232811 
L 197.614059 84.950247 
L 198.69986 84.343073 
L 199.785661 83.423637 
L 200.871462 81.983766 
L 201.957264 81.237809 
L 203.043065 78.705024 
L 204.128866 80.110199 
L 205.214667 78.757067 
L 206.300468 77.213109 
L 207.386269 76.258978 
L 208.472071 76.848805 
L 209.557872 75.755891 
L 210.643673 75.946717 
L 211.729474 75.513021 
L 212.815275 74.576237 
L 213.901076 74.125193 
L 214.986877 71.974061 
L 216.072679 72.910844 
L 217.15848 72.667975 
L 218.244281 72.650627 
L 219.330082 72.910844 
L 220.415883 72.928192 
L 221.501684 72.4598 
L 222.587486 72.720018 
L 223.673287 71.765887 
L 224.759088 72.685322 
L 225.844889 117.668278 
L 226.93069 126.984069 
L 228.016491 118.743844 
L 229.102292 119.923497 
L 230.188094 117.720321 
L 231.273895 125.197241 
L 232.359696 122.525674 
L 233.445497 122.595065 
L 234.531298 119.333671 
L 235.617099 127.105504 
L 236.702901 115.655928 
L 237.788702 116.245755 
L 238.874503 124.173719 
L 239.960304 112.914969 
L 241.046105 113.244578 
L 242.131906 115.88145 
L 243.217708 118.119322 
L 244.303509 109.965836 
L 245.38931 111.353663 
L 246.475111 113.123143 
L 247.560912 114.025231 
L 248.646713 111.405707 
L 249.732514 111.284272 
L 250.818316 108.369834 
L 251.904117 111.440402 
L 252.989918 108.16166 
L 254.075719 113.71297 
L 255.16152 106.097267 
L 257.333123 112.429229 
L 258.418924 107.988182 
L 259.504725 110.798532 
L 260.590526 109.879097 
L 261.676327 104.362483 
L 263.847929 103.564482 
L 264.933731 103.842047 
L 266.019532 103.807352 
L 267.105333 101.361306 
L 268.191134 107.745312 
L 269.276935 104.258396 
L 270.362736 105.871745 
L 271.448538 101.430697 
L 272.534339 103.564482 
L 273.62014 108.786183 
L 274.705941 104.518613 
L 275.791742 104.86557 
L 276.877543 105.906441 
L 277.963344 106.010528 
L 279.049146 101.205175 
L 280.134947 99.036695 
L 281.220748 105.646223 
L 282.306549 103.09609 
L 283.39235 103.668569 
L 284.478151 96.642693 
L 285.563953 100.806175 
L 286.649754 98.793825 
L 287.735555 97.128432 
L 288.821356 105.524788 
L 289.907157 99.453043 
L 290.992958 99.296913 
L 292.07876 98.67239 
L 293.164561 93.919082 
L 294.250362 98.342781 
L 295.336163 96.347779 
L 296.421964 96.850867 
L 297.507765 94.040516 
L 298.593566 99.366304 
L 299.679368 94.612995 
L 300.765169 95.046691 
L 301.85097 93.155776 
L 302.936771 94.717082 
L 304.022572 93.190472 
L 306.194175 87.951424 
L 307.279976 93.363951 
L 308.365777 94.994648 
L 309.451578 89.738252 
L 311.62318 87.031988 
L 312.708981 92.062862 
L 314.880584 85.678856 
L 315.966385 86.979945 
L 317.052186 85.678856 
L 318.137987 88.14225 
L 319.223788 88.78412 
L 320.30959 84.291029 
L 321.395391 85.609465 
L 322.481192 84.152246 
L 323.566993 82.955245 
L 325.738595 85.626813 
L 326.824396 80.942895 
L 327.910198 83.805289 
L 328.995999 82.868506 
L 330.0818 83.128724 
L 331.167601 83.094028 
L 332.253402 80.786765 
L 333.339203 82.642984 
L 334.425005 80.248982 
L 335.510806 80.804113 
L 336.596607 79.693851 
L 337.682408 80.42246 
L 338.768209 78.531545 
L 339.85401 75.790586 
L 340.939811 79.971416 
L 342.025613 76.050804 
L 343.111414 75.218107 
L 344.197215 73.084323 
L 345.283016 76.311021 
L 346.368817 74.645629 
L 347.454618 75.443629 
L 348.54042 74.107845 
L 349.626221 74.71502 
L 350.712022 73.708845 
L 351.797823 73.795584 
L 352.883624 72.095496 
L 355.055227 70.343364 
L 356.141028 72.650627 
L 357.226829 70.326016 
L 358.31263 70.551538 
L 359.398431 68.730014 
L 360.484232 69.371884 
L 361.570033 69.666798 
L 362.655835 67.723839 
L 363.741636 67.134013 
L 364.827437 68.209579 
L 365.913238 68.539188 
L 366.999039 66.301316 
L 368.08484 67.099317 
L 369.170642 68.782058 
L 370.256443 71.627104 
L 371.342244 75.755891 
L 372.428045 75.287499 
L 373.513846 72.841453 
L 374.599647 74.454802 
L 375.685448 75.252803 
L 376.77125 77.594762 
L 377.857051 74.107845 
L 378.942852 75.339542 
L 380.028653 74.749716 
L 381.114454 75.426281 
L 382.200255 72.615931 
L 383.286057 76.588587 
L 384.371858 72.824105 
L 385.457659 74.628281 
L 387.629261 76.311021 
L 388.715062 72.789409 
L 389.800863 74.420107 
L 390.886665 75.391586 
L 391.972466 76.710022 
L 393.058267 76.050804 
L 394.144068 75.582412 
L 395.229869 73.864976 
L 396.31567 74.576237 
L 397.401472 76.987587 
L 398.487273 75.218107 
L 398.487273 75.218107 
" clip-path="url(#pa048d31eb6)" style="fill: none; stroke: #ff7f0e; stroke-width: 1.5; stroke-linecap: square"/>
   </g>
   <g id="line2d_20">
    <path d="M 73.832727 294.421257 
L 74.918528 282.816149 
L 76.00433 269.177155 
L 77.090131 265.587947 
L 79.261733 253.384637 
L 80.347534 250.75255 
L 81.433335 247.402622 
L 82.519137 244.531255 
L 83.604938 240.463485 
L 84.690739 235.917154 
L 85.77654 234.12255 
L 86.862341 229.217298 
L 89.033943 224.431686 
L 90.119745 224.312046 
L 91.205546 228.020895 
L 92.291347 223.713844 
L 93.377148 220.842477 
L 94.462949 219.167513 
L 95.54875 245.129457 
L 96.634552 235.917154 
L 97.720353 234.601111 
L 98.806154 236.036794 
L 99.891955 233.165427 
L 100.977756 226.704852 
L 102.063557 228.978017 
L 103.149358 230.892262 
L 104.23516 224.670967 
L 105.320961 226.10665 
L 106.406762 220.244276 
L 107.492563 222.637082 
L 108.578364 223.235283 
L 109.664165 222.637082 
L 110.749967 217.133628 
L 111.835768 215.099743 
L 112.921569 216.894348 
L 114.00737 213.424779 
L 115.093171 213.544419 
L 116.178972 212.348016 
L 117.264773 209.71593 
L 118.350575 205.887441 
L 119.436376 206.485642 
L 120.522177 199.307224 
L 121.607978 205.64816 
L 122.693779 204.212476 
L 123.77958 198.709023 
L 124.865382 196.675138 
L 125.951183 195.718016 
L 127.036984 198.110822 
L 128.122785 196.794778 
L 129.208586 196.316217 
L 130.294387 195.239455 
L 131.380189 193.44485 
L 132.46599 192.846649 
L 133.551791 192.009167 
L 134.637592 193.684131 
L 135.723393 193.32521 
L 136.809194 192.368087 
L 137.894995 192.368087 
L 138.980797 221.321038 
L 140.066598 215.817585 
L 141.152399 213.305139 
L 142.2382 212.826578 
L 143.324001 220.483556 
L 144.409802 213.065858 
L 145.495604 209.955211 
L 146.581405 211.510534 
L 147.667206 216.774707 
L 148.753007 214.142621 
L 149.838808 211.989096 
L 150.924609 210.912333 
L 152.01041 211.989096 
L 153.096212 208.040966 
L 154.182013 213.305139 
L 155.267814 206.724923 
L 156.353615 208.040966 
L 157.439416 220.124635 
L 158.525217 202.896433 
L 159.611019 208.399887 
L 160.69682 205.289239 
L 161.782621 204.930318 
L 162.868422 202.058951 
L 163.954223 203.614275 
L 165.040024 208.040966 
L 166.125825 202.298232 
L 167.211627 199.067944 
L 168.297428 192.128807 
L 169.383229 200.383987 
L 170.46903 204.930318 
L 171.554831 201.46075 
L 172.640632 196.076937 
L 173.726434 195.119814 
L 174.812235 198.469742 
L 175.898036 204.212476 
L 176.983837 200.264347 
L 178.069638 197.751901 
L 179.155439 192.368087 
L 180.24124 194.401972 
L 181.327042 196.076937 
L 182.412843 195.119814 
L 183.498644 193.085929 
L 184.584445 195.119814 
L 185.670246 194.641253 
L 186.756047 187.941397 
L 187.841849 184.711109 
L 188.92765 188.180677 
L 190.013451 185.907512 
L 191.099252 185.548591 
L 192.185053 185.30931 
L 193.270854 189.1378 
L 194.356656 178.011252 
L 195.442457 184.232548 
L 196.528258 180.523698 
L 197.614059 183.514706 
L 198.69986 182.916504 
L 199.785661 181.24154 
L 200.871462 181.361181 
L 201.957264 178.848734 
L 203.043065 175.139885 
L 204.128866 177.05413 
L 205.214667 178.250533 
L 206.300468 175.498806 
L 207.386269 176.336288 
L 208.472071 175.379166 
L 209.557872 176.814849 
L 210.643673 175.857727 
L 211.729474 176.216648 
L 212.815275 174.541684 
L 213.901076 170.713194 
L 214.986877 170.354274 
L 216.072679 172.98636 
L 217.15848 170.713194 
L 218.244281 172.747079 
L 219.330082 170.593554 
L 220.415883 172.148878 
L 221.501684 172.268518 
L 223.673287 171.311396 
L 224.759088 172.86672 
L 225.844889 206.964203 
L 226.93069 221.321038 
L 228.016491 208.160606 
L 229.102292 211.151613 
L 230.188094 207.323124 
L 231.273895 210.314131 
L 233.445497 208.758808 
L 234.531298 208.399887 
L 235.617099 215.219383 
L 236.702901 208.280246 
L 237.788702 204.810678 
L 238.874503 214.381901 
L 239.960304 203.374994 
L 241.046105 205.52852 
L 242.131906 205.7678 
L 243.217708 209.237369 
L 244.303509 201.341109 
L 245.38931 202.537512 
L 246.475111 202.298232 
L 247.560912 200.144707 
L 248.646713 204.332117 
L 249.732514 207.203484 
L 250.818316 197.153699 
L 251.904117 209.59629 
L 252.989918 205.52852 
L 254.075719 207.562405 
L 255.16152 198.948304 
L 256.247321 201.58039 
L 257.333123 202.657153 
L 258.418924 193.32521 
L 259.504725 206.605282 
L 260.590526 205.7678 
L 261.676327 194.401972 
L 262.762128 193.684131 
L 263.847929 195.239455 
L 264.933731 194.521613 
L 266.019532 197.39298 
L 267.105333 193.684131 
L 268.191134 206.246361 
L 269.276935 200.144707 
L 270.362736 192.966289 
L 271.448538 200.025066 
L 272.534339 201.341109 
L 273.62014 203.733915 
L 274.705941 194.162692 
L 275.791742 199.307224 
L 276.877543 203.135714 
L 277.963344 200.264347 
L 279.049146 193.684131 
L 280.134947 196.555498 
L 281.220748 187.223555 
L 282.306549 194.641253 
L 283.39235 197.273339 
L 284.478151 191.291325 
L 285.563953 190.573483 
L 286.649754 192.607368 
L 287.735555 199.307224 
L 288.821356 200.144707 
L 289.907157 192.727008 
L 290.992958 192.487728 
L 292.07876 198.709023 
L 293.164561 189.37708 
L 294.250362 199.905426 
L 295.336163 193.32521 
L 296.421964 194.401972 
L 297.507765 192.128807 
L 298.593566 196.435857 
L 299.679368 193.085929 
L 300.765169 197.991181 
L 301.85097 192.846649 
L 302.936771 187.103915 
L 304.022572 189.018159 
L 305.108373 180.643339 
L 306.194175 185.428951 
L 307.279976 185.787871 
L 308.365777 191.291325 
L 309.451578 184.830749 
L 310.537379 185.907512 
L 311.62318 178.250533 
L 312.708981 190.214562 
L 313.794783 184.591468 
L 314.880584 182.677224 
L 315.966385 183.155785 
L 317.052186 179.088015 
L 318.137987 178.489814 
L 319.223788 185.787871 
L 320.30959 178.011252 
L 321.395391 181.1219 
L 322.481192 179.327296 
L 323.566993 183.036145 
L 324.652794 182.198663 
L 325.738595 182.677224 
L 326.824396 180.643339 
L 327.910198 182.079022 
L 328.995999 178.130893 
L 330.0818 184.471828 
L 331.167601 184.112907 
L 332.253402 188.300318 
L 333.339203 181.480821 
L 334.425005 178.848734 
L 335.510806 178.729094 
L 336.596607 182.437943 
L 337.682408 174.541684 
L 338.768209 176.814849 
L 339.85401 176.575569 
L 340.939811 173.464921 
L 342.025613 175.139885 
L 343.111414 173.225641 
L 344.197215 175.259526 
L 345.283016 172.388159 
L 346.368817 172.627439 
L 347.454618 177.05413 
L 348.54042 176.575569 
L 349.626221 178.729094 
L 350.712022 171.072115 
L 351.797823 174.661324 
L 352.883624 169.636432 
L 353.969425 168.200748 
L 355.055227 168.320389 
L 356.141028 172.268518 
L 357.226829 170.234633 
L 358.31263 167.482907 
L 359.398431 168.440029 
L 360.484232 170.832835 
L 361.570033 168.440029 
L 362.655835 165.449022 
L 363.741636 166.047223 
L 364.827437 170.234633 
L 365.913238 169.277511 
L 366.999039 165.568662 
L 368.08484 166.166863 
L 369.170642 169.277511 
L 370.256443 169.157871 
L 372.428045 175.259526 
L 373.513846 174.302403 
L 374.599647 177.532691 
L 376.77125 172.627439 
L 377.857051 176.575569 
L 378.942852 177.413051 
L 380.028653 182.198663 
L 381.114454 174.063123 
L 382.200255 171.550677 
L 383.286057 178.011252 
L 384.371858 171.431036 
L 385.457659 177.891612 
L 386.54346 172.148878 
L 387.629261 175.139885 
L 388.715062 171.670317 
L 389.800863 174.422044 
L 390.886665 178.130893 
L 391.972466 183.753986 
L 393.058267 172.747079 
L 394.144068 173.823842 
L 395.229869 173.704202 
L 396.31567 174.422044 
L 397.401472 176.455929 
L 398.487273 172.627439 
L 398.487273 172.627439 
" clip-path="url(#pa048d31eb6)" style="fill: none; stroke: #2ca02c; stroke-width: 1.5; stroke-linecap: square"/>
   </g>
   <g id="line2d_21">
    <path d="M 368.08484 66.249273 
L 369.170642 70.378059 
L 370.256443 70.811755 
L 371.342244 73.951715 
L 372.428045 72.494496 
L 373.513846 78.843806 
L 374.599647 73.413932 
L 375.685448 82.400114 
L 376.77125 79.13872 
L 377.857051 84.048159 
L 378.942852 80.977591 
L 380.028653 85.834987 
L 381.114454 76.328369 
L 382.200255 84.256333 
L 383.286057 83.579767 
L 384.371858 83.250158 
L 385.457659 85.991118 
L 386.54346 91.68121 
L 387.629261 85.852335 
L 388.715062 89.859686 
L 389.800863 87.604467 
L 390.886665 92.201645 
L 391.972466 90.085208 
L 393.058267 85.24516 
L 394.144068 90.865861 
L 395.229869 90.813818 
L 396.31567 100.598001 
L 397.401472 99.348956 
L 398.487273 97.78765 
L 398.487273 97.78765 
" clip-path="url(#pa048d31eb6)" style="fill: none; stroke: #d62728; stroke-width: 1.5; stroke-linecap: square"/>
   </g>
   <g id="line2d_22">
    <path d="M 368.08484 164.132978 
L 369.170642 165.807942 
L 370.256443 169.03823 
L 371.342244 178.370173 
L 372.428045 168.320389 
L 373.513846 180.882619 
L 374.599647 173.823842 
L 375.685448 183.873627 
L 376.77125 180.284418 
L 377.857051 179.446936 
L 380.028653 188.300318 
L 381.114454 172.98636 
L 382.200255 184.352188 
L 383.286057 187.223555 
L 384.371858 181.959382 
L 386.54346 193.32521 
L 387.629261 191.410965 
L 388.715062 192.727008 
L 389.800863 184.591468 
L 390.886665 186.744994 
L 391.972466 188.180677 
L 393.058267 181.00226 
L 394.144068 185.18967 
L 395.229869 184.352188 
L 396.31567 194.521613 
L 397.401472 192.607368 
L 398.487273 192.966289 
L 398.487273 192.966289 
" clip-path="url(#pa048d31eb6)" style="fill: none; stroke: #9467bd; stroke-width: 1.5; stroke-linecap: square"/>
   </g>
   <g id="patch_3">
    <path d="M 57.6 307.584 
L 57.6 41.472 
" style="fill: none; stroke: #000000; stroke-width: 0.8; stroke-linejoin: miter; stroke-linecap: square"/>
   </g>
   <g id="patch_4">
    <path d="M 414.72 307.584 
L 414.72 41.472 
" style="fill: none; stroke: #000000; stroke-width: 0.8; stroke-linejoin: miter; stroke-linecap: square"/>
   </g>
   <g id="patch_5">
    <path d="M 57.6 307.584 
L 414.72 307.584 
" style="fill: none; stroke: #000000; stroke-width: 0.8; stroke-linejoin: miter; stroke-linecap: square"/>
   </g>
   <g id="patch_6">
    <path d="M 57.6 41.472 
L 414.72 41.472 
" style="fill: none; stroke: #000000; stroke-width: 0.8; stroke-linejoin: miter; stroke-linecap: square"/>
   </g>
   <g id="text_20">
    <!-- Learning Curves -->
    <g transform="translate(187.37625 35.472) scale(0.12 -0.12)">
     <defs>
      <path id="DejaVuSans-4c" d="M 628 4666 
L 1259 4666 
L 1259 531 
L 3531 531 
L 3531 0 
L 628 0 
L 628 4666 
z
" transform="scale(0.015625)"/>
      <path id="DejaVuSans-65" d="M 3597 1894 
L 3597 1613 
L 953 1613 
Q 991 1019 1311 708 
Q 1631 397 2203 397 
Q 2534 397 2845 478 
Q 3156 559 3463 722 
L 3463 178 
Q 3153 47 2828 -22 
Q 2503 -91 2169 -91 
Q 1331 -91 842 396 
Q 353 884 353 1716 
Q 353 2575 817 3079 
Q 1281 3584 2069 3584 
Q 2775 3584 3186 3129 
Q 3597 2675 3597 1894 
z
M 3022 2063 
Q 3016 2534 2758 2815 
Q 2500 3097 2075 3097 
Q 1594 3097 1305 2825 
Q 1016 2553 972 2059 
L 3022 2063 
z
" transform="scale(0.015625)"/>
      <path id="DejaVuSans-6e" d="M 3513 2113 
L 3513 0 
L 2938 0 
L 2938 2094 
Q 2938 2591 2744 2837 
Q 2550 3084 2163 3084 
Q 1697 3084 1428 2787 
Q 1159 2491 1159 1978 
L 1159 0 
L 581 0 
L 581 3500 
L 1159 3500 
L 1159 2956 
Q 1366 3272 1645 3428 
Q 1925 3584 2291 3584 
Q 2894 3584 3203 3211 
Q 3513 2838 3513 2113 
z
" transform="scale(0.015625)"/>
      <path id="DejaVuSans-69" d="M 603 3500 
L 1178 3500 
L 1178 0 
L 603 0 
L 603 3500 
z
M 603 4863 
L 1178 4863 
L 1178 4134 
L 603 4134 
L 603 4863 
z
" transform="scale(0.015625)"/>
      <path id="DejaVuSans-67" d="M 2906 1791 
Q 2906 2416 2648 2759 
Q 2391 3103 1925 3103 
Q 1463 3103 1205 2759 
Q 947 2416 947 1791 
Q 947 1169 1205 825 
Q 1463 481 1925 481 
Q 2391 481 2648 825 
Q 2906 1169 2906 1791 
z
M 3481 434 
Q 3481 -459 3084 -895 
Q 2688 -1331 1869 -1331 
Q 1566 -1331 1297 -1286 
Q 1028 -1241 775 -1147 
L 775 -588 
Q 1028 -725 1275 -790 
Q 1522 -856 1778 -856 
Q 2344 -856 2625 -561 
Q 2906 -266 2906 331 
L 2906 616 
Q 2728 306 2450 153 
Q 2172 0 1784 0 
Q 1141 0 747 490 
Q 353 981 353 1791 
Q 353 2603 747 3093 
Q 1141 3584 1784 3584 
Q 2172 3584 2450 3431 
Q 2728 3278 2906 2969 
L 2906 3500 
L 3481 3500 
L 3481 434 
z
" transform="scale(0.015625)"/>
      <path id="DejaVuSans-20" transform="scale(0.015625)"/>
      <path id="DejaVuSans-43" d="M 4122 4306 
L 4122 3641 
Q 3803 3938 3442 4084 
Q 3081 4231 2675 4231 
Q 1875 4231 1450 3742 
Q 1025 3253 1025 2328 
Q 1025 1406 1450 917 
Q 1875 428 2675 428 
Q 3081 428 3442 575 
Q 3803 722 4122 1019 
L 4122 359 
Q 3791 134 3420 21 
Q 3050 -91 2638 -91 
Q 1578 -91 968 557 
Q 359 1206 359 2328 
Q 359 3453 968 4101 
Q 1578 4750 2638 4750 
Q 3056 4750 3426 4639 
Q 3797 4528 4122 4306 
z
" transform="scale(0.015625)"/>
      <path id="DejaVuSans-76" d="M 191 3500 
L 800 3500 
L 1894 563 
L 2988 3500 
L 3597 3500 
L 2284 0 
L 1503 0 
L 191 3500 
z
" transform="scale(0.015625)"/>
     </defs>
     <use xlink:href="#DejaVuSans-4c"/>
     <use xlink:href="#DejaVuSans-65" x="53.962891"/>
     <use xlink:href="#DejaVuSans-61" x="115.486328"/>
     <use xlink:href="#DejaVuSans-72" x="176.765625"/>
     <use xlink:href="#DejaVuSans-6e" x="216.128906"/>
     <use xlink:href="#DejaVuSans-69" x="279.507812"/>
     <use xlink:href="#DejaVuSans-6e" x="307.291016"/>
     <use xlink:href="#DejaVuSans-67" x="370.669922"/>
     <use xlink:href="#DejaVuSans-20" x="434.146484"/>
     <use xlink:href="#DejaVuSans-43" x="465.933594"/>
     <use xlink:href="#DejaVuSans-75" x="535.757812"/>
     <use xlink:href="#DejaVuSans-72" x="599.136719"/>
     <use xlink:href="#DejaVuSans-76" x="640.25"/>
     <use xlink:href="#DejaVuSans-65" x="699.429688"/>
     <use xlink:href="#DejaVuSans-73" x="760.953125"/>
    </g>
   </g>
   <g id="legend_1">
    <g id="patch_7">
     <path d="M 214.18875 302.584 
L 407.72 302.584 
Q 409.72 302.584 409.72 300.584 
L 409.72 228.193375 
Q 409.72 226.193375 407.72 226.193375 
L 214.18875 226.193375 
Q 212.18875 226.193375 212.18875 228.193375 
L 212.18875 300.584 
Q 212.18875 302.584 214.18875 302.584 
z
" style="fill: #ffffff; opacity: 0.8; stroke: #cccccc; stroke-linejoin: miter"/>
    </g>
    <g id="line2d_23">
     <path d="M 216.18875 234.291812 
L 226.18875 234.291812 
L 236.18875 234.291812 
" style="fill: none; stroke: #1f77b4; stroke-width: 1.5; stroke-linecap: square"/>
    </g>
    <g id="text_21">
     <!-- Train Accuracy -->
     <g transform="translate(244.18875 237.791812) scale(0.1 -0.1)">
      <defs>
       <path id="DejaVuSans-54" d="M -19 4666 
L 3928 4666 
L 3928 4134 
L 2272 4134 
L 2272 0 
L 1638 0 
L 1638 4134 
L -19 4134 
L -19 4666 
z
" transform="scale(0.015625)"/>
      </defs>
      <use xlink:href="#DejaVuSans-54"/>
      <use xlink:href="#DejaVuSans-72" x="46.333984"/>
      <use xlink:href="#DejaVuSans-61" x="87.447266"/>
      <use xlink:href="#DejaVuSans-69" x="148.726562"/>
      <use xlink:href="#DejaVuSans-6e" x="176.509766"/>
      <use xlink:href="#DejaVuSans-20" x="239.888672"/>
      <use xlink:href="#DejaVuSans-41" x="271.675781"/>
      <use xlink:href="#DejaVuSans-63" x="338.333984"/>
      <use xlink:href="#DejaVuSans-63" x="393.314453"/>
      <use xlink:href="#DejaVuSans-75" x="448.294922"/>
      <use xlink:href="#DejaVuSans-72" x="511.673828"/>
      <use xlink:href="#DejaVuSans-61" x="552.787109"/>
      <use xlink:href="#DejaVuSans-63" x="614.066406"/>
      <use xlink:href="#DejaVuSans-79" x="669.046875"/>
     </g>
    </g>
    <g id="line2d_24">
     <path d="M 216.18875 248.969937 
L 226.18875 248.969937 
L 236.18875 248.969937 
" style="fill: none; stroke: #ff7f0e; stroke-width: 1.5; stroke-linecap: square"/>
    </g>
    <g id="text_22">
     <!-- Validation Accuracy -->
     <g transform="translate(244.18875 252.469937) scale(0.1 -0.1)">
      <defs>
       <path id="DejaVuSans-56" d="M 1831 0 
L 50 4666 
L 709 4666 
L 2188 738 
L 3669 4666 
L 4325 4666 
L 2547 0 
L 1831 0 
z
" transform="scale(0.015625)"/>
       <path id="DejaVuSans-6c" d="M 603 4863 
L 1178 4863 
L 1178 0 
L 603 0 
L 603 4863 
z
" transform="scale(0.015625)"/>
       <path id="DejaVuSans-64" d="M 2906 2969 
L 2906 4863 
L 3481 4863 
L 3481 0 
L 2906 0 
L 2906 525 
Q 2725 213 2448 61 
Q 2172 -91 1784 -91 
Q 1150 -91 751 415 
Q 353 922 353 1747 
Q 353 2572 751 3078 
Q 1150 3584 1784 3584 
Q 2172 3584 2448 3432 
Q 2725 3281 2906 2969 
z
M 947 1747 
Q 947 1113 1208 752 
Q 1469 391 1925 391 
Q 2381 391 2643 752 
Q 2906 1113 2906 1747 
Q 2906 2381 2643 2742 
Q 2381 3103 1925 3103 
Q 1469 3103 1208 2742 
Q 947 2381 947 1747 
z
" transform="scale(0.015625)"/>
       <path id="DejaVuSans-74" d="M 1172 4494 
L 1172 3500 
L 2356 3500 
L 2356 3053 
L 1172 3053 
L 1172 1153 
Q 1172 725 1289 603 
Q 1406 481 1766 481 
L 2356 481 
L 2356 0 
L 1766 0 
Q 1100 0 847 248 
Q 594 497 594 1153 
L 594 3053 
L 172 3053 
L 172 3500 
L 594 3500 
L 594 4494 
L 1172 4494 
z
" transform="scale(0.015625)"/>
      </defs>
      <use xlink:href="#DejaVuSans-56"/>
      <use xlink:href="#DejaVuSans-61" x="60.658203"/>
      <use xlink:href="#DejaVuSans-6c" x="121.9375"/>
      <use xlink:href="#DejaVuSans-69" x="149.720703"/>
      <use xlink:href="#DejaVuSans-64" x="177.503906"/>
      <use xlink:href="#DejaVuSans-61" x="240.980469"/>
      <use xlink:href="#DejaVuSans-74" x="302.259766"/>
      <use xlink:href="#DejaVuSans-69" x="341.46875"/>
      <use xlink:href="#DejaVuSans-6f" x="369.251953"/>
      <use xlink:href="#DejaVuSans-6e" x="430.433594"/>
      <use xlink:href="#DejaVuSans-20" x="493.8125"/>
      <use xlink:href="#DejaVuSans-41" x="525.599609"/>
      <use xlink:href="#DejaVuSans-63" x="592.257812"/>
      <use xlink:href="#DejaVuSans-63" x="647.238281"/>
      <use xlink:href="#DejaVuSans-75" x="702.21875"/>
      <use xlink:href="#DejaVuSans-72" x="765.597656"/>
      <use xlink:href="#DejaVuSans-61" x="806.710938"/>
      <use xlink:href="#DejaVuSans-63" x="867.990234"/>
      <use xlink:href="#DejaVuSans-79" x="922.970703"/>
     </g>
    </g>
    <g id="line2d_25">
     <path d="M 216.18875 263.648062 
L 226.18875 263.648062 
L 236.18875 263.648062 
" style="fill: none; stroke: #2ca02c; stroke-width: 1.5; stroke-linecap: square"/>
    </g>
    <g id="text_23">
     <!-- Robust Validation Accuracy -->
     <g transform="translate(244.18875 267.148062) scale(0.1 -0.1)">
      <defs>
       <path id="DejaVuSans-52" d="M 2841 2188 
Q 3044 2119 3236 1894 
Q 3428 1669 3622 1275 
L 4263 0 
L 3584 0 
L 2988 1197 
Q 2756 1666 2539 1819 
Q 2322 1972 1947 1972 
L 1259 1972 
L 1259 0 
L 628 0 
L 628 4666 
L 2053 4666 
Q 2853 4666 3247 4331 
Q 3641 3997 3641 3322 
Q 3641 2881 3436 2590 
Q 3231 2300 2841 2188 
z
M 1259 4147 
L 1259 2491 
L 2053 2491 
Q 2509 2491 2742 2702 
Q 2975 2913 2975 3322 
Q 2975 3731 2742 3939 
Q 2509 4147 2053 4147 
L 1259 4147 
z
" transform="scale(0.015625)"/>
       <path id="DejaVuSans-62" d="M 3116 1747 
Q 3116 2381 2855 2742 
Q 2594 3103 2138 3103 
Q 1681 3103 1420 2742 
Q 1159 2381 1159 1747 
Q 1159 1113 1420 752 
Q 1681 391 2138 391 
Q 2594 391 2855 752 
Q 3116 1113 3116 1747 
z
M 1159 2969 
Q 1341 3281 1617 3432 
Q 1894 3584 2278 3584 
Q 2916 3584 3314 3078 
Q 3713 2572 3713 1747 
Q 3713 922 3314 415 
Q 2916 -91 2278 -91 
Q 1894 -91 1617 61 
Q 1341 213 1159 525 
L 1159 0 
L 581 0 
L 581 4863 
L 1159 4863 
L 1159 2969 
z
" transform="scale(0.015625)"/>
      </defs>
      <use xlink:href="#DejaVuSans-52"/>
      <use xlink:href="#DejaVuSans-6f" x="64.982422"/>
      <use xlink:href="#DejaVuSans-62" x="126.164062"/>
      <use xlink:href="#DejaVuSans-75" x="189.640625"/>
      <use xlink:href="#DejaVuSans-73" x="253.019531"/>
      <use xlink:href="#DejaVuSans-74" x="305.119141"/>
      <use xlink:href="#DejaVuSans-20" x="344.328125"/>
      <use xlink:href="#DejaVuSans-56" x="376.115234"/>
      <use xlink:href="#DejaVuSans-61" x="436.773438"/>
      <use xlink:href="#DejaVuSans-6c" x="498.052734"/>
      <use xlink:href="#DejaVuSans-69" x="525.835938"/>
      <use xlink:href="#DejaVuSans-64" x="553.619141"/>
      <use xlink:href="#DejaVuSans-61" x="617.095703"/>
      <use xlink:href="#DejaVuSans-74" x="678.375"/>
      <use xlink:href="#DejaVuSans-69" x="717.583984"/>
      <use xlink:href="#DejaVuSans-6f" x="745.367188"/>
      <use xlink:href="#DejaVuSans-6e" x="806.548828"/>
      <use xlink:href="#DejaVuSans-20" x="869.927734"/>
      <use xlink:href="#DejaVuSans-41" x="901.714844"/>
      <use xlink:href="#DejaVuSans-63" x="968.373047"/>
      <use xlink:href="#DejaVuSans-63" x="1023.353516"/>
      <use xlink:href="#DejaVuSans-75" x="1078.333984"/>
      <use xlink:href="#DejaVuSans-72" x="1141.712891"/>
      <use xlink:href="#DejaVuSans-61" x="1182.826172"/>
      <use xlink:href="#DejaVuSans-63" x="1244.105469"/>
      <use xlink:href="#DejaVuSans-79" x="1299.085938"/>
     </g>
    </g>
    <g id="line2d_26">
     <path d="M 216.18875 278.326188 
L 226.18875 278.326188 
L 236.18875 278.326188 
" style="fill: none; stroke: #d62728; stroke-width: 1.5; stroke-linecap: square"/>
    </g>
    <g id="text_24">
     <!-- SWA Validation Accuracy -->
     <g transform="translate(244.18875 281.826188) scale(0.1 -0.1)">
      <defs>
       <path id="DejaVuSans-53" d="M 3425 4513 
L 3425 3897 
Q 3066 4069 2747 4153 
Q 2428 4238 2131 4238 
Q 1616 4238 1336 4038 
Q 1056 3838 1056 3469 
Q 1056 3159 1242 3001 
Q 1428 2844 1947 2747 
L 2328 2669 
Q 3034 2534 3370 2195 
Q 3706 1856 3706 1288 
Q 3706 609 3251 259 
Q 2797 -91 1919 -91 
Q 1588 -91 1214 -16 
Q 841 59 441 206 
L 441 856 
Q 825 641 1194 531 
Q 1563 422 1919 422 
Q 2459 422 2753 634 
Q 3047 847 3047 1241 
Q 3047 1584 2836 1778 
Q 2625 1972 2144 2069 
L 1759 2144 
Q 1053 2284 737 2584 
Q 422 2884 422 3419 
Q 422 4038 858 4394 
Q 1294 4750 2059 4750 
Q 2388 4750 2728 4690 
Q 3069 4631 3425 4513 
z
" transform="scale(0.015625)"/>
       <path id="DejaVuSans-57" d="M 213 4666 
L 850 4666 
L 1831 722 
L 2809 4666 
L 3519 4666 
L 4500 722 
L 5478 4666 
L 6119 4666 
L 4947 0 
L 4153 0 
L 3169 4050 
L 2175 0 
L 1381 0 
L 213 4666 
z
" transform="scale(0.015625)"/>
      </defs>
      <use xlink:href="#DejaVuSans-53"/>
      <use xlink:href="#DejaVuSans-57" x="63.476562"/>
      <use xlink:href="#DejaVuSans-41" x="156.853516"/>
      <use xlink:href="#DejaVuSans-20" x="225.261719"/>
      <use xlink:href="#DejaVuSans-56" x="257.048828"/>
      <use xlink:href="#DejaVuSans-61" x="317.707031"/>
      <use xlink:href="#DejaVuSans-6c" x="378.986328"/>
      <use xlink:href="#DejaVuSans-69" x="406.769531"/>
      <use xlink:href="#DejaVuSans-64" x="434.552734"/>
      <use xlink:href="#DejaVuSans-61" x="498.029297"/>
      <use xlink:href="#DejaVuSans-74" x="559.308594"/>
      <use xlink:href="#DejaVuSans-69" x="598.517578"/>
      <use xlink:href="#DejaVuSans-6f" x="626.300781"/>
      <use xlink:href="#DejaVuSans-6e" x="687.482422"/>
      <use xlink:href="#DejaVuSans-20" x="750.861328"/>
      <use xlink:href="#DejaVuSans-41" x="782.648438"/>
      <use xlink:href="#DejaVuSans-63" x="849.306641"/>
      <use xlink:href="#DejaVuSans-63" x="904.287109"/>
      <use xlink:href="#DejaVuSans-75" x="959.267578"/>
      <use xlink:href="#DejaVuSans-72" x="1022.646484"/>
      <use xlink:href="#DejaVuSans-61" x="1063.759766"/>
      <use xlink:href="#DejaVuSans-63" x="1125.039062"/>
      <use xlink:href="#DejaVuSans-79" x="1180.019531"/>
     </g>
    </g>
    <g id="line2d_27">
     <path d="M 216.18875 293.004312 
L 226.18875 293.004312 
L 236.18875 293.004312 
" style="fill: none; stroke: #9467bd; stroke-width: 1.5; stroke-linecap: square"/>
    </g>
    <g id="text_25">
     <!-- SWA Robust Validation Accuracy -->
     <g transform="translate(244.18875 296.504312) scale(0.1 -0.1)">
      <use xlink:href="#DejaVuSans-53"/>
      <use xlink:href="#DejaVuSans-57" x="63.476562"/>
      <use xlink:href="#DejaVuSans-41" x="156.853516"/>
      <use xlink:href="#DejaVuSans-20" x="225.261719"/>
      <use xlink:href="#DejaVuSans-52" x="257.048828"/>
      <use xlink:href="#DejaVuSans-6f" x="322.03125"/>
      <use xlink:href="#DejaVuSans-62" x="383.212891"/>
      <use xlink:href="#DejaVuSans-75" x="446.689453"/>
      <use xlink:href="#DejaVuSans-73" x="510.068359"/>
      <use xlink:href="#DejaVuSans-74" x="562.167969"/>
      <use xlink:href="#DejaVuSans-20" x="601.376953"/>
      <use xlink:href="#DejaVuSans-56" x="633.164062"/>
      <use xlink:href="#DejaVuSans-61" x="693.822266"/>
      <use xlink:href="#DejaVuSans-6c" x="755.101562"/>
      <use xlink:href="#DejaVuSans-69" x="782.884766"/>
      <use xlink:href="#DejaVuSans-64" x="810.667969"/>
      <use xlink:href="#DejaVuSans-61" x="874.144531"/>
      <use xlink:href="#DejaVuSans-74" x="935.423828"/>
      <use xlink:href="#DejaVuSans-69" x="974.632812"/>
      <use xlink:href="#DejaVuSans-6f" x="1002.416016"/>
      <use xlink:href="#DejaVuSans-6e" x="1063.597656"/>
      <use xlink:href="#DejaVuSans-20" x="1126.976562"/>
      <use xlink:href="#DejaVuSans-41" x="1158.763672"/>
      <use xlink:href="#DejaVuSans-63" x="1225.421875"/>
      <use xlink:href="#DejaVuSans-63" x="1280.402344"/>
      <use xlink:href="#DejaVuSans-75" x="1335.382812"/>
      <use xlink:href="#DejaVuSans-72" x="1398.761719"/>
      <use xlink:href="#DejaVuSans-61" x="1439.875"/>
      <use xlink:href="#DejaVuSans-63" x="1501.154297"/>
      <use xlink:href="#DejaVuSans-79" x="1556.134766"/>
     </g>
    </g>
   </g>
  </g>
 </g>
 <defs>
  <clipPath id="pa048d31eb6">
   <rect x="57.6" y="41.472" width="357.12" height="266.112"/>
  </clipPath>
 </defs>
</svg>
