<?xml version="1.0" encoding="utf-8" standalone="no"?>
<!DOCTYPE svg PUBLIC "-//W3C//DTD SVG 1.1//EN"
  "http://www.w3.org/Graphics/SVG/1.1/DTD/svg11.dtd">
<svg xmlns:xlink="http://www.w3.org/1999/xlink" width="460.8pt" height="345.6pt" viewBox="0 0 460.8 345.6" xmlns="http://www.w3.org/2000/svg" version="1.1">
 <metadata>
  <rdf:RDF xmlns:dc="http://purl.org/dc/elements/1.1/" xmlns:cc="http://creativecommons.org/ns#" xmlns:rdf="http://www.w3.org/1999/02/22-rdf-syntax-ns#">
   <cc:Work>
    <dc:type rdf:resource="http://purl.org/dc/dcmitype/StillImage"/>
    <dc:date>2025-06-23T06:50:24.727922</dc:date>
    <dc:format>image/svg+xml</dc:format>
    <dc:creator>
     <cc:Agent>
      <dc:title>Matplotlib v3.9.1, https://matplotlib.org/</dc:title>
     </cc:Agent>
    </dc:creator>
   </cc:Work>
  </rdf:RDF>
 </metadata>
 <defs>
  <style type="text/css">*{stroke-linejoin: round; stroke-linecap: butt}</style>
 </defs>
 <g id="figure_1">
  <g id="patch_1">
   <path d="M 0 345.6 
L 460.8 345.6 
L 460.8 0 
L 0 0 
z
" style="fill: #ffffff"/>
  </g>
  <g id="axes_1">
   <g id="patch_2">
    <path d="M 57.6 307.584 
L 414.72 307.584 
L 414.72 41.472 
L 57.6 41.472 
z
" style="fill: #ffffff"/>
   </g>
   <g id="matplotlib.axis_1">
    <g id="xtick_1">
     <g id="line2d_1">
      <defs>
       <path id="m0133b02128" d="M 0 0 
L 0 3.5 
" style="stroke: #000000; stroke-width: 0.8"/>
      </defs>
      <g>
       <use xlink:href="#m0133b02128" x="73.832727" y="307.584" style="stroke: #000000; stroke-width: 0.8"/>
      </g>
     </g>
     <g id="text_1">
      <!-- 1 -->
      <g transform="translate(70.651477 322.182437) scale(0.1 -0.1)">
       <defs>
        <path id="DejaVuSans-31" d="M 794 531 
L 1825 531 
L 1825 4091 
L 703 3866 
L 703 4441 
L 1819 4666 
L 2450 4666 
L 2450 531 
L 3481 531 
L 3481 0 
L 794 0 
L 794 531 
z
" transform="scale(0.015625)"/>
       </defs>
       <use xlink:href="#DejaVuSans-31"/>
      </g>
     </g>
    </g>
    <g id="xtick_2">
     <g id="line2d_2">
      <g>
       <use xlink:href="#m0133b02128" x="109.664165" y="307.584" style="stroke: #000000; stroke-width: 0.8"/>
      </g>
     </g>
     <g id="text_2">
      <!-- 34 -->
      <g transform="translate(103.301665 322.182437) scale(0.1 -0.1)">
       <defs>
        <path id="DejaVuSans-33" d="M 2597 2516 
Q 3050 2419 3304 2112 
Q 3559 1806 3559 1356 
Q 3559 666 3084 287 
Q 2609 -91 1734 -91 
Q 1441 -91 1130 -33 
Q 819 25 488 141 
L 488 750 
Q 750 597 1062 519 
Q 1375 441 1716 441 
Q 2309 441 2620 675 
Q 2931 909 2931 1356 
Q 2931 1769 2642 2001 
Q 2353 2234 1838 2234 
L 1294 2234 
L 1294 2753 
L 1863 2753 
Q 2328 2753 2575 2939 
Q 2822 3125 2822 3475 
Q 2822 3834 2567 4026 
Q 2313 4219 1838 4219 
Q 1578 4219 1281 4162 
Q 984 4106 628 3988 
L 628 4550 
Q 988 4650 1302 4700 
Q 1616 4750 1894 4750 
Q 2613 4750 3031 4423 
Q 3450 4097 3450 3541 
Q 3450 3153 3228 2886 
Q 3006 2619 2597 2516 
z
" transform="scale(0.015625)"/>
        <path id="DejaVuSans-34" d="M 2419 4116 
L 825 1625 
L 2419 1625 
L 2419 4116 
z
M 2253 4666 
L 3047 4666 
L 3047 1625 
L 3713 1625 
L 3713 1100 
L 3047 1100 
L 3047 0 
L 2419 0 
L 2419 1100 
L 313 1100 
L 313 1709 
L 2253 4666 
z
" transform="scale(0.015625)"/>
       </defs>
       <use xlink:href="#DejaVuSans-33"/>
       <use xlink:href="#DejaVuSans-34" x="63.623047"/>
      </g>
     </g>
    </g>
    <g id="xtick_3">
     <g id="line2d_3">
      <g>
       <use xlink:href="#m0133b02128" x="145.495604" y="307.584" style="stroke: #000000; stroke-width: 0.8"/>
      </g>
     </g>
     <g id="text_3">
      <!-- 67 -->
      <g transform="translate(139.133104 322.182437) scale(0.1 -0.1)">
       <defs>
        <path id="DejaVuSans-36" d="M 2113 2584 
Q 1688 2584 1439 2293 
Q 1191 2003 1191 1497 
Q 1191 994 1439 701 
Q 1688 409 2113 409 
Q 2538 409 2786 701 
Q 3034 994 3034 1497 
Q 3034 2003 2786 2293 
Q 2538 2584 2113 2584 
z
M 3366 4563 
L 3366 3988 
Q 3128 4100 2886 4159 
Q 2644 4219 2406 4219 
Q 1781 4219 1451 3797 
Q 1122 3375 1075 2522 
Q 1259 2794 1537 2939 
Q 1816 3084 2150 3084 
Q 2853 3084 3261 2657 
Q 3669 2231 3669 1497 
Q 3669 778 3244 343 
Q 2819 -91 2113 -91 
Q 1303 -91 875 529 
Q 447 1150 447 2328 
Q 447 3434 972 4092 
Q 1497 4750 2381 4750 
Q 2619 4750 2861 4703 
Q 3103 4656 3366 4563 
z
" transform="scale(0.015625)"/>
        <path id="DejaVuSans-37" d="M 525 4666 
L 3525 4666 
L 3525 4397 
L 1831 0 
L 1172 0 
L 2766 4134 
L 525 4134 
L 525 4666 
z
" transform="scale(0.015625)"/>
       </defs>
       <use xlink:href="#DejaVuSans-36"/>
       <use xlink:href="#DejaVuSans-37" x="63.623047"/>
      </g>
     </g>
    </g>
    <g id="xtick_4">
     <g id="line2d_4">
      <g>
       <use xlink:href="#m0133b02128" x="181.327042" y="307.584" style="stroke: #000000; stroke-width: 0.8"/>
      </g>
     </g>
     <g id="text_4">
      <!-- 100 -->
      <g transform="translate(171.783292 322.182437) scale(0.1 -0.1)">
       <defs>
        <path id="DejaVuSans-30" d="M 2034 4250 
Q 1547 4250 1301 3770 
Q 1056 3291 1056 2328 
Q 1056 1369 1301 889 
Q 1547 409 2034 409 
Q 2525 409 2770 889 
Q 3016 1369 3016 2328 
Q 3016 3291 2770 3770 
Q 2525 4250 2034 4250 
z
M 2034 4750 
Q 2819 4750 3233 4129 
Q 3647 3509 3647 2328 
Q 3647 1150 3233 529 
Q 2819 -91 2034 -91 
Q 1250 -91 836 529 
Q 422 1150 422 2328 
Q 422 3509 836 4129 
Q 1250 4750 2034 4750 
z
" transform="scale(0.015625)"/>
       </defs>
       <use xlink:href="#DejaVuSans-31"/>
       <use xlink:href="#DejaVuSans-30" x="63.623047"/>
       <use xlink:href="#DejaVuSans-30" x="127.246094"/>
      </g>
     </g>
    </g>
    <g id="xtick_5">
     <g id="line2d_5">
      <g>
       <use xlink:href="#m0133b02128" x="217.15848" y="307.584" style="stroke: #000000; stroke-width: 0.8"/>
      </g>
     </g>
     <g id="text_5">
      <!-- 133 -->
      <g transform="translate(207.61473 322.182437) scale(0.1 -0.1)">
       <use xlink:href="#DejaVuSans-31"/>
       <use xlink:href="#DejaVuSans-33" x="63.623047"/>
       <use xlink:href="#DejaVuSans-33" x="127.246094"/>
      </g>
     </g>
    </g>
    <g id="xtick_6">
     <g id="line2d_6">
      <g>
       <use xlink:href="#m0133b02128" x="254.075719" y="307.584" style="stroke: #000000; stroke-width: 0.8"/>
      </g>
     </g>
     <g id="text_6">
      <!-- 167 -->
      <g transform="translate(244.531969 322.182437) scale(0.1 -0.1)">
       <use xlink:href="#DejaVuSans-31"/>
       <use xlink:href="#DejaVuSans-36" x="63.623047"/>
       <use xlink:href="#DejaVuSans-37" x="127.246094"/>
      </g>
     </g>
    </g>
    <g id="xtick_7">
     <g id="line2d_7">
      <g>
       <use xlink:href="#m0133b02128" x="289.907157" y="307.584" style="stroke: #000000; stroke-width: 0.8"/>
      </g>
     </g>
     <g id="text_7">
      <!-- 200 -->
      <g transform="translate(280.363407 322.182437) scale(0.1 -0.1)">
       <defs>
        <path id="DejaVuSans-32" d="M 1228 531 
L 3431 531 
L 3431 0 
L 469 0 
L 469 531 
Q 828 903 1448 1529 
Q 2069 2156 2228 2338 
Q 2531 2678 2651 2914 
Q 2772 3150 2772 3378 
Q 2772 3750 2511 3984 
Q 2250 4219 1831 4219 
Q 1534 4219 1204 4116 
Q 875 4013 500 3803 
L 500 4441 
Q 881 4594 1212 4672 
Q 1544 4750 1819 4750 
Q 2544 4750 2975 4387 
Q 3406 4025 3406 3419 
Q 3406 3131 3298 2873 
Q 3191 2616 2906 2266 
Q 2828 2175 2409 1742 
Q 1991 1309 1228 531 
z
" transform="scale(0.015625)"/>
       </defs>
       <use xlink:href="#DejaVuSans-32"/>
       <use xlink:href="#DejaVuSans-30" x="63.623047"/>
       <use xlink:href="#DejaVuSans-30" x="127.246094"/>
      </g>
     </g>
    </g>
    <g id="xtick_8">
     <g id="line2d_8">
      <g>
       <use xlink:href="#m0133b02128" x="325.738595" y="307.584" style="stroke: #000000; stroke-width: 0.8"/>
      </g>
     </g>
     <g id="text_8">
      <!-- 233 -->
      <g transform="translate(316.194845 322.182437) scale(0.1 -0.1)">
       <use xlink:href="#DejaVuSans-32"/>
       <use xlink:href="#DejaVuSans-33" x="63.623047"/>
       <use xlink:href="#DejaVuSans-33" x="127.246094"/>
      </g>
     </g>
    </g>
    <g id="xtick_9">
     <g id="line2d_9">
      <g>
       <use xlink:href="#m0133b02128" x="361.570033" y="307.584" style="stroke: #000000; stroke-width: 0.8"/>
      </g>
     </g>
     <g id="text_9">
      <!-- 266 -->
      <g transform="translate(352.026283 322.182437) scale(0.1 -0.1)">
       <use xlink:href="#DejaVuSans-32"/>
       <use xlink:href="#DejaVuSans-36" x="63.623047"/>
       <use xlink:href="#DejaVuSans-36" x="127.246094"/>
      </g>
     </g>
    </g>
    <g id="xtick_10">
     <g id="line2d_10">
      <g>
       <use xlink:href="#m0133b02128" x="398.487273" y="307.584" style="stroke: #000000; stroke-width: 0.8"/>
      </g>
     </g>
     <g id="text_10">
      <!-- 300 -->
      <g transform="translate(388.943523 322.182437) scale(0.1 -0.1)">
       <use xlink:href="#DejaVuSans-33"/>
       <use xlink:href="#DejaVuSans-30" x="63.623047"/>
       <use xlink:href="#DejaVuSans-30" x="127.246094"/>
      </g>
     </g>
    </g>
    <g id="text_11">
     <!-- Epochs -->
     <g transform="translate(218.244375 335.860562) scale(0.1 -0.1)">
      <defs>
       <path id="DejaVuSans-45" d="M 628 4666 
L 3578 4666 
L 3578 4134 
L 1259 4134 
L 1259 2753 
L 3481 2753 
L 3481 2222 
L 1259 2222 
L 1259 531 
L 3634 531 
L 3634 0 
L 628 0 
L 628 4666 
z
" transform="scale(0.015625)"/>
       <path id="DejaVuSans-70" d="M 1159 525 
L 1159 -1331 
L 581 -1331 
L 581 3500 
L 1159 3500 
L 1159 2969 
Q 1341 3281 1617 3432 
Q 1894 3584 2278 3584 
Q 2916 3584 3314 3078 
Q 3713 2572 3713 1747 
Q 3713 922 3314 415 
Q 2916 -91 2278 -91 
Q 1894 -91 1617 61 
Q 1341 213 1159 525 
z
M 3116 1747 
Q 3116 2381 2855 2742 
Q 2594 3103 2138 3103 
Q 1681 3103 1420 2742 
Q 1159 2381 1159 1747 
Q 1159 1113 1420 752 
Q 1681 391 2138 391 
Q 2594 391 2855 752 
Q 3116 1113 3116 1747 
z
" transform="scale(0.015625)"/>
       <path id="DejaVuSans-6f" d="M 1959 3097 
Q 1497 3097 1228 2736 
Q 959 2375 959 1747 
Q 959 1119 1226 758 
Q 1494 397 1959 397 
Q 2419 397 2687 759 
Q 2956 1122 2956 1747 
Q 2956 2369 2687 2733 
Q 2419 3097 1959 3097 
z
M 1959 3584 
Q 2709 3584 3137 3096 
Q 3566 2609 3566 1747 
Q 3566 888 3137 398 
Q 2709 -91 1959 -91 
Q 1206 -91 779 398 
Q 353 888 353 1747 
Q 353 2609 779 3096 
Q 1206 3584 1959 3584 
z
" transform="scale(0.015625)"/>
       <path id="DejaVuSans-63" d="M 3122 3366 
L 3122 2828 
Q 2878 2963 2633 3030 
Q 2388 3097 2138 3097 
Q 1578 3097 1268 2742 
Q 959 2388 959 1747 
Q 959 1106 1268 751 
Q 1578 397 2138 397 
Q 2388 397 2633 464 
Q 2878 531 3122 666 
L 3122 134 
Q 2881 22 2623 -34 
Q 2366 -91 2075 -91 
Q 1284 -91 818 406 
Q 353 903 353 1747 
Q 353 2603 823 3093 
Q 1294 3584 2113 3584 
Q 2378 3584 2631 3529 
Q 2884 3475 3122 3366 
z
" transform="scale(0.015625)"/>
       <path id="DejaVuSans-68" d="M 3513 2113 
L 3513 0 
L 2938 0 
L 2938 2094 
Q 2938 2591 2744 2837 
Q 2550 3084 2163 3084 
Q 1697 3084 1428 2787 
Q 1159 2491 1159 1978 
L 1159 0 
L 581 0 
L 581 4863 
L 1159 4863 
L 1159 2956 
Q 1366 3272 1645 3428 
Q 1925 3584 2291 3584 
Q 2894 3584 3203 3211 
Q 3513 2838 3513 2113 
z
" transform="scale(0.015625)"/>
       <path id="DejaVuSans-73" d="M 2834 3397 
L 2834 2853 
Q 2591 2978 2328 3040 
Q 2066 3103 1784 3103 
Q 1356 3103 1142 2972 
Q 928 2841 928 2578 
Q 928 2378 1081 2264 
Q 1234 2150 1697 2047 
L 1894 2003 
Q 2506 1872 2764 1633 
Q 3022 1394 3022 966 
Q 3022 478 2636 193 
Q 2250 -91 1575 -91 
Q 1294 -91 989 -36 
Q 684 19 347 128 
L 347 722 
Q 666 556 975 473 
Q 1284 391 1588 391 
Q 1994 391 2212 530 
Q 2431 669 2431 922 
Q 2431 1156 2273 1281 
Q 2116 1406 1581 1522 
L 1381 1569 
Q 847 1681 609 1914 
Q 372 2147 372 2553 
Q 372 3047 722 3315 
Q 1072 3584 1716 3584 
Q 2034 3584 2315 3537 
Q 2597 3491 2834 3397 
z
" transform="scale(0.015625)"/>
      </defs>
      <use xlink:href="#DejaVuSans-45"/>
      <use xlink:href="#DejaVuSans-70" x="63.183594"/>
      <use xlink:href="#DejaVuSans-6f" x="126.660156"/>
      <use xlink:href="#DejaVuSans-63" x="187.841797"/>
      <use xlink:href="#DejaVuSans-68" x="242.822266"/>
      <use xlink:href="#DejaVuSans-73" x="306.201172"/>
     </g>
    </g>
   </g>
   <g id="matplotlib.axis_2">
    <g id="ytick_1">
     <g id="line2d_11">
      <defs>
       <path id="mdb9a2e950e" d="M 0 0 
L -3.5 0 
" style="stroke: #000000; stroke-width: 0.8"/>
      </defs>
      <g>
       <use xlink:href="#mdb9a2e950e" x="57.6" y="275.973715" style="stroke: #000000; stroke-width: 0.8"/>
      </g>
     </g>
     <g id="text_12">
      <!-- 10 -->
      <g transform="translate(37.875 279.772934) scale(0.1 -0.1)">
       <use xlink:href="#DejaVuSans-31"/>
       <use xlink:href="#DejaVuSans-30" x="63.623047"/>
      </g>
     </g>
    </g>
    <g id="ytick_2">
     <g id="line2d_12">
      <g>
       <use xlink:href="#mdb9a2e950e" x="57.6" y="239.816064" style="stroke: #000000; stroke-width: 0.8"/>
      </g>
     </g>
     <g id="text_13">
      <!-- 20 -->
      <g transform="translate(37.875 243.615282) scale(0.1 -0.1)">
       <use xlink:href="#DejaVuSans-32"/>
       <use xlink:href="#DejaVuSans-30" x="63.623047"/>
      </g>
     </g>
    </g>
    <g id="ytick_3">
     <g id="line2d_13">
      <g>
       <use xlink:href="#mdb9a2e950e" x="57.6" y="203.658412" style="stroke: #000000; stroke-width: 0.8"/>
      </g>
     </g>
     <g id="text_14">
      <!-- 30 -->
      <g transform="translate(37.875 207.457631) scale(0.1 -0.1)">
       <use xlink:href="#DejaVuSans-33"/>
       <use xlink:href="#DejaVuSans-30" x="63.623047"/>
      </g>
     </g>
    </g>
    <g id="ytick_4">
     <g id="line2d_14">
      <g>
       <use xlink:href="#mdb9a2e950e" x="57.6" y="167.50076" style="stroke: #000000; stroke-width: 0.8"/>
      </g>
     </g>
     <g id="text_15">
      <!-- 40 -->
      <g transform="translate(37.875 171.299979) scale(0.1 -0.1)">
       <use xlink:href="#DejaVuSans-34"/>
       <use xlink:href="#DejaVuSans-30" x="63.623047"/>
      </g>
     </g>
    </g>
    <g id="ytick_5">
     <g id="line2d_15">
      <g>
       <use xlink:href="#mdb9a2e950e" x="57.6" y="131.343109" style="stroke: #000000; stroke-width: 0.8"/>
      </g>
     </g>
     <g id="text_16">
      <!-- 50 -->
      <g transform="translate(37.875 135.142327) scale(0.1 -0.1)">
       <defs>
        <path id="DejaVuSans-35" d="M 691 4666 
L 3169 4666 
L 3169 4134 
L 1269 4134 
L 1269 2991 
Q 1406 3038 1543 3061 
Q 1681 3084 1819 3084 
Q 2600 3084 3056 2656 
Q 3513 2228 3513 1497 
Q 3513 744 3044 326 
Q 2575 -91 1722 -91 
Q 1428 -91 1123 -41 
Q 819 9 494 109 
L 494 744 
Q 775 591 1075 516 
Q 1375 441 1709 441 
Q 2250 441 2565 725 
Q 2881 1009 2881 1497 
Q 2881 1984 2565 2268 
Q 2250 2553 1709 2553 
Q 1456 2553 1204 2497 
Q 953 2441 691 2322 
L 691 4666 
z
" transform="scale(0.015625)"/>
       </defs>
       <use xlink:href="#DejaVuSans-35"/>
       <use xlink:href="#DejaVuSans-30" x="63.623047"/>
      </g>
     </g>
    </g>
    <g id="ytick_6">
     <g id="line2d_16">
      <g>
       <use xlink:href="#mdb9a2e950e" x="57.6" y="95.185457" style="stroke: #000000; stroke-width: 0.8"/>
      </g>
     </g>
     <g id="text_17">
      <!-- 60 -->
      <g transform="translate(37.875 98.984676) scale(0.1 -0.1)">
       <use xlink:href="#DejaVuSans-36"/>
       <use xlink:href="#DejaVuSans-30" x="63.623047"/>
      </g>
     </g>
    </g>
    <g id="ytick_7">
     <g id="line2d_17">
      <g>
       <use xlink:href="#mdb9a2e950e" x="57.6" y="59.027805" style="stroke: #000000; stroke-width: 0.8"/>
      </g>
     </g>
     <g id="text_18">
      <!-- 70 -->
      <g transform="translate(37.875 62.827024) scale(0.1 -0.1)">
       <use xlink:href="#DejaVuSans-37"/>
       <use xlink:href="#DejaVuSans-30" x="63.623047"/>
      </g>
     </g>
    </g>
    <g id="text_19">
     <!-- Accuracy -->
     <g transform="translate(31.795312 197.356125) rotate(-90) scale(0.1 -0.1)">
      <defs>
       <path id="DejaVuSans-41" d="M 2188 4044 
L 1331 1722 
L 3047 1722 
L 2188 4044 
z
M 1831 4666 
L 2547 4666 
L 4325 0 
L 3669 0 
L 3244 1197 
L 1141 1197 
L 716 0 
L 50 0 
L 1831 4666 
z
" transform="scale(0.015625)"/>
       <path id="DejaVuSans-75" d="M 544 1381 
L 544 3500 
L 1119 3500 
L 1119 1403 
Q 1119 906 1312 657 
Q 1506 409 1894 409 
Q 2359 409 2629 706 
Q 2900 1003 2900 1516 
L 2900 3500 
L 3475 3500 
L 3475 0 
L 2900 0 
L 2900 538 
Q 2691 219 2414 64 
Q 2138 -91 1772 -91 
Q 1169 -91 856 284 
Q 544 659 544 1381 
z
M 1991 3584 
L 1991 3584 
z
" transform="scale(0.015625)"/>
       <path id="DejaVuSans-72" d="M 2631 2963 
Q 2534 3019 2420 3045 
Q 2306 3072 2169 3072 
Q 1681 3072 1420 2755 
Q 1159 2438 1159 1844 
L 1159 0 
L 581 0 
L 581 3500 
L 1159 3500 
L 1159 2956 
Q 1341 3275 1631 3429 
Q 1922 3584 2338 3584 
Q 2397 3584 2469 3576 
Q 2541 3569 2628 3553 
L 2631 2963 
z
" transform="scale(0.015625)"/>
       <path id="DejaVuSans-61" d="M 2194 1759 
Q 1497 1759 1228 1600 
Q 959 1441 959 1056 
Q 959 750 1161 570 
Q 1363 391 1709 391 
Q 2188 391 2477 730 
Q 2766 1069 2766 1631 
L 2766 1759 
L 2194 1759 
z
M 3341 1997 
L 3341 0 
L 2766 0 
L 2766 531 
Q 2569 213 2275 61 
Q 1981 -91 1556 -91 
Q 1019 -91 701 211 
Q 384 513 384 1019 
Q 384 1609 779 1909 
Q 1175 2209 1959 2209 
L 2766 2209 
L 2766 2266 
Q 2766 2663 2505 2880 
Q 2244 3097 1772 3097 
Q 1472 3097 1187 3025 
Q 903 2953 641 2809 
L 641 3341 
Q 956 3463 1253 3523 
Q 1550 3584 1831 3584 
Q 2591 3584 2966 3190 
Q 3341 2797 3341 1997 
z
" transform="scale(0.015625)"/>
       <path id="DejaVuSans-79" d="M 2059 -325 
Q 1816 -950 1584 -1140 
Q 1353 -1331 966 -1331 
L 506 -1331 
L 506 -850 
L 844 -850 
Q 1081 -850 1212 -737 
Q 1344 -625 1503 -206 
L 1606 56 
L 191 3500 
L 800 3500 
L 1894 763 
L 2988 3500 
L 3597 3500 
L 2059 -325 
z
" transform="scale(0.015625)"/>
      </defs>
      <use xlink:href="#DejaVuSans-41"/>
      <use xlink:href="#DejaVuSans-63" x="66.658203"/>
      <use xlink:href="#DejaVuSans-63" x="121.638672"/>
      <use xlink:href="#DejaVuSans-75" x="176.619141"/>
      <use xlink:href="#DejaVuSans-72" x="239.998047"/>
      <use xlink:href="#DejaVuSans-61" x="281.111328"/>
      <use xlink:href="#DejaVuSans-63" x="342.390625"/>
      <use xlink:href="#DejaVuSans-79" x="397.371094"/>
     </g>
    </g>
   </g>
   <g id="line2d_18">
    <path d="M 73.832727 295.488 
L 74.918528 272.85331 
L 76.00433 255.020356 
L 77.090131 240.011315 
L 78.175932 227.800876 
L 80.347534 209.053134 
L 81.433335 202.053012 
L 82.519137 193.975393 
L 83.604938 188.750612 
L 84.690739 180.951407 
L 85.77654 176.822203 
L 89.033943 161.773388 
L 90.119745 159.578619 
L 91.205546 156.194263 
L 92.291347 153.992262 
L 93.377148 152.130143 
L 94.462949 151.041797 
L 95.54875 181.692639 
L 96.634552 180.94056 
L 98.806154 174.703365 
L 99.891955 171.167146 
L 100.977756 168.227529 
L 102.063557 165.862819 
L 103.149358 163.114837 
L 104.23516 159.260432 
L 105.320961 157.571869 
L 106.406762 155.055297 
L 107.492563 153.352271 
L 108.578364 149.718427 
L 109.664165 148.094949 
L 110.749967 145.639844 
L 111.835768 143.933203 
L 112.921569 141.116522 
L 114.00737 137.442905 
L 115.093171 135.985751 
L 116.178972 133.299238 
L 117.264773 131.646833 
L 118.350575 130.789897 
L 120.522177 125.810988 
L 121.607978 124.11881 
L 122.693779 120.889932 
L 123.77958 119.722039 
L 124.865382 117.223546 
L 125.951183 114.323702 
L 127.036984 112.852086 
L 128.122785 110.939346 
L 129.208586 109.80038 
L 130.294387 107.735778 
L 131.380189 106.394329 
L 132.46599 105.64225 
L 135.723393 102.641165 
L 136.809194 102.52546 
L 137.894995 103.331776 
L 138.980797 141.691429 
L 140.066598 146.225598 
L 141.152399 143.712641 
L 142.2382 143.358296 
L 143.324001 142.439892 
L 144.409802 142.165094 
L 145.495604 139.847388 
L 146.581405 138.473398 
L 147.667206 138.657802 
L 148.753007 136.434106 
L 149.838808 135.768805 
L 150.924609 133.845218 
L 152.01041 134.517751 
L 153.096212 133.028055 
L 154.182013 131.270793 
L 155.267814 131.01769 
L 156.353615 129.824487 
L 157.439416 129.669009 
L 158.525217 128.913315 
L 159.611019 126.335274 
L 160.69682 124.943204 
L 161.782621 125.944771 
L 162.868422 123.815086 
L 163.954223 124.375529 
L 165.040024 122.549568 
L 166.125825 121.587774 
L 167.211627 121.374444 
L 168.297428 119.606335 
L 169.383229 119.414699 
L 170.46903 118.301044 
L 171.554831 116.171358 
L 172.640632 116.482314 
L 173.726434 115.16256 
L 174.812235 114.38517 
L 176.983837 112.476046 
L 178.069638 110.563306 
L 179.155439 112.013228 
L 180.24124 109.359257 
L 181.327042 107.435669 
L 182.412843 106.412408 
L 183.498644 106.036368 
L 184.584445 105.83027 
L 186.756047 103.273924 
L 187.841849 100.948987 
L 188.92765 100.945371 
L 190.013451 100.598258 
L 191.099252 98.663823 
L 192.185053 97.669488 
L 193.270854 97.278985 
L 194.356656 95.489181 
L 195.442457 94.831112 
L 196.528258 93.055771 
L 197.614059 92.256687 
L 198.69986 91.023711 
L 199.785661 90.358411 
L 200.871462 89.136282 
L 203.043065 87.191 
L 205.214667 84.768438 
L 206.300468 84.602112 
L 207.386269 83.795797 
L 208.472071 82.081924 
L 209.557872 82.049382 
L 210.643673 80.639234 
L 211.729474 79.883539 
L 212.815275 78.245597 
L 213.901076 79.258012 
L 214.986877 77.31273 
L 216.072679 76.611271 
L 217.15848 77.041547 
L 219.330082 76.021902 
L 220.415883 75.031182 
L 221.501684 75.765182 
L 222.587486 75.269823 
L 223.673287 74.911862 
L 224.759088 75.056492 
L 225.844889 125.688052 
L 226.93069 128.974783 
L 228.016491 128.877157 
L 229.102292 128.989246 
L 230.188094 127.56825 
L 231.273895 127.177747 
L 232.359696 127.712881 
L 233.445497 125.236081 
L 234.531298 125.886919 
L 235.617099 124.856426 
L 236.702901 125.131224 
L 237.788702 123.869322 
L 238.874503 122.950918 
L 239.960304 122.357932 
L 241.046105 122.365164 
L 243.217708 121.927656 
L 244.303509 120.564513 
L 245.38931 121.396139 
L 246.475111 118.998886 
L 247.560912 120.000453 
L 248.646713 118.503527 
L 249.732514 118.507142 
L 250.818316 118.977192 
L 251.904117 118.51799 
L 252.989918 117.588738 
L 254.075719 116.861969 
L 255.16152 116.880048 
L 256.247321 115.017929 
L 257.333123 116.673949 
L 258.418924 116.543782 
L 259.504725 115.524136 
L 260.590526 115.357811 
L 261.676327 114.377939 
L 263.847929 114.797367 
L 264.933731 113.365524 
L 266.019532 113.434224 
L 267.105333 113.734332 
L 268.191134 112.027691 
L 269.276935 113.007564 
L 270.362736 111.12375 
L 271.448538 110.10772 
L 272.534339 109.699138 
L 273.62014 110.874262 
L 274.705941 109.952242 
L 275.791742 109.590665 
L 276.877543 110.342745 
L 277.963344 108.824123 
L 279.049146 108.730113 
L 280.134947 108.444468 
L 281.220748 107.645384 
L 282.306549 107.974418 
L 283.39235 106.723364 
L 284.478151 107.522448 
L 285.563953 106.296703 
L 286.649754 106.65828 
L 287.735555 105.327678 
L 288.821356 105.060112 
L 289.907157 103.559569 
L 290.992958 105.060112 
L 292.07876 104.423737 
L 293.164561 103.169067 
L 294.250362 103.017204 
L 295.336163 102.181963 
L 296.421964 102.395293 
L 297.507765 101.451578 
L 298.593566 102.026485 
L 299.679368 101.140622 
L 300.765169 99.875104 
L 301.85097 100.670573 
L 302.936771 99.987193 
L 304.022572 97.416384 
L 305.108373 98.605971 
L 306.194175 98.41072 
L 307.279976 97.109044 
L 308.365777 97.680335 
L 309.451578 97.159665 
L 311.62318 95.478334 
L 312.708981 95.406019 
L 313.794783 95.572344 
L 314.880584 93.934402 
L 315.966385 93.486047 
L 317.052186 92.791821 
L 318.137987 93.222097 
L 319.223788 91.739633 
L 320.30959 92.097594 
L 321.395391 90.64044 
L 322.481192 91.519071 
L 323.566993 90.445189 
L 324.652794 90.076381 
L 325.738595 90.54643 
L 326.824396 88.962725 
L 327.910198 87.979237 
L 328.995999 87.335631 
L 330.0818 85.53498 
L 331.167601 86.315985 
L 332.253402 85.733847 
L 333.339203 84.631039 
L 334.425005 85.755542 
L 335.510806 84.1176 
L 336.596607 84.23692 
L 337.682408 81.933678 
L 338.768209 82.465195 
L 339.85401 80.946574 
L 340.939811 81.702269 
L 342.025613 80.028169 
L 343.111414 80.592229 
L 344.197215 79.362869 
L 345.283016 77.186178 
L 346.368817 78.332376 
L 347.454618 77.121094 
L 348.54042 77.71408 
L 349.626221 76.470257 
L 350.712022 76.170148 
L 351.797823 74.922709 
L 353.969425 74.080236 
L 355.055227 72.75325 
L 356.141028 72.811102 
L 357.226829 72.579693 
L 359.398431 70.591022 
L 360.484232 70.290914 
L 361.570033 68.992854 
L 362.655835 68.045524 
L 363.741636 68.786756 
L 364.827437 68.750598 
L 365.913238 67.539317 
L 366.999039 66.819779 
L 368.08484 67.727336 
L 369.170642 71.104461 
L 370.256443 72.080718 
L 371.342244 73.642728 
L 372.428045 75.533773 
L 373.513846 76.285853 
L 374.599647 76.81737 
L 375.685448 76.162917 
L 376.77125 76.611271 
L 377.857051 76.726976 
L 378.942852 74.868473 
L 380.028653 75.750719 
L 381.114454 76.354552 
L 382.200255 77.175331 
L 383.286057 77.059626 
L 384.371858 76.831833 
L 385.457659 77.21872 
L 386.54346 76.481104 
L 387.629261 76.770365 
L 388.715062 77.891252 
L 389.800863 76.343705 
L 390.886665 77.229567 
L 391.972466 78.346839 
L 393.058267 78.393844 
L 394.144068 78.079272 
L 395.229869 77.533292 
L 396.31567 77.8334 
L 397.401472 77.453745 
L 398.487273 77.685154 
L 398.487273 77.685154 
" clip-path="url(#p12a1687f01)" style="fill: none; stroke: #1f77b4; stroke-width: 1.5; stroke-linecap: square"/>
   </g>
   <g id="line2d_19">
    <path d="M 73.832727 273.659626 
L 74.918528 250.735675 
L 76.00433 230.270444 
L 77.090131 218.62768 
L 78.175932 201.308165 
L 79.261733 197.186192 
L 82.519137 164.246572 
L 83.604938 158.027456 
L 85.77654 150.217403 
L 86.862341 140.707941 
L 87.948142 138.646954 
L 89.033943 134.127248 
L 90.119745 130.764586 
L 91.205546 129.896803 
L 92.291347 125.557884 
L 93.377148 123.822317 
L 94.462949 122.70143 
L 95.54875 156.291888 
L 96.634552 157.34046 
L 97.720353 147.867156 
L 98.806154 139.442423 
L 99.891955 149.530408 
L 100.977756 139.153161 
L 102.063557 137.598382 
L 103.149358 135.645869 
L 104.23516 133.042518 
L 105.320961 128.450497 
L 106.406762 125.051677 
L 107.492563 128.7036 
L 108.578364 119.483399 
L 109.664165 121.146651 
L 110.749967 121.146651 
L 111.835768 114.095909 
L 112.921569 112.251869 
L 114.00737 108.129896 
L 115.093171 108.672261 
L 116.178972 106.358171 
L 117.264773 102.561618 
L 118.350575 102.344672 
L 119.436376 98.2227 
L 120.522177 96.053241 
L 121.607978 95.185457 
L 122.693779 92.582106 
L 123.77958 93.052156 
L 124.865382 88.387819 
L 125.951183 86.760724 
L 127.036984 86.579936 
L 128.122785 84.66358 
L 129.208586 82.494121 
L 130.294387 81.807126 
L 131.380189 80.577766 
L 133.551791 78.372149 
L 134.637592 78.299834 
L 135.723393 79.13146 
L 136.809194 78.769883 
L 137.894995 78.950671 
L 138.980797 120.676601 
L 140.066598 118.470985 
L 141.152399 121.544385 
L 142.2382 113.083495 
L 143.324001 115.723003 
L 144.409802 114.059751 
L 145.495604 118.073251 
L 146.581405 112.07108 
L 147.667206 109.214626 
L 149.838808 111.890292 
L 150.924609 107.009009 
L 152.01041 114.674431 
L 153.096212 109.106153 
L 154.182013 108.816892 
L 155.267814 102.923195 
L 156.353615 102.52546 
L 157.439416 105.888122 
L 158.525217 97.897281 
L 159.611019 100.211371 
L 160.69682 97.282601 
L 161.782621 97.13797 
L 162.868422 98.548119 
L 163.954223 96.595605 
L 165.040024 99.235114 
L 166.125825 97.174128 
L 167.211627 99.632848 
L 168.297428 94.426146 
L 169.383229 94.751565 
L 170.46903 97.535704 
L 171.554831 93.59452 
L 172.640632 95.727822 
L 173.726434 90.159543 
L 174.812235 88.785553 
L 175.898036 86.724567 
L 176.983837 83.398063 
L 178.069638 88.857868 
L 179.155439 80.830869 
L 180.24124 83.28959 
L 181.327042 86.435305 
L 182.412843 83.542693 
L 183.498644 81.951757 
L 184.584445 80.071559 
L 185.670246 77.757469 
L 186.756047 81.662495 
L 187.841849 77.106631 
L 188.92765 75.298749 
L 190.013451 78.155203 
L 191.099252 74.97333 
L 192.185053 78.04673 
L 193.270854 75.551852 
L 194.356656 70.236677 
L 195.442457 71.755299 
L 196.528258 69.838943 
L 197.614059 67.018646 
L 198.69986 67.850272 
L 199.785661 65.500025 
L 200.871462 64.776872 
L 201.957264 65.970075 
L 203.043065 64.849187 
L 204.128866 65.57234 
L 205.214667 63.619827 
L 206.300468 61.341895 
L 207.386269 64.632241 
L 208.472071 62.281994 
L 210.643673 61.088792 
L 211.729474 60.6549 
L 212.815275 61.016476 
L 213.901076 58.232337 
L 214.986877 59.136278 
L 216.072679 57.979234 
L 217.15848 58.883175 
L 218.244281 57.653815 
L 219.330082 56.930662 
L 221.501684 58.087706 
L 222.587486 57.798445 
L 223.673287 57.292238 
L 224.759088 57.436869 
L 225.844889 107.334428 
L 226.93069 107.15364 
L 228.016491 109.503887 
L 229.102292 108.274527 
L 230.188094 99.054326 
L 231.273895 110.950193 
L 232.359696 102.670091 
L 233.445497 104.044082 
L 234.531298 112.251869 
L 235.617099 101.657677 
L 236.702901 100.789893 
L 237.788702 100.175213 
L 238.874503 96.450975 
L 239.960304 110.010094 
L 241.046105 98.078069 
L 242.131906 98.548119 
L 243.217708 95.547034 
L 244.303509 97.897281 
L 245.38931 97.933439 
L 246.475111 95.402403 
L 247.560912 99.126641 
L 248.646713 98.403488 
L 249.732514 91.858953 
L 250.818316 101.657677 
L 251.904117 101.079154 
L 252.989918 94.968511 
L 254.075719 94.028412 
L 255.16152 96.921024 
L 256.247321 91.497377 
L 257.333123 94.860038 
L 258.418924 97.60802 
L 259.504725 100.898366 
L 260.590526 90.448805 
L 261.676327 97.282601 
L 262.762128 91.027327 
L 263.847929 87.773138 
L 264.933731 90.159543 
L 266.019532 94.860038 
L 267.105333 88.243188 
L 268.191134 92.509791 
L 269.276935 86.543778 
L 270.362736 89.761809 
L 271.448538 87.990084 
L 272.534339 86.724567 
L 273.62014 95.547034 
L 274.705941 82.855698 
L 275.791742 89.653336 
L 276.877543 94.173043 
L 277.963344 90.882697 
L 279.049146 88.423976 
L 280.134947 87.375404 
L 281.220748 87.736981 
L 282.306549 87.664666 
L 283.39235 89.978755 
L 284.478151 87.230774 
L 285.563953 81.987914 
L 286.649754 85.097472 
L 287.735555 87.086143 
L 288.821356 88.351661 
L 289.907157 91.461219 
L 290.992958 89.870282 
L 292.07876 82.566437 
L 293.164561 79.709982 
L 294.250362 86.326832 
L 295.336163 82.457964 
L 296.421964 81.662495 
L 297.507765 80.288505 
L 298.593566 79.926928 
L 299.679368 84.916684 
L 300.765169 76.491951 
L 301.85097 79.782297 
L 302.936771 79.963086 
L 304.022572 77.685154 
L 305.108373 79.963086 
L 306.194175 75.226433 
L 307.279976 75.551852 
L 308.365777 76.672739 
L 309.451578 75.262591 
L 310.537379 77.865942 
L 311.62318 76.130375 
L 312.708981 71.574511 
L 313.794783 72.297664 
L 314.880584 75.73264 
L 315.966385 71.899929 
L 317.052186 70.164362 
L 318.137987 70.128204 
L 319.223788 73.093132 
L 320.30959 69.621997 
L 321.395391 73.27392 
L 322.481192 71.791456 
L 323.566993 73.707812 
L 324.652794 70.779042 
L 325.738595 70.055889 
L 326.824396 70.055889 
L 327.910198 67.199435 
L 328.995999 68.464952 
L 330.0818 67.488696 
L 331.167601 66.04239 
L 332.253402 67.488696 
L 333.339203 67.307908 
L 334.425005 63.511354 
L 335.510806 67.380223 
L 336.596607 66.367809 
L 337.682408 61.124949 
L 338.768209 65.933917 
L 339.85401 61.26958 
L 340.939811 63.981404 
L 342.025613 63.077462 
L 343.111414 63.655985 
L 345.283016 61.848102 
L 346.368817 63.366724 
L 347.454618 59.42554 
L 348.54042 61.703472 
L 349.626221 60.763373 
L 350.712022 62.752044 
L 351.797823 56.135193 
L 352.883624 59.244751 
L 355.055227 57.979234 
L 356.141028 60.18485 
L 357.226829 57.617657 
L 358.31263 53.965734 
L 359.398431 57.473026 
L 360.484232 56.822189 
L 362.655835 54.218838 
L 363.741636 55.556671 
L 364.827437 53.568 
L 365.913238 53.676473 
L 366.999039 54.508099 
L 368.08484 54.978148 
L 369.170642 55.737459 
L 371.342244 58.485441 
L 372.428045 58.738544 
L 373.513846 58.123864 
L 374.599647 60.582584 
L 375.685448 64.451453 
L 376.77125 60.329481 
L 377.857051 58.304652 
L 378.942852 60.944161 
L 380.028653 60.546427 
L 381.114454 63.547512 
L 382.200255 61.233422 
L 383.286057 62.318152 
L 384.371858 60.908003 
L 385.457659 63.981404 
L 386.54346 62.173521 
L 388.715062 63.077462 
L 389.800863 63.041305 
L 390.886665 61.667314 
L 391.972466 59.931747 
L 393.058267 59.714801 
L 394.144068 62.137363 
L 395.229869 61.450368 
L 396.31567 59.678643 
L 397.401472 59.461697 
L 398.487273 59.895589 
L 398.487273 59.895589 
" clip-path="url(#p12a1687f01)" style="fill: none; stroke: #ff7f0e; stroke-width: 1.5; stroke-linecap: square"/>
   </g>
   <g id="line2d_20">
    <path d="M 73.832727 291.184865 
L 74.918528 276.771677 
L 76.00433 272.058714 
L 77.090131 263.854668 
L 78.175932 258.842469 
L 79.261733 258.169189 
L 80.347534 251.511194 
L 81.433335 251.037404 
L 82.519137 243.332084 
L 84.690739 234.878674 
L 85.77654 235.327528 
L 86.862341 225.77692 
L 87.948142 226.7245 
L 89.033943 226.599819 
L 90.119745 220.989149 
L 91.205546 223.033926 
L 92.291347 218.944371 
L 93.377148 218.046664 
L 94.462949 217.87211 
L 95.54875 236.150426 
L 96.634552 235.726509 
L 97.720353 228.395233 
L 98.806154 222.310773 
L 99.891955 232.634406 
L 100.977756 229.342813 
L 102.063557 225.627302 
L 103.149358 228.494978 
L 104.23516 225.602366 
L 105.320961 214.131663 
L 106.406762 212.585612 
L 107.492563 222.73469 
L 108.578364 209.593254 
L 109.664165 217.572874 
L 110.749967 215.528096 
L 112.921569 206.650769 
L 114.00737 205.877744 
L 115.093171 204.830419 
L 116.178972 202.536278 
L 117.264773 197.424334 
L 118.350575 202.66096 
L 119.436376 195.853347 
L 120.522177 197.623825 
L 122.693779 193.210098 
L 123.77958 193.334779 
L 124.865382 189.494587 
L 125.951183 186.477293 
L 127.036984 187.948536 
L 128.122785 187.724109 
L 129.208586 185.355159 
L 130.294387 183.65949 
L 131.380189 185.604523 
L 132.46599 183.011146 
L 133.551791 181.739394 
L 134.637592 183.1857 
L 135.723393 182.337866 
L 136.809194 182.138375 
L 137.894995 181.539904 
L 138.980797 213.109274 
L 140.066598 209.89249 
L 141.152399 210.914879 
L 142.2382 210.141853 
L 143.324001 206.775451 
L 144.409802 202.86045 
L 145.495604 215.079243 
L 146.581405 206.925069 
L 147.667206 206.999878 
L 148.753007 203.259431 
L 149.838808 203.359176 
L 150.924609 195.603983 
L 152.01041 211.438541 
L 153.096212 203.184622 
L 154.182013 200.915418 
L 155.267814 200.341883 
L 156.353615 198.895577 
L 157.439416 212.710293 
L 158.525217 199.244685 
L 159.611019 202.735769 
L 160.69682 200.541373 
L 161.782621 195.878283 
L 162.868422 196.676245 
L 163.954223 192.736308 
L 165.040024 194.232486 
L 166.125825 203.384113 
L 167.211627 200.09252 
L 168.297428 189.719014 
L 169.383229 191.988218 
L 170.46903 190.940893 
L 171.554831 191.963282 
L 172.640632 197.972933 
L 174.812235 189.045734 
L 175.898036 179.295636 
L 176.983837 184.731752 
L 178.069638 189.27016 
L 179.155439 176.727196 
L 180.24124 178.223374 
L 181.327042 186.876274 
L 182.412843 187.549555 
L 183.498644 188.472198 
L 184.584445 182.088503 
L 185.670246 178.472737 
L 186.756047 185.75414 
L 188.92765 173.285985 
L 190.013451 172.064105 
L 191.099252 173.660029 
L 192.185053 180.791814 
L 193.270854 173.909392 
L 194.356656 163.186779 
L 195.442457 170.268691 
L 196.528258 174.482928 
L 197.614059 167.076843 
L 198.69986 170.144009 
L 199.785661 166.204072 
L 200.871462 165.780155 
L 201.957264 167.401015 
L 203.043065 168.198977 
L 204.128866 170.966908 
L 205.214667 167.525697 
L 206.300468 163.710441 
L 207.386269 165.505855 
L 209.557872 159.770504 
L 210.643673 160.817829 
L 211.729474 159.471268 
L 212.815275 160.892638 
L 213.901076 157.501299 
L 214.986877 159.620886 
L 216.072679 156.453974 
L 217.15848 158.947606 
L 218.244281 158.698242 
L 219.330082 159.12216 
L 220.415883 158.149644 
L 221.501684 158.922669 
L 222.587486 158.523688 
L 223.673287 158.598497 
L 224.759088 158.423943 
L 225.844889 201.613635 
L 226.93069 204.00752 
L 228.016491 203.558667 
L 229.102292 199.81822 
L 230.188094 195.429429 
L 231.273895 208.570865 
L 232.359696 197.72357 
L 233.445497 193.634015 
L 234.531298 211.338796 
L 235.617099 192.337327 
L 236.702901 199.518984 
L 237.788702 191.140384 
L 238.874503 195.35462 
L 239.960304 207.847712 
L 241.046105 189.54446 
L 242.131906 195.35462 
L 243.217708 193.484397 
L 244.303509 192.661499 
L 245.38931 187.225383 
L 246.475111 192.985671 
L 247.560912 192.836053 
L 248.646713 195.105257 
L 249.732514 188.871179 
L 250.818316 207.473668 
L 251.904117 197.474207 
L 252.989918 190.516976 
L 254.075719 187.375001 
L 255.16152 188.671689 
L 256.247321 183.260509 
L 257.333123 198.721022 
L 258.418924 197.848251 
L 259.504725 193.634015 
L 260.590526 187.350064 
L 261.676327 192.736308 
L 262.762128 187.6493 
L 263.847929 188.422326 
L 264.933731 194.606531 
L 266.019532 196.252328 
L 267.105333 185.454905 
L 268.191134 196.327136 
L 269.276935 179.370445 
L 270.362736 185.729204 
L 271.448538 189.993313 
L 272.534339 184.781624 
L 273.62014 190.467103 
L 274.705941 181.465095 
L 275.791742 187.17551 
L 276.877543 196.526627 
L 277.963344 195.529175 
L 279.049146 190.816212 
L 280.134947 185.055924 
L 281.220748 183.584681 
L 282.306549 178.073756 
L 283.39235 193.035543 
L 284.478151 186.851338 
L 285.563953 183.858981 
L 286.649754 182.312929 
L 287.735555 186.003504 
L 288.821356 180.41777 
L 289.907157 196.10271 
L 290.992958 194.731213 
L 292.07876 186.02844 
L 293.164561 181.390286 
L 294.250362 188.945988 
L 295.336163 192.711371 
L 296.421964 186.103249 
L 297.507765 178.747037 
L 298.593566 184.482389 
L 299.679368 183.709363 
L 300.765169 179.245763 
L 301.85097 180.741942 
L 302.936771 186.826402 
L 304.022572 176.752132 
L 305.108373 180.916496 
L 306.194175 177.899202 
L 307.279976 182.362802 
L 308.365777 180.791814 
L 309.451578 176.876814 
L 310.537379 181.240668 
L 311.62318 176.602514 
L 312.708981 176.004043 
L 313.794783 170.842226 
L 314.880584 184.731752 
L 315.966385 171.665124 
L 317.052186 174.283437 
L 318.137987 170.168946 
L 319.223788 171.440698 
L 320.30959 165.057002 
L 321.395391 177.275795 
L 322.481192 169.021875 
L 323.566993 175.505316 
L 324.652794 173.460539 
L 325.738595 165.904836 
L 326.824396 174.208628 
L 327.910198 165.281429 
L 328.995999 170.218818 
L 330.0818 164.907384 
L 331.167601 167.30127 
L 332.253402 165.431047 
L 333.339203 171.266143 
L 334.425005 166.253945 
L 335.510806 178.123629 
L 336.596607 161.840218 
L 337.682408 160.643275 
L 338.768209 170.692608 
L 339.85401 163.835123 
L 340.939811 159.196969 
L 342.025613 169.370984 
L 343.111414 166.752671 
L 344.197215 164.782702 
L 345.283016 161.241746 
L 346.368817 168.348595 
L 347.454618 163.11197 
L 348.54042 165.356238 
L 349.626221 161.266683 
L 350.712022 164.757766 
L 351.797823 159.371523 
L 352.883624 164.25904 
L 353.969425 158.473816 
L 355.055227 161.815281 
L 356.141028 167.002034 
L 357.226829 162.737925 
L 358.31263 151.666203 
L 359.398431 159.994931 
L 360.484232 156.129802 
L 361.570033 155.656012 
L 362.655835 156.429038 
L 363.741636 154.882987 
L 364.827437 153.98528 
L 365.913238 154.159834 
L 366.999039 155.057541 
L 368.08484 158.698242 
L 369.170642 157.526236 
L 370.256443 162.887543 
L 371.342244 157.551172 
L 372.428045 155.182223 
L 373.513846 158.423943 
L 375.685448 171.216271 
L 376.77125 162.039708 
L 377.857051 162.039708 
L 378.942852 158.473816 
L 380.028653 161.441237 
L 381.114454 168.72264 
L 384.371858 160.842765 
L 385.457659 170.094137 
L 386.54346 166.777607 
L 387.629261 162.812734 
L 388.715062 166.977098 
L 389.800863 164.682957 
L 390.886665 166.877353 
L 391.972466 156.179675 
L 393.058267 163.11197 
L 394.144068 168.523149 
L 395.229869 159.59595 
L 396.31567 164.358785 
L 397.401472 165.580664 
L 398.487273 162.338944 
L 398.487273 162.338944 
" clip-path="url(#p12a1687f01)" style="fill: none; stroke: #2ca02c; stroke-width: 1.5; stroke-linecap: square"/>
   </g>
   <g id="line2d_21">
    <path d="M 368.08484 54.941991 
L 369.170642 54.65273 
L 370.256443 59.461697 
L 371.342244 61.848102 
L 372.428045 62.354309 
L 373.513846 60.257166 
L 374.599647 74.50328 
L 375.685448 72.984659 
L 376.77125 60.691057 
L 377.857051 59.317067 
L 378.942852 69.11579 
L 380.028653 70.95983 
L 381.114454 66.114705 
L 382.200255 66.765543 
L 383.286057 61.848102 
L 384.371858 64.885345 
L 385.457659 66.006232 
L 386.54346 63.149778 
L 387.629261 64.162192 
L 388.715062 67.018646 
L 389.800863 65.680813 
L 390.886665 70.417466 
L 391.972466 67.705642 
L 393.058267 76.130375 
L 394.144068 70.706727 
L 395.229869 76.853528 
L 396.31567 85.061315 
L 397.401472 73.780127 
L 398.487273 79.74614 
L 398.487273 79.74614 
" clip-path="url(#p12a1687f01)" style="fill: none; stroke: #d62728; stroke-width: 1.5; stroke-linecap: square"/>
   </g>
   <g id="line2d_22">
    <path d="M 368.08484 156.828019 
L 369.170642 152.189865 
L 370.256443 162.613243 
L 371.342244 163.31146 
L 372.428045 162.812734 
L 373.513846 168.92213 
L 374.599647 176.303278 
L 375.685448 170.941971 
L 376.77125 158.000026 
L 377.857051 160.967447 
L 380.028653 178.846782 
L 381.114454 172.512959 
L 382.200255 176.552641 
L 383.286057 158.199516 
L 384.371858 166.927225 
L 385.457659 168.822385 
L 386.54346 166.977098 
L 387.629261 168.373531 
L 388.715062 165.281429 
L 389.800863 163.810186 
L 390.886665 171.814742 
L 391.972466 169.595411 
L 393.058267 180.791814 
L 395.229869 174.457991 
L 396.31567 188.197899 
L 397.401472 175.505316 
L 398.487273 187.973472 
L 398.487273 187.973472 
" clip-path="url(#p12a1687f01)" style="fill: none; stroke: #9467bd; stroke-width: 1.5; stroke-linecap: square"/>
   </g>
   <g id="patch_3">
    <path d="M 57.6 307.584 
L 57.6 41.472 
" style="fill: none; stroke: #000000; stroke-width: 0.8; stroke-linejoin: miter; stroke-linecap: square"/>
   </g>
   <g id="patch_4">
    <path d="M 414.72 307.584 
L 414.72 41.472 
" style="fill: none; stroke: #000000; stroke-width: 0.8; stroke-linejoin: miter; stroke-linecap: square"/>
   </g>
   <g id="patch_5">
    <path d="M 57.6 307.584 
L 414.72 307.584 
" style="fill: none; stroke: #000000; stroke-width: 0.8; stroke-linejoin: miter; stroke-linecap: square"/>
   </g>
   <g id="patch_6">
    <path d="M 57.6 41.472 
L 414.72 41.472 
" style="fill: none; stroke: #000000; stroke-width: 0.8; stroke-linejoin: miter; stroke-linecap: square"/>
   </g>
   <g id="text_20">
    <!-- Learning Curves -->
    <g transform="translate(187.37625 35.472) scale(0.12 -0.12)">
     <defs>
      <path id="DejaVuSans-4c" d="M 628 4666 
L 1259 4666 
L 1259 531 
L 3531 531 
L 3531 0 
L 628 0 
L 628 4666 
z
" transform="scale(0.015625)"/>
      <path id="DejaVuSans-65" d="M 3597 1894 
L 3597 1613 
L 953 1613 
Q 991 1019 1311 708 
Q 1631 397 2203 397 
Q 2534 397 2845 478 
Q 3156 559 3463 722 
L 3463 178 
Q 3153 47 2828 -22 
Q 2503 -91 2169 -91 
Q 1331 -91 842 396 
Q 353 884 353 1716 
Q 353 2575 817 3079 
Q 1281 3584 2069 3584 
Q 2775 3584 3186 3129 
Q 3597 2675 3597 1894 
z
M 3022 2063 
Q 3016 2534 2758 2815 
Q 2500 3097 2075 3097 
Q 1594 3097 1305 2825 
Q 1016 2553 972 2059 
L 3022 2063 
z
" transform="scale(0.015625)"/>
      <path id="DejaVuSans-6e" d="M 3513 2113 
L 3513 0 
L 2938 0 
L 2938 2094 
Q 2938 2591 2744 2837 
Q 2550 3084 2163 3084 
Q 1697 3084 1428 2787 
Q 1159 2491 1159 1978 
L 1159 0 
L 581 0 
L 581 3500 
L 1159 3500 
L 1159 2956 
Q 1366 3272 1645 3428 
Q 1925 3584 2291 3584 
Q 2894 3584 3203 3211 
Q 3513 2838 3513 2113 
z
" transform="scale(0.015625)"/>
      <path id="DejaVuSans-69" d="M 603 3500 
L 1178 3500 
L 1178 0 
L 603 0 
L 603 3500 
z
M 603 4863 
L 1178 4863 
L 1178 4134 
L 603 4134 
L 603 4863 
z
" transform="scale(0.015625)"/>
      <path id="DejaVuSans-67" d="M 2906 1791 
Q 2906 2416 2648 2759 
Q 2391 3103 1925 3103 
Q 1463 3103 1205 2759 
Q 947 2416 947 1791 
Q 947 1169 1205 825 
Q 1463 481 1925 481 
Q 2391 481 2648 825 
Q 2906 1169 2906 1791 
z
M 3481 434 
Q 3481 -459 3084 -895 
Q 2688 -1331 1869 -1331 
Q 1566 -1331 1297 -1286 
Q 1028 -1241 775 -1147 
L 775 -588 
Q 1028 -725 1275 -790 
Q 1522 -856 1778 -856 
Q 2344 -856 2625 -561 
Q 2906 -266 2906 331 
L 2906 616 
Q 2728 306 2450 153 
Q 2172 0 1784 0 
Q 1141 0 747 490 
Q 353 981 353 1791 
Q 353 2603 747 3093 
Q 1141 3584 1784 3584 
Q 2172 3584 2450 3431 
Q 2728 3278 2906 2969 
L 2906 3500 
L 3481 3500 
L 3481 434 
z
" transform="scale(0.015625)"/>
      <path id="DejaVuSans-20" transform="scale(0.015625)"/>
      <path id="DejaVuSans-43" d="M 4122 4306 
L 4122 3641 
Q 3803 3938 3442 4084 
Q 3081 4231 2675 4231 
Q 1875 4231 1450 3742 
Q 1025 3253 1025 2328 
Q 1025 1406 1450 917 
Q 1875 428 2675 428 
Q 3081 428 3442 575 
Q 3803 722 4122 1019 
L 4122 359 
Q 3791 134 3420 21 
Q 3050 -91 2638 -91 
Q 1578 -91 968 557 
Q 359 1206 359 2328 
Q 359 3453 968 4101 
Q 1578 4750 2638 4750 
Q 3056 4750 3426 4639 
Q 3797 4528 4122 4306 
z
" transform="scale(0.015625)"/>
      <path id="DejaVuSans-76" d="M 191 3500 
L 800 3500 
L 1894 563 
L 2988 3500 
L 3597 3500 
L 2284 0 
L 1503 0 
L 191 3500 
z
" transform="scale(0.015625)"/>
     </defs>
     <use xlink:href="#DejaVuSans-4c"/>
     <use xlink:href="#DejaVuSans-65" x="53.962891"/>
     <use xlink:href="#DejaVuSans-61" x="115.486328"/>
     <use xlink:href="#DejaVuSans-72" x="176.765625"/>
     <use xlink:href="#DejaVuSans-6e" x="216.128906"/>
     <use xlink:href="#DejaVuSans-69" x="279.507812"/>
     <use xlink:href="#DejaVuSans-6e" x="307.291016"/>
     <use xlink:href="#DejaVuSans-67" x="370.669922"/>
     <use xlink:href="#DejaVuSans-20" x="434.146484"/>
     <use xlink:href="#DejaVuSans-43" x="465.933594"/>
     <use xlink:href="#DejaVuSans-75" x="535.757812"/>
     <use xlink:href="#DejaVuSans-72" x="599.136719"/>
     <use xlink:href="#DejaVuSans-76" x="640.25"/>
     <use xlink:href="#DejaVuSans-65" x="699.429688"/>
     <use xlink:href="#DejaVuSans-73" x="760.953125"/>
    </g>
   </g>
   <g id="legend_1">
    <g id="patch_7">
     <path d="M 214.18875 302.584 
L 407.72 302.584 
Q 409.72 302.584 409.72 300.584 
L 409.72 228.193375 
Q 409.72 226.193375 407.72 226.193375 
L 214.18875 226.193375 
Q 212.18875 226.193375 212.18875 228.193375 
L 212.18875 300.584 
Q 212.18875 302.584 214.18875 302.584 
z
" style="fill: #ffffff; opacity: 0.8; stroke: #cccccc; stroke-linejoin: miter"/>
    </g>
    <g id="line2d_23">
     <path d="M 216.18875 234.291812 
L 226.18875 234.291812 
L 236.18875 234.291812 
" style="fill: none; stroke: #1f77b4; stroke-width: 1.5; stroke-linecap: square"/>
    </g>
    <g id="text_21">
     <!-- Train Accuracy -->
     <g transform="translate(244.18875 237.791812) scale(0.1 -0.1)">
      <defs>
       <path id="DejaVuSans-54" d="M -19 4666 
L 3928 4666 
L 3928 4134 
L 2272 4134 
L 2272 0 
L 1638 0 
L 1638 4134 
L -19 4134 
L -19 4666 
z
" transform="scale(0.015625)"/>
      </defs>
      <use xlink:href="#DejaVuSans-54"/>
      <use xlink:href="#DejaVuSans-72" x="46.333984"/>
      <use xlink:href="#DejaVuSans-61" x="87.447266"/>
      <use xlink:href="#DejaVuSans-69" x="148.726562"/>
      <use xlink:href="#DejaVuSans-6e" x="176.509766"/>
      <use xlink:href="#DejaVuSans-20" x="239.888672"/>
      <use xlink:href="#DejaVuSans-41" x="271.675781"/>
      <use xlink:href="#DejaVuSans-63" x="338.333984"/>
      <use xlink:href="#DejaVuSans-63" x="393.314453"/>
      <use xlink:href="#DejaVuSans-75" x="448.294922"/>
      <use xlink:href="#DejaVuSans-72" x="511.673828"/>
      <use xlink:href="#DejaVuSans-61" x="552.787109"/>
      <use xlink:href="#DejaVuSans-63" x="614.066406"/>
      <use xlink:href="#DejaVuSans-79" x="669.046875"/>
     </g>
    </g>
    <g id="line2d_24">
     <path d="M 216.18875 248.969937 
L 226.18875 248.969937 
L 236.18875 248.969937 
" style="fill: none; stroke: #ff7f0e; stroke-width: 1.5; stroke-linecap: square"/>
    </g>
    <g id="text_22">
     <!-- Validation Accuracy -->
     <g transform="translate(244.18875 252.469937) scale(0.1 -0.1)">
      <defs>
       <path id="DejaVuSans-56" d="M 1831 0 
L 50 4666 
L 709 4666 
L 2188 738 
L 3669 4666 
L 4325 4666 
L 2547 0 
L 1831 0 
z
" transform="scale(0.015625)"/>
       <path id="DejaVuSans-6c" d="M 603 4863 
L 1178 4863 
L 1178 0 
L 603 0 
L 603 4863 
z
" transform="scale(0.015625)"/>
       <path id="DejaVuSans-64" d="M 2906 2969 
L 2906 4863 
L 3481 4863 
L 3481 0 
L 2906 0 
L 2906 525 
Q 2725 213 2448 61 
Q 2172 -91 1784 -91 
Q 1150 -91 751 415 
Q 353 922 353 1747 
Q 353 2572 751 3078 
Q 1150 3584 1784 3584 
Q 2172 3584 2448 3432 
Q 2725 3281 2906 2969 
z
M 947 1747 
Q 947 1113 1208 752 
Q 1469 391 1925 391 
Q 2381 391 2643 752 
Q 2906 1113 2906 1747 
Q 2906 2381 2643 2742 
Q 2381 3103 1925 3103 
Q 1469 3103 1208 2742 
Q 947 2381 947 1747 
z
" transform="scale(0.015625)"/>
       <path id="DejaVuSans-74" d="M 1172 4494 
L 1172 3500 
L 2356 3500 
L 2356 3053 
L 1172 3053 
L 1172 1153 
Q 1172 725 1289 603 
Q 1406 481 1766 481 
L 2356 481 
L 2356 0 
L 1766 0 
Q 1100 0 847 248 
Q 594 497 594 1153 
L 594 3053 
L 172 3053 
L 172 3500 
L 594 3500 
L 594 4494 
L 1172 4494 
z
" transform="scale(0.015625)"/>
      </defs>
      <use xlink:href="#DejaVuSans-56"/>
      <use xlink:href="#DejaVuSans-61" x="60.658203"/>
      <use xlink:href="#DejaVuSans-6c" x="121.9375"/>
      <use xlink:href="#DejaVuSans-69" x="149.720703"/>
      <use xlink:href="#DejaVuSans-64" x="177.503906"/>
      <use xlink:href="#DejaVuSans-61" x="240.980469"/>
      <use xlink:href="#DejaVuSans-74" x="302.259766"/>
      <use xlink:href="#DejaVuSans-69" x="341.46875"/>
      <use xlink:href="#DejaVuSans-6f" x="369.251953"/>
      <use xlink:href="#DejaVuSans-6e" x="430.433594"/>
      <use xlink:href="#DejaVuSans-20" x="493.8125"/>
      <use xlink:href="#DejaVuSans-41" x="525.599609"/>
      <use xlink:href="#DejaVuSans-63" x="592.257812"/>
      <use xlink:href="#DejaVuSans-63" x="647.238281"/>
      <use xlink:href="#DejaVuSans-75" x="702.21875"/>
      <use xlink:href="#DejaVuSans-72" x="765.597656"/>
      <use xlink:href="#DejaVuSans-61" x="806.710938"/>
      <use xlink:href="#DejaVuSans-63" x="867.990234"/>
      <use xlink:href="#DejaVuSans-79" x="922.970703"/>
     </g>
    </g>
    <g id="line2d_25">
     <path d="M 216.18875 263.648062 
L 226.18875 263.648062 
L 236.18875 263.648062 
" style="fill: none; stroke: #2ca02c; stroke-width: 1.5; stroke-linecap: square"/>
    </g>
    <g id="text_23">
     <!-- Robust Validation Accuracy -->
     <g transform="translate(244.18875 267.148062) scale(0.1 -0.1)">
      <defs>
       <path id="DejaVuSans-52" d="M 2841 2188 
Q 3044 2119 3236 1894 
Q 3428 1669 3622 1275 
L 4263 0 
L 3584 0 
L 2988 1197 
Q 2756 1666 2539 1819 
Q 2322 1972 1947 1972 
L 1259 1972 
L 1259 0 
L 628 0 
L 628 4666 
L 2053 4666 
Q 2853 4666 3247 4331 
Q 3641 3997 3641 3322 
Q 3641 2881 3436 2590 
Q 3231 2300 2841 2188 
z
M 1259 4147 
L 1259 2491 
L 2053 2491 
Q 2509 2491 2742 2702 
Q 2975 2913 2975 3322 
Q 2975 3731 2742 3939 
Q 2509 4147 2053 4147 
L 1259 4147 
z
" transform="scale(0.015625)"/>
       <path id="DejaVuSans-62" d="M 3116 1747 
Q 3116 2381 2855 2742 
Q 2594 3103 2138 3103 
Q 1681 3103 1420 2742 
Q 1159 2381 1159 1747 
Q 1159 1113 1420 752 
Q 1681 391 2138 391 
Q 2594 391 2855 752 
Q 3116 1113 3116 1747 
z
M 1159 2969 
Q 1341 3281 1617 3432 
Q 1894 3584 2278 3584 
Q 2916 3584 3314 3078 
Q 3713 2572 3713 1747 
Q 3713 922 3314 415 
Q 2916 -91 2278 -91 
Q 1894 -91 1617 61 
Q 1341 213 1159 525 
L 1159 0 
L 581 0 
L 581 4863 
L 1159 4863 
L 1159 2969 
z
" transform="scale(0.015625)"/>
      </defs>
      <use xlink:href="#DejaVuSans-52"/>
      <use xlink:href="#DejaVuSans-6f" x="64.982422"/>
      <use xlink:href="#DejaVuSans-62" x="126.164062"/>
      <use xlink:href="#DejaVuSans-75" x="189.640625"/>
      <use xlink:href="#DejaVuSans-73" x="253.019531"/>
      <use xlink:href="#DejaVuSans-74" x="305.119141"/>
      <use xlink:href="#DejaVuSans-20" x="344.328125"/>
      <use xlink:href="#DejaVuSans-56" x="376.115234"/>
      <use xlink:href="#DejaVuSans-61" x="436.773438"/>
      <use xlink:href="#DejaVuSans-6c" x="498.052734"/>
      <use xlink:href="#DejaVuSans-69" x="525.835938"/>
      <use xlink:href="#DejaVuSans-64" x="553.619141"/>
      <use xlink:href="#DejaVuSans-61" x="617.095703"/>
      <use xlink:href="#DejaVuSans-74" x="678.375"/>
      <use xlink:href="#DejaVuSans-69" x="717.583984"/>
      <use xlink:href="#DejaVuSans-6f" x="745.367188"/>
      <use xlink:href="#DejaVuSans-6e" x="806.548828"/>
      <use xlink:href="#DejaVuSans-20" x="869.927734"/>
      <use xlink:href="#DejaVuSans-41" x="901.714844"/>
      <use xlink:href="#DejaVuSans-63" x="968.373047"/>
      <use xlink:href="#DejaVuSans-63" x="1023.353516"/>
      <use xlink:href="#DejaVuSans-75" x="1078.333984"/>
      <use xlink:href="#DejaVuSans-72" x="1141.712891"/>
      <use xlink:href="#DejaVuSans-61" x="1182.826172"/>
      <use xlink:href="#DejaVuSans-63" x="1244.105469"/>
      <use xlink:href="#DejaVuSans-79" x="1299.085938"/>
     </g>
    </g>
    <g id="line2d_26">
     <path d="M 216.18875 278.326188 
L 226.18875 278.326188 
L 236.18875 278.326188 
" style="fill: none; stroke: #d62728; stroke-width: 1.5; stroke-linecap: square"/>
    </g>
    <g id="text_24">
     <!-- SWA Validation Accuracy -->
     <g transform="translate(244.18875 281.826188) scale(0.1 -0.1)">
      <defs>
       <path id="DejaVuSans-53" d="M 3425 4513 
L 3425 3897 
Q 3066 4069 2747 4153 
Q 2428 4238 2131 4238 
Q 1616 4238 1336 4038 
Q 1056 3838 1056 3469 
Q 1056 3159 1242 3001 
Q 1428 2844 1947 2747 
L 2328 2669 
Q 3034 2534 3370 2195 
Q 3706 1856 3706 1288 
Q 3706 609 3251 259 
Q 2797 -91 1919 -91 
Q 1588 -91 1214 -16 
Q 841 59 441 206 
L 441 856 
Q 825 641 1194 531 
Q 1563 422 1919 422 
Q 2459 422 2753 634 
Q 3047 847 3047 1241 
Q 3047 1584 2836 1778 
Q 2625 1972 2144 2069 
L 1759 2144 
Q 1053 2284 737 2584 
Q 422 2884 422 3419 
Q 422 4038 858 4394 
Q 1294 4750 2059 4750 
Q 2388 4750 2728 4690 
Q 3069 4631 3425 4513 
z
" transform="scale(0.015625)"/>
       <path id="DejaVuSans-57" d="M 213 4666 
L 850 4666 
L 1831 722 
L 2809 4666 
L 3519 4666 
L 4500 722 
L 5478 4666 
L 6119 4666 
L 4947 0 
L 4153 0 
L 3169 4050 
L 2175 0 
L 1381 0 
L 213 4666 
z
" transform="scale(0.015625)"/>
      </defs>
      <use xlink:href="#DejaVuSans-53"/>
      <use xlink:href="#DejaVuSans-57" x="63.476562"/>
      <use xlink:href="#DejaVuSans-41" x="156.853516"/>
      <use xlink:href="#DejaVuSans-20" x="225.261719"/>
      <use xlink:href="#DejaVuSans-56" x="257.048828"/>
      <use xlink:href="#DejaVuSans-61" x="317.707031"/>
      <use xlink:href="#DejaVuSans-6c" x="378.986328"/>
      <use xlink:href="#DejaVuSans-69" x="406.769531"/>
      <use xlink:href="#DejaVuSans-64" x="434.552734"/>
      <use xlink:href="#DejaVuSans-61" x="498.029297"/>
      <use xlink:href="#DejaVuSans-74" x="559.308594"/>
      <use xlink:href="#DejaVuSans-69" x="598.517578"/>
      <use xlink:href="#DejaVuSans-6f" x="626.300781"/>
      <use xlink:href="#DejaVuSans-6e" x="687.482422"/>
      <use xlink:href="#DejaVuSans-20" x="750.861328"/>
      <use xlink:href="#DejaVuSans-41" x="782.648438"/>
      <use xlink:href="#DejaVuSans-63" x="849.306641"/>
      <use xlink:href="#DejaVuSans-63" x="904.287109"/>
      <use xlink:href="#DejaVuSans-75" x="959.267578"/>
      <use xlink:href="#DejaVuSans-72" x="1022.646484"/>
      <use xlink:href="#DejaVuSans-61" x="1063.759766"/>
      <use xlink:href="#DejaVuSans-63" x="1125.039062"/>
      <use xlink:href="#DejaVuSans-79" x="1180.019531"/>
     </g>
    </g>
    <g id="line2d_27">
     <path d="M 216.18875 293.004312 
L 226.18875 293.004312 
L 236.18875 293.004312 
" style="fill: none; stroke: #9467bd; stroke-width: 1.5; stroke-linecap: square"/>
    </g>
    <g id="text_25">
     <!-- SWA Robust Validation Accuracy -->
     <g transform="translate(244.18875 296.504312) scale(0.1 -0.1)">
      <use xlink:href="#DejaVuSans-53"/>
      <use xlink:href="#DejaVuSans-57" x="63.476562"/>
      <use xlink:href="#DejaVuSans-41" x="156.853516"/>
      <use xlink:href="#DejaVuSans-20" x="225.261719"/>
      <use xlink:href="#DejaVuSans-52" x="257.048828"/>
      <use xlink:href="#DejaVuSans-6f" x="322.03125"/>
      <use xlink:href="#DejaVuSans-62" x="383.212891"/>
      <use xlink:href="#DejaVuSans-75" x="446.689453"/>
      <use xlink:href="#DejaVuSans-73" x="510.068359"/>
      <use xlink:href="#DejaVuSans-74" x="562.167969"/>
      <use xlink:href="#DejaVuSans-20" x="601.376953"/>
      <use xlink:href="#DejaVuSans-56" x="633.164062"/>
      <use xlink:href="#DejaVuSans-61" x="693.822266"/>
      <use xlink:href="#DejaVuSans-6c" x="755.101562"/>
      <use xlink:href="#DejaVuSans-69" x="782.884766"/>
      <use xlink:href="#DejaVuSans-64" x="810.667969"/>
      <use xlink:href="#DejaVuSans-61" x="874.144531"/>
      <use xlink:href="#DejaVuSans-74" x="935.423828"/>
      <use xlink:href="#DejaVuSans-69" x="974.632812"/>
      <use xlink:href="#DejaVuSans-6f" x="1002.416016"/>
      <use xlink:href="#DejaVuSans-6e" x="1063.597656"/>
      <use xlink:href="#DejaVuSans-20" x="1126.976562"/>
      <use xlink:href="#DejaVuSans-41" x="1158.763672"/>
      <use xlink:href="#DejaVuSans-63" x="1225.421875"/>
      <use xlink:href="#DejaVuSans-63" x="1280.402344"/>
      <use xlink:href="#DejaVuSans-75" x="1335.382812"/>
      <use xlink:href="#DejaVuSans-72" x="1398.761719"/>
      <use xlink:href="#DejaVuSans-61" x="1439.875"/>
      <use xlink:href="#DejaVuSans-63" x="1501.154297"/>
      <use xlink:href="#DejaVuSans-79" x="1556.134766"/>
     </g>
    </g>
   </g>
  </g>
 </g>
 <defs>
  <clipPath id="p12a1687f01">
   <rect x="57.6" y="41.472" width="357.12" height="266.112"/>
  </clipPath>
 </defs>
</svg>
