<?xml version="1.0" encoding="utf-8" standalone="no"?>
<!DOCTYPE svg PUBLIC "-//W3C//DTD SVG 1.1//EN"
  "http://www.w3.org/Graphics/SVG/1.1/DTD/svg11.dtd">
<svg xmlns:xlink="http://www.w3.org/1999/xlink" width="460.8pt" height="345.6pt" viewBox="0 0 460.8 345.6" xmlns="http://www.w3.org/2000/svg" version="1.1">
 <metadata>
  <rdf:RDF xmlns:dc="http://purl.org/dc/elements/1.1/" xmlns:cc="http://creativecommons.org/ns#" xmlns:rdf="http://www.w3.org/1999/02/22-rdf-syntax-ns#">
   <cc:Work>
    <dc:type rdf:resource="http://purl.org/dc/dcmitype/StillImage"/>
    <dc:date>2025-07-08T03:21:36.680745</dc:date>
    <dc:format>image/svg+xml</dc:format>
    <dc:creator>
     <cc:Agent>
      <dc:title>Matplotlib v3.9.1, https://matplotlib.org/</dc:title>
     </cc:Agent>
    </dc:creator>
   </cc:Work>
  </rdf:RDF>
 </metadata>
 <defs>
  <style type="text/css">*{stroke-linejoin: round; stroke-linecap: butt}</style>
 </defs>
 <g id="figure_1">
  <g id="patch_1">
   <path d="M 0 345.6 
L 460.8 345.6 
L 460.8 0 
L 0 0 
z
" style="fill: #ffffff"/>
  </g>
  <g id="axes_1">
   <g id="patch_2">
    <path d="M 57.6 307.584 
L 414.72 307.584 
L 414.72 41.472 
L 57.6 41.472 
z
" style="fill: #ffffff"/>
   </g>
   <g id="matplotlib.axis_1">
    <g id="xtick_1">
     <g id="line2d_1">
      <defs>
       <path id="m09ee668c46" d="M 0 0 
L 0 3.5 
" style="stroke: #000000; stroke-width: 0.8"/>
      </defs>
      <g>
       <use xlink:href="#m09ee668c46" x="73.832727" y="307.584" style="stroke: #000000; stroke-width: 0.8"/>
      </g>
     </g>
     <g id="text_1">
      <!-- 1 -->
      <g transform="translate(70.651477 322.182437) scale(0.1 -0.1)">
       <defs>
        <path id="DejaVuSans-31" d="M 794 531 
L 1825 531 
L 1825 4091 
L 703 3866 
L 703 4441 
L 1819 4666 
L 2450 4666 
L 2450 531 
L 3481 531 
L 3481 0 
L 794 0 
L 794 531 
z
" transform="scale(0.015625)"/>
       </defs>
       <use xlink:href="#DejaVuSans-31"/>
      </g>
     </g>
    </g>
    <g id="xtick_2">
     <g id="line2d_2">
      <g>
       <use xlink:href="#m09ee668c46" x="109.664165" y="307.584" style="stroke: #000000; stroke-width: 0.8"/>
      </g>
     </g>
     <g id="text_2">
      <!-- 34 -->
      <g transform="translate(103.301665 322.182437) scale(0.1 -0.1)">
       <defs>
        <path id="DejaVuSans-33" d="M 2597 2516 
Q 3050 2419 3304 2112 
Q 3559 1806 3559 1356 
Q 3559 666 3084 287 
Q 2609 -91 1734 -91 
Q 1441 -91 1130 -33 
Q 819 25 488 141 
L 488 750 
Q 750 597 1062 519 
Q 1375 441 1716 441 
Q 2309 441 2620 675 
Q 2931 909 2931 1356 
Q 2931 1769 2642 2001 
Q 2353 2234 1838 2234 
L 1294 2234 
L 1294 2753 
L 1863 2753 
Q 2328 2753 2575 2939 
Q 2822 3125 2822 3475 
Q 2822 3834 2567 4026 
Q 2313 4219 1838 4219 
Q 1578 4219 1281 4162 
Q 984 4106 628 3988 
L 628 4550 
Q 988 4650 1302 4700 
Q 1616 4750 1894 4750 
Q 2613 4750 3031 4423 
Q 3450 4097 3450 3541 
Q 3450 3153 3228 2886 
Q 3006 2619 2597 2516 
z
" transform="scale(0.015625)"/>
        <path id="DejaVuSans-34" d="M 2419 4116 
L 825 1625 
L 2419 1625 
L 2419 4116 
z
M 2253 4666 
L 3047 4666 
L 3047 1625 
L 3713 1625 
L 3713 1100 
L 3047 1100 
L 3047 0 
L 2419 0 
L 2419 1100 
L 313 1100 
L 313 1709 
L 2253 4666 
z
" transform="scale(0.015625)"/>
       </defs>
       <use xlink:href="#DejaVuSans-33"/>
       <use xlink:href="#DejaVuSans-34" x="63.623047"/>
      </g>
     </g>
    </g>
    <g id="xtick_3">
     <g id="line2d_3">
      <g>
       <use xlink:href="#m09ee668c46" x="145.495604" y="307.584" style="stroke: #000000; stroke-width: 0.8"/>
      </g>
     </g>
     <g id="text_3">
      <!-- 67 -->
      <g transform="translate(139.133104 322.182437) scale(0.1 -0.1)">
       <defs>
        <path id="DejaVuSans-36" d="M 2113 2584 
Q 1688 2584 1439 2293 
Q 1191 2003 1191 1497 
Q 1191 994 1439 701 
Q 1688 409 2113 409 
Q 2538 409 2786 701 
Q 3034 994 3034 1497 
Q 3034 2003 2786 2293 
Q 2538 2584 2113 2584 
z
M 3366 4563 
L 3366 3988 
Q 3128 4100 2886 4159 
Q 2644 4219 2406 4219 
Q 1781 4219 1451 3797 
Q 1122 3375 1075 2522 
Q 1259 2794 1537 2939 
Q 1816 3084 2150 3084 
Q 2853 3084 3261 2657 
Q 3669 2231 3669 1497 
Q 3669 778 3244 343 
Q 2819 -91 2113 -91 
Q 1303 -91 875 529 
Q 447 1150 447 2328 
Q 447 3434 972 4092 
Q 1497 4750 2381 4750 
Q 2619 4750 2861 4703 
Q 3103 4656 3366 4563 
z
" transform="scale(0.015625)"/>
        <path id="DejaVuSans-37" d="M 525 4666 
L 3525 4666 
L 3525 4397 
L 1831 0 
L 1172 0 
L 2766 4134 
L 525 4134 
L 525 4666 
z
" transform="scale(0.015625)"/>
       </defs>
       <use xlink:href="#DejaVuSans-36"/>
       <use xlink:href="#DejaVuSans-37" x="63.623047"/>
      </g>
     </g>
    </g>
    <g id="xtick_4">
     <g id="line2d_4">
      <g>
       <use xlink:href="#m09ee668c46" x="181.327042" y="307.584" style="stroke: #000000; stroke-width: 0.8"/>
      </g>
     </g>
     <g id="text_4">
      <!-- 100 -->
      <g transform="translate(171.783292 322.182437) scale(0.1 -0.1)">
       <defs>
        <path id="DejaVuSans-30" d="M 2034 4250 
Q 1547 4250 1301 3770 
Q 1056 3291 1056 2328 
Q 1056 1369 1301 889 
Q 1547 409 2034 409 
Q 2525 409 2770 889 
Q 3016 1369 3016 2328 
Q 3016 3291 2770 3770 
Q 2525 4250 2034 4250 
z
M 2034 4750 
Q 2819 4750 3233 4129 
Q 3647 3509 3647 2328 
Q 3647 1150 3233 529 
Q 2819 -91 2034 -91 
Q 1250 -91 836 529 
Q 422 1150 422 2328 
Q 422 3509 836 4129 
Q 1250 4750 2034 4750 
z
" transform="scale(0.015625)"/>
       </defs>
       <use xlink:href="#DejaVuSans-31"/>
       <use xlink:href="#DejaVuSans-30" x="63.623047"/>
       <use xlink:href="#DejaVuSans-30" x="127.246094"/>
      </g>
     </g>
    </g>
    <g id="xtick_5">
     <g id="line2d_5">
      <g>
       <use xlink:href="#m09ee668c46" x="217.15848" y="307.584" style="stroke: #000000; stroke-width: 0.8"/>
      </g>
     </g>
     <g id="text_5">
      <!-- 133 -->
      <g transform="translate(207.61473 322.182437) scale(0.1 -0.1)">
       <use xlink:href="#DejaVuSans-31"/>
       <use xlink:href="#DejaVuSans-33" x="63.623047"/>
       <use xlink:href="#DejaVuSans-33" x="127.246094"/>
      </g>
     </g>
    </g>
    <g id="xtick_6">
     <g id="line2d_6">
      <g>
       <use xlink:href="#m09ee668c46" x="254.075719" y="307.584" style="stroke: #000000; stroke-width: 0.8"/>
      </g>
     </g>
     <g id="text_6">
      <!-- 167 -->
      <g transform="translate(244.531969 322.182437) scale(0.1 -0.1)">
       <use xlink:href="#DejaVuSans-31"/>
       <use xlink:href="#DejaVuSans-36" x="63.623047"/>
       <use xlink:href="#DejaVuSans-37" x="127.246094"/>
      </g>
     </g>
    </g>
    <g id="xtick_7">
     <g id="line2d_7">
      <g>
       <use xlink:href="#m09ee668c46" x="289.907157" y="307.584" style="stroke: #000000; stroke-width: 0.8"/>
      </g>
     </g>
     <g id="text_7">
      <!-- 200 -->
      <g transform="translate(280.363407 322.182437) scale(0.1 -0.1)">
       <defs>
        <path id="DejaVuSans-32" d="M 1228 531 
L 3431 531 
L 3431 0 
L 469 0 
L 469 531 
Q 828 903 1448 1529 
Q 2069 2156 2228 2338 
Q 2531 2678 2651 2914 
Q 2772 3150 2772 3378 
Q 2772 3750 2511 3984 
Q 2250 4219 1831 4219 
Q 1534 4219 1204 4116 
Q 875 4013 500 3803 
L 500 4441 
Q 881 4594 1212 4672 
Q 1544 4750 1819 4750 
Q 2544 4750 2975 4387 
Q 3406 4025 3406 3419 
Q 3406 3131 3298 2873 
Q 3191 2616 2906 2266 
Q 2828 2175 2409 1742 
Q 1991 1309 1228 531 
z
" transform="scale(0.015625)"/>
       </defs>
       <use xlink:href="#DejaVuSans-32"/>
       <use xlink:href="#DejaVuSans-30" x="63.623047"/>
       <use xlink:href="#DejaVuSans-30" x="127.246094"/>
      </g>
     </g>
    </g>
    <g id="xtick_8">
     <g id="line2d_8">
      <g>
       <use xlink:href="#m09ee668c46" x="325.738595" y="307.584" style="stroke: #000000; stroke-width: 0.8"/>
      </g>
     </g>
     <g id="text_8">
      <!-- 233 -->
      <g transform="translate(316.194845 322.182437) scale(0.1 -0.1)">
       <use xlink:href="#DejaVuSans-32"/>
       <use xlink:href="#DejaVuSans-33" x="63.623047"/>
       <use xlink:href="#DejaVuSans-33" x="127.246094"/>
      </g>
     </g>
    </g>
    <g id="xtick_9">
     <g id="line2d_9">
      <g>
       <use xlink:href="#m09ee668c46" x="361.570033" y="307.584" style="stroke: #000000; stroke-width: 0.8"/>
      </g>
     </g>
     <g id="text_9">
      <!-- 266 -->
      <g transform="translate(352.026283 322.182437) scale(0.1 -0.1)">
       <use xlink:href="#DejaVuSans-32"/>
       <use xlink:href="#DejaVuSans-36" x="63.623047"/>
       <use xlink:href="#DejaVuSans-36" x="127.246094"/>
      </g>
     </g>
    </g>
    <g id="xtick_10">
     <g id="line2d_10">
      <g>
       <use xlink:href="#m09ee668c46" x="398.487273" y="307.584" style="stroke: #000000; stroke-width: 0.8"/>
      </g>
     </g>
     <g id="text_10">
      <!-- 300 -->
      <g transform="translate(388.943523 322.182437) scale(0.1 -0.1)">
       <use xlink:href="#DejaVuSans-33"/>
       <use xlink:href="#DejaVuSans-30" x="63.623047"/>
       <use xlink:href="#DejaVuSans-30" x="127.246094"/>
      </g>
     </g>
    </g>
    <g id="text_11">
     <!-- Epochs -->
     <g transform="translate(218.244375 335.860562) scale(0.1 -0.1)">
      <defs>
       <path id="DejaVuSans-45" d="M 628 4666 
L 3578 4666 
L 3578 4134 
L 1259 4134 
L 1259 2753 
L 3481 2753 
L 3481 2222 
L 1259 2222 
L 1259 531 
L 3634 531 
L 3634 0 
L 628 0 
L 628 4666 
z
" transform="scale(0.015625)"/>
       <path id="DejaVuSans-70" d="M 1159 525 
L 1159 -1331 
L 581 -1331 
L 581 3500 
L 1159 3500 
L 1159 2969 
Q 1341 3281 1617 3432 
Q 1894 3584 2278 3584 
Q 2916 3584 3314 3078 
Q 3713 2572 3713 1747 
Q 3713 922 3314 415 
Q 2916 -91 2278 -91 
Q 1894 -91 1617 61 
Q 1341 213 1159 525 
z
M 3116 1747 
Q 3116 2381 2855 2742 
Q 2594 3103 2138 3103 
Q 1681 3103 1420 2742 
Q 1159 2381 1159 1747 
Q 1159 1113 1420 752 
Q 1681 391 2138 391 
Q 2594 391 2855 752 
Q 3116 1113 3116 1747 
z
" transform="scale(0.015625)"/>
       <path id="DejaVuSans-6f" d="M 1959 3097 
Q 1497 3097 1228 2736 
Q 959 2375 959 1747 
Q 959 1119 1226 758 
Q 1494 397 1959 397 
Q 2419 397 2687 759 
Q 2956 1122 2956 1747 
Q 2956 2369 2687 2733 
Q 2419 3097 1959 3097 
z
M 1959 3584 
Q 2709 3584 3137 3096 
Q 3566 2609 3566 1747 
Q 3566 888 3137 398 
Q 2709 -91 1959 -91 
Q 1206 -91 779 398 
Q 353 888 353 1747 
Q 353 2609 779 3096 
Q 1206 3584 1959 3584 
z
" transform="scale(0.015625)"/>
       <path id="DejaVuSans-63" d="M 3122 3366 
L 3122 2828 
Q 2878 2963 2633 3030 
Q 2388 3097 2138 3097 
Q 1578 3097 1268 2742 
Q 959 2388 959 1747 
Q 959 1106 1268 751 
Q 1578 397 2138 397 
Q 2388 397 2633 464 
Q 2878 531 3122 666 
L 3122 134 
Q 2881 22 2623 -34 
Q 2366 -91 2075 -91 
Q 1284 -91 818 406 
Q 353 903 353 1747 
Q 353 2603 823 3093 
Q 1294 3584 2113 3584 
Q 2378 3584 2631 3529 
Q 2884 3475 3122 3366 
z
" transform="scale(0.015625)"/>
       <path id="DejaVuSans-68" d="M 3513 2113 
L 3513 0 
L 2938 0 
L 2938 2094 
Q 2938 2591 2744 2837 
Q 2550 3084 2163 3084 
Q 1697 3084 1428 2787 
Q 1159 2491 1159 1978 
L 1159 0 
L 581 0 
L 581 4863 
L 1159 4863 
L 1159 2956 
Q 1366 3272 1645 3428 
Q 1925 3584 2291 3584 
Q 2894 3584 3203 3211 
Q 3513 2838 3513 2113 
z
" transform="scale(0.015625)"/>
       <path id="DejaVuSans-73" d="M 2834 3397 
L 2834 2853 
Q 2591 2978 2328 3040 
Q 2066 3103 1784 3103 
Q 1356 3103 1142 2972 
Q 928 2841 928 2578 
Q 928 2378 1081 2264 
Q 1234 2150 1697 2047 
L 1894 2003 
Q 2506 1872 2764 1633 
Q 3022 1394 3022 966 
Q 3022 478 2636 193 
Q 2250 -91 1575 -91 
Q 1294 -91 989 -36 
Q 684 19 347 128 
L 347 722 
Q 666 556 975 473 
Q 1284 391 1588 391 
Q 1994 391 2212 530 
Q 2431 669 2431 922 
Q 2431 1156 2273 1281 
Q 2116 1406 1581 1522 
L 1381 1569 
Q 847 1681 609 1914 
Q 372 2147 372 2553 
Q 372 3047 722 3315 
Q 1072 3584 1716 3584 
Q 2034 3584 2315 3537 
Q 2597 3491 2834 3397 
z
" transform="scale(0.015625)"/>
      </defs>
      <use xlink:href="#DejaVuSans-45"/>
      <use xlink:href="#DejaVuSans-70" x="63.183594"/>
      <use xlink:href="#DejaVuSans-6f" x="126.660156"/>
      <use xlink:href="#DejaVuSans-63" x="187.841797"/>
      <use xlink:href="#DejaVuSans-68" x="242.822266"/>
      <use xlink:href="#DejaVuSans-73" x="306.201172"/>
     </g>
    </g>
   </g>
   <g id="matplotlib.axis_2">
    <g id="ytick_1">
     <g id="line2d_11">
      <defs>
       <path id="m14ff63a034" d="M 0 0 
L -3.5 0 
" style="stroke: #000000; stroke-width: 0.8"/>
      </defs>
      <g>
       <use xlink:href="#m14ff63a034" x="57.6" y="271.834258" style="stroke: #000000; stroke-width: 0.8"/>
      </g>
     </g>
     <g id="text_12">
      <!-- 10 -->
      <g transform="translate(37.875 275.633477) scale(0.1 -0.1)">
       <use xlink:href="#DejaVuSans-31"/>
       <use xlink:href="#DejaVuSans-30" x="63.623047"/>
      </g>
     </g>
    </g>
    <g id="ytick_2">
     <g id="line2d_12">
      <g>
       <use xlink:href="#m14ff63a034" x="57.6" y="235.920436" style="stroke: #000000; stroke-width: 0.8"/>
      </g>
     </g>
     <g id="text_13">
      <!-- 20 -->
      <g transform="translate(37.875 239.719654) scale(0.1 -0.1)">
       <use xlink:href="#DejaVuSans-32"/>
       <use xlink:href="#DejaVuSans-30" x="63.623047"/>
      </g>
     </g>
    </g>
    <g id="ytick_3">
     <g id="line2d_13">
      <g>
       <use xlink:href="#m14ff63a034" x="57.6" y="200.006613" style="stroke: #000000; stroke-width: 0.8"/>
      </g>
     </g>
     <g id="text_14">
      <!-- 30 -->
      <g transform="translate(37.875 203.805831) scale(0.1 -0.1)">
       <use xlink:href="#DejaVuSans-33"/>
       <use xlink:href="#DejaVuSans-30" x="63.623047"/>
      </g>
     </g>
    </g>
    <g id="ytick_4">
     <g id="line2d_14">
      <g>
       <use xlink:href="#m14ff63a034" x="57.6" y="164.09279" style="stroke: #000000; stroke-width: 0.8"/>
      </g>
     </g>
     <g id="text_15">
      <!-- 40 -->
      <g transform="translate(37.875 167.892009) scale(0.1 -0.1)">
       <use xlink:href="#DejaVuSans-34"/>
       <use xlink:href="#DejaVuSans-30" x="63.623047"/>
      </g>
     </g>
    </g>
    <g id="ytick_5">
     <g id="line2d_15">
      <g>
       <use xlink:href="#m14ff63a034" x="57.6" y="128.178967" style="stroke: #000000; stroke-width: 0.8"/>
      </g>
     </g>
     <g id="text_16">
      <!-- 50 -->
      <g transform="translate(37.875 131.978186) scale(0.1 -0.1)">
       <defs>
        <path id="DejaVuSans-35" d="M 691 4666 
L 3169 4666 
L 3169 4134 
L 1269 4134 
L 1269 2991 
Q 1406 3038 1543 3061 
Q 1681 3084 1819 3084 
Q 2600 3084 3056 2656 
Q 3513 2228 3513 1497 
Q 3513 744 3044 326 
Q 2575 -91 1722 -91 
Q 1428 -91 1123 -41 
Q 819 9 494 109 
L 494 744 
Q 775 591 1075 516 
Q 1375 441 1709 441 
Q 2250 441 2565 725 
Q 2881 1009 2881 1497 
Q 2881 1984 2565 2268 
Q 2250 2553 1709 2553 
Q 1456 2553 1204 2497 
Q 953 2441 691 2322 
L 691 4666 
z
" transform="scale(0.015625)"/>
       </defs>
       <use xlink:href="#DejaVuSans-35"/>
       <use xlink:href="#DejaVuSans-30" x="63.623047"/>
      </g>
     </g>
    </g>
    <g id="ytick_6">
     <g id="line2d_16">
      <g>
       <use xlink:href="#m14ff63a034" x="57.6" y="92.265144" style="stroke: #000000; stroke-width: 0.8"/>
      </g>
     </g>
     <g id="text_17">
      <!-- 60 -->
      <g transform="translate(37.875 96.064363) scale(0.1 -0.1)">
       <use xlink:href="#DejaVuSans-36"/>
       <use xlink:href="#DejaVuSans-30" x="63.623047"/>
      </g>
     </g>
    </g>
    <g id="ytick_7">
     <g id="line2d_17">
      <g>
       <use xlink:href="#m14ff63a034" x="57.6" y="56.351321" style="stroke: #000000; stroke-width: 0.8"/>
      </g>
     </g>
     <g id="text_18">
      <!-- 70 -->
      <g transform="translate(37.875 60.15054) scale(0.1 -0.1)">
       <use xlink:href="#DejaVuSans-37"/>
       <use xlink:href="#DejaVuSans-30" x="63.623047"/>
      </g>
     </g>
    </g>
    <g id="text_19">
     <!-- Accuracy -->
     <g transform="translate(31.795312 197.356125) rotate(-90) scale(0.1 -0.1)">
      <defs>
       <path id="DejaVuSans-41" d="M 2188 4044 
L 1331 1722 
L 3047 1722 
L 2188 4044 
z
M 1831 4666 
L 2547 4666 
L 4325 0 
L 3669 0 
L 3244 1197 
L 1141 1197 
L 716 0 
L 50 0 
L 1831 4666 
z
" transform="scale(0.015625)"/>
       <path id="DejaVuSans-75" d="M 544 1381 
L 544 3500 
L 1119 3500 
L 1119 1403 
Q 1119 906 1312 657 
Q 1506 409 1894 409 
Q 2359 409 2629 706 
Q 2900 1003 2900 1516 
L 2900 3500 
L 3475 3500 
L 3475 0 
L 2900 0 
L 2900 538 
Q 2691 219 2414 64 
Q 2138 -91 1772 -91 
Q 1169 -91 856 284 
Q 544 659 544 1381 
z
M 1991 3584 
L 1991 3584 
z
" transform="scale(0.015625)"/>
       <path id="DejaVuSans-72" d="M 2631 2963 
Q 2534 3019 2420 3045 
Q 2306 3072 2169 3072 
Q 1681 3072 1420 2755 
Q 1159 2438 1159 1844 
L 1159 0 
L 581 0 
L 581 3500 
L 1159 3500 
L 1159 2956 
Q 1341 3275 1631 3429 
Q 1922 3584 2338 3584 
Q 2397 3584 2469 3576 
Q 2541 3569 2628 3553 
L 2631 2963 
z
" transform="scale(0.015625)"/>
       <path id="DejaVuSans-61" d="M 2194 1759 
Q 1497 1759 1228 1600 
Q 959 1441 959 1056 
Q 959 750 1161 570 
Q 1363 391 1709 391 
Q 2188 391 2477 730 
Q 2766 1069 2766 1631 
L 2766 1759 
L 2194 1759 
z
M 3341 1997 
L 3341 0 
L 2766 0 
L 2766 531 
Q 2569 213 2275 61 
Q 1981 -91 1556 -91 
Q 1019 -91 701 211 
Q 384 513 384 1019 
Q 384 1609 779 1909 
Q 1175 2209 1959 2209 
L 2766 2209 
L 2766 2266 
Q 2766 2663 2505 2880 
Q 2244 3097 1772 3097 
Q 1472 3097 1187 3025 
Q 903 2953 641 2809 
L 641 3341 
Q 956 3463 1253 3523 
Q 1550 3584 1831 3584 
Q 2591 3584 2966 3190 
Q 3341 2797 3341 1997 
z
" transform="scale(0.015625)"/>
       <path id="DejaVuSans-79" d="M 2059 -325 
Q 1816 -950 1584 -1140 
Q 1353 -1331 966 -1331 
L 506 -1331 
L 506 -850 
L 844 -850 
Q 1081 -850 1212 -737 
Q 1344 -625 1503 -206 
L 1606 56 
L 191 3500 
L 800 3500 
L 1894 763 
L 2988 3500 
L 3597 3500 
L 2059 -325 
z
" transform="scale(0.015625)"/>
      </defs>
      <use xlink:href="#DejaVuSans-41"/>
      <use xlink:href="#DejaVuSans-63" x="66.658203"/>
      <use xlink:href="#DejaVuSans-63" x="121.638672"/>
      <use xlink:href="#DejaVuSans-75" x="176.619141"/>
      <use xlink:href="#DejaVuSans-72" x="239.998047"/>
      <use xlink:href="#DejaVuSans-61" x="281.111328"/>
      <use xlink:href="#DejaVuSans-63" x="342.390625"/>
      <use xlink:href="#DejaVuSans-79" x="397.371094"/>
     </g>
    </g>
   </g>
   <g id="line2d_18">
    <path d="M 73.832727 295.488 
L 74.918528 278.348128 
L 76.00433 263.556122 
L 78.175932 239.969719 
L 81.433335 215.193671 
L 82.519137 209.815576 
L 83.604938 203.378023 
L 84.690739 197.75302 
L 85.77654 191.257108 
L 86.862341 186.318957 
L 87.948142 183.531146 
L 89.033943 179.050897 
L 91.205546 172.339501 
L 92.291347 171.333914 
L 93.377148 167.827827 
L 94.462949 166.292511 
L 95.54875 196.311978 
L 96.634552 193.618441 
L 97.720353 191.970895 
L 99.891955 183.746629 
L 100.977756 180.797207 
L 102.063557 178.844393 
L 103.149358 175.185672 
L 105.320961 170.076931 
L 106.406762 169.506799 
L 107.492563 164.941254 
L 108.578364 162.862741 
L 109.664165 161.120921 
L 110.749967 158.167009 
L 111.835768 155.783229 
L 112.921569 154.041409 
L 114.00737 152.048192 
L 115.093171 149.080812 
L 116.178972 148.007886 
L 119.436376 141.363829 
L 121.607978 138.198924 
L 122.693779 134.84996 
L 123.77958 133.341579 
L 124.865382 130.504387 
L 125.951183 129.377591 
L 127.036984 127.209294 
L 128.122785 126.239621 
L 129.208586 123.020844 
L 130.294387 122.181359 
L 131.380189 122.266654 
L 132.46599 120.690935 
L 133.551791 119.694326 
L 134.637592 119.510268 
L 135.723393 119.519246 
L 136.809194 116.852645 
L 137.894995 117.535008 
L 138.980797 152.914612 
L 140.066598 154.665411 
L 141.152399 155.419602 
L 142.2382 153.965092 
L 143.324001 153.695738 
L 144.409802 152.084105 
L 145.495604 151.792306 
L 146.581405 149.888873 
L 147.667206 149.826024 
L 148.753007 148.052779 
L 149.838808 146.575823 
L 150.924609 147.558964 
L 152.01041 144.551181 
L 153.096212 144.358144 
L 154.182013 142.566942 
L 155.267814 142.652238 
L 156.353615 140.870014 
L 157.439416 140.344774 
L 159.611019 138.638868 
L 160.69682 137.354949 
L 161.782621 135.653531 
L 162.868422 136.76686 
L 163.954223 134.14964 
L 165.040024 133.583997 
L 166.125825 133.920689 
L 167.211627 132.340481 
L 168.297428 130.104846 
L 169.383229 129.983637 
L 170.46903 129.359634 
L 171.554831 127.801872 
L 172.640632 126.836688 
L 173.726434 126.4147 
L 174.812235 124.978148 
L 175.898036 123.896244 
L 176.983837 123.204903 
L 178.069638 121.871602 
L 179.155439 119.950212 
L 180.24124 120.421581 
L 181.327042 118.908711 
L 183.498644 117.772937 
L 184.584445 117.207294 
L 185.670246 115.963778 
L 186.756047 115.227545 
L 188.92765 111.775328 
L 191.099252 110.841569 
L 192.185053 109.678859 
L 193.270854 107.865211 
L 194.356656 106.949408 
L 195.442457 106.626184 
L 196.528258 103.537595 
L 197.614059 103.340069 
L 198.69986 103.780014 
L 199.785661 102.002279 
L 200.871462 101.180751 
L 201.957264 99.0349 
L 203.043065 97.935039 
L 204.128866 97.715067 
L 205.214667 97.023726 
L 206.300468 96.933941 
L 207.386269 95.510856 
L 208.472071 95.178653 
L 209.557872 94.568118 
L 210.643673 91.946409 
L 211.729474 93.360516 
L 212.815275 90.936333 
L 213.901076 91.259557 
L 214.986877 90.384158 
L 216.072679 89.3247 
L 217.15848 90.227035 
L 218.244281 89.351635 
L 219.330082 88.139544 
L 220.415883 88.601934 
L 222.587486 88.040781 
L 223.673287 89.234915 
L 224.759088 89.284297 
L 225.844889 133.408917 
L 226.93069 137.004789 
L 228.016491 137.46269 
L 229.102292 136.982343 
L 230.188094 135.8331 
L 231.273895 136.493017 
L 232.359696 134.782621 
L 233.445497 134.302274 
L 234.531298 135.123802 
L 235.617099 132.793893 
L 236.702901 133.364025 
L 237.788702 131.931961 
L 238.874503 132.910613 
L 241.046105 131.231642 
L 242.131906 131.82422 
L 243.217708 131.608737 
L 244.303509 129.584095 
L 245.38931 129.96119 
L 247.560912 127.981441 
L 248.646713 128.093672 
L 249.732514 126.863623 
L 250.818316 128.174478 
L 251.904117 124.951212 
L 252.989918 127.357438 
L 254.075719 126.410211 
L 255.16152 126.540399 
L 256.247321 125.346264 
L 257.333123 125.597661 
L 258.418924 125.3732 
L 259.504725 123.51017 
L 260.590526 124.228446 
L 261.676327 123.478745 
L 262.762128 123.357536 
L 263.847929 121.319427 
L 264.933731 122.356438 
L 266.019532 122.316035 
L 267.105333 121.570824 
L 268.191134 121.099455 
L 269.276935 121.229642 
L 270.362736 119.505779 
L 271.448538 118.863819 
L 273.62014 118.648336 
L 274.705941 118.365515 
L 275.791742 117.499094 
L 276.877543 118.473256 
L 277.963344 117.099553 
L 279.049146 117.472159 
L 280.134947 115.83808 
L 281.220748 116.058052 
L 282.306549 115.730338 
L 283.39235 115.707892 
L 284.478151 114.967169 
L 285.563953 113.265752 
L 286.649754 115.613618 
L 287.735555 114.518247 
L 288.821356 113.04578 
L 289.907157 113.306155 
L 290.992958 113.386961 
L 292.07876 112.022236 
L 293.164561 111.519442 
L 294.250362 111.568824 
L 295.336163 111.281513 
L 296.421964 111.568824 
L 297.507765 111.577802 
L 298.593566 109.889853 
L 299.679368 109.530714 
L 300.765169 107.98642 
L 301.85097 109.467865 
L 302.936771 108.86182 
L 304.022572 106.82371 
L 305.108373 107.470159 
L 306.194175 105.854037 
L 307.279976 105.557748 
L 308.365777 107.052661 
L 309.451578 104.157109 
L 310.537379 104.592564 
L 312.708981 103.528617 
L 313.794783 102.720556 
L 314.880584 103.003377 
L 315.966385 102.994399 
L 317.052186 101.53091 
L 318.137987 101.47255 
L 319.223788 100.758763 
L 320.30959 100.570216 
L 321.395391 100.02253 
L 322.481192 99.96417 
L 323.566993 97.634261 
L 324.652794 97.903614 
L 325.738595 99.874385 
L 326.824396 96.489508 
L 327.910198 96.368298 
L 328.995999 96.59276 
L 330.0818 94.779112 
L 331.167601 95.78021 
L 332.253402 94.370592 
L 333.339203 94.029411 
L 334.425005 93.225839 
L 335.510806 92.776916 
L 336.596607 92.655707 
L 337.682408 91.712969 
L 338.768209 91.205686 
L 339.85401 89.67486 
L 340.939811 89.014943 
L 342.025613 89.603032 
L 344.197215 89.037389 
L 345.283016 87.05764 
L 346.368817 86.905006 
L 347.454618 85.724339 
L 348.54042 85.975736 
L 349.626221 85.360712 
L 350.712022 85.998182 
L 351.797823 84.067814 
L 352.883624 84.004965 
L 353.969425 83.152012 
L 355.055227 82.083575 
L 356.141028 81.248579 
L 357.226829 80.95229 
L 358.31263 80.476432 
L 359.398431 81.145327 
L 360.484232 80.25197 
L 361.570033 77.688621 
L 362.655835 78.671762 
L 363.741636 79.165577 
L 364.827437 77.468649 
L 365.913238 77.589858 
L 366.999039 76.292471 
L 368.08484 77.495584 
L 369.170642 79.677349 
L 371.342244 81.971345 
L 372.428045 84.835472 
L 373.513846 84.220448 
L 375.685448 84.417974 
L 376.77125 85.437029 
L 378.942852 84.84445 
L 380.028653 86.469551 
L 381.114454 84.422463 
L 382.200255 85.297862 
L 383.286057 85.095847 
L 384.371858 84.763644 
L 385.457659 85.616598 
L 386.54346 84.593054 
L 387.629261 85.163186 
L 388.715062 84.579586 
L 389.800863 84.193512 
L 390.886665 85.086869 
L 391.972466 84.884854 
L 394.144068 85.926354 
L 395.229869 85.562727 
L 396.31567 86.388745 
L 397.401472 86.402213 
L 398.487273 84.453888 
L 398.487273 84.453888 
" clip-path="url(#p2080ed2b1b)" style="fill: none; stroke: #1f77b4; stroke-width: 1.5; stroke-linecap: square"/>
   </g>
   <g id="line2d_19">
    <path d="M 73.832727 278.873368 
L 74.918528 266.285573 
L 76.00433 239.565689 
L 77.090131 223.063287 
L 78.175932 215.413643 
L 79.261733 206.489058 
L 80.347534 199.934785 
L 81.433335 187.34699 
L 82.519137 180.110355 
L 83.604938 175.046506 
L 84.690739 167.756 
L 85.77654 162.602366 
L 86.862341 159.603562 
L 87.948142 151.720478 
L 89.033943 147.033724 
L 90.119745 145.974266 
L 91.205546 142.58041 
L 93.377148 140.210098 
L 94.462949 140.012572 
L 95.54875 179.805087 
L 96.634552 162.907634 
L 97.720353 158.041311 
L 98.806154 156.838198 
L 99.891955 154.539713 
L 100.977756 149.763175 
L 102.063557 146.836198 
L 103.149358 147.033724 
L 104.23516 141.987832 
L 105.320961 137.480647 
L 106.406762 135.469473 
L 107.492563 134.122705 
L 108.578364 129.561649 
L 109.664165 127.855743 
L 110.749967 127.281121 
L 111.835768 125.018551 
L 112.921569 125.216077 
L 116.178972 111.514953 
L 117.264773 113.579998 
L 118.350575 107.672174 
L 119.436376 106.900027 
L 121.607978 102.69811 
L 122.693779 101.620695 
L 123.77958 101.836178 
L 124.865382 98.550063 
L 125.951183 98.190925 
L 127.036984 96.700501 
L 128.122785 93.252774 
L 129.208586 91.097945 
L 130.294387 92.031704 
L 131.380189 89.49978 
L 133.551791 88.925159 
L 134.637592 88.224839 
L 135.723393 86.734415 
L 136.809194 87.165381 
L 137.894995 87.452692 
L 138.980797 125.808655 
L 140.066598 121.82222 
L 141.152399 118.428364 
L 142.2382 120.026529 
L 143.324001 125.611129 
L 144.409802 119.721262 
L 145.495604 114.854939 
L 146.581405 121.265556 
L 147.667206 117.17138 
L 148.753007 114.513757 
L 149.838808 118.087183 
L 150.924609 111.101944 
L 152.01041 110.670978 
L 153.096212 118.069226 
L 154.182013 110.868504 
L 155.267814 112.035704 
L 156.353615 108.929158 
L 157.439416 108.695718 
L 158.525217 108.965072 
L 159.611019 106.576803 
L 160.69682 107.959485 
L 161.782621 104.547672 
L 162.868422 105.158207 
L 163.954223 102.662196 
L 165.040024 99.160598 
L 166.125825 104.637456 
L 167.211627 98.819417 
L 168.297428 97.203295 
L 169.383229 97.149424 
L 170.46903 95.820613 
L 171.554831 94.132663 
L 172.640632 94.15062 
L 173.726434 91.349342 
L 174.812235 95.461474 
L 175.898036 96.233622 
L 176.983837 93.019334 
L 178.069638 88.063227 
L 179.155439 89.607521 
L 180.24124 86.231622 
L 181.327042 90.002573 
L 182.412843 86.30345 
L 183.498644 85.728828 
L 184.584445 83.250775 
L 185.670246 83.556042 
L 186.756047 81.975834 
L 187.841849 82.64024 
L 188.92765 80.790678 
L 190.013451 80.736807 
L 191.099252 79.838961 
L 192.185053 80.611109 
L 193.270854 78.330581 
L 194.356656 78.492193 
L 195.442457 75.726829 
L 196.528258 75.439518 
L 197.614059 72.907594 
L 198.69986 71.812222 
L 199.785661 73.176947 
L 200.871462 71.991791 
L 201.957264 69.531694 
L 203.043065 70.573195 
L 204.128866 68.867289 
L 205.214667 68.939116 
L 206.300468 66.317407 
L 207.386269 67.484606 
L 208.472071 66.586761 
L 209.557872 65.940312 
L 210.643673 64.449888 
L 211.729474 65.401605 
L 212.815275 65.365691 
L 213.901076 64.144621 
L 214.986877 63.480215 
L 216.072679 63.534086 
L 217.15848 62.133447 
L 218.244281 62.905594 
L 219.330082 62.726025 
L 220.415883 61.792265 
L 222.587486 62.654197 
L 224.759088 61.18173 
L 225.844889 111.99979 
L 226.93069 108.821416 
L 228.016491 108.516149 
L 229.102292 106.253578 
L 230.188094 106.522932 
L 231.273895 105.625086 
L 232.359696 109.862917 
L 233.445497 107.40282 
L 234.531298 106.18175 
L 235.617099 100.794677 
L 236.702901 104.709284 
L 237.788702 99.896831 
L 238.874503 103.488214 
L 239.960304 102.841765 
L 241.046105 99.986616 
L 242.131906 101.854135 
L 243.217708 99.358124 
L 244.303509 103.147032 
L 245.38931 99.106727 
L 246.475111 101.782307 
L 247.560912 98.998986 
L 248.646713 104.421973 
L 249.732514 97.706088 
L 250.818316 98.424365 
L 251.904117 98.693718 
L 252.989918 94.958681 
L 254.075719 93.755568 
L 255.16152 98.927158 
L 256.247321 96.269535 
L 257.333123 98.819417 
L 258.418924 98.10114 
L 259.504725 101.979833 
L 260.590526 94.473844 
L 261.676327 95.425561 
L 262.762128 96.898027 
L 263.847929 93.881266 
L 264.933731 100.30984 
L 266.019532 91.457083 
L 267.105333 90.684936 
L 268.191134 88.332581 
L 269.276935 91.923963 
L 270.362736 92.17536 
L 271.448538 91.062031 
L 272.534339 94.024921 
L 273.62014 88.260753 
L 274.705941 90.864505 
L 275.791742 90.631065 
L 276.877543 93.306645 
L 277.963344 88.494193 
L 279.049146 90.200099 
L 280.134947 85.441518 
L 281.220748 87.560433 
L 282.306549 88.386451 
L 283.39235 83.717654 
L 284.478151 82.101532 
L 285.563953 90.200099 
L 286.649754 87.05764 
L 287.735555 87.596347 
L 288.821356 83.089162 
L 289.907157 85.495389 
L 290.992958 82.550455 
L 292.07876 86.949898 
L 293.164561 83.143033 
L 294.250362 83.304645 
L 295.336163 80.916376 
L 296.421964 82.334972 
L 297.507765 83.987008 
L 298.593566 82.334972 
L 299.679368 78.025313 
L 300.765169 82.514541 
L 301.85097 80.970247 
L 302.936771 80.916376 
L 304.022572 82.352929 
L 305.108373 78.905202 
L 306.194175 76.660588 
L 307.279976 78.74359 
L 308.365777 79.048857 
L 309.451578 80.629066 
L 310.537379 74.739199 
L 311.62318 76.696502 
L 312.708981 76.624674 
L 313.794783 76.696502 
L 314.880584 78.528107 
L 315.966385 76.337364 
L 317.052186 77.971443 
L 318.137987 75.403604 
L 319.223788 75.331777 
L 320.30959 74.110707 
L 321.395391 74.882854 
L 322.481192 70.878463 
L 323.566993 72.763938 
L 324.652794 71.453084 
L 326.824396 69.890832 
L 327.910198 71.578782 
L 328.995999 68.921159 
L 330.0818 68.27471 
L 331.167601 69.926746 
L 332.253402 71.363299 
L 333.339203 68.310624 
L 335.510806 67.700089 
L 336.596607 65.31182 
L 337.682408 67.161382 
L 338.768209 65.635044 
L 339.85401 65.132251 
L 342.025613 65.850527 
L 343.111414 64.288276 
L 344.197215 60.499368 
L 345.283016 64.09075 
L 346.368817 61.540869 
L 347.454618 59.978617 
L 348.54042 62.743982 
L 349.626221 60.858506 
L 350.712022 60.714851 
L 351.797823 59.062815 
L 353.969425 58.865289 
L 355.055227 59.188513 
L 356.141028 58.362495 
L 357.226829 57.374865 
L 358.31263 58.506151 
L 359.398431 57.716047 
L 360.484232 56.064011 
L 361.570033 56.207666 
L 362.655835 54.807027 
L 363.741636 53.639828 
L 364.827437 54.914768 
L 365.913238 54.358104 
L 366.999039 53.568 
L 368.08484 54.232406 
L 369.170642 56.818201 
L 370.256443 59.727221 
L 371.342244 58.057228 
L 372.428045 62.492585 
L 373.513846 63.049249 
L 374.599647 60.319799 
L 375.685448 61.935921 
L 376.77125 62.492585 
L 377.857051 62.061619 
L 378.942852 60.445497 
L 380.028653 62.259145 
L 381.114454 63.031292 
L 382.200255 61.091946 
L 383.286057 61.199687 
L 384.371858 60.247971 
L 385.457659 64.413975 
L 386.54346 62.366887 
L 387.629261 64.84494 
L 388.715062 62.007748 
L 389.800863 60.876463 
L 390.886665 61.935921 
L 391.972466 62.223231 
L 393.058267 63.785483 
L 394.144068 64.575587 
L 395.229869 62.151404 
L 396.31567 64.449888 
L 397.401472 61.774309 
L 398.487273 61.594739 
L 398.487273 61.594739 
" clip-path="url(#p2080ed2b1b)" style="fill: none; stroke: #ff7f0e; stroke-width: 1.5; stroke-linecap: square"/>
   </g>
   <g id="line2d_20">
    <path d="M 73.832727 288.924284 
L 74.918528 282.608405 
L 76.00433 268.614398 
L 77.090131 257.468729 
L 78.175932 253.134302 
L 79.261733 245.456175 
L 80.347534 244.71313 
L 81.433335 237.282684 
L 82.519137 230.966805 
L 83.604938 229.976079 
L 84.690739 224.279403 
L 85.77654 220.688021 
L 86.862341 217.963524 
L 87.948142 211.276123 
L 89.033943 208.923148 
L 90.119745 209.29467 
L 91.205546 204.960243 
L 93.377148 204.712562 
L 94.462949 204.960243 
L 95.54875 228.861512 
L 96.634552 218.95425 
L 97.720353 216.353594 
L 98.806154 209.17083 
L 99.891955 210.9046 
L 100.977756 209.913874 
L 102.063557 207.313218 
L 103.149358 207.065537 
L 104.23516 206.941696 
L 105.320961 198.396683 
L 106.406762 197.282116 
L 107.492563 199.015887 
L 108.578364 192.576167 
L 109.664165 195.300664 
L 110.749967 189.97551 
L 111.835768 186.012606 
L 112.921569 192.947689 
L 114.00737 187.251014 
L 115.093171 185.517243 
L 116.178972 180.315931 
L 117.264773 182.545064 
L 118.350575 174.866937 
L 119.436376 174.000051 
L 120.522177 172.390121 
L 121.607978 170.284828 
L 122.693779 169.541784 
L 123.77958 171.151714 
L 124.865382 167.064968 
L 125.951183 167.436491 
L 127.036984 169.294102 
L 128.122785 166.074242 
L 130.294387 163.225904 
L 131.380189 159.015318 
L 133.551791 161.987497 
L 134.637592 160.501408 
L 135.723393 157.157707 
L 136.809194 158.643796 
L 137.894995 157.65307 
L 138.980797 193.938415 
L 140.066598 188.737103 
L 141.152399 184.154994 
L 142.2382 185.269561 
L 143.324001 194.8053 
L 145.495604 180.811294 
L 146.581405 184.278835 
L 147.667206 183.164268 
L 148.753007 180.19209 
L 149.838808 183.53579 
L 150.924609 185.02188 
L 152.01041 183.53579 
L 153.096212 187.994058 
L 154.182013 179.696727 
L 155.267814 183.659631 
L 156.353615 172.885484 
L 157.439416 178.210637 
L 158.525217 175.114618 
L 159.611019 178.953682 
L 160.69682 180.563612 
L 161.782621 171.027873 
L 162.868422 173.257007 
L 163.954223 174.371574 
L 165.040024 170.408669 
L 166.125825 175.857663 
L 167.211627 171.770917 
L 168.297428 171.027873 
L 169.383229 169.913306 
L 170.46903 167.436491 
L 171.554831 171.151714 
L 172.640632 165.950401 
L 173.726434 167.064968 
L 174.812235 166.817287 
L 175.898036 171.647077 
L 176.983837 163.473586 
L 178.069638 160.501408 
L 179.155439 164.835834 
L 180.24124 157.033866 
L 181.327042 160.253726 
L 182.412843 150.965668 
L 183.498644 159.634522 
L 184.584445 154.928573 
L 185.670246 151.708713 
L 187.841849 150.717987 
L 188.92765 149.355738 
L 190.013451 147.374286 
L 191.099252 154.43321 
L 192.185053 150.965668 
L 193.270854 152.575598 
L 194.356656 146.507401 
L 195.442457 148.117331 
L 196.528258 148.241171 
L 197.614059 140.315362 
L 198.69986 141.677611 
L 199.785661 140.315362 
L 200.871462 138.086228 
L 201.957264 137.219343 
L 203.043065 135.609413 
L 204.128866 137.219343 
L 205.214667 135.361732 
L 206.300468 137.467025 
L 207.386269 134.990209 
L 208.472071 136.352458 
L 209.557872 134.990209 
L 210.643673 132.761075 
L 211.729474 134.618687 
L 212.815275 130.531942 
L 213.901076 132.018031 
L 214.986877 133.008757 
L 216.072679 131.151145 
L 217.15848 128.67433 
L 218.244281 129.541215 
L 219.330082 130.036579 
L 220.415883 129.417375 
L 221.501684 129.912738 
L 222.587486 129.045852 
L 223.673287 128.922012 
L 224.759088 129.045852 
L 225.844889 184.402676 
L 226.93069 173.628529 
L 228.016491 178.58216 
L 229.102292 170.284828 
L 230.188094 179.572886 
L 231.273895 174.123892 
L 232.359696 179.077523 
L 233.445497 174.619255 
L 234.531298 170.780191 
L 235.617099 170.408669 
L 236.702901 170.408669 
L 237.788702 166.074242 
L 238.874503 170.408669 
L 239.960304 168.179535 
L 241.046105 170.160988 
L 242.131906 171.894758 
L 243.217708 168.303376 
L 244.303509 171.770917 
L 245.38931 165.826561 
L 246.475111 172.513962 
L 247.560912 171.275554 
L 248.646713 171.151714 
L 249.732514 164.835834 
L 251.904117 170.408669 
L 252.989918 165.331198 
L 254.075719 165.70272 
L 255.16152 167.31265 
L 256.247321 161.739815 
L 257.333123 174.743096 
L 258.418924 174.000051 
L 259.504725 172.637803 
L 260.590526 167.436491 
L 261.676327 161.492134 
L 262.762128 160.377567 
L 263.847929 169.046421 
L 264.933731 171.523236 
L 266.019532 159.139159 
L 267.105333 154.185528 
L 268.191134 153.937847 
L 269.276935 161.739815 
L 270.362736 159.634522 
L 271.448538 159.139159 
L 272.534339 165.950401 
L 273.62014 152.575598 
L 274.705941 161.492134 
L 275.791742 160.006044 
L 276.877543 165.207357 
L 277.963344 155.919299 
L 279.049146 163.968949 
L 280.134947 158.272274 
L 281.220748 158.767637 
L 282.306549 162.48286 
L 283.39235 155.547777 
L 284.478151 156.290821 
L 285.563953 155.547777 
L 286.649754 156.04314 
L 287.735555 154.680891 
L 288.821356 156.786185 
L 289.907157 154.680891 
L 290.992958 154.309369 
L 292.07876 156.786185 
L 293.164561 152.204076 
L 294.250362 155.795458 
L 295.336163 151.21335 
L 296.421964 149.479579 
L 297.507765 152.82328 
L 298.593566 156.538503 
L 299.679368 149.231898 
L 300.765169 153.566325 
L 301.85097 149.108057 
L 302.936771 146.012038 
L 304.022572 150.470305 
L 305.108373 155.919299 
L 306.194175 155.423936 
L 307.279976 152.327917 
L 308.365777 150.222624 
L 309.451578 151.708713 
L 310.537379 141.801452 
L 311.62318 150.965668 
L 312.708981 148.860375 
L 313.794783 147.99349 
L 314.880584 145.392834 
L 315.966385 152.82328 
L 317.052186 148.241171 
L 318.137987 147.126605 
L 319.223788 139.076955 
L 320.30959 142.420655 
L 321.395391 149.108057 
L 322.481192 136.72398 
L 323.566993 144.525948 
L 324.652794 146.755082 
L 325.738595 140.067681 
L 326.824396 144.897471 
L 327.910198 139.819999 
L 328.995999 136.600139 
L 330.0818 141.058407 
L 331.167601 146.878923 
L 332.253402 144.278267 
L 333.339203 138.210069 
L 334.425005 139.200795 
L 335.510806 137.714706 
L 336.596607 135.857095 
L 337.682408 135.857095 
L 338.768209 141.058407 
L 339.85401 137.343184 
L 340.939811 134.123324 
L 342.025613 145.888197 
L 343.111414 133.999483 
L 344.197215 134.247165 
L 345.283016 136.971662 
L 346.368817 134.371005 
L 347.454618 128.67433 
L 348.54042 133.132598 
L 349.626221 130.408101 
L 350.712022 129.912738 
L 351.797823 129.293534 
L 352.883624 126.445196 
L 353.969425 131.274986 
L 355.055227 131.522668 
L 356.141028 127.0644 
L 357.226829 129.045852 
L 358.31263 127.807445 
L 359.398431 127.312082 
L 360.484232 124.959107 
L 361.570033 129.417375 
L 362.655835 124.587585 
L 363.741636 123.720699 
L 364.827437 121.739247 
L 365.913238 120.748521 
L 366.999039 122.729973 
L 368.08484 125.330629 
L 369.170642 125.949833 
L 370.256443 129.169693 
L 371.342244 127.559763 
L 372.428045 136.476298 
L 374.599647 129.541215 
L 375.685448 131.770349 
L 376.77125 131.522668 
L 377.857051 132.513394 
L 378.942852 129.293534 
L 380.028653 136.600139 
L 381.114454 136.228617 
L 382.200255 131.89419 
L 383.286057 133.008757 
L 384.371858 131.89419 
L 385.457659 139.324636 
L 386.54346 134.123324 
L 387.629261 135.980935 
L 388.715062 126.445196 
L 389.800863 135.980935 
L 390.886665 132.761075 
L 391.972466 132.265712 
L 393.058267 132.141872 
L 394.144068 139.448477 
L 395.229869 130.903464 
L 396.31567 134.494846 
L 397.401472 127.807445 
L 398.487273 129.665056 
L 398.487273 129.665056 
" clip-path="url(#p2080ed2b1b)" style="fill: none; stroke: #2ca02c; stroke-width: 1.5; stroke-linecap: square"/>
   </g>
   <g id="line2d_21">
    <path d="M 368.08484 54.932725 
L 369.170642 56.351321 
L 370.256443 57.249167 
L 371.342244 60.643023 
L 372.428045 58.344538 
L 373.513846 62.007748 
L 374.599647 61.576782 
L 375.685448 66.227623 
L 376.77125 68.27471 
L 377.857051 65.868484 
L 378.942852 63.013335 
L 380.028653 62.510542 
L 381.114454 63.839353 
L 383.286057 67.269123 
L 384.371858 66.030097 
L 385.457659 69.49578 
L 386.54346 72.332972 
L 387.629261 70.986204 
L 388.715062 77.52252 
L 389.800863 73.715655 
L 390.886665 75.152208 
L 391.972466 66.856114 
L 393.058267 73.248775 
L 394.144068 82.424757 
L 395.229869 78.402409 
L 396.31567 71.471041 
L 397.401472 68.74159 
L 398.487273 73.033292 
L 398.487273 73.033292 
" clip-path="url(#p2080ed2b1b)" style="fill: none; stroke: #d62728; stroke-width: 1.5; stroke-linecap: square"/>
   </g>
   <g id="line2d_22">
    <path d="M 368.08484 127.683604 
L 369.170642 126.940559 
L 370.256443 122.606132 
L 371.342244 130.779623 
L 372.428045 127.931285 
L 373.513846 134.990209 
L 374.599647 122.977655 
L 375.685448 132.141872 
L 376.77125 136.104776 
L 377.857051 131.151145 
L 378.942852 131.027305 
L 380.028653 127.0644 
L 381.114454 130.903464 
L 382.200255 133.008757 
L 383.286057 136.104776 
L 384.371858 139.94384 
L 385.457659 134.618687 
L 386.54346 141.677611 
L 387.629261 147.250445 
L 388.715062 149.727261 
L 389.800863 143.906745 
L 390.886665 152.451758 
L 391.972466 137.343184 
L 393.058267 149.108057 
L 394.144068 151.584872 
L 395.229869 146.755082 
L 396.31567 137.343184 
L 397.401472 138.705432 
L 398.487273 142.792178 
L 398.487273 142.792178 
" clip-path="url(#p2080ed2b1b)" style="fill: none; stroke: #9467bd; stroke-width: 1.5; stroke-linecap: square"/>
   </g>
   <g id="patch_3">
    <path d="M 57.6 307.584 
L 57.6 41.472 
" style="fill: none; stroke: #000000; stroke-width: 0.8; stroke-linejoin: miter; stroke-linecap: square"/>
   </g>
   <g id="patch_4">
    <path d="M 414.72 307.584 
L 414.72 41.472 
" style="fill: none; stroke: #000000; stroke-width: 0.8; stroke-linejoin: miter; stroke-linecap: square"/>
   </g>
   <g id="patch_5">
    <path d="M 57.6 307.584 
L 414.72 307.584 
" style="fill: none; stroke: #000000; stroke-width: 0.8; stroke-linejoin: miter; stroke-linecap: square"/>
   </g>
   <g id="patch_6">
    <path d="M 57.6 41.472 
L 414.72 41.472 
" style="fill: none; stroke: #000000; stroke-width: 0.8; stroke-linejoin: miter; stroke-linecap: square"/>
   </g>
   <g id="text_20">
    <!-- Learning Curves -->
    <g transform="translate(187.37625 35.472) scale(0.12 -0.12)">
     <defs>
      <path id="DejaVuSans-4c" d="M 628 4666 
L 1259 4666 
L 1259 531 
L 3531 531 
L 3531 0 
L 628 0 
L 628 4666 
z
" transform="scale(0.015625)"/>
      <path id="DejaVuSans-65" d="M 3597 1894 
L 3597 1613 
L 953 1613 
Q 991 1019 1311 708 
Q 1631 397 2203 397 
Q 2534 397 2845 478 
Q 3156 559 3463 722 
L 3463 178 
Q 3153 47 2828 -22 
Q 2503 -91 2169 -91 
Q 1331 -91 842 396 
Q 353 884 353 1716 
Q 353 2575 817 3079 
Q 1281 3584 2069 3584 
Q 2775 3584 3186 3129 
Q 3597 2675 3597 1894 
z
M 3022 2063 
Q 3016 2534 2758 2815 
Q 2500 3097 2075 3097 
Q 1594 3097 1305 2825 
Q 1016 2553 972 2059 
L 3022 2063 
z
" transform="scale(0.015625)"/>
      <path id="DejaVuSans-6e" d="M 3513 2113 
L 3513 0 
L 2938 0 
L 2938 2094 
Q 2938 2591 2744 2837 
Q 2550 3084 2163 3084 
Q 1697 3084 1428 2787 
Q 1159 2491 1159 1978 
L 1159 0 
L 581 0 
L 581 3500 
L 1159 3500 
L 1159 2956 
Q 1366 3272 1645 3428 
Q 1925 3584 2291 3584 
Q 2894 3584 3203 3211 
Q 3513 2838 3513 2113 
z
" transform="scale(0.015625)"/>
      <path id="DejaVuSans-69" d="M 603 3500 
L 1178 3500 
L 1178 0 
L 603 0 
L 603 3500 
z
M 603 4863 
L 1178 4863 
L 1178 4134 
L 603 4134 
L 603 4863 
z
" transform="scale(0.015625)"/>
      <path id="DejaVuSans-67" d="M 2906 1791 
Q 2906 2416 2648 2759 
Q 2391 3103 1925 3103 
Q 1463 3103 1205 2759 
Q 947 2416 947 1791 
Q 947 1169 1205 825 
Q 1463 481 1925 481 
Q 2391 481 2648 825 
Q 2906 1169 2906 1791 
z
M 3481 434 
Q 3481 -459 3084 -895 
Q 2688 -1331 1869 -1331 
Q 1566 -1331 1297 -1286 
Q 1028 -1241 775 -1147 
L 775 -588 
Q 1028 -725 1275 -790 
Q 1522 -856 1778 -856 
Q 2344 -856 2625 -561 
Q 2906 -266 2906 331 
L 2906 616 
Q 2728 306 2450 153 
Q 2172 0 1784 0 
Q 1141 0 747 490 
Q 353 981 353 1791 
Q 353 2603 747 3093 
Q 1141 3584 1784 3584 
Q 2172 3584 2450 3431 
Q 2728 3278 2906 2969 
L 2906 3500 
L 3481 3500 
L 3481 434 
z
" transform="scale(0.015625)"/>
      <path id="DejaVuSans-20" transform="scale(0.015625)"/>
      <path id="DejaVuSans-43" d="M 4122 4306 
L 4122 3641 
Q 3803 3938 3442 4084 
Q 3081 4231 2675 4231 
Q 1875 4231 1450 3742 
Q 1025 3253 1025 2328 
Q 1025 1406 1450 917 
Q 1875 428 2675 428 
Q 3081 428 3442 575 
Q 3803 722 4122 1019 
L 4122 359 
Q 3791 134 3420 21 
Q 3050 -91 2638 -91 
Q 1578 -91 968 557 
Q 359 1206 359 2328 
Q 359 3453 968 4101 
Q 1578 4750 2638 4750 
Q 3056 4750 3426 4639 
Q 3797 4528 4122 4306 
z
" transform="scale(0.015625)"/>
      <path id="DejaVuSans-76" d="M 191 3500 
L 800 3500 
L 1894 563 
L 2988 3500 
L 3597 3500 
L 2284 0 
L 1503 0 
L 191 3500 
z
" transform="scale(0.015625)"/>
     </defs>
     <use xlink:href="#DejaVuSans-4c"/>
     <use xlink:href="#DejaVuSans-65" x="53.962891"/>
     <use xlink:href="#DejaVuSans-61" x="115.486328"/>
     <use xlink:href="#DejaVuSans-72" x="176.765625"/>
     <use xlink:href="#DejaVuSans-6e" x="216.128906"/>
     <use xlink:href="#DejaVuSans-69" x="279.507812"/>
     <use xlink:href="#DejaVuSans-6e" x="307.291016"/>
     <use xlink:href="#DejaVuSans-67" x="370.669922"/>
     <use xlink:href="#DejaVuSans-20" x="434.146484"/>
     <use xlink:href="#DejaVuSans-43" x="465.933594"/>
     <use xlink:href="#DejaVuSans-75" x="535.757812"/>
     <use xlink:href="#DejaVuSans-72" x="599.136719"/>
     <use xlink:href="#DejaVuSans-76" x="640.25"/>
     <use xlink:href="#DejaVuSans-65" x="699.429688"/>
     <use xlink:href="#DejaVuSans-73" x="760.953125"/>
    </g>
   </g>
   <g id="legend_1">
    <g id="patch_7">
     <path d="M 214.18875 302.584 
L 407.72 302.584 
Q 409.72 302.584 409.72 300.584 
L 409.72 228.193375 
Q 409.72 226.193375 407.72 226.193375 
L 214.18875 226.193375 
Q 212.18875 226.193375 212.18875 228.193375 
L 212.18875 300.584 
Q 212.18875 302.584 214.18875 302.584 
z
" style="fill: #ffffff; opacity: 0.8; stroke: #cccccc; stroke-linejoin: miter"/>
    </g>
    <g id="line2d_23">
     <path d="M 216.18875 234.291812 
L 226.18875 234.291812 
L 236.18875 234.291812 
" style="fill: none; stroke: #1f77b4; stroke-width: 1.5; stroke-linecap: square"/>
    </g>
    <g id="text_21">
     <!-- Train Accuracy -->
     <g transform="translate(244.18875 237.791812) scale(0.1 -0.1)">
      <defs>
       <path id="DejaVuSans-54" d="M -19 4666 
L 3928 4666 
L 3928 4134 
L 2272 4134 
L 2272 0 
L 1638 0 
L 1638 4134 
L -19 4134 
L -19 4666 
z
" transform="scale(0.015625)"/>
      </defs>
      <use xlink:href="#DejaVuSans-54"/>
      <use xlink:href="#DejaVuSans-72" x="46.333984"/>
      <use xlink:href="#DejaVuSans-61" x="87.447266"/>
      <use xlink:href="#DejaVuSans-69" x="148.726562"/>
      <use xlink:href="#DejaVuSans-6e" x="176.509766"/>
      <use xlink:href="#DejaVuSans-20" x="239.888672"/>
      <use xlink:href="#DejaVuSans-41" x="271.675781"/>
      <use xlink:href="#DejaVuSans-63" x="338.333984"/>
      <use xlink:href="#DejaVuSans-63" x="393.314453"/>
      <use xlink:href="#DejaVuSans-75" x="448.294922"/>
      <use xlink:href="#DejaVuSans-72" x="511.673828"/>
      <use xlink:href="#DejaVuSans-61" x="552.787109"/>
      <use xlink:href="#DejaVuSans-63" x="614.066406"/>
      <use xlink:href="#DejaVuSans-79" x="669.046875"/>
     </g>
    </g>
    <g id="line2d_24">
     <path d="M 216.18875 248.969937 
L 226.18875 248.969937 
L 236.18875 248.969937 
" style="fill: none; stroke: #ff7f0e; stroke-width: 1.5; stroke-linecap: square"/>
    </g>
    <g id="text_22">
     <!-- Validation Accuracy -->
     <g transform="translate(244.18875 252.469937) scale(0.1 -0.1)">
      <defs>
       <path id="DejaVuSans-56" d="M 1831 0 
L 50 4666 
L 709 4666 
L 2188 738 
L 3669 4666 
L 4325 4666 
L 2547 0 
L 1831 0 
z
" transform="scale(0.015625)"/>
       <path id="DejaVuSans-6c" d="M 603 4863 
L 1178 4863 
L 1178 0 
L 603 0 
L 603 4863 
z
" transform="scale(0.015625)"/>
       <path id="DejaVuSans-64" d="M 2906 2969 
L 2906 4863 
L 3481 4863 
L 3481 0 
L 2906 0 
L 2906 525 
Q 2725 213 2448 61 
Q 2172 -91 1784 -91 
Q 1150 -91 751 415 
Q 353 922 353 1747 
Q 353 2572 751 3078 
Q 1150 3584 1784 3584 
Q 2172 3584 2448 3432 
Q 2725 3281 2906 2969 
z
M 947 1747 
Q 947 1113 1208 752 
Q 1469 391 1925 391 
Q 2381 391 2643 752 
Q 2906 1113 2906 1747 
Q 2906 2381 2643 2742 
Q 2381 3103 1925 3103 
Q 1469 3103 1208 2742 
Q 947 2381 947 1747 
z
" transform="scale(0.015625)"/>
       <path id="DejaVuSans-74" d="M 1172 4494 
L 1172 3500 
L 2356 3500 
L 2356 3053 
L 1172 3053 
L 1172 1153 
Q 1172 725 1289 603 
Q 1406 481 1766 481 
L 2356 481 
L 2356 0 
L 1766 0 
Q 1100 0 847 248 
Q 594 497 594 1153 
L 594 3053 
L 172 3053 
L 172 3500 
L 594 3500 
L 594 4494 
L 1172 4494 
z
" transform="scale(0.015625)"/>
      </defs>
      <use xlink:href="#DejaVuSans-56"/>
      <use xlink:href="#DejaVuSans-61" x="60.658203"/>
      <use xlink:href="#DejaVuSans-6c" x="121.9375"/>
      <use xlink:href="#DejaVuSans-69" x="149.720703"/>
      <use xlink:href="#DejaVuSans-64" x="177.503906"/>
      <use xlink:href="#DejaVuSans-61" x="240.980469"/>
      <use xlink:href="#DejaVuSans-74" x="302.259766"/>
      <use xlink:href="#DejaVuSans-69" x="341.46875"/>
      <use xlink:href="#DejaVuSans-6f" x="369.251953"/>
      <use xlink:href="#DejaVuSans-6e" x="430.433594"/>
      <use xlink:href="#DejaVuSans-20" x="493.8125"/>
      <use xlink:href="#DejaVuSans-41" x="525.599609"/>
      <use xlink:href="#DejaVuSans-63" x="592.257812"/>
      <use xlink:href="#DejaVuSans-63" x="647.238281"/>
      <use xlink:href="#DejaVuSans-75" x="702.21875"/>
      <use xlink:href="#DejaVuSans-72" x="765.597656"/>
      <use xlink:href="#DejaVuSans-61" x="806.710938"/>
      <use xlink:href="#DejaVuSans-63" x="867.990234"/>
      <use xlink:href="#DejaVuSans-79" x="922.970703"/>
     </g>
    </g>
    <g id="line2d_25">
     <path d="M 216.18875 263.648062 
L 226.18875 263.648062 
L 236.18875 263.648062 
" style="fill: none; stroke: #2ca02c; stroke-width: 1.5; stroke-linecap: square"/>
    </g>
    <g id="text_23">
     <!-- Robust Validation Accuracy -->
     <g transform="translate(244.18875 267.148062) scale(0.1 -0.1)">
      <defs>
       <path id="DejaVuSans-52" d="M 2841 2188 
Q 3044 2119 3236 1894 
Q 3428 1669 3622 1275 
L 4263 0 
L 3584 0 
L 2988 1197 
Q 2756 1666 2539 1819 
Q 2322 1972 1947 1972 
L 1259 1972 
L 1259 0 
L 628 0 
L 628 4666 
L 2053 4666 
Q 2853 4666 3247 4331 
Q 3641 3997 3641 3322 
Q 3641 2881 3436 2590 
Q 3231 2300 2841 2188 
z
M 1259 4147 
L 1259 2491 
L 2053 2491 
Q 2509 2491 2742 2702 
Q 2975 2913 2975 3322 
Q 2975 3731 2742 3939 
Q 2509 4147 2053 4147 
L 1259 4147 
z
" transform="scale(0.015625)"/>
       <path id="DejaVuSans-62" d="M 3116 1747 
Q 3116 2381 2855 2742 
Q 2594 3103 2138 3103 
Q 1681 3103 1420 2742 
Q 1159 2381 1159 1747 
Q 1159 1113 1420 752 
Q 1681 391 2138 391 
Q 2594 391 2855 752 
Q 3116 1113 3116 1747 
z
M 1159 2969 
Q 1341 3281 1617 3432 
Q 1894 3584 2278 3584 
Q 2916 3584 3314 3078 
Q 3713 2572 3713 1747 
Q 3713 922 3314 415 
Q 2916 -91 2278 -91 
Q 1894 -91 1617 61 
Q 1341 213 1159 525 
L 1159 0 
L 581 0 
L 581 4863 
L 1159 4863 
L 1159 2969 
z
" transform="scale(0.015625)"/>
      </defs>
      <use xlink:href="#DejaVuSans-52"/>
      <use xlink:href="#DejaVuSans-6f" x="64.982422"/>
      <use xlink:href="#DejaVuSans-62" x="126.164062"/>
      <use xlink:href="#DejaVuSans-75" x="189.640625"/>
      <use xlink:href="#DejaVuSans-73" x="253.019531"/>
      <use xlink:href="#DejaVuSans-74" x="305.119141"/>
      <use xlink:href="#DejaVuSans-20" x="344.328125"/>
      <use xlink:href="#DejaVuSans-56" x="376.115234"/>
      <use xlink:href="#DejaVuSans-61" x="436.773438"/>
      <use xlink:href="#DejaVuSans-6c" x="498.052734"/>
      <use xlink:href="#DejaVuSans-69" x="525.835938"/>
      <use xlink:href="#DejaVuSans-64" x="553.619141"/>
      <use xlink:href="#DejaVuSans-61" x="617.095703"/>
      <use xlink:href="#DejaVuSans-74" x="678.375"/>
      <use xlink:href="#DejaVuSans-69" x="717.583984"/>
      <use xlink:href="#DejaVuSans-6f" x="745.367188"/>
      <use xlink:href="#DejaVuSans-6e" x="806.548828"/>
      <use xlink:href="#DejaVuSans-20" x="869.927734"/>
      <use xlink:href="#DejaVuSans-41" x="901.714844"/>
      <use xlink:href="#DejaVuSans-63" x="968.373047"/>
      <use xlink:href="#DejaVuSans-63" x="1023.353516"/>
      <use xlink:href="#DejaVuSans-75" x="1078.333984"/>
      <use xlink:href="#DejaVuSans-72" x="1141.712891"/>
      <use xlink:href="#DejaVuSans-61" x="1182.826172"/>
      <use xlink:href="#DejaVuSans-63" x="1244.105469"/>
      <use xlink:href="#DejaVuSans-79" x="1299.085938"/>
     </g>
    </g>
    <g id="line2d_26">
     <path d="M 216.18875 278.326188 
L 226.18875 278.326188 
L 236.18875 278.326188 
" style="fill: none; stroke: #d62728; stroke-width: 1.5; stroke-linecap: square"/>
    </g>
    <g id="text_24">
     <!-- SWA Validation Accuracy -->
     <g transform="translate(244.18875 281.826188) scale(0.1 -0.1)">
      <defs>
       <path id="DejaVuSans-53" d="M 3425 4513 
L 3425 3897 
Q 3066 4069 2747 4153 
Q 2428 4238 2131 4238 
Q 1616 4238 1336 4038 
Q 1056 3838 1056 3469 
Q 1056 3159 1242 3001 
Q 1428 2844 1947 2747 
L 2328 2669 
Q 3034 2534 3370 2195 
Q 3706 1856 3706 1288 
Q 3706 609 3251 259 
Q 2797 -91 1919 -91 
Q 1588 -91 1214 -16 
Q 841 59 441 206 
L 441 856 
Q 825 641 1194 531 
Q 1563 422 1919 422 
Q 2459 422 2753 634 
Q 3047 847 3047 1241 
Q 3047 1584 2836 1778 
Q 2625 1972 2144 2069 
L 1759 2144 
Q 1053 2284 737 2584 
Q 422 2884 422 3419 
Q 422 4038 858 4394 
Q 1294 4750 2059 4750 
Q 2388 4750 2728 4690 
Q 3069 4631 3425 4513 
z
" transform="scale(0.015625)"/>
       <path id="DejaVuSans-57" d="M 213 4666 
L 850 4666 
L 1831 722 
L 2809 4666 
L 3519 4666 
L 4500 722 
L 5478 4666 
L 6119 4666 
L 4947 0 
L 4153 0 
L 3169 4050 
L 2175 0 
L 1381 0 
L 213 4666 
z
" transform="scale(0.015625)"/>
      </defs>
      <use xlink:href="#DejaVuSans-53"/>
      <use xlink:href="#DejaVuSans-57" x="63.476562"/>
      <use xlink:href="#DejaVuSans-41" x="156.853516"/>
      <use xlink:href="#DejaVuSans-20" x="225.261719"/>
      <use xlink:href="#DejaVuSans-56" x="257.048828"/>
      <use xlink:href="#DejaVuSans-61" x="317.707031"/>
      <use xlink:href="#DejaVuSans-6c" x="378.986328"/>
      <use xlink:href="#DejaVuSans-69" x="406.769531"/>
      <use xlink:href="#DejaVuSans-64" x="434.552734"/>
      <use xlink:href="#DejaVuSans-61" x="498.029297"/>
      <use xlink:href="#DejaVuSans-74" x="559.308594"/>
      <use xlink:href="#DejaVuSans-69" x="598.517578"/>
      <use xlink:href="#DejaVuSans-6f" x="626.300781"/>
      <use xlink:href="#DejaVuSans-6e" x="687.482422"/>
      <use xlink:href="#DejaVuSans-20" x="750.861328"/>
      <use xlink:href="#DejaVuSans-41" x="782.648438"/>
      <use xlink:href="#DejaVuSans-63" x="849.306641"/>
      <use xlink:href="#DejaVuSans-63" x="904.287109"/>
      <use xlink:href="#DejaVuSans-75" x="959.267578"/>
      <use xlink:href="#DejaVuSans-72" x="1022.646484"/>
      <use xlink:href="#DejaVuSans-61" x="1063.759766"/>
      <use xlink:href="#DejaVuSans-63" x="1125.039062"/>
      <use xlink:href="#DejaVuSans-79" x="1180.019531"/>
     </g>
    </g>
    <g id="line2d_27">
     <path d="M 216.18875 293.004312 
L 226.18875 293.004312 
L 236.18875 293.004312 
" style="fill: none; stroke: #9467bd; stroke-width: 1.5; stroke-linecap: square"/>
    </g>
    <g id="text_25">
     <!-- SWA Robust Validation Accuracy -->
     <g transform="translate(244.18875 296.504312) scale(0.1 -0.1)">
      <use xlink:href="#DejaVuSans-53"/>
      <use xlink:href="#DejaVuSans-57" x="63.476562"/>
      <use xlink:href="#DejaVuSans-41" x="156.853516"/>
      <use xlink:href="#DejaVuSans-20" x="225.261719"/>
      <use xlink:href="#DejaVuSans-52" x="257.048828"/>
      <use xlink:href="#DejaVuSans-6f" x="322.03125"/>
      <use xlink:href="#DejaVuSans-62" x="383.212891"/>
      <use xlink:href="#DejaVuSans-75" x="446.689453"/>
      <use xlink:href="#DejaVuSans-73" x="510.068359"/>
      <use xlink:href="#DejaVuSans-74" x="562.167969"/>
      <use xlink:href="#DejaVuSans-20" x="601.376953"/>
      <use xlink:href="#DejaVuSans-56" x="633.164062"/>
      <use xlink:href="#DejaVuSans-61" x="693.822266"/>
      <use xlink:href="#DejaVuSans-6c" x="755.101562"/>
      <use xlink:href="#DejaVuSans-69" x="782.884766"/>
      <use xlink:href="#DejaVuSans-64" x="810.667969"/>
      <use xlink:href="#DejaVuSans-61" x="874.144531"/>
      <use xlink:href="#DejaVuSans-74" x="935.423828"/>
      <use xlink:href="#DejaVuSans-69" x="974.632812"/>
      <use xlink:href="#DejaVuSans-6f" x="1002.416016"/>
      <use xlink:href="#DejaVuSans-6e" x="1063.597656"/>
      <use xlink:href="#DejaVuSans-20" x="1126.976562"/>
      <use xlink:href="#DejaVuSans-41" x="1158.763672"/>
      <use xlink:href="#DejaVuSans-63" x="1225.421875"/>
      <use xlink:href="#DejaVuSans-63" x="1280.402344"/>
      <use xlink:href="#DejaVuSans-75" x="1335.382812"/>
      <use xlink:href="#DejaVuSans-72" x="1398.761719"/>
      <use xlink:href="#DejaVuSans-61" x="1439.875"/>
      <use xlink:href="#DejaVuSans-63" x="1501.154297"/>
      <use xlink:href="#DejaVuSans-79" x="1556.134766"/>
     </g>
    </g>
   </g>
  </g>
 </g>
 <defs>
  <clipPath id="p2080ed2b1b">
   <rect x="57.6" y="41.472" width="357.12" height="266.112"/>
  </clipPath>
 </defs>
</svg>
