<?xml version="1.0" encoding="utf-8" standalone="no"?>
<!DOCTYPE svg PUBLIC "-//W3C//DTD SVG 1.1//EN"
  "http://www.w3.org/Graphics/SVG/1.1/DTD/svg11.dtd">
<svg xmlns:xlink="http://www.w3.org/1999/xlink" width="460.8pt" height="345.6pt" viewBox="0 0 460.8 345.6" xmlns="http://www.w3.org/2000/svg" version="1.1">
 <metadata>
  <rdf:RDF xmlns:dc="http://purl.org/dc/elements/1.1/" xmlns:cc="http://creativecommons.org/ns#" xmlns:rdf="http://www.w3.org/1999/02/22-rdf-syntax-ns#">
   <cc:Work>
    <dc:type rdf:resource="http://purl.org/dc/dcmitype/StillImage"/>
    <dc:date>2025-07-25T23:54:30.358907</dc:date>
    <dc:format>image/svg+xml</dc:format>
    <dc:creator>
     <cc:Agent>
      <dc:title>Matplotlib v3.9.1, https://matplotlib.org/</dc:title>
     </cc:Agent>
    </dc:creator>
   </cc:Work>
  </rdf:RDF>
 </metadata>
 <defs>
  <style type="text/css">*{stroke-linejoin: round; stroke-linecap: butt}</style>
 </defs>
 <g id="figure_1">
  <g id="patch_1">
   <path d="M 0 345.6 
L 460.8 345.6 
L 460.8 0 
L 0 0 
z
" style="fill: #ffffff"/>
  </g>
  <g id="axes_1">
   <g id="patch_2">
    <path d="M 57.6 307.584 
L 414.72 307.584 
L 414.72 41.472 
L 57.6 41.472 
z
" style="fill: #ffffff"/>
   </g>
   <g id="matplotlib.axis_1">
    <g id="xtick_1">
     <g id="line2d_1">
      <defs>
       <path id="m8157aac5a4" d="M 0 0 
L 0 3.5 
" style="stroke: #000000; stroke-width: 0.8"/>
      </defs>
      <g>
       <use xlink:href="#m8157aac5a4" x="73.832727" y="307.584" style="stroke: #000000; stroke-width: 0.8"/>
      </g>
     </g>
     <g id="text_1">
      <!-- 1 -->
      <g transform="translate(70.651477 322.182437) scale(0.1 -0.1)">
       <defs>
        <path id="DejaVuSans-31" d="M 794 531 
L 1825 531 
L 1825 4091 
L 703 3866 
L 703 4441 
L 1819 4666 
L 2450 4666 
L 2450 531 
L 3481 531 
L 3481 0 
L 794 0 
L 794 531 
z
" transform="scale(0.015625)"/>
       </defs>
       <use xlink:href="#DejaVuSans-31"/>
      </g>
     </g>
    </g>
    <g id="xtick_2">
     <g id="line2d_2">
      <g>
       <use xlink:href="#m8157aac5a4" x="109.664165" y="307.584" style="stroke: #000000; stroke-width: 0.8"/>
      </g>
     </g>
     <g id="text_2">
      <!-- 34 -->
      <g transform="translate(103.301665 322.182437) scale(0.1 -0.1)">
       <defs>
        <path id="DejaVuSans-33" d="M 2597 2516 
Q 3050 2419 3304 2112 
Q 3559 1806 3559 1356 
Q 3559 666 3084 287 
Q 2609 -91 1734 -91 
Q 1441 -91 1130 -33 
Q 819 25 488 141 
L 488 750 
Q 750 597 1062 519 
Q 1375 441 1716 441 
Q 2309 441 2620 675 
Q 2931 909 2931 1356 
Q 2931 1769 2642 2001 
Q 2353 2234 1838 2234 
L 1294 2234 
L 1294 2753 
L 1863 2753 
Q 2328 2753 2575 2939 
Q 2822 3125 2822 3475 
Q 2822 3834 2567 4026 
Q 2313 4219 1838 4219 
Q 1578 4219 1281 4162 
Q 984 4106 628 3988 
L 628 4550 
Q 988 4650 1302 4700 
Q 1616 4750 1894 4750 
Q 2613 4750 3031 4423 
Q 3450 4097 3450 3541 
Q 3450 3153 3228 2886 
Q 3006 2619 2597 2516 
z
" transform="scale(0.015625)"/>
        <path id="DejaVuSans-34" d="M 2419 4116 
L 825 1625 
L 2419 1625 
L 2419 4116 
z
M 2253 4666 
L 3047 4666 
L 3047 1625 
L 3713 1625 
L 3713 1100 
L 3047 1100 
L 3047 0 
L 2419 0 
L 2419 1100 
L 313 1100 
L 313 1709 
L 2253 4666 
z
" transform="scale(0.015625)"/>
       </defs>
       <use xlink:href="#DejaVuSans-33"/>
       <use xlink:href="#DejaVuSans-34" x="63.623047"/>
      </g>
     </g>
    </g>
    <g id="xtick_3">
     <g id="line2d_3">
      <g>
       <use xlink:href="#m8157aac5a4" x="145.495604" y="307.584" style="stroke: #000000; stroke-width: 0.8"/>
      </g>
     </g>
     <g id="text_3">
      <!-- 67 -->
      <g transform="translate(139.133104 322.182437) scale(0.1 -0.1)">
       <defs>
        <path id="DejaVuSans-36" d="M 2113 2584 
Q 1688 2584 1439 2293 
Q 1191 2003 1191 1497 
Q 1191 994 1439 701 
Q 1688 409 2113 409 
Q 2538 409 2786 701 
Q 3034 994 3034 1497 
Q 3034 2003 2786 2293 
Q 2538 2584 2113 2584 
z
M 3366 4563 
L 3366 3988 
Q 3128 4100 2886 4159 
Q 2644 4219 2406 4219 
Q 1781 4219 1451 3797 
Q 1122 3375 1075 2522 
Q 1259 2794 1537 2939 
Q 1816 3084 2150 3084 
Q 2853 3084 3261 2657 
Q 3669 2231 3669 1497 
Q 3669 778 3244 343 
Q 2819 -91 2113 -91 
Q 1303 -91 875 529 
Q 447 1150 447 2328 
Q 447 3434 972 4092 
Q 1497 4750 2381 4750 
Q 2619 4750 2861 4703 
Q 3103 4656 3366 4563 
z
" transform="scale(0.015625)"/>
        <path id="DejaVuSans-37" d="M 525 4666 
L 3525 4666 
L 3525 4397 
L 1831 0 
L 1172 0 
L 2766 4134 
L 525 4134 
L 525 4666 
z
" transform="scale(0.015625)"/>
       </defs>
       <use xlink:href="#DejaVuSans-36"/>
       <use xlink:href="#DejaVuSans-37" x="63.623047"/>
      </g>
     </g>
    </g>
    <g id="xtick_4">
     <g id="line2d_4">
      <g>
       <use xlink:href="#m8157aac5a4" x="181.327042" y="307.584" style="stroke: #000000; stroke-width: 0.8"/>
      </g>
     </g>
     <g id="text_4">
      <!-- 100 -->
      <g transform="translate(171.783292 322.182437) scale(0.1 -0.1)">
       <defs>
        <path id="DejaVuSans-30" d="M 2034 4250 
Q 1547 4250 1301 3770 
Q 1056 3291 1056 2328 
Q 1056 1369 1301 889 
Q 1547 409 2034 409 
Q 2525 409 2770 889 
Q 3016 1369 3016 2328 
Q 3016 3291 2770 3770 
Q 2525 4250 2034 4250 
z
M 2034 4750 
Q 2819 4750 3233 4129 
Q 3647 3509 3647 2328 
Q 3647 1150 3233 529 
Q 2819 -91 2034 -91 
Q 1250 -91 836 529 
Q 422 1150 422 2328 
Q 422 3509 836 4129 
Q 1250 4750 2034 4750 
z
" transform="scale(0.015625)"/>
       </defs>
       <use xlink:href="#DejaVuSans-31"/>
       <use xlink:href="#DejaVuSans-30" x="63.623047"/>
       <use xlink:href="#DejaVuSans-30" x="127.246094"/>
      </g>
     </g>
    </g>
    <g id="xtick_5">
     <g id="line2d_5">
      <g>
       <use xlink:href="#m8157aac5a4" x="217.15848" y="307.584" style="stroke: #000000; stroke-width: 0.8"/>
      </g>
     </g>
     <g id="text_5">
      <!-- 133 -->
      <g transform="translate(207.61473 322.182437) scale(0.1 -0.1)">
       <use xlink:href="#DejaVuSans-31"/>
       <use xlink:href="#DejaVuSans-33" x="63.623047"/>
       <use xlink:href="#DejaVuSans-33" x="127.246094"/>
      </g>
     </g>
    </g>
    <g id="xtick_6">
     <g id="line2d_6">
      <g>
       <use xlink:href="#m8157aac5a4" x="254.075719" y="307.584" style="stroke: #000000; stroke-width: 0.8"/>
      </g>
     </g>
     <g id="text_6">
      <!-- 167 -->
      <g transform="translate(244.531969 322.182437) scale(0.1 -0.1)">
       <use xlink:href="#DejaVuSans-31"/>
       <use xlink:href="#DejaVuSans-36" x="63.623047"/>
       <use xlink:href="#DejaVuSans-37" x="127.246094"/>
      </g>
     </g>
    </g>
    <g id="xtick_7">
     <g id="line2d_7">
      <g>
       <use xlink:href="#m8157aac5a4" x="289.907157" y="307.584" style="stroke: #000000; stroke-width: 0.8"/>
      </g>
     </g>
     <g id="text_7">
      <!-- 200 -->
      <g transform="translate(280.363407 322.182437) scale(0.1 -0.1)">
       <defs>
        <path id="DejaVuSans-32" d="M 1228 531 
L 3431 531 
L 3431 0 
L 469 0 
L 469 531 
Q 828 903 1448 1529 
Q 2069 2156 2228 2338 
Q 2531 2678 2651 2914 
Q 2772 3150 2772 3378 
Q 2772 3750 2511 3984 
Q 2250 4219 1831 4219 
Q 1534 4219 1204 4116 
Q 875 4013 500 3803 
L 500 4441 
Q 881 4594 1212 4672 
Q 1544 4750 1819 4750 
Q 2544 4750 2975 4387 
Q 3406 4025 3406 3419 
Q 3406 3131 3298 2873 
Q 3191 2616 2906 2266 
Q 2828 2175 2409 1742 
Q 1991 1309 1228 531 
z
" transform="scale(0.015625)"/>
       </defs>
       <use xlink:href="#DejaVuSans-32"/>
       <use xlink:href="#DejaVuSans-30" x="63.623047"/>
       <use xlink:href="#DejaVuSans-30" x="127.246094"/>
      </g>
     </g>
    </g>
    <g id="xtick_8">
     <g id="line2d_8">
      <g>
       <use xlink:href="#m8157aac5a4" x="325.738595" y="307.584" style="stroke: #000000; stroke-width: 0.8"/>
      </g>
     </g>
     <g id="text_8">
      <!-- 233 -->
      <g transform="translate(316.194845 322.182437) scale(0.1 -0.1)">
       <use xlink:href="#DejaVuSans-32"/>
       <use xlink:href="#DejaVuSans-33" x="63.623047"/>
       <use xlink:href="#DejaVuSans-33" x="127.246094"/>
      </g>
     </g>
    </g>
    <g id="xtick_9">
     <g id="line2d_9">
      <g>
       <use xlink:href="#m8157aac5a4" x="361.570033" y="307.584" style="stroke: #000000; stroke-width: 0.8"/>
      </g>
     </g>
     <g id="text_9">
      <!-- 266 -->
      <g transform="translate(352.026283 322.182437) scale(0.1 -0.1)">
       <use xlink:href="#DejaVuSans-32"/>
       <use xlink:href="#DejaVuSans-36" x="63.623047"/>
       <use xlink:href="#DejaVuSans-36" x="127.246094"/>
      </g>
     </g>
    </g>
    <g id="xtick_10">
     <g id="line2d_10">
      <g>
       <use xlink:href="#m8157aac5a4" x="398.487273" y="307.584" style="stroke: #000000; stroke-width: 0.8"/>
      </g>
     </g>
     <g id="text_10">
      <!-- 300 -->
      <g transform="translate(388.943523 322.182437) scale(0.1 -0.1)">
       <use xlink:href="#DejaVuSans-33"/>
       <use xlink:href="#DejaVuSans-30" x="63.623047"/>
       <use xlink:href="#DejaVuSans-30" x="127.246094"/>
      </g>
     </g>
    </g>
    <g id="text_11">
     <!-- Epochs -->
     <g transform="translate(218.244375 335.860562) scale(0.1 -0.1)">
      <defs>
       <path id="DejaVuSans-45" d="M 628 4666 
L 3578 4666 
L 3578 4134 
L 1259 4134 
L 1259 2753 
L 3481 2753 
L 3481 2222 
L 1259 2222 
L 1259 531 
L 3634 531 
L 3634 0 
L 628 0 
L 628 4666 
z
" transform="scale(0.015625)"/>
       <path id="DejaVuSans-70" d="M 1159 525 
L 1159 -1331 
L 581 -1331 
L 581 3500 
L 1159 3500 
L 1159 2969 
Q 1341 3281 1617 3432 
Q 1894 3584 2278 3584 
Q 2916 3584 3314 3078 
Q 3713 2572 3713 1747 
Q 3713 922 3314 415 
Q 2916 -91 2278 -91 
Q 1894 -91 1617 61 
Q 1341 213 1159 525 
z
M 3116 1747 
Q 3116 2381 2855 2742 
Q 2594 3103 2138 3103 
Q 1681 3103 1420 2742 
Q 1159 2381 1159 1747 
Q 1159 1113 1420 752 
Q 1681 391 2138 391 
Q 2594 391 2855 752 
Q 3116 1113 3116 1747 
z
" transform="scale(0.015625)"/>
       <path id="DejaVuSans-6f" d="M 1959 3097 
Q 1497 3097 1228 2736 
Q 959 2375 959 1747 
Q 959 1119 1226 758 
Q 1494 397 1959 397 
Q 2419 397 2687 759 
Q 2956 1122 2956 1747 
Q 2956 2369 2687 2733 
Q 2419 3097 1959 3097 
z
M 1959 3584 
Q 2709 3584 3137 3096 
Q 3566 2609 3566 1747 
Q 3566 888 3137 398 
Q 2709 -91 1959 -91 
Q 1206 -91 779 398 
Q 353 888 353 1747 
Q 353 2609 779 3096 
Q 1206 3584 1959 3584 
z
" transform="scale(0.015625)"/>
       <path id="DejaVuSans-63" d="M 3122 3366 
L 3122 2828 
Q 2878 2963 2633 3030 
Q 2388 3097 2138 3097 
Q 1578 3097 1268 2742 
Q 959 2388 959 1747 
Q 959 1106 1268 751 
Q 1578 397 2138 397 
Q 2388 397 2633 464 
Q 2878 531 3122 666 
L 3122 134 
Q 2881 22 2623 -34 
Q 2366 -91 2075 -91 
Q 1284 -91 818 406 
Q 353 903 353 1747 
Q 353 2603 823 3093 
Q 1294 3584 2113 3584 
Q 2378 3584 2631 3529 
Q 2884 3475 3122 3366 
z
" transform="scale(0.015625)"/>
       <path id="DejaVuSans-68" d="M 3513 2113 
L 3513 0 
L 2938 0 
L 2938 2094 
Q 2938 2591 2744 2837 
Q 2550 3084 2163 3084 
Q 1697 3084 1428 2787 
Q 1159 2491 1159 1978 
L 1159 0 
L 581 0 
L 581 4863 
L 1159 4863 
L 1159 2956 
Q 1366 3272 1645 3428 
Q 1925 3584 2291 3584 
Q 2894 3584 3203 3211 
Q 3513 2838 3513 2113 
z
" transform="scale(0.015625)"/>
       <path id="DejaVuSans-73" d="M 2834 3397 
L 2834 2853 
Q 2591 2978 2328 3040 
Q 2066 3103 1784 3103 
Q 1356 3103 1142 2972 
Q 928 2841 928 2578 
Q 928 2378 1081 2264 
Q 1234 2150 1697 2047 
L 1894 2003 
Q 2506 1872 2764 1633 
Q 3022 1394 3022 966 
Q 3022 478 2636 193 
Q 2250 -91 1575 -91 
Q 1294 -91 989 -36 
Q 684 19 347 128 
L 347 722 
Q 666 556 975 473 
Q 1284 391 1588 391 
Q 1994 391 2212 530 
Q 2431 669 2431 922 
Q 2431 1156 2273 1281 
Q 2116 1406 1581 1522 
L 1381 1569 
Q 847 1681 609 1914 
Q 372 2147 372 2553 
Q 372 3047 722 3315 
Q 1072 3584 1716 3584 
Q 2034 3584 2315 3537 
Q 2597 3491 2834 3397 
z
" transform="scale(0.015625)"/>
      </defs>
      <use xlink:href="#DejaVuSans-45"/>
      <use xlink:href="#DejaVuSans-70" x="63.183594"/>
      <use xlink:href="#DejaVuSans-6f" x="126.660156"/>
      <use xlink:href="#DejaVuSans-63" x="187.841797"/>
      <use xlink:href="#DejaVuSans-68" x="242.822266"/>
      <use xlink:href="#DejaVuSans-73" x="306.201172"/>
     </g>
    </g>
   </g>
   <g id="matplotlib.axis_2">
    <g id="ytick_1">
     <g id="line2d_11">
      <defs>
       <path id="ma1bc32c66b" d="M 0 0 
L -3.5 0 
" style="stroke: #000000; stroke-width: 0.8"/>
      </defs>
      <g>
       <use xlink:href="#ma1bc32c66b" x="57.6" y="284.456858" style="stroke: #000000; stroke-width: 0.8"/>
      </g>
     </g>
     <g id="text_12">
      <!-- 10 -->
      <g transform="translate(37.875 288.256077) scale(0.1 -0.1)">
       <use xlink:href="#DejaVuSans-31"/>
       <use xlink:href="#DejaVuSans-30" x="63.623047"/>
      </g>
     </g>
    </g>
    <g id="ytick_2">
     <g id="line2d_12">
      <g>
       <use xlink:href="#ma1bc32c66b" x="57.6" y="253.931751" style="stroke: #000000; stroke-width: 0.8"/>
      </g>
     </g>
     <g id="text_13">
      <!-- 20 -->
      <g transform="translate(37.875 257.730969) scale(0.1 -0.1)">
       <use xlink:href="#DejaVuSans-32"/>
       <use xlink:href="#DejaVuSans-30" x="63.623047"/>
      </g>
     </g>
    </g>
    <g id="ytick_3">
     <g id="line2d_13">
      <g>
       <use xlink:href="#ma1bc32c66b" x="57.6" y="223.406644" style="stroke: #000000; stroke-width: 0.8"/>
      </g>
     </g>
     <g id="text_14">
      <!-- 30 -->
      <g transform="translate(37.875 227.205862) scale(0.1 -0.1)">
       <use xlink:href="#DejaVuSans-33"/>
       <use xlink:href="#DejaVuSans-30" x="63.623047"/>
      </g>
     </g>
    </g>
    <g id="ytick_4">
     <g id="line2d_14">
      <g>
       <use xlink:href="#ma1bc32c66b" x="57.6" y="192.881536" style="stroke: #000000; stroke-width: 0.8"/>
      </g>
     </g>
     <g id="text_15">
      <!-- 40 -->
      <g transform="translate(37.875 196.680755) scale(0.1 -0.1)">
       <use xlink:href="#DejaVuSans-34"/>
       <use xlink:href="#DejaVuSans-30" x="63.623047"/>
      </g>
     </g>
    </g>
    <g id="ytick_5">
     <g id="line2d_15">
      <g>
       <use xlink:href="#ma1bc32c66b" x="57.6" y="162.356429" style="stroke: #000000; stroke-width: 0.8"/>
      </g>
     </g>
     <g id="text_16">
      <!-- 50 -->
      <g transform="translate(37.875 166.155648) scale(0.1 -0.1)">
       <defs>
        <path id="DejaVuSans-35" d="M 691 4666 
L 3169 4666 
L 3169 4134 
L 1269 4134 
L 1269 2991 
Q 1406 3038 1543 3061 
Q 1681 3084 1819 3084 
Q 2600 3084 3056 2656 
Q 3513 2228 3513 1497 
Q 3513 744 3044 326 
Q 2575 -91 1722 -91 
Q 1428 -91 1123 -41 
Q 819 9 494 109 
L 494 744 
Q 775 591 1075 516 
Q 1375 441 1709 441 
Q 2250 441 2565 725 
Q 2881 1009 2881 1497 
Q 2881 1984 2565 2268 
Q 2250 2553 1709 2553 
Q 1456 2553 1204 2497 
Q 953 2441 691 2322 
L 691 4666 
z
" transform="scale(0.015625)"/>
       </defs>
       <use xlink:href="#DejaVuSans-35"/>
       <use xlink:href="#DejaVuSans-30" x="63.623047"/>
      </g>
     </g>
    </g>
    <g id="ytick_6">
     <g id="line2d_16">
      <g>
       <use xlink:href="#ma1bc32c66b" x="57.6" y="131.831322" style="stroke: #000000; stroke-width: 0.8"/>
      </g>
     </g>
     <g id="text_17">
      <!-- 60 -->
      <g transform="translate(37.875 135.630541) scale(0.1 -0.1)">
       <use xlink:href="#DejaVuSans-36"/>
       <use xlink:href="#DejaVuSans-30" x="63.623047"/>
      </g>
     </g>
    </g>
    <g id="ytick_7">
     <g id="line2d_17">
      <g>
       <use xlink:href="#ma1bc32c66b" x="57.6" y="101.306215" style="stroke: #000000; stroke-width: 0.8"/>
      </g>
     </g>
     <g id="text_18">
      <!-- 70 -->
      <g transform="translate(37.875 105.105434) scale(0.1 -0.1)">
       <use xlink:href="#DejaVuSans-37"/>
       <use xlink:href="#DejaVuSans-30" x="63.623047"/>
      </g>
     </g>
    </g>
    <g id="ytick_8">
     <g id="line2d_18">
      <g>
       <use xlink:href="#ma1bc32c66b" x="57.6" y="70.781108" style="stroke: #000000; stroke-width: 0.8"/>
      </g>
     </g>
     <g id="text_19">
      <!-- 80 -->
      <g transform="translate(37.875 74.580327) scale(0.1 -0.1)">
       <defs>
        <path id="DejaVuSans-38" d="M 2034 2216 
Q 1584 2216 1326 1975 
Q 1069 1734 1069 1313 
Q 1069 891 1326 650 
Q 1584 409 2034 409 
Q 2484 409 2743 651 
Q 3003 894 3003 1313 
Q 3003 1734 2745 1975 
Q 2488 2216 2034 2216 
z
M 1403 2484 
Q 997 2584 770 2862 
Q 544 3141 544 3541 
Q 544 4100 942 4425 
Q 1341 4750 2034 4750 
Q 2731 4750 3128 4425 
Q 3525 4100 3525 3541 
Q 3525 3141 3298 2862 
Q 3072 2584 2669 2484 
Q 3125 2378 3379 2068 
Q 3634 1759 3634 1313 
Q 3634 634 3220 271 
Q 2806 -91 2034 -91 
Q 1263 -91 848 271 
Q 434 634 434 1313 
Q 434 1759 690 2068 
Q 947 2378 1403 2484 
z
M 1172 3481 
Q 1172 3119 1398 2916 
Q 1625 2713 2034 2713 
Q 2441 2713 2670 2916 
Q 2900 3119 2900 3481 
Q 2900 3844 2670 4047 
Q 2441 4250 2034 4250 
Q 1625 4250 1398 4047 
Q 1172 3844 1172 3481 
z
" transform="scale(0.015625)"/>
       </defs>
       <use xlink:href="#DejaVuSans-38"/>
       <use xlink:href="#DejaVuSans-30" x="63.623047"/>
      </g>
     </g>
    </g>
    <g id="text_20">
     <!-- Accuracy -->
     <g transform="translate(31.795312 197.356125) rotate(-90) scale(0.1 -0.1)">
      <defs>
       <path id="DejaVuSans-41" d="M 2188 4044 
L 1331 1722 
L 3047 1722 
L 2188 4044 
z
M 1831 4666 
L 2547 4666 
L 4325 0 
L 3669 0 
L 3244 1197 
L 1141 1197 
L 716 0 
L 50 0 
L 1831 4666 
z
" transform="scale(0.015625)"/>
       <path id="DejaVuSans-75" d="M 544 1381 
L 544 3500 
L 1119 3500 
L 1119 1403 
Q 1119 906 1312 657 
Q 1506 409 1894 409 
Q 2359 409 2629 706 
Q 2900 1003 2900 1516 
L 2900 3500 
L 3475 3500 
L 3475 0 
L 2900 0 
L 2900 538 
Q 2691 219 2414 64 
Q 2138 -91 1772 -91 
Q 1169 -91 856 284 
Q 544 659 544 1381 
z
M 1991 3584 
L 1991 3584 
z
" transform="scale(0.015625)"/>
       <path id="DejaVuSans-72" d="M 2631 2963 
Q 2534 3019 2420 3045 
Q 2306 3072 2169 3072 
Q 1681 3072 1420 2755 
Q 1159 2438 1159 1844 
L 1159 0 
L 581 0 
L 581 3500 
L 1159 3500 
L 1159 2956 
Q 1341 3275 1631 3429 
Q 1922 3584 2338 3584 
Q 2397 3584 2469 3576 
Q 2541 3569 2628 3553 
L 2631 2963 
z
" transform="scale(0.015625)"/>
       <path id="DejaVuSans-61" d="M 2194 1759 
Q 1497 1759 1228 1600 
Q 959 1441 959 1056 
Q 959 750 1161 570 
Q 1363 391 1709 391 
Q 2188 391 2477 730 
Q 2766 1069 2766 1631 
L 2766 1759 
L 2194 1759 
z
M 3341 1997 
L 3341 0 
L 2766 0 
L 2766 531 
Q 2569 213 2275 61 
Q 1981 -91 1556 -91 
Q 1019 -91 701 211 
Q 384 513 384 1019 
Q 384 1609 779 1909 
Q 1175 2209 1959 2209 
L 2766 2209 
L 2766 2266 
Q 2766 2663 2505 2880 
Q 2244 3097 1772 3097 
Q 1472 3097 1187 3025 
Q 903 2953 641 2809 
L 641 3341 
Q 956 3463 1253 3523 
Q 1550 3584 1831 3584 
Q 2591 3584 2966 3190 
Q 3341 2797 3341 1997 
z
" transform="scale(0.015625)"/>
       <path id="DejaVuSans-79" d="M 2059 -325 
Q 1816 -950 1584 -1140 
Q 1353 -1331 966 -1331 
L 506 -1331 
L 506 -850 
L 844 -850 
Q 1081 -850 1212 -737 
Q 1344 -625 1503 -206 
L 1606 56 
L 191 3500 
L 800 3500 
L 1894 763 
L 2988 3500 
L 3597 3500 
L 2059 -325 
z
" transform="scale(0.015625)"/>
      </defs>
      <use xlink:href="#DejaVuSans-41"/>
      <use xlink:href="#DejaVuSans-63" x="66.658203"/>
      <use xlink:href="#DejaVuSans-63" x="121.638672"/>
      <use xlink:href="#DejaVuSans-75" x="176.619141"/>
      <use xlink:href="#DejaVuSans-72" x="239.998047"/>
      <use xlink:href="#DejaVuSans-61" x="281.111328"/>
      <use xlink:href="#DejaVuSans-63" x="342.390625"/>
      <use xlink:href="#DejaVuSans-79" x="397.371094"/>
     </g>
    </g>
   </g>
   <g id="line2d_19">
    <path d="M 73.832727 285.326823 
L 74.918528 250.546516 
L 76.00433 228.705802 
L 77.090131 212.069619 
L 78.175932 199.771053 
L 79.261733 189.868708 
L 81.433335 174.026178 
L 83.604938 159.340549 
L 84.690739 154.297801 
L 85.77654 150.085336 
L 86.862341 144.160413 
L 90.119745 133.119482 
L 92.291347 126.571846 
L 93.377148 125.817876 
L 94.462949 124.184783 
L 95.54875 157.716613 
L 96.634552 155.625643 
L 99.891955 146.425376 
L 100.977756 145.079219 
L 102.063557 142.63721 
L 103.149358 139.18482 
L 104.23516 136.355143 
L 105.320961 135.472967 
L 106.406762 133.452205 
L 107.492563 129.74951 
L 108.578364 129.029117 
L 109.664165 126.226913 
L 110.749967 124.184783 
L 111.835768 122.438747 
L 116.178972 113.678041 
L 118.350575 110.646898 
L 119.436376 107.887428 
L 120.522177 105.955189 
L 121.607978 103.497918 
L 122.693779 103.424657 
L 123.77958 100.366042 
L 128.122785 92.228048 
L 129.208586 92.02353 
L 130.294387 89.413633 
L 131.380189 87.859905 
L 132.46599 87.261613 
L 134.637592 85.469789 
L 136.809194 83.201774 
L 137.894995 83.5986 
L 138.980797 123.009566 
L 140.066598 124.828863 
L 142.2382 122.780628 
L 143.324001 122.621897 
L 144.409802 121.342895 
L 145.495604 120.482087 
L 146.581405 119.892953 
L 147.667206 118.47964 
L 148.753007 118.107234 
L 149.838808 116.82518 
L 150.924609 116.330673 
L 152.01041 114.682317 
L 153.096212 114.474746 
L 155.267814 112.228098 
L 156.353615 111.748854 
L 157.439416 110.659108 
L 158.525217 109.743355 
L 159.611019 109.004647 
L 160.69682 108.101104 
L 161.782621 107.429552 
L 162.868422 106.590111 
L 163.954223 105.524785 
L 166.125825 103.787906 
L 167.211627 102.539429 
L 168.297428 102.331859 
L 169.383229 100.848338 
L 170.46903 100.698765 
L 171.554831 99.957005 
L 172.640632 98.888627 
L 173.726434 98.186549 
L 174.812235 97.1548 
L 175.898036 95.830011 
L 176.983837 95.268349 
L 178.069638 94.303755 
L 179.155439 93.516208 
L 180.24124 92.267731 
L 182.412843 90.274441 
L 183.498644 89.471631 
L 184.584445 88.909969 
L 185.670246 87.472236 
L 186.756047 86.828157 
L 187.841849 85.420949 
L 188.92765 84.779922 
L 190.013451 83.760383 
L 192.185053 80.982599 
L 194.356656 79.227405 
L 197.614059 75.65902 
L 199.785661 74.172447 
L 200.871462 72.548512 
L 201.957264 72.200525 
L 204.128866 69.413583 
L 205.214667 69.083912 
L 206.300468 67.447766 
L 207.386269 67.084517 
L 208.472071 65.869618 
L 209.557872 66.28476 
L 210.643673 64.379993 
L 211.729474 64.492936 
L 212.815275 63.055203 
L 213.901076 62.23713 
L 214.986877 62.124188 
L 216.072679 61.013074 
L 217.15848 60.625405 
L 218.244281 60.738348 
L 219.330082 60.497199 
L 220.415883 60.103425 
L 221.501684 60.295734 
L 222.587486 59.599761 
L 223.673287 59.383033 
L 224.759088 59.639444 
L 225.844889 108.980227 
L 226.93069 112.081578 
L 228.016491 111.132247 
L 229.102292 111.483286 
L 230.188094 110.234809 
L 231.273895 109.673147 
L 232.359696 109.639569 
L 234.531298 108.253729 
L 235.617099 108.293412 
L 236.702901 107.225033 
L 237.788702 106.907572 
L 238.874503 105.869719 
L 241.046105 105.747618 
L 242.131906 105.057751 
L 243.217708 104.10842 
L 244.303509 103.665806 
L 245.38931 103.47655 
L 246.475111 102.978991 
L 247.560912 103.030884 
L 248.646713 101.800722 
L 249.732514 101.690831 
L 250.818316 100.765921 
L 251.904117 101.101697 
L 252.989918 100.845286 
L 255.16152 99.76775 
L 256.247321 99.505234 
L 257.333123 100.100473 
L 258.418924 99.059567 
L 259.504725 98.571165 
L 260.590526 98.754316 
L 261.676327 98.094974 
L 262.762128 98.082764 
L 263.847929 97.395949 
L 264.933731 97.936243 
L 266.019532 96.614506 
L 267.105333 97.1548 
L 268.191134 95.976531 
L 269.276935 95.958216 
L 270.362736 94.605954 
L 271.448538 95.52476 
L 272.534339 94.557114 
L 273.62014 94.804367 
L 275.791742 93.702411 
L 276.877543 93.479578 
L 277.963344 93.522313 
L 281.220748 91.846484 
L 282.306549 92.124263 
L 283.39235 91.000939 
L 284.478151 90.485065 
L 285.563953 90.73537 
L 287.735555 89.416686 
L 288.821356 89.514366 
L 289.907157 89.10533 
L 290.992958 88.314729 
L 292.07876 89.035122 
L 293.164561 88.018636 
L 294.250362 87.649282 
L 295.336163 86.767107 
L 296.421964 87.203616 
L 297.507765 85.906298 
L 298.593566 86.135237 
L 299.679368 85.146223 
L 300.765169 84.679189 
L 301.85097 84.82571 
L 302.936771 84.117527 
L 304.022572 83.104094 
L 305.108373 83.284192 
L 306.194175 82.435594 
L 307.279976 83.064411 
L 308.365777 82.374544 
L 309.451578 80.829973 
L 310.537379 81.443528 
L 311.62318 80.457567 
L 312.708981 80.576615 
L 313.794783 80.561352 
L 314.880584 78.989309 
L 315.966385 79.071727 
L 317.052186 78.482592 
L 318.137987 77.603469 
L 320.30959 76.055846 
L 321.395391 76.214577 
L 322.481192 75.268299 
L 323.566993 74.703584 
L 325.738595 74.10224 
L 326.824396 74.09003 
L 327.910198 72.856815 
L 328.995999 72.224945 
L 330.0818 71.895274 
L 331.167601 71.803699 
L 332.253402 70.994784 
L 333.339203 70.570485 
L 334.425005 69.199907 
L 335.510806 68.702348 
L 336.596607 69.425793 
L 338.768209 67.340928 
L 339.85401 66.556433 
L 343.111414 64.883657 
L 344.197215 64.532618 
L 345.283016 63.601603 
L 346.368817 63.122359 
L 348.54042 62.405019 
L 349.626221 62.343968 
L 350.712022 60.573512 
L 351.797823 60.152266 
L 352.883624 59.929432 
L 355.055227 58.580223 
L 356.141028 58.458122 
L 358.31263 57.542369 
L 359.398431 56.834186 
L 360.484232 55.80549 
L 361.570033 55.436137 
L 362.655835 55.448347 
L 363.741636 54.593644 
L 364.827437 54.633326 
L 365.913238 53.772518 
L 366.999039 53.568 
L 368.08484 54.453228 
L 369.170642 55.561289 
L 370.256443 57.728572 
L 371.342244 58.815266 
L 372.428045 61.165699 
L 373.513846 62.01735 
L 374.599647 61.51979 
L 375.685448 61.846409 
L 376.77125 61.589998 
L 377.857051 62.00514 
L 378.942852 61.690731 
L 380.028653 62.221868 
L 381.114454 62.472174 
L 382.200255 62.517961 
L 383.286057 61.889144 
L 384.371858 62.481331 
L 385.457659 62.91784 
L 386.54346 62.517961 
L 387.629261 62.69806 
L 388.715062 62.493541 
L 390.886665 62.643114 
L 391.972466 62.862895 
L 393.058267 62.530171 
L 395.229869 62.383651 
L 396.31567 62.862895 
L 397.401472 62.10282 
L 398.487273 63.168146 
L 398.487273 63.168146 
" clip-path="url(#p4e35428693)" style="fill: none; stroke: #1f77b4; stroke-width: 1.5; stroke-linecap: square"/>
   </g>
   <g id="line2d_20">
    <path d="M 73.832727 271.727888 
L 74.918528 248.681432 
L 76.00433 238.699722 
L 77.090131 229.877966 
L 78.175932 211.776578 
L 79.261733 206.617835 
L 80.347534 194.468842 
L 81.433335 185.494461 
L 82.519137 185.25026 
L 83.604938 186.349164 
L 84.690739 171.20871 
L 85.77654 170.018231 
L 86.862341 166.477319 
L 87.948142 164.371086 
L 89.033943 156.648234 
L 90.119745 152.49682 
L 91.205546 152.527345 
L 92.291347 149.68851 
L 93.377148 148.070679 
L 94.462949 148.223305 
L 95.54875 185.37236 
L 97.720353 169.560355 
L 98.806154 179.69469 
L 99.891955 179.725215 
L 100.977756 167.423597 
L 102.063557 166.660469 
L 103.149358 161.410151 
L 104.23516 160.524923 
L 105.320961 160.494398 
L 106.406762 154.023075 
L 107.492563 152.985221 
L 108.578364 153.382048 
L 109.664165 152.038943 
L 110.749967 145.750771 
L 111.835768 146.239173 
L 112.921569 147.582277 
L 114.00737 140.317302 
L 115.093171 136.806915 
L 116.178972 132.258674 
L 117.264773 133.998605 
L 118.350575 129.511414 
L 119.436376 132.869176 
L 120.522177 128.900912 
L 121.607978 126.825205 
L 122.693779 125.665251 
L 123.77958 123.467443 
L 124.865382 123.101142 
L 125.951183 123.742169 
L 127.036984 119.773905 
L 128.122785 119.010777 
L 129.208586 119.316028 
L 130.294387 116.812969 
L 131.380189 117.240321 
L 132.46599 114.920413 
L 133.551791 114.920413 
L 134.637592 113.913084 
L 135.723393 113.546783 
L 136.809194 114.035185 
L 137.894995 114.24886 
L 138.980797 146.513899 
L 140.066598 151.001089 
L 141.152399 152.61892 
L 142.2382 147.673853 
L 143.324001 150.085336 
L 144.409802 145.50657 
L 146.581405 149.474834 
L 147.667206 139.157348 
L 148.753007 142.087758 
L 149.838808 142.393009 
L 150.924609 140.866754 
L 152.01041 135.158559 
L 153.096212 137.325841 
L 154.182013 135.158559 
L 155.267814 135.433285 
L 156.353615 136.471138 
L 157.439416 134.15123 
L 158.525217 135.280659 
L 159.611019 137.753193 
L 160.69682 136.410088 
L 161.782621 128.992487 
L 162.868422 133.082852 
L 163.954223 130.915569 
L 165.040024 130.762943 
L 166.125825 136.196412 
L 167.211627 131.495546 
L 168.297428 125.512625 
L 169.383229 129.90824 
L 170.46903 126.794679 
L 171.554831 126.825205 
L 172.640632 125.54315 
L 173.726434 122.856941 
L 174.812235 127.374657 
L 175.898036 125.756826 
L 176.983837 121.910662 
L 178.069638 123.284292 
L 179.155439 121.758037 
L 181.327042 122.032763 
L 182.412843 116.416143 
L 183.498644 121.880137 
L 184.584445 120.872809 
L 185.670246 121.422261 
L 186.756047 117.118221 
L 187.841849 120.750708 
L 188.92765 119.071827 
L 191.099252 113.394157 
L 192.185053 114.859363 
L 193.270854 116.080367 
L 194.356656 114.18781 
L 195.442457 112.600505 
L 196.528258 111.654226 
L 197.614059 111.165825 
L 198.69986 110.494272 
L 199.785661 109.029067 
L 200.871462 109.181693 
L 201.957264 109.120642 
L 203.043065 108.174364 
L 204.128866 108.571191 
L 205.214667 107.319661 
L 206.300468 105.030278 
L 207.386269 103.534548 
L 208.472071 105.243954 
L 209.557872 105.366054 
L 210.643673 102.344069 
L 211.729474 102.221968 
L 212.815275 101.245165 
L 213.901076 103.381922 
L 214.986877 101.39779 
L 216.072679 100.878864 
L 217.15848 100.146261 
L 218.244281 99.871535 
L 219.330082 99.810485 
L 220.415883 99.261033 
L 221.501684 99.932585 
L 222.587486 99.90206 
L 224.759088 99.169458 
L 225.844889 144.621342 
L 226.93069 141.782507 
L 228.016491 142.423534 
L 229.102292 139.432074 
L 230.188094 139.76785 
L 231.273895 142.209859 
L 233.445497 137.661618 
L 234.531298 142.51511 
L 235.617099 133.174427 
L 236.702901 146.8802 
L 238.874503 131.800797 
L 239.960304 135.708011 
L 241.046105 136.593239 
L 242.131906 139.676275 
L 243.217708 134.02913 
L 244.303509 131.831322 
L 245.38931 138.729996 
L 246.475111 134.517532 
L 247.560912 132.197623 
L 248.646713 135.250134 
L 249.732514 135.189084 
L 250.818316 136.196412 
L 251.904117 136.684814 
L 252.989918 137.508992 
L 254.075719 137.814243 
L 255.16152 131.770272 
L 256.247321 142.057233 
L 257.333123 127.832533 
L 258.418924 132.991276 
L 259.504725 129.236688 
L 260.590526 128.015684 
L 261.676327 134.303856 
L 262.762128 126.91678 
L 263.847929 128.839862 
L 264.933731 134.456481 
L 266.019532 135.52486 
L 267.105333 136.77639 
L 268.191134 132.228149 
L 269.276935 129.206163 
L 270.362736 129.206163 
L 271.448538 127.222031 
L 272.534339 127.405182 
L 273.62014 127.954634 
L 274.705941 136.196412 
L 275.791742 129.236688 
L 276.877543 124.810548 
L 277.963344 125.359999 
L 279.049146 127.069405 
L 280.134947 122.185388 
L 281.220748 130.427167 
L 282.306549 124.474771 
L 283.39235 130.274542 
L 284.478151 131.007144 
L 285.563953 131.403971 
L 286.649754 121.574886 
L 287.735555 124.871598 
L 288.821356 124.261096 
L 289.907157 126.153652 
L 290.992958 121.30016 
L 292.07876 139.248923 
L 293.164561 125.451575 
L 294.250362 122.948516 
L 295.336163 123.070616 
L 296.421964 127.924108 
L 297.507765 123.406393 
L 298.593566 123.925319 
L 299.679368 126.306278 
L 300.765169 119.987581 
L 301.85097 121.208585 
L 302.936771 121.635936 
L 304.022572 122.61274 
L 305.108373 116.904545 
L 306.194175 115.43934 
L 307.279976 115.62249 
L 308.365777 120.567558 
L 309.451578 123.650593 
L 310.537379 118.797101 
L 311.62318 118.980252 
L 312.708981 119.80443 
L 313.794783 114.523586 
L 314.880584 116.263518 
L 315.966385 122.856941 
L 317.052186 118.797101 
L 318.137987 116.843495 
L 319.223788 112.966806 
L 320.30959 118.095024 
L 321.395391 114.523586 
L 322.481192 115.286714 
L 323.566993 118.827627 
L 324.652794 115.286714 
L 325.738595 114.889888 
L 326.824396 111.471076 
L 327.910198 114.370961 
L 328.995999 114.24886 
L 330.0818 108.51014 
L 331.167601 114.00466 
L 332.253402 115.286714 
L 333.339203 113.790984 
L 334.425005 108.693291 
L 335.510806 111.043724 
L 336.596607 110.860574 
L 337.682408 109.670094 
L 338.768209 109.212218 
L 339.85401 110.433222 
L 340.939811 107.167036 
L 342.025613 108.38804 
L 343.111414 108.418565 
L 344.197215 107.624912 
L 345.283016 106.342858 
L 347.454618 107.380711 
L 348.54042 104.663977 
L 349.626221 103.870324 
L 350.712022 106.526008 
L 351.797823 104.999753 
L 352.883624 105.396579 
L 355.055227 105.427105 
L 356.141028 108.296465 
L 357.226829 104.511351 
L 358.31263 103.198772 
L 359.398431 104.450301 
L 360.484232 103.198772 
L 361.570033 103.168247 
L 362.655835 100.390462 
L 363.741636 100.176786 
L 364.827437 100.817813 
L 365.913238 101.611466 
L 366.999039 99.657859 
L 368.08484 101.306215 
L 369.170642 100.756763 
L 370.256443 104.786077 
L 371.342244 105.091328 
L 372.428045 109.517469 
L 373.513846 107.380711 
L 374.599647 109.88377 
L 375.685448 105.793406 
L 376.77125 105.060803 
L 377.857051 111.013199 
L 378.942852 109.151168 
L 380.028653 108.662766 
L 381.114454 106.281808 
L 382.200255 107.380711 
L 383.286057 107.624912 
L 384.371858 108.662766 
L 385.457659 107.380711 
L 387.629261 109.059592 
L 388.715062 107.319661 
L 389.800863 110.585848 
L 390.886665 107.685962 
L 391.972466 111.348975 
L 393.058267 105.823931 
L 394.144068 107.197561 
L 395.229869 107.105985 
L 396.31567 110.097446 
L 397.401472 108.571191 
L 398.487273 112.142628 
L 398.487273 112.142628 
" clip-path="url(#p4e35428693)" style="fill: none; stroke: #ff7f0e; stroke-width: 1.5; stroke-linecap: square"/>
   </g>
   <g id="line2d_21">
    <path d="M 73.832727 295.488 
L 74.918528 286.225209 
L 76.00433 287.088333 
L 77.090131 280.078084 
L 78.175932 275.909828 
L 79.261733 276.52033 
L 80.347534 275.173015 
L 81.433335 268.478543 
L 82.519137 265.194463 
L 83.604938 277.488713 
L 84.690739 261.678812 
L 85.77654 261.489346 
L 86.862341 263.805044 
L 87.948142 263.741889 
L 89.033943 258.036851 
L 90.119745 255.594843 
L 91.205546 255.026444 
L 92.291347 255.636946 
L 93.377148 254.963289 
L 94.462949 254.605408 
L 95.54875 266.226001 
L 96.634552 264.689219 
L 97.720353 258.499991 
L 98.806154 267.425953 
L 99.891955 263.952407 
L 100.977756 259.931513 
L 102.063557 259.047338 
L 103.149358 262.415625 
L 104.23516 257.173728 
L 105.320961 253.300197 
L 106.406762 252.205503 
L 107.492563 253.889647 
L 108.578364 250.773981 
L 109.664165 252.205503 
L 110.749967 248.54249 
L 111.835768 253.026523 
L 112.921569 246.416259 
L 114.00737 249.068785 
L 115.093171 241.132258 
L 116.178972 242.942712 
L 117.264773 242.900609 
L 118.350575 238.732353 
L 119.436376 243.300593 
L 120.522177 240.479652 
L 121.607978 239.40601 
L 122.693779 236.837691 
L 123.77958 233.700973 
L 124.865382 235.595635 
L 125.951183 236.079826 
L 127.036984 230.985291 
L 128.122785 231.195809 
L 129.208586 233.679921 
L 130.294387 228.838007 
L 131.380189 229.827442 
L 132.46599 229.21694 
L 133.551791 229.427458 
L 134.637592 227.469641 
L 135.723393 228.98537 
L 136.809194 228.39592 
L 137.894995 229.132733 
L 138.980797 247.468849 
L 140.066598 251.447639 
L 141.152399 250.479256 
L 142.2382 247.342538 
L 143.324001 248.584594 
L 144.409802 248.374076 
L 145.495604 250.4161 
L 146.581405 252.773902 
L 147.667206 238.479731 
L 148.753007 248.226713 
L 149.838808 242.626935 
L 150.924609 240.416496 
L 152.01041 243.026919 
L 153.096212 242.92166 
L 154.182013 235.785101 
L 155.267814 241.490138 
L 156.353615 242.290106 
L 157.439416 238.395524 
L 158.525217 233.090471 
L 159.611019 244.584752 
L 160.69682 243.490059 
L 161.782621 236.12193 
L 162.868422 243.132178 
L 163.954223 233.19573 
L 165.040024 239.679683 
L 166.125825 237.448193 
L 167.211627 238.35342 
L 168.297428 232.079984 
L 169.383229 235.511427 
L 170.46903 230.901084 
L 171.554831 235.679842 
L 172.640632 235.06934 
L 173.726434 233.090471 
L 174.812235 232.858901 
L 175.898036 234.227268 
L 176.983837 230.143219 
L 178.069638 233.869387 
L 179.155439 232.795745 
L 180.24124 233.090471 
L 181.327042 229.80639 
L 182.412843 230.332685 
L 183.498644 231.827363 
L 184.584445 231.237912 
L 185.670246 231.637897 
L 186.756047 227.638055 
L 187.841849 231.764207 
L 188.92765 234.816718 
L 190.013451 227.364382 
L 191.099252 220.796221 
L 192.185053 226.901242 
L 193.270854 225.448668 
L 194.356656 228.038039 
L 195.442457 225.511823 
L 196.528258 221.95407 
L 197.614059 225.617082 
L 198.69986 225.764445 
L 199.785661 219.343647 
L 200.871462 225.322357 
L 201.957264 221.911966 
L 203.043065 220.059408 
L 204.128866 222.31195 
L 206.300468 223.027711 
L 207.386269 216.901638 
L 208.472071 221.217257 
L 209.557872 221.848811 
L 210.643673 217.827917 
L 211.729474 217.470037 
L 212.815275 215.028028 
L 213.901076 219.512061 
L 214.986877 217.870021 
L 216.072679 216.017462 
L 218.244281 216.670068 
L 219.330082 214.691199 
L 220.415883 215.343805 
L 221.501684 214.691199 
L 222.587486 215.343805 
L 223.673287 214.35437 
L 224.759088 214.901717 
L 225.844889 250.710826 
L 226.93069 236.437707 
L 228.016491 247.447797 
L 229.102292 241.763811 
L 230.188094 243.258489 
L 231.273895 251.889726 
L 232.359696 236.458758 
L 233.445497 242.647987 
L 234.531298 245.574187 
L 235.617099 235.448272 
L 236.702901 243.195334 
L 237.788702 237.385037 
L 238.874503 233.616766 
L 241.046105 242.248003 
L 242.131906 247.005709 
L 243.217708 238.079747 
L 244.303509 235.237754 
L 245.38931 245.279462 
L 246.475111 241.111206 
L 247.560912 238.900767 
L 248.646713 235.637738 
L 249.732514 235.19565 
L 250.818316 245.237358 
L 251.904117 232.101036 
L 252.989918 241.405931 
L 254.075719 238.963922 
L 255.16152 236.900846 
L 256.247321 244.121613 
L 257.333123 230.522151 
L 258.418924 240.963843 
L 259.504725 230.943187 
L 260.590526 233.300989 
L 261.676327 239.216544 
L 262.762128 225.785497 
L 263.847929 238.732353 
L 264.933731 233.658869 
L 266.019532 241.384879 
L 267.105333 241.890122 
L 268.191134 238.35342 
L 269.276935 228.732748 
L 270.362736 231.595793 
L 271.448538 234.079905 
L 272.534339 238.374472 
L 274.705941 241.195413 
L 275.791742 239.511269 
L 276.877543 235.027236 
L 277.963344 229.259043 
L 279.049146 229.953753 
L 280.134947 224.396078 
L 281.220748 234.732511 
L 282.306549 232.774694 
L 283.39235 234.753563 
L 284.478151 239.342855 
L 285.563953 238.142902 
L 286.649754 232.37471 
L 288.821356 226.05917 
L 289.907157 231.658948 
L 290.992958 227.195967 
L 292.07876 246.395207 
L 293.164561 234.879873 
L 294.250362 233.995698 
L 295.336163 235.448272 
L 296.421964 233.406248 
L 297.507765 231.827363 
L 298.593566 229.595872 
L 299.679368 235.911412 
L 300.765169 227.259123 
L 301.85097 229.364302 
L 302.936771 227.006501 
L 304.022572 222.206691 
L 305.108373 222.964556 
L 306.194175 223.427695 
L 307.279976 217.680555 
L 309.451578 231.385275 
L 310.537379 226.374947 
L 311.62318 226.269688 
L 312.708981 223.659265 
L 313.794783 225.448668 
L 314.880584 224.669751 
L 315.966385 235.364065 
L 317.052186 231.848415 
L 318.137987 224.880269 
L 319.223788 226.774931 
L 320.30959 224.332923 
L 321.395391 223.701369 
L 322.481192 218.248953 
L 323.566993 230.5011 
L 324.652794 228.269609 
L 325.738595 231.364223 
L 326.824396 218.206849 
L 327.910198 224.101353 
L 328.995999 225.574979 
L 330.0818 218.480523 
L 331.167601 222.796141 
L 332.253402 227.827521 
L 333.339203 223.95399 
L 334.425005 221.848811 
L 335.510806 216.943742 
L 336.596607 221.554085 
L 337.682408 217.175311 
L 338.768209 220.396236 
L 339.85401 218.775248 
L 340.939811 212.733382 
L 343.111414 219.912045 
L 344.197215 218.10159 
L 345.283016 218.459471 
L 346.368817 217.406881 
L 347.454618 220.66991 
L 348.54042 214.670147 
L 349.626221 214.712251 
L 350.712022 219.196284 
L 351.797823 214.480681 
L 352.883624 214.796458 
L 353.969425 212.691278 
L 355.055227 217.891072 
L 356.141028 212.12288 
L 357.226829 216.143773 
L 358.31263 216.291136 
L 359.398431 216.22798 
L 360.484232 218.164746 
L 361.570033 213.701765 
L 362.655835 215.975359 
L 363.741636 211.470274 
L 364.827437 213.53335 
L 365.913238 213.617557 
L 366.999039 213.007055 
L 368.08484 214.943821 
L 369.170642 214.101749 
L 370.256443 221.322516 
L 371.342244 218.838403 
L 372.428045 224.6487 
L 373.513846 221.638293 
L 374.599647 222.354054 
L 375.685448 217.827917 
L 376.77125 216.649016 
L 377.857051 223.36454 
L 378.942852 217.701606 
L 380.028653 217.891072 
L 381.114454 217.196363 
L 382.200255 216.775327 
L 383.286057 220.606754 
L 384.371858 216.880586 
L 385.457659 221.743552 
L 386.54346 219.02787 
L 387.629261 224.101353 
L 388.715062 216.45955 
L 389.800863 216.10167 
L 390.886665 221.343567 
L 391.972466 220.838324 
L 393.058267 217.133208 
L 394.144068 216.017462 
L 395.229869 220.375185 
L 396.31567 214.333319 
L 397.401472 220.417288 
L 398.487273 224.901321 
L 398.487273 224.901321 
" clip-path="url(#p4e35428693)" style="fill: none; stroke: #2ca02c; stroke-width: 1.5; stroke-linecap: square"/>
   </g>
   <g id="line2d_22">
    <path d="M 368.08484 100.298887 
L 369.170642 100.817813 
L 370.256443 110.402697 
L 371.342244 108.968017 
L 372.428045 113.424683 
L 373.513846 114.12676 
L 374.599647 108.632241 
L 375.685448 112.661555 
L 376.77125 113.729934 
L 377.857051 112.905756 
L 378.942852 115.408815 
L 380.028653 109.303793 
L 381.114454 118.888677 
L 382.200255 117.972924 
L 383.286057 115.530915 
L 384.371858 119.102353 
L 385.457659 126.825205 
L 386.54346 116.568769 
L 387.629261 123.131667 
L 388.715062 117.148746 
L 389.800863 125.726301 
L 390.886665 118.613951 
L 391.972466 123.620068 
L 394.144068 126.97783 
L 395.229869 123.98637 
L 396.31567 132.7776 
L 397.401472 133.235477 
L 398.487273 130.213491 
L 398.487273 130.213491 
" clip-path="url(#p4e35428693)" style="fill: none; stroke: #d62728; stroke-width: 1.5; stroke-linecap: square"/>
   </g>
   <g id="line2d_23">
    <path d="M 368.08484 211.091342 
L 369.170642 213.280729 
L 370.256443 220.43834 
L 371.342244 216.985845 
L 372.428045 225.659186 
L 373.513846 224.459233 
L 374.599647 218.143694 
L 375.685448 220.90148 
L 376.77125 222.564572 
L 377.857051 222.122484 
L 378.942852 227.090708 
L 380.028653 215.764841 
L 381.114454 222.038277 
L 383.286057 225.048684 
L 384.371858 221.280412 
L 385.457659 230.290582 
L 386.54346 224.375026 
L 387.629261 224.859218 
L 388.715062 220.017304 
L 389.800863 227.953832 
L 390.886665 221.554085 
L 391.972466 224.206612 
L 393.058267 228.627489 
L 394.144068 229.57482 
L 395.229869 224.017146 
L 396.31567 235.953515 
L 397.401472 230.964239 
L 398.487273 231.343171 
L 398.487273 231.343171 
" clip-path="url(#p4e35428693)" style="fill: none; stroke: #9467bd; stroke-width: 1.5; stroke-linecap: square"/>
   </g>
   <g id="patch_3">
    <path d="M 57.6 307.584 
L 57.6 41.472 
" style="fill: none; stroke: #000000; stroke-width: 0.8; stroke-linejoin: miter; stroke-linecap: square"/>
   </g>
   <g id="patch_4">
    <path d="M 414.72 307.584 
L 414.72 41.472 
" style="fill: none; stroke: #000000; stroke-width: 0.8; stroke-linejoin: miter; stroke-linecap: square"/>
   </g>
   <g id="patch_5">
    <path d="M 57.6 307.584 
L 414.72 307.584 
" style="fill: none; stroke: #000000; stroke-width: 0.8; stroke-linejoin: miter; stroke-linecap: square"/>
   </g>
   <g id="patch_6">
    <path d="M 57.6 41.472 
L 414.72 41.472 
" style="fill: none; stroke: #000000; stroke-width: 0.8; stroke-linejoin: miter; stroke-linecap: square"/>
   </g>
   <g id="text_21">
    <!-- Learning Curves -->
    <g transform="translate(187.37625 35.472) scale(0.12 -0.12)">
     <defs>
      <path id="DejaVuSans-4c" d="M 628 4666 
L 1259 4666 
L 1259 531 
L 3531 531 
L 3531 0 
L 628 0 
L 628 4666 
z
" transform="scale(0.015625)"/>
      <path id="DejaVuSans-65" d="M 3597 1894 
L 3597 1613 
L 953 1613 
Q 991 1019 1311 708 
Q 1631 397 2203 397 
Q 2534 397 2845 478 
Q 3156 559 3463 722 
L 3463 178 
Q 3153 47 2828 -22 
Q 2503 -91 2169 -91 
Q 1331 -91 842 396 
Q 353 884 353 1716 
Q 353 2575 817 3079 
Q 1281 3584 2069 3584 
Q 2775 3584 3186 3129 
Q 3597 2675 3597 1894 
z
M 3022 2063 
Q 3016 2534 2758 2815 
Q 2500 3097 2075 3097 
Q 1594 3097 1305 2825 
Q 1016 2553 972 2059 
L 3022 2063 
z
" transform="scale(0.015625)"/>
      <path id="DejaVuSans-6e" d="M 3513 2113 
L 3513 0 
L 2938 0 
L 2938 2094 
Q 2938 2591 2744 2837 
Q 2550 3084 2163 3084 
Q 1697 3084 1428 2787 
Q 1159 2491 1159 1978 
L 1159 0 
L 581 0 
L 581 3500 
L 1159 3500 
L 1159 2956 
Q 1366 3272 1645 3428 
Q 1925 3584 2291 3584 
Q 2894 3584 3203 3211 
Q 3513 2838 3513 2113 
z
" transform="scale(0.015625)"/>
      <path id="DejaVuSans-69" d="M 603 3500 
L 1178 3500 
L 1178 0 
L 603 0 
L 603 3500 
z
M 603 4863 
L 1178 4863 
L 1178 4134 
L 603 4134 
L 603 4863 
z
" transform="scale(0.015625)"/>
      <path id="DejaVuSans-67" d="M 2906 1791 
Q 2906 2416 2648 2759 
Q 2391 3103 1925 3103 
Q 1463 3103 1205 2759 
Q 947 2416 947 1791 
Q 947 1169 1205 825 
Q 1463 481 1925 481 
Q 2391 481 2648 825 
Q 2906 1169 2906 1791 
z
M 3481 434 
Q 3481 -459 3084 -895 
Q 2688 -1331 1869 -1331 
Q 1566 -1331 1297 -1286 
Q 1028 -1241 775 -1147 
L 775 -588 
Q 1028 -725 1275 -790 
Q 1522 -856 1778 -856 
Q 2344 -856 2625 -561 
Q 2906 -266 2906 331 
L 2906 616 
Q 2728 306 2450 153 
Q 2172 0 1784 0 
Q 1141 0 747 490 
Q 353 981 353 1791 
Q 353 2603 747 3093 
Q 1141 3584 1784 3584 
Q 2172 3584 2450 3431 
Q 2728 3278 2906 2969 
L 2906 3500 
L 3481 3500 
L 3481 434 
z
" transform="scale(0.015625)"/>
      <path id="DejaVuSans-20" transform="scale(0.015625)"/>
      <path id="DejaVuSans-43" d="M 4122 4306 
L 4122 3641 
Q 3803 3938 3442 4084 
Q 3081 4231 2675 4231 
Q 1875 4231 1450 3742 
Q 1025 3253 1025 2328 
Q 1025 1406 1450 917 
Q 1875 428 2675 428 
Q 3081 428 3442 575 
Q 3803 722 4122 1019 
L 4122 359 
Q 3791 134 3420 21 
Q 3050 -91 2638 -91 
Q 1578 -91 968 557 
Q 359 1206 359 2328 
Q 359 3453 968 4101 
Q 1578 4750 2638 4750 
Q 3056 4750 3426 4639 
Q 3797 4528 4122 4306 
z
" transform="scale(0.015625)"/>
      <path id="DejaVuSans-76" d="M 191 3500 
L 800 3500 
L 1894 563 
L 2988 3500 
L 3597 3500 
L 2284 0 
L 1503 0 
L 191 3500 
z
" transform="scale(0.015625)"/>
     </defs>
     <use xlink:href="#DejaVuSans-4c"/>
     <use xlink:href="#DejaVuSans-65" x="53.962891"/>
     <use xlink:href="#DejaVuSans-61" x="115.486328"/>
     <use xlink:href="#DejaVuSans-72" x="176.765625"/>
     <use xlink:href="#DejaVuSans-6e" x="216.128906"/>
     <use xlink:href="#DejaVuSans-69" x="279.507812"/>
     <use xlink:href="#DejaVuSans-6e" x="307.291016"/>
     <use xlink:href="#DejaVuSans-67" x="370.669922"/>
     <use xlink:href="#DejaVuSans-20" x="434.146484"/>
     <use xlink:href="#DejaVuSans-43" x="465.933594"/>
     <use xlink:href="#DejaVuSans-75" x="535.757812"/>
     <use xlink:href="#DejaVuSans-72" x="599.136719"/>
     <use xlink:href="#DejaVuSans-76" x="640.25"/>
     <use xlink:href="#DejaVuSans-65" x="699.429688"/>
     <use xlink:href="#DejaVuSans-73" x="760.953125"/>
    </g>
   </g>
   <g id="legend_1">
    <g id="patch_7">
     <path d="M 214.18875 212.723313 
L 407.72 212.723313 
Q 409.72 212.723313 409.72 210.723313 
L 409.72 138.332688 
Q 409.72 136.332688 407.72 136.332688 
L 214.18875 136.332688 
Q 212.18875 136.332688 212.18875 138.332688 
L 212.18875 210.723313 
Q 212.18875 212.723313 214.18875 212.723313 
z
" style="fill: #ffffff; opacity: 0.8; stroke: #cccccc; stroke-linejoin: miter"/>
    </g>
    <g id="line2d_24">
     <path d="M 216.18875 144.431125 
L 226.18875 144.431125 
L 236.18875 144.431125 
" style="fill: none; stroke: #1f77b4; stroke-width: 1.5; stroke-linecap: square"/>
    </g>
    <g id="text_22">
     <!-- Train Accuracy -->
     <g transform="translate(244.18875 147.931125) scale(0.1 -0.1)">
      <defs>
       <path id="DejaVuSans-54" d="M -19 4666 
L 3928 4666 
L 3928 4134 
L 2272 4134 
L 2272 0 
L 1638 0 
L 1638 4134 
L -19 4134 
L -19 4666 
z
" transform="scale(0.015625)"/>
      </defs>
      <use xlink:href="#DejaVuSans-54"/>
      <use xlink:href="#DejaVuSans-72" x="46.333984"/>
      <use xlink:href="#DejaVuSans-61" x="87.447266"/>
      <use xlink:href="#DejaVuSans-69" x="148.726562"/>
      <use xlink:href="#DejaVuSans-6e" x="176.509766"/>
      <use xlink:href="#DejaVuSans-20" x="239.888672"/>
      <use xlink:href="#DejaVuSans-41" x="271.675781"/>
      <use xlink:href="#DejaVuSans-63" x="338.333984"/>
      <use xlink:href="#DejaVuSans-63" x="393.314453"/>
      <use xlink:href="#DejaVuSans-75" x="448.294922"/>
      <use xlink:href="#DejaVuSans-72" x="511.673828"/>
      <use xlink:href="#DejaVuSans-61" x="552.787109"/>
      <use xlink:href="#DejaVuSans-63" x="614.066406"/>
      <use xlink:href="#DejaVuSans-79" x="669.046875"/>
     </g>
    </g>
    <g id="line2d_25">
     <path d="M 216.18875 159.10925 
L 226.18875 159.10925 
L 236.18875 159.10925 
" style="fill: none; stroke: #ff7f0e; stroke-width: 1.5; stroke-linecap: square"/>
    </g>
    <g id="text_23">
     <!-- Validation Accuracy -->
     <g transform="translate(244.18875 162.60925) scale(0.1 -0.1)">
      <defs>
       <path id="DejaVuSans-56" d="M 1831 0 
L 50 4666 
L 709 4666 
L 2188 738 
L 3669 4666 
L 4325 4666 
L 2547 0 
L 1831 0 
z
" transform="scale(0.015625)"/>
       <path id="DejaVuSans-6c" d="M 603 4863 
L 1178 4863 
L 1178 0 
L 603 0 
L 603 4863 
z
" transform="scale(0.015625)"/>
       <path id="DejaVuSans-64" d="M 2906 2969 
L 2906 4863 
L 3481 4863 
L 3481 0 
L 2906 0 
L 2906 525 
Q 2725 213 2448 61 
Q 2172 -91 1784 -91 
Q 1150 -91 751 415 
Q 353 922 353 1747 
Q 353 2572 751 3078 
Q 1150 3584 1784 3584 
Q 2172 3584 2448 3432 
Q 2725 3281 2906 2969 
z
M 947 1747 
Q 947 1113 1208 752 
Q 1469 391 1925 391 
Q 2381 391 2643 752 
Q 2906 1113 2906 1747 
Q 2906 2381 2643 2742 
Q 2381 3103 1925 3103 
Q 1469 3103 1208 2742 
Q 947 2381 947 1747 
z
" transform="scale(0.015625)"/>
       <path id="DejaVuSans-74" d="M 1172 4494 
L 1172 3500 
L 2356 3500 
L 2356 3053 
L 1172 3053 
L 1172 1153 
Q 1172 725 1289 603 
Q 1406 481 1766 481 
L 2356 481 
L 2356 0 
L 1766 0 
Q 1100 0 847 248 
Q 594 497 594 1153 
L 594 3053 
L 172 3053 
L 172 3500 
L 594 3500 
L 594 4494 
L 1172 4494 
z
" transform="scale(0.015625)"/>
      </defs>
      <use xlink:href="#DejaVuSans-56"/>
      <use xlink:href="#DejaVuSans-61" x="60.658203"/>
      <use xlink:href="#DejaVuSans-6c" x="121.9375"/>
      <use xlink:href="#DejaVuSans-69" x="149.720703"/>
      <use xlink:href="#DejaVuSans-64" x="177.503906"/>
      <use xlink:href="#DejaVuSans-61" x="240.980469"/>
      <use xlink:href="#DejaVuSans-74" x="302.259766"/>
      <use xlink:href="#DejaVuSans-69" x="341.46875"/>
      <use xlink:href="#DejaVuSans-6f" x="369.251953"/>
      <use xlink:href="#DejaVuSans-6e" x="430.433594"/>
      <use xlink:href="#DejaVuSans-20" x="493.8125"/>
      <use xlink:href="#DejaVuSans-41" x="525.599609"/>
      <use xlink:href="#DejaVuSans-63" x="592.257812"/>
      <use xlink:href="#DejaVuSans-63" x="647.238281"/>
      <use xlink:href="#DejaVuSans-75" x="702.21875"/>
      <use xlink:href="#DejaVuSans-72" x="765.597656"/>
      <use xlink:href="#DejaVuSans-61" x="806.710938"/>
      <use xlink:href="#DejaVuSans-63" x="867.990234"/>
      <use xlink:href="#DejaVuSans-79" x="922.970703"/>
     </g>
    </g>
    <g id="line2d_26">
     <path d="M 216.18875 173.787375 
L 226.18875 173.787375 
L 236.18875 173.787375 
" style="fill: none; stroke: #2ca02c; stroke-width: 1.5; stroke-linecap: square"/>
    </g>
    <g id="text_24">
     <!-- Robust Validation Accuracy -->
     <g transform="translate(244.18875 177.287375) scale(0.1 -0.1)">
      <defs>
       <path id="DejaVuSans-52" d="M 2841 2188 
Q 3044 2119 3236 1894 
Q 3428 1669 3622 1275 
L 4263 0 
L 3584 0 
L 2988 1197 
Q 2756 1666 2539 1819 
Q 2322 1972 1947 1972 
L 1259 1972 
L 1259 0 
L 628 0 
L 628 4666 
L 2053 4666 
Q 2853 4666 3247 4331 
Q 3641 3997 3641 3322 
Q 3641 2881 3436 2590 
Q 3231 2300 2841 2188 
z
M 1259 4147 
L 1259 2491 
L 2053 2491 
Q 2509 2491 2742 2702 
Q 2975 2913 2975 3322 
Q 2975 3731 2742 3939 
Q 2509 4147 2053 4147 
L 1259 4147 
z
" transform="scale(0.015625)"/>
       <path id="DejaVuSans-62" d="M 3116 1747 
Q 3116 2381 2855 2742 
Q 2594 3103 2138 3103 
Q 1681 3103 1420 2742 
Q 1159 2381 1159 1747 
Q 1159 1113 1420 752 
Q 1681 391 2138 391 
Q 2594 391 2855 752 
Q 3116 1113 3116 1747 
z
M 1159 2969 
Q 1341 3281 1617 3432 
Q 1894 3584 2278 3584 
Q 2916 3584 3314 3078 
Q 3713 2572 3713 1747 
Q 3713 922 3314 415 
Q 2916 -91 2278 -91 
Q 1894 -91 1617 61 
Q 1341 213 1159 525 
L 1159 0 
L 581 0 
L 581 4863 
L 1159 4863 
L 1159 2969 
z
" transform="scale(0.015625)"/>
      </defs>
      <use xlink:href="#DejaVuSans-52"/>
      <use xlink:href="#DejaVuSans-6f" x="64.982422"/>
      <use xlink:href="#DejaVuSans-62" x="126.164062"/>
      <use xlink:href="#DejaVuSans-75" x="189.640625"/>
      <use xlink:href="#DejaVuSans-73" x="253.019531"/>
      <use xlink:href="#DejaVuSans-74" x="305.119141"/>
      <use xlink:href="#DejaVuSans-20" x="344.328125"/>
      <use xlink:href="#DejaVuSans-56" x="376.115234"/>
      <use xlink:href="#DejaVuSans-61" x="436.773438"/>
      <use xlink:href="#DejaVuSans-6c" x="498.052734"/>
      <use xlink:href="#DejaVuSans-69" x="525.835938"/>
      <use xlink:href="#DejaVuSans-64" x="553.619141"/>
      <use xlink:href="#DejaVuSans-61" x="617.095703"/>
      <use xlink:href="#DejaVuSans-74" x="678.375"/>
      <use xlink:href="#DejaVuSans-69" x="717.583984"/>
      <use xlink:href="#DejaVuSans-6f" x="745.367188"/>
      <use xlink:href="#DejaVuSans-6e" x="806.548828"/>
      <use xlink:href="#DejaVuSans-20" x="869.927734"/>
      <use xlink:href="#DejaVuSans-41" x="901.714844"/>
      <use xlink:href="#DejaVuSans-63" x="968.373047"/>
      <use xlink:href="#DejaVuSans-63" x="1023.353516"/>
      <use xlink:href="#DejaVuSans-75" x="1078.333984"/>
      <use xlink:href="#DejaVuSans-72" x="1141.712891"/>
      <use xlink:href="#DejaVuSans-61" x="1182.826172"/>
      <use xlink:href="#DejaVuSans-63" x="1244.105469"/>
      <use xlink:href="#DejaVuSans-79" x="1299.085938"/>
     </g>
    </g>
    <g id="line2d_27">
     <path d="M 216.18875 188.4655 
L 226.18875 188.4655 
L 236.18875 188.4655 
" style="fill: none; stroke: #d62728; stroke-width: 1.5; stroke-linecap: square"/>
    </g>
    <g id="text_25">
     <!-- SWA Validation Accuracy -->
     <g transform="translate(244.18875 191.9655) scale(0.1 -0.1)">
      <defs>
       <path id="DejaVuSans-53" d="M 3425 4513 
L 3425 3897 
Q 3066 4069 2747 4153 
Q 2428 4238 2131 4238 
Q 1616 4238 1336 4038 
Q 1056 3838 1056 3469 
Q 1056 3159 1242 3001 
Q 1428 2844 1947 2747 
L 2328 2669 
Q 3034 2534 3370 2195 
Q 3706 1856 3706 1288 
Q 3706 609 3251 259 
Q 2797 -91 1919 -91 
Q 1588 -91 1214 -16 
Q 841 59 441 206 
L 441 856 
Q 825 641 1194 531 
Q 1563 422 1919 422 
Q 2459 422 2753 634 
Q 3047 847 3047 1241 
Q 3047 1584 2836 1778 
Q 2625 1972 2144 2069 
L 1759 2144 
Q 1053 2284 737 2584 
Q 422 2884 422 3419 
Q 422 4038 858 4394 
Q 1294 4750 2059 4750 
Q 2388 4750 2728 4690 
Q 3069 4631 3425 4513 
z
" transform="scale(0.015625)"/>
       <path id="DejaVuSans-57" d="M 213 4666 
L 850 4666 
L 1831 722 
L 2809 4666 
L 3519 4666 
L 4500 722 
L 5478 4666 
L 6119 4666 
L 4947 0 
L 4153 0 
L 3169 4050 
L 2175 0 
L 1381 0 
L 213 4666 
z
" transform="scale(0.015625)"/>
      </defs>
      <use xlink:href="#DejaVuSans-53"/>
      <use xlink:href="#DejaVuSans-57" x="63.476562"/>
      <use xlink:href="#DejaVuSans-41" x="156.853516"/>
      <use xlink:href="#DejaVuSans-20" x="225.261719"/>
      <use xlink:href="#DejaVuSans-56" x="257.048828"/>
      <use xlink:href="#DejaVuSans-61" x="317.707031"/>
      <use xlink:href="#DejaVuSans-6c" x="378.986328"/>
      <use xlink:href="#DejaVuSans-69" x="406.769531"/>
      <use xlink:href="#DejaVuSans-64" x="434.552734"/>
      <use xlink:href="#DejaVuSans-61" x="498.029297"/>
      <use xlink:href="#DejaVuSans-74" x="559.308594"/>
      <use xlink:href="#DejaVuSans-69" x="598.517578"/>
      <use xlink:href="#DejaVuSans-6f" x="626.300781"/>
      <use xlink:href="#DejaVuSans-6e" x="687.482422"/>
      <use xlink:href="#DejaVuSans-20" x="750.861328"/>
      <use xlink:href="#DejaVuSans-41" x="782.648438"/>
      <use xlink:href="#DejaVuSans-63" x="849.306641"/>
      <use xlink:href="#DejaVuSans-63" x="904.287109"/>
      <use xlink:href="#DejaVuSans-75" x="959.267578"/>
      <use xlink:href="#DejaVuSans-72" x="1022.646484"/>
      <use xlink:href="#DejaVuSans-61" x="1063.759766"/>
      <use xlink:href="#DejaVuSans-63" x="1125.039062"/>
      <use xlink:href="#DejaVuSans-79" x="1180.019531"/>
     </g>
    </g>
    <g id="line2d_28">
     <path d="M 216.18875 203.143625 
L 226.18875 203.143625 
L 236.18875 203.143625 
" style="fill: none; stroke: #9467bd; stroke-width: 1.5; stroke-linecap: square"/>
    </g>
    <g id="text_26">
     <!-- SWA Robust Validation Accuracy -->
     <g transform="translate(244.18875 206.643625) scale(0.1 -0.1)">
      <use xlink:href="#DejaVuSans-53"/>
      <use xlink:href="#DejaVuSans-57" x="63.476562"/>
      <use xlink:href="#DejaVuSans-41" x="156.853516"/>
      <use xlink:href="#DejaVuSans-20" x="225.261719"/>
      <use xlink:href="#DejaVuSans-52" x="257.048828"/>
      <use xlink:href="#DejaVuSans-6f" x="322.03125"/>
      <use xlink:href="#DejaVuSans-62" x="383.212891"/>
      <use xlink:href="#DejaVuSans-75" x="446.689453"/>
      <use xlink:href="#DejaVuSans-73" x="510.068359"/>
      <use xlink:href="#DejaVuSans-74" x="562.167969"/>
      <use xlink:href="#DejaVuSans-20" x="601.376953"/>
      <use xlink:href="#DejaVuSans-56" x="633.164062"/>
      <use xlink:href="#DejaVuSans-61" x="693.822266"/>
      <use xlink:href="#DejaVuSans-6c" x="755.101562"/>
      <use xlink:href="#DejaVuSans-69" x="782.884766"/>
      <use xlink:href="#DejaVuSans-64" x="810.667969"/>
      <use xlink:href="#DejaVuSans-61" x="874.144531"/>
      <use xlink:href="#DejaVuSans-74" x="935.423828"/>
      <use xlink:href="#DejaVuSans-69" x="974.632812"/>
      <use xlink:href="#DejaVuSans-6f" x="1002.416016"/>
      <use xlink:href="#DejaVuSans-6e" x="1063.597656"/>
      <use xlink:href="#DejaVuSans-20" x="1126.976562"/>
      <use xlink:href="#DejaVuSans-41" x="1158.763672"/>
      <use xlink:href="#DejaVuSans-63" x="1225.421875"/>
      <use xlink:href="#DejaVuSans-63" x="1280.402344"/>
      <use xlink:href="#DejaVuSans-75" x="1335.382812"/>
      <use xlink:href="#DejaVuSans-72" x="1398.761719"/>
      <use xlink:href="#DejaVuSans-61" x="1439.875"/>
      <use xlink:href="#DejaVuSans-63" x="1501.154297"/>
      <use xlink:href="#DejaVuSans-79" x="1556.134766"/>
     </g>
    </g>
   </g>
  </g>
 </g>
 <defs>
  <clipPath id="p4e35428693">
   <rect x="57.6" y="41.472" width="357.12" height="266.112"/>
  </clipPath>
 </defs>
</svg>
