<?xml version="1.0" encoding="utf-8" standalone="no"?>
<!DOCTYPE svg PUBLIC "-//W3C//DTD SVG 1.1//EN"
  "http://www.w3.org/Graphics/SVG/1.1/DTD/svg11.dtd">
<svg xmlns:xlink="http://www.w3.org/1999/xlink" width="460.8pt" height="345.6pt" viewBox="0 0 460.8 345.6" xmlns="http://www.w3.org/2000/svg" version="1.1">
 <metadata>
  <rdf:RDF xmlns:dc="http://purl.org/dc/elements/1.1/" xmlns:cc="http://creativecommons.org/ns#" xmlns:rdf="http://www.w3.org/1999/02/22-rdf-syntax-ns#">
   <cc:Work>
    <dc:type rdf:resource="http://purl.org/dc/dcmitype/StillImage"/>
    <dc:date>2025-06-22T11:42:45.872325</dc:date>
    <dc:format>image/svg+xml</dc:format>
    <dc:creator>
     <cc:Agent>
      <dc:title>Matplotlib v3.9.1, https://matplotlib.org/</dc:title>
     </cc:Agent>
    </dc:creator>
   </cc:Work>
  </rdf:RDF>
 </metadata>
 <defs>
  <style type="text/css">*{stroke-linejoin: round; stroke-linecap: butt}</style>
 </defs>
 <g id="figure_1">
  <g id="patch_1">
   <path d="M 0 345.6 
L 460.8 345.6 
L 460.8 0 
L 0 0 
z
" style="fill: #ffffff"/>
  </g>
  <g id="axes_1">
   <g id="patch_2">
    <path d="M 57.6 307.584 
L 414.72 307.584 
L 414.72 41.472 
L 57.6 41.472 
z
" style="fill: #ffffff"/>
   </g>
   <g id="matplotlib.axis_1">
    <g id="xtick_1">
     <g id="line2d_1">
      <defs>
       <path id="m41a2899b5b" d="M 0 0 
L 0 3.5 
" style="stroke: #000000; stroke-width: 0.8"/>
      </defs>
      <g>
       <use xlink:href="#m41a2899b5b" x="73.832727" y="307.584" style="stroke: #000000; stroke-width: 0.8"/>
      </g>
     </g>
     <g id="text_1">
      <!-- 1 -->
      <g transform="translate(70.651477 322.182437) scale(0.1 -0.1)">
       <defs>
        <path id="DejaVuSans-31" d="M 794 531 
L 1825 531 
L 1825 4091 
L 703 3866 
L 703 4441 
L 1819 4666 
L 2450 4666 
L 2450 531 
L 3481 531 
L 3481 0 
L 794 0 
L 794 531 
z
" transform="scale(0.015625)"/>
       </defs>
       <use xlink:href="#DejaVuSans-31"/>
      </g>
     </g>
    </g>
    <g id="xtick_2">
     <g id="line2d_2">
      <g>
       <use xlink:href="#m41a2899b5b" x="109.664165" y="307.584" style="stroke: #000000; stroke-width: 0.8"/>
      </g>
     </g>
     <g id="text_2">
      <!-- 34 -->
      <g transform="translate(103.301665 322.182437) scale(0.1 -0.1)">
       <defs>
        <path id="DejaVuSans-33" d="M 2597 2516 
Q 3050 2419 3304 2112 
Q 3559 1806 3559 1356 
Q 3559 666 3084 287 
Q 2609 -91 1734 -91 
Q 1441 -91 1130 -33 
Q 819 25 488 141 
L 488 750 
Q 750 597 1062 519 
Q 1375 441 1716 441 
Q 2309 441 2620 675 
Q 2931 909 2931 1356 
Q 2931 1769 2642 2001 
Q 2353 2234 1838 2234 
L 1294 2234 
L 1294 2753 
L 1863 2753 
Q 2328 2753 2575 2939 
Q 2822 3125 2822 3475 
Q 2822 3834 2567 4026 
Q 2313 4219 1838 4219 
Q 1578 4219 1281 4162 
Q 984 4106 628 3988 
L 628 4550 
Q 988 4650 1302 4700 
Q 1616 4750 1894 4750 
Q 2613 4750 3031 4423 
Q 3450 4097 3450 3541 
Q 3450 3153 3228 2886 
Q 3006 2619 2597 2516 
z
" transform="scale(0.015625)"/>
        <path id="DejaVuSans-34" d="M 2419 4116 
L 825 1625 
L 2419 1625 
L 2419 4116 
z
M 2253 4666 
L 3047 4666 
L 3047 1625 
L 3713 1625 
L 3713 1100 
L 3047 1100 
L 3047 0 
L 2419 0 
L 2419 1100 
L 313 1100 
L 313 1709 
L 2253 4666 
z
" transform="scale(0.015625)"/>
       </defs>
       <use xlink:href="#DejaVuSans-33"/>
       <use xlink:href="#DejaVuSans-34" x="63.623047"/>
      </g>
     </g>
    </g>
    <g id="xtick_3">
     <g id="line2d_3">
      <g>
       <use xlink:href="#m41a2899b5b" x="145.495604" y="307.584" style="stroke: #000000; stroke-width: 0.8"/>
      </g>
     </g>
     <g id="text_3">
      <!-- 67 -->
      <g transform="translate(139.133104 322.182437) scale(0.1 -0.1)">
       <defs>
        <path id="DejaVuSans-36" d="M 2113 2584 
Q 1688 2584 1439 2293 
Q 1191 2003 1191 1497 
Q 1191 994 1439 701 
Q 1688 409 2113 409 
Q 2538 409 2786 701 
Q 3034 994 3034 1497 
Q 3034 2003 2786 2293 
Q 2538 2584 2113 2584 
z
M 3366 4563 
L 3366 3988 
Q 3128 4100 2886 4159 
Q 2644 4219 2406 4219 
Q 1781 4219 1451 3797 
Q 1122 3375 1075 2522 
Q 1259 2794 1537 2939 
Q 1816 3084 2150 3084 
Q 2853 3084 3261 2657 
Q 3669 2231 3669 1497 
Q 3669 778 3244 343 
Q 2819 -91 2113 -91 
Q 1303 -91 875 529 
Q 447 1150 447 2328 
Q 447 3434 972 4092 
Q 1497 4750 2381 4750 
Q 2619 4750 2861 4703 
Q 3103 4656 3366 4563 
z
" transform="scale(0.015625)"/>
        <path id="DejaVuSans-37" d="M 525 4666 
L 3525 4666 
L 3525 4397 
L 1831 0 
L 1172 0 
L 2766 4134 
L 525 4134 
L 525 4666 
z
" transform="scale(0.015625)"/>
       </defs>
       <use xlink:href="#DejaVuSans-36"/>
       <use xlink:href="#DejaVuSans-37" x="63.623047"/>
      </g>
     </g>
    </g>
    <g id="xtick_4">
     <g id="line2d_4">
      <g>
       <use xlink:href="#m41a2899b5b" x="181.327042" y="307.584" style="stroke: #000000; stroke-width: 0.8"/>
      </g>
     </g>
     <g id="text_4">
      <!-- 100 -->
      <g transform="translate(171.783292 322.182437) scale(0.1 -0.1)">
       <defs>
        <path id="DejaVuSans-30" d="M 2034 4250 
Q 1547 4250 1301 3770 
Q 1056 3291 1056 2328 
Q 1056 1369 1301 889 
Q 1547 409 2034 409 
Q 2525 409 2770 889 
Q 3016 1369 3016 2328 
Q 3016 3291 2770 3770 
Q 2525 4250 2034 4250 
z
M 2034 4750 
Q 2819 4750 3233 4129 
Q 3647 3509 3647 2328 
Q 3647 1150 3233 529 
Q 2819 -91 2034 -91 
Q 1250 -91 836 529 
Q 422 1150 422 2328 
Q 422 3509 836 4129 
Q 1250 4750 2034 4750 
z
" transform="scale(0.015625)"/>
       </defs>
       <use xlink:href="#DejaVuSans-31"/>
       <use xlink:href="#DejaVuSans-30" x="63.623047"/>
       <use xlink:href="#DejaVuSans-30" x="127.246094"/>
      </g>
     </g>
    </g>
    <g id="xtick_5">
     <g id="line2d_5">
      <g>
       <use xlink:href="#m41a2899b5b" x="217.15848" y="307.584" style="stroke: #000000; stroke-width: 0.8"/>
      </g>
     </g>
     <g id="text_5">
      <!-- 133 -->
      <g transform="translate(207.61473 322.182437) scale(0.1 -0.1)">
       <use xlink:href="#DejaVuSans-31"/>
       <use xlink:href="#DejaVuSans-33" x="63.623047"/>
       <use xlink:href="#DejaVuSans-33" x="127.246094"/>
      </g>
     </g>
    </g>
    <g id="xtick_6">
     <g id="line2d_6">
      <g>
       <use xlink:href="#m41a2899b5b" x="254.075719" y="307.584" style="stroke: #000000; stroke-width: 0.8"/>
      </g>
     </g>
     <g id="text_6">
      <!-- 167 -->
      <g transform="translate(244.531969 322.182437) scale(0.1 -0.1)">
       <use xlink:href="#DejaVuSans-31"/>
       <use xlink:href="#DejaVuSans-36" x="63.623047"/>
       <use xlink:href="#DejaVuSans-37" x="127.246094"/>
      </g>
     </g>
    </g>
    <g id="xtick_7">
     <g id="line2d_7">
      <g>
       <use xlink:href="#m41a2899b5b" x="289.907157" y="307.584" style="stroke: #000000; stroke-width: 0.8"/>
      </g>
     </g>
     <g id="text_7">
      <!-- 200 -->
      <g transform="translate(280.363407 322.182437) scale(0.1 -0.1)">
       <defs>
        <path id="DejaVuSans-32" d="M 1228 531 
L 3431 531 
L 3431 0 
L 469 0 
L 469 531 
Q 828 903 1448 1529 
Q 2069 2156 2228 2338 
Q 2531 2678 2651 2914 
Q 2772 3150 2772 3378 
Q 2772 3750 2511 3984 
Q 2250 4219 1831 4219 
Q 1534 4219 1204 4116 
Q 875 4013 500 3803 
L 500 4441 
Q 881 4594 1212 4672 
Q 1544 4750 1819 4750 
Q 2544 4750 2975 4387 
Q 3406 4025 3406 3419 
Q 3406 3131 3298 2873 
Q 3191 2616 2906 2266 
Q 2828 2175 2409 1742 
Q 1991 1309 1228 531 
z
" transform="scale(0.015625)"/>
       </defs>
       <use xlink:href="#DejaVuSans-32"/>
       <use xlink:href="#DejaVuSans-30" x="63.623047"/>
       <use xlink:href="#DejaVuSans-30" x="127.246094"/>
      </g>
     </g>
    </g>
    <g id="xtick_8">
     <g id="line2d_8">
      <g>
       <use xlink:href="#m41a2899b5b" x="325.738595" y="307.584" style="stroke: #000000; stroke-width: 0.8"/>
      </g>
     </g>
     <g id="text_8">
      <!-- 233 -->
      <g transform="translate(316.194845 322.182437) scale(0.1 -0.1)">
       <use xlink:href="#DejaVuSans-32"/>
       <use xlink:href="#DejaVuSans-33" x="63.623047"/>
       <use xlink:href="#DejaVuSans-33" x="127.246094"/>
      </g>
     </g>
    </g>
    <g id="xtick_9">
     <g id="line2d_9">
      <g>
       <use xlink:href="#m41a2899b5b" x="361.570033" y="307.584" style="stroke: #000000; stroke-width: 0.8"/>
      </g>
     </g>
     <g id="text_9">
      <!-- 266 -->
      <g transform="translate(352.026283 322.182437) scale(0.1 -0.1)">
       <use xlink:href="#DejaVuSans-32"/>
       <use xlink:href="#DejaVuSans-36" x="63.623047"/>
       <use xlink:href="#DejaVuSans-36" x="127.246094"/>
      </g>
     </g>
    </g>
    <g id="xtick_10">
     <g id="line2d_10">
      <g>
       <use xlink:href="#m41a2899b5b" x="398.487273" y="307.584" style="stroke: #000000; stroke-width: 0.8"/>
      </g>
     </g>
     <g id="text_10">
      <!-- 300 -->
      <g transform="translate(388.943523 322.182437) scale(0.1 -0.1)">
       <use xlink:href="#DejaVuSans-33"/>
       <use xlink:href="#DejaVuSans-30" x="63.623047"/>
       <use xlink:href="#DejaVuSans-30" x="127.246094"/>
      </g>
     </g>
    </g>
    <g id="text_11">
     <!-- Epochs -->
     <g transform="translate(218.244375 335.860562) scale(0.1 -0.1)">
      <defs>
       <path id="DejaVuSans-45" d="M 628 4666 
L 3578 4666 
L 3578 4134 
L 1259 4134 
L 1259 2753 
L 3481 2753 
L 3481 2222 
L 1259 2222 
L 1259 531 
L 3634 531 
L 3634 0 
L 628 0 
L 628 4666 
z
" transform="scale(0.015625)"/>
       <path id="DejaVuSans-70" d="M 1159 525 
L 1159 -1331 
L 581 -1331 
L 581 3500 
L 1159 3500 
L 1159 2969 
Q 1341 3281 1617 3432 
Q 1894 3584 2278 3584 
Q 2916 3584 3314 3078 
Q 3713 2572 3713 1747 
Q 3713 922 3314 415 
Q 2916 -91 2278 -91 
Q 1894 -91 1617 61 
Q 1341 213 1159 525 
z
M 3116 1747 
Q 3116 2381 2855 2742 
Q 2594 3103 2138 3103 
Q 1681 3103 1420 2742 
Q 1159 2381 1159 1747 
Q 1159 1113 1420 752 
Q 1681 391 2138 391 
Q 2594 391 2855 752 
Q 3116 1113 3116 1747 
z
" transform="scale(0.015625)"/>
       <path id="DejaVuSans-6f" d="M 1959 3097 
Q 1497 3097 1228 2736 
Q 959 2375 959 1747 
Q 959 1119 1226 758 
Q 1494 397 1959 397 
Q 2419 397 2687 759 
Q 2956 1122 2956 1747 
Q 2956 2369 2687 2733 
Q 2419 3097 1959 3097 
z
M 1959 3584 
Q 2709 3584 3137 3096 
Q 3566 2609 3566 1747 
Q 3566 888 3137 398 
Q 2709 -91 1959 -91 
Q 1206 -91 779 398 
Q 353 888 353 1747 
Q 353 2609 779 3096 
Q 1206 3584 1959 3584 
z
" transform="scale(0.015625)"/>
       <path id="DejaVuSans-63" d="M 3122 3366 
L 3122 2828 
Q 2878 2963 2633 3030 
Q 2388 3097 2138 3097 
Q 1578 3097 1268 2742 
Q 959 2388 959 1747 
Q 959 1106 1268 751 
Q 1578 397 2138 397 
Q 2388 397 2633 464 
Q 2878 531 3122 666 
L 3122 134 
Q 2881 22 2623 -34 
Q 2366 -91 2075 -91 
Q 1284 -91 818 406 
Q 353 903 353 1747 
Q 353 2603 823 3093 
Q 1294 3584 2113 3584 
Q 2378 3584 2631 3529 
Q 2884 3475 3122 3366 
z
" transform="scale(0.015625)"/>
       <path id="DejaVuSans-68" d="M 3513 2113 
L 3513 0 
L 2938 0 
L 2938 2094 
Q 2938 2591 2744 2837 
Q 2550 3084 2163 3084 
Q 1697 3084 1428 2787 
Q 1159 2491 1159 1978 
L 1159 0 
L 581 0 
L 581 4863 
L 1159 4863 
L 1159 2956 
Q 1366 3272 1645 3428 
Q 1925 3584 2291 3584 
Q 2894 3584 3203 3211 
Q 3513 2838 3513 2113 
z
" transform="scale(0.015625)"/>
       <path id="DejaVuSans-73" d="M 2834 3397 
L 2834 2853 
Q 2591 2978 2328 3040 
Q 2066 3103 1784 3103 
Q 1356 3103 1142 2972 
Q 928 2841 928 2578 
Q 928 2378 1081 2264 
Q 1234 2150 1697 2047 
L 1894 2003 
Q 2506 1872 2764 1633 
Q 3022 1394 3022 966 
Q 3022 478 2636 193 
Q 2250 -91 1575 -91 
Q 1294 -91 989 -36 
Q 684 19 347 128 
L 347 722 
Q 666 556 975 473 
Q 1284 391 1588 391 
Q 1994 391 2212 530 
Q 2431 669 2431 922 
Q 2431 1156 2273 1281 
Q 2116 1406 1581 1522 
L 1381 1569 
Q 847 1681 609 1914 
Q 372 2147 372 2553 
Q 372 3047 722 3315 
Q 1072 3584 1716 3584 
Q 2034 3584 2315 3537 
Q 2597 3491 2834 3397 
z
" transform="scale(0.015625)"/>
      </defs>
      <use xlink:href="#DejaVuSans-45"/>
      <use xlink:href="#DejaVuSans-70" x="63.183594"/>
      <use xlink:href="#DejaVuSans-6f" x="126.660156"/>
      <use xlink:href="#DejaVuSans-63" x="187.841797"/>
      <use xlink:href="#DejaVuSans-68" x="242.822266"/>
      <use xlink:href="#DejaVuSans-73" x="306.201172"/>
     </g>
    </g>
   </g>
   <g id="matplotlib.axis_2">
    <g id="ytick_1">
     <g id="line2d_11">
      <defs>
       <path id="m2c6230199e" d="M 0 0 
L -3.5 0 
" style="stroke: #000000; stroke-width: 0.8"/>
      </defs>
      <g>
       <use xlink:href="#m2c6230199e" x="57.6" y="276.287424" style="stroke: #000000; stroke-width: 0.8"/>
      </g>
     </g>
     <g id="text_12">
      <!-- 10 -->
      <g transform="translate(37.875 280.086643) scale(0.1 -0.1)">
       <use xlink:href="#DejaVuSans-31"/>
       <use xlink:href="#DejaVuSans-30" x="63.623047"/>
      </g>
     </g>
    </g>
    <g id="ytick_2">
     <g id="line2d_12">
      <g>
       <use xlink:href="#m2c6230199e" x="57.6" y="240.025714" style="stroke: #000000; stroke-width: 0.8"/>
      </g>
     </g>
     <g id="text_13">
      <!-- 20 -->
      <g transform="translate(37.875 243.824933) scale(0.1 -0.1)">
       <use xlink:href="#DejaVuSans-32"/>
       <use xlink:href="#DejaVuSans-30" x="63.623047"/>
      </g>
     </g>
    </g>
    <g id="ytick_3">
     <g id="line2d_13">
      <g>
       <use xlink:href="#m2c6230199e" x="57.6" y="203.764004" style="stroke: #000000; stroke-width: 0.8"/>
      </g>
     </g>
     <g id="text_14">
      <!-- 30 -->
      <g transform="translate(37.875 207.563223) scale(0.1 -0.1)">
       <use xlink:href="#DejaVuSans-33"/>
       <use xlink:href="#DejaVuSans-30" x="63.623047"/>
      </g>
     </g>
    </g>
    <g id="ytick_4">
     <g id="line2d_14">
      <g>
       <use xlink:href="#m2c6230199e" x="57.6" y="167.502294" style="stroke: #000000; stroke-width: 0.8"/>
      </g>
     </g>
     <g id="text_15">
      <!-- 40 -->
      <g transform="translate(37.875 171.301512) scale(0.1 -0.1)">
       <use xlink:href="#DejaVuSans-34"/>
       <use xlink:href="#DejaVuSans-30" x="63.623047"/>
      </g>
     </g>
    </g>
    <g id="ytick_5">
     <g id="line2d_15">
      <g>
       <use xlink:href="#m2c6230199e" x="57.6" y="131.240583" style="stroke: #000000; stroke-width: 0.8"/>
      </g>
     </g>
     <g id="text_16">
      <!-- 50 -->
      <g transform="translate(37.875 135.039802) scale(0.1 -0.1)">
       <defs>
        <path id="DejaVuSans-35" d="M 691 4666 
L 3169 4666 
L 3169 4134 
L 1269 4134 
L 1269 2991 
Q 1406 3038 1543 3061 
Q 1681 3084 1819 3084 
Q 2600 3084 3056 2656 
Q 3513 2228 3513 1497 
Q 3513 744 3044 326 
Q 2575 -91 1722 -91 
Q 1428 -91 1123 -41 
Q 819 9 494 109 
L 494 744 
Q 775 591 1075 516 
Q 1375 441 1709 441 
Q 2250 441 2565 725 
Q 2881 1009 2881 1497 
Q 2881 1984 2565 2268 
Q 2250 2553 1709 2553 
Q 1456 2553 1204 2497 
Q 953 2441 691 2322 
L 691 4666 
z
" transform="scale(0.015625)"/>
       </defs>
       <use xlink:href="#DejaVuSans-35"/>
       <use xlink:href="#DejaVuSans-30" x="63.623047"/>
      </g>
     </g>
    </g>
    <g id="ytick_6">
     <g id="line2d_16">
      <g>
       <use xlink:href="#m2c6230199e" x="57.6" y="94.978873" style="stroke: #000000; stroke-width: 0.8"/>
      </g>
     </g>
     <g id="text_17">
      <!-- 60 -->
      <g transform="translate(37.875 98.778092) scale(0.1 -0.1)">
       <use xlink:href="#DejaVuSans-36"/>
       <use xlink:href="#DejaVuSans-30" x="63.623047"/>
      </g>
     </g>
    </g>
    <g id="ytick_7">
     <g id="line2d_17">
      <g>
       <use xlink:href="#m2c6230199e" x="57.6" y="58.717163" style="stroke: #000000; stroke-width: 0.8"/>
      </g>
     </g>
     <g id="text_18">
      <!-- 70 -->
      <g transform="translate(37.875 62.516382) scale(0.1 -0.1)">
       <use xlink:href="#DejaVuSans-37"/>
       <use xlink:href="#DejaVuSans-30" x="63.623047"/>
      </g>
     </g>
    </g>
    <g id="text_19">
     <!-- Accuracy -->
     <g transform="translate(31.795312 197.356125) rotate(-90) scale(0.1 -0.1)">
      <defs>
       <path id="DejaVuSans-41" d="M 2188 4044 
L 1331 1722 
L 3047 1722 
L 2188 4044 
z
M 1831 4666 
L 2547 4666 
L 4325 0 
L 3669 0 
L 3244 1197 
L 1141 1197 
L 716 0 
L 50 0 
L 1831 4666 
z
" transform="scale(0.015625)"/>
       <path id="DejaVuSans-75" d="M 544 1381 
L 544 3500 
L 1119 3500 
L 1119 1403 
Q 1119 906 1312 657 
Q 1506 409 1894 409 
Q 2359 409 2629 706 
Q 2900 1003 2900 1516 
L 2900 3500 
L 3475 3500 
L 3475 0 
L 2900 0 
L 2900 538 
Q 2691 219 2414 64 
Q 2138 -91 1772 -91 
Q 1169 -91 856 284 
Q 544 659 544 1381 
z
M 1991 3584 
L 1991 3584 
z
" transform="scale(0.015625)"/>
       <path id="DejaVuSans-72" d="M 2631 2963 
Q 2534 3019 2420 3045 
Q 2306 3072 2169 3072 
Q 1681 3072 1420 2755 
Q 1159 2438 1159 1844 
L 1159 0 
L 581 0 
L 581 3500 
L 1159 3500 
L 1159 2956 
Q 1341 3275 1631 3429 
Q 1922 3584 2338 3584 
Q 2397 3584 2469 3576 
Q 2541 3569 2628 3553 
L 2631 2963 
z
" transform="scale(0.015625)"/>
       <path id="DejaVuSans-61" d="M 2194 1759 
Q 1497 1759 1228 1600 
Q 959 1441 959 1056 
Q 959 750 1161 570 
Q 1363 391 1709 391 
Q 2188 391 2477 730 
Q 2766 1069 2766 1631 
L 2766 1759 
L 2194 1759 
z
M 3341 1997 
L 3341 0 
L 2766 0 
L 2766 531 
Q 2569 213 2275 61 
Q 1981 -91 1556 -91 
Q 1019 -91 701 211 
Q 384 513 384 1019 
Q 384 1609 779 1909 
Q 1175 2209 1959 2209 
L 2766 2209 
L 2766 2266 
Q 2766 2663 2505 2880 
Q 2244 3097 1772 3097 
Q 1472 3097 1187 3025 
Q 903 2953 641 2809 
L 641 3341 
Q 956 3463 1253 3523 
Q 1550 3584 1831 3584 
Q 2591 3584 2966 3190 
Q 3341 2797 3341 1997 
z
" transform="scale(0.015625)"/>
       <path id="DejaVuSans-79" d="M 2059 -325 
Q 1816 -950 1584 -1140 
Q 1353 -1331 966 -1331 
L 506 -1331 
L 506 -850 
L 844 -850 
Q 1081 -850 1212 -737 
Q 1344 -625 1503 -206 
L 1606 56 
L 191 3500 
L 800 3500 
L 1894 763 
L 2988 3500 
L 3597 3500 
L 2059 -325 
z
" transform="scale(0.015625)"/>
      </defs>
      <use xlink:href="#DejaVuSans-41"/>
      <use xlink:href="#DejaVuSans-63" x="66.658203"/>
      <use xlink:href="#DejaVuSans-63" x="121.638672"/>
      <use xlink:href="#DejaVuSans-75" x="176.619141"/>
      <use xlink:href="#DejaVuSans-72" x="239.998047"/>
      <use xlink:href="#DejaVuSans-61" x="281.111328"/>
      <use xlink:href="#DejaVuSans-63" x="342.390625"/>
      <use xlink:href="#DejaVuSans-79" x="397.371094"/>
     </g>
    </g>
   </g>
   <g id="line2d_18">
    <path d="M 73.832727 295.488 
L 74.918528 272.838936 
L 76.00433 253.565837 
L 77.090131 238.887096 
L 79.261733 217.913323 
L 80.347534 210.360009 
L 81.433335 201.334469 
L 84.690739 181.499314 
L 85.77654 176.948469 
L 86.862341 170.736838 
L 87.948142 167.400761 
L 89.033943 163.111001 
L 90.119745 159.851073 
L 91.205546 155.006508 
L 92.291347 152.573348 
L 93.377148 152.112824 
L 94.462949 149.440336 
L 95.54875 182.558156 
L 96.634552 180.45135 
L 97.720353 177.52503 
L 98.806154 174.925066 
L 99.891955 171.922596 
L 100.977756 167.38263 
L 102.063557 165.874143 
L 103.149358 162.066663 
L 104.23516 159.357914 
L 105.320961 157.755146 
L 106.406762 155.26034 
L 107.492563 153.142656 
L 108.578364 149.868224 
L 109.664165 147.170353 
L 110.749967 146.18766 
L 111.835768 142.48534 
L 112.921569 140.175469 
L 114.00737 138.46029 
L 115.093171 136.984438 
L 116.178972 133.398155 
L 117.264773 131.153555 
L 118.350575 129.72847 
L 119.436376 127.719571 
L 121.607978 124.220316 
L 122.693779 121.555081 
L 123.77958 120.376575 
L 124.865382 117.258068 
L 127.036984 113.417953 
L 128.122785 111.956606 
L 129.208586 109.563333 
L 130.294387 108.34494 
L 131.380189 107.953313 
L 132.46599 105.157535 
L 134.637592 104.084189 
L 135.723393 102.996337 
L 136.809194 103.054356 
L 137.894995 101.701794 
L 138.980797 144.352818 
L 140.066598 145.727137 
L 141.152399 143.739995 
L 142.2382 142.369302 
L 143.324001 142.492592 
L 144.409802 141.702087 
L 145.495604 140.686759 
L 146.581405 139.403094 
L 147.667206 139.113001 
L 148.753007 137.745934 
L 149.838808 135.523091 
L 150.924609 135.573858 
L 152.01041 134.656436 
L 153.096212 132.379201 
L 154.182013 132.810715 
L 155.267814 130.772807 
L 156.353615 130.377555 
L 157.439416 128.517329 
L 158.525217 127.034225 
L 159.611019 127.581777 
L 160.69682 125.899233 
L 161.782621 125.337177 
L 162.868422 125.369812 
L 163.954223 123.719905 
L 165.040024 121.783529 
L 166.125825 121.515193 
L 167.211627 121.464426 
L 168.297428 119.984949 
L 169.383229 119.060275 
L 171.554831 116.75403 
L 172.640632 116.362404 
L 173.726434 115.133132 
L 174.812235 113.570252 
L 175.898036 112.518662 
L 176.983837 111.974737 
L 178.069638 112.141541 
L 179.155439 111.931223 
L 181.327042 107.906173 
L 182.412843 108.007706 
L 183.498644 106.103966 
L 184.584445 105.284451 
L 186.756047 103.297309 
L 187.841849 103.206655 
L 188.92765 101.020074 
L 190.013451 100.041008 
L 191.099252 98.601418 
L 192.185053 96.650538 
L 193.270854 97.328632 
L 195.442457 95.236331 
L 196.528258 94.514723 
L 197.614059 92.255619 
L 198.69986 91.853114 
L 199.785661 90.319243 
L 200.871462 90.351879 
L 201.957264 88.509784 
L 204.128866 85.608847 
L 205.214667 84.977893 
L 206.300468 85.191838 
L 207.386269 83.20107 
L 208.472071 82.697032 
L 209.557872 80.633741 
L 210.643673 80.92746 
L 211.729474 80.405292 
L 212.815275 79.422599 
L 213.901076 78.853291 
L 214.986877 78.080916 
L 216.072679 77.522486 
L 217.15848 75.676765 
L 218.244281 76.246074 
L 219.330082 77.34843 
L 220.415883 74.258932 
L 221.501684 75.887083 
L 222.587486 74.117511 
L 223.673287 74.675942 
L 224.759088 74.367717 
L 225.844889 126.145813 
L 226.93069 129.688582 
L 228.016491 128.321516 
L 229.102292 130.830826 
L 230.188094 127.697814 
L 231.273895 127.164767 
L 232.359696 127.614412 
L 233.445497 126.160318 
L 234.531298 125.728803 
L 235.617099 124.078896 
L 236.702901 123.589363 
L 237.788702 123.716278 
L 238.874503 122.795231 
L 239.960304 123.034558 
L 242.131906 121.783529 
L 243.217708 121.112688 
L 244.303509 120.601398 
L 245.38931 119.618705 
L 246.475111 119.484537 
L 247.560912 119.669472 
L 248.646713 119.390256 
L 249.732514 118.248013 
L 250.818316 118.628761 
L 251.904117 118.668648 
L 252.989918 116.605357 
L 254.075719 118.686779 
L 255.16152 116.036048 
L 256.247321 116.53646 
L 257.333123 115.829357 
L 258.418924 115.48487 
L 259.504725 114.904683 
L 260.590526 115.767712 
L 261.676327 114.92644 
L 262.762128 114.658103 
L 263.847929 114.730627 
L 264.933731 114.135935 
L 266.019532 114.393393 
L 268.191134 112.203185 
L 269.276935 112.536793 
L 271.448538 110.727334 
L 272.534339 110.999297 
L 273.62014 110.963035 
L 275.791742 109.871558 
L 276.877543 108.714809 
L 277.963344 109.265987 
L 279.049146 109.374772 
L 281.220748 108.722061 
L 282.306549 107.34049 
L 283.39235 106.647891 
L 285.563953 106.760303 
L 286.649754 106.031442 
L 287.735555 106.016938 
L 288.821356 104.468563 
L 289.907157 105.661573 
L 290.992958 103.895628 
L 292.07876 104.95447 
L 294.250362 102.350879 
L 295.336163 102.158692 
L 296.421964 103.17402 
L 297.507765 100.740859 
L 298.593566 101.941121 
L 299.679368 101.556747 
L 300.765169 100.827887 
L 301.85097 100.41813 
L 302.936771 99.341157 
L 304.022572 98.793605 
L 305.108373 97.948707 
L 306.194175 99.003923 
L 307.279976 98.271436 
L 308.365777 97.357641 
L 309.451578 97.103809 
L 310.537379 96.157379 
L 311.62318 95.055023 
L 312.708981 95.834649 
L 313.794783 95.044144 
L 314.880584 94.431321 
L 315.966385 93.347096 
L 317.052186 94.931733 
L 318.137987 92.571096 
L 319.223788 91.816852 
L 320.30959 92.328142 
L 321.395391 90.845038 
L 322.481192 91.56302 
L 323.566993 90.533187 
L 324.652794 89.87685 
L 325.738595 89.557747 
L 326.824396 88.321223 
L 327.910198 88.332102 
L 328.995999 87.545223 
L 330.0818 87.668512 
L 331.167601 85.790156 
L 332.253402 85.790156 
L 333.339203 84.093108 
L 334.425005 85.554455 
L 335.510806 83.288098 
L 336.596607 84.336061 
L 337.682408 83.777631 
L 338.768209 82.530228 
L 339.85401 82.464957 
L 340.939811 81.101517 
L 342.025613 80.147834 
L 343.111414 79.397216 
L 344.197215 79.426226 
L 345.283016 78.131683 
L 346.368817 78.312991 
L 347.454618 77.707421 
L 348.54042 76.782747 
L 349.626221 75.459194 
L 350.712022 77.341177 
L 351.797823 75.912466 
L 352.883624 75.466447 
L 353.969425 74.545399 
L 355.055227 72.946258 
L 356.141028 72.551005 
L 357.226829 71.162182 
L 359.398431 71.894668 
L 360.484232 70.10334 
L 361.570033 69.5159 
L 362.655835 69.867639 
L 363.741636 69.062629 
L 364.827437 68.783414 
L 365.913238 67.644796 
L 366.999039 67.753581 
L 368.08484 68.478815 
L 370.256443 71.111415 
L 371.342244 74.364091 
L 372.428045 76.159045 
L 373.513846 76.811756 
L 374.599647 76.681214 
L 375.685448 76.256952 
L 376.77125 76.05026 
L 377.857051 76.260578 
L 378.942852 75.687643 
L 380.028653 76.586934 
L 381.114454 77.159869 
L 382.200255 76.431008 
L 383.286057 76.601438 
L 384.371858 78.033776 
L 385.457659 76.771868 
L 386.54346 76.347606 
L 387.629261 77.174373 
L 388.715062 78.606711 
L 389.800863 76.481775 
L 390.886665 78.211458 
L 391.972466 77.043831 
L 393.058267 78.008393 
L 394.144068 77.018448 
L 395.229869 77.243271 
L 396.31567 79.39359 
L 397.401472 78.276729 
L 398.487273 77.993888 
L 398.487273 77.993888 
" clip-path="url(#pff2274758e)" style="fill: none; stroke: #1f77b4; stroke-width: 1.5; stroke-linecap: square"/>
   </g>
   <g id="line2d_19">
    <path d="M 73.832727 276.795088 
L 74.918528 248.402169 
L 76.00433 238.103844 
L 77.090131 224.904581 
L 78.175932 220.408129 
L 79.261733 197.635775 
L 80.347534 191.507546 
L 81.433335 180.121369 
L 82.519137 175.588655 
L 83.604938 160.467522 
L 85.77654 150.966954 
L 86.862341 148.501157 
L 87.948142 145.310127 
L 89.033943 140.777413 
L 90.119745 134.467876 
L 91.205546 133.053669 
L 92.291347 133.343763 
L 93.377148 130.624134 
L 94.462949 129.935162 
L 95.54875 162.860795 
L 96.634552 162.135561 
L 97.720353 159.814811 
L 98.806154 149.117607 
L 99.891955 155.209574 
L 100.977756 152.127328 
L 102.063557 140.559843 
L 103.149358 135.374418 
L 105.320961 131.131798 
L 106.406762 132.618528 
L 108.578364 125.511233 
L 109.664165 126.127682 
L 110.749967 122.755343 
L 111.835768 118.65777 
L 112.921569 109.374772 
L 114.00737 111.224119 
L 115.093171 108.830846 
L 116.178972 109.701127 
L 117.264773 107.41664 
L 118.350575 105.567293 
L 119.436376 99.511587 
L 120.522177 100.563176 
L 121.607978 99.982989 
L 122.693779 96.755697 
L 123.77958 99.330278 
L 124.865382 91.606534 
L 125.951183 92.440553 
L 127.036984 90.301112 
L 128.122785 87.146344 
L 129.208586 87.617746 
L 130.294387 84.535501 
L 131.380189 85.623352 
L 132.46599 84.571762 
L 133.551791 83.991575 
L 134.637592 81.924657 
L 135.723393 82.142228 
L 136.809194 82.649892 
L 137.894995 82.8312 
L 138.980797 138.057785 
L 140.066598 127.650674 
L 141.152399 115.648048 
L 142.2382 119.999453 
L 143.324001 126.852916 
L 144.409802 119.419266 
L 145.495604 119.854406 
L 146.581405 111.514213 
L 147.667206 110.317577 
L 148.753007 106.220003 
L 149.838808 112.203185 
L 150.924609 103.355328 
L 152.01041 114.41515 
L 153.096212 110.716455 
L 154.182013 105.09589 
L 155.267814 109.519819 
L 156.353615 104.334394 
L 157.439416 106.183742 
L 158.525217 97.227099 
L 159.611019 99.14897 
L 160.69682 102.775141 
L 161.782621 99.112708 
L 162.868422 99.620372 
L 163.954223 99.221493 
L 165.040024 96.465603 
L 166.125825 96.973267 
L 167.211627 99.620372 
L 168.297428 95.305229 
L 169.383229 96.755697 
L 170.46903 90.156066 
L 171.554831 95.414014 
L 172.640632 97.734763 
L 173.726434 95.268967 
L 174.812235 89.467093 
L 175.898036 85.877184 
L 176.983837 86.312324 
L 178.069638 91.171394 
L 179.155439 95.450275 
L 180.24124 83.338864 
L 181.327042 83.302602 
L 182.412843 84.934379 
L 183.498644 85.36952 
L 184.584445 80.329142 
L 185.670246 80.111572 
L 186.756047 82.105966 
L 187.841849 76.412877 
L 188.92765 78.58858 
L 190.013451 74.889886 
L 192.185053 75.868952 
L 193.270854 72.532874 
L 194.356656 71.80764 
L 195.442457 72.424089 
L 196.528258 67.963899 
L 197.614059 69.523153 
L 198.69986 67.238665 
L 199.785661 67.238665 
L 200.871462 66.948571 
L 201.957264 68.399039 
L 203.043065 66.187075 
L 204.128866 64.37399 
L 205.214667 65.062962 
L 206.300468 62.198287 
L 207.386269 61.364268 
L 208.472071 60.167631 
L 209.557872 61.6181 
L 210.643673 60.820342 
L 211.729474 59.116042 
L 212.815275 59.623706 
L 213.901076 58.535854 
L 214.986877 58.136975 
L 216.072679 58.572116 
L 217.15848 58.608378 
L 218.244281 58.789686 
L 220.415883 57.774358 
L 221.501684 57.701835 
L 222.587486 58.390807 
L 223.673287 57.774358 
L 224.759088 58.898471 
L 225.844889 106.691406 
L 226.93069 110.825241 
L 228.016491 104.769535 
L 229.102292 106.908976 
L 230.188094 106.002433 
L 231.273895 107.597948 
L 232.359696 110.136268 
L 233.445497 105.893648 
L 234.531298 103.246543 
L 235.617099 101.68729 
L 236.702901 107.307855 
L 237.788702 100.85327 
L 239.960304 106.58262 
L 241.046105 102.920188 
L 242.131906 101.759813 
L 243.217708 98.786353 
L 244.303509 99.330278 
L 245.38931 95.812892 
L 246.475111 97.66224 
L 247.560912 108.033089 
L 248.646713 96.356818 
L 249.732514 102.231215 
L 250.818316 96.791959 
L 251.904117 97.444669 
L 252.989918 93.238311 
L 254.075719 95.921678 
L 255.16152 104.044301 
L 256.247321 98.459997 
L 257.333123 92.259245 
L 258.418924 91.715319 
L 259.504725 100.671962 
L 260.590526 94.326162 
L 261.676327 104.008039 
L 262.762128 89.684663 
L 264.933731 93.745975 
L 266.019532 99.040185 
L 267.105333 93.093264 
L 268.191134 91.932889 
L 269.276935 91.570272 
L 270.362736 94.761303 
L 271.448538 92.911956 
L 272.534339 100.345606 
L 273.62014 93.020741 
L 274.705941 87.07382 
L 275.791742 82.541106 
L 276.877543 83.955313 
L 277.963344 89.684663 
L 279.049146 87.690269 
L 280.134947 87.799054 
L 281.220748 89.648402 
L 282.306549 90.482421 
L 283.39235 86.783727 
L 284.478151 87.581484 
L 285.563953 84.354192 
L 286.649754 95.812892 
L 287.735555 84.209145 
L 288.821356 81.380732 
L 289.907157 83.628958 
L 290.992958 89.430831 
L 293.164561 79.64017 
L 294.250362 87.182605 
L 295.336163 81.018115 
L 296.421964 81.054376 
L 297.507765 79.966525 
L 298.593566 85.695875 
L 299.679368 80.29288 
L 300.765169 85.550828 
L 301.85097 79.495123 
L 302.936771 77.863346 
L 304.022572 74.817362 
L 306.194175 80.945591 
L 307.279976 78.842412 
L 308.365777 79.205029 
L 309.451578 76.412877 
L 310.537379 75.216241 
L 311.62318 78.443533 
L 312.708981 74.672315 
L 313.794783 76.775495 
L 314.880584 71.771379 
L 315.966385 78.58858 
L 317.052186 74.237175 
L 318.137987 76.267831 
L 319.223788 74.56353 
L 320.30959 71.408761 
L 321.395391 68.942965 
L 322.481192 69.160535 
L 323.566993 70.248387 
L 324.652794 71.626332 
L 325.738595 66.694739 
L 327.910198 69.922031 
L 328.995999 68.435301 
L 330.0818 65.896981 
L 332.253402 69.631938 
L 333.339203 75.796428 
L 334.425005 67.311188 
L 335.510806 65.280532 
L 336.596607 69.595676 
L 337.682408 64.301466 
L 338.768209 65.135486 
L 339.85401 60.78408 
L 340.939811 64.59156 
L 342.025613 61.509315 
L 343.111414 64.482775 
L 344.197215 61.581838 
L 345.283016 64.120158 
L 346.368817 58.572116 
L 347.454618 60.856604 
L 348.54042 60.602772 
L 349.626221 63.975111 
L 350.712022 59.587444 
L 351.797823 59.51492 
L 352.883624 60.493987 
L 353.969425 61.074174 
L 355.055227 56.468937 
L 356.141028 61.219221 
L 357.226829 57.774358 
L 358.31263 55.018468 
L 359.398431 57.665573 
L 360.484232 56.033796 
L 361.570033 55.526132 
L 362.655835 54.220711 
L 363.741636 53.568 
L 364.827437 55.489871 
L 365.913238 55.598656 
L 366.999039 54.256972 
L 368.08484 56.650245 
L 369.170642 56.759031 
L 370.256443 57.991929 
L 371.342244 58.535854 
L 372.428045 60.856604 
L 373.513846 62.669689 
L 374.599647 60.675295 
L 375.685448 58.245761 
L 376.77125 59.333612 
L 377.857051 63.830064 
L 378.942852 65.896981 
L 380.028653 64.627822 
L 381.114454 62.524642 
L 382.200255 63.975111 
L 383.286057 63.757541 
L 384.371858 62.452119 
L 385.457659 62.959783 
L 386.54346 62.996045 
L 387.629261 64.555298 
L 388.715062 59.913799 
L 389.800863 58.644639 
L 390.886665 64.845392 
L 391.972466 60.711557 
L 393.058267 61.219221 
L 394.144068 60.312678 
L 395.229869 59.768752 
L 396.31567 61.473053 
L 397.401472 64.156419 
L 398.487273 62.669689 
L 398.487273 62.669689 
" clip-path="url(#pff2274758e)" style="fill: none; stroke: #ff7f0e; stroke-width: 1.5; stroke-linecap: square"/>
   </g>
   <g id="line2d_20">
    <path d="M 73.832727 293.267908 
L 74.918528 281.189007 
L 76.00433 276.937634 
L 77.090131 271.66093 
L 78.175932 272.286132 
L 79.261733 259.406973 
L 80.347534 263.008136 
L 81.433335 252.179639 
L 82.519137 244.327103 
L 83.604938 243.376796 
L 84.690739 241.776279 
L 85.77654 238.175117 
L 86.862341 236.749656 
L 87.948142 238.400189 
L 89.033943 236.549592 
L 90.119745 228.471983 
L 91.205546 229.497314 
L 92.291347 230.147524 
L 93.377148 225.921159 
L 94.462949 226.996507 
L 95.54875 243.401804 
L 96.634552 235.999414 
L 97.720353 242.576538 
L 98.806154 230.597669 
L 99.891955 240.575892 
L 100.977756 239.925682 
L 102.063557 226.896474 
L 103.149358 222.395021 
L 104.23516 228.797088 
L 105.320961 225.896151 
L 106.406762 223.870497 
L 107.492563 219.744164 
L 108.578364 221.394698 
L 109.664165 219.369043 
L 110.749967 219.444068 
L 111.835768 213.717218 
L 112.921569 209.190756 
L 114.00737 210.96633 
L 115.093171 206.039739 
L 116.178972 213.56717 
L 117.264773 206.014731 
L 118.350575 204.764327 
L 119.436376 194.285943 
L 120.522177 206.839997 
L 121.607978 198.062163 
L 122.693779 198.187203 
L 123.77958 201.163164 
L 124.865382 192.285297 
L 125.951183 194.661064 
L 127.036984 198.812405 
L 128.122785 192.335313 
L 129.208586 193.060547 
L 130.294387 189.984554 
L 131.380189 192.360321 
L 132.46599 192.960515 
L 133.551791 189.184296 
L 134.637592 186.758512 
L 135.723393 187.658803 
L 136.809194 187.033601 
L 137.894995 188.258997 
L 138.980797 229.247233 
L 140.066598 222.92019 
L 141.152399 208.665587 
L 142.2382 220.84452 
L 143.324001 225.996183 
L 144.409802 216.443098 
L 145.495604 218.193664 
L 146.581405 208.815635 
L 147.667206 205.739642 
L 148.753007 205.339513 
L 149.838808 207.965361 
L 150.924609 195.88646 
L 152.01041 216.668171 
L 153.096212 205.214472 
L 154.182013 206.014731 
L 155.267814 209.815958 
L 156.353615 200.087817 
L 157.439416 201.438253 
L 158.525217 193.210596 
L 159.611019 196.486654 
L 160.69682 203.81402 
L 162.868422 195.436315 
L 163.954223 202.488592 
L 165.040024 192.360321 
L 166.125825 200.337897 
L 167.211627 203.538931 
L 168.297428 195.636379 
L 169.383229 201.413245 
L 170.46903 189.634441 
L 171.554831 197.436961 
L 172.640632 199.13751 
L 173.726434 194.561032 
L 174.812235 189.084263 
L 175.898036 184.882906 
L 176.983837 190.259643 
L 178.069638 188.659126 
L 179.155439 193.41066 
L 180.24124 186.383391 
L 181.327042 181.256735 
L 182.412843 180.531501 
L 183.498644 191.059901 
L 184.584445 180.431469 
L 185.670246 180.231404 
L 186.756047 186.308367 
L 187.841849 177.580548 
L 188.92765 189.834506 
L 190.013451 176.455185 
L 191.099252 185.533116 
L 192.185053 180.15638 
L 193.270854 176.355153 
L 194.356656 171.628626 
L 195.442457 175.729951 
L 196.528258 172.22882 
L 197.614059 172.728982 
L 198.69986 175.905007 
L 199.785661 167.977447 
L 201.957264 172.478901 
L 203.043065 167.55231 
L 204.128866 166.501971 
L 205.214667 172.979062 
L 206.300468 164.576349 
L 207.386269 168.527625 
L 208.472071 165.176543 
L 209.557872 165.376607 
L 210.643673 164.976478 
L 211.729474 165.07651 
L 212.815275 163.475993 
L 213.901076 164.376284 
L 214.986877 161.300291 
L 216.072679 163.300937 
L 217.15848 160.199935 
L 218.244281 162.700743 
L 219.330082 160.750113 
L 221.501684 160.800129 
L 222.587486 161.600388 
L 223.673287 160.950178 
L 224.759088 161.500355 
L 225.844889 209.991015 
L 226.93069 209.966007 
L 228.016491 197.31192 
L 229.102292 209.840966 
L 230.188094 208.990692 
L 231.273895 205.714634 
L 232.359696 206.339836 
L 233.445497 202.563616 
L 234.531298 208.515538 
L 235.617099 201.563293 
L 236.702901 208.865651 
L 237.788702 200.612986 
L 238.874503 202.713665 
L 239.960304 212.841936 
L 241.046105 199.312566 
L 243.217708 193.910822 
L 244.303509 186.983585 
L 245.38931 192.710434 
L 246.475111 199.687688 
L 247.560912 208.815635 
L 248.646713 187.658803 
L 249.732514 197.662033 
L 250.818316 187.158641 
L 251.904117 192.285297 
L 252.989918 190.03457 
L 254.075719 189.134279 
L 255.16152 206.264812 
L 256.247321 184.932923 
L 257.333123 190.009562 
L 258.418924 191.359998 
L 259.504725 196.66171 
L 260.590526 189.90953 
L 261.676327 193.635733 
L 262.762128 184.982939 
L 263.847929 192.910499 
L 264.933731 194.310951 
L 266.019532 202.263519 
L 268.191134 188.634118 
L 269.276935 186.808528 
L 270.362736 191.885168 
L 271.448538 192.460354 
L 272.534339 193.28562 
L 273.62014 191.435022 
L 275.791742 185.958254 
L 276.877543 182.056994 
L 277.963344 178.880968 
L 279.049146 188.183973 
L 280.134947 183.607495 
L 281.220748 182.607172 
L 282.306549 191.535055 
L 283.39235 181.606849 
L 284.478151 184.83289 
L 285.563953 183.382422 
L 286.649754 195.311274 
L 287.735555 185.35806 
L 288.821356 180.231404 
L 290.992958 192.185265 
L 292.07876 176.580225 
L 293.164561 178.180742 
L 294.250362 186.53344 
L 295.336163 180.456477 
L 296.421964 179.181065 
L 297.507765 184.207688 
L 298.593566 184.482777 
L 299.679368 182.432115 
L 300.765169 188.659126 
L 301.85097 174.354506 
L 302.936771 179.38113 
L 304.022572 169.75302 
L 306.194175 184.632826 
L 307.279976 171.078449 
L 308.365777 180.981647 
L 309.451578 172.203812 
L 310.537379 177.255443 
L 311.62318 173.179127 
L 312.708981 178.405815 
L 313.794783 174.05441 
L 314.880584 174.17945 
L 315.966385 179.50617 
L 317.052186 173.704296 
L 318.137987 174.754636 
L 319.223788 175.329821 
L 320.30959 168.802714 
L 321.395391 165.951793 
L 322.481192 168.32756 
L 323.566993 176.555217 
L 324.652794 177.230435 
L 325.738595 166.802068 
L 326.824396 168.252536 
L 327.910198 167.977447 
L 328.995999 167.102164 
L 330.0818 163.325945 
L 331.167601 163.100872 
L 332.253402 170.828368 
L 333.339203 173.079095 
L 334.425005 164.576349 
L 335.510806 159.049564 
L 336.596607 167.377253 
L 337.682408 165.351599 
L 338.768209 162.825783 
L 339.85401 165.626688 
L 340.939811 170.103134 
L 342.025613 162.325622 
L 343.111414 167.227205 
L 344.197215 163.200905 
L 345.283016 163.150888 
L 346.368817 155.72349 
L 347.454618 161.70042 
L 348.54042 164.776413 
L 349.626221 165.201551 
L 350.712022 156.723813 
L 351.797823 157.14895 
L 352.883624 160.825137 
L 353.969425 156.3737 
L 355.055227 152.947593 
L 356.141028 157.949209 
L 357.226829 158.749467 
L 358.31263 155.148304 
L 359.398431 156.948886 
L 360.484232 159.724782 
L 361.570033 153.797868 
L 362.655835 150.071665 
L 363.741636 150.196705 
L 364.827437 157.724136 
L 365.913238 154.623134 
L 366.999039 152.422424 
L 368.08484 154.248013 
L 369.170642 153.272698 
L 370.256443 159.324653 
L 371.342244 155.998579 
L 372.428045 159.399677 
L 373.513846 160.199935 
L 374.599647 158.874507 
L 375.685448 157.974217 
L 376.77125 156.698805 
L 377.857051 160.249952 
L 378.942852 169.027786 
L 380.028653 160.324976 
L 381.114454 158.949532 
L 382.200255 165.626688 
L 383.286057 161.500355 
L 384.371858 159.324653 
L 385.457659 156.448724 
L 386.54346 156.523748 
L 387.629261 168.127496 
L 388.715062 159.974863 
L 389.800863 157.073926 
L 390.886665 167.302229 
L 391.972466 164.026171 
L 393.058267 162.050533 
L 394.144068 161.100226 
L 395.229869 160.975186 
L 396.31567 162.100549 
L 397.401472 162.625719 
L 398.487273 165.676704 
L 398.487273 165.676704 
" clip-path="url(#pff2274758e)" style="fill: none; stroke: #2ca02c; stroke-width: 1.5; stroke-linecap: square"/>
   </g>
   <g id="line2d_21">
    <path d="M 368.08484 54.256972 
L 369.170642 55.2723 
L 370.256443 58.789686 
L 371.342244 63.177353 
L 372.428045 62.307072 
L 373.513846 59.51492 
L 374.599647 63.286138 
L 375.685448 63.10483 
L 376.77125 63.576232 
L 377.857051 64.301466 
L 378.942852 71.299976 
L 380.028653 61.799408 
L 381.114454 65.062962 
L 382.200255 66.07829 
L 383.286057 74.055866 
L 384.371858 72.206519 
L 385.457659 74.382222 
L 386.54346 74.636054 
L 387.629261 74.019605 
L 388.715062 73.185585 
L 389.800863 75.252503 
L 390.886665 76.630448 
L 391.972466 79.059982 
L 393.058267 80.582974 
L 394.144068 87.617746 
L 395.229869 86.892512 
L 396.31567 76.920541 
L 397.401472 77.210635 
L 398.487273 75.506335 
L 398.487273 75.506335 
" clip-path="url(#pff2274758e)" style="fill: none; stroke: #d62728; stroke-width: 1.5; stroke-linecap: square"/>
   </g>
   <g id="line2d_22">
    <path d="M 368.08484 152.497448 
L 369.170642 154.072957 
L 370.256443 158.699451 
L 371.342244 165.226559 
L 372.428045 164.476316 
L 373.513846 159.349661 
L 374.599647 158.799483 
L 375.685448 161.525363 
L 376.77125 158.074249 
L 377.857051 163.475993 
L 378.942852 173.729305 
L 380.028653 158.649435 
L 381.114454 166.551987 
L 382.200255 161.500355 
L 383.286057 173.829337 
L 384.371858 174.254474 
L 385.457659 172.578933 
L 386.54346 173.179127 
L 387.629261 178.005686 
L 388.715062 178.530855 
L 389.800863 180.331437 
L 390.886665 178.255766 
L 391.972466 179.581194 
L 393.058267 183.732535 
L 394.144068 192.135249 
L 395.229869 189.25932 
L 396.31567 178.455831 
L 397.401472 177.955669 
L 398.487273 177.580548 
L 398.487273 177.580548 
" clip-path="url(#pff2274758e)" style="fill: none; stroke: #9467bd; stroke-width: 1.5; stroke-linecap: square"/>
   </g>
   <g id="patch_3">
    <path d="M 57.6 307.584 
L 57.6 41.472 
" style="fill: none; stroke: #000000; stroke-width: 0.8; stroke-linejoin: miter; stroke-linecap: square"/>
   </g>
   <g id="patch_4">
    <path d="M 414.72 307.584 
L 414.72 41.472 
" style="fill: none; stroke: #000000; stroke-width: 0.8; stroke-linejoin: miter; stroke-linecap: square"/>
   </g>
   <g id="patch_5">
    <path d="M 57.6 307.584 
L 414.72 307.584 
" style="fill: none; stroke: #000000; stroke-width: 0.8; stroke-linejoin: miter; stroke-linecap: square"/>
   </g>
   <g id="patch_6">
    <path d="M 57.6 41.472 
L 414.72 41.472 
" style="fill: none; stroke: #000000; stroke-width: 0.8; stroke-linejoin: miter; stroke-linecap: square"/>
   </g>
   <g id="text_20">
    <!-- Learning Curves -->
    <g transform="translate(187.37625 35.472) scale(0.12 -0.12)">
     <defs>
      <path id="DejaVuSans-4c" d="M 628 4666 
L 1259 4666 
L 1259 531 
L 3531 531 
L 3531 0 
L 628 0 
L 628 4666 
z
" transform="scale(0.015625)"/>
      <path id="DejaVuSans-65" d="M 3597 1894 
L 3597 1613 
L 953 1613 
Q 991 1019 1311 708 
Q 1631 397 2203 397 
Q 2534 397 2845 478 
Q 3156 559 3463 722 
L 3463 178 
Q 3153 47 2828 -22 
Q 2503 -91 2169 -91 
Q 1331 -91 842 396 
Q 353 884 353 1716 
Q 353 2575 817 3079 
Q 1281 3584 2069 3584 
Q 2775 3584 3186 3129 
Q 3597 2675 3597 1894 
z
M 3022 2063 
Q 3016 2534 2758 2815 
Q 2500 3097 2075 3097 
Q 1594 3097 1305 2825 
Q 1016 2553 972 2059 
L 3022 2063 
z
" transform="scale(0.015625)"/>
      <path id="DejaVuSans-6e" d="M 3513 2113 
L 3513 0 
L 2938 0 
L 2938 2094 
Q 2938 2591 2744 2837 
Q 2550 3084 2163 3084 
Q 1697 3084 1428 2787 
Q 1159 2491 1159 1978 
L 1159 0 
L 581 0 
L 581 3500 
L 1159 3500 
L 1159 2956 
Q 1366 3272 1645 3428 
Q 1925 3584 2291 3584 
Q 2894 3584 3203 3211 
Q 3513 2838 3513 2113 
z
" transform="scale(0.015625)"/>
      <path id="DejaVuSans-69" d="M 603 3500 
L 1178 3500 
L 1178 0 
L 603 0 
L 603 3500 
z
M 603 4863 
L 1178 4863 
L 1178 4134 
L 603 4134 
L 603 4863 
z
" transform="scale(0.015625)"/>
      <path id="DejaVuSans-67" d="M 2906 1791 
Q 2906 2416 2648 2759 
Q 2391 3103 1925 3103 
Q 1463 3103 1205 2759 
Q 947 2416 947 1791 
Q 947 1169 1205 825 
Q 1463 481 1925 481 
Q 2391 481 2648 825 
Q 2906 1169 2906 1791 
z
M 3481 434 
Q 3481 -459 3084 -895 
Q 2688 -1331 1869 -1331 
Q 1566 -1331 1297 -1286 
Q 1028 -1241 775 -1147 
L 775 -588 
Q 1028 -725 1275 -790 
Q 1522 -856 1778 -856 
Q 2344 -856 2625 -561 
Q 2906 -266 2906 331 
L 2906 616 
Q 2728 306 2450 153 
Q 2172 0 1784 0 
Q 1141 0 747 490 
Q 353 981 353 1791 
Q 353 2603 747 3093 
Q 1141 3584 1784 3584 
Q 2172 3584 2450 3431 
Q 2728 3278 2906 2969 
L 2906 3500 
L 3481 3500 
L 3481 434 
z
" transform="scale(0.015625)"/>
      <path id="DejaVuSans-20" transform="scale(0.015625)"/>
      <path id="DejaVuSans-43" d="M 4122 4306 
L 4122 3641 
Q 3803 3938 3442 4084 
Q 3081 4231 2675 4231 
Q 1875 4231 1450 3742 
Q 1025 3253 1025 2328 
Q 1025 1406 1450 917 
Q 1875 428 2675 428 
Q 3081 428 3442 575 
Q 3803 722 4122 1019 
L 4122 359 
Q 3791 134 3420 21 
Q 3050 -91 2638 -91 
Q 1578 -91 968 557 
Q 359 1206 359 2328 
Q 359 3453 968 4101 
Q 1578 4750 2638 4750 
Q 3056 4750 3426 4639 
Q 3797 4528 4122 4306 
z
" transform="scale(0.015625)"/>
      <path id="DejaVuSans-76" d="M 191 3500 
L 800 3500 
L 1894 563 
L 2988 3500 
L 3597 3500 
L 2284 0 
L 1503 0 
L 191 3500 
z
" transform="scale(0.015625)"/>
     </defs>
     <use xlink:href="#DejaVuSans-4c"/>
     <use xlink:href="#DejaVuSans-65" x="53.962891"/>
     <use xlink:href="#DejaVuSans-61" x="115.486328"/>
     <use xlink:href="#DejaVuSans-72" x="176.765625"/>
     <use xlink:href="#DejaVuSans-6e" x="216.128906"/>
     <use xlink:href="#DejaVuSans-69" x="279.507812"/>
     <use xlink:href="#DejaVuSans-6e" x="307.291016"/>
     <use xlink:href="#DejaVuSans-67" x="370.669922"/>
     <use xlink:href="#DejaVuSans-20" x="434.146484"/>
     <use xlink:href="#DejaVuSans-43" x="465.933594"/>
     <use xlink:href="#DejaVuSans-75" x="535.757812"/>
     <use xlink:href="#DejaVuSans-72" x="599.136719"/>
     <use xlink:href="#DejaVuSans-76" x="640.25"/>
     <use xlink:href="#DejaVuSans-65" x="699.429688"/>
     <use xlink:href="#DejaVuSans-73" x="760.953125"/>
    </g>
   </g>
   <g id="legend_1">
    <g id="patch_7">
     <path d="M 214.18875 302.584 
L 407.72 302.584 
Q 409.72 302.584 409.72 300.584 
L 409.72 228.193375 
Q 409.72 226.193375 407.72 226.193375 
L 214.18875 226.193375 
Q 212.18875 226.193375 212.18875 228.193375 
L 212.18875 300.584 
Q 212.18875 302.584 214.18875 302.584 
z
" style="fill: #ffffff; opacity: 0.8; stroke: #cccccc; stroke-linejoin: miter"/>
    </g>
    <g id="line2d_23">
     <path d="M 216.18875 234.291812 
L 226.18875 234.291812 
L 236.18875 234.291812 
" style="fill: none; stroke: #1f77b4; stroke-width: 1.5; stroke-linecap: square"/>
    </g>
    <g id="text_21">
     <!-- Train Accuracy -->
     <g transform="translate(244.18875 237.791812) scale(0.1 -0.1)">
      <defs>
       <path id="DejaVuSans-54" d="M -19 4666 
L 3928 4666 
L 3928 4134 
L 2272 4134 
L 2272 0 
L 1638 0 
L 1638 4134 
L -19 4134 
L -19 4666 
z
" transform="scale(0.015625)"/>
      </defs>
      <use xlink:href="#DejaVuSans-54"/>
      <use xlink:href="#DejaVuSans-72" x="46.333984"/>
      <use xlink:href="#DejaVuSans-61" x="87.447266"/>
      <use xlink:href="#DejaVuSans-69" x="148.726562"/>
      <use xlink:href="#DejaVuSans-6e" x="176.509766"/>
      <use xlink:href="#DejaVuSans-20" x="239.888672"/>
      <use xlink:href="#DejaVuSans-41" x="271.675781"/>
      <use xlink:href="#DejaVuSans-63" x="338.333984"/>
      <use xlink:href="#DejaVuSans-63" x="393.314453"/>
      <use xlink:href="#DejaVuSans-75" x="448.294922"/>
      <use xlink:href="#DejaVuSans-72" x="511.673828"/>
      <use xlink:href="#DejaVuSans-61" x="552.787109"/>
      <use xlink:href="#DejaVuSans-63" x="614.066406"/>
      <use xlink:href="#DejaVuSans-79" x="669.046875"/>
     </g>
    </g>
    <g id="line2d_24">
     <path d="M 216.18875 248.969937 
L 226.18875 248.969937 
L 236.18875 248.969937 
" style="fill: none; stroke: #ff7f0e; stroke-width: 1.5; stroke-linecap: square"/>
    </g>
    <g id="text_22">
     <!-- Validation Accuracy -->
     <g transform="translate(244.18875 252.469937) scale(0.1 -0.1)">
      <defs>
       <path id="DejaVuSans-56" d="M 1831 0 
L 50 4666 
L 709 4666 
L 2188 738 
L 3669 4666 
L 4325 4666 
L 2547 0 
L 1831 0 
z
" transform="scale(0.015625)"/>
       <path id="DejaVuSans-6c" d="M 603 4863 
L 1178 4863 
L 1178 0 
L 603 0 
L 603 4863 
z
" transform="scale(0.015625)"/>
       <path id="DejaVuSans-64" d="M 2906 2969 
L 2906 4863 
L 3481 4863 
L 3481 0 
L 2906 0 
L 2906 525 
Q 2725 213 2448 61 
Q 2172 -91 1784 -91 
Q 1150 -91 751 415 
Q 353 922 353 1747 
Q 353 2572 751 3078 
Q 1150 3584 1784 3584 
Q 2172 3584 2448 3432 
Q 2725 3281 2906 2969 
z
M 947 1747 
Q 947 1113 1208 752 
Q 1469 391 1925 391 
Q 2381 391 2643 752 
Q 2906 1113 2906 1747 
Q 2906 2381 2643 2742 
Q 2381 3103 1925 3103 
Q 1469 3103 1208 2742 
Q 947 2381 947 1747 
z
" transform="scale(0.015625)"/>
       <path id="DejaVuSans-74" d="M 1172 4494 
L 1172 3500 
L 2356 3500 
L 2356 3053 
L 1172 3053 
L 1172 1153 
Q 1172 725 1289 603 
Q 1406 481 1766 481 
L 2356 481 
L 2356 0 
L 1766 0 
Q 1100 0 847 248 
Q 594 497 594 1153 
L 594 3053 
L 172 3053 
L 172 3500 
L 594 3500 
L 594 4494 
L 1172 4494 
z
" transform="scale(0.015625)"/>
      </defs>
      <use xlink:href="#DejaVuSans-56"/>
      <use xlink:href="#DejaVuSans-61" x="60.658203"/>
      <use xlink:href="#DejaVuSans-6c" x="121.9375"/>
      <use xlink:href="#DejaVuSans-69" x="149.720703"/>
      <use xlink:href="#DejaVuSans-64" x="177.503906"/>
      <use xlink:href="#DejaVuSans-61" x="240.980469"/>
      <use xlink:href="#DejaVuSans-74" x="302.259766"/>
      <use xlink:href="#DejaVuSans-69" x="341.46875"/>
      <use xlink:href="#DejaVuSans-6f" x="369.251953"/>
      <use xlink:href="#DejaVuSans-6e" x="430.433594"/>
      <use xlink:href="#DejaVuSans-20" x="493.8125"/>
      <use xlink:href="#DejaVuSans-41" x="525.599609"/>
      <use xlink:href="#DejaVuSans-63" x="592.257812"/>
      <use xlink:href="#DejaVuSans-63" x="647.238281"/>
      <use xlink:href="#DejaVuSans-75" x="702.21875"/>
      <use xlink:href="#DejaVuSans-72" x="765.597656"/>
      <use xlink:href="#DejaVuSans-61" x="806.710938"/>
      <use xlink:href="#DejaVuSans-63" x="867.990234"/>
      <use xlink:href="#DejaVuSans-79" x="922.970703"/>
     </g>
    </g>
    <g id="line2d_25">
     <path d="M 216.18875 263.648062 
L 226.18875 263.648062 
L 236.18875 263.648062 
" style="fill: none; stroke: #2ca02c; stroke-width: 1.5; stroke-linecap: square"/>
    </g>
    <g id="text_23">
     <!-- Robust Validation Accuracy -->
     <g transform="translate(244.18875 267.148062) scale(0.1 -0.1)">
      <defs>
       <path id="DejaVuSans-52" d="M 2841 2188 
Q 3044 2119 3236 1894 
Q 3428 1669 3622 1275 
L 4263 0 
L 3584 0 
L 2988 1197 
Q 2756 1666 2539 1819 
Q 2322 1972 1947 1972 
L 1259 1972 
L 1259 0 
L 628 0 
L 628 4666 
L 2053 4666 
Q 2853 4666 3247 4331 
Q 3641 3997 3641 3322 
Q 3641 2881 3436 2590 
Q 3231 2300 2841 2188 
z
M 1259 4147 
L 1259 2491 
L 2053 2491 
Q 2509 2491 2742 2702 
Q 2975 2913 2975 3322 
Q 2975 3731 2742 3939 
Q 2509 4147 2053 4147 
L 1259 4147 
z
" transform="scale(0.015625)"/>
       <path id="DejaVuSans-62" d="M 3116 1747 
Q 3116 2381 2855 2742 
Q 2594 3103 2138 3103 
Q 1681 3103 1420 2742 
Q 1159 2381 1159 1747 
Q 1159 1113 1420 752 
Q 1681 391 2138 391 
Q 2594 391 2855 752 
Q 3116 1113 3116 1747 
z
M 1159 2969 
Q 1341 3281 1617 3432 
Q 1894 3584 2278 3584 
Q 2916 3584 3314 3078 
Q 3713 2572 3713 1747 
Q 3713 922 3314 415 
Q 2916 -91 2278 -91 
Q 1894 -91 1617 61 
Q 1341 213 1159 525 
L 1159 0 
L 581 0 
L 581 4863 
L 1159 4863 
L 1159 2969 
z
" transform="scale(0.015625)"/>
      </defs>
      <use xlink:href="#DejaVuSans-52"/>
      <use xlink:href="#DejaVuSans-6f" x="64.982422"/>
      <use xlink:href="#DejaVuSans-62" x="126.164062"/>
      <use xlink:href="#DejaVuSans-75" x="189.640625"/>
      <use xlink:href="#DejaVuSans-73" x="253.019531"/>
      <use xlink:href="#DejaVuSans-74" x="305.119141"/>
      <use xlink:href="#DejaVuSans-20" x="344.328125"/>
      <use xlink:href="#DejaVuSans-56" x="376.115234"/>
      <use xlink:href="#DejaVuSans-61" x="436.773438"/>
      <use xlink:href="#DejaVuSans-6c" x="498.052734"/>
      <use xlink:href="#DejaVuSans-69" x="525.835938"/>
      <use xlink:href="#DejaVuSans-64" x="553.619141"/>
      <use xlink:href="#DejaVuSans-61" x="617.095703"/>
      <use xlink:href="#DejaVuSans-74" x="678.375"/>
      <use xlink:href="#DejaVuSans-69" x="717.583984"/>
      <use xlink:href="#DejaVuSans-6f" x="745.367188"/>
      <use xlink:href="#DejaVuSans-6e" x="806.548828"/>
      <use xlink:href="#DejaVuSans-20" x="869.927734"/>
      <use xlink:href="#DejaVuSans-41" x="901.714844"/>
      <use xlink:href="#DejaVuSans-63" x="968.373047"/>
      <use xlink:href="#DejaVuSans-63" x="1023.353516"/>
      <use xlink:href="#DejaVuSans-75" x="1078.333984"/>
      <use xlink:href="#DejaVuSans-72" x="1141.712891"/>
      <use xlink:href="#DejaVuSans-61" x="1182.826172"/>
      <use xlink:href="#DejaVuSans-63" x="1244.105469"/>
      <use xlink:href="#DejaVuSans-79" x="1299.085938"/>
     </g>
    </g>
    <g id="line2d_26">
     <path d="M 216.18875 278.326188 
L 226.18875 278.326188 
L 236.18875 278.326188 
" style="fill: none; stroke: #d62728; stroke-width: 1.5; stroke-linecap: square"/>
    </g>
    <g id="text_24">
     <!-- SWA Validation Accuracy -->
     <g transform="translate(244.18875 281.826188) scale(0.1 -0.1)">
      <defs>
       <path id="DejaVuSans-53" d="M 3425 4513 
L 3425 3897 
Q 3066 4069 2747 4153 
Q 2428 4238 2131 4238 
Q 1616 4238 1336 4038 
Q 1056 3838 1056 3469 
Q 1056 3159 1242 3001 
Q 1428 2844 1947 2747 
L 2328 2669 
Q 3034 2534 3370 2195 
Q 3706 1856 3706 1288 
Q 3706 609 3251 259 
Q 2797 -91 1919 -91 
Q 1588 -91 1214 -16 
Q 841 59 441 206 
L 441 856 
Q 825 641 1194 531 
Q 1563 422 1919 422 
Q 2459 422 2753 634 
Q 3047 847 3047 1241 
Q 3047 1584 2836 1778 
Q 2625 1972 2144 2069 
L 1759 2144 
Q 1053 2284 737 2584 
Q 422 2884 422 3419 
Q 422 4038 858 4394 
Q 1294 4750 2059 4750 
Q 2388 4750 2728 4690 
Q 3069 4631 3425 4513 
z
" transform="scale(0.015625)"/>
       <path id="DejaVuSans-57" d="M 213 4666 
L 850 4666 
L 1831 722 
L 2809 4666 
L 3519 4666 
L 4500 722 
L 5478 4666 
L 6119 4666 
L 4947 0 
L 4153 0 
L 3169 4050 
L 2175 0 
L 1381 0 
L 213 4666 
z
" transform="scale(0.015625)"/>
      </defs>
      <use xlink:href="#DejaVuSans-53"/>
      <use xlink:href="#DejaVuSans-57" x="63.476562"/>
      <use xlink:href="#DejaVuSans-41" x="156.853516"/>
      <use xlink:href="#DejaVuSans-20" x="225.261719"/>
      <use xlink:href="#DejaVuSans-56" x="257.048828"/>
      <use xlink:href="#DejaVuSans-61" x="317.707031"/>
      <use xlink:href="#DejaVuSans-6c" x="378.986328"/>
      <use xlink:href="#DejaVuSans-69" x="406.769531"/>
      <use xlink:href="#DejaVuSans-64" x="434.552734"/>
      <use xlink:href="#DejaVuSans-61" x="498.029297"/>
      <use xlink:href="#DejaVuSans-74" x="559.308594"/>
      <use xlink:href="#DejaVuSans-69" x="598.517578"/>
      <use xlink:href="#DejaVuSans-6f" x="626.300781"/>
      <use xlink:href="#DejaVuSans-6e" x="687.482422"/>
      <use xlink:href="#DejaVuSans-20" x="750.861328"/>
      <use xlink:href="#DejaVuSans-41" x="782.648438"/>
      <use xlink:href="#DejaVuSans-63" x="849.306641"/>
      <use xlink:href="#DejaVuSans-63" x="904.287109"/>
      <use xlink:href="#DejaVuSans-75" x="959.267578"/>
      <use xlink:href="#DejaVuSans-72" x="1022.646484"/>
      <use xlink:href="#DejaVuSans-61" x="1063.759766"/>
      <use xlink:href="#DejaVuSans-63" x="1125.039062"/>
      <use xlink:href="#DejaVuSans-79" x="1180.019531"/>
     </g>
    </g>
    <g id="line2d_27">
     <path d="M 216.18875 293.004312 
L 226.18875 293.004312 
L 236.18875 293.004312 
" style="fill: none; stroke: #9467bd; stroke-width: 1.5; stroke-linecap: square"/>
    </g>
    <g id="text_25">
     <!-- SWA Robust Validation Accuracy -->
     <g transform="translate(244.18875 296.504312) scale(0.1 -0.1)">
      <use xlink:href="#DejaVuSans-53"/>
      <use xlink:href="#DejaVuSans-57" x="63.476562"/>
      <use xlink:href="#DejaVuSans-41" x="156.853516"/>
      <use xlink:href="#DejaVuSans-20" x="225.261719"/>
      <use xlink:href="#DejaVuSans-52" x="257.048828"/>
      <use xlink:href="#DejaVuSans-6f" x="322.03125"/>
      <use xlink:href="#DejaVuSans-62" x="383.212891"/>
      <use xlink:href="#DejaVuSans-75" x="446.689453"/>
      <use xlink:href="#DejaVuSans-73" x="510.068359"/>
      <use xlink:href="#DejaVuSans-74" x="562.167969"/>
      <use xlink:href="#DejaVuSans-20" x="601.376953"/>
      <use xlink:href="#DejaVuSans-56" x="633.164062"/>
      <use xlink:href="#DejaVuSans-61" x="693.822266"/>
      <use xlink:href="#DejaVuSans-6c" x="755.101562"/>
      <use xlink:href="#DejaVuSans-69" x="782.884766"/>
      <use xlink:href="#DejaVuSans-64" x="810.667969"/>
      <use xlink:href="#DejaVuSans-61" x="874.144531"/>
      <use xlink:href="#DejaVuSans-74" x="935.423828"/>
      <use xlink:href="#DejaVuSans-69" x="974.632812"/>
      <use xlink:href="#DejaVuSans-6f" x="1002.416016"/>
      <use xlink:href="#DejaVuSans-6e" x="1063.597656"/>
      <use xlink:href="#DejaVuSans-20" x="1126.976562"/>
      <use xlink:href="#DejaVuSans-41" x="1158.763672"/>
      <use xlink:href="#DejaVuSans-63" x="1225.421875"/>
      <use xlink:href="#DejaVuSans-63" x="1280.402344"/>
      <use xlink:href="#DejaVuSans-75" x="1335.382812"/>
      <use xlink:href="#DejaVuSans-72" x="1398.761719"/>
      <use xlink:href="#DejaVuSans-61" x="1439.875"/>
      <use xlink:href="#DejaVuSans-63" x="1501.154297"/>
      <use xlink:href="#DejaVuSans-79" x="1556.134766"/>
     </g>
    </g>
   </g>
  </g>
 </g>
 <defs>
  <clipPath id="pff2274758e">
   <rect x="57.6" y="41.472" width="357.12" height="266.112"/>
  </clipPath>
 </defs>
</svg>
