<?xml version="1.0" encoding="utf-8" standalone="no"?>
<!DOCTYPE svg PUBLIC "-//W3C//DTD SVG 1.1//EN"
  "http://www.w3.org/Graphics/SVG/1.1/DTD/svg11.dtd">
<svg xmlns:xlink="http://www.w3.org/1999/xlink" width="460.8pt" height="345.6pt" viewBox="0 0 460.8 345.6" xmlns="http://www.w3.org/2000/svg" version="1.1">
 <metadata>
  <rdf:RDF xmlns:dc="http://purl.org/dc/elements/1.1/" xmlns:cc="http://creativecommons.org/ns#" xmlns:rdf="http://www.w3.org/1999/02/22-rdf-syntax-ns#">
   <cc:Work>
    <dc:type rdf:resource="http://purl.org/dc/dcmitype/StillImage"/>
    <dc:date>2025-02-11T09:29:10.657239</dc:date>
    <dc:format>image/svg+xml</dc:format>
    <dc:creator>
     <cc:Agent>
      <dc:title>Matplotlib v3.9.1, https://matplotlib.org/</dc:title>
     </cc:Agent>
    </dc:creator>
   </cc:Work>
  </rdf:RDF>
 </metadata>
 <defs>
  <style type="text/css">*{stroke-linejoin: round; stroke-linecap: butt}</style>
 </defs>
 <g id="figure_1">
  <g id="patch_1">
   <path d="M 0 345.6 
L 460.8 345.6 
L 460.8 0 
L 0 0 
z
" style="fill: #ffffff"/>
  </g>
  <g id="axes_1">
   <g id="patch_2">
    <path d="M 57.6 307.584 
L 414.72 307.584 
L 414.72 41.472 
L 57.6 41.472 
z
" style="fill: #ffffff"/>
   </g>
   <g id="matplotlib.axis_1">
    <g id="xtick_1">
     <g id="line2d_1">
      <defs>
       <path id="mde6330c2ce" d="M 0 0 
L 0 3.5 
" style="stroke: #000000; stroke-width: 0.8"/>
      </defs>
      <g>
       <use xlink:href="#mde6330c2ce" x="73.832727" y="307.584" style="stroke: #000000; stroke-width: 0.8"/>
      </g>
     </g>
     <g id="text_1">
      <!-- 1 -->
      <g transform="translate(70.651477 322.182437) scale(0.1 -0.1)">
       <defs>
        <path id="DejaVuSans-31" d="M 794 531 
L 1825 531 
L 1825 4091 
L 703 3866 
L 703 4441 
L 1819 4666 
L 2450 4666 
L 2450 531 
L 3481 531 
L 3481 0 
L 794 0 
L 794 531 
z
" transform="scale(0.015625)"/>
       </defs>
       <use xlink:href="#DejaVuSans-31"/>
      </g>
     </g>
    </g>
    <g id="xtick_2">
     <g id="line2d_2">
      <g>
       <use xlink:href="#mde6330c2ce" x="109.664165" y="307.584" style="stroke: #000000; stroke-width: 0.8"/>
      </g>
     </g>
     <g id="text_2">
      <!-- 34 -->
      <g transform="translate(103.301665 322.182437) scale(0.1 -0.1)">
       <defs>
        <path id="DejaVuSans-33" d="M 2597 2516 
Q 3050 2419 3304 2112 
Q 3559 1806 3559 1356 
Q 3559 666 3084 287 
Q 2609 -91 1734 -91 
Q 1441 -91 1130 -33 
Q 819 25 488 141 
L 488 750 
Q 750 597 1062 519 
Q 1375 441 1716 441 
Q 2309 441 2620 675 
Q 2931 909 2931 1356 
Q 2931 1769 2642 2001 
Q 2353 2234 1838 2234 
L 1294 2234 
L 1294 2753 
L 1863 2753 
Q 2328 2753 2575 2939 
Q 2822 3125 2822 3475 
Q 2822 3834 2567 4026 
Q 2313 4219 1838 4219 
Q 1578 4219 1281 4162 
Q 984 4106 628 3988 
L 628 4550 
Q 988 4650 1302 4700 
Q 1616 4750 1894 4750 
Q 2613 4750 3031 4423 
Q 3450 4097 3450 3541 
Q 3450 3153 3228 2886 
Q 3006 2619 2597 2516 
z
" transform="scale(0.015625)"/>
        <path id="DejaVuSans-34" d="M 2419 4116 
L 825 1625 
L 2419 1625 
L 2419 4116 
z
M 2253 4666 
L 3047 4666 
L 3047 1625 
L 3713 1625 
L 3713 1100 
L 3047 1100 
L 3047 0 
L 2419 0 
L 2419 1100 
L 313 1100 
L 313 1709 
L 2253 4666 
z
" transform="scale(0.015625)"/>
       </defs>
       <use xlink:href="#DejaVuSans-33"/>
       <use xlink:href="#DejaVuSans-34" x="63.623047"/>
      </g>
     </g>
    </g>
    <g id="xtick_3">
     <g id="line2d_3">
      <g>
       <use xlink:href="#mde6330c2ce" x="145.495604" y="307.584" style="stroke: #000000; stroke-width: 0.8"/>
      </g>
     </g>
     <g id="text_3">
      <!-- 67 -->
      <g transform="translate(139.133104 322.182437) scale(0.1 -0.1)">
       <defs>
        <path id="DejaVuSans-36" d="M 2113 2584 
Q 1688 2584 1439 2293 
Q 1191 2003 1191 1497 
Q 1191 994 1439 701 
Q 1688 409 2113 409 
Q 2538 409 2786 701 
Q 3034 994 3034 1497 
Q 3034 2003 2786 2293 
Q 2538 2584 2113 2584 
z
M 3366 4563 
L 3366 3988 
Q 3128 4100 2886 4159 
Q 2644 4219 2406 4219 
Q 1781 4219 1451 3797 
Q 1122 3375 1075 2522 
Q 1259 2794 1537 2939 
Q 1816 3084 2150 3084 
Q 2853 3084 3261 2657 
Q 3669 2231 3669 1497 
Q 3669 778 3244 343 
Q 2819 -91 2113 -91 
Q 1303 -91 875 529 
Q 447 1150 447 2328 
Q 447 3434 972 4092 
Q 1497 4750 2381 4750 
Q 2619 4750 2861 4703 
Q 3103 4656 3366 4563 
z
" transform="scale(0.015625)"/>
        <path id="DejaVuSans-37" d="M 525 4666 
L 3525 4666 
L 3525 4397 
L 1831 0 
L 1172 0 
L 2766 4134 
L 525 4134 
L 525 4666 
z
" transform="scale(0.015625)"/>
       </defs>
       <use xlink:href="#DejaVuSans-36"/>
       <use xlink:href="#DejaVuSans-37" x="63.623047"/>
      </g>
     </g>
    </g>
    <g id="xtick_4">
     <g id="line2d_4">
      <g>
       <use xlink:href="#mde6330c2ce" x="181.327042" y="307.584" style="stroke: #000000; stroke-width: 0.8"/>
      </g>
     </g>
     <g id="text_4">
      <!-- 100 -->
      <g transform="translate(171.783292 322.182437) scale(0.1 -0.1)">
       <defs>
        <path id="DejaVuSans-30" d="M 2034 4250 
Q 1547 4250 1301 3770 
Q 1056 3291 1056 2328 
Q 1056 1369 1301 889 
Q 1547 409 2034 409 
Q 2525 409 2770 889 
Q 3016 1369 3016 2328 
Q 3016 3291 2770 3770 
Q 2525 4250 2034 4250 
z
M 2034 4750 
Q 2819 4750 3233 4129 
Q 3647 3509 3647 2328 
Q 3647 1150 3233 529 
Q 2819 -91 2034 -91 
Q 1250 -91 836 529 
Q 422 1150 422 2328 
Q 422 3509 836 4129 
Q 1250 4750 2034 4750 
z
" transform="scale(0.015625)"/>
       </defs>
       <use xlink:href="#DejaVuSans-31"/>
       <use xlink:href="#DejaVuSans-30" x="63.623047"/>
       <use xlink:href="#DejaVuSans-30" x="127.246094"/>
      </g>
     </g>
    </g>
    <g id="xtick_5">
     <g id="line2d_5">
      <g>
       <use xlink:href="#mde6330c2ce" x="217.15848" y="307.584" style="stroke: #000000; stroke-width: 0.8"/>
      </g>
     </g>
     <g id="text_5">
      <!-- 133 -->
      <g transform="translate(207.61473 322.182437) scale(0.1 -0.1)">
       <use xlink:href="#DejaVuSans-31"/>
       <use xlink:href="#DejaVuSans-33" x="63.623047"/>
       <use xlink:href="#DejaVuSans-33" x="127.246094"/>
      </g>
     </g>
    </g>
    <g id="xtick_6">
     <g id="line2d_6">
      <g>
       <use xlink:href="#mde6330c2ce" x="254.075719" y="307.584" style="stroke: #000000; stroke-width: 0.8"/>
      </g>
     </g>
     <g id="text_6">
      <!-- 167 -->
      <g transform="translate(244.531969 322.182437) scale(0.1 -0.1)">
       <use xlink:href="#DejaVuSans-31"/>
       <use xlink:href="#DejaVuSans-36" x="63.623047"/>
       <use xlink:href="#DejaVuSans-37" x="127.246094"/>
      </g>
     </g>
    </g>
    <g id="xtick_7">
     <g id="line2d_7">
      <g>
       <use xlink:href="#mde6330c2ce" x="289.907157" y="307.584" style="stroke: #000000; stroke-width: 0.8"/>
      </g>
     </g>
     <g id="text_7">
      <!-- 200 -->
      <g transform="translate(280.363407 322.182437) scale(0.1 -0.1)">
       <defs>
        <path id="DejaVuSans-32" d="M 1228 531 
L 3431 531 
L 3431 0 
L 469 0 
L 469 531 
Q 828 903 1448 1529 
Q 2069 2156 2228 2338 
Q 2531 2678 2651 2914 
Q 2772 3150 2772 3378 
Q 2772 3750 2511 3984 
Q 2250 4219 1831 4219 
Q 1534 4219 1204 4116 
Q 875 4013 500 3803 
L 500 4441 
Q 881 4594 1212 4672 
Q 1544 4750 1819 4750 
Q 2544 4750 2975 4387 
Q 3406 4025 3406 3419 
Q 3406 3131 3298 2873 
Q 3191 2616 2906 2266 
Q 2828 2175 2409 1742 
Q 1991 1309 1228 531 
z
" transform="scale(0.015625)"/>
       </defs>
       <use xlink:href="#DejaVuSans-32"/>
       <use xlink:href="#DejaVuSans-30" x="63.623047"/>
       <use xlink:href="#DejaVuSans-30" x="127.246094"/>
      </g>
     </g>
    </g>
    <g id="xtick_8">
     <g id="line2d_8">
      <g>
       <use xlink:href="#mde6330c2ce" x="325.738595" y="307.584" style="stroke: #000000; stroke-width: 0.8"/>
      </g>
     </g>
     <g id="text_8">
      <!-- 233 -->
      <g transform="translate(316.194845 322.182437) scale(0.1 -0.1)">
       <use xlink:href="#DejaVuSans-32"/>
       <use xlink:href="#DejaVuSans-33" x="63.623047"/>
       <use xlink:href="#DejaVuSans-33" x="127.246094"/>
      </g>
     </g>
    </g>
    <g id="xtick_9">
     <g id="line2d_9">
      <g>
       <use xlink:href="#mde6330c2ce" x="361.570033" y="307.584" style="stroke: #000000; stroke-width: 0.8"/>
      </g>
     </g>
     <g id="text_9">
      <!-- 266 -->
      <g transform="translate(352.026283 322.182437) scale(0.1 -0.1)">
       <use xlink:href="#DejaVuSans-32"/>
       <use xlink:href="#DejaVuSans-36" x="63.623047"/>
       <use xlink:href="#DejaVuSans-36" x="127.246094"/>
      </g>
     </g>
    </g>
    <g id="xtick_10">
     <g id="line2d_10">
      <g>
       <use xlink:href="#mde6330c2ce" x="398.487273" y="307.584" style="stroke: #000000; stroke-width: 0.8"/>
      </g>
     </g>
     <g id="text_10">
      <!-- 300 -->
      <g transform="translate(388.943523 322.182437) scale(0.1 -0.1)">
       <use xlink:href="#DejaVuSans-33"/>
       <use xlink:href="#DejaVuSans-30" x="63.623047"/>
       <use xlink:href="#DejaVuSans-30" x="127.246094"/>
      </g>
     </g>
    </g>
    <g id="text_11">
     <!-- Epochs -->
     <g transform="translate(218.244375 335.860562) scale(0.1 -0.1)">
      <defs>
       <path id="DejaVuSans-45" d="M 628 4666 
L 3578 4666 
L 3578 4134 
L 1259 4134 
L 1259 2753 
L 3481 2753 
L 3481 2222 
L 1259 2222 
L 1259 531 
L 3634 531 
L 3634 0 
L 628 0 
L 628 4666 
z
" transform="scale(0.015625)"/>
       <path id="DejaVuSans-70" d="M 1159 525 
L 1159 -1331 
L 581 -1331 
L 581 3500 
L 1159 3500 
L 1159 2969 
Q 1341 3281 1617 3432 
Q 1894 3584 2278 3584 
Q 2916 3584 3314 3078 
Q 3713 2572 3713 1747 
Q 3713 922 3314 415 
Q 2916 -91 2278 -91 
Q 1894 -91 1617 61 
Q 1341 213 1159 525 
z
M 3116 1747 
Q 3116 2381 2855 2742 
Q 2594 3103 2138 3103 
Q 1681 3103 1420 2742 
Q 1159 2381 1159 1747 
Q 1159 1113 1420 752 
Q 1681 391 2138 391 
Q 2594 391 2855 752 
Q 3116 1113 3116 1747 
z
" transform="scale(0.015625)"/>
       <path id="DejaVuSans-6f" d="M 1959 3097 
Q 1497 3097 1228 2736 
Q 959 2375 959 1747 
Q 959 1119 1226 758 
Q 1494 397 1959 397 
Q 2419 397 2687 759 
Q 2956 1122 2956 1747 
Q 2956 2369 2687 2733 
Q 2419 3097 1959 3097 
z
M 1959 3584 
Q 2709 3584 3137 3096 
Q 3566 2609 3566 1747 
Q 3566 888 3137 398 
Q 2709 -91 1959 -91 
Q 1206 -91 779 398 
Q 353 888 353 1747 
Q 353 2609 779 3096 
Q 1206 3584 1959 3584 
z
" transform="scale(0.015625)"/>
       <path id="DejaVuSans-63" d="M 3122 3366 
L 3122 2828 
Q 2878 2963 2633 3030 
Q 2388 3097 2138 3097 
Q 1578 3097 1268 2742 
Q 959 2388 959 1747 
Q 959 1106 1268 751 
Q 1578 397 2138 397 
Q 2388 397 2633 464 
Q 2878 531 3122 666 
L 3122 134 
Q 2881 22 2623 -34 
Q 2366 -91 2075 -91 
Q 1284 -91 818 406 
Q 353 903 353 1747 
Q 353 2603 823 3093 
Q 1294 3584 2113 3584 
Q 2378 3584 2631 3529 
Q 2884 3475 3122 3366 
z
" transform="scale(0.015625)"/>
       <path id="DejaVuSans-68" d="M 3513 2113 
L 3513 0 
L 2938 0 
L 2938 2094 
Q 2938 2591 2744 2837 
Q 2550 3084 2163 3084 
Q 1697 3084 1428 2787 
Q 1159 2491 1159 1978 
L 1159 0 
L 581 0 
L 581 4863 
L 1159 4863 
L 1159 2956 
Q 1366 3272 1645 3428 
Q 1925 3584 2291 3584 
Q 2894 3584 3203 3211 
Q 3513 2838 3513 2113 
z
" transform="scale(0.015625)"/>
       <path id="DejaVuSans-73" d="M 2834 3397 
L 2834 2853 
Q 2591 2978 2328 3040 
Q 2066 3103 1784 3103 
Q 1356 3103 1142 2972 
Q 928 2841 928 2578 
Q 928 2378 1081 2264 
Q 1234 2150 1697 2047 
L 1894 2003 
Q 2506 1872 2764 1633 
Q 3022 1394 3022 966 
Q 3022 478 2636 193 
Q 2250 -91 1575 -91 
Q 1294 -91 989 -36 
Q 684 19 347 128 
L 347 722 
Q 666 556 975 473 
Q 1284 391 1588 391 
Q 1994 391 2212 530 
Q 2431 669 2431 922 
Q 2431 1156 2273 1281 
Q 2116 1406 1581 1522 
L 1381 1569 
Q 847 1681 609 1914 
Q 372 2147 372 2553 
Q 372 3047 722 3315 
Q 1072 3584 1716 3584 
Q 2034 3584 2315 3537 
Q 2597 3491 2834 3397 
z
" transform="scale(0.015625)"/>
      </defs>
      <use xlink:href="#DejaVuSans-45"/>
      <use xlink:href="#DejaVuSans-70" x="63.183594"/>
      <use xlink:href="#DejaVuSans-6f" x="126.660156"/>
      <use xlink:href="#DejaVuSans-63" x="187.841797"/>
      <use xlink:href="#DejaVuSans-68" x="242.822266"/>
      <use xlink:href="#DejaVuSans-73" x="306.201172"/>
     </g>
    </g>
   </g>
   <g id="matplotlib.axis_2">
    <g id="ytick_1">
     <g id="line2d_11">
      <defs>
       <path id="m484049f932" d="M 0 0 
L -3.5 0 
" style="stroke: #000000; stroke-width: 0.8"/>
      </defs>
      <g>
       <use xlink:href="#m484049f932" x="57.6" y="284.069516" style="stroke: #000000; stroke-width: 0.8"/>
      </g>
     </g>
     <g id="text_12">
      <!-- 10 -->
      <g transform="translate(37.875 287.868735) scale(0.1 -0.1)">
       <use xlink:href="#DejaVuSans-31"/>
       <use xlink:href="#DejaVuSans-30" x="63.623047"/>
      </g>
     </g>
    </g>
    <g id="ytick_2">
     <g id="line2d_12">
      <g>
       <use xlink:href="#m484049f932" x="57.6" y="250.553723" style="stroke: #000000; stroke-width: 0.8"/>
      </g>
     </g>
     <g id="text_13">
      <!-- 20 -->
      <g transform="translate(37.875 254.352942) scale(0.1 -0.1)">
       <use xlink:href="#DejaVuSans-32"/>
       <use xlink:href="#DejaVuSans-30" x="63.623047"/>
      </g>
     </g>
    </g>
    <g id="ytick_3">
     <g id="line2d_13">
      <g>
       <use xlink:href="#m484049f932" x="57.6" y="217.03793" style="stroke: #000000; stroke-width: 0.8"/>
      </g>
     </g>
     <g id="text_14">
      <!-- 30 -->
      <g transform="translate(37.875 220.837148) scale(0.1 -0.1)">
       <use xlink:href="#DejaVuSans-33"/>
       <use xlink:href="#DejaVuSans-30" x="63.623047"/>
      </g>
     </g>
    </g>
    <g id="ytick_4">
     <g id="line2d_14">
      <g>
       <use xlink:href="#m484049f932" x="57.6" y="183.522136" style="stroke: #000000; stroke-width: 0.8"/>
      </g>
     </g>
     <g id="text_15">
      <!-- 40 -->
      <g transform="translate(37.875 187.321355) scale(0.1 -0.1)">
       <use xlink:href="#DejaVuSans-34"/>
       <use xlink:href="#DejaVuSans-30" x="63.623047"/>
      </g>
     </g>
    </g>
    <g id="ytick_5">
     <g id="line2d_15">
      <g>
       <use xlink:href="#m484049f932" x="57.6" y="150.006343" style="stroke: #000000; stroke-width: 0.8"/>
      </g>
     </g>
     <g id="text_16">
      <!-- 50 -->
      <g transform="translate(37.875 153.805562) scale(0.1 -0.1)">
       <defs>
        <path id="DejaVuSans-35" d="M 691 4666 
L 3169 4666 
L 3169 4134 
L 1269 4134 
L 1269 2991 
Q 1406 3038 1543 3061 
Q 1681 3084 1819 3084 
Q 2600 3084 3056 2656 
Q 3513 2228 3513 1497 
Q 3513 744 3044 326 
Q 2575 -91 1722 -91 
Q 1428 -91 1123 -41 
Q 819 9 494 109 
L 494 744 
Q 775 591 1075 516 
Q 1375 441 1709 441 
Q 2250 441 2565 725 
Q 2881 1009 2881 1497 
Q 2881 1984 2565 2268 
Q 2250 2553 1709 2553 
Q 1456 2553 1204 2497 
Q 953 2441 691 2322 
L 691 4666 
z
" transform="scale(0.015625)"/>
       </defs>
       <use xlink:href="#DejaVuSans-35"/>
       <use xlink:href="#DejaVuSans-30" x="63.623047"/>
      </g>
     </g>
    </g>
    <g id="ytick_6">
     <g id="line2d_16">
      <g>
       <use xlink:href="#m484049f932" x="57.6" y="116.49055" style="stroke: #000000; stroke-width: 0.8"/>
      </g>
     </g>
     <g id="text_17">
      <!-- 60 -->
      <g transform="translate(37.875 120.289769) scale(0.1 -0.1)">
       <use xlink:href="#DejaVuSans-36"/>
       <use xlink:href="#DejaVuSans-30" x="63.623047"/>
      </g>
     </g>
    </g>
    <g id="ytick_7">
     <g id="line2d_17">
      <g>
       <use xlink:href="#m484049f932" x="57.6" y="82.974757" style="stroke: #000000; stroke-width: 0.8"/>
      </g>
     </g>
     <g id="text_18">
      <!-- 70 -->
      <g transform="translate(37.875 86.773976) scale(0.1 -0.1)">
       <use xlink:href="#DejaVuSans-37"/>
       <use xlink:href="#DejaVuSans-30" x="63.623047"/>
      </g>
     </g>
    </g>
    <g id="ytick_8">
     <g id="line2d_18">
      <g>
       <use xlink:href="#m484049f932" x="57.6" y="49.458964" style="stroke: #000000; stroke-width: 0.8"/>
      </g>
     </g>
     <g id="text_19">
      <!-- 80 -->
      <g transform="translate(37.875 53.258183) scale(0.1 -0.1)">
       <defs>
        <path id="DejaVuSans-38" d="M 2034 2216 
Q 1584 2216 1326 1975 
Q 1069 1734 1069 1313 
Q 1069 891 1326 650 
Q 1584 409 2034 409 
Q 2484 409 2743 651 
Q 3003 894 3003 1313 
Q 3003 1734 2745 1975 
Q 2488 2216 2034 2216 
z
M 1403 2484 
Q 997 2584 770 2862 
Q 544 3141 544 3541 
Q 544 4100 942 4425 
Q 1341 4750 2034 4750 
Q 2731 4750 3128 4425 
Q 3525 4100 3525 3541 
Q 3525 3141 3298 2862 
Q 3072 2584 2669 2484 
Q 3125 2378 3379 2068 
Q 3634 1759 3634 1313 
Q 3634 634 3220 271 
Q 2806 -91 2034 -91 
Q 1263 -91 848 271 
Q 434 634 434 1313 
Q 434 1759 690 2068 
Q 947 2378 1403 2484 
z
M 1172 3481 
Q 1172 3119 1398 2916 
Q 1625 2713 2034 2713 
Q 2441 2713 2670 2916 
Q 2900 3119 2900 3481 
Q 2900 3844 2670 4047 
Q 2441 4250 2034 4250 
Q 1625 4250 1398 4047 
Q 1172 3844 1172 3481 
z
" transform="scale(0.015625)"/>
       </defs>
       <use xlink:href="#DejaVuSans-38"/>
       <use xlink:href="#DejaVuSans-30" x="63.623047"/>
      </g>
     </g>
    </g>
    <g id="text_20">
     <!-- Accuracy -->
     <g transform="translate(31.795312 197.356125) rotate(-90) scale(0.1 -0.1)">
      <defs>
       <path id="DejaVuSans-41" d="M 2188 4044 
L 1331 1722 
L 3047 1722 
L 2188 4044 
z
M 1831 4666 
L 2547 4666 
L 4325 0 
L 3669 0 
L 3244 1197 
L 1141 1197 
L 716 0 
L 50 0 
L 1831 4666 
z
" transform="scale(0.015625)"/>
       <path id="DejaVuSans-75" d="M 544 1381 
L 544 3500 
L 1119 3500 
L 1119 1403 
Q 1119 906 1312 657 
Q 1506 409 1894 409 
Q 2359 409 2629 706 
Q 2900 1003 2900 1516 
L 2900 3500 
L 3475 3500 
L 3475 0 
L 2900 0 
L 2900 538 
Q 2691 219 2414 64 
Q 2138 -91 1772 -91 
Q 1169 -91 856 284 
Q 544 659 544 1381 
z
M 1991 3584 
L 1991 3584 
z
" transform="scale(0.015625)"/>
       <path id="DejaVuSans-72" d="M 2631 2963 
Q 2534 3019 2420 3045 
Q 2306 3072 2169 3072 
Q 1681 3072 1420 2755 
Q 1159 2438 1159 1844 
L 1159 0 
L 581 0 
L 581 3500 
L 1159 3500 
L 1159 2956 
Q 1341 3275 1631 3429 
Q 1922 3584 2338 3584 
Q 2397 3584 2469 3576 
Q 2541 3569 2628 3553 
L 2631 2963 
z
" transform="scale(0.015625)"/>
       <path id="DejaVuSans-61" d="M 2194 1759 
Q 1497 1759 1228 1600 
Q 959 1441 959 1056 
Q 959 750 1161 570 
Q 1363 391 1709 391 
Q 2188 391 2477 730 
Q 2766 1069 2766 1631 
L 2766 1759 
L 2194 1759 
z
M 3341 1997 
L 3341 0 
L 2766 0 
L 2766 531 
Q 2569 213 2275 61 
Q 1981 -91 1556 -91 
Q 1019 -91 701 211 
Q 384 513 384 1019 
Q 384 1609 779 1909 
Q 1175 2209 1959 2209 
L 2766 2209 
L 2766 2266 
Q 2766 2663 2505 2880 
Q 2244 3097 1772 3097 
Q 1472 3097 1187 3025 
Q 903 2953 641 2809 
L 641 3341 
Q 956 3463 1253 3523 
Q 1550 3584 1831 3584 
Q 2591 3584 2966 3190 
Q 3341 2797 3341 1997 
z
" transform="scale(0.015625)"/>
       <path id="DejaVuSans-79" d="M 2059 -325 
Q 1816 -950 1584 -1140 
Q 1353 -1331 966 -1331 
L 506 -1331 
L 506 -850 
L 844 -850 
Q 1081 -850 1212 -737 
Q 1344 -625 1503 -206 
L 1606 56 
L 191 3500 
L 800 3500 
L 1894 763 
L 2988 3500 
L 3597 3500 
L 2059 -325 
z
" transform="scale(0.015625)"/>
      </defs>
      <use xlink:href="#DejaVuSans-41"/>
      <use xlink:href="#DejaVuSans-63" x="66.658203"/>
      <use xlink:href="#DejaVuSans-63" x="121.638672"/>
      <use xlink:href="#DejaVuSans-75" x="176.619141"/>
      <use xlink:href="#DejaVuSans-72" x="239.998047"/>
      <use xlink:href="#DejaVuSans-61" x="281.111328"/>
      <use xlink:href="#DejaVuSans-63" x="342.390625"/>
      <use xlink:href="#DejaVuSans-79" x="397.371094"/>
     </g>
    </g>
   </g>
   <g id="line2d_19">
    <path d="M 73.832727 289.830881 
L 74.918528 248.294758 
L 76.00433 221.012903 
L 77.090131 202.867452 
L 78.175932 188.526044 
L 79.261733 176.818978 
L 80.347534 166.80781 
L 81.433335 160.22866 
L 82.519137 152.22844 
L 83.604938 145.260507 
L 84.690739 139.532658 
L 85.77654 134.91083 
L 86.862341 128.790846 
L 87.948142 126.216833 
L 89.033943 121.166003 
L 90.119745 118.223317 
L 91.205546 114.251695 
L 92.291347 111.446423 
L 93.377148 110.33705 
L 94.462949 109.549429 
L 95.54875 142.378149 
L 96.634552 139.824245 
L 97.720353 137.763024 
L 102.063557 125.928597 
L 103.149358 123.837212 
L 105.320961 120.297944 
L 106.406762 117.76415 
L 107.492563 116.477144 
L 109.664165 111.174945 
L 110.749967 109.646625 
L 111.835768 107.739577 
L 112.921569 105.313033 
L 114.00737 103.449555 
L 115.093171 102.350237 
L 116.178972 100.650986 
L 117.264773 98.482514 
L 118.350575 96.856998 
L 119.436376 94.443861 
L 120.522177 93.646185 
L 121.607978 90.602951 
L 122.693779 89.403086 
L 123.77958 87.874766 
L 124.865382 85.712997 
L 127.036984 83.578041 
L 128.122785 81.111279 
L 129.208586 79.86114 
L 130.294387 79.130495 
L 131.380189 77.498276 
L 132.46599 76.864828 
L 133.551791 75.470571 
L 134.637592 75.008053 
L 135.723393 74.394714 
L 136.809194 74.414823 
L 137.894995 74.270705 
L 138.980797 108.838895 
L 140.066598 111.342524 
L 141.152399 109.794095 
L 142.2382 110.236503 
L 143.324001 107.970835 
L 144.409802 108.007703 
L 145.495604 106.298397 
L 146.581405 106.633555 
L 147.667206 104.803593 
L 148.753007 103.664056 
L 149.838808 103.868502 
L 150.924609 103.808174 
L 152.01041 102.263096 
L 153.096212 100.486759 
L 154.182013 100.165007 
L 155.267814 99.414253 
L 156.353615 99.129369 
L 157.439416 98.053512 
L 158.525217 96.434699 
L 159.611019 96.471567 
L 160.69682 95.087365 
L 161.782621 94.430455 
L 162.868422 94.742152 
L 165.040024 93.287566 
L 166.125825 91.336947 
L 167.211627 91.843036 
L 168.297428 90.569436 
L 169.383229 90.814101 
L 170.46903 89.43325 
L 171.554831 88.62552 
L 172.640632 88.193166 
L 174.812235 86.617924 
L 175.898036 85.196854 
L 176.983837 84.999111 
L 178.069638 84.167919 
L 179.155439 83.963473 
L 180.24124 83.343431 
L 181.327042 82.190487 
L 182.412843 80.819691 
L 183.498644 80.782824 
L 184.584445 78.001013 
L 185.670246 78.56743 
L 186.756047 78.145131 
L 187.841849 77.448003 
L 188.92765 76.462638 
L 190.013451 76.486099 
L 191.099252 74.458394 
L 192.185053 73.814891 
L 193.270854 73.640609 
L 194.356656 72.005038 
L 195.442457 71.609551 
L 197.614059 70.218646 
L 199.785661 67.748532 
L 200.871462 68.080338 
L 201.957264 66.800035 
L 205.214667 63.726637 
L 207.386269 63.726637 
L 208.472071 62.39606 
L 209.557872 61.528001 
L 210.643673 60.897904 
L 211.729474 60.063361 
L 212.815275 60.46555 
L 214.986877 59.587436 
L 216.072679 59.091403 
L 217.15848 58.327243 
L 218.244281 57.79099 
L 219.330082 57.948514 
L 220.415883 56.567663 
L 221.501684 57.033533 
L 222.587486 57.184354 
L 223.673287 56.909525 
L 224.759088 56.929634 
L 225.844889 96.196737 
L 226.93069 99.558371 
L 229.102292 99.997428 
L 230.188094 98.603171 
L 231.273895 97.416712 
L 232.359696 97.87923 
L 233.445497 96.538598 
L 234.531298 95.861579 
L 236.702901 95.214725 
L 237.788702 95.241537 
L 238.874503 94.406994 
L 239.960304 94.175735 
L 241.046105 93.026143 
L 242.131906 92.580383 
L 243.217708 92.744611 
L 244.303509 92.506649 
L 245.38931 91.973747 
L 246.475111 91.132501 
L 247.560912 90.954867 
L 248.646713 90.458834 
L 249.732514 90.411911 
L 251.904117 90.83421 
L 252.989918 89.986261 
L 254.075719 89.677916 
L 255.16152 88.893646 
L 256.247321 89.19864 
L 257.333123 88.722715 
L 258.418924 88.833318 
L 259.504725 87.730648 
L 260.590526 87.945149 
L 261.676327 87.945149 
L 262.762128 87.056981 
L 263.847929 87.053629 
L 264.933731 87.214505 
L 266.019532 87.98872 
L 267.105333 86.490564 
L 269.276935 85.904037 
L 270.362736 85.682833 
L 271.448538 84.78461 
L 272.534339 85.049385 
L 273.62014 84.831532 
L 274.705941 84.46621 
L 275.791742 83.440626 
L 277.963344 84.007043 
L 279.049146 83.306563 
L 280.134947 83.162445 
L 281.220748 82.884264 
L 282.306549 83.041789 
L 283.39235 82.539052 
L 284.478151 81.557039 
L 285.563953 81.798353 
L 287.735555 81.091169 
L 288.821356 80.099102 
L 289.907157 81.392811 
L 290.992958 81.295616 
L 292.07876 80.377283 
L 293.164561 79.824272 
L 294.250362 79.680154 
L 296.421964 78.936104 
L 297.507765 78.339523 
L 298.593566 78.493695 
L 299.679368 78.161889 
L 300.765169 78.01442 
L 301.85097 77.672558 
L 302.936771 76.841367 
L 304.022572 76.516264 
L 306.194175 75.31975 
L 307.279976 75.527548 
L 308.365777 76.077207 
L 309.451578 74.733223 
L 310.537379 74.739927 
L 311.62318 74.196971 
L 312.708981 73.845055 
L 313.794783 73.640609 
L 314.880584 73.235067 
L 315.966385 72.373712 
L 317.052186 73.496491 
L 318.137987 72.675354 
L 319.223788 70.835337 
L 320.30959 71.33137 
L 321.395391 70.557156 
L 322.481192 71.214065 
L 323.566993 70.051067 
L 324.652794 69.481299 
L 325.738595 69.605307 
L 326.824396 69.045593 
L 327.910198 68.207698 
L 328.995999 67.979791 
L 330.0818 68.864608 
L 332.253402 66.337517 
L 334.425005 66.518502 
L 335.510806 64.960018 
L 336.596607 65.201332 
L 337.682408 65.754342 
L 338.768209 63.790317 
L 339.85401 64.068498 
L 340.939811 63.431698 
L 342.025613 63.334502 
L 343.111414 62.751327 
L 344.197215 62.563639 
L 345.283016 61.37718 
L 346.368817 61.685525 
L 347.454618 60.817466 
L 348.54042 61.806182 
L 349.626221 59.108161 
L 350.712022 59.942704 
L 351.797823 59.044481 
L 352.883624 58.387571 
L 353.969425 58.387571 
L 355.055227 57.308363 
L 356.141028 57.539621 
L 357.226829 57.288253 
L 358.31263 57.365339 
L 360.484232 55.94427 
L 361.570033 54.657263 
L 362.655835 55.009179 
L 365.913238 53.568 
L 366.999039 54.177987 
L 368.08484 54.65056 
L 369.170642 56.557609 
L 370.256443 57.030181 
L 371.342244 59.088051 
L 372.428045 60.113634 
L 373.513846 59.681281 
L 374.599647 60.324784 
L 375.685448 60.535933 
L 376.77125 60.566098 
L 377.857051 60.468902 
L 378.942852 59.825399 
L 380.028653 60.780599 
L 381.114454 61.068835 
L 382.200255 60.21083 
L 383.286057 61.705635 
L 384.371858 60.726973 
L 385.457659 61.199546 
L 386.54346 60.65659 
L 387.629261 60.918013 
L 388.715062 61.538056 
L 389.800863 61.625197 
L 390.886665 61.3135 
L 391.972466 61.370477 
L 393.058267 61.879917 
L 394.144068 61.712338 
L 395.229869 60.93142 
L 396.31567 61.098999 
L 397.401472 62.486553 
L 398.487273 61.75926 
L 398.487273 61.75926 
" clip-path="url(#p29afa05a0e)" style="fill: none; stroke: #1f77b4; stroke-width: 1.5; stroke-linecap: square"/>
   </g>
   <g id="line2d_20">
    <path d="M 73.832727 279.678947 
L 74.918528 260.172755 
L 76.00433 252.497639 
L 77.090131 251.022944 
L 78.175932 239.627574 
L 79.261733 237.516079 
L 80.347534 231.349173 
L 81.433335 221.596078 
L 82.519137 220.758183 
L 83.604938 206.480455 
L 84.690739 209.295781 
L 85.77654 208.59195 
L 86.862341 193.543359 
L 87.948142 194.381253 
L 89.033943 189.756074 
L 90.119745 191.331316 
L 91.205546 188.817632 
L 92.291347 187.812158 
L 93.377148 187.87919 
L 94.462949 184.896284 
L 95.54875 210.167192 
L 96.634552 205.843655 
L 97.720353 228.399784 
L 98.806154 205.474981 
L 99.891955 198.671275 
L 100.977756 209.295781 
L 102.063557 217.004414 
L 103.149358 201.41957 
L 104.23516 199.207528 
L 105.320961 200.313549 
L 106.406762 198.738307 
L 107.492563 208.960623 
L 108.578364 198.101506 
L 109.664165 194.146643 
L 110.749967 177.790936 
L 111.835768 192.604916 
L 112.921569 194.01258 
L 115.093171 194.24719 
L 116.178972 186.002305 
L 117.264773 199.810812 
L 118.350575 190.895611 
L 119.436376 195.621338 
L 120.522177 177.187652 
L 121.607978 184.795737 
L 122.693779 185.968789 
L 123.77958 181.611736 
L 124.865382 171.255356 
L 125.951183 175.511862 
L 127.036984 172.797083 
L 128.122785 176.684915 
L 129.208586 173.903104 
L 130.294387 174.472872 
L 131.380189 172.998177 
L 132.46599 173.735525 
L 133.551791 175.578893 
L 134.637592 174.405841 
L 135.723393 172.461925 
L 136.809194 173.735525 
L 137.894995 173.165756 
L 138.980797 213.619319 
L 140.066598 211.742434 
L 141.152399 187.644579 
L 142.2382 189.085758 
L 143.324001 201.754728 
L 144.409802 210.033129 
L 145.495604 193.040622 
L 146.581405 202.290981 
L 147.667206 183.924326 
L 148.753007 185.432537 
L 149.838808 196.358685 
L 150.924609 183.522136 
L 152.01041 192.10218 
L 153.096212 194.180159 
L 154.182013 174.80803 
L 155.267814 193.107653 
L 156.353615 183.153463 
L 157.439416 183.522136 
L 158.525217 167.535103 
L 159.611019 186.739653 
L 160.69682 203.765676 
L 161.782621 186.404495 
L 162.868422 179.567273 
L 163.954223 184.024873 
L 165.040024 178.595315 
L 166.125825 178.193125 
L 167.211627 184.158937 
L 168.297428 173.836072 
L 169.383229 173.266304 
L 170.46903 170.450977 
L 171.554831 164.150008 
L 172.640632 172.294346 
L 173.726434 165.993377 
L 174.812235 177.891483 
L 175.898036 168.875735 
L 176.983837 169.445503 
L 178.069638 171.758093 
L 179.155439 181.041968 
L 180.24124 168.507061 
L 181.327042 173.567946 
L 182.412843 164.317587 
L 183.498644 170.953714 
L 184.584445 184.393547 
L 185.670246 168.842219 
L 186.756047 177.891483 
L 187.841849 157.68146 
L 188.92765 162.54125 
L 190.013451 170.316914 
L 191.099252 168.473545 
L 192.185053 157.178723 
L 193.270854 155.167775 
L 194.356656 169.914724 
L 195.442457 168.473545 
L 196.528258 166.295019 
L 197.614059 173.500914 
L 198.69986 162.675313 
L 199.785661 160.798429 
L 200.871462 169.210893 
L 201.957264 168.205419 
L 203.043065 160.563818 
L 204.128866 155.905123 
L 205.214667 156.40786 
L 206.300468 158.485839 
L 207.386269 161.200618 
L 209.557872 170.182851 
L 210.643673 158.385292 
L 211.729474 171.322388 
L 212.815275 151.715649 
L 213.901076 161.066555 
L 214.986877 158.72045 
L 216.072679 158.418807 
L 217.15848 157.983102 
L 218.244281 159.524829 
L 219.330082 161.669839 
L 220.415883 159.290218 
L 221.501684 159.089123 
L 222.587486 159.089123 
L 223.673287 156.743018 
L 224.759088 157.68146 
L 225.844889 200.447612 
L 226.93069 196.023527 
L 228.016491 169.445503 
L 229.102292 180.94142 
L 230.188094 190.225295 
L 232.359696 174.070683 
L 233.445497 180.840873 
L 234.531298 193.141169 
L 235.617099 178.327189 
L 236.702901 204.201381 
L 237.788702 188.482474 
L 238.874503 178.79641 
L 239.960304 190.560453 
L 241.046105 176.751946 
L 242.131906 192.403822 
L 243.217708 186.907232 
L 244.303509 166.931819 
L 245.38931 193.845001 
L 246.475111 179.600789 
L 247.560912 177.187652 
L 248.646713 189.554979 
L 249.732514 174.003651 
L 250.818316 182.248536 
L 251.904117 175.076157 
L 252.989918 180.70681 
L 254.075719 176.550851 
L 255.16152 175.813504 
L 256.247321 177.656873 
L 257.333123 181.611736 
L 258.418924 192.035148 
L 259.504725 175.009125 
L 260.590526 185.600116 
L 261.676327 186.102853 
L 262.762128 183.388073 
L 263.847929 177.288199 
L 264.933731 174.57342 
L 266.019532 188.080284 
L 267.105333 176.852494 
L 268.191134 183.89081 
L 269.276935 184.896284 
L 270.362736 170.685588 
L 271.448538 175.44483 
L 272.534339 188.214348 
L 273.62014 181.645252 
L 274.705941 170.551524 
L 275.791742 157.815523 
L 276.877543 194.448285 
L 277.963344 186.8402 
L 279.049146 193.442811 
L 280.134947 196.459233 
L 281.220748 187.745126 
L 282.306549 199.911359 
L 283.39235 167.166429 
L 284.478151 178.327189 
L 285.563953 170.853167 
L 286.649754 173.903104 
L 287.735555 187.979737 
L 288.821356 189.890137 
L 289.907157 173.29982 
L 290.992958 183.622684 
L 292.07876 180.204073 
L 293.164561 167.300493 
L 294.250362 168.741672 
L 296.421964 180.773841 
L 297.507765 165.121966 
L 298.593566 175.511862 
L 299.679368 183.052915 
L 300.765169 170.082303 
L 301.85097 168.976282 
L 302.936771 162.407187 
L 304.022572 179.399694 
L 305.108373 159.323734 
L 306.194175 174.640451 
L 307.279976 169.210893 
L 308.365777 181.041968 
L 309.451578 171.925672 
L 310.537379 200.481128 
L 311.62318 181.645252 
L 312.708981 159.055607 
L 313.794783 180.840873 
L 314.880584 185.80121 
L 315.966385 173.702009 
L 317.052186 163.680787 
L 318.137987 162.809376 
L 319.223788 172.730051 
L 320.30959 170.048788 
L 321.395391 165.054934 
L 322.481192 173.836072 
L 323.566993 177.522809 
L 324.652794 159.223186 
L 325.738595 161.100071 
L 326.824396 154.631523 
L 327.910198 166.429082 
L 328.995999 159.491313 
L 330.0818 162.13906 
L 331.167601 157.580913 
L 332.253402 159.491313 
L 333.339203 164.485166 
L 334.425005 152.352449 
L 336.596607 169.546051 
L 337.682408 156.944112 
L 338.768209 150.810722 
L 339.85401 172.696535 
L 340.939811 151.648617 
L 342.025613 163.111018 
L 343.111414 149.23548 
L 344.197215 160.396239 
L 345.283016 158.016618 
L 346.368817 156.709502 
L 347.454618 151.682133 
L 348.54042 148.263522 
L 349.626221 149.704701 
L 350.712022 143.604827 
L 351.797823 159.122639 
L 352.883624 156.441376 
L 353.969425 162.507734 
L 355.055227 159.223186 
L 356.141028 153.760112 
L 357.226829 142.632869 
L 358.31263 151.715649 
L 359.398431 151.212912 
L 360.484232 156.441376 
L 361.570033 157.078176 
L 362.655835 150.542596 
L 363.741636 152.486512 
L 364.827437 162.440703 
L 365.913238 155.804576 
L 366.999039 162.909924 
L 368.08484 150.106891 
L 369.170642 144.844911 
L 370.256443 142.867479 
L 371.342244 155.603481 
L 372.428045 158.184197 
L 373.513846 164.820324 
L 374.599647 156.307312 
L 375.685448 154.128786 
L 376.77125 147.894848 
L 377.857051 148.732743 
L 378.942852 146.92289 
L 380.028653 169.378472 
L 381.114454 160.396239 
L 382.200255 147.425627 
L 383.286057 158.31826 
L 385.457659 151.615101 
L 386.54346 154.899649 
L 387.629261 152.855186 
L 388.715062 156.743018 
L 389.800863 148.59868 
L 390.886665 152.989249 
L 391.972466 171.121293 
L 393.058267 173.031693 
L 394.144068 154.396912 
L 395.229869 160.731397 
L 396.31567 173.065209 
L 397.401472 148.59868 
L 398.487273 152.888701 
L 398.487273 152.888701 
" clip-path="url(#p29afa05a0e)" style="fill: none; stroke: #ff7f0e; stroke-width: 1.5; stroke-linecap: square"/>
   </g>
   <g id="line2d_21">
    <path d="M 73.832727 295.488 
L 74.918528 292.067078 
L 76.00433 292.714279 
L 77.090131 284.970975 
L 78.175932 287.07438 
L 79.261733 280.25565 
L 80.347534 287.536667 
L 81.433335 274.754437 
L 82.519137 277.782415 
L 83.604938 272.835947 
L 84.690739 274.361493 
L 85.77654 275.679011 
L 86.862341 267.588991 
L 87.948142 271.495315 
L 89.033943 268.351765 
L 90.119745 269.206995 
L 91.205546 268.32865 
L 92.291347 267.981935 
L 93.377148 269.114538 
L 94.462949 268.213079 
L 95.54875 276.788499 
L 96.634552 274.777551 
L 97.720353 283.144942 
L 98.806154 277.135214 
L 99.891955 269.576825 
L 100.977756 275.309181 
L 102.063557 282.01234 
L 103.149358 273.991664 
L 104.23516 272.026945 
L 105.320961 272.096288 
L 106.406762 275.078038 
L 107.492563 279.400419 
L 108.578364 271.84203 
L 109.664165 272.050059 
L 110.749967 262.688751 
L 111.835768 266.179017 
L 112.921569 273.59872 
L 114.00737 265.277557 
L 115.093171 268.606022 
L 116.178972 262.365151 
L 117.264773 266.826218 
L 118.350575 276.372441 
L 119.436376 269.692396 
L 120.522177 265.924759 
L 121.607978 272.026945 
L 122.693779 267.866364 
L 123.77958 265.485587 
L 124.865382 257.164424 
L 125.951183 259.406515 
L 127.036984 258.944228 
L 128.122785 262.434494 
L 129.208586 261.209434 
L 130.294387 262.827437 
L 131.380189 259.776345 
L 132.46599 259.452744 
L 133.551791 262.157122 
L 134.637592 260.377317 
L 135.723393 259.0598 
L 136.809194 260.631575 
L 137.894995 259.244715 
L 138.980797 280.093849 
L 140.066598 277.759301 
L 141.152399 272.026945 
L 142.2382 267.149819 
L 143.324001 270.77877 
L 144.409802 276.418669 
L 145.495604 270.362712 
L 146.581405 274.338379 
L 147.667206 272.489232 
L 148.753007 269.160767 
L 149.838808 270.385827 
L 150.924609 266.872447 
L 152.01041 266.641304 
L 154.182013 258.320141 
L 156.353615 268.790937 
L 157.439416 265.832302 
L 158.525217 258.689971 
L 159.611019 267.172933 
L 160.69682 274.037892 
L 161.782621 262.73498 
L 162.868422 265.069528 
L 163.954223 265.670501 
L 165.040024 255.754449 
L 166.125825 261.625492 
L 167.211627 260.12306 
L 168.297428 256.216736 
L 169.383229 261.879749 
L 170.46903 258.944228 
L 171.554831 252.056155 
L 172.640632 254.113331 
L 173.726434 255.01479 
L 174.812235 260.562232 
L 175.898036 254.436932 
L 176.983837 254.899219 
L 178.069638 258.458827 
L 179.155439 259.730116 
L 180.24124 252.865157 
L 181.327042 255.338391 
L 182.412843 249.975864 
L 183.498644 257.696054 
L 184.584445 262.758094 
L 185.670246 251.825012 
L 186.756047 264.098726 
L 187.841849 245.561025 
L 188.92765 250.160779 
L 190.013451 252.749585 
L 191.099252 253.281215 
L 192.185053 245.861512 
L 193.270854 246.370027 
L 194.356656 252.842042 
L 195.442457 251.732554 
L 196.528258 245.260539 
L 197.614059 253.62793 
L 198.69986 253.188758 
L 199.785661 248.126717 
L 200.871462 251.593868 
L 201.957264 250.322579 
L 203.043065 249.236205 
L 204.128866 244.151051 
L 205.214667 243.13402 
L 206.300468 244.174165 
L 207.386269 244.913824 
L 208.472071 244.543994 
L 209.557872 251.408953 
L 210.643673 246.185113 
L 211.729474 249.25932 
L 212.815275 242.07076 
L 213.901076 247.66443 
L 214.986877 244.428423 
L 216.072679 247.086572 
L 217.15848 245.422339 
L 218.244281 246.416256 
L 219.330082 245.630368 
L 220.415883 245.422339 
L 222.587486 244.567109 
L 223.673287 243.249591 
L 224.759088 244.266622 
L 225.844889 272.443003 
L 226.93069 259.013571 
L 228.016491 255.91625 
L 229.102292 259.475858 
L 230.188094 275.609667 
L 231.273895 260.654689 
L 232.359696 257.511139 
L 233.445497 264.075612 
L 234.531298 273.020861 
L 235.617099 261.093862 
L 236.702901 270.247141 
L 238.874503 257.233767 
L 239.960304 262.781209 
L 241.046105 264.445441 
L 242.131906 273.991664 
L 243.217708 255.245934 
L 244.303509 247.918688 
L 245.38931 258.297027 
L 246.475111 255.846907 
L 247.560912 260.631575 
L 248.646713 263.867583 
L 249.732514 257.418682 
L 250.818316 254.436932 
L 251.904117 261.764178 
L 252.989918 260.215517 
L 254.075719 262.365151 
L 255.16152 257.857854 
L 256.247321 256.77148 
L 257.333123 250.877324 
L 258.418924 271.84203 
L 259.504725 262.480722 
L 260.590526 270.131569 
L 261.676327 263.844468 
L 262.762128 262.480722 
L 263.847929 260.885833 
L 264.933731 257.372453 
L 266.019532 258.782428 
L 267.105333 252.148612 
L 268.191134 252.610899 
L 269.276935 260.469775 
L 270.362736 251.732554 
L 271.448538 265.601158 
L 272.534339 263.243496 
L 273.62014 263.543982 
L 274.705941 251.755668 
L 275.791742 246.994114 
L 276.877543 266.340817 
L 277.963344 264.65347 
L 279.049146 264.884614 
L 280.134947 271.472201 
L 282.306549 263.613325 
L 283.39235 258.250798 
L 284.478151 251.501411 
L 285.563953 247.34083 
L 286.649754 249.536692 
L 287.735555 266.988019 
L 288.821356 263.821354 
L 289.907157 260.076831 
L 290.992958 260.44666 
L 292.07876 264.029383 
L 293.164561 246.254456 
L 294.250362 258.944228 
L 295.336163 249.351777 
L 296.421964 251.732554 
L 297.507765 250.761752 
L 298.593566 255.708221 
L 299.679368 265.601158 
L 300.765169 249.698492 
L 301.85097 256.632794 
L 302.936771 254.922333 
L 304.022572 257.626711 
L 305.108373 252.056155 
L 306.194175 259.175372 
L 307.279976 245.514797 
L 308.365777 258.019655 
L 309.451578 252.726471 
L 310.537379 268.559794 
L 311.62318 258.135226 
L 312.708981 253.165643 
L 313.794783 261.093862 
L 314.880584 259.314058 
L 315.966385 250.784866 
L 317.052186 249.005062 
L 318.137987 249.906521 
L 319.223788 256.216736 
L 320.30959 249.814064 
L 321.395391 248.265403 
L 322.481192 252.772699 
L 323.566993 256.170507 
L 324.652794 247.618202 
L 325.738595 244.613337 
L 326.824396 242.140103 
L 327.910198 254.644961 
L 328.995999 235.968574 
L 330.0818 248.797033 
L 331.167601 243.388277 
L 332.253402 241.724045 
L 333.339203 246.647399 
L 334.425005 242.001417 
L 335.510806 249.051291 
L 336.596607 249.744721 
L 337.682408 245.953969 
L 338.768209 243.064677 
L 339.85401 252.795814 
L 340.939811 242.463704 
L 342.025613 249.95275 
L 343.111414 240.175384 
L 344.197215 243.087791 
L 345.283016 245.260539 
L 346.368817 245.491682 
L 347.454618 240.568328 
L 348.54042 238.326237 
L 349.626221 238.141322 
L 350.712022 236.153489 
L 351.797823 247.479516 
L 352.883624 244.405308 
L 353.969425 245.537911 
L 355.055227 241.37733 
L 356.141028 241.53913 
L 358.31263 236.731347 
L 359.398431 236.222832 
L 360.484232 242.417475 
L 361.570033 242.533047 
L 362.655835 240.868814 
L 363.741636 240.429642 
L 364.827437 247.433287 
L 365.913238 237.216749 
L 366.999039 242.787305 
L 368.08484 238.002636 
L 369.170642 236.916262 
L 370.256443 237.286092 
L 371.342244 238.580495 
L 372.428045 247.1328 
L 373.513846 250.183893 
L 374.599647 247.618202 
L 375.685448 246.971 
L 376.77125 236.80069 
L 377.857051 241.446673 
L 378.942852 241.238644 
L 380.028653 252.264184 
L 381.114454 242.856648 
L 382.200255 243.850564 
L 383.286057 245.514797 
L 384.371858 245.191196 
L 385.457659 242.325018 
L 386.54346 241.099958 
L 387.629261 241.053729 
L 388.715062 243.157134 
L 389.800863 239.528183 
L 390.886665 241.37733 
L 391.972466 248.126717 
L 393.058267 249.860293 
L 394.144068 244.266622 
L 395.229869 246.370027 
L 396.31567 254.575618 
L 397.401472 240.129155 
L 398.487273 242.325018 
L 398.487273 242.325018 
" clip-path="url(#p29afa05a0e)" style="fill: none; stroke: #2ca02c; stroke-width: 1.5; stroke-linecap: square"/>
   </g>
   <g id="line2d_22">
    <path d="M 368.08484 161.837418 
L 369.170642 146.185543 
L 370.256443 154.396912 
L 371.342244 178.561799 
L 372.428045 146.487185 
L 373.513846 154.329881 
L 374.599647 178.327189 
L 375.685448 165.155482 
L 376.77125 180.539231 
L 377.857051 183.924326 
L 378.942852 161.535776 
L 380.028653 155.502933 
L 381.114454 180.472199 
L 382.200255 213.987992 
L 383.286057 187.275905 
L 384.371858 190.862095 
L 385.457659 186.370979 
L 386.54346 178.997504 
L 387.629261 194.716411 
L 388.715062 168.875735 
L 389.800863 164.284071 
L 390.886665 193.543359 
L 391.972466 186.974263 
L 393.058267 191.264285 
L 394.144068 208.692497 
L 395.229869 212.010561 
L 396.31567 205.139823 
L 397.401472 228.869005 
L 398.487273 221.327951 
L 398.487273 221.327951 
" clip-path="url(#p29afa05a0e)" style="fill: none; stroke: #d62728; stroke-width: 1.5; stroke-linecap: square"/>
   </g>
   <g id="line2d_23">
    <path d="M 368.08484 241.053729 
L 369.170642 236.962491 
L 370.256443 240.730128 
L 371.342244 253.697273 
L 372.428045 243.919907 
L 373.513846 241.0075 
L 374.599647 255.939364 
L 375.685448 248.843262 
L 376.77125 265.069528 
L 377.857051 264.838385 
L 378.942852 243.596306 
L 380.028653 249.582921 
L 382.200255 274.638865 
L 383.286057 266.017216 
L 384.371858 268.767823 
L 385.457659 260.885833 
L 386.54346 261.255662 
L 387.629261 271.564658 
L 388.715062 258.36637 
L 389.800863 241.238644 
L 390.886665 269.23011 
L 391.972466 268.074393 
L 393.058267 269.276338 
L 394.144068 278.730103 
L 395.229869 280.25565 
L 396.31567 271.911373 
L 397.401472 287.629124 
L 398.487273 284.346888 
L 398.487273 284.346888 
" clip-path="url(#p29afa05a0e)" style="fill: none; stroke: #9467bd; stroke-width: 1.5; stroke-linecap: square"/>
   </g>
   <g id="patch_3">
    <path d="M 57.6 307.584 
L 57.6 41.472 
" style="fill: none; stroke: #000000; stroke-width: 0.8; stroke-linejoin: miter; stroke-linecap: square"/>
   </g>
   <g id="patch_4">
    <path d="M 414.72 307.584 
L 414.72 41.472 
" style="fill: none; stroke: #000000; stroke-width: 0.8; stroke-linejoin: miter; stroke-linecap: square"/>
   </g>
   <g id="patch_5">
    <path d="M 57.6 307.584 
L 414.72 307.584 
" style="fill: none; stroke: #000000; stroke-width: 0.8; stroke-linejoin: miter; stroke-linecap: square"/>
   </g>
   <g id="patch_6">
    <path d="M 57.6 41.472 
L 414.72 41.472 
" style="fill: none; stroke: #000000; stroke-width: 0.8; stroke-linejoin: miter; stroke-linecap: square"/>
   </g>
   <g id="text_21">
    <!-- Learning Curves -->
    <g transform="translate(187.37625 35.472) scale(0.12 -0.12)">
     <defs>
      <path id="DejaVuSans-4c" d="M 628 4666 
L 1259 4666 
L 1259 531 
L 3531 531 
L 3531 0 
L 628 0 
L 628 4666 
z
" transform="scale(0.015625)"/>
      <path id="DejaVuSans-65" d="M 3597 1894 
L 3597 1613 
L 953 1613 
Q 991 1019 1311 708 
Q 1631 397 2203 397 
Q 2534 397 2845 478 
Q 3156 559 3463 722 
L 3463 178 
Q 3153 47 2828 -22 
Q 2503 -91 2169 -91 
Q 1331 -91 842 396 
Q 353 884 353 1716 
Q 353 2575 817 3079 
Q 1281 3584 2069 3584 
Q 2775 3584 3186 3129 
Q 3597 2675 3597 1894 
z
M 3022 2063 
Q 3016 2534 2758 2815 
Q 2500 3097 2075 3097 
Q 1594 3097 1305 2825 
Q 1016 2553 972 2059 
L 3022 2063 
z
" transform="scale(0.015625)"/>
      <path id="DejaVuSans-6e" d="M 3513 2113 
L 3513 0 
L 2938 0 
L 2938 2094 
Q 2938 2591 2744 2837 
Q 2550 3084 2163 3084 
Q 1697 3084 1428 2787 
Q 1159 2491 1159 1978 
L 1159 0 
L 581 0 
L 581 3500 
L 1159 3500 
L 1159 2956 
Q 1366 3272 1645 3428 
Q 1925 3584 2291 3584 
Q 2894 3584 3203 3211 
Q 3513 2838 3513 2113 
z
" transform="scale(0.015625)"/>
      <path id="DejaVuSans-69" d="M 603 3500 
L 1178 3500 
L 1178 0 
L 603 0 
L 603 3500 
z
M 603 4863 
L 1178 4863 
L 1178 4134 
L 603 4134 
L 603 4863 
z
" transform="scale(0.015625)"/>
      <path id="DejaVuSans-67" d="M 2906 1791 
Q 2906 2416 2648 2759 
Q 2391 3103 1925 3103 
Q 1463 3103 1205 2759 
Q 947 2416 947 1791 
Q 947 1169 1205 825 
Q 1463 481 1925 481 
Q 2391 481 2648 825 
Q 2906 1169 2906 1791 
z
M 3481 434 
Q 3481 -459 3084 -895 
Q 2688 -1331 1869 -1331 
Q 1566 -1331 1297 -1286 
Q 1028 -1241 775 -1147 
L 775 -588 
Q 1028 -725 1275 -790 
Q 1522 -856 1778 -856 
Q 2344 -856 2625 -561 
Q 2906 -266 2906 331 
L 2906 616 
Q 2728 306 2450 153 
Q 2172 0 1784 0 
Q 1141 0 747 490 
Q 353 981 353 1791 
Q 353 2603 747 3093 
Q 1141 3584 1784 3584 
Q 2172 3584 2450 3431 
Q 2728 3278 2906 2969 
L 2906 3500 
L 3481 3500 
L 3481 434 
z
" transform="scale(0.015625)"/>
      <path id="DejaVuSans-20" transform="scale(0.015625)"/>
      <path id="DejaVuSans-43" d="M 4122 4306 
L 4122 3641 
Q 3803 3938 3442 4084 
Q 3081 4231 2675 4231 
Q 1875 4231 1450 3742 
Q 1025 3253 1025 2328 
Q 1025 1406 1450 917 
Q 1875 428 2675 428 
Q 3081 428 3442 575 
Q 3803 722 4122 1019 
L 4122 359 
Q 3791 134 3420 21 
Q 3050 -91 2638 -91 
Q 1578 -91 968 557 
Q 359 1206 359 2328 
Q 359 3453 968 4101 
Q 1578 4750 2638 4750 
Q 3056 4750 3426 4639 
Q 3797 4528 4122 4306 
z
" transform="scale(0.015625)"/>
      <path id="DejaVuSans-76" d="M 191 3500 
L 800 3500 
L 1894 563 
L 2988 3500 
L 3597 3500 
L 2284 0 
L 1503 0 
L 191 3500 
z
" transform="scale(0.015625)"/>
     </defs>
     <use xlink:href="#DejaVuSans-4c"/>
     <use xlink:href="#DejaVuSans-65" x="53.962891"/>
     <use xlink:href="#DejaVuSans-61" x="115.486328"/>
     <use xlink:href="#DejaVuSans-72" x="176.765625"/>
     <use xlink:href="#DejaVuSans-6e" x="216.128906"/>
     <use xlink:href="#DejaVuSans-69" x="279.507812"/>
     <use xlink:href="#DejaVuSans-6e" x="307.291016"/>
     <use xlink:href="#DejaVuSans-67" x="370.669922"/>
     <use xlink:href="#DejaVuSans-20" x="434.146484"/>
     <use xlink:href="#DejaVuSans-43" x="465.933594"/>
     <use xlink:href="#DejaVuSans-75" x="535.757812"/>
     <use xlink:href="#DejaVuSans-72" x="599.136719"/>
     <use xlink:href="#DejaVuSans-76" x="640.25"/>
     <use xlink:href="#DejaVuSans-65" x="699.429688"/>
     <use xlink:href="#DejaVuSans-73" x="760.953125"/>
    </g>
   </g>
   <g id="legend_1">
    <g id="patch_7">
     <path d="M 64.6 122.862625 
L 258.13125 122.862625 
Q 260.13125 122.862625 260.13125 120.862625 
L 260.13125 48.472 
Q 260.13125 46.472 258.13125 46.472 
L 64.6 46.472 
Q 62.6 46.472 62.6 48.472 
L 62.6 120.862625 
Q 62.6 122.862625 64.6 122.862625 
z
" style="fill: #ffffff; opacity: 0.8; stroke: #cccccc; stroke-linejoin: miter"/>
    </g>
    <g id="line2d_24">
     <path d="M 66.6 54.570438 
L 76.6 54.570438 
L 86.6 54.570438 
" style="fill: none; stroke: #1f77b4; stroke-width: 1.5; stroke-linecap: square"/>
    </g>
    <g id="text_22">
     <!-- Train Accuracy -->
     <g transform="translate(94.6 58.070438) scale(0.1 -0.1)">
      <defs>
       <path id="DejaVuSans-54" d="M -19 4666 
L 3928 4666 
L 3928 4134 
L 2272 4134 
L 2272 0 
L 1638 0 
L 1638 4134 
L -19 4134 
L -19 4666 
z
" transform="scale(0.015625)"/>
      </defs>
      <use xlink:href="#DejaVuSans-54"/>
      <use xlink:href="#DejaVuSans-72" x="46.333984"/>
      <use xlink:href="#DejaVuSans-61" x="87.447266"/>
      <use xlink:href="#DejaVuSans-69" x="148.726562"/>
      <use xlink:href="#DejaVuSans-6e" x="176.509766"/>
      <use xlink:href="#DejaVuSans-20" x="239.888672"/>
      <use xlink:href="#DejaVuSans-41" x="271.675781"/>
      <use xlink:href="#DejaVuSans-63" x="338.333984"/>
      <use xlink:href="#DejaVuSans-63" x="393.314453"/>
      <use xlink:href="#DejaVuSans-75" x="448.294922"/>
      <use xlink:href="#DejaVuSans-72" x="511.673828"/>
      <use xlink:href="#DejaVuSans-61" x="552.787109"/>
      <use xlink:href="#DejaVuSans-63" x="614.066406"/>
      <use xlink:href="#DejaVuSans-79" x="669.046875"/>
     </g>
    </g>
    <g id="line2d_25">
     <path d="M 66.6 69.248563 
L 76.6 69.248563 
L 86.6 69.248563 
" style="fill: none; stroke: #ff7f0e; stroke-width: 1.5; stroke-linecap: square"/>
    </g>
    <g id="text_23">
     <!-- Validation Accuracy -->
     <g transform="translate(94.6 72.748563) scale(0.1 -0.1)">
      <defs>
       <path id="DejaVuSans-56" d="M 1831 0 
L 50 4666 
L 709 4666 
L 2188 738 
L 3669 4666 
L 4325 4666 
L 2547 0 
L 1831 0 
z
" transform="scale(0.015625)"/>
       <path id="DejaVuSans-6c" d="M 603 4863 
L 1178 4863 
L 1178 0 
L 603 0 
L 603 4863 
z
" transform="scale(0.015625)"/>
       <path id="DejaVuSans-64" d="M 2906 2969 
L 2906 4863 
L 3481 4863 
L 3481 0 
L 2906 0 
L 2906 525 
Q 2725 213 2448 61 
Q 2172 -91 1784 -91 
Q 1150 -91 751 415 
Q 353 922 353 1747 
Q 353 2572 751 3078 
Q 1150 3584 1784 3584 
Q 2172 3584 2448 3432 
Q 2725 3281 2906 2969 
z
M 947 1747 
Q 947 1113 1208 752 
Q 1469 391 1925 391 
Q 2381 391 2643 752 
Q 2906 1113 2906 1747 
Q 2906 2381 2643 2742 
Q 2381 3103 1925 3103 
Q 1469 3103 1208 2742 
Q 947 2381 947 1747 
z
" transform="scale(0.015625)"/>
       <path id="DejaVuSans-74" d="M 1172 4494 
L 1172 3500 
L 2356 3500 
L 2356 3053 
L 1172 3053 
L 1172 1153 
Q 1172 725 1289 603 
Q 1406 481 1766 481 
L 2356 481 
L 2356 0 
L 1766 0 
Q 1100 0 847 248 
Q 594 497 594 1153 
L 594 3053 
L 172 3053 
L 172 3500 
L 594 3500 
L 594 4494 
L 1172 4494 
z
" transform="scale(0.015625)"/>
      </defs>
      <use xlink:href="#DejaVuSans-56"/>
      <use xlink:href="#DejaVuSans-61" x="60.658203"/>
      <use xlink:href="#DejaVuSans-6c" x="121.9375"/>
      <use xlink:href="#DejaVuSans-69" x="149.720703"/>
      <use xlink:href="#DejaVuSans-64" x="177.503906"/>
      <use xlink:href="#DejaVuSans-61" x="240.980469"/>
      <use xlink:href="#DejaVuSans-74" x="302.259766"/>
      <use xlink:href="#DejaVuSans-69" x="341.46875"/>
      <use xlink:href="#DejaVuSans-6f" x="369.251953"/>
      <use xlink:href="#DejaVuSans-6e" x="430.433594"/>
      <use xlink:href="#DejaVuSans-20" x="493.8125"/>
      <use xlink:href="#DejaVuSans-41" x="525.599609"/>
      <use xlink:href="#DejaVuSans-63" x="592.257812"/>
      <use xlink:href="#DejaVuSans-63" x="647.238281"/>
      <use xlink:href="#DejaVuSans-75" x="702.21875"/>
      <use xlink:href="#DejaVuSans-72" x="765.597656"/>
      <use xlink:href="#DejaVuSans-61" x="806.710938"/>
      <use xlink:href="#DejaVuSans-63" x="867.990234"/>
      <use xlink:href="#DejaVuSans-79" x="922.970703"/>
     </g>
    </g>
    <g id="line2d_26">
     <path d="M 66.6 83.926688 
L 76.6 83.926688 
L 86.6 83.926688 
" style="fill: none; stroke: #2ca02c; stroke-width: 1.5; stroke-linecap: square"/>
    </g>
    <g id="text_24">
     <!-- Robust Validation Accuracy -->
     <g transform="translate(94.6 87.426688) scale(0.1 -0.1)">
      <defs>
       <path id="DejaVuSans-52" d="M 2841 2188 
Q 3044 2119 3236 1894 
Q 3428 1669 3622 1275 
L 4263 0 
L 3584 0 
L 2988 1197 
Q 2756 1666 2539 1819 
Q 2322 1972 1947 1972 
L 1259 1972 
L 1259 0 
L 628 0 
L 628 4666 
L 2053 4666 
Q 2853 4666 3247 4331 
Q 3641 3997 3641 3322 
Q 3641 2881 3436 2590 
Q 3231 2300 2841 2188 
z
M 1259 4147 
L 1259 2491 
L 2053 2491 
Q 2509 2491 2742 2702 
Q 2975 2913 2975 3322 
Q 2975 3731 2742 3939 
Q 2509 4147 2053 4147 
L 1259 4147 
z
" transform="scale(0.015625)"/>
       <path id="DejaVuSans-62" d="M 3116 1747 
Q 3116 2381 2855 2742 
Q 2594 3103 2138 3103 
Q 1681 3103 1420 2742 
Q 1159 2381 1159 1747 
Q 1159 1113 1420 752 
Q 1681 391 2138 391 
Q 2594 391 2855 752 
Q 3116 1113 3116 1747 
z
M 1159 2969 
Q 1341 3281 1617 3432 
Q 1894 3584 2278 3584 
Q 2916 3584 3314 3078 
Q 3713 2572 3713 1747 
Q 3713 922 3314 415 
Q 2916 -91 2278 -91 
Q 1894 -91 1617 61 
Q 1341 213 1159 525 
L 1159 0 
L 581 0 
L 581 4863 
L 1159 4863 
L 1159 2969 
z
" transform="scale(0.015625)"/>
      </defs>
      <use xlink:href="#DejaVuSans-52"/>
      <use xlink:href="#DejaVuSans-6f" x="64.982422"/>
      <use xlink:href="#DejaVuSans-62" x="126.164062"/>
      <use xlink:href="#DejaVuSans-75" x="189.640625"/>
      <use xlink:href="#DejaVuSans-73" x="253.019531"/>
      <use xlink:href="#DejaVuSans-74" x="305.119141"/>
      <use xlink:href="#DejaVuSans-20" x="344.328125"/>
      <use xlink:href="#DejaVuSans-56" x="376.115234"/>
      <use xlink:href="#DejaVuSans-61" x="436.773438"/>
      <use xlink:href="#DejaVuSans-6c" x="498.052734"/>
      <use xlink:href="#DejaVuSans-69" x="525.835938"/>
      <use xlink:href="#DejaVuSans-64" x="553.619141"/>
      <use xlink:href="#DejaVuSans-61" x="617.095703"/>
      <use xlink:href="#DejaVuSans-74" x="678.375"/>
      <use xlink:href="#DejaVuSans-69" x="717.583984"/>
      <use xlink:href="#DejaVuSans-6f" x="745.367188"/>
      <use xlink:href="#DejaVuSans-6e" x="806.548828"/>
      <use xlink:href="#DejaVuSans-20" x="869.927734"/>
      <use xlink:href="#DejaVuSans-41" x="901.714844"/>
      <use xlink:href="#DejaVuSans-63" x="968.373047"/>
      <use xlink:href="#DejaVuSans-63" x="1023.353516"/>
      <use xlink:href="#DejaVuSans-75" x="1078.333984"/>
      <use xlink:href="#DejaVuSans-72" x="1141.712891"/>
      <use xlink:href="#DejaVuSans-61" x="1182.826172"/>
      <use xlink:href="#DejaVuSans-63" x="1244.105469"/>
      <use xlink:href="#DejaVuSans-79" x="1299.085938"/>
     </g>
    </g>
    <g id="line2d_27">
     <path d="M 66.6 98.604813 
L 76.6 98.604813 
L 86.6 98.604813 
" style="fill: none; stroke: #d62728; stroke-width: 1.5; stroke-linecap: square"/>
    </g>
    <g id="text_25">
     <!-- SWA Validation Accuracy -->
     <g transform="translate(94.6 102.104813) scale(0.1 -0.1)">
      <defs>
       <path id="DejaVuSans-53" d="M 3425 4513 
L 3425 3897 
Q 3066 4069 2747 4153 
Q 2428 4238 2131 4238 
Q 1616 4238 1336 4038 
Q 1056 3838 1056 3469 
Q 1056 3159 1242 3001 
Q 1428 2844 1947 2747 
L 2328 2669 
Q 3034 2534 3370 2195 
Q 3706 1856 3706 1288 
Q 3706 609 3251 259 
Q 2797 -91 1919 -91 
Q 1588 -91 1214 -16 
Q 841 59 441 206 
L 441 856 
Q 825 641 1194 531 
Q 1563 422 1919 422 
Q 2459 422 2753 634 
Q 3047 847 3047 1241 
Q 3047 1584 2836 1778 
Q 2625 1972 2144 2069 
L 1759 2144 
Q 1053 2284 737 2584 
Q 422 2884 422 3419 
Q 422 4038 858 4394 
Q 1294 4750 2059 4750 
Q 2388 4750 2728 4690 
Q 3069 4631 3425 4513 
z
" transform="scale(0.015625)"/>
       <path id="DejaVuSans-57" d="M 213 4666 
L 850 4666 
L 1831 722 
L 2809 4666 
L 3519 4666 
L 4500 722 
L 5478 4666 
L 6119 4666 
L 4947 0 
L 4153 0 
L 3169 4050 
L 2175 0 
L 1381 0 
L 213 4666 
z
" transform="scale(0.015625)"/>
      </defs>
      <use xlink:href="#DejaVuSans-53"/>
      <use xlink:href="#DejaVuSans-57" x="63.476562"/>
      <use xlink:href="#DejaVuSans-41" x="156.853516"/>
      <use xlink:href="#DejaVuSans-20" x="225.261719"/>
      <use xlink:href="#DejaVuSans-56" x="257.048828"/>
      <use xlink:href="#DejaVuSans-61" x="317.707031"/>
      <use xlink:href="#DejaVuSans-6c" x="378.986328"/>
      <use xlink:href="#DejaVuSans-69" x="406.769531"/>
      <use xlink:href="#DejaVuSans-64" x="434.552734"/>
      <use xlink:href="#DejaVuSans-61" x="498.029297"/>
      <use xlink:href="#DejaVuSans-74" x="559.308594"/>
      <use xlink:href="#DejaVuSans-69" x="598.517578"/>
      <use xlink:href="#DejaVuSans-6f" x="626.300781"/>
      <use xlink:href="#DejaVuSans-6e" x="687.482422"/>
      <use xlink:href="#DejaVuSans-20" x="750.861328"/>
      <use xlink:href="#DejaVuSans-41" x="782.648438"/>
      <use xlink:href="#DejaVuSans-63" x="849.306641"/>
      <use xlink:href="#DejaVuSans-63" x="904.287109"/>
      <use xlink:href="#DejaVuSans-75" x="959.267578"/>
      <use xlink:href="#DejaVuSans-72" x="1022.646484"/>
      <use xlink:href="#DejaVuSans-61" x="1063.759766"/>
      <use xlink:href="#DejaVuSans-63" x="1125.039062"/>
      <use xlink:href="#DejaVuSans-79" x="1180.019531"/>
     </g>
    </g>
    <g id="line2d_28">
     <path d="M 66.6 113.282938 
L 76.6 113.282938 
L 86.6 113.282938 
" style="fill: none; stroke: #9467bd; stroke-width: 1.5; stroke-linecap: square"/>
    </g>
    <g id="text_26">
     <!-- SWA Robust Validation Accuracy -->
     <g transform="translate(94.6 116.782938) scale(0.1 -0.1)">
      <use xlink:href="#DejaVuSans-53"/>
      <use xlink:href="#DejaVuSans-57" x="63.476562"/>
      <use xlink:href="#DejaVuSans-41" x="156.853516"/>
      <use xlink:href="#DejaVuSans-20" x="225.261719"/>
      <use xlink:href="#DejaVuSans-52" x="257.048828"/>
      <use xlink:href="#DejaVuSans-6f" x="322.03125"/>
      <use xlink:href="#DejaVuSans-62" x="383.212891"/>
      <use xlink:href="#DejaVuSans-75" x="446.689453"/>
      <use xlink:href="#DejaVuSans-73" x="510.068359"/>
      <use xlink:href="#DejaVuSans-74" x="562.167969"/>
      <use xlink:href="#DejaVuSans-20" x="601.376953"/>
      <use xlink:href="#DejaVuSans-56" x="633.164062"/>
      <use xlink:href="#DejaVuSans-61" x="693.822266"/>
      <use xlink:href="#DejaVuSans-6c" x="755.101562"/>
      <use xlink:href="#DejaVuSans-69" x="782.884766"/>
      <use xlink:href="#DejaVuSans-64" x="810.667969"/>
      <use xlink:href="#DejaVuSans-61" x="874.144531"/>
      <use xlink:href="#DejaVuSans-74" x="935.423828"/>
      <use xlink:href="#DejaVuSans-69" x="974.632812"/>
      <use xlink:href="#DejaVuSans-6f" x="1002.416016"/>
      <use xlink:href="#DejaVuSans-6e" x="1063.597656"/>
      <use xlink:href="#DejaVuSans-20" x="1126.976562"/>
      <use xlink:href="#DejaVuSans-41" x="1158.763672"/>
      <use xlink:href="#DejaVuSans-63" x="1225.421875"/>
      <use xlink:href="#DejaVuSans-63" x="1280.402344"/>
      <use xlink:href="#DejaVuSans-75" x="1335.382812"/>
      <use xlink:href="#DejaVuSans-72" x="1398.761719"/>
      <use xlink:href="#DejaVuSans-61" x="1439.875"/>
      <use xlink:href="#DejaVuSans-63" x="1501.154297"/>
      <use xlink:href="#DejaVuSans-79" x="1556.134766"/>
     </g>
    </g>
   </g>
  </g>
 </g>
 <defs>
  <clipPath id="p29afa05a0e">
   <rect x="57.6" y="41.472" width="357.12" height="266.112"/>
  </clipPath>
 </defs>
</svg>
