<?xml version="1.0" encoding="utf-8" standalone="no"?>
<!DOCTYPE svg PUBLIC "-//W3C//DTD SVG 1.1//EN"
  "http://www.w3.org/Graphics/SVG/1.1/DTD/svg11.dtd">
<svg xmlns:xlink="http://www.w3.org/1999/xlink" width="460.8pt" height="345.6pt" viewBox="0 0 460.8 345.6" xmlns="http://www.w3.org/2000/svg" version="1.1">
 <metadata>
  <rdf:RDF xmlns:dc="http://purl.org/dc/elements/1.1/" xmlns:cc="http://creativecommons.org/ns#" xmlns:rdf="http://www.w3.org/1999/02/22-rdf-syntax-ns#">
   <cc:Work>
    <dc:type rdf:resource="http://purl.org/dc/dcmitype/StillImage"/>
    <dc:date>2025-03-18T06:41:19.399581</dc:date>
    <dc:format>image/svg+xml</dc:format>
    <dc:creator>
     <cc:Agent>
      <dc:title>Matplotlib v3.9.1, https://matplotlib.org/</dc:title>
     </cc:Agent>
    </dc:creator>
   </cc:Work>
  </rdf:RDF>
 </metadata>
 <defs>
  <style type="text/css">*{stroke-linejoin: round; stroke-linecap: butt}</style>
 </defs>
 <g id="figure_1">
  <g id="patch_1">
   <path d="M 0 345.6 
L 460.8 345.6 
L 460.8 0 
L 0 0 
z
" style="fill: #ffffff"/>
  </g>
  <g id="axes_1">
   <g id="patch_2">
    <path d="M 57.6 307.584 
L 414.72 307.584 
L 414.72 41.472 
L 57.6 41.472 
z
" style="fill: #ffffff"/>
   </g>
   <g id="matplotlib.axis_1">
    <g id="xtick_1">
     <g id="line2d_1">
      <defs>
       <path id="m61df100c08" d="M 0 0 
L 0 3.5 
" style="stroke: #000000; stroke-width: 0.8"/>
      </defs>
      <g>
       <use xlink:href="#m61df100c08" x="73.832727" y="307.584" style="stroke: #000000; stroke-width: 0.8"/>
      </g>
     </g>
     <g id="text_1">
      <!-- 1 -->
      <g transform="translate(70.651477 322.182437) scale(0.1 -0.1)">
       <defs>
        <path id="DejaVuSans-31" d="M 794 531 
L 1825 531 
L 1825 4091 
L 703 3866 
L 703 4441 
L 1819 4666 
L 2450 4666 
L 2450 531 
L 3481 531 
L 3481 0 
L 794 0 
L 794 531 
z
" transform="scale(0.015625)"/>
       </defs>
       <use xlink:href="#DejaVuSans-31"/>
      </g>
     </g>
    </g>
    <g id="xtick_2">
     <g id="line2d_2">
      <g>
       <use xlink:href="#m61df100c08" x="109.664165" y="307.584" style="stroke: #000000; stroke-width: 0.8"/>
      </g>
     </g>
     <g id="text_2">
      <!-- 34 -->
      <g transform="translate(103.301665 322.182437) scale(0.1 -0.1)">
       <defs>
        <path id="DejaVuSans-33" d="M 2597 2516 
Q 3050 2419 3304 2112 
Q 3559 1806 3559 1356 
Q 3559 666 3084 287 
Q 2609 -91 1734 -91 
Q 1441 -91 1130 -33 
Q 819 25 488 141 
L 488 750 
Q 750 597 1062 519 
Q 1375 441 1716 441 
Q 2309 441 2620 675 
Q 2931 909 2931 1356 
Q 2931 1769 2642 2001 
Q 2353 2234 1838 2234 
L 1294 2234 
L 1294 2753 
L 1863 2753 
Q 2328 2753 2575 2939 
Q 2822 3125 2822 3475 
Q 2822 3834 2567 4026 
Q 2313 4219 1838 4219 
Q 1578 4219 1281 4162 
Q 984 4106 628 3988 
L 628 4550 
Q 988 4650 1302 4700 
Q 1616 4750 1894 4750 
Q 2613 4750 3031 4423 
Q 3450 4097 3450 3541 
Q 3450 3153 3228 2886 
Q 3006 2619 2597 2516 
z
" transform="scale(0.015625)"/>
        <path id="DejaVuSans-34" d="M 2419 4116 
L 825 1625 
L 2419 1625 
L 2419 4116 
z
M 2253 4666 
L 3047 4666 
L 3047 1625 
L 3713 1625 
L 3713 1100 
L 3047 1100 
L 3047 0 
L 2419 0 
L 2419 1100 
L 313 1100 
L 313 1709 
L 2253 4666 
z
" transform="scale(0.015625)"/>
       </defs>
       <use xlink:href="#DejaVuSans-33"/>
       <use xlink:href="#DejaVuSans-34" x="63.623047"/>
      </g>
     </g>
    </g>
    <g id="xtick_3">
     <g id="line2d_3">
      <g>
       <use xlink:href="#m61df100c08" x="145.495604" y="307.584" style="stroke: #000000; stroke-width: 0.8"/>
      </g>
     </g>
     <g id="text_3">
      <!-- 67 -->
      <g transform="translate(139.133104 322.182437) scale(0.1 -0.1)">
       <defs>
        <path id="DejaVuSans-36" d="M 2113 2584 
Q 1688 2584 1439 2293 
Q 1191 2003 1191 1497 
Q 1191 994 1439 701 
Q 1688 409 2113 409 
Q 2538 409 2786 701 
Q 3034 994 3034 1497 
Q 3034 2003 2786 2293 
Q 2538 2584 2113 2584 
z
M 3366 4563 
L 3366 3988 
Q 3128 4100 2886 4159 
Q 2644 4219 2406 4219 
Q 1781 4219 1451 3797 
Q 1122 3375 1075 2522 
Q 1259 2794 1537 2939 
Q 1816 3084 2150 3084 
Q 2853 3084 3261 2657 
Q 3669 2231 3669 1497 
Q 3669 778 3244 343 
Q 2819 -91 2113 -91 
Q 1303 -91 875 529 
Q 447 1150 447 2328 
Q 447 3434 972 4092 
Q 1497 4750 2381 4750 
Q 2619 4750 2861 4703 
Q 3103 4656 3366 4563 
z
" transform="scale(0.015625)"/>
        <path id="DejaVuSans-37" d="M 525 4666 
L 3525 4666 
L 3525 4397 
L 1831 0 
L 1172 0 
L 2766 4134 
L 525 4134 
L 525 4666 
z
" transform="scale(0.015625)"/>
       </defs>
       <use xlink:href="#DejaVuSans-36"/>
       <use xlink:href="#DejaVuSans-37" x="63.623047"/>
      </g>
     </g>
    </g>
    <g id="xtick_4">
     <g id="line2d_4">
      <g>
       <use xlink:href="#m61df100c08" x="181.327042" y="307.584" style="stroke: #000000; stroke-width: 0.8"/>
      </g>
     </g>
     <g id="text_4">
      <!-- 100 -->
      <g transform="translate(171.783292 322.182437) scale(0.1 -0.1)">
       <defs>
        <path id="DejaVuSans-30" d="M 2034 4250 
Q 1547 4250 1301 3770 
Q 1056 3291 1056 2328 
Q 1056 1369 1301 889 
Q 1547 409 2034 409 
Q 2525 409 2770 889 
Q 3016 1369 3016 2328 
Q 3016 3291 2770 3770 
Q 2525 4250 2034 4250 
z
M 2034 4750 
Q 2819 4750 3233 4129 
Q 3647 3509 3647 2328 
Q 3647 1150 3233 529 
Q 2819 -91 2034 -91 
Q 1250 -91 836 529 
Q 422 1150 422 2328 
Q 422 3509 836 4129 
Q 1250 4750 2034 4750 
z
" transform="scale(0.015625)"/>
       </defs>
       <use xlink:href="#DejaVuSans-31"/>
       <use xlink:href="#DejaVuSans-30" x="63.623047"/>
       <use xlink:href="#DejaVuSans-30" x="127.246094"/>
      </g>
     </g>
    </g>
    <g id="xtick_5">
     <g id="line2d_5">
      <g>
       <use xlink:href="#m61df100c08" x="217.15848" y="307.584" style="stroke: #000000; stroke-width: 0.8"/>
      </g>
     </g>
     <g id="text_5">
      <!-- 133 -->
      <g transform="translate(207.61473 322.182437) scale(0.1 -0.1)">
       <use xlink:href="#DejaVuSans-31"/>
       <use xlink:href="#DejaVuSans-33" x="63.623047"/>
       <use xlink:href="#DejaVuSans-33" x="127.246094"/>
      </g>
     </g>
    </g>
    <g id="xtick_6">
     <g id="line2d_6">
      <g>
       <use xlink:href="#m61df100c08" x="254.075719" y="307.584" style="stroke: #000000; stroke-width: 0.8"/>
      </g>
     </g>
     <g id="text_6">
      <!-- 167 -->
      <g transform="translate(244.531969 322.182437) scale(0.1 -0.1)">
       <use xlink:href="#DejaVuSans-31"/>
       <use xlink:href="#DejaVuSans-36" x="63.623047"/>
       <use xlink:href="#DejaVuSans-37" x="127.246094"/>
      </g>
     </g>
    </g>
    <g id="xtick_7">
     <g id="line2d_7">
      <g>
       <use xlink:href="#m61df100c08" x="289.907157" y="307.584" style="stroke: #000000; stroke-width: 0.8"/>
      </g>
     </g>
     <g id="text_7">
      <!-- 200 -->
      <g transform="translate(280.363407 322.182437) scale(0.1 -0.1)">
       <defs>
        <path id="DejaVuSans-32" d="M 1228 531 
L 3431 531 
L 3431 0 
L 469 0 
L 469 531 
Q 828 903 1448 1529 
Q 2069 2156 2228 2338 
Q 2531 2678 2651 2914 
Q 2772 3150 2772 3378 
Q 2772 3750 2511 3984 
Q 2250 4219 1831 4219 
Q 1534 4219 1204 4116 
Q 875 4013 500 3803 
L 500 4441 
Q 881 4594 1212 4672 
Q 1544 4750 1819 4750 
Q 2544 4750 2975 4387 
Q 3406 4025 3406 3419 
Q 3406 3131 3298 2873 
Q 3191 2616 2906 2266 
Q 2828 2175 2409 1742 
Q 1991 1309 1228 531 
z
" transform="scale(0.015625)"/>
       </defs>
       <use xlink:href="#DejaVuSans-32"/>
       <use xlink:href="#DejaVuSans-30" x="63.623047"/>
       <use xlink:href="#DejaVuSans-30" x="127.246094"/>
      </g>
     </g>
    </g>
    <g id="xtick_8">
     <g id="line2d_8">
      <g>
       <use xlink:href="#m61df100c08" x="325.738595" y="307.584" style="stroke: #000000; stroke-width: 0.8"/>
      </g>
     </g>
     <g id="text_8">
      <!-- 233 -->
      <g transform="translate(316.194845 322.182437) scale(0.1 -0.1)">
       <use xlink:href="#DejaVuSans-32"/>
       <use xlink:href="#DejaVuSans-33" x="63.623047"/>
       <use xlink:href="#DejaVuSans-33" x="127.246094"/>
      </g>
     </g>
    </g>
    <g id="xtick_9">
     <g id="line2d_9">
      <g>
       <use xlink:href="#m61df100c08" x="361.570033" y="307.584" style="stroke: #000000; stroke-width: 0.8"/>
      </g>
     </g>
     <g id="text_9">
      <!-- 266 -->
      <g transform="translate(352.026283 322.182437) scale(0.1 -0.1)">
       <use xlink:href="#DejaVuSans-32"/>
       <use xlink:href="#DejaVuSans-36" x="63.623047"/>
       <use xlink:href="#DejaVuSans-36" x="127.246094"/>
      </g>
     </g>
    </g>
    <g id="xtick_10">
     <g id="line2d_10">
      <g>
       <use xlink:href="#m61df100c08" x="398.487273" y="307.584" style="stroke: #000000; stroke-width: 0.8"/>
      </g>
     </g>
     <g id="text_10">
      <!-- 300 -->
      <g transform="translate(388.943523 322.182437) scale(0.1 -0.1)">
       <use xlink:href="#DejaVuSans-33"/>
       <use xlink:href="#DejaVuSans-30" x="63.623047"/>
       <use xlink:href="#DejaVuSans-30" x="127.246094"/>
      </g>
     </g>
    </g>
    <g id="text_11">
     <!-- Epochs -->
     <g transform="translate(218.244375 335.860562) scale(0.1 -0.1)">
      <defs>
       <path id="DejaVuSans-45" d="M 628 4666 
L 3578 4666 
L 3578 4134 
L 1259 4134 
L 1259 2753 
L 3481 2753 
L 3481 2222 
L 1259 2222 
L 1259 531 
L 3634 531 
L 3634 0 
L 628 0 
L 628 4666 
z
" transform="scale(0.015625)"/>
       <path id="DejaVuSans-70" d="M 1159 525 
L 1159 -1331 
L 581 -1331 
L 581 3500 
L 1159 3500 
L 1159 2969 
Q 1341 3281 1617 3432 
Q 1894 3584 2278 3584 
Q 2916 3584 3314 3078 
Q 3713 2572 3713 1747 
Q 3713 922 3314 415 
Q 2916 -91 2278 -91 
Q 1894 -91 1617 61 
Q 1341 213 1159 525 
z
M 3116 1747 
Q 3116 2381 2855 2742 
Q 2594 3103 2138 3103 
Q 1681 3103 1420 2742 
Q 1159 2381 1159 1747 
Q 1159 1113 1420 752 
Q 1681 391 2138 391 
Q 2594 391 2855 752 
Q 3116 1113 3116 1747 
z
" transform="scale(0.015625)"/>
       <path id="DejaVuSans-6f" d="M 1959 3097 
Q 1497 3097 1228 2736 
Q 959 2375 959 1747 
Q 959 1119 1226 758 
Q 1494 397 1959 397 
Q 2419 397 2687 759 
Q 2956 1122 2956 1747 
Q 2956 2369 2687 2733 
Q 2419 3097 1959 3097 
z
M 1959 3584 
Q 2709 3584 3137 3096 
Q 3566 2609 3566 1747 
Q 3566 888 3137 398 
Q 2709 -91 1959 -91 
Q 1206 -91 779 398 
Q 353 888 353 1747 
Q 353 2609 779 3096 
Q 1206 3584 1959 3584 
z
" transform="scale(0.015625)"/>
       <path id="DejaVuSans-63" d="M 3122 3366 
L 3122 2828 
Q 2878 2963 2633 3030 
Q 2388 3097 2138 3097 
Q 1578 3097 1268 2742 
Q 959 2388 959 1747 
Q 959 1106 1268 751 
Q 1578 397 2138 397 
Q 2388 397 2633 464 
Q 2878 531 3122 666 
L 3122 134 
Q 2881 22 2623 -34 
Q 2366 -91 2075 -91 
Q 1284 -91 818 406 
Q 353 903 353 1747 
Q 353 2603 823 3093 
Q 1294 3584 2113 3584 
Q 2378 3584 2631 3529 
Q 2884 3475 3122 3366 
z
" transform="scale(0.015625)"/>
       <path id="DejaVuSans-68" d="M 3513 2113 
L 3513 0 
L 2938 0 
L 2938 2094 
Q 2938 2591 2744 2837 
Q 2550 3084 2163 3084 
Q 1697 3084 1428 2787 
Q 1159 2491 1159 1978 
L 1159 0 
L 581 0 
L 581 4863 
L 1159 4863 
L 1159 2956 
Q 1366 3272 1645 3428 
Q 1925 3584 2291 3584 
Q 2894 3584 3203 3211 
Q 3513 2838 3513 2113 
z
" transform="scale(0.015625)"/>
       <path id="DejaVuSans-73" d="M 2834 3397 
L 2834 2853 
Q 2591 2978 2328 3040 
Q 2066 3103 1784 3103 
Q 1356 3103 1142 2972 
Q 928 2841 928 2578 
Q 928 2378 1081 2264 
Q 1234 2150 1697 2047 
L 1894 2003 
Q 2506 1872 2764 1633 
Q 3022 1394 3022 966 
Q 3022 478 2636 193 
Q 2250 -91 1575 -91 
Q 1294 -91 989 -36 
Q 684 19 347 128 
L 347 722 
Q 666 556 975 473 
Q 1284 391 1588 391 
Q 1994 391 2212 530 
Q 2431 669 2431 922 
Q 2431 1156 2273 1281 
Q 2116 1406 1581 1522 
L 1381 1569 
Q 847 1681 609 1914 
Q 372 2147 372 2553 
Q 372 3047 722 3315 
Q 1072 3584 1716 3584 
Q 2034 3584 2315 3537 
Q 2597 3491 2834 3397 
z
" transform="scale(0.015625)"/>
      </defs>
      <use xlink:href="#DejaVuSans-45"/>
      <use xlink:href="#DejaVuSans-70" x="63.183594"/>
      <use xlink:href="#DejaVuSans-6f" x="126.660156"/>
      <use xlink:href="#DejaVuSans-63" x="187.841797"/>
      <use xlink:href="#DejaVuSans-68" x="242.822266"/>
      <use xlink:href="#DejaVuSans-73" x="306.201172"/>
     </g>
    </g>
   </g>
   <g id="matplotlib.axis_2">
    <g id="ytick_1">
     <g id="line2d_11">
      <defs>
       <path id="m355858042a" d="M 0 0 
L -3.5 0 
" style="stroke: #000000; stroke-width: 0.8"/>
      </defs>
      <g>
       <use xlink:href="#m355858042a" x="57.6" y="306.956318" style="stroke: #000000; stroke-width: 0.8"/>
      </g>
     </g>
     <g id="text_12">
      <!-- 0 -->
      <g transform="translate(44.2375 310.755536) scale(0.1 -0.1)">
       <use xlink:href="#DejaVuSans-30"/>
      </g>
     </g>
    </g>
    <g id="ytick_2">
     <g id="line2d_12">
      <g>
       <use xlink:href="#m355858042a" x="57.6" y="270.778659" style="stroke: #000000; stroke-width: 0.8"/>
      </g>
     </g>
     <g id="text_13">
      <!-- 10 -->
      <g transform="translate(37.875 274.577878) scale(0.1 -0.1)">
       <use xlink:href="#DejaVuSans-31"/>
       <use xlink:href="#DejaVuSans-30" x="63.623047"/>
      </g>
     </g>
    </g>
    <g id="ytick_3">
     <g id="line2d_13">
      <g>
       <use xlink:href="#m355858042a" x="57.6" y="234.601001" style="stroke: #000000; stroke-width: 0.8"/>
      </g>
     </g>
     <g id="text_14">
      <!-- 20 -->
      <g transform="translate(37.875 238.40022) scale(0.1 -0.1)">
       <use xlink:href="#DejaVuSans-32"/>
       <use xlink:href="#DejaVuSans-30" x="63.623047"/>
      </g>
     </g>
    </g>
    <g id="ytick_4">
     <g id="line2d_14">
      <g>
       <use xlink:href="#m355858042a" x="57.6" y="198.423343" style="stroke: #000000; stroke-width: 0.8"/>
      </g>
     </g>
     <g id="text_15">
      <!-- 30 -->
      <g transform="translate(37.875 202.222562) scale(0.1 -0.1)">
       <use xlink:href="#DejaVuSans-33"/>
       <use xlink:href="#DejaVuSans-30" x="63.623047"/>
      </g>
     </g>
    </g>
    <g id="ytick_5">
     <g id="line2d_15">
      <g>
       <use xlink:href="#m355858042a" x="57.6" y="162.245685" style="stroke: #000000; stroke-width: 0.8"/>
      </g>
     </g>
     <g id="text_16">
      <!-- 40 -->
      <g transform="translate(37.875 166.044904) scale(0.1 -0.1)">
       <use xlink:href="#DejaVuSans-34"/>
       <use xlink:href="#DejaVuSans-30" x="63.623047"/>
      </g>
     </g>
    </g>
    <g id="ytick_6">
     <g id="line2d_16">
      <g>
       <use xlink:href="#m355858042a" x="57.6" y="126.068027" style="stroke: #000000; stroke-width: 0.8"/>
      </g>
     </g>
     <g id="text_17">
      <!-- 50 -->
      <g transform="translate(37.875 129.867246) scale(0.1 -0.1)">
       <defs>
        <path id="DejaVuSans-35" d="M 691 4666 
L 3169 4666 
L 3169 4134 
L 1269 4134 
L 1269 2991 
Q 1406 3038 1543 3061 
Q 1681 3084 1819 3084 
Q 2600 3084 3056 2656 
Q 3513 2228 3513 1497 
Q 3513 744 3044 326 
Q 2575 -91 1722 -91 
Q 1428 -91 1123 -41 
Q 819 9 494 109 
L 494 744 
Q 775 591 1075 516 
Q 1375 441 1709 441 
Q 2250 441 2565 725 
Q 2881 1009 2881 1497 
Q 2881 1984 2565 2268 
Q 2250 2553 1709 2553 
Q 1456 2553 1204 2497 
Q 953 2441 691 2322 
L 691 4666 
z
" transform="scale(0.015625)"/>
       </defs>
       <use xlink:href="#DejaVuSans-35"/>
       <use xlink:href="#DejaVuSans-30" x="63.623047"/>
      </g>
     </g>
    </g>
    <g id="ytick_7">
     <g id="line2d_17">
      <g>
       <use xlink:href="#m355858042a" x="57.6" y="89.890369" style="stroke: #000000; stroke-width: 0.8"/>
      </g>
     </g>
     <g id="text_18">
      <!-- 60 -->
      <g transform="translate(37.875 93.689588) scale(0.1 -0.1)">
       <use xlink:href="#DejaVuSans-36"/>
       <use xlink:href="#DejaVuSans-30" x="63.623047"/>
      </g>
     </g>
    </g>
    <g id="ytick_8">
     <g id="line2d_18">
      <g>
       <use xlink:href="#m355858042a" x="57.6" y="53.712711" style="stroke: #000000; stroke-width: 0.8"/>
      </g>
     </g>
     <g id="text_19">
      <!-- 70 -->
      <g transform="translate(37.875 57.511929) scale(0.1 -0.1)">
       <use xlink:href="#DejaVuSans-37"/>
       <use xlink:href="#DejaVuSans-30" x="63.623047"/>
      </g>
     </g>
    </g>
    <g id="text_20">
     <!-- Accuracy -->
     <g transform="translate(31.795312 197.356125) rotate(-90) scale(0.1 -0.1)">
      <defs>
       <path id="DejaVuSans-41" d="M 2188 4044 
L 1331 1722 
L 3047 1722 
L 2188 4044 
z
M 1831 4666 
L 2547 4666 
L 4325 0 
L 3669 0 
L 3244 1197 
L 1141 1197 
L 716 0 
L 50 0 
L 1831 4666 
z
" transform="scale(0.015625)"/>
       <path id="DejaVuSans-75" d="M 544 1381 
L 544 3500 
L 1119 3500 
L 1119 1403 
Q 1119 906 1312 657 
Q 1506 409 1894 409 
Q 2359 409 2629 706 
Q 2900 1003 2900 1516 
L 2900 3500 
L 3475 3500 
L 3475 0 
L 2900 0 
L 2900 538 
Q 2691 219 2414 64 
Q 2138 -91 1772 -91 
Q 1169 -91 856 284 
Q 544 659 544 1381 
z
M 1991 3584 
L 1991 3584 
z
" transform="scale(0.015625)"/>
       <path id="DejaVuSans-72" d="M 2631 2963 
Q 2534 3019 2420 3045 
Q 2306 3072 2169 3072 
Q 1681 3072 1420 2755 
Q 1159 2438 1159 1844 
L 1159 0 
L 581 0 
L 581 3500 
L 1159 3500 
L 1159 2956 
Q 1341 3275 1631 3429 
Q 1922 3584 2338 3584 
Q 2397 3584 2469 3576 
Q 2541 3569 2628 3553 
L 2631 2963 
z
" transform="scale(0.015625)"/>
       <path id="DejaVuSans-61" d="M 2194 1759 
Q 1497 1759 1228 1600 
Q 959 1441 959 1056 
Q 959 750 1161 570 
Q 1363 391 1709 391 
Q 2188 391 2477 730 
Q 2766 1069 2766 1631 
L 2766 1759 
L 2194 1759 
z
M 3341 1997 
L 3341 0 
L 2766 0 
L 2766 531 
Q 2569 213 2275 61 
Q 1981 -91 1556 -91 
Q 1019 -91 701 211 
Q 384 513 384 1019 
Q 384 1609 779 1909 
Q 1175 2209 1959 2209 
L 2766 2209 
L 2766 2266 
Q 2766 2663 2505 2880 
Q 2244 3097 1772 3097 
Q 1472 3097 1187 3025 
Q 903 2953 641 2809 
L 641 3341 
Q 956 3463 1253 3523 
Q 1550 3584 1831 3584 
Q 2591 3584 2966 3190 
Q 3341 2797 3341 1997 
z
" transform="scale(0.015625)"/>
       <path id="DejaVuSans-79" d="M 2059 -325 
Q 1816 -950 1584 -1140 
Q 1353 -1331 966 -1331 
L 506 -1331 
L 506 -850 
L 844 -850 
Q 1081 -850 1212 -737 
Q 1344 -625 1503 -206 
L 1606 56 
L 191 3500 
L 800 3500 
L 1894 763 
L 2988 3500 
L 3597 3500 
L 2059 -325 
z
" transform="scale(0.015625)"/>
      </defs>
      <use xlink:href="#DejaVuSans-41"/>
      <use xlink:href="#DejaVuSans-63" x="66.658203"/>
      <use xlink:href="#DejaVuSans-63" x="121.638672"/>
      <use xlink:href="#DejaVuSans-75" x="176.619141"/>
      <use xlink:href="#DejaVuSans-72" x="239.998047"/>
      <use xlink:href="#DejaVuSans-61" x="281.111328"/>
      <use xlink:href="#DejaVuSans-63" x="342.390625"/>
      <use xlink:href="#DejaVuSans-79" x="397.371094"/>
     </g>
    </g>
   </g>
   <g id="line2d_19">
    <path d="M 73.832727 295.488 
L 76.00433 265.257044 
L 77.090131 253.933437 
L 80.347534 226.497206 
L 81.433335 220.283693 
L 83.604938 207.12407 
L 85.77654 196.34765 
L 87.948142 186.855537 
L 89.033943 182.984528 
L 90.119745 180.556102 
L 91.205546 176.522293 
L 92.291347 174.830988 
L 93.377148 173.573814 
L 94.462949 172.022697 
L 95.54875 199.784528 
L 96.634552 199.01123 
L 99.891955 188.628242 
L 100.977756 186.064151 
L 102.063557 182.55944 
L 103.149358 181.510288 
L 104.23516 177.743289 
L 105.320961 175.088754 
L 106.406762 173.718525 
L 107.492563 169.440517 
L 108.578364 168.979252 
L 109.664165 166.487515 
L 110.749967 162.905927 
L 111.835768 160.31018 
L 112.921569 158.008377 
L 114.00737 157.027058 
L 115.093171 154.928754 
L 116.178972 152.48224 
L 117.264773 149.723693 
L 118.350575 148.91874 
L 119.436376 145.983828 
L 120.522177 145.196964 
L 121.607978 142.890638 
L 123.77958 138.924662 
L 124.865382 136.505281 
L 125.951183 134.610476 
L 127.036984 132.073518 
L 128.122785 130.743989 
L 129.208586 130.043047 
L 130.294387 127.781943 
L 131.380189 127.121701 
L 132.46599 126.208215 
L 133.551791 126.465981 
L 134.637592 124.964608 
L 135.723393 124.105389 
L 136.809194 123.481324 
L 137.894995 124.123478 
L 138.980797 158.139521 
L 140.066598 161.43621 
L 141.152399 160.86189 
L 142.2382 158.519386 
L 143.324001 158.808808 
L 145.495604 156.855214 
L 146.581405 156.145227 
L 147.667206 154.63481 
L 148.753007 151.880786 
L 149.838808 151.722509 
L 150.924609 152.504851 
L 152.01041 149.827704 
L 153.096212 148.737852 
L 154.182013 148.376075 
L 156.353615 145.839117 
L 157.439416 145.603962 
L 158.525217 144.392011 
L 159.611019 142.972038 
L 160.69682 142.271096 
L 161.782621 141.086277 
L 162.868422 140.837556 
L 165.040024 138.458875 
L 166.125825 138.327731 
L 167.211627 137.889077 
L 168.297428 136.003316 
L 169.383229 136.618336 
L 170.46903 133.574891 
L 171.554831 132.525739 
L 172.640632 132.317717 
L 173.726434 131.928808 
L 174.812235 129.581782 
L 175.898036 129.007462 
L 176.983837 128.161809 
L 178.069638 127.564878 
L 179.155439 125.633895 
L 180.24124 125.448485 
L 181.327042 123.146681 
L 182.412843 123.702913 
L 183.498644 123.142159 
L 184.584445 120.428834 
L 185.670246 121.437287 
L 186.756047 119.492738 
L 187.841849 119.112872 
L 188.92765 118.497852 
L 190.013451 116.625658 
L 191.099252 114.305766 
L 192.185053 114.66302 
L 193.270854 113.695268 
L 195.442457 111.357287 
L 196.528258 109.56197 
L 197.614059 109.159494 
L 198.69986 108.553518 
L 199.785661 107.309911 
L 200.871462 106.586358 
L 201.957264 104.460921 
L 203.043065 104.157933 
L 204.128866 102.69726 
L 205.214667 102.376183 
L 206.300468 101.896829 
L 207.386269 101.281809 
L 208.472071 99.956802 
L 209.557872 97.94442 
L 210.643673 98.229319 
L 213.901076 96.741513 
L 214.986877 95.846116 
L 216.072679 95.312495 
L 217.15848 94.46232 
L 218.244281 93.883478 
L 220.415883 94.082455 
L 221.501684 93.399602 
L 222.587486 93.9287 
L 223.673287 93.087569 
L 224.759088 93.901567 
L 225.844889 137.242401 
L 226.93069 142.578606 
L 230.188094 142.067596 
L 231.273895 140.629534 
L 232.359696 139.847192 
L 233.445497 140.041647 
L 234.531298 139.223128 
L 235.617099 139.250261 
L 236.702901 138.287031 
L 238.874503 136.839925 
L 239.960304 136.794703 
L 241.046105 136.319871 
L 242.131906 136.053061 
L 243.217708 135.053653 
L 244.303509 135.804339 
L 245.38931 133.271903 
L 246.475111 133.760301 
L 247.560912 133.543236 
L 248.646713 134.198956 
L 249.732514 132.625227 
L 252.989918 130.802778 
L 254.075719 129.898336 
L 255.16152 130.730423 
L 257.333123 129.387327 
L 258.418924 129.595349 
L 259.504725 129.482293 
L 260.590526 128.428619 
L 262.762128 128.329131 
L 263.847929 127.926654 
L 264.933731 126.732791 
L 266.019532 126.79158 
L 267.105333 127.582966 
L 268.191134 126.863935 
L 269.276935 126.805147 
L 270.362736 124.562132 
L 271.448538 124.544043 
L 272.534339 123.788834 
L 273.62014 124.51691 
L 274.705941 123.237125 
L 275.791742 124.507865 
L 276.877543 123.282347 
L 277.963344 122.784904 
L 279.049146 123.182859 
L 280.134947 120.903666 
L 281.220748 121.120732 
L 282.306549 121.884985 
L 283.39235 120.663989 
L 284.478151 119.678148 
L 285.563953 119.963047 
L 286.649754 120.8087 
L 287.735555 120.564501 
L 288.821356 118.687785 
L 289.907157 118.14512 
L 290.992958 118.176775 
L 292.07876 117.805954 
L 293.164561 117.661244 
L 294.250362 116.738713 
L 295.336163 116.087515 
L 296.421964 116.765847 
L 297.507765 115.255429 
L 298.593566 115.309696 
L 299.679368 114.346466 
L 300.765169 113.9666 
L 301.85097 114.147489 
L 302.936771 113.283747 
L 304.022572 113.016937 
L 305.108373 112.130584 
L 306.194175 112.076318 
L 307.279976 111.551742 
L 308.365777 110.434756 
L 309.451578 111.601486 
L 310.537379 110.362401 
L 311.62318 109.45796 
L 313.794783 108.164608 
L 315.966385 107.888754 
L 318.137987 106.125093 
L 319.223788 105.871849 
L 320.30959 105.152818 
L 321.395391 105.582428 
L 322.481192 104.754864 
L 323.566993 104.135322 
L 324.652794 103.696668 
L 325.738595 101.715941 
L 326.824396 102.801271 
L 327.910198 102.159117 
L 328.995999 101.765685 
L 330.0818 100.133168 
L 331.167601 99.472926 
L 332.253402 99.169938 
L 334.425005 98.147919 
L 335.510806 97.356533 
L 336.596607 96.836479 
L 337.682408 96.51088 
L 338.768209 97.116856 
L 339.85401 96.488269 
L 340.939811 96.085793 
L 342.025613 94.783397 
L 343.111414 94.534676 
L 344.197215 94.019144 
L 346.368817 92.232872 
L 347.454618 92.061028 
L 348.54042 91.658552 
L 350.712022 90.491822 
L 351.797823 90.324501 
L 352.883624 89.854191 
L 353.969425 88.881917 
L 355.055227 87.74232 
L 356.141028 87.837287 
L 357.226829 87.366977 
L 358.31263 85.983182 
L 359.398431 85.675672 
L 360.484232 85.535483 
L 361.570033 84.93403 
L 362.655835 84.85263 
L 363.741636 82.935214 
L 364.827437 83.260813 
L 365.913238 82.166439 
L 366.999039 82.365416 
L 368.08484 83.256291 
L 369.170642 85.237017 
L 370.256443 85.829427 
L 371.342244 87.941297 
L 372.428045 90.351634 
L 373.513846 89.623559 
L 374.599647 90.921432 
L 375.685448 90.622966 
L 376.77125 90.613922 
L 377.857051 90.166223 
L 378.942852 90.365201 
L 381.114454 89.596425 
L 382.200255 90.279279 
L 383.286057 90.297367 
L 384.371858 90.704366 
L 385.457659 90.966654 
L 386.54346 89.496937 
L 387.629261 90.007946 
L 388.715062 90.75411 
L 389.800863 90.745066 
L 390.886665 91.111365 
L 391.972466 91.057098 
L 393.058267 90.4466 
L 394.144068 91.586197 
L 395.229869 89.727569 
L 396.31567 90.731499 
L 397.401472 91.550019 
L 398.487273 91.124931 
L 398.487273 91.124931 
" clip-path="url(#p35ab0c161a)" style="fill: none; stroke: #1f77b4; stroke-width: 1.5; stroke-linecap: square"/>
   </g>
   <g id="line2d_20">
    <path d="M 73.832727 281.794756 
L 76.00433 239.123209 
L 77.090131 229.083908 
L 79.261733 215.788619 
L 80.347534 197.518902 
L 82.519137 182.921217 
L 83.604938 175.938929 
L 84.690739 167.473357 
L 85.77654 162.209507 
L 86.862341 155.118686 
L 87.948142 157.596856 
L 89.033943 153.147004 
L 90.119745 147.051069 
L 91.205546 145.495429 
L 92.291347 142.745927 
L 93.377148 141.787219 
L 94.462949 142.619306 
L 95.54875 169.137529 
L 96.634552 165.990073 
L 97.720353 164.18119 
L 98.806154 157.452145 
L 99.891955 157.470234 
L 102.063557 145.531607 
L 103.149358 145.513518 
L 104.23516 144.934676 
L 105.320961 143.93979 
L 106.406762 144.265389 
L 107.492563 135.637017 
L 108.578364 135.709373 
L 109.664165 133.520624 
L 110.749967 128.582374 
L 111.835768 124.602832 
L 112.921569 122.359817 
L 114.00737 123.535591 
L 115.093171 116.969346 
L 116.178972 114.093222 
L 117.264773 119.483693 
L 118.350575 113.622913 
L 119.436376 109.426304 
L 120.522177 106.676802 
L 121.607978 108.232441 
L 122.693779 105.62765 
L 123.77958 104.144366 
L 124.865382 99.947758 
L 125.951183 98.51874 
L 127.036984 96.456614 
L 128.122785 95.678794 
L 129.208586 94.141244 
L 130.294387 94.086977 
L 131.380189 91.988673 
L 132.46599 91.663074 
L 133.551791 90.595833 
L 135.723393 89.637125 
L 136.809194 89.836102 
L 137.894995 89.420059 
L 138.980797 128.18442 
L 140.066598 120.044447 
L 141.152399 127.786466 
L 142.2382 121.129777 
L 143.324001 124.096345 
L 144.409802 118.235564 
L 145.495604 121.310665 
L 146.581405 118.796318 
L 147.667206 117.168323 
L 148.753007 121.23831 
L 149.838808 115.884016 
L 150.924609 115.52224 
L 152.01041 113.731445 
L 153.096212 116.806546 
L 154.182013 112.808915 
L 155.267814 113.170692 
L 156.353615 109.625281 
L 157.439416 111.904474 
L 159.611019 104.54232 
L 160.69682 105.392495 
L 161.782621 104.70512 
L 162.868422 104.469965 
L 163.954223 104.687031 
L 165.040024 105.971338 
L 166.125825 102.878148 
L 167.211627 100.83411 
L 168.297428 100.255268 
L 169.383229 99.332738 
L 170.46903 99.784958 
L 171.554831 97.921809 
L 172.640632 100.870288 
L 173.726434 97.487677 
L 174.812235 94.701997 
L 175.898036 96.384258 
L 176.983837 94.032711 
L 178.069638 94.231688 
L 179.155439 89.926546 
L 180.24124 88.081486 
L 181.327042 87.2494 
L 182.412843 85.006385 
L 183.498644 88.027219 
L 184.584445 87.231311 
L 185.670246 84.445631 
L 186.756047 80.194756 
L 187.841849 84.970207 
L 188.92765 81.732307 
L 190.013451 81.261997 
L 191.099252 79.579736 
L 192.185053 79.778713 
L 194.356656 76.323747 
L 195.442457 75.328861 
L 196.528258 77.608054 
L 197.614059 74.858552 
L 198.69986 74.514864 
L 199.785661 75.256506 
L 200.871462 73.393357 
L 201.957264 72.199494 
L 203.043065 69.739413 
L 204.128866 70.227812 
L 205.214667 69.431903 
L 206.300468 68.491284 
L 207.386269 67.279332 
L 208.472071 67.586843 
L 209.557872 66.610046 
L 210.643673 65.380005 
L 211.729474 65.30765 
L 212.815275 64.710719 
L 213.901076 64.403209 
L 216.072679 63.625389 
L 217.15848 62.919925 
L 218.244281 62.919925 
L 219.330082 62.757125 
L 220.415883 62.359171 
L 222.587486 62.720948 
L 223.673287 62.666681 
L 224.759088 62.449615 
L 225.844889 113.496291 
L 226.93069 114.328377 
L 228.016491 109.932791 
L 229.102292 104.831742 
L 230.188094 107.382266 
L 231.273895 107.961109 
L 232.359696 107.02049 
L 233.445497 106.260759 
L 234.531298 104.506143 
L 235.617099 110.7287 
L 236.702901 105.121163 
L 237.788702 102.444016 
L 238.874503 103.78259 
L 239.960304 97.722832 
L 241.046105 99.405093 
L 242.131906 97.578121 
L 243.217708 99.766869 
L 244.303509 102.263128 
L 245.38931 104.198633 
L 246.475111 99.622159 
L 247.560912 97.234433 
L 248.646713 99.549803 
L 249.732514 99.350826 
L 250.818316 98.156964 
L 251.904117 98.464474 
L 252.989918 102.353572 
L 254.075719 99.585981 
L 255.16152 101.069265 
L 256.247321 97.216345 
L 257.333123 92.694137 
L 258.418924 95.154218 
L 259.504725 95.081863 
L 260.590526 93.055914 
L 261.676327 103.239925 
L 262.762128 94.014622 
L 263.847929 96.040571 
L 264.933731 97.541943 
L 266.019532 93.869911 
L 267.105333 86.869534 
L 268.191134 92.639871 
L 269.276935 93.092092 
L 270.362736 87.629265 
L 271.448538 95.208485 
L 272.534339 93.924178 
L 273.62014 93.27298 
L 274.705941 93.833734 
L 275.791742 91.373653 
L 276.877543 89.510503 
L 277.963344 97.342966 
L 279.049146 86.308781 
L 280.134947 90.252145 
L 281.220748 91.626896 
L 282.306549 87.303666 
L 283.39235 87.158956 
L 284.478151 88.388996 
L 285.563953 85.54905 
L 286.649754 85.114918 
L 287.735555 84.192388 
L 288.821356 89.998902 
L 289.907157 85.675672 
L 290.992958 87.593087 
L 292.07876 89.962724 
L 293.164561 86.417314 
L 294.250362 85.38625 
L 295.336163 82.130261 
L 296.421964 86.182159 
L 298.593566 80.646977 
L 299.679368 80.91831 
L 300.765169 82.944258 
L 301.85097 80.285201 
L 302.936771 81.044931 
L 304.022572 79.344581 
L 305.108373 80.936398 
L 306.194175 81.153464 
L 307.279976 80.882132 
L 308.365777 76.613168 
L 309.451578 76.233303 
L 310.537379 81.442886 
L 312.708981 75.726816 
L 313.794783 75.781082 
L 314.880584 77.589965 
L 315.966385 74.315887 
L 317.052186 80.393734 
L 318.137987 78.982805 
L 319.223788 73.936022 
L 320.30959 73.158202 
L 321.395391 76.359925 
L 322.481192 72.10905 
L 323.566993 73.230557 
L 324.652794 73.936022 
L 325.738595 70.879009 
L 326.824396 70.55341 
L 327.910198 69.884124 
L 328.995999 70.191634 
L 330.0818 70.028834 
L 331.167601 70.010746 
L 332.253402 68.491284 
L 333.339203 71.49403 
L 334.425005 65.633249 
L 335.510806 67.225066 
L 336.596607 64.728808 
L 337.682408 67.912441 
L 338.768209 66.194003 
L 339.85401 65.271472 
L 340.939811 63.625389 
L 342.025613 64.982051 
L 343.111414 61.364285 
L 344.197215 64.945873 
L 345.283016 65.018229 
L 346.368817 61.219575 
L 347.454618 63.969077 
L 348.54042 62.21446 
L 349.626221 63.932899 
L 350.712022 59.881001 
L 351.797823 60.622643 
L 352.883624 61.76224 
L 353.969425 60.333222 
L 355.055227 59.718202 
L 356.141028 58.741405 
L 357.226829 58.433895 
L 358.31263 58.741405 
L 359.398431 56.9687 
L 360.484232 57.999763 
L 361.570033 56.914433 
L 362.655835 56.317502 
L 363.741636 55.88337 
L 364.827437 54.888485 
L 365.913238 54.924662 
L 366.999039 53.568 
L 368.08484 56.606923 
L 369.170642 56.462213 
L 370.256443 57.782697 
L 371.342244 59.573491 
L 372.428045 60.423666 
L 373.513846 61.870773 
L 374.599647 60.423666 
L 375.685448 64.113787 
L 376.77125 60.550288 
L 377.857051 61.400463 
L 378.942852 61.979306 
L 380.028653 63.715833 
L 381.114454 62.250638 
L 382.200255 64.764985 
L 383.286057 62.196371 
L 384.371858 63.896721 
L 385.457659 61.888861 
L 386.54346 62.467704 
L 387.629261 61.744151 
L 388.715062 61.852684 
L 389.800863 64.475564 
L 390.886665 62.919925 
L 391.972466 64.837341 
L 393.058267 61.617529 
L 394.144068 62.540059 
L 395.229869 65.144851 
L 396.31567 63.752011 
L 397.401472 60.930153 
L 398.487273 62.82948 
L 398.487273 62.82948 
" clip-path="url(#p35ab0c161a)" style="fill: none; stroke: #ff7f0e; stroke-width: 1.5; stroke-linecap: square"/>
   </g>
   <g id="line2d_21">
    <path d="M 73.832727 290.489246 
L 76.00433 261.79662 
L 77.090131 259.55111 
L 78.175932 256.058095 
L 79.261733 250.818572 
L 80.347534 239.216772 
L 81.433335 238.218767 
L 82.519137 232.230741 
L 83.604938 227.739721 
L 85.77654 212.769656 
L 86.862341 211.52215 
L 87.948142 212.644905 
L 90.119745 203.538116 
L 91.205546 199.171846 
L 92.291347 202.29061 
L 93.377148 199.670849 
L 94.462949 200.918354 
L 95.54875 221.127942 
L 96.634552 223.747704 
L 97.720353 217.260676 
L 98.806154 213.64291 
L 99.891955 219.131934 
L 100.977756 207.031131 
L 102.063557 201.167855 
L 103.149358 208.403387 
L 104.23516 209.276641 
L 105.320961 209.526142 
L 106.406762 203.288614 
L 107.492563 197.79959 
L 108.578364 202.29061 
L 109.664165 195.928332 
L 110.749967 193.682822 
L 111.835768 187.819547 
L 112.921569 189.067052 
L 114.00737 190.065057 
L 115.093171 184.326532 
L 116.178972 179.710761 
L 117.264773 183.827529 
L 118.350575 180.209764 
L 119.436376 178.463256 
L 120.522177 172.849481 
L 121.607978 173.597985 
L 122.693779 175.718744 
L 124.865382 168.483212 
L 125.951183 167.485208 
L 127.036984 170.978223 
L 128.122785 167.609959 
L 129.208586 164.740696 
L 130.294387 165.364449 
L 131.380189 163.742692 
L 132.46599 162.495186 
L 133.551791 164.865447 
L 134.637592 162.869438 
L 135.723393 162.245685 
L 136.809194 162.120935 
L 137.894995 162.619937 
L 138.980797 191.811564 
L 140.066598 188.692801 
L 141.152399 195.803582 
L 142.2382 192.560068 
L 143.324001 187.944297 
L 144.409802 187.195794 
L 145.495604 188.56805 
L 146.581405 189.441304 
L 147.667206 181.58202 
L 148.753007 186.946293 
L 149.838808 180.209764 
L 150.924609 184.451282 
L 152.01041 182.455273 
L 153.096212 180.833516 
L 154.182013 176.467247 
L 155.267814 182.580024 
L 156.353615 178.213755 
L 157.439416 184.950284 
L 158.525217 175.843495 
L 159.611019 174.970241 
L 160.69682 172.724731 
L 161.782621 174.84549 
L 162.868422 175.968245 
L 163.954223 168.732713 
L 165.040024 172.100978 
L 166.125825 170.853473 
L 167.211627 172.225729 
L 168.297428 170.853473 
L 169.383229 168.607963 
L 170.46903 171.976228 
L 171.554831 166.362453 
L 172.640632 178.089004 
L 173.726434 168.607963 
L 174.812235 163.992193 
L 175.898036 167.85946 
L 176.983837 162.495186 
L 178.069638 167.85946 
L 179.155439 160.374427 
L 180.24124 160.873429 
L 181.327042 156.756661 
L 182.412843 156.631911 
L 183.498644 156.132908 
L 184.584445 155.883407 
L 185.670246 153.263646 
L 186.756047 154.386401 
L 187.841849 157.255663 
L 188.92765 150.144882 
L 190.013451 153.513147 
L 191.099252 152.390392 
L 192.185053 153.263646 
L 194.356656 145.03011 
L 195.442457 145.404361 
L 196.528258 151.766639 
L 197.614059 146.651867 
L 198.69986 144.032105 
L 199.785661 142.7846 
L 200.871462 141.911346 
L 201.957264 143.657854 
L 203.043065 141.911346 
L 204.128866 138.418331 
L 205.214667 142.535099 
L 206.300468 136.671823 
L 207.386269 136.422322 
L 208.472071 134.925316 
L 209.557872 134.800565 
L 210.643673 134.176812 
L 211.729474 136.422322 
L 212.815275 134.800565 
L 213.901076 134.052062 
L 214.986877 132.555055 
L 216.072679 133.428309 
L 217.15848 133.927311 
L 218.244281 134.675815 
L 219.330082 134.052062 
L 221.501684 133.55306 
L 222.587486 133.927311 
L 223.673287 132.929307 
L 224.759088 133.303559 
L 225.844889 190.564059 
L 226.93069 183.95228 
L 228.016491 183.95228 
L 229.102292 172.974232 
L 230.188094 176.966249 
L 231.273895 170.728722 
L 233.445497 177.590002 
L 234.531298 175.344492 
L 235.617099 185.199785 
L 236.702901 174.595989 
L 237.788702 173.473234 
L 238.874503 173.223733 
L 239.960304 168.108961 
L 241.046105 170.728722 
L 242.131906 167.235707 
L 243.217708 164.491195 
L 244.303509 172.59998 
L 245.38931 171.976228 
L 246.475111 166.487204 
L 247.560912 162.495186 
L 248.646713 172.849481 
L 249.732514 168.982215 
L 250.818316 162.994188 
L 252.989918 174.471239 
L 254.075719 169.106965 
L 255.16152 173.972236 
L 256.247321 169.980219 
L 257.333123 164.116943 
L 258.418924 164.366444 
L 259.504725 164.990197 
L 260.590526 163.867442 
L 261.676327 172.849481 
L 262.762128 168.483212 
L 263.847929 169.730718 
L 264.933731 173.597985 
L 266.019532 160.873429 
L 267.105333 153.637897 
L 268.191134 164.740696 
L 269.276935 170.603972 
L 270.362736 159.625924 
L 271.448538 161.746683 
L 272.534339 167.734709 
L 273.62014 157.754665 
L 274.705941 164.990197 
L 275.791742 163.36844 
L 276.877543 163.36844 
L 277.963344 167.734709 
L 279.049146 152.764644 
L 280.134947 159.501173 
L 281.220748 160.623928 
L 282.306549 159.625924 
L 283.39235 159.126921 
L 284.478151 157.505164 
L 285.563953 150.144882 
L 286.649754 153.138895 
L 287.735555 155.384405 
L 288.821356 164.615945 
L 289.907157 153.138895 
L 290.992958 162.370436 
L 292.07876 164.491195 
L 293.164561 156.382409 
L 294.250362 158.627919 
L 295.336163 150.394383 
L 296.421964 159.875425 
L 297.507765 152.140891 
L 298.593566 150.394383 
L 299.679368 154.885403 
L 300.765169 149.895381 
L 301.85097 152.390392 
L 302.936771 148.647876 
L 304.022572 149.396379 
L 305.108373 151.766639 
L 306.194175 152.889394 
L 307.279976 155.758657 
L 308.365777 147.774622 
L 309.451578 145.03011 
L 310.537379 154.1369 
L 311.62318 147.40037 
L 312.708981 146.651867 
L 313.794783 143.408353 
L 314.880584 148.398375 
L 315.966385 146.776617 
L 317.052186 155.134904 
L 318.137987 150.643884 
L 319.223788 151.89139 
L 320.30959 142.535099 
L 321.395391 150.144882 
L 322.481192 138.917333 
L 324.652794 143.657854 
L 325.738595 142.036097 
L 326.824396 142.7846 
L 327.910198 141.287593 
L 328.995999 136.796574 
L 330.0818 146.651867 
L 331.167601 142.285598 
L 332.253402 139.416335 
L 333.339203 142.909351 
L 334.425005 136.921324 
L 335.510806 137.420327 
L 336.596607 137.046075 
L 337.682408 139.166834 
L 338.768209 133.428309 
L 339.85401 133.802561 
L 340.939811 133.802561 
L 342.025613 134.176812 
L 343.111414 127.565033 
L 344.197215 134.052062 
L 345.283016 133.55306 
L 346.368817 132.180804 
L 347.454618 134.800565 
L 348.54042 129.561042 
L 349.626221 135.050066 
L 350.712022 129.06204 
L 351.797823 131.806552 
L 352.883624 133.927311 
L 353.969425 126.442279 
L 355.055227 126.442279 
L 356.141028 126.69178 
L 357.226829 127.814535 
L 358.31263 125.943276 
L 359.398431 123.822517 
L 360.484232 127.814535 
L 361.570033 124.57102 
L 362.655835 125.569025 
L 364.827437 120.579003 
L 365.913238 124.072018 
L 366.999039 120.579003 
L 368.08484 125.194773 
L 369.170642 127.814535 
L 370.256443 125.693775 
L 371.342244 130.434296 
L 372.428045 133.428309 
L 374.599647 131.681801 
L 375.685448 134.426313 
L 376.77125 129.311541 
L 377.857051 131.681801 
L 378.942852 131.30755 
L 380.028653 132.430305 
L 381.114454 127.939285 
L 382.200255 135.798569 
L 383.286057 130.559047 
L 384.371858 135.549068 
L 385.457659 130.060044 
L 386.54346 130.309545 
L 387.629261 131.806552 
L 388.715062 131.681801 
L 389.800863 139.042084 
L 390.886665 134.176812 
L 391.972466 134.800565 
L 393.058267 133.927311 
L 394.144068 130.434296 
L 395.229869 140.913342 
L 396.31567 132.929307 
L 397.401472 128.937289 
L 398.487273 133.55306 
L 398.487273 133.55306 
" clip-path="url(#p35ab0c161a)" style="fill: none; stroke: #2ca02c; stroke-width: 1.5; stroke-linecap: square"/>
   </g>
   <g id="line2d_22">
    <path d="M 368.08484 55.123639 
L 369.170642 55.738659 
L 370.256443 58.307273 
L 371.342244 57.258121 
L 372.428045 60.297044 
L 373.513846 62.793303 
L 374.599647 61.129131 
L 375.685448 63.806277 
L 376.77125 69.124393 
L 377.857051 65.30765 
L 378.942852 62.82948 
L 380.028653 62.720948 
L 381.114454 65.072495 
L 383.286057 65.235295 
L 384.371858 70.137367 
L 385.457659 68.672172 
L 386.54346 70.083101 
L 387.629261 66.374891 
L 388.715062 66.809023 
L 389.800863 70.372522 
L 390.886665 71.729184 
L 391.972466 72.669803 
L 393.058267 70.915187 
L 394.144068 65.126762 
L 395.229869 70.499144 
L 396.31567 73.682778 
L 397.401472 74.189265 
L 398.487273 74.388242 
L 398.487273 74.388242 
" clip-path="url(#p35ab0c161a)" style="fill: none; stroke: #d62728; stroke-width: 1.5; stroke-linecap: square"/>
   </g>
   <g id="line2d_23">
    <path d="M 368.08484 125.070023 
L 369.170642 122.575012 
L 370.256443 125.818526 
L 371.342244 123.323515 
L 372.428045 133.303559 
L 373.513846 136.172821 
L 374.599647 133.55306 
L 375.685448 135.050066 
L 376.77125 146.651867 
M 378.942852 135.424318 
L 380.028653 134.426313 
L 381.114454 138.16883 
L 383.286057 135.299567 
L 384.371858 139.416335 
L 385.457659 135.174817 
L 386.54346 136.172821 
L 387.629261 133.67781 
L 389.800863 142.659849 
L 390.886665 140.41434 
L 391.972466 142.659849 
L 393.058267 141.661845 
L 394.144068 133.927311 
L 395.229869 138.543081 
L 396.31567 145.404361 
L 397.401472 143.034101 
L 398.487273 142.036097 
L 398.487273 142.036097 
" clip-path="url(#p35ab0c161a)" style="fill: none; stroke: #9467bd; stroke-width: 1.5; stroke-linecap: square"/>
   </g>
   <g id="patch_3">
    <path d="M 57.6 307.584 
L 57.6 41.472 
" style="fill: none; stroke: #000000; stroke-width: 0.8; stroke-linejoin: miter; stroke-linecap: square"/>
   </g>
   <g id="patch_4">
    <path d="M 414.72 307.584 
L 414.72 41.472 
" style="fill: none; stroke: #000000; stroke-width: 0.8; stroke-linejoin: miter; stroke-linecap: square"/>
   </g>
   <g id="patch_5">
    <path d="M 57.6 307.584 
L 414.72 307.584 
" style="fill: none; stroke: #000000; stroke-width: 0.8; stroke-linejoin: miter; stroke-linecap: square"/>
   </g>
   <g id="patch_6">
    <path d="M 57.6 41.472 
L 414.72 41.472 
" style="fill: none; stroke: #000000; stroke-width: 0.8; stroke-linejoin: miter; stroke-linecap: square"/>
   </g>
   <g id="text_21">
    <!-- Learning Curves -->
    <g transform="translate(187.37625 35.472) scale(0.12 -0.12)">
     <defs>
      <path id="DejaVuSans-4c" d="M 628 4666 
L 1259 4666 
L 1259 531 
L 3531 531 
L 3531 0 
L 628 0 
L 628 4666 
z
" transform="scale(0.015625)"/>
      <path id="DejaVuSans-65" d="M 3597 1894 
L 3597 1613 
L 953 1613 
Q 991 1019 1311 708 
Q 1631 397 2203 397 
Q 2534 397 2845 478 
Q 3156 559 3463 722 
L 3463 178 
Q 3153 47 2828 -22 
Q 2503 -91 2169 -91 
Q 1331 -91 842 396 
Q 353 884 353 1716 
Q 353 2575 817 3079 
Q 1281 3584 2069 3584 
Q 2775 3584 3186 3129 
Q 3597 2675 3597 1894 
z
M 3022 2063 
Q 3016 2534 2758 2815 
Q 2500 3097 2075 3097 
Q 1594 3097 1305 2825 
Q 1016 2553 972 2059 
L 3022 2063 
z
" transform="scale(0.015625)"/>
      <path id="DejaVuSans-6e" d="M 3513 2113 
L 3513 0 
L 2938 0 
L 2938 2094 
Q 2938 2591 2744 2837 
Q 2550 3084 2163 3084 
Q 1697 3084 1428 2787 
Q 1159 2491 1159 1978 
L 1159 0 
L 581 0 
L 581 3500 
L 1159 3500 
L 1159 2956 
Q 1366 3272 1645 3428 
Q 1925 3584 2291 3584 
Q 2894 3584 3203 3211 
Q 3513 2838 3513 2113 
z
" transform="scale(0.015625)"/>
      <path id="DejaVuSans-69" d="M 603 3500 
L 1178 3500 
L 1178 0 
L 603 0 
L 603 3500 
z
M 603 4863 
L 1178 4863 
L 1178 4134 
L 603 4134 
L 603 4863 
z
" transform="scale(0.015625)"/>
      <path id="DejaVuSans-67" d="M 2906 1791 
Q 2906 2416 2648 2759 
Q 2391 3103 1925 3103 
Q 1463 3103 1205 2759 
Q 947 2416 947 1791 
Q 947 1169 1205 825 
Q 1463 481 1925 481 
Q 2391 481 2648 825 
Q 2906 1169 2906 1791 
z
M 3481 434 
Q 3481 -459 3084 -895 
Q 2688 -1331 1869 -1331 
Q 1566 -1331 1297 -1286 
Q 1028 -1241 775 -1147 
L 775 -588 
Q 1028 -725 1275 -790 
Q 1522 -856 1778 -856 
Q 2344 -856 2625 -561 
Q 2906 -266 2906 331 
L 2906 616 
Q 2728 306 2450 153 
Q 2172 0 1784 0 
Q 1141 0 747 490 
Q 353 981 353 1791 
Q 353 2603 747 3093 
Q 1141 3584 1784 3584 
Q 2172 3584 2450 3431 
Q 2728 3278 2906 2969 
L 2906 3500 
L 3481 3500 
L 3481 434 
z
" transform="scale(0.015625)"/>
      <path id="DejaVuSans-20" transform="scale(0.015625)"/>
      <path id="DejaVuSans-43" d="M 4122 4306 
L 4122 3641 
Q 3803 3938 3442 4084 
Q 3081 4231 2675 4231 
Q 1875 4231 1450 3742 
Q 1025 3253 1025 2328 
Q 1025 1406 1450 917 
Q 1875 428 2675 428 
Q 3081 428 3442 575 
Q 3803 722 4122 1019 
L 4122 359 
Q 3791 134 3420 21 
Q 3050 -91 2638 -91 
Q 1578 -91 968 557 
Q 359 1206 359 2328 
Q 359 3453 968 4101 
Q 1578 4750 2638 4750 
Q 3056 4750 3426 4639 
Q 3797 4528 4122 4306 
z
" transform="scale(0.015625)"/>
      <path id="DejaVuSans-76" d="M 191 3500 
L 800 3500 
L 1894 563 
L 2988 3500 
L 3597 3500 
L 2284 0 
L 1503 0 
L 191 3500 
z
" transform="scale(0.015625)"/>
     </defs>
     <use xlink:href="#DejaVuSans-4c"/>
     <use xlink:href="#DejaVuSans-65" x="53.962891"/>
     <use xlink:href="#DejaVuSans-61" x="115.486328"/>
     <use xlink:href="#DejaVuSans-72" x="176.765625"/>
     <use xlink:href="#DejaVuSans-6e" x="216.128906"/>
     <use xlink:href="#DejaVuSans-69" x="279.507812"/>
     <use xlink:href="#DejaVuSans-6e" x="307.291016"/>
     <use xlink:href="#DejaVuSans-67" x="370.669922"/>
     <use xlink:href="#DejaVuSans-20" x="434.146484"/>
     <use xlink:href="#DejaVuSans-43" x="465.933594"/>
     <use xlink:href="#DejaVuSans-75" x="535.757812"/>
     <use xlink:href="#DejaVuSans-72" x="599.136719"/>
     <use xlink:href="#DejaVuSans-76" x="640.25"/>
     <use xlink:href="#DejaVuSans-65" x="699.429688"/>
     <use xlink:href="#DejaVuSans-73" x="760.953125"/>
    </g>
   </g>
   <g id="legend_1">
    <g id="patch_7">
     <path d="M 214.18875 302.584 
L 407.72 302.584 
Q 409.72 302.584 409.72 300.584 
L 409.72 228.193375 
Q 409.72 226.193375 407.72 226.193375 
L 214.18875 226.193375 
Q 212.18875 226.193375 212.18875 228.193375 
L 212.18875 300.584 
Q 212.18875 302.584 214.18875 302.584 
z
" style="fill: #ffffff; opacity: 0.8; stroke: #cccccc; stroke-linejoin: miter"/>
    </g>
    <g id="line2d_24">
     <path d="M 216.18875 234.291812 
L 226.18875 234.291812 
L 236.18875 234.291812 
" style="fill: none; stroke: #1f77b4; stroke-width: 1.5; stroke-linecap: square"/>
    </g>
    <g id="text_22">
     <!-- Train Accuracy -->
     <g transform="translate(244.18875 237.791812) scale(0.1 -0.1)">
      <defs>
       <path id="DejaVuSans-54" d="M -19 4666 
L 3928 4666 
L 3928 4134 
L 2272 4134 
L 2272 0 
L 1638 0 
L 1638 4134 
L -19 4134 
L -19 4666 
z
" transform="scale(0.015625)"/>
      </defs>
      <use xlink:href="#DejaVuSans-54"/>
      <use xlink:href="#DejaVuSans-72" x="46.333984"/>
      <use xlink:href="#DejaVuSans-61" x="87.447266"/>
      <use xlink:href="#DejaVuSans-69" x="148.726562"/>
      <use xlink:href="#DejaVuSans-6e" x="176.509766"/>
      <use xlink:href="#DejaVuSans-20" x="239.888672"/>
      <use xlink:href="#DejaVuSans-41" x="271.675781"/>
      <use xlink:href="#DejaVuSans-63" x="338.333984"/>
      <use xlink:href="#DejaVuSans-63" x="393.314453"/>
      <use xlink:href="#DejaVuSans-75" x="448.294922"/>
      <use xlink:href="#DejaVuSans-72" x="511.673828"/>
      <use xlink:href="#DejaVuSans-61" x="552.787109"/>
      <use xlink:href="#DejaVuSans-63" x="614.066406"/>
      <use xlink:href="#DejaVuSans-79" x="669.046875"/>
     </g>
    </g>
    <g id="line2d_25">
     <path d="M 216.18875 248.969937 
L 226.18875 248.969937 
L 236.18875 248.969937 
" style="fill: none; stroke: #ff7f0e; stroke-width: 1.5; stroke-linecap: square"/>
    </g>
    <g id="text_23">
     <!-- Validation Accuracy -->
     <g transform="translate(244.18875 252.469937) scale(0.1 -0.1)">
      <defs>
       <path id="DejaVuSans-56" d="M 1831 0 
L 50 4666 
L 709 4666 
L 2188 738 
L 3669 4666 
L 4325 4666 
L 2547 0 
L 1831 0 
z
" transform="scale(0.015625)"/>
       <path id="DejaVuSans-6c" d="M 603 4863 
L 1178 4863 
L 1178 0 
L 603 0 
L 603 4863 
z
" transform="scale(0.015625)"/>
       <path id="DejaVuSans-64" d="M 2906 2969 
L 2906 4863 
L 3481 4863 
L 3481 0 
L 2906 0 
L 2906 525 
Q 2725 213 2448 61 
Q 2172 -91 1784 -91 
Q 1150 -91 751 415 
Q 353 922 353 1747 
Q 353 2572 751 3078 
Q 1150 3584 1784 3584 
Q 2172 3584 2448 3432 
Q 2725 3281 2906 2969 
z
M 947 1747 
Q 947 1113 1208 752 
Q 1469 391 1925 391 
Q 2381 391 2643 752 
Q 2906 1113 2906 1747 
Q 2906 2381 2643 2742 
Q 2381 3103 1925 3103 
Q 1469 3103 1208 2742 
Q 947 2381 947 1747 
z
" transform="scale(0.015625)"/>
       <path id="DejaVuSans-74" d="M 1172 4494 
L 1172 3500 
L 2356 3500 
L 2356 3053 
L 1172 3053 
L 1172 1153 
Q 1172 725 1289 603 
Q 1406 481 1766 481 
L 2356 481 
L 2356 0 
L 1766 0 
Q 1100 0 847 248 
Q 594 497 594 1153 
L 594 3053 
L 172 3053 
L 172 3500 
L 594 3500 
L 594 4494 
L 1172 4494 
z
" transform="scale(0.015625)"/>
      </defs>
      <use xlink:href="#DejaVuSans-56"/>
      <use xlink:href="#DejaVuSans-61" x="60.658203"/>
      <use xlink:href="#DejaVuSans-6c" x="121.9375"/>
      <use xlink:href="#DejaVuSans-69" x="149.720703"/>
      <use xlink:href="#DejaVuSans-64" x="177.503906"/>
      <use xlink:href="#DejaVuSans-61" x="240.980469"/>
      <use xlink:href="#DejaVuSans-74" x="302.259766"/>
      <use xlink:href="#DejaVuSans-69" x="341.46875"/>
      <use xlink:href="#DejaVuSans-6f" x="369.251953"/>
      <use xlink:href="#DejaVuSans-6e" x="430.433594"/>
      <use xlink:href="#DejaVuSans-20" x="493.8125"/>
      <use xlink:href="#DejaVuSans-41" x="525.599609"/>
      <use xlink:href="#DejaVuSans-63" x="592.257812"/>
      <use xlink:href="#DejaVuSans-63" x="647.238281"/>
      <use xlink:href="#DejaVuSans-75" x="702.21875"/>
      <use xlink:href="#DejaVuSans-72" x="765.597656"/>
      <use xlink:href="#DejaVuSans-61" x="806.710938"/>
      <use xlink:href="#DejaVuSans-63" x="867.990234"/>
      <use xlink:href="#DejaVuSans-79" x="922.970703"/>
     </g>
    </g>
    <g id="line2d_26">
     <path d="M 216.18875 263.648062 
L 226.18875 263.648062 
L 236.18875 263.648062 
" style="fill: none; stroke: #2ca02c; stroke-width: 1.5; stroke-linecap: square"/>
    </g>
    <g id="text_24">
     <!-- Robust Validation Accuracy -->
     <g transform="translate(244.18875 267.148062) scale(0.1 -0.1)">
      <defs>
       <path id="DejaVuSans-52" d="M 2841 2188 
Q 3044 2119 3236 1894 
Q 3428 1669 3622 1275 
L 4263 0 
L 3584 0 
L 2988 1197 
Q 2756 1666 2539 1819 
Q 2322 1972 1947 1972 
L 1259 1972 
L 1259 0 
L 628 0 
L 628 4666 
L 2053 4666 
Q 2853 4666 3247 4331 
Q 3641 3997 3641 3322 
Q 3641 2881 3436 2590 
Q 3231 2300 2841 2188 
z
M 1259 4147 
L 1259 2491 
L 2053 2491 
Q 2509 2491 2742 2702 
Q 2975 2913 2975 3322 
Q 2975 3731 2742 3939 
Q 2509 4147 2053 4147 
L 1259 4147 
z
" transform="scale(0.015625)"/>
       <path id="DejaVuSans-62" d="M 3116 1747 
Q 3116 2381 2855 2742 
Q 2594 3103 2138 3103 
Q 1681 3103 1420 2742 
Q 1159 2381 1159 1747 
Q 1159 1113 1420 752 
Q 1681 391 2138 391 
Q 2594 391 2855 752 
Q 3116 1113 3116 1747 
z
M 1159 2969 
Q 1341 3281 1617 3432 
Q 1894 3584 2278 3584 
Q 2916 3584 3314 3078 
Q 3713 2572 3713 1747 
Q 3713 922 3314 415 
Q 2916 -91 2278 -91 
Q 1894 -91 1617 61 
Q 1341 213 1159 525 
L 1159 0 
L 581 0 
L 581 4863 
L 1159 4863 
L 1159 2969 
z
" transform="scale(0.015625)"/>
      </defs>
      <use xlink:href="#DejaVuSans-52"/>
      <use xlink:href="#DejaVuSans-6f" x="64.982422"/>
      <use xlink:href="#DejaVuSans-62" x="126.164062"/>
      <use xlink:href="#DejaVuSans-75" x="189.640625"/>
      <use xlink:href="#DejaVuSans-73" x="253.019531"/>
      <use xlink:href="#DejaVuSans-74" x="305.119141"/>
      <use xlink:href="#DejaVuSans-20" x="344.328125"/>
      <use xlink:href="#DejaVuSans-56" x="376.115234"/>
      <use xlink:href="#DejaVuSans-61" x="436.773438"/>
      <use xlink:href="#DejaVuSans-6c" x="498.052734"/>
      <use xlink:href="#DejaVuSans-69" x="525.835938"/>
      <use xlink:href="#DejaVuSans-64" x="553.619141"/>
      <use xlink:href="#DejaVuSans-61" x="617.095703"/>
      <use xlink:href="#DejaVuSans-74" x="678.375"/>
      <use xlink:href="#DejaVuSans-69" x="717.583984"/>
      <use xlink:href="#DejaVuSans-6f" x="745.367188"/>
      <use xlink:href="#DejaVuSans-6e" x="806.548828"/>
      <use xlink:href="#DejaVuSans-20" x="869.927734"/>
      <use xlink:href="#DejaVuSans-41" x="901.714844"/>
      <use xlink:href="#DejaVuSans-63" x="968.373047"/>
      <use xlink:href="#DejaVuSans-63" x="1023.353516"/>
      <use xlink:href="#DejaVuSans-75" x="1078.333984"/>
      <use xlink:href="#DejaVuSans-72" x="1141.712891"/>
      <use xlink:href="#DejaVuSans-61" x="1182.826172"/>
      <use xlink:href="#DejaVuSans-63" x="1244.105469"/>
      <use xlink:href="#DejaVuSans-79" x="1299.085938"/>
     </g>
    </g>
    <g id="line2d_27">
     <path d="M 216.18875 278.326188 
L 226.18875 278.326188 
L 236.18875 278.326188 
" style="fill: none; stroke: #d62728; stroke-width: 1.5; stroke-linecap: square"/>
    </g>
    <g id="text_25">
     <!-- SWA Validation Accuracy -->
     <g transform="translate(244.18875 281.826188) scale(0.1 -0.1)">
      <defs>
       <path id="DejaVuSans-53" d="M 3425 4513 
L 3425 3897 
Q 3066 4069 2747 4153 
Q 2428 4238 2131 4238 
Q 1616 4238 1336 4038 
Q 1056 3838 1056 3469 
Q 1056 3159 1242 3001 
Q 1428 2844 1947 2747 
L 2328 2669 
Q 3034 2534 3370 2195 
Q 3706 1856 3706 1288 
Q 3706 609 3251 259 
Q 2797 -91 1919 -91 
Q 1588 -91 1214 -16 
Q 841 59 441 206 
L 441 856 
Q 825 641 1194 531 
Q 1563 422 1919 422 
Q 2459 422 2753 634 
Q 3047 847 3047 1241 
Q 3047 1584 2836 1778 
Q 2625 1972 2144 2069 
L 1759 2144 
Q 1053 2284 737 2584 
Q 422 2884 422 3419 
Q 422 4038 858 4394 
Q 1294 4750 2059 4750 
Q 2388 4750 2728 4690 
Q 3069 4631 3425 4513 
z
" transform="scale(0.015625)"/>
       <path id="DejaVuSans-57" d="M 213 4666 
L 850 4666 
L 1831 722 
L 2809 4666 
L 3519 4666 
L 4500 722 
L 5478 4666 
L 6119 4666 
L 4947 0 
L 4153 0 
L 3169 4050 
L 2175 0 
L 1381 0 
L 213 4666 
z
" transform="scale(0.015625)"/>
      </defs>
      <use xlink:href="#DejaVuSans-53"/>
      <use xlink:href="#DejaVuSans-57" x="63.476562"/>
      <use xlink:href="#DejaVuSans-41" x="156.853516"/>
      <use xlink:href="#DejaVuSans-20" x="225.261719"/>
      <use xlink:href="#DejaVuSans-56" x="257.048828"/>
      <use xlink:href="#DejaVuSans-61" x="317.707031"/>
      <use xlink:href="#DejaVuSans-6c" x="378.986328"/>
      <use xlink:href="#DejaVuSans-69" x="406.769531"/>
      <use xlink:href="#DejaVuSans-64" x="434.552734"/>
      <use xlink:href="#DejaVuSans-61" x="498.029297"/>
      <use xlink:href="#DejaVuSans-74" x="559.308594"/>
      <use xlink:href="#DejaVuSans-69" x="598.517578"/>
      <use xlink:href="#DejaVuSans-6f" x="626.300781"/>
      <use xlink:href="#DejaVuSans-6e" x="687.482422"/>
      <use xlink:href="#DejaVuSans-20" x="750.861328"/>
      <use xlink:href="#DejaVuSans-41" x="782.648438"/>
      <use xlink:href="#DejaVuSans-63" x="849.306641"/>
      <use xlink:href="#DejaVuSans-63" x="904.287109"/>
      <use xlink:href="#DejaVuSans-75" x="959.267578"/>
      <use xlink:href="#DejaVuSans-72" x="1022.646484"/>
      <use xlink:href="#DejaVuSans-61" x="1063.759766"/>
      <use xlink:href="#DejaVuSans-63" x="1125.039062"/>
      <use xlink:href="#DejaVuSans-79" x="1180.019531"/>
     </g>
    </g>
    <g id="line2d_28">
     <path d="M 216.18875 293.004312 
L 226.18875 293.004312 
L 236.18875 293.004312 
" style="fill: none; stroke: #9467bd; stroke-width: 1.5; stroke-linecap: square"/>
    </g>
    <g id="text_26">
     <!-- SWA Robust Validation Accuracy -->
     <g transform="translate(244.18875 296.504312) scale(0.1 -0.1)">
      <use xlink:href="#DejaVuSans-53"/>
      <use xlink:href="#DejaVuSans-57" x="63.476562"/>
      <use xlink:href="#DejaVuSans-41" x="156.853516"/>
      <use xlink:href="#DejaVuSans-20" x="225.261719"/>
      <use xlink:href="#DejaVuSans-52" x="257.048828"/>
      <use xlink:href="#DejaVuSans-6f" x="322.03125"/>
      <use xlink:href="#DejaVuSans-62" x="383.212891"/>
      <use xlink:href="#DejaVuSans-75" x="446.689453"/>
      <use xlink:href="#DejaVuSans-73" x="510.068359"/>
      <use xlink:href="#DejaVuSans-74" x="562.167969"/>
      <use xlink:href="#DejaVuSans-20" x="601.376953"/>
      <use xlink:href="#DejaVuSans-56" x="633.164062"/>
      <use xlink:href="#DejaVuSans-61" x="693.822266"/>
      <use xlink:href="#DejaVuSans-6c" x="755.101562"/>
      <use xlink:href="#DejaVuSans-69" x="782.884766"/>
      <use xlink:href="#DejaVuSans-64" x="810.667969"/>
      <use xlink:href="#DejaVuSans-61" x="874.144531"/>
      <use xlink:href="#DejaVuSans-74" x="935.423828"/>
      <use xlink:href="#DejaVuSans-69" x="974.632812"/>
      <use xlink:href="#DejaVuSans-6f" x="1002.416016"/>
      <use xlink:href="#DejaVuSans-6e" x="1063.597656"/>
      <use xlink:href="#DejaVuSans-20" x="1126.976562"/>
      <use xlink:href="#DejaVuSans-41" x="1158.763672"/>
      <use xlink:href="#DejaVuSans-63" x="1225.421875"/>
      <use xlink:href="#DejaVuSans-63" x="1280.402344"/>
      <use xlink:href="#DejaVuSans-75" x="1335.382812"/>
      <use xlink:href="#DejaVuSans-72" x="1398.761719"/>
      <use xlink:href="#DejaVuSans-61" x="1439.875"/>
      <use xlink:href="#DejaVuSans-63" x="1501.154297"/>
      <use xlink:href="#DejaVuSans-79" x="1556.134766"/>
     </g>
    </g>
   </g>
  </g>
 </g>
 <defs>
  <clipPath id="p35ab0c161a">
   <rect x="57.6" y="41.472" width="357.12" height="266.112"/>
  </clipPath>
 </defs>
</svg>
